<?xml version="1.0" standalone="no"?><!DOCTYPE svg PUBLIC "-//W3C//DTD SVG 1.1//EN" "http://www.w3.org/Graphics/SVG/1.1/DTD/svg11.dtd"><svg xmlns:xlink="http://www.w3.org/1999/xlink" version="1.1" class="highcharts-root" style="font-family:Arial;font-size:12px;" xmlns="http://www.w3.org/2000/svg" viewBox="0 0 485 415"><desc>Created with Highcharts 8.2.0</desc><defs><clipPath id="highcharts-xy9b9iu-47-"><rect x="0" y="0" width="428" height="215" fill="none"></rect></clipPath><clipPath id="highcharts-xy9b9iu-58-"><rect x="0" y="0" width="428" height="215" fill="none"></rect></clipPath><clipPath id="highcharts-xy9b9iu-89-"><rect x="47" y="136" width="428" height="215" fill="none"></rect></clipPath></defs><rect fill="#fbfbfb" class="highcharts-background" x="0" y="0" width="485" height="428" rx="0" ry="0"></rect><rect fill="none" class="highcharts-plot-background" x="47" y="136" width="428" height="215"></rect><g class="highcharts-pane-group" data-z-index="0"></g><g class="highcharts-grid highcharts-xaxis-grid" data-z-index="1"><path fill="none" data-z-index="1" class="highcharts-grid-line" d="M 50.5 136 L 50.5 351" opacity="1"></path><path fill="none" data-z-index="1" class="highcharts-grid-line" d="M 97.5 136 L 97.5 351" opacity="1"></path><path fill="none" data-z-index="1" class="highcharts-grid-line" d="M 143.5 136 L 143.5 351" opacity="1"></path><path fill="none" data-z-index="1" class="highcharts-grid-line" d="M 190.5 136 L 190.5 351" opacity="1"></path><path fill="none" data-z-index="1" class="highcharts-grid-line" d="M 237.5 136 L 237.5 351" opacity="1"></path><path fill="none" data-z-index="1" class="highcharts-grid-line" d="M 283.5 136 L 283.5 351" opacity="1"></path><path fill="none" data-z-index="1" class="highcharts-grid-line" d="M 330.5 136 L 330.5 351" opacity="1"></path><path fill="none" data-z-index="1" class="highcharts-grid-line" d="M 377.5 136 L 377.5 351" opacity="1"></path><path fill="none" data-z-index="1" class="highcharts-grid-line" d="M 423.5 136 L 423.5 351" opacity="1"></path><path fill="none" data-z-index="1" class="highcharts-grid-line" d="M 470.5 136 L 470.5 351" opacity="1"></path></g><g class="highcharts-grid highcharts-yaxis-grid" data-z-index="1"><path fill="none" stroke="#B9CFD7" stroke-width="0.5" data-z-index="1" class="highcharts-grid-line" d="M 47 351.25 L 475 351.25" opacity="1"></path><path fill="none" stroke="#B9CFD7" stroke-width="0.5" data-z-index="1" class="highcharts-grid-line" d="M 47 279.25 L 475 279.25" opacity="1"></path><path fill="none" stroke="#B9CFD7" stroke-width="0.5" data-z-index="1" class="highcharts-grid-line" d="M 47 208.25 L 475 208.25" opacity="1"></path><path fill="none" stroke="#B9CFD7" stroke-width="0.5" data-z-index="1" class="highcharts-grid-line" d="M 47 135.75 L 475 135.75" opacity="1"></path></g><rect fill="none" class="highcharts-plot-border" data-z-index="1" x="47" y="136" width="428" height="215"></rect><g class="highcharts-axis highcharts-xaxis" data-z-index="2"><path fill="none" class="highcharts-axis-line" stroke="#B9CFD7" stroke-width="0.5" data-z-index="7" d="M 47 351.25 L 475 351.25"></path></g><g class="highcharts-axis highcharts-yaxis" data-z-index="2"><path fill="none" class="highcharts-axis-line" data-z-index="7" d="M 47 136 L 47 351"></path></g><g class="highcharts-series-group" data-z-index="3"><g class="highcharts-series highcharts-series-0 highcharts-line-series" data-z-index="0.1" opacity="1" transform="translate(47,136) scale(1 1)" clip-path="url(#highcharts-xy9b9iu-58-)"><path fill="none" d="M 4.1960784313688 49.30666666666667 L 50.819172113287 39.846666666666664 L 97.442265795205 36.120000000000005 L 144.06535947712 32.39333333333332 L 190.68845315904 27.23333333333332 L 237.31154684096 26.373333333333335 L 283.93464052288 22.646666666666675 L 330.5577342048 19.78 L 377.18082788671 24.366666666666674 L 423.80392156863 17.19999999999999" class="highcharts-graph" data-z-index="1" stroke="#083038" stroke-width="2" stroke-linejoin="round" stroke-linecap="round"></path></g><g class="highcharts-markers highcharts-series-0 highcharts-line-series" data-z-index="0.1" opacity="1" transform="translate(47,136) scale(1 1)" clip-path="none"></g><g class="highcharts-series highcharts-series-1 highcharts-line-series" data-z-index="0.1" opacity="1" transform="translate(47,136) scale(1 1)" clip-path="url(#highcharts-xy9b9iu-58-)"><path fill="none" d="M 4.1960784313688 92.02 L 50.819172113287 83.99333333333331 L 97.442265795205 80.26666666666665 L 144.06535947712 77.68666666666667 L 190.68845315904 71.38 L 237.31154684096 71.38 L 283.93464052288 68.51333333333332 L 330.5577342048 66.79333333333332 L 377.18082788671 69.37333333333333 L 423.80392156863 97.46666666666667" class="highcharts-graph" data-z-index="1" stroke="#A8C3CA" stroke-width="2" stroke-linejoin="round" stroke-linecap="round"></path></g><g class="highcharts-markers highcharts-series-1 highcharts-line-series" data-z-index="0.1" opacity="1" transform="translate(47,136) scale(1 1)" clip-path="none"></g><g class="highcharts-series highcharts-series-2 highcharts-line-series" data-z-index="0.1" opacity="1" transform="translate(47,136) scale(1 1)" clip-path="url(#highcharts-xy9b9iu-58-)"><path fill="none" d="M 4.1960784313688 165.40666666666667 L 50.819172113287 164.26 L 97.442265795205 162.54 L 144.06535947712 161.10666666666665 L 190.68845315904 159.96 L 237.31154684096 158.24 L 283.93464052288 155.94666666666666 L 330.5577342048 156.80666666666667 L 377.18082788671 155.08666666666667 L 423.80392156863 155.08666666666667" class="highcharts-graph" data-z-index="1" stroke="#B00000" stroke-width="2" stroke-linejoin="round" stroke-linecap="round"></path></g><g class="highcharts-markers highcharts-series-2 highcharts-line-series" data-z-index="0.1" opacity="1" transform="translate(47,136) scale(1 1)" clip-path="none"></g><g class="highcharts-series highcharts-series-3 highcharts-line-series" data-z-index="0.1" opacity="1" transform="translate(47,136) scale(1 1)" clip-path="url(#highcharts-xy9b9iu-58-)"><path fill="none" d="M 4.1960784313688 181.74666666666667 L 50.819172113287 180.6 L 97.442265795205 179.45333333333332 L 144.06535947712 178.01999999999998 L 190.68845315904 176.87333333333333 L 237.31154684096 175.15333333333334 L 283.93464052288 173.43333333333334 L 330.5577342048 172.28666666666666 L 377.18082788671 178.59333333333333 L 423.80392156863 178.30666666666667" class="highcharts-graph" data-z-index="1" stroke="#FF8028" stroke-width="2" stroke-linejoin="round" stroke-linecap="round"></path></g><g class="highcharts-markers highcharts-series-3 highcharts-line-series" data-z-index="0.1" opacity="1" transform="translate(47,136) scale(1 1)" clip-path="none"></g></g><text x="10" text-anchor="start" class="highcharts-title" data-z-index="4" style="color:#000000;font-size:14px;font-weight:bold;fill:#000000;" y="21"><tspan>Anteil Beziehende von EL und Beihilfen an allen</tspan><tspan dy="17" x="10">Beziehenden einer AHV- oder IV-Rente per Ende Jahr</tspan></text><text x="10" text-anchor="start" class="highcharts-subtitle" data-z-index="4" style="color:#000000;font-size:12px;font-weight:normal;fill:#000000;" y="57"><tspan>Basel-Stadt</tspan></text><text x="10" text-anchor="start" class="highcharts-caption" data-z-index="4" style="color:#666666;fill:#666666;" y="385"></text><g class="highcharts-legend" data-z-index="7" transform="translate(39,73)"><rect fill="none" class="highcharts-legend-box" rx="0" ry="0" x="0" y="0" width="308" height="51" visibility="visible"></rect><g data-z-index="1"><g><g class="highcharts-legend-item highcharts-line-series highcharts-color-undefined highcharts-series-0" data-z-index="1" transform="translate(8,3)"><path fill="none" d="M 0 11 L 16 11" class="highcharts-graph" stroke="#083038" stroke-width="2"></path><text x="21" style="color:#333333;cursor:pointer;font-size:12px;font-weight:normal;fill:#333333;" text-anchor="start" data-z-index="2" y="15"><tspan>EL zur IV</tspan></text></g><g class="highcharts-legend-item highcharts-line-series highcharts-color-undefined highcharts-series-1" data-z-index="1" transform="translate(142,3)"><path fill="none" d="M 0 11 L 16 11" class="highcharts-graph" stroke="#A8C3CA" stroke-width="2"></path><text x="21" y="15" style="color:#333333;cursor:pointer;font-size:12px;font-weight:normal;fill:#333333;" text-anchor="start" data-z-index="2"><tspan>Beihilfen zur IV</tspan></text></g><g class="highcharts-legend-item highcharts-line-series highcharts-color-undefined highcharts-series-2" data-z-index="1" transform="translate(8,23)"><path fill="none" d="M 0 11 L 16 11" class="highcharts-graph" stroke="#B00000" stroke-width="2"></path><text x="21" y="15" style="color:#333333;cursor:pointer;font-size:12px;font-weight:normal;fill:#333333;" text-anchor="start" data-z-index="2"><tspan>EL zur AHV</tspan></text></g><g class="highcharts-legend-item highcharts-line-series highcharts-color-undefined highcharts-series-3" data-z-index="1" transform="translate(142,23)"><path fill="none" d="M 0 11 L 16 11" class="highcharts-graph" stroke="#FF8028" stroke-width="2"></path><text x="21" y="15" style="color:#333333;cursor:pointer;font-size:12px;font-weight:normal;fill:#333333;" text-anchor="start" data-z-index="2"><tspan>Beihilfen zur AHV</tspan></text></g></g></g></g><g class="highcharts-axis-labels highcharts-xaxis-labels" data-z-index="7"><text x="51.196078431369" style="color:#000000;cursor:default;font-size:11px;fill:#000000;" text-anchor="middle" transform="translate(0,0)" y="370" opacity="1">2013</text><text x="97.819172113287" style="color:#000000;cursor:default;font-size:11px;fill:#000000;" text-anchor="middle" transform="translate(0,0)" y="370" opacity="1">2014</text><text x="144.4422657952" style="color:#000000;cursor:default;font-size:11px;fill:#000000;" text-anchor="middle" transform="translate(0,0)" y="370" opacity="1">2015</text><text x="191.06535947712" style="color:#000000;cursor:default;font-size:11px;fill:#000000;" text-anchor="middle" transform="translate(0,0)" y="370" opacity="1">2016</text><text x="237.68845315904" style="color:#000000;cursor:default;font-size:11px;fill:#000000;" text-anchor="middle" transform="translate(0,0)" y="370" opacity="1">2017</text><text x="284.31154684096" style="color:#000000;cursor:default;font-size:11px;fill:#000000;" text-anchor="middle" transform="translate(0,0)" y="370" opacity="1">2018</text><text x="330.93464052288" style="color:#000000;cursor:default;font-size:11px;fill:#000000;" text-anchor="middle" transform="translate(0,0)" y="370" opacity="1">2019</text><text x="377.5577342048" style="color:#000000;cursor:default;font-size:11px;fill:#000000;" text-anchor="middle" transform="translate(0,0)" y="370" opacity="1">2020</text><text x="424.18082788671" style="color:#000000;cursor:default;font-size:11px;fill:#000000;" text-anchor="middle" transform="translate(0,0)" y="370" opacity="1">2021</text><text x="463" style="color:#000000;cursor:default;font-size:11px;fill:#000000;" text-anchor="middle" transform="translate(0,0)" y="370" opacity="1">2022</text></g><g class="highcharts-axis-labels highcharts-yaxis-labels" data-z-index="7"><text x="32" style="color:#000000;cursor:default;font-size:11px;fill:#000000;" text-anchor="end" transform="translate(0,0)" y="355" opacity="1">0%</text><text x="32" style="color:#000000;cursor:default;font-size:11px;fill:#000000;" text-anchor="end" transform="translate(0,0)" y="283" opacity="1">25%</text><text x="32" style="color:#000000;cursor:default;font-size:11px;fill:#000000;" text-anchor="end" transform="translate(0,0)" y="212" opacity="1">50%</text><text x="32" style="color:#000000;cursor:default;font-size:11px;fill:#000000;" text-anchor="end" transform="translate(0,0)" y="140" opacity="1">75%</text></g><text x="10" class="highcharts-credits" text-anchor="start" data-z-index="8" style="cursor:default;color:#000000;font-size:10px;fill:#000000;" y="403"><tspan>Quelle: Amt f체r Sozialbeitr채ge Basel-Stadt, Abteilung Erg채nzungsleistungen.</tspan><tspan x="10" dy="13">Zuletzt ge채ndert: 27.9.2023</tspan></text><g class="highcharts-control-points" data-z-index="99" clip-path="url(#highcharts-xy9b9iu-89-)"></g></svg>