<?xml version="1.0" standalone="no"?><!DOCTYPE svg PUBLIC "-//W3C//DTD SVG 1.1//EN" "http://www.w3.org/Graphics/SVG/1.1/DTD/svg11.dtd"><svg xmlns:xlink="http://www.w3.org/1999/xlink" version="1.1" class="highcharts-root" style="font-family:Inter,Helvetica Neue,Helvetica,Arial,sans-serif;font-size:12px;" xmlns="http://www.w3.org/2000/svg" width="600" height="428"><desc>Created with Highcharts 8.2.2</desc><defs><clipPath id="highcharts-wbrljbs-37-"><rect x="0" y="0" width="538" height="210" fill="none"></rect></clipPath><clipPath id="highcharts-wbrljbs-48-"><rect x="0" y="0" width="538" height="210" fill="none"></rect></clipPath><clipPath id="highcharts-wbrljbs-69-"><rect x="52" y="141" width="538" height="210" fill="none"></rect></clipPath></defs><rect fill="#ffffff" class="highcharts-background" x="0" y="0" width="600" height="428" rx="0" ry="0"></rect><rect fill="none" class="highcharts-plot-background" x="52" y="141" width="538" height="210"></rect><g class="highcharts-pane-group" data-z-index="0"></g><g class="highcharts-grid highcharts-xaxis-grid" data-z-index="1"><path fill="none" data-z-index="1" class="highcharts-grid-line" d="M 82.5 141 L 82.5 351" opacity="1"></path><path fill="none" data-z-index="1" class="highcharts-grid-line" d="M 135.5 141 L 135.5 351" opacity="1"></path><path fill="none" data-z-index="1" class="highcharts-grid-line" d="M 188.5 141 L 188.5 351" opacity="1"></path><path fill="none" data-z-index="1" class="highcharts-grid-line" d="M 241.5 141 L 241.5 351" opacity="1"></path><path fill="none" data-z-index="1" class="highcharts-grid-line" d="M 294.5 141 L 294.5 351" opacity="1"></path><path fill="none" data-z-index="1" class="highcharts-grid-line" d="M 346.5 141 L 346.5 351" opacity="1"></path><path fill="none" data-z-index="1" class="highcharts-grid-line" d="M 399.5 141 L 399.5 351" opacity="1"></path><path fill="none" data-z-index="1" class="highcharts-grid-line" d="M 452.5 141 L 452.5 351" opacity="1"></path><path fill="none" data-z-index="1" class="highcharts-grid-line" d="M 505.5 141 L 505.5 351" opacity="1"></path><path fill="none" data-z-index="1" class="highcharts-grid-line" d="M 558.5 141 L 558.5 351" opacity="1"></path></g><g class="highcharts-grid highcharts-yaxis-grid" data-z-index="1"><path fill="none" stroke="#B9CFD7" stroke-width="0.5" data-z-index="1" class="highcharts-grid-line" d="M 52 351.25 L 590 351.25" opacity="1"></path><path fill="none" stroke="#B9CFD7" stroke-width="0.5" data-z-index="1" class="highcharts-grid-line" d="M 52 316.25 L 590 316.25" opacity="1"></path><path fill="none" stroke="#B9CFD7" stroke-width="0.5" data-z-index="1" class="highcharts-grid-line" d="M 52 281.25 L 590 281.25" opacity="1"></path><path fill="none" stroke="#B9CFD7" stroke-width="0.5" data-z-index="1" class="highcharts-grid-line" d="M 52 246.25 L 590 246.25" opacity="1"></path><path fill="none" stroke="#B9CFD7" stroke-width="0.5" data-z-index="1" class="highcharts-grid-line" d="M 52 211.25 L 590 211.25" opacity="1"></path><path fill="none" stroke="#B9CFD7" stroke-width="0.5" data-z-index="1" class="highcharts-grid-line" d="M 52 176.25 L 590 176.25" opacity="1"></path><path fill="none" stroke="#B9CFD7" stroke-width="0.5" data-z-index="1" class="highcharts-grid-line" d="M 52 140.75 L 590 140.75" opacity="1"></path></g><rect fill="none" class="highcharts-plot-border" data-z-index="1" x="52" y="141" width="538" height="210"></rect><g class="highcharts-axis highcharts-xaxis" data-z-index="2"><path fill="none" class="highcharts-axis-line" stroke="#B9CFD7" stroke-width="0.5" data-z-index="7" d="M 52 351.25 L 590 351.25"></path></g><g class="highcharts-axis highcharts-yaxis" data-z-index="2"><path fill="none" class="highcharts-axis-line" data-z-index="7" d="M 52 141 L 52 351"></path></g><g class="highcharts-series-group" data-z-index="3"><g class="highcharts-series highcharts-series-0 highcharts-column-series" data-z-index="0.1" opacity="1" transform="translate(52,141) scale(1 1)" clip-path="url(#highcharts-wbrljbs-48-)"><rect x="18" y="28" width="26" height="142" fill="#68ab2b" opacity="1" class="highcharts-point"></rect><rect x="71" y="27" width="26" height="144" fill="#68ab2b" opacity="1" class="highcharts-point"></rect><rect x="124" y="28" width="26" height="139" fill="#68ab2b" opacity="1" class="highcharts-point"></rect><rect x="177" y="30" width="26" height="138" fill="#68ab2b" opacity="1" class="highcharts-point"></rect><rect x="230" y="30" width="26" height="139" fill="#68ab2b" opacity="1" class="highcharts-point"></rect><rect x="283" y="31" width="26" height="138" fill="#68ab2b" opacity="1" class="highcharts-point"></rect><rect x="336" y="35" width="26" height="130" fill="#68ab2b" opacity="1" class="highcharts-point"></rect><rect x="388" y="36" width="26" height="128" fill="#68ab2b" opacity="1" class="highcharts-point"></rect><rect x="441" y="35" width="26" height="129" fill="#68ab2b" opacity="1" class="highcharts-point"></rect><rect x="494" y="36" width="26" height="130" fill="#68ab2b" opacity="1" class="highcharts-point"></rect></g><g class="highcharts-markers highcharts-series-0 highcharts-column-series" data-z-index="0.1" opacity="1" transform="translate(52,141) scale(1 1)" clip-path="none"></g><g class="highcharts-series highcharts-series-1 highcharts-column-series" data-z-index="0.1" opacity="1" transform="translate(52,141) scale(1 1)" clip-path="url(#highcharts-wbrljbs-48-)"><rect x="18" y="170" width="26" height="38" fill="#007a2f" opacity="1" class="highcharts-point"></rect><rect x="71" y="171" width="26" height="38" fill="#007a2f" opacity="1" class="highcharts-point"></rect><rect x="124" y="167" width="26" height="38" fill="#007a2f" opacity="1" class="highcharts-point"></rect><rect x="177" y="168" width="26" height="37" fill="#007a2f" opacity="1" class="highcharts-point"></rect><rect x="230" y="169" width="26" height="36" fill="#007a2f" opacity="1" class="highcharts-point"></rect><rect x="283" y="169" width="26" height="36" fill="#007a2f" opacity="1" class="highcharts-point"></rect><rect x="336" y="165" width="26" height="36" fill="#007a2f" opacity="1" class="highcharts-point"></rect><rect x="388" y="164" width="26" height="37" fill="#007a2f" opacity="1" class="highcharts-point"></rect><rect x="441" y="164" width="26" height="37" fill="#007a2f" opacity="1" class="highcharts-point"></rect><rect x="494" y="166" width="26" height="36" fill="#007a2f" opacity="1" class="highcharts-point"></rect></g><g class="highcharts-markers highcharts-series-1 highcharts-column-series" data-z-index="0.1" opacity="1" transform="translate(52,141) scale(1 1)" clip-path="none"></g><g class="highcharts-series highcharts-series-2 highcharts-column-series" data-z-index="0.1" opacity="1" transform="translate(52,141) scale(1 1)" clip-path="url(#highcharts-wbrljbs-48-)"><rect x="18" y="208" width="26" height="3" fill="#0a3b19" opacity="1" class="highcharts-point"></rect><rect x="71" y="209" width="26" height="2" fill="#0a3b19" opacity="1" class="highcharts-point"></rect><rect x="124" y="205" width="26" height="6" fill="#0a3b19" opacity="1" class="highcharts-point"></rect><rect x="177" y="205" width="26" height="6" fill="#0a3b19" opacity="1" class="highcharts-point"></rect><rect x="230" y="205" width="26" height="6" fill="#0a3b19" opacity="1" class="highcharts-point"></rect><rect x="283" y="205" width="26" height="6" fill="#0a3b19" opacity="1" class="highcharts-point"></rect><rect x="336" y="201" width="26" height="10" fill="#0a3b19" opacity="1" class="highcharts-point"></rect><rect x="388" y="201" width="26" height="10" fill="#0a3b19" opacity="1" class="highcharts-point"></rect><rect x="441" y="201" width="26" height="10" fill="#0a3b19" opacity="1" class="highcharts-point"></rect><rect x="494" y="202" width="26" height="9" fill="#0a3b19" opacity="1" class="highcharts-point"></rect></g><g class="highcharts-markers highcharts-series-2 highcharts-column-series" data-z-index="0.1" opacity="1" transform="translate(52,141) scale(1 1)" clip-path="none"></g></g><text x="10" text-anchor="start" class="highcharts-caption" data-z-index="4" style="color:#666666;fill:#666666;" y="385"></text><g class="highcharts-legend" data-z-index="7" transform="translate(44,73)"><rect fill="none" class="highcharts-legend-box" rx="0" ry="0" x="0" y="0" width="295" height="56" visibility="visible"></rect><g data-z-index="1"><g><g class="highcharts-legend-item highcharts-column-series highcharts-color-undefined highcharts-series-0" data-z-index="1" transform="translate(8,3)"><text x="21" style="color:#333333;cursor:pointer;font-size:12px;font-weight:normal;fill:#333333;" text-anchor="start" data-z-index="2" y="15"><tspan>Allgemeine Pflegeheimplätze</tspan></text><rect x="2" y="4" width="12" height="12" fill="#68ab2b" class="highcharts-point" data-z-index="3"></rect></g><g class="highcharts-legend-item highcharts-column-series highcharts-color-undefined highcharts-series-1" data-z-index="1" transform="translate(8,18)"><text x="21" y="15" style="color:#333333;cursor:pointer;font-size:12px;font-weight:normal;fill:#333333;" text-anchor="start" data-z-index="2"><tspan>Spezielle Wohnformen (inkl. Entlastungsplätze)</tspan></text><rect x="2" y="4" width="12" height="12" fill="#007a2f" class="highcharts-point" data-z-index="3"></rect></g><g class="highcharts-legend-item highcharts-column-series highcharts-color-undefined highcharts-series-2" data-z-index="1" transform="translate(8,33)"><text x="21" y="15" style="color:#333333;cursor:pointer;font-size:12px;font-weight:normal;fill:#333333;" text-anchor="start" data-z-index="2"><tspan>Nichttarifplätze</tspan></text><rect x="2" y="4" width="12" height="12" fill="#0a3b19" class="highcharts-point" data-z-index="3"></rect></g></g></g></g><g class="highcharts-axis-labels highcharts-xaxis-labels" data-z-index="7"><text x="83.180746561882" style="color:#000000;cursor:default;font-size:11px;fill:#000000;" text-anchor="middle" transform="translate(0,0)" y="370" opacity="1">2016</text><text x="136.02946954813" style="color:#000000;cursor:default;font-size:11px;fill:#000000;" text-anchor="middle" transform="translate(0,0)" y="370" opacity="1">2017</text><text x="188.87819253438" style="color:#000000;cursor:default;font-size:11px;fill:#000000;" text-anchor="middle" transform="translate(0,0)" y="370" opacity="1">2018</text><text x="241.72691552063" style="color:#000000;cursor:default;font-size:11px;fill:#000000;" text-anchor="middle" transform="translate(0,0)" y="370" opacity="1">2019</text><text x="294.57563850688" style="color:#000000;cursor:default;font-size:11px;fill:#000000;" text-anchor="middle" transform="translate(0,0)" y="370" opacity="1">2020</text><text x="347.42436149312" style="color:#000000;cursor:default;font-size:11px;fill:#000000;" text-anchor="middle" transform="translate(0,0)" y="370" opacity="1">2021</text><text x="400.27308447937" style="color:#000000;cursor:default;font-size:11px;fill:#000000;" text-anchor="middle" transform="translate(0,0)" y="370" opacity="1">2022</text><text x="453.12180746562" style="color:#000000;cursor:default;font-size:11px;fill:#000000;" text-anchor="middle" transform="translate(0,0)" y="370" opacity="1">2023</text><text x="505.97053045187" style="color:#000000;cursor:default;font-size:11px;fill:#000000;" text-anchor="middle" transform="translate(0,0)" y="370" opacity="1">2024</text><text x="558.81925343812" style="color:#000000;cursor:default;font-size:11px;fill:#000000;" text-anchor="middle" transform="translate(0,0)" y="370" opacity="1">2025</text></g><g class="highcharts-axis-labels highcharts-yaxis-labels" data-z-index="7"><text x="37" style="color:black;cursor:default;font-size:11px;fill:black;" text-anchor="end" transform="translate(0,0)" y="355" opacity="1">0</text><text x="37" style="color:black;cursor:default;font-size:11px;fill:black;" text-anchor="end" transform="translate(0,0)" y="320" opacity="1">600</text><text x="37" style="color:black;cursor:default;font-size:11px;fill:black;" text-anchor="end" transform="translate(0,0)" y="285" opacity="1"><tspan>1 200</tspan></text><text x="37" style="color:black;cursor:default;font-size:11px;fill:black;" text-anchor="end" transform="translate(0,0)" y="250" opacity="1"><tspan>1 800</tspan></text><text x="37" style="color:black;cursor:default;font-size:11px;fill:black;" text-anchor="end" transform="translate(0,0)" y="215" opacity="1"><tspan>2 400</tspan></text><text x="37" style="color:black;cursor:default;font-size:11px;fill:black;" text-anchor="end" transform="translate(0,0)" y="180" opacity="1"><tspan>3 000</tspan></text><text x="37" style="color:black;cursor:default;font-size:11px;fill:black;" text-anchor="end" transform="translate(0,0)" y="145" opacity="1"><tspan>3 600</tspan></text></g></svg>