<?xml version="1.0" standalone="no"?><!DOCTYPE svg PUBLIC "-//W3C//DTD SVG 1.1//EN" "http://www.w3.org/Graphics/SVG/1.1/DTD/svg11.dtd"><svg xmlns:xlink="http://www.w3.org/1999/xlink" version="1.1" class="highcharts-root" style="font-family:Inter,Helvetica Neue,Helvetica,Arial,sans-serif;font-size:12px;" xmlns="http://www.w3.org/2000/svg" width="600" height="428"><desc>Created with Highcharts 8.2.2</desc><defs><clipPath id="highcharts-064ryzw-77-"><rect x="0" y="0" width="547" height="187" fill="none"></rect></clipPath><clipPath id="highcharts-064ryzw-92-"><rect x="0" y="0" width="547" height="187" fill="none"></rect></clipPath><clipPath id="highcharts-064ryzw-149-"><rect x="43" y="154" width="547" height="187" fill="none"></rect></clipPath></defs><rect fill="#ffffff" class="highcharts-background" x="0" y="0" width="600" height="428" rx="0" ry="0"></rect><rect fill="none" class="highcharts-plot-background" x="43" y="154" width="547" height="187"></rect><g class="highcharts-pane-group" data-z-index="0"></g><g class="highcharts-grid highcharts-xaxis-grid" data-z-index="1"><path fill="none" data-z-index="1" class="highcharts-grid-line" d="M 66.5 154 L 66.5 341" opacity="1"></path><path fill="none" data-z-index="1" class="highcharts-grid-line" d="M 105.5 154 L 105.5 341" opacity="1"></path><path fill="none" data-z-index="1" class="highcharts-grid-line" d="M 143.5 154 L 143.5 341" opacity="1"></path><path fill="none" data-z-index="1" class="highcharts-grid-line" d="M 181.5 154 L 181.5 341" opacity="1"></path><path fill="none" data-z-index="1" class="highcharts-grid-line" d="M 220.5 154 L 220.5 341" opacity="1"></path><path fill="none" data-z-index="1" class="highcharts-grid-line" d="M 258.5 154 L 258.5 341" opacity="1"></path><path fill="none" data-z-index="1" class="highcharts-grid-line" d="M 296.5 154 L 296.5 341" opacity="1"></path><path fill="none" data-z-index="1" class="highcharts-grid-line" d="M 335.5 154 L 335.5 341" opacity="1"></path><path fill="none" data-z-index="1" class="highcharts-grid-line" d="M 373.5 154 L 373.5 341" opacity="1"></path><path fill="none" data-z-index="1" class="highcharts-grid-line" d="M 411.5 154 L 411.5 341" opacity="1"></path><path fill="none" data-z-index="1" class="highcharts-grid-line" d="M 450.5 154 L 450.5 341" opacity="1"></path><path fill="none" data-z-index="1" class="highcharts-grid-line" d="M 488.5 154 L 488.5 341" opacity="1"></path><path fill="none" data-z-index="1" class="highcharts-grid-line" d="M 526.5 154 L 526.5 341" opacity="1"></path><path fill="none" data-z-index="1" class="highcharts-grid-line" d="M 565.5 154 L 565.5 341" opacity="1"></path></g><g class="highcharts-grid highcharts-yaxis-grid" data-z-index="1"><path fill="none" stroke="#B9CFD7" stroke-width="0.5" data-z-index="1" class="highcharts-grid-line" d="M 43 341.25 L 590 341.25" opacity="1"></path><path fill="none" stroke="#B9CFD7" stroke-width="0.5" data-z-index="1" class="highcharts-grid-line" d="M 43 294.25 L 590 294.25" opacity="1"></path><path fill="none" stroke="#B9CFD7" stroke-width="0.5" data-z-index="1" class="highcharts-grid-line" d="M 43 248.25 L 590 248.25" opacity="1"></path><path fill="none" stroke="#B9CFD7" stroke-width="0.5" data-z-index="1" class="highcharts-grid-line" d="M 43 201.25 L 590 201.25" opacity="1"></path><path fill="none" stroke="#B9CFD7" stroke-width="0.5" data-z-index="1" class="highcharts-grid-line" d="M 43 153.75 L 590 153.75" opacity="1"></path></g><rect fill="none" class="highcharts-plot-border" data-z-index="1" x="43" y="154" width="547" height="187"></rect><g class="highcharts-axis highcharts-xaxis" data-z-index="2"><path fill="none" class="highcharts-axis-line" stroke="#B9CFD7" stroke-width="0.5" data-z-index="7" d="M 43 341.25 L 590 341.25"></path></g><g class="highcharts-axis highcharts-yaxis" data-z-index="2"><path fill="none" class="highcharts-axis-line" data-z-index="7" d="M 43 154 L 43 341"></path></g><g class="highcharts-series-group" data-z-index="3"><g class="highcharts-series highcharts-series-0 highcharts-column-series" data-z-index="0.1" opacity="1" transform="translate(43,154) scale(1 1)" clip-path="url(#highcharts-064ryzw-92-)"><rect x="15" y="62" width="19" height="52" fill="#007a2f" opacity="1" class="highcharts-point"></rect><rect x="53" y="57" width="19" height="53" fill="#007a2f" opacity="1" class="highcharts-point"></rect><rect x="92" y="56" width="19" height="53" fill="#007a2f" opacity="1" class="highcharts-point"></rect><rect x="130" y="50" width="19" height="58" fill="#007a2f" opacity="1" class="highcharts-point"></rect><rect x="168" y="42" width="19" height="63" fill="#007a2f" opacity="1" class="highcharts-point"></rect><rect x="207" y="38" width="19" height="64" fill="#007a2f" opacity="1" class="highcharts-point"></rect><rect x="245" y="28" width="19" height="70" fill="#007a2f" opacity="1" class="highcharts-point"></rect><rect x="283" y="27" width="19" height="69" fill="#007a2f" opacity="1" class="highcharts-point"></rect><rect x="322" y="26" width="19" height="71" fill="#007a2f" opacity="1" class="highcharts-point"></rect><rect x="360" y="29" width="19" height="69" fill="#007a2f" opacity="1" class="highcharts-point"></rect><rect x="399" y="34" width="19" height="67" fill="#007a2f" opacity="1" class="highcharts-point"></rect><rect x="437" y="31" width="19" height="68" fill="#007a2f" opacity="1" class="highcharts-point"></rect><rect x="475" y="23" width="19" height="71" fill="#007a2f" opacity="1" class="highcharts-point"></rect><rect x="514" y="17" width="19" height="73" fill="#007a2f" opacity="1" class="highcharts-point"></rect></g><g class="highcharts-markers highcharts-series-0 highcharts-column-series" data-z-index="0.1" opacity="1" transform="translate(43,154) scale(1 1)" clip-path="none"></g><g class="highcharts-series highcharts-series-1 highcharts-column-series" data-z-index="0.1" opacity="1" transform="translate(43,154) scale(1 1)" clip-path="url(#highcharts-064ryzw-92-)"><rect x="15" y="114" width="19" height="8" fill="#68ab2b" opacity="1" class="highcharts-point"></rect><rect x="53" y="110" width="19" height="9" fill="#68ab2b" opacity="1" class="highcharts-point"></rect><rect x="92" y="109" width="19" height="9" fill="#68ab2b" opacity="1" class="highcharts-point"></rect><rect x="130" y="108" width="19" height="10" fill="#68ab2b" opacity="1" class="highcharts-point"></rect><rect x="168" y="105" width="19" height="10" fill="#68ab2b" opacity="1" class="highcharts-point"></rect><rect x="207" y="102" width="19" height="10" fill="#68ab2b" opacity="1" class="highcharts-point"></rect><rect x="245" y="98" width="19" height="10" fill="#68ab2b" opacity="1" class="highcharts-point"></rect><rect x="283" y="96" width="19" height="11" fill="#68ab2b" opacity="1" class="highcharts-point"></rect><rect x="322" y="97" width="19" height="10" fill="#68ab2b" opacity="1" class="highcharts-point"></rect><rect x="360" y="98" width="19" height="10" fill="#68ab2b" opacity="1" class="highcharts-point"></rect><rect x="399" y="101" width="19" height="10" fill="#68ab2b" opacity="1" class="highcharts-point"></rect><rect x="437" y="99" width="19" height="10" fill="#68ab2b" opacity="1" class="highcharts-point"></rect><rect x="475" y="94" width="19" height="10" fill="#68ab2b" opacity="1" class="highcharts-point"></rect><rect x="514" y="90" width="19" height="11" fill="#68ab2b" opacity="1" class="highcharts-point"></rect></g><g class="highcharts-markers highcharts-series-1 highcharts-column-series" data-z-index="0.1" opacity="1" transform="translate(43,154) scale(1 1)" clip-path="none"></g><g class="highcharts-series highcharts-series-2 highcharts-column-series" data-z-index="0.1" opacity="1" transform="translate(43,154) scale(1 1)" clip-path="url(#highcharts-064ryzw-92-)"><rect x="15" y="122" width="19" height="26" fill="#246370" opacity="1" class="highcharts-point"></rect><rect x="53" y="119" width="19" height="26" fill="#246370" opacity="1" class="highcharts-point"></rect><rect x="92" y="118" width="19" height="22" fill="#246370" opacity="1" class="highcharts-point"></rect><rect x="130" y="118" width="19" height="23" fill="#246370" opacity="1" class="highcharts-point"></rect><rect x="168" y="115" width="19" height="24" fill="#246370" opacity="1" class="highcharts-point"></rect><rect x="207" y="112" width="19" height="24" fill="#246370" opacity="1" class="highcharts-point"></rect><rect x="245" y="108" width="19" height="29" fill="#246370" opacity="1" class="highcharts-point"></rect><rect x="283" y="107" width="19" height="28" fill="#246370" opacity="1" class="highcharts-point"></rect><rect x="322" y="107" width="19" height="28" fill="#246370" opacity="1" class="highcharts-point"></rect><rect x="360" y="108" width="19" height="29" fill="#246370" opacity="1" class="highcharts-point"></rect><rect x="399" y="111" width="19" height="28" fill="#246370" opacity="1" class="highcharts-point"></rect><rect x="437" y="109" width="19" height="29" fill="#246370" opacity="1" class="highcharts-point"></rect><rect x="475" y="104" width="19" height="29" fill="#246370" opacity="1" class="highcharts-point"></rect><rect x="514" y="101" width="19" height="29" fill="#246370" opacity="1" class="highcharts-point"></rect></g><g class="highcharts-markers highcharts-series-2 highcharts-column-series" data-z-index="0.1" opacity="1" transform="translate(43,154) scale(1 1)" clip-path="none"></g><g class="highcharts-series highcharts-series-3 highcharts-column-series" data-z-index="0.1" opacity="1" transform="translate(43,154) scale(1 1)" clip-path="url(#highcharts-064ryzw-92-)"><rect x="15" y="148" width="19" height="13" fill="#ffda80" opacity="1" class="highcharts-point"></rect><rect x="53" y="145" width="19" height="14" fill="#ffda80" opacity="1" class="highcharts-point"></rect><rect x="92" y="140" width="19" height="18" fill="#ffda80" opacity="1" class="highcharts-point"></rect><rect x="130" y="141" width="19" height="17" fill="#ffda80" opacity="1" class="highcharts-point"></rect><rect x="168" y="139" width="19" height="18" fill="#ffda80" opacity="1" class="highcharts-point"></rect><rect x="207" y="136" width="19" height="20" fill="#ffda80" opacity="1" class="highcharts-point"></rect><rect x="245" y="137" width="19" height="19" fill="#ffda80" opacity="1" class="highcharts-point"></rect><rect x="283" y="135" width="19" height="21" fill="#ffda80" opacity="1" class="highcharts-point"></rect><rect x="322" y="135" width="19" height="23" fill="#ffda80" opacity="1" class="highcharts-point"></rect><rect x="360" y="137" width="19" height="21" fill="#ffda80" opacity="1" class="highcharts-point"></rect><rect x="399" y="139" width="19" height="21" fill="#ffda80" opacity="1" class="highcharts-point"></rect><rect x="437" y="138" width="19" height="22" fill="#ffda80" opacity="1" class="highcharts-point"></rect><rect x="475" y="133" width="19" height="26" fill="#ffda80" opacity="1" class="highcharts-point"></rect><rect x="514" y="130" width="19" height="27" fill="#ffda80" opacity="1" class="highcharts-point"></rect></g><g class="highcharts-markers highcharts-series-3 highcharts-column-series" data-z-index="0.1" opacity="1" transform="translate(43,154) scale(1 1)" clip-path="none"></g><g class="highcharts-series highcharts-series-4 highcharts-column-series" data-z-index="0.1" opacity="1" transform="translate(43,154) scale(1 1)" clip-path="url(#highcharts-064ryzw-92-)"><rect x="15" y="161" width="19" height="27" fill="#fabd24" opacity="1" class="highcharts-point"></rect><rect x="53" y="159" width="19" height="29" fill="#fabd24" opacity="1" class="highcharts-point"></rect><rect x="92" y="158" width="19" height="30" fill="#fabd24" opacity="1" class="highcharts-point"></rect><rect x="130" y="158" width="19" height="30" fill="#fabd24" opacity="1" class="highcharts-point"></rect><rect x="168" y="157" width="19" height="31" fill="#fabd24" opacity="1" class="highcharts-point"></rect><rect x="207" y="156" width="19" height="32" fill="#fabd24" opacity="1" class="highcharts-point"></rect><rect x="245" y="156" width="19" height="32" fill="#fabd24" opacity="1" class="highcharts-point"></rect><rect x="283" y="156" width="19" height="32" fill="#fabd24" opacity="1" class="highcharts-point"></rect><rect x="322" y="158" width="19" height="30" fill="#fabd24" opacity="1" class="highcharts-point"></rect><rect x="360" y="158" width="19" height="30" fill="#fabd24" opacity="1" class="highcharts-point"></rect><rect x="399" y="160" width="19" height="28" fill="#fabd24" opacity="1" class="highcharts-point"></rect><rect x="437" y="160" width="19" height="28" fill="#fabd24" opacity="1" class="highcharts-point"></rect><rect x="475" y="159" width="19" height="29" fill="#fabd24" opacity="1" class="highcharts-point"></rect><rect x="514" y="157" width="19" height="31" fill="#fabd24" opacity="1" class="highcharts-point"></rect></g><g class="highcharts-markers highcharts-series-4 highcharts-column-series" data-z-index="0.1" opacity="1" transform="translate(43,154) scale(1 1)" clip-path="none"></g></g><text x="10" text-anchor="start" class="highcharts-caption" data-z-index="4" style="color:#666666;fill:#666666;" y="375"></text><g class="highcharts-legend" data-z-index="7" transform="translate(35,56)"><rect fill="none" class="highcharts-legend-box" rx="0" ry="0" x="0" y="0" width="356" height="86" visibility="visible"></rect><g data-z-index="1"><g><g class="highcharts-legend-item highcharts-column-series highcharts-color-undefined highcharts-series-0" data-z-index="1" transform="translate(8,3)"><text x="21" style="color:#333333;cursor:pointer;font-size:12px;font-weight:normal;fill:#333333;" text-anchor="start" data-z-index="2" y="15"><tspan>Eigenbeitrag Bewohnende Pensions- und Betreuungstaxe</tspan></text><rect x="2" y="4" width="12" height="12" fill="#007a2f" class="highcharts-point" data-z-index="3"></rect></g><g class="highcharts-legend-item highcharts-column-series highcharts-color-undefined highcharts-series-1" data-z-index="1" transform="translate(8,18)"><text x="21" y="15" style="color:#333333;cursor:pointer;font-size:12px;font-weight:normal;fill:#333333;" text-anchor="start" data-z-index="2"><tspan>Eigenbeitrag Bewohnende Pflegetaxe (gemäss KVG)</tspan></text><rect x="2" y="4" width="12" height="12" fill="#68ab2b" class="highcharts-point" data-z-index="3"></rect></g><g class="highcharts-legend-item highcharts-column-series highcharts-color-undefined highcharts-series-2" data-z-index="1" transform="translate(8,33)"><text x="21" y="15" style="color:#333333;cursor:pointer;font-size:12px;font-weight:normal;fill:#333333;" text-anchor="start" data-z-index="2"><tspan>Beiträge Krankenversicherer (gemäss KVG)</tspan></text><rect x="2" y="4" width="12" height="12" fill="#246370" class="highcharts-point" data-z-index="3"></rect></g><g class="highcharts-legend-item highcharts-column-series highcharts-color-undefined highcharts-series-3" data-z-index="1" transform="translate(8,48)"><text x="21" y="15" style="color:#333333;cursor:pointer;font-size:12px;font-weight:normal;fill:#333333;" text-anchor="start" data-z-index="2"><tspan>Kanton/Gemeinde: Restfinanzierung (gemäss KVG)</tspan></text><rect x="2" y="4" width="12" height="12" fill="#ffda80" class="highcharts-point" data-z-index="3"></rect></g><g class="highcharts-legend-item highcharts-column-series highcharts-color-undefined highcharts-series-4" data-z-index="1" transform="translate(8,63)"><text x="21" y="15" style="color:#333333;cursor:pointer;font-size:12px;font-weight:normal;fill:#333333;" text-anchor="start" data-z-index="2"><tspan>Kanton/Gemeinde: Ergänzungsleistungen</tspan></text><rect x="2" y="4" width="12" height="12" fill="#fabd24" class="highcharts-point" data-z-index="3"></rect></g></g></g></g><g class="highcharts-axis-labels highcharts-xaxis-labels" data-z-index="7"><text x="67.166199158489" style="color:#000000;cursor:default;font-size:11px;fill:#000000;" text-anchor="middle" transform="translate(0,0)" y="360" opacity="1">2011</text><text x="105.5252454418" style="color:#000000;cursor:default;font-size:11px;fill:#000000;" text-anchor="middle" transform="translate(0,0)" y="360" opacity="1">2012</text><text x="143.88429172511" style="color:#000000;cursor:default;font-size:11px;fill:#000000;" text-anchor="middle" transform="translate(0,0)" y="360" opacity="1">2013</text><text x="182.24333800842" style="color:#000000;cursor:default;font-size:11px;fill:#000000;" text-anchor="middle" transform="translate(0,0)" y="360" opacity="1">2014</text><text x="220.60238429173" style="color:#000000;cursor:default;font-size:11px;fill:#000000;" text-anchor="middle" transform="translate(0,0)" y="360" opacity="1">2015</text><text x="258.96143057504" style="color:#000000;cursor:default;font-size:11px;fill:#000000;" text-anchor="middle" transform="translate(0,0)" y="360" opacity="1">2016</text><text x="297.32047685835" style="color:#000000;cursor:default;font-size:11px;fill:#000000;" text-anchor="middle" transform="translate(0,0)" y="360" opacity="1">2017</text><text x="335.67952314165" style="color:#000000;cursor:default;font-size:11px;fill:#000000;" text-anchor="middle" transform="translate(0,0)" y="360" opacity="1">2018</text><text x="374.03856942496" style="color:#000000;cursor:default;font-size:11px;fill:#000000;" text-anchor="middle" transform="translate(0,0)" y="360" opacity="1">2019</text><text x="412.39761570827" style="color:#000000;cursor:default;font-size:11px;fill:#000000;" text-anchor="middle" transform="translate(0,0)" y="360" opacity="1">2020</text><text x="450.75666199158" style="color:#000000;cursor:default;font-size:11px;fill:#000000;" text-anchor="middle" transform="translate(0,0)" y="360" opacity="1">2021</text><text x="489.11570827489" style="color:#000000;cursor:default;font-size:11px;fill:#000000;" text-anchor="middle" transform="translate(0,0)" y="360" opacity="1">2022</text><text x="527.4747545582" style="color:#000000;cursor:default;font-size:11px;fill:#000000;" text-anchor="middle" transform="translate(0,0)" y="360" opacity="1">2023</text><text x="565.83380084151" style="color:#000000;cursor:default;font-size:11px;fill:#000000;" text-anchor="middle" transform="translate(0,0)" y="360" opacity="1">2024</text></g><g class="highcharts-axis-labels highcharts-yaxis-labels" data-z-index="7"><text x="28" style="color:#000000;cursor:default;font-size:11px;fill:#000000;" text-anchor="end" transform="translate(0,0)" y="345" opacity="1">0</text><text x="28" style="color:#000000;cursor:default;font-size:11px;fill:#000000;" text-anchor="end" transform="translate(0,0)" y="298" opacity="1">100</text><text x="28" style="color:#000000;cursor:default;font-size:11px;fill:#000000;" text-anchor="end" transform="translate(0,0)" y="252" opacity="1">200</text><text x="28" style="color:#000000;cursor:default;font-size:11px;fill:#000000;" text-anchor="end" transform="translate(0,0)" y="205" opacity="1">300</text><text x="28" style="color:#000000;cursor:default;font-size:11px;fill:#000000;" text-anchor="end" transform="translate(0,0)" y="158" opacity="1">400</text></g></svg>