<?xml version="1.0" standalone="no"?><!DOCTYPE svg PUBLIC "-//W3C//DTD SVG 1.1//EN" "http://www.w3.org/Graphics/SVG/1.1/DTD/svg11.dtd"><svg xmlns:xlink="http://www.w3.org/1999/xlink" version="1.1" class="highcharts-root" style="font-family:Arial;font-size:12px;" xmlns="http://www.w3.org/2000/svg" viewBox="0 0 485 415"><desc>Created with Highcharts 8.2.0</desc><defs><clipPath id="highcharts-qp15nv4-18-"><rect x="0" y="0" width="410" height="275" fill="none"></rect></clipPath><clipPath id="highcharts-qp15nv4-30-"><rect x="0" y="0" width="410" height="275" fill="none"></rect></clipPath><clipPath id="highcharts-qp15nv4-31-"><rect x="65" y="56" width="410" height="275" fill="none"></rect></clipPath></defs><rect fill="#fbfbfb" class="highcharts-background" x="0" y="0" width="485" height="428" rx="0" ry="0"></rect><rect fill="none" class="highcharts-plot-background" x="65" y="56" width="410" height="275"></rect><g class="highcharts-pane-group" data-z-index="0"></g><g class="highcharts-grid highcharts-xaxis-grid" data-z-index="1"><path fill="none" stroke="#e6e6e6" stroke-width="1" data-z-index="1" class="highcharts-grid-line" d="M 64.5 56 L 64.5 331" opacity="1"></path><path fill="none" stroke="#e6e6e6" stroke-width="1" data-z-index="1" class="highcharts-grid-line" d="M 132.5 56 L 132.5 331" opacity="1"></path><path fill="none" stroke="#e6e6e6" stroke-width="1" data-z-index="1" class="highcharts-grid-line" d="M 201.5 56 L 201.5 331" opacity="1"></path><path fill="none" stroke="#e6e6e6" stroke-width="1" data-z-index="1" class="highcharts-grid-line" d="M 269.5 56 L 269.5 331" opacity="1"></path><path fill="none" stroke="#e6e6e6" stroke-width="1" data-z-index="1" class="highcharts-grid-line" d="M 337.5 56 L 337.5 331" opacity="1"></path><path fill="none" stroke="#e6e6e6" stroke-width="1" data-z-index="1" class="highcharts-grid-line" d="M 406.5 56 L 406.5 331" opacity="1"></path><path fill="none" stroke="#e6e6e6" stroke-width="1" data-z-index="1" class="highcharts-grid-line" d="M 475.5 56 L 475.5 331" opacity="1"></path></g><g class="highcharts-grid highcharts-yaxis-grid" data-z-index="1"><path fill="none" stroke="#e6e6e6" stroke-width="1" data-z-index="1" class="highcharts-grid-line" d="M 65 331.5 L 475 331.5" opacity="1"></path><path fill="none" stroke="#e6e6e6" stroke-width="1" data-z-index="1" class="highcharts-grid-line" d="M 65 285.5 L 475 285.5" opacity="1"></path><path fill="none" stroke="#e6e6e6" stroke-width="1" data-z-index="1" class="highcharts-grid-line" d="M 65 239.5 L 475 239.5" opacity="1"></path><path fill="none" stroke="#e6e6e6" stroke-width="1" data-z-index="1" class="highcharts-grid-line" d="M 65 194.5 L 475 194.5" opacity="1"></path><path fill="none" stroke="#e6e6e6" stroke-width="1" data-z-index="1" class="highcharts-grid-line" d="M 65 148.5 L 475 148.5" opacity="1"></path><path fill="none" stroke="#e6e6e6" stroke-width="1" data-z-index="1" class="highcharts-grid-line" d="M 65 102.5 L 475 102.5" opacity="1"></path><path fill="none" stroke="#e6e6e6" stroke-width="1" data-z-index="1" class="highcharts-grid-line" d="M 65 55.5 L 475 55.5" opacity="1"></path></g><rect fill="none" class="highcharts-plot-border" data-z-index="1" x="65" y="56" width="410" height="275"></rect><g class="highcharts-axis highcharts-xaxis" data-z-index="2"><text x="270" data-z-index="7" text-anchor="middle" transform="translate(0,0)" class="highcharts-axis-title" style="color:#000000;fill:#000000;" y="370"><tspan>PCCL</tspan></text><path fill="none" class="highcharts-axis-line" stroke="#B9CFD7" stroke-width="0.5" data-z-index="7" d="M 65 331.25 L 475 331.25"></path></g><g class="highcharts-axis highcharts-yaxis" data-z-index="2"><text x="25" data-z-index="7" text-anchor="middle" transform="translate(0,0) rotate(270 25 193.5)" class="highcharts-axis-title" style="color:#666666;fill:#666666;" y="193.5"><tspan>CMI</tspan></text><path fill="none" class="highcharts-axis-line" data-z-index="7" d="M 65 56 L 65 331"></path></g><g class="highcharts-series-group" data-z-index="3"><g class="highcharts-series highcharts-series-0 highcharts-scatter-series highcharts-color-0" data-z-index="0.1" opacity="1" transform="translate(65,56) scale(1 1)" clip-path="url(#highcharts-qp15nv4-30-)"></g><g class="highcharts-markers highcharts-series-0 highcharts-scatter-series highcharts-color-0" data-z-index="0.1" opacity="1" transform="translate(65,56) scale(1 1)" clip-path="none"><path fill="#ff8028" d="M 257 136 A 6 6 0 1 1 257.005999999 135.99999700000026 Z" opacity="1" class="highcharts-point highcharts-color-0"></path><path fill="#67401e" d="M 102 219 A 6 6 0 1 1 102.00599999900001 218.99999700000026 Z" opacity="1" class="highcharts-point highcharts-color-0"></path><path fill="#3366ff" d="M 384 140 A 6 6 0 1 1 384.005999999 139.99999700000026 Z" opacity="1" class="highcharts-point highcharts-color-0"></path><path fill="#fabd24" d="M 75 249 A 6 6 0 1 1 75.00599999900001 248.99999700000026 Z" opacity="1" class="highcharts-point highcharts-color-0"></path><path fill="#cd9c00" d="M 100 186 A 6 6 0 1 1 100.00599999900001 185.99999700000026 Z" opacity="1" class="highcharts-point highcharts-color-0"></path><path fill="#007a2f" d="M 377 64 A 6 6 0 1 1 377.005999999 63.99999700000025 Z" opacity="1" class="highcharts-point highcharts-color-0"></path><path fill="#73b97c" d="M 133 138 A 6 6 0 1 1 133.005999999 137.99999700000026 Z" opacity="1" class="highcharts-point highcharts-color-0"></path><path fill="#e7cee2" d="M 232 186 A 6 6 0 1 1 232.005999999 185.99999700000026 Z" opacity="1" class="highcharts-point highcharts-color-0"></path><path fill="#662673" d="M 133 169 A 6 6 0 1 1 133.005999999 168.99999700000026 Z" opacity="1" class="highcharts-point highcharts-color-0"></path><path fill="#EAB9CE" d="M 266 161 A 6 6 0 1 1 266.005999999 160.99999700000026 Z" opacity="1" class="highcharts-point highcharts-color-0"></path><path fill="#010101" d="M 227 166 A 6 6 0 1 1 227.005999999 165.99999700000026 Z" opacity="1" class="highcharts-point highcharts-color-0"></path></g></g><text x="10" text-anchor="start" class="highcharts-title" data-z-index="4" style="color:#000000;font-size:14px;font-weight:bold;fill:#000000;" y="21"><tspan>Schweregrad und Komplexit채t</tspan></text><text x="10" text-anchor="start" class="highcharts-subtitle" data-z-index="4" style="color:#000000;font-size:12px;font-weight:normal;fill:#000000;" y="40"><tspan>CMI gegen PCCL der Baselst채dtischen-Spit채ler 2022</tspan></text><text x="10" text-anchor="start" class="highcharts-caption" data-z-index="4" style="color:#666666;fill:#666666;" y="385"></text><g class="highcharts-axis-labels highcharts-xaxis-labels" data-z-index="7"><text x="65" style="color:#000000;cursor:default;font-size:11px;fill:#000000;" text-anchor="middle" transform="translate(0,0)" y="350" opacity="1">-0.4</text><text x="133.33333333333" style="color:#000000;cursor:default;font-size:11px;fill:#000000;" text-anchor="middle" transform="translate(0,0)" y="350" opacity="1">0.0</text><text x="201.66666666667" style="color:#000000;cursor:default;font-size:11px;fill:#000000;" text-anchor="middle" transform="translate(0,0)" y="350" opacity="1">0.4</text><text x="270" style="color:#000000;cursor:default;font-size:11px;fill:#000000;" text-anchor="middle" transform="translate(0,0)" y="350" opacity="1">0.8</text><text x="338.33333333333" style="color:#000000;cursor:default;font-size:11px;fill:#000000;" text-anchor="middle" transform="translate(0,0)" y="350" opacity="1">1.2</text><text x="406.66666666667" style="color:#000000;cursor:default;font-size:11px;fill:#000000;" text-anchor="middle" transform="translate(0,0)" y="350" opacity="1">1.6</text><text x="467.5" style="color:#000000;cursor:default;font-size:11px;fill:#000000;" text-anchor="middle" transform="translate(0,0)" y="350" opacity="1">2.0</text></g><g class="highcharts-axis-labels highcharts-yaxis-labels" data-z-index="7"><text x="50" style="color:#666666;cursor:default;font-size:11px;fill:#666666;" text-anchor="end" transform="translate(0,0)" y="335" opacity="1">0.0</text><text x="50" style="color:#666666;cursor:default;font-size:11px;fill:#666666;" text-anchor="end" transform="translate(0,0)" y="289" opacity="1">0.5</text><text x="50" style="color:#666666;cursor:default;font-size:11px;fill:#666666;" text-anchor="end" transform="translate(0,0)" y="243" opacity="1">1.0</text><text x="50" style="color:#666666;cursor:default;font-size:11px;fill:#666666;" text-anchor="end" transform="translate(0,0)" y="198" opacity="1">1.5</text><text x="50" style="color:#666666;cursor:default;font-size:11px;fill:#666666;" text-anchor="end" transform="translate(0,0)" y="152" opacity="1">2.0</text><text x="50" style="color:#666666;cursor:default;font-size:11px;fill:#666666;" text-anchor="end" transform="translate(0,0)" y="106" opacity="1">2.5</text><text x="50" style="color:#666666;cursor:default;font-size:11px;fill:#666666;" text-anchor="end" transform="translate(0,0)" y="60" opacity="1">3.0</text></g><text x="10" class="highcharts-credits" text-anchor="start" data-z-index="8" style="cursor:default;color:#000000;font-size:10px;fill:#000000;" y="403"><tspan>Quelle: Statistisches Amt Basel-Stadt, Gesundheitsstatistik.</tspan><tspan x="10" dy="13">Zuletzt ge채ndert: 26.10.2023</tspan></text><g class="highcharts-control-points" data-z-index="99" clip-path="url(#highcharts-qp15nv4-31-)"></g></svg>