<?xml version="1.0" standalone="no"?><!DOCTYPE svg PUBLIC "-//W3C//DTD SVG 1.1//EN" "http://www.w3.org/Graphics/SVG/1.1/DTD/svg11.dtd"><svg xmlns:xlink="http://www.w3.org/1999/xlink" version="1.1" class="highcharts-root" style="font-family:Inter,Helvetica Neue,Helvetica,Arial,sans-serif;font-size:12px;" xmlns="http://www.w3.org/2000/svg" width="600" height="428"><desc>Created with Highcharts 8.2.2</desc><defs><clipPath id="highcharts-ziip6to-127-"><rect x="0" y="0" width="553" height="232" fill="none"></rect></clipPath><clipPath id="highcharts-ziip6to-249-"><rect x="37" y="119" width="553" height="232" fill="none"></rect></clipPath></defs><rect fill="#ffffff" class="highcharts-background" x="0" y="0" width="600" height="428" rx="0" ry="0"></rect><rect fill="none" class="highcharts-plot-background" x="37" y="119" width="553" height="232"></rect><g class="highcharts-pane-group" data-z-index="0"></g><g class="highcharts-grid highcharts-xaxis-grid" data-z-index="1"><path fill="none" data-z-index="1" class="highcharts-grid-line" d="M 91.5 119 L 91.5 351" opacity="1"></path><path fill="none" data-z-index="1" class="highcharts-grid-line" d="M 147.5 119 L 147.5 351" opacity="1"></path><path fill="none" data-z-index="1" class="highcharts-grid-line" d="M 202.5 119 L 202.5 351" opacity="1"></path><path fill="none" data-z-index="1" class="highcharts-grid-line" d="M 257.5 119 L 257.5 351" opacity="1"></path><path fill="none" data-z-index="1" class="highcharts-grid-line" d="M 313.5 119 L 313.5 351" opacity="1"></path><path fill="none" data-z-index="1" class="highcharts-grid-line" d="M 368.5 119 L 368.5 351" opacity="1"></path><path fill="none" data-z-index="1" class="highcharts-grid-line" d="M 423.5 119 L 423.5 351" opacity="1"></path><path fill="none" data-z-index="1" class="highcharts-grid-line" d="M 478.5 119 L 478.5 351" opacity="1"></path><path fill="none" data-z-index="1" class="highcharts-grid-line" d="M 534.5 119 L 534.5 351" opacity="1"></path><path fill="none" data-z-index="1" class="highcharts-grid-line" d="M 589.5 119 L 589.5 351" opacity="1"></path><path fill="none" data-z-index="1" class="highcharts-grid-line" d="M 36.5 119 L 36.5 351" opacity="1"></path></g><g class="highcharts-grid highcharts-yaxis-grid" data-z-index="1"><path fill="none" stroke="#B9CFD7" stroke-width="0.5" data-z-index="1" class="highcharts-grid-line" d="M 37 351.25 L 590 351.25" opacity="1"></path><path fill="none" stroke="#B9CFD7" stroke-width="0.5" data-z-index="1" class="highcharts-grid-line" d="M 37 274.25 L 590 274.25" opacity="1"></path><path fill="none" stroke="#B9CFD7" stroke-width="0.5" data-z-index="1" class="highcharts-grid-line" d="M 37 196.25 L 590 196.25" opacity="1"></path><path fill="none" stroke="#B9CFD7" stroke-width="0.5" data-z-index="1" class="highcharts-grid-line" d="M 37 118.75 L 590 118.75" opacity="1"></path></g><rect fill="none" class="highcharts-plot-border" data-z-index="1" x="37" y="119" width="553" height="232"></rect><g class="highcharts-axis highcharts-xaxis" data-z-index="2"><path fill="none" class="highcharts-axis-line" stroke="#B9CFD7" stroke-width="0.5" data-z-index="7" d="M 37 351.25 L 590 351.25"></path></g><g class="highcharts-axis highcharts-yaxis" data-z-index="2"><path fill="none" class="highcharts-axis-line" data-z-index="7" d="M 37 119 L 37 351"></path></g><g class="highcharts-series-group" data-z-index="3"><g class="highcharts-series highcharts-series-0 highcharts-line-series" data-z-index="0.1" opacity="1" transform="translate(37,119) scale(1 1)"><path fill="none" d="M 13.825 146.93333333333334 L 41.475 148.09333333333333 L 69.125 148.86666666666667 L 96.775 151.96 L 124.425 152.34666666666666 L 152.075 151.18666666666667 L 179.725 150.8 L 207.375 149.64 L 235.025 143.45333333333332 L 262.675 143.45333333333332 L 290.325 139.58666666666667 L 317.975 137.26666666666665 L 345.625 139.97333333333333 L 373.275 139.97333333333333 L 400.925 143.06666666666666 L 428.575 143.84 L 456.225 144.61333333333334 L 483.875 139.97333333333333 L 511.525 136.49333333333334 L 539.175 135.72" class="highcharts-graph" data-z-index="1" stroke="#9E7C59" stroke-width="2" stroke-linejoin="round" stroke-linecap="round"></path></g><g class="highcharts-markers highcharts-series-0 highcharts-line-series" data-z-index="0.1" opacity="1" transform="translate(37,119) scale(1 1)" clip-path="none"></g><g class="highcharts-series highcharts-series-1 highcharts-line-series" data-z-index="0.1" opacity="1" transform="translate(37,119) scale(1 1)"><path fill="none" d="M 13.825 116 L 41.475 116 L 69.125 114.45333333333333 L 96.775 114.45333333333333 L 124.425 114.45333333333333 L 152.075 115.61333333333333 L 179.725 112.52000000000001 L 207.375 115.22666666666667 L 235.025 116.77333333333333 L 262.675 113.29333333333334 L 290.325 113.29333333333334 L 317.975 112.13333333333333 L 345.625 117.93333333333334 L 373.275 116 L 400.925 116 L 428.575 119.47999999999999 L 456.225 120.25333333333334 L 483.875 116 L 511.525 121.02666666666667 L 539.175 117.16" class="highcharts-graph" data-z-index="1" stroke="#FF8028" stroke-width="2" stroke-linejoin="round" stroke-linecap="round"></path></g><g class="highcharts-markers highcharts-series-1 highcharts-line-series" data-z-index="0.1" opacity="1" transform="translate(37,119) scale(1 1)" clip-path="none"></g><g class="highcharts-series highcharts-series-2 highcharts-line-series" data-z-index="0.1" opacity="1" transform="translate(37,119) scale(1 1)"><path fill="none" d="M 13.825 171.29333333333335 L 41.475 169.74666666666667 L 69.125 170.13333333333333 L 96.775 168.58666666666667 L 124.425 168.58666666666667 L 152.075 171.68 L 179.725 172.06666666666666 L 207.375 172.84 L 235.025 174.38666666666666 L 262.675 174.77333333333334 L 290.325 173.61333333333334 L 317.975 173.61333333333334 L 345.625 172.45333333333332 L 373.275 171.68 L 400.925 172.06666666666666 L 428.575 169.36 L 456.225 170.51999999999998 L 483.875 169.36 L 511.525 167.81333333333333 L 539.175 167.04" class="highcharts-graph" data-z-index="1" stroke="#923F8D" stroke-width="2" stroke-linejoin="round" stroke-linecap="round"></path></g><g class="highcharts-markers highcharts-series-2 highcharts-line-series" data-z-index="0.1" opacity="1" transform="translate(37,119) scale(1 1)" clip-path="none"></g><g class="highcharts-series highcharts-series-3 highcharts-line-series" data-z-index="0.1" opacity="1" transform="translate(37,119) scale(1 1)"><path fill="none" d="M 13.825 190.62666666666667 L 41.475 194.10666666666665 L 69.125 193.72 L 96.775 195.26666666666665 L 124.425 195.26666666666665 L 152.075 196.81333333333333 L 179.725 201.06666666666666 L 207.375 201.84 L 235.025 203 L 262.675 199.90666666666667 L 290.325 200.29333333333335 L 317.975 199.13333333333333 L 345.625 198.36 L 373.275 197.58666666666667 L 400.925 193.72 L 428.575 194.49333333333334 L 456.225 196.04 L 483.875 195.26666666666665 L 511.525 197.2 L 539.175 197.58666666666667" class="highcharts-graph" data-z-index="1" stroke="#689199" stroke-width="2" stroke-linejoin="round" stroke-linecap="round"></path></g><g class="highcharts-markers highcharts-series-3 highcharts-line-series" data-z-index="0.1" opacity="1" transform="translate(37,119) scale(1 1)" clip-path="none"></g><g class="highcharts-series highcharts-series-4 highcharts-line-series" data-z-index="0.1" opacity="1" transform="translate(37,119) scale(1 1)" clip-path="url(#highcharts-ziip6to-127-)"><path fill="none" d="M 13.825 45.626666666666665 L 41.475 44.853333333333325 L 69.125 51.81333333333333 L 96.775 44.853333333333325 L 124.425 51.04000000000002 L 152.075 55.68000000000001 L 179.725 60.31999999999999 L 207.375 68.44 L 235.025 74.62666666666667 L 262.675 75.01333333333332 L 290.325 62.640000000000015 L 317.975 59.93333333333334 L 345.625 61.47999999999999 L 373.275 56.84 L 400.925 54.133333333333326 L 428.575 57.22666666666666 L 456.225 55.29333333333332 L 483.875 66.12 L 511.525 67.28 L 539.175 68.44" class="highcharts-graph" data-z-index="1" stroke="#FABD24" stroke-width="2" stroke-linejoin="round" stroke-linecap="round"></path></g><g class="highcharts-markers highcharts-series-4 highcharts-line-series" data-z-index="0.1" opacity="1" transform="translate(37,119) scale(1 1)" clip-path="none"></g><g class="highcharts-series highcharts-series-5 highcharts-line-series" data-z-index="0.1" opacity="1" transform="translate(37,119) scale(1 1)"><path fill="none" d="M 13.825 110.58666666666667 L 41.475 110.97333333333333 L 69.125 111.36 L 96.775 111.74666666666666 L 124.425 113.29333333333334 L 152.075 114.84 L 179.725 115.22666666666667 L 207.375 116.38666666666667 L 235.025 117.54666666666667 L 262.675 118.70666666666666 L 290.325 119.09333333333333 L 317.975 119.47999999999999 L 345.625 120.25333333333334 L 373.275 120.64 L 400.925 121.41333333333333 L 428.575 121.41333333333333 L 456.225 122.57333333333332 L 483.875 121.8 L 511.525 122.57333333333332 L 539.175 122.57333333333332" class="highcharts-graph" data-z-index="1" stroke="#8A8A8A" stroke-width="2" stroke-dasharray="6,2"></path></g><g class="highcharts-markers highcharts-series-5 highcharts-line-series" data-z-index="0.1" opacity="1" transform="translate(37,119) scale(1 1)" clip-path="none"></g></g><text x="10" text-anchor="start" class="highcharts-caption" data-z-index="4" style="color:#666666;fill:#666666;" y="385"></text><g class="highcharts-legend" data-z-index="7" transform="translate(29,56)"><rect fill="none" class="highcharts-legend-box" rx="0" ry="0" x="0" y="0" width="516" height="51" visibility="visible"></rect><g data-z-index="1"><g><g class="highcharts-legend-item highcharts-line-series highcharts-color-undefined highcharts-series-5" data-z-index="1" transform="translate(8,3)"><path fill="none" d="M 0 11 L 16 11" class="highcharts-graph" stroke-dasharray="6,2" stroke="#8A8A8A" stroke-width="2"></path><text x="21" style="color:#333333;cursor:pointer;font-size:12px;font-weight:normal;fill:#333333;" text-anchor="start" data-z-index="2" y="15"><tspan>Stadt Basel</tspan></text></g><g class="highcharts-legend-item highcharts-line-series highcharts-color-undefined highcharts-series-0" data-z-index="1" transform="translate(112,3)"><path fill="none" d="M 0 11 L 16 11" class="highcharts-graph" stroke="#9E7C59" stroke-width="2"></path><text x="21" y="15" style="color:#333333;cursor:pointer;font-size:12px;font-weight:normal;fill:#333333;" text-anchor="start" data-z-index="2"><tspan>Pestalozzi</tspan></text></g><g class="highcharts-legend-item highcharts-line-series highcharts-color-undefined highcharts-series-1" data-z-index="1" transform="translate(216,3)"><path fill="none" d="M 0 11 L 16 11" class="highcharts-graph" stroke="#FF8028" stroke-width="2"></path><text x="21" y="15" style="color:#333333;cursor:pointer;font-size:12px;font-weight:normal;fill:#333333;" text-anchor="start" data-z-index="2"><tspan>Kannenfeld</tspan></text></g><g class="highcharts-legend-item highcharts-line-series highcharts-color-undefined highcharts-series-2" data-z-index="1" transform="translate(320,3)"><path fill="none" d="M 0 11 L 16 11" class="highcharts-graph" stroke="#923F8D" stroke-width="2"></path><text x="21" y="15" style="color:#333333;cursor:pointer;font-size:12px;font-weight:normal;fill:#333333;" text-anchor="start" data-z-index="2"><tspan>Landskron</tspan></text></g><g class="highcharts-legend-item highcharts-line-series highcharts-color-undefined highcharts-series-3" data-z-index="1" transform="translate(424,3)"><path fill="none" d="M 0 11 L 16 11" class="highcharts-graph" stroke="#689199" stroke-width="2"></path><text x="21" y="15" style="color:#333333;cursor:pointer;font-size:12px;font-weight:normal;fill:#333333;" text-anchor="start" data-z-index="2"><tspan>Lysbüchel</tspan></text></g><g class="highcharts-legend-item highcharts-line-series highcharts-color-undefined highcharts-series-4" data-z-index="1" transform="translate(8,23)"><path fill="none" d="M 0 11 L 16 11" class="highcharts-graph" stroke="#FABD24" stroke-width="2"></path><text x="21" y="15" style="color:#333333;cursor:pointer;font-size:12px;font-weight:normal;fill:#333333;" text-anchor="start" data-z-index="2"><tspan>Friedmatt</tspan></text></g></g></g></g><g class="highcharts-axis-labels highcharts-xaxis-labels" data-z-index="7"><text x="78.475" style="color:#000000;cursor:default;font-size:11px;fill:#000000;" text-anchor="middle" transform="translate(0,0)" y="370" opacity="1">2005</text><text x="133.775" style="color:#000000;cursor:default;font-size:11px;fill:#000000;" text-anchor="middle" transform="translate(0,0)" y="370" opacity="1">2007</text><text x="189.07500000000002" style="color:#000000;cursor:default;font-size:11px;fill:#000000;" text-anchor="middle" transform="translate(0,0)" y="370" opacity="1">2009</text><text x="244.375" style="color:#000000;cursor:default;font-size:11px;fill:#000000;" text-anchor="middle" transform="translate(0,0)" y="370" opacity="1">2011</text><text x="299.675" style="color:#000000;cursor:default;font-size:11px;fill:#000000;" text-anchor="middle" transform="translate(0,0)" y="370" opacity="1">2013</text><text x="354.975" style="color:#000000;cursor:default;font-size:11px;fill:#000000;" text-anchor="middle" transform="translate(0,0)" y="370" opacity="1">2015</text><text x="410.27500000000003" style="color:#000000;cursor:default;font-size:11px;fill:#000000;" text-anchor="middle" transform="translate(0,0)" y="370" opacity="1">2017</text><text x="465.575" style="color:#000000;cursor:default;font-size:11px;fill:#000000;" text-anchor="middle" transform="translate(0,0)" y="370" opacity="1">2019</text><text x="520.875" style="color:#000000;cursor:default;font-size:11px;fill:#000000;" text-anchor="middle" transform="translate(0,0)" y="370" opacity="1">2021</text><text x="576.175" style="color:#000000;cursor:default;font-size:11px;fill:#000000;" text-anchor="middle" transform="translate(0,0)" y="370" opacity="1">2023</text></g><g class="highcharts-axis-labels highcharts-yaxis-labels" data-z-index="7"><text x="22" style="color:#000000;cursor:default;font-size:11px;fill:#000000;" text-anchor="end" transform="translate(0,0)" y="355" opacity="1">0</text><text x="22" style="color:#000000;cursor:default;font-size:11px;fill:#000000;" text-anchor="end" transform="translate(0,0)" y="278" opacity="1">20</text><text x="22" style="color:#000000;cursor:default;font-size:11px;fill:#000000;" text-anchor="end" transform="translate(0,0)" y="200" opacity="1">40</text><text x="22" style="color:#000000;cursor:default;font-size:11px;fill:#000000;" text-anchor="end" transform="translate(0,0)" y="123" opacity="1">60</text></g></svg>