<?xml version="1.0" standalone="no"?><!DOCTYPE svg PUBLIC "-//W3C//DTD SVG 1.1//EN" "http://www.w3.org/Graphics/SVG/1.1/DTD/svg11.dtd"><svg xmlns:xlink="http://www.w3.org/1999/xlink" version="1.1" class="highcharts-root" style="font-family:Arial;font-size:12px;" xmlns="http://www.w3.org/2000/svg" viewBox="0 0 485 415"><desc>Created with Highcharts 8.2.0</desc><defs><clipPath id="highcharts-dumkm86-33-"><rect x="0" y="0" width="418" height="225" fill="none"></rect></clipPath><clipPath id="highcharts-dumkm86-47-"><rect x="0" y="0" width="418" height="225" fill="none"></rect></clipPath><clipPath id="highcharts-dumkm86-61-"><rect x="47" y="116" width="418" height="225" fill="none"></rect></clipPath></defs><rect fill="#fbfbfb" class="highcharts-background" x="0" y="0" width="485" height="428" rx="0" ry="0"></rect><rect fill="none" class="highcharts-plot-background" x="47" y="116" width="418" height="225"></rect><g class="highcharts-pane-group" data-z-index="0"></g><g class="highcharts-grid highcharts-xaxis-grid" data-z-index="1"><path fill="none" data-z-index="1" class="highcharts-grid-line" d="M 50.5 116 L 50.5 341" opacity="1"></path><path fill="none" data-z-index="1" class="highcharts-grid-line" d="M 84.5 116 L 84.5 341" opacity="1"></path><path fill="none" data-z-index="1" class="highcharts-grid-line" d="M 118.5 116 L 118.5 341" opacity="1"></path><path fill="none" data-z-index="1" class="highcharts-grid-line" d="M 153.5 116 L 153.5 341" opacity="1"></path><path fill="none" data-z-index="1" class="highcharts-grid-line" d="M 187.5 116 L 187.5 341" opacity="1"></path><path fill="none" data-z-index="1" class="highcharts-grid-line" d="M 221.5 116 L 221.5 341" opacity="1"></path><path fill="none" data-z-index="1" class="highcharts-grid-line" d="M 255.5 116 L 255.5 341" opacity="1"></path><path fill="none" data-z-index="1" class="highcharts-grid-line" d="M 289.5 116 L 289.5 341" opacity="1"></path><path fill="none" data-z-index="1" class="highcharts-grid-line" d="M 323.5 116 L 323.5 341" opacity="1"></path><path fill="none" data-z-index="1" class="highcharts-grid-line" d="M 357.5 116 L 357.5 341" opacity="1"></path><path fill="none" data-z-index="1" class="highcharts-grid-line" d="M 392.5 116 L 392.5 341" opacity="1"></path><path fill="none" data-z-index="1" class="highcharts-grid-line" d="M 426.5 116 L 426.5 341" opacity="1"></path><path fill="none" data-z-index="1" class="highcharts-grid-line" d="M 460.5 116 L 460.5 341" opacity="1"></path></g><g class="highcharts-grid highcharts-yaxis-grid" data-z-index="1"><path fill="none" stroke="#B9CFD7" stroke-width="0.5" data-z-index="1" class="highcharts-grid-line" d="M 47 341.25 L 465 341.25" opacity="1"></path><path fill="none" stroke="#B9CFD7" stroke-width="0.5" data-z-index="1" class="highcharts-grid-line" d="M 47 296.25 L 465 296.25" opacity="1"></path><path fill="none" stroke="#B9CFD7" stroke-width="0.5" data-z-index="1" class="highcharts-grid-line" d="M 47 251.25 L 465 251.25" opacity="1"></path><path fill="none" stroke="#B9CFD7" stroke-width="0.5" data-z-index="1" class="highcharts-grid-line" d="M 47 206.25 L 465 206.25" opacity="1"></path><path fill="none" stroke="#B9CFD7" stroke-width="0.5" data-z-index="1" class="highcharts-grid-line" d="M 47 161.25 L 465 161.25" opacity="1"></path><path fill="none" stroke="#B9CFD7" stroke-width="0.5" data-z-index="1" class="highcharts-grid-line" d="M 47 115.75 L 465 115.75" opacity="1"></path></g><rect fill="none" class="highcharts-plot-border" data-z-index="1" x="47" y="116" width="418" height="225"></rect><g class="highcharts-axis highcharts-xaxis" data-z-index="2"><path fill="none" class="highcharts-axis-line" stroke="#B9CFD7" stroke-width="0.5" data-z-index="7" d="M 47 341.25 L 465 341.25"></path></g><g class="highcharts-axis highcharts-yaxis" data-z-index="2"><path fill="none" class="highcharts-axis-line" data-z-index="7" d="M 47 116 L 47 341"></path></g><g class="highcharts-series-group" data-z-index="3"><g class="highcharts-series highcharts-series-0 highcharts-line-series" data-z-index="0.1" opacity="1" transform="translate(47,116) scale(1 1)" clip-path="url(#highcharts-dumkm86-47-)"><path fill="none" d="M 4.0980392156826 207 L 38.248366013069 204.3 L 72.398692810455 200.7 L 106.54901960784 197.1 L 140.69934640523 196.2 L 174.84967320261 193.5 L 209 192.6 L 243.15032679739 193.5 L 277.30065359477 193.5 L 311.45098039216 192.6 L 345.60130718954 192.6 L 379.75163398693 195.3 L 413.90196078432 195.3" class="highcharts-graph" data-z-index="1" stroke="#67401E" stroke-width="2" stroke-linejoin="round" stroke-linecap="round"></path></g><g class="highcharts-markers highcharts-series-0 highcharts-line-series" data-z-index="0.1" opacity="1" transform="translate(47,116) scale(1 1)" clip-path="none"></g><g class="highcharts-series highcharts-series-1 highcharts-line-series" data-z-index="0.1" opacity="1" transform="translate(47,116) scale(1 1)" clip-path="url(#highcharts-dumkm86-47-)"><path fill="none" d="M 4.0980392156826 69.29999999999998 L 38.248366013069 64.79999999999998 L 72.398692810455 63 L 106.54901960784 62.099999999999994 L 140.69934640523 64.79999999999998 L 174.84967320261 58.5 L 209 56.70000000000002 L 243.15032679739 57.599999999999994 L 277.30065359477 45 L 311.45098039216 34.20000000000002 L 345.60130718954 30.599999999999994 L 379.75163398693 36 L 413.90196078432 36.900000000000006" class="highcharts-graph" data-z-index="1" stroke="#C4AB91" stroke-width="2" stroke-linejoin="round" stroke-linecap="round"></path></g><g class="highcharts-markers highcharts-series-1 highcharts-line-series" data-z-index="0.1" opacity="1" transform="translate(47,116) scale(1 1)" clip-path="none"></g></g><text x="10" text-anchor="start" class="highcharts-title" data-z-index="4" style="color:#000000;font-size:14px;font-weight:bold;fill:#000000;" y="21"><tspan>Quote der Haushalte mit Familienmietzinsbeiträgen und</tspan><tspan dy="17" x="10">reiner Prämienverbilligung</tspan></text><text x="10" text-anchor="start" class="highcharts-subtitle" data-z-index="4" style="color:#000000;font-size:12px;font-weight:normal;fill:#000000;" y="57"><tspan>Wohnviertel St. Johann</tspan></text><text x="10" text-anchor="start" class="highcharts-caption" data-z-index="4" style="color:#666666;fill:#666666;" y="375"></text><g class="highcharts-legend" data-z-index="7" transform="translate(39,73)"><rect fill="none" class="highcharts-legend-box" rx="0" ry="0" x="0" y="0" width="327" height="31" visibility="visible"></rect><g data-z-index="1"><g><g class="highcharts-legend-item highcharts-line-series highcharts-color-undefined highcharts-series-0" data-z-index="1" transform="translate(8,3)"><path fill="none" d="M 0 11 L 16 11" class="highcharts-graph" stroke="#67401E" stroke-width="2"></path><text x="21" style="color:#333333;cursor:pointer;font-size:12px;font-weight:normal;fill:#333333;" text-anchor="start" data-z-index="2" y="15"><tspan>Familienmietzinsbeiträge</tspan></text></g><g class="highcharts-legend-item highcharts-line-series highcharts-color-undefined highcharts-series-1" data-z-index="1" transform="translate(188,3)"><path fill="none" d="M 0 11 L 16 11" class="highcharts-graph" stroke="#C4AB91" stroke-width="2"></path><text x="21" y="15" style="color:#333333;cursor:pointer;font-size:12px;font-weight:normal;fill:#333333;" text-anchor="start" data-z-index="2"><tspan>Prämienverbilligung</tspan></text></g></g></g></g><g class="highcharts-axis-labels highcharts-xaxis-labels" data-z-index="7"><text x="51.098039215683" style="color:#000000;cursor:default;font-size:11px;fill:#000000;" text-anchor="middle" transform="translate(0,0)" y="360" opacity="1">2011</text><text x="85.248366013069" style="color:#000000;cursor:default;font-size:11px;fill:#000000;" text-anchor="middle" transform="translate(0,0)" y="360" opacity="1">2012</text><text x="119.39869281046" style="color:#000000;cursor:default;font-size:11px;fill:#000000;" text-anchor="middle" transform="translate(0,0)" y="360" opacity="1">2013</text><text x="153.54901960784" style="color:#000000;cursor:default;font-size:11px;fill:#000000;" text-anchor="middle" transform="translate(0,0)" y="360" opacity="1">2014</text><text x="187.69934640523" style="color:#000000;cursor:default;font-size:11px;fill:#000000;" text-anchor="middle" transform="translate(0,0)" y="360" opacity="1">2015</text><text x="221.84967320261" style="color:#000000;cursor:default;font-size:11px;fill:#000000;" text-anchor="middle" transform="translate(0,0)" y="360" opacity="1">2016</text><text x="256" style="color:#000000;cursor:default;font-size:11px;fill:#000000;" text-anchor="middle" transform="translate(0,0)" y="360" opacity="1">2017</text><text x="290.15032679739" style="color:#000000;cursor:default;font-size:11px;fill:#000000;" text-anchor="middle" transform="translate(0,0)" y="360" opacity="1">2018</text><text x="324.30065359477" style="color:#000000;cursor:default;font-size:11px;fill:#000000;" text-anchor="middle" transform="translate(0,0)" y="360" opacity="1">2019</text><text x="358.45098039216" style="color:#000000;cursor:default;font-size:11px;fill:#000000;" text-anchor="middle" transform="translate(0,0)" y="360" opacity="1">2020</text><text x="392.60130718954" style="color:#000000;cursor:default;font-size:11px;fill:#000000;" text-anchor="middle" transform="translate(0,0)" y="360" opacity="1">2021</text><text x="426.75163398693" style="color:#000000;cursor:default;font-size:11px;fill:#000000;" text-anchor="middle" transform="translate(0,0)" y="360" opacity="1">2022</text><text x="460.90196078432" style="color:#000000;cursor:default;font-size:11px;fill:#000000;" text-anchor="middle" transform="translate(0,0)" y="360" opacity="1">2023</text></g><g class="highcharts-axis-labels highcharts-yaxis-labels" data-z-index="7"><text x="32" style="color:#000000;cursor:default;font-size:11px;fill:#000000;" text-anchor="end" transform="translate(0,0)" y="345" opacity="1">0%</text><text x="32" style="color:#000000;cursor:default;font-size:11px;fill:#000000;" text-anchor="end" transform="translate(0,0)" y="300" opacity="1">5%</text><text x="32" style="color:#000000;cursor:default;font-size:11px;fill:#000000;" text-anchor="end" transform="translate(0,0)" y="255" opacity="1">10%</text><text x="32" style="color:#000000;cursor:default;font-size:11px;fill:#000000;" text-anchor="end" transform="translate(0,0)" y="210" opacity="1">15%</text><text x="32" style="color:#000000;cursor:default;font-size:11px;fill:#000000;" text-anchor="end" transform="translate(0,0)" y="165" opacity="1">20%</text><text x="32" style="color:#000000;cursor:default;font-size:11px;fill:#000000;" text-anchor="end" transform="translate(0,0)" y="120" opacity="1">25%</text></g><text x="10" class="highcharts-credits" text-anchor="start" data-z-index="8" style="cursor:default;color:#000000;font-size:10px;fill:#000000;" y="393"><tspan>Quelle: Statistisches Amt Basel-Stadt, Bevölkerungsstatistik;</tspan><tspan x="10" dy="13">Basler Informationssystem Sozialleistungen (BISS).</tspan><tspan x="10" dy="13">Zuletzt geändert: 10.6.2024</tspan></text><g class="highcharts-control-points" data-z-index="99" clip-path="url(#highcharts-dumkm86-61-)"></g></svg>