<svg version="1.1" class="highcharts-root" style="font-family: Inter, &quot;Helvetica Neue&quot;, Helvetica, Arial, sans-serif; font-size: 1rem;" xmlns="http://www.w3.org/2000/svg" width="600" height="400" viewBox="0 0 600 400" role="img" aria-label="Anzahl Aufenthaltstage in Tages- und Nachtpflegeeinrichtungen nach Spezialisierung"><desc>Created with Highcharts 12.5.0</desc><defs><filter id="highcharts-drop-shadow-0"><feDropShadow dx="1" dy="1" flood-color="#000000" flood-opacity="0.75" stdDeviation="2.5"></feDropShadow></filter><clipPath id="highcharts-i4d11k6-145-"><rect x="0" y="0" width="526" height="218" fill="none"></rect></clipPath></defs><rect fill="#ffffff" class="highcharts-background" filter="none" x="0" y="0" width="600" height="400" rx="0" ry="0"></rect><rect fill="none" class="highcharts-plot-background" x="64" y="97" width="526" height="218" filter="none"></rect><g class="highcharts-pane-group" data-z-index="0"></g><g class="highcharts-grid highcharts-xaxis-grid" data-z-index="1"><path fill="none" stroke="#e6e6e6" stroke-width="0" stroke-dasharray="none" data-z-index="1" class="highcharts-grid-line" d="M 119.5 97 L 119.5 315" opacity="1"></path><path fill="none" stroke="#e6e6e6" stroke-width="0" stroke-dasharray="none" data-z-index="1" class="highcharts-grid-line" d="M 223.5 97 L 223.5 315" opacity="1"></path><path fill="none" stroke="#e6e6e6" stroke-width="0" stroke-dasharray="none" data-z-index="1" class="highcharts-grid-line" d="M 327.5 97 L 327.5 315" opacity="1"></path><path fill="none" stroke="#e6e6e6" stroke-width="0" stroke-dasharray="none" data-z-index="1" class="highcharts-grid-line" d="M 430.5 97 L 430.5 315" opacity="1"></path><path fill="none" stroke="#e6e6e6" stroke-width="0" stroke-dasharray="none" data-z-index="1" class="highcharts-grid-line" d="M 534.5 97 L 534.5 315" opacity="1"></path></g><g class="highcharts-grid highcharts-yaxis-grid" data-z-index="1"><path fill="none" stroke="#e6e6e6" stroke-width="1" stroke-dasharray="none" data-z-index="1" class="highcharts-grid-line" d="M 64 315.5 L 590 315.5" opacity="1"></path><path fill="none" stroke="#e6e6e6" stroke-width="1" stroke-dasharray="none" data-z-index="1" class="highcharts-grid-line" d="M 64 260.5 L 590 260.5" opacity="1"></path><path fill="none" stroke="#e6e6e6" stroke-width="1" stroke-dasharray="none" data-z-index="1" class="highcharts-grid-line" d="M 64 206.5 L 590 206.5" opacity="1"></path><path fill="none" stroke="#e6e6e6" stroke-width="1" stroke-dasharray="none" data-z-index="1" class="highcharts-grid-line" d="M 64 151.5 L 590 151.5" opacity="1"></path><path fill="none" stroke="#e6e6e6" stroke-width="1" stroke-dasharray="none" data-z-index="1" class="highcharts-grid-line" d="M 64 97.5 L 590 97.5" opacity="1"></path></g><rect fill="none" class="highcharts-plot-border" data-z-index="1" stroke="#cccccc" stroke-width="0" x="64" y="97" width="526" height="218"></rect><g class="highcharts-axis highcharts-xaxis" data-z-index="2"><path fill="none" class="highcharts-axis-line" stroke="#B9CFD7" stroke-width="0.5" data-z-index="7" d="M 64 315.25 L 590 315.25"></path></g><g class="highcharts-axis highcharts-yaxis" data-z-index="2"><path fill="none" class="highcharts-axis-line" stroke="#333333" stroke-width="0" data-z-index="7" d="M 64 97 L 64 315"></path></g><g class="highcharts-series-group" data-z-index="3" filter="none"><g class="highcharts-series highcharts-series-0 highcharts-column-series highcharts-tracker" data-z-index="0.1" opacity="1" transform="translate(64,97) scale(1 1)" clip-path="url(#highcharts-i4d11k6-145-)"><path fill="#52ada1" d="M 34 39 L 78 39 A 3 3 0 0 1 81 42 L 81 167 A 0 0 0 0 1 81 167 L 31 167 A 0 0 0 0 1 31 167 L 31 42 A 3 3 0 0 1 34 39 Z" stroke="#ffffff" stroke-width="0" opacity="1" filter="none" class="highcharts-point"></path><path fill="#52ada1" d="M 138 83 L 182 83 A 3 3 0 0 1 185 86 L 185 177 A 0 0 0 0 1 185 177 L 135 177 A 0 0 0 0 1 135 177 L 135 86 A 3 3 0 0 1 138 83 Z" stroke="#ffffff" stroke-width="0" opacity="1" filter="none" class="highcharts-point"></path><path fill="#52ada1" d="M 241 73 L 285 73 A 3 3 0 0 1 288 76 L 288 170 A 0 0 0 0 1 288 170 L 238 170 A 0 0 0 0 1 238 170 L 238 76 A 3 3 0 0 1 241 73 Z" stroke="#ffffff" stroke-width="0" opacity="1" filter="none" class="highcharts-point"></path><path fill="#52ada1" d="M 345 79 L 389 79 A 3 3 0 0 1 392 82 L 392 164 A 0 0 0 0 1 392 164 L 342 164 A 0 0 0 0 1 342 164 L 342 82 A 3 3 0 0 1 345 79 Z" stroke="#ffffff" stroke-width="0" opacity="1" filter="none" class="highcharts-point"></path><path fill="#52ada1" d="M 448 68 L 492 68 A 3 3 0 0 1 495 71 L 495 164 A 0 0 0 0 1 495 164 L 445 164 A 0 0 0 0 1 445 164 L 445 71 A 3 3 0 0 1 448 68 Z" stroke="#ffffff" stroke-width="0" opacity="1" filter="none" class="highcharts-point"></path></g><g class="highcharts-markers highcharts-series-0 highcharts-column-series" data-z-index="0.1" opacity="1" transform="translate(64,97) scale(1 1)" clip-path="none"></g><g class="highcharts-series highcharts-series-1 highcharts-column-series highcharts-tracker" data-z-index="0.1" opacity="1" transform="translate(64,97) scale(1 1)" clip-path="url(#highcharts-i4d11k6-145-)"><path fill="#e09f6e" d="M 31 167 L 81 167 A 0 0 0 0 1 81 167 L 81 218 A 0 0 0 0 1 81 218 L 31 218 A 0 0 0 0 1 31 218 L 31 167 A 0 0 0 0 1 31 167 Z" stroke="#ffffff" stroke-width="0" opacity="1" filter="none" class="highcharts-point"></path><path fill="#e09f6e" d="M 135 177 L 185 177 A 0 0 0 0 1 185 177 L 185 218 A 0 0 0 0 1 185 218 L 135 218 A 0 0 0 0 1 135 218 L 135 177 A 0 0 0 0 1 135 177 Z" stroke="#ffffff" stroke-width="0" opacity="1" filter="none" class="highcharts-point"></path><path fill="#e09f6e" d="M 238 170 L 288 170 A 0 0 0 0 1 288 170 L 288 218 A 0 0 0 0 1 288 218 L 238 218 A 0 0 0 0 1 238 218 L 238 170 A 0 0 0 0 1 238 170 Z" stroke="#ffffff" stroke-width="0" opacity="1" filter="none" class="highcharts-point"></path><path fill="#e09f6e" d="M 342 164 L 392 164 A 0 0 0 0 1 392 164 L 392 218 A 0 0 0 0 1 392 218 L 342 218 A 0 0 0 0 1 342 218 L 342 164 A 0 0 0 0 1 342 164 Z" stroke="#ffffff" stroke-width="0" opacity="1" filter="none" class="highcharts-point"></path><path fill="#e09f6e" d="M 445 164 L 495 164 A 0 0 0 0 1 495 164 L 495 218 A 0 0 0 0 1 495 218 L 445 218 A 0 0 0 0 1 445 218 L 445 164 A 0 0 0 0 1 445 164 Z" stroke="#ffffff" stroke-width="0" opacity="1" filter="none" class="highcharts-point"></path></g><g class="highcharts-markers highcharts-series-1 highcharts-column-series" data-z-index="0.1" opacity="1" transform="translate(64,97) scale(1 1)" clip-path="none"></g><g class="highcharts-series highcharts-series-2 highcharts-line-series" data-z-index="0.1" opacity="1" transform="translate(64,97) scale(1 1)" clip-path="url(#highcharts-i4d11k6-145-)"><path fill="none" d="M 55.913385826769 39.03835 L 159.45669291338 83.3632 L 263 73.26435 L 366.54330708662 78.59445 L 470.08661417323 68.3975" class="highcharts-graph" data-z-index="1" stroke="#010101" stroke-width="2" stroke-linejoin="round" stroke-linecap="round" filter="none"></path><path fill="none" d="M 55.913385826769 39.03835 L 159.45669291338 83.3632 L 263 73.26435 L 366.54330708662 78.59445 L 470.08661417323 68.3975" data-z-index="2" class="highcharts-tracker-line" stroke-linecap="round" stroke-linejoin="round" stroke="rgba(192,192,192,0.0001)" stroke-width="22"></path></g><g class="highcharts-markers highcharts-series-2 highcharts-line-series highcharts-tracker" data-z-index="0.1" opacity="1" transform="translate(64,97) scale(1 1)" clip-path="none"></g></g><text x="10" text-anchor="start" class="highcharts-caption" data-z-index="4" style="font-size: 0.8em; fill: rgb(102, 102, 102);" text-align="left" y="357" transform-origin="10 15" transform="translate(0,0) scale(1 1)"></text><g class="highcharts-axis-labels highcharts-xaxis-labels" data-z-index="7"><text x="119.91338582677" text-anchor="middle" transform="translate(0,0)" style="cursor: default; font-size: 0.8em; fill: rgb(0, 0, 0);" y="342" opacity="1">2019</text><text x="223.45669291338" text-anchor="middle" transform="translate(0,0)" style="cursor: default; font-size: 0.8em; fill: rgb(0, 0, 0);" y="342" opacity="1">2020</text><text x="327" text-anchor="middle" transform="translate(0,0)" style="cursor: default; font-size: 0.8em; fill: rgb(0, 0, 0);" y="342" opacity="1">2021</text><text x="430.54330708662" text-anchor="middle" transform="translate(0,0)" style="cursor: default; font-size: 0.8em; fill: rgb(0, 0, 0);" y="342" opacity="1">2022</text><text x="534.08661417323" text-anchor="middle" transform="translate(0,0)" style="cursor: default; font-size: 0.8em; fill: rgb(0, 0, 0);" y="342" opacity="1">2023</text></g><g class="highcharts-axis-labels highcharts-yaxis-labels" data-z-index="7"><text x="49" text-anchor="end" transform="translate(0,0)" style="cursor: default; font-size: 0.8em; fill: black;" y="320" opacity="1">0</text><text x="49" text-anchor="end" transform="translate(0,0)" style="cursor: default; font-size: 0.8em; fill: black;" y="265" opacity="1">10,000</text><text x="49" text-anchor="end" transform="translate(0,0)" style="cursor: default; font-size: 0.8em; fill: black;" y="211" opacity="1">20,000</text><text x="49" text-anchor="end" transform="translate(0,0)" style="cursor: default; font-size: 0.8em; fill: black;" y="156" opacity="1">30,000</text><text x="49" text-anchor="end" transform="translate(0,0)" style="cursor: default; font-size: 0.8em; fill: black;" y="102" opacity="1">40,000</text></g><g class="highcharts-legend highcharts-no-tooltip" data-z-index="7" text-align="left" transform="translate(56,55)"><rect fill="none" class="highcharts-legend-box" rx="0" ry="0" stroke="#999999" stroke-width="0" filter="none" x="0" y="0" width="253" height="30"></rect><g data-z-index="1"><g><g class="highcharts-legend-item highcharts-column-series highcharts-color-undefined highcharts-series-0" data-z-index="1" transform="translate(8,3)"><text x="21" text-anchor="start" data-z-index="2" style="cursor: pointer; font-size: 0.8em; text-decoration: none; font-weight: normal; fill: rgb(51, 51, 51);" y="17">Allgemein</text><rect x="2" y="6" rx="0" ry="0" width="12" height="12" fill="#52ada1" class="highcharts-point" data-z-index="3"></rect></g><g class="highcharts-legend-item highcharts-column-series highcharts-color-undefined highcharts-series-1" data-z-index="1" transform="translate(96.21875,3)"><text x="21" y="17" text-anchor="start" data-z-index="2" style="cursor: pointer; font-size: 0.8em; text-decoration: none; font-weight: normal; fill: rgb(51, 51, 51);">Spezialisiert</text><rect x="2" y="6" rx="0" ry="0" width="12" height="12" fill="#e09f6e" class="highcharts-point" data-z-index="3"></rect></g><g class="highcharts-legend-item highcharts-line-series highcharts-color-undefined highcharts-series-2" data-z-index="1" transform="translate(196.668701171875,3)"><path fill="none" class="highcharts-graph" stroke-width="2" stroke-linecap="round" d="M 1 13 L 15 13" stroke="#010101"></path><text x="21" y="17" text-anchor="start" data-z-index="2" style="cursor: pointer; font-size: 0.8em; text-decoration: none; font-weight: normal; fill: rgb(51, 51, 51);">Total</text></g></g></g></g></svg>