<?xml version="1.0" standalone="no"?><!DOCTYPE svg PUBLIC "-//W3C//DTD SVG 1.1//EN" "http://www.w3.org/Graphics/SVG/1.1/DTD/svg11.dtd"><svg xmlns:xlink="http://www.w3.org/1999/xlink" version="1.1" class="highcharts-root" style="font-family:Arial;font-size:12px;" xmlns="http://www.w3.org/2000/svg" viewBox="0 0 485 415"><desc>Created with Highstock 6.1.1</desc><defs><clipPath id="highcharts-k3dizb5-7"><rect x="0" y="0" width="433" height="242" fill="none"></rect></clipPath><clipPath id="highcharts-k3dizb5-8"><rect x="0" y="0" width="433" height="242" fill="none"></rect></clipPath></defs><rect fill="#fbfbfb" class="highcharts-background" x="0" y="0" width="485" height="428" rx="0" ry="0"></rect><rect fill="none" class="highcharts-plot-background" x="42" y="124" width="433" height="242"></rect><g class="highcharts-pane-group" data-z-index="0"></g><g class="highcharts-grid highcharts-xaxis-grid " data-z-index="1"><path fill="none" data-z-index="1" class="highcharts-grid-line" d="M 46.5 124 L 46.5 366" opacity="1"></path><path fill="none" data-z-index="1" class="highcharts-grid-line" d="M 90.5 124 L 90.5 366" opacity="1"></path><path fill="none" data-z-index="1" class="highcharts-grid-line" d="M 133.5 124 L 133.5 366" opacity="1"></path><path fill="none" data-z-index="1" class="highcharts-grid-line" d="M 176.5 124 L 176.5 366" opacity="1"></path><path fill="none" data-z-index="1" class="highcharts-grid-line" d="M 220.5 124 L 220.5 366" opacity="1"></path><path fill="none" data-z-index="1" class="highcharts-grid-line" d="M 263.5 124 L 263.5 366" opacity="1"></path><path fill="none" data-z-index="1" class="highcharts-grid-line" d="M 306.5 124 L 306.5 366" opacity="1"></path><path fill="none" data-z-index="1" class="highcharts-grid-line" d="M 350.5 124 L 350.5 366" opacity="1"></path><path fill="none" data-z-index="1" class="highcharts-grid-line" d="M 393.5 124 L 393.5 366" opacity="1"></path><path fill="none" data-z-index="1" class="highcharts-grid-line" d="M 436.5 124 L 436.5 366" opacity="1"></path></g><g class="highcharts-grid highcharts-yaxis-grid " data-z-index="1"><path fill="none" stroke="#B9CFD7" stroke-width="0.5" data-z-index="1" class="highcharts-grid-line" d="M 42 366.25 L 475 366.25" opacity="1"></path><path fill="none" stroke="#B9CFD7" stroke-width="0.5" data-z-index="1" class="highcharts-grid-line" d="M 42 306.25 L 475 306.25" opacity="1"></path><path fill="none" stroke="#B9CFD7" stroke-width="0.5" data-z-index="1" class="highcharts-grid-line" d="M 42 245.25 L 475 245.25" opacity="1"></path><path fill="none" stroke="#B9CFD7" stroke-width="0.5" data-z-index="1" class="highcharts-grid-line" d="M 42 185.25 L 475 185.25" opacity="1"></path><path fill="none" stroke="#B9CFD7" stroke-width="0.5" data-z-index="1" class="highcharts-grid-line" d="M 42 123.75 L 475 123.75" opacity="1"></path></g><g class="highcharts-grid highcharts-yaxis-grid " data-z-index="1"></g><rect fill="none" class="highcharts-plot-border" data-z-index="1" x="42" y="124" width="433" height="242"></rect><g class="highcharts-axis highcharts-xaxis " data-z-index="2"><path fill="none" class="highcharts-axis-line" stroke="#B9CFD7" stroke-width="0.5" data-z-index="7" d="M 42 366.25 L 475 366.25"></path></g><g class="highcharts-axis highcharts-yaxis " data-z-index="2"><path fill="none" class="highcharts-axis-line" data-z-index="7" d="M 42 124 L 42 366"></path></g><g class="highcharts-axis highcharts-yaxis " data-z-index="2"><path fill="none" class="highcharts-axis-line" data-z-index="7" d="M 10 124 L 10 366"></path></g><g class="highcharts-series-group" data-z-index="3"><g data-z-index="0.1" class="highcharts-series highcharts-series-0 highcharts-column-series " transform="translate(42,124) scale(1 1)" clip-path="url(#highcharts-k3dizb5-8)"><rect x="1" y="65" width="9" height="0" fill="#FF8028" class="highcharts-point"></rect><rect x="12" y="62" width="9" height="1" fill="#FF8028" class="highcharts-point"></rect><rect x="23" y="62" width="9" height="0" fill="#FF8028" class="highcharts-point"></rect><rect x="34" y="61" width="9" height="0" fill="#FF8028" class="highcharts-point"></rect><rect x="44" y="56" width="9" height="0" fill="#FF8028" class="highcharts-point"></rect><rect x="55" y="52" width="9" height="0" fill="#FF8028" class="highcharts-point"></rect><rect x="66" y="52" width="9" height="0" fill="#FF8028" class="highcharts-point"></rect><rect x="77" y="55" width="9" height="0" fill="#FF8028" class="highcharts-point"></rect><rect x="88" y="56" width="9" height="0" fill="#FF8028" class="highcharts-point"></rect><rect x="99" y="53" width="9" height="0" fill="#FF8028" class="highcharts-point"></rect><rect x="109" y="50" width="9" height="0" fill="#FF8028" class="highcharts-point"></rect><rect x="120" y="50" width="9" height="0" fill="#FF8028" class="highcharts-point"></rect><rect x="131" y="49" width="9" height="1" fill="#FF8028" class="highcharts-point"></rect><rect x="142" y="46" width="9" height="0" fill="#FF8028" class="highcharts-point"></rect><rect x="153" y="44" width="9" height="0" fill="#FF8028" class="highcharts-point"></rect><rect x="163" y="45" width="9" height="0" fill="#FF8028" class="highcharts-point"></rect><rect x="174" y="44" width="9" height="0" fill="#FF8028" class="highcharts-point"></rect><rect x="185" y="41" width="9" height="0" fill="#FF8028" class="highcharts-point"></rect><rect x="196" y="39" width="9" height="0" fill="#FF8028" class="highcharts-point"></rect><rect x="207" y="40" width="9" height="0" fill="#FF8028" class="highcharts-point"></rect><rect x="218" y="39" width="9" height="0" fill="#FF8028" class="highcharts-point"></rect><rect x="228" y="36" width="9" height="0" fill="#FF8028" class="highcharts-point"></rect><rect x="239" y="33" width="9" height="0" fill="#FF8028" class="highcharts-point"></rect><rect x="250" y="34" width="9" height="0" fill="#FF8028" class="highcharts-point"></rect><rect x="261" y="34" width="9" height="0" fill="#FF8028" class="highcharts-point"></rect><rect x="272" y="31" width="9" height="0" fill="#FF8028" class="highcharts-point"></rect><rect x="283" y="30" width="9" height="0" fill="#FF8028" class="highcharts-point"></rect><rect x="293" y="32" width="9" height="0" fill="#FF8028" class="highcharts-point"></rect><rect x="304" y="30" width="9" height="0" fill="#FF8028" class="highcharts-point"></rect><rect x="315" y="27" width="9" height="0" fill="#FF8028" class="highcharts-point"></rect><rect x="326" y="26" width="9" height="0" fill="#FF8028" class="highcharts-point"></rect><rect x="337" y="27" width="9" height="0" fill="#FF8028" class="highcharts-point"></rect><rect x="347" y="26" width="9" height="1" fill="#FF8028" class="highcharts-point"></rect><rect x="358" y="26" width="9" height="1" fill="#FF8028" class="highcharts-point"></rect><rect x="369" y="26" width="9" height="0" fill="#FF8028" class="highcharts-point"></rect><rect x="380" y="26" width="9" height="0" fill="#FF8028" class="highcharts-point"></rect><rect x="391" y="31" width="9" height="0" fill="#FF8028" class="highcharts-point"></rect><rect x="402" y="33" width="9" height="0" fill="#FF8028" class="highcharts-point"></rect><rect x="412" y="35" width="9" height="0" fill="#FF8028" class="highcharts-point"></rect><rect x="423" y="37" width="9" height="0" fill="#FF8028" class="highcharts-point"></rect></g><g data-z-index="0.1" class="highcharts-markers highcharts-series-0 highcharts-column-series " transform="translate(42,124) scale(1 1)" clip-path="none"></g><g data-z-index="0.1" class="highcharts-series highcharts-series-1 highcharts-column-series " transform="translate(42,124) scale(1 1)" clip-path="url(#highcharts-k3dizb5-8)"><rect x="1" y="65" width="9" height="1" fill="#A8C3CA" class="highcharts-point"></rect><rect x="12" y="63" width="9" height="0" fill="#A8C3CA" class="highcharts-point"></rect><rect x="23" y="62" width="9" height="0" fill="#A8C3CA" class="highcharts-point"></rect><rect x="34" y="61" width="9" height="0" fill="#A8C3CA" class="highcharts-point"></rect><rect x="44" y="56" width="9" height="1" fill="#A8C3CA" class="highcharts-point"></rect><rect x="55" y="52" width="9" height="1" fill="#A8C3CA" class="highcharts-point"></rect><rect x="66" y="52" width="9" height="0" fill="#A8C3CA" class="highcharts-point"></rect><rect x="77" y="55" width="9" height="0" fill="#A8C3CA" class="highcharts-point"></rect><rect x="88" y="56" width="9" height="0" fill="#A8C3CA" class="highcharts-point"></rect><rect x="99" y="53" width="9" height="1" fill="#A8C3CA" class="highcharts-point"></rect><rect x="109" y="50" width="9" height="1" fill="#A8C3CA" class="highcharts-point"></rect><rect x="120" y="50" width="9" height="0" fill="#A8C3CA" class="highcharts-point"></rect><rect x="131" y="50" width="9" height="0" fill="#A8C3CA" class="highcharts-point"></rect><rect x="142" y="46" width="9" height="1" fill="#A8C3CA" class="highcharts-point"></rect><rect x="153" y="44" width="9" height="0" fill="#A8C3CA" class="highcharts-point"></rect><rect x="163" y="45" width="9" height="0" fill="#A8C3CA" class="highcharts-point"></rect><rect x="174" y="44" width="9" height="1" fill="#A8C3CA" class="highcharts-point"></rect><rect x="185" y="41" width="9" height="1" fill="#A8C3CA" class="highcharts-point"></rect><rect x="196" y="39" width="9" height="1" fill="#A8C3CA" class="highcharts-point"></rect><rect x="207" y="40" width="9" height="1" fill="#A8C3CA" class="highcharts-point"></rect><rect x="218" y="39" width="9" height="2" fill="#A8C3CA" class="highcharts-point"></rect><rect x="228" y="36" width="9" height="1" fill="#A8C3CA" class="highcharts-point"></rect><rect x="239" y="33" width="9" height="2" fill="#A8C3CA" class="highcharts-point"></rect><rect x="250" y="34" width="9" height="1" fill="#A8C3CA" class="highcharts-point"></rect><rect x="261" y="34" width="9" height="1" fill="#A8C3CA" class="highcharts-point"></rect><rect x="272" y="31" width="9" height="2" fill="#A8C3CA" class="highcharts-point"></rect><rect x="283" y="30" width="9" height="1" fill="#A8C3CA" class="highcharts-point"></rect><rect x="293" y="32" width="9" height="1" fill="#A8C3CA" class="highcharts-point"></rect><rect x="304" y="30" width="9" height="1" fill="#A8C3CA" class="highcharts-point"></rect><rect x="315" y="27" width="9" height="2" fill="#A8C3CA" class="highcharts-point"></rect><rect x="326" y="26" width="9" height="2" fill="#A8C3CA" class="highcharts-point"></rect><rect x="337" y="27" width="9" height="2" fill="#A8C3CA" class="highcharts-point"></rect><rect x="347" y="27" width="9" height="1" fill="#A8C3CA" class="highcharts-point"></rect><rect x="358" y="27" width="9" height="1" fill="#A8C3CA" class="highcharts-point"></rect><rect x="369" y="26" width="9" height="2" fill="#A8C3CA" class="highcharts-point"></rect><rect x="380" y="26" width="9" height="2" fill="#A8C3CA" class="highcharts-point"></rect><rect x="391" y="31" width="9" height="2" fill="#A8C3CA" class="highcharts-point"></rect><rect x="402" y="33" width="9" height="2" fill="#A8C3CA" class="highcharts-point"></rect><rect x="412" y="35" width="9" height="2" fill="#A8C3CA" class="highcharts-point"></rect><rect x="423" y="37" width="9" height="2" fill="#A8C3CA" class="highcharts-point"></rect></g><g data-z-index="0.1" class="highcharts-markers highcharts-series-1 highcharts-column-series " transform="translate(42,124) scale(1 1)" clip-path="none"></g><g data-z-index="0.1" class="highcharts-series highcharts-series-2 highcharts-column-series " transform="translate(42,124) scale(1 1)" clip-path="url(#highcharts-k3dizb5-8)"><rect x="1" y="66" width="9" height="32" fill="#DC440E" class="highcharts-point"></rect><rect x="12" y="63" width="9" height="33" fill="#DC440E" class="highcharts-point"></rect><rect x="23" y="62" width="9" height="33" fill="#DC440E" class="highcharts-point"></rect><rect x="34" y="61" width="9" height="34" fill="#DC440E" class="highcharts-point"></rect><rect x="44" y="57" width="9" height="34" fill="#DC440E" class="highcharts-point"></rect><rect x="55" y="53" width="9" height="35" fill="#DC440E" class="highcharts-point"></rect><rect x="66" y="52" width="9" height="36" fill="#DC440E" class="highcharts-point"></rect><rect x="77" y="55" width="9" height="36" fill="#DC440E" class="highcharts-point"></rect><rect x="88" y="56" width="9" height="36" fill="#DC440E" class="highcharts-point"></rect><rect x="99" y="54" width="9" height="36" fill="#DC440E" class="highcharts-point"></rect><rect x="109" y="51" width="9" height="36" fill="#DC440E" class="highcharts-point"></rect><rect x="120" y="50" width="9" height="38" fill="#DC440E" class="highcharts-point"></rect><rect x="131" y="50" width="9" height="38" fill="#DC440E" class="highcharts-point"></rect><rect x="142" y="47" width="9" height="37" fill="#DC440E" class="highcharts-point"></rect><rect x="153" y="44" width="9" height="39" fill="#DC440E" class="highcharts-point"></rect><rect x="163" y="45" width="9" height="39" fill="#DC440E" class="highcharts-point"></rect><rect x="174" y="45" width="9" height="39" fill="#DC440E" class="highcharts-point"></rect><rect x="185" y="42" width="9" height="39" fill="#DC440E" class="highcharts-point"></rect><rect x="196" y="40" width="9" height="40" fill="#DC440E" class="highcharts-point"></rect><rect x="207" y="41" width="9" height="40" fill="#DC440E" class="highcharts-point"></rect><rect x="218" y="41" width="9" height="40" fill="#DC440E" class="highcharts-point"></rect><rect x="228" y="37" width="9" height="41" fill="#DC440E" class="highcharts-point"></rect><rect x="239" y="35" width="9" height="41" fill="#DC440E" class="highcharts-point"></rect><rect x="250" y="35" width="9" height="42" fill="#DC440E" class="highcharts-point"></rect><rect x="261" y="35" width="9" height="42" fill="#DC440E" class="highcharts-point"></rect><rect x="272" y="33" width="9" height="42" fill="#DC440E" class="highcharts-point"></rect><rect x="283" y="31" width="9" height="43" fill="#DC440E" class="highcharts-point"></rect><rect x="293" y="33" width="9" height="43" fill="#DC440E" class="highcharts-point"></rect><rect x="304" y="31" width="9" height="45" fill="#DC440E" class="highcharts-point"></rect><rect x="315" y="29" width="9" height="45" fill="#DC440E" class="highcharts-point"></rect><rect x="326" y="28" width="9" height="45" fill="#DC440E" class="highcharts-point"></rect><rect x="337" y="29" width="9" height="45" fill="#DC440E" class="highcharts-point"></rect><rect x="347" y="28" width="9" height="44" fill="#DC440E" class="highcharts-point"></rect><rect x="358" y="28" width="9" height="45" fill="#DC440E" class="highcharts-point"></rect><rect x="369" y="28" width="9" height="44" fill="#DC440E" class="highcharts-point"></rect><rect x="380" y="28" width="9" height="44" fill="#DC440E" class="highcharts-point"></rect><rect x="391" y="33" width="9" height="44" fill="#DC440E" class="highcharts-point"></rect><rect x="402" y="35" width="9" height="43" fill="#DC440E" class="highcharts-point"></rect><rect x="412" y="37" width="9" height="43" fill="#DC440E" class="highcharts-point"></rect><rect x="423" y="39" width="9" height="42" fill="#DC440E" class="highcharts-point"></rect></g><g data-z-index="0.1" class="highcharts-markers highcharts-series-2 highcharts-column-series " transform="translate(42,124) scale(1 1)" clip-path="none"></g><g data-z-index="0.1" class="highcharts-series highcharts-series-3 highcharts-column-series " transform="translate(42,124) scale(1 1)" clip-path="url(#highcharts-k3dizb5-8)"><rect x="1" y="98" width="9" height="49" fill="#689199" class="highcharts-point"></rect><rect x="12" y="96" width="9" height="49" fill="#689199" class="highcharts-point"></rect><rect x="23" y="95" width="9" height="51" fill="#689199" class="highcharts-point"></rect><rect x="34" y="95" width="9" height="50" fill="#689199" class="highcharts-point"></rect><rect x="44" y="91" width="9" height="52" fill="#689199" class="highcharts-point"></rect><rect x="55" y="88" width="9" height="53" fill="#689199" class="highcharts-point"></rect><rect x="66" y="88" width="9" height="53" fill="#689199" class="highcharts-point"></rect><rect x="77" y="91" width="9" height="51" fill="#689199" class="highcharts-point"></rect><rect x="88" y="92" width="9" height="51" fill="#689199" class="highcharts-point"></rect><rect x="99" y="90" width="9" height="52" fill="#689199" class="highcharts-point"></rect><rect x="109" y="87" width="9" height="54" fill="#689199" class="highcharts-point"></rect><rect x="120" y="88" width="9" height="53" fill="#689199" class="highcharts-point"></rect><rect x="131" y="88" width="9" height="53" fill="#689199" class="highcharts-point"></rect><rect x="142" y="84" width="9" height="55" fill="#689199" class="highcharts-point"></rect><rect x="153" y="83" width="9" height="55" fill="#689199" class="highcharts-point"></rect><rect x="163" y="84" width="9" height="55" fill="#689199" class="highcharts-point"></rect><rect x="174" y="84" width="9" height="55" fill="#689199" class="highcharts-point"></rect><rect x="185" y="81" width="9" height="56" fill="#689199" class="highcharts-point"></rect><rect x="196" y="80" width="9" height="56" fill="#689199" class="highcharts-point"></rect><rect x="207" y="81" width="9" height="56" fill="#689199" class="highcharts-point"></rect><rect x="218" y="81" width="9" height="56" fill="#689199" class="highcharts-point"></rect><rect x="228" y="78" width="9" height="58" fill="#689199" class="highcharts-point"></rect><rect x="239" y="76" width="9" height="58" fill="#689199" class="highcharts-point"></rect><rect x="250" y="77" width="9" height="58" fill="#689199" class="highcharts-point"></rect><rect x="261" y="77" width="9" height="58" fill="#689199" class="highcharts-point"></rect><rect x="272" y="75" width="9" height="59" fill="#689199" class="highcharts-point"></rect><rect x="283" y="74" width="9" height="59" fill="#689199" class="highcharts-point"></rect><rect x="293" y="76" width="9" height="59" fill="#689199" class="highcharts-point"></rect><rect x="304" y="76" width="9" height="59" fill="#689199" class="highcharts-point"></rect><rect x="315" y="74" width="9" height="59" fill="#689199" class="highcharts-point"></rect><rect x="326" y="73" width="9" height="60" fill="#689199" class="highcharts-point"></rect><rect x="337" y="74" width="9" height="59" fill="#689199" class="highcharts-point"></rect><rect x="347" y="72" width="9" height="60" fill="#689199" class="highcharts-point"></rect><rect x="358" y="73" width="9" height="59" fill="#689199" class="highcharts-point"></rect><rect x="369" y="72" width="9" height="60" fill="#689199" class="highcharts-point"></rect><rect x="380" y="72" width="9" height="59" fill="#689199" class="highcharts-point"></rect><rect x="391" y="77" width="9" height="57" fill="#689199" class="highcharts-point"></rect><rect x="402" y="78" width="9" height="57" fill="#689199" class="highcharts-point"></rect><rect x="412" y="80" width="9" height="56" fill="#689199" class="highcharts-point"></rect><rect x="423" y="81" width="9" height="56" fill="#689199" class="highcharts-point"></rect></g><g data-z-index="0.1" class="highcharts-markers highcharts-series-3 highcharts-column-series " transform="translate(42,124) scale(1 1)" clip-path="none"></g><g data-z-index="0.1" class="highcharts-series highcharts-series-4 highcharts-column-series " transform="translate(42,124) scale(1 1)" clip-path="url(#highcharts-k3dizb5-8)"><rect x="1" y="147" width="9" height="37" fill="#8B2223" class="highcharts-point"></rect><rect x="12" y="145" width="9" height="38" fill="#8B2223" class="highcharts-point"></rect><rect x="23" y="146" width="9" height="38" fill="#8B2223" class="highcharts-point"></rect><rect x="34" y="145" width="9" height="38" fill="#8B2223" class="highcharts-point"></rect><rect x="44" y="143" width="9" height="39" fill="#8B2223" class="highcharts-point"></rect><rect x="55" y="141" width="9" height="39" fill="#8B2223" class="highcharts-point"></rect><rect x="66" y="141" width="9" height="39" fill="#8B2223" class="highcharts-point"></rect><rect x="77" y="142" width="9" height="39" fill="#8B2223" class="highcharts-point"></rect><rect x="88" y="143" width="9" height="39" fill="#8B2223" class="highcharts-point"></rect><rect x="99" y="142" width="9" height="39" fill="#8B2223" class="highcharts-point"></rect><rect x="109" y="141" width="9" height="39" fill="#8B2223" class="highcharts-point"></rect><rect x="120" y="141" width="9" height="40" fill="#8B2223" class="highcharts-point"></rect><rect x="131" y="141" width="9" height="40" fill="#8B2223" class="highcharts-point"></rect><rect x="142" y="139" width="9" height="41" fill="#8B2223" class="highcharts-point"></rect><rect x="153" y="138" width="9" height="41" fill="#8B2223" class="highcharts-point"></rect><rect x="163" y="139" width="9" height="40" fill="#8B2223" class="highcharts-point"></rect><rect x="174" y="139" width="9" height="41" fill="#8B2223" class="highcharts-point"></rect><rect x="185" y="137" width="9" height="41" fill="#8B2223" class="highcharts-point"></rect><rect x="196" y="136" width="9" height="42" fill="#8B2223" class="highcharts-point"></rect><rect x="207" y="137" width="9" height="41" fill="#8B2223" class="highcharts-point"></rect><rect x="218" y="137" width="9" height="42" fill="#8B2223" class="highcharts-point"></rect><rect x="228" y="136" width="9" height="41" fill="#8B2223" class="highcharts-point"></rect><rect x="239" y="134" width="9" height="42" fill="#8B2223" class="highcharts-point"></rect><rect x="250" y="135" width="9" height="41" fill="#8B2223" class="highcharts-point"></rect><rect x="261" y="135" width="9" height="42" fill="#8B2223" class="highcharts-point"></rect><rect x="272" y="134" width="9" height="42" fill="#8B2223" class="highcharts-point"></rect><rect x="283" y="133" width="9" height="42" fill="#8B2223" class="highcharts-point"></rect><rect x="293" y="135" width="9" height="42" fill="#8B2223" class="highcharts-point"></rect><rect x="304" y="135" width="9" height="42" fill="#8B2223" class="highcharts-point"></rect><rect x="315" y="133" width="9" height="43" fill="#8B2223" class="highcharts-point"></rect><rect x="326" y="133" width="9" height="42" fill="#8B2223" class="highcharts-point"></rect><rect x="337" y="133" width="9" height="43" fill="#8B2223" class="highcharts-point"></rect><rect x="347" y="132" width="9" height="43" fill="#8B2223" class="highcharts-point"></rect><rect x="358" y="132" width="9" height="43" fill="#8B2223" class="highcharts-point"></rect><rect x="369" y="132" width="9" height="43" fill="#8B2223" class="highcharts-point"></rect><rect x="380" y="131" width="9" height="44" fill="#8B2223" class="highcharts-point"></rect><rect x="391" y="134" width="9" height="43" fill="#8B2223" class="highcharts-point"></rect><rect x="402" y="135" width="9" height="42" fill="#8B2223" class="highcharts-point"></rect><rect x="412" y="136" width="9" height="42" fill="#8B2223" class="highcharts-point"></rect><rect x="423" y="137" width="9" height="41" fill="#8B2223" class="highcharts-point"></rect></g><g data-z-index="0.1" class="highcharts-markers highcharts-series-4 highcharts-column-series " transform="translate(42,124) scale(1 1)" clip-path="none"></g><g data-z-index="0.1" class="highcharts-series highcharts-series-5 highcharts-column-series " transform="translate(42,124) scale(1 1)" clip-path="url(#highcharts-k3dizb5-8)"><rect x="1" y="184" width="9" height="59" fill="#008AC3" class="highcharts-point"></rect><rect x="12" y="183" width="9" height="60" fill="#008AC3" class="highcharts-point"></rect><rect x="23" y="184" width="9" height="59" fill="#008AC3" class="highcharts-point"></rect><rect x="34" y="183" width="9" height="60" fill="#008AC3" class="highcharts-point"></rect><rect x="44" y="182" width="9" height="61" fill="#008AC3" class="highcharts-point"></rect><rect x="55" y="180" width="9" height="63" fill="#008AC3" class="highcharts-point"></rect><rect x="66" y="180" width="9" height="63" fill="#008AC3" class="highcharts-point"></rect><rect x="77" y="181" width="9" height="62" fill="#008AC3" class="highcharts-point"></rect><rect x="88" y="182" width="9" height="61" fill="#008AC3" class="highcharts-point"></rect><rect x="99" y="181" width="9" height="62" fill="#008AC3" class="highcharts-point"></rect><rect x="109" y="180" width="9" height="63" fill="#008AC3" class="highcharts-point"></rect><rect x="120" y="181" width="9" height="62" fill="#008AC3" class="highcharts-point"></rect><rect x="131" y="181" width="9" height="62" fill="#008AC3" class="highcharts-point"></rect><rect x="142" y="180" width="9" height="63" fill="#008AC3" class="highcharts-point"></rect><rect x="153" y="179" width="9" height="64" fill="#008AC3" class="highcharts-point"></rect><rect x="163" y="179" width="9" height="64" fill="#008AC3" class="highcharts-point"></rect><rect x="174" y="180" width="9" height="63" fill="#008AC3" class="highcharts-point"></rect><rect x="185" y="178" width="9" height="65" fill="#008AC3" class="highcharts-point"></rect><rect x="196" y="178" width="9" height="65" fill="#008AC3" class="highcharts-point"></rect><rect x="207" y="178" width="9" height="65" fill="#008AC3" class="highcharts-point"></rect><rect x="218" y="179" width="9" height="64" fill="#008AC3" class="highcharts-point"></rect><rect x="228" y="177" width="9" height="66" fill="#008AC3" class="highcharts-point"></rect><rect x="239" y="176" width="9" height="67" fill="#008AC3" class="highcharts-point"></rect><rect x="250" y="176" width="9" height="67" fill="#008AC3" class="highcharts-point"></rect><rect x="261" y="177" width="9" height="66" fill="#008AC3" class="highcharts-point"></rect><rect x="272" y="176" width="9" height="67" fill="#008AC3" class="highcharts-point"></rect><rect x="283" y="175" width="9" height="68" fill="#008AC3" class="highcharts-point"></rect><rect x="293" y="177" width="9" height="66" fill="#008AC3" class="highcharts-point"></rect><rect x="304" y="177" width="9" height="66" fill="#008AC3" class="highcharts-point"></rect><rect x="315" y="176" width="9" height="67" fill="#008AC3" class="highcharts-point"></rect><rect x="326" y="175" width="9" height="68" fill="#008AC3" class="highcharts-point"></rect><rect x="337" y="176" width="9" height="67" fill="#008AC3" class="highcharts-point"></rect><rect x="347" y="175" width="9" height="68" fill="#008AC3" class="highcharts-point"></rect><rect x="358" y="175" width="9" height="68" fill="#008AC3" class="highcharts-point"></rect><rect x="369" y="175" width="9" height="68" fill="#008AC3" class="highcharts-point"></rect><rect x="380" y="175" width="9" height="68" fill="#008AC3" class="highcharts-point"></rect><rect x="391" y="177" width="9" height="66" fill="#008AC3" class="highcharts-point"></rect><rect x="402" y="177" width="9" height="66" fill="#008AC3" class="highcharts-point"></rect><rect x="412" y="178" width="9" height="65" fill="#008AC3" class="highcharts-point"></rect><rect x="423" y="178" width="9" height="65" fill="#008AC3" class="highcharts-point"></rect></g><g data-z-index="0.1" class="highcharts-markers highcharts-series-5 highcharts-column-series " transform="translate(42,124) scale(1 1)" clip-path="none"></g></g><text x="10" text-anchor="start" class="highcharts-title" data-z-index="4" style="color:#000000;font-size:14px;font-weight:bold;fill:#000000;" y="21"><tspan>Grenzgänger nach Wohnort und Geschlecht</tspan></text><text x="10" text-anchor="start" class="highcharts-subtitle" data-z-index="4" style="color:#000000;font-size:12px;font-weight:normal;font-family:Arial;fill:#000000;" y="40"><tspan>Basel-Stadt</tspan></text><g class="highcharts-legend" data-z-index="7" transform="translate(34,56)"><rect fill="none" class="highcharts-legend-box" rx="0" ry="0" x="0" y="0" width="396" height="56" visibility="visible"></rect><g data-z-index="1"><g><g class="highcharts-legend-item highcharts-column-series highcharts-color-undefined highcharts-series-5" data-z-index="1" transform="translate(8,3)"><text x="21" style="color:#333333;font-size:12px;font-weight:normal;cursor:pointer;fill:#333333;" text-anchor="start" data-z-index="2" y="15"><tspan>Männer aus Frankreich</tspan></text><rect x="2" y="4" width="12" height="12" fill="#008AC3" class="highcharts-point" data-z-index="3"></rect></g><g class="highcharts-legend-item highcharts-column-series highcharts-color-undefined highcharts-series-4" data-z-index="1" transform="translate(208,3)"><text x="21" y="15" style="color:#333333;font-size:12px;font-weight:normal;cursor:pointer;fill:#333333;" text-anchor="start" data-z-index="2"><tspan>Frauen aus Frankreich</tspan></text><rect x="2" y="4" width="12" height="12" fill="#8B2223" class="highcharts-point" data-z-index="3"></rect></g><g class="highcharts-legend-item highcharts-column-series highcharts-color-undefined highcharts-series-3" data-z-index="1" transform="translate(8,18)"><text x="21" y="15" style="color:#333333;font-size:12px;font-weight:normal;cursor:pointer;fill:#333333;" text-anchor="start" data-z-index="2"><tspan>Männer aus Deutschland</tspan></text><rect x="2" y="4" width="12" height="12" fill="#689199" class="highcharts-point" data-z-index="3"></rect></g><g class="highcharts-legend-item highcharts-column-series highcharts-color-undefined highcharts-series-2" data-z-index="1" transform="translate(208,18)"><text x="21" y="15" style="color:#333333;font-size:12px;font-weight:normal;cursor:pointer;fill:#333333;" text-anchor="start" data-z-index="2"><tspan>Frauen aus Deutschland</tspan></text><rect x="2" y="4" width="12" height="12" fill="#DC440E" class="highcharts-point" data-z-index="3"></rect></g><g class="highcharts-legend-item highcharts-column-series highcharts-color-undefined highcharts-series-1" data-z-index="1" transform="translate(8,33)"><text x="21" y="15" style="color:#333333;font-size:12px;font-weight:normal;cursor:pointer;fill:#333333;" text-anchor="start" data-z-index="2"><tspan>Männer aus übrigen Ländern</tspan></text><rect x="2" y="4" width="12" height="12" fill="#A8C3CA" class="highcharts-point" data-z-index="3"></rect></g><g class="highcharts-legend-item highcharts-column-series highcharts-color-undefined highcharts-series-0" data-z-index="1" transform="translate(208,33)"><text x="21" y="15" style="color:#333333;font-size:12px;font-weight:normal;cursor:pointer;fill:#333333;" text-anchor="start" data-z-index="2"><tspan>Frauen aus übrigen Ländern</tspan></text><rect x="2" y="4" width="12" height="12" fill="#FF8028" class="highcharts-point" data-z-index="3"></rect></g></g></g></g><g class="highcharts-axis-labels highcharts-xaxis-labels " data-z-index="7"><text x="62.4125" style="color:#000000;cursor:default;font-size:11px;fill:#000000;" text-anchor="middle" transform="translate(0,0)" y="385" opacity="1">2009</text><text x="105.7125" style="color:#000000;cursor:default;font-size:11px;fill:#000000;" text-anchor="middle" transform="translate(0,0)" y="385" opacity="1">2010</text><text x="149.0125" style="color:#000000;cursor:default;font-size:11px;fill:#000000;" text-anchor="middle" transform="translate(0,0)" y="385" opacity="1">2011</text><text x="192.3125" style="color:#000000;cursor:default;font-size:11px;fill:#000000;" text-anchor="middle" transform="translate(0,0)" y="385" opacity="1">2012</text><text x="235.6125" style="color:#000000;cursor:default;font-size:11px;fill:#000000;" text-anchor="middle" transform="translate(0,0)" y="385" opacity="1">2013</text><text x="278.9125" style="color:#000000;cursor:default;font-size:11px;fill:#000000;" text-anchor="middle" transform="translate(0,0)" y="385" opacity="1">2014</text><text x="322.2125" style="color:#000000;cursor:default;font-size:11px;fill:#000000;" text-anchor="middle" transform="translate(0,0)" y="385" opacity="1">2015</text><text x="365.5125" style="color:#000000;cursor:default;font-size:11px;fill:#000000;" text-anchor="middle" transform="translate(0,0)" y="385" opacity="1">2016</text><text x="408.8125" style="color:#000000;cursor:default;font-size:11px;fill:#000000;" text-anchor="middle" transform="translate(0,0)" y="385" opacity="1">2017</text><text x="452.1125" style="color:#000000;cursor:default;font-size:11px;fill:#000000;" text-anchor="middle" transform="translate(0,0)" y="385" opacity="1">2018</text></g><g class="highcharts-axis-labels highcharts-yaxis-labels " data-z-index="7"><text x="27" style="color:#000000;cursor:default;font-size:11px;fill:#000000;" text-anchor="end" transform="translate(0,0)" y="370" opacity="1">0</text><text x="27" style="color:#000000;cursor:default;font-size:11px;fill:#000000;" text-anchor="end" transform="translate(0,0)" y="310" opacity="1">10k</text><text x="27" style="color:#000000;cursor:default;font-size:11px;fill:#000000;" text-anchor="end" transform="translate(0,0)" y="249" opacity="1">20k</text><text x="27" style="color:#000000;cursor:default;font-size:11px;fill:#000000;" text-anchor="end" transform="translate(0,0)" y="189" opacity="1">30k</text><text x="27" style="color:#000000;cursor:default;font-size:11px;fill:#000000;" text-anchor="end" transform="translate(0,0)" y="128" opacity="1">40k</text></g><g class="highcharts-axis-labels highcharts-yaxis-labels " data-z-index="7"></g><text x="10" class="highcharts-credits" text-anchor="start" data-z-index="8" style="cursor:default;color:#000000;font-size:10px;fill:#000000;" y="403"><tspan>Quelle: Bundesamt für Statistik (BFS), Grenzgängerstatistik (GGS).</tspan><tspan x="10" dy="13">Zuletzt geändert: 2019-3-25</tspan></text></svg>