<?xml version="1.0" standalone="no"?>
<!DOCTYPE svg PUBLIC "-//W3C//DTD SVG 1.1//EN" "http://www.w3.org/Graphics/SVG/1.1/DTD/svg11.dtd">
<svg xmlns:xlink="http://www.w3.org/1999/xlink" version="1.1" class="highcharts-root" style="font-family:Arial;font-size:12px;" xmlns="http://www.w3.org/2000/svg" viewBox="0 0 485 415">
  <desc>
    Created with Highstock 6.0.7
  </desc>
  <defs>
    <clipPath>
      <rect x="0" y="0" width="416" height="399" fill="none"/>
    </clipPath>
    <clipPath id="a">
      <rect x="0" y="0" width="416" height="399" fill="none"/>
    </clipPath>
  </defs>
  <rect fill="#fbfbfb" class="highcharts-background" x="0" y="0" width="485" height="600" rx="0" ry="0"/>
  <rect fill="none" class="highcharts-plot-background" x="59" y="165" width="416" height="399"/>
  <g class="highcharts-pane-group"/>
  <g class="highcharts-grid highcharts-xaxis-grid ">
    <path fill="none" class="highcharts-grid-line" d="M 63.5 165 L 63.5 564" opacity="1"/>
    <path fill="none" class="highcharts-grid-line" d="M 105.5 165 L 105.5 564" opacity="1"/>
    <path fill="none" class="highcharts-grid-line" d="M 146.5 165 L 146.5 564" opacity="1"/>
    <path fill="none" class="highcharts-grid-line" d="M 188.5 165 L 188.5 564" opacity="1"/>
    <path fill="none" class="highcharts-grid-line" d="M 230.5 165 L 230.5 564" opacity="1"/>
    <path fill="none" class="highcharts-grid-line" d="M 271.5 165 L 271.5 564" opacity="1"/>
    <path fill="none" class="highcharts-grid-line" d="M 313.5 165 L 313.5 564" opacity="1"/>
    <path fill="none" class="highcharts-grid-line" d="M 354.5 165 L 354.5 564" opacity="1"/>
    <path fill="none" class="highcharts-grid-line" d="M 396.5 165 L 396.5 564" opacity="1"/>
    <path fill="none" class="highcharts-grid-line" d="M 438.5 165 L 438.5 564" opacity="1"/>
  </g>
  <g class="highcharts-grid highcharts-yaxis-grid ">
    <path fill="none" stroke="#B9CFD7" stroke-width="0.5" class="highcharts-grid-line" d="M 59 564.25 L 475 564.25" opacity="1"/>
    <path fill="none" stroke="#B9CFD7" stroke-width="0.5" class="highcharts-grid-line" d="M 59 514.25 L 475 514.25" opacity="1"/>
    <path fill="none" stroke="#B9CFD7" stroke-width="0.5" class="highcharts-grid-line" d="M 59 464.25 L 475 464.25" opacity="1"/>
    <path fill="none" stroke="#B9CFD7" stroke-width="0.5" class="highcharts-grid-line" d="M 59 414.25 L 475 414.25" opacity="1"/>
    <path fill="none" stroke="#B9CFD7" stroke-width="0.5" class="highcharts-grid-line" d="M 59 365.25 L 475 365.25" opacity="1"/>
    <path fill="none" stroke="#B9CFD7" stroke-width="0.5" class="highcharts-grid-line" d="M 59 315.25 L 475 315.25" opacity="1"/>
    <path fill="none" stroke="#B9CFD7" stroke-width="0.5" class="highcharts-grid-line" d="M 59 265.25 L 475 265.25" opacity="1"/>
    <path fill="none" stroke="#B9CFD7" stroke-width="0.5" class="highcharts-grid-line" d="M 59 215.25 L 475 215.25" opacity="1"/>
    <path fill="none" stroke="#B9CFD7" stroke-width="0.5" class="highcharts-grid-line" d="M 59 164.75 L 475 164.75" opacity="1"/>
  </g>
  <rect fill="none" class="highcharts-plot-border" x="59" y="165" width="416" height="399"/>
  <g class="highcharts-axis highcharts-xaxis ">
    <path fill="none" class="highcharts-axis-line" stroke="#B9CFD7" stroke-width="0.5" d="M 59 564.25 L 475 564.25"/>
  </g>
  <g class="highcharts-axis highcharts-yaxis ">
    <path fill="none" class="highcharts-axis-line" d="M 59 165 L 59 564"/>
  </g>
  <g class="highcharts-series-group">
    <g class="highcharts-series highcharts-series-0 highcharts-column-series " transform="translate(59,165) scale(1 1)" clip-path="url(#a)">
      <rect x="1" y="101" width="9" height="0" fill="#E7CEE2" class="highcharts-point"/>
      <rect x="11" y="95" width="9" height="0" fill="#E7CEE2" class="highcharts-point"/>
      <rect x="22" y="101" width="9" height="0" fill="#E7CEE2" class="highcharts-point"/>
      <rect x="32" y="109" width="9" height="0" fill="#E7CEE2" class="highcharts-point"/>
      <rect x="43" y="107" width="9" height="0" fill="#E7CEE2" class="highcharts-point"/>
      <rect x="53" y="102" width="9" height="0" fill="#E7CEE2" class="highcharts-point"/>
      <rect x="63" y="101" width="9" height="1" fill="#E7CEE2" class="highcharts-point"/>
      <rect x="74" y="99" width="9" height="0" fill="#E7CEE2" class="highcharts-point"/>
      <rect x="84" y="92" width="9" height="0" fill="#E7CEE2" class="highcharts-point"/>
      <rect x="95" y="85" width="9" height="1" fill="#E7CEE2" class="highcharts-point"/>
      <rect x="105" y="85" width="9" height="0" fill="#E7CEE2" class="highcharts-point"/>
      <rect x="115" y="90" width="9" height="0" fill="#E7CEE2" class="highcharts-point"/>
      <rect x="126" y="91" width="9" height="0" fill="#E7CEE2" class="highcharts-point"/>
      <rect x="136" y="87" width="9" height="1" fill="#E7CEE2" class="highcharts-point"/>
      <rect x="147" y="82" width="9" height="0" fill="#E7CEE2" class="highcharts-point"/>
      <rect x="157" y="82" width="9" height="0" fill="#E7CEE2" class="highcharts-point"/>
      <rect x="167" y="81" width="9" height="0" fill="#E7CEE2" class="highcharts-point"/>
      <rect x="178" y="75" width="9" height="0" fill="#E7CEE2" class="highcharts-point"/>
      <rect x="188" y="71" width="9" height="1" fill="#E7CEE2" class="highcharts-point"/>
      <rect x="199" y="73" width="9" height="0" fill="#E7CEE2" class="highcharts-point"/>
      <rect x="209" y="72" width="9" height="1" fill="#E7CEE2" class="highcharts-point"/>
      <rect x="219" y="67" width="9" height="0" fill="#E7CEE2" class="highcharts-point"/>
      <rect x="230" y="63" width="9" height="0" fill="#E7CEE2" class="highcharts-point"/>
      <rect x="240" y="65" width="9" height="0" fill="#E7CEE2" class="highcharts-point"/>
      <rect x="251" y="64" width="9" height="0" fill="#E7CEE2" class="highcharts-point"/>
      <rect x="261" y="58" width="9" height="1" fill="#E7CEE2" class="highcharts-point"/>
      <rect x="271" y="54" width="9" height="0" fill="#E7CEE2" class="highcharts-point"/>
      <rect x="282" y="56" width="9" height="0" fill="#E7CEE2" class="highcharts-point"/>
      <rect x="292" y="55" width="9" height="0" fill="#E7CEE2" class="highcharts-point"/>
      <rect x="303" y="50" width="9" height="1" fill="#E7CEE2" class="highcharts-point"/>
      <rect x="313" y="48" width="9" height="0" fill="#E7CEE2" class="highcharts-point"/>
      <rect x="323" y="51" width="9" height="1" fill="#E7CEE2" class="highcharts-point"/>
      <rect x="334" y="46" width="9" height="1" fill="#E7CEE2" class="highcharts-point"/>
      <rect x="344" y="45" width="9" height="0" fill="#E7CEE2" class="highcharts-point"/>
      <rect x="355" y="42" width="9" height="1" fill="#E7CEE2" class="highcharts-point"/>
      <rect x="365" y="42" width="9" height="0" fill="#E7CEE2" class="highcharts-point"/>
      <rect x="375" y="42" width="9" height="1" fill="#E7CEE2" class="highcharts-point"/>
      <rect x="386" y="42" width="9" height="1" fill="#E7CEE2" class="highcharts-point"/>
      <rect x="396" y="42" width="9" height="0" fill="#E7CEE2" class="highcharts-point"/>
      <rect x="407" y="42" width="9" height="1" fill="#E7CEE2" class="highcharts-point"/>
    </g>
    <g class="highcharts-markers highcharts-series-0 highcharts-column-series " transform="translate(59,165) scale(1 1)" clip-path="none"/>
    <g class="highcharts-series highcharts-series-1 highcharts-column-series " transform="translate(59,165) scale(1 1)" clip-path="url(#a)">
      <rect x="1" y="101" width="9" height="1" fill="#A8C3CA" class="highcharts-point"/>
      <rect x="11" y="95" width="9" height="1" fill="#A8C3CA" class="highcharts-point"/>
      <rect x="22" y="101" width="9" height="1" fill="#A8C3CA" class="highcharts-point"/>
      <rect x="32" y="109" width="9" height="1" fill="#A8C3CA" class="highcharts-point"/>
      <rect x="43" y="107" width="9" height="1" fill="#A8C3CA" class="highcharts-point"/>
      <rect x="53" y="102" width="9" height="1" fill="#A8C3CA" class="highcharts-point"/>
      <rect x="63" y="102" width="9" height="0" fill="#A8C3CA" class="highcharts-point"/>
      <rect x="74" y="99" width="9" height="1" fill="#A8C3CA" class="highcharts-point"/>
      <rect x="84" y="92" width="9" height="1" fill="#A8C3CA" class="highcharts-point"/>
      <rect x="95" y="86" width="9" height="1" fill="#A8C3CA" class="highcharts-point"/>
      <rect x="105" y="85" width="9" height="1" fill="#A8C3CA" class="highcharts-point"/>
      <rect x="115" y="90" width="9" height="1" fill="#A8C3CA" class="highcharts-point"/>
      <rect x="126" y="91" width="9" height="1" fill="#A8C3CA" class="highcharts-point"/>
      <rect x="136" y="88" width="9" height="0" fill="#A8C3CA" class="highcharts-point"/>
      <rect x="147" y="82" width="9" height="1" fill="#A8C3CA" class="highcharts-point"/>
      <rect x="157" y="82" width="9" height="1" fill="#A8C3CA" class="highcharts-point"/>
      <rect x="167" y="81" width="9" height="1" fill="#A8C3CA" class="highcharts-point"/>
      <rect x="178" y="75" width="9" height="1" fill="#A8C3CA" class="highcharts-point"/>
      <rect x="188" y="72" width="9" height="1" fill="#A8C3CA" class="highcharts-point"/>
      <rect x="199" y="73" width="9" height="1" fill="#A8C3CA" class="highcharts-point"/>
      <rect x="209" y="73" width="9" height="1" fill="#A8C3CA" class="highcharts-point"/>
      <rect x="219" y="67" width="9" height="1" fill="#A8C3CA" class="highcharts-point"/>
      <rect x="230" y="63" width="9" height="2" fill="#A8C3CA" class="highcharts-point"/>
      <rect x="240" y="65" width="9" height="2" fill="#A8C3CA" class="highcharts-point"/>
      <rect x="251" y="64" width="9" height="2" fill="#A8C3CA" class="highcharts-point"/>
      <rect x="261" y="59" width="9" height="2" fill="#A8C3CA" class="highcharts-point"/>
      <rect x="271" y="54" width="9" height="2" fill="#A8C3CA" class="highcharts-point"/>
      <rect x="282" y="56" width="9" height="2" fill="#A8C3CA" class="highcharts-point"/>
      <rect x="292" y="55" width="9" height="2" fill="#A8C3CA" class="highcharts-point"/>
      <rect x="303" y="51" width="9" height="2" fill="#A8C3CA" class="highcharts-point"/>
      <rect x="313" y="48" width="9" height="3" fill="#A8C3CA" class="highcharts-point"/>
      <rect x="323" y="52" width="9" height="2" fill="#A8C3CA" class="highcharts-point"/>
      <rect x="334" y="47" width="9" height="2" fill="#A8C3CA" class="highcharts-point"/>
      <rect x="344" y="45" width="9" height="3" fill="#A8C3CA" class="highcharts-point"/>
      <rect x="355" y="43" width="9" height="2" fill="#A8C3CA" class="highcharts-point"/>
      <rect x="365" y="42" width="9" height="3" fill="#A8C3CA" class="highcharts-point"/>
      <rect x="375" y="43" width="9" height="2" fill="#A8C3CA" class="highcharts-point"/>
      <rect x="386" y="43" width="9" height="3" fill="#A8C3CA" class="highcharts-point"/>
      <rect x="396" y="42" width="9" height="3" fill="#A8C3CA" class="highcharts-point"/>
      <rect x="407" y="43" width="9" height="2" fill="#A8C3CA" class="highcharts-point"/>
    </g>
    <g class="highcharts-markers highcharts-series-1 highcharts-column-series " transform="translate(59,165) scale(1 1)" clip-path="none"/>
    <g class="highcharts-series highcharts-series-2 highcharts-column-series " transform="translate(59,165) scale(1 1)" clip-path="url(#a)">
      <rect x="1" y="102" width="9" height="52" fill="#B375AB" class="highcharts-point"/>
      <rect x="11" y="96" width="9" height="53" fill="#B375AB" class="highcharts-point"/>
      <rect x="22" y="102" width="9" height="52" fill="#B375AB" class="highcharts-point"/>
      <rect x="32" y="110" width="9" height="51" fill="#B375AB" class="highcharts-point"/>
      <rect x="43" y="108" width="9" height="52" fill="#B375AB" class="highcharts-point"/>
      <rect x="53" y="103" width="9" height="54" fill="#B375AB" class="highcharts-point"/>
      <rect x="63" y="102" width="9" height="55" fill="#B375AB" class="highcharts-point"/>
      <rect x="74" y="100" width="9" height="55" fill="#B375AB" class="highcharts-point"/>
      <rect x="84" y="93" width="9" height="57" fill="#B375AB" class="highcharts-point"/>
      <rect x="95" y="87" width="9" height="58" fill="#B375AB" class="highcharts-point"/>
      <rect x="105" y="86" width="9" height="58" fill="#B375AB" class="highcharts-point"/>
      <rect x="115" y="91" width="9" height="59" fill="#B375AB" class="highcharts-point"/>
      <rect x="126" y="92" width="9" height="59" fill="#B375AB" class="highcharts-point"/>
      <rect x="136" y="88" width="9" height="60" fill="#B375AB" class="highcharts-point"/>
      <rect x="147" y="83" width="9" height="61" fill="#B375AB" class="highcharts-point"/>
      <rect x="157" y="83" width="9" height="61" fill="#B375AB" class="highcharts-point"/>
      <rect x="167" y="82" width="9" height="62" fill="#B375AB" class="highcharts-point"/>
      <rect x="178" y="76" width="9" height="63" fill="#B375AB" class="highcharts-point"/>
      <rect x="188" y="73" width="9" height="63" fill="#B375AB" class="highcharts-point"/>
      <rect x="199" y="74" width="9" height="63" fill="#B375AB" class="highcharts-point"/>
      <rect x="209" y="74" width="9" height="63" fill="#B375AB" class="highcharts-point"/>
      <rect x="219" y="68" width="9" height="65" fill="#B375AB" class="highcharts-point"/>
      <rect x="230" y="65" width="9" height="66" fill="#B375AB" class="highcharts-point"/>
      <rect x="240" y="67" width="9" height="66" fill="#B375AB" class="highcharts-point"/>
      <rect x="251" y="66" width="9" height="67" fill="#B375AB" class="highcharts-point"/>
      <rect x="261" y="61" width="9" height="67" fill="#B375AB" class="highcharts-point"/>
      <rect x="271" y="56" width="9" height="69" fill="#B375AB" class="highcharts-point"/>
      <rect x="282" y="58" width="9" height="68" fill="#B375AB" class="highcharts-point"/>
      <rect x="292" y="57" width="9" height="70" fill="#B375AB" class="highcharts-point"/>
      <rect x="303" y="53" width="9" height="71" fill="#B375AB" class="highcharts-point"/>
      <rect x="313" y="51" width="9" height="71" fill="#B375AB" class="highcharts-point"/>
      <rect x="323" y="54" width="9" height="71" fill="#B375AB" class="highcharts-point"/>
      <rect x="334" y="49" width="9" height="72" fill="#B375AB" class="highcharts-point"/>
      <rect x="344" y="48" width="9" height="72" fill="#B375AB" class="highcharts-point"/>
      <rect x="355" y="45" width="9" height="73" fill="#B375AB" class="highcharts-point"/>
      <rect x="365" y="45" width="9" height="73" fill="#B375AB" class="highcharts-point"/>
      <rect x="375" y="45" width="9" height="73" fill="#B375AB" class="highcharts-point"/>
      <rect x="386" y="46" width="9" height="72" fill="#B375AB" class="highcharts-point"/>
      <rect x="396" y="45" width="9" height="72" fill="#B375AB" class="highcharts-point"/>
      <rect x="407" y="45" width="9" height="73" fill="#B375AB" class="highcharts-point"/>
    </g>
    <g class="highcharts-markers highcharts-series-2 highcharts-column-series " transform="translate(59,165) scale(1 1)" clip-path="none"/>
    <g class="highcharts-series highcharts-series-3 highcharts-column-series " transform="translate(59,165) scale(1 1)" clip-path="url(#a)">
      <rect x="1" y="154" width="9" height="81" fill="#689199" class="highcharts-point"/>
      <rect x="11" y="149" width="9" height="85" fill="#689199" class="highcharts-point"/>
      <rect x="22" y="154" width="9" height="85" fill="#689199" class="highcharts-point"/>
      <rect x="32" y="161" width="9" height="81" fill="#689199" class="highcharts-point"/>
      <rect x="43" y="160" width="9" height="81" fill="#689199" class="highcharts-point"/>
      <rect x="53" y="157" width="9" height="82" fill="#689199" class="highcharts-point"/>
      <rect x="63" y="157" width="9" height="83" fill="#689199" class="highcharts-point"/>
      <rect x="74" y="155" width="9" height="83" fill="#689199" class="highcharts-point"/>
      <rect x="84" y="150" width="9" height="85" fill="#689199" class="highcharts-point"/>
      <rect x="95" y="145" width="9" height="87" fill="#689199" class="highcharts-point"/>
      <rect x="105" y="144" width="9" height="88" fill="#689199" class="highcharts-point"/>
      <rect x="115" y="150" width="9" height="84" fill="#689199" class="highcharts-point"/>
      <rect x="126" y="151" width="9" height="84" fill="#689199" class="highcharts-point"/>
      <rect x="136" y="148" width="9" height="86" fill="#689199" class="highcharts-point"/>
      <rect x="147" y="144" width="9" height="87" fill="#689199" class="highcharts-point"/>
      <rect x="157" y="144" width="9" height="88" fill="#689199" class="highcharts-point"/>
      <rect x="167" y="144" width="9" height="88" fill="#689199" class="highcharts-point"/>
      <rect x="178" y="139" width="9" height="89" fill="#689199" class="highcharts-point"/>
      <rect x="188" y="136" width="9" height="91" fill="#689199" class="highcharts-point"/>
      <rect x="199" y="137" width="9" height="91" fill="#689199" class="highcharts-point"/>
      <rect x="209" y="137" width="9" height="91" fill="#689199" class="highcharts-point"/>
      <rect x="219" y="133" width="9" height="92" fill="#689199" class="highcharts-point"/>
      <rect x="230" y="131" width="9" height="93" fill="#689199" class="highcharts-point"/>
      <rect x="240" y="133" width="9" height="93" fill="#689199" class="highcharts-point"/>
      <rect x="251" y="133" width="9" height="93" fill="#689199" class="highcharts-point"/>
      <rect x="261" y="128" width="9" height="95" fill="#689199" class="highcharts-point"/>
      <rect x="271" y="125" width="9" height="96" fill="#689199" class="highcharts-point"/>
      <rect x="282" y="126" width="9" height="96" fill="#689199" class="highcharts-point"/>
      <rect x="292" y="127" width="9" height="96" fill="#689199" class="highcharts-point"/>
      <rect x="303" y="124" width="9" height="97" fill="#689199" class="highcharts-point"/>
      <rect x="313" y="122" width="9" height="97" fill="#689199" class="highcharts-point"/>
      <rect x="323" y="125" width="9" height="97" fill="#689199" class="highcharts-point"/>
      <rect x="334" y="121" width="9" height="98" fill="#689199" class="highcharts-point"/>
      <rect x="344" y="120" width="9" height="98" fill="#689199" class="highcharts-point"/>
      <rect x="355" y="118" width="9" height="98" fill="#689199" class="highcharts-point"/>
      <rect x="365" y="118" width="9" height="98" fill="#689199" class="highcharts-point"/>
      <rect x="375" y="118" width="9" height="97" fill="#689199" class="highcharts-point"/>
      <rect x="386" y="118" width="9" height="98" fill="#689199" class="highcharts-point"/>
      <rect x="396" y="117" width="9" height="98" fill="#689199" class="highcharts-point"/>
      <rect x="407" y="118" width="9" height="97" fill="#689199" class="highcharts-point"/>
    </g>
    <g class="highcharts-markers highcharts-series-3 highcharts-column-series " transform="translate(59,165) scale(1 1)" clip-path="none"/>
    <g class="highcharts-series highcharts-series-4 highcharts-column-series " transform="translate(59,165) scale(1 1)" clip-path="url(#a)">
      <rect x="1" y="235" width="9" height="64" fill="#662673" class="highcharts-point"/>
      <rect x="11" y="234" width="9" height="65" fill="#662673" class="highcharts-point"/>
      <rect x="22" y="239" width="9" height="61" fill="#662673" class="highcharts-point"/>
      <rect x="32" y="242" width="9" height="61" fill="#662673" class="highcharts-point"/>
      <rect x="43" y="241" width="9" height="61" fill="#662673" class="highcharts-point"/>
      <rect x="53" y="239" width="9" height="63" fill="#662673" class="highcharts-point"/>
      <rect x="63" y="240" width="9" height="62" fill="#662673" class="highcharts-point"/>
      <rect x="74" y="238" width="9" height="63" fill="#662673" class="highcharts-point"/>
      <rect x="84" y="235" width="9" height="64" fill="#662673" class="highcharts-point"/>
      <rect x="95" y="232" width="9" height="65" fill="#662673" class="highcharts-point"/>
      <rect x="105" y="232" width="9" height="65" fill="#662673" class="highcharts-point"/>
      <rect x="115" y="234" width="9" height="64" fill="#662673" class="highcharts-point"/>
      <rect x="126" y="235" width="9" height="65" fill="#662673" class="highcharts-point"/>
      <rect x="136" y="234" width="9" height="64" fill="#662673" class="highcharts-point"/>
      <rect x="147" y="231" width="9" height="65" fill="#662673" class="highcharts-point"/>
      <rect x="157" y="232" width="9" height="66" fill="#662673" class="highcharts-point"/>
      <rect x="167" y="232" width="9" height="66" fill="#662673" class="highcharts-point"/>
      <rect x="178" y="228" width="9" height="68" fill="#662673" class="highcharts-point"/>
      <rect x="188" y="227" width="9" height="67" fill="#662673" class="highcharts-point"/>
      <rect x="199" y="228" width="9" height="67" fill="#662673" class="highcharts-point"/>
      <rect x="209" y="228" width="9" height="67" fill="#662673" class="highcharts-point"/>
      <rect x="219" y="225" width="9" height="68" fill="#662673" class="highcharts-point"/>
      <rect x="230" y="224" width="9" height="68" fill="#662673" class="highcharts-point"/>
      <rect x="240" y="226" width="9" height="68" fill="#662673" class="highcharts-point"/>
      <rect x="251" y="226" width="9" height="68" fill="#662673" class="highcharts-point"/>
      <rect x="261" y="223" width="9" height="68" fill="#662673" class="highcharts-point"/>
      <rect x="271" y="221" width="9" height="68" fill="#662673" class="highcharts-point"/>
      <rect x="282" y="222" width="9" height="68" fill="#662673" class="highcharts-point"/>
      <rect x="292" y="223" width="9" height="68" fill="#662673" class="highcharts-point"/>
      <rect x="303" y="221" width="9" height="68" fill="#662673" class="highcharts-point"/>
      <rect x="313" y="219" width="9" height="70" fill="#662673" class="highcharts-point"/>
      <rect x="323" y="222" width="9" height="69" fill="#662673" class="highcharts-point"/>
      <rect x="334" y="219" width="9" height="70" fill="#662673" class="highcharts-point"/>
      <rect x="344" y="218" width="9" height="70" fill="#662673" class="highcharts-point"/>
      <rect x="355" y="216" width="9" height="71" fill="#662673" class="highcharts-point"/>
      <rect x="365" y="216" width="9" height="71" fill="#662673" class="highcharts-point"/>
      <rect x="375" y="215" width="9" height="72" fill="#662673" class="highcharts-point"/>
      <rect x="386" y="216" width="9" height="71" fill="#662673" class="highcharts-point"/>
      <rect x="396" y="215" width="9" height="72" fill="#662673" class="highcharts-point"/>
      <rect x="407" y="215" width="9" height="72" fill="#662673" class="highcharts-point"/>
    </g>
    <g class="highcharts-markers highcharts-series-4 highcharts-column-series " transform="translate(59,165) scale(1 1)" clip-path="none"/>
    <g class="highcharts-series highcharts-series-5 highcharts-column-series " transform="translate(59,165) scale(1 1)" clip-path="url(#a)">
      <rect x="1" y="299" width="9" height="101" fill="#008AC3" class="highcharts-point"/>
      <rect x="11" y="299" width="9" height="101" fill="#008AC3" class="highcharts-point"/>
      <rect x="22" y="300" width="9" height="100" fill="#008AC3" class="highcharts-point"/>
      <rect x="32" y="303" width="9" height="97" fill="#008AC3" class="highcharts-point"/>
      <rect x="43" y="302" width="9" height="98" fill="#008AC3" class="highcharts-point"/>
      <rect x="53" y="302" width="9" height="98" fill="#008AC3" class="highcharts-point"/>
      <rect x="63" y="302" width="9" height="98" fill="#008AC3" class="highcharts-point"/>
      <rect x="74" y="301" width="9" height="99" fill="#008AC3" class="highcharts-point"/>
      <rect x="84" y="299" width="9" height="101" fill="#008AC3" class="highcharts-point"/>
      <rect x="95" y="297" width="9" height="103" fill="#008AC3" class="highcharts-point"/>
      <rect x="105" y="297" width="9" height="103" fill="#008AC3" class="highcharts-point"/>
      <rect x="115" y="298" width="9" height="102" fill="#008AC3" class="highcharts-point"/>
      <rect x="126" y="300" width="9" height="100" fill="#008AC3" class="highcharts-point"/>
      <rect x="136" y="298" width="9" height="102" fill="#008AC3" class="highcharts-point"/>
      <rect x="147" y="296" width="9" height="104" fill="#008AC3" class="highcharts-point"/>
      <rect x="157" y="298" width="9" height="102" fill="#008AC3" class="highcharts-point"/>
      <rect x="167" y="298" width="9" height="102" fill="#008AC3" class="highcharts-point"/>
      <rect x="178" y="296" width="9" height="104" fill="#008AC3" class="highcharts-point"/>
      <rect x="188" y="294" width="9" height="106" fill="#008AC3" class="highcharts-point"/>
      <rect x="199" y="295" width="9" height="105" fill="#008AC3" class="highcharts-point"/>
      <rect x="209" y="295" width="9" height="105" fill="#008AC3" class="highcharts-point"/>
      <rect x="219" y="293" width="9" height="107" fill="#008AC3" class="highcharts-point"/>
      <rect x="230" y="292" width="9" height="108" fill="#008AC3" class="highcharts-point"/>
      <rect x="240" y="294" width="9" height="106" fill="#008AC3" class="highcharts-point"/>
      <rect x="251" y="294" width="9" height="106" fill="#008AC3" class="highcharts-point"/>
      <rect x="261" y="291" width="9" height="109" fill="#008AC3" class="highcharts-point"/>
      <rect x="271" y="289" width="9" height="111" fill="#008AC3" class="highcharts-point"/>
      <rect x="282" y="290" width="9" height="110" fill="#008AC3" class="highcharts-point"/>
      <rect x="292" y="291" width="9" height="109" fill="#008AC3" class="highcharts-point"/>
      <rect x="303" y="289" width="9" height="111" fill="#008AC3" class="highcharts-point"/>
      <rect x="313" y="289" width="9" height="111" fill="#008AC3" class="highcharts-point"/>
      <rect x="323" y="291" width="9" height="109" fill="#008AC3" class="highcharts-point"/>
      <rect x="334" y="289" width="9" height="111" fill="#008AC3" class="highcharts-point"/>
      <rect x="344" y="288" width="9" height="112" fill="#008AC3" class="highcharts-point"/>
      <rect x="355" y="287" width="9" height="113" fill="#008AC3" class="highcharts-point"/>
      <rect x="365" y="287" width="9" height="113" fill="#008AC3" class="highcharts-point"/>
      <rect x="375" y="287" width="9" height="113" fill="#008AC3" class="highcharts-point"/>
      <rect x="386" y="287" width="9" height="113" fill="#008AC3" class="highcharts-point"/>
      <rect x="396" y="287" width="9" height="113" fill="#008AC3" class="highcharts-point"/>
      <rect x="407" y="287" width="9" height="113" fill="#008AC3" class="highcharts-point"/>
    </g>
    <g class="highcharts-markers highcharts-series-5 highcharts-column-series " transform="translate(59,165) scale(1 1)" clip-path="none"/>
  </g>
  <text x="10" text-anchor="start" class="highcharts-title" style="color:#000000;font-size:14px;font-weight:bold;fill:#000000;" y="21">
    <tspan>Grenzgänger nach Wohnort und Geschlecht</tspan>
  </text>
  <text x="10" text-anchor="start" class="highcharts-subtitle" style="color:#000000;font-size:12px;font-weight:normal;font-family:Arial;fill:#000000;" y="40">
    <tspan>Bestand Ende Quartal, Basel-Stadt</tspan>
  </text>
  <g class="highcharts-legend" transform="translate(51,100)">
    <rect fill="none" class="highcharts-legend-box" rx="0" ry="0" x="0" y="0" width="396" height="53" visibility="visible"/>
    <g>
      <g>
        <g class="highcharts-legend-item highcharts-column-series highcharts-color-undefined highcharts-series-5" transform="translate(8,3)">
          <text x="21" style="color:#333333;font-size:12px;font-weight:normal;cursor:pointer;fill:#333333;" text-anchor="start" y="15">
            <tspan>Männer aus Frankreich</tspan>
          </text>
          <rect x="2" y="4" width="12" height="12" fill="#008AC3" class="highcharts-point"/>
        </g>
        <g class="highcharts-legend-item highcharts-column-series highcharts-color-undefined highcharts-series-4" transform="translate(208,3)">
          <text x="21" y="15" style="color:#333333;font-size:12px;font-weight:normal;cursor:pointer;fill:#333333;" text-anchor="start">
            <tspan>Frauen aus Frankreich</tspan>
          </text>
          <rect x="2" y="4" width="12" height="12" fill="#662673" class="highcharts-point"/>
        </g>
        <g class="highcharts-legend-item highcharts-column-series highcharts-color-undefined highcharts-series-3" transform="translate(8,17)">
          <text x="21" y="15" style="color:#333333;font-size:12px;font-weight:normal;cursor:pointer;fill:#333333;" text-anchor="start">
            <tspan>Männer aus Deutschland</tspan>
          </text>
          <rect x="2" y="4" width="12" height="12" fill="#689199" class="highcharts-point"/>
        </g>
        <g class="highcharts-legend-item highcharts-column-series highcharts-color-undefined highcharts-series-2" transform="translate(208,17)">
          <text x="21" y="15" style="color:#333333;font-size:12px;font-weight:normal;cursor:pointer;fill:#333333;" text-anchor="start">
            <tspan>Frauen aus Deutschland</tspan>
          </text>
          <rect x="2" y="4" width="12" height="12" fill="#B375AB" class="highcharts-point"/>
        </g>
        <g class="highcharts-legend-item highcharts-column-series highcharts-color-undefined highcharts-series-1" transform="translate(8,31)">
          <text x="21" y="15" style="color:#333333;font-size:12px;font-weight:normal;cursor:pointer;fill:#333333;" text-anchor="start">
            <tspan>Männer aus übrigen Ländern</tspan>
          </text>
          <rect x="2" y="4" width="12" height="12" fill="#A8C3CA" class="highcharts-point"/>
        </g>
        <g class="highcharts-legend-item highcharts-column-series highcharts-color-undefined highcharts-series-0" transform="translate(208,31)">
          <text x="21" y="15" style="color:#333333;font-size:12px;font-weight:normal;cursor:pointer;fill:#333333;" text-anchor="start">
            <tspan>Frauen aus übrigen Ländern</tspan>
          </text>
          <rect x="2" y="4" width="12" height="12" fill="#E7CEE2" class="highcharts-point"/>
        </g>
      </g>
    </g>
  </g>
  <g class="highcharts-axis-labels highcharts-xaxis-labels ">
    <text x="64.2" style="color:#000000;cursor:default;font-size:11px;fill:#000000;" text-anchor="middle" transform="translate(0,0)" y="583" opacity="1">
      2008
    </text>
    <text x="105.8" style="color:#000000;cursor:default;font-size:11px;fill:#000000;" text-anchor="middle" transform="translate(0,0)" y="583" opacity="1">
      2009
    </text>
    <text x="147.4" style="color:#000000;cursor:default;font-size:11px;fill:#000000;" text-anchor="middle" transform="translate(0,0)" y="583" opacity="1">
      2010
    </text>
    <text x="189" style="color:#000000;cursor:default;font-size:11px;fill:#000000;" text-anchor="middle" transform="translate(0,0)" y="583" opacity="1">
      2011
    </text>
    <text x="230.6" style="color:#000000;cursor:default;font-size:11px;fill:#000000;" text-anchor="middle" transform="translate(0,0)" y="583" opacity="1">
      2012
    </text>
    <text x="272.2" style="color:#000000;cursor:default;font-size:11px;fill:#000000;" text-anchor="middle" transform="translate(0,0)" y="583" opacity="1">
      2013
    </text>
    <text x="313.8" style="color:#000000;cursor:default;font-size:11px;fill:#000000;" text-anchor="middle" transform="translate(0,0)" y="583" opacity="1">
      2014
    </text>
    <text x="355.4" style="color:#000000;cursor:default;font-size:11px;fill:#000000;" text-anchor="middle" transform="translate(0,0)" y="583" opacity="1">
      2015
    </text>
    <text x="397" style="color:#000000;cursor:default;font-size:11px;fill:#000000;" text-anchor="middle" transform="translate(0,0)" y="583" opacity="1">
      2016
    </text>
    <text x="438.6" style="color:#000000;cursor:default;font-size:11px;fill:#000000;" text-anchor="middle" transform="translate(0,0)" y="583" opacity="1">
      2017
    </text>
  </g>
  <g class="highcharts-axis-labels highcharts-yaxis-labels ">
    <text x="44" style="color:#000000;cursor:default;font-size:11px;fill:#000000;" text-anchor="end" transform="translate(0,0)" y="569" opacity="1">
      0
    </text>
    <text x="44" style="color:#000000;cursor:default;font-size:11px;fill:#000000;" text-anchor="end" transform="translate(0,0)" y="519" opacity="1">
      <tspan>5 000</tspan>
    </text>
    <text x="44" style="color:#000000;cursor:default;font-size:11px;fill:#000000;" text-anchor="end" transform="translate(0,0)" y="469" opacity="1">
      <tspan>10 000</tspan>
    </text>
    <text x="44" style="color:#000000;cursor:default;font-size:11px;fill:#000000;" text-anchor="end" transform="translate(0,0)" y="419" opacity="1">
      <tspan>15 000</tspan>
    </text>
    <text x="44" style="color:#000000;cursor:default;font-size:11px;fill:#000000;" text-anchor="end" transform="translate(0,0)" y="369" opacity="1">
      <tspan>20 000</tspan>
    </text>
    <text x="44" style="color:#000000;cursor:default;font-size:11px;fill:#000000;" text-anchor="end" transform="translate(0,0)" y="319" opacity="1">
      <tspan>25 000</tspan>
    </text>
    <text x="44" style="color:#000000;cursor:default;font-size:11px;fill:#000000;" text-anchor="end" transform="translate(0,0)" y="269" opacity="1">
      <tspan>30 000</tspan>
    </text>
    <text x="44" style="color:#000000;cursor:default;font-size:11px;fill:#000000;" text-anchor="end" transform="translate(0,0)" y="219" opacity="1">
      <tspan>35 000</tspan>
    </text>
    <text x="44" style="color:#000000;cursor:default;font-size:11px;fill:#000000;" text-anchor="end" transform="translate(0,0)" y="170" opacity="1">
      <tspan>40 000</tspan>
    </text>
  </g>
  <text x="10" class="highcharts-credits" text-anchor="start" style="cursor:default;color:#000000;font-size:10px;fill:#000000;" y="585">
    <tspan>Quelle: Bundesamt für Statistik (BFS), Grenzgängerstatistik (GGS)</tspan>
  </text>
</svg>
