<?xml version="1.0" standalone="no"?><!DOCTYPE svg PUBLIC "-//W3C//DTD SVG 1.1//EN" "http://www.w3.org/Graphics/SVG/1.1/DTD/svg11.dtd"><svg xmlns:xlink="http://www.w3.org/1999/xlink" version="1.1" class="highcharts-root" style="font-family:Arial;font-size:12px;" xmlns="http://www.w3.org/2000/svg" viewBox="0 0 485 415"><desc>Created with Highstock 6.1.1</desc><defs><clipPath id="highcharts-vnjhp38-6"><rect x="0" y="0" width="416" height="266" fill="none"></rect></clipPath><clipPath id="highcharts-vnjhp38-7"><rect x="0" y="0" width="416" height="266" fill="none"></rect></clipPath></defs><rect fill="#fbfbfb" class="highcharts-background" x="0" y="0" width="485" height="415" rx="0" ry="0"></rect><rect fill="none" class="highcharts-plot-background" x="59" y="83" width="416" height="266"></rect><g class="highcharts-pane-group" data-z-index="0"></g><g class="highcharts-grid highcharts-xaxis-grid " data-z-index="1"><path fill="none" data-z-index="1" class="highcharts-grid-line" d="M 63.5 83 L 63.5 349" opacity="1"></path><path fill="none" data-z-index="1" class="highcharts-grid-line" d="M 106.5 83 L 106.5 349" opacity="1"></path><path fill="none" data-z-index="1" class="highcharts-grid-line" d="M 149.5 83 L 149.5 349" opacity="1"></path><path fill="none" data-z-index="1" class="highcharts-grid-line" d="M 191.5 83 L 191.5 349" opacity="1"></path><path fill="none" data-z-index="1" class="highcharts-grid-line" d="M 234.5 83 L 234.5 349" opacity="1"></path><path fill="none" data-z-index="1" class="highcharts-grid-line" d="M 277.5 83 L 277.5 349" opacity="1"></path><path fill="none" data-z-index="1" class="highcharts-grid-line" d="M 319.5 83 L 319.5 349" opacity="1"></path><path fill="none" data-z-index="1" class="highcharts-grid-line" d="M 362.5 83 L 362.5 349" opacity="1"></path><path fill="none" data-z-index="1" class="highcharts-grid-line" d="M 405.5 83 L 405.5 349" opacity="1"></path><path fill="none" data-z-index="1" class="highcharts-grid-line" d="M 447.5 83 L 447.5 349" opacity="1"></path></g><g class="highcharts-grid highcharts-yaxis-grid " data-z-index="1"><path fill="none" stroke="#B9CFD7" stroke-width="0.5" data-z-index="1" class="highcharts-grid-line" d="M 59 349.25 L 475 349.25" opacity="1"></path><path fill="none" stroke="#B9CFD7" stroke-width="0.5" data-z-index="1" class="highcharts-grid-line" d="M 59 283.25 L 475 283.25" opacity="1"></path><path fill="none" stroke="#B9CFD7" stroke-width="0.5" data-z-index="1" class="highcharts-grid-line" d="M 59 216.25 L 475 216.25" opacity="1"></path><path fill="none" stroke="#B9CFD7" stroke-width="0.5" data-z-index="1" class="highcharts-grid-line" d="M 59 150.25 L 475 150.25" opacity="1"></path><path fill="none" stroke="#B9CFD7" stroke-width="0.5" data-z-index="1" class="highcharts-grid-line" d="M 59 82.75 L 475 82.75" opacity="1"></path></g><rect fill="none" class="highcharts-plot-border" data-z-index="1" x="59" y="83" width="416" height="266"></rect><g class="highcharts-axis highcharts-xaxis " data-z-index="2"><path fill="none" class="highcharts-axis-line" stroke="#B9CFD7" stroke-width="0.5" data-z-index="7" d="M 59 349.25 L 475 349.25"></path></g><g class="highcharts-axis highcharts-yaxis " data-z-index="2"><path fill="none" class="highcharts-axis-line" data-z-index="7" d="M 59 83 L 59 349"></path></g><g class="highcharts-series-group" data-z-index="3"><g data-z-index="0.1" class="highcharts-series highcharts-series-0 highcharts-line-series " transform="translate(59,83) scale(1 1)" clip-path="url(#highcharts-vnjhp38-7)"><path fill="none" d="M 5.3333333333333 70.71610000000001 L 16 67.4975 L 26.666666666667 66.94555 L 37.333333333333 65.54240000000001 L 48 60.74110000000002 L 58.666666666667 56.15260000000001 L 69.333333333333 55.81345000000002 L 80 59.25150000000002 L 90.666666666667 60.16255000000001 L 101.33333333333 57.50920000000002 L 112 54.07115000000002 L 122.66666666667 53.678800000000024 L 133.33333333333 53.21995000000001 L 144 49.37625 L 154.66666666667 46.875850000000014 L 165.33333333333 47.880000000000024 L 176 47.46105 L 186.66666666667 43.87005000000002 L 197.33333333333 41.40290000000002 L 208 42.54005000000001 L 218.66666666667 42.04130000000001 L 229.33333333333 38.224200000000025 L 240 35.3647 L 250.66666666667 36.34225000000001 L 261.33333333333 35.810250000000025 L 272 32.77785 L 282.66666666667 31.40130000000002 L 293.33333333333 33.595800000000025 L 304 31.361400000000003 L 314.66666666667 28.309050000000013 L 325.33333333333 27.04555000000002 L 336 28.335650000000015 L 346.66666666667 27.564250000000015 L 357.33333333333 27.836900000000014 L 368 27.38470000000001 L 378.66666666667 27.41795000000002 L 389.33333333333 32.84435000000002 L 400 34.8194 L 410.66666666667 37.10035000000002" class="highcharts-graph" data-z-index="1" stroke="#6F6F6F" stroke-width="2" stroke-linejoin="round" stroke-linecap="round"></path></g><g data-z-index="0.1" class="highcharts-markers highcharts-series-0 highcharts-line-series " transform="translate(59,83) scale(1 1)" clip-path="none"></g><g data-z-index="0.1" class="highcharts-series highcharts-series-1 highcharts-line-series " transform="translate(59,83) scale(1 1)" clip-path="url(#highcharts-vnjhp38-7)"><path fill="none" d="M 5.3333333333333 148.75385 L 16 146.4995 L 26.666666666667 145.5818 L 37.333333333333 146.90515 L 48 144.5577 L 58.666666666667 142.5095 L 69.333333333333 142.5494 L 80 144.16535 L 90.666666666667 143.24765000000002 L 101.33333333333 141.77135 L 112 140.34825 L 122.66666666667 141.68490000000003 L 133.33333333333 141.42555 L 144 139.86945 L 154.66666666667 139.48375 L 165.33333333333 140.5544 L 176 141.82455 L 186.66666666667 140.25515000000001 L 197.33333333333 139.39065 L 208 138.56605000000002 L 218.66666666667 138.054 L 229.33333333333 136.11885 L 240 134.05735 L 250.66666666667 134.38320000000002 L 261.33333333333 133.7182 L 272 131.4173 L 282.66666666667 129.9144 L 293.33333333333 129.92770000000002 L 304 130.207 L 314.66666666667 128.85705000000002 L 325.33333333333 127.61350000000002 L 336 128.40485 L 346.66666666667 127.33420000000001 L 357.33333333333 126.86870000000002 L 368 124.85375000000002 L 378.66666666667 124.56115 L 389.33333333333 124.59440000000001 L 400 123.36415 L 410.66666666667 122.7723" class="highcharts-graph" data-z-index="1" stroke="#FF8028" stroke-width="2" stroke-linejoin="round" stroke-linecap="round"></path></g><g data-z-index="0.1" class="highcharts-markers highcharts-series-1 highcharts-line-series " transform="translate(59,83) scale(1 1)" clip-path="none"></g><g data-z-index="0.1" class="highcharts-series highcharts-series-2 highcharts-line-series " transform="translate(59,83) scale(1 1)" clip-path="url(#highcharts-vnjhp38-7)"><path fill="none" d="M 5.3333333333333 203.12425000000002 L 16 201.1891 L 26.666666666667 200.73025 L 37.333333333333 199.37365 L 48 196.95305000000002 L 58.666666666667 194.48590000000002 L 69.333333333333 193.5017 L 80 194.845 L 90.666666666667 194.00045 L 101.33333333333 192.65050000000002 L 112 190.85500000000002 L 122.66666666667 190.60895 L 133.33333333333 189.0462 L 144 187.1576 L 154.66666666667 185.6148 L 165.33333333333 185.67464999999999 L 176 185.0961 L 186.66666666667 183.38705 L 197.33333333333 182.07035000000002 L 208 181.4253 L 218.66666666667 180.7869 L 229.33333333333 179.30395 L 240 177.7545 L 250.66666666667 177.94735 L 261.33333333333 178.00055 L 272 177.37545 L 282.66666666667 175.63315 L 293.33333333333 175.9856 L 304 174.9615 L 314.66666666667 173.3522 L 325.33333333333 172.767 L 336 173.0995 L 346.66666666667 172.83350000000002 L 357.33333333333 172.28155 L 368 172.29485 L 378.66666666667 172.05545 L 389.33333333333 173.8044 L 400 175.3206 L 410.66666666667 175.97895" class="highcharts-graph" data-z-index="1" stroke="#A8C3CA" stroke-width="2" stroke-linejoin="round" stroke-linecap="round"></path></g><g data-z-index="0.1" class="highcharts-markers highcharts-series-2 highcharts-line-series " transform="translate(59,83) scale(1 1)" clip-path="none"></g><g data-z-index="0.1" class="highcharts-series highcharts-series-3 highcharts-line-series " transform="translate(59,83) scale(1 1)" clip-path="url(#highcharts-vnjhp38-7)"><path fill="none" d="M 5.3333333333333 229.07255 L 16 228.0418 L 26.666666666667 227.829 L 37.333333333333 227.2837 L 48 226.233 L 58.666666666667 224.637 L 69.333333333333 223.85895 L 80 223.63285000000002 L 90.666666666667 222.70185 L 101.33333333333 221.18565 L 112 219.9687 L 122.66666666667 219.1441 L 133.33333333333 217.76755 L 144 216.38435 L 154.66666666667 214.90805 L 165.33333333333 214.62875 L 176 213.2256 L 186.66666666667 211.64955 L 197.33333333333 210.273 L 208 210.08015 L 218.66666666667 209.1159 L 229.33333333333 208.0386 L 240 207.1475 L 250.66666666667 206.815 L 261.33333333333 205.98375 L 272 204.8732 L 282.66666666667 203.81585 L 293.33333333333 203.72275000000002 L 304 202.3994 L 314.66666666667 201.91395 L 325.33333333333 200.8699 L 336 200.5906 L 346.66666666667 200.07855 L 357.33333333333 199.33375 L 368 198.48919999999998 L 378.66666666667 198.36285 L 389.33333333333 198.05695 L 400 197.8375 L 410.66666666667 197.7976" class="highcharts-graph" data-z-index="1" stroke="#008AC3" stroke-width="2" stroke-linejoin="round" stroke-linecap="round"></path></g><g data-z-index="0.1" class="highcharts-markers highcharts-series-3 highcharts-line-series " transform="translate(59,83) scale(1 1)" clip-path="none"></g></g><text x="10" text-anchor="start" class="highcharts-title" data-z-index="4" style="color:#000000;font-size:14px;font-weight:bold;fill:#000000;" y="21"><tspan>Grenzgänger nach Kanton</tspan></text><text x="10" text-anchor="start" class="highcharts-subtitle" data-z-index="4" style="color:#000000;font-size:12px;font-weight:normal;font-family:Arial;fill:#000000;" y="40"></text><g class="highcharts-legend" data-z-index="7" transform="translate(51,41)"><rect fill="none" class="highcharts-legend-box" rx="0" ry="0" x="0" y="0" width="223" height="30" visibility="visible"></rect><g data-z-index="1"><g><g class="highcharts-legend-item highcharts-line-series highcharts-color-undefined highcharts-series-0" data-z-index="1" transform="translate(8,3)"><path fill="none" d="M 0 11 L 16 11" class="highcharts-graph" stroke="#6F6F6F" stroke-width="2"></path><text x="21" style="color:#333333;font-size:12px;font-weight:normal;cursor:pointer;fill:#333333;" text-anchor="start" data-z-index="2" y="15"><tspan>BS</tspan></text></g><g class="highcharts-legend-item highcharts-line-series highcharts-color-undefined highcharts-series-1" data-z-index="1" transform="translate(65,3)"><path fill="none" d="M 0 11 L 16 11" class="highcharts-graph" stroke="#FF8028" stroke-width="2"></path><text x="21" y="15" style="color:#333333;font-size:12px;font-weight:normal;cursor:pointer;fill:#333333;" text-anchor="start" data-z-index="2"><tspan>BL</tspan></text></g><g class="highcharts-legend-item highcharts-line-series highcharts-color-undefined highcharts-series-2" data-z-index="1" transform="translate(120.671875,3)"><path fill="none" d="M 0 11 L 16 11" class="highcharts-graph" stroke="#A8C3CA" stroke-width="2"></path><text x="21" y="15" style="color:#333333;font-size:12px;font-weight:normal;cursor:pointer;fill:#333333;" text-anchor="start" data-z-index="2"><tspan>AG</tspan></text></g><g class="highcharts-legend-item highcharts-line-series highcharts-color-undefined highcharts-series-3" data-z-index="1" transform="translate(179,3)"><path fill="none" d="M 0 11 L 16 11" class="highcharts-graph" stroke="#008AC3" stroke-width="2"></path><text x="21" y="15" style="color:#333333;font-size:12px;font-weight:normal;cursor:pointer;fill:#333333;" text-anchor="start" data-z-index="2"><tspan>ZH</tspan></text></g></g></g></g><g class="highcharts-axis-labels highcharts-xaxis-labels " data-z-index="7"><text x="64.333333333333" style="color:#000000;cursor:default;font-size:11px;fill:#000000;" text-anchor="middle" transform="translate(0,0)" y="368" opacity="1">2009</text><text x="107" style="color:#000000;cursor:default;font-size:11px;fill:#000000;" text-anchor="middle" transform="translate(0,0)" y="368" opacity="1">2010</text><text x="149.66666666667" style="color:#000000;cursor:default;font-size:11px;fill:#000000;" text-anchor="middle" transform="translate(0,0)" y="368" opacity="1">2011</text><text x="192.33333333333" style="color:#000000;cursor:default;font-size:11px;fill:#000000;" text-anchor="middle" transform="translate(0,0)" y="368" opacity="1">2012</text><text x="235" style="color:#000000;cursor:default;font-size:11px;fill:#000000;" text-anchor="middle" transform="translate(0,0)" y="368" opacity="1">2013</text><text x="277.66666666667" style="color:#000000;cursor:default;font-size:11px;fill:#000000;" text-anchor="middle" transform="translate(0,0)" y="368" opacity="1">2014</text><text x="320.33333333333" style="color:#000000;cursor:default;font-size:11px;fill:#000000;" text-anchor="middle" transform="translate(0,0)" y="368" opacity="1">2015</text><text x="363" style="color:#000000;cursor:default;font-size:11px;fill:#000000;" text-anchor="middle" transform="translate(0,0)" y="368" opacity="1">2016</text><text x="405.66666666667" style="color:#000000;cursor:default;font-size:11px;fill:#000000;" text-anchor="middle" transform="translate(0,0)" y="368" opacity="1">2017</text><text x="448.33333333333" style="color:#000000;cursor:default;font-size:11px;fill:#000000;" text-anchor="middle" transform="translate(0,0)" y="368" opacity="1">2018</text></g><g class="highcharts-axis-labels highcharts-yaxis-labels " data-z-index="7"><text x="44" style="color:#000000;cursor:default;font-size:11px;fill:#000000;" text-anchor="end" transform="translate(0,0)" y="354" opacity="1">0</text><text x="44" style="color:#000000;cursor:default;font-size:11px;fill:#000000;" text-anchor="end" transform="translate(0,0)" y="287" opacity="1"><tspan>10 000</tspan></text><text x="44" style="color:#000000;cursor:default;font-size:11px;fill:#000000;" text-anchor="end" transform="translate(0,0)" y="221" opacity="1"><tspan>20 000</tspan></text><text x="44" style="color:#000000;cursor:default;font-size:11px;fill:#000000;" text-anchor="end" transform="translate(0,0)" y="154" opacity="1"><tspan>30 000</tspan></text><text x="44" style="color:#000000;cursor:default;font-size:11px;fill:#000000;" text-anchor="end" transform="translate(0,0)" y="88" opacity="1"><tspan>40 000</tspan></text></g><text x="10" class="highcharts-credits" text-anchor="start" data-z-index="8" style="cursor:default;color:#000000;font-size:10px;fill:#000000;" y="400"><tspan>Quelle: Bundesamt für Statistik (BFS), Grenzgängerstatistik (GGS).</tspan></text></svg>