<svg version="1.1" class="highcharts-root" style="font-family: Inter, &quot;Helvetica Neue&quot;, Helvetica, Arial, sans-serif; font-size: 1rem;" xmlns="http://www.w3.org/2000/svg" width="600" height="400" viewBox="0 0 600 400" role="img" aria-label="Nominales Bruttoinlandprodukt pro Kopf nach Kanton"><desc>Created with Highcharts 12.5.0</desc><defs><filter id="highcharts-drop-shadow-0"><feDropShadow dx="1" dy="1" flood-color="#000000" flood-opacity="0.75" stdDeviation="2.5"></feDropShadow></filter><clipPath id="highcharts-f9lqqt0-98-"><rect x="0" y="0" width="511" height="215" fill="none"></rect></clipPath></defs><rect fill="#ffffff" class="highcharts-background" filter="none" x="0" y="0" width="600" height="400" rx="0" ry="0"></rect><rect fill="none" class="highcharts-plot-background" x="71" y="100" width="511" height="215" filter="none"></rect><g class="highcharts-pane-group" data-z-index="0"></g><g class="highcharts-grid highcharts-xaxis-grid" data-z-index="1"><path fill="none" stroke="#e6e6e6" stroke-width="0" stroke-dasharray="none" data-z-index="1" class="highcharts-grid-line" d="M 76.5 100 L 76.5 315" opacity="1"></path><path fill="none" stroke="#e6e6e6" stroke-width="0" stroke-dasharray="none" data-z-index="1" class="highcharts-grid-line" d="M 131.5 100 L 131.5 315" opacity="1"></path><path fill="none" stroke="#e6e6e6" stroke-width="0" stroke-dasharray="none" data-z-index="1" class="highcharts-grid-line" d="M 187.5 100 L 187.5 315" opacity="1"></path><path fill="none" stroke="#e6e6e6" stroke-width="0" stroke-dasharray="none" data-z-index="1" class="highcharts-grid-line" d="M 243.5 100 L 243.5 315" opacity="1"></path><path fill="none" stroke="#e6e6e6" stroke-width="0" stroke-dasharray="none" data-z-index="1" class="highcharts-grid-line" d="M 298.5 100 L 298.5 315" opacity="1"></path><path fill="none" stroke="#e6e6e6" stroke-width="0" stroke-dasharray="none" data-z-index="1" class="highcharts-grid-line" d="M 354.5 100 L 354.5 315" opacity="1"></path><path fill="none" stroke="#e6e6e6" stroke-width="0" stroke-dasharray="none" data-z-index="1" class="highcharts-grid-line" d="M 409.5 100 L 409.5 315" opacity="1"></path><path fill="none" stroke="#e6e6e6" stroke-width="0" stroke-dasharray="none" data-z-index="1" class="highcharts-grid-line" d="M 465.5 100 L 465.5 315" opacity="1"></path><path fill="none" stroke="#e6e6e6" stroke-width="0" stroke-dasharray="none" data-z-index="1" class="highcharts-grid-line" d="M 521.5 100 L 521.5 315" opacity="1"></path><path fill="none" stroke="#e6e6e6" stroke-width="0" stroke-dasharray="none" data-z-index="1" class="highcharts-grid-line" d="M 576.5 100 L 576.5 315" opacity="1"></path></g><g class="highcharts-grid highcharts-yaxis-grid" data-z-index="1"><path fill="none" stroke="#B9CFD7" stroke-width="0.5" stroke-dasharray="none" data-z-index="1" class="highcharts-grid-line" d="M 71 315.25 L 582 315.25" opacity="1"></path><path fill="none" stroke="#B9CFD7" stroke-width="0.5" stroke-dasharray="none" data-z-index="1" class="highcharts-grid-line" d="M 71 291.25 L 582 291.25" opacity="1"></path><path fill="none" stroke="#B9CFD7" stroke-width="0.5" stroke-dasharray="none" data-z-index="1" class="highcharts-grid-line" d="M 71 267.25 L 582 267.25" opacity="1"></path><path fill="none" stroke="#B9CFD7" stroke-width="0.5" stroke-dasharray="none" data-z-index="1" class="highcharts-grid-line" d="M 71 243.25 L 582 243.25" opacity="1"></path><path fill="none" stroke="#B9CFD7" stroke-width="0.5" stroke-dasharray="none" data-z-index="1" class="highcharts-grid-line" d="M 71 219.25 L 582 219.25" opacity="1"></path><path fill="none" stroke="#B9CFD7" stroke-width="0.5" stroke-dasharray="none" data-z-index="1" class="highcharts-grid-line" d="M 71 195.25 L 582 195.25" opacity="1"></path><path fill="none" stroke="#B9CFD7" stroke-width="0.5" stroke-dasharray="none" data-z-index="1" class="highcharts-grid-line" d="M 71 171.25 L 582 171.25" opacity="1"></path><path fill="none" stroke="#B9CFD7" stroke-width="0.5" stroke-dasharray="none" data-z-index="1" class="highcharts-grid-line" d="M 71 148.25 L 582 148.25" opacity="1"></path><path fill="none" stroke="#B9CFD7" stroke-width="0.5" stroke-dasharray="none" data-z-index="1" class="highcharts-grid-line" d="M 71 124.25 L 582 124.25" opacity="1"></path><path fill="none" stroke="#B9CFD7" stroke-width="0.5" stroke-dasharray="none" data-z-index="1" class="highcharts-grid-line" d="M 71 100.25 L 582 100.25" opacity="1"></path></g><rect fill="none" class="highcharts-plot-border" data-z-index="1" stroke="#cccccc" stroke-width="0" x="71" y="100" width="511" height="215"></rect><g class="highcharts-axis highcharts-xaxis" data-z-index="2"><path fill="none" class="highcharts-axis-line" stroke="#B9CFD7" stroke-width="0.5" data-z-index="7" d="M 71 315.25 L 582 315.25"></path></g><g class="highcharts-axis highcharts-yaxis" data-z-index="2"><path fill="none" class="highcharts-axis-line" stroke="#B9CFD7" stroke-width="0" data-z-index="7" d="M 71 100 L 71 315"></path></g><g class="highcharts-series-group" data-z-index="3" filter="none"><g class="highcharts-series highcharts-series-0 highcharts-line-series" data-z-index="0.1" opacity="1" transform="translate(71,100) scale(1 1)" clip-path="url(#highcharts-f9lqqt0-98-)"><path fill="none" d="M 5.0098039215642 53.011355555556 L 60.674291938994 50.721844444444 L 116.33877995642 39.626888888889 L 172.00326797385 32.489844444444 L 227.66775599128 27.197022222222 L 283.33224400872 27.0126 L 338.99673202615 31.0288 L 394.66122004358 20.592222222222 L 450.32570806101 14.158466666667 L 505.99019607844 12.127911111111" class="highcharts-graph" data-z-index="1" stroke="#6F6F6F" stroke-width="2" stroke-linejoin="round" stroke-linecap="round" filter="none"></path><path fill="none" d="M 5.0098039215642 53.011355555556 L 60.674291938994 50.721844444444 L 116.33877995642 39.626888888889 L 172.00326797385 32.489844444444 L 227.66775599128 27.197022222222 L 283.33224400872 27.0126 L 338.99673202615 31.0288 L 394.66122004358 20.592222222222 L 450.32570806101 14.158466666667 L 505.99019607844 12.127911111111" data-z-index="2" class="highcharts-tracker-line" stroke-linecap="round" stroke-linejoin="round" stroke="rgba(192,192,192,0.0001)" stroke-width="22"></path></g><g class="highcharts-markers highcharts-series-0 highcharts-line-series highcharts-tracker" data-z-index="0.1" opacity="1" transform="translate(71,100) scale(1 1)" clip-path="none"></g><g class="highcharts-series highcharts-series-1 highcharts-line-series" data-z-index="0.1" opacity="1" transform="translate(71,100) scale(1 1)" clip-path="url(#highcharts-f9lqqt0-98-)"><path fill="none" d="M 5.0098039215642 146.59368888889 L 60.674291938994 145.9506 L 116.33877995642 146.05475555556 L 172.00326797385 145.65151111111 L 227.66775599128 145.68782222222 L 283.33224400872 145.96588888889 L 338.99673202615 147.447 L 394.66122004358 144.01368888889 L 450.32570806101 140.55744444444 L 505.99019607844 139.60093333333" class="highcharts-graph" data-z-index="1" stroke="#FF8028" stroke-width="2" stroke-linejoin="round" stroke-linecap="round" filter="none"></path><path fill="none" d="M 5.0098039215642 146.59368888889 L 60.674291938994 145.9506 L 116.33877995642 146.05475555556 L 172.00326797385 145.65151111111 L 227.66775599128 145.68782222222 L 283.33224400872 145.96588888889 L 338.99673202615 147.447 L 394.66122004358 144.01368888889 L 450.32570806101 140.55744444444 L 505.99019607844 139.60093333333" data-z-index="2" class="highcharts-tracker-line" stroke-linecap="round" stroke-linejoin="round" stroke="rgba(192,192,192,0.0001)" stroke-width="22"></path></g><g class="highcharts-markers highcharts-series-1 highcharts-line-series highcharts-tracker" data-z-index="0.1" opacity="1" transform="translate(71,100) scale(1 1)" clip-path="none"></g><g class="highcharts-series highcharts-series-2 highcharts-line-series" data-z-index="0.1" opacity="1" transform="translate(71,100) scale(1 1)" clip-path="url(#highcharts-f9lqqt0-98-)"><path fill="none" d="M 5.0098039215642 152.14737777778 L 60.674291938994 153.40775555556 L 116.33877995642 153.41062222222 L 172.00326797385 153.41731111111 L 227.66775599128 152.78473333333 L 283.33224400872 152.2888 L 338.99673202615 153.54631111111 L 394.66122004358 153.1316 L 450.32570806101 150.39106666667 L 505.99019607844 149.8378" class="highcharts-graph" data-z-index="1" stroke="#A8C3CA" stroke-width="2" stroke-linejoin="round" stroke-linecap="round" filter="none"></path><path fill="none" d="M 5.0098039215642 152.14737777778 L 60.674291938994 153.40775555556 L 116.33877995642 153.41062222222 L 172.00326797385 153.41731111111 L 227.66775599128 152.78473333333 L 283.33224400872 152.2888 L 338.99673202615 153.54631111111 L 394.66122004358 153.1316 L 450.32570806101 150.39106666667 L 505.99019607844 149.8378" data-z-index="2" class="highcharts-tracker-line" stroke-linecap="round" stroke-linejoin="round" stroke="rgba(192,192,192,0.0001)" stroke-width="22"></path></g><g class="highcharts-markers highcharts-series-2 highcharts-line-series highcharts-tracker" data-z-index="0.1" opacity="1" transform="translate(71,100) scale(1 1)" clip-path="none"></g><g class="highcharts-series highcharts-series-3 highcharts-line-series" data-z-index="0.1" opacity="1" transform="translate(71,100) scale(1 1)" clip-path="url(#highcharts-f9lqqt0-98-)"><path fill="none" d="M 5.0098039215642 118.14871111111 L 60.674291938994 119.43966666667 L 116.33877995642 119.67951111111 L 172.00326797385 119.49986666667 L 227.66775599128 115.34893333333 L 283.33224400872 117.43777777778 L 338.99673202615 122.37417777778 L 394.66122004358 120.92746666667 L 450.32570806101 114.54148888889 L 505.99019607844 115.06322222222" class="highcharts-graph" data-z-index="1" stroke="#008AC3" stroke-width="2" stroke-linejoin="round" stroke-linecap="round" filter="none"></path><path fill="none" d="M 5.0098039215642 118.14871111111 L 60.674291938994 119.43966666667 L 116.33877995642 119.67951111111 L 172.00326797385 119.49986666667 L 227.66775599128 115.34893333333 L 283.33224400872 117.43777777778 L 338.99673202615 122.37417777778 L 394.66122004358 120.92746666667 L 450.32570806101 114.54148888889 L 505.99019607844 115.06322222222" data-z-index="2" class="highcharts-tracker-line" stroke-linecap="round" stroke-linejoin="round" stroke="rgba(192,192,192,0.0001)" stroke-width="22"></path></g><g class="highcharts-markers highcharts-series-3 highcharts-line-series highcharts-tracker" data-z-index="0.1" opacity="1" transform="translate(71,100) scale(1 1)" clip-path="none"></g><g class="highcharts-series highcharts-series-4 highcharts-line-series" data-z-index="0.1" opacity="1" transform="translate(71,100) scale(1 1)" clip-path="url(#highcharts-f9lqqt0-98-)"><path fill="none" d="M 5.0098039215642 136.85944444444 L 60.674291938994 137.51208888889 L 116.33877995642 137.21586666667 L 172.00326797385 137.3076 L 227.66775599128 135.08784444444 L 283.33224400872 134.82984444444 L 338.99673202615 137.6516 L 394.66122004358 132.88624444444 L 450.32570806101 128.49737777778 L 505.99019607844 127.73484444444" class="highcharts-graph" data-z-index="1" stroke="#B00000" stroke-width="2" stroke-linejoin="round" stroke-linecap="round" filter="none"></path><path fill="none" d="M 5.0098039215642 136.85944444444 L 60.674291938994 137.51208888889 L 116.33877995642 137.21586666667 L 172.00326797385 137.3076 L 227.66775599128 135.08784444444 L 283.33224400872 134.82984444444 L 338.99673202615 137.6516 L 394.66122004358 132.88624444444 L 450.32570806101 128.49737777778 L 505.99019607844 127.73484444444" data-z-index="2" class="highcharts-tracker-line" stroke-linecap="round" stroke-linejoin="round" stroke="rgba(192,192,192,0.0001)" stroke-width="22"></path></g><g class="highcharts-markers highcharts-series-4 highcharts-line-series highcharts-tracker" data-z-index="0.1" opacity="1" transform="translate(71,100) scale(1 1)" clip-path="none"></g></g><text x="10" text-anchor="start" class="highcharts-caption" data-z-index="4" style="font-size: 0.8em; fill: rgb(102, 102, 102);" text-align="left" y="357" transform-origin="10 15" transform="translate(0,0) scale(1 1)"></text><g class="highcharts-legend highcharts-no-tooltip" data-z-index="7" text-align="left" transform="translate(55,55)"><rect fill="none" class="highcharts-legend-box" rx="0" ry="0" stroke="#999999" stroke-width="0" filter="none" x="0" y="0" width="291" height="33"></rect><g data-z-index="1"><g><g class="highcharts-legend-item highcharts-line-series highcharts-color-undefined highcharts-series-0" data-z-index="1" transform="translate(8,3)"><path fill="none" class="highcharts-graph" stroke-width="2" stroke-linecap="round" d="M 1 13 L 15 13" stroke="#6F6F6F"></path><text x="21" text-anchor="start" data-z-index="2" style="cursor: pointer; font-size: 0.8em; text-decoration: none; font-weight: normal; fill: rgb(51, 51, 51);" y="17">BS</text></g><g class="highcharts-legend-item highcharts-line-series highcharts-color-undefined highcharts-series-1" data-z-index="1" transform="translate(66.53749084472656,3)"><path fill="none" class="highcharts-graph" stroke-width="2" stroke-linecap="round" d="M 1 13 L 15 13" stroke="#FF8028"></path><text x="21" y="17" text-anchor="start" data-z-index="2" style="cursor: pointer; font-size: 0.8em; text-decoration: none; font-weight: normal; fill: rgb(51, 51, 51);">BL</text></g><g class="highcharts-legend-item highcharts-line-series highcharts-color-undefined highcharts-series-2" data-z-index="1" transform="translate(124.07498168945312,3)"><path fill="none" class="highcharts-graph" stroke-width="2" stroke-linecap="round" d="M 1 13 L 15 13" stroke="#A8C3CA"></path><text x="21" y="17" text-anchor="start" data-z-index="2" style="cursor: pointer; font-size: 0.8em; text-decoration: none; font-weight: normal; fill: rgb(51, 51, 51);">AG</text></g><g class="highcharts-legend-item highcharts-line-series highcharts-color-undefined highcharts-series-3" data-z-index="1" transform="translate(184.6124725341797,3)"><path fill="none" class="highcharts-graph" stroke-width="2" stroke-linecap="round" d="M 1 13 L 15 13" stroke="#008AC3"></path><text x="21" y="17" text-anchor="start" data-z-index="2" style="cursor: pointer; font-size: 0.8em; text-decoration: none; font-weight: normal; fill: rgb(51, 51, 51);">ZH</text></g><g class="highcharts-legend-item highcharts-line-series highcharts-color-undefined highcharts-series-4" data-z-index="1" transform="translate(243.6749725341797,3)"><path fill="none" class="highcharts-graph" stroke-width="2" stroke-linecap="round" d="M 1 13 L 15 13" stroke="#B00000"></path><text x="21" y="17" text-anchor="start" data-z-index="2" style="cursor: pointer; font-size: 0.8em; text-decoration: none; font-weight: normal; fill: rgb(51, 51, 51);">CH</text></g></g></g></g><g class="highcharts-axis-labels highcharts-xaxis-labels" data-z-index="7"><text x="76.009803921564" text-anchor="middle" transform="translate(0,0)" style="cursor: default; font-size: 0.8em; fill: rgb(0, 0, 0);" y="342" opacity="1">2014</text><text x="131.67429193899" text-anchor="middle" transform="translate(0,0)" style="cursor: default; font-size: 0.8em; fill: rgb(0, 0, 0);" y="342" opacity="1">2015</text><text x="187.33877995642" text-anchor="middle" transform="translate(0,0)" style="cursor: default; font-size: 0.8em; fill: rgb(0, 0, 0);" y="342" opacity="1">2016</text><text x="243.00326797385" text-anchor="middle" transform="translate(0,0)" style="cursor: default; font-size: 0.8em; fill: rgb(0, 0, 0);" y="342" opacity="1">2017</text><text x="298.66775599128" text-anchor="middle" transform="translate(0,0)" style="cursor: default; font-size: 0.8em; fill: rgb(0, 0, 0);" y="342" opacity="1">2018</text><text x="354.33224400872" text-anchor="middle" transform="translate(0,0)" style="cursor: default; font-size: 0.8em; fill: rgb(0, 0, 0);" y="342" opacity="1">2019</text><text x="409.99673202615" text-anchor="middle" transform="translate(0,0)" style="cursor: default; font-size: 0.8em; fill: rgb(0, 0, 0);" y="342" opacity="1">2020</text><text x="465.66122004358" text-anchor="middle" transform="translate(0,0)" style="cursor: default; font-size: 0.8em; fill: rgb(0, 0, 0);" y="342" opacity="1">2021</text><text x="521.32570806101" text-anchor="middle" transform="translate(0,0)" style="cursor: default; font-size: 0.8em; fill: rgb(0, 0, 0);" y="342" opacity="1">2022</text><text x="575.3218841552734" text-anchor="middle" transform="translate(0,0)" style="cursor: default; font-size: 0.8em; fill: rgb(0, 0, 0);" y="342" opacity="1">2023</text></g><g class="highcharts-axis-labels highcharts-yaxis-labels" data-z-index="7"><text x="56" text-anchor="end" transform="translate(0,0)" style="cursor: default; font-size: 0.8em; fill: rgb(0, 0, 0);" y="320" opacity="1">0</text><text x="56" text-anchor="end" transform="translate(0,0)" style="cursor: default; font-size: 0.8em; fill: rgb(0, 0, 0);" y="296" opacity="1">25,000</text><text x="56" text-anchor="end" transform="translate(0,0)" style="cursor: default; font-size: 0.8em; fill: rgb(0, 0, 0);" y="272" opacity="1">50,000</text><text x="56" text-anchor="end" transform="translate(0,0)" style="cursor: default; font-size: 0.8em; fill: rgb(0, 0, 0);" y="248" opacity="1">75,000</text><text x="56" text-anchor="end" transform="translate(0,0)" style="cursor: default; font-size: 0.8em; fill: rgb(0, 0, 0);" y="224" opacity="1">100,000</text><text x="56" text-anchor="end" transform="translate(0,0)" style="cursor: default; font-size: 0.8em; fill: rgb(0, 0, 0);" y="200" opacity="1">125,000</text><text x="56" text-anchor="end" transform="translate(0,0)" style="cursor: default; font-size: 0.8em; fill: rgb(0, 0, 0);" y="176" opacity="1">150,000</text><text x="56" text-anchor="end" transform="translate(0,0)" style="cursor: default; font-size: 0.8em; fill: rgb(0, 0, 0);" y="152" opacity="1">175,000</text><text x="56" text-anchor="end" transform="translate(0,0)" style="cursor: default; font-size: 0.8em; fill: rgb(0, 0, 0);" y="128" opacity="1">200,000</text><text x="56" text-anchor="end" transform="translate(0,0)" style="cursor: default; font-size: 0.8em; fill: rgb(0, 0, 0);" y="105" opacity="1">225,000</text></g></svg>