<?xml version="1.0" standalone="no"?>
<!DOCTYPE svg PUBLIC "-//W3C//DTD SVG 1.1//EN" "http://www.w3.org/Graphics/SVG/1.1/DTD/svg11.dtd">
<svg xmlns:xlink="http://www.w3.org/1999/xlink" version="1.1" class="highcharts-root" style="font-family:arial;font-size:12px;" xmlns="http://www.w3.org/2000/svg" viewBox="0 0 485 415">
  <desc>
    Created with Highstock 5.0.14
  </desc>
  <defs>
    <clipPath>
      <rect x="0" y="0" width="428" height="223" fill="none"/>
    </clipPath>
    <clipPath id="a">
      <rect x="0" y="0" width="428" height="223" fill="none"/>
    </clipPath>
  </defs>
  <rect fill="#fbfbfb" class="highcharts-background" x="0" y="0" width="485" height="415" rx="0" ry="0"/>
  <rect fill="none" class="highcharts-plot-background" x="47" y="126" width="428" height="223"/>
  <g class="highcharts-pane-group"/>
  <g class="highcharts-grid highcharts-xaxis-grid ">
    <path fill="none" class="highcharts-grid-line" d="M 48.5 126 L 48.5 349" opacity="1"/>
    <path fill="none" class="highcharts-grid-line" d="M 91.5 126 L 91.5 349" opacity="1"/>
    <path fill="none" class="highcharts-grid-line" d="M 133.5 126 L 133.5 349" opacity="1"/>
    <path fill="none" class="highcharts-grid-line" d="M 176.5 126 L 176.5 349" opacity="1"/>
    <path fill="none" class="highcharts-grid-line" d="M 219.5 126 L 219.5 349" opacity="1"/>
    <path fill="none" class="highcharts-grid-line" d="M 262.5 126 L 262.5 349" opacity="1"/>
    <path fill="none" class="highcharts-grid-line" d="M 305.5 126 L 305.5 349" opacity="1"/>
    <path fill="none" class="highcharts-grid-line" d="M 347.5 126 L 347.5 349" opacity="1"/>
    <path fill="none" class="highcharts-grid-line" d="M 390.5 126 L 390.5 349" opacity="1"/>
    <path fill="none" class="highcharts-grid-line" d="M 433.5 126 L 433.5 349" opacity="1"/>
  </g>
  <g class="highcharts-grid highcharts-yaxis-grid ">
    <path fill="none" stroke="#B9CFD7" stroke-width="0.5" class="highcharts-grid-line" d="M 47 349.25 L 475 349.25" opacity="1"/>
    <path fill="none" stroke="#B9CFD7" stroke-width="0.5" class="highcharts-grid-line" d="M 47 293.25 L 475 293.25" opacity="1"/>
    <path fill="none" stroke="#B9CFD7" stroke-width="0.5" class="highcharts-grid-line" d="M 47 238.25 L 475 238.25" opacity="1"/>
    <path fill="none" stroke="#B9CFD7" stroke-width="0.5" class="highcharts-grid-line" d="M 47 182.25 L 475 182.25" opacity="1"/>
    <path fill="none" stroke="#B9CFD7" stroke-width="0.5" class="highcharts-grid-line" d="M 47 125.75 L 475 125.75" opacity="1"/>
  </g>
  <rect fill="none" class="highcharts-plot-border" x="47" y="126" width="428" height="223"/>
  <g class="highcharts-axis highcharts-xaxis ">
    <path fill="none" class="highcharts-axis-line" stroke="#B9CFD7" stroke-width="0.5" d="M 47 349.25 L 475 349.25"/>
  </g>
  <g class="highcharts-axis highcharts-yaxis ">
    <path fill="none" class="highcharts-axis-line" d="M 47 126 L 47 349"/>
  </g>
  <g class="highcharts-series-group">
    <g class="highcharts-series highcharts-series-0 highcharts-line-series highcharts-color-undefined " transform="translate(47,126) scale(1 1)" clip-path="url(#a)">
      <path fill="none" d="M 1.7833333333333 169.48 L 5.35 169.48 L 8.9166666666667 171.71 L 12.483333333333 173.94 L 16.05 173.94 L 19.616666666667 173.94 L 23.183333333333 173.94 L 26.75 176.17 L 30.316666666667 171.71 L 33.883333333333 171.71 L 37.45 167.25 L 41.016666666667 162.79 L 44.583333333333 160.56 L 48.15 160.56 L 51.716666666667 156.10000000000002 L 55.283333333333 156.10000000000002 L 58.85 156.10000000000002 L 62.416666666667 153.87 L 65.983333333333 151.64 L 69.55 151.64 L 73.116666666667 149.41 L 76.683333333333 149.41 L 80.25 147.18 L 83.816666666667 144.95 L 87.383333333333 127.11000000000001 L 90.95 131.57 L 94.516666666667 133.8 L 98.083333333333 138.26 L 101.65 140.49 L 105.21666666667 140.49 L 108.78333333333 142.72000000000003 L 112.35 142.72000000000003 L 115.91666666667 140.49 L 119.48333333333 142.72000000000003 L 123.05 144.95 L 126.61666666667 142.72000000000003 L 130.18333333333 140.49 L 133.75 142.72000000000003 L 137.31666666667 144.95 L 140.88333333333 153.87 L 144.45 156.10000000000002 L 148.01666666667 158.32999999999998 L 151.58333333333 156.10000000000002 L 155.15 158.32999999999998 L 158.71666666667 156.10000000000002 L 162.28333333333 156.10000000000002 L 165.85 156.10000000000002 L 169.41666666667 151.64 L 172.98333333333 147.18 L 176.55 147.18 L 180.11666666667 149.41 L 183.68333333333 151.64 L 187.25 151.64 L 190.81666666667 153.87 L 194.38333333333 153.87 L 197.95 153.87 L 201.51666666667 151.64 L 205.08333333333 151.64 L 208.65 149.41 L 212.21666666667 144.95 L 215.78333333333 144.95 L 219.35 144.95 L 222.91666666667 149.41 L 226.48333333333 149.41 L 230.05 151.64 L 233.61666666667 156.10000000000002 L 237.18333333333 156.10000000000002 L 240.75 156.10000000000002 L 244.31666666667 156.10000000000002 L 247.88333333333 156.10000000000002 L 251.45 153.87 L 255.01666666667 151.64 L 258.58333333333 153.87 L 262.15 153.87 L 265.71666666667 156.10000000000002 L 269.28333333333 156.10000000000002 L 272.85 160.56 L 276.41666666667 162.79 L 279.98333333333 162.79 L 283.55 162.79 L 287.11666666667 162.79 L 290.68333333333 162.79 L 294.25 158.32999999999998 L 297.81666666667 153.87 L 301.38333333333 151.64 L 304.95 151.64 L 308.51666666667 151.64 L 312.08333333333 153.87 L 315.65 158.32999999999998 L 319.21666666667 158.32999999999998 L 322.78333333333 158.32999999999998 L 326.35 153.87 L 329.91666666667 153.87 L 333.48333333333 153.87 L 337.05 153.87 L 340.61666666667 151.64 L 344.18333333333 149.41 L 347.75 147.18 L 351.31666666667 149.41 L 354.88333333333 149.41 L 358.45 151.64 L 362.01666666667 153.87 L 365.58333333333 156.10000000000002 L 369.15 153.87 L 372.71666666667 156.10000000000002 L 376.28333333333 153.87 L 379.85 151.64 L 383.41666666667 151.64 L 386.98333333333 147.18 L 390.55 149.41 L 394.11666666667 151.64 L 397.68333333333 151.64 L 401.25 156.10000000000002 L 404.81666666667 158.32999999999998 L 408.38333333333 158.32999999999998 L 411.95 153.87 L 415.51666666667 158.32999999999998 L 419.08333333333 156.10000000000002 L 422.65 156.10000000000002 L 426.21666666667 156.10000000000002" class="highcharts-graph" stroke="#008AC3" stroke-width="2" stroke-linejoin="round" stroke-linecap="round"/>
    </g>
    <g class="highcharts-markers highcharts-series-0 highcharts-line-series highcharts-color-undefined " transform="translate(47,126) scale(1 1)" clip-path="none"/>
    <g class="highcharts-series highcharts-series-1 highcharts-line-series highcharts-color-undefined " transform="translate(47,126) scale(1 1)" clip-path="url(#a)">
      <path fill="none" d="M 1.7833333333333 169.48 L 5.35 169.48 L 8.9166666666667 171.71 L 12.483333333333 171.71 L 16.05 171.71 L 19.616666666667 171.71 L 23.183333333333 169.48 L 26.75 169.48 L 30.316666666667 171.71 L 33.883333333333 169.48 L 37.45 169.48 L 41.016666666667 169.48 L 44.583333333333 169.48 L 48.15 171.71 L 51.716666666667 169.48 L 55.283333333333 167.25 L 58.85 169.48 L 62.416666666667 165.02 L 65.983333333333 160.56 L 69.55 162.79 L 73.116666666667 162.79 L 76.683333333333 158.32999999999998 L 80.25 158.32999999999998 L 83.816666666667 156.10000000000002 L 87.383333333333 151.64 L 90.95 153.87 L 94.516666666667 153.87 L 98.083333333333 156.10000000000002 L 101.65 156.10000000000002 L 105.21666666667 158.32999999999998 L 108.78333333333 153.87 L 112.35 151.64 L 115.91666666667 153.87 L 119.48333333333 153.87 L 123.05 156.10000000000002 L 126.61666666667 158.32999999999998 L 130.18333333333 156.10000000000002 L 133.75 156.10000000000002 L 137.31666666667 156.10000000000002 L 140.88333333333 165.02 L 144.45 165.02 L 148.01666666667 165.02 L 151.58333333333 162.79 L 155.15 162.79 L 158.71666666667 162.79 L 162.28333333333 162.79 L 165.85 165.02 L 169.41666666667 167.25 L 172.98333333333 165.02 L 176.55 165.02 L 180.11666666667 165.02 L 183.68333333333 165.02 L 187.25 162.79 L 190.81666666667 167.25 L 194.38333333333 162.79 L 197.95 162.79 L 201.51666666667 162.79 L 205.08333333333 162.79 L 208.65 162.79 L 212.21666666667 162.79 L 215.78333333333 158.32999999999998 L 219.35 160.56 L 222.91666666667 160.56 L 226.48333333333 162.79 L 230.05 165.02 L 233.61666666667 167.25 L 237.18333333333 162.79 L 240.75 162.79 L 244.31666666667 162.79 L 247.88333333333 162.79 L 251.45 165.02 L 255.01666666667 162.79 L 258.58333333333 165.02 L 262.15 165.02 L 265.71666666667 165.02 L 269.28333333333 167.25 L 272.85 169.48 L 276.41666666667 169.48 L 279.98333333333 169.48 L 283.55 167.25 L 287.11666666667 167.25 L 290.68333333333 167.25 L 294.25 167.25 L 297.81666666667 169.48 L 301.38333333333 165.02 L 304.95 167.25 L 308.51666666667 167.25 L 312.08333333333 167.25 L 315.65 167.25 L 319.21666666667 167.25 L 322.78333333333 165.02 L 326.35 162.79 L 329.91666666667 160.56 L 333.48333333333 162.79 L 337.05 165.02 L 340.61666666667 167.25 L 344.18333333333 167.25 L 347.75 165.02 L 351.31666666667 167.25 L 354.88333333333 162.79 L 358.45 162.79 L 362.01666666667 165.02 L 365.58333333333 165.02 L 369.15 160.56 L 372.71666666667 160.56 L 376.28333333333 160.56 L 379.85 160.56 L 383.41666666667 162.79 L 386.98333333333 162.79 L 390.55 162.79 L 394.11666666667 160.56 L 397.68333333333 160.56 L 401.25 165.02 L 404.81666666667 165.02 L 408.38333333333 165.02 L 411.95 160.56 L 415.51666666667 165.02 L 419.08333333333 165.02 L 422.65 165.02 L 426.21666666667 167.25" class="highcharts-graph" stroke="#662673" stroke-width="2" stroke-linejoin="round" stroke-linecap="round"/>
    </g>
    <g class="highcharts-markers highcharts-series-1 highcharts-line-series highcharts-color-undefined " transform="translate(47,126) scale(1 1)" clip-path="none"/>
    <g class="highcharts-series highcharts-series-2 highcharts-line-series highcharts-color-undefined " transform="translate(47,126) scale(1 1)" clip-path="url(#a)">
      <path fill="none" d="M 1.7833333333333 109.27000000000001 L 5.35 109.27000000000001 L 8.9166666666667 115.96 L 12.483333333333 122.65 L 16.05 127.11000000000001 L 19.616666666667 122.65 L 23.183333333333 124.88000000000001 L 26.75 127.11000000000001 L 30.316666666667 127.11000000000001 L 33.883333333333 122.65 L 37.45 109.27000000000001 L 41.016666666667 89.20000000000002 L 44.583333333333 82.50999999999999 L 48.15 80.28 L 51.716666666667 82.50999999999999 L 55.283333333333 86.97 L 58.85 86.97 L 62.416666666667 89.20000000000002 L 65.983333333333 91.43 L 69.55 89.20000000000002 L 73.116666666667 86.97 L 76.683333333333 78.04999999999998 L 80.25 71.35999999999999 L 83.816666666667 49.06 L 87.383333333333 57.98000000000002 L 90.95 62.440000000000026 L 94.516666666667 73.59 L 98.083333333333 82.50999999999999 L 101.65 89.20000000000002 L 105.21666666667 98.11999999999999 L 108.78333333333 102.58 L 112.35 104.81 L 115.91666666667 107.04 L 119.48333333333 107.04 L 123.05 98.11999999999999 L 126.61666666667 78.04999999999998 L 130.18333333333 75.82 L 133.75 84.74000000000001 L 137.31666666667 86.97 L 140.88333333333 109.27000000000001 L 144.45 115.96 L 148.01666666667 118.19 L 151.58333333333 120.42 L 155.15 120.42 L 158.71666666667 120.42 L 162.28333333333 118.19 L 165.85 111.5 L 169.41666666667 98.11999999999999 L 172.98333333333 86.97 L 176.55 86.97 L 180.11666666667 95.89 L 183.68333333333 100.35 L 187.25 104.81 L 190.81666666667 118.19 L 194.38333333333 122.65 L 197.95 124.88000000000001 L 201.51666666667 122.65 L 205.08333333333 113.72999999999999 L 208.65 104.81 L 212.21666666667 86.97 L 215.78333333333 78.04999999999998 L 219.35 82.50999999999999 L 222.91666666667 86.97 L 226.48333333333 98.11999999999999 L 230.05 107.04 L 233.61666666667 107.04 L 237.18333333333 111.5 L 240.75 113.72999999999999 L 244.31666666667 111.5 L 247.88333333333 107.04 L 251.45 95.89 L 255.01666666667 75.82 L 258.58333333333 86.97 L 262.15 93.66 L 265.71666666667 100.35 L 269.28333333333 109.27000000000001 L 272.85 120.42 L 276.41666666667 129.33999999999997 L 279.98333333333 129.33999999999997 L 283.55 131.57 L 287.11666666667 127.11000000000001 L 290.68333333333 118.19 L 294.25 104.81 L 297.81666666667 84.74000000000001 L 301.38333333333 78.04999999999998 L 304.95 84.74000000000001 L 308.51666666667 86.97 L 312.08333333333 93.66 L 315.65 100.35 L 319.21666666667 107.04 L 322.78333333333 115.96 L 326.35 118.19 L 329.91666666667 109.27000000000001 L 333.48333333333 104.81 L 337.05 95.89 L 340.61666666667 84.74000000000001 L 344.18333333333 75.82 L 347.75 73.59 L 351.31666666667 80.28 L 354.88333333333 80.28 L 358.45 89.20000000000002 L 362.01666666667 98.11999999999999 L 365.58333333333 104.81 L 369.15 107.04 L 372.71666666667 107.04 L 376.28333333333 102.58 L 379.85 86.97 L 383.41666666667 69.13 L 386.98333333333 60.21000000000001 L 390.55 66.89999999999998 L 394.11666666667 78.04999999999998 L 397.68333333333 89.20000000000002 L 401.25 100.35 L 404.81666666667 102.58 L 408.38333333333 107.04 L 411.95 111.5 L 415.51666666667 113.72999999999999 L 419.08333333333 111.5 L 422.65 107.04 L 426.21666666667 91.43" class="highcharts-graph" stroke="#689199" stroke-width="2" stroke-linejoin="round" stroke-linecap="round"/>
    </g>
    <g class="highcharts-markers highcharts-series-2 highcharts-line-series highcharts-color-undefined " transform="translate(47,126) scale(1 1)" clip-path="none"/>
    <g class="highcharts-series highcharts-series-3 highcharts-line-series highcharts-color-undefined " transform="translate(47,126) scale(1 1)" clip-path="url(#a)">
      <path fill="none" d="M 1.7833333333333 136.03 L 5.35 133.8 L 8.9166666666667 136.03 L 12.483333333333 142.72000000000003 L 16.05 140.49 L 19.616666666667 138.26 L 23.183333333333 140.49 L 26.75 138.26 L 30.316666666667 131.57 L 33.883333333333 131.57 L 37.45 131.57 L 41.016666666667 129.33999999999997 L 44.583333333333 131.57 L 48.15 131.57 L 51.716666666667 127.11000000000001 L 55.283333333333 129.33999999999997 L 58.85 122.65 L 62.416666666667 113.72999999999999 L 65.983333333333 111.5 L 69.55 111.5 L 73.116666666667 104.81 L 76.683333333333 100.35 L 80.25 102.58 L 83.816666666667 100.35 L 87.383333333333 111.5 L 90.95 113.72999999999999 L 94.516666666667 115.96 L 98.083333333333 115.96 L 101.65 120.42 L 105.21666666667 122.65 L 108.78333333333 120.42 L 112.35 115.96 L 115.91666666667 115.96 L 119.48333333333 115.96 L 123.05 118.19 L 126.61666666667 118.19 L 130.18333333333 111.5 L 133.75 113.72999999999999 L 137.31666666667 118.19 L 140.88333333333 127.11000000000001 L 144.45 131.57 L 148.01666666667 131.57 L 151.58333333333 131.57 L 155.15 129.33999999999997 L 158.71666666667 127.11000000000001 L 162.28333333333 127.11000000000001 L 165.85 131.57 L 169.41666666667 131.57 L 172.98333333333 131.57 L 176.55 129.33999999999997 L 180.11666666667 127.11000000000001 L 183.68333333333 127.11000000000001 L 187.25 129.33999999999997 L 190.81666666667 129.33999999999997 L 194.38333333333 129.33999999999997 L 197.95 127.11000000000001 L 201.51666666667 124.88000000000001 L 205.08333333333 124.88000000000001 L 208.65 124.88000000000001 L 212.21666666667 122.65 L 215.78333333333 122.65 L 219.35 122.65 L 222.91666666667 120.42 L 226.48333333333 122.65 L 230.05 124.88000000000001 L 233.61666666667 129.33999999999997 L 237.18333333333 127.11000000000001 L 240.75 124.88000000000001 L 244.31666666667 127.11000000000001 L 247.88333333333 124.88000000000001 L 251.45 129.33999999999997 L 255.01666666667 129.33999999999997 L 258.58333333333 136.03 L 262.15 136.03 L 265.71666666667 133.8 L 269.28333333333 136.03 L 272.85 142.72000000000003 L 276.41666666667 142.72000000000003 L 279.98333333333 140.49 L 283.55 136.03 L 287.11666666667 136.03 L 290.68333333333 136.03 L 294.25 136.03 L 297.81666666667 136.03 L 301.38333333333 133.8 L 304.95 131.57 L 308.51666666667 131.57 L 312.08333333333 131.57 L 315.65 131.57 L 319.21666666667 131.57 L 322.78333333333 131.57 L 326.35 131.57 L 329.91666666667 129.33999999999997 L 333.48333333333 127.11000000000001 L 337.05 127.11000000000001 L 340.61666666667 127.11000000000001 L 344.18333333333 122.65 L 347.75 118.19 L 351.31666666667 120.42 L 354.88333333333 118.19 L 358.45 120.42 L 362.01666666667 122.65 L 365.58333333333 122.65 L 369.15 122.65 L 372.71666666667 124.88000000000001 L 376.28333333333 127.11000000000001 L 379.85 124.88000000000001 L 383.41666666667 124.88000000000001 L 386.98333333333 124.88000000000001 L 390.55 122.65 L 394.11666666667 120.42 L 397.68333333333 124.88000000000001 L 401.25 124.88000000000001 L 404.81666666667 124.88000000000001 L 408.38333333333 124.88000000000001 L 411.95 120.42 L 415.51666666667 127.11000000000001 L 419.08333333333 124.88000000000001 L 422.65 127.11000000000001 L 426.21666666667 122.65" class="highcharts-graph" stroke="#B375AB" stroke-width="2" stroke-linejoin="round" stroke-linecap="round"/>
    </g>
    <g class="highcharts-markers highcharts-series-3 highcharts-line-series highcharts-color-undefined " transform="translate(47,126) scale(1 1)" clip-path="none"/>
  </g>
  <text x="10" text-anchor="start" class="highcharts-title" style="color:#000000;font-size:14px;font-weight:bold;fill:#000000;" y="21">
    <tspan>Arbeitslosenquote nach Herkunft und Geschlecht</tspan>
  </text>
  <text x="10" text-anchor="start" class="highcharts-subtitle" style="color:#000000;font-size:12px;font-weight:normal;font-family:arial;fill:#000000;" y="40">
    <tspan>2008 bis 2017</tspan>
  </text>
  <g class="highcharts-legend" transform="translate(39,65)">
    <rect fill="none" class="highcharts-legend-box" rx="0" ry="0" x="0" y="0" width="312" height="49" visibility="visible"/>
    <g>
      <g>
        <g class="highcharts-legend-item highcharts-line-series highcharts-color-undefined highcharts-series-0" transform="translate(8,3)">
          <path fill="none" d="M 0 11 L 16 11" class="highcharts-graph" stroke="#008AC3" stroke-width="2"/>
          <text x="21" style="color:#333333;font-size:12px;font-weight:normal;cursor:pointer;fill:#333333;" text-anchor="start" y="15">
            <tspan>Schweizer</tspan>
          </text>
        </g>
        <g class="highcharts-legend-item highcharts-line-series highcharts-color-undefined highcharts-series-1" transform="translate(104.3125,3)">
          <path fill="none" d="M 0 11 L 16 11" class="highcharts-graph" stroke="#662673" stroke-width="2"/>
          <text x="21" y="15" style="color:#333333;font-size:12px;font-weight:normal;cursor:pointer;fill:#333333;" text-anchor="start">
            <tspan>Schweizerinnen</tspan>
          </text>
        </g>
        <g class="highcharts-legend-item highcharts-line-series highcharts-color-undefined highcharts-series-2" transform="translate(229.96875,3)">
          <path fill="none" d="M 0 11 L 16 11" class="highcharts-graph" stroke="#689199" stroke-width="2"/>
          <text x="21" y="15" style="color:#333333;font-size:12px;font-weight:normal;cursor:pointer;fill:#333333;" text-anchor="start">
            <tspan>Ausländer</tspan>
          </text>
        </g>
        <g class="highcharts-legend-item highcharts-line-series highcharts-color-undefined highcharts-series-3" transform="translate(8,22)">
          <path fill="none" d="M 0 11 L 16 11" class="highcharts-graph" stroke="#B375AB" stroke-width="2"/>
          <text x="21" y="15" style="color:#333333;font-size:12px;font-weight:normal;cursor:pointer;fill:#333333;" text-anchor="start">
            <tspan>Ausländerinnen</tspan>
          </text>
        </g>
      </g>
    </g>
  </g>
  <g class="highcharts-axis-labels highcharts-xaxis-labels ">
    <text x="48.78333333333333" style="color:#000000;cursor:default;font-size:11px;fill:#000000;" text-anchor="middle" transform="translate(0,0)" y="368" opacity="1">
      2008
    </text>
    <text x="91.58333333333334" style="color:#000000;cursor:default;font-size:11px;fill:#000000;" text-anchor="middle" transform="translate(0,0)" y="368" opacity="1">
      2009
    </text>
    <text x="134.38333333333333" style="color:#000000;cursor:default;font-size:11px;fill:#000000;" text-anchor="middle" transform="translate(0,0)" y="368" opacity="1">
      2010
    </text>
    <text x="177.18333333333334" style="color:#000000;cursor:default;font-size:11px;fill:#000000;" text-anchor="middle" transform="translate(0,0)" y="368" opacity="1">
      2011
    </text>
    <text x="219.98333333333335" style="color:#000000;cursor:default;font-size:11px;fill:#000000;" text-anchor="middle" transform="translate(0,0)" y="368" opacity="1">
      2012
    </text>
    <text x="262.7833333333333" style="color:#000000;cursor:default;font-size:11px;fill:#000000;" text-anchor="middle" transform="translate(0,0)" y="368" opacity="1">
      2013
    </text>
    <text x="305.58333333333337" style="color:#000000;cursor:default;font-size:11px;fill:#000000;" text-anchor="middle" transform="translate(0,0)" y="368" opacity="1">
      2014
    </text>
    <text x="348.3833333333334" style="color:#000000;cursor:default;font-size:11px;fill:#000000;" text-anchor="middle" transform="translate(0,0)" y="368" opacity="1">
      2015
    </text>
    <text x="391.1833333333334" style="color:#000000;cursor:default;font-size:11px;fill:#000000;" text-anchor="middle" transform="translate(0,0)" y="368" opacity="1">
      2016
    </text>
    <text x="433.9833333333334" style="color:#000000;cursor:default;font-size:11px;fill:#000000;" text-anchor="middle" transform="translate(0,0)" y="368" opacity="1">
      2017
    </text>
  </g>
  <g class="highcharts-axis-labels highcharts-yaxis-labels ">
    <text x="32" style="color:#000000;cursor:default;font-size:11px;fill:#000000;" text-anchor="end" transform="translate(0,0)" y="354" opacity="1">
      <tspan>0%</tspan>
    </text>
    <text x="32" style="color:#000000;cursor:default;font-size:11px;fill:#000000;" text-anchor="end" transform="translate(0,0)" y="298" opacity="1">
      <tspan>3%</tspan>
    </text>
    <text x="32" style="color:#000000;cursor:default;font-size:11px;fill:#000000;" text-anchor="end" transform="translate(0,0)" y="242" opacity="1">
      <tspan>5%</tspan>
    </text>
    <text x="32" style="color:#000000;cursor:default;font-size:11px;fill:#000000;" text-anchor="end" transform="translate(0,0)" y="186" opacity="1">
      <tspan>8%</tspan>
    </text>
    <text x="32" style="color:#000000;cursor:default;font-size:11px;fill:#000000;" text-anchor="end" transform="translate(0,0)" y="131" opacity="1">
      <tspan>10%</tspan>
    </text>
  </g>
  <text x="10" class="highcharts-credits" text-anchor="start" style="cursor:default;color:#000000;font-size:10px;fill:#000000;" y="400">
    <tspan>Quelle: Staatssekretariat für Wirtschaft SECO, Arbeitslosenstatistik</tspan>
  </text>
</svg>
