<svg version="1.1" class="highcharts-root" style="font-family: Inter, &quot;Helvetica Neue&quot;, Helvetica, Arial, sans-serif; font-size: 1rem;" xmlns="http://www.w3.org/2000/svg" width="600" height="400" viewBox="0 0 600 400" role="img" aria-label="Arbeitslose nach Ländergruppe"><desc>Created with Highcharts 12.5.0</desc><defs><filter id="highcharts-drop-shadow-0"><feDropShadow dx="1" dy="1" flood-color="#000000" flood-opacity="0.75" stdDeviation="2.5"></feDropShadow></filter><clipPath id="highcharts-5xdcn77-133-"><rect x="0" y="0" width="533" height="215" fill="none"></rect></clipPath></defs><rect fill="#ffffff" class="highcharts-background" filter="none" x="0" y="0" width="600" height="400" rx="0" ry="0"></rect><rect fill="none" class="highcharts-plot-background" x="57" y="100" width="533" height="215" filter="none"></rect><g class="highcharts-pane-group" data-z-index="0"></g><g class="highcharts-grid highcharts-xaxis-grid" data-z-index="1"><path fill="none" stroke="#e6e6e6" stroke-width="0" stroke-dasharray="none" data-z-index="1" class="highcharts-grid-line" d="M 59.5 100 L 59.5 315" opacity="1"></path><path fill="none" stroke="#e6e6e6" stroke-width="0" stroke-dasharray="none" data-z-index="1" class="highcharts-grid-line" d="M 112.5 100 L 112.5 315" opacity="1"></path><path fill="none" stroke="#e6e6e6" stroke-width="0" stroke-dasharray="none" data-z-index="1" class="highcharts-grid-line" d="M 165.5 100 L 165.5 315" opacity="1"></path><path fill="none" stroke="#e6e6e6" stroke-width="0" stroke-dasharray="none" data-z-index="1" class="highcharts-grid-line" d="M 219.5 100 L 219.5 315" opacity="1"></path><path fill="none" stroke="#e6e6e6" stroke-width="0" stroke-dasharray="none" data-z-index="1" class="highcharts-grid-line" d="M 272.5 100 L 272.5 315" opacity="1"></path><path fill="none" stroke="#e6e6e6" stroke-width="0" stroke-dasharray="none" data-z-index="1" class="highcharts-grid-line" d="M 325.5 100 L 325.5 315" opacity="1"></path><path fill="none" stroke="#e6e6e6" stroke-width="0" stroke-dasharray="none" data-z-index="1" class="highcharts-grid-line" d="M 379.5 100 L 379.5 315" opacity="1"></path><path fill="none" stroke="#e6e6e6" stroke-width="0" stroke-dasharray="none" data-z-index="1" class="highcharts-grid-line" d="M 432.5 100 L 432.5 315" opacity="1"></path><path fill="none" stroke="#e6e6e6" stroke-width="0" stroke-dasharray="none" data-z-index="1" class="highcharts-grid-line" d="M 485.5 100 L 485.5 315" opacity="1"></path><path fill="none" stroke="#e6e6e6" stroke-width="0" stroke-dasharray="none" data-z-index="1" class="highcharts-grid-line" d="M 538.5 100 L 538.5 315" opacity="1"></path></g><g class="highcharts-grid highcharts-yaxis-grid" data-z-index="1"><path fill="none" stroke="#B9CFD7" stroke-width="0.5" stroke-dasharray="none" data-z-index="1" class="highcharts-grid-line" d="M 57 315.25 L 590 315.25" opacity="1"></path><path fill="none" stroke="#B9CFD7" stroke-width="0.5" stroke-dasharray="none" data-z-index="1" class="highcharts-grid-line" d="M 57 272.25 L 590 272.25" opacity="1"></path><path fill="none" stroke="#B9CFD7" stroke-width="0.5" stroke-dasharray="none" data-z-index="1" class="highcharts-grid-line" d="M 57 229.25 L 590 229.25" opacity="1"></path><path fill="none" stroke="#B9CFD7" stroke-width="0.5" stroke-dasharray="none" data-z-index="1" class="highcharts-grid-line" d="M 57 186.25 L 590 186.25" opacity="1"></path><path fill="none" stroke="#B9CFD7" stroke-width="0.5" stroke-dasharray="none" data-z-index="1" class="highcharts-grid-line" d="M 57 143.25 L 590 143.25" opacity="1"></path><path fill="none" stroke="#B9CFD7" stroke-width="0.5" stroke-dasharray="none" data-z-index="1" class="highcharts-grid-line" d="M 57 100.25 L 590 100.25" opacity="1"></path></g><rect fill="none" class="highcharts-plot-border" data-z-index="1" stroke="#cccccc" stroke-width="0" x="57" y="100" width="533" height="215"></rect><g class="highcharts-axis highcharts-xaxis" data-z-index="2"><path fill="none" class="highcharts-axis-line" stroke="#B9CFD7" stroke-width="0.5" data-z-index="7" d="M 57 315.25 L 590 315.25"></path></g><g class="highcharts-axis highcharts-yaxis" data-z-index="2"><path fill="none" class="highcharts-axis-line" stroke="#B9CFD7" stroke-width="0" data-z-index="7" d="M 57 100 L 57 315"></path></g><g class="highcharts-series-group" data-z-index="3" filter="none"><g class="highcharts-series highcharts-series-0 highcharts-line-series" data-z-index="0.1" opacity="1" transform="translate(57,100) scale(1 1)" clip-path="url(#highcharts-5xdcn77-133-)"><path fill="none" d="M 2.2208333333333 63.64 L 6.6625 67.51 L 11.104166666667 66.908 L 15.545833333333 70.262 L 19.9875 74.648 L 24.429166666667 73.702 L 28.870833333333 73.616 L 33.3125 65.188 L 37.754166666667 62.694 L 42.195833333333 65.532 L 46.6375 66.994 L 51.079166666667 68.198 L 55.520833333333 63.64 L 59.9625 58.48 L 64.404166666667 62.092 L 68.845833333333 59.426 L 73.2875 61.748 L 77.729166666667 66.134 L 82.170833333333 70.262 L 86.6125 63.124 L 91.054166666667 63.296 L 95.495833333333 62.092 L 99.9375 61.06 L 104.37916666667 61.146 L 108.82083333333 55.986 L 113.2625 60.372 L 117.70416666667 59.082 L 122.14583333333 58.308 L 126.5875 67.854 L 131.02916666667 72.068 L 135.47083333333 72.842 L 139.9125 63.21 L 144.35416666667 70.95 L 148.79583333333 70.004 L 153.2375 70.606 L 157.67916666667 70.692 L 162.12083333333 69.23 L 166.5625 72.67 L 171.00416666667 75.68 L 175.44583333333 79.98 L 179.8875 83.162 L 184.32916666667 83.85 L 188.77083333333 81.958 L 193.2125 81.184 L 197.65416666667 88.408 L 202.09583333333 91.332 L 206.5375 92.02 L 210.97916666667 88.666 L 215.42083333333 83.85 L 219.8625 89.87 L 224.30416666667 90.902 L 228.74583333333 96.922 L 233.1875 100.964 L 237.62916666667 103.028 L 242.07083333333 100.878 L 246.5125 100.362 L 250.95416666667 106.038 L 255.39583333333 105.694 L 259.8375 101.566 L 264.27916666667 97.094 L 268.72083333333 93.654 L 273.1625 93.74 L 277.60416666667 77.314 L 282.04583333333 62.866 L 286.4875 57.104 L 290.92916666667 53.32 L 295.37083333333 45.924 L 299.8125 49.192 L 304.25416666667 56.674 L 308.69583333333 59.426 L 313.1375 58.91 L 317.57916666667 55.814 L 322.02083333333 50.654 L 326.4625 51.686 L 330.90416666667 52.804 L 335.34583333333 58.222 L 339.7875 63.124 L 344.22916666667 62.866 L 348.67083333333 64.5 L 353.1125 71.81 L 357.55416666667 81.184 L 361.99583333333 87.634 L 366.4375 89.784 L 370.87916666667 92.708 L 375.32083333333 89.87 L 379.7625 90.042 L 384.20416666667 96.32 L 388.64583333333 98.298 L 393.0875 101.48 L 397.52916666667 103.372 L 401.97083333333 106.726 L 406.4125 104.576 L 410.85416666667 108.36 L 415.29583333333 108.016 L 419.7375 106.812 L 424.17916666667 114.466 L 428.62083333333 111.456 L 433.0625 111.714 L 437.50416666667 110.682 L 441.94583333333 108.704 L 446.3875 112.746 L 450.82916666667 112.66 L 455.27083333333 106.898 L 459.7125 106.124 L 464.15416666667 109.736 L 468.59583333333 108.962 L 473.0375 108.188 L 477.47916666667 103.888 L 481.92083333333 88.58 L 486.3625 90.988 L 490.80416666667 92.192 L 495.24583333333 92.192 L 499.6875 96.148 L 504.12916666667 96.578 L 508.57083333333 87.032 L 513.0125 81.442 L 517.45416666667 78.776 L 521.89583333333 78.948 L 526.3375 75.25 L 530.77916666667 69.488" class="highcharts-graph" data-z-index="1" stroke="#B00000" stroke-width="2" stroke-linejoin="round" stroke-linecap="round" filter="none"></path><path fill="none" d="M 2.2208333333333 63.64 L 6.6625 67.51 L 11.104166666667 66.908 L 15.545833333333 70.262 L 19.9875 74.648 L 24.429166666667 73.702 L 28.870833333333 73.616 L 33.3125 65.188 L 37.754166666667 62.694 L 42.195833333333 65.532 L 46.6375 66.994 L 51.079166666667 68.198 L 55.520833333333 63.64 L 59.9625 58.48 L 64.404166666667 62.092 L 68.845833333333 59.426 L 73.2875 61.748 L 77.729166666667 66.134 L 82.170833333333 70.262 L 86.6125 63.124 L 91.054166666667 63.296 L 95.495833333333 62.092 L 99.9375 61.06 L 104.37916666667 61.146 L 108.82083333333 55.986 L 113.2625 60.372 L 117.70416666667 59.082 L 122.14583333333 58.308 L 126.5875 67.854 L 131.02916666667 72.068 L 135.47083333333 72.842 L 139.9125 63.21 L 144.35416666667 70.95 L 148.79583333333 70.004 L 153.2375 70.606 L 157.67916666667 70.692 L 162.12083333333 69.23 L 166.5625 72.67 L 171.00416666667 75.68 L 175.44583333333 79.98 L 179.8875 83.162 L 184.32916666667 83.85 L 188.77083333333 81.958 L 193.2125 81.184 L 197.65416666667 88.408 L 202.09583333333 91.332 L 206.5375 92.02 L 210.97916666667 88.666 L 215.42083333333 83.85 L 219.8625 89.87 L 224.30416666667 90.902 L 228.74583333333 96.922 L 233.1875 100.964 L 237.62916666667 103.028 L 242.07083333333 100.878 L 246.5125 100.362 L 250.95416666667 106.038 L 255.39583333333 105.694 L 259.8375 101.566 L 264.27916666667 97.094 L 268.72083333333 93.654 L 273.1625 93.74 L 277.60416666667 77.314 L 282.04583333333 62.866 L 286.4875 57.104 L 290.92916666667 53.32 L 295.37083333333 45.924 L 299.8125 49.192 L 304.25416666667 56.674 L 308.69583333333 59.426 L 313.1375 58.91 L 317.57916666667 55.814 L 322.02083333333 50.654 L 326.4625 51.686 L 330.90416666667 52.804 L 335.34583333333 58.222 L 339.7875 63.124 L 344.22916666667 62.866 L 348.67083333333 64.5 L 353.1125 71.81 L 357.55416666667 81.184 L 361.99583333333 87.634 L 366.4375 89.784 L 370.87916666667 92.708 L 375.32083333333 89.87 L 379.7625 90.042 L 384.20416666667 96.32 L 388.64583333333 98.298 L 393.0875 101.48 L 397.52916666667 103.372 L 401.97083333333 106.726 L 406.4125 104.576 L 410.85416666667 108.36 L 415.29583333333 108.016 L 419.7375 106.812 L 424.17916666667 114.466 L 428.62083333333 111.456 L 433.0625 111.714 L 437.50416666667 110.682 L 441.94583333333 108.704 L 446.3875 112.746 L 450.82916666667 112.66 L 455.27083333333 106.898 L 459.7125 106.124 L 464.15416666667 109.736 L 468.59583333333 108.962 L 473.0375 108.188 L 477.47916666667 103.888 L 481.92083333333 88.58 L 486.3625 90.988 L 490.80416666667 92.192 L 495.24583333333 92.192 L 499.6875 96.148 L 504.12916666667 96.578 L 508.57083333333 87.032 L 513.0125 81.442 L 517.45416666667 78.776 L 521.89583333333 78.948 L 526.3375 75.25 L 530.77916666667 69.488" data-z-index="2" class="highcharts-tracker-line" stroke-linecap="round" stroke-linejoin="round" stroke="rgba(192,192,192,0.0001)" stroke-width="22"></path></g><g class="highcharts-markers highcharts-series-0 highcharts-line-series highcharts-tracker" data-z-index="0.1" opacity="1" transform="translate(57,100) scale(1 1)" clip-path="none"></g><g class="highcharts-series highcharts-series-1 highcharts-line-series" data-z-index="0.1" opacity="1" transform="translate(57,100) scale(1 1)" clip-path="url(#highcharts-5xdcn77-133-)"><path fill="none" d="M 2.2208333333333 122.206 L 6.6625 124.184 L 11.104166666667 127.538 L 15.545833333333 131.15 L 19.9875 134.676 L 24.429166666667 139.836 L 28.870833333333 143.276 L 33.3125 143.706 L 37.754166666667 138.546 L 42.195833333333 137.17 L 46.6375 131.752 L 51.079166666667 127.796 L 55.520833333333 119.884 L 59.9625 119.024 L 64.404166666667 122.206 L 68.845833333333 122.894 L 73.2875 127.624 L 77.729166666667 130.118 L 82.170833333333 134.418 L 86.6125 135.278 L 91.054166666667 135.622 L 95.495833333333 135.708 L 99.9375 125.044 L 104.37916666667 115.756 L 108.82083333333 109.994 L 113.2625 116.014 L 117.70416666667 121.002 L 122.14583333333 126.764 L 126.5875 133.042 L 131.02916666667 136.31 L 135.47083333333 137.858 L 139.9125 137.858 L 144.35416666667 140.008 L 148.79583333333 137.342 L 153.2375 134.332 L 157.67916666667 125.216 L 162.12083333333 121.862 L 166.5625 126.85 L 171.00416666667 127.194 L 175.44583333333 133.902 L 179.8875 137.17 L 184.32916666667 140.438 L 188.77083333333 141.126 L 193.2125 141.384 L 197.65416666667 139.664 L 202.09583333333 139.234 L 206.5375 133.644 L 210.97916666667 122.722 L 215.42083333333 119.11 L 219.8625 125.56 L 224.30416666667 128.398 L 228.74583333333 133.816 L 233.1875 140.18 L 237.62916666667 144.308 L 242.07083333333 146.716 L 246.5125 146.888 L 250.95416666667 149.726 L 255.39583333333 145.77 L 259.8375 136.826 L 264.27916666667 126.764 L 268.72083333333 123.238 L 273.1625 126.076 L 277.60416666667 117.734 L 282.04583333333 111.886 L 286.4875 107.07 L 290.92916666667 108.188 L 295.37083333333 109.22 L 299.8125 114.466 L 304.25416666667 113.864 L 308.69583333333 113.434 L 313.1375 110.252 L 317.57916666667 96.492 L 322.02083333333 94.256 L 326.4625 98.298 L 330.90416666667 100.276 L 335.34583333333 108.102 L 339.7875 114.638 L 344.22916666667 120.056 L 348.67083333333 124.27 L 353.1125 126.592 L 357.55416666667 132.01 L 361.99583333333 134.59 L 366.4375 130.806 L 370.87916666667 124.27 L 375.32083333333 122.722 L 379.7625 126.764 L 384.20416666667 132.01 L 388.64583333333 136.052 L 393.0875 142.674 L 397.52916666667 145.254 L 401.97083333333 146.63 L 406.4125 149.382 L 410.85416666667 151.016 L 415.29583333333 149.984 L 419.7375 146.63 L 424.17916666667 136.052 L 428.62083333333 132.44 L 433.0625 130.978 L 437.50416666667 134.676 L 441.94583333333 136.654 L 446.3875 139.234 L 450.82916666667 139.922 L 455.27083333333 138.288 L 459.7125 135.708 L 464.15416666667 137.6 L 468.59583333333 132.096 L 473.0375 125.56 L 477.47916666667 114.638 L 481.92083333333 106.554 L 486.3625 109.65 L 490.80416666667 111.972 L 495.24583333333 113.95 L 499.6875 117.906 L 504.12916666667 118.938 L 508.57083333333 116.272 L 513.0125 117.648 L 517.45416666667 121.174 L 521.89583333333 117.132 L 526.3375 109.908 L 530.77916666667 96.836" class="highcharts-graph" data-z-index="1" stroke="#008AC3" stroke-width="2" stroke-linejoin="round" stroke-linecap="round" filter="none"></path><path fill="none" d="M 2.2208333333333 122.206 L 6.6625 124.184 L 11.104166666667 127.538 L 15.545833333333 131.15 L 19.9875 134.676 L 24.429166666667 139.836 L 28.870833333333 143.276 L 33.3125 143.706 L 37.754166666667 138.546 L 42.195833333333 137.17 L 46.6375 131.752 L 51.079166666667 127.796 L 55.520833333333 119.884 L 59.9625 119.024 L 64.404166666667 122.206 L 68.845833333333 122.894 L 73.2875 127.624 L 77.729166666667 130.118 L 82.170833333333 134.418 L 86.6125 135.278 L 91.054166666667 135.622 L 95.495833333333 135.708 L 99.9375 125.044 L 104.37916666667 115.756 L 108.82083333333 109.994 L 113.2625 116.014 L 117.70416666667 121.002 L 122.14583333333 126.764 L 126.5875 133.042 L 131.02916666667 136.31 L 135.47083333333 137.858 L 139.9125 137.858 L 144.35416666667 140.008 L 148.79583333333 137.342 L 153.2375 134.332 L 157.67916666667 125.216 L 162.12083333333 121.862 L 166.5625 126.85 L 171.00416666667 127.194 L 175.44583333333 133.902 L 179.8875 137.17 L 184.32916666667 140.438 L 188.77083333333 141.126 L 193.2125 141.384 L 197.65416666667 139.664 L 202.09583333333 139.234 L 206.5375 133.644 L 210.97916666667 122.722 L 215.42083333333 119.11 L 219.8625 125.56 L 224.30416666667 128.398 L 228.74583333333 133.816 L 233.1875 140.18 L 237.62916666667 144.308 L 242.07083333333 146.716 L 246.5125 146.888 L 250.95416666667 149.726 L 255.39583333333 145.77 L 259.8375 136.826 L 264.27916666667 126.764 L 268.72083333333 123.238 L 273.1625 126.076 L 277.60416666667 117.734 L 282.04583333333 111.886 L 286.4875 107.07 L 290.92916666667 108.188 L 295.37083333333 109.22 L 299.8125 114.466 L 304.25416666667 113.864 L 308.69583333333 113.434 L 313.1375 110.252 L 317.57916666667 96.492 L 322.02083333333 94.256 L 326.4625 98.298 L 330.90416666667 100.276 L 335.34583333333 108.102 L 339.7875 114.638 L 344.22916666667 120.056 L 348.67083333333 124.27 L 353.1125 126.592 L 357.55416666667 132.01 L 361.99583333333 134.59 L 366.4375 130.806 L 370.87916666667 124.27 L 375.32083333333 122.722 L 379.7625 126.764 L 384.20416666667 132.01 L 388.64583333333 136.052 L 393.0875 142.674 L 397.52916666667 145.254 L 401.97083333333 146.63 L 406.4125 149.382 L 410.85416666667 151.016 L 415.29583333333 149.984 L 419.7375 146.63 L 424.17916666667 136.052 L 428.62083333333 132.44 L 433.0625 130.978 L 437.50416666667 134.676 L 441.94583333333 136.654 L 446.3875 139.234 L 450.82916666667 139.922 L 455.27083333333 138.288 L 459.7125 135.708 L 464.15416666667 137.6 L 468.59583333333 132.096 L 473.0375 125.56 L 477.47916666667 114.638 L 481.92083333333 106.554 L 486.3625 109.65 L 490.80416666667 111.972 L 495.24583333333 113.95 L 499.6875 117.906 L 504.12916666667 118.938 L 508.57083333333 116.272 L 513.0125 117.648 L 517.45416666667 121.174 L 521.89583333333 117.132 L 526.3375 109.908 L 530.77916666667 96.836" data-z-index="2" class="highcharts-tracker-line" stroke-linecap="round" stroke-linejoin="round" stroke="rgba(192,192,192,0.0001)" stroke-width="22"></path></g><g class="highcharts-markers highcharts-series-1 highcharts-line-series highcharts-tracker" data-z-index="0.1" opacity="1" transform="translate(57,100) scale(1 1)" clip-path="none"></g><g class="highcharts-series highcharts-series-2 highcharts-line-series" data-z-index="0.1" opacity="1" transform="translate(57,100) scale(1 1)" clip-path="url(#highcharts-5xdcn77-133-)"><path fill="none" d="M 2.2208333333333 204.938 L 6.6625 204.508 L 11.104166666667 204.164 L 15.545833333333 204.508 L 19.9875 204.938 L 24.429166666667 204.164 L 28.870833333333 204.938 L 33.3125 205.11 L 37.754166666667 204.68 L 42.195833333333 204.164 L 46.6375 203.648 L 51.079166666667 202.1 L 55.520833333333 202.186 L 59.9625 200.724 L 64.404166666667 200.896 L 68.845833333333 199.09 L 73.2875 199.004 L 77.729166666667 200.122 L 82.170833333333 200.122 L 86.6125 200.81 L 91.054166666667 200.38 L 95.495833333333 199.778 L 99.9375 199.262 L 104.37916666667 197.37 L 108.82083333333 197.972 L 113.2625 197.972 L 117.70416666667 197.972 L 122.14583333333 199.692 L 126.5875 200.552 L 131.02916666667 199.606 L 135.47083333333 200.982 L 139.9125 201.326 L 144.35416666667 201.928 L 148.79583333333 202.1 L 153.2375 202.702 L 157.67916666667 201.842 L 162.12083333333 201.928 L 166.5625 202.186 L 171.00416666667 202.1 L 175.44583333333 202.014 L 179.8875 202.272 L 184.32916666667 204.508 L 188.77083333333 204.594 L 193.2125 205.024 L 197.65416666667 205.454 L 202.09583333333 203.39 L 206.5375 203.046 L 210.97916666667 201.068 L 215.42083333333 200.982 L 219.8625 201.756 L 224.30416666667 200.208 L 228.74583333333 201.24 L 233.1875 201.842 L 237.62916666667 202.014 L 242.07083333333 202.874 L 246.5125 203.734 L 250.95416666667 204.336 L 255.39583333333 204.68 L 259.8375 202.53 L 264.27916666667 201.756 L 268.72083333333 202.186 L 273.1625 201.928 L 277.60416666667 199.606 L 282.04583333333 198.402 L 286.4875 199.262 L 290.92916666667 199.434 L 295.37083333333 199.606 L 299.8125 199.864 L 304.25416666667 199.176 L 308.69583333333 197.112 L 313.1375 196.338 L 317.57916666667 194.704 L 322.02083333333 195.306 L 326.4625 194.876 L 330.90416666667 194.876 L 335.34583333333 194.618 L 339.7875 195.736 L 344.22916666667 197.542 L 348.67083333333 199.52 L 353.1125 199.778 L 357.55416666667 201.068 L 361.99583333333 201.756 L 366.4375 201.412 L 370.87916666667 200.208 L 375.32083333333 199.864 L 379.7625 200.294 L 384.20416666667 201.154 L 388.64583333333 202.358 L 393.0875 203.39 L 397.52916666667 204.594 L 401.97083333333 204.422 L 406.4125 203.648 L 410.85416666667 203.562 L 415.29583333333 202.53 L 419.7375 203.046 L 424.17916666667 201.928 L 428.62083333333 200.036 L 433.0625 199.434 L 437.50416666667 200.38 L 441.94583333333 199.606 L 446.3875 200.036 L 450.82916666667 200.552 L 455.27083333333 200.982 L 459.7125 200.724 L 464.15416666667 201.068 L 468.59583333333 200.122 L 473.0375 197.972 L 477.47916666667 196.596 L 481.92083333333 195.478 L 486.3625 196.768 L 490.80416666667 196.51 L 495.24583333333 197.456 L 499.6875 197.628 L 504.12916666667 197.026 L 508.57083333333 196.596 L 513.0125 195.994 L 517.45416666667 196.94 L 521.89583333333 196.768 L 526.3375 195.22 L 530.77916666667 194.188" class="highcharts-graph" data-z-index="1" stroke="#083038" stroke-width="2" stroke-linejoin="round" stroke-linecap="round" filter="none"></path><path fill="none" d="M 2.2208333333333 204.938 L 6.6625 204.508 L 11.104166666667 204.164 L 15.545833333333 204.508 L 19.9875 204.938 L 24.429166666667 204.164 L 28.870833333333 204.938 L 33.3125 205.11 L 37.754166666667 204.68 L 42.195833333333 204.164 L 46.6375 203.648 L 51.079166666667 202.1 L 55.520833333333 202.186 L 59.9625 200.724 L 64.404166666667 200.896 L 68.845833333333 199.09 L 73.2875 199.004 L 77.729166666667 200.122 L 82.170833333333 200.122 L 86.6125 200.81 L 91.054166666667 200.38 L 95.495833333333 199.778 L 99.9375 199.262 L 104.37916666667 197.37 L 108.82083333333 197.972 L 113.2625 197.972 L 117.70416666667 197.972 L 122.14583333333 199.692 L 126.5875 200.552 L 131.02916666667 199.606 L 135.47083333333 200.982 L 139.9125 201.326 L 144.35416666667 201.928 L 148.79583333333 202.1 L 153.2375 202.702 L 157.67916666667 201.842 L 162.12083333333 201.928 L 166.5625 202.186 L 171.00416666667 202.1 L 175.44583333333 202.014 L 179.8875 202.272 L 184.32916666667 204.508 L 188.77083333333 204.594 L 193.2125 205.024 L 197.65416666667 205.454 L 202.09583333333 203.39 L 206.5375 203.046 L 210.97916666667 201.068 L 215.42083333333 200.982 L 219.8625 201.756 L 224.30416666667 200.208 L 228.74583333333 201.24 L 233.1875 201.842 L 237.62916666667 202.014 L 242.07083333333 202.874 L 246.5125 203.734 L 250.95416666667 204.336 L 255.39583333333 204.68 L 259.8375 202.53 L 264.27916666667 201.756 L 268.72083333333 202.186 L 273.1625 201.928 L 277.60416666667 199.606 L 282.04583333333 198.402 L 286.4875 199.262 L 290.92916666667 199.434 L 295.37083333333 199.606 L 299.8125 199.864 L 304.25416666667 199.176 L 308.69583333333 197.112 L 313.1375 196.338 L 317.57916666667 194.704 L 322.02083333333 195.306 L 326.4625 194.876 L 330.90416666667 194.876 L 335.34583333333 194.618 L 339.7875 195.736 L 344.22916666667 197.542 L 348.67083333333 199.52 L 353.1125 199.778 L 357.55416666667 201.068 L 361.99583333333 201.756 L 366.4375 201.412 L 370.87916666667 200.208 L 375.32083333333 199.864 L 379.7625 200.294 L 384.20416666667 201.154 L 388.64583333333 202.358 L 393.0875 203.39 L 397.52916666667 204.594 L 401.97083333333 204.422 L 406.4125 203.648 L 410.85416666667 203.562 L 415.29583333333 202.53 L 419.7375 203.046 L 424.17916666667 201.928 L 428.62083333333 200.036 L 433.0625 199.434 L 437.50416666667 200.38 L 441.94583333333 199.606 L 446.3875 200.036 L 450.82916666667 200.552 L 455.27083333333 200.982 L 459.7125 200.724 L 464.15416666667 201.068 L 468.59583333333 200.122 L 473.0375 197.972 L 477.47916666667 196.596 L 481.92083333333 195.478 L 486.3625 196.768 L 490.80416666667 196.51 L 495.24583333333 197.456 L 499.6875 197.628 L 504.12916666667 197.026 L 508.57083333333 196.596 L 513.0125 195.994 L 517.45416666667 196.94 L 521.89583333333 196.768 L 526.3375 195.22 L 530.77916666667 194.188" data-z-index="2" class="highcharts-tracker-line" stroke-linecap="round" stroke-linejoin="round" stroke="rgba(192,192,192,0.0001)" stroke-width="22"></path></g><g class="highcharts-markers highcharts-series-2 highcharts-line-series highcharts-tracker" data-z-index="0.1" opacity="1" transform="translate(57,100) scale(1 1)" clip-path="none"></g><g class="highcharts-series highcharts-series-3 highcharts-line-series" data-z-index="0.1" opacity="1" transform="translate(57,100) scale(1 1)" clip-path="url(#highcharts-5xdcn77-133-)"><path fill="none" d="M 2.2208333333333 137.858 L 6.6625 139.922 L 11.104166666667 140.352 L 15.545833333333 142.674 L 19.9875 143.19 L 24.429166666667 144.308 L 28.870833333333 148.178 L 33.3125 148.608 L 37.754166666667 145.082 L 42.195833333333 143.448 L 46.6375 141.298 L 51.079166666667 136.74 L 55.520833333333 134.848 L 59.9625 132.44 L 64.404166666667 136.396 L 68.845833333333 135.966 L 73.2875 140.008 L 77.729166666667 143.534 L 82.170833333333 145.684 L 86.6125 145.598 L 91.054166666667 146.888 L 95.495833333333 146.2 L 99.9375 142.846 L 104.37916666667 138.976 L 108.82083333333 136.482 L 113.2625 135.192 L 117.70416666667 138.632 L 122.14583333333 143.018 L 126.5875 144.48 L 131.02916666667 144.05 L 135.47083333333 146.114 L 139.9125 145.77 L 144.35416666667 149.984 L 148.79583333333 148.522 L 153.2375 147.576 L 157.67916666667 142.674 L 162.12083333333 141.04 L 166.5625 144.136 L 171.00416666667 144.308 L 175.44583333333 147.834 L 179.8875 151.532 L 184.32916666667 154.714 L 188.77083333333 157.036 L 193.2125 157.724 L 197.65416666667 157.466 L 202.09583333333 156.778 L 206.5375 155.144 L 210.97916666667 152.048 L 215.42083333333 149.726 L 219.8625 151.962 L 224.30416666667 155.488 L 228.74583333333 156.606 L 233.1875 157.896 L 237.62916666667 161.078 L 242.07083333333 162.798 L 246.5125 162.368 L 250.95416666667 161.68 L 255.39583333333 159.702 L 259.8375 159.1 L 264.27916666667 154.628 L 268.72083333333 153.252 L 273.1625 155.144 L 277.60416666667 151.446 L 282.04583333333 145.082 L 286.4875 142.76 L 290.92916666667 141.126 L 295.37083333333 139.664 L 299.8125 140.266 L 304.25416666667 141.728 L 308.69583333333 141.814 L 313.1375 140.782 L 317.57916666667 133.988 L 322.02083333333 132.01 L 326.4625 130.72 L 330.90416666667 131.322 L 335.34583333333 134.676 L 339.7875 138.288 L 344.22916666667 141.212 L 348.67083333333 143.534 L 353.1125 142.932 L 357.55416666667 146.2 L 361.99583333333 147.662 L 366.4375 148.78 L 370.87916666667 146.544 L 375.32083333333 146.028 L 379.7625 146.716 L 384.20416666667 149.726 L 388.64583333333 148.35 L 393.0875 145.684 L 397.52916666667 148.436 L 401.97083333333 150.586 L 406.4125 150.156 L 410.85416666667 152.65 L 415.29583333333 154.714 L 419.7375 152.908 L 424.17916666667 152.736 L 428.62083333333 150.5 L 433.0625 150.672 L 437.50416666667 154.628 L 441.94583333333 155.144 L 446.3875 158.068 L 450.82916666667 157.208 L 455.27083333333 156.778 L 459.7125 155.746 L 464.15416666667 154.112 L 468.59583333333 149.124 L 473.0375 144.05 L 477.47916666667 137.686 L 481.92083333333 130.806 L 486.3625 131.15 L 490.80416666667 131.064 L 495.24583333333 129.946 L 499.6875 134.332 L 504.12916666667 137.686 L 508.57083333333 134.16 L 513.0125 133.73 L 517.45416666667 137.858 L 521.89583333333 138.288 L 526.3375 135.708 L 530.77916666667 131.15" class="highcharts-graph" data-z-index="1" stroke="#FF8028" stroke-width="2" stroke-linejoin="round" stroke-linecap="round" filter="none"></path><path fill="none" d="M 2.2208333333333 137.858 L 6.6625 139.922 L 11.104166666667 140.352 L 15.545833333333 142.674 L 19.9875 143.19 L 24.429166666667 144.308 L 28.870833333333 148.178 L 33.3125 148.608 L 37.754166666667 145.082 L 42.195833333333 143.448 L 46.6375 141.298 L 51.079166666667 136.74 L 55.520833333333 134.848 L 59.9625 132.44 L 64.404166666667 136.396 L 68.845833333333 135.966 L 73.2875 140.008 L 77.729166666667 143.534 L 82.170833333333 145.684 L 86.6125 145.598 L 91.054166666667 146.888 L 95.495833333333 146.2 L 99.9375 142.846 L 104.37916666667 138.976 L 108.82083333333 136.482 L 113.2625 135.192 L 117.70416666667 138.632 L 122.14583333333 143.018 L 126.5875 144.48 L 131.02916666667 144.05 L 135.47083333333 146.114 L 139.9125 145.77 L 144.35416666667 149.984 L 148.79583333333 148.522 L 153.2375 147.576 L 157.67916666667 142.674 L 162.12083333333 141.04 L 166.5625 144.136 L 171.00416666667 144.308 L 175.44583333333 147.834 L 179.8875 151.532 L 184.32916666667 154.714 L 188.77083333333 157.036 L 193.2125 157.724 L 197.65416666667 157.466 L 202.09583333333 156.778 L 206.5375 155.144 L 210.97916666667 152.048 L 215.42083333333 149.726 L 219.8625 151.962 L 224.30416666667 155.488 L 228.74583333333 156.606 L 233.1875 157.896 L 237.62916666667 161.078 L 242.07083333333 162.798 L 246.5125 162.368 L 250.95416666667 161.68 L 255.39583333333 159.702 L 259.8375 159.1 L 264.27916666667 154.628 L 268.72083333333 153.252 L 273.1625 155.144 L 277.60416666667 151.446 L 282.04583333333 145.082 L 286.4875 142.76 L 290.92916666667 141.126 L 295.37083333333 139.664 L 299.8125 140.266 L 304.25416666667 141.728 L 308.69583333333 141.814 L 313.1375 140.782 L 317.57916666667 133.988 L 322.02083333333 132.01 L 326.4625 130.72 L 330.90416666667 131.322 L 335.34583333333 134.676 L 339.7875 138.288 L 344.22916666667 141.212 L 348.67083333333 143.534 L 353.1125 142.932 L 357.55416666667 146.2 L 361.99583333333 147.662 L 366.4375 148.78 L 370.87916666667 146.544 L 375.32083333333 146.028 L 379.7625 146.716 L 384.20416666667 149.726 L 388.64583333333 148.35 L 393.0875 145.684 L 397.52916666667 148.436 L 401.97083333333 150.586 L 406.4125 150.156 L 410.85416666667 152.65 L 415.29583333333 154.714 L 419.7375 152.908 L 424.17916666667 152.736 L 428.62083333333 150.5 L 433.0625 150.672 L 437.50416666667 154.628 L 441.94583333333 155.144 L 446.3875 158.068 L 450.82916666667 157.208 L 455.27083333333 156.778 L 459.7125 155.746 L 464.15416666667 154.112 L 468.59583333333 149.124 L 473.0375 144.05 L 477.47916666667 137.686 L 481.92083333333 130.806 L 486.3625 131.15 L 490.80416666667 131.064 L 495.24583333333 129.946 L 499.6875 134.332 L 504.12916666667 137.686 L 508.57083333333 134.16 L 513.0125 133.73 L 517.45416666667 137.858 L 521.89583333333 138.288 L 526.3375 135.708 L 530.77916666667 131.15" data-z-index="2" class="highcharts-tracker-line" stroke-linecap="round" stroke-linejoin="round" stroke="rgba(192,192,192,0.0001)" stroke-width="22"></path></g><g class="highcharts-markers highcharts-series-3 highcharts-line-series highcharts-tracker" data-z-index="0.1" opacity="1" transform="translate(57,100) scale(1 1)" clip-path="none"></g></g><text x="10" text-anchor="start" class="highcharts-caption" data-z-index="4" style="font-size: 0.8em; fill: rgb(102, 102, 102);" text-align="left" y="357" transform-origin="10 15" transform="translate(0,0) scale(1 1)"></text><g class="highcharts-axis-labels highcharts-xaxis-labels" data-z-index="7"><text x="59.220833333333" text-anchor="middle" transform="translate(0,0)" style="cursor: default; font-size: 0.8em; fill: rgb(0, 0, 0);" y="342" opacity="1">2015</text><text x="112.52083333333" text-anchor="middle" transform="translate(0,0)" style="cursor: default; font-size: 0.8em; fill: rgb(0, 0, 0);" y="342" opacity="1">2016</text><text x="165.82083333333" text-anchor="middle" transform="translate(0,0)" style="cursor: default; font-size: 0.8em; fill: rgb(0, 0, 0);" y="342" opacity="1">2017</text><text x="219.12083333333" text-anchor="middle" transform="translate(0,0)" style="cursor: default; font-size: 0.8em; fill: rgb(0, 0, 0);" y="342" opacity="1">2018</text><text x="272.42083333333" text-anchor="middle" transform="translate(0,0)" style="cursor: default; font-size: 0.8em; fill: rgb(0, 0, 0);" y="342" opacity="1">2019</text><text x="325.72083333333" text-anchor="middle" transform="translate(0,0)" style="cursor: default; font-size: 0.8em; fill: rgb(0, 0, 0);" y="342" opacity="1">2020</text><text x="379.02083333333" text-anchor="middle" transform="translate(0,0)" style="cursor: default; font-size: 0.8em; fill: rgb(0, 0, 0);" y="342" opacity="1">2021</text><text x="432.32083333333" text-anchor="middle" transform="translate(0,0)" style="cursor: default; font-size: 0.8em; fill: rgb(0, 0, 0);" y="342" opacity="1">2022</text><text x="485.62083333333" text-anchor="middle" transform="translate(0,0)" style="cursor: default; font-size: 0.8em; fill: rgb(0, 0, 0);" y="342" opacity="1">2023</text><text x="538.92083333333" text-anchor="middle" transform="translate(0,0)" style="cursor: default; font-size: 0.8em; fill: rgb(0, 0, 0);" y="342" opacity="1">2024</text></g><g class="highcharts-axis-labels highcharts-yaxis-labels" data-z-index="7"><text x="42" text-anchor="end" transform="translate(0,0)" style="cursor: default; font-size: 0.8em; fill: rgb(0, 0, 0);" y="320" opacity="1">0</text><text x="42" text-anchor="end" transform="translate(0,0)" style="cursor: default; font-size: 0.8em; fill: rgb(0, 0, 0);" y="277" opacity="1">500</text><text x="42" text-anchor="end" transform="translate(0,0)" style="cursor: default; font-size: 0.8em; fill: rgb(0, 0, 0);" y="234" opacity="1">1,000</text><text x="42" text-anchor="end" transform="translate(0,0)" style="cursor: default; font-size: 0.8em; fill: rgb(0, 0, 0);" y="191" opacity="1">1,500</text><text x="42" text-anchor="end" transform="translate(0,0)" style="cursor: default; font-size: 0.8em; fill: rgb(0, 0, 0);" y="148" opacity="1">2,000</text><text x="42" text-anchor="end" transform="translate(0,0)" style="cursor: default; font-size: 0.8em; fill: rgb(0, 0, 0);" y="105" opacity="1">2,500</text></g><g class="highcharts-legend highcharts-no-tooltip" data-z-index="7" text-align="left" transform="translate(49,55)"><rect fill="none" class="highcharts-legend-box" rx="0" ry="0" stroke="#999999" stroke-width="0" filter="none" x="0" y="0" width="387" height="33"></rect><g data-z-index="1"><g><g class="highcharts-legend-item highcharts-line-series highcharts-color-undefined highcharts-series-0" data-z-index="1" transform="translate(8,3)"><path fill="none" class="highcharts-graph" stroke-width="2" stroke-linecap="round" d="M 1 13 L 15 13" stroke="#B00000"></path><text x="21" text-anchor="start" data-z-index="2" style="cursor: pointer; font-size: 0.8em; text-decoration: none; font-weight: normal; fill: rgb(51, 51, 51);" y="17">Schweiz</text></g><g class="highcharts-legend-item highcharts-line-series highcharts-color-undefined highcharts-series-1" data-z-index="1" transform="translate(87.26246643066406,3)"><path fill="none" class="highcharts-graph" stroke-width="2" stroke-linecap="round" d="M 1 13 L 15 13" stroke="#008AC3"></path><text x="21" y="17" text-anchor="start" data-z-index="2" style="cursor: pointer; font-size: 0.8em; text-decoration: none; font-weight: normal; fill: rgb(51, 51, 51);">EU15/EFTA</text></g><g class="highcharts-legend-item highcharts-line-series highcharts-color-undefined highcharts-series-2" data-z-index="1" transform="translate(187.06240844726562,3)"><path fill="none" class="highcharts-graph" stroke-width="2" stroke-linecap="round" d="M 1 13 L 15 13" stroke="#083038"></path><text x="21" y="17" text-anchor="start" data-z-index="2" style="cursor: pointer; font-size: 0.8em; text-decoration: none; font-weight: normal; fill: rgb(51, 51, 51);">EU seit 2004</text></g><g class="highcharts-legend-item highcharts-line-series highcharts-color-undefined highcharts-series-3" data-z-index="1" transform="translate(292.23109436035156,3)"><path fill="none" class="highcharts-graph" stroke-width="2" stroke-linecap="round" d="M 1 13 L 15 13" stroke="#FF8028"></path><text x="21" y="17" text-anchor="start" data-z-index="2" style="cursor: pointer; font-size: 0.8em; text-decoration: none; font-weight: normal; fill: rgb(51, 51, 51);">Drittstaaten</text></g></g></g></g></svg>