<?xml version="1.0" standalone="no"?>
<!DOCTYPE svg PUBLIC "-//W3C//DTD SVG 1.1//EN" "http://www.w3.org/Graphics/SVG/1.1/DTD/svg11.dtd">
<svg xmlns:xlink="http://www.w3.org/1999/xlink" version="1.1" class="highcharts-root" style="font-family:Arial;font-size:12px;" xmlns="http://www.w3.org/2000/svg" viewBox="0 0 485 415">
  <desc>
    Created with Highstock 6.1.0
  </desc>
  <defs>
    <clipPath>
      <rect x="0" y="0" width="432" height="169" fill="none"/>
    </clipPath>
    <clipPath id="a">
      <rect x="0" y="0" width="432" height="169" fill="none"/>
    </clipPath>
  </defs>
  <rect fill="#fbfbfb" class="highcharts-background" x="0" y="0" width="485" height="415" rx="0" ry="0"/>
  <rect fill="none" class="highcharts-plot-background" x="43" y="180" width="432" height="169"/>
  <g class="highcharts-pane-group"/>
  <g class="highcharts-grid highcharts-xaxis-grid ">
    <path fill="none" class="highcharts-grid-line" d="M 44.5 180 L 44.5 349" opacity="1"/>
    <path fill="none" class="highcharts-grid-line" d="M 87.5 180 L 87.5 349" opacity="1"/>
    <path fill="none" class="highcharts-grid-line" d="M 130.5 180 L 130.5 349" opacity="1"/>
    <path fill="none" class="highcharts-grid-line" d="M 173.5 180 L 173.5 349" opacity="1"/>
    <path fill="none" class="highcharts-grid-line" d="M 217.5 180 L 217.5 349" opacity="1"/>
    <path fill="none" class="highcharts-grid-line" d="M 260.5 180 L 260.5 349" opacity="1"/>
    <path fill="none" class="highcharts-grid-line" d="M 303.5 180 L 303.5 349" opacity="1"/>
    <path fill="none" class="highcharts-grid-line" d="M 346.5 180 L 346.5 349" opacity="1"/>
    <path fill="none" class="highcharts-grid-line" d="M 389.5 180 L 389.5 349" opacity="1"/>
    <path fill="none" class="highcharts-grid-line" d="M 433.5 180 L 433.5 349" opacity="1"/>
  </g>
  <g class="highcharts-grid highcharts-yaxis-grid ">
    <path fill="none" stroke="#B9CFD7" stroke-width="0.5" class="highcharts-grid-line" d="M 43 349.25 L 475 349.25" opacity="1"/>
    <path fill="none" stroke="#B9CFD7" stroke-width="0.5" class="highcharts-grid-line" d="M 43 293.25 L 475 293.25" opacity="1"/>
    <path fill="none" stroke="#B9CFD7" stroke-width="0.5" class="highcharts-grid-line" d="M 43 236.25 L 475 236.25" opacity="1"/>
    <path fill="none" stroke="#B9CFD7" stroke-width="0.5" class="highcharts-grid-line" d="M 43 179.75 L 475 179.75" opacity="1"/>
  </g>
  <rect fill="none" class="highcharts-plot-border" x="43" y="180" width="432" height="169"/>
  <g class="highcharts-axis highcharts-xaxis ">
    <path fill="none" class="highcharts-axis-line" stroke="#B9CFD7" stroke-width="0.5" d="M 43 349.25 L 475 349.25"/>
  </g>
  <g class="highcharts-axis highcharts-yaxis ">
    <path fill="none" class="highcharts-axis-line" d="M 43 180 L 43 349"/>
  </g>
  <g class="highcharts-series-group">
    <g class="highcharts-series highcharts-series-0 highcharts-line-series " transform="translate(43,180) scale(1 1)" clip-path="url(#a)">
      <path fill="none" d="M 1.8 114.01866666666666 L 5.4 115.596 L 9 117.17333333333333 L 12.6 116.72266666666667 L 16.2 118.30000000000001 L 19.8 118.976 L 23.4 119.652 L 27 119.652 L 30.6 115.596 L 34.2 114.244 L 37.8 114.69466666666668 L 41.4 106.132 L 45 103.20266666666667 L 48.6 101.17466666666667 L 52.2 97.56933333333333 L 55.8 92.83733333333333 L 59.4 89.908 L 63 89.45733333333334 L 66.6 90.584 L 70.2 99.59733333333334 L 73.8 95.09066666666666 L 77.4 92.16133333333333 L 81 93.288 L 84.6 93.06266666666667 L 88.2 95.09066666666666 L 91.8 97.56933333333333 L 95.4 99.372 L 99 103.87866666666667 L 102.6 102.97733333333333 L 106.2 106.58266666666667 L 109.8 109.512 L 113.4 115.37066666666666 L 117 118.75066666666666 L 120.6 120.55333333333334 L 124.2 119.20133333333334 L 127.8 120.55333333333334 L 131.4 120.10266666666666 L 135 121.00399999999999 L 138.6 120.10266666666666 L 142.2 126.412 L 145.8 127.98933333333333 L 149.4 129.11599999999999 L 153 123.25733333333334 L 156.6 125.06 L 160.2 122.13066666666667 L 163.8 120.55333333333334 L 167.4 120.55333333333334 L 171 116.27199999999999 L 174.6 110.864 L 178.2 106.35733333333334 L 181.8 109.28666666666666 L 185.4 113.11733333333333 L 189 113.34266666666667 L 192.6 116.49733333333333 L 196.2 114.69466666666668 L 199.8 114.92 L 203.4 114.92 L 207 113.11733333333333 L 210.6 107.48400000000001 L 214.2 104.32933333333334 L 217.8 98.02 L 221.4 99.372 L 225 102.07600000000001 L 228.6 103.87866666666667 L 232.2 100.94933333333333 L 235.8 103.65333333333334 L 239.4 106.35733333333334 L 243 106.58266666666667 L 246.6 106.80799999999999 L 250.2 110.188 L 253.8 106.35733333333334 L 257.4 103.87866666666667 L 261 101.62533333333333 L 264.6 101.62533333333333 L 268.2 105.456 L 271.8 106.80799999999999 L 275.4 110.63866666666667 L 279 115.82133333333334 L 282.6 117.17333333333333 L 286.2 114.46933333333334 L 289.8 113.79333333333334 L 293.4 112.892 L 297 112.21600000000001 L 300.6 111.53999999999999 L 304.2 108.16 L 307.8 108.61066666666667 L 311.4 109.06133333333334 L 315 109.73733333333334 L 318.6 110.864 L 322.2 110.63866666666667 L 325.8 116.49733333333333 L 329.4 115.37066666666666 L 333 112.892 L 336.6 113.568 L 340.2 114.01866666666666 L 343.8 114.92 L 347.4 106.58266666666667 L 351 103.65333333333334 L 354.6 103.87866666666667 L 358.2 100.94933333333333 L 361.8 100.94933333333333 L 365.4 102.752 L 369 101.17466666666667 L 372.6 97.11866666666667 L 376.2 100.724 L 379.8 98.92133333333334 L 383.4 101.4 L 387 95.54133333333334 L 390.6 94.64 L 394.2 98.47066666666667 L 397.8 102.07600000000001 L 401.4 104.32933333333334 L 405 114.92 L 408.6 115.82133333333334 L 412.2 118.07466666666667 L 415.8 117.39866666666667 L 419.4 121.68 L 423 120.10266666666666 L 426.6 120.10266666666666 L 430.2 116.72266666666667" class="highcharts-graph" stroke="#E7CEE2" stroke-width="2" stroke-linejoin="round" stroke-linecap="round"/>
    </g>
    <g class="highcharts-markers highcharts-series-0 highcharts-line-series " transform="translate(43,180) scale(1 1)" clip-path="none"/>
    <g class="highcharts-series highcharts-series-1 highcharts-line-series " transform="translate(43,180) scale(1 1)" clip-path="url(#a)">
      <path fill="none" d="M 1.8 162.24 L 5.4 161.33866666666665 L 9 160.888 L 12.6 161.11333333333334 L 16.2 161.78933333333333 L 19.8 161.11333333333334 L 23.4 161.564 L 27 162.01466666666667 L 30.6 161.11333333333334 L 34.2 161.11333333333334 L 37.8 161.11333333333334 L 41.4 159.31066666666666 L 45 159.08533333333332 L 48.6 159.76133333333334 L 52.2 159.76133333333334 L 55.8 160.212 L 59.4 160.66266666666667 L 63 157.95866666666666 L 66.6 157.73333333333335 L 70.2 155.70533333333333 L 73.8 156.60666666666665 L 77.4 157.508 L 81 156.60666666666665 L 84.6 153.00133333333332 L 88.2 151.87466666666666 L 91.8 151.64933333333335 L 95.4 150.52266666666668 L 99 150.52266666666668 L 102.6 150.52266666666668 L 106.2 150.072 L 109.8 150.97333333333333 L 113.4 150.748 L 117 152.32533333333333 L 120.6 153.90266666666668 L 124.2 152.776 L 127.8 151.64933333333335 L 131.4 149.84666666666666 L 135 149.17066666666668 L 138.6 149.17066666666668 L 142.2 152.1 L 145.8 150.748 L 149.4 149.17066666666668 L 153 146.91733333333335 L 156.6 147.368 L 160.2 145.34 L 163.8 146.016 L 167.4 144.88933333333333 L 171 142.86133333333333 L 174.6 142.41066666666666 L 178.2 142.18533333333335 L 181.8 144.21333333333334 L 185.4 143.53733333333332 L 189 141.73466666666667 L 192.6 143.312 L 196.2 142.18533333333335 L 199.8 142.41066666666666 L 203.4 140.83333333333334 L 207 138.58 L 210.6 140.15733333333333 L 214.2 140.15733333333333 L 217.8 141.05866666666668 L 221.4 142.18533333333335 L 225 141.50933333333333 L 228.6 142.86133333333333 L 232.2 146.016 L 235.8 147.14266666666666 L 239.4 147.14266666666666 L 243 147.14266666666666 L 246.6 147.81866666666667 L 250.2 144.88933333333333 L 253.8 144.664 L 257.4 141.96 L 261 139.70666666666668 L 264.6 140.608 L 268.2 141.96 L 271.8 139.93200000000002 L 275.4 140.83333333333334 L 279 142.18533333333335 L 282.6 141.96 L 286.2 143.312 L 289.8 140.608 L 293.4 139.93200000000002 L 297 140.15733333333333 L 300.6 141.50933333333333 L 304.2 139.03066666666666 L 307.8 136.77733333333333 L 311.4 137.228 L 315 136.552 L 318.6 137.228 L 322.2 136.552 L 325.8 135.65066666666667 L 329.4 136.552 L 333 139.256 L 336.6 138.80533333333332 L 340.2 137.904 L 343.8 136.77733333333333 L 347.4 136.552 L 351 138.35466666666667 L 354.6 139.256 L 358.2 137.00266666666667 L 361.8 137.45333333333332 L 365.4 138.12933333333334 L 369 137.45333333333332 L 372.6 138.12933333333334 L 376.2 137.228 L 379.8 135.876 L 383.4 135.876 L 387 135.2 L 390.6 137.904 L 394.2 139.03066666666666 L 397.8 139.70666666666668 L 401.4 139.48133333333334 L 405 141.73466666666667 L 408.6 143.53733333333332 L 412.2 144.43866666666668 L 415.8 143.988 L 419.4 146.91733333333335 L 423 144.88933333333333 L 426.6 144.88933333333333 L 430.2 145.34" class="highcharts-graph" stroke="#B375AB" stroke-width="2" stroke-linejoin="round" stroke-linecap="round"/>
    </g>
    <g class="highcharts-markers highcharts-series-1 highcharts-line-series " transform="translate(43,180) scale(1 1)" clip-path="none"/>
    <g class="highcharts-series highcharts-series-2 highcharts-line-series " transform="translate(43,180) scale(1 1)" clip-path="url(#a)">
      <path fill="none" d="M 1.8 90.35866666666666 L 5.4 94.64 L 9 106.80799999999999 L 12.6 113.34266666666667 L 16.2 115.37066666666666 L 19.8 114.46933333333334 L 23.4 118.976 L 27 121.00399999999999 L 30.6 118.976 L 34.2 109.06133333333334 L 37.8 85.62666666666667 L 41.4 62.19200000000001 L 45 59.488 L 48.6 61.06533333333333 L 52.2 64.22 L 55.8 79.768 L 59.4 85.62666666666667 L 63 94.18933333333334 L 66.6 107.03333333333333 L 70.2 109.28666666666666 L 73.8 107.03333333333333 L 77.4 104.32933333333334 L 81 102.752 L 84.6 98.24533333333333 L 88.2 96.89333333333333 L 91.8 94.41466666666666 L 95.4 104.55466666666666 L 99 110.63866666666667 L 102.6 114.92 L 106.2 119.42666666666668 L 109.8 126.63733333333333 L 113.4 128.44 L 117 130.69333333333333 L 120.6 132.94666666666666 L 124.2 130.01733333333334 L 127.8 121.90533333333333 L 131.4 118.52533333333334 L 135 116.04666666666667 L 138.6 118.976 L 142.2 126.63733333333333 L 145.8 125.51066666666667 L 149.4 125.51066666666667 L 153 130.46800000000002 L 156.6 129.11599999999999 L 160.2 127.088 L 163.8 120.55333333333334 L 167.4 103.20266666666667 L 171 74.58533333333334 L 174.6 56.784000000000006 L 178.2 51.60133333333333 L 181.8 64.44533333333334 L 185.4 79.54266666666666 L 189 94.86533333333334 L 192.6 107.70933333333333 L 196.2 116.49733333333333 L 199.8 124.15866666666668 L 203.4 124.60933333333332 L 207 115.37066666666666 L 210.6 100.27333333333334 L 214.2 62.41733333333333 L 217.8 55.432 L 221.4 61.29066666666667 L 225 73.684 L 228.6 89.00666666666667 L 232.2 102.07600000000001 L 235.8 110.41333333333333 L 239.4 117.624 L 243 121.00399999999999 L 246.6 117.84933333333333 L 250.2 110.188 L 253.8 89.00666666666667 L 257.4 59.71333333333334 L 261 59.488 L 264.6 68.05066666666667 L 268.2 76.16266666666667 L 271.8 91.03466666666667 L 275.4 104.78 L 279 115.37066666666666 L 282.6 118.976 L 286.2 120.77866666666667 L 289.8 114.69466666666668 L 293.4 101.17466666666667 L 297 74.81066666666666 L 300.6 34.92666666666668 L 304.2 34.476 L 307.8 41.68666666666667 L 311.4 48.897333333333336 L 315 65.79733333333334 L 318.6 81.796 L 322.2 95.316 L 325.8 103.20266666666667 L 329.4 105.00533333333334 L 333 100.49866666666667 L 336.6 89.00666666666667 L 340.2 64.896 L 343.8 42.13733333333333 L 347.4 33.57466666666667 L 351 38.08133333333333 L 354.6 46.86933333333333 L 358.2 53.629333333333335 L 361.8 68.50133333333333 L 365.4 77.28933333333333 L 369 93.288 L 372.6 98.92133333333334 L 376.2 98.02 L 379.8 95.316 L 383.4 71.20533333333333 L 387 38.30666666666667 L 390.6 29.744 L 394.2 46.41866666666667 L 397.8 59.71333333333334 L 401.4 75.712 L 405 89.232 L 408.6 98.92133333333334 L 412.2 108.16 L 415.8 105.68133333333333 L 419.4 111.76533333333333 L 423 104.55466666666666 L 426.6 85.62666666666667 L 430.2 55.432" class="highcharts-graph" stroke="#662673" stroke-width="2" stroke-linejoin="round" stroke-linecap="round"/>
    </g>
    <g class="highcharts-markers highcharts-series-2 highcharts-line-series " transform="translate(43,180) scale(1 1)" clip-path="none"/>
  </g>
  <text x="10" text-anchor="start" class="highcharts-title" style="color:#000000;font-size:14px;font-weight:bold;fill:#000000;" y="21">
    <tspan>Arbeitslose in Industrie und Baugewerbe</tspan>
  </text>
  <text x="10" text-anchor="start" class="highcharts-subtitle" style="color:#000000;font-size:12px;font-weight:normal;font-family:Arial;fill:#000000;" y="40">
    <tspan>Basel-Stadt</tspan>
  </text>
  <g class="highcharts-legend" transform="translate(35,100)">
    <rect fill="none" class="highcharts-legend-box" rx="0" ry="0" x="0" y="0" width="296" height="68" visibility="visible"/>
    <g>
      <g>
        <g class="highcharts-legend-item highcharts-line-series highcharts-color-undefined highcharts-series-0" transform="translate(8,3)">
          <path fill="none" d="M 0 11 L 16 11" class="highcharts-graph" stroke="#E7CEE2" stroke-width="2"/>
          <text x="21" style="color:#333333;font-size:12px;font-weight:normal;cursor:pointer;fill:#333333;" text-anchor="start" y="15">
            <tspan>Industrie (exkl. Chemie, Pharma)</tspan>
          </text>
        </g>
        <g class="highcharts-legend-item highcharts-line-series highcharts-color-undefined highcharts-series-1" transform="translate(8,22)">
          <path fill="none" d="M 0 11 L 16 11" class="highcharts-graph" stroke="#B375AB" stroke-width="2"/>
          <text x="21" y="15" style="color:#333333;font-size:12px;font-weight:normal;cursor:pointer;fill:#333333;" text-anchor="start">
            <tspan>Chemie, Pharma</tspan>
          </text>
        </g>
        <g class="highcharts-legend-item highcharts-line-series highcharts-color-undefined highcharts-series-2" transform="translate(8,41)">
          <path fill="none" d="M 0 11 L 16 11" class="highcharts-graph" stroke="#662673" stroke-width="2"/>
          <text x="21" y="15" style="color:#333333;font-size:12px;font-weight:normal;cursor:pointer;fill:#333333;" text-anchor="start">
            <tspan>Baugewerbe</tspan>
          </text>
        </g>
      </g>
    </g>
  </g>
  <g class="highcharts-axis-labels highcharts-xaxis-labels ">
    <text x="44.8" style="color:#000000;cursor:default;font-size:11px;fill:#000000;" text-anchor="middle" transform="translate(0,0)" y="368" opacity="1">
      2008
    </text>
    <text x="88" style="color:#000000;cursor:default;font-size:11px;fill:#000000;" text-anchor="middle" transform="translate(0,0)" y="368" opacity="1">
      2009
    </text>
    <text x="131.2" style="color:#000000;cursor:default;font-size:11px;fill:#000000;" text-anchor="middle" transform="translate(0,0)" y="368" opacity="1">
      2010
    </text>
    <text x="174.4" style="color:#000000;cursor:default;font-size:11px;fill:#000000;" text-anchor="middle" transform="translate(0,0)" y="368" opacity="1">
      2011
    </text>
    <text x="217.6" style="color:#000000;cursor:default;font-size:11px;fill:#000000;" text-anchor="middle" transform="translate(0,0)" y="368" opacity="1">
      2012
    </text>
    <text x="260.8" style="color:#000000;cursor:default;font-size:11px;fill:#000000;" text-anchor="middle" transform="translate(0,0)" y="368" opacity="1">
      2013
    </text>
    <text x="304" style="color:#000000;cursor:default;font-size:11px;fill:#000000;" text-anchor="middle" transform="translate(0,0)" y="368" opacity="1">
      2014
    </text>
    <text x="347.2" style="color:#000000;cursor:default;font-size:11px;fill:#000000;" text-anchor="middle" transform="translate(0,0)" y="368" opacity="1">
      2015
    </text>
    <text x="390.4" style="color:#000000;cursor:default;font-size:11px;fill:#000000;" text-anchor="middle" transform="translate(0,0)" y="368" opacity="1">
      2016
    </text>
    <text x="433.6" style="color:#000000;cursor:default;font-size:11px;fill:#000000;" text-anchor="middle" transform="translate(0,0)" y="368" opacity="1">
      2017
    </text>
  </g>
  <g class="highcharts-axis-labels highcharts-yaxis-labels ">
    <text x="28" style="color:#000000;cursor:default;font-size:11px;fill:#000000;" text-anchor="end" transform="translate(0,0)" y="354" opacity="1">
      0
    </text>
    <text x="28" style="color:#000000;cursor:default;font-size:11px;fill:#000000;" text-anchor="end" transform="translate(0,0)" y="297" opacity="1">
      250
    </text>
    <text x="28" style="color:#000000;cursor:default;font-size:11px;fill:#000000;" text-anchor="end" transform="translate(0,0)" y="241" opacity="1">
      500
    </text>
    <text x="28" style="color:#000000;cursor:default;font-size:11px;fill:#000000;" text-anchor="end" transform="translate(0,0)" y="185" opacity="1">
      750
    </text>
  </g>
  <text x="10" class="highcharts-credits" text-anchor="start" style="cursor:default;color:#000000;font-size:10px;fill:#000000;" y="400">
    <tspan>Quelle: Staatssekretariat für Wirtschaft SECO, Arbeitslosenstatistik</tspan>
  </text>
</svg>
