<?xml version="1.0" standalone="no"?><!DOCTYPE svg PUBLIC "-//W3C//DTD SVG 1.1//EN" "http://www.w3.org/Graphics/SVG/1.1/DTD/svg11.dtd"><svg xmlns:xlink="http://www.w3.org/1999/xlink" version="1.1" class="highcharts-root" style="font-family:Arial;font-size:12px;" xmlns="http://www.w3.org/2000/svg" viewBox="0 0 485 415"><desc>Created with Highstock 6.1.1</desc><defs><clipPath id="highcharts-gm9wozy-6"><rect x="0" y="0" width="434" height="266" fill="none"></rect></clipPath><clipPath id="highcharts-gm9wozy-7"><rect x="0" y="0" width="434" height="266" fill="none"></rect></clipPath></defs><rect fill="#fbfbfb" class="highcharts-background" x="0" y="0" width="485" height="415" rx="0" ry="0"></rect><rect fill="none" class="highcharts-plot-background" x="41" y="83" width="434" height="266"></rect><g class="highcharts-pane-group" data-z-index="0"></g><g class="highcharts-grid highcharts-xaxis-grid " data-z-index="1"><path fill="none" data-z-index="1" class="highcharts-grid-line" d="M 42.5 83 L 42.5 349" opacity="1"></path><path fill="none" data-z-index="1" class="highcharts-grid-line" d="M 85.5 83 L 85.5 349" opacity="1"></path><path fill="none" data-z-index="1" class="highcharts-grid-line" d="M 129.5 83 L 129.5 349" opacity="1"></path><path fill="none" data-z-index="1" class="highcharts-grid-line" d="M 172.5 83 L 172.5 349" opacity="1"></path><path fill="none" data-z-index="1" class="highcharts-grid-line" d="M 215.5 83 L 215.5 349" opacity="1"></path><path fill="none" data-z-index="1" class="highcharts-grid-line" d="M 259.5 83 L 259.5 349" opacity="1"></path><path fill="none" data-z-index="1" class="highcharts-grid-line" d="M 302.5 83 L 302.5 349" opacity="1"></path><path fill="none" data-z-index="1" class="highcharts-grid-line" d="M 346.5 83 L 346.5 349" opacity="1"></path><path fill="none" data-z-index="1" class="highcharts-grid-line" d="M 389.5 83 L 389.5 349" opacity="1"></path><path fill="none" data-z-index="1" class="highcharts-grid-line" d="M 432.5 83 L 432.5 349" opacity="1"></path></g><g class="highcharts-grid highcharts-yaxis-grid " data-z-index="1"><path fill="none" stroke="#B9CFD7" stroke-width="0.5" data-z-index="1" class="highcharts-grid-line" d="M 41 349.25 L 475 349.25" opacity="1"></path><path fill="none" stroke="#B9CFD7" stroke-width="0.5" data-z-index="1" class="highcharts-grid-line" d="M 41 296.25 L 475 296.25" opacity="1"></path><path fill="none" stroke="#B9CFD7" stroke-width="0.5" data-z-index="1" class="highcharts-grid-line" d="M 41 243.25 L 475 243.25" opacity="1"></path><path fill="none" stroke="#B9CFD7" stroke-width="0.5" data-z-index="1" class="highcharts-grid-line" d="M 41 189.25 L 475 189.25" opacity="1"></path><path fill="none" stroke="#B9CFD7" stroke-width="0.5" data-z-index="1" class="highcharts-grid-line" d="M 41 136.25 L 475 136.25" opacity="1"></path><path fill="none" stroke="#B9CFD7" stroke-width="0.5" data-z-index="1" class="highcharts-grid-line" d="M 41 82.75 L 475 82.75" opacity="1"></path></g><rect fill="none" class="highcharts-plot-border" data-z-index="1" x="41" y="83" width="434" height="266"></rect><g class="highcharts-axis highcharts-xaxis " data-z-index="2"><path fill="none" class="highcharts-axis-line" stroke="#B9CFD7" stroke-width="0.5" data-z-index="7" d="M 41 349.25 L 475 349.25"></path></g><g class="highcharts-axis highcharts-yaxis " data-z-index="2"><path fill="none" class="highcharts-axis-line" data-z-index="7" d="M 41 83 L 41 349"></path></g><g class="highcharts-series-group" data-z-index="3"><g data-z-index="0.1" class="highcharts-series highcharts-series-0 highcharts-line-series " transform="translate(41,83) scale(1 1)" clip-path="url(#highcharts-gm9wozy-7)"><path fill="none" d="M 1.8083333333333 79.79999999999998 L 5.425 79.79999999999998 L 9.0416666666667 74.48000000000002 L 12.658333333333 74.48000000000002 L 16.275 74.48000000000002 L 19.891666666667 69.16 L 23.508333333333 63.84 L 27.125 63.84 L 30.741666666667 58.52000000000001 L 34.358333333333 47.879999999999995 L 37.975 47.879999999999995 L 41.591666666667 31.920000000000016 L 45.208333333333 15.960000000000008 L 48.825 21.28 L 52.441666666667 31.920000000000016 L 56.058333333333 42.559999999999974 L 59.675 47.879999999999995 L 63.291666666667 53.19999999999999 L 66.908333333333 53.19999999999999 L 70.525 53.19999999999999 L 74.141666666667 53.19999999999999 L 77.758333333333 53.19999999999999 L 81.375 53.19999999999999 L 84.991666666667 42.559999999999974 L 88.608333333333 37.24000000000001 L 92.225 42.559999999999974 L 95.841666666667 47.879999999999995 L 99.458333333333 74.48000000000002 L 103.075 79.79999999999998 L 106.69166666667 85.11999999999998 L 110.30833333333 85.11999999999998 L 113.925 85.11999999999998 L 117.54166666667 79.79999999999998 L 121.15833333333 79.79999999999998 L 124.775 79.79999999999998 L 128.39166666667 69.16 L 132.00833333333 63.84 L 135.625 58.52000000000001 L 139.24166666667 69.16 L 142.85833333333 69.16 L 146.475 74.48000000000002 L 150.09166666667 85.11999999999998 L 153.70833333333 85.11999999999998 L 157.325 85.11999999999998 L 160.94166666667 79.79999999999998 L 164.55833333333 74.48000000000002 L 168.175 69.16 L 171.79166666667 58.52000000000001 L 175.40833333333 47.879999999999995 L 179.025 53.19999999999999 L 182.64166666667 58.52000000000001 L 186.25833333333 63.84 L 189.875 74.48000000000002 L 193.49166666667 79.79999999999998 L 197.10833333333 79.79999999999998 L 200.725 79.79999999999998 L 204.34166666667 74.48000000000002 L 207.95833333333 74.48000000000002 L 211.575 69.16 L 215.19166666667 58.52000000000001 L 218.80833333333 69.16 L 222.425 69.16 L 226.04166666667 74.48000000000002 L 229.65833333333 85.11999999999998 L 233.275 95.75999999999999 L 236.89166666667 101.08000000000001 L 240.50833333333 101.08000000000001 L 244.125 101.08000000000001 L 247.74166666667 95.75999999999999 L 251.35833333333 90.44 L 254.975 79.79999999999998 L 258.59166666667 69.16 L 262.20833333333 58.52000000000001 L 265.825 63.84 L 269.44166666667 63.84 L 273.05833333333 69.16 L 276.675 79.79999999999998 L 280.29166666667 79.79999999999998 L 283.90833333333 85.11999999999998 L 287.525 79.79999999999998 L 291.14166666667 74.48000000000002 L 294.75833333333 74.48000000000002 L 298.375 69.16 L 301.99166666667 63.84 L 305.60833333333 53.19999999999999 L 309.225 47.879999999999995 L 312.84166666667 53.19999999999999 L 316.45833333333 53.19999999999999 L 320.075 58.52000000000001 L 323.69166666667 63.84 L 327.30833333333 74.48000000000002 L 330.925 69.16 L 334.54166666667 69.16 L 338.15833333333 69.16 L 341.775 58.52000000000001 L 345.39166666667 47.879999999999995 L 349.00833333333 42.559999999999974 L 352.625 47.879999999999995 L 356.24166666667 53.19999999999999 L 359.85833333333 58.52000000000001 L 363.475 69.16 L 367.09166666667 74.48000000000002 L 370.70833333333 79.79999999999998 L 374.325 69.16 L 377.94166666667 79.79999999999998 L 381.55833333333 79.79999999999998 L 385.175 74.48000000000002 L 388.79166666667 69.16 L 392.40833333333 63.84 L 396.025 69.16 L 399.64166666667 74.48000000000002 L 403.25833333333 79.79999999999998 L 406.875 85.11999999999998 L 410.49166666667 95.75999999999999 L 414.10833333333 95.75999999999999 L 417.725 95.75999999999999 L 421.34166666667 95.75999999999999 L 424.95833333333 95.75999999999999 L 428.575 95.75999999999999 L 432.19166666667 79.79999999999998" class="highcharts-graph" data-z-index="1" stroke="#6F6F6F" stroke-width="2" stroke-linejoin="round" stroke-linecap="round"></path></g><g data-z-index="0.1" class="highcharts-markers highcharts-series-0 highcharts-line-series " transform="translate(41,83) scale(1 1)" clip-path="none"></g><g data-z-index="0.1" class="highcharts-series highcharts-series-1 highcharts-line-series " transform="translate(41,83) scale(1 1)" clip-path="url(#highcharts-gm9wozy-7)"><path fill="none" d="M 1.8083333333333 122.36000000000001 L 5.425 111.72 L 9.0416666666667 106.4 L 12.658333333333 101.08000000000001 L 16.275 95.75999999999999 L 19.891666666667 85.11999999999998 L 23.508333333333 79.79999999999998 L 27.125 79.79999999999998 L 30.741666666667 74.48000000000002 L 34.358333333333 74.48000000000002 L 37.975 69.16 L 41.591666666667 58.52000000000001 L 45.208333333333 69.16 L 48.825 69.16 L 52.441666666667 79.79999999999998 L 56.058333333333 85.11999999999998 L 59.675 90.44 L 63.291666666667 95.75999999999999 L 66.908333333333 95.75999999999999 L 70.525 95.75999999999999 L 74.141666666667 101.08000000000001 L 77.758333333333 101.08000000000001 L 81.375 95.75999999999999 L 84.991666666667 90.44 L 88.608333333333 95.75999999999999 L 92.225 101.08000000000001 L 95.841666666667 106.4 L 99.458333333333 117.03999999999999 L 103.075 127.68 L 106.69166666667 127.68 L 110.30833333333 133 L 113.925 133 L 117.54166666667 127.68 L 121.15833333333 133 L 124.775 127.68 L 128.39166666667 117.03999999999999 L 132.00833333333 111.72 L 135.625 111.72 L 139.24166666667 117.03999999999999 L 142.85833333333 117.03999999999999 L 146.475 122.36000000000001 L 150.09166666667 122.36000000000001 L 153.70833333333 127.68 L 157.325 127.68 L 160.94166666667 133 L 164.55833333333 127.68 L 168.175 122.36000000000001 L 171.79166666667 117.03999999999999 L 175.40833333333 111.72 L 179.025 117.03999999999999 L 182.64166666667 117.03999999999999 L 186.25833333333 117.03999999999999 L 189.875 122.36000000000001 L 193.49166666667 127.68 L 197.10833333333 127.68 L 200.725 127.68 L 204.34166666667 133 L 207.95833333333 127.68 L 211.575 122.36000000000001 L 215.19166666667 117.03999999999999 L 218.80833333333 117.03999999999999 L 222.425 117.03999999999999 L 226.04166666667 117.03999999999999 L 229.65833333333 117.03999999999999 L 233.275 127.68 L 236.89166666667 127.68 L 240.50833333333 127.68 L 244.125 133 L 247.74166666667 133 L 251.35833333333 133 L 254.975 127.68 L 258.59166666667 122.36000000000001 L 262.20833333333 117.03999999999999 L 265.825 122.36000000000001 L 269.44166666667 122.36000000000001 L 273.05833333333 122.36000000000001 L 276.675 122.36000000000001 L 280.29166666667 127.68 L 283.90833333333 122.36000000000001 L 287.525 127.68 L 291.14166666667 122.36000000000001 L 294.75833333333 122.36000000000001 L 298.375 111.72 L 301.99166666667 101.08000000000001 L 305.60833333333 101.08000000000001 L 309.225 101.08000000000001 L 312.84166666667 101.08000000000001 L 316.45833333333 106.4 L 320.075 111.72 L 323.69166666667 106.4 L 327.30833333333 111.72 L 330.925 106.4 L 334.54166666667 106.4 L 338.15833333333 111.72 L 341.775 106.4 L 345.39166666667 101.08000000000001 L 349.00833333333 101.08000000000001 L 352.625 101.08000000000001 L 356.24166666667 101.08000000000001 L 359.85833333333 111.72 L 363.475 111.72 L 367.09166666667 117.03999999999999 L 370.70833333333 117.03999999999999 L 374.325 117.03999999999999 L 377.94166666667 117.03999999999999 L 381.55833333333 122.36000000000001 L 385.175 111.72 L 388.79166666667 106.4 L 392.40833333333 106.4 L 396.025 106.4 L 399.64166666667 122.36000000000001 L 403.25833333333 138.32 L 406.875 154.27999999999997 L 410.49166666667 154.27999999999997 L 414.10833333333 159.6 L 417.725 159.6 L 421.34166666667 159.6 L 424.95833333333 159.6 L 428.575 159.6 L 432.19166666667 159.6" class="highcharts-graph" data-z-index="1" stroke="#FF8028" stroke-width="2" stroke-linejoin="round" stroke-linecap="round"></path></g><g data-z-index="0.1" class="highcharts-markers highcharts-series-1 highcharts-line-series " transform="translate(41,83) scale(1 1)" clip-path="none"></g><g data-z-index="0.1" class="highcharts-series highcharts-series-2 highcharts-line-series " transform="translate(41,83) scale(1 1)" clip-path="url(#highcharts-gm9wozy-7)"><path fill="none" d="M 1.8083333333333 111.72 L 5.425 106.4 L 9.0416666666667 101.08000000000001 L 12.658333333333 95.75999999999999 L 16.275 101.08000000000001 L 19.891666666667 90.44 L 23.508333333333 85.11999999999998 L 27.125 74.48000000000002 L 30.741666666667 69.16 L 34.358333333333 69.16 L 37.975 63.84 L 41.591666666667 58.52000000000001 L 45.208333333333 74.48000000000002 L 48.825 74.48000000000002 L 52.441666666667 79.79999999999998 L 56.058333333333 90.44 L 59.675 95.75999999999999 L 63.291666666667 106.4 L 66.908333333333 106.4 L 70.525 106.4 L 74.141666666667 111.72 L 77.758333333333 117.03999999999999 L 81.375 111.72 L 84.991666666667 106.4 L 88.608333333333 106.4 L 92.225 111.72 L 95.841666666667 117.03999999999999 L 99.458333333333 133 L 103.075 138.32 L 106.69166666667 143.64 L 110.30833333333 143.64 L 113.925 138.32 L 117.54166666667 138.32 L 121.15833333333 138.32 L 124.775 127.68 L 128.39166666667 122.36000000000001 L 132.00833333333 111.72 L 135.625 117.03999999999999 L 139.24166666667 122.36000000000001 L 142.85833333333 122.36000000000001 L 146.475 127.68 L 150.09166666667 133 L 153.70833333333 133 L 157.325 127.68 L 160.94166666667 127.68 L 164.55833333333 127.68 L 168.175 117.03999999999999 L 171.79166666667 106.4 L 175.40833333333 101.08000000000001 L 179.025 101.08000000000001 L 182.64166666667 111.72 L 186.25833333333 111.72 L 189.875 117.03999999999999 L 193.49166666667 127.68 L 197.10833333333 122.36000000000001 L 200.725 122.36000000000001 L 204.34166666667 122.36000000000001 L 207.95833333333 117.03999999999999 L 211.575 111.72 L 215.19166666667 101.08000000000001 L 218.80833333333 101.08000000000001 L 222.425 106.4 L 226.04166666667 111.72 L 229.65833333333 117.03999999999999 L 233.275 127.68 L 236.89166666667 127.68 L 240.50833333333 127.68 L 244.125 127.68 L 247.74166666667 122.36000000000001 L 251.35833333333 122.36000000000001 L 254.975 117.03999999999999 L 258.59166666667 106.4 L 262.20833333333 101.08000000000001 L 265.825 101.08000000000001 L 269.44166666667 106.4 L 273.05833333333 111.72 L 276.675 111.72 L 280.29166666667 117.03999999999999 L 283.90833333333 111.72 L 287.525 111.72 L 291.14166666667 111.72 L 294.75833333333 106.4 L 298.375 101.08000000000001 L 301.99166666667 90.44 L 305.60833333333 85.11999999999998 L 309.225 85.11999999999998 L 312.84166666667 90.44 L 316.45833333333 95.75999999999999 L 320.075 101.08000000000001 L 323.69166666667 106.4 L 327.30833333333 106.4 L 330.925 106.4 L 334.54166666667 106.4 L 338.15833333333 101.08000000000001 L 341.775 95.75999999999999 L 345.39166666667 90.44 L 349.00833333333 79.79999999999998 L 352.625 85.11999999999998 L 356.24166666667 90.44 L 359.85833333333 95.75999999999999 L 363.475 101.08000000000001 L 367.09166666667 106.4 L 370.70833333333 111.72 L 374.325 106.4 L 377.94166666667 111.72 L 381.55833333333 106.4 L 385.175 101.08000000000001 L 388.79166666667 90.44 L 392.40833333333 90.44 L 396.025 90.44 L 399.64166666667 111.72 L 403.25833333333 122.36000000000001 L 406.875 133 L 410.49166666667 138.32 L 414.10833333333 138.32 L 417.725 133 L 421.34166666667 133 L 424.95833333333 133 L 428.575 133 L 432.19166666667 122.36000000000001" class="highcharts-graph" data-z-index="1" stroke="#A8C3CA" stroke-width="2" stroke-linejoin="round" stroke-linecap="round"></path></g><g data-z-index="0.1" class="highcharts-markers highcharts-series-2 highcharts-line-series " transform="translate(41,83) scale(1 1)" clip-path="none"></g><g data-z-index="0.1" class="highcharts-series highcharts-series-3 highcharts-line-series " transform="translate(41,83) scale(1 1)" clip-path="url(#highcharts-gm9wozy-7)"><path fill="none" d="M 1.8083333333333 106.4 L 5.425 95.75999999999999 L 9.0416666666667 90.44 L 12.658333333333 85.11999999999998 L 16.275 90.44 L 19.891666666667 74.48000000000002 L 23.508333333333 63.84 L 27.125 58.52000000000001 L 30.741666666667 53.19999999999999 L 34.358333333333 42.559999999999974 L 37.975 37.24000000000001 L 41.591666666667 31.920000000000016 L 45.208333333333 47.879999999999995 L 48.825 53.19999999999999 L 52.441666666667 53.19999999999999 L 56.058333333333 63.84 L 59.675 74.48000000000002 L 63.291666666667 79.79999999999998 L 66.908333333333 85.11999999999998 L 70.525 85.11999999999998 L 74.141666666667 90.44 L 77.758333333333 95.75999999999999 L 81.375 90.44 L 84.991666666667 90.44 L 88.608333333333 85.11999999999998 L 92.225 90.44 L 95.841666666667 95.75999999999999 L 99.458333333333 111.72 L 103.075 122.36000000000001 L 106.69166666667 127.68 L 110.30833333333 127.68 L 113.925 127.68 L 117.54166666667 127.68 L 121.15833333333 122.36000000000001 L 124.775 117.03999999999999 L 128.39166666667 111.72 L 132.00833333333 106.4 L 135.625 101.08000000000001 L 139.24166666667 106.4 L 142.85833333333 111.72 L 146.475 111.72 L 150.09166666667 117.03999999999999 L 153.70833333333 117.03999999999999 L 157.325 111.72 L 160.94166666667 111.72 L 164.55833333333 106.4 L 168.175 101.08000000000001 L 171.79166666667 90.44 L 175.40833333333 85.11999999999998 L 179.025 90.44 L 182.64166666667 95.75999999999999 L 186.25833333333 95.75999999999999 L 189.875 101.08000000000001 L 193.49166666667 106.4 L 197.10833333333 101.08000000000001 L 200.725 101.08000000000001 L 204.34166666667 101.08000000000001 L 207.95833333333 101.08000000000001 L 211.575 90.44 L 215.19166666667 79.79999999999998 L 218.80833333333 85.11999999999998 L 222.425 85.11999999999998 L 226.04166666667 90.44 L 229.65833333333 95.75999999999999 L 233.275 106.4 L 236.89166666667 106.4 L 240.50833333333 106.4 L 244.125 106.4 L 247.74166666667 101.08000000000001 L 251.35833333333 101.08000000000001 L 254.975 95.75999999999999 L 258.59166666667 85.11999999999998 L 262.20833333333 79.79999999999998 L 265.825 79.79999999999998 L 269.44166666667 85.11999999999998 L 273.05833333333 85.11999999999998 L 276.675 90.44 L 280.29166666667 90.44 L 283.90833333333 90.44 L 287.525 90.44 L 291.14166666667 90.44 L 294.75833333333 85.11999999999998 L 298.375 74.48000000000002 L 301.99166666667 69.16 L 305.60833333333 63.84 L 309.225 63.84 L 312.84166666667 63.84 L 316.45833333333 74.48000000000002 L 320.075 74.48000000000002 L 323.69166666667 79.79999999999998 L 327.30833333333 79.79999999999998 L 330.925 79.79999999999998 L 334.54166666667 74.48000000000002 L 338.15833333333 74.48000000000002 L 341.775 69.16 L 345.39166666667 63.84 L 349.00833333333 58.52000000000001 L 352.625 58.52000000000001 L 356.24166666667 63.84 L 359.85833333333 74.48000000000002 L 363.475 79.79999999999998 L 367.09166666667 85.11999999999998 L 370.70833333333 85.11999999999998 L 374.325 85.11999999999998 L 377.94166666667 90.44 L 381.55833333333 85.11999999999998 L 385.175 79.79999999999998 L 388.79166666667 74.48000000000002 L 392.40833333333 74.48000000000002 L 396.025 79.79999999999998 L 399.64166666667 106.4 L 403.25833333333 122.36000000000001 L 406.875 133 L 410.49166666667 138.32 L 414.10833333333 138.32 L 417.725 138.32 L 421.34166666667 143.64 L 424.95833333333 143.64 L 428.575 138.32 L 432.19166666667 133" class="highcharts-graph" data-z-index="1" stroke="#008AC3" stroke-width="2" stroke-linejoin="round" stroke-linecap="round"></path></g><g data-z-index="0.1" class="highcharts-markers highcharts-series-3 highcharts-line-series " transform="translate(41,83) scale(1 1)" clip-path="none"></g><g data-z-index="0.1" class="highcharts-series highcharts-series-4 highcharts-line-series " transform="translate(41,83) scale(1 1)" clip-path="url(#highcharts-gm9wozy-7)"><path fill="none" d="M 1.8083333333333 90.44 L 5.425 85.11999999999998 L 9.0416666666667 85.11999999999998 L 12.658333333333 79.79999999999998 L 16.275 85.11999999999998 L 19.891666666667 74.48000000000002 L 23.508333333333 69.16 L 27.125 63.84 L 30.741666666667 58.52000000000001 L 34.358333333333 53.19999999999999 L 37.975 42.559999999999974 L 41.591666666667 31.920000000000016 L 45.208333333333 47.879999999999995 L 48.825 53.19999999999999 L 52.441666666667 63.84 L 56.058333333333 69.16 L 59.675 79.79999999999998 L 63.291666666667 90.44 L 66.908333333333 90.44 L 70.525 90.44 L 74.141666666667 95.75999999999999 L 77.758333333333 95.75999999999999 L 81.375 90.44 L 84.991666666667 85.11999999999998 L 88.608333333333 85.11999999999998 L 92.225 90.44 L 95.841666666667 101.08000000000001 L 99.458333333333 111.72 L 103.075 122.36000000000001 L 106.69166666667 127.68 L 110.30833333333 133 L 113.925 127.68 L 117.54166666667 127.68 L 121.15833333333 122.36000000000001 L 124.775 117.03999999999999 L 128.39166666667 106.4 L 132.00833333333 101.08000000000001 L 135.625 101.08000000000001 L 139.24166666667 111.72 L 142.85833333333 117.03999999999999 L 146.475 122.36000000000001 L 150.09166666667 122.36000000000001 L 153.70833333333 122.36000000000001 L 157.325 117.03999999999999 L 160.94166666667 117.03999999999999 L 164.55833333333 111.72 L 168.175 101.08000000000001 L 171.79166666667 90.44 L 175.40833333333 85.11999999999998 L 179.025 85.11999999999998 L 182.64166666667 95.75999999999999 L 186.25833333333 101.08000000000001 L 189.875 106.4 L 193.49166666667 111.72 L 197.10833333333 106.4 L 200.725 106.4 L 204.34166666667 106.4 L 207.95833333333 101.08000000000001 L 211.575 95.75999999999999 L 215.19166666667 79.79999999999998 L 218.80833333333 85.11999999999998 L 222.425 90.44 L 226.04166666667 95.75999999999999 L 229.65833333333 101.08000000000001 L 233.275 111.72 L 236.89166666667 117.03999999999999 L 240.50833333333 117.03999999999999 L 244.125 111.72 L 247.74166666667 111.72 L 251.35833333333 111.72 L 254.975 106.4 L 258.59166666667 90.44 L 262.20833333333 85.11999999999998 L 265.825 90.44 L 269.44166666667 95.75999999999999 L 273.05833333333 101.08000000000001 L 276.675 106.4 L 280.29166666667 106.4 L 283.90833333333 106.4 L 287.525 106.4 L 291.14166666667 101.08000000000001 L 294.75833333333 101.08000000000001 L 298.375 90.44 L 301.99166666667 79.79999999999998 L 305.60833333333 74.48000000000002 L 309.225 74.48000000000002 L 312.84166666667 79.79999999999998 L 316.45833333333 90.44 L 320.075 95.75999999999999 L 323.69166666667 101.08000000000001 L 327.30833333333 101.08000000000001 L 330.925 95.75999999999999 L 334.54166666667 95.75999999999999 L 338.15833333333 95.75999999999999 L 341.775 90.44 L 345.39166666667 79.79999999999998 L 349.00833333333 69.16 L 352.625 74.48000000000002 L 356.24166666667 85.11999999999998 L 359.85833333333 90.44 L 363.475 101.08000000000001 L 367.09166666667 106.4 L 370.70833333333 106.4 L 374.325 106.4 L 377.94166666667 106.4 L 381.55833333333 106.4 L 385.175 101.08000000000001 L 388.79166666667 90.44 L 392.40833333333 90.44 L 396.025 95.75999999999999 L 399.64166666667 111.72 L 403.25833333333 122.36000000000001 L 406.875 138.32 L 410.49166666667 138.32 L 414.10833333333 138.32 L 417.725 138.32 L 421.34166666667 138.32 L 424.95833333333 138.32 L 428.575 133 L 432.19166666667 122.36000000000001" class="highcharts-graph" data-z-index="1" stroke="#990300" stroke-width="2" stroke-linejoin="round" stroke-linecap="round"></path></g><g data-z-index="0.1" class="highcharts-markers highcharts-series-4 highcharts-line-series " transform="translate(41,83) scale(1 1)" clip-path="none"></g></g><text x="10" text-anchor="start" class="highcharts-title" data-z-index="4" style="color:#000000;font-size:14px;font-weight:bold;fill:#000000;" y="21"><tspan>Arbeitslosenquote nach Kanton</tspan></text><text x="10" text-anchor="start" class="highcharts-subtitle" data-z-index="4" style="color:#000000;font-size:12px;font-weight:normal;font-family:Arial;fill:#000000;" y="40"></text><g class="highcharts-legend" data-z-index="7" transform="translate(33,41)"><rect fill="none" class="highcharts-legend-box" rx="0" ry="0" x="0" y="0" width="282" height="30" visibility="visible"></rect><g data-z-index="1"><g><g class="highcharts-legend-item highcharts-line-series highcharts-color-undefined highcharts-series-0" data-z-index="1" transform="translate(8,3)"><path fill="none" d="M 0 11 L 16 11" class="highcharts-graph" stroke="#6F6F6F" stroke-width="2"></path><text x="21" style="color:#333333;font-size:12px;font-weight:normal;cursor:pointer;fill:#333333;" text-anchor="start" data-z-index="2" y="15"><tspan>BS</tspan></text></g><g class="highcharts-legend-item highcharts-line-series highcharts-color-undefined highcharts-series-1" data-z-index="1" transform="translate(65,3)"><path fill="none" d="M 0 11 L 16 11" class="highcharts-graph" stroke="#FF8028" stroke-width="2"></path><text x="21" y="15" style="color:#333333;font-size:12px;font-weight:normal;cursor:pointer;fill:#333333;" text-anchor="start" data-z-index="2"><tspan>BL</tspan></text></g><g class="highcharts-legend-item highcharts-line-series highcharts-color-undefined highcharts-series-2" data-z-index="1" transform="translate(120.671875,3)"><path fill="none" d="M 0 11 L 16 11" class="highcharts-graph" stroke="#A8C3CA" stroke-width="2"></path><text x="21" y="15" style="color:#333333;font-size:12px;font-weight:normal;cursor:pointer;fill:#333333;" text-anchor="start" data-z-index="2"><tspan>AG</tspan></text></g><g class="highcharts-legend-item highcharts-line-series highcharts-color-undefined highcharts-series-3" data-z-index="1" transform="translate(179,3)"><path fill="none" d="M 0 11 L 16 11" class="highcharts-graph" stroke="#008AC3" stroke-width="2"></path><text x="21" y="15" style="color:#333333;font-size:12px;font-weight:normal;cursor:pointer;fill:#333333;" text-anchor="start" data-z-index="2"><tspan>ZH</tspan></text></g><g class="highcharts-legend-item highcharts-line-series highcharts-color-undefined highcharts-series-4" data-z-index="1" transform="translate(235.984375,3)"><path fill="none" d="M 0 11 L 16 11" class="highcharts-graph" stroke="#990300" stroke-width="2"></path><text x="21" y="15" style="color:#333333;font-size:12px;font-weight:normal;cursor:pointer;fill:#333333;" text-anchor="start" data-z-index="2"><tspan>CH</tspan></text></g></g></g></g><g class="highcharts-axis-labels highcharts-xaxis-labels " data-z-index="7"><text x="42.808333333333" style="color:#000000;cursor:default;font-size:11px;fill:#000000;" text-anchor="middle" transform="translate(0,0)" y="368" opacity="1">2009</text><text x="86.208333333333" style="color:#000000;cursor:default;font-size:11px;fill:#000000;" text-anchor="middle" transform="translate(0,0)" y="368" opacity="1">2010</text><text x="129.60833333333" style="color:#000000;cursor:default;font-size:11px;fill:#000000;" text-anchor="middle" transform="translate(0,0)" y="368" opacity="1">2011</text><text x="173.00833333333" style="color:#000000;cursor:default;font-size:11px;fill:#000000;" text-anchor="middle" transform="translate(0,0)" y="368" opacity="1">2012</text><text x="216.40833333333" style="color:#000000;cursor:default;font-size:11px;fill:#000000;" text-anchor="middle" transform="translate(0,0)" y="368" opacity="1">2013</text><text x="259.80833333333" style="color:#000000;cursor:default;font-size:11px;fill:#000000;" text-anchor="middle" transform="translate(0,0)" y="368" opacity="1">2014</text><text x="303.20833333333" style="color:#000000;cursor:default;font-size:11px;fill:#000000;" text-anchor="middle" transform="translate(0,0)" y="368" opacity="1">2015</text><text x="346.60833333333" style="color:#000000;cursor:default;font-size:11px;fill:#000000;" text-anchor="middle" transform="translate(0,0)" y="368" opacity="1">2016</text><text x="390.00833333333" style="color:#000000;cursor:default;font-size:11px;fill:#000000;" text-anchor="middle" transform="translate(0,0)" y="368" opacity="1">2017</text><text x="433.40833333333" style="color:#000000;cursor:default;font-size:11px;fill:#000000;" text-anchor="middle" transform="translate(0,0)" y="368" opacity="1">2018</text></g><g class="highcharts-axis-labels highcharts-yaxis-labels " data-z-index="7"><text x="26" style="color:#000000;cursor:default;font-size:11px;fill:#000000;" text-anchor="end" transform="translate(0,0)" y="354" opacity="1">0%</text><text x="26" style="color:#000000;cursor:default;font-size:11px;fill:#000000;" text-anchor="end" transform="translate(0,0)" y="300" opacity="1">1%</text><text x="26" style="color:#000000;cursor:default;font-size:11px;fill:#000000;" text-anchor="end" transform="translate(0,0)" y="247" opacity="1">2%</text><text x="26" style="color:#000000;cursor:default;font-size:11px;fill:#000000;" text-anchor="end" transform="translate(0,0)" y="194" opacity="1">3%</text><text x="26" style="color:#000000;cursor:default;font-size:11px;fill:#000000;" text-anchor="end" transform="translate(0,0)" y="141" opacity="1">4%</text><text x="26" style="color:#000000;cursor:default;font-size:11px;fill:#000000;" text-anchor="end" transform="translate(0,0)" y="88" opacity="1">5%</text></g><text x="10" class="highcharts-credits" text-anchor="start" data-z-index="8" style="cursor:default;color:#000000;font-size:10px;fill:#000000;" y="400"><tspan>Quelle: Staatssekretariat für Wirtschaft SECO, Arbeitslosenstatistik.</tspan></text></svg>