<?xml version="1.0" standalone="no"?><!DOCTYPE svg PUBLIC "-//W3C//DTD SVG 1.1//EN" "http://www.w3.org/Graphics/SVG/1.1/DTD/svg11.dtd"><svg xmlns:xlink="http://www.w3.org/1999/xlink" version="1.1" class="highcharts-root" style="font-family:Arial;font-size:12px;" xmlns="http://www.w3.org/2000/svg" viewBox="0 0 485 415"><desc>Created with Highcharts 8.2.0</desc><defs><clipPath id="highcharts-sfd5l1o-37-"><rect x="0" y="0" width="407" height="232" fill="none"></rect></clipPath><clipPath id="highcharts-sfd5l1o-48-"><rect x="0" y="0" width="407" height="232" fill="none"></rect></clipPath><clipPath id="highcharts-sfd5l1o-69-"><rect x="58" y="119" width="407" height="232" fill="none"></rect></clipPath></defs><rect fill="#fbfbfb" class="highcharts-background" x="0" y="0" width="485" height="428" rx="0" ry="0"></rect><rect fill="none" class="highcharts-plot-background" x="58" y="119" width="407" height="232"></rect><g class="highcharts-pane-group" data-z-index="0"></g><g class="highcharts-grid highcharts-xaxis-grid" data-z-index="1"><path fill="none" data-z-index="1" class="highcharts-grid-line" d="M 98.5 119 L 98.5 351" opacity="1"></path><path fill="none" data-z-index="1" class="highcharts-grid-line" d="M 138.5 119 L 138.5 351" opacity="1"></path><path fill="none" data-z-index="1" class="highcharts-grid-line" d="M 179.5 119 L 179.5 351" opacity="1"></path><path fill="none" data-z-index="1" class="highcharts-grid-line" d="M 220.5 119 L 220.5 351" opacity="1"></path><path fill="none" data-z-index="1" class="highcharts-grid-line" d="M 261.5 119 L 261.5 351" opacity="1"></path><path fill="none" data-z-index="1" class="highcharts-grid-line" d="M 301.5 119 L 301.5 351" opacity="1"></path><path fill="none" data-z-index="1" class="highcharts-grid-line" d="M 342.5 119 L 342.5 351" opacity="1"></path><path fill="none" data-z-index="1" class="highcharts-grid-line" d="M 383.5 119 L 383.5 351" opacity="1"></path><path fill="none" data-z-index="1" class="highcharts-grid-line" d="M 423.5 119 L 423.5 351" opacity="1"></path><path fill="none" data-z-index="1" class="highcharts-grid-line" d="M 464.5 119 L 464.5 351" opacity="1"></path><path fill="none" data-z-index="1" class="highcharts-grid-line" d="M 57.5 119 L 57.5 351" opacity="1"></path></g><g class="highcharts-grid highcharts-yaxis-grid" data-z-index="1"><path fill="none" stroke="#B9CFD7" stroke-width="0.5" data-z-index="1" class="highcharts-grid-line" d="M 58 351.25 L 465 351.25" opacity="1"></path><path fill="none" stroke="#B9CFD7" stroke-width="0.5" data-z-index="1" class="highcharts-grid-line" d="M 58 293.25 L 465 293.25" opacity="1"></path><path fill="none" stroke="#B9CFD7" stroke-width="0.5" data-z-index="1" class="highcharts-grid-line" d="M 58 235.25 L 465 235.25" opacity="1"></path><path fill="none" stroke="#B9CFD7" stroke-width="0.5" data-z-index="1" class="highcharts-grid-line" d="M 58 177.25 L 465 177.25" opacity="1"></path><path fill="none" stroke="#B9CFD7" stroke-width="0.5" data-z-index="1" class="highcharts-grid-line" d="M 58 118.75 L 465 118.75" opacity="1"></path></g><rect fill="none" class="highcharts-plot-border" data-z-index="1" x="58" y="119" width="407" height="232"></rect><g class="highcharts-axis highcharts-xaxis" data-z-index="2"><path fill="none" class="highcharts-axis-line" stroke="#B9CFD7" stroke-width="0.5" data-z-index="7" d="M 58 351.25 L 465 351.25"></path></g><g class="highcharts-axis highcharts-yaxis" data-z-index="2"><path fill="none" class="highcharts-axis-line" data-z-index="7" d="M 58 119 L 58 351"></path></g><g class="highcharts-series-group" data-z-index="3"><g class="highcharts-series highcharts-series-0 highcharts-column-series" data-z-index="0.1" opacity="1" transform="translate(58,119) scale(1 1)" clip-path="url(#highcharts-sfd5l1o-48-)"><rect x="4" y="136" width="11" height="97" fill="#E7CEE2" opacity="1" class="highcharts-point"></rect><rect x="85" y="126" width="11" height="107" fill="#E7CEE2" opacity="1" class="highcharts-point"></rect><rect x="126" y="132" width="11" height="101" fill="#E7CEE2" opacity="1" class="highcharts-point"></rect><rect x="167" y="138" width="11" height="95" fill="#E7CEE2" opacity="1" class="highcharts-point"></rect><rect x="208" y="139" width="10" height="94" fill="#E7CEE2" opacity="1" class="highcharts-point"></rect><rect x="248" y="139" width="11" height="94" fill="#E7CEE2" opacity="1" class="highcharts-point"></rect><rect x="289" y="138" width="11" height="95" fill="#E7CEE2" opacity="1" class="highcharts-point"></rect><rect x="330" y="141" width="11" height="92" fill="#E7CEE2" opacity="1" class="highcharts-point"></rect><rect x="370" y="142" width="11" height="91" fill="#E7CEE2" opacity="1" class="highcharts-point"></rect></g><g class="highcharts-markers highcharts-series-0 highcharts-column-series" data-z-index="0.1" opacity="1" transform="translate(58,119) scale(1 1)" clip-path="none"></g><g class="highcharts-series highcharts-series-1 highcharts-column-series" data-z-index="0.1" opacity="1" transform="translate(58,119) scale(1 1)" clip-path="url(#highcharts-sfd5l1o-48-)"><rect x="15" y="40" width="11" height="193" fill="#B375AB" opacity="1" class="highcharts-point"></rect><rect x="96" y="29" width="11" height="204" fill="#B375AB" opacity="1" class="highcharts-point"></rect><rect x="137" y="21" width="11" height="212" fill="#B375AB" opacity="1" class="highcharts-point"></rect><rect x="178" y="21" width="11" height="212" fill="#B375AB" opacity="1" class="highcharts-point"></rect><rect x="218" y="19" width="11" height="214" fill="#B375AB" opacity="1" class="highcharts-point"></rect><rect x="259" y="14" width="11" height="219" fill="#B375AB" opacity="1" class="highcharts-point"></rect><rect x="300" y="12" width="11" height="221" fill="#B375AB" opacity="1" class="highcharts-point"></rect><rect x="341" y="14" width="10" height="219" fill="#B375AB" opacity="1" class="highcharts-point"></rect><rect x="381" y="21" width="11" height="212" fill="#B375AB" opacity="1" class="highcharts-point"></rect></g><g class="highcharts-markers highcharts-series-1 highcharts-column-series" data-z-index="0.1" opacity="1" transform="translate(58,119) scale(1 1)" clip-path="none"></g><g class="highcharts-series highcharts-series-2 highcharts-column-series" data-z-index="0.1" opacity="1" transform="translate(58,119) scale(1 1)" clip-path="url(#highcharts-sfd5l1o-48-)"><rect x="26" y="148" width="11" height="85" fill="#662673" opacity="1" class="highcharts-point"></rect><rect x="107" y="147" width="11" height="86" fill="#662673" opacity="1" class="highcharts-point"></rect><rect x="148" y="147" width="11" height="86" fill="#662673" opacity="1" class="highcharts-point"></rect><rect x="189" y="148" width="10" height="85" fill="#662673" opacity="1" class="highcharts-point"></rect><rect x="229" y="143" width="11" height="90" fill="#662673" opacity="1" class="highcharts-point"></rect><rect x="270" y="142" width="11" height="91" fill="#662673" opacity="1" class="highcharts-point"></rect><rect x="311" y="143" width="11" height="90" fill="#662673" opacity="1" class="highcharts-point"></rect><rect x="351" y="146" width="11" height="87" fill="#662673" opacity="1" class="highcharts-point"></rect><rect x="392" y="148" width="11" height="85" fill="#662673" opacity="1" class="highcharts-point"></rect></g><g class="highcharts-markers highcharts-series-2 highcharts-column-series" data-z-index="0.1" opacity="1" transform="translate(58,119) scale(1 1)" clip-path="none"></g></g><text x="10" text-anchor="start" class="highcharts-title" data-z-index="4" style="color:#000000;font-size:14px;font-weight:bold;fill:#000000;" y="21"><tspan>Besch채ftigung in Industrie und Baugewerbe</tspan></text><text x="10" text-anchor="start" class="highcharts-subtitle" data-z-index="4" style="color:#000000;font-size:12px;font-weight:normal;fill:#000000;" y="40"><tspan>in Vollzeit채quivalenten, Basel-Stadt</tspan></text><text x="10" text-anchor="start" class="highcharts-caption" data-z-index="4" style="color:#666666;fill:#666666;" y="385"></text><g class="highcharts-legend" data-z-index="7" transform="translate(50,56)"><rect fill="none" class="highcharts-legend-box" rx="0" ry="0" x="0" y="0" width="468" height="51" visibility="visible"></rect><g data-z-index="1"><g><g class="highcharts-legend-item highcharts-column-series highcharts-color-undefined highcharts-series-0" data-z-index="1" transform="translate(8,3)"><text x="21" style="color:#333333;cursor:pointer;font-size:12px;font-weight:normal;fill:#333333;" text-anchor="start" data-z-index="2" y="15"><tspan>Industrie (exkl. Chemie, Pharma)</tspan><title>Industrie (exkl. Chemie, Pharma)</title></text><rect x="2" y="4" width="12" height="12" fill="#E7CEE2" class="highcharts-point" data-z-index="3"></rect></g><g class="highcharts-legend-item highcharts-column-series highcharts-color-undefined highcharts-series-1" data-z-index="1" transform="translate(238,3)"><text x="21" y="15" style="color:#333333;cursor:pointer;font-size:12px;font-weight:normal;fill:#333333;" text-anchor="start" data-z-index="2"><tspan>Chemie, Pharma</tspan></text><rect x="2" y="4" width="12" height="12" fill="#B375AB" class="highcharts-point" data-z-index="3"></rect></g><g class="highcharts-legend-item highcharts-column-series highcharts-color-undefined highcharts-series-2" data-z-index="1" transform="translate(8,23)"><text x="21" y="15" style="color:#333333;cursor:pointer;font-size:12px;font-weight:normal;fill:#333333;" text-anchor="start" data-z-index="2"><tspan>Baugewerbe</tspan></text><rect x="2" y="4" width="12" height="12" fill="#662673" class="highcharts-point" data-z-index="3"></rect></g></g></g></g><g class="highcharts-axis-labels highcharts-xaxis-labels" data-z-index="7"><text x="78.35" style="color:#000000;cursor:default;font-size:11px;fill:#000000;" text-anchor="middle" transform="translate(0,0)" y="370" opacity="1">2008</text><text x="119.05000000000001" style="color:#000000;cursor:default;font-size:11px;fill:#000000;" text-anchor="middle" transform="translate(0,0)" y="370" opacity="1"></text><text x="159.75" style="color:#000000;cursor:default;font-size:11px;fill:#000000;" text-anchor="middle" transform="translate(0,0)" y="370" opacity="1">2011</text><text x="200.45000000000002" style="color:#000000;cursor:default;font-size:11px;fill:#000000;" text-anchor="middle" transform="translate(0,0)" y="370" opacity="1">2012</text><text x="241.15" style="color:#000000;cursor:default;font-size:11px;fill:#000000;" text-anchor="middle" transform="translate(0,0)" y="370" opacity="1">2013</text><text x="281.84999999999997" style="color:#000000;cursor:default;font-size:11px;fill:#000000;" text-anchor="middle" transform="translate(0,0)" y="370" opacity="1">2014</text><text x="322.54999999999995" style="color:#000000;cursor:default;font-size:11px;fill:#000000;" text-anchor="middle" transform="translate(0,0)" y="370" opacity="1">2015</text><text x="363.25" style="color:#000000;cursor:default;font-size:11px;fill:#000000;" text-anchor="middle" transform="translate(0,0)" y="370" opacity="1">2016</text><text x="403.95" style="color:#000000;cursor:default;font-size:11px;fill:#000000;" text-anchor="middle" transform="translate(0,0)" y="370" opacity="1">2017</text><text x="444.65" style="color:#000000;cursor:default;font-size:11px;fill:#000000;" text-anchor="middle" transform="translate(0,0)" y="370" opacity="1">2018</text></g><g class="highcharts-axis-labels highcharts-yaxis-labels" data-z-index="7"><text x="43" style="color:#000000;cursor:default;font-size:11px;fill:#000000;" text-anchor="end" transform="translate(0,0)" y="355" opacity="1">0</text><text x="43" style="color:#000000;cursor:default;font-size:11px;fill:#000000;" text-anchor="end" transform="translate(0,0)" y="297" opacity="1"><tspan>5 000</tspan></text><text x="43" style="color:#000000;cursor:default;font-size:11px;fill:#000000;" text-anchor="end" transform="translate(0,0)" y="239" opacity="1"><tspan>10 000</tspan></text><text x="43" style="color:#000000;cursor:default;font-size:11px;fill:#000000;" text-anchor="end" transform="translate(0,0)" y="181" opacity="1"><tspan>15 000</tspan></text><text x="43" style="color:#000000;cursor:default;font-size:11px;fill:#000000;" text-anchor="end" transform="translate(0,0)" y="123" opacity="1"><tspan>20 000</tspan></text></g><text x="10" class="highcharts-credits" text-anchor="start" data-z-index="8" style="cursor:default;color:#000000;font-size:10px;fill:#000000;" y="403"><tspan>Quelle: Bundesamt f체r Statistik (BFS), Statistik der Unternehmensstruktur (STATENT).</tspan><tspan x="10" dy="13">Zuletzt ge채ndert: 2020-9-3</tspan></text><g class="highcharts-control-points" data-z-index="99" clip-path="url(#highcharts-sfd5l1o-69-)"></g></svg>