<?xml version="1.0" standalone="no"?><!DOCTYPE svg PUBLIC "-//W3C//DTD SVG 1.1//EN" "http://www.w3.org/Graphics/SVG/1.1/DTD/svg11.dtd"><svg xmlns:xlink="http://www.w3.org/1999/xlink" version="1.1" class="highcharts-root" style="font-family:Arial;font-size:12px;" xmlns="http://www.w3.org/2000/svg" viewBox="0 0 485 415"><desc>Created with Highcharts 8.2.2</desc><defs><clipPath id="highcharts-slbwgzb-47-"><rect x="0" y="0" width="416" height="237" fill="none"></rect></clipPath><clipPath id="highcharts-slbwgzb-58-"><rect x="0" y="0" width="416" height="237" fill="none"></rect></clipPath><clipPath id="highcharts-slbwgzb-89-"><rect x="59" y="116" width="416" height="237" fill="none"></rect></clipPath></defs><rect fill="#fbfbfb" class="highcharts-background" x="0" y="0" width="485" height="428" rx="0" ry="0"></rect><rect fill="none" class="highcharts-plot-background" x="59" y="116" width="416" height="237"></rect><g class="highcharts-pane-group" data-z-index="0"></g><g class="highcharts-grid highcharts-xaxis-grid" data-z-index="1"><path fill="none" data-z-index="1" class="highcharts-grid-line" d="M 100.5 116 L 100.5 353" opacity="1"></path><path fill="none" data-z-index="1" class="highcharts-grid-line" d="M 141.5 116 L 141.5 353" opacity="1"></path><path fill="none" data-z-index="1" class="highcharts-grid-line" d="M 183.5 116 L 183.5 353" opacity="1"></path><path fill="none" data-z-index="1" class="highcharts-grid-line" d="M 224.5 116 L 224.5 353" opacity="1"></path><path fill="none" data-z-index="1" class="highcharts-grid-line" d="M 266.5 116 L 266.5 353" opacity="1"></path><path fill="none" data-z-index="1" class="highcharts-grid-line" d="M 308.5 116 L 308.5 353" opacity="1"></path><path fill="none" data-z-index="1" class="highcharts-grid-line" d="M 349.5 116 L 349.5 353" opacity="1"></path><path fill="none" data-z-index="1" class="highcharts-grid-line" d="M 391.5 116 L 391.5 353" opacity="1"></path><path fill="none" data-z-index="1" class="highcharts-grid-line" d="M 432.5 116 L 432.5 353" opacity="1"></path><path fill="none" data-z-index="1" class="highcharts-grid-line" d="M 474.5 116 L 474.5 353" opacity="1"></path><path fill="none" data-z-index="1" class="highcharts-grid-line" d="M 58.5 116 L 58.5 353" opacity="1"></path></g><g class="highcharts-grid highcharts-yaxis-grid" data-z-index="1"><path fill="none" stroke="#B9CFD7" stroke-width="0.5" data-z-index="1" class="highcharts-grid-line" d="M 59 353.25 L 475 353.25" opacity="1"></path><path fill="none" stroke="#B9CFD7" stroke-width="0.5" data-z-index="1" class="highcharts-grid-line" d="M 59 274.25 L 475 274.25" opacity="1"></path><path fill="none" stroke="#B9CFD7" stroke-width="0.5" data-z-index="1" class="highcharts-grid-line" d="M 59 195.25 L 475 195.25" opacity="1"></path><path fill="none" stroke="#B9CFD7" stroke-width="0.5" data-z-index="1" class="highcharts-grid-line" d="M 59 115.75 L 475 115.75" opacity="1"></path></g><rect fill="none" class="highcharts-plot-border" data-z-index="1" x="59" y="116" width="416" height="237"></rect><g class="highcharts-axis highcharts-xaxis" data-z-index="2"><path fill="none" class="highcharts-axis-line" stroke="#B9CFD7" stroke-width="0.5" data-z-index="7" d="M 59 353.25 L 475 353.25"></path></g><g class="highcharts-axis highcharts-yaxis" data-z-index="2"><path fill="none" class="highcharts-axis-line" data-z-index="7" d="M 59 116 L 59 353"></path></g><g class="highcharts-series-group" data-z-index="3"><g class="highcharts-series highcharts-series-0 highcharts-column-series" data-z-index="0.1" opacity="1" transform="translate(59,116) scale(1 1)" clip-path="url(#highcharts-slbwgzb-58-)"><rect x="4" y="27" width="8" height="211" fill="#D7E8D2" opacity="1" class="highcharts-point"></rect><rect x="87" y="30" width="9" height="208" fill="#D7E8D2" opacity="1" class="highcharts-point"></rect><rect x="129" y="33" width="8" height="205" fill="#D7E8D2" opacity="1" class="highcharts-point"></rect><rect x="171" y="37" width="8" height="201" fill="#D7E8D2" opacity="1" class="highcharts-point"></rect><rect x="212" y="40" width="8" height="198" fill="#D7E8D2" opacity="1" class="highcharts-point"></rect><rect x="254" y="42" width="8" height="196" fill="#D7E8D2" opacity="1" class="highcharts-point"></rect><rect x="295" y="46" width="9" height="192" fill="#D7E8D2" opacity="1" class="highcharts-point"></rect><rect x="337" y="48" width="8" height="190" fill="#D7E8D2" opacity="1" class="highcharts-point"></rect><rect x="379" y="53" width="8" height="185" fill="#D7E8D2" opacity="1" class="highcharts-point"></rect></g><g class="highcharts-markers highcharts-series-0 highcharts-column-series" data-z-index="0.1" opacity="1" transform="translate(59,116) scale(1 1)" clip-path="none"></g><g class="highcharts-series highcharts-series-1 highcharts-column-series" data-z-index="0.1" opacity="1" transform="translate(59,116) scale(1 1)" clip-path="url(#highcharts-slbwgzb-58-)"><rect x="12" y="49" width="9" height="189" fill="#8A8A8A" opacity="1" class="highcharts-point"></rect><rect x="96" y="59" width="8" height="179" fill="#8A8A8A" opacity="1" class="highcharts-point"></rect><rect x="137" y="61" width="9" height="177" fill="#8A8A8A" opacity="1" class="highcharts-point"></rect><rect x="179" y="66" width="8" height="172" fill="#8A8A8A" opacity="1" class="highcharts-point"></rect><rect x="220" y="69" width="9" height="169" fill="#8A8A8A" opacity="1" class="highcharts-point"></rect><rect x="262" y="83" width="8" height="155" fill="#8A8A8A" opacity="1" class="highcharts-point"></rect><rect x="304" y="89" width="8" height="149" fill="#8A8A8A" opacity="1" class="highcharts-point"></rect><rect x="345" y="94" width="9" height="144" fill="#8A8A8A" opacity="1" class="highcharts-point"></rect><rect x="387" y="93" width="8" height="145" fill="#8A8A8A" opacity="1" class="highcharts-point"></rect></g><g class="highcharts-markers highcharts-series-1 highcharts-column-series" data-z-index="0.1" opacity="1" transform="translate(59,116) scale(1 1)" clip-path="none"></g><g class="highcharts-series highcharts-series-2 highcharts-column-series" data-z-index="0.1" opacity="1" transform="translate(59,116) scale(1 1)" clip-path="url(#highcharts-slbwgzb-58-)"><rect x="21" y="138" width="8" height="100" fill="#007A2F" opacity="1" class="highcharts-point"></rect><rect x="104" y="134" width="8" height="104" fill="#007A2F" opacity="1" class="highcharts-point"></rect><rect x="146" y="132" width="8" height="106" fill="#007A2F" opacity="1" class="highcharts-point"></rect><rect x="187" y="125" width="9" height="113" fill="#007A2F" opacity="1" class="highcharts-point"></rect><rect x="229" y="122" width="8" height="116" fill="#007A2F" opacity="1" class="highcharts-point"></rect><rect x="270" y="121" width="9" height="117" fill="#007A2F" opacity="1" class="highcharts-point"></rect><rect x="312" y="124" width="8" height="114" fill="#007A2F" opacity="1" class="highcharts-point"></rect><rect x="354" y="123" width="8" height="115" fill="#007A2F" opacity="1" class="highcharts-point"></rect><rect x="395" y="121" width="9" height="117" fill="#007A2F" opacity="1" class="highcharts-point"></rect></g><g class="highcharts-markers highcharts-series-2 highcharts-column-series" data-z-index="0.1" opacity="1" transform="translate(59,116) scale(1 1)" clip-path="none"></g><g class="highcharts-series highcharts-series-3 highcharts-column-series" data-z-index="0.1" opacity="1" transform="translate(59,116) scale(1 1)" clip-path="url(#highcharts-slbwgzb-58-)"><rect x="29" y="171" width="8" height="67" fill="#0A3B19" opacity="1" class="highcharts-point"></rect><rect x="112" y="174" width="9" height="64" fill="#0A3B19" opacity="1" class="highcharts-point"></rect><rect x="154" y="167" width="8" height="71" fill="#0A3B19" opacity="1" class="highcharts-point"></rect><rect x="196" y="168" width="8" height="70" fill="#0A3B19" opacity="1" class="highcharts-point"></rect><rect x="237" y="171" width="8" height="67" fill="#0A3B19" opacity="1" class="highcharts-point"></rect><rect x="279" y="173" width="8" height="65" fill="#0A3B19" opacity="1" class="highcharts-point"></rect><rect x="320" y="176" width="9" height="62" fill="#0A3B19" opacity="1" class="highcharts-point"></rect><rect x="362" y="176" width="8" height="62" fill="#0A3B19" opacity="1" class="highcharts-point"></rect><rect x="404" y="176" width="8" height="62" fill="#0A3B19" opacity="1" class="highcharts-point"></rect></g><g class="highcharts-markers highcharts-series-3 highcharts-column-series" data-z-index="0.1" opacity="1" transform="translate(59,116) scale(1 1)" clip-path="none"></g></g><text x="10" text-anchor="start" class="highcharts-title" data-z-index="4" style="color:#000000;font-size:14px;font-weight:bold;fill:#000000;" y="21"><tspan>Besch채ftigung im Dienstleistungssektor (I)</tspan></text><text x="10" text-anchor="start" class="highcharts-subtitle" data-z-index="4" style="color:#000000;font-size:12px;font-weight:normal;fill:#000000;" y="40"><tspan>in Vollzeit채quivalenten, Basel-Stadt</tspan></text><text x="10" text-anchor="start" class="highcharts-caption" data-z-index="4" style="color:#666666;fill:#666666;" y="385"></text><g class="highcharts-legend" data-z-index="7" transform="translate(51,55)"><rect fill="none" class="highcharts-legend-box" rx="0" ry="0" x="0" y="0" width="376" height="49" visibility="visible"></rect><g data-z-index="1"><g><g class="highcharts-legend-item highcharts-column-series highcharts-color-undefined highcharts-series-0" data-z-index="1" transform="translate(8,3)"><text x="21" style="color:#333333;cursor:pointer;font-size:12px;font-weight:normal;fill:#333333;" text-anchor="start" data-z-index="2" y="15"><tspan>Handel, Reparatur</tspan></text><rect x="2" y="4" width="12" height="12" fill="#D7E8D2" class="highcharts-point" data-z-index="3"></rect></g><g class="highcharts-legend-item highcharts-column-series highcharts-color-undefined highcharts-series-1" data-z-index="1" transform="translate(198.265625,3)"><text x="21" y="15" style="color:#333333;cursor:pointer;font-size:12px;font-weight:normal;fill:#333333;" text-anchor="start" data-z-index="2"><tspan>Verkehr, Lagerei</tspan></text><rect x="2" y="4" width="12" height="12" fill="#8A8A8A" class="highcharts-point" data-z-index="3"></rect></g><g class="highcharts-legend-item highcharts-column-series highcharts-color-undefined highcharts-series-2" data-z-index="1" transform="translate(8,22)"><text x="21" y="15" style="color:#333333;cursor:pointer;font-size:12px;font-weight:normal;fill:#333333;" text-anchor="start" data-z-index="2"><tspan>Gastgewerbe</tspan></text><rect x="2" y="4" width="12" height="12" fill="#007A2F" class="highcharts-point" data-z-index="3"></rect></g><g class="highcharts-legend-item highcharts-column-series highcharts-color-undefined highcharts-series-3" data-z-index="1" transform="translate(198.265625,22)"><text x="21" y="15" style="color:#333333;cursor:pointer;font-size:12px;font-weight:normal;fill:#333333;" text-anchor="start" data-z-index="2"><tspan>Information, Kommunikation</tspan></text><rect x="2" y="4" width="12" height="12" fill="#0A3B19" class="highcharts-point" data-z-index="3"></rect></g></g></g></g><g class="highcharts-axis-labels highcharts-xaxis-labels" data-z-index="7"><text x="79.8" style="color:#000000;cursor:default;font-size:11px;fill:#000000;" text-anchor="middle" transform="translate(0,0)" y="372" opacity="1">2008</text><text x="121.39999999999999" style="color:#000000;cursor:default;font-size:11px;fill:#000000;" text-anchor="middle" transform="translate(0,0)" y="372" opacity="1"></text><text x="163" style="color:#000000;cursor:default;font-size:11px;fill:#000000;" text-anchor="middle" transform="translate(0,0)" y="372" opacity="1">2011</text><text x="204.6" style="color:#000000;cursor:default;font-size:11px;fill:#000000;" text-anchor="middle" transform="translate(0,0)" y="372" opacity="1">2012</text><text x="246.2" style="color:#000000;cursor:default;font-size:11px;fill:#000000;" text-anchor="middle" transform="translate(0,0)" y="372" opacity="1">2013</text><text x="287.8" style="color:#000000;cursor:default;font-size:11px;fill:#000000;" text-anchor="middle" transform="translate(0,0)" y="372" opacity="1">2014</text><text x="329.4" style="color:#000000;cursor:default;font-size:11px;fill:#000000;" text-anchor="middle" transform="translate(0,0)" y="372" opacity="1">2015</text><text x="371" style="color:#000000;cursor:default;font-size:11px;fill:#000000;" text-anchor="middle" transform="translate(0,0)" y="372" opacity="1">2016</text><text x="412.59999999999997" style="color:#000000;cursor:default;font-size:11px;fill:#000000;" text-anchor="middle" transform="translate(0,0)" y="372" opacity="1">2017</text><text x="454.2" style="color:#000000;cursor:default;font-size:11px;fill:#000000;" text-anchor="middle" transform="translate(0,0)" y="372" opacity="1">2018</text></g><g class="highcharts-axis-labels highcharts-yaxis-labels" data-z-index="7"><text x="44" style="color:#000000;cursor:default;font-size:11px;fill:#000000;" text-anchor="end" transform="translate(0,0)" y="358" opacity="1">0</text><text x="44" style="color:#000000;cursor:default;font-size:11px;fill:#000000;" text-anchor="end" transform="translate(0,0)" y="279" opacity="1"><tspan>5 000</tspan></text><text x="44" style="color:#000000;cursor:default;font-size:11px;fill:#000000;" text-anchor="end" transform="translate(0,0)" y="200" opacity="1"><tspan>10 000</tspan></text><text x="44" style="color:#000000;cursor:default;font-size:11px;fill:#000000;" text-anchor="end" transform="translate(0,0)" y="121" opacity="1"><tspan>15 000</tspan></text></g><text x="10" class="highcharts-credits" text-anchor="start" data-z-index="8" style="cursor:default;color:#000000;font-size:10px;fill:#000000;" y="403"><tspan>Quelle: Bundesamt f체r Statistik (BFS), Statistik der Unternehmensstruktur (STATENT).</tspan><tspan x="10" dy="13">Zuletzt ge채ndert: 2020-9-3</tspan></text><g class="highcharts-control-points" data-z-index="99" clip-path="url(#highcharts-slbwgzb-89-)"></g></svg>