<?xml version="1.0" standalone="no"?><!DOCTYPE svg PUBLIC "-//W3C//DTD SVG 1.1//EN" "http://www.w3.org/Graphics/SVG/1.1/DTD/svg11.dtd"><svg xmlns:xlink="http://www.w3.org/1999/xlink" version="1.1" class="highcharts-root" style="font-family:Arial;font-size:12px;" xmlns="http://www.w3.org/2000/svg" viewBox="0 0 485 415"><desc>Created with Highcharts 8.2.0</desc><defs><clipPath id="highcharts-z7d2eud-86-"><rect x="0" y="0" width="417" height="235" fill="none"></rect></clipPath><clipPath id="highcharts-z7d2eud-127-"><rect x="0" y="0" width="417" height="235" fill="none"></rect></clipPath></defs><rect fill="#fbfbfb" class="highcharts-background" x="0" y="0" width="485" height="428" rx="0" ry="0"></rect><rect fill="none" class="highcharts-plot-background" x="58" y="116" width="417" height="235"></rect><g class="highcharts-pane-group" data-z-index="0"></g><g class="highcharts-grid highcharts-xaxis-grid" data-z-index="1"><path fill="none" data-z-index="1" class="highcharts-grid-line" d="M 62.5 116 L 62.5 351" opacity="1"></path><path fill="none" data-z-index="1" class="highcharts-grid-line" d="M 104.5 116 L 104.5 351" opacity="1"></path><path fill="none" data-z-index="1" class="highcharts-grid-line" d="M 146.5 116 L 146.5 351" opacity="1"></path><path fill="none" data-z-index="1" class="highcharts-grid-line" d="M 187.5 116 L 187.5 351" opacity="1"></path><path fill="none" data-z-index="1" class="highcharts-grid-line" d="M 229.5 116 L 229.5 351" opacity="1"></path><path fill="none" data-z-index="1" class="highcharts-grid-line" d="M 271.5 116 L 271.5 351" opacity="1"></path><path fill="none" data-z-index="1" class="highcharts-grid-line" d="M 312.5 116 L 312.5 351" opacity="1"></path><path fill="none" data-z-index="1" class="highcharts-grid-line" d="M 354.5 116 L 354.5 351" opacity="1"></path><path fill="none" data-z-index="1" class="highcharts-grid-line" d="M 396.5 116 L 396.5 351" opacity="1"></path><path fill="none" data-z-index="1" class="highcharts-grid-line" d="M 438.5 116 L 438.5 351" opacity="1"></path></g><g class="highcharts-grid highcharts-yaxis-grid" data-z-index="1"><path fill="none" stroke="#B9CFD7" stroke-width="0.5" data-z-index="1" class="highcharts-grid-line" d="M 58 351.25 L 475 351.25" opacity="1"></path><path fill="none" stroke="#B9CFD7" stroke-width="0.5" data-z-index="1" class="highcharts-grid-line" d="M 58 292.25 L 475 292.25" opacity="1"></path><path fill="none" stroke="#B9CFD7" stroke-width="0.5" data-z-index="1" class="highcharts-grid-line" d="M 58 234.25 L 475 234.25" opacity="1"></path><path fill="none" stroke="#B9CFD7" stroke-width="0.5" data-z-index="1" class="highcharts-grid-line" d="M 58 175.25 L 475 175.25" opacity="1"></path><path fill="none" stroke="#B9CFD7" stroke-width="0.5" data-z-index="1" class="highcharts-grid-line" d="M 58 115.75 L 475 115.75" opacity="1"></path></g><rect fill="none" class="highcharts-plot-border" data-z-index="1" x="58" y="116" width="417" height="235"></rect><g class="highcharts-axis highcharts-xaxis" data-z-index="2"><path fill="none" class="highcharts-axis-line" stroke="#B9CFD7" stroke-width="0.5" data-z-index="7" d="M 58 351.25 L 475 351.25"></path></g><g class="highcharts-axis highcharts-yaxis" data-z-index="2"><path fill="none" class="highcharts-axis-line" data-z-index="7" d="M 58 116 L 58 351"></path></g><g class="highcharts-series-group" data-z-index="3"><g class="highcharts-series highcharts-series-0 highcharts-line-series" data-z-index="0.1" opacity="1" transform="translate(58,116) scale(1 1)" clip-path="url(#highcharts-z7d2eud-127-)"><path fill="none" d="M 5.2125 212.962875 L 15.6375 218.8085 L 26.0625 184.034375 L 36.4875 214.9985625 L 46.9125 212.3371875 L 57.3375 212.7484375 L 67.7625 166.14499999999998 L 78.1875 217.7539375 L 88.6125 208.8768125 L 99.0375 181.373 L 109.4625 175.79762499999998 L 119.8875 208.063125 L 130.3125 160.5138125 L 140.7375 189.07218749999998 L 151.1625 186.46075 L 161.5875 210.38375 L 172.0125 140.0629375 L 182.4375 189.86825 L 192.8625 165.84243750000002 L 203.2875 214.349375 L 213.7125 153.56368750000001 L 224.1375 200.39625 L 234.5625 178.793875 L 244.9875 219.072875 L 255.4125 176.84924999999998 L 265.8375 201.424375 L 276.2625 172.5634375 L 286.6875 211.74675 L 297.1125 179.728 L 307.5375 206.7853125 L 317.9625 181.64325 L 328.3875 217.85675 L 338.8125 205.748375 L 349.2375 207.957375 L 359.6625 176.467375 L 370.0875 206.9909375 L 380.5125 209.1940625 L 390.9375 218.5735 L 401.3625 205.713125 L 411.7875 217.686375" class="highcharts-graph" data-z-index="1" stroke="#B375AB" stroke-width="2" stroke-linejoin="round" stroke-linecap="round"></path></g><g class="highcharts-markers highcharts-series-0 highcharts-line-series" data-z-index="0.1" opacity="1" transform="translate(58,116) scale(1 1)" clip-path="none"></g><g class="highcharts-series highcharts-series-1 highcharts-line-series" data-z-index="0.1" opacity="1" transform="translate(58,116) scale(1 1)" clip-path="url(#highcharts-z7d2eud-127-)"><path fill="none" d="M 5.2125 179.675125 L 15.6375 193.2258125 L 26.0625 179.2961875 L 36.4875 187.7326875 L 46.9125 154.5741875 L 57.3375 181.2114375 L 67.7625 163.92425 L 78.1875 170.9771875 L 88.6125 182.62731250000002 L 99.0375 111.560375 L 109.4625 179.510625 L 119.8875 189.991625 L 130.3125 28.93437499999999 L 140.7375 117.035875 L 151.1625 173.5504375 L 161.5875 192.2858125 L 172.0125 33.53743750000001 L 182.4375 146.375625 L 192.8625 175.492125 L 203.2875 195.755 L 213.7125 23.529374999999987 L 224.1375 149.407125 L 234.5625 178.929 L 244.9875 196.51875 L 255.4125 73.6460625 L 265.8375 141.945875 L 276.2625 166.6061875 L 286.6875 192.05962499999998 L 297.1125 77.17693750000001 L 307.5375 156.680375 L 317.9625 185.35625 L 328.3875 198.3635 L 338.8125 147.198125 L 349.2375 159.9850625 L 359.6625 171.567625 L 370.0875 184.187125 L 380.5125 180.180375 L 390.9375 204.467625 L 401.3625 203.750875 L 411.7875 206.6266875" class="highcharts-graph" data-z-index="1" stroke="#662673" stroke-width="2" stroke-linejoin="round" stroke-linecap="round"></path></g><g class="highcharts-markers highcharts-series-1 highcharts-line-series" data-z-index="0.1" opacity="1" transform="translate(58,116) scale(1 1)" clip-path="none"></g></g><text x="10" text-anchor="start" class="highcharts-title" data-z-index="4" style="color:#000000;font-size:14px;font-weight:bold;fill:#000000;" y="21"><tspan>Arbeitstage von Meldepflichtigen in Industrie und</tspan><tspan dy="17" x="10">Baugewerbe</tspan></text><text x="10" text-anchor="start" class="highcharts-subtitle" data-z-index="4" style="color:#000000;font-size:12px;font-weight:normal;fill:#000000;" y="57"><tspan>Basel-Stadt</tspan></text><text x="10" text-anchor="start" class="highcharts-caption" data-z-index="4" style="color:#666666;fill:#666666;" y="385"></text><g class="highcharts-legend" data-z-index="7" transform="translate(50,73)"><rect fill="none" class="highcharts-legend-box" rx="0" ry="0" x="0" y="0" width="326" height="31" visibility="visible"></rect><g data-z-index="1"><g><g class="highcharts-legend-item highcharts-line-series highcharts-color-undefined highcharts-series-0" data-z-index="1" transform="translate(8,3)"><path fill="none" d="M 0 11 L 16 11" class="highcharts-graph" stroke="#B375AB" stroke-width="2"></path><text x="21" style="color:#333333;cursor:pointer;font-size:12px;font-weight:normal;fill:#333333;" text-anchor="start" data-z-index="2" y="15"><tspan>Industrie (inkl. Chemie, Pharma)</tspan></text></g><g class="highcharts-legend-item highcharts-line-series highcharts-color-undefined highcharts-series-1" data-z-index="1" transform="translate(227,3)"><path fill="none" d="M 0 11 L 16 11" class="highcharts-graph" stroke="#662673" stroke-width="2"></path><text x="21" y="15" style="color:#333333;cursor:pointer;font-size:12px;font-weight:normal;fill:#333333;" text-anchor="start" data-z-index="2"><tspan>Baugewerbe</tspan></text></g></g></g></g><g class="highcharts-axis-labels highcharts-xaxis-labels" data-z-index="7"><text x="78.2125" style="color:#000000;cursor:default;font-size:11px;fill:#000000;" text-anchor="middle" transform="translate(0,0)" y="370" opacity="1">2011</text><text x="119.9125" style="color:#000000;cursor:default;font-size:11px;fill:#000000;" text-anchor="middle" transform="translate(0,0)" y="370" opacity="1">2012</text><text x="161.6125" style="color:#000000;cursor:default;font-size:11px;fill:#000000;" text-anchor="middle" transform="translate(0,0)" y="370" opacity="1">2013</text><text x="203.3125" style="color:#000000;cursor:default;font-size:11px;fill:#000000;" text-anchor="middle" transform="translate(0,0)" y="370" opacity="1">2014</text><text x="245.0125" style="color:#000000;cursor:default;font-size:11px;fill:#000000;" text-anchor="middle" transform="translate(0,0)" y="370" opacity="1">2015</text><text x="286.7125" style="color:#000000;cursor:default;font-size:11px;fill:#000000;" text-anchor="middle" transform="translate(0,0)" y="370" opacity="1">2016</text><text x="328.4125" style="color:#000000;cursor:default;font-size:11px;fill:#000000;" text-anchor="middle" transform="translate(0,0)" y="370" opacity="1">2017</text><text x="370.1125" style="color:#000000;cursor:default;font-size:11px;fill:#000000;" text-anchor="middle" transform="translate(0,0)" y="370" opacity="1">2018</text><text x="411.8125" style="color:#000000;cursor:default;font-size:11px;fill:#000000;" text-anchor="middle" transform="translate(0,0)" y="370" opacity="1">2019</text><text x="453.5125" style="color:#000000;cursor:default;font-size:11px;fill:#000000;" text-anchor="middle" transform="translate(0,0)" y="370" opacity="1">2020</text></g><g class="highcharts-axis-labels highcharts-yaxis-labels" data-z-index="7"><text x="43" style="color:#000000;cursor:default;font-size:11px;fill:#000000;" text-anchor="end" transform="translate(0,0)" y="355" opacity="1">0</text><text x="43" style="color:#000000;cursor:default;font-size:11px;fill:#000000;" text-anchor="end" transform="translate(0,0)" y="296" opacity="1"><tspan>20 000</tspan></text><text x="43" style="color:#000000;cursor:default;font-size:11px;fill:#000000;" text-anchor="end" transform="translate(0,0)" y="238" opacity="1"><tspan>40 000</tspan></text><text x="43" style="color:#000000;cursor:default;font-size:11px;fill:#000000;" text-anchor="end" transform="translate(0,0)" y="179" opacity="1"><tspan>60 000</tspan></text><text x="43" style="color:#000000;cursor:default;font-size:11px;fill:#000000;" text-anchor="end" transform="translate(0,0)" y="120" opacity="1"><tspan>80 000</tspan></text></g><text x="10" class="highcharts-credits" text-anchor="start" data-z-index="8" style="cursor:default;color:#000000;font-size:10px;fill:#000000;" y="403"><tspan>Quelle: Staatssekretariat für Migration (SEM), Zentrales Migrationssystem (ZEMIS).</tspan><tspan x="10" dy="13">Zuletzt geändert: 2020-3-17</tspan></text></svg>