<svg class="highcharts-root" xmlns="http://www.w3.org/2000/svg" viewBox="0 0 485 415" font-family="Arial" font-size="12">
    <defs>
        <clipPath id="a">
            <path fill="none" d="M0 0h422v209H0z"/>
        </clipPath>
    </defs>
    <rect fill="#fbfbfb" class="highcharts-background" width="485" height="415" rx="0" ry="0"/>
    <path fill="none" class="highcharts-plot-background" d="M53 140h422v209H53z"/>
    <g class="highcharts-grid highcharts-xaxis-grid">
        <path fill="none" class="highcharts-grid-line" d="M56.5 140v209m46-209v209m46-209v209m46-209v209m46-209v209m46-209v209m46-209v209m46-209v209m46-209v209m46-209v209"/>
    </g>
    <g class="highcharts-grid highcharts-yaxis-grid">
        <path fill="none" stroke="#e6e6e6" class="highcharts-grid-line" d="M53 349.5h422m-422-52h422m-422-52h422m-422-53h422m-422-53h422"/>
    </g>
    <path fill="none" class="highcharts-plot-border" d="M53 140h422v209H53z"/>
    <g class="highcharts-axis highcharts-xaxis">
        <path fill="none" class="highcharts-axis-line" stroke="#ccd6eb" d="M53 349.5h422"/>
    </g>
    <g class="highcharts-axis highcharts-yaxis">
        <path fill="none" class="highcharts-axis-line" d="M53 140v209"/>
    </g>
    <g class="highcharts-series-group">
        <g class="highcharts-series highcharts-series-0 highcharts-line-series highcharts-color-undefined" transform="translate(53 140)" clip-path="url(#a)">
            <path fill="none" d="M4.137 77.863l45.97-5.794 45.97-10.977 45.969-2.425 45.97 4.365 45.969 4.825 45.97 3.449 45.969 3.337 45.97 18.74 45.969-.905" class="highcharts-graph" stroke="#933f8d" stroke-width="2" stroke-linejoin="round" stroke-linecap="round"/>
            <path fill="none" d="M-5.863 77.863h10l45.97-5.794 45.97-10.977 45.969-2.425 45.97 4.365 45.969 4.825 45.97 3.449 45.969 3.337 45.97 18.74 45.969-.905h10" stroke-linejoin="round" stroke="rgba(192,192,192,0.0001)" stroke-width="22" class="highcharts-tracker"/>
        </g>
        <g class="highcharts-series highcharts-series-1 highcharts-line-series highcharts-color-undefined" transform="translate(53 140)" clip-path="url(#a)">
            <path fill="none" d="M4.137 180.714l45.97 5.277 45.97-8.538 45.969-6.272 45.97-9.147 45.969 13.615 45.97 7.226 45.969 3.586 45.97-16.427 45.969-3.687" class="highcharts-graph" stroke="#44ab2b" stroke-width="2" stroke-linejoin="round" stroke-linecap="round"/>
            <path fill="none" d="M-5.863 180.714h10l45.97 5.277 45.97-8.538 45.969-6.272 45.97-9.147 45.969 13.615 45.97 7.226 45.969 3.586 45.97-16.427 45.969-3.687h10" stroke-linejoin="round" stroke="rgba(192,192,192,0.0001)" stroke-width="22" class="highcharts-tracker"/>
        </g>
        <g class="highcharts-series highcharts-series-2 highcharts-line-series highcharts-color-undefined" transform="translate(53 140)" clip-path="url(#a)">
            <path fill="none" d="M4.137 194.89l45.97-11.309 45.97 1.595 45.969-1.843 45.97-2.542 45.969 8.653 45.97-.71 45.969 1.978 45.97-5.674 45.969.076" class="highcharts-graph" stroke="#fabd24" stroke-width="2" stroke-linejoin="round" stroke-linecap="round"/>
            <path fill="none" d="M-5.863 194.89h10l45.97-11.309 45.97 1.595 45.969-1.843 45.97-2.542 45.969 8.653 45.97-.71 45.969 1.978 45.97-5.674 45.969.076h10" stroke-linejoin="round" stroke="rgba(192,192,192,0.0001)" stroke-width="22" class="highcharts-tracker"/>
        </g>
        <g class="highcharts-series highcharts-series-3 highcharts-line-series highcharts-color-undefined" transform="translate(53 140)" clip-path="url(#a)">
            <path fill="none" d="M4.137 182.875l45.97 18.66L96.077 198l45.969 7.517 45.97-7.144 45.969-10.273 45.97-.427 45.969-2.333 45.97-11.83 45.969-.683" class="highcharts-graph" stroke="#71a3b5" stroke-width="2" stroke-linejoin="round" stroke-linecap="round"/>
            <path fill="none" d="M-5.863 182.875h10l45.97 18.66L96.077 198l45.969 7.517 45.97-7.144 45.969-10.273 45.97-.427 45.969-2.333 45.97-11.83 45.969-.683h10" stroke-linejoin="round" stroke="rgba(192,192,192,0.0001)" stroke-width="22" class="highcharts-tracker"/>
        </g>
        <g class="highcharts-series highcharts-series-4 highcharts-line-series highcharts-color-undefined" transform="translate(53 140)" clip-path="url(#a)">
            <path fill="none" d="M4.137 194.222l45.97-9.524 45.97-6.122 45.969 3.225 45.97-.132 45.969-1.868 45.97 13.602 45.969-6.212 45.97 1.798 45.969-.66" class="highcharts-graph" stroke="#256370" stroke-width="2" stroke-linejoin="round" stroke-linecap="round"/>
            <path fill="none" d="M-5.863 194.222h10l45.97-9.524 45.97-6.122 45.969 3.225 45.97-.132 45.969-1.868 45.97 13.602 45.969-6.212 45.97 1.798 45.969-.66h10" stroke-linejoin="round" stroke="rgba(192,192,192,0.0001)" stroke-width="22" class="highcharts-tracker"/>
        </g>
        <g class="highcharts-series highcharts-series-5 highcharts-line-series highcharts-color-undefined" transform="translate(53 140)" clip-path="url(#a)">
            <path fill="none" d="M4.137 113.587l45.97.115 45.97-1.049 45.969-2.512 45.97-1.512 45.969-.751 45.97 3.116 45.969 1.873 45.97-1.03 45.969-.692" class="highcharts-graph" stroke="#b00000" stroke-width="2" stroke-linejoin="round" stroke-linecap="round"/>
            <path fill="none" d="M-5.863 113.587h10l45.97.115 45.97-1.049 45.969-2.512 45.97-1.512 45.969-.751 45.97 3.116 45.969 1.873 45.97-1.03 45.969-.692h10" stroke-linejoin="round" stroke="rgba(192,192,192,0.0001)" stroke-width="22" class="highcharts-tracker"/>
        </g>
        <g class="highcharts-markers highcharts-series-5 highcharts-line-series highcharts-color-undefined highcharts-tracker">
            <path fill="#b00000" d="M61 254a4 4 0 1 1 0-.004zm46 0a4 4 0 1 1 0-.004zm46-1a4 4 0 1 1 0-.004zm46-3a4 4 0 1 1 0-.004zm46-1a4 4 0 1 1 0-.004zm45-1a4 4 0 1 1 0-.004zm46 3a4 4 0 1 1 0-.004zm46 2a4 4 0 1 1 0-.004zm46-1a4 4 0 1 1 0-.004zm46-1a4 4 0 1 1 0-.004z" class="highcharts-point"/>
        </g>
    </g>
    <text x="10" class="highcharts-title" y="21" color="#000" font-size="14" font-weight="700">
        <tspan>I.15.4.0004 Entwicklung der Gymnasialquote nach</tspan><tspan dy="17" x="10">Staatsangehörigkeit</tspan><title>I.15.4.0004 Entwicklung der Gymnasialquote nach Staatsangehörigkeit</title>
    </text>
    <g class="highcharts-legend" transform="translate(45 60)">
        <rect fill="none" class="highcharts-legend-box" rx="0" ry="0" width="416" height="68"/>
        <g class="highcharts-legend-item highcharts-line-series highcharts-color-undefined highcharts-series-0">
            <path fill="none" d="M8 14h16" class="highcharts-graph" stroke="#933f8d" stroke-width="2"/>
            <text x="21" y="15" color="#333" font-weight="400" cursor="pointer" fill="#333" transform="translate(8 3)">
                Deutschland
            </text>
        </g>
        <g class="highcharts-legend-item highcharts-line-series highcharts-color-undefined highcharts-series-1">
            <path fill="none" d="M218 14h16" class="highcharts-graph" stroke="#44ab2b" stroke-width="2"/>
            <text x="21" y="15" color="#333" font-weight="400" cursor="pointer" fill="#333" transform="translate(218 3)">
                Italien
            </text>
        </g>
        <g class="highcharts-legend-item highcharts-line-series highcharts-color-undefined highcharts-series-2">
            <path fill="none" d="M8 33h16" class="highcharts-graph" stroke="#fabd24" stroke-width="2"/>
            <text x="21" y="15" color="#333" font-weight="400" cursor="pointer" fill="#333" transform="translate(8 22)">
                Türkei
            </text>
        </g>
        <g class="highcharts-legend-item highcharts-line-series highcharts-color-undefined highcharts-series-3">
            <path fill="none" d="M218 33h16" class="highcharts-graph" stroke="#71a3b5" stroke-width="2"/>
            <text x="21" y="15" color="#333" font-weight="400" cursor="pointer" fill="#333" transform="translate(218 22)">
                Mazedonien
            </text>
        </g>
        <g class="highcharts-legend-item highcharts-line-series highcharts-color-undefined highcharts-series-4">
            <path fill="none" d="M8 52h16" class="highcharts-graph" stroke="#256370" stroke-width="2"/>
            <text x="21" y="15" color="#333" font-weight="400" cursor="pointer" fill="#333" transform="translate(8 41)">
                <tspan>Serbien Montenegro, Kosovo</tspan>
            </text>
        </g>
        <g class="highcharts-legend-item highcharts-line-series highcharts-color-undefined highcharts-series-5">
            <path fill="none" d="M218 52h16" class="highcharts-graph" stroke="#b00000" stroke-width="2"/>
            <path fill="#b00000" d="M230 52a4 4 0 1 1 0-.004z" class="highcharts-point"/>
            <text x="21" y="15" color="#333" font-weight="400" cursor="pointer" fill="#333" transform="translate(218 41)">
                Schweiz
            </text>
        </g>
    </g>
    <g class="highcharts-axis-labels highcharts-xaxis-labels" text-anchor="middle" color="#000" cursor="default" font-size="11">
        <text x="57.137" y="368">
            2006
        </text>
        <text x="103.107" y="368">
            2007
        </text>
        <text x="149.076" y="368">
            2008
        </text>
        <text x="195.046" y="368">
            2009
        </text>
        <text x="241.015" y="368">
            2010
        </text>
        <text x="286.985" y="368">
            2011
        </text>
        <text x="332.954" y="368">
            2012
        </text>
        <text x="378.924" y="368">
            2013
        </text>
        <text x="424.893" y="368">
            2014
        </text>
        <text x="462.781" y="368">
            2015
        </text>
    </g>
    <g class="highcharts-axis-labels highcharts-yaxis-labels" text-anchor="end" color="#000" cursor="default" font-size="11">
        <text x="38" y="354">
            <tspan>0%</tspan>
        </text>
        <text x="38" y="301">
            <tspan>25%</tspan>
        </text>
        <text x="38" y="249">
            <tspan>50%</tspan>
        </text>
        <text x="38" y="197">
            <tspan>75%</tspan>
        </text>
        <text x="38" y="145">
            <tspan>100%</tspan>
        </text>
    </g>
    <text x="10" class="highcharts-credits" y="400" cursor="default" color="#000" font-size="10">
        <tspan>Quelle: Statistisches Amt Basel-Stadt, Bildungsstatistik</tspan>
    </text>
</svg>
