<?xml version="1.0" standalone="no"?><!DOCTYPE svg PUBLIC "-//W3C//DTD SVG 1.1//EN" "http://www.w3.org/Graphics/SVG/1.1/DTD/svg11.dtd"><svg xmlns:xlink="http://www.w3.org/1999/xlink" version="1.1" class="highcharts-root" style="font-family:Arial;font-size:12px;" xmlns="http://www.w3.org/2000/svg" viewBox="0 0 485 415"><desc>Created with Highcharts 8.0.0</desc><defs><clipPath id="highcharts-xqdgb33-86-"><rect x="0" y="0" width="429" height="198" fill="none"></rect></clipPath><clipPath id="highcharts-xqdgb33-97-"><rect x="0" y="0" width="429" height="198" fill="none"></rect></clipPath></defs><rect fill="#fbfbfb" class="highcharts-background" x="0" y="0" width="485" height="428" rx="0" ry="0"></rect><rect fill="none" class="highcharts-plot-background" x="46" y="154" width="429" height="198"></rect><g class="highcharts-pane-group" data-z-index="0"></g><g class="highcharts-grid highcharts-xaxis-grid" data-z-index="1"><path fill="none" data-z-index="1" class="highcharts-grid-line" d="M 49.5 154 L 49.5 352" opacity="1"></path><path fill="none" data-z-index="1" class="highcharts-grid-line" d="M 102.5 154 L 102.5 352" opacity="1"></path><path fill="none" data-z-index="1" class="highcharts-grid-line" d="M 154.5 154 L 154.5 352" opacity="1"></path><path fill="none" data-z-index="1" class="highcharts-grid-line" d="M 207.5 154 L 207.5 352" opacity="1"></path><path fill="none" data-z-index="1" class="highcharts-grid-line" d="M 260.5 154 L 260.5 352" opacity="1"></path><path fill="none" data-z-index="1" class="highcharts-grid-line" d="M 312.5 154 L 312.5 352" opacity="1"></path><path fill="none" data-z-index="1" class="highcharts-grid-line" d="M 365.5 154 L 365.5 352" opacity="1"></path><path fill="none" data-z-index="1" class="highcharts-grid-line" d="M 417.5 154 L 417.5 352" opacity="1"></path><path fill="none" data-z-index="1" class="highcharts-grid-line" d="M 470.5 154 L 470.5 352" opacity="1"></path></g><g class="highcharts-grid highcharts-yaxis-grid" data-z-index="1"><path fill="none" stroke="#B9CFD7" stroke-width="0.5" data-z-index="1" class="highcharts-grid-line" d="M 46 352.25 L 475 352.25" opacity="1"></path><path fill="none" stroke="#B9CFD7" stroke-width="0.5" data-z-index="1" class="highcharts-grid-line" d="M 46 312.25 L 475 312.25" opacity="1"></path><path fill="none" stroke="#B9CFD7" stroke-width="0.5" data-z-index="1" class="highcharts-grid-line" d="M 46 273.25 L 475 273.25" opacity="1"></path><path fill="none" stroke="#B9CFD7" stroke-width="0.5" data-z-index="1" class="highcharts-grid-line" d="M 46 233.25 L 475 233.25" opacity="1"></path><path fill="none" stroke="#B9CFD7" stroke-width="0.5" data-z-index="1" class="highcharts-grid-line" d="M 46 194.25 L 475 194.25" opacity="1"></path><path fill="none" stroke="#B9CFD7" stroke-width="0.5" data-z-index="1" class="highcharts-grid-line" d="M 46 153.75 L 475 153.75" opacity="1"></path></g><rect fill="none" class="highcharts-plot-border" data-z-index="1" x="46" y="154" width="429" height="198"></rect><g class="highcharts-axis highcharts-xaxis" data-z-index="2"><path fill="none" class="highcharts-axis-line" stroke="#B9CFD7" stroke-width="0.5" data-z-index="7" d="M 46 352.25 L 475 352.25"></path></g><g class="highcharts-axis highcharts-yaxis" data-z-index="2"><path fill="none" class="highcharts-axis-line" data-z-index="7" d="M 46 154 L 46 352"></path></g><g class="highcharts-series-group" data-z-index="3"><g data-z-index="0.1" class="highcharts-series highcharts-series-0 highcharts-line-series" transform="translate(46,154) scale(1 1)" clip-path="url(#highcharts-xqdgb33-97-)"><path fill="none" d="M 4.2058823529433 49.14359999999999 L 56.779411764707 52.11359999999999 L 83.06617647059 59.95439999999999 L 109.35294117647 53.262 L 161.92647058824 52.94520000000003 L 214.5 50.569199999999995 L 267.07352941176 48.0744 L 319.64705882353 45.22320000000002 L 372.22058823529 47.6388 L 424.79411764706 45.1044" class="highcharts-graph" data-z-index="1" stroke="#6F6F6F" stroke-width="2" stroke-linejoin="round" stroke-linecap="round"></path></g><g data-z-index="0.1" class="highcharts-markers highcharts-series-0 highcharts-line-series" transform="translate(46,154) scale(1 1)" clip-path="none"></g><g data-z-index="0.1" class="highcharts-series highcharts-series-1 highcharts-line-series" transform="translate(46,154) scale(1 1)" clip-path="url(#highcharts-xqdgb33-97-)"><path fill="none" d="M 4.2058823529433 58.68719999999996 L 56.779411764707 63.4392 L 83.06617647059 71.59679999999999 L 109.35294117647 64.35 L 161.92647058824 61.894799999999975 L 214.5 57.34080000000003 L 267.07352941176 54.172800000000024 L 319.64705882353 51.59880000000001 L 372.22058823529 54.6876 L 424.79411764706 50.88599999999997" class="highcharts-graph" data-z-index="1" stroke="#007A2F" stroke-width="2" stroke-linejoin="round" stroke-linecap="round"></path></g><g data-z-index="0.1" class="highcharts-markers highcharts-series-1 highcharts-line-series" transform="translate(46,154) scale(1 1)" clip-path="none"></g><g data-z-index="0.1" class="highcharts-series highcharts-series-2 highcharts-line-series" transform="translate(46,154) scale(1 1)" clip-path="url(#highcharts-xqdgb33-97-)"><path fill="none" d="M 4.2058823529433 51.519600000000025 L 56.779411764707 53.22239999999999 L 83.06617647059 57.41999999999999 L 109.35294117647 48.272400000000005 L 161.92647058824 48.66840000000002 L 214.5 50.41080000000002 L 267.07352941176 47.797199999999975 L 319.64705882353 46.33200000000002 L 372.22058823529 45.658800000000014 L 424.79411764706 47.163599999999974" class="highcharts-graph" data-z-index="1" stroke="#2B0099" stroke-width="2" stroke-linejoin="round" stroke-linecap="round"></path></g><g data-z-index="0.1" class="highcharts-markers highcharts-series-2 highcharts-line-series" transform="translate(46,154) scale(1 1)" clip-path="none"></g><g data-z-index="0.1" class="highcharts-series highcharts-series-3 highcharts-line-series" transform="translate(46,154) scale(1 1)" clip-path="url(#highcharts-xqdgb33-97-)"><path fill="none" d="M 4.2058823529433 25.304400000000015 L 56.779411764707 29.462400000000002 L 83.06617647059 39.1644 L 109.35294117647 31.402800000000042 L 161.92647058824 34.25400000000002 L 214.5 34.05599999999998 L 267.07352941176 29.50200000000001 L 319.64705882353 26.135999999999967 L 372.22058823529 29.34359999999998 L 424.79411764706 25.621199999999988" class="highcharts-graph" data-z-index="1" stroke="#B00000" stroke-width="2" stroke-linejoin="round" stroke-linecap="round"></path></g><g data-z-index="0.1" class="highcharts-markers highcharts-series-3 highcharts-line-series" transform="translate(46,154) scale(1 1)" clip-path="none"></g><g data-z-index="0.1" class="highcharts-series highcharts-series-4 highcharts-line-series" visibility="hidden" transform="translate(46,154) scale(1 1)" clip-path="url(#highcharts-xqdgb33-97-)"><path fill="none" d="M 4.2058823529433 -26.175600000000003 L 56.779411764707 -19.404000000000025 L 83.06617647059 8.35560000000001 L 109.35294117647 3.880800000000022 L 161.92647058824 11.246400000000023 L 214.5 -56.11319999999995 L 267.07352941176 -58.924800000000005 L 319.64705882353 -56.39040000000003 L 372.22058823529 -53.93520000000001 L 424.79411764706 -54.41040000000004" class="highcharts-graph" data-z-index="1" stroke="#C8C8C8" stroke-width="2" stroke-linejoin="round" stroke-linecap="round"></path></g><g data-z-index="0.1" class="highcharts-markers highcharts-series-4 highcharts-line-series" visibility="hidden" transform="translate(46,154) scale(1 1)" clip-path="none"></g><g data-z-index="0.1" class="highcharts-series highcharts-series-5 highcharts-line-series" visibility="hidden" transform="translate(46,154) scale(1 1)" clip-path="url(#highcharts-xqdgb33-97-)"><path fill="none" d="M 4.2058823529433 45.658800000000014 L 56.779411764707 61.93440000000001 L 83.06617647059 78.28919999999998 L 109.35294117647 74.48760000000001 L 161.92647058824 60.03359999999998 L 214.5 7.801199999999994 L 267.07352941176 -0.31680000000000064 L 319.64705882353 -13.89960000000002 L 372.22058823529 2.3759999999999764 L 424.79411764706 5.58359999999999" class="highcharts-graph" data-z-index="1" stroke="#73B97C" stroke-width="2" stroke-linejoin="round" stroke-linecap="round"></path></g><g data-z-index="0.1" class="highcharts-markers highcharts-series-5 highcharts-line-series" visibility="hidden" transform="translate(46,154) scale(1 1)" clip-path="none"></g><g data-z-index="0.1" class="highcharts-series highcharts-series-6 highcharts-line-series" visibility="hidden" transform="translate(46,154) scale(1 1)" clip-path="url(#highcharts-xqdgb33-97-)"><path fill="none" d="M 4.2058823529433 -19.641599999999983 L 56.779411764707 -28.907999999999987 L 83.06617647059 -12.711599999999976 L 109.35294117647 -10.256400000000014 L 161.92647058824 -8.87039999999999 L 214.5 -62.6472 L 267.07352941176 -59.28120000000001 L 319.64705882353 -65.4588 L 372.22058823529 -66.40920000000006 L 424.79411764706 -61.57800000000003" class="highcharts-graph" data-z-index="1" stroke="#008AC3" stroke-width="2" stroke-linejoin="round" stroke-linecap="round"></path></g><g data-z-index="0.1" class="highcharts-markers highcharts-series-6 highcharts-line-series" visibility="hidden" transform="translate(46,154) scale(1 1)" clip-path="none"></g><g data-z-index="0.1" class="highcharts-series highcharts-series-7 highcharts-line-series" visibility="hidden" transform="translate(46,154) scale(1 1)" clip-path="url(#highcharts-xqdgb33-97-)"><path fill="none" d="M 4.2058823529433 -86.92199999999997 L 56.779411764707 -67.87439999999992 L 83.06617647059 -50.37119999999999 L 109.35294117647 -47.87640000000002 L 161.92647058824 -40.82760000000002 L 214.5 -107.1576 L 267.07352941176 -109.73160000000001 L 319.64705882353 -109.09800000000007 L 372.22058823529 -105.77160000000003 L 424.79411764706 -102.95999999999998" class="highcharts-graph" data-z-index="1" stroke="#FF8028" stroke-width="2" stroke-linejoin="round" stroke-linecap="round"></path></g><g data-z-index="0.1" class="highcharts-markers highcharts-series-7 highcharts-line-series" visibility="hidden" transform="translate(46,154) scale(1 1)" clip-path="none"></g></g><text x="10" text-anchor="start" class="highcharts-title" data-z-index="4" style="color:#000000;font-size:14px;font-weight:bold;fill:#000000;" y="21"><tspan>Globale und kontinentale Erreichbarkeit</tspan></text><text x="10" text-anchor="start" class="highcharts-subtitle" data-z-index="4" style="color:#000000;font-size:12px;font-weight:normal;font-family:Arial;fill:#000000;" y="40"><tspan>Stadt Basel im Vergleich mit ausgewählten Schweizer Städten</tspan></text><text x="10" text-anchor="start" class="highcharts-caption" data-z-index="4" style="color:#666666;fill:#666666;" y="385"></text><g class="highcharts-legend" data-z-index="7" transform="translate(38,55)"><rect fill="none" class="highcharts-legend-box" rx="0" ry="0" x="0" y="0" width="396" height="87" visibility="visible"></rect><g data-z-index="1"><g><g class="highcharts-legend-item highcharts-line-series highcharts-color-undefined highcharts-series-0" data-z-index="1" transform="translate(8,3)"><path fill="none" d="M 0 11 L 16 11" class="highcharts-graph" stroke="#6F6F6F" stroke-width="2"></path><text x="21" style="color:#333333;cursor:pointer;font-size:12px;font-weight:normal;fill:#333333;" text-anchor="start" data-z-index="2" y="15"><tspan>Basel global</tspan></text></g><g class="highcharts-legend-item highcharts-line-series highcharts-color-undefined highcharts-series-4 highcharts-legend-item-hidden" data-z-index="1" transform="translate(208,3)"><path fill="none" d="M 0 11 L 16 11" class="highcharts-graph" stroke="#cccccc" stroke-width="2"></path><text x="21" y="15" style="color:#cccccc;cursor:pointer;font-size:12px;font-weight:normal;fill:#cccccc;" text-anchor="start" data-z-index="2"><tspan>Basel kontinental</tspan></text></g><g class="highcharts-legend-item highcharts-line-series highcharts-color-undefined highcharts-series-1" data-z-index="1" transform="translate(8,22)"><path fill="none" d="M 0 11 L 16 11" class="highcharts-graph" stroke="#007A2F" stroke-width="2"></path><text x="21" y="15" style="color:#333333;cursor:pointer;font-size:12px;font-weight:normal;fill:#333333;" text-anchor="start" data-z-index="2"><tspan>Bern global</tspan></text></g><g class="highcharts-legend-item highcharts-line-series highcharts-color-undefined highcharts-series-5 highcharts-legend-item-hidden" data-z-index="1" transform="translate(208,22)"><path fill="none" d="M 0 11 L 16 11" class="highcharts-graph" stroke="#cccccc" stroke-width="2"></path><text x="21" y="15" style="color:#cccccc;cursor:pointer;font-size:12px;font-weight:normal;fill:#cccccc;" text-anchor="start" data-z-index="2"><tspan>Bern kontinental</tspan></text></g><g class="highcharts-legend-item highcharts-line-series highcharts-color-undefined highcharts-series-2" data-z-index="1" transform="translate(8,41)"><path fill="none" d="M 0 11 L 16 11" class="highcharts-graph" stroke="#2B0099" stroke-width="2"></path><text x="21" y="15" style="color:#333333;cursor:pointer;font-size:12px;font-weight:normal;fill:#333333;" text-anchor="start" data-z-index="2"><tspan>Genf global</tspan></text></g><g class="highcharts-legend-item highcharts-line-series highcharts-color-undefined highcharts-series-6 highcharts-legend-item-hidden" data-z-index="1" transform="translate(208,41)"><path fill="none" d="M 0 11 L 16 11" class="highcharts-graph" stroke="#cccccc" stroke-width="2"></path><text x="21" y="15" style="color:#cccccc;cursor:pointer;font-size:12px;font-weight:normal;fill:#cccccc;" text-anchor="start" data-z-index="2"><tspan>Genf kontinental</tspan></text></g><g class="highcharts-legend-item highcharts-line-series highcharts-color-undefined highcharts-series-3" data-z-index="1" transform="translate(8,60)"><path fill="none" d="M 0 11 L 16 11" class="highcharts-graph" stroke="#B00000" stroke-width="2"></path><text x="21" y="15" style="color:#333333;cursor:pointer;font-size:12px;font-weight:normal;fill:#333333;" text-anchor="start" data-z-index="2"><tspan>Zürich global</tspan></text></g><g class="highcharts-legend-item highcharts-line-series highcharts-color-undefined highcharts-series-7 highcharts-legend-item-hidden" data-z-index="1" transform="translate(208,60)"><path fill="none" d="M 0 11 L 16 11" class="highcharts-graph" stroke="#cccccc" stroke-width="2"></path><text x="21" y="15" style="color:#cccccc;cursor:pointer;font-size:12px;font-weight:normal;fill:#cccccc;" text-anchor="start" data-z-index="2"><tspan>Zürich kontinental</tspan></text></g></g></g></g><g class="highcharts-axis-labels highcharts-xaxis-labels" data-z-index="7"><text x="50.205882352943" style="color:#000000;cursor:default;font-size:11px;fill:#000000;" text-anchor="middle" transform="translate(0,0)" y="371" opacity="1">2000</text><text x="102.77941176471" style="color:#000000;cursor:default;font-size:11px;fill:#000000;" text-anchor="middle" transform="translate(0,0)" y="371" opacity="1">2002</text><text x="155.35294117647" style="color:#000000;cursor:default;font-size:11px;fill:#000000;" text-anchor="middle" transform="translate(0,0)" y="371" opacity="1">2004</text><text x="207.92647058824" style="color:#000000;cursor:default;font-size:11px;fill:#000000;" text-anchor="middle" transform="translate(0,0)" y="371" opacity="1">2006</text><text x="260.5" style="color:#000000;cursor:default;font-size:11px;fill:#000000;" text-anchor="middle" transform="translate(0,0)" y="371" opacity="1">2008</text><text x="313.07352941176" style="color:#000000;cursor:default;font-size:11px;fill:#000000;" text-anchor="middle" transform="translate(0,0)" y="371" opacity="1">2010</text><text x="365.64705882353" style="color:#000000;cursor:default;font-size:11px;fill:#000000;" text-anchor="middle" transform="translate(0,0)" y="371" opacity="1">2012</text><text x="418.22058823529" style="color:#000000;cursor:default;font-size:11px;fill:#000000;" text-anchor="middle" transform="translate(0,0)" y="371" opacity="1">2014</text><text x="461.03125" style="color:#000000;cursor:default;font-size:11px;fill:#000000;" text-anchor="middle" transform="translate(0,0)" y="371" opacity="1">2016</text></g><g class="highcharts-axis-labels highcharts-yaxis-labels" data-z-index="7"><text x="31" style="color:#000000;cursor:default;font-size:11px;fill:#000000;" text-anchor="end" transform="translate(0,0)" y="357" opacity="1">70</text><text x="31" style="color:#000000;cursor:default;font-size:11px;fill:#000000;" text-anchor="end" transform="translate(0,0)" y="317" opacity="1">80</text><text x="31" style="color:#000000;cursor:default;font-size:11px;fill:#000000;" text-anchor="end" transform="translate(0,0)" y="277" opacity="1">90</text><text x="31" style="color:#000000;cursor:default;font-size:11px;fill:#000000;" text-anchor="end" transform="translate(0,0)" y="238" opacity="1">100</text><text x="31" style="color:#000000;cursor:default;font-size:11px;fill:#000000;" text-anchor="end" transform="translate(0,0)" y="198" opacity="1">110</text><text x="31" style="color:#000000;cursor:default;font-size:11px;fill:#000000;" text-anchor="end" transform="translate(0,0)" y="159" opacity="1">120</text></g><text x="10" class="highcharts-credits" text-anchor="start" data-z-index="8" style="cursor:default;color:#000000;font-size:10px;fill:#000000;" y="403"><tspan>Quelle: BAK Economics.</tspan><tspan x="10" dy="13">Zuletzt geändert: 2018-10-24</tspan></text></svg>