<?xml version="1.0" standalone="no"?><!DOCTYPE svg PUBLIC "-//W3C//DTD SVG 1.1//EN" "http://www.w3.org/Graphics/SVG/1.1/DTD/svg11.dtd"><svg xmlns:xlink="http://www.w3.org/1999/xlink" version="1.1" class="highcharts-root" style="font-family:Arial;font-size:12px;" xmlns="http://www.w3.org/2000/svg" viewBox="0 0 485 415"><desc>Created with Highcharts 7.2.0</desc><defs><clipPath id="highcharts-efj1rel-71-"><rect x="0" y="0" width="423" height="261" fill="none"></rect></clipPath><clipPath id="highcharts-efj1rel-85-"><rect x="0" y="0" width="423" height="261" fill="none"></rect></clipPath></defs><rect fill="#fbfbfb" class="highcharts-background" x="0" y="0" width="485" height="428" rx="0" ry="0"></rect><rect fill="none" class="highcharts-plot-background" x="52" y="92" width="423" height="261"></rect><g class="highcharts-pane-group" data-z-index="0"></g><g class="highcharts-grid highcharts-xaxis-grid" data-z-index="1"><path fill="none" data-z-index="1" class="highcharts-grid-line" d="M 84.5 92 L 84.5 353" opacity="1"></path><path fill="none" data-z-index="1" class="highcharts-grid-line" d="M 116.5 92 L 116.5 353" opacity="1"></path><path fill="none" data-z-index="1" class="highcharts-grid-line" d="M 149.5 92 L 149.5 353" opacity="1"></path><path fill="none" data-z-index="1" class="highcharts-grid-line" d="M 181.5 92 L 181.5 353" opacity="1"></path><path fill="none" data-z-index="1" class="highcharts-grid-line" d="M 214.5 92 L 214.5 353" opacity="1"></path><path fill="none" data-z-index="1" class="highcharts-grid-line" d="M 246.5 92 L 246.5 353" opacity="1"></path><path fill="none" data-z-index="1" class="highcharts-grid-line" d="M 279.5 92 L 279.5 353" opacity="1"></path><path fill="none" data-z-index="1" class="highcharts-grid-line" d="M 311.5 92 L 311.5 353" opacity="1"></path><path fill="none" data-z-index="1" class="highcharts-grid-line" d="M 344.5 92 L 344.5 353" opacity="1"></path><path fill="none" data-z-index="1" class="highcharts-grid-line" d="M 376.5 92 L 376.5 353" opacity="1"></path><path fill="none" data-z-index="1" class="highcharts-grid-line" d="M 409.5 92 L 409.5 353" opacity="1"></path><path fill="none" data-z-index="1" class="highcharts-grid-line" d="M 441.5 92 L 441.5 353" opacity="1"></path><path fill="none" data-z-index="1" class="highcharts-grid-line" d="M 474.5 92 L 474.5 353" opacity="1"></path><path fill="none" data-z-index="1" class="highcharts-grid-line" d="M 51.5 92 L 51.5 353" opacity="1"></path></g><g class="highcharts-grid highcharts-yaxis-grid" data-z-index="1"><path fill="none" stroke="#B9CFD7" stroke-width="0.5" data-z-index="1" class="highcharts-grid-line" d="M 52 353.25 L 475 353.25" opacity="1"></path><path fill="none" stroke="#B9CFD7" stroke-width="0.5" data-z-index="1" class="highcharts-grid-line" d="M 52 266.25 L 475 266.25" opacity="1"></path><path fill="none" stroke="#B9CFD7" stroke-width="0.5" data-z-index="1" class="highcharts-grid-line" d="M 52 179.25 L 475 179.25" opacity="1"></path><path fill="none" stroke="#B9CFD7" stroke-width="0.5" data-z-index="1" class="highcharts-grid-line" d="M 52 91.75 L 475 91.75" opacity="1"></path></g><rect fill="none" class="highcharts-plot-border" data-z-index="1" x="52" y="92" width="423" height="261"></rect><g class="highcharts-axis highcharts-xaxis" data-z-index="2"><path fill="none" class="highcharts-axis-line" stroke="#B9CFD7" stroke-width="0.5" data-z-index="7" d="M 52 353.25 L 475 353.25"></path></g><g class="highcharts-axis highcharts-yaxis" data-z-index="2"><path fill="none" class="highcharts-axis-line" data-z-index="7" d="M 52 92 L 52 353"></path></g><g class="highcharts-series-group" data-z-index="3"><g data-z-index="0.1" class="highcharts-series highcharts-series-0 highcharts-line-series " transform="translate(52,92) scale(1 1)" clip-path="url(#highcharts-efj1rel-85-)"><path fill="none" d="M 16.269230769231 211.584 L 48.807692307692 210.975 L 81.346153846154 210.192 L 113.88461538462 209.061 L 146.42307692308 208.626 L 178.96153846154 207.84300000000002 L 211.5 207.669 L 244.03846153846 207.495 L 276.57692307692 206.886 L 309.11538461538 206.19 L 341.65384615385 204.711 L 374.19230769231 203.667 L 406.73076923077 203.058" class="highcharts-graph" data-z-index="1" stroke="#DC440E" stroke-width="2" stroke-linejoin="round" stroke-linecap="round"></path></g><g data-z-index="0.1" class="highcharts-markers highcharts-series-0 highcharts-line-series " transform="translate(52,92) scale(1 1)" clip-path="none"></g><g data-z-index="0.1" class="highcharts-series highcharts-series-1 highcharts-line-series " transform="translate(52,92) scale(1 1)" clip-path="url(#highcharts-efj1rel-85-)"><path fill="none" d="M 16.269230769231 186.789 L 48.807692307692 185.832 L 81.346153846154 184.179 L 113.88461538462 182.091 L 146.42307692308 181.656 L 178.96153846154 183.222 L 211.5 182.7 L 244.03846153846 182.00400000000002 L 276.57692307692 181.56900000000002 L 309.11538461538 180.438 L 341.65384615385 179.133 L 374.19230769231 177.74099999999999 L 406.73076923077 176.61" class="highcharts-graph" data-z-index="1" stroke="#933F8D" stroke-width="2" stroke-linejoin="round" stroke-linecap="round"></path></g><g data-z-index="0.1" class="highcharts-markers highcharts-series-1 highcharts-line-series " transform="translate(52,92) scale(1 1)" clip-path="none"></g><g data-z-index="0.1" class="highcharts-series highcharts-series-2 highcharts-line-series " transform="translate(52,92) scale(1 1)" clip-path="url(#highcharts-efj1rel-85-)"><path fill="none" d="M 16.269230769231 169.128 L 48.807692307692 168.258 L 81.346153846154 166.344 L 113.88461538462 163.82100000000003 L 146.42307692308 162.864 L 178.96153846154 163.125 L 211.5 162.168 L 244.03846153846 161.82 L 276.57692307692 161.12400000000002 L 309.11538461538 159.645 L 341.65384615385 159.123 L 374.19230769231 157.905 L 406.73076923077 156.774" class="highcharts-graph" data-z-index="1" stroke="#68AB2B" stroke-width="2" stroke-linejoin="round" stroke-linecap="round"></path></g><g data-z-index="0.1" class="highcharts-markers highcharts-series-2 highcharts-line-series " transform="translate(52,92) scale(1 1)" clip-path="none"></g><g data-z-index="0.1" class="highcharts-series highcharts-series-3 highcharts-line-series " transform="translate(52,92) scale(1 1)" clip-path="url(#highcharts-efj1rel-85-)"><path fill="none" d="M 16.269230769231 136.50300000000001 L 48.807692307692 134.41500000000002 L 81.346153846154 130.674 L 113.88461538462 127.803 L 146.42307692308 127.19400000000002 L 178.96153846154 127.107 L 211.5 126.23700000000002 L 244.03846153846 124.23600000000002 L 276.57692307692 124.23600000000002 L 309.11538461538 123.10500000000002 L 341.65384615385 124.23600000000002 L 374.19230769231 122.40900000000002 L 406.73076923077 121.191" class="highcharts-graph" data-z-index="1" stroke="#689199" stroke-width="2" stroke-linejoin="round" stroke-linecap="round"></path></g><g data-z-index="0.1" class="highcharts-markers highcharts-series-3 highcharts-line-series " transform="translate(52,92) scale(1 1)" clip-path="none"></g><g data-z-index="0.1" class="highcharts-series highcharts-series-4 highcharts-line-series " transform="translate(52,92) scale(1 1)" clip-path="url(#highcharts-efj1rel-85-)"><path fill="none" d="M 16.269230769231 85.52100000000002 L 48.807692307692 84.65100000000001 L 81.346153846154 78.126 L 113.88461538462 75.168 L 146.42307692308 74.55900000000003 L 178.96153846154 76.125 L 211.5 74.90700000000001 L 244.03846153846 72.036 L 276.57692307692 70.47000000000003 L 309.11538461538 67.33800000000002 L 341.65384615385 73.602 L 374.19230769231 70.209 L 406.73076923077 69.42600000000002" class="highcharts-graph" data-z-index="1" stroke="#008AC3" stroke-width="2" stroke-linejoin="round" stroke-linecap="round"></path></g><g data-z-index="0.1" class="highcharts-markers highcharts-series-4 highcharts-line-series " transform="translate(52,92) scale(1 1)" clip-path="none"></g></g><text x="10" text-anchor="start" class="highcharts-title" data-z-index="4" style="color:#000000;font-size:14px;font-weight:bold;fill:#000000;" y="21"><tspan>Mietpreisentwicklung</tspan></text><text x="10" text-anchor="start" class="highcharts-subtitle" data-z-index="4" style="color:#000000;font-size:12px;font-weight:normal;font-family:Arial;fill:#000000;" y="40"><tspan>Wohnungen nach Zimmerzahl, Basel-Stadt</tspan></text><text x="10" text-anchor="start" class="highcharts-caption" data-z-index="4" style="color:#666666;fill:#666666;" y="385"></text><g class="highcharts-legend" data-z-index="7" transform="translate(44,55)"><rect fill="none" class="highcharts-legend-box" rx="0" ry="0" x="0" y="0" width="508" height="25" visibility="visible"></rect><g data-z-index="1"><g><g class="highcharts-legend-item highcharts-line-series highcharts-color-undefined highcharts-series-0" data-z-index="1" transform="translate(8,3)"><path fill="none" d="M 0 11 L 16 11" class="highcharts-graph" stroke="#DC440E" stroke-width="2"></path><text x="21" style="color:#333333;cursor:pointer;font-size:12px;font-weight:normal;fill:#333333;" text-anchor="start" data-z-index="2" y="15"><tspan>1 Zimmer</tspan></text></g><g class="highcharts-legend-item highcharts-line-series highcharts-color-undefined highcharts-series-1" data-z-index="1" transform="translate(89.609375,3)"><path fill="none" d="M 0 11 L 16 11" class="highcharts-graph" stroke="#933F8D" stroke-width="2"></path><text x="21" y="15" style="color:#333333;cursor:pointer;font-size:12px;font-weight:normal;fill:#333333;" text-anchor="start" data-z-index="2"><tspan>2 Zimmer</tspan></text></g><g class="highcharts-legend-item highcharts-line-series highcharts-color-undefined highcharts-series-2" data-z-index="1" transform="translate(171.21875,3)"><path fill="none" d="M 0 11 L 16 11" class="highcharts-graph" stroke="#68AB2B" stroke-width="2"></path><text x="21" y="15" style="color:#333333;cursor:pointer;font-size:12px;font-weight:normal;fill:#333333;" text-anchor="start" data-z-index="2"><tspan>3 Zimmer</tspan></text></g><g class="highcharts-legend-item highcharts-line-series highcharts-color-undefined highcharts-series-3" data-z-index="1" transform="translate(252.828125,3)"><path fill="none" d="M 0 11 L 16 11" class="highcharts-graph" stroke="#689199" stroke-width="2"></path><text x="21" y="15" style="color:#333333;cursor:pointer;font-size:12px;font-weight:normal;fill:#333333;" text-anchor="start" data-z-index="2"><tspan>4 Zimmer</tspan></text></g><g class="highcharts-legend-item highcharts-line-series highcharts-color-undefined highcharts-series-4" data-z-index="1" transform="translate(334.4375,3)"><path fill="none" d="M 0 11 L 16 11" class="highcharts-graph" stroke="#008AC3" stroke-width="2"></path><text x="21" y="15" style="color:#333333;cursor:pointer;font-size:12px;font-weight:normal;fill:#333333;" text-anchor="start" data-z-index="2"><tspan>5 Zimmer</tspan></text></g></g></g></g><g class="highcharts-axis-labels highcharts-xaxis-labels" data-z-index="7"><text x="68.26923076923123" style="color:#000000;cursor:default;font-size:11px;fill:#000000;" text-anchor="middle" transform="translate(0,0)" y="372" opacity="1">2006</text><text x="100.80769230768922" style="color:#000000;cursor:default;font-size:11px;fill:#000000;" text-anchor="middle" transform="translate(0,0)" y="372" opacity="1">2007</text><text x="133.34615384614924" style="color:#000000;cursor:default;font-size:11px;fill:#000000;" text-anchor="middle" transform="translate(0,0)" y="372" opacity="1">2008</text><text x="165.88461538461922" style="color:#000000;cursor:default;font-size:11px;fill:#000000;" text-anchor="middle" transform="translate(0,0)" y="372" opacity="1">2009</text><text x="198.42307692307924" style="color:#000000;cursor:default;font-size:11px;fill:#000000;" text-anchor="middle" transform="translate(0,0)" y="372" opacity="1">2010</text><text x="230.96153846153922" style="color:#000000;cursor:default;font-size:11px;fill:#000000;" text-anchor="middle" transform="translate(0,0)" y="372" opacity="1">2011</text><text x="263.4999999999992" style="color:#000000;cursor:default;font-size:11px;fill:#000000;" text-anchor="middle" transform="translate(0,0)" y="372" opacity="1">2012</text><text x="296.0384615384592" style="color:#000000;cursor:default;font-size:11px;fill:#000000;" text-anchor="middle" transform="translate(0,0)" y="372" opacity="1">2013</text><text x="328.57692307691923" style="color:#000000;cursor:default;font-size:11px;fill:#000000;" text-anchor="middle" transform="translate(0,0)" y="372" opacity="1">2014</text><text x="361.11538461538925" style="color:#000000;cursor:default;font-size:11px;fill:#000000;" text-anchor="middle" transform="translate(0,0)" y="372" opacity="1">2015</text><text x="393.6538461538492" style="color:#000000;cursor:default;font-size:11px;fill:#000000;" text-anchor="middle" transform="translate(0,0)" y="372" opacity="1">2016</text><text x="426.1923076923092" style="color:#000000;cursor:default;font-size:11px;fill:#000000;" text-anchor="middle" transform="translate(0,0)" y="372" opacity="1">2017</text><text x="458.7307692307692" style="color:#000000;cursor:default;font-size:11px;fill:#000000;" text-anchor="middle" transform="translate(0,0)" y="372" opacity="1">2018</text></g><g class="highcharts-axis-labels highcharts-yaxis-labels" data-z-index="7"><text x="37" style="color:#000000;cursor:default;font-size:11px;fill:#000000;" text-anchor="end" transform="translate(0,0)" y="358" opacity="1">0</text><text x="37" style="color:#000000;cursor:default;font-size:11px;fill:#000000;" text-anchor="end" transform="translate(0,0)" y="271" opacity="1"><tspan>1 000</tspan></text><text x="37" style="color:#000000;cursor:default;font-size:11px;fill:#000000;" text-anchor="end" transform="translate(0,0)" y="184" opacity="1"><tspan>2 000</tspan></text><text x="37" style="color:#000000;cursor:default;font-size:11px;fill:#000000;" text-anchor="end" transform="translate(0,0)" y="97" opacity="1"><tspan>3 000</tspan></text></g><text x="10" class="highcharts-credits" text-anchor="start" data-z-index="8" style="cursor:default;color:#000000;font-size:10px;fill:#000000;" y="403"><tspan>Quelle: Statistisches Amt Basel-Stadt, Mietpreiserhebung.</tspan><tspan x="10" dy="13">Zuletzt geändert: 2018-12-4</tspan></text></svg>