<?xml version="1.0" standalone="no"?><!DOCTYPE svg PUBLIC "-//W3C//DTD SVG 1.1//EN" "http://www.w3.org/Graphics/SVG/1.1/DTD/svg11.dtd"><svg xmlns:xlink="http://www.w3.org/1999/xlink" version="1.1" class="highcharts-root" style="font-family:Arial;font-size:12px;" xmlns="http://www.w3.org/2000/svg" viewBox="0 0 485 415"><desc>Created with Highcharts 8.0.4</desc><defs><clipPath id="highcharts-gnmvuz1-38-"><rect x="0" y="0" width="419" height="233" fill="none"></rect></clipPath><clipPath id="highcharts-gnmvuz1-47-"><rect x="0" y="0" width="419" height="233" fill="none"></rect></clipPath></defs><rect fill="#fbfbfb" class="highcharts-background" x="0" y="0" width="485" height="428" rx="0" ry="0"></rect><rect fill="none" class="highcharts-plot-background" x="56" y="134" width="419" height="233"></rect><g class="highcharts-pane-group" data-z-index="0"></g><g class="highcharts-grid highcharts-xaxis-grid" data-z-index="1"><path fill="none" data-z-index="1" class="highcharts-grid-line" d="M 107.5 134 L 107.5 367" opacity="1"></path><path fill="none" data-z-index="1" class="highcharts-grid-line" d="M 160.5 134 L 160.5 367" opacity="1"></path><path fill="none" data-z-index="1" class="highcharts-grid-line" d="M 212.5 134 L 212.5 367" opacity="1"></path><path fill="none" data-z-index="1" class="highcharts-grid-line" d="M 265.5 134 L 265.5 367" opacity="1"></path><path fill="none" data-z-index="1" class="highcharts-grid-line" d="M 317.5 134 L 317.5 367" opacity="1"></path><path fill="none" data-z-index="1" class="highcharts-grid-line" d="M 369.5 134 L 369.5 367" opacity="1"></path><path fill="none" data-z-index="1" class="highcharts-grid-line" d="M 422.5 134 L 422.5 367" opacity="1"></path><path fill="none" data-z-index="1" class="highcharts-grid-line" d="M 474.5 134 L 474.5 367" opacity="1"></path><path fill="none" data-z-index="1" class="highcharts-grid-line" d="M 55.5 134 L 55.5 367" opacity="1"></path></g><g class="highcharts-grid highcharts-yaxis-grid" data-z-index="1"><path fill="none" stroke="#B9CFD7" stroke-width="0.5" data-z-index="1" class="highcharts-grid-line" d="M 56 367.25 L 475 367.25" opacity="1"></path><path fill="none" stroke="#B9CFD7" stroke-width="0.5" data-z-index="1" class="highcharts-grid-line" d="M 56 309.25 L 475 309.25" opacity="1"></path><path fill="none" stroke="#B9CFD7" stroke-width="0.5" data-z-index="1" class="highcharts-grid-line" d="M 56 251.25 L 475 251.25" opacity="1"></path><path fill="none" stroke="#B9CFD7" stroke-width="0.5" data-z-index="1" class="highcharts-grid-line" d="M 56 192.25 L 475 192.25" opacity="1"></path><path fill="none" stroke="#B9CFD7" stroke-width="0.5" data-z-index="1" class="highcharts-grid-line" d="M 56 133.75 L 475 133.75" opacity="1"></path></g><rect fill="none" class="highcharts-plot-border" data-z-index="1" x="56" y="134" width="419" height="233"></rect><g class="highcharts-axis highcharts-xaxis" data-z-index="2"><path fill="none" class="highcharts-axis-line" stroke="#B9CFD7" stroke-width="0.5" data-z-index="7" d="M 56 367.25 L 475 367.25"></path></g><g class="highcharts-axis highcharts-yaxis" data-z-index="2"><path fill="none" class="highcharts-axis-line" data-z-index="7" d="M 56 134 L 56 367"></path></g><g class="highcharts-series-group" data-z-index="3"><g data-z-index="0.1" class="highcharts-series highcharts-series-0 highcharts-column-series" transform="translate(56,134) scale(1 1)" clip-path="url(#highcharts-gnmvuz1-47-)"><rect x="14" y="0" width="26" height="97" fill="#2f656b" opacity="1" class="highcharts-point"></rect><rect x="66" y="0" width="26" height="96" fill="#2f656b" opacity="1" class="highcharts-point"></rect><rect x="118" y="0" width="26" height="94" fill="#2f656b" opacity="1" class="highcharts-point"></rect><rect x="171" y="0" width="26" height="93" fill="#2f656b" opacity="1" class="highcharts-point"></rect><rect x="223" y="0" width="26" height="92" fill="#2f656b" opacity="1" class="highcharts-point"></rect><rect x="275" y="0" width="26" height="91" fill="#2f656b" opacity="1" class="highcharts-point"></rect><rect x="328" y="0" width="26" height="90" fill="#2f656b" opacity="1" class="highcharts-point"></rect><rect x="380" y="0" width="26" height="88" fill="#2f656b" opacity="1" class="highcharts-point"></rect></g><g data-z-index="0.1" class="highcharts-markers highcharts-series-0 highcharts-column-series" transform="translate(56,134) scale(1 1)" clip-path="none"></g><g data-z-index="0.1" class="highcharts-series highcharts-series-1 highcharts-column-series" transform="translate(56,134) scale(1 1)" clip-path="url(#highcharts-gnmvuz1-47-)"><rect x="14" y="97" width="26" height="74" fill="#689199" opacity="1" class="highcharts-point"></rect><rect x="66" y="96" width="26" height="75" fill="#689199" opacity="1" class="highcharts-point"></rect><rect x="118" y="94" width="26" height="77" fill="#689199" opacity="1" class="highcharts-point"></rect><rect x="171" y="93" width="26" height="77" fill="#689199" opacity="1" class="highcharts-point"></rect><rect x="223" y="92" width="26" height="78" fill="#689199" opacity="1" class="highcharts-point"></rect><rect x="275" y="91" width="26" height="78" fill="#689199" opacity="1" class="highcharts-point"></rect><rect x="328" y="90" width="26" height="79" fill="#689199" opacity="1" class="highcharts-point"></rect><rect x="380" y="88" width="26" height="81" fill="#689199" opacity="1" class="highcharts-point"></rect></g><g data-z-index="0.1" class="highcharts-markers highcharts-series-1 highcharts-column-series" transform="translate(56,134) scale(1 1)" clip-path="none"></g><g data-z-index="0.1" class="highcharts-series highcharts-series-2 highcharts-column-series" transform="translate(56,134) scale(1 1)" clip-path="url(#highcharts-gnmvuz1-47-)"><rect x="14" y="171" width="26" height="24" fill="#923f8d" opacity="1" class="highcharts-point"></rect><rect x="66" y="171" width="26" height="23" fill="#923f8d" opacity="1" class="highcharts-point"></rect><rect x="118" y="171" width="26" height="23" fill="#923f8d" opacity="1" class="highcharts-point"></rect><rect x="171" y="170" width="26" height="23" fill="#923f8d" opacity="1" class="highcharts-point"></rect><rect x="223" y="170" width="26" height="23" fill="#923f8d" opacity="1" class="highcharts-point"></rect><rect x="275" y="169" width="26" height="24" fill="#923f8d" opacity="1" class="highcharts-point"></rect><rect x="328" y="169" width="26" height="24" fill="#923f8d" opacity="1" class="highcharts-point"></rect><rect x="380" y="169" width="26" height="24" fill="#923f8d" opacity="1" class="highcharts-point"></rect></g><g data-z-index="0.1" class="highcharts-markers highcharts-series-2 highcharts-column-series" transform="translate(56,134) scale(1 1)" clip-path="none"></g><g data-z-index="0.1" class="highcharts-series highcharts-series-3 highcharts-column-series" transform="translate(56,134) scale(1 1)" clip-path="url(#highcharts-gnmvuz1-47-)"><rect x="14" y="195" width="26" height="39" fill="#008ac3" opacity="1" class="highcharts-point"></rect><rect x="66" y="194" width="26" height="40" fill="#008ac3" opacity="1" class="highcharts-point"></rect><rect x="118" y="194" width="26" height="40" fill="#008ac3" opacity="1" class="highcharts-point"></rect><rect x="171" y="193" width="26" height="41" fill="#008ac3" opacity="1" class="highcharts-point"></rect><rect x="223" y="193" width="26" height="41" fill="#008ac3" opacity="1" class="highcharts-point"></rect><rect x="275" y="193" width="26" height="41" fill="#008ac3" opacity="1" class="highcharts-point"></rect><rect x="328" y="193" width="26" height="41" fill="#008ac3" opacity="1" class="highcharts-point"></rect><rect x="380" y="193" width="26" height="41" fill="#008ac3" opacity="1" class="highcharts-point"></rect></g><g data-z-index="0.1" class="highcharts-markers highcharts-series-3 highcharts-column-series" transform="translate(56,134) scale(1 1)" clip-path="none"></g></g><text x="10" text-anchor="start" class="highcharts-title" data-z-index="4" style="color:#000000;font-size:14px;font-weight:bold;fill:#000000;" y="21"><tspan>Familienhaushalte nach Zusammensetzung</tspan></text><text x="10" text-anchor="start" class="highcharts-subtitle" data-z-index="4" style="color:#000000;font-size:12px;font-weight:normal;font-family:Arial;fill:#000000;" y="40"><tspan>Basel-Stadt</tspan></text><text x="10" text-anchor="start" class="highcharts-caption" data-z-index="4" style="color:#666666;fill:#666666;" y="400"></text><g class="highcharts-legend" data-z-index="7" transform="translate(48,55)"><rect fill="none" class="highcharts-legend-box" rx="0" ry="0" x="0" y="0" width="327" height="67" visibility="visible"></rect><g data-z-index="1"><g><g class="highcharts-legend-item highcharts-column-series highcharts-color-undefined highcharts-series-0" data-z-index="1" transform="translate(8,3)"><text x="21" style="color:#333333;cursor:pointer;font-size:12px;font-weight:normal;fill:#333333;" text-anchor="start" data-z-index="2" y="15"><tspan>Verheiratete / registrierte Paare ohne Kinder</tspan></text><rect x="2" y="4" width="12" height="12" fill="#2f656b" class="highcharts-point" data-z-index="3"></rect></g><g class="highcharts-legend-item highcharts-column-series highcharts-color-undefined highcharts-series-1" data-z-index="1" transform="translate(8,17)"><text x="21" y="15" style="color:#333333;cursor:pointer;font-size:12px;font-weight:normal;fill:#333333;" text-anchor="start" data-z-index="2"><tspan>Paare mit minderjährigen Kindern</tspan></text><rect x="2" y="4" width="12" height="12" fill="#689199" class="highcharts-point" data-z-index="3"></rect></g><g class="highcharts-legend-item highcharts-column-series highcharts-color-undefined highcharts-series-2" data-z-index="1" transform="translate(8,31)"><text x="21" y="15" style="color:#333333;cursor:pointer;font-size:12px;font-weight:normal;fill:#333333;" text-anchor="start" data-z-index="2"><tspan>Einelternhaushalte mit minderjährigen Kindern</tspan></text><rect x="2" y="4" width="12" height="12" fill="#923f8d" class="highcharts-point" data-z-index="3"></rect></g><g class="highcharts-legend-item highcharts-column-series highcharts-color-undefined highcharts-series-3" data-z-index="1" transform="translate(8,45)"><text x="21" y="15" style="color:#333333;cursor:pointer;font-size:12px;font-weight:normal;fill:#333333;" text-anchor="start" data-z-index="2"><tspan>Eltern(-teil) mit nur volljährigen Kindern</tspan></text><rect x="2" y="4" width="12" height="12" fill="#008ac3" class="highcharts-point" data-z-index="3"></rect></g></g></g></g><g class="highcharts-axis-labels highcharts-xaxis-labels" data-z-index="7"><text x="82.1875" style="color:#000000;cursor:default;font-size:11px;fill:#000000;" text-anchor="middle" transform="translate(0,0)" y="386" opacity="1">2011</text><text x="134.5625" style="color:#000000;cursor:default;font-size:11px;fill:#000000;" text-anchor="middle" transform="translate(0,0)" y="386" opacity="1">2012</text><text x="186.9375" style="color:#000000;cursor:default;font-size:11px;fill:#000000;" text-anchor="middle" transform="translate(0,0)" y="386" opacity="1">2013</text><text x="239.3125" style="color:#000000;cursor:default;font-size:11px;fill:#000000;" text-anchor="middle" transform="translate(0,0)" y="386" opacity="1">2014</text><text x="291.6875" style="color:#000000;cursor:default;font-size:11px;fill:#000000;" text-anchor="middle" transform="translate(0,0)" y="386" opacity="1">2015</text><text x="344.0625" style="color:#000000;cursor:default;font-size:11px;fill:#000000;" text-anchor="middle" transform="translate(0,0)" y="386" opacity="1">2016</text><text x="396.4375" style="color:#000000;cursor:default;font-size:11px;fill:#000000;" text-anchor="middle" transform="translate(0,0)" y="386" opacity="1">2017</text><text x="448.8125" style="color:#000000;cursor:default;font-size:11px;fill:#000000;" text-anchor="middle" transform="translate(0,0)" y="386" opacity="1">2018</text></g><g class="highcharts-axis-labels highcharts-yaxis-labels" data-z-index="7"><text x="41" style="color:#000000;cursor:default;font-size:11px;fill:#000000;" text-anchor="end" transform="translate(0,0)" y="372" opacity="1">0%</text><text x="41" style="color:#000000;cursor:default;font-size:11px;fill:#000000;" text-anchor="end" transform="translate(0,0)" y="313" opacity="1">25%</text><text x="41" style="color:#000000;cursor:default;font-size:11px;fill:#000000;" text-anchor="end" transform="translate(0,0)" y="255" opacity="1">50%</text><text x="41" style="color:#000000;cursor:default;font-size:11px;fill:#000000;" text-anchor="end" transform="translate(0,0)" y="197" opacity="1">75%</text><text x="41" style="color:#000000;cursor:default;font-size:11px;fill:#000000;" text-anchor="end" transform="translate(0,0)" y="139" opacity="1">100%</text></g><text x="10" class="highcharts-credits" text-anchor="start" data-z-index="8" style="cursor:default;color:#000000;font-size:10px;fill:#000000;" y="403"><tspan>Quelle: Statistisches Amt Basel-Stadt, Bevölkerungsstatistik.</tspan><tspan x="10" dy="13">Zuletzt geändert: 2019-8-22</tspan></text></svg>