<?xml version="1.0" standalone="no"?>
<!DOCTYPE svg PUBLIC "-//W3C//DTD SVG 1.1//EN" "http://www.w3.org/Graphics/SVG/1.1/DTD/svg11.dtd">
<svg xmlns:xlink="http://www.w3.org/1999/xlink" version="1.1" class="highcharts-root" style="font-family:Arial;font-size:12px;" xmlns="http://www.w3.org/2000/svg" viewBox="0 0 485 415">
  <desc>
    Created with Highstock 6.0.4
  </desc>
  <defs>
    <clipPath>
      <rect x="0" y="0" width="379" height="252" fill="none"/>
    </clipPath>
    <clipPath id="a">
      <rect x="0" y="0" width="379" height="252" fill="none"/>
    </clipPath>
    <clipPath id="b">
      <rect x="0" y="0" width="379" height="252" fill="none"/>
    </clipPath>
  </defs>
  <rect fill="#fbfbfb" class="highcharts-background" x="0" y="0" width="485" height="415" rx="0" ry="0"/>
  <rect fill="none" class="highcharts-plot-background" x="59" y="127" width="379" height="252"/>
  <g class="highcharts-pane-group"/>
  <g class="highcharts-grid highcharts-xaxis-grid ">
    <path fill="none" class="highcharts-grid-line" d="M 67.5 127 L 67.5 379" opacity="1"/>
    <path fill="none" class="highcharts-grid-line" d="M 115.5 127 L 115.5 379" opacity="1"/>
    <path fill="none" class="highcharts-grid-line" d="M 164.5 127 L 164.5 379" opacity="1"/>
    <path fill="none" class="highcharts-grid-line" d="M 213.5 127 L 213.5 379" opacity="1"/>
    <path fill="none" class="highcharts-grid-line" d="M 262.5 127 L 262.5 379" opacity="1"/>
    <path fill="none" class="highcharts-grid-line" d="M 311.5 127 L 311.5 379" opacity="1"/>
    <path fill="none" class="highcharts-grid-line" d="M 360.5 127 L 360.5 379" opacity="1"/>
    <path fill="none" class="highcharts-grid-line" d="M 409.5 127 L 409.5 379" opacity="1"/>
  </g>
  <g class="highcharts-grid highcharts-yaxis-grid ">
    <path fill="none" stroke="#B9CFD7" stroke-width="0.5" class="highcharts-grid-line" d="M 59 379.25 L 438 379.25" opacity="1"/>
    <path fill="none" stroke="#B9CFD7" stroke-width="0.5" class="highcharts-grid-line" d="M 59 329.25 L 438 329.25" opacity="1"/>
    <path fill="none" stroke="#B9CFD7" stroke-width="0.5" class="highcharts-grid-line" d="M 59 278.25 L 438 278.25" opacity="1"/>
    <path fill="none" stroke="#B9CFD7" stroke-width="0.5" class="highcharts-grid-line" d="M 59 228.25 L 438 228.25" opacity="1"/>
    <path fill="none" stroke="#B9CFD7" stroke-width="0.5" class="highcharts-grid-line" d="M 59 177.25 L 438 177.25" opacity="1"/>
    <path fill="none" stroke="#B9CFD7" stroke-width="0.5" class="highcharts-grid-line" d="M 59 126.75 L 438 126.75" opacity="1"/>
  </g>
  <g class="highcharts-grid highcharts-yaxis-grid ">
    <path fill="none" class="highcharts-grid-line" d="M 59 379.5 L 438 379.5" opacity="1"/>
    <path fill="none" class="highcharts-grid-line" d="M 59 329.5 L 438 329.5" opacity="1"/>
    <path fill="none" class="highcharts-grid-line" d="M 59 278.5 L 438 278.5" opacity="1"/>
    <path fill="none" class="highcharts-grid-line" d="M 59 228.5 L 438 228.5" opacity="1"/>
    <path fill="none" class="highcharts-grid-line" d="M 59 177.5 L 438 177.5" opacity="1"/>
    <path fill="none" class="highcharts-grid-line" d="M 59 127.5 L 438 127.5" opacity="1"/>
  </g>
  <rect fill="none" class="highcharts-plot-border" x="59" y="127" width="379" height="252"/>
  <g class="highcharts-axis highcharts-xaxis ">
    <path fill="none" class="highcharts-axis-line" stroke="#B9CFD7" stroke-width="0.5" d="M 59 379.25 L 438 379.25"/>
  </g>
  <g class="highcharts-axis highcharts-yaxis ">
    <path fill="none" class="highcharts-axis-line" d="M 59 127 L 59 379"/>
  </g>
  <g class="highcharts-axis highcharts-yaxis ">
    <path fill="none" class="highcharts-axis-line" d="M 438 127 L 438 379"/>
  </g>
  <g class="highcharts-series-group">
    <g class="highcharts-series highcharts-series-0 highcharts-column-series " transform="translate(59,127) scale(1 1)" clip-path="url(#a)">
      <rect x="3.5" y="49.5" width="10" height="203" fill="#73b97c" stroke="#ffffff" stroke-width="1" class="highcharts-point"/>
      <rect x="100.5" y="47.5" width="10" height="205" fill="#73b97c" stroke="#ffffff" stroke-width="1" class="highcharts-point"/>
      <rect x="198.5" y="39.5" width="10" height="213" fill="#73b97c" stroke="#ffffff" stroke-width="1" class="highcharts-point"/>
      <rect x="296.5" y="36.5" width="10" height="216" fill="#73b97c" stroke="#ffffff" stroke-width="1" class="highcharts-point"/>
      <rect x="325.5" y="35.5" width="10" height="217" fill="#73b97c" stroke="#ffffff" stroke-width="1" class="highcharts-point"/>
      <rect x="335.5" y="35.5" width="10" height="217" fill="#73b97c" stroke="#ffffff" stroke-width="1" class="highcharts-point"/>
      <rect x="345.5" y="34.5" width="10" height="218" fill="#73b97c" stroke="#ffffff" stroke-width="1" class="highcharts-point"/>
      <rect x="355.5" y="29.5" width="10" height="223" fill="#73b97c" stroke="#ffffff" stroke-width="1" class="highcharts-point"/>
      <rect x="364.5" y="27.5" width="10" height="225" fill="#73b97c" stroke="#ffffff" stroke-width="1" class="highcharts-point"/>
    </g>
    <g class="highcharts-markers highcharts-series-0 highcharts-column-series " transform="translate(59,127) scale(1 1)" clip-path="none"/>
    <g class="highcharts-series highcharts-series-1 highcharts-line-series " transform="translate(59,127) scale(1 1)" clip-path="url(#b)">
      <path fill="none" d="M 8.511357769746 149.00015190642625 L 106.34305627259 150.71446620342 L 204.17475477543 147.9464846416469 L 302.00645327827 149.4209286419976 L 331.35596282912 149.91588125076527 L 341.1391326794 150.55442008321683 L 350.92230252969 151.04970410913936 L 360.70547237997 149.40248184576288 L 370.48864223025 149.34032331720766" class="highcharts-graph" stroke="#cd9c00" stroke-width="2" stroke-linejoin="round" stroke-linecap="round"/>
    </g>
    <g class="highcharts-markers highcharts-series-1 highcharts-line-series " transform="translate(59,127) scale(1 1)" clip-path="none">
      <path fill="#cd9c00" d="M 12 149 A 4 4 0 1 1 11.999998000000167 148.99600000066667 Z" class="highcharts-point"/>
      <path fill="#cd9c00" d="M 110 151 A 4 4 0 1 1 109.99999800000016 150.99600000066667 Z" class="highcharts-point"/>
      <path fill="#cd9c00" d="M 208 148 A 4 4 0 1 1 207.99999800000018 147.99600000066667 Z" class="highcharts-point"/>
      <path fill="#cd9c00" d="M 306 149 A 4 4 0 1 1 305.9999980000002 148.99600000066667 Z" class="highcharts-point"/>
      <path fill="#cd9c00" d="M 335 150 A 4 4 0 1 1 334.9999980000002 149.99600000066667 Z" class="highcharts-point"/>
      <path fill="#cd9c00" d="M 345 151 A 4 4 0 1 1 344.9999980000002 150.99600000066667 Z" class="highcharts-point"/>
      <path fill="#cd9c00" d="M 354 151 A 4 4 0 1 1 353.9999980000002 150.99600000066667 Z" class="highcharts-point"/>
      <path fill="#cd9c00" d="M 364 149 A 4 4 0 1 1 363.9999980000002 148.99600000066667 Z" class="highcharts-point"/>
      <path fill="#cd9c00" d="M 374 149 A 4 4 0 1 1 373.9999980000002 148.99600000066667 Z" class="highcharts-point"/>
    </g>
  </g>
  <text x="10" text-anchor="start" class="highcharts-title" style="color:#000000;font-size:14px;font-weight:bold;fill:#000000;" y="21">
    <tspan>Anzahl Genossenschaftswohnungen und Anteil am Bestand</tspan>
  </text>
  <text x="10" text-anchor="start" class="highcharts-subtitle" style="color:#000000;font-size:12px;font-weight:normal;font-family:Arial;fill:#000000;" y="40"/>
  <g class="highcharts-legend" transform="translate(51,76)">
    <rect fill="none" class="highcharts-legend-box" rx="0" ry="0" x="0" y="0" width="231" height="39" visibility="visible"/>
    <g>
      <g>
        <g class="highcharts-legend-item highcharts-column-series highcharts-color-undefined highcharts-series-0" transform="translate(8,3)">
          <text x="21" style="color:#333333;font-size:12px;font-weight:normal;cursor:pointer;fill:#333333;" text-anchor="start" y="15">
            <tspan>Anzahl Genossenschaftswohnungen</tspan>
          </text>
          <rect x="2" y="4" width="12" height="12" fill="#73b97c" class="highcharts-point"/>
        </g>
        <g class="highcharts-legend-item highcharts-line-series highcharts-color-undefined highcharts-series-1" transform="translate(8,17)">
          <path fill="none" d="M 0 11 L 16 11" class="highcharts-graph" stroke="#cd9c00" stroke-width="2"/>
          <path fill="#cd9c00" d="M 12 11 A 4 4 0 1 1 11.999998000000167 10.996000000666664 Z" class="highcharts-point"/>
          <text x="21" y="15" style="color:#333333;font-size:12px;font-weight:normal;cursor:pointer;fill:#333333;" text-anchor="start">
            <tspan>Anteil in Prozent (rechte Skala)</tspan>
          </text>
        </g>
      </g>
    </g>
  </g>
  <g class="highcharts-axis-labels highcharts-xaxis-labels ">
    <text x="67.51135776974601" style="color:#000000;cursor:default;font-size:11px;fill:#000000;" text-anchor="middle" transform="translate(0,0)" y="398" opacity="1">
      1980
    </text>
    <text x="116.427207021166" style="color:#000000;cursor:default;font-size:11px;fill:#000000;" text-anchor="middle" transform="translate(0,0)" y="398" opacity="1">
      1985
    </text>
    <text x="165.343056272586" style="color:#000000;cursor:default;font-size:11px;fill:#000000;" text-anchor="middle" transform="translate(0,0)" y="398" opacity="1">
      1990
    </text>
    <text x="214.258905524006" style="color:#000000;cursor:default;font-size:11px;fill:#000000;" text-anchor="middle" transform="translate(0,0)" y="398" opacity="1">
      1995
    </text>
    <text x="263.174754775426" style="color:#000000;cursor:default;font-size:11px;fill:#000000;" text-anchor="middle" transform="translate(0,0)" y="398" opacity="1">
      2000
    </text>
    <text x="312.090604026846" style="color:#000000;cursor:default;font-size:11px;fill:#000000;" text-anchor="middle" transform="translate(0,0)" y="398" opacity="1">
      2005
    </text>
    <text x="361.006453278266" style="color:#000000;cursor:default;font-size:11px;fill:#000000;" text-anchor="middle" transform="translate(0,0)" y="398" opacity="1">
      2010
    </text>
    <text x="409.92230252968596" style="color:#000000;cursor:default;font-size:11px;fill:#000000;" text-anchor="middle" transform="translate(0,0)" y="398" opacity="1">
      2015
    </text>
  </g>
  <g class="highcharts-axis-labels highcharts-yaxis-labels ">
    <text x="44" style="color:#000000;cursor:default;font-size:11px;fill:#000000;" text-anchor="end" transform="translate(0,0)" y="384" opacity="1">
      <tspan>0</tspan>
    </text>
    <text x="44" style="color:#000000;cursor:default;font-size:11px;fill:#000000;" text-anchor="end" transform="translate(0,0)" y="333" opacity="1">
      <tspan>2 500</tspan>
    </text>
    <text x="44" style="color:#000000;cursor:default;font-size:11px;fill:#000000;" text-anchor="end" transform="translate(0,0)" y="283" opacity="1">
      <tspan>5 000</tspan>
    </text>
    <text x="44" style="color:#000000;cursor:default;font-size:11px;fill:#000000;" text-anchor="end" transform="translate(0,0)" y="232" opacity="1">
      <tspan>7 500</tspan>
    </text>
    <text x="44" style="color:#000000;cursor:default;font-size:11px;fill:#000000;" text-anchor="end" transform="translate(0,0)" y="182" opacity="1">
      <tspan>10 000</tspan>
    </text>
    <text x="44" style="color:#000000;cursor:default;font-size:11px;fill:#000000;" text-anchor="end" transform="translate(0,0)" y="132" opacity="1">
      <tspan>12 500</tspan>
    </text>
  </g>
  <g class="highcharts-axis-labels highcharts-yaxis-labels ">
    <text x="453" style="color:#000000;cursor:default;font-size:11px;fill:#000000;" text-anchor="start" transform="translate(0,0)" y="384" opacity="1">
      <tspan>0%</tspan>
    </text>
    <text x="0" style="color:#000000;cursor:default;font-size:11px;fill:#000000;" text-anchor="start" transform="translate(0,0)" y="-9999">
      <tspan>5%</tspan>
    </text>
    <text x="453" style="color:#000000;cursor:default;font-size:11px;fill:#000000;" text-anchor="start" transform="translate(0,0)" y="283" opacity="1">
      <tspan>10%</tspan>
    </text>
    <text x="0" style="color:#000000;cursor:default;font-size:11px;fill:#000000;" text-anchor="start" transform="translate(0,0)" y="-9999">
      <tspan>15%</tspan>
    </text>
    <text x="453" style="color:#000000;cursor:default;font-size:11px;fill:#000000;" text-anchor="start" transform="translate(0,0)" y="182" opacity="1">
      <tspan>20%</tspan>
    </text>
    <text x="0" style="color:#000000;cursor:default;font-size:11px;fill:#000000;" text-anchor="start" transform="translate(0,0)" y="-9999">
      <tspan>25%</tspan>
    </text>
  </g>
  <text x="10" class="highcharts-credits" text-anchor="start" style="cursor:default;color:#000000;font-size:10px;fill:#000000;" y="400">
    <tspan>Quelle: Statistisches Amt Basel-Stadt, Gebäude- und Wohnungsstatistik</tspan>
  </text>
</svg>
