<?xml version="1.0" standalone="no"?><!DOCTYPE svg PUBLIC "-//W3C//DTD SVG 1.1//EN" "http://www.w3.org/Graphics/SVG/1.1/DTD/svg11.dtd"><svg xmlns:xlink="http://www.w3.org/1999/xlink" version="1.1" class="highcharts-root" style="font-family:Arial;font-size:12px;" xmlns="http://www.w3.org/2000/svg" viewBox="0 0 485 415"><desc>Created with Highcharts 8.0.0</desc><defs><clipPath id="highcharts-1dp7grn-40-"><rect x="0" y="0" width="373" height="245" fill="none"></rect></clipPath><clipPath id="highcharts-1dp7grn-57-"><rect x="0" y="0" width="373" height="245" fill="none"></rect></clipPath><clipPath id="highcharts-1dp7grn-74-"><rect x="0" y="0" width="373" height="245" fill="none"></rect></clipPath></defs><rect fill="#fbfbfb" class="highcharts-background" x="0" y="0" width="485" height="428" rx="0" ry="0"></rect><rect fill="none" class="highcharts-plot-background" x="63" y="106" width="373" height="245"></rect><g class="highcharts-pane-group" data-z-index="0"></g><g class="highcharts-grid highcharts-xaxis-grid" data-z-index="1"><path fill="none" data-z-index="1" class="highcharts-grid-line" d="M 75.5 106 L 75.5 351" opacity="1"></path><path fill="none" data-z-index="1" class="highcharts-grid-line" d="M 94.5 106 L 94.5 351" opacity="1"></path><path fill="none" data-z-index="1" class="highcharts-grid-line" d="M 114.5 106 L 114.5 351" opacity="1"></path><path fill="none" data-z-index="1" class="highcharts-grid-line" d="M 133.5 106 L 133.5 351" opacity="1"></path><path fill="none" data-z-index="1" class="highcharts-grid-line" d="M 152.5 106 L 152.5 351" opacity="1"></path><path fill="none" data-z-index="1" class="highcharts-grid-line" d="M 171.5 106 L 171.5 351" opacity="1"></path><path fill="none" data-z-index="1" class="highcharts-grid-line" d="M 191.5 106 L 191.5 351" opacity="1"></path><path fill="none" data-z-index="1" class="highcharts-grid-line" d="M 210.5 106 L 210.5 351" opacity="1"></path><path fill="none" data-z-index="1" class="highcharts-grid-line" d="M 229.5 106 L 229.5 351" opacity="1"></path><path fill="none" data-z-index="1" class="highcharts-grid-line" d="M 248.5 106 L 248.5 351" opacity="1"></path><path fill="none" data-z-index="1" class="highcharts-grid-line" d="M 268.5 106 L 268.5 351" opacity="1"></path><path fill="none" data-z-index="1" class="highcharts-grid-line" d="M 287.5 106 L 287.5 351" opacity="1"></path><path fill="none" data-z-index="1" class="highcharts-grid-line" d="M 306.5 106 L 306.5 351" opacity="1"></path><path fill="none" data-z-index="1" class="highcharts-grid-line" d="M 326.5 106 L 326.5 351" opacity="1"></path><path fill="none" data-z-index="1" class="highcharts-grid-line" d="M 345.5 106 L 345.5 351" opacity="1"></path><path fill="none" data-z-index="1" class="highcharts-grid-line" d="M 364.5 106 L 364.5 351" opacity="1"></path><path fill="none" data-z-index="1" class="highcharts-grid-line" d="M 383.5 106 L 383.5 351" opacity="1"></path><path fill="none" data-z-index="1" class="highcharts-grid-line" d="M 403.5 106 L 403.5 351" opacity="1"></path><path fill="none" data-z-index="1" class="highcharts-grid-line" d="M 422.5 106 L 422.5 351" opacity="1"></path></g><g class="highcharts-grid highcharts-yaxis-grid" data-z-index="1"><path fill="none" stroke="#B9CFD7" stroke-width="0.5" data-z-index="1" class="highcharts-grid-line" d="M 63 351.25 L 436 351.25" opacity="1"></path><path fill="none" stroke="#B9CFD7" stroke-width="0.5" data-z-index="1" class="highcharts-grid-line" d="M 63 290.25 L 436 290.25" opacity="1"></path><path fill="none" stroke="#B9CFD7" stroke-width="0.5" data-z-index="1" class="highcharts-grid-line" d="M 63 229.25 L 436 229.25" opacity="1"></path><path fill="none" stroke="#B9CFD7" stroke-width="0.5" data-z-index="1" class="highcharts-grid-line" d="M 63 167.25 L 436 167.25" opacity="1"></path><path fill="none" stroke="#B9CFD7" stroke-width="0.5" data-z-index="1" class="highcharts-grid-line" d="M 63 105.75 L 436 105.75" opacity="1"></path></g><g class="highcharts-grid highcharts-yaxis-grid" data-z-index="1"><path fill="none" stroke="#B9CFD7" stroke-width="0.5" data-z-index="1" class="highcharts-grid-line" d="M 63 351.25 L 436 351.25" opacity="1"></path><path fill="none" stroke="#B9CFD7" stroke-width="0.5" data-z-index="1" class="highcharts-grid-line" d="M 63 290.25 L 436 290.25" opacity="1"></path><path fill="none" stroke="#B9CFD7" stroke-width="0.5" data-z-index="1" class="highcharts-grid-line" d="M 63 229.25 L 436 229.25" opacity="1"></path><path fill="none" stroke="#B9CFD7" stroke-width="0.5" data-z-index="1" class="highcharts-grid-line" d="M 63 167.25 L 436 167.25" opacity="1"></path><path fill="none" stroke="#B9CFD7" stroke-width="0.5" data-z-index="1" class="highcharts-grid-line" d="M 63 105.75 L 436 105.75" opacity="1"></path></g><rect fill="none" class="highcharts-plot-border" data-z-index="1" x="63" y="106" width="373" height="245"></rect><g class="highcharts-axis highcharts-xaxis" data-z-index="2"><path fill="none" class="highcharts-axis-line" stroke="#B9CFD7" stroke-width="0.5" data-z-index="7" d="M 63 351.25 L 436 351.25"></path></g><g class="highcharts-axis highcharts-yaxis" data-z-index="2"><path fill="none" class="highcharts-axis-line" data-z-index="7" d="M 63 106 L 63 351"></path></g><g class="highcharts-axis highcharts-yaxis" data-z-index="2"><path fill="none" class="highcharts-axis-line" data-z-index="7" d="M 436 106 L 436 351"></path></g><g class="highcharts-series-group" data-z-index="3"><g data-z-index="0.1" class="highcharts-series highcharts-series-0 highcharts-column-series" transform="translate(63,106) scale(1 1)" clip-path="url(#highcharts-1dp7grn-57-)"><rect x="8" y="74" width="10" height="172" fill="#73b97c" opacity="1" class="highcharts-point"></rect><rect x="104" y="68" width="10" height="178" fill="#73b97c" opacity="1" class="highcharts-point"></rect><rect x="124" y="67" width="10" height="179" fill="#73b97c" opacity="1" class="highcharts-point"></rect><rect x="143" y="66" width="10" height="180" fill="#73b97c" opacity="1" class="highcharts-point"></rect><rect x="162" y="66" width="10" height="180" fill="#73b97c" opacity="1" class="highcharts-point"></rect><rect x="182" y="65" width="10" height="181" fill="#73b97c" opacity="1" class="highcharts-point"></rect><rect x="201" y="64" width="10" height="182" fill="#73b97c" opacity="1" class="highcharts-point"></rect><rect x="220" y="61" width="10" height="185" fill="#73b97c" opacity="1" class="highcharts-point"></rect><rect x="239" y="61" width="10" height="185" fill="#73b97c" opacity="1" class="highcharts-point"></rect><rect x="259" y="54" width="10" height="192" fill="#73b97c" opacity="1" class="highcharts-point"></rect><rect x="278" y="52" width="10" height="194" fill="#73b97c" opacity="1" class="highcharts-point"></rect><rect x="297" y="51" width="10" height="195" fill="#73b97c" opacity="1" class="highcharts-point"></rect><rect x="316" y="51" width="10" height="195" fill="#73b97c" opacity="1" class="highcharts-point"></rect><rect x="336" y="50" width="10" height="196" fill="#73b97c" opacity="1" class="highcharts-point"></rect><rect x="355" y="48" width="10" height="198" fill="#73b97c" opacity="1" class="highcharts-point"></rect></g><g data-z-index="0.1" class="highcharts-markers highcharts-series-0 highcharts-column-series" transform="translate(63,106) scale(1 1)" clip-path="none"></g><g data-z-index="0.1" class="highcharts-series highcharts-series-1 highcharts-scatter-series" transform="translate(63,106) scale(1 1)" clip-path="url(#highcharts-1dp7grn-74-)"></g><g data-z-index="0.1" class="highcharts-markers highcharts-series-1 highcharts-scatter-series" transform="translate(63,106) scale(1 1)" clip-path="none"><path fill="#923F8D" d="M 13 83 A 4 4 0 1 1 13.003999999333336 82.99999800000016 Z" opacity="1" class="highcharts-point"></path><path fill="#923F8D" d="M 109 79 A 4 4 0 1 1 109.00399999933333 78.99999800000016 Z" opacity="1" class="highcharts-point"></path><path fill="#923F8D" d="M 128 78 A 4 4 0 1 1 128.00399999933333 77.99999800000016 Z" opacity="1" class="highcharts-point"></path><path fill="#923F8D" d="M 147 77 A 4 4 0 1 1 147.00399999933333 76.99999800000016 Z" opacity="1" class="highcharts-point"></path><path fill="#923F8D" d="M 167 77 A 4 4 0 1 1 167.00399999933333 76.99999800000016 Z" opacity="1" class="highcharts-point"></path><path fill="#923F8D" d="M 186 76 A 4 4 0 1 1 186.00399999933333 75.99999800000016 Z" opacity="1" class="highcharts-point"></path><path fill="#923F8D" d="M 205 76 A 4 4 0 1 1 205.00399999933333 75.99999800000016 Z" opacity="1" class="highcharts-point"></path><path fill="#923F8D" d="M 225 74 A 4 4 0 1 1 225.00399999933333 73.99999800000016 Z" opacity="1" class="highcharts-point"></path><path fill="#923F8D" d="M 244 74 A 4 4 0 1 1 244.00399999933333 73.99999800000016 Z" opacity="1" class="highcharts-point"></path><path fill="#923F8D" d="M 263 68 A 4 4 0 1 1 263.00399999933336 67.99999800000016 Z" opacity="1" class="highcharts-point"></path><path fill="#923F8D" d="M 282 68 A 4 4 0 1 1 282.00399999933336 67.99999800000016 Z" opacity="1" class="highcharts-point"></path><path fill="#923F8D" d="M 302 69 A 4 4 0 1 1 302.00399999933336 68.99999800000016 Z" opacity="1" class="highcharts-point"></path><path fill="#923F8D" d="M 321 69 A 4 4 0 1 1 321.00399999933336 68.99999800000016 Z" opacity="1" class="highcharts-point"></path><path fill="#923F8D" d="M 340 70 A 4 4 0 1 1 340.00399999933336 69.99999800000016 Z" opacity="1" class="highcharts-point"></path><path fill="#923F8D" d="M 359 70 A 4 4 0 1 1 359.00399999933336 69.99999800000016 Z" opacity="1" class="highcharts-point"></path></g></g><text x="10" text-anchor="start" class="highcharts-title" data-z-index="4" style="color:#000000;font-size:14px;font-weight:bold;fill:#000000;" y="21"><tspan>Wohnungen mit 4 oder mehr Zimmern</tspan></text><text x="10" text-anchor="start" class="highcharts-subtitle" data-z-index="4" style="color:#000000;font-size:12px;font-weight:normal;font-family:Arial;fill:#000000;" y="40"><tspan>Basel-Stadt</tspan></text><text x="10" text-anchor="start" class="highcharts-caption" data-z-index="4" style="color:#666666;fill:#666666;" y="400"></text><g class="highcharts-legend" data-z-index="7" transform="translate(55,55)"><rect fill="none" class="highcharts-legend-box" rx="0" ry="0" x="0" y="0" width="283" height="39" visibility="visible"></rect><g data-z-index="1"><g><g class="highcharts-legend-item highcharts-column-series highcharts-color-undefined highcharts-series-0" data-z-index="1" transform="translate(8,3)"><text x="21" style="color:#333333;cursor:pointer;font-size:12px;font-weight:normal;fill:#333333;" text-anchor="start" data-z-index="2" y="15"><tspan>4 Zimmer u.m.</tspan></text><rect x="2" y="4" width="12" height="12" fill="#73b97c" class="highcharts-point" data-z-index="3"></rect></g><g class="highcharts-legend-item highcharts-scatter-series highcharts-color-undefined highcharts-series-1" data-z-index="1" transform="translate(8,17)"><path fill="none" d="M 0 11 L 16 11" class="highcharts-graph"></path><path fill="#923F8D" d="M 8 15 A 4 4 0 1 1 8.003999999333336 14.999998000000167 Z" class="highcharts-point" opacity="1"></path><text x="21" y="15" style="color:#333333;cursor:pointer;font-size:12px;font-weight:normal;fill:#333333;" text-anchor="start" data-z-index="2"><tspan>Anteil am Gesamtbestand (rechte Skala)</tspan></text></g></g></g></g><g class="highcharts-axis-labels highcharts-xaxis-labels" data-z-index="7"><text x="78.69396453377367" style="color:#000000;cursor:default;font-size:11px;fill:#000000;" text-anchor="end" transform="translate(0,0) rotate(-45 78.69396453377367 367)" y="367" opacity="1">2000</text><text x="97.96049345939267" style="color:#000000;cursor:default;font-size:11px;fill:#000000;" text-anchor="end" transform="translate(0,0) rotate(-45 97.96049345939267 367)" y="367" opacity="1">2001</text><text x="117.22702238501067" style="color:#000000;cursor:default;font-size:11px;fill:#000000;" text-anchor="end" transform="translate(0,0) rotate(-45 117.22702238501067 367)" y="367" opacity="1">2002</text><text x="136.4935513106307" style="color:#000000;cursor:default;font-size:11px;fill:#000000;" text-anchor="end" transform="translate(0,0) rotate(-45 136.4935513106307 367)" y="367" opacity="1">2003</text><text x="155.76008023625067" style="color:#000000;cursor:default;font-size:11px;fill:#000000;" text-anchor="end" transform="translate(0,0) rotate(-45 155.76008023625067 367)" y="367" opacity="1">2004</text><text x="175.02660916187068" style="color:#000000;cursor:default;font-size:11px;fill:#000000;" text-anchor="end" transform="translate(0,0) rotate(-45 175.02660916187068 367)" y="367" opacity="1">2005</text><text x="194.2931380874907" style="color:#000000;cursor:default;font-size:11px;fill:#000000;" text-anchor="end" transform="translate(0,0) rotate(-45 194.2931380874907 367)" y="367" opacity="1">2006</text><text x="213.5596670131107" style="color:#000000;cursor:default;font-size:11px;fill:#000000;" text-anchor="end" transform="translate(0,0) rotate(-45 213.5596670131107 367)" y="367" opacity="1">2007</text><text x="232.82619593873068" style="color:#000000;cursor:default;font-size:11px;fill:#000000;" text-anchor="end" transform="translate(0,0) rotate(-45 232.82619593873068 367)" y="367" opacity="1">2008</text><text x="252.09272486435069" style="color:#000000;cursor:default;font-size:11px;fill:#000000;" text-anchor="end" transform="translate(0,0) rotate(-45 252.09272486435069 367)" y="367" opacity="1">2009</text><text x="271.35925378997064" style="color:#000000;cursor:default;font-size:11px;fill:#000000;" text-anchor="end" transform="translate(0,0) rotate(-45 271.35925378997064 367)" y="367" opacity="1">2010</text><text x="290.6257827155907" style="color:#000000;cursor:default;font-size:11px;fill:#000000;" text-anchor="end" transform="translate(0,0) rotate(-45 290.6257827155907 367)" y="367" opacity="1">2011</text><text x="309.89231164121065" style="color:#000000;cursor:default;font-size:11px;fill:#000000;" text-anchor="end" transform="translate(0,0) rotate(-45 309.89231164121065 367)" y="367" opacity="1">2012</text><text x="329.15884056683063" style="color:#000000;cursor:default;font-size:11px;fill:#000000;" text-anchor="end" transform="translate(0,0) rotate(-45 329.15884056683063 367)" y="367" opacity="1">2013</text><text x="348.42536949245067" style="color:#000000;cursor:default;font-size:11px;fill:#000000;" text-anchor="end" transform="translate(0,0) rotate(-45 348.42536949245067 367)" y="367" opacity="1">2014</text><text x="367.69189841807065" style="color:#000000;cursor:default;font-size:11px;fill:#000000;" text-anchor="end" transform="translate(0,0) rotate(-45 367.69189841807065 367)" y="367" opacity="1">2015</text><text x="386.95842734369063" style="color:#000000;cursor:default;font-size:11px;fill:#000000;" text-anchor="end" transform="translate(0,0) rotate(-45 386.95842734369063 367)" y="367" opacity="1">2016</text><text x="406.22495626931067" style="color:#000000;cursor:default;font-size:11px;fill:#000000;" text-anchor="end" transform="translate(0,0) rotate(-45 406.22495626931067 367)" y="367" opacity="1">2017</text><text x="425.49148519493065" style="color:#000000;cursor:default;font-size:11px;fill:#000000;" text-anchor="end" transform="translate(0,0) rotate(-45 425.49148519493065 367)" y="367" opacity="1">2018</text></g><g class="highcharts-axis-labels highcharts-yaxis-labels" data-z-index="7"><text x="48" style="color:#000000;cursor:default;font-size:11px;fill:#000000;" text-anchor="end" transform="translate(0,0)" y="356" opacity="1">0</text><text x="48" style="color:#000000;cursor:default;font-size:11px;fill:#000000;" text-anchor="end" transform="translate(0,0)" y="294" opacity="1"><tspan>10 000</tspan></text><text x="48" style="color:#000000;cursor:default;font-size:11px;fill:#000000;" text-anchor="end" transform="translate(0,0)" y="233" opacity="1"><tspan>20 000</tspan></text><text x="48" style="color:#000000;cursor:default;font-size:11px;fill:#000000;" text-anchor="end" transform="translate(0,0)" y="172" opacity="1"><tspan>30 000</tspan></text><text x="48" style="color:#000000;cursor:default;font-size:11px;fill:#000000;" text-anchor="end" transform="translate(0,0)" y="111" opacity="1"><tspan>40 000</tspan></text></g><g class="highcharts-axis-labels highcharts-yaxis-labels" data-z-index="7"><text x="451" style="color:#000000;cursor:default;font-size:11px;fill:#000000;" text-anchor="start" transform="translate(0,0)" y="356" opacity="1">0%</text><text x="451" style="color:#000000;cursor:default;font-size:11px;fill:#000000;" text-anchor="start" transform="translate(0,0)" y="294" opacity="1">10%</text><text x="451" style="color:#000000;cursor:default;font-size:11px;fill:#000000;" text-anchor="start" transform="translate(0,0)" y="233" opacity="1">20%</text><text x="451" style="color:#000000;cursor:default;font-size:11px;fill:#000000;" text-anchor="start" transform="translate(0,0)" y="172" opacity="1">30%</text><text x="451" style="color:#000000;cursor:default;font-size:11px;fill:#000000;" text-anchor="start" transform="translate(0,0)" y="111" opacity="1">40%</text></g><text x="10" class="highcharts-credits" text-anchor="start" data-z-index="8" style="cursor:default;color:#000000;font-size:10px;fill:#000000;" y="403"><tspan>Quelle: Statistisches Amt Basel-Stadt, Gebäude- und Wohnungsstatistik.</tspan><tspan x="10" dy="13">Zuletzt geändert: 2019-10-21</tspan></text></svg>