<?xml version="1.0" standalone="no"?>
<!DOCTYPE svg PUBLIC "-//W3C//DTD SVG 1.1//EN" "http://www.w3.org/Graphics/SVG/1.1/DTD/svg11.dtd">
<svg xmlns:xlink="http://www.w3.org/1999/xlink" version="1.1" class="highcharts-root" style="font-family:Arial;font-size:12px;" xmlns="http://www.w3.org/2000/svg" viewBox="0 0 485 415">
  <desc>
    Created with Highstock 6.0.4
  </desc>
  <defs>
    <clipPath>
      <rect x="0" y="0" width="389" height="264" fill="none"/>
    </clipPath>
    <clipPath id="a">
      <rect x="0" y="0" width="389" height="264" fill="none"/>
    </clipPath>
    <clipPath id="b">
      <rect x="0" y="0" width="389" height="264" fill="none"/>
    </clipPath>
  </defs>
  <rect fill="#fbfbfb" class="highcharts-background" x="0" y="0" width="485" height="415" rx="0" ry="0"/>
  <rect fill="none" class="highcharts-plot-background" x="43" y="100" width="389" height="264"/>
  <g class="highcharts-pane-group"/>
  <g class="highcharts-grid highcharts-xaxis-grid ">
    <path fill="none" class="highcharts-grid-line" d="M 77.5 100 L 77.5 364" opacity="1"/>
    <path fill="none" class="highcharts-grid-line" d="M 141.5 100 L 141.5 364" opacity="1"/>
    <path fill="none" class="highcharts-grid-line" d="M 205.5 100 L 205.5 364" opacity="1"/>
    <path fill="none" class="highcharts-grid-line" d="M 268.5 100 L 268.5 364" opacity="1"/>
    <path fill="none" class="highcharts-grid-line" d="M 332.5 100 L 332.5 364" opacity="1"/>
    <path fill="none" class="highcharts-grid-line" d="M 396.5 100 L 396.5 364" opacity="1"/>
  </g>
  <g class="highcharts-grid highcharts-yaxis-grid ">
    <path fill="none" stroke="#B9CFD7" stroke-width="0.5" class="highcharts-grid-line" d="M 43 364.25 L 432 364.25" opacity="1"/>
    <path fill="none" stroke="#B9CFD7" stroke-width="0.5" class="highcharts-grid-line" d="M 43 276.25 L 432 276.25" opacity="1"/>
    <path fill="none" stroke="#B9CFD7" stroke-width="0.5" class="highcharts-grid-line" d="M 43 188.25 L 432 188.25" opacity="1"/>
    <path fill="none" stroke="#B9CFD7" stroke-width="0.5" class="highcharts-grid-line" d="M 43 99.75 L 432 99.75" opacity="1"/>
  </g>
  <g class="highcharts-grid highcharts-yaxis-grid ">
    <path fill="none" stroke="#B9CFD7" stroke-width="0.5" class="highcharts-grid-line" d="M 43 364.25 L 432 364.25" opacity="1"/>
    <path fill="none" stroke="#B9CFD7" stroke-width="0.5" class="highcharts-grid-line" d="M 43 298.25 L 432 298.25" opacity="1"/>
    <path fill="none" stroke="#B9CFD7" stroke-width="0.5" class="highcharts-grid-line" d="M 43 232.25 L 432 232.25" opacity="1"/>
    <path fill="none" stroke="#B9CFD7" stroke-width="0.5" class="highcharts-grid-line" d="M 43 166.25 L 432 166.25" opacity="1"/>
    <path fill="none" stroke="#B9CFD7" stroke-width="0.5" class="highcharts-grid-line" d="M 43 99.75 L 432 99.75" opacity="1"/>
  </g>
  <rect fill="none" class="highcharts-plot-border" x="43" y="100" width="389" height="264"/>
  <g class="highcharts-axis highcharts-xaxis ">
    <path fill="none" class="highcharts-axis-line" stroke="#B9CFD7" stroke-width="0.5" d="M 43 364.25 L 432 364.25"/>
  </g>
  <g class="highcharts-axis highcharts-yaxis ">
    <path fill="none" class="highcharts-axis-line" d="M 43 100 L 43 364"/>
  </g>
  <g class="highcharts-axis highcharts-yaxis ">
    <path fill="none" class="highcharts-axis-line" d="M 432 100 L 432 364"/>
  </g>
  <g class="highcharts-series-group">
    <g class="highcharts-series highcharts-series-0 highcharts-column-series " transform="translate(43,100) scale(1 1)" clip-path="url(#a)">
      <rect x="18" y="82" width="16" height="183" fill="#73b97c" class="highcharts-point"/>
      <rect x="82" y="87" width="16" height="178" fill="#73b97c" class="highcharts-point"/>
      <rect x="145" y="93" width="16" height="172" fill="#73b97c" class="highcharts-point"/>
      <rect x="209" y="85" width="16" height="180" fill="#73b97c" class="highcharts-point"/>
      <rect x="273" y="17" width="16" height="248" fill="#73b97c" class="highcharts-point"/>
      <rect x="337" y="17" width="16" height="248" fill="#73b97c" class="highcharts-point"/>
    </g>
    <g class="highcharts-markers highcharts-series-0 highcharts-column-series " transform="translate(43,100) scale(1 1)" clip-path="none"/>
    <g class="highcharts-series highcharts-series-1 highcharts-column-series " transform="translate(43,100) scale(1 1)" clip-path="url(#a)">
      <rect x="37" y="100" width="16" height="165" fill="#007A2F" class="highcharts-point"/>
      <rect x="101" y="98" width="16" height="167" fill="#007A2F" class="highcharts-point"/>
      <rect x="165" y="98" width="16" height="167" fill="#007A2F" class="highcharts-point"/>
      <rect x="228" y="91" width="16" height="174" fill="#007A2F" class="highcharts-point"/>
      <rect x="292" y="36" width="16" height="229" fill="#007A2F" class="highcharts-point"/>
      <rect x="356" y="43" width="16" height="222" fill="#007A2F" class="highcharts-point"/>
    </g>
    <g class="highcharts-markers highcharts-series-1 highcharts-column-series " transform="translate(43,100) scale(1 1)" clip-path="none"/>
    <g class="highcharts-series highcharts-series-2 highcharts-line-series " transform="translate(43,100) scale(1 1)" clip-path="url(#b)">
      <path fill="none" d="M 35.073770491801 25.38461538461533 L 98.844262295081 15.68316831683154 L 162.61475409836 8.081632653061178 L 226.38524590164 7.764705882352871 L 290.15573770492 20.595744680851027 L 353.9262295082 28.085106382978637" class="highcharts-graph" stroke="#cd9c00" stroke-width="2" stroke-linejoin="round" stroke-linecap="round"/>
    </g>
    <g class="highcharts-markers highcharts-series-2 highcharts-line-series " transform="translate(43,100) scale(1 1)" clip-path="none">
      <path fill="#cd9c00" d="M 39 25 A 4 4 0 1 1 38.99999800000017 24.996000000666665 Z" class="highcharts-point"/>
      <path fill="#cd9c00" d="M 102 16 A 4 4 0 1 1 101.99999800000016 15.996000000666664 Z" class="highcharts-point"/>
      <path fill="#cd9c00" d="M 166 8 A 4 4 0 1 1 165.99999800000018 7.9960000006666645 Z" class="highcharts-point"/>
      <path fill="#cd9c00" d="M 230 8 A 4 4 0 1 1 229.99999800000018 7.9960000006666645 Z" class="highcharts-point"/>
      <path fill="#cd9c00" d="M 294 21 A 4 4 0 1 1 293.9999980000002 20.996000000666665 Z" class="highcharts-point"/>
      <path fill="#cd9c00" d="M 357 28 A 4 4 0 1 1 356.9999980000002 27.996000000666665 Z" class="highcharts-point"/>
    </g>
  </g>
  <text x="10" text-anchor="start" class="highcharts-title" style="color:#000000;font-size:14px;font-weight:bold;fill:#000000;" y="21">
    <tspan>Bestand an Notwohnungen und ihre Belegung</tspan>
  </text>
  <text x="10" text-anchor="start" class="highcharts-subtitle" style="color:#000000;font-size:12px;font-weight:normal;font-family:Arial;fill:#000000;" y="40"/>
  <g class="highcharts-legend" transform="translate(35,41)">
    <rect fill="none" class="highcharts-legend-box" rx="0" ry="0" x="0" y="0" width="379" height="39" visibility="visible"/>
    <g>
      <g>
        <g class="highcharts-legend-item highcharts-column-series highcharts-color-undefined highcharts-series-0" transform="translate(8,3)">
          <text x="21" style="color:#333333;font-size:12px;font-weight:normal;cursor:pointer;fill:#333333;" text-anchor="start" y="15">
            <tspan>Notwohnungen</tspan>
          </text>
          <rect x="2" y="4" width="12" height="12" fill="#73b97c" class="highcharts-point"/>
        </g>
        <g class="highcharts-legend-item highcharts-column-series highcharts-color-undefined highcharts-series-1" transform="translate(129.6875,3)">
          <text x="21" y="15" style="color:#333333;font-size:12px;font-weight:normal;cursor:pointer;fill:#333333;" text-anchor="start">
            <tspan>Notwohnungen belegt</tspan>
          </text>
          <rect x="2" y="4" width="12" height="12" fill="#007A2F" class="highcharts-point"/>
        </g>
        <g class="highcharts-legend-item highcharts-line-series highcharts-color-undefined highcharts-series-2" transform="translate(8,17)">
          <path fill="none" d="M 0 11 L 16 11" class="highcharts-graph" stroke="#cd9c00" stroke-width="2"/>
          <path fill="#cd9c00" d="M 12 11 A 4 4 0 1 1 11.999998000000167 10.996000000666664 Z" class="highcharts-point"/>
          <text x="21" y="15" style="color:#333333;font-size:12px;font-weight:normal;cursor:pointer;fill:#333333;" text-anchor="start">
            <tspan>Belegungsquote (Anteil belegter Wohnungen in %, rechte Skala)</tspan>
          </text>
        </g>
      </g>
    </g>
  </g>
  <g class="highcharts-axis-labels highcharts-xaxis-labels ">
    <text x="78.0737704918009" style="color:#000000;cursor:default;font-size:11px;fill:#000000;" text-anchor="middle" transform="translate(0,0)" y="383" opacity="1">
      <tspan>2011</tspan>
    </text>
    <text x="141.84426229508054" style="color:#000000;cursor:default;font-size:11px;fill:#000000;" text-anchor="middle" transform="translate(0,0)" y="383" opacity="1">
      <tspan>2012</tspan>
    </text>
    <text x="205.61475409836018" style="color:#000000;cursor:default;font-size:11px;fill:#000000;" text-anchor="middle" transform="translate(0,0)" y="383" opacity="1">
      <tspan>2013</tspan>
    </text>
    <text x="269.3852459016398" style="color:#000000;cursor:default;font-size:11px;fill:#000000;" text-anchor="middle" transform="translate(0,0)" y="383" opacity="1">
      <tspan>2014</tspan>
    </text>
    <text x="333.1557377049195" style="color:#000000;cursor:default;font-size:11px;fill:#000000;" text-anchor="middle" transform="translate(0,0)" y="383" opacity="1">
      <tspan>2015</tspan>
    </text>
    <text x="396.92622950819907" style="color:#000000;cursor:default;font-size:11px;fill:#000000;" text-anchor="middle" transform="translate(0,0)" y="383" opacity="1">
      <tspan>2016</tspan>
    </text>
  </g>
  <g class="highcharts-axis-labels highcharts-yaxis-labels ">
    <text x="28" style="color:#000000;cursor:default;font-size:11px;fill:#000000;" text-anchor="end" transform="translate(0,0)" y="369" opacity="1">
      <tspan>0</tspan>
    </text>
    <text x="28" style="color:#000000;cursor:default;font-size:11px;fill:#000000;" text-anchor="end" transform="translate(0,0)" y="281" opacity="1">
      <tspan>50</tspan>
    </text>
    <text x="28" style="color:#000000;cursor:default;font-size:11px;fill:#000000;" text-anchor="end" transform="translate(0,0)" y="193" opacity="1">
      <tspan>100</tspan>
    </text>
    <text x="28" style="color:#000000;cursor:default;font-size:11px;fill:#000000;" text-anchor="end" transform="translate(0,0)" y="105" opacity="1">
      <tspan>150</tspan>
    </text>
  </g>
  <g class="highcharts-axis-labels highcharts-yaxis-labels ">
    <text x="447" style="color:#000000;cursor:default;font-size:11px;fill:#000000;" text-anchor="start" transform="translate(0,0)" y="369" opacity="1">
      <tspan>0%</tspan>
    </text>
    <text x="447" style="color:#000000;cursor:default;font-size:11px;fill:#000000;" text-anchor="start" transform="translate(0,0)" y="303" opacity="1">
      <tspan>25%</tspan>
    </text>
    <text x="447" style="color:#000000;cursor:default;font-size:11px;fill:#000000;" text-anchor="start" transform="translate(0,0)" y="237" opacity="1">
      <tspan>50%</tspan>
    </text>
    <text x="447" style="color:#000000;cursor:default;font-size:11px;fill:#000000;" text-anchor="start" transform="translate(0,0)" y="171" opacity="1">
      <tspan>75%</tspan>
    </text>
    <text x="447" style="color:#000000;cursor:default;font-size:11px;fill:#000000;" text-anchor="start" transform="translate(0,0)" y="105" opacity="1">
      <tspan>100%</tspan>
    </text>
  </g>
  <text x="10" class="highcharts-credits" text-anchor="start" style="cursor:default;color:#000000;font-size:10px;fill:#000000;" y="400">
    <tspan>Quelle: Statistisches Amt Basel-Stadt, Sozialhilfe Basel</tspan>
  </text>
</svg>
