<svg version="1.1" class="highcharts-root" style="font-family: -apple-system, BlinkMacSystemFont, &quot;Segoe UI&quot;, Roboto, Helvetica, Arial, &quot;Apple Color Emoji&quot;, &quot;Segoe UI Emoji&quot;, &quot;Segoe UI Symbol&quot;, sans-serif; font-size: 1rem;" xmlns="http://www.w3.org/2000/svg" width="600" height="400" viewBox="0 0 600 400" role="img" aria-label="Gelöster Organischer Kohlenstoff (DOC)"><desc>Created with Highcharts 12.5.0</desc><defs><filter id="highcharts-drop-shadow-0"><feDropShadow dx="1" dy="1" flood-color="#000000" flood-opacity="0.75" stdDeviation="2.5"></feDropShadow></filter><clipPath id="highcharts-0xg1o05-208-"><rect x="0" y="0" width="549" height="170" fill="none"></rect></clipPath></defs><rect fill="#ffffff" class="highcharts-background" filter="none" x="0" y="0" width="600" height="400" rx="0" ry="0"></rect><rect fill="none" class="highcharts-plot-background" x="41" y="128" width="549" height="170" filter="none"></rect><g class="highcharts-label" transform="translate(10,429)" style="cursor: pointer;"><text x="0" data-z-index="1" y="0">&gt; Indikator-Details</text></g><g class="highcharts-pane-group" data-z-index="0"></g><g class="highcharts-plot-lines-0" data-z-index="0"><path fill="none" class="highcharts-plot-line "></path><path fill="none" class="highcharts-plot-line "></path><path fill="none" class="highcharts-plot-line "></path><path fill="none" class="highcharts-plot-line "></path><path fill="none" class="highcharts-plot-line "></path><path fill="none" class="highcharts-plot-line "></path><path fill="none" class="highcharts-plot-line "></path><path fill="none" class="highcharts-plot-line "></path><path fill="none" class="highcharts-plot-line "></path><path fill="none" class="highcharts-plot-line "></path><path fill="none" class="highcharts-plot-line "></path></g><g class="highcharts-grid highcharts-xaxis-grid" data-z-index="1"><path fill="none" stroke="#e6e6e6" stroke-width="0" stroke-dasharray="none" data-z-index="1" class="highcharts-grid-line" d="M 73.5 128 L 73.5 298" opacity="1"></path><path fill="none" stroke="#e6e6e6" stroke-width="0" stroke-dasharray="none" data-z-index="1" class="highcharts-grid-line" d="M 105.5 128 L 105.5 298" opacity="1"></path><path fill="none" stroke="#e6e6e6" stroke-width="0" stroke-dasharray="none" data-z-index="1" class="highcharts-grid-line" d="M 137.5 128 L 137.5 298" opacity="1"></path><path fill="none" stroke="#e6e6e6" stroke-width="0" stroke-dasharray="none" data-z-index="1" class="highcharts-grid-line" d="M 170.5 128 L 170.5 298" opacity="1"></path><path fill="none" stroke="#e6e6e6" stroke-width="0" stroke-dasharray="none" data-z-index="1" class="highcharts-grid-line" d="M 202.5 128 L 202.5 298" opacity="1"></path><path fill="none" stroke="#e6e6e6" stroke-width="0" stroke-dasharray="none" data-z-index="1" class="highcharts-grid-line" d="M 234.5 128 L 234.5 298" opacity="1"></path><path fill="none" stroke="#e6e6e6" stroke-width="0" stroke-dasharray="none" data-z-index="1" class="highcharts-grid-line" d="M 267.5 128 L 267.5 298" opacity="1"></path><path fill="none" stroke="#e6e6e6" stroke-width="0" stroke-dasharray="none" data-z-index="1" class="highcharts-grid-line" d="M 299.5 128 L 299.5 298" opacity="1"></path><path fill="none" stroke="#e6e6e6" stroke-width="0" stroke-dasharray="none" data-z-index="1" class="highcharts-grid-line" d="M 331.5 128 L 331.5 298" opacity="1"></path><path fill="none" stroke="#e6e6e6" stroke-width="0" stroke-dasharray="none" data-z-index="1" class="highcharts-grid-line" d="M 363.5 128 L 363.5 298" opacity="1"></path><path fill="none" stroke="#e6e6e6" stroke-width="0" stroke-dasharray="none" data-z-index="1" class="highcharts-grid-line" d="M 396.5 128 L 396.5 298" opacity="1"></path><path fill="none" stroke="#e6e6e6" stroke-width="0" stroke-dasharray="none" data-z-index="1" class="highcharts-grid-line" d="M 428.5 128 L 428.5 298" opacity="1"></path><path fill="none" stroke="#e6e6e6" stroke-width="0" stroke-dasharray="none" data-z-index="1" class="highcharts-grid-line" d="M 460.5 128 L 460.5 298" opacity="1"></path><path fill="none" stroke="#e6e6e6" stroke-width="0" stroke-dasharray="none" data-z-index="1" class="highcharts-grid-line" d="M 493.5 128 L 493.5 298" opacity="1"></path><path fill="none" stroke="#e6e6e6" stroke-width="0" stroke-dasharray="none" data-z-index="1" class="highcharts-grid-line" d="M 525.5 128 L 525.5 298" opacity="1"></path><path fill="none" stroke="#e6e6e6" stroke-width="0" stroke-dasharray="none" data-z-index="1" class="highcharts-grid-line" d="M 557.5 128 L 557.5 298" opacity="1"></path><path fill="none" stroke="#e6e6e6" stroke-width="0" stroke-dasharray="none" data-z-index="1" class="highcharts-grid-line" d="M 590.5 128 L 590.5 298" opacity="1"></path><path fill="none" stroke="#e6e6e6" stroke-width="0" stroke-dasharray="none" data-z-index="1" class="highcharts-grid-line" d="M 41.5 128 L 41.5 298" opacity="1"></path></g><g class="highcharts-grid highcharts-yaxis-grid" data-z-index="1"><path fill="none" stroke="#e6e6e6" stroke-width="1" stroke-dasharray="none" data-z-index="1" class="highcharts-grid-line" d="M 41 298.5 L 590 298.5" opacity="1"></path><path fill="none" stroke="#e6e6e6" stroke-width="1" stroke-dasharray="none" data-z-index="1" class="highcharts-grid-line" d="M 41 241.5 L 590 241.5" opacity="1"></path><path fill="none" stroke="#e6e6e6" stroke-width="1" stroke-dasharray="none" data-z-index="1" class="highcharts-grid-line" d="M 41 184.5 L 590 184.5" opacity="1"></path><path fill="none" stroke="#e6e6e6" stroke-width="1" stroke-dasharray="none" data-z-index="1" class="highcharts-grid-line" d="M 41 128.5 L 590 128.5" opacity="1"></path></g><g class="highcharts-grid highcharts-yaxis-grid" data-z-index="1"></g><rect fill="none" class="highcharts-plot-border" data-z-index="1" stroke="#cccccc" stroke-width="0" x="41" y="128" width="549" height="170"></rect><g class="highcharts-axis highcharts-xaxis" data-z-index="2"><path fill="none" class="highcharts-axis-line" stroke="#333333" stroke-width="1" data-z-index="7" d="M 41 298.5 L 590 298.5"></path></g><g class="highcharts-axis highcharts-yaxis" data-z-index="2"><path fill="none" class="highcharts-axis-line" stroke="#333333" stroke-width="0" data-z-index="7" d="M 41 128 L 41 298"></path></g><g class="highcharts-axis highcharts-yaxis" data-z-index="2"><path fill="none" class="highcharts-axis-line" stroke="#333333" stroke-width="0" data-z-index="7" d="M 590 128 L 590 298"></path></g><g class="highcharts-series-group" data-z-index="3" filter="none"><g class="highcharts-series highcharts-series-0 highcharts-column-series highcharts-tracker" data-z-index="0.1" opacity="1" transform="translate(41,128) scale(1 1)" clip-path="url(#highcharts-0xg1o05-208-)"><path fill="#FF8028" d="M 11 68 L 21 68 A 3 3 0 0 1 24 71 L 24 170 A 0 0 0 0 1 24 170 L 8 170 A 0 0 0 0 1 8 170 L 8 71 A 3 3 0 0 1 11 68 Z" stroke="#ffffff" stroke-width="0" opacity="1" filter="none" class="highcharts-point"></path><path fill="#FF8028" d="M 44 68 L 54 68 A 3 3 0 0 1 57 71 L 57 170 A 0 0 0 0 1 57 170 L 41 170 A 0 0 0 0 1 41 170 L 41 71 A 3 3 0 0 1 44 68 Z" stroke="#ffffff" stroke-width="0" opacity="1" filter="none" class="highcharts-point"></path><path fill="#FF8028" d="M 76 57 L 86 57 A 3 3 0 0 1 89 60 L 89 170 A 0 0 0 0 1 89 170 L 73 170 A 0 0 0 0 1 73 170 L 73 60 A 3 3 0 0 1 76 57 Z" stroke="#ffffff" stroke-width="0" opacity="1" filter="none" class="highcharts-point"></path><path fill="#FF8028" d="M 108 57 L 118 57 A 3 3 0 0 1 121 60 L 121 170 A 0 0 0 0 1 121 170 L 105 170 A 0 0 0 0 1 105 170 L 105 60 A 3 3 0 0 1 108 57 Z" stroke="#ffffff" stroke-width="0" opacity="1" filter="none" class="highcharts-point"></path><path fill="#FF8028" d="M 141 57 L 151 57 A 3 3 0 0 1 154 60 L 154 170 A 0 0 0 0 1 154 170 L 138 170 A 0 0 0 0 1 138 170 L 138 60 A 3 3 0 0 1 141 57 Z" stroke="#ffffff" stroke-width="0" opacity="1" filter="none" class="highcharts-point"></path><path fill="#FF8028" d="M 173 57 L 183 57 A 3 3 0 0 1 186 60 L 186 170 A 0 0 0 0 1 186 170 L 170 170 A 0 0 0 0 1 170 170 L 170 60 A 3 3 0 0 1 173 57 Z" stroke="#ffffff" stroke-width="0" opacity="1" filter="none" class="highcharts-point"></path><path fill="#FF8028" d="M 205 68 L 215 68 A 3 3 0 0 1 218 71 L 218 170 A 0 0 0 0 1 218 170 L 202 170 A 0 0 0 0 1 202 170 L 202 71 A 3 3 0 0 1 205 68 Z" stroke="#ffffff" stroke-width="0" opacity="1" filter="none" class="highcharts-point"></path><path fill="#FF8028" d="M 237 68 L 247 68 A 3 3 0 0 1 250 71 L 250 170 A 0 0 0 0 1 250 170 L 234 170 A 0 0 0 0 1 234 170 L 234 71 A 3 3 0 0 1 237 68 Z" stroke="#ffffff" stroke-width="0" opacity="1" filter="none" class="highcharts-point"></path><path fill="#FF8028" d="M 270 79 L 280 79 A 3 3 0 0 1 283 82 L 283 170 A 0 0 0 0 1 283 170 L 267 170 A 0 0 0 0 1 267 170 L 267 82 A 3 3 0 0 1 270 79 Z" stroke="#ffffff" stroke-width="0" opacity="1" filter="none" class="highcharts-point"></path><path fill="#FF8028" d="M 302 68 L 312 68 A 3 3 0 0 1 315 71 L 315 170 A 0 0 0 0 1 315 170 L 299 170 A 0 0 0 0 1 299 170 L 299 71 A 3 3 0 0 1 302 68 Z" stroke="#ffffff" stroke-width="0" opacity="1" filter="none" class="highcharts-point"></path><path fill="#FF8028" d="M 334 57 L 344 57 A 3 3 0 0 1 347 60 L 347 170 A 0 0 0 0 1 347 170 L 331 170 A 0 0 0 0 1 331 170 L 331 60 A 3 3 0 0 1 334 57 Z" stroke="#ffffff" stroke-width="0" opacity="1" filter="none" class="highcharts-point"></path><path fill="#FF8028" d="M 367 57 L 377 57 A 3 3 0 0 1 380 60 L 380 170 A 0 0 0 0 1 380 170 L 364 170 A 0 0 0 0 1 364 170 L 364 60 A 3 3 0 0 1 367 57 Z" stroke="#ffffff" stroke-width="0" opacity="1" filter="none" class="highcharts-point"></path><path fill="#FF8028" d="M 399 23 L 409 23 A 3 3 0 0 1 412 26 L 412 170 A 0 0 0 0 1 412 170 L 396 170 A 0 0 0 0 1 396 170 L 396 26 A 3 3 0 0 1 399 23 Z" stroke="#ffffff" stroke-width="0" opacity="1" filter="none" class="highcharts-point"></path><path fill="#FF8028" d="M 431 68 L 441 68 A 3 3 0 0 1 444 71 L 444 170 A 0 0 0 0 1 444 170 L 428 170 A 0 0 0 0 1 428 170 L 428 71 A 3 3 0 0 1 431 68 Z" stroke="#ffffff" stroke-width="0" opacity="1" filter="none" class="highcharts-point"></path><path fill="#FF8028" d="M 464 57 L 474 57 A 3 3 0 0 1 477 60 L 477 170 A 0 0 0 0 1 477 170 L 461 170 A 0 0 0 0 1 461 170 L 461 60 A 3 3 0 0 1 464 57 Z" stroke="#ffffff" stroke-width="0" opacity="1" filter="none" class="highcharts-point"></path><path fill="#FF8028" d="M 496 34 L 506 34 A 3 3 0 0 1 509 37 L 509 170 A 0 0 0 0 1 509 170 L 493 170 A 0 0 0 0 1 493 170 L 493 37 A 3 3 0 0 1 496 34 Z" stroke="#ffffff" stroke-width="0" opacity="1" filter="none" class="highcharts-point"></path><path fill="#FF8028" d="M 528 68 L 538 68 A 3 3 0 0 1 541 71 L 541 170 A 0 0 0 0 1 541 170 L 525 170 A 0 0 0 0 1 525 170 L 525 71 A 3 3 0 0 1 528 68 Z" stroke="#ffffff" stroke-width="0" opacity="1" filter="none" class="highcharts-point"></path></g><g class="highcharts-markers highcharts-series-0 highcharts-column-series" data-z-index="0.1" opacity="1" transform="translate(41,128) scale(1 1)" clip-path="none"></g><g class="highcharts-series highcharts-series-1 highcharts-line-series" data-z-index="0.1" opacity="1" transform="translate(41,128) scale(1 1)" clip-path="url(#highcharts-0xg1o05-208-)"><path fill="none" d="M 16.147058823529 56.666666666667 L 48.441176470588 56.666666666667 L 80.735294117647 56.666666666667 L 113.02941176471 56.666666666667 L 145.32352941176 56.666666666667 L 177.61764705882 56.666666666667 L 209.91176470588 56.666666666667 L 242.20588235294 56.666666666667 L 274.5 56.666666666667 L 306.79411764706 56.666666666667 L 339.08823529412 56.666666666667 L 371.38235294118 56.666666666667 L 403.67647058824 56.666666666667 L 435.97058823529 56.666666666667 L 468.26470588235 56.666666666667 L 500.55882352941 56.666666666667 L 532.85294117647 56.666666666667" class="highcharts-graph" data-z-index="1" stroke="#444444" stroke-width="2" stroke-dasharray="6,2" filter="none"></path><path fill="none" d="M 16.147058823529 56.666666666667 L 48.441176470588 56.666666666667 L 80.735294117647 56.666666666667 L 113.02941176471 56.666666666667 L 145.32352941176 56.666666666667 L 177.61764705882 56.666666666667 L 209.91176470588 56.666666666667 L 242.20588235294 56.666666666667 L 274.5 56.666666666667 L 306.79411764706 56.666666666667 L 339.08823529412 56.666666666667 L 371.38235294118 56.666666666667 L 403.67647058824 56.666666666667 L 435.97058823529 56.666666666667 L 468.26470588235 56.666666666667 L 500.55882352941 56.666666666667 L 532.85294117647 56.666666666667" data-z-index="2" class="highcharts-tracker-line" stroke-linecap="round" stroke-linejoin="round" stroke="rgba(192,192,192,0.0001)" stroke-width="22"></path></g><g class="highcharts-markers highcharts-series-1 highcharts-line-series highcharts-tracker" data-z-index="0.1" opacity="1" transform="translate(41,128) scale(1 1)" clip-path="none"></g></g><text x="10" text-anchor="start" class="highcharts-caption" data-z-index="4" style="font-size: 0.8em; fill: rgb(102, 102, 102);" text-align="left" y="362" transform-origin="10 15" transform="translate(0,0) scale(1 1)"></text><g class="highcharts-axis-labels highcharts-xaxis-labels" data-z-index="7"><text x="60.44689046906681" text-anchor="end" transform="translate(0,0) rotate(-45 60.44689046906681 323)" style="cursor: default; font-size: 0.91666em; fill: rgb(0, 0, 0);" y="323" opacity="1">2007</text><text x="92.7410081161278" text-anchor="end" transform="translate(0,0) rotate(-45 92.7410081161278 323)" style="cursor: default; font-size: 0.91666em; fill: rgb(0, 0, 0);" y="323" opacity="1">2008</text><text x="125.03512576318778" text-anchor="end" transform="translate(0,0) rotate(-45 125.03512576318778 323)" style="cursor: default; font-size: 0.91666em; fill: rgb(0, 0, 0);" y="323" opacity="1">2009</text><text x="157.32924341024778" text-anchor="end" transform="translate(0,0) rotate(-45 157.32924341024778 323)" style="cursor: default; font-size: 0.91666em; fill: rgb(0, 0, 0);" y="323" opacity="1">2010</text><text x="189.62336105729779" text-anchor="end" transform="translate(0,0) rotate(-45 189.62336105729779 323)" style="cursor: default; font-size: 0.91666em; fill: rgb(0, 0, 0);" y="323" opacity="1">2011</text><text x="221.9174787043578" text-anchor="end" transform="translate(0,0) rotate(-45 221.9174787043578 323)" style="cursor: default; font-size: 0.91666em; fill: rgb(0, 0, 0);" y="323" opacity="1">2012</text><text x="254.2115963514178" text-anchor="end" transform="translate(0,0) rotate(-45 254.2115963514178 323)" style="cursor: default; font-size: 0.91666em; fill: rgb(0, 0, 0);" y="323" opacity="1">2013</text><text x="286.5057139984778" text-anchor="end" transform="translate(0,0) rotate(-45 286.5057139984778 323)" style="cursor: default; font-size: 0.91666em; fill: rgb(0, 0, 0);" y="323" opacity="1">2014</text><text x="318.79983164553784" text-anchor="end" transform="translate(0,0) rotate(-45 318.79983164553784 323)" style="cursor: default; font-size: 0.91666em; fill: rgb(0, 0, 0);" y="323" opacity="1">2015</text><text x="351.0939492925978" text-anchor="end" transform="translate(0,0) rotate(-45 351.0939492925978 323)" style="cursor: default; font-size: 0.91666em; fill: rgb(0, 0, 0);" y="323" opacity="1">2016</text><text x="383.38806693965785" text-anchor="end" transform="translate(0,0) rotate(-45 383.38806693965785 323)" style="cursor: default; font-size: 0.91666em; fill: rgb(0, 0, 0);" y="323" opacity="1">2017</text><text x="415.6821845867178" text-anchor="end" transform="translate(0,0) rotate(-45 415.6821845867178 323)" style="cursor: default; font-size: 0.91666em; fill: rgb(0, 0, 0);" y="323" opacity="1">2018</text><text x="447.9763022337678" text-anchor="end" transform="translate(0,0) rotate(-45 447.9763022337678 323)" style="cursor: default; font-size: 0.91666em; fill: rgb(0, 0, 0);" y="323" opacity="1">2019</text><text x="480.27041988082783" text-anchor="end" transform="translate(0,0) rotate(-45 480.27041988082783 323)" style="cursor: default; font-size: 0.91666em; fill: rgb(0, 0, 0);" y="323" opacity="1">2020</text><text x="512.5645375278879" text-anchor="end" transform="translate(0,0) rotate(-45 512.5645375278879 323)" style="cursor: default; font-size: 0.91666em; fill: rgb(0, 0, 0);" y="323" opacity="1">2021</text><text x="544.8586551749478" text-anchor="end" transform="translate(0,0) rotate(-45 544.8586551749478 323)" style="cursor: default; font-size: 0.91666em; fill: rgb(0, 0, 0);" y="323" opacity="1">2022</text><text x="577.1527728220078" text-anchor="end" transform="translate(0,0) rotate(-45 577.1527728220078 323)" style="cursor: default; font-size: 0.91666em; fill: rgb(0, 0, 0);" y="323" opacity="1">2023</text></g><g class="highcharts-axis-labels highcharts-yaxis-labels" data-z-index="7"><text x="26" text-anchor="end" transform="translate(0,0)" style="cursor: default; font-size: 0.91666em; fill: rgb(0, 0, 0);" y="302" opacity="1">0</text><text x="26" text-anchor="end" transform="translate(0,0)" style="cursor: default; font-size: 0.91666em; fill: rgb(0, 0, 0);" y="245" opacity="1">5</text><text x="26" text-anchor="end" transform="translate(0,0)" style="cursor: default; font-size: 0.91666em; fill: rgb(0, 0, 0);" y="189" opacity="1">10</text><text x="26" text-anchor="end" transform="translate(0,0)" style="cursor: default; font-size: 0.91666em; fill: rgb(0, 0, 0);" y="132" opacity="1">15</text></g><g class="highcharts-axis-labels highcharts-yaxis-labels" data-z-index="7"></g><g class="highcharts-legend highcharts-no-tooltip" data-z-index="7" text-align="left" transform="translate(29,71)"><rect fill="none" class="highcharts-legend-box" rx="0" ry="0" stroke="#999999" stroke-width="0" filter="none" x="0" y="0" width="118" height="45"></rect><g data-z-index="1"><g><g class="highcharts-legend-item highcharts-line-series highcharts-color-undefined highcharts-series-1" data-z-index="1" transform="translate(12,7)"><path fill="none" class="highcharts-graph" stroke-width="2" stroke-dasharray="6,2" d="M 0 16 L 16 16" stroke="#444444"></path><text x="21" text-anchor="start" data-z-index="2" style="cursor: pointer; font-size: 1em; text-decoration: none; font-weight: normal; fill: rgb(51, 51, 51);" y="21">Grenzwert</text></g></g></g></g></svg>