<?xml version="1.0" standalone="no"?><!DOCTYPE svg PUBLIC "-//W3C//DTD SVG 1.1//EN" "http://www.w3.org/Graphics/SVG/1.1/DTD/svg11.dtd"><svg xmlns:xlink="http://www.w3.org/1999/xlink" version="1.1" class="highcharts-root" style="font-family:&quot;Lucida Grande&quot;, &quot;Lucida Sans Unicode&quot;, Arial, Helvetica, sans-serif;font-size:12px;" xmlns="http://www.w3.org/2000/svg" viewBox="0 0 485 415"><desc>Created with Highcharts 8.1.2</desc><defs><clipPath id="highcharts-6fjhyln-56-"><rect x="0" y="0" width="436" height="239" fill="none"></rect></clipPath><clipPath id="highcharts-6fjhyln-81-"><rect x="0" y="0" width="436" height="239" fill="none"></rect></clipPath><clipPath id="highcharts-6fjhyln-106-"><rect x="39" y="105" width="436" height="239" fill="none"></rect></clipPath></defs><rect fill="#fbfbfb" class="highcharts-background" x="0" y="0" width="485" height="415" rx="0" ry="0"></rect><rect fill="none" class="highcharts-plot-background" x="39" y="105" width="436" height="239"></rect><g class="highcharts-label" transform="translate(10,451)"><text x="0" data-z-index="1" style="cursor:pointer;" y="0"><tspan>&gt; Indikator-Details</tspan></text></g><g class="highcharts-label" transform="translate(10,451)"><text x="0" data-z-index="1" style="cursor:pointer;" y="0"><tspan>&gt; Indikator-Details</tspan></text></g><g class="highcharts-pane-group" data-z-index="0"></g><g class="highcharts-grid highcharts-xaxis-grid" data-z-index="1"><path fill="none" data-z-index="1" class="highcharts-grid-line" d="M 47.5 105 L 47.5 344" opacity="1"></path><path fill="none" data-z-index="1" class="highcharts-grid-line" d="M 83.5 105 L 83.5 344" opacity="1"></path><path fill="none" data-z-index="1" class="highcharts-grid-line" d="M 120.5 105 L 120.5 344" opacity="1"></path><path fill="none" data-z-index="1" class="highcharts-grid-line" d="M 156.5 105 L 156.5 344" opacity="1"></path><path fill="none" data-z-index="1" class="highcharts-grid-line" d="M 192.5 105 L 192.5 344" opacity="1"></path><path fill="none" data-z-index="1" class="highcharts-grid-line" d="M 229.5 105 L 229.5 344" opacity="1"></path><path fill="none" data-z-index="1" class="highcharts-grid-line" d="M 265.5 105 L 265.5 344" opacity="1"></path><path fill="none" data-z-index="1" class="highcharts-grid-line" d="M 301.5 105 L 301.5 344" opacity="1"></path><path fill="none" data-z-index="1" class="highcharts-grid-line" d="M 338.5 105 L 338.5 344" opacity="1"></path><path fill="none" data-z-index="1" class="highcharts-grid-line" d="M 374.5 105 L 374.5 344" opacity="1"></path><path fill="none" data-z-index="1" class="highcharts-grid-line" d="M 410.5 105 L 410.5 344" opacity="1"></path><path fill="none" data-z-index="1" class="highcharts-grid-line" d="M 447.5 105 L 447.5 344" opacity="1"></path></g><g class="highcharts-grid highcharts-yaxis-grid" data-z-index="1"><path fill="none" stroke="#e6e6e6" stroke-width="1" data-z-index="1" class="highcharts-grid-line" d="M 39 344.5 L 475 344.5" opacity="1"></path><path fill="none" stroke="#e6e6e6" stroke-width="1" data-z-index="1" class="highcharts-grid-line" d="M 39 284.5 L 475 284.5" opacity="1"></path><path fill="none" stroke="#e6e6e6" stroke-width="1" data-z-index="1" class="highcharts-grid-line" d="M 39 225.5 L 475 225.5" opacity="1"></path><path fill="none" stroke="#e6e6e6" stroke-width="1" data-z-index="1" class="highcharts-grid-line" d="M 39 165.5 L 475 165.5" opacity="1"></path><path fill="none" stroke="#e6e6e6" stroke-width="1" data-z-index="1" class="highcharts-grid-line" d="M 39 104.5 L 475 104.5" opacity="1"></path></g><g class="highcharts-grid highcharts-yaxis-grid" data-z-index="1"></g><rect fill="none" class="highcharts-plot-border" data-z-index="1" x="39" y="105" width="436" height="239"></rect><g class="highcharts-axis highcharts-xaxis" data-z-index="2"><path fill="none" class="highcharts-axis-line" stroke="#ccd6eb" stroke-width="1" data-z-index="7" d="M 39 344.5 L 475 344.5"></path></g><g class="highcharts-axis highcharts-yaxis" data-z-index="2"><path fill="none" class="highcharts-axis-line" data-z-index="7" d="M 39 105 L 39 344"></path></g><g class="highcharts-axis highcharts-yaxis" data-z-index="2"><path fill="none" class="highcharts-axis-line" data-z-index="7" d="M 475 105 L 475 344"></path></g><g class="highcharts-series-group" data-z-index="3"><g class="highcharts-series highcharts-series-1 highcharts-arearange-series" data-z-index="-1" opacity="1" transform="translate(39,105) scale(1 1)" clip-path="url(#highcharts-6fjhyln-81-)"><path fill="rgb(220,68,14)" fill-opacity="0.1" d="M 9.0833333333333 99.18500000000003 L 27.25 95.60000000000002 L 45.416666666667 95.60000000000002 L 63.583333333333 99.18500000000003 L 81.75 100.38000000000002 L 99.916666666667 99.18500000000003 L 118.08333333333 96.79500000000002 L 136.25 97.99000000000001 L 154.41666666667 96.79500000000002 L 172.58333333333 93.21000000000001 L 190.75 92.01499999999999 L 208.91666666667 95.60000000000002 L 227.08333333333 96.79500000000002 L 245.25 94.405 L 263.41666666667 95.60000000000002 L 281.58333333333 94.405 L 299.75 95.60000000000002 L 317.91666666667 95.60000000000002 L 336.08333333333 89.625 L 354.25 92.01499999999999 L 372.41666666667 89.625 L 390.58333333333 87.23500000000001 L 408.75 87.23500000000001 L 426.91666666667 84.845 L 426.91666666667 32.265000000000015 L 408.75 35.85000000000002 L 390.58333333333 29.875 L 372.41666666667 29.875 L 354.25 41.82500000000002 L 336.08333333333 39.43500000000003 L 317.91666666667 40.629999999999995 L 299.75 39.43500000000003 L 281.58333333333 43.02000000000004 L 263.41666666667 44.215 L 245.25 43.02000000000004 L 227.08333333333 41.82500000000002 L 208.91666666667 43.02000000000004 L 190.75 45.410000000000025 L 172.58333333333 45.410000000000025 L 154.41666666667 46.60499999999999 L 136.25 46.60499999999999 L 118.08333333333 44.215 L 99.916666666667 43.02000000000004 L 81.75 45.410000000000025 L 63.583333333333 47.80000000000001 L 45.416666666667 44.215 L 27.25 46.60499999999999 L 9.0833333333333 38.24000000000001" class="highcharts-area" data-z-index="0"></path><path fill="none" d="M 9.0833333333333 99.18500000000003 L 27.25 95.60000000000002 L 45.416666666667 95.60000000000002 L 63.583333333333 99.18500000000003 L 81.75 100.38000000000002 L 99.916666666667 99.18500000000003 L 118.08333333333 96.79500000000002 L 136.25 97.99000000000001 L 154.41666666667 96.79500000000002 L 172.58333333333 93.21000000000001 L 190.75 92.01499999999999 L 208.91666666667 95.60000000000002 L 227.08333333333 96.79500000000002 L 245.25 94.405 L 263.41666666667 95.60000000000002 L 281.58333333333 94.405 L 299.75 95.60000000000002 L 317.91666666667 95.60000000000002 L 336.08333333333 89.625 L 354.25 92.01499999999999 L 372.41666666667 89.625 L 390.58333333333 87.23500000000001 L 408.75 87.23500000000001 L 426.91666666667 84.845 M 426.91666666667 32.265000000000015 L 408.75 35.85000000000002 L 390.58333333333 29.875 L 372.41666666667 29.875 L 354.25 41.82500000000002 L 336.08333333333 39.43500000000003 L 317.91666666667 40.629999999999995 L 299.75 39.43500000000003 L 281.58333333333 43.02000000000004 L 263.41666666667 44.215 L 245.25 43.02000000000004 L 227.08333333333 41.82500000000002 L 208.91666666667 43.02000000000004 L 190.75 45.410000000000025 L 172.58333333333 45.410000000000025 L 154.41666666667 46.60499999999999 L 136.25 46.60499999999999 L 118.08333333333 44.215 L 99.916666666667 43.02000000000004 L 81.75 45.410000000000025 L 63.583333333333 47.80000000000001 L 45.416666666667 44.215 L 27.25 46.60499999999999 L 9.0833333333333 38.24000000000001" class="highcharts-graph" data-z-index="1" stroke-linejoin="round" stroke-linecap="round"></path></g><g class="highcharts-markers highcharts-series-1 highcharts-arearange-series" data-z-index="-1" opacity="1" transform="translate(39,105) scale(1 1)" clip-path="none"></g><g class="highcharts-series highcharts-series-0 highcharts-line-series" data-z-index="0.1" opacity="1" transform="translate(39,105) scale(1 1)" clip-path="url(#highcharts-6fjhyln-81-)"><path fill="none" d="M 9.0833333333333 74.09 L 27.25 72.89500000000001 L 45.416666666667 75.28500000000003 L 63.583333333333 76.48000000000002 L 81.75 76.48000000000002 L 99.916666666667 75.28500000000003 L 118.08333333333 74.09 L 136.25 72.89500000000001 L 154.41666666667 72.89500000000001 L 172.58333333333 71.70000000000002 L 190.75 69.31000000000003 L 208.91666666667 70.50500000000002 L 227.08333333333 72.89500000000001 L 245.25 71.70000000000002 L 263.41666666667 71.70000000000002 L 281.58333333333 71.70000000000002 L 299.75 68.11500000000001 L 317.91666666667 68.11500000000001 L 336.08333333333 65.72500000000002 L 354.25 65.72500000000002 L 372.41666666667 64.53 L 390.58333333333 63.33500000000001 L 408.75 63.33500000000001 L 426.91666666667 62.140000000000015" class="highcharts-graph" data-z-index="1" stroke="#FF8028" stroke-width="2" stroke-linejoin="round" stroke-linecap="round"></path></g><g class="highcharts-markers highcharts-series-0 highcharts-line-series" data-z-index="0.1" opacity="1" transform="translate(39,105) scale(1 1)" clip-path="none"></g></g><text x="10" text-anchor="start" class="highcharts-title" data-z-index="4" style="color:#000000;font-size:1.1666em;font-weight:bold;fill:#000000;" y="21"><tspan>Wassertemperatur Grundwasser</tspan></text><text x="10" text-anchor="start" class="highcharts-subtitle" data-z-index="4" style="color:#000000;font-size:1em;fill:#000000;" y="40"><tspan>°C, Basel-Stadt</tspan></text><text x="10" text-anchor="start" class="highcharts-caption" data-z-index="4" style="color:#666666;fill:#666666;" y="377"></text><g class="highcharts-axis-labels highcharts-xaxis-labels" data-z-index="7"><text x="48.083333333333" style="color:#000000;cursor:default;font-size:0.91666em;fill:#000000;" text-anchor="middle" transform="translate(0,0)" y="363" opacity="1">1994</text><text x="84.416666666667" style="color:#000000;cursor:default;font-size:0.91666em;fill:#000000;" text-anchor="middle" transform="translate(0,0)" y="363" opacity="1">1996</text><text x="120.75" style="color:#000000;cursor:default;font-size:0.91666em;fill:#000000;" text-anchor="middle" transform="translate(0,0)" y="363" opacity="1">1998</text><text x="157.08333333333" style="color:#000000;cursor:default;font-size:0.91666em;fill:#000000;" text-anchor="middle" transform="translate(0,0)" y="363" opacity="1">2000</text><text x="193.41666666667" style="color:#000000;cursor:default;font-size:0.91666em;fill:#000000;" text-anchor="middle" transform="translate(0,0)" y="363" opacity="1">2002</text><text x="229.75" style="color:#000000;cursor:default;font-size:0.91666em;fill:#000000;" text-anchor="middle" transform="translate(0,0)" y="363" opacity="1">2004</text><text x="266.08333333333" style="color:#000000;cursor:default;font-size:0.91666em;fill:#000000;" text-anchor="middle" transform="translate(0,0)" y="363" opacity="1">2006</text><text x="302.41666666667" style="color:#000000;cursor:default;font-size:0.91666em;fill:#000000;" text-anchor="middle" transform="translate(0,0)" y="363" opacity="1">2008</text><text x="338.75" style="color:#000000;cursor:default;font-size:0.91666em;fill:#000000;" text-anchor="middle" transform="translate(0,0)" y="363" opacity="1">2010</text><text x="375.08333333333" style="color:#000000;cursor:default;font-size:0.91666em;fill:#000000;" text-anchor="middle" transform="translate(0,0)" y="363" opacity="1">2012</text><text x="411.41666666667" style="color:#000000;cursor:default;font-size:0.91666em;fill:#000000;" text-anchor="middle" transform="translate(0,0)" y="363" opacity="1">2014</text><text x="447.75" style="color:#000000;cursor:default;font-size:0.91666em;fill:#000000;" text-anchor="middle" transform="translate(0,0)" y="363" opacity="1">2016</text></g><g class="highcharts-axis-labels highcharts-yaxis-labels" data-z-index="7"><text x="24" style="color:#000000;cursor:default;font-size:0.91666em;fill:#000000;" text-anchor="end" transform="translate(0,0)" y="349" opacity="1">0</text><text x="24" style="color:#000000;cursor:default;font-size:0.91666em;fill:#000000;" text-anchor="end" transform="translate(0,0)" y="289" opacity="1">5</text><text x="24" style="color:#000000;cursor:default;font-size:0.91666em;fill:#000000;" text-anchor="end" transform="translate(0,0)" y="229" opacity="1">10</text><text x="24" style="color:#000000;cursor:default;font-size:0.91666em;fill:#000000;" text-anchor="end" transform="translate(0,0)" y="169" opacity="1">15</text><text x="24" style="color:#000000;cursor:default;font-size:0.91666em;fill:#000000;" text-anchor="end" transform="translate(0,0)" y="110" opacity="1">20</text></g><g class="highcharts-axis-labels highcharts-yaxis-labels" data-z-index="7"></g><g class="highcharts-legend" data-z-index="7" transform="translate(27,55)"><rect fill="none" class="highcharts-legend-box" rx="0" ry="0" x="0" y="0" width="383" height="38" visibility="visible"></rect><g data-z-index="1"><g><g class="highcharts-legend-item highcharts-line-series highcharts-color-undefined highcharts-series-0" data-z-index="1" transform="translate(12,7)"><path fill="none" d="M 0 11 L 16 11" class="highcharts-graph" stroke="#FF8028" stroke-width="2"></path><text x="21" style="color:#333333;cursor:pointer;font-size:1em;font-weight:normal;fill:#333333;" text-anchor="start" data-z-index="2" y="15"><tspan>Mittelwert</tspan></text></g><g class="highcharts-legend-item highcharts-arearange-series highcharts-color-undefined highcharts-series-1" data-z-index="1" transform="translate(113.59375,7)"><text x="21" y="15" style="color:#333333;cursor:pointer;font-size:1em;font-weight:normal;fill:#333333;" text-anchor="start" data-z-index="2"><tspan>90% aller Messstellen (5 - 95% Quantil)</tspan></text><rect x="2" y="4" width="12" height="12" fill="#DC440E" class="highcharts-point" data-z-index="3"></rect></g></g></g></g><text x="10" class="highcharts-credits" text-anchor="start" data-z-index="8" style="cursor:default;color:#000000;font-size:0.8333em;fill:#000000;" y="400"><tspan>Quelle: Amt für Umwelt und Energie Basel-Stadt</tspan></text><g class="highcharts-control-points" data-z-index="99" clip-path="url(#highcharts-6fjhyln-106-)"></g></svg>