<svg version="1.1" class="highcharts-root" style="font-family: -apple-system, BlinkMacSystemFont, &quot;Segoe UI&quot;, Roboto, Helvetica, Arial, &quot;Apple Color Emoji&quot;, &quot;Segoe UI Emoji&quot;, &quot;Segoe UI Symbol&quot;, sans-serif; font-size: 1rem;" xmlns="http://www.w3.org/2000/svg" width="600" height="400" viewBox="0 0 600 400" role="img" aria-label="Medikamentenkonsum"><desc>Created with Highcharts 12.5.0</desc><defs><filter id="highcharts-drop-shadow-0"><feDropShadow dx="1" dy="1" flood-color="#000000" flood-opacity="0.75" stdDeviation="2.5"></feDropShadow></filter><clipPath id="highcharts-880gbx4-233-"><rect x="0" y="0" width="549" height="166" fill="none"></rect></clipPath></defs><rect fill="#ffffff" class="highcharts-background" filter="none" x="0" y="0" width="600" height="400" rx="0" ry="0"></rect><rect fill="none" class="highcharts-plot-background" x="41" y="149" width="549" height="166" filter="none"></rect><g class="highcharts-label" transform="translate(10,429)" style="cursor: pointer;"><text x="0" data-z-index="1" y="0">&gt; Indikator-Details</text></g><g class="highcharts-pane-group" data-z-index="0"></g><g class="highcharts-plot-lines-0" data-z-index="0"><path fill="none" class="highcharts-plot-line "></path><path fill="none" class="highcharts-plot-line "></path><path fill="none" class="highcharts-plot-line "></path><path fill="none" class="highcharts-plot-line "></path><path fill="none" class="highcharts-plot-line "></path><path fill="none" class="highcharts-plot-line "></path><path fill="none" class="highcharts-plot-line "></path><path fill="none" class="highcharts-plot-line "></path><path fill="none" class="highcharts-plot-line "></path><path fill="none" class="highcharts-plot-line "></path><path fill="none" class="highcharts-plot-line "></path></g><g class="highcharts-grid highcharts-xaxis-grid" data-z-index="1"><path fill="none" stroke="#e6e6e6" stroke-width="0" stroke-dasharray="none" data-z-index="1" class="highcharts-grid-line" d="M 132.5 149 L 132.5 315" opacity="1"></path><path fill="none" stroke="#e6e6e6" stroke-width="0" stroke-dasharray="none" data-z-index="1" class="highcharts-grid-line" d="M 224.5 149 L 224.5 315" opacity="1"></path><path fill="none" stroke="#e6e6e6" stroke-width="0" stroke-dasharray="none" data-z-index="1" class="highcharts-grid-line" d="M 315.5 149 L 315.5 315" opacity="1"></path><path fill="none" stroke="#e6e6e6" stroke-width="0" stroke-dasharray="none" data-z-index="1" class="highcharts-grid-line" d="M 407.5 149 L 407.5 315" opacity="1"></path><path fill="none" stroke="#e6e6e6" stroke-width="0" stroke-dasharray="none" data-z-index="1" class="highcharts-grid-line" d="M 498.5 149 L 498.5 315" opacity="1"></path><path fill="none" stroke="#e6e6e6" stroke-width="0" stroke-dasharray="none" data-z-index="1" class="highcharts-grid-line" d="M 590.5 149 L 590.5 315" opacity="1"></path><path fill="none" stroke="#e6e6e6" stroke-width="0" stroke-dasharray="none" data-z-index="1" class="highcharts-grid-line" d="M 41.5 149 L 41.5 315" opacity="1"></path></g><g class="highcharts-grid highcharts-yaxis-grid" data-z-index="1"><path fill="none" stroke="#e6e6e6" stroke-width="1" stroke-dasharray="none" data-z-index="1" class="highcharts-grid-line" d="M 41 315.5 L 590 315.5" opacity="1"></path><path fill="none" stroke="#e6e6e6" stroke-width="1" stroke-dasharray="none" data-z-index="1" class="highcharts-grid-line" d="M 41 259.5 L 590 259.5" opacity="1"></path><path fill="none" stroke="#e6e6e6" stroke-width="1" stroke-dasharray="none" data-z-index="1" class="highcharts-grid-line" d="M 41 204.5 L 590 204.5" opacity="1"></path><path fill="none" stroke="#e6e6e6" stroke-width="1" stroke-dasharray="none" data-z-index="1" class="highcharts-grid-line" d="M 41 149.5 L 590 149.5" opacity="1"></path></g><g class="highcharts-grid highcharts-yaxis-grid" data-z-index="1"></g><rect fill="none" class="highcharts-plot-border" data-z-index="1" stroke="#cccccc" stroke-width="0" x="41" y="149" width="549" height="166"></rect><g class="highcharts-axis highcharts-xaxis" data-z-index="2"><path fill="none" class="highcharts-axis-line" stroke="#333333" stroke-width="1" data-z-index="7" d="M 41 315.5 L 590 315.5"></path></g><g class="highcharts-axis highcharts-yaxis" data-z-index="2"><path fill="none" class="highcharts-axis-line" stroke="#333333" stroke-width="0" data-z-index="7" d="M 41 149 L 41 315"></path></g><g class="highcharts-axis highcharts-yaxis" data-z-index="2"><path fill="none" class="highcharts-axis-line" stroke="#333333" stroke-width="0" data-z-index="7" d="M 590 149 L 590 315"></path></g><g class="highcharts-series-group" data-z-index="3" filter="none"><g class="highcharts-series highcharts-series-0 highcharts-column-series highcharts-tracker" data-z-index="0.1" opacity="1" transform="translate(41,149) scale(1 1)" clip-path="url(#highcharts-880gbx4-233-)"><path fill="#FF8028" d="M 207 60 L 223 60 A 3 3 0 0 1 226 63 L 226 166 A 0 0 0 0 1 226 166 L 204 166 A 0 0 0 0 1 204 166 L 204 63 A 3 3 0 0 1 207 60 Z" stroke="#ffffff" stroke-width="0" opacity="1" filter="none" class="highcharts-point"></path><path fill="#FF8028" d="M 390 47 L 406 47 A 3 3 0 0 1 409 50 L 409 166 A 0 0 0 0 1 409 166 L 387 166 A 0 0 0 0 1 387 166 L 387 50 A 3 3 0 0 1 390 47 Z" stroke="#ffffff" stroke-width="0" opacity="1" filter="none" class="highcharts-point"></path></g><g class="highcharts-markers highcharts-series-0 highcharts-column-series" data-z-index="0.1" opacity="1" transform="translate(41,149) scale(1 1)" clip-path="none"></g><g class="highcharts-series highcharts-series-1 highcharts-errorbar-series highcharts-tracker" data-z-index="0.1" opacity="1" transform="translate(41,149) scale(1 1)" clip-path="url(#highcharts-880gbx4-233-)"><g class="highcharts-point"><path fill="none" class="highcharts-boxplot-stem" stroke="#DC440E" stroke-width="1" d="M 398.5 54.890666666667 L 398.5 39.397333333333 M 398.5 54.890666666667 L 398.5 54.890666666667"></path><path fill="none" class="highcharts-boxplot-whisker" stroke="#DC440E" stroke-width="1" d="M 393 39.5 L 404 39.5 M 393 54.5 L 404 54.5"></path><path fill="none" class="highcharts-boxplot-median" stroke="#DC440E" stroke-width="2" d="M 0 0"></path></g></g><g class="highcharts-markers highcharts-series-1 highcharts-errorbar-series" data-z-index="0.1" opacity="1" transform="translate(41,149) scale(1 1)" clip-path="none"></g><g class="highcharts-series highcharts-series-2 highcharts-column-series highcharts-tracker" data-z-index="0.1" opacity="1" transform="translate(41,149) scale(1 1)" clip-path="url(#highcharts-880gbx4-233-)"><path fill="#73B97C" d="M 51 81 L 67 81 A 3 3 0 0 1 70 84 L 70 166 A 0 0 0 0 1 70 166 L 48 166 A 0 0 0 0 1 48 166 L 48 84 A 3 3 0 0 1 51 81 Z" stroke="#ffffff" stroke-width="0" opacity="1" filter="none" class="highcharts-point"></path><path fill="#73B97C" d="M 143 76 L 159 76 A 3 3 0 0 1 162 79 L 162 166 A 0 0 0 0 1 162 166 L 140 166 A 0 0 0 0 1 140 166 L 140 79 A 3 3 0 0 1 143 76 Z" stroke="#ffffff" stroke-width="0" opacity="1" filter="none" class="highcharts-point"></path><path fill="#73B97C" d="M 234 76 L 250 76 A 3 3 0 0 1 253 79 L 253 166 A 0 0 0 0 1 253 166 L 231 166 A 0 0 0 0 1 231 166 L 231 79 A 3 3 0 0 1 234 76 Z" stroke="#ffffff" stroke-width="0" opacity="1" filter="none" class="highcharts-point"></path><path fill="#73B97C" d="M 326 64 L 342 64 A 3 3 0 0 1 345 67 L 345 166 A 0 0 0 0 1 345 166 L 323 166 A 0 0 0 0 1 323 166 L 323 67 A 3 3 0 0 1 326 64 Z" stroke="#ffffff" stroke-width="0" opacity="1" filter="none" class="highcharts-point"></path><path fill="#73B97C" d="M 417 58 L 433 58 A 3 3 0 0 1 436 61 L 436 166 A 0 0 0 0 1 436 166 L 414 166 A 0 0 0 0 1 414 166 L 414 61 A 3 3 0 0 1 417 58 Z" stroke="#ffffff" stroke-width="0" opacity="1" filter="none" class="highcharts-point"></path><path fill="#73B97C" d="M 509 55 L 525 55 A 3 3 0 0 1 528 58 L 528 166 A 0 0 0 0 1 528 166 L 506 166 A 0 0 0 0 1 506 166 L 506 58 A 3 3 0 0 1 509 55 Z" stroke="#ffffff" stroke-width="0" opacity="1" filter="none" class="highcharts-point"></path></g><g class="highcharts-markers highcharts-series-2 highcharts-column-series" data-z-index="0.1" opacity="1" transform="translate(41,149) scale(1 1)" clip-path="none"></g><g class="highcharts-series highcharts-series-3 highcharts-errorbar-series highcharts-tracker" data-z-index="0.1" opacity="1" transform="translate(41,149) scale(1 1)" clip-path="url(#highcharts-880gbx4-233-)"><g class="highcharts-point"><path fill="none" class="highcharts-boxplot-stem" stroke="#68AB2B" stroke-width="1" d="M 59.5 83.221333333333 L 59.5 79.237333333333 M 59.5 83.221333333333 L 59.5 83.221333333333"></path><path fill="none" class="highcharts-boxplot-whisker" stroke="#68AB2B" stroke-width="1" d="M 54 79.5 L 65 79.5 M 54 83.5 L 65 83.5"></path><path fill="none" class="highcharts-boxplot-median" stroke="#68AB2B" stroke-width="2" d="M 0 0"></path></g><g class="highcharts-point"><path fill="none" class="highcharts-boxplot-stem" stroke="#68AB2B" stroke-width="1" d="M 150.5 77.909333333333 L 150.5 73.704 M 150.5 77.909333333333 L 150.5 77.909333333333"></path><path fill="none" class="highcharts-boxplot-whisker" stroke="#68AB2B" stroke-width="1" d="M 145 73.5 L 156 73.5 M 145 77.5 L 156 77.5"></path><path fill="none" class="highcharts-boxplot-median" stroke="#68AB2B" stroke-width="2" d="M 0 0"></path></g><g class="highcharts-point"><path fill="none" class="highcharts-boxplot-stem" stroke="#68AB2B" stroke-width="1" d="M 242.5 77.688 L 242.5 73.925333333333 M 242.5 77.688 L 242.5 77.688"></path><path fill="none" class="highcharts-boxplot-whisker" stroke="#68AB2B" stroke-width="1" d="M 237 73.5 L 248 73.5 M 237 77.5 L 248 77.5"></path><path fill="none" class="highcharts-boxplot-median" stroke="#68AB2B" stroke-width="2" d="M 0 0"></path></g><g class="highcharts-point"><path fill="none" class="highcharts-boxplot-stem" stroke="#68AB2B" stroke-width="1" d="M 333.5 65.514666666667 L 333.5 61.530666666667 M 333.5 65.514666666667 L 333.5 65.514666666667"></path><path fill="none" class="highcharts-boxplot-whisker" stroke="#68AB2B" stroke-width="1" d="M 328 61.5 L 339 61.5 M 328 65.5 L 339 65.5"></path><path fill="none" class="highcharts-boxplot-median" stroke="#68AB2B" stroke-width="2" d="M 0 0"></path></g><g class="highcharts-point"><path fill="none" class="highcharts-boxplot-stem" stroke="#68AB2B" stroke-width="1" d="M 425.5 60.424 L 425.5 56.44 M 425.5 60.424 L 425.5 60.424"></path><path fill="none" class="highcharts-boxplot-whisker" stroke="#68AB2B" stroke-width="1" d="M 420 56.5 L 431 56.5 M 420 60.5 L 431 60.5"></path><path fill="none" class="highcharts-boxplot-median" stroke="#68AB2B" stroke-width="2" d="M 0 0"></path></g><g class="highcharts-point"><path fill="none" class="highcharts-boxplot-stem" stroke="#68AB2B" stroke-width="1" d="M 516.5 56.44 L 516.5 52.898666666667 M 516.5 56.44 L 516.5 56.44"></path><path fill="none" class="highcharts-boxplot-whisker" stroke="#68AB2B" stroke-width="1" d="M 511 52.5 L 522 52.5 M 511 56.5 L 522 56.5"></path><path fill="none" class="highcharts-boxplot-median" stroke="#68AB2B" stroke-width="2" d="M 0 0"></path></g></g><g class="highcharts-markers highcharts-series-3 highcharts-errorbar-series" data-z-index="0.1" opacity="1" transform="translate(41,149) scale(1 1)" clip-path="none"></g></g><text x="10" text-anchor="start" class="highcharts-caption" data-z-index="4" style="font-size: 0.8em; fill: rgb(102, 102, 102);" text-align="left" y="362" transform-origin="10 15" transform="translate(0,0) scale(1 1)"></text><g class="highcharts-axis-labels highcharts-xaxis-labels" data-z-index="7"><text x="86.75" text-anchor="middle" transform="translate(0,0)" style="cursor: default; font-size: 0.91666em; fill: rgb(0, 0, 0);" y="344" opacity="1">1992</text><text x="178.25" text-anchor="middle" transform="translate(0,0)" style="cursor: default; font-size: 0.91666em; fill: rgb(0, 0, 0);" y="344" opacity="1">1997</text><text x="269.75" text-anchor="middle" transform="translate(0,0)" style="cursor: default; font-size: 0.91666em; fill: rgb(0, 0, 0);" y="344" opacity="1">2002</text><text x="361.25" text-anchor="middle" transform="translate(0,0)" style="cursor: default; font-size: 0.91666em; fill: rgb(0, 0, 0);" y="344" opacity="1">2007</text><text x="452.75" text-anchor="middle" transform="translate(0,0)" style="cursor: default; font-size: 0.91666em; fill: rgb(0, 0, 0);" y="344" opacity="1">2012</text><text x="544.25" text-anchor="middle" transform="translate(0,0)" style="cursor: default; font-size: 0.91666em; fill: rgb(0, 0, 0);" y="344" opacity="1">2017</text></g><g class="highcharts-axis-labels highcharts-yaxis-labels" data-z-index="7"><text x="26" text-anchor="end" transform="translate(0,0)" style="cursor: default; font-size: 0.91666em; fill: rgb(0, 0, 0);" y="319" opacity="1">0</text><text x="26" text-anchor="end" transform="translate(0,0)" style="cursor: default; font-size: 0.91666em; fill: rgb(0, 0, 0);" y="264" opacity="1">25</text><text x="26" text-anchor="end" transform="translate(0,0)" style="cursor: default; font-size: 0.91666em; fill: rgb(0, 0, 0);" y="208" opacity="1">50</text><text x="26" text-anchor="end" transform="translate(0,0)" style="cursor: default; font-size: 0.91666em; fill: rgb(0, 0, 0);" y="153" opacity="1">75</text></g><g class="highcharts-axis-labels highcharts-yaxis-labels" data-z-index="7"></g><g class="highcharts-legend highcharts-no-tooltip" data-z-index="7" text-align="left" transform="translate(29,92)"><rect fill="none" class="highcharts-legend-box" rx="0" ry="0" stroke="#999999" stroke-width="0" filter="none" x="0" y="0" width="102" height="45"></rect><g data-z-index="1"><g><g class="highcharts-legend-item highcharts-column-series highcharts-color-undefined highcharts-series-2" data-z-index="1" transform="translate(12,7)"><text x="21" text-anchor="start" data-z-index="2" style="cursor: pointer; font-size: 1em; text-decoration: none; font-weight: normal; fill: rgb(51, 51, 51);" y="21">Schweiz</text><rect x="0" y="6" rx="0" ry="0" width="16" height="16" fill="#73B97C" class="highcharts-point" data-z-index="3"></rect></g></g></g></g></svg>