<?xml version="1.0" standalone="no"?><!DOCTYPE svg PUBLIC "-//W3C//DTD SVG 1.1//EN" "http://www.w3.org/Graphics/SVG/1.1/DTD/svg11.dtd"><svg xmlns:xlink="http://www.w3.org/1999/xlink" version="1.1" class="highcharts-root" style="font-family:&quot;Lucida Grande&quot;, &quot;Lucida Sans Unicode&quot;, Arial, Helvetica, sans-serif;font-size:12px;" xmlns="http://www.w3.org/2000/svg" width="485" height="415"><desc>Created with Highcharts 8.2.2</desc><defs><clipPath id="highcharts-2vpy676-26-"><rect x="0" y="0" width="429" height="317" fill="none"></rect></clipPath><clipPath id="highcharts-2vpy676-45-"><rect x="0" y="0" width="429" height="317" fill="none"></rect></clipPath><clipPath id="highcharts-2vpy676-46-"><rect x="46" y="10" width="429" height="317" fill="none"></rect></clipPath></defs><rect fill="#fbfbfb" class="highcharts-background" x="0" y="0" width="485" height="415" rx="0" ry="0"></rect><rect fill="none" class="highcharts-plot-background" x="46" y="10" width="429" height="317"></rect><g class="highcharts-label" transform="translate(10,449)"><text x="0" data-z-index="1" style="cursor:pointer;" y="0"><tspan>&gt; Indikator-Details</tspan></text></g><g class="highcharts-label" transform="translate(10,449)"><text x="0" data-z-index="1" style="cursor:pointer;" y="0"><tspan>&gt; Indikator-Details</tspan></text></g><g class="highcharts-pane-group" data-z-index="0"></g><g class="highcharts-plot-lines-0" data-z-index="0"><path fill="none" class="highcharts-plot-line "></path><path fill="none" class="highcharts-plot-line "></path><path fill="none" class="highcharts-plot-line "></path><path fill="none" class="highcharts-plot-line "></path><path fill="none" class="highcharts-plot-line "></path><path fill="none" class="highcharts-plot-line "></path><path fill="none" class="highcharts-plot-line "></path><path fill="none" class="highcharts-plot-line "></path><path fill="none" class="highcharts-plot-line "></path><path fill="none" class="highcharts-plot-line "></path><path fill="none" class="highcharts-plot-line "></path></g><g class="highcharts-grid highcharts-xaxis-grid" data-z-index="1"><path fill="none" data-z-index="1" class="highcharts-grid-line" d="M 69.5 10 L 69.5 327" opacity="1"></path><path fill="none" data-z-index="1" class="highcharts-grid-line" d="M 93.5 10 L 93.5 327" opacity="1"></path><path fill="none" data-z-index="1" class="highcharts-grid-line" d="M 117.5 10 L 117.5 327" opacity="1"></path><path fill="none" data-z-index="1" class="highcharts-grid-line" d="M 140.5 10 L 140.5 327" opacity="1"></path><path fill="none" data-z-index="1" class="highcharts-grid-line" d="M 164.5 10 L 164.5 327" opacity="1"></path><path fill="none" data-z-index="1" class="highcharts-grid-line" d="M 188.5 10 L 188.5 327" opacity="1"></path><path fill="none" data-z-index="1" class="highcharts-grid-line" d="M 212.5 10 L 212.5 327" opacity="1"></path><path fill="none" data-z-index="1" class="highcharts-grid-line" d="M 236.5 10 L 236.5 327" opacity="1"></path><path fill="none" data-z-index="1" class="highcharts-grid-line" d="M 260.5 10 L 260.5 327" opacity="1"></path><path fill="none" data-z-index="1" class="highcharts-grid-line" d="M 283.5 10 L 283.5 327" opacity="1"></path><path fill="none" data-z-index="1" class="highcharts-grid-line" d="M 307.5 10 L 307.5 327" opacity="1"></path><path fill="none" data-z-index="1" class="highcharts-grid-line" d="M 331.5 10 L 331.5 327" opacity="1"></path><path fill="none" data-z-index="1" class="highcharts-grid-line" d="M 355.5 10 L 355.5 327" opacity="1"></path><path fill="none" data-z-index="1" class="highcharts-grid-line" d="M 379.5 10 L 379.5 327" opacity="1"></path><path fill="none" data-z-index="1" class="highcharts-grid-line" d="M 403.5 10 L 403.5 327" opacity="1"></path><path fill="none" data-z-index="1" class="highcharts-grid-line" d="M 426.5 10 L 426.5 327" opacity="1"></path><path fill="none" data-z-index="1" class="highcharts-grid-line" d="M 450.5 10 L 450.5 327" opacity="1"></path><path fill="none" data-z-index="1" class="highcharts-grid-line" d="M 474.5 10 L 474.5 327" opacity="1"></path><path fill="none" data-z-index="1" class="highcharts-grid-line" d="M 45.5 10 L 45.5 327" opacity="1"></path></g><g class="highcharts-grid highcharts-yaxis-grid" data-z-index="1"><path fill="none" stroke="#e6e6e6" stroke-width="1" data-z-index="1" class="highcharts-grid-line" d="M 46 327.5 L 475 327.5" opacity="1"></path><path fill="none" stroke="#e6e6e6" stroke-width="1" data-z-index="1" class="highcharts-grid-line" d="M 46 264.5 L 475 264.5" opacity="1"></path><path fill="none" stroke="#e6e6e6" stroke-width="1" data-z-index="1" class="highcharts-grid-line" d="M 46 200.5 L 475 200.5" opacity="1"></path><path fill="none" stroke="#e6e6e6" stroke-width="1" data-z-index="1" class="highcharts-grid-line" d="M 46 137.5 L 475 137.5" opacity="1"></path><path fill="none" stroke="#e6e6e6" stroke-width="1" data-z-index="1" class="highcharts-grid-line" d="M 46 73.5 L 475 73.5" opacity="1"></path><path fill="none" stroke="#e6e6e6" stroke-width="1" data-z-index="1" class="highcharts-grid-line" d="M 46 9.5 L 475 9.5" opacity="1"></path></g><g class="highcharts-grid highcharts-yaxis-grid" data-z-index="1"></g><rect fill="none" class="highcharts-plot-border" data-z-index="1" x="46" y="10" width="429" height="317"></rect><g class="highcharts-axis highcharts-xaxis" data-z-index="2"><path fill="none" class="highcharts-axis-line" stroke="#ccd6eb" stroke-width="1" data-z-index="7" d="M 46 327.5 L 475 327.5"></path></g><g class="highcharts-axis highcharts-yaxis" data-z-index="2"><path fill="none" class="highcharts-axis-line" data-z-index="7" d="M 46 10 L 46 327"></path></g><g class="highcharts-axis highcharts-yaxis" data-z-index="2"><path fill="none" class="highcharts-axis-line" data-z-index="7" d="M 475 10 L 475 327"></path></g><g class="highcharts-series-group" data-z-index="3"><g class="highcharts-series highcharts-series-0 highcharts-column-series" data-z-index="0.1" opacity="1" transform="translate(46,10) scale(1 1)" clip-path="url(#highcharts-2vpy676-45-)"><rect x="6" y="37" width="12" height="281" fill="#FF8028" opacity="1" class="highcharts-point"></rect><rect x="30" y="37" width="12" height="281" fill="#FF8028" opacity="1" class="highcharts-point"></rect><rect x="54" y="29" width="12" height="289" fill="#FF8028" opacity="1" class="highcharts-point"></rect><rect x="78" y="85" width="12" height="233" fill="#FF8028" opacity="1" class="highcharts-point"></rect><rect x="102" y="67" width="12" height="251" fill="#FF8028" opacity="1" class="highcharts-point"></rect><rect x="125" y="85" width="12" height="233" fill="#FF8028" opacity="1" class="highcharts-point"></rect><rect x="149" y="92" width="12" height="226" fill="#FF8028" opacity="1" class="highcharts-point"></rect><rect x="173" y="115" width="12" height="203" fill="#FF8028" opacity="1" class="highcharts-point"></rect><rect x="197" y="146" width="12" height="172" fill="#FF8028" opacity="1" class="highcharts-point"></rect><rect x="221" y="153" width="12" height="165" fill="#FF8028" opacity="1" class="highcharts-point"></rect><rect x="245" y="156" width="12" height="162" fill="#FF8028" opacity="1" class="highcharts-point"></rect><rect x="268" y="156" width="12" height="162" fill="#FF8028" opacity="1" class="highcharts-point"></rect><rect x="292" y="171" width="12" height="147" fill="#FF8028" opacity="1" class="highcharts-point"></rect><rect x="316" y="173" width="12" height="145" fill="#FF8028" opacity="1" class="highcharts-point"></rect><rect x="340" y="173" width="12" height="145" fill="#FF8028" opacity="1" class="highcharts-point"></rect><rect x="364" y="181" width="12" height="137" fill="#FF8028" opacity="1" class="highcharts-point"></rect><rect x="388" y="186" width="12" height="132" fill="#FF8028" opacity="1" class="highcharts-point"></rect><rect x="411" y="186" width="12" height="132" fill="#FF8028" opacity="1" class="highcharts-point"></rect></g><g class="highcharts-markers highcharts-series-0 highcharts-column-series" data-z-index="0.1" opacity="1" transform="translate(46,10) scale(1 1)" clip-path="none"></g></g><text x="10" text-anchor="start" class="highcharts-caption" data-z-index="4" style="color:#666666;fill:#666666;" y="377"></text><g class="highcharts-axis-labels highcharts-xaxis-labels" data-z-index="7"><text x="60.74509379141252" style="color:#000000;cursor:default;font-size:0.91666em;fill:#000000;" text-anchor="end" transform="translate(0,0) rotate(-45 60.74509379141252 343)" y="343" opacity="1">2007</text><text x="84.57842712474651" style="color:#000000;cursor:default;font-size:0.91666em;fill:#000000;" text-anchor="end" transform="translate(0,0) rotate(-45 84.57842712474651 343)" y="343" opacity="1">2008</text><text x="108.41176045807951" style="color:#000000;cursor:default;font-size:0.91666em;fill:#000000;" text-anchor="end" transform="translate(0,0) rotate(-45 108.41176045807951 343)" y="343" opacity="1">2009</text><text x="132.24509379140952" style="color:#000000;cursor:default;font-size:0.91666em;fill:#000000;" text-anchor="end" transform="translate(0,0) rotate(-45 132.24509379140952 343)" y="343" opacity="1">2010</text><text x="156.07842712474954" style="color:#000000;cursor:default;font-size:0.91666em;fill:#000000;" text-anchor="end" transform="translate(0,0) rotate(-45 156.07842712474954 343)" y="343" opacity="1">2011</text><text x="179.91176045807953" style="color:#000000;cursor:default;font-size:0.91666em;fill:#000000;" text-anchor="end" transform="translate(0,0) rotate(-45 179.91176045807953 343)" y="343" opacity="1">2012</text><text x="203.74509379140952" style="color:#000000;cursor:default;font-size:0.91666em;fill:#000000;" text-anchor="end" transform="translate(0,0) rotate(-45 203.74509379140952 343)" y="343" opacity="1">2013</text><text x="227.57842712474954" style="color:#000000;cursor:default;font-size:0.91666em;fill:#000000;" text-anchor="end" transform="translate(0,0) rotate(-45 227.57842712474954 343)" y="343" opacity="1">2014</text><text x="251.41176045807956" style="color:#000000;cursor:default;font-size:0.91666em;fill:#000000;" text-anchor="end" transform="translate(0,0) rotate(-45 251.41176045807956 343)" y="343" opacity="1">2015</text><text x="275.24509379140954" style="color:#000000;cursor:default;font-size:0.91666em;fill:#000000;" text-anchor="end" transform="translate(0,0) rotate(-45 275.24509379140954 343)" y="343" opacity="1">2016</text><text x="299.0784271247495" style="color:#000000;cursor:default;font-size:0.91666em;fill:#000000;" text-anchor="end" transform="translate(0,0) rotate(-45 299.0784271247495 343)" y="343" opacity="1">2017</text><text x="322.9117604580795" style="color:#000000;cursor:default;font-size:0.91666em;fill:#000000;" text-anchor="end" transform="translate(0,0) rotate(-45 322.9117604580795 343)" y="343" opacity="1">2018</text><text x="346.74509379140954" style="color:#000000;cursor:default;font-size:0.91666em;fill:#000000;" text-anchor="end" transform="translate(0,0) rotate(-45 346.74509379140954 343)" y="343" opacity="1">2019</text><text x="370.5784271247495" style="color:#000000;cursor:default;font-size:0.91666em;fill:#000000;" text-anchor="end" transform="translate(0,0) rotate(-45 370.5784271247495 343)" y="343" opacity="1">2020</text><text x="394.4117604580795" style="color:#000000;cursor:default;font-size:0.91666em;fill:#000000;" text-anchor="end" transform="translate(0,0) rotate(-45 394.4117604580795 343)" y="343" opacity="1">2021</text><text x="418.24509379140954" style="color:#000000;cursor:default;font-size:0.91666em;fill:#000000;" text-anchor="end" transform="translate(0,0) rotate(-45 418.24509379140954 343)" y="343" opacity="1">2022</text><text x="442.0784271247495" style="color:#000000;cursor:default;font-size:0.91666em;fill:#000000;" text-anchor="end" transform="translate(0,0) rotate(-45 442.0784271247495 343)" y="343" opacity="1">2023</text><text x="465.9117604580795" style="color:#000000;cursor:default;font-size:0.91666em;fill:#000000;" text-anchor="end" transform="translate(0,0) rotate(-45 465.9117604580795 343)" y="343" opacity="1">2024</text></g><g class="highcharts-axis-labels highcharts-yaxis-labels" data-z-index="7"><text x="31" style="color:#000000;cursor:default;font-size:0.91666em;fill:#000000;" text-anchor="end" transform="translate(0,0)" y="331" opacity="1">0</text><text x="31" style="color:#000000;cursor:default;font-size:0.91666em;fill:#000000;" text-anchor="end" transform="translate(0,0)" y="267" opacity="1">25</text><text x="31" style="color:#000000;cursor:default;font-size:0.91666em;fill:#000000;" text-anchor="end" transform="translate(0,0)" y="204" opacity="1">50</text><text x="31" style="color:#000000;cursor:default;font-size:0.91666em;fill:#000000;" text-anchor="end" transform="translate(0,0)" y="140" opacity="1">75</text><text x="31" style="color:#000000;cursor:default;font-size:0.91666em;fill:#000000;" text-anchor="end" transform="translate(0,0)" y="77" opacity="1">100</text><text x="31" style="color:#000000;cursor:default;font-size:0.91666em;fill:#000000;" text-anchor="end" transform="translate(0,0)" y="14" opacity="1">125</text></g><g class="highcharts-axis-labels highcharts-yaxis-labels" data-z-index="7"></g><g class="highcharts-legend" data-z-index="7"><rect fill="none" class="highcharts-legend-box" rx="0" ry="0" x="0" y="0" width="12" height="12" visibility="hidden"></rect><g data-z-index="1"><g></g></g></g><text x="10" class="highcharts-credits" text-anchor="start" data-z-index="8" style="cursor:default;color:#000000;font-size:0.8333em;fill:#000000;" y="400"><tspan>Quelle: Kantonales Laboratorium Basel-Stadt</tspan></text></svg>