<?xml version="1.0" standalone="no"?><!DOCTYPE svg PUBLIC "-//W3C//DTD SVG 1.1//EN" "http://www.w3.org/Graphics/SVG/1.1/DTD/svg11.dtd"><svg xmlns:xlink="http://www.w3.org/1999/xlink" version="1.1" class="highcharts-root" style="font-family:&quot;Lucida Grande&quot;, &quot;Lucida Sans Unicode&quot;, Arial, Helvetica, sans-serif;font-size:12px;" xmlns="http://www.w3.org/2000/svg" viewBox="0 0 485 415"><desc>Created with Highstock 6.1.1</desc><defs><clipPath id="highcharts-taiy0u0-7"><rect x="0" y="0" width="433" height="232" fill="none"></rect></clipPath><clipPath id="highcharts-taiy0u0-8"><rect x="0" y="0" width="433" height="232" fill="none"></rect></clipPath></defs><rect fill="#fbfbfb" class="highcharts-background" x="0" y="0" width="485" height="415" rx="0" ry="0"></rect><rect fill="none" class="highcharts-plot-background" x="42" y="110" width="433" height="232"></rect><g class="highcharts-label" style="cursor:pointer;" transform="translate(10,449)"><text x="0" data-z-index="1" y="0"><tspan>&gt; Indikator-Details</tspan></text></g><g class="highcharts-label" style="cursor:pointer;" transform="translate(10,449)"><text x="0" data-z-index="1" y="0"><tspan>&gt; Indikator-Details</tspan></text></g><g class="highcharts-pane-group" data-z-index="0"></g><g class="highcharts-grid highcharts-xaxis-grid " data-z-index="1"><path fill="none" data-z-index="1" class="highcharts-grid-line" d="M 89.5 110 L 89.5 342" opacity="1"></path><path fill="none" data-z-index="1" class="highcharts-grid-line" d="M 137.5 110 L 137.5 342" opacity="1"></path><path fill="none" data-z-index="1" class="highcharts-grid-line" d="M 185.5 110 L 185.5 342" opacity="1"></path><path fill="none" data-z-index="1" class="highcharts-grid-line" d="M 233.5 110 L 233.5 342" opacity="1"></path><path fill="none" data-z-index="1" class="highcharts-grid-line" d="M 282.5 110 L 282.5 342" opacity="1"></path><path fill="none" data-z-index="1" class="highcharts-grid-line" d="M 330.5 110 L 330.5 342" opacity="1"></path><path fill="none" data-z-index="1" class="highcharts-grid-line" d="M 378.5 110 L 378.5 342" opacity="1"></path><path fill="none" data-z-index="1" class="highcharts-grid-line" d="M 426.5 110 L 426.5 342" opacity="1"></path><path fill="none" data-z-index="1" class="highcharts-grid-line" d="M 474.5 110 L 474.5 342" opacity="1"></path><path fill="none" data-z-index="1" class="highcharts-grid-line" d="M 41.5 110 L 41.5 342" opacity="1"></path></g><g class="highcharts-grid highcharts-yaxis-grid " data-z-index="1"><path fill="none" stroke="#e6e6e6" stroke-width="1" data-z-index="1" class="highcharts-grid-line" d="M 42 342.5 L 475 342.5" opacity="1"></path><path fill="none" stroke="#e6e6e6" stroke-width="1" data-z-index="1" class="highcharts-grid-line" d="M 42 284.5 L 475 284.5" opacity="1"></path><path fill="none" stroke="#e6e6e6" stroke-width="1" data-z-index="1" class="highcharts-grid-line" d="M 42 226.5 L 475 226.5" opacity="1"></path><path fill="none" stroke="#e6e6e6" stroke-width="1" data-z-index="1" class="highcharts-grid-line" d="M 42 168.5 L 475 168.5" opacity="1"></path><path fill="none" stroke="#e6e6e6" stroke-width="1" data-z-index="1" class="highcharts-grid-line" d="M 42 109.5 L 475 109.5" opacity="1"></path></g><g class="highcharts-grid highcharts-yaxis-grid " data-z-index="1"></g><rect fill="none" class="highcharts-plot-border" data-z-index="1" x="42" y="110" width="433" height="232"></rect><g class="highcharts-axis highcharts-xaxis " data-z-index="2"><path fill="none" class="highcharts-axis-line" stroke="#ccd6eb" stroke-width="1" data-z-index="7" d="M 42 342.5 L 475 342.5"></path></g><g class="highcharts-axis highcharts-yaxis " data-z-index="2"><path fill="none" class="highcharts-axis-line" data-z-index="7" d="M 42 110 L 42 342"></path></g><g class="highcharts-axis highcharts-yaxis " data-z-index="2"><path fill="none" class="highcharts-axis-line" data-z-index="7" d="M 475 110 L 475 342"></path></g><g class="highcharts-series-group" data-z-index="3"><g data-z-index="0.1" class="highcharts-series highcharts-series-0 highcharts-column-series " transform="translate(42,110) scale(1 1)" clip-path="url(#highcharts-taiy0u0-8)"><rect x="13" y="204" width="24" height="18" fill="#FF8028" class="highcharts-point"></rect><rect x="61" y="162" width="24" height="34" fill="#FF8028" class="highcharts-point"></rect><rect x="109" y="136" width="24" height="40" fill="#FF8028" class="highcharts-point"></rect><rect x="157" y="114" width="24" height="54" fill="#FF8028" class="highcharts-point"></rect><rect x="205" y="114" width="24" height="54" fill="#FF8028" class="highcharts-point"></rect><rect x="253" y="59" width="24" height="82" fill="#FF8028" class="highcharts-point"></rect><rect x="301" y="54" width="24" height="83" fill="#FF8028" class="highcharts-point"></rect><rect x="349" y="38" width="24" height="87" fill="#FF8028" class="highcharts-point"></rect><rect x="397" y="29" width="24" height="91" fill="#FF8028" class="highcharts-point"></rect></g><g data-z-index="0.1" class="highcharts-markers highcharts-series-0 highcharts-column-series " transform="translate(42,110) scale(1 1)" clip-path="none"></g><g data-z-index="0.1" class="highcharts-series highcharts-series-1 highcharts-column-series " transform="translate(42,110) scale(1 1)" clip-path="url(#highcharts-taiy0u0-8)"><rect x="13" y="222" width="24" height="11" fill="#DC440E" class="highcharts-point"></rect><rect x="61" y="196" width="24" height="37" fill="#DC440E" class="highcharts-point"></rect><rect x="109" y="176" width="24" height="57" fill="#DC440E" class="highcharts-point"></rect><rect x="157" y="168" width="24" height="65" fill="#DC440E" class="highcharts-point"></rect><rect x="205" y="168" width="24" height="65" fill="#DC440E" class="highcharts-point"></rect><rect x="253" y="141" width="24" height="92" fill="#DC440E" class="highcharts-point"></rect><rect x="301" y="137" width="24" height="96" fill="#DC440E" class="highcharts-point"></rect><rect x="349" y="125" width="24" height="108" fill="#DC440E" class="highcharts-point"></rect><rect x="397" y="120" width="24" height="113" fill="#DC440E" class="highcharts-point"></rect></g><g data-z-index="0.1" class="highcharts-markers highcharts-series-1 highcharts-column-series " transform="translate(42,110) scale(1 1)" clip-path="none"></g></g><text x="10" text-anchor="start" class="highcharts-title" data-z-index="4" style="color:#000000;font-size:1.1666em;font-weight:bold;fill:#000000;" y="21"><tspan>Waldrandpflege</tspan></text><text x="10" text-anchor="start" class="highcharts-subtitle" data-z-index="4" style="color:#000000;font-size:1em;fill:#000000;" y="41"><tspan>Kilometer, Basel-Stadt</tspan></text><g class="highcharts-axis-labels highcharts-xaxis-labels " data-z-index="7"><text x="66.05555555555544" style="color:#000000;cursor:default;font-size:0.91666em;fill:#000000;" text-anchor="middle" transform="translate(0,0)" y="361" opacity="1">2008</text><text x="114.16666666666445" style="color:#000000;cursor:default;font-size:0.91666em;fill:#000000;" text-anchor="middle" transform="translate(0,0)" y="361" opacity="1">2009</text><text x="162.27777777777442" style="color:#000000;cursor:default;font-size:0.91666em;fill:#000000;" text-anchor="middle" transform="translate(0,0)" y="361" opacity="1">2010</text><text x="210.38888888888442" style="color:#000000;cursor:default;font-size:0.91666em;fill:#000000;" text-anchor="middle" transform="translate(0,0)" y="361" opacity="1">2011</text><text x="258.50000000000443" style="color:#000000;cursor:default;font-size:0.91666em;fill:#000000;" text-anchor="middle" transform="translate(0,0)" y="361" opacity="1">2012</text><text x="306.61111111111444" style="color:#000000;cursor:default;font-size:0.91666em;fill:#000000;" text-anchor="middle" transform="translate(0,0)" y="361" opacity="1">2013</text><text x="354.72222222222445" style="color:#000000;cursor:default;font-size:0.91666em;fill:#000000;" text-anchor="middle" transform="translate(0,0)" y="361" opacity="1">2014</text><text x="402.83333333333445" style="color:#000000;cursor:default;font-size:0.91666em;fill:#000000;" text-anchor="middle" transform="translate(0,0)" y="361" opacity="1">2015</text><text x="450.94444444444446" style="color:#000000;cursor:default;font-size:0.91666em;fill:#000000;" text-anchor="middle" transform="translate(0,0)" y="361" opacity="1">2016</text></g><g class="highcharts-axis-labels highcharts-yaxis-labels " data-z-index="7"><text x="27" style="color:#000000;cursor:default;font-size:0.91666em;fill:#000000;" text-anchor="end" transform="translate(0,0)" y="346" opacity="1">0</text><text x="27" style="color:#000000;cursor:default;font-size:0.91666em;fill:#000000;" text-anchor="end" transform="translate(0,0)" y="288" opacity="1">0.5</text><text x="27" style="color:#000000;cursor:default;font-size:0.91666em;fill:#000000;" text-anchor="end" transform="translate(0,0)" y="230" opacity="1">1</text><text x="27" style="color:#000000;cursor:default;font-size:0.91666em;fill:#000000;" text-anchor="end" transform="translate(0,0)" y="172" opacity="1">1.5</text><text x="27" style="color:#000000;cursor:default;font-size:0.91666em;fill:#000000;" text-anchor="end" transform="translate(0,0)" y="114" opacity="1">2</text></g><g class="highcharts-axis-labels highcharts-yaxis-labels " data-z-index="7"></g><g class="highcharts-legend" data-z-index="7" transform="translate(30,58)"><rect fill="none" class="highcharts-legend-box" rx="0" ry="0" x="0" y="0" width="213" height="40" visibility="visible"></rect><g data-z-index="1"><g><g class="highcharts-legend-item highcharts-column-series highcharts-color-undefined highcharts-series-0" data-z-index="1" transform="translate(12,7)"><text x="21" y="15" style="color:#333333;font-size:1em;font-weight:normal;cursor:pointer;fill:#333333;" text-anchor="start" data-z-index="2"><tspan>Ersteingriff</tspan></text><rect x="2" y="4" width="12" height="12" fill="#FF8028" class="highcharts-point" data-z-index="3"></rect></g><g class="highcharts-legend-item highcharts-column-series highcharts-color-undefined highcharts-series-1" data-z-index="1" transform="translate(115,7)"><text x="21" y="15" style="color:#333333;font-size:1em;font-weight:normal;cursor:pointer;fill:#333333;" text-anchor="start" data-z-index="2"><tspan>Nachpflege</tspan></text><rect x="2" y="4" width="12" height="12" fill="#DC440E" class="highcharts-point" data-z-index="3"></rect></g></g></g></g><text x="10" class="highcharts-credits" text-anchor="start" data-z-index="8" style="cursor:default;color:#000000;font-size:0.8333em;fill:#000000;" y="400"><tspan>Quelle: Amt für Wald beider Basel</tspan></text></svg>