<svg version="1.1" class="highcharts-root" style="font-family: -apple-system, BlinkMacSystemFont, &quot;Segoe UI&quot;, Roboto, Helvetica, Arial, &quot;Apple Color Emoji&quot;, &quot;Segoe UI Emoji&quot;, &quot;Segoe UI Symbol&quot;, sans-serif; font-size: 1rem;" xmlns="http://www.w3.org/2000/svg" viewBox="0 0 485 415"><desc>Created with Highcharts 12.5.0</desc><defs><filter id="highcharts-drop-shadow-0"><feDropShadow dx="1" dy="1" flood-color="#000000" flood-opacity="0.75" stdDeviation="2.5"></feDropShadow></filter><clipPath id="highcharts-0rtuo53-45-"><rect x="0" y="0" width="557" height="244" fill="none"></rect></clipPath></defs><rect fill="#ffffff" class="highcharts-background" filter="none" x="0" y="0" width="600" height="400" rx="0" ry="0"></rect><rect fill="none" class="highcharts-plot-background" x="33" y="71" width="557" height="244" filter="none"></rect><g class="highcharts-label" transform="translate(457,370)" style="cursor: pointer;"><text x="132.6875" data-z-index="1" y="0" text-anchor="end">&gt; Indikator-Details</text></g><g class="highcharts-pane-group" data-z-index="0"></g><g class="highcharts-plot-lines-0" data-z-index="0"><path fill="none" class="highcharts-plot-line "></path><path fill="none" class="highcharts-plot-line "></path><path fill="none" class="highcharts-plot-line "></path><path fill="none" class="highcharts-plot-line "></path><path fill="none" class="highcharts-plot-line "></path><path fill="none" class="highcharts-plot-line "></path><path fill="none" class="highcharts-plot-line "></path><path fill="none" class="highcharts-plot-line "></path><path fill="none" class="highcharts-plot-line "></path><path fill="none" class="highcharts-plot-line "></path><path fill="none" class="highcharts-plot-line "></path></g><g class="highcharts-grid highcharts-xaxis-grid" data-z-index="1"><path fill="none" stroke="#e6e6e6" stroke-width="0" stroke-dasharray="none" data-z-index="1" class="highcharts-grid-line" d="M 70.5 71 L 70.5 315" opacity="1"></path><path fill="none" stroke="#e6e6e6" stroke-width="0" stroke-dasharray="none" data-z-index="1" class="highcharts-grid-line" d="M 107.5 71 L 107.5 315" opacity="1"></path><path fill="none" stroke="#e6e6e6" stroke-width="0" stroke-dasharray="none" data-z-index="1" class="highcharts-grid-line" d="M 144.5 71 L 144.5 315" opacity="1"></path><path fill="none" stroke="#e6e6e6" stroke-width="0" stroke-dasharray="none" data-z-index="1" class="highcharts-grid-line" d="M 181.5 71 L 181.5 315" opacity="1"></path><path fill="none" stroke="#e6e6e6" stroke-width="0" stroke-dasharray="none" data-z-index="1" class="highcharts-grid-line" d="M 218.5 71 L 218.5 315" opacity="1"></path><path fill="none" stroke="#e6e6e6" stroke-width="0" stroke-dasharray="none" data-z-index="1" class="highcharts-grid-line" d="M 255.5 71 L 255.5 315" opacity="1"></path><path fill="none" stroke="#e6e6e6" stroke-width="0" stroke-dasharray="none" data-z-index="1" class="highcharts-grid-line" d="M 292.5 71 L 292.5 315" opacity="1"></path><path fill="none" stroke="#e6e6e6" stroke-width="0" stroke-dasharray="none" data-z-index="1" class="highcharts-grid-line" d="M 330.5 71 L 330.5 315" opacity="1"></path><path fill="none" stroke="#e6e6e6" stroke-width="0" stroke-dasharray="none" data-z-index="1" class="highcharts-grid-line" d="M 367.5 71 L 367.5 315" opacity="1"></path><path fill="none" stroke="#e6e6e6" stroke-width="0" stroke-dasharray="none" data-z-index="1" class="highcharts-grid-line" d="M 404.5 71 L 404.5 315" opacity="1"></path><path fill="none" stroke="#e6e6e6" stroke-width="0" stroke-dasharray="none" data-z-index="1" class="highcharts-grid-line" d="M 441.5 71 L 441.5 315" opacity="1"></path><path fill="none" stroke="#e6e6e6" stroke-width="0" stroke-dasharray="none" data-z-index="1" class="highcharts-grid-line" d="M 478.5 71 L 478.5 315" opacity="1"></path><path fill="none" stroke="#e6e6e6" stroke-width="0" stroke-dasharray="none" data-z-index="1" class="highcharts-grid-line" d="M 515.5 71 L 515.5 315" opacity="1"></path><path fill="none" stroke="#e6e6e6" stroke-width="0" stroke-dasharray="none" data-z-index="1" class="highcharts-grid-line" d="M 552.5 71 L 552.5 315" opacity="1"></path><path fill="none" stroke="#e6e6e6" stroke-width="0" stroke-dasharray="none" data-z-index="1" class="highcharts-grid-line" d="M 590.5 71 L 590.5 315" opacity="1"></path><path fill="none" stroke="#e6e6e6" stroke-width="0" stroke-dasharray="none" data-z-index="1" class="highcharts-grid-line" d="M 33.5 71 L 33.5 315" opacity="1"></path></g><g class="highcharts-grid highcharts-yaxis-grid" data-z-index="1"><path fill="none" stroke="#e6e6e6" stroke-width="1" stroke-dasharray="none" data-z-index="1" class="highcharts-grid-line" d="M 33 315.5 L 590 315.5" opacity="1"></path><path fill="none" stroke="#e6e6e6" stroke-width="1" stroke-dasharray="none" data-z-index="1" class="highcharts-grid-line" d="M 33 266.5 L 590 266.5" opacity="1"></path><path fill="none" stroke="#e6e6e6" stroke-width="1" stroke-dasharray="none" data-z-index="1" class="highcharts-grid-line" d="M 33 217.5 L 590 217.5" opacity="1"></path><path fill="none" stroke="#e6e6e6" stroke-width="1" stroke-dasharray="none" data-z-index="1" class="highcharts-grid-line" d="M 33 168.5 L 590 168.5" opacity="1"></path><path fill="none" stroke="#e6e6e6" stroke-width="1" stroke-dasharray="none" data-z-index="1" class="highcharts-grid-line" d="M 33 119.5 L 590 119.5" opacity="1"></path><path fill="none" stroke="#e6e6e6" stroke-width="1" stroke-dasharray="none" data-z-index="1" class="highcharts-grid-line" d="M 33 71.5 L 590 71.5" opacity="1"></path></g><g class="highcharts-grid highcharts-yaxis-grid" data-z-index="1"></g><rect fill="none" class="highcharts-plot-border" data-z-index="1" stroke="#cccccc" stroke-width="0" x="33" y="71" width="557" height="244"></rect><g class="highcharts-axis highcharts-xaxis" data-z-index="2"><path fill="none" class="highcharts-axis-line" stroke="#333333" stroke-width="1" data-z-index="7" d="M 33 315.5 L 590 315.5"></path></g><g class="highcharts-axis highcharts-yaxis" data-z-index="2"><path fill="none" class="highcharts-axis-line" stroke="#333333" stroke-width="0" data-z-index="7" d="M 33 71 L 33 315"></path></g><g class="highcharts-axis highcharts-yaxis" data-z-index="2"><path fill="none" class="highcharts-axis-line" stroke="#333333" stroke-width="0" data-z-index="7" d="M 590 71 L 590 315"></path></g><g class="highcharts-series-group" data-z-index="3" filter="none"><g class="highcharts-series highcharts-series-0 highcharts-column-series highcharts-tracker" data-z-index="0.1" opacity="1" transform="translate(33,71) scale(1 1)" clip-path="url(#highcharts-0rtuo53-45-)"><path fill="#FF8028" d="M 13 239 L 25 239 A 3 3 0 0 1 28 242 L 28 244 A 0 0 0 0 1 28 244 L 10 244 A 0 0 0 0 1 10 244 L 10 242 A 3 3 0 0 1 13 239 Z" stroke="#ffffff" stroke-width="0" opacity="1" filter="none" class="highcharts-point"></path><path fill="#FF8028" d="M 50 239 L 62 239 A 3 3 0 0 1 65 242 L 65 244 A 0 0 0 0 1 65 244 L 47 244 A 0 0 0 0 1 47 244 L 47 242 A 3 3 0 0 1 50 239 Z" stroke="#ffffff" stroke-width="0" opacity="1" filter="none" class="highcharts-point"></path><path fill="#FF8028" d="M 87 239 L 99 239 A 3 3 0 0 1 102 242 L 102 244 A 0 0 0 0 1 102 244 L 84 244 A 0 0 0 0 1 84 244 L 84 242 A 3 3 0 0 1 87 239 Z" stroke="#ffffff" stroke-width="0" opacity="1" filter="none" class="highcharts-point"></path><path fill="#FF8028" d="M 124 239 L 136 239 A 3 3 0 0 1 139 242 L 139 244 A 0 0 0 0 1 139 244 L 121 244 A 0 0 0 0 1 121 244 L 121 242 A 3 3 0 0 1 124 239 Z" stroke="#ffffff" stroke-width="0" opacity="1" filter="none" class="highcharts-point"></path><path fill="#FF8028" d="M 161 239 L 173 239 A 3 3 0 0 1 176 242 L 176 244 A 0 0 0 0 1 176 244 L 158 244 A 0 0 0 0 1 158 244 L 158 242 A 3 3 0 0 1 161 239 Z" stroke="#ffffff" stroke-width="0" opacity="1" filter="none" class="highcharts-point"></path><path fill="#FF8028" d="M 198 239 L 210 239 A 3 3 0 0 1 213 242 L 213 244 A 0 0 0 0 1 213 244 L 195 244 A 0 0 0 0 1 195 244 L 195 242 A 3 3 0 0 1 198 239 Z" stroke="#ffffff" stroke-width="0" opacity="1" filter="none" class="highcharts-point"></path><path fill="#FF8028" d="M 235 239 L 247 239 A 3 3 0 0 1 250 242 L 250 244 A 0 0 0 0 1 250 244 L 232 244 A 0 0 0 0 1 232 244 L 232 242 A 3 3 0 0 1 235 239 Z" stroke="#ffffff" stroke-width="0" opacity="1" filter="none" class="highcharts-point"></path><path fill="#FF8028" d="M 273 239 L 285 239 A 3 3 0 0 1 288 242 L 288 244 A 0 0 0 0 1 288 244 L 270 244 A 0 0 0 0 1 270 244 L 270 242 A 3 3 0 0 1 273 239 Z" stroke="#ffffff" stroke-width="0" opacity="1" filter="none" class="highcharts-point"></path><path fill="#FF8028" d="M 310 239 L 322 239 A 3 3 0 0 1 325 242 L 325 244 A 0 0 0 0 1 325 244 L 307 244 A 0 0 0 0 1 307 244 L 307 242 A 3 3 0 0 1 310 239 Z" stroke="#ffffff" stroke-width="0" opacity="1" filter="none" class="highcharts-point"></path><path fill="#FF8028" d="M 347 239 L 359 239 A 3 3 0 0 1 362 242 L 362 244 A 0 0 0 0 1 362 244 L 344 244 A 0 0 0 0 1 344 244 L 344 242 A 3 3 0 0 1 347 239 Z" stroke="#ffffff" stroke-width="0" opacity="1" filter="none" class="highcharts-point"></path><path fill="#FF8028" d="M 384 234 L 396 234 A 3 3 0 0 1 399 237 L 399 244 A 0 0 0 0 1 399 244 L 381 244 A 0 0 0 0 1 381 244 L 381 237 A 3 3 0 0 1 384 234 Z" stroke="#ffffff" stroke-width="0" opacity="1" filter="none" class="highcharts-point"></path><path fill="#FF8028" d="M 421 87 L 433 87 A 3 3 0 0 1 436 90 L 436 244 A 0 0 0 0 1 436 244 L 418 244 A 0 0 0 0 1 418 244 L 418 90 A 3 3 0 0 1 421 87 Z" stroke="#ffffff" stroke-width="0" opacity="1" filter="none" class="highcharts-point"></path><path fill="#FF8028" d="M 458 81 L 470 81 A 3 3 0 0 1 473 84 L 473 244 A 0 0 0 0 1 473 244 L 455 244 A 0 0 0 0 1 455 244 L 455 84 A 3 3 0 0 1 458 81 Z" stroke="#ffffff" stroke-width="0" opacity="1" filter="none" class="highcharts-point"></path><path fill="#FF8028" d="M 495 26 L 507 26 A 3 3 0 0 1 510 29 L 510 244 A 0 0 0 0 1 510 244 L 492 244 A 0 0 0 0 1 492 244 L 492 29 A 3 3 0 0 1 495 26 Z" stroke="#ffffff" stroke-width="0" opacity="1" filter="none" class="highcharts-point"></path><path fill="#FF8028" d="M 533 26 L 545 26 A 3 3 0 0 1 548 29 L 548 244 A 0 0 0 0 1 548 244 L 530 244 A 0 0 0 0 1 530 244 L 530 29 A 3 3 0 0 1 533 26 Z" stroke="#ffffff" stroke-width="0" opacity="1" filter="none" class="highcharts-point"></path></g><g class="highcharts-markers highcharts-series-0 highcharts-column-series" data-z-index="0.1" opacity="1" transform="translate(33,71) scale(1 1)" clip-path="none"></g></g><text x="10" text-anchor="start" class="highcharts-caption" data-z-index="4" style="font-size: 0.8em; fill: rgb(102, 102, 102);" text-align="left" y="362" transform-origin="10 15" transform="translate(0,0) scale(1 1)"></text><g class="highcharts-axis-labels highcharts-xaxis-labels" data-z-index="7"><text x="51.566666666666336" text-anchor="middle" transform="translate(0,0)" style="cursor: default; font-size: 0.91666em; fill: rgb(0, 0, 0);" y="344" opacity="1">2010</text><text x="88.70000000000334" text-anchor="middle" transform="translate(0,0)" style="cursor: default; font-size: 0.91666em; fill: rgb(0, 0, 0);" y="344" opacity="1">2011</text><text x="125.83333333333334" text-anchor="middle" transform="translate(0,0)" style="cursor: default; font-size: 0.91666em; fill: rgb(0, 0, 0);" y="344" opacity="1">2012</text><text x="162.96666666666334" text-anchor="middle" transform="translate(0,0)" style="cursor: default; font-size: 0.91666em; fill: rgb(0, 0, 0);" y="344" opacity="1">2013</text><text x="200.10000000000335" text-anchor="middle" transform="translate(0,0)" style="cursor: default; font-size: 0.91666em; fill: rgb(0, 0, 0);" y="344" opacity="1">2014</text><text x="237.23333333333335" text-anchor="middle" transform="translate(0,0)" style="cursor: default; font-size: 0.91666em; fill: rgb(0, 0, 0);" y="344" opacity="1">2015</text><text x="274.3666666666633" text-anchor="middle" transform="translate(0,0)" style="cursor: default; font-size: 0.91666em; fill: rgb(0, 0, 0);" y="344" opacity="1">2016</text><text x="311.50000000000335" text-anchor="middle" transform="translate(0,0)" style="cursor: default; font-size: 0.91666em; fill: rgb(0, 0, 0);" y="344" opacity="1">2017</text><text x="348.6333333333333" text-anchor="middle" transform="translate(0,0)" style="cursor: default; font-size: 0.91666em; fill: rgb(0, 0, 0);" y="344" opacity="1">2018</text><text x="385.76666666666335" text-anchor="middle" transform="translate(0,0)" style="cursor: default; font-size: 0.91666em; fill: rgb(0, 0, 0);" y="344" opacity="1">2019</text><text x="422.90000000000333" text-anchor="middle" transform="translate(0,0)" style="cursor: default; font-size: 0.91666em; fill: rgb(0, 0, 0);" y="344" opacity="1">2020</text><text x="460.03333333333336" text-anchor="middle" transform="translate(0,0)" style="cursor: default; font-size: 0.91666em; fill: rgb(0, 0, 0);" y="344" opacity="1">2021</text><text x="497.1666666666634" text-anchor="middle" transform="translate(0,0)" style="cursor: default; font-size: 0.91666em; fill: rgb(0, 0, 0);" y="344" opacity="1">2022</text><text x="534.3000000000033" text-anchor="middle" transform="translate(0,0)" style="cursor: default; font-size: 0.91666em; fill: rgb(0, 0, 0);" y="344" opacity="1">2023</text><text x="571.4333333333333" text-anchor="middle" transform="translate(0,0)" style="cursor: default; font-size: 0.91666em; fill: rgb(0, 0, 0);" y="344" opacity="1">2024</text></g><g class="highcharts-axis-labels highcharts-yaxis-labels" data-z-index="7"><text x="18" text-anchor="end" transform="translate(0,0)" style="cursor: default; font-size: 0.91666em; fill: rgb(0, 0, 0);" y="319" opacity="1">0</text><text x="18" text-anchor="end" transform="translate(0,0)" style="cursor: default; font-size: 0.91666em; fill: rgb(0, 0, 0);" y="270" opacity="1">1</text><text x="18" text-anchor="end" transform="translate(0,0)" style="cursor: default; font-size: 0.91666em; fill: rgb(0, 0, 0);" y="221" opacity="1">2</text><text x="18" text-anchor="end" transform="translate(0,0)" style="cursor: default; font-size: 0.91666em; fill: rgb(0, 0, 0);" y="173" opacity="1">3</text><text x="18" text-anchor="end" transform="translate(0,0)" style="cursor: default; font-size: 0.91666em; fill: rgb(0, 0, 0);" y="124" opacity="1">4</text><text x="18" text-anchor="end" transform="translate(0,0)" style="cursor: default; font-size: 0.91666em; fill: rgb(0, 0, 0);" y="75" opacity="1">5</text></g><g class="highcharts-axis-labels highcharts-yaxis-labels" data-z-index="7"></g><g class="highcharts-legend highcharts-no-tooltip" data-z-index="7" visibility="hidden"><rect fill="none" class="highcharts-legend-box" rx="0" ry="0" stroke="#999999" stroke-width="0" filter="none" x="0" y="0" width="12" height="12"></rect><g data-z-index="1"><g></g></g></g></svg>