<?xml version="1.0" standalone="no"?><!DOCTYPE svg PUBLIC "-//W3C//DTD SVG 1.1//EN" "http://www.w3.org/Graphics/SVG/1.1/DTD/svg11.dtd"><svg xmlns:xlink="http://www.w3.org/1999/xlink" version="1.1" class="highcharts-root" style="font-family:&quot;Lucida Grande&quot;, &quot;Lucida Sans Unicode&quot;, Arial, Helvetica, sans-serif;font-size:12px;" xmlns="http://www.w3.org/2000/svg" viewBox="0 0 485 415"><desc>Created with Highcharts 8.2.0</desc><defs><clipPath id="highcharts-hj00i21-61-"><rect x="0" y="0" width="384" height="202" fill="none"></rect></clipPath><clipPath id="highcharts-hj00i21-88-"><rect x="0" y="0" width="384" height="202" fill="none"></rect></clipPath><clipPath id="highcharts-hj00i21-115-"><rect x="0" y="0" width="384" height="202" fill="none"></rect></clipPath><clipPath id="highcharts-hj00i21-116-"><rect x="45" y="125" width="384" height="202" fill="none"></rect></clipPath></defs><rect fill="#fbfbfb" class="highcharts-background" x="0" y="0" width="485" height="415" rx="0" ry="0"></rect><rect fill="none" class="highcharts-plot-background" x="45" y="125" width="384" height="202"></rect><g class="highcharts-label" transform="translate(10,449)"><text x="0" data-z-index="1" style="cursor:pointer;" y="0"><tspan>&gt; Indikator-Details</tspan></text></g><g class="highcharts-label" transform="translate(10,449)"><text x="0" data-z-index="1" style="cursor:pointer;" y="0"><tspan>&gt; Indikator-Details</tspan></text></g><g class="highcharts-pane-group" data-z-index="0"></g><g class="highcharts-grid highcharts-xaxis-grid" data-z-index="1"><path fill="none" data-z-index="1" class="highcharts-grid-line" d="M 51.5 125 L 51.5 327" opacity="1"></path><path fill="none" data-z-index="1" class="highcharts-grid-line" d="M 81.5 125 L 81.5 327" opacity="1"></path><path fill="none" data-z-index="1" class="highcharts-grid-line" d="M 110.5 125 L 110.5 327" opacity="1"></path><path fill="none" data-z-index="1" class="highcharts-grid-line" d="M 140.5 125 L 140.5 327" opacity="1"></path><path fill="none" data-z-index="1" class="highcharts-grid-line" d="M 170.5 125 L 170.5 327" opacity="1"></path><path fill="none" data-z-index="1" class="highcharts-grid-line" d="M 199.5 125 L 199.5 327" opacity="1"></path><path fill="none" data-z-index="1" class="highcharts-grid-line" d="M 229.5 125 L 229.5 327" opacity="1"></path><path fill="none" data-z-index="1" class="highcharts-grid-line" d="M 258.5 125 L 258.5 327" opacity="1"></path><path fill="none" data-z-index="1" class="highcharts-grid-line" d="M 288.5 125 L 288.5 327" opacity="1"></path><path fill="none" data-z-index="1" class="highcharts-grid-line" d="M 317.5 125 L 317.5 327" opacity="1"></path><path fill="none" data-z-index="1" class="highcharts-grid-line" d="M 347.5 125 L 347.5 327" opacity="1"></path><path fill="none" data-z-index="1" class="highcharts-grid-line" d="M 376.5 125 L 376.5 327" opacity="1"></path><path fill="none" data-z-index="1" class="highcharts-grid-line" d="M 406.5 125 L 406.5 327" opacity="1"></path></g><g class="highcharts-grid highcharts-yaxis-grid" data-z-index="1"><path fill="none" stroke="#e6e6e6" stroke-width="1" data-z-index="1" class="highcharts-grid-line" d="M 45 327.5 L 429 327.5" opacity="1"></path><path fill="none" stroke="#e6e6e6" stroke-width="1" data-z-index="1" class="highcharts-grid-line" d="M 45 260.5 L 429 260.5" opacity="1"></path><path fill="none" stroke="#e6e6e6" stroke-width="1" data-z-index="1" class="highcharts-grid-line" d="M 45 192.5 L 429 192.5" opacity="1"></path><path fill="none" stroke="#e6e6e6" stroke-width="1" data-z-index="1" class="highcharts-grid-line" d="M 45 124.5 L 429 124.5" opacity="1"></path></g><g class="highcharts-grid highcharts-yaxis-grid" data-z-index="1"><path fill="none" stroke="#e6e6e6" stroke-width="1" data-z-index="1" class="highcharts-grid-line" d="M 45 327.5 L 429 327.5" opacity="1"></path><path fill="none" stroke="#e6e6e6" stroke-width="1" data-z-index="1" class="highcharts-grid-line" d="M 45 260.5 L 429 260.5" opacity="1"></path><path fill="none" stroke="#e6e6e6" stroke-width="1" data-z-index="1" class="highcharts-grid-line" d="M 45 192.5 L 429 192.5" opacity="1"></path><path fill="none" stroke="#e6e6e6" stroke-width="1" data-z-index="1" class="highcharts-grid-line" d="M 45 124.5 L 429 124.5" opacity="1"></path></g><rect fill="none" class="highcharts-plot-border" data-z-index="1" x="45" y="125" width="384" height="202"></rect><g class="highcharts-axis highcharts-xaxis" data-z-index="2"><path fill="none" class="highcharts-axis-line" stroke="#ccd6eb" stroke-width="1" data-z-index="7" d="M 45 327.5 L 429 327.5"></path></g><g class="highcharts-axis highcharts-yaxis" data-z-index="2"><path fill="none" class="highcharts-axis-line" data-z-index="7" d="M 45 125 L 45 327"></path></g><g class="highcharts-axis highcharts-yaxis" data-z-index="2"><text x="475" data-z-index="7" text-anchor="middle" transform="translate(0,0) rotate(90 475 226)" class="highcharts-axis-title" style="color:#000000;font-size:0.91666em;fill:#000000;" y="226"></text><path fill="none" class="highcharts-axis-line" data-z-index="7" d="M 429 125 L 429 327"></path></g><g class="highcharts-series-group" data-z-index="3"><g class="highcharts-series highcharts-series-0 highcharts-column-series" data-z-index="0.1" opacity="1" transform="translate(45,125) scale(1 1)" clip-path="url(#highcharts-hj00i21-88-)"><rect x="4" y="42" width="8" height="161" fill="#FF8028" opacity="1" class="highcharts-point"></rect><rect x="19" y="42" width="8" height="161" fill="#FF8028" opacity="1" class="highcharts-point"></rect><rect x="33" y="43" width="8" height="160" fill="#FF8028" opacity="1" class="highcharts-point"></rect><rect x="48" y="40" width="8" height="163" fill="#FF8028" opacity="1" class="highcharts-point"></rect><rect x="63" y="39" width="8" height="164" fill="#FF8028" opacity="1" class="highcharts-point"></rect><rect x="78" y="38" width="8" height="165" fill="#FF8028" opacity="1" class="highcharts-point"></rect><rect x="92" y="37" width="8" height="166" fill="#FF8028" opacity="1" class="highcharts-point"></rect><rect x="107" y="37" width="8" height="166" fill="#FF8028" opacity="1" class="highcharts-point"></rect><rect x="122" y="37" width="8" height="166" fill="#FF8028" opacity="1" class="highcharts-point"></rect><rect x="137" y="26" width="8" height="177" fill="#FF8028" opacity="1" class="highcharts-point"></rect><rect x="152" y="27" width="8" height="176" fill="#FF8028" opacity="1" class="highcharts-point"></rect><rect x="166" y="28" width="8" height="175" fill="#FF8028" opacity="1" class="highcharts-point"></rect><rect x="181" y="28" width="8" height="175" fill="#FF8028" opacity="1" class="highcharts-point"></rect><rect x="196" y="29" width="8" height="174" fill="#FF8028" opacity="1" class="highcharts-point"></rect><rect x="211" y="29" width="8" height="174" fill="#FF8028" opacity="1" class="highcharts-point"></rect><rect x="225" y="28" width="8" height="175" fill="#FF8028" opacity="1" class="highcharts-point"></rect><rect x="240" y="26" width="8" height="177" fill="#FF8028" opacity="1" class="highcharts-point"></rect><rect x="255" y="23" width="8" height="180" fill="#FF8028" opacity="1" class="highcharts-point"></rect><rect x="270" y="24" width="8" height="179" fill="#FF8028" opacity="1" class="highcharts-point"></rect><rect x="284" y="23" width="8" height="180" fill="#FF8028" opacity="1" class="highcharts-point"></rect><rect x="299" y="23" width="8" height="180" fill="#FF8028" opacity="1" class="highcharts-point"></rect><rect x="314" y="19" width="8" height="184" fill="#FF8028" opacity="1" class="highcharts-point"></rect><rect x="329" y="19" width="8" height="184" fill="#FF8028" opacity="1" class="highcharts-point"></rect><rect x="344" y="21" width="8" height="182" fill="#FF8028" opacity="1" class="highcharts-point"></rect><rect x="358" y="22" width="8" height="181" fill="#FF8028" opacity="1" class="highcharts-point"></rect><rect x="373" y="21" width="8" height="182" fill="#FF8028" opacity="1" class="highcharts-point"></rect></g><g class="highcharts-markers highcharts-series-0 highcharts-column-series" data-z-index="0.1" opacity="1" transform="translate(45,125) scale(1 1)" clip-path="none"></g><g class="highcharts-series highcharts-series-1 highcharts-line-series" data-z-index="0.1" opacity="1" transform="translate(45,125) scale(1 1)" clip-path="url(#highcharts-hj00i21-115-)"><path fill="none" d="M 7.3846153846154 34.283888888888896 L 22.153846153846 34.00333333333336 L 36.923076923077 33.72277777777779 L 51.692307692308 29.96333333333331 L 66.461538461538 27.32611111111109 L 81.230769230769 24.85722222222222 L 96 23.061666666666667 L 110.76923076923 23.791111111111093 L 125.53846153846 25.306111111111136 L 140.30769230769 15.935555555555538 L 155.07692307692 17.11388888888888 L 169.84615384615 18.236111111111114 L 184.61538461538 19.302222222222213 L 199.38461538462 20.873333333333335 L 214.15384615385 22.949444444444424 L 228.92307692308 22.83722222222221 L 243.69230769231 21.99555555555554 L 258.46153846154 19.638888888888886 L 273.23076923077 22.332222222222214 L 288 22.78111111111113 L 302.76923076923 24.352222222222196 L 317.53846153846 22.444444444444457 L 332.30769230769 23.22999999999999 L 347.07692307692 26.65277777777777 L 361.84615384615 28.50444444444446 L 376.61538461538 29.402222222222207" class="highcharts-graph" data-z-index="1" stroke="#DC440E" stroke-width="2" stroke-linejoin="round" stroke-linecap="round"></path></g><g class="highcharts-markers highcharts-series-1 highcharts-line-series" data-z-index="0.1" opacity="1" transform="translate(45,125) scale(1 1)" clip-path="none"></g></g><text x="10" text-anchor="start" class="highcharts-title" data-z-index="4" style="color:#000000;font-size:1.1666em;font-weight:bold;fill:#000000;" y="21"><tspan>Motorfahrzeuge</tspan></text><text x="10" text-anchor="start" class="highcharts-subtitle" data-z-index="4" style="color:#000000;font-size:1em;fill:#000000;" y="41"><tspan>Anzahl Motorfahrzeuge; Anzahl Personenwagen pro 1000 Einwohner,</tspan><tspan dy="15" x="0">Basel-Stadt</tspan></text><text x="10" text-anchor="start" class="highcharts-caption" data-z-index="4" style="color:#666666;fill:#666666;" y="377"></text><g class="highcharts-axis-labels highcharts-xaxis-labels" data-z-index="7"><text x="54.977340248965675" style="color:#000000;cursor:default;font-size:0.91666em;fill:#000000;" text-anchor="end" transform="translate(0,0) rotate(-45 54.977340248965675 343)" y="343" opacity="1">1995</text><text x="84.51580178742768" style="color:#000000;cursor:default;font-size:0.91666em;fill:#000000;" text-anchor="end" transform="translate(0,0) rotate(-45 84.51580178742768 343)" y="343" opacity="1">1997</text><text x="114.05426332589067" style="color:#000000;cursor:default;font-size:0.91666em;fill:#000000;" text-anchor="end" transform="translate(0,0) rotate(-45 114.05426332589067 343)" y="343" opacity="1">1999</text><text x="143.59272486435069" style="color:#000000;cursor:default;font-size:0.91666em;fill:#000000;" text-anchor="end" transform="translate(0,0) rotate(-45 143.59272486435069 343)" y="343" opacity="1">2001</text><text x="173.1311864028107" style="color:#000000;cursor:default;font-size:0.91666em;fill:#000000;" text-anchor="end" transform="translate(0,0) rotate(-45 173.1311864028107 343)" y="343" opacity="1">2003</text><text x="202.66964794127068" style="color:#000000;cursor:default;font-size:0.91666em;fill:#000000;" text-anchor="end" transform="translate(0,0) rotate(-45 202.66964794127068 343)" y="343" opacity="1">2005</text><text x="232.2081094797307" style="color:#000000;cursor:default;font-size:0.91666em;fill:#000000;" text-anchor="end" transform="translate(0,0) rotate(-45 232.2081094797307 343)" y="343" opacity="1">2007</text><text x="261.74657101820065" style="color:#000000;cursor:default;font-size:0.91666em;fill:#000000;" text-anchor="end" transform="translate(0,0) rotate(-45 261.74657101820065 343)" y="343" opacity="1">2009</text><text x="291.28503255666067" style="color:#000000;cursor:default;font-size:0.91666em;fill:#000000;" text-anchor="end" transform="translate(0,0) rotate(-45 291.28503255666067 343)" y="343" opacity="1">2011</text><text x="320.8234940951207" style="color:#000000;cursor:default;font-size:0.91666em;fill:#000000;" text-anchor="end" transform="translate(0,0) rotate(-45 320.8234940951207 343)" y="343" opacity="1">2013</text><text x="350.36195563358064" style="color:#000000;cursor:default;font-size:0.91666em;fill:#000000;" text-anchor="end" transform="translate(0,0) rotate(-45 350.36195563358064 343)" y="343" opacity="1">2015</text><text x="379.90041717204065" style="color:#000000;cursor:default;font-size:0.91666em;fill:#000000;" text-anchor="end" transform="translate(0,0) rotate(-45 379.90041717204065 343)" y="343" opacity="1">2017</text><text x="409.43887871050066" style="color:#000000;cursor:default;font-size:0.91666em;fill:#000000;" text-anchor="end" transform="translate(0,0) rotate(-45 409.43887871050066 343)" y="343" opacity="1">2019</text></g><g class="highcharts-axis-labels highcharts-yaxis-labels" data-z-index="7"><text x="30" style="color:#000000;cursor:default;font-size:0.91666em;fill:#000000;" text-anchor="end" transform="translate(0,0)" y="331" opacity="1">0</text><text x="30" style="color:#000000;cursor:default;font-size:0.91666em;fill:#000000;" text-anchor="end" transform="translate(0,0)" y="263" opacity="1">30k</text><text x="30" style="color:#000000;cursor:default;font-size:0.91666em;fill:#000000;" text-anchor="end" transform="translate(0,0)" y="196" opacity="1">60k</text><text x="30" style="color:#000000;cursor:default;font-size:0.91666em;fill:#000000;" text-anchor="end" transform="translate(0,0)" y="129" opacity="1">90k</text></g><g class="highcharts-axis-labels highcharts-yaxis-labels" data-z-index="7"><text x="444" style="color:#000000;cursor:default;font-size:0.91666em;fill:#000000;" text-anchor="start" transform="translate(0,0)" y="331" opacity="1">0</text><text x="444" style="color:#000000;cursor:default;font-size:0.91666em;fill:#000000;" text-anchor="start" transform="translate(0,0)" y="263" opacity="1">120</text><text x="444" style="color:#000000;cursor:default;font-size:0.91666em;fill:#000000;" text-anchor="start" transform="translate(0,0)" y="196" opacity="1">240</text><text x="444" style="color:#000000;cursor:default;font-size:0.91666em;fill:#000000;" text-anchor="start" transform="translate(0,0)" y="129" opacity="1">360</text></g><g class="highcharts-legend" data-z-index="7" transform="translate(33,73)"><rect fill="none" class="highcharts-legend-box" rx="0" ry="0" x="0" y="0" width="410" height="40" visibility="visible"></rect><g data-z-index="1"><g><g class="highcharts-legend-item highcharts-column-series highcharts-color-undefined highcharts-series-0" data-z-index="1" transform="translate(12,7)"><text x="21" style="color:#333333;cursor:pointer;font-size:1em;font-weight:normal;fill:#333333;" text-anchor="start" data-z-index="2" y="15"><tspan>Motorfahrzeugbestand</tspan></text><rect x="2" y="4" width="12" height="12" fill="#FF8028" class="highcharts-point" data-z-index="3"></rect></g><g class="highcharts-legend-item highcharts-line-series highcharts-color-undefined highcharts-series-1" data-z-index="1" transform="translate(184,7)"><path fill="none" d="M 0 11 L 16 11" class="highcharts-graph" stroke="#DC440E" stroke-width="2"></path><text x="21" y="15" style="color:#333333;cursor:pointer;font-size:1em;font-weight:normal;fill:#333333;" text-anchor="start" data-z-index="2"><tspan>Motorisierungsgrad (rechte Skala)</tspan></text></g></g></g></g><text x="10" class="highcharts-credits" text-anchor="start" data-z-index="8" style="cursor:default;color:#000000;font-size:0.8333em;fill:#000000;" y="400"><tspan>Quelle: Kantonspolizei Basel-Stadt, Motorfahrzeugkontrolle; Statistisches Amt Basel-Stadt,</tspan><tspan dy="13" x="10">Bevölkerungsstatistik</tspan></text><g class="highcharts-control-points" data-z-index="99" clip-path="url(#highcharts-hj00i21-116-)"></g></svg>