<svg version="1.1" class="highcharts-root" style="font-family: -apple-system, BlinkMacSystemFont, &quot;Segoe UI&quot;, Roboto, Helvetica, Arial, &quot;Apple Color Emoji&quot;, &quot;Segoe UI Emoji&quot;, &quot;Segoe UI Symbol&quot;, sans-serif; font-size: 1rem;" xmlns="http://www.w3.org/2000/svg" width="600" height="400" viewBox="0 0 600 400" role="img" aria-label="Abfallverbrennung"><desc>Created with Highcharts 12.5.0</desc><defs><filter id="highcharts-drop-shadow-0"><feDropShadow dx="1" dy="1" flood-color="#000000" flood-opacity="0.75" stdDeviation="2.5"></feDropShadow></filter><clipPath id="highcharts-dk2s1bs-98-"><rect x="0" y="0" width="533" height="170" fill="none"></rect></clipPath></defs><rect fill="#ffffff" class="highcharts-background" filter="none" x="0" y="0" width="600" height="400" rx="0" ry="0"></rect><rect fill="none" class="highcharts-plot-background" x="57" y="128" width="533" height="170" filter="none"></rect><g class="highcharts-label" transform="translate(10,429)" style="cursor: pointer;"><text x="0" data-z-index="1" y="0">&gt; Indikator-Details</text></g><g class="highcharts-pane-group" data-z-index="0"></g><g class="highcharts-plot-lines-0" data-z-index="0"><path fill="none" class="highcharts-plot-line "></path><path fill="none" class="highcharts-plot-line "></path><path fill="none" class="highcharts-plot-line "></path><path fill="none" class="highcharts-plot-line "></path><path fill="none" class="highcharts-plot-line "></path><path fill="none" class="highcharts-plot-line "></path><path fill="none" class="highcharts-plot-line "></path><path fill="none" class="highcharts-plot-line "></path><path fill="none" class="highcharts-plot-line "></path><path fill="none" class="highcharts-plot-line "></path><path fill="none" class="highcharts-plot-line "></path></g><g class="highcharts-grid highcharts-xaxis-grid" data-z-index="1"><path fill="none" stroke="#e6e6e6" stroke-width="0" stroke-dasharray="none" data-z-index="1" class="highcharts-grid-line" d="M 82.5 128 L 82.5 298" opacity="1"></path><path fill="none" stroke="#e6e6e6" stroke-width="0" stroke-dasharray="none" data-z-index="1" class="highcharts-grid-line" d="M 107.5 128 L 107.5 298" opacity="1"></path><path fill="none" stroke="#e6e6e6" stroke-width="0" stroke-dasharray="none" data-z-index="1" class="highcharts-grid-line" d="M 133.5 128 L 133.5 298" opacity="1"></path><path fill="none" stroke="#e6e6e6" stroke-width="0" stroke-dasharray="none" data-z-index="1" class="highcharts-grid-line" d="M 158.5 128 L 158.5 298" opacity="1"></path><path fill="none" stroke="#e6e6e6" stroke-width="0" stroke-dasharray="none" data-z-index="1" class="highcharts-grid-line" d="M 183.5 128 L 183.5 298" opacity="1"></path><path fill="none" stroke="#e6e6e6" stroke-width="0" stroke-dasharray="none" data-z-index="1" class="highcharts-grid-line" d="M 209.5 128 L 209.5 298" opacity="1"></path><path fill="none" stroke="#e6e6e6" stroke-width="0" stroke-dasharray="none" data-z-index="1" class="highcharts-grid-line" d="M 234.5 128 L 234.5 298" opacity="1"></path><path fill="none" stroke="#e6e6e6" stroke-width="0" stroke-dasharray="none" data-z-index="1" class="highcharts-grid-line" d="M 260.5 128 L 260.5 298" opacity="1"></path><path fill="none" stroke="#e6e6e6" stroke-width="0" stroke-dasharray="none" data-z-index="1" class="highcharts-grid-line" d="M 285.5 128 L 285.5 298" opacity="1"></path><path fill="none" stroke="#e6e6e6" stroke-width="0" stroke-dasharray="none" data-z-index="1" class="highcharts-grid-line" d="M 310.5 128 L 310.5 298" opacity="1"></path><path fill="none" stroke="#e6e6e6" stroke-width="0" stroke-dasharray="none" data-z-index="1" class="highcharts-grid-line" d="M 336.5 128 L 336.5 298" opacity="1"></path><path fill="none" stroke="#e6e6e6" stroke-width="0" stroke-dasharray="none" data-z-index="1" class="highcharts-grid-line" d="M 361.5 128 L 361.5 298" opacity="1"></path><path fill="none" stroke="#e6e6e6" stroke-width="0" stroke-dasharray="none" data-z-index="1" class="highcharts-grid-line" d="M 386.5 128 L 386.5 298" opacity="1"></path><path fill="none" stroke="#e6e6e6" stroke-width="0" stroke-dasharray="none" data-z-index="1" class="highcharts-grid-line" d="M 412.5 128 L 412.5 298" opacity="1"></path><path fill="none" stroke="#e6e6e6" stroke-width="0" stroke-dasharray="none" data-z-index="1" class="highcharts-grid-line" d="M 437.5 128 L 437.5 298" opacity="1"></path><path fill="none" stroke="#e6e6e6" stroke-width="0" stroke-dasharray="none" data-z-index="1" class="highcharts-grid-line" d="M 463.5 128 L 463.5 298" opacity="1"></path><path fill="none" stroke="#e6e6e6" stroke-width="0" stroke-dasharray="none" data-z-index="1" class="highcharts-grid-line" d="M 488.5 128 L 488.5 298" opacity="1"></path><path fill="none" stroke="#e6e6e6" stroke-width="0" stroke-dasharray="none" data-z-index="1" class="highcharts-grid-line" d="M 513.5 128 L 513.5 298" opacity="1"></path><path fill="none" stroke="#e6e6e6" stroke-width="0" stroke-dasharray="none" data-z-index="1" class="highcharts-grid-line" d="M 539.5 128 L 539.5 298" opacity="1"></path><path fill="none" stroke="#e6e6e6" stroke-width="0" stroke-dasharray="none" data-z-index="1" class="highcharts-grid-line" d="M 564.5 128 L 564.5 298" opacity="1"></path><path fill="none" stroke="#e6e6e6" stroke-width="0" stroke-dasharray="none" data-z-index="1" class="highcharts-grid-line" d="M 590.5 128 L 590.5 298" opacity="1"></path><path fill="none" stroke="#e6e6e6" stroke-width="0" stroke-dasharray="none" data-z-index="1" class="highcharts-grid-line" d="M 57.5 128 L 57.5 298" opacity="1"></path></g><g class="highcharts-grid highcharts-yaxis-grid" data-z-index="1"><path fill="none" stroke="#e6e6e6" stroke-width="1" stroke-dasharray="none" data-z-index="1" class="highcharts-grid-line" d="M 57 298.5 L 590 298.5" opacity="1"></path><path fill="none" stroke="#e6e6e6" stroke-width="1" stroke-dasharray="none" data-z-index="1" class="highcharts-grid-line" d="M 57 255.5 L 590 255.5" opacity="1"></path><path fill="none" stroke="#e6e6e6" stroke-width="1" stroke-dasharray="none" data-z-index="1" class="highcharts-grid-line" d="M 57 213.5 L 590 213.5" opacity="1"></path><path fill="none" stroke="#e6e6e6" stroke-width="1" stroke-dasharray="none" data-z-index="1" class="highcharts-grid-line" d="M 57 170.5 L 590 170.5" opacity="1"></path><path fill="none" stroke="#e6e6e6" stroke-width="1" stroke-dasharray="none" data-z-index="1" class="highcharts-grid-line" d="M 57 128.5 L 590 128.5" opacity="1"></path></g><g class="highcharts-grid highcharts-yaxis-grid" data-z-index="1"></g><rect fill="none" class="highcharts-plot-border" data-z-index="1" stroke="#cccccc" stroke-width="0" x="57" y="128" width="533" height="170"></rect><g class="highcharts-axis highcharts-xaxis" data-z-index="2"><path fill="none" class="highcharts-axis-line" stroke="#333333" stroke-width="1" data-z-index="7" d="M 57 298.5 L 590 298.5"></path></g><g class="highcharts-axis highcharts-yaxis" data-z-index="2"><path fill="none" class="highcharts-axis-line" stroke="#333333" stroke-width="0" data-z-index="7" d="M 57 128 L 57 298"></path></g><g class="highcharts-axis highcharts-yaxis" data-z-index="2"><path fill="none" class="highcharts-axis-line" stroke="#333333" stroke-width="0" data-z-index="7" d="M 590 128 L 590 298"></path></g><g class="highcharts-series-group" data-z-index="3" filter="none"><g class="highcharts-series highcharts-series-0 highcharts-column-series highcharts-tracker" data-z-index="0.1" opacity="1" transform="translate(57,128) scale(1 1)" clip-path="url(#highcharts-dk2s1bs-98-)"><path fill="#73B97C" d="M 10 36 L 17 36 A 3 3 0 0 1 20 39 L 20 101 A 0 0 0 0 1 20 101 L 7 101 A 0 0 0 0 1 7 101 L 7 39 A 3 3 0 0 1 10 36 Z" stroke="#ffffff" stroke-width="0" opacity="1" filter="none" class="highcharts-point"></path><path fill="#73B97C" d="M 35 49 L 42 49 A 3 3 0 0 1 45 52 L 45 111 A 0 0 0 0 1 45 111 L 32 111 A 0 0 0 0 1 32 111 L 32 52 A 3 3 0 0 1 35 49 Z" stroke="#ffffff" stroke-width="0" opacity="1" filter="none" class="highcharts-point"></path><path fill="#73B97C" d="M 60 50 L 67 50 A 3 3 0 0 1 70 53 L 70 111 A 0 0 0 0 1 70 111 L 57 111 A 0 0 0 0 1 57 111 L 57 53 A 3 3 0 0 1 60 50 Z" stroke="#ffffff" stroke-width="0" opacity="1" filter="none" class="highcharts-point"></path><path fill="#73B97C" d="M 86 46 L 93 46 A 3 3 0 0 1 96 49 L 96 107 A 0 0 0 0 1 96 107 L 83 107 A 0 0 0 0 1 83 107 L 83 49 A 3 3 0 0 1 86 46 Z" stroke="#ffffff" stroke-width="0" opacity="1" filter="none" class="highcharts-point"></path><path fill="#73B97C" d="M 111 42 L 118 42 A 3 3 0 0 1 121 45 L 121 104 A 0 0 0 0 1 121 104 L 108 104 A 0 0 0 0 1 108 104 L 108 45 A 3 3 0 0 1 111 42 Z" stroke="#ffffff" stroke-width="0" opacity="1" filter="none" class="highcharts-point"></path><path fill="#73B97C" d="M 137 37 L 144 37 A 3 3 0 0 1 147 40 L 147 99 A 0 0 0 0 1 147 99 L 134 99 A 0 0 0 0 1 134 99 L 134 40 A 3 3 0 0 1 137 37 Z" stroke="#ffffff" stroke-width="0" opacity="1" filter="none" class="highcharts-point"></path><path fill="#73B97C" d="M 162 37 L 169 37 A 3 3 0 0 1 172 40 L 172 98 A 0 0 0 0 1 172 98 L 159 98 A 0 0 0 0 1 159 98 L 159 40 A 3 3 0 0 1 162 37 Z" stroke="#ffffff" stroke-width="0" opacity="1" filter="none" class="highcharts-point"></path><path fill="#73B97C" d="M 187 39 L 194 39 A 3 3 0 0 1 197 42 L 197 97 A 0 0 0 0 1 197 97 L 184 97 A 0 0 0 0 1 184 97 L 184 42 A 3 3 0 0 1 187 39 Z" stroke="#ffffff" stroke-width="0" opacity="1" filter="none" class="highcharts-point"></path><path fill="#73B97C" d="M 213 39 L 220 39 A 3 3 0 0 1 223 42 L 223 98 A 0 0 0 0 1 223 98 L 210 98 A 0 0 0 0 1 210 98 L 210 42 A 3 3 0 0 1 213 39 Z" stroke="#ffffff" stroke-width="0" opacity="1" filter="none" class="highcharts-point"></path><path fill="#73B97C" d="M 238 41 L 245 41 A 3 3 0 0 1 248 44 L 248 99 A 0 0 0 0 1 248 99 L 235 99 A 0 0 0 0 1 235 99 L 235 44 A 3 3 0 0 1 238 41 Z" stroke="#ffffff" stroke-width="0" opacity="1" filter="none" class="highcharts-point"></path><path fill="#73B97C" d="M 263 43 L 270 43 A 3 3 0 0 1 273 46 L 273 101 A 0 0 0 0 1 273 101 L 260 101 A 0 0 0 0 1 260 101 L 260 46 A 3 3 0 0 1 263 43 Z" stroke="#ffffff" stroke-width="0" opacity="1" filter="none" class="highcharts-point"></path><path fill="#73B97C" d="M 289 39 L 296 39 A 3 3 0 0 1 299 42 L 299 98 A 0 0 0 0 1 299 98 L 286 98 A 0 0 0 0 1 286 98 L 286 42 A 3 3 0 0 1 289 39 Z" stroke="#ffffff" stroke-width="0" opacity="1" filter="none" class="highcharts-point"></path><path fill="#73B97C" d="M 314 43 L 321 43 A 3 3 0 0 1 324 46 L 324 101 A 0 0 0 0 1 324 101 L 311 101 A 0 0 0 0 1 311 101 L 311 46 A 3 3 0 0 1 314 43 Z" stroke="#ffffff" stroke-width="0" opacity="1" filter="none" class="highcharts-point"></path><path fill="#73B97C" d="M 340 42 L 347 42 A 3 3 0 0 1 350 45 L 350 98 A 0 0 0 0 1 350 98 L 337 98 A 0 0 0 0 1 337 98 L 337 45 A 3 3 0 0 1 340 42 Z" stroke="#ffffff" stroke-width="0" opacity="1" filter="none" class="highcharts-point"></path><path fill="#73B97C" d="M 365 44 L 372 44 A 3 3 0 0 1 375 47 L 375 98 A 0 0 0 0 1 375 98 L 362 98 A 0 0 0 0 1 362 98 L 362 47 A 3 3 0 0 1 365 44 Z" stroke="#ffffff" stroke-width="0" opacity="1" filter="none" class="highcharts-point"></path><path fill="#73B97C" d="M 390 46 L 397 46 A 3 3 0 0 1 400 49 L 400 101 A 0 0 0 0 1 400 101 L 387 101 A 0 0 0 0 1 387 101 L 387 49 A 3 3 0 0 1 390 46 Z" stroke="#ffffff" stroke-width="0" opacity="1" filter="none" class="highcharts-point"></path><path fill="#73B97C" d="M 416 50 L 423 50 A 3 3 0 0 1 426 53 L 426 99 A 0 0 0 0 1 426 99 L 413 99 A 0 0 0 0 1 413 99 L 413 53 A 3 3 0 0 1 416 50 Z" stroke="#ffffff" stroke-width="0" opacity="1" filter="none" class="highcharts-point"></path><path fill="#73B97C" d="M 441 51 L 448 51 A 3 3 0 0 1 451 54 L 451 98 A 0 0 0 0 1 451 98 L 438 98 A 0 0 0 0 1 438 98 L 438 54 A 3 3 0 0 1 441 51 Z" stroke="#ffffff" stroke-width="0" opacity="1" filter="none" class="highcharts-point"></path><path fill="#73B97C" d="M 466 49 L 473 49 A 3 3 0 0 1 476 52 L 476 96 A 0 0 0 0 1 476 96 L 463 96 A 0 0 0 0 1 463 96 L 463 52 A 3 3 0 0 1 466 49 Z" stroke="#ffffff" stroke-width="0" opacity="1" filter="none" class="highcharts-point"></path><path fill="#73B97C" d="M 492 53 L 499 53 A 3 3 0 0 1 502 56 L 502 97 A 0 0 0 0 1 502 97 L 489 97 A 0 0 0 0 1 489 97 L 489 56 A 3 3 0 0 1 492 53 Z" stroke="#ffffff" stroke-width="0" opacity="1" filter="none" class="highcharts-point"></path><path fill="#73B97C" d="M 517 52 L 524 52 A 3 3 0 0 1 527 55 L 527 98 A 0 0 0 0 1 527 98 L 514 98 A 0 0 0 0 1 514 98 L 514 55 A 3 3 0 0 1 517 52 Z" stroke="#ffffff" stroke-width="0" opacity="1" filter="none" class="highcharts-point"></path></g><g class="highcharts-markers highcharts-series-0 highcharts-column-series" data-z-index="0.1" opacity="1" transform="translate(57,128) scale(1 1)" clip-path="none"></g><g class="highcharts-series highcharts-series-1 highcharts-column-series highcharts-tracker" data-z-index="0.1" opacity="1" transform="translate(57,128) scale(1 1)" clip-path="url(#highcharts-dk2s1bs-98-)"><path fill="#68AB2B" d="M 7 101 L 20 101 A 0 0 0 0 1 20 101 L 20 170 A 0 0 0 0 1 20 170 L 7 170 A 0 0 0 0 1 7 170 L 7 101 A 0 0 0 0 1 7 101 Z" stroke="#ffffff" stroke-width="0" opacity="1" filter="none" class="highcharts-point"></path><path fill="#68AB2B" d="M 32 111 L 45 111 A 0 0 0 0 1 45 111 L 45 170 A 0 0 0 0 1 45 170 L 32 170 A 0 0 0 0 1 32 170 L 32 111 A 0 0 0 0 1 32 111 Z" stroke="#ffffff" stroke-width="0" opacity="1" filter="none" class="highcharts-point"></path><path fill="#68AB2B" d="M 57 111 L 70 111 A 0 0 0 0 1 70 111 L 70 170 A 0 0 0 0 1 70 170 L 57 170 A 0 0 0 0 1 57 170 L 57 111 A 0 0 0 0 1 57 111 Z" stroke="#ffffff" stroke-width="0" opacity="1" filter="none" class="highcharts-point"></path><path fill="#68AB2B" d="M 83 107 L 96 107 A 0 0 0 0 1 96 107 L 96 170 A 0 0 0 0 1 96 170 L 83 170 A 0 0 0 0 1 83 170 L 83 107 A 0 0 0 0 1 83 107 Z" stroke="#ffffff" stroke-width="0" opacity="1" filter="none" class="highcharts-point"></path><path fill="#68AB2B" d="M 108 104 L 121 104 A 0 0 0 0 1 121 104 L 121 170 A 0 0 0 0 1 121 170 L 108 170 A 0 0 0 0 1 108 170 L 108 104 A 0 0 0 0 1 108 104 Z" stroke="#ffffff" stroke-width="0" opacity="1" filter="none" class="highcharts-point"></path><path fill="#68AB2B" d="M 134 99 L 147 99 A 0 0 0 0 1 147 99 L 147 170 A 0 0 0 0 1 147 170 L 134 170 A 0 0 0 0 1 134 170 L 134 99 A 0 0 0 0 1 134 99 Z" stroke="#ffffff" stroke-width="0" opacity="1" filter="none" class="highcharts-point"></path><path fill="#68AB2B" d="M 159 98 L 172 98 A 0 0 0 0 1 172 98 L 172 170 A 0 0 0 0 1 172 170 L 159 170 A 0 0 0 0 1 159 170 L 159 98 A 0 0 0 0 1 159 98 Z" stroke="#ffffff" stroke-width="0" opacity="1" filter="none" class="highcharts-point"></path><path fill="#68AB2B" d="M 184 97 L 197 97 A 0 0 0 0 1 197 97 L 197 170 A 0 0 0 0 1 197 170 L 184 170 A 0 0 0 0 1 184 170 L 184 97 A 0 0 0 0 1 184 97 Z" stroke="#ffffff" stroke-width="0" opacity="1" filter="none" class="highcharts-point"></path><path fill="#68AB2B" d="M 210 98 L 223 98 A 0 0 0 0 1 223 98 L 223 170 A 0 0 0 0 1 223 170 L 210 170 A 0 0 0 0 1 210 170 L 210 98 A 0 0 0 0 1 210 98 Z" stroke="#ffffff" stroke-width="0" opacity="1" filter="none" class="highcharts-point"></path><path fill="#68AB2B" d="M 235 99 L 248 99 A 0 0 0 0 1 248 99 L 248 170 A 0 0 0 0 1 248 170 L 235 170 A 0 0 0 0 1 235 170 L 235 99 A 0 0 0 0 1 235 99 Z" stroke="#ffffff" stroke-width="0" opacity="1" filter="none" class="highcharts-point"></path><path fill="#68AB2B" d="M 260 101 L 273 101 A 0 0 0 0 1 273 101 L 273 170 A 0 0 0 0 1 273 170 L 260 170 A 0 0 0 0 1 260 170 L 260 101 A 0 0 0 0 1 260 101 Z" stroke="#ffffff" stroke-width="0" opacity="1" filter="none" class="highcharts-point"></path><path fill="#68AB2B" d="M 286 98 L 299 98 A 0 0 0 0 1 299 98 L 299 170 A 0 0 0 0 1 299 170 L 286 170 A 0 0 0 0 1 286 170 L 286 98 A 0 0 0 0 1 286 98 Z" stroke="#ffffff" stroke-width="0" opacity="1" filter="none" class="highcharts-point"></path><path fill="#68AB2B" d="M 311 101 L 324 101 A 0 0 0 0 1 324 101 L 324 170 A 0 0 0 0 1 324 170 L 311 170 A 0 0 0 0 1 311 170 L 311 101 A 0 0 0 0 1 311 101 Z" stroke="#ffffff" stroke-width="0" opacity="1" filter="none" class="highcharts-point"></path><path fill="#68AB2B" d="M 337 98 L 350 98 A 0 0 0 0 1 350 98 L 350 170 A 0 0 0 0 1 350 170 L 337 170 A 0 0 0 0 1 337 170 L 337 98 A 0 0 0 0 1 337 98 Z" stroke="#ffffff" stroke-width="0" opacity="1" filter="none" class="highcharts-point"></path><path fill="#68AB2B" d="M 362 98 L 375 98 A 0 0 0 0 1 375 98 L 375 170 A 0 0 0 0 1 375 170 L 362 170 A 0 0 0 0 1 362 170 L 362 98 A 0 0 0 0 1 362 98 Z" stroke="#ffffff" stroke-width="0" opacity="1" filter="none" class="highcharts-point"></path><path fill="#68AB2B" d="M 387 101 L 400 101 A 0 0 0 0 1 400 101 L 400 170 A 0 0 0 0 1 400 170 L 387 170 A 0 0 0 0 1 387 170 L 387 101 A 0 0 0 0 1 387 101 Z" stroke="#ffffff" stroke-width="0" opacity="1" filter="none" class="highcharts-point"></path><path fill="#68AB2B" d="M 413 99 L 426 99 A 0 0 0 0 1 426 99 L 426 170 A 0 0 0 0 1 426 170 L 413 170 A 0 0 0 0 1 413 170 L 413 99 A 0 0 0 0 1 413 99 Z" stroke="#ffffff" stroke-width="0" opacity="1" filter="none" class="highcharts-point"></path><path fill="#68AB2B" d="M 438 98 L 451 98 A 0 0 0 0 1 451 98 L 451 170 A 0 0 0 0 1 451 170 L 438 170 A 0 0 0 0 1 438 170 L 438 98 A 0 0 0 0 1 438 98 Z" stroke="#ffffff" stroke-width="0" opacity="1" filter="none" class="highcharts-point"></path><path fill="#68AB2B" d="M 463 96 L 476 96 A 0 0 0 0 1 476 96 L 476 170 A 0 0 0 0 1 476 170 L 463 170 A 0 0 0 0 1 463 170 L 463 96 A 0 0 0 0 1 463 96 Z" stroke="#ffffff" stroke-width="0" opacity="1" filter="none" class="highcharts-point"></path><path fill="#68AB2B" d="M 489 97 L 502 97 A 0 0 0 0 1 502 97 L 502 170 A 0 0 0 0 1 502 170 L 489 170 A 0 0 0 0 1 489 170 L 489 97 A 0 0 0 0 1 489 97 Z" stroke="#ffffff" stroke-width="0" opacity="1" filter="none" class="highcharts-point"></path><path fill="#68AB2B" d="M 514 98 L 527 98 A 0 0 0 0 1 527 98 L 527 170 A 0 0 0 0 1 527 170 L 514 170 A 0 0 0 0 1 514 170 L 514 98 A 0 0 0 0 1 514 98 Z" stroke="#ffffff" stroke-width="0" opacity="1" filter="none" class="highcharts-point"></path></g><g class="highcharts-markers highcharts-series-1 highcharts-column-series" data-z-index="0.1" opacity="1" transform="translate(57,128) scale(1 1)" clip-path="none"></g></g><text x="10" text-anchor="start" class="highcharts-caption" data-z-index="4" style="font-size: 0.8em; fill: rgb(102, 102, 102);" text-align="left" y="362" transform-origin="10 15" transform="translate(0,0) scale(1 1)"></text><g class="highcharts-axis-labels highcharts-xaxis-labels" data-z-index="7"><text x="72.99030783601303" text-anchor="end" transform="translate(0,0) rotate(-45 72.99030783601303 323)" style="cursor: default; font-size: 0.91666em; fill: rgb(0, 0, 0);" y="323" opacity="1">2003</text><text x="98.37126021697104" text-anchor="end" transform="translate(0,0) rotate(-45 98.37126021697104 323)" style="cursor: default; font-size: 0.91666em; fill: rgb(0, 0, 0);" y="323" opacity="1">2004</text><text x="123.75221259792103" text-anchor="end" transform="translate(0,0) rotate(-45 123.75221259792103 323)" style="cursor: default; font-size: 0.91666em; fill: rgb(0, 0, 0);" y="323" opacity="1">2005</text><text x="149.13316497887104" text-anchor="end" transform="translate(0,0) rotate(-45 149.13316497887104 323)" style="cursor: default; font-size: 0.91666em; fill: rgb(0, 0, 0);" y="323" opacity="1">2006</text><text x="174.514117359821" text-anchor="end" transform="translate(0,0) rotate(-45 174.514117359821 323)" style="cursor: default; font-size: 0.91666em; fill: rgb(0, 0, 0);" y="323" opacity="1">2007</text><text x="199.89506974077102" text-anchor="end" transform="translate(0,0) rotate(-45 199.89506974077102 323)" style="cursor: default; font-size: 0.91666em; fill: rgb(0, 0, 0);" y="323" opacity="1">2008</text><text x="225.27602212173105" text-anchor="end" transform="translate(0,0) rotate(-45 225.27602212173105 323)" style="cursor: default; font-size: 0.91666em; fill: rgb(0, 0, 0);" y="323" opacity="1">2009</text><text x="250.656974502681" text-anchor="end" transform="translate(0,0) rotate(-45 250.656974502681 323)" style="cursor: default; font-size: 0.91666em; fill: rgb(0, 0, 0);" y="323" opacity="1">2010</text><text x="276.03792688363103" text-anchor="end" transform="translate(0,0) rotate(-45 276.03792688363103 323)" style="cursor: default; font-size: 0.91666em; fill: rgb(0, 0, 0);" y="323" opacity="1">2011</text><text x="301.418879264581" text-anchor="end" transform="translate(0,0) rotate(-45 301.418879264581 323)" style="cursor: default; font-size: 0.91666em; fill: rgb(0, 0, 0);" y="323" opacity="1">2012</text><text x="326.799831645541" text-anchor="end" transform="translate(0,0) rotate(-45 326.799831645541 323)" style="cursor: default; font-size: 0.91666em; fill: rgb(0, 0, 0);" y="323" opacity="1">2013</text><text x="352.180784026491" text-anchor="end" transform="translate(0,0) rotate(-45 352.180784026491 323)" style="cursor: default; font-size: 0.91666em; fill: rgb(0, 0, 0);" y="323" opacity="1">2014</text><text x="377.561736407441" text-anchor="end" transform="translate(0,0) rotate(-45 377.561736407441 323)" style="cursor: default; font-size: 0.91666em; fill: rgb(0, 0, 0);" y="323" opacity="1">2015</text><text x="402.942688788391" text-anchor="end" transform="translate(0,0) rotate(-45 402.942688788391 323)" style="cursor: default; font-size: 0.91666em; fill: rgb(0, 0, 0);" y="323" opacity="1">2016</text><text x="428.323641169351" text-anchor="end" transform="translate(0,0) rotate(-45 428.323641169351 323)" style="cursor: default; font-size: 0.91666em; fill: rgb(0, 0, 0);" y="323" opacity="1">2017</text><text x="453.704593550301" text-anchor="end" transform="translate(0,0) rotate(-45 453.704593550301 323)" style="cursor: default; font-size: 0.91666em; fill: rgb(0, 0, 0);" y="323" opacity="1">2018</text><text x="479.08554593125103" text-anchor="end" transform="translate(0,0) rotate(-45 479.08554593125103 323)" style="cursor: default; font-size: 0.91666em; fill: rgb(0, 0, 0);" y="323" opacity="1">2019</text><text x="504.46649831220105" text-anchor="end" transform="translate(0,0) rotate(-45 504.46649831220105 323)" style="cursor: default; font-size: 0.91666em; fill: rgb(0, 0, 0);" y="323" opacity="1">2020</text><text x="529.847450693161" text-anchor="end" transform="translate(0,0) rotate(-45 529.847450693161 323)" style="cursor: default; font-size: 0.91666em; fill: rgb(0, 0, 0);" y="323" opacity="1">2021</text><text x="555.228403074111" text-anchor="end" transform="translate(0,0) rotate(-45 555.228403074111 323)" style="cursor: default; font-size: 0.91666em; fill: rgb(0, 0, 0);" y="323" opacity="1">2022</text><text x="580.6093554550611" text-anchor="end" transform="translate(0,0) rotate(-45 580.6093554550611 323)" style="cursor: default; font-size: 0.91666em; fill: rgb(0, 0, 0);" y="323" opacity="1">2023</text></g><g class="highcharts-axis-labels highcharts-yaxis-labels" data-z-index="7"><text x="42" text-anchor="end" transform="translate(0,0)" style="cursor: default; font-size: 0.91666em; fill: rgb(0, 0, 0);" y="302" opacity="1">0</text><text x="42" text-anchor="end" transform="translate(0,0)" style="cursor: default; font-size: 0.91666em; fill: rgb(0, 0, 0);" y="260" opacity="1">50k</text><text x="42" text-anchor="end" transform="translate(0,0)" style="cursor: default; font-size: 0.91666em; fill: rgb(0, 0, 0);" y="217" opacity="1">100k</text><text x="42" text-anchor="end" transform="translate(0,0)" style="cursor: default; font-size: 0.91666em; fill: rgb(0, 0, 0);" y="175" opacity="1">150k</text><text x="42" text-anchor="end" transform="translate(0,0)" style="cursor: default; font-size: 0.91666em; fill: rgb(0, 0, 0);" y="132" opacity="1">200k</text></g><g class="highcharts-axis-labels highcharts-yaxis-labels" data-z-index="7"></g><g class="highcharts-legend highcharts-no-tooltip" data-z-index="7" text-align="left" transform="translate(45,71)"><rect fill="none" class="highcharts-legend-box" rx="0" ry="0" stroke="#999999" stroke-width="0" filter="none" x="0" y="0" width="516" height="45"></rect><g data-z-index="1"><g><g class="highcharts-legend-item highcharts-column-series highcharts-color-undefined highcharts-series-0" data-z-index="1" transform="translate(12,7)"><text x="21" text-anchor="start" data-z-index="2" style="cursor: pointer; font-size: 1em; text-decoration: none; font-weight: normal; fill: rgb(51, 51, 51);" y="21">Anlieferung aus Basel-Stadt</text><rect x="0" y="6" rx="0" ry="0" width="16" height="16" fill="#73B97C" class="highcharts-point" data-z-index="3"></rect></g><g class="highcharts-legend-item highcharts-column-series highcharts-color-undefined highcharts-series-1" data-z-index="1" transform="translate(248.421875,7)"><text x="21" y="21" text-anchor="start" data-z-index="2" style="cursor: pointer; font-size: 1em; text-decoration: none; font-weight: normal; fill: rgb(51, 51, 51);">Anlieferung aus Basel-Landschaft</text><rect x="0" y="6" rx="0" ry="0" width="16" height="16" fill="#68AB2B" class="highcharts-point" data-z-index="3"></rect></g></g></g></g></svg>