<svg version="1.1" class="highcharts-root" style="font-family: -apple-system, BlinkMacSystemFont, &quot;Segoe UI&quot;, Roboto, Helvetica, Arial, &quot;Apple Color Emoji&quot;, &quot;Segoe UI Emoji&quot;, &quot;Segoe UI Symbol&quot;, sans-serif; font-size: 1rem;" xmlns="http://www.w3.org/2000/svg" width="600" height="400" viewBox="0 0 600 400" role="img" aria-label="Verbrennungsrückstände"><desc>Created with Highcharts 12.5.0</desc><defs><filter id="highcharts-drop-shadow-0"><feDropShadow dx="1" dy="1" flood-color="#000000" flood-opacity="0.75" stdDeviation="2.5"></feDropShadow></filter><clipPath id="highcharts-dk2s1bs-25-"><rect x="0" y="0" width="541" height="170" fill="none"></rect></clipPath></defs><rect fill="#ffffff" class="highcharts-background" filter="none" x="0" y="0" width="600" height="400" rx="0" ry="0"></rect><rect fill="none" class="highcharts-plot-background" x="49" y="128" width="541" height="170" filter="none"></rect><g class="highcharts-label" transform="translate(10,429)" style="cursor: pointer;"><text x="0" data-z-index="1" y="0">&gt; Indikator-Details</text></g><g class="highcharts-pane-group" data-z-index="0"></g><g class="highcharts-plot-lines-0" data-z-index="0"><path fill="none" class="highcharts-plot-line "></path><path fill="none" class="highcharts-plot-line "></path><path fill="none" class="highcharts-plot-line "></path><path fill="none" class="highcharts-plot-line "></path><path fill="none" class="highcharts-plot-line "></path><path fill="none" class="highcharts-plot-line "></path><path fill="none" class="highcharts-plot-line "></path><path fill="none" class="highcharts-plot-line "></path><path fill="none" class="highcharts-plot-line "></path><path fill="none" class="highcharts-plot-line "></path><path fill="none" class="highcharts-plot-line "></path></g><g class="highcharts-grid highcharts-xaxis-grid" data-z-index="1"><path fill="none" stroke="#e6e6e6" stroke-width="0" stroke-dasharray="none" data-z-index="1" class="highcharts-grid-line" d="M 79.5 128 L 79.5 298" opacity="1"></path><path fill="none" stroke="#e6e6e6" stroke-width="0" stroke-dasharray="none" data-z-index="1" class="highcharts-grid-line" d="M 109.5 128 L 109.5 298" opacity="1"></path><path fill="none" stroke="#e6e6e6" stroke-width="0" stroke-dasharray="none" data-z-index="1" class="highcharts-grid-line" d="M 139.5 128 L 139.5 298" opacity="1"></path><path fill="none" stroke="#e6e6e6" stroke-width="0" stroke-dasharray="none" data-z-index="1" class="highcharts-grid-line" d="M 169.5 128 L 169.5 298" opacity="1"></path><path fill="none" stroke="#e6e6e6" stroke-width="0" stroke-dasharray="none" data-z-index="1" class="highcharts-grid-line" d="M 199.5 128 L 199.5 298" opacity="1"></path><path fill="none" stroke="#e6e6e6" stroke-width="0" stroke-dasharray="none" data-z-index="1" class="highcharts-grid-line" d="M 229.5 128 L 229.5 298" opacity="1"></path><path fill="none" stroke="#e6e6e6" stroke-width="0" stroke-dasharray="none" data-z-index="1" class="highcharts-grid-line" d="M 259.5 128 L 259.5 298" opacity="1"></path><path fill="none" stroke="#e6e6e6" stroke-width="0" stroke-dasharray="none" data-z-index="1" class="highcharts-grid-line" d="M 289.5 128 L 289.5 298" opacity="1"></path><path fill="none" stroke="#e6e6e6" stroke-width="0" stroke-dasharray="none" data-z-index="1" class="highcharts-grid-line" d="M 319.5 128 L 319.5 298" opacity="1"></path><path fill="none" stroke="#e6e6e6" stroke-width="0" stroke-dasharray="none" data-z-index="1" class="highcharts-grid-line" d="M 349.5 128 L 349.5 298" opacity="1"></path><path fill="none" stroke="#e6e6e6" stroke-width="0" stroke-dasharray="none" data-z-index="1" class="highcharts-grid-line" d="M 379.5 128 L 379.5 298" opacity="1"></path><path fill="none" stroke="#e6e6e6" stroke-width="0" stroke-dasharray="none" data-z-index="1" class="highcharts-grid-line" d="M 409.5 128 L 409.5 298" opacity="1"></path><path fill="none" stroke="#e6e6e6" stroke-width="0" stroke-dasharray="none" data-z-index="1" class="highcharts-grid-line" d="M 439.5 128 L 439.5 298" opacity="1"></path><path fill="none" stroke="#e6e6e6" stroke-width="0" stroke-dasharray="none" data-z-index="1" class="highcharts-grid-line" d="M 469.5 128 L 469.5 298" opacity="1"></path><path fill="none" stroke="#e6e6e6" stroke-width="0" stroke-dasharray="none" data-z-index="1" class="highcharts-grid-line" d="M 499.5 128 L 499.5 298" opacity="1"></path><path fill="none" stroke="#e6e6e6" stroke-width="0" stroke-dasharray="none" data-z-index="1" class="highcharts-grid-line" d="M 529.5 128 L 529.5 298" opacity="1"></path><path fill="none" stroke="#e6e6e6" stroke-width="0" stroke-dasharray="none" data-z-index="1" class="highcharts-grid-line" d="M 559.5 128 L 559.5 298" opacity="1"></path><path fill="none" stroke="#e6e6e6" stroke-width="0" stroke-dasharray="none" data-z-index="1" class="highcharts-grid-line" d="M 590.5 128 L 590.5 298" opacity="1"></path><path fill="none" stroke="#e6e6e6" stroke-width="0" stroke-dasharray="none" data-z-index="1" class="highcharts-grid-line" d="M 49.5 128 L 49.5 298" opacity="1"></path></g><g class="highcharts-grid highcharts-yaxis-grid" data-z-index="1"><path fill="none" stroke="#e6e6e6" stroke-width="1" stroke-dasharray="none" data-z-index="1" class="highcharts-grid-line" d="M 49 298.5 L 590 298.5" opacity="1"></path><path fill="none" stroke="#e6e6e6" stroke-width="1" stroke-dasharray="none" data-z-index="1" class="highcharts-grid-line" d="M 49 255.5 L 590 255.5" opacity="1"></path><path fill="none" stroke="#e6e6e6" stroke-width="1" stroke-dasharray="none" data-z-index="1" class="highcharts-grid-line" d="M 49 213.5 L 590 213.5" opacity="1"></path><path fill="none" stroke="#e6e6e6" stroke-width="1" stroke-dasharray="none" data-z-index="1" class="highcharts-grid-line" d="M 49 170.5 L 590 170.5" opacity="1"></path><path fill="none" stroke="#e6e6e6" stroke-width="1" stroke-dasharray="none" data-z-index="1" class="highcharts-grid-line" d="M 49 128.5 L 590 128.5" opacity="1"></path></g><g class="highcharts-grid highcharts-yaxis-grid" data-z-index="1"></g><rect fill="none" class="highcharts-plot-border" data-z-index="1" stroke="#cccccc" stroke-width="0" x="49" y="128" width="541" height="170"></rect><g class="highcharts-axis highcharts-xaxis" data-z-index="2"><path fill="none" class="highcharts-axis-line" stroke="#333333" stroke-width="1" data-z-index="7" d="M 49 298.5 L 590 298.5"></path></g><g class="highcharts-axis highcharts-yaxis" data-z-index="2"><path fill="none" class="highcharts-axis-line" stroke="#333333" stroke-width="0" data-z-index="7" d="M 49 128 L 49 298"></path></g><g class="highcharts-axis highcharts-yaxis" data-z-index="2"><path fill="none" class="highcharts-axis-line" stroke="#333333" stroke-width="0" data-z-index="7" d="M 590 128 L 590 298"></path></g><g class="highcharts-series-group" data-z-index="3" filter="none"><g class="highcharts-series highcharts-series-0 highcharts-column-series highcharts-tracker" data-z-index="0.1" opacity="1" transform="translate(49,128) scale(1 1)" clip-path="url(#highcharts-dk2s1bs-25-)"><path fill="#73B97C" d="M 11 49 L 20 49 A 3 3 0 0 1 23 52 L 23 153 A 0 0 0 0 1 23 153 L 8 153 A 0 0 0 0 1 8 153 L 8 52 A 3 3 0 0 1 11 49 Z" stroke="#ffffff" stroke-width="0" opacity="1" filter="none" class="highcharts-point"></path><path fill="#73B97C" d="M 41 46 L 50 46 A 3 3 0 0 1 53 49 L 53 151 A 0 0 0 0 1 53 151 L 38 151 A 0 0 0 0 1 38 151 L 38 49 A 3 3 0 0 1 41 46 Z" stroke="#ffffff" stroke-width="0" opacity="1" filter="none" class="highcharts-point"></path><path fill="#73B97C" d="M 71 41 L 80 41 A 3 3 0 0 1 83 44 L 83 151 A 0 0 0 0 1 83 151 L 68 151 A 0 0 0 0 1 68 151 L 68 44 A 3 3 0 0 1 71 41 Z" stroke="#ffffff" stroke-width="0" opacity="1" filter="none" class="highcharts-point"></path><path fill="#73B97C" d="M 101 42 L 110 42 A 3 3 0 0 1 113 45 L 113 151 A 0 0 0 0 1 113 151 L 98 151 A 0 0 0 0 1 98 151 L 98 45 A 3 3 0 0 1 101 42 Z" stroke="#ffffff" stroke-width="0" opacity="1" filter="none" class="highcharts-point"></path><path fill="#73B97C" d="M 131 43 L 140 43 A 3 3 0 0 1 143 46 L 143 151 A 0 0 0 0 1 143 151 L 128 151 A 0 0 0 0 1 128 151 L 128 46 A 3 3 0 0 1 131 43 Z" stroke="#ffffff" stroke-width="0" opacity="1" filter="none" class="highcharts-point"></path><path fill="#73B97C" d="M 161 43 L 170 43 A 3 3 0 0 1 173 46 L 173 150 A 0 0 0 0 1 173 150 L 158 150 A 0 0 0 0 1 158 150 L 158 46 A 3 3 0 0 1 161 43 Z" stroke="#ffffff" stroke-width="0" opacity="1" filter="none" class="highcharts-point"></path><path fill="#73B97C" d="M 191 38 L 200 38 A 3 3 0 0 1 203 41 L 203 149 A 0 0 0 0 1 203 149 L 188 149 A 0 0 0 0 1 188 149 L 188 41 A 3 3 0 0 1 191 38 Z" stroke="#ffffff" stroke-width="0" opacity="1" filter="none" class="highcharts-point"></path><path fill="#73B97C" d="M 221 44 L 230 44 A 3 3 0 0 1 233 47 L 233 150 A 0 0 0 0 1 233 150 L 218 150 A 0 0 0 0 1 218 150 L 218 47 A 3 3 0 0 1 221 44 Z" stroke="#ffffff" stroke-width="0" opacity="1" filter="none" class="highcharts-point"></path><path fill="#73B97C" d="M 251 38 L 260 38 A 3 3 0 0 1 263 41 L 263 149 A 0 0 0 0 1 263 149 L 248 149 A 0 0 0 0 1 248 149 L 248 41 A 3 3 0 0 1 251 38 Z" stroke="#ffffff" stroke-width="0" opacity="1" filter="none" class="highcharts-point"></path><path fill="#73B97C" d="M 281 39 L 290 39 A 3 3 0 0 1 293 42 L 293 150 A 0 0 0 0 1 293 150 L 278 150 A 0 0 0 0 1 278 150 L 278 42 A 3 3 0 0 1 281 39 Z" stroke="#ffffff" stroke-width="0" opacity="1" filter="none" class="highcharts-point"></path><path fill="#73B97C" d="M 311 29 L 320 29 A 3 3 0 0 1 323 32 L 323 152 A 0 0 0 0 1 323 152 L 308 152 A 0 0 0 0 1 308 152 L 308 32 A 3 3 0 0 1 311 29 Z" stroke="#ffffff" stroke-width="0" opacity="1" filter="none" class="highcharts-point"></path><path fill="#73B97C" d="M 341 38 L 350 38 A 3 3 0 0 1 353 41 L 353 153 A 0 0 0 0 1 353 153 L 338 153 A 0 0 0 0 1 338 153 L 338 41 A 3 3 0 0 1 341 38 Z" stroke="#ffffff" stroke-width="0" opacity="1" filter="none" class="highcharts-point"></path><path fill="#73B97C" d="M 371 35 L 380 35 A 3 3 0 0 1 383 38 L 383 154 A 0 0 0 0 1 383 154 L 368 154 A 0 0 0 0 1 368 154 L 368 38 A 3 3 0 0 1 371 35 Z" stroke="#ffffff" stroke-width="0" opacity="1" filter="none" class="highcharts-point"></path><path fill="#73B97C" d="M 402 44 L 411 44 A 3 3 0 0 1 414 47 L 414 156 A 0 0 0 0 1 414 156 L 399 156 A 0 0 0 0 1 399 156 L 399 47 A 3 3 0 0 1 402 44 Z" stroke="#ffffff" stroke-width="0" opacity="1" filter="none" class="highcharts-point"></path><path fill="#73B97C" d="M 432 41 L 441 41 A 3 3 0 0 1 444 44 L 444 155 A 0 0 0 0 1 444 155 L 429 155 A 0 0 0 0 1 429 155 L 429 44 A 3 3 0 0 1 432 41 Z" stroke="#ffffff" stroke-width="0" opacity="1" filter="none" class="highcharts-point"></path><path fill="#73B97C" d="M 462 42 L 471 42 A 3 3 0 0 1 474 45 L 474 159 A 0 0 0 0 1 474 159 L 459 159 A 0 0 0 0 1 459 159 L 459 45 A 3 3 0 0 1 462 42 Z" stroke="#ffffff" stroke-width="0" opacity="1" filter="none" class="highcharts-point"></path><path fill="#73B97C" d="M 492 41 L 501 41 A 3 3 0 0 1 504 44 L 504 159 A 0 0 0 0 1 504 159 L 489 159 A 0 0 0 0 1 489 159 L 489 44 A 3 3 0 0 1 492 41 Z" stroke="#ffffff" stroke-width="0" opacity="1" filter="none" class="highcharts-point"></path><path fill="#73B97C" d="M 522 39 L 531 39 A 3 3 0 0 1 534 42 L 534 158 A 0 0 0 0 1 534 158 L 519 158 A 0 0 0 0 1 519 158 L 519 42 A 3 3 0 0 1 522 39 Z" stroke="#ffffff" stroke-width="0" opacity="1" filter="none" class="highcharts-point"></path></g><g class="highcharts-markers highcharts-series-0 highcharts-column-series" data-z-index="0.1" opacity="1" transform="translate(49,128) scale(1 1)" clip-path="none"></g><g class="highcharts-series highcharts-series-1 highcharts-column-series highcharts-tracker" data-z-index="0.1" opacity="1" transform="translate(49,128) scale(1 1)" clip-path="url(#highcharts-dk2s1bs-25-)"><path fill="#68AB2B" d="M 8 153 L 23 153 A 0 0 0 0 1 23 153 L 23 170 A 0 0 0 0 1 23 170 L 8 170 A 0 0 0 0 1 8 170 L 8 153 A 0 0 0 0 1 8 153 Z" stroke="#ffffff" stroke-width="0" opacity="1" filter="none" class="highcharts-point"></path><path fill="#68AB2B" d="M 38 151 L 53 151 A 0 0 0 0 1 53 151 L 53 170 A 0 0 0 0 1 53 170 L 38 170 A 0 0 0 0 1 38 170 L 38 151 A 0 0 0 0 1 38 151 Z" stroke="#ffffff" stroke-width="0" opacity="1" filter="none" class="highcharts-point"></path><path fill="#68AB2B" d="M 68 151 L 83 151 A 0 0 0 0 1 83 151 L 83 170 A 0 0 0 0 1 83 170 L 68 170 A 0 0 0 0 1 68 170 L 68 151 A 0 0 0 0 1 68 151 Z" stroke="#ffffff" stroke-width="0" opacity="1" filter="none" class="highcharts-point"></path><path fill="#68AB2B" d="M 98 151 L 113 151 A 0 0 0 0 1 113 151 L 113 170 A 0 0 0 0 1 113 170 L 98 170 A 0 0 0 0 1 98 170 L 98 151 A 0 0 0 0 1 98 151 Z" stroke="#ffffff" stroke-width="0" opacity="1" filter="none" class="highcharts-point"></path><path fill="#68AB2B" d="M 128 151 L 143 151 A 0 0 0 0 1 143 151 L 143 170 A 0 0 0 0 1 143 170 L 128 170 A 0 0 0 0 1 128 170 L 128 151 A 0 0 0 0 1 128 151 Z" stroke="#ffffff" stroke-width="0" opacity="1" filter="none" class="highcharts-point"></path><path fill="#68AB2B" d="M 158 150 L 173 150 A 0 0 0 0 1 173 150 L 173 170 A 0 0 0 0 1 173 170 L 158 170 A 0 0 0 0 1 158 170 L 158 150 A 0 0 0 0 1 158 150 Z" stroke="#ffffff" stroke-width="0" opacity="1" filter="none" class="highcharts-point"></path><path fill="#68AB2B" d="M 188 149 L 203 149 A 0 0 0 0 1 203 149 L 203 170 A 0 0 0 0 1 203 170 L 188 170 A 0 0 0 0 1 188 170 L 188 149 A 0 0 0 0 1 188 149 Z" stroke="#ffffff" stroke-width="0" opacity="1" filter="none" class="highcharts-point"></path><path fill="#68AB2B" d="M 218 150 L 233 150 A 0 0 0 0 1 233 150 L 233 170 A 0 0 0 0 1 233 170 L 218 170 A 0 0 0 0 1 218 170 L 218 150 A 0 0 0 0 1 218 150 Z" stroke="#ffffff" stroke-width="0" opacity="1" filter="none" class="highcharts-point"></path><path fill="#68AB2B" d="M 248 149 L 263 149 A 0 0 0 0 1 263 149 L 263 170 A 0 0 0 0 1 263 170 L 248 170 A 0 0 0 0 1 248 170 L 248 149 A 0 0 0 0 1 248 149 Z" stroke="#ffffff" stroke-width="0" opacity="1" filter="none" class="highcharts-point"></path><path fill="#68AB2B" d="M 278 150 L 293 150 A 0 0 0 0 1 293 150 L 293 170 A 0 0 0 0 1 293 170 L 278 170 A 0 0 0 0 1 278 170 L 278 150 A 0 0 0 0 1 278 150 Z" stroke="#ffffff" stroke-width="0" opacity="1" filter="none" class="highcharts-point"></path><path fill="#68AB2B" d="M 308 152 L 323 152 A 0 0 0 0 1 323 152 L 323 170 A 0 0 0 0 1 323 170 L 308 170 A 0 0 0 0 1 308 170 L 308 152 A 0 0 0 0 1 308 152 Z" stroke="#ffffff" stroke-width="0" opacity="1" filter="none" class="highcharts-point"></path><path fill="#68AB2B" d="M 338 153 L 353 153 A 0 0 0 0 1 353 153 L 353 170 A 0 0 0 0 1 353 170 L 338 170 A 0 0 0 0 1 338 170 L 338 153 A 0 0 0 0 1 338 153 Z" stroke="#ffffff" stroke-width="0" opacity="1" filter="none" class="highcharts-point"></path><path fill="#68AB2B" d="M 368 154 L 383 154 A 0 0 0 0 1 383 154 L 383 170 A 0 0 0 0 1 383 170 L 368 170 A 0 0 0 0 1 368 170 L 368 154 A 0 0 0 0 1 368 154 Z" stroke="#ffffff" stroke-width="0" opacity="1" filter="none" class="highcharts-point"></path><path fill="#68AB2B" d="M 399 156 L 414 156 A 0 0 0 0 1 414 156 L 414 170 A 0 0 0 0 1 414 170 L 399 170 A 0 0 0 0 1 399 170 L 399 156 A 0 0 0 0 1 399 156 Z" stroke="#ffffff" stroke-width="0" opacity="1" filter="none" class="highcharts-point"></path><path fill="#68AB2B" d="M 429 155 L 444 155 A 0 0 0 0 1 444 155 L 444 170 A 0 0 0 0 1 444 170 L 429 170 A 0 0 0 0 1 429 170 L 429 155 A 0 0 0 0 1 429 155 Z" stroke="#ffffff" stroke-width="0" opacity="1" filter="none" class="highcharts-point"></path><path fill="#68AB2B" d="M 459 159 L 474 159 A 0 0 0 0 1 474 159 L 474 170 A 0 0 0 0 1 474 170 L 459 170 A 0 0 0 0 1 459 170 L 459 159 A 0 0 0 0 1 459 159 Z" stroke="#ffffff" stroke-width="0" opacity="1" filter="none" class="highcharts-point"></path><path fill="#68AB2B" d="M 489 159 L 504 159 A 0 0 0 0 1 504 159 L 504 170 A 0 0 0 0 1 504 170 L 489 170 A 0 0 0 0 1 489 170 L 489 159 A 0 0 0 0 1 489 159 Z" stroke="#ffffff" stroke-width="0" opacity="1" filter="none" class="highcharts-point"></path><path fill="#68AB2B" d="M 519 158 L 534 158 A 0 0 0 0 1 534 158 L 534 170 A 0 0 0 0 1 534 170 L 519 170 A 0 0 0 0 1 519 170 L 519 158 A 0 0 0 0 1 519 158 Z" stroke="#ffffff" stroke-width="0" opacity="1" filter="none" class="highcharts-point"></path></g><g class="highcharts-markers highcharts-series-1 highcharts-column-series" data-z-index="0.1" opacity="1" transform="translate(49,128) scale(1 1)" clip-path="none"></g></g><text x="10" text-anchor="start" class="highcharts-caption" data-z-index="4" style="font-size: 0.8em; fill: rgb(102, 102, 102);" text-align="left" y="362" transform-origin="10 15" transform="translate(0,0) scale(1 1)"></text><g class="highcharts-axis-labels highcharts-xaxis-labels" data-z-index="7"><text x="67.32760942331544" text-anchor="end" transform="translate(0,0) rotate(-45 67.32760942331544 323)" style="cursor: default; font-size: 0.91666em; fill: rgb(0, 0, 0);" y="323" opacity="1">2006</text><text x="97.38316497886944" text-anchor="end" transform="translate(0,0) rotate(-45 97.38316497886944 323)" style="cursor: default; font-size: 0.91666em; fill: rgb(0, 0, 0);" y="323" opacity="1">2007</text><text x="127.43872053442945" text-anchor="end" transform="translate(0,0) rotate(-45 127.43872053442945 323)" style="cursor: default; font-size: 0.91666em; fill: rgb(0, 0, 0);" y="323" opacity="1">2008</text><text x="157.49427608997945" text-anchor="end" transform="translate(0,0) rotate(-45 157.49427608997945 323)" style="cursor: default; font-size: 0.91666em; fill: rgb(0, 0, 0);" y="323" opacity="1">2009</text><text x="187.54983164553943" text-anchor="end" transform="translate(0,0) rotate(-45 187.54983164553943 323)" style="cursor: default; font-size: 0.91666em; fill: rgb(0, 0, 0);" y="323" opacity="1">2010</text><text x="217.60538720108943" text-anchor="end" transform="translate(0,0) rotate(-45 217.60538720108943 323)" style="cursor: default; font-size: 0.91666em; fill: rgb(0, 0, 0);" y="323" opacity="1">2011</text><text x="247.66094275664943" text-anchor="end" transform="translate(0,0) rotate(-45 247.66094275664943 323)" style="cursor: default; font-size: 0.91666em; fill: rgb(0, 0, 0);" y="323" opacity="1">2012</text><text x="277.71649831219946" text-anchor="end" transform="translate(0,0) rotate(-45 277.71649831219946 323)" style="cursor: default; font-size: 0.91666em; fill: rgb(0, 0, 0);" y="323" opacity="1">2013</text><text x="307.77205386775944" text-anchor="end" transform="translate(0,0) rotate(-45 307.77205386775944 323)" style="cursor: default; font-size: 0.91666em; fill: rgb(0, 0, 0);" y="323" opacity="1">2014</text><text x="337.8276094233194" text-anchor="end" transform="translate(0,0) rotate(-45 337.8276094233194 323)" style="cursor: default; font-size: 0.91666em; fill: rgb(0, 0, 0);" y="323" opacity="1">2015</text><text x="367.88316497886944" text-anchor="end" transform="translate(0,0) rotate(-45 367.88316497886944 323)" style="cursor: default; font-size: 0.91666em; fill: rgb(0, 0, 0);" y="323" opacity="1">2016</text><text x="397.9387205344294" text-anchor="end" transform="translate(0,0) rotate(-45 397.9387205344294 323)" style="cursor: default; font-size: 0.91666em; fill: rgb(0, 0, 0);" y="323" opacity="1">2017</text><text x="427.99427608997945" text-anchor="end" transform="translate(0,0) rotate(-45 427.99427608997945 323)" style="cursor: default; font-size: 0.91666em; fill: rgb(0, 0, 0);" y="323" opacity="1">2018</text><text x="458.0498316455394" text-anchor="end" transform="translate(0,0) rotate(-45 458.0498316455394 323)" style="cursor: default; font-size: 0.91666em; fill: rgb(0, 0, 0);" y="323" opacity="1">2019</text><text x="488.10538720108946" text-anchor="end" transform="translate(0,0) rotate(-45 488.10538720108946 323)" style="cursor: default; font-size: 0.91666em; fill: rgb(0, 0, 0);" y="323" opacity="1">2020</text><text x="518.1609427566494" text-anchor="end" transform="translate(0,0) rotate(-45 518.1609427566494 323)" style="cursor: default; font-size: 0.91666em; fill: rgb(0, 0, 0);" y="323" opacity="1">2021</text><text x="548.2164983121994" text-anchor="end" transform="translate(0,0) rotate(-45 548.2164983121994 323)" style="cursor: default; font-size: 0.91666em; fill: rgb(0, 0, 0);" y="323" opacity="1">2022</text><text x="578.2720538677594" text-anchor="end" transform="translate(0,0) rotate(-45 578.2720538677594 323)" style="cursor: default; font-size: 0.91666em; fill: rgb(0, 0, 0);" y="323" opacity="1">2023</text></g><g class="highcharts-axis-labels highcharts-yaxis-labels" data-z-index="7"><text x="34" text-anchor="end" transform="translate(0,0)" style="cursor: default; font-size: 0.91666em; fill: rgb(0, 0, 0);" y="302" opacity="1">0</text><text x="34" text-anchor="end" transform="translate(0,0)" style="cursor: default; font-size: 0.91666em; fill: rgb(0, 0, 0);" y="260" opacity="1">10k</text><text x="34" text-anchor="end" transform="translate(0,0)" style="cursor: default; font-size: 0.91666em; fill: rgb(0, 0, 0);" y="217" opacity="1">20k</text><text x="34" text-anchor="end" transform="translate(0,0)" style="cursor: default; font-size: 0.91666em; fill: rgb(0, 0, 0);" y="175" opacity="1">30k</text><text x="34" text-anchor="end" transform="translate(0,0)" style="cursor: default; font-size: 0.91666em; fill: rgb(0, 0, 0);" y="132" opacity="1">40k</text></g><g class="highcharts-axis-labels highcharts-yaxis-labels" data-z-index="7"></g><g class="highcharts-legend highcharts-no-tooltip" data-z-index="7" text-align="left" transform="translate(37,71)"><rect fill="none" class="highcharts-legend-box" rx="0" ry="0" stroke="#999999" stroke-width="0" filter="none" x="0" y="0" width="327" height="45"></rect><g data-z-index="1"><g><g class="highcharts-legend-item highcharts-column-series highcharts-color-undefined highcharts-series-0" data-z-index="1" transform="translate(12,7)"><text x="21" text-anchor="start" data-z-index="2" style="cursor: pointer; font-size: 1em; text-decoration: none; font-weight: normal; fill: rgb(51, 51, 51);" y="21">Schlacke</text><rect x="0" y="6" rx="0" ry="0" width="16" height="16" fill="#73B97C" class="highcharts-point" data-z-index="3"></rect></g><g class="highcharts-legend-item highcharts-column-series highcharts-color-undefined highcharts-series-1" data-z-index="1" transform="translate(113.671875,7)"><text x="21" y="21" text-anchor="start" data-z-index="2" style="cursor: pointer; font-size: 1em; text-decoration: none; font-weight: normal; fill: rgb(51, 51, 51);">E-Filterstaub/Filterkuchen</text><rect x="0" y="6" rx="0" ry="0" width="16" height="16" fill="#68AB2B" class="highcharts-point" data-z-index="3"></rect></g></g></g></g></svg>