<?xml version="1.0" standalone="no"?><!DOCTYPE svg PUBLIC "-//W3C//DTD SVG 1.1//EN" "http://www.w3.org/Graphics/SVG/1.1/DTD/svg11.dtd"><svg xmlns:xlink="http://www.w3.org/1999/xlink" version="1.1" class="highcharts-root" style="font-family:Arial;font-size:12px;" xmlns="http://www.w3.org/2000/svg" viewBox="0 0 485 415"><desc>Created with Highcharts 8.1.2</desc><defs><clipPath id="highcharts-ggjmlw5-32-"><rect x="0" y="0" width="287" height="298" fill="none"></rect></clipPath><clipPath id="highcharts-ggjmlw5-38-"><rect x="0" y="0" width="287" height="298" fill="none"></rect></clipPath><clipPath id="highcharts-ggjmlw5-59-"><rect x="56" y="55" width="287" height="298" fill="none"></rect></clipPath></defs><rect fill="#fbfbfb" class="highcharts-background" x="0" y="0" width="485" height="428" rx="0" ry="0"></rect><rect fill="none" class="highcharts-plot-background" x="56" y="55" width="287" height="298"></rect><g class="highcharts-pane-group" data-z-index="0"></g><g class="highcharts-grid highcharts-xaxis-grid" data-z-index="1"><path fill="none" data-z-index="1" class="highcharts-grid-line" d="M 112.5 55 L 112.5 353" opacity="1"></path><path fill="none" data-z-index="1" class="highcharts-grid-line" d="M 170.5 55 L 170.5 353" opacity="1"></path><path fill="none" data-z-index="1" class="highcharts-grid-line" d="M 227.5 55 L 227.5 353" opacity="1"></path><path fill="none" data-z-index="1" class="highcharts-grid-line" d="M 285.5 55 L 285.5 353" opacity="1"></path><path fill="none" data-z-index="1" class="highcharts-grid-line" d="M 342.5 55 L 342.5 353" opacity="1"></path><path fill="none" data-z-index="1" class="highcharts-grid-line" d="M 55.5 55 L 55.5 353" opacity="1"></path></g><g class="highcharts-grid highcharts-yaxis-grid" data-z-index="1"><path fill="none" stroke="#B9CFD7" stroke-width="0.5" data-z-index="1" class="highcharts-grid-line" d="M 56 353.25 L 343 353.25" opacity="1"></path><path fill="none" stroke="#B9CFD7" stroke-width="0.5" data-z-index="1" class="highcharts-grid-line" d="M 56 323.25 L 343 323.25" opacity="1"></path><path fill="none" stroke="#B9CFD7" stroke-width="0.5" data-z-index="1" class="highcharts-grid-line" d="M 56 293.25 L 343 293.25" opacity="1"></path><path fill="none" stroke="#B9CFD7" stroke-width="0.5" data-z-index="1" class="highcharts-grid-line" d="M 56 264.25 L 343 264.25" opacity="1"></path><path fill="none" stroke="#B9CFD7" stroke-width="0.5" data-z-index="1" class="highcharts-grid-line" d="M 56 234.25 L 343 234.25" opacity="1"></path><path fill="none" stroke="#B9CFD7" stroke-width="0.5" data-z-index="1" class="highcharts-grid-line" d="M 56 204.25 L 343 204.25" opacity="1"></path><path fill="none" stroke="#B9CFD7" stroke-width="0.5" data-z-index="1" class="highcharts-grid-line" d="M 56 174.25 L 343 174.25" opacity="1"></path><path fill="none" stroke="#B9CFD7" stroke-width="0.5" data-z-index="1" class="highcharts-grid-line" d="M 56 144.25 L 343 144.25" opacity="1"></path><path fill="none" stroke="#B9CFD7" stroke-width="0.5" data-z-index="1" class="highcharts-grid-line" d="M 56 115.25 L 343 115.25" opacity="1"></path><path fill="none" stroke="#B9CFD7" stroke-width="0.5" data-z-index="1" class="highcharts-grid-line" d="M 56 85.25 L 343 85.25" opacity="1"></path><path fill="none" stroke="#B9CFD7" stroke-width="0.5" data-z-index="1" class="highcharts-grid-line" d="M 56 54.75 L 343 54.75" opacity="1"></path></g><rect fill="none" class="highcharts-plot-border" data-z-index="1" x="56" y="55" width="287" height="298"></rect><g class="highcharts-axis highcharts-xaxis" data-z-index="2"><path fill="none" class="highcharts-axis-line" stroke="#B9CFD7" stroke-width="0.5" data-z-index="7" d="M 56 353.25 L 343 353.25"></path></g><g class="highcharts-axis highcharts-yaxis" data-z-index="2"><path fill="none" class="highcharts-axis-line" data-z-index="7" d="M 56 55 L 56 353"></path></g><g class="highcharts-series-group" data-z-index="3"><g class="highcharts-series highcharts-series-0 highcharts-column-series" data-z-index="0.1" opacity="1" transform="translate(56,55) scale(1 1)" clip-path="url(#highcharts-ggjmlw5-38-)"><rect x="15" y="103" width="28" height="196" fill="#007A2F" opacity="1" class="highcharts-point"></rect><rect x="72" y="116" width="28" height="183" fill="#007A2F" opacity="1" class="highcharts-point"></rect><rect x="130" y="114" width="28" height="185" fill="#007A2F" opacity="1" class="highcharts-point"></rect><rect x="187" y="94" width="28" height="205" fill="#007A2F" opacity="1" class="highcharts-point"></rect><rect x="245" y="95" width="28" height="204" fill="#007A2F" opacity="1" class="highcharts-point"></rect></g><g class="highcharts-markers highcharts-series-0 highcharts-column-series" data-z-index="0.1" opacity="1" transform="translate(56,55) scale(1 1)" clip-path="none"></g><g class="highcharts-series highcharts-series-1 highcharts-column-series" data-z-index="0.1" opacity="1" transform="translate(56,55) scale(1 1)" clip-path="url(#highcharts-ggjmlw5-38-)"><rect x="15" y="20" width="28" height="83" fill="#73BA7C" opacity="1" class="highcharts-point"></rect><rect x="72" y="28" width="28" height="88" fill="#73BA7C" opacity="1" class="highcharts-point"></rect><rect x="130" y="22" width="28" height="92" fill="#73BA7C" opacity="1" class="highcharts-point"></rect><rect x="187" y="16" width="28" height="78" fill="#73BA7C" opacity="1" class="highcharts-point"></rect><rect x="245" y="10" width="28" height="85" fill="#73BA7C" opacity="1" class="highcharts-point"></rect></g><g class="highcharts-markers highcharts-series-1 highcharts-column-series" data-z-index="0.1" opacity="1" transform="translate(56,55) scale(1 1)" clip-path="none"></g><g class="highcharts-series highcharts-series-2 highcharts-column-series" data-z-index="0.1" opacity="1" transform="translate(56,55) scale(1 1)" clip-path="url(#highcharts-ggjmlw5-38-)"><rect x="15" y="19" width="28" height="1" fill="#C8C8C8" opacity="1" class="highcharts-point"></rect><rect x="72" y="27" width="28" height="1" fill="#C8C8C8" opacity="1" class="highcharts-point"></rect><rect x="130" y="21" width="28" height="1" fill="#C8C8C8" opacity="1" class="highcharts-point"></rect><rect x="187" y="16" width="28" height="0" fill="#C8C8C8" opacity="1" class="highcharts-point"></rect><rect x="245" y="9" width="28" height="1" fill="#C8C8C8" opacity="1" class="highcharts-point"></rect></g><g class="highcharts-markers highcharts-series-2 highcharts-column-series" data-z-index="0.1" opacity="1" transform="translate(56,55) scale(1 1)" clip-path="none"></g><g class="highcharts-series highcharts-series-3 highcharts-column-series" data-z-index="0.1" opacity="1" transform="translate(56,55) scale(1 1)" clip-path="url(#highcharts-ggjmlw5-38-)"><rect x="15" y="6" width="28" height="13" fill="#FFBB58" opacity="1" class="highcharts-point"></rect><rect x="72" y="4" width="28" height="23" fill="#FFBB58" opacity="1" class="highcharts-point"></rect><rect x="130" y="4" width="28" height="17" fill="#FFBB58" opacity="1" class="highcharts-point"></rect><rect x="187" y="4" width="28" height="12" fill="#FFBB58" opacity="1" class="highcharts-point"></rect><rect x="245" y="3" width="28" height="6" fill="#FFBB58" opacity="1" class="highcharts-point"></rect></g><g class="highcharts-markers highcharts-series-3 highcharts-column-series" data-z-index="0.1" opacity="1" transform="translate(56,55) scale(1 1)" clip-path="none"></g><g class="highcharts-series highcharts-series-4 highcharts-column-series" data-z-index="0.1" opacity="1" transform="translate(56,55) scale(1 1)" clip-path="url(#highcharts-ggjmlw5-38-)"><rect x="15" y="0" width="28" height="6" fill="#FF8028" opacity="1" class="highcharts-point"></rect><rect x="72" y="0" width="28" height="4" fill="#FF8028" opacity="1" class="highcharts-point"></rect><rect x="130" y="0" width="28" height="4" fill="#FF8028" opacity="1" class="highcharts-point"></rect><rect x="187" y="0" width="28" height="4" fill="#FF8028" opacity="1" class="highcharts-point"></rect><rect x="245" y="0" width="28" height="3" fill="#FF8028" opacity="1" class="highcharts-point"></rect></g><g class="highcharts-markers highcharts-series-4 highcharts-column-series" data-z-index="0.1" opacity="1" transform="translate(56,55) scale(1 1)" clip-path="none"></g></g><text x="10" text-anchor="start" class="highcharts-title" data-z-index="4" style="color:#000000;font-size:14px;font-weight:bold;fill:#000000;" y="21"><tspan>Beurteilung des Wohnquartiers</tspan></text><text x="10" text-anchor="start" class="highcharts-subtitle" data-z-index="4" style="color:#000000;font-size:12px;fill:#000000;" y="40"><tspan>«Wie gerne leben Sie in Ihrem Wohnquartier?»</tspan></text><text x="10" text-anchor="start" class="highcharts-caption" data-z-index="4" style="color:#666666;fill:#666666;" y="400"></text><g class="highcharts-legend" data-z-index="7" transform="translate(355,139)"><rect fill="none" class="highcharts-legend-box" rx="0" ry="0" x="0" y="0" width="119" height="121" visibility="visible"></rect><g data-z-index="1"><g><g class="highcharts-legend-item highcharts-column-series highcharts-color-undefined highcharts-series-4" data-z-index="1" transform="translate(8,3)"><text x="21" style="color:#333333;cursor:pointer;font-size:12px;font-weight:normal;fill:#333333;" text-anchor="start" data-z-index="2" y="15"><tspan>Ganz ungern</tspan></text><rect x="2" y="4" width="12" height="12" fill="#FF8028" class="highcharts-point" data-z-index="3"></rect></g><g class="highcharts-legend-item highcharts-column-series highcharts-color-undefined highcharts-series-3" data-z-index="1" transform="translate(8,22)"><text x="21" y="15" style="color:#333333;cursor:pointer;font-size:12px;font-weight:normal;fill:#333333;" text-anchor="start" data-z-index="2"><tspan>Eher ungern</tspan></text><rect x="2" y="4" width="12" height="12" fill="#FFBB58" class="highcharts-point" data-z-index="3"></rect></g><g class="highcharts-legend-item highcharts-column-series highcharts-color-undefined highcharts-series-2" data-z-index="1" transform="translate(8,41)"><text x="21" y="15" style="color:#333333;cursor:pointer;font-size:12px;font-weight:normal;fill:#333333;" text-anchor="start" data-z-index="2"><tspan>Weiss nicht /</tspan><tspan x="21" dy="15">keine Angabe</tspan></text><rect x="2" y="4" width="12" height="12" fill="#C8C8C8" class="highcharts-point" data-z-index="3"></rect></g><g class="highcharts-legend-item highcharts-column-series highcharts-color-undefined highcharts-series-1" data-z-index="1" transform="translate(8,75)"><text x="21" y="15" style="color:#333333;cursor:pointer;font-size:12px;font-weight:normal;fill:#333333;" text-anchor="start" data-z-index="2"><tspan>Eher gerne</tspan></text><rect x="2" y="4" width="12" height="12" fill="#73BA7C" class="highcharts-point" data-z-index="3"></rect></g><g class="highcharts-legend-item highcharts-column-series highcharts-color-undefined highcharts-series-0" data-z-index="1" transform="translate(8,94)"><text x="21" y="15" style="color:#333333;cursor:pointer;font-size:12px;font-weight:normal;fill:#333333;" text-anchor="start" data-z-index="2"><tspan>Sehr gerne</tspan></text><rect x="2" y="4" width="12" height="12" fill="#007A2F" class="highcharts-point" data-z-index="3"></rect></g></g></g></g><g class="highcharts-axis-labels highcharts-xaxis-labels" data-z-index="7"><text x="84.7" style="color:#000000;cursor:default;font-size:11px;fill:#000000;" text-anchor="middle" transform="translate(0,0)" y="372" opacity="1"><tspan>2003</tspan><tspan x="84.7" dy="14">(N=1265)</tspan></text><text x="142.10000000000002" style="color:#000000;cursor:default;font-size:11px;fill:#000000;" text-anchor="middle" transform="translate(0,0)" y="372" opacity="1"><tspan>2005</tspan><tspan x="142.10000000000002" dy="14">(N=1312)</tspan></text><text x="199.5" style="color:#000000;cursor:default;font-size:11px;fill:#000000;" text-anchor="middle" transform="translate(0,0)" y="372" opacity="1"><tspan>2007</tspan><tspan x="199.5" dy="14">(N=1304)</tspan></text><text x="256.90000000000003" style="color:#000000;cursor:default;font-size:11px;fill:#000000;" text-anchor="middle" transform="translate(0,0)" y="372" opacity="1"><tspan>2011</tspan><tspan x="256.90000000000003" dy="14">(N=1285)</tspan></text><text x="314.3" style="color:#000000;cursor:default;font-size:11px;fill:#000000;" text-anchor="middle" transform="translate(0,0)" y="372" opacity="1"><tspan>2015</tspan><tspan x="314.3" dy="14">(N=1276)</tspan></text></g><g class="highcharts-axis-labels highcharts-yaxis-labels" data-z-index="7"><text x="41" style="color:#000000;cursor:default;font-size:11px;fill:#000000;" text-anchor="end" transform="translate(0,0)" y="358" opacity="1">0%</text><text x="41" style="color:#000000;cursor:default;font-size:11px;fill:#000000;" text-anchor="end" transform="translate(0,0)" y="328" opacity="1">10%</text><text x="41" style="color:#000000;cursor:default;font-size:11px;fill:#000000;" text-anchor="end" transform="translate(0,0)" y="298" opacity="1">20%</text><text x="41" style="color:#000000;cursor:default;font-size:11px;fill:#000000;" text-anchor="end" transform="translate(0,0)" y="268" opacity="1">30%</text><text x="41" style="color:#000000;cursor:default;font-size:11px;fill:#000000;" text-anchor="end" transform="translate(0,0)" y="238" opacity="1">40%</text><text x="41" style="color:#000000;cursor:default;font-size:11px;fill:#000000;" text-anchor="end" transform="translate(0,0)" y="209" opacity="1">50%</text><text x="41" style="color:#000000;cursor:default;font-size:11px;fill:#000000;" text-anchor="end" transform="translate(0,0)" y="179" opacity="1">60%</text><text x="41" style="color:#000000;cursor:default;font-size:11px;fill:#000000;" text-anchor="end" transform="translate(0,0)" y="149" opacity="1">70%</text><text x="41" style="color:#000000;cursor:default;font-size:11px;fill:#000000;" text-anchor="end" transform="translate(0,0)" y="119" opacity="1">80%</text><text x="41" style="color:#000000;cursor:default;font-size:11px;fill:#000000;" text-anchor="end" transform="translate(0,0)" y="89" opacity="1">90%</text><text x="41" style="color:#000000;cursor:default;font-size:11px;fill:#000000;" text-anchor="end" transform="translate(0,0)" y="60" opacity="1">100%</text></g><text x="10" class="highcharts-credits" text-anchor="start" data-z-index="8" style="cursor:default;color:#000000;font-size:10px;fill:#000000;" y="403"><tspan>Quelle: Statistisches Amt Basel-Stadt, kantonale Bevölkerungsbefragung: F2b.</tspan><tspan x="10" dy="13">Zuletzt geändert: 2016-9-21</tspan></text><g class="highcharts-control-points" data-z-index="99" clip-path="url(#highcharts-ggjmlw5-59-)"></g></svg>