<?xml version="1.0" standalone="no"?>
<!DOCTYPE svg PUBLIC "-//W3C//DTD SVG 1.1//EN" "http://www.w3.org/Graphics/SVG/1.1/DTD/svg11.dtd">
<svg xmlns:xlink="http://www.w3.org/1999/xlink" version="1.1" class="highcharts-root" style="font-family:arial;font-size:12px;" xmlns="http://www.w3.org/2000/svg" viewBox="0 0 485 415">
  <desc>
    Created with Highstock 5.0.14
  </desc>
  <defs>
    <clipPath>
      <rect x="0" y="0" width="306" height="295" fill="none"/>
    </clipPath>
    <clipPath id="a">
      <rect x="0" y="0" width="306" height="295" fill="none"/>
    </clipPath>
  </defs>
  <rect fill="#fbfbfb" class="highcharts-background" x="0" y="0" width="485" height="415" rx="0" ry="0"/>
  <rect fill="none" class="highcharts-plot-background" x="47" y="55" width="306" height="295"/>
  <g class="highcharts-pane-group"/>
  <g class="highcharts-grid highcharts-xaxis-grid ">
    <path fill="none" class="highcharts-grid-line" d="M 107.5 55 L 107.5 350" opacity="1"/>
    <path fill="none" class="highcharts-grid-line" d="M 168.5 55 L 168.5 350" opacity="1"/>
    <path fill="none" class="highcharts-grid-line" d="M 230.5 55 L 230.5 350" opacity="1"/>
    <path fill="none" class="highcharts-grid-line" d="M 291.5 55 L 291.5 350" opacity="1"/>
    <path fill="none" class="highcharts-grid-line" d="M 352.5 55 L 352.5 350" opacity="1"/>
    <path fill="none" class="highcharts-grid-line" d="M 46.5 55 L 46.5 350" opacity="1"/>
  </g>
  <g class="highcharts-grid highcharts-yaxis-grid ">
    <path fill="none" stroke="#B9CFD7" stroke-width="0.5" class="highcharts-grid-line" d="M 47 350.25 L 353 350.25" opacity="1"/>
    <path fill="none" stroke="#B9CFD7" stroke-width="0.5" class="highcharts-grid-line" d="M 47 313.25 L 353 313.25" opacity="1"/>
    <path fill="none" stroke="#B9CFD7" stroke-width="0.5" class="highcharts-grid-line" d="M 47 276.25 L 353 276.25" opacity="1"/>
    <path fill="none" stroke="#B9CFD7" stroke-width="0.5" class="highcharts-grid-line" d="M 47 239.25 L 353 239.25" opacity="1"/>
    <path fill="none" stroke="#B9CFD7" stroke-width="0.5" class="highcharts-grid-line" d="M 47 203.25 L 353 203.25" opacity="1"/>
    <path fill="none" stroke="#B9CFD7" stroke-width="0.5" class="highcharts-grid-line" d="M 47 166.25 L 353 166.25" opacity="1"/>
    <path fill="none" stroke="#B9CFD7" stroke-width="0.5" class="highcharts-grid-line" d="M 47 129.25 L 353 129.25" opacity="1"/>
    <path fill="none" stroke="#B9CFD7" stroke-width="0.5" class="highcharts-grid-line" d="M 47 92.25 L 353 92.25" opacity="1"/>
    <path fill="none" stroke="#B9CFD7" stroke-width="0.5" class="highcharts-grid-line" d="M 47 54.75 L 353 54.75" opacity="1"/>
  </g>
  <rect fill="none" class="highcharts-plot-border" x="47" y="55" width="306" height="295"/>
  <g class="highcharts-axis highcharts-xaxis ">
    <path fill="none" class="highcharts-tick" stroke="#FFFFFF" stroke-width="1" d="M 107.5 350 L 107.5 360" opacity="1"/>
    <path fill="none" class="highcharts-tick" stroke="#FFFFFF" stroke-width="1" d="M 168.5 350 L 168.5 360" opacity="1"/>
    <path fill="none" class="highcharts-tick" stroke="#FFFFFF" stroke-width="1" d="M 230.5 350 L 230.5 360" opacity="1"/>
    <path fill="none" class="highcharts-tick" stroke="#FFFFFF" stroke-width="1" d="M 291.5 350 L 291.5 360" opacity="1"/>
    <path fill="none" class="highcharts-tick" stroke="#FFFFFF" stroke-width="1" d="M 352.5 350 L 352.5 360" opacity="1"/>
    <path fill="none" class="highcharts-tick" stroke="#FFFFFF" stroke-width="1" d="M 46.5 350 L 46.5 360" opacity="1"/>
    <path fill="none" class="highcharts-axis-line" stroke="#B9CFD7" stroke-width="0.5" d="M 47 350.25 L 353 350.25"/>
  </g>
  <g class="highcharts-axis highcharts-yaxis ">
    <path fill="none" class="highcharts-axis-line" d="M 47 55 L 47 350"/>
  </g>
  <g class="highcharts-series-group">
    <g class="highcharts-series highcharts-series-0 highcharts-column-series highcharts-color-undefined " transform="translate(47,55) scale(1 1)" clip-path="url(#a)">
      <rect x="13" y="53" width="6" height="243" fill="#007A2F" class="highcharts-point"/>
      <rect x="74" y="69" width="6" height="227" fill="#007A2F" class="highcharts-point"/>
      <rect x="135" y="67" width="6" height="229" fill="#007A2F" class="highcharts-point"/>
      <rect x="197" y="42" width="6" height="254" fill="#007A2F" class="highcharts-point"/>
      <rect x="258" y="44" width="6" height="252" fill="#007A2F" class="highcharts-point"/>
    </g>
    <g class="highcharts-markers highcharts-series-0 highcharts-column-series highcharts-color-undefined " transform="translate(47,55) scale(1 1)" clip-path="none"/>
    <g class="highcharts-series highcharts-series-1 highcharts-column-series highcharts-color-undefined " transform="translate(47,55) scale(1 1)" clip-path="url(#a)">
      <rect x="20" y="193" width="6" height="103" fill="#73BA7C" class="highcharts-point"/>
      <rect x="82" y="187" width="6" height="109" fill="#73BA7C" class="highcharts-point"/>
      <rect x="143" y="182" width="6" height="114" fill="#73BA7C" class="highcharts-point"/>
      <rect x="204" y="200" width="6" height="96" fill="#73BA7C" class="highcharts-point"/>
      <rect x="265" y="190" width="6" height="106" fill="#73BA7C" class="highcharts-point"/>
    </g>
    <g class="highcharts-markers highcharts-series-1 highcharts-column-series highcharts-color-undefined " transform="translate(47,55) scale(1 1)" clip-path="none"/>
    <g class="highcharts-series highcharts-series-2 highcharts-column-series highcharts-color-undefined " transform="translate(47,55) scale(1 1)" clip-path="url(#a)">
      <rect x="28" y="295" width="6" height="1" fill="#C8C8C8" class="highcharts-point"/>
      <rect x="89" y="295" width="6" height="1" fill="#C8C8C8" class="highcharts-point"/>
      <rect x="150" y="295" width="6" height="1" fill="#C8C8C8" class="highcharts-point"/>
      <rect x="211" y="296" width="6" height="0" fill="#C8C8C8" class="highcharts-point"/>
      <rect x="272" y="295" width="6" height="1" fill="#C8C8C8" class="highcharts-point"/>
    </g>
    <g class="highcharts-markers highcharts-series-2 highcharts-column-series highcharts-color-undefined " transform="translate(47,55) scale(1 1)" clip-path="none"/>
    <g class="highcharts-series highcharts-series-3 highcharts-column-series highcharts-color-undefined " transform="translate(47,55) scale(1 1)" clip-path="url(#a)">
      <rect x="35" y="280" width="6" height="16" fill="#FFBB58" class="highcharts-point"/>
      <rect x="96" y="268" width="6" height="28" fill="#FFBB58" class="highcharts-point"/>
      <rect x="157" y="275" width="6" height="21" fill="#FFBB58" class="highcharts-point"/>
      <rect x="219" y="281" width="6" height="15" fill="#FFBB58" class="highcharts-point"/>
      <rect x="280" y="288" width="6" height="8" fill="#FFBB58" class="highcharts-point"/>
    </g>
    <g class="highcharts-markers highcharts-series-3 highcharts-column-series highcharts-color-undefined " transform="translate(47,55) scale(1 1)" clip-path="none"/>
    <g class="highcharts-series highcharts-series-4 highcharts-column-series highcharts-color-undefined " transform="translate(47,55) scale(1 1)" clip-path="url(#a)">
      <rect x="42" y="290" width="6" height="6" fill="#FF8028" class="highcharts-point"/>
      <rect x="104" y="292" width="6" height="4" fill="#FF8028" class="highcharts-point"/>
      <rect x="165" y="293" width="6" height="3" fill="#FF8028" class="highcharts-point"/>
      <rect x="226" y="292" width="6" height="4" fill="#FF8028" class="highcharts-point"/>
      <rect x="287" y="293" width="6" height="3" fill="#FF8028" class="highcharts-point"/>
    </g>
    <g class="highcharts-markers highcharts-series-4 highcharts-column-series highcharts-color-undefined " transform="translate(47,55) scale(1 1)" clip-path="none"/>
  </g>
  <text x="10" text-anchor="start" class="highcharts-title" style="color:#000000;font-size:14px;font-weight:bold;fill:#000000;" y="21">
    <tspan>Beurteilung des Wohnquartiers</tspan>
  </text>
  <text x="10" text-anchor="start" class="highcharts-subtitle" style="color:#000000;font-size:12px;fill:#000000;" y="40">
    <tspan>«Wie gerne leben Sie in Ihrem Wohnquartier?»</tspan>
  </text>
  <g class="highcharts-legend" transform="translate(365,137)">
    <rect fill="none" class="highcharts-legend-box" rx="0" ry="0" x="0" y="0" width="110" height="121" visibility="visible"/>
    <g>
      <g>
        <g class="highcharts-legend-item highcharts-column-series highcharts-color-undefined highcharts-series-4" transform="translate(8,3)">
          <text x="21" style="color:#333333;font-size:12px;font-weight:normal;cursor:pointer;fill:#333333;" text-anchor="start" y="15">
            <tspan>Ganz ungern</tspan>
          </text>
          <rect x="2" y="4" width="12" height="12" fill="#FF8028" class="highcharts-point"/>
        </g>
        <g class="highcharts-legend-item highcharts-column-series highcharts-color-undefined highcharts-series-3" transform="translate(8,22)">
          <text x="21" y="15" style="color:#333333;font-size:12px;font-weight:normal;cursor:pointer;fill:#333333;" text-anchor="start">
            <tspan>Eher ungern</tspan>
          </text>
          <rect x="2" y="4" width="12" height="12" fill="#FFBB58" class="highcharts-point"/>
        </g>
        <g class="highcharts-legend-item highcharts-column-series highcharts-color-undefined highcharts-series-2" transform="translate(8,41)">
          <text x="21" y="15" style="color:#333333;font-size:12px;font-weight:normal;cursor:pointer;fill:#333333;" text-anchor="start">
            <tspan>Weiss nicht /</tspan><tspan x="21" dy="15">keine Angabe</tspan>
          </text>
          <rect x="2" y="4" width="12" height="12" fill="#C8C8C8" class="highcharts-point"/>
        </g>
        <g class="highcharts-legend-item highcharts-column-series highcharts-color-undefined highcharts-series-1" transform="translate(8,75)">
          <text x="21" y="15" style="color:#333333;font-size:12px;font-weight:normal;cursor:pointer;fill:#333333;" text-anchor="start">
            <tspan>Eher gerne</tspan>
          </text>
          <rect x="2" y="4" width="12" height="12" fill="#73BA7C" class="highcharts-point"/>
        </g>
        <g class="highcharts-legend-item highcharts-column-series highcharts-color-undefined highcharts-series-0" transform="translate(8,94)">
          <text x="21" y="15" style="color:#333333;font-size:12px;font-weight:normal;cursor:pointer;fill:#333333;" text-anchor="start">
            <tspan>Sehr gerne</tspan>
          </text>
          <rect x="2" y="4" width="12" height="12" fill="#007A2F" class="highcharts-point"/>
        </g>
      </g>
    </g>
  </g>
  <g class="highcharts-axis-labels highcharts-xaxis-labels ">
    <text x="77.6" style="color:#000000;cursor:default;font-size:11px;fill:#000000;" text-anchor="middle" transform="translate(0,0)" y="369" opacity="1">
      <tspan>2003</tspan><tspan x="77.6" dy="14">(N=1265)</tspan>
    </text>
    <text x="138.8" style="color:#000000;cursor:default;font-size:11px;fill:#000000;" text-anchor="middle" transform="translate(0,0)" y="369" opacity="1">
      <tspan>2005</tspan><tspan x="138.8" dy="14">(N=1312)</tspan>
    </text>
    <text x="200" style="color:#000000;cursor:default;font-size:11px;fill:#000000;" text-anchor="middle" transform="translate(0,0)" y="369" opacity="1">
      <tspan>2007</tspan><tspan x="200" dy="14">(N=1304)</tspan>
    </text>
    <text x="261.2" style="color:#000000;cursor:default;font-size:11px;fill:#000000;" text-anchor="middle" transform="translate(0,0)" y="369" opacity="1">
      <tspan>2011</tspan><tspan x="261.2" dy="14">(N=1285)</tspan>
    </text>
    <text x="322.40000000000003" style="color:#000000;cursor:default;font-size:11px;fill:#000000;" text-anchor="middle" transform="translate(0,0)" y="369" opacity="1">
      <tspan>2015</tspan><tspan x="322.40000000000003" dy="14">(N=1276)</tspan>
    </text>
  </g>
  <g class="highcharts-axis-labels highcharts-yaxis-labels ">
    <text x="32" style="color:#000000;cursor:default;font-size:11px;fill:#000000;" text-anchor="end" transform="translate(0,0)" y="355" opacity="1">
      <tspan>0%</tspan>
    </text>
    <text x="32" style="color:#000000;cursor:default;font-size:11px;fill:#000000;" text-anchor="end" transform="translate(0,0)" y="318" opacity="1">
      <tspan>10%</tspan>
    </text>
    <text x="32" style="color:#000000;cursor:default;font-size:11px;fill:#000000;" text-anchor="end" transform="translate(0,0)" y="281" opacity="1">
      <tspan>20%</tspan>
    </text>
    <text x="32" style="color:#000000;cursor:default;font-size:11px;fill:#000000;" text-anchor="end" transform="translate(0,0)" y="244" opacity="1">
      <tspan>30%</tspan>
    </text>
    <text x="32" style="color:#000000;cursor:default;font-size:11px;fill:#000000;" text-anchor="end" transform="translate(0,0)" y="207" opacity="1">
      <tspan>40%</tspan>
    </text>
    <text x="32" style="color:#000000;cursor:default;font-size:11px;fill:#000000;" text-anchor="end" transform="translate(0,0)" y="170" opacity="1">
      <tspan>50%</tspan>
    </text>
    <text x="32" style="color:#000000;cursor:default;font-size:11px;fill:#000000;" text-anchor="end" transform="translate(0,0)" y="133" opacity="1">
      <tspan>60%</tspan>
    </text>
    <text x="32" style="color:#000000;cursor:default;font-size:11px;fill:#000000;" text-anchor="end" transform="translate(0,0)" y="96" opacity="1">
      <tspan>70%</tspan>
    </text>
    <text x="32" style="color:#000000;cursor:default;font-size:11px;fill:#000000;" text-anchor="end" transform="translate(0,0)" y="60" opacity="1">
      <tspan>80%</tspan>
    </text>
  </g>
  <text x="10" class="highcharts-credits" text-anchor="start" style="cursor:default;color:#000000;font-size:10px;fill:#000000;" y="400">
    <tspan>Quelle: Statistisches Amt Basel-Stadt, kantonale Bevölkerungsbefragung: F2b</tspan>
  </text>
</svg>
