<?xml version="1.0" standalone="no"?>
<!DOCTYPE svg PUBLIC "-//W3C//DTD SVG 1.1//EN" "http://www.w3.org/Graphics/SVG/1.1/DTD/svg11.dtd">
<svg xmlns:xlink="http://www.w3.org/1999/xlink" version="1.1" class="highcharts-root" style="font-family:Arial;font-size:12px;" xmlns="http://www.w3.org/2000/svg" viewBox="0 0 485 415">
  <desc>
    Created with Highstock 6.0.3
  </desc>
  <defs>
    <clipPath>
      <rect x="0" y="0" width="305" height="280" fill="none"/>
    </clipPath>
    <clipPath id="a">
      <rect x="0" y="0" width="305" height="280" fill="none"/>
    </clipPath>
  </defs>
  <rect fill="#fbfbfb" class="highcharts-background" x="0" y="0" width="485" height="415" rx="0" ry="0"/>
  <rect fill="none" class="highcharts-plot-background" x="47" y="70" width="305" height="280"/>
  <g class="highcharts-pane-group"/>
  <g class="highcharts-grid highcharts-xaxis-grid ">
    <path fill="none" class="highcharts-grid-line" d="M 107.5 70 L 107.5 350" opacity="1"/>
    <path fill="none" class="highcharts-grid-line" d="M 168.5 70 L 168.5 350" opacity="1"/>
    <path fill="none" class="highcharts-grid-line" d="M 229.5 70 L 229.5 350" opacity="1"/>
    <path fill="none" class="highcharts-grid-line" d="M 290.5 70 L 290.5 350" opacity="1"/>
    <path fill="none" class="highcharts-grid-line" d="M 351.5 70 L 351.5 350" opacity="1"/>
    <path fill="none" class="highcharts-grid-line" d="M 46.5 70 L 46.5 350" opacity="1"/>
  </g>
  <g class="highcharts-grid highcharts-yaxis-grid ">
    <path fill="none" stroke="#B9CFD7" stroke-width="0.5" class="highcharts-grid-line" d="M 47 350.25 L 352 350.25" opacity="1"/>
    <path fill="none" stroke="#B9CFD7" stroke-width="0.5" class="highcharts-grid-line" d="M 47 310.25 L 352 310.25" opacity="1"/>
    <path fill="none" stroke="#B9CFD7" stroke-width="0.5" class="highcharts-grid-line" d="M 47 270.25 L 352 270.25" opacity="1"/>
    <path fill="none" stroke="#B9CFD7" stroke-width="0.5" class="highcharts-grid-line" d="M 47 230.25 L 352 230.25" opacity="1"/>
    <path fill="none" stroke="#B9CFD7" stroke-width="0.5" class="highcharts-grid-line" d="M 47 190.25 L 352 190.25" opacity="1"/>
    <path fill="none" stroke="#B9CFD7" stroke-width="0.5" class="highcharts-grid-line" d="M 47 150.25 L 352 150.25" opacity="1"/>
    <path fill="none" stroke="#B9CFD7" stroke-width="0.5" class="highcharts-grid-line" d="M 47 110.25 L 352 110.25" opacity="1"/>
    <path fill="none" stroke="#B9CFD7" stroke-width="0.5" class="highcharts-grid-line" d="M 47 69.75 L 352 69.75" opacity="1"/>
  </g>
  <rect fill="none" class="highcharts-plot-border" x="47" y="70" width="305" height="280"/>
  <g class="highcharts-axis highcharts-xaxis ">
    <path fill="none" class="highcharts-axis-line" stroke="#B9CFD7" stroke-width="0.5" d="M 47 350.25 L 352 350.25"/>
  </g>
  <g class="highcharts-axis highcharts-yaxis ">
    <path fill="none" class="highcharts-axis-line" d="M 47 70 L 47 350"/>
  </g>
  <g class="highcharts-series-group">
    <g class="highcharts-series highcharts-series-0 highcharts-column-series " transform="translate(47,70) scale(1 1)" clip-path="url(#a)">
      <rect x="13" y="255" width="6" height="26" fill="#007A2F" class="highcharts-point"/>
      <rect x="74" y="258" width="6" height="23" fill="#007A2F" class="highcharts-point"/>
      <rect x="135" y="266" width="6" height="15" fill="#007A2F" class="highcharts-point"/>
      <rect x="196" y="245" width="6" height="36" fill="#007A2F" class="highcharts-point"/>
      <rect x="257" y="247" width="6" height="34" fill="#007A2F" class="highcharts-point"/>
    </g>
    <g class="highcharts-markers highcharts-series-0 highcharts-column-series " transform="translate(47,70) scale(1 1)" clip-path="none"/>
    <g class="highcharts-series highcharts-series-1 highcharts-column-series " transform="translate(47,70) scale(1 1)" clip-path="url(#a)">
      <rect x="20" y="73" width="6" height="208" fill="#73BA7C" class="highcharts-point"/>
      <rect x="81" y="55" width="6" height="226" fill="#73BA7C" class="highcharts-point"/>
      <rect x="142" y="85" width="6" height="196" fill="#73BA7C" class="highcharts-point"/>
      <rect x="203" y="31" width="6" height="250" fill="#73BA7C" class="highcharts-point"/>
      <rect x="264" y="43" width="6" height="238" fill="#73BA7C" class="highcharts-point"/>
    </g>
    <g class="highcharts-markers highcharts-series-1 highcharts-column-series " transform="translate(47,70) scale(1 1)" clip-path="none"/>
    <g class="highcharts-series highcharts-series-2 highcharts-column-series " transform="translate(47,70) scale(1 1)" clip-path="url(#a)">
      <rect x="28" y="203" width="6" height="78" fill="#C8C8C8" class="highcharts-point"/>
      <rect x="89" y="217" width="6" height="64" fill="#C8C8C8" class="highcharts-point"/>
      <rect x="150" y="208" width="6" height="73" fill="#C8C8C8" class="highcharts-point"/>
      <rect x="211" y="249" width="6" height="32" fill="#C8C8C8" class="highcharts-point"/>
      <rect x="272" y="251" width="6" height="30" fill="#C8C8C8" class="highcharts-point"/>
    </g>
    <g class="highcharts-markers highcharts-series-2 highcharts-column-series " transform="translate(47,70) scale(1 1)" clip-path="none"/>
    <g class="highcharts-series highcharts-series-3 highcharts-column-series " transform="translate(47,70) scale(1 1)" clip-path="url(#a)">
      <rect x="35" y="204" width="6" height="77" fill="#FFBB58" class="highcharts-point"/>
      <rect x="96" y="204" width="6" height="77" fill="#FFBB58" class="highcharts-point"/>
      <rect x="157" y="177" width="6" height="104" fill="#FFBB58" class="highcharts-point"/>
      <rect x="218" y="208" width="6" height="73" fill="#FFBB58" class="highcharts-point"/>
      <rect x="279" y="195" width="6" height="86" fill="#FFBB58" class="highcharts-point"/>
    </g>
    <g class="highcharts-markers highcharts-series-3 highcharts-column-series " transform="translate(47,70) scale(1 1)" clip-path="none"/>
    <g class="highcharts-series highcharts-series-4 highcharts-column-series " transform="translate(47,70) scale(1 1)" clip-path="url(#a)">
      <rect x="42" y="270" width="6" height="11" fill="#FF8028" class="highcharts-point"/>
      <rect x="103" y="271" width="6" height="10" fill="#FF8028" class="highcharts-point"/>
      <rect x="164" y="268" width="6" height="13" fill="#FF8028" class="highcharts-point"/>
      <rect x="225" y="271" width="6" height="10" fill="#FF8028" class="highcharts-point"/>
      <rect x="286" y="270" width="6" height="11" fill="#FF8028" class="highcharts-point"/>
    </g>
    <g class="highcharts-markers highcharts-series-4 highcharts-column-series " transform="translate(47,70) scale(1 1)" clip-path="none"/>
  </g>
  <text x="10" text-anchor="start" class="highcharts-title" style="color:#000000;font-size:14px;font-weight:bold;fill:#000000;" y="21">
    <tspan>Vertretung der Anliegen der Bevölkerung durch Behörden</tspan>
  </text>
  <text x="10" text-anchor="start" class="highcharts-subtitle" style="color:#000000;font-size:12px;fill:#000000;" y="40">
    <tspan>«Wie gut vertreten die Behörden, also der Regierungsrat und der Grosse Rat,</tspan><tspan dy="15" x="10">die Anliegen der Bevölkerung?»</tspan><title>«Wie gut vertreten die Behörden, also der Regierungsrat und der Grosse Rat, die Anliegen der Bevölkerung?»</title>
  </text>
  <g class="highcharts-legend" transform="translate(364,137)">
    <rect fill="none" class="highcharts-legend-box" rx="0" ry="0" x="0" y="0" width="110" height="121" visibility="visible"/>
    <g>
      <g>
        <g class="highcharts-legend-item highcharts-column-series highcharts-color-undefined highcharts-series-4" transform="translate(8,3)">
          <text x="21" style="color:#333333;font-size:12px;font-weight:normal;cursor:pointer;fill:#333333;" text-anchor="start" y="15">
            <tspan>Gar nicht gut</tspan>
          </text>
          <rect x="2" y="4" width="12" height="12" fill="#FF8028" class="highcharts-point"/>
        </g>
        <g class="highcharts-legend-item highcharts-column-series highcharts-color-undefined highcharts-series-3" transform="translate(8,22)">
          <text x="21" y="15" style="color:#333333;font-size:12px;font-weight:normal;cursor:pointer;fill:#333333;" text-anchor="start">
            <tspan>Eher nicht gut</tspan>
          </text>
          <rect x="2" y="4" width="12" height="12" fill="#FFBB58" class="highcharts-point"/>
        </g>
        <g class="highcharts-legend-item highcharts-column-series highcharts-color-undefined highcharts-series-2" transform="translate(8,41)">
          <text x="21" y="15" style="color:#333333;font-size:12px;font-weight:normal;cursor:pointer;fill:#333333;" text-anchor="start">
            <tspan>Weiss nicht /</tspan><tspan x="21" dy="15">keine Angabe</tspan>
          </text>
          <rect x="2" y="4" width="12" height="12" fill="#C8C8C8" class="highcharts-point"/>
        </g>
        <g class="highcharts-legend-item highcharts-column-series highcharts-color-undefined highcharts-series-1" transform="translate(8,75)">
          <text x="21" y="15" style="color:#333333;font-size:12px;font-weight:normal;cursor:pointer;fill:#333333;" text-anchor="start">
            <tspan>Eher gut</tspan>
          </text>
          <rect x="2" y="4" width="12" height="12" fill="#73BA7C" class="highcharts-point"/>
        </g>
        <g class="highcharts-legend-item highcharts-column-series highcharts-color-undefined highcharts-series-0" transform="translate(8,94)">
          <text x="21" y="15" style="color:#333333;font-size:12px;font-weight:normal;cursor:pointer;fill:#333333;" text-anchor="start">
            <tspan>Sehr gut</tspan>
          </text>
          <rect x="2" y="4" width="12" height="12" fill="#007A2F" class="highcharts-point"/>
        </g>
      </g>
    </g>
  </g>
  <g class="highcharts-axis-labels highcharts-xaxis-labels ">
    <text x="77.5" style="color:#000000;cursor:default;font-size:11px;fill:#000000;" text-anchor="middle" transform="translate(0,0)" y="369" opacity="1">
      <tspan>2003</tspan><tspan x="77.5" dy="14">(N=1497)</tspan>
    </text>
    <text x="138.5" style="color:#000000;cursor:default;font-size:11px;fill:#000000;" text-anchor="middle" transform="translate(0,0)" y="369" opacity="1">
      <tspan>2005</tspan><tspan x="138.5" dy="14">(N=1510)</tspan>
    </text>
    <text x="199.5" style="color:#000000;cursor:default;font-size:11px;fill:#000000;" text-anchor="middle" transform="translate(0,0)" y="369" opacity="1">
      <tspan>2007</tspan><tspan x="199.5" dy="14">(N=1509)</tspan>
    </text>
    <text x="260.5" style="color:#000000;cursor:default;font-size:11px;fill:#000000;" text-anchor="middle" transform="translate(0,0)" y="369" opacity="1">
      <tspan>2011</tspan><tspan x="260.5" dy="14">(N=1516)</tspan>
    </text>
    <text x="321.5" style="color:#000000;cursor:default;font-size:11px;fill:#000000;" text-anchor="middle" transform="translate(0,0)" y="369" opacity="1">
      <tspan>2015</tspan><tspan x="321.5" dy="14">(N=1506)</tspan>
    </text>
  </g>
  <g class="highcharts-axis-labels highcharts-yaxis-labels ">
    <text x="32" style="color:#000000;cursor:default;font-size:11px;fill:#000000;" text-anchor="end" transform="translate(0,0)" y="355" opacity="1">
      <tspan>0%</tspan>
    </text>
    <text x="32" style="color:#000000;cursor:default;font-size:11px;fill:#000000;" text-anchor="end" transform="translate(0,0)" y="315" opacity="1">
      <tspan>10%</tspan>
    </text>
    <text x="32" style="color:#000000;cursor:default;font-size:11px;fill:#000000;" text-anchor="end" transform="translate(0,0)" y="275" opacity="1">
      <tspan>20%</tspan>
    </text>
    <text x="32" style="color:#000000;cursor:default;font-size:11px;fill:#000000;" text-anchor="end" transform="translate(0,0)" y="235" opacity="1">
      <tspan>30%</tspan>
    </text>
    <text x="32" style="color:#000000;cursor:default;font-size:11px;fill:#000000;" text-anchor="end" transform="translate(0,0)" y="195" opacity="1">
      <tspan>40%</tspan>
    </text>
    <text x="32" style="color:#000000;cursor:default;font-size:11px;fill:#000000;" text-anchor="end" transform="translate(0,0)" y="155" opacity="1">
      <tspan>50%</tspan>
    </text>
    <text x="32" style="color:#000000;cursor:default;font-size:11px;fill:#000000;" text-anchor="end" transform="translate(0,0)" y="115" opacity="1">
      <tspan>60%</tspan>
    </text>
    <text x="32" style="color:#000000;cursor:default;font-size:11px;fill:#000000;" text-anchor="end" transform="translate(0,0)" y="75" opacity="1">
      <tspan>70%</tspan>
    </text>
  </g>
  <text x="10" class="highcharts-credits" text-anchor="start" style="cursor:default;color:#000000;font-size:10px;fill:#000000;" y="400">
    <tspan>Quelle: Statistisches Amt Basel-Stadt, kantonale Bevölkerungsbefragung: F21a</tspan>
  </text>
</svg>
