<?xml version="1.0" standalone="no"?><!DOCTYPE svg PUBLIC "-//W3C//DTD SVG 1.1//EN" "http://www.w3.org/Graphics/SVG/1.1/DTD/svg11.dtd"><svg xmlns:xlink="http://www.w3.org/1999/xlink" version="1.1" class="highcharts-root" style="font-family:Arial;font-size:12px;" xmlns="http://www.w3.org/2000/svg" viewBox="0 0 485 415"><desc>Created with Highcharts 8.2.0</desc><defs><clipPath id="highcharts-uqtasbi-49-"><rect x="0" y="0" width="308" height="363" fill="none"></rect></clipPath><clipPath id="highcharts-uqtasbi-71-"><rect x="0" y="0" width="308" height="363" fill="none"></rect></clipPath><clipPath id="highcharts-uqtasbi-93-"><rect x="112" y="55" width="363" height="308" fill="none"></rect></clipPath></defs><rect fill="#fbfbfb" class="highcharts-background" x="0" y="0" width="485" height="428" rx="0" ry="0"></rect><rect fill="none" class="highcharts-plot-background" x="112" y="55" width="363" height="308"></rect><g class="highcharts-pane-group" data-z-index="0"></g><g class="highcharts-grid highcharts-xaxis-grid" data-z-index="1"><path fill="none" data-z-index="1" class="highcharts-grid-line" d="M 112 70.5 L 475 70.5" opacity="1"></path><path fill="none" data-z-index="1" class="highcharts-grid-line" d="M 112 84.5 L 475 84.5" opacity="1"></path><path fill="none" data-z-index="1" class="highcharts-grid-line" d="M 112 99.5 L 475 99.5" opacity="1"></path><path fill="none" data-z-index="1" class="highcharts-grid-line" d="M 112 114.5 L 475 114.5" opacity="1"></path><path fill="none" data-z-index="1" class="highcharts-grid-line" d="M 112 128.5 L 475 128.5" opacity="1"></path><path fill="none" data-z-index="1" class="highcharts-grid-line" d="M 112 143.5 L 475 143.5" opacity="1"></path><path fill="none" data-z-index="1" class="highcharts-grid-line" d="M 112 158.5 L 475 158.5" opacity="1"></path><path fill="none" data-z-index="1" class="highcharts-grid-line" d="M 112 172.5 L 475 172.5" opacity="1"></path><path fill="none" data-z-index="1" class="highcharts-grid-line" d="M 112 187.5 L 475 187.5" opacity="1"></path><path fill="none" data-z-index="1" class="highcharts-grid-line" d="M 112 202.5 L 475 202.5" opacity="1"></path><path fill="none" data-z-index="1" class="highcharts-grid-line" d="M 112 216.5 L 475 216.5" opacity="1"></path><path fill="none" data-z-index="1" class="highcharts-grid-line" d="M 112 231.5 L 475 231.5" opacity="1"></path><path fill="none" data-z-index="1" class="highcharts-grid-line" d="M 112 246.5 L 475 246.5" opacity="1"></path><path fill="none" data-z-index="1" class="highcharts-grid-line" d="M 112 260.5 L 475 260.5" opacity="1"></path><path fill="none" data-z-index="1" class="highcharts-grid-line" d="M 112 275.5 L 475 275.5" opacity="1"></path><path fill="none" data-z-index="1" class="highcharts-grid-line" d="M 112 290.5 L 475 290.5" opacity="1"></path><path fill="none" data-z-index="1" class="highcharts-grid-line" d="M 112 304.5 L 475 304.5" opacity="1"></path><path fill="none" data-z-index="1" class="highcharts-grid-line" d="M 112 319.5 L 475 319.5" opacity="1"></path><path fill="none" data-z-index="1" class="highcharts-grid-line" d="M 112 334.5 L 475 334.5" opacity="1"></path><path fill="none" data-z-index="1" class="highcharts-grid-line" d="M 112 348.5 L 475 348.5" opacity="1"></path><path fill="none" data-z-index="1" class="highcharts-grid-line" d="M 112 363.5 L 475 363.5" opacity="1"></path><path fill="none" data-z-index="1" class="highcharts-grid-line" d="M 112 55.5 L 475 55.5" opacity="1"></path></g><g class="highcharts-grid highcharts-yaxis-grid" data-z-index="1"><path fill="none" stroke="#B9CFD7" stroke-width="0.5" data-z-index="1" class="highcharts-grid-line" d="M 111.75 55 L 111.75 363" opacity="1"></path><path fill="none" stroke="#B9CFD7" stroke-width="0.5" data-z-index="1" class="highcharts-grid-line" d="M 172.75 55 L 172.75 363" opacity="1"></path><path fill="none" stroke="#B9CFD7" stroke-width="0.5" data-z-index="1" class="highcharts-grid-line" d="M 232.75 55 L 232.75 363" opacity="1"></path><path fill="none" stroke="#B9CFD7" stroke-width="0.5" data-z-index="1" class="highcharts-grid-line" d="M 293.75 55 L 293.75 363" opacity="1"></path><path fill="none" stroke="#B9CFD7" stroke-width="0.5" data-z-index="1" class="highcharts-grid-line" d="M 353.75 55 L 353.75 363" opacity="1"></path><path fill="none" stroke="#B9CFD7" stroke-width="0.5" data-z-index="1" class="highcharts-grid-line" d="M 414.75 55 L 414.75 363" opacity="1"></path><path fill="none" stroke="#B9CFD7" stroke-width="0.5" data-z-index="1" class="highcharts-grid-line" d="M 475.25 55 L 475.25 363" opacity="1"></path></g><rect fill="none" class="highcharts-plot-border" data-z-index="1" x="112" y="55" width="363" height="308"></rect><g class="highcharts-axis highcharts-xaxis" data-z-index="2"><path fill="none" class="highcharts-axis-line" stroke="#B9CFD7" stroke-width="0.5" data-z-index="7" d="M 111.75 55 L 111.75 363"></path></g><g class="highcharts-axis highcharts-yaxis" data-z-index="2"><path fill="none" class="highcharts-axis-line" data-z-index="7" d="M 112 363 L 475 363"></path></g><g class="highcharts-series-group" data-z-index="3"><g class="highcharts-series highcharts-series-0 highcharts-scatter-series" data-z-index="0.1" opacity="1" transform="translate(475,363) rotate(90) scale(-1,1) scale(1 1)" clip-path="url(#highcharts-uqtasbi-71-)"></g><g class="highcharts-markers highcharts-series-0 highcharts-scatter-series" data-z-index="0.1" opacity="1" transform="translate(475,363) rotate(90) scale(-1,1) scale(1 1)" clip-path="none"><path fill="#923F8D" d="M 300 127 A 4 4 0 1 1 300.00399999933336 126.99999800000016 Z" opacity="1" class="highcharts-point"></path><path fill="#923F8D" d="M 286 114 A 4 4 0 1 1 286.00399999933336 113.99999800000016 Z" opacity="1" class="highcharts-point"></path><path fill="#923F8D" d="M 271 106 A 4 4 0 1 1 271.00399999933336 105.99999800000016 Z" opacity="1" class="highcharts-point"></path><path fill="#923F8D" d="M 256 97 A 4 4 0 1 1 256.00399999933336 96.99999800000016 Z" opacity="1" class="highcharts-point"></path><path fill="#923F8D" d="M 242 88 A 4 4 0 1 1 242.00399999933333 87.99999800000016 Z" opacity="1" class="highcharts-point"></path><path fill="#923F8D" d="M 227 88 A 4 4 0 1 1 227.00399999933333 87.99999800000016 Z" opacity="1" class="highcharts-point"></path><path fill="#923F8D" d="M 212 83 A 4 4 0 1 1 212.00399999933333 82.99999800000016 Z" opacity="1" class="highcharts-point"></path><path fill="#923F8D" d="M 198 81 A 4 4 0 1 1 198.00399999933333 80.99999800000016 Z" opacity="1" class="highcharts-point"></path><path fill="#923F8D" d="M 183 79 A 4 4 0 1 1 183.00399999933333 78.99999800000016 Z" opacity="1" class="highcharts-point"></path><path fill="#923F8D" d="M 168 72 A 4 4 0 1 1 168.00399999933333 71.99999800000016 Z" opacity="1" class="highcharts-point"></path><path fill="#923F8D" d="M 154 70 A 4 4 0 1 1 154.00399999933333 69.99999800000016 Z" opacity="1" class="highcharts-point"></path><path fill="#923F8D" d="M 139 68 A 4 4 0 1 1 139.00399999933333 67.99999800000016 Z" opacity="1" class="highcharts-point"></path><path fill="#923F8D" d="M 124 67 A 4 4 0 1 1 124.00399999933333 66.99999800000016 Z" opacity="1" class="highcharts-point"></path><path fill="#923F8D" d="M 110 65 A 4 4 0 1 1 110.00399999933333 64.99999800000016 Z" opacity="1" class="highcharts-point"></path><path fill="#923F8D" d="M 95 60 A 4 4 0 1 1 95.00399999933333 59.99999800000017 Z" opacity="1" class="highcharts-point"></path><path fill="#923F8D" d="M 80 59 A 4 4 0 1 1 80.00399999933333 58.99999800000017 Z" opacity="1" class="highcharts-point"></path><path fill="#923F8D" d="M 66 53 A 4 4 0 1 1 66.00399999933333 52.99999800000017 Z" opacity="1" class="highcharts-point"></path><path fill="#923F8D" d="M 51 51 A 4 4 0 1 1 51.00399999933334 50.99999800000017 Z" opacity="1" class="highcharts-point"></path><path fill="#923F8D" d="M 36 35 A 4 4 0 1 1 36.00399999933334 34.99999800000017 Z" opacity="1" class="highcharts-point"></path><path fill="#923F8D" d="M 22 31 A 4 4 0 1 1 22.003999999333335 30.99999800000017 Z" opacity="1" class="highcharts-point"></path><path fill="#923F8D" d="M 7 21 A 4 4 0 1 1 7.0039999993333355 20.99999800000017 Z" opacity="1" class="highcharts-point"></path></g><g class="highcharts-series highcharts-series-1 highcharts-scatter-series highcharts-color-0" visibility="hidden" data-z-index="0.1" opacity="1" transform="translate(475,363) rotate(90) scale(-1,1) scale(1 1)" clip-path="url(#highcharts-uqtasbi-71-)"></g><g class="highcharts-markers highcharts-series-1 highcharts-scatter-series highcharts-color-0" visibility="hidden" data-z-index="0.1" opacity="1" transform="translate(475,363) rotate(90) scale(-1,1) scale(1 1)" clip-path="none"></g></g><text x="10" text-anchor="start" class="highcharts-title" data-z-index="4" style="color:#000000;font-size:14px;font-weight:bold;font-family:Arial;fill:#000000;" y="21"><tspan>Anteil Personen ohne Religionszugehörigkeit</tspan></text><text x="10" text-anchor="start" class="highcharts-subtitle" data-z-index="4" style="color:#000000;font-size:12px;font-weight:normal;font-family:Arial;fill:#000000;" y="40"><tspan>Basel-Stadt,  2018</tspan></text><text x="10" text-anchor="start" class="highcharts-caption" data-z-index="4" style="color:#666666;fill:#666666;" y="395"></text><g class="highcharts-axis-labels highcharts-xaxis-labels" data-z-index="7"><text x="97" style="color:#000000;cursor:default;font-size:10px;fill:#000000;" text-anchor="end" transform="translate(0,0)" y="67" opacity="1">Kleinhüningen</text><text x="97" style="color:#000000;cursor:default;font-size:10px;fill:#000000;" text-anchor="end" transform="translate(0,0)" y="81" opacity="1">Klybeck</text><text x="97" style="color:#000000;cursor:default;font-size:10px;fill:#000000;" text-anchor="end" transform="translate(0,0)" y="96" opacity="1">Rosental</text><text x="97" style="color:#000000;cursor:default;font-size:10px;fill:#000000;" text-anchor="end" transform="translate(0,0)" y="111" opacity="1">Bettingen</text><text x="97" style="color:#000000;cursor:default;font-size:10px;fill:#000000;" text-anchor="end" transform="translate(0,0)" y="125" opacity="1">Iselin</text><text x="97" style="color:#000000;cursor:default;font-size:10px;fill:#000000;" text-anchor="end" transform="translate(0,0)" y="140" opacity="1">Gundeldingen</text><text x="97" style="color:#000000;cursor:default;font-size:10px;fill:#000000;" text-anchor="end" transform="translate(0,0)" y="155" opacity="1">Matthäus</text><text x="97" style="color:#000000;cursor:default;font-size:10px;fill:#000000;" text-anchor="end" transform="translate(0,0)" y="169" opacity="1">Clara</text><text x="97" style="color:#000000;cursor:default;font-size:10px;fill:#000000;" text-anchor="end" transform="translate(0,0)" y="184" opacity="1"><tspan>St. Johann</tspan></text><text x="97" style="color:#000000;cursor:default;font-size:10px;fill:#000000;" text-anchor="end" transform="translate(0,0)" y="199" opacity="1">Riehen</text><text x="97" style="color:#000000;cursor:default;font-size:10px;fill:#000000;" text-anchor="end" transform="translate(0,0)" y="213" opacity="1">Bruderholz</text><text x="97" style="color:#000000;cursor:default;font-size:10px;fill:#000000;" text-anchor="end" transform="translate(0,0)" y="228" opacity="1">Bachletten</text><text x="97" style="color:#000000;cursor:default;font-size:10px;fill:#000000;" text-anchor="end" transform="translate(0,0)" y="243" opacity="1">Breite</text><text x="97" style="color:#000000;cursor:default;font-size:10px;fill:#000000;" text-anchor="end" transform="translate(0,0)" y="257" opacity="1">Hirzbrunnen</text><text x="97" style="color:#000000;cursor:default;font-size:10px;fill:#000000;" text-anchor="end" transform="translate(0,0)" y="272" opacity="1">Gotthelf</text><text x="97" style="color:#000000;cursor:default;font-size:10px;fill:#000000;" text-anchor="end" transform="translate(0,0)" y="287" opacity="1"><tspan>St. Alban</tspan></text><text x="97" style="color:#000000;cursor:default;font-size:10px;fill:#000000;" text-anchor="end" transform="translate(0,0)" y="301" opacity="1"><tspan>Am Ring</tspan></text><text x="97" style="color:#000000;cursor:default;font-size:10px;fill:#000000;" text-anchor="end" transform="translate(0,0)" y="316" opacity="1"><tspan>Altstadt Grossbasel</tspan></text><text x="97" style="color:#000000;cursor:default;font-size:10px;fill:#000000;" text-anchor="end" transform="translate(0,0)" y="331" opacity="1">Vorstädte</text><text x="97" style="color:#000000;cursor:default;font-size:10px;fill:#000000;" text-anchor="end" transform="translate(0,0)" y="345" opacity="1">Wettstein</text><text x="97" style="color:#000000;cursor:default;font-size:10px;fill:#000000;" text-anchor="end" transform="translate(0,0)" y="360" opacity="1"><tspan>Altstadt Kleinbasel</tspan></text></g><g class="highcharts-axis-labels highcharts-yaxis-labels" data-z-index="7"><text x="112" style="color:#000000;cursor:default;font-size:11px;fill:#000000;" text-anchor="middle" transform="translate(0,0)" y="382" opacity="1">0%</text><text x="172.5" style="color:#000000;cursor:default;font-size:11px;fill:#000000;" text-anchor="middle" transform="translate(0,0)" y="382" opacity="1">10%</text><text x="233" style="color:#000000;cursor:default;font-size:11px;fill:#000000;" text-anchor="middle" transform="translate(0,0)" y="382" opacity="1">20%</text><text x="293.5" style="color:#000000;cursor:default;font-size:11px;fill:#000000;" text-anchor="middle" transform="translate(0,0)" y="382" opacity="1">30%</text><text x="354" style="color:#000000;cursor:default;font-size:11px;fill:#000000;" text-anchor="middle" transform="translate(0,0)" y="382" opacity="1">40%</text><text x="414.5" style="color:#000000;cursor:default;font-size:11px;fill:#000000;" text-anchor="middle" transform="translate(0,0)" y="382" opacity="1">50%</text><text x="464.0078125" style="color:#000000;cursor:default;font-size:11px;fill:#000000;" text-anchor="middle" transform="translate(0,0)" y="382" opacity="1">60%</text></g><text x="10" class="highcharts-credits" text-anchor="start" data-z-index="8" style="cursor:default;color:#000000;font-size:10px;fill:#000000;" y="403"><tspan>Quelle: Statistisches Amt Basel-Stadt, Bevölkerungsstatistik.</tspan><tspan x="10" dy="13">Zuletzt geändert: 2019-6-3</tspan></text><g class="highcharts-control-points" data-z-index="99" clip-path="url(#highcharts-uqtasbi-93-)"></g></svg>