<svg version="1.1" class="highcharts-root" style="font-family: Arial; font-size: 1rem;" xmlns="http://www.w3.org/2000/svg" width="600" height="400" viewBox="0 0 600 400" role="img" aria-label="Sek P-Quote"><desc>Created with Highcharts 12.5.0</desc><defs><filter id="highcharts-drop-shadow-0"><feDropShadow dx="1" dy="1" flood-color="#000000" flood-opacity="0.75" stdDeviation="2.5"></feDropShadow></filter><clipPath id="highcharts-m3ziekv-228-"><rect x="0" y="0" width="270" height="476" fill="none"></rect></clipPath></defs><rect fill="#ffffff" class="highcharts-background" filter="none" x="0" y="0" width="600" height="400" rx="0" ry="0"></rect><rect fill="none" class="highcharts-plot-background" x="113" y="55" width="477" height="270" filter="none"></rect><g class="highcharts-pane-group" data-z-index="0"></g><g class="highcharts-grid highcharts-yaxis-grid" data-z-index="1"><path fill="none" stroke="#B9CFD7" stroke-width="0.5" stroke-dasharray="none" data-z-index="1" class="highcharts-grid-line" d="M 113.25 55 L 113.25 325" opacity="1"></path><path fill="none" stroke="#B9CFD7" stroke-width="0.5" stroke-dasharray="none" data-z-index="1" class="highcharts-grid-line" d="M 181.25 55 L 181.25 325" opacity="1"></path><path fill="none" stroke="#B9CFD7" stroke-width="0.5" stroke-dasharray="none" data-z-index="1" class="highcharts-grid-line" d="M 249.25 55 L 249.25 325" opacity="1"></path><path fill="none" stroke="#B9CFD7" stroke-width="0.5" stroke-dasharray="none" data-z-index="1" class="highcharts-grid-line" d="M 317.25 55 L 317.25 325" opacity="1"></path><path fill="none" stroke="#B9CFD7" stroke-width="0.5" stroke-dasharray="none" data-z-index="1" class="highcharts-grid-line" d="M 385.25 55 L 385.25 325" opacity="1"></path><path fill="none" stroke="#B9CFD7" stroke-width="0.5" stroke-dasharray="none" data-z-index="1" class="highcharts-grid-line" d="M 453.25 55 L 453.25 325" opacity="1"></path><path fill="none" stroke="#B9CFD7" stroke-width="0.5" stroke-dasharray="none" data-z-index="1" class="highcharts-grid-line" d="M 522.25 55 L 522.25 325" opacity="1"></path><path fill="none" stroke="#B9CFD7" stroke-width="0.5" stroke-dasharray="none" data-z-index="1" class="highcharts-grid-line" d="M 590.25 55 L 590.25 325" opacity="1"></path></g><g class="highcharts-grid highcharts-xaxis-grid" data-z-index="1"><path fill="none" stroke="#e6e6e6" stroke-width="0" stroke-dasharray="none" data-z-index="1" class="highcharts-grid-line" d="M 113 61.5 L 590 61.5" opacity="1"></path><path fill="none" stroke="#e6e6e6" stroke-width="0" stroke-dasharray="none" data-z-index="1" class="highcharts-grid-line" d="M 113 87.5 L 590 87.5" opacity="1"></path><path fill="none" stroke="#e6e6e6" stroke-width="0" stroke-dasharray="none" data-z-index="1" class="highcharts-grid-line" d="M 113 112.5 L 590 112.5" opacity="1"></path><path fill="none" stroke="#e6e6e6" stroke-width="0" stroke-dasharray="none" data-z-index="1" class="highcharts-grid-line" d="M 113 138.5 L 590 138.5" opacity="1"></path><path fill="none" stroke="#e6e6e6" stroke-width="0" stroke-dasharray="none" data-z-index="1" class="highcharts-grid-line" d="M 113 164.5 L 590 164.5" opacity="1"></path><path fill="none" stroke="#e6e6e6" stroke-width="0" stroke-dasharray="none" data-z-index="1" class="highcharts-grid-line" d="M 113 190.5 L 590 190.5" opacity="1"></path><path fill="none" stroke="#e6e6e6" stroke-width="0" stroke-dasharray="none" data-z-index="1" class="highcharts-grid-line" d="M 113 215.5 L 590 215.5" opacity="1"></path><path fill="none" stroke="#e6e6e6" stroke-width="0" stroke-dasharray="none" data-z-index="1" class="highcharts-grid-line" d="M 113 241.5 L 590 241.5" opacity="1"></path><path fill="none" stroke="#e6e6e6" stroke-width="0" stroke-dasharray="none" data-z-index="1" class="highcharts-grid-line" d="M 113 267.5 L 590 267.5" opacity="1"></path><path fill="none" stroke="#e6e6e6" stroke-width="0" stroke-dasharray="none" data-z-index="1" class="highcharts-grid-line" d="M 113 292.5 L 590 292.5" opacity="1"></path><path fill="none" stroke="#e6e6e6" stroke-width="0" stroke-dasharray="none" data-z-index="1" class="highcharts-grid-line" d="M 113 318.5 L 590 318.5" opacity="1"></path></g><rect fill="none" class="highcharts-plot-border" data-z-index="1" stroke="#cccccc" stroke-width="0" x="113" y="55" width="477" height="270"></rect><g class="highcharts-axis highcharts-yaxis" data-z-index="2"><path fill="none" class="highcharts-axis-line" stroke="#B9CFD7" stroke-width="0" data-z-index="7" d="M 113 325 L 590 325"></path></g><g class="highcharts-axis highcharts-xaxis" data-z-index="2"><path fill="none" class="highcharts-axis-line" stroke="#B9CFD7" stroke-width="0.5" data-z-index="7" d="M 113.25 55 L 113.25 325"></path></g><g class="highcharts-series-group" data-z-index="3" filter="none"><g class="highcharts-series highcharts-series-0 highcharts-scatter-series highcharts-tracker" data-z-index="0.1" opacity="1" transform="translate(113,55) rotate(90 103.5 373.5) scale(-1 1)" clip-path="url(#highcharts-m3ziekv-228-)"></g><g class="highcharts-markers highcharts-series-0 highcharts-scatter-series highcharts-tracker" data-z-index="0.1" opacity="1" transform="translate(113,55) scale(1 1)" clip-path="none"><path fill="#923F8D" d="M 94.5 10.428571428570024 A 4 4 0 1 1 94.50019999999992 10.428571423570023 Z" stroke="#ffffff" stroke-width="0" opacity="1" class="highcharts-point"></path><path fill="#923F8D" d="M 104.5 23.285714285709986 A 4 4 0 1 1 104.50019999999992 23.285714280709986 Z" stroke="#ffffff" stroke-width="0" opacity="1" class="highcharts-point"></path><path fill="#923F8D" d="M 139.5 36.14285714286001 A 4 4 0 1 1 139.50019999999992 36.14285713786001 Z" stroke="#ffffff" stroke-width="0" opacity="1" class="highcharts-point"></path><path fill="#923F8D" d="M 148.5 49 A 4 4 0 1 1 148.50019999999992 48.999999995 Z" stroke="#ffffff" stroke-width="0" opacity="1" class="highcharts-point"></path><path fill="#923F8D" d="M 153.5 61.85714285713999 A 4 4 0 1 1 153.50019999999992 61.857142852139994 Z" stroke="#ffffff" stroke-width="0" opacity="1" class="highcharts-point"></path><path fill="#923F8D" d="M 176.5 74.71428571429001 A 4 4 0 1 1 176.50019999999992 74.71428570929001 Z" stroke="#ffffff" stroke-width="0" opacity="1" class="highcharts-point"></path><path fill="#923F8D" d="M 180.5 87.57142857143 A 4 4 0 1 1 180.50019999999992 87.57142856643 Z" stroke="#ffffff" stroke-width="0" opacity="1" class="highcharts-point"></path><path fill="#923F8D" d="M 195.5 100.42857142857 A 4 4 0 1 1 195.50019999999992 100.42857142356999 Z" stroke="#ffffff" stroke-width="0" opacity="1" class="highcharts-point"></path><path fill="#923F8D" d="M 199.5 113.28571428570999 A 4 4 0 1 1 199.50019999999992 113.28571428070998 Z" stroke="#ffffff" stroke-width="0" opacity="1" class="highcharts-point"></path><path fill="#923F8D" d="M 212.5 126.14285714286001 A 4 4 0 1 1 212.50019999999992 126.14285713786 Z" stroke="#ffffff" stroke-width="0" opacity="1" class="highcharts-point"></path><path fill="#923F8D" d="M 234.5 139 A 4 4 0 1 1 234.50019999999992 138.999999995 Z" stroke="#ffffff" stroke-width="0" opacity="1" class="highcharts-point"></path><path fill="#923F8D" d="M 301.5 151.85714285714 A 4 4 0 1 1 301.5001999999999 151.85714285214 Z" stroke="#ffffff" stroke-width="0" opacity="1" class="highcharts-point"></path><path fill="#923F8D" d="M 328.5 164.71428571428999 A 4 4 0 1 1 328.5001999999999 164.71428570928998 Z" stroke="#ffffff" stroke-width="0" opacity="1" class="highcharts-point"></path><path fill="#923F8D" d="M 343.5 177.571428571429 A 4 4 0 1 1 343.5001999999999 177.571428566429 Z" stroke="#ffffff" stroke-width="0" opacity="1" class="highcharts-point"></path><path fill="#923F8D" d="M 346.5 190.428571428571 A 4 4 0 1 1 346.5001999999999 190.428571423571 Z" stroke="#ffffff" stroke-width="0" opacity="1" class="highcharts-point"></path><path fill="#923F8D" d="M 348.5 203.285714285714 A 4 4 0 1 1 348.5001999999999 203.285714280714 Z" stroke="#ffffff" stroke-width="0" opacity="1" class="highcharts-point"></path><path fill="#923F8D" d="M 356.5 216.142857142857 A 4 4 0 1 1 356.5001999999999 216.142857137857 Z" stroke="#ffffff" stroke-width="0" opacity="1" class="highcharts-point"></path><path fill="#923F8D" d="M 372.5 229 A 4 4 0 1 1 372.5001999999999 228.999999995 Z" stroke="#ffffff" stroke-width="0" opacity="1" class="highcharts-point"></path><path fill="#923F8D" d="M 394.5 241.857142857143 A 4 4 0 1 1 394.5001999999999 241.857142852143 Z" stroke="#ffffff" stroke-width="0" opacity="1" class="highcharts-point"></path><path fill="#923F8D" d="M 411.5 254.714285714286 A 4 4 0 1 1 411.5001999999999 254.714285709286 Z" stroke="#ffffff" stroke-width="0" opacity="1" class="highcharts-point"></path><path fill="#923F8D" d="M 419.5 267.5714285714286 A 4 4 0 1 1 419.5001999999999 267.5714285664286 Z" stroke="#ffffff" stroke-width="0" opacity="1" class="highcharts-point"></path></g><g class="highcharts-series highcharts-series-1 highcharts-scatter-series highcharts-color-0 highcharts-tracker" visibility="hidden" data-z-index="0.1" opacity="1" transform="translate(113,55) rotate(90 103.5 373.5) scale(-1 1)" clip-path="url(#highcharts-m3ziekv-228-)"></g><g class="highcharts-markers highcharts-series-1 highcharts-scatter-series highcharts-color-0 highcharts-tracker" visibility="hidden" data-z-index="0.1" opacity="1" transform="translate(113,55) scale(1 1)" clip-path="none"></g></g><text x="10" text-anchor="start" class="highcharts-caption" data-z-index="4" style="font-size: 0.8em; fill: rgb(102, 102, 102);" text-align="left" y="367" transform-origin="10 15" transform="translate(0,0) scale(1 1)"></text><g class="highcharts-axis-labels highcharts-yaxis-labels" data-z-index="7"><text x="113" text-anchor="middle" transform="translate(0,0)" style="cursor: default; font-size: 0.8em; fill: rgb(0, 0, 0);" y="352" opacity="1">0%</text><text x="181.14285714286" text-anchor="middle" transform="translate(0,0)" style="cursor: default; font-size: 0.8em; fill: rgb(0, 0, 0);" y="352" opacity="1">10%</text><text x="249.28571428571" text-anchor="middle" transform="translate(0,0)" style="cursor: default; font-size: 0.8em; fill: rgb(0, 0, 0);" y="352" opacity="1">20%</text><text x="317.42857142857" text-anchor="middle" transform="translate(0,0)" style="cursor: default; font-size: 0.8em; fill: rgb(0, 0, 0);" y="352" opacity="1">30%</text><text x="385.57142857143" text-anchor="middle" transform="translate(0,0)" style="cursor: default; font-size: 0.8em; fill: rgb(0, 0, 0);" y="352" opacity="1">40%</text><text x="453.71428571429" text-anchor="middle" transform="translate(0,0)" style="cursor: default; font-size: 0.8em; fill: rgb(0, 0, 0);" y="352" opacity="1">50%</text><text x="521.85714285714" text-anchor="middle" transform="translate(0,0)" style="cursor: default; font-size: 0.8em; fill: rgb(0, 0, 0);" y="352" opacity="1">60%</text><text x="576.8812561035156" text-anchor="middle" transform="translate(0,0)" style="cursor: default; font-size: 0.8em; fill: rgb(0, 0, 0);" y="352" opacity="1">70%</text></g><g class="highcharts-axis-labels highcharts-xaxis-labels" data-z-index="7"><text x="98" text-anchor="end" transform="translate(0,0)" style="cursor: default; font-size: 10px; fill: rgb(0, 0, 0);" y="66" opacity="1">Klybeck</text><text x="98" text-anchor="end" transform="translate(0,0)" style="cursor: default; font-size: 10px; fill: rgb(0, 0, 0);" y="92" opacity="1">Clara</text><text x="98" text-anchor="end" transform="translate(0,0)" style="cursor: default; font-size: 10px; fill: rgb(0, 0, 0);" y="117" opacity="1">Gundeldingen</text><text x="98" text-anchor="end" transform="translate(0,0)" style="cursor: default; font-size: 10px; fill: rgb(0, 0, 0);" y="143" opacity="1">Breite</text><text x="98" text-anchor="end" transform="translate(0,0)" style="cursor: default; font-size: 10px; fill: rgb(0, 0, 0);" y="169" opacity="1">Rosental</text><text x="98" text-anchor="end" transform="translate(0,0)" style="cursor: default; font-size: 10px; fill: rgb(0, 0, 0);" y="195" opacity="1">Hirzbrunnen</text><text x="98" text-anchor="end" transform="translate(0,0)" style="cursor: default; font-size: 10px; fill: rgb(0, 0, 0);" y="220" opacity="1">Riehen</text><text x="98" text-anchor="end" transform="translate(0,0)" style="cursor: default; font-size: 10px; fill: rgb(0, 0, 0);" y="246" opacity="1">Gotthelf</text><text x="98" text-anchor="end" transform="translate(0,0)" style="cursor: default; font-size: 10px; fill: rgb(0, 0, 0);" y="272" opacity="1">Bettingen</text><text x="98" text-anchor="end" transform="translate(0,0)" style="cursor: default; font-size: 10px; fill: rgb(0, 0, 0);" y="297" opacity="1">Altstadt Grossbasel</text><text x="98" text-anchor="end" transform="translate(0,0)" style="cursor: default; font-size: 10px; fill: rgb(0, 0, 0);" y="323" opacity="1">Wettstein</text></g></svg>