<?xml version="1.0" standalone="no"?><!DOCTYPE svg PUBLIC "-//W3C//DTD SVG 1.1//EN" "http://www.w3.org/Graphics/SVG/1.1/DTD/svg11.dtd"><svg xmlns:xlink="http://www.w3.org/1999/xlink" version="1.1" class="highcharts-root" style="font-family:Arial;font-size:12px;" xmlns="http://www.w3.org/2000/svg" viewBox="0 0 485 415"><desc>Created with Highcharts 8.1.2</desc><defs><clipPath id="highcharts-ebxhg9v-49-"><rect x="0" y="0" width="298" height="363" fill="none"></rect></clipPath><clipPath id="highcharts-ebxhg9v-71-"><rect x="0" y="0" width="298" height="363" fill="none"></rect></clipPath><clipPath id="highcharts-ebxhg9v-93-"><rect x="112" y="55" width="363" height="298" fill="none"></rect></clipPath></defs><rect fill="#fbfbfb" class="highcharts-background" x="0" y="0" width="485" height="428" rx="0" ry="0"></rect><rect fill="none" class="highcharts-plot-background" x="112" y="55" width="363" height="298"></rect><g class="highcharts-pane-group" data-z-index="0"></g><g class="highcharts-grid highcharts-xaxis-grid" data-z-index="1"><path fill="none" data-z-index="1" class="highcharts-grid-line" d="M 112 69.5 L 475 69.5" opacity="1"></path><path fill="none" data-z-index="1" class="highcharts-grid-line" d="M 112 83.5 L 475 83.5" opacity="1"></path><path fill="none" data-z-index="1" class="highcharts-grid-line" d="M 112 98.5 L 475 98.5" opacity="1"></path><path fill="none" data-z-index="1" class="highcharts-grid-line" d="M 112 112.5 L 475 112.5" opacity="1"></path><path fill="none" data-z-index="1" class="highcharts-grid-line" d="M 112 126.5 L 475 126.5" opacity="1"></path><path fill="none" data-z-index="1" class="highcharts-grid-line" d="M 112 140.5 L 475 140.5" opacity="1"></path><path fill="none" data-z-index="1" class="highcharts-grid-line" d="M 112 154.5 L 475 154.5" opacity="1"></path><path fill="none" data-z-index="1" class="highcharts-grid-line" d="M 112 169.5 L 475 169.5" opacity="1"></path><path fill="none" data-z-index="1" class="highcharts-grid-line" d="M 112 183.5 L 475 183.5" opacity="1"></path><path fill="none" data-z-index="1" class="highcharts-grid-line" d="M 112 197.5 L 475 197.5" opacity="1"></path><path fill="none" data-z-index="1" class="highcharts-grid-line" d="M 112 211.5 L 475 211.5" opacity="1"></path><path fill="none" data-z-index="1" class="highcharts-grid-line" d="M 112 225.5 L 475 225.5" opacity="1"></path><path fill="none" data-z-index="1" class="highcharts-grid-line" d="M 112 239.5 L 475 239.5" opacity="1"></path><path fill="none" data-z-index="1" class="highcharts-grid-line" d="M 112 254.5 L 475 254.5" opacity="1"></path><path fill="none" data-z-index="1" class="highcharts-grid-line" d="M 112 268.5 L 475 268.5" opacity="1"></path><path fill="none" data-z-index="1" class="highcharts-grid-line" d="M 112 282.5 L 475 282.5" opacity="1"></path><path fill="none" data-z-index="1" class="highcharts-grid-line" d="M 112 296.5 L 475 296.5" opacity="1"></path><path fill="none" data-z-index="1" class="highcharts-grid-line" d="M 112 310.5 L 475 310.5" opacity="1"></path><path fill="none" data-z-index="1" class="highcharts-grid-line" d="M 112 325.5 L 475 325.5" opacity="1"></path><path fill="none" data-z-index="1" class="highcharts-grid-line" d="M 112 339.5 L 475 339.5" opacity="1"></path><path fill="none" data-z-index="1" class="highcharts-grid-line" d="M 112 353.5 L 475 353.5" opacity="1"></path><path fill="none" data-z-index="1" class="highcharts-grid-line" d="M 112 55.5 L 475 55.5" opacity="1"></path></g><g class="highcharts-grid highcharts-yaxis-grid" data-z-index="1"><path fill="none" stroke="#B9CFD7" stroke-width="0.5" data-z-index="1" class="highcharts-grid-line" d="M 111.75 55 L 111.75 353" opacity="1"></path><path fill="none" stroke="#B9CFD7" stroke-width="0.5" data-z-index="1" class="highcharts-grid-line" d="M 172.75 55 L 172.75 353" opacity="1"></path><path fill="none" stroke="#B9CFD7" stroke-width="0.5" data-z-index="1" class="highcharts-grid-line" d="M 232.75 55 L 232.75 353" opacity="1"></path><path fill="none" stroke="#B9CFD7" stroke-width="0.5" data-z-index="1" class="highcharts-grid-line" d="M 293.75 55 L 293.75 353" opacity="1"></path><path fill="none" stroke="#B9CFD7" stroke-width="0.5" data-z-index="1" class="highcharts-grid-line" d="M 353.75 55 L 353.75 353" opacity="1"></path><path fill="none" stroke="#B9CFD7" stroke-width="0.5" data-z-index="1" class="highcharts-grid-line" d="M 414.75 55 L 414.75 353" opacity="1"></path><path fill="none" stroke="#B9CFD7" stroke-width="0.5" data-z-index="1" class="highcharts-grid-line" d="M 475.25 55 L 475.25 353" opacity="1"></path></g><rect fill="none" class="highcharts-plot-border" data-z-index="1" x="112" y="55" width="363" height="298"></rect><g class="highcharts-axis highcharts-xaxis" data-z-index="2"><path fill="none" class="highcharts-axis-line" stroke="#B9CFD7" stroke-width="0.5" data-z-index="7" d="M 111.75 55 L 111.75 353"></path></g><g class="highcharts-axis highcharts-yaxis" data-z-index="2"><path fill="none" class="highcharts-axis-line" data-z-index="7" d="M 112 353 L 475 353"></path></g><g class="highcharts-series-group" data-z-index="3"><g class="highcharts-series highcharts-series-0 highcharts-scatter-series" data-z-index="0.1" opacity="1" transform="translate(475,353) rotate(90) scale(-1,1) scale(1 1)" clip-path="url(#highcharts-ebxhg9v-71-)"></g><g class="highcharts-markers highcharts-series-0 highcharts-scatter-series" data-z-index="0.1" opacity="1" transform="translate(475,353) rotate(90) scale(-1,1) scale(1 1)" clip-path="none"><path fill="#68AB2B" d="M 290 172 A 4 4 0 1 1 290.00399999933336 171.99999800000018 Z" opacity="1" class="highcharts-point"></path><path fill="#68AB2B" d="M 276 169 A 4 4 0 1 1 276.00399999933336 168.99999800000018 Z" opacity="1" class="highcharts-point"></path><path fill="#68AB2B" d="M 262 158 A 4 4 0 1 1 262.00399999933336 157.99999800000018 Z" opacity="1" class="highcharts-point"></path><path fill="#68AB2B" d="M 248 150 A 4 4 0 1 1 248.00399999933333 149.99999800000018 Z" opacity="1" class="highcharts-point"></path><path fill="#68AB2B" d="M 234 145 A 4 4 0 1 1 234.00399999933333 144.99999800000018 Z" opacity="1" class="highcharts-point"></path><path fill="#68AB2B" d="M 219 145 A 4 4 0 1 1 219.00399999933333 144.99999800000018 Z" opacity="1" class="highcharts-point"></path><path fill="#68AB2B" d="M 205 145 A 4 4 0 1 1 205.00399999933333 144.99999800000018 Z" opacity="1" class="highcharts-point"></path><path fill="#68AB2B" d="M 191 132 A 4 4 0 1 1 191.00399999933333 131.99999800000018 Z" opacity="1" class="highcharts-point"></path><path fill="#68AB2B" d="M 177 131 A 4 4 0 1 1 177.00399999933333 130.99999800000018 Z" opacity="1" class="highcharts-point"></path><path fill="#68AB2B" d="M 163 131 A 4 4 0 1 1 163.00399999933333 130.99999800000018 Z" opacity="1" class="highcharts-point"></path><path fill="#68AB2B" d="M 149 116 A 4 4 0 1 1 149.00399999933333 115.99999800000016 Z" opacity="1" class="highcharts-point"></path><path fill="#68AB2B" d="M 134 104 A 4 4 0 1 1 134.00399999933333 103.99999800000016 Z" opacity="1" class="highcharts-point"></path><path fill="#68AB2B" d="M 120 91 A 4 4 0 1 1 120.00399999933333 90.99999800000016 Z" opacity="1" class="highcharts-point"></path><path fill="#68AB2B" d="M 106 88 A 4 4 0 1 1 106.00399999933333 87.99999800000016 Z" opacity="1" class="highcharts-point"></path><path fill="#68AB2B" d="M 92 87 A 4 4 0 1 1 92.00399999933333 86.99999800000016 Z" opacity="1" class="highcharts-point"></path><path fill="#68AB2B" d="M 78 80 A 4 4 0 1 1 78.00399999933333 79.99999800000016 Z" opacity="1" class="highcharts-point"></path><path fill="#68AB2B" d="M 63 74 A 4 4 0 1 1 63.00399999933334 73.99999800000016 Z" opacity="1" class="highcharts-point"></path><path fill="#68AB2B" d="M 49 74 A 4 4 0 1 1 49.00399999933334 73.99999800000016 Z" opacity="1" class="highcharts-point"></path><path fill="#68AB2B" d="M 35 61 A 4 4 0 1 1 35.00399999933334 60.99999800000017 Z" opacity="1" class="highcharts-point"></path><path fill="#68AB2B" d="M 21 47 A 4 4 0 1 1 21.003999999333335 46.99999800000017 Z" opacity="1" class="highcharts-point"></path><path fill="#68AB2B" d="M 7 46 A 4 4 0 1 1 7.0039999993333355 45.99999800000017 Z" opacity="1" class="highcharts-point"></path></g><g class="highcharts-series highcharts-series-1 highcharts-scatter-series highcharts-color-0" visibility="hidden" data-z-index="0.1" opacity="1" transform="translate(475,353) rotate(90) scale(-1,1) scale(1 1)" clip-path="url(#highcharts-ebxhg9v-71-)"></g><g class="highcharts-markers highcharts-series-1 highcharts-scatter-series highcharts-color-0" visibility="hidden" data-z-index="0.1" opacity="1" transform="translate(475,353) rotate(90) scale(-1,1) scale(1 1)" clip-path="none"></g></g><text x="10" text-anchor="start" class="highcharts-title" data-z-index="4" style="color:#000000;font-size:14px;font-weight:bold;font-family:Arial;fill:#000000;" y="21"><tspan>Wohnfläche pro Kopf</tspan></text><text x="10" text-anchor="start" class="highcharts-subtitle" data-z-index="4" style="color:#000000;font-size:12px;font-weight:normal;font-family:Arial;fill:#000000;" y="40"><tspan>in m2, nach Wohnviertel, Basel-Stadt, 2019</tspan></text><text x="10" text-anchor="start" class="highcharts-caption" data-z-index="4" style="color:#666666;fill:#666666;" y="385"></text><g class="highcharts-axis-labels highcharts-xaxis-labels" data-z-index="7"><text x="97" style="color:#000000;cursor:default;font-size:10px;fill:#000000;" text-anchor="end" transform="translate(0,0)" y="67" opacity="1">Klybeck</text><text x="97" style="color:#000000;cursor:default;font-size:10px;fill:#000000;" text-anchor="end" transform="translate(0,0)" y="81" opacity="1">Kleinhüningen</text><text x="97" style="color:#000000;cursor:default;font-size:10px;fill:#000000;" text-anchor="end" transform="translate(0,0)" y="95" opacity="1">Rosental</text><text x="97" style="color:#000000;cursor:default;font-size:10px;fill:#000000;" text-anchor="end" transform="translate(0,0)" y="109" opacity="1">Matthäus</text><text x="97" style="color:#000000;cursor:default;font-size:10px;fill:#000000;" text-anchor="end" transform="translate(0,0)" y="123" opacity="1">Clara</text><text x="97" style="color:#000000;cursor:default;font-size:10px;fill:#000000;" text-anchor="end" transform="translate(0,0)" y="138" opacity="1">Iselin</text><text x="97" style="color:#000000;cursor:default;font-size:10px;fill:#000000;" text-anchor="end" transform="translate(0,0)" y="152" opacity="1"><tspan>St. Johann</tspan></text><text x="97" style="color:#000000;cursor:default;font-size:10px;fill:#000000;" text-anchor="end" transform="translate(0,0)" y="166" opacity="1">Breite</text><text x="97" style="color:#000000;cursor:default;font-size:10px;fill:#000000;" text-anchor="end" transform="translate(0,0)" y="180" opacity="1">Hirzbrunnen</text><text x="97" style="color:#000000;cursor:default;font-size:10px;fill:#000000;" text-anchor="end" transform="translate(0,0)" y="194" opacity="1">Gundeldingen</text><text x="97" style="color:#000000;cursor:default;font-size:10px;fill:#000000;" text-anchor="end" transform="translate(0,0)" y="209" opacity="1">Gotthelf</text><text x="97" style="color:#000000;cursor:default;font-size:10px;fill:#000000;" text-anchor="end" transform="translate(0,0)" y="223" opacity="1"><tspan>Altstadt Kleinbasel</tspan></text><text x="97" style="color:#000000;cursor:default;font-size:10px;fill:#000000;" text-anchor="end" transform="translate(0,0)" y="237" opacity="1"><tspan>Am Ring</tspan></text><text x="97" style="color:#000000;cursor:default;font-size:10px;fill:#000000;" text-anchor="end" transform="translate(0,0)" y="251" opacity="1">Wettstein</text><text x="97" style="color:#000000;cursor:default;font-size:10px;fill:#000000;" text-anchor="end" transform="translate(0,0)" y="265" opacity="1">Bachletten</text><text x="97" style="color:#000000;cursor:default;font-size:10px;fill:#000000;" text-anchor="end" transform="translate(0,0)" y="279" opacity="1">Riehen</text><text x="97" style="color:#000000;cursor:default;font-size:10px;fill:#000000;" text-anchor="end" transform="translate(0,0)" y="294" opacity="1">Bruderholz</text><text x="97" style="color:#000000;cursor:default;font-size:10px;fill:#000000;" text-anchor="end" transform="translate(0,0)" y="308" opacity="1"><tspan>St. Alban</tspan></text><text x="97" style="color:#000000;cursor:default;font-size:10px;fill:#000000;" text-anchor="end" transform="translate(0,0)" y="322" opacity="1">Vorstädte</text><text x="97" style="color:#000000;cursor:default;font-size:10px;fill:#000000;" text-anchor="end" transform="translate(0,0)" y="336" opacity="1"><tspan>Altstadt Grossbasel</tspan></text><text x="97" style="color:#000000;cursor:default;font-size:10px;fill:#000000;" text-anchor="end" transform="translate(0,0)" y="350" opacity="1">Bettingen</text></g><g class="highcharts-axis-labels highcharts-yaxis-labels" data-z-index="7"><text x="112" style="color:#000000;cursor:default;font-size:11px;fill:#000000;" text-anchor="middle" transform="translate(0,0)" y="372" opacity="1">0</text><text x="172.5" style="color:#000000;cursor:default;font-size:11px;fill:#000000;" text-anchor="middle" transform="translate(0,0)" y="372" opacity="1">10</text><text x="233" style="color:#000000;cursor:default;font-size:11px;fill:#000000;" text-anchor="middle" transform="translate(0,0)" y="372" opacity="1">20</text><text x="293.5" style="color:#000000;cursor:default;font-size:11px;fill:#000000;" text-anchor="middle" transform="translate(0,0)" y="372" opacity="1">30</text><text x="354" style="color:#000000;cursor:default;font-size:11px;fill:#000000;" text-anchor="middle" transform="translate(0,0)" y="372" opacity="1">40</text><text x="414.5" style="color:#000000;cursor:default;font-size:11px;fill:#000000;" text-anchor="middle" transform="translate(0,0)" y="372" opacity="1">50</text><text x="468.890625" style="color:#000000;cursor:default;font-size:11px;fill:#000000;" text-anchor="middle" transform="translate(0,0)" y="372" opacity="1">60</text></g><text x="10" class="highcharts-credits" text-anchor="start" data-z-index="8" style="cursor:default;color:#000000;font-size:10px;fill:#000000;" y="393"><tspan>Quelle: Statistisches Amt Basel-Stadt, Bevölkerungsstatistik;</tspan><tspan x="10" dy="13">Statistisches Amt Basel-Stadt, Gebäude- und Wohnungsstatistik.</tspan><tspan x="10" dy="13">Zuletzt geändert: 2020-6-3</tspan></text><g class="highcharts-control-points" data-z-index="99" clip-path="url(#highcharts-ebxhg9v-93-)"></g></svg>