<?xml version="1.0" standalone="no"?><!DOCTYPE svg PUBLIC "-//W3C//DTD SVG 1.1//EN" "http://www.w3.org/Graphics/SVG/1.1/DTD/svg11.dtd"><svg xmlns:xlink="http://www.w3.org/1999/xlink" version="1.1" class="highcharts-root" style="font-family:Arial;font-size:12px;" xmlns="http://www.w3.org/2000/svg" viewBox="0 0 485 415"><desc>Created with Highstock 6.1.1</desc><defs><clipPath id="highcharts-z13ldqy-6"><rect x="0" y="0" width="258" height="293" fill="none"></rect></clipPath><clipPath id="highcharts-z13ldqy-7"><rect x="0" y="0" width="258" height="293" fill="none"></rect></clipPath></defs><rect fill="#fbfbfb" class="highcharts-background" x="0" y="0" width="485" height="428" rx="0" ry="0"></rect><rect fill="none" class="highcharts-plot-background" x="53" y="73" width="258" height="293"></rect><g class="highcharts-pane-group" data-z-index="0"></g><g class="highcharts-grid highcharts-xaxis-grid " data-z-index="1"><path fill="none" data-z-index="1" class="highcharts-grid-line" d="M 104.5 73 L 104.5 366" opacity="1"></path><path fill="none" data-z-index="1" class="highcharts-grid-line" d="M 155.5 73 L 155.5 366" opacity="1"></path><path fill="none" data-z-index="1" class="highcharts-grid-line" d="M 207.5 73 L 207.5 366" opacity="1"></path><path fill="none" data-z-index="1" class="highcharts-grid-line" d="M 258.5 73 L 258.5 366" opacity="1"></path><path fill="none" data-z-index="1" class="highcharts-grid-line" d="M 310.5 73 L 310.5 366" opacity="1"></path><path fill="none" data-z-index="1" class="highcharts-grid-line" d="M 52.5 73 L 52.5 366" opacity="1"></path></g><g class="highcharts-grid highcharts-yaxis-grid " data-z-index="1"><path fill="none" stroke="#B9CFD7" stroke-width="0.5" data-z-index="1" class="highcharts-grid-line" d="M 53 366.25 L 311 366.25" opacity="1"></path><path fill="none" stroke="#B9CFD7" stroke-width="0.5" data-z-index="1" class="highcharts-grid-line" d="M 53 337.25 L 311 337.25" opacity="1"></path><path fill="none" stroke="#B9CFD7" stroke-width="0.5" data-z-index="1" class="highcharts-grid-line" d="M 53 307.25 L 311 307.25" opacity="1"></path><path fill="none" stroke="#B9CFD7" stroke-width="0.5" data-z-index="1" class="highcharts-grid-line" d="M 53 278.25 L 311 278.25" opacity="1"></path><path fill="none" stroke="#B9CFD7" stroke-width="0.5" data-z-index="1" class="highcharts-grid-line" d="M 53 249.25 L 311 249.25" opacity="1"></path><path fill="none" stroke="#B9CFD7" stroke-width="0.5" data-z-index="1" class="highcharts-grid-line" d="M 53 220.25 L 311 220.25" opacity="1"></path><path fill="none" stroke="#B9CFD7" stroke-width="0.5" data-z-index="1" class="highcharts-grid-line" d="M 53 190.25 L 311 190.25" opacity="1"></path><path fill="none" stroke="#B9CFD7" stroke-width="0.5" data-z-index="1" class="highcharts-grid-line" d="M 53 161.25 L 311 161.25" opacity="1"></path><path fill="none" stroke="#B9CFD7" stroke-width="0.5" data-z-index="1" class="highcharts-grid-line" d="M 53 132.25 L 311 132.25" opacity="1"></path><path fill="none" stroke="#B9CFD7" stroke-width="0.5" data-z-index="1" class="highcharts-grid-line" d="M 53 102.25 L 311 102.25" opacity="1"></path><path fill="none" stroke="#B9CFD7" stroke-width="0.5" data-z-index="1" class="highcharts-grid-line" d="M 53 72.75 L 311 72.75" opacity="1"></path></g><rect fill="none" class="highcharts-plot-border" data-z-index="1" x="53" y="73" width="258" height="293"></rect><g class="highcharts-axis highcharts-xaxis " data-z-index="2"><path fill="none" class="highcharts-axis-line" stroke="#B9CFD7" stroke-width="0.5" data-z-index="7" d="M 53 366.25 L 311 366.25"></path></g><g class="highcharts-axis highcharts-yaxis " data-z-index="2"><path fill="none" class="highcharts-axis-line" data-z-index="7" d="M 53 73 L 53 366"></path></g><g class="highcharts-series-group" data-z-index="3"><g data-z-index="0.1" class="highcharts-series highcharts-series-0 highcharts-column-series " transform="translate(53,73) scale(1 1)" clip-path="url(#highcharts-z13ldqy-7)"><rect x="13" y="213" width="25" height="81" fill="#256370" class="highcharts-point"></rect><rect x="65" y="234" width="25" height="60" fill="#256370" class="highcharts-point"></rect><rect x="117" y="191" width="25" height="103" fill="#256370" class="highcharts-point"></rect><rect x="168" y="198" width="25" height="96" fill="#256370" class="highcharts-point"></rect><rect x="220" y="207" width="25" height="87" fill="#256370" class="highcharts-point"></rect></g><g data-z-index="0.1" class="highcharts-markers highcharts-series-0 highcharts-column-series " transform="translate(53,73) scale(1 1)" clip-path="none"></g><g data-z-index="0.1" class="highcharts-series highcharts-series-1 highcharts-column-series " transform="translate(53,73) scale(1 1)" clip-path="url(#highcharts-z13ldqy-7)"><rect x="13" y="98" width="25" height="115" fill="#71A3B5" class="highcharts-point"></rect><rect x="65" y="113" width="25" height="121" fill="#71A3B5" class="highcharts-point"></rect><rect x="117" y="82" width="25" height="109" fill="#71A3B5" class="highcharts-point"></rect><rect x="168" y="70" width="25" height="128" fill="#71A3B5" class="highcharts-point"></rect><rect x="220" y="90" width="25" height="117" fill="#71A3B5" class="highcharts-point"></rect></g><g data-z-index="0.1" class="highcharts-markers highcharts-series-1 highcharts-column-series " transform="translate(53,73) scale(1 1)" clip-path="none"></g><g data-z-index="0.1" class="highcharts-series highcharts-series-2 highcharts-column-series " transform="translate(53,73) scale(1 1)" clip-path="url(#highcharts-z13ldqy-7)"><rect x="13" y="83" width="25" height="15" fill="#C8C8C8" class="highcharts-point"></rect><rect x="65" y="95" width="25" height="18" fill="#C8C8C8" class="highcharts-point"></rect><rect x="117" y="72" width="25" height="10" fill="#C8C8C8" class="highcharts-point"></rect><rect x="168" y="57" width="25" height="13" fill="#C8C8C8" class="highcharts-point"></rect><rect x="220" y="59" width="25" height="31" fill="#C8C8C8" class="highcharts-point"></rect></g><g data-z-index="0.1" class="highcharts-markers highcharts-series-2 highcharts-column-series " transform="translate(53,73) scale(1 1)" clip-path="none"></g><g data-z-index="0.1" class="highcharts-series highcharts-series-3 highcharts-column-series " transform="translate(53,73) scale(1 1)" clip-path="url(#highcharts-z13ldqy-7)"><rect x="13" y="28" width="25" height="55" fill="#FFBB58" class="highcharts-point"></rect><rect x="65" y="29" width="25" height="66" fill="#FFBB58" class="highcharts-point"></rect><rect x="117" y="25" width="25" height="47" fill="#FFBB58" class="highcharts-point"></rect><rect x="168" y="17" width="25" height="40" fill="#FFBB58" class="highcharts-point"></rect><rect x="220" y="17" width="25" height="42" fill="#FFBB58" class="highcharts-point"></rect></g><g data-z-index="0.1" class="highcharts-markers highcharts-series-3 highcharts-column-series " transform="translate(53,73) scale(1 1)" clip-path="none"></g><g data-z-index="0.1" class="highcharts-series highcharts-series-4 highcharts-column-series " transform="translate(53,73) scale(1 1)" clip-path="url(#highcharts-z13ldqy-7)"><rect x="13" y="0" width="25" height="28" fill="#FF8028" class="highcharts-point"></rect><rect x="65" y="0" width="25" height="29" fill="#FF8028" class="highcharts-point"></rect><rect x="117" y="0" width="25" height="25" fill="#FF8028" class="highcharts-point"></rect><rect x="168" y="0" width="25" height="17" fill="#FF8028" class="highcharts-point"></rect><rect x="220" y="0" width="25" height="17" fill="#FF8028" class="highcharts-point"></rect></g><g data-z-index="0.1" class="highcharts-markers highcharts-series-4 highcharts-column-series " transform="translate(53,73) scale(1 1)" clip-path="none"></g></g><text x="10" text-anchor="start" class="highcharts-title" data-z-index="4" style="color:#000000;font-size:14px;font-weight:bold;fill:#000000;" y="21"><tspan>Beurteilung des Beitrags der ausländischen Bevölkerung</tspan><tspan dy="17" x="10">zur Lebensqualität</tspan></text><text x="10" text-anchor="start" class="highcharts-subtitle" data-z-index="4" style="color:#000000;font-size:12px;fill:#000000;" y="57"><tspan>«Ohne die Menschen aus dem Ausland würden wir nicht so gut leben.»</tspan></text><g class="highcharts-legend" data-z-index="7" transform="translate(323,136)"><rect fill="none" class="highcharts-legend-box" rx="0" ry="0" x="0" y="0" width="152" height="126" visibility="visible"></rect><g data-z-index="1"><g><g class="highcharts-legend-item highcharts-column-series highcharts-color-undefined highcharts-series-4" data-z-index="1" transform="translate(8,3)"><text x="21" style="color:#333333;font-size:12px;font-weight:normal;cursor:pointer;fill:#333333;" text-anchor="start" data-z-index="2" y="15"><tspan>Stimme überhaupt</tspan><tspan dy="15" x="21">nicht zu</tspan></text><rect x="2" y="4" width="12" height="12" fill="#FF8028" class="highcharts-point" data-z-index="3"></rect></g><g class="highcharts-legend-item highcharts-column-series highcharts-color-undefined highcharts-series-3" data-z-index="1" transform="translate(8,38)"><text x="21" y="15" style="color:#333333;font-size:12px;font-weight:normal;cursor:pointer;fill:#333333;" text-anchor="start" data-z-index="2"><tspan>Stimme eher nicht zu</tspan></text><rect x="2" y="4" width="12" height="12" fill="#FFBB58" class="highcharts-point" data-z-index="3"></rect></g><g class="highcharts-legend-item highcharts-column-series highcharts-color-undefined highcharts-series-2" data-z-index="1" transform="translate(8,58)"><text x="21" y="15" style="color:#333333;font-size:12px;font-weight:normal;cursor:pointer;fill:#333333;" text-anchor="start" data-z-index="2"><tspan>Weiss nicht</tspan></text><rect x="2" y="4" width="12" height="12" fill="#C8C8C8" class="highcharts-point" data-z-index="3"></rect></g><g class="highcharts-legend-item highcharts-column-series highcharts-color-undefined highcharts-series-1" data-z-index="1" transform="translate(8,78)"><text x="21" y="15" style="color:#333333;font-size:12px;font-weight:normal;cursor:pointer;fill:#333333;" text-anchor="start" data-z-index="2"><tspan>Stimme eher zu</tspan></text><rect x="2" y="4" width="12" height="12" fill="#71A3B5" class="highcharts-point" data-z-index="3"></rect></g><g class="highcharts-legend-item highcharts-column-series highcharts-color-undefined highcharts-series-0" data-z-index="1" transform="translate(8,98)"><text x="21" y="15" style="color:#333333;font-size:12px;font-weight:normal;cursor:pointer;fill:#333333;" text-anchor="start" data-z-index="2"><tspan>Stimme sehr zu</tspan></text><rect x="2" y="4" width="12" height="12" fill="#256370" class="highcharts-point" data-z-index="3"></rect></g></g></g></g><g class="highcharts-axis-labels highcharts-xaxis-labels " data-z-index="7"><text x="78.8" style="color:#000000;cursor:default;font-size:11px;fill:#000000;" text-anchor="middle" transform="translate(0,0)" y="385" opacity="1"><tspan>2005</tspan></text><text x="130.39999999999998" style="color:#000000;cursor:default;font-size:11px;fill:#000000;" text-anchor="middle" transform="translate(0,0)" y="385" opacity="1"><tspan>2007</tspan></text><text x="182" style="color:#000000;cursor:default;font-size:11px;fill:#000000;" text-anchor="middle" transform="translate(0,0)" y="385" opacity="1"><tspan>2011</tspan></text><text x="233.59999999999997" style="color:#000000;cursor:default;font-size:11px;fill:#000000;" text-anchor="middle" transform="translate(0,0)" y="385" opacity="1"><tspan>2015</tspan></text><text x="285.2" style="color:#000000;cursor:default;font-size:11px;fill:#000000;" text-anchor="middle" transform="translate(0,0)" y="385" opacity="1"><tspan>2019</tspan></text></g><g class="highcharts-axis-labels highcharts-yaxis-labels " data-z-index="7"><text x="38" style="color:#000000;cursor:default;font-size:11px;fill:#000000;" text-anchor="end" transform="translate(0,0)" y="370" opacity="1">0%</text><text x="38" style="color:#000000;cursor:default;font-size:11px;fill:#000000;" text-anchor="end" transform="translate(0,0)" y="341" opacity="1">10%</text><text x="38" style="color:#000000;cursor:default;font-size:11px;fill:#000000;" text-anchor="end" transform="translate(0,0)" y="311" opacity="1">20%</text><text x="38" style="color:#000000;cursor:default;font-size:11px;fill:#000000;" text-anchor="end" transform="translate(0,0)" y="282" opacity="1">30%</text><text x="38" style="color:#000000;cursor:default;font-size:11px;fill:#000000;" text-anchor="end" transform="translate(0,0)" y="253" opacity="1">40%</text><text x="38" style="color:#000000;cursor:default;font-size:11px;fill:#000000;" text-anchor="end" transform="translate(0,0)" y="224" opacity="1">50%</text><text x="38" style="color:#000000;cursor:default;font-size:11px;fill:#000000;" text-anchor="end" transform="translate(0,0)" y="194" opacity="1">60%</text><text x="38" style="color:#000000;cursor:default;font-size:11px;fill:#000000;" text-anchor="end" transform="translate(0,0)" y="165" opacity="1">70%</text><text x="38" style="color:#000000;cursor:default;font-size:11px;fill:#000000;" text-anchor="end" transform="translate(0,0)" y="136" opacity="1">80%</text><text x="38" style="color:#000000;cursor:default;font-size:11px;fill:#000000;" text-anchor="end" transform="translate(0,0)" y="106" opacity="1">90%</text><text x="38" style="color:#000000;cursor:default;font-size:11px;fill:#000000;" text-anchor="end" transform="translate(0,0)" y="77" opacity="1">100%</text></g><text x="10" class="highcharts-credits" text-anchor="start" data-z-index="8" style="cursor:default;color:#000000;font-size:10px;fill:#000000;" y="403"><tspan>Quelle: Statistisches Amt Basel-Stadt, kantonale Bevölkerungsbefragung: F18c.</tspan><tspan x="10" dy="13">Zuletzt geändert: 2016-9-21</tspan></text></svg>