<?xml version="1.0" standalone="no"?><!DOCTYPE svg PUBLIC "-//W3C//DTD SVG 1.1//EN" "http://www.w3.org/Graphics/SVG/1.1/DTD/svg11.dtd"><svg xmlns:xlink="http://www.w3.org/1999/xlink" version="1.1" class="highcharts-root" style="font-family:Arial;font-size:12px;" xmlns="http://www.w3.org/2000/svg" viewBox="0 0 485 415"><desc>Created with Highcharts 8.1.2</desc><defs><clipPath id="highcharts-52q2v6j-18-"><rect x="0" y="0" width="443" height="285" fill="none"></rect></clipPath><clipPath id="highcharts-52q2v6j-30-"><rect x="0" y="0" width="443" height="285" fill="none"></rect></clipPath><clipPath id="highcharts-52q2v6j-31-"><rect x="32" y="72" width="443" height="285" fill="none"></rect></clipPath></defs><rect fill="#fbfbfb" class="highcharts-background" x="0" y="0" width="485" height="428" rx="0" ry="0"></rect><rect fill="none" class="highcharts-plot-background" x="32" y="72" width="443" height="285"></rect><g class="highcharts-pane-group" data-z-index="0"></g><g class="highcharts-grid highcharts-xaxis-grid" data-z-index="1"><path fill="none" data-z-index="1" class="highcharts-grid-line" d="M 55.5 72 L 55.5 357" opacity="1"></path><path fill="none" data-z-index="1" class="highcharts-grid-line" d="M 94.5 72 L 94.5 357" opacity="1"></path><path fill="none" data-z-index="1" class="highcharts-grid-line" d="M 134.5 72 L 134.5 357" opacity="1"></path><path fill="none" data-z-index="1" class="highcharts-grid-line" d="M 173.5 72 L 173.5 357" opacity="1"></path><path fill="none" data-z-index="1" class="highcharts-grid-line" d="M 213.5 72 L 213.5 357" opacity="1"></path><path fill="none" data-z-index="1" class="highcharts-grid-line" d="M 253.5 72 L 253.5 357" opacity="1"></path><path fill="none" data-z-index="1" class="highcharts-grid-line" d="M 292.5 72 L 292.5 357" opacity="1"></path><path fill="none" data-z-index="1" class="highcharts-grid-line" d="M 332.5 72 L 332.5 357" opacity="1"></path><path fill="none" data-z-index="1" class="highcharts-grid-line" d="M 371.5 72 L 371.5 357" opacity="1"></path><path fill="none" data-z-index="1" class="highcharts-grid-line" d="M 411.5 72 L 411.5 357" opacity="1"></path><path fill="none" data-z-index="1" class="highcharts-grid-line" d="M 450.5 72 L 450.5 357" opacity="1"></path></g><g class="highcharts-grid highcharts-yaxis-grid" data-z-index="1"><path fill="none" stroke="#B9CFD7" stroke-width="0.5" data-z-index="1" class="highcharts-grid-line" d="M 32 357.25 L 475 357.25" opacity="1"></path><path fill="none" stroke="#B9CFD7" stroke-width="0.5" data-z-index="1" class="highcharts-grid-line" d="M 32 286.25 L 475 286.25" opacity="1"></path><path fill="none" stroke="#B9CFD7" stroke-width="0.5" data-z-index="1" class="highcharts-grid-line" d="M 32 215.25 L 475 215.25" opacity="1"></path><path fill="none" stroke="#B9CFD7" stroke-width="0.5" data-z-index="1" class="highcharts-grid-line" d="M 32 143.25 L 475 143.25" opacity="1"></path><path fill="none" stroke="#B9CFD7" stroke-width="0.5" data-z-index="1" class="highcharts-grid-line" d="M 32 71.75 L 475 71.75" opacity="1"></path></g><rect fill="none" class="highcharts-plot-border" data-z-index="1" x="32" y="72" width="443" height="285"></rect><g class="highcharts-axis highcharts-xaxis" data-z-index="2"><path fill="none" class="highcharts-axis-line" stroke="#B9CFD7" stroke-width="0.5" data-z-index="7" d="M 32 357.25 L 475 357.25"></path></g><g class="highcharts-axis highcharts-yaxis" data-z-index="2"><path fill="none" class="highcharts-axis-line" data-z-index="7" d="M 32 72 L 32 357"></path></g><g class="highcharts-series-group" data-z-index="3"><g class="highcharts-series highcharts-series-0 highcharts-column-series" data-z-index="0.1" opacity="1" transform="translate(32,72) scale(1 1)" clip-path="url(#highcharts-52q2v6j-30-)"><rect x="14" y="118" width="19" height="168" fill="#933F8D" opacity="1" class="highcharts-point"></rect><rect x="54" y="150" width="19" height="136" fill="#933F8D" opacity="1" class="highcharts-point"></rect><rect x="93" y="151" width="19" height="135" fill="#933F8D" opacity="1" class="highcharts-point"></rect><rect x="133" y="91" width="19" height="195" fill="#933F8D" opacity="1" class="highcharts-point"></rect><rect x="172" y="101" width="19" height="185" fill="#933F8D" opacity="1" class="highcharts-point"></rect><rect x="212" y="86" width="19" height="200" fill="#933F8D" opacity="1" class="highcharts-point"></rect><rect x="252" y="68" width="19" height="218" fill="#933F8D" opacity="1" class="highcharts-point"></rect><rect x="291" y="111" width="19" height="175" fill="#933F8D" opacity="1" class="highcharts-point"></rect><rect x="331" y="68" width="19" height="218" fill="#933F8D" opacity="1" class="highcharts-point"></rect><rect x="370" y="81" width="19" height="205" fill="#933F8D" opacity="1" class="highcharts-point"></rect><rect x="410" y="51" width="19" height="235" fill="#933F8D" opacity="1" class="highcharts-point"></rect></g><g class="highcharts-markers highcharts-series-0 highcharts-column-series" data-z-index="0.1" opacity="1" transform="translate(32,72) scale(1 1)" clip-path="none"></g></g><text x="10" text-anchor="start" class="highcharts-title" data-z-index="4" style="color:#000000;font-size:14px;font-weight:bold;fill:#000000;" y="21"><tspan>Angezeigte Straftaten betreffend</tspan><tspan dy="17" x="10">Veruntreuung/Betrug</tspan></text><text x="10" text-anchor="start" class="highcharts-subtitle" data-z-index="4" style="color:#000000;font-size:12px;font-weight:normal;font-family:Arial;fill:#000000;" y="57"><tspan>pro 1000 Einwohner, Basel-Stadt</tspan></text><text x="10" text-anchor="start" class="highcharts-caption" data-z-index="4" style="color:#666666;fill:#666666;" y="390"></text><g class="highcharts-axis-labels highcharts-xaxis-labels" data-z-index="7"><text x="55.73214285714" style="color:#000000;cursor:default;font-size:11px;fill:#000000;" text-anchor="middle" transform="translate(0,0)" y="376" opacity="1">2009</text><text x="95.285714285712" style="color:#000000;cursor:default;font-size:11px;fill:#000000;" text-anchor="middle" transform="translate(0,0)" y="376" opacity="1">2010</text><text x="134.83928571428" style="color:#000000;cursor:default;font-size:11px;fill:#000000;" text-anchor="middle" transform="translate(0,0)" y="376" opacity="1">2011</text><text x="174.39285714286" style="color:#000000;cursor:default;font-size:11px;fill:#000000;" text-anchor="middle" transform="translate(0,0)" y="376" opacity="1">2012</text><text x="213.94642857143" style="color:#000000;cursor:default;font-size:11px;fill:#000000;" text-anchor="middle" transform="translate(0,0)" y="376" opacity="1">2013</text><text x="253.5" style="color:#000000;cursor:default;font-size:11px;fill:#000000;" text-anchor="middle" transform="translate(0,0)" y="376" opacity="1">2014</text><text x="293.05357142857" style="color:#000000;cursor:default;font-size:11px;fill:#000000;" text-anchor="middle" transform="translate(0,0)" y="376" opacity="1">2015</text><text x="332.60714285714" style="color:#000000;cursor:default;font-size:11px;fill:#000000;" text-anchor="middle" transform="translate(0,0)" y="376" opacity="1">2016</text><text x="372.16071428572" style="color:#000000;cursor:default;font-size:11px;fill:#000000;" text-anchor="middle" transform="translate(0,0)" y="376" opacity="1">2017</text><text x="411.71428571429" style="color:#000000;cursor:default;font-size:11px;fill:#000000;" text-anchor="middle" transform="translate(0,0)" y="376" opacity="1">2018</text><text x="451.26785714286" style="color:#000000;cursor:default;font-size:11px;fill:#000000;" text-anchor="middle" transform="translate(0,0)" y="376" opacity="1">2019</text></g><g class="highcharts-axis-labels highcharts-yaxis-labels" data-z-index="7"><text x="17" style="color:#000000;cursor:default;font-size:11px;fill:#000000;" text-anchor="end" transform="translate(0,0)" y="362" opacity="1">0</text><text x="17" style="color:#000000;cursor:default;font-size:11px;fill:#000000;" text-anchor="end" transform="translate(0,0)" y="290" opacity="1">2</text><text x="17" style="color:#000000;cursor:default;font-size:11px;fill:#000000;" text-anchor="end" transform="translate(0,0)" y="219" opacity="1">4</text><text x="17" style="color:#000000;cursor:default;font-size:11px;fill:#000000;" text-anchor="end" transform="translate(0,0)" y="148" opacity="1">6</text><text x="17" style="color:#000000;cursor:default;font-size:11px;fill:#000000;" text-anchor="end" transform="translate(0,0)" y="77" opacity="1">8</text></g><text x="10" class="highcharts-credits" text-anchor="start" data-z-index="8" style="cursor:default;color:#000000;font-size:10px;fill:#000000;" y="393"><tspan>Quelle: Statistisches Amt Basel-Stadt;</tspan><tspan x="10" dy="13">Bundesamt für Statistik (BFS), Polizeiliche Kriminalstatistik (PKS).</tspan><tspan x="10" dy="13">Zuletzt geändert: 2020-6-25</tspan></text><g class="highcharts-control-points" data-z-index="99" clip-path="url(#highcharts-52q2v6j-31-)"></g></svg>