<?xml version="1.0" standalone="no"?>
<!DOCTYPE svg PUBLIC "-//W3C//DTD SVG 1.1//EN" "http://www.w3.org/Graphics/SVG/1.1/DTD/svg11.dtd">
<svg xmlns:xlink="http://www.w3.org/1999/xlink" version="1.1" class="highcharts-root" style="font-family:Arial;font-size:12px;" xmlns="http://www.w3.org/2000/svg" viewBox="0 0 485 415">
  <desc>
    Created with Highstock 6.0.4
  </desc>
  <defs>
    <clipPath>
      <rect x="0" y="0" width="374" height="265" fill="none"/>
    </clipPath>
    <clipPath id="a">
      <rect x="0" y="0" width="374" height="265" fill="none"/>
    </clipPath>
    <clipPath id="b">
      <rect x="0" y="0" width="374" height="265" fill="none"/>
    </clipPath>
  </defs>
  <rect fill="#fbfbfb" class="highcharts-background" x="0" y="0" width="485" height="415" rx="0" ry="0"/>
  <rect fill="none" class="highcharts-plot-background" x="65" y="75" width="374" height="265"/>
  <g class="highcharts-pane-group"/>
  <g class="highcharts-grid highcharts-xaxis-grid ">
    <path fill="none" class="highcharts-grid-line" d="M 83.5 75 L 83.5 340" opacity="1"/>
    <path fill="none" class="highcharts-grid-line" d="M 158.5 75 L 158.5 340" opacity="1"/>
    <path fill="none" class="highcharts-grid-line" d="M 232.5 75 L 232.5 340" opacity="1"/>
    <path fill="none" class="highcharts-grid-line" d="M 307.5 75 L 307.5 340" opacity="1"/>
    <path fill="none" class="highcharts-grid-line" d="M 382.5 75 L 382.5 340" opacity="1"/>
  </g>
  <g class="highcharts-grid highcharts-yaxis-grid ">
    <path fill="none" stroke="#e6e6e6" stroke-width="1" class="highcharts-grid-line" d="M 65 340.5 L 439 340.5" opacity="1"/>
    <path fill="none" stroke="#e6e6e6" stroke-width="1" class="highcharts-grid-line" d="M 65 274.5 L 439 274.5" opacity="1"/>
    <path fill="none" stroke="#e6e6e6" stroke-width="1" class="highcharts-grid-line" d="M 65 208.5 L 439 208.5" opacity="1"/>
    <path fill="none" stroke="#e6e6e6" stroke-width="1" class="highcharts-grid-line" d="M 65 141.5 L 439 141.5" opacity="1"/>
    <path fill="none" stroke="#e6e6e6" stroke-width="1" class="highcharts-grid-line" d="M 65 74.5 L 439 74.5" opacity="1"/>
  </g>
  <g class="highcharts-grid highcharts-yaxis-grid ">
    <path fill="none" stroke="#e6e6e6" stroke-width="1" class="highcharts-grid-line" d="M 65 340.5 L 439 340.5" opacity="1"/>
    <path fill="none" stroke="#e6e6e6" stroke-width="1" class="highcharts-grid-line" d="M 65 274.5 L 439 274.5" opacity="1"/>
    <path fill="none" stroke="#e6e6e6" stroke-width="1" class="highcharts-grid-line" d="M 65 208.5 L 439 208.5" opacity="1"/>
    <path fill="none" stroke="#e6e6e6" stroke-width="1" class="highcharts-grid-line" d="M 65 141.5 L 439 141.5" opacity="1"/>
    <path fill="none" stroke="#e6e6e6" stroke-width="1" class="highcharts-grid-line" d="M 65 74.5 L 439 74.5" opacity="1"/>
  </g>
  <rect fill="none" class="highcharts-plot-border" x="65" y="75" width="374" height="265"/>
  <g class="highcharts-axis highcharts-xaxis ">
    <path fill="none" class="highcharts-axis-line" stroke="#B9CFD7" stroke-width="0.5" d="M 65 340.25 L 439 340.25"/>
  </g>
  <g class="highcharts-axis highcharts-yaxis ">
    <path fill="none" class="highcharts-axis-line" d="M 65 75 L 65 340"/>
  </g>
  <g class="highcharts-axis highcharts-yaxis ">
    <path fill="none" class="highcharts-axis-line" d="M 439 75 L 439 340"/>
  </g>
  <g class="highcharts-series-group">
    <g class="highcharts-series highcharts-series-0 highcharts-column-series " transform="translate(65,75) scale(1 1)" clip-path="url(#a)">
      <rect x="14" y="59" width="10" height="64" fill="#71A3B5" class="highcharts-point"/>
      <rect x="51" y="58" width="10" height="65" fill="#71A3B5" class="highcharts-point"/>
      <rect x="89" y="57" width="10" height="66" fill="#71A3B5" class="highcharts-point"/>
      <rect x="126" y="55" width="10" height="69" fill="#71A3B5" class="highcharts-point"/>
      <rect x="163" y="55" width="10" height="69" fill="#71A3B5" class="highcharts-point"/>
      <rect x="201" y="54" width="10" height="71" fill="#71A3B5" class="highcharts-point"/>
      <rect x="238" y="52" width="10" height="73" fill="#71A3B5" class="highcharts-point"/>
      <rect x="276" y="50" width="10" height="75" fill="#71A3B5" class="highcharts-point"/>
      <rect x="313" y="49" width="10" height="76" fill="#71A3B5" class="highcharts-point"/>
      <rect x="350" y="48" width="10" height="77" fill="#71A3B5" class="highcharts-point"/>
    </g>
    <g class="highcharts-markers highcharts-series-0 highcharts-column-series " transform="translate(65,75) scale(1 1)" clip-path="none"/>
    <g class="highcharts-series highcharts-series-1 highcharts-column-series " transform="translate(65,75) scale(1 1)" clip-path="url(#a)">
      <rect x="14" y="123" width="10" height="143" fill="#990300" class="highcharts-point"/>
      <rect x="51" y="123" width="10" height="143" fill="#990300" class="highcharts-point"/>
      <rect x="89" y="123" width="10" height="143" fill="#990300" class="highcharts-point"/>
      <rect x="126" y="124" width="10" height="142" fill="#990300" class="highcharts-point"/>
      <rect x="163" y="124" width="10" height="142" fill="#990300" class="highcharts-point"/>
      <rect x="201" y="125" width="10" height="141" fill="#990300" class="highcharts-point"/>
      <rect x="238" y="125" width="10" height="141" fill="#990300" class="highcharts-point"/>
      <rect x="276" y="125" width="10" height="141" fill="#990300" class="highcharts-point"/>
      <rect x="313" y="125" width="10" height="141" fill="#990300" class="highcharts-point"/>
      <rect x="350" y="125" width="10" height="141" fill="#990300" class="highcharts-point"/>
    </g>
    <g class="highcharts-markers highcharts-series-1 highcharts-column-series " transform="translate(65,75) scale(1 1)" clip-path="none"/>
    <g class="highcharts-series highcharts-series-2 highcharts-line-series " transform="translate(65,75) scale(1 1)" clip-path="url(#b)">
      <path fill="none" d="M 18.7 58.35328448544999 L 56.1 57.37672872358749 L 93.5 54.146083479799984 L 130.9 49.12808217443748 L 168.3 47.686361040287494 L 205.7 43.926375497437505 L 243.1 40.60290552563751 L 280.5 36.03535779890001 L 317.9 33.077286215362506 L 355.3 31.224886412587495" class="highcharts-graph" stroke="#000000" stroke-width="2" stroke-linejoin="round" stroke-linecap="round"/>
    </g>
    <g class="highcharts-markers highcharts-series-2 highcharts-line-series " transform="translate(65,75) scale(1 1)" clip-path="none"/>
  </g>
  <text x="10" text-anchor="start" class="highcharts-title" style="color:#000000;font-size:14px;font-weight:bold;fill:#000000;" y="21">
    <tspan>Wohnbevölkerung am Jahresende nach Staatsangehörigkeit</tspan><tspan dy="17" x="10">(Schweiz/Ausland)</tspan><title>Wohnbevölkerung am Jahresende nach Staatsangehörigkeit (Schweiz/Ausland)</title>
  </text>
  <text x="10" text-anchor="start" class="highcharts-subtitle" style="color:#000000;font-size:12px;font-weight:normal;font-family:Arial;fill:#000000;" y="57"/>
  <g class="highcharts-legend" transform="translate(55,93)">
    <rect fill="none" class="highcharts-legend-box" rx="0" ry="0" x="0" y="0" width="367" height="30" visibility="visible"/>
    <g>
      <g>
        <g class="highcharts-legend-item highcharts-column-series highcharts-color-undefined highcharts-series-1" transform="translate(8,3)">
          <text x="21" style="color:#333333;font-size:12px;font-weight:normal;cursor:pointer;fill:#333333;" text-anchor="start" y="15">
            <tspan>Schweiz</tspan>
          </text>
          <rect x="2" y="4" width="12" height="12" fill="#990300" class="highcharts-point"/>
        </g>
        <g class="highcharts-legend-item highcharts-column-series highcharts-color-undefined highcharts-series-0" transform="translate(93.65625,3)">
          <text x="21" y="15" style="color:#333333;font-size:12px;font-weight:normal;cursor:pointer;fill:#333333;" text-anchor="start">
            <tspan>Ausland</tspan>
          </text>
          <rect x="2" y="4" width="12" height="12" fill="#71A3B5" class="highcharts-point"/>
        </g>
        <g class="highcharts-legend-item highcharts-line-series highcharts-color-undefined highcharts-series-2" transform="translate(178,3)">
          <path fill="none" d="M 0 11 L 16 11" class="highcharts-graph" stroke="#000000" stroke-width="2"/>
          <text x="21" y="15" style="color:#333333;font-size:12px;font-weight:normal;cursor:pointer;fill:#333333;" text-anchor="start">
            <tspan>Ausländeranteil (rechte Skala)</tspan>
          </text>
        </g>
      </g>
    </g>
  </g>
  <g class="highcharts-axis-labels highcharts-xaxis-labels ">
    <text x="83.7" style="color:#000000;cursor:default;font-size:11px;fill:#000000;" text-anchor="middle" transform="translate(0,0)" y="359" opacity="1">
      <tspan>2006</tspan>
    </text>
    <text x="158.5" style="color:#000000;cursor:default;font-size:11px;fill:#000000;" text-anchor="middle" transform="translate(0,0)" y="359" opacity="1">
      <tspan>2008</tspan>
    </text>
    <text x="233.29999999999998" style="color:#000000;cursor:default;font-size:11px;fill:#000000;" text-anchor="middle" transform="translate(0,0)" y="359" opacity="1">
      <tspan>2010</tspan>
    </text>
    <text x="308.09999999999997" style="color:#000000;cursor:default;font-size:11px;fill:#000000;" text-anchor="middle" transform="translate(0,0)" y="359" opacity="1">
      <tspan>2012</tspan>
    </text>
    <text x="382.9" style="color:#000000;cursor:default;font-size:11px;fill:#000000;" text-anchor="middle" transform="translate(0,0)" y="359" opacity="1">
      <tspan>2014</tspan>
    </text>
  </g>
  <g class="highcharts-axis-labels highcharts-yaxis-labels ">
    <text x="50" style="color:#000000;cursor:default;font-size:11px;fill:#000000;" text-anchor="end" transform="translate(0,0)" y="345" opacity="1">
      <tspan>0</tspan>
    </text>
    <text x="50" style="color:#000000;cursor:default;font-size:11px;fill:#000000;" text-anchor="end" transform="translate(0,0)" y="278" opacity="1">
      <tspan>60 000</tspan>
    </text>
    <text x="50" style="color:#000000;cursor:default;font-size:11px;fill:#000000;" text-anchor="end" transform="translate(0,0)" y="212" opacity="1">
      <tspan>120 000</tspan>
    </text>
    <text x="50" style="color:#000000;cursor:default;font-size:11px;fill:#000000;" text-anchor="end" transform="translate(0,0)" y="146" opacity="1">
      <tspan>180 000</tspan>
    </text>
    <text x="50" style="color:#000000;cursor:default;font-size:11px;fill:#000000;" text-anchor="end" transform="translate(0,0)" y="80" opacity="1">
      <tspan>240 000</tspan>
    </text>
  </g>
  <g class="highcharts-axis-labels highcharts-yaxis-labels ">
    <text x="454" style="color:#000000;cursor:default;font-size:11px;fill:#000000;" text-anchor="start" transform="translate(0,0)" y="345" opacity="1">
      <tspan>0.0</tspan>
    </text>
    <text x="454" style="color:#000000;cursor:default;font-size:11px;fill:#000000;" text-anchor="start" transform="translate(0,0)" y="278" opacity="1">
      <tspan>10.0</tspan>
    </text>
    <text x="454" style="color:#000000;cursor:default;font-size:11px;fill:#000000;" text-anchor="start" transform="translate(0,0)" y="212" opacity="1">
      <tspan>20.0</tspan>
    </text>
    <text x="454" style="color:#000000;cursor:default;font-size:11px;fill:#000000;" text-anchor="start" transform="translate(0,0)" y="146" opacity="1">
      <tspan>30.0</tspan>
    </text>
    <text x="454" style="color:#000000;cursor:default;font-size:11px;fill:#000000;" text-anchor="start" transform="translate(0,0)" y="80" opacity="1">
      <tspan>40.0</tspan>
    </text>
  </g>
  <text x="10" class="highcharts-credits" text-anchor="start" style="cursor:default;color:#000000;font-size:10px;fill:#000000;" y="400">
    <tspan>Quelle: Statistisches Amt Basel-Stadt, Bevölkerungsstatistik</tspan>
  </text>
</svg>
