<?xml version="1.0" standalone="no"?><!DOCTYPE svg PUBLIC "-//W3C//DTD SVG 1.1//EN" "http://www.w3.org/Graphics/SVG/1.1/DTD/svg11.dtd"><svg xmlns:xlink="http://www.w3.org/1999/xlink" version="1.1" class="highcharts-root" style="font-family:Arial;font-size:12px;" xmlns="http://www.w3.org/2000/svg" viewBox="0 0 485 415"><desc>Created with Highstock 6.1.1</desc><defs><clipPath id="highcharts-73becyu-9"><rect x="0" y="0" width="419" height="118" fill="none"></rect></clipPath><clipPath id="highcharts-73becyu-10"><rect x="0" y="0" width="419" height="118" fill="none"></rect></clipPath><clipPath id="highcharts-73becyu-11"><rect x="0" y="0" width="391" height="30" fill="none"></rect></clipPath></defs><rect fill="#fbfbfb" class="highcharts-background" x="0" y="0" width="485" height="428" rx="0" ry="0"></rect><rect fill="none" class="highcharts-plot-background" x="56" y="109" width="419" height="118"></rect><g class="highcharts-pane-group" data-z-index="0"></g><g class="highcharts-plot-lines-0" data-z-index="0"><path fill="none" class="highcharts-plot-line " stroke="#B9CFD7" stroke-width="1" d="M 56 168.5 L 475 168.5"></path></g><g class="highcharts-grid highcharts-xaxis-grid " data-z-index="1"><path fill="none" data-z-index="1" class="highcharts-grid-line" d="M 68.5 109 L 68.5 227" opacity="1"></path><path fill="none" data-z-index="1" class="highcharts-grid-line" d="M 86.5 109 L 86.5 227" opacity="1"></path><path fill="none" data-z-index="1" class="highcharts-grid-line" d="M 103.5 109 L 103.5 227" opacity="1"></path><path fill="none" data-z-index="1" class="highcharts-grid-line" d="M 120.5 109 L 120.5 227" opacity="1"></path><path fill="none" data-z-index="1" class="highcharts-grid-line" d="M 138.5 109 L 138.5 227" opacity="1"></path><path fill="none" data-z-index="1" class="highcharts-grid-line" d="M 155.5 109 L 155.5 227" opacity="1"></path><path fill="none" data-z-index="1" class="highcharts-grid-line" d="M 173.5 109 L 173.5 227" opacity="1"></path><path fill="none" data-z-index="1" class="highcharts-grid-line" d="M 190.5 109 L 190.5 227" opacity="1"></path><path fill="none" data-z-index="1" class="highcharts-grid-line" d="M 208.5 109 L 208.5 227" opacity="1"></path><path fill="none" data-z-index="1" class="highcharts-grid-line" d="M 225.5 109 L 225.5 227" opacity="1"></path><path fill="none" data-z-index="1" class="highcharts-grid-line" d="M 243.5 109 L 243.5 227" opacity="1"></path><path fill="none" data-z-index="1" class="highcharts-grid-line" d="M 260.5 109 L 260.5 227" opacity="1"></path><path fill="none" data-z-index="1" class="highcharts-grid-line" d="M 278.5 109 L 278.5 227" opacity="1"></path><path fill="none" data-z-index="1" class="highcharts-grid-line" d="M 295.5 109 L 295.5 227" opacity="1"></path><path fill="none" data-z-index="1" class="highcharts-grid-line" d="M 313.5 109 L 313.5 227" opacity="1"></path><path fill="none" data-z-index="1" class="highcharts-grid-line" d="M 330.5 109 L 330.5 227" opacity="1"></path><path fill="none" data-z-index="1" class="highcharts-grid-line" d="M 347.5 109 L 347.5 227" opacity="1"></path><path fill="none" data-z-index="1" class="highcharts-grid-line" d="M 365.5 109 L 365.5 227" opacity="1"></path><path fill="none" data-z-index="1" class="highcharts-grid-line" d="M 382.5 109 L 382.5 227" opacity="1"></path><path fill="none" data-z-index="1" class="highcharts-grid-line" d="M 400.5 109 L 400.5 227" opacity="1"></path><path fill="none" data-z-index="1" class="highcharts-grid-line" d="M 417.5 109 L 417.5 227" opacity="1"></path><path fill="none" data-z-index="1" class="highcharts-grid-line" d="M 435.5 109 L 435.5 227" opacity="1"></path><path fill="none" data-z-index="1" class="highcharts-grid-line" d="M 452.5 109 L 452.5 227" opacity="1"></path><path fill="none" data-z-index="1" class="highcharts-grid-line" d="M 470.5 109 L 470.5 227" opacity="1"></path></g><g class="highcharts-grid highcharts-xaxis-grid highcharts-navigator-xaxis" data-z-index="1"><path fill="none" stroke="#e6e6e6" stroke-width="1" data-z-index="1" class="highcharts-grid-line" d="M 102.5 299 L 102.5 329" opacity="1"></path><path fill="none" stroke="#e6e6e6" stroke-width="1" data-z-index="1" class="highcharts-grid-line" d="M 310.5 299 L 310.5 329" opacity="1"></path></g><g class="highcharts-grid highcharts-yaxis-grid " data-z-index="1"><path fill="none" stroke="#B9CFD7" stroke-width="0.5" data-z-index="1" class="highcharts-grid-line" d="M 56 227.25 L 475 227.25" opacity="1"></path><path fill="none" stroke="#B9CFD7" stroke-width="0.5" data-z-index="1" class="highcharts-grid-line" d="M 56 168.25 L 475 168.25" opacity="1"></path><path fill="none" stroke="#B9CFD7" stroke-width="0.5" data-z-index="1" class="highcharts-grid-line" d="M 56 108.75 L 475 108.75" opacity="1"></path></g><g class="highcharts-grid highcharts-yaxis-grid highcharts-navigator-yaxis" data-z-index="1"><path fill="none" data-z-index="1" class="highcharts-grid-line" d="M 70 310.5 L 461 310.5" opacity="1"></path></g><rect fill="none" class="highcharts-plot-border" data-z-index="1" x="56" y="109" width="419" height="118"></rect><g class="highcharts-axis highcharts-xaxis " data-z-index="2"><path fill="none" class="highcharts-axis-line" stroke="#B9CFD7" stroke-width="0.5" data-z-index="7" d="M 56 227.25 L 475 227.25"></path></g><g class="highcharts-axis highcharts-xaxis highcharts-navigator-xaxis" data-z-index="2"><path fill="none" class="highcharts-axis-line" data-z-index="7" d="M 70 329 L 461 329"></path></g><g class="highcharts-axis highcharts-yaxis " data-z-index="2"><path fill="none" class="highcharts-axis-line" data-z-index="7" d="M 56 109 L 56 227"></path></g><g class="highcharts-axis highcharts-yaxis highcharts-navigator-yaxis" data-z-index="2"><path fill="none" class="highcharts-axis-line" data-z-index="7" d="M 56 299 L 56 329"></path></g><g class="highcharts-scrollbar" data-z-index="3" transform="translate(56,330)"><rect fill="#f2f2f2" class="highcharts-scrollbar-track" x="0" rx="0" ry="0" height="14" width="419" stroke="#f2f2f2" stroke-width="1" y="-0.5"></rect><g transform="translate(14,-0.5)"><rect fill="#cccccc" class="highcharts-scrollbar-thumb" height="14" width="391" rx="0" ry="0" stroke="#cccccc" stroke-width="1"></rect><path fill="none" d="M -3 3.5 L -3 9.333333333333334 M 0 3.5 L 0 9.333333333333334 M 3 3.5 L 3 9.333333333333334" class="highcharts-scrollbar-rifles" stroke="#333333" stroke-width="1" transform="translate(195,0)"></path></g><g><rect fill="#e6e6e6" class="highcharts-scrollbar-button" stroke="#cccccc" stroke-width="1" x="-0.5" y="-0.5" width="14" height="14" rx="0" ry="0"></rect><path fill="#333333" d="M 8 4 L 8 10 L 5 7" class="highcharts-scrollbar-arrow"></path></g><g transform="translate(405,0)"><rect fill="#e6e6e6" class="highcharts-scrollbar-button" stroke="#cccccc" stroke-width="1" x="-0.5" y="-0.5" width="14" height="14" rx="0" ry="0"></rect><path fill="#333333" d="M 6 4 L 6 10 L 9 7" class="highcharts-scrollbar-arrow"></path></g></g><g class="highcharts-series-group" data-z-index="3"><g data-z-index="0.1" class="highcharts-series highcharts-series-0 highcharts-column-series " transform="translate(56,109) scale(1 1)" clip-path="url(#highcharts-73becyu-10)"><rect x="2" y="60" width="1" height="2" fill="#FABD24" class="highcharts-point highcharts-negative"></rect><rect x="10" y="60" width="2" height="0" fill="#FABD24" class="highcharts-point"></rect><rect x="19" y="60" width="2" height="5" fill="#FABD24" class="highcharts-point highcharts-negative"></rect><rect x="28" y="60" width="2" height="4" fill="#FABD24" class="highcharts-point highcharts-negative"></rect><rect x="37" y="60" width="1" height="6" fill="#FABD24" class="highcharts-point highcharts-negative"></rect><rect x="45" y="60" width="2" height="9" fill="#FABD24" class="highcharts-point highcharts-negative"></rect><rect x="54" y="60" width="2" height="9" fill="#FABD24" class="highcharts-point highcharts-negative"></rect><rect x="63" y="60" width="2" height="10" fill="#FABD24" class="highcharts-point highcharts-negative"></rect><rect x="72" y="60" width="1" height="10" fill="#FABD24" class="highcharts-point highcharts-negative"></rect><rect x="80" y="60" width="2" height="9" fill="#FABD24" class="highcharts-point highcharts-negative"></rect><rect x="89" y="60" width="2" height="11" fill="#FABD24" class="highcharts-point highcharts-negative"></rect><rect x="98" y="60" width="2" height="8" fill="#FABD24" class="highcharts-point highcharts-negative"></rect><rect x="106" y="60" width="2" height="12" fill="#FABD24" class="highcharts-point highcharts-negative"></rect><rect x="115" y="60" width="2" height="10" fill="#FABD24" class="highcharts-point highcharts-negative"></rect><rect x="124" y="60" width="2" height="10" fill="#FABD24" class="highcharts-point highcharts-negative"></rect><rect x="133" y="60" width="1" height="11" fill="#FABD24" class="highcharts-point highcharts-negative"></rect><rect x="141" y="60" width="2" height="9" fill="#FABD24" class="highcharts-point highcharts-negative"></rect><rect x="150" y="60" width="2" height="10" fill="#FABD24" class="highcharts-point highcharts-negative"></rect><rect x="159" y="60" width="2" height="11" fill="#FABD24" class="highcharts-point highcharts-negative"></rect><rect x="168" y="60" width="1" height="11" fill="#FABD24" class="highcharts-point highcharts-negative"></rect><rect x="176" y="60" width="2" height="8" fill="#FABD24" class="highcharts-point highcharts-negative"></rect><rect x="185" y="60" width="2" height="8" fill="#FABD24" class="highcharts-point highcharts-negative"></rect><rect x="194" y="60" width="2" height="7" fill="#FABD24" class="highcharts-point highcharts-negative"></rect><rect x="203" y="60" width="1" height="7" fill="#FABD24" class="highcharts-point highcharts-negative"></rect><rect x="211" y="60" width="2" height="9" fill="#FABD24" class="highcharts-point highcharts-negative"></rect><rect x="220" y="60" width="2" height="5" fill="#FABD24" class="highcharts-point highcharts-negative"></rect><rect x="229" y="60" width="1" height="9" fill="#FABD24" class="highcharts-point highcharts-negative"></rect><rect x="237" y="60" width="2" height="9" fill="#FABD24" class="highcharts-point highcharts-negative"></rect><rect x="246" y="60" width="2" height="8" fill="#FABD24" class="highcharts-point highcharts-negative"></rect><rect x="255" y="60" width="2" height="8" fill="#FABD24" class="highcharts-point highcharts-negative"></rect><rect x="264" y="60" width="1" height="9" fill="#FABD24" class="highcharts-point highcharts-negative"></rect><rect x="272" y="60" width="2" height="10" fill="#FABD24" class="highcharts-point highcharts-negative"></rect><rect x="281" y="60" width="2" height="9" fill="#FABD24" class="highcharts-point highcharts-negative"></rect><rect x="290" y="60" width="2" height="6" fill="#FABD24" class="highcharts-point highcharts-negative"></rect><rect x="299" y="60" width="1" height="6" fill="#FABD24" class="highcharts-point highcharts-negative"></rect><rect x="307" y="60" width="2" height="6" fill="#FABD24" class="highcharts-point highcharts-negative"></rect><rect x="316" y="60" width="2" height="4" fill="#FABD24" class="highcharts-point highcharts-negative"></rect><rect x="325" y="60" width="1" height="6" fill="#FABD24" class="highcharts-point highcharts-negative"></rect><rect x="333" y="60" width="2" height="5" fill="#FABD24" class="highcharts-point highcharts-negative"></rect><rect x="342" y="60" width="2" height="3" fill="#FABD24" class="highcharts-point highcharts-negative"></rect><rect x="351" y="60" width="2" height="2" fill="#FABD24" class="highcharts-point highcharts-negative"></rect><rect x="360" y="60" width="1" height="3" fill="#FABD24" class="highcharts-point highcharts-negative"></rect><rect x="368" y="60" width="2" height="1" fill="#FABD24" class="highcharts-point highcharts-negative"></rect><rect x="377" y="60" width="2" height="2" fill="#FABD24" class="highcharts-point highcharts-negative"></rect><rect x="386" y="60" width="2" height="1" fill="#FABD24" class="highcharts-point highcharts-negative"></rect><rect x="395" y="58" width="1" height="2" fill="#FABD24" class="highcharts-point"></rect><rect x="403" y="60" width="2" height="1" fill="#FABD24" class="highcharts-point highcharts-negative"></rect><rect x="412" y="60" width="2" height="0" fill="#FABD24" class="highcharts-point highcharts-negative"></rect></g><g data-z-index="0.1" class="highcharts-markers highcharts-series-0 highcharts-column-series " transform="translate(56,109) scale(1 1)" clip-path="none"></g><g data-z-index="0.1" class="highcharts-series highcharts-series-1 highcharts-column-series " transform="translate(56,109) scale(1 1)" clip-path="url(#highcharts-73becyu-10)"><rect x="3" y="60" width="2" height="44" fill="#923F8D" class="highcharts-point highcharts-negative"></rect><rect x="12" y="60" width="2" height="29" fill="#923F8D" class="highcharts-point highcharts-negative"></rect><rect x="21" y="60" width="2" height="26" fill="#923F8D" class="highcharts-point highcharts-negative"></rect><rect x="30" y="60" width="1" height="37" fill="#923F8D" class="highcharts-point highcharts-negative"></rect><rect x="38" y="60" width="2" height="35" fill="#923F8D" class="highcharts-point highcharts-negative"></rect><rect x="47" y="60" width="2" height="42" fill="#923F8D" class="highcharts-point highcharts-negative"></rect><rect x="56" y="60" width="2" height="33" fill="#923F8D" class="highcharts-point highcharts-negative"></rect><rect x="65" y="60" width="1" height="18" fill="#923F8D" class="highcharts-point highcharts-negative"></rect><rect x="73" y="60" width="2" height="13" fill="#923F8D" class="highcharts-point highcharts-negative"></rect><rect x="82" y="60" width="2" height="9" fill="#923F8D" class="highcharts-point highcharts-negative"></rect><rect x="91" y="60" width="2" height="7" fill="#923F8D" class="highcharts-point highcharts-negative"></rect><rect x="100" y="60" width="1" height="6" fill="#923F8D" class="highcharts-point highcharts-negative"></rect><rect x="108" y="57" width="2" height="3" fill="#923F8D" class="highcharts-point"></rect><rect x="117" y="60" width="2" height="0" fill="#923F8D" class="highcharts-point highcharts-negative"></rect><rect x="126" y="55" width="1" height="5" fill="#923F8D" class="highcharts-point"></rect><rect x="134" y="60" width="2" height="17" fill="#923F8D" class="highcharts-point highcharts-negative"></rect><rect x="143" y="60" width="2" height="7" fill="#923F8D" class="highcharts-point highcharts-negative"></rect><rect x="152" y="60" width="2" height="11" fill="#923F8D" class="highcharts-point highcharts-negative"></rect><rect x="161" y="56" width="1" height="4" fill="#923F8D" class="highcharts-point"></rect><rect x="169" y="42" width="2" height="18" fill="#923F8D" class="highcharts-point"></rect><rect x="178" y="32" width="2" height="28" fill="#923F8D" class="highcharts-point"></rect><rect x="187" y="47" width="2" height="13" fill="#923F8D" class="highcharts-point"></rect><rect x="196" y="45" width="1" height="15" fill="#923F8D" class="highcharts-point"></rect><rect x="204" y="59" width="2" height="1" fill="#923F8D" class="highcharts-point"></rect><rect x="213" y="60" width="2" height="2" fill="#923F8D" class="highcharts-point highcharts-negative"></rect><rect x="222" y="60" width="1" height="10" fill="#923F8D" class="highcharts-point highcharts-negative"></rect><rect x="230" y="60" width="2" height="18" fill="#923F8D" class="highcharts-point highcharts-negative"></rect><rect x="239" y="60" width="2" height="17" fill="#923F8D" class="highcharts-point highcharts-negative"></rect><rect x="248" y="60" width="2" height="15" fill="#923F8D" class="highcharts-point highcharts-negative"></rect><rect x="257" y="60" width="1" height="10" fill="#923F8D" class="highcharts-point highcharts-negative"></rect><rect x="265" y="60" width="2" height="4" fill="#923F8D" class="highcharts-point highcharts-negative"></rect><rect x="274" y="44" width="2" height="16" fill="#923F8D" class="highcharts-point"></rect><rect x="283" y="49" width="2" height="11" fill="#923F8D" class="highcharts-point"></rect><rect x="292" y="51" width="1" height="9" fill="#923F8D" class="highcharts-point"></rect><rect x="300" y="60" width="2" height="1" fill="#923F8D" class="highcharts-point highcharts-negative"></rect><rect x="309" y="55" width="2" height="5" fill="#923F8D" class="highcharts-point"></rect><rect x="318" y="53" width="1" height="7" fill="#923F8D" class="highcharts-point"></rect><rect x="326" y="36" width="2" height="24" fill="#923F8D" class="highcharts-point"></rect><rect x="335" y="40" width="2" height="20" fill="#923F8D" class="highcharts-point"></rect><rect x="344" y="57" width="2" height="3" fill="#923F8D" class="highcharts-point"></rect><rect x="353" y="40" width="1" height="20" fill="#923F8D" class="highcharts-point"></rect><rect x="361" y="39" width="2" height="21" fill="#923F8D" class="highcharts-point"></rect><rect x="370" y="38" width="2" height="22" fill="#923F8D" class="highcharts-point"></rect><rect x="379" y="51" width="2" height="9" fill="#923F8D" class="highcharts-point"></rect><rect x="388" y="52" width="1" height="8" fill="#923F8D" class="highcharts-point"></rect><rect x="396" y="49" width="2" height="11" fill="#923F8D" class="highcharts-point"></rect><rect x="405" y="53" width="2" height="7" fill="#923F8D" class="highcharts-point"></rect><rect x="414" y="52" width="2" height="8" fill="#923F8D" class="highcharts-point"></rect></g><g data-z-index="0.1" class="highcharts-markers highcharts-series-1 highcharts-column-series " transform="translate(56,109) scale(1 1)" clip-path="none"></g><g data-z-index="0.1" class="highcharts-series highcharts-series-2 highcharts-column-series " transform="translate(56,109) scale(1 1)" clip-path="url(#highcharts-73becyu-10)"><rect x="363" y="60" width="2" height="4" fill="#bbbbbb" class="highcharts-point highcharts-negative"></rect><rect x="372" y="57" width="2" height="3" fill="#bbbbbb" class="highcharts-point"></rect><rect x="381" y="55" width="1" height="5" fill="#bbbbbb" class="highcharts-point"></rect><rect x="389" y="58" width="2" height="2" fill="#bbbbbb" class="highcharts-point"></rect><rect x="398" y="60" width="2" height="1" fill="#bbbbbb" class="highcharts-point highcharts-negative"></rect><rect x="407" y="57" width="2" height="3" fill="#bbbbbb" class="highcharts-point"></rect><rect x="416" y="53" width="1" height="7" fill="#bbbbbb" class="highcharts-point"></rect></g><g data-z-index="0.1" class="highcharts-markers highcharts-series-2 highcharts-column-series " transform="translate(56,109) scale(1 1)" clip-path="none"></g><g data-z-index="0.1" class="highcharts-series highcharts-series-3 highcharts-line-series " transform="translate(56,109) scale(1 1)" clip-path="url(#highcharts-73becyu-10)"><path fill="none" d="M 4.3645833333333 104.312 L 13.09375 87.4734 L 21.822916666667 89.9514 L 30.552083333333 100.3708 L 39.28125 100.33539999999999 L 48.010416666667 110.094 L 56.739583333333 100.9844 L 65.46875 87.48519999999999 L 74.197916666667 82.0454 L 82.927083333333 77.2428 L 91.65625 77.01859999999999 L 100.38541666667 73.00659999999999 L 109.11458333333 67.43700000000001 L 117.84375 68.6288 L 126.57291666667 63.543 L 135.30208333333 86.789 L 144.03125 74.8592 L 152.76041666667 80.2282 L 161.48958333333 65.4428 L 170.21875 52.391999999999996 L 178.94791666667 39.235 L 187.67708333333 54.7284 L 196.40625 50.385999999999996 L 205.13541666667 64.3926 L 213.86458333333 69.93860000000001 L 222.59375 74.49340000000001 L 231.32291666667 85.3848 L 240.05208333333 84.1576 L 248.78125 82.364 L 257.51041666667 77.408 L 266.23958333333 72.2396 L 274.96875 52.4392 L 283.69791666667 56.6636 L 292.42708333333 55.8848 L 301.15625 65.5726 L 309.88541666667 60.510400000000004 L 318.61458333333 56.5456 L 327.34375 40.6392 L 336.07291666667 44.1438 L 344.80208333333 59.1888 L 353.53125 41.241 L 362.26041666667 45.370999999999995 L 370.98958333333 35.400000000000006 L 379.71875 47.058400000000006 L 388.44791666667 50.3506 L 397.17708333333 47.1764 L 405.90625 49.772400000000005 L 414.63541666667 44.0376" class="highcharts-graph" data-z-index="1" stroke="#000000" stroke-width="2" stroke-linejoin="round" stroke-linecap="round"></path></g><g data-z-index="0.1" class="highcharts-markers highcharts-series-3 highcharts-line-series " transform="translate(56,109) scale(1 1)" clip-path="none"></g><g data-z-index="0.1" class="highcharts-series highcharts-series-4 highcharts-areaspline-series highcharts-navigator-series" transform="translate(70,299) scale(1 1)" clip-path="url(#highcharts-73becyu-11)"><path fill="rgb(250,189,36)" fill-opacity="0.05" d="M 0 11.768274415817856 C 0 11.768274415817856 4.991489361702119 11.273966446974239 8.3191489361702 11.273966446974239 C 11.64680851063812 11.273966446974239 13.31063829787208 12.843019772318755 16.63829787234 12.843019772318755 C 19.9659574468084 12.843019772318755 21.629787234042603 12.681995206710607 24.957446808511 12.681995206710607 C 28.285106382979002 12.681995206710607 29.948936170213006 12.878969442780111 33.276595744681 13.198771719592571 C 36.604255319149004 13.518573996405033 38.268085106383 14.281006590772918 41.595744680851 14.281006590772918 C 44.923404255319 14.281006590772918 46.587234042553 14.176153385260635 49.914893617021 14.176153385260635 C 53.242553191489 14.176153385260635 54.906382978723 14.498202516476933 58.234042553191 14.498202516476933 C 61.56170212765941 14.498202516476933 63.2255319148936 14.410575194727384 66.553191489362 14.370880766926303 C 69.88085106383001 14.331186339125228 71.544680851064 14.29973037747154 74.872340425532 14.29973037747154 C 78.2 14.29973037747154 79.863829787234 14.857699221090474 83.191489361702 14.857699221090474 C 86.51914893617 14.857699221090474 88.182978723404 13.90653085680048 91.510638297872 13.90653085680048 C 94.8382978723404 13.90653085680048 96.5021276595746 15.022468544038347 99.829787234043 15.022468544038347 C 103.1574468085098 15.022468544038347 104.82127659574321 14.337177950868785 108.14893617021 14.337177950868785 C 111.47659574467801 14.337177950868785 113.140425531912 14.337177950868785 116.46808510638 14.355901737567406 C 119.795744680848 14.374625524266026 121.459574468082 14.670461354104255 124.78723404255 14.670461354104255 C 128.11489361701803 14.670461354104255 129.778723404252 14.149940083882566 133.10638297872 14.149940083882566 C 136.43404255318802 14.149940083882566 138.09787234042201 14.343918514080288 141.42553191489 14.438286399041342 C 144.75319148935802 14.532654284002398 146.417021276592 14.522917914919114 149.74468085106 14.621779508687837 C 153.072340425528 14.720641102456561 154.736170212762 14.932594367884962 158.06382978723 14.932594367884962 C 161.391489361698 14.932594367884962 163.055319148932 13.797932893948474 166.3829787234 13.797932893948474 C 169.710638297868 13.797932893948474 171.374468085102 13.917765128819653 174.70212765957 13.917765128819653 C 178.029787234038 13.917765128819653 179.69361702127202 13.438436189334933 183.02127659574 13.412222887956862 C 186.348936170208 13.38600958657879 188.012765957442 13.38600958657879 191.34042553191 13.38600958657879 C 194.668085106382 13.38600958657879 196.331914893618 14.11998202516477 199.65957446809 14.11998202516477 C 202.987234042558 14.11998202516477 204.651063829792 12.974086279209107 207.97872340426 12.974086279209107 C 211.306382978728 12.974086279209107 212.97021276596197 14.003894547633314 216.29787234043 14.003894547633314 C 219.625531914898 14.003894547633314 221.289361702132 13.999400838825647 224.6170212766 13.988915518274418 C 227.944680851068 13.97843019772319 229.608510638302 13.951467944877173 232.93617021277 13.951467944877173 C 236.263829787238 13.951467944877173 237.927659574472 13.951467944877173 241.25531914894 13.96644697423607 C 244.582978723408 13.981426003594969 246.24680851064198 14.027112043139605 249.57446808511 14.112492510485321 C 252.90212765957804 14.197872977831038 254.56595744681198 14.39334931096465 257.89361702128 14.39334931096465 C 261.221276595748 14.39334931096465 262.88510638298203 14.39334931096465 266.21276595745 14.183642899940084 C 269.540425531918 13.973936488915518 271.20425531915197 13.258687837028162 274.53191489362 13.232474535650091 C 277.859574468088 13.20626123427202 279.523404255322 13.20626123427202 282.85106382979 13.20626123427202 C 286.178723404258 13.20626123427202 287.84255319149196 13.232474535650091 291.17021276596 13.232474535650091 C 294.497872340428 13.232474535650091 296.161702127662 12.599610545236668 299.48936170213 12.599610545236668 C 302.817021276598 12.599610545236668 304.48085106383195 13.075194727381668 307.8085106383 13.075194727381668 C 311.136170212768 13.075194727381668 312.800000000002 12.958358298382265 316.12765957447 12.809316956261235 C 319.455319148938 12.660275614140204 321.11914893617194 12.512732174955065 324.44680851064 12.329988016776515 C 327.77446808510797 12.147243858597966 329.438297872342 11.895596165368485 332.76595744681 11.895596165368485 C 336.09361702127796 11.895596165368485 337.75744680851193 12.142750149790295 341.08510638298 12.142750149790295 C 344.41276595744796 12.142750149790295 346.076595744682 11.734571599760336 349.40425531915 11.734571599760336 C 352.731914893618 11.734571599760336 354.39574468085203 11.948022768124627 357.72340425532 11.948022768124627 C 361.051063829788 11.948022768124627 362.714893617022 11.948022768124627 366.04255319149 11.757040143798683 C 369.370212765958 11.56605751947274 371.034042553192 10.715997603355305 374.36170212766 10.715997603355305 C 377.689361702128 10.715997603355305 379.353191489362 11.517375674056321 382.68085106383 11.517375674056321 C 386.008510638298 11.517375674056321 391 11.390053924505693 391 11.390053924505693 L 391 30 C 391 30 386.008510638298 30 382.68085106383 30 C 379.353191489362 30 377.689361702128 30 374.36170212766 30 C 371.034042553192 30 369.370212765958 30 366.04255319149 30 C 362.714893617022 30 361.051063829788 30 357.72340425532 30 C 354.39574468085203 30 352.731914893618 30 349.40425531915 30 C 346.076595744682 30 344.41276595744796 30 341.08510638298 30 C 337.75744680851193 30 336.09361702127796 30 332.76595744681 30 C 329.438297872342 30 327.77446808510797 30 324.44680851064 30 C 321.11914893617194 30 319.455319148938 30 316.12765957447 30 C 312.800000000002 30 311.136170212768 30 307.8085106383 30 C 304.48085106383195 30 302.817021276598 30 299.48936170213 30 C 296.161702127662 30 294.497872340428 30 291.17021276596 30 C 287.84255319149196 30 286.178723404258 30 282.85106382979 30 C 279.523404255322 30 277.859574468088 30 274.53191489362 30 C 271.20425531915197 30 269.540425531918 30 266.21276595745 30 C 262.88510638298203 30 261.221276595748 30 257.89361702128 30 C 254.56595744681198 30 252.90212765957804 30 249.57446808511 30 C 246.24680851064198 30 244.582978723408 30 241.25531914894 30 C 237.927659574472 30 236.263829787238 30 232.93617021277 30 C 229.608510638302 30 227.944680851068 30 224.6170212766 30 C 221.289361702132 30 219.625531914898 30 216.29787234043 30 C 212.97021276596197 30 211.306382978728 30 207.97872340426 30 C 204.651063829792 30 202.987234042558 30 199.65957446809 30 C 196.331914893618 30 194.668085106382 30 191.34042553191 30 C 188.012765957442 30 186.348936170208 30 183.02127659574 30 C 179.69361702127202 30 178.029787234038 30 174.70212765957 30 C 171.374468085102 30 169.710638297868 30 166.3829787234 30 C 163.055319148932 30 161.391489361698 30 158.06382978723 30 C 154.736170212762 30 153.072340425528 30 149.74468085106 30 C 146.417021276592 30 144.75319148935802 30 141.42553191489 30 C 138.09787234042201 30 136.43404255318802 30 133.10638297872 30 C 129.778723404252 30 128.11489361701803 30 124.78723404255 30 C 121.459574468082 30 119.795744680848 30 116.46808510638 30 C 113.140425531912 30 111.47659574467801 30 108.14893617021 30 C 104.82127659574321 30 103.1574468085098 30 99.829787234043 30 C 96.5021276595746 30 94.8382978723404 30 91.510638297872 30 C 88.182978723404 30 86.51914893617 30 83.191489361702 30 C 79.863829787234 30 78.2 30 74.872340425532 30 C 71.544680851064 30 69.88085106383001 30 66.553191489362 30 C 63.2255319148936 30 61.56170212765941 30 58.234042553191 30 C 54.906382978723 30 53.242553191489 30 49.914893617021 30 C 46.587234042553 30 44.923404255319 30 41.595744680851 30 C 38.268085106383 30 36.604255319149004 30 33.276595744681 30 C 29.948936170213006 30 28.285106382979002 30 24.957446808511 30 C 21.629787234042603 30 19.9659574468084 30 16.63829787234 30 C 13.31063829787208 30 11.64680851063812 30 8.3191489361702 30 C 4.991489361702119 30 0 30 0 30" class="highcharts-area" data-z-index="0"></path><path fill="none" d="M 0 11.768274415817856 C 0 11.768274415817856 4.991489361702119 11.273966446974239 8.3191489361702 11.273966446974239 C 11.64680851063812 11.273966446974239 13.31063829787208 12.843019772318755 16.63829787234 12.843019772318755 C 19.9659574468084 12.843019772318755 21.629787234042603 12.681995206710607 24.957446808511 12.681995206710607 C 28.285106382979002 12.681995206710607 29.948936170213006 12.878969442780111 33.276595744681 13.198771719592571 C 36.604255319149004 13.518573996405033 38.268085106383 14.281006590772918 41.595744680851 14.281006590772918 C 44.923404255319 14.281006590772918 46.587234042553 14.176153385260635 49.914893617021 14.176153385260635 C 53.242553191489 14.176153385260635 54.906382978723 14.498202516476933 58.234042553191 14.498202516476933 C 61.56170212765941 14.498202516476933 63.2255319148936 14.410575194727384 66.553191489362 14.370880766926303 C 69.88085106383001 14.331186339125228 71.544680851064 14.29973037747154 74.872340425532 14.29973037747154 C 78.2 14.29973037747154 79.863829787234 14.857699221090474 83.191489361702 14.857699221090474 C 86.51914893617 14.857699221090474 88.182978723404 13.90653085680048 91.510638297872 13.90653085680048 C 94.8382978723404 13.90653085680048 96.5021276595746 15.022468544038347 99.829787234043 15.022468544038347 C 103.1574468085098 15.022468544038347 104.82127659574321 14.337177950868785 108.14893617021 14.337177950868785 C 111.47659574467801 14.337177950868785 113.140425531912 14.337177950868785 116.46808510638 14.355901737567406 C 119.795744680848 14.374625524266026 121.459574468082 14.670461354104255 124.78723404255 14.670461354104255 C 128.11489361701803 14.670461354104255 129.778723404252 14.149940083882566 133.10638297872 14.149940083882566 C 136.43404255318802 14.149940083882566 138.09787234042201 14.343918514080288 141.42553191489 14.438286399041342 C 144.75319148935802 14.532654284002398 146.417021276592 14.522917914919114 149.74468085106 14.621779508687837 C 153.072340425528 14.720641102456561 154.736170212762 14.932594367884962 158.06382978723 14.932594367884962 C 161.391489361698 14.932594367884962 163.055319148932 13.797932893948474 166.3829787234 13.797932893948474 C 169.710638297868 13.797932893948474 171.374468085102 13.917765128819653 174.70212765957 13.917765128819653 C 178.029787234038 13.917765128819653 179.69361702127202 13.438436189334933 183.02127659574 13.412222887956862 C 186.348936170208 13.38600958657879 188.012765957442 13.38600958657879 191.34042553191 13.38600958657879 C 194.668085106382 13.38600958657879 196.331914893618 14.11998202516477 199.65957446809 14.11998202516477 C 202.987234042558 14.11998202516477 204.651063829792 12.974086279209107 207.97872340426 12.974086279209107 C 211.306382978728 12.974086279209107 212.97021276596197 14.003894547633314 216.29787234043 14.003894547633314 C 219.625531914898 14.003894547633314 221.289361702132 13.999400838825647 224.6170212766 13.988915518274418 C 227.944680851068 13.97843019772319 229.608510638302 13.951467944877173 232.93617021277 13.951467944877173 C 236.263829787238 13.951467944877173 237.927659574472 13.951467944877173 241.25531914894 13.96644697423607 C 244.582978723408 13.981426003594969 246.24680851064198 14.027112043139605 249.57446808511 14.112492510485321 C 252.90212765957804 14.197872977831038 254.56595744681198 14.39334931096465 257.89361702128 14.39334931096465 C 261.221276595748 14.39334931096465 262.88510638298203 14.39334931096465 266.21276595745 14.183642899940084 C 269.540425531918 13.973936488915518 271.20425531915197 13.258687837028162 274.53191489362 13.232474535650091 C 277.859574468088 13.20626123427202 279.523404255322 13.20626123427202 282.85106382979 13.20626123427202 C 286.178723404258 13.20626123427202 287.84255319149196 13.232474535650091 291.17021276596 13.232474535650091 C 294.497872340428 13.232474535650091 296.161702127662 12.599610545236668 299.48936170213 12.599610545236668 C 302.817021276598 12.599610545236668 304.48085106383195 13.075194727381668 307.8085106383 13.075194727381668 C 311.136170212768 13.075194727381668 312.800000000002 12.958358298382265 316.12765957447 12.809316956261235 C 319.455319148938 12.660275614140204 321.11914893617194 12.512732174955065 324.44680851064 12.329988016776515 C 327.77446808510797 12.147243858597966 329.438297872342 11.895596165368485 332.76595744681 11.895596165368485 C 336.09361702127796 11.895596165368485 337.75744680851193 12.142750149790295 341.08510638298 12.142750149790295 C 344.41276595744796 12.142750149790295 346.076595744682 11.734571599760336 349.40425531915 11.734571599760336 C 352.731914893618 11.734571599760336 354.39574468085203 11.948022768124627 357.72340425532 11.948022768124627 C 361.051063829788 11.948022768124627 362.714893617022 11.948022768124627 366.04255319149 11.757040143798683 C 369.370212765958 11.56605751947274 371.034042553192 10.715997603355305 374.36170212766 10.715997603355305 C 377.689361702128 10.715997603355305 379.353191489362 11.517375674056321 382.68085106383 11.517375674056321 C 386.008510638298 11.517375674056321 391 11.390053924505693 391 11.390053924505693" class="highcharts-graph" data-z-index="1" stroke="#FABD24" stroke-width="1" stroke-linejoin="round" stroke-linecap="round"></path></g><g data-z-index="0.1" class="highcharts-markers highcharts-series-4 highcharts-areaspline-series highcharts-navigator-series" transform="translate(70,299) scale(1 1)" clip-path="none"></g><g data-z-index="0.1" class="highcharts-series highcharts-series-5 highcharts-areaspline-series highcharts-navigator-series" transform="translate(70,299) scale(1 1)" clip-path="url(#highcharts-73becyu-11)"><path fill="rgb(146,63,141)" fill-opacity="0.05" d="M 0 25.181995206710603 C 0 25.181995206710603 4.991489361702119 21.115188735769923 8.3191489361702 20.332534451767525 C 11.64680851063812 19.549880167765128 13.31063829787208 19.549880167765128 16.63829787234 19.549880167765128 C 19.9659574468084 19.549880167765128 21.629787234042603 23.01752546434991 24.957446808511 23.01752546434991 C 28.285106382979002 23.01752546434991 29.948936170213006 22.48951467944877 33.276595744681 22.48951467944877 C 36.604255319149004 22.48951467944877 38.268085106383 24.50419412822049 41.595744680851 24.50419412822049 C 44.923404255319 24.50419412822049 46.587234042553 23.19652486518874 49.914893617021 21.71809466746555 C 53.242553191489 20.239664469742365 54.906382978723 18.353055721989136 58.234042553191 17.112043139604552 C 61.56170212765941 15.871030557219814 63.2255319148936 16.123427201917355 66.553191489362 15.513031755542242 C 69.88085106383001 14.902636309167203 71.544680851064 14.476482923906532 74.872340425532 14.06006590772918 C 78.2 13.64364889155183 79.863829787234 13.621180347513484 83.191489361702 13.430946674655484 C 86.51914893617 13.240713001797484 88.182978723404 13.430946674655484 91.510638297872 13.108897543439188 C 94.8382978723404 12.786848412222891 96.5021276595746 10.225434391851408 99.829787234043 10.225434391851408 C 103.1574468085098 10.225434391851408 104.82127659574321 11.288945476333133 108.14893617021 11.288945476333133 C 111.47659574467801 11.288945476333133 113.140425531912 9.656231276213301 116.46808510638 9.656231276213301 C 119.795744680848 9.656231276213301 121.459574468082 16.71884361893349 124.78723404255 16.71884361893349 C 128.11489361701803 16.71884361893349 129.778723404252 13.45341521869383 133.10638297872 13.45341521869383 C 136.43404255318802 13.45341521869383 138.09787234042201 14.868933493109648 141.42553191489 14.868933493109648 C 144.75319148935802 14.868933493109648 146.417021276592 11.85889754343918 149.74468085106 9.993259436788499 C 153.072340425528 8.127621330137803 154.736170212762 7.039394847213896 158.06382978723 5.540742959856203 C 161.391489361698 4.042091072498498 163.055319148932 2.5000000000000036 166.3829787234 2.5000000000000036 C 169.710638297868 2.5000000000000036 171.374468085102 7.297034152186939 174.70212765957 7.297034152186939 C 178.029787234038 7.297034152186939 179.69361702127202 6.424505692031158 183.02127659574 6.424505692031158 C 186.348936170208 6.424505692031158 188.012765957442 9.869682444577595 191.34042553191 10.895745955662075 C 194.668085106382 11.921809466746556 196.331914893618 11.198322348711368 199.65957446809 11.921809466746556 C 202.987234042558 12.645296584780873 204.651063829792 13.5095865787897 207.97872340426 14.513181545835831 C 211.306382978728 15.51677651288197 212.97021276596197 16.939784301977234 216.29787234043 16.939784301977234 C 219.625531914898 16.939784301977234 221.289361702132 16.746554823247457 224.6170212766 16.565308568004795 C 227.944680851068 16.384062312762136 229.608510638302 16.457459556620734 232.93617021277 16.03355302576393 C 236.263829787238 15.60964649490713 237.927659574472 15.120581186339127 241.25531914894 14.44577591372079 C 244.582978723408 13.77097064110246 246.24680851064198 14.329688436189329 249.57446808511 12.65952666267226 C 252.90212765957804 10.989364889155176 254.56595744681198 6.094967046135412 257.89361702128 6.094967046135412 C 261.221276595748 6.094967046135412 262.88510638298203 7.19442780107849 266.21276595745 7.645296584781306 C 269.540425531918 8.096165368484122 271.20425531915197 7.645296584781306 274.53191489362 8.349310964649494 C 277.859574468088 9.053325344517681 279.523404255322 11.449970041941285 282.85106382979 11.449970041941285 C 286.178723404258 11.449970041941285 287.84255319149196 10.268873576992219 291.17021276596 9.817255841821453 C 294.497872340428 9.365638106650696 296.161702127662 9.817255841821453 299.48936170213 9.191881366087479 C 302.817021276598 8.566506890353505 304.48085106383195 3.6683642899940097 307.8085106383 3.6683642899940097 C 311.136170212768 3.6683642899940097 312.800000000002 3.720041941282208 316.12765957447 5.046434991012585 C 319.455319148938 6.372828040742963 321.11914893617194 10.300329538645897 324.44680851064 10.300329538645897 C 327.77446808510797 10.300329538645897 329.438297872342 5.301078490113845 332.76595744681 5.0389454763331365 C 336.09361702127796 4.776812462552428 337.75744680851193 4.949820251647696 341.08510638298 4.776812462552428 C 344.41276595744796 4.603804673457162 346.076595744682 4.173906530856801 349.40425531915 4.173906530856801 C 352.731914893618 4.173906530856801 354.39574468085203 8.0122828040743 357.72340425532 8.315608148591974 C 361.051063829788 8.618933493109648 362.714893617022 8.618933493109648 366.04255319149 8.618933493109648 C 369.370212765958 8.618933493109648 371.034042553192 7.907429598562015 374.36170212766 7.907429598562015 C 377.689361702128 7.907429598562015 379.353191489362 9.120730976632714 382.68085106383 9.120730976632714 C 386.008510638298 9.120730976632714 391 8.708807669263035 391 8.708807669263035 L 391 30 C 391 30 386.008510638298 30 382.68085106383 30 C 379.353191489362 30 377.689361702128 30 374.36170212766 30 C 371.034042553192 30 369.370212765958 30 366.04255319149 30 C 362.714893617022 30 361.051063829788 30 357.72340425532 30 C 354.39574468085203 30 352.731914893618 30 349.40425531915 30 C 346.076595744682 30 344.41276595744796 30 341.08510638298 30 C 337.75744680851193 30 336.09361702127796 30 332.76595744681 30 C 329.438297872342 30 327.77446808510797 30 324.44680851064 30 C 321.11914893617194 30 319.455319148938 30 316.12765957447 30 C 312.800000000002 30 311.136170212768 30 307.8085106383 30 C 304.48085106383195 30 302.817021276598 30 299.48936170213 30 C 296.161702127662 30 294.497872340428 30 291.17021276596 30 C 287.84255319149196 30 286.178723404258 30 282.85106382979 30 C 279.523404255322 30 277.859574468088 30 274.53191489362 30 C 271.20425531915197 30 269.540425531918 30 266.21276595745 30 C 262.88510638298203 30 261.221276595748 30 257.89361702128 30 C 254.56595744681198 30 252.90212765957804 30 249.57446808511 30 C 246.24680851064198 30 244.582978723408 30 241.25531914894 30 C 237.927659574472 30 236.263829787238 30 232.93617021277 30 C 229.608510638302 30 227.944680851068 30 224.6170212766 30 C 221.289361702132 30 219.625531914898 30 216.29787234043 30 C 212.97021276596197 30 211.306382978728 30 207.97872340426 30 C 204.651063829792 30 202.987234042558 30 199.65957446809 30 C 196.331914893618 30 194.668085106382 30 191.34042553191 30 C 188.012765957442 30 186.348936170208 30 183.02127659574 30 C 179.69361702127202 30 178.029787234038 30 174.70212765957 30 C 171.374468085102 30 169.710638297868 30 166.3829787234 30 C 163.055319148932 30 161.391489361698 30 158.06382978723 30 C 154.736170212762 30 153.072340425528 30 149.74468085106 30 C 146.417021276592 30 144.75319148935802 30 141.42553191489 30 C 138.09787234042201 30 136.43404255318802 30 133.10638297872 30 C 129.778723404252 30 128.11489361701803 30 124.78723404255 30 C 121.459574468082 30 119.795744680848 30 116.46808510638 30 C 113.140425531912 30 111.47659574467801 30 108.14893617021 30 C 104.82127659574321 30 103.1574468085098 30 99.829787234043 30 C 96.5021276595746 30 94.8382978723404 30 91.510638297872 30 C 88.182978723404 30 86.51914893617 30 83.191489361702 30 C 79.863829787234 30 78.2 30 74.872340425532 30 C 71.544680851064 30 69.88085106383001 30 66.553191489362 30 C 63.2255319148936 30 61.56170212765941 30 58.234042553191 30 C 54.906382978723 30 53.242553191489 30 49.914893617021 30 C 46.587234042553 30 44.923404255319 30 41.595744680851 30 C 38.268085106383 30 36.604255319149004 30 33.276595744681 30 C 29.948936170213006 30 28.285106382979002 30 24.957446808511 30 C 21.629787234042603 30 19.9659574468084 30 16.63829787234 30 C 13.31063829787208 30 11.64680851063812 30 8.3191489361702 30 C 4.991489361702119 30 0 30 0 30" class="highcharts-area" data-z-index="0"></path><path fill="none" d="M 0 25.181995206710603 C 0 25.181995206710603 4.991489361702119 21.115188735769923 8.3191489361702 20.332534451767525 C 11.64680851063812 19.549880167765128 13.31063829787208 19.549880167765128 16.63829787234 19.549880167765128 C 19.9659574468084 19.549880167765128 21.629787234042603 23.01752546434991 24.957446808511 23.01752546434991 C 28.285106382979002 23.01752546434991 29.948936170213006 22.48951467944877 33.276595744681 22.48951467944877 C 36.604255319149004 22.48951467944877 38.268085106383 24.50419412822049 41.595744680851 24.50419412822049 C 44.923404255319 24.50419412822049 46.587234042553 23.19652486518874 49.914893617021 21.71809466746555 C 53.242553191489 20.239664469742365 54.906382978723 18.353055721989136 58.234042553191 17.112043139604552 C 61.56170212765941 15.871030557219814 63.2255319148936 16.123427201917355 66.553191489362 15.513031755542242 C 69.88085106383001 14.902636309167203 71.544680851064 14.476482923906532 74.872340425532 14.06006590772918 C 78.2 13.64364889155183 79.863829787234 13.621180347513484 83.191489361702 13.430946674655484 C 86.51914893617 13.240713001797484 88.182978723404 13.430946674655484 91.510638297872 13.108897543439188 C 94.8382978723404 12.786848412222891 96.5021276595746 10.225434391851408 99.829787234043 10.225434391851408 C 103.1574468085098 10.225434391851408 104.82127659574321 11.288945476333133 108.14893617021 11.288945476333133 C 111.47659574467801 11.288945476333133 113.140425531912 9.656231276213301 116.46808510638 9.656231276213301 C 119.795744680848 9.656231276213301 121.459574468082 16.71884361893349 124.78723404255 16.71884361893349 C 128.11489361701803 16.71884361893349 129.778723404252 13.45341521869383 133.10638297872 13.45341521869383 C 136.43404255318802 13.45341521869383 138.09787234042201 14.868933493109648 141.42553191489 14.868933493109648 C 144.75319148935802 14.868933493109648 146.417021276592 11.85889754343918 149.74468085106 9.993259436788499 C 153.072340425528 8.127621330137803 154.736170212762 7.039394847213896 158.06382978723 5.540742959856203 C 161.391489361698 4.042091072498498 163.055319148932 2.5000000000000036 166.3829787234 2.5000000000000036 C 169.710638297868 2.5000000000000036 171.374468085102 7.297034152186939 174.70212765957 7.297034152186939 C 178.029787234038 7.297034152186939 179.69361702127202 6.424505692031158 183.02127659574 6.424505692031158 C 186.348936170208 6.424505692031158 188.012765957442 9.869682444577595 191.34042553191 10.895745955662075 C 194.668085106382 11.921809466746556 196.331914893618 11.198322348711368 199.65957446809 11.921809466746556 C 202.987234042558 12.645296584780873 204.651063829792 13.5095865787897 207.97872340426 14.513181545835831 C 211.306382978728 15.51677651288197 212.97021276596197 16.939784301977234 216.29787234043 16.939784301977234 C 219.625531914898 16.939784301977234 221.289361702132 16.746554823247457 224.6170212766 16.565308568004795 C 227.944680851068 16.384062312762136 229.608510638302 16.457459556620734 232.93617021277 16.03355302576393 C 236.263829787238 15.60964649490713 237.927659574472 15.120581186339127 241.25531914894 14.44577591372079 C 244.582978723408 13.77097064110246 246.24680851064198 14.329688436189329 249.57446808511 12.65952666267226 C 252.90212765957804 10.989364889155176 254.56595744681198 6.094967046135412 257.89361702128 6.094967046135412 C 261.221276595748 6.094967046135412 262.88510638298203 7.19442780107849 266.21276595745 7.645296584781306 C 269.540425531918 8.096165368484122 271.20425531915197 7.645296584781306 274.53191489362 8.349310964649494 C 277.859574468088 9.053325344517681 279.523404255322 11.449970041941285 282.85106382979 11.449970041941285 C 286.178723404258 11.449970041941285 287.84255319149196 10.268873576992219 291.17021276596 9.817255841821453 C 294.497872340428 9.365638106650696 296.161702127662 9.817255841821453 299.48936170213 9.191881366087479 C 302.817021276598 8.566506890353505 304.48085106383195 3.6683642899940097 307.8085106383 3.6683642899940097 C 311.136170212768 3.6683642899940097 312.800000000002 3.720041941282208 316.12765957447 5.046434991012585 C 319.455319148938 6.372828040742963 321.11914893617194 10.300329538645897 324.44680851064 10.300329538645897 C 327.77446808510797 10.300329538645897 329.438297872342 5.301078490113845 332.76595744681 5.0389454763331365 C 336.09361702127796 4.776812462552428 337.75744680851193 4.949820251647696 341.08510638298 4.776812462552428 C 344.41276595744796 4.603804673457162 346.076595744682 4.173906530856801 349.40425531915 4.173906530856801 C 352.731914893618 4.173906530856801 354.39574468085203 8.0122828040743 357.72340425532 8.315608148591974 C 361.051063829788 8.618933493109648 362.714893617022 8.618933493109648 366.04255319149 8.618933493109648 C 369.370212765958 8.618933493109648 371.034042553192 7.907429598562015 374.36170212766 7.907429598562015 C 377.689361702128 7.907429598562015 379.353191489362 9.120730976632714 382.68085106383 9.120730976632714 C 386.008510638298 9.120730976632714 391 8.708807669263035 391 8.708807669263035" class="highcharts-graph" data-z-index="1" stroke="#923F8D" stroke-width="1" stroke-linejoin="round" stroke-linecap="round"></path></g><g data-z-index="0.1" class="highcharts-markers highcharts-series-5 highcharts-areaspline-series highcharts-navigator-series" transform="translate(70,299) scale(1 1)" clip-path="none"></g><g data-z-index="0.1" class="highcharts-series highcharts-series-6 highcharts-areaspline-series highcharts-navigator-series" transform="translate(70,299) scale(1 1)" clip-path="url(#highcharts-73becyu-11)"><path fill="rgb(187,187,187)" fill-opacity="0.05" d="M 341.08510638298 30 C 341.08510638298 30 341.08510638298 12.610844817255842 341.08510638298 12.610844817255842 C 341.08510638298 12.610844817255842 346.076595744682 11.019322947872983 349.40425531915 10.457609346914321 C 352.731914893618 9.895895745955668 354.39574468085203 9.802276812462555 357.72340425532 9.802276812462555 C 361.051063829788 9.802276812462555 362.714893617022 10.399191132414623 366.04255319149 10.734721390053927 C 369.370212765958 11.070251647693231 371.034042553192 11.479928100659077 374.36170212766 11.479928100659077 C 377.689361702128 11.479928100659077 379.353191489362 10.783403235470344 382.68085106383 10.289095266626724 C 386.008510638298 9.794787297783106 391 9.008388256440984 391 9.008388256440984 L 391 30 C 391 30 386.008510638298 30 382.68085106383 30 C 379.353191489362 30 377.689361702128 30 374.36170212766 30 C 371.034042553192 30 369.370212765958 30 366.04255319149 30 C 362.714893617022 30 361.051063829788 30 357.72340425532 30 C 354.39574468085203 30 352.731914893618 30 349.40425531915 30 C 346.076595744682 30 341.08510638298 30 341.08510638298 30 C 341.08510638298 30 341.08510638298 30 341.08510638298 30" class="highcharts-area" data-z-index="0"></path><path fill="none" d="M 341.08510638298 12.610844817255842 C 341.08510638298 12.610844817255842 346.076595744682 11.019322947872983 349.40425531915 10.457609346914321 C 352.731914893618 9.895895745955668 354.39574468085203 9.802276812462555 357.72340425532 9.802276812462555 C 361.051063829788 9.802276812462555 362.714893617022 10.399191132414623 366.04255319149 10.734721390053927 C 369.370212765958 11.070251647693231 371.034042553192 11.479928100659077 374.36170212766 11.479928100659077 C 377.689361702128 11.479928100659077 379.353191489362 10.783403235470344 382.68085106383 10.289095266626724 C 386.008510638298 9.794787297783106 391 9.008388256440984 391 9.008388256440984" class="highcharts-graph" data-z-index="1" stroke="#bbbbbb" stroke-width="1" stroke-linejoin="round" stroke-linecap="round"></path></g><g data-z-index="0.1" class="highcharts-markers highcharts-series-6 highcharts-areaspline-series highcharts-navigator-series" transform="translate(70,299) scale(1 1)" clip-path="none"></g><g data-z-index="0.1" class="highcharts-series highcharts-series-7 highcharts-areaspline-series highcharts-navigator-series" transform="translate(70,299) scale(1 1)" clip-path="url(#highcharts-73becyu-11)"><path fill="rgb(0,0,0)" fill-opacity="0.05" d="M 0 25.66506890353505 C 0 25.66506890353505 4.991489361702119 20.321300179748352 8.3191489361702 20.321300179748352 C 11.64680851063812 20.321300179748352 13.31063829787208 20.321300179748352 16.63829787234 21.10769922109047 C 19.9659574468084 21.89409826243259 21.629787234042603 24.414319952067103 24.957446808511 24.414319952067103 C 28.285106382979002 24.414319952067103 29.948936170213006 24.403085680047933 33.276595744681 24.403085680047933 C 36.604255319149004 24.403085680047933 38.268085106383 27.5 41.595744680851 27.5 C 44.923404255319 27.5 46.587234042553 26.04403834631516 49.914893617021 24.609047333732775 C 53.242553191489 23.174056321150392 54.906382978723 21.52711204313953 58.234042553191 20.325044937088077 C 61.56170212765941 19.122977831036476 63.2255319148936 19.248801677651326 66.553191489362 18.598711803475133 C 69.88085106383001 17.94862192929902 71.544680851064 17.145745955662075 74.872340425532 17.07459556620731 C 78.2 17.003445176752546 79.863829787234 17.07459556620731 83.191489361702 17.003445176752546 C 86.51914893617 16.93229478729778 88.182978723404 16.338376273217456 91.510638297872 15.730227681246255 C 94.8382978723404 15.12207908927498 96.5021276595746 13.962702216896346 99.829787234043 13.962702216896346 C 103.1574468085098 13.962702216896346 104.82127659574321 14.34092270820851 108.14893617021 14.34092270820851 C 111.47659574467801 14.34092270820851 113.140425531912 12.7269322947873 116.46808510638 12.7269322947873 C 119.795744680848 12.7269322947873 121.459574468082 20.104104254044337 124.78723404255 20.104104254044337 C 128.11489361701803 20.104104254044337 129.778723404252 16.318154583582984 133.10638297872 16.318154583582984 C 136.43404255318802 16.318154583582984 138.09787234042201 18.02201917315758 141.42553191489 18.02201917315758 C 144.75319148935802 18.02201917315758 146.417021276592 15.096614739364881 149.74468085106 13.329838226482924 C 153.072340425528 11.56306171360095 154.736170212762 10.851557819053319 158.06382978723 9.188136608747755 C 161.391489361698 7.524715398442176 163.055319148932 5.012732174955065 166.3829787234 5.012732174955065 C 169.710638297868 5.012732174955065 171.374468085102 9.929598562013183 174.70212765957 9.929598562013183 C 178.029787234038 9.929598562013183 179.69361702127202 8.551527860994607 183.02127659574 8.551527860994607 C 186.348936170208 8.551527860994607 188.012765957442 11.755542240863539 191.34042553191 12.996554823247454 C 194.668085106382 14.237567405632863 196.331914893618 14.115488316356714 199.65957446809 14.756590772917916 C 202.987234042558 15.397693229478346 204.651063829792 15.22168963451169 207.97872340426 16.20206710605153 C 211.306382978728 17.182444577591376 212.97021276596197 19.658478130617134 216.29787234043 19.658478130617134 C 219.625531914898 19.658478130617134 221.289361702132 19.46075494307969 224.6170212766 19.2690233672858 C 227.944680851068 19.077291791491913 229.608510638302 19.128220491312167 232.93617021277 18.699820251647694 C 236.263829787238 18.271420011983224 237.927659574472 17.769622528460157 241.25531914894 17.12702216896345 C 244.582978723408 16.48442180946675 246.24680851064198 17.071599760335523 249.57446808511 15.48681845416417 C 252.90212765957804 13.902037147992804 254.56595744681198 9.203115638106652 257.89361702128 9.203115638106652 C 261.221276595748 9.203115638106652 262.88510638298203 10.543738765727984 266.21276595745 10.543738765727984 C 269.540425531918 10.543738765727984 271.20425531915197 10.296584781306173 274.53191489362 10.296584781306173 C 277.859574468088 10.296584781306173 279.523404255322 13.371030557219893 282.85106382979 13.371030557219893 C 286.178723404258 13.371030557219893 287.84255319149196 12.337477531455967 291.17021276596 11.764529658478132 C 294.497872340428 11.191581785500306 296.161702127662 11.764529658478132 299.48936170213 10.506291192330739 C 302.817021276598 9.248052726183346 304.48085106383195 5.458358298382265 307.8085106383 5.458358298382265 C 311.136170212768 5.458358298382265 312.800000000002 5.458358298382265 316.12765957447 6.570551228280408 C 319.455319148938 7.682744158178551 321.11914893617194 11.345116836429 324.44680851064 11.345116836429 C 327.77446808510797 11.345116836429 329.438297872342 5.649340922708209 332.76595744681 5.649340922708209 C 336.09361702127796 5.649340922708209 337.75744680851193 6.9600059916117445 341.08510638298 6.9600059916117445 C 344.41276595744796 6.9600059916117445 346.076595744682 3.7956860395446412 349.40425531915 3.7956860395446412 C 352.731914893618 3.7956860395446412 354.39574468085203 6.546584781306171 357.72340425532 7.495506291192331 C 361.051063829788 8.44442780107849 362.714893617022 8.540293588975437 366.04255319149 8.540293588975437 C 369.370212765958 8.540293588975437 371.034042553192 7.532953864589576 374.36170212766 7.532953864589576 C 377.689361702128 7.532953864589576 379.353191489362 8.356800479328943 382.68085106383 8.356800479328943 C 386.008510638298 8.356800479328943 391 6.536848412222891 391 6.536848412222891 L 391 30 C 391 30 386.008510638298 30 382.68085106383 30 C 379.353191489362 30 377.689361702128 30 374.36170212766 30 C 371.034042553192 30 369.370212765958 30 366.04255319149 30 C 362.714893617022 30 361.051063829788 30 357.72340425532 30 C 354.39574468085203 30 352.731914893618 30 349.40425531915 30 C 346.076595744682 30 344.41276595744796 30 341.08510638298 30 C 337.75744680851193 30 336.09361702127796 30 332.76595744681 30 C 329.438297872342 30 327.77446808510797 30 324.44680851064 30 C 321.11914893617194 30 319.455319148938 30 316.12765957447 30 C 312.800000000002 30 311.136170212768 30 307.8085106383 30 C 304.48085106383195 30 302.817021276598 30 299.48936170213 30 C 296.161702127662 30 294.497872340428 30 291.17021276596 30 C 287.84255319149196 30 286.178723404258 30 282.85106382979 30 C 279.523404255322 30 277.859574468088 30 274.53191489362 30 C 271.20425531915197 30 269.540425531918 30 266.21276595745 30 C 262.88510638298203 30 261.221276595748 30 257.89361702128 30 C 254.56595744681198 30 252.90212765957804 30 249.57446808511 30 C 246.24680851064198 30 244.582978723408 30 241.25531914894 30 C 237.927659574472 30 236.263829787238 30 232.93617021277 30 C 229.608510638302 30 227.944680851068 30 224.6170212766 30 C 221.289361702132 30 219.625531914898 30 216.29787234043 30 C 212.97021276596197 30 211.306382978728 30 207.97872340426 30 C 204.651063829792 30 202.987234042558 30 199.65957446809 30 C 196.331914893618 30 194.668085106382 30 191.34042553191 30 C 188.012765957442 30 186.348936170208 30 183.02127659574 30 C 179.69361702127202 30 178.029787234038 30 174.70212765957 30 C 171.374468085102 30 169.710638297868 30 166.3829787234 30 C 163.055319148932 30 161.391489361698 30 158.06382978723 30 C 154.736170212762 30 153.072340425528 30 149.74468085106 30 C 146.417021276592 30 144.75319148935802 30 141.42553191489 30 C 138.09787234042201 30 136.43404255318802 30 133.10638297872 30 C 129.778723404252 30 128.11489361701803 30 124.78723404255 30 C 121.459574468082 30 119.795744680848 30 116.46808510638 30 C 113.140425531912 30 111.47659574467801 30 108.14893617021 30 C 104.82127659574321 30 103.1574468085098 30 99.829787234043 30 C 96.5021276595746 30 94.8382978723404 30 91.510638297872 30 C 88.182978723404 30 86.51914893617 30 83.191489361702 30 C 79.863829787234 30 78.2 30 74.872340425532 30 C 71.544680851064 30 69.88085106383001 30 66.553191489362 30 C 63.2255319148936 30 61.56170212765941 30 58.234042553191 30 C 54.906382978723 30 53.242553191489 30 49.914893617021 30 C 46.587234042553 30 44.923404255319 30 41.595744680851 30 C 38.268085106383 30 36.604255319149004 30 33.276595744681 30 C 29.948936170213006 30 28.285106382979002 30 24.957446808511 30 C 21.629787234042603 30 19.9659574468084 30 16.63829787234 30 C 13.31063829787208 30 11.64680851063812 30 8.3191489361702 30 C 4.991489361702119 30 0 30 0 30" class="highcharts-area" data-z-index="0"></path><path fill="none" d="M 0 25.66506890353505 C 0 25.66506890353505 4.991489361702119 20.321300179748352 8.3191489361702 20.321300179748352 C 11.64680851063812 20.321300179748352 13.31063829787208 20.321300179748352 16.63829787234 21.10769922109047 C 19.9659574468084 21.89409826243259 21.629787234042603 24.414319952067103 24.957446808511 24.414319952067103 C 28.285106382979002 24.414319952067103 29.948936170213006 24.403085680047933 33.276595744681 24.403085680047933 C 36.604255319149004 24.403085680047933 38.268085106383 27.5 41.595744680851 27.5 C 44.923404255319 27.5 46.587234042553 26.04403834631516 49.914893617021 24.609047333732775 C 53.242553191489 23.174056321150392 54.906382978723 21.52711204313953 58.234042553191 20.325044937088077 C 61.56170212765941 19.122977831036476 63.2255319148936 19.248801677651326 66.553191489362 18.598711803475133 C 69.88085106383001 17.94862192929902 71.544680851064 17.145745955662075 74.872340425532 17.07459556620731 C 78.2 17.003445176752546 79.863829787234 17.07459556620731 83.191489361702 17.003445176752546 C 86.51914893617 16.93229478729778 88.182978723404 16.338376273217456 91.510638297872 15.730227681246255 C 94.8382978723404 15.12207908927498 96.5021276595746 13.962702216896346 99.829787234043 13.962702216896346 C 103.1574468085098 13.962702216896346 104.82127659574321 14.34092270820851 108.14893617021 14.34092270820851 C 111.47659574467801 14.34092270820851 113.140425531912 12.7269322947873 116.46808510638 12.7269322947873 C 119.795744680848 12.7269322947873 121.459574468082 20.104104254044337 124.78723404255 20.104104254044337 C 128.11489361701803 20.104104254044337 129.778723404252 16.318154583582984 133.10638297872 16.318154583582984 C 136.43404255318802 16.318154583582984 138.09787234042201 18.02201917315758 141.42553191489 18.02201917315758 C 144.75319148935802 18.02201917315758 146.417021276592 15.096614739364881 149.74468085106 13.329838226482924 C 153.072340425528 11.56306171360095 154.736170212762 10.851557819053319 158.06382978723 9.188136608747755 C 161.391489361698 7.524715398442176 163.055319148932 5.012732174955065 166.3829787234 5.012732174955065 C 169.710638297868 5.012732174955065 171.374468085102 9.929598562013183 174.70212765957 9.929598562013183 C 178.029787234038 9.929598562013183 179.69361702127202 8.551527860994607 183.02127659574 8.551527860994607 C 186.348936170208 8.551527860994607 188.012765957442 11.755542240863539 191.34042553191 12.996554823247454 C 194.668085106382 14.237567405632863 196.331914893618 14.115488316356714 199.65957446809 14.756590772917916 C 202.987234042558 15.397693229478346 204.651063829792 15.22168963451169 207.97872340426 16.20206710605153 C 211.306382978728 17.182444577591376 212.97021276596197 19.658478130617134 216.29787234043 19.658478130617134 C 219.625531914898 19.658478130617134 221.289361702132 19.46075494307969 224.6170212766 19.2690233672858 C 227.944680851068 19.077291791491913 229.608510638302 19.128220491312167 232.93617021277 18.699820251647694 C 236.263829787238 18.271420011983224 237.927659574472 17.769622528460157 241.25531914894 17.12702216896345 C 244.582978723408 16.48442180946675 246.24680851064198 17.071599760335523 249.57446808511 15.48681845416417 C 252.90212765957804 13.902037147992804 254.56595744681198 9.203115638106652 257.89361702128 9.203115638106652 C 261.221276595748 9.203115638106652 262.88510638298203 10.543738765727984 266.21276595745 10.543738765727984 C 269.540425531918 10.543738765727984 271.20425531915197 10.296584781306173 274.53191489362 10.296584781306173 C 277.859574468088 10.296584781306173 279.523404255322 13.371030557219893 282.85106382979 13.371030557219893 C 286.178723404258 13.371030557219893 287.84255319149196 12.337477531455967 291.17021276596 11.764529658478132 C 294.497872340428 11.191581785500306 296.161702127662 11.764529658478132 299.48936170213 10.506291192330739 C 302.817021276598 9.248052726183346 304.48085106383195 5.458358298382265 307.8085106383 5.458358298382265 C 311.136170212768 5.458358298382265 312.800000000002 5.458358298382265 316.12765957447 6.570551228280408 C 319.455319148938 7.682744158178551 321.11914893617194 11.345116836429 324.44680851064 11.345116836429 C 327.77446808510797 11.345116836429 329.438297872342 5.649340922708209 332.76595744681 5.649340922708209 C 336.09361702127796 5.649340922708209 337.75744680851193 6.9600059916117445 341.08510638298 6.9600059916117445 C 344.41276595744796 6.9600059916117445 346.076595744682 3.7956860395446412 349.40425531915 3.7956860395446412 C 352.731914893618 3.7956860395446412 354.39574468085203 6.546584781306171 357.72340425532 7.495506291192331 C 361.051063829788 8.44442780107849 362.714893617022 8.540293588975437 366.04255319149 8.540293588975437 C 369.370212765958 8.540293588975437 371.034042553192 7.532953864589576 374.36170212766 7.532953864589576 C 377.689361702128 7.532953864589576 379.353191489362 8.356800479328943 382.68085106383 8.356800479328943 C 386.008510638298 8.356800479328943 391 6.536848412222891 391 6.536848412222891" class="highcharts-graph" data-z-index="1" stroke="#000000" stroke-width="1" stroke-linejoin="round" stroke-linecap="round"></path></g><g data-z-index="0.1" class="highcharts-markers highcharts-series-7 highcharts-areaspline-series highcharts-navigator-series" transform="translate(70,299) scale(1 1)" clip-path="none"></g></g><text x="10" text-anchor="start" class="highcharts-title" data-z-index="4" style="color:#000000;font-size:14px;font-weight:bold;fill:#000000;" y="21"><tspan>Bilanz der Wohnbevlkerung</tspan></text><text x="10" text-anchor="start" class="highcharts-subtitle" data-z-index="4" style="color:#000000;font-size:12px;font-weight:normal;font-family:Arial;fill:#000000;" y="40"><tspan>Basel-Stadt</tspan></text><g class="highcharts-axis-labels highcharts-xaxis-labels " data-z-index="7"><text x="71.68647486435067" style="color:#000000;cursor:default;font-size:11px;fill:#000000;" text-anchor="end" transform="translate(0,0) rotate(-45 71.68647486435067 243)" y="243" opacity="1">00:00:01.972</text><text x="89.14480819768367" style="color:#000000;cursor:default;font-size:11px;fill:#000000;" text-anchor="end" transform="translate(0,0) rotate(-45 89.14480819768367 243)" y="243" opacity="1">00:00:01.974</text><text x="106.60314153102067" style="color:#000000;cursor:default;font-size:11px;fill:#000000;" text-anchor="end" transform="translate(0,0) rotate(-45 106.60314153102067 243)" y="243" opacity="1">00:00:01.976</text><text x="124.06147486435067" style="color:#000000;cursor:default;font-size:11px;fill:#000000;" text-anchor="end" transform="translate(0,0) rotate(-45 124.06147486435067 243)" y="243" opacity="1">00:00:01.978</text><text x="141.51980819768067" style="color:#000000;cursor:default;font-size:11px;fill:#000000;" text-anchor="end" transform="translate(0,0) rotate(-45 141.51980819768067 243)" y="243" opacity="1">00:00:01.980</text><text x="158.9781415310207" style="color:#000000;cursor:default;font-size:11px;fill:#000000;" text-anchor="end" transform="translate(0,0) rotate(-45 158.9781415310207 243)" y="243" opacity="1">00:00:01.982</text><text x="176.43647486435069" style="color:#000000;cursor:default;font-size:11px;fill:#000000;" text-anchor="end" transform="translate(0,0) rotate(-45 176.43647486435069 243)" y="243" opacity="1">00:00:01.984</text><text x="193.89480819768067" style="color:#000000;cursor:default;font-size:11px;fill:#000000;" text-anchor="end" transform="translate(0,0) rotate(-45 193.89480819768067 243)" y="243" opacity="1">00:00:01.986</text><text x="211.3531415310207" style="color:#000000;cursor:default;font-size:11px;fill:#000000;" text-anchor="end" transform="translate(0,0) rotate(-45 211.3531415310207 243)" y="243" opacity="1">00:00:01.988</text><text x="228.81147486435069" style="color:#000000;cursor:default;font-size:11px;fill:#000000;" text-anchor="end" transform="translate(0,0) rotate(-45 228.81147486435069 243)" y="243" opacity="1">00:00:01.990</text><text x="246.26980819768067" style="color:#000000;cursor:default;font-size:11px;fill:#000000;" text-anchor="end" transform="translate(0,0) rotate(-45 246.26980819768067 243)" y="243" opacity="1">00:00:01.992</text><text x="263.72814153102064" style="color:#000000;cursor:default;font-size:11px;fill:#000000;" text-anchor="end" transform="translate(0,0) rotate(-45 263.72814153102064 243)" y="243" opacity="1">00:00:01.994</text><text x="281.18647486435066" style="color:#000000;cursor:default;font-size:11px;fill:#000000;" text-anchor="end" transform="translate(0,0) rotate(-45 281.18647486435066 243)" y="243" opacity="1">00:00:01.996</text><text x="298.6448081976807" style="color:#000000;cursor:default;font-size:11px;fill:#000000;" text-anchor="end" transform="translate(0,0) rotate(-45 298.6448081976807 243)" y="243" opacity="1">00:00:01.998</text><text x="316.10314153102064" style="color:#000000;cursor:default;font-size:11px;fill:#000000;" text-anchor="end" transform="translate(0,0) rotate(-45 316.10314153102064 243)" y="243" opacity="1">00:00:02.000</text><text x="333.56147486435066" style="color:#000000;cursor:default;font-size:11px;fill:#000000;" text-anchor="end" transform="translate(0,0) rotate(-45 333.56147486435066 243)" y="243" opacity="1">00:00:02.002</text><text x="351.0198081976807" style="color:#000000;cursor:default;font-size:11px;fill:#000000;" text-anchor="end" transform="translate(0,0) rotate(-45 351.0198081976807 243)" y="243" opacity="1">00:00:02.004</text><text x="368.47814153102064" style="color:#000000;cursor:default;font-size:11px;fill:#000000;" text-anchor="end" transform="translate(0,0) rotate(-45 368.47814153102064 243)" y="243" opacity="1">00:00:02.006</text><text x="385.93647486435066" style="color:#000000;cursor:default;font-size:11px;fill:#000000;" text-anchor="end" transform="translate(0,0) rotate(-45 385.93647486435066 243)" y="243" opacity="1">00:00:02.008</text><text x="403.3948081976807" style="color:#000000;cursor:default;font-size:11px;fill:#000000;" text-anchor="end" transform="translate(0,0) rotate(-45 403.3948081976807 243)" y="243" opacity="1">00:00:02.010</text><text x="420.85314153102064" style="color:#000000;cursor:default;font-size:11px;fill:#000000;" text-anchor="end" transform="translate(0,0) rotate(-45 420.85314153102064 243)" y="243" opacity="1">00:00:02.012</text><text x="438.31147486435066" style="color:#000000;cursor:default;font-size:11px;fill:#000000;" text-anchor="end" transform="translate(0,0) rotate(-45 438.31147486435066 243)" y="243" opacity="1">00:00:02.014</text><text x="455.7698081976807" style="color:#000000;cursor:default;font-size:11px;fill:#000000;" text-anchor="end" transform="translate(0,0) rotate(-45 455.7698081976807 243)" y="243" opacity="1">00:00:02.016</text><text x="473.22814153102064" style="color:#000000;cursor:default;font-size:11px;fill:#000000;" text-anchor="end" transform="translate(0,0) rotate(-45 473.22814153102064 243)" y="243" opacity="1">00:00:02.018</text></g><g class="highcharts-axis-labels highcharts-xaxis-labels highcharts-navigator-xaxis" data-z-index="7"><text x="314.25531914894" style="color:#999999;cursor:default;font-size:11px;fill:#999999;" text-anchor="start" transform="translate(0,0)" y="325" opacity="1">00:00:02.000</text><text x="106.27659574468" style="color:#999999;cursor:default;font-size:11px;fill:#999999;" text-anchor="start" transform="translate(0,0)" y="325" opacity="1">00:00:01.975</text></g><g class="highcharts-axis-labels highcharts-yaxis-labels " data-z-index="7"><text x="41" style="color:#000000;cursor:default;font-size:11px;fill:#000000;" text-anchor="end" transform="translate(0,0)" y="225" opacity="1"><tspan>-5 000</tspan></text><text x="41" style="color:#000000;cursor:default;font-size:11px;fill:#000000;" text-anchor="end" transform="translate(0,0)" y="166" opacity="1">0</text><text x="41" style="color:#000000;cursor:default;font-size:11px;fill:#000000;" text-anchor="end" transform="translate(0,0)" y="107" opacity="1"><tspan>5 000</tspan></text></g><g class="highcharts-axis-labels highcharts-yaxis-labels highcharts-navigator-yaxis" data-z-index="7"></g><g class="highcharts-range-selector-group" data-z-index="7" transform="translate(0,346)"><g class="highcharts-range-selector-buttons" transform="translate(0,10)"><text x="56" y="15" style="color:#666666;fill:#666666;">Zoom</text><g class="highcharts-button highcharts-button-disabled" data-z-index="7" style="cursor:pointer;" transform="translate(93,0)"><rect fill="#f7f7f7" class=" highcharts-button-box" x="0" y="0" width="32" height="22" rx="2" ry="2"></rect><text x="4.5" data-z-index="1" style="font-weight:normal;color:#cccccc;fill:#cccccc;" y="14"><tspan>10 J</tspan></text></g><g class="highcharts-button highcharts-button-disabled" data-z-index="7" style="cursor:pointer;" transform="translate(140,0)"><rect fill="#f7f7f7" class=" highcharts-button-box" x="0" y="0" width="32" height="22" rx="2" ry="2"></rect><text x="4.5" data-z-index="1" style="font-weight:normal;color:#cccccc;fill:#cccccc;" y="14"><tspan>20 J</tspan></text></g><g class="highcharts-button highcharts-button-disabled" data-z-index="7" style="cursor:pointer;" transform="translate(187,0)"><rect fill="#f7f7f7" class=" highcharts-button-box" x="0" y="0" width="32" height="22" rx="2" ry="2"></rect><text x="4.5" data-z-index="1" style="font-weight:normal;color:#cccccc;fill:#cccccc;" y="14"><tspan>30 J</tspan></text></g><g class="highcharts-button highcharts-button-disabled" data-z-index="7" style="cursor:pointer;" transform="translate(234,0)"><rect fill="#f7f7f7" class=" highcharts-button-box" x="0" y="0" width="32" height="22" rx="2" ry="2"></rect><text x="1.5" data-z-index="1" style="font-weight:normal;color:#cccccc;fill:#cccccc;" y="14"><tspan>Alle J</tspan></text></g></g></g><g class="highcharts-legend" data-z-index="7" transform="translate(48,56)"><rect fill="none" class="highcharts-legend-box" rx="0" ry="0" x="0" y="0" width="368" height="41" visibility="visible"></rect><g data-z-index="1"><g><g class="highcharts-legend-item highcharts-column-series highcharts-color-undefined highcharts-series-0" data-z-index="1" transform="translate(8,3)"><text x="21" style="color:#333333;font-size:12px;font-weight:normal;cursor:pointer;fill:#333333;" text-anchor="start" data-z-index="2" y="15"><tspan>SaldoGeburten-Todesflle</tspan></text><rect x="2" y="4" width="12" height="12" fill="#FABD24" class="highcharts-point" data-z-index="3"></rect></g><g class="highcharts-legend-item highcharts-column-series highcharts-color-undefined highcharts-series-1" data-z-index="1" transform="translate(194,3)"><text x="21" y="15" style="color:#333333;font-size:12px;font-weight:normal;cursor:pointer;fill:#333333;" text-anchor="start" data-z-index="2"><tspan>SaldoZuzge-Wegzge</tspan></text><rect x="2" y="4" width="12" height="12" fill="#923F8D" class="highcharts-point" data-z-index="3"></rect></g><g class="highcharts-legend-item highcharts-column-series highcharts-color-undefined highcharts-series-2" data-z-index="1" transform="translate(8,18)"><text x="21" y="15" style="color:#333333;font-size:12px;font-weight:normal;cursor:pointer;fill:#333333;" text-anchor="start" data-z-index="2"><tspan>Bereinigungen</tspan></text><rect x="2" y="4" width="12" height="12" fill="#bbbbbb" class="highcharts-point" data-z-index="3"></rect></g><g class="highcharts-legend-item highcharts-line-series highcharts-color-undefined highcharts-series-3" data-z-index="1" transform="translate(194,18)"><path fill="none" d="M 0 11 L 16 11" class="highcharts-graph" stroke="#000000" stroke-width="2"></path><text x="21" y="15" style="color:#333333;font-size:12px;font-weight:normal;cursor:pointer;fill:#333333;" text-anchor="start" data-z-index="2"><tspan>Gesamtvernderung</tspan></text></g></g></g></g><g class="highcharts-navigator" data-z-index="8" visibility="visible"><rect fill="rgb(0,0,0)" fill-opacity="0" class="highcharts-navigator-mask-outside" x="70" y="299" width="0" height="30"></rect><rect fill="rgb(102,133,194)" fill-opacity="0.3" class="highcharts-navigator-mask-inside" style="cursor:ew-resize;" x="70" y="299" width="391" height="30"></rect><rect fill="rgb(0,0,0)" fill-opacity="0" class="highcharts-navigator-mask-outside" x="461" y="299" width="0" height="30"></rect><path fill="none" class="highcharts-navigator-outline" stroke="#B9CFD7" stroke-width="1" d="M 56 299.5 L 69.5 299.5 L 69.5 343.5 L 460.5 343.5 L 460.5 299.5 L 475 299.5 M 69 299.5 L 461 299.5"></path><path fill="#f2f2f2" d="M -4.5 0.5 L 3.5 0.5 L 3.5 15.5 L -4.5 15.5 L -4.5 0.5 M -1.5 4 L -1.5 12 M 0.5 4 L 0.5 12" data-z-index="6" class="highcharts-navigator-handle highcharts-navigator-handle-right" stroke="#999999" stroke-width="1" style="cursor:ew-resize;" transform="translate(461,306)"></path><path fill="#f2f2f2" d="M -4.5 0.5 L 3.5 0.5 L 3.5 15.5 L -4.5 15.5 L -4.5 0.5 M -1.5 4 L -1.5 12 M 0.5 4 L 0.5 12" data-z-index="7" class="highcharts-navigator-handle highcharts-navigator-handle-left" stroke="#999999" stroke-width="1" style="cursor:ew-resize;" transform="translate(70,306)"></path></g><text x="10" class="highcharts-credits" text-anchor="start" data-z-index="8" style="cursor:default;color:#000000;font-size:10px;fill:#000000;" y="403"><tspan>Quelle: Statistisches Amt Basel-Stadt, Bevlkerungsstatistik.</tspan><tspan x="10" dy="13">Zuletzt gendert: 2019-9-24</tspan></text></svg>