<?xml version="1.0" standalone="no"?><!DOCTYPE svg PUBLIC "-//W3C//DTD SVG 1.1//EN" "http://www.w3.org/Graphics/SVG/1.1/DTD/svg11.dtd"><svg xmlns:xlink="http://www.w3.org/1999/xlink" version="1.1" class="highcharts-root" style="font-family:Arial;font-size:12px;" xmlns="http://www.w3.org/2000/svg" viewBox="0 0 485 415"><desc>Created with Highcharts 8.1.2</desc><defs><clipPath id="highcharts-ckrthh6-71-"><rect x="0" y="0" width="276" height="422" fill="none"></rect></clipPath><clipPath id="highcharts-ckrthh6-93-"><rect x="0" y="0" width="276" height="422" fill="none"></rect></clipPath><clipPath id="highcharts-ckrthh6-136-"><rect x="53" y="92" width="422" height="276" fill="none"></rect></clipPath></defs><rect fill="#fbfbfb" class="highcharts-background" x="0" y="0" width="485" height="428" rx="0" ry="0"></rect><rect fill="none" class="highcharts-plot-background" x="53" y="92" width="422" height="276"></rect><g class="highcharts-pane-group" data-z-index="0"></g><g class="highcharts-grid highcharts-xaxis-grid" data-z-index="1"><path fill="none" data-z-index="1" class="highcharts-grid-line" d="M 53 355.5 L 475 355.5" opacity="1"></path><path fill="none" data-z-index="1" class="highcharts-grid-line" d="M 53 342.5 L 475 342.5" opacity="1"></path><path fill="none" data-z-index="1" class="highcharts-grid-line" d="M 53 329.5 L 475 329.5" opacity="1"></path><path fill="none" data-z-index="1" class="highcharts-grid-line" d="M 53 315.5 L 475 315.5" opacity="1"></path><path fill="none" data-z-index="1" class="highcharts-grid-line" d="M 53 302.5 L 475 302.5" opacity="1"></path><path fill="none" data-z-index="1" class="highcharts-grid-line" d="M 53 289.5 L 475 289.5" opacity="1"></path><path fill="none" data-z-index="1" class="highcharts-grid-line" d="M 53 276.5 L 475 276.5" opacity="1"></path><path fill="none" data-z-index="1" class="highcharts-grid-line" d="M 53 263.5 L 475 263.5" opacity="1"></path><path fill="none" data-z-index="1" class="highcharts-grid-line" d="M 53 250.5 L 475 250.5" opacity="1"></path><path fill="none" data-z-index="1" class="highcharts-grid-line" d="M 53 237.5 L 475 237.5" opacity="1"></path><path fill="none" data-z-index="1" class="highcharts-grid-line" d="M 53 223.5 L 475 223.5" opacity="1"></path><path fill="none" data-z-index="1" class="highcharts-grid-line" d="M 53 210.5 L 475 210.5" opacity="1"></path><path fill="none" data-z-index="1" class="highcharts-grid-line" d="M 53 197.5 L 475 197.5" opacity="1"></path><path fill="none" data-z-index="1" class="highcharts-grid-line" d="M 53 184.5 L 475 184.5" opacity="1"></path><path fill="none" data-z-index="1" class="highcharts-grid-line" d="M 53 171.5 L 475 171.5" opacity="1"></path><path fill="none" data-z-index="1" class="highcharts-grid-line" d="M 53 158.5 L 475 158.5" opacity="1"></path><path fill="none" data-z-index="1" class="highcharts-grid-line" d="M 53 145.5 L 475 145.5" opacity="1"></path><path fill="none" data-z-index="1" class="highcharts-grid-line" d="M 53 131.5 L 475 131.5" opacity="1"></path><path fill="none" data-z-index="1" class="highcharts-grid-line" d="M 53 118.5 L 475 118.5" opacity="1"></path><path fill="none" data-z-index="1" class="highcharts-grid-line" d="M 53 105.5 L 475 105.5" opacity="1"></path><path fill="none" data-z-index="1" class="highcharts-grid-line" d="M 53 92.5 L 475 92.5" opacity="1"></path><path fill="none" data-z-index="1" class="highcharts-grid-line" d="M 53 368.5 L 475 368.5" opacity="1"></path></g><g class="highcharts-grid highcharts-yaxis-grid" data-z-index="1"><path fill="none" stroke="#e6e6e6" stroke-width="1" data-z-index="1" class="highcharts-grid-line" d="M 263.5 92 L 263.5 368" opacity="1"></path><path fill="none" stroke="#e6e6e6" stroke-width="1" data-z-index="1" class="highcharts-grid-line" d="M 369.5 92 L 369.5 368" opacity="1"></path><path fill="none" stroke="#e6e6e6" stroke-width="1" data-z-index="1" class="highcharts-grid-line" d="M 475.5 92 L 475.5 368" opacity="1"></path><path fill="none" stroke="#e6e6e6" stroke-width="1" data-z-index="1" class="highcharts-grid-line" d="M 52.5 92 L 52.5 368" opacity="1"></path><path fill="none" stroke="#e6e6e6" stroke-width="1" data-z-index="1" class="highcharts-grid-line" d="M 158.5 92 L 158.5 368" opacity="1"></path></g><rect fill="none" class="highcharts-plot-border" data-z-index="1" x="53" y="92" width="422" height="276"></rect><g class="highcharts-axis highcharts-xaxis" data-z-index="2"><path fill="none" class="highcharts-axis-line" stroke="#ccd6eb" stroke-width="1" data-z-index="7" d="M 52.5 92 L 52.5 368"></path></g><g class="highcharts-axis highcharts-yaxis" data-z-index="2"><path fill="none" class="highcharts-axis-line" data-z-index="7" d="M 53 368 L 475 368"></path></g><g class="highcharts-series-group" data-z-index="3"><g class="highcharts-series highcharts-series-0 highcharts-bar-series" data-z-index="0.1" opacity="1" transform="translate(475,368) rotate(90) scale(-1,1) scale(1 1)" clip-path="url(#highcharts-ckrthh6-93-)" width="422" height="276"><rect x="0" y="212" width="13" height="39" fill="#B00000" opacity="1" class="highcharts-point highcharts-negative"></rect><rect x="13" y="212" width="13" height="24" fill="#B00000" opacity="1" class="highcharts-point highcharts-negative"></rect><rect x="26" y="212" width="13" height="14" fill="#B00000" opacity="1" class="highcharts-point highcharts-negative"></rect><rect x="39" y="212" width="14" height="14" fill="#B00000" opacity="1" class="highcharts-point highcharts-negative"></rect><rect x="53" y="212" width="13" height="64" fill="#B00000" opacity="1" class="highcharts-point highcharts-negative"></rect><rect x="66" y="212" width="13" height="133" fill="#B00000" opacity="1" class="highcharts-point highcharts-negative"></rect><rect x="79" y="212" width="13" height="139" fill="#B00000" opacity="1" class="highcharts-point highcharts-negative"></rect><rect x="92" y="212" width="13" height="105" fill="#B00000" opacity="1" class="highcharts-point highcharts-negative"></rect><rect x="105" y="212" width="13" height="68" fill="#B00000" opacity="1" class="highcharts-point highcharts-negative"></rect><rect x="118" y="212" width="13" height="49" fill="#B00000" opacity="1" class="highcharts-point highcharts-negative"></rect><rect x="131" y="212" width="14" height="33" fill="#B00000" opacity="1" class="highcharts-point highcharts-negative"></rect><rect x="145" y="212" width="13" height="21" fill="#B00000" opacity="1" class="highcharts-point highcharts-negative"></rect><rect x="158" y="212" width="13" height="14" fill="#B00000" opacity="1" class="highcharts-point highcharts-negative"></rect><rect x="171" y="212" width="13" height="9" fill="#B00000" opacity="1" class="highcharts-point highcharts-negative"></rect><rect x="184" y="212" width="13" height="4" fill="#B00000" opacity="1" class="highcharts-point highcharts-negative"></rect><rect x="197" y="212" width="13" height="2" fill="#B00000" opacity="1" class="highcharts-point highcharts-negative"></rect><rect x="210" y="212" width="13" height="1" fill="#B00000" opacity="1" class="highcharts-point highcharts-negative"></rect><rect x="223" y="212" width="14" height="1" fill="#B00000" opacity="1" class="highcharts-point highcharts-negative"></rect><rect x="237" y="212" width="13" height="0" fill="#B00000" opacity="1" class="highcharts-point highcharts-negative"></rect><rect x="250" y="212" width="13" height="0" fill="#B00000" opacity="1" class="highcharts-point highcharts-negative"></rect><rect x="263" y="212" width="13" height="0" fill="#B00000" opacity="1" class="highcharts-point highcharts-negative"></rect></g><g class="highcharts-markers highcharts-series-0 highcharts-bar-series" data-z-index="0.1" opacity="1" transform="translate(475,368) rotate(90) scale(-1,1) scale(1 1)" clip-path="none"></g><g class="highcharts-series highcharts-series-1 highcharts-bar-series" data-z-index="0.1" opacity="1" transform="translate(475,368) rotate(90) scale(-1,1) scale(1 1)" clip-path="url(#highcharts-ckrthh6-93-)" width="422" height="276"><rect x="0" y="173" width="13" height="39" fill="#008AC3" opacity="1" class="highcharts-point"></rect><rect x="13" y="185" width="13" height="27" fill="#008AC3" opacity="1" class="highcharts-point"></rect><rect x="26" y="192" width="13" height="20" fill="#008AC3" opacity="1" class="highcharts-point"></rect><rect x="39" y="187" width="14" height="25" fill="#008AC3" opacity="1" class="highcharts-point"></rect><rect x="53" y="109" width="13" height="103" fill="#008AC3" opacity="1" class="highcharts-point"></rect><rect x="66" y="14" width="13" height="198" fill="#008AC3" opacity="1" class="highcharts-point"></rect><rect x="79" y="49" width="13" height="163" fill="#008AC3" opacity="1" class="highcharts-point"></rect><rect x="92" y="102" width="13" height="110" fill="#008AC3" opacity="1" class="highcharts-point"></rect><rect x="105" y="138" width="13" height="74" fill="#008AC3" opacity="1" class="highcharts-point"></rect><rect x="118" y="159" width="13" height="53" fill="#008AC3" opacity="1" class="highcharts-point"></rect><rect x="131" y="177" width="14" height="35" fill="#008AC3" opacity="1" class="highcharts-point"></rect><rect x="145" y="194" width="13" height="18" fill="#008AC3" opacity="1" class="highcharts-point"></rect><rect x="158" y="204" width="13" height="8" fill="#008AC3" opacity="1" class="highcharts-point"></rect><rect x="171" y="209" width="13" height="3" fill="#008AC3" opacity="1" class="highcharts-point"></rect><rect x="184" y="211" width="13" height="1" fill="#008AC3" opacity="1" class="highcharts-point"></rect><rect x="197" y="211" width="13" height="1" fill="#008AC3" opacity="1" class="highcharts-point"></rect><rect x="210" y="212" width="13" height="0" fill="#008AC3" opacity="1" class="highcharts-point"></rect><rect x="223" y="212" width="14" height="0" fill="#008AC3" opacity="1" class="highcharts-point"></rect><rect x="237" y="212" width="13" height="0" fill="#008AC3" opacity="1" class="highcharts-point"></rect><rect x="250" y="212" width="13" height="0" fill="#008AC3" opacity="1" class="highcharts-point"></rect><rect x="263" y="212" width="13" height="0" fill="#008AC3" opacity="1" class="highcharts-point"></rect></g><g class="highcharts-markers highcharts-series-1 highcharts-bar-series" data-z-index="0.1" opacity="1" transform="translate(475,368) rotate(90) scale(-1,1) scale(1 1)" clip-path="none"></g><g class="highcharts-series highcharts-series-2 highcharts-bar-series" data-z-index="0.1" opacity="1" transform="translate(475,368) rotate(90) scale(-1,1) scale(1 1)" clip-path="url(#highcharts-ckrthh6-93-)" width="422" height="276"><rect x="0" y="211" width="13" height="1" fill="#000000" opacity="1" class="highcharts-point"></rect><rect x="13" y="208" width="13" height="4" fill="#000000" opacity="1" class="highcharts-point"></rect><rect x="26" y="206" width="13" height="6" fill="#000000" opacity="1" class="highcharts-point"></rect><rect x="39" y="201" width="14" height="11" fill="#000000" opacity="1" class="highcharts-point"></rect><rect x="53" y="172" width="13" height="40" fill="#000000" opacity="1" class="highcharts-point"></rect><rect x="66" y="148" width="13" height="64" fill="#000000" opacity="1" class="highcharts-point"></rect><rect x="79" y="187" width="13" height="25" fill="#000000" opacity="1" class="highcharts-point"></rect><rect x="92" y="207" width="13" height="5" fill="#000000" opacity="1" class="highcharts-point"></rect><rect x="105" y="206" width="13" height="6" fill="#000000" opacity="1" class="highcharts-point"></rect><rect x="118" y="207" width="13" height="5" fill="#000000" opacity="1" class="highcharts-point"></rect><rect x="131" y="211" width="14" height="1" fill="#000000" opacity="1" class="highcharts-point"></rect><rect x="145" y="212" width="13" height="2" fill="#000000" opacity="1" class="highcharts-point highcharts-negative"></rect><rect x="158" y="212" width="13" height="6" fill="#000000" opacity="1" class="highcharts-point highcharts-negative"></rect><rect x="171" y="212" width="13" height="6" fill="#000000" opacity="1" class="highcharts-point highcharts-negative"></rect><rect x="184" y="212" width="13" height="2" fill="#000000" opacity="1" class="highcharts-point highcharts-negative"></rect><rect x="197" y="212" width="13" height="1" fill="#000000" opacity="1" class="highcharts-point highcharts-negative"></rect><rect x="210" y="212" width="13" height="1" fill="#000000" opacity="1" class="highcharts-point highcharts-negative"></rect><rect x="223" y="212" width="14" height="0" fill="#000000" opacity="1" class="highcharts-point highcharts-negative"></rect><rect x="237" y="212" width="13" height="0" fill="#000000" opacity="1" class="highcharts-point highcharts-negative"></rect><rect x="250" y="212" width="13" height="0" fill="#000000" opacity="1" class="highcharts-point"></rect><rect x="263" y="212" width="13" height="0" fill="#000000" opacity="1" class="highcharts-point"></rect></g><g class="highcharts-markers highcharts-series-2 highcharts-bar-series" data-z-index="0.1" opacity="1" transform="translate(475,368) rotate(90) scale(-1,1) scale(1 1)" clip-path="none"></g></g><text x="10" text-anchor="start" class="highcharts-title" data-z-index="4" style="color:#000000;font-size:14px;font-weight:bold;fill:#000000;" y="21"><tspan>Wanderungen der ausländischen Bevölkerung</tspan></text><text x="10" text-anchor="start" class="highcharts-subtitle" data-z-index="4" style="color:#000000;font-size:12px;font-weight:normal;font-family:Arial;fill:#000000;" y="40"><tspan>Basel-Stadt, Summe 2010 bis 2019</tspan></text><text x="10" text-anchor="start" class="highcharts-caption" data-z-index="4" style="color:#666666;fill:#666666;" y="400"></text><g class="highcharts-plot-lines-4" data-z-index="4"><path fill="none" class="highcharts-plot-line " stroke="white" stroke-width="1" d="M 263.5 92 L 263.5 368"></path></g><g class="highcharts-legend" data-z-index="7" transform="translate(45,55)"><rect fill="none" class="highcharts-legend-box" rx="0" ry="0" x="0" y="0" width="293" height="25" visibility="visible"></rect><g data-z-index="1"><g><g class="highcharts-legend-item highcharts-bar-series highcharts-color-undefined highcharts-series-0" data-z-index="1" transform="translate(8,3)"><text x="21" style="color:#333333;cursor:pointer;font-size:12px;font-weight:normal;fill:#333333;" text-anchor="start" data-z-index="2" y="15"><tspan>Weggezogene</tspan></text><rect x="2" y="4" width="12" height="12" fill="#B00000" class="highcharts-point" data-z-index="3"></rect></g><g class="highcharts-legend-item highcharts-bar-series highcharts-color-undefined highcharts-series-1" data-z-index="1" transform="translate(126.359375,3)"><text x="21" y="15" style="color:#333333;cursor:pointer;font-size:12px;font-weight:normal;fill:#333333;" text-anchor="start" data-z-index="2"><tspan>Zugezogene</tspan></text><rect x="2" y="4" width="12" height="12" fill="#008AC3" class="highcharts-point" data-z-index="3"></rect></g><g class="highcharts-legend-item highcharts-bar-series highcharts-color-undefined highcharts-series-2" data-z-index="1" transform="translate(234.0625,3)"><text x="21" y="15" style="color:#333333;cursor:pointer;font-size:12px;font-weight:normal;fill:#333333;" text-anchor="start" data-z-index="2"><tspan>Saldo</tspan></text><rect x="2" y="4" width="12" height="12" fill="#000000" class="highcharts-point" data-z-index="3"></rect></g></g></g></g><g class="highcharts-axis-labels highcharts-xaxis-labels" data-z-index="7"><text x="38" style="color:#000000;cursor:default;font-size:11px;fill:#000000;" text-anchor="end" transform="translate(0,0)" y="366" opacity="1">0-4</text><text x="38" style="color:#000000;cursor:default;font-size:11px;fill:#000000;" text-anchor="end" transform="translate(0,0)" y="353" opacity="1">5-9</text><text x="38" style="color:#000000;cursor:default;font-size:11px;fill:#000000;" text-anchor="end" transform="translate(0,0)" y="340" opacity="1">10-14</text><text x="38" style="color:#000000;cursor:default;font-size:11px;fill:#000000;" text-anchor="end" transform="translate(0,0)" y="327" opacity="1">15-19</text><text x="38" style="color:#000000;cursor:default;font-size:11px;fill:#000000;" text-anchor="end" transform="translate(0,0)" y="314" opacity="1">20-24</text><text x="38" style="color:#000000;cursor:default;font-size:11px;fill:#000000;" text-anchor="end" transform="translate(0,0)" y="301" opacity="1">25-29</text><text x="38" style="color:#000000;cursor:default;font-size:11px;fill:#000000;" text-anchor="end" transform="translate(0,0)" y="288" opacity="1">30-34</text><text x="38" style="color:#000000;cursor:default;font-size:11px;fill:#000000;" text-anchor="end" transform="translate(0,0)" y="274" opacity="1">35-39</text><text x="38" style="color:#000000;cursor:default;font-size:11px;fill:#000000;" text-anchor="end" transform="translate(0,0)" y="261" opacity="1">40-44</text><text x="38" style="color:#000000;cursor:default;font-size:11px;fill:#000000;" text-anchor="end" transform="translate(0,0)" y="248" opacity="1">45-49</text><text x="38" style="color:#000000;cursor:default;font-size:11px;fill:#000000;" text-anchor="end" transform="translate(0,0)" y="235" opacity="1">50-54</text><text x="38" style="color:#000000;cursor:default;font-size:11px;fill:#000000;" text-anchor="end" transform="translate(0,0)" y="222" opacity="1">55-59</text><text x="38" style="color:#000000;cursor:default;font-size:11px;fill:#000000;" text-anchor="end" transform="translate(0,0)" y="209" opacity="1">60-64</text><text x="38" style="color:#000000;cursor:default;font-size:11px;fill:#000000;" text-anchor="end" transform="translate(0,0)" y="196" opacity="1">65-69</text><text x="38" style="color:#000000;cursor:default;font-size:11px;fill:#000000;" text-anchor="end" transform="translate(0,0)" y="182" opacity="1">70-74</text><text x="38" style="color:#000000;cursor:default;font-size:11px;fill:#000000;" text-anchor="end" transform="translate(0,0)" y="169" opacity="1">75-79</text><text x="38" style="color:#000000;cursor:default;font-size:11px;fill:#000000;" text-anchor="end" transform="translate(0,0)" y="156" opacity="1">80-84</text><text x="38" style="color:#000000;cursor:default;font-size:11px;fill:#000000;" text-anchor="end" transform="translate(0,0)" y="143" opacity="1">85-89</text><text x="38" style="color:#000000;cursor:default;font-size:11px;fill:#000000;" text-anchor="end" transform="translate(0,0)" y="130" opacity="1">90-94</text><text x="38" style="color:#000000;cursor:default;font-size:11px;fill:#000000;" text-anchor="end" transform="translate(0,0)" y="117" opacity="1">95-99</text><text x="38" style="color:#000000;cursor:default;font-size:11px;fill:#000000;" text-anchor="end" transform="translate(0,0)" y="104" opacity="1">&gt;99</text></g><g class="highcharts-axis-labels highcharts-yaxis-labels" data-z-index="7"><text x="264" style="color:#000000;cursor:default;font-size:11px;fill:#000000;" text-anchor="middle" transform="translate(0,0)" y="387" opacity="1">0</text><text x="369.5" style="color:#000000;cursor:default;font-size:11px;fill:#000000;" text-anchor="middle" transform="translate(0,0)" y="387" opacity="1"><tspan>11 000</tspan></text><text x="458.203125" style="color:#000000;cursor:default;font-size:11px;fill:#000000;" text-anchor="middle" transform="translate(0,0)" y="387" opacity="1"><tspan>22 000</tspan></text><text x="53" style="color:#000000;cursor:default;font-size:11px;fill:#000000;" text-anchor="middle" transform="translate(0,0)" y="387" opacity="1"><tspan>22 000</tspan></text><text x="158.5" style="color:#000000;cursor:default;font-size:11px;fill:#000000;" text-anchor="middle" transform="translate(0,0)" y="387" opacity="1"><tspan>11 000</tspan></text></g><text x="10" class="highcharts-credits" text-anchor="start" data-z-index="8" style="cursor:default;color:#000000;font-size:10px;fill:#000000;" y="403"><tspan>Quelle: Statistisches Amt Basel-Stadt, Bevölkerungsstatistik.</tspan><tspan x="10" dy="13">Zuletzt geändert: 2020-7-20</tspan></text><g class="highcharts-control-points" data-z-index="99" clip-path="url(#highcharts-ckrthh6-136-)"></g></svg>