<?xml version="1.0" standalone="no"?><!DOCTYPE svg PUBLIC "-//W3C//DTD SVG 1.1//EN" "http://www.w3.org/Graphics/SVG/1.1/DTD/svg11.dtd"><svg xmlns:xlink="http://www.w3.org/1999/xlink" version="1.1" class="highcharts-root" style="font-family:Arial;font-size:12px;" xmlns="http://www.w3.org/2000/svg" viewBox="0 0 485 415"><desc>Created with Highcharts 8.1.0</desc><defs><clipPath id="highcharts-ilmmvor-33-"><rect x="0" y="0" width="419" height="220" fill="none"></rect></clipPath><clipPath id="highcharts-ilmmvor-47-"><rect x="0" y="0" width="419" height="220" fill="none"></rect></clipPath><clipPath id="highcharts-ilmmvor-61-"><rect x="56" y="116" width="419" height="220" fill="none"></rect></clipPath></defs><rect fill="#fbfbfb" class="highcharts-background" x="0" y="0" width="485" height="428" rx="0" ry="0"></rect><rect fill="none" class="highcharts-plot-background" x="56" y="116" width="419" height="220"></rect><g class="highcharts-pane-group" data-z-index="0"></g><g class="highcharts-grid highcharts-xaxis-grid" data-z-index="1"><path fill="none" data-z-index="1" class="highcharts-grid-line" d="M 59.5 116 L 59.5 336" opacity="1"></path><path fill="none" data-z-index="1" class="highcharts-grid-line" d="M 93.5 116 L 93.5 336" opacity="1"></path><path fill="none" data-z-index="1" class="highcharts-grid-line" d="M 128.5 116 L 128.5 336" opacity="1"></path><path fill="none" data-z-index="1" class="highcharts-grid-line" d="M 162.5 116 L 162.5 336" opacity="1"></path><path fill="none" data-z-index="1" class="highcharts-grid-line" d="M 196.5 116 L 196.5 336" opacity="1"></path><path fill="none" data-z-index="1" class="highcharts-grid-line" d="M 230.5 116 L 230.5 336" opacity="1"></path><path fill="none" data-z-index="1" class="highcharts-grid-line" d="M 265.5 116 L 265.5 336" opacity="1"></path><path fill="none" data-z-index="1" class="highcharts-grid-line" d="M 299.5 116 L 299.5 336" opacity="1"></path><path fill="none" data-z-index="1" class="highcharts-grid-line" d="M 333.5 116 L 333.5 336" opacity="1"></path><path fill="none" data-z-index="1" class="highcharts-grid-line" d="M 367.5 116 L 367.5 336" opacity="1"></path><path fill="none" data-z-index="1" class="highcharts-grid-line" d="M 401.5 116 L 401.5 336" opacity="1"></path><path fill="none" data-z-index="1" class="highcharts-grid-line" d="M 436.5 116 L 436.5 336" opacity="1"></path><path fill="none" data-z-index="1" class="highcharts-grid-line" d="M 470.5 116 L 470.5 336" opacity="1"></path></g><g class="highcharts-grid highcharts-yaxis-grid" data-z-index="1"><path fill="none" stroke="#B9CFD7" stroke-width="0.5" data-z-index="1" class="highcharts-grid-line" d="M 56 336.25 L 475 336.25" opacity="1"></path><path fill="none" stroke="#B9CFD7" stroke-width="0.5" data-z-index="1" class="highcharts-grid-line" d="M 56 281.25 L 475 281.25" opacity="1"></path><path fill="none" stroke="#B9CFD7" stroke-width="0.5" data-z-index="1" class="highcharts-grid-line" d="M 56 226.25 L 475 226.25" opacity="1"></path><path fill="none" stroke="#B9CFD7" stroke-width="0.5" data-z-index="1" class="highcharts-grid-line" d="M 56 171.25 L 475 171.25" opacity="1"></path><path fill="none" stroke="#B9CFD7" stroke-width="0.5" data-z-index="1" class="highcharts-grid-line" d="M 56 115.75 L 475 115.75" opacity="1"></path></g><rect fill="none" class="highcharts-plot-border" data-z-index="1" x="56" y="116" width="419" height="220"></rect><g class="highcharts-axis highcharts-xaxis" data-z-index="2"><path fill="none" class="highcharts-axis-line" stroke="#B9CFD7" stroke-width="0.5" data-z-index="7" d="M 56 336.25 L 475 336.25"></path></g><g class="highcharts-axis highcharts-yaxis" data-z-index="2"><path fill="none" class="highcharts-axis-line" data-z-index="7" d="M 56 116 L 56 336"></path></g><g class="highcharts-series-group" data-z-index="3"><g data-z-index="0.1" class="highcharts-series highcharts-series-0 highcharts-line-series" transform="translate(56,116) scale(1 1)" clip-path="url(#highcharts-ilmmvor-47-)"><path fill="none" d="M 4.1078431372512 59.38900000000001 L 38.339869281043 53.52599999999998 L 72.571895424834 48.740999999999985 L 106.80392156863 53.78999999999999 L 141.03594771242 27.345999999999975 L 175.26797385621 34.166 L 209.5 31.185000000000002 L 243.73202614379 42.712999999999994 L 277.96405228758 28.699000000000012 L 312.19607843137 12.650000000000006 L 346.42810457517 14.080000000000013 L 380.66013071896 21.075999999999993 L 414.89215686275 12.220999999999975" class="highcharts-graph" data-z-index="1" stroke="#B00000" stroke-width="2" stroke-linejoin="round" stroke-linecap="round"></path></g><g data-z-index="0.1" class="highcharts-markers highcharts-series-0 highcharts-line-series" transform="translate(56,116) scale(1 1)" clip-path="none"></g><g data-z-index="0.1" class="highcharts-series highcharts-series-1 highcharts-line-series" transform="translate(56,116) scale(1 1)" clip-path="url(#highcharts-ilmmvor-47-)"><path fill="none" d="M 4.1078431372512 141.603 L 38.339869281043 134.024 L 72.571895424834 117.128 L 106.80392156863 142.934 L 141.03594771242 135.212 L 175.26797385621 139.32600000000002 L 209.5 149.732 L 243.73202614379 145.365 L 277.96405228758 143.209 L 312.19607843137 139.183 L 346.42810457517 127.919 L 380.66013071896 130.14100000000002 L 414.89215686275 137.709" class="highcharts-graph" data-z-index="1" stroke="#4f81bd" stroke-width="2" stroke-linejoin="round" stroke-linecap="round"></path></g><g data-z-index="0.1" class="highcharts-markers highcharts-series-1 highcharts-line-series" transform="translate(56,116) scale(1 1)" clip-path="none"></g></g><text x="10" text-anchor="start" class="highcharts-title" data-z-index="4" style="color:#000000;font-size:14px;font-weight:bold;fill:#000000;" y="21"><tspan>Ertrag des Kantons Basel-Stadt aus direkten Steuern</tspan></text><text x="10" text-anchor="start" class="highcharts-subtitle" data-z-index="4" style="color:#000000;font-size:12px;font-weight:normal;font-family:Arial;fill:#000000;" y="40"><tspan>in Mio. Franken</tspan></text><text x="10" text-anchor="start" class="highcharts-caption" data-z-index="4" style="color:#666666;fill:#666666;" y="385"></text><g class="highcharts-legend" data-z-index="7" transform="translate(48,55)"><rect fill="none" class="highcharts-legend-box" rx="0" ry="0" x="0" y="0" width="262" height="49" visibility="visible"></rect><g data-z-index="1"><g><g class="highcharts-legend-item highcharts-line-series highcharts-color-undefined highcharts-series-0" data-z-index="1" transform="translate(8,3)"><path fill="none" d="M 0 11 L 16 11" class="highcharts-graph" stroke="#B00000" stroke-width="2"></path><text x="21" style="color:#333333;cursor:pointer;font-size:12px;font-weight:normal;fill:#333333;" text-anchor="start" data-z-index="2" y="15"><tspan>Direkte Steuern natürliche Personen</tspan></text></g><g class="highcharts-legend-item highcharts-line-series highcharts-color-undefined highcharts-series-1" data-z-index="1" transform="translate(8,22)"><path fill="none" d="M 0 11 L 16 11" class="highcharts-graph" stroke="#4f81bd" stroke-width="2"></path><text x="21" y="15" style="color:#333333;cursor:pointer;font-size:12px;font-weight:normal;fill:#333333;" text-anchor="start" data-z-index="2"><tspan>Direkte Steuern juristische Personen</tspan></text></g></g></g></g><g class="highcharts-axis-labels highcharts-xaxis-labels" data-z-index="7"><text x="62.700568001601674" style="color:#000000;cursor:default;font-size:11px;fill:#000000;" text-anchor="end" transform="translate(0,0) rotate(-45 62.700568001601674 352)" y="352" opacity="1">2006</text><text x="96.93259414539367" style="color:#000000;cursor:default;font-size:11px;fill:#000000;" text-anchor="end" transform="translate(0,0) rotate(-45 96.93259414539367 352)" y="352" opacity="1">2007</text><text x="131.16462028918068" style="color:#000000;cursor:default;font-size:11px;fill:#000000;" text-anchor="end" transform="translate(0,0) rotate(-45 131.16462028918068 352)" y="352" opacity="1">2008</text><text x="165.39664643298067" style="color:#000000;cursor:default;font-size:11px;fill:#000000;" text-anchor="end" transform="translate(0,0) rotate(-45 165.39664643298067 352)" y="352" opacity="1">2009</text><text x="199.6286725767707" style="color:#000000;cursor:default;font-size:11px;fill:#000000;" text-anchor="end" transform="translate(0,0) rotate(-45 199.6286725767707 352)" y="352" opacity="1">2010</text><text x="233.8606987205607" style="color:#000000;cursor:default;font-size:11px;fill:#000000;" text-anchor="end" transform="translate(0,0) rotate(-45 233.8606987205607 352)" y="352" opacity="1">2011</text><text x="268.09272486435066" style="color:#000000;cursor:default;font-size:11px;fill:#000000;" text-anchor="end" transform="translate(0,0) rotate(-45 268.09272486435066 352)" y="352" opacity="1">2012</text><text x="302.32475100814065" style="color:#000000;cursor:default;font-size:11px;fill:#000000;" text-anchor="end" transform="translate(0,0) rotate(-45 302.32475100814065 352)" y="352" opacity="1">2013</text><text x="336.55677715193065" style="color:#000000;cursor:default;font-size:11px;fill:#000000;" text-anchor="end" transform="translate(0,0) rotate(-45 336.55677715193065 352)" y="352" opacity="1">2014</text><text x="370.78880329572064" style="color:#000000;cursor:default;font-size:11px;fill:#000000;" text-anchor="end" transform="translate(0,0) rotate(-45 370.78880329572064 352)" y="352" opacity="1">2015</text><text x="405.02082943952064" style="color:#000000;cursor:default;font-size:11px;fill:#000000;" text-anchor="end" transform="translate(0,0) rotate(-45 405.02082943952064 352)" y="352" opacity="1">2016</text><text x="439.25285558331063" style="color:#000000;cursor:default;font-size:11px;fill:#000000;" text-anchor="end" transform="translate(0,0) rotate(-45 439.25285558331063 352)" y="352" opacity="1">2017</text><text x="473.4848817271007" style="color:#000000;cursor:default;font-size:11px;fill:#000000;" text-anchor="end" transform="translate(0,0) rotate(-45 473.4848817271007 352)" y="352" opacity="1">2018</text></g><g class="highcharts-axis-labels highcharts-yaxis-labels" data-z-index="7"><text x="41" style="color:#000000;cursor:default;font-size:11px;fill:#000000;" text-anchor="end" transform="translate(0,0)" y="341" opacity="1">0</text><text x="41" style="color:#000000;cursor:default;font-size:11px;fill:#000000;" text-anchor="end" transform="translate(0,0)" y="286" opacity="1">500</text><text x="41" style="color:#000000;cursor:default;font-size:11px;fill:#000000;" text-anchor="end" transform="translate(0,0)" y="231" opacity="1"><tspan>1 000</tspan></text><text x="41" style="color:#000000;cursor:default;font-size:11px;fill:#000000;" text-anchor="end" transform="translate(0,0)" y="176" opacity="1"><tspan>1 500</tspan></text><text x="41" style="color:#000000;cursor:default;font-size:11px;fill:#000000;" text-anchor="end" transform="translate(0,0)" y="121" opacity="1"><tspan>2 000</tspan></text></g><text x="10" class="highcharts-credits" text-anchor="start" data-z-index="8" style="cursor:default;color:#000000;font-size:10px;fill:#000000;" y="403"><tspan>Quelle: Jahresbericht des Kantons Basel-Stadt.</tspan><tspan x="10" dy="13">Zuletzt geändert: 2020-2-11</tspan></text><g class="highcharts-control-points" data-z-index="99" clip-path="url(#highcharts-ilmmvor-61-)"></g></svg>