<?xml version="1.0" standalone="no"?>
<!DOCTYPE svg PUBLIC "-//W3C//DTD SVG 1.1//EN" "http://www.w3.org/Graphics/SVG/1.1/DTD/svg11.dtd">
<svg xmlns:xlink="http://www.w3.org/1999/xlink" version="1.1" class="highcharts-root" style="font-family:Arial;font-size:12px;" xmlns="http://www.w3.org/2000/svg" viewBox="0 0 485 415">
  <desc>
    Created with Highstock 6.1.0
  </desc>
  <defs>
    <clipPath>
      <rect x="0" y="0" width="484" height="275" fill="none"/>
    </clipPath>
    <clipPath id="a">
      <rect x="0" y="0" width="484" height="275" fill="none"/>
    </clipPath>
  </defs>
  <rect fill="#fbfbfb" class="highcharts-background" x="0" y="0" width="485" height="700" rx="0" ry="0"/>
  <rect fill="none" class="highcharts-plot-background" x="200" y="165" width="275" height="484"/>
  <g class="highcharts-pane-group"/>
  <g class="highcharts-grid highcharts-xaxis-grid ">
    <path fill="none" class="highcharts-grid-line" d="M 200 186.5 L 475 186.5" opacity="1"/>
    <path fill="none" class="highcharts-grid-line" d="M 200 207.5 L 475 207.5" opacity="1"/>
    <path fill="none" class="highcharts-grid-line" d="M 200 228.5 L 475 228.5" opacity="1"/>
    <path fill="none" class="highcharts-grid-line" d="M 200 249.5 L 475 249.5" opacity="1"/>
    <path fill="none" class="highcharts-grid-line" d="M 200 270.5 L 475 270.5" opacity="1"/>
    <path fill="none" class="highcharts-grid-line" d="M 200 291.5 L 475 291.5" opacity="1"/>
    <path fill="none" class="highcharts-grid-line" d="M 200 312.5 L 475 312.5" opacity="1"/>
    <path fill="none" class="highcharts-grid-line" d="M 200 333.5 L 475 333.5" opacity="1"/>
    <path fill="none" class="highcharts-grid-line" d="M 200 354.5 L 475 354.5" opacity="1"/>
    <path fill="none" class="highcharts-grid-line" d="M 200 375.5 L 475 375.5" opacity="1"/>
    <path fill="none" class="highcharts-grid-line" d="M 200 396.5 L 475 396.5" opacity="1"/>
    <path fill="none" class="highcharts-grid-line" d="M 200 418.5 L 475 418.5" opacity="1"/>
    <path fill="none" class="highcharts-grid-line" d="M 200 439.5 L 475 439.5" opacity="1"/>
    <path fill="none" class="highcharts-grid-line" d="M 200 460.5 L 475 460.5" opacity="1"/>
    <path fill="none" class="highcharts-grid-line" d="M 200 481.5 L 475 481.5" opacity="1"/>
    <path fill="none" class="highcharts-grid-line" d="M 200 502.5 L 475 502.5" opacity="1"/>
    <path fill="none" class="highcharts-grid-line" d="M 200 523.5 L 475 523.5" opacity="1"/>
    <path fill="none" class="highcharts-grid-line" d="M 200 544.5 L 475 544.5" opacity="1"/>
    <path fill="none" class="highcharts-grid-line" d="M 200 565.5 L 475 565.5" opacity="1"/>
    <path fill="none" class="highcharts-grid-line" d="M 200 586.5 L 475 586.5" opacity="1"/>
    <path fill="none" class="highcharts-grid-line" d="M 200 607.5 L 475 607.5" opacity="1"/>
    <path fill="none" class="highcharts-grid-line" d="M 200 628.5 L 475 628.5" opacity="1"/>
    <path fill="none" class="highcharts-grid-line" d="M 200 649.5 L 475 649.5" opacity="1"/>
    <path fill="none" class="highcharts-grid-line" d="M 200 165.5 L 475 165.5" opacity="1"/>
  </g>
  <g class="highcharts-grid highcharts-yaxis-grid ">
    <path fill="none" stroke="#B9CFD7" stroke-width="0.5" class="highcharts-grid-line" d="M 199.75 165 L 199.75 649" opacity="1"/>
    <path fill="none" stroke="#B9CFD7" stroke-width="0.5" class="highcharts-grid-line" d="M 268.75 165 L 268.75 649" opacity="1"/>
    <path fill="none" stroke="#B9CFD7" stroke-width="0.5" class="highcharts-grid-line" d="M 337.75 165 L 337.75 649" opacity="1"/>
    <path fill="none" stroke="#B9CFD7" stroke-width="0.5" class="highcharts-grid-line" d="M 405.75 165 L 405.75 649" opacity="1"/>
    <path fill="none" stroke="#B9CFD7" stroke-width="0.5" class="highcharts-grid-line" d="M 475.25 165 L 475.25 649" opacity="1"/>
  </g>
  <rect fill="none" class="highcharts-plot-border" x="200" y="165" width="275" height="484"/>
  <g class="highcharts-axis highcharts-xaxis ">
    <path fill="none" class="highcharts-axis-line" stroke="#B9CFD7" stroke-width="0.5" d="M 199.75 165 L 199.75 649"/>
  </g>
  <g class="highcharts-axis highcharts-yaxis ">
    <path fill="none" class="highcharts-axis-line" d="M 200 649 L 475 649"/>
  </g>
  <g class="highcharts-series-group">
    <g class="highcharts-series highcharts-series-0 highcharts-column-series " transform="translate(475,649) rotate(90) scale(-1,1) scale(1 1)" clip-path="url(#a)">
      <rect x="468" y="0" width="10" height="4" fill="#C8C8C8" class="highcharts-point"/>
      <rect x="447" y="0" width="10" height="3" fill="#C8C8C8" class="highcharts-point"/>
      <rect x="426" y="0" width="10" height="7" fill="#C8C8C8" class="highcharts-point"/>
      <rect x="405" y="0" width="10" height="2" fill="#C8C8C8" class="highcharts-point"/>
      <rect x="384" y="0" width="10" height="2" fill="#C8C8C8" class="highcharts-point"/>
      <rect x="363" y="0" width="10" height="15" fill="#C8C8C8" class="highcharts-point"/>
      <rect x="342" y="0" width="10" height="2" fill="#C8C8C8" class="highcharts-point"/>
      <rect x="321" y="0" width="10" height="4" fill="#C8C8C8" class="highcharts-point"/>
      <rect x="300" y="0" width="10" height="8" fill="#C8C8C8" class="highcharts-point"/>
      <rect x="279" y="0" width="10" height="26" fill="#C8C8C8" class="highcharts-point"/>
      <rect x="258" y="0" width="10" height="16" fill="#C8C8C8" class="highcharts-point"/>
      <rect x="237" y="0" width="10" height="8" fill="#C8C8C8" class="highcharts-point"/>
      <rect x="216" y="0" width="10" height="2" fill="#C8C8C8" class="highcharts-point"/>
      <rect x="195" y="0" width="10" height="3" fill="#C8C8C8" class="highcharts-point"/>
      <rect x="174" y="0" width="10" height="2" fill="#C8C8C8" class="highcharts-point"/>
      <rect x="153" y="0" width="10" height="55" fill="#C8C8C8" class="highcharts-point"/>
      <rect x="132" y="0" width="10" height="55" fill="#C8C8C8" class="highcharts-point"/>
      <rect x="111" y="0" width="10" height="71" fill="#C8C8C8" class="highcharts-point"/>
      <rect x="90" y="0" width="10" height="81" fill="#C8C8C8" class="highcharts-point"/>
      <rect x="69" y="0" width="10" height="72" fill="#C8C8C8" class="highcharts-point"/>
      <rect x="48" y="0" width="10" height="116" fill="#C8C8C8" class="highcharts-point"/>
      <rect x="27" y="0" width="10" height="41" fill="#C8C8C8" class="highcharts-point"/>
      <rect x="6" y="0" width="10" height="75" fill="#C8C8C8" class="highcharts-point"/>
    </g>
    <g class="highcharts-markers highcharts-series-0 highcharts-column-series " transform="translate(475,649) rotate(90) scale(-1,1) scale(1 1)" clip-path="none"/>
    <g class="highcharts-series highcharts-series-1 highcharts-column-series " transform="translate(475,649) rotate(90) scale(-1,1) scale(1 1)" clip-path="url(#a)">
      <rect x="468" y="4" width="10" height="0" fill="#CD9C00" class="highcharts-point"/>
      <rect x="447" y="3" width="10" height="1" fill="#CD9C00" class="highcharts-point"/>
      <rect x="426" y="7" width="10" height="1" fill="#CD9C00" class="highcharts-point"/>
      <rect x="405" y="2" width="10" height="5" fill="#CD9C00" class="highcharts-point"/>
      <rect x="384" y="2" width="10" height="3" fill="#CD9C00" class="highcharts-point"/>
      <rect x="363" y="15" width="10" height="1" fill="#CD9C00" class="highcharts-point"/>
      <rect x="342" y="2" width="10" height="3" fill="#CD9C00" class="highcharts-point"/>
      <rect x="321" y="4" width="10" height="4" fill="#CD9C00" class="highcharts-point"/>
      <rect x="300" y="8" width="10" height="4" fill="#CD9C00" class="highcharts-point"/>
      <rect x="279" y="26" width="10" height="2" fill="#CD9C00" class="highcharts-point"/>
      <rect x="258" y="16" width="10" height="4" fill="#CD9C00" class="highcharts-point"/>
      <rect x="237" y="8" width="10" height="6" fill="#CD9C00" class="highcharts-point"/>
      <rect x="216" y="2" width="10" height="12" fill="#CD9C00" class="highcharts-point"/>
      <rect x="195" y="3" width="10" height="10" fill="#CD9C00" class="highcharts-point"/>
      <rect x="174" y="2" width="10" height="10" fill="#CD9C00" class="highcharts-point"/>
      <rect x="153" y="55" width="10" height="1" fill="#CD9C00" class="highcharts-point"/>
      <rect x="132" y="55" width="10" height="2" fill="#CD9C00" class="highcharts-point"/>
      <rect x="111" y="71" width="10" height="5" fill="#CD9C00" class="highcharts-point"/>
      <rect x="90" y="81" width="10" height="2" fill="#CD9C00" class="highcharts-point"/>
      <rect x="69" y="72" width="10" height="3" fill="#CD9C00" class="highcharts-point"/>
      <rect x="48" y="116" width="10" height="1" fill="#CD9C00" class="highcharts-point"/>
      <rect x="27" y="41" width="10" height="16" fill="#CD9C00" class="highcharts-point"/>
      <rect x="6" y="75" width="10" height="45" fill="#CD9C00" class="highcharts-point"/>
    </g>
    <g class="highcharts-markers highcharts-series-1 highcharts-column-series " transform="translate(475,649) rotate(90) scale(-1,1) scale(1 1)" clip-path="none"/>
    <g class="highcharts-series highcharts-series-2 highcharts-column-series " transform="translate(475,649) rotate(90) scale(-1,1) scale(1 1)" clip-path="url(#a)">
      <rect x="468" y="4" width="10" height="9" fill="#FABD24" class="highcharts-point"/>
      <rect x="447" y="4" width="10" height="10" fill="#FABD24" class="highcharts-point"/>
      <rect x="426" y="8" width="10" height="8" fill="#FABD24" class="highcharts-point"/>
      <rect x="405" y="7" width="10" height="16" fill="#FABD24" class="highcharts-point"/>
      <rect x="384" y="5" width="10" height="20" fill="#FABD24" class="highcharts-point"/>
      <rect x="363" y="16" width="10" height="13" fill="#FABD24" class="highcharts-point"/>
      <rect x="342" y="5" width="10" height="27" fill="#FABD24" class="highcharts-point"/>
      <rect x="321" y="8" width="10" height="32" fill="#FABD24" class="highcharts-point"/>
      <rect x="300" y="12" width="10" height="33" fill="#FABD24" class="highcharts-point"/>
      <rect x="279" y="28" width="10" height="21" fill="#FABD24" class="highcharts-point"/>
      <rect x="258" y="20" width="10" height="30" fill="#FABD24" class="highcharts-point"/>
      <rect x="237" y="14" width="10" height="41" fill="#FABD24" class="highcharts-point"/>
      <rect x="216" y="14" width="10" height="43" fill="#FABD24" class="highcharts-point"/>
      <rect x="195" y="13" width="10" height="53" fill="#FABD24" class="highcharts-point"/>
      <rect x="174" y="12" width="10" height="58" fill="#FABD24" class="highcharts-point"/>
      <rect x="153" y="56" width="10" height="20" fill="#FABD24" class="highcharts-point"/>
      <rect x="132" y="57" width="10" height="20" fill="#FABD24" class="highcharts-point"/>
      <rect x="111" y="76" width="10" height="41" fill="#FABD24" class="highcharts-point"/>
      <rect x="90" y="83" width="10" height="35" fill="#FABD24" class="highcharts-point"/>
      <rect x="69" y="75" width="10" height="49" fill="#FABD24" class="highcharts-point"/>
      <rect x="48" y="117" width="10" height="19" fill="#FABD24" class="highcharts-point"/>
      <rect x="27" y="57" width="10" height="80" fill="#FABD24" class="highcharts-point"/>
      <rect x="6" y="120" width="10" height="59" fill="#FABD24" class="highcharts-point"/>
    </g>
    <g class="highcharts-markers highcharts-series-2 highcharts-column-series " transform="translate(475,649) rotate(90) scale(-1,1) scale(1 1)" clip-path="none"/>
    <g class="highcharts-series highcharts-series-3 highcharts-column-series " transform="translate(475,649) rotate(90) scale(-1,1) scale(1 1)" clip-path="url(#a)">
      <rect x="468" y="13" width="10" height="126" fill="#73B97C" class="highcharts-point"/>
      <rect x="447" y="14" width="10" height="73" fill="#73B97C" class="highcharts-point"/>
      <rect x="426" y="16" width="10" height="118" fill="#73B97C" class="highcharts-point"/>
      <rect x="405" y="23" width="10" height="118" fill="#73B97C" class="highcharts-point"/>
      <rect x="384" y="25" width="10" height="114" fill="#73B97C" class="highcharts-point"/>
      <rect x="363" y="29" width="10" height="127" fill="#73B97C" class="highcharts-point"/>
      <rect x="342" y="32" width="10" height="116" fill="#73B97C" class="highcharts-point"/>
      <rect x="321" y="40" width="10" height="169" fill="#73B97C" class="highcharts-point"/>
      <rect x="300" y="45" width="10" height="167" fill="#73B97C" class="highcharts-point"/>
      <rect x="279" y="49" width="10" height="154" fill="#73B97C" class="highcharts-point"/>
      <rect x="258" y="50" width="10" height="167" fill="#73B97C" class="highcharts-point"/>
      <rect x="237" y="55" width="10" height="169" fill="#73B97C" class="highcharts-point"/>
      <rect x="216" y="57" width="10" height="138" fill="#73B97C" class="highcharts-point"/>
      <rect x="195" y="66" width="10" height="152" fill="#73B97C" class="highcharts-point"/>
      <rect x="174" y="70" width="10" height="128" fill="#73B97C" class="highcharts-point"/>
      <rect x="153" y="76" width="10" height="149" fill="#73B97C" class="highcharts-point"/>
      <rect x="132" y="77" width="10" height="119" fill="#73B97C" class="highcharts-point"/>
      <rect x="111" y="117" width="10" height="128" fill="#73B97C" class="highcharts-point"/>
      <rect x="90" y="118" width="10" height="123" fill="#73B97C" class="highcharts-point"/>
      <rect x="69" y="124" width="10" height="124" fill="#73B97C" class="highcharts-point"/>
      <rect x="48" y="136" width="10" height="92" fill="#73B97C" class="highcharts-point"/>
      <rect x="27" y="137" width="10" height="109" fill="#73B97C" class="highcharts-point"/>
      <rect x="6" y="179" width="10" height="74" fill="#73B97C" class="highcharts-point"/>
    </g>
    <g class="highcharts-markers highcharts-series-3 highcharts-column-series " transform="translate(475,649) rotate(90) scale(-1,1) scale(1 1)" clip-path="none"/>
    <g class="highcharts-series highcharts-series-4 highcharts-column-series " transform="translate(475,649) rotate(90) scale(-1,1) scale(1 1)" clip-path="url(#a)">
      <rect x="468" y="139" width="10" height="137" fill="#007A2F" class="highcharts-point"/>
      <rect x="447" y="87" width="10" height="189" fill="#007A2F" class="highcharts-point"/>
      <rect x="426" y="134" width="10" height="142" fill="#007A2F" class="highcharts-point"/>
      <rect x="405" y="141" width="10" height="135" fill="#007A2F" class="highcharts-point"/>
      <rect x="384" y="139" width="10" height="137" fill="#007A2F" class="highcharts-point"/>
      <rect x="363" y="156" width="10" height="120" fill="#007A2F" class="highcharts-point"/>
      <rect x="342" y="148" width="10" height="128" fill="#007A2F" class="highcharts-point"/>
      <rect x="321" y="209" width="10" height="67" fill="#007A2F" class="highcharts-point"/>
      <rect x="300" y="212" width="10" height="64" fill="#007A2F" class="highcharts-point"/>
      <rect x="279" y="203" width="10" height="73" fill="#007A2F" class="highcharts-point"/>
      <rect x="258" y="217" width="10" height="59" fill="#007A2F" class="highcharts-point"/>
      <rect x="237" y="224" width="10" height="52" fill="#007A2F" class="highcharts-point"/>
      <rect x="216" y="195" width="10" height="81" fill="#007A2F" class="highcharts-point"/>
      <rect x="195" y="218" width="10" height="58" fill="#007A2F" class="highcharts-point"/>
      <rect x="174" y="198" width="10" height="78" fill="#007A2F" class="highcharts-point"/>
      <rect x="153" y="225" width="10" height="51" fill="#007A2F" class="highcharts-point"/>
      <rect x="132" y="196" width="10" height="80" fill="#007A2F" class="highcharts-point"/>
      <rect x="111" y="245" width="10" height="31" fill="#007A2F" class="highcharts-point"/>
      <rect x="90" y="241" width="10" height="35" fill="#007A2F" class="highcharts-point"/>
      <rect x="69" y="248" width="10" height="28" fill="#007A2F" class="highcharts-point"/>
      <rect x="48" y="228" width="10" height="48" fill="#007A2F" class="highcharts-point"/>
      <rect x="27" y="246" width="10" height="30" fill="#007A2F" class="highcharts-point"/>
      <rect x="6" y="253" width="10" height="23" fill="#007A2F" class="highcharts-point"/>
    </g>
    <g class="highcharts-markers highcharts-series-4 highcharts-column-series " transform="translate(475,649) rotate(90) scale(-1,1) scale(1 1)" clip-path="none"/>
  </g>
  <text x="10" text-anchor="start" class="highcharts-title" style="color:#000000;font-size:14px;font-weight:bold;fill:#000000;" y="21">
    <tspan>Zufriedenheit mit verschiedenen Aspekten am Wohnort</tspan>
  </text>
  <text x="10" text-anchor="start" class="highcharts-subtitle" style="color:#000000;font-size:12px;fill:#000000;" y="40">
    <tspan>Stand: 2015</tspan><tspan x="10" dy="15">«Wie zufrieden sind Sie mit den folgenden Aspekten an ihrem Wohnort?»</tspan>
  </text>
  <g class="highcharts-legend" transform="translate(192,70)">
    <rect fill="none" class="highcharts-legend-box" rx="0" ry="0" x="0" y="0" width="256" height="83" visibility="visible"/>
    <g>
      <g>
        <g class="highcharts-legend-item highcharts-column-series highcharts-color-undefined highcharts-series-4" transform="translate(8,3)">
          <text x="21" style="color:#333333;font-size:12px;font-weight:normal;cursor:pointer;fill:#333333;" text-anchor="start" y="15">
            <tspan>Sehr zufrieden</tspan>
          </text>
          <rect x="2" y="4" width="12" height="12" fill="#007A2F" class="highcharts-point"/>
        </g>
        <g class="highcharts-legend-item highcharts-column-series highcharts-color-undefined highcharts-series-3" transform="translate(138,3)">
          <text x="21" y="15" style="color:#333333;font-size:12px;font-weight:normal;cursor:pointer;fill:#333333;" text-anchor="start">
            <tspan>Eher zufrieden</tspan>
          </text>
          <rect x="2" y="4" width="12" height="12" fill="#73B97C" class="highcharts-point"/>
        </g>
        <g class="highcharts-legend-item highcharts-column-series highcharts-color-undefined highcharts-series-2" transform="translate(8,22)">
          <text x="21" y="15" style="color:#333333;font-size:12px;font-weight:normal;cursor:pointer;fill:#333333;" text-anchor="start">
            <tspan>Eher</tspan><tspan dy="15" x="21">unzufrieden</tspan><title>Eher unzufrieden</title>
          </text>
          <rect x="2" y="4" width="12" height="12" fill="#FABD24" class="highcharts-point"/>
        </g>
        <g class="highcharts-legend-item highcharts-column-series highcharts-color-undefined highcharts-series-1" transform="translate(138,22)">
          <text x="21" y="15" style="color:#333333;font-size:12px;font-weight:normal;cursor:pointer;fill:#333333;" text-anchor="start">
            <tspan>Ganz</tspan><tspan dy="15" x="21">unzufrieden</tspan><title>Ganz unzufrieden</title>
          </text>
          <rect x="2" y="4" width="12" height="12" fill="#CD9C00" class="highcharts-point"/>
        </g>
        <g class="highcharts-legend-item highcharts-column-series highcharts-color-undefined highcharts-series-0" transform="translate(8,56)">
          <text x="21" y="15" style="color:#333333;font-size:12px;font-weight:normal;cursor:pointer;fill:#333333;" text-anchor="start">
            <tspan>keine Angaben</tspan>
          </text>
          <rect x="2" y="4" width="12" height="12" fill="#C8C8C8" class="highcharts-point"/>
        </g>
      </g>
    </g>
  </g>
  <g class="highcharts-axis-labels highcharts-xaxis-labels ">
    <text x="10" style="color:#000000;cursor:default;font-size:11px;white-space:nowrap;fill:#000000;" text-anchor="start" transform="translate(0,0)" y="180" opacity="1">
      <tspan>Einkaufsmögl. in Basel (N=1498)</tspan>
    </text>
    <text x="10" style="color:#000000;cursor:default;font-size:11px;white-space:nowrap;fill:#000000;" text-anchor="start" transform="translate(0,0)" y="201" opacity="1">
      <tspan>ÖV-Angebot (N=1502)</tspan>
    </text>
    <text x="10" style="color:#000000;cursor:default;font-size:11px;white-space:nowrap;fill:#000000;" text-anchor="start" transform="translate(0,0)" y="222" opacity="1">
      <tspan>Gesundheitsversorgung (N=1503)</tspan>
    </text>
    <text x="10" style="color:#000000;cursor:default;font-size:11px;white-space:nowrap;fill:#000000;" text-anchor="start" transform="translate(0,0)" y="243" opacity="1">
      <tspan>Abfallbeseitigung (N=1502)</tspan>
    </text>
    <text x="10" style="color:#000000;cursor:default;font-size:11px;white-space:nowrap;fill:#000000;" text-anchor="start" transform="translate(0,0)" y="264" opacity="1">
      <tspan>Grünanlagen (N=1504)</tspan>
    </text>
    <text x="10" style="color:#000000;cursor:default;font-size:11px;white-space:nowrap;fill:#000000;" text-anchor="start" transform="translate(0,0)" y="285" opacity="1">
      <tspan>Kulturangebot (N=1495)</tspan>
    </text>
    <text x="10" style="color:#000000;cursor:default;font-size:11px;white-space:nowrap;fill:#000000;" text-anchor="start" transform="translate(0,0)" y="306" opacity="1">
      <tspan>Einkaufsmögl. im Quartier (N=1503)</tspan>
    </text>
    <text x="10" style="color:#000000;cursor:default;font-size:11px;white-space:nowrap;fill:#000000;" text-anchor="start" transform="translate(0,0)" y="327" opacity="1">
      <tspan>Verkehrssicherheit (N=1501)</tspan>
    </text>
    <text x="10" style="color:#000000;cursor:default;font-size:11px;white-space:nowrap;fill:#000000;" text-anchor="start" transform="translate(0,0)" y="348" opacity="1">
      <tspan>Gebäude/Strassenbild (N=1489)</tspan>
    </text>
    <text x="10" style="color:#000000;cursor:default;font-size:11px;white-space:nowrap;fill:#000000;" text-anchor="start" transform="translate(0,0)" y="369" opacity="1">
      <tspan>Quartierleben (N=1483)</tspan>
    </text>
    <text x="10" style="color:#000000;cursor:default;font-size:11px;white-space:nowrap;fill:#000000;" text-anchor="start" transform="translate(0,0)" y="390" opacity="1">
      <tspan>Zusammensetz. Bev. (N=1458)</tspan>
    </text>
    <text x="10" style="color:#000000;cursor:default;font-size:11px;white-space:nowrap;fill:#000000;" text-anchor="start" transform="translate(0,0)" y="411" opacity="1">
      <tspan>Luftqualität (N=1505)</tspan>
    </text>
    <text x="10" style="color:#000000;cursor:default;font-size:11px;white-space:nowrap;fill:#000000;" text-anchor="start" transform="translate(0,0)" y="433" opacity="1">
      <tspan>Lärmsituation (N=1497)</tspan>
    </text>
    <text x="10" style="color:#000000;cursor:default;font-size:11px;white-space:nowrap;fill:#000000;" text-anchor="start" transform="translate(0,0)" y="454" opacity="1">
      <tspan>Öffentliche Sicherheit (N=1500)</tspan>
    </text>
    <text x="10" style="color:#000000;cursor:default;font-size:11px;white-space:nowrap;fill:#000000;" text-anchor="start" transform="translate(0,0)" y="475" opacity="1">
      <tspan>Sauberkeit (N=1504)</tspan>
    </text>
    <text x="10" style="color:#000000;cursor:default;font-size:11px;white-space:nowrap;fill:#000000;" text-anchor="start" transform="translate(0,0)" y="496" opacity="1">
      <tspan>Senioreneinrichtungen (N=1485)</tspan>
    </text>
    <text x="10" style="color:#000000;cursor:default;font-size:11px;white-space:nowrap;fill:#000000;" text-anchor="start" transform="translate(0,0)" y="517" opacity="1">
      <tspan>Schule, Bildung (N=1339)</tspan>
    </text>
    <text x="10" style="color:#000000;cursor:default;font-size:11px;white-space:nowrap;fill:#000000;" text-anchor="start" transform="translate(0,0)" y="538" opacity="1">
      <tspan>Arbeitsplatzangebot (N=1383)</tspan>
    </text>
    <text x="10" style="color:#000000;cursor:default;font-size:11px;white-space:nowrap;fill:#000000;" text-anchor="start" transform="translate(0,0)" y="559" opacity="1">
      <tspan>Behinderteneinrichtungen (N=1477)</tspan>
    </text>
    <text x="10" style="color:#000000;cursor:default;font-size:11px;white-space:nowrap;fill:#000000;" text-anchor="start" transform="translate(0,0)" y="580" opacity="1">
      <tspan>Jugendeinrichtungen (N=1470)</tspan>
    </text>
    <text x="10" style="color:#000000;cursor:default;font-size:11px;white-space:nowrap;fill:#000000;" text-anchor="start" transform="translate(0,0)" y="601" opacity="1">
      <tspan>Kinderbetreuung (N=1035)</tspan>
    </text>
    <text x="10" style="color:#000000;cursor:default;font-size:11px;white-space:nowrap;fill:#000000;" text-anchor="start" transform="translate(0,0)" y="622" opacity="1">
      <tspan>Wohnungsangebot (N=1386)</tspan>
    </text>
    <text x="10" style="color:#000000;cursor:default;font-size:11px;white-space:nowrap;fill:#000000;" text-anchor="start" transform="translate(0,0)" y="643" opacity="1">
      <tspan>Parkplätze (N=1402)</tspan>
    </text>
  </g>
  <g class="highcharts-axis-labels highcharts-yaxis-labels ">
    <text x="200" style="color:#000000;cursor:default;font-size:11px;fill:#000000;" text-anchor="middle" transform="translate(0,0)" y="668" opacity="1">
      0%
    </text>
    <text x="268.75" style="color:#000000;cursor:default;font-size:11px;fill:#000000;" text-anchor="middle" transform="translate(0,0)" y="668" opacity="1">
      25%
    </text>
    <text x="337.5" style="color:#000000;cursor:default;font-size:11px;fill:#000000;" text-anchor="middle" transform="translate(0,0)" y="668" opacity="1">
      50%
    </text>
    <text x="406.25" style="color:#000000;cursor:default;font-size:11px;fill:#000000;" text-anchor="middle" transform="translate(0,0)" y="668" opacity="1">
      75%
    </text>
    <text x="460.953125" style="color:#000000;cursor:default;font-size:11px;fill:#000000;" text-anchor="middle" transform="translate(0,0)" y="668" opacity="1">
      100%
    </text>
  </g>
  <text x="10" class="highcharts-credits" text-anchor="start" style="cursor:default;color:#000000;font-size:10px;fill:#000000;" y="685">
    <tspan>Quelle: Bevölkerungsbefragung Basel-Stadt 2015, Frage F6</tspan>
  </text>
</svg>
