<?xml version="1.0" standalone="no"?>
<!DOCTYPE svg PUBLIC "-//W3C//DTD SVG 1.1//EN" "http://www.w3.org/Graphics/SVG/1.1/DTD/svg11.dtd">
<svg xmlns:xlink="http://www.w3.org/1999/xlink" version="1.1" class="highcharts-root" style="font-family:arial;font-size:12px;" xmlns="http://www.w3.org/2000/svg" viewBox="0 0 485 415">
  <desc>
    Created with Highstock 5.0.14
  </desc>
  <defs>
    <clipPath>
      <rect x="0" y="0" width="428" height="248" fill="none"/>
    </clipPath>
    <clipPath id="a">
      <rect x="0" y="0" width="428" height="248" fill="none"/>
    </clipPath>
  </defs>
  <rect fill="#fbfbfb" class="highcharts-background" x="0" y="0" width="485" height="415" rx="0" ry="0"/>
  <rect fill="none" class="highcharts-plot-background" x="47" y="101" width="428" height="248"/>
  <g class="highcharts-pane-group"/>
  <g class="highcharts-grid highcharts-xaxis-grid ">
    <path fill="none" class="highcharts-grid-line" d="M 50.5 101 L 50.5 349" opacity="1"/>
    <path fill="none" class="highcharts-grid-line" d="M 120.5 101 L 120.5 349" opacity="1"/>
    <path fill="none" class="highcharts-grid-line" d="M 190.5 101 L 190.5 349" opacity="1"/>
    <path fill="none" class="highcharts-grid-line" d="M 260.5 101 L 260.5 349" opacity="1"/>
    <path fill="none" class="highcharts-grid-line" d="M 330.5 101 L 330.5 349" opacity="1"/>
    <path fill="none" class="highcharts-grid-line" d="M 400.5 101 L 400.5 349" opacity="1"/>
    <path fill="none" class="highcharts-grid-line" d="M 470.5 101 L 470.5 349" opacity="1"/>
  </g>
  <g class="highcharts-grid highcharts-yaxis-grid ">
    <path fill="none" stroke="#B9CFD7" stroke-width="0.5" class="highcharts-grid-line" d="M 47 349.25 L 475 349.25" opacity="1"/>
    <path fill="none" stroke="#B9CFD7" stroke-width="0.5" class="highcharts-grid-line" d="M 47 287.25 L 475 287.25" opacity="1"/>
    <path fill="none" stroke="#B9CFD7" stroke-width="0.5" class="highcharts-grid-line" d="M 47 225.25 L 475 225.25" opacity="1"/>
    <path fill="none" stroke="#B9CFD7" stroke-width="0.5" class="highcharts-grid-line" d="M 47 163.25 L 475 163.25" opacity="1"/>
    <path fill="none" stroke="#B9CFD7" stroke-width="0.5" class="highcharts-grid-line" d="M 47 100.75 L 475 100.75" opacity="1"/>
  </g>
  <rect fill="none" class="highcharts-plot-border" x="47" y="101" width="428" height="248"/>
  <g class="highcharts-axis highcharts-xaxis ">
    <path fill="none" class="highcharts-axis-line" stroke="#B9CFD7" stroke-width="0.5" d="M 47 349.25 L 475 349.25"/>
  </g>
  <g class="highcharts-axis highcharts-yaxis ">
    <path fill="none" class="highcharts-axis-line" d="M 47 101 L 47 349"/>
  </g>
  <g class="highcharts-series-group">
    <g class="highcharts-series highcharts-series-0 highcharts-line-series highcharts-color-undefined " transform="translate(47,101) scale(1 1)" clip-path="url(#a)">
      <path fill="none" d="M 4.1960784313688 233.12 L 74.130718954246 229.4 L 144.06535947712 226.92000000000002 L 214 224.44 L 283.93464052288 223.2 L 353.86928104575 220.72 L 423.80392156863 219.48" class="highcharts-graph" stroke="#008AC3" stroke-width="2" stroke-linejoin="round" stroke-linecap="round"/>
    </g>
    <g class="highcharts-markers highcharts-series-0 highcharts-line-series highcharts-color-undefined " transform="translate(47,101) scale(1 1)" clip-path="none">
      <path fill="#008AC3" d="M 8 233 A 4 4 0 1 1 7.999998000000167 232.99600000066667 Z" class="highcharts-point"/>
      <path fill="#008AC3" d="M 78 229 A 4 4 0 1 1 77.99999800000016 228.99600000066667 Z" class="highcharts-point"/>
      <path fill="#008AC3" d="M 148 227 A 4 4 0 1 1 147.99999800000018 226.99600000066667 Z" class="highcharts-point"/>
      <path fill="#008AC3" d="M 218 224 A 4 4 0 1 1 217.99999800000018 223.99600000066667 Z" class="highcharts-point"/>
      <path fill="#008AC3" d="M 287 223 A 4 4 0 1 1 286.9999980000002 222.99600000066667 Z" class="highcharts-point"/>
      <path fill="#008AC3" d="M 357 221 A 4 4 0 1 1 356.9999980000002 220.99600000066667 Z" class="highcharts-point"/>
      <path fill="#008AC3" d="M 427 219 A 4 4 0 1 1 426.9999980000002 218.99600000066667 Z" class="highcharts-point"/>
    </g>
    <g class="highcharts-series highcharts-series-1 highcharts-line-series highcharts-color-undefined " transform="translate(47,101) scale(1 1)" clip-path="url(#a)">
      <path fill="none" d="M 4.1960784313688 73.16 L 74.130718954246 71.92000000000002 L 144.06535947712 71.92000000000002 L 214 71.92000000000002 L 283.93464052288 74.4 L 353.86928104575 68.19999999999999 L 423.80392156863 65.72" class="highcharts-graph" stroke="#007A2F" stroke-width="2" stroke-linejoin="round" stroke-linecap="round"/>
    </g>
    <g class="highcharts-markers highcharts-series-1 highcharts-line-series highcharts-color-undefined " transform="translate(47,101) scale(1 1)" clip-path="none">
      <path fill="#007A2F" d="M 8 73 A 4 4 0 1 1 7.999998000000167 72.99600000066667 Z" class="highcharts-point"/>
      <path fill="#007A2F" d="M 78 72 A 4 4 0 1 1 77.99999800000016 71.99600000066667 Z" class="highcharts-point"/>
      <path fill="#007A2F" d="M 148 72 A 4 4 0 1 1 147.99999800000018 71.99600000066667 Z" class="highcharts-point"/>
      <path fill="#007A2F" d="M 218 72 A 4 4 0 1 1 217.99999800000018 71.99600000066667 Z" class="highcharts-point"/>
      <path fill="#007A2F" d="M 287 74 A 4 4 0 1 1 286.9999980000002 73.99600000066667 Z" class="highcharts-point"/>
      <path fill="#007A2F" d="M 357 68 A 4 4 0 1 1 356.9999980000002 67.99600000066667 Z" class="highcharts-point"/>
      <path fill="#007A2F" d="M 427 66 A 4 4 0 1 1 426.9999980000002 65.99600000066667 Z" class="highcharts-point"/>
    </g>
  </g>
  <text x="10" text-anchor="start" class="highcharts-title" style="color:#000000;font-size:14px;font-weight:bold;fill:#000000;" y="21">
    <tspan>Anteil Haushalte mit FAMI resp. reiner Prämienverbilligung</tspan>
  </text>
  <g class="highcharts-legend" transform="translate(39,35)">
    <rect fill="none" class="highcharts-legend-box" rx="0" ry="0" x="0" y="0" width="496" height="54" visibility="visible"/>
    <g>
      <g>
        <g class="highcharts-legend-item highcharts-line-series highcharts-color-undefined highcharts-series-0" transform="translate(8,8)">
          <path fill="none" d="M 0 11 L 16 11" class="highcharts-graph" stroke="#008AC3" stroke-width="2"/>
          <path fill="#008AC3" d="M 12 11 A 4 4 0 1 1 11.999998000000167 10.996000000666664 Z" class="highcharts-point"/>
          <text x="21" style="color:#333333;font-size:12px;font-weight:normal;cursor:pointer;fill:#333333;" text-anchor="start" y="15">
            <tspan>Familienmietzinsbeiträge</tspan>
          </text>
        </g>
        <g class="highcharts-legend-item highcharts-line-series highcharts-color-undefined highcharts-series-1" transform="translate(8,27)">
          <path fill="none" d="M 0 11 L 16 11" class="highcharts-graph" stroke="#007A2F" stroke-width="2"/>
          <path fill="#007A2F" d="M 12 11 A 4 4 0 1 1 11.999998000000167 10.996000000666664 Z" class="highcharts-point"/>
          <text x="21" y="15" style="color:#333333;font-size:12px;font-weight:normal;cursor:pointer;fill:#333333;" text-anchor="start">
            <tspan>Prämienverbilligung</tspan>
          </text>
        </g>
      </g>
    </g>
  </g>
  <g class="highcharts-axis-labels highcharts-xaxis-labels ">
    <text x="51.196078431368804" style="color:#000000;cursor:default;font-size:11px;fill:#000000;" text-anchor="middle" transform="translate(0,0)" y="368" opacity="1">
      2011
    </text>
    <text x="121.13071895424586" style="color:#000000;cursor:default;font-size:11px;fill:#000000;" text-anchor="middle" transform="translate(0,0)" y="368" opacity="1">
      2012
    </text>
    <text x="191.06535947712294" style="color:#000000;cursor:default;font-size:11px;fill:#000000;" text-anchor="middle" transform="translate(0,0)" y="368" opacity="1">
      2013
    </text>
    <text x="261" style="color:#000000;cursor:default;font-size:11px;fill:#000000;" text-anchor="middle" transform="translate(0,0)" y="368" opacity="1">
      2014
    </text>
    <text x="330.93464052287703" style="color:#000000;cursor:default;font-size:11px;fill:#000000;" text-anchor="middle" transform="translate(0,0)" y="368" opacity="1">
      2015
    </text>
    <text x="400.8692810457541" style="color:#000000;cursor:default;font-size:11px;fill:#000000;" text-anchor="middle" transform="translate(0,0)" y="368" opacity="1">
      2016
    </text>
    <text x="462.78125" style="color:#000000;cursor:default;font-size:11px;fill:#000000;" text-anchor="middle" transform="translate(0,0)" y="368" opacity="1">
      2017
    </text>
  </g>
  <g class="highcharts-axis-labels highcharts-yaxis-labels ">
    <text x="32" style="color:#000000;cursor:default;font-size:11px;fill:#000000;" text-anchor="end" transform="translate(0,0)" y="354" opacity="1">
      <tspan>0%</tspan>
    </text>
    <text x="32" style="color:#000000;cursor:default;font-size:11px;fill:#000000;" text-anchor="end" transform="translate(0,0)" y="292" opacity="1">
      <tspan>5%</tspan>
    </text>
    <text x="32" style="color:#000000;cursor:default;font-size:11px;fill:#000000;" text-anchor="end" transform="translate(0,0)" y="230" opacity="1">
      <tspan>10%</tspan>
    </text>
    <text x="32" style="color:#000000;cursor:default;font-size:11px;fill:#000000;" text-anchor="end" transform="translate(0,0)" y="168" opacity="1">
      <tspan>15%</tspan>
    </text>
    <text x="32" style="color:#000000;cursor:default;font-size:11px;fill:#000000;" text-anchor="end" transform="translate(0,0)" y="106" opacity="1">
      <tspan>20%</tspan>
    </text>
  </g>
  <text x="10" class="highcharts-credits" text-anchor="start" style="cursor:default;color:#000000;font-size:10px;fill:#000000;" y="390">
    <tspan>Quelle: Statistisches Amt Basel-Stadt, Bevölkerungsstatistik;</tspan><tspan x="10" dy="13">Basler Informationssystem Sozialleistungen (BISS)</tspan>
  </text>
</svg>
