<?xml version="1.0" standalone="no"?><!DOCTYPE svg PUBLIC "-//W3C//DTD SVG 1.1//EN" "http://www.w3.org/Graphics/SVG/1.1/DTD/svg11.dtd"><svg xmlns:xlink="http://www.w3.org/1999/xlink" version="1.1" class="highcharts-root" style="font-family:Arial;font-size:12px;" xmlns="http://www.w3.org/2000/svg" viewBox="0 0 485 415"><desc>Created with Highcharts 7.2.0</desc><defs><clipPath id="highcharts-8yj130c-146-"><rect x="0" y="0" width="428" height="234" fill="none"></rect></clipPath><clipPath id="highcharts-8yj130c-157-"><rect x="0" y="0" width="428" height="234" fill="none"></rect></clipPath></defs><rect fill="#fbfbfb" class="highcharts-background" x="0" y="0" width="485" height="428" rx="0" ry="0"></rect><rect fill="none" class="highcharts-plot-background" x="47" y="116" width="428" height="234"></rect><g class="highcharts-pane-group" data-z-index="0"></g><g class="highcharts-grid highcharts-xaxis-grid" data-z-index="1"><path fill="none" data-z-index="1" class="highcharts-grid-line" d="M 50.5 116 L 50.5 350" opacity="1"></path><path fill="none" data-z-index="1" class="highcharts-grid-line" d="M 97.5 116 L 97.5 350" opacity="1"></path><path fill="none" data-z-index="1" class="highcharts-grid-line" d="M 143.5 116 L 143.5 350" opacity="1"></path><path fill="none" data-z-index="1" class="highcharts-grid-line" d="M 190.5 116 L 190.5 350" opacity="1"></path><path fill="none" data-z-index="1" class="highcharts-grid-line" d="M 237.5 116 L 237.5 350" opacity="1"></path><path fill="none" data-z-index="1" class="highcharts-grid-line" d="M 283.5 116 L 283.5 350" opacity="1"></path><path fill="none" data-z-index="1" class="highcharts-grid-line" d="M 330.5 116 L 330.5 350" opacity="1"></path><path fill="none" data-z-index="1" class="highcharts-grid-line" d="M 377.5 116 L 377.5 350" opacity="1"></path><path fill="none" data-z-index="1" class="highcharts-grid-line" d="M 423.5 116 L 423.5 350" opacity="1"></path><path fill="none" data-z-index="1" class="highcharts-grid-line" d="M 470.5 116 L 470.5 350" opacity="1"></path></g><g class="highcharts-grid highcharts-yaxis-grid" data-z-index="1"><path fill="none" stroke="#B9CFD7" stroke-width="0.5" data-z-index="1" class="highcharts-grid-line" d="M 47 350.25 L 475 350.25" opacity="1"></path><path fill="none" stroke="#B9CFD7" stroke-width="0.5" data-z-index="1" class="highcharts-grid-line" d="M 47 272.25 L 475 272.25" opacity="1"></path><path fill="none" stroke="#B9CFD7" stroke-width="0.5" data-z-index="1" class="highcharts-grid-line" d="M 47 194.25 L 475 194.25" opacity="1"></path><path fill="none" stroke="#B9CFD7" stroke-width="0.5" data-z-index="1" class="highcharts-grid-line" d="M 47 115.75 L 475 115.75" opacity="1"></path></g><rect fill="none" class="highcharts-plot-border" data-z-index="1" x="47" y="116" width="428" height="234"></rect><g class="highcharts-axis highcharts-xaxis" data-z-index="2"><path fill="none" class="highcharts-axis-line" stroke="#B9CFD7" stroke-width="0.5" data-z-index="7" d="M 47 350.25 L 475 350.25"></path></g><g class="highcharts-axis highcharts-yaxis" data-z-index="2"><path fill="none" class="highcharts-axis-line" data-z-index="7" d="M 47 116 L 47 350"></path></g><g class="highcharts-series-group" data-z-index="3"><g data-z-index="0.1" class="highcharts-series highcharts-series-0 highcharts-line-series " transform="translate(47,116) scale(1 1)" clip-path="url(#highcharts-8yj130c-157-)"><path fill="none" d="M 4.1960784313688 21.52800000000002 L 50.819172113287 28.23600000000002 L 97.442265795205 38.376000000000005 L 144.06535947712 30.26400000000001 L 190.68845315904 30.419999999999987 L 237.31154684096 22.77600000000001 L 283.93464052288 21.99600000000001 L 330.5577342048 26.519999999999982 L 377.18082788671 22.77600000000001" class="highcharts-graph" data-z-index="1" stroke="#B00000" stroke-width="2" stroke-linejoin="round" stroke-linecap="round"></path></g><g data-z-index="0.1" class="highcharts-markers highcharts-series-0 highcharts-line-series " transform="translate(47,116) scale(1 1)" clip-path="none"></g><g data-z-index="0.1" class="highcharts-series highcharts-series-1 highcharts-line-series " transform="translate(47,116) scale(1 1)" clip-path="url(#highcharts-8yj130c-157-)"><path fill="none" d="M 4.1960784313688 96.40799999999999 L 50.819172113287 100.93200000000002 L 97.442265795205 89.856 L 144.06535947712 77.22 L 190.68845315904 72.22800000000001 L 237.31154684096 73.32 L 283.93464052288 78.624 L 330.5577342048 80.34 L 377.18082788671 75.19200000000001" class="highcharts-graph" data-z-index="1" stroke="#007A2F" stroke-width="2" stroke-linejoin="round" stroke-linecap="round"></path></g><g data-z-index="0.1" class="highcharts-markers highcharts-series-1 highcharts-line-series " transform="translate(47,116) scale(1 1)" clip-path="none"></g><g data-z-index="0.1" class="highcharts-series highcharts-series-2 highcharts-line-series " transform="translate(47,116) scale(1 1)" clip-path="url(#highcharts-8yj130c-157-)"><path fill="none" d="M 4.1960784313688 115.128 L 50.819172113287 120.58800000000001 L 97.442265795205 125.58 L 144.06535947712 119.652 L 190.68845315904 115.28399999999999 L 237.31154684096 114.19200000000001 L 283.93464052288 120.58800000000001 L 330.5577342048 123.396 L 377.18082788671 117" class="highcharts-graph" data-z-index="1" stroke="#4f81bd" stroke-width="2" stroke-linejoin="round" stroke-linecap="round"></path></g><g data-z-index="0.1" class="highcharts-markers highcharts-series-2 highcharts-line-series " transform="translate(47,116) scale(1 1)" clip-path="none"></g><g data-z-index="0.1" class="highcharts-series highcharts-series-3 highcharts-line-series " transform="translate(47,116) scale(1 1)" clip-path="url(#highcharts-8yj130c-157-)"><path fill="none" d="M 4.1960784313688 108.41999999999999 L 50.819172113287 108.888 L 97.442265795205 111.852 L 144.06535947712 105.144 L 190.68845315904 104.67600000000002 L 237.31154684096 105.92399999999998 L 283.93464052288 106.236 L 330.5577342048 105.144 L 377.18082788671 102.96000000000001" class="highcharts-graph" data-z-index="1" stroke="#662673" stroke-width="2" stroke-linejoin="round" stroke-linecap="round"></path></g><g data-z-index="0.1" class="highcharts-markers highcharts-series-3 highcharts-line-series " transform="translate(47,116) scale(1 1)" clip-path="none"></g><g data-z-index="0.1" class="highcharts-series highcharts-series-4 highcharts-line-series " transform="translate(47,116) scale(1 1)" clip-path="url(#highcharts-8yj130c-157-)"><path fill="none" d="M 4.1960784313688 158.184 L 50.819172113287 159.58800000000002 L 97.442265795205 157.716 L 144.06535947712 151.788 L 190.68845315904 148.512 L 237.31154684096 148.824 L 283.93464052288 145.392 L 330.5577342048 138.996 L 377.18082788671 134.784" class="highcharts-graph" data-z-index="1" stroke="#7F5F1A" stroke-width="2" stroke-linejoin="round" stroke-linecap="round"></path></g><g data-z-index="0.1" class="highcharts-markers highcharts-series-4 highcharts-line-series " transform="translate(47,116) scale(1 1)" clip-path="none"></g><g data-z-index="0.1" class="highcharts-series highcharts-series-5 highcharts-line-series " transform="translate(47,116) scale(1 1)" clip-path="url(#highcharts-8yj130c-157-)"><path fill="none" d="M 4.1960784313688 230.724 L 50.819172113287 230.724 L 97.442265795205 230.88 L 144.06535947712 230.1 L 190.68845315904 230.568 L 237.31154684096 230.724 L 283.93464052288 231.036 L 330.5577342048 230.88 L 377.18082788671 230.412" class="highcharts-graph" data-z-index="1" stroke="#FABD24" stroke-width="2" stroke-linejoin="round" stroke-linecap="round"></path></g><g data-z-index="0.1" class="highcharts-markers highcharts-series-5 highcharts-line-series " transform="translate(47,116) scale(1 1)" clip-path="none"></g><g data-z-index="0.1" class="highcharts-series highcharts-series-6 highcharts-line-series " transform="translate(47,116) scale(1 1)" clip-path="url(#highcharts-8yj130c-157-)"><path fill="none" d="M 4.1960784313688 127.76400000000001 L 50.819172113287 130.416 L 97.442265795205 131.82 L 144.06535947712 125.73599999999999 L 190.68845315904 123.708 L 237.31154684096 122.61600000000001 L 283.93464052288 123.708 L 330.5577342048 123.552 L 377.18082788671 119.96400000000001" class="highcharts-graph" data-z-index="1" stroke="#3C3C3C" stroke-width="2" stroke-linejoin="round" stroke-linecap="round"></path></g><g data-z-index="0.1" class="highcharts-markers highcharts-series-6 highcharts-line-series " transform="translate(47,116) scale(1 1)" clip-path="none"></g><g data-z-index="0.1" class="highcharts-series highcharts-series-7 highcharts-line-series " transform="translate(47,116) scale(1 1)" clip-path="url(#highcharts-8yj130c-157-)"><path fill="none" d="M 423.80392156863 35.256" class="highcharts-graph" data-z-index="1" stroke="#B00000" stroke-width="2" stroke-linejoin="round" stroke-linecap="round"></path></g><g data-z-index="0.1" class="highcharts-markers highcharts-series-7 highcharts-line-series " transform="translate(47,116) scale(1 1)" clip-path="none"><path fill="#B00000" d="M 423 37 A 2 2 0 1 1 423.0019999996667 36.99999900000008 Z" opacity="1" class="highcharts-point"></path></g><g data-z-index="0.1" class="highcharts-series highcharts-series-8 highcharts-line-series " transform="translate(47,116) scale(1 1)" clip-path="url(#highcharts-8yj130c-157-)"><path fill="none" d="M 423.80392156863 80.80799999999999" class="highcharts-graph" data-z-index="1" stroke="#007A2F" stroke-width="2" stroke-linejoin="round" stroke-linecap="round"></path></g><g data-z-index="0.1" class="highcharts-markers highcharts-series-8 highcharts-line-series " transform="translate(47,116) scale(1 1)" clip-path="none"><path fill="#007A2F" d="M 423 83 A 2 2 0 1 1 423.0019999996667 82.99999900000009 Z" opacity="1" class="highcharts-point"></path></g><g data-z-index="0.1" class="highcharts-series highcharts-series-9 highcharts-line-series " transform="translate(47,116) scale(1 1)" clip-path="url(#highcharts-8yj130c-157-)"><path fill="none" d="M 423.80392156863 118.248" class="highcharts-graph" data-z-index="1" stroke="#4f81bd" stroke-width="2" stroke-linejoin="round" stroke-linecap="round"></path></g><g data-z-index="0.1" class="highcharts-markers highcharts-series-9 highcharts-line-series " transform="translate(47,116) scale(1 1)" clip-path="none"><path fill="#4f81bd" d="M 423 120 A 2 2 0 1 1 423.0019999996667 119.99999900000009 Z" opacity="1" class="highcharts-point"></path></g><g data-z-index="0.1" class="highcharts-series highcharts-series-10 highcharts-line-series " transform="translate(47,116) scale(1 1)" clip-path="url(#highcharts-8yj130c-157-)"><path fill="none" d="M 423.80392156863 106.08000000000001" class="highcharts-graph" data-z-index="1" stroke="#662673" stroke-width="2" stroke-linejoin="round" stroke-linecap="round"></path></g><g data-z-index="0.1" class="highcharts-markers highcharts-series-10 highcharts-line-series " transform="translate(47,116) scale(1 1)" clip-path="none"><path fill="#662673" d="M 423 108 A 2 2 0 1 1 423.0019999996667 107.99999900000009 Z" opacity="1" class="highcharts-point"></path></g><g data-z-index="0.1" class="highcharts-series highcharts-series-11 highcharts-line-series " transform="translate(47,116) scale(1 1)" clip-path="url(#highcharts-8yj130c-157-)"><path fill="none" d="M 423.80392156863 140.868" class="highcharts-graph" data-z-index="1" stroke="#7F5F1A" stroke-width="2" stroke-linejoin="round" stroke-linecap="round"></path></g><g data-z-index="0.1" class="highcharts-markers highcharts-series-11 highcharts-line-series " transform="translate(47,116) scale(1 1)" clip-path="none"><path fill="#7F5F1A" d="M 423 143 A 2 2 0 1 1 423.0019999996667 142.9999990000001 Z" opacity="1" class="highcharts-point"></path></g><g data-z-index="0.1" class="highcharts-series highcharts-series-12 highcharts-line-series " transform="translate(47,116) scale(1 1)" clip-path="url(#highcharts-8yj130c-157-)"><path fill="none" d="M 423.80392156863 230.724" class="highcharts-graph" data-z-index="1" stroke="#FABD24" stroke-width="2" stroke-linejoin="round" stroke-linecap="round"></path></g><g data-z-index="0.1" class="highcharts-markers highcharts-series-12 highcharts-line-series " transform="translate(47,116) scale(1 1)" clip-path="none"><path fill="#FABD24" d="M 423 233 A 2 2 0 1 1 423.0019999996667 232.9999990000001 Z" opacity="1" class="highcharts-point"></path></g><g data-z-index="0.1" class="highcharts-series highcharts-series-13 highcharts-line-series " transform="translate(47,116) scale(1 1)" clip-path="url(#highcharts-8yj130c-157-)"><path fill="none" d="M 423.80392156863 124.956" class="highcharts-graph" data-z-index="1" stroke="#3C3C3C" stroke-width="2" stroke-linejoin="round" stroke-linecap="round"></path></g><g data-z-index="0.1" class="highcharts-markers highcharts-series-13 highcharts-line-series " transform="translate(47,116) scale(1 1)" clip-path="none"><path fill="#3C3C3C" d="M 423 127 A 2 2 0 1 1 423.0019999996667 126.99999900000009 Z" opacity="1" class="highcharts-point"></path></g></g><text x="10" text-anchor="start" class="highcharts-title" data-z-index="4" style="color:#000000;font-size:14px;font-weight:bold;fill:#000000;" y="21"><tspan>Sozialhilfequote nach Altersgruppe</tspan></text><text x="10" text-anchor="start" class="highcharts-subtitle" data-z-index="4" style="color:#000000;font-size:12px;font-weight:normal;font-family:Arial;fill:#000000;" y="40"><tspan>Stadt Basel (bis 2016) resp. Kanton Basel-Stadt</tspan></text><text x="10" text-anchor="start" class="highcharts-caption" data-z-index="4" style="color:#666666;fill:#666666;" y="375"></text><g class="highcharts-legend" data-z-index="7" transform="translate(39,55)"><rect fill="none" class="highcharts-legend-box" rx="0" ry="0" x="0" y="0" width="360" height="49" visibility="visible"></rect><g data-z-index="1"><g><g class="highcharts-legend-item highcharts-line-series highcharts-color-undefined highcharts-series-0" data-z-index="1" transform="translate(8,3)"><path fill="none" d="M 0 11 L 16 11" class="highcharts-graph" stroke="#B00000" stroke-width="2"></path><text x="21" style="color:#333333;cursor:pointer;font-size:12px;font-weight:normal;fill:#333333;" text-anchor="start" data-z-index="2" y="15"><tspan>0 bis 17 J.</tspan></text></g><g class="highcharts-legend-item highcharts-line-series highcharts-color-undefined highcharts-series-1" data-z-index="1" transform="translate(95.328125,3)"><path fill="none" d="M 0 11 L 16 11" class="highcharts-graph" stroke="#007A2F" stroke-width="2"></path><text x="21" y="15" style="color:#333333;cursor:pointer;font-size:12px;font-weight:normal;fill:#333333;" text-anchor="start" data-z-index="2"><tspan>18 bis 25 J.</tspan></text></g><g class="highcharts-legend-item highcharts-line-series highcharts-color-undefined highcharts-series-2" data-z-index="1" transform="translate(182.65625,3)"><path fill="none" d="M 0 11 L 16 11" class="highcharts-graph" stroke="#4f81bd" stroke-width="2"></path><text x="21" y="15" style="color:#333333;cursor:pointer;font-size:12px;font-weight:normal;fill:#333333;" text-anchor="start" data-z-index="2"><tspan>26 bis 35 J.</tspan></text></g><g class="highcharts-legend-item highcharts-line-series highcharts-color-undefined highcharts-series-3" data-z-index="1" transform="translate(269.984375,3)"><path fill="none" d="M 0 11 L 16 11" class="highcharts-graph" stroke="#662673" stroke-width="2"></path><text x="21" y="15" style="color:#333333;cursor:pointer;font-size:12px;font-weight:normal;fill:#333333;" text-anchor="start" data-z-index="2"><tspan>36 bis 50 J.</tspan></text></g><g class="highcharts-legend-item highcharts-line-series highcharts-color-undefined highcharts-series-4" data-z-index="1" transform="translate(8,22)"><path fill="none" d="M 0 11 L 16 11" class="highcharts-graph" stroke="#7F5F1A" stroke-width="2"></path><text x="21" y="15" style="color:#333333;cursor:pointer;font-size:12px;font-weight:normal;fill:#333333;" text-anchor="start" data-z-index="2"><tspan>51 bis 65 J.</tspan></text></g><g class="highcharts-legend-item highcharts-line-series highcharts-color-undefined highcharts-series-5" data-z-index="1" transform="translate(95.328125,22)"><path fill="none" d="M 0 11 L 16 11" class="highcharts-graph" stroke="#FABD24" stroke-width="2"></path><text x="21" y="15" style="color:#333333;cursor:pointer;font-size:12px;font-weight:normal;fill:#333333;" text-anchor="start" data-z-index="2"><tspan>66 J. u.m.</tspan></text></g><g class="highcharts-legend-item highcharts-line-series highcharts-color-undefined highcharts-series-6" data-z-index="1" transform="translate(182.65625,22)"><path fill="none" d="M 0 11 L 16 11" class="highcharts-graph" stroke="#3C3C3C" stroke-width="2"></path><text x="21" y="15" style="color:#333333;cursor:pointer;font-size:12px;font-weight:normal;fill:#333333;" text-anchor="start" data-z-index="2"><tspan>Total</tspan></text></g></g></g></g><g class="highcharts-axis-labels highcharts-xaxis-labels" data-z-index="7"><text x="51.196078431369" style="color:#000000;cursor:default;font-size:11px;fill:#000000;" text-anchor="middle" transform="translate(0,0)" y="362" opacity="1">2008</text><text x="97.819172113287" style="color:#000000;cursor:default;font-size:11px;fill:#000000;" text-anchor="middle" transform="translate(0,0)" y="362" opacity="1">2009</text><text x="144.4422657952" style="color:#000000;cursor:default;font-size:11px;fill:#000000;" text-anchor="middle" transform="translate(0,0)" y="362" opacity="1">2010</text><text x="191.06535947712" style="color:#000000;cursor:default;font-size:11px;fill:#000000;" text-anchor="middle" transform="translate(0,0)" y="362" opacity="1">2011</text><text x="237.68845315904" style="color:#000000;cursor:default;font-size:11px;fill:#000000;" text-anchor="middle" transform="translate(0,0)" y="362" opacity="1">2012</text><text x="284.31154684096" style="color:#000000;cursor:default;font-size:11px;fill:#000000;" text-anchor="middle" transform="translate(0,0)" y="362" opacity="1">2013</text><text x="330.93464052288" style="color:#000000;cursor:default;font-size:11px;fill:#000000;" text-anchor="middle" transform="translate(0,0)" y="362" opacity="1">2014</text><text x="377.5577342048" style="color:#000000;cursor:default;font-size:11px;fill:#000000;" text-anchor="middle" transform="translate(0,0)" y="362" opacity="1">2015</text><text x="424.18082788671" style="color:#000000;cursor:default;font-size:11px;fill:#000000;" text-anchor="middle" transform="translate(0,0)" y="362" opacity="1">2016</text><text x="462.78125" style="color:#000000;cursor:default;font-size:11px;fill:#000000;" text-anchor="middle" transform="translate(0,0)" y="362" opacity="1">2017</text></g><g class="highcharts-axis-labels highcharts-yaxis-labels" data-z-index="7"><text x="32" style="color:#000000;cursor:default;font-size:11px;fill:#000000;" text-anchor="end" transform="translate(0,0)" y="355" opacity="1">0%</text><text x="32" style="color:#000000;cursor:default;font-size:11px;fill:#000000;" text-anchor="end" transform="translate(0,0)" y="277" opacity="1">5%</text><text x="32" style="color:#000000;cursor:default;font-size:11px;fill:#000000;" text-anchor="end" transform="translate(0,0)" y="199" opacity="1">10%</text><text x="32" style="color:#000000;cursor:default;font-size:11px;fill:#000000;" text-anchor="end" transform="translate(0,0)" y="121" opacity="1">15%</text></g><text x="10" class="highcharts-credits" text-anchor="start" data-z-index="8" style="cursor:default;color:#000000;font-size:10px;fill:#000000;" y="393"><tspan>Quelle: Statistisches Amt des Kantons Basel-Stadt, Sozialhilfestatistik;</tspan><tspan x="10" dy="13">Departement für Wirtschaft, Soziales und Umwelt.</tspan><tspan x="10" dy="13">Zuletzt geändert: 2018-9-21</tspan></text></svg>