<?xml version="1.0" standalone="no"?><!DOCTYPE svg PUBLIC "-//W3C//DTD SVG 1.1//EN" "http://www.w3.org/Graphics/SVG/1.1/DTD/svg11.dtd"><svg xmlns:xlink="http://www.w3.org/1999/xlink" version="1.1" class="highcharts-root" style="font-family:arial;font-size:12px;" xmlns="http://www.w3.org/2000/svg" width="485" height="415"><desc>Created with Highstock 5.0.14</desc><defs><clipPath id="highcharts-gcuy8ub-6"><rect x="0" y="0" width="432" height="243" fill="none"></rect></clipPath><clipPath id="highcharts-gcuy8ub-7"><rect x="0" y="0" width="432" height="243" fill="none"></rect></clipPath></defs><rect fill="#fbfbfb" class="highcharts-background" x="0" y="0" width="485" height="415" rx="0" ry="0"></rect><rect fill="none" class="highcharts-plot-background" x="43" y="106" width="432" height="243"></rect><g class="highcharts-pane-group"></g><g class="highcharts-grid highcharts-xaxis-grid "><path fill="none" class="highcharts-grid-line" d="M 46.5 106 L 46.5 349" opacity="1"></path><path fill="none" class="highcharts-grid-line" d="M 93.5 106 L 93.5 349" opacity="1"></path><path fill="none" class="highcharts-grid-line" d="M 140.5 106 L 140.5 349" opacity="1"></path><path fill="none" class="highcharts-grid-line" d="M 187.5 106 L 187.5 349" opacity="1"></path><path fill="none" class="highcharts-grid-line" d="M 234.5 106 L 234.5 349" opacity="1"></path><path fill="none" class="highcharts-grid-line" d="M 282.5 106 L 282.5 349" opacity="1"></path><path fill="none" class="highcharts-grid-line" d="M 329.5 106 L 329.5 349" opacity="1"></path><path fill="none" class="highcharts-grid-line" d="M 376.5 106 L 376.5 349" opacity="1"></path><path fill="none" class="highcharts-grid-line" d="M 423.5 106 L 423.5 349" opacity="1"></path><path fill="none" class="highcharts-grid-line" d="M 470.5 106 L 470.5 349" opacity="1"></path></g><g class="highcharts-grid highcharts-yaxis-grid "><path fill="none" stroke="#B9CFD7" stroke-width="0.5" class="highcharts-grid-line" d="M 43 349.25 L 475 349.25" opacity="1"></path><path fill="none" stroke="#B9CFD7" stroke-width="0.5" class="highcharts-grid-line" d="M 43 288.25 L 475 288.25" opacity="1"></path><path fill="none" stroke="#B9CFD7" stroke-width="0.5" class="highcharts-grid-line" d="M 43 228.25 L 475 228.25" opacity="1"></path><path fill="none" stroke="#B9CFD7" stroke-width="0.5" class="highcharts-grid-line" d="M 43 167.25 L 475 167.25" opacity="1"></path><path fill="none" stroke="#B9CFD7" stroke-width="0.5" class="highcharts-grid-line" d="M 43 106.25 L 475 106.25" opacity="1"></path></g><rect fill="none" class="highcharts-plot-border" x="43" y="106" width="432" height="243"></rect><g class="highcharts-axis highcharts-xaxis "><path fill="none" class="highcharts-axis-line" stroke="#B9CFD7" stroke-width="0.5" d="M 43 349.25 L 475 349.25"></path></g><g class="highcharts-axis highcharts-yaxis "><path fill="none" class="highcharts-axis-line" d="M 43 106 L 43 349"></path></g><g class="highcharts-series-group"><g class="highcharts-series highcharts-series-0 highcharts-line-series highcharts-color-undefined " transform="translate(43,106) scale(1 1)" clip-path="url(#highcharts-gcuy8ub-7)"><path fill="none" d="M 4.2352941176433 42.828749999999985 L 51.294117647056 59.838749999999976 L 98.352941176468 64.09125 L 145.41176470588 70.77374999999998 L 192.47058823529 102.66749999999999 L 239.52941176471 124.23374999999999 L 286.58823529412 149.74874999999997 L 333.64705882353 121.80375 L 380.70588235294 110.26124999999999 L 427.76470588236 99.32624999999999" class="highcharts-graph" stroke="#B00000" stroke-width="2" stroke-linejoin="round" stroke-linecap="round"></path></g><g class="highcharts-markers highcharts-series-0 highcharts-line-series highcharts-color-undefined " transform="translate(43,106) scale(1 1)" clip-path="none"><path fill="#B00000" d="M 8 43 A 4 4 0 1 1 7.999998000000167 42.99600000066666 Z" class="highcharts-point"></path><path fill="#B00000" d="M 55 60 A 4 4 0 1 1 54.99999800000017 59.99600000066666 Z" class="highcharts-point"></path><path fill="#B00000" d="M 102 64 A 4 4 0 1 1 101.99999800000016 63.99600000066666 Z" class="highcharts-point"></path><path fill="#B00000" d="M 149 71 A 4 4 0 1 1 148.99999800000018 70.99600000066667 Z" class="highcharts-point"></path><path fill="#B00000" d="M 196 103 A 4 4 0 1 1 195.99999800000018 102.99600000066667 Z" class="highcharts-point"></path><path fill="#B00000" d="M 243 124 A 4 4 0 1 1 242.99999800000018 123.99600000066667 Z" class="highcharts-point"></path><path fill="#B00000" d="M 290 150 A 4 4 0 1 1 289.9999980000002 149.99600000066667 Z" class="highcharts-point"></path><path fill="#B00000" d="M 337 122 A 4 4 0 1 1 336.9999980000002 121.99600000066667 Z" class="highcharts-point"></path><path fill="#B00000" d="M 384 110 A 4 4 0 1 1 383.9999980000002 109.99600000066667 Z" class="highcharts-point"></path><path fill="#B00000" d="M 431 99 A 4 4 0 1 1 430.9999980000002 98.99600000066667 Z" class="highcharts-point"></path></g><g class="highcharts-series highcharts-series-1 highcharts-line-series highcharts-color-undefined " transform="translate(43,106) scale(1 1)" clip-path="url(#highcharts-gcuy8ub-7)"><path fill="none" d="M 4.2352941176433 203.81625 L 51.294117647056 207.1575 L 98.352941176468 213.2325 L 145.41176470588 210.49875 L 192.47058823529 213.84 L 239.52941176471 215.6625 L 286.58823529412 218.39625 L 333.64705882353 218.0925 L 380.70588235294 216.27 L 427.76470588236 213.53625" class="highcharts-graph" stroke="#4f81bd" stroke-width="2" stroke-linejoin="round" stroke-linecap="round"></path></g><g class="highcharts-markers highcharts-series-1 highcharts-line-series highcharts-color-undefined " transform="translate(43,106) scale(1 1)" clip-path="none"><path fill="#4f81bd" d="M 8 204 A 4 4 0 1 1 7.999998000000167 203.99600000066667 Z" class="highcharts-point"></path><path fill="#4f81bd" d="M 55 207 A 4 4 0 1 1 54.99999800000017 206.99600000066667 Z" class="highcharts-point"></path><path fill="#4f81bd" d="M 102 213 A 4 4 0 1 1 101.99999800000016 212.99600000066667 Z" class="highcharts-point"></path><path fill="#4f81bd" d="M 149 210 A 4 4 0 1 1 148.99999800000018 209.99600000066667 Z" class="highcharts-point"></path><path fill="#4f81bd" d="M 196 214 A 4 4 0 1 1 195.99999800000018 213.99600000066667 Z" class="highcharts-point"></path><path fill="#4f81bd" d="M 243 216 A 4 4 0 1 1 242.99999800000018 215.99600000066667 Z" class="highcharts-point"></path><path fill="#4f81bd" d="M 290 218 A 4 4 0 1 1 289.9999980000002 217.99600000066667 Z" class="highcharts-point"></path><path fill="#4f81bd" d="M 337 218 A 4 4 0 1 1 336.9999980000002 217.99600000066667 Z" class="highcharts-point"></path><path fill="#4f81bd" d="M 384 216 A 4 4 0 1 1 383.9999980000002 215.99600000066667 Z" class="highcharts-point"></path><path fill="#4f81bd" d="M 431 214 A 4 4 0 1 1 430.9999980000002 213.99600000066667 Z" class="highcharts-point"></path></g></g><text x="10" text-anchor="start" class="highcharts-title" style="color:#000000;font-size:14px;font-weight:bold;fill:#000000;" y="21"><tspan>Strassenverkehrsunfälle und verunfallte Personen</tspan></text><g class="highcharts-legend" transform="translate(35,45)"><rect fill="none" class="highcharts-legend-box" rx="0" ry="0" x="0" y="0" width="296" height="49" visibility="visible"></rect><g><g><g class="highcharts-legend-item highcharts-line-series highcharts-color-undefined highcharts-series-0" transform="translate(8,3)"><path fill="none" d="M 0 11 L 16 11" class="highcharts-graph" stroke="#B00000" stroke-width="2"></path><path fill="#B00000" d="M 12 11 A 4 4 0 1 1 11.999998000000167 10.996000000666664 Z" class="highcharts-point"></path><text x="21" style="color:#333333;font-size:12px;font-weight:normal;cursor:pointer;fill:#333333;" text-anchor="start" y="15"><tspan>Total Verunfallte</tspan></text></g><g class="highcharts-legend-item highcharts-line-series highcharts-color-undefined highcharts-series-1" transform="translate(8,22)"><path fill="none" d="M 0 11 L 16 11" class="highcharts-graph" stroke="#4f81bd" stroke-width="2"></path><path fill="#4f81bd" d="M 12 11 A 4 4 0 1 1 11.999998000000167 10.996000000666664 Z" class="highcharts-point"></path><text x="21" y="15" style="color:#333333;font-size:12px;font-weight:normal;cursor:pointer;fill:#333333;" text-anchor="start"><tspan>Total Schwerverletzte</tspan></text></g></g></g></g><g class="highcharts-axis-labels highcharts-xaxis-labels "><text x="47.235294117643285" style="color:#000000;cursor:default;font-size:11px;fill:#000000;" text-anchor="middle" transform="translate(0,0)" y="368" opacity="1">2006</text><text x="94.29411764705588" style="color:#000000;cursor:default;font-size:11px;fill:#000000;" text-anchor="middle" transform="translate(0,0)" y="368" opacity="1">2007</text><text x="141.3529411764685" style="color:#000000;cursor:default;font-size:11px;fill:#000000;" text-anchor="middle" transform="translate(0,0)" y="368" opacity="1">2008</text><text x="188.4117647058811" style="color:#000000;cursor:default;font-size:11px;fill:#000000;" text-anchor="middle" transform="translate(0,0)" y="368" opacity="1">2009</text><text x="235.47058823529372" style="color:#000000;cursor:default;font-size:11px;fill:#000000;" text-anchor="middle" transform="translate(0,0)" y="368" opacity="1">2010</text><text x="282.5294117647063" style="color:#000000;cursor:default;font-size:11px;fill:#000000;" text-anchor="middle" transform="translate(0,0)" y="368" opacity="1">2011</text><text x="329.58823529411893" style="color:#000000;cursor:default;font-size:11px;fill:#000000;" text-anchor="middle" transform="translate(0,0)" y="368" opacity="1">2012</text><text x="376.64705882353155" style="color:#000000;cursor:default;font-size:11px;fill:#000000;" text-anchor="middle" transform="translate(0,0)" y="368" opacity="1">2013</text><text x="423.7058823529441" style="color:#000000;cursor:default;font-size:11px;fill:#000000;" text-anchor="middle" transform="translate(0,0)" y="368" opacity="1">2014</text><text x="462.78125" style="color:#000000;cursor:default;font-size:11px;fill:#000000;" text-anchor="middle" transform="translate(0,0)" y="368" opacity="1">2015</text></g><g class="highcharts-axis-labels highcharts-yaxis-labels "><text x="28" style="color:#000000;cursor:default;font-size:11px;fill:#000000;" text-anchor="end" transform="translate(0,0)" y="354" opacity="1"><tspan>0</tspan></text><text x="28" style="color:#000000;cursor:default;font-size:11px;fill:#000000;" text-anchor="end" transform="translate(0,0)" y="293" opacity="1"><tspan>200</tspan></text><text x="28" style="color:#000000;cursor:default;font-size:11px;fill:#000000;" text-anchor="end" transform="translate(0,0)" y="232" opacity="1"><tspan>400</tspan></text><text x="28" style="color:#000000;cursor:default;font-size:11px;fill:#000000;" text-anchor="end" transform="translate(0,0)" y="171" opacity="1"><tspan>600</tspan></text><text x="28" style="color:#000000;cursor:default;font-size:11px;fill:#000000;" text-anchor="end" transform="translate(0,0)" y="110" opacity="1"><tspan>800</tspan></text></g><text x="10" class="highcharts-credits" text-anchor="start" style="cursor:default;color:#000000;font-size:10px;fill:#000000;" y="400"><tspan>Quelle: Kantonspolizei Basel-Stadt</tspan></text></svg>