<?xml version="1.0" standalone="no"?><!DOCTYPE svg PUBLIC "-//W3C//DTD SVG 1.1//EN" "http://www.w3.org/Graphics/SVG/1.1/DTD/svg11.dtd"><svg xmlns:xlink="http://www.w3.org/1999/xlink" version="1.1" class="highcharts-root" style="font-family:Arial;font-size:12px;" xmlns="http://www.w3.org/2000/svg" viewBox="0 0 485 415"><desc>Created with Highcharts 7.1.2</desc><defs><clipPath id="highcharts-7ho8cov-27-"><rect x="0" y="0" width="297" height="347" fill="none"></rect></clipPath><clipPath id="highcharts-7ho8cov-49-"><rect x="0" y="0" width="297" height="347" fill="none"></rect></clipPath></defs><rect fill="#fbfbfb" class="highcharts-background" x="0" y="0" width="485" height="428" rx="0" ry="0"></rect><rect fill="none" class="highcharts-plot-background" x="120" y="55" width="347" height="297"></rect><g class="highcharts-pane-group" data-z-index="0"></g><g class="highcharts-grid highcharts-xaxis-grid" data-z-index="1"><path fill="none" data-z-index="1" class="highcharts-grid-line" d="M 120 69.5 L 467 69.5" opacity="1"></path><path fill="none" data-z-index="1" class="highcharts-grid-line" d="M 120 83.5 L 467 83.5" opacity="1"></path><path fill="none" data-z-index="1" class="highcharts-grid-line" d="M 120 97.5 L 467 97.5" opacity="1"></path><path fill="none" data-z-index="1" class="highcharts-grid-line" d="M 120 112.5 L 467 112.5" opacity="1"></path><path fill="none" data-z-index="1" class="highcharts-grid-line" d="M 120 126.5 L 467 126.5" opacity="1"></path><path fill="none" data-z-index="1" class="highcharts-grid-line" d="M 120 140.5 L 467 140.5" opacity="1"></path><path fill="none" data-z-index="1" class="highcharts-grid-line" d="M 120 154.5 L 467 154.5" opacity="1"></path><path fill="none" data-z-index="1" class="highcharts-grid-line" d="M 120 168.5 L 467 168.5" opacity="1"></path><path fill="none" data-z-index="1" class="highcharts-grid-line" d="M 120 182.5 L 467 182.5" opacity="1"></path><path fill="none" data-z-index="1" class="highcharts-grid-line" d="M 120 196.5 L 467 196.5" opacity="1"></path><path fill="none" data-z-index="1" class="highcharts-grid-line" d="M 120 211.5 L 467 211.5" opacity="1"></path><path fill="none" data-z-index="1" class="highcharts-grid-line" d="M 120 225.5 L 467 225.5" opacity="1"></path><path fill="none" data-z-index="1" class="highcharts-grid-line" d="M 120 239.5 L 467 239.5" opacity="1"></path><path fill="none" data-z-index="1" class="highcharts-grid-line" d="M 120 253.5 L 467 253.5" opacity="1"></path><path fill="none" data-z-index="1" class="highcharts-grid-line" d="M 120 267.5 L 467 267.5" opacity="1"></path><path fill="none" data-z-index="1" class="highcharts-grid-line" d="M 120 281.5 L 467 281.5" opacity="1"></path><path fill="none" data-z-index="1" class="highcharts-grid-line" d="M 120 295.5 L 467 295.5" opacity="1"></path><path fill="none" data-z-index="1" class="highcharts-grid-line" d="M 120 310.5 L 467 310.5" opacity="1"></path><path fill="none" data-z-index="1" class="highcharts-grid-line" d="M 120 324.5 L 467 324.5" opacity="1"></path><path fill="none" data-z-index="1" class="highcharts-grid-line" d="M 120 338.5 L 467 338.5" opacity="1"></path><path fill="none" data-z-index="1" class="highcharts-grid-line" d="M 120 352.5 L 467 352.5" opacity="1"></path><path fill="none" data-z-index="1" class="highcharts-grid-line" d="M 120 55.5 L 467 55.5" opacity="1"></path></g><g class="highcharts-grid highcharts-yaxis-grid" data-z-index="1"><path fill="none" stroke="#B9CFD7" stroke-width="0.5" data-z-index="1" class="highcharts-grid-line" d="M 119.75 55 L 119.75 352" opacity="1"></path><path fill="none" stroke="#B9CFD7" stroke-width="0.5" data-z-index="1" class="highcharts-grid-line" d="M 169.75 55 L 169.75 352" opacity="1"></path><path fill="none" stroke="#B9CFD7" stroke-width="0.5" data-z-index="1" class="highcharts-grid-line" d="M 218.75 55 L 218.75 352" opacity="1"></path><path fill="none" stroke="#B9CFD7" stroke-width="0.5" data-z-index="1" class="highcharts-grid-line" d="M 268.75 55 L 268.75 352" opacity="1"></path><path fill="none" stroke="#B9CFD7" stroke-width="0.5" data-z-index="1" class="highcharts-grid-line" d="M 317.75 55 L 317.75 352" opacity="1"></path><path fill="none" stroke="#B9CFD7" stroke-width="0.5" data-z-index="1" class="highcharts-grid-line" d="M 367.75 55 L 367.75 352" opacity="1"></path><path fill="none" stroke="#B9CFD7" stroke-width="0.5" data-z-index="1" class="highcharts-grid-line" d="M 416.75 55 L 416.75 352" opacity="1"></path><path fill="none" stroke="#B9CFD7" stroke-width="0.5" data-z-index="1" class="highcharts-grid-line" d="M 467.25 55 L 467.25 352" opacity="1"></path></g><rect fill="none" class="highcharts-plot-border" data-z-index="1" x="120" y="55" width="347" height="297"></rect><g class="highcharts-axis highcharts-xaxis" data-z-index="2"><path fill="none" class="highcharts-axis-line" stroke="#B9CFD7" stroke-width="0.5" data-z-index="7" d="M 119.75 55 L 119.75 352"></path></g><g class="highcharts-axis highcharts-yaxis" data-z-index="2"><path fill="none" class="highcharts-axis-line" data-z-index="7" d="M 120 352 L 467 352"></path></g><g class="highcharts-series-group" data-z-index="3"><g data-z-index="0.1" class="highcharts-series highcharts-series-0 highcharts-scatter-series " transform="translate(467,352) rotate(90) scale(-1,1) scale(1 1)" clip-path="url(#highcharts-7ho8cov-49-)"></g><g data-z-index="0.1" class="highcharts-markers highcharts-series-0 highcharts-scatter-series " transform="translate(467,352) rotate(90) scale(-1,1) scale(1 1)" clip-path="none"><path fill="#83522E" d="M 289 350 A 4 4 0 1 1 289.00399999933336 349.9999980000002 Z" opacity="1" class="highcharts-point"></path><path fill="#83522E" d="M 275 349 A 4 4 0 1 1 275.00399999933336 348.9999980000002 Z" opacity="1" class="highcharts-point"></path><path fill="#83522E" d="M 261 349 A 4 4 0 1 1 261.00399999933336 348.9999980000002 Z" opacity="1" class="highcharts-point"></path><path fill="#83522E" d="M 247 349 A 4 4 0 1 1 247.00399999933333 348.9999980000002 Z" opacity="1" class="highcharts-point"></path><path fill="#83522E" d="M 233 349 A 4 4 0 1 1 233.00399999933333 348.9999980000002 Z" opacity="1" class="highcharts-point"></path><path fill="#83522E" d="M 219 348 A 4 4 0 1 1 219.00399999933333 347.9999980000002 Z" opacity="1" class="highcharts-point"></path><path fill="#83522E" d="M 205 348 A 4 4 0 1 1 205.00399999933333 347.9999980000002 Z" opacity="1" class="highcharts-point"></path><path fill="#83522E" d="M 190 347 A 4 4 0 1 1 190.00399999933333 346.9999980000002 Z" opacity="1" class="highcharts-point"></path><path fill="#83522E" d="M 176 347 A 4 4 0 1 1 176.00399999933333 346.9999980000002 Z" opacity="1" class="highcharts-point"></path><path fill="#83522E" d="M 162 346 A 4 4 0 1 1 162.00399999933333 345.9999980000002 Z" opacity="1" class="highcharts-point"></path><path fill="#83522E" d="M 148 346 A 4 4 0 1 1 148.00399999933333 345.9999980000002 Z" opacity="1" class="highcharts-point"></path><path fill="#83522E" d="M 134 344 A 4 4 0 1 1 134.00399999933333 343.9999980000002 Z" opacity="1" class="highcharts-point"></path><path fill="#83522E" d="M 120 344 A 4 4 0 1 1 120.00399999933333 343.9999980000002 Z" opacity="1" class="highcharts-point"></path><path fill="#83522E" d="M 106 343 A 4 4 0 1 1 106.00399999933333 342.9999980000002 Z" opacity="1" class="highcharts-point"></path><path fill="#83522E" d="M 91 342 A 4 4 0 1 1 91.00399999933333 341.9999980000002 Z" opacity="1" class="highcharts-point"></path><path fill="#83522E" d="M 77 334 A 4 4 0 1 1 77.00399999933333 333.9999980000002 Z" opacity="1" class="highcharts-point"></path><path fill="#83522E" d="M 63 330 A 4 4 0 1 1 63.00399999933334 329.9999980000002 Z" opacity="1" class="highcharts-point"></path><path fill="#83522E" d="M 49 312 A 4 4 0 1 1 49.00399999933334 311.9999980000002 Z" opacity="1" class="highcharts-point"></path><path fill="#83522E" d="M 35 312 A 4 4 0 1 1 35.00399999933334 311.9999980000002 Z" opacity="1" class="highcharts-point"></path><path fill="#83522E" d="M 21 271 A 4 4 0 1 1 21.003999999333335 270.9999980000002 Z" opacity="1" class="highcharts-point"></path><path fill="#83522E" d="M 7 23 A 4 4 0 1 1 7.0039999993333355 22.99999800000017 Z" opacity="1" class="highcharts-point"></path></g></g><text x="10" text-anchor="start" class="highcharts-title" data-z-index="4" style="color:#000000;font-size:14px;font-weight:bold;fill:#000000;" y="21"><tspan>Grünfläche pro Kopf nach Wohnviertel</tspan></text><text x="10" text-anchor="start" class="highcharts-subtitle" data-z-index="4" style="color:#000000;font-size:12px;font-weight:normal;font-family:Arial;fill:#000000;" y="40"><tspan>Basel-Stadt, in m2, 2018</tspan></text><g class="highcharts-axis-labels highcharts-xaxis-labels" data-z-index="7"><text x="105" style="color:#000000;cursor:default;font-size:11px;fill:#000000;" text-anchor="end" transform="translate(0,0)" y="67" opacity="1">Matthäus</text><text x="105" style="color:#000000;cursor:default;font-size:11px;fill:#000000;" text-anchor="end" transform="translate(0,0)" y="81" opacity="1"><tspan>Altstadt Kleinbasel</tspan></text><text x="105" style="color:#000000;cursor:default;font-size:11px;fill:#000000;" text-anchor="end" transform="translate(0,0)" y="95" opacity="1">Clara</text><text x="105" style="color:#000000;cursor:default;font-size:11px;fill:#000000;" text-anchor="end" transform="translate(0,0)" y="109" opacity="1"><tspan>Altstadt Grossbasel</tspan></text><text x="105" style="color:#000000;cursor:default;font-size:11px;fill:#000000;" text-anchor="end" transform="translate(0,0)" y="123" opacity="1">Gundeldingen</text><text x="105" style="color:#000000;cursor:default;font-size:11px;fill:#000000;" text-anchor="end" transform="translate(0,0)" y="137" opacity="1">Rosental</text><text x="105" style="color:#000000;cursor:default;font-size:11px;fill:#000000;" text-anchor="end" transform="translate(0,0)" y="151" opacity="1">Klybeck</text><text x="105" style="color:#000000;cursor:default;font-size:11px;fill:#000000;" text-anchor="end" transform="translate(0,0)" y="166" opacity="1"><tspan>Am Ring</tspan></text><text x="105" style="color:#000000;cursor:default;font-size:11px;fill:#000000;" text-anchor="end" transform="translate(0,0)" y="180" opacity="1">Gotthelf</text><text x="105" style="color:#000000;cursor:default;font-size:11px;fill:#000000;" text-anchor="end" transform="translate(0,0)" y="194" opacity="1">Iselin</text><text x="105" style="color:#000000;cursor:default;font-size:11px;fill:#000000;" text-anchor="end" transform="translate(0,0)" y="208" opacity="1">Breite</text><text x="105" style="color:#000000;cursor:default;font-size:11px;fill:#000000;" text-anchor="end" transform="translate(0,0)" y="222" opacity="1"><tspan>St. Johann</tspan></text><text x="105" style="color:#000000;cursor:default;font-size:11px;fill:#000000;" text-anchor="end" transform="translate(0,0)" y="236" opacity="1">Vorstädte</text><text x="105" style="color:#000000;cursor:default;font-size:11px;fill:#000000;" text-anchor="end" transform="translate(0,0)" y="250" opacity="1">Wettstein</text><text x="105" style="color:#000000;cursor:default;font-size:11px;fill:#000000;" text-anchor="end" transform="translate(0,0)" y="265" opacity="1">Bachletten</text><text x="105" style="color:#000000;cursor:default;font-size:11px;fill:#000000;" text-anchor="end" transform="translate(0,0)" y="279" opacity="1"><tspan>St. Alban</tspan></text><text x="105" style="color:#000000;cursor:default;font-size:11px;fill:#000000;" text-anchor="end" transform="translate(0,0)" y="293" opacity="1">Kleinhüningen</text><text x="105" style="color:#000000;cursor:default;font-size:11px;fill:#000000;" text-anchor="end" transform="translate(0,0)" y="307" opacity="1">Hirzbrunnen</text><text x="105" style="color:#000000;cursor:default;font-size:11px;fill:#000000;" text-anchor="end" transform="translate(0,0)" y="321" opacity="1">Bruderholz</text><text x="105" style="color:#000000;cursor:default;font-size:11px;fill:#000000;" text-anchor="end" transform="translate(0,0)" y="335" opacity="1">Riehen</text><text x="105" style="color:#000000;cursor:default;font-size:11px;fill:#000000;" text-anchor="end" transform="translate(0,0)" y="349" opacity="1">Bettingen</text></g><g class="highcharts-axis-labels highcharts-yaxis-labels" data-z-index="7"><text x="120" style="color:#000000;cursor:default;font-size:11px;fill:#000000;" text-anchor="middle" transform="translate(0,0)" y="371" opacity="1">0</text><text x="169.57142857143" style="color:#000000;cursor:default;font-size:11px;fill:#000000;" text-anchor="middle" transform="translate(0,0)" y="371" opacity="1">250</text><text x="219.14285714286" style="color:#000000;cursor:default;font-size:11px;fill:#000000;" text-anchor="middle" transform="translate(0,0)" y="371" opacity="1">500</text><text x="268.71428571429" style="color:#000000;cursor:default;font-size:11px;fill:#000000;" text-anchor="middle" transform="translate(0,0)" y="371" opacity="1">750</text><text x="318.28571428571" style="color:#000000;cursor:default;font-size:11px;fill:#000000;" text-anchor="middle" transform="translate(0,0)" y="371" opacity="1">1000</text><text x="367.85714285714" style="color:#000000;cursor:default;font-size:11px;fill:#000000;" text-anchor="middle" transform="translate(0,0)" y="371" opacity="1">1250</text><text x="417.42857142857" style="color:#000000;cursor:default;font-size:11px;fill:#000000;" text-anchor="middle" transform="translate(0,0)" y="371" opacity="1">1500</text><text x="462.78125" style="color:#000000;cursor:default;font-size:11px;fill:#000000;" text-anchor="middle" transform="translate(0,0)" y="371" opacity="1">1750</text></g><text x="10" class="highcharts-credits" text-anchor="start" data-z-index="8" style="cursor:default;color:#000000;font-size:10px;fill:#000000;" y="393"><tspan>Quelle: Statistisches Amt Basel-Stadt, Bevölkerungsstatistik;</tspan><tspan x="10" dy="13">Grundbuch- und Vermessungsamt Basel-Stadt.</tspan><tspan x="10" dy="13">Zuletzt geändert: 2019-6-28</tspan></text></svg>