<?xml version="1.0" standalone="no"?><!DOCTYPE svg PUBLIC "-//W3C//DTD SVG 1.1//EN" "http://www.w3.org/Graphics/SVG/1.1/DTD/svg11.dtd"><svg xmlns:xlink="http://www.w3.org/1999/xlink" version="1.1" class="highcharts-root" style="font-family:Arial;font-size:12px;" xmlns="http://www.w3.org/2000/svg" viewBox="0 0 485 415"><desc>Created with Highcharts 8.2.2</desc><defs><clipPath id="highcharts-86ty1r9-92-"><rect x="0" y="0" width="411" height="219" fill="none"></rect></clipPath><clipPath id="highcharts-86ty1r9-110-"><rect x="0" y="0" width="411" height="219" fill="none"></rect></clipPath><clipPath id="highcharts-86ty1r9-179-"><rect x="64" y="124" width="411" height="219" fill="none"></rect></clipPath></defs><rect fill="#fbfbfb" class="highcharts-background" x="0" y="0" width="485" height="428" rx="0" ry="0"></rect><rect fill="none" class="highcharts-plot-background" x="64" y="124" width="411" height="219"></rect><g class="highcharts-pane-group" data-z-index="0"></g><g class="highcharts-plot-lines-0" data-z-index="0"><path fill="none" class="highcharts-plot-line " stroke="#B9CFD7" stroke-width="2" d="M 64 288 L 475 288"></path></g><g class="highcharts-grid highcharts-xaxis-grid" data-z-index="1"><path fill="none" data-z-index="1" class="highcharts-grid-line" d="M 87.5 124 L 87.5 343" opacity="1"></path><path fill="none" data-z-index="1" class="highcharts-grid-line" d="M 111.5 124 L 111.5 343" opacity="1"></path><path fill="none" data-z-index="1" class="highcharts-grid-line" d="M 136.5 124 L 136.5 343" opacity="1"></path><path fill="none" data-z-index="1" class="highcharts-grid-line" d="M 160.5 124 L 160.5 343" opacity="1"></path><path fill="none" data-z-index="1" class="highcharts-grid-line" d="M 184.5 124 L 184.5 343" opacity="1"></path><path fill="none" data-z-index="1" class="highcharts-grid-line" d="M 208.5 124 L 208.5 343" opacity="1"></path><path fill="none" data-z-index="1" class="highcharts-grid-line" d="M 232.5 124 L 232.5 343" opacity="1"></path><path fill="none" data-z-index="1" class="highcharts-grid-line" d="M 256.5 124 L 256.5 343" opacity="1"></path><path fill="none" data-z-index="1" class="highcharts-grid-line" d="M 281.5 124 L 281.5 343" opacity="1"></path><path fill="none" data-z-index="1" class="highcharts-grid-line" d="M 305.5 124 L 305.5 343" opacity="1"></path><path fill="none" data-z-index="1" class="highcharts-grid-line" d="M 329.5 124 L 329.5 343" opacity="1"></path><path fill="none" data-z-index="1" class="highcharts-grid-line" d="M 353.5 124 L 353.5 343" opacity="1"></path><path fill="none" data-z-index="1" class="highcharts-grid-line" d="M 377.5 124 L 377.5 343" opacity="1"></path><path fill="none" data-z-index="1" class="highcharts-grid-line" d="M 401.5 124 L 401.5 343" opacity="1"></path><path fill="none" data-z-index="1" class="highcharts-grid-line" d="M 426.5 124 L 426.5 343" opacity="1"></path><path fill="none" data-z-index="1" class="highcharts-grid-line" d="M 450.5 124 L 450.5 343" opacity="1"></path><path fill="none" data-z-index="1" class="highcharts-grid-line" d="M 474.5 124 L 474.5 343" opacity="1"></path><path fill="none" data-z-index="1" class="highcharts-grid-line" d="M 63.5 124 L 63.5 343" opacity="1"></path></g><g class="highcharts-grid highcharts-yaxis-grid" data-z-index="1"><path fill="none" stroke="#B9CFD7" stroke-width="0.5" data-z-index="1" class="highcharts-grid-line" d="M 64 343.25 L 475 343.25" opacity="1"></path><path fill="none" stroke="#B9CFD7" stroke-width="0.5" data-z-index="1" class="highcharts-grid-line" d="M 64 316.25 L 475 316.25" opacity="1"></path><path fill="none" stroke="#B9CFD7" stroke-width="0.5" data-z-index="1" class="highcharts-grid-line" d="M 64 288.25 L 475 288.25" opacity="1"></path><path fill="none" stroke="#B9CFD7" stroke-width="0.5" data-z-index="1" class="highcharts-grid-line" d="M 64 261.25 L 475 261.25" opacity="1"></path><path fill="none" stroke="#B9CFD7" stroke-width="0.5" data-z-index="1" class="highcharts-grid-line" d="M 64 234.25 L 475 234.25" opacity="1"></path><path fill="none" stroke="#B9CFD7" stroke-width="0.5" data-z-index="1" class="highcharts-grid-line" d="M 64 206.25 L 475 206.25" opacity="1"></path><path fill="none" stroke="#B9CFD7" stroke-width="0.5" data-z-index="1" class="highcharts-grid-line" d="M 64 179.25 L 475 179.25" opacity="1"></path><path fill="none" stroke="#B9CFD7" stroke-width="0.5" data-z-index="1" class="highcharts-grid-line" d="M 64 151.25 L 475 151.25" opacity="1"></path><path fill="none" stroke="#B9CFD7" stroke-width="0.5" data-z-index="1" class="highcharts-grid-line" d="M 64 123.75 L 475 123.75" opacity="1"></path></g><rect fill="none" class="highcharts-plot-border" data-z-index="1" x="64" y="124" width="411" height="219"></rect><g class="highcharts-axis highcharts-xaxis" data-z-index="2"><path fill="none" class="highcharts-axis-line" stroke="#B9CFD7" stroke-width="0.5" data-z-index="7" d="M 64 343.25 L 475 343.25"></path></g><g class="highcharts-axis highcharts-yaxis" data-z-index="2"><path fill="none" class="highcharts-axis-line" data-z-index="7" d="M 64 124 L 64 343"></path></g><g class="highcharts-series-group" data-z-index="3"><g class="highcharts-series highcharts-series-0 highcharts-column-series" data-z-index="0.1" opacity="1" transform="translate(64,124) scale(1 1)" clip-path="url(#highcharts-86ty1r9-110-)"><rect x="4.5" y="165.5" width="15" height="20" fill="#246370" stroke="#ffffff" stroke-width="1e-7" opacity="1" class="highcharts-point highcharts-negative"></rect><rect x="28.5" y="165.5" width="15" height="23" fill="#246370" stroke="#ffffff" stroke-width="1e-7" opacity="1" class="highcharts-point highcharts-negative"></rect><rect x="52.5" y="165.5" width="15" height="30" fill="#246370" stroke="#ffffff" stroke-width="1e-7" opacity="1" class="highcharts-point highcharts-negative"></rect><rect x="76.5" y="165.5" width="15" height="30" fill="#246370" stroke="#ffffff" stroke-width="1e-7" opacity="1" class="highcharts-point highcharts-negative"></rect><rect x="100.5" y="165.5" width="15" height="31" fill="#246370" stroke="#ffffff" stroke-width="1e-7" opacity="1" class="highcharts-point highcharts-negative"></rect><rect x="124.5" y="165.5" width="15" height="32" fill="#246370" stroke="#ffffff" stroke-width="1e-7" opacity="1" class="highcharts-point highcharts-negative"></rect><rect x="149.5" y="165.5" width="15" height="34" fill="#246370" stroke="#ffffff" stroke-width="1e-7" opacity="1" class="highcharts-point highcharts-negative"></rect><rect x="173.5" y="165.5" width="15" height="33" fill="#246370" stroke="#ffffff" stroke-width="1e-7" opacity="1" class="highcharts-point highcharts-negative"></rect><rect x="197.5" y="165.5" width="15" height="33" fill="#246370" stroke="#ffffff" stroke-width="1e-7" opacity="1" class="highcharts-point highcharts-negative"></rect><rect x="221.5" y="165.5" width="15" height="36" fill="#246370" stroke="#ffffff" stroke-width="1e-7" opacity="1" class="highcharts-point highcharts-negative"></rect><rect x="245.5" y="165.5" width="15" height="33" fill="#246370" stroke="#ffffff" stroke-width="1e-7" opacity="1" class="highcharts-point highcharts-negative"></rect><rect x="270.5" y="165.5" width="15" height="32" fill="#246370" stroke="#ffffff" stroke-width="1e-7" opacity="1" class="highcharts-point highcharts-negative"></rect><rect x="294.5" y="165.5" width="15" height="29" fill="#246370" stroke="#ffffff" stroke-width="1e-7" opacity="1" class="highcharts-point highcharts-negative"></rect><rect x="318.5" y="165.5" width="15" height="28" fill="#246370" stroke="#ffffff" stroke-width="1e-7" opacity="1" class="highcharts-point highcharts-negative"></rect><rect x="342.5" y="165.5" width="15" height="33" fill="#246370" stroke="#ffffff" stroke-width="1e-7" opacity="1" class="highcharts-point highcharts-negative"></rect><rect x="366.5" y="165.5" width="15" height="34" fill="#246370" stroke="#ffffff" stroke-width="1e-7" opacity="1" class="highcharts-point highcharts-negative"></rect><rect x="390.5" y="165.5" width="15" height="33" fill="#246370" stroke="#ffffff" stroke-width="1e-7" opacity="1" class="highcharts-point highcharts-negative"></rect></g><g class="highcharts-markers highcharts-series-0 highcharts-column-series" data-z-index="0.1" opacity="1" transform="translate(64,124) scale(1 1)" clip-path="none"></g><g class="highcharts-series highcharts-series-1 highcharts-column-series" data-z-index="0.1" opacity="1" transform="translate(64,124) scale(1 1)" clip-path="url(#highcharts-86ty1r9-110-)"><rect x="4.5" y="164.5" width="15" height="1" fill="#A8C3CA" stroke="#ffffff" stroke-width="1e-7" opacity="1" class="highcharts-point highcharts-negative"></rect><rect x="28.5" y="164.5" width="15" height="1" fill="#A8C3CA" stroke="#ffffff" stroke-width="1e-7" opacity="1" class="highcharts-point highcharts-negative"></rect><rect x="52.5" y="164.5" width="15" height="1" fill="#A8C3CA" stroke="#ffffff" stroke-width="1e-7" opacity="1" class="highcharts-point highcharts-negative"></rect><rect x="76.5" y="164.5" width="15" height="1" fill="#A8C3CA" stroke="#ffffff" stroke-width="1e-7" opacity="1" class="highcharts-point highcharts-negative"></rect><rect x="100.5" y="164.5" width="15" height="1" fill="#A8C3CA" stroke="#ffffff" stroke-width="1e-7" opacity="1" class="highcharts-point highcharts-negative"></rect><rect x="124.5" y="164.5" width="15" height="1" fill="#A8C3CA" stroke="#ffffff" stroke-width="1e-7" opacity="1" class="highcharts-point highcharts-negative"></rect><rect x="149.5" y="164.5" width="15" height="1" fill="#A8C3CA" stroke="#ffffff" stroke-width="1e-7" opacity="1" class="highcharts-point highcharts-negative"></rect><rect x="173.5" y="164.5" width="15" height="1" fill="#A8C3CA" stroke="#ffffff" stroke-width="1e-7" opacity="1" class="highcharts-point highcharts-negative"></rect><rect x="197.5" y="164.5" width="15" height="1" fill="#A8C3CA" stroke="#ffffff" stroke-width="1e-7" opacity="1" class="highcharts-point highcharts-negative"></rect><rect x="221.5" y="164.5" width="15" height="1" fill="#A8C3CA" stroke="#ffffff" stroke-width="1e-7" opacity="1" class="highcharts-point highcharts-negative"></rect><rect x="245.5" y="164.5" width="15" height="1" fill="#A8C3CA" stroke="#ffffff" stroke-width="1e-7" opacity="1" class="highcharts-point highcharts-negative"></rect><rect x="270.5" y="164.5" width="15" height="1" fill="#A8C3CA" stroke="#ffffff" stroke-width="1e-7" opacity="1" class="highcharts-point highcharts-negative"></rect><rect x="294.5" y="164.5" width="15" height="1" fill="#A8C3CA" stroke="#ffffff" stroke-width="1e-7" opacity="1" class="highcharts-point highcharts-negative"></rect><rect x="318.5" y="164.5" width="15" height="1" fill="#A8C3CA" stroke="#ffffff" stroke-width="1e-7" opacity="1" class="highcharts-point highcharts-negative"></rect><rect x="342.5" y="164.5" width="15" height="1" fill="#A8C3CA" stroke="#ffffff" stroke-width="1e-7" opacity="1" class="highcharts-point highcharts-negative"></rect><rect x="366.5" y="164.5" width="15" height="1" fill="#A8C3CA" stroke="#ffffff" stroke-width="1e-7" opacity="1" class="highcharts-point highcharts-negative"></rect><rect x="390.5" y="164.5" width="15" height="1" fill="#A8C3CA" stroke="#ffffff" stroke-width="1e-7" opacity="1" class="highcharts-point highcharts-negative"></rect></g><g class="highcharts-markers highcharts-series-1 highcharts-column-series" data-z-index="0.1" opacity="1" transform="translate(64,124) scale(1 1)" clip-path="none"></g><g class="highcharts-series highcharts-series-2 highcharts-column-series" data-z-index="0.1" opacity="1" transform="translate(64,124) scale(1 1)" clip-path="url(#highcharts-86ty1r9-110-)"><rect x="4.5" y="46.5" width="15" height="79" fill="#007A2F" stroke="#ffffff" stroke-width="1e-7" opacity="1" class="highcharts-point"></rect><rect x="28.5" y="49.5" width="15" height="74" fill="#007A2F" stroke="#ffffff" stroke-width="1e-7" opacity="1" class="highcharts-point"></rect><rect x="52.5" y="39.5" width="15" height="84" fill="#007A2F" stroke="#ffffff" stroke-width="1e-7" opacity="1" class="highcharts-point"></rect><rect x="76.5" y="34.5" width="15" height="86" fill="#007A2F" stroke="#ffffff" stroke-width="1e-7" opacity="1" class="highcharts-point"></rect><rect x="100.5" y="33.5" width="15" height="86" fill="#007A2F" stroke="#ffffff" stroke-width="1e-7" opacity="1" class="highcharts-point"></rect><rect x="124.5" y="32.5" width="15" height="86" fill="#007A2F" stroke="#ffffff" stroke-width="1e-7" opacity="1" class="highcharts-point"></rect><rect x="149.5" y="28.5" width="15" height="89" fill="#007A2F" stroke="#ffffff" stroke-width="1e-7" opacity="1" class="highcharts-point"></rect><rect x="173.5" y="28.5" width="15" height="88" fill="#007A2F" stroke="#ffffff" stroke-width="1e-7" opacity="1" class="highcharts-point"></rect><rect x="197.5" y="25.5" width="15" height="90" fill="#007A2F" stroke="#ffffff" stroke-width="1e-7" opacity="1" class="highcharts-point"></rect><rect x="221.5" y="25.5" width="15" height="90" fill="#007A2F" stroke="#ffffff" stroke-width="1e-7" opacity="1" class="highcharts-point"></rect><rect x="245.5" y="37.5" width="15" height="80" fill="#007A2F" stroke="#ffffff" stroke-width="1e-7" opacity="1" class="highcharts-point"></rect><rect x="270.5" y="39.5" width="15" height="78" fill="#007A2F" stroke="#ffffff" stroke-width="1e-7" opacity="1" class="highcharts-point"></rect><rect x="294.5" y="43.5" width="15" height="74" fill="#007A2F" stroke="#ffffff" stroke-width="1e-7" opacity="1" class="highcharts-point"></rect><rect x="318.5" y="46.5" width="15" height="71" fill="#007A2F" stroke="#ffffff" stroke-width="1e-7" opacity="1" class="highcharts-point"></rect><rect x="342.5" y="39.5" width="15" height="77" fill="#007A2F" stroke="#ffffff" stroke-width="1e-7" opacity="1" class="highcharts-point"></rect><rect x="366.5" y="37.5" width="15" height="79" fill="#007A2F" stroke="#ffffff" stroke-width="1e-7" opacity="1" class="highcharts-point"></rect><rect x="390.5" y="41.5" width="15" height="74" fill="#007A2F" stroke="#ffffff" stroke-width="1e-7" opacity="1" class="highcharts-point"></rect></g><g class="highcharts-markers highcharts-series-2 highcharts-column-series" data-z-index="0.1" opacity="1" transform="translate(64,124) scale(1 1)" clip-path="none"></g><g class="highcharts-series highcharts-series-3 highcharts-column-series" data-z-index="0.1" opacity="1" transform="translate(64,124) scale(1 1)" clip-path="url(#highcharts-86ty1r9-110-)"><rect x="4.5" y="125.5" width="15" height="39" fill="#8AB77D" stroke="#ffffff" stroke-width="1e-7" opacity="1" class="highcharts-point"></rect><rect x="28.5" y="123.5" width="15" height="41" fill="#8AB77D" stroke="#ffffff" stroke-width="1e-7" opacity="1" class="highcharts-point"></rect><rect x="52.5" y="123.5" width="15" height="41" fill="#8AB77D" stroke="#ffffff" stroke-width="1e-7" opacity="1" class="highcharts-point"></rect><rect x="76.5" y="120.5" width="15" height="44" fill="#8AB77D" stroke="#ffffff" stroke-width="1e-7" opacity="1" class="highcharts-point"></rect><rect x="100.5" y="119.5" width="15" height="45" fill="#8AB77D" stroke="#ffffff" stroke-width="1e-7" opacity="1" class="highcharts-point"></rect><rect x="124.5" y="118.5" width="15" height="46" fill="#8AB77D" stroke="#ffffff" stroke-width="1e-7" opacity="1" class="highcharts-point"></rect><rect x="149.5" y="117.5" width="15" height="47" fill="#8AB77D" stroke="#ffffff" stroke-width="1e-7" opacity="1" class="highcharts-point"></rect><rect x="173.5" y="116.5" width="15" height="48" fill="#8AB77D" stroke="#ffffff" stroke-width="1e-7" opacity="1" class="highcharts-point"></rect><rect x="197.5" y="115.5" width="15" height="49" fill="#8AB77D" stroke="#ffffff" stroke-width="1e-7" opacity="1" class="highcharts-point"></rect><rect x="221.5" y="115.5" width="15" height="49" fill="#8AB77D" stroke="#ffffff" stroke-width="1e-7" opacity="1" class="highcharts-point"></rect><rect x="245.5" y="117.5" width="15" height="47" fill="#8AB77D" stroke="#ffffff" stroke-width="1e-7" opacity="1" class="highcharts-point"></rect><rect x="270.5" y="117.5" width="15" height="47" fill="#8AB77D" stroke="#ffffff" stroke-width="1e-7" opacity="1" class="highcharts-point"></rect><rect x="294.5" y="117.5" width="15" height="47" fill="#8AB77D" stroke="#ffffff" stroke-width="1e-7" opacity="1" class="highcharts-point"></rect><rect x="318.5" y="117.5" width="15" height="47" fill="#8AB77D" stroke="#ffffff" stroke-width="1e-7" opacity="1" class="highcharts-point"></rect><rect x="342.5" y="116.5" width="15" height="48" fill="#8AB77D" stroke="#ffffff" stroke-width="1e-7" opacity="1" class="highcharts-point"></rect><rect x="366.5" y="116.5" width="15" height="48" fill="#8AB77D" stroke="#ffffff" stroke-width="1e-7" opacity="1" class="highcharts-point"></rect><rect x="390.5" y="115.5" width="15" height="49" fill="#8AB77D" stroke="#ffffff" stroke-width="1e-7" opacity="1" class="highcharts-point"></rect></g><g class="highcharts-markers highcharts-series-3 highcharts-column-series" data-z-index="0.1" opacity="1" transform="translate(64,124) scale(1 1)" clip-path="none"></g><g class="highcharts-series highcharts-series-4 highcharts-line-series" data-z-index="0.1" opacity="1" transform="translate(64,124) scale(1 1)" clip-path="url(#highcharts-86ty1r9-110-)"><path fill="none" d="M 12.088235294118 66.942825 L 36.264705882353 72.64640625000001 L 60.441176470588 70.38796875 L 84.617647058824 64.719975 L 108.79411764706 64.9088625 L 132.97058823529 65.0347875 L 157.14705882353 62.8119375 L 181.32352941176 61.7771625 L 205.5 58.664625 L 229.67647058824 61.6704 L 253.85294117647 70.85334375 L 278.02941176471 71.78820000000002 L 302.20588235294 73.36363125 L 326.38235294118 74.84051250000002 L 350.55882352941 72.7107375 L 374.73529411765 71.29955625 L 398.91176470588 74.3532375" class="highcharts-graph" data-z-index="1" stroke="#000000" stroke-width="2" stroke-linejoin="round" stroke-linecap="round"></path></g><g class="highcharts-markers highcharts-series-4 highcharts-line-series" data-z-index="0.1" opacity="1" transform="translate(64,124) scale(1 1)" clip-path="none"></g></g><text x="10" text-anchor="start" class="highcharts-title" data-z-index="4" style="color:#000000;font-size:14px;font-weight:bold;fill:#000000;" y="21"><tspan>Zu- und Wegpendler nach Herkunft und Ziel</tspan></text><text x="10" text-anchor="start" class="highcharts-subtitle" data-z-index="4" style="color:#000000;font-size:12px;font-weight:normal;fill:#000000;" y="40"><tspan>Basel-Stadt</tspan></text><text x="10" text-anchor="start" class="highcharts-caption" data-z-index="4" style="color:#666666;fill:#666666;" y="390"></text><g class="highcharts-legend" data-z-index="7" transform="translate(56,56)"><rect fill="none" class="highcharts-legend-box" rx="0" ry="0" x="0" y="0" width="390" height="56" visibility="visible"></rect><g data-z-index="1"><g><g class="highcharts-legend-item highcharts-column-series highcharts-color-undefined highcharts-series-0" data-z-index="1" transform="translate(8,3)"><text x="21" style="color:#333333;cursor:pointer;font-size:12px;font-weight:normal;fill:#333333;" text-anchor="start" data-z-index="2" y="15"><tspan>Wegpendler in die Schweiz</tspan></text><rect x="2" y="4" width="12" height="12" fill="#246370" class="highcharts-point" data-z-index="3"></rect></g><g class="highcharts-legend-item highcharts-column-series highcharts-color-undefined highcharts-series-2" data-z-index="1" transform="translate(205,3)"><text x="21" y="15" style="color:#333333;cursor:pointer;font-size:12px;font-weight:normal;fill:#333333;" text-anchor="start" data-z-index="2"><tspan>Zupendler aus der Schweiz</tspan></text><rect x="2" y="4" width="12" height="12" fill="#007A2F" class="highcharts-point" data-z-index="3"></rect></g><g class="highcharts-legend-item highcharts-column-series highcharts-color-undefined highcharts-series-1" data-z-index="1" transform="translate(8,18)"><text x="21" y="15" style="color:#333333;cursor:pointer;font-size:12px;font-weight:normal;fill:#333333;" text-anchor="start" data-z-index="2"><tspan>Wegpendler ins Ausland</tspan></text><rect x="2" y="4" width="12" height="12" fill="#A8C3CA" class="highcharts-point" data-z-index="3"></rect></g><g class="highcharts-legend-item highcharts-column-series highcharts-color-undefined highcharts-series-3" data-z-index="1" transform="translate(205,18)"><text x="21" y="15" style="color:#333333;cursor:pointer;font-size:12px;font-weight:normal;fill:#333333;" text-anchor="start" data-z-index="2"><tspan>Zupendler aus dem Ausland</tspan></text><rect x="2" y="4" width="12" height="12" fill="#8AB77D" class="highcharts-point" data-z-index="3"></rect></g><g class="highcharts-legend-item highcharts-line-series highcharts-color-undefined highcharts-series-4" data-z-index="1" transform="translate(8,33)"><path fill="none" d="M 0 11 L 16 11" class="highcharts-graph" stroke="#000000" stroke-width="2"></path><text x="21" y="15" style="color:#333333;cursor:pointer;font-size:12px;font-weight:normal;fill:#333333;" text-anchor="start" data-z-index="2"><tspan>Saldo</tspan></text></g></g></g></g><g class="highcharts-axis-labels highcharts-xaxis-labels" data-z-index="7"><text x="78.68096015846803" style="color:#000000;cursor:default;font-size:11px;fill:#000000;" text-anchor="end" transform="translate(0,0) rotate(-45 78.68096015846803 359)" y="359" opacity="1">1990</text><text x="102.85743074670302" style="color:#000000;cursor:default;font-size:11px;fill:#000000;" text-anchor="end" transform="translate(0,0) rotate(-45 102.85743074670302 359)" y="359" opacity="1">2000</text><text x="127.03390133494304" style="color:#000000;cursor:default;font-size:11px;fill:#000000;" text-anchor="end" transform="translate(0,0) rotate(-45 127.03390133494304 359)" y="359" opacity="1">2010</text><text x="151.21037192317303" style="color:#000000;cursor:default;font-size:11px;fill:#000000;" text-anchor="end" transform="translate(0,0) rotate(-45 151.21037192317303 359)" y="359" opacity="1">2011</text><text x="175.38684251141302" style="color:#000000;cursor:default;font-size:11px;fill:#000000;" text-anchor="end" transform="translate(0,0) rotate(-45 175.38684251141302 359)" y="359" opacity="1">2012</text><text x="199.56331309964304" style="color:#000000;cursor:default;font-size:11px;fill:#000000;" text-anchor="end" transform="translate(0,0) rotate(-45 199.56331309964304 359)" y="359" opacity="1">2013</text><text x="223.73978368788303" style="color:#000000;cursor:default;font-size:11px;fill:#000000;" text-anchor="end" transform="translate(0,0) rotate(-45 223.73978368788303 359)" y="359" opacity="1">2014</text><text x="247.916254276113" style="color:#000000;cursor:default;font-size:11px;fill:#000000;" text-anchor="end" transform="translate(0,0) rotate(-45 247.916254276113 359)" y="359" opacity="1">2015</text><text x="272.09272486435304" style="color:#000000;cursor:default;font-size:11px;fill:#000000;" text-anchor="end" transform="translate(0,0) rotate(-45 272.09272486435304 359)" y="359" opacity="1">2016</text><text x="296.269195452583" style="color:#000000;cursor:default;font-size:11px;fill:#000000;" text-anchor="end" transform="translate(0,0) rotate(-45 296.269195452583 359)" y="359" opacity="1">2017</text><text x="320.445666040823" style="color:#000000;cursor:default;font-size:11px;fill:#000000;" text-anchor="end" transform="translate(0,0) rotate(-45 320.445666040823 359)" y="359" opacity="1">2018</text><text x="344.62213662905305" style="color:#000000;cursor:default;font-size:11px;fill:#000000;" text-anchor="end" transform="translate(0,0) rotate(-45 344.62213662905305 359)" y="359" opacity="1">2019</text><text x="368.798607217293" style="color:#000000;cursor:default;font-size:11px;fill:#000000;" text-anchor="end" transform="translate(0,0) rotate(-45 368.798607217293 359)" y="359" opacity="1">2020</text><text x="392.97507780552303" style="color:#000000;cursor:default;font-size:11px;fill:#000000;" text-anchor="end" transform="translate(0,0) rotate(-45 392.97507780552303 359)" y="359" opacity="1">2021</text><text x="417.15154839376305" style="color:#000000;cursor:default;font-size:11px;fill:#000000;" text-anchor="end" transform="translate(0,0) rotate(-45 417.15154839376305 359)" y="359" opacity="1">2022</text><text x="441.328018981993" style="color:#000000;cursor:default;font-size:11px;fill:#000000;" text-anchor="end" transform="translate(0,0) rotate(-45 441.328018981993 359)" y="359" opacity="1">2023</text><text x="465.50448957023303" style="color:#000000;cursor:default;font-size:11px;fill:#000000;" text-anchor="end" transform="translate(0,0) rotate(-45 465.50448957023303 359)" y="359" opacity="1">2024</text></g><g class="highcharts-axis-labels highcharts-yaxis-labels" data-z-index="7"><text x="49" style="color:#000000;cursor:default;font-size:11px;fill:#000000;" text-anchor="end" transform="translate(0,0)" y="347" opacity="1"><tspan>-40 000</tspan></text><text x="49" style="color:#000000;cursor:default;font-size:11px;fill:#000000;" text-anchor="end" transform="translate(0,0)" y="320" opacity="1"><tspan>-20 000</tspan></text><text x="49" style="color:#000000;cursor:default;font-size:11px;fill:#000000;" text-anchor="end" transform="translate(0,0)" y="292" opacity="1">0</text><text x="49" style="color:#000000;cursor:default;font-size:11px;fill:#000000;" text-anchor="end" transform="translate(0,0)" y="265" opacity="1"><tspan>20 000</tspan></text><text x="49" style="color:#000000;cursor:default;font-size:11px;fill:#000000;" text-anchor="end" transform="translate(0,0)" y="238" opacity="1"><tspan>40 000</tspan></text><text x="49" style="color:#000000;cursor:default;font-size:11px;fill:#000000;" text-anchor="end" transform="translate(0,0)" y="210" opacity="1"><tspan>60 000</tspan></text><text x="49" style="color:#000000;cursor:default;font-size:11px;fill:#000000;" text-anchor="end" transform="translate(0,0)" y="183" opacity="1"><tspan>80 000</tspan></text><text x="49" style="color:#000000;cursor:default;font-size:11px;fill:#000000;" text-anchor="end" transform="translate(0,0)" y="155" opacity="1"><tspan>100 000</tspan></text><text x="49" style="color:#000000;cursor:default;font-size:11px;fill:#000000;" text-anchor="end" transform="translate(0,0)" y="128" opacity="1"><tspan>120 000</tspan></text></g><text x="10" class="highcharts-credits" text-anchor="start" data-z-index="8" style="cursor:default;color:#000000;font-size:10px;fill:#000000;" y="393"><tspan>Quelle: Bundesamt für Statistik (BFS), Strukturerhebung (SE);</tspan><tspan x="10" dy="13">Bundesamt für Statistik (BFS), Volkszählung (VZ).</tspan><tspan x="10" dy="13">Zuletzt geändert: 13.7.2026</tspan></text><g class="highcharts-control-points" data-z-index="99" clip-path="url(#highcharts-86ty1r9-179-)"></g></svg>