<svg version="1.1" class="highcharts-root" style="font-family: Arial; font-size: 1rem;" xmlns="http://www.w3.org/2000/svg" width="600" height="400" viewBox="0 0 600 400" role="img" aria-label="Siedlungsabfälle, Wertstoffsammlungen, Recyclingquote"><desc>Created with Highcharts 12.5.0</desc><defs><filter id="highcharts-drop-shadow-0"><feDropShadow dx="1" dy="1" flood-color="#000000" flood-opacity="0.75" stdDeviation="2.5"></feDropShadow></filter><clipPath id="highcharts-y7i7e3z-34-"><rect x="0" y="0" width="486" height="186" fill="none"></rect></clipPath><clipPath id="highcharts-y7i7e3z-83-"><rect x="0" y="0" width="486" height="186" fill="none"></rect></clipPath></defs><rect fill="#ffffff" class="highcharts-background" filter="none" x="0" y="0" width="600" height="400" rx="0" ry="0"></rect><rect fill="none" class="highcharts-plot-background" x="63" y="144" width="486" height="186" filter="none"></rect><g class="highcharts-pane-group" data-z-index="0"></g><g class="highcharts-grid highcharts-xaxis-grid" data-z-index="1"><path fill="none" stroke="#e6e6e6" stroke-width="0" stroke-dasharray="none" data-z-index="1" class="highcharts-grid-line" d="M 73.5 144 L 73.5 330" opacity="1"></path><path fill="none" stroke="#e6e6e6" stroke-width="0" stroke-dasharray="none" data-z-index="1" class="highcharts-grid-line" d="M 113.5 144 L 113.5 330" opacity="1"></path><path fill="none" stroke="#e6e6e6" stroke-width="0" stroke-dasharray="none" data-z-index="1" class="highcharts-grid-line" d="M 154.5 144 L 154.5 330" opacity="1"></path><path fill="none" stroke="#e6e6e6" stroke-width="0" stroke-dasharray="none" data-z-index="1" class="highcharts-grid-line" d="M 194.5 144 L 194.5 330" opacity="1"></path><path fill="none" stroke="#e6e6e6" stroke-width="0" stroke-dasharray="none" data-z-index="1" class="highcharts-grid-line" d="M 235.5 144 L 235.5 330" opacity="1"></path><path fill="none" stroke="#e6e6e6" stroke-width="0" stroke-dasharray="none" data-z-index="1" class="highcharts-grid-line" d="M 275.5 144 L 275.5 330" opacity="1"></path><path fill="none" stroke="#e6e6e6" stroke-width="0" stroke-dasharray="none" data-z-index="1" class="highcharts-grid-line" d="M 316.5 144 L 316.5 330" opacity="1"></path><path fill="none" stroke="#e6e6e6" stroke-width="0" stroke-dasharray="none" data-z-index="1" class="highcharts-grid-line" d="M 356.5 144 L 356.5 330" opacity="1"></path><path fill="none" stroke="#e6e6e6" stroke-width="0" stroke-dasharray="none" data-z-index="1" class="highcharts-grid-line" d="M 397.5 144 L 397.5 330" opacity="1"></path><path fill="none" stroke="#e6e6e6" stroke-width="0" stroke-dasharray="none" data-z-index="1" class="highcharts-grid-line" d="M 437.5 144 L 437.5 330" opacity="1"></path><path fill="none" stroke="#e6e6e6" stroke-width="0" stroke-dasharray="none" data-z-index="1" class="highcharts-grid-line" d="M 478.5 144 L 478.5 330" opacity="1"></path><path fill="none" stroke="#e6e6e6" stroke-width="0" stroke-dasharray="none" data-z-index="1" class="highcharts-grid-line" d="M 518.5 144 L 518.5 330" opacity="1"></path></g><g class="highcharts-grid highcharts-yaxis-grid" data-z-index="1"><path fill="none" stroke="#e6e6e6" stroke-width="1" stroke-dasharray="none" data-z-index="1" class="highcharts-grid-line" d="M 63 330.5 L 549 330.5" opacity="1"></path><path fill="none" stroke="#e6e6e6" stroke-width="1" stroke-dasharray="none" data-z-index="1" class="highcharts-grid-line" d="M 63 268.5 L 549 268.5" opacity="1"></path><path fill="none" stroke="#e6e6e6" stroke-width="1" stroke-dasharray="none" data-z-index="1" class="highcharts-grid-line" d="M 63 206.5 L 549 206.5" opacity="1"></path><path fill="none" stroke="#e6e6e6" stroke-width="1" stroke-dasharray="none" data-z-index="1" class="highcharts-grid-line" d="M 63 144.5 L 549 144.5" opacity="1"></path></g><g class="highcharts-grid highcharts-yaxis-grid" data-z-index="1"><path fill="none" stroke="#e6e6e6" stroke-width="1" stroke-dasharray="none" data-z-index="1" class="highcharts-grid-line" d="M 63 330.5 L 549 330.5" opacity="1"></path><path fill="none" stroke="#e6e6e6" stroke-width="1" stroke-dasharray="none" data-z-index="1" class="highcharts-grid-line" d="M 63 268.5 L 549 268.5" opacity="1"></path><path fill="none" stroke="#e6e6e6" stroke-width="1" stroke-dasharray="none" data-z-index="1" class="highcharts-grid-line" d="M 63 206.5 L 549 206.5" opacity="1"></path><path fill="none" stroke="#e6e6e6" stroke-width="1" stroke-dasharray="none" data-z-index="1" class="highcharts-grid-line" d="M 63 144.5 L 549 144.5" opacity="1"></path></g><rect fill="none" class="highcharts-plot-border" data-z-index="1" stroke="#cccccc" stroke-width="0" x="63" y="144" width="486" height="186"></rect><g class="highcharts-axis highcharts-xaxis" data-z-index="2"><path fill="none" class="highcharts-axis-line" stroke="#B9CFD7" stroke-width="0.5" data-z-index="7" d="M 63 330.25 L 549 330.25"></path></g><g class="highcharts-axis highcharts-yaxis" data-z-index="2"><path fill="none" class="highcharts-axis-line" stroke="#333333" stroke-width="0" data-z-index="7" d="M 63 144 L 63 330"></path></g><g class="highcharts-axis highcharts-yaxis" data-z-index="2"><path fill="none" class="highcharts-axis-line" stroke="#333333" stroke-width="0" data-z-index="7" d="M 549 144 L 549 330"></path></g><g class="highcharts-series-group" data-z-index="3" filter="none"><g class="highcharts-series highcharts-series-0 highcharts-column-series highcharts-tracker" data-z-index="0.1" opacity="1" transform="translate(63,144) scale(1 1)" clip-path="url(#highcharts-y7i7e3z-34-)"><path fill="#71A3B5" d="M 8 14 L 12 14 A 3 3 0 0 1 15 17 L 15 86 A 0 0 0 0 1 15 86 L 5 86 A 0 0 0 0 1 5 86 L 5 17 A 3 3 0 0 1 8 14 Z" stroke="#ffffff" stroke-width="0" opacity="1" filter="none" class="highcharts-point"></path><path fill="#71A3B5" d="M 28 17 L 32 17 A 3 3 0 0 1 35 20 L 35 88 A 0 0 0 0 1 35 88 L 25 88 A 0 0 0 0 1 25 88 L 25 20 A 3 3 0 0 1 28 17 Z" stroke="#ffffff" stroke-width="0" opacity="1" filter="none" class="highcharts-point"></path><path fill="#71A3B5" d="M 49 17 L 53 17 A 3 3 0 0 1 56 20 L 56 87 A 0 0 0 0 1 56 87 L 46 87 A 0 0 0 0 1 46 87 L 46 20 A 3 3 0 0 1 49 17 Z" stroke="#ffffff" stroke-width="0" opacity="1" filter="none" class="highcharts-point"></path><path fill="#71A3B5" d="M 69 22 L 73 22 A 3 3 0 0 1 76 25 L 76 91 A 0 0 0 0 1 76 91 L 66 91 A 0 0 0 0 1 66 91 L 66 25 A 3 3 0 0 1 69 22 Z" stroke="#ffffff" stroke-width="0" opacity="1" filter="none" class="highcharts-point"></path><path fill="#71A3B5" d="M 89 20 L 93 20 A 3 3 0 0 1 96 23 L 96 91 A 0 0 0 0 1 96 91 L 86 91 A 0 0 0 0 1 86 91 L 86 23 A 3 3 0 0 1 89 20 Z" stroke="#ffffff" stroke-width="0" opacity="1" filter="none" class="highcharts-point"></path><path fill="#71A3B5" d="M 109 19 L 113 19 A 3 3 0 0 1 116 22 L 116 93 A 0 0 0 0 1 116 93 L 106 93 A 0 0 0 0 1 106 93 L 106 22 A 3 3 0 0 1 109 19 Z" stroke="#ffffff" stroke-width="0" opacity="1" filter="none" class="highcharts-point"></path><path fill="#71A3B5" d="M 130 19 L 134 19 A 3 3 0 0 1 137 22 L 137 94 A 0 0 0 0 1 137 94 L 127 94 A 0 0 0 0 1 127 94 L 127 22 A 3 3 0 0 1 130 19 Z" stroke="#ffffff" stroke-width="0" opacity="1" filter="none" class="highcharts-point"></path><path fill="#71A3B5" d="M 150 19 L 154 19 A 3 3 0 0 1 157 22 L 157 94 A 0 0 0 0 1 157 94 L 147 94 A 0 0 0 0 1 147 94 L 147 22 A 3 3 0 0 1 150 19 Z" stroke="#ffffff" stroke-width="0" opacity="1" filter="none" class="highcharts-point"></path><path fill="#71A3B5" d="M 170 17 L 174 17 A 3 3 0 0 1 177 20 L 177 97 A 0 0 0 0 1 177 97 L 167 97 A 0 0 0 0 1 167 97 L 167 20 A 3 3 0 0 1 170 17 Z" stroke="#ffffff" stroke-width="0" opacity="1" filter="none" class="highcharts-point"></path><path fill="#71A3B5" d="M 190 12 L 194 12 A 3 3 0 0 1 197 15 L 197 90 A 0 0 0 0 1 197 90 L 187 90 A 0 0 0 0 1 187 90 L 187 15 A 3 3 0 0 1 190 12 Z" stroke="#ffffff" stroke-width="0" opacity="1" filter="none" class="highcharts-point"></path><path fill="#71A3B5" d="M 211 18 L 215 18 A 3 3 0 0 1 218 21 L 218 95 A 0 0 0 0 1 218 95 L 208 95 A 0 0 0 0 1 208 95 L 208 21 A 3 3 0 0 1 211 18 Z" stroke="#ffffff" stroke-width="0" opacity="1" filter="none" class="highcharts-point"></path><path fill="#71A3B5" d="M 231 26 L 235 26 A 3 3 0 0 1 238 29 L 238 101 A 0 0 0 0 1 238 101 L 228 101 A 0 0 0 0 1 228 101 L 228 29 A 3 3 0 0 1 231 26 Z" stroke="#ffffff" stroke-width="0" opacity="1" filter="none" class="highcharts-point"></path><path fill="#71A3B5" d="M 251 20 L 255 20 A 3 3 0 0 1 258 23 L 258 99 A 0 0 0 0 1 258 99 L 248 99 A 0 0 0 0 1 248 99 L 248 23 A 3 3 0 0 1 251 20 Z" stroke="#ffffff" stroke-width="0" opacity="1" filter="none" class="highcharts-point"></path><path fill="#71A3B5" d="M 271 27 L 275 27 A 3 3 0 0 1 278 30 L 278 102 A 0 0 0 0 1 278 102 L 268 102 A 0 0 0 0 1 268 102 L 268 30 A 3 3 0 0 1 271 27 Z" stroke="#ffffff" stroke-width="0" opacity="1" filter="none" class="highcharts-point"></path><path fill="#71A3B5" d="M 292 26 L 296 26 A 3 3 0 0 1 299 29 L 299 100 A 0 0 0 0 1 299 100 L 289 100 A 0 0 0 0 1 289 100 L 289 29 A 3 3 0 0 1 292 26 Z" stroke="#ffffff" stroke-width="0" opacity="1" filter="none" class="highcharts-point"></path><path fill="#71A3B5" d="M 312 26 L 316 26 A 3 3 0 0 1 319 29 L 319 99 A 0 0 0 0 1 319 99 L 309 99 A 0 0 0 0 1 309 99 L 309 29 A 3 3 0 0 1 312 26 Z" stroke="#ffffff" stroke-width="0" opacity="1" filter="none" class="highcharts-point"></path><path fill="#71A3B5" d="M 332 32 L 336 32 A 3 3 0 0 1 339 35 L 339 103 A 0 0 0 0 1 339 103 L 329 103 A 0 0 0 0 1 329 103 L 329 35 A 3 3 0 0 1 332 32 Z" stroke="#ffffff" stroke-width="0" opacity="1" filter="none" class="highcharts-point"></path><path fill="#71A3B5" d="M 352 36 L 356 36 A 3 3 0 0 1 359 39 L 359 104 A 0 0 0 0 1 359 104 L 349 104 A 0 0 0 0 1 349 104 L 349 39 A 3 3 0 0 1 352 36 Z" stroke="#ffffff" stroke-width="0" opacity="1" filter="none" class="highcharts-point"></path><path fill="#71A3B5" d="M 373 37 L 377 37 A 3 3 0 0 1 380 40 L 380 102 A 0 0 0 0 1 380 102 L 370 102 A 0 0 0 0 1 370 102 L 370 40 A 3 3 0 0 1 373 37 Z" stroke="#ffffff" stroke-width="0" opacity="1" filter="none" class="highcharts-point"></path><path fill="#71A3B5" d="M 393 40 L 397 40 A 3 3 0 0 1 400 43 L 400 105 A 0 0 0 0 1 400 105 L 390 105 A 0 0 0 0 1 390 105 L 390 43 A 3 3 0 0 1 393 40 Z" stroke="#ffffff" stroke-width="0" opacity="1" filter="none" class="highcharts-point"></path><path fill="#71A3B5" d="M 413 39 L 417 39 A 3 3 0 0 1 420 42 L 420 104 A 0 0 0 0 1 420 104 L 410 104 A 0 0 0 0 1 410 104 L 410 42 A 3 3 0 0 1 413 39 Z" stroke="#ffffff" stroke-width="0" opacity="1" filter="none" class="highcharts-point"></path><path fill="#71A3B5" d="M 433 39 L 437 39 A 3 3 0 0 1 440 42 L 440 104 A 0 0 0 0 1 440 104 L 430 104 A 0 0 0 0 1 430 104 L 430 42 A 3 3 0 0 1 433 39 Z" stroke="#ffffff" stroke-width="0" opacity="1" filter="none" class="highcharts-point"></path><path fill="#71A3B5" d="M 454 47 L 458 47 A 3 3 0 0 1 461 50 L 461 108 A 0 0 0 0 1 461 108 L 451 108 A 0 0 0 0 1 451 108 L 451 50 A 3 3 0 0 1 454 47 Z" stroke="#ffffff" stroke-width="0" opacity="1" filter="none" class="highcharts-point"></path><path fill="#71A3B5" d="M 474 51 L 478 51 A 3 3 0 0 1 481 54 L 481 109 A 0 0 0 0 1 481 109 L 471 109 A 0 0 0 0 1 471 109 L 471 54 A 3 3 0 0 1 474 51 Z" stroke="#ffffff" stroke-width="0" opacity="1" filter="none" class="highcharts-point"></path></g><g class="highcharts-markers highcharts-series-0 highcharts-column-series" data-z-index="0.1" opacity="1" transform="translate(63,144) scale(1 1)" clip-path="none"></g><g class="highcharts-series highcharts-series-1 highcharts-column-series highcharts-tracker" data-z-index="0.1" opacity="1" transform="translate(63,144) scale(1 1)" clip-path="url(#highcharts-y7i7e3z-34-)"><path fill="#990300" d="M 5 86 L 15 86 A 0 0 0 0 1 15 86 L 15 186 A 0 0 0 0 1 15 186 L 5 186 A 0 0 0 0 1 5 186 L 5 86 A 0 0 0 0 1 5 86 Z" stroke="#ffffff" stroke-width="0" opacity="1" filter="none" class="highcharts-point"></path><path fill="#990300" d="M 25 88 L 35 88 A 0 0 0 0 1 35 88 L 35 186 A 0 0 0 0 1 35 186 L 25 186 A 0 0 0 0 1 25 186 L 25 88 A 0 0 0 0 1 25 88 Z" stroke="#ffffff" stroke-width="0" opacity="1" filter="none" class="highcharts-point"></path><path fill="#990300" d="M 46 87 L 56 87 A 0 0 0 0 1 56 87 L 56 186 A 0 0 0 0 1 56 186 L 46 186 A 0 0 0 0 1 46 186 L 46 87 A 0 0 0 0 1 46 87 Z" stroke="#ffffff" stroke-width="0" opacity="1" filter="none" class="highcharts-point"></path><path fill="#990300" d="M 66 91 L 76 91 A 0 0 0 0 1 76 91 L 76 186 A 0 0 0 0 1 76 186 L 66 186 A 0 0 0 0 1 66 186 L 66 91 A 0 0 0 0 1 66 91 Z" stroke="#ffffff" stroke-width="0" opacity="1" filter="none" class="highcharts-point"></path><path fill="#990300" d="M 86 91 L 96 91 A 0 0 0 0 1 96 91 L 96 186 A 0 0 0 0 1 96 186 L 86 186 A 0 0 0 0 1 86 186 L 86 91 A 0 0 0 0 1 86 91 Z" stroke="#ffffff" stroke-width="0" opacity="1" filter="none" class="highcharts-point"></path><path fill="#990300" d="M 106 93 L 116 93 A 0 0 0 0 1 116 93 L 116 186 A 0 0 0 0 1 116 186 L 106 186 A 0 0 0 0 1 106 186 L 106 93 A 0 0 0 0 1 106 93 Z" stroke="#ffffff" stroke-width="0" opacity="1" filter="none" class="highcharts-point"></path><path fill="#990300" d="M 127 94 L 137 94 A 0 0 0 0 1 137 94 L 137 186 A 0 0 0 0 1 137 186 L 127 186 A 0 0 0 0 1 127 186 L 127 94 A 0 0 0 0 1 127 94 Z" stroke="#ffffff" stroke-width="0" opacity="1" filter="none" class="highcharts-point"></path><path fill="#990300" d="M 147 94 L 157 94 A 0 0 0 0 1 157 94 L 157 186 A 0 0 0 0 1 157 186 L 147 186 A 0 0 0 0 1 147 186 L 147 94 A 0 0 0 0 1 147 94 Z" stroke="#ffffff" stroke-width="0" opacity="1" filter="none" class="highcharts-point"></path><path fill="#990300" d="M 167 97 L 177 97 A 0 0 0 0 1 177 97 L 177 186 A 0 0 0 0 1 177 186 L 167 186 A 0 0 0 0 1 167 186 L 167 97 A 0 0 0 0 1 167 97 Z" stroke="#ffffff" stroke-width="0" opacity="1" filter="none" class="highcharts-point"></path><path fill="#990300" d="M 187 90 L 197 90 A 0 0 0 0 1 197 90 L 197 186 A 0 0 0 0 1 197 186 L 187 186 A 0 0 0 0 1 187 186 L 187 90 A 0 0 0 0 1 187 90 Z" stroke="#ffffff" stroke-width="0" opacity="1" filter="none" class="highcharts-point"></path><path fill="#990300" d="M 208 95 L 218 95 A 0 0 0 0 1 218 95 L 218 186 A 0 0 0 0 1 218 186 L 208 186 A 0 0 0 0 1 208 186 L 208 95 A 0 0 0 0 1 208 95 Z" stroke="#ffffff" stroke-width="0" opacity="1" filter="none" class="highcharts-point"></path><path fill="#990300" d="M 228 101 L 238 101 A 0 0 0 0 1 238 101 L 238 186 A 0 0 0 0 1 238 186 L 228 186 A 0 0 0 0 1 228 186 L 228 101 A 0 0 0 0 1 228 101 Z" stroke="#ffffff" stroke-width="0" opacity="1" filter="none" class="highcharts-point"></path><path fill="#990300" d="M 248 99 L 258 99 A 0 0 0 0 1 258 99 L 258 186 A 0 0 0 0 1 258 186 L 248 186 A 0 0 0 0 1 248 186 L 248 99 A 0 0 0 0 1 248 99 Z" stroke="#ffffff" stroke-width="0" opacity="1" filter="none" class="highcharts-point"></path><path fill="#990300" d="M 268 102 L 278 102 A 0 0 0 0 1 278 102 L 278 186 A 0 0 0 0 1 278 186 L 268 186 A 0 0 0 0 1 268 186 L 268 102 A 0 0 0 0 1 268 102 Z" stroke="#ffffff" stroke-width="0" opacity="1" filter="none" class="highcharts-point"></path><path fill="#990300" d="M 289 100 L 299 100 A 0 0 0 0 1 299 100 L 299 186 A 0 0 0 0 1 299 186 L 289 186 A 0 0 0 0 1 289 186 L 289 100 A 0 0 0 0 1 289 100 Z" stroke="#ffffff" stroke-width="0" opacity="1" filter="none" class="highcharts-point"></path><path fill="#990300" d="M 309 99 L 319 99 A 0 0 0 0 1 319 99 L 319 186 A 0 0 0 0 1 319 186 L 309 186 A 0 0 0 0 1 309 186 L 309 99 A 0 0 0 0 1 309 99 Z" stroke="#ffffff" stroke-width="0" opacity="1" filter="none" class="highcharts-point"></path><path fill="#990300" d="M 329 103 L 339 103 A 0 0 0 0 1 339 103 L 339 186 A 0 0 0 0 1 339 186 L 329 186 A 0 0 0 0 1 329 186 L 329 103 A 0 0 0 0 1 329 103 Z" stroke="#ffffff" stroke-width="0" opacity="1" filter="none" class="highcharts-point"></path><path fill="#990300" d="M 349 104 L 359 104 A 0 0 0 0 1 359 104 L 359 186 A 0 0 0 0 1 359 186 L 349 186 A 0 0 0 0 1 349 186 L 349 104 A 0 0 0 0 1 349 104 Z" stroke="#ffffff" stroke-width="0" opacity="1" filter="none" class="highcharts-point"></path><path fill="#990300" d="M 370 102 L 380 102 A 0 0 0 0 1 380 102 L 380 186 A 0 0 0 0 1 380 186 L 370 186 A 0 0 0 0 1 370 186 L 370 102 A 0 0 0 0 1 370 102 Z" stroke="#ffffff" stroke-width="0" opacity="1" filter="none" class="highcharts-point"></path><path fill="#990300" d="M 390 105 L 400 105 A 0 0 0 0 1 400 105 L 400 186 A 0 0 0 0 1 400 186 L 390 186 A 0 0 0 0 1 390 186 L 390 105 A 0 0 0 0 1 390 105 Z" stroke="#ffffff" stroke-width="0" opacity="1" filter="none" class="highcharts-point"></path><path fill="#990300" d="M 410 104 L 420 104 A 0 0 0 0 1 420 104 L 420 186 A 0 0 0 0 1 420 186 L 410 186 A 0 0 0 0 1 410 186 L 410 104 A 0 0 0 0 1 410 104 Z" stroke="#ffffff" stroke-width="0" opacity="1" filter="none" class="highcharts-point"></path><path fill="#990300" d="M 430 104 L 440 104 A 0 0 0 0 1 440 104 L 440 186 A 0 0 0 0 1 440 186 L 430 186 A 0 0 0 0 1 430 186 L 430 104 A 0 0 0 0 1 430 104 Z" stroke="#ffffff" stroke-width="0" opacity="1" filter="none" class="highcharts-point"></path><path fill="#990300" d="M 451 108 L 461 108 A 0 0 0 0 1 461 108 L 461 186 A 0 0 0 0 1 461 186 L 451 186 A 0 0 0 0 1 451 186 L 451 108 A 0 0 0 0 1 451 108 Z" stroke="#ffffff" stroke-width="0" opacity="1" filter="none" class="highcharts-point"></path><path fill="#990300" d="M 471 109 L 481 109 A 0 0 0 0 1 481 109 L 481 186 A 0 0 0 0 1 481 186 L 471 186 A 0 0 0 0 1 471 186 L 471 109 A 0 0 0 0 1 471 109 Z" stroke="#ffffff" stroke-width="0" opacity="1" filter="none" class="highcharts-point"></path></g><g class="highcharts-markers highcharts-series-1 highcharts-column-series" data-z-index="0.1" opacity="1" transform="translate(63,144) scale(1 1)" clip-path="none"></g><g class="highcharts-series highcharts-series-2 highcharts-line-series" data-z-index="0.1" opacity="1" transform="translate(63,144) scale(1 1)" clip-path="url(#highcharts-y7i7e3z-83-)"><path fill="none" d="M 10.125 60.14 L 30.375 60.14 L 50.625 63.55 L 70.875 60.76 L 91.125 59.52 L 111.375 55.18 L 131.625 54.56 L 151.875 53.94 L 172.125 45.88 L 192.375 55.8 L 212.625 53.01 L 232.875 49.91 L 253.125 47.43 L 273.375 49.6 L 293.625 51.46 L 313.875 54.25 L 334.125 53.01 L 354.375 54.56 L 374.625 61.07 L 394.875 56.42 L 415.125 57.35 L 435.375 57.97 L 455.625 61.07 L 475.875 63.55" class="highcharts-graph" data-z-index="1" stroke="#000000" stroke-width="2" stroke-linejoin="round" stroke-linecap="round" filter="none"></path><path fill="none" d="M 10.125 60.14 L 30.375 60.14 L 50.625 63.55 L 70.875 60.76 L 91.125 59.52 L 111.375 55.18 L 131.625 54.56 L 151.875 53.94 L 172.125 45.88 L 192.375 55.8 L 212.625 53.01 L 232.875 49.91 L 253.125 47.43 L 273.375 49.6 L 293.625 51.46 L 313.875 54.25 L 334.125 53.01 L 354.375 54.56 L 374.625 61.07 L 394.875 56.42 L 415.125 57.35 L 435.375 57.97 L 455.625 61.07 L 475.875 63.55" data-z-index="2" class="highcharts-tracker-line" stroke-linecap="round" stroke-linejoin="round" stroke="rgba(192,192,192,0.0001)" stroke-width="22"></path></g><g class="highcharts-markers highcharts-series-2 highcharts-line-series highcharts-tracker" data-z-index="0.1" opacity="1" transform="translate(63,144) scale(1 1)" clip-path="none"></g></g><text x="10" text-anchor="start" class="highcharts-caption" data-z-index="4" style="font-size: 0.8em; fill: rgb(102, 102, 102);" text-align="left" y="372" transform-origin="10 15" transform="translate(0,0) scale(1 1)"></text><g class="highcharts-axis-labels highcharts-xaxis-labels" data-z-index="7"><text x="73.125" text-anchor="middle" transform="translate(0,0)" style="cursor: default; font-size: 0.8em; fill: rgb(0, 0, 0);" y="357" opacity="1">2000</text><text x="113.625" text-anchor="middle" transform="translate(0,0)" style="cursor: default; font-size: 0.8em; fill: rgb(0, 0, 0);" y="357" opacity="1">2002</text><text x="154.125" text-anchor="middle" transform="translate(0,0)" style="cursor: default; font-size: 0.8em; fill: rgb(0, 0, 0);" y="357" opacity="1">2004</text><text x="194.625" text-anchor="middle" transform="translate(0,0)" style="cursor: default; font-size: 0.8em; fill: rgb(0, 0, 0);" y="357" opacity="1">2006</text><text x="235.125" text-anchor="middle" transform="translate(0,0)" style="cursor: default; font-size: 0.8em; fill: rgb(0, 0, 0);" y="357" opacity="1">2008</text><text x="275.625" text-anchor="middle" transform="translate(0,0)" style="cursor: default; font-size: 0.8em; fill: rgb(0, 0, 0);" y="357" opacity="1">2010</text><text x="316.125" text-anchor="middle" transform="translate(0,0)" style="cursor: default; font-size: 0.8em; fill: rgb(0, 0, 0);" y="357" opacity="1">2012</text><text x="356.625" text-anchor="middle" transform="translate(0,0)" style="cursor: default; font-size: 0.8em; fill: rgb(0, 0, 0);" y="357" opacity="1">2014</text><text x="397.125" text-anchor="middle" transform="translate(0,0)" style="cursor: default; font-size: 0.8em; fill: rgb(0, 0, 0);" y="357" opacity="1">2016</text><text x="437.625" text-anchor="middle" transform="translate(0,0)" style="cursor: default; font-size: 0.8em; fill: rgb(0, 0, 0);" y="357" opacity="1">2018</text><text x="478.125" text-anchor="middle" transform="translate(0,0)" style="cursor: default; font-size: 0.8em; fill: rgb(0, 0, 0);" y="357" opacity="1">2020</text><text x="518.625" text-anchor="middle" transform="translate(0,0)" style="cursor: default; font-size: 0.8em; fill: rgb(0, 0, 0);" y="357" opacity="1">2022</text></g><g class="highcharts-axis-labels highcharts-yaxis-labels" data-z-index="7"><text x="48" text-anchor="end" transform="translate(0,0)" style="cursor: default; font-size: 0.8em; fill: rgb(0, 0, 0);" y="335" opacity="1">0 kg</text><text x="48" text-anchor="end" transform="translate(0,0)" style="cursor: default; font-size: 0.8em; fill: rgb(0, 0, 0);" y="273" opacity="1">120 kg</text><text x="48" text-anchor="end" transform="translate(0,0)" style="cursor: default; font-size: 0.8em; fill: rgb(0, 0, 0);" y="211" opacity="1">240 kg</text><text x="48" text-anchor="end" transform="translate(0,0)" style="cursor: default; font-size: 0.8em; fill: rgb(0, 0, 0);" y="149" opacity="1">360 kg</text></g><g class="highcharts-axis-labels highcharts-yaxis-labels" data-z-index="7"><text x="564" text-anchor="start" transform="translate(0,0)" style="cursor: default; font-size: 0.8em; fill: rgb(0, 0, 0);" y="335" opacity="1">0%</text><text x="564" text-anchor="start" transform="translate(0,0)" style="cursor: default; font-size: 0.8em; fill: rgb(0, 0, 0);" y="273" opacity="1">20%</text><text x="564" text-anchor="start" transform="translate(0,0)" style="cursor: default; font-size: 0.8em; fill: rgb(0, 0, 0);" y="211" opacity="1">40%</text><text x="564" text-anchor="start" transform="translate(0,0)" style="cursor: default; font-size: 0.8em; fill: rgb(0, 0, 0);" y="149" opacity="1">60%</text></g><g class="highcharts-legend highcharts-no-tooltip" data-z-index="7" text-align="left" transform="translate(55,55)"><rect fill="none" class="highcharts-legend-box" rx="0" ry="0" stroke="#999999" stroke-width="0" filter="none" x="0" y="0" width="496" height="77"></rect><g data-z-index="1"><g><g class="highcharts-legend-item highcharts-column-series highcharts-color-undefined highcharts-series-1" data-z-index="1" transform="translate(8,3)"><text x="21" text-anchor="start" data-z-index="2" style="cursor: pointer; font-size: 0.8em; text-decoration: none; font-weight: normal; fill: rgb(51, 51, 51);" y="17">Siedlungsabfälle (Hauskehricht und Sperrgut)</text><rect x="2" y="6" rx="0" ry="0" width="12" height="12" fill="#990300" class="highcharts-point" data-z-index="3"></rect></g><g class="highcharts-legend-item highcharts-column-series highcharts-color-undefined highcharts-series-0" data-z-index="1" transform="translate(8,25)"><text x="21" y="17" text-anchor="start" data-z-index="2" style="cursor: pointer; font-size: 0.8em; text-decoration: none; font-weight: normal; fill: rgb(51, 51, 51);">Wertstoffsammlungen</text><rect x="2" y="6" rx="0" ry="0" width="12" height="12" fill="#71A3B5" class="highcharts-point" data-z-index="3"></rect></g><g class="highcharts-legend-item highcharts-line-series highcharts-color-undefined highcharts-series-2" data-z-index="1" transform="translate(8,47)"><path fill="none" class="highcharts-graph" stroke-width="2" stroke-linecap="round" d="M 1 13 L 15 13" stroke="#000000"></path><text x="21" y="17" text-anchor="start" data-z-index="2" style="cursor: pointer; font-size: 0.8em; text-decoration: none; font-weight: normal; fill: rgb(51, 51, 51);">Recyclingquote (rechte Skala)</text></g></g></g></g></svg>