<svg version="1.1" class="highcharts-root" style="font-family: Inter, &quot;Helvetica Neue&quot;, Helvetica, Arial, sans-serif; font-size: 1rem;" xmlns="http://www.w3.org/2000/svg" width="600" height="400" viewBox="0 0 600 400" role="img" aria-label="Mittlere Wohnfläche pro Person"><desc>Created with Highcharts 12.5.0</desc><defs><filter id="highcharts-drop-shadow-0"><feDropShadow dx="1" dy="1" flood-color="#000000" flood-opacity="0.75" stdDeviation="2.5"></feDropShadow></filter><clipPath id="highcharts-wp10p7x-150-"><rect x="0" y="0" width="551" height="245" fill="none"></rect></clipPath></defs><rect fill="#ffffff" class="highcharts-background" filter="none" x="0" y="0" width="600" height="400" rx="0" ry="0"></rect><rect fill="none" class="highcharts-plot-background" x="39" y="60" width="551" height="245" filter="none"></rect><g class="highcharts-pane-group" data-z-index="0"></g><g class="highcharts-grid highcharts-xaxis-grid" data-z-index="1"><path fill="none" stroke="#e6e6e6" stroke-width="0" stroke-dasharray="none" data-z-index="1" class="highcharts-grid-line" d="M 50.5 60 L 50.5 305" opacity="1"></path><path fill="none" stroke="#e6e6e6" stroke-width="0" stroke-dasharray="none" data-z-index="1" class="highcharts-grid-line" d="M 85.5 60 L 85.5 305" opacity="1"></path><path fill="none" stroke="#e6e6e6" stroke-width="0" stroke-dasharray="none" data-z-index="1" class="highcharts-grid-line" d="M 120.5 60 L 120.5 305" opacity="1"></path><path fill="none" stroke="#e6e6e6" stroke-width="0" stroke-dasharray="none" data-z-index="1" class="highcharts-grid-line" d="M 155.5 60 L 155.5 305" opacity="1"></path><path fill="none" stroke="#e6e6e6" stroke-width="0" stroke-dasharray="none" data-z-index="1" class="highcharts-grid-line" d="M 191.5 60 L 191.5 305" opacity="1"></path><path fill="none" stroke="#e6e6e6" stroke-width="0" stroke-dasharray="none" data-z-index="1" class="highcharts-grid-line" d="M 226.5 60 L 226.5 305" opacity="1"></path><path fill="none" stroke="#e6e6e6" stroke-width="0" stroke-dasharray="none" data-z-index="1" class="highcharts-grid-line" d="M 261.5 60 L 261.5 305" opacity="1"></path><path fill="none" stroke="#e6e6e6" stroke-width="0" stroke-dasharray="none" data-z-index="1" class="highcharts-grid-line" d="M 296.5 60 L 296.5 305" opacity="1"></path><path fill="none" stroke="#e6e6e6" stroke-width="0" stroke-dasharray="none" data-z-index="1" class="highcharts-grid-line" d="M 332.5 60 L 332.5 305" opacity="1"></path><path fill="none" stroke="#e6e6e6" stroke-width="0" stroke-dasharray="none" data-z-index="1" class="highcharts-grid-line" d="M 367.5 60 L 367.5 305" opacity="1"></path><path fill="none" stroke="#e6e6e6" stroke-width="0" stroke-dasharray="none" data-z-index="1" class="highcharts-grid-line" d="M 402.5 60 L 402.5 305" opacity="1"></path><path fill="none" stroke="#e6e6e6" stroke-width="0" stroke-dasharray="none" data-z-index="1" class="highcharts-grid-line" d="M 437.5 60 L 437.5 305" opacity="1"></path><path fill="none" stroke="#e6e6e6" stroke-width="0" stroke-dasharray="none" data-z-index="1" class="highcharts-grid-line" d="M 473.5 60 L 473.5 305" opacity="1"></path><path fill="none" stroke="#e6e6e6" stroke-width="0" stroke-dasharray="none" data-z-index="1" class="highcharts-grid-line" d="M 508.5 60 L 508.5 305" opacity="1"></path><path fill="none" stroke="#e6e6e6" stroke-width="0" stroke-dasharray="none" data-z-index="1" class="highcharts-grid-line" d="M 543.5 60 L 543.5 305" opacity="1"></path><path fill="none" stroke="#e6e6e6" stroke-width="0" stroke-dasharray="none" data-z-index="1" class="highcharts-grid-line" d="M 578.5 60 L 578.5 305" opacity="1"></path></g><g class="highcharts-grid highcharts-yaxis-grid" data-z-index="1"><path fill="none" stroke="#B9CFD7" stroke-width="0.5" stroke-dasharray="none" data-z-index="1" class="highcharts-grid-line" d="M 39 305.25 L 590 305.25" opacity="1"></path><path fill="none" stroke="#B9CFD7" stroke-width="0.5" stroke-dasharray="none" data-z-index="1" class="highcharts-grid-line" d="M 39 256.25 L 590 256.25" opacity="1"></path><path fill="none" stroke="#B9CFD7" stroke-width="0.5" stroke-dasharray="none" data-z-index="1" class="highcharts-grid-line" d="M 39 207.25 L 590 207.25" opacity="1"></path><path fill="none" stroke="#B9CFD7" stroke-width="0.5" stroke-dasharray="none" data-z-index="1" class="highcharts-grid-line" d="M 39 158.25 L 590 158.25" opacity="1"></path><path fill="none" stroke="#B9CFD7" stroke-width="0.5" stroke-dasharray="none" data-z-index="1" class="highcharts-grid-line" d="M 39 109.25 L 590 109.25" opacity="1"></path><path fill="none" stroke="#B9CFD7" stroke-width="0.5" stroke-dasharray="none" data-z-index="1" class="highcharts-grid-line" d="M 39 60.25 L 590 60.25" opacity="1"></path></g><rect fill="none" class="highcharts-plot-border" data-z-index="1" stroke="#cccccc" stroke-width="0" x="39" y="60" width="551" height="245"></rect><g class="highcharts-axis highcharts-xaxis" data-z-index="2"><path fill="none" class="highcharts-axis-line" stroke="#B9CFD7" stroke-width="0.5" data-z-index="7" d="M 39 305.25 L 590 305.25"></path></g><g class="highcharts-axis highcharts-yaxis" data-z-index="2"><path fill="none" class="highcharts-axis-line" stroke="#B9CFD7" stroke-width="0" data-z-index="7" d="M 39 60 L 39 305"></path></g><g class="highcharts-series-group" data-z-index="3" filter="none"><g class="highcharts-series highcharts-series-0 highcharts-column-series highcharts-tracker" data-z-index="0.1" opacity="1" transform="translate(39,60) scale(1 1)" clip-path="url(#highcharts-wp10p7x-150-)"><path fill="#008AC3" d="M 11 69 L 11 69 A 3 3 0 0 1 14 72 L 14 245 A 0 0 0 0 1 14 245 L 8 245 A 0 0 0 0 1 8 245 L 8 72 A 3 3 0 0 1 11 69 Z" stroke="#ffffff" stroke-width="0" opacity="1" filter="none" class="highcharts-point"></path><path fill="#008AC3" d="M 129 52 L 129 52 A 3 3 0 0 1 132 55 L 132 245 A 0 0 0 0 1 132 245 L 126 245 A 0 0 0 0 1 126 245 L 126 55 A 3 3 0 0 1 129 52 Z" stroke="#ffffff" stroke-width="0" opacity="1" filter="none" class="highcharts-point"></path><path fill="#008AC3" d="M 211 48 L 211 48 A 3 3 0 0 1 214 51 L 214 245 A 0 0 0 0 1 214 245 L 208 245 A 0 0 0 0 1 208 245 L 208 51 A 3 3 0 0 1 211 48 Z" stroke="#ffffff" stroke-width="0" opacity="1" filter="none" class="highcharts-point"></path><path fill="#008AC3" d="M 223 47 L 223 47 A 3 3 0 0 1 226 50 L 226 245 A 0 0 0 0 1 226 245 L 220 245 A 0 0 0 0 1 220 245 L 220 50 A 3 3 0 0 1 223 47 Z" stroke="#ffffff" stroke-width="0" opacity="1" filter="none" class="highcharts-point"></path><path fill="#008AC3" d="M 235 45 L 235 45 A 3 3 0 0 1 238 48 L 238 245 A 0 0 0 0 1 238 245 L 232 245 A 0 0 0 0 1 232 245 L 232 48 A 3 3 0 0 1 235 45 Z" stroke="#ffffff" stroke-width="0" opacity="1" filter="none" class="highcharts-point"></path><path fill="#008AC3" d="M 246 44 L 246 44 A 3 3 0 0 1 249 47 L 249 245 A 0 0 0 0 1 249 245 L 243 245 A 0 0 0 0 1 243 245 L 243 47 A 3 3 0 0 1 246 44 Z" stroke="#ffffff" stroke-width="0" opacity="1" filter="none" class="highcharts-point"></path><path fill="#008AC3" d="M 364 39 L 364 39 A 3 3 0 0 1 367 42 L 367 245 A 0 0 0 0 1 367 245 L 361 245 A 0 0 0 0 1 361 245 L 361 42 A 3 3 0 0 1 364 39 Z" stroke="#ffffff" stroke-width="0" opacity="1" filter="none" class="highcharts-point"></path><path fill="#008AC3" d="M 376 39 L 376 39 A 3 3 0 0 1 379 42 L 379 245 A 0 0 0 0 1 379 245 L 373 245 A 0 0 0 0 1 373 245 L 373 42 A 3 3 0 0 1 376 39 Z" stroke="#ffffff" stroke-width="0" opacity="1" filter="none" class="highcharts-point"></path><path fill="#008AC3" d="M 387 39 L 387 39 A 3 3 0 0 1 390 42 L 390 245 A 0 0 0 0 1 390 245 L 384 245 A 0 0 0 0 1 384 245 L 384 42 A 3 3 0 0 1 387 39 Z" stroke="#ffffff" stroke-width="0" opacity="1" filter="none" class="highcharts-point"></path><path fill="#008AC3" d="M 399 39 L 399 39 A 3 3 0 0 1 402 42 L 402 245 A 0 0 0 0 1 402 245 L 396 245 A 0 0 0 0 1 396 245 L 396 42 A 3 3 0 0 1 399 39 Z" stroke="#ffffff" stroke-width="0" opacity="1" filter="none" class="highcharts-point"></path><path fill="#008AC3" d="M 411 41 L 411 41 A 3 3 0 0 1 414 44 L 414 245 A 0 0 0 0 1 414 245 L 408 245 A 0 0 0 0 1 408 245 L 408 44 A 3 3 0 0 1 411 41 Z" stroke="#ffffff" stroke-width="0" opacity="1" filter="none" class="highcharts-point"></path><path fill="#008AC3" d="M 423 42 L 423 42 A 3 3 0 0 1 426 45 L 426 245 A 0 0 0 0 1 426 245 L 420 245 A 0 0 0 0 1 420 245 L 420 45 A 3 3 0 0 1 423 42 Z" stroke="#ffffff" stroke-width="0" opacity="1" filter="none" class="highcharts-point"></path><path fill="#008AC3" d="M 434 43 L 434 43 A 3 3 0 0 1 437 46 L 437 245 A 0 0 0 0 1 437 245 L 431 245 A 0 0 0 0 1 431 245 L 431 46 A 3 3 0 0 1 434 43 Z" stroke="#ffffff" stroke-width="0" opacity="1" filter="none" class="highcharts-point"></path><path fill="#008AC3" d="M 446 44 L 446 44 A 3 3 0 0 1 449 47 L 449 245 A 0 0 0 0 1 449 245 L 443 245 A 0 0 0 0 1 443 245 L 443 47 A 3 3 0 0 1 446 44 Z" stroke="#ffffff" stroke-width="0" opacity="1" filter="none" class="highcharts-point"></path><path fill="#008AC3" d="M 458 44 L 458 44 A 3 3 0 0 1 461 47 L 461 245 A 0 0 0 0 1 461 245 L 455 245 A 0 0 0 0 1 455 245 L 455 47 A 3 3 0 0 1 458 44 Z" stroke="#ffffff" stroke-width="0" opacity="1" filter="none" class="highcharts-point"></path><path fill="#008AC3" d="M 470 42 L 470 42 A 3 3 0 0 1 473 45 L 473 245 A 0 0 0 0 1 473 245 L 467 245 A 0 0 0 0 1 467 245 L 467 45 A 3 3 0 0 1 470 42 Z" stroke="#ffffff" stroke-width="0" opacity="1" filter="none" class="highcharts-point"></path><path fill="#008AC3" d="M 481 42 L 481 42 A 3 3 0 0 1 484 45 L 484 245 A 0 0 0 0 1 484 245 L 478 245 A 0 0 0 0 1 478 245 L 478 45 A 3 3 0 0 1 481 42 Z" stroke="#ffffff" stroke-width="0" opacity="1" filter="none" class="highcharts-point"></path><path fill="#008AC3" d="M 493 41 L 493 41 A 3 3 0 0 1 496 44 L 496 245 A 0 0 0 0 1 496 245 L 490 245 A 0 0 0 0 1 490 245 L 490 44 A 3 3 0 0 1 493 41 Z" stroke="#ffffff" stroke-width="0" opacity="1" filter="none" class="highcharts-point"></path><path fill="#008AC3" d="M 505 42 L 505 42 A 3 3 0 0 1 508 45 L 508 245 A 0 0 0 0 1 508 245 L 502 245 A 0 0 0 0 1 502 245 L 502 45 A 3 3 0 0 1 505 42 Z" stroke="#ffffff" stroke-width="0" opacity="1" filter="none" class="highcharts-point"></path><path fill="#008AC3" d="M 517 42 L 517 42 A 3 3 0 0 1 520 45 L 520 245 A 0 0 0 0 1 520 245 L 514 245 A 0 0 0 0 1 514 245 L 514 45 A 3 3 0 0 1 517 42 Z" stroke="#ffffff" stroke-width="0" opacity="1" filter="none" class="highcharts-point"></path><path fill="#008AC3" d="M 528 42 L 528 42 A 3 3 0 0 1 531 45 L 531 245 A 0 0 0 0 1 531 245 L 525 245 A 0 0 0 0 1 525 245 L 525 45 A 3 3 0 0 1 528 42 Z" stroke="#ffffff" stroke-width="0" opacity="1" filter="none" class="highcharts-point"></path><path fill="#008AC3" d="M 540 43 L 540 43 A 3 3 0 0 1 543 46 L 543 245 A 0 0 0 0 1 543 245 L 537 245 A 0 0 0 0 1 537 245 L 537 46 A 3 3 0 0 1 540 43 Z" stroke="#ffffff" stroke-width="0" opacity="1" filter="none" class="highcharts-point"></path></g><g class="highcharts-markers highcharts-series-0 highcharts-column-series" data-z-index="0.1" opacity="1" transform="translate(39,60) scale(1 1)" clip-path="none"></g></g><text x="10" text-anchor="start" class="highcharts-caption" data-z-index="4" style="font-size: 0.8em; fill: rgb(102, 102, 102);" text-align="left" y="347" transform-origin="10 15" transform="translate(0,0) scale(1 1)"></text><g class="highcharts-axis-labels highcharts-xaxis-labels" data-z-index="7"><text x="50.160980810235" text-anchor="middle" transform="translate(0,0)" style="cursor: default; font-size: 0.8em; fill: rgb(0, 0, 0);" y="332" opacity="1">1980</text><text x="85.40618336887" text-anchor="middle" transform="translate(0,0)" style="cursor: default; font-size: 0.8em; fill: rgb(0, 0, 0);" y="332" opacity="1">1983</text><text x="120.65138592751" text-anchor="middle" transform="translate(0,0)" style="cursor: default; font-size: 0.8em; fill: rgb(0, 0, 0);" y="332" opacity="1">1986</text><text x="155.89658848614" text-anchor="middle" transform="translate(0,0)" style="cursor: default; font-size: 0.8em; fill: rgb(0, 0, 0);" y="332" opacity="1">1989</text><text x="191.14179104478" text-anchor="middle" transform="translate(0,0)" style="cursor: default; font-size: 0.8em; fill: rgb(0, 0, 0);" y="332" opacity="1">1992</text><text x="226.38699360341" text-anchor="middle" transform="translate(0,0)" style="cursor: default; font-size: 0.8em; fill: rgb(0, 0, 0);" y="332" opacity="1">1995</text><text x="261.63219616205" text-anchor="middle" transform="translate(0,0)" style="cursor: default; font-size: 0.8em; fill: rgb(0, 0, 0);" y="332" opacity="1">1998</text><text x="296.87739872068" text-anchor="middle" transform="translate(0,0)" style="cursor: default; font-size: 0.8em; fill: rgb(0, 0, 0);" y="332" opacity="1">2001</text><text x="332.12260127932" text-anchor="middle" transform="translate(0,0)" style="cursor: default; font-size: 0.8em; fill: rgb(0, 0, 0);" y="332" opacity="1">2004</text><text x="367.36780383795" text-anchor="middle" transform="translate(0,0)" style="cursor: default; font-size: 0.8em; fill: rgb(0, 0, 0);" y="332" opacity="1">2007</text><text x="402.61300639659" text-anchor="middle" transform="translate(0,0)" style="cursor: default; font-size: 0.8em; fill: rgb(0, 0, 0);" y="332" opacity="1">2010</text><text x="437.85820895522" text-anchor="middle" transform="translate(0,0)" style="cursor: default; font-size: 0.8em; fill: rgb(0, 0, 0);" y="332" opacity="1">2013</text><text x="473.10341151386" text-anchor="middle" transform="translate(0,0)" style="cursor: default; font-size: 0.8em; fill: rgb(0, 0, 0);" y="332" opacity="1">2016</text><text x="508.34861407249" text-anchor="middle" transform="translate(0,0)" style="cursor: default; font-size: 0.8em; fill: rgb(0, 0, 0);" y="332" opacity="1">2019</text><text x="543.59381663113" text-anchor="middle" transform="translate(0,0)" style="cursor: default; font-size: 0.8em; fill: rgb(0, 0, 0);" y="332" opacity="1">2022</text><text x="575.7578125" text-anchor="middle" transform="translate(0,0)" style="cursor: default; font-size: 0.8em; fill: rgb(0, 0, 0);" y="332" opacity="1">2025</text></g><g class="highcharts-axis-labels highcharts-yaxis-labels" data-z-index="7"><text x="24" text-anchor="end" transform="translate(0,0)" style="cursor: default; font-size: 0.8em; fill: rgb(0, 0, 0);" y="310" opacity="1">0</text><text x="24" text-anchor="end" transform="translate(0,0)" style="cursor: default; font-size: 0.8em; fill: rgb(0, 0, 0);" y="261" opacity="1">10</text><text x="24" text-anchor="end" transform="translate(0,0)" style="cursor: default; font-size: 0.8em; fill: rgb(0, 0, 0);" y="212" opacity="1">20</text><text x="24" text-anchor="end" transform="translate(0,0)" style="cursor: default; font-size: 0.8em; fill: rgb(0, 0, 0);" y="163" opacity="1">30</text><text x="24" text-anchor="end" transform="translate(0,0)" style="cursor: default; font-size: 0.8em; fill: rgb(0, 0, 0);" y="114" opacity="1">40</text><text x="24" text-anchor="end" transform="translate(0,0)" style="cursor: default; font-size: 0.8em; fill: rgb(0, 0, 0);" y="65" opacity="1">50</text></g></svg>