<svg class="highcharts-root" xmlns="http://www.w3.org/2000/svg" viewBox="0 0 485 415" font-family="Arial" font-size="12">
    <defs>
        <clipPath id="a">
            <path fill="none" d="M0 0h331v309H0z"/>
        </clipPath>
    </defs>
    <rect fill="#fbfbfb" class="highcharts-background" width="485" height="415" rx="0" ry="0"/>
    <path fill="none" class="highcharts-plot-background" d="M53 41h331v309H53z"/>
    <g class="highcharts-grid highcharts-xaxis-grid">
        <path fill="none" class="highcharts-grid-line" d="M118.5 41v309m66-309v309m67-309v309m66-309v309m66-309v309M52.5 41v309"/>
    </g>
    <g class="highcharts-grid highcharts-yaxis-grid">
        <path fill="none" stroke="#B9CFD7" stroke-width=".5" class="highcharts-grid-line" d="M53 350.25h331m-331-31h331m-331-31h331m-331-31h331m-331-31h331m-331-30h331m-331-31h331m-331-31h331m-331-31h331m-331-31h331M53 40.75h331"/>
    </g>
    <path fill="none" class="highcharts-plot-border" d="M53 41h331v309H53z"/>
    <g class="highcharts-axis highcharts-xaxis">
        <path fill="none" class="highcharts-tick" stroke="#FFF" d="M118.5 350v10m66-10v10m67-10v10m66-10v10m66-10v10m-331-10v10"/>
        <path fill="none" class="highcharts-axis-line" stroke="#B9CFD7" stroke-width=".5" d="M53 350.25h331"/>
    </g>
    <g class="highcharts-axis highcharts-yaxis">
        <path fill="none" class="highcharts-axis-line" d="M53 41v309"/>
    </g>
    <g class="highcharts-series-group">
        <g class="highcharts-series highcharts-series-0 highcharts-column-series highcharts-color-undefined highcharts-tracker" transform="translate(53 41)" clip-path="url(#a)">
            <path fill="#b00000" class="highcharts-point" d="M17 309h32v1H17zm66 0h32v1H83zm67 0h32v1h-32zm66 0h32v1h-32zm66 0h32v1h-32z"/>
        </g>
        <g class="highcharts-series highcharts-series-1 highcharts-column-series highcharts-color-undefined highcharts-tracker" transform="translate(53 41)" clip-path="url(#a)">
            <path fill="#dc440e" class="highcharts-point" d="M17 308h32v1H17zm66 0h32v1H83zm67 0h32v1h-32zm66 0h32v1h-32z"/>
        </g>
        <g class="highcharts-series highcharts-series-2 highcharts-column-series highcharts-color-undefined highcharts-tracker" transform="translate(53 41)" clip-path="url(#a)">
            <path fill="#ff8028" class="highcharts-point" d="M17 305h32v3H17zm66 0h32v3H83zm67 0h32v3h-32zm66 0h32v3h-32zm66 1h32v3h-32z"/>
        </g>
        <g class="highcharts-series highcharts-series-3 highcharts-column-series highcharts-color-undefined highcharts-tracker" transform="translate(53 41)" clip-path="url(#a)">
            <path fill="#ffbb58" class="highcharts-point" d="M17 301h32v4H17zm66-3h32v7H83zm67 2h32v5h-32zm66 1h32v4h-32zm66 2h32v3h-32z"/>
        </g>
        <g class="highcharts-series highcharts-series-4 highcharts-column-series highcharts-color-undefined highcharts-tracker" transform="translate(53 41)" clip-path="url(#a)">
            <path fill="#71a3b5" class="highcharts-point" d="M17 272h32v29H17zm66-2h32v28H83zm67 7h32v23h-32zm66 4h32v20h-32zm66 2h32v20h-32z"/>
        </g>
        <g class="highcharts-series highcharts-series-5 highcharts-column-series highcharts-color-undefined highcharts-tracker" transform="translate(53 41)" clip-path="url(#a)">
            <path fill="#b9cfd7" class="highcharts-point" d="M17 242h32v30H17zm66-2h32v30H83zm67 10h32v27h-32zm66 12h32v19h-32zm66 2h32v19h-32z"/>
        </g>
        <g class="highcharts-series highcharts-series-6 highcharts-column-series highcharts-color-undefined highcharts-tracker" transform="translate(53 41)" clip-path="url(#a)">
            <path fill="#d7e9d2" class="highcharts-point" d="M17 168h32v74H17zm66-3h32v75H83zm67 8h32v77h-32zm66 23h32v66h-32zm66 10h32v58h-32z"/>
        </g>
        <g class="highcharts-series highcharts-series-7 highcharts-column-series highcharts-color-undefined highcharts-tracker" transform="translate(53 41)" clip-path="url(#a)">
            <path fill="#73ba7c" class="highcharts-point" d="M17 48h32v120H17zm66 5h32v112H83zm67 3h32v117h-32zm66 21h32v119h-32zm66 6h32v123h-32z"/>
        </g>
        <g class="highcharts-series highcharts-series-8 highcharts-column-series highcharts-color-undefined highcharts-tracker" transform="translate(53 41)" clip-path="url(#a)">
            <path fill="#44ab2b" class="highcharts-point" d="M17 26h32v22H17zm66-4h32v31H83zm67 1h32v33h-32zm66 19h32v35h-32zm66-5h32v46h-32z"/>
        </g>
        <g class="highcharts-series highcharts-series-9 highcharts-column-series highcharts-color-undefined highcharts-tracker" transform="translate(53 41)" clip-path="url(#a)">
            <path fill="#007a2f" class="highcharts-point" d="M17 0h32v26H17zm66 0h32v22H83zm67 0h32v23h-32zm66 0h32v42h-32zm66 0h32v37h-32z"/>
        </g>
    </g>
    <text x="10" class="highcharts-title" y="21" color="#000" font-size="14" font-weight="700">
        <tspan>Bewertung der Lebensqualität</tspan>
    </text>
    <g class="highcharts-legend" transform="translate(396 97)">
        <rect fill="none" class="highcharts-legend-box" rx="0" ry="0" width="79" height="201"/>
        <g class="highcharts-legend-item highcharts-column-series highcharts-color-undefined highcharts-series-9">
            <text x="21" y="15" color="#333" font-weight="400" cursor="pointer" fill="#333" transform="translate(8 3)">
                <tspan>Note 10</tspan>
            </text>
            <path fill="#007a2f" class="highcharts-point" d="M10 7h12v12H10z"/>
        </g>
        <g class="highcharts-legend-item highcharts-column-series highcharts-color-undefined highcharts-series-8">
            <text x="21" y="15" color="#333" font-weight="400" cursor="pointer" fill="#333" transform="translate(8 22)">
                <tspan>Note 9</tspan>
            </text>
            <path fill="#44ab2b" class="highcharts-point" d="M10 26h12v12H10z"/>
        </g>
        <g class="highcharts-legend-item highcharts-column-series highcharts-color-undefined highcharts-series-7">
            <text x="21" y="15" color="#333" font-weight="400" cursor="pointer" fill="#333" transform="translate(8 41)">
                <tspan>Note 8</tspan>
            </text>
            <path fill="#73ba7c" class="highcharts-point" d="M10 45h12v12H10z"/>
        </g>
        <g class="highcharts-legend-item highcharts-column-series highcharts-color-undefined highcharts-series-6">
            <text x="21" y="15" color="#333" font-weight="400" cursor="pointer" fill="#333" transform="translate(8 60)">
                <tspan>Note 7</tspan>
            </text>
            <path fill="#d7e9d2" class="highcharts-point" d="M10 64h12v12H10z"/>
        </g>
        <g class="highcharts-legend-item highcharts-column-series highcharts-color-undefined highcharts-series-5">
            <text x="21" y="15" color="#333" font-weight="400" cursor="pointer" fill="#333" transform="translate(8 79)">
                <tspan>Note 6</tspan>
            </text>
            <path fill="#b9cfd7" class="highcharts-point" d="M10 83h12v12H10z"/>
        </g>
        <g class="highcharts-legend-item highcharts-column-series highcharts-color-undefined highcharts-series-4">
            <text x="21" y="15" color="#333" font-weight="400" cursor="pointer" fill="#333" transform="translate(8 98)">
                <tspan>Note 5</tspan>
            </text>
            <path fill="#71a3b5" class="highcharts-point" d="M10 102h12v12H10z"/>
        </g>
        <g class="highcharts-legend-item highcharts-column-series highcharts-color-undefined highcharts-series-3">
            <text x="21" y="15" color="#333" font-weight="400" cursor="pointer" fill="#333" transform="translate(8 117)">
                <tspan>Note 4</tspan>
            </text>
            <path fill="#ffbb58" class="highcharts-point" d="M10 121h12v12H10z"/>
        </g>
        <g class="highcharts-legend-item highcharts-column-series highcharts-color-undefined highcharts-series-2">
            <text x="21" y="15" color="#333" font-weight="400" cursor="pointer" fill="#333" transform="translate(8 136)">
                <tspan>Note 3</tspan>
            </text>
            <path fill="#ff8028" class="highcharts-point" d="M10 140h12v12H10z"/>
        </g>
        <g class="highcharts-legend-item highcharts-column-series highcharts-color-undefined highcharts-series-1">
            <text x="21" y="15" color="#333" font-weight="400" cursor="pointer" fill="#333" transform="translate(8 155)">
                <tspan>Note 2</tspan>
            </text>
            <path fill="#dc440e" class="highcharts-point" d="M10 159h12v12H10z"/>
        </g>
        <g class="highcharts-legend-item highcharts-column-series highcharts-color-undefined highcharts-series-0">
            <text x="21" y="15" color="#333" font-weight="400" cursor="pointer" fill="#333" transform="translate(8 174)">
                <tspan>Note 1</tspan>
            </text>
            <path fill="#b00000" class="highcharts-point" d="M10 178h12v12H10z"/>
        </g>
    </g>
    <g class="highcharts-axis-labels highcharts-xaxis-labels" text-anchor="middle" color="#000" cursor="default" font-size="11">
        <text x="86.1" y="369">
            <tspan>2003</tspan><tspan x="86.1" dy="14">(N=1477)</tspan>
        </text>
        <text x="152.3" y="369">
            <tspan>2005</tspan><tspan x="152.3" dy="14">(N=1500)</tspan>
        </text>
        <text x="218.5" y="369">
            <tspan>2007</tspan><tspan x="218.5" dy="14">(N=1500)</tspan>
        </text>
        <text x="284.7" y="369">
            <tspan>2011</tspan><tspan x="284.7" dy="14">(N=1513)</tspan>
        </text>
        <text x="350.9" y="369">
            <tspan>2015</tspan><tspan x="350.9" dy="14">(N=1489)</tspan>
        </text>
    </g>
    <g class="highcharts-axis-labels highcharts-yaxis-labels" text-anchor="end" color="#000" cursor="default" font-size="11">
        <text x="38" y="355">
            <tspan>0%</tspan>
        </text>
        <text x="38" y="324">
            <tspan>10%</tspan>
        </text>
        <text x="38" y="293">
            <tspan>20%</tspan>
        </text>
        <text x="38" y="262">
            <tspan>30%</tspan>
        </text>
        <text x="38" y="231">
            <tspan>40%</tspan>
        </text>
        <text x="38" y="200">
            <tspan>50%</tspan>
        </text>
        <text x="38" y="169">
            <tspan>60%</tspan>
        </text>
        <text x="38" y="138">
            <tspan>70%</tspan>
        </text>
        <text x="38" y="107">
            <tspan>80%</tspan>
        </text>
        <text x="38" y="76">
            <tspan>90%</tspan>
        </text>
        <text x="38" y="46">
            <tspan>100%</tspan>
        </text>
    </g>
    <text x="10" class="highcharts-credits" y="400" cursor="default" color="#000" font-size="10">
        <tspan>Quelle: Statistisches Amt Basel-Stadt, kantonale Bevölkerungsbefragung: F4</tspan>
    </text>
</svg>
