<svg class="highcharts-root" xmlns="http://www.w3.org/2000/svg" viewBox="0 0 320 208" font-family="Arial" font-size="12">
    <defs>
        <clipPath id="a">
            <path fill="none" d="M0 0h276v106H0z"/>
        </clipPath>
    </defs>
    <rect fill="#fbfbfb" class="highcharts-background" width="320" height="208" rx="0" ry="0"/>
    <path fill="none" class="highcharts-plot-background" d="M42 67h276v106H42z"/>
    <g class="highcharts-grid highcharts-xaxis-grid">
        <path fill="none" class="highcharts-grid-line" d="M57.5 67v106m27-106v106m27-106v106m27-106v106m27-106v106m28-106v106m27-106v106m27-106v106m27-106v106m27-106v106"/>
    </g>
    <g class="highcharts-grid highcharts-yaxis-grid">
        <path fill="none" stroke="#B9CFD7" stroke-width=".5" class="highcharts-grid-line" d="M42 173.25h276m-276-35h276m-276-36h276M42 66.75h276"/>
    </g>
    <path fill="none" class="highcharts-plot-border" d="M42 67h276v106H42z"/>
    <g class="highcharts-axis highcharts-xaxis">
        <path fill="none" class="highcharts-axis-line" stroke="#B9CFD7" stroke-width=".5" d="M42 173.25h276"/>
    </g>
    <g class="highcharts-axis highcharts-yaxis">
        <path fill="none" class="highcharts-axis-line" d="M42 67v106"/>
    </g>
    <g class="highcharts-series-group">
        <g class="highcharts-series highcharts-series-0 highcharts-column-series highcharts-color-undefined highcharts-tracker" transform="translate(42 67)" clip-path="url(#a)">
            <path fill="#b475ab" class="highcharts-point" stroke="#fff" d="M7.5 62.5h15v9h-15zm28-6h15v15h-15zm27-18h15v33h-15zm27 6h15v27h-15zm27 1h15v24h-15zm27 5h15v19h-15zm27 6h15v12h-15zm27-24h15v26h-15zm27-19h15v56h-15zm28 21h15v29h-15z"/>
        </g>
        <g class="highcharts-series highcharts-series-1 highcharts-column-series highcharts-color-undefined highcharts-tracker" transform="translate(42 67)" clip-path="url(#a)">
            <path fill="#a8c4cb" class="highcharts-point highcharts-negative" stroke="#fff" d="M7.5 76.5h15v7h-15zm28-3h15v8h-15zm27-1h15v11h-15zm27 0h15v10h-15zm27-1h15v4h-15zm27 0h15v2h-15zm27 0h15v3h-15zm27 0h15v3h-15zm27 0h15v12h-15zm28 0h15v5h-15z"/>
        </g>
        <g class="highcharts-series highcharts-series-2 highcharts-column-series highcharts-color-undefined highcharts-tracker" transform="translate(42 67)" clip-path="url(#a)">
            <path fill="#fabd24" class="highcharts-point highcharts-negative" stroke="#fff" d="M7.5 71.5h15v5h-15zm28 0h15v2h-15zm27 0h15v1h-15zm27 0h15v1h-15z"/>
            <path fill="#fabd24" class="highcharts-point" stroke="#fff" d="M116.5 69.5h15v2h-15zm27 0h15v2h-15zm27-1h15v3h-15zm27-10h15v13h-15zm27 11h15v2h-15zm28-6h15v8h-15z"/>
        </g>
        <g class="highcharts-series highcharts-series-3 highcharts-line-series highcharts-color-undefined" transform="translate(42 67)" clip-path="url(#a)">
            <path fill="none" d="M15.996 74.977l27.112-7.702L70.22 49.467l27.112 6.501 27.112-7.279 27.112 2.898 27.112 6.996 27.112-22.967 27.112-9.823 27.112 13.568" class="highcharts-graph" stroke="#000" stroke-width="2" stroke-linejoin="round" stroke-linecap="round"/>
            <path fill="none" d="M5.996 74.977h10l27.112-7.702L70.22 49.467l27.112 6.501 27.112-7.279 27.112 2.898 27.112 6.996 27.112-22.967 27.112-9.823 27.112 13.568h10" stroke-linejoin="round" stroke="rgba(192,192,192,0.0001)" stroke-width="22" class="highcharts-tracker"/>
        </g>
    </g>
    <text x="2" class="highcharts-title" y="9" color="#000" font-size="10" font-weight="700">
        <tspan>Nettowohnungsproduktion</tspan>
    </text>
    <g class="highcharts-legend" transform="translate(42 2)">
        <rect fill="none" class="highcharts-legend-box" rx="0" ry="0" width="176" height="53"/>
        <g class="highcharts-legend-item highcharts-column-series highcharts-color-undefined highcharts-series-0">
            <text x="21" y="15" color="#333" font-weight="400" cursor="pointer" fill="#333" transform="translate(8 3)">
                Neubau
            </text>
            <path fill="#b475ab" class="highcharts-point" d="M10 7h12v12H10z"/>
        </g>
        <g class="highcharts-legend-item highcharts-column-series highcharts-color-undefined highcharts-series-1">
            <text x="21" y="15" color="#333" font-weight="400" cursor="pointer" fill="#333" transform="translate(91.016 3)">
                Abbruch
            </text>
            <path fill="#a8c4cb" class="highcharts-point" d="M93.016 7h12v12h-12z"/>
        </g>
        <g class="highcharts-legend-item highcharts-column-series highcharts-color-undefined highcharts-series-2">
            <text x="21" y="15" color="#333" font-weight="400" cursor="pointer" fill="#333" transform="translate(8 17)">
                Umbausaldo
            </text>
            <path fill="#fabd24" class="highcharts-point" d="M10 21h12v12H10z"/>
        </g>
        <g class="highcharts-legend-item highcharts-line-series highcharts-color-undefined highcharts-series-3">
            <path fill="none" d="M8 42h16" class="highcharts-graph" stroke="#000" stroke-width="2"/>
            <text x="21" y="15" color="#333" font-weight="400" cursor="pointer" fill="#333" transform="translate(8 31)">
                Nettowohnungsproduktion
            </text>
        </g>
    </g>
    <g class="highcharts-axis-labels highcharts-xaxis-labels" text-anchor="end" color="#000" cursor="default" font-size="10">
        <text x="60.824" transform="rotate(-45 60.824 189)" y="189">
            <tspan>2007</tspan>
        </text>
        <text x="87.936" transform="rotate(-45 87.936 189)" y="189">
            <tspan>2008</tspan>
        </text>
        <text x="115.048" transform="rotate(-45 115.048 189)" y="189">
            <tspan>2009</tspan>
        </text>
        <text x="142.16" transform="rotate(-45 142.16 189)" y="189">
            <tspan>2010</tspan>
        </text>
        <text x="169.272" transform="rotate(-45 169.272 189)" y="189">
            <tspan>2011</tspan>
        </text>
        <text x="196.384" transform="rotate(-45 196.384 189)" y="189">
            <tspan>2012</tspan>
        </text>
        <text x="223.496" transform="rotate(-45 223.496 189)" y="189">
            <tspan>2013</tspan>
        </text>
        <text x="250.608" transform="rotate(-45 250.608 189)" y="189">
            <tspan>2014</tspan>
        </text>
        <text x="277.72" transform="rotate(-45 277.72 189)" y="189">
            <tspan>2015</tspan>
        </text>
        <text x="304.832" transform="rotate(-45 304.832 189)" y="189">
            <tspan>2016</tspan>
        </text>
    </g>
    <g class="highcharts-axis-labels highcharts-yaxis-labels" text-anchor="end" color="#000" cursor="default" font-size="10">
        <text x="27" y="179">
            <tspan>-500</tspan>
        </text>
        <text x="27" y="143">
            <tspan>0</tspan>
        </text>
        <text x="27" y="108">
            <tspan>500</tspan>
        </text>
        <text x="27" y="73">
            <tspan>1 000</tspan>
        </text>
    </g>
    <text x="10" class="highcharts-credits" y="193" cursor="default" color="#000" font-size="10">
        <tspan>Quelle: Statistisches Amt Basel-Stadt, kantonale Gebäude- und Wohnungsstatistik</tspan>
    </text>
</svg>
