<svg class="highcharts-root" xmlns="http://www.w3.org/2000/svg" viewBox="0 0 320 208" font-family="arial" font-size="12">
    <defs>
        <clipPath id="a">
            <path fill="none" d="M0 0h146v73H0z"/>
        </clipPath>
    </defs>
    <rect fill="#fbfbfb" class="highcharts-background" width="320" height="208" rx="0" ry="0"/>
    <path fill="none" class="highcharts-plot-background" d="M46 92h146v73H46z"/>
    <g class="highcharts-grid highcharts-xaxis-grid">
        <path fill="none" class="highcharts-grid-line" d="M74.5 92v73m29-73v73m30-73v73m29-73v73m29-73v73m-146-73v73"/>
    </g>
    <g class="highcharts-grid highcharts-yaxis-grid">
        <path fill="none" stroke="#B9CFD7" stroke-width=".5" class="highcharts-grid-line" d="M46 165.25h146m-146-15h146m-146-14h146m-146-15h146m-146-14h146M46 91.75h146"/>
    </g>
    <path fill="none" class="highcharts-plot-border" d="M46 92h146v73H46z"/>
    <g class="highcharts-axis highcharts-xaxis">
        <path fill="none" class="highcharts-tick" stroke="#FFF" d="M74.5 165v10m29-10v10m30-10v10m29-10v10m30-10v10m-147-10v10"/>
        <path fill="none" class="highcharts-axis-line" stroke="#B9CFD7" stroke-width=".5" d="M46 165.25h146"/>
    </g>
    <g class="highcharts-axis highcharts-yaxis">
        <path fill="none" class="highcharts-axis-line" d="M46 92v73"/>
    </g>
    <g class="highcharts-series-group">
        <g class="highcharts-series highcharts-series-1 highcharts-column-series highcharts-color-undefined" transform="translate(46 92)" clip-path="url(#a)">
            <path fill="#CD9C00" class="highcharts-point" d="M8 72h15v2H8zm29-1h15v3H37zm29 1h15v2H66zm29 1h15v1H95zm29 0h15v1h-15z"/>
        </g>
        <g class="highcharts-series highcharts-series-2 highcharts-column-series highcharts-color-undefined" transform="translate(46 92)" clip-path="url(#a)">
            <path fill="#FABD24" class="highcharts-point" d="M8 61h15v11H8zm29 0h15v10H37zm29 1h15v10H66zm29 4h15v7H95zm29 2h15v5h-15z"/>
        </g>
        <g class="highcharts-series highcharts-series-3 highcharts-column-series highcharts-color-undefined" transform="translate(46 92)" clip-path="url(#a)">
            <path fill="#73B97C" class="highcharts-point" d="M8 31h15v30H8zm29-3h15v33H37zm29-1h15v35H66zm29 10h15v29H95zm29 0h15v31h-15z"/>
        </g>
        <g class="highcharts-series highcharts-series-4 highcharts-column-series highcharts-color-undefined" transform="translate(46 92)" clip-path="url(#a)">
            <path fill="#007A2F" class="highcharts-point" d="M8 0h15v31H8zm29 0h15v28H37zm29 0h15v27H66zm29 0h15v37H95zm29 0h15v37h-15z"/>
        </g>
    </g>
    <text x="3" class="highcharts-title" y="26" color="#000" font-size="14" font-weight="700">
        <tspan>Zufriedenheit mit Grünanlagen und</tspan><tspan dy="17" x="3">Parks am Wohnort</tspan><title>Zufriedenheit mit Grünanlagen und Parks am Wohnort</title>
    </text>
    <text x="3" class="highcharts-subtitle" y="62" color="#000">
        <tspan>«Wie zufrieden sind Sie mit den Grünanlagen und</tspan><tspan dy="15" x="3">Parks in Ihrem Wohnort?»</tspan><title>«Wie zufrieden sind Sie mit den Grünanlagen und Parks in Ihrem Wohnort?»</title>
    </text>
    <g class="highcharts-legend" transform="translate(204 51)">
        <rect fill="none" class="highcharts-legend-box" rx="0" ry="0" width="112" height="114"/>
        <g class="highcharts-legend-item highcharts-column-series highcharts-color-undefined highcharts-series-4">
            <text x="21" y="13" color="#333" font-size="10" font-weight="400" cursor="pointer" fill="#333" transform="translate(8 3)">
                <tspan>Sehr zufrieden</tspan>
            </text>
            <path fill="#007A2F" class="highcharts-point" d="M11 7h10v10H11z"/>
        </g>
        <g class="highcharts-legend-item highcharts-column-series highcharts-color-undefined highcharts-series-3">
            <text x="21" y="13" color="#333" font-size="10" font-weight="400" cursor="pointer" fill="#333" transform="translate(8 21)">
                <tspan>Eher zufrieden</tspan>
            </text>
            <path fill="#73B97C" class="highcharts-point" d="M11 25h10v10H11z"/>
        </g>
        <g class="highcharts-legend-item highcharts-column-series highcharts-color-undefined highcharts-series-2">
            <text x="21" y="13" color="#333" font-size="10" font-weight="400" cursor="pointer" fill="#333" transform="translate(8 39)">
                <tspan>Eher unzufrieden</tspan>
            </text>
            <path fill="#FABD24" class="highcharts-point" d="M11 43h10v10H11z"/>
        </g>
        <g class="highcharts-legend-item highcharts-column-series highcharts-color-undefined highcharts-series-1">
            <text x="21" y="13" color="#333" font-size="10" font-weight="400" cursor="pointer" fill="#333" transform="translate(8 57)">
                <tspan>Sehr unzufrieden</tspan>
            </text>
            <path fill="#CD9C00" class="highcharts-point" d="M11 61h10v10H11z"/>
        </g>
        <g class="highcharts-legend-item highcharts-column-series highcharts-color-undefined highcharts-series-0">
            <text x="21" y="13" color="#333" font-size="10" font-weight="400" cursor="pointer" fill="#333" transform="translate(8 75)">
                <tspan>Weiss nicht/</tspan><tspan x="21" dy="13">Keine Angabe</tspan>
            </text>
            <path fill="#C8C8C8" class="highcharts-point" d="M11 79h10v10H11z"/>
        </g>
    </g>
    <g class="highcharts-axis-labels highcharts-xaxis-labels" text-anchor="middle" color="#000" cursor="default" font-size="11">
        <text x="60.6" y="184">
            <tspan>2003</tspan><tspan x="60.6" dy="14">(N=1495)</tspan><title>2003 (N=1495)</title>
        </text>
        <text x="89.8" y="184">
            <tspan>2005</tspan><tspan x="89.8" dy="14">(N=1509)</tspan><title>2005 (N=1509)</title>
        </text>
        <text x="119" y="184">
            <tspan>2007</tspan><tspan x="119" dy="14">(N=1505)</tspan><title>2007 (N=1505)</title>
        </text>
        <text x="148.2" y="184">
            <tspan>2011</tspan><tspan x="148.2" dy="14">(N=1516)</tspan><title>2011 (N=1516)</title>
        </text>
        <text x="177.4" y="184">
            <tspan>2015</tspan><tspan x="177.4" dy="14">(N=1504)</tspan><title>2015 (N=1504)</title>
        </text>
    </g>
    <g class="highcharts-axis-labels highcharts-yaxis-labels" text-anchor="end" color="#000" cursor="default" font-size="11">
        <text x="31" y="170">
            <tspan>0%</tspan>
        </text>
        <text x="31" y="155">
            <tspan>20%</tspan>
        </text>
        <text x="31" y="140">
            <tspan>40%</tspan>
        </text>
        <text x="31" y="126">
            <tspan>60%</tspan>
        </text>
        <text x="31" y="111">
            <tspan>80%</tspan>
        </text>
        <text x="31" y="97">
            <tspan>100%</tspan>
        </text>
    </g>
    <text x="10" class="highcharts-credits" y="193" cursor="default" color="#000" font-size="10">
        <tspan>Quelle: Statistisches Amt Basel-Stadt, kantonale Bevölkerungsbefragung: F6_7</tspan>
    </text>
</svg>
