<svg class="highcharts-root" xmlns="http://www.w3.org/2000/svg" viewBox="0 0 320 208" font-family="Arial" font-size="12">
    <defs>
        <clipPath id="a">
            <path fill="none" d="M0 0h180v119H0z"/>
        </clipPath>
    </defs>
    <rect fill="#fbfbfb" class="highcharts-background" width="320" height="208" rx="0" ry="0"/>
    <path fill="none" class="highcharts-plot-background" d="M46 46h180v119H46z"/>
    <g class="highcharts-grid highcharts-xaxis-grid">
        <path fill="none" class="highcharts-grid-line" d="M81.5 46v119m36-119v119m36-119v119m36-119v119m36-119v119M45.5 46v119"/>
    </g>
    <g class="highcharts-grid highcharts-yaxis-grid">
        <path fill="none" stroke="#B9CFD7" stroke-width=".5" class="highcharts-grid-line" d="M46 165.25h180m-180-24h180m-180-24h180m-180-23h180m-180-24h180M46 45.75h180"/>
    </g>
    <path fill="none" class="highcharts-plot-border" d="M46 46h180v119H46z"/>
    <g class="highcharts-axis highcharts-xaxis">
        <path fill="none" class="highcharts-tick" stroke="#FFF" d="M81.5 165v10m36-10v10m36-10v10m36-10v10m37-10v10m-181-10v10"/>
        <path fill="none" class="highcharts-axis-line" stroke="#B9CFD7" stroke-width=".5" d="M46 165.25h180"/>
    </g>
    <g class="highcharts-axis highcharts-yaxis">
        <path fill="none" class="highcharts-axis-line" d="M46 46v119"/>
    </g>
    <g class="highcharts-series-group">
        <g class="highcharts-series highcharts-series-0 highcharts-column-series highcharts-color-undefined highcharts-tracker" transform="translate(46 46)" clip-path="url(#a)">
            <path fill="#b00000" class="highcharts-point" d="M117 119h18v1h-18z"/>
        </g>
        <g class="highcharts-series highcharts-series-1 highcharts-column-series highcharts-color-undefined highcharts-tracker" transform="translate(46 46)" clip-path="url(#a)">
            <path fill="#dc440e" class="highcharts-point" d="M9 119h18v1H9zm36 0h18v1H45zm36 0h18v1H81z"/>
        </g>
        <g class="highcharts-series highcharts-series-2 highcharts-column-series highcharts-color-undefined highcharts-tracker" transform="translate(46 46)" clip-path="url(#a)">
            <path fill="#ff8028" class="highcharts-point" d="M9 118h18v1H9zm36 0h18v1H45zm36 0h18v1H81zm36 0h18v1h-18zm36 0h18v2h-18z"/>
        </g>
        <g class="highcharts-series highcharts-series-3 highcharts-column-series highcharts-color-undefined highcharts-tracker" transform="translate(46 46)" clip-path="url(#a)">
            <path fill="#ffbb58" class="highcharts-point" d="M9 116h18v2H9zm36 0h18v2H45zm36 0h18v2H81zm36 1h18v1h-18zm36 0h18v1h-18z"/>
        </g>
        <g class="highcharts-series highcharts-series-4 highcharts-column-series highcharts-color-undefined highcharts-tracker" transform="translate(46 46)" clip-path="url(#a)">
            <path fill="#71a3b5" class="highcharts-point" d="M9 105h18v11H9zm36-1h18v12H45zm36 3h18v9H81zm36 2h18v8h-18zm36 1h18v7h-18z"/>
        </g>
        <g class="highcharts-series highcharts-series-5 highcharts-column-series highcharts-color-undefined highcharts-tracker" transform="translate(46 46)" clip-path="url(#a)">
            <path fill="#b9cfd7" class="highcharts-point" d="M9 94h18v11H9zm36-1h18v11H45zm36 4h18v10H81zm36 5h18v7h-18zm36 0h18v8h-18z"/>
        </g>
        <g class="highcharts-series highcharts-series-6 highcharts-column-series highcharts-color-undefined highcharts-tracker" transform="translate(46 46)" clip-path="url(#a)">
            <path fill="#d7e9d2" class="highcharts-point" d="M9 65h18v29H9zm36-1h18v29H45zm36 3h18v30H81zm36 9h18v26h-18zm36 4h18v22h-18z"/>
        </g>
        <g class="highcharts-series highcharts-series-7 highcharts-column-series highcharts-color-undefined highcharts-tracker" transform="translate(46 46)" clip-path="url(#a)">
            <path fill="#73ba7c" class="highcharts-point" d="M9 19h18v46H9zm36 2h18v43H45zm36 1h18v45H81zm36 8h18v46h-18zm36 3h18v47h-18z"/>
        </g>
        <g class="highcharts-series highcharts-series-8 highcharts-column-series highcharts-color-undefined highcharts-tracker" transform="translate(46 46)" clip-path="url(#a)">
            <path fill="#44ab2b" class="highcharts-point" d="M9 11h18v8H9zm36-2h18v12H45zm36 0h18v13H81zm36 8h18v13h-18zm36-2h18v18h-18z"/>
        </g>
        <g class="highcharts-series highcharts-series-9 highcharts-column-series highcharts-color-undefined highcharts-tracker" transform="translate(46 46)" clip-path="url(#a)">
            <path fill="#007a2f" class="highcharts-point" d="M9 0h18v11H9zm36 0h18v9H45zm36 0h18v9H81zm36 0h18v17h-18zm36 0h18v15h-18z"/>
        </g>
    </g>
    <text x="3" class="highcharts-title" y="26" color="#000" font-size="14" font-weight="700">
        <tspan>Bewertung der Lebensqualität</tspan>
    </text>
    <g class="highcharts-legend" transform="translate(238 9)">
        <rect fill="none" class="highcharts-legend-box" rx="0" ry="0" width="79" height="191"/>
        <g class="highcharts-legend-item highcharts-column-series highcharts-color-undefined highcharts-series-9">
            <text x="21" y="15" color="#333" font-weight="400" cursor="pointer" fill="#333" transform="translate(8 3)">
                <tspan>Note 10</tspan>
            </text>
            <path fill="#007a2f" class="highcharts-point" d="M10 7h12v12H10z"/>
        </g>
        <g class="highcharts-legend-item highcharts-column-series highcharts-color-undefined highcharts-series-8">
            <text x="21" y="15" color="#333" font-weight="400" cursor="pointer" fill="#333" transform="translate(8 21)">
                <tspan>Note 9</tspan>
            </text>
            <path fill="#44ab2b" class="highcharts-point" d="M10 25h12v12H10z"/>
        </g>
        <g class="highcharts-legend-item highcharts-column-series highcharts-color-undefined highcharts-series-7">
            <text x="21" y="15" color="#333" font-weight="400" cursor="pointer" fill="#333" transform="translate(8 39)">
                <tspan>Note 8</tspan>
            </text>
            <path fill="#73ba7c" class="highcharts-point" d="M10 43h12v12H10z"/>
        </g>
        <g class="highcharts-legend-item highcharts-column-series highcharts-color-undefined highcharts-series-6">
            <text x="21" y="15" color="#333" font-weight="400" cursor="pointer" fill="#333" transform="translate(8 57)">
                <tspan>Note 7</tspan>
            </text>
            <path fill="#d7e9d2" class="highcharts-point" d="M10 61h12v12H10z"/>
        </g>
        <g class="highcharts-legend-item highcharts-column-series highcharts-color-undefined highcharts-series-5">
            <text x="21" y="15" color="#333" font-weight="400" cursor="pointer" fill="#333" transform="translate(8 75)">
                <tspan>Note 6</tspan>
            </text>
            <path fill="#b9cfd7" class="highcharts-point" d="M10 79h12v12H10z"/>
        </g>
        <g class="highcharts-legend-item highcharts-column-series highcharts-color-undefined highcharts-series-4">
            <text x="21" y="15" color="#333" font-weight="400" cursor="pointer" fill="#333" transform="translate(8 93)">
                <tspan>Note 5</tspan>
            </text>
            <path fill="#71a3b5" class="highcharts-point" d="M10 97h12v12H10z"/>
        </g>
        <g class="highcharts-legend-item highcharts-column-series highcharts-color-undefined highcharts-series-3">
            <text x="21" y="15" color="#333" font-weight="400" cursor="pointer" fill="#333" transform="translate(8 111)">
                <tspan>Note 4</tspan>
            </text>
            <path fill="#ffbb58" class="highcharts-point" d="M10 115h12v12H10z"/>
        </g>
        <g class="highcharts-legend-item highcharts-column-series highcharts-color-undefined highcharts-series-2">
            <text x="21" y="15" color="#333" font-weight="400" cursor="pointer" fill="#333" transform="translate(8 129)">
                <tspan>Note 3</tspan>
            </text>
            <path fill="#ff8028" class="highcharts-point" d="M10 133h12v12H10z"/>
        </g>
        <g class="highcharts-legend-item highcharts-column-series highcharts-color-undefined highcharts-series-1">
            <text x="21" y="15" color="#333" font-weight="400" cursor="pointer" fill="#333" transform="translate(8 147)">
                <tspan>Note 2</tspan>
            </text>
            <path fill="#dc440e" class="highcharts-point" d="M10 151h12v12H10z"/>
        </g>
        <g class="highcharts-legend-item highcharts-column-series highcharts-color-undefined highcharts-series-0">
            <text x="21" y="15" color="#333" font-weight="400" cursor="pointer" fill="#333" transform="translate(8 165)">
                <tspan>Note 1</tspan>
            </text>
            <path fill="#b00000" class="highcharts-point" d="M10 169h12v12H10z"/>
        </g>
    </g>
    <g class="highcharts-axis-labels highcharts-xaxis-labels" text-anchor="middle" color="#000" cursor="default" font-size="11">
        <text x="64" y="184">
            <tspan>2003</tspan><tspan x="64" dy="14">(N=1477)</tspan><title>2003(N=1477)</title>
        </text>
        <text x="100" y="184">
            <tspan>2005</tspan><tspan x="100" dy="14">(N=1500)</tspan><title>2005(N=1500)</title>
        </text>
        <text x="136" y="184">
            <tspan>2007</tspan><tspan x="136" dy="14">(N=1500)</tspan><title>2007(N=1500)</title>
        </text>
        <text x="172" y="184">
            <tspan>2011</tspan><tspan x="172" dy="14">(N=1513)</tspan><title>2011(N=1513)</title>
        </text>
        <text x="208" y="184">
            <tspan>2015</tspan><tspan x="208" dy="14">(N=1489)</tspan><title>2015(N=1489)</title>
        </text>
    </g>
    <g class="highcharts-axis-labels highcharts-yaxis-labels" text-anchor="end" color="#000" cursor="default" font-size="11">
        <text x="31" y="170">
            <tspan>0%</tspan>
        </text>
        <text x="31" y="146">
            <tspan>20%</tspan>
        </text>
        <text x="31" y="122">
            <tspan>40%</tspan>
        </text>
        <text x="31" y="98">
            <tspan>60%</tspan>
        </text>
        <text x="31" y="74">
            <tspan>80%</tspan>
        </text>
        <text x="31" y="51">
            <tspan>100%</tspan>
        </text>
    </g>
    <text x="10" class="highcharts-credits" y="193" cursor="default" color="#000" font-size="10">
        <tspan>Quelle: Statistisches Amt Basel-Stadt, kantonale Bevölkerungsbefragung: F4</tspan>
    </text>
</svg>
