<svg class="highcharts-root" xmlns="http://www.w3.org/2000/svg" width="320" height="208" font-family="Arial" font-size="12">
    <rect fill="#fbfbfb" class="highcharts-background" width="320" height="208" rx="0" ry="0"/>
    <path fill="none" class="highcharts-plot-background" d="M3 35h196v170H3z"/>
    <path fill="none" class="highcharts-plot-border" d="M3 35h196v170H3z"/>
    <g class="highcharts-series-group">
        <g class="highcharts-series highcharts-series-0 highcharts-pie-series highcharts-color-undefined highcharts-tracker" cursor="true">
            <path fill="#50B432" d="M100.985 45a75 75 0 0 1 66.366 40.034l-59.716 31.47a7.5 7.5 0 0 0-6.637-4.004z" class="highcharts-point highcharts-color-0" stroke="#fff" stroke-linejoin="round"/>
            <path fill="#ED561B" d="M167.386 85.1a75 75 0 0 1-106.301 98.396l35.923-57.146a7.5 7.5 0 0 0 10.63-9.84z" class="highcharts-point highcharts-color-1" stroke="#fff" stroke-linejoin="round"/>
            <path fill="#DDDF00" d="M61.021 183.456A75 75 0 0 1 100.896 45l.094 67.5a7.5 7.5 0 0 0-3.988 13.846z" class="highcharts-point highcharts-color-2" stroke="#fff" stroke-linejoin="round"/>
        </g>
        <g class="highcharts-series highcharts-series-1 highcharts-pie-series highcharts-color-undefined highcharts-tracker" cursor="true">
            <path fill="#50B432" d="M100.985 45a75 75 0 0 1 57.809 27.201l-31.786 26.29a33.75 33.75 0 0 0-26.015-12.241z" class="highcharts-point highcharts-color-0" stroke="#fff" stroke-linejoin="round"/>
            <path fill="#ED561B" d="M158.842 72.26A75 75 0 0 1 69.25 187.946l17.462-37.37a33.75 33.75 0 0 0 40.317-52.06z" class="highcharts-point highcharts-color-1" stroke="#fff" stroke-linejoin="round"/>
            <path fill="#DDDF00" d="M69.182 187.915a75 75 0 0 1 31.703-142.914l.063 41.249a33.75 33.75 0 0 0-14.266 64.312z" class="highcharts-point highcharts-color-2" stroke="#fff" stroke-linejoin="round"/>
        </g>
    </g>
    <text x="3" class="highcharts-title" y="14" color="#000" font-size="10" font-weight="700">
        <tspan>Unterwegsdistanz nach Verkehrsmittel</tspan>
    </text>
    <text x="3" y="13" font-size="10" font-weight="400" transform="translate(200 65)" class="pieLegend">
        <tspan>Innen: 2010</tspan>
    </text>
    <text x="3" y="13" font-size="10" font-weight="400" transform="translate(200 50)" class="pieLegend">
        <tspan>Aussen: 2015</tspan>
    </text>
    <g class="highcharts-legend" transform="translate(199 98)">
        <rect fill="none" class="highcharts-legend-box" rx="0" ry="0" width="118" height="66"/>
        <g class="highcharts-legend-item highcharts-pie-series highcharts-color-0">
            <path fill="#50B432" class="highcharts-point" d="M3-1h10V9H3z"/>
        </g>
        <g class="highcharts-legend-item highcharts-pie-series highcharts-color-1">
            <path fill="#ED561B" class="highcharts-point" d="M3 14h10v10H3z"/>
        </g>
        <g class="highcharts-legend-item highcharts-pie-series highcharts-color-2">
            <path fill="#DDDF00" class="highcharts-point" d="M3 42h10v10H3z"/>
        </g>
    </g>
    <text x="10" class="highcharts-credits" y="193" cursor="default" color="#000" font-size="10">
        <tspan>Quelle: Bundesamt für Raumentwicklung, Mikrozensus zum Verkehrsverhalten</tspan>
    </text>
</svg>
