<svg version="1.1" class="highcharts-root" style="font-family: Arial; font-size: 1rem;" xmlns="http://www.w3.org/2000/svg" width="600" height="400" viewBox="0 0 600 400" role="img" aria-label="Wanderungssaldo gegenüber der Schweiz nach Alter"><desc>Created with Highcharts 12.5.0</desc><defs><filter id="highcharts-drop-shadow-0"><feDropShadow dx="1" dy="1" flood-color="#000000" flood-opacity="0.75" stdDeviation="2.5"></feDropShadow></filter><clipPath id="highcharts-y6tjkom-687-"><rect x="0" y="0" width="275" height="530" fill="none"></rect></clipPath><filter id="highcharts-drop-shadow-0-offsetx--1-offsety--1"><feDropShadow dx="-1" dy="-1" flood-color="#000000" flood-opacity="0.75" stdDeviation="2.5"></feDropShadow></filter></defs><rect fill="#ffffff" class="highcharts-background" filter="none" x="0" y="0" width="600" height="400" rx="0" ry="0"></rect><rect fill="none" class="highcharts-plot-background" x="59" y="55" width="531" height="275" filter="none"></rect><g class="highcharts-pane-group" data-z-index="0"></g><g class="highcharts-plot-lines-0" data-z-index="0"><path fill="none" class="highcharts-plot-line " stroke="#B9CFD7" stroke-width="1" d="M 271.5 55 L 271.5 330"></path></g><g class="highcharts-grid highcharts-yaxis-grid" data-z-index="1"><path fill="none" stroke="#B9CFD7" stroke-width="0.5" stroke-dasharray="none" data-z-index="1" class="highcharts-grid-line" d="M 59.25 55 L 59.25 330" opacity="1"></path><path fill="none" stroke="#B9CFD7" stroke-width="0.5" stroke-dasharray="none" data-z-index="1" class="highcharts-grid-line" d="M 112.25 55 L 112.25 330" opacity="1"></path><path fill="none" stroke="#B9CFD7" stroke-width="0.5" stroke-dasharray="none" data-z-index="1" class="highcharts-grid-line" d="M 165.25 55 L 165.25 330" opacity="1"></path><path fill="none" stroke="#B9CFD7" stroke-width="0.5" stroke-dasharray="none" data-z-index="1" class="highcharts-grid-line" d="M 218.25 55 L 218.25 330" opacity="1"></path><path fill="none" stroke="#B9CFD7" stroke-width="0.5" stroke-dasharray="none" data-z-index="1" class="highcharts-grid-line" d="M 271.25 55 L 271.25 330" opacity="1"></path><path fill="none" stroke="#B9CFD7" stroke-width="0.5" stroke-dasharray="none" data-z-index="1" class="highcharts-grid-line" d="M 324.25 55 L 324.25 330" opacity="1"></path><path fill="none" stroke="#B9CFD7" stroke-width="0.5" stroke-dasharray="none" data-z-index="1" class="highcharts-grid-line" d="M 377.25 55 L 377.25 330" opacity="1"></path><path fill="none" stroke="#B9CFD7" stroke-width="0.5" stroke-dasharray="none" data-z-index="1" class="highcharts-grid-line" d="M 430.25 55 L 430.25 330" opacity="1"></path><path fill="none" stroke="#B9CFD7" stroke-width="0.5" stroke-dasharray="none" data-z-index="1" class="highcharts-grid-line" d="M 484.25 55 L 484.25 330" opacity="1"></path><path fill="none" stroke="#B9CFD7" stroke-width="0.5" stroke-dasharray="none" data-z-index="1" class="highcharts-grid-line" d="M 537.25 55 L 537.25 330" opacity="1"></path><path fill="none" stroke="#B9CFD7" stroke-width="0.5" stroke-dasharray="none" data-z-index="1" class="highcharts-grid-line" d="M 590.25 55 L 590.25 330" opacity="1"></path></g><g class="highcharts-grid highcharts-xaxis-grid" data-z-index="1"><path fill="none" stroke="#e6e6e6" stroke-width="0" stroke-dasharray="none" data-z-index="1" class="highcharts-grid-line" d="M 59 71.5 L 590 71.5" opacity="1"></path><path fill="none" stroke="#e6e6e6" stroke-width="0" stroke-dasharray="none" data-z-index="1" class="highcharts-grid-line" d="M 59 87.5 L 590 87.5" opacity="1"></path><path fill="none" stroke="#e6e6e6" stroke-width="0" stroke-dasharray="none" data-z-index="1" class="highcharts-grid-line" d="M 59 103.5 L 590 103.5" opacity="1"></path><path fill="none" stroke="#e6e6e6" stroke-width="0" stroke-dasharray="none" data-z-index="1" class="highcharts-grid-line" d="M 59 119.5 L 590 119.5" opacity="1"></path><path fill="none" stroke="#e6e6e6" stroke-width="0" stroke-dasharray="none" data-z-index="1" class="highcharts-grid-line" d="M 59 135.5 L 590 135.5" opacity="1"></path><path fill="none" stroke="#e6e6e6" stroke-width="0" stroke-dasharray="none" data-z-index="1" class="highcharts-grid-line" d="M 59 152.5 L 590 152.5" opacity="1"></path><path fill="none" stroke="#e6e6e6" stroke-width="0" stroke-dasharray="none" data-z-index="1" class="highcharts-grid-line" d="M 59 168.5 L 590 168.5" opacity="1"></path><path fill="none" stroke="#e6e6e6" stroke-width="0" stroke-dasharray="none" data-z-index="1" class="highcharts-grid-line" d="M 59 184.5 L 590 184.5" opacity="1"></path><path fill="none" stroke="#e6e6e6" stroke-width="0" stroke-dasharray="none" data-z-index="1" class="highcharts-grid-line" d="M 59 200.5 L 590 200.5" opacity="1"></path><path fill="none" stroke="#e6e6e6" stroke-width="0" stroke-dasharray="none" data-z-index="1" class="highcharts-grid-line" d="M 59 216.5 L 590 216.5" opacity="1"></path><path fill="none" stroke="#e6e6e6" stroke-width="0" stroke-dasharray="none" data-z-index="1" class="highcharts-grid-line" d="M 59 232.5 L 590 232.5" opacity="1"></path><path fill="none" stroke="#e6e6e6" stroke-width="0" stroke-dasharray="none" data-z-index="1" class="highcharts-grid-line" d="M 59 249.5 L 590 249.5" opacity="1"></path><path fill="none" stroke="#e6e6e6" stroke-width="0" stroke-dasharray="none" data-z-index="1" class="highcharts-grid-line" d="M 59 265.5 L 590 265.5" opacity="1"></path><path fill="none" stroke="#e6e6e6" stroke-width="0" stroke-dasharray="none" data-z-index="1" class="highcharts-grid-line" d="M 59 281.5 L 590 281.5" opacity="1"></path><path fill="none" stroke="#e6e6e6" stroke-width="0" stroke-dasharray="none" data-z-index="1" class="highcharts-grid-line" d="M 59 297.5 L 590 297.5" opacity="1"></path><path fill="none" stroke="#e6e6e6" stroke-width="0" stroke-dasharray="none" data-z-index="1" class="highcharts-grid-line" d="M 59 313.5 L 590 313.5" opacity="1"></path><path fill="none" stroke="#e6e6e6" stroke-width="0" stroke-dasharray="none" data-z-index="1" class="highcharts-grid-line" d="M 59 329.5 L 590 329.5" opacity="1"></path><path fill="none" stroke="#e6e6e6" stroke-width="0" stroke-dasharray="none" data-z-index="1" class="highcharts-grid-line" d="M 59 55.5 L 590 55.5" opacity="1"></path></g><rect fill="none" class="highcharts-plot-border" data-z-index="1" stroke="#cccccc" stroke-width="0" x="59" y="55" width="531" height="275"></rect><g class="highcharts-axis highcharts-yaxis" data-z-index="2"><path fill="none" class="highcharts-axis-line" stroke="#B9CFD7" stroke-width="0" data-z-index="7" d="M 59 330 L 590 330"></path></g><g class="highcharts-axis highcharts-xaxis" data-z-index="2"><path fill="none" class="highcharts-axis-line" stroke="#B9CFD7" stroke-width="0.5" data-z-index="7" d="M 59.25 55 L 59.25 330"></path></g><g class="highcharts-series-group" data-z-index="3" filter="none"><g class="highcharts-series highcharts-series-0 highcharts-column-series highcharts-tracker" data-z-index="0.1" opacity="1" transform="translate(59,55) rotate(90 128 403) scale(-1 1)" clip-path="url(#highcharts-y6tjkom-687-)"><path fill="#71A3B5" d="M 262 319 L 272 319 A 0 0 0 0 1 272 319 L 272 445 A 3 3 0 0 1 269 448 L 265 448 A 3 3 0 0 1 262 445 L 262 319 A 0 0 0 0 1 262 319 Z" stroke="#ffffff" stroke-width="0" opacity="1" filter="none" class="highcharts-point highcharts-negative"></path><path fill="#71A3B5" d="M 246 319 L 256 319 A 0 0 0 0 1 256 319 L 256 384 A 3 3 0 0 1 253 387 L 249 387 A 3 3 0 0 1 246 384 L 246 319 A 0 0 0 0 1 246 319 Z" stroke="#ffffff" stroke-width="0" opacity="1" filter="none" class="highcharts-point highcharts-negative"></path><path fill="#71A3B5" d="M 230 319 L 239 319 A 0 0 0 0 1 239 319 L 239 356 A 3 3 0 0 1 236 359 L 233 359 A 3 3 0 0 1 230 356 L 230 319 A 0 0 0 0 1 230 319 Z" stroke="#ffffff" stroke-width="0" opacity="1" filter="none" class="highcharts-point highcharts-negative"></path><path fill="#71A3B5" d="M 217 280 L 220 280 A 3 3 0 0 1 223 283 L 223 319 A 0 0 0 0 1 223 319 L 214 319 A 0 0 0 0 1 214 319 L 214 283 A 3 3 0 0 1 217 280 Z" stroke="#ffffff" stroke-width="0" opacity="1" filter="none" class="highcharts-point"></path><path fill="#71A3B5" d="M 200 28 L 204 28 A 3 3 0 0 1 207 31 L 207 319 A 0 0 0 0 1 207 319 L 197 319 A 0 0 0 0 1 197 319 L 197 31 A 3 3 0 0 1 200 28 Z" stroke="#ffffff" stroke-width="0" opacity="1" filter="none" class="highcharts-point"></path><path fill="#71A3B5" d="M 181 319 L 191 319 A 0 0 0 0 1 191 319 L 191 335 A 3 3 0 0 1 188 338 L 184 338 A 3 3 0 0 1 181 335 L 181 319 A 0 0 0 0 1 181 319 Z" stroke="#ffffff" stroke-width="0" opacity="1" filter="none" class="highcharts-point highcharts-negative"></path><path fill="#71A3B5" d="M 165 319 L 175 319 A 0 0 0 0 1 175 319 L 175 521 A 3 3 0 0 1 172 524 L 168 524 A 3 3 0 0 1 165 521 L 165 319 A 0 0 0 0 1 165 319 Z" stroke="#ffffff" stroke-width="0" opacity="1" filter="none" class="highcharts-point highcharts-negative"></path><path fill="#71A3B5" d="M 149 319 L 159 319 A 0 0 0 0 1 159 319 L 159 515 A 3 3 0 0 1 156 518 L 152 518 A 3 3 0 0 1 149 515 L 149 319 A 0 0 0 0 1 149 319 Z" stroke="#ffffff" stroke-width="0" opacity="1" filter="none" class="highcharts-point highcharts-negative"></path><path fill="#71A3B5" d="M 133 319 L 142 319 A 0 0 0 0 1 142 319 L 142 447 A 3 3 0 0 1 139 450 L 136 450 A 3 3 0 0 1 133 447 L 133 319 A 0 0 0 0 1 133 319 Z" stroke="#ffffff" stroke-width="0" opacity="1" filter="none" class="highcharts-point highcharts-negative"></path><path fill="#71A3B5" d="M 116 319 L 126 319 A 0 0 0 0 1 126 319 L 126 396 A 3 3 0 0 1 123 399 L 119 399 A 3 3 0 0 1 116 396 L 116 319 A 0 0 0 0 1 116 319 Z" stroke="#ffffff" stroke-width="0" opacity="1" filter="none" class="highcharts-point highcharts-negative"></path><path fill="#71A3B5" d="M 100 319 L 110 319 A 0 0 0 0 1 110 319 L 110 361 A 3 3 0 0 1 107 364 L 103 364 A 3 3 0 0 1 100 361 L 100 319 A 0 0 0 0 1 100 319 Z" stroke="#ffffff" stroke-width="0" opacity="1" filter="none" class="highcharts-point highcharts-negative"></path><path fill="#71A3B5" d="M 84 319 L 94 319 A 0 0 0 0 1 94 319 L 94 354 A 3 3 0 0 1 91 357 L 87 357 A 3 3 0 0 1 84 354 L 84 319 A 0 0 0 0 1 84 319 Z" stroke="#ffffff" stroke-width="0" opacity="1" filter="none" class="highcharts-point highcharts-negative"></path><path fill="#71A3B5" d="M 68 319 L 78 319 A 0 0 0 0 1 78 319 L 78 351 A 3 3 0 0 1 75 354 L 71 354 A 3 3 0 0 1 68 351 L 68 319 A 0 0 0 0 1 68 319 Z" stroke="#ffffff" stroke-width="0" opacity="1" filter="none" class="highcharts-point highcharts-negative"></path><path fill="#71A3B5" d="M 52 319 L 61 319 A 0 0 0 0 1 61 319 L 61 334 A 3 3 0 0 1 58 337 L 55 337 A 3 3 0 0 1 52 334 L 52 319 A 0 0 0 0 1 52 319 Z" stroke="#ffffff" stroke-width="0" opacity="1" filter="none" class="highcharts-point highcharts-negative"></path><path fill="#71A3B5" d="M 36 319 L 45 319 A 0 0 0 0 1 45 319 L 45 323 A 3 3 0 0 1 42 326 L 39 326 A 3 3 0 0 1 36 323 L 36 319 A 0 0 0 0 1 36 319 Z" stroke="#ffffff" stroke-width="0" opacity="1" filter="none" class="highcharts-point highcharts-negative"></path><path fill="#71A3B5" d="M 22 318 L 26 318 A 3 3 0 0 1 28.23606797749979 319 L 28.23606797749979 319 A 0 0 0 0 1 28.23606797749979 319 L 28.23606797749979 319 A 0 0 0 0 1 19.76393202250021 319 L 19.76393202250021 319 A 3 3 0 0 1 22 318 Z" stroke="#ffffff" stroke-width="0" opacity="1" filter="none" class="highcharts-point"></path><path fill="#71A3B5" d="M 6 312 L 10 312 A 3 3 0 0 1 13 315 L 13 319 A 0 0 0 0 1 13 319 L 3 319 A 0 0 0 0 1 3 319 L 3 315 A 3 3 0 0 1 6 312 Z" stroke="#ffffff" stroke-width="0" opacity="1" filter="none" class="highcharts-point"></path></g><g class="highcharts-markers highcharts-series-0 highcharts-column-series" data-z-index="0.1" opacity="1" transform="translate(59,55) scale(1 1)" clip-path="none"></g></g><text x="10" text-anchor="start" class="highcharts-caption" data-z-index="4" style="font-size: 0.8em; fill: rgb(102, 102, 102);" text-align="left" y="372" transform-origin="10 15" transform="translate(0,0) scale(1 1)"></text><g class="highcharts-axis-labels highcharts-yaxis-labels" data-z-index="7"><text x="59" text-anchor="middle" transform="translate(0,0)" style="cursor: default; font-size: 0.8em; fill: rgb(0, 0, 0);" y="357" opacity="1">-4k</text><text x="112.1" text-anchor="middle" transform="translate(0,0)" style="cursor: default; font-size: 0.8em; fill: rgb(0, 0, 0);" y="357" opacity="1">-3k</text><text x="165.2" text-anchor="middle" transform="translate(0,0)" style="cursor: default; font-size: 0.8em; fill: rgb(0, 0, 0);" y="357" opacity="1">-2k</text><text x="218.3" text-anchor="middle" transform="translate(0,0)" style="cursor: default; font-size: 0.8em; fill: rgb(0, 0, 0);" y="357" opacity="1">-1k</text><text x="271.4" text-anchor="middle" transform="translate(0,0)" style="cursor: default; font-size: 0.8em; fill: rgb(0, 0, 0);" y="357" opacity="1">0</text><text x="324.5" text-anchor="middle" transform="translate(0,0)" style="cursor: default; font-size: 0.8em; fill: rgb(0, 0, 0);" y="357" opacity="1">1k</text><text x="377.6" text-anchor="middle" transform="translate(0,0)" style="cursor: default; font-size: 0.8em; fill: rgb(0, 0, 0);" y="357" opacity="1">2k</text><text x="430.7" text-anchor="middle" transform="translate(0,0)" style="cursor: default; font-size: 0.8em; fill: rgb(0, 0, 0);" y="357" opacity="1">3k</text><text x="483.8" text-anchor="middle" transform="translate(0,0)" style="cursor: default; font-size: 0.8em; fill: rgb(0, 0, 0);" y="357" opacity="1">4k</text><text x="536.9" text-anchor="middle" transform="translate(0,0)" style="cursor: default; font-size: 0.8em; fill: rgb(0, 0, 0);" y="357" opacity="1">5k</text><text x="582.9406280517578" text-anchor="middle" transform="translate(0,0)" style="cursor: default; font-size: 0.8em; fill: rgb(0, 0, 0);" y="357" opacity="1">6k</text></g><g class="highcharts-axis-labels highcharts-xaxis-labels" data-z-index="7"><text x="44" text-anchor="end" transform="translate(0,0)" style="cursor: default; font-size: 0.8em; fill: rgb(0, 0, 0);" y="68" opacity="1">0-4</text><text x="44" text-anchor="end" transform="translate(0,0)" style="cursor: default; font-size: 0.8em; fill: rgb(0, 0, 0);" y="84" opacity="1">5-9</text><text x="44" text-anchor="end" transform="translate(0,0)" style="cursor: default; font-size: 0.8em; fill: rgb(0, 0, 0);" y="100" opacity="1">10-14</text><text x="44" text-anchor="end" transform="translate(0,0)" style="cursor: default; font-size: 0.8em; fill: rgb(0, 0, 0);" y="116" opacity="1">15-19</text><text x="44" text-anchor="end" transform="translate(0,0)" style="cursor: default; font-size: 0.8em; fill: rgb(0, 0, 0);" y="132" opacity="1">20-24</text><text x="44" text-anchor="end" transform="translate(0,0)" style="cursor: default; font-size: 0.8em; fill: rgb(0, 0, 0);" y="148" opacity="1">25-29</text><text x="44" text-anchor="end" transform="translate(0,0)" style="cursor: default; font-size: 0.8em; fill: rgb(0, 0, 0);" y="165" opacity="1">30-34</text><text x="44" text-anchor="end" transform="translate(0,0)" style="cursor: default; font-size: 0.8em; fill: rgb(0, 0, 0);" y="181" opacity="1">35-39</text><text x="44" text-anchor="end" transform="translate(0,0)" style="cursor: default; font-size: 0.8em; fill: rgb(0, 0, 0);" y="197" opacity="1">40-44</text><text x="44" text-anchor="end" transform="translate(0,0)" style="cursor: default; font-size: 0.8em; fill: rgb(0, 0, 0);" y="213" opacity="1">45-49</text><text x="44" text-anchor="end" transform="translate(0,0)" style="cursor: default; font-size: 0.8em; fill: rgb(0, 0, 0);" y="229" opacity="1">50-54</text><text x="44" text-anchor="end" transform="translate(0,0)" style="cursor: default; font-size: 0.8em; fill: rgb(0, 0, 0);" y="246" opacity="1">55-59</text><text x="44" text-anchor="end" transform="translate(0,0)" style="cursor: default; font-size: 0.8em; fill: rgb(0, 0, 0);" y="262" opacity="1">60-64</text><text x="44" text-anchor="end" transform="translate(0,0)" style="cursor: default; font-size: 0.8em; fill: rgb(0, 0, 0);" y="278" opacity="1">65-69</text><text x="44" text-anchor="end" transform="translate(0,0)" style="cursor: default; font-size: 0.8em; fill: rgb(0, 0, 0);" y="294" opacity="1">70-74</text><text x="44" text-anchor="end" transform="translate(0,0)" style="cursor: default; font-size: 0.8em; fill: rgb(0, 0, 0);" y="310" opacity="1">75-79</text><text x="44" text-anchor="end" transform="translate(0,0)" style="cursor: default; font-size: 0.8em; fill: rgb(0, 0, 0);" y="326" opacity="1">&gt;79</text></g></svg>