<svg version="1.1" class="highcharts-root" style="font-family: Arial; font-size: 1rem;" xmlns="http://www.w3.org/2000/svg" width="600" height="400" viewBox="0 0 600 400" role="img" aria-label="Aus dem Ausland Zugezogene nach Zuzugsland sowie nach Gemeinde und Wohnviertel"><desc>Created with Highcharts 12.5.0</desc><defs><filter id="highcharts-drop-shadow-0"><feDropShadow dx="1" dy="1" flood-color="#000000" flood-opacity="0.75" stdDeviation="2.5"></feDropShadow></filter><clipPath id="highcharts-y6tjkom-526-"><rect x="0" y="0" width="532" height="111" fill="none"></rect></clipPath></defs><rect fill="#ffffff" class="highcharts-background" filter="none" x="0" y="0" width="600" height="400" rx="0" ry="0"></rect><rect fill="none" class="highcharts-plot-background" x="58" y="122" width="532" height="111" filter="none"></rect><g class="highcharts-pane-group" data-z-index="0"></g><g class="highcharts-grid highcharts-xaxis-grid" data-z-index="1"><path fill="none" stroke="#e6e6e6" stroke-width="0" stroke-dasharray="none" data-z-index="1" class="highcharts-grid-line" d="M 82.5 122 L 82.5 233" opacity="1"></path><path fill="none" stroke="#e6e6e6" stroke-width="0" stroke-dasharray="none" data-z-index="1" class="highcharts-grid-line" d="M 106.5 122 L 106.5 233" opacity="1"></path><path fill="none" stroke="#e6e6e6" stroke-width="0" stroke-dasharray="none" data-z-index="1" class="highcharts-grid-line" d="M 130.5 122 L 130.5 233" opacity="1"></path><path fill="none" stroke="#e6e6e6" stroke-width="0" stroke-dasharray="none" data-z-index="1" class="highcharts-grid-line" d="M 154.5 122 L 154.5 233" opacity="1"></path><path fill="none" stroke="#e6e6e6" stroke-width="0" stroke-dasharray="none" data-z-index="1" class="highcharts-grid-line" d="M 178.5 122 L 178.5 233" opacity="1"></path><path fill="none" stroke="#e6e6e6" stroke-width="0" stroke-dasharray="none" data-z-index="1" class="highcharts-grid-line" d="M 203.5 122 L 203.5 233" opacity="1"></path><path fill="none" stroke="#e6e6e6" stroke-width="0" stroke-dasharray="none" data-z-index="1" class="highcharts-grid-line" d="M 227.5 122 L 227.5 233" opacity="1"></path><path fill="none" stroke="#e6e6e6" stroke-width="0" stroke-dasharray="none" data-z-index="1" class="highcharts-grid-line" d="M 251.5 122 L 251.5 233" opacity="1"></path><path fill="none" stroke="#e6e6e6" stroke-width="0" stroke-dasharray="none" data-z-index="1" class="highcharts-grid-line" d="M 275.5 122 L 275.5 233" opacity="1"></path><path fill="none" stroke="#e6e6e6" stroke-width="0" stroke-dasharray="none" data-z-index="1" class="highcharts-grid-line" d="M 299.5 122 L 299.5 233" opacity="1"></path><path fill="none" stroke="#e6e6e6" stroke-width="0" stroke-dasharray="none" data-z-index="1" class="highcharts-grid-line" d="M 324.5 122 L 324.5 233" opacity="1"></path><path fill="none" stroke="#e6e6e6" stroke-width="0" stroke-dasharray="none" data-z-index="1" class="highcharts-grid-line" d="M 348.5 122 L 348.5 233" opacity="1"></path><path fill="none" stroke="#e6e6e6" stroke-width="0" stroke-dasharray="none" data-z-index="1" class="highcharts-grid-line" d="M 372.5 122 L 372.5 233" opacity="1"></path><path fill="none" stroke="#e6e6e6" stroke-width="0" stroke-dasharray="none" data-z-index="1" class="highcharts-grid-line" d="M 396.5 122 L 396.5 233" opacity="1"></path><path fill="none" stroke="#e6e6e6" stroke-width="0" stroke-dasharray="none" data-z-index="1" class="highcharts-grid-line" d="M 420.5 122 L 420.5 233" opacity="1"></path><path fill="none" stroke="#e6e6e6" stroke-width="0" stroke-dasharray="none" data-z-index="1" class="highcharts-grid-line" d="M 444.5 122 L 444.5 233" opacity="1"></path><path fill="none" stroke="#e6e6e6" stroke-width="0" stroke-dasharray="none" data-z-index="1" class="highcharts-grid-line" d="M 469.5 122 L 469.5 233" opacity="1"></path><path fill="none" stroke="#e6e6e6" stroke-width="0" stroke-dasharray="none" data-z-index="1" class="highcharts-grid-line" d="M 493.5 122 L 493.5 233" opacity="1"></path><path fill="none" stroke="#e6e6e6" stroke-width="0" stroke-dasharray="none" data-z-index="1" class="highcharts-grid-line" d="M 517.5 122 L 517.5 233" opacity="1"></path><path fill="none" stroke="#e6e6e6" stroke-width="0" stroke-dasharray="none" data-z-index="1" class="highcharts-grid-line" d="M 541.5 122 L 541.5 233" opacity="1"></path><path fill="none" stroke="#e6e6e6" stroke-width="0" stroke-dasharray="none" data-z-index="1" class="highcharts-grid-line" d="M 565.5 122 L 565.5 233" opacity="1"></path><path fill="none" stroke="#e6e6e6" stroke-width="0" stroke-dasharray="none" data-z-index="1" class="highcharts-grid-line" d="M 590.5 122 L 590.5 233" opacity="1"></path><path fill="none" stroke="#e6e6e6" stroke-width="0" stroke-dasharray="none" data-z-index="1" class="highcharts-grid-line" d="M 58.5 122 L 58.5 233" opacity="1"></path></g><g class="highcharts-grid highcharts-yaxis-grid" data-z-index="1"><path fill="none" stroke="#B9CFD7" stroke-width="0.5" stroke-dasharray="none" data-z-index="1" class="highcharts-grid-line" d="M 58 233.25 L 590 233.25" opacity="1"></path><path fill="none" stroke="#B9CFD7" stroke-width="0.5" stroke-dasharray="none" data-z-index="1" class="highcharts-grid-line" d="M 58 205.25 L 590 205.25" opacity="1"></path><path fill="none" stroke="#B9CFD7" stroke-width="0.5" stroke-dasharray="none" data-z-index="1" class="highcharts-grid-line" d="M 58 177.25 L 590 177.25" opacity="1"></path><path fill="none" stroke="#B9CFD7" stroke-width="0.5" stroke-dasharray="none" data-z-index="1" class="highcharts-grid-line" d="M 58 150.25 L 590 150.25" opacity="1"></path><path fill="none" stroke="#B9CFD7" stroke-width="0.5" stroke-dasharray="none" data-z-index="1" class="highcharts-grid-line" d="M 58 122.25 L 590 122.25" opacity="1"></path></g><rect fill="none" class="highcharts-plot-border" data-z-index="1" stroke="#cccccc" stroke-width="0" x="58" y="122" width="532" height="111"></rect><g class="highcharts-axis highcharts-xaxis" data-z-index="2"><path fill="none" class="highcharts-axis-line" stroke="#B9CFD7" stroke-width="0.5" data-z-index="7" d="M 58 233.25 L 590 233.25"></path></g><g class="highcharts-axis highcharts-yaxis" data-z-index="2"><path fill="none" class="highcharts-axis-line" stroke="#B9CFD7" stroke-width="0" data-z-index="7" d="M 58 122 L 58 233"></path></g><g class="highcharts-series-group" data-z-index="3" filter="none"><g class="highcharts-series highcharts-series-0 highcharts-column-series highcharts-tracker" data-z-index="0.1" opacity="1" transform="translate(58,122) scale(1 1)" clip-path="url(#highcharts-y6tjkom-526-)"><path fill="#999999" d="M 8 0 L 17 0 A 3 3 0 0 1 20 3 L 20 50 A 0 0 0 0 1 20 50 L 5 50 A 0 0 0 0 1 5 50 L 5 3 A 3 3 0 0 1 8 0 Z" stroke="#ffffff" stroke-width="0" opacity="1" filter="none" class="highcharts-point"></path><path fill="#999999" d="M 32 0 L 41 0 A 3 3 0 0 1 44 3 L 44 72 A 0 0 0 0 1 44 72 L 29 72 A 0 0 0 0 1 29 72 L 29 3 A 3 3 0 0 1 32 0 Z" stroke="#ffffff" stroke-width="0" opacity="1" filter="none" class="highcharts-point"></path><path fill="#999999" d="M 56 0 L 65 0 A 3 3 0 0 1 68 3 L 68 46 A 0 0 0 0 1 68 46 L 53 46 A 0 0 0 0 1 53 46 L 53 3 A 3 3 0 0 1 56 0 Z" stroke="#ffffff" stroke-width="0" opacity="1" filter="none" class="highcharts-point"></path><path fill="#999999" d="M 80 0 L 89 0 A 3 3 0 0 1 92 3 L 92 57 A 0 0 0 0 1 92 57 L 77 57 A 0 0 0 0 1 77 57 L 77 3 A 3 3 0 0 1 80 0 Z" stroke="#ffffff" stroke-width="0" opacity="1" filter="none" class="highcharts-point"></path><path fill="#999999" d="M 104 0 L 113 0 A 3 3 0 0 1 116 3 L 116 51 A 0 0 0 0 1 116 51 L 101 51 A 0 0 0 0 1 101 51 L 101 3 A 3 3 0 0 1 104 0 Z" stroke="#ffffff" stroke-width="0" opacity="1" filter="none" class="highcharts-point"></path><path fill="#999999" d="M 129 0 L 138 0 A 3 3 0 0 1 141 3 L 141 50 A 0 0 0 0 1 141 50 L 126 50 A 0 0 0 0 1 126 50 L 126 3 A 3 3 0 0 1 129 0 Z" stroke="#ffffff" stroke-width="0" opacity="1" filter="none" class="highcharts-point"></path><path fill="#999999" d="M 153 0 L 162 0 A 3 3 0 0 1 165 3 L 165 52 A 0 0 0 0 1 165 52 L 150 52 A 0 0 0 0 1 150 52 L 150 3 A 3 3 0 0 1 153 0 Z" stroke="#ffffff" stroke-width="0" opacity="1" filter="none" class="highcharts-point"></path><path fill="#999999" d="M 177 0 L 186 0 A 3 3 0 0 1 189 3 L 189 45 A 0 0 0 0 1 189 45 L 174 45 A 0 0 0 0 1 174 45 L 174 3 A 3 3 0 0 1 177 0 Z" stroke="#ffffff" stroke-width="0" opacity="1" filter="none" class="highcharts-point"></path><path fill="#999999" d="M 201 0 L 210 0 A 3 3 0 0 1 213 3 L 213 48 A 0 0 0 0 1 213 48 L 198 48 A 0 0 0 0 1 198 48 L 198 3 A 3 3 0 0 1 201 0 Z" stroke="#ffffff" stroke-width="0" opacity="1" filter="none" class="highcharts-point"></path><path fill="#999999" d="M 225 0 L 234 0 A 3 3 0 0 1 237 3 L 237 52 A 0 0 0 0 1 237 52 L 222 52 A 0 0 0 0 1 222 52 L 222 3 A 3 3 0 0 1 225 0 Z" stroke="#ffffff" stroke-width="0" opacity="1" filter="none" class="highcharts-point"></path><path fill="#999999" d="M 249 0 L 258 0 A 3 3 0 0 1 261 3 L 261 57 A 0 0 0 0 1 261 57 L 246 57 A 0 0 0 0 1 246 57 L 246 3 A 3 3 0 0 1 249 0 Z" stroke="#ffffff" stroke-width="0" opacity="1" filter="none" class="highcharts-point"></path><path fill="#999999" d="M 274 0 L 283 0 A 3 3 0 0 1 286 3 L 286 46 A 0 0 0 0 1 286 46 L 271 46 A 0 0 0 0 1 271 46 L 271 3 A 3 3 0 0 1 274 0 Z" stroke="#ffffff" stroke-width="0" opacity="1" filter="none" class="highcharts-point"></path><path fill="#999999" d="M 298 0 L 307 0 A 3 3 0 0 1 310 3 L 310 54 A 0 0 0 0 1 310 54 L 295 54 A 0 0 0 0 1 295 54 L 295 3 A 3 3 0 0 1 298 0 Z" stroke="#ffffff" stroke-width="0" opacity="1" filter="none" class="highcharts-point"></path><path fill="#999999" d="M 322 0 L 331 0 A 3 3 0 0 1 334 3 L 334 56 A 0 0 0 0 1 334 56 L 319 56 A 0 0 0 0 1 319 56 L 319 3 A 3 3 0 0 1 322 0 Z" stroke="#ffffff" stroke-width="0" opacity="1" filter="none" class="highcharts-point"></path><path fill="#999999" d="M 346 0 L 355 0 A 3 3 0 0 1 358 3 L 358 45 A 0 0 0 0 1 358 45 L 343 45 A 0 0 0 0 1 343 45 L 343 3 A 3 3 0 0 1 346 0 Z" stroke="#ffffff" stroke-width="0" opacity="1" filter="none" class="highcharts-point"></path><path fill="#999999" d="M 370 0 L 379 0 A 3 3 0 0 1 382 3 L 382 69 A 0 0 0 0 1 382 69 L 367 69 A 0 0 0 0 1 367 69 L 367 3 A 3 3 0 0 1 370 0 Z" stroke="#ffffff" stroke-width="0" opacity="1" filter="none" class="highcharts-point"></path><path fill="#999999" d="M 395 0 L 404 0 A 3 3 0 0 1 407 3 L 407 46 A 0 0 0 0 1 407 46 L 392 46 A 0 0 0 0 1 392 46 L 392 3 A 3 3 0 0 1 395 0 Z" stroke="#ffffff" stroke-width="0" opacity="1" filter="none" class="highcharts-point"></path><path fill="#999999" d="M 419 0 L 428 0 A 3 3 0 0 1 431 3 L 431 38 A 0 0 0 0 1 431 38 L 416 38 A 0 0 0 0 1 416 38 L 416 3 A 3 3 0 0 1 419 0 Z" stroke="#ffffff" stroke-width="0" opacity="1" filter="none" class="highcharts-point"></path><path fill="#999999" d="M 443 0 L 452 0 A 3 3 0 0 1 455 3 L 455 61 A 0 0 0 0 1 455 61 L 440 61 A 0 0 0 0 1 440 61 L 440 3 A 3 3 0 0 1 443 0 Z" stroke="#ffffff" stroke-width="0" opacity="1" filter="none" class="highcharts-point"></path><path fill="#999999" d="M 467 0 L 476 0 A 3 3 0 0 1 479 3 L 479 37 A 0 0 0 0 1 479 37 L 464 37 A 0 0 0 0 1 464 37 L 464 3 A 3 3 0 0 1 467 0 Z" stroke="#ffffff" stroke-width="0" opacity="1" filter="none" class="highcharts-point"></path><path fill="#999999" d="M 491 0 L 500 0 A 3 3 0 0 1 503 3 L 503 43 A 0 0 0 0 1 503 43 L 488 43 A 0 0 0 0 1 488 43 L 488 3 A 3 3 0 0 1 491 0 Z" stroke="#ffffff" stroke-width="0" opacity="1" filter="none" class="highcharts-point"></path><path fill="#999999" d="M 515 0 L 524 0 A 3 3 0 0 1 527 3 L 527 52 A 0 0 0 0 1 527 52 L 512 52 A 0 0 0 0 1 512 52 L 512 3 A 3 3 0 0 1 515 0 Z" stroke="#ffffff" stroke-width="0" opacity="1" filter="none" class="highcharts-point"></path></g><g class="highcharts-markers highcharts-series-0 highcharts-column-series" data-z-index="0.1" opacity="1" transform="translate(58,122) scale(1 1)" clip-path="none"></g><g class="highcharts-series highcharts-series-1 highcharts-column-series highcharts-tracker" data-z-index="0.1" opacity="1" transform="translate(58,122) scale(1 1)" clip-path="url(#highcharts-y6tjkom-526-)"><path fill="#923F8D" d="M 5 50 L 20 50 A 0 0 0 0 1 20 50 L 20 58 A 0 0 0 0 1 20 58 L 5 58 A 0 0 0 0 1 5 58 L 5 50 A 0 0 0 0 1 5 50 Z" stroke="#ffffff" stroke-width="0" opacity="1" filter="none" class="highcharts-point"></path><path fill="#923F8D" d="M 29 72 L 44 72 A 0 0 0 0 1 44 72 L 44 77 A 0 0 0 0 1 44 77 L 29 77 A 0 0 0 0 1 29 77 L 29 72 A 0 0 0 0 1 29 72 Z" stroke="#ffffff" stroke-width="0" opacity="1" filter="none" class="highcharts-point"></path><path fill="#923F8D" d="M 53 46 L 68 46 A 0 0 0 0 1 68 46 L 68 53 A 0 0 0 0 1 68 53 L 53 53 A 0 0 0 0 1 53 53 L 53 46 A 0 0 0 0 1 53 46 Z" stroke="#ffffff" stroke-width="0" opacity="1" filter="none" class="highcharts-point"></path><path fill="#923F8D" d="M 77 57 L 92 57 A 0 0 0 0 1 92 57 L 92 60 A 0 0 0 0 1 92 60 L 77 60 A 0 0 0 0 1 77 60 L 77 57 A 0 0 0 0 1 77 57 Z" stroke="#ffffff" stroke-width="0" opacity="1" filter="none" class="highcharts-point"></path><path fill="#923F8D" d="M 101 51 L 116 51 A 0 0 0 0 1 116 51 L 116 61 A 0 0 0 0 1 116 61 L 101 61 A 0 0 0 0 1 101 61 L 101 51 A 0 0 0 0 1 101 51 Z" stroke="#ffffff" stroke-width="0" opacity="1" filter="none" class="highcharts-point"></path><path fill="#923F8D" d="M 126 50 L 141 50 A 0 0 0 0 1 141 50 L 141 54 A 0 0 0 0 1 141 54 L 126 54 A 0 0 0 0 1 126 54 L 126 50 A 0 0 0 0 1 126 50 Z" stroke="#ffffff" stroke-width="0" opacity="1" filter="none" class="highcharts-point"></path><path fill="#923F8D" d="M 150 52 L 165 52 A 0 0 0 0 1 165 52 L 165 55 A 0 0 0 0 1 165 55 L 150 55 A 0 0 0 0 1 150 55 L 150 52 A 0 0 0 0 1 150 52 Z" stroke="#ffffff" stroke-width="0" opacity="1" filter="none" class="highcharts-point"></path><path fill="#923F8D" d="M 174 45 L 189 45 A 0 0 0 0 1 189 45 L 189 49 A 0 0 0 0 1 189 49 L 174 49 A 0 0 0 0 1 174 49 L 174 45 A 0 0 0 0 1 174 45 Z" stroke="#ffffff" stroke-width="0" opacity="1" filter="none" class="highcharts-point"></path><path fill="#923F8D" d="M 198 48 L 213 48 A 0 0 0 0 1 213 48 L 213 53 A 0 0 0 0 1 213 53 L 198 53 A 0 0 0 0 1 198 53 L 198 48 A 0 0 0 0 1 198 48 Z" stroke="#ffffff" stroke-width="0" opacity="1" filter="none" class="highcharts-point"></path><path fill="#923F8D" d="M 222 52 L 237 52 A 0 0 0 0 1 237 52 L 237 54 A 0 0 0 0 1 237 54 L 222 54 A 0 0 0 0 1 222 54 L 222 52 A 0 0 0 0 1 222 52 Z" stroke="#ffffff" stroke-width="0" opacity="1" filter="none" class="highcharts-point"></path><path fill="#923F8D" d="M 246 57 L 261 57 A 0 0 0 0 1 261 57 L 261 59 A 0 0 0 0 1 261 59 L 246 59 A 0 0 0 0 1 246 59 L 246 57 A 0 0 0 0 1 246 57 Z" stroke="#ffffff" stroke-width="0" opacity="1" filter="none" class="highcharts-point"></path><path fill="#923F8D" d="M 271 46 L 286 46 A 0 0 0 0 1 286 46 L 286 48 A 0 0 0 0 1 286 48 L 271 48 A 0 0 0 0 1 271 48 L 271 46 A 0 0 0 0 1 271 46 Z" stroke="#ffffff" stroke-width="0" opacity="1" filter="none" class="highcharts-point"></path><path fill="#923F8D" d="M 295 54 L 310 54 A 0 0 0 0 1 310 54 L 310 57 A 0 0 0 0 1 310 57 L 295 57 A 0 0 0 0 1 295 57 L 295 54 A 0 0 0 0 1 295 54 Z" stroke="#ffffff" stroke-width="0" opacity="1" filter="none" class="highcharts-point"></path><path fill="#923F8D" d="M 319 56 L 334 56 A 0 0 0 0 1 334 56 L 334 58 A 0 0 0 0 1 334 58 L 319 58 A 0 0 0 0 1 319 58 L 319 56 A 0 0 0 0 1 319 56 Z" stroke="#ffffff" stroke-width="0" opacity="1" filter="none" class="highcharts-point"></path><path fill="#923F8D" d="M 343 45 L 358 45 A 0 0 0 0 1 358 45 L 358 50 A 0 0 0 0 1 358 50 L 343 50 A 0 0 0 0 1 343 50 L 343 45 A 0 0 0 0 1 343 45 Z" stroke="#ffffff" stroke-width="0" opacity="1" filter="none" class="highcharts-point"></path><path fill="#923F8D" d="M 367 69 L 382 69 A 0 0 0 0 1 382 69 L 382 75 A 0 0 0 0 1 382 75 L 367 75 A 0 0 0 0 1 367 75 L 367 69 A 0 0 0 0 1 367 69 Z" stroke="#ffffff" stroke-width="0" opacity="1" filter="none" class="highcharts-point"></path><path fill="#923F8D" d="M 392 46 L 407 46 A 0 0 0 0 1 407 46 L 407 48 A 0 0 0 0 1 407 48 L 392 48 A 0 0 0 0 1 392 48 L 392 46 A 0 0 0 0 1 392 46 Z" stroke="#ffffff" stroke-width="0" opacity="1" filter="none" class="highcharts-point"></path><path fill="#923F8D" d="M 416 38 L 431 38 A 0 0 0 0 1 431 38 L 431 41 A 0 0 0 0 1 431 41 L 416 41 A 0 0 0 0 1 416 41 L 416 38 A 0 0 0 0 1 416 38 Z" stroke="#ffffff" stroke-width="0" opacity="1" filter="none" class="highcharts-point"></path><path fill="#923F8D" d="M 440 61 L 455 61 A 0 0 0 0 1 455 61 L 455 62 A 0 0 0 0 1 455 62 L 440 62 A 0 0 0 0 1 440 62 L 440 61 A 0 0 0 0 1 440 61 Z" stroke="#ffffff" stroke-width="0" opacity="1" filter="none" class="highcharts-point"></path><path fill="#923F8D" d="M 464 37 L 479 37 A 0 0 0 0 1 479 37 L 479 40 A 0 0 0 0 1 479 40 L 464 40 A 0 0 0 0 1 464 40 L 464 37 A 0 0 0 0 1 464 37 Z" stroke="#ffffff" stroke-width="0" opacity="1" filter="none" class="highcharts-point"></path><path fill="#923F8D" d="M 488 43 L 503 43 A 0 0 0 0 1 503 43 L 503 43 A 0 0 0 0 1 503 43 L 488 43 A 0 0 0 0 1 488 43 L 488 43 A 0 0 0 0 1 488 43 Z" stroke="#ffffff" stroke-width="0" opacity="1" filter="none" class="highcharts-point"></path><path fill="#923F8D" d="M 512 52 L 527 52 A 0 0 0 0 1 527 52 L 527 56 A 0 0 0 0 1 527 56 L 512 56 A 0 0 0 0 1 512 56 L 512 52 A 0 0 0 0 1 512 52 Z" stroke="#ffffff" stroke-width="0" opacity="1" filter="none" class="highcharts-point"></path></g><g class="highcharts-markers highcharts-series-1 highcharts-column-series" data-z-index="0.1" opacity="1" transform="translate(58,122) scale(1 1)" clip-path="none"></g><g class="highcharts-series highcharts-series-2 highcharts-column-series highcharts-tracker" data-z-index="0.1" opacity="1" transform="translate(58,122) scale(1 1)" clip-path="url(#highcharts-y6tjkom-526-)"><path fill="#FF8028" d="M 5 58 L 20 58 A 0 0 0 0 1 20 58 L 20 64 A 0 0 0 0 1 20 64 L 5 64 A 0 0 0 0 1 5 64 L 5 58 A 0 0 0 0 1 5 58 Z" stroke="#ffffff" stroke-width="0" opacity="1" filter="none" class="highcharts-point"></path><path fill="#FF8028" d="M 29 77 L 44 77 A 0 0 0 0 1 44 77 L 44 80 A 0 0 0 0 1 44 80 L 29 80 A 0 0 0 0 1 29 80 L 29 77 A 0 0 0 0 1 29 77 Z" stroke="#ffffff" stroke-width="0" opacity="1" filter="none" class="highcharts-point"></path><path fill="#FF8028" d="M 53 53 L 68 53 A 0 0 0 0 1 68 53 L 68 59 A 0 0 0 0 1 68 59 L 53 59 A 0 0 0 0 1 53 59 L 53 53 A 0 0 0 0 1 53 53 Z" stroke="#ffffff" stroke-width="0" opacity="1" filter="none" class="highcharts-point"></path><path fill="#FF8028" d="M 77 60 L 92 60 A 0 0 0 0 1 92 60 L 92 67 A 0 0 0 0 1 92 67 L 77 67 A 0 0 0 0 1 77 67 L 77 60 A 0 0 0 0 1 77 60 Z" stroke="#ffffff" stroke-width="0" opacity="1" filter="none" class="highcharts-point"></path><path fill="#FF8028" d="M 101 61 L 116 61 A 0 0 0 0 1 116 61 L 116 67 A 0 0 0 0 1 116 67 L 101 67 A 0 0 0 0 1 101 67 L 101 61 A 0 0 0 0 1 101 61 Z" stroke="#ffffff" stroke-width="0" opacity="1" filter="none" class="highcharts-point"></path><path fill="#FF8028" d="M 126 54 L 141 54 A 0 0 0 0 1 141 54 L 141 60 A 0 0 0 0 1 141 60 L 126 60 A 0 0 0 0 1 126 60 L 126 54 A 0 0 0 0 1 126 54 Z" stroke="#ffffff" stroke-width="0" opacity="1" filter="none" class="highcharts-point"></path><path fill="#FF8028" d="M 150 55 L 165 55 A 0 0 0 0 1 165 55 L 165 58 A 0 0 0 0 1 165 58 L 150 58 A 0 0 0 0 1 150 58 L 150 55 A 0 0 0 0 1 150 55 Z" stroke="#ffffff" stroke-width="0" opacity="1" filter="none" class="highcharts-point"></path><path fill="#FF8028" d="M 174 49 L 189 49 A 0 0 0 0 1 189 49 L 189 54 A 0 0 0 0 1 189 54 L 174 54 A 0 0 0 0 1 174 54 L 174 49 A 0 0 0 0 1 174 49 Z" stroke="#ffffff" stroke-width="0" opacity="1" filter="none" class="highcharts-point"></path><path fill="#FF8028" d="M 198 53 L 213 53 A 0 0 0 0 1 213 53 L 213 59 A 0 0 0 0 1 213 59 L 198 59 A 0 0 0 0 1 198 59 L 198 53 A 0 0 0 0 1 198 53 Z" stroke="#ffffff" stroke-width="0" opacity="1" filter="none" class="highcharts-point"></path><path fill="#FF8028" d="M 222 54 L 237 54 A 0 0 0 0 1 237 54 L 237 62 A 0 0 0 0 1 237 62 L 222 62 A 0 0 0 0 1 222 62 L 222 54 A 0 0 0 0 1 222 54 Z" stroke="#ffffff" stroke-width="0" opacity="1" filter="none" class="highcharts-point"></path><path fill="#FF8028" d="M 246 59 L 261 59 A 0 0 0 0 1 261 59 L 261 65 A 0 0 0 0 1 261 65 L 246 65 A 0 0 0 0 1 246 65 L 246 59 A 0 0 0 0 1 246 59 Z" stroke="#ffffff" stroke-width="0" opacity="1" filter="none" class="highcharts-point"></path><path fill="#FF8028" d="M 271 48 L 286 48 A 0 0 0 0 1 286 48 L 286 53 A 0 0 0 0 1 286 53 L 271 53 A 0 0 0 0 1 271 53 L 271 48 A 0 0 0 0 1 271 48 Z" stroke="#ffffff" stroke-width="0" opacity="1" filter="none" class="highcharts-point"></path><path fill="#FF8028" d="M 295 57 L 310 57 A 0 0 0 0 1 310 57 L 310 65 A 0 0 0 0 1 310 65 L 295 65 A 0 0 0 0 1 295 65 L 295 57 A 0 0 0 0 1 295 57 Z" stroke="#ffffff" stroke-width="0" opacity="1" filter="none" class="highcharts-point"></path><path fill="#FF8028" d="M 319 58 L 334 58 A 0 0 0 0 1 334 58 L 334 61 A 0 0 0 0 1 334 61 L 319 61 A 0 0 0 0 1 319 61 L 319 58 A 0 0 0 0 1 319 58 Z" stroke="#ffffff" stroke-width="0" opacity="1" filter="none" class="highcharts-point"></path><path fill="#FF8028" d="M 343 50 L 358 50 A 0 0 0 0 1 358 50 L 358 56 A 0 0 0 0 1 358 56 L 343 56 A 0 0 0 0 1 343 56 L 343 50 A 0 0 0 0 1 343 50 Z" stroke="#ffffff" stroke-width="0" opacity="1" filter="none" class="highcharts-point"></path><path fill="#FF8028" d="M 367 75 L 382 75 A 0 0 0 0 1 382 75 L 382 80 A 0 0 0 0 1 382 80 L 367 80 A 0 0 0 0 1 367 80 L 367 75 A 0 0 0 0 1 367 75 Z" stroke="#ffffff" stroke-width="0" opacity="1" filter="none" class="highcharts-point"></path><path fill="#FF8028" d="M 392 48 L 407 48 A 0 0 0 0 1 407 48 L 407 59 A 0 0 0 0 1 407 59 L 392 59 A 0 0 0 0 1 392 59 L 392 48 A 0 0 0 0 1 392 48 Z" stroke="#ffffff" stroke-width="0" opacity="1" filter="none" class="highcharts-point"></path><path fill="#FF8028" d="M 416 41 L 431 41 A 0 0 0 0 1 431 41 L 431 50 A 0 0 0 0 1 431 50 L 416 50 A 0 0 0 0 1 416 50 L 416 41 A 0 0 0 0 1 416 41 Z" stroke="#ffffff" stroke-width="0" opacity="1" filter="none" class="highcharts-point"></path><path fill="#FF8028" d="M 440 62 L 455 62 A 0 0 0 0 1 455 62 L 455 69 A 0 0 0 0 1 455 69 L 440 69 A 0 0 0 0 1 440 69 L 440 62 A 0 0 0 0 1 440 62 Z" stroke="#ffffff" stroke-width="0" opacity="1" filter="none" class="highcharts-point"></path><path fill="#FF8028" d="M 464 40 L 479 40 A 0 0 0 0 1 479 40 L 479 43 A 0 0 0 0 1 479 43 L 464 43 A 0 0 0 0 1 464 43 L 464 40 A 0 0 0 0 1 464 40 Z" stroke="#ffffff" stroke-width="0" opacity="1" filter="none" class="highcharts-point"></path><path fill="#FF8028" d="M 488 43 L 503 43 A 0 0 0 0 1 503 43 L 503 51 A 0 0 0 0 1 503 51 L 488 51 A 0 0 0 0 1 488 51 L 488 43 A 0 0 0 0 1 488 43 Z" stroke="#ffffff" stroke-width="0" opacity="1" filter="none" class="highcharts-point"></path><path fill="#FF8028" d="M 512 56 L 527 56 A 0 0 0 0 1 527 56 L 527 63 A 0 0 0 0 1 527 63 L 512 63 A 0 0 0 0 1 512 63 L 512 56 A 0 0 0 0 1 512 56 Z" stroke="#ffffff" stroke-width="0" opacity="1" filter="none" class="highcharts-point"></path></g><g class="highcharts-markers highcharts-series-2 highcharts-column-series" data-z-index="0.1" opacity="1" transform="translate(58,122) scale(1 1)" clip-path="none"></g><g class="highcharts-series highcharts-series-3 highcharts-column-series highcharts-tracker" data-z-index="0.1" opacity="1" transform="translate(58,122) scale(1 1)" clip-path="url(#highcharts-y6tjkom-526-)"><path fill="#B00000" d="M 5 64 L 20 64 A 0 0 0 0 1 20 64 L 20 71 A 0 0 0 0 1 20 71 L 5 71 A 0 0 0 0 1 5 71 L 5 64 A 0 0 0 0 1 5 64 Z" stroke="#ffffff" stroke-width="0" opacity="1" filter="none" class="highcharts-point"></path><path fill="#B00000" d="M 29 80 L 44 80 A 0 0 0 0 1 44 80 L 44 85 A 0 0 0 0 1 44 85 L 29 85 A 0 0 0 0 1 29 85 L 29 80 A 0 0 0 0 1 29 80 Z" stroke="#ffffff" stroke-width="0" opacity="1" filter="none" class="highcharts-point"></path><path fill="#B00000" d="M 53 59 L 68 59 A 0 0 0 0 1 68 59 L 68 67 A 0 0 0 0 1 68 67 L 53 67 A 0 0 0 0 1 53 67 L 53 59 A 0 0 0 0 1 53 59 Z" stroke="#ffffff" stroke-width="0" opacity="1" filter="none" class="highcharts-point"></path><path fill="#B00000" d="M 77 67 L 92 67 A 0 0 0 0 1 92 67 L 92 71 A 0 0 0 0 1 92 71 L 77 71 A 0 0 0 0 1 77 71 L 77 67 A 0 0 0 0 1 77 67 Z" stroke="#ffffff" stroke-width="0" opacity="1" filter="none" class="highcharts-point"></path><path fill="#B00000" d="M 101 67 L 116 67 A 0 0 0 0 1 116 67 L 116 79 A 0 0 0 0 1 116 79 L 101 79 A 0 0 0 0 1 101 79 L 101 67 A 0 0 0 0 1 101 67 Z" stroke="#ffffff" stroke-width="0" opacity="1" filter="none" class="highcharts-point"></path><path fill="#B00000" d="M 126 60 L 141 60 A 0 0 0 0 1 141 60 L 141 67 A 0 0 0 0 1 141 67 L 126 67 A 0 0 0 0 1 126 67 L 126 60 A 0 0 0 0 1 126 60 Z" stroke="#ffffff" stroke-width="0" opacity="1" filter="none" class="highcharts-point"></path><path fill="#B00000" d="M 150 58 L 165 58 A 0 0 0 0 1 165 58 L 165 67 A 0 0 0 0 1 165 67 L 150 67 A 0 0 0 0 1 150 67 L 150 58 A 0 0 0 0 1 150 58 Z" stroke="#ffffff" stroke-width="0" opacity="1" filter="none" class="highcharts-point"></path><path fill="#B00000" d="M 174 54 L 189 54 A 0 0 0 0 1 189 54 L 189 60 A 0 0 0 0 1 189 60 L 174 60 A 0 0 0 0 1 174 60 L 174 54 A 0 0 0 0 1 174 54 Z" stroke="#ffffff" stroke-width="0" opacity="1" filter="none" class="highcharts-point"></path><path fill="#B00000" d="M 198 59 L 213 59 A 0 0 0 0 1 213 59 L 213 65 A 0 0 0 0 1 213 65 L 198 65 A 0 0 0 0 1 198 65 L 198 59 A 0 0 0 0 1 198 59 Z" stroke="#ffffff" stroke-width="0" opacity="1" filter="none" class="highcharts-point"></path><path fill="#B00000" d="M 222 62 L 237 62 A 0 0 0 0 1 237 62 L 237 70 A 0 0 0 0 1 237 70 L 222 70 A 0 0 0 0 1 222 70 L 222 62 A 0 0 0 0 1 222 62 Z" stroke="#ffffff" stroke-width="0" opacity="1" filter="none" class="highcharts-point"></path><path fill="#B00000" d="M 246 65 L 261 65 A 0 0 0 0 1 261 65 L 261 71 A 0 0 0 0 1 261 71 L 246 71 A 0 0 0 0 1 246 71 L 246 65 A 0 0 0 0 1 246 65 Z" stroke="#ffffff" stroke-width="0" opacity="1" filter="none" class="highcharts-point"></path><path fill="#B00000" d="M 271 53 L 286 53 A 0 0 0 0 1 286 53 L 286 64 A 0 0 0 0 1 286 64 L 271 64 A 0 0 0 0 1 271 64 L 271 53 A 0 0 0 0 1 271 53 Z" stroke="#ffffff" stroke-width="0" opacity="1" filter="none" class="highcharts-point"></path><path fill="#B00000" d="M 295 65 L 310 65 A 0 0 0 0 1 310 65 L 310 70 A 0 0 0 0 1 310 70 L 295 70 A 0 0 0 0 1 295 70 L 295 65 A 0 0 0 0 1 295 65 Z" stroke="#ffffff" stroke-width="0" opacity="1" filter="none" class="highcharts-point"></path><path fill="#B00000" d="M 319 61 L 334 61 A 0 0 0 0 1 334 61 L 334 66 A 0 0 0 0 1 334 66 L 319 66 A 0 0 0 0 1 319 66 L 319 61 A 0 0 0 0 1 319 61 Z" stroke="#ffffff" stroke-width="0" opacity="1" filter="none" class="highcharts-point"></path><path fill="#B00000" d="M 343 56 L 358 56 A 0 0 0 0 1 358 56 L 358 60 A 0 0 0 0 1 358 60 L 343 60 A 0 0 0 0 1 343 60 L 343 56 A 0 0 0 0 1 343 56 Z" stroke="#ffffff" stroke-width="0" opacity="1" filter="none" class="highcharts-point"></path><path fill="#B00000" d="M 367 80 L 382 80 A 0 0 0 0 1 382 80 L 382 84 A 0 0 0 0 1 382 84 L 367 84 A 0 0 0 0 1 367 84 L 367 80 A 0 0 0 0 1 367 80 Z" stroke="#ffffff" stroke-width="0" opacity="1" filter="none" class="highcharts-point"></path><path fill="#B00000" d="M 392 59 L 407 59 A 0 0 0 0 1 407 59 L 407 66 A 0 0 0 0 1 407 66 L 392 66 A 0 0 0 0 1 392 66 L 392 59 A 0 0 0 0 1 392 59 Z" stroke="#ffffff" stroke-width="0" opacity="1" filter="none" class="highcharts-point"></path><path fill="#B00000" d="M 416 50 L 431 50 A 0 0 0 0 1 431 50 L 431 61 A 0 0 0 0 1 431 61 L 416 61 A 0 0 0 0 1 416 61 L 416 50 A 0 0 0 0 1 416 50 Z" stroke="#ffffff" stroke-width="0" opacity="1" filter="none" class="highcharts-point"></path><path fill="#B00000" d="M 440 69 L 455 69 A 0 0 0 0 1 455 69 L 455 75 A 0 0 0 0 1 455 75 L 440 75 A 0 0 0 0 1 440 75 L 440 69 A 0 0 0 0 1 440 69 Z" stroke="#ffffff" stroke-width="0" opacity="1" filter="none" class="highcharts-point"></path><path fill="#B00000" d="M 464 43 L 479 43 A 0 0 0 0 1 479 43 L 479 49 A 0 0 0 0 1 479 49 L 464 49 A 0 0 0 0 1 464 49 L 464 43 A 0 0 0 0 1 464 43 Z" stroke="#ffffff" stroke-width="0" opacity="1" filter="none" class="highcharts-point"></path><path fill="#B00000" d="M 488 51 L 503 51 A 0 0 0 0 1 503 51 L 503 51 A 0 0 0 0 1 503 51 L 488 51 A 0 0 0 0 1 488 51 L 488 51 A 0 0 0 0 1 488 51 Z" stroke="#ffffff" stroke-width="0" opacity="1" filter="none" class="highcharts-point"></path><path fill="#B00000" d="M 512 63 L 527 63 A 0 0 0 0 1 527 63 L 527 69 A 0 0 0 0 1 527 69 L 512 69 A 0 0 0 0 1 512 69 L 512 63 A 0 0 0 0 1 512 63 Z" stroke="#ffffff" stroke-width="0" opacity="1" filter="none" class="highcharts-point"></path></g><g class="highcharts-markers highcharts-series-3 highcharts-column-series" data-z-index="0.1" opacity="1" transform="translate(58,122) scale(1 1)" clip-path="none"></g><g class="highcharts-series highcharts-series-4 highcharts-column-series highcharts-tracker" data-z-index="0.1" opacity="1" transform="translate(58,122) scale(1 1)" clip-path="url(#highcharts-y6tjkom-526-)"><path fill="#CD9C00" d="M 5 71 L 20 71 A 0 0 0 0 1 20 71 L 20 79 A 0 0 0 0 1 20 79 L 5 79 A 0 0 0 0 1 5 79 L 5 71 A 0 0 0 0 1 5 71 Z" stroke="#ffffff" stroke-width="0" opacity="1" filter="none" class="highcharts-point"></path><path fill="#CD9C00" d="M 29 85 L 44 85 A 0 0 0 0 1 44 85 L 44 89 A 0 0 0 0 1 44 89 L 29 89 A 0 0 0 0 1 29 89 L 29 85 A 0 0 0 0 1 29 85 Z" stroke="#ffffff" stroke-width="0" opacity="1" filter="none" class="highcharts-point"></path><path fill="#CD9C00" d="M 53 67 L 68 67 A 0 0 0 0 1 68 67 L 68 75 A 0 0 0 0 1 68 75 L 53 75 A 0 0 0 0 1 53 75 L 53 67 A 0 0 0 0 1 53 67 Z" stroke="#ffffff" stroke-width="0" opacity="1" filter="none" class="highcharts-point"></path><path fill="#CD9C00" d="M 77 71 L 92 71 A 0 0 0 0 1 92 71 L 92 76 A 0 0 0 0 1 92 76 L 77 76 A 0 0 0 0 1 77 76 L 77 71 A 0 0 0 0 1 77 71 Z" stroke="#ffffff" stroke-width="0" opacity="1" filter="none" class="highcharts-point"></path><path fill="#CD9C00" d="M 101 79 L 116 79 A 0 0 0 0 1 116 79 L 116 84 A 0 0 0 0 1 116 84 L 101 84 A 0 0 0 0 1 101 84 L 101 79 A 0 0 0 0 1 101 79 Z" stroke="#ffffff" stroke-width="0" opacity="1" filter="none" class="highcharts-point"></path><path fill="#CD9C00" d="M 126 67 L 141 67 A 0 0 0 0 1 141 67 L 141 73 A 0 0 0 0 1 141 73 L 126 73 A 0 0 0 0 1 126 73 L 126 67 A 0 0 0 0 1 126 67 Z" stroke="#ffffff" stroke-width="0" opacity="1" filter="none" class="highcharts-point"></path><path fill="#CD9C00" d="M 150 67 L 165 67 A 0 0 0 0 1 165 67 L 165 74 A 0 0 0 0 1 165 74 L 150 74 A 0 0 0 0 1 150 74 L 150 67 A 0 0 0 0 1 150 67 Z" stroke="#ffffff" stroke-width="0" opacity="1" filter="none" class="highcharts-point"></path><path fill="#CD9C00" d="M 174 60 L 189 60 A 0 0 0 0 1 189 60 L 189 69 A 0 0 0 0 1 189 69 L 174 69 A 0 0 0 0 1 174 69 L 174 60 A 0 0 0 0 1 174 60 Z" stroke="#ffffff" stroke-width="0" opacity="1" filter="none" class="highcharts-point"></path><path fill="#CD9C00" d="M 198 65 L 213 65 A 0 0 0 0 1 213 65 L 213 72 A 0 0 0 0 1 213 72 L 198 72 A 0 0 0 0 1 198 72 L 198 65 A 0 0 0 0 1 198 65 Z" stroke="#ffffff" stroke-width="0" opacity="1" filter="none" class="highcharts-point"></path><path fill="#CD9C00" d="M 222 70 L 237 70 A 0 0 0 0 1 237 70 L 237 77 A 0 0 0 0 1 237 77 L 222 77 A 0 0 0 0 1 222 77 L 222 70 A 0 0 0 0 1 222 70 Z" stroke="#ffffff" stroke-width="0" opacity="1" filter="none" class="highcharts-point"></path><path fill="#CD9C00" d="M 246 71 L 261 71 A 0 0 0 0 1 261 71 L 261 80 A 0 0 0 0 1 261 80 L 246 80 A 0 0 0 0 1 246 80 L 246 71 A 0 0 0 0 1 246 71 Z" stroke="#ffffff" stroke-width="0" opacity="1" filter="none" class="highcharts-point"></path><path fill="#CD9C00" d="M 271 64 L 286 64 A 0 0 0 0 1 286 64 L 286 74 A 0 0 0 0 1 286 74 L 271 74 A 0 0 0 0 1 271 74 L 271 64 A 0 0 0 0 1 271 64 Z" stroke="#ffffff" stroke-width="0" opacity="1" filter="none" class="highcharts-point"></path><path fill="#CD9C00" d="M 295 70 L 310 70 A 0 0 0 0 1 310 70 L 310 75 A 0 0 0 0 1 310 75 L 295 75 A 0 0 0 0 1 295 75 L 295 70 A 0 0 0 0 1 295 70 Z" stroke="#ffffff" stroke-width="0" opacity="1" filter="none" class="highcharts-point"></path><path fill="#CD9C00" d="M 319 66 L 334 66 A 0 0 0 0 1 334 66 L 334 70 A 0 0 0 0 1 334 70 L 319 70 A 0 0 0 0 1 319 70 L 319 66 A 0 0 0 0 1 319 66 Z" stroke="#ffffff" stroke-width="0" opacity="1" filter="none" class="highcharts-point"></path><path fill="#CD9C00" d="M 343 60 L 358 60 A 0 0 0 0 1 358 60 L 358 68 A 0 0 0 0 1 358 68 L 343 68 A 0 0 0 0 1 343 68 L 343 60 A 0 0 0 0 1 343 60 Z" stroke="#ffffff" stroke-width="0" opacity="1" filter="none" class="highcharts-point"></path><path fill="#CD9C00" d="M 367 84 L 382 84 A 0 0 0 0 1 382 84 L 382 89 A 0 0 0 0 1 382 89 L 367 89 A 0 0 0 0 1 367 89 L 367 84 A 0 0 0 0 1 367 84 Z" stroke="#ffffff" stroke-width="0" opacity="1" filter="none" class="highcharts-point"></path><path fill="#CD9C00" d="M 392 66 L 407 66 A 0 0 0 0 1 407 66 L 407 74 A 0 0 0 0 1 407 74 L 392 74 A 0 0 0 0 1 392 74 L 392 66 A 0 0 0 0 1 392 66 Z" stroke="#ffffff" stroke-width="0" opacity="1" filter="none" class="highcharts-point"></path><path fill="#CD9C00" d="M 416 61 L 431 61 A 0 0 0 0 1 431 61 L 431 75 A 0 0 0 0 1 431 75 L 416 75 A 0 0 0 0 1 416 75 L 416 61 A 0 0 0 0 1 416 61 Z" stroke="#ffffff" stroke-width="0" opacity="1" filter="none" class="highcharts-point"></path><path fill="#CD9C00" d="M 440 75 L 455 75 A 0 0 0 0 1 455 75 L 455 77 A 0 0 0 0 1 455 77 L 440 77 A 0 0 0 0 1 440 77 L 440 75 A 0 0 0 0 1 440 75 Z" stroke="#ffffff" stroke-width="0" opacity="1" filter="none" class="highcharts-point"></path><path fill="#CD9C00" d="M 464 49 L 479 49 A 0 0 0 0 1 479 49 L 479 54 A 0 0 0 0 1 479 54 L 464 54 A 0 0 0 0 1 464 54 L 464 49 A 0 0 0 0 1 464 49 Z" stroke="#ffffff" stroke-width="0" opacity="1" filter="none" class="highcharts-point"></path><path fill="#CD9C00" d="M 488 51 L 503 51 A 0 0 0 0 1 503 51 L 503 51 A 0 0 0 0 1 503 51 L 488 51 A 0 0 0 0 1 488 51 L 488 51 A 0 0 0 0 1 488 51 Z" stroke="#ffffff" stroke-width="0" opacity="1" filter="none" class="highcharts-point"></path><path fill="#CD9C00" d="M 512 69 L 527 69 A 0 0 0 0 1 527 69 L 527 76 A 0 0 0 0 1 527 76 L 512 76 A 0 0 0 0 1 512 76 L 512 69 A 0 0 0 0 1 512 69 Z" stroke="#ffffff" stroke-width="0" opacity="1" filter="none" class="highcharts-point"></path></g><g class="highcharts-markers highcharts-series-4 highcharts-column-series" data-z-index="0.1" opacity="1" transform="translate(58,122) scale(1 1)" clip-path="none"></g><g class="highcharts-series highcharts-series-5 highcharts-column-series highcharts-tracker" data-z-index="0.1" opacity="1" transform="translate(58,122) scale(1 1)" clip-path="url(#highcharts-y6tjkom-526-)"><path fill="#71A3B5" d="M 5 79 L 20 79 A 0 0 0 0 1 20 79 L 20 111 A 0 0 0 0 1 20 111 L 5 111 A 0 0 0 0 1 5 111 L 5 79 A 0 0 0 0 1 5 79 Z" stroke="#ffffff" stroke-width="0" opacity="1" filter="none" class="highcharts-point"></path><path fill="#71A3B5" d="M 29 89 L 44 89 A 0 0 0 0 1 44 89 L 44 111 A 0 0 0 0 1 44 111 L 29 111 A 0 0 0 0 1 29 111 L 29 89 A 0 0 0 0 1 29 89 Z" stroke="#ffffff" stroke-width="0" opacity="1" filter="none" class="highcharts-point"></path><path fill="#71A3B5" d="M 53 75 L 68 75 A 0 0 0 0 1 68 75 L 68 111 A 0 0 0 0 1 68 111 L 53 111 A 0 0 0 0 1 53 111 L 53 75 A 0 0 0 0 1 53 75 Z" stroke="#ffffff" stroke-width="0" opacity="1" filter="none" class="highcharts-point"></path><path fill="#71A3B5" d="M 77 76 L 92 76 A 0 0 0 0 1 92 76 L 92 111 A 0 0 0 0 1 92 111 L 77 111 A 0 0 0 0 1 77 111 L 77 76 A 0 0 0 0 1 77 76 Z" stroke="#ffffff" stroke-width="0" opacity="1" filter="none" class="highcharts-point"></path><path fill="#71A3B5" d="M 101 84 L 116 84 A 0 0 0 0 1 116 84 L 116 111 A 0 0 0 0 1 116 111 L 101 111 A 0 0 0 0 1 101 111 L 101 84 A 0 0 0 0 1 101 84 Z" stroke="#ffffff" stroke-width="0" opacity="1" filter="none" class="highcharts-point"></path><path fill="#71A3B5" d="M 126 73 L 141 73 A 0 0 0 0 1 141 73 L 141 111 A 0 0 0 0 1 141 111 L 126 111 A 0 0 0 0 1 126 111 L 126 73 A 0 0 0 0 1 126 73 Z" stroke="#ffffff" stroke-width="0" opacity="1" filter="none" class="highcharts-point"></path><path fill="#71A3B5" d="M 150 74 L 165 74 A 0 0 0 0 1 165 74 L 165 111 A 0 0 0 0 1 165 111 L 150 111 A 0 0 0 0 1 150 111 L 150 74 A 0 0 0 0 1 150 74 Z" stroke="#ffffff" stroke-width="0" opacity="1" filter="none" class="highcharts-point"></path><path fill="#71A3B5" d="M 174 69 L 189 69 A 0 0 0 0 1 189 69 L 189 111 A 0 0 0 0 1 189 111 L 174 111 A 0 0 0 0 1 174 111 L 174 69 A 0 0 0 0 1 174 69 Z" stroke="#ffffff" stroke-width="0" opacity="1" filter="none" class="highcharts-point"></path><path fill="#71A3B5" d="M 198 72 L 213 72 A 0 0 0 0 1 213 72 L 213 111 A 0 0 0 0 1 213 111 L 198 111 A 0 0 0 0 1 198 111 L 198 72 A 0 0 0 0 1 198 72 Z" stroke="#ffffff" stroke-width="0" opacity="1" filter="none" class="highcharts-point"></path><path fill="#71A3B5" d="M 222 77 L 237 77 A 0 0 0 0 1 237 77 L 237 111 A 0 0 0 0 1 237 111 L 222 111 A 0 0 0 0 1 222 111 L 222 77 A 0 0 0 0 1 222 77 Z" stroke="#ffffff" stroke-width="0" opacity="1" filter="none" class="highcharts-point"></path><path fill="#71A3B5" d="M 246 80 L 261 80 A 0 0 0 0 1 261 80 L 261 111 A 0 0 0 0 1 261 111 L 246 111 A 0 0 0 0 1 246 111 L 246 80 A 0 0 0 0 1 246 80 Z" stroke="#ffffff" stroke-width="0" opacity="1" filter="none" class="highcharts-point"></path><path fill="#71A3B5" d="M 271 74 L 286 74 A 0 0 0 0 1 286 74 L 286 111 A 0 0 0 0 1 286 111 L 271 111 A 0 0 0 0 1 271 111 L 271 74 A 0 0 0 0 1 271 74 Z" stroke="#ffffff" stroke-width="0" opacity="1" filter="none" class="highcharts-point"></path><path fill="#71A3B5" d="M 295 75 L 310 75 A 0 0 0 0 1 310 75 L 310 111 A 0 0 0 0 1 310 111 L 295 111 A 0 0 0 0 1 295 111 L 295 75 A 0 0 0 0 1 295 75 Z" stroke="#ffffff" stroke-width="0" opacity="1" filter="none" class="highcharts-point"></path><path fill="#71A3B5" d="M 319 70 L 334 70 A 0 0 0 0 1 334 70 L 334 111 A 0 0 0 0 1 334 111 L 319 111 A 0 0 0 0 1 319 111 L 319 70 A 0 0 0 0 1 319 70 Z" stroke="#ffffff" stroke-width="0" opacity="1" filter="none" class="highcharts-point"></path><path fill="#71A3B5" d="M 343 68 L 358 68 A 0 0 0 0 1 358 68 L 358 111 A 0 0 0 0 1 358 111 L 343 111 A 0 0 0 0 1 343 111 L 343 68 A 0 0 0 0 1 343 68 Z" stroke="#ffffff" stroke-width="0" opacity="1" filter="none" class="highcharts-point"></path><path fill="#71A3B5" d="M 367 89 L 382 89 A 0 0 0 0 1 382 89 L 382 111 A 0 0 0 0 1 382 111 L 367 111 A 0 0 0 0 1 367 111 L 367 89 A 0 0 0 0 1 367 89 Z" stroke="#ffffff" stroke-width="0" opacity="1" filter="none" class="highcharts-point"></path><path fill="#71A3B5" d="M 392 74 L 407 74 A 0 0 0 0 1 407 74 L 407 111 A 0 0 0 0 1 407 111 L 392 111 A 0 0 0 0 1 392 111 L 392 74 A 0 0 0 0 1 392 74 Z" stroke="#ffffff" stroke-width="0" opacity="1" filter="none" class="highcharts-point"></path><path fill="#71A3B5" d="M 416 75 L 431 75 A 0 0 0 0 1 431 75 L 431 111 A 0 0 0 0 1 431 111 L 416 111 A 0 0 0 0 1 416 111 L 416 75 A 0 0 0 0 1 416 75 Z" stroke="#ffffff" stroke-width="0" opacity="1" filter="none" class="highcharts-point"></path><path fill="#71A3B5" d="M 440 77 L 455 77 A 0 0 0 0 1 455 77 L 455 111 A 0 0 0 0 1 455 111 L 440 111 A 0 0 0 0 1 440 111 L 440 77 A 0 0 0 0 1 440 77 Z" stroke="#ffffff" stroke-width="0" opacity="1" filter="none" class="highcharts-point"></path><path fill="#71A3B5" d="M 464 54 L 479 54 A 0 0 0 0 1 479 54 L 479 111 A 0 0 0 0 1 479 111 L 464 111 A 0 0 0 0 1 464 111 L 464 54 A 0 0 0 0 1 464 54 Z" stroke="#ffffff" stroke-width="0" opacity="1" filter="none" class="highcharts-point"></path><path fill="#71A3B5" d="M 488 51 L 503 51 A 0 0 0 0 1 503 51 L 503 111 A 0 0 0 0 1 503 111 L 488 111 A 0 0 0 0 1 488 111 L 488 51 A 0 0 0 0 1 488 51 Z" stroke="#ffffff" stroke-width="0" opacity="1" filter="none" class="highcharts-point"></path><path fill="#71A3B5" d="M 512 76 L 527 76 A 0 0 0 0 1 527 76 L 527 111 A 0 0 0 0 1 527 111 L 512 111 A 0 0 0 0 1 512 111 L 512 76 A 0 0 0 0 1 512 76 Z" stroke="#ffffff" stroke-width="0" opacity="1" filter="none" class="highcharts-point"></path></g><g class="highcharts-markers highcharts-series-5 highcharts-column-series" data-z-index="0.1" opacity="1" transform="translate(58,122) scale(1 1)" clip-path="none"></g></g><text x="10" text-anchor="start" class="highcharts-caption" data-z-index="4" style="font-size: 0.8em; fill: rgb(102, 102, 102);" text-align="left" y="372" transform-origin="10 15" transform="translate(0,0) scale(1 1)"></text><g class="highcharts-axis-labels highcharts-xaxis-labels" data-z-index="7"><text x="74.09090909090891" text-anchor="end" transform="translate(0,0) rotate(-90 74.09090909090891 252)" style="cursor: default; font-size: 0.8em; fill: rgb(0, 0, 0);" y="252" opacity="1">Altstadt Grossbasel</text><text x="98.2727272727309" text-anchor="end" transform="translate(0,0) rotate(-90 98.2727272727309 252)" style="cursor: default; font-size: 0.8em; fill: rgb(0, 0, 0);" y="252" opacity="1">Vorstädte</text><text x="122.4545454545509" text-anchor="end" transform="translate(0,0) rotate(-90 122.4545454545509 252)" style="cursor: default; font-size: 0.8em; fill: rgb(0, 0, 0);" y="252" opacity="1">Am Ring</text><text x="146.6363636363609" text-anchor="end" transform="translate(0,0) rotate(-90 146.6363636363609 252)" style="cursor: default; font-size: 0.8em; fill: rgb(0, 0, 0);" y="252" opacity="1">Breite</text><text x="170.8181818181809" text-anchor="end" transform="translate(0,0) rotate(-90 170.8181818181809 252)" style="cursor: default; font-size: 0.8em; fill: rgb(0, 0, 0);" y="252" opacity="1">St. Alban</text><text x="195.0000000000009" text-anchor="end" transform="translate(0,0) rotate(-90 195.0000000000009 252)" style="cursor: default; font-size: 0.8em; fill: rgb(0, 0, 0);" y="252" opacity="1">Gundeldingen</text><text x="219.18181818182092" text-anchor="end" transform="translate(0,0) rotate(-90 219.18181818182092 252)" style="cursor: default; font-size: 0.8em; fill: rgb(0, 0, 0);" y="252" opacity="1">Bruderholz</text><text x="243.3636363636409" text-anchor="end" transform="translate(0,0) rotate(-90 243.3636363636409 252)" style="cursor: default; font-size: 0.8em; fill: rgb(0, 0, 0);" y="252" opacity="1">Bachletten</text><text x="267.5454545454509" text-anchor="end" transform="translate(0,0) rotate(-90 267.5454545454509 252)" style="cursor: default; font-size: 0.8em; fill: rgb(0, 0, 0);" y="252" opacity="1">Gotthelf</text><text x="291.72727272727093" text-anchor="end" transform="translate(0,0) rotate(-90 291.72727272727093 252)" style="cursor: default; font-size: 0.8em; fill: rgb(0, 0, 0);" y="252" opacity="1">Iselin</text><text x="315.90909090909093" text-anchor="end" transform="translate(0,0) rotate(-90 315.90909090909093 252)" style="cursor: default; font-size: 0.8em; fill: rgb(0, 0, 0);" y="252" opacity="1">St. Johann</text><text x="340.09090909091094" text-anchor="end" transform="translate(0,0) rotate(-90 340.09090909091094 252)" style="cursor: default; font-size: 0.8em; fill: rgb(0, 0, 0);" y="252" opacity="1">Altstadt Kleinbasel</text><text x="364.27272727273095" text-anchor="end" transform="translate(0,0) rotate(-90 364.27272727273095 252)" style="cursor: default; font-size: 0.8em; fill: rgb(0, 0, 0);" y="252" opacity="1">Clara</text><text x="388.45454545454095" text-anchor="end" transform="translate(0,0) rotate(-90 388.45454545454095 252)" style="cursor: default; font-size: 0.8em; fill: rgb(0, 0, 0);" y="252" opacity="1">Wettstein</text><text x="412.63636363636095" text-anchor="end" transform="translate(0,0) rotate(-90 412.63636363636095 252)" style="cursor: default; font-size: 0.8em; fill: rgb(0, 0, 0);" y="252" opacity="1">Hirzbrunnen</text><text x="436.81818181818096" text-anchor="end" transform="translate(0,0) rotate(-90 436.81818181818096 252)" style="cursor: default; font-size: 0.8em; fill: rgb(0, 0, 0);" y="252" opacity="1">Rosental</text><text x="461.0000000000009" text-anchor="end" transform="translate(0,0) rotate(-90 461.0000000000009 252)" style="cursor: default; font-size: 0.8em; fill: rgb(0, 0, 0);" y="252" opacity="1">Matthäus</text><text x="485.1818181818209" text-anchor="end" transform="translate(0,0) rotate(-90 485.1818181818209 252)" style="cursor: default; font-size: 0.8em; fill: rgb(0, 0, 0);" y="252" opacity="1">Klybeck</text><text x="509.363636363641" text-anchor="end" transform="translate(0,0) rotate(-90 509.363636363641 252)" style="cursor: default; font-size: 0.8em; fill: rgb(0, 0, 0);" y="252" opacity="1">Kleinhüningen</text><text x="533.5454545454509" text-anchor="end" transform="translate(0,0) rotate(-90 533.5454545454509 252)" style="cursor: default; font-size: 0.8em; fill: rgb(0, 0, 0);" y="252" opacity="1">Riehen</text><text x="557.7272727272709" text-anchor="end" transform="translate(0,0) rotate(-90 557.7272727272709 252)" style="cursor: default; font-size: 0.8em; fill: rgb(0, 0, 0);" y="252" opacity="1">Bettingen</text><text x="581.9090909090909" text-anchor="end" transform="translate(0,0) rotate(-90 581.9090909090909 252)" style="cursor: default; font-size: 0.8em; fill: rgb(0, 0, 0);" y="252" opacity="1">Kanton BS</text></g><g class="highcharts-axis-labels highcharts-yaxis-labels" data-z-index="7"><text x="43" text-anchor="end" transform="translate(0,0)" style="cursor: default; font-size: 0.8em; fill: rgb(0, 0, 0);" y="238" opacity="1">0%</text><text x="43" text-anchor="end" transform="translate(0,0)" style="cursor: default; font-size: 0.8em; fill: rgb(0, 0, 0);" y="210" opacity="1">25%</text><text x="43" text-anchor="end" transform="translate(0,0)" style="cursor: default; font-size: 0.8em; fill: rgb(0, 0, 0);" y="182" opacity="1">50%</text><text x="43" text-anchor="end" transform="translate(0,0)" style="cursor: default; font-size: 0.8em; fill: rgb(0, 0, 0);" y="154" opacity="1">75%</text><text x="43" text-anchor="end" transform="translate(0,0)" style="cursor: default; font-size: 0.8em; fill: rgb(0, 0, 0);" y="127" opacity="1">100%</text></g><g class="highcharts-legend highcharts-no-tooltip" data-z-index="7" text-align="left" transform="translate(50,55)"><rect fill="none" class="highcharts-legend-box" rx="0" ry="0" stroke="#999999" stroke-width="0" filter="none" x="0" y="0" width="399" height="55"></rect><g data-z-index="1"><g><g class="highcharts-legend-item highcharts-column-series highcharts-color-undefined highcharts-series-5" data-z-index="1" transform="translate(8,3)"><text x="21" text-anchor="start" data-z-index="2" style="cursor: pointer; font-size: 0.8em; text-decoration: none; font-weight: normal; fill: rgb(51, 51, 51);" y="17">Deutschland</text><rect x="2" y="6" rx="0" ry="0" width="12" height="12" fill="#71A3B5" class="highcharts-point" data-z-index="3"></rect></g><g class="highcharts-legend-item highcharts-column-series highcharts-color-undefined highcharts-series-4" data-z-index="1" transform="translate(142.21875,3)"><text x="21" y="17" text-anchor="start" data-z-index="2" style="cursor: pointer; font-size: 0.8em; text-decoration: none; font-weight: normal; fill: rgb(51, 51, 51);">Italien</text><rect x="2" y="6" rx="0" ry="0" width="12" height="12" fill="#CD9C00" class="highcharts-point" data-z-index="3"></rect></g><g class="highcharts-legend-item highcharts-column-series highcharts-color-undefined highcharts-series-3" data-z-index="1" transform="translate(276.4375,3)"><text x="21" y="17" text-anchor="start" data-z-index="2" style="cursor: pointer; font-size: 0.8em; text-decoration: none; font-weight: normal; fill: rgb(51, 51, 51);">Frankreich</text><rect x="2" y="6" rx="0" ry="0" width="12" height="12" fill="#B00000" class="highcharts-point" data-z-index="3"></rect></g><g class="highcharts-legend-item highcharts-column-series highcharts-color-undefined highcharts-series-2" data-z-index="1" transform="translate(8,25)"><text x="21" y="17" text-anchor="start" data-z-index="2" style="cursor: pointer; font-size: 0.8em; text-decoration: none; font-weight: normal; fill: rgb(51, 51, 51);">Spanien</text><rect x="2" y="6" rx="0" ry="0" width="12" height="12" fill="#FF8028" class="highcharts-point" data-z-index="3"></rect></g><g class="highcharts-legend-item highcharts-column-series highcharts-color-undefined highcharts-series-1" data-z-index="1" transform="translate(142.21875,25)"><text x="21" y="17" text-anchor="start" data-z-index="2" style="cursor: pointer; font-size: 0.8em; text-decoration: none; font-weight: normal; fill: rgb(51, 51, 51);">USA</text><rect x="2" y="6" rx="0" ry="0" width="12" height="12" fill="#923F8D" class="highcharts-point" data-z-index="3"></rect></g><g class="highcharts-legend-item highcharts-column-series highcharts-color-undefined highcharts-series-0" data-z-index="1" transform="translate(276.4375,25)"><text x="21" y="17" text-anchor="start" data-z-index="2" style="cursor: pointer; font-size: 0.8em; text-decoration: none; font-weight: normal; fill: rgb(51, 51, 51);">Übriges Ausland</text><rect x="2" y="6" rx="0" ry="0" width="12" height="12" fill="#999999" class="highcharts-point" data-z-index="3"></rect></g></g></g></g></svg>