<?xml version="1.0" standalone="no"?>
<!DOCTYPE svg PUBLIC "-//W3C//DTD SVG 1.1//EN" "http://www.w3.org/Graphics/SVG/1.1/DTD/svg11.dtd">
<svg xmlns:xlink="http://www.w3.org/1999/xlink" version="1.1" class="highcharts-root" style="font-family:Arial;font-size:12px;" xmlns="http://www.w3.org/2000/svg" viewBox="0 0 485 415">
  <desc>
    Created with Highstock 6.1.0
  </desc>
  <defs>
    <clipPath>
      <rect x="0" y="0" width="238" height="260" fill="none"/>
    </clipPath>
    <clipPath id="a">
      <rect x="0" y="0" width="238" height="260" fill="none"/>
    </clipPath>
  </defs>
  <rect fill="#fbfbfb" class="highcharts-background" x="0" y="0" width="485" height="415" rx="0" ry="0"/>
  <rect fill="none" class="highcharts-plot-background" x="210" y="122" width="260" height="238"/>
  <g class="highcharts-pane-group"/>
  <g class="highcharts-grid highcharts-xaxis-grid ">
    <path fill="none" class="highcharts-grid-line" d="M 210 142.5 L 470 142.5" opacity="1"/>
    <path fill="none" class="highcharts-grid-line" d="M 210 162.5 L 470 162.5" opacity="1"/>
    <path fill="none" class="highcharts-grid-line" d="M 210 181.5 L 470 181.5" opacity="1"/>
    <path fill="none" class="highcharts-grid-line" d="M 210 201.5 L 470 201.5" opacity="1"/>
    <path fill="none" class="highcharts-grid-line" d="M 210 221.5 L 470 221.5" opacity="1"/>
    <path fill="none" class="highcharts-grid-line" d="M 210 241.5 L 470 241.5" opacity="1"/>
    <path fill="none" class="highcharts-grid-line" d="M 210 261.5 L 470 261.5" opacity="1"/>
    <path fill="none" class="highcharts-grid-line" d="M 210 281.5 L 470 281.5" opacity="1"/>
    <path fill="none" class="highcharts-grid-line" d="M 210 301.5 L 470 301.5" opacity="1"/>
    <path fill="none" class="highcharts-grid-line" d="M 210 320.5 L 470 320.5" opacity="1"/>
    <path fill="none" class="highcharts-grid-line" d="M 210 340.5 L 470 340.5" opacity="1"/>
    <path fill="none" class="highcharts-grid-line" d="M 210 360.5 L 470 360.5" opacity="1"/>
    <path fill="none" class="highcharts-grid-line" d="M 210 122.5 L 470 122.5" opacity="1"/>
  </g>
  <g class="highcharts-grid highcharts-yaxis-grid ">
    <path fill="none" stroke="#B9CFD7" stroke-width="0.5" class="highcharts-grid-line" d="M 209.75 122 L 209.75 360" opacity="1"/>
    <path fill="none" stroke="#B9CFD7" stroke-width="0.5" class="highcharts-grid-line" d="M 274.75 122 L 274.75 360" opacity="1"/>
    <path fill="none" stroke="#B9CFD7" stroke-width="0.5" class="highcharts-grid-line" d="M 339.75 122 L 339.75 360" opacity="1"/>
    <path fill="none" stroke="#B9CFD7" stroke-width="0.5" class="highcharts-grid-line" d="M 404.75 122 L 404.75 360" opacity="1"/>
    <path fill="none" stroke="#B9CFD7" stroke-width="0.5" class="highcharts-grid-line" d="M 470.25 122 L 470.25 360" opacity="1"/>
  </g>
  <rect fill="none" class="highcharts-plot-border" x="210" y="122" width="260" height="238"/>
  <g class="highcharts-axis highcharts-xaxis ">
    <path fill="none" class="highcharts-axis-line" stroke="#B9CFD7" stroke-width="0.5" d="M 209.75 122 L 209.75 360"/>
  </g>
  <g class="highcharts-axis highcharts-yaxis ">
    <path fill="none" class="highcharts-axis-line" d="M 210 360 L 470 360"/>
  </g>
  <g class="highcharts-series-group">
    <g class="highcharts-series highcharts-series-0 highcharts-column-series " transform="translate(470,360) rotate(90) scale(-1,1) scale(1 1)" clip-path="url(#a)">
      <rect x="233" y="107" width="3" height="154" fill="#661200" class="highcharts-point"/>
      <rect x="213" y="243" width="3" height="18" fill="#661200" class="highcharts-point"/>
      <rect x="193" y="156" width="3" height="105" fill="#661200" class="highcharts-point"/>
      <rect x="173" y="223" width="4" height="38" fill="#661200" class="highcharts-point"/>
      <rect x="154" y="204" width="3" height="57" fill="#661200" class="highcharts-point"/>
      <rect x="134" y="198" width="3" height="63" fill="#661200" class="highcharts-point"/>
      <rect x="114" y="234" width="3" height="27" fill="#661200" class="highcharts-point"/>
      <rect x="94" y="240" width="3" height="21" fill="#661200" class="highcharts-point"/>
      <rect x="74" y="216" width="3" height="45" fill="#661200" class="highcharts-point"/>
      <rect x="54" y="222" width="4" height="39" fill="#661200" class="highcharts-point"/>
      <rect x="35" y="251" width="3" height="10" fill="#661200" class="highcharts-point"/>
      <rect x="15" y="208" width="3" height="53" fill="#661200" class="highcharts-point"/>
    </g>
    <g class="highcharts-markers highcharts-series-0 highcharts-column-series " transform="translate(470,360) rotate(90) scale(-1,1) scale(1 1)" clip-path="none"/>
    <g class="highcharts-series highcharts-series-1 highcharts-column-series " transform="translate(470,360) rotate(90) scale(-1,1) scale(1 1)" clip-path="url(#a)">
      <rect x="230" y="36" width="3" height="225" fill="#b00000" class="highcharts-point"/>
      <rect x="210" y="244" width="3" height="17" fill="#b00000" class="highcharts-point"/>
      <rect x="190" y="185" width="3" height="76" fill="#b00000" class="highcharts-point"/>
      <rect x="170" y="228" width="3" height="33" fill="#b00000" class="highcharts-point"/>
      <rect x="150" y="213" width="4" height="48" fill="#b00000" class="highcharts-point"/>
      <rect x="131" y="193" width="3" height="68" fill="#b00000" class="highcharts-point"/>
      <rect x="111" y="238" width="3" height="23" fill="#b00000" class="highcharts-point"/>
      <rect x="91" y="246" width="3" height="15" fill="#b00000" class="highcharts-point"/>
      <rect x="71" y="218" width="3" height="43" fill="#b00000" class="highcharts-point"/>
      <rect x="51" y="222" width="3" height="39" fill="#b00000" class="highcharts-point"/>
      <rect x="31" y="253" width="4" height="8" fill="#b00000" class="highcharts-point"/>
      <rect x="12" y="222" width="3" height="39" fill="#b00000" class="highcharts-point"/>
    </g>
    <g class="highcharts-markers highcharts-series-1 highcharts-column-series " transform="translate(470,360) rotate(90) scale(-1,1) scale(1 1)" clip-path="none"/>
    <g class="highcharts-series highcharts-series-2 highcharts-column-series " transform="translate(470,360) rotate(90) scale(-1,1) scale(1 1)" clip-path="url(#a)">
      <rect x="226" y="4" width="4" height="257" fill="#dc440e" class="highcharts-point"/>
      <rect x="207" y="253" width="3" height="8" fill="#dc440e" class="highcharts-point"/>
      <rect x="187" y="194" width="3" height="67" fill="#dc440e" class="highcharts-point"/>
      <rect x="167" y="233" width="3" height="28" fill="#dc440e" class="highcharts-point"/>
      <rect x="147" y="210" width="3" height="51" fill="#dc440e" class="highcharts-point"/>
      <rect x="127" y="197" width="4" height="64" fill="#dc440e" class="highcharts-point"/>
      <rect x="107" y="240" width="4" height="21" fill="#dc440e" class="highcharts-point"/>
      <rect x="88" y="248" width="3" height="13" fill="#dc440e" class="highcharts-point"/>
      <rect x="68" y="220" width="3" height="41" fill="#dc440e" class="highcharts-point"/>
      <rect x="48" y="223" width="3" height="38" fill="#dc440e" class="highcharts-point"/>
      <rect x="28" y="253" width="3" height="8" fill="#dc440e" class="highcharts-point"/>
      <rect x="8" y="217" width="4" height="44" fill="#dc440e" class="highcharts-point"/>
    </g>
    <g class="highcharts-markers highcharts-series-2 highcharts-column-series " transform="translate(470,360) rotate(90) scale(-1,1) scale(1 1)" clip-path="none"/>
    <g class="highcharts-series highcharts-series-3 highcharts-column-series " transform="translate(470,360) rotate(90) scale(-1,1) scale(1 1)" clip-path="url(#a)">
      <rect x="223" y="27" width="3" height="234" fill="#ff8028" class="highcharts-point"/>
      <rect x="203" y="254" width="4" height="7" fill="#ff8028" class="highcharts-point"/>
      <rect x="184" y="195" width="3" height="66" fill="#ff8028" class="highcharts-point"/>
      <rect x="164" y="233" width="3" height="28" fill="#ff8028" class="highcharts-point"/>
      <rect x="144" y="215" width="3" height="46" fill="#ff8028" class="highcharts-point"/>
      <rect x="124" y="179" width="3" height="82" fill="#ff8028" class="highcharts-point"/>
      <rect x="104" y="238" width="3" height="23" fill="#ff8028" class="highcharts-point"/>
      <rect x="84" y="246" width="4" height="15" fill="#ff8028" class="highcharts-point"/>
      <rect x="65" y="215" width="3" height="46" fill="#ff8028" class="highcharts-point"/>
      <rect x="45" y="218" width="3" height="43" fill="#ff8028" class="highcharts-point"/>
      <rect x="25" y="252" width="3" height="9" fill="#ff8028" class="highcharts-point"/>
      <rect x="5" y="215" width="3" height="46" fill="#ff8028" class="highcharts-point"/>
    </g>
    <g class="highcharts-markers highcharts-series-3 highcharts-column-series " transform="translate(470,360) rotate(90) scale(-1,1) scale(1 1)" clip-path="none"/>
    <g class="highcharts-series highcharts-series-4 highcharts-column-series " transform="translate(470,360) rotate(90) scale(-1,1) scale(1 1)" clip-path="url(#a)">
      <rect x="220" y="25" width="3" height="236" fill="#689199" class="highcharts-point"/>
      <rect x="200" y="255" width="3" height="6" fill="#689199" class="highcharts-point"/>
      <rect x="180" y="194" width="4" height="67" fill="#689199" class="highcharts-point"/>
      <rect x="161" y="234" width="3" height="27" fill="#689199" class="highcharts-point"/>
      <rect x="141" y="216" width="3" height="45" fill="#689199" class="highcharts-point"/>
      <rect x="121" y="178" width="3" height="83" fill="#689199" class="highcharts-point"/>
      <rect x="101" y="238" width="3" height="23" fill="#689199" class="highcharts-point"/>
      <rect x="81" y="246" width="3" height="15" fill="#689199" class="highcharts-point"/>
      <rect x="61" y="215" width="4" height="46" fill="#689199" class="highcharts-point"/>
      <rect x="42" y="218" width="3" height="43" fill="#689199" class="highcharts-point"/>
      <rect x="22" y="252" width="3" height="9" fill="#689199" class="highcharts-point"/>
      <rect x="2" y="214" width="3" height="47" fill="#689199" class="highcharts-point"/>
    </g>
    <g class="highcharts-markers highcharts-series-4 highcharts-column-series " transform="translate(470,360) rotate(90) scale(-1,1) scale(1 1)" clip-path="none"/>
  </g>
  <text x="10" text-anchor="start" class="highcharts-title" style="color:#000000;font-size:14px;font-weight:bold;fill:#000000;" y="21">
    <tspan>Branchenanteile an der nominalen Wertschöpfung</tspan>
  </text>
  <text x="10" text-anchor="start" class="highcharts-subtitle" style="color:#000000;font-size:12px;font-weight:normal;font-family:Arial;fill:#000000;" y="40"/>
  <g class="highcharts-legend" transform="translate(202,71)">
    <rect fill="none" class="highcharts-legend-box" rx="0" ry="0" x="0" y="0" width="236" height="39" visibility="visible"/>
    <g>
      <g>
        <g class="highcharts-legend-item highcharts-column-series highcharts-color-undefined highcharts-series-0" transform="translate(8,3)">
          <text x="21" style="color:#333333;font-size:12px;font-weight:normal;cursor:pointer;fill:#333333;" text-anchor="start" y="15">
            <tspan>2…</tspan><title>2000</title>
          </text>
          <rect x="2" y="4" width="12" height="12" fill="#661200" class="highcharts-point"/>
        </g>
        <g class="highcharts-legend-item highcharts-column-series highcharts-color-undefined highcharts-series-1" transform="translate(68,3)">
          <text x="21" y="15" style="color:#333333;font-size:12px;font-weight:normal;cursor:pointer;fill:#333333;" text-anchor="start">
            <tspan>2…</tspan><title>2005</title>
          </text>
          <rect x="2" y="4" width="12" height="12" fill="#b00000" class="highcharts-point"/>
        </g>
        <g class="highcharts-legend-item highcharts-column-series highcharts-color-undefined highcharts-series-2" transform="translate(128,3)">
          <text x="21" y="15" style="color:#333333;font-size:12px;font-weight:normal;cursor:pointer;fill:#333333;" text-anchor="start">
            <tspan>2…</tspan><title>2010</title>
          </text>
          <rect x="2" y="4" width="12" height="12" fill="#dc440e" class="highcharts-point"/>
        </g>
        <g class="highcharts-legend-item highcharts-column-series highcharts-color-undefined highcharts-series-3" transform="translate(188,3)">
          <text x="21" y="15" style="color:#333333;font-size:12px;font-weight:normal;cursor:pointer;fill:#333333;" text-anchor="start">
            <tspan>2…</tspan><title>2015</title>
          </text>
          <rect x="2" y="4" width="12" height="12" fill="#ff8028" class="highcharts-point"/>
        </g>
        <g class="highcharts-legend-item highcharts-column-series highcharts-color-undefined highcharts-series-4" transform="translate(8,17)">
          <text x="21" y="15" style="color:#333333;font-size:12px;font-weight:normal;cursor:pointer;fill:#333333;" text-anchor="start">
            <tspan>2…</tspan><title>2016</title>
          </text>
          <rect x="2" y="4" width="12" height="12" fill="#689199" class="highcharts-point"/>
        </g>
      </g>
    </g>
  </g>
  <g class="highcharts-axis-labels highcharts-xaxis-labels ">
    <text x="195" style="color:#000000;cursor:default;font-size:11px;fill:#000000;" text-anchor="end" transform="translate(0,0)" y="136" opacity="1">
      <tspan>Life Sciences Industrie</tspan>
    </text>
    <text x="195" style="color:#000000;cursor:default;font-size:11px;fill:#000000;" text-anchor="end" transform="translate(0,0)" y="156" opacity="1">
      <tspan>Chemische Industrie</tspan>
    </text>
    <text x="195" style="color:#000000;cursor:default;font-size:11px;fill:#000000;" text-anchor="end" transform="translate(0,0)" y="176" opacity="1">
      <tspan>Finanz- und Versicherungsdienstl.</tspan>
    </text>
    <text x="195" style="color:#000000;cursor:default;font-size:11px;fill:#000000;" text-anchor="end" transform="translate(0,0)" y="196" opacity="1">
      <tspan>Verkehr und Lagerei</tspan>
    </text>
    <text x="195" style="color:#000000;cursor:default;font-size:11px;fill:#000000;" text-anchor="end" transform="translate(0,0)" y="216" opacity="1">
      <tspan>Handel und Reparatur</tspan>
    </text>
    <text x="195" style="color:#000000;cursor:default;font-size:11px;fill:#000000;" text-anchor="end" transform="translate(0,0)" y="236" opacity="1">
      <tspan>Unternehmens- und freiberufl. Dienstl.</tspan>
    </text>
    <text x="195" style="color:#000000;cursor:default;font-size:11px;fill:#000000;" text-anchor="end" transform="translate(0,0)" y="255" opacity="1">
      <tspan>Grundstücks- und Wohnungswesen</tspan>
    </text>
    <text x="195" style="color:#000000;cursor:default;font-size:11px;fill:#000000;" text-anchor="end" transform="translate(0,0)" y="275" opacity="1">
      Baugewerbe
    </text>
    <text x="195" style="color:#000000;cursor:default;font-size:11px;fill:#000000;" text-anchor="end" transform="translate(0,0)" y="295" opacity="1">
      <tspan>Öffentliche Verwaltung</tspan>
    </text>
    <text x="195" style="color:#000000;cursor:default;font-size:11px;fill:#000000;" text-anchor="end" transform="translate(0,0)" y="315" opacity="1">
      <tspan>Gesundheits- und Sozialwesen</tspan>
    </text>
    <text x="195" style="color:#000000;cursor:default;font-size:11px;fill:#000000;" text-anchor="end" transform="translate(0,0)" y="335" opacity="1">
      Tourismus
    </text>
    <text x="195" style="color:#000000;cursor:default;font-size:11px;fill:#000000;" text-anchor="end" transform="translate(0,0)" y="355" opacity="1">
      <tspan>Übrige Branchen</tspan>
    </text>
  </g>
  <g class="highcharts-axis-labels highcharts-yaxis-labels ">
    <text x="210" style="color:#000000;cursor:default;font-size:11px;fill:#000000;" text-anchor="middle" transform="translate(0,0)" y="379" opacity="1">
      0%
    </text>
    <text x="275" style="color:#000000;cursor:default;font-size:11px;fill:#000000;" text-anchor="middle" transform="translate(0,0)" y="379" opacity="1">
      10%
    </text>
    <text x="340" style="color:#000000;cursor:default;font-size:11px;fill:#000000;" text-anchor="middle" transform="translate(0,0)" y="379" opacity="1">
      20%
    </text>
    <text x="405" style="color:#000000;cursor:default;font-size:11px;fill:#000000;" text-anchor="middle" transform="translate(0,0)" y="379" opacity="1">
      30%
    </text>
    <text x="464.0078125" style="color:#000000;cursor:default;font-size:11px;fill:#000000;" text-anchor="middle" transform="translate(0,0)" y="379" opacity="1">
      40%
    </text>
  </g>
  <text x="10" class="highcharts-credits" text-anchor="start" style="cursor:default;color:#000000;font-size:10px;fill:#000000;" y="400">
    <tspan>Quelle: BAK Economics</tspan>
  </text>
</svg>
