<?xml version="1.0" standalone="no"?><!DOCTYPE svg PUBLIC "-//W3C//DTD SVG 1.1//EN" "http://www.w3.org/Graphics/SVG/1.1/DTD/svg11.dtd"><svg xmlns:xlink="http://www.w3.org/1999/xlink" version="1.1" class="highcharts-root" style="font-family:Arial;font-size:12px;" xmlns="http://www.w3.org/2000/svg" viewBox="0 0 485 415"><desc>Created with Highstock 6.1.1</desc><defs><clipPath id="highcharts-w3eh62c-6"><rect x="0" y="0" width="432" height="207" fill="none"></rect></clipPath><clipPath id="highcharts-w3eh62c-7"><rect x="0" y="0" width="432" height="207" fill="none"></rect></clipPath></defs><rect fill="#fbfbfb" class="highcharts-background" x="0" y="0" width="485" height="428" rx="0" ry="0"></rect><rect fill="none" class="highcharts-plot-background" x="43" y="134" width="432" height="207"></rect><g class="highcharts-pane-group" data-z-index="0"></g><g class="highcharts-grid highcharts-xaxis-grid " data-z-index="1"><path fill="none" data-z-index="1" class="highcharts-grid-line" d="M 66.5 134 L 66.5 341" opacity="1"></path><path fill="none" data-z-index="1" class="highcharts-grid-line" d="M 107.5 134 L 107.5 341" opacity="1"></path><path fill="none" data-z-index="1" class="highcharts-grid-line" d="M 147.5 134 L 147.5 341" opacity="1"></path><path fill="none" data-z-index="1" class="highcharts-grid-line" d="M 187.5 134 L 187.5 341" opacity="1"></path><path fill="none" data-z-index="1" class="highcharts-grid-line" d="M 228.5 134 L 228.5 341" opacity="1"></path><path fill="none" data-z-index="1" class="highcharts-grid-line" d="M 268.5 134 L 268.5 341" opacity="1"></path><path fill="none" data-z-index="1" class="highcharts-grid-line" d="M 308.5 134 L 308.5 341" opacity="1"></path><path fill="none" data-z-index="1" class="highcharts-grid-line" d="M 349.5 134 L 349.5 341" opacity="1"></path><path fill="none" data-z-index="1" class="highcharts-grid-line" d="M 389.5 134 L 389.5 341" opacity="1"></path><path fill="none" data-z-index="1" class="highcharts-grid-line" d="M 429.5 134 L 429.5 341" opacity="1"></path><path fill="none" data-z-index="1" class="highcharts-grid-line" d="M 470.5 134 L 470.5 341" opacity="1"></path></g><g class="highcharts-grid highcharts-yaxis-grid " data-z-index="1"><path fill="none" stroke="#B9CFD7" stroke-width="0.5" data-z-index="1" class="highcharts-grid-line" d="M 43 341.25 L 475 341.25" opacity="1"></path><path fill="none" stroke="#B9CFD7" stroke-width="0.5" data-z-index="1" class="highcharts-grid-line" d="M 43 289.25 L 475 289.25" opacity="1"></path><path fill="none" stroke="#B9CFD7" stroke-width="0.5" data-z-index="1" class="highcharts-grid-line" d="M 43 238.25 L 475 238.25" opacity="1"></path><path fill="none" stroke="#B9CFD7" stroke-width="0.5" data-z-index="1" class="highcharts-grid-line" d="M 43 186.25 L 475 186.25" opacity="1"></path><path fill="none" stroke="#B9CFD7" stroke-width="0.5" data-z-index="1" class="highcharts-grid-line" d="M 43 133.75 L 475 133.75" opacity="1"></path></g><rect fill="none" class="highcharts-plot-border" data-z-index="1" x="43" y="134" width="432" height="207"></rect><g class="highcharts-axis highcharts-xaxis " data-z-index="2"><path fill="none" class="highcharts-axis-line" stroke="#B9CFD7" stroke-width="0.5" data-z-index="7" d="M 43 341.25 L 475 341.25"></path></g><g class="highcharts-axis highcharts-yaxis " data-z-index="2"><path fill="none" class="highcharts-axis-line" data-z-index="7" d="M 43 134 L 43 341"></path></g><g class="highcharts-series-group" data-z-index="3"><g data-z-index="0.1" class="highcharts-series highcharts-series-0 highcharts-line-series " transform="translate(43,134) scale(1 1)" clip-path="url(#highcharts-w3eh62c-7)"><path fill="none" d="M 4.2352941176478 103.50000000000001 L 24.403361344538 105.98442409332002 L 44.571428571429 105.03490458600001 L 64.73949579832 103.812710686515 L 84.907563025211 107.73849270726001 L 105.0756302521 106.19095611289501 L 125.24369747899 110.253551588595 L 145.41176470588 109.487551050765 L 165.57983193277 110.106052916805 L 185.74789915966 109.69134238723501 L 205.91596638655 104.867516653515 L 226.08403361345 104.869404534915 L 246.25210084034 100.92259875375001 L 266.42016806723 101.67211742580001 L 286.58823529412 108.480227530365 L 306.75630252101 108.16518271185001 L 326.9243697479 109.403796588255 L 347.09243697479 114.72243669207002 L 367.26050420168 114.03345357715502 L 387.42857142857 119.224248362325 L 407.59663865546 121.44695952906001 L 427.76470588235 123.433973081055" class="highcharts-graph" data-z-index="1" stroke="#008AC3" stroke-width="2" stroke-linejoin="round" stroke-linecap="round"></path></g><g data-z-index="0.1" class="highcharts-markers highcharts-series-0 highcharts-line-series " transform="translate(43,134) scale(1 1)" clip-path="none"></g><g data-z-index="0.1" class="highcharts-series highcharts-series-1 highcharts-line-series " transform="translate(43,134) scale(1 1)" clip-path="url(#highcharts-w3eh62c-7)"><path fill="none" d="M 4.2352941176478 103.50000000000001 L 24.403361344538 104.33033148757501 L 44.571428571429 104.858035718175 L 64.73949579832 100.72681513155001 L 84.907563025211 97.18663456035 L 105.0756302521 87.22287232065001 L 125.24369747899 78.13348074090001 L 145.41176470588 71.63033296095003 L 165.57983193277 65.92584482505004 L 185.74789915966 58.09928259960003 L 205.91596638655 51.43750499610002 L 226.08403361345 40.1480142165 L 246.25210084034 28.630681124400013 L 266.42016806723 24.819981599250013 L 286.58823529412 28.447617455550017 L 306.75630252101 27.129844225800014 L 326.9243697479 19.93699188315 L 347.09243697479 17.718474040650023 L 367.26050420168 19.82337015240003 L 387.42857142857 19.07124559875001 L 407.59663865546 16.819087275450016 L 427.76470588235 12.031164948600008" class="highcharts-graph" data-z-index="1" stroke="#68AB2B" stroke-width="2" stroke-linejoin="round" stroke-linecap="round"></path></g><g data-z-index="0.1" class="highcharts-markers highcharts-series-1 highcharts-line-series " transform="translate(43,134) scale(1 1)" clip-path="none"></g></g><text x="10" text-anchor="start" class="highcharts-title" data-z-index="4" style="color:#000000;font-size:14px;font-weight:bold;fill:#000000;" y="21"><tspan>Entkopplung von Wachstum und Umweltverbrauch</tspan></text><text x="10" text-anchor="start" class="highcharts-subtitle" data-z-index="4" style="color:#000000;font-size:12px;font-weight:normal;font-family:Arial;fill:#000000;" y="40"><tspan>Nominales Bruttoinlandprodukt des Kantons Basel-Stadt in Fr. pro Kopf und</tspan><tspan dy="15" x="10">ökologischer Fussabdruck der Schweiz in globalen Hektaren pro Kopf</tspan></text><g class="highcharts-legend" data-z-index="7" transform="translate(35,71)"><rect fill="none" class="highcharts-legend-box" rx="0" ry="0" x="0" y="0" width="352" height="51" visibility="visible"></rect><g data-z-index="1"><g><g class="highcharts-legend-item highcharts-line-series highcharts-color-undefined highcharts-series-0" data-z-index="1" transform="translate(8,3)"><path fill="none" d="M 0 11 L 16 11" class="highcharts-graph" stroke="#008AC3" stroke-width="2"></path><text x="21" style="color:#333333;font-size:12px;font-weight:normal;cursor:pointer;fill:#333333;" text-anchor="start" data-z-index="2" y="15"><tspan>Ökologischer Fussabdruck Schweiz (indexiert, 1995=100)</tspan></text></g><g class="highcharts-legend-item highcharts-line-series highcharts-color-undefined highcharts-series-1" data-z-index="1" transform="translate(8,23)"><path fill="none" d="M 0 11 L 16 11" class="highcharts-graph" stroke="#68AB2B" stroke-width="2"></path><text x="21" y="15" style="color:#333333;font-size:12px;font-weight:normal;cursor:pointer;fill:#333333;" text-anchor="start" data-z-index="2"><tspan>BIP pro Kopf Kanton Basel-Stadt (indexiert, 1995=100)</tspan></text></g></g></g></g><g class="highcharts-axis-labels highcharts-xaxis-labels " data-z-index="7"><text x="67.403361344538" style="color:#000000;cursor:default;font-size:11px;fill:#000000;" text-anchor="middle" transform="translate(0,0)" y="360" opacity="1">1996</text><text x="107.73949579832" style="color:#000000;cursor:default;font-size:11px;fill:#000000;" text-anchor="middle" transform="translate(0,0)" y="360" opacity="1">1998</text><text x="148.0756302521" style="color:#000000;cursor:default;font-size:11px;fill:#000000;" text-anchor="middle" transform="translate(0,0)" y="360" opacity="1">2000</text><text x="188.41176470588" style="color:#000000;cursor:default;font-size:11px;fill:#000000;" text-anchor="middle" transform="translate(0,0)" y="360" opacity="1">2002</text><text x="228.74789915966" style="color:#000000;cursor:default;font-size:11px;fill:#000000;" text-anchor="middle" transform="translate(0,0)" y="360" opacity="1">2004</text><text x="269.08403361345" style="color:#000000;cursor:default;font-size:11px;fill:#000000;" text-anchor="middle" transform="translate(0,0)" y="360" opacity="1">2006</text><text x="309.42016806723" style="color:#000000;cursor:default;font-size:11px;fill:#000000;" text-anchor="middle" transform="translate(0,0)" y="360" opacity="1">2008</text><text x="349.75630252101" style="color:#000000;cursor:default;font-size:11px;fill:#000000;" text-anchor="middle" transform="translate(0,0)" y="360" opacity="1">2010</text><text x="390.09243697479" style="color:#000000;cursor:default;font-size:11px;fill:#000000;" text-anchor="middle" transform="translate(0,0)" y="360" opacity="1">2012</text><text x="430.42857142857" style="color:#000000;cursor:default;font-size:11px;fill:#000000;" text-anchor="middle" transform="translate(0,0)" y="360" opacity="1">2014</text><text x="463" style="color:#000000;cursor:default;font-size:11px;fill:#000000;" text-anchor="middle" transform="translate(0,0)" y="360" opacity="1">2016</text></g><g class="highcharts-axis-labels highcharts-yaxis-labels " data-z-index="7"><text x="28" style="color:#000000;cursor:default;font-size:11px;fill:#000000;" text-anchor="end" transform="translate(0,0)" y="345" opacity="1">0</text><text x="28" style="color:#000000;cursor:default;font-size:11px;fill:#000000;" text-anchor="end" transform="translate(0,0)" y="293" opacity="1">50</text><text x="28" style="color:#000000;cursor:default;font-size:11px;fill:#000000;" text-anchor="end" transform="translate(0,0)" y="242" opacity="1">100</text><text x="28" style="color:#000000;cursor:default;font-size:11px;fill:#000000;" text-anchor="end" transform="translate(0,0)" y="190" opacity="1">150</text><text x="28" style="color:#000000;cursor:default;font-size:11px;fill:#000000;" text-anchor="end" transform="translate(0,0)" y="138" opacity="1">200</text></g><text x="10" class="highcharts-credits" text-anchor="start" data-z-index="8" style="cursor:default;color:#000000;font-size:10px;fill:#000000;" y="393"><tspan>Quelle: BAK Economics;</tspan><tspan x="10" dy="13">Global Footprint Network.</tspan><tspan x="10" dy="13">Zuletzt geändert: 2019-6-24</tspan></text></svg>