<?xml version="1.0" standalone="no"?>
<!DOCTYPE svg PUBLIC "-//W3C//DTD SVG 1.1//EN" "http://www.w3.org/Graphics/SVG/1.1/DTD/svg11.dtd">
<svg xmlns:xlink="http://www.w3.org/1999/xlink" version="1.1" class="highcharts-root" style="font-family:Arial;font-size:12px;" xmlns="http://www.w3.org/2000/svg" viewBox="0 0 485 415">
  <desc>
    Created with Highstock 6.0.4
  </desc>
  <defs>
    <clipPath>
      <rect x="0" y="0" width="422" height="261" fill="none"/>
    </clipPath>
    <clipPath id="a">
      <rect x="0" y="0" width="422" height="261" fill="none"/>
    </clipPath>
  </defs>
  <rect fill="#fbfbfb" class="highcharts-background" x="0" y="0" width="485" height="415" rx="0" ry="0"/>
  <rect fill="none" class="highcharts-plot-background" x="53" y="118" width="422" height="261"/>
  <g class="highcharts-pane-group"/>
  <g class="highcharts-grid highcharts-xaxis-grid ">
    <path fill="none" class="highcharts-grid-line" d="M 122.5 118 L 122.5 379" opacity="1"/>
    <path fill="none" class="highcharts-grid-line" d="M 193.5 118 L 193.5 379" opacity="1"/>
    <path fill="none" class="highcharts-grid-line" d="M 263.5 118 L 263.5 379" opacity="1"/>
    <path fill="none" class="highcharts-grid-line" d="M 333.5 118 L 333.5 379" opacity="1"/>
    <path fill="none" class="highcharts-grid-line" d="M 404.5 118 L 404.5 379" opacity="1"/>
    <path fill="none" class="highcharts-grid-line" d="M 474.5 118 L 474.5 379" opacity="1"/>
    <path fill="none" class="highcharts-grid-line" d="M 52.5 118 L 52.5 379" opacity="1"/>
  </g>
  <g class="highcharts-grid highcharts-yaxis-grid ">
    <path fill="none" stroke="#B9CFD7" stroke-width="0.5" class="highcharts-grid-line" d="M 53 379.25 L 475 379.25" opacity="1"/>
    <path fill="none" stroke="#B9CFD7" stroke-width="0.5" class="highcharts-grid-line" d="M 53 314.25 L 475 314.25" opacity="1"/>
    <path fill="none" stroke="#B9CFD7" stroke-width="0.5" class="highcharts-grid-line" d="M 53 249.25 L 475 249.25" opacity="1"/>
    <path fill="none" stroke="#B9CFD7" stroke-width="0.5" class="highcharts-grid-line" d="M 53 183.25 L 475 183.25" opacity="1"/>
    <path fill="none" stroke="#B9CFD7" stroke-width="0.5" class="highcharts-grid-line" d="M 53 117.75 L 475 117.75" opacity="1"/>
  </g>
  <rect fill="none" class="highcharts-plot-border" x="53" y="118" width="422" height="261"/>
  <g class="highcharts-axis highcharts-xaxis ">
    <path fill="none" class="highcharts-axis-line" stroke="#B9CFD7" stroke-width="0.5" d="M 53 379.25 L 475 379.25"/>
  </g>
  <g class="highcharts-axis highcharts-yaxis ">
    <path fill="none" class="highcharts-axis-line" d="M 53 118 L 53 379"/>
  </g>
  <g class="highcharts-series-group">
    <g class="highcharts-series highcharts-series-0 highcharts-column-series " transform="translate(53,118) scale(1 1)" clip-path="url(#a)">
      <rect x="7" y="26" width="11" height="236" fill="#b375ab" class="highcharts-point"/>
      <rect x="77" y="37" width="12" height="225" fill="#b375ab" class="highcharts-point"/>
      <rect x="148" y="40" width="11" height="222" fill="#b375ab" class="highcharts-point"/>
      <rect x="218" y="56" width="11" height="206" fill="#b375ab" class="highcharts-point"/>
      <rect x="288" y="64" width="12" height="198" fill="#b375ab" class="highcharts-point"/>
      <rect x="359" y="63" width="11" height="199" fill="#b375ab" class="highcharts-point"/>
    </g>
    <g class="highcharts-markers highcharts-series-0 highcharts-column-series " transform="translate(53,118) scale(1 1)" clip-path="none"/>
    <g class="highcharts-series highcharts-series-1 highcharts-column-series " transform="translate(53,118) scale(1 1)" clip-path="url(#a)">
      <rect x="18" y="124" width="12" height="138" fill="#923f8d" class="highcharts-point"/>
      <rect x="89" y="118" width="11" height="144" fill="#923f8d" class="highcharts-point"/>
      <rect x="159" y="105" width="11" height="157" fill="#923f8d" class="highcharts-point"/>
      <rect x="229" y="88" width="12" height="174" fill="#923f8d" class="highcharts-point"/>
      <rect x="300" y="83" width="11" height="179" fill="#923f8d" class="highcharts-point"/>
      <rect x="370" y="79" width="11" height="183" fill="#923f8d" class="highcharts-point"/>
    </g>
    <g class="highcharts-markers highcharts-series-1 highcharts-column-series " transform="translate(53,118) scale(1 1)" clip-path="none"/>
    <g class="highcharts-series highcharts-series-2 highcharts-column-series " transform="translate(53,118) scale(1 1)" clip-path="url(#a)">
      <rect x="30" y="84" width="11" height="178" fill="#fabd24" class="highcharts-point"/>
      <rect x="100" y="83" width="11" height="179" fill="#fabd24" class="highcharts-point"/>
      <rect x="170" y="76" width="11" height="186" fill="#fabd24" class="highcharts-point"/>
      <rect x="241" y="71" width="11" height="191" fill="#fabd24" class="highcharts-point"/>
      <rect x="311" y="72" width="11" height="190" fill="#fabd24" class="highcharts-point"/>
      <rect x="381" y="69" width="11" height="193" fill="#fabd24" class="highcharts-point"/>
    </g>
    <g class="highcharts-markers highcharts-series-2 highcharts-column-series " transform="translate(53,118) scale(1 1)" clip-path="none"/>
    <g class="highcharts-series highcharts-series-3 highcharts-column-series " transform="translate(53,118) scale(1 1)" clip-path="url(#a)">
      <rect x="41" y="42" width="11" height="220" fill="#cd9c00" class="highcharts-point"/>
      <rect x="111" y="61" width="11" height="201" fill="#cd9c00" class="highcharts-point"/>
      <rect x="181" y="63" width="12" height="199" fill="#cd9c00" class="highcharts-point"/>
      <rect x="252" y="75" width="11" height="187" fill="#cd9c00" class="highcharts-point"/>
      <rect x="322" y="75" width="11" height="187" fill="#cd9c00" class="highcharts-point"/>
      <rect x="392" y="74" width="12" height="188" fill="#cd9c00" class="highcharts-point"/>
    </g>
    <g class="highcharts-markers highcharts-series-3 highcharts-column-series " transform="translate(53,118) scale(1 1)" clip-path="none"/>
    <g class="highcharts-series highcharts-series-4 highcharts-column-series " transform="translate(53,118) scale(1 1)" clip-path="url(#a)">
      <rect x="52" y="77" width="11" height="185" fill="#C8C8C8" class="highcharts-point"/>
      <rect x="122" y="79" width="12" height="183" fill="#C8C8C8" class="highcharts-point"/>
      <rect x="193" y="73" width="11" height="189" fill="#C8C8C8" class="highcharts-point"/>
      <rect x="263" y="72" width="11" height="190" fill="#C8C8C8" class="highcharts-point"/>
      <rect x="333" y="73" width="12" height="189" fill="#C8C8C8" class="highcharts-point"/>
      <rect x="404" y="71" width="11" height="191" fill="#C8C8C8" class="highcharts-point"/>
    </g>
    <g class="highcharts-markers highcharts-series-4 highcharts-column-series " transform="translate(53,118) scale(1 1)" clip-path="none"/>
  </g>
  <text x="10" text-anchor="start" class="highcharts-title" style="color:#000000;font-size:14px;font-weight:bold;fill:#000000;" y="21">
    <tspan>Nettoerwerbstätigenquote nach Geschlecht und Heimat</tspan>
  </text>
  <text x="10" text-anchor="start" class="highcharts-subtitle" style="color:#000000;font-size:12px;font-weight:normal;font-family:Arial;fill:#000000;" y="40"/>
  <g class="highcharts-legend" transform="translate(45,76)">
    <rect fill="none" class="highcharts-legend-box" rx="0" ry="0" x="0" y="0" width="396" height="30" visibility="visible"/>
    <g>
      <g>
        <g class="highcharts-legend-item highcharts-column-series highcharts-color-undefined highcharts-series-0" transform="translate(8,3)">
          <text x="21" style="color:#333333;font-size:12px;font-weight:normal;cursor:pointer;fill:#333333;" text-anchor="start" y="15">
            <tspan>Män…</tspan><title>Männer</title>
          </text>
          <rect x="2" y="4" width="12" height="12" fill="#b375ab" class="highcharts-point"/>
        </g>
        <g class="highcharts-legend-item highcharts-column-series highcharts-color-undefined highcharts-series-1" transform="translate(88,3)">
          <text x="21" y="15" style="color:#333333;font-size:12px;font-weight:normal;cursor:pointer;fill:#333333;" text-anchor="start">
            <tspan>Frauen</tspan>
          </text>
          <rect x="2" y="4" width="12" height="12" fill="#923f8d" class="highcharts-point"/>
        </g>
        <g class="highcharts-legend-item highcharts-column-series highcharts-color-undefined highcharts-series-2" transform="translate(168,3)">
          <text x="21" y="15" style="color:#333333;font-size:12px;font-weight:normal;cursor:pointer;fill:#333333;" text-anchor="start">
            <tspan>Sch…</tspan><title>Schweiz</title>
          </text>
          <rect x="2" y="4" width="12" height="12" fill="#fabd24" class="highcharts-point"/>
        </g>
        <g class="highcharts-legend-item highcharts-column-series highcharts-color-undefined highcharts-series-3" transform="translate(248,3)">
          <text x="21" y="15" style="color:#333333;font-size:12px;font-weight:normal;cursor:pointer;fill:#333333;" text-anchor="start">
            <tspan>Ausl…</tspan><title>Ausland</title>
          </text>
          <rect x="2" y="4" width="12" height="12" fill="#cd9c00" class="highcharts-point"/>
        </g>
        <g class="highcharts-legend-item highcharts-column-series highcharts-color-undefined highcharts-series-4" transform="translate(328,3)">
          <text x="21" y="15" style="color:#333333;font-size:12px;font-weight:normal;cursor:pointer;fill:#333333;" text-anchor="start">
            <tspan>Total</tspan>
          </text>
          <rect x="2" y="4" width="12" height="12" fill="#C8C8C8" class="highcharts-point"/>
        </g>
      </g>
    </g>
  </g>
  <g class="highcharts-axis-labels highcharts-xaxis-labels ">
    <text x="88.16666666666666" style="color:#000000;cursor:default;font-size:11px;fill:#000000;" text-anchor="middle" transform="translate(0,0)" y="398" opacity="1">
      1970
    </text>
    <text x="158.5" style="color:#000000;cursor:default;font-size:11px;fill:#000000;" text-anchor="middle" transform="translate(0,0)" y="398" opacity="1">
      1980
    </text>
    <text x="228.83333333333334" style="color:#000000;cursor:default;font-size:11px;fill:#000000;" text-anchor="middle" transform="translate(0,0)" y="398" opacity="1">
      1990
    </text>
    <text x="299.16666666666663" style="color:#000000;cursor:default;font-size:11px;fill:#000000;" text-anchor="middle" transform="translate(0,0)" y="398" opacity="1">
      2000
    </text>
    <text x="369.5" style="color:#000000;cursor:default;font-size:11px;fill:#000000;" text-anchor="middle" transform="translate(0,0)" y="398" opacity="1">
      2010
    </text>
    <text x="439.8333333333333" style="color:#000000;cursor:default;font-size:11px;fill:#000000;" text-anchor="middle" transform="translate(0,0)" y="398" opacity="1">
      2014
    </text>
  </g>
  <g class="highcharts-axis-labels highcharts-yaxis-labels ">
    <text x="38" style="color:#000000;cursor:default;font-size:11px;fill:#000000;" text-anchor="end" transform="translate(0,0)" y="384" opacity="1">
      <tspan>0%</tspan>
    </text>
    <text x="38" style="color:#000000;cursor:default;font-size:11px;fill:#000000;" text-anchor="end" transform="translate(0,0)" y="318" opacity="1">
      <tspan>25%</tspan>
    </text>
    <text x="38" style="color:#000000;cursor:default;font-size:11px;fill:#000000;" text-anchor="end" transform="translate(0,0)" y="253" opacity="1">
      <tspan>50%</tspan>
    </text>
    <text x="38" style="color:#000000;cursor:default;font-size:11px;fill:#000000;" text-anchor="end" transform="translate(0,0)" y="188" opacity="1">
      <tspan>75%</tspan>
    </text>
    <text x="38" style="color:#000000;cursor:default;font-size:11px;fill:#000000;" text-anchor="end" transform="translate(0,0)" y="123" opacity="1">
      <tspan>100%</tspan>
    </text>
  </g>
  <text x="10" class="highcharts-credits" text-anchor="start" style="cursor:default;color:#000000;font-size:10px;fill:#000000;" y="400">
    <tspan>Quelle: Bundesamt für Statistik, Volkszählung (bis 2000) und Strukturerhebung (ab 2010)</tspan>
  </text>
</svg>
