<?xml version="1.0" standalone="no"?><!DOCTYPE svg PUBLIC "-//W3C//DTD SVG 1.1//EN" "http://www.w3.org/Graphics/SVG/1.1/DTD/svg11.dtd"><svg xmlns:xlink="http://www.w3.org/1999/xlink" version="1.1" class="highcharts-root" style="font-family:Arial;font-size:12px;" xmlns="http://www.w3.org/2000/svg" viewBox="0 0 485 415"><desc>Created with Highcharts 8.2.0</desc><defs><clipPath id="highcharts-8ofzjif-27-"><rect x="0" y="0" width="418" height="282" fill="none"></rect></clipPath><clipPath id="highcharts-8ofzjif-48-"><rect x="0" y="0" width="418" height="282" fill="none"></rect></clipPath><clipPath id="highcharts-8ofzjif-49-"><rect x="47" y="56" width="418" height="282" fill="none"></rect></clipPath></defs><rect fill="#fbfbfb" class="highcharts-background" x="0" y="0" width="485" height="428" rx="0" ry="0"></rect><rect fill="none" class="highcharts-plot-background" x="47" y="56" width="418" height="282"></rect><g class="highcharts-pane-group" data-z-index="0"></g><g class="highcharts-grid highcharts-xaxis-grid" data-z-index="1"><path fill="none" data-z-index="1" class="highcharts-grid-line" d="M 50.5 56 L 50.5 338" opacity="1"></path><path fill="none" data-z-index="1" class="highcharts-grid-line" d="M 72.5 56 L 72.5 338" opacity="1"></path><path fill="none" data-z-index="1" class="highcharts-grid-line" d="M 93.5 56 L 93.5 338" opacity="1"></path><path fill="none" data-z-index="1" class="highcharts-grid-line" d="M 115.5 56 L 115.5 338" opacity="1"></path><path fill="none" data-z-index="1" class="highcharts-grid-line" d="M 136.5 56 L 136.5 338" opacity="1"></path><path fill="none" data-z-index="1" class="highcharts-grid-line" d="M 158.5 56 L 158.5 338" opacity="1"></path><path fill="none" data-z-index="1" class="highcharts-grid-line" d="M 180.5 56 L 180.5 338" opacity="1"></path><path fill="none" data-z-index="1" class="highcharts-grid-line" d="M 201.5 56 L 201.5 338" opacity="1"></path><path fill="none" data-z-index="1" class="highcharts-grid-line" d="M 223.5 56 L 223.5 338" opacity="1"></path><path fill="none" data-z-index="1" class="highcharts-grid-line" d="M 244.5 56 L 244.5 338" opacity="1"></path><path fill="none" data-z-index="1" class="highcharts-grid-line" d="M 266.5 56 L 266.5 338" opacity="1"></path><path fill="none" data-z-index="1" class="highcharts-grid-line" d="M 287.5 56 L 287.5 338" opacity="1"></path><path fill="none" data-z-index="1" class="highcharts-grid-line" d="M 309.5 56 L 309.5 338" opacity="1"></path><path fill="none" data-z-index="1" class="highcharts-grid-line" d="M 330.5 56 L 330.5 338" opacity="1"></path><path fill="none" data-z-index="1" class="highcharts-grid-line" d="M 352.5 56 L 352.5 338" opacity="1"></path><path fill="none" data-z-index="1" class="highcharts-grid-line" d="M 374.5 56 L 374.5 338" opacity="1"></path><path fill="none" data-z-index="1" class="highcharts-grid-line" d="M 395.5 56 L 395.5 338" opacity="1"></path><path fill="none" data-z-index="1" class="highcharts-grid-line" d="M 417.5 56 L 417.5 338" opacity="1"></path><path fill="none" data-z-index="1" class="highcharts-grid-line" d="M 438.5 56 L 438.5 338" opacity="1"></path><path fill="none" data-z-index="1" class="highcharts-grid-line" d="M 460.5 56 L 460.5 338" opacity="1"></path></g><g class="highcharts-grid highcharts-yaxis-grid" data-z-index="1"><path fill="none" stroke="#B9CFD7" stroke-width="0.5" data-z-index="1" class="highcharts-grid-line" d="M 47 338.25 L 465 338.25" opacity="1"></path><path fill="none" stroke="#B9CFD7" stroke-width="0.5" data-z-index="1" class="highcharts-grid-line" d="M 47 268.25 L 465 268.25" opacity="1"></path><path fill="none" stroke="#B9CFD7" stroke-width="0.5" data-z-index="1" class="highcharts-grid-line" d="M 47 197.25 L 465 197.25" opacity="1"></path><path fill="none" stroke="#B9CFD7" stroke-width="0.5" data-z-index="1" class="highcharts-grid-line" d="M 47 127.25 L 465 127.25" opacity="1"></path><path fill="none" stroke="#B9CFD7" stroke-width="0.5" data-z-index="1" class="highcharts-grid-line" d="M 47 55.75 L 465 55.75" opacity="1"></path></g><rect fill="none" class="highcharts-plot-border" data-z-index="1" x="47" y="56" width="418" height="282"></rect><g class="highcharts-axis highcharts-xaxis" data-z-index="2"><path fill="none" class="highcharts-axis-line" stroke="#B9CFD7" stroke-width="0.5" data-z-index="7" d="M 47 338.25 L 465 338.25"></path></g><g class="highcharts-axis highcharts-yaxis" data-z-index="2"><path fill="none" class="highcharts-axis-line" data-z-index="7" d="M 47 56 L 47 338"></path></g><g class="highcharts-series-group" data-z-index="3"><g class="highcharts-series highcharts-series-0 highcharts-line-series" data-z-index="0.1" opacity="1" transform="translate(47,56) scale(1 1)" clip-path="url(#highcharts-8ofzjif-48-)"><path fill="none" d="M 4.0980392156874 87.72978618234302 L 25.666666666668 84.442326980958 L 47.235294117648 78.519499162626 L 68.803921568628 74.51343850192049 L 90.372549019608 70.96531690702798 L 111.94117647059 67.487269487835 L 133.50980392157 62.479537594464006 L 155.07843137255 61.605800174785514 L 176.64705882353 58.343132178762005 L 198.21568627451 53.20005788106303 L 219.78431372549 51.86092795255348 L 241.35294117647 46.74429392529302 L 262.92156862745 43.207620219241505 L 284.49019607843 38.34705999724949 L 306.05882352941 35.199225330994494 L 327.62745098039 33.22799233283101 L 349.19607843137 30.14263947611704 L 370.76470588235 28.290982370781023 L 392.33333333333 25.246869007665055 L 413.90196078431 24.089472922572043" class="highcharts-graph" data-z-index="1" stroke="#cd9c00" stroke-width="2" stroke-linejoin="round" stroke-linecap="round"></path></g><g class="highcharts-markers highcharts-series-0 highcharts-line-series" data-z-index="0.1" opacity="1" transform="translate(47,56) scale(1 1)" clip-path="none"></g></g><text x="10" text-anchor="start" class="highcharts-title" data-z-index="4" style="color:#000000;font-size:14px;font-weight:bold;fill:#000000;" y="21"><tspan>Ausländeranteil</tspan></text><text x="10" text-anchor="start" class="highcharts-subtitle" data-z-index="4" style="color:#000000;font-size:12px;font-weight:normal;fill:#000000;" y="40"><tspan>Basel-Stadt</tspan></text><text x="10" text-anchor="start" class="highcharts-caption" data-z-index="4" style="color:#666666;fill:#666666;" y="385"></text><g class="highcharts-axis-labels highcharts-xaxis-labels" data-z-index="7"><text x="53.690764080037674" style="color:#000000;cursor:default;font-size:11px;fill:#000000;" text-anchor="end" transform="translate(0,0) rotate(-45 53.690764080037674 354)" y="354" opacity="1">2000</text><text x="75.25939153101866" style="color:#000000;cursor:default;font-size:11px;fill:#000000;" text-anchor="end" transform="translate(0,0) rotate(-45 75.25939153101866 354)" y="354" opacity="1">2001</text><text x="96.82801898199867" style="color:#000000;cursor:default;font-size:11px;fill:#000000;" text-anchor="end" transform="translate(0,0) rotate(-45 96.82801898199867 354)" y="354" opacity="1">2002</text><text x="118.39664643298067" style="color:#000000;cursor:default;font-size:11px;fill:#000000;" text-anchor="end" transform="translate(0,0) rotate(-45 118.39664643298067 354)" y="354" opacity="1">2003</text><text x="139.9652738839607" style="color:#000000;cursor:default;font-size:11px;fill:#000000;" text-anchor="end" transform="translate(0,0) rotate(-45 139.9652738839607 354)" y="354" opacity="1">2004</text><text x="161.53390133494068" style="color:#000000;cursor:default;font-size:11px;fill:#000000;" text-anchor="end" transform="translate(0,0) rotate(-45 161.53390133494068 354)" y="354" opacity="1">2005</text><text x="183.1025287859207" style="color:#000000;cursor:default;font-size:11px;fill:#000000;" text-anchor="end" transform="translate(0,0) rotate(-45 183.1025287859207 354)" y="354" opacity="1">2006</text><text x="204.67115623690069" style="color:#000000;cursor:default;font-size:11px;fill:#000000;" text-anchor="end" transform="translate(0,0) rotate(-45 204.67115623690069 354)" y="354" opacity="1">2007</text><text x="226.23978368788067" style="color:#000000;cursor:default;font-size:11px;fill:#000000;" text-anchor="end" transform="translate(0,0) rotate(-45 226.23978368788067 354)" y="354" opacity="1">2008</text><text x="247.8084111388607" style="color:#000000;cursor:default;font-size:11px;fill:#000000;" text-anchor="end" transform="translate(0,0) rotate(-45 247.8084111388607 354)" y="354" opacity="1">2009</text><text x="269.37703858984065" style="color:#000000;cursor:default;font-size:11px;fill:#000000;" text-anchor="end" transform="translate(0,0) rotate(-45 269.37703858984065 354)" y="354" opacity="1">2010</text><text x="290.94566604082064" style="color:#000000;cursor:default;font-size:11px;fill:#000000;" text-anchor="end" transform="translate(0,0) rotate(-45 290.94566604082064 354)" y="354" opacity="1">2011</text><text x="312.51429349180063" style="color:#000000;cursor:default;font-size:11px;fill:#000000;" text-anchor="end" transform="translate(0,0) rotate(-45 312.51429349180063 354)" y="354" opacity="1">2012</text><text x="334.0829209427807" style="color:#000000;cursor:default;font-size:11px;fill:#000000;" text-anchor="end" transform="translate(0,0) rotate(-45 334.0829209427807 354)" y="354" opacity="1">2013</text><text x="355.65154839376066" style="color:#000000;cursor:default;font-size:11px;fill:#000000;" text-anchor="end" transform="translate(0,0) rotate(-45 355.65154839376066 354)" y="354" opacity="1">2014</text><text x="377.22017584474065" style="color:#000000;cursor:default;font-size:11px;fill:#000000;" text-anchor="end" transform="translate(0,0) rotate(-45 377.22017584474065 354)" y="354" opacity="1">2015</text><text x="398.78880329572064" style="color:#000000;cursor:default;font-size:11px;fill:#000000;" text-anchor="end" transform="translate(0,0) rotate(-45 398.78880329572064 354)" y="354" opacity="1">2016</text><text x="420.35743074670063" style="color:#000000;cursor:default;font-size:11px;fill:#000000;" text-anchor="end" transform="translate(0,0) rotate(-45 420.35743074670063 354)" y="354" opacity="1">2017</text><text x="441.9260581976807" style="color:#000000;cursor:default;font-size:11px;fill:#000000;" text-anchor="end" transform="translate(0,0) rotate(-45 441.9260581976807 354)" y="354" opacity="1">2018</text><text x="463.49468564866066" style="color:#000000;cursor:default;font-size:11px;fill:#000000;" text-anchor="end" transform="translate(0,0) rotate(-45 463.49468564866066 354)" y="354" opacity="1">2019</text></g><g class="highcharts-axis-labels highcharts-yaxis-labels" data-z-index="7"><text x="32" style="color:#000000;cursor:default;font-size:11px;fill:#000000;" text-anchor="end" transform="translate(0,0)" y="342" opacity="1">0%</text><text x="32" style="color:#000000;cursor:default;font-size:11px;fill:#000000;" text-anchor="end" transform="translate(0,0)" y="272" opacity="1">10%</text><text x="32" style="color:#000000;cursor:default;font-size:11px;fill:#000000;" text-anchor="end" transform="translate(0,0)" y="201" opacity="1">20%</text><text x="32" style="color:#000000;cursor:default;font-size:11px;fill:#000000;" text-anchor="end" transform="translate(0,0)" y="131" opacity="1">30%</text><text x="32" style="color:#000000;cursor:default;font-size:11px;fill:#000000;" text-anchor="end" transform="translate(0,0)" y="60" opacity="1">40%</text></g><text x="10" class="highcharts-credits" text-anchor="start" data-z-index="8" style="cursor:default;color:#000000;font-size:10px;fill:#000000;" y="403"><tspan>Quelle: Statistisches Amt Basel-Stadt, Bevölkerungsstatistik.</tspan><tspan x="10" dy="13">Zuletzt geändert: 2020-3-17</tspan></text><g class="highcharts-control-points" data-z-index="99" clip-path="url(#highcharts-8ofzjif-49-)"></g></svg>