<svg version="1.1" class="highcharts-root" style="font-family: Arial; font-size: 1rem;" xmlns="http://www.w3.org/2000/svg" width="600" height="400" viewBox="0 0 600 400" role="img" aria-label="Ausländische Bevölkerung nach Staatsangehörigkeit innerhalb der Ländergruppe «Übrige»"><desc>Created with Highcharts 12.5.0</desc><defs><filter id="highcharts-drop-shadow-0"><feDropShadow dx="1" dy="1" flood-color="#000000" flood-opacity="0.75" stdDeviation="2.5"></feDropShadow></filter></defs><rect fill="#ffffff" class="highcharts-background" filter="none" x="0" y="0" width="600" height="400" rx="0" ry="0"></rect><rect fill="none" class="highcharts-plot-background" x="10" y="55" width="426" height="290" filter="none"></rect><g class="highcharts-pane-group" data-z-index="0"></g><rect fill="none" class="highcharts-plot-border" data-z-index="1" stroke="#cccccc" stroke-width="0" x="10" y="55" width="426" height="290"></rect><g class="highcharts-series-group" data-z-index="3" filter="none"><g class="highcharts-series highcharts-series-0 highcharts-pie-series highcharts-tracker" data-z-index="0.1" opacity="1" transform="translate(10,55) scale(1 1)" filter="none" clip-path="none"><path fill="#B00000" d="M 212.97312208141375 13.034098049619303 A 3 3 0 0 1 216.04069297417118 10.034248098872041 A 135 135 0 0 1 337.3048644489508 92.33786299125376 A 3 3 0 0 1 335.6497213264811 96.2963465586356 L 213 145 A 0 0 0 0 1 213 145 A 0 0 0 0 0 213 145 A 0 0 0 0 1 213 145 Z" transform="translate(0,0)" stroke="#ffffff" stroke-width="0" opacity="1" stroke-linejoin="round" class="highcharts-point highcharts-color-0"></path><path fill="#FF8028" d="M 335.6497213264811 96.2963465586356 A 3 3 0 0 1 339.56956553703327 98.04102769686452 A 135 135 0 0 1 326.9275163017578 217.4259693018513 A 3 3 0 0 1 322.72920430469924 218.31099319104584 L 213 145 A 0 0 0 0 1 213 145 A 0 0 0 0 0 213 145 A 0 0 0 0 1 213 145 Z" transform="translate(0,0)" stroke="#ffffff" stroke-width="0" opacity="1" stroke-linejoin="round" class="highcharts-point highcharts-color-1"></path><path fill="#FABD24" d="M 322.72920430469924 218.31099319104584 A 3 3 0 0 1 323.5185834123997 222.52833495256067 A 135 135 0 0 1 240.68317226773618 277.1311544382885 A 3 3 0 0 1 237.11851981167527 274.74319636148107 L 213 145 A 0 0 0 0 1 213 145 A 0 0 0 0 0 213 145 A 0 0 0 0 1 213 145 Z" transform="translate(0,0)" stroke="#ffffff" stroke-width="0" opacity="1" stroke-linejoin="round" class="highcharts-point highcharts-color-2"></path><path fill="#E6E600" d="M 237.11851981167527 274.74319636148107 A 3 3 0 0 1 234.65016371069052 278.2526563011046 A 135 135 0 0 1 186.38151631429483 277.3497500045763 A 3 3 0 0 1 184.04613597810746 273.75043206996145 L 213 145 A 0 0 0 0 1 213 145 A 0 0 0 0 0 213 145 A 0 0 0 0 1 213 145 Z" transform="translate(0,0)" stroke="#ffffff" stroke-width="0" opacity="1" stroke-linejoin="round" class="highcharts-point highcharts-color-3"></path><path fill="#8AB77D" d="M 184.04613597810746 273.75043206996145 A 3 3 0 0 1 180.39467091365225 276.003406502163 A 135 135 0 0 1 137.61391650546864 256.99079611894695 A 3 3 0 0 1 136.8391950484396 252.77073716519882 L 213 145 A 0 0 0 0 1 213 145 A 0 0 0 0 0 213 145 A 0 0 0 0 1 213 145 Z" transform="translate(0,0)" stroke="#ffffff" stroke-width="0" opacity="1" stroke-linejoin="round" class="highcharts-point highcharts-color-4"></path><path fill="#68AB2B" d="M 136.8391950484396 252.77073716519882 A 3 3 0 0 1 132.60261882088508 253.44934808259612 A 135 135 0 0 1 107.80072224058435 229.6056260475467 A 3 3 0 0 1 108.31197552585392 225.3456130208774 L 213 145 A 0 0 0 0 1 213 145 A 0 0 0 0 0 213 145 A 0 0 0 0 1 213 145 Z" transform="translate(0,0)" stroke="#ffffff" stroke-width="0" opacity="1" stroke-linejoin="round" class="highcharts-point highcharts-color-5"></path><path fill="#007A2F" d="M 108.31197552585392 225.3456130208774 A 3 3 0 0 1 104.06468224411682 224.73767331333892 A 135 135 0 0 1 209.87931962715177 10.03607387894155 A 3 3 0 0 1 212.94866785292314 13.034105296062677 L 213 145 A 0 0 0 0 1 213 145 A 0 0 0 0 0 213 145 A 0 0 0 0 1 213 145 Z" transform="translate(0,0)" stroke="#ffffff" stroke-width="0" opacity="1" stroke-linejoin="round" class="highcharts-point highcharts-color-6"></path></g><g class="highcharts-markers highcharts-series-0 highcharts-pie-series" data-z-index="0.1" opacity="1" transform="translate(10,55) scale(1 1)" clip-path="none"></g></g><text x="10" text-anchor="start" class="highcharts-caption" data-z-index="4" style="font-size: 0.8em; fill: rgb(102, 102, 102);" text-align="left" y="357" transform-origin="10 15" transform="translate(0,0) scale(1 1)"></text><g class="highcharts-legend highcharts-no-tooltip" data-z-index="7" text-align="right" transform="translate(448,95)" style="visibility: inherit;"><rect fill="none" class="highcharts-legend-box" rx="0" ry="0" stroke="#999999" stroke-width="0" filter="none" x="0" y="0" width="142" height="165"></rect><g data-z-index="1"><g><g class="highcharts-legend-item highcharts-pie-series highcharts-color-0" data-z-index="1" transform="translate(8,3)"><rect x="2" y="6" rx="0" ry="0" width="12" height="12" fill="#B00000" class="highcharts-point" data-z-index="3"></rect></g><g class="highcharts-legend-item highcharts-pie-series highcharts-color-1" data-z-index="1" transform="translate(8,25)"><rect x="2" y="6" rx="0" ry="0" width="12" height="12" fill="#FF8028" class="highcharts-point" data-z-index="3"></rect></g><g class="highcharts-legend-item highcharts-pie-series highcharts-color-2" data-z-index="1" transform="translate(8,47)"><rect x="2" y="6" rx="0" ry="0" width="12" height="12" fill="#FABD24" class="highcharts-point" data-z-index="3"></rect></g><g class="highcharts-legend-item highcharts-pie-series highcharts-color-3" data-z-index="1" transform="translate(8,69)"><rect x="2" y="6" rx="0" ry="0" width="12" height="12" fill="#E6E600" class="highcharts-point" data-z-index="3"></rect></g><g class="highcharts-legend-item highcharts-pie-series highcharts-color-4" data-z-index="1" transform="translate(8,91)"><rect x="2" y="6" rx="0" ry="0" width="12" height="12" fill="#8AB77D" class="highcharts-point" data-z-index="3"></rect></g><g class="highcharts-legend-item highcharts-pie-series highcharts-color-5" data-z-index="1" transform="translate(8,113)"><rect x="2" y="6" rx="0" ry="0" width="12" height="12" fill="#68AB2B" class="highcharts-point" data-z-index="3"></rect></g><g class="highcharts-legend-item highcharts-pie-series highcharts-color-6" data-z-index="1" transform="translate(8,135)"><rect x="2" y="6" rx="0" ry="0" width="12" height="12" fill="#007A2F" class="highcharts-point" data-z-index="3"></rect></g></g></g></g></svg>