<?xml version="1.0" standalone="no"?><!DOCTYPE svg PUBLIC "-//W3C//DTD SVG 1.1//EN" "http://www.w3.org/Graphics/SVG/1.1/DTD/svg11.dtd"><svg xmlns:xlink="http://www.w3.org/1999/xlink" version="1.1" class="highcharts-root" style="font-family:Arial;font-size:12px;" xmlns="http://www.w3.org/2000/svg" viewBox="0 0 485 415"><desc>Created with Highcharts 8.0.4</desc><defs><clipPath id="highcharts-0wws2i5-78-"><rect x="0" y="0" width="426" height="198" fill="none"></rect></clipPath><clipPath id="highcharts-0wws2i5-88-"><rect x="0" y="0" width="426" height="198" fill="none"></rect></clipPath></defs><rect fill="#fbfbfb" class="highcharts-background" x="0" y="0" width="485" height="428" rx="0" ry="0"></rect><rect fill="none" class="highcharts-plot-background" x="49" y="154" width="426" height="198"></rect><g class="highcharts-pane-group" data-z-index="0"></g><g class="highcharts-grid highcharts-xaxis-grid" data-z-index="1"><path fill="none" data-z-index="1" class="highcharts-grid-line" d="M 52.5 154 L 52.5 352" opacity="1"></path><path fill="none" data-z-index="1" class="highcharts-grid-line" d="M 104.5 154 L 104.5 352" opacity="1"></path><path fill="none" data-z-index="1" class="highcharts-grid-line" d="M 157.5 154 L 157.5 352" opacity="1"></path><path fill="none" data-z-index="1" class="highcharts-grid-line" d="M 209.5 154 L 209.5 352" opacity="1"></path><path fill="none" data-z-index="1" class="highcharts-grid-line" d="M 261.5 154 L 261.5 352" opacity="1"></path><path fill="none" data-z-index="1" class="highcharts-grid-line" d="M 313.5 154 L 313.5 352" opacity="1"></path><path fill="none" data-z-index="1" class="highcharts-grid-line" d="M 365.5 154 L 365.5 352" opacity="1"></path><path fill="none" data-z-index="1" class="highcharts-grid-line" d="M 418.5 154 L 418.5 352" opacity="1"></path><path fill="none" data-z-index="1" class="highcharts-grid-line" d="M 470.5 154 L 470.5 352" opacity="1"></path></g><g class="highcharts-grid highcharts-yaxis-grid" data-z-index="1"><path fill="none" stroke="#B9CFD7" stroke-width="0.5" data-z-index="1" class="highcharts-grid-line" d="M 49 352.25 L 475 352.25" opacity="1"></path><path fill="none" stroke="#B9CFD7" stroke-width="0.5" data-z-index="1" class="highcharts-grid-line" d="M 49 286.25 L 475 286.25" opacity="1"></path><path fill="none" stroke="#B9CFD7" stroke-width="0.5" data-z-index="1" class="highcharts-grid-line" d="M 49 220.25 L 475 220.25" opacity="1"></path><path fill="none" stroke="#B9CFD7" stroke-width="0.5" data-z-index="1" class="highcharts-grid-line" d="M 49 153.75 L 475 153.75" opacity="1"></path></g><rect fill="none" class="highcharts-plot-border" data-z-index="1" x="49" y="154" width="426" height="198"></rect><g class="highcharts-axis highcharts-xaxis" data-z-index="2"><path fill="none" class="highcharts-axis-line" stroke="#B9CFD7" stroke-width="0.5" data-z-index="7" d="M 49 352.25 L 475 352.25"></path></g><g class="highcharts-axis highcharts-yaxis" data-z-index="2"><path fill="none" class="highcharts-axis-line" data-z-index="7" d="M 49 154 L 49 352"></path></g><g class="highcharts-series-group" data-z-index="3"><g data-z-index="0.1" class="highcharts-series highcharts-series-0 highcharts-line-series" transform="translate(49,154) scale(1 1)" clip-path="url(#highcharts-0wws2i5-88-)"><path fill="none" d="M 4.1764705882316 71.01599999999999 L 56.382352941174 70.224 L 108.58823529412 74.184 L 160.79411764706 76.55999999999999 L 213 75.24 L 265.20588235294 74.44800000000001 L 317.41176470588 66.52799999999999 L 369.61764705883 61.24799999999999 L 421.82352941177 67.32" class="highcharts-graph" data-z-index="1" stroke="#b00000" stroke-width="2" stroke-linejoin="round" stroke-linecap="round"></path></g><g data-z-index="0.1" class="highcharts-markers highcharts-series-0 highcharts-line-series" transform="translate(49,154) scale(1 1)" clip-path="none"></g><g data-z-index="0.1" class="highcharts-series highcharts-series-1 highcharts-line-series" transform="translate(49,154) scale(1 1)" clip-path="url(#highcharts-0wws2i5-88-)"><path fill="none" d="M 4.1764705882316 13.728000000000009 L 56.382352941174 19.799999999999983 L 108.58823529412 24.023999999999972 L 160.79411764706 28.24799999999999 L 213 52.00800000000001 L 265.20588235294 50.68799999999999 L 317.41176470588 46.464 L 369.61764705883 16.631999999999977 L 421.82352941177 23.75999999999999" class="highcharts-graph" data-z-index="1" stroke="#672773" stroke-width="2" stroke-linejoin="round" stroke-linecap="round"></path></g><g data-z-index="0.1" class="highcharts-markers highcharts-series-1 highcharts-line-series" transform="translate(49,154) scale(1 1)" clip-path="none"></g><g data-z-index="0.1" class="highcharts-series highcharts-series-2 highcharts-line-series" transform="translate(49,154) scale(1 1)" clip-path="url(#highcharts-0wws2i5-88-)"><path fill="none" d="M 4.1764705882316 138.6 L 56.382352941174 155.76 L 108.58823529412 165 L 160.79411764706 169.488 L 213 148.896 L 265.20588235294 144.144 L 317.41176470588 126.192 L 369.61764705883 136.752 L 421.82352941177 139.656" class="highcharts-graph" data-z-index="1" stroke="#007a2f" stroke-width="2" stroke-linejoin="round" stroke-linecap="round"></path></g><g data-z-index="0.1" class="highcharts-markers highcharts-series-2 highcharts-line-series" transform="translate(49,154) scale(1 1)" clip-path="none"></g><g data-z-index="0.1" class="highcharts-series highcharts-series-3 highcharts-line-series" transform="translate(49,154) scale(1 1)" clip-path="url(#highcharts-0wws2i5-88-)"><path fill="none" d="M 4.1764705882316 162.36 L 56.382352941174 173.184 L 108.58823529412 172.392 L 160.79411764706 174.768 L 213 167.64 L 265.20588235294 167.904 L 317.41176470588 162.888 L 369.61764705883 173.448 L 421.82352941177 174.768" class="highcharts-graph" data-z-index="1" stroke="#fabd24" stroke-width="2" stroke-linejoin="round" stroke-linecap="round"></path></g><g data-z-index="0.1" class="highcharts-markers highcharts-series-3 highcharts-line-series" transform="translate(49,154) scale(1 1)" clip-path="none"></g><g data-z-index="0.1" class="highcharts-series highcharts-series-4 highcharts-line-series" transform="translate(49,154) scale(1 1)" clip-path="url(#highcharts-0wws2i5-88-)"><path fill="none" d="M 4.1764705882316 114.83999999999999 L 56.382352941174 117.216 L 108.58823529412 115.104 L 160.79411764706 129.88799999999998 L 213 117.216 L 265.20588235294 146.784 L 317.41176470588 123.024 L 369.61764705883 113.52 L 421.82352941177 124.872" class="highcharts-graph" data-z-index="1" stroke="#b475ab" stroke-width="2" stroke-linejoin="round" stroke-linecap="round"></path></g><g data-z-index="0.1" class="highcharts-markers highcharts-series-4 highcharts-line-series" transform="translate(49,154) scale(1 1)" clip-path="none"></g><g data-z-index="0.1" class="highcharts-series highcharts-series-5 highcharts-line-series" transform="translate(49,154) scale(1 1)" clip-path="url(#highcharts-0wws2i5-88-)"><path fill="none" d="M 4.1764705882316 54.120000000000005 L 56.382352941174 92.39999999999999 L 108.58823529412 151.536 L 160.79411764706 105.6 L 213 90.024 L 265.20588235294 102.96 L 317.41176470588 99 L 369.61764705883 86.856 L 421.82352941177 99" class="highcharts-graph" data-z-index="1" stroke="#71a3b5" stroke-width="2" stroke-linejoin="round" stroke-linecap="round"></path></g><g data-z-index="0.1" class="highcharts-markers highcharts-series-5 highcharts-line-series" transform="translate(49,154) scale(1 1)" clip-path="none"></g><g data-z-index="0.1" class="highcharts-series highcharts-series-6 highcharts-line-series" transform="translate(49,154) scale(1 1)" clip-path="url(#highcharts-0wws2i5-88-)"><path fill="none" d="M 4.1764705882316 163.944 L 56.382352941174 161.832 L 108.58823529412 174.504 L 160.79411764706 163.944 L 213 163.68 L 265.20588235294 166.32 L 317.41176470588 159.72 L 369.61764705883 152.856 L 421.82352941177 166.584" class="highcharts-graph" data-z-index="1" stroke="#b9cfd7" stroke-width="2" stroke-linejoin="round" stroke-linecap="round"></path></g><g data-z-index="0.1" class="highcharts-markers highcharts-series-6 highcharts-line-series" transform="translate(49,154) scale(1 1)" clip-path="none"></g><g data-z-index="0.1" class="highcharts-series highcharts-series-7 highcharts-line-series" transform="translate(49,154) scale(1 1)" clip-path="url(#highcharts-0wws2i5-88-)"><path fill="none" d="M 4.1764705882316 124.60799999999999 L 56.382352941174 133.584 L 108.58823529412 143.088 L 160.79411764706 134.64 L 213 119.856 L 265.20588235294 124.872 L 317.41176470588 125.928 L 369.61764705883 110.08800000000001 L 421.82352941177 127.776" class="highcharts-graph" data-z-index="1" stroke="#999999" stroke-width="2" stroke-linejoin="round" stroke-linecap="round"></path></g><g data-z-index="0.1" class="highcharts-markers highcharts-series-7 highcharts-line-series" transform="translate(49,154) scale(1 1)" clip-path="none"></g></g><text x="10" text-anchor="start" class="highcharts-title" data-z-index="4" style="color:#000000;font-size:14px;font-weight:bold;fill:#000000;" y="21"><tspan>Gymnasialquote nach Staatsangehörigkeit</tspan></text><text x="10" text-anchor="start" class="highcharts-subtitle" data-z-index="4" style="color:#000000;font-size:12px;font-weight:normal;font-family:Arial;fill:#000000;" y="40"><tspan>Basel-Stadt</tspan></text><text x="10" text-anchor="start" class="highcharts-caption" data-z-index="4" style="color:#666666;fill:#666666;" y="385"></text><g class="highcharts-legend" data-z-index="7" transform="translate(41,55)"><rect fill="none" class="highcharts-legend-box" rx="0" ry="0" x="0" y="0" width="276" height="87" visibility="visible"></rect><g data-z-index="1"><g><g class="highcharts-legend-item highcharts-line-series highcharts-color-undefined highcharts-series-0" data-z-index="1" transform="translate(8,3)"><path fill="none" d="M 0 11 L 16 11" class="highcharts-graph" stroke="#b00000" stroke-width="2"></path><text x="21" style="color:#333333;cursor:pointer;font-size:12px;font-weight:normal;fill:#333333;" text-anchor="start" data-z-index="2" y="15"><tspan>Schweiz</tspan></text></g><g class="highcharts-legend-item highcharts-line-series highcharts-color-undefined highcharts-series-1" data-z-index="1" transform="translate(148,3)"><path fill="none" d="M 0 11 L 16 11" class="highcharts-graph" stroke="#672773" stroke-width="2"></path><text x="21" y="15" style="color:#333333;cursor:pointer;font-size:12px;font-weight:normal;fill:#333333;" text-anchor="start" data-z-index="2"><tspan>Deutschland</tspan></text></g><g class="highcharts-legend-item highcharts-line-series highcharts-color-undefined highcharts-series-2" data-z-index="1" transform="translate(8,22)"><path fill="none" d="M 0 11 L 16 11" class="highcharts-graph" stroke="#007a2f" stroke-width="2"></path><text x="21" y="15" style="color:#333333;cursor:pointer;font-size:12px;font-weight:normal;fill:#333333;" text-anchor="start" data-z-index="2"><tspan>Italien</tspan></text></g><g class="highcharts-legend-item highcharts-line-series highcharts-color-undefined highcharts-series-3" data-z-index="1" transform="translate(148,22)"><path fill="none" d="M 0 11 L 16 11" class="highcharts-graph" stroke="#fabd24" stroke-width="2"></path><text x="21" y="15" style="color:#333333;cursor:pointer;font-size:12px;font-weight:normal;fill:#333333;" text-anchor="start" data-z-index="2"><tspan>Türkei</tspan></text></g><g class="highcharts-legend-item highcharts-line-series highcharts-color-undefined highcharts-series-4" data-z-index="1" transform="translate(8,41)"><path fill="none" d="M 0 11 L 16 11" class="highcharts-graph" stroke="#b475ab" stroke-width="2"></path><text x="21" y="15" style="color:#333333;cursor:pointer;font-size:12px;font-weight:normal;fill:#333333;" text-anchor="start" data-z-index="2"><tspan>EU-17 + EFTA</tspan><title>EU-17 + EFTA</title></text></g><g class="highcharts-legend-item highcharts-line-series highcharts-color-undefined highcharts-series-5" data-z-index="1" transform="translate(148,41)"><path fill="none" d="M 0 11 L 16 11" class="highcharts-graph" stroke="#71a3b5" stroke-width="2"></path><text x="21" y="15" style="color:#333333;cursor:pointer;font-size:12px;font-weight:normal;fill:#333333;" text-anchor="start" data-z-index="2"><tspan>EU-Ost</tspan></text></g><g class="highcharts-legend-item highcharts-line-series highcharts-color-undefined highcharts-series-6" data-z-index="1" transform="translate(8,60)"><path fill="none" d="M 0 11 L 16 11" class="highcharts-graph" stroke="#b9cfd7" stroke-width="2"></path><text x="21" y="15" style="color:#333333;cursor:pointer;font-size:12px;font-weight:normal;fill:#333333;" text-anchor="start" data-z-index="2"><tspan>Balkan</tspan></text></g><g class="highcharts-legend-item highcharts-line-series highcharts-color-undefined highcharts-series-7" data-z-index="1" transform="translate(148,60)"><path fill="none" d="M 0 11 L 16 11" class="highcharts-graph" stroke="#999999" stroke-width="2"></path><text x="21" y="15" style="color:#333333;cursor:pointer;font-size:12px;font-weight:normal;fill:#333333;" text-anchor="start" data-z-index="2"><tspan>Übrige Länder</tspan><title>Übrige Länder</title></text></g></g></g></g><g class="highcharts-axis-labels highcharts-xaxis-labels" data-z-index="7"><text x="53.176470588232" style="color:#000000;cursor:default;font-size:11px;fill:#000000;" text-anchor="middle" transform="translate(0,0)" y="371" opacity="1">2010</text><text x="105.38235294117" style="color:#000000;cursor:default;font-size:11px;fill:#000000;" text-anchor="middle" transform="translate(0,0)" y="371" opacity="1">2011</text><text x="157.58823529412" style="color:#000000;cursor:default;font-size:11px;fill:#000000;" text-anchor="middle" transform="translate(0,0)" y="371" opacity="1">2012</text><text x="209.79411764706" style="color:#000000;cursor:default;font-size:11px;fill:#000000;" text-anchor="middle" transform="translate(0,0)" y="371" opacity="1">2013</text><text x="262" style="color:#000000;cursor:default;font-size:11px;fill:#000000;" text-anchor="middle" transform="translate(0,0)" y="371" opacity="1">2014</text><text x="314.20588235294" style="color:#000000;cursor:default;font-size:11px;fill:#000000;" text-anchor="middle" transform="translate(0,0)" y="371" opacity="1">2015</text><text x="366.41176470588" style="color:#000000;cursor:default;font-size:11px;fill:#000000;" text-anchor="middle" transform="translate(0,0)" y="371" opacity="1">2016</text><text x="418.61764705883" style="color:#000000;cursor:default;font-size:11px;fill:#000000;" text-anchor="middle" transform="translate(0,0)" y="371" opacity="1">2017</text><text x="461.03125" style="color:#000000;cursor:default;font-size:11px;fill:#000000;" text-anchor="middle" transform="translate(0,0)" y="371" opacity="1">2018</text></g><g class="highcharts-axis-labels highcharts-yaxis-labels" data-z-index="7"><text x="34" style="color:#000000;cursor:default;font-size:11px;fill:#000000;" text-anchor="end" transform="translate(0,0)" y="357" opacity="1">0%</text><text x="34" style="color:#000000;cursor:default;font-size:11px;fill:#000000;" text-anchor="end" transform="translate(0,0)" y="291" opacity="1">25%</text><text x="34" style="color:#000000;cursor:default;font-size:11px;fill:#000000;" text-anchor="end" transform="translate(0,0)" y="225" opacity="1">50%</text><text x="34" style="color:#000000;cursor:default;font-size:11px;fill:#000000;" text-anchor="end" transform="translate(0,0)" y="159" opacity="1">75%</text></g><text x="10" class="highcharts-credits" text-anchor="start" data-z-index="8" style="cursor:default;color:#000000;font-size:10px;fill:#000000;" y="403"><tspan>Quelle: Statistisches Amt Basel-Stadt, Bildungsstatistik.</tspan><tspan x="10" dy="13">Zuletzt geändert: 2019-11-19</tspan></text></svg>