<?xml version="1.0" standalone="no"?><!DOCTYPE svg PUBLIC "-//W3C//DTD SVG 1.1//EN" "http://www.w3.org/Graphics/SVG/1.1/DTD/svg11.dtd"><svg xmlns:xlink="http://www.w3.org/1999/xlink" version="1.1" class="highcharts-root" style="font-family:Arial;font-size:12px;" xmlns="http://www.w3.org/2000/svg" viewBox="0 0 485 415"><desc>Created with Highcharts 8.1.2</desc><defs><clipPath id="highcharts-vbftcab-40-"><rect x="0" y="0" width="219" height="317" fill="none"></rect></clipPath><clipPath id="highcharts-vbftcab-52-"><rect x="0" y="0" width="219" height="317" fill="none"></rect></clipPath><clipPath id="highcharts-vbftcab-75-"><rect x="158" y="148" width="317" height="219" fill="none"></rect></clipPath></defs><rect fill="#fbfbfb" class="highcharts-background" x="0" y="0" width="485" height="428" rx="0" ry="0"></rect><rect fill="none" class="highcharts-plot-background" x="158" y="148" width="317" height="219"></rect><g class="highcharts-pane-group" data-z-index="0"></g><g class="highcharts-grid highcharts-xaxis-grid" data-z-index="1"><path fill="none" data-z-index="1" class="highcharts-grid-line" d="M 158 168.5 L 475 168.5" opacity="1"></path><path fill="none" data-z-index="1" class="highcharts-grid-line" d="M 158 188.5 L 475 188.5" opacity="1"></path><path fill="none" data-z-index="1" class="highcharts-grid-line" d="M 158 208.5 L 475 208.5" opacity="1"></path><path fill="none" data-z-index="1" class="highcharts-grid-line" d="M 158 228.5 L 475 228.5" opacity="1"></path><path fill="none" data-z-index="1" class="highcharts-grid-line" d="M 158 248.5 L 475 248.5" opacity="1"></path><path fill="none" data-z-index="1" class="highcharts-grid-line" d="M 158 267.5 L 475 267.5" opacity="1"></path><path fill="none" data-z-index="1" class="highcharts-grid-line" d="M 158 287.5 L 475 287.5" opacity="1"></path><path fill="none" data-z-index="1" class="highcharts-grid-line" d="M 158 307.5 L 475 307.5" opacity="1"></path><path fill="none" data-z-index="1" class="highcharts-grid-line" d="M 158 327.5 L 475 327.5" opacity="1"></path><path fill="none" data-z-index="1" class="highcharts-grid-line" d="M 158 347.5 L 475 347.5" opacity="1"></path><path fill="none" data-z-index="1" class="highcharts-grid-line" d="M 158 367.5 L 475 367.5" opacity="1"></path><path fill="none" data-z-index="1" class="highcharts-grid-line" d="M 158 148.5 L 475 148.5" opacity="1"></path></g><g class="highcharts-grid highcharts-yaxis-grid" data-z-index="1"><path fill="none" stroke="#B9CFD7" stroke-width="0.5" data-z-index="1" class="highcharts-grid-line" d="M 157.75 148 L 157.75 367" opacity="1"></path><path fill="none" stroke="#B9CFD7" stroke-width="0.5" data-z-index="1" class="highcharts-grid-line" d="M 220.75 148 L 220.75 367" opacity="1"></path><path fill="none" stroke="#B9CFD7" stroke-width="0.5" data-z-index="1" class="highcharts-grid-line" d="M 284.75 148 L 284.75 367" opacity="1"></path><path fill="none" stroke="#B9CFD7" stroke-width="0.5" data-z-index="1" class="highcharts-grid-line" d="M 347.75 148 L 347.75 367" opacity="1"></path><path fill="none" stroke="#B9CFD7" stroke-width="0.5" data-z-index="1" class="highcharts-grid-line" d="M 411.75 148 L 411.75 367" opacity="1"></path><path fill="none" stroke="#B9CFD7" stroke-width="0.5" data-z-index="1" class="highcharts-grid-line" d="M 475.25 148 L 475.25 367" opacity="1"></path></g><rect fill="none" class="highcharts-plot-border" data-z-index="1" x="158" y="148" width="317" height="219"></rect><g class="highcharts-axis highcharts-xaxis" data-z-index="2"><path fill="none" class="highcharts-axis-line" stroke="#B9CFD7" stroke-width="0.5" data-z-index="7" d="M 157.75 148 L 157.75 367"></path></g><g class="highcharts-axis highcharts-yaxis" data-z-index="2"><path fill="none" class="highcharts-axis-line" data-z-index="7" d="M 158 367 L 475 367"></path></g><g class="highcharts-series-group" data-z-index="3"><g class="highcharts-series highcharts-series-0 highcharts-column-series" data-z-index="0.1" opacity="1" transform="translate(475,367) rotate(90) scale(-1,1) scale(1 1)" clip-path="url(#highcharts-vbftcab-52-)"><rect x="204" y="0" width="10" height="116" fill="rgb(231,207,226)" opacity="1" class="highcharts-point"></rect><rect x="184" y="0" width="10" height="224" fill="rgb(231,207,226)" opacity="1" class="highcharts-point"></rect><rect x="164" y="0" width="10" height="86" fill="rgb(231,207,226)" opacity="1" class="highcharts-point"></rect><rect x="145" y="0" width="10" height="45" fill="rgb(231,207,226)" opacity="1" class="highcharts-point"></rect><rect x="125" y="0" width="10" height="167" fill="rgb(231,207,226)" opacity="1" class="highcharts-point"></rect><rect x="105" y="0" width="10" height="185" fill="rgb(231,207,226)" opacity="1" class="highcharts-point"></rect><rect x="85" y="0" width="10" height="43" fill="rgb(231,207,226)" opacity="1" class="highcharts-point"></rect><rect x="65" y="0" width="10" height="134" fill="rgb(231,207,226)" opacity="1" class="highcharts-point"></rect><rect x="45" y="0" width="10" height="102" fill="rgb(231,207,226)" opacity="1" class="highcharts-point"></rect><rect x="25" y="0" width="10" height="66" fill="rgb(231,207,226)" opacity="1" class="highcharts-point"></rect><rect x="5" y="0" width="10" height="197" fill="rgb(231,207,226)" opacity="1" class="highcharts-point"></rect></g><g class="highcharts-markers highcharts-series-0 highcharts-column-series" data-z-index="0.1" opacity="1" transform="translate(475,367) rotate(90) scale(-1,1) scale(1 1)" clip-path="none"></g><g class="highcharts-series highcharts-series-1 highcharts-column-series" data-z-index="0.1" opacity="1" transform="translate(475,367) rotate(90) scale(-1,1) scale(1 1)" clip-path="url(#highcharts-vbftcab-52-)"><rect x="204" y="116" width="10" height="144" fill="rgb(180,117,171)" opacity="1" class="highcharts-point"></rect><rect x="184" y="224" width="10" height="77" fill="rgb(180,117,171)" opacity="1" class="highcharts-point"></rect><rect x="164" y="86" width="10" height="98" fill="rgb(180,117,171)" opacity="1" class="highcharts-point"></rect><rect x="145" y="45" width="10" height="59" fill="rgb(180,117,171)" opacity="1" class="highcharts-point"></rect><rect x="125" y="167" width="10" height="58" fill="rgb(180,117,171)" opacity="1" class="highcharts-point"></rect><rect x="105" y="185" width="10" height="96" fill="rgb(180,117,171)" opacity="1" class="highcharts-point"></rect><rect x="85" y="43" width="10" height="111" fill="rgb(180,117,171)" opacity="1" class="highcharts-point"></rect><rect x="65" y="134" width="10" height="83" fill="rgb(180,117,171)" opacity="1" class="highcharts-point"></rect><rect x="45" y="102" width="10" height="83" fill="rgb(180,117,171)" opacity="1" class="highcharts-point"></rect><rect x="25" y="66" width="10" height="68" fill="rgb(180,117,171)" opacity="1" class="highcharts-point"></rect><rect x="5" y="197" width="10" height="43" fill="rgb(180,117,171)" opacity="1" class="highcharts-point"></rect></g><g class="highcharts-markers highcharts-series-1 highcharts-column-series" data-z-index="0.1" opacity="1" transform="translate(475,367) rotate(90) scale(-1,1) scale(1 1)" clip-path="none"></g><g class="highcharts-series highcharts-series-2 highcharts-column-series" data-z-index="0.1" opacity="1" transform="translate(475,367) rotate(90) scale(-1,1) scale(1 1)" clip-path="url(#highcharts-vbftcab-52-)"><rect x="204" y="260" width="10" height="58" fill="rgb(103,39,115)" opacity="1" class="highcharts-point"></rect><rect x="184" y="301" width="10" height="17" fill="rgb(103,39,115)" opacity="1" class="highcharts-point"></rect><rect x="164" y="184" width="10" height="134" fill="rgb(103,39,115)" opacity="1" class="highcharts-point"></rect><rect x="145" y="104" width="10" height="214" fill="rgb(103,39,115)" opacity="1" class="highcharts-point"></rect><rect x="125" y="225" width="10" height="93" fill="rgb(103,39,115)" opacity="1" class="highcharts-point"></rect><rect x="105" y="281" width="10" height="37" fill="rgb(103,39,115)" opacity="1" class="highcharts-point"></rect><rect x="85" y="154" width="10" height="164" fill="rgb(103,39,115)" opacity="1" class="highcharts-point"></rect><rect x="65" y="217" width="10" height="101" fill="rgb(103,39,115)" opacity="1" class="highcharts-point"></rect><rect x="45" y="185" width="10" height="133" fill="rgb(103,39,115)" opacity="1" class="highcharts-point"></rect><rect x="25" y="134" width="10" height="184" fill="rgb(103,39,115)" opacity="1" class="highcharts-point"></rect><rect x="5" y="240" width="10" height="78" fill="rgb(103,39,115)" opacity="1" class="highcharts-point"></rect></g><g class="highcharts-markers highcharts-series-2 highcharts-column-series" data-z-index="0.1" opacity="1" transform="translate(475,367) rotate(90) scale(-1,1) scale(1 1)" clip-path="none"></g></g><text x="10" text-anchor="start" class="highcharts-title" data-z-index="4" style="color:#000000;font-size:14px;font-weight:bold;fill:#000000;" y="21"><tspan>Bevölkerung nach höchster abgeschlossener</tspan><tspan dy="17" x="10">Ausbildung</tspan></text><text x="10" text-anchor="start" class="highcharts-subtitle" data-z-index="4" style="color:#000000;font-size:12px;fill:#000000;" y="57"><tspan>Personen ab 15 Jahren nach Staatsangehörigkeit, Basel-Stadt,</tspan><tspan dy="15" x="0">gepoolte&amp;nbsp;Daten 2014 bis 2018</tspan></text><text x="10" text-anchor="start" class="highcharts-caption" data-z-index="4" style="color:#666666;fill:#666666;" y="400"></text><g class="highcharts-legend" data-z-index="7" transform="translate(150,87)"><rect fill="none" class="highcharts-legend-box" rx="0" ry="0" x="0" y="0" width="267" height="49" visibility="visible"></rect><g data-z-index="1"><g><g class="highcharts-legend-item highcharts-column-series highcharts-color-undefined highcharts-series-2" data-z-index="1" transform="translate(8,3)"><text x="21" style="color:#333333;cursor:pointer;font-size:12px;font-weight:normal;fill:#333333;" text-anchor="start" data-z-index="2" y="15"><tspan>Sekundarstufe I</tspan></text><rect x="2" y="4" width="12" height="12" fill="rgb(103,39,115)" class="highcharts-point" data-z-index="3"></rect></g><g class="highcharts-legend-item highcharts-column-series highcharts-color-undefined highcharts-series-1" data-z-index="1" transform="translate(136.0625,3)"><text x="21" y="15" style="color:#333333;cursor:pointer;font-size:12px;font-weight:normal;fill:#333333;" text-anchor="start" data-z-index="2"><tspan>Sekundarstufe II</tspan></text><rect x="2" y="4" width="12" height="12" fill="rgb(180,117,171)" class="highcharts-point" data-z-index="3"></rect></g><g class="highcharts-legend-item highcharts-column-series highcharts-color-undefined highcharts-series-0" data-z-index="1" transform="translate(8,22)"><text x="21" y="15" style="color:#333333;cursor:pointer;font-size:12px;font-weight:normal;fill:#333333;" text-anchor="start" data-z-index="2"><tspan>Tertiärstufe</tspan></text><rect x="2" y="4" width="12" height="12" fill="rgb(231,207,226)" class="highcharts-point" data-z-index="3"></rect></g></g></g></g><g class="highcharts-axis-labels highcharts-xaxis-labels" data-z-index="7"><text x="143" style="color:#000000;cursor:default;font-size:11px;white-space:nowrap;fill:#000000;" text-anchor="end" transform="translate(0,0)" y="162" opacity="1"><tspan>Schweiz</tspan></text><text x="143" style="color:#000000;cursor:default;font-size:11px;white-space:nowrap;fill:#000000;" text-anchor="end" transform="translate(0,0)" y="182" opacity="1"><tspan>Deutschland</tspan></text><text x="143" style="color:#000000;cursor:default;font-size:11px;white-space:nowrap;fill:#000000;" text-anchor="end" transform="translate(0,0)" y="202" opacity="1"><tspan>Italien</tspan></text><text x="143" style="color:#000000;cursor:default;font-size:11px;white-space:nowrap;fill:#000000;" text-anchor="end" transform="translate(0,0)" y="222" opacity="1"><tspan>Türkei</tspan></text><text x="143" style="color:#000000;cursor:default;font-size:11px;white-space:nowrap;fill:#000000;" text-anchor="end" transform="translate(0,0)" y="242" opacity="1"><tspan>EU-17 + EFTA</tspan></text><text x="143" style="color:#000000;cursor:default;font-size:11px;white-space:nowrap;fill:#000000;" text-anchor="end" transform="translate(0,0)" y="262" opacity="1"><tspan>EU-Ost</tspan></text><text x="143" style="color:#000000;cursor:default;font-size:11px;white-space:nowrap;fill:#000000;" text-anchor="end" transform="translate(0,0)" y="282" opacity="1"><tspan>Balkan</tspan></text><text x="143" style="color:#000000;cursor:default;font-size:11px;white-space:nowrap;fill:#000000;" text-anchor="end" transform="translate(0,0)" y="302" opacity="1"><tspan>Mittel- und Südamerika</tspan></text><text x="143" style="color:#000000;cursor:default;font-size:11px;white-space:nowrap;fill:#000000;" text-anchor="end" transform="translate(0,0)" y="322" opacity="1"><tspan>Arabische Länder</tspan></text><text x="143" style="color:#000000;cursor:default;font-size:11px;white-space:nowrap;fill:#000000;" text-anchor="end" transform="translate(0,0)" y="342" opacity="1"><tspan>Afrikanische Länder</tspan></text><text x="143" style="color:#000000;cursor:default;font-size:11px;white-space:nowrap;fill:#000000;" text-anchor="end" transform="translate(0,0)" y="362" opacity="1"><tspan>Übrige Länder</tspan></text></g><g class="highcharts-axis-labels highcharts-yaxis-labels" data-z-index="7"><text x="158" style="color:#000000;cursor:default;font-size:11px;white-space:nowrap;fill:#000000;" text-anchor="middle" transform="translate(0,0)" y="386" opacity="1">0%</text><text x="221.4" style="color:#000000;cursor:default;font-size:11px;white-space:nowrap;fill:#000000;" text-anchor="middle" transform="translate(0,0)" y="386" opacity="1">20%</text><text x="284.8" style="color:#000000;cursor:default;font-size:11px;white-space:nowrap;fill:#000000;" text-anchor="middle" transform="translate(0,0)" y="386" opacity="1">40%</text><text x="348.2" style="color:#000000;cursor:default;font-size:11px;white-space:nowrap;fill:#000000;" text-anchor="middle" transform="translate(0,0)" y="386" opacity="1">60%</text><text x="411.6" style="color:#000000;cursor:default;font-size:11px;white-space:nowrap;fill:#000000;" text-anchor="middle" transform="translate(0,0)" y="386" opacity="1">80%</text><text x="459.3046875" style="color:#000000;cursor:default;font-size:11px;white-space:nowrap;fill:#000000;" text-anchor="middle" transform="translate(0,0)" y="386" opacity="1">100%</text></g><text x="10" class="highcharts-credits" text-anchor="start" data-z-index="8" style="cursor:default;color:#000000;font-size:10px;fill:#000000;" y="403"><tspan>Quelle: Bundesamt für Statistik (BFS), Strukturerhebung (SE).</tspan><tspan x="10" dy="13">Zuletzt geändert: 2020-4-27</tspan></text><g class="highcharts-control-points" data-z-index="99" clip-path="url(#highcharts-vbftcab-75-)"></g></svg>