<?xml version="1.0" standalone="no"?>
<!DOCTYPE svg PUBLIC "-//W3C//DTD SVG 1.1//EN" "http://www.w3.org/Graphics/SVG/1.1/DTD/svg11.dtd">
<svg xmlns:xlink="http://www.w3.org/1999/xlink" version="1.1" class="highcharts-root" style="font-family:arial;font-size:12px;" xmlns="http://www.w3.org/2000/svg" viewBox="0 0 485 415">
  <desc>
    Created with Highstock 5.0.14
  </desc>
  <defs>
    <clipPath>
      <rect x="0" y="0" width="425" height="248" fill="none"/>
    </clipPath>
    <clipPath id="a">
      <rect x="0" y="0" width="425" height="248" fill="none"/>
    </clipPath>
  </defs>
  <rect fill="#fbfbfb" class="highcharts-background" x="0" y="0" width="485" height="415" rx="0" ry="0"/>
  <rect fill="none" class="highcharts-plot-background" x="50" y="101" width="425" height="248"/>
  <g class="highcharts-pane-group"/>
  <g class="highcharts-grid highcharts-xaxis-grid ">
    <path fill="none" class="highcharts-grid-line" d="M 53.5 101 L 53.5 349" opacity="1"/>
    <path fill="none" class="highcharts-grid-line" d="M 99.5 101 L 99.5 349" opacity="1"/>
    <path fill="none" class="highcharts-grid-line" d="M 146.5 101 L 146.5 349" opacity="1"/>
    <path fill="none" class="highcharts-grid-line" d="M 192.5 101 L 192.5 349" opacity="1"/>
    <path fill="none" class="highcharts-grid-line" d="M 238.5 101 L 238.5 349" opacity="1"/>
    <path fill="none" class="highcharts-grid-line" d="M 285.5 101 L 285.5 349" opacity="1"/>
    <path fill="none" class="highcharts-grid-line" d="M 331.5 101 L 331.5 349" opacity="1"/>
    <path fill="none" class="highcharts-grid-line" d="M 377.5 101 L 377.5 349" opacity="1"/>
    <path fill="none" class="highcharts-grid-line" d="M 424.5 101 L 424.5 349" opacity="1"/>
    <path fill="none" class="highcharts-grid-line" d="M 470.5 101 L 470.5 349" opacity="1"/>
  </g>
  <g class="highcharts-grid highcharts-yaxis-grid ">
    <path fill="none" stroke="#e6e6e6" stroke-width="1" class="highcharts-grid-line" d="M 50 349.5 L 475 349.5" opacity="1"/>
    <path fill="none" stroke="#e6e6e6" stroke-width="1" class="highcharts-grid-line" d="M 50 287.5 L 475 287.5" opacity="1"/>
    <path fill="none" stroke="#e6e6e6" stroke-width="1" class="highcharts-grid-line" d="M 50 225.5 L 475 225.5" opacity="1"/>
    <path fill="none" stroke="#e6e6e6" stroke-width="1" class="highcharts-grid-line" d="M 50 163.5 L 475 163.5" opacity="1"/>
    <path fill="none" stroke="#e6e6e6" stroke-width="1" class="highcharts-grid-line" d="M 50 100.5 L 475 100.5" opacity="1"/>
  </g>
  <rect fill="none" class="highcharts-plot-border" x="50" y="101" width="425" height="248"/>
  <g class="highcharts-axis highcharts-xaxis ">
    <path fill="none" class="highcharts-axis-line" stroke="#ccd6eb" stroke-width="1" d="M 50 349.5 L 475 349.5"/>
  </g>
  <g class="highcharts-axis highcharts-yaxis ">
    <path fill="none" class="highcharts-axis-line" d="M 50 101 L 50 349"/>
  </g>
  <g class="highcharts-series-group">
    <g class="highcharts-series highcharts-series-0 highcharts-line-series highcharts-color-undefined " transform="translate(50,101) scale(1 1)" clip-path="url(#a)">
      <path fill="none" d="M 4.166666666663 78.74000000000001 L 50.46296296296 35.95999999999998 L 96.759259259257 46.5 L 143.05555555555 79.35999999999999 L 189.35185185185 96.72 L 235.64814814815 70.67999999999998 L 281.94444444445 74.4 L 328.24074074074 81.84 L 374.53703703704 79.97999999999999 L 420.83333333334 76.25999999999999" class="highcharts-graph" stroke="#008AC3 " stroke-width="2" stroke-linejoin="round" stroke-linecap="round"/>
    </g>
    <g class="highcharts-markers highcharts-series-0 highcharts-line-series highcharts-color-undefined " transform="translate(50,101) scale(1 1)" clip-path="none">
      <path fill="#008AC3 " d="M 8 79 A 4 4 0 1 1 7.999998000000167 78.99600000066667 Z" class="highcharts-point"/>
      <path fill="#008AC3 " d="M 54 36 A 4 4 0 1 1 53.99999800000017 35.99600000066666 Z" class="highcharts-point"/>
      <path fill="#008AC3 " d="M 100 47 A 4 4 0 1 1 99.99999800000016 46.99600000066666 Z" class="highcharts-point"/>
      <path fill="#008AC3 " d="M 147 79 A 4 4 0 1 1 146.99999800000018 78.99600000066667 Z" class="highcharts-point"/>
      <path fill="#008AC3 " d="M 193 97 A 4 4 0 1 1 192.99999800000018 96.99600000066667 Z" class="highcharts-point"/>
      <path fill="#008AC3 " d="M 239 71 A 4 4 0 1 1 238.99999800000018 70.99600000066667 Z" class="highcharts-point"/>
      <path fill="#008AC3 " d="M 285 74 A 4 4 0 1 1 284.9999980000002 73.99600000066667 Z" class="highcharts-point"/>
      <path fill="#008AC3 " d="M 332 82 A 4 4 0 1 1 331.9999980000002 81.99600000066667 Z" class="highcharts-point"/>
      <path fill="#008AC3 " d="M 378 80 A 4 4 0 1 1 377.9999980000002 79.99600000066667 Z" class="highcharts-point"/>
      <path fill="#008AC3 " d="M 424 76 A 4 4 0 1 1 423.9999980000002 75.99600000066667 Z" class="highcharts-point"/>
    </g>
    <g class="highcharts-series highcharts-series-1 highcharts-line-series highcharts-color-undefined " transform="translate(50,101) scale(1 1)" clip-path="url(#a)">
      <path fill="none" d="M 4.166666666663 148.8 L 50.46296296296 128.96 L 96.759259259257 131.44 L 143.05555555555 164.92000000000002 L 189.35185185185 169.26 L 235.64814814815 182.27999999999997 L 281.94444444445 133.92000000000002 L 328.24074074074 163.06 L 374.53703703704 146.32 L 420.83333333334 145.07999999999998" class="highcharts-graph" stroke="#B00000" stroke-width="2" stroke-linejoin="round" stroke-linecap="round"/>
    </g>
    <g class="highcharts-markers highcharts-series-1 highcharts-line-series highcharts-color-undefined " transform="translate(50,101) scale(1 1)" clip-path="none">
      <path fill="#B00000" d="M 8 149 A 4 4 0 1 1 7.999998000000167 148.99600000066667 Z" class="highcharts-point"/>
      <path fill="#B00000" d="M 54 129 A 4 4 0 1 1 53.99999800000017 128.99600000066667 Z" class="highcharts-point"/>
      <path fill="#B00000" d="M 100 131 A 4 4 0 1 1 99.99999800000016 130.99600000066667 Z" class="highcharts-point"/>
      <path fill="#B00000" d="M 147 165 A 4 4 0 1 1 146.99999800000018 164.99600000066667 Z" class="highcharts-point"/>
      <path fill="#B00000" d="M 193 169 A 4 4 0 1 1 192.99999800000018 168.99600000066667 Z" class="highcharts-point"/>
      <path fill="#B00000" d="M 239 182 A 4 4 0 1 1 238.99999800000018 181.99600000066667 Z" class="highcharts-point"/>
      <path fill="#B00000" d="M 285 134 A 4 4 0 1 1 284.9999980000002 133.99600000066667 Z" class="highcharts-point"/>
      <path fill="#B00000" d="M 332 163 A 4 4 0 1 1 331.9999980000002 162.99600000066667 Z" class="highcharts-point"/>
      <path fill="#B00000" d="M 378 146 A 4 4 0 1 1 377.9999980000002 145.99600000066667 Z" class="highcharts-point"/>
      <path fill="#B00000" d="M 424 145 A 4 4 0 1 1 423.9999980000002 144.99600000066667 Z" class="highcharts-point"/>
    </g>
  </g>
  <text x="10" text-anchor="start" class="highcharts-title" style="color:#000000;font-size:14px;font-weight:bold;fill:#000000;" y="21">
    <tspan>Anteil Arbeitnehmende in Unternehmensleitung oder</tspan><tspan dy="17" x="10">Vorgesetztenfunktion nach Geschlecht</tspan><title>Anteil Arbeitnehmende in Unternehmensleitung oder Vorgesetztenfunktion nach Geschlecht</title>
  </text>
  <g class="highcharts-legend" transform="translate(42,35)">
    <rect fill="none" class="highcharts-legend-box" rx="0" ry="0" x="0" y="0" width="996" height="54" visibility="visible"/>
    <g>
      <g>
        <g class="highcharts-legend-item highcharts-line-series highcharts-color-undefined highcharts-series-0" transform="translate(8,8)">
          <path fill="none" d="M 0 11 L 16 11" class="highcharts-graph" stroke="#008AC3 " stroke-width="2"/>
          <path fill="#008AC3 " d="M 12 11 A 4 4 0 1 1 11.999998000000167 10.996000000666664 Z" class="highcharts-point"/>
          <text x="21" style="color:#333333;font-size:12px;font-weight:normal;cursor:pointer;fill:#333333;" text-anchor="start" y="15">
            <tspan>Männer</tspan>
          </text>
        </g>
        <g class="highcharts-legend-item highcharts-line-series highcharts-color-undefined highcharts-series-1" transform="translate(8,27)">
          <path fill="none" d="M 0 11 L 16 11" class="highcharts-graph" stroke="#B00000" stroke-width="2"/>
          <path fill="#B00000" d="M 12 11 A 4 4 0 1 1 11.999998000000167 10.996000000666664 Z" class="highcharts-point"/>
          <text x="21" y="15" style="color:#333333;font-size:12px;font-weight:normal;cursor:pointer;fill:#333333;" text-anchor="start">
            <tspan>Frauen</tspan>
          </text>
        </g>
      </g>
    </g>
  </g>
  <g class="highcharts-axis-labels highcharts-xaxis-labels ">
    <text x="54.16666666666295" style="color:#000000;cursor:default;font-size:11px;fill:#000000;" text-anchor="middle" transform="translate(0,0)" y="368" opacity="1">
      2007
    </text>
    <text x="100.46296296296006" style="color:#000000;cursor:default;font-size:11px;fill:#000000;" text-anchor="middle" transform="translate(0,0)" y="368" opacity="1">
      2008
    </text>
    <text x="146.7592592592572" style="color:#000000;cursor:default;font-size:11px;fill:#000000;" text-anchor="middle" transform="translate(0,0)" y="368" opacity="1">
      2009
    </text>
    <text x="193.05555555555432" style="color:#000000;cursor:default;font-size:11px;fill:#000000;" text-anchor="middle" transform="translate(0,0)" y="368" opacity="1">
      2010
    </text>
    <text x="239.35185185185145" style="color:#000000;cursor:default;font-size:11px;fill:#000000;" text-anchor="middle" transform="translate(0,0)" y="368" opacity="1">
      2011
    </text>
    <text x="285.64814814814855" style="color:#000000;cursor:default;font-size:11px;fill:#000000;" text-anchor="middle" transform="translate(0,0)" y="368" opacity="1">
      2012
    </text>
    <text x="331.9444444444457" style="color:#000000;cursor:default;font-size:11px;fill:#000000;" text-anchor="middle" transform="translate(0,0)" y="368" opacity="1">
      2013
    </text>
    <text x="378.2407407407428" style="color:#000000;cursor:default;font-size:11px;fill:#000000;" text-anchor="middle" transform="translate(0,0)" y="368" opacity="1">
      2014
    </text>
    <text x="424.5370370370399" style="color:#000000;cursor:default;font-size:11px;fill:#000000;" text-anchor="middle" transform="translate(0,0)" y="368" opacity="1">
      2015
    </text>
    <text x="462.78125" style="color:#000000;cursor:default;font-size:11px;fill:#000000;" text-anchor="middle" transform="translate(0,0)" y="368" opacity="1">
      2016
    </text>
  </g>
  <g class="highcharts-axis-labels highcharts-yaxis-labels ">
    <text x="35" style="color:#000000;cursor:default;font-size:11px;fill:#000000;" text-anchor="end" transform="translate(0,0)" y="354" opacity="1">
      <tspan>10 %</tspan>
    </text>
    <text x="35" style="color:#000000;cursor:default;font-size:11px;fill:#000000;" text-anchor="end" transform="translate(0,0)" y="292" opacity="1">
      <tspan>20 %</tspan>
    </text>
    <text x="35" style="color:#000000;cursor:default;font-size:11px;fill:#000000;" text-anchor="end" transform="translate(0,0)" y="230" opacity="1">
      <tspan>30 %</tspan>
    </text>
    <text x="35" style="color:#000000;cursor:default;font-size:11px;fill:#000000;" text-anchor="end" transform="translate(0,0)" y="168" opacity="1">
      <tspan>40 %</tspan>
    </text>
    <text x="35" style="color:#000000;cursor:default;font-size:11px;fill:#000000;" text-anchor="end" transform="translate(0,0)" y="106" opacity="1">
      <tspan>50 %</tspan>
    </text>
  </g>
  <text x="10" class="highcharts-credits" text-anchor="start" style="cursor:default;color:#000000;font-size:10px;fill:#000000;" y="400">
    <tspan>Quelle: Bundesamt für Statistik, Schweizerische Arbeitskräfteerhebung (SAKE)</tspan>
  </text>
</svg>
