<?xml version="1.0" standalone="no"?>
<!DOCTYPE svg PUBLIC "-//W3C//DTD SVG 1.1//EN" "http://www.w3.org/Graphics/SVG/1.1/DTD/svg11.dtd">
<svg xmlns:xlink="http://www.w3.org/1999/xlink" version="1.1" class="highcharts-root" style="font-family:Arial;font-size:12px;" xmlns="http://www.w3.org/2000/svg" viewBox="0 0 485 415">
  <desc>
    Created with Highstock 6.1.0
  </desc>
  <defs>
    <clipPath>
      <rect x="0" y="0" width="401" height="190" fill="none"/>
    </clipPath>
    <clipPath id="a">
      <rect x="0" y="0" width="401" height="190" fill="none"/>
    </clipPath>
  </defs>
  <rect fill="#fbfbfb" class="highcharts-background" x="0" y="0" width="485" height="415" rx="0" ry="0"/>
  <rect fill="none" class="highcharts-plot-background" x="74" y="159" width="401" height="190"/>
  <g class="highcharts-pane-group"/>
  <g class="highcharts-grid highcharts-xaxis-grid ">
    <path fill="none" class="highcharts-grid-line" d="M 77.5 159 L 77.5 349" opacity="1"/>
    <path fill="none" class="highcharts-grid-line" d="M 133.5 159 L 133.5 349" opacity="1"/>
    <path fill="none" class="highcharts-grid-line" d="M 189.5 159 L 189.5 349" opacity="1"/>
    <path fill="none" class="highcharts-grid-line" d="M 245.5 159 L 245.5 349" opacity="1"/>
    <path fill="none" class="highcharts-grid-line" d="M 302.5 159 L 302.5 349" opacity="1"/>
    <path fill="none" class="highcharts-grid-line" d="M 358.5 159 L 358.5 349" opacity="1"/>
    <path fill="none" class="highcharts-grid-line" d="M 414.5 159 L 414.5 349" opacity="1"/>
    <path fill="none" class="highcharts-grid-line" d="M 470.5 159 L 470.5 349" opacity="1"/>
  </g>
  <g class="highcharts-grid highcharts-yaxis-grid ">
    <path fill="none" stroke="#B9CFD7" stroke-width="0.5" class="highcharts-grid-line" d="M 74 349.25 L 475 349.25" opacity="1"/>
    <path fill="none" stroke="#B9CFD7" stroke-width="0.5" class="highcharts-grid-line" d="M 74 302.25 L 475 302.25" opacity="1"/>
    <path fill="none" stroke="#B9CFD7" stroke-width="0.5" class="highcharts-grid-line" d="M 74 254.25 L 475 254.25" opacity="1"/>
    <path fill="none" stroke="#B9CFD7" stroke-width="0.5" class="highcharts-grid-line" d="M 74 207.25 L 475 207.25" opacity="1"/>
    <path fill="none" stroke="#B9CFD7" stroke-width="0.5" class="highcharts-grid-line" d="M 74 158.75 L 475 158.75" opacity="1"/>
  </g>
  <rect fill="none" class="highcharts-plot-border" x="74" y="159" width="401" height="190"/>
  <g class="highcharts-axis highcharts-xaxis ">
    <path fill="none" class="highcharts-axis-line" stroke="#B9CFD7" stroke-width="0.5" d="M 74 349.25 L 475 349.25"/>
  </g>
  <g class="highcharts-axis highcharts-yaxis ">
    <path fill="none" class="highcharts-axis-line" d="M 74 159 L 74 349"/>
  </g>
  <g class="highcharts-series-group">
    <g class="highcharts-series highcharts-series-0 highcharts-line-series " transform="translate(74,159) scale(1 1)" clip-path="url(#a)">
      <path fill="none" d="M 3.9313725490224 173.17892 L 32.012605042019 171.364895 L 60.093837535016 172.117295 L 88.175070028013 173.110805 L 116.25630252101 174.957415 L 144.33753501401 174.30714 L 172.418767507 173.26423 L 200.5 173.02197999999999 L 228.581232493 173.09114 L 256.66246498599 174.358725 L 284.74369747899 174.26667 L 312.82492997199 172.06038999999998 L 340.90616246498 173.937685 L 368.98739495798 174.197035 L 397.06862745098 173.658765" class="highcharts-graph" stroke="#B00000" stroke-width="2" stroke-linejoin="round" stroke-linecap="round"/>
    </g>
    <g class="highcharts-markers highcharts-series-0 highcharts-line-series " transform="translate(74,159) scale(1 1)" clip-path="none">
      <path fill="#B00000" d="M 7 173 A 4 4 0 1 1 6.999998000000167 172.99600000066667 Z" class="highcharts-point"/>
      <path fill="#B00000" d="M 36 171 A 4 4 0 1 1 35.99999800000017 170.99600000066667 Z" class="highcharts-point"/>
      <path fill="#B00000" d="M 64 172 A 4 4 0 1 1 63.99999800000017 171.99600000066667 Z" class="highcharts-point"/>
      <path fill="#B00000" d="M 92 173 A 4 4 0 1 1 91.99999800000016 172.99600000066667 Z" class="highcharts-point"/>
      <path fill="#B00000" d="M 120 175 A 4 4 0 1 1 119.99999800000016 174.99600000066667 Z" class="highcharts-point"/>
      <path fill="#B00000" d="M 148 174 A 4 4 0 1 1 147.99999800000018 173.99600000066667 Z" class="highcharts-point"/>
      <path fill="#B00000" d="M 176 173 A 4 4 0 1 1 175.99999800000018 172.99600000066667 Z" class="highcharts-point"/>
      <path fill="#B00000" d="M 204 173 A 4 4 0 1 1 203.99999800000018 172.99600000066667 Z" class="highcharts-point"/>
      <path fill="#B00000" d="M 232 173 A 4 4 0 1 1 231.99999800000018 172.99600000066667 Z" class="highcharts-point"/>
      <path fill="#B00000" d="M 260 174 A 4 4 0 1 1 259.9999980000002 173.99600000066667 Z" class="highcharts-point"/>
      <path fill="#B00000" d="M 288 174 A 4 4 0 1 1 287.9999980000002 173.99600000066667 Z" class="highcharts-point"/>
      <path fill="#B00000" d="M 316 172 A 4 4 0 1 1 315.9999980000002 171.99600000066667 Z" class="highcharts-point"/>
      <path fill="#B00000" d="M 344 174 A 4 4 0 1 1 343.9999980000002 173.99600000066667 Z" class="highcharts-point"/>
      <path fill="#B00000" d="M 372 174 A 4 4 0 1 1 371.9999980000002 173.99600000066667 Z" class="highcharts-point"/>
      <path fill="#B00000" d="M 401 174 A 4 4 0 1 1 400.9999980000002 173.99600000066667 Z" class="highcharts-point"/>
    </g>
    <g class="highcharts-series highcharts-series-1 highcharts-line-series " transform="translate(74,159) scale(1 1)" clip-path="url(#a)">
      <path fill="none" d="M 3.9313725490224 180.00619 L 32.012605042019 177.41269 L 60.093837535016 176.79899 L 88.175070028013 174.16046 L 116.25630252101 174.59746 L 144.33753501401 174.382 L 172.418767507 173.88306 L 200.5 172.20289 L 228.581232493 173.55892 L 256.66246498599 172.8031 L 284.74369747899 173.347545 L 312.82492997199 173.724885 L 340.90616246498 175.091175 L 368.98739495798 173.34915999999998 L 397.06862745098 173.673205" class="highcharts-graph" stroke="#007A2F" stroke-width="2" stroke-linejoin="round" stroke-linecap="round"/>
    </g>
    <g class="highcharts-markers highcharts-series-1 highcharts-line-series " transform="translate(74,159) scale(1 1)" clip-path="none">
      <path fill="#007A2F" d="M 7 180 A 4 4 0 1 1 6.999998000000167 179.99600000066667 Z" class="highcharts-point"/>
      <path fill="#007A2F" d="M 36 177 A 4 4 0 1 1 35.99999800000017 176.99600000066667 Z" class="highcharts-point"/>
      <path fill="#007A2F" d="M 64 177 A 4 4 0 1 1 63.99999800000017 176.99600000066667 Z" class="highcharts-point"/>
      <path fill="#007A2F" d="M 92 174 A 4 4 0 1 1 91.99999800000016 173.99600000066667 Z" class="highcharts-point"/>
      <path fill="#007A2F" d="M 120 175 A 4 4 0 1 1 119.99999800000016 174.99600000066667 Z" class="highcharts-point"/>
      <path fill="#007A2F" d="M 148 174 A 4 4 0 1 1 147.99999800000018 173.99600000066667 Z" class="highcharts-point"/>
      <path fill="#007A2F" d="M 176 174 A 4 4 0 1 1 175.99999800000018 173.99600000066667 Z" class="highcharts-point"/>
      <path fill="#007A2F" d="M 204 172 A 4 4 0 1 1 203.99999800000018 171.99600000066667 Z" class="highcharts-point"/>
      <path fill="#007A2F" d="M 232 174 A 4 4 0 1 1 231.99999800000018 173.99600000066667 Z" class="highcharts-point"/>
      <path fill="#007A2F" d="M 260 173 A 4 4 0 1 1 259.9999980000002 172.99600000066667 Z" class="highcharts-point"/>
      <path fill="#007A2F" d="M 288 173 A 4 4 0 1 1 287.9999980000002 172.99600000066667 Z" class="highcharts-point"/>
      <path fill="#007A2F" d="M 316 174 A 4 4 0 1 1 315.9999980000002 173.99600000066667 Z" class="highcharts-point"/>
      <path fill="#007A2F" d="M 344 175 A 4 4 0 1 1 343.9999980000002 174.99600000066667 Z" class="highcharts-point"/>
      <path fill="#007A2F" d="M 372 173 A 4 4 0 1 1 371.9999980000002 172.99600000066667 Z" class="highcharts-point"/>
      <path fill="#007A2F" d="M 401 174 A 4 4 0 1 1 400.9999980000002 173.99600000066667 Z" class="highcharts-point"/>
    </g>
    <g class="highcharts-series highcharts-series-2 highcharts-line-series " transform="translate(74,159) scale(1 1)" clip-path="url(#a)">
      <path fill="none" d="M 3.9313725490224 65.41851999999999 L 32.012605042019 79.59555999999999 L 60.093837535016 73.64323999999999 L 88.175070028013 96.22036999999999 L 116.25630252101 103.068255 L 144.33753501401 109.82075999999999 L 172.418767507 110.68706499999999 L 200.5 107.02329499999999 L 228.581232493 110.79983 L 256.66246498599 114.78983 L 284.74369747899 109.867975 L 312.82492997199 120.84246999999999 L 340.90616246498 127.83447 L 368.98739495798 128.73611499999998 L 397.06862745098 130.164915" class="highcharts-graph" stroke="#4f81bd" stroke-width="2" stroke-linejoin="round" stroke-linecap="round"/>
    </g>
    <g class="highcharts-markers highcharts-series-2 highcharts-line-series " transform="translate(74,159) scale(1 1)" clip-path="none">
      <path fill="#4f81bd" d="M 7 65 A 4 4 0 1 1 6.999998000000167 64.99600000066667 Z" class="highcharts-point"/>
      <path fill="#4f81bd" d="M 36 80 A 4 4 0 1 1 35.99999800000017 79.99600000066667 Z" class="highcharts-point"/>
      <path fill="#4f81bd" d="M 64 74 A 4 4 0 1 1 63.99999800000017 73.99600000066667 Z" class="highcharts-point"/>
      <path fill="#4f81bd" d="M 92 96 A 4 4 0 1 1 91.99999800000016 95.99600000066667 Z" class="highcharts-point"/>
      <path fill="#4f81bd" d="M 120 103 A 4 4 0 1 1 119.99999800000016 102.99600000066667 Z" class="highcharts-point"/>
      <path fill="#4f81bd" d="M 148 110 A 4 4 0 1 1 147.99999800000018 109.99600000066667 Z" class="highcharts-point"/>
      <path fill="#4f81bd" d="M 176 111 A 4 4 0 1 1 175.99999800000018 110.99600000066667 Z" class="highcharts-point"/>
      <path fill="#4f81bd" d="M 204 107 A 4 4 0 1 1 203.99999800000018 106.99600000066667 Z" class="highcharts-point"/>
      <path fill="#4f81bd" d="M 232 111 A 4 4 0 1 1 231.99999800000018 110.99600000066667 Z" class="highcharts-point"/>
      <path fill="#4f81bd" d="M 260 115 A 4 4 0 1 1 259.9999980000002 114.99600000066667 Z" class="highcharts-point"/>
      <path fill="#4f81bd" d="M 288 110 A 4 4 0 1 1 287.9999980000002 109.99600000066667 Z" class="highcharts-point"/>
      <path fill="#4f81bd" d="M 316 121 A 4 4 0 1 1 315.9999980000002 120.99600000066667 Z" class="highcharts-point"/>
      <path fill="#4f81bd" d="M 344 128 A 4 4 0 1 1 343.9999980000002 127.99600000066667 Z" class="highcharts-point"/>
      <path fill="#4f81bd" d="M 372 129 A 4 4 0 1 1 371.9999980000002 128.99600000066667 Z" class="highcharts-point"/>
      <path fill="#4f81bd" d="M 401 130 A 4 4 0 1 1 400.9999980000002 129.99600000066667 Z" class="highcharts-point"/>
    </g>
    <g class="highcharts-series highcharts-series-3 highcharts-line-series " transform="translate(74,159) scale(1 1)" clip-path="url(#a)">
      <path fill="none" d="M 3.9313725490224 72.12001 L 32.012605042019 76.22400999999999 L 60.093837535016 24.211510000000004 L 88.175070028013 75.71889499999999 L 116.25630252101 63.267055 L 144.33753501401 57.020804999999996 L 172.418767507 66.94023 L 200.5 33.49168 L 228.581232493 68.44769 L 256.66246498599 66.84827 L 284.74369747899 65.22243999999999 L 312.82492997199 63.048649999999995 L 340.90616246498 69.89738999999999 L 368.98739495798 62.215785 L 397.06862745098 59.388585000000006" class="highcharts-graph" stroke="#662673" stroke-width="2" stroke-linejoin="round" stroke-linecap="round"/>
    </g>
    <g class="highcharts-markers highcharts-series-3 highcharts-line-series " transform="translate(74,159) scale(1 1)" clip-path="none">
      <path fill="#662673" d="M 7 72 A 4 4 0 1 1 6.999998000000167 71.99600000066667 Z" class="highcharts-point"/>
      <path fill="#662673" d="M 36 76 A 4 4 0 1 1 35.99999800000017 75.99600000066667 Z" class="highcharts-point"/>
      <path fill="#662673" d="M 64 24 A 4 4 0 1 1 63.99999800000017 23.996000000666665 Z" class="highcharts-point"/>
      <path fill="#662673" d="M 92 76 A 4 4 0 1 1 91.99999800000016 75.99600000066667 Z" class="highcharts-point"/>
      <path fill="#662673" d="M 120 63 A 4 4 0 1 1 119.99999800000016 62.99600000066666 Z" class="highcharts-point"/>
      <path fill="#662673" d="M 148 57 A 4 4 0 1 1 147.99999800000018 56.99600000066666 Z" class="highcharts-point"/>
      <path fill="#662673" d="M 176 67 A 4 4 0 1 1 175.99999800000018 66.99600000066667 Z" class="highcharts-point"/>
      <path fill="#662673" d="M 204 33 A 4 4 0 1 1 203.99999800000018 32.99600000066666 Z" class="highcharts-point"/>
      <path fill="#662673" d="M 232 68 A 4 4 0 1 1 231.99999800000018 67.99600000066667 Z" class="highcharts-point"/>
      <path fill="#662673" d="M 260 67 A 4 4 0 1 1 259.9999980000002 66.99600000066667 Z" class="highcharts-point"/>
      <path fill="#662673" d="M 288 65 A 4 4 0 1 1 287.9999980000002 64.99600000066667 Z" class="highcharts-point"/>
      <path fill="#662673" d="M 316 63 A 4 4 0 1 1 315.9999980000002 62.99600000066666 Z" class="highcharts-point"/>
      <path fill="#662673" d="M 344 70 A 4 4 0 1 1 343.9999980000002 69.99600000066667 Z" class="highcharts-point"/>
      <path fill="#662673" d="M 372 62 A 4 4 0 1 1 371.9999980000002 61.99600000066666 Z" class="highcharts-point"/>
      <path fill="#662673" d="M 401 59 A 4 4 0 1 1 400.9999980000002 58.99600000066666 Z" class="highcharts-point"/>
    </g>
    <g class="highcharts-series highcharts-series-4 highcharts-line-series " transform="translate(74,159) scale(1 1)" clip-path="url(#a)">
      <path fill="none" d="M 3.9313725490224 84.709695 L 32.012605042019 80.25609499999999 L 60.093837535016 75.555875 L 88.175070028013 75.857975 L 116.25630252101 74.27955 L 144.33753501401 69.59348499999999 L 172.418767507 69.392845 L 200.5 67.85812 L 228.581232493 65.19507999999999 L 256.66246498599 64.08766499999999 L 284.74369747899 66.98867999999999 L 312.82492997199 72.56727 L 340.90616246498 79.524975 L 368.98739495798 78.09712499999999 L 397.06862745098 69.336985" class="highcharts-graph" stroke="#FABD24" stroke-width="2" stroke-linejoin="round" stroke-linecap="round"/>
    </g>
    <g class="highcharts-markers highcharts-series-4 highcharts-line-series " transform="translate(74,159) scale(1 1)" clip-path="none">
      <path fill="#FABD24" d="M 7 85 A 4 4 0 1 1 6.999998000000167 84.99600000066667 Z" class="highcharts-point"/>
      <path fill="#FABD24" d="M 36 80 A 4 4 0 1 1 35.99999800000017 79.99600000066667 Z" class="highcharts-point"/>
      <path fill="#FABD24" d="M 64 76 A 4 4 0 1 1 63.99999800000017 75.99600000066667 Z" class="highcharts-point"/>
      <path fill="#FABD24" d="M 92 76 A 4 4 0 1 1 91.99999800000016 75.99600000066667 Z" class="highcharts-point"/>
      <path fill="#FABD24" d="M 120 74 A 4 4 0 1 1 119.99999800000016 73.99600000066667 Z" class="highcharts-point"/>
      <path fill="#FABD24" d="M 148 70 A 4 4 0 1 1 147.99999800000018 69.99600000066667 Z" class="highcharts-point"/>
      <path fill="#FABD24" d="M 176 69 A 4 4 0 1 1 175.99999800000018 68.99600000066667 Z" class="highcharts-point"/>
      <path fill="#FABD24" d="M 204 68 A 4 4 0 1 1 203.99999800000018 67.99600000066667 Z" class="highcharts-point"/>
      <path fill="#FABD24" d="M 232 65 A 4 4 0 1 1 231.99999800000018 64.99600000066667 Z" class="highcharts-point"/>
      <path fill="#FABD24" d="M 260 64 A 4 4 0 1 1 259.9999980000002 63.99600000066666 Z" class="highcharts-point"/>
      <path fill="#FABD24" d="M 288 67 A 4 4 0 1 1 287.9999980000002 66.99600000066667 Z" class="highcharts-point"/>
      <path fill="#FABD24" d="M 316 73 A 4 4 0 1 1 315.9999980000002 72.99600000066667 Z" class="highcharts-point"/>
      <path fill="#FABD24" d="M 344 80 A 4 4 0 1 1 343.9999980000002 79.99600000066667 Z" class="highcharts-point"/>
      <path fill="#FABD24" d="M 372 78 A 4 4 0 1 1 371.9999980000002 77.99600000066667 Z" class="highcharts-point"/>
      <path fill="#FABD24" d="M 401 69 A 4 4 0 1 1 400.9999980000002 68.99600000066667 Z" class="highcharts-point"/>
    </g>
  </g>
  <text x="10" text-anchor="start" class="highcharts-title" style="color:#000000;font-size:14px;font-weight:bold;fill:#000000;" y="21">
    <tspan>Anzahl Besuche in Theater, Kinos und Museen</tspan>
  </text>
  <text x="10" text-anchor="start" class="highcharts-subtitle" style="color:#000000;font-size:12px;font-weight:normal;font-family:Arial;fill:#000000;" y="40"/>
  <g class="highcharts-legend" transform="translate(66,41)">
    <rect fill="none" class="highcharts-legend-box" rx="0" ry="0" x="0" y="0" width="196" height="106" visibility="visible"/>
    <g>
      <g>
        <g class="highcharts-legend-item highcharts-line-series highcharts-color-undefined highcharts-series-0" transform="translate(8,3)">
          <path fill="none" d="M 0 11 L 16 11" class="highcharts-graph" stroke="#B00000" stroke-width="2"/>
          <path fill="#B00000" d="M 12 11 A 4 4 0 1 1 11.999998000000167 10.996000000666664 Z" class="highcharts-point"/>
          <text x="21" style="color:#333333;font-size:12px;font-weight:normal;cursor:pointer;fill:#333333;" text-anchor="start" y="15">
            <tspan>Theater</tspan>
          </text>
        </g>
        <g class="highcharts-legend-item highcharts-line-series highcharts-color-undefined highcharts-series-1" transform="translate(8,22)">
          <path fill="none" d="M 0 11 L 16 11" class="highcharts-graph" stroke="#007A2F" stroke-width="2"/>
          <path fill="#007A2F" d="M 12 11 A 4 4 0 1 1 11.999998000000167 10.996000000666664 Z" class="highcharts-point"/>
          <text x="21" y="15" style="color:#333333;font-size:12px;font-weight:normal;cursor:pointer;fill:#333333;" text-anchor="start">
            <tspan>Kleintheater</tspan>
          </text>
        </g>
        <g class="highcharts-legend-item highcharts-line-series highcharts-color-undefined highcharts-series-2" transform="translate(8,41)">
          <path fill="none" d="M 0 11 L 16 11" class="highcharts-graph" stroke="#4f81bd" stroke-width="2"/>
          <path fill="#4f81bd" d="M 12 11 A 4 4 0 1 1 11.999998000000167 10.996000000666664 Z" class="highcharts-point"/>
          <text x="21" y="15" style="color:#333333;font-size:12px;font-weight:normal;cursor:pointer;fill:#333333;" text-anchor="start">
            <tspan>Kinos</tspan>
          </text>
        </g>
        <g class="highcharts-legend-item highcharts-line-series highcharts-color-undefined highcharts-series-3" transform="translate(8,60)">
          <path fill="none" d="M 0 11 L 16 11" class="highcharts-graph" stroke="#662673" stroke-width="2"/>
          <path fill="#662673" d="M 12 11 A 4 4 0 1 1 11.999998000000167 10.996000000666664 Z" class="highcharts-point"/>
          <text x="21" y="15" style="color:#333333;font-size:12px;font-weight:normal;cursor:pointer;fill:#333333;" text-anchor="start">
            <tspan>Museen</tspan>
          </text>
        </g>
        <g class="highcharts-legend-item highcharts-line-series highcharts-color-undefined highcharts-series-4" transform="translate(8,79)">
          <path fill="none" d="M 0 11 L 16 11" class="highcharts-graph" stroke="#FABD24" stroke-width="2"/>
          <path fill="#FABD24" d="M 12 11 A 4 4 0 1 1 11.999998000000167 10.996000000666664 Z" class="highcharts-point"/>
          <text x="21" y="15" style="color:#333333;font-size:12px;font-weight:normal;cursor:pointer;fill:#333333;" text-anchor="start">
            <tspan>Stadtbibliothek</tspan>
          </text>
        </g>
      </g>
    </g>
  </g>
  <g class="highcharts-axis-labels highcharts-xaxis-labels ">
    <text x="77.931372549022" style="color:#000000;cursor:default;font-size:11px;fill:#000000;" text-anchor="middle" transform="translate(0,0)" y="368" opacity="1">
      2002
    </text>
    <text x="134.09383753502" style="color:#000000;cursor:default;font-size:11px;fill:#000000;" text-anchor="middle" transform="translate(0,0)" y="368" opacity="1">
      2004
    </text>
    <text x="190.25630252101" style="color:#000000;cursor:default;font-size:11px;fill:#000000;" text-anchor="middle" transform="translate(0,0)" y="368" opacity="1">
      2006
    </text>
    <text x="246.418767507" style="color:#000000;cursor:default;font-size:11px;fill:#000000;" text-anchor="middle" transform="translate(0,0)" y="368" opacity="1">
      2008
    </text>
    <text x="302.581232493" style="color:#000000;cursor:default;font-size:11px;fill:#000000;" text-anchor="middle" transform="translate(0,0)" y="368" opacity="1">
      2010
    </text>
    <text x="358.74369747899" style="color:#000000;cursor:default;font-size:11px;fill:#000000;" text-anchor="middle" transform="translate(0,0)" y="368" opacity="1">
      2012
    </text>
    <text x="414.90616246498" style="color:#000000;cursor:default;font-size:11px;fill:#000000;" text-anchor="middle" transform="translate(0,0)" y="368" opacity="1">
      2014
    </text>
    <text x="462.78125" style="color:#000000;cursor:default;font-size:11px;fill:#000000;" text-anchor="middle" transform="translate(0,0)" y="368" opacity="1">
      2016
    </text>
  </g>
  <g class="highcharts-axis-labels highcharts-yaxis-labels ">
    <text x="59" style="color:#000000;cursor:default;font-size:11px;fill:#000000;" text-anchor="end" transform="translate(0,0)" y="354" opacity="1">
      0
    </text>
    <text x="59" style="color:#000000;cursor:default;font-size:11px;fill:#000000;" text-anchor="end" transform="translate(0,0)" y="306" opacity="1">
      <tspan>500 000</tspan>
    </text>
    <text x="59" style="color:#000000;cursor:default;font-size:11px;fill:#000000;" text-anchor="end" transform="translate(0,0)" y="259" opacity="1">
      <tspan>1 000 000</tspan>
    </text>
    <text x="59" style="color:#000000;cursor:default;font-size:11px;fill:#000000;" text-anchor="end" transform="translate(0,0)" y="211" opacity="1">
      <tspan>1 500 000</tspan>
    </text>
    <text x="59" style="color:#000000;cursor:default;font-size:11px;fill:#000000;" text-anchor="end" transform="translate(0,0)" y="164" opacity="1">
      <tspan>2 000 000</tspan>
    </text>
  </g>
  <text x="10" class="highcharts-credits" text-anchor="start" style="cursor:default;color:#000000;font-size:10px;fill:#000000;" y="390">
    <tspan>Quelle: Jeweilige Institutionen;</tspan><tspan x="10" dy="13">ProCinema</tspan>
  </text>
</svg>
