<?xml version="1.0" standalone="no"?><!DOCTYPE svg PUBLIC "-//W3C//DTD SVG 1.1//EN" "http://www.w3.org/Graphics/SVG/1.1/DTD/svg11.dtd"><svg xmlns:xlink="http://www.w3.org/1999/xlink" version="1.1" class="highcharts-root" style="font-family:Arial;font-size:12px;" xmlns="http://www.w3.org/2000/svg" viewBox="0 0 485 415"><desc>Created with Highstock 6.1.1</desc><defs><clipPath id="highcharts-ip31g4z-6"><rect x="0" y="0" width="401" height="223" fill="none"></rect></clipPath><clipPath id="highcharts-ip31g4z-7"><rect x="0" y="0" width="401" height="223" fill="none"></rect></clipPath></defs><rect fill="#fbfbfb" class="highcharts-background" x="0" y="0" width="485" height="415" rx="0" ry="0"></rect><rect fill="none" class="highcharts-plot-background" x="74" y="116" width="401" height="223"></rect><g class="highcharts-pane-group" data-z-index="0"></g><g class="highcharts-grid highcharts-xaxis-grid " data-z-index="1"><path fill="none" data-z-index="1" class="highcharts-grid-line" d="M 77.5 116 L 77.5 339" opacity="1"></path><path fill="none" data-z-index="1" class="highcharts-grid-line" d="M 129.5 116 L 129.5 339" opacity="1"></path><path fill="none" data-z-index="1" class="highcharts-grid-line" d="M 182.5 116 L 182.5 339" opacity="1"></path><path fill="none" data-z-index="1" class="highcharts-grid-line" d="M 234.5 116 L 234.5 339" opacity="1"></path><path fill="none" data-z-index="1" class="highcharts-grid-line" d="M 287.5 116 L 287.5 339" opacity="1"></path><path fill="none" data-z-index="1" class="highcharts-grid-line" d="M 339.5 116 L 339.5 339" opacity="1"></path><path fill="none" data-z-index="1" class="highcharts-grid-line" d="M 391.5 116 L 391.5 339" opacity="1"></path><path fill="none" data-z-index="1" class="highcharts-grid-line" d="M 444.5 116 L 444.5 339" opacity="1"></path></g><g class="highcharts-grid highcharts-yaxis-grid " data-z-index="1"><path fill="none" stroke="#B9CFD7" stroke-width="0.5" data-z-index="1" class="highcharts-grid-line" d="M 74 339.25 L 475 339.25" opacity="1"></path><path fill="none" stroke="#B9CFD7" stroke-width="0.5" data-z-index="1" class="highcharts-grid-line" d="M 74 283.25 L 475 283.25" opacity="1"></path><path fill="none" stroke="#B9CFD7" stroke-width="0.5" data-z-index="1" class="highcharts-grid-line" d="M 74 228.25 L 475 228.25" opacity="1"></path><path fill="none" stroke="#B9CFD7" stroke-width="0.5" data-z-index="1" class="highcharts-grid-line" d="M 74 172.25 L 475 172.25" opacity="1"></path><path fill="none" stroke="#B9CFD7" stroke-width="0.5" data-z-index="1" class="highcharts-grid-line" d="M 74 115.75 L 475 115.75" opacity="1"></path></g><rect fill="none" class="highcharts-plot-border" data-z-index="1" x="74" y="116" width="401" height="223"></rect><g class="highcharts-axis highcharts-xaxis " data-z-index="2"><path fill="none" class="highcharts-axis-line" stroke="#B9CFD7" stroke-width="0.5" data-z-index="7" d="M 74 339.25 L 475 339.25"></path></g><g class="highcharts-axis highcharts-yaxis " data-z-index="2"><path fill="none" class="highcharts-axis-line" data-z-index="7" d="M 74 116 L 74 339"></path></g><g class="highcharts-series-group" data-z-index="3"><g data-z-index="0.1" class="highcharts-series highcharts-series-0 highcharts-line-series " transform="translate(74,116) scale(1 1)" clip-path="url(#highcharts-ip31g4z-7)"><path fill="none" d="M 3.9313725490219 203.257364 L 30.140522875819 201.1282715 L 56.349673202616 202.0113515 L 82.558823529413 203.1774185 L 108.76797385621 205.3447555 L 134.97712418301 204.581538 L 161.1862745098 203.357491 L 187.3954248366 203.07316600000001 L 213.6045751634 203.154338 L 239.8137254902 204.64208250000001 L 266.02287581699 204.534039 L 292.23202614379 201.944563 L 318.44117647059 204.1479145 L 344.65032679738 204.4523095 L 370.85947712418 203.8205505 L 397.06862745098 203.8205505" class="highcharts-graph" data-z-index="1" stroke="#B00000" stroke-width="2" stroke-linejoin="round" stroke-linecap="round"></path></g><g data-z-index="0.1" class="highcharts-markers highcharts-series-0 highcharts-line-series " transform="translate(74,116) scale(1 1)" clip-path="none"></g><g data-z-index="0.1" class="highcharts-series highcharts-series-1 highcharts-line-series " transform="translate(74,116) scale(1 1)" clip-path="url(#highcharts-ip31g4z-7)"><path fill="none" d="M 3.9313725490219 211.270423 L 30.140522875819 208.226473 L 56.349673202616 207.506183 L 82.558823529413 204.409382 L 108.76797385621 204.922282 L 134.97712418301 204.6694 L 161.1862745098 204.083802 L 187.3954248366 202.111813 L 213.6045751634 203.703364 L 239.8137254902 202.81627 L 266.02287581699 203.4552765 L 292.23202614379 203.8981545 L 318.44117647059 205.5017475 L 344.65032679738 203.457172 L 370.85947712418 203.8374985 L 397.06862745098 203.8374985" class="highcharts-graph" data-z-index="1" stroke="#007A2F" stroke-width="2" stroke-linejoin="round" stroke-linecap="round"></path></g><g data-z-index="0.1" class="highcharts-markers highcharts-series-1 highcharts-line-series " transform="translate(74,116) scale(1 1)" clip-path="none"></g><g data-z-index="0.1" class="highcharts-series highcharts-series-2 highcharts-line-series " transform="translate(74,116) scale(1 1)" clip-path="url(#highcharts-ip31g4z-7)"><path fill="none" d="M 3.9313725490219 76.78068400000001 L 30.140522875819 93.420052 L 56.349673202616 86.433908 L 82.558823529413 112.932329 L 108.76797385621 120.9695835 L 134.97712418301 128.894892 L 161.1862745098 129.91166049999998 L 187.3954248366 125.6115515 L 213.6045751634 130.044011 L 239.8137254902 134.727011 L 266.02287581699 128.9503075 L 292.23202614379 141.830899 L 318.44117647059 150.03729900000002 L 344.65032679738 151.09554550000001 L 370.85947712418 152.7725055 L 397.06862745098 150.961411" class="highcharts-graph" data-z-index="1" stroke="#4f81bd" stroke-width="2" stroke-linejoin="round" stroke-linecap="round"></path></g><g data-z-index="0.1" class="highcharts-markers highcharts-series-2 highcharts-line-series " transform="translate(74,116) scale(1 1)" clip-path="none"></g><g data-z-index="0.1" class="highcharts-series highcharts-series-3 highcharts-line-series " transform="translate(74,116) scale(1 1)" clip-path="url(#highcharts-ip31g4z-7)"><path fill="none" d="M 3.9313725490219 84.646117 L 30.140522875819 89.462917 L 56.349673202616 28.41666699999999 L 82.558823529413 88.8700715 L 108.76797385621 74.25554349999999 L 134.97712418301 66.9244185 L 161.1862745098 78.56669099999999 L 187.3954248366 39.30865600000001 L 213.6045751634 80.335973 L 239.8137254902 78.45875899999999 L 266.02287581699 76.55054799999999 L 292.23202614379 73.99920499999999 L 318.44117647059 82.037463 L 344.65032679738 73.02168449999999 L 370.85947712418 69.70344449999999 L 397.06862745098 57.09803500000001" class="highcharts-graph" data-z-index="1" stroke="#662673" stroke-width="2" stroke-linejoin="round" stroke-linecap="round"></path></g><g data-z-index="0.1" class="highcharts-markers highcharts-series-3 highcharts-line-series " transform="translate(74,116) scale(1 1)" clip-path="none"></g><g data-z-index="0.1" class="highcharts-series highcharts-series-4 highcharts-line-series " transform="translate(74,116) scale(1 1)" clip-path="url(#highcharts-ip31g4z-7)"><path fill="none" d="M 3.9313725490219 99.4224315 L 30.140522875819 94.1953115 L 56.349673202616 88.67873750000001 L 82.558823529413 89.0333075 L 108.76797385621 87.180735 L 134.97712418301 81.68077450000001 L 161.1862745098 81.44528650000001 L 187.3954248366 79.644004 L 213.6045751634 76.51843600000001 L 239.8137254902 75.2186805 L 266.02287581699 78.62355600000001 L 292.23202614379 85.17105900000001 L 318.44117647059 93.3372075 L 344.65032679738 91.6613625 L 370.85947712418 81.37972450000001" class="highcharts-graph" data-z-index="1" stroke="#FABD24" stroke-width="2" stroke-linejoin="round" stroke-linecap="round"></path></g><g data-z-index="0.1" class="highcharts-markers highcharts-series-4 highcharts-line-series " transform="translate(74,116) scale(1 1)" clip-path="none"></g></g><text x="10" text-anchor="start" class="highcharts-title" data-z-index="4" style="color:#000000;font-size:14px;font-weight:bold;fill:#000000;" y="21"><tspan>Anzahl Besuche in Theater, Kinos und Museen</tspan></text><text x="10" text-anchor="start" class="highcharts-subtitle" data-z-index="4" style="color:#000000;font-size:12px;font-weight:normal;font-family:Arial;fill:#000000;" y="40"><tspan>Basel-Stadt</tspan></text><g class="highcharts-legend" data-z-index="7" transform="translate(66,55)"><rect fill="none" class="highcharts-legend-box" rx="0" ry="0" x="0" y="0" width="354" height="49" visibility="visible"></rect><g data-z-index="1"><g><g class="highcharts-legend-item highcharts-line-series highcharts-color-undefined highcharts-series-0" data-z-index="1" transform="translate(8,3)"><path fill="none" d="M 0 11 L 16 11" class="highcharts-graph" stroke="#B00000" stroke-width="2"></path><text x="21" style="color:#333333;font-size:12px;font-weight:normal;cursor:pointer;fill:#333333;" text-anchor="start" data-z-index="2" y="15"><tspan>Theater</tspan></text></g><g class="highcharts-legend-item highcharts-line-series highcharts-color-undefined highcharts-series-1" data-z-index="1" transform="translate(127.65625,3)"><path fill="none" d="M 0 11 L 16 11" class="highcharts-graph" stroke="#007A2F" stroke-width="2"></path><text x="21" y="15" style="color:#333333;font-size:12px;font-weight:normal;cursor:pointer;fill:#333333;" text-anchor="start" data-z-index="2"><tspan>Kleintheater</tspan></text></g><g class="highcharts-legend-item highcharts-line-series highcharts-color-undefined highcharts-series-2" data-z-index="1" transform="translate(247.3125,3)"><path fill="none" d="M 0 11 L 16 11" class="highcharts-graph" stroke="#4f81bd" stroke-width="2"></path><text x="21" y="15" style="color:#333333;font-size:12px;font-weight:normal;cursor:pointer;fill:#333333;" text-anchor="start" data-z-index="2"><tspan>Kinos</tspan></text></g><g class="highcharts-legend-item highcharts-line-series highcharts-color-undefined highcharts-series-3" data-z-index="1" transform="translate(8,22)"><path fill="none" d="M 0 11 L 16 11" class="highcharts-graph" stroke="#662673" stroke-width="2"></path><text x="21" y="15" style="color:#333333;font-size:12px;font-weight:normal;cursor:pointer;fill:#333333;" text-anchor="start" data-z-index="2"><tspan>Museen</tspan></text></g><g class="highcharts-legend-item highcharts-line-series highcharts-color-undefined highcharts-series-4" data-z-index="1" transform="translate(127.65625,22)"><path fill="none" d="M 0 11 L 16 11" class="highcharts-graph" stroke="#FABD24" stroke-width="2"></path><text x="21" y="15" style="color:#333333;font-size:12px;font-weight:normal;cursor:pointer;fill:#333333;" text-anchor="start" data-z-index="2"><tspan>Stadtbibliothek</tspan></text></g></g></g></g><g class="highcharts-axis-labels highcharts-xaxis-labels " data-z-index="7"><text x="77.931372549022" style="color:#000000;cursor:default;font-size:11px;fill:#000000;" text-anchor="middle" transform="translate(0,0)" y="358" opacity="1">2002</text><text x="130.34967320262" style="color:#000000;cursor:default;font-size:11px;fill:#000000;" text-anchor="middle" transform="translate(0,0)" y="358" opacity="1">2004</text><text x="182.76797385621" style="color:#000000;cursor:default;font-size:11px;fill:#000000;" text-anchor="middle" transform="translate(0,0)" y="358" opacity="1">2006</text><text x="235.1862745098" style="color:#000000;cursor:default;font-size:11px;fill:#000000;" text-anchor="middle" transform="translate(0,0)" y="358" opacity="1">2008</text><text x="287.6045751634" style="color:#000000;cursor:default;font-size:11px;fill:#000000;" text-anchor="middle" transform="translate(0,0)" y="358" opacity="1">2010</text><text x="340.02287581699" style="color:#000000;cursor:default;font-size:11px;fill:#000000;" text-anchor="middle" transform="translate(0,0)" y="358" opacity="1">2012</text><text x="392.44117647059" style="color:#000000;cursor:default;font-size:11px;fill:#000000;" text-anchor="middle" transform="translate(0,0)" y="358" opacity="1">2014</text><text x="444.85947712418" style="color:#000000;cursor:default;font-size:11px;fill:#000000;" text-anchor="middle" transform="translate(0,0)" y="358" opacity="1">2016</text></g><g class="highcharts-axis-labels highcharts-yaxis-labels " data-z-index="7"><text x="59" style="color:#000000;cursor:default;font-size:11px;fill:#000000;" text-anchor="end" transform="translate(0,0)" y="344" opacity="1">0</text><text x="59" style="color:#000000;cursor:default;font-size:11px;fill:#000000;" text-anchor="end" transform="translate(0,0)" y="288" opacity="1"><tspan>500 000</tspan></text><text x="59" style="color:#000000;cursor:default;font-size:11px;fill:#000000;" text-anchor="end" transform="translate(0,0)" y="232" opacity="1"><tspan>1 000 000</tspan></text><text x="59" style="color:#000000;cursor:default;font-size:11px;fill:#000000;" text-anchor="end" transform="translate(0,0)" y="176" opacity="1"><tspan>1 500 000</tspan></text><text x="59" style="color:#000000;cursor:default;font-size:11px;fill:#000000;" text-anchor="end" transform="translate(0,0)" y="121" opacity="1"><tspan>2 000 000</tspan></text></g><text x="10" class="highcharts-credits" text-anchor="start" data-z-index="8" style="cursor:default;color:#000000;font-size:10px;fill:#000000;" y="390"><tspan>Quelle: Jeweilige Institutionen;</tspan><tspan x="10" dy="13">ProCinema.</tspan></text></svg>