<?xml version="1.0" standalone="no"?><!DOCTYPE svg PUBLIC "-//W3C//DTD SVG 1.1//EN" "http://www.w3.org/Graphics/SVG/1.1/DTD/svg11.dtd"><svg xmlns:xlink="http://www.w3.org/1999/xlink" version="1.1" class="highcharts-root" style="font-family:Arial;font-size:12px;" xmlns="http://www.w3.org/2000/svg" viewBox="0 0 485 415"><desc>Created with Highcharts 8.2.0</desc><defs><clipPath id="highcharts-icphwxy-37-"><rect x="0" y="0" width="428" height="282" fill="none"></rect></clipPath><clipPath id="highcharts-icphwxy-68-"><rect x="0" y="0" width="428" height="282" fill="none"></rect></clipPath><clipPath id="highcharts-icphwxy-69-"><rect x="37" y="56" width="428" height="282" fill="none"></rect></clipPath></defs><rect fill="#fbfbfb" class="highcharts-background" x="0" y="0" width="485" height="428" rx="0" ry="0"></rect><rect fill="none" class="highcharts-plot-background" x="37" y="56" width="428" height="282"></rect><g class="highcharts-pane-group" data-z-index="0"></g><g class="highcharts-grid highcharts-xaxis-grid" data-z-index="1"><path fill="none" data-z-index="1" class="highcharts-grid-line" d="M 47.5 56 L 47.5 338" opacity="1"></path><path fill="none" data-z-index="1" class="highcharts-grid-line" d="M 61.5 56 L 61.5 338" opacity="1"></path><path fill="none" data-z-index="1" class="highcharts-grid-line" d="M 75.5 56 L 75.5 338" opacity="1"></path><path fill="none" data-z-index="1" class="highcharts-grid-line" d="M 89.5 56 L 89.5 338" opacity="1"></path><path fill="none" data-z-index="1" class="highcharts-grid-line" d="M 103.5 56 L 103.5 338" opacity="1"></path><path fill="none" data-z-index="1" class="highcharts-grid-line" d="M 117.5 56 L 117.5 338" opacity="1"></path><path fill="none" data-z-index="1" class="highcharts-grid-line" d="M 131.5 56 L 131.5 338" opacity="1"></path><path fill="none" data-z-index="1" class="highcharts-grid-line" d="M 145.5 56 L 145.5 338" opacity="1"></path><path fill="none" data-z-index="1" class="highcharts-grid-line" d="M 159.5 56 L 159.5 338" opacity="1"></path><path fill="none" data-z-index="1" class="highcharts-grid-line" d="M 173.5 56 L 173.5 338" opacity="1"></path><path fill="none" data-z-index="1" class="highcharts-grid-line" d="M 187.5 56 L 187.5 338" opacity="1"></path><path fill="none" data-z-index="1" class="highcharts-grid-line" d="M 201.5 56 L 201.5 338" opacity="1"></path><path fill="none" data-z-index="1" class="highcharts-grid-line" d="M 215.5 56 L 215.5 338" opacity="1"></path><path fill="none" data-z-index="1" class="highcharts-grid-line" d="M 229.5 56 L 229.5 338" opacity="1"></path><path fill="none" data-z-index="1" class="highcharts-grid-line" d="M 243.5 56 L 243.5 338" opacity="1"></path><path fill="none" data-z-index="1" class="highcharts-grid-line" d="M 257.5 56 L 257.5 338" opacity="1"></path><path fill="none" data-z-index="1" class="highcharts-grid-line" d="M 271.5 56 L 271.5 338" opacity="1"></path><path fill="none" data-z-index="1" class="highcharts-grid-line" d="M 285.5 56 L 285.5 338" opacity="1"></path><path fill="none" data-z-index="1" class="highcharts-grid-line" d="M 299.5 56 L 299.5 338" opacity="1"></path><path fill="none" data-z-index="1" class="highcharts-grid-line" d="M 313.5 56 L 313.5 338" opacity="1"></path><path fill="none" data-z-index="1" class="highcharts-grid-line" d="M 327.5 56 L 327.5 338" opacity="1"></path><path fill="none" data-z-index="1" class="highcharts-grid-line" d="M 341.5 56 L 341.5 338" opacity="1"></path><path fill="none" data-z-index="1" class="highcharts-grid-line" d="M 355.5 56 L 355.5 338" opacity="1"></path><path fill="none" data-z-index="1" class="highcharts-grid-line" d="M 369.5 56 L 369.5 338" opacity="1"></path><path fill="none" data-z-index="1" class="highcharts-grid-line" d="M 383.5 56 L 383.5 338" opacity="1"></path><path fill="none" data-z-index="1" class="highcharts-grid-line" d="M 397.5 56 L 397.5 338" opacity="1"></path><path fill="none" data-z-index="1" class="highcharts-grid-line" d="M 411.5 56 L 411.5 338" opacity="1"></path><path fill="none" data-z-index="1" class="highcharts-grid-line" d="M 425.5 56 L 425.5 338" opacity="1"></path><path fill="none" data-z-index="1" class="highcharts-grid-line" d="M 439.5 56 L 439.5 338" opacity="1"></path><path fill="none" data-z-index="1" class="highcharts-grid-line" d="M 453.5 56 L 453.5 338" opacity="1"></path></g><g class="highcharts-grid highcharts-yaxis-grid" data-z-index="1"><path fill="none" stroke="#B9CFD7" stroke-width="0.5" data-z-index="1" class="highcharts-grid-line" d="M 37 338.25 L 465 338.25" opacity="1"></path><path fill="none" stroke="#B9CFD7" stroke-width="0.5" data-z-index="1" class="highcharts-grid-line" d="M 37 291.25 L 465 291.25" opacity="1"></path><path fill="none" stroke="#B9CFD7" stroke-width="0.5" data-z-index="1" class="highcharts-grid-line" d="M 37 244.25 L 465 244.25" opacity="1"></path><path fill="none" stroke="#B9CFD7" stroke-width="0.5" data-z-index="1" class="highcharts-grid-line" d="M 37 197.25 L 465 197.25" opacity="1"></path><path fill="none" stroke="#B9CFD7" stroke-width="0.5" data-z-index="1" class="highcharts-grid-line" d="M 37 150.25 L 465 150.25" opacity="1"></path><path fill="none" stroke="#B9CFD7" stroke-width="0.5" data-z-index="1" class="highcharts-grid-line" d="M 37 103.25 L 465 103.25" opacity="1"></path><path fill="none" stroke="#B9CFD7" stroke-width="0.5" data-z-index="1" class="highcharts-grid-line" d="M 37 55.75 L 465 55.75" opacity="1"></path></g><rect fill="none" class="highcharts-plot-border" data-z-index="1" x="37" y="56" width="428" height="282"></rect><g class="highcharts-axis highcharts-xaxis" data-z-index="2"><path fill="none" class="highcharts-axis-line" stroke="#B9CFD7" stroke-width="0.5" data-z-index="7" d="M 37 338.25 L 465 338.25"></path></g><g class="highcharts-axis highcharts-yaxis" data-z-index="2"><path fill="none" class="highcharts-axis-line" data-z-index="7" d="M 37 56 L 37 338"></path></g><g class="highcharts-series-group" data-z-index="3"><g class="highcharts-series highcharts-series-0 highcharts-column-series" data-z-index="0.1" opacity="1" transform="translate(37,56) scale(1 1)" clip-path="url(#highcharts-icphwxy-68-)"><rect x="7" y="39" width="8" height="244" fill="#CD9C00" opacity="1" class="highcharts-point"></rect><rect x="21" y="20" width="8" height="263" fill="#CD9C00" opacity="1" class="highcharts-point"></rect><rect x="35" y="123" width="8" height="160" fill="#CD9C00" opacity="1" class="highcharts-point"></rect><rect x="49" y="123" width="8" height="160" fill="#CD9C00" opacity="1" class="highcharts-point"></rect><rect x="63" y="76" width="8" height="207" fill="#CD9C00" opacity="1" class="highcharts-point"></rect><rect x="77" y="114" width="8" height="169" fill="#CD9C00" opacity="1" class="highcharts-point"></rect><rect x="91" y="39" width="8" height="244" fill="#CD9C00" opacity="1" class="highcharts-point"></rect><rect x="105" y="133" width="8" height="150" fill="#CD9C00" opacity="1" class="highcharts-point"></rect><rect x="119" y="48" width="8" height="235" fill="#CD9C00" opacity="1" class="highcharts-point"></rect><rect x="133" y="123" width="8" height="160" fill="#CD9C00" opacity="1" class="highcharts-point"></rect><rect x="147" y="86" width="8" height="197" fill="#CD9C00" opacity="1" class="highcharts-point"></rect><rect x="161" y="57" width="8" height="226" fill="#CD9C00" opacity="1" class="highcharts-point"></rect><rect x="175" y="114" width="8" height="169" fill="#CD9C00" opacity="1" class="highcharts-point"></rect><rect x="189" y="114" width="8" height="169" fill="#CD9C00" opacity="1" class="highcharts-point"></rect><rect x="203" y="133" width="8" height="150" fill="#CD9C00" opacity="1" class="highcharts-point"></rect><rect x="217" y="133" width="8" height="150" fill="#CD9C00" opacity="1" class="highcharts-point"></rect><rect x="231" y="104" width="8" height="179" fill="#CD9C00" opacity="1" class="highcharts-point"></rect><rect x="245" y="114" width="8" height="169" fill="#CD9C00" opacity="1" class="highcharts-point"></rect><rect x="259" y="133" width="8" height="150" fill="#CD9C00" opacity="1" class="highcharts-point"></rect><rect x="273" y="142" width="8" height="141" fill="#CD9C00" opacity="1" class="highcharts-point"></rect><rect x="287" y="208" width="8" height="75" fill="#CD9C00" opacity="1" class="highcharts-point"></rect><rect x="301" y="180" width="8" height="103" fill="#CD9C00" opacity="1" class="highcharts-point"></rect><rect x="315" y="189" width="8" height="94" fill="#CD9C00" opacity="1" class="highcharts-point"></rect><rect x="329" y="236" width="8" height="47" fill="#CD9C00" opacity="1" class="highcharts-point"></rect><rect x="343" y="189" width="8" height="94" fill="#CD9C00" opacity="1" class="highcharts-point"></rect><rect x="357" y="198" width="8" height="85" fill="#CD9C00" opacity="1" class="highcharts-point"></rect><rect x="371" y="189" width="8" height="94" fill="#CD9C00" opacity="1" class="highcharts-point"></rect><rect x="385" y="170" width="8" height="113" fill="#CD9C00" opacity="1" class="highcharts-point"></rect><rect x="399" y="133" width="8" height="150" fill="#CD9C00" opacity="1" class="highcharts-point"></rect><rect x="413" y="236" width="8" height="47" fill="#CD9C00" opacity="1" class="highcharts-point"></rect></g><g class="highcharts-markers highcharts-series-0 highcharts-column-series" data-z-index="0.1" opacity="1" transform="translate(37,56) scale(1 1)" clip-path="none"></g></g><text x="10" text-anchor="start" class="highcharts-title" data-z-index="4" style="color:#000000;font-size:14px;font-weight:bold;fill:#000000;" y="21"><tspan>Anzahl Störfälle und Ereignisse</tspan></text><text x="10" text-anchor="start" class="highcharts-subtitle" data-z-index="4" style="color:#000000;font-size:12px;font-weight:normal;fill:#000000;" y="40"><tspan>Basel-Stadt</tspan></text><text x="10" text-anchor="start" class="highcharts-caption" data-z-index="4" style="color:#666666;fill:#666666;" y="385"></text><g class="highcharts-axis-labels highcharts-xaxis-labels" data-z-index="7"><text x="50.64962479894767" style="color:#000000;cursor:default;font-size:11px;fill:#000000;" text-anchor="end" transform="translate(0,0) rotate(-45 50.64962479894767 354)" y="354" opacity="1">1991</text><text x="0" style="color:#000000;cursor:default;font-size:11px;fill:#000000;" text-anchor="end" transform="translate(0,0) rotate(-45 0 -9999)" y="-9999">1992</text><text x="78.64177653210668" style="color:#000000;cursor:default;font-size:11px;fill:#000000;" text-anchor="end" transform="translate(0,0) rotate(-45 78.64177653210668 354)" y="354" opacity="1">1993</text><text x="0" style="color:#000000;cursor:default;font-size:11px;fill:#000000;" text-anchor="end" transform="translate(0,0) rotate(-45 0 -9999)" y="-9999">1994</text><text x="106.63392826527067" style="color:#000000;cursor:default;font-size:11px;fill:#000000;" text-anchor="end" transform="translate(0,0) rotate(-45 106.63392826527067 354)" y="354" opacity="1">1995</text><text x="0" style="color:#000000;cursor:default;font-size:11px;fill:#000000;" text-anchor="end" transform="translate(0,0) rotate(-45 0 -9999)" y="-9999">1996</text><text x="134.6260799984207" style="color:#000000;cursor:default;font-size:11px;fill:#000000;" text-anchor="end" transform="translate(0,0) rotate(-45 134.6260799984207 354)" y="354" opacity="1">1997</text><text x="0" style="color:#000000;cursor:default;font-size:11px;fill:#000000;" text-anchor="end" transform="translate(0,0) rotate(-45 0 -9999)" y="-9999">1998</text><text x="162.6182317315807" style="color:#000000;cursor:default;font-size:11px;fill:#000000;" text-anchor="end" transform="translate(0,0) rotate(-45 162.6182317315807 354)" y="354" opacity="1">1999</text><text x="0" style="color:#000000;cursor:default;font-size:11px;fill:#000000;" text-anchor="end" transform="translate(0,0) rotate(-45 0 -9999)" y="-9999">2000</text><text x="190.6103834647407" style="color:#000000;cursor:default;font-size:11px;fill:#000000;" text-anchor="end" transform="translate(0,0) rotate(-45 190.6103834647407 354)" y="354" opacity="1">2001</text><text x="0" style="color:#000000;cursor:default;font-size:11px;fill:#000000;" text-anchor="end" transform="translate(0,0) rotate(-45 0 -9999)" y="-9999">2002</text><text x="218.6025351979007" style="color:#000000;cursor:default;font-size:11px;fill:#000000;" text-anchor="end" transform="translate(0,0) rotate(-45 218.6025351979007 354)" y="354" opacity="1">2003</text><text x="0" style="color:#000000;cursor:default;font-size:11px;fill:#000000;" text-anchor="end" transform="translate(0,0) rotate(-45 0 -9999)" y="-9999">2004</text><text x="246.5946869310607" style="color:#000000;cursor:default;font-size:11px;fill:#000000;" text-anchor="end" transform="translate(0,0) rotate(-45 246.5946869310607 354)" y="354" opacity="1">2005</text><text x="0" style="color:#000000;cursor:default;font-size:11px;fill:#000000;" text-anchor="end" transform="translate(0,0) rotate(-45 0 -9999)" y="-9999">2006</text><text x="274.58683866422064" style="color:#000000;cursor:default;font-size:11px;fill:#000000;" text-anchor="end" transform="translate(0,0) rotate(-45 274.58683866422064 354)" y="354" opacity="1">2007</text><text x="0" style="color:#000000;cursor:default;font-size:11px;fill:#000000;" text-anchor="end" transform="translate(0,0) rotate(-45 0 -9999)" y="-9999">2008</text><text x="302.57899039738066" style="color:#000000;cursor:default;font-size:11px;fill:#000000;" text-anchor="end" transform="translate(0,0) rotate(-45 302.57899039738066 354)" y="354" opacity="1">2009</text><text x="0" style="color:#000000;cursor:default;font-size:11px;fill:#000000;" text-anchor="end" transform="translate(0,0) rotate(-45 0 -9999)" y="-9999">2010</text><text x="330.57114213054064" style="color:#000000;cursor:default;font-size:11px;fill:#000000;" text-anchor="end" transform="translate(0,0) rotate(-45 330.57114213054064 354)" y="354" opacity="1">2011</text><text x="0" style="color:#000000;cursor:default;font-size:11px;fill:#000000;" text-anchor="end" transform="translate(0,0) rotate(-45 0 -9999)" y="-9999">2012</text><text x="358.56329386370066" style="color:#000000;cursor:default;font-size:11px;fill:#000000;" text-anchor="end" transform="translate(0,0) rotate(-45 358.56329386370066 354)" y="354" opacity="1">2013</text><text x="0" style="color:#000000;cursor:default;font-size:11px;fill:#000000;" text-anchor="end" transform="translate(0,0) rotate(-45 0 -9999)" y="-9999">2014</text><text x="386.55544559686064" style="color:#000000;cursor:default;font-size:11px;fill:#000000;" text-anchor="end" transform="translate(0,0) rotate(-45 386.55544559686064 354)" y="354" opacity="1">2015</text><text x="0" style="color:#000000;cursor:default;font-size:11px;fill:#000000;" text-anchor="end" transform="translate(0,0) rotate(-45 0 -9999)" y="-9999">2016</text><text x="414.54759733001066" style="color:#000000;cursor:default;font-size:11px;fill:#000000;" text-anchor="end" transform="translate(0,0) rotate(-45 414.54759733001066 354)" y="354" opacity="1">2017</text><text x="0" style="color:#000000;cursor:default;font-size:11px;fill:#000000;" text-anchor="end" transform="translate(0,0) rotate(-45 0 -9999)" y="-9999">2018</text><text x="442.53974906317063" style="color:#000000;cursor:default;font-size:11px;fill:#000000;" text-anchor="end" transform="translate(0,0) rotate(-45 442.53974906317063 354)" y="354" opacity="1">2019</text><text x="0" style="color:#000000;cursor:default;font-size:11px;fill:#000000;" text-anchor="end" transform="translate(0,0) rotate(-45 0 -9999)" y="-9999">2020</text></g><g class="highcharts-axis-labels highcharts-yaxis-labels" data-z-index="7"><text x="22" style="color:#000000;cursor:default;font-size:11px;fill:#000000;" text-anchor="end" transform="translate(0,0)" y="342" opacity="1">0</text><text x="22" style="color:#000000;cursor:default;font-size:11px;fill:#000000;" text-anchor="end" transform="translate(0,0)" y="295" opacity="1">5</text><text x="22" style="color:#000000;cursor:default;font-size:11px;fill:#000000;" text-anchor="end" transform="translate(0,0)" y="248" opacity="1">10</text><text x="22" style="color:#000000;cursor:default;font-size:11px;fill:#000000;" text-anchor="end" transform="translate(0,0)" y="201" opacity="1">15</text><text x="22" style="color:#000000;cursor:default;font-size:11px;fill:#000000;" text-anchor="end" transform="translate(0,0)" y="154" opacity="1">20</text><text x="22" style="color:#000000;cursor:default;font-size:11px;fill:#000000;" text-anchor="end" transform="translate(0,0)" y="107" opacity="1">25</text><text x="22" style="color:#000000;cursor:default;font-size:11px;fill:#000000;" text-anchor="end" transform="translate(0,0)" y="60" opacity="1">30</text></g><text x="10" class="highcharts-credits" text-anchor="start" data-z-index="8" style="cursor:default;color:#000000;font-size:10px;fill:#000000;" y="403"><tspan>Quelle: Kantonales Laboratorium Basel-Stadt, Kontrollstelle für Chemie- und Biosicherheit.</tspan><tspan x="10" dy="13">Zuletzt geändert: 2021-2-9</tspan></text><g class="highcharts-control-points" data-z-index="99" clip-path="url(#highcharts-icphwxy-69-)"></g></svg>