<?xml version="1.0" standalone="no"?>
<!DOCTYPE svg PUBLIC "-//W3C//DTD SVG 1.1//EN" "http://www.w3.org/Graphics/SVG/1.1/DTD/svg11.dtd">
<svg xmlns:xlink="http://www.w3.org/1999/xlink" version="1.1" class="highcharts-root" style="font-family:Arial;font-size:12px;" xmlns="http://www.w3.org/2000/svg" viewBox="0 0 485 415">
  <desc>
    Created with Highstock 6.0.3
  </desc>
  <defs>
    <clipPath>
      <rect x="0" y="0" width="428" height="307" fill="none"/>
    </clipPath>
    <clipPath id="a">
      <rect x="0" y="0" width="428" height="307" fill="none"/>
    </clipPath>
  </defs>
  <rect fill="#fbfbfb" class="highcharts-background" x="0" y="0" width="485" height="415" rx="0" ry="0"/>
  <rect fill="none" class="highcharts-plot-background" x="47" y="72" width="428" height="307"/>
  <g class="highcharts-pane-group"/>
  <g class="highcharts-grid highcharts-xaxis-grid ">
    <path fill="none" class="highcharts-grid-line" d="M 85.5 72 L 85.5 379" opacity="1"/>
    <path fill="none" class="highcharts-grid-line" d="M 124.5 72 L 124.5 379" opacity="1"/>
    <path fill="none" class="highcharts-grid-line" d="M 163.5 72 L 163.5 379" opacity="1"/>
    <path fill="none" class="highcharts-grid-line" d="M 202.5 72 L 202.5 379" opacity="1"/>
    <path fill="none" class="highcharts-grid-line" d="M 241.5 72 L 241.5 379" opacity="1"/>
    <path fill="none" class="highcharts-grid-line" d="M 279.5 72 L 279.5 379" opacity="1"/>
    <path fill="none" class="highcharts-grid-line" d="M 318.5 72 L 318.5 379" opacity="1"/>
    <path fill="none" class="highcharts-grid-line" d="M 357.5 72 L 357.5 379" opacity="1"/>
    <path fill="none" class="highcharts-grid-line" d="M 396.5 72 L 396.5 379" opacity="1"/>
    <path fill="none" class="highcharts-grid-line" d="M 435.5 72 L 435.5 379" opacity="1"/>
    <path fill="none" class="highcharts-grid-line" d="M 474.5 72 L 474.5 379" opacity="1"/>
    <path fill="none" class="highcharts-grid-line" d="M 46.5 72 L 46.5 379" opacity="1"/>
  </g>
  <g class="highcharts-grid highcharts-yaxis-grid ">
    <path fill="none" stroke="#B9CFD7" stroke-width="0.5" class="highcharts-grid-line" d="M 47 379.25 L 475 379.25" opacity="1"/>
    <path fill="none" stroke="#B9CFD7" stroke-width="0.5" class="highcharts-grid-line" d="M 47 302.25 L 475 302.25" opacity="1"/>
    <path fill="none" stroke="#B9CFD7" stroke-width="0.5" class="highcharts-grid-line" d="M 47 226.25 L 475 226.25" opacity="1"/>
    <path fill="none" stroke="#B9CFD7" stroke-width="0.5" class="highcharts-grid-line" d="M 47 149.25 L 475 149.25" opacity="1"/>
    <path fill="none" stroke="#B9CFD7" stroke-width="0.5" class="highcharts-grid-line" d="M 47 71.75 L 475 71.75" opacity="1"/>
  </g>
  <rect fill="none" class="highcharts-plot-border" x="47" y="72" width="428" height="307"/>
  <g class="highcharts-axis highcharts-xaxis ">
    <path fill="none" class="highcharts-axis-line" stroke="#B9CFD7" stroke-width="0.5" d="M 47 379.25 L 475 379.25"/>
  </g>
  <g class="highcharts-axis highcharts-yaxis ">
    <path fill="none" class="highcharts-axis-line" d="M 47 72 L 47 379"/>
  </g>
  <g class="highcharts-series-group">
    <g class="highcharts-series highcharts-series-0 highcharts-column-series " transform="translate(47,72) scale(1 1)" clip-path="url(#a)">
      <rect x="8" y="62" width="23" height="246" fill="#CD9C00" class="highcharts-point"/>
      <rect x="47" y="16" width="23" height="292" fill="#CD9C00" class="highcharts-point"/>
      <rect x="86" y="32" width="23" height="276" fill="#CD9C00" class="highcharts-point"/>
      <rect x="125" y="62" width="23" height="246" fill="#CD9C00" class="highcharts-point"/>
      <rect x="163" y="78" width="24" height="230" fill="#CD9C00" class="highcharts-point"/>
      <rect x="202" y="185" width="24" height="123" fill="#CD9C00" class="highcharts-point"/>
      <rect x="241" y="139" width="24" height="169" fill="#CD9C00" class="highcharts-point"/>
      <rect x="280" y="155" width="23" height="153" fill="#CD9C00" class="highcharts-point"/>
      <rect x="319" y="231" width="23" height="77" fill="#CD9C00" class="highcharts-point"/>
      <rect x="358" y="155" width="23" height="153" fill="#CD9C00" class="highcharts-point"/>
      <rect x="397" y="170" width="23" height="138" fill="#CD9C00" class="highcharts-point"/>
    </g>
    <g class="highcharts-markers highcharts-series-0 highcharts-column-series " transform="translate(47,72) scale(1 1)" clip-path="none"/>
  </g>
  <text x="10" text-anchor="start" class="highcharts-title" style="color:#000000;font-size:14px;font-weight:bold;fill:#000000;" y="21">
    <tspan>Anzahl Störfälle und Ereignisse</tspan>
  </text>
  <text x="10" text-anchor="start" class="highcharts-subtitle" style="color:#000000;font-size:12px;font-weight:normal;font-family:Arial;fill:#000000;" y="40"/>
  <g class="highcharts-legend" transform="translate(39,35)">
    <rect fill="none" class="highcharts-legend-box" rx="0" ry="0" x="0" y="0" width="203" height="25" visibility="visible"/>
    <g>
      <g>
        <g class="highcharts-legend-item highcharts-column-series highcharts-color-undefined highcharts-series-0" transform="translate(8,3)">
          <text x="21" style="color:#333333;font-size:12px;font-weight:normal;cursor:pointer;fill:#333333;" text-anchor="start" y="15">
            <tspan>Anzahl Störfälle und Ereignisse</tspan>
          </text>
          <rect x="2" y="4" width="12" height="12" fill="#CD9C00" class="highcharts-point"/>
        </g>
      </g>
    </g>
  </g>
  <g class="highcharts-axis-labels highcharts-xaxis-labels ">
    <text x="66.45454545454545" style="color:#000000;cursor:default;font-size:11px;fill:#000000;" text-anchor="middle" transform="translate(0,0)" y="398" opacity="1">
      2006
    </text>
    <text x="105.36363636363636" style="color:#000000;cursor:default;font-size:11px;fill:#000000;" text-anchor="middle" transform="translate(0,0)" y="398" opacity="1">
      2007
    </text>
    <text x="144.27272727272725" style="color:#000000;cursor:default;font-size:11px;fill:#000000;" text-anchor="middle" transform="translate(0,0)" y="398" opacity="1">
      2008
    </text>
    <text x="183.1818181818182" style="color:#000000;cursor:default;font-size:11px;fill:#000000;" text-anchor="middle" transform="translate(0,0)" y="398" opacity="1">
      2009
    </text>
    <text x="222.09090909090907" style="color:#000000;cursor:default;font-size:11px;fill:#000000;" text-anchor="middle" transform="translate(0,0)" y="398" opacity="1">
      2010
    </text>
    <text x="261" style="color:#000000;cursor:default;font-size:11px;fill:#000000;" text-anchor="middle" transform="translate(0,0)" y="398" opacity="1">
      2011
    </text>
    <text x="299.9090909090909" style="color:#000000;cursor:default;font-size:11px;fill:#000000;" text-anchor="middle" transform="translate(0,0)" y="398" opacity="1">
      2012
    </text>
    <text x="338.8181818181818" style="color:#000000;cursor:default;font-size:11px;fill:#000000;" text-anchor="middle" transform="translate(0,0)" y="398" opacity="1">
      2013
    </text>
    <text x="377.7272727272727" style="color:#000000;cursor:default;font-size:11px;fill:#000000;" text-anchor="middle" transform="translate(0,0)" y="398" opacity="1">
      2014
    </text>
    <text x="416.6363636363636" style="color:#000000;cursor:default;font-size:11px;fill:#000000;" text-anchor="middle" transform="translate(0,0)" y="398" opacity="1">
      2015
    </text>
    <text x="455.5454545454545" style="color:#000000;cursor:default;font-size:11px;fill:#000000;" text-anchor="middle" transform="translate(0,0)" y="398" opacity="1">
      2016
    </text>
  </g>
  <g class="highcharts-axis-labels highcharts-yaxis-labels ">
    <text x="32" style="color:#000000;cursor:default;font-size:11px;fill:#000000;" text-anchor="end" transform="translate(0,0)" y="384" opacity="1">
      <tspan>0%</tspan>
    </text>
    <text x="32" style="color:#000000;cursor:default;font-size:11px;fill:#000000;" text-anchor="end" transform="translate(0,0)" y="307" opacity="1">
      <tspan>5%</tspan>
    </text>
    <text x="32" style="color:#000000;cursor:default;font-size:11px;fill:#000000;" text-anchor="end" transform="translate(0,0)" y="230" opacity="1">
      <tspan>10%</tspan>
    </text>
    <text x="32" style="color:#000000;cursor:default;font-size:11px;fill:#000000;" text-anchor="end" transform="translate(0,0)" y="153" opacity="1">
      <tspan>15%</tspan>
    </text>
    <text x="32" style="color:#000000;cursor:default;font-size:11px;fill:#000000;" text-anchor="end" transform="translate(0,0)" y="77" opacity="1">
      <tspan>20%</tspan>
    </text>
  </g>
  <text x="10" class="highcharts-credits" text-anchor="start" style="cursor:default;color:#000000;font-size:10px;fill:#000000;" y="400">
    <tspan>Quelle: Kantonales Laboratorium Basel-Stadt, Kontrollstelle für Chemie- und Biosicherheit</tspan>
  </text>
</svg>
