<?xml version="1.0" standalone="no"?>
<!DOCTYPE svg PUBLIC "-//W3C//DTD SVG 1.1//EN" "http://www.w3.org/Graphics/SVG/1.1/DTD/svg11.dtd">
<svg xmlns:xlink="http://www.w3.org/1999/xlink" version="1.1" class="highcharts-root" style="font-family:arial;font-size:12px;" xmlns="http://www.w3.org/2000/svg" viewBox="0 0 485 415">
  <desc>
    Created with Highstock 5.0.14
  </desc>
  <defs>
    <clipPath>
      <rect x="0" y="0" width="281" height="265" fill="none"/>
    </clipPath>
    <clipPath id="a">
      <rect x="0" y="0" width="281" height="265" fill="none"/>
    </clipPath>
  </defs>
  <rect fill="#fbfbfb" class="highcharts-background" x="0" y="0" width="485" height="415" rx="0" ry="0"/>
  <rect fill="none" class="highcharts-plot-background" x="53" y="75" width="281" height="265"/>
  <g class="highcharts-pane-group"/>
  <g class="highcharts-grid highcharts-xaxis-grid ">
    <path fill="none" class="highcharts-grid-line" d="M 78.5 75 L 78.5 340" opacity="1"/>
    <path fill="none" class="highcharts-grid-line" d="M 103.5 75 L 103.5 340" opacity="1"/>
    <path fill="none" class="highcharts-grid-line" d="M 129.5 75 L 129.5 340" opacity="1"/>
    <path fill="none" class="highcharts-grid-line" d="M 154.5 75 L 154.5 340" opacity="1"/>
    <path fill="none" class="highcharts-grid-line" d="M 180.5 75 L 180.5 340" opacity="1"/>
    <path fill="none" class="highcharts-grid-line" d="M 205.5 75 L 205.5 340" opacity="1"/>
    <path fill="none" class="highcharts-grid-line" d="M 231.5 75 L 231.5 340" opacity="1"/>
    <path fill="none" class="highcharts-grid-line" d="M 256.5 75 L 256.5 340" opacity="1"/>
    <path fill="none" class="highcharts-grid-line" d="M 282.5 75 L 282.5 340" opacity="1"/>
    <path fill="none" class="highcharts-grid-line" d="M 307.5 75 L 307.5 340" opacity="1"/>
    <path fill="none" class="highcharts-grid-line" d="M 333.5 75 L 333.5 340" opacity="1"/>
    <path fill="none" class="highcharts-grid-line" d="M 52.5 75 L 52.5 340" opacity="1"/>
  </g>
  <g class="highcharts-grid highcharts-yaxis-grid ">
    <path fill="none" stroke="#B9CFD7" stroke-width="0.5" class="highcharts-grid-line" d="M 53 340.25 L 334 340.25" opacity="1"/>
    <path fill="none" stroke="#B9CFD7" stroke-width="0.5" class="highcharts-grid-line" d="M 53 314.25 L 334 314.25" opacity="1"/>
    <path fill="none" stroke="#B9CFD7" stroke-width="0.5" class="highcharts-grid-line" d="M 53 287.25 L 334 287.25" opacity="1"/>
    <path fill="none" stroke="#B9CFD7" stroke-width="0.5" class="highcharts-grid-line" d="M 53 261.25 L 334 261.25" opacity="1"/>
    <path fill="none" stroke="#B9CFD7" stroke-width="0.5" class="highcharts-grid-line" d="M 53 234.25 L 334 234.25" opacity="1"/>
    <path fill="none" stroke="#B9CFD7" stroke-width="0.5" class="highcharts-grid-line" d="M 53 208.25 L 334 208.25" opacity="1"/>
    <path fill="none" stroke="#B9CFD7" stroke-width="0.5" class="highcharts-grid-line" d="M 53 181.25 L 334 181.25" opacity="1"/>
    <path fill="none" stroke="#B9CFD7" stroke-width="0.5" class="highcharts-grid-line" d="M 53 155.25 L 334 155.25" opacity="1"/>
    <path fill="none" stroke="#B9CFD7" stroke-width="0.5" class="highcharts-grid-line" d="M 53 128.25 L 334 128.25" opacity="1"/>
    <path fill="none" stroke="#B9CFD7" stroke-width="0.5" class="highcharts-grid-line" d="M 53 102.25 L 334 102.25" opacity="1"/>
    <path fill="none" stroke="#B9CFD7" stroke-width="0.5" class="highcharts-grid-line" d="M 53 74.75 L 334 74.75" opacity="1"/>
  </g>
  <rect fill="none" class="highcharts-plot-border" x="53" y="75" width="281" height="265"/>
  <g class="highcharts-axis highcharts-xaxis ">
    <path fill="none" class="highcharts-tick" stroke="#FFFFFF" stroke-width="1" d="M 78.5 340 L 78.5 350" opacity="1"/>
    <path fill="none" class="highcharts-tick" stroke="#FFFFFF" stroke-width="1" d="M 103.5 340 L 103.5 350" opacity="1"/>
    <path fill="none" class="highcharts-tick" stroke="#FFFFFF" stroke-width="1" d="M 129.5 340 L 129.5 350" opacity="1"/>
    <path fill="none" class="highcharts-tick" stroke="#FFFFFF" stroke-width="1" d="M 154.5 340 L 154.5 350" opacity="1"/>
    <path fill="none" class="highcharts-tick" stroke="#FFFFFF" stroke-width="1" d="M 180.5 340 L 180.5 350" opacity="1"/>
    <path fill="none" class="highcharts-tick" stroke="#FFFFFF" stroke-width="1" d="M 205.5 340 L 205.5 350" opacity="1"/>
    <path fill="none" class="highcharts-tick" stroke="#FFFFFF" stroke-width="1" d="M 231.5 340 L 231.5 350" opacity="1"/>
    <path fill="none" class="highcharts-tick" stroke="#FFFFFF" stroke-width="1" d="M 256.5 340 L 256.5 350" opacity="1"/>
    <path fill="none" class="highcharts-tick" stroke="#FFFFFF" stroke-width="1" d="M 282.5 340 L 282.5 350" opacity="1"/>
    <path fill="none" class="highcharts-tick" stroke="#FFFFFF" stroke-width="1" d="M 307.5 340 L 307.5 350" opacity="1"/>
    <path fill="none" class="highcharts-tick" stroke="#FFFFFF" stroke-width="1" d="M 334.5 340 L 334.5 350" opacity="1"/>
    <path fill="none" class="highcharts-tick" stroke="#FFFFFF" stroke-width="1" d="M 52.5 340 L 52.5 350" opacity="1"/>
    <path fill="none" class="highcharts-axis-line" stroke="#B9CFD7" stroke-width="0.5" d="M 53 340.25 L 334 340.25"/>
  </g>
  <g class="highcharts-axis highcharts-yaxis ">
    <path fill="none" class="highcharts-axis-line" d="M 53 75 L 53 340"/>
  </g>
  <g class="highcharts-series-group">
    <g class="highcharts-series highcharts-series-0 highcharts-column-series highcharts-color-undefined " transform="translate(53,75) scale(1 1)" clip-path="url(#a)">
      <rect x="7" y="0" width="13" height="25" fill="#d7e9d2" class="highcharts-point"/>
      <rect x="32" y="0" width="13" height="25" fill="#d7e9d2" class="highcharts-point"/>
      <rect x="58" y="0" width="13" height="27" fill="#d7e9d2" class="highcharts-point"/>
      <rect x="83" y="0" width="13" height="30" fill="#d7e9d2" class="highcharts-point"/>
      <rect x="109" y="0" width="13" height="27" fill="#d7e9d2" class="highcharts-point"/>
      <rect x="134" y="0" width="13" height="27" fill="#d7e9d2" class="highcharts-point"/>
      <rect x="160" y="0" width="13" height="25" fill="#d7e9d2" class="highcharts-point"/>
      <rect x="185" y="0" width="13" height="28" fill="#d7e9d2" class="highcharts-point"/>
      <rect x="211" y="0" width="13" height="24" fill="#d7e9d2" class="highcharts-point"/>
      <rect x="237" y="0" width="13" height="26" fill="#d7e9d2" class="highcharts-point"/>
      <rect x="262" y="0" width="13" height="17" fill="#d7e9d2" class="highcharts-point"/>
    </g>
    <g class="highcharts-markers highcharts-series-0 highcharts-column-series highcharts-color-undefined " transform="translate(53,75) scale(1 1)" clip-path="none"/>
    <g class="highcharts-series highcharts-series-1 highcharts-column-series highcharts-color-undefined " transform="translate(53,75) scale(1 1)" clip-path="url(#a)">
      <rect x="7" y="25" width="13" height="49" fill="#73ba7c" class="highcharts-point"/>
      <rect x="32" y="25" width="13" height="45" fill="#73ba7c" class="highcharts-point"/>
      <rect x="58" y="27" width="13" height="46" fill="#73ba7c" class="highcharts-point"/>
      <rect x="83" y="30" width="13" height="52" fill="#73ba7c" class="highcharts-point"/>
      <rect x="109" y="27" width="13" height="50" fill="#73ba7c" class="highcharts-point"/>
      <rect x="134" y="27" width="13" height="56" fill="#73ba7c" class="highcharts-point"/>
      <rect x="160" y="25" width="13" height="52" fill="#73ba7c" class="highcharts-point"/>
      <rect x="185" y="28" width="13" height="47" fill="#73ba7c" class="highcharts-point"/>
      <rect x="211" y="24" width="13" height="45" fill="#73ba7c" class="highcharts-point"/>
      <rect x="237" y="26" width="13" height="48" fill="#73ba7c" class="highcharts-point"/>
      <rect x="262" y="17" width="13" height="49" fill="#73ba7c" class="highcharts-point"/>
    </g>
    <g class="highcharts-markers highcharts-series-1 highcharts-column-series highcharts-color-undefined " transform="translate(53,75) scale(1 1)" clip-path="none"/>
    <g class="highcharts-series highcharts-series-2 highcharts-column-series highcharts-color-undefined " transform="translate(53,75) scale(1 1)" clip-path="url(#a)">
      <rect x="7" y="74" width="13" height="93" fill="#44ab2b" class="highcharts-point"/>
      <rect x="32" y="70" width="13" height="80" fill="#44ab2b" class="highcharts-point"/>
      <rect x="58" y="73" width="13" height="72" fill="#44ab2b" class="highcharts-point"/>
      <rect x="83" y="82" width="13" height="69" fill="#44ab2b" class="highcharts-point"/>
      <rect x="109" y="77" width="13" height="77" fill="#44ab2b" class="highcharts-point"/>
      <rect x="134" y="83" width="13" height="77" fill="#44ab2b" class="highcharts-point"/>
      <rect x="160" y="77" width="13" height="80" fill="#44ab2b" class="highcharts-point"/>
      <rect x="185" y="75" width="13" height="78" fill="#44ab2b" class="highcharts-point"/>
      <rect x="211" y="69" width="13" height="77" fill="#44ab2b" class="highcharts-point"/>
      <rect x="237" y="74" width="13" height="71" fill="#44ab2b" class="highcharts-point"/>
      <rect x="262" y="66" width="13" height="75" fill="#44ab2b" class="highcharts-point"/>
    </g>
    <g class="highcharts-markers highcharts-series-2 highcharts-column-series highcharts-color-undefined " transform="translate(53,75) scale(1 1)" clip-path="none"/>
    <g class="highcharts-series highcharts-series-3 highcharts-column-series highcharts-color-undefined " transform="translate(53,75) scale(1 1)" clip-path="url(#a)">
      <rect x="7" y="167" width="13" height="99" fill="#007a2f" class="highcharts-point"/>
      <rect x="32" y="150" width="13" height="116" fill="#007a2f" class="highcharts-point"/>
      <rect x="58" y="145" width="13" height="121" fill="#007a2f" class="highcharts-point"/>
      <rect x="83" y="151" width="13" height="115" fill="#007a2f" class="highcharts-point"/>
      <rect x="109" y="154" width="13" height="112" fill="#007a2f" class="highcharts-point"/>
      <rect x="134" y="160" width="13" height="106" fill="#007a2f" class="highcharts-point"/>
      <rect x="160" y="157" width="13" height="109" fill="#007a2f" class="highcharts-point"/>
      <rect x="185" y="153" width="13" height="113" fill="#007a2f" class="highcharts-point"/>
      <rect x="211" y="146" width="13" height="120" fill="#007a2f" class="highcharts-point"/>
      <rect x="237" y="145" width="13" height="121" fill="#007a2f" class="highcharts-point"/>
      <rect x="262" y="141" width="13" height="125" fill="#007a2f" class="highcharts-point"/>
    </g>
    <g class="highcharts-markers highcharts-series-3 highcharts-column-series highcharts-color-undefined " transform="translate(53,75) scale(1 1)" clip-path="none"/>
  </g>
  <text x="10" text-anchor="start" class="highcharts-title" style="color:#000000;font-size:14px;font-weight:bold;fill:#000000;" y="21">
    <tspan>Zahlfälle der Sozialhilfe nach Bezugsdauer</tspan>
  </text>
  <g class="highcharts-legend" transform="translate(346,154)">
    <rect fill="none" class="highcharts-legend-box" rx="0" ry="0" x="0" y="0" width="129" height="87" visibility="visible"/>
    <g>
      <g>
        <g class="highcharts-legend-item highcharts-column-series highcharts-color-undefined highcharts-series-0" transform="translate(8,3)">
          <text x="21" style="color:#333333;font-size:12px;font-weight:normal;cursor:pointer;fill:#333333;" text-anchor="start" y="15">
            <tspan>Bis 3 Monate</tspan>
          </text>
          <rect x="2" y="4" width="12" height="12" fill="#d7e9d2" class="highcharts-point"/>
        </g>
        <g class="highcharts-legend-item highcharts-column-series highcharts-color-undefined highcharts-series-1" transform="translate(8,22)">
          <text x="21" y="15" style="color:#333333;font-size:12px;font-weight:normal;cursor:pointer;fill:#333333;" text-anchor="start">
            <tspan>4 bis 12 Monate</tspan>
          </text>
          <rect x="2" y="4" width="12" height="12" fill="#73ba7c" class="highcharts-point"/>
        </g>
        <g class="highcharts-legend-item highcharts-column-series highcharts-color-undefined highcharts-series-2" transform="translate(8,41)">
          <text x="21" y="15" style="color:#333333;font-size:12px;font-weight:normal;cursor:pointer;fill:#333333;" text-anchor="start">
            <tspan>13 bis 36 Monate</tspan>
          </text>
          <rect x="2" y="4" width="12" height="12" fill="#44ab2b" class="highcharts-point"/>
        </g>
        <g class="highcharts-legend-item highcharts-column-series highcharts-color-undefined highcharts-series-3" transform="translate(8,60)">
          <text x="21" y="15" style="color:#333333;font-size:12px;font-weight:normal;cursor:pointer;fill:#333333;" text-anchor="start">
            <tspan>Über 36 Monate</tspan>
          </text>
          <rect x="2" y="4" width="12" height="12" fill="#007a2f" class="highcharts-point"/>
        </g>
      </g>
    </g>
  </g>
  <g class="highcharts-axis-labels highcharts-xaxis-labels ">
    <text x="65.77272727272728" style="color:#000000;cursor:default;font-size:11px;fill:#000000;" text-anchor="middle" transform="translate(0,0)" y="359" opacity="1">
      <tspan>2006</tspan>
    </text>
    <text x="91.31818181818181" style="color:#000000;cursor:default;font-size:11px;fill:#000000;" text-anchor="middle" transform="translate(0,0)" y="359" opacity="1">
      <tspan>2007</tspan>
    </text>
    <text x="116.86363636363635" style="color:#000000;cursor:default;font-size:11px;fill:#000000;" text-anchor="middle" transform="translate(0,0)" y="359" opacity="1">
      <tspan>2008</tspan>
    </text>
    <text x="142.4090909090909" style="color:#000000;cursor:default;font-size:11px;fill:#000000;" text-anchor="middle" transform="translate(0,0)" y="359" opacity="1">
      <tspan>2009</tspan>
    </text>
    <text x="167.95454545454547" style="color:#000000;cursor:default;font-size:11px;fill:#000000;" text-anchor="middle" transform="translate(0,0)" y="359" opacity="1">
      <tspan>2010</tspan>
    </text>
    <text x="193.5" style="color:#000000;cursor:default;font-size:11px;fill:#000000;" text-anchor="middle" transform="translate(0,0)" y="359" opacity="1">
      <tspan>2011</tspan>
    </text>
    <text x="219.04545454545456" style="color:#000000;cursor:default;font-size:11px;fill:#000000;" text-anchor="middle" transform="translate(0,0)" y="359" opacity="1">
      <tspan>2012</tspan>
    </text>
    <text x="244.5909090909091" style="color:#000000;cursor:default;font-size:11px;fill:#000000;" text-anchor="middle" transform="translate(0,0)" y="359" opacity="1">
      <tspan>2013</tspan>
    </text>
    <text x="270.1363636363637" style="color:#000000;cursor:default;font-size:11px;fill:#000000;" text-anchor="middle" transform="translate(0,0)" y="359" opacity="1">
      <tspan>2014</tspan>
    </text>
    <text x="295.68181818181824" style="color:#000000;cursor:default;font-size:11px;fill:#000000;" text-anchor="middle" transform="translate(0,0)" y="359" opacity="1">
      <tspan>2015</tspan>
    </text>
    <text x="321.22727272727275" style="color:#000000;cursor:default;font-size:11px;fill:#000000;" text-anchor="middle" transform="translate(0,0)" y="359" opacity="1">
      <tspan>2016</tspan>
    </text>
  </g>
  <g class="highcharts-axis-labels highcharts-yaxis-labels ">
    <text x="38" style="color:#000000;cursor:default;font-size:11px;fill:#000000;" text-anchor="end" transform="translate(0,0)" y="345" opacity="1">
      <tspan>0%</tspan>
    </text>
    <text x="38" style="color:#000000;cursor:default;font-size:11px;fill:#000000;" text-anchor="end" transform="translate(0,0)" y="318" opacity="1">
      <tspan>10%</tspan>
    </text>
    <text x="38" style="color:#000000;cursor:default;font-size:11px;fill:#000000;" text-anchor="end" transform="translate(0,0)" y="292" opacity="1">
      <tspan>20%</tspan>
    </text>
    <text x="38" style="color:#000000;cursor:default;font-size:11px;fill:#000000;" text-anchor="end" transform="translate(0,0)" y="265" opacity="1">
      <tspan>30%</tspan>
    </text>
    <text x="38" style="color:#000000;cursor:default;font-size:11px;fill:#000000;" text-anchor="end" transform="translate(0,0)" y="239" opacity="1">
      <tspan>40%</tspan>
    </text>
    <text x="38" style="color:#000000;cursor:default;font-size:11px;fill:#000000;" text-anchor="end" transform="translate(0,0)" y="212" opacity="1">
      <tspan>50%</tspan>
    </text>
    <text x="38" style="color:#000000;cursor:default;font-size:11px;fill:#000000;" text-anchor="end" transform="translate(0,0)" y="186" opacity="1">
      <tspan>60%</tspan>
    </text>
    <text x="38" style="color:#000000;cursor:default;font-size:11px;fill:#000000;" text-anchor="end" transform="translate(0,0)" y="159" opacity="1">
      <tspan>70%</tspan>
    </text>
    <text x="38" style="color:#000000;cursor:default;font-size:11px;fill:#000000;" text-anchor="end" transform="translate(0,0)" y="133" opacity="1">
      <tspan>80%</tspan>
    </text>
    <text x="38" style="color:#000000;cursor:default;font-size:11px;fill:#000000;" text-anchor="end" transform="translate(0,0)" y="106" opacity="1">
      <tspan>90%</tspan>
    </text>
    <text x="38" style="color:#000000;cursor:default;font-size:11px;fill:#000000;" text-anchor="end" transform="translate(0,0)" y="80" opacity="1">
      <tspan>100%</tspan>
    </text>
  </g>
  <text x="10" class="highcharts-credits" text-anchor="start" style="cursor:default;color:#000000;font-size:10px;fill:#000000;" y="390">
    <tspan>Quelle: Statistisches Amt Basel-Stadt, Sozialhilfestatistik;</tspan><tspan x="10" dy="13">Departement für Wirtschaft, Soziales und Umwelt</tspan>
  </text>
</svg>
