<?xml version="1.0" standalone="no"?><!DOCTYPE svg PUBLIC "-//W3C//DTD SVG 1.1//EN" "http://www.w3.org/Graphics/SVG/1.1/DTD/svg11.dtd"><svg xmlns:xlink="http://www.w3.org/1999/xlink" version="1.1" class="highcharts-root" style="font-family:Arial;font-size:12px;" xmlns="http://www.w3.org/2000/svg" viewBox="0 0 485 415"><desc>Created with Highcharts 8.1.0</desc><defs><clipPath id="highcharts-73dj7zl-43-"><rect x="0" y="0" width="282" height="266" fill="none"></rect></clipPath><clipPath id="highcharts-73dj7zl-50-"><rect x="0" y="0" width="282" height="266" fill="none"></rect></clipPath><clipPath id="highcharts-73dj7zl-81-"><rect x="56" y="87" width="282" height="266" fill="none"></rect></clipPath></defs><rect fill="#fbfbfb" class="highcharts-background" x="0" y="0" width="485" height="428" rx="0" ry="0"></rect><rect fill="none" class="highcharts-plot-background" x="56" y="87" width="282" height="266"></rect><g class="highcharts-pane-group" data-z-index="0"></g><g class="highcharts-grid highcharts-xaxis-grid" data-z-index="1"><path fill="none" data-z-index="1" class="highcharts-grid-line" d="M 102.5 87 L 102.5 353" opacity="1"></path><path fill="none" data-z-index="1" class="highcharts-grid-line" d="M 149.5 87 L 149.5 353" opacity="1"></path><path fill="none" data-z-index="1" class="highcharts-grid-line" d="M 196.5 87 L 196.5 353" opacity="1"></path><path fill="none" data-z-index="1" class="highcharts-grid-line" d="M 243.5 87 L 243.5 353" opacity="1"></path><path fill="none" data-z-index="1" class="highcharts-grid-line" d="M 290.5 87 L 290.5 353" opacity="1"></path><path fill="none" data-z-index="1" class="highcharts-grid-line" d="M 337.5 87 L 337.5 353" opacity="1"></path><path fill="none" data-z-index="1" class="highcharts-grid-line" d="M 55.5 87 L 55.5 353" opacity="1"></path></g><g class="highcharts-grid highcharts-yaxis-grid" data-z-index="1"><path fill="none" stroke="#B9CFD7" stroke-width="0.5" data-z-index="1" class="highcharts-grid-line" d="M 56 353.25 L 338 353.25" opacity="1"></path><path fill="none" stroke="#B9CFD7" stroke-width="0.5" data-z-index="1" class="highcharts-grid-line" d="M 56 326.25 L 338 326.25" opacity="1"></path><path fill="none" stroke="#B9CFD7" stroke-width="0.5" data-z-index="1" class="highcharts-grid-line" d="M 56 300.25 L 338 300.25" opacity="1"></path><path fill="none" stroke="#B9CFD7" stroke-width="0.5" data-z-index="1" class="highcharts-grid-line" d="M 56 273.25 L 338 273.25" opacity="1"></path><path fill="none" stroke="#B9CFD7" stroke-width="0.5" data-z-index="1" class="highcharts-grid-line" d="M 56 247.25 L 338 247.25" opacity="1"></path><path fill="none" stroke="#B9CFD7" stroke-width="0.5" data-z-index="1" class="highcharts-grid-line" d="M 56 220.25 L 338 220.25" opacity="1"></path><path fill="none" stroke="#B9CFD7" stroke-width="0.5" data-z-index="1" class="highcharts-grid-line" d="M 56 193.25 L 338 193.25" opacity="1"></path><path fill="none" stroke="#B9CFD7" stroke-width="0.5" data-z-index="1" class="highcharts-grid-line" d="M 56 167.25 L 338 167.25" opacity="1"></path><path fill="none" stroke="#B9CFD7" stroke-width="0.5" data-z-index="1" class="highcharts-grid-line" d="M 56 140.25 L 338 140.25" opacity="1"></path><path fill="none" stroke="#B9CFD7" stroke-width="0.5" data-z-index="1" class="highcharts-grid-line" d="M 56 114.25 L 338 114.25" opacity="1"></path><path fill="none" stroke="#B9CFD7" stroke-width="0.5" data-z-index="1" class="highcharts-grid-line" d="M 56 86.75 L 338 86.75" opacity="1"></path></g><rect fill="none" class="highcharts-plot-border" data-z-index="1" x="56" y="87" width="282" height="266"></rect><g class="highcharts-axis highcharts-xaxis" data-z-index="2"><path fill="none" class="highcharts-axis-line" stroke="#B9CFD7" stroke-width="0.5" data-z-index="7" d="M 56 353.25 L 338 353.25"></path></g><g class="highcharts-axis highcharts-yaxis" data-z-index="2"><path fill="none" class="highcharts-axis-line" data-z-index="7" d="M 56 87 L 56 353"></path></g><g class="highcharts-series-group" data-z-index="3"><g data-z-index="0.1" class="highcharts-series highcharts-series-0 highcharts-column-series" transform="translate(56,87) scale(1 1)" clip-path="url(#highcharts-73dj7zl-50-)"><rect x="12" y="250" width="23" height="17" fill="#007a2f" opacity="1" class="highcharts-point"></rect><rect x="59" y="252" width="23" height="15" fill="#007a2f" opacity="1" class="highcharts-point"></rect><rect x="106" y="257" width="23" height="10" fill="#007a2f" opacity="1" class="highcharts-point"></rect><rect x="153" y="243" width="23" height="24" fill="#007a2f" opacity="1" class="highcharts-point"></rect><rect x="200" y="244" width="23" height="23" fill="#007a2f" opacity="1" class="highcharts-point"></rect><rect x="247" y="260" width="23" height="7" fill="#007a2f" opacity="1" class="highcharts-point"></rect></g><g data-z-index="0.1" class="highcharts-markers highcharts-series-0 highcharts-column-series" transform="translate(56,87) scale(1 1)" clip-path="none"></g><g data-z-index="0.1" class="highcharts-series highcharts-series-1 highcharts-column-series" transform="translate(56,87) scale(1 1)" clip-path="url(#highcharts-73dj7zl-50-)"><rect x="12" y="111" width="23" height="139" fill="#68ab2b" opacity="1" class="highcharts-point"></rect><rect x="59" y="102" width="23" height="150" fill="#68ab2b" opacity="1" class="highcharts-point"></rect><rect x="106" y="127" width="23" height="130" fill="#68ab2b" opacity="1" class="highcharts-point"></rect><rect x="153" y="77" width="23" height="166" fill="#68ab2b" opacity="1" class="highcharts-point"></rect><rect x="200" y="86" width="23" height="158" fill="#68ab2b" opacity="1" class="highcharts-point"></rect><rect x="247" y="133" width="23" height="127" fill="#68ab2b" opacity="1" class="highcharts-point"></rect></g><g data-z-index="0.1" class="highcharts-markers highcharts-series-1 highcharts-column-series" transform="translate(56,87) scale(1 1)" clip-path="none"></g><g data-z-index="0.1" class="highcharts-series highcharts-series-2 highcharts-column-series" transform="translate(56,87) scale(1 1)" clip-path="url(#highcharts-73dj7zl-50-)"><rect x="12" y="60" width="23" height="51" fill="#ffbb58" opacity="1" class="highcharts-point"></rect><rect x="59" y="50" width="23" height="52" fill="#ffbb58" opacity="1" class="highcharts-point"></rect><rect x="106" y="58" width="23" height="69" fill="#ffbb58" opacity="1" class="highcharts-point"></rect><rect x="153" y="29" width="23" height="48" fill="#ffbb58" opacity="1" class="highcharts-point"></rect><rect x="200" y="28" width="23" height="58" fill="#ffbb58" opacity="1" class="highcharts-point"></rect><rect x="247" y="79" width="23" height="54" fill="#ffbb58" opacity="1" class="highcharts-point"></rect></g><g data-z-index="0.1" class="highcharts-markers highcharts-series-2 highcharts-column-series" transform="translate(56,87) scale(1 1)" clip-path="none"></g><g data-z-index="0.1" class="highcharts-series highcharts-series-3 highcharts-column-series" transform="translate(56,87) scale(1 1)" clip-path="url(#highcharts-73dj7zl-50-)"><rect x="12" y="53" width="23" height="7" fill="#dc440e" opacity="1" class="highcharts-point"></rect><rect x="59" y="44" width="23" height="6" fill="#dc440e" opacity="1" class="highcharts-point"></rect><rect x="106" y="49" width="23" height="9" fill="#dc440e" opacity="1" class="highcharts-point"></rect><rect x="153" y="22" width="23" height="7" fill="#dc440e" opacity="1" class="highcharts-point"></rect><rect x="200" y="21" width="23" height="7" fill="#dc440e" opacity="1" class="highcharts-point"></rect><rect x="247" y="64" width="23" height="15" fill="#dc440e" opacity="1" class="highcharts-point"></rect></g><g data-z-index="0.1" class="highcharts-markers highcharts-series-3 highcharts-column-series" transform="translate(56,87) scale(1 1)" clip-path="none"></g><g data-z-index="0.1" class="highcharts-series highcharts-series-4 highcharts-column-series" transform="translate(56,87) scale(1 1)" clip-path="url(#highcharts-73dj7zl-50-)"><rect x="12" y="0" width="23" height="53" fill="#C8C8C8" opacity="1" class="highcharts-point"></rect><rect x="59" y="0" width="23" height="44" fill="#C8C8C8" opacity="1" class="highcharts-point"></rect><rect x="106" y="0" width="23" height="49" fill="#C8C8C8" opacity="1" class="highcharts-point"></rect><rect x="153" y="0" width="23" height="22" fill="#C8C8C8" opacity="1" class="highcharts-point"></rect><rect x="200" y="0" width="23" height="21" fill="#C8C8C8" opacity="1" class="highcharts-point"></rect><rect x="247" y="7" width="23" height="57" fill="#C8C8C8" opacity="1" class="highcharts-point"></rect></g><g data-z-index="0.1" class="highcharts-markers highcharts-series-4 highcharts-column-series" transform="translate(56,87) scale(1 1)" clip-path="none"></g><g data-z-index="0.1" class="highcharts-series highcharts-series-5 highcharts-column-series" transform="translate(56,87) scale(1 1)" clip-path="url(#highcharts-73dj7zl-50-)"><rect x="12" y="1" width="23" height="0" fill="#6F6F6F" opacity="1" class="highcharts-point"></rect><rect x="59" y="1" width="23" height="0" fill="#6F6F6F" opacity="1" class="highcharts-point"></rect><rect x="106" y="1" width="23" height="0" fill="#6F6F6F" opacity="1" class="highcharts-point"></rect><rect x="153" y="1" width="23" height="0" fill="#6F6F6F" opacity="1" class="highcharts-point"></rect><rect x="200" y="1" width="23" height="0" fill="#6F6F6F" opacity="1" class="highcharts-point"></rect><rect x="247" y="0" width="23" height="7" fill="#6F6F6F" opacity="1" class="highcharts-point"></rect></g><g data-z-index="0.1" class="highcharts-markers highcharts-series-5 highcharts-column-series" transform="translate(56,87) scale(1 1)" clip-path="none"></g></g><text x="10" text-anchor="start" class="highcharts-title" data-z-index="4" style="color:#000000;font-size:14px;font-weight:bold;fill:#000000;" y="21"><tspan>Vertretung der Anliegen der Bevölkerung durch</tspan><tspan dy="17" x="10">Parlament und Regierung</tspan></text><text x="10" text-anchor="start" class="highcharts-subtitle" data-z-index="4" style="color:#000000;font-size:12px;fill:#000000;" y="57"><tspan>«Wie gut vertreten Ihrer Meinung nach die Behörden, also der</tspan><tspan dy="15" x="10">Regierungsrat und der Grosse Rat, die Anliegen der Bevölkerung?»</tspan></text><text x="10" text-anchor="start" class="highcharts-caption" data-z-index="4" style="color:#666666;fill:#666666;" y="400"></text><g class="highcharts-legend" data-z-index="7" transform="translate(350,137)"><rect fill="none" class="highcharts-legend-box" rx="0" ry="0" x="0" y="0" width="124" height="125" visibility="visible"></rect><g data-z-index="1"><g><g class="highcharts-legend-item highcharts-column-series highcharts-color-undefined highcharts-series-5" data-z-index="1" transform="translate(8,3)"><text x="21" style="color:#333333;cursor:pointer;font-size:12px;font-weight:normal;fill:#333333;" text-anchor="start" data-z-index="2" y="15"><tspan>Keine Angabe</tspan></text><rect x="2" y="4" width="12" height="12" fill="#6F6F6F" class="highcharts-point" data-z-index="3"></rect></g><g class="highcharts-legend-item highcharts-column-series highcharts-color-undefined highcharts-series-4" data-z-index="1" transform="translate(8,22)"><text x="21" y="15" style="color:#333333;cursor:pointer;font-size:12px;font-weight:normal;fill:#333333;" text-anchor="start" data-z-index="2"><tspan>Weiss nicht</tspan></text><rect x="2" y="4" width="12" height="12" fill="#C8C8C8" class="highcharts-point" data-z-index="3"></rect></g><g class="highcharts-legend-item highcharts-column-series highcharts-color-undefined highcharts-series-3" data-z-index="1" transform="translate(8,41)"><text x="21" y="15" style="color:#333333;cursor:pointer;font-size:12px;font-weight:normal;fill:#333333;" text-anchor="start" data-z-index="2"><tspan>Gar nicht gut</tspan></text><rect x="2" y="4" width="12" height="12" fill="#dc440e" class="highcharts-point" data-z-index="3"></rect></g><g class="highcharts-legend-item highcharts-column-series highcharts-color-undefined highcharts-series-2" data-z-index="1" transform="translate(8,60)"><text x="21" y="15" style="color:#333333;cursor:pointer;font-size:12px;font-weight:normal;fill:#333333;" text-anchor="start" data-z-index="2"><tspan>Eher nicht gut</tspan></text><rect x="2" y="4" width="12" height="12" fill="#ffbb58" class="highcharts-point" data-z-index="3"></rect></g><g class="highcharts-legend-item highcharts-column-series highcharts-color-undefined highcharts-series-1" data-z-index="1" transform="translate(8,79)"><text x="21" y="15" style="color:#333333;cursor:pointer;font-size:12px;font-weight:normal;fill:#333333;" text-anchor="start" data-z-index="2"><tspan>Eher gut</tspan></text><rect x="2" y="4" width="12" height="12" fill="#68ab2b" class="highcharts-point" data-z-index="3"></rect></g><g class="highcharts-legend-item highcharts-column-series highcharts-color-undefined highcharts-series-0" data-z-index="1" transform="translate(8,98)"><text x="21" y="15" style="color:#333333;cursor:pointer;font-size:12px;font-weight:normal;fill:#333333;" text-anchor="start" data-z-index="2"><tspan>Sehr gut</tspan></text><rect x="2" y="4" width="12" height="12" fill="#007a2f" class="highcharts-point" data-z-index="3"></rect></g></g></g></g><g class="highcharts-axis-labels highcharts-xaxis-labels" data-z-index="7"><text x="79.5" style="color:#000000;cursor:default;font-size:11px;white-space:nowrap;fill:#000000;" text-anchor="middle" transform="translate(0,0)" y="372" opacity="1"><tspan>2003</tspan><tspan x="79.5" dy="14">(N=1497)</tspan></text><text x="126.5" style="color:#000000;cursor:default;font-size:11px;white-space:nowrap;fill:#000000;" text-anchor="middle" transform="translate(0,0)" y="372" opacity="1"><tspan>2005</tspan><tspan x="126.5" dy="14">(N=1510)</tspan></text><text x="173.5" style="color:#000000;cursor:default;font-size:11px;white-space:nowrap;fill:#000000;" text-anchor="middle" transform="translate(0,0)" y="372" opacity="1"><tspan>2007</tspan><tspan x="173.5" dy="14">(N=1509)</tspan></text><text x="220.5" style="color:#000000;cursor:default;font-size:11px;white-space:nowrap;fill:#000000;" text-anchor="middle" transform="translate(0,0)" y="372" opacity="1"><tspan>2011</tspan><tspan x="220.5" dy="14">(N=1516)</tspan></text><text x="267.5" style="color:#000000;cursor:default;font-size:11px;white-space:nowrap;fill:#000000;" text-anchor="middle" transform="translate(0,0)" y="372" opacity="1"><tspan>2015</tspan><tspan x="267.5" dy="14">(N=1506)</tspan></text><text x="314.5" style="color:#000000;cursor:default;font-size:11px;white-space:nowrap;fill:#000000;" text-anchor="middle" transform="translate(0,0)" y="372" opacity="1"><tspan>2019</tspan><tspan x="314.5" dy="14">(N=2108)</tspan></text></g><g class="highcharts-axis-labels highcharts-yaxis-labels" data-z-index="7"><text x="41" style="color:#000000;cursor:default;font-size:11px;white-space:nowrap;fill:#000000;" text-anchor="end" transform="translate(0,0)" y="358" opacity="1">0%</text><text x="41" style="color:#000000;cursor:default;font-size:11px;white-space:nowrap;fill:#000000;" text-anchor="end" transform="translate(0,0)" y="331" opacity="1">10%</text><text x="41" style="color:#000000;cursor:default;font-size:11px;white-space:nowrap;fill:#000000;" text-anchor="end" transform="translate(0,0)" y="304" opacity="1">20%</text><text x="41" style="color:#000000;cursor:default;font-size:11px;white-space:nowrap;fill:#000000;" text-anchor="end" transform="translate(0,0)" y="278" opacity="1">30%</text><text x="41" style="color:#000000;cursor:default;font-size:11px;white-space:nowrap;fill:#000000;" text-anchor="end" transform="translate(0,0)" y="251" opacity="1">40%</text><text x="41" style="color:#000000;cursor:default;font-size:11px;white-space:nowrap;fill:#000000;" text-anchor="end" transform="translate(0,0)" y="225" opacity="1">50%</text><text x="41" style="color:#000000;cursor:default;font-size:11px;white-space:nowrap;fill:#000000;" text-anchor="end" transform="translate(0,0)" y="198" opacity="1">60%</text><text x="41" style="color:#000000;cursor:default;font-size:11px;white-space:nowrap;fill:#000000;" text-anchor="end" transform="translate(0,0)" y="171" opacity="1">70%</text><text x="41" style="color:#000000;cursor:default;font-size:11px;white-space:nowrap;fill:#000000;" text-anchor="end" transform="translate(0,0)" y="145" opacity="1">80%</text><text x="41" style="color:#000000;cursor:default;font-size:11px;white-space:nowrap;fill:#000000;" text-anchor="end" transform="translate(0,0)" y="118" opacity="1">90%</text><text x="41" style="color:#000000;cursor:default;font-size:11px;white-space:nowrap;fill:#000000;" text-anchor="end" transform="translate(0,0)" y="92" opacity="1">100%</text></g><text x="10" class="highcharts-credits" text-anchor="start" data-z-index="8" style="cursor:default;color:#000000;font-size:10px;fill:#000000;" y="403"><tspan>Quelle: Statistisches Amt Basel-Stadt, kantonale Bevölkerungsbefragung.</tspan><tspan x="10" dy="13">Zuletzt geändert: 2020-4-7</tspan></text><g class="highcharts-control-points" data-z-index="99" clip-path="url(#highcharts-73dj7zl-81-)"></g></svg>