<?xml version="1.0" standalone="no"?>
<!DOCTYPE svg PUBLIC "-//W3C//DTD SVG 1.1//EN" "http://www.w3.org/Graphics/SVG/1.1/DTD/svg11.dtd">
<svg xmlns:xlink="http://www.w3.org/1999/xlink" version="1.1" class="highcharts-root" style="font-family:arial;font-size:12px;" xmlns="http://www.w3.org/2000/svg" viewBox="0 0 485 415">
  <desc>
    Created with Highstock 5.0.14
  </desc>
  <defs>
    <clipPath>
      <rect x="0" y="0" width="294" height="300" fill="none"/>
    </clipPath>
    <clipPath id="a">
      <rect x="0" y="0" width="294" height="300" fill="none"/>
    </clipPath>
  </defs>
  <rect fill="#fbfbfb" class="highcharts-background" x="0" y="0" width="485" height="415" rx="0" ry="0"/>
  <rect fill="none" class="highcharts-plot-background" x="84" y="70" width="300" height="294"/>
  <g class="highcharts-pane-group"/>
  <g class="highcharts-grid highcharts-xaxis-grid ">
    <path fill="none" class="highcharts-grid-line" d="M 84 93.5 L 384 93.5" opacity="1"/>
    <path fill="none" class="highcharts-grid-line" d="M 84 115.5 L 384 115.5" opacity="1"/>
    <path fill="none" class="highcharts-grid-line" d="M 84 138.5 L 384 138.5" opacity="1"/>
    <path fill="none" class="highcharts-grid-line" d="M 84 160.5 L 384 160.5" opacity="1"/>
    <path fill="none" class="highcharts-grid-line" d="M 84 183.5 L 384 183.5" opacity="1"/>
    <path fill="none" class="highcharts-grid-line" d="M 84 206.5 L 384 206.5" opacity="1"/>
    <path fill="none" class="highcharts-grid-line" d="M 84 228.5 L 384 228.5" opacity="1"/>
    <path fill="none" class="highcharts-grid-line" d="M 84 251.5 L 384 251.5" opacity="1"/>
    <path fill="none" class="highcharts-grid-line" d="M 84 274.5 L 384 274.5" opacity="1"/>
    <path fill="none" class="highcharts-grid-line" d="M 84 296.5 L 384 296.5" opacity="1"/>
    <path fill="none" class="highcharts-grid-line" d="M 84 319.5 L 384 319.5" opacity="1"/>
    <path fill="none" class="highcharts-grid-line" d="M 84 341.5 L 384 341.5" opacity="1"/>
    <path fill="none" class="highcharts-grid-line" d="M 84 364.5 L 384 364.5" opacity="1"/>
    <path fill="none" class="highcharts-grid-line" d="M 84 70.5 L 384 70.5" opacity="1"/>
  </g>
  <g class="highcharts-grid highcharts-yaxis-grid ">
    <path fill="none" stroke="#e6e6e6" stroke-width="1" class="highcharts-grid-line" d="M 83.5 70 L 83.5 364" opacity="1"/>
    <path fill="none" stroke="#e6e6e6" stroke-width="1" class="highcharts-grid-line" d="M 158.5 70 L 158.5 364" opacity="1"/>
    <path fill="none" stroke="#e6e6e6" stroke-width="1" class="highcharts-grid-line" d="M 233.5 70 L 233.5 364" opacity="1"/>
    <path fill="none" stroke="#e6e6e6" stroke-width="1" class="highcharts-grid-line" d="M 308.5 70 L 308.5 364" opacity="1"/>
    <path fill="none" stroke="#e6e6e6" stroke-width="1" class="highcharts-grid-line" d="M 384.5 70 L 384.5 364" opacity="1"/>
  </g>
  <rect fill="none" class="highcharts-plot-border" x="84" y="70" width="300" height="294"/>
  <g class="highcharts-axis highcharts-xaxis ">
    <path fill="none" class="highcharts-tick" stroke="#FFFFFF" stroke-width="1" d="M 84 93.5 L 74 93.5" opacity="1"/>
    <path fill="none" class="highcharts-tick" stroke="#FFFFFF" stroke-width="1" d="M 84 115.5 L 74 115.5" opacity="1"/>
    <path fill="none" class="highcharts-tick" stroke="#FFFFFF" stroke-width="1" d="M 84 138.5 L 74 138.5" opacity="1"/>
    <path fill="none" class="highcharts-tick" stroke="#FFFFFF" stroke-width="1" d="M 84 160.5 L 74 160.5" opacity="1"/>
    <path fill="none" class="highcharts-tick" stroke="#FFFFFF" stroke-width="1" d="M 84 183.5 L 74 183.5" opacity="1"/>
    <path fill="none" class="highcharts-tick" stroke="#FFFFFF" stroke-width="1" d="M 84 206.5 L 74 206.5" opacity="1"/>
    <path fill="none" class="highcharts-tick" stroke="#FFFFFF" stroke-width="1" d="M 84 228.5 L 74 228.5" opacity="1"/>
    <path fill="none" class="highcharts-tick" stroke="#FFFFFF" stroke-width="1" d="M 84 251.5 L 74 251.5" opacity="1"/>
    <path fill="none" class="highcharts-tick" stroke="#FFFFFF" stroke-width="1" d="M 84 274.5 L 74 274.5" opacity="1"/>
    <path fill="none" class="highcharts-tick" stroke="#FFFFFF" stroke-width="1" d="M 84 296.5 L 74 296.5" opacity="1"/>
    <path fill="none" class="highcharts-tick" stroke="#FFFFFF" stroke-width="1" d="M 84 319.5 L 74 319.5" opacity="1"/>
    <path fill="none" class="highcharts-tick" stroke="#FFFFFF" stroke-width="1" d="M 84 341.5 L 74 341.5" opacity="1"/>
    <path fill="none" class="highcharts-tick" stroke="#FFFFFF" stroke-width="1" d="M 84 364.5 L 74 364.5" opacity="1"/>
    <path fill="none" class="highcharts-tick" stroke="#FFFFFF" stroke-width="1" d="M 84 69.5 L 74 69.5" opacity="1"/>
    <path fill="none" class="highcharts-axis-line" stroke="#ccd6eb" stroke-width="1" d="M 83.5 70 L 83.5 364"/>
  </g>
  <g class="highcharts-axis highcharts-yaxis ">
    <path fill="none" class="highcharts-axis-line" d="M 84 364 L 384 364"/>
  </g>
  <g class="highcharts-series-group">
    <g class="highcharts-series highcharts-series-0 highcharts-column-series highcharts-color-undefined " transform="translate(384,364) rotate(90) scale(-1,1) scale(1 1)" clip-path="url(#a)">
      <rect x="274" y="1" width="19" height="0" fill="#b00000" class="highcharts-point"/>
      <rect x="251" y="0" width="19" height="3" fill="#b00000" class="highcharts-point"/>
      <rect x="228" y="0" width="19" height="2" fill="#b00000" class="highcharts-point"/>
      <rect x="206" y="1" width="19" height="0" fill="#b00000" class="highcharts-point"/>
      <rect x="183" y="0" width="19" height="2" fill="#b00000" class="highcharts-point"/>
      <rect x="161" y="0" width="19" height="4" fill="#b00000" class="highcharts-point"/>
      <rect x="115" y="1" width="19" height="0" fill="#b00000" class="highcharts-point"/>
      <rect x="93" y="0" width="19" height="3" fill="#b00000" class="highcharts-point"/>
      <rect x="70" y="1" width="19" height="0" fill="#b00000" class="highcharts-point"/>
      <rect x="47" y="1" width="19" height="0" fill="#b00000" class="highcharts-point"/>
      <rect x="25" y="0" width="19" height="2" fill="#b00000" class="highcharts-point"/>
      <rect x="2" y="0" width="19" height="2" fill="#b00000" class="highcharts-point"/>
    </g>
    <g class="highcharts-markers highcharts-series-0 highcharts-column-series highcharts-color-undefined " transform="translate(384,364) rotate(90) scale(-1,1) scale(1 1)" clip-path="none"/>
    <g class="highcharts-series highcharts-series-1 highcharts-column-series highcharts-color-undefined " transform="translate(384,364) rotate(90) scale(-1,1) scale(1 1)" clip-path="url(#a)">
      <rect x="274" y="1" width="19" height="0" fill="#dc440e" class="highcharts-point"/>
      <rect x="251" y="3" width="19" height="2" fill="#dc440e" class="highcharts-point"/>
      <rect x="228" y="2" width="19" height="0" fill="#dc440e" class="highcharts-point"/>
      <rect x="206" y="0" width="19" height="2" fill="#dc440e" class="highcharts-point"/>
      <rect x="183" y="2" width="19" height="0" fill="#dc440e" class="highcharts-point"/>
      <rect x="161" y="4" width="19" height="2" fill="#dc440e" class="highcharts-point"/>
      <rect x="115" y="1" width="19" height="0" fill="#dc440e" class="highcharts-point"/>
      <rect x="93" y="3" width="19" height="0" fill="#dc440e" class="highcharts-point"/>
      <rect x="70" y="1" width="19" height="0" fill="#dc440e" class="highcharts-point"/>
      <rect x="47" y="0" width="19" height="2" fill="#dc440e" class="highcharts-point"/>
      <rect x="25" y="2" width="19" height="0" fill="#dc440e" class="highcharts-point"/>
      <rect x="2" y="2" width="19" height="1" fill="#dc440e" class="highcharts-point"/>
    </g>
    <g class="highcharts-markers highcharts-series-1 highcharts-column-series highcharts-color-undefined " transform="translate(384,364) rotate(90) scale(-1,1) scale(1 1)" clip-path="none"/>
    <g class="highcharts-series highcharts-series-2 highcharts-column-series highcharts-color-undefined " transform="translate(384,364) rotate(90) scale(-1,1) scale(1 1)" clip-path="url(#a)">
      <rect x="274" y="1" width="19" height="0" fill="#ff8028" class="highcharts-point"/>
      <rect x="251" y="5" width="19" height="3" fill="#ff8028" class="highcharts-point"/>
      <rect x="228" y="2" width="19" height="0" fill="#ff8028" class="highcharts-point"/>
      <rect x="206" y="2" width="19" height="1" fill="#ff8028" class="highcharts-point"/>
      <rect x="183" y="2" width="19" height="4" fill="#ff8028" class="highcharts-point"/>
      <rect x="161" y="6" width="19" height="5" fill="#ff8028" class="highcharts-point"/>
      <rect x="115" y="0" width="19" height="4" fill="#ff8028" class="highcharts-point"/>
      <rect x="93" y="3" width="19" height="0" fill="#ff8028" class="highcharts-point"/>
      <rect x="70" y="0" width="19" height="6" fill="#ff8028" class="highcharts-point"/>
      <rect x="47" y="2" width="19" height="1" fill="#ff8028" class="highcharts-point"/>
      <rect x="25" y="2" width="19" height="3" fill="#ff8028" class="highcharts-point"/>
      <rect x="2" y="3" width="19" height="3" fill="#ff8028" class="highcharts-point"/>
    </g>
    <g class="highcharts-markers highcharts-series-2 highcharts-column-series highcharts-color-undefined " transform="translate(384,364) rotate(90) scale(-1,1) scale(1 1)" clip-path="none"/>
    <g class="highcharts-series highcharts-series-3 highcharts-column-series highcharts-color-undefined " transform="translate(384,364) rotate(90) scale(-1,1) scale(1 1)" clip-path="url(#a)">
      <rect x="274" y="0" width="19" height="8" fill="#ffbb58" class="highcharts-point"/>
      <rect x="251" y="8" width="19" height="0" fill="#ffbb58" class="highcharts-point"/>
      <rect x="228" y="2" width="19" height="2" fill="#ffbb58" class="highcharts-point"/>
      <rect x="206" y="3" width="19" height="6" fill="#ffbb58" class="highcharts-point"/>
      <rect x="183" y="6" width="19" height="3" fill="#ffbb58" class="highcharts-point"/>
      <rect x="161" y="11" width="19" height="5" fill="#ffbb58" class="highcharts-point"/>
      <rect x="115" y="4" width="19" height="0" fill="#ffbb58" class="highcharts-point"/>
      <rect x="93" y="3" width="19" height="8" fill="#ffbb58" class="highcharts-point"/>
      <rect x="70" y="6" width="19" height="7" fill="#ffbb58" class="highcharts-point"/>
      <rect x="47" y="3" width="19" height="2" fill="#ffbb58" class="highcharts-point"/>
      <rect x="25" y="5" width="19" height="5" fill="#ffbb58" class="highcharts-point"/>
      <rect x="2" y="6" width="19" height="1" fill="#ffbb58" class="highcharts-point"/>
    </g>
    <g class="highcharts-markers highcharts-series-3 highcharts-column-series highcharts-color-undefined " transform="translate(384,364) rotate(90) scale(-1,1) scale(1 1)" clip-path="none"/>
    <g class="highcharts-series highcharts-series-4 highcharts-column-series highcharts-color-undefined " transform="translate(384,364) rotate(90) scale(-1,1) scale(1 1)" clip-path="url(#a)">
      <rect x="274" y="8" width="19" height="5" fill="#71a3b5" class="highcharts-point"/>
      <rect x="251" y="8" width="19" height="5" fill="#71a3b5" class="highcharts-point"/>
      <rect x="228" y="4" width="19" height="15" fill="#71a3b5" class="highcharts-point"/>
      <rect x="206" y="9" width="19" height="20" fill="#71a3b5" class="highcharts-point"/>
      <rect x="183" y="9" width="19" height="27" fill="#71a3b5" class="highcharts-point"/>
      <rect x="161" y="16" width="19" height="28" fill="#71a3b5" class="highcharts-point"/>
      <rect x="115" y="4" width="19" height="3" fill="#71a3b5" class="highcharts-point"/>
      <rect x="93" y="11" width="19" height="7" fill="#71a3b5" class="highcharts-point"/>
      <rect x="70" y="13" width="19" height="12" fill="#71a3b5" class="highcharts-point"/>
      <rect x="47" y="5" width="19" height="15" fill="#71a3b5" class="highcharts-point"/>
      <rect x="25" y="10" width="19" height="16" fill="#71a3b5" class="highcharts-point"/>
      <rect x="2" y="7" width="19" height="31" fill="#71a3b5" class="highcharts-point"/>
    </g>
    <g class="highcharts-markers highcharts-series-4 highcharts-column-series highcharts-color-undefined " transform="translate(384,364) rotate(90) scale(-1,1) scale(1 1)" clip-path="none"/>
    <g class="highcharts-series highcharts-series-5 highcharts-column-series highcharts-color-undefined " transform="translate(384,364) rotate(90) scale(-1,1) scale(1 1)" clip-path="url(#a)">
      <rect x="274" y="13" width="19" height="10" fill="#b9cfd7" class="highcharts-point"/>
      <rect x="251" y="13" width="19" height="13" fill="#b9cfd7" class="highcharts-point"/>
      <rect x="228" y="19" width="19" height="21" fill="#b9cfd7" class="highcharts-point"/>
      <rect x="206" y="29" width="19" height="16" fill="#b9cfd7" class="highcharts-point"/>
      <rect x="183" y="36" width="19" height="25" fill="#b9cfd7" class="highcharts-point"/>
      <rect x="161" y="44" width="19" height="21" fill="#b9cfd7" class="highcharts-point"/>
      <rect x="115" y="7" width="19" height="13" fill="#b9cfd7" class="highcharts-point"/>
      <rect x="93" y="18" width="19" height="8" fill="#b9cfd7" class="highcharts-point"/>
      <rect x="70" y="25" width="19" height="9" fill="#b9cfd7" class="highcharts-point"/>
      <rect x="47" y="20" width="19" height="25" fill="#b9cfd7" class="highcharts-point"/>
      <rect x="25" y="26" width="19" height="22" fill="#b9cfd7" class="highcharts-point"/>
      <rect x="2" y="38" width="19" height="20" fill="#b9cfd7" class="highcharts-point"/>
    </g>
    <g class="highcharts-markers highcharts-series-5 highcharts-column-series highcharts-color-undefined " transform="translate(384,364) rotate(90) scale(-1,1) scale(1 1)" clip-path="none"/>
    <g class="highcharts-series highcharts-series-6 highcharts-column-series highcharts-color-undefined " transform="translate(384,364) rotate(90) scale(-1,1) scale(1 1)" clip-path="url(#a)">
      <rect x="274" y="23" width="19" height="84" fill="#d7e9d2" class="highcharts-point"/>
      <rect x="251" y="26" width="19" height="91" fill="#d7e9d2" class="highcharts-point"/>
      <rect x="228" y="40" width="19" height="75" fill="#d7e9d2" class="highcharts-point"/>
      <rect x="206" y="45" width="19" height="66" fill="#d7e9d2" class="highcharts-point"/>
      <rect x="183" y="61" width="19" height="60" fill="#d7e9d2" class="highcharts-point"/>
      <rect x="161" y="65" width="19" height="40" fill="#d7e9d2" class="highcharts-point"/>
      <rect x="115" y="20" width="19" height="61" fill="#d7e9d2" class="highcharts-point"/>
      <rect x="93" y="26" width="19" height="63" fill="#d7e9d2" class="highcharts-point"/>
      <rect x="70" y="34" width="19" height="55" fill="#d7e9d2" class="highcharts-point"/>
      <rect x="47" y="45" width="19" height="56" fill="#d7e9d2" class="highcharts-point"/>
      <rect x="25" y="48" width="19" height="60" fill="#d7e9d2" class="highcharts-point"/>
      <rect x="2" y="58" width="19" height="53" fill="#d7e9d2" class="highcharts-point"/>
    </g>
    <g class="highcharts-markers highcharts-series-6 highcharts-column-series highcharts-color-undefined " transform="translate(384,364) rotate(90) scale(-1,1) scale(1 1)" clip-path="none"/>
    <g class="highcharts-series highcharts-series-7 highcharts-column-series highcharts-color-undefined " transform="translate(384,364) rotate(90) scale(-1,1) scale(1 1)" clip-path="url(#a)">
      <rect x="274" y="107" width="19" height="124" fill="#73ba7c" class="highcharts-point"/>
      <rect x="251" y="117" width="19" height="121" fill="#73ba7c" class="highcharts-point"/>
      <rect x="228" y="115" width="19" height="116" fill="#73ba7c" class="highcharts-point"/>
      <rect x="206" y="111" width="19" height="128" fill="#73ba7c" class="highcharts-point"/>
      <rect x="183" y="121" width="19" height="107" fill="#73ba7c" class="highcharts-point"/>
      <rect x="161" y="105" width="19" height="106" fill="#73ba7c" class="highcharts-point"/>
      <rect x="115" y="81" width="19" height="133" fill="#73ba7c" class="highcharts-point"/>
      <rect x="93" y="89" width="19" height="120" fill="#73ba7c" class="highcharts-point"/>
      <rect x="70" y="89" width="19" height="132" fill="#73ba7c" class="highcharts-point"/>
      <rect x="47" y="101" width="19" height="112" fill="#73ba7c" class="highcharts-point"/>
      <rect x="25" y="108" width="19" height="124" fill="#73ba7c" class="highcharts-point"/>
      <rect x="2" y="111" width="19" height="112" fill="#73ba7c" class="highcharts-point"/>
    </g>
    <g class="highcharts-markers highcharts-series-7 highcharts-column-series highcharts-color-undefined " transform="translate(384,364) rotate(90) scale(-1,1) scale(1 1)" clip-path="none"/>
    <g class="highcharts-series highcharts-series-8 highcharts-column-series highcharts-color-undefined " transform="translate(384,364) rotate(90) scale(-1,1) scale(1 1)" clip-path="url(#a)">
      <rect x="274" y="231" width="19" height="40" fill="#44ab2b" class="highcharts-point"/>
      <rect x="251" y="238" width="19" height="37" fill="#44ab2b" class="highcharts-point"/>
      <rect x="228" y="231" width="19" height="42" fill="#44ab2b" class="highcharts-point"/>
      <rect x="206" y="239" width="19" height="34" fill="#44ab2b" class="highcharts-point"/>
      <rect x="183" y="228" width="19" height="31" fill="#44ab2b" class="highcharts-point"/>
      <rect x="161" y="211" width="19" height="24" fill="#44ab2b" class="highcharts-point"/>
      <rect x="115" y="214" width="19" height="53" fill="#44ab2b" class="highcharts-point"/>
      <rect x="93" y="209" width="19" height="57" fill="#44ab2b" class="highcharts-point"/>
      <rect x="70" y="221" width="19" height="56" fill="#44ab2b" class="highcharts-point"/>
      <rect x="47" y="213" width="19" height="55" fill="#44ab2b" class="highcharts-point"/>
      <rect x="25" y="232" width="19" height="40" fill="#44ab2b" class="highcharts-point"/>
      <rect x="2" y="223" width="19" height="35" fill="#44ab2b" class="highcharts-point"/>
    </g>
    <g class="highcharts-markers highcharts-series-8 highcharts-column-series highcharts-color-undefined " transform="translate(384,364) rotate(90) scale(-1,1) scale(1 1)" clip-path="none"/>
    <g class="highcharts-series highcharts-series-9 highcharts-column-series highcharts-color-undefined " transform="translate(384,364) rotate(90) scale(-1,1) scale(1 1)" clip-path="url(#a)">
      <rect x="274" y="271" width="19" height="30" fill="#007a2f" class="highcharts-point"/>
      <rect x="251" y="275" width="19" height="26" fill="#007a2f" class="highcharts-point"/>
      <rect x="228" y="273" width="19" height="28" fill="#007a2f" class="highcharts-point"/>
      <rect x="206" y="273" width="19" height="28" fill="#007a2f" class="highcharts-point"/>
      <rect x="183" y="259" width="19" height="42" fill="#007a2f" class="highcharts-point"/>
      <rect x="161" y="235" width="19" height="66" fill="#007a2f" class="highcharts-point"/>
      <rect x="115" y="267" width="19" height="34" fill="#007a2f" class="highcharts-point"/>
      <rect x="93" y="266" width="19" height="35" fill="#007a2f" class="highcharts-point"/>
      <rect x="70" y="277" width="19" height="24" fill="#007a2f" class="highcharts-point"/>
      <rect x="47" y="268" width="19" height="33" fill="#007a2f" class="highcharts-point"/>
      <rect x="25" y="272" width="19" height="29" fill="#007a2f" class="highcharts-point"/>
      <rect x="2" y="258" width="19" height="43" fill="#007a2f" class="highcharts-point"/>
    </g>
    <g class="highcharts-markers highcharts-series-9 highcharts-column-series highcharts-color-undefined " transform="translate(384,364) rotate(90) scale(-1,1) scale(1 1)" clip-path="none"/>
  </g>
  <text x="10" text-anchor="start" class="highcharts-title" style="color:#000000;font-size:14px;font-weight:bold;fill:#000000;" y="21">
    <tspan>Bewertung der Lebensqualität nach Alter</tspan>
  </text>
  <text x="10" text-anchor="start" class="highcharts-subtitle" style="color:#000000;font-size:12px;fill:#000000;" y="40">
    <tspan>«Wie würden Sie die Lebensqualität im Kanton Basel-Stadt insgesamt</tspan><tspan dy="15" x="10">bewerten?»</tspan><title>«Wie würden Sie die Lebensqualität im Kanton Basel-Stadt insgesamt bewerten?»</title>
  </text>
  <g class="highcharts-legend" transform="translate(396,97)">
    <rect fill="none" class="highcharts-legend-box" rx="0" ry="0" x="0" y="0" width="79" height="201" visibility="visible"/>
    <g>
      <g>
        <g class="highcharts-legend-item highcharts-column-series highcharts-color-undefined highcharts-series-9" transform="translate(8,3)">
          <text x="21" style="color:#333333;font-size:12px;font-weight:normal;cursor:pointer;fill:#333333;" text-anchor="start" y="15">
            <tspan>Note 10</tspan>
          </text>
          <rect x="2" y="4" width="12" height="12" fill="#007a2f" class="highcharts-point"/>
        </g>
        <g class="highcharts-legend-item highcharts-column-series highcharts-color-undefined highcharts-series-8" transform="translate(8,22)">
          <text x="21" y="15" style="color:#333333;font-size:12px;font-weight:normal;cursor:pointer;fill:#333333;" text-anchor="start">
            <tspan>Note 9</tspan>
          </text>
          <rect x="2" y="4" width="12" height="12" fill="#44ab2b" class="highcharts-point"/>
        </g>
        <g class="highcharts-legend-item highcharts-column-series highcharts-color-undefined highcharts-series-7" transform="translate(8,41)">
          <text x="21" y="15" style="color:#333333;font-size:12px;font-weight:normal;cursor:pointer;fill:#333333;" text-anchor="start">
            <tspan>Note 8</tspan>
          </text>
          <rect x="2" y="4" width="12" height="12" fill="#73ba7c" class="highcharts-point"/>
        </g>
        <g class="highcharts-legend-item highcharts-column-series highcharts-color-undefined highcharts-series-6" transform="translate(8,60)">
          <text x="21" y="15" style="color:#333333;font-size:12px;font-weight:normal;cursor:pointer;fill:#333333;" text-anchor="start">
            <tspan>Note 7</tspan>
          </text>
          <rect x="2" y="4" width="12" height="12" fill="#d7e9d2" class="highcharts-point"/>
        </g>
        <g class="highcharts-legend-item highcharts-column-series highcharts-color-undefined highcharts-series-5" transform="translate(8,79)">
          <text x="21" y="15" style="color:#333333;font-size:12px;font-weight:normal;cursor:pointer;fill:#333333;" text-anchor="start">
            <tspan>Note 6</tspan>
          </text>
          <rect x="2" y="4" width="12" height="12" fill="#b9cfd7" class="highcharts-point"/>
        </g>
        <g class="highcharts-legend-item highcharts-column-series highcharts-color-undefined highcharts-series-4" transform="translate(8,98)">
          <text x="21" y="15" style="color:#333333;font-size:12px;font-weight:normal;cursor:pointer;fill:#333333;" text-anchor="start">
            <tspan>Note 5</tspan>
          </text>
          <rect x="2" y="4" width="12" height="12" fill="#71a3b5" class="highcharts-point"/>
        </g>
        <g class="highcharts-legend-item highcharts-column-series highcharts-color-undefined highcharts-series-3" transform="translate(8,117)">
          <text x="21" y="15" style="color:#333333;font-size:12px;font-weight:normal;cursor:pointer;fill:#333333;" text-anchor="start">
            <tspan>Note 4</tspan>
          </text>
          <rect x="2" y="4" width="12" height="12" fill="#ffbb58" class="highcharts-point"/>
        </g>
        <g class="highcharts-legend-item highcharts-column-series highcharts-color-undefined highcharts-series-2" transform="translate(8,136)">
          <text x="21" y="15" style="color:#333333;font-size:12px;font-weight:normal;cursor:pointer;fill:#333333;" text-anchor="start">
            <tspan>Note 3</tspan>
          </text>
          <rect x="2" y="4" width="12" height="12" fill="#ff8028" class="highcharts-point"/>
        </g>
        <g class="highcharts-legend-item highcharts-column-series highcharts-color-undefined highcharts-series-1" transform="translate(8,155)">
          <text x="21" y="15" style="color:#333333;font-size:12px;font-weight:normal;cursor:pointer;fill:#333333;" text-anchor="start">
            <tspan>Note 2</tspan>
          </text>
          <rect x="2" y="4" width="12" height="12" fill="#dc440e" class="highcharts-point"/>
        </g>
        <g class="highcharts-legend-item highcharts-column-series highcharts-color-undefined highcharts-series-0" transform="translate(8,174)">
          <text x="21" y="15" style="color:#333333;font-size:12px;font-weight:normal;cursor:pointer;fill:#333333;" text-anchor="start">
            <tspan>Note 1</tspan>
          </text>
          <rect x="2" y="4" width="12" height="12" fill="#b00000" class="highcharts-point"/>
        </g>
      </g>
    </g>
  </g>
  <g class="highcharts-axis-labels highcharts-xaxis-labels ">
    <text x="69" style="color:#000000;cursor:default;font-size:11px;fill:#000000;" text-anchor="end" transform="translate(0,0)" y="86" opacity="1">
      <tspan>2011: 18-29</tspan>
    </text>
    <text x="69" style="color:#000000;cursor:default;font-size:11px;fill:#000000;" text-anchor="end" transform="translate(0,0)" y="108" opacity="1">
      <tspan>2011: 30-39</tspan>
    </text>
    <text x="69" style="color:#000000;cursor:default;font-size:11px;fill:#000000;" text-anchor="end" transform="translate(0,0)" y="131" opacity="1">
      <tspan>2011: 40-49</tspan>
    </text>
    <text x="69" style="color:#000000;cursor:default;font-size:11px;fill:#000000;" text-anchor="end" transform="translate(0,0)" y="154" opacity="1">
      <tspan>2011: 50-59</tspan>
    </text>
    <text x="69" style="color:#000000;cursor:default;font-size:11px;fill:#000000;" text-anchor="end" transform="translate(0,0)" y="176" opacity="1">
      <tspan>2011: 60-69</tspan>
    </text>
    <text x="69" style="color:#000000;cursor:default;font-size:11px;fill:#000000;" text-anchor="end" transform="translate(0,0)" y="199" opacity="1">
      <tspan>2011: &gt; 69</tspan>
    </text>
    <text x="69" style="color:#000000;cursor:default;font-size:11px;fill:#000000;" text-anchor="end" transform="translate(0,0)" y="228" opacity="1"/>
    <text x="69" style="color:#000000;cursor:default;font-size:11px;fill:#000000;" text-anchor="end" transform="translate(0,0)" y="244" opacity="1">
      <tspan>2015: 18-29</tspan>
    </text>
    <text x="69" style="color:#000000;cursor:default;font-size:11px;fill:#000000;" text-anchor="end" transform="translate(0,0)" y="267" opacity="1">
      <tspan>2015: 30-39</tspan>
    </text>
    <text x="69" style="color:#000000;cursor:default;font-size:11px;fill:#000000;" text-anchor="end" transform="translate(0,0)" y="289" opacity="1">
      <tspan>2015: 40-49</tspan>
    </text>
    <text x="69" style="color:#000000;cursor:default;font-size:11px;fill:#000000;" text-anchor="end" transform="translate(0,0)" y="312" opacity="1">
      <tspan>2015: 50-59</tspan>
    </text>
    <text x="69" style="color:#000000;cursor:default;font-size:11px;fill:#000000;" text-anchor="end" transform="translate(0,0)" y="335" opacity="1">
      <tspan>2015: 60-69</tspan>
    </text>
    <text x="69" style="color:#000000;cursor:default;font-size:11px;fill:#000000;" text-anchor="end" transform="translate(0,0)" y="357" opacity="1">
      <tspan>2015: &gt; 69</tspan>
    </text>
  </g>
  <g class="highcharts-axis-labels highcharts-yaxis-labels ">
    <text x="84" style="color:#000000;cursor:default;font-size:11px;fill:#000000;" text-anchor="middle" transform="translate(0,0)" y="383" opacity="1">
      <tspan>0%</tspan>
    </text>
    <text x="159" style="color:#000000;cursor:default;font-size:11px;fill:#000000;" text-anchor="middle" transform="translate(0,0)" y="383" opacity="1">
      <tspan>25%</tspan>
    </text>
    <text x="234" style="color:#000000;cursor:default;font-size:11px;fill:#000000;" text-anchor="middle" transform="translate(0,0)" y="383" opacity="1">
      <tspan>50%</tspan>
    </text>
    <text x="309" style="color:#000000;cursor:default;font-size:11px;fill:#000000;" text-anchor="middle" transform="translate(0,0)" y="383" opacity="1">
      <tspan>75%</tspan>
    </text>
    <text x="384" style="color:#000000;cursor:default;font-size:11px;fill:#000000;" text-anchor="middle" transform="translate(0,0)" y="383" opacity="1">
      <tspan>100%</tspan>
    </text>
  </g>
  <text x="10" class="highcharts-credits" text-anchor="start" style="cursor:default;color:#000000;font-size:10px;fill:#000000;" y="400">
    <tspan>Quelle: Statistisches Amt Basel-Stadt, kantonale Bevölkerungsbefragung: F4</tspan>
  </text>
</svg>
