<?xml version="1.0" standalone="no"?><!DOCTYPE svg PUBLIC "-//W3C//DTD SVG 1.1//EN" "http://www.w3.org/Graphics/SVG/1.1/DTD/svg11.dtd"><svg xmlns:xlink="http://www.w3.org/1999/xlink" version="1.1" class="highcharts-root" style="font-family:Arial;font-size:12px;" xmlns="http://www.w3.org/2000/svg" viewBox="0 0 485 415"><desc>Created with Highcharts 9.0.1</desc><defs><clipPath id="highcharts-9ndx4vf-192-"><rect x="0" y="0" width="355" height="209" fill="none"></rect></clipPath><clipPath id="highcharts-9ndx4vf-254-"><rect x="0" y="0" width="355" height="209" fill="none"></rect></clipPath><clipPath id="highcharts-9ndx4vf-377-"><rect x="0" y="0" width="355" height="209" fill="none"></rect></clipPath><clipPath id="highcharts-9ndx4vf-378-"><rect x="65" y="135" width="355" height="209" fill="none"></rect></clipPath></defs><rect fill="#fbfbfb" class="highcharts-background" x="0" y="0" width="485" height="428" rx="0" ry="0"></rect><rect fill="none" class="highcharts-plot-background" x="65" y="135" width="355" height="209"></rect><g class="highcharts-pane-group" data-z-index="0"></g><g class="highcharts-grid highcharts-xaxis-grid" data-z-index="1"><path fill="none" data-z-index="1" class="highcharts-grid-line" d="M 67.5 135 L 67.5 344" opacity="1"></path><path fill="none" data-z-index="1" class="highcharts-grid-line" d="M 96.5 135 L 96.5 344" opacity="1"></path><path fill="none" data-z-index="1" class="highcharts-grid-line" d="M 125.5 135 L 125.5 344" opacity="1"></path><path fill="none" data-z-index="1" class="highcharts-grid-line" d="M 154.5 135 L 154.5 344" opacity="1"></path><path fill="none" data-z-index="1" class="highcharts-grid-line" d="M 183.5 135 L 183.5 344" opacity="1"></path><path fill="none" data-z-index="1" class="highcharts-grid-line" d="M 212.5 135 L 212.5 344" opacity="1"></path><path fill="none" data-z-index="1" class="highcharts-grid-line" d="M 242.5 135 L 242.5 344" opacity="1"></path><path fill="none" data-z-index="1" class="highcharts-grid-line" d="M 271.5 135 L 271.5 344" opacity="1"></path><path fill="none" data-z-index="1" class="highcharts-grid-line" d="M 300.5 135 L 300.5 344" opacity="1"></path><path fill="none" data-z-index="1" class="highcharts-grid-line" d="M 329.5 135 L 329.5 344" opacity="1"></path><path fill="none" data-z-index="1" class="highcharts-grid-line" d="M 358.5 135 L 358.5 344" opacity="1"></path><path fill="none" data-z-index="1" class="highcharts-grid-line" d="M 387.5 135 L 387.5 344" opacity="1"></path><path fill="none" data-z-index="1" class="highcharts-grid-line" d="M 416.5 135 L 416.5 344" opacity="1"></path></g><g class="highcharts-grid highcharts-yaxis-grid" data-z-index="1"><path fill="none" stroke="#e6e6e6" stroke-width="1" data-z-index="1" class="highcharts-grid-line" d="M 65 344.5 L 420 344.5" opacity="1"></path><path fill="none" stroke="#e6e6e6" stroke-width="1" data-z-index="1" class="highcharts-grid-line" d="M 65 302.5 L 420 302.5" opacity="1"></path><path fill="none" stroke="#e6e6e6" stroke-width="1" data-z-index="1" class="highcharts-grid-line" d="M 65 260.5 L 420 260.5" opacity="1"></path><path fill="none" stroke="#e6e6e6" stroke-width="1" data-z-index="1" class="highcharts-grid-line" d="M 65 219.5 L 420 219.5" opacity="1"></path><path fill="none" stroke="#e6e6e6" stroke-width="1" data-z-index="1" class="highcharts-grid-line" d="M 65 177.5 L 420 177.5" opacity="1"></path><path fill="none" stroke="#e6e6e6" stroke-width="1" data-z-index="1" class="highcharts-grid-line" d="M 65 134.5 L 420 134.5" opacity="1"></path></g><g class="highcharts-grid highcharts-yaxis-grid" data-z-index="1"><path fill="none" stroke="#e6e6e6" stroke-width="1" data-z-index="1" class="highcharts-grid-line" d="M 65 344.5 L 420 344.5" opacity="1"></path><path fill="none" stroke="#e6e6e6" stroke-width="1" data-z-index="1" class="highcharts-grid-line" d="M 65 302.5 L 420 302.5" opacity="1"></path><path fill="none" stroke="#e6e6e6" stroke-width="1" data-z-index="1" class="highcharts-grid-line" d="M 65 260.5 L 420 260.5" opacity="1"></path><path fill="none" stroke="#e6e6e6" stroke-width="1" data-z-index="1" class="highcharts-grid-line" d="M 65 219.5 L 420 219.5" opacity="1"></path><path fill="none" stroke="#e6e6e6" stroke-width="1" data-z-index="1" class="highcharts-grid-line" d="M 65 177.5 L 420 177.5" opacity="1"></path><path fill="none" stroke="#e6e6e6" stroke-width="1" data-z-index="1" class="highcharts-grid-line" d="M 65 134.5 L 420 134.5" opacity="1"></path></g><rect fill="none" class="highcharts-plot-border" data-z-index="1" x="65" y="135" width="355" height="209"></rect><g class="highcharts-axis highcharts-xaxis" data-z-index="2"><path fill="none" class="highcharts-axis-line" stroke="#B9CFD7" stroke-width="0.5" data-z-index="7" d="M 65 344.25 L 420 344.25"></path></g><g class="highcharts-axis highcharts-yaxis" data-z-index="2"><path fill="none" class="highcharts-axis-line" data-z-index="7" d="M 65 135 L 65 344"></path></g><g class="highcharts-axis highcharts-yaxis" data-z-index="2"><path fill="none" class="highcharts-axis-line" data-z-index="7" d="M 420 135 L 420 344"></path></g><g class="highcharts-series-group" data-z-index="3"><g class="highcharts-series highcharts-series-0 highcharts-area-series" data-z-index="0.1" opacity="1" transform="translate(65,135) scale(1 1)" clip-path="url(#highcharts-9ndx4vf-254-)"><path fill="rgb(168,195,202)" fill-opacity="0.75" d="M 3.4803921568622 77.855008 L 9.2810457516335 75.295176 L 15.081699346405 71.39774399999999 L 20.882352941176 70.07184799999999 L 26.683006535947 67.78455199999999 L 32.483660130719 65.49558399999998 L 38.28431372549 63.693167999999986 L 44.084967320261 62.92906399999998 L 49.885620915032 61.785416 L 55.686274509804 60.47958399999999 L 61.486928104575 55.665896000000004 L 67.287581699346 53.794928 L 73.088235294117 51.83534399999999 L 78.888888888889 49.76206399999998 L 84.68954248366 48.03990399999998 L 90.490196078431 46.01176799999999 L 96.290849673202 45.13731199999998 L 102.09150326797 44.66079199999999 L 107.89215686274 43.82646399999999 L 113.69281045752 43.47868799999998 L 119.49346405229 43.81810399999998 L 125.29411764706 42.48886399999998 L 131.09477124183 42.03073599999999 L 136.8954248366 41.321808000000004 L 142.69607843137 40.467415999999986 L 148.49673202614 39.790256 L 154.29738562091 39.295344 L 160.09803921569 38.72686399999998 L 165.89869281046 38.75863199999998 L 171.69934640523 38.63991999999999 L 177.5 38.613168 L 183.30065359477 38.552976 L 189.10130718954 38.32558399999999 L 194.90196078431 37.64173599999998 L 200.70261437909 37.12675999999999 L 206.50326797386 36.396096 L 212.30392156863 35.48987199999999 L 218.1045751634 35.540032 L 223.90522875817 35.327687999999995 L 229.70588235294 35.140423999999996 L 235.50653594771 34.95817599999998 L 241.30718954248 35.071871999999985 L 247.10784313726 34.672263999999984 L 252.90849673203 34.53014399999998 L 258.7091503268 34.444872000000004 L 264.50980392157 34.483328 L 270.31045751634 34.061983999999995 L 276.11111111111 33.871376 L 281.91176470588 33.869703999999984 L 287.71241830065 33.777743999999984 L 293.51307189543 33.309584 L 299.3137254902 32.995248000000004 L 305.11437908497 32.16259199999999 L 310.91503267974 31.900087999999982 L 316.71568627451 29.644559999999984 L 322.51633986928 29.644559999999984 L 328.31699346405 27.666584 L 334.11764705882 26.55135999999999 L 339.9183006536 25.148551999999995 L 345.71895424837 23.294303999999983 L 351.51960784314 22.329559999999987 L 351.51960784314 24.123616 L 345.71895424837 25.173631999999998 L 339.9183006536 26.45605599999999 L 334.11764705882 27.464271999999994 L 328.31699346405 28.422327999999993 L 322.51633986928 30.248151999999976 L 316.71568627451 30.05419999999998 L 310.91503267974 32.50368 L 305.11437908497 32.998592 L 299.3137254902 33.868032 L 293.51307189543 34.61875999999998 L 287.71241830065 35.39791199999999 L 281.91176470588 36.03327199999998 L 276.11111111111 36.325872000000004 L 270.31045751634 36.521495999999985 L 264.50980392157 37.13512 L 258.7091503268 36.95621599999998 L 252.90849673203 36.90438399999999 L 247.10784313726 36.984639999999985 L 241.30718954248 37.52302399999999 L 235.50653594771 37.232095999999984 L 229.70588235294 37.818967999999984 L 223.90522875817 37.966104 L 218.1045751634 37.62835999999999 L 212.30392156863 36.83416 L 206.50326797386 37.315696 L 200.70261437909 37.690224 L 194.90196078431 38.05639199999999 L 189.10130718954 38.718503999999996 L 183.30065359477 38.89071999999999 L 177.5 38.905767999999995 L 171.69934640523 39.15656799999999 L 165.89869281046 39.64646399999998 L 160.09803921569 39.91899999999998 L 154.29738562091 40.59783199999998 L 148.49673202614 41.59099999999998 L 142.69607843137 41.860191999999984 L 136.8954248366 42.759727999999996 L 131.09477124183 43.522159999999985 L 125.29411764706 43.68434399999998 L 119.49346405229 44.56548799999999 L 113.69281045752 44.508639999999986 L 107.89215686274 45.32959199999999 L 102.09150326797 46.45986399999998 L 96.290849673202 47.257408 L 90.490196078431 47.85263999999998 L 84.68954248366 48.79397599999999 L 78.888888888889 50.089776 L 73.088235294117 51.99752799999999 L 67.287581699346 53.87183999999999 L 61.486928104575 55.74949599999999 L 55.686274509804 60.529743999999994 L 49.885620915032 61.855639999999994 L 44.084967320261 63.00095999999999 L 38.28431372549 63.80686399999999 L 32.483660130719 65.65943999999999 L 26.683006535947 67.831368 L 20.882352941176 70.07853599999999 L 15.081699346405 71.41780799999998 L 9.2810457516335 75.425592 L 3.4803921568622 77.98040799999998" class="highcharts-area" data-z-index="0"></path><path fill="none" d="M 3.4803921568622 77.855008 L 9.2810457516335 75.295176 L 15.081699346405 71.39774399999999 L 20.882352941176 70.07184799999999 L 26.683006535947 67.78455199999999 L 32.483660130719 65.49558399999998 L 38.28431372549 63.693167999999986 L 44.084967320261 62.92906399999998 L 49.885620915032 61.785416 L 55.686274509804 60.47958399999999 L 61.486928104575 55.665896000000004 L 67.287581699346 53.794928 L 73.088235294117 51.83534399999999 L 78.888888888889 49.76206399999998 L 84.68954248366 48.03990399999998 L 90.490196078431 46.01176799999999 L 96.290849673202 45.13731199999998 L 102.09150326797 44.66079199999999 L 107.89215686274 43.82646399999999 L 113.69281045752 43.47868799999998 L 119.49346405229 43.81810399999998 L 125.29411764706 42.48886399999998 L 131.09477124183 42.03073599999999 L 136.8954248366 41.321808000000004 L 142.69607843137 40.467415999999986 L 148.49673202614 39.790256 L 154.29738562091 39.295344 L 160.09803921569 38.72686399999998 L 165.89869281046 38.75863199999998 L 171.69934640523 38.63991999999999 L 177.5 38.613168 L 183.30065359477 38.552976 L 189.10130718954 38.32558399999999 L 194.90196078431 37.64173599999998 L 200.70261437909 37.12675999999999 L 206.50326797386 36.396096 L 212.30392156863 35.48987199999999 L 218.1045751634 35.540032 L 223.90522875817 35.327687999999995 L 229.70588235294 35.140423999999996 L 235.50653594771 34.95817599999998 L 241.30718954248 35.071871999999985 L 247.10784313726 34.672263999999984 L 252.90849673203 34.53014399999998 L 258.7091503268 34.444872000000004 L 264.50980392157 34.483328 L 270.31045751634 34.061983999999995 L 276.11111111111 33.871376 L 281.91176470588 33.869703999999984 L 287.71241830065 33.777743999999984 L 293.51307189543 33.309584 L 299.3137254902 32.995248000000004 L 305.11437908497 32.16259199999999 L 310.91503267974 31.900087999999982 L 316.71568627451 29.644559999999984 L 322.51633986928 29.644559999999984 L 328.31699346405 27.666584 L 334.11764705882 26.55135999999999 L 339.9183006536 25.148551999999995 L 345.71895424837 23.294303999999983 L 351.51960784314 22.329559999999987" class="highcharts-graph" data-z-index="1" stroke="#A8C3CA" stroke-width="1" stroke-linejoin="round" stroke-linecap="round"></path></g><g class="highcharts-markers highcharts-series-0 highcharts-area-series" data-z-index="0.1" opacity="1" transform="translate(65,135) scale(1 1)" clip-path="none"></g><g class="highcharts-series highcharts-series-1 highcharts-area-series" data-z-index="0.1" opacity="1" transform="translate(65,135) scale(1 1)" clip-path="url(#highcharts-9ndx4vf-254-)"><path fill="rgb(255,187,88)" fill-opacity="0.75" d="M 3.4803921568622 77.98040799999998 L 9.2810457516335 75.425592 L 15.081699346405 71.41780799999998 L 20.882352941176 70.07853599999999 L 26.683006535947 67.831368 L 32.483660130719 65.65943999999999 L 38.28431372549 63.80686399999999 L 44.084967320261 63.00095999999999 L 49.885620915032 61.855639999999994 L 55.686274509804 60.529743999999994 L 61.486928104575 55.74949599999999 L 67.287581699346 53.87183999999999 L 73.088235294117 51.99752799999999 L 78.888888888889 50.089776 L 84.68954248366 48.79397599999999 L 90.490196078431 47.85263999999998 L 96.290849673202 47.257408 L 102.09150326797 46.45986399999998 L 107.89215686274 45.32959199999999 L 113.69281045752 44.508639999999986 L 119.49346405229 44.56548799999999 L 125.29411764706 43.68434399999998 L 131.09477124183 43.522159999999985 L 136.8954248366 42.759727999999996 L 142.69607843137 41.860191999999984 L 148.49673202614 41.59099999999998 L 154.29738562091 40.59783199999998 L 160.09803921569 39.91899999999998 L 165.89869281046 39.64646399999998 L 171.69934640523 39.15656799999999 L 177.5 38.905767999999995 L 183.30065359477 38.89071999999999 L 189.10130718954 38.718503999999996 L 194.90196078431 38.05639199999999 L 200.70261437909 37.690224 L 206.50326797386 37.315696 L 212.30392156863 36.83416 L 218.1045751634 37.62835999999999 L 223.90522875817 37.966104 L 229.70588235294 37.818967999999984 L 235.50653594771 37.232095999999984 L 241.30718954248 37.52302399999999 L 247.10784313726 36.984639999999985 L 252.90849673203 36.90438399999999 L 258.7091503268 36.95621599999998 L 264.50980392157 37.13512 L 270.31045751634 36.521495999999985 L 276.11111111111 36.325872000000004 L 281.91176470588 36.03327199999998 L 287.71241830065 35.39791199999999 L 293.51307189543 34.61875999999998 L 299.3137254902 33.868032 L 305.11437908497 32.998592 L 310.91503267974 32.50368 L 316.71568627451 30.05419999999998 L 322.51633986928 30.248151999999976 L 328.31699346405 28.422327999999993 L 334.11764705882 27.464271999999994 L 339.9183006536 26.45605599999999 L 345.71895424837 25.173631999999998 L 351.51960784314 24.123616 L 351.51960784314 209 L 345.71895424837 209 L 339.9183006536 209 L 334.11764705882 209 L 328.31699346405 209 L 322.51633986928 209 L 316.71568627451 209 L 310.91503267974 209 L 305.11437908497 209 L 299.3137254902 209 L 293.51307189543 209 L 287.71241830065 209 L 281.91176470588 209 L 276.11111111111 209 L 270.31045751634 209 L 264.50980392157 209 L 258.7091503268 209 L 252.90849673203 209 L 247.10784313726 209 L 241.30718954248 209 L 235.50653594771 209 L 229.70588235294 209 L 223.90522875817 209 L 218.1045751634 209 L 212.30392156863 209 L 206.50326797386 209 L 200.70261437909 209 L 194.90196078431 209 L 189.10130718954 209 L 183.30065359477 209 L 177.5 209 L 171.69934640523 209 L 165.89869281046 209 L 160.09803921569 209 L 154.29738562091 209 L 148.49673202614 209 L 142.69607843137 209 L 136.8954248366 209 L 131.09477124183 209 L 125.29411764706 209 L 119.49346405229 209 L 113.69281045752 209 L 107.89215686274 209 L 102.09150326797 209 L 96.290849673202 209 L 90.490196078431 209 L 84.68954248366 209 L 78.888888888889 209 L 73.088235294117 209 L 67.287581699346 209 L 61.486928104575 209 L 55.686274509804 209 L 49.885620915032 209 L 44.084967320261 209 L 38.28431372549 209 L 32.483660130719 209 L 26.683006535947 209 L 20.882352941176 209 L 15.081699346405 209 L 9.2810457516335 209 L 3.4803921568622 209" class="highcharts-area" data-z-index="0"></path><path fill="none" d="M 3.4803921568622 77.98040799999998 L 9.2810457516335 75.425592 L 15.081699346405 71.41780799999998 L 20.882352941176 70.07853599999999 L 26.683006535947 67.831368 L 32.483660130719 65.65943999999999 L 38.28431372549 63.80686399999999 L 44.084967320261 63.00095999999999 L 49.885620915032 61.855639999999994 L 55.686274509804 60.529743999999994 L 61.486928104575 55.74949599999999 L 67.287581699346 53.87183999999999 L 73.088235294117 51.99752799999999 L 78.888888888889 50.089776 L 84.68954248366 48.79397599999999 L 90.490196078431 47.85263999999998 L 96.290849673202 47.257408 L 102.09150326797 46.45986399999998 L 107.89215686274 45.32959199999999 L 113.69281045752 44.508639999999986 L 119.49346405229 44.56548799999999 L 125.29411764706 43.68434399999998 L 131.09477124183 43.522159999999985 L 136.8954248366 42.759727999999996 L 142.69607843137 41.860191999999984 L 148.49673202614 41.59099999999998 L 154.29738562091 40.59783199999998 L 160.09803921569 39.91899999999998 L 165.89869281046 39.64646399999998 L 171.69934640523 39.15656799999999 L 177.5 38.905767999999995 L 183.30065359477 38.89071999999999 L 189.10130718954 38.718503999999996 L 194.90196078431 38.05639199999999 L 200.70261437909 37.690224 L 206.50326797386 37.315696 L 212.30392156863 36.83416 L 218.1045751634 37.62835999999999 L 223.90522875817 37.966104 L 229.70588235294 37.818967999999984 L 235.50653594771 37.232095999999984 L 241.30718954248 37.52302399999999 L 247.10784313726 36.984639999999985 L 252.90849673203 36.90438399999999 L 258.7091503268 36.95621599999998 L 264.50980392157 37.13512 L 270.31045751634 36.521495999999985 L 276.11111111111 36.325872000000004 L 281.91176470588 36.03327199999998 L 287.71241830065 35.39791199999999 L 293.51307189543 34.61875999999998 L 299.3137254902 33.868032 L 305.11437908497 32.998592 L 310.91503267974 32.50368 L 316.71568627451 30.05419999999998 L 322.51633986928 30.248151999999976 L 328.31699346405 28.422327999999993 L 334.11764705882 27.464271999999994 L 339.9183006536 26.45605599999999 L 345.71895424837 25.173631999999998 L 351.51960784314 24.123616" class="highcharts-graph" data-z-index="1" stroke="#FFBB58" stroke-width="1" stroke-linejoin="round" stroke-linecap="round"></path></g><g class="highcharts-markers highcharts-series-1 highcharts-area-series" data-z-index="0.1" opacity="1" transform="translate(65,135) scale(1 1)" clip-path="none"></g><g class="highcharts-series highcharts-series-2 highcharts-line-series" data-z-index="0.1" opacity="1" transform="translate(65,135) scale(1 1)" clip-path="url(#highcharts-9ndx4vf-377-)"><path fill="none" d="M 3.4803921568622 22.999195999999984 L 9.2810457516335 20.807203999999984 L 15.081699346405 18.22897999999998 L 20.882352941176 16.219235999999995 L 26.683006535947 15.20684 L 32.483660130719 15.245295999999996 L 38.28431372549 14.971924000000001 L 44.084967320261 15.679180000000002 L 49.885620915032 14.53218799999999 L 55.686274509804 14.383379999999988 L 61.486928104575 11.520916 L 67.287581699346 14.731155999999999 L 73.088235294117 16.748424 L 78.888888888889 18.94125199999999 L 84.68954248366 21.87226799999999 L 90.490196078431 24.800775999999985 L 96.290849673202 28.42065599999998 L 102.09150326797 31.395143999999988 L 107.89215686274 33.41324799999998 L 113.69281045752 35.04595599999999 L 119.49346405229 36.33841199999998 L 125.29411764706 37.61498399999999 L 131.09477124183 38.607316 L 136.8954248366 39.205055999999985 L 142.69607843137 39.88723199999998 L 148.49673202614 40.209092 L 154.29738562091 42.17787199999998 L 160.09803921569 43.301456 L 165.89869281046 44.80542 L 171.69934640523 45.261876 L 177.5 44.79371599999999 L 183.30065359477 43.393416 L 189.10130718954 43.090783999999985 L 194.90196078431 42.480503999999996 L 200.70261437909 42.862555999999984 L 206.50326797386 43.637528 L 212.30392156863 44.735196 L 218.1045751634 46.60449199999999 L 223.90522875817 48.386843999999996 L 229.70588235294 50.042124 L 235.50653594771 51.346284 L 241.30718954248 52.284276000000006 L 247.10784313726 51.81945999999999 L 252.90849673203 51.653932 L 258.7091503268 51.433227999999986 L 264.50980392157 51.89887999999999 L 270.31045751634 52.005888 L 276.11111111111 51.831999999999994 L 281.91176470588 50.531183999999996 L 287.71241830065 49.47865999999999 L 293.51307189543 49.492035999999985 L 299.3137254902 48.233856 L 305.11437908497 47.268275999999986 L 310.91503267974 45.59627599999999 L 316.71568627451 44.75024399999998 L 322.51633986928 44.137455999999986 L 328.31699346405 43.29978399999999 L 334.11764705882 42.64603199999999 L 339.9183006536 41.585983999999996 L 345.71895424837 41.45974799999999 L 351.51960784314 40.152243999999996" class="highcharts-graph" data-z-index="1" stroke="#246370" stroke-width="2" stroke-linejoin="round" stroke-linecap="round"></path></g><g class="highcharts-markers highcharts-series-2 highcharts-line-series" data-z-index="0.1" opacity="1" transform="translate(65,135) scale(1 1)" clip-path="none"></g></g><text x="10" text-anchor="start" class="highcharts-title" data-z-index="4" style="color:#000000;font-size:14px;font-weight:bold;fill:#000000;" y="21">Bevölkerung am Jahresende und Anzahl Wohnungen</text><text x="10" text-anchor="start" class="highcharts-subtitle" data-z-index="4" style="color:#000000;font-size:12px;font-weight:normal;fill:#000000;" y="40">Basel-Stadt</text><text x="10" text-anchor="start" class="highcharts-caption" data-z-index="4" style="color:#666666;fill:#666666;" y="390"></text><g class="highcharts-legend" data-z-index="7" transform="translate(55,55)"><rect fill="none" class="highcharts-legend-box" rx="0" ry="0" x="0" y="0" width="496" height="68" visibility="visible"></rect><g data-z-index="1"><g><g class="highcharts-legend-item highcharts-area-series highcharts-color-undefined highcharts-series-0" data-z-index="1" transform="translate(8,3)"><text x="21" style="color:#333333;cursor:pointer;font-size:12px;font-weight:normal;fill:#333333;" text-anchor="start" data-z-index="2" y="15">Leerstehende Wohnungen</text><rect x="2" y="4" width="12" height="12" fill="#A8C3CA" class="highcharts-point" data-z-index="3"></rect></g><g class="highcharts-legend-item highcharts-area-series highcharts-color-undefined highcharts-series-1" data-z-index="1" transform="translate(8,22)"><text x="21" y="15" style="color:#333333;cursor:pointer;font-size:12px;font-weight:normal;fill:#333333;" text-anchor="start" data-z-index="2">Belegte Wohnungen</text><rect x="2" y="4" width="12" height="12" fill="#FFBB58" class="highcharts-point" data-z-index="3"></rect></g><g class="highcharts-legend-item highcharts-line-series highcharts-color-undefined highcharts-series-2" data-z-index="1" transform="translate(8,41)"><path fill="none" d="M 0 11 L 16 11" class="highcharts-graph" stroke="#246370" stroke-width="2"></path><text x="21" y="15" style="color:#333333;cursor:pointer;font-size:12px;font-weight:normal;fill:#333333;" text-anchor="start" data-z-index="2">Wohnbevölkerung (rechte Skala)</text></g></g></g></g><g class="highcharts-axis-labels highcharts-xaxis-labels" data-z-index="7"><text x="71.07311702121267" style="color:#000000;cursor:default;font-size:11px;fill:#000000;" text-anchor="end" transform="translate(0,0) rotate(-45 71.07311702121267 360)" y="360" opacity="1">1960</text><text x="100.07638499506967" style="color:#000000;cursor:default;font-size:11px;fill:#000000;" text-anchor="end" transform="translate(0,0) rotate(-45 100.07638499506967 360)" y="360" opacity="1">1965</text><text x="129.07965296892067" style="color:#000000;cursor:default;font-size:11px;fill:#000000;" text-anchor="end" transform="translate(0,0) rotate(-45 129.07965296892067 360)" y="360" opacity="1">1970</text><text x="158.08292094278067" style="color:#000000;cursor:default;font-size:11px;fill:#000000;" text-anchor="end" transform="translate(0,0) rotate(-45 158.08292094278067 360)" y="360" opacity="1">1975</text><text x="187.08618891664068" style="color:#000000;cursor:default;font-size:11px;fill:#000000;" text-anchor="end" transform="translate(0,0) rotate(-45 187.08618891664068 360)" y="360" opacity="1">1980</text><text x="216.08945689049068" style="color:#000000;cursor:default;font-size:11px;fill:#000000;" text-anchor="end" transform="translate(0,0) rotate(-45 216.08945689049068 360)" y="360" opacity="1">1985</text><text x="245.09272486435069" style="color:#000000;cursor:default;font-size:11px;fill:#000000;" text-anchor="end" transform="translate(0,0) rotate(-45 245.09272486435069 360)" y="360" opacity="1">1990</text><text x="274.09599283821063" style="color:#000000;cursor:default;font-size:11px;fill:#000000;" text-anchor="end" transform="translate(0,0) rotate(-45 274.09599283821063 360)" y="360" opacity="1">1995</text><text x="303.09926081206066" style="color:#000000;cursor:default;font-size:11px;fill:#000000;" text-anchor="end" transform="translate(0,0) rotate(-45 303.09926081206066 360)" y="360" opacity="1">2000</text><text x="332.10252878592064" style="color:#000000;cursor:default;font-size:11px;fill:#000000;" text-anchor="end" transform="translate(0,0) rotate(-45 332.10252878592064 360)" y="360" opacity="1">2005</text><text x="361.1057967597807" style="color:#000000;cursor:default;font-size:11px;fill:#000000;" text-anchor="end" transform="translate(0,0) rotate(-45 361.1057967597807 360)" y="360" opacity="1">2010</text><text x="390.10906473363065" style="color:#000000;cursor:default;font-size:11px;fill:#000000;" text-anchor="end" transform="translate(0,0) rotate(-45 390.10906473363065 360)" y="360" opacity="1">2015</text><text x="419.1123327074907" style="color:#000000;cursor:default;font-size:11px;fill:#000000;" text-anchor="end" transform="translate(0,0) rotate(-45 419.1123327074907 360)" y="360" opacity="1">2020</text></g><g class="highcharts-axis-labels highcharts-yaxis-labels" data-z-index="7"><text x="50" style="color:black;cursor:default;font-size:11px;fill:black;" text-anchor="end" transform="translate(0,0)" y="349" opacity="1">0</text><text x="50" style="color:black;cursor:default;font-size:11px;fill:black;" text-anchor="end" transform="translate(0,0)" y="307" opacity="1">25 000</text><text x="50" style="color:black;cursor:default;font-size:11px;fill:black;" text-anchor="end" transform="translate(0,0)" y="265" opacity="1">50 000</text><text x="50" style="color:black;cursor:default;font-size:11px;fill:black;" text-anchor="end" transform="translate(0,0)" y="224" opacity="1">75 000</text><text x="50" style="color:black;cursor:default;font-size:11px;fill:black;" text-anchor="end" transform="translate(0,0)" y="182" opacity="1">100 000</text><text x="50" style="color:black;cursor:default;font-size:11px;fill:black;" text-anchor="end" transform="translate(0,0)" y="140" opacity="1">125 000</text></g><g class="highcharts-axis-labels highcharts-yaxis-labels" data-z-index="7"><text x="435" style="color:black;cursor:default;font-size:11px;fill:black;" text-anchor="start" transform="translate(0,0)" y="349" opacity="1">0</text><text x="435" style="color:black;cursor:default;font-size:11px;fill:black;" text-anchor="start" transform="translate(0,0)" y="307" opacity="1">50 000</text><text x="435" style="color:black;cursor:default;font-size:11px;fill:black;" text-anchor="start" transform="translate(0,0)" y="265" opacity="1">100 000</text><text x="435" style="color:black;cursor:default;font-size:11px;fill:black;" text-anchor="start" transform="translate(0,0)" y="224" opacity="1">150 000</text><text x="435" style="color:black;cursor:default;font-size:11px;fill:black;" text-anchor="start" transform="translate(0,0)" y="182" opacity="1">200 000</text><text x="435" style="color:black;cursor:default;font-size:11px;fill:black;" text-anchor="start" transform="translate(0,0)" y="140" opacity="1">250 000</text></g><text x="10" class="highcharts-credits" text-anchor="start" data-z-index="8" style="cursor:default;color:#000000;font-size:10px;fill:#000000;" y="393">Quelle: Statistisches Amt Basel-Stadt, Bevölkerungsstatistik;<tspan class="highcharts-br" dy="13" x="10">​</tspan>Statistisches Amt Basel-Stadt, Gebäude- und Wohnungsstatistik.<tspan class="highcharts-br" dy="13" x="10">​</tspan>Zuletzt geändert: 2021-2-12</text><g class="highcharts-control-points" data-z-index="99" clip-path="url(#highcharts-9ndx4vf-378-)"></g></svg>