<?xml version="1.0" standalone="no"?><!DOCTYPE svg PUBLIC "-//W3C//DTD SVG 1.1//EN" "http://www.w3.org/Graphics/SVG/1.1/DTD/svg11.dtd"><svg xmlns:xlink="http://www.w3.org/1999/xlink" version="1.1" class="highcharts-root" style="font-family:Arial;font-size:12px;" xmlns="http://www.w3.org/2000/svg" viewBox="0 0 485 415"><desc>Created with Highcharts 8.0.4</desc><defs><clipPath id="highcharts-om9x34u-230-"><rect x="0" y="0" width="405" height="213" fill="none"></rect></clipPath><clipPath id="highcharts-om9x34u-287-"><rect x="0" y="0" width="405" height="213" fill="none"></rect></clipPath></defs><rect fill="#fbfbfb" class="highcharts-background" x="0" y="0" width="485" height="428" rx="0" ry="0"></rect><rect fill="none" class="highcharts-plot-background" x="70" y="154" width="405" height="213"></rect><g class="highcharts-pane-group" data-z-index="0"></g><g class="highcharts-grid highcharts-xaxis-grid" data-z-index="1"><path fill="none" data-z-index="1" class="highcharts-grid-line" d="M 109.5 154 L 109.5 367" opacity="1"></path><path fill="none" data-z-index="1" class="highcharts-grid-line" d="M 181.5 154 L 181.5 367" opacity="1"></path><path fill="none" data-z-index="1" class="highcharts-grid-line" d="M 253.5 154 L 253.5 367" opacity="1"></path><path fill="none" data-z-index="1" class="highcharts-grid-line" d="M 326.5 154 L 326.5 367" opacity="1"></path><path fill="none" data-z-index="1" class="highcharts-grid-line" d="M 398.5 154 L 398.5 367" opacity="1"></path><path fill="none" data-z-index="1" class="highcharts-grid-line" d="M 470.5 154 L 470.5 367" opacity="1"></path></g><g class="highcharts-grid highcharts-yaxis-grid" data-z-index="1"><path fill="none" stroke="#B9CFD7" stroke-width="0.5" data-z-index="1" class="highcharts-grid-line" d="M 70 367.25 L 475 367.25" opacity="1"></path><path fill="none" stroke="#B9CFD7" stroke-width="0.5" data-z-index="1" class="highcharts-grid-line" d="M 70 314.25 L 475 314.25" opacity="1"></path><path fill="none" stroke="#B9CFD7" stroke-width="0.5" data-z-index="1" class="highcharts-grid-line" d="M 70 261.25 L 475 261.25" opacity="1"></path><path fill="none" stroke="#B9CFD7" stroke-width="0.5" data-z-index="1" class="highcharts-grid-line" d="M 70 207.25 L 475 207.25" opacity="1"></path><path fill="none" stroke="#B9CFD7" stroke-width="0.5" data-z-index="1" class="highcharts-grid-line" d="M 70 153.75 L 475 153.75" opacity="1"></path></g><rect fill="none" class="highcharts-plot-border" data-z-index="1" x="70" y="154" width="405" height="213"></rect><g class="highcharts-axis highcharts-xaxis" data-z-index="2"><path fill="none" class="highcharts-axis-line" stroke="#B9CFD7" stroke-width="0.5" data-z-index="7" d="M 70 367.25 L 475 367.25"></path></g><g class="highcharts-axis highcharts-yaxis" data-z-index="2"><path fill="none" class="highcharts-axis-line" data-z-index="7" d="M 70 154 L 70 367"></path></g><g class="highcharts-series-group" data-z-index="3"><g data-z-index="0.1" class="highcharts-series highcharts-series-0 highcharts-line-series" transform="translate(70,154) scale(1 1)" clip-path="url(#highcharts-om9x34u-287-)"><path fill="none" d="M 3.9705882352938 155.24931 L 11.189839572192 159.86715 L 18.409090909091 162.91305 L 25.628342245989 166.66824 L 32.847593582887 168.19332 L 40.066844919786 166.78113000000002 L 47.286096256684 164.03769 L 54.505347593583 162.71283 L 61.724598930481 160.6659 L 68.943850267379 161.87574 L 76.163101604278 163.73736 L 83.382352941176 166.89189 L 90.601604278075 171.95916 L 97.820855614973 176.38103999999998 L 105.04010695187 180.52389 L 112.25935828877 184.98837 L 119.47860962567 186.51132 L 126.69786096257 185.12895 L 133.91711229947 185.14173 L 141.13636363636 184.29185999999999 L 148.35561497326 186.45381 L 155.57486631016 186.65616 L 162.79411764706 185.98308 L 170.01336898396 182.59638 L 177.23262032086 180.95415 L 184.45187165775 180.34071 L 191.67112299465 176.62812 L 198.89037433155 173.68233 L 206.10962566845 169.42233 L 213.32887700535 167.26677 L 220.54812834225 165.70548 L 227.76737967914 163.57122 L 234.98663101604 161.90556 L 242.20588235294 159.20472" class="highcharts-graph" data-z-index="1" stroke="black" stroke-width="2" stroke-linejoin="round" stroke-linecap="round"></path></g><g data-z-index="0.1" class="highcharts-markers highcharts-series-0 highcharts-line-series" transform="translate(70,154) scale(1 1)" clip-path="none"></g><g data-z-index="0.1" class="highcharts-series highcharts-series-1 highcharts-line-series" transform="translate(70,154) scale(1 1)" clip-path="url(#highcharts-om9x34u-287-)"><path fill="none" d="M 249.42513368984 155.59011 L 256.64438502674 150.85512 L 263.86363636364 145.42362 L 271.08288770053 139.4298 L 278.30213903743 133.00572 L 285.52139037433 126.29622 L 292.74064171123 119.4504 L 299.95989304813 112.61736 L 307.17914438503 105.93981000000001 L 314.39839572193 99.53277 L 321.61764705882 93.48570000000001 L 328.83689839572 87.84972 L 336.05614973262 82.62908999999999 L 343.27540106952 77.78121000000002 L 350.49465240642 73.22727 L 357.71390374332 68.87355 L 364.93315508021 64.61780999999999 L 372.15240641711 60.38123999999999 L 379.37165775401 56.10207 L 386.59090909091 51.74409 L 393.81016042781 47.29026000000002 L 401.02941176471 42.736320000000006" class="highcharts-graph" data-z-index="1" stroke="#b00000 " stroke-width="2" stroke-linejoin="round" stroke-linecap="round"></path></g><g data-z-index="0.1" class="highcharts-markers highcharts-series-1 highcharts-line-series" transform="translate(70,154) scale(1 1)" clip-path="none"></g><g data-z-index="0.1" class="highcharts-series highcharts-series-2 highcharts-line-series" transform="translate(70,154) scale(1 1)" clip-path="url(#highcharts-om9x34u-287-)"><path fill="none" d="M 249.42513368984 158.01405 L 256.64438502674 156.01611 L 263.86363636364 153.57726 L 271.08288770053 150.79548 L 278.30213903743 147.79005 L 285.52139037433 144.67386 L 292.74064171123 141.55554 L 299.95989304813 138.53307 L 307.17914438503 135.68099999999998 L 314.39839572193 133.05045 L 321.61764705882 130.67124 L 328.83689839572 128.55402 L 336.05614973262 126.68601 L 343.27540106952 125.031 L 350.49465240642 123.54426000000001 L 357.71390374332 122.17893000000001 L 364.93315508021 120.88602 L 372.15240641711 119.6208 L 379.37165775401 118.35984 L 386.59090909091 117.08184 L 393.81016042781 115.78254 L 401.02941176471 114.45768" class="highcharts-graph" data-z-index="1" stroke="#672773" stroke-width="2" stroke-linejoin="round" stroke-linecap="round"></path></g><g data-z-index="0.1" class="highcharts-markers highcharts-series-2 highcharts-line-series" transform="translate(70,154) scale(1 1)" clip-path="none"></g><g data-z-index="0.1" class="highcharts-series highcharts-series-3 highcharts-line-series" transform="translate(70,154) scale(1 1)" clip-path="url(#highcharts-om9x34u-287-)"><path fill="none" d="M 249.42513368984 160.71915 L 256.64438502674 161.76498 L 263.86363636364 162.61272 L 271.08288770053 163.30284 L 278.30213903743 163.89072 L 285.52139037433 164.43174 L 292.74064171123 164.97276 L 299.95989304813 165.54573 L 307.17914438503 166.17408 L 314.39839572193 166.86633 L 321.61764705882 167.62461000000002 L 328.83689839572 168.44466 L 336.05614973262 169.32222000000002 L 343.27540106952 170.2509 L 350.49465240642 171.22431 L 357.71390374332 172.23606 L 364.93315508021 173.27976 L 372.15240641711 174.34902 L 379.37165775401 175.44384 L 386.59090909091 176.5557 L 393.81016042781 177.6846 L 401.02941176471 178.82841" class="highcharts-graph" data-z-index="1" stroke="#008AC3" stroke-width="2" stroke-linejoin="round" stroke-linecap="round"></path></g><g data-z-index="0.1" class="highcharts-markers highcharts-series-3 highcharts-line-series" transform="translate(70,154) scale(1 1)" clip-path="none"></g></g><text x="10" text-anchor="start" class="highcharts-title" data-z-index="4" style="color:#000000;font-size:14px;font-weight:bold;fill:#000000;" y="21"><tspan>Wohnbevölkerung gemäss Bevölkerungsszenarien</tspan></text><text x="10" text-anchor="start" class="highcharts-subtitle" data-z-index="4" style="color:#000000;font-size:12px;font-weight:normal;font-family:Arial;fill:#000000;" y="40"><tspan>Bevölkerungsszenarien Basel-Stadt, 2019</tspan></text><text x="10" text-anchor="start" class="highcharts-caption" data-z-index="4" style="color:#666666;fill:#666666;" y="400"></text><g class="highcharts-legend" data-z-index="7" transform="translate(60,55)"><rect fill="none" class="highcharts-legend-box" rx="0" ry="0" x="0" y="0" width="996" height="87" visibility="visible"></rect><g data-z-index="1"><g><g class="highcharts-legend-item highcharts-line-series highcharts-color-undefined highcharts-series-0" data-z-index="1" transform="translate(8,3)"><path fill="none" d="M 0 11 L 16 11" class="highcharts-graph" stroke="black" stroke-width="2"></path><text x="21" style="color:#333333;cursor:pointer;font-size:12px;font-weight:normal;fill:#333333;" text-anchor="start" data-z-index="2" y="15"><tspan>Effektiv</tspan></text></g><g class="highcharts-legend-item highcharts-line-series highcharts-color-undefined highcharts-series-1" data-z-index="1" transform="translate(8,22)"><path fill="none" d="M 0 11 L 16 11" class="highcharts-graph" stroke="#b00000 " stroke-width="2"></path><text x="21" y="15" style="color:#333333;cursor:pointer;font-size:12px;font-weight:normal;fill:#333333;" text-anchor="start" data-z-index="2"><tspan>Hohes Szenario</tspan></text></g><g class="highcharts-legend-item highcharts-line-series highcharts-color-undefined highcharts-series-2" data-z-index="1" transform="translate(8,41)"><path fill="none" d="M 0 11 L 16 11" class="highcharts-graph" stroke="#672773" stroke-width="2"></path><text x="21" y="15" style="color:#333333;cursor:pointer;font-size:12px;font-weight:normal;fill:#333333;" text-anchor="start" data-z-index="2"><tspan>Mittleres Szenario</tspan></text></g><g class="highcharts-legend-item highcharts-line-series highcharts-color-undefined highcharts-series-3" data-z-index="1" transform="translate(8,60)"><path fill="none" d="M 0 11 L 16 11" class="highcharts-graph" stroke="#008AC3" stroke-width="2"></path><text x="21" y="15" style="color:#333333;cursor:pointer;font-size:12px;font-weight:normal;fill:#333333;" text-anchor="start" data-z-index="2"><tspan>Tiefes Szenario</tspan></text></g></g></g></g><g class="highcharts-axis-labels highcharts-xaxis-labels" data-z-index="7"><text x="110.06684491979" style="color:#000000;cursor:default;font-size:11px;fill:#000000;" text-anchor="middle" transform="translate(0,0)" y="386" opacity="1">1990</text><text x="182.25935828877" style="color:#000000;cursor:default;font-size:11px;fill:#000000;" text-anchor="middle" transform="translate(0,0)" y="386" opacity="1">2000</text><text x="254.45187165775" style="color:#000000;cursor:default;font-size:11px;fill:#000000;" text-anchor="middle" transform="translate(0,0)" y="386" opacity="1">2010</text><text x="326.64438502674" style="color:#000000;cursor:default;font-size:11px;fill:#000000;" text-anchor="middle" transform="translate(0,0)" y="386" opacity="1">2020</text><text x="398.83689839572" style="color:#000000;cursor:default;font-size:11px;fill:#000000;" text-anchor="middle" transform="translate(0,0)" y="386" opacity="1">2030</text><text x="461.03125" style="color:#000000;cursor:default;font-size:11px;fill:#000000;" text-anchor="middle" transform="translate(0,0)" y="386" opacity="1">2040</text></g><g class="highcharts-axis-labels highcharts-yaxis-labels" data-z-index="7"><text x="55" style="color:#000000;cursor:default;font-size:11px;fill:#000000;" text-anchor="end" transform="translate(0,0)" y="372" opacity="1"><tspan>175 000</tspan></text><text x="55" style="color:#000000;cursor:default;font-size:11px;fill:#000000;" text-anchor="end" transform="translate(0,0)" y="318" opacity="1"><tspan>200 000</tspan></text><text x="55" style="color:#000000;cursor:default;font-size:11px;fill:#000000;" text-anchor="end" transform="translate(0,0)" y="265" opacity="1"><tspan>225 000</tspan></text><text x="55" style="color:#000000;cursor:default;font-size:11px;fill:#000000;" text-anchor="end" transform="translate(0,0)" y="212" opacity="1"><tspan>250 000</tspan></text><text x="55" style="color:#000000;cursor:default;font-size:11px;fill:#000000;" text-anchor="end" transform="translate(0,0)" y="159" opacity="1"><tspan>275 000</tspan></text></g><text x="10" class="highcharts-credits" text-anchor="start" data-z-index="8" style="cursor:default;color:#000000;font-size:10px;fill:#000000;" y="403"><tspan>Quelle: Statistisches Amt Basel-Stadt, Bevölkerungsszenarien.</tspan><tspan x="10" dy="13">Zuletzt geändert: 2019-7-11</tspan></text></svg>