<?xml version="1.0" standalone="no"?><!DOCTYPE svg PUBLIC "-//W3C//DTD SVG 1.1//EN" "http://www.w3.org/Graphics/SVG/1.1/DTD/svg11.dtd"><svg xmlns:xlink="http://www.w3.org/1999/xlink" version="1.1" class="highcharts-root" style="font-family:Arial;font-size:12px;" xmlns="http://www.w3.org/2000/svg" viewBox="0 0 485 415"><desc>Created with Highstock 6.1.1</desc><defs><clipPath id="highcharts-df2z45g-6"><rect x="0" y="0" width="513" height="275" fill="none"></rect></clipPath><clipPath id="highcharts-df2z45g-7"><rect x="0" y="0" width="513" height="275" fill="none"></rect></clipPath></defs><rect fill="#fbfbfb" class="highcharts-background" x="0" y="0" width="485" height="713" rx="0" ry="0"></rect><rect fill="none" class="highcharts-plot-background" x="200" y="138" width="275" height="513"></rect><g class="highcharts-pane-group" data-z-index="0"></g><g class="highcharts-grid highcharts-xaxis-grid " data-z-index="1"><path fill="none" data-z-index="1" class="highcharts-grid-line" d="M 200 142.5 L 475 142.5" opacity="1"></path><path fill="none" data-z-index="1" class="highcharts-grid-line" d="M 200 158.5 L 475 158.5" opacity="1"></path><path fill="none" data-z-index="1" class="highcharts-grid-line" d="M 200 174.5 L 475 174.5" opacity="1"></path><path fill="none" data-z-index="1" class="highcharts-grid-line" d="M 200 189.5 L 475 189.5" opacity="1"></path><path fill="none" data-z-index="1" class="highcharts-grid-line" d="M 200 205.5 L 475 205.5" opacity="1"></path><path fill="none" data-z-index="1" class="highcharts-grid-line" d="M 200 221.5 L 475 221.5" opacity="1"></path><path fill="none" data-z-index="1" class="highcharts-grid-line" d="M 200 237.5 L 475 237.5" opacity="1"></path><path fill="none" data-z-index="1" class="highcharts-grid-line" d="M 200 252.5 L 475 252.5" opacity="1"></path><path fill="none" data-z-index="1" class="highcharts-grid-line" d="M 200 268.5 L 475 268.5" opacity="1"></path><path fill="none" data-z-index="1" class="highcharts-grid-line" d="M 200 284.5 L 475 284.5" opacity="1"></path><path fill="none" data-z-index="1" class="highcharts-grid-line" d="M 200 300.5 L 475 300.5" opacity="1"></path><path fill="none" data-z-index="1" class="highcharts-grid-line" d="M 200 316.5 L 475 316.5" opacity="1"></path><path fill="none" data-z-index="1" class="highcharts-grid-line" d="M 200 331.5 L 475 331.5" opacity="1"></path><path fill="none" data-z-index="1" class="highcharts-grid-line" d="M 200 347.5 L 475 347.5" opacity="1"></path><path fill="none" data-z-index="1" class="highcharts-grid-line" d="M 200 363.5 L 475 363.5" opacity="1"></path><path fill="none" data-z-index="1" class="highcharts-grid-line" d="M 200 379.5 L 475 379.5" opacity="1"></path><path fill="none" data-z-index="1" class="highcharts-grid-line" d="M 200 395.5 L 475 395.5" opacity="1"></path><path fill="none" data-z-index="1" class="highcharts-grid-line" d="M 200 410.5 L 475 410.5" opacity="1"></path><path fill="none" data-z-index="1" class="highcharts-grid-line" d="M 200 426.5 L 475 426.5" opacity="1"></path><path fill="none" data-z-index="1" class="highcharts-grid-line" d="M 200 442.5 L 475 442.5" opacity="1"></path><path fill="none" data-z-index="1" class="highcharts-grid-line" d="M 200 458.5 L 475 458.5" opacity="1"></path><path fill="none" data-z-index="1" class="highcharts-grid-line" d="M 200 473.5 L 475 473.5" opacity="1"></path><path fill="none" data-z-index="1" class="highcharts-grid-line" d="M 200 489.5 L 475 489.5" opacity="1"></path><path fill="none" data-z-index="1" class="highcharts-grid-line" d="M 200 505.5 L 475 505.5" opacity="1"></path><path fill="none" data-z-index="1" class="highcharts-grid-line" d="M 200 521.5 L 475 521.5" opacity="1"></path><path fill="none" data-z-index="1" class="highcharts-grid-line" d="M 200 537.5 L 475 537.5" opacity="1"></path><path fill="none" data-z-index="1" class="highcharts-grid-line" d="M 200 552.5 L 475 552.5" opacity="1"></path><path fill="none" data-z-index="1" class="highcharts-grid-line" d="M 200 568.5 L 475 568.5" opacity="1"></path><path fill="none" data-z-index="1" class="highcharts-grid-line" d="M 200 584.5 L 475 584.5" opacity="1"></path><path fill="none" data-z-index="1" class="highcharts-grid-line" d="M 200 600.5 L 475 600.5" opacity="1"></path><path fill="none" data-z-index="1" class="highcharts-grid-line" d="M 200 615.5 L 475 615.5" opacity="1"></path><path fill="none" data-z-index="1" class="highcharts-grid-line" d="M 200 631.5 L 475 631.5" opacity="1"></path><path fill="none" data-z-index="1" class="highcharts-grid-line" d="M 200 647.5 L 475 647.5" opacity="1"></path></g><g class="highcharts-grid highcharts-yaxis-grid " data-z-index="1"><path fill="none" stroke="#B9CFD7" stroke-width="0.5" data-z-index="1" class="highcharts-grid-line" d="M 199.75 138 L 199.75 651" opacity="1"></path><path fill="none" stroke="#B9CFD7" stroke-width="0.5" data-z-index="1" class="highcharts-grid-line" d="M 268.75 138 L 268.75 651" opacity="1"></path><path fill="none" stroke="#B9CFD7" stroke-width="0.5" data-z-index="1" class="highcharts-grid-line" d="M 337.75 138 L 337.75 651" opacity="1"></path><path fill="none" stroke="#B9CFD7" stroke-width="0.5" data-z-index="1" class="highcharts-grid-line" d="M 405.75 138 L 405.75 651" opacity="1"></path><path fill="none" stroke="#B9CFD7" stroke-width="0.5" data-z-index="1" class="highcharts-grid-line" d="M 475.25 138 L 475.25 651" opacity="1"></path></g><rect fill="none" class="highcharts-plot-border" data-z-index="1" x="200" y="138" width="275" height="513"></rect><g class="highcharts-axis highcharts-xaxis " data-z-index="2"><path fill="none" class="highcharts-axis-line" stroke="#B9CFD7" stroke-width="0.5" data-z-index="7" d="M 199.75 138 L 199.75 651"></path></g><g class="highcharts-axis highcharts-yaxis " data-z-index="2"><path fill="none" class="highcharts-axis-line" data-z-index="7" d="M 200 651 L 475 651"></path></g><g class="highcharts-series-group" data-z-index="3"><g data-z-index="0.1" class="highcharts-series highcharts-series-0 highcharts-column-series " transform="translate(475,651) rotate(90) scale(-1,1) scale(1 1)" clip-path="url(#highcharts-df2z45g-7)"><rect x="504" y="0" width="10" height="3" fill="#C8C8C8" class="highcharts-point"></rect><rect x="496" y="0" width="10" height="3" fill="#C8C8C8" class="highcharts-point"></rect><rect x="480" y="0" width="10" height="4" fill="#C8C8C8" class="highcharts-point"></rect><rect x="472" y="0" width="10" height="5" fill="#C8C8C8" class="highcharts-point"></rect><rect x="457" y="0" width="10" height="2" fill="#C8C8C8" class="highcharts-point"></rect><rect x="449" y="0" width="10" height="2" fill="#C8C8C8" class="highcharts-point"></rect><rect x="433" y="0" width="10" height="2" fill="#C8C8C8" class="highcharts-point"></rect><rect x="425" y="0" width="10" height="2" fill="#C8C8C8" class="highcharts-point"></rect><rect x="409" y="0" width="10" height="2" fill="#C8C8C8" class="highcharts-point"></rect><rect x="401" y="0" width="10" height="2" fill="#C8C8C8" class="highcharts-point"></rect><rect x="386" y="0" width="10" height="7" fill="#C8C8C8" class="highcharts-point"></rect><rect x="378" y="0" width="10" height="13" fill="#C8C8C8" class="highcharts-point"></rect><rect x="362" y="0" width="10" height="3" fill="#C8C8C8" class="highcharts-point"></rect><rect x="354" y="0" width="10" height="5" fill="#C8C8C8" class="highcharts-point"></rect><rect x="338" y="0" width="10" height="15" fill="#C8C8C8" class="highcharts-point"></rect><rect x="330" y="0" width="10" height="22" fill="#C8C8C8" class="highcharts-point"></rect><rect x="315" y="0" width="10" height="4" fill="#C8C8C8" class="highcharts-point"></rect><rect x="307" y="0" width="10" height="3" fill="#C8C8C8" class="highcharts-point"></rect><rect x="291" y="0" width="10" height="2" fill="#C8C8C8" class="highcharts-point"></rect><rect x="283" y="0" width="10" height="2" fill="#C8C8C8" class="highcharts-point"></rect><rect x="267" y="0" width="10" height="8" fill="#C8C8C8" class="highcharts-point"></rect><rect x="259" y="0" width="10" height="11" fill="#C8C8C8" class="highcharts-point"></rect><rect x="244" y="0" width="10" height="8" fill="#C8C8C8" class="highcharts-point"></rect><rect x="236" y="0" width="10" height="10" fill="#C8C8C8" class="highcharts-point"></rect><rect x="220" y="0" width="10" height="16" fill="#C8C8C8" class="highcharts-point"></rect><rect x="212" y="0" width="10" height="31" fill="#C8C8C8" class="highcharts-point"></rect><rect x="196" y="0" width="10" height="26" fill="#C8C8C8" class="highcharts-point"></rect><rect x="188" y="0" width="10" height="38" fill="#C8C8C8" class="highcharts-point"></rect><rect x="173" y="0" width="10" height="2" fill="#C8C8C8" class="highcharts-point"></rect><rect x="165" y="0" width="10" height="3" fill="#C8C8C8" class="highcharts-point"></rect><rect x="149" y="0" width="10" height="55" fill="#C8C8C8" class="highcharts-point"></rect><rect x="141" y="0" width="10" height="101" fill="#C8C8C8" class="highcharts-point"></rect><rect x="125" y="0" width="10" height="55" fill="#C8C8C8" class="highcharts-point"></rect><rect x="117" y="0" width="10" height="86" fill="#C8C8C8" class="highcharts-point"></rect><rect x="102" y="0" width="10" height="41" fill="#C8C8C8" class="highcharts-point"></rect><rect x="94" y="0" width="10" height="44" fill="#C8C8C8" class="highcharts-point"></rect><rect x="78" y="0" width="10" height="71" fill="#C8C8C8" class="highcharts-point"></rect><rect x="70" y="0" width="10" height="90" fill="#C8C8C8" class="highcharts-point"></rect><rect x="54" y="0" width="10" height="81" fill="#C8C8C8" class="highcharts-point"></rect><rect x="46" y="0" width="10" height="130" fill="#C8C8C8" class="highcharts-point"></rect><rect x="31" y="0" width="10" height="72" fill="#C8C8C8" class="highcharts-point"></rect><rect x="23" y="0" width="10" height="123" fill="#C8C8C8" class="highcharts-point"></rect><rect x="7" y="0" width="10" height="116" fill="#C8C8C8" class="highcharts-point"></rect><rect x="-1" y="0" width="10" height="132" fill="#C8C8C8" class="highcharts-point"></rect></g><g data-z-index="0.1" class="highcharts-markers highcharts-series-0 highcharts-column-series " transform="translate(475,651) rotate(90) scale(-1,1) scale(1 1)" clip-path="none"></g><g data-z-index="0.1" class="highcharts-series highcharts-series-1 highcharts-column-series " transform="translate(475,651) rotate(90) scale(-1,1) scale(1 1)" clip-path="url(#highcharts-df2z45g-7)"><rect x="504" y="3" width="10" height="1" fill="#CD9C00" class="highcharts-point"></rect><rect x="496" y="3" width="10" height="1" fill="#CD9C00" class="highcharts-point"></rect><rect x="480" y="4" width="10" height="0" fill="#CD9C00" class="highcharts-point"></rect><rect x="472" y="5" width="10" height="2" fill="#CD9C00" class="highcharts-point"></rect><rect x="457" y="2" width="10" height="5" fill="#CD9C00" class="highcharts-point"></rect><rect x="449" y="2" width="10" height="5" fill="#CD9C00" class="highcharts-point"></rect><rect x="433" y="2" width="10" height="3" fill="#CD9C00" class="highcharts-point"></rect><rect x="425" y="2" width="10" height="5" fill="#CD9C00" class="highcharts-point"></rect><rect x="409" y="2" width="10" height="3" fill="#CD9C00" class="highcharts-point"></rect><rect x="401" y="2" width="10" height="4" fill="#CD9C00" class="highcharts-point"></rect><rect x="386" y="7" width="10" height="1" fill="#CD9C00" class="highcharts-point"></rect><rect x="378" y="13" width="10" height="3" fill="#CD9C00" class="highcharts-point"></rect><rect x="362" y="3" width="10" height="10" fill="#CD9C00" class="highcharts-point"></rect><rect x="354" y="5" width="10" height="9" fill="#CD9C00" class="highcharts-point"></rect><rect x="338" y="15" width="10" height="1" fill="#CD9C00" class="highcharts-point"></rect><rect x="330" y="22" width="10" height="3" fill="#CD9C00" class="highcharts-point"></rect><rect x="315" y="4" width="10" height="4" fill="#CD9C00" class="highcharts-point"></rect><rect x="307" y="3" width="10" height="7" fill="#CD9C00" class="highcharts-point"></rect><rect x="291" y="2" width="10" height="10" fill="#CD9C00" class="highcharts-point"></rect><rect x="283" y="2" width="10" height="11" fill="#CD9C00" class="highcharts-point"></rect><rect x="267" y="8" width="10" height="4" fill="#CD9C00" class="highcharts-point"></rect><rect x="259" y="11" width="10" height="6" fill="#CD9C00" class="highcharts-point"></rect><rect x="244" y="8" width="10" height="6" fill="#CD9C00" class="highcharts-point"></rect><rect x="236" y="10" width="10" height="12" fill="#CD9C00" class="highcharts-point"></rect><rect x="220" y="16" width="10" height="4" fill="#CD9C00" class="highcharts-point"></rect><rect x="212" y="31" width="10" height="8" fill="#CD9C00" class="highcharts-point"></rect><rect x="196" y="26" width="10" height="2" fill="#CD9C00" class="highcharts-point"></rect><rect x="188" y="38" width="10" height="4" fill="#CD9C00" class="highcharts-point"></rect><rect x="173" y="2" width="10" height="12" fill="#CD9C00" class="highcharts-point"></rect><rect x="165" y="3" width="10" height="21" fill="#CD9C00" class="highcharts-point"></rect><rect x="149" y="55" width="10" height="1" fill="#CD9C00" class="highcharts-point"></rect><rect x="141" y="101" width="10" height="3" fill="#CD9C00" class="highcharts-point"></rect><rect x="125" y="55" width="10" height="2" fill="#CD9C00" class="highcharts-point"></rect><rect x="117" y="86" width="10" height="5" fill="#CD9C00" class="highcharts-point"></rect><rect x="102" y="41" width="10" height="16" fill="#CD9C00" class="highcharts-point"></rect><rect x="94" y="44" width="10" height="18" fill="#CD9C00" class="highcharts-point"></rect><rect x="78" y="71" width="10" height="5" fill="#CD9C00" class="highcharts-point"></rect><rect x="70" y="90" width="10" height="10" fill="#CD9C00" class="highcharts-point"></rect><rect x="54" y="81" width="10" height="2" fill="#CD9C00" class="highcharts-point"></rect><rect x="46" y="130" width="10" height="5" fill="#CD9C00" class="highcharts-point"></rect><rect x="31" y="72" width="10" height="3" fill="#CD9C00" class="highcharts-point"></rect><rect x="23" y="123" width="10" height="5" fill="#CD9C00" class="highcharts-point"></rect><rect x="7" y="116" width="10" height="1" fill="#CD9C00" class="highcharts-point"></rect><rect x="-1" y="132" width="10" height="7" fill="#CD9C00" class="highcharts-point"></rect></g><g data-z-index="0.1" class="highcharts-markers highcharts-series-1 highcharts-column-series " transform="translate(475,651) rotate(90) scale(-1,1) scale(1 1)" clip-path="none"></g><g data-z-index="0.1" class="highcharts-series highcharts-series-2 highcharts-column-series " transform="translate(475,651) rotate(90) scale(-1,1) scale(1 1)" clip-path="url(#highcharts-df2z45g-7)"><rect x="504" y="4" width="10" height="10" fill="#FABD24" class="highcharts-point"></rect><rect x="496" y="4" width="10" height="9" fill="#FABD24" class="highcharts-point"></rect><rect x="480" y="4" width="10" height="9" fill="#FABD24" class="highcharts-point"></rect><rect x="472" y="7" width="10" height="14" fill="#FABD24" class="highcharts-point"></rect><rect x="457" y="7" width="10" height="16" fill="#FABD24" class="highcharts-point"></rect><rect x="449" y="7" width="10" height="16" fill="#FABD24" class="highcharts-point"></rect><rect x="433" y="5" width="10" height="27" fill="#FABD24" class="highcharts-point"></rect><rect x="425" y="7" width="10" height="23" fill="#FABD24" class="highcharts-point"></rect><rect x="409" y="5" width="10" height="20" fill="#FABD24" class="highcharts-point"></rect><rect x="401" y="6" width="10" height="24" fill="#FABD24" class="highcharts-point"></rect><rect x="386" y="8" width="10" height="8" fill="#FABD24" class="highcharts-point"></rect><rect x="378" y="16" width="10" height="15" fill="#FABD24" class="highcharts-point"></rect><rect x="362" y="13" width="10" height="53" fill="#FABD24" class="highcharts-point"></rect><rect x="354" y="14" width="10" height="30" fill="#FABD24" class="highcharts-point"></rect><rect x="338" y="16" width="10" height="13" fill="#FABD24" class="highcharts-point"></rect><rect x="330" y="25" width="10" height="19" fill="#FABD24" class="highcharts-point"></rect><rect x="315" y="8" width="10" height="32" fill="#FABD24" class="highcharts-point"></rect><rect x="307" y="10" width="10" height="41" fill="#FABD24" class="highcharts-point"></rect><rect x="291" y="12" width="10" height="58" fill="#FABD24" class="highcharts-point"></rect><rect x="283" y="13" width="10" height="39" fill="#FABD24" class="highcharts-point"></rect><rect x="267" y="12" width="10" height="33" fill="#FABD24" class="highcharts-point"></rect><rect x="259" y="17" width="10" height="39" fill="#FABD24" class="highcharts-point"></rect><rect x="244" y="14" width="10" height="41" fill="#FABD24" class="highcharts-point"></rect><rect x="236" y="22" width="10" height="51" fill="#FABD24" class="highcharts-point"></rect><rect x="220" y="20" width="10" height="30" fill="#FABD24" class="highcharts-point"></rect><rect x="212" y="39" width="10" height="27" fill="#FABD24" class="highcharts-point"></rect><rect x="196" y="28" width="10" height="21" fill="#FABD24" class="highcharts-point"></rect><rect x="188" y="42" width="10" height="28" fill="#FABD24" class="highcharts-point"></rect><rect x="173" y="14" width="10" height="43" fill="#FABD24" class="highcharts-point"></rect><rect x="165" y="24" width="10" height="54" fill="#FABD24" class="highcharts-point"></rect><rect x="149" y="56" width="10" height="20" fill="#FABD24" class="highcharts-point"></rect><rect x="141" y="104" width="10" height="18" fill="#FABD24" class="highcharts-point"></rect><rect x="125" y="57" width="10" height="20" fill="#FABD24" class="highcharts-point"></rect><rect x="117" y="91" width="10" height="16" fill="#FABD24" class="highcharts-point"></rect><rect x="102" y="57" width="10" height="80" fill="#FABD24" class="highcharts-point"></rect><rect x="94" y="62" width="10" height="62" fill="#FABD24" class="highcharts-point"></rect><rect x="78" y="76" width="10" height="41" fill="#FABD24" class="highcharts-point"></rect><rect x="70" y="100" width="10" height="35" fill="#FABD24" class="highcharts-point"></rect><rect x="54" y="83" width="10" height="35" fill="#FABD24" class="highcharts-point"></rect><rect x="46" y="135" width="10" height="20" fill="#FABD24" class="highcharts-point"></rect><rect x="31" y="75" width="10" height="49" fill="#FABD24" class="highcharts-point"></rect><rect x="23" y="128" width="10" height="28" fill="#FABD24" class="highcharts-point"></rect><rect x="7" y="117" width="10" height="19" fill="#FABD24" class="highcharts-point"></rect><rect x="-1" y="139" width="10" height="23" fill="#FABD24" class="highcharts-point"></rect></g><g data-z-index="0.1" class="highcharts-markers highcharts-series-2 highcharts-column-series " transform="translate(475,651) rotate(90) scale(-1,1) scale(1 1)" clip-path="none"></g><g data-z-index="0.1" class="highcharts-series highcharts-series-3 highcharts-column-series " transform="translate(475,651) rotate(90) scale(-1,1) scale(1 1)" clip-path="url(#highcharts-df2z45g-7)"><rect x="504" y="14" width="10" height="73" fill="#73B97C" class="highcharts-point"></rect><rect x="496" y="13" width="10" height="62" fill="#73B97C" class="highcharts-point"></rect><rect x="480" y="13" width="10" height="126" fill="#73B97C" class="highcharts-point"></rect><rect x="472" y="21" width="10" height="107" fill="#73B97C" class="highcharts-point"></rect><rect x="457" y="23" width="10" height="118" fill="#73B97C" class="highcharts-point"></rect><rect x="449" y="23" width="10" height="94" fill="#73B97C" class="highcharts-point"></rect><rect x="433" y="32" width="10" height="116" fill="#73B97C" class="highcharts-point"></rect><rect x="425" y="30" width="10" height="102" fill="#73B97C" class="highcharts-point"></rect><rect x="409" y="25" width="10" height="114" fill="#73B97C" class="highcharts-point"></rect><rect x="401" y="30" width="10" height="108" fill="#73B97C" class="highcharts-point"></rect><rect x="386" y="16" width="10" height="118" fill="#73B97C" class="highcharts-point"></rect><rect x="378" y="31" width="10" height="105" fill="#73B97C" class="highcharts-point"></rect><rect x="362" y="66" width="10" height="152" fill="#73B97C" class="highcharts-point"></rect><rect x="354" y="44" width="10" height="135" fill="#73B97C" class="highcharts-point"></rect><rect x="338" y="29" width="10" height="127" fill="#73B97C" class="highcharts-point"></rect><rect x="330" y="44" width="10" height="118" fill="#73B97C" class="highcharts-point"></rect><rect x="315" y="40" width="10" height="169" fill="#73B97C" class="highcharts-point"></rect><rect x="307" y="51" width="10" height="143" fill="#73B97C" class="highcharts-point"></rect><rect x="291" y="70" width="10" height="128" fill="#73B97C" class="highcharts-point"></rect><rect x="283" y="52" width="10" height="111" fill="#73B97C" class="highcharts-point"></rect><rect x="267" y="45" width="10" height="167" fill="#73B97C" class="highcharts-point"></rect><rect x="259" y="56" width="10" height="152" fill="#73B97C" class="highcharts-point"></rect><rect x="244" y="55" width="10" height="169" fill="#73B97C" class="highcharts-point"></rect><rect x="236" y="73" width="10" height="131" fill="#73B97C" class="highcharts-point"></rect><rect x="220" y="50" width="10" height="167" fill="#73B97C" class="highcharts-point"></rect><rect x="212" y="66" width="10" height="147" fill="#73B97C" class="highcharts-point"></rect><rect x="196" y="49" width="10" height="154" fill="#73B97C" class="highcharts-point"></rect><rect x="188" y="70" width="10" height="134" fill="#73B97C" class="highcharts-point"></rect><rect x="173" y="57" width="10" height="138" fill="#73B97C" class="highcharts-point"></rect><rect x="165" y="78" width="10" height="118" fill="#73B97C" class="highcharts-point"></rect><rect x="149" y="76" width="10" height="149" fill="#73B97C" class="highcharts-point"></rect><rect x="141" y="122" width="10" height="101" fill="#73B97C" class="highcharts-point"></rect><rect x="125" y="77" width="10" height="119" fill="#73B97C" class="highcharts-point"></rect><rect x="117" y="107" width="10" height="90" fill="#73B97C" class="highcharts-point"></rect><rect x="102" y="137" width="10" height="109" fill="#73B97C" class="highcharts-point"></rect><rect x="94" y="124" width="10" height="101" fill="#73B97C" class="highcharts-point"></rect><rect x="78" y="117" width="10" height="128" fill="#73B97C" class="highcharts-point"></rect><rect x="70" y="135" width="10" height="102" fill="#73B97C" class="highcharts-point"></rect><rect x="54" y="118" width="10" height="123" fill="#73B97C" class="highcharts-point"></rect><rect x="46" y="155" width="10" height="81" fill="#73B97C" class="highcharts-point"></rect><rect x="31" y="124" width="10" height="124" fill="#73B97C" class="highcharts-point"></rect><rect x="23" y="156" width="10" height="85" fill="#73B97C" class="highcharts-point"></rect><rect x="7" y="136" width="10" height="92" fill="#73B97C" class="highcharts-point"></rect><rect x="-1" y="162" width="10" height="63" fill="#73B97C" class="highcharts-point"></rect></g><g data-z-index="0.1" class="highcharts-markers highcharts-series-3 highcharts-column-series " transform="translate(475,651) rotate(90) scale(-1,1) scale(1 1)" clip-path="none"></g><g data-z-index="0.1" class="highcharts-series highcharts-series-4 highcharts-column-series " transform="translate(475,651) rotate(90) scale(-1,1) scale(1 1)" clip-path="url(#highcharts-df2z45g-7)"><rect x="504" y="87" width="10" height="189" fill="#007A2F" class="highcharts-point"></rect><rect x="496" y="75" width="10" height="201" fill="#007A2F" class="highcharts-point"></rect><rect x="480" y="139" width="10" height="137" fill="#007A2F" class="highcharts-point"></rect><rect x="472" y="128" width="10" height="148" fill="#007A2F" class="highcharts-point"></rect><rect x="457" y="141" width="10" height="135" fill="#007A2F" class="highcharts-point"></rect><rect x="449" y="117" width="10" height="159" fill="#007A2F" class="highcharts-point"></rect><rect x="433" y="148" width="10" height="128" fill="#007A2F" class="highcharts-point"></rect><rect x="425" y="132" width="10" height="144" fill="#007A2F" class="highcharts-point"></rect><rect x="409" y="139" width="10" height="137" fill="#007A2F" class="highcharts-point"></rect><rect x="401" y="138" width="10" height="138" fill="#007A2F" class="highcharts-point"></rect><rect x="386" y="134" width="10" height="142" fill="#007A2F" class="highcharts-point"></rect><rect x="378" y="136" width="10" height="140" fill="#007A2F" class="highcharts-point"></rect><rect x="362" y="218" width="10" height="58" fill="#007A2F" class="highcharts-point"></rect><rect x="354" y="179" width="10" height="97" fill="#007A2F" class="highcharts-point"></rect><rect x="338" y="156" width="10" height="120" fill="#007A2F" class="highcharts-point"></rect><rect x="330" y="162" width="10" height="114" fill="#007A2F" class="highcharts-point"></rect><rect x="315" y="209" width="10" height="67" fill="#007A2F" class="highcharts-point"></rect><rect x="307" y="194" width="10" height="82" fill="#007A2F" class="highcharts-point"></rect><rect x="291" y="198" width="10" height="78" fill="#007A2F" class="highcharts-point"></rect><rect x="283" y="163" width="10" height="113" fill="#007A2F" class="highcharts-point"></rect><rect x="267" y="212" width="10" height="64" fill="#007A2F" class="highcharts-point"></rect><rect x="259" y="208" width="10" height="68" fill="#007A2F" class="highcharts-point"></rect><rect x="244" y="224" width="10" height="52" fill="#007A2F" class="highcharts-point"></rect><rect x="236" y="204" width="10" height="72" fill="#007A2F" class="highcharts-point"></rect><rect x="220" y="217" width="10" height="59" fill="#007A2F" class="highcharts-point"></rect><rect x="212" y="213" width="10" height="63" fill="#007A2F" class="highcharts-point"></rect><rect x="196" y="203" width="10" height="73" fill="#007A2F" class="highcharts-point"></rect><rect x="188" y="204" width="10" height="72" fill="#007A2F" class="highcharts-point"></rect><rect x="173" y="195" width="10" height="81" fill="#007A2F" class="highcharts-point"></rect><rect x="165" y="196" width="10" height="80" fill="#007A2F" class="highcharts-point"></rect><rect x="149" y="225" width="10" height="51" fill="#007A2F" class="highcharts-point"></rect><rect x="141" y="223" width="10" height="53" fill="#007A2F" class="highcharts-point"></rect><rect x="125" y="196" width="10" height="80" fill="#007A2F" class="highcharts-point"></rect><rect x="117" y="197" width="10" height="79" fill="#007A2F" class="highcharts-point"></rect><rect x="102" y="246" width="10" height="30" fill="#007A2F" class="highcharts-point"></rect><rect x="94" y="225" width="10" height="51" fill="#007A2F" class="highcharts-point"></rect><rect x="78" y="245" width="10" height="31" fill="#007A2F" class="highcharts-point"></rect><rect x="70" y="237" width="10" height="39" fill="#007A2F" class="highcharts-point"></rect><rect x="54" y="241" width="10" height="35" fill="#007A2F" class="highcharts-point"></rect><rect x="46" y="236" width="10" height="40" fill="#007A2F" class="highcharts-point"></rect><rect x="31" y="248" width="10" height="28" fill="#007A2F" class="highcharts-point"></rect><rect x="23" y="241" width="10" height="35" fill="#007A2F" class="highcharts-point"></rect><rect x="7" y="228" width="10" height="48" fill="#007A2F" class="highcharts-point"></rect><rect x="-1" y="225" width="10" height="51" fill="#007A2F" class="highcharts-point"></rect></g><g data-z-index="0.1" class="highcharts-markers highcharts-series-4 highcharts-column-series " transform="translate(475,651) rotate(90) scale(-1,1) scale(1 1)" clip-path="none"></g></g><text x="10" text-anchor="start" class="highcharts-title" data-z-index="4" style="color:#000000;font-size:14px;font-weight:bold;fill:#000000;" y="21"><tspan>Zufriedenheit mit verschiedenen Aspekten am Wohnort</tspan></text><text x="10" text-anchor="start" class="highcharts-subtitle" data-z-index="4" style="color:#000000;font-size:12px;fill:#000000;" y="40"><tspan>«Wie zufrieden sind Sie mit den folgenden Aspekten an ihrem Wohnort?»</tspan><tspan x="10" dy="15">Stand: 2019</tspan></text><g class="highcharts-legend" data-z-index="7" transform="translate(200,71)"><rect fill="none" class="highcharts-legend-box" rx="0" ry="0" x="0" y="0" width="237" height="55" visibility="visible"></rect><g data-z-index="1"><g><g class="highcharts-legend-item highcharts-column-series highcharts-color-undefined highcharts-series-4" data-z-index="1" transform="translate(0,-5)"><text x="21" style="color:#333333;font-size:12px;font-weight:normal;cursor:pointer;fill:#333333;" text-anchor="start" data-z-index="2" y="15"><tspan>Sehr zufrieden</tspan></text><rect x="2" y="4" width="12" height="12" fill="#007A2F" class="highcharts-point" data-z-index="3"></rect></g><g class="highcharts-legend-item highcharts-column-series highcharts-color-undefined highcharts-series-3" data-z-index="1" transform="translate(121,-5)"><text x="21" y="15" style="color:#333333;font-size:12px;font-weight:normal;cursor:pointer;fill:#333333;" text-anchor="start" data-z-index="2"><tspan>Eher zufrieden</tspan></text><rect x="2" y="4" width="12" height="12" fill="#73B97C" class="highcharts-point" data-z-index="3"></rect></g><g class="highcharts-legend-item highcharts-column-series highcharts-color-undefined highcharts-series-2" data-z-index="1" transform="translate(0,15)"><text x="21" y="15" style="color:#333333;font-size:12px;font-weight:normal;cursor:pointer;fill:#333333;" text-anchor="start" data-z-index="2"><tspan>Eher unzufrieden</tspan></text><rect x="2" y="4" width="12" height="12" fill="#FABD24" class="highcharts-point" data-z-index="3"></rect></g><g class="highcharts-legend-item highcharts-column-series highcharts-color-undefined highcharts-series-1" data-z-index="1" transform="translate(121,15)"><text x="21" y="15" style="color:#333333;font-size:12px;font-weight:normal;cursor:pointer;fill:#333333;" text-anchor="start" data-z-index="2"><tspan>Ganz unzufrieden</tspan></text><rect x="2" y="4" width="12" height="12" fill="#CD9C00" class="highcharts-point" data-z-index="3"></rect></g><g class="highcharts-legend-item highcharts-column-series highcharts-color-undefined highcharts-series-0" data-z-index="1" transform="translate(0,35)"><text x="21" y="15" style="color:#333333;font-size:12px;font-weight:normal;cursor:pointer;fill:#333333;" text-anchor="start" data-z-index="2"><tspan>Weiss nicht</tspan></text><rect x="2" y="4" width="12" height="12" fill="#C8C8C8" class="highcharts-point" data-z-index="3"></rect></g></g></g></g><g class="highcharts-axis-labels highcharts-xaxis-labels " data-z-index="7"><text x="10" style="color:#000000;cursor:default;font-size:11px;white-space:nowrap;fill:#000000;" text-anchor="start" transform="translate(0,0)" y="146" opacity="1"><tspan>2015: ÖV-Angebot (N=1502)</tspan></text><text x="10" style="color:#000000;cursor:default;font-size:11px;white-space:nowrap;fill:#000000;" text-anchor="start" transform="translate(0,0)" y="169" opacity="1"></text><text x="10" style="color:#000000;cursor:default;font-size:11px;white-space:nowrap;fill:#000000;" text-anchor="start" transform="translate(0,0)" y="178" opacity="1"><tspan>2019: Einkaufsmögl. im Kanton (N=1961)</tspan></text><text x="10" style="color:#000000;cursor:default;font-size:11px;white-space:nowrap;fill:#000000;" text-anchor="start" transform="translate(0,0)" y="193" opacity="1"><tspan>2015: Abfallbeseitigung (N=1502)</tspan></text><text x="10" style="color:#000000;cursor:default;font-size:11px;white-space:nowrap;fill:#000000;" text-anchor="start" transform="translate(0,0)" y="216" opacity="1"></text><text x="10" style="color:#000000;cursor:default;font-size:11px;white-space:nowrap;fill:#000000;" text-anchor="start" transform="translate(0,0)" y="225" opacity="1"><tspan>2019: Einkaufsmögl. am Wohnort (N=1997)</tspan></text><text x="10" style="color:#000000;cursor:default;font-size:11px;white-space:nowrap;fill:#000000;" text-anchor="start" transform="translate(0,0)" y="241" opacity="1"><tspan>2015: Grünanlagen (N=1504)</tspan></text><text x="10" style="color:#000000;cursor:default;font-size:11px;white-space:nowrap;fill:#000000;" text-anchor="start" transform="translate(0,0)" y="263" opacity="1"></text><text x="10" style="color:#000000;cursor:default;font-size:11px;white-space:nowrap;fill:#000000;" text-anchor="start" transform="translate(0,0)" y="272" opacity="1"><tspan>2019: Gesundheitsversorgung (N=1961)</tspan></text><text x="10" style="color:#000000;cursor:default;font-size:11px;white-space:nowrap;fill:#000000;" text-anchor="start" transform="translate(0,0)" y="288" opacity="1"><tspan>2015: Öffentliche Sicherheit (N=1500)</tspan></text><text x="10" style="color:#000000;cursor:default;font-size:11px;white-space:nowrap;fill:#000000;" text-anchor="start" transform="translate(0,0)" y="311" opacity="1"></text><text x="10" style="color:#000000;cursor:default;font-size:11px;white-space:nowrap;fill:#000000;" text-anchor="start" transform="translate(0,0)" y="320" opacity="1"><tspan>2019: Kulturangebot (N=1916)</tspan></text><text x="10" style="color:#000000;cursor:default;font-size:11px;white-space:nowrap;fill:#000000;" text-anchor="start" transform="translate(0,0)" y="335" opacity="1"><tspan>2015: Verkehrssicherheit (N=1501)</tspan></text><text x="10" style="color:#000000;cursor:default;font-size:11px;white-space:nowrap;fill:#000000;" text-anchor="start" transform="translate(0,0)" y="358" opacity="1"></text><text x="10" style="color:#000000;cursor:default;font-size:11px;white-space:nowrap;fill:#000000;" text-anchor="start" transform="translate(0,0)" y="367" opacity="1"><tspan>2019: Sauberkeit (N=1970)</tspan></text><text x="10" style="color:#000000;cursor:default;font-size:11px;white-space:nowrap;fill:#000000;" text-anchor="start" transform="translate(0,0)" y="383" opacity="1"><tspan>2015: Gebäude/Strassenbild (N=1489)</tspan></text><text x="10" style="color:#000000;cursor:default;font-size:11px;white-space:nowrap;fill:#000000;" text-anchor="start" transform="translate(0,0)" y="406" opacity="1"></text><text x="10" style="color:#000000;cursor:default;font-size:11px;white-space:nowrap;fill:#000000;" text-anchor="start" transform="translate(0,0)" y="414" opacity="1"><tspan>2019: Luftqualität (N=1971)</tspan></text><text x="10" style="color:#000000;cursor:default;font-size:11px;white-space:nowrap;fill:#000000;" text-anchor="start" transform="translate(0,0)" y="430" opacity="1"><tspan>2015: Zusammensetz. Bev. (N=1458)</tspan></text><text x="10" style="color:#000000;cursor:default;font-size:11px;white-space:nowrap;fill:#000000;" text-anchor="start" transform="translate(0,0)" y="453" opacity="1"></text><text x="10" style="color:#000000;cursor:default;font-size:11px;white-space:nowrap;fill:#000000;" text-anchor="start" transform="translate(0,0)" y="462" opacity="1"><tspan>2019: Quartierleben (N=1879)</tspan></text><text x="10" style="color:#000000;cursor:default;font-size:11px;white-space:nowrap;fill:#000000;" text-anchor="start" transform="translate(0,0)" y="477" opacity="1"><tspan>2015: Lärmsituation (N=1497)</tspan></text><text x="10" style="color:#000000;cursor:default;font-size:11px;white-space:nowrap;fill:#000000;" text-anchor="start" transform="translate(0,0)" y="500" opacity="1"></text><text x="10" style="color:#000000;cursor:default;font-size:11px;white-space:nowrap;fill:#000000;" text-anchor="start" transform="translate(0,0)" y="509" opacity="1"><tspan>2019: Senioreneinrichtungen (N=1894)</tspan></text><text x="10" style="color:#000000;cursor:default;font-size:11px;white-space:nowrap;fill:#000000;" text-anchor="start" transform="translate(0,0)" y="525" opacity="1"><tspan>2015: Schule, Bildung (N=1339)</tspan></text><text x="10" style="color:#000000;cursor:default;font-size:11px;white-space:nowrap;fill:#000000;" text-anchor="start" transform="translate(0,0)" y="548" opacity="1"></text><text x="10" style="color:#000000;cursor:default;font-size:11px;white-space:nowrap;fill:#000000;" text-anchor="start" transform="translate(0,0)" y="556" opacity="1"><tspan>2019: Wohnungsangebot (N=1853)</tspan></text><text x="10" style="color:#000000;cursor:default;font-size:11px;white-space:nowrap;fill:#000000;" text-anchor="start" transform="translate(0,0)" y="572" opacity="1"><tspan>2015: Arbeitsplatzangebot (N=1383)</tspan></text><text x="10" style="color:#000000;cursor:default;font-size:11px;white-space:nowrap;fill:#000000;" text-anchor="start" transform="translate(0,0)" y="595" opacity="1"></text><text x="10" style="color:#000000;cursor:default;font-size:11px;white-space:nowrap;fill:#000000;" text-anchor="start" transform="translate(0,0)" y="604" opacity="1"><tspan>2019: Behinderteneinrichtungen (N=1836)</tspan></text><text x="10" style="color:#000000;cursor:default;font-size:11px;white-space:nowrap;fill:#000000;" text-anchor="start" transform="translate(0,0)" y="619" opacity="1"><tspan>2015: Jugendeinrichtungen (N=1470)</tspan></text><text x="10" style="color:#000000;cursor:default;font-size:11px;white-space:nowrap;fill:#000000;" text-anchor="start" transform="translate(0,0)" y="642" opacity="1"></text><text x="10" style="color:#000000;cursor:default;font-size:11px;white-space:nowrap;fill:#000000;" text-anchor="start" transform="translate(0,0)" y="651" opacity="1"><tspan>2019: Kinderbetreuung (N=1595)</tspan></text></g><g class="highcharts-axis-labels highcharts-yaxis-labels " data-z-index="7"><text x="200" style="color:#000000;cursor:default;font-size:11px;white-space:nowrap;fill:#000000;" text-anchor="middle" transform="translate(0,0)" y="670" opacity="1">0%</text><text x="268.75" style="color:#000000;cursor:default;font-size:11px;white-space:nowrap;fill:#000000;" text-anchor="middle" transform="translate(0,0)" y="670" opacity="1">25%</text><text x="337.5" style="color:#000000;cursor:default;font-size:11px;white-space:nowrap;fill:#000000;" text-anchor="middle" transform="translate(0,0)" y="670" opacity="1">50%</text><text x="406.25" style="color:#000000;cursor:default;font-size:11px;white-space:nowrap;fill:#000000;" text-anchor="middle" transform="translate(0,0)" y="670" opacity="1">75%</text><text x="461" style="color:#000000;cursor:default;font-size:11px;white-space:nowrap;fill:#000000;" text-anchor="middle" transform="translate(0,0)" y="670" opacity="1">100%</text></g><text x="10" class="highcharts-credits" text-anchor="start" data-z-index="8" style="cursor:default;color:#000000;font-size:10px;fill:#000000;" y="688"><tspan>Quelle: Statistisches Amt Basel-Stadt, kantonale Bevölkerungsbefragung.</tspan><tspan x="10" dy="13">Zuletzt geändert: 2018-10-19</tspan></text></svg>