<?xml version="1.0" standalone="no"?><!DOCTYPE svg PUBLIC "-//W3C//DTD SVG 1.1//EN" "http://www.w3.org/Graphics/SVG/1.1/DTD/svg11.dtd"><svg xmlns:xlink="http://www.w3.org/1999/xlink" version="1.1" class="highcharts-root" style="font-family:Arial;font-size:12px;" xmlns="http://www.w3.org/2000/svg" viewBox="0 0 485 415"><desc>Created with Highstock 6.1.1</desc><defs><clipPath id="highcharts-p5s6ta9-6"><rect x="0" y="0" width="198" height="170" fill="none"></rect></clipPath><clipPath id="highcharts-p5s6ta9-7"><rect x="0" y="0" width="198" height="170" fill="none"></rect></clipPath></defs><rect fill="#fbfbfb" class="highcharts-background" x="0" y="0" width="320" height="221" rx="0" ry="0"></rect><rect fill="none" class="highcharts-plot-background" x="28" y="5" width="198" height="170"></rect><g class="highcharts-pane-group" data-z-index="0"></g><g class="highcharts-plot-lines-0" data-z-index="0"><path fill="none" class="highcharts-plot-line " stroke="#B9CFD7" stroke-width="2" d="M 28 133 L 226 133"></path></g><g class="highcharts-grid highcharts-xaxis-grid " data-z-index="1"><path fill="none" data-z-index="1" class="highcharts-grid-line" d="M 50.5 5 L 50.5 175" opacity="1"></path><path fill="none" data-z-index="1" class="highcharts-grid-line" d="M 77.5 5 L 77.5 175" opacity="1"></path><path fill="none" data-z-index="1" class="highcharts-grid-line" d="M 105.5 5 L 105.5 175" opacity="1"></path><path fill="none" data-z-index="1" class="highcharts-grid-line" d="M 133.5 5 L 133.5 175" opacity="1"></path><path fill="none" data-z-index="1" class="highcharts-grid-line" d="M 161.5 5 L 161.5 175" opacity="1"></path><path fill="none" data-z-index="1" class="highcharts-grid-line" d="M 188.5 5 L 188.5 175" opacity="1"></path><path fill="none" data-z-index="1" class="highcharts-grid-line" d="M 216.5 5 L 216.5 175" opacity="1"></path></g><g class="highcharts-grid highcharts-yaxis-grid " data-z-index="1"><path fill="none" stroke="#B9CFD7" stroke-width="0.5" data-z-index="1" class="highcharts-grid-line" d="M 28 175.25 L 226 175.25" opacity="1"></path><path fill="none" stroke="#B9CFD7" stroke-width="0.5" data-z-index="1" class="highcharts-grid-line" d="M 28 154.25 L 226 154.25" opacity="1"></path><path fill="none" stroke="#B9CFD7" stroke-width="0.5" data-z-index="1" class="highcharts-grid-line" d="M 28 133.25 L 226 133.25" opacity="1"></path><path fill="none" stroke="#B9CFD7" stroke-width="0.5" data-z-index="1" class="highcharts-grid-line" d="M 28 111.25 L 226 111.25" opacity="1"></path><path fill="none" stroke="#B9CFD7" stroke-width="0.5" data-z-index="1" class="highcharts-grid-line" d="M 28 90.25 L 226 90.25" opacity="1"></path><path fill="none" stroke="#B9CFD7" stroke-width="0.5" data-z-index="1" class="highcharts-grid-line" d="M 28 69.25 L 226 69.25" opacity="1"></path><path fill="none" stroke="#B9CFD7" stroke-width="0.5" data-z-index="1" class="highcharts-grid-line" d="M 28 48.25 L 226 48.25" opacity="1"></path><path fill="none" stroke="#B9CFD7" stroke-width="0.5" data-z-index="1" class="highcharts-grid-line" d="M 28 26.25 L 226 26.25" opacity="1"></path><path fill="none" stroke="#B9CFD7" stroke-width="0.5" data-z-index="1" class="highcharts-grid-line" d="M 28 4.75 L 226 4.75" opacity="1"></path></g><rect fill="none" class="highcharts-plot-border" data-z-index="1" x="28" y="5" width="198" height="170"></rect><g class="highcharts-axis highcharts-xaxis " data-z-index="2"><path fill="none" class="highcharts-axis-line" stroke="#B9CFD7" stroke-width="0.5" data-z-index="7" d="M 28 175.25 L 226 175.25"></path></g><g class="highcharts-axis highcharts-yaxis " data-z-index="2"><path fill="none" class="highcharts-axis-line" data-z-index="7" d="M 28 5 L 28 175"></path></g><g class="highcharts-series-group" data-z-index="3"><g data-z-index="0.1" class="highcharts-series highcharts-series-0 highcharts-column-series " transform="translate(28,5) scale(1 1)" clip-path="url(#highcharts-p5s6ta9-7)"><rect x="5" y="86" width="7" height="43" fill="#b475ab" class="highcharts-point"></rect><rect x="19" y="78" width="7" height="51" fill="#b475ab" class="highcharts-point"></rect><rect x="33" y="112" width="7" height="17" fill="#b475ab" class="highcharts-point"></rect><rect x="47" y="100" width="7" height="29" fill="#b475ab" class="highcharts-point"></rect><rect x="61" y="62" width="7" height="67" fill="#b475ab" class="highcharts-point"></rect><rect x="75" y="76" width="7" height="53" fill="#b475ab" class="highcharts-point"></rect><rect x="89" y="76" width="7" height="50" fill="#b475ab" class="highcharts-point"></rect><rect x="103" y="87" width="7" height="38" fill="#b475ab" class="highcharts-point"></rect><rect x="116" y="98" width="7" height="26" fill="#b475ab" class="highcharts-point"></rect><rect x="130" y="51" width="7" height="52" fill="#b475ab" class="highcharts-point"></rect><rect x="144" y="13" width="7" height="112" fill="#b475ab" class="highcharts-point"></rect><rect x="158" y="55" width="7" height="58" fill="#b475ab" class="highcharts-point"></rect><rect x="172" y="69" width="7" height="52" fill="#b475ab" class="highcharts-point"></rect><rect x="186" y="5" width="7" height="114" fill="#b475ab" class="highcharts-point"></rect></g><g data-z-index="0.1" class="highcharts-markers highcharts-series-0 highcharts-column-series " transform="translate(28,5) scale(1 1)" clip-path="none"></g><g data-z-index="0.1" class="highcharts-series highcharts-series-1 highcharts-column-series " transform="translate(28,5) scale(1 1)" clip-path="url(#highcharts-p5s6ta9-7)"><rect x="5" y="139" width="7" height="2" fill="#a8c4cb" class="highcharts-point highcharts-negative"></rect><rect x="19" y="136" width="7" height="19" fill="#a8c4cb" class="highcharts-point highcharts-negative"></rect><rect x="33" y="139" width="7" height="15" fill="#a8c4cb" class="highcharts-point highcharts-negative"></rect><rect x="47" y="132" width="7" height="18" fill="#a8c4cb" class="highcharts-point highcharts-negative"></rect><rect x="61" y="131" width="7" height="21" fill="#a8c4cb" class="highcharts-point highcharts-negative"></rect><rect x="75" y="131" width="7" height="21" fill="#a8c4cb" class="highcharts-point highcharts-negative"></rect><rect x="89" y="129" width="7" height="8" fill="#a8c4cb" class="highcharts-point highcharts-negative"></rect><rect x="103" y="129" width="7" height="3" fill="#a8c4cb" class="highcharts-point highcharts-negative"></rect><rect x="116" y="129" width="7" height="5" fill="#a8c4cb" class="highcharts-point highcharts-negative"></rect><rect x="130" y="129" width="7" height="7" fill="#a8c4cb" class="highcharts-point highcharts-negative"></rect><rect x="144" y="129" width="7" height="25" fill="#a8c4cb" class="highcharts-point highcharts-negative"></rect><rect x="158" y="129" width="7" height="10" fill="#a8c4cb" class="highcharts-point highcharts-negative"></rect><rect x="172" y="129" width="7" height="8" fill="#a8c4cb" class="highcharts-point highcharts-negative"></rect><rect x="186" y="129" width="7" height="16" fill="#a8c4cb" class="highcharts-point highcharts-negative"></rect></g><g data-z-index="0.1" class="highcharts-markers highcharts-series-1 highcharts-column-series " transform="translate(28,5) scale(1 1)" clip-path="none"></g><g data-z-index="0.1" class="highcharts-series highcharts-series-2 highcharts-column-series " transform="translate(28,5) scale(1 1)" clip-path="url(#highcharts-p5s6ta9-7)"><rect x="5" y="129" width="7" height="10" fill="#fabd24" class="highcharts-point highcharts-negative"></rect><rect x="19" y="129" width="7" height="7" fill="#fabd24" class="highcharts-point highcharts-negative"></rect><rect x="33" y="129" width="7" height="10" fill="#fabd24" class="highcharts-point highcharts-negative"></rect><rect x="47" y="129" width="7" height="3" fill="#fabd24" class="highcharts-point highcharts-negative"></rect><rect x="61" y="129" width="7" height="2" fill="#fabd24" class="highcharts-point highcharts-negative"></rect><rect x="75" y="129" width="7" height="2" fill="#fabd24" class="highcharts-point highcharts-negative"></rect><rect x="89" y="126" width="7" height="3" fill="#fabd24" class="highcharts-point"></rect><rect x="103" y="125" width="7" height="4" fill="#fabd24" class="highcharts-point"></rect><rect x="116" y="124" width="7" height="5" fill="#fabd24" class="highcharts-point"></rect><rect x="130" y="103" width="7" height="26" fill="#fabd24" class="highcharts-point"></rect><rect x="144" y="125" width="7" height="4" fill="#fabd24" class="highcharts-point"></rect><rect x="158" y="113" width="7" height="16" fill="#fabd24" class="highcharts-point"></rect><rect x="172" y="121" width="7" height="8" fill="#fabd24" class="highcharts-point"></rect><rect x="186" y="119" width="7" height="10" fill="#fabd24" class="highcharts-point"></rect></g><g data-z-index="0.1" class="highcharts-markers highcharts-series-2 highcharts-column-series " transform="translate(28,5) scale(1 1)" clip-path="none"></g><g data-z-index="0.1" class="highcharts-series highcharts-series-3 highcharts-line-series " transform="translate(28,5) scale(1 1)" clip-path="url(#highcharts-p5s6ta9-7)"><path fill="none" d="M 8.7475455820491 97.04166666666667 L 22.632538569426 104.40833333333333 L 36.517531556803 136.14166666666665 L 50.40252454418 120.7 L 64.287517531557 85 L 78.172510518934 98.03333333333333 L 92.057503506311 83.44166666666666 L 105.94249649369 89.25 L 119.82748948107 103.275 L 133.71248246844 57.233333333333334 L 147.59747545582 37.54166666666666 L 161.4824684432 64.74166666666667 L 175.36746143057 75.93333333333334 L 189.25245441795 19.833333333333343" class="highcharts-graph" data-z-index="1" stroke="#000000" stroke-width="2" stroke-linejoin="round" stroke-linecap="round"></path></g><g data-z-index="0.1" class="highcharts-markers highcharts-series-3 highcharts-line-series " transform="translate(28,5) scale(1 1)" clip-path="none"></g></g><text x="2" text-anchor="start" class="highcharts-title" data-z-index="4" style="color:#000000;font-size:10px;font-weight:bold;fill:#000000;" y="9"><tspan>Nettowohnungsproduktion</tspan></text><text x="2" text-anchor="start" class="highcharts-subtitle" data-z-index="4" style="color:#000000;font-size:10px;font-weight:normal;font-family:Arial;fill:#000000;" y="26"><tspan>Basel-Stadt</tspan></text><g class="highcharts-legend" data-z-index="7" transform="translate(238,65)"><rect fill="none" class="highcharts-legend-box" rx="0" ry="0" x="0" y="0" width="80" height="81" visibility="visible"></rect><g data-z-index="1"><g><g class="highcharts-legend-item highcharts-column-series highcharts-color-undefined highcharts-series-0" data-z-index="1" transform="translate(0,-5)"><text x="21" style="color:#333333;font-size:10px;font-weight:normal;cursor:pointer;fill:#333333;" text-anchor="start" data-z-index="2" y="13"><tspan>Neubau</tspan></text><rect x="3" y="4" width="10" height="10" fill="#b475ab" class="highcharts-point" data-z-index="3"></rect></g><g class="highcharts-legend-item highcharts-column-series highcharts-color-undefined highcharts-series-1" data-z-index="1" transform="translate(0,10)"><text x="21" y="13" style="color:#333333;font-size:10px;font-weight:normal;cursor:pointer;fill:#333333;" text-anchor="start" data-z-index="2"><tspan>Abbruch</tspan></text><rect x="3" y="4" width="10" height="10" fill="#a8c4cb" class="highcharts-point" data-z-index="3"></rect></g><g class="highcharts-legend-item highcharts-column-series highcharts-color-undefined highcharts-series-2" data-z-index="1" transform="translate(0,25)"><text x="21" y="13" style="color:#333333;font-size:10px;font-weight:normal;cursor:pointer;fill:#333333;" text-anchor="start" data-z-index="2"><tspan>Umbausaldo</tspan></text><rect x="3" y="4" width="10" height="10" fill="#fabd24" class="highcharts-point" data-z-index="3"></rect></g><g class="highcharts-legend-item highcharts-line-series highcharts-color-undefined highcharts-series-3" data-z-index="1" transform="translate(0,40)"><path fill="none" d="M 0 10 L 16 10" class="highcharts-graph" stroke="#000000" stroke-width="2"></path><text x="21" y="13" style="color:#333333;font-size:10px;font-weight:normal;cursor:pointer;fill:#333333;" text-anchor="start" data-z-index="2"><tspan>Netto-</tspan><tspan x="21" dy="13">wohnungs-</tspan><tspan x="21" dy="13">produktion</tspan></text></g></g></g></g><g class="highcharts-axis-labels highcharts-xaxis-labels " data-z-index="7"><text x="52.98956117338116" style="color:#000000;cursor:default;font-size:10px;fill:#000000;" text-anchor="end" transform="translate(0,0) rotate(-45 52.98956117338116 190)" y="190" opacity="1">2006</text><text x="80.75954714813516" style="color:#000000;cursor:default;font-size:10px;fill:#000000;" text-anchor="end" transform="translate(0,0) rotate(-45 80.75954714813516 190)" y="190" opacity="1">2008</text><text x="108.52953312288516" style="color:#000000;cursor:default;font-size:10px;fill:#000000;" text-anchor="end" transform="translate(0,0) rotate(-45 108.52953312288516 190)" y="190" opacity="1">2010</text><text x="136.29951909764515" style="color:#000000;cursor:default;font-size:10px;fill:#000000;" text-anchor="end" transform="translate(0,0) rotate(-45 136.29951909764515 190)" y="190" opacity="1">2012</text><text x="164.06950507239515" style="color:#000000;cursor:default;font-size:10px;fill:#000000;" text-anchor="end" transform="translate(0,0) rotate(-45 164.06950507239515 190)" y="190" opacity="1">2014</text><text x="191.83949104715515" style="color:#000000;cursor:default;font-size:10px;fill:#000000;" text-anchor="end" transform="translate(0,0) rotate(-45 191.83949104715515 190)" y="190" opacity="1">2016</text><text x="219.60947702190515" style="color:#000000;cursor:default;font-size:10px;fill:#000000;" text-anchor="end" transform="translate(0,0) rotate(-45 219.60947702190515 190)" y="190" opacity="1">2018</text></g><g class="highcharts-axis-labels highcharts-yaxis-labels " data-z-index="7"><text x="23" style="color:#000000;cursor:default;font-size:10px;fill:#000000;" text-anchor="end" transform="translate(0,0)" y="178" opacity="1">-300</text><text x="23" style="color:#000000;cursor:default;font-size:10px;fill:#000000;" text-anchor="end" transform="translate(0,0)" y="157" opacity="1">-150</text><text x="23" style="color:#000000;cursor:default;font-size:10px;fill:#000000;" text-anchor="end" transform="translate(0,0)" y="136" opacity="1">0</text><text x="23" style="color:#000000;cursor:default;font-size:10px;fill:#000000;" text-anchor="end" transform="translate(0,0)" y="114" opacity="1">150</text><text x="23" style="color:#000000;cursor:default;font-size:10px;fill:#000000;" text-anchor="end" transform="translate(0,0)" y="93" opacity="1">300</text><text x="23" style="color:#000000;cursor:default;font-size:10px;fill:#000000;" text-anchor="end" transform="translate(0,0)" y="72" opacity="1">450</text><text x="23" style="color:#000000;cursor:default;font-size:10px;fill:#000000;" text-anchor="end" transform="translate(0,0)" y="51" opacity="1">600</text><text x="23" style="color:#000000;cursor:default;font-size:10px;fill:#000000;" text-anchor="end" transform="translate(0,0)" y="29" opacity="1">750</text><text x="23" style="color:#000000;cursor:default;font-size:10px;fill:#000000;" text-anchor="end" transform="translate(0,0)" y="8" opacity="1">900</text></g><text x="10" class="highcharts-credits" text-anchor="start" data-z-index="8" style="cursor:default;color:#000000;font-size:10;fill:#000000;" y="196"><tspan>Quelle: Statistisches Amt Basel-Stadt, Gebäude- und Wohnungsstatistik.</tspan><tspan x="10" dy="15">Zuletzt geändert: 2019-1-28</tspan></text></svg>