<?xml version="1.0" standalone="no"?><!DOCTYPE svg PUBLIC "-//W3C//DTD SVG 1.1//EN" "http://www.w3.org/Graphics/SVG/1.1/DTD/svg11.dtd"><svg xmlns:xlink="http://www.w3.org/1999/xlink" version="1.1" class="highcharts-root" style="font-family:Arial;font-size:10px;" xmlns="http://www.w3.org/2000/svg" viewBox="0 0 485 415"><desc>Created with Highcharts 8.1.2</desc><defs><clipPath id="highcharts-9ieoyjq-72-"><rect x="0" y="0" width="196" height="435" fill="none"></rect></clipPath><clipPath id="highcharts-9ieoyjq-86-"><rect x="0" y="0" width="196" height="435" fill="none"></rect></clipPath><clipPath id="highcharts-9ieoyjq-139-"><rect x="116" y="6" width="435" height="196" fill="none"></rect></clipPath></defs><rect fill="#fbfbfb" class="highcharts-background" x="0" y="0" width="665" height="208" rx="0" ry="0"></rect><rect fill="none" class="highcharts-plot-background" x="116" y="6" width="435" height="196"></rect><g class="highcharts-pane-group" data-z-index="0"></g><g class="highcharts-grid highcharts-xaxis-grid" data-z-index="1"><path fill="none" data-z-index="1" class="highcharts-grid-line" d="M 116 21.5 L 551 21.5" opacity="1"></path><path fill="none" data-z-index="1" class="highcharts-grid-line" d="M 116 36.5 L 551 36.5" opacity="1"></path><path fill="none" data-z-index="1" class="highcharts-grid-line" d="M 116 51.5 L 551 51.5" opacity="1"></path><path fill="none" data-z-index="1" class="highcharts-grid-line" d="M 116 66.5 L 551 66.5" opacity="1"></path><path fill="none" data-z-index="1" class="highcharts-grid-line" d="M 116 81.5 L 551 81.5" opacity="1"></path><path fill="none" data-z-index="1" class="highcharts-grid-line" d="M 116 96.5 L 551 96.5" opacity="1"></path><path fill="none" data-z-index="1" class="highcharts-grid-line" d="M 116 112.5 L 551 112.5" opacity="1"></path><path fill="none" data-z-index="1" class="highcharts-grid-line" d="M 116 127.5 L 551 127.5" opacity="1"></path><path fill="none" data-z-index="1" class="highcharts-grid-line" d="M 116 142.5 L 551 142.5" opacity="1"></path><path fill="none" data-z-index="1" class="highcharts-grid-line" d="M 116 157.5 L 551 157.5" opacity="1"></path><path fill="none" data-z-index="1" class="highcharts-grid-line" d="M 116 172.5 L 551 172.5" opacity="1"></path><path fill="none" data-z-index="1" class="highcharts-grid-line" d="M 116 187.5 L 551 187.5" opacity="1"></path><path fill="none" data-z-index="1" class="highcharts-grid-line" d="M 116 202.5 L 551 202.5" opacity="1"></path><path fill="none" data-z-index="1" class="highcharts-grid-line" d="M 116 6.5 L 551 6.5" opacity="1"></path></g><g class="highcharts-grid highcharts-yaxis-grid" data-z-index="1"><path fill="none" stroke="#B9CFD7" stroke-width="0.5" data-z-index="1" class="highcharts-grid-line" d="M 117.75 6 L 117.75 202" opacity="1"></path><path fill="none" stroke="#B9CFD7" stroke-width="0.5" data-z-index="1" class="highcharts-grid-line" d="M 160.75 6 L 160.75 202" opacity="1"></path><path fill="none" stroke="#B9CFD7" stroke-width="0.5" data-z-index="1" class="highcharts-grid-line" d="M 203.75 6 L 203.75 202" opacity="1"></path><path fill="none" stroke="#B9CFD7" stroke-width="0.5" data-z-index="1" class="highcharts-grid-line" d="M 246.75 6 L 246.75 202" opacity="1"></path><path fill="none" stroke="#B9CFD7" stroke-width="0.5" data-z-index="1" class="highcharts-grid-line" d="M 289.75 6 L 289.75 202" opacity="1"></path><path fill="none" stroke="#B9CFD7" stroke-width="0.5" data-z-index="1" class="highcharts-grid-line" d="M 333.75 6 L 333.75 202" opacity="1"></path><path fill="none" stroke="#B9CFD7" stroke-width="0.5" data-z-index="1" class="highcharts-grid-line" d="M 376.75 6 L 376.75 202" opacity="1"></path><path fill="none" stroke="#B9CFD7" stroke-width="0.5" data-z-index="1" class="highcharts-grid-line" d="M 419.75 6 L 419.75 202" opacity="1"></path><path fill="none" stroke="#B9CFD7" stroke-width="0.5" data-z-index="1" class="highcharts-grid-line" d="M 462.75 6 L 462.75 202" opacity="1"></path><path fill="none" stroke="#B9CFD7" stroke-width="0.5" data-z-index="1" class="highcharts-grid-line" d="M 505.75 6 L 505.75 202" opacity="1"></path><path fill="none" stroke="#B9CFD7" stroke-width="0.5" data-z-index="1" class="highcharts-grid-line" d="M 548.75 6 L 548.75 202" opacity="1"></path></g><rect fill="none" class="highcharts-plot-border" data-z-index="1" x="116" y="6" width="435" height="196"></rect><g class="highcharts-axis highcharts-xaxis" data-z-index="2"><path fill="none" class="highcharts-axis-line" stroke="#B9CFD7" stroke-width="0.5" data-z-index="7" d="M 115.75 6 L 115.75 202"></path></g><g class="highcharts-axis highcharts-yaxis" data-z-index="2"><path fill="none" class="highcharts-axis-line" data-z-index="7" d="M 116 202 L 551 202"></path></g><g class="highcharts-series-group" data-z-index="3"><g class="highcharts-series highcharts-series-0 highcharts-column-series" data-z-index="0.1" opacity="1" transform="translate(551,202) rotate(90) scale(-1,1) scale(1 1)" clip-path="url(#highcharts-9ieoyjq-86-)" width="435" height="196"><rect x="182" y="3" width="13" height="4" fill="#C8C8C8" opacity="1" class="highcharts-point"></rect><rect x="167" y="3" width="13" height="2" fill="#C8C8C8" opacity="1" class="highcharts-point"></rect><rect x="152" y="3" width="13" height="5" fill="#C8C8C8" opacity="1" class="highcharts-point"></rect><rect x="137" y="3" width="13" height="10" fill="#C8C8C8" opacity="1" class="highcharts-point"></rect><rect x="122" y="3" width="13" height="40" fill="#C8C8C8" opacity="1" class="highcharts-point"></rect><rect x="107" y="3" width="13" height="24" fill="#C8C8C8" opacity="1" class="highcharts-point"></rect><rect x="92" y="3" width="13" height="11" fill="#C8C8C8" opacity="1" class="highcharts-point"></rect><rect x="77" y="3" width="13" height="1" fill="#C8C8C8" opacity="1" class="highcharts-point"></rect><rect x="62" y="3" width="13" height="4" fill="#C8C8C8" opacity="1" class="highcharts-point"></rect><rect x="47" y="3" width="13" height="85" fill="#C8C8C8" opacity="1" class="highcharts-point"></rect><rect x="32" y="3" width="13" height="110" fill="#C8C8C8" opacity="1" class="highcharts-point"></rect><rect x="17" y="3" width="13" height="63" fill="#C8C8C8" opacity="1" class="highcharts-point"></rect><rect x="2" y="3" width="13" height="116" fill="#C8C8C8" opacity="1" class="highcharts-point"></rect></g><g class="highcharts-markers highcharts-series-0 highcharts-column-series" data-z-index="0.1" opacity="1" transform="translate(551,202) rotate(90) scale(-1,1) scale(1 1)" clip-path="none"></g><g class="highcharts-series highcharts-series-1 highcharts-column-series" data-z-index="0.1" opacity="1" transform="translate(551,202) rotate(90) scale(-1,1) scale(1 1)" clip-path="url(#highcharts-9ieoyjq-86-)" width="435" height="196"><rect x="182" y="7" width="13" height="1" fill="#CD9C00" opacity="1" class="highcharts-point"></rect><rect x="167" y="5" width="13" height="4" fill="#CD9C00" opacity="1" class="highcharts-point"></rect><rect x="152" y="8" width="13" height="6" fill="#CD9C00" opacity="1" class="highcharts-point"></rect><rect x="137" y="13" width="13" height="7" fill="#CD9C00" opacity="1" class="highcharts-point"></rect><rect x="122" y="43" width="13" height="3" fill="#CD9C00" opacity="1" class="highcharts-point"></rect><rect x="107" y="27" width="13" height="6" fill="#CD9C00" opacity="1" class="highcharts-point"></rect><rect x="92" y="14" width="13" height="10" fill="#CD9C00" opacity="1" class="highcharts-point"></rect><rect x="77" y="4" width="13" height="19" fill="#CD9C00" opacity="1" class="highcharts-point"></rect><rect x="62" y="7" width="13" height="15" fill="#CD9C00" opacity="1" class="highcharts-point"></rect><rect x="47" y="88" width="13" height="3" fill="#CD9C00" opacity="1" class="highcharts-point"></rect><rect x="32" y="113" width="13" height="8" fill="#CD9C00" opacity="1" class="highcharts-point"></rect><rect x="17" y="66" width="13" height="25" fill="#CD9C00" opacity="1" class="highcharts-point"></rect><rect x="2" y="119" width="13" height="71" fill="#CD9C00" opacity="1" class="highcharts-point"></rect></g><g class="highcharts-markers highcharts-series-1 highcharts-column-series" data-z-index="0.1" opacity="1" transform="translate(551,202) rotate(90) scale(-1,1) scale(1 1)" clip-path="none"></g><g class="highcharts-series highcharts-series-2 highcharts-column-series" data-z-index="0.1" opacity="1" transform="translate(551,202) rotate(90) scale(-1,1) scale(1 1)" clip-path="url(#highcharts-9ieoyjq-86-)" width="435" height="196"><rect x="182" y="8" width="13" height="15" fill="#FABD24" opacity="1" class="highcharts-point"></rect><rect x="167" y="9" width="13" height="32" fill="#FABD24" opacity="1" class="highcharts-point"></rect><rect x="152" y="14" width="13" height="50" fill="#FABD24" opacity="1" class="highcharts-point"></rect><rect x="137" y="20" width="13" height="52" fill="#FABD24" opacity="1" class="highcharts-point"></rect><rect x="122" y="46" width="13" height="33" fill="#FABD24" opacity="1" class="highcharts-point"></rect><rect x="107" y="33" width="13" height="46" fill="#FABD24" opacity="1" class="highcharts-point"></rect><rect x="92" y="24" width="13" height="63" fill="#FABD24" opacity="1" class="highcharts-point"></rect><rect x="77" y="23" width="13" height="68" fill="#FABD24" opacity="1" class="highcharts-point"></rect><rect x="62" y="22" width="13" height="82" fill="#FABD24" opacity="1" class="highcharts-point"></rect><rect x="47" y="91" width="13" height="32" fill="#FABD24" opacity="1" class="highcharts-point"></rect><rect x="32" y="121" width="13" height="64" fill="#FABD24" opacity="1" class="highcharts-point"></rect><rect x="17" y="91" width="13" height="124" fill="#FABD24" opacity="1" class="highcharts-point"></rect><rect x="2" y="190" width="13" height="92" fill="#FABD24" opacity="1" class="highcharts-point"></rect></g><g class="highcharts-markers highcharts-series-2 highcharts-column-series" data-z-index="0.1" opacity="1" transform="translate(551,202) rotate(90) scale(-1,1) scale(1 1)" clip-path="none"></g><g class="highcharts-series highcharts-series-3 highcharts-column-series" data-z-index="0.1" opacity="1" transform="translate(551,202) rotate(90) scale(-1,1) scale(1 1)" clip-path="url(#highcharts-9ieoyjq-86-)" width="435" height="196"><rect x="182" y="23" width="13" height="114" fill="#73B97C" opacity="1" class="highcharts-point"></rect><rect x="167" y="41" width="13" height="179" fill="#73B97C" opacity="1" class="highcharts-point"></rect><rect x="152" y="64" width="13" height="264" fill="#73B97C" opacity="1" class="highcharts-point"></rect><rect x="137" y="72" width="13" height="262" fill="#73B97C" opacity="1" class="highcharts-point"></rect><rect x="122" y="79" width="13" height="240" fill="#73B97C" opacity="1" class="highcharts-point"></rect><rect x="107" y="79" width="13" height="262" fill="#73B97C" opacity="1" class="highcharts-point"></rect><rect x="92" y="87" width="13" height="266" fill="#73B97C" opacity="1" class="highcharts-point"></rect><rect x="77" y="91" width="13" height="216" fill="#73B97C" opacity="1" class="highcharts-point"></rect><rect x="62" y="104" width="13" height="239" fill="#73B97C" opacity="1" class="highcharts-point"></rect><rect x="47" y="123" width="13" height="186" fill="#73B97C" opacity="1" class="highcharts-point"></rect><rect x="32" y="185" width="13" height="200" fill="#73B97C" opacity="1" class="highcharts-point"></rect><rect x="17" y="215" width="13" height="172" fill="#73B97C" opacity="1" class="highcharts-point"></rect><rect x="2" y="282" width="13" height="117" fill="#73B97C" opacity="1" class="highcharts-point"></rect></g><g class="highcharts-markers highcharts-series-3 highcharts-column-series" data-z-index="0.1" opacity="1" transform="translate(551,202) rotate(90) scale(-1,1) scale(1 1)" clip-path="none"></g><g class="highcharts-series highcharts-series-4 highcharts-column-series" data-z-index="0.1" opacity="1" transform="translate(551,202) rotate(90) scale(-1,1) scale(1 1)" clip-path="url(#highcharts-9ieoyjq-86-)" width="435" height="196"><rect x="182" y="137" width="13" height="297" fill="#007A2F" opacity="1" class="highcharts-point"></rect><rect x="167" y="220" width="13" height="214" fill="#007A2F" opacity="1" class="highcharts-point"></rect><rect x="152" y="328" width="13" height="106" fill="#007A2F" opacity="1" class="highcharts-point"></rect><rect x="137" y="334" width="13" height="100" fill="#007A2F" opacity="1" class="highcharts-point"></rect><rect x="122" y="319" width="13" height="115" fill="#007A2F" opacity="1" class="highcharts-point"></rect><rect x="107" y="341" width="13" height="93" fill="#007A2F" opacity="1" class="highcharts-point"></rect><rect x="92" y="353" width="13" height="81" fill="#007A2F" opacity="1" class="highcharts-point"></rect><rect x="77" y="307" width="13" height="127" fill="#007A2F" opacity="1" class="highcharts-point"></rect><rect x="62" y="343" width="13" height="91" fill="#007A2F" opacity="1" class="highcharts-point"></rect><rect x="47" y="309" width="13" height="125" fill="#007A2F" opacity="1" class="highcharts-point"></rect><rect x="32" y="385" width="13" height="49" fill="#007A2F" opacity="1" class="highcharts-point"></rect><rect x="17" y="387" width="13" height="47" fill="#007A2F" opacity="1" class="highcharts-point"></rect><rect x="2" y="399" width="13" height="35" fill="#007A2F" opacity="1" class="highcharts-point"></rect></g><g class="highcharts-markers highcharts-series-4 highcharts-column-series" data-z-index="0.1" opacity="1" transform="translate(551,202) rotate(90) scale(-1,1) scale(1 1)" clip-path="none"></g></g><text x="333" text-anchor="middle" class="highcharts-title" data-z-index="4" style="color:#333333;font-size:18px;fill:#333333;" y="16"><tspan>Zufriedenheit mit verschiedenen Aspekten und Angeboten am Wohnort</tspan></text><text x="333" text-anchor="middle" class="highcharts-subtitle" data-z-index="4" style="color:#666666;fill:#666666;" y="34"><tspan>«Wie zufrieden sind Sie mit den folgenden Aspekten an ihrem Wohnort?» Stand: 2015</tspan></text><text x="2" text-anchor="start" class="highcharts-caption" data-z-index="4" style="color:#666666;fill:#666666;" y="216"></text><g class="highcharts-legend" data-z-index="7" transform="translate(563,69)"><rect fill="none" class="highcharts-legend-box" rx="0" ry="0" x="0" y="0" width="99" height="70" visibility="visible"></rect><g data-z-index="1"><g><g class="highcharts-legend-item highcharts-column-series highcharts-color-undefined highcharts-series-0" data-z-index="1" transform="translate(0,-5)"><text x="21" style="color:#333333;cursor:pointer;font-size:10px;font-weight:normal;font-family:Arial;whitespace:nowrap;fill:#333333;" text-anchor="start" data-z-index="2" y="13"><tspan>Weiss nicht/k.A.</tspan></text><rect x="3" y="4" width="10" height="10" fill="#C8C8C8" class="highcharts-point" data-z-index="3"></rect></g><g class="highcharts-legend-item highcharts-column-series highcharts-color-undefined highcharts-series-1" data-z-index="1" transform="translate(0,10)"><text x="21" y="13" style="color:#333333;cursor:pointer;font-size:10px;font-weight:normal;font-family:Arial;whitespace:nowrap;fill:#333333;" text-anchor="start" data-z-index="2"><tspan>Ganz unzufrieden</tspan></text><rect x="3" y="4" width="10" height="10" fill="#CD9C00" class="highcharts-point" data-z-index="3"></rect></g><g class="highcharts-legend-item highcharts-column-series highcharts-color-undefined highcharts-series-2" data-z-index="1" transform="translate(0,25)"><text x="21" y="13" style="color:#333333;cursor:pointer;font-size:10px;font-weight:normal;font-family:Arial;whitespace:nowrap;fill:#333333;" text-anchor="start" data-z-index="2"><tspan>Eher unzufrieden</tspan></text><rect x="3" y="4" width="10" height="10" fill="#FABD24" class="highcharts-point" data-z-index="3"></rect></g><g class="highcharts-legend-item highcharts-column-series highcharts-color-undefined highcharts-series-3" data-z-index="1" transform="translate(0,40)"><text x="21" y="13" style="color:#333333;cursor:pointer;font-size:10px;font-weight:normal;font-family:Arial;whitespace:nowrap;fill:#333333;" text-anchor="start" data-z-index="2"><tspan>Eher zufrieden</tspan></text><rect x="3" y="4" width="10" height="10" fill="#73B97C" class="highcharts-point" data-z-index="3"></rect></g><g class="highcharts-legend-item highcharts-column-series highcharts-color-undefined highcharts-series-4" data-z-index="1" transform="translate(0,55)"><text x="21" y="13" style="color:#333333;cursor:pointer;font-size:10px;font-weight:normal;font-family:Arial;whitespace:nowrap;fill:#333333;" text-anchor="start" data-z-index="2"><tspan>Sehr zufrieden</tspan></text><rect x="3" y="4" width="10" height="10" fill="#007A2F" class="highcharts-point" data-z-index="3"></rect></g></g></g></g><g class="highcharts-axis-labels highcharts-xaxis-labels" data-z-index="7"><text x="101" style="color:#000000;cursor:default;font-size:10px;white-space:nowrap;fill:#000000;" text-anchor="end" transform="translate(0,0)" y="18" opacity="1"><tspan>ÖV-Angebot</tspan></text><text x="101" style="color:#000000;cursor:default;font-size:10px;white-space:nowrap;fill:#000000;" text-anchor="end" transform="translate(0,0)" y="33" opacity="1"><tspan>Grünanlagen</tspan></text><text x="101" style="color:#000000;cursor:default;font-size:10px;white-space:nowrap;fill:#000000;" text-anchor="end" transform="translate(0,0)" y="48" opacity="1"><tspan>Verkehrssicherheit</tspan></text><text x="101" style="color:#000000;cursor:default;font-size:10px;white-space:nowrap;fill:#000000;" text-anchor="end" transform="translate(0,0)" y="63" opacity="1"><tspan>Gebäude/Strassenbild</tspan></text><text x="101" style="color:#000000;cursor:default;font-size:10px;white-space:nowrap;fill:#000000;" text-anchor="end" transform="translate(0,0)" y="78" opacity="1"><tspan>Quartierleben</tspan></text><text x="101" style="color:#000000;cursor:default;font-size:10px;white-space:nowrap;fill:#000000;" text-anchor="end" transform="translate(0,0)" y="93" opacity="1"><tspan>Bevölkerung</tspan></text><text x="101" style="color:#000000;cursor:default;font-size:10px;white-space:nowrap;fill:#000000;" text-anchor="end" transform="translate(0,0)" y="108" opacity="1"><tspan>Luftqualität</tspan></text><text x="101" style="color:#000000;cursor:default;font-size:10px;white-space:nowrap;fill:#000000;" text-anchor="end" transform="translate(0,0)" y="124" opacity="1"><tspan>Lärmsituation</tspan></text><text x="101" style="color:#000000;cursor:default;font-size:10px;white-space:nowrap;fill:#000000;" text-anchor="end" transform="translate(0,0)" y="139" opacity="1"><tspan>Öffentliche Sicherheit</tspan></text><text x="101" style="color:#000000;cursor:default;font-size:10px;white-space:nowrap;fill:#000000;" text-anchor="end" transform="translate(0,0)" y="154" opacity="1"><tspan>Schule, Bildung</tspan></text><text x="101" style="color:#000000;cursor:default;font-size:10px;white-space:nowrap;fill:#000000;" text-anchor="end" transform="translate(0,0)" y="169" opacity="1"><tspan>Arbeitsplatzangebot</tspan></text><text x="101" style="color:#000000;cursor:default;font-size:10px;white-space:nowrap;fill:#000000;" text-anchor="end" transform="translate(0,0)" y="184" opacity="1"><tspan>Wohnungsangebot</tspan></text><text x="101" style="color:#000000;cursor:default;font-size:10px;white-space:nowrap;fill:#000000;" text-anchor="end" transform="translate(0,0)" y="199" opacity="1"><tspan>Parkplätze</tspan></text></g><g class="highcharts-axis-labels highcharts-yaxis-labels" data-z-index="7"><text x="118.15346534653" style="color:#000000;cursor:default;font-size:10px;fill:#000000;" text-anchor="middle" transform="translate(0,0)" y="205" opacity="1">0%</text><text x="161.22277227723" style="color:#000000;cursor:default;font-size:10px;fill:#000000;" text-anchor="middle" transform="translate(0,0)" y="205" opacity="1">10%</text><text x="204.29207920792" style="color:#000000;cursor:default;font-size:10px;fill:#000000;" text-anchor="middle" transform="translate(0,0)" y="205" opacity="1">20%</text><text x="247.36138613861" style="color:#000000;cursor:default;font-size:10px;fill:#000000;" text-anchor="middle" transform="translate(0,0)" y="205" opacity="1">30%</text><text x="290.43069306931" style="color:#000000;cursor:default;font-size:10px;fill:#000000;" text-anchor="middle" transform="translate(0,0)" y="205" opacity="1">40%</text><text x="333.5" style="color:#000000;cursor:default;font-size:10px;fill:#000000;" text-anchor="middle" transform="translate(0,0)" y="205" opacity="1">50%</text><text x="376.56930693069" style="color:#000000;cursor:default;font-size:10px;fill:#000000;" text-anchor="middle" transform="translate(0,0)" y="205" opacity="1">60%</text><text x="419.63861386139" style="color:#000000;cursor:default;font-size:10px;fill:#000000;" text-anchor="middle" transform="translate(0,0)" y="205" opacity="1">70%</text><text x="462.70792079208" style="color:#000000;cursor:default;font-size:10px;fill:#000000;" text-anchor="middle" transform="translate(0,0)" y="205" opacity="1">80%</text><text x="505.77722772277" style="color:#000000;cursor:default;font-size:10px;fill:#000000;" text-anchor="middle" transform="translate(0,0)" y="205" opacity="1">90%</text><text x="548.84653465347" style="color:#000000;cursor:default;font-size:10px;fill:#000000;" text-anchor="middle" transform="translate(0,0)" y="205" opacity="1">100%</text></g><text x="655" class="highcharts-credits" text-anchor="end" data-z-index="8" style="cursor:pointer;color:#999999;font-size:9px;fill:#999999;" y="193"><tspan>Quelle: Bevölkerungsbefragung Basel-Stadt 2015, Frage F6.</tspan></text><g class="highcharts-control-points" data-z-index="99" clip-path="url(#highcharts-9ieoyjq-139-)"></g></svg>