<?xml version="1.0" standalone="no"?><!DOCTYPE svg PUBLIC "-//W3C//DTD SVG 1.1//EN" "http://www.w3.org/Graphics/SVG/1.1/DTD/svg11.dtd"><svg xmlns:xlink="http://www.w3.org/1999/xlink" version="1.1" class="highcharts-root" style="font-family:Arial;font-size:10px;color:#000000;fill:#000000;" xmlns="http://www.w3.org/2000/svg" viewBox="0 0 485 415"><desc>Created with Highcharts 8.2.2</desc><defs><clipPath id="highcharts-gxitpjr-33-"><rect x="0" y="0" width="616" height="183" fill="none"></rect></clipPath><clipPath id="highcharts-gxitpjr-60-"><rect x="0" y="0" width="616" height="183" fill="none"></rect></clipPath><clipPath id="highcharts-gxitpjr-61-"><rect x="34" y="7" width="616" height="183" fill="none"></rect></clipPath></defs><rect fill="#fbfbfb" class="highcharts-background" x="0" y="0" width="665" height="221" rx="0" ry="0"></rect><rect fill="none" class="highcharts-plot-background" x="34" y="7" width="616" height="183"></rect><g class="highcharts-pane-group" data-z-index="0"></g><g class="highcharts-grid highcharts-xaxis-grid" data-z-index="1"><path fill="none" data-z-index="1" class="highcharts-grid-line" d="M 57.5 7 L 57.5 190" opacity="1"></path><path fill="none" data-z-index="1" class="highcharts-grid-line" d="M 80.5 7 L 80.5 190" opacity="1"></path><path fill="none" data-z-index="1" class="highcharts-grid-line" d="M 104.5 7 L 104.5 190" opacity="1"></path><path fill="none" data-z-index="1" class="highcharts-grid-line" d="M 128.5 7 L 128.5 190" opacity="1"></path><path fill="none" data-z-index="1" class="highcharts-grid-line" d="M 151.5 7 L 151.5 190" opacity="1"></path><path fill="none" data-z-index="1" class="highcharts-grid-line" d="M 175.5 7 L 175.5 190" opacity="1"></path><path fill="none" data-z-index="1" class="highcharts-grid-line" d="M 199.5 7 L 199.5 190" opacity="1"></path><path fill="none" data-z-index="1" class="highcharts-grid-line" d="M 223.5 7 L 223.5 190" opacity="1"></path><path fill="none" data-z-index="1" class="highcharts-grid-line" d="M 246.5 7 L 246.5 190" opacity="1"></path><path fill="none" data-z-index="1" class="highcharts-grid-line" d="M 270.5 7 L 270.5 190" opacity="1"></path><path fill="none" data-z-index="1" class="highcharts-grid-line" d="M 294.5 7 L 294.5 190" opacity="1"></path><path fill="none" data-z-index="1" class="highcharts-grid-line" d="M 317.5 7 L 317.5 190" opacity="1"></path><path fill="none" data-z-index="1" class="highcharts-grid-line" d="M 341.5 7 L 341.5 190" opacity="1"></path><path fill="none" data-z-index="1" class="highcharts-grid-line" d="M 365.5 7 L 365.5 190" opacity="1"></path><path fill="none" data-z-index="1" class="highcharts-grid-line" d="M 388.5 7 L 388.5 190" opacity="1"></path><path fill="none" data-z-index="1" class="highcharts-grid-line" d="M 412.5 7 L 412.5 190" opacity="1"></path><path fill="none" data-z-index="1" class="highcharts-grid-line" d="M 436.5 7 L 436.5 190" opacity="1"></path><path fill="none" data-z-index="1" class="highcharts-grid-line" d="M 459.5 7 L 459.5 190" opacity="1"></path><path fill="none" data-z-index="1" class="highcharts-grid-line" d="M 483.5 7 L 483.5 190" opacity="1"></path><path fill="none" data-z-index="1" class="highcharts-grid-line" d="M 507.5 7 L 507.5 190" opacity="1"></path><path fill="none" data-z-index="1" class="highcharts-grid-line" d="M 531.5 7 L 531.5 190" opacity="1"></path><path fill="none" data-z-index="1" class="highcharts-grid-line" d="M 554.5 7 L 554.5 190" opacity="1"></path><path fill="none" data-z-index="1" class="highcharts-grid-line" d="M 578.5 7 L 578.5 190" opacity="1"></path><path fill="none" data-z-index="1" class="highcharts-grid-line" d="M 602.5 7 L 602.5 190" opacity="1"></path><path fill="none" data-z-index="1" class="highcharts-grid-line" d="M 625.5 7 L 625.5 190" opacity="1"></path><path fill="none" data-z-index="1" class="highcharts-grid-line" d="M 649.5 7 L 649.5 190" opacity="1"></path><path fill="none" data-z-index="1" class="highcharts-grid-line" d="M 33.5 7 L 33.5 190" opacity="1"></path></g><g class="highcharts-grid highcharts-yaxis-grid" data-z-index="1"><path fill="none" stroke="#B9CFD7" stroke-width="0.5" data-z-index="1" class="highcharts-grid-line" d="M 34 190.25 L 650 190.25" opacity="1"></path><path fill="none" stroke="#B9CFD7" stroke-width="0.5" data-z-index="1" class="highcharts-grid-line" d="M 34 144.25 L 650 144.25" opacity="1"></path><path fill="none" stroke="#B9CFD7" stroke-width="0.5" data-z-index="1" class="highcharts-grid-line" d="M 34 99.25 L 650 99.25" opacity="1"></path><path fill="none" stroke="#B9CFD7" stroke-width="0.5" data-z-index="1" class="highcharts-grid-line" d="M 34 53.25 L 650 53.25" opacity="1"></path><path fill="none" stroke="#B9CFD7" stroke-width="0.5" data-z-index="1" class="highcharts-grid-line" d="M 34 6.75 L 650 6.75" opacity="1"></path></g><rect fill="none" class="highcharts-plot-border" data-z-index="1" x="34" y="7" width="616" height="183"></rect><g class="highcharts-axis highcharts-xaxis" data-z-index="2"><path fill="none" class="highcharts-axis-line" stroke="#B9CFD7" stroke-width="0.5" data-z-index="7" d="M 34 190.25 L 650 190.25"></path></g><g class="highcharts-axis highcharts-yaxis" data-z-index="2"><path fill="none" class="highcharts-axis-line" data-z-index="7" d="M 34 7 L 34 190"></path></g><g class="highcharts-series-group" data-z-index="3"><g class="highcharts-series highcharts-series-0 highcharts-column-series" data-z-index="0.1" opacity="1" transform="translate(34,7) scale(1 1)" clip-path="url(#highcharts-gxitpjr-60-)"><rect x="6" y="0" width="12" height="184" fill="#008AC3" opacity="1" class="highcharts-point"></rect><rect x="30" y="18" width="12" height="166" fill="#008AC3" opacity="1" class="highcharts-point"></rect><rect x="54" y="19" width="12" height="165" fill="#008AC3" opacity="1" class="highcharts-point"></rect><rect x="77" y="46" width="12" height="138" fill="#008AC3" opacity="1" class="highcharts-point"></rect><rect x="101" y="48" width="12" height="136" fill="#008AC3" opacity="1" class="highcharts-point"></rect><rect x="125" y="52" width="12" height="132" fill="#008AC3" opacity="1" class="highcharts-point"></rect><rect x="148" y="54" width="12" height="130" fill="#008AC3" opacity="1" class="highcharts-point"></rect><rect x="172" y="54" width="12" height="130" fill="#008AC3" opacity="1" class="highcharts-point"></rect><rect x="196" y="54" width="12" height="130" fill="#008AC3" opacity="1" class="highcharts-point"></rect><rect x="219" y="56" width="12" height="128" fill="#008AC3" opacity="1" class="highcharts-point"></rect><rect x="243" y="62" width="12" height="122" fill="#008AC3" opacity="1" class="highcharts-point"></rect><rect x="267" y="63" width="12" height="121" fill="#008AC3" opacity="1" class="highcharts-point"></rect><rect x="290" y="69" width="12" height="115" fill="#008AC3" opacity="1" class="highcharts-point"></rect><rect x="314" y="69" width="12" height="115" fill="#008AC3" opacity="1" class="highcharts-point"></rect><rect x="338" y="77" width="12" height="107" fill="#008AC3" opacity="1" class="highcharts-point"></rect><rect x="362" y="79" width="12" height="105" fill="#008AC3" opacity="1" class="highcharts-point"></rect><rect x="385" y="82" width="12" height="102" fill="#008AC3" opacity="1" class="highcharts-point"></rect><rect x="409" y="82" width="12" height="102" fill="#008AC3" opacity="1" class="highcharts-point"></rect><rect x="433" y="82" width="12" height="102" fill="#008AC3" opacity="1" class="highcharts-point"></rect><rect x="456" y="84" width="12" height="100" fill="#008AC3" opacity="1" class="highcharts-point"></rect><rect x="480" y="85" width="12" height="99" fill="#008AC3" opacity="1" class="highcharts-point"></rect><rect x="504" y="86" width="12" height="98" fill="#008AC3" opacity="1" class="highcharts-point"></rect><rect x="527" y="96" width="12" height="88" fill="#008AC3" opacity="1" class="highcharts-point"></rect><rect x="551" y="107" width="12" height="77" fill="#008AC3" opacity="1" class="highcharts-point"></rect><rect x="575" y="111" width="12" height="73" fill="#008AC3" opacity="1" class="highcharts-point"></rect><rect x="598" y="116" width="12" height="68" fill="#008AC3" opacity="1" class="highcharts-point"></rect></g><g class="highcharts-markers highcharts-series-0 highcharts-column-series" data-z-index="0.1" opacity="1" transform="translate(34,7) scale(1 1)" clip-path="none"></g></g><text x="2" text-anchor="start" class="highcharts-title" data-z-index="4" style="color:#000000;font-size:10px;font-weight:bold;fill:#000000;" y="9"><tspan>Kantonaler Wettbewerbsindikator (KWI)</tspan></text><text x="2" text-anchor="start" class="highcharts-subtitle" data-z-index="4" style="color:#000000;font-size:10px;font-weight:normal;font-family:Arial;fill:#000000;" y="25"><tspan>Basel-Stadt im kantonalen Vergleich, 2019</tspan></text><text x="2" text-anchor="start" class="highcharts-caption" data-z-index="4" style="color:#666666;fill:#666666;" y="219"></text><g class="highcharts-axis-labels highcharts-xaxis-labels" data-z-index="7"><text x="45.84615384615415" style="color:#000000;cursor:default;font-size:10px;fill:#000000;" text-anchor="middle" transform="translate(0,0)" y="208" opacity="1">ZG</text><text x="69.53846153846115" style="color:#000000;cursor:default;font-size:10px;fill:#000000;" text-anchor="middle" transform="translate(0,0)" y="208" opacity="1"><tspan style="font-weight:bold">BS</tspan></text><text x="93.23076923076616" style="color:#000000;cursor:default;font-size:10px;fill:#000000;" text-anchor="middle" transform="translate(0,0)" y="208" opacity="1">ZH</text><text x="116.92307692307617" style="color:#000000;cursor:default;font-size:10px;fill:#000000;" text-anchor="middle" transform="translate(0,0)" y="208" opacity="1">VD</text><text x="140.61538461538615" style="color:#000000;cursor:default;font-size:10px;fill:#000000;" text-anchor="middle" transform="translate(0,0)" y="208" opacity="1">AG</text><text x="164.30769230769616" style="color:#000000;cursor:default;font-size:10px;fill:#000000;" text-anchor="middle" transform="translate(0,0)" y="208" opacity="1">NW</text><text x="187.99999999999616" style="color:#000000;cursor:default;font-size:10px;fill:#000000;" text-anchor="middle" transform="translate(0,0)" y="208" opacity="1">SZ</text><text x="211.69230769230617" style="color:#000000;cursor:default;font-size:10px;fill:#000000;" text-anchor="middle" transform="translate(0,0)" y="208" opacity="1">LU</text><text x="235.38461538461615" style="color:#000000;cursor:default;font-size:10px;fill:#000000;" text-anchor="middle" transform="translate(0,0)" y="208" opacity="1">BL</text><text x="259.0769230769261" style="color:#000000;cursor:default;font-size:10px;fill:#000000;" text-anchor="middle" transform="translate(0,0)" y="208" opacity="1">GE</text><text x="282.7692307692261" style="color:#000000;cursor:default;font-size:10px;fill:#000000;" text-anchor="middle" transform="translate(0,0)" y="208" opacity="1">TG</text><text x="306.4615384615361" style="color:#000000;cursor:default;font-size:10px;fill:#000000;" text-anchor="middle" transform="translate(0,0)" y="208" opacity="1">SH</text><text x="330.15384615384613" style="color:#000000;cursor:default;font-size:10px;fill:#000000;" text-anchor="middle" transform="translate(0,0)" y="208" opacity="1">FR</text><text x="353.84615384615614" style="color:#000000;cursor:default;font-size:10px;fill:#000000;" text-anchor="middle" transform="translate(0,0)" y="208" opacity="1">SG</text><text x="377.53846153846615" style="color:#000000;cursor:default;font-size:10px;fill:#000000;" text-anchor="middle" transform="translate(0,0)" y="208" opacity="1">OW</text><text x="401.23076923076616" style="color:#000000;cursor:default;font-size:10px;fill:#000000;" text-anchor="middle" transform="translate(0,0)" y="208" opacity="1">AR</text><text x="424.9230769230761" style="color:#000000;cursor:default;font-size:10px;fill:#000000;" text-anchor="middle" transform="translate(0,0)" y="208" opacity="1">SO</text><text x="448.6153846153861" style="color:#000000;cursor:default;font-size:10px;fill:#000000;" text-anchor="middle" transform="translate(0,0)" y="208" opacity="1">NE</text><text x="472.30769230769613" style="color:#000000;cursor:default;font-size:10px;fill:#000000;" text-anchor="middle" transform="translate(0,0)" y="208" opacity="1">GL</text><text x="495.99999999999613" style="color:#000000;cursor:default;font-size:10px;fill:#000000;" text-anchor="middle" transform="translate(0,0)" y="208" opacity="1">TI</text><text x="519.6923076923061" style="color:#000000;cursor:default;font-size:10px;fill:#000000;" text-anchor="middle" transform="translate(0,0)" y="208" opacity="1">BE</text><text x="543.3846153846162" style="color:#000000;cursor:default;font-size:10px;fill:#000000;" text-anchor="middle" transform="translate(0,0)" y="208" opacity="1">AI</text><text x="567.0769230769262" style="color:#000000;cursor:default;font-size:10px;fill:#000000;" text-anchor="middle" transform="translate(0,0)" y="208" opacity="1">UR</text><text x="590.7692307692262" style="color:#000000;cursor:default;font-size:10px;fill:#000000;" text-anchor="middle" transform="translate(0,0)" y="208" opacity="1">GR</text><text x="614.4615384615362" style="color:#000000;cursor:default;font-size:10px;fill:#000000;" text-anchor="middle" transform="translate(0,0)" y="208" opacity="1">VS</text><text x="638.1538461538462" style="color:#000000;cursor:default;font-size:10px;fill:#000000;" text-anchor="middle" transform="translate(0,0)" y="208" opacity="1">JU</text></g><g class="highcharts-axis-labels highcharts-yaxis-labels" data-z-index="7"><text x="19" style="color:#000000;cursor:default;font-size:10px;fill:#000000;" text-anchor="end" transform="translate(0,0)" y="193" opacity="1">0</text><text x="19" style="color:#000000;cursor:default;font-size:10px;fill:#000000;" text-anchor="end" transform="translate(0,0)" y="147" opacity="1">25</text><text x="19" style="color:#000000;cursor:default;font-size:10px;fill:#000000;" text-anchor="end" transform="translate(0,0)" y="102" opacity="1">50</text><text x="19" style="color:#000000;cursor:default;font-size:10px;fill:#000000;" text-anchor="end" transform="translate(0,0)" y="56" opacity="1">75</text><text x="19" style="color:#000000;cursor:default;font-size:10px;fill:#000000;" text-anchor="end" transform="translate(0,0)" y="10" opacity="1">100</text></g><text x="10" class="highcharts-credits" text-anchor="start" data-z-index="8" style="cursor:default;color:#000000;font-size:10px;fill:#000000;" y="196"><tspan>Quelle: UBS Switzerland AG.</tspan><tspan x="10" dy="13">Zuletzt geändert: 2020-4-1</tspan></text><g class="highcharts-control-points" data-z-index="99" clip-path="url(#highcharts-gxitpjr-61-)"></g></svg>