<?xml version="1.0" standalone="no"?><!DOCTYPE svg PUBLIC "-//W3C//DTD SVG 1.1//EN" "http://www.w3.org/Graphics/SVG/1.1/DTD/svg11.dtd"><svg xmlns:xlink="http://www.w3.org/1999/xlink" version="1.1" class="highcharts-root" style="font-family:Arial;font-size:10px;color:#000000;fill:#000000;" xmlns="http://www.w3.org/2000/svg" viewBox="0 0 485 415"><desc>Created with Highcharts 8.1.2</desc><defs><clipPath id="highcharts-cvvubou-23-"><rect x="0" y="0" width="124" height="188" fill="none"></rect></clipPath><clipPath id="highcharts-cvvubou-32-"><rect x="0" y="0" width="124" height="188" fill="none"></rect></clipPath><clipPath id="highcharts-cvvubou-41-"><rect x="117" y="72" width="188" height="124" fill="none"></rect></clipPath></defs><rect fill="#fbfbfb" class="highcharts-background" x="0" y="0" width="320" height="221" rx="0" ry="0"></rect><rect fill="none" class="highcharts-plot-background" x="117" y="72" width="188" height="124"></rect><g class="highcharts-pane-group" data-z-index="0"></g><g class="highcharts-grid highcharts-xaxis-grid" data-z-index="1"><path fill="none" data-z-index="1" class="highcharts-grid-line" d="M 117 88.5 L 305 88.5" opacity="1"></path><path fill="none" data-z-index="1" class="highcharts-grid-line" d="M 117 103.5 L 305 103.5" opacity="1"></path><path fill="none" data-z-index="1" class="highcharts-grid-line" d="M 117 119.5 L 305 119.5" opacity="1"></path><path fill="none" data-z-index="1" class="highcharts-grid-line" d="M 117 134.5 L 305 134.5" opacity="1"></path><path fill="none" data-z-index="1" class="highcharts-grid-line" d="M 117 150.5 L 305 150.5" opacity="1"></path><path fill="none" data-z-index="1" class="highcharts-grid-line" d="M 117 165.5 L 305 165.5" opacity="1"></path><path fill="none" data-z-index="1" class="highcharts-grid-line" d="M 117 181.5 L 305 181.5" opacity="1"></path><path fill="none" data-z-index="1" class="highcharts-grid-line" d="M 117 196.5 L 305 196.5" opacity="1"></path><path fill="none" data-z-index="1" class="highcharts-grid-line" d="M 117 72.5 L 305 72.5" opacity="1"></path></g><g class="highcharts-grid highcharts-yaxis-grid" data-z-index="1"><path fill="none" stroke="#B9CFD7" stroke-width="0.5" data-z-index="1" class="highcharts-grid-line" d="M 116.75 72 L 116.75 196" opacity="1"></path><path fill="none" stroke="#B9CFD7" stroke-width="0.5" data-z-index="1" class="highcharts-grid-line" d="M 210.75 72 L 210.75 196" opacity="1"></path><path fill="none" stroke="#B9CFD7" stroke-width="0.5" data-z-index="1" class="highcharts-grid-line" d="M 305.25 72 L 305.25 196" opacity="1"></path></g><rect fill="none" class="highcharts-plot-border" data-z-index="1" x="117" y="72" width="188" height="124"></rect><g class="highcharts-axis highcharts-xaxis" data-z-index="2"><path fill="none" class="highcharts-axis-line" stroke="#B9CFD7" stroke-width="0.5" data-z-index="7" d="M 116.75 72 L 116.75 196"></path></g><g class="highcharts-axis highcharts-yaxis" data-z-index="2"><path fill="none" class="highcharts-axis-line" data-z-index="7" d="M 117 196 L 305 196"></path></g><g class="highcharts-series-group" data-z-index="3"><g class="highcharts-series highcharts-series-0 highcharts-column-series" data-z-index="0.1" opacity="1" transform="translate(305,196) rotate(90) scale(-1,1) scale(1 1)" clip-path="url(#highcharts-cvvubou-32-)" width="188" height="124"><rect x="116" y="27" width="5" height="162" fill="#CD9C00" opacity="1" class="highcharts-point"></rect><rect x="101" y="0" width="4" height="189" fill="#CD9C00" opacity="1" class="highcharts-point"></rect><rect x="85" y="0" width="5" height="189" fill="#CD9C00" opacity="1" class="highcharts-point"></rect><rect x="70" y="144" width="4" height="45" fill="#CD9C00" opacity="1" class="highcharts-point"></rect><rect x="54" y="0" width="5" height="189" fill="#CD9C00" opacity="1" class="highcharts-point"></rect><rect x="39" y="22" width="4" height="167" fill="#CD9C00" opacity="1" class="highcharts-point"></rect><rect x="23" y="95" width="5" height="94" fill="#CD9C00" opacity="1" class="highcharts-point"></rect><rect x="8" y="106" width="4" height="83" fill="#CD9C00" opacity="1" class="highcharts-point"></rect></g><g class="highcharts-markers highcharts-series-0 highcharts-column-series" data-z-index="0.1" opacity="1" transform="translate(305,196) rotate(90) scale(-1,1) scale(1 1)" clip-path="none"></g><g class="highcharts-series highcharts-series-1 highcharts-column-series" data-z-index="0.1" opacity="1" transform="translate(305,196) rotate(90) scale(-1,1) scale(1 1)" clip-path="url(#highcharts-cvvubou-32-)" width="188" height="124"><rect x="112" y="68" width="4" height="121" fill="#83522E" opacity="1" class="highcharts-point"></rect><rect x="96" y="134" width="5" height="55" fill="#83522E" opacity="1" class="highcharts-point"></rect><rect x="81" y="128" width="4" height="61" fill="#83522E" opacity="1" class="highcharts-point"></rect><rect x="65" y="61" width="5" height="128" fill="#83522E" opacity="1" class="highcharts-point"></rect><rect x="50" y="80" width="4" height="109" fill="#83522E" opacity="1" class="highcharts-point"></rect><rect x="34" y="129" width="5" height="60" fill="#83522E" opacity="1" class="highcharts-point"></rect><rect x="19" y="45" width="4" height="144" fill="#83522E" opacity="1" class="highcharts-point"></rect><rect x="3" y="58" width="5" height="131" fill="#83522E" opacity="1" class="highcharts-point"></rect></g><g class="highcharts-markers highcharts-series-1 highcharts-column-series" data-z-index="0.1" opacity="1" transform="translate(305,196) rotate(90) scale(-1,1) scale(1 1)" clip-path="none"></g></g><text x="2" text-anchor="start" class="highcharts-title" data-z-index="4" style="color:#000000;font-size:10px;font-weight:bold;fill:#000000;" y="9"><tspan>Kantonales Wettbewerbsprofil</tspan></text><text x="2" text-anchor="start" class="highcharts-subtitle" data-z-index="4" style="color:#000000;font-size:10px;font-weight:normal;font-family:Arial;fill:#000000;" y="25"><tspan>Basel-Stadt im Vergleich zum Mediankanton, 2019</tspan></text><text x="2" text-anchor="start" class="highcharts-caption" data-z-index="4" style="color:#666666;fill:#666666;" y="219"></text><g class="highcharts-legend" data-z-index="7" transform="translate(114,39)"><rect fill="none" class="highcharts-legend-box" rx="0" ry="0" x="0" y="0" width="94" height="21" visibility="visible"></rect><g data-z-index="1"><g><g class="highcharts-legend-item highcharts-column-series highcharts-color-undefined highcharts-series-0" data-z-index="1" transform="translate(0,-5)"><text x="21" style="color:#333333;cursor:pointer;font-size:10px;font-weight:normal;fill:#333333;" text-anchor="start" data-z-index="2" y="13"><tspan>Basel-Stadt</tspan></text><rect x="3" y="4" width="10" height="10" fill="#CD9C00" class="highcharts-point" data-z-index="3"></rect></g><g class="highcharts-legend-item highcharts-column-series highcharts-color-undefined highcharts-series-1" data-z-index="1" transform="translate(0,8)"><text x="21" y="13" style="color:#333333;cursor:pointer;font-size:10px;font-weight:normal;fill:#333333;" text-anchor="start" data-z-index="2"><tspan>Mediankanton</tspan></text><rect x="3" y="4" width="10" height="10" fill="#83522E" class="highcharts-point" data-z-index="3"></rect></g></g></g></g><g class="highcharts-axis-labels highcharts-xaxis-labels" data-z-index="7"><text x="102" style="color:#000000;cursor:default;font-size:10px;fill:#000000;" text-anchor="end" transform="translate(0,0)" y="83" opacity="1"><tspan>Wirtschaftsstruktur</tspan></text><text x="102" style="color:#000000;cursor:default;font-size:10px;fill:#000000;" text-anchor="end" transform="translate(0,0)" y="98" opacity="1">Innovation</text><text x="102" style="color:#000000;cursor:default;font-size:10px;fill:#000000;" text-anchor="end" transform="translate(0,0)" y="114" opacity="1">Humankapital</text><text x="102" style="color:#000000;cursor:default;font-size:10px;fill:#000000;" text-anchor="end" transform="translate(0,0)" y="129" opacity="1">Arbeitsmarkt</text><text x="102" style="color:#000000;cursor:default;font-size:10px;fill:#000000;" text-anchor="end" transform="translate(0,0)" y="145" opacity="1">Erreichbarkeit</text><text x="102" style="color:#000000;cursor:default;font-size:10px;fill:#000000;" text-anchor="end" transform="translate(0,0)" y="160" opacity="1">Einzugsgebiet</text><text x="102" style="color:#000000;cursor:default;font-size:10px;fill:#000000;" text-anchor="end" transform="translate(0,0)" y="176" opacity="1">Kostenumfeld</text><text x="102" style="color:#000000;cursor:default;font-size:10px;fill:#000000;" text-anchor="end" transform="translate(0,0)" y="191" opacity="1">Staatsfinanzen</text></g><g class="highcharts-axis-labels highcharts-yaxis-labels" data-z-index="7"><text x="117" style="color:#000000;cursor:default;font-size:10px;fill:#000000;" text-anchor="middle" transform="translate(0,0)" y="208" opacity="1">0</text><text x="211" style="color:#000000;cursor:default;font-size:10px;fill:#000000;" text-anchor="middle" transform="translate(0,0)" y="208" opacity="1">50</text><text x="305" style="color:#000000;cursor:default;font-size:10px;fill:#000000;" text-anchor="middle" transform="translate(0,0)" y="208" opacity="1">100</text></g><text x="10" class="highcharts-credits" text-anchor="start" data-z-index="8" style="cursor:default;color:#000000;font-size:10;fill:#000000;" y="196"><tspan>Quelle: UBS Switzerland AG.</tspan><tspan x="10" dy="15">Zuletzt geändert: 2020-4-1</tspan></text><g class="highcharts-control-points" data-z-index="99" clip-path="url(#highcharts-cvvubou-41-)"></g></svg>