<?xml version="1.0" standalone="no"?><!DOCTYPE svg PUBLIC "-//W3C//DTD SVG 1.1//EN" "http://www.w3.org/Graphics/SVG/1.1/DTD/svg11.dtd"><svg xmlns:xlink="http://www.w3.org/1999/xlink" version="1.1" class="highcharts-root" style="font-family:Arial;font-size:12px;" xmlns="http://www.w3.org/2000/svg" viewBox="0 0 485 415"><desc>Created with Highstock 6.1.1</desc><defs><clipPath id="highcharts-7es6aou-8"><rect x="0" y="0" width="225" height="103" fill="none"></rect></clipPath><clipPath id="highcharts-7es6aou-9"><rect x="0" y="0" width="225" height="103" fill="none"></rect></clipPath><clipPath id="highcharts-7es6aou-10"><rect x="0" y="0" width="225" height="103" fill="none"></rect></clipPath></defs><rect fill="#fbfbfb" class="highcharts-background" x="0" y="0" width="320" height="208" rx="0" ry="0"></rect><rect fill="none" class="highcharts-plot-background" x="48" y="70" width="225" height="103"></rect><g class="highcharts-pane-group" data-z-index="0"></g><g class="highcharts-grid highcharts-xaxis-grid " data-z-index="1"><path fill="none" data-z-index="1" class="highcharts-grid-line" d="M 61.5 70 L 61.5 173" opacity="1"></path><path fill="none" data-z-index="1" class="highcharts-grid-line" d="M 86.5 70 L 86.5 173" opacity="1"></path><path fill="none" data-z-index="1" class="highcharts-grid-line" d="M 110.5 70 L 110.5 173" opacity="1"></path><path fill="none" data-z-index="1" class="highcharts-grid-line" d="M 135.5 70 L 135.5 173" opacity="1"></path><path fill="none" data-z-index="1" class="highcharts-grid-line" d="M 160.5 70 L 160.5 173" opacity="1"></path><path fill="none" data-z-index="1" class="highcharts-grid-line" d="M 184.5 70 L 184.5 173" opacity="1"></path><path fill="none" data-z-index="1" class="highcharts-grid-line" d="M 209.5 70 L 209.5 173" opacity="1"></path><path fill="none" data-z-index="1" class="highcharts-grid-line" d="M 233.5 70 L 233.5 173" opacity="1"></path><path fill="none" data-z-index="1" class="highcharts-grid-line" d="M 258.5 70 L 258.5 173" opacity="1"></path></g><g class="highcharts-grid highcharts-yaxis-grid " data-z-index="1"><path fill="none" stroke="#e6e6e6" stroke-width="1" data-z-index="1" class="highcharts-grid-line" d="M 48 173.5 L 273 173.5" opacity="1"></path><path fill="none" stroke="#e6e6e6" stroke-width="1" data-z-index="1" class="highcharts-grid-line" d="M 48 147.5 L 273 147.5" opacity="1"></path><path fill="none" stroke="#e6e6e6" stroke-width="1" data-z-index="1" class="highcharts-grid-line" d="M 48 122.5 L 273 122.5" opacity="1"></path><path fill="none" stroke="#e6e6e6" stroke-width="1" data-z-index="1" class="highcharts-grid-line" d="M 48 96.5 L 273 96.5" opacity="1"></path><path fill="none" stroke="#e6e6e6" stroke-width="1" data-z-index="1" class="highcharts-grid-line" d="M 48 69.5 L 273 69.5" opacity="1"></path></g><g class="highcharts-grid highcharts-yaxis-grid " data-z-index="1"><path fill="none" data-z-index="1" class="highcharts-grid-line" d="M 48 173.5 L 273 173.5" opacity="1"></path><path fill="none" data-z-index="1" class="highcharts-grid-line" d="M 48 147.5 L 273 147.5" opacity="1"></path><path fill="none" data-z-index="1" class="highcharts-grid-line" d="M 48 122.5 L 273 122.5" opacity="1"></path><path fill="none" data-z-index="1" class="highcharts-grid-line" d="M 48 96.5 L 273 96.5" opacity="1"></path><path fill="none" data-z-index="1" class="highcharts-grid-line" d="M 48 70.5 L 273 70.5" opacity="1"></path></g><rect fill="none" class="highcharts-plot-border" data-z-index="1" x="48" y="70" width="225" height="103"></rect><g class="highcharts-axis highcharts-xaxis " data-z-index="2"><path fill="none" class="highcharts-axis-line" stroke="#B9CFD7" stroke-width="0.5" data-z-index="7" d="M 48 173.25 L 273 173.25"></path></g><g class="highcharts-axis highcharts-yaxis " data-z-index="2"><path fill="none" class="highcharts-axis-line" data-z-index="7" d="M 48 70 L 48 173"></path></g><g class="highcharts-axis highcharts-yaxis " data-z-index="2"><path fill="none" class="highcharts-axis-line" data-z-index="7" d="M 273 70 L 273 173"></path></g><g class="highcharts-series-group" data-z-index="3"><g data-z-index="0.1" class="highcharts-series highcharts-series-0 highcharts-column-series " transform="translate(48,70) scale(1 1)" clip-path="url(#highcharts-7es6aou-9)"><rect x="8" y="43" width="12" height="61" fill="#E6E6E6" class="highcharts-point"></rect><rect x="33" y="50" width="12" height="54" fill="#E6E6E6" class="highcharts-point"></rect><rect x="57" y="47" width="12" height="57" fill="#E6E6E6" class="highcharts-point"></rect><rect x="82" y="47" width="12" height="57" fill="#E6E6E6" class="highcharts-point"></rect><rect x="107" y="43" width="12" height="61" fill="#E6E6E6" class="highcharts-point"></rect><rect x="131" y="42" width="12" height="62" fill="#E6E6E6" class="highcharts-point"></rect><rect x="156" y="41" width="12" height="63" fill="#E6E6E6" class="highcharts-point"></rect><rect x="180" y="38" width="12" height="66" fill="#E6E6E6" class="highcharts-point"></rect><rect x="205" y="33" width="12" height="71" fill="#E6E6E6" class="highcharts-point"></rect></g><g data-z-index="0.1" class="highcharts-markers highcharts-series-0 highcharts-column-series " transform="translate(48,70) scale(1 1)" clip-path="none"></g><g data-z-index="0.1" class="highcharts-series highcharts-series-1 highcharts-line-series " visibility="hidden" transform="translate(48,70) scale(1 1)" clip-path="url(#highcharts-7es6aou-10)"><path fill="none" d="M 14.246724890828 88.37526378288072 L 38.810043668121 88.29373220295993 L 63.373362445414 89.06740254625142 L 87.936681222707 88.30492087351905 L 112.5 88.51438996031155 L 137.06331877729 84.92022317364179 L 161.62663755459 86.28831389001904 L 186.18995633188 87.87221400950722 L 210.75327510917 88.18534295420366" class="highcharts-graph" data-z-index="1" stroke="#cd9c00" stroke-width="2" stroke-linejoin="round" stroke-linecap="round"></path></g><g data-z-index="0.1" class="highcharts-markers highcharts-series-1 highcharts-line-series " visibility="hidden" transform="translate(48,70) scale(1 1)" clip-path="none"></g><g data-z-index="0.1" class="highcharts-series highcharts-series-2 highcharts-line-series " visibility="hidden" transform="translate(48,70) scale(1 1)" clip-path="url(#highcharts-7es6aou-10)"><path fill="none" d="M 14.246724890828 100.45523412332804 L 38.810043668121 98.30247395839957 L 63.373362445414 95.38609548666295 L 87.936681222707 101.0584469844213 L 112.5 102.0141706971783 L 137.06331877729 102.05176495341844 L 161.62663755459 101.71064068521154 L 186.18995633188 96.78229638362802 L 210.75327510917 101.9704291473212" class="highcharts-graph" data-z-index="1" stroke="#ff8028" stroke-width="2" stroke-linejoin="round" stroke-linecap="round"></path></g><g data-z-index="0.1" class="highcharts-markers highcharts-series-2 highcharts-line-series " visibility="hidden" transform="translate(48,70) scale(1 1)" clip-path="none"></g><g data-z-index="0.1" class="highcharts-series highcharts-series-3 highcharts-line-series " visibility="hidden" transform="translate(48,70) scale(1 1)" clip-path="url(#highcharts-7es6aou-10)"><path fill="none" d="M 14.246724890828 96.27938442298729 L 38.810043668121 97.76350752966243 L 63.373362445414 97.63244433916513 L 87.936681222707 97.49568782009159 L 112.5 98.02767775404192 L 137.06331877729 98.19967522163411 L 161.62663755459 98.39474092894328 L 186.18995633188 97.92501322738205 L 210.75327510917 96.74249446531503" class="highcharts-graph" data-z-index="1" stroke="#b00000" stroke-width="2" stroke-linejoin="round" stroke-linecap="round"></path></g><g data-z-index="0.1" class="highcharts-markers highcharts-series-3 highcharts-line-series " visibility="hidden" transform="translate(48,70) scale(1 1)" clip-path="none"></g><g data-z-index="0.1" class="highcharts-series highcharts-series-4 highcharts-line-series " visibility="hidden" transform="translate(48,70) scale(1 1)" clip-path="url(#highcharts-7es6aou-10)"><path fill="none" d="M 14.246724890828 94.00745017420081 L 38.810043668121 95.46747571115851 L 63.373362445414 95.58327885291877 L 87.936681222707 95.5545715778033 L 112.5 92.84406143898636 L 137.06331877729 86.05829414998499 L 161.62663755459 89.00860441455448 L 186.18995633188 87.32066365567339 L 210.75327510917 88.13684431085794" class="highcharts-graph" data-z-index="1" stroke="#672773" stroke-width="2" stroke-linejoin="round" stroke-linecap="round"></path></g><g data-z-index="0.1" class="highcharts-markers highcharts-series-4 highcharts-line-series " visibility="hidden" transform="translate(48,70) scale(1 1)" clip-path="none"></g><g data-z-index="0.1" class="highcharts-series highcharts-series-5 highcharts-line-series " visibility="hidden" transform="translate(48,70) scale(1 1)" clip-path="url(#highcharts-7es6aou-10)"><path fill="none" d="M 14.246724890828 62.955781611100896 L 38.810043668121 60.3518669920881 L 63.373362445414 59.4232112715722 L 87.936681222707 57.47455016185489 L 112.5 54.79334838010909 L 137.06331877729 54.555868781992345 L 161.62663755459 51.327151573424274 L 186.18995633188 54.98017712481507 L 210.75327510917 53.92397051475071" class="highcharts-graph" data-z-index="1" stroke="#007a2f" stroke-width="2" stroke-linejoin="round" stroke-linecap="round"></path></g><g data-z-index="0.1" class="highcharts-markers highcharts-series-5 highcharts-line-series " visibility="hidden" transform="translate(48,70) scale(1 1)" clip-path="none"></g><g data-z-index="0.1" class="highcharts-series highcharts-series-6 highcharts-line-series " visibility="hidden" transform="translate(48,70) scale(1 1)" clip-path="url(#highcharts-7es6aou-10)"><path fill="none" d="M 14.246724890828 70.29541133306101 L 38.810043668121 67.41677996994324 L 63.373362445414 68.64383276317784 L 87.936681222707 67.63586523970164 L 112.5 55.354775656441866 L 137.06331877729 70.47982425064339 L 161.62663755459 70.66618879162874 L 186.18995633188 70.67992849247756 L 210.75327510917 70.26933528837648" class="highcharts-graph" data-z-index="1" stroke="#44ab2b" stroke-width="2" stroke-linejoin="round" stroke-linecap="round"></path></g><g data-z-index="0.1" class="highcharts-markers highcharts-series-6 highcharts-line-series " visibility="hidden" transform="translate(48,70) scale(1 1)" clip-path="none"></g><g data-z-index="0.1" class="highcharts-series highcharts-series-7 highcharts-line-series " visibility="hidden" transform="translate(48,70) scale(1 1)" clip-path="url(#highcharts-7es6aou-10)"><path fill="none" d="M 14.246724890828 88.8969067717905 L 38.810043668121 90.32809392444786 L 63.373362445414 90.0315915885848 L 87.936681222707 89.45539797745703 L 112.5 88.2114659282498 L 137.06331877729 88.80215577295658 L 161.62663755459 87.11358327398578 L 186.18995633188 84.98239889544797 L 210.75327510917 86.30759229254781" class="highcharts-graph" data-z-index="1" stroke="#b475ab" stroke-width="2" stroke-linejoin="round" stroke-linecap="round"></path></g><g data-z-index="0.1" class="highcharts-markers highcharts-series-7 highcharts-line-series " visibility="hidden" transform="translate(48,70) scale(1 1)" clip-path="none"></g><g data-z-index="0.1" class="highcharts-series highcharts-series-8 highcharts-line-series " transform="translate(48,70) scale(1 1)" clip-path="url(#highcharts-7es6aou-10)"><path fill="none" d="M 14.246724890828 42.07384495638836 L 38.810043668121 39.665526645281375 L 63.373362445414 38.52911536828722 L 87.936681222707 36.96692228207736 L 112.5 31.57710267894832 L 137.06331877729 28.375030266464833 L 161.62663755459 24.445004069339788 L 186.18995633188 20.465196201778042 L 210.75327510917 17.449214240249034" class="highcharts-graph" data-z-index="1" stroke="#ffbb58" stroke-width="2" stroke-linejoin="round" stroke-linecap="round"></path></g><g data-z-index="0.1" class="highcharts-markers highcharts-series-8 highcharts-line-series " transform="translate(48,70) scale(1 1)" clip-path="none"></g><g data-z-index="0.1" class="highcharts-series highcharts-series-9 highcharts-line-series " visibility="hidden" transform="translate(48,70) scale(1 1)" clip-path="url(#highcharts-7es6aou-10)"><path fill="none" d="M 14.246724890828 83.72466932082318 L 38.810043668121 84.81907579444686 L 63.373362445414 84.3711806105623 L 87.936681222707 83.45420522058625 L 112.5 82.405782221986 L 137.06331877729 80.80126142240688 L 161.62663755459 80.58665479510518 L 186.18995633188 80.51486686875012 L 210.75327510917 80.25237335144759" class="highcharts-graph" data-z-index="1" stroke="#a8c4cb" stroke-width="2" stroke-linejoin="round" stroke-linecap="round"></path></g><g data-z-index="0.1" class="highcharts-markers highcharts-series-9 highcharts-line-series " visibility="hidden" transform="translate(48,70) scale(1 1)" clip-path="none"></g><g data-z-index="0.1" class="highcharts-series highcharts-series-10 highcharts-line-series " visibility="hidden" transform="translate(48,70) scale(1 1)" clip-path="url(#highcharts-7es6aou-10)"><path fill="none" d="M 14.246724890828 59.02650938605272 L 38.810043668121 91.96878511349483 L 63.373362445414 81.9450486792754 L 87.936681222707 82.94725491027991 L 112.5 90.91754395634885 L 137.06331877729 89.45729925041108 L 161.62663755459 87.3405170113177 L 186.18995633188 83.69117964042795 L 210.75327510917 62.72983591502083" class="highcharts-graph" data-z-index="1" stroke="#256370" stroke-width="2" stroke-linejoin="round" stroke-linecap="round"></path></g><g data-z-index="0.1" class="highcharts-markers highcharts-series-10 highcharts-line-series " visibility="hidden" transform="translate(48,70) scale(1 1)" clip-path="none"></g></g><text x="2" text-anchor="start" class="highcharts-title" data-z-index="4" style="color:#000000;font-size:10px;font-weight:bold;fill:#000000;" y="9"><tspan>Entwicklung der Staatsausgaben nach Funktion</tspan></text><text x="2" text-anchor="start" class="highcharts-subtitle" data-z-index="4" style="color:#000000;font-size:10px;font-weight:normal;font-family:Arial;fill:#000000;" y="27"><tspan>pro Kopf in Franken</tspan></text><g class="highcharts-legend" data-z-index="7" transform="translate(44,43)"><rect fill="none" class="highcharts-legend-box" rx="0" ry="0" x="0" y="0" width="184" height="15" visibility="visible"></rect><g data-z-index="1"><g><g class="highcharts-legend-item highcharts-line-series highcharts-color-undefined highcharts-series-8" data-z-index="1" transform="translate(1,-4)"><path fill="none" d="M 0 10 L 16 10" class="highcharts-graph" stroke="#ffbb58" stroke-width="2"></path><text x="21" style="color:#333333;font-size:10px;font-weight:normal;cursor:pointer;fill:#333333;" text-anchor="start" data-z-index="2" y="13"><tspan>Bildung</tspan></text></g><g class="highcharts-legend-item highcharts-column-series highcharts-color-undefined highcharts-series-0" data-z-index="1" transform="translate(75.28125,-4)"><text x="21" y="13" style="color:#333333;font-size:10px;font-weight:normal;cursor:pointer;fill:#333333;" text-anchor="start" data-z-index="2"><tspan>Total (rechte Skala)</tspan></text><rect x="3" y="4" width="10" height="10" fill="#E6E6E6" class="highcharts-point" data-z-index="3"></rect></g></g></g></g><g class="highcharts-axis-labels highcharts-xaxis-labels " data-z-index="7"><text x="65.07515201557419" style="color:#000000;cursor:default;font-size:10;fill:#000000;" text-anchor="end" transform="translate(0,0) rotate(-45 65.07515201557419 189)" y="189" opacity="1">2008</text><text x="89.63847079286718" style="color:#000000;cursor:default;font-size:10;fill:#000000;" text-anchor="end" transform="translate(0,0) rotate(-45 89.63847079286718 189)" y="189" opacity="1">2009</text><text x="114.20178957015618" style="color:#000000;cursor:default;font-size:10;fill:#000000;" text-anchor="end" transform="translate(0,0) rotate(-45 114.20178957015618 189)" y="189" opacity="1">2010</text><text x="138.7651083474562" style="color:#000000;cursor:default;font-size:10;fill:#000000;" text-anchor="end" transform="translate(0,0) rotate(-45 138.7651083474562 189)" y="189" opacity="1">2011</text><text x="163.32842712474618" style="color:#000000;cursor:default;font-size:10;fill:#000000;" text-anchor="end" transform="translate(0,0) rotate(-45 163.32842712474618 189)" y="189" opacity="1">2012</text><text x="187.89174590203618" style="color:#000000;cursor:default;font-size:10;fill:#000000;" text-anchor="end" transform="translate(0,0) rotate(-45 187.89174590203618 189)" y="189" opacity="1">2013</text><text x="212.45506467933618" style="color:#000000;cursor:default;font-size:10;fill:#000000;" text-anchor="end" transform="translate(0,0) rotate(-45 212.45506467933618 189)" y="189" opacity="1">2014</text><text x="237.0183834566262" style="color:#000000;cursor:default;font-size:10;fill:#000000;" text-anchor="end" transform="translate(0,0) rotate(-45 237.0183834566262 189)" y="189" opacity="1">2015</text><text x="261.5817022339162" style="color:#000000;cursor:default;font-size:10;fill:#000000;" text-anchor="end" transform="translate(0,0) rotate(-45 261.5817022339162 189)" y="189" opacity="1">2016</text></g><g class="highcharts-axis-labels highcharts-yaxis-labels " data-z-index="7"><text x="33" style="color:#000000;cursor:default;font-size:10;fill:#000000;" text-anchor="end" transform="translate(0,0)" y="176" opacity="1">0</text><text x="33" style="color:#000000;cursor:default;font-size:10;fill:#000000;" text-anchor="end" transform="translate(0,0)" y="150" opacity="1"><tspan>2 500</tspan></text><text x="33" style="color:#000000;cursor:default;font-size:10;fill:#000000;" text-anchor="end" transform="translate(0,0)" y="125" opacity="1"><tspan>5 000</tspan></text><text x="33" style="color:#000000;cursor:default;font-size:10;fill:#000000;" text-anchor="end" transform="translate(0,0)" y="99" opacity="1"><tspan>7 500</tspan></text><text x="33" style="color:#000000;cursor:default;font-size:10;fill:#000000;" text-anchor="end" transform="translate(0,0)" y="73" opacity="1"><tspan>10 000</tspan></text></g><g class="highcharts-axis-labels highcharts-yaxis-labels " data-z-index="7"><text x="288" style="color:#000000;cursor:default;font-size:10;fill:#000000;" text-anchor="start" transform="translate(0,0)" y="176" opacity="1">0</text><text x="288" style="color:#000000;cursor:default;font-size:10;fill:#000000;" text-anchor="start" transform="translate(0,0)" y="150" opacity="1"><tspan>10 000</tspan></text><text x="288" style="color:#000000;cursor:default;font-size:10;fill:#000000;" text-anchor="start" transform="translate(0,0)" y="125" opacity="1"><tspan>20 000</tspan></text><text x="288" style="color:#000000;cursor:default;font-size:10;fill:#000000;" text-anchor="start" transform="translate(0,0)" y="99" opacity="1"><tspan>30 000</tspan></text><text x="288" style="color:#000000;cursor:default;font-size:10;fill:#000000;" text-anchor="start" transform="translate(0,0)" y="73" opacity="1"><tspan>40 000</tspan></text></g><text x="10" class="highcharts-credits" text-anchor="start" data-z-index="8" style="cursor:default;color:#000000;font-size:10;fill:#000000;" y="193"><tspan>Quelle: Eidgenössische Finanzverwaltung.</tspan></text></svg>