<?xml version="1.0" standalone="no"?><!DOCTYPE svg PUBLIC "-//W3C//DTD SVG 1.1//EN" "http://www.w3.org/Graphics/SVG/1.1/DTD/svg11.dtd"><svg xmlns:xlink="http://www.w3.org/1999/xlink" version="1.1" class="highcharts-root" style="font-family:Arial;font-size:12px;" xmlns="http://www.w3.org/2000/svg" viewBox="0 0 485 415"><desc>Created with Highcharts 8.1.0</desc><defs><clipPath id="highcharts-w4615gp-66-"><rect x="0" y="0" width="574" height="131" fill="none"></rect></clipPath><clipPath id="highcharts-w4615gp-86-"><rect x="0" y="0" width="574" height="131" fill="none"></rect></clipPath><clipPath id="highcharts-w4615gp-125-"><rect x="0" y="0" width="574" height="131" fill="none"></rect></clipPath><clipPath id="highcharts-w4615gp-126-"><rect x="52" y="59" width="574" height="131" fill="none"></rect></clipPath></defs><rect fill="#fbfbfb" class="highcharts-background" x="0" y="0" width="665" height="221" rx="0" ry="0"></rect><rect fill="none" class="highcharts-plot-background" x="52" y="59" width="574" height="131"></rect><g class="highcharts-pane-group" data-z-index="0"></g><g class="highcharts-grid highcharts-xaxis-grid" data-z-index="1"><path fill="none" data-z-index="1" class="highcharts-grid-line" d="M 81.5 59 L 81.5 190" opacity="1"></path><path fill="none" data-z-index="1" class="highcharts-grid-line" d="M 111.5 59 L 111.5 190" opacity="1"></path><path fill="none" data-z-index="1" class="highcharts-grid-line" d="M 142.5 59 L 142.5 190" opacity="1"></path><path fill="none" data-z-index="1" class="highcharts-grid-line" d="M 172.5 59 L 172.5 190" opacity="1"></path><path fill="none" data-z-index="1" class="highcharts-grid-line" d="M 202.5 59 L 202.5 190" opacity="1"></path><path fill="none" data-z-index="1" class="highcharts-grid-line" d="M 232.5 59 L 232.5 190" opacity="1"></path><path fill="none" data-z-index="1" class="highcharts-grid-line" d="M 262.5 59 L 262.5 190" opacity="1"></path><path fill="none" data-z-index="1" class="highcharts-grid-line" d="M 293.5 59 L 293.5 190" opacity="1"></path><path fill="none" data-z-index="1" class="highcharts-grid-line" d="M 323.5 59 L 323.5 190" opacity="1"></path><path fill="none" data-z-index="1" class="highcharts-grid-line" d="M 353.5 59 L 353.5 190" opacity="1"></path><path fill="none" data-z-index="1" class="highcharts-grid-line" d="M 383.5 59 L 383.5 190" opacity="1"></path><path fill="none" data-z-index="1" class="highcharts-grid-line" d="M 414.5 59 L 414.5 190" opacity="1"></path><path fill="none" data-z-index="1" class="highcharts-grid-line" d="M 444.5 59 L 444.5 190" opacity="1"></path><path fill="none" data-z-index="1" class="highcharts-grid-line" d="M 474.5 59 L 474.5 190" opacity="1"></path><path fill="none" data-z-index="1" class="highcharts-grid-line" d="M 504.5 59 L 504.5 190" opacity="1"></path><path fill="none" data-z-index="1" class="highcharts-grid-line" d="M 534.5 59 L 534.5 190" opacity="1"></path><path fill="none" data-z-index="1" class="highcharts-grid-line" d="M 565.5 59 L 565.5 190" opacity="1"></path><path fill="none" data-z-index="1" class="highcharts-grid-line" d="M 595.5 59 L 595.5 190" opacity="1"></path><path fill="none" data-z-index="1" class="highcharts-grid-line" d="M 625.5 59 L 625.5 190" opacity="1"></path><path fill="none" data-z-index="1" class="highcharts-grid-line" d="M 51.5 59 L 51.5 190" opacity="1"></path></g><g class="highcharts-grid highcharts-yaxis-grid" data-z-index="1"><path fill="none" stroke="#e6e6e6" stroke-width="1" data-z-index="1" class="highcharts-grid-line" d="M 52 190.5 L 626 190.5" opacity="1"></path><path fill="none" stroke="#e6e6e6" stroke-width="1" data-z-index="1" class="highcharts-grid-line" d="M 52 157.5 L 626 157.5" opacity="1"></path><path fill="none" stroke="#e6e6e6" stroke-width="1" data-z-index="1" class="highcharts-grid-line" d="M 52 125.5 L 626 125.5" opacity="1"></path><path fill="none" stroke="#e6e6e6" stroke-width="1" data-z-index="1" class="highcharts-grid-line" d="M 52 92.5 L 626 92.5" opacity="1"></path><path fill="none" stroke="#e6e6e6" stroke-width="1" data-z-index="1" class="highcharts-grid-line" d="M 52 58.5 L 626 58.5" opacity="1"></path></g><g class="highcharts-grid highcharts-yaxis-grid" data-z-index="1"><path fill="none" stroke="#e6e6e6" stroke-width="1" data-z-index="1" class="highcharts-grid-line" d="M 52 190.5 L 626 190.5" opacity="1"></path><path fill="none" stroke="#e6e6e6" stroke-width="1" data-z-index="1" class="highcharts-grid-line" d="M 52 157.5 L 626 157.5" opacity="1"></path><path fill="none" stroke="#e6e6e6" stroke-width="1" data-z-index="1" class="highcharts-grid-line" d="M 52 125.5 L 626 125.5" opacity="1"></path><path fill="none" stroke="#e6e6e6" stroke-width="1" data-z-index="1" class="highcharts-grid-line" d="M 52 92.5 L 626 92.5" opacity="1"></path><path fill="none" stroke="#e6e6e6" stroke-width="1" data-z-index="1" class="highcharts-grid-line" d="M 52 58.5 L 626 58.5" opacity="1"></path></g><rect fill="none" class="highcharts-plot-border" data-z-index="1" x="52" y="59" width="574" height="131"></rect><g class="highcharts-axis highcharts-xaxis" data-z-index="2"><path fill="none" class="highcharts-axis-line" stroke="#B9CFD7" stroke-width="0.5" data-z-index="7" d="M 52 190.25 L 626 190.25"></path></g><g class="highcharts-axis highcharts-yaxis" data-z-index="2"><path fill="none" class="highcharts-axis-line" data-z-index="7" d="M 52 59 L 52 190"></path></g><g class="highcharts-axis highcharts-yaxis" data-z-index="2"><path fill="none" class="highcharts-axis-line" data-z-index="7" d="M 626 59 L 626 190"></path></g><g class="highcharts-series-group" data-z-index="3"><g data-z-index="0.1" class="highcharts-series highcharts-series-0 highcharts-column-series" transform="translate(52,59) scale(1 1)" clip-path="url(#highcharts-w4615gp-86-)"><rect x="10" y="23" width="10" height="46" fill="#71A3B5" opacity="1" class="highcharts-point"></rect><rect x="40" y="27" width="10" height="43" fill="#71A3B5" opacity="1" class="highcharts-point"></rect><rect x="71" y="28" width="10" height="41" fill="#71A3B5" opacity="1" class="highcharts-point"></rect><rect x="101" y="31" width="10" height="41" fill="#71A3B5" opacity="1" class="highcharts-point"></rect><rect x="131" y="30" width="10" height="42" fill="#71A3B5" opacity="1" class="highcharts-point"></rect><rect x="161" y="30" width="10" height="43" fill="#71A3B5" opacity="1" class="highcharts-point"></rect><rect x="191" y="30" width="10" height="43" fill="#71A3B5" opacity="1" class="highcharts-point"></rect><rect x="222" y="31" width="10" height="43" fill="#71A3B5" opacity="1" class="highcharts-point"></rect><rect x="252" y="29" width="10" height="47" fill="#71A3B5" opacity="1" class="highcharts-point"></rect><rect x="282" y="27" width="10" height="44" fill="#71A3B5" opacity="1" class="highcharts-point"></rect><rect x="312" y="31" width="10" height="43" fill="#71A3B5" opacity="1" class="highcharts-point"></rect><rect x="342" y="36" width="10" height="42" fill="#71A3B5" opacity="1" class="highcharts-point"></rect><rect x="373" y="32" width="10" height="45" fill="#71A3B5" opacity="1" class="highcharts-point"></rect><rect x="403" y="36" width="10" height="42" fill="#71A3B5" opacity="1" class="highcharts-point"></rect><rect x="433" y="36" width="10" height="42" fill="#71A3B5" opacity="1" class="highcharts-point"></rect><rect x="463" y="36" width="10" height="41" fill="#71A3B5" opacity="1" class="highcharts-point"></rect><rect x="493" y="39" width="10" height="40" fill="#71A3B5" opacity="1" class="highcharts-point"></rect><rect x="524" y="42" width="10" height="38" fill="#71A3B5" opacity="1" class="highcharts-point"></rect><rect x="554" y="43" width="10" height="36" fill="#71A3B5" opacity="1" class="highcharts-point"></rect></g><g data-z-index="0.1" class="highcharts-markers highcharts-series-0 highcharts-column-series" transform="translate(52,59) scale(1 1)" clip-path="none"></g><g data-z-index="0.1" class="highcharts-series highcharts-series-1 highcharts-column-series" transform="translate(52,59) scale(1 1)" clip-path="url(#highcharts-w4615gp-86-)"><rect x="10" y="69" width="10" height="63" fill="#990300" opacity="1" class="highcharts-point"></rect><rect x="40" y="70" width="10" height="62" fill="#990300" opacity="1" class="highcharts-point"></rect><rect x="71" y="69" width="10" height="63" fill="#990300" opacity="1" class="highcharts-point"></rect><rect x="101" y="72" width="10" height="60" fill="#990300" opacity="1" class="highcharts-point"></rect><rect x="131" y="72" width="10" height="60" fill="#990300" opacity="1" class="highcharts-point"></rect><rect x="161" y="73" width="10" height="59" fill="#990300" opacity="1" class="highcharts-point"></rect><rect x="191" y="73" width="10" height="59" fill="#990300" opacity="1" class="highcharts-point"></rect><rect x="222" y="74" width="10" height="58" fill="#990300" opacity="1" class="highcharts-point"></rect><rect x="252" y="76" width="10" height="56" fill="#990300" opacity="1" class="highcharts-point"></rect><rect x="282" y="71" width="10" height="61" fill="#990300" opacity="1" class="highcharts-point"></rect><rect x="312" y="74" width="10" height="58" fill="#990300" opacity="1" class="highcharts-point"></rect><rect x="342" y="78" width="10" height="54" fill="#990300" opacity="1" class="highcharts-point"></rect><rect x="373" y="77" width="10" height="55" fill="#990300" opacity="1" class="highcharts-point"></rect><rect x="403" y="78" width="10" height="54" fill="#990300" opacity="1" class="highcharts-point"></rect><rect x="433" y="78" width="10" height="54" fill="#990300" opacity="1" class="highcharts-point"></rect><rect x="463" y="77" width="10" height="55" fill="#990300" opacity="1" class="highcharts-point"></rect><rect x="493" y="79" width="10" height="53" fill="#990300" opacity="1" class="highcharts-point"></rect><rect x="524" y="80" width="10" height="52" fill="#990300" opacity="1" class="highcharts-point"></rect><rect x="554" y="79" width="10" height="53" fill="#990300" opacity="1" class="highcharts-point"></rect></g><g data-z-index="0.1" class="highcharts-markers highcharts-series-1 highcharts-column-series" transform="translate(52,59) scale(1 1)" clip-path="none"></g><g data-z-index="0.1" class="highcharts-series highcharts-series-2 highcharts-line-series" transform="translate(52,59) scale(1 1)" clip-path="url(#highcharts-w4615gp-125-)"><path fill="none" d="M 15.105263157895 39.493745641391655 L 45.315789473684 42.290676498686494 L 75.526315789474 44.659732347297236 L 105.73684210526 42.684815466192575 L 135.94736842105 41.87784500732637 L 166.15789473684 38.80466937658798 L 196.36842105263 38.29796397027228 L 226.57894736842 37.92111189424281 L 256.78947368421 32.27596470886729 L 287 39.22739207574635 L 317.21052631579 37.24129525974524 L 347.42105263158 35.19317860944632 L 377.63157894737 33.47182466131434 L 407.84210526316 34.90386303698004 L 438.05263157895 36.15542721743488 L 468.26315789474 38.33377274635791 L 498.47368421053 37.481100642851615 L 528.68421052632 38.563071478595035 L 558.89473684211 43.39392457137116" class="highcharts-graph" data-z-index="1" stroke="#000000" stroke-width="2" stroke-linejoin="round" stroke-linecap="round"></path></g><g data-z-index="0.1" class="highcharts-markers highcharts-series-2 highcharts-line-series" transform="translate(52,59) scale(1 1)" clip-path="none"></g></g><text x="2" text-anchor="start" class="highcharts-title" data-z-index="4" style="color:#000000;font-size:10px;font-weight:bold;fill:#000000;" y="9"><tspan>Siedlungsabfälle, Wertstoffsammlungen, Recyclingquote</tspan></text><text x="2" text-anchor="start" class="highcharts-subtitle" data-z-index="4" style="color:#000000;font-size:10px;font-weight:normal;font-family:Arial;fill:#000000;" y="25"><tspan>Siedlungsabfälle und Wertstoffsammlungen in kg pro Kopf, Basel-Stadt</tspan></text><text x="2" text-anchor="start" class="highcharts-caption" data-z-index="4" style="color:#666666;fill:#666666;" y="221"></text><g class="highcharts-legend" data-z-index="7" transform="translate(49,39)"><rect fill="none" class="highcharts-legend-box" rx="0" ry="0" x="0" y="0" width="565" height="8" visibility="visible"></rect><g data-z-index="1"><g><g class="highcharts-legend-item highcharts-column-series highcharts-color-undefined highcharts-series-1" data-z-index="1" transform="translate(0,-5)"><text x="15" style="color:#333333;cursor:pointer;font-size:10px;font-weight:normal;fill:#333333;" text-anchor="start" data-z-index="2" y="13"><tspan>Siedlungsabfälle (Hauskehricht und Sperrgut)</tspan></text><rect x="0" y="4" width="10" height="10" fill="#990300" class="highcharts-point" data-z-index="3"></rect></g><g class="highcharts-legend-item highcharts-column-series highcharts-color-undefined highcharts-series-0" data-z-index="1" transform="translate(259.875,-5)"><text x="15" y="13" style="color:#333333;cursor:pointer;font-size:10px;font-weight:normal;fill:#333333;" text-anchor="start" data-z-index="2"><tspan>Wertstoffsammlungen</tspan></text><rect x="0" y="4" width="10" height="10" fill="#71A3B5" class="highcharts-point" data-z-index="3"></rect></g><g class="highcharts-legend-item highcharts-line-series highcharts-color-undefined highcharts-series-2" data-z-index="1" transform="translate(397.171875,-5)"><path fill="none" d="M 0 10 L 10 10" class="highcharts-graph" stroke="#000000" stroke-width="2"></path><text x="15" y="13" style="color:#333333;cursor:pointer;font-size:10px;font-weight:normal;fill:#333333;" text-anchor="start" data-z-index="2"><tspan>Recyclingquote (rechte Skala)</tspan></text></g></g></g></g><g class="highcharts-axis-labels highcharts-xaxis-labels" data-z-index="7"><text x="67.10526315789426" style="color:#000000;cursor:default;font-size:10px;fill:#000000;" text-anchor="middle" transform="translate(0,0)" y="208" opacity="1">2000</text><text x="97.31578947368526" style="color:#000000;cursor:default;font-size:10px;fill:#000000;" text-anchor="middle" transform="translate(0,0)" y="208" opacity="1">2001</text><text x="127.52631578947526" style="color:#000000;cursor:default;font-size:10px;fill:#000000;" text-anchor="middle" transform="translate(0,0)" y="208" opacity="1">2002</text><text x="157.73684210526525" style="color:#000000;cursor:default;font-size:10px;fill:#000000;" text-anchor="middle" transform="translate(0,0)" y="208" opacity="1">2003</text><text x="187.94736842105527" style="color:#000000;cursor:default;font-size:10px;fill:#000000;" text-anchor="middle" transform="translate(0,0)" y="208" opacity="1">2004</text><text x="218.15789473684526" style="color:#000000;cursor:default;font-size:10px;fill:#000000;" text-anchor="middle" transform="translate(0,0)" y="208" opacity="1">2005</text><text x="248.36842105263526" style="color:#000000;cursor:default;font-size:10px;fill:#000000;" text-anchor="middle" transform="translate(0,0)" y="208" opacity="1">2006</text><text x="278.57894736842525" style="color:#000000;cursor:default;font-size:10px;fill:#000000;" text-anchor="middle" transform="translate(0,0)" y="208" opacity="1">2007</text><text x="308.78947368421524" style="color:#000000;cursor:default;font-size:10px;fill:#000000;" text-anchor="middle" transform="translate(0,0)" y="208" opacity="1">2008</text><text x="338.9999999999953" style="color:#000000;cursor:default;font-size:10px;fill:#000000;" text-anchor="middle" transform="translate(0,0)" y="208" opacity="1">2009</text><text x="369.2105263157853" style="color:#000000;cursor:default;font-size:10px;fill:#000000;" text-anchor="middle" transform="translate(0,0)" y="208" opacity="1">2010</text><text x="399.42105263157526" style="color:#000000;cursor:default;font-size:10px;fill:#000000;" text-anchor="middle" transform="translate(0,0)" y="208" opacity="1">2011</text><text x="429.63157894736526" style="color:#000000;cursor:default;font-size:10px;fill:#000000;" text-anchor="middle" transform="translate(0,0)" y="208" opacity="1">2012</text><text x="459.84210526315525" style="color:#000000;cursor:default;font-size:10px;fill:#000000;" text-anchor="middle" transform="translate(0,0)" y="208" opacity="1">2013</text><text x="490.05263157894524" style="color:#000000;cursor:default;font-size:10px;fill:#000000;" text-anchor="middle" transform="translate(0,0)" y="208" opacity="1">2014</text><text x="520.2631578947353" style="color:#000000;cursor:default;font-size:10px;fill:#000000;" text-anchor="middle" transform="translate(0,0)" y="208" opacity="1">2015</text><text x="550.4736842105253" style="color:#000000;cursor:default;font-size:10px;fill:#000000;" text-anchor="middle" transform="translate(0,0)" y="208" opacity="1">2016</text><text x="580.6842105263153" style="color:#000000;cursor:default;font-size:10px;fill:#000000;" text-anchor="middle" transform="translate(0,0)" y="208" opacity="1">2017</text><text x="610.8947368421053" style="color:#000000;cursor:default;font-size:10px;fill:#000000;" text-anchor="middle" transform="translate(0,0)" y="208" opacity="1">2018</text></g><g class="highcharts-axis-labels highcharts-yaxis-labels" data-z-index="7"><text x="37" style="color:#000000;cursor:default;font-size:10px;fill:#000000;" text-anchor="end" transform="translate(0,0)" y="193" opacity="1"><tspan>0 kg</tspan></text><text x="37" style="color:#000000;cursor:default;font-size:10px;fill:#000000;" text-anchor="end" transform="translate(0,0)" y="160" opacity="1"><tspan>100 kg</tspan></text><text x="37" style="color:#000000;cursor:default;font-size:10px;fill:#000000;" text-anchor="end" transform="translate(0,0)" y="128" opacity="1"><tspan>200 kg</tspan></text><text x="37" style="color:#000000;cursor:default;font-size:10px;fill:#000000;" text-anchor="end" transform="translate(0,0)" y="95" opacity="1"><tspan>300 kg</tspan></text><text x="37" style="color:#000000;cursor:default;font-size:10px;fill:#000000;" text-anchor="end" transform="translate(0,0)" y="62" opacity="1"><tspan>400 kg</tspan></text></g><g class="highcharts-axis-labels highcharts-yaxis-labels" data-z-index="7"><text x="641" style="color:#000000;cursor:default;font-size:10px;fill:#000000;" text-anchor="start" transform="translate(0,0)" y="193" opacity="1">0%</text><text x="641" style="color:#000000;cursor:default;font-size:10px;fill:#000000;" text-anchor="start" transform="translate(0,0)" y="160" opacity="1">15%</text><text x="641" style="color:#000000;cursor:default;font-size:10px;fill:#000000;" text-anchor="start" transform="translate(0,0)" y="128" opacity="1">30%</text><text x="641" style="color:#000000;cursor:default;font-size:10px;fill:#000000;" text-anchor="start" transform="translate(0,0)" y="95" opacity="1">45%</text><text x="641" style="color:#000000;cursor:default;font-size:10px;fill:#000000;" text-anchor="start" transform="translate(0,0)" y="62" opacity="1">60%</text></g><text x="10" class="highcharts-credits" text-anchor="start" data-z-index="8" style="cursor:default;color:#000000;font-size:10;fill:#000000;" y="196"><tspan>Quelle: Amt für Umwelt und Energie Basel-Stadt.</tspan><tspan x="10" dy="15">Zuletzt geändert: 2020-4-1</tspan></text><g class="highcharts-control-points" data-z-index="99" clip-path="url(#highcharts-w4615gp-126-)"></g></svg>