<?xml version="1.0" standalone="no"?><!DOCTYPE svg PUBLIC "-//W3C//DTD SVG 1.1//EN" "http://www.w3.org/Graphics/SVG/1.1/DTD/svg11.dtd"><svg xmlns:xlink="http://www.w3.org/1999/xlink" version="1.1" class="highcharts-root" style="font-family:Arial;font-size:12px;" xmlns="http://www.w3.org/2000/svg" viewBox="0 0 485 415"><desc>Created with Highcharts 8.1.0</desc><defs><clipPath id="highcharts-giik3lg-20-"><rect x="0" y="0" width="270" height="136" fill="none"></rect></clipPath><clipPath id="highcharts-giik3lg-34-"><rect x="0" y="0" width="270" height="136" fill="none"></rect></clipPath><clipPath id="highcharts-giik3lg-35-"><rect x="48" y="42" width="270" height="136" fill="none"></rect></clipPath></defs><rect fill="#fbfbfb" class="highcharts-background" x="0" y="0" width="320" height="221" rx="0" ry="0"></rect><rect fill="none" class="highcharts-plot-background" x="48" y="42" width="270" height="136"></rect><g class="highcharts-pane-group" data-z-index="0"></g><g class="highcharts-grid highcharts-xaxis-grid" data-z-index="1"><path fill="none" data-z-index="1" class="highcharts-grid-line" d="M 50.5 42 L 50.5 178" opacity="1"></path><path fill="none" data-z-index="1" class="highcharts-grid-line" d="M 72.5 42 L 72.5 178" opacity="1"></path><path fill="none" data-z-index="1" class="highcharts-grid-line" d="M 94.5 42 L 94.5 178" opacity="1"></path><path fill="none" data-z-index="1" class="highcharts-grid-line" d="M 116.5 42 L 116.5 178" opacity="1"></path><path fill="none" data-z-index="1" class="highcharts-grid-line" d="M 138.5 42 L 138.5 178" opacity="1"></path><path fill="none" data-z-index="1" class="highcharts-grid-line" d="M 160.5 42 L 160.5 178" opacity="1"></path><path fill="none" data-z-index="1" class="highcharts-grid-line" d="M 182.5 42 L 182.5 178" opacity="1"></path><path fill="none" data-z-index="1" class="highcharts-grid-line" d="M 204.5 42 L 204.5 178" opacity="1"></path><path fill="none" data-z-index="1" class="highcharts-grid-line" d="M 226.5 42 L 226.5 178" opacity="1"></path><path fill="none" data-z-index="1" class="highcharts-grid-line" d="M 248.5 42 L 248.5 178" opacity="1"></path><path fill="none" data-z-index="1" class="highcharts-grid-line" d="M 270.5 42 L 270.5 178" opacity="1"></path><path fill="none" data-z-index="1" class="highcharts-grid-line" d="M 292.5 42 L 292.5 178" opacity="1"></path><path fill="none" data-z-index="1" class="highcharts-grid-line" d="M 314.5 42 L 314.5 178" opacity="1"></path></g><g class="highcharts-grid highcharts-yaxis-grid" data-z-index="1"><path fill="none" stroke="#B9CFD7" stroke-width="0.5" data-z-index="1" class="highcharts-grid-line" d="M 48 178.25 L 318 178.25" opacity="1"></path><path fill="none" stroke="#B9CFD7" stroke-width="0.5" data-z-index="1" class="highcharts-grid-line" d="M 48 133.25 L 318 133.25" opacity="1"></path><path fill="none" stroke="#B9CFD7" stroke-width="0.5" data-z-index="1" class="highcharts-grid-line" d="M 48 87.25 L 318 87.25" opacity="1"></path><path fill="none" stroke="#B9CFD7" stroke-width="0.5" data-z-index="1" class="highcharts-grid-line" d="M 48 41.75 L 318 41.75" opacity="1"></path></g><rect fill="none" class="highcharts-plot-border" data-z-index="1" x="48" y="42" width="270" height="136"></rect><g class="highcharts-axis highcharts-xaxis" data-z-index="2"><path fill="none" class="highcharts-axis-line" stroke="#B9CFD7" stroke-width="0.5" data-z-index="7" d="M 48 178.25 L 318 178.25"></path></g><g class="highcharts-axis highcharts-yaxis" data-z-index="2"><path fill="none" class="highcharts-axis-line" data-z-index="7" d="M 48 42 L 48 178"></path></g><g class="highcharts-series-group" data-z-index="3"><g data-z-index="0.1" class="highcharts-series highcharts-series-0 highcharts-line-series" transform="translate(48,42) scale(1 1)" clip-path="url(#highcharts-giik3lg-34-)"><path fill="none" d="M 2.6470588235271 17.732133333333323 L 24.705882352939 21.46986666666666 L 46.764705882351 23.382933333333327 L 68.823529411764 18.325999999999993 L 90.882352941176 19.300666666666658 L 112.94117647059 17.3604 L 135 14.953199999999995 L 157.05882352941 12.933599999999984 L 179.11764705882 21.982133333333323 L 201.17647058824 21.23186666666666 L 223.23529411765 19.88093333333333 L 245.29411764706 18.389466666666664 L 267.35294117647 20.431733333333327" class="highcharts-graph" data-z-index="1" stroke="#8b2223" stroke-width="2" stroke-linejoin="round" stroke-linecap="round"></path></g><g data-z-index="0.1" class="highcharts-markers highcharts-series-0 highcharts-line-series" transform="translate(48,42) scale(1 1)" clip-path="none"></g></g><text x="2" text-anchor="start" class="highcharts-title" data-z-index="4" style="color:#000000;font-size:10px;font-weight:bold;fill:#000000;" y="12"><tspan>Bezügerinnen und Bezüger von Prämienverbilligung</tspan></text><text x="2" text-anchor="start" class="highcharts-subtitle" data-z-index="4" style="color:#000000;font-size:10px;font-weight:normal;font-family:Arial;fill:#000000;" y="28"><tspan>Basel-Stadt</tspan></text><text x="2" text-anchor="start" class="highcharts-caption" data-z-index="4" style="color:#666666;fill:#666666;" y="221"></text><g class="highcharts-axis-labels highcharts-xaxis-labels" data-z-index="7"><text x="53.004081427482156" style="color:#000000;cursor:default;font-size:10px;white-space:nowrap;fill:#000000;" text-anchor="end" transform="translate(0,0) rotate(-45 53.004081427482156 193)" y="193" opacity="1">2006</text><text x="75.06290495689416" style="color:#000000;cursor:default;font-size:10px;white-space:nowrap;fill:#000000;" text-anchor="end" transform="translate(0,0) rotate(-45 75.06290495689416 193)" y="193" opacity="1">2007</text><text x="97.12172848630615" style="color:#000000;cursor:default;font-size:10px;white-space:nowrap;fill:#000000;" text-anchor="end" transform="translate(0,0) rotate(-45 97.12172848630615 193)" y="193" opacity="1">2008</text><text x="119.18055201571516" style="color:#000000;cursor:default;font-size:10px;white-space:nowrap;fill:#000000;" text-anchor="end" transform="translate(0,0) rotate(-45 119.18055201571516 193)" y="193" opacity="1">2009</text><text x="141.23937554513515" style="color:#000000;cursor:default;font-size:10px;white-space:nowrap;fill:#000000;" text-anchor="end" transform="translate(0,0) rotate(-45 141.23937554513515 193)" y="193" opacity="1">2010</text><text x="163.29819907454515" style="color:#000000;cursor:default;font-size:10px;white-space:nowrap;fill:#000000;" text-anchor="end" transform="translate(0,0) rotate(-45 163.29819907454515 193)" y="193" opacity="1">2011</text><text x="185.35702260395516" style="color:#000000;cursor:default;font-size:10px;white-space:nowrap;fill:#000000;" text-anchor="end" transform="translate(0,0) rotate(-45 185.35702260395516 193)" y="193" opacity="1">2012</text><text x="207.41584613336516" style="color:#000000;cursor:default;font-size:10px;white-space:nowrap;fill:#000000;" text-anchor="end" transform="translate(0,0) rotate(-45 207.41584613336516 193)" y="193" opacity="1">2013</text><text x="229.47466966277517" style="color:#000000;cursor:default;font-size:10px;white-space:nowrap;fill:#000000;" text-anchor="end" transform="translate(0,0) rotate(-45 229.47466966277517 193)" y="193" opacity="1">2014</text><text x="251.53349319219515" style="color:#000000;cursor:default;font-size:10px;white-space:nowrap;fill:#000000;" text-anchor="end" transform="translate(0,0) rotate(-45 251.53349319219515 193)" y="193" opacity="1">2015</text><text x="273.5923167216052" style="color:#000000;cursor:default;font-size:10px;white-space:nowrap;fill:#000000;" text-anchor="end" transform="translate(0,0) rotate(-45 273.5923167216052 193)" y="193" opacity="1">2016</text><text x="295.65114025101514" style="color:#000000;cursor:default;font-size:10px;white-space:nowrap;fill:#000000;" text-anchor="end" transform="translate(0,0) rotate(-45 295.65114025101514 193)" y="193" opacity="1">2017</text><text x="317.70996378042514" style="color:#000000;cursor:default;font-size:10px;white-space:nowrap;fill:#000000;" text-anchor="end" transform="translate(0,0) rotate(-45 317.70996378042514 193)" y="193" opacity="1">2018</text></g><g class="highcharts-axis-labels highcharts-yaxis-labels" data-z-index="7"><text x="33" style="color:#000000;cursor:default;font-size:10;fill:#000000;" text-anchor="end" transform="translate(0,0)" y="181" opacity="1">0</text><text x="33" style="color:#000000;cursor:default;font-size:10;fill:#000000;" text-anchor="end" transform="translate(0,0)" y="136" opacity="1"><tspan>20 000</tspan></text><text x="33" style="color:#000000;cursor:default;font-size:10;fill:#000000;" text-anchor="end" transform="translate(0,0)" y="90" opacity="1"><tspan>40 000</tspan></text><text x="33" style="color:#000000;cursor:default;font-size:10;fill:#000000;" text-anchor="end" transform="translate(0,0)" y="45" opacity="1"><tspan>60 000</tspan></text></g><text x="10" class="highcharts-credits" text-anchor="start" data-z-index="8" style="cursor:default;color:#000000;font-size:10px;fill:#000000;" y="196"><tspan>Quelle: Amt für Sozialbeiträge Basel-Stadt, Abteilung Prämienverbilligungen und Familienmietzinsbeiträge.</tspan><tspan x="10" dy="13">Zuletzt geändert: 2020-4-1</tspan></text><g class="highcharts-control-points" data-z-index="99" clip-path="url(#highcharts-giik3lg-35-)"></g></svg>