<?xml version="1.0" standalone="no"?><!DOCTYPE svg PUBLIC "-//W3C//DTD SVG 1.1//EN" "http://www.w3.org/Graphics/SVG/1.1/DTD/svg11.dtd"><svg xmlns:xlink="http://www.w3.org/1999/xlink" version="1.1" class="highcharts-root" style="font-family:Arial;font-size:12px;" xmlns="http://www.w3.org/2000/svg" viewBox="0 0 485 415"><desc>Created with Highstock 6.1.1</desc><defs><clipPath id="highcharts-69jctdb-6"><rect x="0" y="0" width="270" height="54" fill="none"></rect></clipPath><clipPath id="highcharts-69jctdb-7"><rect x="0" y="0" width="270" height="54" fill="none"></rect></clipPath></defs><rect fill="#fbfbfb" class="highcharts-background" x="0" y="0" width="320" height="221" rx="0" ry="0"></rect><rect fill="none" class="highcharts-plot-background" x="48" y="80" width="270" height="54"></rect><g class="highcharts-pane-group" data-z-index="0"></g><g class="highcharts-grid highcharts-xaxis-grid " data-z-index="1"><path fill="none" data-z-index="1" class="highcharts-grid-line" d="M 56.5 80 L 56.5 134" opacity="1"></path><path fill="none" data-z-index="1" class="highcharts-grid-line" d="M 66.5 80 L 66.5 134" opacity="1"></path><path fill="none" data-z-index="1" class="highcharts-grid-line" d="M 75.5 80 L 75.5 134" opacity="1"></path><path fill="none" data-z-index="1" class="highcharts-grid-line" d="M 84.5 80 L 84.5 134" opacity="1"></path><path fill="none" data-z-index="1" class="highcharts-grid-line" d="M 94.5 80 L 94.5 134" opacity="1"></path><path fill="none" data-z-index="1" class="highcharts-grid-line" d="M 103.5 80 L 103.5 134" opacity="1"></path><path fill="none" data-z-index="1" class="highcharts-grid-line" d="M 112.5 80 L 112.5 134" opacity="1"></path><path fill="none" data-z-index="1" class="highcharts-grid-line" d="M 121.5 80 L 121.5 134" opacity="1"></path><path fill="none" data-z-index="1" class="highcharts-grid-line" d="M 131.5 80 L 131.5 134" opacity="1"></path><path fill="none" data-z-index="1" class="highcharts-grid-line" d="M 140.5 80 L 140.5 134" opacity="1"></path><path fill="none" data-z-index="1" class="highcharts-grid-line" d="M 149.5 80 L 149.5 134" opacity="1"></path><path fill="none" data-z-index="1" class="highcharts-grid-line" d="M 159.5 80 L 159.5 134" opacity="1"></path><path fill="none" data-z-index="1" class="highcharts-grid-line" d="M 168.5 80 L 168.5 134" opacity="1"></path><path fill="none" data-z-index="1" class="highcharts-grid-line" d="M 177.5 80 L 177.5 134" opacity="1"></path><path fill="none" data-z-index="1" class="highcharts-grid-line" d="M 187.5 80 L 187.5 134" opacity="1"></path><path fill="none" data-z-index="1" class="highcharts-grid-line" d="M 196.5 80 L 196.5 134" opacity="1"></path><path fill="none" data-z-index="1" class="highcharts-grid-line" d="M 205.5 80 L 205.5 134" opacity="1"></path><path fill="none" data-z-index="1" class="highcharts-grid-line" d="M 215.5 80 L 215.5 134" opacity="1"></path><path fill="none" data-z-index="1" class="highcharts-grid-line" d="M 224.5 80 L 224.5 134" opacity="1"></path><path fill="none" data-z-index="1" class="highcharts-grid-line" d="M 233.5 80 L 233.5 134" opacity="1"></path><path fill="none" data-z-index="1" class="highcharts-grid-line" d="M 243.5 80 L 243.5 134" opacity="1"></path><path fill="none" data-z-index="1" class="highcharts-grid-line" d="M 252.5 80 L 252.5 134" opacity="1"></path><path fill="none" data-z-index="1" class="highcharts-grid-line" d="M 261.5 80 L 261.5 134" opacity="1"></path><path fill="none" data-z-index="1" class="highcharts-grid-line" d="M 270.5 80 L 270.5 134" opacity="1"></path><path fill="none" data-z-index="1" class="highcharts-grid-line" d="M 280.5 80 L 280.5 134" opacity="1"></path><path fill="none" data-z-index="1" class="highcharts-grid-line" d="M 289.5 80 L 289.5 134" opacity="1"></path><path fill="none" data-z-index="1" class="highcharts-grid-line" d="M 298.5 80 L 298.5 134" opacity="1"></path><path fill="none" data-z-index="1" class="highcharts-grid-line" d="M 308.5 80 L 308.5 134" opacity="1"></path><path fill="none" data-z-index="1" class="highcharts-grid-line" d="M 317.5 80 L 317.5 134" opacity="1"></path><path fill="none" data-z-index="1" class="highcharts-grid-line" d="M 47.5 80 L 47.5 134" opacity="1"></path></g><g class="highcharts-grid highcharts-yaxis-grid " data-z-index="1"><path fill="none" stroke="#B9CFD7" stroke-width="0.5" data-z-index="1" class="highcharts-grid-line" d="M 48 134.25 L 318 134.25" opacity="1"></path><path fill="none" stroke="#B9CFD7" stroke-width="0.5" data-z-index="1" class="highcharts-grid-line" d="M 48 121.25 L 318 121.25" opacity="1"></path><path fill="none" stroke="#B9CFD7" stroke-width="0.5" data-z-index="1" class="highcharts-grid-line" d="M 48 107.25 L 318 107.25" opacity="1"></path><path fill="none" stroke="#B9CFD7" stroke-width="0.5" data-z-index="1" class="highcharts-grid-line" d="M 48 94.25 L 318 94.25" opacity="1"></path><path fill="none" stroke="#B9CFD7" stroke-width="0.5" data-z-index="1" class="highcharts-grid-line" d="M 48 79.75 L 318 79.75" opacity="1"></path></g><rect fill="none" class="highcharts-plot-border" data-z-index="1" x="48" y="80" width="270" height="54"></rect><g class="highcharts-axis highcharts-xaxis " data-z-index="2"><path fill="none" class="highcharts-axis-line" stroke="#B9CFD7" stroke-width="0.5" data-z-index="7" d="M 48 134.25 L 318 134.25"></path></g><g class="highcharts-axis highcharts-yaxis " data-z-index="2"><path fill="none" class="highcharts-axis-line" data-z-index="7" d="M 48 80 L 48 134"></path></g><g class="highcharts-series-group" data-z-index="3"><g data-z-index="0.1" class="highcharts-series highcharts-series-0 highcharts-column-series " transform="translate(48,80) scale(1 1)" clip-path="url(#highcharts-69jctdb-7)"><rect x="1" y="17" width="8" height="2" fill="#68AB2B" class="highcharts-point"></rect><rect x="10" y="23" width="8" height="1" fill="#68AB2B" class="highcharts-point"></rect><rect x="29" y="17" width="8" height="1" fill="#68AB2B" class="highcharts-point"></rect><rect x="38" y="22" width="8" height="1" fill="#68AB2B" class="highcharts-point"></rect><rect x="57" y="16" width="8" height="2" fill="#68AB2B" class="highcharts-point"></rect><rect x="66" y="21" width="8" height="1" fill="#68AB2B" class="highcharts-point"></rect><rect x="85" y="15" width="8" height="1" fill="#68AB2B" class="highcharts-point"></rect><rect x="94" y="21" width="8" height="1" fill="#68AB2B" class="highcharts-point"></rect><rect x="113" y="15" width="8" height="1" fill="#68AB2B" class="highcharts-point"></rect><rect x="122" y="20" width="8" height="1" fill="#68AB2B" class="highcharts-point"></rect><rect x="141" y="14" width="8" height="2" fill="#68AB2B" class="highcharts-point"></rect><rect x="150" y="17" width="8" height="2" fill="#68AB2B" class="highcharts-point"></rect><rect x="169" y="14" width="8" height="2" fill="#68AB2B" class="highcharts-point"></rect><rect x="178" y="15" width="8" height="2" fill="#68AB2B" class="highcharts-point"></rect><rect x="196" y="14" width="8" height="2" fill="#68AB2B" class="highcharts-point"></rect><rect x="206" y="14" width="8" height="2" fill="#68AB2B" class="highcharts-point"></rect><rect x="224" y="13" width="8" height="3" fill="#68AB2B" class="highcharts-point"></rect><rect x="234" y="11" width="8" height="2" fill="#68AB2B" class="highcharts-point"></rect><rect x="252" y="17" width="8" height="2" fill="#68AB2B" class="highcharts-point"></rect><rect x="262" y="6" width="8" height="2" fill="#68AB2B" class="highcharts-point"></rect></g><g data-z-index="0.1" class="highcharts-markers highcharts-series-0 highcharts-column-series " transform="translate(48,80) scale(1 1)" clip-path="none"></g><g data-z-index="0.1" class="highcharts-series highcharts-series-1 highcharts-column-series " transform="translate(48,80) scale(1 1)" clip-path="url(#highcharts-69jctdb-7)"><rect x="1" y="19" width="8" height="2" fill="#fabd24" class="highcharts-point"></rect><rect x="10" y="24" width="8" height="2" fill="#fabd24" class="highcharts-point"></rect><rect x="29" y="18" width="8" height="3" fill="#fabd24" class="highcharts-point"></rect><rect x="38" y="23" width="8" height="2" fill="#fabd24" class="highcharts-point"></rect><rect x="57" y="18" width="8" height="2" fill="#fabd24" class="highcharts-point"></rect><rect x="66" y="22" width="8" height="2" fill="#fabd24" class="highcharts-point"></rect><rect x="85" y="16" width="8" height="3" fill="#fabd24" class="highcharts-point"></rect><rect x="94" y="22" width="8" height="1" fill="#fabd24" class="highcharts-point"></rect><rect x="113" y="16" width="8" height="3" fill="#fabd24" class="highcharts-point"></rect><rect x="122" y="21" width="8" height="1" fill="#fabd24" class="highcharts-point"></rect><rect x="141" y="16" width="8" height="3" fill="#fabd24" class="highcharts-point"></rect><rect x="150" y="19" width="8" height="1" fill="#fabd24" class="highcharts-point"></rect><rect x="169" y="16" width="8" height="3" fill="#fabd24" class="highcharts-point"></rect><rect x="178" y="17" width="8" height="1" fill="#fabd24" class="highcharts-point"></rect><rect x="196" y="16" width="8" height="3" fill="#fabd24" class="highcharts-point"></rect><rect x="206" y="16" width="8" height="1" fill="#fabd24" class="highcharts-point"></rect><rect x="224" y="16" width="8" height="3" fill="#fabd24" class="highcharts-point"></rect><rect x="234" y="13" width="8" height="1" fill="#fabd24" class="highcharts-point"></rect><rect x="252" y="19" width="8" height="2" fill="#fabd24" class="highcharts-point"></rect><rect x="262" y="8" width="8" height="2" fill="#fabd24" class="highcharts-point"></rect></g><g data-z-index="0.1" class="highcharts-markers highcharts-series-1 highcharts-column-series " transform="translate(48,80) scale(1 1)" clip-path="none"></g><g data-z-index="0.1" class="highcharts-series highcharts-series-2 highcharts-column-series " transform="translate(48,80) scale(1 1)" clip-path="url(#highcharts-69jctdb-7)"><rect x="1" y="21" width="8" height="4" fill="#a8c4cb" class="highcharts-point"></rect><rect x="10" y="26" width="8" height="0" fill="#a8c4cb" class="highcharts-point"></rect><rect x="29" y="21" width="8" height="4" fill="#a8c4cb" class="highcharts-point"></rect><rect x="38" y="25" width="8" height="0" fill="#a8c4cb" class="highcharts-point"></rect><rect x="57" y="20" width="8" height="4" fill="#a8c4cb" class="highcharts-point"></rect><rect x="66" y="24" width="8" height="0" fill="#a8c4cb" class="highcharts-point"></rect><rect x="85" y="19" width="8" height="5" fill="#a8c4cb" class="highcharts-point"></rect><rect x="94" y="23" width="8" height="1" fill="#a8c4cb" class="highcharts-point"></rect><rect x="113" y="19" width="8" height="5" fill="#a8c4cb" class="highcharts-point"></rect><rect x="122" y="22" width="8" height="0" fill="#a8c4cb" class="highcharts-point"></rect><rect x="141" y="19" width="8" height="5" fill="#a8c4cb" class="highcharts-point"></rect><rect x="150" y="20" width="8" height="0" fill="#a8c4cb" class="highcharts-point"></rect><rect x="169" y="19" width="8" height="4" fill="#a8c4cb" class="highcharts-point"></rect><rect x="178" y="18" width="8" height="1" fill="#a8c4cb" class="highcharts-point"></rect><rect x="196" y="19" width="8" height="4" fill="#a8c4cb" class="highcharts-point"></rect><rect x="206" y="17" width="8" height="1" fill="#a8c4cb" class="highcharts-point"></rect><rect x="224" y="19" width="8" height="4" fill="#a8c4cb" class="highcharts-point"></rect><rect x="234" y="14" width="8" height="1" fill="#a8c4cb" class="highcharts-point"></rect><rect x="252" y="21" width="8" height="3" fill="#a8c4cb" class="highcharts-point"></rect><rect x="262" y="10" width="8" height="2" fill="#a8c4cb" class="highcharts-point"></rect></g><g data-z-index="0.1" class="highcharts-markers highcharts-series-2 highcharts-column-series " transform="translate(48,80) scale(1 1)" clip-path="none"></g><g data-z-index="0.1" class="highcharts-series highcharts-series-3 highcharts-column-series " transform="translate(48,80) scale(1 1)" clip-path="url(#highcharts-69jctdb-7)"><rect x="1" y="25" width="8" height="30" fill="#b475ab" class="highcharts-point"></rect><rect x="10" y="26" width="8" height="29" fill="#b475ab" class="highcharts-point"></rect><rect x="29" y="25" width="8" height="30" fill="#b475ab" class="highcharts-point"></rect><rect x="38" y="25" width="8" height="30" fill="#b475ab" class="highcharts-point"></rect><rect x="57" y="24" width="8" height="31" fill="#b475ab" class="highcharts-point"></rect><rect x="66" y="24" width="8" height="31" fill="#b475ab" class="highcharts-point"></rect><rect x="85" y="24" width="8" height="31" fill="#b475ab" class="highcharts-point"></rect><rect x="94" y="24" width="8" height="31" fill="#b475ab" class="highcharts-point"></rect><rect x="113" y="24" width="8" height="31" fill="#b475ab" class="highcharts-point"></rect><rect x="122" y="22" width="8" height="33" fill="#b475ab" class="highcharts-point"></rect><rect x="141" y="24" width="8" height="31" fill="#b475ab" class="highcharts-point"></rect><rect x="150" y="20" width="8" height="35" fill="#b475ab" class="highcharts-point"></rect><rect x="169" y="23" width="8" height="32" fill="#b475ab" class="highcharts-point"></rect><rect x="178" y="19" width="8" height="36" fill="#b475ab" class="highcharts-point"></rect><rect x="196" y="23" width="8" height="32" fill="#b475ab" class="highcharts-point"></rect><rect x="206" y="18" width="8" height="37" fill="#b475ab" class="highcharts-point"></rect><rect x="224" y="23" width="8" height="32" fill="#b475ab" class="highcharts-point"></rect><rect x="234" y="15" width="8" height="40" fill="#b475ab" class="highcharts-point"></rect><rect x="252" y="24" width="8" height="31" fill="#b475ab" class="highcharts-point"></rect><rect x="262" y="12" width="8" height="43" fill="#b475ab" class="highcharts-point"></rect></g><g data-z-index="0.1" class="highcharts-markers highcharts-series-3 highcharts-column-series " transform="translate(48,80) scale(1 1)" clip-path="none"></g></g><text x="2" text-anchor="start" class="highcharts-title" data-z-index="4" style="color:#000000;font-size:10px;font-weight:bold;fill:#000000;" y="9"><tspan>Station채re F채lle in Basler Spit채lern</tspan></text><text x="2" text-anchor="start" class="highcharts-subtitle" data-z-index="4" style="color:#000000;font-size:10px;font-weight:normal;font-family:Arial;fill:#000000;" y="27"><tspan>Nach Hauptbereich und Wohnort</tspan></text><g class="highcharts-legend" data-z-index="7" transform="translate(45,43)"><rect fill="none" class="highcharts-legend-box" rx="0" ry="0" x="0" y="0" width="182" height="25" visibility="visible"></rect><g data-z-index="1"><g><g class="highcharts-legend-item highcharts-column-series highcharts-color-undefined highcharts-series-0" data-z-index="1" transform="translate(0,-5)"><text x="21" style="color:#333333;font-size:10px;font-weight:normal;cursor:pointer;fill:#333333;" text-anchor="start" data-z-index="2" y="13"><tspan>Rehabilitation</tspan></text><rect x="3" y="4" width="10" height="10" fill="#68AB2B" class="highcharts-point" data-z-index="3"></rect></g><g class="highcharts-legend-item highcharts-column-series highcharts-color-undefined highcharts-series-1" data-z-index="1" transform="translate(101.453125,-5)"><text x="21" y="13" style="color:#333333;font-size:10px;font-weight:normal;cursor:pointer;fill:#333333;" text-anchor="start" data-z-index="2"><tspan>Psychiatrie</tspan></text><rect x="3" y="4" width="10" height="10" fill="#fabd24" class="highcharts-point" data-z-index="3"></rect></g><g class="highcharts-legend-item highcharts-column-series highcharts-color-undefined highcharts-series-2" data-z-index="1" transform="translate(0,10)"><text x="21" y="13" style="color:#333333;font-size:10px;font-weight:normal;cursor:pointer;fill:#333333;" text-anchor="start" data-z-index="2"><tspan>Geriatrie</tspan></text><rect x="3" y="4" width="10" height="10" fill="#a8c4cb" class="highcharts-point" data-z-index="3"></rect></g><g class="highcharts-legend-item highcharts-column-series highcharts-color-undefined highcharts-series-3" data-z-index="1" transform="translate(101.453125,10)"><text x="21" y="13" style="color:#333333;font-size:10px;font-weight:normal;cursor:pointer;fill:#333333;" text-anchor="start" data-z-index="2"><tspan>Akutsomatik</tspan></text><rect x="3" y="4" width="10" height="10" fill="#b475ab" class="highcharts-point" data-z-index="3"></rect></g></g></g></g><g class="highcharts-axis-labels highcharts-xaxis-labels " data-z-index="7"><text x="56.6551724137929" style="color:#000000;cursor:default;font-size:10;fill:#000000;" text-anchor="end" transform="translate(0,0) rotate(-90 56.6551724137929 146)" y="146" opacity="1"><tspan>BS 2008</tspan></text><text x="65.9655172413789" style="color:#000000;cursor:default;font-size:10;fill:#000000;" text-anchor="end" transform="translate(0,0) rotate(-90 65.9655172413789 146)" y="146" opacity="1"><tspan>Nicht-BS 2008</tspan></text><text x="75.27586206896589" style="color:#000000;cursor:default;font-size:10;fill:#000000;" text-anchor="end" transform="translate(0,0) rotate(-90 75.27586206896589 146)" y="146" opacity="1"></text><text x="84.58620689655189" style="color:#000000;cursor:default;font-size:10;fill:#000000;" text-anchor="end" transform="translate(0,0) rotate(-90 84.58620689655189 146)" y="146" opacity="1"><tspan>BS 2009</tspan></text><text x="93.89655172413791" style="color:#000000;cursor:default;font-size:10;fill:#000000;" text-anchor="end" transform="translate(0,0) rotate(-90 93.89655172413791 146)" y="146" opacity="1"><tspan>Nicht-BS 2009</tspan></text><text x="103.20689655172689" style="color:#000000;cursor:default;font-size:10;fill:#000000;" text-anchor="end" transform="translate(0,0) rotate(-90 103.20689655172689 146)" y="146" opacity="1"></text><text x="112.51724137930691" style="color:#000000;cursor:default;font-size:10;fill:#000000;" text-anchor="end" transform="translate(0,0) rotate(-90 112.51724137930691 146)" y="146" opacity="1"><tspan>BS 2010</tspan></text><text x="121.82758620689691" style="color:#000000;cursor:default;font-size:10;fill:#000000;" text-anchor="end" transform="translate(0,0) rotate(-90 121.82758620689691 146)" y="146" opacity="1"><tspan>Nicht-BS 2010</tspan></text><text x="131.13793103448688" style="color:#000000;cursor:default;font-size:10;fill:#000000;" text-anchor="end" transform="translate(0,0) rotate(-90 131.13793103448688 146)" y="146" opacity="1"></text><text x="140.44827586206688" style="color:#000000;cursor:default;font-size:10;fill:#000000;" text-anchor="end" transform="translate(0,0) rotate(-90 140.44827586206688 146)" y="146" opacity="1"><tspan>BS 2011</tspan></text><text x="149.75862068965688" style="color:#000000;cursor:default;font-size:10;fill:#000000;" text-anchor="end" transform="translate(0,0) rotate(-90 149.75862068965688 146)" y="146" opacity="1"><tspan>Nicht-BS 2011</tspan></text><text x="159.06896551723688" style="color:#000000;cursor:default;font-size:10;fill:#000000;" text-anchor="end" transform="translate(0,0) rotate(-90 159.06896551723688 146)" y="146" opacity="1"></text><text x="168.37931034482688" style="color:#000000;cursor:default;font-size:10;fill:#000000;" text-anchor="end" transform="translate(0,0) rotate(-90 168.37931034482688 146)" y="146" opacity="1"><tspan>BS 2012</tspan></text><text x="177.68965517241688" style="color:#000000;cursor:default;font-size:10;fill:#000000;" text-anchor="end" transform="translate(0,0) rotate(-90 177.68965517241688 146)" y="146" opacity="1"><tspan>Nicht-BS 2012</tspan></text><text x="186.9999999999969" style="color:#000000;cursor:default;font-size:10;fill:#000000;" text-anchor="end" transform="translate(0,0) rotate(-90 186.9999999999969 146)" y="146" opacity="1"></text><text x="196.3103448275869" style="color:#000000;cursor:default;font-size:10;fill:#000000;" text-anchor="end" transform="translate(0,0) rotate(-90 196.3103448275869 146)" y="146" opacity="1"><tspan>BS 2013</tspan></text><text x="205.6206896551769" style="color:#000000;cursor:default;font-size:10;fill:#000000;" text-anchor="end" transform="translate(0,0) rotate(-90 205.6206896551769 146)" y="146" opacity="1"><tspan>Nicht-BS 2013</tspan></text><text x="214.9310344827569" style="color:#000000;cursor:default;font-size:10;fill:#000000;" text-anchor="end" transform="translate(0,0) rotate(-90 214.9310344827569 146)" y="146" opacity="1"></text><text x="224.2413793103469" style="color:#000000;cursor:default;font-size:10;fill:#000000;" text-anchor="end" transform="translate(0,0) rotate(-90 224.2413793103469 146)" y="146" opacity="1"><tspan>BS 2014</tspan></text><text x="233.5517241379269" style="color:#000000;cursor:default;font-size:10;fill:#000000;" text-anchor="end" transform="translate(0,0) rotate(-90 233.5517241379269 146)" y="146" opacity="1"><tspan>Nicht-BS 2014</tspan></text><text x="242.8620689655169" style="color:#000000;cursor:default;font-size:10;fill:#000000;" text-anchor="end" transform="translate(0,0) rotate(-90 242.8620689655169 146)" y="146" opacity="1"></text><text x="252.17241379310693" style="color:#000000;cursor:default;font-size:10;fill:#000000;" text-anchor="end" transform="translate(0,0) rotate(-90 252.17241379310693 146)" y="146" opacity="1"><tspan>BS 2015</tspan></text><text x="261.4827586206869" style="color:#000000;cursor:default;font-size:10;fill:#000000;" text-anchor="end" transform="translate(0,0) rotate(-90 261.4827586206869 146)" y="146" opacity="1"><tspan>Nicht-BS 2015</tspan></text><text x="270.7931034482769" style="color:#000000;cursor:default;font-size:10;fill:#000000;" text-anchor="end" transform="translate(0,0) rotate(-90 270.7931034482769 146)" y="146" opacity="1"></text><text x="280.1034482758669" style="color:#000000;cursor:default;font-size:10;fill:#000000;" text-anchor="end" transform="translate(0,0) rotate(-90 280.1034482758669 146)" y="146" opacity="1"><tspan>BS 2016</tspan></text><text x="289.4137931034469" style="color:#000000;cursor:default;font-size:10;fill:#000000;" text-anchor="end" transform="translate(0,0) rotate(-90 289.4137931034469 146)" y="146" opacity="1"><tspan>Nicht-BS 2016</tspan></text><text x="298.7241379310369" style="color:#000000;cursor:default;font-size:10;fill:#000000;" text-anchor="end" transform="translate(0,0) rotate(-90 298.7241379310369 146)" y="146" opacity="1"></text><text x="308.03448275861695" style="color:#000000;cursor:default;font-size:10;fill:#000000;" text-anchor="end" transform="translate(0,0) rotate(-90 308.03448275861695 146)" y="146" opacity="1"><tspan>BS 2017</tspan></text><text x="317.3448275862069" style="color:#000000;cursor:default;font-size:10;fill:#000000;" text-anchor="end" transform="translate(0,0) rotate(-90 317.3448275862069 146)" y="146" opacity="1"><tspan>Nicht-BS 2017</tspan></text></g><g class="highcharts-axis-labels highcharts-yaxis-labels " data-z-index="7"><text x="33" style="color:#000000;cursor:default;font-size:10;fill:#000000;" text-anchor="end" transform="translate(0,0)" y="137" opacity="1">0</text><text x="33" style="color:#000000;cursor:default;font-size:10;fill:#000000;" text-anchor="end" transform="translate(0,0)" y="124" opacity="1"><tspan>12 500</tspan></text><text x="33" style="color:#000000;cursor:default;font-size:10;fill:#000000;" text-anchor="end" transform="translate(0,0)" y="110" opacity="1"><tspan>25 000</tspan></text><text x="33" style="color:#000000;cursor:default;font-size:10;fill:#000000;" text-anchor="end" transform="translate(0,0)" y="97" opacity="1"><tspan>37 500</tspan></text><text x="33" style="color:#000000;cursor:default;font-size:10;fill:#000000;" text-anchor="end" transform="translate(0,0)" y="83" opacity="1"><tspan>50 000</tspan></text></g><text x="10" class="highcharts-credits" text-anchor="start" data-z-index="8" style="cursor:default;color:#000000;font-size:10;fill:#000000;" y="196"><tspan>Quelle: Statistisches Amt Basel-Stadt, Gesundheitsstatistik.</tspan><tspan x="10" dy="15">Zuletzt ge채ndert: 2018-9-20</tspan></text></svg>