<?xml version="1.0" standalone="no"?><!DOCTYPE svg PUBLIC "-//W3C//DTD SVG 1.1//EN" "http://www.w3.org/Graphics/SVG/1.1/DTD/svg11.dtd"><svg xmlns:xlink="http://www.w3.org/1999/xlink" version="1.1" class="highcharts-root" style="font-family:Arial;font-size:12px;" xmlns="http://www.w3.org/2000/svg" viewBox="0 0 485 415"><desc>Created with Highcharts 8.0.0</desc><defs><clipPath id="highcharts-wm9orrc-146-"><rect x="0" y="0" width="281" height="83" fill="none"></rect></clipPath><clipPath id="highcharts-wm9orrc-157-"><rect x="0" y="0" width="281" height="83" fill="none"></rect></clipPath></defs><rect fill="#fbfbfb" class="highcharts-background" x="0" y="0" width="320" height="221" rx="0" ry="0"></rect><rect fill="none" class="highcharts-plot-background" x="37" y="88" width="281" height="83"></rect><g class="highcharts-pane-group" data-z-index="0"></g><g class="highcharts-grid highcharts-xaxis-grid" data-z-index="1"><path fill="none" data-z-index="1" class="highcharts-grid-line" d="M 39.5 88 L 39.5 171" opacity="1"></path><path fill="none" data-z-index="1" class="highcharts-grid-line" d="M 69.5 88 L 69.5 171" opacity="1"></path><path fill="none" data-z-index="1" class="highcharts-grid-line" d="M 100.5 88 L 100.5 171" opacity="1"></path><path fill="none" data-z-index="1" class="highcharts-grid-line" d="M 131.5 88 L 131.5 171" opacity="1"></path><path fill="none" data-z-index="1" class="highcharts-grid-line" d="M 161.5 88 L 161.5 171" opacity="1"></path><path fill="none" data-z-index="1" class="highcharts-grid-line" d="M 192.5 88 L 192.5 171" opacity="1"></path><path fill="none" data-z-index="1" class="highcharts-grid-line" d="M 222.5 88 L 222.5 171" opacity="1"></path><path fill="none" data-z-index="1" class="highcharts-grid-line" d="M 253.5 88 L 253.5 171" opacity="1"></path><path fill="none" data-z-index="1" class="highcharts-grid-line" d="M 284.5 88 L 284.5 171" opacity="1"></path><path fill="none" data-z-index="1" class="highcharts-grid-line" d="M 314.5 88 L 314.5 171" opacity="1"></path></g><g class="highcharts-grid highcharts-yaxis-grid" data-z-index="1"><path fill="none" stroke="#B9CFD7" stroke-width="0.5" data-z-index="1" class="highcharts-grid-line" d="M 37 171.25 L 318 171.25" opacity="1"></path><path fill="none" stroke="#B9CFD7" stroke-width="0.5" data-z-index="1" class="highcharts-grid-line" d="M 37 130.25 L 318 130.25" opacity="1"></path><path fill="none" stroke="#B9CFD7" stroke-width="0.5" data-z-index="1" class="highcharts-grid-line" d="M 37 87.75 L 318 87.75" opacity="1"></path></g><rect fill="none" class="highcharts-plot-border" data-z-index="1" x="37" y="88" width="281" height="83"></rect><g class="highcharts-axis highcharts-xaxis" data-z-index="2"><path fill="none" class="highcharts-axis-line" stroke="#B9CFD7" stroke-width="0.5" data-z-index="7" d="M 37 171.25 L 318 171.25"></path></g><g class="highcharts-axis highcharts-yaxis" data-z-index="2"><path fill="none" class="highcharts-axis-line" data-z-index="7" d="M 37 88 L 37 171"></path></g><g class="highcharts-series-group" data-z-index="3"><g data-z-index="0.1" class="highcharts-series highcharts-series-0 highcharts-line-series" transform="translate(37,88) scale(1 1)" clip-path="url(#highcharts-wm9orrc-157-)"><path fill="none" d="M 2.7549019607819 26.476999999999997 L 33.364923747275 28.261499999999998 L 63.974945533768 30.958999999999996 L 94.584967320261 28.800999999999995 L 125.19498910675 28.842499999999994 L 155.80501089325 26.808999999999997 L 186.41503267974 26.601499999999994 L 217.02505446623 27.804999999999993 L 247.63507625273 26.808999999999997" class="highcharts-graph" data-z-index="1" stroke="#B00000" stroke-width="2" stroke-linejoin="round" stroke-linecap="round"></path></g><g data-z-index="0.1" class="highcharts-markers highcharts-series-0 highcharts-line-series" transform="translate(37,88) scale(1 1)" clip-path="none"></g><g data-z-index="0.1" class="highcharts-series highcharts-series-1 highcharts-line-series" transform="translate(37,88) scale(1 1)" clip-path="url(#highcharts-wm9orrc-157-)"><path fill="none" d="M 2.7549019607819 46.397 L 33.364923747275 47.6005 L 63.974945533768 44.653999999999996 L 94.584967320261 41.2925 L 125.19498910675 39.9645 L 155.80501089325 40.254999999999995 L 186.41503267974 41.66599999999999 L 217.02505446623 42.122499999999995 L 247.63507625273 40.753" class="highcharts-graph" data-z-index="1" stroke="#007A2F" stroke-width="2" stroke-linejoin="round" stroke-linecap="round"></path></g><g data-z-index="0.1" class="highcharts-markers highcharts-series-1 highcharts-line-series" transform="translate(37,88) scale(1 1)" clip-path="none"></g><g data-z-index="0.1" class="highcharts-series highcharts-series-2 highcharts-line-series" transform="translate(37,88) scale(1 1)" clip-path="url(#highcharts-wm9orrc-157-)"><path fill="none" d="M 2.7549019607819 51.376999999999995 L 33.364923747275 52.829499999999996 L 63.974945533768 54.1575 L 94.584967320261 52.5805 L 125.19498910675 51.418499999999995 L 155.80501089325 51.128 L 186.41503267974 52.829499999999996 L 217.02505446623 53.576499999999996 L 247.63507625273 51.875" class="highcharts-graph" data-z-index="1" stroke="#4f81bd" stroke-width="2" stroke-linejoin="round" stroke-linecap="round"></path></g><g data-z-index="0.1" class="highcharts-markers highcharts-series-2 highcharts-line-series" transform="translate(37,88) scale(1 1)" clip-path="none"></g><g data-z-index="0.1" class="highcharts-series highcharts-series-3 highcharts-line-series" transform="translate(37,88) scale(1 1)" clip-path="url(#highcharts-wm9orrc-157-)"><path fill="none" d="M 2.7549019607819 49.592499999999994 L 33.364923747275 49.717 L 63.974945533768 50.5055 L 94.584967320261 48.721 L 125.19498910675 48.5965 L 155.80501089325 48.92849999999999 L 186.41503267974 49.0115 L 217.02505446623 48.721 L 247.63507625273 48.13999999999999" class="highcharts-graph" data-z-index="1" stroke="#662673" stroke-width="2" stroke-linejoin="round" stroke-linecap="round"></path></g><g data-z-index="0.1" class="highcharts-markers highcharts-series-3 highcharts-line-series" transform="translate(37,88) scale(1 1)" clip-path="none"></g><g data-z-index="0.1" class="highcharts-series highcharts-series-4 highcharts-line-series" transform="translate(37,88) scale(1 1)" clip-path="url(#highcharts-wm9orrc-157-)"><path fill="none" d="M 2.7549019607819 62.830999999999996 L 33.364923747275 63.204499999999996 L 63.974945533768 62.7065 L 94.584967320261 61.1295 L 125.19498910675 60.257999999999996 L 155.80501089325 60.340999999999994 L 186.41503267974 59.428 L 217.02505446623 57.7265 L 247.63507625273 56.605999999999995" class="highcharts-graph" data-z-index="1" stroke="#7F5F1A" stroke-width="2" stroke-linejoin="round" stroke-linecap="round"></path></g><g data-z-index="0.1" class="highcharts-markers highcharts-series-4 highcharts-line-series" transform="translate(37,88) scale(1 1)" clip-path="none"></g><g data-z-index="0.1" class="highcharts-series highcharts-series-5 highcharts-line-series" transform="translate(37,88) scale(1 1)" clip-path="url(#highcharts-wm9orrc-157-)"><path fill="none" d="M 2.7549019607819 82.1285 L 33.364923747275 82.1285 L 63.974945533768 82.17 L 94.584967320261 81.9625 L 125.19498910675 82.087 L 155.80501089325 82.1285 L 186.41503267974 82.2115 L 217.02505446623 82.17 L 247.63507625273 82.0455" class="highcharts-graph" data-z-index="1" stroke="#FABD24" stroke-width="2" stroke-linejoin="round" stroke-linecap="round"></path></g><g data-z-index="0.1" class="highcharts-markers highcharts-series-5 highcharts-line-series" transform="translate(37,88) scale(1 1)" clip-path="none"></g><g data-z-index="0.1" class="highcharts-series highcharts-series-6 highcharts-line-series" transform="translate(37,88) scale(1 1)" clip-path="url(#highcharts-wm9orrc-157-)"><path fill="none" d="M 2.7549019607819 54.7385 L 33.364923747275 55.444 L 63.974945533768 55.817499999999995 L 94.584967320261 54.199 L 125.19498910675 53.659499999999994 L 155.80501089325 53.369 L 186.41503267974 53.659499999999994 L 217.02505446623 53.617999999999995 L 247.63507625273 52.6635" class="highcharts-graph" data-z-index="1" stroke="#3C3C3C" stroke-width="2" stroke-linejoin="round" stroke-linecap="round"></path></g><g data-z-index="0.1" class="highcharts-markers highcharts-series-6 highcharts-line-series" transform="translate(37,88) scale(1 1)" clip-path="none"></g><g data-z-index="0.1" class="highcharts-series highcharts-series-7 highcharts-line-series" transform="translate(37,88) scale(1 1)" clip-path="url(#highcharts-wm9orrc-157-)"><path fill="none" d="M 278.24509803922 30.128999999999998" class="highcharts-graph" data-z-index="1" stroke="#B00000" stroke-width="2" stroke-linejoin="round" stroke-linecap="round"></path></g><g data-z-index="0.1" class="highcharts-markers highcharts-series-7 highcharts-line-series" transform="translate(37,88) scale(1 1)" clip-path="none"><path fill="#B00000" d="M 278 32 A 2 2 0 1 1 278.0019999996667 31.999999000000084 Z" opacity="1" class="highcharts-point"></path></g><g data-z-index="0.1" class="highcharts-series highcharts-series-8 highcharts-line-series" transform="translate(37,88) scale(1 1)" clip-path="url(#highcharts-wm9orrc-157-)"><path fill="none" d="M 278.24509803922 42.24699999999999" class="highcharts-graph" data-z-index="1" stroke="#007A2F" stroke-width="2" stroke-linejoin="round" stroke-linecap="round"></path></g><g data-z-index="0.1" class="highcharts-markers highcharts-series-8 highcharts-line-series" transform="translate(37,88) scale(1 1)" clip-path="none"><path fill="#007A2F" d="M 278 44 A 2 2 0 1 1 278.0019999996667 43.99999900000008 Z" opacity="1" class="highcharts-point"></path></g><g data-z-index="0.1" class="highcharts-series highcharts-series-9 highcharts-line-series" transform="translate(37,88) scale(1 1)" clip-path="url(#highcharts-wm9orrc-157-)"><path fill="none" d="M 278.24509803922 52.206999999999994" class="highcharts-graph" data-z-index="1" stroke="#4f81bd" stroke-width="2" stroke-linejoin="round" stroke-linecap="round"></path></g><g data-z-index="0.1" class="highcharts-markers highcharts-series-9 highcharts-line-series" transform="translate(37,88) scale(1 1)" clip-path="none"><path fill="#4f81bd" d="M 278 54 A 2 2 0 1 1 278.0019999996667 53.99999900000008 Z" opacity="1" class="highcharts-point"></path></g><g data-z-index="0.1" class="highcharts-series highcharts-series-10 highcharts-line-series" transform="translate(37,88) scale(1 1)" clip-path="url(#highcharts-wm9orrc-157-)"><path fill="none" d="M 278.24509803922 48.97" class="highcharts-graph" data-z-index="1" stroke="#662673" stroke-width="2" stroke-linejoin="round" stroke-linecap="round"></path></g><g data-z-index="0.1" class="highcharts-markers highcharts-series-10 highcharts-line-series" transform="translate(37,88) scale(1 1)" clip-path="none"><path fill="#662673" d="M 278 51 A 2 2 0 1 1 278.0019999996667 50.99999900000008 Z" opacity="1" class="highcharts-point"></path></g><g data-z-index="0.1" class="highcharts-series highcharts-series-11 highcharts-line-series" transform="translate(37,88) scale(1 1)" clip-path="url(#highcharts-wm9orrc-157-)"><path fill="none" d="M 278.24509803922 58.2245" class="highcharts-graph" data-z-index="1" stroke="#7F5F1A" stroke-width="2" stroke-linejoin="round" stroke-linecap="round"></path></g><g data-z-index="0.1" class="highcharts-markers highcharts-series-11 highcharts-line-series" transform="translate(37,88) scale(1 1)" clip-path="none"><path fill="#7F5F1A" d="M 278 60 A 2 2 0 1 1 278.0019999996667 59.99999900000008 Z" opacity="1" class="highcharts-point"></path></g><g data-z-index="0.1" class="highcharts-series highcharts-series-12 highcharts-line-series" transform="translate(37,88) scale(1 1)" clip-path="url(#highcharts-wm9orrc-157-)"><path fill="none" d="M 278.24509803922 82.1285" class="highcharts-graph" data-z-index="1" stroke="#FABD24" stroke-width="2" stroke-linejoin="round" stroke-linecap="round"></path></g><g data-z-index="0.1" class="highcharts-markers highcharts-series-12 highcharts-line-series" transform="translate(37,88) scale(1 1)" clip-path="none"><path fill="#FABD24" d="M 278 84 A 2 2 0 1 1 278.0019999996667 83.99999900000009 Z" opacity="1" class="highcharts-point"></path></g><g data-z-index="0.1" class="highcharts-series highcharts-series-13 highcharts-line-series" transform="translate(37,88) scale(1 1)" clip-path="url(#highcharts-wm9orrc-157-)"><path fill="none" d="M 278.24509803922 53.991499999999995" class="highcharts-graph" data-z-index="1" stroke="#3C3C3C" stroke-width="2" stroke-linejoin="round" stroke-linecap="round"></path></g><g data-z-index="0.1" class="highcharts-markers highcharts-series-13 highcharts-line-series" transform="translate(37,88) scale(1 1)" clip-path="none"><path fill="#3C3C3C" d="M 278 56 A 2 2 0 1 1 278.0019999996667 55.99999900000008 Z" opacity="1" class="highcharts-point"></path></g></g><text x="2" text-anchor="start" class="highcharts-title" data-z-index="4" style="color:#000000;font-size:10px;font-weight:bold;fill:#000000;" y="12"><tspan>Sozialhilfequote nach Altersgruppe</tspan></text><text x="2" text-anchor="start" class="highcharts-subtitle" data-z-index="4" style="color:#000000;font-size:10px;font-weight:normal;font-family:Arial;fill:#000000;" y="28"><tspan>Stadt Basel (bis 2016) resp. Kanton Basel-Stadt</tspan></text><text x="2" text-anchor="start" class="highcharts-caption" data-z-index="4" style="color:#666666;fill:#666666;" y="211"></text><g class="highcharts-legend" data-z-index="7" transform="translate(37,42)"><rect fill="none" class="highcharts-legend-box" rx="0" ry="0" x="0" y="0" width="226" height="34" visibility="visible"></rect><g data-z-index="1"><g><g class="highcharts-legend-item highcharts-line-series highcharts-color-undefined highcharts-series-0" data-z-index="1" transform="translate(0,-5)"><path fill="none" d="M 0 10 L 16 10" class="highcharts-graph" stroke="#B00000" stroke-width="2"></path><text x="21" style="color:#333333;cursor:pointer;font-size:10px;font-weight:normal;fill:#333333;" text-anchor="start" data-z-index="2" y="13"><tspan>0 bis 17 J.</tspan></text></g><g class="highcharts-legend-item highcharts-line-series highcharts-color-undefined highcharts-series-1" data-z-index="1" transform="translate(77.015625,-5)"><path fill="none" d="M 0 10 L 16 10" class="highcharts-graph" stroke="#007A2F" stroke-width="2"></path><text x="21" y="13" style="color:#333333;cursor:pointer;font-size:10px;font-weight:normal;fill:#333333;" text-anchor="start" data-z-index="2"><tspan>18 bis 25 J.</tspan></text></g><g class="highcharts-legend-item highcharts-line-series highcharts-color-undefined highcharts-series-2" data-z-index="1" transform="translate(154.03125,-5)"><path fill="none" d="M 0 10 L 16 10" class="highcharts-graph" stroke="#4f81bd" stroke-width="2"></path><text x="21" y="13" style="color:#333333;cursor:pointer;font-size:10px;font-weight:normal;fill:#333333;" text-anchor="start" data-z-index="2"><tspan>26 bis 35 J.</tspan></text></g><g class="highcharts-legend-item highcharts-line-series highcharts-color-undefined highcharts-series-3" data-z-index="1" transform="translate(0,8)"><path fill="none" d="M 0 10 L 16 10" class="highcharts-graph" stroke="#662673" stroke-width="2"></path><text x="21" y="13" style="color:#333333;cursor:pointer;font-size:10px;font-weight:normal;fill:#333333;" text-anchor="start" data-z-index="2"><tspan>36 bis 50 J.</tspan></text></g><g class="highcharts-legend-item highcharts-line-series highcharts-color-undefined highcharts-series-4" data-z-index="1" transform="translate(77.015625,8)"><path fill="none" d="M 0 10 L 16 10" class="highcharts-graph" stroke="#7F5F1A" stroke-width="2"></path><text x="21" y="13" style="color:#333333;cursor:pointer;font-size:10px;font-weight:normal;fill:#333333;" text-anchor="start" data-z-index="2"><tspan>51 bis 65 J.</tspan></text></g><g class="highcharts-legend-item highcharts-line-series highcharts-color-undefined highcharts-series-5" data-z-index="1" transform="translate(154.03125,8)"><path fill="none" d="M 0 10 L 16 10" class="highcharts-graph" stroke="#FABD24" stroke-width="2"></path><text x="21" y="13" style="color:#333333;cursor:pointer;font-size:10px;font-weight:normal;fill:#333333;" text-anchor="start" data-z-index="2"><tspan>66 J. u.m.</tspan></text></g><g class="highcharts-legend-item highcharts-line-series highcharts-color-undefined highcharts-series-6" data-z-index="1" transform="translate(0,21)"><path fill="none" d="M 0 10 L 16 10" class="highcharts-graph" stroke="#3C3C3C" stroke-width="2"></path><text x="21" y="13" style="color:#333333;cursor:pointer;font-size:10px;font-weight:normal;fill:#333333;" text-anchor="start" data-z-index="2"><tspan>Total</tspan></text></g></g></g></g><g class="highcharts-axis-labels highcharts-xaxis-labels" data-z-index="7"><text x="42.11192456473716" style="color:#000000;cursor:default;font-size:10px;white-space:nowrap;fill:#000000;" text-anchor="end" transform="translate(0,0) rotate(-45 42.11192456473716 183)" y="183" opacity="1">2008</text><text x="72.72194635123016" style="color:#000000;cursor:default;font-size:10px;white-space:nowrap;fill:#000000;" text-anchor="end" transform="translate(0,0) rotate(-45 72.72194635123016 183)" y="183" opacity="1">2009</text><text x="103.33196813772516" style="color:#000000;cursor:default;font-size:10px;white-space:nowrap;fill:#000000;" text-anchor="end" transform="translate(0,0) rotate(-45 103.33196813772516 183)" y="183" opacity="1">2010</text><text x="133.94198992421516" style="color:#000000;cursor:default;font-size:10px;white-space:nowrap;fill:#000000;" text-anchor="end" transform="translate(0,0) rotate(-45 133.94198992421516 183)" y="183" opacity="1">2011</text><text x="164.55201171070516" style="color:#000000;cursor:default;font-size:10px;white-space:nowrap;fill:#000000;" text-anchor="end" transform="translate(0,0) rotate(-45 164.55201171070516 183)" y="183" opacity="1">2012</text><text x="195.16203349720516" style="color:#000000;cursor:default;font-size:10px;white-space:nowrap;fill:#000000;" text-anchor="end" transform="translate(0,0) rotate(-45 195.16203349720516 183)" y="183" opacity="1">2013</text><text x="225.77205528369515" style="color:#000000;cursor:default;font-size:10px;white-space:nowrap;fill:#000000;" text-anchor="end" transform="translate(0,0) rotate(-45 225.77205528369515 183)" y="183" opacity="1">2014</text><text x="256.3820770701851" style="color:#000000;cursor:default;font-size:10px;white-space:nowrap;fill:#000000;" text-anchor="end" transform="translate(0,0) rotate(-45 256.3820770701851 183)" y="183" opacity="1">2015</text><text x="286.9920988566852" style="color:#000000;cursor:default;font-size:10px;white-space:nowrap;fill:#000000;" text-anchor="end" transform="translate(0,0) rotate(-45 286.9920988566852 183)" y="183" opacity="1">2016</text><text x="317.60212064317517" style="color:#000000;cursor:default;font-size:10px;white-space:nowrap;fill:#000000;" text-anchor="end" transform="translate(0,0) rotate(-45 317.60212064317517 183)" y="183" opacity="1">2017</text></g><g class="highcharts-axis-labels highcharts-yaxis-labels" data-z-index="7"><text x="22" style="color:#000000;cursor:default;font-size:10;fill:#000000;" text-anchor="end" transform="translate(0,0)" y="174" opacity="1">0%</text><text x="22" style="color:#000000;cursor:default;font-size:10;fill:#000000;" text-anchor="end" transform="translate(0,0)" y="133" opacity="1">10%</text><text x="22" style="color:#000000;cursor:default;font-size:10;fill:#000000;" text-anchor="end" transform="translate(0,0)" y="91" opacity="1">20%</text></g><text x="10" class="highcharts-credits" text-anchor="start" data-z-index="8" style="cursor:default;color:#000000;font-size:10px;fill:#000000;" y="186"><tspan>Quelle: Statistisches Amt des Kantons Basel-Stadt, Sozialhilfestatistik;</tspan><tspan x="10" dy="13">Departement für Wirtschaft, Soziales und Umwelt.</tspan><tspan x="10" dy="13">Zuletzt geändert: 2018-9-5</tspan></text></svg>