<?xml version="1.0" standalone="no"?><!DOCTYPE svg PUBLIC "-//W3C//DTD SVG 1.1//EN" "http://www.w3.org/Graphics/SVG/1.1/DTD/svg11.dtd"><svg xmlns:xlink="http://www.w3.org/1999/xlink" version="1.1" class="highcharts-root" style="font-family:Arial;font-size:12px;" xmlns="http://www.w3.org/2000/svg" viewBox="0 0 485 415"><desc>Created with Highstock 6.1.1</desc><defs><clipPath id="highcharts-0lc2n9l-6"><rect x="0" y="0" width="254" height="67" fill="none"></rect></clipPath><clipPath id="highcharts-0lc2n9l-7"><rect x="0" y="0" width="254" height="67" fill="none"></rect></clipPath></defs><rect fill="#fbfbfb" class="highcharts-background" x="0" y="0" width="320" height="208" rx="0" ry="0"></rect><rect fill="none" class="highcharts-plot-background" x="51" y="105" width="254" height="67"></rect><g class="highcharts-pane-group" data-z-index="0"></g><g class="highcharts-grid highcharts-xaxis-grid " data-z-index="1"><path fill="none" data-z-index="1" class="highcharts-grid-line" d="M 52.5 105 L 52.5 172" opacity="1"></path><path fill="none" data-z-index="1" class="highcharts-grid-line" d="M 75.5 105 L 75.5 172" opacity="1"></path><path fill="none" data-z-index="1" class="highcharts-grid-line" d="M 98.5 105 L 98.5 172" opacity="1"></path><path fill="none" data-z-index="1" class="highcharts-grid-line" d="M 120.5 105 L 120.5 172" opacity="1"></path><path fill="none" data-z-index="1" class="highcharts-grid-line" d="M 143.5 105 L 143.5 172" opacity="1"></path><path fill="none" data-z-index="1" class="highcharts-grid-line" d="M 166.5 105 L 166.5 172" opacity="1"></path><path fill="none" data-z-index="1" class="highcharts-grid-line" d="M 188.5 105 L 188.5 172" opacity="1"></path><path fill="none" data-z-index="1" class="highcharts-grid-line" d="M 211.5 105 L 211.5 172" opacity="1"></path><path fill="none" data-z-index="1" class="highcharts-grid-line" d="M 234.5 105 L 234.5 172" opacity="1"></path><path fill="none" data-z-index="1" class="highcharts-grid-line" d="M 256.5 105 L 256.5 172" opacity="1"></path><path fill="none" data-z-index="1" class="highcharts-grid-line" d="M 279.5 105 L 279.5 172" opacity="1"></path><path fill="none" data-z-index="1" class="highcharts-grid-line" d="M 302.5 105 L 302.5 172" opacity="1"></path></g><g class="highcharts-grid highcharts-yaxis-grid " data-z-index="1"><path fill="none" stroke="#B9CFD7" stroke-width="0.5" data-z-index="1" class="highcharts-grid-line" d="M 51 172.25 L 305 172.25" opacity="1"></path><path fill="none" stroke="#B9CFD7" stroke-width="0.5" data-z-index="1" class="highcharts-grid-line" d="M 51 104.75 L 305 104.75" opacity="1"></path></g><rect fill="none" class="highcharts-plot-border" data-z-index="1" x="51" y="105" width="254" height="67"></rect><g class="highcharts-axis highcharts-xaxis " data-z-index="2"><path fill="none" class="highcharts-axis-line" stroke="#B9CFD7" stroke-width="0.5" data-z-index="7" d="M 51 172.25 L 305 172.25"></path></g><g class="highcharts-axis highcharts-yaxis " data-z-index="2"><path fill="none" class="highcharts-axis-line" data-z-index="7" d="M 51 105 L 51 172"></path></g><g class="highcharts-series-group" data-z-index="3"><g data-z-index="0.1" class="highcharts-series highcharts-series-0 highcharts-line-series " transform="translate(51,105) scale(1 1)" clip-path="url(#highcharts-0lc2n9l-7)"><path fill="none" d="M 2.4901960784292 13.182250000000003 L 25.128342245987 13.182250000000003 L 47.766488413546 15.751979166666665 L 70.404634581104 17.502633333333335 L 93.042780748662 17.502633333333335 L 115.68092691622 19.2733875 L 138.31907308378 20.16811666666667 L 160.95721925134 21.0715 L 183.5953654189 21.0715 L 206.23351158645 21.0715 L 228.87165775401 21.0715 L 251.50980392157 21.0715" class="highcharts-graph" data-z-index="1" stroke="#6F6F6F" stroke-width="2" stroke-linejoin="round" stroke-linecap="round"></path></g><g data-z-index="0.1" class="highcharts-markers highcharts-series-0 highcharts-line-series " transform="translate(51,105) scale(1 1)" clip-path="none"></g><g data-z-index="0.1" class="highcharts-series highcharts-series-1 highcharts-line-series " transform="translate(51,105) scale(1 1)" clip-path="url(#highcharts-0lc2n9l-7)"><path fill="none" d="M 2.4901960784292 25.3486125 L 25.128342245987 25.3486125 L 47.766488413546 26.087287500000002 L 70.404634581104 25.3486125 L 93.042780748662 25.3988625 L 115.68092691622 26.033966666666664 L 138.31907308378 26.033966666666664 L 160.95721925134 26.033966666666664 L 183.5953654189 26.033966666666664 L 206.23351158645 26.033966666666664 L 228.87165775401 26.033966666666664 L 251.50980392157 26.033966666666664" class="highcharts-graph" data-z-index="1" stroke="#007a2f" stroke-width="2" stroke-linejoin="round" stroke-linecap="round"></path></g><g data-z-index="0.1" class="highcharts-markers highcharts-series-1 highcharts-line-series " transform="translate(51,105) scale(1 1)" clip-path="none"></g><g data-z-index="0.1" class="highcharts-series highcharts-series-2 highcharts-line-series " transform="translate(51,105) scale(1 1)" clip-path="url(#highcharts-0lc2n9l-7)"><path fill="none" d="M 2.4901960784292 15.469183333333334 L 25.128342245987 15.469183333333334 L 47.766488413546 15.469183333333334 L 70.404634581104 16.953791666666667 L 93.042780748662 16.982825 L 115.68092691622 17.136087500000002 L 138.31907308378 17.136087500000002 L 160.95721925134 17.136087500000002 L 183.5953654189 17.136087500000002 L 206.23351158645 17.167075000000004 L 228.87165775401 17.167075000000004 L 251.50980392157 17.167075000000004" class="highcharts-graph" data-z-index="1" stroke="#ff8028" stroke-width="2" stroke-linejoin="round" stroke-linecap="round"></path></g><g data-z-index="0.1" class="highcharts-markers highcharts-series-2 highcharts-line-series " transform="translate(51,105) scale(1 1)" clip-path="none"></g><g data-z-index="0.1" class="highcharts-series highcharts-series-3 highcharts-line-series " transform="translate(51,105) scale(1 1)" clip-path="url(#highcharts-0lc2n9l-7)"><path fill="none" d="M 2.4901960784292 10.628154166666668 L 25.128342245987 10.628154166666668 L 47.766488413546 25.85055416666667 L 70.404634581104 27.363637500000003 L 93.042780748662 29.55035 L 115.68092691622 28.231008333333335 L 138.31907308378 28.231008333333335 L 160.95721925134 28.231008333333335 L 183.5953654189 28.231008333333335 L 206.23351158645 28.231008333333335 L 228.87165775401 28.231008333333335 L 251.50980392157 28.226262500000004" class="highcharts-graph" data-z-index="1" stroke="#b00000" stroke-width="2" stroke-linejoin="round" stroke-linecap="round"></path></g><g data-z-index="0.1" class="highcharts-markers highcharts-series-3 highcharts-line-series " transform="translate(51,105) scale(1 1)" clip-path="none"></g><g data-z-index="0.1" class="highcharts-series highcharts-series-4 highcharts-line-series " transform="translate(51,105) scale(1 1)" clip-path="url(#highcharts-0lc2n9l-7)"><path fill="none" d="M 2.4901960784292 25.3134375 L 25.128342245987 25.3117625 L 47.766488413546 25.76764166666667 L 70.404634581104 25.76764166666667 L 93.042780748662 25.76764166666667 L 115.68092691622 25.770991666666667 L 138.31907308378 25.770991666666667 L 160.95721925134 25.850833333333334 L 183.5953654189 25.850833333333334 L 206.23351158645 25.850833333333334 L 228.87165775401 25.852508333333333 L 251.50980392157 25.850833333333334" class="highcharts-graph" data-z-index="1" stroke="#256370" stroke-width="2" stroke-linejoin="round" stroke-linecap="round"></path></g><g data-z-index="0.1" class="highcharts-markers highcharts-series-4 highcharts-line-series " transform="translate(51,105) scale(1 1)" clip-path="none"></g></g><text x="2" text-anchor="start" class="highcharts-title" data-z-index="4" style="color:#000000;font-size:10px;font-weight:bold;fill:#000000;" y="9"><tspan>Steuerbelastung von Aktiengesellschaften durch</tspan><tspan dy="13" x="2">Reingewinn- und Kapitalsteuern</tspan></text><text x="2" text-anchor="start" class="highcharts-subtitle" data-z-index="4" style="color:#000000;font-size:10px;font-weight:normal;font-family:Arial;fill:#000000;" y="39"><tspan>in Franken; Kapital und Reserven: 2 Mio. Fr.; Reingewinn:</tspan><tspan dy="13" x="2">1 000 000 Fr.</tspan></text><g class="highcharts-legend" data-z-index="7" transform="translate(51,68)"><rect fill="none" class="highcharts-legend-box" rx="0" ry="0" x="0" y="0" width="229" height="25" visibility="visible"></rect><g data-z-index="1"><g><g class="highcharts-legend-item highcharts-line-series highcharts-color-undefined highcharts-series-0" data-z-index="1" transform="translate(0,-5)"><path fill="none" d="M 0 10 L 16 10" class="highcharts-graph" stroke="#6F6F6F" stroke-width="2"></path><text x="21" style="color:#333333;font-size:10px;font-weight:normal;cursor:pointer;fill:#333333;" text-anchor="start" data-z-index="2" y="13"><tspan>Basel</tspan></text></g><g class="highcharts-legend-item highcharts-line-series highcharts-color-undefined highcharts-series-1" data-z-index="1" transform="translate(59,-5)"><path fill="none" d="M 0 10 L 16 10" class="highcharts-graph" stroke="#007a2f" stroke-width="2"></path><text x="21" y="13" style="color:#333333;font-size:10px;font-weight:normal;cursor:pointer;fill:#333333;" text-anchor="start" data-z-index="2"><tspan>Bern</tspan></text></g><g class="highcharts-legend-item highcharts-line-series highcharts-color-undefined highcharts-series-2" data-z-index="1" transform="translate(118,-5)"><path fill="none" d="M 0 10 L 16 10" class="highcharts-graph" stroke="#ff8028" stroke-width="2"></path><text x="21" y="13" style="color:#333333;font-size:10px;font-weight:normal;cursor:pointer;fill:#333333;" text-anchor="start" data-z-index="2"><tspan>Genf</tspan></text></g><g class="highcharts-legend-item highcharts-line-series highcharts-color-undefined highcharts-series-3" data-z-index="1" transform="translate(177,-5)"><path fill="none" d="M 0 10 L 16 10" class="highcharts-graph" stroke="#b00000" stroke-width="2"></path><text x="21" y="13" style="color:#333333;font-size:10px;font-weight:normal;cursor:pointer;fill:#333333;" text-anchor="start" data-z-index="2"><tspan>Liestal</tspan></text></g><g class="highcharts-legend-item highcharts-line-series highcharts-color-undefined highcharts-series-4" data-z-index="1" transform="translate(0,10)"><path fill="none" d="M 0 10 L 16 10" class="highcharts-graph" stroke="#256370" stroke-width="2"></path><text x="21" y="13" style="color:#333333;font-size:10px;font-weight:normal;cursor:pointer;fill:#333333;" text-anchor="start" data-z-index="2"><tspan>Zürich</tspan></text></g></g></g></g><g class="highcharts-axis-labels highcharts-xaxis-labels " data-z-index="7"><text x="55.84721868238416" style="color:#000000;cursor:default;font-size:10px;white-space:nowrap;fill:#000000;" text-anchor="end" transform="translate(0,0) rotate(-45 55.84721868238416 187)" y="187" opacity="1">2006</text><text x="78.48536484994216" style="color:#000000;cursor:default;font-size:10px;white-space:nowrap;fill:#000000;" text-anchor="end" transform="translate(0,0) rotate(-45 78.48536484994216 187)" y="187" opacity="1">2007</text><text x="101.12351101750116" style="color:#000000;cursor:default;font-size:10px;white-space:nowrap;fill:#000000;" text-anchor="end" transform="translate(0,0) rotate(-45 101.12351101750116 187)" y="187" opacity="1">2008</text><text x="123.76165718505516" style="color:#000000;cursor:default;font-size:10px;white-space:nowrap;fill:#000000;" text-anchor="end" transform="translate(0,0) rotate(-45 123.76165718505516 187)" y="187" opacity="1">2009</text><text x="146.39980335261515" style="color:#000000;cursor:default;font-size:10px;white-space:nowrap;fill:#000000;" text-anchor="end" transform="translate(0,0) rotate(-45 146.39980335261515 187)" y="187" opacity="1">2010</text><text x="169.03794952017515" style="color:#000000;cursor:default;font-size:10px;white-space:nowrap;fill:#000000;" text-anchor="end" transform="translate(0,0) rotate(-45 169.03794952017515 187)" y="187" opacity="1">2011</text><text x="191.67609568773517" style="color:#000000;cursor:default;font-size:10px;white-space:nowrap;fill:#000000;" text-anchor="end" transform="translate(0,0) rotate(-45 191.67609568773517 187)" y="187" opacity="1">2012</text><text x="214.31424185529517" style="color:#000000;cursor:default;font-size:10px;white-space:nowrap;fill:#000000;" text-anchor="end" transform="translate(0,0) rotate(-45 214.31424185529517 187)" y="187" opacity="1">2013</text><text x="236.95238802285516" style="color:#000000;cursor:default;font-size:10px;white-space:nowrap;fill:#000000;" text-anchor="end" transform="translate(0,0) rotate(-45 236.95238802285516 187)" y="187" opacity="1">2014</text><text x="259.59053419040515" style="color:#000000;cursor:default;font-size:10px;white-space:nowrap;fill:#000000;" text-anchor="end" transform="translate(0,0) rotate(-45 259.59053419040515 187)" y="187" opacity="1">2015</text><text x="282.2286803579652" style="color:#000000;cursor:default;font-size:10px;white-space:nowrap;fill:#000000;" text-anchor="end" transform="translate(0,0) rotate(-45 282.2286803579652 187)" y="187" opacity="1">2016</text><text x="304.86682652552514" style="color:#000000;cursor:default;font-size:10px;white-space:nowrap;fill:#000000;" text-anchor="end" transform="translate(0,0) rotate(-45 304.86682652552514 187)" y="187" opacity="1">2017</text></g><g class="highcharts-axis-labels highcharts-yaxis-labels " data-z-index="7"><text x="41" style="color:#000000;cursor:default;font-size:10px;fill:#000000;" text-anchor="end" transform="translate(0,0)" y="175" opacity="1">0</text><text x="41" style="color:#000000;cursor:default;font-size:10px;fill:#000000;" text-anchor="end" transform="translate(0,0)" y="108" opacity="1"><tspan>240 000</tspan></text></g><text x="10" class="highcharts-credits" text-anchor="start" data-z-index="8" style="cursor:default;color:#000000;font-size:10px;fill:#000000;" y="193"><tspan>Quelle: Eidgenössische Steuerverwaltung.</tspan></text></svg>