<?xml version="1.0" standalone="no"?>
<!DOCTYPE svg PUBLIC "-//W3C//DTD SVG 1.1//EN" "http://www.w3.org/Graphics/SVG/1.1/DTD/svg11.dtd">
<svg xmlns:xlink="http://www.w3.org/1999/xlink" version="1.1" class="highcharts-root" style="font-family:Arial;font-size:12px;" xmlns="http://www.w3.org/2000/svg" viewBox="0 0 485 415">
  <desc>
    Created with Highstock 6.0.3
  </desc>
  <defs>
    <clipPath>
      <rect x="0" y="0" width="444" height="293" fill="none"/>
    </clipPath>
    <clipPath id="a">
      <rect x="0" y="0" width="444" height="293" fill="none"/>
    </clipPath>
  </defs>
  <rect fill="#fbfbfb" class="highcharts-background" x="0" y="0" width="485" height="415" rx="0" ry="0"/>
  <rect fill="none" class="highcharts-plot-background" x="31" y="55" width="444" height="293"/>
  <g class="highcharts-pane-group"/>
  <g class="highcharts-grid highcharts-xaxis-grid ">
    <path fill="none" class="highcharts-grid-line" d="M 47.5 55 L 47.5 348" opacity="1"/>
    <path fill="none" class="highcharts-grid-line" d="M 64.5 55 L 64.5 348" opacity="1"/>
    <path fill="none" class="highcharts-grid-line" d="M 81.5 55 L 81.5 348" opacity="1"/>
    <path fill="none" class="highcharts-grid-line" d="M 98.5 55 L 98.5 348" opacity="1"/>
    <path fill="none" class="highcharts-grid-line" d="M 115.5 55 L 115.5 348" opacity="1"/>
    <path fill="none" class="highcharts-grid-line" d="M 132.5 55 L 132.5 348" opacity="1"/>
    <path fill="none" class="highcharts-grid-line" d="M 150.5 55 L 150.5 348" opacity="1"/>
    <path fill="none" class="highcharts-grid-line" d="M 167.5 55 L 167.5 348" opacity="1"/>
    <path fill="none" class="highcharts-grid-line" d="M 184.5 55 L 184.5 348" opacity="1"/>
    <path fill="none" class="highcharts-grid-line" d="M 201.5 55 L 201.5 348" opacity="1"/>
    <path fill="none" class="highcharts-grid-line" d="M 218.5 55 L 218.5 348" opacity="1"/>
    <path fill="none" class="highcharts-grid-line" d="M 235.5 55 L 235.5 348" opacity="1"/>
    <path fill="none" class="highcharts-grid-line" d="M 252.5 55 L 252.5 348" opacity="1"/>
    <path fill="none" class="highcharts-grid-line" d="M 269.5 55 L 269.5 348" opacity="1"/>
    <path fill="none" class="highcharts-grid-line" d="M 286.5 55 L 286.5 348" opacity="1"/>
    <path fill="none" class="highcharts-grid-line" d="M 303.5 55 L 303.5 348" opacity="1"/>
    <path fill="none" class="highcharts-grid-line" d="M 320.5 55 L 320.5 348" opacity="1"/>
    <path fill="none" class="highcharts-grid-line" d="M 337.5 55 L 337.5 348" opacity="1"/>
    <path fill="none" class="highcharts-grid-line" d="M 354.5 55 L 354.5 348" opacity="1"/>
    <path fill="none" class="highcharts-grid-line" d="M 372.5 55 L 372.5 348" opacity="1"/>
    <path fill="none" class="highcharts-grid-line" d="M 389.5 55 L 389.5 348" opacity="1"/>
    <path fill="none" class="highcharts-grid-line" d="M 406.5 55 L 406.5 348" opacity="1"/>
    <path fill="none" class="highcharts-grid-line" d="M 423.5 55 L 423.5 348" opacity="1"/>
    <path fill="none" class="highcharts-grid-line" d="M 440.5 55 L 440.5 348" opacity="1"/>
    <path fill="none" class="highcharts-grid-line" d="M 457.5 55 L 457.5 348" opacity="1"/>
    <path fill="none" class="highcharts-grid-line" d="M 474.5 55 L 474.5 348" opacity="1"/>
    <path fill="none" class="highcharts-grid-line" d="M 30.5 55 L 30.5 348" opacity="1"/>
  </g>
  <g class="highcharts-grid highcharts-yaxis-grid ">
    <path fill="none" stroke="#B9CFD7" stroke-width="0.5" class="highcharts-grid-line" d="M 31 348.25 L 475 348.25" opacity="1"/>
    <path fill="none" stroke="#B9CFD7" stroke-width="0.5" class="highcharts-grid-line" d="M 31 289.25 L 475 289.25" opacity="1"/>
    <path fill="none" stroke="#B9CFD7" stroke-width="0.5" class="highcharts-grid-line" d="M 31 231.25 L 475 231.25" opacity="1"/>
    <path fill="none" stroke="#B9CFD7" stroke-width="0.5" class="highcharts-grid-line" d="M 31 172.25 L 475 172.25" opacity="1"/>
    <path fill="none" stroke="#B9CFD7" stroke-width="0.5" class="highcharts-grid-line" d="M 31 114.25 L 475 114.25" opacity="1"/>
    <path fill="none" stroke="#B9CFD7" stroke-width="0.5" class="highcharts-grid-line" d="M 31 54.75 L 475 54.75" opacity="1"/>
  </g>
  <rect fill="none" class="highcharts-plot-border" x="31" y="55" width="444" height="293"/>
  <g class="highcharts-axis highcharts-xaxis ">
    <path fill="none" class="highcharts-axis-line" stroke="#B9CFD7" stroke-width="0.5" d="M 31 348.25 L 475 348.25"/>
  </g>
  <g class="highcharts-axis highcharts-yaxis ">
    <path fill="none" class="highcharts-axis-line" d="M 31 55 L 31 348"/>
  </g>
  <g class="highcharts-series-group">
    <g class="highcharts-series highcharts-series-0 highcharts-column-series " transform="translate(31,55) scale(1 1)" clip-path="url(#a)">
      <rect x="3.5" y="36.5" width="9" height="257" fill="#69929B" stroke="#ffffff" stroke-width="1" class="highcharts-point highcharts-color-0"/>
      <rect x="21.5" y="128.5" width="9" height="165" fill="#69929B" stroke="#ffffff" stroke-width="1" class="highcharts-point highcharts-color-1"/>
      <rect x="38.5" y="179.5" width="9" height="114" fill="#69929B" stroke="#ffffff" stroke-width="1" class="highcharts-point highcharts-color-2"/>
      <rect x="55.5" y="195.5" width="9" height="98" fill="#B00000" stroke="#ffffff" stroke-width="1" class="highcharts-point highcharts-color-3"/>
      <rect x="72.5" y="210.5" width="9" height="83" fill="#69929B" stroke="#ffffff" stroke-width="1" class="highcharts-point highcharts-color-4"/>
      <rect x="89.5" y="216.5" width="9" height="77" fill="#69929B" stroke="#ffffff" stroke-width="1" class="highcharts-point highcharts-color-5"/>
      <rect x="106.5" y="218.5" width="9" height="75" fill="#69929B" stroke="#ffffff" stroke-width="1" class="highcharts-point highcharts-color-6"/>
      <rect x="123.5" y="259.5" width="9" height="34" fill="#69929B" stroke="#ffffff" stroke-width="1" class="highcharts-point highcharts-color-7"/>
      <rect x="140.5" y="264.5" width="9" height="29" fill="#69929B" stroke="#ffffff" stroke-width="1" class="highcharts-point highcharts-color-8"/>
      <rect x="157.5" y="265.5" width="9" height="28" fill="#69929B" stroke="#ffffff" stroke-width="1" class="highcharts-point highcharts-color-9"/>
      <rect x="174.5" y="273.5" width="9" height="20" fill="#69929B" stroke="#ffffff" stroke-width="1" class="highcharts-point highcharts-color-10"/>
      <rect x="191.5" y="278.5" width="9" height="15" fill="#69929B" stroke="#ffffff" stroke-width="1" class="highcharts-point highcharts-color-11"/>
      <rect x="208.5" y="284.5" width="9" height="9" fill="#69929B" stroke="#ffffff" stroke-width="1" class="highcharts-point highcharts-color-12"/>
      <rect x="225.5" y="293.5" width="9" height="18" fill="#69929B" stroke="#ffffff" stroke-width="1" class="highcharts-point highcharts-negative highcharts-color-13"/>
      <rect x="243.5" y="293.5" width="9" height="22" fill="#69929B" stroke="#ffffff" stroke-width="1" class="highcharts-point highcharts-negative highcharts-color-14"/>
      <rect x="260.5" y="293.5" width="9" height="26" fill="#69929B" stroke="#ffffff" stroke-width="1" class="highcharts-point highcharts-negative highcharts-color-15"/>
      <rect x="277.5" y="293.5" width="9" height="52" fill="#69929B" stroke="#ffffff" stroke-width="1" class="highcharts-point highcharts-negative highcharts-color-16"/>
      <rect x="294.5" y="293.5" width="9" height="73" fill="#69929B" stroke="#ffffff" stroke-width="1" class="highcharts-point highcharts-negative highcharts-color-17"/>
      <rect x="311.5" y="293.5" width="9" height="74" fill="#69929B" stroke="#ffffff" stroke-width="1" class="highcharts-point highcharts-negative highcharts-color-18"/>
      <rect x="328.5" y="293.5" width="9" height="77" fill="#69929B" stroke="#ffffff" stroke-width="1" class="highcharts-point highcharts-negative highcharts-color-19"/>
      <rect x="345.5" y="293.5" width="9" height="96" fill="#69929B" stroke="#ffffff" stroke-width="1" class="highcharts-point highcharts-negative highcharts-color-20"/>
      <rect x="362.5" y="293.5" width="9" height="111" fill="#69929B" stroke="#ffffff" stroke-width="1" class="highcharts-point highcharts-negative highcharts-color-21"/>
      <rect x="379.5" y="293.5" width="9" height="118" fill="#69929B" stroke="#ffffff" stroke-width="1" class="highcharts-point highcharts-negative highcharts-color-22"/>
      <rect x="396.5" y="293.5" width="9" height="135" fill="#69929B" stroke="#ffffff" stroke-width="1" class="highcharts-point highcharts-negative highcharts-color-23"/>
      <rect x="413.5" y="293.5" width="9" height="183" fill="#69929B" stroke="#ffffff" stroke-width="1" class="highcharts-point highcharts-negative highcharts-color-24"/>
      <rect x="430.5" y="293.5" width="9" height="214" fill="#69929B" stroke="#ffffff" stroke-width="1" class="highcharts-point highcharts-negative highcharts-color-25"/>
    </g>
    <g class="highcharts-markers highcharts-series-0 highcharts-column-series " transform="translate(31,55) scale(1 1)" clip-path="none"/>
  </g>
  <text x="10" text-anchor="start" class="highcharts-title" style="color:#000000;font-size:14px;font-weight:bold;fill:#000000;" y="21">
    <tspan>Standortqualitätsindikator (SQI)</tspan>
  </text>
  <text x="10" text-anchor="start" class="highcharts-subtitle" style="color:#000000;font-size:12px;font-weight:normal;font-family:Arial;fill:#000000;" y="40">
    <tspan>Basel-Stadt im nationalen Vergleich; Stand: 2016</tspan>
  </text>
  <g class="highcharts-axis-labels highcharts-xaxis-labels ">
    <text x="43.205128205128204" style="color:#000000;cursor:default;font-size:11px;fill:#000000;" text-anchor="end" transform="translate(0,0) rotate(-90 43.205128205128204 360)" y="360" opacity="1">
      <tspan>ZG</tspan>
    </text>
    <text x="60.28205128205129" style="color:#000000;cursor:default;font-size:11px;fill:#000000;" text-anchor="end" transform="translate(0,0) rotate(-90 60.28205128205129 360)" y="360" opacity="1">
      <tspan>ZH</tspan>
    </text>
    <text x="77.35897435897436" style="color:#000000;cursor:default;font-size:11px;fill:#000000;" text-anchor="end" transform="translate(0,0) rotate(-90 77.35897435897436 360)" y="360" opacity="1">
      <tspan>AG</tspan>
    </text>
    <text x="94.43589743589745" style="color:#000000;cursor:default;font-size:11px;fill:#000000;" text-anchor="end" transform="translate(0,0) rotate(-90 94.43589743589745 360)" y="360" opacity="1">
      <tspan>BS</tspan>
    </text>
    <text x="111.51282051282051" style="color:#000000;cursor:default;font-size:11px;fill:#000000;" text-anchor="end" transform="translate(0,0) rotate(-90 111.51282051282051 360)" y="360" opacity="1">
      <tspan>NW</tspan>
    </text>
    <text x="128.58974358974356" style="color:#000000;cursor:default;font-size:11px;fill:#000000;" text-anchor="end" transform="translate(0,0) rotate(-90 128.58974358974356 360)" y="360" opacity="1">
      <tspan>LU</tspan>
    </text>
    <text x="145.66666666666666" style="color:#000000;cursor:default;font-size:11px;fill:#000000;" text-anchor="end" transform="translate(0,0) rotate(-90 145.66666666666666 360)" y="360" opacity="1">
      <tspan>SZ</tspan>
    </text>
    <text x="162.74358974358972" style="color:#000000;cursor:default;font-size:11px;fill:#000000;" text-anchor="end" transform="translate(0,0) rotate(-90 162.74358974358972 360)" y="360" opacity="1">
      <tspan>OW</tspan>
    </text>
    <text x="179.82051282051282" style="color:#000000;cursor:default;font-size:11px;fill:#000000;" text-anchor="end" transform="translate(0,0) rotate(-90 179.82051282051282 360)" y="360" opacity="1">
      <tspan>TG</tspan>
    </text>
    <text x="196.89743589743588" style="color:#000000;cursor:default;font-size:11px;fill:#000000;" text-anchor="end" transform="translate(0,0) rotate(-90 196.89743589743588 360)" y="360" opacity="1">
      <tspan>AR</tspan>
    </text>
    <text x="213.97435897435895" style="color:#000000;cursor:default;font-size:11px;fill:#000000;" text-anchor="end" transform="translate(0,0) rotate(-90 213.97435897435895 360)" y="360" opacity="1">
      <tspan>BL</tspan>
    </text>
    <text x="231.05128205128204" style="color:#000000;cursor:default;font-size:11px;fill:#000000;" text-anchor="end" transform="translate(0,0) rotate(-90 231.05128205128204 360)" y="360" opacity="1">
      <tspan>SH</tspan>
    </text>
    <text x="248.12820512820514" style="color:#000000;cursor:default;font-size:11px;fill:#000000;" text-anchor="end" transform="translate(0,0) rotate(-90 248.12820512820514 360)" y="360" opacity="1">
      <tspan>GE</tspan>
    </text>
    <text x="265.20512820512823" style="color:#000000;cursor:default;font-size:11px;fill:#000000;" text-anchor="end" transform="translate(0,0) rotate(-90 265.20512820512823 360)" y="360" opacity="1">
      <tspan>AI</tspan>
    </text>
    <text x="282.28205128205127" style="color:#000000;cursor:default;font-size:11px;fill:#000000;" text-anchor="end" transform="translate(0,0) rotate(-90 282.28205128205127 360)" y="360" opacity="1">
      <tspan>SG</tspan>
    </text>
    <text x="299.35897435897436" style="color:#000000;cursor:default;font-size:11px;fill:#000000;" text-anchor="end" transform="translate(0,0) rotate(-90 299.35897435897436 360)" y="360" opacity="1">
      <tspan>SO</tspan>
    </text>
    <text x="316.43589743589746" style="color:#000000;cursor:default;font-size:11px;fill:#000000;" text-anchor="end" transform="translate(0,0) rotate(-90 316.43589743589746 360)" y="360" opacity="1">
      <tspan>VD</tspan>
    </text>
    <text x="333.51282051282055" style="color:#000000;cursor:default;font-size:11px;fill:#000000;" text-anchor="end" transform="translate(0,0) rotate(-90 333.51282051282055 360)" y="360" opacity="1">
      <tspan>BE</tspan>
    </text>
    <text x="350.5897435897436" style="color:#000000;cursor:default;font-size:11px;fill:#000000;" text-anchor="end" transform="translate(0,0) rotate(-90 350.5897435897436 360)" y="360" opacity="1">
      <tspan>NE</tspan>
    </text>
    <text x="367.6666666666667" style="color:#000000;cursor:default;font-size:11px;fill:#000000;" text-anchor="end" transform="translate(0,0) rotate(-90 367.6666666666667 360)" y="360" opacity="1">
      <tspan>UR</tspan>
    </text>
    <text x="384.7435897435898" style="color:#000000;cursor:default;font-size:11px;fill:#000000;" text-anchor="end" transform="translate(0,0) rotate(-90 384.7435897435898 360)" y="360" opacity="1">
      <tspan>GL</tspan>
    </text>
    <text x="401.8205128205128" style="color:#000000;cursor:default;font-size:11px;fill:#000000;" text-anchor="end" transform="translate(0,0) rotate(-90 401.8205128205128 360)" y="360" opacity="1">
      <tspan>FR</tspan>
    </text>
    <text x="418.8974358974359" style="color:#000000;cursor:default;font-size:11px;fill:#000000;" text-anchor="end" transform="translate(0,0) rotate(-90 418.8974358974359 360)" y="360" opacity="1">
      <tspan>TI</tspan>
    </text>
    <text x="435.974358974359" style="color:#000000;cursor:default;font-size:11px;fill:#000000;" text-anchor="end" transform="translate(0,0) rotate(-90 435.974358974359 360)" y="360" opacity="1">
      <tspan>GR</tspan>
    </text>
    <text x="453.05128205128204" style="color:#000000;cursor:default;font-size:11px;fill:#000000;" text-anchor="end" transform="translate(0,0) rotate(-90 453.05128205128204 360)" y="360" opacity="1">
      <tspan>VS</tspan>
    </text>
    <text x="470.12820512820514" style="color:#000000;cursor:default;font-size:11px;fill:#000000;" text-anchor="end" transform="translate(0,0) rotate(-90 470.12820512820514 360)" y="360" opacity="1">
      <tspan>JU</tspan>
    </text>
  </g>
  <g class="highcharts-axis-labels highcharts-yaxis-labels ">
    <text x="16" style="color:#000000;cursor:default;font-size:11px;fill:#000000;" text-anchor="end" transform="translate(0,0)" y="353" opacity="1">
      <tspan>0</tspan>
    </text>
    <text x="16" style="color:#000000;cursor:default;font-size:11px;fill:#000000;" text-anchor="end" transform="translate(0,0)" y="294" opacity="1">
      <tspan>1</tspan>
    </text>
    <text x="16" style="color:#000000;cursor:default;font-size:11px;fill:#000000;" text-anchor="end" transform="translate(0,0)" y="235" opacity="1">
      <tspan>1</tspan>
    </text>
    <text x="16" style="color:#000000;cursor:default;font-size:11px;fill:#000000;" text-anchor="end" transform="translate(0,0)" y="177" opacity="1">
      <tspan>2</tspan>
    </text>
    <text x="16" style="color:#000000;cursor:default;font-size:11px;fill:#000000;" text-anchor="end" transform="translate(0,0)" y="118" opacity="1">
      <tspan>2</tspan>
    </text>
    <text x="16" style="color:#000000;cursor:default;font-size:11px;fill:#000000;" text-anchor="end" transform="translate(0,0)" y="60" opacity="1">
      <tspan>3</tspan>
    </text>
  </g>
  <text x="10" class="highcharts-credits" text-anchor="start" style="cursor:default;color:#000000;font-size:10px;fill:#000000;" y="400">
    <tspan>Quelle: Credit Suisse Group AG</tspan>
  </text>
</svg>
