<?xml version="1.0" standalone="no"?><!DOCTYPE svg PUBLIC "-//W3C//DTD SVG 1.1//EN" "http://www.w3.org/Graphics/SVG/1.1/DTD/svg11.dtd"><svg xmlns:xlink="http://www.w3.org/1999/xlink" version="1.1" class="highcharts-root" style="font-family:Arial;font-size:12px;" xmlns="http://www.w3.org/2000/svg" viewBox="0 0 485 415"><desc>Created with Highstock 6.1.1</desc><defs><clipPath id="highcharts-f25ja0u-10"><rect x="0" y="0" width="279" height="225" fill="none"></rect></clipPath><clipPath id="highcharts-f25ja0u-11"><rect x="0" y="0" width="279" height="225" fill="none"></rect></clipPath><clipPath id="highcharts-f25ja0u-12"><rect x="0" y="0" width="279" height="225" fill="none"></rect></clipPath><clipPath id="highcharts-f25ja0u-13"><rect x="0" y="0" width="279" height="225" fill="none"></rect></clipPath></defs><rect fill="#fbfbfb" class="highcharts-background" x="0" y="0" width="485" height="415" rx="0" ry="0"></rect><rect fill="none" class="highcharts-plot-background" x="250" y="55" width="225" height="279"></rect><g class="highcharts-pane-group" data-z-index="0"></g><g class="highcharts-grid highcharts-xaxis-grid " data-z-index="1"><path fill="none" data-z-index="1" class="highcharts-grid-line" d="M 250 78.5 L 475 78.5" opacity="1"></path><path fill="none" data-z-index="1" class="highcharts-grid-line" d="M 250 102.5 L 475 102.5" opacity="1"></path><path fill="none" data-z-index="1" class="highcharts-grid-line" d="M 250 125.5 L 475 125.5" opacity="1"></path><path fill="none" data-z-index="1" class="highcharts-grid-line" d="M 250 148.5 L 475 148.5" opacity="1"></path><path fill="none" data-z-index="1" class="highcharts-grid-line" d="M 250 171.5 L 475 171.5" opacity="1"></path><path fill="none" data-z-index="1" class="highcharts-grid-line" d="M 250 195.5 L 475 195.5" opacity="1"></path><path fill="none" data-z-index="1" class="highcharts-grid-line" d="M 250 218.5 L 475 218.5" opacity="1"></path><path fill="none" data-z-index="1" class="highcharts-grid-line" d="M 250 241.5 L 475 241.5" opacity="1"></path><path fill="none" data-z-index="1" class="highcharts-grid-line" d="M 250 264.5 L 475 264.5" opacity="1"></path><path fill="none" data-z-index="1" class="highcharts-grid-line" d="M 250 288.5 L 475 288.5" opacity="1"></path><path fill="none" data-z-index="1" class="highcharts-grid-line" d="M 250 311.5 L 475 311.5" opacity="1"></path><path fill="none" data-z-index="1" class="highcharts-grid-line" d="M 250 334.5 L 475 334.5" opacity="1"></path><path fill="none" data-z-index="1" class="highcharts-grid-line" d="M 250 55.5 L 475 55.5" opacity="1"></path></g><g class="highcharts-grid highcharts-xaxis-grid " data-z-index="1"><path fill="none" data-z-index="1" class="highcharts-grid-line" d="M 250 78.5 L 475 78.5" opacity="1"></path><path fill="none" data-z-index="1" class="highcharts-grid-line" d="M 250 102.5 L 475 102.5" opacity="1"></path><path fill="none" data-z-index="1" class="highcharts-grid-line" d="M 250 125.5 L 475 125.5" opacity="1"></path><path fill="none" data-z-index="1" class="highcharts-grid-line" d="M 250 148.5 L 475 148.5" opacity="1"></path><path fill="none" data-z-index="1" class="highcharts-grid-line" d="M 250 171.5 L 475 171.5" opacity="1"></path><path fill="none" data-z-index="1" class="highcharts-grid-line" d="M 250 195.5 L 475 195.5" opacity="1"></path><path fill="none" data-z-index="1" class="highcharts-grid-line" d="M 250 218.5 L 475 218.5" opacity="1"></path><path fill="none" data-z-index="1" class="highcharts-grid-line" d="M 250 241.5 L 475 241.5" opacity="1"></path><path fill="none" data-z-index="1" class="highcharts-grid-line" d="M 250 264.5 L 475 264.5" opacity="1"></path><path fill="none" data-z-index="1" class="highcharts-grid-line" d="M 250 288.5 L 475 288.5" opacity="1"></path><path fill="none" data-z-index="1" class="highcharts-grid-line" d="M 250 311.5 L 475 311.5" opacity="1"></path><path fill="none" data-z-index="1" class="highcharts-grid-line" d="M 250 334.5 L 475 334.5" opacity="1"></path><path fill="none" data-z-index="1" class="highcharts-grid-line" d="M 250 55.5 L 475 55.5" opacity="1"></path></g><g class="highcharts-grid highcharts-xaxis-grid " data-z-index="1"><path fill="none" data-z-index="1" class="highcharts-grid-line" d="M 250 78.5 L 475 78.5" opacity="1"></path><path fill="none" data-z-index="1" class="highcharts-grid-line" d="M 250 102.5 L 475 102.5" opacity="1"></path><path fill="none" data-z-index="1" class="highcharts-grid-line" d="M 250 125.5 L 475 125.5" opacity="1"></path><path fill="none" data-z-index="1" class="highcharts-grid-line" d="M 250 148.5 L 475 148.5" opacity="1"></path><path fill="none" data-z-index="1" class="highcharts-grid-line" d="M 250 171.5 L 475 171.5" opacity="1"></path><path fill="none" data-z-index="1" class="highcharts-grid-line" d="M 250 195.5 L 475 195.5" opacity="1"></path><path fill="none" data-z-index="1" class="highcharts-grid-line" d="M 250 218.5 L 475 218.5" opacity="1"></path><path fill="none" data-z-index="1" class="highcharts-grid-line" d="M 250 241.5 L 475 241.5" opacity="1"></path><path fill="none" data-z-index="1" class="highcharts-grid-line" d="M 250 264.5 L 475 264.5" opacity="1"></path><path fill="none" data-z-index="1" class="highcharts-grid-line" d="M 250 288.5 L 475 288.5" opacity="1"></path><path fill="none" data-z-index="1" class="highcharts-grid-line" d="M 250 311.5 L 475 311.5" opacity="1"></path><path fill="none" data-z-index="1" class="highcharts-grid-line" d="M 250 334.5 L 475 334.5" opacity="1"></path><path fill="none" data-z-index="1" class="highcharts-grid-line" d="M 250 55.5 L 475 55.5" opacity="1"></path></g><g class="highcharts-grid highcharts-yaxis-grid " data-z-index="1"><path fill="none" stroke="#B9CFD7" stroke-width="0.5" data-z-index="1" class="highcharts-grid-line" d="M 249.75 55 L 249.75 334" opacity="1"></path><path fill="none" stroke="#B9CFD7" stroke-width="0.5" data-z-index="1" class="highcharts-grid-line" d="M 305.75 55 L 305.75 334" opacity="1"></path><path fill="none" stroke="#B9CFD7" stroke-width="0.5" data-z-index="1" class="highcharts-grid-line" d="M 362.75 55 L 362.75 334" opacity="1"></path><path fill="none" stroke="#B9CFD7" stroke-width="0.5" data-z-index="1" class="highcharts-grid-line" d="M 418.75 55 L 418.75 334" opacity="1"></path><path fill="none" stroke="#B9CFD7" stroke-width="0.5" data-z-index="1" class="highcharts-grid-line" d="M 475.25 55 L 475.25 334" opacity="1"></path></g><rect fill="none" class="highcharts-plot-border" data-z-index="1" x="250" y="55" width="225" height="279"></rect><g class="highcharts-axis highcharts-xaxis " data-z-index="2"><path fill="none" class="highcharts-axis-line" stroke="#ccd6eb" stroke-width="1" data-z-index="7" d="M 249.5 55 L 249.5 334"></path></g><g class="highcharts-axis highcharts-xaxis " data-z-index="2"><path fill="none" class="highcharts-axis-line" stroke="#ccd6eb" stroke-width="1" data-z-index="7" d="M 249.5 55 L 249.5 334"></path></g><g class="highcharts-axis highcharts-xaxis " data-z-index="2"><path fill="none" class="highcharts-axis-line" stroke="#ccd6eb" stroke-width="1" data-z-index="7" d="M 249.5 55 L 249.5 334"></path></g><g class="highcharts-axis highcharts-yaxis " data-z-index="2"><path fill="none" class="highcharts-axis-line" data-z-index="7" d="M 250 334 L 475 334"></path></g><g class="highcharts-series-group" data-z-index="3"><g data-z-index="0.1" class="highcharts-series highcharts-series-0 highcharts-column-series " transform="translate(475,334) rotate(90) scale(-1,1) scale(1 1)" clip-path="url(#highcharts-f25ja0u-11)"><rect x="267" y="38" width="10" height="188" fill="#68AB2B" class="highcharts-point highcharts-color-0"></rect><rect x="244" y="135" width="10" height="91" fill="#68AB2B" class="highcharts-point highcharts-color-1"></rect><rect x="11" y="124" width="10" height="102" fill="#68AB2B" class="highcharts-point highcharts-color-11"></rect></g><g data-z-index="0.1" class="highcharts-markers highcharts-series-0 highcharts-column-series " transform="translate(475,334) rotate(90) scale(-1,1) scale(1 1)" clip-path="none"></g><g data-z-index="0.1" class="highcharts-series highcharts-series-1 highcharts-column-series " transform="translate(475,334) rotate(90) scale(-1,1) scale(1 1)" clip-path="url(#highcharts-f25ja0u-12)"><rect x="216" y="96" width="10" height="130" fill="#68AB2B" class="highcharts-point highcharts-color-2"></rect><rect x="193" y="155" width="10" height="71" fill="#68AB2B" class="highcharts-point highcharts-color-3"></rect><rect x="123" y="142" width="10" height="84" fill="#68AB2B" class="highcharts-point highcharts-color-6"></rect><rect x="30" y="133" width="10" height="93" fill="#68AB2B" class="highcharts-point highcharts-color-10"></rect></g><g data-z-index="0.1" class="highcharts-markers highcharts-series-1 highcharts-column-series " transform="translate(475,334) rotate(90) scale(-1,1) scale(1 1)" clip-path="none"></g><g data-z-index="0.1" class="highcharts-series highcharts-series-2 highcharts-column-series " transform="translate(475,334) rotate(90) scale(-1,1) scale(1 1)" clip-path="url(#highcharts-f25ja0u-13)"><rect x="165" y="156" width="10" height="70" fill="#68AB2B" class="highcharts-point highcharts-color-4"></rect><rect x="141" y="150" width="10" height="76" fill="#68AB2B" class="highcharts-point highcharts-color-5"></rect><rect x="95" y="134" width="10" height="92" fill="#68AB2B" class="highcharts-point highcharts-color-7"></rect><rect x="72" y="161" width="10" height="65" fill="#68AB2B" class="highcharts-point highcharts-color-8"></rect><rect x="48" y="154" width="10" height="72" fill="#68AB2B" class="highcharts-point highcharts-color-9"></rect></g><g data-z-index="0.1" class="highcharts-markers highcharts-series-2 highcharts-column-series " transform="translate(475,334) rotate(90) scale(-1,1) scale(1 1)" clip-path="none"></g></g><text x="10" text-anchor="start" class="highcharts-title" data-z-index="4" style="color:#000000;font-size:14px;font-weight:bold;fill:#000000;" y="21"><tspan>Mittlere Wohnfläche pro Person</tspan></text><text x="10" text-anchor="start" class="highcharts-subtitle" data-z-index="4" style="color:#000000;font-size:12px;font-weight:normal;font-family:Arial;fill:#000000;" y="40"><tspan>nach Haushaltstyp in m², Basel-Stadt, 2017</tspan></text><g class="highcharts-axis-labels highcharts-xaxis-labels " data-z-index="7"><text x="10" style="color:#000000;cursor:default;font-size:10px;fill:#000000;" text-anchor="start" transform="translate(0,0)" y="70" opacity="1">Einpersonenhaushalte</text><text x="10" style="color:#000000;cursor:default;font-size:10px;fill:#000000;" text-anchor="start" transform="translate(0,0)" y="93" opacity="1">Familienhaushalte</text><text x="10" style="color:#000000;cursor:default;font-size:10px;fill:#000000;" text-anchor="start" transform="translate(0,0)" y="123" opacity="1"></text><text x="10" style="color:#000000;cursor:default;font-size:10px;fill:#000000;" text-anchor="start" transform="translate(0,0)" y="146" opacity="1"></text><text x="10" style="color:#000000;cursor:default;font-size:10px;fill:#000000;" text-anchor="start" transform="translate(0,0)" y="170" opacity="1"></text><text x="10" style="color:#000000;cursor:default;font-size:10px;fill:#000000;" text-anchor="start" transform="translate(0,0)" y="193" opacity="1"></text><text x="10" style="color:#000000;cursor:default;font-size:10px;fill:#000000;" text-anchor="start" transform="translate(0,0)" y="216" opacity="1"></text><text x="10" style="color:#000000;cursor:default;font-size:10px;fill:#000000;" text-anchor="start" transform="translate(0,0)" y="239" opacity="1"></text><text x="10" style="color:#000000;cursor:default;font-size:10px;fill:#000000;" text-anchor="start" transform="translate(0,0)" y="263" opacity="1"></text><text x="10" style="color:#000000;cursor:default;font-size:10px;fill:#000000;" text-anchor="start" transform="translate(0,0)" y="286" opacity="1"></text><text x="10" style="color:#000000;cursor:default;font-size:10px;fill:#000000;" text-anchor="start" transform="translate(0,0)" y="309" opacity="1"></text><text x="10" style="color:#000000;cursor:default;font-size:10px;fill:#000000;" text-anchor="start" transform="translate(0,0)" y="326" opacity="1">Nichtfamilienhaushalte</text></g><g class="highcharts-axis-labels highcharts-xaxis-labels " data-z-index="7"><text x="30" style="color:#000000;cursor:default;font-size:10px;fill:#000000;" text-anchor="start" transform="translate(0,0)" y="77" opacity="1"></text><text x="30" style="color:#000000;cursor:default;font-size:10px;fill:#000000;" text-anchor="start" transform="translate(0,0)" y="100" opacity="1"></text><text x="30" style="color:#000000;cursor:default;font-size:10px;fill:#000000;" text-anchor="start" transform="translate(0,0)" y="117" opacity="1"><tspan>Verheiratete/registrierte Paare ohne Kinder</tspan></text><text x="30" style="color:#000000;cursor:default;font-size:10px;fill:#000000;" text-anchor="start" transform="translate(0,0)" y="140" opacity="1"><tspan>Paare mit minderjährigen Kindern</tspan></text><text x="30" style="color:#000000;cursor:default;font-size:10px;fill:#000000;" text-anchor="start" transform="translate(0,0)" y="170" opacity="1"></text><text x="30" style="color:#000000;cursor:default;font-size:10px;fill:#000000;" text-anchor="start" transform="translate(0,0)" y="193" opacity="1"></text><text x="30" style="color:#000000;cursor:default;font-size:10px;fill:#000000;" text-anchor="start" transform="translate(0,0)" y="210" opacity="1"><tspan>Einelternhaushalte mit minderj. Kindern</tspan></text><text x="30" style="color:#000000;cursor:default;font-size:10px;fill:#000000;" text-anchor="start" transform="translate(0,0)" y="239" opacity="1"></text><text x="30" style="color:#000000;cursor:default;font-size:10px;fill:#000000;" text-anchor="start" transform="translate(0,0)" y="263" opacity="1"></text><text x="30" style="color:#000000;cursor:default;font-size:10px;fill:#000000;" text-anchor="start" transform="translate(0,0)" y="286" opacity="1"></text><text x="30" style="color:#000000;cursor:default;font-size:10px;fill:#000000;" text-anchor="start" transform="translate(0,0)" y="303" opacity="1"><tspan>Eltern(-teil) mit nur volljährigen Kindern</tspan></text><text x="30" style="color:#000000;cursor:default;font-size:10px;fill:#000000;" text-anchor="start" transform="translate(0,0)" y="332" opacity="1"></text></g><g class="highcharts-axis-labels highcharts-xaxis-labels " data-z-index="7"><text x="50" style="color:#000000;cursor:default;font-size:10px;fill:#000000;" text-anchor="start" transform="translate(0,0)" y="77" opacity="1"></text><text x="50" style="color:#000000;cursor:default;font-size:10px;fill:#000000;" text-anchor="start" transform="translate(0,0)" y="100" opacity="1"></text><text x="50" style="color:#000000;cursor:default;font-size:10px;fill:#000000;" text-anchor="start" transform="translate(0,0)" y="123" opacity="1"></text><text x="50" style="color:#000000;cursor:default;font-size:10px;fill:#000000;" text-anchor="start" transform="translate(0,0)" y="146" opacity="1"></text><text x="50" style="color:#000000;cursor:default;font-size:10px;fill:#000000;" text-anchor="start" transform="translate(0,0)" y="163" opacity="1"><tspan>Verheiratete Paare mit Kindern</tspan></text><text x="50" style="color:#000000;cursor:default;font-size:10px;fill:#000000;" text-anchor="start" transform="translate(0,0)" y="186" opacity="1"><tspan>Unverheiratete Paare mit Kindern</tspan></text><text x="50" style="color:#000000;cursor:default;font-size:10px;fill:#000000;" text-anchor="start" transform="translate(0,0)" y="216" opacity="1"></text><text x="50" style="color:#000000;cursor:default;font-size:10px;fill:#000000;" text-anchor="start" transform="translate(0,0)" y="233" opacity="1"><tspan>Ohne weitere Personen</tspan></text><text x="50" style="color:#000000;cursor:default;font-size:10px;fill:#000000;" text-anchor="start" transform="translate(0,0)" y="256" opacity="1"><tspan>Mit Grosseltern(-teil)</tspan></text><text x="50" style="color:#000000;cursor:default;font-size:10px;fill:#000000;" text-anchor="start" transform="translate(0,0)" y="279" opacity="1"><tspan>Mit weiteren Personen</tspan></text><text x="50" style="color:#000000;cursor:default;font-size:10px;fill:#000000;" text-anchor="start" transform="translate(0,0)" y="309" opacity="1"></text><text x="50" style="color:#000000;cursor:default;font-size:10px;fill:#000000;" text-anchor="start" transform="translate(0,0)" y="332" opacity="1"></text></g><g class="highcharts-axis-labels highcharts-yaxis-labels " data-z-index="7"><text x="250" style="color:#000000;cursor:default;font-size:11px;fill:#000000;" text-anchor="middle" transform="translate(0,0)" y="353" opacity="1">0</text><text x="306.25" style="color:#000000;cursor:default;font-size:11px;fill:#000000;" text-anchor="middle" transform="translate(0,0)" y="353" opacity="1">20</text><text x="362.5" style="color:#000000;cursor:default;font-size:11px;fill:#000000;" text-anchor="middle" transform="translate(0,0)" y="353" opacity="1">40</text><text x="418.75" style="color:#000000;cursor:default;font-size:11px;fill:#000000;" text-anchor="middle" transform="translate(0,0)" y="353" opacity="1">60</text><text x="468.890625" style="color:#000000;cursor:default;font-size:11px;fill:#000000;" text-anchor="middle" transform="translate(0,0)" y="353" opacity="1">80</text></g><text x="10" class="highcharts-credits" text-anchor="start" data-z-index="8" style="cursor:default;color:#000000;font-size:10px;fill:#000000;" y="390"><tspan>Quelle: Statistisches Amt Basel-Stadt, Bevölkerungsstatistik;</tspan><tspan x="10" dy="13">Statistisches Amt Basel-Stadt, Gebäude- und Wohnungsstatistik.</tspan></text></svg>