<?xml version="1.0" standalone="no"?><!DOCTYPE svg PUBLIC "-//W3C//DTD SVG 1.1//EN" "http://www.w3.org/Graphics/SVG/1.1/DTD/svg11.dtd"><svg xmlns:xlink="http://www.w3.org/1999/xlink" version="1.1" class="highcharts-root" style="font-family:Arial;font-size:12px;" xmlns="http://www.w3.org/2000/svg" viewBox="0 0 485 415"><desc>Created with Highcharts 8.0.4</desc><defs><clipPath id="highcharts-3wmfvaf-78-"><rect x="0" y="0" width="409" height="148" fill="none"></rect></clipPath><clipPath id="highcharts-3wmfvaf-87-"><rect x="0" y="0" width="409" height="148" fill="none"></rect></clipPath></defs><rect fill="#fbfbfb" class="highcharts-background" x="0" y="0" width="665" height="221" rx="0" ry="0"></rect><rect fill="none" class="highcharts-plot-background" x="53" y="42" width="409" height="148"></rect><g class="highcharts-pane-group" data-z-index="0"></g><g class="highcharts-grid highcharts-xaxis-grid" data-z-index="1"><path fill="none" data-z-index="1" class="highcharts-grid-line" d="M 103.5 42 L 103.5 190" opacity="1"></path><path fill="none" data-z-index="1" class="highcharts-grid-line" d="M 154.5 42 L 154.5 190" opacity="1"></path><path fill="none" data-z-index="1" class="highcharts-grid-line" d="M 205.5 42 L 205.5 190" opacity="1"></path><path fill="none" data-z-index="1" class="highcharts-grid-line" d="M 257.5 42 L 257.5 190" opacity="1"></path><path fill="none" data-z-index="1" class="highcharts-grid-line" d="M 308.5 42 L 308.5 190" opacity="1"></path><path fill="none" data-z-index="1" class="highcharts-grid-line" d="M 359.5 42 L 359.5 190" opacity="1"></path><path fill="none" data-z-index="1" class="highcharts-grid-line" d="M 410.5 42 L 410.5 190" opacity="1"></path><path fill="none" data-z-index="1" class="highcharts-grid-line" d="M 461.5 42 L 461.5 190" opacity="1"></path><path fill="none" data-z-index="1" class="highcharts-grid-line" d="M 52.5 42 L 52.5 190" opacity="1"></path></g><g class="highcharts-grid highcharts-yaxis-grid" data-z-index="1"><path fill="none" stroke="#B9CFD7" stroke-width="0.5" data-z-index="1" class="highcharts-grid-line" d="M 53 190.25 L 462 190.25" opacity="1"></path><path fill="none" stroke="#B9CFD7" stroke-width="0.5" data-z-index="1" class="highcharts-grid-line" d="M 53 153.25 L 462 153.25" opacity="1"></path><path fill="none" stroke="#B9CFD7" stroke-width="0.5" data-z-index="1" class="highcharts-grid-line" d="M 53 116.25 L 462 116.25" opacity="1"></path><path fill="none" stroke="#B9CFD7" stroke-width="0.5" data-z-index="1" class="highcharts-grid-line" d="M 53 79.25 L 462 79.25" opacity="1"></path><path fill="none" stroke="#B9CFD7" stroke-width="0.5" data-z-index="1" class="highcharts-grid-line" d="M 53 41.75 L 462 41.75" opacity="1"></path></g><rect fill="none" class="highcharts-plot-border" data-z-index="1" x="53" y="42" width="409" height="148"></rect><g class="highcharts-axis highcharts-xaxis" data-z-index="2"><path fill="none" class="highcharts-axis-line" stroke="#B9CFD7" stroke-width="0.5" data-z-index="7" d="M 53 190.25 L 462 190.25"></path></g><g class="highcharts-axis highcharts-yaxis" data-z-index="2"><path fill="none" class="highcharts-axis-line" data-z-index="7" d="M 53 42 L 53 190"></path></g><g class="highcharts-series-group" data-z-index="3"><g data-z-index="0.1" class="highcharts-series highcharts-series-0 highcharts-column-series" transform="translate(53,42) scale(1 1)" clip-path="url(#highcharts-3wmfvaf-87-)"><rect x="13" y="22" width="25" height="18" fill="#b00000" opacity="1" class="highcharts-point"></rect><rect x="64" y="17" width="25" height="19" fill="#b00000" opacity="1" class="highcharts-point"></rect><rect x="115" y="13" width="25" height="20" fill="#b00000" opacity="1" class="highcharts-point"></rect><rect x="166" y="11" width="25" height="21" fill="#b00000" opacity="1" class="highcharts-point"></rect><rect x="218" y="9" width="25" height="22" fill="#b00000" opacity="1" class="highcharts-point"></rect><rect x="269" y="7" width="25" height="22" fill="#b00000" opacity="1" class="highcharts-point"></rect><rect x="320" y="8" width="25" height="22" fill="#b00000" opacity="1" class="highcharts-point"></rect><rect x="371" y="8" width="25" height="22" fill="#b00000" opacity="1" class="highcharts-point"></rect></g><g data-z-index="0.1" class="highcharts-markers highcharts-series-0 highcharts-column-series" transform="translate(53,42) scale(1 1)" clip-path="none"></g><g data-z-index="0.1" class="highcharts-series highcharts-series-1 highcharts-column-series" transform="translate(53,42) scale(1 1)" clip-path="url(#highcharts-3wmfvaf-87-)"><rect x="13" y="40" width="25" height="18" fill="#ff8028" opacity="1" class="highcharts-point"></rect><rect x="64" y="36" width="25" height="18" fill="#ff8028" opacity="1" class="highcharts-point"></rect><rect x="115" y="33" width="25" height="20" fill="#ff8028" opacity="1" class="highcharts-point"></rect><rect x="166" y="32" width="25" height="20" fill="#ff8028" opacity="1" class="highcharts-point"></rect><rect x="218" y="31" width="25" height="21" fill="#ff8028" opacity="1" class="highcharts-point"></rect><rect x="269" y="29" width="25" height="22" fill="#ff8028" opacity="1" class="highcharts-point"></rect><rect x="320" y="30" width="25" height="22" fill="#ff8028" opacity="1" class="highcharts-point"></rect><rect x="371" y="30" width="25" height="22" fill="#ff8028" opacity="1" class="highcharts-point"></rect></g><g data-z-index="0.1" class="highcharts-markers highcharts-series-1 highcharts-column-series" transform="translate(53,42) scale(1 1)" clip-path="none"></g><g data-z-index="0.1" class="highcharts-series highcharts-series-2 highcharts-column-series" transform="translate(53,42) scale(1 1)" clip-path="url(#highcharts-3wmfvaf-87-)"><rect x="13" y="58" width="25" height="13" fill="#ffbb58" opacity="1" class="highcharts-point"></rect><rect x="64" y="54" width="25" height="14" fill="#ffbb58" opacity="1" class="highcharts-point"></rect><rect x="115" y="53" width="25" height="13" fill="#ffbb58" opacity="1" class="highcharts-point"></rect><rect x="166" y="52" width="25" height="13" fill="#ffbb58" opacity="1" class="highcharts-point"></rect><rect x="218" y="52" width="25" height="13" fill="#ffbb58" opacity="1" class="highcharts-point"></rect><rect x="269" y="51" width="25" height="14" fill="#ffbb58" opacity="1" class="highcharts-point"></rect><rect x="320" y="52" width="25" height="14" fill="#ffbb58" opacity="1" class="highcharts-point"></rect><rect x="371" y="52" width="25" height="15" fill="#ffbb58" opacity="1" class="highcharts-point"></rect></g><g data-z-index="0.1" class="highcharts-markers highcharts-series-2 highcharts-column-series" transform="translate(53,42) scale(1 1)" clip-path="none"></g><g data-z-index="0.1" class="highcharts-series highcharts-series-3 highcharts-column-series" transform="translate(53,42) scale(1 1)" clip-path="url(#highcharts-3wmfvaf-87-)"><rect x="13" y="71" width="25" height="21" fill="#71a3b5" opacity="1" class="highcharts-point"></rect><rect x="64" y="68" width="25" height="23" fill="#71a3b5" opacity="1" class="highcharts-point"></rect><rect x="115" y="66" width="25" height="25" fill="#71a3b5" opacity="1" class="highcharts-point"></rect><rect x="166" y="65" width="25" height="26" fill="#71a3b5" opacity="1" class="highcharts-point"></rect><rect x="218" y="65" width="25" height="27" fill="#71a3b5" opacity="1" class="highcharts-point"></rect><rect x="269" y="65" width="25" height="27" fill="#71a3b5" opacity="1" class="highcharts-point"></rect><rect x="320" y="66" width="25" height="27" fill="#71a3b5" opacity="1" class="highcharts-point"></rect><rect x="371" y="67" width="25" height="27" fill="#71a3b5" opacity="1" class="highcharts-point"></rect></g><g data-z-index="0.1" class="highcharts-markers highcharts-series-3 highcharts-column-series" transform="translate(53,42) scale(1 1)" clip-path="none"></g><g data-z-index="0.1" class="highcharts-series highcharts-series-4 highcharts-column-series" transform="translate(53,42) scale(1 1)" clip-path="url(#highcharts-3wmfvaf-87-)"><rect x="13" y="92" width="25" height="9" fill="#b9cfd7" opacity="1" class="highcharts-point"></rect><rect x="64" y="91" width="25" height="9" fill="#b9cfd7" opacity="1" class="highcharts-point"></rect><rect x="115" y="91" width="25" height="9" fill="#b9cfd7" opacity="1" class="highcharts-point"></rect><rect x="166" y="91" width="25" height="9" fill="#b9cfd7" opacity="1" class="highcharts-point"></rect><rect x="218" y="92" width="25" height="9" fill="#b9cfd7" opacity="1" class="highcharts-point"></rect><rect x="269" y="92" width="25" height="9" fill="#b9cfd7" opacity="1" class="highcharts-point"></rect><rect x="320" y="93" width="25" height="8" fill="#b9cfd7" opacity="1" class="highcharts-point"></rect><rect x="371" y="94" width="25" height="8" fill="#b9cfd7" opacity="1" class="highcharts-point"></rect></g><g data-z-index="0.1" class="highcharts-markers highcharts-series-4 highcharts-column-series" transform="translate(53,42) scale(1 1)" clip-path="none"></g><g data-z-index="0.1" class="highcharts-series highcharts-series-5 highcharts-column-series" transform="translate(53,42) scale(1 1)" clip-path="url(#highcharts-3wmfvaf-87-)"><rect x="13" y="101" width="25" height="23" fill="#d7e9d2" opacity="1" class="highcharts-point"></rect><rect x="64" y="100" width="25" height="24" fill="#d7e9d2" opacity="1" class="highcharts-point"></rect><rect x="115" y="100" width="25" height="22" fill="#d7e9d2" opacity="1" class="highcharts-point"></rect><rect x="166" y="100" width="25" height="22" fill="#d7e9d2" opacity="1" class="highcharts-point"></rect><rect x="218" y="101" width="25" height="21" fill="#d7e9d2" opacity="1" class="highcharts-point"></rect><rect x="269" y="101" width="25" height="21" fill="#d7e9d2" opacity="1" class="highcharts-point"></rect><rect x="320" y="101" width="25" height="21" fill="#d7e9d2" opacity="1" class="highcharts-point"></rect><rect x="371" y="102" width="25" height="20" fill="#d7e9d2" opacity="1" class="highcharts-point"></rect></g><g data-z-index="0.1" class="highcharts-markers highcharts-series-5 highcharts-column-series" transform="translate(53,42) scale(1 1)" clip-path="none"></g><g data-z-index="0.1" class="highcharts-series highcharts-series-6 highcharts-column-series" transform="translate(53,42) scale(1 1)" clip-path="url(#highcharts-3wmfvaf-87-)"><rect x="13" y="124" width="25" height="8" fill="#73ba7c" opacity="1" class="highcharts-point"></rect><rect x="64" y="124" width="25" height="6" fill="#73ba7c" opacity="1" class="highcharts-point"></rect><rect x="115" y="122" width="25" height="7" fill="#73ba7c" opacity="1" class="highcharts-point"></rect><rect x="166" y="122" width="25" height="6" fill="#73ba7c" opacity="1" class="highcharts-point"></rect><rect x="218" y="122" width="25" height="7" fill="#73ba7c" opacity="1" class="highcharts-point"></rect><rect x="269" y="122" width="25" height="7" fill="#73ba7c" opacity="1" class="highcharts-point"></rect><rect x="320" y="122" width="25" height="7" fill="#73ba7c" opacity="1" class="highcharts-point"></rect><rect x="371" y="122" width="25" height="7" fill="#73ba7c" opacity="1" class="highcharts-point"></rect></g><g data-z-index="0.1" class="highcharts-markers highcharts-series-6 highcharts-column-series" transform="translate(53,42) scale(1 1)" clip-path="none"></g><g data-z-index="0.1" class="highcharts-series highcharts-series-7 highcharts-column-series" transform="translate(53,42) scale(1 1)" clip-path="url(#highcharts-3wmfvaf-87-)"><rect x="13" y="132" width="25" height="7" fill="#44ab2b" opacity="1" class="highcharts-point"></rect><rect x="64" y="130" width="25" height="8" fill="#44ab2b" opacity="1" class="highcharts-point"></rect><rect x="115" y="129" width="25" height="8" fill="#44ab2b" opacity="1" class="highcharts-point"></rect><rect x="166" y="128" width="25" height="8" fill="#44ab2b" opacity="1" class="highcharts-point"></rect><rect x="218" y="129" width="25" height="7" fill="#44ab2b" opacity="1" class="highcharts-point"></rect><rect x="269" y="129" width="25" height="7" fill="#44ab2b" opacity="1" class="highcharts-point"></rect><rect x="320" y="129" width="25" height="6" fill="#44ab2b" opacity="1" class="highcharts-point"></rect><rect x="371" y="129" width="25" height="6" fill="#44ab2b" opacity="1" class="highcharts-point"></rect></g><g data-z-index="0.1" class="highcharts-markers highcharts-series-7 highcharts-column-series" transform="translate(53,42) scale(1 1)" clip-path="none"></g><g data-z-index="0.1" class="highcharts-series highcharts-series-8 highcharts-column-series" transform="translate(53,42) scale(1 1)" clip-path="url(#highcharts-3wmfvaf-87-)"><rect x="13" y="139" width="25" height="10" fill="#007a2f" opacity="1" class="highcharts-point"></rect><rect x="64" y="138" width="25" height="11" fill="#007a2f" opacity="1" class="highcharts-point"></rect><rect x="115" y="137" width="25" height="12" fill="#007a2f" opacity="1" class="highcharts-point"></rect><rect x="166" y="136" width="25" height="13" fill="#007a2f" opacity="1" class="highcharts-point"></rect><rect x="218" y="136" width="25" height="13" fill="#007a2f" opacity="1" class="highcharts-point"></rect><rect x="269" y="136" width="25" height="13" fill="#007a2f" opacity="1" class="highcharts-point"></rect><rect x="320" y="135" width="25" height="14" fill="#007a2f" opacity="1" class="highcharts-point"></rect><rect x="371" y="135" width="25" height="14" fill="#007a2f" opacity="1" class="highcharts-point"></rect></g><g data-z-index="0.1" class="highcharts-markers highcharts-series-8 highcharts-column-series" transform="translate(53,42) scale(1 1)" clip-path="none"></g></g><text x="2" text-anchor="start" class="highcharts-title" data-z-index="4" style="color:#000000;font-size:10px;font-weight:bold;fill:#000000;" y="12"><tspan>Anzahl Beschäftigte nach Branche</tspan></text><text x="2" text-anchor="start" class="highcharts-subtitle" data-z-index="4" style="color:#000000;font-size:10px;font-weight:normal;font-family:Arial;fill:#000000;" y="28"><tspan>Basel-Stadt</tspan></text><text x="2" text-anchor="start" class="highcharts-caption" data-z-index="4" style="color:#666666;fill:#666666;" y="221"></text><g class="highcharts-legend" data-z-index="7" transform="translate(474,51)"><rect fill="none" class="highcharts-legend-box" rx="0" ry="0" x="0" y="0" width="189" height="112" visibility="visible"></rect><g data-z-index="1"><g><g class="highcharts-legend-item highcharts-column-series highcharts-color-undefined highcharts-series-0" data-z-index="1" transform="translate(0,-5)"><text x="21" style="color:#333333;cursor:pointer;font-size:10px;font-weight:normal;fill:#333333;" text-anchor="start" data-z-index="2" y="13"><tspan>Übrige Branchen</tspan></text><rect x="3" y="4" width="10" height="10" fill="#b00000" class="highcharts-point" data-z-index="3"></rect></g><g class="highcharts-legend-item highcharts-column-series highcharts-color-undefined highcharts-series-1" data-z-index="1" transform="translate(0,8)"><text x="21" y="13" style="color:#333333;cursor:pointer;font-size:10px;font-weight:normal;fill:#333333;" text-anchor="start" data-z-index="2"><tspan>Gesundheits- und Sozialwesen</tspan></text><rect x="3" y="4" width="10" height="10" fill="#ff8028" class="highcharts-point" data-z-index="3"></rect></g><g class="highcharts-legend-item highcharts-column-series highcharts-color-undefined highcharts-series-2" data-z-index="1" transform="translate(0,21)"><text x="21" y="13" style="color:#333333;cursor:pointer;font-size:10px;font-weight:normal;fill:#333333;" text-anchor="start" data-z-index="2"><tspan>Öff. Verwaltung und Bildung</tspan></text><rect x="3" y="4" width="10" height="10" fill="#ffbb58" class="highcharts-point" data-z-index="3"></rect></g><g class="highcharts-legend-item highcharts-column-series highcharts-color-undefined highcharts-series-3" data-z-index="1" transform="translate(0,34)"><text x="21" y="13" style="color:#333333;cursor:pointer;font-size:10px;font-weight:normal;fill:#333333;" text-anchor="start" data-z-index="2"><tspan>Unternehmens-DL, Freiberufe</tspan></text><rect x="3" y="4" width="10" height="10" fill="#71a3b5" class="highcharts-point" data-z-index="3"></rect></g><g class="highcharts-legend-item highcharts-column-series highcharts-color-undefined highcharts-series-4" data-z-index="1" transform="translate(0,47)"><text x="21" y="13" style="color:#333333;cursor:pointer;font-size:10px;font-weight:normal;fill:#333333;" text-anchor="start" data-z-index="2"><tspan>Finanzen, Versicherung</tspan></text><rect x="3" y="4" width="10" height="10" fill="#b9cfd7" class="highcharts-point" data-z-index="3"></rect></g><g class="highcharts-legend-item highcharts-column-series highcharts-color-undefined highcharts-series-5" data-z-index="1" transform="translate(0,60)"><text x="21" y="13" style="color:#333333;cursor:pointer;font-size:10px;font-weight:normal;fill:#333333;" text-anchor="start" data-z-index="2"><tspan>Handel und Verkehr</tspan></text><rect x="3" y="4" width="10" height="10" fill="#d7e9d2" class="highcharts-point" data-z-index="3"></rect></g><g class="highcharts-legend-item highcharts-column-series highcharts-color-undefined highcharts-series-6" data-z-index="1" transform="translate(0,73)"><text x="21" y="13" style="color:#333333;cursor:pointer;font-size:10px;font-weight:normal;fill:#333333;" text-anchor="start" data-z-index="2"><tspan>Bau, Energie, Wasser</tspan></text><rect x="3" y="4" width="10" height="10" fill="#73ba7c" class="highcharts-point" data-z-index="3"></rect></g><g class="highcharts-legend-item highcharts-column-series highcharts-color-undefined highcharts-series-7" data-z-index="1" transform="translate(0,86)"><text x="21" y="13" style="color:#333333;cursor:pointer;font-size:10px;font-weight:normal;fill:#333333;" text-anchor="start" data-z-index="2"><tspan>Übriges verarbeitendes Gewerbe</tspan></text><rect x="3" y="4" width="10" height="10" fill="#44ab2b" class="highcharts-point" data-z-index="3"></rect></g><g class="highcharts-legend-item highcharts-column-series highcharts-color-undefined highcharts-series-8" data-z-index="1" transform="translate(0,99)"><text x="21" y="13" style="color:#333333;cursor:pointer;font-size:10px;font-weight:normal;fill:#333333;" text-anchor="start" data-z-index="2"><tspan>Pharmaindustrie</tspan></text><rect x="3" y="4" width="10" height="10" fill="#007a2f" class="highcharts-point" data-z-index="3"></rect></g></g></g></g><g class="highcharts-axis-labels highcharts-xaxis-labels" data-z-index="7"><text x="78.5625" style="color:#000000;cursor:default;font-size:10px;fill:#000000;" text-anchor="middle" transform="translate(0,0)" y="208" opacity="1">2005</text><text x="129.6875" style="color:#000000;cursor:default;font-size:10px;fill:#000000;" text-anchor="middle" transform="translate(0,0)" y="208" opacity="1">2008</text><text x="180.8125" style="color:#000000;cursor:default;font-size:10px;fill:#000000;" text-anchor="middle" transform="translate(0,0)" y="208" opacity="1">2011</text><text x="231.9375" style="color:#000000;cursor:default;font-size:10px;fill:#000000;" text-anchor="middle" transform="translate(0,0)" y="208" opacity="1">2012</text><text x="283.0625" style="color:#000000;cursor:default;font-size:10px;fill:#000000;" text-anchor="middle" transform="translate(0,0)" y="208" opacity="1">2013</text><text x="334.1875" style="color:#000000;cursor:default;font-size:10px;fill:#000000;" text-anchor="middle" transform="translate(0,0)" y="208" opacity="1">2014</text><text x="385.3125" style="color:#000000;cursor:default;font-size:10px;fill:#000000;" text-anchor="middle" transform="translate(0,0)" y="208" opacity="1">2015</text><text x="436.4375" style="color:#000000;cursor:default;font-size:10px;fill:#000000;" text-anchor="middle" transform="translate(0,0)" y="208" opacity="1">2016</text></g><g class="highcharts-axis-labels highcharts-yaxis-labels" data-z-index="7"><text x="43" style="color:#000000;cursor:default;font-size:10px;fill:#000000;" text-anchor="end" transform="translate(0,0)" y="193" opacity="1">0</text><text x="43" style="color:#000000;cursor:default;font-size:10px;fill:#000000;" text-anchor="end" transform="translate(0,0)" y="156" opacity="1"><tspan>50 000</tspan></text><text x="43" style="color:#000000;cursor:default;font-size:10px;fill:#000000;" text-anchor="end" transform="translate(0,0)" y="119" opacity="1"><tspan>100 000</tspan></text><text x="43" style="color:#000000;cursor:default;font-size:10px;fill:#000000;" text-anchor="end" transform="translate(0,0)" y="82" opacity="1"><tspan>150 000</tspan></text><text x="43" style="color:#000000;cursor:default;font-size:10px;fill:#000000;" text-anchor="end" transform="translate(0,0)" y="45" opacity="1"><tspan>200 000</tspan></text></g><text x="10" class="highcharts-credits" text-anchor="start" data-z-index="8" style="cursor:default;color:#000000;font-size:10;fill:#000000;" y="196"><tspan>Quelle: Bundesamt für Statistik (BFS), Statistik der Unternehmensstruktur (STATENT).</tspan><tspan x="10" dy="15">Zuletzt geändert: 2018-9-5</tspan></text></svg>