<?xml version="1.0" standalone="no"?><!DOCTYPE svg PUBLIC "-//W3C//DTD SVG 1.1//EN" "http://www.w3.org/Graphics/SVG/1.1/DTD/svg11.dtd"><svg xmlns:xlink="http://www.w3.org/1999/xlink" version="1.1" class="highcharts-root" style="font-family:Arial;font-size:12px;" xmlns="http://www.w3.org/2000/svg" viewBox="0 0 485 415"><desc>Created with Highcharts 9.0.1</desc><defs><clipPath id="highcharts-rx7g3wp-23-"><rect x="0" y="0" width="261" height="304" fill="none"></rect></clipPath><clipPath id="highcharts-rx7g3wp-32-"><rect x="0" y="0" width="261" height="304" fill="none"></rect></clipPath><clipPath id="highcharts-rx7g3wp-41-"><rect x="171" y="92" width="304" height="261" fill="none"></rect></clipPath></defs><rect fill="#fbfbfb" class="highcharts-background" x="0" y="0" width="485" height="428" rx="0" ry="0"></rect><rect fill="none" class="highcharts-plot-background" x="171" y="92" width="304" height="261"></rect><g class="highcharts-pane-group" data-z-index="0"></g><g class="highcharts-grid highcharts-xaxis-grid" data-z-index="1"><path fill="none" data-z-index="1" class="highcharts-grid-line" d="M 171 125.5 L 475 125.5" opacity="1"></path><path fill="none" data-z-index="1" class="highcharts-grid-line" d="M 171 157.5 L 475 157.5" opacity="1"></path><path fill="none" data-z-index="1" class="highcharts-grid-line" d="M 171 190.5 L 475 190.5" opacity="1"></path><path fill="none" data-z-index="1" class="highcharts-grid-line" d="M 171 223.5 L 475 223.5" opacity="1"></path><path fill="none" data-z-index="1" class="highcharts-grid-line" d="M 171 255.5 L 475 255.5" opacity="1"></path><path fill="none" data-z-index="1" class="highcharts-grid-line" d="M 171 288.5 L 475 288.5" opacity="1"></path><path fill="none" data-z-index="1" class="highcharts-grid-line" d="M 171 320.5 L 475 320.5" opacity="1"></path><path fill="none" data-z-index="1" class="highcharts-grid-line" d="M 171 353.5 L 475 353.5" opacity="1"></path><path fill="none" data-z-index="1" class="highcharts-grid-line" d="M 171 92.5 L 475 92.5" opacity="1"></path></g><g class="highcharts-grid highcharts-yaxis-grid" data-z-index="1"><path fill="none" stroke="#B9CFD7" stroke-width="0.5" data-z-index="1" class="highcharts-grid-line" d="M 170.75 92 L 170.75 353" opacity="1"></path><path fill="none" stroke="#B9CFD7" stroke-width="0.5" data-z-index="1" class="highcharts-grid-line" d="M 231.75 92 L 231.75 353" opacity="1"></path><path fill="none" stroke="#B9CFD7" stroke-width="0.5" data-z-index="1" class="highcharts-grid-line" d="M 292.75 92 L 292.75 353" opacity="1"></path><path fill="none" stroke="#B9CFD7" stroke-width="0.5" data-z-index="1" class="highcharts-grid-line" d="M 352.75 92 L 352.75 353" opacity="1"></path><path fill="none" stroke="#B9CFD7" stroke-width="0.5" data-z-index="1" class="highcharts-grid-line" d="M 413.75 92 L 413.75 353" opacity="1"></path><path fill="none" stroke="#B9CFD7" stroke-width="0.5" data-z-index="1" class="highcharts-grid-line" d="M 475.25 92 L 475.25 353" opacity="1"></path></g><rect fill="none" class="highcharts-plot-border" data-z-index="1" x="171" y="92" width="304" height="261"></rect><g class="highcharts-axis highcharts-xaxis" data-z-index="2"><path fill="none" class="highcharts-axis-line" stroke="#B9CFD7" stroke-width="0.5" data-z-index="7" d="M 170.75 92 L 170.75 353"></path></g><g class="highcharts-axis highcharts-yaxis" data-z-index="2"><path fill="none" class="highcharts-axis-line" data-z-index="7" d="M 171 353 L 475 353"></path></g><g class="highcharts-series-group" data-z-index="3"><g class="highcharts-series highcharts-series-0 highcharts-column-series" data-z-index="0.1" opacity="1" transform="translate(475,353) rotate(90) scale(-1,1) scale(1 1)" clip-path="url(#highcharts-rx7g3wp-32-)"><rect x="240" y="0" width="10" height="247" fill="#cd9c00" opacity="1" class="highcharts-point"></rect><rect x="207" y="0" width="10" height="222" fill="#cd9c00" opacity="1" class="highcharts-point"></rect><rect x="174" y="0" width="10" height="198" fill="#cd9c00" opacity="1" class="highcharts-point"></rect><rect x="142" y="0" width="10" height="174" fill="#cd9c00" opacity="1" class="highcharts-point"></rect><rect x="109" y="0" width="10" height="155" fill="#cd9c00" opacity="1" class="highcharts-point"></rect><rect x="77" y="0" width="10" height="148" fill="#cd9c00" opacity="1" class="highcharts-point"></rect><rect x="44" y="0" width="10" height="126" fill="#cd9c00" opacity="1" class="highcharts-point"></rect><rect x="11" y="0" width="10" height="124" fill="#cd9c00" opacity="1" class="highcharts-point"></rect></g><g class="highcharts-markers highcharts-series-0 highcharts-column-series" data-z-index="0.1" opacity="1" transform="translate(475,353) rotate(90) scale(-1,1) scale(1 1)" clip-path="none"></g><g class="highcharts-series highcharts-series-1 highcharts-column-series" data-z-index="0.1" opacity="1" transform="translate(475,353) rotate(90) scale(-1,1) scale(1 1)" clip-path="url(#highcharts-rx7g3wp-32-)"><rect x="240" y="247" width="10" height="58" fill="#B00000" opacity="1" class="highcharts-point"></rect><rect x="207" y="222" width="10" height="83" fill="#B00000" opacity="1" class="highcharts-point"></rect><rect x="174" y="198" width="10" height="107" fill="#B00000" opacity="1" class="highcharts-point"></rect><rect x="142" y="174" width="10" height="131" fill="#B00000" opacity="1" class="highcharts-point"></rect><rect x="109" y="155" width="10" height="150" fill="#B00000" opacity="1" class="highcharts-point"></rect><rect x="77" y="148" width="10" height="157" fill="#B00000" opacity="1" class="highcharts-point"></rect><rect x="44" y="126" width="10" height="179" fill="#B00000" opacity="1" class="highcharts-point"></rect><rect x="11" y="124" width="10" height="181" fill="#B00000" opacity="1" class="highcharts-point"></rect></g><g class="highcharts-markers highcharts-series-1 highcharts-column-series" data-z-index="0.1" opacity="1" transform="translate(475,353) rotate(90) scale(-1,1) scale(1 1)" clip-path="none"></g></g><text x="10" text-anchor="start" class="highcharts-title" data-z-index="4" style="color:#000000;font-size:14px;font-weight:bold;fill:#000000;" y="21">Anteil Arbeitslose in ausgewählten Berufsgruppen</text><text x="10" text-anchor="start" class="highcharts-subtitle" data-z-index="4" style="color:#000000;font-size:12px;font-weight:normal;fill:#000000;" y="40">nach Staatsangehörigkeit, Basel-Stadt, 2019</text><text x="10" text-anchor="start" class="highcharts-caption" data-z-index="4" style="color:#666666;fill:#666666;" y="400"></text><g class="highcharts-legend" data-z-index="7" transform="translate(163,55)"><rect fill="none" class="highcharts-legend-box" rx="0" ry="0" x="0" y="0" width="226" height="25" visibility="visible"></rect><g data-z-index="1"><g><g class="highcharts-legend-item highcharts-column-series highcharts-color-undefined highcharts-series-1" data-z-index="1" transform="translate(8,3)"><text x="21" style="color:#333333;cursor:pointer;font-size:12px;font-weight:normal;fill:#333333;" text-anchor="start" data-z-index="2" y="15">Schweiz</text><rect x="2" y="4" width="12" height="12" fill="#B00000" class="highcharts-point" data-z-index="3"></rect></g><g class="highcharts-legend-item highcharts-column-series highcharts-color-undefined highcharts-series-0" data-z-index="1" transform="translate(123,3)"><text x="21" y="15" style="color:#333333;cursor:pointer;font-size:12px;font-weight:normal;fill:#333333;" text-anchor="start" data-z-index="2">Ausland</text><rect x="2" y="4" width="12" height="12" fill="#cd9c00" class="highcharts-point" data-z-index="3"></rect></g></g></g></g><g class="highcharts-axis-labels highcharts-xaxis-labels" data-z-index="7"><text x="156" style="color:#000000;cursor:default;font-size:11px;fill:#000000;" text-anchor="end" transform="translate(0,0)" y="113" opacity="1">Bau- und Ausbaugewerbe</text><text x="156" style="color:#000000;cursor:default;font-size:11px;fill:#000000;" text-anchor="end" transform="translate(0,0)" y="146" opacity="1">Gastgewerbe, pers. DL</text><text x="156" style="color:#000000;cursor:default;font-size:11px;fill:#000000;" text-anchor="end" transform="translate(0,0)" y="179" opacity="1">Technische Berufe, Informatik</text><text x="156" style="color:#000000;cursor:default;font-size:11px;fill:#000000;" text-anchor="end" transform="translate(0,0)" y="211" opacity="1">Industrie und Gewerbe</text><text x="156" style="color:#000000;cursor:default;font-size:11px;fill:#000000;" text-anchor="end" transform="translate(0,0)" y="244" opacity="1">Land- und Forstwirtschaft</text><text x="156" style="color:#000000;cursor:default;font-size:11px;fill:#000000;" text-anchor="end" transform="translate(0,0)" y="276" opacity="1">Handels- und Verkehrsberufe</text><text x="156" style="color:#000000;cursor:default;font-size:11px;fill:#000000;" text-anchor="end" transform="translate(0,0)" y="309" opacity="1">Banken, Versicherungen o.ä.</text><text x="156" style="color:#000000;cursor:default;font-size:11px;fill:#000000;" text-anchor="end" transform="translate(0,0)" y="342" opacity="1">Gesundheit, Lehre, Kultur</text></g><g class="highcharts-axis-labels highcharts-yaxis-labels" data-z-index="7"><text x="171" style="color:#000000;cursor:default;font-size:11px;fill:#000000;" text-anchor="middle" transform="translate(0,0)" y="372" opacity="1">0%</text><text x="231.8" style="color:#000000;cursor:default;font-size:11px;fill:#000000;" text-anchor="middle" transform="translate(0,0)" y="372" opacity="1">20%</text><text x="292.6" style="color:#000000;cursor:default;font-size:11px;fill:#000000;" text-anchor="middle" transform="translate(0,0)" y="372" opacity="1">40%</text><text x="353.4" style="color:#000000;cursor:default;font-size:11px;fill:#000000;" text-anchor="middle" transform="translate(0,0)" y="372" opacity="1">60%</text><text x="414.2" style="color:#000000;cursor:default;font-size:11px;fill:#000000;" text-anchor="middle" transform="translate(0,0)" y="372" opacity="1">80%</text><text x="460.953125" style="color:#000000;cursor:default;font-size:11px;fill:#000000;" text-anchor="middle" transform="translate(0,0)" y="372" opacity="1">100%</text></g><text x="10" class="highcharts-credits" text-anchor="start" data-z-index="8" style="cursor:default;color:#000000;font-size:10px;fill:#000000;" y="403">Quelle: Staatssekretariat für Wirtschaft SECO, Arbeitslosenstatistik.<tspan class="highcharts-br" dy="13" x="10">​</tspan>Zuletzt geändert: 2020-10-14</text><g class="highcharts-control-points" data-z-index="99" clip-path="url(#highcharts-rx7g3wp-41-)"></g></svg>