<?xml version="1.0" standalone="no"?><!DOCTYPE svg PUBLIC "-//W3C//DTD SVG 1.1//EN" "http://www.w3.org/Graphics/SVG/1.1/DTD/svg11.dtd"><svg xmlns:xlink="http://www.w3.org/1999/xlink" version="1.1" class="highcharts-root" style="font-family:Inter,Helvetica Neue,Helvetica,Arial,sans-serif;font-size:12px;" xmlns="http://www.w3.org/2000/svg" width="600" height="428"><desc>Created with Highcharts 8.2.2</desc><defs><clipPath id="highcharts-sk07uya-487-"><rect x="0" y="0" width="547" height="239" fill="none"></rect></clipPath><clipPath id="highcharts-sk07uya-728-"><rect x="0" y="0" width="547" height="239" fill="none"></rect></clipPath><clipPath id="highcharts-sk07uya-969-"><rect x="43" y="99" width="547" height="239" fill="none"></rect></clipPath></defs><rect fill="#ffffff" class="highcharts-background" x="0" y="0" width="600" height="428" rx="0" ry="0"></rect><rect fill="none" class="highcharts-plot-background" x="43" y="99" width="547" height="239"></rect><g class="highcharts-pane-group" data-z-index="0"></g><g class="highcharts-grid highcharts-xaxis-grid" data-z-index="1"><path fill="none" data-z-index="1" class="highcharts-grid-line" d="M 43.5 99 L 43.5 338" opacity="1"></path><path fill="none" data-z-index="1" class="highcharts-grid-line" d="M 70.5 99 L 70.5 338" opacity="1"></path><path fill="none" data-z-index="1" class="highcharts-grid-line" d="M 98.5 99 L 98.5 338" opacity="1"></path><path fill="none" data-z-index="1" class="highcharts-grid-line" d="M 125.5 99 L 125.5 338" opacity="1"></path><path fill="none" data-z-index="1" class="highcharts-grid-line" d="M 153.5 99 L 153.5 338" opacity="1"></path><path fill="none" data-z-index="1" class="highcharts-grid-line" d="M 180.5 99 L 180.5 338" opacity="1"></path><path fill="none" data-z-index="1" class="highcharts-grid-line" d="M 207.5 99 L 207.5 338" opacity="1"></path><path fill="none" data-z-index="1" class="highcharts-grid-line" d="M 235.5 99 L 235.5 338" opacity="1"></path><path fill="none" data-z-index="1" class="highcharts-grid-line" d="M 262.5 99 L 262.5 338" opacity="1"></path><path fill="none" data-z-index="1" class="highcharts-grid-line" d="M 289.5 99 L 289.5 338" opacity="1"></path><path fill="none" data-z-index="1" class="highcharts-grid-line" d="M 317.5 99 L 317.5 338" opacity="1"></path><path fill="none" data-z-index="1" class="highcharts-grid-line" d="M 344.5 99 L 344.5 338" opacity="1"></path><path fill="none" data-z-index="1" class="highcharts-grid-line" d="M 371.5 99 L 371.5 338" opacity="1"></path><path fill="none" data-z-index="1" class="highcharts-grid-line" d="M 399.5 99 L 399.5 338" opacity="1"></path><path fill="none" data-z-index="1" class="highcharts-grid-line" d="M 426.5 99 L 426.5 338" opacity="1"></path><path fill="none" data-z-index="1" class="highcharts-grid-line" d="M 453.5 99 L 453.5 338" opacity="1"></path><path fill="none" data-z-index="1" class="highcharts-grid-line" d="M 481.5 99 L 481.5 338" opacity="1"></path><path fill="none" data-z-index="1" class="highcharts-grid-line" d="M 508.5 99 L 508.5 338" opacity="1"></path><path fill="none" data-z-index="1" class="highcharts-grid-line" d="M 535.5 99 L 535.5 338" opacity="1"></path><path fill="none" data-z-index="1" class="highcharts-grid-line" d="M 563.5 99 L 563.5 338" opacity="1"></path></g><g class="highcharts-grid highcharts-yaxis-grid" data-z-index="1"><path fill="none" stroke="#B9CFD7" stroke-width="0.5" data-z-index="1" class="highcharts-grid-line" d="M 43 338.25 L 590 338.25" opacity="1"></path><path fill="none" stroke="#B9CFD7" stroke-width="0.5" data-z-index="1" class="highcharts-grid-line" d="M 43 278.25 L 590 278.25" opacity="1"></path><path fill="none" stroke="#B9CFD7" stroke-width="0.5" data-z-index="1" class="highcharts-grid-line" d="M 43 219.25 L 590 219.25" opacity="1"></path><path fill="none" stroke="#B9CFD7" stroke-width="0.5" data-z-index="1" class="highcharts-grid-line" d="M 43 159.25 L 590 159.25" opacity="1"></path><path fill="none" stroke="#B9CFD7" stroke-width="0.5" data-z-index="1" class="highcharts-grid-line" d="M 43 98.75 L 590 98.75" opacity="1"></path></g><rect fill="none" class="highcharts-plot-border" data-z-index="1" x="43" y="99" width="547" height="239"></rect><g class="highcharts-axis highcharts-xaxis" data-z-index="2"><path fill="none" class="highcharts-axis-line" stroke="#B9CFD7" stroke-width="0.5" data-z-index="7" d="M 43 338.25 L 590 338.25"></path></g><g class="highcharts-axis highcharts-yaxis" data-z-index="2"><path fill="none" class="highcharts-axis-line" data-z-index="7" d="M 43 99 L 43 338"></path></g><g class="highcharts-series-group" data-z-index="3"><g class="highcharts-series highcharts-series-0 highcharts-line-series" data-z-index="0.1" opacity="1" transform="translate(43,99) scale(1 1)" clip-path="url(#highcharts-sk07uya-728-)"><path fill="none" d="M 1.1395833333333 217.49 L 3.41875 209.125 L 5.6979166666667 209.125 L 7.9770833333333 219.88 L 10.25625 218.685 L 12.535416666667 216.295 L 14.814583333333 200.76 L 17.09375 198.37 L 19.372916666667 216.295 L 21.652083333333 218.685 L 23.93125 224.66 L 26.210416666667 212.71 L 28.489583333333 212.71 L 30.76875 199.565 L 33.047916666667 209.125 L 35.327083333333 212.71 L 37.60625 207.93 L 39.885416666667 209.125 L 42.164583333333 213.905 L 44.44375 210.32 L 46.722916666667 209.125 L 49.002083333333 211.515 L 51.28125 213.905 L 53.560416666667 213.905 L 55.839583333333 207.93 L 58.11875 218.685 L 60.397916666667 217.49 L 62.677083333333 210.32 L 64.95625 227.05 L 67.235416666667 212.71 L 69.514583333333 206.735 L 71.79375 211.515 L 74.072916666667 225.855 L 76.352083333333 216.295 L 78.63125 223.465 L 80.910416666667 219.88 L 83.189583333333 217.49 L 85.46875 210.32 L 87.747916666667 223.465 L 90.027083333333 225.855 L 92.30625 217.49 L 94.585416666667 222.27 L 96.864583333333 210.32 L 99.14375 213.905 L 101.42291666667 228.245 L 103.70208333333 223.465 L 105.98125 230.635 L 108.26041666667 228.245 L 110.53958333333 213.905 L 112.81875 221.075 L 115.09791666667 211.515 L 117.37708333333 222.27 L 119.65625 219.88 L 121.93541666667 217.49 L 124.21458333333 212.71 L 126.49375 218.685 L 128.77291666667 222.27 L 131.05208333333 221.075 L 133.33125 221.075 L 135.61041666667 217.49 L 137.88958333333 223.465 L 140.16875 217.49 L 142.44791666667 222.27 L 144.72708333333 230.635 L 147.00625 225.855 L 149.28541666667 215.1 L 151.56458333333 211.515 L 153.84375 212.71 L 156.12291666667 209.125 L 158.40208333333 215.1 L 160.68125 221.075 L 162.96041666667 215.1 L 165.23958333333 219.88 L 167.51875 213.905 L 169.79791666667 112.33 L 172.07708333333 207.93 L 174.35625 205.54 L 176.63541666667 193.59 L 178.91458333333 212.71 L 181.19375 213.905 L 183.47291666667 209.125 L 185.75208333333 210.32 L 188.03125 213.905 L 190.31041666667 206.735 L 192.58958333333 213.905 L 194.86875 217.49 L 197.14791666667 219.88 L 199.42708333333 215.1 L 201.70625 206.735 L 203.98541666667 197.175 L 206.26458333333 211.515 L 208.54375 215.1 L 210.82291666667 213.905 L 213.10208333333 225.855 L 215.38125 209.125 L 217.66041666667 210.32 L 219.93958333333 201.95499999999998 L 222.21875 211.515 L 224.49791666667 217.49 L 226.77708333333 211.515 L 229.05625 207.93 L 231.33541666667 215.1 L 233.61458333333 207.93 L 235.89375 212.71 L 238.17291666667 222.27 L 240.45208333333 213.905 L 242.73125 206.735 L 245.01041666667 217.49 L 247.28958333333 203.15 L 249.56875 204.345 L 251.84791666667 223.465 L 254.12708333333 211.515 L 256.40625 212.71 L 258.68541666667 219.88 L 260.96458333333 205.54 L 263.24375 225.855 L 265.52291666667 222.27 L 267.80208333333 219.88 L 270.08125 218.685 L 272.36041666667 211.515 L 274.63958333333 212.71 L 276.91875 203.15 L 279.19791666667 219.88 L 281.47708333333 216.295 L 283.75625 209.125 L 286.03541666667 199.565 L 288.31458333333 211.515 L 290.59375 215.1 L 292.87291666667 212.71 L 295.15208333333 211.515 L 297.43125 217.49 L 299.71041666667 201.95499999999998 L 301.98958333333 221.075 L 304.26875 218.685 L 306.54791666667 204.345 L 308.82708333333 225.855 L 311.10625 213.905 L 313.38541666667 211.515 L 315.66458333333 212.71 L 317.94375 217.49 L 320.22291666667 203.15 L 322.50208333333 217.49 L 324.78125 201.95499999999998 L 327.06041666667 213.905 L 329.33958333333 211.515 L 331.61875 217.49 L 333.89791666667 210.32 L 336.17708333333 212.71 L 338.45625 209.125 L 340.73541666667 210.32 L 343.01458333333 213.905 L 345.29375 199.565 L 347.57291666667 216.295 L 349.85208333333 225.855 L 352.13125 216.295 L 354.41041666667 205.54 L 356.68958333333 201.95499999999998 L 358.96875 207.93 L 361.24791666667 212.71 L 363.52708333333 215.1 L 365.80625 193.59 L 368.08541666667 205.54 L 370.36458333333 209.125 L 372.64375 203.15 L 374.92291666667 222.27 L 377.20208333333 210.32 L 379.48125 218.685 L 381.76041666667 221.075 L 384.03958333333 221.075 L 386.31875 216.295 L 388.59791666667 210.32 L 390.87708333333 211.515 L 393.15625 213.905 L 395.43541666667 209.125 L 397.71458333333 215.1 L 399.99375 211.515 L 402.27291666667 219.88 L 404.55208333333 222.27 L 406.83125 228.245 L 409.11041666667 219.88 L 411.38958333333 217.49 L 413.66875 219.88 L 415.94791666667 239 L 418.22708333333 239 L 420.50625 239 L 422.78541666667 239 L 425.06458333333 239 L 427.34375 234.22 L 429.62291666667 230.635 L 431.90208333333 225.855 L 434.18125 222.27 L 436.46041666667 217.49 L 438.73958333333 209.125 L 441.01875 227.05 L 443.29791666667 239 L 445.57708333333 237.805 L 447.85625 239 L 450.13541666667 222.27 L 452.41458333333 218.685 L 454.69375 225.855 L 456.97291666667 210.32 L 459.25208333333 217.49 L 461.53125 210.32 L 463.81041666667 215.1 L 466.08958333333 218.685 L 468.36875 231.83 L 470.64791666667 215.1 L 472.92708333333 218.685 L 475.20625 215.1 L 477.48541666667 206.735 L 479.76458333333 213.905 L 482.04375 224.66 L 484.32291666667 216.295 L 486.60208333333 227.05 L 488.88125 184.03 L 491.16041666667 212.71 L 493.43958333333 229.44 L 495.71875 223.465 L 497.99791666667 228.245 L 500.27708333333 223.465 L 502.55625 195.98 L 504.83541666667 219.88 L 507.11458333333 228.245 L 509.39375 221.075 L 511.67291666667 225.855 L 513.95208333333 225.855 L 516.23125 221.075 L 518.51041666667 233.025 L 520.78958333333 222.27 L 523.06875 227.05 L 525.34791666667 221.075 L 527.62708333333 218.685 L 529.90625 209.125 L 532.18541666667 225.855 L 534.46458333333 218.685 L 536.74375 224.66 L 539.02291666667 225.855 L 541.30208333333 215.1 L 543.58125 225.855 L 545.86041666667 223.465" class="highcharts-graph" data-z-index="1" stroke="#FF8028" stroke-width="2" stroke-linejoin="round" stroke-linecap="round"></path></g><g class="highcharts-markers highcharts-series-0 highcharts-line-series" data-z-index="0.1" opacity="1" transform="translate(43,99) scale(1 1)" clip-path="none"></g><g class="highcharts-series highcharts-series-1 highcharts-line-series" data-z-index="0.1" opacity="1" transform="translate(43,99) scale(1 1)" clip-path="url(#highcharts-sk07uya-728-)"><path fill="none" d="M 1.1395833333333 185.225 L 3.41875 213.905 L 5.6979166666667 195.98 L 7.9770833333333 190.005 L 10.25625 201.95499999999998 L 12.535416666667 192.39499999999998 L 14.814583333333 206.735 L 17.09375 207.93 L 19.372916666667 216.295 L 21.652083333333 216.295 L 23.93125 200.76 L 26.210416666667 197.175 L 28.489583333333 209.125 L 30.76875 201.95499999999998 L 33.047916666667 204.345 L 35.327083333333 212.71 L 37.60625 217.49 L 39.885416666667 209.125 L 42.164583333333 210.32 L 44.44375 204.345 L 46.722916666667 212.71 L 49.002083333333 219.88 L 51.28125 215.1 L 53.560416666667 212.71 L 55.839583333333 211.515 L 58.11875 218.685 L 60.397916666667 218.685 L 62.677083333333 225.855 L 64.95625 216.295 L 67.235416666667 215.1 L 69.514583333333 210.32 L 71.79375 205.54 L 74.072916666667 211.515 L 76.352083333333 221.075 L 78.63125 222.27 L 80.910416666667 207.93 L 83.189583333333 209.125 L 85.46875 212.71 L 87.747916666667 216.295 L 90.027083333333 221.075 L 92.30625 215.1 L 94.585416666667 217.49 L 96.864583333333 222.27 L 99.14375 227.05 L 101.42291666667 219.88 L 103.70208333333 224.66 L 105.98125 216.295 L 108.26041666667 217.49 L 110.53958333333 221.075 L 112.81875 225.855 L 115.09791666667 217.49 L 117.37708333333 215.1 L 119.65625 219.88 L 121.93541666667 227.05 L 124.21458333333 223.465 L 126.49375 218.685 L 128.77291666667 210.32 L 131.05208333333 217.49 L 133.33125 223.465 L 135.61041666667 212.71 L 137.88958333333 218.685 L 140.16875 227.05 L 142.44791666667 212.71 L 144.72708333333 210.32 L 147.00625 212.71 L 149.28541666667 211.515 L 151.56458333333 207.93 L 153.84375 215.1 L 156.12291666667 205.54 L 158.40208333333 213.905 L 160.68125 211.515 L 162.96041666667 198.37 L 165.23958333333 204.345 L 167.51875 216.295 L 169.79791666667 59.75 L 172.07708333333 205.54 L 174.35625 204.345 L 176.63541666667 191.2 L 178.91458333333 211.515 L 181.19375 207.93 L 183.47291666667 203.15 L 185.75208333333 222.27 L 188.03125 207.93 L 190.31041666667 197.175 L 192.58958333333 211.515 L 194.86875 204.345 L 197.14791666667 207.93 L 199.42708333333 210.32 L 201.70625 206.735 L 203.98541666667 212.71 L 206.26458333333 210.32 L 208.54375 215.1 L 210.82291666667 209.125 L 213.10208333333 219.88 L 215.38125 212.71 L 217.66041666667 201.95499999999998 L 219.93958333333 190.005 L 222.21875 203.15 L 224.49791666667 209.125 L 226.77708333333 209.125 L 229.05625 211.515 L 231.33541666667 212.71 L 233.61458333333 209.125 L 235.89375 205.54 L 238.17291666667 215.1 L 240.45208333333 219.88 L 242.73125 216.295 L 245.01041666667 204.345 L 247.28958333333 195.98 L 249.56875 216.295 L 251.84791666667 206.735 L 254.12708333333 198.37 L 256.40625 200.76 L 258.68541666667 215.1 L 260.96458333333 201.95499999999998 L 263.24375 218.685 L 265.52291666667 219.88 L 267.80208333333 215.1 L 270.08125 222.27 L 272.36041666667 211.515 L 274.63958333333 209.125 L 276.91875 211.515 L 279.19791666667 211.515 L 281.47708333333 207.93 L 283.75625 210.32 L 286.03541666667 192.39499999999998 L 288.31458333333 216.295 L 290.59375 200.76 L 292.87291666667 213.905 L 295.15208333333 211.515 L 297.43125 216.295 L 299.71041666667 203.15 L 301.98958333333 211.515 L 304.26875 207.93 L 306.54791666667 205.54 L 308.82708333333 216.295 L 311.10625 199.565 L 313.38541666667 190.005 L 315.66458333333 210.32 L 317.94375 209.125 L 320.22291666667 217.49 L 322.50208333333 221.075 L 324.78125 205.54 L 327.06041666667 219.88 L 329.33958333333 206.735 L 331.61875 210.32 L 333.89791666667 187.615 L 336.17708333333 210.32 L 338.45625 205.54 L 340.73541666667 181.64 L 343.01458333333 205.54 L 345.29375 209.125 L 347.57291666667 210.32 L 349.85208333333 209.125 L 352.13125 203.15 L 354.41041666667 209.125 L 356.68958333333 209.125 L 358.96875 217.49 L 361.24791666667 212.71 L 363.52708333333 212.71 L 365.80625 191.2 L 368.08541666667 200.76 L 370.36458333333 211.515 L 372.64375 212.71 L 374.92291666667 221.075 L 377.20208333333 205.54 L 379.48125 210.32 L 381.76041666667 219.88 L 384.03958333333 212.71 L 386.31875 217.49 L 388.59791666667 218.685 L 390.87708333333 213.905 L 393.15625 197.175 L 395.43541666667 218.685 L 397.71458333333 210.32 L 399.99375 203.15 L 402.27291666667 218.685 L 404.55208333333 216.295 L 406.83125 215.1 L 409.11041666667 209.125 L 411.38958333333 209.125 L 413.66875 221.075 L 415.94791666667 239 L 418.22708333333 239 L 420.50625 239 L 422.78541666667 239 L 425.06458333333 239 L 427.34375 237.805 L 429.62291666667 227.05 L 431.90208333333 217.49 L 434.18125 217.49 L 436.46041666667 223.465 L 438.73958333333 205.54 L 441.01875 221.075 L 443.29791666667 239 L 445.57708333333 239 L 447.85625 237.805 L 450.13541666667 217.49 L 452.41458333333 216.295 L 454.69375 223.465 L 456.97291666667 211.515 L 459.25208333333 224.66 L 461.53125 216.295 L 463.81041666667 217.49 L 466.08958333333 211.515 L 468.36875 224.66 L 470.64791666667 218.685 L 472.92708333333 218.685 L 475.20625 218.685 L 477.48541666667 180.445 L 479.76458333333 209.125 L 482.04375 219.88 L 484.32291666667 219.88 L 486.60208333333 221.075 L 488.88125 184.03 L 491.16041666667 211.515 L 493.43958333333 225.855 L 495.71875 216.295 L 497.99791666667 219.88 L 500.27708333333 225.855 L 502.55625 211.515 L 504.83541666667 216.295 L 507.11458333333 223.465 L 509.39375 213.905 L 511.67291666667 231.83 L 513.95208333333 225.855 L 516.23125 228.245 L 518.51041666667 229.44 L 520.78958333333 218.685 L 523.06875 215.1 L 525.34791666667 218.685 L 527.62708333333 223.465 L 529.90625 218.685 L 532.18541666667 213.905 L 534.46458333333 207.93 L 536.74375 219.88 L 539.02291666667 212.71 L 541.30208333333 213.905 L 543.58125 215.1 L 545.86041666667 210.32" class="highcharts-graph" data-z-index="1" stroke="#B00000" stroke-width="2" stroke-linejoin="round" stroke-linecap="round"></path></g><g class="highcharts-markers highcharts-series-1 highcharts-line-series" data-z-index="0.1" opacity="1" transform="translate(43,99) scale(1 1)" clip-path="none"></g></g><text x="10" text-anchor="start" class="highcharts-caption" data-z-index="4" style="color:#666666;fill:#666666;" y="385"></text><g class="highcharts-legend" data-z-index="7" transform="translate(35,56)"><rect fill="none" class="highcharts-legend-box" rx="0" ry="0" x="0" y="0" width="276" height="31" visibility="visible"></rect><g data-z-index="1"><g><g class="highcharts-legend-item highcharts-line-series highcharts-color-undefined highcharts-series-0" data-z-index="1" transform="translate(8,3)"><path fill="none" d="M 0 11 L 16 11" class="highcharts-graph" stroke="#FF8028" stroke-width="2"></path><text x="21" style="color:#333333;cursor:pointer;font-size:12px;font-weight:normal;fill:#333333;" text-anchor="start" data-z-index="2" y="15"><tspan>Schweizer Frauen</tspan></text></g><g class="highcharts-legend-item highcharts-line-series highcharts-color-undefined highcharts-series-1" data-z-index="1" transform="translate(147,3)"><path fill="none" d="M 0 11 L 16 11" class="highcharts-graph" stroke="#B00000" stroke-width="2"></path><text x="21" y="15" style="color:#333333;cursor:pointer;font-size:12px;font-weight:normal;fill:#333333;" text-anchor="start" data-z-index="2"><tspan>Schweizer Männer</tspan></text></g></g></g></g><g class="highcharts-axis-labels highcharts-xaxis-labels" data-z-index="7"><text x="46.73230819768367" style="color:#000000;cursor:default;font-size:11px;fill:#000000;" text-anchor="end" transform="translate(0,0) rotate(-45 46.73230819768367 354)" y="354" opacity="1">2005</text><text x="74.08230819768367" style="color:#000000;cursor:default;font-size:11px;fill:#000000;" text-anchor="end" transform="translate(0,0) rotate(-45 74.08230819768367 354)" y="354" opacity="1">2006</text><text x="101.43230819768367" style="color:#000000;cursor:default;font-size:11px;fill:#000000;" text-anchor="end" transform="translate(0,0) rotate(-45 101.43230819768367 354)" y="354" opacity="1">2007</text><text x="128.7823081976807" style="color:#000000;cursor:default;font-size:11px;fill:#000000;" text-anchor="end" transform="translate(0,0) rotate(-45 128.7823081976807 354)" y="354" opacity="1">2008</text><text x="156.1323081976807" style="color:#000000;cursor:default;font-size:11px;fill:#000000;" text-anchor="end" transform="translate(0,0) rotate(-45 156.1323081976807 354)" y="354" opacity="1">2009</text><text x="183.48230819768068" style="color:#000000;cursor:default;font-size:11px;fill:#000000;" text-anchor="end" transform="translate(0,0) rotate(-45 183.48230819768068 354)" y="354" opacity="1">2010</text><text x="210.83230819768067" style="color:#000000;cursor:default;font-size:11px;fill:#000000;" text-anchor="end" transform="translate(0,0) rotate(-45 210.83230819768067 354)" y="354" opacity="1">2011</text><text x="238.1823081976807" style="color:#000000;cursor:default;font-size:11px;fill:#000000;" text-anchor="end" transform="translate(0,0) rotate(-45 238.1823081976807 354)" y="354" opacity="1">2012</text><text x="265.53230819768066" style="color:#000000;cursor:default;font-size:11px;fill:#000000;" text-anchor="end" transform="translate(0,0) rotate(-45 265.53230819768066 354)" y="354" opacity="1">2013</text><text x="292.88230819768063" style="color:#000000;cursor:default;font-size:11px;fill:#000000;" text-anchor="end" transform="translate(0,0) rotate(-45 292.88230819768063 354)" y="354" opacity="1">2014</text><text x="320.23230819768065" style="color:#000000;cursor:default;font-size:11px;fill:#000000;" text-anchor="end" transform="translate(0,0) rotate(-45 320.23230819768065 354)" y="354" opacity="1">2015</text><text x="347.5823081976807" style="color:#000000;cursor:default;font-size:11px;fill:#000000;" text-anchor="end" transform="translate(0,0) rotate(-45 347.5823081976807 354)" y="354" opacity="1">2016</text><text x="374.93230819768064" style="color:#000000;cursor:default;font-size:11px;fill:#000000;" text-anchor="end" transform="translate(0,0) rotate(-45 374.93230819768064 354)" y="354" opacity="1">2017</text><text x="402.28230819768066" style="color:#000000;cursor:default;font-size:11px;fill:#000000;" text-anchor="end" transform="translate(0,0) rotate(-45 402.28230819768066 354)" y="354" opacity="1">2018</text><text x="429.63230819768063" style="color:#000000;cursor:default;font-size:11px;fill:#000000;" text-anchor="end" transform="translate(0,0) rotate(-45 429.63230819768063 354)" y="354" opacity="1">2019</text><text x="456.98230819768065" style="color:#000000;cursor:default;font-size:11px;fill:#000000;" text-anchor="end" transform="translate(0,0) rotate(-45 456.98230819768065 354)" y="354" opacity="1">2020</text><text x="484.3323081976807" style="color:#000000;cursor:default;font-size:11px;fill:#000000;" text-anchor="end" transform="translate(0,0) rotate(-45 484.3323081976807 354)" y="354" opacity="1">2021</text><text x="511.68230819768064" style="color:#000000;cursor:default;font-size:11px;fill:#000000;" text-anchor="end" transform="translate(0,0) rotate(-45 511.68230819768064 354)" y="354" opacity="1">2022</text><text x="539.0323081976807" style="color:#000000;cursor:default;font-size:11px;fill:#000000;" text-anchor="end" transform="translate(0,0) rotate(-45 539.0323081976807 354)" y="354" opacity="1">2023</text><text x="566.3823081976807" style="color:#000000;cursor:default;font-size:11px;fill:#000000;" text-anchor="end" transform="translate(0,0) rotate(-45 566.3823081976807 354)" y="354" opacity="1">2024</text></g><g class="highcharts-axis-labels highcharts-yaxis-labels" data-z-index="7"><text x="28" style="color:#000000;cursor:default;font-size:11px;fill:#000000;" text-anchor="end" transform="translate(0,0)" y="342" opacity="1">0</text><text x="28" style="color:#000000;cursor:default;font-size:11px;fill:#000000;" text-anchor="end" transform="translate(0,0)" y="282" opacity="1">50</text><text x="28" style="color:#000000;cursor:default;font-size:11px;fill:#000000;" text-anchor="end" transform="translate(0,0)" y="223" opacity="1">100</text><text x="28" style="color:#000000;cursor:default;font-size:11px;fill:#000000;" text-anchor="end" transform="translate(0,0)" y="163" opacity="1">150</text><text x="28" style="color:#000000;cursor:default;font-size:11px;fill:#000000;" text-anchor="end" transform="translate(0,0)" y="103" opacity="1">200</text></g></svg>