<?xml version="1.0" standalone="no"?><!DOCTYPE svg PUBLIC "-//W3C//DTD SVG 1.1//EN" "http://www.w3.org/Graphics/SVG/1.1/DTD/svg11.dtd"><svg xmlns:xlink="http://www.w3.org/1999/xlink" version="1.1" class="highcharts-root" style="font-family:Arial;font-size:12px;" xmlns="http://www.w3.org/2000/svg" viewBox="0 0 485 415"><desc>Created with Highstock 6.1.1</desc><defs><clipPath id="highcharts-b22lapv-7"><rect x="0" y="0" width="429" height="269" fill="none"></rect></clipPath><clipPath id="highcharts-b22lapv-8"><rect x="0" y="0" width="429" height="269" fill="none"></rect></clipPath></defs><rect fill="#fbfbfb" class="highcharts-background" x="0" y="0" width="485" height="428" rx="0" ry="0"></rect><rect fill="none" class="highcharts-plot-background" x="46" y="94" width="429" height="269"></rect><g class="highcharts-pane-group" data-z-index="0"></g><g class="highcharts-grid highcharts-xaxis-grid " data-z-index="1"><path fill="none" data-z-index="1" class="highcharts-grid-line" d="M 188.5 94 L 188.5 363" opacity="1"></path><path fill="none" data-z-index="1" class="highcharts-grid-line" d="M 331.5 94 L 331.5 363" opacity="1"></path><path fill="none" data-z-index="1" class="highcharts-grid-line" d="M 474.5 94 L 474.5 363" opacity="1"></path><path fill="none" data-z-index="1" class="highcharts-grid-line" d="M 45.5 94 L 45.5 363" opacity="1"></path></g><g class="highcharts-grid highcharts-yaxis-grid " data-z-index="1"><path fill="none" stroke="#B9CFD7" stroke-width="0.5" data-z-index="1" class="highcharts-grid-line" d="M 46 363.25 L 475 363.25" opacity="1"></path><path fill="none" stroke="#B9CFD7" stroke-width="0.5" data-z-index="1" class="highcharts-grid-line" d="M 46 296.25 L 475 296.25" opacity="1"></path><path fill="none" stroke="#B9CFD7" stroke-width="0.5" data-z-index="1" class="highcharts-grid-line" d="M 46 229.25 L 475 229.25" opacity="1"></path><path fill="none" stroke="#B9CFD7" stroke-width="0.5" data-z-index="1" class="highcharts-grid-line" d="M 46 161.25 L 475 161.25" opacity="1"></path><path fill="none" stroke="#B9CFD7" stroke-width="0.5" data-z-index="1" class="highcharts-grid-line" d="M 46 93.75 L 475 93.75" opacity="1"></path></g><g class="highcharts-grid highcharts-yaxis-grid " data-z-index="1"></g><rect fill="none" class="highcharts-plot-border" data-z-index="1" x="46" y="94" width="429" height="269"></rect><g class="highcharts-axis highcharts-xaxis " data-z-index="2"><path fill="none" class="highcharts-axis-line" stroke="#B9CFD7" stroke-width="0.5" data-z-index="7" d="M 46 363.25 L 475 363.25"></path></g><g class="highcharts-axis highcharts-yaxis " data-z-index="2"><path fill="none" class="highcharts-axis-line" data-z-index="7" d="M 46 94 L 46 363"></path></g><g class="highcharts-axis highcharts-yaxis " data-z-index="2"><path fill="none" class="highcharts-axis-line" data-z-index="7" d="M 10 94 L 10 363"></path></g><g class="highcharts-series-group" data-z-index="3"><g data-z-index="0.1" class="highcharts-series highcharts-series-0 highcharts-column-series " transform="translate(46,94) scale(1 1)" clip-path="url(#highcharts-b22lapv-8)"><rect x="29" y="37" width="21" height="233" fill="#661200" class="highcharts-point"></rect><rect x="172" y="46" width="21" height="224" fill="#661200" class="highcharts-point"></rect><rect x="315" y="55" width="21" height="215" fill="#661200" class="highcharts-point"></rect></g><g data-z-index="0.1" class="highcharts-markers highcharts-series-0 highcharts-column-series " transform="translate(46,94) scale(1 1)" clip-path="none"></g><g data-z-index="0.1" class="highcharts-series highcharts-series-1 highcharts-errorbar-series " transform="translate(46,94) scale(1 1)" clip-path="url(#highcharts-b22lapv-8)"><g class="highcharts-point"><path fill="none" class="highcharts-boxplot-stem" stroke="#000000" stroke-width="1" d="M 326.5 57 L 326.5 51 M 326.5 57 L 326.5 57"></path><path fill="none" class="highcharts-boxplot-whisker" stroke="#000000" stroke-width="1" d="M 321 51.5 L 332 51.5 M 321 57.5 L 332 57.5"></path><path fill="none" class="highcharts-boxplot-median" stroke="#000000" stroke-width="2" d="M 0 0"></path></g></g><g data-z-index="0.1" class="highcharts-markers highcharts-series-1 highcharts-errorbar-series " transform="translate(46,94) scale(1 1)" clip-path="none"></g><g data-z-index="0.1" class="highcharts-series highcharts-series-2 highcharts-column-series " transform="translate(46,94) scale(1 1)" clip-path="url(#highcharts-b22lapv-8)"><rect x="50" y="106" width="22" height="164" fill="#dc440e" class="highcharts-point"></rect><rect x="193" y="79" width="22" height="191" fill="#dc440e" class="highcharts-point"></rect><rect x="336" y="64" width="22" height="206" fill="#dc440e" class="highcharts-point"></rect></g><g data-z-index="0.1" class="highcharts-markers highcharts-series-2 highcharts-column-series " transform="translate(46,94) scale(1 1)" clip-path="none"></g><g data-z-index="0.1" class="highcharts-series highcharts-series-3 highcharts-errorbar-series " transform="translate(46,94) scale(1 1)" clip-path="url(#highcharts-b22lapv-8)"><g class="highcharts-point"><path fill="none" class="highcharts-boxplot-stem" stroke="#000000" stroke-width="1" d="M 347.5 65 L 347.5 59 M 347.5 65 L 347.5 65"></path><path fill="none" class="highcharts-boxplot-whisker" stroke="#000000" stroke-width="1" d="M 342 59.5 L 353 59.5 M 342 65.5 L 353 65.5"></path><path fill="none" class="highcharts-boxplot-median" stroke="#000000" stroke-width="2" d="M 0 0"></path></g></g><g data-z-index="0.1" class="highcharts-markers highcharts-series-3 highcharts-errorbar-series " transform="translate(46,94) scale(1 1)" clip-path="none"></g><g data-z-index="0.1" class="highcharts-series highcharts-series-4 highcharts-column-series " transform="translate(46,94) scale(1 1)" clip-path="url(#highcharts-b22lapv-8)"><rect x="72" y="31" width="21" height="239" fill="#7f5f1a" class="highcharts-point"></rect><rect x="215" y="45" width="21" height="225" fill="#7f5f1a" class="highcharts-point"></rect><rect x="358" y="41" width="21" height="229" fill="#7f5f1a" class="highcharts-point"></rect></g><g data-z-index="0.1" class="highcharts-markers highcharts-series-4 highcharts-column-series " transform="translate(46,94) scale(1 1)" clip-path="none"></g><g data-z-index="0.1" class="highcharts-series highcharts-series-5 highcharts-errorbar-series " transform="translate(46,94) scale(1 1)" clip-path="url(#highcharts-b22lapv-8)"><g class="highcharts-point"><path fill="none" class="highcharts-boxplot-stem" stroke="#000000" stroke-width="1" d="M 369.5 43 L 369.5 37 M 369.5 43 L 369.5 43"></path><path fill="none" class="highcharts-boxplot-whisker" stroke="#000000" stroke-width="1" d="M 364 37.5 L 375 37.5 M 364 43.5 L 375 43.5"></path><path fill="none" class="highcharts-boxplot-median" stroke="#000000" stroke-width="2" d="M 0 0"></path></g></g><g data-z-index="0.1" class="highcharts-markers highcharts-series-5 highcharts-errorbar-series " transform="translate(46,94) scale(1 1)" clip-path="none"></g><g data-z-index="0.1" class="highcharts-series highcharts-series-6 highcharts-column-series " transform="translate(46,94) scale(1 1)" clip-path="url(#highcharts-b22lapv-8)"><rect x="93" y="94" width="21" height="176" fill="#ffda80" class="highcharts-point"></rect><rect x="236" y="74" width="21" height="196" fill="#ffda80" class="highcharts-point"></rect><rect x="379" y="72" width="21" height="198" fill="#ffda80" class="highcharts-point"></rect></g><g data-z-index="0.1" class="highcharts-markers highcharts-series-6 highcharts-column-series " transform="translate(46,94) scale(1 1)" clip-path="none"></g><g data-z-index="0.1" class="highcharts-series highcharts-series-7 highcharts-errorbar-series " transform="translate(46,94) scale(1 1)" clip-path="url(#highcharts-b22lapv-8)"><g class="highcharts-point"><path fill="none" class="highcharts-boxplot-stem" stroke="#000000" stroke-width="1" d="M 390.5 75 L 390.5 67 M 390.5 75 L 390.5 75"></path><path fill="none" class="highcharts-boxplot-whisker" stroke="#000000" stroke-width="1" d="M 385 67.5 L 396 67.5 M 385 75.5 L 396 75.5"></path><path fill="none" class="highcharts-boxplot-median" stroke="#000000" stroke-width="2" d="M 0 0"></path></g></g><g data-z-index="0.1" class="highcharts-markers highcharts-series-7 highcharts-errorbar-series " transform="translate(46,94) scale(1 1)" clip-path="none"></g></g><text x="10" text-anchor="start" class="highcharts-title" data-z-index="4" style="color:#000000;font-size:14px;font-weight:bold;fill:#000000;" y="21"><tspan>Erwerbsquote</tspan></text><text x="10" text-anchor="start" class="highcharts-subtitle" data-z-index="4" style="color:#000000;font-size:12px;font-weight:normal;font-family:Arial;fill:#000000;" y="40"><tspan>der 15-64-Jährigen nach Staatsangehörigkeit und Geschlecht, Basel-Stadt</tspan></text><g class="highcharts-legend" data-z-index="7" transform="translate(38,56)"><rect fill="none" class="highcharts-legend-box" rx="0" ry="0" x="0" y="0" width="401" height="26" visibility="visible"></rect><g data-z-index="1"><g><g class="highcharts-legend-item highcharts-column-series highcharts-color-undefined highcharts-series-0" data-z-index="1" transform="translate(8,3)"><text x="21" style="color:#333333;font-size:12px;font-weight:normal;cursor:pointer;fill:#333333;" text-anchor="start" data-z-index="2" y="15"><tspan>Schweizer</tspan></text><rect x="2" y="4" width="12" height="12" fill="#661200" class="highcharts-point" data-z-index="3"></rect></g><g class="highcharts-legend-item highcharts-column-series highcharts-color-undefined highcharts-series-2" data-z-index="1" transform="translate(90,3)"><text x="21" y="15" style="color:#333333;font-size:12px;font-weight:normal;cursor:pointer;fill:#333333;" text-anchor="start" data-z-index="2"><tspan>Schweizerinnen</tspan></text><rect x="2" y="4" width="12" height="12" fill="#dc440e" class="highcharts-point" data-z-index="3"></rect></g><g class="highcharts-legend-item highcharts-column-series highcharts-color-undefined highcharts-series-4" data-z-index="1" transform="translate(203,3)"><text x="21" y="15" style="color:#333333;font-size:12px;font-weight:normal;cursor:pointer;fill:#333333;" text-anchor="start" data-z-index="2"><tspan>Ausländer</tspan></text><rect x="2" y="4" width="12" height="12" fill="#7f5f1a" class="highcharts-point" data-z-index="3"></rect></g><g class="highcharts-legend-item highcharts-column-series highcharts-color-undefined highcharts-series-6" data-z-index="1" transform="translate(285,3)"><text x="21" y="15" style="color:#333333;font-size:12px;font-weight:normal;cursor:pointer;fill:#333333;" text-anchor="start" data-z-index="2"><tspan>Ausländerinnen</tspan></text><rect x="2" y="4" width="12" height="12" fill="#ffda80" class="highcharts-point" data-z-index="3"></rect></g></g></g></g><g class="highcharts-axis-labels highcharts-xaxis-labels " data-z-index="7"><text x="117.5" style="color:#000000;cursor:default;font-size:11px;fill:#000000;" text-anchor="middle" transform="translate(0,0)" y="382" opacity="1">1990</text><text x="260.5" style="color:#000000;cursor:default;font-size:11px;fill:#000000;" text-anchor="middle" transform="translate(0,0)" y="382" opacity="1">2000</text><text x="403.5" style="color:#000000;cursor:default;font-size:11px;fill:#000000;" text-anchor="middle" transform="translate(0,0)" y="382" opacity="1">2013-2017</text></g><g class="highcharts-axis-labels highcharts-yaxis-labels " data-z-index="7"><text x="31" style="color:#000000;cursor:default;font-size:11px;fill:#000000;" text-anchor="end" transform="translate(0,0)" y="367" opacity="1">0</text><text x="31" style="color:#000000;cursor:default;font-size:11px;fill:#000000;" text-anchor="end" transform="translate(0,0)" y="300" opacity="1">0.25</text><text x="31" style="color:#000000;cursor:default;font-size:11px;fill:#000000;" text-anchor="end" transform="translate(0,0)" y="233" opacity="1">0.5</text><text x="31" style="color:#000000;cursor:default;font-size:11px;fill:#000000;" text-anchor="end" transform="translate(0,0)" y="165" opacity="1">0.75</text><text x="31" style="color:#000000;cursor:default;font-size:11px;fill:#000000;" text-anchor="end" transform="translate(0,0)" y="98" opacity="1">1</text></g><g class="highcharts-axis-labels highcharts-yaxis-labels " data-z-index="7"></g><text x="10" class="highcharts-credits" text-anchor="start" data-z-index="8" style="cursor:default;color:#000000;font-size:10px;fill:#000000;" y="393"><tspan>Quelle: Bundesamt für Statistik (BFS), Strukturerhebung (SE);</tspan><tspan x="10" dy="13">Bundesamt für Statistik (BFS), Volkszählung (VZ).</tspan><tspan x="10" dy="13">Zuletzt geändert: 2019-5-10</tspan></text></svg>