<?xml version="1.0" standalone="no"?><!DOCTYPE svg PUBLIC "-//W3C//DTD SVG 1.1//EN" "http://www.w3.org/Graphics/SVG/1.1/DTD/svg11.dtd"><svg xmlns:xlink="http://www.w3.org/1999/xlink" version="1.1" class="highcharts-root" style="font-family:Inter,Helvetica Neue,Helvetica,Arial,sans-serif;font-size:12px;" xmlns="http://www.w3.org/2000/svg" width="600" height="428"><desc>Created with Highcharts 8.2.2</desc><defs><clipPath id="highcharts-9yua5h6-133-"><rect x="0" y="0" width="543" height="202" fill="none"></rect></clipPath><clipPath id="highcharts-9yua5h6-155-"><rect x="0" y="0" width="543" height="202" fill="none"></rect></clipPath><clipPath id="highcharts-9yua5h6-261-"><rect x="47" y="139" width="543" height="202" fill="none"></rect></clipPath></defs><rect fill="#ffffff" class="highcharts-background" x="0" y="0" width="600" height="428" rx="0" ry="0"></rect><rect fill="none" class="highcharts-plot-background" x="47" y="139" width="543" height="202"></rect><g class="highcharts-pane-group" data-z-index="0"></g><g class="highcharts-grid highcharts-xaxis-grid" data-z-index="1"><path fill="none" data-z-index="1" class="highcharts-grid-line" d="M 51.5 139 L 51.5 341" opacity="1"></path><path fill="none" data-z-index="1" class="highcharts-grid-line" d="M 105.5 139 L 105.5 341" opacity="1"></path><path fill="none" data-z-index="1" class="highcharts-grid-line" d="M 158.5 139 L 158.5 341" opacity="1"></path><path fill="none" data-z-index="1" class="highcharts-grid-line" d="M 211.5 139 L 211.5 341" opacity="1"></path><path fill="none" data-z-index="1" class="highcharts-grid-line" d="M 264.5 139 L 264.5 341" opacity="1"></path><path fill="none" data-z-index="1" class="highcharts-grid-line" d="M 318.5 139 L 318.5 341" opacity="1"></path><path fill="none" data-z-index="1" class="highcharts-grid-line" d="M 371.5 139 L 371.5 341" opacity="1"></path><path fill="none" data-z-index="1" class="highcharts-grid-line" d="M 424.5 139 L 424.5 341" opacity="1"></path><path fill="none" data-z-index="1" class="highcharts-grid-line" d="M 477.5 139 L 477.5 341" opacity="1"></path><path fill="none" data-z-index="1" class="highcharts-grid-line" d="M 530.5 139 L 530.5 341" opacity="1"></path><path fill="none" data-z-index="1" class="highcharts-grid-line" d="M 584.5 139 L 584.5 341" opacity="1"></path></g><g class="highcharts-grid highcharts-yaxis-grid" data-z-index="1"><path fill="none" stroke="#B9CFD7" stroke-width="0.5" data-z-index="1" class="highcharts-grid-line" d="M 47 341.25 L 590 341.25" opacity="1"></path><path fill="none" stroke="#B9CFD7" stroke-width="0.5" data-z-index="1" class="highcharts-grid-line" d="M 47 291.25 L 590 291.25" opacity="1"></path><path fill="none" stroke="#B9CFD7" stroke-width="0.5" data-z-index="1" class="highcharts-grid-line" d="M 47 240.25 L 590 240.25" opacity="1"></path><path fill="none" stroke="#B9CFD7" stroke-width="0.5" data-z-index="1" class="highcharts-grid-line" d="M 47 190.25 L 590 190.25" opacity="1"></path><path fill="none" stroke="#B9CFD7" stroke-width="0.5" data-z-index="1" class="highcharts-grid-line" d="M 47 138.75 L 590 138.75" opacity="1"></path></g><rect fill="none" class="highcharts-plot-border" data-z-index="1" x="47" y="139" width="543" height="202"></rect><g class="highcharts-axis highcharts-xaxis" data-z-index="2"><path fill="none" class="highcharts-axis-line" stroke="#B9CFD7" stroke-width="0.5" data-z-index="7" d="M 47 341.25 L 590 341.25"></path></g><g class="highcharts-axis highcharts-yaxis" data-z-index="2"><path fill="none" class="highcharts-axis-line" data-z-index="7" d="M 47 139 L 47 341"></path></g><g class="highcharts-series-group" data-z-index="3"><g class="highcharts-series highcharts-series-0 highcharts-line-series" data-z-index="0.1" opacity="1" transform="translate(47,139) scale(1 1)" clip-path="url(#highcharts-9yua5h6-155-)"><path fill="none" d="M 5.3235294117659 112.11 L 31.941176470589 111.10000000000001 L 58.558823529413 111.10000000000001 L 85.176470588236 111.10000000000001 L 111.79411764706 112.11 L 138.41176470588 108.07 L 165.02941176471 110.09 L 191.64705882353 110.09 L 218.26470588235 114.13000000000001 L 244.88235294118 116.15 L 271.5 118.17 L 298.11764705882 120.19000000000001 L 324.73529411765 121.2 L 351.35294117647 121.2 L 377.97058823529 122.21 L 404.58823529412 122.21 L 431.20588235294 125.24000000000001 L 457.82352941176 125.24000000000001 L 484.44117647059 125.24000000000001 L 511.05882352941 128.27 L 537.67647058823 128.27" class="highcharts-graph" data-z-index="1" stroke="#b00000" stroke-width="2" stroke-linejoin="round" stroke-linecap="round"></path></g><g class="highcharts-markers highcharts-series-0 highcharts-line-series" data-z-index="0.1" opacity="1" transform="translate(47,139) scale(1 1)" clip-path="none"></g><g class="highcharts-series highcharts-series-1 highcharts-line-series" data-z-index="0.1" opacity="1" transform="translate(47,139) scale(1 1)" clip-path="url(#highcharts-9yua5h6-155-)"><path fill="none" d="M 5.3235294117659 32.31999999999999 L 31.941176470589 32.31999999999999 L 58.558823529413 35.349999999999994 L 85.176470588236 40.400000000000006 L 111.79411764706 43.43000000000001 L 138.41176470588 61.610000000000014 L 165.02941176471 66.66 L 191.64705882353 71.71000000000001 L 218.26470588235 78.78000000000002 L 244.88235294118 92.92 L 271.5 101 L 298.11764705882 109.08000000000001 L 324.73529411765 115.14 L 351.35294117647 119.18 L 377.97058823529 122.21 L 404.58823529412 123.22 L 431.20588235294 127.26 L 457.82352941176 131.3 L 484.44117647059 135.34 L 511.05882352941 137.36 L 537.67647058823 139.38" class="highcharts-graph" data-z-index="1" stroke="#007a2f" stroke-width="2" stroke-linejoin="round" stroke-linecap="round"></path></g><g class="highcharts-markers highcharts-series-1 highcharts-line-series" data-z-index="0.1" opacity="1" transform="translate(47,139) scale(1 1)" clip-path="none"></g><g class="highcharts-series highcharts-series-2 highcharts-line-series" data-z-index="0.1" opacity="1" transform="translate(47,139) scale(1 1)" clip-path="url(#highcharts-9yua5h6-155-)"><path fill="none" d="M 5.3235294117659 155.54000000000002 L 31.941176470589 151.5 L 58.558823529413 156.55 L 85.176470588236 158.57 L 111.79411764706 161.6 L 138.41176470588 165.64 L 165.02941176471 164.63 L 191.64705882353 167.66 L 218.26470588235 169.68 L 244.88235294118 172.71 L 271.5 172.71 L 298.11764705882 172.71 L 324.73529411765 173.72 L 351.35294117647 173.72 L 377.97058823529 175.74 L 404.58823529412 173.72 L 431.20588235294 173.72 L 457.82352941176 170.69 L 484.44117647059 172.71 L 511.05882352941 172.71 L 537.67647058823 173.72" class="highcharts-graph" data-z-index="1" stroke="#662673" stroke-width="2" stroke-linejoin="round" stroke-linecap="round"></path></g><g class="highcharts-markers highcharts-series-2 highcharts-line-series" data-z-index="0.1" opacity="1" transform="translate(47,139) scale(1 1)" clip-path="none"></g><g class="highcharts-series highcharts-series-3 highcharts-line-series" data-z-index="0.1" opacity="1" transform="translate(47,139) scale(1 1)" clip-path="url(#highcharts-9yua5h6-155-)"><path fill="none" d="M 5.3235294117659 73.73000000000002 L 31.941176470589 65.65 L 58.558823529413 62.620000000000005 L 85.176470588236 57.56999999999999 L 111.79411764706 55.55000000000001 L 138.41176470588 65.65 L 165.02941176471 69.69 L 191.64705882353 80.80000000000001 L 218.26470588235 91.91 L 244.88235294118 108.07 L 271.5 118.17 L 298.11764705882 125.24000000000001 L 324.73529411765 129.28 L 351.35294117647 138.37 L 377.97058823529 143.42000000000002 L 404.58823529412 145.44 L 431.20588235294 148.47 L 457.82352941176 152.51 L 484.44117647059 156.55 L 511.05882352941 161.6 L 537.67647058823 166.65" class="highcharts-graph" data-z-index="1" stroke="#E7CEE2" stroke-width="2" stroke-linejoin="round" stroke-linecap="round"></path></g><g class="highcharts-markers highcharts-series-3 highcharts-line-series" data-z-index="0.1" opacity="1" transform="translate(47,139) scale(1 1)" clip-path="none"></g><g class="highcharts-series highcharts-series-4 highcharts-line-series" data-z-index="0.1" opacity="1" transform="translate(47,139) scale(1 1)" clip-path="url(#highcharts-9yua5h6-155-)"><path fill="none" d="M 5.3235294117659 58.58000000000001 L 31.941176470589 54.54000000000002 L 58.558823529413 50.5 L 85.176470588236 39.389999999999986 L 111.79411764706 30.30000000000001 L 138.41176470588 58.58000000000001 L 165.02941176471 63.630000000000024 L 191.64705882353 64.64000000000001 L 218.26470588235 68.68 L 244.88235294118 74.74000000000001 L 271.5 78.78000000000002 L 298.11764705882 80.80000000000001 L 324.73529411765 80.80000000000001 L 351.35294117647 82.82 L 377.97058823529 84.84 L 404.58823529412 83.83000000000001 L 431.20588235294 83.83000000000001 L 457.82352941176 83.83000000000001 L 484.44117647059 84.84 L 511.05882352941 86.86 L 537.67647058823 89.89" class="highcharts-graph" data-z-index="1" stroke="#fabd24" stroke-width="2" stroke-linejoin="round" stroke-linecap="round"></path></g><g class="highcharts-markers highcharts-series-4 highcharts-line-series" data-z-index="0.1" opacity="1" transform="translate(47,139) scale(1 1)" clip-path="none"></g><g class="highcharts-series highcharts-series-5 highcharts-line-series" data-z-index="0.1" opacity="1" transform="translate(47,139) scale(1 1)" clip-path="url(#highcharts-9yua5h6-155-)"><path fill="none" d="M 5.3235294117659 68.68 L 31.941176470589 62.620000000000005 L 58.558823529413 61.610000000000014 L 85.176470588236 52.52000000000001 L 111.79411764706 39.389999999999986 L 138.41176470588 63.630000000000024 L 165.02941176471 64.64000000000001 L 191.64705882353 68.68 L 218.26470588235 71.71000000000001 L 244.88235294118 78.78000000000002 L 271.5 82.82 L 298.11764705882 87.86999999999999 L 324.73529411765 94.94000000000001 L 351.35294117647 99.99000000000001 L 377.97058823529 106.05 L 404.58823529412 106.05 L 431.20588235294 108.07 L 457.82352941176 106.05 L 484.44117647059 113.11999999999999 L 511.05882352941 116.15 L 537.67647058823 119.18" class="highcharts-graph" data-z-index="1" stroke="#b9cfd7" stroke-width="2" stroke-linejoin="round" stroke-linecap="round"></path></g><g class="highcharts-markers highcharts-series-5 highcharts-line-series" data-z-index="0.1" opacity="1" transform="translate(47,139) scale(1 1)" clip-path="none"></g></g><text x="10" text-anchor="start" class="highcharts-caption" data-z-index="4" style="color:#666666;fill:#666666;" y="375"></text><g class="highcharts-legend" data-z-index="7" transform="translate(39,56)"><rect fill="none" class="highcharts-legend-box" rx="0" ry="0" x="0" y="0" width="358" height="71" visibility="visible"></rect><g data-z-index="1"><g><g class="highcharts-legend-item highcharts-line-series highcharts-color-undefined highcharts-series-0" data-z-index="1" transform="translate(8,3)"><path fill="none" d="M 0 11 L 16 11" class="highcharts-graph" stroke="#b00000" stroke-width="2"></path><text x="21" style="color:#333333;cursor:pointer;font-size:12px;font-weight:normal;fill:#333333;" text-anchor="start" data-z-index="2" y="15"><tspan>Schweiz</tspan></text></g><g class="highcharts-legend-item highcharts-line-series highcharts-color-undefined highcharts-series-1" data-z-index="1" transform="translate(189,3)"><path fill="none" d="M 0 11 L 16 11" class="highcharts-graph" stroke="#007a2f" stroke-width="2"></path><text x="21" y="15" style="color:#333333;cursor:pointer;font-size:12px;font-weight:normal;fill:#333333;" text-anchor="start" data-z-index="2"><tspan>Italien</tspan></text></g><g class="highcharts-legend-item highcharts-line-series highcharts-color-undefined highcharts-series-2" data-z-index="1" transform="translate(8,23)"><path fill="none" d="M 0 11 L 16 11" class="highcharts-graph" stroke="#662673" stroke-width="2"></path><text x="21" y="15" style="color:#333333;cursor:pointer;font-size:12px;font-weight:normal;fill:#333333;" text-anchor="start" data-z-index="2"><tspan>Portugal</tspan></text></g><g class="highcharts-legend-item highcharts-line-series highcharts-color-undefined highcharts-series-3" data-z-index="1" transform="translate(189,23)"><path fill="none" d="M 0 11 L 16 11" class="highcharts-graph" stroke="#E7CEE2" stroke-width="2"></path><text x="21" y="15" style="color:#333333;cursor:pointer;font-size:12px;font-weight:normal;fill:#333333;" text-anchor="start" data-z-index="2"><tspan>Spanien</tspan></text></g><g class="highcharts-legend-item highcharts-line-series highcharts-color-undefined highcharts-series-4" data-z-index="1" transform="translate(8,43)"><path fill="none" d="M 0 11 L 16 11" class="highcharts-graph" stroke="#fabd24" stroke-width="2"></path><text x="21" y="15" style="color:#333333;cursor:pointer;font-size:12px;font-weight:normal;fill:#333333;" text-anchor="start" data-z-index="2"><tspan>Türkei</tspan></text></g><g class="highcharts-legend-item highcharts-line-series highcharts-color-undefined highcharts-series-5" data-z-index="1" transform="translate(189,43)"><path fill="none" d="M 0 11 L 16 11" class="highcharts-graph" stroke="#b9cfd7" stroke-width="2"></path><text x="21" y="15" style="color:#333333;cursor:pointer;font-size:12px;font-weight:normal;fill:#333333;" text-anchor="start" data-z-index="2"><tspan>Ehemaliges Jugoslawien</tspan></text></g></g></g></g><g class="highcharts-axis-labels highcharts-xaxis-labels" data-z-index="7"><text x="52.323529411766" style="color:#000000;cursor:default;font-size:11px;fill:#000000;" text-anchor="middle" transform="translate(0,0)" y="360" opacity="1">2004</text><text x="105.55882352941" style="color:#000000;cursor:default;font-size:11px;fill:#000000;" text-anchor="middle" transform="translate(0,0)" y="360" opacity="1">2006</text><text x="158.79411764706" style="color:#000000;cursor:default;font-size:11px;fill:#000000;" text-anchor="middle" transform="translate(0,0)" y="360" opacity="1">2008</text><text x="212.02941176471" style="color:#000000;cursor:default;font-size:11px;fill:#000000;" text-anchor="middle" transform="translate(0,0)" y="360" opacity="1">2010</text><text x="265.26470588235" style="color:#000000;cursor:default;font-size:11px;fill:#000000;" text-anchor="middle" transform="translate(0,0)" y="360" opacity="1">2012</text><text x="318.5" style="color:#000000;cursor:default;font-size:11px;fill:#000000;" text-anchor="middle" transform="translate(0,0)" y="360" opacity="1">2014</text><text x="371.73529411765" style="color:#000000;cursor:default;font-size:11px;fill:#000000;" text-anchor="middle" transform="translate(0,0)" y="360" opacity="1">2016</text><text x="424.97058823529" style="color:#000000;cursor:default;font-size:11px;fill:#000000;" text-anchor="middle" transform="translate(0,0)" y="360" opacity="1">2018</text><text x="478.20588235294" style="color:#000000;cursor:default;font-size:11px;fill:#000000;" text-anchor="middle" transform="translate(0,0)" y="360" opacity="1">2020</text><text x="531.44117647059" style="color:#000000;cursor:default;font-size:11px;fill:#000000;" text-anchor="middle" transform="translate(0,0)" y="360" opacity="1">2022</text><text x="578" style="color:#000000;cursor:default;font-size:11px;fill:#000000;" text-anchor="middle" transform="translate(0,0)" y="360" opacity="1">2024</text></g><g class="highcharts-axis-labels highcharts-yaxis-labels" data-z-index="7"><text x="32" style="color:#000000;cursor:default;font-size:11px;fill:#000000;" text-anchor="end" transform="translate(0,0)" y="345" opacity="1">0%</text><text x="32" style="color:#000000;cursor:default;font-size:11px;fill:#000000;" text-anchor="end" transform="translate(0,0)" y="295" opacity="1">5%</text><text x="32" style="color:#000000;cursor:default;font-size:11px;fill:#000000;" text-anchor="end" transform="translate(0,0)" y="244" opacity="1">10%</text><text x="32" style="color:#000000;cursor:default;font-size:11px;fill:#000000;" text-anchor="end" transform="translate(0,0)" y="194" opacity="1">15%</text><text x="32" style="color:#000000;cursor:default;font-size:11px;fill:#000000;" text-anchor="end" transform="translate(0,0)" y="143" opacity="1">20%</text></g></svg>