<?xml version="1.0" standalone="no"?>
<!DOCTYPE svg PUBLIC "-//W3C//DTD SVG 1.1//EN" "http://www.w3.org/Graphics/SVG/1.1/DTD/svg11.dtd">
<svg xmlns:xlink="http://www.w3.org/1999/xlink" version="1.1" class="highcharts-root" style="font-family:arial;font-size:12px;" xmlns="http://www.w3.org/2000/svg" viewBox="0 0 485 415">
  <desc>
    Created with Highstock 5.0.14
  </desc>
  <defs>
    <clipPath>
      <rect x="0" y="0" width="309" height="254" fill="none"/>
    </clipPath>
    <clipPath id="a">
      <rect x="0" y="0" width="309" height="254" fill="none"/>
    </clipPath>
  </defs>
  <rect fill="#fbfbfb" class="highcharts-background" x="0" y="0" width="485" height="415" rx="0" ry="0"/>
  <rect fill="none" class="highcharts-plot-background" x="130" y="55" width="254" height="309"/>
  <g class="highcharts-pane-group"/>
  <g class="highcharts-grid highcharts-xaxis-grid ">
    <path fill="none" class="highcharts-grid-line" d="M 130 99.5 L 384 99.5" opacity="1"/>
    <path fill="none" class="highcharts-grid-line" d="M 130 143.5 L 384 143.5" opacity="1"/>
    <path fill="none" class="highcharts-grid-line" d="M 130 187.5 L 384 187.5" opacity="1"/>
    <path fill="none" class="highcharts-grid-line" d="M 130 232.5 L 384 232.5" opacity="1"/>
    <path fill="none" class="highcharts-grid-line" d="M 130 276.5 L 384 276.5" opacity="1"/>
    <path fill="none" class="highcharts-grid-line" d="M 130 320.5 L 384 320.5" opacity="1"/>
    <path fill="none" class="highcharts-grid-line" d="M 130 364.5 L 384 364.5" opacity="1"/>
    <path fill="none" class="highcharts-grid-line" d="M 130 55.5 L 384 55.5" opacity="1"/>
  </g>
  <g class="highcharts-grid highcharts-yaxis-grid ">
    <path fill="none" stroke="#B9CFD7" stroke-width="0.5" class="highcharts-grid-line" d="M 129.75 55 L 129.75 364" opacity="1"/>
    <path fill="none" stroke="#B9CFD7" stroke-width="0.5" class="highcharts-grid-line" d="M 193.75 55 L 193.75 364" opacity="1"/>
    <path fill="none" stroke="#B9CFD7" stroke-width="0.5" class="highcharts-grid-line" d="M 256.75 55 L 256.75 364" opacity="1"/>
    <path fill="none" stroke="#B9CFD7" stroke-width="0.5" class="highcharts-grid-line" d="M 320.75 55 L 320.75 364" opacity="1"/>
    <path fill="none" stroke="#B9CFD7" stroke-width="0.5" class="highcharts-grid-line" d="M 384.25 55 L 384.25 364" opacity="1"/>
  </g>
  <rect fill="none" class="highcharts-plot-border" x="130" y="55" width="254" height="309"/>
  <g class="highcharts-axis highcharts-xaxis ">
    <path fill="none" class="highcharts-axis-line" stroke="#B9CFD7" stroke-width="0.5" d="M 129.75 55 L 129.75 364"/>
  </g>
  <g class="highcharts-axis highcharts-yaxis ">
    <path fill="none" class="highcharts-axis-line" d="M 130 364 L 384 364"/>
  </g>
  <g class="highcharts-series-group">
    <g class="highcharts-series highcharts-series-0 highcharts-column-series highcharts-color-undefined " transform="translate(384,364) rotate(90) scale(-1,1) scale(1 1)" clip-path="url(#a)">
      <rect x="269" y="1" width="36" height="0" fill="#b00000" class="highcharts-point"/>
      <rect x="225" y="0" width="36" height="3" fill="#b00000" class="highcharts-point"/>
      <rect x="181" y="0" width="36" height="2" fill="#b00000" class="highcharts-point"/>
      <rect x="137" y="0" width="36" height="2" fill="#b00000" class="highcharts-point"/>
      <rect x="93" y="0" width="36" height="3" fill="#b00000" class="highcharts-point"/>
      <rect x="49" y="0" width="36" height="3" fill="#b00000" class="highcharts-point"/>
      <rect x="4" y="0" width="36" height="3" fill="#b00000" class="highcharts-point"/>
    </g>
    <g class="highcharts-markers highcharts-series-0 highcharts-column-series highcharts-color-undefined " transform="translate(384,364) rotate(90) scale(-1,1) scale(1 1)" clip-path="none"/>
    <g class="highcharts-series highcharts-series-1 highcharts-column-series highcharts-color-undefined " transform="translate(384,364) rotate(90) scale(-1,1) scale(1 1)" clip-path="url(#a)">
      <rect x="269" y="0" width="36" height="4" fill="#dc440e" class="highcharts-point"/>
      <rect x="225" y="3" width="36" height="1" fill="#dc440e" class="highcharts-point"/>
      <rect x="181" y="2" width="36" height="0" fill="#dc440e" class="highcharts-point"/>
      <rect x="137" y="2" width="36" height="3" fill="#dc440e" class="highcharts-point"/>
      <rect x="93" y="3" width="36" height="2" fill="#dc440e" class="highcharts-point"/>
      <rect x="49" y="3" width="36" height="2" fill="#dc440e" class="highcharts-point"/>
      <rect x="4" y="3" width="36" height="1" fill="#dc440e" class="highcharts-point"/>
    </g>
    <g class="highcharts-markers highcharts-series-1 highcharts-column-series highcharts-color-undefined " transform="translate(384,364) rotate(90) scale(-1,1) scale(1 1)" clip-path="none"/>
    <g class="highcharts-series highcharts-series-2 highcharts-column-series highcharts-color-undefined " transform="translate(384,364) rotate(90) scale(-1,1) scale(1 1)" clip-path="url(#a)">
      <rect x="269" y="4" width="36" height="2" fill="#ff8028" class="highcharts-point"/>
      <rect x="225" y="4" width="36" height="5" fill="#ff8028" class="highcharts-point"/>
      <rect x="181" y="2" width="36" height="2" fill="#ff8028" class="highcharts-point"/>
      <rect x="137" y="5" width="36" height="4" fill="#ff8028" class="highcharts-point"/>
      <rect x="93" y="5" width="36" height="4" fill="#ff8028" class="highcharts-point"/>
      <rect x="49" y="5" width="36" height="2" fill="#ff8028" class="highcharts-point"/>
      <rect x="4" y="4" width="36" height="2" fill="#ff8028" class="highcharts-point"/>
    </g>
    <g class="highcharts-markers highcharts-series-2 highcharts-column-series highcharts-color-undefined " transform="translate(384,364) rotate(90) scale(-1,1) scale(1 1)" clip-path="none"/>
    <g class="highcharts-series highcharts-series-3 highcharts-column-series highcharts-color-undefined " transform="translate(384,364) rotate(90) scale(-1,1) scale(1 1)" clip-path="url(#a)">
      <rect x="269" y="6" width="36" height="4" fill="#ffbb58" class="highcharts-point"/>
      <rect x="225" y="9" width="36" height="6" fill="#ffbb58" class="highcharts-point"/>
      <rect x="181" y="4" width="36" height="5" fill="#ffbb58" class="highcharts-point"/>
      <rect x="137" y="9" width="36" height="4" fill="#ffbb58" class="highcharts-point"/>
      <rect x="93" y="9" width="36" height="9" fill="#ffbb58" class="highcharts-point"/>
      <rect x="49" y="7" width="36" height="4" fill="#ffbb58" class="highcharts-point"/>
      <rect x="4" y="6" width="36" height="7" fill="#ffbb58" class="highcharts-point"/>
    </g>
    <g class="highcharts-markers highcharts-series-3 highcharts-column-series highcharts-color-undefined " transform="translate(384,364) rotate(90) scale(-1,1) scale(1 1)" clip-path="none"/>
    <g class="highcharts-series highcharts-series-4 highcharts-column-series highcharts-color-undefined " transform="translate(384,364) rotate(90) scale(-1,1) scale(1 1)" clip-path="url(#a)">
      <rect x="269" y="10" width="36" height="14" fill="#71a3b5" class="highcharts-point"/>
      <rect x="225" y="15" width="36" height="18" fill="#71a3b5" class="highcharts-point"/>
      <rect x="181" y="9" width="36" height="10" fill="#71a3b5" class="highcharts-point"/>
      <rect x="137" y="13" width="36" height="22" fill="#71a3b5" class="highcharts-point"/>
      <rect x="93" y="18" width="36" height="18" fill="#71a3b5" class="highcharts-point"/>
      <rect x="49" y="11" width="36" height="17" fill="#71a3b5" class="highcharts-point"/>
      <rect x="4" y="13" width="36" height="18" fill="#71a3b5" class="highcharts-point"/>
    </g>
    <g class="highcharts-markers highcharts-series-4 highcharts-column-series highcharts-color-undefined " transform="translate(384,364) rotate(90) scale(-1,1) scale(1 1)" clip-path="none"/>
    <g class="highcharts-series highcharts-series-5 highcharts-column-series highcharts-color-undefined " transform="translate(384,364) rotate(90) scale(-1,1) scale(1 1)" clip-path="url(#a)">
      <rect x="269" y="24" width="36" height="20" fill="#b9cfd7" class="highcharts-point"/>
      <rect x="225" y="33" width="36" height="21" fill="#b9cfd7" class="highcharts-point"/>
      <rect x="181" y="19" width="36" height="16" fill="#b9cfd7" class="highcharts-point"/>
      <rect x="137" y="35" width="36" height="25" fill="#b9cfd7" class="highcharts-point"/>
      <rect x="93" y="36" width="36" height="19" fill="#b9cfd7" class="highcharts-point"/>
      <rect x="49" y="28" width="36" height="20" fill="#b9cfd7" class="highcharts-point"/>
      <rect x="4" y="31" width="36" height="22" fill="#b9cfd7" class="highcharts-point"/>
    </g>
    <g class="highcharts-markers highcharts-series-5 highcharts-column-series highcharts-color-undefined " transform="translate(384,364) rotate(90) scale(-1,1) scale(1 1)" clip-path="none"/>
    <g class="highcharts-series highcharts-series-6 highcharts-column-series highcharts-color-undefined " transform="translate(384,364) rotate(90) scale(-1,1) scale(1 1)" clip-path="url(#a)">
      <rect x="269" y="44" width="36" height="36" fill="#d7e9d2" class="highcharts-point"/>
      <rect x="225" y="54" width="36" height="50" fill="#d7e9d2" class="highcharts-point"/>
      <rect x="181" y="35" width="36" height="33" fill="#d7e9d2" class="highcharts-point"/>
      <rect x="137" y="60" width="36" height="38" fill="#d7e9d2" class="highcharts-point"/>
      <rect x="93" y="55" width="36" height="38" fill="#d7e9d2" class="highcharts-point"/>
      <rect x="49" y="48" width="36" height="44" fill="#d7e9d2" class="highcharts-point"/>
      <rect x="4" y="53" width="36" height="43" fill="#d7e9d2" class="highcharts-point"/>
    </g>
    <g class="highcharts-markers highcharts-series-6 highcharts-column-series highcharts-color-undefined " transform="translate(384,364) rotate(90) scale(-1,1) scale(1 1)" clip-path="none"/>
    <g class="highcharts-series highcharts-series-7 highcharts-column-series highcharts-color-undefined " transform="translate(384,364) rotate(90) scale(-1,1) scale(1 1)" clip-path="url(#a)">
      <rect x="269" y="80" width="36" height="65" fill="#73ba7c" class="highcharts-point"/>
      <rect x="225" y="104" width="36" height="74" fill="#73ba7c" class="highcharts-point"/>
      <rect x="181" y="68" width="36" height="66" fill="#73ba7c" class="highcharts-point"/>
      <rect x="137" y="98" width="36" height="67" fill="#73ba7c" class="highcharts-point"/>
      <rect x="93" y="93" width="36" height="60" fill="#73ba7c" class="highcharts-point"/>
      <rect x="49" y="92" width="36" height="71" fill="#73ba7c" class="highcharts-point"/>
      <rect x="4" y="96" width="36" height="69" fill="#73ba7c" class="highcharts-point"/>
    </g>
    <g class="highcharts-markers highcharts-series-7 highcharts-column-series highcharts-color-undefined " transform="translate(384,364) rotate(90) scale(-1,1) scale(1 1)" clip-path="none"/>
    <g class="highcharts-series highcharts-series-8 highcharts-column-series highcharts-color-undefined " transform="translate(384,364) rotate(90) scale(-1,1) scale(1 1)" clip-path="url(#a)">
      <rect x="269" y="145" width="36" height="40" fill="#44ab2b" class="highcharts-point"/>
      <rect x="225" y="178" width="36" height="35" fill="#44ab2b" class="highcharts-point"/>
      <rect x="181" y="134" width="36" height="45" fill="#44ab2b" class="highcharts-point"/>
      <rect x="137" y="165" width="36" height="35" fill="#44ab2b" class="highcharts-point"/>
      <rect x="93" y="153" width="36" height="38" fill="#44ab2b" class="highcharts-point"/>
      <rect x="49" y="163" width="36" height="39" fill="#44ab2b" class="highcharts-point"/>
      <rect x="4" y="165" width="36" height="38" fill="#44ab2b" class="highcharts-point"/>
    </g>
    <g class="highcharts-markers highcharts-series-8 highcharts-column-series highcharts-color-undefined " transform="translate(384,364) rotate(90) scale(-1,1) scale(1 1)" clip-path="none"/>
    <g class="highcharts-series highcharts-series-9 highcharts-column-series highcharts-color-undefined " transform="translate(384,364) rotate(90) scale(-1,1) scale(1 1)" clip-path="url(#a)">
      <rect x="269" y="185" width="36" height="70" fill="#007a2f" class="highcharts-point"/>
      <rect x="225" y="213" width="36" height="42" fill="#007a2f" class="highcharts-point"/>
      <rect x="181" y="179" width="36" height="76" fill="#007a2f" class="highcharts-point"/>
      <rect x="137" y="200" width="36" height="55" fill="#007a2f" class="highcharts-point"/>
      <rect x="93" y="191" width="36" height="64" fill="#007a2f" class="highcharts-point"/>
      <rect x="49" y="202" width="36" height="53" fill="#007a2f" class="highcharts-point"/>
      <rect x="4" y="203" width="36" height="52" fill="#007a2f" class="highcharts-point"/>
    </g>
    <g class="highcharts-markers highcharts-series-9 highcharts-column-series highcharts-color-undefined " transform="translate(384,364) rotate(90) scale(-1,1) scale(1 1)" clip-path="none"/>
  </g>
  <text x="10" text-anchor="start" class="highcharts-title" style="color:#000000;font-size:14px;font-weight:bold;fill:#000000;" y="21">
    <tspan>Beurteilung der Kantonspolizei</tspan>
  </text>
  <text x="10" text-anchor="start" class="highcharts-subtitle" style="color:#000000;font-size:12px;fill:#000000;" y="40">
    <tspan>Stand: 2015</tspan>
  </text>
  <g class="highcharts-legend" transform="translate(396,97)">
    <rect fill="none" class="highcharts-legend-box" rx="0" ry="0" x="0" y="0" width="79" height="201" visibility="visible"/>
    <g>
      <g>
        <g class="highcharts-legend-item highcharts-column-series highcharts-color-undefined highcharts-series-9" transform="translate(8,3)">
          <text x="21" style="color:#333333;font-size:12px;font-weight:normal;cursor:pointer;fill:#333333;" text-anchor="start" y="15">
            <tspan>Note 10</tspan>
          </text>
          <rect x="2" y="4" width="12" height="12" fill="#007a2f" class="highcharts-point"/>
        </g>
        <g class="highcharts-legend-item highcharts-column-series highcharts-color-undefined highcharts-series-8" transform="translate(8,22)">
          <text x="21" y="15" style="color:#333333;font-size:12px;font-weight:normal;cursor:pointer;fill:#333333;" text-anchor="start">
            <tspan>Note 9</tspan>
          </text>
          <rect x="2" y="4" width="12" height="12" fill="#44ab2b" class="highcharts-point"/>
        </g>
        <g class="highcharts-legend-item highcharts-column-series highcharts-color-undefined highcharts-series-7" transform="translate(8,41)">
          <text x="21" y="15" style="color:#333333;font-size:12px;font-weight:normal;cursor:pointer;fill:#333333;" text-anchor="start">
            <tspan>Note 8</tspan>
          </text>
          <rect x="2" y="4" width="12" height="12" fill="#73ba7c" class="highcharts-point"/>
        </g>
        <g class="highcharts-legend-item highcharts-column-series highcharts-color-undefined highcharts-series-6" transform="translate(8,60)">
          <text x="21" y="15" style="color:#333333;font-size:12px;font-weight:normal;cursor:pointer;fill:#333333;" text-anchor="start">
            <tspan>Note 7</tspan>
          </text>
          <rect x="2" y="4" width="12" height="12" fill="#d7e9d2" class="highcharts-point"/>
        </g>
        <g class="highcharts-legend-item highcharts-column-series highcharts-color-undefined highcharts-series-5" transform="translate(8,79)">
          <text x="21" y="15" style="color:#333333;font-size:12px;font-weight:normal;cursor:pointer;fill:#333333;" text-anchor="start">
            <tspan>Note 6</tspan>
          </text>
          <rect x="2" y="4" width="12" height="12" fill="#b9cfd7" class="highcharts-point"/>
        </g>
        <g class="highcharts-legend-item highcharts-column-series highcharts-color-undefined highcharts-series-4" transform="translate(8,98)">
          <text x="21" y="15" style="color:#333333;font-size:12px;font-weight:normal;cursor:pointer;fill:#333333;" text-anchor="start">
            <tspan>Note 5</tspan>
          </text>
          <rect x="2" y="4" width="12" height="12" fill="#71a3b5" class="highcharts-point"/>
        </g>
        <g class="highcharts-legend-item highcharts-column-series highcharts-color-undefined highcharts-series-3" transform="translate(8,117)">
          <text x="21" y="15" style="color:#333333;font-size:12px;font-weight:normal;cursor:pointer;fill:#333333;" text-anchor="start">
            <tspan>Note 4</tspan>
          </text>
          <rect x="2" y="4" width="12" height="12" fill="#ffbb58" class="highcharts-point"/>
        </g>
        <g class="highcharts-legend-item highcharts-column-series highcharts-color-undefined highcharts-series-2" transform="translate(8,136)">
          <text x="21" y="15" style="color:#333333;font-size:12px;font-weight:normal;cursor:pointer;fill:#333333;" text-anchor="start">
            <tspan>Note 3</tspan>
          </text>
          <rect x="2" y="4" width="12" height="12" fill="#ff8028" class="highcharts-point"/>
        </g>
        <g class="highcharts-legend-item highcharts-column-series highcharts-color-undefined highcharts-series-1" transform="translate(8,155)">
          <text x="21" y="15" style="color:#333333;font-size:12px;font-weight:normal;cursor:pointer;fill:#333333;" text-anchor="start">
            <tspan>Note 2</tspan>
          </text>
          <rect x="2" y="4" width="12" height="12" fill="#dc440e" class="highcharts-point"/>
        </g>
        <g class="highcharts-legend-item highcharts-column-series highcharts-color-undefined highcharts-series-0" transform="translate(8,174)">
          <text x="21" y="15" style="color:#333333;font-size:12px;font-weight:normal;cursor:pointer;fill:#333333;" text-anchor="start">
            <tspan>Note 1</tspan>
          </text>
          <rect x="2" y="4" width="12" height="12" fill="#b00000" class="highcharts-point"/>
        </g>
      </g>
    </g>
  </g>
  <g class="highcharts-axis-labels highcharts-xaxis-labels ">
    <text x="12" style="color:#000000;cursor:default;font-size:11px;fill:#000000;" text-anchor="start" transform="translate(0,0)" y="75" opacity="1">
      <tspan>Freundlich</tspan><tspan x="12" dy="14">(N=1018)</tspan>
    </text>
    <text x="12" style="color:#000000;cursor:default;font-size:11px;fill:#000000;" text-anchor="start" transform="translate(0,0)" y="119" opacity="1">
      <tspan>Handelt angemessen</tspan><tspan x="12" dy="14">(N=971)</tspan>
    </text>
    <text x="12" style="color:#000000;cursor:default;font-size:11px;fill:#000000;" text-anchor="start" transform="translate(0,0)" y="163" opacity="1">
      <tspan>Hilfsbereit</tspan><tspan x="12" dy="14">(N=1013)</tspan>
    </text>
    <text x="12" style="color:#000000;cursor:default;font-size:11px;fill:#000000;" text-anchor="start" transform="translate(0,0)" y="207" opacity="1">
      <tspan>Sympatisch</tspan><tspan x="12" dy="14">(N=1005)</tspan>
    </text>
    <text x="12" style="color:#000000;cursor:default;font-size:11px;fill:#000000;" text-anchor="start" transform="translate(0,0)" y="251" opacity="1">
      <tspan>Respektvoll</tspan><tspan x="12" dy="14">(N=1007)</tspan>
    </text>
    <text x="12" style="color:#000000;cursor:default;font-size:11px;fill:#000000;" text-anchor="start" transform="translate(0,0)" y="295" opacity="1">
      <tspan>Nimmt Anliegen ernst</tspan><tspan x="12" dy="14">(N=990)</tspan>
    </text>
    <text x="12" style="color:#000000;cursor:default;font-size:11px;fill:#000000;" text-anchor="start" transform="translate(0,0)" y="339" opacity="1">
      <tspan>Gerecht</tspan><tspan x="12" dy="14">(N=941)</tspan>
    </text>
  </g>
  <g class="highcharts-axis-labels highcharts-yaxis-labels ">
    <text x="130" style="color:#000000;cursor:default;font-size:11px;fill:#000000;" text-anchor="middle" transform="translate(0,0)" y="383" opacity="1">
      0%
    </text>
    <text x="193.5" style="color:#000000;cursor:default;font-size:11px;fill:#000000;" text-anchor="middle" transform="translate(0,0)" y="383" opacity="1">
      25%
    </text>
    <text x="257" style="color:#000000;cursor:default;font-size:11px;fill:#000000;" text-anchor="middle" transform="translate(0,0)" y="383" opacity="1">
      50%
    </text>
    <text x="320.5" style="color:#000000;cursor:default;font-size:11px;fill:#000000;" text-anchor="middle" transform="translate(0,0)" y="383" opacity="1">
      75%
    </text>
    <text x="384" style="color:#000000;cursor:default;font-size:11px;fill:#000000;" text-anchor="middle" transform="translate(0,0)" y="383" opacity="1">
      100%
    </text>
  </g>
  <text x="10" class="highcharts-credits" text-anchor="start" style="cursor:default;color:#000000;font-size:10px;fill:#000000;" y="400">
    <tspan>Quelle: Justiz- und Sicherheitsdepartement Basel-Stadt, Kundenumfrage zur Kantonspolizei</tspan>
  </text>
</svg>
