<?xml version="1.0" standalone="no"?><!DOCTYPE svg PUBLIC "-//W3C//DTD SVG 1.1//EN" "http://www.w3.org/Graphics/SVG/1.1/DTD/svg11.dtd"><svg xmlns:xlink="http://www.w3.org/1999/xlink" version="1.1" class="highcharts-root" style="font-family:Inter,Helvetica Neue,Helvetica,Arial,sans-serif;font-size:12px;" xmlns="http://www.w3.org/2000/svg" width="600" height="428"><desc>Created with Highcharts 8.2.2</desc><defs><clipPath id="highcharts-adkpvq0-47-"><rect x="0" y="0" width="547" height="192" fill="none"></rect></clipPath><clipPath id="highcharts-adkpvq0-58-"><rect x="0" y="0" width="547" height="192" fill="none"></rect></clipPath><clipPath id="highcharts-adkpvq0-89-"><rect x="43" y="159" width="547" height="192" fill="none"></rect></clipPath></defs><rect fill="#ffffff" class="highcharts-background" x="0" y="0" width="600" height="428" rx="0" ry="0"></rect><rect fill="none" class="highcharts-plot-background" x="43" y="159" width="547" height="192"></rect><g class="highcharts-pane-group" data-z-index="0"></g><g class="highcharts-grid highcharts-xaxis-grid" data-z-index="1"><path fill="none" data-z-index="1" class="highcharts-grid-line" d="M 47.5 159 L 47.5 351" opacity="1"></path><path fill="none" data-z-index="1" class="highcharts-grid-line" d="M 107.5 159 L 107.5 351" opacity="1"></path><path fill="none" data-z-index="1" class="highcharts-grid-line" d="M 167.5 159 L 167.5 351" opacity="1"></path><path fill="none" data-z-index="1" class="highcharts-grid-line" d="M 226.5 159 L 226.5 351" opacity="1"></path><path fill="none" data-z-index="1" class="highcharts-grid-line" d="M 286.5 159 L 286.5 351" opacity="1"></path><path fill="none" data-z-index="1" class="highcharts-grid-line" d="M 345.5 159 L 345.5 351" opacity="1"></path><path fill="none" data-z-index="1" class="highcharts-grid-line" d="M 405.5 159 L 405.5 351" opacity="1"></path><path fill="none" data-z-index="1" class="highcharts-grid-line" d="M 464.5 159 L 464.5 351" opacity="1"></path><path fill="none" data-z-index="1" class="highcharts-grid-line" d="M 524.5 159 L 524.5 351" opacity="1"></path><path fill="none" data-z-index="1" class="highcharts-grid-line" d="M 584.5 159 L 584.5 351" opacity="1"></path></g><g class="highcharts-grid highcharts-yaxis-grid" data-z-index="1"><path fill="none" stroke="#B9CFD7" stroke-width="0.5" data-z-index="1" class="highcharts-grid-line" d="M 43 351.25 L 590 351.25" opacity="1"></path><path fill="none" stroke="#B9CFD7" stroke-width="0.5" data-z-index="1" class="highcharts-grid-line" d="M 43 287.25 L 590 287.25" opacity="1"></path><path fill="none" stroke="#B9CFD7" stroke-width="0.5" data-z-index="1" class="highcharts-grid-line" d="M 43 223.25 L 590 223.25" opacity="1"></path><path fill="none" stroke="#B9CFD7" stroke-width="0.5" data-z-index="1" class="highcharts-grid-line" d="M 43 158.75 L 590 158.75" opacity="1"></path></g><rect fill="none" class="highcharts-plot-border" data-z-index="1" x="43" y="159" width="547" height="192"></rect><g class="highcharts-axis highcharts-xaxis" data-z-index="2"><path fill="none" class="highcharts-axis-line" stroke="#B9CFD7" stroke-width="0.5" data-z-index="7" d="M 43 351.25 L 590 351.25"></path></g><g class="highcharts-axis highcharts-yaxis" data-z-index="2"><path fill="none" class="highcharts-axis-line" data-z-index="7" d="M 43 159 L 43 351"></path></g><g class="highcharts-series-group" data-z-index="3"><g class="highcharts-series highcharts-series-0 highcharts-line-series" data-z-index="0.1" opacity="1" transform="translate(43,159) scale(1 1)" clip-path="url(#highcharts-adkpvq0-58-)"><path fill="none" d="M 5.3627450980344 64 L 64.948801742916 64.12799999999999 L 124.5348583878 60.54399999999998 L 184.12091503268 55.80799999999999 L 243.70697167756 51.96799999999999 L 303.29302832244 48 L 362.87908496732 41.343999999999994 L 422.4651416122 38.400000000000006 L 482.05119825708 32.89599999999999 L 541.63725490197 33.66399999999999" class="highcharts-graph" data-z-index="1" stroke="#FFBB58" stroke-width="2" stroke-linejoin="round" stroke-linecap="round"></path></g><g class="highcharts-markers highcharts-series-0 highcharts-line-series" data-z-index="0.1" opacity="1" transform="translate(43,159) scale(1 1)" clip-path="none"></g><g class="highcharts-series highcharts-series-1 highcharts-line-series" data-z-index="0.1" opacity="1" transform="translate(43,159) scale(1 1)" clip-path="url(#highcharts-adkpvq0-58-)"><path fill="none" d="M 5.3627450980344 64 L 64.948801742916 68.352 L 124.5348583878 68.86399999999999 L 184.12091503268 70.016 L 243.70697167756 62.208 L 303.29302832244 60.928 L 362.87908496732 63.616000000000014 L 422.4651416122 66.94399999999999 L 482.05119825708 58.623999999999995 L 541.63725490197 54.78399999999999" class="highcharts-graph" data-z-index="1" stroke="#FF8028" stroke-width="2" stroke-linejoin="round" stroke-linecap="round"></path></g><g class="highcharts-markers highcharts-series-1 highcharts-line-series" data-z-index="0.1" opacity="1" transform="translate(43,159) scale(1 1)" clip-path="none"></g><g class="highcharts-series highcharts-series-2 highcharts-line-series" data-z-index="0.1" opacity="1" transform="translate(43,159) scale(1 1)" clip-path="url(#highcharts-adkpvq0-58-)"><path fill="none" d="M 5.3627450980344 64 L 64.948801742916 69.376 L 124.5348583878 75.008 L 184.12091503268 72.704 L 243.70697167756 72.448 L 303.29302832244 65.92 L 362.87908496732 79.872 L 422.4651416122 66.30399999999999 L 482.05119825708 55.55199999999999 L 541.63725490197 47.744" class="highcharts-graph" data-z-index="1" stroke="#DC440E" stroke-width="2" stroke-linejoin="round" stroke-linecap="round"></path></g><g class="highcharts-markers highcharts-series-2 highcharts-line-series" data-z-index="0.1" opacity="1" transform="translate(43,159) scale(1 1)" clip-path="none"></g><g class="highcharts-series highcharts-series-3 highcharts-line-series" data-z-index="0.1" opacity="1" transform="translate(43,159) scale(1 1)" clip-path="url(#highcharts-adkpvq0-58-)"><path fill="none" d="M 5.3627450980344 64 L 64.948801742916 79.616 L 124.5348583878 84.22399999999999 L 184.12091503268 80 L 243.70697167756 79.744 L 303.29302832244 70.78399999999999 L 362.87908496732 75.52 L 422.4651416122 64.384 L 482.05119825708 55.16799999999998 L 541.63725490197 44.928" class="highcharts-graph" data-z-index="1" stroke="#B00000" stroke-width="2" stroke-linejoin="round" stroke-linecap="round"></path></g><g class="highcharts-markers highcharts-series-3 highcharts-line-series" data-z-index="0.1" opacity="1" transform="translate(43,159) scale(1 1)" clip-path="none"></g></g><text x="10" text-anchor="start" class="highcharts-caption" data-z-index="4" style="color:#666666;fill:#666666;" y="385"></text><g class="highcharts-legend" data-z-index="7" transform="translate(35,56)"><rect fill="none" class="highcharts-legend-box" rx="0" ry="0" x="0" y="0" width="399" height="91" visibility="visible"></rect><g data-z-index="1"><g><g class="highcharts-legend-item highcharts-line-series highcharts-color-undefined highcharts-series-0" data-z-index="1" transform="translate(8,3)"><path fill="none" d="M 0 11 L 16 11" class="highcharts-graph" stroke="#FFBB58" stroke-width="2"></path><text x="21" style="color:#333333;cursor:pointer;font-size:12px;font-weight:normal;fill:#333333;" text-anchor="start" data-z-index="2" y="15"><tspan>Finanz-, Versicherungs-DL</tspan></text></g><g class="highcharts-legend-item highcharts-line-series highcharts-color-undefined highcharts-series-1" data-z-index="1" transform="translate(8,23)"><path fill="none" d="M 0 11 L 16 11" class="highcharts-graph" stroke="#FF8028" stroke-width="2"></path><text x="21" y="15" style="color:#333333;cursor:pointer;font-size:12px;font-weight:normal;fill:#333333;" text-anchor="start" data-z-index="2"><tspan>Beratung, Planung, Forschung</tspan></text></g><g class="highcharts-legend-item highcharts-line-series highcharts-color-undefined highcharts-series-2" data-z-index="1" transform="translate(8,43)"><path fill="none" d="M 0 11 L 16 11" class="highcharts-graph" stroke="#DC440E" stroke-width="2"></path><text x="21" y="15" style="color:#333333;cursor:pointer;font-size:12px;font-weight:normal;fill:#333333;" text-anchor="start" data-z-index="2"><tspan>Gebäudebet., Sicherh., sonst. wirtsch. DL (inkl. Pers.verm., -überl.)</tspan></text></g><g class="highcharts-legend-item highcharts-line-series highcharts-color-undefined highcharts-series-3" data-z-index="1" transform="translate(8,63)"><path fill="none" d="M 0 11 L 16 11" class="highcharts-graph" stroke="#B00000" stroke-width="2"></path><text x="21" y="15" style="color:#333333;cursor:pointer;font-size:12px;font-weight:normal;fill:#333333;" text-anchor="start" data-z-index="2"><tspan>Personalvermittlung, -überlassung</tspan></text></g></g></g></g><g class="highcharts-axis-labels highcharts-xaxis-labels" data-z-index="7"><text x="48.362745098034" style="color:#000000;cursor:default;font-size:11px;fill:#000000;" text-anchor="middle" transform="translate(0,0)" y="370" opacity="1">2014</text><text x="107.94880174292" style="color:#000000;cursor:default;font-size:11px;fill:#000000;" text-anchor="middle" transform="translate(0,0)" y="370" opacity="1">2015</text><text x="167.5348583878" style="color:#000000;cursor:default;font-size:11px;fill:#000000;" text-anchor="middle" transform="translate(0,0)" y="370" opacity="1">2016</text><text x="227.12091503268" style="color:#000000;cursor:default;font-size:11px;fill:#000000;" text-anchor="middle" transform="translate(0,0)" y="370" opacity="1">2017</text><text x="286.70697167756" style="color:#000000;cursor:default;font-size:11px;fill:#000000;" text-anchor="middle" transform="translate(0,0)" y="370" opacity="1">2018</text><text x="346.29302832244" style="color:#000000;cursor:default;font-size:11px;fill:#000000;" text-anchor="middle" transform="translate(0,0)" y="370" opacity="1">2019</text><text x="405.87908496732" style="color:#000000;cursor:default;font-size:11px;fill:#000000;" text-anchor="middle" transform="translate(0,0)" y="370" opacity="1">2020</text><text x="465.4651416122" style="color:#000000;cursor:default;font-size:11px;fill:#000000;" text-anchor="middle" transform="translate(0,0)" y="370" opacity="1">2021</text><text x="525.05119825708" style="color:#000000;cursor:default;font-size:11px;fill:#000000;" text-anchor="middle" transform="translate(0,0)" y="370" opacity="1">2022</text><text x="578" style="color:#000000;cursor:default;font-size:11px;fill:#000000;" text-anchor="middle" transform="translate(0,0)" y="370" opacity="1">2023</text></g><g class="highcharts-axis-labels highcharts-yaxis-labels" data-z-index="7"><text x="28" style="color:#000000;cursor:default;font-size:11px;fill:#000000;" text-anchor="end" transform="translate(0,0)" y="355" opacity="1">0</text><text x="28" style="color:#000000;cursor:default;font-size:11px;fill:#000000;" text-anchor="end" transform="translate(0,0)" y="291" opacity="1">50</text><text x="28" style="color:#000000;cursor:default;font-size:11px;fill:#000000;" text-anchor="end" transform="translate(0,0)" y="227" opacity="1">100</text><text x="28" style="color:#000000;cursor:default;font-size:11px;fill:#000000;" text-anchor="end" transform="translate(0,0)" y="163" opacity="1">150</text></g></svg>