<?xml version="1.0" standalone="no"?><!DOCTYPE svg PUBLIC "-//W3C//DTD SVG 1.1//EN" "http://www.w3.org/Graphics/SVG/1.1/DTD/svg11.dtd"><svg xmlns:xlink="http://www.w3.org/1999/xlink" version="1.1" class="highcharts-root" style="font-family:Arial;font-size:12px;" xmlns="http://www.w3.org/2000/svg" viewBox="0 0 485 415"><desc>Created with Highcharts 8.1.2</desc><defs><clipPath id="highcharts-fhiug4i-46-"><rect x="0" y="0" width="484" height="275" fill="none"></rect></clipPath><clipPath id="highcharts-fhiug4i-60-"><rect x="0" y="0" width="484" height="275" fill="none"></rect></clipPath><clipPath id="highcharts-fhiug4i-87-"><rect x="200" y="109" width="275" height="484" fill="none"></rect></clipPath></defs><rect fill="#fbfbfb" class="highcharts-background" x="0" y="0" width="485" height="663" rx="0" ry="0"></rect><rect fill="none" class="highcharts-plot-background" x="200" y="109" width="275" height="484"></rect><g class="highcharts-pane-group" data-z-index="0"></g><g class="highcharts-grid highcharts-xaxis-grid" data-z-index="1"><path fill="none" data-z-index="1" class="highcharts-grid-line" d="M 200 146.5 L 475 146.5" opacity="1"></path><path fill="none" data-z-index="1" class="highcharts-grid-line" d="M 200 183.5 L 475 183.5" opacity="1"></path><path fill="none" data-z-index="1" class="highcharts-grid-line" d="M 200 221.5 L 475 221.5" opacity="1"></path><path fill="none" data-z-index="1" class="highcharts-grid-line" d="M 200 258.5 L 475 258.5" opacity="1"></path><path fill="none" data-z-index="1" class="highcharts-grid-line" d="M 200 295.5 L 475 295.5" opacity="1"></path><path fill="none" data-z-index="1" class="highcharts-grid-line" d="M 200 332.5 L 475 332.5" opacity="1"></path><path fill="none" data-z-index="1" class="highcharts-grid-line" d="M 200 370.5 L 475 370.5" opacity="1"></path><path fill="none" data-z-index="1" class="highcharts-grid-line" d="M 200 407.5 L 475 407.5" opacity="1"></path><path fill="none" data-z-index="1" class="highcharts-grid-line" d="M 200 444.5 L 475 444.5" opacity="1"></path><path fill="none" data-z-index="1" class="highcharts-grid-line" d="M 200 481.5 L 475 481.5" opacity="1"></path><path fill="none" data-z-index="1" class="highcharts-grid-line" d="M 200 519.5 L 475 519.5" opacity="1"></path><path fill="none" data-z-index="1" class="highcharts-grid-line" d="M 200 556.5 L 475 556.5" opacity="1"></path><path fill="none" data-z-index="1" class="highcharts-grid-line" d="M 200 593.5 L 475 593.5" opacity="1"></path><path fill="none" data-z-index="1" class="highcharts-grid-line" d="M 200 109.5 L 475 109.5" opacity="1"></path></g><g class="highcharts-grid highcharts-yaxis-grid" data-z-index="1"><path fill="none" stroke="#B9CFD7" stroke-width="0.5" data-z-index="1" class="highcharts-grid-line" d="M 199.75 109 L 199.75 593" opacity="1"></path><path fill="none" stroke="#B9CFD7" stroke-width="0.5" data-z-index="1" class="highcharts-grid-line" d="M 254.75 109 L 254.75 593" opacity="1"></path><path fill="none" stroke="#B9CFD7" stroke-width="0.5" data-z-index="1" class="highcharts-grid-line" d="M 309.75 109 L 309.75 593" opacity="1"></path><path fill="none" stroke="#B9CFD7" stroke-width="0.5" data-z-index="1" class="highcharts-grid-line" d="M 364.75 109 L 364.75 593" opacity="1"></path><path fill="none" stroke="#B9CFD7" stroke-width="0.5" data-z-index="1" class="highcharts-grid-line" d="M 419.75 109 L 419.75 593" opacity="1"></path><path fill="none" stroke="#B9CFD7" stroke-width="0.5" data-z-index="1" class="highcharts-grid-line" d="M 475.25 109 L 475.25 593" opacity="1"></path></g><rect fill="none" class="highcharts-plot-border" data-z-index="1" x="200" y="109" width="275" height="484"></rect><g class="highcharts-axis highcharts-xaxis" data-z-index="2"><path fill="none" class="highcharts-axis-line" stroke="#B9CFD7" stroke-width="0.5" data-z-index="7" d="M 199.75 109 L 199.75 593"></path></g><g class="highcharts-axis highcharts-yaxis" data-z-index="2"><path fill="none" class="highcharts-axis-line" data-z-index="7" d="M 200 593 L 475 593"></path></g><g class="highcharts-series-group" data-z-index="3"><g class="highcharts-series highcharts-series-0 highcharts-column-series" data-z-index="0.1" opacity="1" transform="translate(475,593) rotate(90) scale(-1,1) scale(1 1)" clip-path="url(#highcharts-fhiug4i-60-)"><rect x="469" y="169" width="8" height="107" fill="#C9D6DB" opacity="1" class="highcharts-point"></rect><rect x="432" y="70" width="7" height="206" fill="#C9D6DB" opacity="1" class="highcharts-point"></rect><rect x="395" y="246" width="7" height="30" fill="#C9D6DB" opacity="1" class="highcharts-point"></rect><rect x="357" y="210" width="8" height="66" fill="#C9D6DB" opacity="1" class="highcharts-point"></rect><rect x="320" y="240" width="8" height="36" fill="#C9D6DB" opacity="1" class="highcharts-point"></rect><rect x="283" y="218" width="7" height="58" fill="#C9D6DB" opacity="1" class="highcharts-point"></rect><rect x="246" y="265" width="7" height="11" fill="#C9D6DB" opacity="1" class="highcharts-point"></rect><rect x="208" y="59" width="8" height="217" fill="#C9D6DB" opacity="1" class="highcharts-point"></rect><rect x="171" y="262" width="8" height="14" fill="#C9D6DB" opacity="1" class="highcharts-point"></rect><rect x="134" y="207" width="7" height="69" fill="#C9D6DB" opacity="1" class="highcharts-point"></rect><rect x="97" y="243" width="7" height="33" fill="#C9D6DB" opacity="1" class="highcharts-point"></rect><rect x="60" y="199" width="7" height="77" fill="#C9D6DB" opacity="1" class="highcharts-point"></rect><rect x="22" y="172" width="8" height="104" fill="#C9D6DB" opacity="1" class="highcharts-point"></rect></g><g class="highcharts-markers highcharts-series-0 highcharts-column-series" data-z-index="0.1" opacity="1" transform="translate(475,593) rotate(90) scale(-1,1) scale(1 1)" clip-path="none"></g><g class="highcharts-series highcharts-series-1 highcharts-column-series" data-z-index="0.1" opacity="1" transform="translate(475,593) rotate(90) scale(-1,1) scale(1 1)" clip-path="url(#highcharts-fhiug4i-60-)"><rect x="462" y="185" width="7" height="91" fill="#71A3B5" opacity="1" class="highcharts-point"></rect><rect x="424" y="89" width="8" height="187" fill="#71A3B5" opacity="1" class="highcharts-point"></rect><rect x="387" y="235" width="8" height="41" fill="#71A3B5" opacity="1" class="highcharts-point"></rect><rect x="350" y="205" width="7" height="71" fill="#71A3B5" opacity="1" class="highcharts-point"></rect><rect x="313" y="227" width="7" height="49" fill="#71A3B5" opacity="1" class="highcharts-point"></rect><rect x="276" y="229" width="7" height="47" fill="#71A3B5" opacity="1" class="highcharts-point"></rect><rect x="238" y="262" width="8" height="14" fill="#71A3B5" opacity="1" class="highcharts-point"></rect><rect x="201" y="20" width="7" height="256" fill="#71A3B5" opacity="1" class="highcharts-point"></rect><rect x="164" y="265" width="7" height="11" fill="#71A3B5" opacity="1" class="highcharts-point"></rect><rect x="127" y="213" width="7" height="63" fill="#71A3B5" opacity="1" class="highcharts-point"></rect><rect x="89" y="246" width="8" height="30" fill="#71A3B5" opacity="1" class="highcharts-point"></rect><rect x="52" y="205" width="8" height="71" fill="#71A3B5" opacity="1" class="highcharts-point"></rect><rect x="15" y="166" width="7" height="110" fill="#71A3B5" opacity="1" class="highcharts-point"></rect></g><g class="highcharts-markers highcharts-series-1 highcharts-column-series" data-z-index="0.1" opacity="1" transform="translate(475,593) rotate(90) scale(-1,1) scale(1 1)" clip-path="none"></g><g class="highcharts-series highcharts-series-2 highcharts-column-series" data-z-index="0.1" opacity="1" transform="translate(475,593) rotate(90) scale(-1,1) scale(1 1)" clip-path="url(#highcharts-fhiug4i-60-)"><rect x="454" y="155" width="8" height="121" fill="#008AC3" opacity="1" class="highcharts-point"></rect><rect x="417" y="75" width="7" height="201" fill="#008AC3" opacity="1" class="highcharts-point"></rect><rect x="380" y="246" width="7" height="30" fill="#008AC3" opacity="1" class="highcharts-point"></rect><rect x="343" y="194" width="7" height="82" fill="#008AC3" opacity="1" class="highcharts-point"></rect><rect x="305" y="224" width="8" height="52" fill="#008AC3" opacity="1" class="highcharts-point"></rect><rect x="268" y="235" width="8" height="41" fill="#008AC3" opacity="1" class="highcharts-point"></rect><rect x="231" y="257" width="7" height="19" fill="#008AC3" opacity="1" class="highcharts-point"></rect><rect x="194" y="31" width="7" height="245" fill="#008AC3" opacity="1" class="highcharts-point"></rect><rect x="156" y="268" width="8" height="8" fill="#008AC3" opacity="1" class="highcharts-point"></rect><rect x="119" y="210" width="8" height="66" fill="#008AC3" opacity="1" class="highcharts-point"></rect><rect x="82" y="246" width="7" height="30" fill="#008AC3" opacity="1" class="highcharts-point"></rect><rect x="45" y="205" width="7" height="71" fill="#008AC3" opacity="1" class="highcharts-point"></rect><rect x="7" y="166" width="8" height="110" fill="#008AC3" opacity="1" class="highcharts-point"></rect></g><g class="highcharts-markers highcharts-series-2 highcharts-column-series" data-z-index="0.1" opacity="1" transform="translate(475,593) rotate(90) scale(-1,1) scale(1 1)" clip-path="none"></g></g><text x="10" text-anchor="start" class="highcharts-title" data-z-index="4" style="color:#000000;font-size:14px;font-weight:bold;fill:#000000;" y="21"><tspan>Zugewanderte Erwerbstätige pro Beschäftigten nach</tspan><tspan dy="17" x="10">Branche</tspan></text><text x="10" text-anchor="start" class="highcharts-subtitle" data-z-index="4" style="color:#000000;font-size:12px;font-weight:normal;font-family:Arial;fill:#000000;" y="57"><tspan>Basel-Stadt</tspan></text><text x="10" text-anchor="start" class="highcharts-caption" data-z-index="4" style="color:#666666;fill:#666666;" y="635"></text><g class="highcharts-legend" data-z-index="7" transform="translate(192,72)"><rect fill="none" class="highcharts-legend-box" rx="0" ry="0" x="0" y="0" width="210" height="25" visibility="visible"></rect><g data-z-index="1"><g><g class="highcharts-legend-item highcharts-column-series highcharts-color-undefined highcharts-series-0" data-z-index="1" transform="translate(8,3)"><text x="21" style="color:#333333;cursor:pointer;font-size:12px;font-weight:normal;fill:#333333;" text-anchor="start" data-z-index="2" y="15"><tspan>2017</tspan></text><rect x="2" y="4" width="12" height="12" fill="#C9D6DB" class="highcharts-point" data-z-index="3"></rect></g><g class="highcharts-legend-item highcharts-column-series highcharts-color-undefined highcharts-series-1" data-z-index="1" transform="translate(79.5,3)"><text x="21" y="15" style="color:#333333;cursor:pointer;font-size:12px;font-weight:normal;fill:#333333;" text-anchor="start" data-z-index="2"><tspan>2018</tspan></text><rect x="2" y="4" width="12" height="12" fill="#71A3B5" class="highcharts-point" data-z-index="3"></rect></g><g class="highcharts-legend-item highcharts-column-series highcharts-color-undefined highcharts-series-2" data-z-index="1" transform="translate(151,3)"><text x="21" y="15" style="color:#333333;cursor:pointer;font-size:12px;font-weight:normal;fill:#333333;" text-anchor="start" data-z-index="2"><tspan>2019</tspan></text><rect x="2" y="4" width="12" height="12" fill="#008AC3" class="highcharts-point" data-z-index="3"></rect></g></g></g></g><g class="highcharts-axis-labels highcharts-xaxis-labels" data-z-index="7"><text x="20" style="color:#000000;cursor:default;font-size:11px;fill:#000000;" text-anchor="start" transform="translate(0,0)" y="125" opacity="1"><tspan>Industrie (exkl. Chemie,</tspan><tspan dy="14" x="20">Pharma)</tspan></text><text x="20" style="color:#000000;cursor:default;font-size:11px;fill:#000000;" text-anchor="start" transform="translate(0,0)" y="169" opacity="1"><tspan>Chemie, Pharma</tspan></text><text x="20" style="color:#000000;cursor:default;font-size:11px;fill:#000000;" text-anchor="start" transform="translate(0,0)" y="207" opacity="1">Baugewerbe</text><text x="20" style="color:#000000;cursor:default;font-size:11px;fill:#000000;" text-anchor="start" transform="translate(0,0)" y="244" opacity="1"><tspan>Handel, Reparatur</tspan></text><text x="20" style="color:#000000;cursor:default;font-size:11px;fill:#000000;" text-anchor="start" transform="translate(0,0)" y="274" opacity="1"><tspan>Verkehr, Lagerei,</tspan><tspan dy="14" x="20">Kommunikation</tspan></text><text x="20" style="color:#000000;cursor:default;font-size:11px;fill:#000000;" text-anchor="start" transform="translate(0,0)" y="318" opacity="1">Gastgewerbe</text><text x="20" style="color:#000000;cursor:default;font-size:11px;fill:#000000;" text-anchor="start" transform="translate(0,0)" y="355" opacity="1"><tspan>Finanz-, Versicherungs-DL</tspan></text><text x="20" style="color:#000000;cursor:default;font-size:11px;fill:#000000;" text-anchor="start" transform="translate(0,0)" y="379" opacity="1"><tspan>Beratung, Planung, Forschung,</tspan><tspan dy="14" x="20">Immobilien, IT,</tspan><tspan dy="14" x="20">Personalvermittlung, andere DL</tspan></text><text x="20" style="color:#000000;cursor:default;font-size:11px;fill:#000000;" text-anchor="start" transform="translate(0,0)" y="423" opacity="1"><tspan>Öffentliche Verwaltung,</tspan><tspan dy="14" x="20">Sozialversicherungen</tspan></text><text x="20" style="color:#000000;cursor:default;font-size:11px;fill:#000000;" text-anchor="start" transform="translate(0,0)" y="467" opacity="1"><tspan>Erziehung, Unterricht</tspan></text><text x="20" style="color:#000000;cursor:default;font-size:11px;fill:#000000;" text-anchor="start" transform="translate(0,0)" y="504" opacity="1"><tspan>Gesundheits-, Sozialwesen</tspan></text><text x="20" style="color:#000000;cursor:default;font-size:11px;fill:#000000;" text-anchor="start" transform="translate(0,0)" y="542" opacity="1"><tspan>Kultur, Unterhaltung, pers. DL</tspan></text><text x="20" style="color:#000000;cursor:default;font-size:11px;fill:#000000;" text-anchor="start" transform="translate(0,0)" y="579" opacity="1">Total</text></g><g class="highcharts-axis-labels highcharts-yaxis-labels" data-z-index="7"><text x="200" style="color:#000000;cursor:default;font-size:11px;fill:#000000;" text-anchor="middle" transform="translate(0,0)" y="612" opacity="1">0%</text><text x="255" style="color:#000000;cursor:default;font-size:11px;fill:#000000;" text-anchor="middle" transform="translate(0,0)" y="612" opacity="1">2%</text><text x="310" style="color:#000000;cursor:default;font-size:11px;fill:#000000;" text-anchor="middle" transform="translate(0,0)" y="612" opacity="1">4%</text><text x="365" style="color:#000000;cursor:default;font-size:11px;fill:#000000;" text-anchor="middle" transform="translate(0,0)" y="612" opacity="1">6%</text><text x="420" style="color:#000000;cursor:default;font-size:11px;fill:#000000;" text-anchor="middle" transform="translate(0,0)" y="612" opacity="1">8%</text><text x="462.796875" style="color:#000000;cursor:default;font-size:11px;fill:#000000;" text-anchor="middle" transform="translate(0,0)" y="612" opacity="1">10%</text></g><text x="10" class="highcharts-credits" text-anchor="start" data-z-index="8" style="cursor:default;color:#000000;font-size:10px;fill:#000000;" y="638"><tspan>Quelle: Staatssekretariat für Migration (SEM), Zentrales Migrationssystem (ZEMIS).</tspan><tspan x="10" dy="13">Zuletzt geändert: 2020-4-1</tspan></text><g class="highcharts-control-points" data-z-index="99" clip-path="url(#highcharts-fhiug4i-87-)"></g></svg>