<svg version="1.1" class="highcharts-root" style="font-family: Arial; font-size: 1rem;" xmlns="http://www.w3.org/2000/svg" width="600" height="400" viewBox="0 0 600 400" role="img" aria-label="Zugewanderte Erwerbstätige pro Beschäftigten nach Branche"><desc>Created with Highcharts 12.5.0</desc><defs><filter id="highcharts-drop-shadow-0"><feDropShadow dx="1" dy="1" flood-color="#000000" flood-opacity="0.75" stdDeviation="2.5"></feDropShadow></filter><clipPath id="highcharts-0nswfkp-241-"><rect x="0" y="0" width="233" height="389" fill="none"></rect></clipPath><filter id="highcharts-drop-shadow-0-offsetx--1-offsety--1"><feDropShadow dx="-1" dy="-1" flood-color="#000000" flood-opacity="0.75" stdDeviation="2.5"></feDropShadow></filter></defs><rect fill="#ffffff" class="highcharts-background" filter="none" x="0" y="0" width="600" height="400" rx="0" ry="0"></rect><rect fill="none" class="highcharts-plot-background" x="200" y="97" width="390" height="233" filter="none"></rect><g class="highcharts-pane-group" data-z-index="0"></g><g class="highcharts-grid highcharts-yaxis-grid" data-z-index="1"><path fill="none" stroke="#B9CFD7" stroke-width="0.5" stroke-dasharray="none" data-z-index="1" class="highcharts-grid-line" d="M 200.25 97 L 200.25 330" opacity="1"></path><path fill="none" stroke="#B9CFD7" stroke-width="0.5" stroke-dasharray="none" data-z-index="1" class="highcharts-grid-line" d="M 278.25 97 L 278.25 330" opacity="1"></path><path fill="none" stroke="#B9CFD7" stroke-width="0.5" stroke-dasharray="none" data-z-index="1" class="highcharts-grid-line" d="M 356.25 97 L 356.25 330" opacity="1"></path><path fill="none" stroke="#B9CFD7" stroke-width="0.5" stroke-dasharray="none" data-z-index="1" class="highcharts-grid-line" d="M 434.25 97 L 434.25 330" opacity="1"></path><path fill="none" stroke="#B9CFD7" stroke-width="0.5" stroke-dasharray="none" data-z-index="1" class="highcharts-grid-line" d="M 512.25 97 L 512.25 330" opacity="1"></path><path fill="none" stroke="#B9CFD7" stroke-width="0.5" stroke-dasharray="none" data-z-index="1" class="highcharts-grid-line" d="M 590.25 97 L 590.25 330" opacity="1"></path></g><g class="highcharts-grid highcharts-xaxis-grid" data-z-index="1"><path fill="none" stroke="#e6e6e6" stroke-width="0" stroke-dasharray="none" data-z-index="1" class="highcharts-grid-line" d="M 200 114.5 L 590 114.5" opacity="1"></path><path fill="none" stroke="#e6e6e6" stroke-width="0" stroke-dasharray="none" data-z-index="1" class="highcharts-grid-line" d="M 200 132.5 L 590 132.5" opacity="1"></path><path fill="none" stroke="#e6e6e6" stroke-width="0" stroke-dasharray="none" data-z-index="1" class="highcharts-grid-line" d="M 200 150.5 L 590 150.5" opacity="1"></path><path fill="none" stroke="#e6e6e6" stroke-width="0" stroke-dasharray="none" data-z-index="1" class="highcharts-grid-line" d="M 200 168.5 L 590 168.5" opacity="1"></path><path fill="none" stroke="#e6e6e6" stroke-width="0" stroke-dasharray="none" data-z-index="1" class="highcharts-grid-line" d="M 200 186.5 L 590 186.5" opacity="1"></path><path fill="none" stroke="#e6e6e6" stroke-width="0" stroke-dasharray="none" data-z-index="1" class="highcharts-grid-line" d="M 200 204.5 L 590 204.5" opacity="1"></path><path fill="none" stroke="#e6e6e6" stroke-width="0" stroke-dasharray="none" data-z-index="1" class="highcharts-grid-line" d="M 200 222.5 L 590 222.5" opacity="1"></path><path fill="none" stroke="#e6e6e6" stroke-width="0" stroke-dasharray="none" data-z-index="1" class="highcharts-grid-line" d="M 200 240.5 L 590 240.5" opacity="1"></path><path fill="none" stroke="#e6e6e6" stroke-width="0" stroke-dasharray="none" data-z-index="1" class="highcharts-grid-line" d="M 200 258.5 L 590 258.5" opacity="1"></path><path fill="none" stroke="#e6e6e6" stroke-width="0" stroke-dasharray="none" data-z-index="1" class="highcharts-grid-line" d="M 200 276.5 L 590 276.5" opacity="1"></path><path fill="none" stroke="#e6e6e6" stroke-width="0" stroke-dasharray="none" data-z-index="1" class="highcharts-grid-line" d="M 200 294.5 L 590 294.5" opacity="1"></path><path fill="none" stroke="#e6e6e6" stroke-width="0" stroke-dasharray="none" data-z-index="1" class="highcharts-grid-line" d="M 200 312.5 L 590 312.5" opacity="1"></path><path fill="none" stroke="#e6e6e6" stroke-width="0" stroke-dasharray="none" data-z-index="1" class="highcharts-grid-line" d="M 200 330.5 L 590 330.5" opacity="1"></path><path fill="none" stroke="#e6e6e6" stroke-width="0" stroke-dasharray="none" data-z-index="1" class="highcharts-grid-line" d="M 200 97.5 L 590 97.5" opacity="1"></path></g><rect fill="none" class="highcharts-plot-border" data-z-index="1" stroke="#cccccc" stroke-width="0" x="200" y="97" width="390" height="233"></rect><g class="highcharts-axis highcharts-yaxis" data-z-index="2"><path fill="none" class="highcharts-axis-line" stroke="#B9CFD7" stroke-width="0" data-z-index="7" d="M 200 330 L 590 330"></path></g><g class="highcharts-axis highcharts-xaxis" data-z-index="2"><path fill="none" class="highcharts-axis-line" stroke="#B9CFD7" stroke-width="0.5" data-z-index="7" d="M 200.25 97 L 200.25 330"></path></g><g class="highcharts-series-group" data-z-index="3" filter="none"><g class="highcharts-series highcharts-series-0 highcharts-column-series highcharts-tracker" data-z-index="0.1" opacity="1" transform="translate(200,97) rotate(90 78.5 311.5) scale(-1 1)" clip-path="url(#highcharts-0nswfkp-241-)"><path fill="#C9D6DB" d="M 227.5 250 L 227.5 250 A 1.5 1.5 0 0 1 229 251.5 L 229 390 A 0 0 0 0 1 229 390 L 226 390 A 0 0 0 0 1 226 390 L 226 251.5 A 1.5 1.5 0 0 1 227.5 250 Z" stroke="#ffffff" stroke-width="0" opacity="1" filter="none" class="highcharts-point"></path><path fill="#C9D6DB" d="M 209.5 187 L 209.5 187 A 1.5 1.5 0 0 1 211 188.5 L 211 390 A 0 0 0 0 1 211 390 L 208 390 A 0 0 0 0 1 208 390 L 208 188.5 A 1.5 1.5 0 0 1 209.5 187 Z" stroke="#ffffff" stroke-width="0" opacity="1" filter="none" class="highcharts-point"></path><path fill="#C9D6DB" d="M 192 304 L 192 304 A 2 2 0 0 1 194 306 L 194 390 A 0 0 0 0 1 194 390 L 190 390 A 0 0 0 0 1 190 390 L 190 306 A 2 2 0 0 1 192 304 Z" stroke="#ffffff" stroke-width="0" opacity="1" filter="none" class="highcharts-point"></path><path fill="#C9D6DB" d="M 174 312 L 174 312 A 2 2 0 0 1 176 314 L 176 390 A 0 0 0 0 1 176 390 L 172 390 A 0 0 0 0 1 172 390 L 172 314 A 2 2 0 0 1 174 312 Z" stroke="#ffffff" stroke-width="0" opacity="1" filter="none" class="highcharts-point"></path><path fill="#C9D6DB" d="M 156 339 L 156 339 A 2 2 0 0 1 158 341 L 158 390 A 0 0 0 0 1 158 390 L 154 390 A 0 0 0 0 1 154 390 L 154 341 A 2 2 0 0 1 156 339 Z" stroke="#ffffff" stroke-width="0" opacity="1" filter="none" class="highcharts-point"></path><path fill="#C9D6DB" d="M 138 328 L 138 328 A 2 2 0 0 1 140 330 L 140 390 A 0 0 0 0 1 140 390 L 136 390 A 0 0 0 0 1 136 390 L 136 330 A 2 2 0 0 1 138 328 Z" stroke="#ffffff" stroke-width="0" opacity="1" filter="none" class="highcharts-point"></path><path fill="#C9D6DB" d="M 120 374 L 120 374 A 2 2 0 0 1 122 376 L 122 390 A 0 0 0 0 1 122 390 L 118 390 A 0 0 0 0 1 118 390 L 118 376 A 2 2 0 0 1 120 374 Z" stroke="#ffffff" stroke-width="0" opacity="1" filter="none" class="highcharts-point"></path><path fill="#C9D6DB" d="M 102 179 L 102 179 A 2 2 0 0 1 104 181 L 104 390 A 0 0 0 0 1 104 390 L 100 390 A 0 0 0 0 1 100 390 L 100 181 A 2 2 0 0 1 102 179 Z" stroke="#ffffff" stroke-width="0" opacity="1" filter="none" class="highcharts-point"></path><path fill="#C9D6DB" d="M 84 374 L 84 374 A 2 2 0 0 1 86 376 L 86 390 A 0 0 0 0 1 86 390 L 82 390 A 0 0 0 0 1 82 390 L 82 376 A 2 2 0 0 1 84 374 Z" stroke="#ffffff" stroke-width="0" opacity="1" filter="none" class="highcharts-point"></path><path fill="#C9D6DB" d="M 66.5 316 L 66.5 316 A 1.5 1.5 0 0 1 68 317.5 L 68 390 A 0 0 0 0 1 68 390 L 65 390 A 0 0 0 0 1 65 390 L 65 317.5 A 1.5 1.5 0 0 1 66.5 316 Z" stroke="#ffffff" stroke-width="0" opacity="1" filter="none" class="highcharts-point"></path><path fill="#C9D6DB" d="M 48.5 351 L 48.5 351 A 1.5 1.5 0 0 1 50 352.5 L 50 390 A 0 0 0 0 1 50 390 L 47 390 A 0 0 0 0 1 47 390 L 47 352.5 A 1.5 1.5 0 0 1 48.5 351 Z" stroke="#ffffff" stroke-width="0" opacity="1" filter="none" class="highcharts-point"></path><path fill="#C9D6DB" d="M 30.5 300 L 30.5 300 A 1.5 1.5 0 0 1 32 301.5 L 32 390 A 0 0 0 0 1 32 390 L 29 390 A 0 0 0 0 1 29 390 L 29 301.5 A 1.5 1.5 0 0 1 30.5 300 Z" stroke="#ffffff" stroke-width="0" opacity="1" filter="none" class="highcharts-point"></path><path fill="#C9D6DB" d="M 12.5 281 L 12.5 281 A 1.5 1.5 0 0 1 14 282.5 L 14 390 A 0 0 0 0 1 14 390 L 11 390 A 0 0 0 0 1 11 390 L 11 282.5 A 1.5 1.5 0 0 1 12.5 281 Z" stroke="#ffffff" stroke-width="0" opacity="1" filter="none" class="highcharts-point"></path></g><g class="highcharts-markers highcharts-series-0 highcharts-column-series" data-z-index="0.1" opacity="1" transform="translate(200,97) scale(1 1)" clip-path="none"></g><g class="highcharts-series highcharts-series-1 highcharts-column-series highcharts-tracker" data-z-index="0.1" opacity="1" transform="translate(200,97) rotate(90 78.5 311.5) scale(-1 1)" clip-path="url(#highcharts-0nswfkp-241-)"><path fill="#71A3B5" d="M 224 250 L 224 250 A 2 2 0 0 1 226 252 L 226 390 A 0 0 0 0 1 226 390 L 222 390 A 0 0 0 0 1 222 390 L 222 252 A 2 2 0 0 1 224 250 Z" stroke="#ffffff" stroke-width="0" opacity="1" filter="none" class="highcharts-point"></path><path fill="#71A3B5" d="M 206 168 L 206 168 A 2 2 0 0 1 208 170 L 208 390 A 0 0 0 0 1 208 390 L 204 390 A 0 0 0 0 1 204 390 L 204 170 A 2 2 0 0 1 206 168 Z" stroke="#ffffff" stroke-width="0" opacity="1" filter="none" class="highcharts-point"></path><path fill="#71A3B5" d="M 188 285 L 188 285 A 2 2 0 0 1 190 287 L 190 390 A 0 0 0 0 1 190 390 L 186 390 A 0 0 0 0 1 186 390 L 186 287 A 2 2 0 0 1 188 285 Z" stroke="#ffffff" stroke-width="0" opacity="1" filter="none" class="highcharts-point"></path><path fill="#71A3B5" d="M 170 308 L 170 308 A 2 2 0 0 1 172 310 L 172 390 A 0 0 0 0 1 172 390 L 168 390 A 0 0 0 0 1 168 390 L 168 310 A 2 2 0 0 1 170 308 Z" stroke="#ffffff" stroke-width="0" opacity="1" filter="none" class="highcharts-point"></path><path fill="#71A3B5" d="M 152.5 331 L 152.5 331 A 1.5 1.5 0 0 1 154 332.5 L 154 390 A 0 0 0 0 1 154 390 L 151 390 A 0 0 0 0 1 151 390 L 151 332.5 A 1.5 1.5 0 0 1 152.5 331 Z" stroke="#ffffff" stroke-width="0" opacity="1" filter="none" class="highcharts-point"></path><path fill="#71A3B5" d="M 134.5 320 L 134.5 320 A 1.5 1.5 0 0 1 136 321.5 L 136 390 A 0 0 0 0 1 136 390 L 133 390 A 0 0 0 0 1 133 390 L 133 321.5 A 1.5 1.5 0 0 1 134.5 320 Z" stroke="#ffffff" stroke-width="0" opacity="1" filter="none" class="highcharts-point"></path><path fill="#71A3B5" d="M 116.5 370 L 116.5 370 A 1.5 1.5 0 0 1 118 371.5 L 118 390 A 0 0 0 0 1 118 390 L 115 390 A 0 0 0 0 1 115 390 L 115 371.5 A 1.5 1.5 0 0 1 116.5 370 Z" stroke="#ffffff" stroke-width="0" opacity="1" filter="none" class="highcharts-point"></path><path fill="#71A3B5" d="M 98.5 97 L 98.5 97 A 1.5 1.5 0 0 1 100 98.5 L 100 390 A 0 0 0 0 1 100 390 L 97 390 A 0 0 0 0 1 97 390 L 97 98.5 A 1.5 1.5 0 0 1 98.5 97 Z" stroke="#ffffff" stroke-width="0" opacity="1" filter="none" class="highcharts-point"></path><path fill="#71A3B5" d="M 80.5 374 L 80.5 374 A 1.5 1.5 0 0 1 82 375.5 L 82 390 A 0 0 0 0 1 82 390 L 79 390 A 0 0 0 0 1 79 390 L 79 375.5 A 1.5 1.5 0 0 1 80.5 374 Z" stroke="#ffffff" stroke-width="0" opacity="1" filter="none" class="highcharts-point"></path><path fill="#71A3B5" d="M 63 308 L 63 308 A 2 2 0 0 1 65 310 L 65 390 A 0 0 0 0 1 65 390 L 61 390 A 0 0 0 0 1 61 390 L 61 310 A 2 2 0 0 1 63 308 Z" stroke="#ffffff" stroke-width="0" opacity="1" filter="none" class="highcharts-point"></path><path fill="#71A3B5" d="M 45 347 L 45 347 A 2 2 0 0 1 47 349 L 47 390 A 0 0 0 0 1 47 390 L 43 390 A 0 0 0 0 1 43 390 L 43 349 A 2 2 0 0 1 45 347 Z" stroke="#ffffff" stroke-width="0" opacity="1" filter="none" class="highcharts-point"></path><path fill="#71A3B5" d="M 27 273 L 27 273 A 2 2 0 0 1 29 275 L 29 390 A 0 0 0 0 1 29 390 L 25 390 A 0 0 0 0 1 25 390 L 25 275 A 2 2 0 0 1 27 273 Z" stroke="#ffffff" stroke-width="0" opacity="1" filter="none" class="highcharts-point"></path><path fill="#71A3B5" d="M 9 253 L 9 253 A 2 2 0 0 1 11 255 L 11 390 A 0 0 0 0 1 11 390 L 7 390 A 0 0 0 0 1 7 390 L 7 255 A 2 2 0 0 1 9 253 Z" stroke="#ffffff" stroke-width="0" opacity="1" filter="none" class="highcharts-point"></path></g><g class="highcharts-markers highcharts-series-1 highcharts-column-series" data-z-index="0.1" opacity="1" transform="translate(200,97) scale(1 1)" clip-path="none"></g><g class="highcharts-series highcharts-series-2 highcharts-column-series highcharts-tracker" data-z-index="0.1" opacity="1" transform="translate(200,97) rotate(90 78.5 311.5) scale(-1 1)" clip-path="url(#highcharts-0nswfkp-241-)"><path fill="#008AC3" d="M 220.5 253 L 220.5 253 A 1.5 1.5 0 0 1 222 254.5 L 222 390 A 0 0 0 0 1 222 390 L 219 390 A 0 0 0 0 1 219 390 L 219 254.5 A 1.5 1.5 0 0 1 220.5 253 Z" stroke="#ffffff" stroke-width="0" opacity="1" filter="none" class="highcharts-point"></path><path fill="#008AC3" d="M 202.5 136 L 202.5 136 A 1.5 1.5 0 0 1 204 137.5 L 204 390 A 0 0 0 0 1 204 390 L 201 390 A 0 0 0 0 1 201 390 L 201 137.5 A 1.5 1.5 0 0 1 202.5 136 Z" stroke="#ffffff" stroke-width="0" opacity="1" filter="none" class="highcharts-point"></path><path fill="#008AC3" d="M 184.5 253 L 184.5 253 A 1.5 1.5 0 0 1 186 254.5 L 186 390 A 0 0 0 0 1 186 390 L 183 390 A 0 0 0 0 1 183 390 L 183 254.5 A 1.5 1.5 0 0 1 184.5 253 Z" stroke="#ffffff" stroke-width="0" opacity="1" filter="none" class="highcharts-point"></path><path fill="#008AC3" d="M 166.5 285 L 166.5 285 A 1.5 1.5 0 0 1 168 286.5 L 168 390 A 0 0 0 0 1 168 390 L 165 390 A 0 0 0 0 1 165 390 L 165 286.5 A 1.5 1.5 0 0 1 166.5 285 Z" stroke="#ffffff" stroke-width="0" opacity="1" filter="none" class="highcharts-point"></path><path fill="#008AC3" d="M 149 269 L 149 269 A 2 2 0 0 1 151 271 L 151 390 A 0 0 0 0 1 151 390 L 147 390 A 0 0 0 0 1 147 390 L 147 271 A 2 2 0 0 1 149 269 Z" stroke="#ffffff" stroke-width="0" opacity="1" filter="none" class="highcharts-point"></path><path fill="#008AC3" d="M 131 300 L 131 300 A 2 2 0 0 1 133 302 L 133 390 A 0 0 0 0 1 133 390 L 129 390 A 0 0 0 0 1 129 390 L 129 302 A 2 2 0 0 1 131 300 Z" stroke="#ffffff" stroke-width="0" opacity="1" filter="none" class="highcharts-point"></path><path fill="#008AC3" d="M 113 363 L 113 363 A 2 2 0 0 1 115 365 L 115 390 A 0 0 0 0 1 115 390 L 111 390 A 0 0 0 0 1 111 390 L 111 365 A 2 2 0 0 1 113 363 Z" stroke="#ffffff" stroke-width="0" opacity="1" filter="none" class="highcharts-point"></path><path fill="#008AC3" d="M 95 31 L 95 31 A 2 2 0 0 1 97 33 L 97 390 A 0 0 0 0 1 97 390 L 93 390 A 0 0 0 0 1 93 390 L 93 33 A 2 2 0 0 1 95 31 Z" stroke="#ffffff" stroke-width="0" opacity="1" filter="none" class="highcharts-point"></path><path fill="#008AC3" d="M 77 363 L 77 363 A 2 2 0 0 1 79 365 L 79 390 A 0 0 0 0 1 79 390 L 75 390 A 0 0 0 0 1 75 390 L 75 365 A 2 2 0 0 1 77 363 Z" stroke="#ffffff" stroke-width="0" opacity="1" filter="none" class="highcharts-point"></path><path fill="#008AC3" d="M 59 300 L 59 300 A 2 2 0 0 1 61 302 L 61 390 A 0 0 0 0 1 61 390 L 57 390 A 0 0 0 0 1 57 390 L 57 302 A 2 2 0 0 1 59 300 Z" stroke="#ffffff" stroke-width="0" opacity="1" filter="none" class="highcharts-point"></path><path fill="#008AC3" d="M 41 335 L 41 335 A 2 2 0 0 1 43 337 L 43 390 A 0 0 0 0 1 43 390 L 39 390 A 0 0 0 0 1 39 390 L 39 337 A 2 2 0 0 1 41 335 Z" stroke="#ffffff" stroke-width="0" opacity="1" filter="none" class="highcharts-point"></path><path fill="#008AC3" d="M 23.5 250 L 23.5 250 A 1.5 1.5 0 0 1 25 251.5 L 25 390 A 0 0 0 0 1 25 390 L 22 390 A 0 0 0 0 1 22 390 L 22 251.5 A 1.5 1.5 0 0 1 23.5 250 Z" stroke="#ffffff" stroke-width="0" opacity="1" filter="none" class="highcharts-point"></path><path fill="#008AC3" d="M 5.5 222 L 5.5 222 A 1.5 1.5 0 0 1 7 223.5 L 7 390 A 0 0 0 0 1 7 390 L 4 390 A 0 0 0 0 1 4 390 L 4 223.5 A 1.5 1.5 0 0 1 5.5 222 Z" stroke="#ffffff" stroke-width="0" opacity="1" filter="none" class="highcharts-point"></path></g><g class="highcharts-markers highcharts-series-2 highcharts-column-series" data-z-index="0.1" opacity="1" transform="translate(200,97) scale(1 1)" clip-path="none"></g></g><text x="10" text-anchor="start" class="highcharts-caption" data-z-index="4" style="font-size: 0.8em; fill: rgb(102, 102, 102);" text-align="left" y="372" transform-origin="10 15" transform="translate(0,0) scale(1 1)"></text><g class="highcharts-axis-labels highcharts-yaxis-labels" data-z-index="7"><text x="200" text-anchor="middle" transform="translate(0,0)" style="cursor: default; font-size: 0.8em; fill: rgb(0, 0, 0);" y="357" opacity="1">0%</text><text x="278" text-anchor="middle" transform="translate(0,0)" style="cursor: default; font-size: 0.8em; fill: rgb(0, 0, 0);" y="357" opacity="1">2%</text><text x="356" text-anchor="middle" transform="translate(0,0)" style="cursor: default; font-size: 0.8em; fill: rgb(0, 0, 0);" y="357" opacity="1">4%</text><text x="434" text-anchor="middle" transform="translate(0,0)" style="cursor: default; font-size: 0.8em; fill: rgb(0, 0, 0);" y="357" opacity="1">6%</text><text x="512" text-anchor="middle" transform="translate(0,0)" style="cursor: default; font-size: 0.8em; fill: rgb(0, 0, 0);" y="357" opacity="1">8%</text><text x="576.8812561035156" text-anchor="middle" transform="translate(0,0)" style="cursor: default; font-size: 0.8em; fill: rgb(0, 0, 0);" y="357" opacity="1">10%</text></g><g class="highcharts-axis-labels highcharts-xaxis-labels" data-z-index="7"><text x="20" text-anchor="start" transform="translate(0,0)" style="cursor: default; font-size: 0.8em; fill: rgb(0, 0, 0);" y="110" opacity="1">Industrie (exkl. Chemie,…</text><text x="20" text-anchor="start" transform="translate(0,0)" style="cursor: default; font-size: 0.8em; fill: rgb(0, 0, 0);" y="128" opacity="1">Chemie, Pharma</text><text x="20" text-anchor="start" transform="translate(0,0)" style="cursor: default; font-size: 0.8em; fill: rgb(0, 0, 0);" y="146" opacity="1">Baugewerbe</text><text x="20" text-anchor="start" transform="translate(0,0)" style="cursor: default; font-size: 0.8em; fill: rgb(0, 0, 0);" y="164" opacity="1">Handel, Reparatur</text><text x="20" text-anchor="start" transform="translate(0,0)" style="cursor: default; font-size: 0.8em; fill: rgb(0, 0, 0);" y="182" opacity="1">Verkehr, Lagerei,…</text><text x="20" text-anchor="start" transform="translate(0,0)" style="cursor: default; font-size: 0.8em; fill: rgb(0, 0, 0);" y="200" opacity="1">Gastgewerbe</text><text x="20" text-anchor="start" transform="translate(0,0)" style="cursor: default; font-size: 0.8em; fill: rgb(0, 0, 0);" y="218" opacity="1">Finanz-, Versicherungs-DL</text><text x="20" text-anchor="start" transform="translate(0,0)" style="cursor: default; font-size: 0.8em; fill: rgb(0, 0, 0);" y="236" opacity="1">Beratung, Planung,…</text><text x="20" text-anchor="start" transform="translate(0,0)" style="cursor: default; font-size: 0.8em; fill: rgb(0, 0, 0);" y="254" opacity="1">Öffentliche Verwaltung,…</text><text x="20" text-anchor="start" transform="translate(0,0)" style="cursor: default; font-size: 0.8em; fill: rgb(0, 0, 0);" y="272" opacity="1">Erziehung, Unterricht</text><text x="20" text-anchor="start" transform="translate(0,0)" style="cursor: default; font-size: 0.8em; fill: rgb(0, 0, 0);" y="290" opacity="1">Gesundheits-, Sozialwesen</text><text x="20" text-anchor="start" transform="translate(0,0)" style="cursor: default; font-size: 0.8em; fill: rgb(0, 0, 0);" y="308" opacity="1">Kultur, Unterhaltung, pers. DL</text><text x="20" text-anchor="start" transform="translate(0,0)" style="cursor: default; font-size: 0.8em; fill: rgb(0, 0, 0);" y="326" opacity="1">Total</text></g><g class="highcharts-legend highcharts-no-tooltip" data-z-index="7" text-align="left" transform="translate(192,55)"><rect fill="none" class="highcharts-legend-box" rx="0" ry="0" stroke="#999999" stroke-width="0" filter="none" x="0" y="0" width="204" height="30"></rect><g data-z-index="1"><g><g class="highcharts-legend-item highcharts-column-series highcharts-color-undefined highcharts-series-0" data-z-index="1" transform="translate(8,3)"><text x="21" text-anchor="start" data-z-index="2" style="cursor: pointer; font-size: 0.8em; text-decoration: none; font-weight: normal; fill: rgb(51, 51, 51);" y="17">2021</text><rect x="2" y="6" rx="0" ry="0" width="12" height="12" fill="#C9D6DB" class="highcharts-point" data-z-index="3"></rect></g><g class="highcharts-legend-item highcharts-column-series highcharts-color-undefined highcharts-series-1" data-z-index="1" transform="translate(77.484375,3)"><text x="21" y="17" text-anchor="start" data-z-index="2" style="cursor: pointer; font-size: 0.8em; text-decoration: none; font-weight: normal; fill: rgb(51, 51, 51);">2022</text><rect x="2" y="6" rx="0" ry="0" width="12" height="12" fill="#71A3B5" class="highcharts-point" data-z-index="3"></rect></g><g class="highcharts-legend-item highcharts-column-series highcharts-color-undefined highcharts-series-2" data-z-index="1" transform="translate(146.96875,3)"><text x="21" y="17" text-anchor="start" data-z-index="2" style="cursor: pointer; font-size: 0.8em; text-decoration: none; font-weight: normal; fill: rgb(51, 51, 51);">2023</text><rect x="2" y="6" rx="0" ry="0" width="12" height="12" fill="#008AC3" class="highcharts-point" data-z-index="3"></rect></g></g></g></g></svg>