<?xml version="1.0" standalone="no"?><!DOCTYPE svg PUBLIC "-//W3C//DTD SVG 1.1//EN" "http://www.w3.org/Graphics/SVG/1.1/DTD/svg11.dtd"><svg xmlns:xlink="http://www.w3.org/1999/xlink" version="1.1" class="highcharts-root" style="font-family:Arial;font-size:12px;" xmlns="http://www.w3.org/2000/svg" viewBox="0 0 485 415"><desc>Created with Highcharts 8.2.0</desc><defs><clipPath id="highcharts-z8v9o1g-128-"><rect x="0" y="0" width="432" height="146" fill="none"></rect></clipPath><clipPath id="highcharts-z8v9o1g-140-"><rect x="0" y="0" width="432" height="146" fill="none"></rect></clipPath><clipPath id="highcharts-z8v9o1g-251-"><rect x="43" y="192" width="432" height="146" fill="none"></rect></clipPath></defs><rect fill="#fbfbfb" class="highcharts-background" x="0" y="0" width="485" height="428" rx="0" ry="0"></rect><rect fill="none" class="highcharts-plot-background" x="43" y="192" width="432" height="146"></rect><g class="highcharts-pane-group" data-z-index="0"></g><g class="highcharts-grid highcharts-xaxis-grid" data-z-index="1"><path fill="none" data-z-index="1" class="highcharts-grid-line" d="M 46.5 192 L 46.5 338" opacity="1"></path><path fill="none" data-z-index="1" class="highcharts-grid-line" d="M 89.5 192 L 89.5 338" opacity="1"></path><path fill="none" data-z-index="1" class="highcharts-grid-line" d="M 131.5 192 L 131.5 338" opacity="1"></path><path fill="none" data-z-index="1" class="highcharts-grid-line" d="M 173.5 192 L 173.5 338" opacity="1"></path><path fill="none" data-z-index="1" class="highcharts-grid-line" d="M 216.5 192 L 216.5 338" opacity="1"></path><path fill="none" data-z-index="1" class="highcharts-grid-line" d="M 258.5 192 L 258.5 338" opacity="1"></path><path fill="none" data-z-index="1" class="highcharts-grid-line" d="M 300.5 192 L 300.5 338" opacity="1"></path><path fill="none" data-z-index="1" class="highcharts-grid-line" d="M 343.5 192 L 343.5 338" opacity="1"></path><path fill="none" data-z-index="1" class="highcharts-grid-line" d="M 385.5 192 L 385.5 338" opacity="1"></path><path fill="none" data-z-index="1" class="highcharts-grid-line" d="M 427.5 192 L 427.5 338" opacity="1"></path><path fill="none" data-z-index="1" class="highcharts-grid-line" d="M 470.5 192 L 470.5 338" opacity="1"></path></g><g class="highcharts-grid highcharts-yaxis-grid" data-z-index="1"><path fill="none" stroke="#B9CFD7" stroke-width="0.5" data-z-index="1" class="highcharts-grid-line" d="M 43 338.25 L 475 338.25" opacity="1"></path><path fill="none" stroke="#B9CFD7" stroke-width="0.5" data-z-index="1" class="highcharts-grid-line" d="M 43 289.25 L 475 289.25" opacity="1"></path><path fill="none" stroke="#B9CFD7" stroke-width="0.5" data-z-index="1" class="highcharts-grid-line" d="M 43 241.25 L 475 241.25" opacity="1"></path><path fill="none" stroke="#B9CFD7" stroke-width="0.5" data-z-index="1" class="highcharts-grid-line" d="M 43 191.75 L 475 191.75" opacity="1"></path></g><rect fill="none" class="highcharts-plot-border" data-z-index="1" x="43" y="192" width="432" height="146"></rect><g class="highcharts-axis highcharts-xaxis" data-z-index="2"><path fill="none" class="highcharts-axis-line" stroke="#B9CFD7" stroke-width="0.5" data-z-index="7" d="M 43 338.25 L 475 338.25"></path></g><g class="highcharts-axis highcharts-yaxis" data-z-index="2"><path fill="none" class="highcharts-axis-line" data-z-index="7" d="M 43 192 L 43 338"></path></g><g class="highcharts-series-group" data-z-index="3"><g class="highcharts-series highcharts-series-0 highcharts-line-series" data-z-index="0.1" opacity="1" transform="translate(43,192) scale(1 1)" clip-path="url(#highcharts-z8v9o1g-140-)"><path fill="none" d="M 4.2352941176433 141.52266666666668 L 46.588235294115 141.62 L 88.941176470586 141.13333333333333 L 131.29411764706 141.474 L 173.64705882353 141.71733333333333 L 216 141.474 L 258.35294117647 141.57133333333334 L 300.70588235294 141.474 L 343.05882352941 141.71733333333333 L 385.41176470589 141.66866666666667 L 427.76470588236 141.474" class="highcharts-graph" data-z-index="1" stroke="#b00000" stroke-width="2" stroke-linejoin="round" stroke-linecap="round"></path></g><g class="highcharts-markers highcharts-series-0 highcharts-line-series" data-z-index="0.1" opacity="1" transform="translate(43,192) scale(1 1)" clip-path="none"></g><g class="highcharts-series highcharts-series-1 highcharts-line-series" data-z-index="0.1" opacity="1" transform="translate(43,192) scale(1 1)" clip-path="url(#highcharts-z8v9o1g-140-)"><path fill="none" d="M 4.2352941176433 143.518 L 46.588235294115 143.46933333333334 L 88.941176470586 143.03133333333332 L 131.29411764706 142.69066666666666 L 173.64705882353 142.69066666666666 L 216 142.83666666666667 L 258.35294117647 142.30133333333333 L 300.70588235294 142.788 L 343.05882352941 142.83666666666667 L 385.41176470589 142.642 L 427.76470588236 142.788" class="highcharts-graph" data-z-index="1" stroke="#672773" stroke-width="2" stroke-linejoin="round" stroke-linecap="round"></path></g><g class="highcharts-markers highcharts-series-1 highcharts-line-series" data-z-index="0.1" opacity="1" transform="translate(43,192) scale(1 1)" clip-path="none"></g><g class="highcharts-series highcharts-series-2 highcharts-line-series" data-z-index="0.1" opacity="1" transform="translate(43,192) scale(1 1)" clip-path="url(#highcharts-z8v9o1g-140-)"><path fill="none" d="M 4.2352941176433 138.65133333333333 L 46.588235294115 139.77066666666667 L 88.941176470586 138.01866666666666 L 131.29411764706 139.43 L 173.64705882353 140.306 L 216 140.98733333333334 L 258.35294117647 139.81933333333333 L 300.70588235294 139.77066666666667 L 343.05882352941 140.84133333333332 L 385.41176470589 139.67333333333335 L 427.76470588236 140.306" class="highcharts-graph" data-z-index="1" stroke="#007a2f" stroke-width="2" stroke-linejoin="round" stroke-linecap="round"></path></g><g class="highcharts-markers highcharts-series-2 highcharts-line-series" data-z-index="0.1" opacity="1" transform="translate(43,192) scale(1 1)" clip-path="none"></g><g class="highcharts-series highcharts-series-3 highcharts-line-series" data-z-index="0.1" opacity="1" transform="translate(43,192) scale(1 1)" clip-path="url(#highcharts-z8v9o1g-140-)"><path fill="none" d="M 4.2352941176433 130.86466666666666 L 46.588235294115 129.064 L 88.941176470586 126.19266666666667 L 131.29411764706 132.422 L 173.64705882353 133.736 L 216 132.51933333333332 L 258.35294117647 131.78933333333333 L 300.70588235294 132.08133333333333 L 343.05882352941 132.56799999999998 L 385.41176470589 131.15666666666667 L 427.76470588236 133.78466666666665" class="highcharts-graph" data-z-index="1" stroke="#fabd24" stroke-width="2" stroke-linejoin="round" stroke-linecap="round"></path></g><g class="highcharts-markers highcharts-series-3 highcharts-line-series" data-z-index="0.1" opacity="1" transform="translate(43,192) scale(1 1)" clip-path="none"></g><g class="highcharts-series highcharts-series-4 highcharts-line-series" data-z-index="0.1" opacity="1" transform="translate(43,192) scale(1 1)" clip-path="url(#highcharts-z8v9o1g-140-)"><path fill="none" d="M 4.2352941176433 139.38133333333334 L 46.588235294115 139.96533333333332 L 88.941176470586 139.38133333333334 L 131.29411764706 141.182 L 173.64705882353 140.598 L 216 141.42533333333333 L 258.35294117647 141.23066666666668 L 300.70588235294 140.79266666666666 L 343.05882352941 141.328 L 385.41176470589 142.00933333333333 L 427.76470588236 141.66866666666667" class="highcharts-graph" data-z-index="1" stroke="#b475ab" stroke-width="2" stroke-linejoin="round" stroke-linecap="round"></path></g><g class="highcharts-markers highcharts-series-4 highcharts-line-series" data-z-index="0.1" opacity="1" transform="translate(43,192) scale(1 1)" clip-path="none"></g><g class="highcharts-series highcharts-series-5 highcharts-line-series" data-z-index="0.1" opacity="1" transform="translate(43,192) scale(1 1)" clip-path="url(#highcharts-z8v9o1g-140-)"><path fill="none" d="M 4.2352941176433 140.598 L 46.588235294115 140.744 L 88.941176470586 136.802 L 131.29411764706 138.16466666666668 L 173.64705882353 139.04066666666665 L 216 138.554 L 258.35294117647 139.18666666666667 L 300.70588235294 138.11599999999999 L 343.05882352941 138.60266666666666 L 385.41176470589 138.60266666666666 L 427.76470588236 139.18666666666667" class="highcharts-graph" data-z-index="1" stroke="#71a3b5" stroke-width="2" stroke-linejoin="round" stroke-linecap="round"></path></g><g class="highcharts-markers highcharts-series-5 highcharts-line-series" data-z-index="0.1" opacity="1" transform="translate(43,192) scale(1 1)" clip-path="none"></g><g class="highcharts-series highcharts-series-6 highcharts-line-series" data-z-index="0.1" opacity="1" transform="translate(43,192) scale(1 1)" clip-path="url(#highcharts-z8v9o1g-140-)"><path fill="none" d="M 4.2352941176433 133.24933333333334 L 46.588235294115 131.88666666666666 L 88.941176470586 133.882 L 131.29411764706 131.88666666666666 L 173.64705882353 134.51466666666667 L 216 132.37333333333333 L 258.35294117647 133.05466666666666 L 300.70588235294 134.12533333333334 L 343.05882352941 132.90866666666668 L 385.41176470589 134.12533333333334 L 427.76470588236 134.612" class="highcharts-graph" data-z-index="1" stroke="#b9cfd7" stroke-width="2" stroke-linejoin="round" stroke-linecap="round"></path></g><g class="highcharts-markers highcharts-series-6 highcharts-line-series" data-z-index="0.1" opacity="1" transform="translate(43,192) scale(1 1)" clip-path="none"></g><g class="highcharts-series highcharts-series-7 highcharts-line-series" data-z-index="0.1" opacity="1" transform="translate(43,192) scale(1 1)" clip-path="url(#highcharts-z8v9o1g-140-)"><path fill="none" d="M 4.2352941176433 132.17866666666666 L 46.588235294115 127.604 L 88.941176470586 132.86 L 131.29411764706 132.47066666666666 L 173.64705882353 131.49733333333333 L 216 131.692 L 258.35294117647 132.03266666666667 L 300.70588235294 132.13 L 343.05882352941 130.378 L 385.41176470589 128.48 L 427.76470588236 133.736" class="highcharts-graph" data-z-index="1" stroke="#ff8028" stroke-width="2" stroke-linejoin="round" stroke-linecap="round"></path></g><g class="highcharts-markers highcharts-series-7 highcharts-line-series" data-z-index="0.1" opacity="1" transform="translate(43,192) scale(1 1)" clip-path="none"></g><g class="highcharts-series highcharts-series-8 highcharts-line-series" data-z-index="0.1" opacity="1" transform="translate(43,192) scale(1 1)" clip-path="url(#highcharts-z8v9o1g-140-)"><path fill="none" d="M 4.2352941176433 104.73066666666666 L 46.588235294115 108.186 L 88.941176470586 19.22333333333333 L 131.29411764706 74.11933333333333 L 173.64705882353 93.82933333333332 L 216 104.244 L 258.35294117647 114.36666666666666 L 300.70588235294 96.60333333333332 L 343.05882352941 115.048 L 385.41176470589 116.216 L 427.76470588236 107.26133333333334" class="highcharts-graph" data-z-index="1" stroke="#73ba7c" stroke-width="2" stroke-linejoin="round" stroke-linecap="round"></path></g><g class="highcharts-markers highcharts-series-8 highcharts-line-series" data-z-index="0.1" opacity="1" transform="translate(43,192) scale(1 1)" clip-path="none"></g><g class="highcharts-series highcharts-series-9 highcharts-line-series" data-z-index="0.1" opacity="1" transform="translate(43,192) scale(1 1)" clip-path="url(#highcharts-z8v9o1g-140-)"><path fill="none" d="M 4.2352941176433 111.106 L 46.588235294115 104.536 L 88.941176470586 109.59733333333332 L 131.29411764706 116.07 L 173.64705882353 116.60533333333333 L 216 123.078 L 258.35294117647 121.22866666666667 L 300.70588235294 123.17533333333333 L 343.05882352941 122.44533333333334 L 385.41176470589 116.60533333333333 L 427.76470588236 125.70599999999999" class="highcharts-graph" data-z-index="1" stroke="#9f7c5a" stroke-width="2" stroke-linejoin="round" stroke-linecap="round"></path></g><g class="highcharts-markers highcharts-series-9 highcharts-line-series" data-z-index="0.1" opacity="1" transform="translate(43,192) scale(1 1)" clip-path="none"></g><g class="highcharts-series highcharts-series-10 highcharts-line-series" data-z-index="0.1" opacity="1" transform="translate(43,192) scale(1 1)" clip-path="url(#highcharts-z8v9o1g-140-)"><path fill="none" d="M 4.2352941176433 136.802 L 46.588235294115 137.824 L 88.941176470586 137.48333333333332 L 131.29411764706 139.04066666666665 L 173.64705882353 139.23533333333333 L 216 139.52733333333333 L 258.35294117647 139.81933333333333 L 300.70588235294 138.11599999999999 L 343.05882352941 139.81933333333333 L 385.41176470589 138.94333333333333 L 427.76470588236 140.54933333333332" class="highcharts-graph" data-z-index="1" stroke="#999999" stroke-width="2" stroke-linejoin="round" stroke-linecap="round"></path></g><g class="highcharts-markers highcharts-series-10 highcharts-line-series" data-z-index="0.1" opacity="1" transform="translate(43,192) scale(1 1)" clip-path="none"></g></g><text x="10" text-anchor="start" class="highcharts-title" data-z-index="4" style="color:#000000;font-size:14px;font-weight:bold;fill:#000000;" y="21"><tspan>Beschuldigte Erwachsene</tspan></text><text x="10" text-anchor="start" class="highcharts-subtitle" data-z-index="4" style="color:#000000;font-size:12px;font-weight:normal;fill:#000000;" y="40"><tspan>pro 1000 Erwachsene, Basel-Stadt</tspan></text><text x="10" text-anchor="start" class="highcharts-caption" data-z-index="4" style="color:#666666;fill:#666666;" y="370"></text><g class="highcharts-legend" data-z-index="7" transform="translate(35,55)"><rect fill="none" class="highcharts-legend-box" rx="0" ry="0" x="0" y="0" width="309" height="125" visibility="visible"></rect><g data-z-index="1"><g><g class="highcharts-legend-item highcharts-line-series highcharts-color-undefined highcharts-series-0" data-z-index="1" transform="translate(8,3)"><path fill="none" d="M 0 11 L 16 11" class="highcharts-graph" stroke="#b00000" stroke-width="2"></path><text x="21" style="color:#333333;cursor:pointer;font-size:12px;font-weight:normal;fill:#333333;" text-anchor="start" data-z-index="2" y="15"><tspan>Schweiz</tspan></text></g><g class="highcharts-legend-item highcharts-line-series highcharts-color-undefined highcharts-series-1" data-z-index="1" transform="translate(157.265625,3)"><path fill="none" d="M 0 11 L 16 11" class="highcharts-graph" stroke="#672773" stroke-width="2"></path><text x="21" y="15" style="color:#333333;cursor:pointer;font-size:12px;font-weight:normal;fill:#333333;" text-anchor="start" data-z-index="2"><tspan>Deutschland</tspan></text></g><g class="highcharts-legend-item highcharts-line-series highcharts-color-undefined highcharts-series-2" data-z-index="1" transform="translate(8,22)"><path fill="none" d="M 0 11 L 16 11" class="highcharts-graph" stroke="#007a2f" stroke-width="2"></path><text x="21" y="15" style="color:#333333;cursor:pointer;font-size:12px;font-weight:normal;fill:#333333;" text-anchor="start" data-z-index="2"><tspan>Italien</tspan></text></g><g class="highcharts-legend-item highcharts-line-series highcharts-color-undefined highcharts-series-3" data-z-index="1" transform="translate(157.265625,22)"><path fill="none" d="M 0 11 L 16 11" class="highcharts-graph" stroke="#fabd24" stroke-width="2"></path><text x="21" y="15" style="color:#333333;cursor:pointer;font-size:12px;font-weight:normal;fill:#333333;" text-anchor="start" data-z-index="2"><tspan>Türkei</tspan></text></g><g class="highcharts-legend-item highcharts-line-series highcharts-color-undefined highcharts-series-4" data-z-index="1" transform="translate(8,41)"><path fill="none" d="M 0 11 L 16 11" class="highcharts-graph" stroke="#b475ab" stroke-width="2"></path><text x="21" y="15" style="color:#333333;cursor:pointer;font-size:12px;font-weight:normal;fill:#333333;" text-anchor="start" data-z-index="2"><tspan>EU-17 + EFTA</tspan></text></g><g class="highcharts-legend-item highcharts-line-series highcharts-color-undefined highcharts-series-5" data-z-index="1" transform="translate(157.265625,41)"><path fill="none" d="M 0 11 L 16 11" class="highcharts-graph" stroke="#71a3b5" stroke-width="2"></path><text x="21" y="15" style="color:#333333;cursor:pointer;font-size:12px;font-weight:normal;fill:#333333;" text-anchor="start" data-z-index="2"><tspan>EU-Ost</tspan></text></g><g class="highcharts-legend-item highcharts-line-series highcharts-color-undefined highcharts-series-6" data-z-index="1" transform="translate(8,60)"><path fill="none" d="M 0 11 L 16 11" class="highcharts-graph" stroke="#b9cfd7" stroke-width="2"></path><text x="21" y="15" style="color:#333333;cursor:pointer;font-size:12px;font-weight:normal;fill:#333333;" text-anchor="start" data-z-index="2"><tspan>Balkan</tspan></text></g><g class="highcharts-legend-item highcharts-line-series highcharts-color-undefined highcharts-series-7" data-z-index="1" transform="translate(157.265625,60)"><path fill="none" d="M 0 11 L 16 11" class="highcharts-graph" stroke="#ff8028" stroke-width="2"></path><text x="21" y="15" style="color:#333333;cursor:pointer;font-size:12px;font-weight:normal;fill:#333333;" text-anchor="start" data-z-index="2"><tspan>Mittel- und Südamerika</tspan></text></g><g class="highcharts-legend-item highcharts-line-series highcharts-color-undefined highcharts-series-8" data-z-index="1" transform="translate(8,79)"><path fill="none" d="M 0 11 L 16 11" class="highcharts-graph" stroke="#73ba7c" stroke-width="2"></path><text x="21" y="15" style="color:#333333;cursor:pointer;font-size:12px;font-weight:normal;fill:#333333;" text-anchor="start" data-z-index="2"><tspan>Arabische Länder</tspan></text></g><g class="highcharts-legend-item highcharts-line-series highcharts-color-undefined highcharts-series-9" data-z-index="1" transform="translate(157.265625,79)"><path fill="none" d="M 0 11 L 16 11" class="highcharts-graph" stroke="#9f7c5a" stroke-width="2"></path><text x="21" y="15" style="color:#333333;cursor:pointer;font-size:12px;font-weight:normal;fill:#333333;" text-anchor="start" data-z-index="2"><tspan>Afrikanische Länder</tspan></text></g><g class="highcharts-legend-item highcharts-line-series highcharts-color-undefined highcharts-series-10" data-z-index="1" transform="translate(8,98)"><path fill="none" d="M 0 11 L 16 11" class="highcharts-graph" stroke="#999999" stroke-width="2"></path><text x="21" y="15" style="color:#333333;cursor:pointer;font-size:12px;font-weight:normal;fill:#333333;" text-anchor="start" data-z-index="2"><tspan>Übrige Länder</tspan></text></g></g></g></g><g class="highcharts-axis-labels highcharts-xaxis-labels" data-z-index="7"><text x="47.235294117643" style="color:#000000;cursor:default;font-size:11px;fill:#000000;" text-anchor="middle" transform="translate(0,0)" y="357" opacity="1">2009</text><text x="89.588235294115" style="color:#000000;cursor:default;font-size:11px;fill:#000000;" text-anchor="middle" transform="translate(0,0)" y="357" opacity="1">2010</text><text x="131.94117647059" style="color:#000000;cursor:default;font-size:11px;fill:#000000;" text-anchor="middle" transform="translate(0,0)" y="357" opacity="1">2011</text><text x="174.29411764706" style="color:#000000;cursor:default;font-size:11px;fill:#000000;" text-anchor="middle" transform="translate(0,0)" y="357" opacity="1">2012</text><text x="216.64705882353" style="color:#000000;cursor:default;font-size:11px;fill:#000000;" text-anchor="middle" transform="translate(0,0)" y="357" opacity="1">2013</text><text x="259" style="color:#000000;cursor:default;font-size:11px;fill:#000000;" text-anchor="middle" transform="translate(0,0)" y="357" opacity="1">2014</text><text x="301.35294117647" style="color:#000000;cursor:default;font-size:11px;fill:#000000;" text-anchor="middle" transform="translate(0,0)" y="357" opacity="1">2015</text><text x="343.70588235294" style="color:#000000;cursor:default;font-size:11px;fill:#000000;" text-anchor="middle" transform="translate(0,0)" y="357" opacity="1">2016</text><text x="386.05882352941" style="color:#000000;cursor:default;font-size:11px;fill:#000000;" text-anchor="middle" transform="translate(0,0)" y="357" opacity="1">2017</text><text x="428.41176470589" style="color:#000000;cursor:default;font-size:11px;fill:#000000;" text-anchor="middle" transform="translate(0,0)" y="357" opacity="1">2018</text><text x="462.78125" style="color:#000000;cursor:default;font-size:11px;fill:#000000;" text-anchor="middle" transform="translate(0,0)" y="357" opacity="1">2019</text></g><g class="highcharts-axis-labels highcharts-yaxis-labels" data-z-index="7"><text x="28" style="color:#000000;cursor:default;font-size:11px;fill:#000000;" text-anchor="end" transform="translate(0,0)" y="343" opacity="1">0</text><text x="28" style="color:#000000;cursor:default;font-size:11px;fill:#000000;" text-anchor="end" transform="translate(0,0)" y="294" opacity="1">100</text><text x="28" style="color:#000000;cursor:default;font-size:11px;fill:#000000;" text-anchor="end" transform="translate(0,0)" y="246" opacity="1">200</text><text x="28" style="color:#000000;cursor:default;font-size:11px;fill:#000000;" text-anchor="end" transform="translate(0,0)" y="197" opacity="1">300</text></g><text x="10" class="highcharts-credits" text-anchor="start" data-z-index="8" style="cursor:default;color:#000000;font-size:10px;fill:#000000;" y="393"><tspan>Quelle: Statistisches Amt Basel-Stadt, Bevölkerungsstatistik;</tspan><tspan x="10" dy="13">Bundesamt für Statistik (BFS), Polizeiliche Kriminalstatistik (PKS).</tspan><tspan x="10" dy="13">Zuletzt geändert: 2020-6-22</tspan></text><g class="highcharts-control-points" data-z-index="99" clip-path="url(#highcharts-z8v9o1g-251-)"></g></svg>