<?xml version="1.0" standalone="no"?>
<!DOCTYPE svg PUBLIC "-//W3C//DTD SVG 1.1//EN" "http://www.w3.org/Graphics/SVG/1.1/DTD/svg11.dtd">
<svg xmlns:xlink="http://www.w3.org/1999/xlink" version="1.1" class="highcharts-root" style="font-family:Arial;font-size:12px;" xmlns="http://www.w3.org/2000/svg" viewBox="0 0 485 415">
  <desc>
    Created with Highstock 6.0.4
  </desc>
  <defs>
    <clipPath>
      <rect x="0" y="0" width="438" height="183" fill="none"/>
    </clipPath>
    <clipPath id="a">
      <rect x="0" y="0" width="438" height="183" fill="none"/>
    </clipPath>
  </defs>
  <rect fill="#fbfbfb" class="highcharts-background" x="0" y="0" width="485" height="415" rx="0" ry="0"/>
  <rect fill="none" class="highcharts-plot-background" x="37" y="196" width="438" height="183"/>
  <g class="highcharts-pane-group"/>
  <g class="highcharts-grid highcharts-xaxis-grid ">
    <path fill="none" class="highcharts-grid-line" d="M 474.5 196 L 474.5 379" opacity="1"/>
    <path fill="none" class="highcharts-grid-line" d="M 36.5 196 L 36.5 379" opacity="1"/>
  </g>
  <g class="highcharts-grid highcharts-yaxis-grid ">
    <path fill="none" stroke="#B9CFD7" stroke-width="0.5" class="highcharts-grid-line" d="M 37 379.25 L 475 379.25" opacity="1"/>
    <path fill="none" stroke="#B9CFD7" stroke-width="0.5" class="highcharts-grid-line" d="M 37 318.25 L 475 318.25" opacity="1"/>
    <path fill="none" stroke="#B9CFD7" stroke-width="0.5" class="highcharts-grid-line" d="M 37 257.25 L 475 257.25" opacity="1"/>
    <path fill="none" stroke="#B9CFD7" stroke-width="0.5" class="highcharts-grid-line" d="M 37 195.75 L 475 195.75" opacity="1"/>
  </g>
  <rect fill="none" class="highcharts-plot-border" x="37" y="196" width="438" height="183"/>
  <g class="highcharts-axis highcharts-xaxis ">
    <path fill="none" class="highcharts-axis-line" stroke="#B9CFD7" stroke-width="0.5" d="M 37 379.25 L 475 379.25"/>
  </g>
  <g class="highcharts-axis highcharts-yaxis ">
    <path fill="none" class="highcharts-axis-line" d="M 37 196 L 37 379"/>
  </g>
  <g class="highcharts-series-group">
    <g class="highcharts-series highcharts-series-0 highcharts-column-series " transform="translate(37,196) scale(1 1)" clip-path="url(#a)">
      <rect x="88" y="113" width="65" height="71" fill="#661200" class="highcharts-point"/>
      <rect x="88" y="123" width="65" height="61" fill="#661200" class="highcharts-point"/>
      <rect x="88" y="128" width="65" height="56" fill="#661200" class="highcharts-point"/>
      <rect x="88" y="148" width="65" height="36" fill="#661200" class="highcharts-point"/>
      <rect x="88" y="172" width="65" height="12" fill="#661200" class="highcharts-point"/>
    </g>
    <g class="highcharts-markers highcharts-series-0 highcharts-column-series " transform="translate(37,196) scale(1 1)" clip-path="none"/>
    <g class="highcharts-series highcharts-series-1 highcharts-column-series " transform="translate(37,196) scale(1 1)" clip-path="url(#a)">
      <rect x="153" y="164" width="66" height="20" fill="#dc440e" class="highcharts-point"/>
      <rect x="153" y="170" width="66" height="14" fill="#dc440e" class="highcharts-point"/>
      <rect x="153" y="163" width="66" height="21" fill="#dc440e" class="highcharts-point"/>
      <rect x="153" y="173" width="66" height="11" fill="#dc440e" class="highcharts-point"/>
      <rect x="153" y="182" width="66" height="2" fill="#dc440e" class="highcharts-point"/>
    </g>
    <g class="highcharts-markers highcharts-series-1 highcharts-column-series " transform="translate(37,196) scale(1 1)" clip-path="none"/>
    <g class="highcharts-series highcharts-series-2 highcharts-column-series " transform="translate(37,196) scale(1 1)" clip-path="url(#a)">
      <rect x="219" y="36" width="66" height="148" fill="#7f5f1a" class="highcharts-point"/>
      <rect x="219" y="107" width="66" height="77" fill="#7f5f1a" class="highcharts-point"/>
      <rect x="219" y="107" width="66" height="77" fill="#7f5f1a" class="highcharts-point"/>
      <rect x="219" y="145" width="66" height="39" fill="#7f5f1a" class="highcharts-point"/>
      <rect x="219" y="170" width="66" height="14" fill="#7f5f1a" class="highcharts-point"/>
    </g>
    <g class="highcharts-markers highcharts-series-2 highcharts-column-series " transform="translate(37,196) scale(1 1)" clip-path="none"/>
    <g class="highcharts-series highcharts-series-3 highcharts-column-series " transform="translate(37,196) scale(1 1)" clip-path="url(#a)">
      <rect x="285" y="154" width="65" height="30" fill="#ffda80" class="highcharts-point"/>
      <rect x="285" y="164" width="65" height="20" fill="#ffda80" class="highcharts-point"/>
      <rect x="285" y="162" width="65" height="22" fill="#ffda80" class="highcharts-point"/>
      <rect x="285" y="169" width="65" height="15" fill="#ffda80" class="highcharts-point"/>
      <rect x="285" y="177" width="65" height="7" fill="#ffda80" class="highcharts-point"/>
    </g>
    <g class="highcharts-markers highcharts-series-3 highcharts-column-series " transform="translate(37,196) scale(1 1)" clip-path="none"/>
  </g>
  <text x="10" text-anchor="start" class="highcharts-title" style="color:#000000;font-size:14px;font-weight:bold;fill:#000000;" y="21">
    <tspan>Beschuldigte (Wohnkanton BS) ab 18 Jahren pro 1 000</tspan><tspan dy="17" x="10">Erwachsene nach Staatsangehörigkeit (CH/A), Geschlecht und</tspan><tspan dy="17" x="10">Alter</tspan><title> Beschuldigte (Wohnkanton BS) ab 18 Jahren pro 1 000 Erwachsene nach Staatsangehörigkeit (CH/A), Geschlecht und Alter</title>
  </text>
  <text x="10" text-anchor="start" class="highcharts-subtitle" style="color:#000000;font-size:12px;font-weight:normal;font-family:Arial;fill:#000000;" y="74">
    <tspan>Stand: 2009</tspan>
  </text>
  <g class="highcharts-legend" transform="translate(29,159)">
    <rect fill="none" class="highcharts-legend-box" rx="0" ry="0" x="0" y="0" width="396" height="25" visibility="visible"/>
    <g>
      <g>
        <g class="highcharts-legend-item highcharts-column-series highcharts-color-undefined highcharts-series-0" transform="translate(8,3)">
          <text x="21" style="color:#333333;font-size:12px;font-weight:normal;cursor:pointer;fill:#333333;" text-anchor="start" y="15">
            <tspan>Schweizer</tspan>
          </text>
          <rect x="2" y="4" width="12" height="12" fill="#661200" class="highcharts-point"/>
        </g>
        <g class="highcharts-legend-item highcharts-column-series highcharts-color-undefined highcharts-series-1" transform="translate(108,3)">
          <text x="21" y="15" style="color:#333333;font-size:12px;font-weight:normal;cursor:pointer;fill:#333333;" text-anchor="start">
            <tspan>Schweiz…</tspan><title>Schweizerin</title>
          </text>
          <rect x="2" y="4" width="12" height="12" fill="#dc440e" class="highcharts-point"/>
        </g>
        <g class="highcharts-legend-item highcharts-column-series highcharts-color-undefined highcharts-series-2" transform="translate(208,3)">
          <text x="21" y="15" style="color:#333333;font-size:12px;font-weight:normal;cursor:pointer;fill:#333333;" text-anchor="start">
            <tspan>Ausländer</tspan>
          </text>
          <rect x="2" y="4" width="12" height="12" fill="#7f5f1a" class="highcharts-point"/>
        </g>
        <g class="highcharts-legend-item highcharts-column-series highcharts-color-undefined highcharts-series-3" transform="translate(308,3)">
          <text x="21" y="15" style="color:#333333;font-size:12px;font-weight:normal;cursor:pointer;fill:#333333;" text-anchor="start">
            <tspan>Ausländ…</tspan><title>Ausländerin</title>
          </text>
          <rect x="2" y="4" width="12" height="12" fill="#ffda80" class="highcharts-point"/>
        </g>
      </g>
    </g>
  </g>
  <g class="highcharts-axis-labels highcharts-xaxis-labels ">
    <text x="256" style="color:#000000;cursor:default;font-size:11px;fill:#000000;" text-anchor="middle" transform="translate(0,0)" y="398" opacity="1">
      <tspan>18-24 Jahre</tspan>
    </text>
  </g>
  <g class="highcharts-axis-labels highcharts-yaxis-labels ">
    <text x="22" style="color:#000000;cursor:default;font-size:11px;fill:#000000;" text-anchor="end" transform="translate(0,0)" y="384" opacity="1">
      <tspan>0</tspan>
    </text>
    <text x="22" style="color:#000000;cursor:default;font-size:11px;fill:#000000;" text-anchor="end" transform="translate(0,0)" y="323" opacity="1">
      <tspan>25</tspan>
    </text>
    <text x="22" style="color:#000000;cursor:default;font-size:11px;fill:#000000;" text-anchor="end" transform="translate(0,0)" y="262" opacity="1">
      <tspan>50</tspan>
    </text>
    <text x="22" style="color:#000000;cursor:default;font-size:11px;fill:#000000;" text-anchor="end" transform="translate(0,0)" y="201" opacity="1">
      <tspan>75</tspan>
    </text>
  </g>
  <text x="10" class="highcharts-credits" text-anchor="start" style="cursor:default;color:#000000;font-size:10px;fill:#000000;" y="410">
    <tspan>Quelle:</tspan>
  </text>
</svg>
