<?xml version="1.0" standalone="no"?><!DOCTYPE svg PUBLIC "-//W3C//DTD SVG 1.1//EN" "http://www.w3.org/Graphics/SVG/1.1/DTD/svg11.dtd"><svg xmlns:xlink="http://www.w3.org/1999/xlink" version="1.1" class="highcharts-root" style="font-family:Arial;font-size:12px;" xmlns="http://www.w3.org/2000/svg" viewBox="0 0 485 415"><desc>Created with Highcharts 8.0.0</desc><defs><clipPath id="highcharts-3aexxw4-62-"><rect x="0" y="0" width="438" height="208" fill="none"></rect></clipPath><clipPath id="highcharts-3aexxw4-71-"><rect x="0" y="0" width="438" height="208" fill="none"></rect></clipPath></defs><rect fill="#fbfbfb" class="highcharts-background" x="0" y="0" width="485" height="428" rx="0" ry="0"></rect><rect fill="none" class="highcharts-plot-background" x="37" y="135" width="438" height="208"></rect><g class="highcharts-pane-group" data-z-index="0"></g><g class="highcharts-grid highcharts-xaxis-grid" data-z-index="1"><path fill="none" data-z-index="1" class="highcharts-grid-line" d="M 40.5 135 L 40.5 343" opacity="1"></path><path fill="none" data-z-index="1" class="highcharts-grid-line" d="M 102.5 135 L 102.5 343" opacity="1"></path><path fill="none" data-z-index="1" class="highcharts-grid-line" d="M 163.5 135 L 163.5 343" opacity="1"></path><path fill="none" data-z-index="1" class="highcharts-grid-line" d="M 224.5 135 L 224.5 343" opacity="1"></path><path fill="none" data-z-index="1" class="highcharts-grid-line" d="M 286.5 135 L 286.5 343" opacity="1"></path><path fill="none" data-z-index="1" class="highcharts-grid-line" d="M 347.5 135 L 347.5 343" opacity="1"></path><path fill="none" data-z-index="1" class="highcharts-grid-line" d="M 408.5 135 L 408.5 343" opacity="1"></path><path fill="none" data-z-index="1" class="highcharts-grid-line" d="M 470.5 135 L 470.5 343" opacity="1"></path></g><g class="highcharts-grid highcharts-yaxis-grid" data-z-index="1"><path fill="none" stroke="#B9CFD7" stroke-width="0.5" data-z-index="1" class="highcharts-grid-line" d="M 37 343.25 L 475 343.25" opacity="1"></path><path fill="none" stroke="#B9CFD7" stroke-width="0.5" data-z-index="1" class="highcharts-grid-line" d="M 37 291.25 L 475 291.25" opacity="1"></path><path fill="none" stroke="#B9CFD7" stroke-width="0.5" data-z-index="1" class="highcharts-grid-line" d="M 37 239.25 L 475 239.25" opacity="1"></path><path fill="none" stroke="#B9CFD7" stroke-width="0.5" data-z-index="1" class="highcharts-grid-line" d="M 37 187.25 L 475 187.25" opacity="1"></path><path fill="none" stroke="#B9CFD7" stroke-width="0.5" data-z-index="1" class="highcharts-grid-line" d="M 37 134.75 L 475 134.75" opacity="1"></path></g><rect fill="none" class="highcharts-plot-border" data-z-index="1" x="37" y="135" width="438" height="208"></rect><g class="highcharts-axis highcharts-xaxis" data-z-index="2"><path fill="none" class="highcharts-axis-line" stroke="#B9CFD7" stroke-width="0.5" data-z-index="7" d="M 37 343.25 L 475 343.25"></path></g><g class="highcharts-axis highcharts-yaxis" data-z-index="2"><path fill="none" class="highcharts-axis-line" data-z-index="7" d="M 37 135 L 37 343"></path></g><g class="highcharts-series-group" data-z-index="3"><g data-z-index="0.1" class="highcharts-series highcharts-series-0 highcharts-line-series" transform="translate(37,135) scale(1 1)" clip-path="url(#highcharts-3aexxw4-71-)"><path fill="none" d="M 4.294117647055 142.48000000000002 L 65.638655462182 118.56 L 126.98319327731 113.36 L 188.32773109244 122.72 L 249.67226890756 131.56 L 311.01680672269 137.28 L 372.36134453782 120.12 L 433.70588235295 127.92" class="highcharts-graph" data-z-index="1" stroke="#b00000" stroke-width="2" stroke-linejoin="round" stroke-linecap="round"></path></g><g data-z-index="0.1" class="highcharts-markers highcharts-series-0 highcharts-line-series" transform="translate(37,135) scale(1 1)" clip-path="none"></g><g data-z-index="0.1" class="highcharts-series highcharts-series-1 highcharts-line-series" transform="translate(37,135) scale(1 1)" clip-path="url(#highcharts-3aexxw4-71-)"><path fill="none" d="M 4.294117647055 171.6 L 65.638655462182 163.28 L 126.98319327731 144.56 L 188.32773109244 147.16 L 249.67226890756 152.36 L 311.01680672269 163.8 L 372.36134453782 172.12 L 433.70588235295 165.88" class="highcharts-graph" data-z-index="1" stroke="#672773" stroke-width="2" stroke-linejoin="round" stroke-linecap="round"></path></g><g data-z-index="0.1" class="highcharts-markers highcharts-series-1 highcharts-line-series" transform="translate(37,135) scale(1 1)" clip-path="none"></g><g data-z-index="0.1" class="highcharts-series highcharts-series-2 highcharts-line-series" transform="translate(37,135) scale(1 1)" clip-path="url(#highcharts-3aexxw4-71-)"><path fill="none" d="M 4.294117647055 160.68 L 65.638655462182 113.36 L 126.98319327731 149.76 L 188.32773109244 106.6 L 249.67226890756 92.56 L 311.01680672269 117.52000000000001 L 372.36134453782 149.24 L 433.70588235295 126.36" class="highcharts-graph" data-z-index="1" stroke="#007a2f" stroke-width="2" stroke-linejoin="round" stroke-linecap="round"></path></g><g data-z-index="0.1" class="highcharts-markers highcharts-series-2 highcharts-line-series" transform="translate(37,135) scale(1 1)" clip-path="none"></g><g data-z-index="0.1" class="highcharts-series highcharts-series-3 highcharts-line-series" transform="translate(37,135) scale(1 1)" clip-path="url(#highcharts-3aexxw4-71-)"><path fill="none" d="M 4.294117647055 96.2 L 65.638655462182 8.840000000000003 L 126.98319327731 93.07999999999998 L 188.32773109244 101.39999999999999 L 249.67226890756 104.52000000000001 L 311.01680672269 112.83999999999999 L 372.36134453782 109.2 L 433.70588235295 24.439999999999998" class="highcharts-graph" data-z-index="1" stroke="#fabd24" stroke-width="2" stroke-linejoin="round" stroke-linecap="round"></path></g><g data-z-index="0.1" class="highcharts-markers highcharts-series-3 highcharts-line-series" transform="translate(37,135) scale(1 1)" clip-path="none"></g><g data-z-index="0.1" class="highcharts-series highcharts-series-4 highcharts-line-series" transform="translate(37,135) scale(1 1)" clip-path="url(#highcharts-3aexxw4-71-)"><path fill="none" d="M 4.294117647055 81.12 L 65.638655462182 137.28 L 126.98319327731 88.39999999999999 L 188.32773109244 103.47999999999999 L 249.67226890756 146.12 L 311.01680672269 141.96 L 372.36134453782 150.28 L 433.70588235295 130.51999999999998" class="highcharts-graph" data-z-index="1" stroke="#b475ab" stroke-width="2" stroke-linejoin="round" stroke-linecap="round"></path></g><g data-z-index="0.1" class="highcharts-markers highcharts-series-4 highcharts-line-series" transform="translate(37,135) scale(1 1)" clip-path="none"></g><g data-z-index="0.1" class="highcharts-series highcharts-series-5 highcharts-line-series" transform="translate(37,135) scale(1 1)" clip-path="url(#highcharts-3aexxw4-71-)"><path fill="none" d="M 4.294117647055 92.56 L 65.638655462182 38.47999999999999 L 126.98319327731 51.47999999999999 L 188.32773109244 145.6 L 249.67226890756 97.76 L 311.01680672269 78.52000000000001 L 372.36134453782 93.07999999999998 L 433.70588235295 144.56" class="highcharts-graph" data-z-index="1" stroke="#b9cfd7" stroke-width="2" stroke-linejoin="round" stroke-linecap="round"></path></g><g data-z-index="0.1" class="highcharts-markers highcharts-series-5 highcharts-line-series" transform="translate(37,135) scale(1 1)" clip-path="none"></g><g data-z-index="0.1" class="highcharts-series highcharts-series-6 highcharts-line-series" transform="translate(37,135) scale(1 1)" clip-path="url(#highcharts-3aexxw4-71-)"><path fill="none" d="M 4.294117647055 9.879999999999995 L 65.638655462182 28.599999999999994 L 126.98319327731 24.439999999999998 L 188.32773109244 51.47999999999999 L 249.67226890756 104.52000000000001 L 311.01680672269 125.83999999999999 L 372.36134453782 76.44 L 433.70588235295 69.67999999999998" class="highcharts-graph" data-z-index="1" stroke="#999999" stroke-width="2" stroke-linejoin="round" stroke-linecap="round"></path></g><g data-z-index="0.1" class="highcharts-markers highcharts-series-6 highcharts-line-series" transform="translate(37,135) scale(1 1)" clip-path="none"></g></g><text x="10" text-anchor="start" class="highcharts-title" data-z-index="4" style="color:#000000;font-size:14px;font-weight:bold;fill:#000000;" y="21"><tspan>Beschuldigte Jugendliche</tspan></text><text x="10" text-anchor="start" class="highcharts-subtitle" data-z-index="4" style="color:#000000;font-size:12px;font-weight:normal;font-family:Arial;fill:#000000;" y="40"><tspan>pro 1000 Jugendliche, nach Staatsangehörigkeit, Basel-Stadt</tspan></text><text x="10" text-anchor="start" class="highcharts-caption" data-z-index="4" style="color:#666666;fill:#666666;" y="375"></text><g class="highcharts-legend" data-z-index="7" transform="translate(29,55)"><rect fill="none" class="highcharts-legend-box" rx="0" ry="0" x="0" y="0" width="416" height="68" visibility="visible"></rect><g data-z-index="1"><g><g class="highcharts-legend-item highcharts-line-series highcharts-color-undefined highcharts-series-0" data-z-index="1" transform="translate(8,3)"><path fill="none" d="M 0 11 L 16 11" class="highcharts-graph" stroke="#b00000" stroke-width="2"></path><text x="21" style="color:#333333;cursor:pointer;font-size:12px;font-weight:normal;fill:#333333;" text-anchor="start" data-z-index="2" y="15"><tspan>Schweiz</tspan></text></g><g class="highcharts-legend-item highcharts-line-series highcharts-color-undefined highcharts-series-1" data-z-index="1" transform="translate(148,3)"><path fill="none" d="M 0 11 L 16 11" class="highcharts-graph" stroke="#672773" stroke-width="2"></path><text x="21" y="15" style="color:#333333;cursor:pointer;font-size:12px;font-weight:normal;fill:#333333;" text-anchor="start" data-z-index="2"><tspan>Deutschland</tspan></text></g><g class="highcharts-legend-item highcharts-line-series highcharts-color-undefined highcharts-series-2" data-z-index="1" transform="translate(288,3)"><path fill="none" d="M 0 11 L 16 11" class="highcharts-graph" stroke="#007a2f" stroke-width="2"></path><text x="21" y="15" style="color:#333333;cursor:pointer;font-size:12px;font-weight:normal;fill:#333333;" text-anchor="start" data-z-index="2"><tspan>Italien</tspan></text></g><g class="highcharts-legend-item highcharts-line-series highcharts-color-undefined highcharts-series-3" data-z-index="1" transform="translate(8,22)"><path fill="none" d="M 0 11 L 16 11" class="highcharts-graph" stroke="#fabd24" stroke-width="2"></path><text x="21" y="15" style="color:#333333;cursor:pointer;font-size:12px;font-weight:normal;fill:#333333;" text-anchor="start" data-z-index="2"><tspan>Türkei</tspan></text></g><g class="highcharts-legend-item highcharts-line-series highcharts-color-undefined highcharts-series-4" data-z-index="1" transform="translate(148,22)"><path fill="none" d="M 0 11 L 16 11" class="highcharts-graph" stroke="#b475ab" stroke-width="2"></path><text x="21" y="15" style="color:#333333;cursor:pointer;font-size:12px;font-weight:normal;fill:#333333;" text-anchor="start" data-z-index="2"><tspan>EU-17 + EFTA</tspan></text></g><g class="highcharts-legend-item highcharts-line-series highcharts-color-undefined highcharts-series-5" data-z-index="1" transform="translate(288,22)"><path fill="none" d="M 0 11 L 16 11" class="highcharts-graph" stroke="#b9cfd7" stroke-width="2"></path><text x="21" y="15" style="color:#333333;cursor:pointer;font-size:12px;font-weight:normal;fill:#333333;" text-anchor="start" data-z-index="2"><tspan>Balkan</tspan></text></g><g class="highcharts-legend-item highcharts-line-series highcharts-color-undefined highcharts-series-6" data-z-index="1" transform="translate(8,41)"><path fill="none" d="M 0 11 L 16 11" class="highcharts-graph" stroke="#999999" stroke-width="2"></path><text x="21" y="15" style="color:#333333;cursor:pointer;font-size:12px;font-weight:normal;fill:#333333;" text-anchor="start" data-z-index="2"><tspan>Übrige Länder</tspan></text></g></g></g></g><g class="highcharts-axis-labels highcharts-xaxis-labels" data-z-index="7"><text x="41.294117647055" style="color:#000000;cursor:default;font-size:11px;fill:#000000;" text-anchor="middle" transform="translate(0,0)" y="362" opacity="1">2011</text><text x="102.63865546218" style="color:#000000;cursor:default;font-size:11px;fill:#000000;" text-anchor="middle" transform="translate(0,0)" y="362" opacity="1">2012</text><text x="163.98319327731" style="color:#000000;cursor:default;font-size:11px;fill:#000000;" text-anchor="middle" transform="translate(0,0)" y="362" opacity="1">2013</text><text x="225.32773109244" style="color:#000000;cursor:default;font-size:11px;fill:#000000;" text-anchor="middle" transform="translate(0,0)" y="362" opacity="1">2014</text><text x="286.67226890756" style="color:#000000;cursor:default;font-size:11px;fill:#000000;" text-anchor="middle" transform="translate(0,0)" y="362" opacity="1">2015</text><text x="348.01680672269" style="color:#000000;cursor:default;font-size:11px;fill:#000000;" text-anchor="middle" transform="translate(0,0)" y="362" opacity="1">2016</text><text x="409.36134453782" style="color:#000000;cursor:default;font-size:11px;fill:#000000;" text-anchor="middle" transform="translate(0,0)" y="362" opacity="1">2017</text><text x="462.78125" style="color:#000000;cursor:default;font-size:11px;fill:#000000;" text-anchor="middle" transform="translate(0,0)" y="362" opacity="1">2018</text></g><g class="highcharts-axis-labels highcharts-yaxis-labels" data-z-index="7"><text x="22" style="color:#000000;cursor:default;font-size:11px;fill:#000000;" text-anchor="end" transform="translate(0,0)" y="348" opacity="1">0</text><text x="22" style="color:#000000;cursor:default;font-size:11px;fill:#000000;" text-anchor="end" transform="translate(0,0)" y="296" opacity="1">10</text><text x="22" style="color:#000000;cursor:default;font-size:11px;fill:#000000;" text-anchor="end" transform="translate(0,0)" y="244" opacity="1">20</text><text x="22" style="color:#000000;cursor:default;font-size:11px;fill:#000000;" text-anchor="end" transform="translate(0,0)" y="192" opacity="1">30</text><text x="22" style="color:#000000;cursor:default;font-size:11px;fill:#000000;" text-anchor="end" transform="translate(0,0)" y="140" opacity="1">40</text></g><text x="10" class="highcharts-credits" text-anchor="start" data-z-index="8" style="cursor:default;color:#000000;font-size:10px;fill:#000000;" y="393"><tspan>Quelle: Statistisches Amt Basel-Stadt, Bevölkerungsstatistik;</tspan><tspan x="10" dy="13">Bundesamt für Statistik (BFS), Polizeiliche Kriminalstatistik (PKS).</tspan><tspan x="10" dy="13">Zuletzt geändert: 2019-11-20</tspan></text></svg>