<?xml version="1.0" standalone="no"?><!DOCTYPE svg PUBLIC "-//W3C//DTD SVG 1.1//EN" "http://www.w3.org/Graphics/SVG/1.1/DTD/svg11.dtd"><svg xmlns:xlink="http://www.w3.org/1999/xlink" version="1.1" class="highcharts-root" style="font-family:Arial;font-size:12px;" xmlns="http://www.w3.org/2000/svg" viewBox="0 0 485 415"><desc>Created with Highcharts 8.1.2</desc><defs><clipPath id="highcharts-1fhzs8d-31-"><rect x="0" y="0" width="429" height="245" fill="none"></rect></clipPath><clipPath id="highcharts-1fhzs8d-40-"><rect x="0" y="0" width="429" height="245" fill="none"></rect></clipPath><clipPath id="highcharts-1fhzs8d-57-"><rect x="46" y="97" width="429" height="245" fill="none"></rect></clipPath></defs><rect fill="#fbfbfb" class="highcharts-background" x="0" y="0" width="485" height="428" rx="0" ry="0"></rect><rect fill="none" class="highcharts-plot-background" x="46" y="97" width="429" height="245"></rect><g class="highcharts-pane-group" data-z-index="0"></g><g class="highcharts-grid highcharts-xaxis-grid" data-z-index="1"><path fill="none" data-z-index="1" class="highcharts-grid-line" d="M 109.5 97 L 109.5 342" opacity="1"></path><path fill="none" data-z-index="1" class="highcharts-grid-line" d="M 229.5 97 L 229.5 342" opacity="1"></path><path fill="none" data-z-index="1" class="highcharts-grid-line" d="M 350.5 97 L 350.5 342" opacity="1"></path><path fill="none" data-z-index="1" class="highcharts-grid-line" d="M 470.5 97 L 470.5 342" opacity="1"></path></g><g class="highcharts-grid highcharts-yaxis-grid" data-z-index="1"><path fill="none" stroke="#B9CFD7" stroke-width="0.5" data-z-index="1" class="highcharts-grid-line" d="M 46 342.25 L 475 342.25" opacity="1"></path><path fill="none" stroke="#B9CFD7" stroke-width="0.5" data-z-index="1" class="highcharts-grid-line" d="M 46 293.25 L 475 293.25" opacity="1"></path><path fill="none" stroke="#B9CFD7" stroke-width="0.5" data-z-index="1" class="highcharts-grid-line" d="M 46 244.25 L 475 244.25" opacity="1"></path><path fill="none" stroke="#B9CFD7" stroke-width="0.5" data-z-index="1" class="highcharts-grid-line" d="M 46 195.25 L 475 195.25" opacity="1"></path><path fill="none" stroke="#B9CFD7" stroke-width="0.5" data-z-index="1" class="highcharts-grid-line" d="M 46 146.25 L 475 146.25" opacity="1"></path><path fill="none" stroke="#B9CFD7" stroke-width="0.5" data-z-index="1" class="highcharts-grid-line" d="M 46 96.75 L 475 96.75" opacity="1"></path></g><rect fill="none" class="highcharts-plot-border" data-z-index="1" x="46" y="97" width="429" height="245"></rect><g class="highcharts-axis highcharts-xaxis" data-z-index="2"><path fill="none" class="highcharts-axis-line" stroke="#B9CFD7" stroke-width="0.5" data-z-index="7" d="M 46 342.25 L 475 342.25"></path></g><g class="highcharts-axis highcharts-yaxis" data-z-index="2"><path fill="none" class="highcharts-axis-line" data-z-index="7" d="M 46 97 L 46 342"></path></g><g class="highcharts-series-group" data-z-index="3"><g class="highcharts-series highcharts-series-0 highcharts-area-series" data-z-index="0.1" opacity="1" transform="translate(46,97) scale(1 1)" clip-path="url(#highcharts-1fhzs8d-40-)"><path fill="rgb(255,128,40)" fill-opacity="0.75" d="M 4.2058823529374 74.47999999999999 L 64.289915966384 39.20000000000002 L 124.37394957983 52.920000000000016 L 184.45798319328 82.32 L 244.54201680672 101.92000000000002 L 304.62605042017 107.80000000000001 L 364.71008403362 101.92000000000002 L 424.79411764706 82.32 L 424.79411764706 131.32 L 364.71008403362 119.56 L 304.62605042017 131.32 L 244.54201680672 113.68 L 184.45798319328 103.88 L 124.37394957983 76.44 L 64.289915966384 78.4 L 4.2058823529374 101.92000000000002" class="highcharts-area" data-z-index="0"></path><path fill="none" d="M 4.2058823529374 74.47999999999999 L 64.289915966384 39.20000000000002 L 124.37394957983 52.920000000000016 L 184.45798319328 82.32 L 244.54201680672 101.92000000000002 L 304.62605042017 107.80000000000001 L 364.71008403362 101.92000000000002 L 424.79411764706 82.32" class="highcharts-graph" data-z-index="1" stroke-linejoin="round" stroke-linecap="round"></path></g><g class="highcharts-markers highcharts-series-0 highcharts-area-series" data-z-index="0.1" opacity="1" transform="translate(46,97) scale(1 1)" clip-path="none"></g><g class="highcharts-series highcharts-series-1 highcharts-area-series" data-z-index="0.1" opacity="1" transform="translate(46,97) scale(1 1)" clip-path="url(#highcharts-1fhzs8d-40-)"><path fill="rgb(146,63,141)" fill-opacity="0.75" d="M 4.2058823529374 101.92000000000002 L 64.289915966384 78.4 L 124.37394957983 76.44 L 184.45798319328 103.88 L 244.54201680672 113.68 L 304.62605042017 131.32 L 364.71008403362 119.56 L 424.79411764706 131.32 L 424.79411764706 143.07999999999998 L 364.71008403362 160.72 L 304.62605042017 148.96 L 244.54201680672 141.12 L 184.45798319328 150.92000000000002 L 124.37394957983 115.64000000000001 L 64.289915966384 107.80000000000001 L 4.2058823529374 133.28" class="highcharts-area" data-z-index="0"></path><path fill="none" d="M 4.2058823529374 101.92000000000002 L 64.289915966384 78.4 L 124.37394957983 76.44 L 184.45798319328 103.88 L 244.54201680672 113.68 L 304.62605042017 131.32 L 364.71008403362 119.56 L 424.79411764706 131.32" class="highcharts-graph" data-z-index="1" stroke-linejoin="round" stroke-linecap="round"></path></g><g class="highcharts-markers highcharts-series-1 highcharts-area-series" data-z-index="0.1" opacity="1" transform="translate(46,97) scale(1 1)" clip-path="none"></g><g class="highcharts-series highcharts-series-2 highcharts-area-series" data-z-index="0.1" opacity="1" transform="translate(46,97) scale(1 1)" clip-path="url(#highcharts-1fhzs8d-40-)"><path fill="rgb(47,101,107)" fill-opacity="0.75" d="M 4.2058823529374 133.28 L 64.289915966384 107.80000000000001 L 124.37394957983 115.64000000000001 L 184.45798319328 150.92000000000002 L 244.54201680672 141.12 L 304.62605042017 148.96 L 364.71008403362 160.72 L 424.79411764706 143.07999999999998 L 424.79411764706 245 L 364.71008403362 245 L 304.62605042017 245 L 244.54201680672 245 L 184.45798319328 245 L 124.37394957983 245 L 64.289915966384 245 L 4.2058823529374 245" class="highcharts-area" data-z-index="0"></path><path fill="none" d="M 4.2058823529374 133.28 L 64.289915966384 107.80000000000001 L 124.37394957983 115.64000000000001 L 184.45798319328 150.92000000000002 L 244.54201680672 141.12 L 304.62605042017 148.96 L 364.71008403362 160.72 L 424.79411764706 143.07999999999998" class="highcharts-graph" data-z-index="1" stroke-linejoin="round" stroke-linecap="round"></path></g><g class="highcharts-markers highcharts-series-2 highcharts-area-series" data-z-index="0.1" opacity="1" transform="translate(46,97) scale(1 1)" clip-path="none"></g></g><text x="10" text-anchor="start" class="highcharts-title" data-z-index="4" style="color:#000000;font-size:14px;font-weight:bold;fill:#000000;" y="21"><tspan>Beschuldigte ausländische Jugendliche</tspan></text><text x="10" text-anchor="start" class="highcharts-subtitle" data-z-index="4" style="color:#000000;font-size:12px;font-weight:normal;font-family:Arial;fill:#000000;" y="40"><tspan>nach Aufenthaltsstatus, Basel-Stadt</tspan></text><text x="10" text-anchor="start" class="highcharts-caption" data-z-index="4" style="color:#666666;fill:#666666;" y="375"></text><g class="highcharts-legend" data-z-index="7" transform="translate(38,55)"><rect fill="none" class="highcharts-legend-box" rx="0" ry="0" x="0" y="0" width="296" height="30" visibility="visible"></rect><g data-z-index="1"><g><g class="highcharts-legend-item highcharts-area-series highcharts-color-undefined highcharts-series-2" data-z-index="1" transform="translate(8,3)"><text x="21" style="color:#333333;cursor:pointer;font-size:12px;font-weight:normal;fill:#333333;" text-anchor="start" data-z-index="2" y="15"><tspan>C-Bew.</tspan></text><rect x="2" y="4" width="12" height="12" fill="#2F656B" class="highcharts-point" data-z-index="3"></rect></g><g class="highcharts-legend-item highcharts-area-series highcharts-color-undefined highcharts-series-1" data-z-index="1" transform="translate(108,3)"><text x="21" y="15" style="color:#333333;cursor:pointer;font-size:12px;font-weight:normal;fill:#333333;" text-anchor="start" data-z-index="2"><tspan>B-Bew.</tspan></text><rect x="2" y="4" width="12" height="12" fill="#923F8D" class="highcharts-point" data-z-index="3"></rect></g><g class="highcharts-legend-item highcharts-area-series highcharts-color-undefined highcharts-series-0" data-z-index="1" transform="translate(208,3)"><text x="21" y="15" style="color:#333333;cursor:pointer;font-size:12px;font-weight:normal;fill:#333333;" text-anchor="start" data-z-index="2"><tspan>Übrige</tspan></text><rect x="2" y="4" width="12" height="12" fill="#FF8028" class="highcharts-point" data-z-index="3"></rect></g></g></g></g><g class="highcharts-axis-labels highcharts-xaxis-labels" data-z-index="7"><text x="110.28991596638" style="color:#000000;cursor:default;font-size:11px;fill:#000000;" text-anchor="middle" transform="translate(0,0)" y="361" opacity="1">2012</text><text x="230.45798319328" style="color:#000000;cursor:default;font-size:11px;fill:#000000;" text-anchor="middle" transform="translate(0,0)" y="361" opacity="1">2014</text><text x="350.62605042017" style="color:#000000;cursor:default;font-size:11px;fill:#000000;" text-anchor="middle" transform="translate(0,0)" y="361" opacity="1">2016</text><text x="461.03125" style="color:#000000;cursor:default;font-size:11px;fill:#000000;" text-anchor="middle" transform="translate(0,0)" y="361" opacity="1">2018</text></g><g class="highcharts-axis-labels highcharts-yaxis-labels" data-z-index="7"><text x="31" style="color:#000000;cursor:default;font-size:11px;fill:#000000;" text-anchor="end" transform="translate(0,0)" y="347" opacity="1">0</text><text x="31" style="color:#000000;cursor:default;font-size:11px;fill:#000000;" text-anchor="end" transform="translate(0,0)" y="298" opacity="1">25</text><text x="31" style="color:#000000;cursor:default;font-size:11px;fill:#000000;" text-anchor="end" transform="translate(0,0)" y="249" opacity="1">50</text><text x="31" style="color:#000000;cursor:default;font-size:11px;fill:#000000;" text-anchor="end" transform="translate(0,0)" y="200" opacity="1">75</text><text x="31" style="color:#000000;cursor:default;font-size:11px;fill:#000000;" text-anchor="end" transform="translate(0,0)" y="151" opacity="1">100</text><text x="31" style="color:#000000;cursor:default;font-size:11px;fill:#000000;" text-anchor="end" transform="translate(0,0)" y="102" opacity="1">125</text></g><text x="10" class="highcharts-credits" text-anchor="start" data-z-index="8" style="cursor:default;color:#000000;font-size:10px;fill:#000000;" y="393"><tspan>Quelle: Statistisches Amt Basel-Stadt, Bevölkerungsstatistik;</tspan><tspan x="10" dy="13">Bundesamt für Statistik (BFS), Polizeiliche Kriminalstatistik (PKS).</tspan><tspan x="10" dy="13">Zuletzt geändert: 2019-11-22</tspan></text><g class="highcharts-control-points" data-z-index="99" clip-path="url(#highcharts-1fhzs8d-57-)"></g></svg>