<?xml version="1.0" standalone="no"?>
<!DOCTYPE svg PUBLIC "-//W3C//DTD SVG 1.1//EN" "http://www.w3.org/Graphics/SVG/1.1/DTD/svg11.dtd">
<svg xmlns:xlink="http://www.w3.org/1999/xlink" version="1.1" class="highcharts-root" style="font-family:Arial;font-size:12px;" xmlns="http://www.w3.org/2000/svg" viewBox="0 0 485 415">
  <desc>
    Created with Highstock 6.0.7
  </desc>
  <defs>
    <clipPath>
      <rect x="0" y="0" width="242" height="325" fill="none"/>
    </clipPath>
    <clipPath id="a">
      <rect x="0" y="0" width="242" height="325" fill="none"/>
    </clipPath>
  </defs>
  <rect fill="#fbfbfb" class="highcharts-background" x="0" y="0" width="485" height="500" rx="0" ry="0"/>
  <rect fill="none" class="highcharts-plot-background" x="150" y="207" width="325" height="242"/>
  <g class="highcharts-pane-group"/>
  <g class="highcharts-grid highcharts-xaxis-grid ">
    <path fill="none" class="highcharts-grid-line" d="M 150 213.5 L 475 213.5" opacity="1"/>
    <path fill="none" class="highcharts-grid-line" d="M 150 239.5 L 475 239.5" opacity="1"/>
    <path fill="none" class="highcharts-grid-line" d="M 150 264.5 L 475 264.5" opacity="1"/>
    <path fill="none" class="highcharts-grid-line" d="M 150 290.5 L 475 290.5" opacity="1"/>
    <path fill="none" class="highcharts-grid-line" d="M 150 315.5 L 475 315.5" opacity="1"/>
    <path fill="none" class="highcharts-grid-line" d="M 150 341.5 L 475 341.5" opacity="1"/>
    <path fill="none" class="highcharts-grid-line" d="M 150 366.5 L 475 366.5" opacity="1"/>
    <path fill="none" class="highcharts-grid-line" d="M 150 392.5 L 475 392.5" opacity="1"/>
    <path fill="none" class="highcharts-grid-line" d="M 150 417.5 L 475 417.5" opacity="1"/>
    <path fill="none" class="highcharts-grid-line" d="M 150 443.5 L 475 443.5" opacity="1"/>
  </g>
  <g class="highcharts-grid highcharts-yaxis-grid ">
    <path fill="none" stroke="#B9CFD7" stroke-width="0.5" class="highcharts-grid-line" d="M 149.75 207 L 149.75 449" opacity="1"/>
    <path fill="none" stroke="#B9CFD7" stroke-width="0.5" class="highcharts-grid-line" d="M 214.75 207 L 214.75 449" opacity="1"/>
    <path fill="none" stroke="#B9CFD7" stroke-width="0.5" class="highcharts-grid-line" d="M 279.75 207 L 279.75 449" opacity="1"/>
    <path fill="none" stroke="#B9CFD7" stroke-width="0.5" class="highcharts-grid-line" d="M 344.75 207 L 344.75 449" opacity="1"/>
    <path fill="none" stroke="#B9CFD7" stroke-width="0.5" class="highcharts-grid-line" d="M 409.75 207 L 409.75 449" opacity="1"/>
    <path fill="none" stroke="#B9CFD7" stroke-width="0.5" class="highcharts-grid-line" d="M 475.25 207 L 475.25 449" opacity="1"/>
  </g>
  <rect fill="none" class="highcharts-plot-border" x="150" y="207" width="325" height="242"/>
  <g class="highcharts-axis highcharts-xaxis ">
    <path fill="none" class="highcharts-axis-line" stroke="#B9CFD7" stroke-width="0.5" d="M 149.75 207 L 149.75 449"/>
  </g>
  <g class="highcharts-axis highcharts-yaxis ">
    <path fill="none" class="highcharts-axis-line" d="M 150 449 L 475 449"/>
  </g>
  <g class="highcharts-series-group">
    <g class="highcharts-series highcharts-series-0 highcharts-column-series " transform="translate(475,449) rotate(90) scale(-1,1) scale(1 1)" clip-path="url(#a)">
      <rect x="231" y="0" width="11" height="19" fill="#999999" class="highcharts-point"/>
      <rect x="218" y="0" width="11" height="19" fill="#999999" class="highcharts-point"/>
      <rect x="205" y="0" width="11" height="18" fill="#999999" class="highcharts-point"/>
      <rect x="180" y="0" width="11" height="15" fill="#999999" class="highcharts-point"/>
      <rect x="167" y="0" width="11" height="16" fill="#999999" class="highcharts-point"/>
      <rect x="154" y="0" width="11" height="9" fill="#999999" class="highcharts-point"/>
      <rect x="129" y="0" width="11" height="20" fill="#999999" class="highcharts-point"/>
      <rect x="116" y="0" width="11" height="18" fill="#999999" class="highcharts-point"/>
      <rect x="103" y="0" width="11" height="31" fill="#999999" class="highcharts-point"/>
      <rect x="78" y="0" width="11" height="17" fill="#999999" class="highcharts-point"/>
      <rect x="65" y="0" width="11" height="16" fill="#999999" class="highcharts-point"/>
      <rect x="52" y="0" width="11" height="22" fill="#999999" class="highcharts-point"/>
      <rect x="27" y="0" width="11" height="18" fill="#999999" class="highcharts-point"/>
      <rect x="14" y="0" width="11" height="16" fill="#999999" class="highcharts-point"/>
      <rect x="1" y="0" width="11" height="31" fill="#999999" class="highcharts-point"/>
    </g>
    <g class="highcharts-markers highcharts-series-0 highcharts-column-series " transform="translate(475,449) rotate(90) scale(-1,1) scale(1 1)" clip-path="none"/>
    <g class="highcharts-series highcharts-series-1 highcharts-column-series " transform="translate(475,449) rotate(90) scale(-1,1) scale(1 1)" clip-path="url(#a)">
      <rect x="231" y="19" width="11" height="5" fill="#dc440e" class="highcharts-point"/>
      <rect x="218" y="19" width="11" height="5" fill="#dc440e" class="highcharts-point"/>
      <rect x="205" y="18" width="11" height="2" fill="#dc440e" class="highcharts-point"/>
      <rect x="180" y="15" width="11" height="7" fill="#dc440e" class="highcharts-point"/>
      <rect x="167" y="16" width="11" height="7" fill="#dc440e" class="highcharts-point"/>
      <rect x="154" y="9" width="11" height="10" fill="#dc440e" class="highcharts-point"/>
      <rect x="129" y="20" width="11" height="7" fill="#dc440e" class="highcharts-point"/>
      <rect x="116" y="18" width="11" height="7" fill="#dc440e" class="highcharts-point"/>
      <rect x="103" y="31" width="11" height="6" fill="#dc440e" class="highcharts-point"/>
      <rect x="78" y="17" width="11" height="12" fill="#dc440e" class="highcharts-point"/>
      <rect x="65" y="16" width="11" height="13" fill="#dc440e" class="highcharts-point"/>
      <rect x="52" y="22" width="11" height="9" fill="#dc440e" class="highcharts-point"/>
      <rect x="27" y="18" width="11" height="8" fill="#dc440e" class="highcharts-point"/>
      <rect x="14" y="16" width="11" height="9" fill="#dc440e" class="highcharts-point"/>
      <rect x="1" y="31" width="11" height="7" fill="#dc440e" class="highcharts-point"/>
    </g>
    <g class="highcharts-markers highcharts-series-1 highcharts-column-series " transform="translate(475,449) rotate(90) scale(-1,1) scale(1 1)" clip-path="none"/>
    <g class="highcharts-series highcharts-series-2 highcharts-column-series " transform="translate(475,449) rotate(90) scale(-1,1) scale(1 1)" clip-path="url(#a)">
      <rect x="231" y="24" width="11" height="35" fill="#ffbb58" class="highcharts-point"/>
      <rect x="218" y="24" width="11" height="35" fill="#ffbb58" class="highcharts-point"/>
      <rect x="205" y="20" width="11" height="33" fill="#ffbb58" class="highcharts-point"/>
      <rect x="180" y="22" width="11" height="36" fill="#ffbb58" class="highcharts-point"/>
      <rect x="167" y="23" width="11" height="37" fill="#ffbb58" class="highcharts-point"/>
      <rect x="154" y="19" width="11" height="30" fill="#ffbb58" class="highcharts-point"/>
      <rect x="129" y="27" width="11" height="40" fill="#ffbb58" class="highcharts-point"/>
      <rect x="116" y="25" width="11" height="41" fill="#ffbb58" class="highcharts-point"/>
      <rect x="103" y="37" width="11" height="37" fill="#ffbb58" class="highcharts-point"/>
      <rect x="78" y="29" width="11" height="54" fill="#ffbb58" class="highcharts-point"/>
      <rect x="65" y="29" width="11" height="55" fill="#ffbb58" class="highcharts-point"/>
      <rect x="52" y="31" width="11" height="43" fill="#ffbb58" class="highcharts-point"/>
      <rect x="27" y="26" width="11" height="48" fill="#ffbb58" class="highcharts-point"/>
      <rect x="14" y="25" width="11" height="50" fill="#ffbb58" class="highcharts-point"/>
      <rect x="1" y="38" width="11" height="25" fill="#ffbb58" class="highcharts-point"/>
    </g>
    <g class="highcharts-markers highcharts-series-2 highcharts-column-series " transform="translate(475,449) rotate(90) scale(-1,1) scale(1 1)" clip-path="none"/>
    <g class="highcharts-series highcharts-series-3 highcharts-column-series " transform="translate(475,449) rotate(90) scale(-1,1) scale(1 1)" clip-path="url(#a)">
      <rect x="231" y="59" width="11" height="197" fill="#68ab2b" class="highcharts-point"/>
      <rect x="218" y="59" width="11" height="197" fill="#68ab2b" class="highcharts-point"/>
      <rect x="205" y="53" width="11" height="199" fill="#68ab2b" class="highcharts-point"/>
      <rect x="180" y="58" width="11" height="166" fill="#68ab2b" class="highcharts-point"/>
      <rect x="167" y="60" width="11" height="164" fill="#68ab2b" class="highcharts-point"/>
      <rect x="154" y="49" width="11" height="175" fill="#68ab2b" class="highcharts-point"/>
      <rect x="129" y="67" width="11" height="213" fill="#68ab2b" class="highcharts-point"/>
      <rect x="116" y="66" width="11" height="213" fill="#68ab2b" class="highcharts-point"/>
      <rect x="103" y="74" width="11" height="213" fill="#68ab2b" class="highcharts-point"/>
      <rect x="78" y="83" width="11" height="182" fill="#68ab2b" class="highcharts-point"/>
      <rect x="65" y="84" width="11" height="181" fill="#68ab2b" class="highcharts-point"/>
      <rect x="52" y="74" width="11" height="191" fill="#68ab2b" class="highcharts-point"/>
      <rect x="27" y="74" width="11" height="186" fill="#68ab2b" class="highcharts-point"/>
      <rect x="14" y="75" width="11" height="185" fill="#68ab2b" class="highcharts-point"/>
      <rect x="1" y="63" width="11" height="194" fill="#68ab2b" class="highcharts-point"/>
    </g>
    <g class="highcharts-markers highcharts-series-3 highcharts-column-series " transform="translate(475,449) rotate(90) scale(-1,1) scale(1 1)" clip-path="none"/>
    <g class="highcharts-series highcharts-series-4 highcharts-column-series " transform="translate(475,449) rotate(90) scale(-1,1) scale(1 1)" clip-path="url(#a)">
      <rect x="231" y="256" width="11" height="70" fill="#007a2f" class="highcharts-point"/>
      <rect x="218" y="256" width="11" height="70" fill="#007a2f" class="highcharts-point"/>
      <rect x="205" y="252" width="11" height="74" fill="#007a2f" class="highcharts-point"/>
      <rect x="180" y="224" width="11" height="102" fill="#007a2f" class="highcharts-point"/>
      <rect x="167" y="224" width="11" height="102" fill="#007a2f" class="highcharts-point"/>
      <rect x="154" y="224" width="11" height="102" fill="#007a2f" class="highcharts-point"/>
      <rect x="129" y="280" width="11" height="46" fill="#007a2f" class="highcharts-point"/>
      <rect x="116" y="279" width="11" height="47" fill="#007a2f" class="highcharts-point"/>
      <rect x="103" y="287" width="11" height="39" fill="#007a2f" class="highcharts-point"/>
      <rect x="78" y="265" width="11" height="61" fill="#007a2f" class="highcharts-point"/>
      <rect x="65" y="265" width="11" height="61" fill="#007a2f" class="highcharts-point"/>
      <rect x="52" y="265" width="11" height="61" fill="#007a2f" class="highcharts-point"/>
      <rect x="27" y="260" width="11" height="66" fill="#007a2f" class="highcharts-point"/>
      <rect x="14" y="260" width="11" height="66" fill="#007a2f" class="highcharts-point"/>
      <rect x="1" y="257" width="11" height="69" fill="#007a2f" class="highcharts-point"/>
    </g>
    <g class="highcharts-markers highcharts-series-4 highcharts-column-series " transform="translate(475,449) rotate(90) scale(-1,1) scale(1 1)" clip-path="none"/>
  </g>
  <text x="10" text-anchor="start" class="highcharts-title" style="color:#000000;font-size:14px;font-weight:bold;fill:#000000;" y="21">
    <tspan>Beurteilung der Zusammensetzung der Quartierbevölkerung</tspan><tspan dy="17" x="10">nach Heimat</tspan><title>Beurteilung der Zusammensetzung der Quartierbevölkerung nach Heimat</title>
  </text>
  <text x="10" text-anchor="start" class="highcharts-subtitle" style="color:#000000;font-size:12px;fill:#000000;" y="57">
    <tspan>«Wie zufrieden sind Sie mit der Zusammensetzung der Quartierbevölkerung?»</tspan>
  </text>
  <g class="highcharts-legend" transform="translate(142,127)">
    <rect fill="none" class="highcharts-legend-box" rx="0" ry="0" x="0" y="0" width="296" height="68" visibility="visible"/>
    <g>
      <g>
        <g class="highcharts-legend-item highcharts-column-series highcharts-color-undefined highcharts-series-4" transform="translate(8,3)">
          <text x="21" style="color:#333333;font-size:12px;font-weight:normal;cursor:pointer;fill:#333333;" text-anchor="start" y="15">
            <tspan>Sehr zufrieden</tspan>
          </text>
          <rect x="2" y="4" width="12" height="12" fill="#007a2f" class="highcharts-point"/>
        </g>
        <g class="highcharts-legend-item highcharts-column-series highcharts-color-undefined highcharts-series-3" transform="translate(158,3)">
          <text x="21" y="15" style="color:#333333;font-size:12px;font-weight:normal;cursor:pointer;fill:#333333;" text-anchor="start">
            <tspan>Eher zufrieden</tspan>
          </text>
          <rect x="2" y="4" width="12" height="12" fill="#68ab2b" class="highcharts-point"/>
        </g>
        <g class="highcharts-legend-item highcharts-column-series highcharts-color-undefined highcharts-series-2" transform="translate(8,22)">
          <text x="21" y="15" style="color:#333333;font-size:12px;font-weight:normal;cursor:pointer;fill:#333333;" text-anchor="start">
            <tspan>Eher unzufrieden</tspan>
          </text>
          <rect x="2" y="4" width="12" height="12" fill="#ffbb58" class="highcharts-point"/>
        </g>
        <g class="highcharts-legend-item highcharts-column-series highcharts-color-undefined highcharts-series-1" transform="translate(158,22)">
          <text x="21" y="15" style="color:#333333;font-size:12px;font-weight:normal;cursor:pointer;fill:#333333;" text-anchor="start">
            <tspan>Ganz unzufrieden</tspan>
          </text>
          <rect x="2" y="4" width="12" height="12" fill="#dc440e" class="highcharts-point"/>
        </g>
        <g class="highcharts-legend-item highcharts-column-series highcharts-color-undefined highcharts-series-0" transform="translate(8,41)">
          <text x="21" y="15" style="color:#333333;font-size:12px;font-weight:normal;cursor:pointer;fill:#333333;" text-anchor="start">
            <tspan>Weiss nicht / kein…</tspan><title>Weiss nicht / keine Angabe</title>
          </text>
          <rect x="2" y="4" width="12" height="12" fill="#999999" class="highcharts-point"/>
        </g>
      </g>
    </g>
  </g>
  <g class="highcharts-axis-labels highcharts-xaxis-labels ">
    <text x="10" style="color:#000000;cursor:default;font-size:11px;white-space:nowrap;fill:#000000;" text-anchor="start" transform="translate(0,0)" y="218" opacity="1">
      <tspan>2015 Total (N=1458)</tspan>
    </text>
    <text x="10" style="color:#000000;cursor:default;font-size:11px;white-space:nowrap;fill:#000000;" text-anchor="start" transform="translate(0,0)" y="243" opacity="1">
      <tspan>2015 Ausland (N=168)</tspan>
    </text>
    <text x="10" style="color:#000000;cursor:default;font-size:11px;white-space:nowrap;fill:#000000;" text-anchor="start" transform="translate(0,0)" y="269" opacity="1">
      <tspan>2011 Total (N=1477)</tspan>
    </text>
    <text x="10" style="color:#000000;cursor:default;font-size:11px;white-space:nowrap;fill:#000000;" text-anchor="start" transform="translate(0,0)" y="294" opacity="1">
      <tspan>2011 Ausland (N=211)</tspan>
    </text>
    <text x="10" style="color:#000000;cursor:default;font-size:11px;white-space:nowrap;fill:#000000;" text-anchor="start" transform="translate(0,0)" y="320" opacity="1">
      <tspan>2007 Total (N=1484)</tspan>
    </text>
    <text x="10" style="color:#000000;cursor:default;font-size:11px;white-space:nowrap;fill:#000000;" text-anchor="start" transform="translate(0,0)" y="345" opacity="1">
      <tspan>2007 Ausland (N=173)</tspan>
    </text>
    <text x="10" style="color:#000000;cursor:default;font-size:11px;white-space:nowrap;fill:#000000;" text-anchor="start" transform="translate(0,0)" y="371" opacity="1">
      <tspan>2005 Total (N=1480)</tspan>
    </text>
    <text x="10" style="color:#000000;cursor:default;font-size:11px;white-space:nowrap;fill:#000000;" text-anchor="start" transform="translate(0,0)" y="396" opacity="1">
      <tspan>2005 Ausland (N=204)</tspan>
    </text>
    <text x="10" style="color:#000000;cursor:default;font-size:11px;white-space:nowrap;fill:#000000;" text-anchor="start" transform="translate(0,0)" y="422" opacity="1">
      <tspan>2003 (N=1472)</tspan>
    </text>
    <text x="10" style="color:#000000;cursor:default;font-size:11px;white-space:nowrap;fill:#000000;" text-anchor="start" transform="translate(0,0)" y="447" opacity="1">
      <tspan>2003 Ausland (N=203)</tspan>
    </text>
  </g>
  <g class="highcharts-axis-labels highcharts-yaxis-labels ">
    <text x="150" style="color:#000000;cursor:default;font-size:11px;fill:#000000;" text-anchor="middle" transform="translate(0,0)" y="468" opacity="1">
      0%
    </text>
    <text x="215" style="color:#000000;cursor:default;font-size:11px;fill:#000000;" text-anchor="middle" transform="translate(0,0)" y="468" opacity="1">
      20%
    </text>
    <text x="280" style="color:#000000;cursor:default;font-size:11px;fill:#000000;" text-anchor="middle" transform="translate(0,0)" y="468" opacity="1">
      40%
    </text>
    <text x="345" style="color:#000000;cursor:default;font-size:11px;fill:#000000;" text-anchor="middle" transform="translate(0,0)" y="468" opacity="1">
      60%
    </text>
    <text x="410" style="color:#000000;cursor:default;font-size:11px;fill:#000000;" text-anchor="middle" transform="translate(0,0)" y="468" opacity="1">
      80%
    </text>
    <text x="460.953125" style="color:#000000;cursor:default;font-size:11px;fill:#000000;" text-anchor="middle" transform="translate(0,0)" y="468" opacity="1">
      100%
    </text>
  </g>
  <text x="10" class="highcharts-credits" text-anchor="start" style="cursor:default;color:#000000;font-size:10px;fill:#000000;" y="485">
    <tspan>Quelle: Statistisches Amt Basel-Stadt, kantonale Bevölkerungsbefragung: F6_21</tspan>
  </text>
</svg>
