<?xml version="1.0" standalone="no"?><!DOCTYPE svg PUBLIC "-//W3C//DTD SVG 1.1//EN" "http://www.w3.org/Graphics/SVG/1.1/DTD/svg11.dtd"><svg xmlns:xlink="http://www.w3.org/1999/xlink" version="1.1" class="highcharts-root" style="font-family:Arial;font-size:12px;" xmlns="http://www.w3.org/2000/svg" viewBox="0 0 485 415"><desc>Created with Highcharts 7.2.0</desc><defs><clipPath id="highcharts-32gm09t-166-"><rect x="0" y="0" width="429" height="181" fill="none"></rect></clipPath><clipPath id="highcharts-32gm09t-207-"><rect x="0" y="0" width="429" height="181" fill="none"></rect></clipPath></defs><rect fill="#fbfbfb" class="highcharts-background" x="0" y="0" width="485" height="428" rx="0" ry="0"></rect><rect fill="none" class="highcharts-plot-background" x="46" y="171" width="429" height="181"></rect><g class="highcharts-pane-group" data-z-index="0"></g><g class="highcharts-grid highcharts-xaxis-grid" data-z-index="1"><path fill="none" data-z-index="1" class="highcharts-grid-line" d="M 50.5 171 L 50.5 352" opacity="1"></path><path fill="none" data-z-index="1" class="highcharts-grid-line" d="M 93.5 171 L 93.5 352" opacity="1"></path><path fill="none" data-z-index="1" class="highcharts-grid-line" d="M 136.5 171 L 136.5 352" opacity="1"></path><path fill="none" data-z-index="1" class="highcharts-grid-line" d="M 179.5 171 L 179.5 352" opacity="1"></path><path fill="none" data-z-index="1" class="highcharts-grid-line" d="M 222.5 171 L 222.5 352" opacity="1"></path><path fill="none" data-z-index="1" class="highcharts-grid-line" d="M 265.5 171 L 265.5 352" opacity="1"></path><path fill="none" data-z-index="1" class="highcharts-grid-line" d="M 308.5 171 L 308.5 352" opacity="1"></path><path fill="none" data-z-index="1" class="highcharts-grid-line" d="M 351.5 171 L 351.5 352" opacity="1"></path><path fill="none" data-z-index="1" class="highcharts-grid-line" d="M 394.5 171 L 394.5 352" opacity="1"></path><path fill="none" data-z-index="1" class="highcharts-grid-line" d="M 436.5 171 L 436.5 352" opacity="1"></path></g><g class="highcharts-grid highcharts-yaxis-grid" data-z-index="1"><path fill="none" stroke="#B9CFD7" stroke-width="0.5" data-z-index="1" class="highcharts-grid-line" d="M 46 352.25 L 475 352.25" opacity="1"></path><path fill="none" stroke="#B9CFD7" stroke-width="0.5" data-z-index="1" class="highcharts-grid-line" d="M 46 307.25 L 475 307.25" opacity="1"></path><path fill="none" stroke="#B9CFD7" stroke-width="0.5" data-z-index="1" class="highcharts-grid-line" d="M 46 262.25 L 475 262.25" opacity="1"></path><path fill="none" stroke="#B9CFD7" stroke-width="0.5" data-z-index="1" class="highcharts-grid-line" d="M 46 216.25 L 475 216.25" opacity="1"></path><path fill="none" stroke="#B9CFD7" stroke-width="0.5" data-z-index="1" class="highcharts-grid-line" d="M 46 170.75 L 475 170.75" opacity="1"></path></g><rect fill="none" class="highcharts-plot-border" data-z-index="1" x="46" y="171" width="429" height="181"></rect><g class="highcharts-axis highcharts-xaxis" data-z-index="2"><path fill="none" class="highcharts-axis-line" stroke="#B9CFD7" stroke-width="0.5" data-z-index="7" d="M 46 352.25 L 475 352.25"></path></g><g class="highcharts-axis highcharts-yaxis" data-z-index="2"><path fill="none" class="highcharts-axis-line" data-z-index="7" d="M 46 171 L 46 352"></path></g><g class="highcharts-series-group" data-z-index="3"><g data-z-index="0.1" class="highcharts-series highcharts-series-0 highcharts-line-series " transform="translate(46,171) scale(1 1)" clip-path="url(#highcharts-32gm09t-207-)"><path fill="none" d="M 5.3625 175.57 L 16.0875 173.76 L 26.8125 173.76 L 37.5375 171.95 L 48.2625 175.57 L 58.9875 175.57 L 69.7125 171.95 L 80.4375 178.285 L 91.1625 172.855 L 101.8875 174.665 L 112.6125 172.855 L 123.3375 175.57 L 134.0625 178.285 L 144.7875 176.475 L 155.5125 172.855 L 166.2375 171.045 L 176.9625 176.475 L 187.6875 176.475 L 198.4125 171.95 L 209.1375 177.38 L 219.8625 176.475 L 230.5875 177.38 L 241.3125 176.475 L 252.0375 177.38 L 262.7625 173.76 L 273.4875 177.38 L 284.2125 167.425 L 294.9375 175.57 L 305.6625 175.57 L 316.3875 176.475 L 327.1125 170.14 L 337.8375 180.095 L 348.5625 176.475 L 359.2875 174.665 L 370.0125 171.95 L 380.7375 175.57 L 391.4625 177.38 L 402.1875 174.665 L 412.9125 170.14 L 423.6375 179.19" class="highcharts-graph" data-z-index="1" stroke="#C8C8C8" stroke-width="2" stroke-linejoin="round" stroke-linecap="round"></path></g><g data-z-index="0.1" class="highcharts-markers highcharts-series-0 highcharts-line-series " transform="translate(46,171) scale(1 1)" clip-path="none"></g><g data-z-index="0.1" class="highcharts-series highcharts-series-1 highcharts-line-series " transform="translate(46,171) scale(1 1)" clip-path="url(#highcharts-32gm09t-207-)"><path fill="none" d="M 5.3625 71.49499999999999 L 16.0875 113.125 L 26.8125 39.81999999999999 L 37.5375 78.735 L 48.2625 96.835 L 58.9875 126.69999999999999 L 69.7125 78.735 L 80.4375 113.125 L 91.1625 116.745 L 101.8875 118.555 L 112.6125 74.21 L 123.3375 121.27 L 134.0625 101.36 L 144.7875 129.415 L 155.5125 114.03 L 166.2375 126.69999999999999 L 176.9625 108.6 L 187.6875 123.08 L 198.4125 89.595 L 209.1375 123.08 L 219.8625 93.215 L 230.5875 114.935 L 241.3125 79.64 L 252.0375 102.265 L 262.7625 111.315 L 273.4875 137.56 L 284.2125 97.74 L 294.9375 123.08 L 305.6625 114.935 L 316.3875 113.125 L 327.1125 76.925 L 337.8375 113.125 L 348.5625 109.505 L 359.2875 109.505 L 370.0125 100.455 L 380.7375 110.41 L 391.4625 130.32 L 402.1875 136.655 L 412.9125 76.925 L 423.6375 109.505" class="highcharts-graph" data-z-index="1" stroke="#008AC3" stroke-width="2" stroke-linejoin="round" stroke-linecap="round"></path></g><g data-z-index="0.1" class="highcharts-markers highcharts-series-1 highcharts-line-series " transform="translate(46,171) scale(1 1)" clip-path="none"></g><g data-z-index="0.1" class="highcharts-series highcharts-series-2 highcharts-line-series " transform="translate(46,171) scale(1 1)" clip-path="url(#highcharts-32gm09t-207-)"><path fill="none" d="M 5.3625 90.5 L 16.0875 69.685 L 26.8125 62.44499999999999 L 37.5375 83.25999999999999 L 48.2625 83.25999999999999 L 58.9875 100.455 L 69.7125 82.355 L 80.4375 114.935 L 91.1625 101.36 L 101.8875 120.365 L 112.6125 102.265 L 123.3375 103.17 L 134.0625 101.36 L 144.7875 104.075 L 155.5125 109.505 L 166.2375 116.745 L 176.9625 91.405 L 187.6875 94.12 L 198.4125 95.92999999999999 L 209.1375 101.36 L 219.8625 102.265 L 230.5875 85.975 L 241.3125 93.215 L 252.0375 82.355 L 262.7625 99.55 L 273.4875 104.98 L 284.2125 69.685 L 294.9375 109.505 L 305.6625 95.02499999999999 L 316.3875 114.03 L 327.1125 93.215 L 337.8375 90.5 L 348.5625 94.12 L 359.2875 109.505 L 370.0125 92.31 L 380.7375 86.88 L 391.4625 92.31 L 402.1875 112.22 L 412.9125 95.92999999999999 L 423.6375 114.03" class="highcharts-graph" data-z-index="1" stroke="#6F6F6F" stroke-width="2" stroke-linejoin="round" stroke-linecap="round"></path></g><g data-z-index="0.1" class="highcharts-markers highcharts-series-2 highcharts-line-series " transform="translate(46,171) scale(1 1)" clip-path="none"></g><g data-z-index="0.1" class="highcharts-series highcharts-series-3 highcharts-line-series " transform="translate(46,171) scale(1 1)" clip-path="url(#highcharts-32gm09t-207-)"><path fill="none" d="M 5.3625 133.94 L 16.0875 99.55 L 26.8125 75.115 L 37.5375 108.6 L 48.2625 129.415 L 58.9875 104.075 L 69.7125 104.075 L 80.4375 128.51 L 91.1625 128.51 L 101.8875 84.16499999999999 L 112.6125 77.83 L 123.3375 139.37 L 134.0625 118.555 L 144.7875 110.41 L 155.5125 86.88 L 166.2375 95.02499999999999 L 176.9625 117.65 L 187.6875 104.075 L 198.4125 53.394999999999996 L 209.1375 118.555 L 219.8625 126.69999999999999 L 230.5875 95.02499999999999 L 241.3125 91.405 L 252.0375 112.22 L 262.7625 53.394999999999996 L 273.4875 85.07 L 284.2125 28.055000000000007 L 294.9375 133.94 L 305.6625 125.795 L 316.3875 130.32 L 327.1125 109.505 L 337.8375 120.365 L 348.5625 144.8 L 359.2875 107.695 L 370.0125 80.545 L 380.7375 95.02499999999999 L 391.4625 146.61 L 402.1875 114.935 L 412.9125 83.25999999999999 L 423.6375 104.98" class="highcharts-graph" data-z-index="1" stroke="#2B0099" stroke-width="2" stroke-linejoin="round" stroke-linecap="round"></path></g><g data-z-index="0.1" class="highcharts-markers highcharts-series-3 highcharts-line-series " transform="translate(46,171) scale(1 1)" clip-path="none"></g></g><text x="10" text-anchor="start" class="highcharts-title" data-z-index="4" style="color:#000000;font-size:14px;font-weight:bold;fill:#000000;" y="21"><tspan>Zuwanderung von Erwerbstätigen im</tspan><tspan dy="17" x="10">Dienstleistungssektor (III)</tspan></text><text x="10" text-anchor="start" class="highcharts-subtitle" data-z-index="4" style="color:#000000;font-size:12px;font-weight:normal;font-family:Arial;fill:#000000;" y="57"><tspan>Kurz- und Daueraufenthalter, Basel-Stadt</tspan></text><text x="10" text-anchor="start" class="highcharts-caption" data-z-index="4" style="color:#666666;fill:#666666;" y="385"></text><g class="highcharts-legend" data-z-index="7" transform="translate(38,72)"><rect fill="none" class="highcharts-legend-box" rx="0" ry="0" x="0" y="0" width="317" height="87" visibility="visible"></rect><g data-z-index="1"><g><g class="highcharts-legend-item highcharts-line-series highcharts-color-undefined highcharts-series-0" data-z-index="1" transform="translate(8,3)"><path fill="none" d="M 0 11 L 16 11" class="highcharts-graph" stroke="#C8C8C8" stroke-width="2"></path><text x="21" style="color:#333333;cursor:pointer;font-size:12px;font-weight:normal;fill:#333333;" text-anchor="start" data-z-index="2" y="15"><tspan>Öffentliche Verwaltung, Sozialversicherungen</tspan></text></g><g class="highcharts-legend-item highcharts-line-series highcharts-color-undefined highcharts-series-1" data-z-index="1" transform="translate(8,22)"><path fill="none" d="M 0 11 L 16 11" class="highcharts-graph" stroke="#008AC3" stroke-width="2"></path><text x="21" y="15" style="color:#333333;cursor:pointer;font-size:12px;font-weight:normal;fill:#333333;" text-anchor="start" data-z-index="2"><tspan>Erziehung, Unterricht</tspan></text></g><g class="highcharts-legend-item highcharts-line-series highcharts-color-undefined highcharts-series-2" data-z-index="1" transform="translate(8,41)"><path fill="none" d="M 0 11 L 16 11" class="highcharts-graph" stroke="#6F6F6F" stroke-width="2"></path><text x="21" y="15" style="color:#333333;cursor:pointer;font-size:12px;font-weight:normal;fill:#333333;" text-anchor="start" data-z-index="2"><tspan>Gesundheits-, Sozialwesen</tspan></text></g><g class="highcharts-legend-item highcharts-line-series highcharts-color-undefined highcharts-series-3" data-z-index="1" transform="translate(8,60)"><path fill="none" d="M 0 11 L 16 11" class="highcharts-graph" stroke="#2B0099" stroke-width="2"></path><text x="21" y="15" style="color:#333333;cursor:pointer;font-size:12px;font-weight:normal;fill:#333333;" text-anchor="start" data-z-index="2"><tspan>Kultur, Unterhaltung, pers. DL</tspan></text></g></g></g></g><g class="highcharts-axis-labels highcharts-xaxis-labels" data-z-index="7"><text x="51.3625" style="color:#000000;cursor:default;font-size:11px;fill:#000000;" text-anchor="middle" transform="translate(0,0)" y="371" opacity="1">2009</text><text x="94.2625" style="color:#000000;cursor:default;font-size:11px;fill:#000000;" text-anchor="middle" transform="translate(0,0)" y="371" opacity="1">2010</text><text x="137.1625" style="color:#000000;cursor:default;font-size:11px;fill:#000000;" text-anchor="middle" transform="translate(0,0)" y="371" opacity="1">2011</text><text x="180.0625" style="color:#000000;cursor:default;font-size:11px;fill:#000000;" text-anchor="middle" transform="translate(0,0)" y="371" opacity="1">2012</text><text x="222.9625" style="color:#000000;cursor:default;font-size:11px;fill:#000000;" text-anchor="middle" transform="translate(0,0)" y="371" opacity="1">2013</text><text x="265.8625" style="color:#000000;cursor:default;font-size:11px;fill:#000000;" text-anchor="middle" transform="translate(0,0)" y="371" opacity="1">2014</text><text x="308.7625" style="color:#000000;cursor:default;font-size:11px;fill:#000000;" text-anchor="middle" transform="translate(0,0)" y="371" opacity="1">2015</text><text x="351.6625" style="color:#000000;cursor:default;font-size:11px;fill:#000000;" text-anchor="middle" transform="translate(0,0)" y="371" opacity="1">2016</text><text x="394.5625" style="color:#000000;cursor:default;font-size:11px;fill:#000000;" text-anchor="middle" transform="translate(0,0)" y="371" opacity="1">2017</text><text x="437.4625" style="color:#000000;cursor:default;font-size:11px;fill:#000000;" text-anchor="middle" transform="translate(0,0)" y="371" opacity="1">2018</text></g><g class="highcharts-axis-labels highcharts-yaxis-labels" data-z-index="7"><text x="31" style="color:#000000;cursor:default;font-size:11px;fill:#000000;" text-anchor="end" transform="translate(0,0)" y="357" opacity="1">0</text><text x="31" style="color:#000000;cursor:default;font-size:11px;fill:#000000;" text-anchor="end" transform="translate(0,0)" y="311" opacity="1">50</text><text x="31" style="color:#000000;cursor:default;font-size:11px;fill:#000000;" text-anchor="end" transform="translate(0,0)" y="266" opacity="1">100</text><text x="31" style="color:#000000;cursor:default;font-size:11px;fill:#000000;" text-anchor="end" transform="translate(0,0)" y="221" opacity="1">150</text><text x="31" style="color:#000000;cursor:default;font-size:11px;fill:#000000;" text-anchor="end" transform="translate(0,0)" y="176" opacity="1">200</text></g><text x="10" class="highcharts-credits" text-anchor="start" data-z-index="8" style="cursor:default;color:#000000;font-size:10px;fill:#000000;" y="403"><tspan>Quelle: Staatssekretariat für Migration (SEM), Zentrales Migrationssystem (ZEMIS).</tspan><tspan x="10" dy="13">Zuletzt geändert: 2019-3-25</tspan></text></svg>