<?xml version="1.0" standalone="no"?><!DOCTYPE svg PUBLIC "-//W3C//DTD SVG 1.1//EN" "http://www.w3.org/Graphics/SVG/1.1/DTD/svg11.dtd"><svg xmlns:xlink="http://www.w3.org/1999/xlink" version="1.1" class="highcharts-root" style="font-family:Inter,Helvetica Neue,Helvetica,Arial,sans-serif;font-size:12px;" xmlns="http://www.w3.org/2000/svg" width="600" height="428"><desc>Created with Highcharts 8.2.2</desc><defs><clipPath id="highcharts-s2hm3vn-13-"><rect x="0" y="0" width="295" height="458" fill="none"></rect></clipPath><clipPath id="highcharts-s2hm3vn-20-"><rect x="0" y="0" width="295" height="458" fill="none"></rect></clipPath><clipPath id="highcharts-s2hm3vn-21-"><rect x="124" y="56" width="458" height="295" fill="none"></rect></clipPath></defs><rect fill="#ffffff" class="highcharts-background" x="0" y="0" width="600" height="428" rx="0" ry="0"></rect><rect fill="none" class="highcharts-plot-background" x="124" y="56" width="458" height="295"></rect><g class="highcharts-pane-group" data-z-index="0"></g><g class="highcharts-grid highcharts-xaxis-grid" data-z-index="1"><path fill="none" data-z-index="1" class="highcharts-grid-line" d="M 124 105.5 L 582 105.5" opacity="1"></path><path fill="none" data-z-index="1" class="highcharts-grid-line" d="M 124 154.5 L 582 154.5" opacity="1"></path><path fill="none" data-z-index="1" class="highcharts-grid-line" d="M 124 204.5 L 582 204.5" opacity="1"></path><path fill="none" data-z-index="1" class="highcharts-grid-line" d="M 124 253.5 L 582 253.5" opacity="1"></path><path fill="none" data-z-index="1" class="highcharts-grid-line" d="M 124 302.5 L 582 302.5" opacity="1"></path><path fill="none" data-z-index="1" class="highcharts-grid-line" d="M 124 351.5 L 582 351.5" opacity="1"></path><path fill="none" data-z-index="1" class="highcharts-grid-line" d="M 124 56.5 L 582 56.5" opacity="1"></path></g><g class="highcharts-grid highcharts-yaxis-grid" data-z-index="1"><path fill="none" stroke="#B9CFD7" stroke-width="0.5" data-z-index="1" class="highcharts-grid-line" d="M 123.75 56 L 123.75 351" opacity="1"></path><path fill="none" stroke="#B9CFD7" stroke-width="0.5" data-z-index="1" class="highcharts-grid-line" d="M 180.75 56 L 180.75 351" opacity="1"></path><path fill="none" stroke="#B9CFD7" stroke-width="0.5" data-z-index="1" class="highcharts-grid-line" d="M 238.75 56 L 238.75 351" opacity="1"></path><path fill="none" stroke="#B9CFD7" stroke-width="0.5" data-z-index="1" class="highcharts-grid-line" d="M 295.75 56 L 295.75 351" opacity="1"></path><path fill="none" stroke="#B9CFD7" stroke-width="0.5" data-z-index="1" class="highcharts-grid-line" d="M 352.75 56 L 352.75 351" opacity="1"></path><path fill="none" stroke="#B9CFD7" stroke-width="0.5" data-z-index="1" class="highcharts-grid-line" d="M 409.75 56 L 409.75 351" opacity="1"></path><path fill="none" stroke="#B9CFD7" stroke-width="0.5" data-z-index="1" class="highcharts-grid-line" d="M 467.75 56 L 467.75 351" opacity="1"></path><path fill="none" stroke="#B9CFD7" stroke-width="0.5" data-z-index="1" class="highcharts-grid-line" d="M 524.75 56 L 524.75 351" opacity="1"></path><path fill="none" stroke="#B9CFD7" stroke-width="0.5" data-z-index="1" class="highcharts-grid-line" d="M 582.25 56 L 582.25 351" opacity="1"></path></g><rect fill="none" class="highcharts-plot-border" data-z-index="1" x="124" y="56" width="458" height="295"></rect><g class="highcharts-axis highcharts-xaxis" data-z-index="2"><path fill="none" class="highcharts-axis-line" stroke="#B9CFD7" stroke-width="0.5" data-z-index="7" d="M 123.75 56 L 123.75 351"></path></g><g class="highcharts-axis highcharts-yaxis" data-z-index="2"><path fill="none" class="highcharts-axis-line" data-z-index="7" d="M 124 351 L 582 351"></path></g><g class="highcharts-series-group" data-z-index="3"><g class="highcharts-series highcharts-series-0 highcharts-column-series" data-z-index="0.1" opacity="1" transform="translate(582,351) rotate(90) scale(-1,1) scale(1 1)" clip-path="url(#highcharts-s2hm3vn-20-)"><rect x="260" y="46" width="20" height="413" fill="#007A2F" opacity="1" class="highcharts-point"></rect><rect x="211" y="50" width="20" height="409" fill="#007A2F" opacity="1" class="highcharts-point"></rect><rect x="162" y="60" width="20" height="399" fill="#007A2F" opacity="1" class="highcharts-point"></rect><rect x="113" y="90" width="20" height="369" fill="#007A2F" opacity="1" class="highcharts-point"></rect><rect x="64" y="111" width="20" height="348" fill="#007A2F" opacity="1" class="highcharts-point"></rect><rect x="15" y="180" width="20" height="279" fill="#007A2F" opacity="1" class="highcharts-point"></rect></g><g class="highcharts-markers highcharts-series-0 highcharts-column-series" data-z-index="0.1" opacity="1" transform="translate(582,351) rotate(90) scale(-1,1) scale(1 1)" clip-path="none"></g></g><text x="10" text-anchor="start" class="highcharts-caption" data-z-index="4" style="color:#666666;fill:#666666;" y="385"></text><g class="highcharts-axis-labels highcharts-xaxis-labels" data-z-index="7"><text x="109" style="color:#000000;cursor:default;font-size:11px;fill:#000000;" text-anchor="end" transform="translate(0,0)" y="85" opacity="1">Schweizer</text><text x="109" style="color:#000000;cursor:default;font-size:11px;fill:#000000;" text-anchor="end" transform="translate(0,0)" y="134" opacity="1"><tspan>Grenzgänger (G)</tspan></text><text x="109" style="color:#000000;cursor:default;font-size:11px;fill:#000000;" text-anchor="end" transform="translate(0,0)" y="183" opacity="1">Total</text><text x="109" style="color:#000000;cursor:default;font-size:11px;fill:#000000;" text-anchor="end" transform="translate(0,0)" y="232" opacity="1"><tspan>Niedergelassene (C)</tspan></text><text x="109" style="color:#000000;cursor:default;font-size:11px;fill:#000000;" text-anchor="end" transform="translate(0,0)" y="281" opacity="1"><tspan>Aufenthalter (B)</tspan></text><text x="109" style="color:#000000;cursor:default;font-size:11px;fill:#000000;" text-anchor="end" transform="translate(0,0)" y="330" opacity="1"><tspan>Kurzaufenthalter (L)</tspan></text></g><g class="highcharts-axis-labels highcharts-yaxis-labels" data-z-index="7"><text x="124" style="color:#000000;cursor:default;font-size:11px;fill:#000000;" text-anchor="middle" transform="translate(0,0)" y="370" opacity="1">0</text><text x="181.25" style="color:#000000;cursor:default;font-size:11px;fill:#000000;" text-anchor="middle" transform="translate(0,0)" y="370" opacity="1"><tspan>1 000</tspan></text><text x="238.5" style="color:#000000;cursor:default;font-size:11px;fill:#000000;" text-anchor="middle" transform="translate(0,0)" y="370" opacity="1"><tspan>2 000</tspan></text><text x="295.75" style="color:#000000;cursor:default;font-size:11px;fill:#000000;" text-anchor="middle" transform="translate(0,0)" y="370" opacity="1"><tspan>3 000</tspan></text><text x="353" style="color:#000000;cursor:default;font-size:11px;fill:#000000;" text-anchor="middle" transform="translate(0,0)" y="370" opacity="1"><tspan>4 000</tspan></text><text x="410.25" style="color:#000000;cursor:default;font-size:11px;fill:#000000;" text-anchor="middle" transform="translate(0,0)" y="370" opacity="1"><tspan>5 000</tspan></text><text x="467.5" style="color:#000000;cursor:default;font-size:11px;fill:#000000;" text-anchor="middle" transform="translate(0,0)" y="370" opacity="1"><tspan>6 000</tspan></text><text x="524.75" style="color:#000000;cursor:default;font-size:11px;fill:#000000;" text-anchor="middle" transform="translate(0,0)" y="370" opacity="1"><tspan>7 000</tspan></text><text x="576.5" style="color:#000000;cursor:default;font-size:11px;fill:#000000;" text-anchor="middle" transform="translate(0,0)" y="370" opacity="1"><tspan>8 000</tspan></text></g></svg>