<svg version="1.1" class="highcharts-root" style="font-family: Arial; font-size: 1rem;" xmlns="http://www.w3.org/2000/svg" width="600" height="400" viewBox="0 0 600 400" role="img" aria-label="Medianlohn in Industrie und Baugewerbe"><desc>Created with Highcharts 12.5.0</desc><defs><filter id="highcharts-drop-shadow-0"><feDropShadow dx="1" dy="1" flood-color="#000000" flood-opacity="0.75" stdDeviation="2.5"></feDropShadow></filter><clipPath id="highcharts-ng0189y-202-"><rect x="0" y="0" width="526" height="195" fill="none"></rect></clipPath></defs><rect fill="#ffffff" class="highcharts-background" filter="none" x="0" y="0" width="600" height="400" rx="0" ry="0"></rect><rect fill="none" class="highcharts-plot-background" x="64" y="135" width="526" height="195" filter="none"></rect><g class="highcharts-pane-group" data-z-index="0"></g><g class="highcharts-grid highcharts-xaxis-grid" data-z-index="1"><path fill="none" stroke="#e6e6e6" stroke-width="0" stroke-dasharray="none" data-z-index="1" class="highcharts-grid-line" d="M 151.5 135 L 151.5 330" opacity="1"></path><path fill="none" stroke="#e6e6e6" stroke-width="0" stroke-dasharray="none" data-z-index="1" class="highcharts-grid-line" d="M 239.5 135 L 239.5 330" opacity="1"></path><path fill="none" stroke="#e6e6e6" stroke-width="0" stroke-dasharray="none" data-z-index="1" class="highcharts-grid-line" d="M 327.5 135 L 327.5 330" opacity="1"></path><path fill="none" stroke="#e6e6e6" stroke-width="0" stroke-dasharray="none" data-z-index="1" class="highcharts-grid-line" d="M 414.5 135 L 414.5 330" opacity="1"></path><path fill="none" stroke="#e6e6e6" stroke-width="0" stroke-dasharray="none" data-z-index="1" class="highcharts-grid-line" d="M 502.5 135 L 502.5 330" opacity="1"></path><path fill="none" stroke="#e6e6e6" stroke-width="0" stroke-dasharray="none" data-z-index="1" class="highcharts-grid-line" d="M 590.5 135 L 590.5 330" opacity="1"></path><path fill="none" stroke="#e6e6e6" stroke-width="0" stroke-dasharray="none" data-z-index="1" class="highcharts-grid-line" d="M 64.5 135 L 64.5 330" opacity="1"></path></g><g class="highcharts-grid highcharts-yaxis-grid" data-z-index="1"><path fill="none" stroke="#B9CFD7" stroke-width="0.5" stroke-dasharray="none" data-z-index="1" class="highcharts-grid-line" d="M 64 330.25 L 590 330.25" opacity="1"></path><path fill="none" stroke="#B9CFD7" stroke-width="0.5" stroke-dasharray="none" data-z-index="1" class="highcharts-grid-line" d="M 64 265.25 L 590 265.25" opacity="1"></path><path fill="none" stroke="#B9CFD7" stroke-width="0.5" stroke-dasharray="none" data-z-index="1" class="highcharts-grid-line" d="M 64 200.25 L 590 200.25" opacity="1"></path><path fill="none" stroke="#B9CFD7" stroke-width="0.5" stroke-dasharray="none" data-z-index="1" class="highcharts-grid-line" d="M 64 135.25 L 590 135.25" opacity="1"></path></g><rect fill="none" class="highcharts-plot-border" data-z-index="1" stroke="#cccccc" stroke-width="0" x="64" y="135" width="526" height="195"></rect><g class="highcharts-axis highcharts-xaxis" data-z-index="2"><path fill="none" class="highcharts-axis-line" stroke="#B9CFD7" stroke-width="0.5" data-z-index="7" d="M 64 330.25 L 590 330.25"></path></g><g class="highcharts-axis highcharts-yaxis" data-z-index="2"><path fill="none" class="highcharts-axis-line" stroke="#B9CFD7" stroke-width="0" data-z-index="7" d="M 64 135 L 64 330"></path></g><g class="highcharts-series-group" data-z-index="3" filter="none"><g class="highcharts-series highcharts-series-0 highcharts-column-series highcharts-tracker" data-z-index="0.1" opacity="1" transform="translate(64,135) scale(1 1)" clip-path="url(#highcharts-ng0189y-202-)"><path fill="#E7CEE2" d="M 21 104 L 32 104 A 3 3 0 0 1 35 107 L 35 195 A 0 0 0 0 1 35 195 L 18 195 A 0 0 0 0 1 18 195 L 18 107 A 3 3 0 0 1 21 104 Z" stroke="#ffffff" stroke-width="0" opacity="1" filter="none" class="highcharts-point"></path><path fill="#E7CEE2" d="M 108 99 L 120 99 A 3 3 0 0 1 123 102 L 123 195 A 0 0 0 0 1 123 195 L 105 195 A 0 0 0 0 1 105 195 L 105 102 A 3 3 0 0 1 108 99 Z" stroke="#ffffff" stroke-width="0" opacity="1" filter="none" class="highcharts-point"></path><path fill="#E7CEE2" d="M 196 100 L 207 100 A 3 3 0 0 1 210 103 L 210 195 A 0 0 0 0 1 210 195 L 193 195 A 0 0 0 0 1 193 195 L 193 103 A 3 3 0 0 1 196 100 Z" stroke="#ffffff" stroke-width="0" opacity="1" filter="none" class="highcharts-point"></path><path fill="#E7CEE2" d="M 284 98 L 295 98 A 3 3 0 0 1 298 101 L 298 195 A 0 0 0 0 1 298 195 L 281 195 A 0 0 0 0 1 281 195 L 281 101 A 3 3 0 0 1 284 98 Z" stroke="#ffffff" stroke-width="0" opacity="1" filter="none" class="highcharts-point"></path><path fill="#E7CEE2" d="M 371 99 L 383 99 A 3 3 0 0 1 386 102 L 386 195 A 0 0 0 0 1 386 195 L 368 195 A 0 0 0 0 1 368 195 L 368 102 A 3 3 0 0 1 371 99 Z" stroke="#ffffff" stroke-width="0" opacity="1" filter="none" class="highcharts-point"></path><path fill="#E7CEE2" d="M 459 97 L 470 97 A 3 3 0 0 1 473 100 L 473 195 A 0 0 0 0 1 473 195 L 456 195 A 0 0 0 0 1 456 195 L 456 100 A 3 3 0 0 1 459 97 Z" stroke="#ffffff" stroke-width="0" opacity="1" filter="none" class="highcharts-point"></path></g><g class="highcharts-markers highcharts-series-0 highcharts-column-series" data-z-index="0.1" opacity="1" transform="translate(64,135) scale(1 1)" clip-path="none"></g><g class="highcharts-series highcharts-series-1 highcharts-column-series highcharts-tracker" data-z-index="0.1" opacity="1" transform="translate(64,135) scale(1 1)" clip-path="url(#highcharts-ng0189y-202-)"><path fill="#B375AB" d="M 38 66 L 50 66 A 3 3 0 0 1 53 69 L 53 195 A 0 0 0 0 1 53 195 L 35 195 A 0 0 0 0 1 35 195 L 35 69 A 3 3 0 0 1 38 66 Z" stroke="#ffffff" stroke-width="0" opacity="1" filter="none" class="highcharts-point"></path><path fill="#B375AB" d="M 126 54 L 137 54 A 3 3 0 0 1 140 57 L 140 195 A 0 0 0 0 1 140 195 L 123 195 A 0 0 0 0 1 123 195 L 123 57 A 3 3 0 0 1 126 54 Z" stroke="#ffffff" stroke-width="0" opacity="1" filter="none" class="highcharts-point"></path><path fill="#B375AB" d="M 213 54 L 225 54 A 3 3 0 0 1 228 57 L 228 195 A 0 0 0 0 1 228 195 L 210 195 A 0 0 0 0 1 210 195 L 210 57 A 3 3 0 0 1 213 54 Z" stroke="#ffffff" stroke-width="0" opacity="1" filter="none" class="highcharts-point"></path><path fill="#B375AB" d="M 301 54 L 313 54 A 3 3 0 0 1 316 57 L 316 195 A 0 0 0 0 1 316 195 L 298 195 A 0 0 0 0 1 298 195 L 298 57 A 3 3 0 0 1 301 54 Z" stroke="#ffffff" stroke-width="0" opacity="1" filter="none" class="highcharts-point"></path><path fill="#B375AB" d="M 389 50 L 400 50 A 3 3 0 0 1 403 53 L 403 195 A 0 0 0 0 1 403 195 L 386 195 A 0 0 0 0 1 386 195 L 386 53 A 3 3 0 0 1 389 50 Z" stroke="#ffffff" stroke-width="0" opacity="1" filter="none" class="highcharts-point"></path><path fill="#B375AB" d="M 476 42 L 488 42 A 3 3 0 0 1 491 45 L 491 195 A 0 0 0 0 1 491 195 L 473 195 A 0 0 0 0 1 473 195 L 473 45 A 3 3 0 0 1 476 42 Z" stroke="#ffffff" stroke-width="0" opacity="1" filter="none" class="highcharts-point"></path></g><g class="highcharts-markers highcharts-series-1 highcharts-column-series" data-z-index="0.1" opacity="1" transform="translate(64,135) scale(1 1)" clip-path="none"></g><g class="highcharts-series highcharts-series-2 highcharts-column-series highcharts-tracker" data-z-index="0.1" opacity="1" transform="translate(64,135) scale(1 1)" clip-path="url(#highcharts-ng0189y-202-)"><path fill="#923F8D" d="M 56 118 L 67 118 A 3 3 0 0 1 70 121 L 70 195 A 0 0 0 0 1 70 195 L 53 195 A 0 0 0 0 1 53 195 L 53 121 A 3 3 0 0 1 56 118 Z" stroke="#ffffff" stroke-width="0" opacity="1" filter="none" class="highcharts-point"></path><path fill="#923F8D" d="M 143 116 L 155 116 A 3 3 0 0 1 158 119 L 158 195 A 0 0 0 0 1 158 195 L 140 195 A 0 0 0 0 1 140 195 L 140 119 A 3 3 0 0 1 143 116 Z" stroke="#ffffff" stroke-width="0" opacity="1" filter="none" class="highcharts-point"></path><path fill="#923F8D" d="M 231 116 L 242 116 A 3 3 0 0 1 245 119 L 245 195 A 0 0 0 0 1 245 195 L 228 195 A 0 0 0 0 1 228 195 L 228 119 A 3 3 0 0 1 231 116 Z" stroke="#ffffff" stroke-width="0" opacity="1" filter="none" class="highcharts-point"></path><path fill="#923F8D" d="M 319 117 L 330 117 A 3 3 0 0 1 333 120 L 333 195 A 0 0 0 0 1 333 195 L 316 195 A 0 0 0 0 1 316 195 L 316 120 A 3 3 0 0 1 319 117 Z" stroke="#ffffff" stroke-width="0" opacity="1" filter="none" class="highcharts-point"></path><path fill="#923F8D" d="M 406 112 L 418 112 A 3 3 0 0 1 421 115 L 421 195 A 0 0 0 0 1 421 195 L 403 195 A 0 0 0 0 1 403 195 L 403 115 A 3 3 0 0 1 406 112 Z" stroke="#ffffff" stroke-width="0" opacity="1" filter="none" class="highcharts-point"></path><path fill="#923F8D" d="M 494 114 L 505 114 A 3 3 0 0 1 508 117 L 508 195 A 0 0 0 0 1 508 195 L 491 195 A 0 0 0 0 1 491 195 L 491 117 A 3 3 0 0 1 494 114 Z" stroke="#ffffff" stroke-width="0" opacity="1" filter="none" class="highcharts-point"></path></g><g class="highcharts-markers highcharts-series-2 highcharts-column-series" data-z-index="0.1" opacity="1" transform="translate(64,135) scale(1 1)" clip-path="none"></g></g><text x="10" text-anchor="start" class="highcharts-caption" data-z-index="4" style="font-size: 0.8em; fill: rgb(102, 102, 102);" text-align="left" y="372" transform-origin="10 15" transform="translate(0,0) scale(1 1)"></text><g class="highcharts-axis-labels highcharts-xaxis-labels" data-z-index="7"><text x="107.83333333333667" text-anchor="middle" transform="translate(0,0)" style="cursor: default; font-size: 0.8em; fill: rgb(0, 0, 0);" y="357" opacity="1">2010</text><text x="195.49999999999665" text-anchor="middle" transform="translate(0,0)" style="cursor: default; font-size: 0.8em; fill: rgb(0, 0, 0);" y="357" opacity="1">2012</text><text x="283.1666666666667" text-anchor="middle" transform="translate(0,0)" style="cursor: default; font-size: 0.8em; fill: rgb(0, 0, 0);" y="357" opacity="1">2014</text><text x="370.83333333333667" text-anchor="middle" transform="translate(0,0)" style="cursor: default; font-size: 0.8em; fill: rgb(0, 0, 0);" y="357" opacity="1">2016</text><text x="458.4999999999967" text-anchor="middle" transform="translate(0,0)" style="cursor: default; font-size: 0.8em; fill: rgb(0, 0, 0);" y="357" opacity="1">2018</text><text x="546.1666666666666" text-anchor="middle" transform="translate(0,0)" style="cursor: default; font-size: 0.8em; fill: rgb(0, 0, 0);" y="357" opacity="1">2020</text></g><g class="highcharts-axis-labels highcharts-yaxis-labels" data-z-index="7"><text x="49" text-anchor="end" transform="translate(0,0)" style="cursor: default; font-size: 0.8em; fill: rgb(0, 0, 0);" y="335" opacity="1">0</text><text x="49" text-anchor="end" transform="translate(0,0)" style="cursor: default; font-size: 0.8em; fill: rgb(0, 0, 0);" y="270" opacity="1">5,000</text><text x="49" text-anchor="end" transform="translate(0,0)" style="cursor: default; font-size: 0.8em; fill: rgb(0, 0, 0);" y="205" opacity="1">10,000</text><text x="49" text-anchor="end" transform="translate(0,0)" style="cursor: default; font-size: 0.8em; fill: rgb(0, 0, 0);" y="140" opacity="1">15,000</text></g><g class="highcharts-legend highcharts-no-tooltip" data-z-index="7" text-align="left" transform="translate(56,55)"><rect fill="none" class="highcharts-legend-box" rx="0" ry="0" stroke="#999999" stroke-width="0" filter="none" x="0" y="0" width="347" height="68"></rect><g data-z-index="1"><g><g class="highcharts-legend-item highcharts-column-series highcharts-color-undefined highcharts-series-0" data-z-index="1" transform="translate(8,3)"><text x="21" text-anchor="start" data-z-index="2" style="cursor: pointer; font-size: 0.8em; text-decoration: none; font-weight: normal; fill: rgb(51, 51, 51);" y="17">Industrie (inkl. Chemie/Pharma, ohne Energie/Wasser)</text><rect x="2" y="6" rx="0" ry="0" width="12" height="12" fill="#E7CEE2" class="highcharts-point" data-z-index="3"></rect></g><g class="highcharts-legend-item highcharts-column-series highcharts-color-undefined highcharts-series-1" data-z-index="1" transform="translate(8,22)"><text x="21" y="17" text-anchor="start" data-z-index="2" style="cursor: pointer; font-size: 0.8em; text-decoration: none; font-weight: normal; fill: rgb(51, 51, 51);">Pharma</text><rect x="2" y="6" rx="0" ry="0" width="12" height="12" fill="#B375AB" class="highcharts-point" data-z-index="3"></rect></g><g class="highcharts-legend-item highcharts-column-series highcharts-color-undefined highcharts-series-2" data-z-index="1" transform="translate(8,41)"><text x="21" y="17" text-anchor="start" data-z-index="2" style="cursor: pointer; font-size: 0.8em; text-decoration: none; font-weight: normal; fill: rgb(51, 51, 51);">Baugewerbe</text><rect x="2" y="6" rx="0" ry="0" width="12" height="12" fill="#923F8D" class="highcharts-point" data-z-index="3"></rect></g></g></g></g></svg>