<?xml version="1.0" standalone="no"?><!DOCTYPE svg PUBLIC "-//W3C//DTD SVG 1.1//EN" "http://www.w3.org/Graphics/SVG/1.1/DTD/svg11.dtd"><svg xmlns:xlink="http://www.w3.org/1999/xlink" version="1.1" class="highcharts-root" style="font-family:Arial;font-size:12px;" xmlns="http://www.w3.org/2000/svg" viewBox="0 0 485 415"><desc>Created with Highcharts 7.2.0</desc><defs><clipPath id="highcharts-h3pq9af-30-"><rect x="0" y="0" width="433" height="255" fill="none"></rect></clipPath><clipPath id="highcharts-h3pq9af-43-"><rect x="0" y="0" width="433" height="255" fill="none"></rect></clipPath></defs><rect fill="#fbfbfb" class="highcharts-background" x="0" y="0" width="485" height="428" rx="0" ry="0"></rect><rect fill="none" class="highcharts-plot-background" x="42" y="97" width="433" height="255"></rect><g class="highcharts-pane-group" data-z-index="0"></g><g class="highcharts-grid highcharts-xaxis-grid" data-z-index="1"><path fill="none" data-z-index="1" class="highcharts-grid-line" d="M 77.5 97 L 77.5 352" opacity="1"></path><path fill="none" data-z-index="1" class="highcharts-grid-line" d="M 113.5 97 L 113.5 352" opacity="1"></path><path fill="none" data-z-index="1" class="highcharts-grid-line" d="M 149.5 97 L 149.5 352" opacity="1"></path><path fill="none" data-z-index="1" class="highcharts-grid-line" d="M 185.5 97 L 185.5 352" opacity="1"></path><path fill="none" data-z-index="1" class="highcharts-grid-line" d="M 221.5 97 L 221.5 352" opacity="1"></path><path fill="none" data-z-index="1" class="highcharts-grid-line" d="M 258.5 97 L 258.5 352" opacity="1"></path><path fill="none" data-z-index="1" class="highcharts-grid-line" d="M 294.5 97 L 294.5 352" opacity="1"></path><path fill="none" data-z-index="1" class="highcharts-grid-line" d="M 330.5 97 L 330.5 352" opacity="1"></path><path fill="none" data-z-index="1" class="highcharts-grid-line" d="M 366.5 97 L 366.5 352" opacity="1"></path><path fill="none" data-z-index="1" class="highcharts-grid-line" d="M 402.5 97 L 402.5 352" opacity="1"></path><path fill="none" data-z-index="1" class="highcharts-grid-line" d="M 438.5 97 L 438.5 352" opacity="1"></path><path fill="none" data-z-index="1" class="highcharts-grid-line" d="M 474.5 97 L 474.5 352" opacity="1"></path><path fill="none" data-z-index="1" class="highcharts-grid-line" d="M 41.5 97 L 41.5 352" opacity="1"></path></g><g class="highcharts-grid highcharts-yaxis-grid" data-z-index="1"><path fill="none" stroke="#B9CFD7" stroke-width="0.5" data-z-index="1" class="highcharts-grid-line" d="M 42 352.25 L 475 352.25" opacity="1"></path><path fill="none" stroke="#B9CFD7" stroke-width="0.5" data-z-index="1" class="highcharts-grid-line" d="M 42 301.25 L 475 301.25" opacity="1"></path><path fill="none" stroke="#B9CFD7" stroke-width="0.5" data-z-index="1" class="highcharts-grid-line" d="M 42 250.25 L 475 250.25" opacity="1"></path><path fill="none" stroke="#B9CFD7" stroke-width="0.5" data-z-index="1" class="highcharts-grid-line" d="M 42 199.25 L 475 199.25" opacity="1"></path><path fill="none" stroke="#B9CFD7" stroke-width="0.5" data-z-index="1" class="highcharts-grid-line" d="M 42 148.25 L 475 148.25" opacity="1"></path><path fill="none" stroke="#B9CFD7" stroke-width="0.5" data-z-index="1" class="highcharts-grid-line" d="M 42 96.75 L 475 96.75" opacity="1"></path></g><rect fill="none" class="highcharts-plot-border" data-z-index="1" x="42" y="97" width="433" height="255"></rect><g class="highcharts-axis highcharts-xaxis" data-z-index="2"><path fill="none" class="highcharts-axis-line" stroke="#B9CFD7" stroke-width="0.5" data-z-index="7" d="M 42 352.25 L 475 352.25"></path></g><g class="highcharts-axis highcharts-yaxis" data-z-index="2"><path fill="none" class="highcharts-axis-line" data-z-index="7" d="M 42 97 L 42 352"></path></g><g class="highcharts-series-group" data-z-index="3"><g data-z-index="0.1" class="highcharts-series highcharts-series-0 highcharts-line-series " transform="translate(42,97) scale(1 1)" clip-path="url(#highcharts-h3pq9af-43-)"><path fill="none" d="M 18.041666666667 61.269752802 L 54.125 71.35805708999999 L 90.208333333333 58.26639279 L 126.29166666667 76.31943347999999 L 162.375 94.047486768 L 198.45833333333 79.135420818 L 234.54166666667 88.586354952 L 270.625 77.04756405 L 306.70833333333 88.32754045799999 L 342.79166666667 95.34636252000001 L 378.875 92.616883116 L 414.95833333333 95.058142344" class="highcharts-graph" data-z-index="1" stroke="rgb(176, 0, 0)" stroke-width="2" stroke-linejoin="round" stroke-linecap="round"></path></g><g data-z-index="0.1" class="highcharts-markers highcharts-series-0 highcharts-line-series " transform="translate(42,97) scale(1 1)" clip-path="none"></g><g data-z-index="0.1" class="highcharts-series highcharts-series-1 highcharts-line-series " transform="translate(42,97) scale(1 1)" clip-path="url(#highcharts-h3pq9af-43-)"><path fill="none" d="M 18.041666666667 50.544030522000014 L 54.125 53.013410436000015 L 90.208333333333 30.586055681999994 L 126.29166666667 52.987195008000015 L 162.375 63.232921812 L 198.45833333333 43.49748812399997 L 234.54166666667 69.433192548 L 270.625 59.038851744 L 306.70833333333 54.824792736000006 L 342.79166666667 48.94204239000001 L 378.875 55.48330504200001 L 414.95833333333 59.039018819999995" class="highcharts-graph" data-z-index="1" stroke="rgb(105, 146, 155)" stroke-width="2" stroke-linejoin="round" stroke-linecap="round"></path></g><g data-z-index="0.1" class="highcharts-markers highcharts-series-1 highcharts-line-series " transform="translate(42,97) scale(1 1)" clip-path="none"></g></g><text x="10" text-anchor="start" class="highcharts-title" data-z-index="4" style="color:#000000;font-size:14px;font-weight:bold;fill:#000000;" y="21"><tspan>Mittlere Aufenthaltsdauer pro Monat</tspan></text><text x="10" text-anchor="start" class="highcharts-subtitle" data-z-index="4" style="color:#000000;font-size:12px;font-weight:normal;font-family:Arial;fill:#000000;" y="40"><tspan>in Tagen, Basel-Stadt, 2018</tspan></text><text x="10" text-anchor="start" class="highcharts-caption" data-z-index="4" style="color:#666666;fill:#666666;" y="385"></text><g class="highcharts-legend" data-z-index="7" transform="translate(34,55)"><rect fill="none" class="highcharts-legend-box" rx="0" ry="0" x="0" y="0" width="165" height="30" visibility="visible"></rect><g data-z-index="1"><g><g class="highcharts-legend-item highcharts-line-series highcharts-color-undefined highcharts-series-0" data-z-index="1" transform="translate(8,3)"><path fill="none" d="M 0 11 L 16 11" class="highcharts-graph" stroke="rgb(176, 0, 0)" stroke-width="2"></path><text x="21" style="color:#333333;cursor:pointer;font-size:12px;font-weight:normal;fill:#333333;" text-anchor="start" data-z-index="2" y="15"><tspan>Inland</tspan></text></g><g class="highcharts-legend-item highcharts-line-series highcharts-color-undefined highcharts-series-1" data-z-index="1" transform="translate(87.8125,3)"><path fill="none" d="M 0 11 L 16 11" class="highcharts-graph" stroke="rgb(105, 146, 155)" stroke-width="2"></path><text x="21" y="15" style="color:#333333;cursor:pointer;font-size:12px;font-weight:normal;fill:#333333;" text-anchor="start" data-z-index="2"><tspan>Ausland</tspan></text></g></g></g></g><g class="highcharts-axis-labels highcharts-xaxis-labels" data-z-index="7"><text x="60.04166666666633" style="color:#000000;cursor:default;font-size:11px;fill:#000000;" text-anchor="middle" transform="translate(0,0)" y="371" opacity="1">Jan</text><text x="96.12500000000333" style="color:#000000;cursor:default;font-size:11px;fill:#000000;" text-anchor="middle" transform="translate(0,0)" y="371" opacity="1">Feb</text><text x="132.20833333333334" style="color:#000000;cursor:default;font-size:11px;fill:#000000;" text-anchor="middle" transform="translate(0,0)" y="371" opacity="1">Mrz</text><text x="168.29166666666333" style="color:#000000;cursor:default;font-size:11px;fill:#000000;" text-anchor="middle" transform="translate(0,0)" y="371" opacity="1">Apr</text><text x="204.37500000000335" style="color:#000000;cursor:default;font-size:11px;fill:#000000;" text-anchor="middle" transform="translate(0,0)" y="371" opacity="1">Mai</text><text x="240.45833333333334" style="color:#000000;cursor:default;font-size:11px;fill:#000000;" text-anchor="middle" transform="translate(0,0)" y="371" opacity="1">Jun</text><text x="276.54166666666333" style="color:#000000;cursor:default;font-size:11px;fill:#000000;" text-anchor="middle" transform="translate(0,0)" y="371" opacity="1">Jul</text><text x="312.6250000000033" style="color:#000000;cursor:default;font-size:11px;fill:#000000;" text-anchor="middle" transform="translate(0,0)" y="371" opacity="1">Aug</text><text x="348.7083333333333" style="color:#000000;cursor:default;font-size:11px;fill:#000000;" text-anchor="middle" transform="translate(0,0)" y="371" opacity="1">Sep</text><text x="384.79166666666333" style="color:#000000;cursor:default;font-size:11px;fill:#000000;" text-anchor="middle" transform="translate(0,0)" y="371" opacity="1">Okt</text><text x="420.8750000000033" style="color:#000000;cursor:default;font-size:11px;fill:#000000;" text-anchor="middle" transform="translate(0,0)" y="371" opacity="1">Nov</text><text x="456.9583333333333" style="color:#000000;cursor:default;font-size:11px;fill:#000000;" text-anchor="middle" transform="translate(0,0)" y="371" opacity="1">Dez</text></g><g class="highcharts-axis-labels highcharts-yaxis-labels" data-z-index="7"><text x="27" style="color:#000000;cursor:default;font-size:11px;fill:#000000;" text-anchor="end" transform="translate(0,0)" y="357" opacity="1">0.0</text><text x="27" style="color:#000000;cursor:default;font-size:11px;fill:#000000;" text-anchor="end" transform="translate(0,0)" y="306" opacity="1">0.5</text><text x="27" style="color:#000000;cursor:default;font-size:11px;fill:#000000;" text-anchor="end" transform="translate(0,0)" y="255" opacity="1">1.0</text><text x="27" style="color:#000000;cursor:default;font-size:11px;fill:#000000;" text-anchor="end" transform="translate(0,0)" y="204" opacity="1">1.5</text><text x="27" style="color:#000000;cursor:default;font-size:11px;fill:#000000;" text-anchor="end" transform="translate(0,0)" y="153" opacity="1">2.0</text><text x="27" style="color:#000000;cursor:default;font-size:11px;fill:#000000;" text-anchor="end" transform="translate(0,0)" y="102" opacity="1">2.5</text></g><text x="10" class="highcharts-credits" text-anchor="start" data-z-index="8" style="cursor:default;color:#000000;font-size:10px;fill:#000000;" y="403"><tspan>Quelle: Statistisches Amt Basel-Stadt, Tourismusstatistik.</tspan><tspan x="10" dy="13">Zuletzt geändert: 2019-2-21</tspan></text></svg>