<?xml version="1.0" standalone="no"?><!DOCTYPE svg PUBLIC "-//W3C//DTD SVG 1.1//EN" "http://www.w3.org/Graphics/SVG/1.1/DTD/svg11.dtd"><svg xmlns:xlink="http://www.w3.org/1999/xlink" version="1.1" class="highcharts-root" style="font-family:Arial;font-size:12px;" xmlns="http://www.w3.org/2000/svg" width="485" height="428"><desc>Created with Highcharts 8.2.2</desc><defs><linearGradient x1="0" y1="0" x2="1" y2="0" id="highcharts-lpquni4-52"><stop offset="0" stop-color="#CD9C00" stop-opacity="1"></stop><stop offset="0.25" stop-color="#F2F2F2" stop-opacity="1"></stop><stop offset="0.9" stop-color="#007A2F" stop-opacity="1"></stop></linearGradient><clipPath id="highcharts-lpquni4-53-"><rect x="0" y="0" width="465" height="290" fill="none"></rect></clipPath><clipPath id="highcharts-lpquni4-75-"><rect x="0" y="0" width="465" height="290" fill="none"></rect></clipPath><clipPath id="highcharts-lpquni4-99-"><rect x="10" y="73" width="465" height="290" fill="none"></rect></clipPath></defs><rect fill="#fbfbfb" class="highcharts-background" x="0" y="0" width="485" height="428" rx="0" ry="0"></rect><rect fill="none" class="highcharts-plot-background" x="10" y="73" width="465" height="290"></rect><g class="highcharts-pane-group" data-z-index="0"></g><rect fill="none" class="highcharts-plot-border" data-z-index="1" x="10" y="73" width="465" height="290"></rect><g class="highcharts-series-group" data-z-index="3"><g class="highcharts-series highcharts-series-0 highcharts-map-series" data-z-index="0.1" opacity="1" transform="translate(10,73) scale(1 1)" stroke-width="1" clip-path="url(#highcharts-lpquni4-75-)"><g transform="translate(0,0) scale(1 1)"><path fill="rgb(205,156,0)" d="M 163.88714729664306 160.73558984752242 L 163.06267989291564 160.2499206401332 L 162.64716184147417 160.6973574675294 L 161.66950982264999 160.02923148089195 L 159.11578453786603 158.09216674380292 L 157.83756670270412 156.17445734837304 L 155.43268941609077 155.12021302201532 L 150.97180929617343 151.3941024868824 L 146.36357986186488 145.36107118835758 L 142.59828034008083 139.40182615114355 L 140.23233694501621 141.42205189492174 L 137.99575865891555 145.78022434515472 L 136.22750311255137 156.83984106255403 L 136.48199237419146 157.68442909329232 L 143.62561213206402 161.71416658612523 L 145.63429482200075 165.88442959908397 L 154.76214002588046 167.7698694627739 L 161.62690893885133 164.67365253428537 L 163.88714729664306 160.73558984752242 Z" stroke="#fbfbfb" stroke-width="inherit" opacity="1" class="highcharts-point"></path><path fill="rgb(205,156,0)" d="M 130.74847462469313 122.55534491882955 L 133.47279476597805 126.21101731601064 L 131.0036972847832 127.85057737810196 L 132.88291920511762 130.13779204404196 L 131.35002078694987 131.44623865005795 L 133.02605945013013 133.3978119216752 L 128.8762997068544 138.35446939281752 L 126.71707901361673 145.17625477932506 L 128.26674993543642 147.7305221412081 L 129.20671165136665 157.6263949551868 L 130.18535216375062 158.89488728919252 L 138.0537290232399 161.77095713555372 L 141.53249295987428 170.34154706609078 L 139.92858243975388 173.54445752539718 L 142.35173091379858 174.65571560941373 L 143.17568812732122 176.23102359002922 L 143.3300206704047 176.61685494775287 L 143.83258992900076 177.90042978028762 L 146.31667320853612 184.35433345836572 L 146.3166742480492 184.3543361276119 L 146.43583555250194 184.22289837087516 L 147.48966534929323 183.4171166841307 L 149.4024322769167 183.5145630171251 L 153.52910591252441 185.84361328152693 L 162.79202397849645 176.61624909685779 L 163.16395265259433 176.48340831700224 L 163.5713076604328 176.37716120263028 L 164.3334043091508 176.19604367272711 L 181.3783176521338 171.40280650805 L 181.48430967139598 171.39266647732737 L 182.7653654396898 171.42531865173203 L 183.65029038511045 167.91734632471255 L 184.6818950202312 168.15876196184493 L 184.74633842302825 167.79732407426235 L 184.1237150270877 162.17537854959969 L 173.03836559022454 162.8185371021027 L 167.8084055928672 162.08504299287475 L 163.88714729664306 160.73558984752242 L 161.62690893885133 164.67365253428537 L 154.76214002588046 167.7698694627739 L 145.63429482200075 165.88442959908397 L 143.62561213206402 161.71416658612523 L 136.48199237419146 157.68442909329232 L 136.22750311255137 156.83984106255403 L 137.99575865891555 145.78022434515472 L 140.23233694501621 141.42205189492174 L 142.59828034008083 139.40182615114355 L 136.67022068037153 129.0670621960364 L 136.92066030710436 128.65495604172762 L 136.38100659651687 126.98873854037157 L 135.9615026839419 127.123588194241 L 134.68602712122902 120.15792916426354 L 130.74847462469313 122.55534491882955 Z" stroke="#fbfbfb" stroke-width="inherit" opacity="1" class="highcharts-point"></path><path fill="rgb(205,156,0)" d="M 130.74847462469313 122.55534491882955 L 133.47279476597805 126.21101731601064 L 131.0036972847832 127.85057737810196 L 132.88291920511762 130.13779204404196 L 131.35002078694987 131.44623865005795 L 133.02605945013013 133.3978119216752 L 128.8762997068544 138.35446939281752 L 126.71707901361673 145.17625477932506 L 128.26674993543642 147.7305221412081 L 129.20671165136665 157.6263949551868 L 130.18535216375062 158.89488728919252 L 138.0537290232399 161.77095713555372 L 141.53249295987428 170.34154706609078 L 139.92858243975388 173.54445752539718 L 142.35173091379858 174.65571560941373 L 143.17568812732122 176.23102359002922 L 143.3300206704047 176.61685494775287 L 143.83258992900076 177.90042978028762 L 146.31667320853612 184.35433345836572 L 146.3166742480492 184.3543361276119 L 145.8336516524484 184.88710227016028 L 144.1393736887162 185.5389978302597 L 144.1135771954638 185.52975063243628 L 139.4454004097113 184.72186441100988 L 134.45774888239293 182.64009697132548 L 133.0278451159285 181.78275418496304 L 133.3058987885916 181.32967337819733 L 125.48012281290096 176.39600635406984 L 121.36362109491016 171.87103358711843 L 118.7047647368912 167.76770115431822 L 116.62172182163548 162.5987407757532 L 115.22242946867496 155.94691250798698 L 111.98007492760024 138.92451130868602 L 112.6352867241643 138.98461809457916 L 117.31682411642862 134.45674362072214 L 122.38527702064437 128.40164659496855 L 130.74847462469313 122.55534491882955 Z" stroke="#fbfbfb" stroke-width="inherit" opacity="1" class="highcharts-point"></path><path fill="rgb(205,156,0)" d="M 217.34478342039733 154.0570722536046 L 216.8387703777817 163.59740625447262 L 217.46247792795012 166.06918223434278 L 219.20678642063396 168.47871500675097 L 226.55158056161713 174.514966881065 L 228.40895996293835 177.44690255707604 L 229.5350135634724 180.81246803751813 L 229.805510043435 183.49584541324046 L 228.71842222134393 208.03038314736432 L 214.51287691540279 200.8416753283539 L 214.58506883225127 198.44307975889944 L 220.09187080048156 198.44633222158294 L 220.1869893905711 199.30600275085024 L 222.0136936045998 199.2324715846567 L 220.77322984609074 189.90826691789565 L 222.11321258538928 186.36652637534937 L 222.1779748570847 184.11999937985473 L 223.77209610224546 181.68422369774078 L 223.2043181555081 180.22973513980665 L 218.79598762877595 179.08901357028773 L 214.1733772075015 176.6035262281205 L 210.12371040899376 171.5427261772807 L 208.87811286133478 168.5391406615351 L 207.78216048407018 167.39848286579735 L 198.16784890057014 167.43362221755606 L 197.21832111791065 166.3761892022886 L 191.0729204223116 167.99910430828288 L 184.74633842302825 167.79732407426235 L 184.1237150270877 162.17537854959969 L 190.208913276133 161.59156149766036 L 197.65163205345817 159.58268748638756 L 201.98203102330427 157.6885425019807 L 204.94116621568656 157.0316725871806 L 211.4142046964545 153.9701485940049 L 216.1973018304016 153.17281693286017 L 217.34478342039733 154.0570722536046 Z" stroke="#fbfbfb" stroke-width="inherit" opacity="1" class="highcharts-point"></path><path fill="rgb(205,156,0)" d="M 144.1654252770933 185.54837257564546 L 155.3200968107936 191.8547701741516 L 157.42026298546426 188.83801537322285 L 160.16253544529698 191.97731148883534 L 158.74427039334944 194.72168848335 L 162.0527902292458 196.89232468285934 L 168.4061253284471 199.02010490346768 L 172.17850373962116 200.93778241200323 L 172.206278189362 200.96854063115245 L 172.21453592426423 200.97945857601584 L 172.26635211899946 200.99396711054408 L 172.40601669311295 201.0169575575589 L 172.19916644373853 204.59163725650652 L 179.51369992701046 209.72042015484578 L 184.8300415068313 226.79546660799255 L 184.81897675632263 227.98366775532793 L 185.44380034761315 229.03418131566943 L 188.21005174802048 250.49935088189815 L 188.36970940158994 249.3586611992735 L 189.30734337462272 249.227797406545 L 189.2476830051829 248.53942324534918 L 196.83765543621638 234.18515748879977 L 199.32716052640396 231.9985140709679 L 199.96292132064082 233.4765351530456 L 202.10798423512813 232.6486558521781 L 201.2609090270432 230.82931750952127 L 205.28197328604605 227.09211033699282 L 206.04186973942893 221.87420358371136 L 207.2772315956824 219.66412330242622 L 208.9648451996058 218.48453161513973 L 215.4823977775034 216.09658626662753 L 218.3621665030088 213.6222274487427 L 221.47451819735247 215.2188677581444 L 228.30210699766388 217.24588540930108 L 228.71842222134393 208.03038314736432 L 214.51287691540279 200.8416753283539 L 214.58506883225127 198.44307975889944 L 220.09187080048156 198.44633222158294 L 220.1869893905711 199.30600275085024 L 222.0136936045998 199.2324715846567 L 220.77322984609074 189.90826691789565 L 222.11321258538928 186.36652637534937 L 222.1779748570847 184.11999937985473 L 223.77209610224546 181.68422369774078 L 223.2043181555081 180.22973513980665 L 218.79598762877595 179.08901357028773 L 214.1733772075015 176.6035262281205 L 210.12371040899376 171.5427261772807 L 208.87811286133478 168.5391406615351 L 207.78216048407018 167.39848286579735 L 198.16784890057014 167.43362221755606 L 197.21832111791065 166.3761892022886 L 191.0729204223116 167.99910430828288 L 184.74633842302825 167.79732407426235 L 184.6818950202312 168.15876196184493 L 183.65029038511045 167.91734632471255 L 182.7653654396898 171.42531865173203 L 181.48430967139598 171.39266647732737 L 181.3783176521338 171.40280650805 L 164.3334043091508 176.19604367272711 L 163.5713076604328 176.37716120263028 L 163.16395265259433 176.48340831700224 L 162.79202397849645 176.61624909685779 L 153.52910591252441 185.84361328152693 L 149.4024322769167 183.5145630171251 L 147.48966534929323 183.4171166841307 L 146.43583555250194 184.22289837087516 L 146.31667320853612 184.35433345836572 L 145.8336516524484 184.88710227016028 L 144.1393736887162 185.5389978302597 L 144.1654252770933 185.54837257564546 Z" stroke="#fbfbfb" stroke-width="inherit" opacity="1" class="highcharts-point"></path><path fill="rgb(205,156,0)" d="M 144.1135771954638 185.52975063243628 L 144.1654252770933 185.54837257564546 L 155.3200968107936 191.8547701741516 L 157.42026298546426 188.83801537322285 L 160.16253544529698 191.97731148883534 L 158.74427039334944 194.72168848335 L 162.0527902292458 196.89232468285934 L 168.4061253284471 199.02010490346768 L 172.17850373962116 200.93778241200323 L 172.206278189362 200.96854063115245 L 172.21453592426423 200.97945857601584 L 172.26635211899946 200.99396711054408 L 172.40601669311295 201.0169575575589 L 172.19916644373853 204.59163725650652 L 179.51369992701046 209.72042015484578 L 184.8300415068313 226.79546660799255 L 184.81897675632263 227.98366775532793 L 144.16115243395572 209.87813270817512 L 130.24871141233467 203.08612967606092 L 129.0298669646085 203.57039586033875 L 126.87428137672643 203.05570958389305 L 122.57497212370956 203.32273039294176 L 123.52956992173034 196.3263642887998 L 124.13816308648285 194.9410065063593 L 132.55684387750188 187.39736572513328 L 133.67416047043957 185.76447002285815 L 132.4928150042564 184.61399106529618 L 134.45774888239293 182.64009697132548 L 139.4454004097113 184.72186441100988 L 144.1135771954638 185.52975063243628 Z" stroke="#fbfbfb" stroke-width="inherit" opacity="1" class="highcharts-point"></path><path fill="rgb(205,156,0)" d="M 144.16115243395572 209.87813270817512 L 184.81897675632263 227.98366775532793 L 185.44380034761315 229.03418131566943 L 188.21005174802048 250.49935088189815 L 188.1316418878091 252.75978056102593 L 185.9094764755538 252.7111211683136 L 186.12448976854608 254.50756472461623 L 179.10554774693344 268.5041552464862 L 162.370001001688 290 L 151.47839630279725 288.25814679778335 L 149.22322796036684 277.0390956350523 L 149.9834751695127 269.2306980139013 L 150.75510599806563 267.17147460478583 L 150.65131417415344 263.8500086919292 L 149.5843788659453 259.4251926435418 L 147.1907257642824 258.1867377590392 L 147.13546578552763 255.41449162348448 L 140.89296951273428 254.64675099539699 L 140.43803926638907 247.38881674022488 L 138.00513340429387 247.73836081818078 L 136.04169820995162 248.84751436751543 L 133.46444040103893 245.07532727768483 L 133.23995670200028 243.3412225895122 L 140.9652252033565 225.82817782812134 L 141.08311103224537 224.62419267070123 L 140.02931312231865 222.98896922552123 L 139.90562387963337 221.65743651182984 L 144.16115243395572 209.87813270817512 Z" stroke="#fbfbfb" stroke-width="inherit" opacity="1" class="highcharts-point"></path><path fill="rgb(205,156,0)" d="M 132.4928150042564 184.61399106529618 L 133.67416047043957 185.76447002285815 L 132.55684387750188 187.39736572513328 L 124.13816308648285 194.9410065063593 L 123.52956992173034 196.3263642887998 L 122.57497212370956 203.32273039294176 L 116.3790625958335 202.6555291260904 L 89.92059752292431 196.54007021932645 L 75.82802746495248 200.44898828948544 L 68.81125375179552 201.37189051977447 L 75.65918638734074 172.93493964086605 L 81.64154941912449 175.1612503486966 L 81.82142336035061 174.6881445755955 L 112.50097914740138 169.4230771133811 L 118.7047647368912 167.76770115431822 L 121.36362109491016 171.87103358711843 L 125.48012281290096 176.39600635406984 L 133.3058987885916 181.32967337819733 L 133.0278451159285 181.78275418496304 L 134.45774888239293 182.64009697132548 L 132.4928150042564 184.61399106529618 Z" stroke="#fbfbfb" stroke-width="inherit" opacity="1" class="highcharts-point"></path><path fill="rgb(205,156,0)" d="M 92.84615582110843 155.83221536800787 L 89.60054881735023 156.0718453393493 L 85.96614497517416 163.78630418530665 L 81.82142336035061 174.6881445755955 L 112.50097914740138 169.4230771133811 L 118.7047647368912 167.76770115431822 L 116.62172182163548 162.5987407757532 L 115.22242946867496 155.94691250798698 L 110.48068962984205 154.54695053035022 L 95.805322900385 155.61391772545264 L 92.84615582110843 155.83221536800787 Z" stroke="#fbfbfb" stroke-width="inherit" opacity="1" class="highcharts-point"></path><path fill="rgb(205,156,0)" d="M 92.84615582110843 155.83221536800787 L 89.60054881735023 156.0718453393493 L 78.29760324947269 143.93368648612665 L 75.5304271292793 138.87910437864977 L 73.624643430363 136.53694860284594 L 65.76423829314066 130.3744884215983 L 72.08938538241834 128.0114786203336 L 76.95038218635719 112.5505146049093 L 70.05072901674478 105.47793883589107 L 71.39294383828756 101.44899851528186 L 74.96013011829356 108.52811109656137 L 83.5963113796441 117.5049399938222 L 91.58636860781964 124.4623403195286 L 111.98007492760024 138.92451130868602 L 115.22242946867496 155.94691250798698 L 110.48068962984205 154.54695053035022 L 95.805322900385 155.61391772545264 L 92.84615582110843 155.83221536800787 Z" stroke="#fbfbfb" stroke-width="inherit" opacity="1" class="highcharts-point"></path><path fill="rgb(205,156,0)" d="M 130.74847462469313 122.55534491882955 L 122.38527702064437 128.40164659496855 L 117.31682411642862 134.45674362072214 L 112.6352867241643 138.98461809457916 L 111.98007492760024 138.92451130868602 L 91.58636860781964 124.4623403195286 L 83.5963113796441 117.5049399938222 L 74.96013011829356 108.52811109656137 L 71.39294383828756 101.44899851528186 L 91.55355699896576 88.3090811550981 L 94.07077179576646 83.16665066824292 L 106.36823754677332 85.12118942054701 L 115.10476684801648 88.55352604669844 L 117.86033614058726 87.43579492420174 L 123.7495894563102 86.66438730387173 L 134.08132427428956 89.65789871408101 L 135.52286663792327 100.89869458374469 L 134.5258592774399 113.16819553304344 L 134.68602712122902 120.15792916426354 L 130.74847462469313 122.55534491882955 Z" stroke="#fbfbfb" stroke-width="inherit" opacity="1" class="highcharts-point"></path><path fill="rgb(205,156,0)" d="M 166.72386872190395 155.58608047129204 L 170.0737777398088 149.59686175834864 L 170.19335357381317 148.07732394671496 L 167.01391186486177 145.89906678070906 L 161.81150213966092 139.023424438573 L 158.8717541758321 133.27211380496863 L 155.30026316579423 134.94694076636614 L 154.02411797841995 131.19484241664475 L 146.53835190085022 134.93412223696083 L 154.0165288988103 146.22233606207976 L 161.66935038820822 152.79100332316432 L 166.72386872190395 155.58608047129204 Z" stroke="#fbfbfb" stroke-width="inherit" opacity="1" class="highcharts-point"></path><path fill="rgb(205,156,0)" d="M 167.01391186486177 145.89906678070906 L 161.81150213966092 139.023424438573 L 158.8717541758321 133.27211380496863 L 155.30026316579423 134.94694076636614 L 154.02411797841995 131.19484241664475 L 154.0884338336695 130.49970823496471 L 169.0870379576104 123.80939249208822 L 171.85143991844564 130.85244100183036 L 172.94276869679481 133.44321885170407 L 174.91235806074104 138.0820915864034 L 167.01391186486177 145.89906678070906 Z" stroke="#fbfbfb" stroke-width="inherit" opacity="1" class="highcharts-point"></path><path fill="rgb(205,156,0)" d="M 167.01391186486177 145.89906678070906 L 174.91235806074104 138.0820915864034 L 192.75546401085887 125.18081570400868 L 193.44087269137526 124.84979790859396 L 195.02600183382984 126.75657010107005 L 200.9056571959292 137.0073121034832 L 207.46220743916413 149.976251964479 L 185.9035136273007 156.2026134714172 L 176.33738313318025 157.15925203034618 L 171.82293303962362 156.87976344766255 L 166.72386872190395 155.58608047129204 L 170.0737777398088 149.59686175834864 L 170.19335357381317 148.07732394671496 L 167.01391186486177 145.89906678070906 Z" stroke="#fbfbfb" stroke-width="inherit" opacity="1" class="highcharts-point"></path><path fill="rgb(205,156,0)" d="M 176.60711432779857 94.29683307114898 L 176.7047838690159 94.84088717242155 L 177.80395682206972 95.13628731274478 L 181.65704094947316 100.96757026413594 L 183.40386850639052 106.18742211765012 L 185.75052033355485 110.93368989472299 L 185.43704032713634 111.104029656129 L 192.75546401085887 125.18081570400868 L 193.44087269137526 124.84979790859396 L 195.02600183382984 126.75657010107005 L 200.9056571959292 137.0073121034832 L 207.46220743916413 149.976251964479 L 224.16985315647523 144.40328470142705 L 243.3030707513965 136.4314667738034 L 253.55006822094924 137.28431236311815 L 253.55008198778597 137.28431350881277 L 256.49528260964826 125.80378985572709 L 249.75566973627744 117.30421202714264 L 242.33865179155148 122.70336385788214 L 236.19746016530144 113.98762480830383 L 235.7199221146284 113.30990086805771 L 236.2734147350679 112.91989232787196 L 234.44431900435316 110.32394880196892 L 232.01077540447605 113.78173116559493 L 230.79904173301935 113.89352659866837 L 228.96892562185053 111.40242716402591 L 227.22968714454282 107.57022894896281 L 225.8987283948448 103.06285774478137 L 224.40307386312512 97.99670069657617 L 230.59576281521197 91.0639489361132 L 239.29740785981363 84.00451056539127 L 233.35385117201628 76.67919931361477 L 220.39406284817588 85.73663826644434 L 214.56478877080605 82.87887149440878 L 206.1551638562818 81.20825360236768 L 197.0534659014324 81.14062151065346 L 186.1899854386915 82.25223035044789 L 181.76641297898112 83.09455441206248 L 181.02293827347233 88.20318479650398 L 176.88344610846673 91.68778403383651 L 176.22341939165113 93.09893830953685 L 176.60711432779857 94.29683307114898 Z" stroke="#fbfbfb" stroke-width="inherit" opacity="1" class="highcharts-point"></path><path fill="rgb(205,156,0)" d="M 176.60711432779857 94.29683307114898 L 176.7047838690159 94.84088717242155 L 177.80395682206972 95.13628731274478 L 181.65704094947316 100.96757026413594 L 183.40386850639052 106.18742211765012 L 185.75052033355485 110.93368989472299 L 185.43704032713634 111.104029656129 L 192.75546401085887 125.18081570400868 L 174.91235806074104 138.0820915864034 L 172.94276869679481 133.44321885170407 L 171.85143991844564 130.85244100183036 L 169.0870379576104 123.80939249208822 L 168.6418332124362 115.80316861116326 L 168.9079293017137 108.65958074018498 L 169.66600820240393 103.36549620892157 L 170.69279791728803 97.53845421378114 L 170.0069747072052 96.20618810163975 L 170.29711139227823 93.96493530664603 L 170.29711351084592 93.96492244283506 L 171.09364799975953 93.99033629342277 L 176.37472268028154 93.57134257107485 L 176.60711432779857 94.29683307114898 Z" stroke="#fbfbfb" stroke-width="inherit" opacity="1" class="highcharts-point"></path><path fill="rgb(205,156,0)" d="M 169.66600820240393 103.36549620892157 L 168.9079293017137 108.65958074018498 L 168.6418332124362 115.80316861116326 L 169.0870379576104 123.80939249208822 L 154.0884338336695 130.49970823496471 L 154.02411797841995 131.19484241664475 L 146.53835190085022 134.93412223696083 L 143.74917382720184 128.78004830753915 L 141.5889008666306 120.12275792562535 L 141.26206025368543 112.83666754740167 L 141.9466717619781 107.65441033609859 L 162.7860611302434 107.91106790620917 L 162.77136127439394 106.3758417451514 L 168.3478360952392 103.28236708912675 L 169.66600820240393 103.36549620892157 Z" stroke="#fbfbfb" stroke-width="inherit" opacity="1" class="highcharts-point"></path><path fill="rgb(205,156,0)" d="M 169.66600820240393 103.36549620892157 L 168.3478360952392 103.28236708912675 L 162.77136127439394 106.3758417451514 L 162.7860611302434 107.91106790620917 L 141.9466717619781 107.65441033609859 L 142.23448282270652 101.03867802675659 L 140.81558003296217 88.6027275165247 L 140.68085792664766 77.67859819078416 L 141.97345674879034 68.45435892124361 L 143.26978633695666 65.12479373855771 L 153.94771699220763 68.5963193513751 L 157.39944084690512 70.71504369548121 L 160.19180760946324 74.92443192132474 L 161.97387017879998 78.86724575456543 L 166.47837156297007 91.88803369718332 L 167.8394953097113 93.30508704735557 L 169.60975973008937 93.94301615004808 L 170.29711351084592 93.96492244283506 L 170.29711139227823 93.96493530664603 L 170.0069747072052 96.20618810163975 L 170.69279791728803 97.53845421378114 L 169.66600820240393 103.36549620892157 Z" stroke="#fbfbfb" stroke-width="inherit" opacity="1" class="highcharts-point"></path><path fill="rgb(205,156,0)" d="M 169.60975973008937 93.94301615004808 L 167.8394953097113 93.30508704735557 L 166.47837156297007 91.88803369718332 L 161.97387017879998 78.86724575456543 L 160.19180760946324 74.92443192132474 L 157.39944084690512 70.71504369548121 L 153.94771699220763 68.5963193513751 L 143.26978633695666 65.12479373855771 L 143.5646125132717 60.028663014630546 L 147.2701560049627 49.334597593509606 L 151.3797382680201 40.778101667934344 L 158.0026770142922 42.95154391368874 L 170.71779723831673 47.663373850573414 L 185.9785753641754 57.23600927006829 L 185.42750614730136 64.75375789736643 L 184.178114059845 69.98932998719157 L 185.71439248824373 70.56316644285005 L 185.8836480954219 73.28225713433189 L 187.25564527133577 75.12684989312721 L 186.1899854386915 82.25223035044789 L 181.76641297898112 83.09455441206248 L 181.02293827347233 88.20318479650398 L 176.88344610846673 91.68778403383651 L 176.22341939165113 93.09893830953685 L 176.37472268028154 93.57134257107485 L 171.09364799975953 93.99033629342277 L 170.29711139227823 93.96493530664603 L 169.60975973008937 93.94301615004808 Z" stroke="#fbfbfb" stroke-width="inherit" opacity="1" class="highcharts-point"></path><path fill="rgb(205,156,0)" d="M 235.7199221146284 113.30990086805771 L 236.2734147350679 112.91989232787196 L 234.44431900435316 110.32394880196892 L 232.01077540447605 113.78173116559493 L 230.79904173301935 113.89352659866837 L 228.96892562185053 111.40242716402591 L 227.22968714454282 107.57022894896281 L 225.8987283948448 103.06285774478137 L 224.40307386312512 97.99670069657617 L 230.59576281521197 91.0639489361132 L 239.29740785981363 84.00451056539127 L 233.35385117201628 76.67919931361477 L 241.67502185625975 69.7487752960641 L 256.2247223559119 53.783105600467515 L 261.80148415876124 44.85621157149034 L 269.44260315986855 37.7710723681766 L 278.0920174801835 34.286983321063694 L 274.7607622923672 28.741917085953514 L 274.57253398620196 24.188405553285826 L 280.8458329938502 18.68176301949732 L 283.8673070543624 14.364979751272827 L 296.798684160034 18.722610124391895 L 306.4138566895464 19.834761041300236 L 322.32047186659076 25.793846644072488 L 329.3582909265224 29.449646588808484 L 335.86528894414573 31.982741056361938 L 354.6718891343522 31.79811596865806 L 355.44600714024443 28.028639264389632 L 358.5125373750151 23.521076738879543 L 361.5748585404218 19.816521740755757 L 365.5292473143834 16.247039604724336 L 367.77673091655095 13.285098366104448 L 369.9170107976811 12.778638907035534 L 373.40043022011037 8.655696037458906 L 377.738864686012 7.67141154571283 L 385.33055900905526 8.215720742102636 L 388.51688828604574 7.372440073815125 L 394.0807040119349 4.717633350695969 L 398.114267931467 0 L 399.2357617068593 0.5023460503731081 L 397.43718172899537 5.059333253947229 L 394.8996868707494 7.944650298131852 L 390.5455002816499 11.876526928418778 L 377.51568834943157 15.226882362776959 L 374.9538319079388 17.413525780601393 L 370.9768991033935 23.66829850570099 L 365.24672947724673 30.827415291654162 L 359.97738917189474 33.98080541223589 L 346.4964734200229 48.5294217576528 L 347.30270152321316 55.72721734004489 L 354.1904927700932 59.27163638126645 L 368.39960940760136 64.72403931675427 L 369.62827501716663 70.71042009656578 L 368.3187761438245 70.24627453929884 L 363.1886858830345 73.75217421852327 L 362.7930652503661 76.53647359814643 L 360.94671871267417 80.92503425366782 L 360.2917938981142 84.88127246720148 L 359.98153446748483 88.5901640822366 L 360.7289631472328 93.57236295152153 L 360.0630692428174 94.32189616595142 L 359.7141355424152 94.29013982436057 L 359.16963049803064 94.24058459882698 L 356.3076865435256 96.27203452756302 L 354.1044300564985 95.61653574899485 L 349.01981049951837 95.34744229215107 L 346.49727059226143 96.61443594236997 L 342.86446109453277 97.06158578776947 L 334.7779779138243 93.9459497438406 L 334.8147753838117 92.99680460385326 L 333.6094828639334 91.94558953194866 L 330.9969581557219 91.82212349747888 L 330.2415896405864 90.06270061938656 L 325.4025629032084 91.62126798324441 L 323.0976191269509 95.34240416367663 L 322.1427981206997 96.04082269493443 L 324.2596730252486 99.88421320805371 L 321.94650243159947 101.28586519080595 L 322.9634390977503 102.8334315779363 L 319.9827483683589 105.65111653041413 L 319.0076473006625 104.9032095473334 L 315.24088098196364 112.50883844089671 L 314.98613662521376 113.93985824848326 L 312.2679706535031 118.07986060371593 L 310.09325293219223 124.93560552707892 L 303.4415840988678 134.7322144553854 L 300.25598822032725 137.86580281785464 L 300.92950309121693 139.04536261825425 L 290.46840328162125 145.61843027002385 L 280.3132262857584 140.84713128502798 L 273.6163418437337 140.9357130628637 L 266.5703916270785 133.99757241814845 L 261.2569198672542 131.56093579002962 L 257.60861334145244 138.31531229304588 L 253.55008198778597 137.28431350881277 L 256.49528260964826 125.80378985572709 L 249.75566973627744 117.30421202714264 L 242.33865179155148 122.70336385788214 L 236.19746016530144 113.98762480830383 L 235.7199221146284 113.30990086805771 Z" stroke="#fbfbfb" stroke-width="inherit" opacity="1" class="highcharts-point"></path><path fill="rgb(205,156,0)" d="M 360.0630692428174 94.32189616595142 L 360.7289631472328 93.57236295152153 L 359.98153446748483 88.5901640822366 L 360.2917938981142 84.88127246720148 L 360.94671871267417 80.92503425366782 L 362.7930652503661 76.53647359814643 L 363.1886858830345 73.75217421852327 L 368.3187761438245 70.24627453929884 L 369.62827501716663 70.71042009656578 L 370.97048983869456 83.2529684769475 L 375.66564293259535 86.07129116720728 L 375.257841508311 95.82985903685679 L 376.78315084686903 96.21502076991159 L 379.6660444874957 98.7173443895045 L 387.85437439189104 101.03979406787128 L 389.64192150614065 104.67534583804893 L 387.82389052593453 108.62147590775427 L 383.54868776105457 115.37945562923187 L 380.7468187055558 125.22293828446716 L 375.5201111708968 115.52058700024534 L 374.7204517668472 115.27540871020244 L 375.4014600566785 107.77934316746834 L 374.8794079088609 105.23311130162601 L 368.94286633665024 108.16255980028299 L 364.3440754215086 111.48303721958723 L 362.7651961093261 113.39727094410324 L 360.9559977973844 117.49929601446011 L 354.89216376402703 125.96810299509144 L 360.0214249656991 127.68798613073996 L 360.12170923181793 131.9006268192744 L 356.04190932314646 132.84884723948312 L 353.25445314150784 132.94552828713324 L 348.4407764809363 132.00524770230464 L 348.2097878565306 125.92604418841412 L 344.22137577192507 124.60975340769353 L 331.87104155884947 127.32042596045511 L 328.6926840041259 126.12820706509937 L 315.5634168648918 129.43242217097873 L 310.78835522698535 134.2257868832108 L 309.35542220605294 137.2462724501558 L 305.46809155978997 136.94341077779265 L 300.92950309121693 139.04536261825425 L 300.25598822032725 137.86580281785464 L 303.4415840988678 134.7322144553854 L 310.09325293219223 124.93560552707892 L 312.2679706535031 118.07986060371593 L 314.98613662521376 113.93985824848326 L 315.24088098196364 112.50883844089671 L 319.0076473006625 104.9032095473334 L 319.9827483683589 105.65111653041413 L 322.9634390977503 102.8334315779363 L 321.94650243159947 101.28586519080595 L 324.2596730252486 99.88421320805371 L 322.1427981206997 96.04082269493443 L 323.0976191269509 95.34240416367663 L 325.4025629032084 91.62126798324441 L 330.2415896405864 90.06270061938656 L 330.9969581557219 91.82212349747888 L 333.6094828639334 91.94558953194866 L 334.8147753838117 92.99680460385326 L 334.7779779138243 93.9459497438406 L 342.86446109453277 97.06158578776947 L 346.49727059226143 96.61443594236997 L 349.01981049951837 95.34744229215107 L 354.1044300564985 95.61653574899485 L 356.3076865435256 96.27203452756302 L 359.16963049803064 94.24058459882698 L 359.7141355424152 94.29013982436057 L 360.0630692428174 94.32189616595142 Z" stroke="#fbfbfb" stroke-width="inherit" opacity="1" class="highcharts-point"></path></g></g><g class="highcharts-markers highcharts-series-0 highcharts-map-series" data-z-index="0.1" opacity="1" transform="translate(10,73) scale(1 1)" clip-path="none"></g><g class="highcharts-series highcharts-series-1 highcharts-map-series highcharts-color-0" data-z-index="0.1" opacity="1" transform="translate(10,73) scale(1 1)" stroke-width="1" clip-path="url(#highcharts-lpquni4-75-)"><g transform="translate(0,0) scale(1 1)"><path fill="rgb(51,147,88)" d="M 163.88714729664306 160.73558984752242 L 163.06267989291564 160.2499206401332 L 162.64716184147417 160.6973574675294 L 161.66950982264999 160.02923148089195 L 159.11578453786603 158.09216674380292 L 157.83756670270412 156.17445734837304 L 155.43268941609077 155.12021302201532 L 150.97180929617343 151.3941024868824 L 146.36357986186488 145.36107118835758 L 142.59828034008083 139.40182615114355 L 140.23233694501621 141.42205189492174 L 137.99575865891555 145.78022434515472 L 136.22750311255137 156.83984106255403 L 136.48199237419146 157.68442909329232 L 143.62561213206402 161.71416658612523 L 145.63429482200075 165.88442959908397 L 154.76214002588046 167.7698694627739 L 161.62690893885133 164.67365253428537 L 163.88714729664306 160.73558984752242 Z" stroke="#fbfbfb" stroke-width="inherit" opacity="1" class="highcharts-point highcharts-color-0"></path><path fill="rgb(149,196,167)" d="M 130.74847462469313 122.55534491882955 L 133.47279476597805 126.21101731601064 L 131.0036972847832 127.85057737810196 L 132.88291920511762 130.13779204404196 L 131.35002078694987 131.44623865005795 L 133.02605945013013 133.3978119216752 L 128.8762997068544 138.35446939281752 L 126.71707901361673 145.17625477932506 L 128.26674993543642 147.7305221412081 L 129.20671165136665 157.6263949551868 L 130.18535216375062 158.89488728919252 L 138.0537290232399 161.77095713555372 L 141.53249295987428 170.34154706609078 L 139.92858243975388 173.54445752539718 L 142.35173091379858 174.65571560941373 L 143.17568812732122 176.23102359002922 L 143.3300206704047 176.61685494775287 L 143.83258992900076 177.90042978028762 L 146.31667320853612 184.35433345836572 L 146.3166742480492 184.3543361276119 L 146.43583555250194 184.22289837087516 L 147.48966534929323 183.4171166841307 L 149.4024322769167 183.5145630171251 L 153.52910591252441 185.84361328152693 L 162.79202397849645 176.61624909685779 L 163.16395265259433 176.48340831700224 L 163.5713076604328 176.37716120263028 L 164.3334043091508 176.19604367272711 L 181.3783176521338 171.40280650805 L 181.48430967139598 171.39266647732737 L 182.7653654396898 171.42531865173203 L 183.65029038511045 167.91734632471255 L 184.6818950202312 168.15876196184493 L 184.74633842302825 167.79732407426235 L 184.1237150270877 162.17537854959969 L 173.03836559022454 162.8185371021027 L 167.8084055928672 162.08504299287475 L 163.88714729664306 160.73558984752242 L 161.62690893885133 164.67365253428537 L 154.76214002588046 167.7698694627739 L 145.63429482200075 165.88442959908397 L 143.62561213206402 161.71416658612523 L 136.48199237419146 157.68442909329232 L 136.22750311255137 156.83984106255403 L 137.99575865891555 145.78022434515472 L 140.23233694501621 141.42205189492174 L 142.59828034008083 139.40182615114355 L 136.67022068037153 129.0670621960364 L 136.92066030710436 128.65495604172762 L 136.38100659651687 126.98873854037157 L 135.9615026839419 127.123588194241 L 134.68602712122902 120.15792916426354 L 130.74847462469313 122.55534491882955 Z" stroke="#fbfbfb" stroke-width="inherit" opacity="1" class="highcharts-point highcharts-color-0"></path><path fill="rgb(179,211,191)" d="M 130.74847462469313 122.55534491882955 L 133.47279476597805 126.21101731601064 L 131.0036972847832 127.85057737810196 L 132.88291920511762 130.13779204404196 L 131.35002078694987 131.44623865005795 L 133.02605945013013 133.3978119216752 L 128.8762997068544 138.35446939281752 L 126.71707901361673 145.17625477932506 L 128.26674993543642 147.7305221412081 L 129.20671165136665 157.6263949551868 L 130.18535216375062 158.89488728919252 L 138.0537290232399 161.77095713555372 L 141.53249295987428 170.34154706609078 L 139.92858243975388 173.54445752539718 L 142.35173091379858 174.65571560941373 L 143.17568812732122 176.23102359002922 L 143.3300206704047 176.61685494775287 L 143.83258992900076 177.90042978028762 L 146.31667320853612 184.35433345836572 L 146.3166742480492 184.3543361276119 L 145.8336516524484 184.88710227016028 L 144.1393736887162 185.5389978302597 L 144.1135771954638 185.52975063243628 L 139.4454004097113 184.72186441100988 L 134.45774888239293 182.64009697132548 L 133.0278451159285 181.78275418496304 L 133.3058987885916 181.32967337819733 L 125.48012281290096 176.39600635406984 L 121.36362109491016 171.87103358711843 L 118.7047647368912 167.76770115431822 L 116.62172182163548 162.5987407757532 L 115.22242946867496 155.94691250798698 L 111.98007492760024 138.92451130868602 L 112.6352867241643 138.98461809457916 L 117.31682411642862 134.45674362072214 L 122.38527702064437 128.40164659496855 L 130.74847462469313 122.55534491882955 Z" stroke="#fbfbfb" stroke-width="inherit" opacity="1" class="highcharts-point highcharts-color-0"></path><path fill="rgb(239,240,240)" d="M 217.34478342039733 154.0570722536046 L 216.8387703777817 163.59740625447262 L 217.46247792795012 166.06918223434278 L 219.20678642063396 168.47871500675097 L 226.55158056161713 174.514966881065 L 228.40895996293835 177.44690255707604 L 229.5350135634724 180.81246803751813 L 229.805510043435 183.49584541324046 L 228.71842222134393 208.03038314736432 L 214.51287691540279 200.8416753283539 L 214.58506883225127 198.44307975889944 L 220.09187080048156 198.44633222158294 L 220.1869893905711 199.30600275085024 L 222.0136936045998 199.2324715846567 L 220.77322984609074 189.90826691789565 L 222.11321258538928 186.36652637534937 L 222.1779748570847 184.11999937985473 L 223.77209610224546 181.68422369774078 L 223.2043181555081 180.22973513980665 L 218.79598762877595 179.08901357028773 L 214.1733772075015 176.6035262281205 L 210.12371040899376 171.5427261772807 L 208.87811286133478 168.5391406615351 L 207.78216048407018 167.39848286579735 L 198.16784890057014 167.43362221755606 L 197.21832111791065 166.3761892022886 L 191.0729204223116 167.99910430828288 L 184.74633842302825 167.79732407426235 L 184.1237150270877 162.17537854959969 L 190.208913276133 161.59156149766036 L 197.65163205345817 159.58268748638756 L 201.98203102330427 157.6885425019807 L 204.94116621568656 157.0316725871806 L 211.4142046964545 153.9701485940049 L 216.1973018304016 153.17281693286017 L 217.34478342039733 154.0570722536046 Z" stroke="#fbfbfb" stroke-width="inherit" opacity="1" class="highcharts-point highcharts-color-0"></path><path fill="rgb(178,210,190)" d="M 144.1654252770933 185.54837257564546 L 155.3200968107936 191.8547701741516 L 157.42026298546426 188.83801537322285 L 160.16253544529698 191.97731148883534 L 158.74427039334944 194.72168848335 L 162.0527902292458 196.89232468285934 L 168.4061253284471 199.02010490346768 L 172.17850373962116 200.93778241200323 L 172.206278189362 200.96854063115245 L 172.21453592426423 200.97945857601584 L 172.26635211899946 200.99396711054408 L 172.40601669311295 201.0169575575589 L 172.19916644373853 204.59163725650652 L 179.51369992701046 209.72042015484578 L 184.8300415068313 226.79546660799255 L 184.81897675632263 227.98366775532793 L 185.44380034761315 229.03418131566943 L 188.21005174802048 250.49935088189815 L 188.36970940158994 249.3586611992735 L 189.30734337462272 249.227797406545 L 189.2476830051829 248.53942324534918 L 196.83765543621638 234.18515748879977 L 199.32716052640396 231.9985140709679 L 199.96292132064082 233.4765351530456 L 202.10798423512813 232.6486558521781 L 201.2609090270432 230.82931750952127 L 205.28197328604605 227.09211033699282 L 206.04186973942893 221.87420358371136 L 207.2772315956824 219.66412330242622 L 208.9648451996058 218.48453161513973 L 215.4823977775034 216.09658626662753 L 218.3621665030088 213.6222274487427 L 221.47451819735247 215.2188677581444 L 228.30210699766388 217.24588540930108 L 228.71842222134393 208.03038314736432 L 214.51287691540279 200.8416753283539 L 214.58506883225127 198.44307975889944 L 220.09187080048156 198.44633222158294 L 220.1869893905711 199.30600275085024 L 222.0136936045998 199.2324715846567 L 220.77322984609074 189.90826691789565 L 222.11321258538928 186.36652637534937 L 222.1779748570847 184.11999937985473 L 223.77209610224546 181.68422369774078 L 223.2043181555081 180.22973513980665 L 218.79598762877595 179.08901357028773 L 214.1733772075015 176.6035262281205 L 210.12371040899376 171.5427261772807 L 208.87811286133478 168.5391406615351 L 207.78216048407018 167.39848286579735 L 198.16784890057014 167.43362221755606 L 197.21832111791065 166.3761892022886 L 191.0729204223116 167.99910430828288 L 184.74633842302825 167.79732407426235 L 184.6818950202312 168.15876196184493 L 183.65029038511045 167.91734632471255 L 182.7653654396898 171.42531865173203 L 181.48430967139598 171.39266647732737 L 181.3783176521338 171.40280650805 L 164.3334043091508 176.19604367272711 L 163.5713076604328 176.37716120263028 L 163.16395265259433 176.48340831700224 L 162.79202397849645 176.61624909685779 L 153.52910591252441 185.84361328152693 L 149.4024322769167 183.5145630171251 L 147.48966534929323 183.4171166841307 L 146.43583555250194 184.22289837087516 L 146.31667320853612 184.35433345836572 L 145.8336516524484 184.88710227016028 L 144.1393736887162 185.5389978302597 L 144.1654252770933 185.54837257564546 Z" stroke="#fbfbfb" stroke-width="inherit" opacity="1" class="highcharts-point highcharts-color-0"></path><path fill="rgb(211,227,217)" d="M 144.1135771954638 185.52975063243628 L 144.1654252770933 185.54837257564546 L 155.3200968107936 191.8547701741516 L 157.42026298546426 188.83801537322285 L 160.16253544529698 191.97731148883534 L 158.74427039334944 194.72168848335 L 162.0527902292458 196.89232468285934 L 168.4061253284471 199.02010490346768 L 172.17850373962116 200.93778241200323 L 172.206278189362 200.96854063115245 L 172.21453592426423 200.97945857601584 L 172.26635211899946 200.99396711054408 L 172.40601669311295 201.0169575575589 L 172.19916644373853 204.59163725650652 L 179.51369992701046 209.72042015484578 L 184.8300415068313 226.79546660799255 L 184.81897675632263 227.98366775532793 L 144.16115243395572 209.87813270817512 L 130.24871141233467 203.08612967606092 L 129.0298669646085 203.57039586033875 L 126.87428137672643 203.05570958389305 L 122.57497212370956 203.32273039294176 L 123.52956992173034 196.3263642887998 L 124.13816308648285 194.9410065063593 L 132.55684387750188 187.39736572513328 L 133.67416047043957 185.76447002285815 L 132.4928150042564 184.61399106529618 L 134.45774888239293 182.64009697132548 L 139.4454004097113 184.72186441100988 L 144.1135771954638 185.52975063243628 Z" stroke="#fbfbfb" stroke-width="inherit" opacity="1" class="highcharts-point highcharts-color-0"></path><path fill="rgb(141,192,160)" d="M 144.16115243395572 209.87813270817512 L 184.81897675632263 227.98366775532793 L 185.44380034761315 229.03418131566943 L 188.21005174802048 250.49935088189815 L 188.1316418878091 252.75978056102593 L 185.9094764755538 252.7111211683136 L 186.12448976854608 254.50756472461623 L 179.10554774693344 268.5041552464862 L 162.370001001688 290 L 151.47839630279725 288.25814679778335 L 149.22322796036684 277.0390956350523 L 149.9834751695127 269.2306980139013 L 150.75510599806563 267.17147460478583 L 150.65131417415344 263.8500086919292 L 149.5843788659453 259.4251926435418 L 147.1907257642824 258.1867377590392 L 147.13546578552763 255.41449162348448 L 140.89296951273428 254.64675099539699 L 140.43803926638907 247.38881674022488 L 138.00513340429387 247.73836081818078 L 136.04169820995162 248.84751436751543 L 133.46444040103893 245.07532727768483 L 133.23995670200028 243.3412225895122 L 140.9652252033565 225.82817782812134 L 141.08311103224537 224.62419267070123 L 140.02931312231865 222.98896922552123 L 139.90562387963337 221.65743651182984 L 144.16115243395572 209.87813270817512 Z" stroke="#fbfbfb" stroke-width="inherit" opacity="1" class="highcharts-point highcharts-color-0"></path><path fill="rgb(167,205,182)" d="M 132.4928150042564 184.61399106529618 L 133.67416047043957 185.76447002285815 L 132.55684387750188 187.39736572513328 L 124.13816308648285 194.9410065063593 L 123.52956992173034 196.3263642887998 L 122.57497212370956 203.32273039294176 L 116.3790625958335 202.6555291260904 L 89.92059752292431 196.54007021932645 L 75.82802746495248 200.44898828948544 L 68.81125375179552 201.37189051977447 L 75.65918638734074 172.93493964086605 L 81.64154941912449 175.1612503486966 L 81.82142336035061 174.6881445755955 L 112.50097914740138 169.4230771133811 L 118.7047647368912 167.76770115431822 L 121.36362109491016 171.87103358711843 L 125.48012281290096 176.39600635406984 L 133.3058987885916 181.32967337819733 L 133.0278451159285 181.78275418496304 L 134.45774888239293 182.64009697132548 L 132.4928150042564 184.61399106529618 Z" stroke="#fbfbfb" stroke-width="inherit" opacity="1" class="highcharts-point highcharts-color-0"></path><path fill="rgb(198,220,206)" d="M 92.84615582110843 155.83221536800787 L 89.60054881735023 156.0718453393493 L 85.96614497517416 163.78630418530665 L 81.82142336035061 174.6881445755955 L 112.50097914740138 169.4230771133811 L 118.7047647368912 167.76770115431822 L 116.62172182163548 162.5987407757532 L 115.22242946867496 155.94691250798698 L 110.48068962984205 154.54695053035022 L 95.805322900385 155.61391772545264 L 92.84615582110843 155.83221536800787 Z" stroke="#fbfbfb" stroke-width="inherit" opacity="1" class="highcharts-point highcharts-color-0"></path><path fill="rgb(242,242,242)" d="M 92.84615582110843 155.83221536800787 L 89.60054881735023 156.0718453393493 L 78.29760324947269 143.93368648612665 L 75.5304271292793 138.87910437864977 L 73.624643430363 136.53694860284594 L 65.76423829314066 130.3744884215983 L 72.08938538241834 128.0114786203336 L 76.95038218635719 112.5505146049093 L 70.05072901674478 105.47793883589107 L 71.39294383828756 101.44899851528186 L 74.96013011829356 108.52811109656137 L 83.5963113796441 117.5049399938222 L 91.58636860781964 124.4623403195286 L 111.98007492760024 138.92451130868602 L 115.22242946867496 155.94691250798698 L 110.48068962984205 154.54695053035022 L 95.805322900385 155.61391772545264 L 92.84615582110843 155.83221536800787 Z" stroke="#fbfbfb" stroke-width="inherit" opacity="1" class="highcharts-point highcharts-color-0"></path><path fill="rgb(240,237,228)" d="M 130.74847462469313 122.55534491882955 L 122.38527702064437 128.40164659496855 L 117.31682411642862 134.45674362072214 L 112.6352867241643 138.98461809457916 L 111.98007492760024 138.92451130868602 L 91.58636860781964 124.4623403195286 L 83.5963113796441 117.5049399938222 L 74.96013011829356 108.52811109656137 L 71.39294383828756 101.44899851528186 L 91.55355699896576 88.3090811550981 L 94.07077179576646 83.16665066824292 L 106.36823754677332 85.12118942054701 L 115.10476684801648 88.55352604669844 L 117.86033614058726 87.43579492420174 L 123.7495894563102 86.66438730387173 L 134.08132427428956 89.65789871408101 L 135.52286663792327 100.89869458374469 L 134.5258592774399 113.16819553304344 L 134.68602712122902 120.15792916426354 L 130.74847462469313 122.55534491882955 Z" stroke="#fbfbfb" stroke-width="inherit" opacity="1" class="highcharts-point highcharts-color-0"></path><path fill="rgb(211,227,217)" d="M 166.72386872190395 155.58608047129204 L 170.0737777398088 149.59686175834864 L 170.19335357381317 148.07732394671496 L 167.01391186486177 145.89906678070906 L 161.81150213966092 139.023424438573 L 158.8717541758321 133.27211380496863 L 155.30026316579423 134.94694076636614 L 154.02411797841995 131.19484241664475 L 146.53835190085022 134.93412223696083 L 154.0165288988103 146.22233606207976 L 161.66935038820822 152.79100332316432 L 166.72386872190395 155.58608047129204 Z" stroke="#fbfbfb" stroke-width="inherit" opacity="1" class="highcharts-point highcharts-color-0"></path><path fill="rgb(239,241,240)" d="M 167.01391186486177 145.89906678070906 L 161.81150213966092 139.023424438573 L 158.8717541758321 133.27211380496863 L 155.30026316579423 134.94694076636614 L 154.02411797841995 131.19484241664475 L 154.0884338336695 130.49970823496471 L 169.0870379576104 123.80939249208822 L 171.85143991844564 130.85244100183036 L 172.94276869679481 133.44321885170407 L 174.91235806074104 138.0820915864034 L 167.01391186486177 145.89906678070906 Z" stroke="#fbfbfb" stroke-width="inherit" opacity="1" class="highcharts-point highcharts-color-0"></path><path fill="rgb(241,240,236)" d="M 167.01391186486177 145.89906678070906 L 174.91235806074104 138.0820915864034 L 192.75546401085887 125.18081570400868 L 193.44087269137526 124.84979790859396 L 195.02600183382984 126.75657010107005 L 200.9056571959292 137.0073121034832 L 207.46220743916413 149.976251964479 L 185.9035136273007 156.2026134714172 L 176.33738313318025 157.15925203034618 L 171.82293303962362 156.87976344766255 L 166.72386872190395 155.58608047129204 L 170.0737777398088 149.59686175834864 L 170.19335357381317 148.07732394671496 L 167.01391186486177 145.89906678070906 Z" stroke="#fbfbfb" stroke-width="inherit" opacity="1" class="highcharts-point highcharts-color-0"></path><path fill="rgb(227,207,143)" d="M 176.60711432779857 94.29683307114898 L 176.7047838690159 94.84088717242155 L 177.80395682206972 95.13628731274478 L 181.65704094947316 100.96757026413594 L 183.40386850639052 106.18742211765012 L 185.75052033355485 110.93368989472299 L 185.43704032713634 111.104029656129 L 192.75546401085887 125.18081570400868 L 193.44087269137526 124.84979790859396 L 195.02600183382984 126.75657010107005 L 200.9056571959292 137.0073121034832 L 207.46220743916413 149.976251964479 L 224.16985315647523 144.40328470142705 L 243.3030707513965 136.4314667738034 L 253.55006822094924 137.28431236311815 L 253.55008198778597 137.28431350881277 L 256.49528260964826 125.80378985572709 L 249.75566973627744 117.30421202714264 L 242.33865179155148 122.70336385788214 L 236.19746016530144 113.98762480830383 L 235.7199221146284 113.30990086805771 L 236.2734147350679 112.91989232787196 L 234.44431900435316 110.32394880196892 L 232.01077540447605 113.78173116559493 L 230.79904173301935 113.89352659866837 L 228.96892562185053 111.40242716402591 L 227.22968714454282 107.57022894896281 L 225.8987283948448 103.06285774478137 L 224.40307386312512 97.99670069657617 L 230.59576281521197 91.0639489361132 L 239.29740785981363 84.00451056539127 L 233.35385117201628 76.67919931361477 L 220.39406284817588 85.73663826644434 L 214.56478877080605 82.87887149440878 L 206.1551638562818 81.20825360236768 L 197.0534659014324 81.14062151065346 L 186.1899854386915 82.25223035044789 L 181.76641297898112 83.09455441206248 L 181.02293827347233 88.20318479650398 L 176.88344610846673 91.68778403383651 L 176.22341939165113 93.09893830953685 L 176.60711432779857 94.29683307114898 Z" stroke="#fbfbfb" stroke-width="inherit" opacity="1" class="highcharts-point highcharts-color-0"></path><path fill="rgb(225,202,131)" d="M 176.60711432779857 94.29683307114898 L 176.7047838690159 94.84088717242155 L 177.80395682206972 95.13628731274478 L 181.65704094947316 100.96757026413594 L 183.40386850639052 106.18742211765012 L 185.75052033355485 110.93368989472299 L 185.43704032713634 111.104029656129 L 192.75546401085887 125.18081570400868 L 174.91235806074104 138.0820915864034 L 172.94276869679481 133.44321885170407 L 171.85143991844564 130.85244100183036 L 169.0870379576104 123.80939249208822 L 168.6418332124362 115.80316861116326 L 168.9079293017137 108.65958074018498 L 169.66600820240393 103.36549620892157 L 170.69279791728803 97.53845421378114 L 170.0069747072052 96.20618810163975 L 170.29711139227823 93.96493530664603 L 170.29711351084592 93.96492244283506 L 171.09364799975953 93.99033629342277 L 176.37472268028154 93.57134257107485 L 176.60711432779857 94.29683307114898 Z" stroke="#fbfbfb" stroke-width="inherit" opacity="1" class="highcharts-point highcharts-color-0"></path><path fill="rgb(236,228,204)" d="M 169.66600820240393 103.36549620892157 L 168.9079293017137 108.65958074018498 L 168.6418332124362 115.80316861116326 L 169.0870379576104 123.80939249208822 L 154.0884338336695 130.49970823496471 L 154.02411797841995 131.19484241664475 L 146.53835190085022 134.93412223696083 L 143.74917382720184 128.78004830753915 L 141.5889008666306 120.12275792562535 L 141.26206025368543 112.83666754740167 L 141.9466717619781 107.65441033609859 L 162.7860611302434 107.91106790620917 L 162.77136127439394 106.3758417451514 L 168.3478360952392 103.28236708912675 L 169.66600820240393 103.36549620892157 Z" stroke="#fbfbfb" stroke-width="inherit" opacity="1" class="highcharts-point highcharts-color-0"></path><path fill="rgb(215,178,63)" d="M 169.66600820240393 103.36549620892157 L 168.3478360952392 103.28236708912675 L 162.77136127439394 106.3758417451514 L 162.7860611302434 107.91106790620917 L 141.9466717619781 107.65441033609859 L 142.23448282270652 101.03867802675659 L 140.81558003296217 88.6027275165247 L 140.68085792664766 77.67859819078416 L 141.97345674879034 68.45435892124361 L 143.26978633695666 65.12479373855771 L 153.94771699220763 68.5963193513751 L 157.39944084690512 70.71504369548121 L 160.19180760946324 74.92443192132474 L 161.97387017879998 78.86724575456543 L 166.47837156297007 91.88803369718332 L 167.8394953097113 93.30508704735557 L 169.60975973008937 93.94301615004808 L 170.29711351084592 93.96492244283506 L 170.29711139227823 93.96493530664603 L 170.0069747072052 96.20618810163975 L 170.69279791728803 97.53845421378114 L 169.66600820240393 103.36549620892157 Z" stroke="#fbfbfb" stroke-width="inherit" opacity="1" class="highcharts-point highcharts-color-0"></path><path fill="rgb(218,187,87)" d="M 169.60975973008937 93.94301615004808 L 167.8394953097113 93.30508704735557 L 166.47837156297007 91.88803369718332 L 161.97387017879998 78.86724575456543 L 160.19180760946324 74.92443192132474 L 157.39944084690512 70.71504369548121 L 153.94771699220763 68.5963193513751 L 143.26978633695666 65.12479373855771 L 143.5646125132717 60.028663014630546 L 147.2701560049627 49.334597593509606 L 151.3797382680201 40.778101667934344 L 158.0026770142922 42.95154391368874 L 170.71779723831673 47.663373850573414 L 185.9785753641754 57.23600927006829 L 185.42750614730136 64.75375789736643 L 184.178114059845 69.98932998719157 L 185.71439248824373 70.56316644285005 L 185.8836480954219 73.28225713433189 L 187.25564527133577 75.12684989312721 L 186.1899854386915 82.25223035044789 L 181.76641297898112 83.09455441206248 L 181.02293827347233 88.20318479650398 L 176.88344610846673 91.68778403383651 L 176.22341939165113 93.09893830953685 L 176.37472268028154 93.57134257107485 L 171.09364799975953 93.99033629342277 L 170.29711139227823 93.96493530664603 L 169.60975973008937 93.94301615004808 Z" stroke="#fbfbfb" stroke-width="inherit" opacity="1" class="highcharts-point highcharts-color-0"></path><path fill="rgb(215,228,220)" d="M 235.7199221146284 113.30990086805771 L 236.2734147350679 112.91989232787196 L 234.44431900435316 110.32394880196892 L 232.01077540447605 113.78173116559493 L 230.79904173301935 113.89352659866837 L 228.96892562185053 111.40242716402591 L 227.22968714454282 107.57022894896281 L 225.8987283948448 103.06285774478137 L 224.40307386312512 97.99670069657617 L 230.59576281521197 91.0639489361132 L 239.29740785981363 84.00451056539127 L 233.35385117201628 76.67919931361477 L 241.67502185625975 69.7487752960641 L 256.2247223559119 53.783105600467515 L 261.80148415876124 44.85621157149034 L 269.44260315986855 37.7710723681766 L 278.0920174801835 34.286983321063694 L 274.7607622923672 28.741917085953514 L 274.57253398620196 24.188405553285826 L 280.8458329938502 18.68176301949732 L 283.8673070543624 14.364979751272827 L 296.798684160034 18.722610124391895 L 306.4138566895464 19.834761041300236 L 322.32047186659076 25.793846644072488 L 329.3582909265224 29.449646588808484 L 335.86528894414573 31.982741056361938 L 354.6718891343522 31.79811596865806 L 355.44600714024443 28.028639264389632 L 358.5125373750151 23.521076738879543 L 361.5748585404218 19.816521740755757 L 365.5292473143834 16.247039604724336 L 367.77673091655095 13.285098366104448 L 369.9170107976811 12.778638907035534 L 373.40043022011037 8.655696037458906 L 377.738864686012 7.67141154571283 L 385.33055900905526 8.215720742102636 L 388.51688828604574 7.372440073815125 L 394.0807040119349 4.717633350695969 L 398.114267931467 0 L 399.2357617068593 0.5023460503731081 L 397.43718172899537 5.059333253947229 L 394.8996868707494 7.944650298131852 L 390.5455002816499 11.876526928418778 L 377.51568834943157 15.226882362776959 L 374.9538319079388 17.413525780601393 L 370.9768991033935 23.66829850570099 L 365.24672947724673 30.827415291654162 L 359.97738917189474 33.98080541223589 L 346.4964734200229 48.5294217576528 L 347.30270152321316 55.72721734004489 L 354.1904927700932 59.27163638126645 L 368.39960940760136 64.72403931675427 L 369.62827501716663 70.71042009656578 L 368.3187761438245 70.24627453929884 L 363.1886858830345 73.75217421852327 L 362.7930652503661 76.53647359814643 L 360.94671871267417 80.92503425366782 L 360.2917938981142 84.88127246720148 L 359.98153446748483 88.5901640822366 L 360.7289631472328 93.57236295152153 L 360.0630692428174 94.32189616595142 L 359.7141355424152 94.29013982436057 L 359.16963049803064 94.24058459882698 L 356.3076865435256 96.27203452756302 L 354.1044300564985 95.61653574899485 L 349.01981049951837 95.34744229215107 L 346.49727059226143 96.61443594236997 L 342.86446109453277 97.06158578776947 L 334.7779779138243 93.9459497438406 L 334.8147753838117 92.99680460385326 L 333.6094828639334 91.94558953194866 L 330.9969581557219 91.82212349747888 L 330.2415896405864 90.06270061938656 L 325.4025629032084 91.62126798324441 L 323.0976191269509 95.34240416367663 L 322.1427981206997 96.04082269493443 L 324.2596730252486 99.88421320805371 L 321.94650243159947 101.28586519080595 L 322.9634390977503 102.8334315779363 L 319.9827483683589 105.65111653041413 L 319.0076473006625 104.9032095473334 L 315.24088098196364 112.50883844089671 L 314.98613662521376 113.93985824848326 L 312.2679706535031 118.07986060371593 L 310.09325293219223 124.93560552707892 L 303.4415840988678 134.7322144553854 L 300.25598822032725 137.86580281785464 L 300.92950309121693 139.04536261825425 L 290.46840328162125 145.61843027002385 L 280.3132262857584 140.84713128502798 L 273.6163418437337 140.9357130628637 L 266.5703916270785 133.99757241814845 L 261.2569198672542 131.56093579002962 L 257.60861334145244 138.31531229304588 L 253.55008198778597 137.28431350881277 L 256.49528260964826 125.80378985572709 L 249.75566973627744 117.30421202714264 L 242.33865179155148 122.70336385788214 L 236.19746016530144 113.98762480830383 L 235.7199221146284 113.30990086805771 Z" stroke="#fbfbfb" stroke-width="inherit" opacity="1" class="highcharts-point highcharts-color-0"></path><path fill="rgb(215,228,220)" d="M 360.0630692428174 94.32189616595142 L 360.7289631472328 93.57236295152153 L 359.98153446748483 88.5901640822366 L 360.2917938981142 84.88127246720148 L 360.94671871267417 80.92503425366782 L 362.7930652503661 76.53647359814643 L 363.1886858830345 73.75217421852327 L 368.3187761438245 70.24627453929884 L 369.62827501716663 70.71042009656578 L 370.97048983869456 83.2529684769475 L 375.66564293259535 86.07129116720728 L 375.257841508311 95.82985903685679 L 376.78315084686903 96.21502076991159 L 379.6660444874957 98.7173443895045 L 387.85437439189104 101.03979406787128 L 389.64192150614065 104.67534583804893 L 387.82389052593453 108.62147590775427 L 383.54868776105457 115.37945562923187 L 380.7468187055558 125.22293828446716 L 375.5201111708968 115.52058700024534 L 374.7204517668472 115.27540871020244 L 375.4014600566785 107.77934316746834 L 374.8794079088609 105.23311130162601 L 368.94286633665024 108.16255980028299 L 364.3440754215086 111.48303721958723 L 362.7651961093261 113.39727094410324 L 360.9559977973844 117.49929601446011 L 354.89216376402703 125.96810299509144 L 360.0214249656991 127.68798613073996 L 360.12170923181793 131.9006268192744 L 356.04190932314646 132.84884723948312 L 353.25445314150784 132.94552828713324 L 348.4407764809363 132.00524770230464 L 348.2097878565306 125.92604418841412 L 344.22137577192507 124.60975340769353 L 331.87104155884947 127.32042596045511 L 328.6926840041259 126.12820706509937 L 315.5634168648918 129.43242217097873 L 310.78835522698535 134.2257868832108 L 309.35542220605294 137.2462724501558 L 305.46809155978997 136.94341077779265 L 300.92950309121693 139.04536261825425 L 300.25598822032725 137.86580281785464 L 303.4415840988678 134.7322144553854 L 310.09325293219223 124.93560552707892 L 312.2679706535031 118.07986060371593 L 314.98613662521376 113.93985824848326 L 315.24088098196364 112.50883844089671 L 319.0076473006625 104.9032095473334 L 319.9827483683589 105.65111653041413 L 322.9634390977503 102.8334315779363 L 321.94650243159947 101.28586519080595 L 324.2596730252486 99.88421320805371 L 322.1427981206997 96.04082269493443 L 323.0976191269509 95.34240416367663 L 325.4025629032084 91.62126798324441 L 330.2415896405864 90.06270061938656 L 330.9969581557219 91.82212349747888 L 333.6094828639334 91.94558953194866 L 334.8147753838117 92.99680460385326 L 334.7779779138243 93.9459497438406 L 342.86446109453277 97.06158578776947 L 346.49727059226143 96.61443594236997 L 349.01981049951837 95.34744229215107 L 354.1044300564985 95.61653574899485 L 356.3076865435256 96.27203452756302 L 359.16963049803064 94.24058459882698 L 359.7141355424152 94.29013982436057 L 360.0630692428174 94.32189616595142 Z" stroke="#fbfbfb" stroke-width="inherit" opacity="1" class="highcharts-point highcharts-color-0"></path></g></g><g class="highcharts-markers highcharts-series-1 highcharts-map-series highcharts-color-0" data-z-index="0.1" opacity="1" transform="translate(10,73) scale(1 1)" clip-path="none"></g><g class="highcharts-series highcharts-series-2 highcharts-map-series" data-z-index="0.1" opacity="1" transform="translate(10,73) scale(1 1)" stroke-width="1" clip-path="url(#highcharts-lpquni4-75-)"><g transform="translate(0,0) scale(1 1)"><path fill="#008AC3" d="M 166.72386872190395 155.58608047129204 L 171.82293303962362 156.87976344766255 L 176.33738313318025 157.15925203034618 L 185.9035136273007 156.2026134714172 L 207.46220743916413 149.976251964479 L 224.16985315647523 144.40328470142705 L 243.3030707513965 136.4314667738034 L 253.55006822094924 137.28431236311815 L 252.82050996591775 140.12811382344142 L 247.0853659850777 139.43476530754492 L 240.26118908189153 140.12380909341695 L 228.867302106394 144.8021896836658 L 216.89910037189782 150.3478298827842 L 217.34478342039733 154.0570722536046 L 216.1973018304016 153.17281693286017 L 211.4142046964545 153.9701485940049 L 204.94116621568656 157.0316725871806 L 201.98203102330427 157.6885425019807 L 197.65163205345817 159.58268748638756 L 190.208913276133 161.59156149766036 L 184.1237150270877 162.17537854959969 L 173.03836559022454 162.8185371021027 L 167.8084055928672 162.08504299287475 L 163.88714729664306 160.73558984752242 L 163.06267989291564 160.2499206401332 L 162.64716184147417 160.6973574675294 L 161.66950982264999 160.02923148089195 L 159.11578453786603 158.09216674380292 L 157.83756670270412 156.17445734837304 L 155.43268941609077 155.12021302201532 L 150.97180929617343 151.3941024868824 L 146.36357986186488 145.36107118835758 L 142.59828034008083 139.40182615114355 L 136.67022068037153 129.0670621960364 L 136.92066030710436 128.65495604172762 L 136.38100659651687 126.98873854037157 L 135.9615026839419 127.123588194241 L 134.68602712122902 120.15792916426354 L 134.5258592774399 113.16819553304344 L 135.52286663792327 100.89869458374469 L 134.08132427428956 89.65789871408101 L 137.67545485823166 90.70738974255588 L 137.024866660583 79.85736554700968 L 137.83134985888316 71.7898231784014 L 140.17532318737221 60.321352769384205 L 143.14523614825907 51.589574614603954 L 148.0991513469375 39.70150463233633 L 158.0026770142922 42.95154391368874 L 151.3797382680201 40.778101667934344 L 147.2701560049627 49.334597593509606 L 143.5646125132717 60.028663014630546 L 143.26978633695666 65.12479373855771 L 141.97345674879034 68.45435892124361 L 140.68085792664766 77.67859819078416 L 140.81558003296217 88.6027275165247 L 142.23448282270652 101.03867802675659 L 141.9466717619781 107.65441033609859 L 141.26206025368543 112.83666754740167 L 141.5889008666306 120.12275792562535 L 143.74917382720184 128.78004830753915 L 146.53835190085022 134.93412223696083 L 154.0165288988103 146.22233606207976 L 161.66935038820822 152.79100332316432 L 166.72386872190395 155.58608047129204 Z" stroke="#fbfbfb" stroke-width="inherit" opacity="1" class="highcharts-point"></path></g></g><g class="highcharts-markers highcharts-series-2 highcharts-map-series" data-z-index="0.1" opacity="1" transform="translate(10,73) scale(1 1)" clip-path="none"></g><g class="highcharts-series highcharts-series-3 highcharts-mapline-series" data-z-index="0.1" opacity="1" transform="translate(10,73) scale(1 1)" stroke-width="1" clip-path="url(#highcharts-lpquni4-75-)"><g transform="translate(0,0) scale(1 1)"><path fill="none" d="M 87.0385967151895 238.48896279316975 L 87.0385967151895 244.8663406067342 L 87.0385967151895 241.67765169995198 L 118.92548578301191 241.67765169995198 L 118.92548578301191 238.48896279316975 L 118.92548578301191 244.8663406067342" stroke="black" stroke-width="inherit" opacity="1" class="highcharts-point"></path></g></g><g class="highcharts-markers highcharts-series-3 highcharts-mapline-series" data-z-index="0.1" opacity="1" transform="translate(10,73) scale(1 1)" clip-path="none"></g></g><text x="10" text-anchor="start" class="highcharts-caption" data-z-index="4" style="color:#666666;fill:#666666;" y="375"></text><g class="highcharts-data-labels highcharts-series-3 highcharts-mapline-series" data-z-index="6" opacity="1" transform="translate(10,73) scale(1 1)" clip-path="url(#highcharts-lpquni4-53-)"><g class="highcharts-label highcharts-data-label highcharts-data-label-color-undefined" data-z-index="1" transform="translate(89,225)"><text x="0" data-z-index="1" y="12" style="color:black;font-size:12px;font-weight:normal;fill:black;"><tspan x="0" y="12" class="highcharts-text-outline" fill="#FFFFFF" stroke="#FFFFFF" stroke-width="2px" stroke-linejoin="round" style="">1 km</tspan><tspan x="0" y="12">1 km</tspan></text></g></g><g class="highcharts-legend" data-z-index="7" transform="translate(261,280)"><rect fill="none" class="highcharts-legend-box" rx="0" ry="0" x="0" y="0" width="214" height="83" visibility="visible"></rect><g data-z-index="1" transform="translate(0,36)"><g><g class="highcharts-legend-item highcharts-undefined-series highcharts-color-undefined" data-z-index="1" transform="translate(8,3)"><rect x="0" y="4" width="200" height="12" fill="url(#highcharts-lpquni4-52)" data-z-index="1"></rect><g class="highcharts-grid highcharts-coloraxis-grid" data-z-index="1"><path fill="none" stroke="#fbfbfb" stroke-width="1" data-z-index="1" class="highcharts-grid-line" d="M -0.5 4 L -0.5 16" opacity="1"></path><path fill="none" stroke="#fbfbfb" stroke-width="1" data-z-index="1" class="highcharts-grid-line" d="M 49.5 4 L 49.5 16" opacity="1"></path><path fill="none" stroke="#fbfbfb" stroke-width="1" data-z-index="1" class="highcharts-grid-line" d="M 99.5 4 L 99.5 16" opacity="1"></path><path fill="none" stroke="#fbfbfb" stroke-width="1" data-z-index="1" class="highcharts-grid-line" d="M 149.5 4 L 149.5 16" opacity="1"></path><path fill="none" stroke="#fbfbfb" stroke-width="1" data-z-index="1" class="highcharts-grid-line" d="M 200.5 4 L 200.5 16" opacity="1"></path></g><text x="21" style="color:#333333;cursor:pointer;font-size:12px;font-weight:normal;fill:#333333;" text-anchor="start" data-z-index="2" y="15"></text><g class="highcharts-axis highcharts-coloraxis" data-z-index="2"><path fill="none" class="highcharts-axis-line" data-z-index="7" d="M 0 16 L 200 16"></path></g><g class="highcharts-axis-labels highcharts-coloraxis-labels" data-z-index="7"><text x="8" style="color:black;cursor:default;font-size:11px;fill:black;" text-anchor="middle" transform="translate(0,0)" y="35" opacity="1">-10</text><text x="50" style="color:black;cursor:default;font-size:11px;fill:black;" text-anchor="middle" transform="translate(0,0)" y="35" opacity="1">0</text><text x="100" style="color:black;cursor:default;font-size:11px;fill:black;" text-anchor="middle" transform="translate(0,0)" y="35" opacity="1">10</text><text x="150" style="color:black;cursor:default;font-size:11px;fill:black;" text-anchor="middle" transform="translate(0,0)" y="35" opacity="1">20</text><text x="194" style="color:black;cursor:default;font-size:11px;fill:black;" text-anchor="middle" transform="translate(0,0)" y="35" opacity="1">30</text></g></g></g></g><g class="highcharts-label highcharts-legend-title" data-z-index="1" transform="translate(5,4)"><text x="3" data-z-index="1" style="font-size:12px;font-weight:normal;" y="15"><tspan>Durchschnittliche Abweichung vom</tspan><tspan x="3" dy="15">Referenzwohnviertel Iselin in %</tspan></text></g></g></svg>