<?xml version="1.0" standalone="no"?><!DOCTYPE svg PUBLIC "-//W3C//DTD SVG 1.1//EN" "http://www.w3.org/Graphics/SVG/1.1/DTD/svg11.dtd"><svg xmlns:xlink="http://www.w3.org/1999/xlink" version="1.1" class="highcharts-root" style="font-family:Arial;font-size:12px;" xmlns="http://www.w3.org/2000/svg" viewBox="0 0 485 415"><desc>Created with Highcharts 8.2.2</desc><defs><clipPath id="highcharts-m72nneu-27-"><rect x="0" y="0" width="201" height="157" fill="none"></rect></clipPath><clipPath id="highcharts-m72nneu-29-"><rect x="2" y="52" width="201" height="157" fill="none"></rect></clipPath></defs><rect fill="#fbfbfb" class="highcharts-background" x="0" y="0" width="320" height="221" rx="0" ry="0"></rect><rect fill="none" class="highcharts-plot-background" x="2" y="52" width="201" height="157"></rect><g class="highcharts-pane-group" data-z-index="0"></g><rect fill="none" class="highcharts-plot-border" data-z-index="1" x="2" y="52" width="201" height="157"></rect><g class="highcharts-series-group" data-z-index="3"><g class="highcharts-series highcharts-series-0 highcharts-pie-series" data-z-index="0.1" opacity="1" transform="translate(2,52) scale(1 1)"><path fill="#672773" d="M 100.48604838554688 10.000001420785026 A 68.5 68.5 0 0 1 168.03559947460704 67.04605728993475 L 100.5 78.5 A 0 0 0 0 0 100.5 78.5 Z" transform="translate(0,0)" opacity="1" stroke-linejoin="round" class="highcharts-point highcharts-color-0"></path><path fill="#007a2f " d="M 168.0470196476112 67.11359860512431 A 68.5 68.5 0 0 1 158.05906306316112 115.63763938770262 L 100.5 78.5 A 0 0 0 0 0 100.5 78.5 Z" transform="translate(0,0)" opacity="1" stroke-linejoin="round" class="highcharts-point highcharts-color-1"></path><path fill="#fabd24" d="M 158.0218966504339 115.69517987235446 A 68.5 68.5 0 0 1 132.05871646418296 139.29718262496468 L 100.5 78.5 A 0 0 0 0 0 100.5 78.5 Z" transform="translate(0,0)" opacity="1" stroke-linejoin="round" class="highcharts-point highcharts-color-2"></path><path fill="#b475ab" d="M 131.99790351233395 139.3287109375803 A 68.5 68.5 0 0 1 47.21872782929614 121.55062178263374 L 100.5 78.5 A 0 0 0 0 0 100.5 78.5 Z" transform="translate(0,0)" opacity="1" stroke-linejoin="round" class="highcharts-point highcharts-color-3"></path><path fill="#71a3b5" d="M 47.17570385532249 121.49731899403416 A 68.5 68.5 0 0 1 34.99085514019967 98.52003845495048 L 100.5 78.5 A 0 0 0 0 0 100.5 78.5 Z" transform="translate(0,0)" opacity="1" stroke-linejoin="round" class="highcharts-point highcharts-color-4"></path><path fill="#b9cfd7" d="M 34.970867859651094 98.45451931099048 A 68.5 68.5 0 0 1 37.02479194135526 52.748340598870875 L 100.5 78.5 A 0 0 0 0 0 100.5 78.5 Z" transform="translate(0,0)" opacity="1" stroke-linejoin="round" class="highcharts-point highcharts-color-5"></path><path fill="#ff8028 " d="M 37.05057533406583 52.684878277220065 A 68.5 68.5 0 0 1 41.83190817607676 43.14034782778949 L 100.5 78.5 A 0 0 0 0 0 100.5 78.5 Z" transform="translate(0,0)" opacity="1" stroke-linejoin="round" class="highcharts-point highcharts-color-6"></path><path fill="#73ba7c" d="M 41.86729715639916 43.08169742556821 A 68.5 68.5 0 0 1 47.29693917120303 35.35276001356136 L 100.5 78.5 A 0 0 0 0 0 100.5 78.5 Z" transform="translate(0,0)" opacity="1" stroke-linejoin="round" class="highcharts-point highcharts-color-7"></path><path fill="#9f7c5a" d="M 47.340113005526455 35.29957853521794 A 68.5 68.5 0 0 1 54.95286361383939 27.336454706300074 L 100.5 78.5 A 0 0 0 0 0 100.5 78.5 Z" transform="translate(0,0)" opacity="1" stroke-linejoin="round" class="highcharts-point highcharts-color-8"></path><path fill="#999999" d="M 55.004049924172115 27.290933159275617 A 68.5 68.5 0 0 1 100.40485487424209 10.000066077367308 L 100.5 78.5 A 0 0 0 0 0 100.5 78.5 Z" transform="translate(0,0)" opacity="1" stroke-linejoin="round" class="highcharts-point highcharts-color-9"></path></g><g class="highcharts-markers highcharts-series-0 highcharts-pie-series" data-z-index="0.1" opacity="1" transform="translate(2,52) scale(1 1)"></g></g><text x="2" text-anchor="start" class="highcharts-title" data-z-index="4" style="color:#000000;font-size:10px;font-weight:bold;fill:#000000;" y="9"><tspan>Ausländer nach Staatsangehörigkeit bzw.</tspan><tspan dy="13" x="2">Ländergruppen</tspan></text><text x="2" text-anchor="start" class="highcharts-subtitle" data-z-index="4" style="color:#000000;font-size:10px;font-weight:normal;font-family:Arial;fill:#000000;" y="38"><tspan>Basel-Stadt, 2019</tspan></text><text x="2" text-anchor="start" class="highcharts-caption" data-z-index="4" style="color:#666666;fill:#666666;" y="221"></text><g class="highcharts-legend" data-z-index="7" transform="translate(203,43)"><rect fill="none" class="highcharts-legend-box" rx="0" ry="0" x="0" y="0" width="115" height="125" visibility="visible"></rect><g data-z-index="1"><g><g class="highcharts-legend-item highcharts-pie-series highcharts-color-0" data-z-index="1" transform="translate(0,-5)"><text x="21" style="color:#000000;cursor:pointer;font-size:10px;font-weight:normal;fill:#000000;" text-anchor="start" data-z-index="2" y="13"><tspan>Deutschland</tspan></text><rect x="3" y="4" width="10" height="10" fill="#672773" class="highcharts-point" data-z-index="3"></rect></g><g class="highcharts-legend-item highcharts-pie-series highcharts-color-1" data-z-index="1" transform="translate(0,8)"><text x="21" y="13" style="color:#000000;cursor:pointer;font-size:10px;font-weight:normal;fill:#000000;" text-anchor="start" data-z-index="2"><tspan>Italien</tspan></text><rect x="3" y="4" width="10" height="10" fill="#007a2f " class="highcharts-point" data-z-index="3"></rect></g><g class="highcharts-legend-item highcharts-pie-series highcharts-color-2" data-z-index="1" transform="translate(0,21)"><text x="21" y="13" style="color:#000000;cursor:pointer;font-size:10px;font-weight:normal;fill:#000000;" text-anchor="start" data-z-index="2"><tspan>Türkei</tspan></text><rect x="3" y="4" width="10" height="10" fill="#fabd24" class="highcharts-point" data-z-index="3"></rect></g><g class="highcharts-legend-item highcharts-pie-series highcharts-color-3" data-z-index="1" transform="translate(0,34)"><text x="21" y="13" style="color:#000000;cursor:pointer;font-size:10px;font-weight:normal;fill:#000000;" text-anchor="start" data-z-index="2"><tspan>EU-17 + EFTA</tspan></text><rect x="3" y="4" width="10" height="10" fill="#b475ab" class="highcharts-point" data-z-index="3"></rect></g><g class="highcharts-legend-item highcharts-pie-series highcharts-color-4" data-z-index="1" transform="translate(0,47)"><text x="21" y="13" style="color:#000000;cursor:pointer;font-size:10px;font-weight:normal;fill:#000000;" text-anchor="start" data-z-index="2"><tspan>EU-Ost</tspan></text><rect x="3" y="4" width="10" height="10" fill="#71a3b5" class="highcharts-point" data-z-index="3"></rect></g><g class="highcharts-legend-item highcharts-pie-series highcharts-color-5" data-z-index="1" transform="translate(0,60)"><text x="21" y="13" style="color:#000000;cursor:pointer;font-size:10px;font-weight:normal;fill:#000000;" text-anchor="start" data-z-index="2"><tspan>Balkan</tspan></text><rect x="3" y="4" width="10" height="10" fill="#b9cfd7" class="highcharts-point" data-z-index="3"></rect></g><g class="highcharts-legend-item highcharts-pie-series highcharts-color-6" data-z-index="1" transform="translate(0,73)"><text x="21" y="13" style="color:#000000;cursor:pointer;font-size:10px;font-weight:normal;fill:#000000;" text-anchor="start" data-z-index="2"><tspan>Mittel- u. Südamerika</tspan></text><rect x="3" y="4" width="10" height="10" fill="#ff8028 " class="highcharts-point" data-z-index="3"></rect></g><g class="highcharts-legend-item highcharts-pie-series highcharts-color-7" data-z-index="1" transform="translate(0,86)"><text x="21" y="13" style="color:#000000;cursor:pointer;font-size:10px;font-weight:normal;fill:#000000;" text-anchor="start" data-z-index="2"><tspan>Arabische Länder</tspan></text><rect x="3" y="4" width="10" height="10" fill="#73ba7c" class="highcharts-point" data-z-index="3"></rect></g><g class="highcharts-legend-item highcharts-pie-series highcharts-color-8" data-z-index="1" transform="translate(0,99)"><text x="21" y="13" style="color:#000000;cursor:pointer;font-size:10px;font-weight:normal;fill:#000000;" text-anchor="start" data-z-index="2"><tspan>Afrikanische Länder</tspan></text><rect x="3" y="4" width="10" height="10" fill="#9f7c5a" class="highcharts-point" data-z-index="3"></rect></g><g class="highcharts-legend-item highcharts-pie-series highcharts-color-9" data-z-index="1" transform="translate(0,112)"><text x="21" y="13" style="color:#000000;cursor:pointer;font-size:10px;font-weight:normal;fill:#000000;" text-anchor="start" data-z-index="2"><tspan>Übrige Länder</tspan></text><rect x="3" y="4" width="10" height="10" fill="#999999" class="highcharts-point" data-z-index="3"></rect></g></g></g></g><text x="10" class="highcharts-credits" text-anchor="start" data-z-index="8" style="cursor:default;color:#000000;font-size:10px;fill:#000000;" y="196"><tspan>Quelle: Statistisches Amt Basel-Stadt, Bevölkerungsstatistik.</tspan><tspan x="10" dy="13">Zuletzt geändert: 2020-12-16</tspan></text><g class="highcharts-control-points" data-z-index="99" clip-path="url(#highcharts-m72nneu-29-)"></g></svg>