<?xml version="1.0" standalone="no"?><!DOCTYPE svg PUBLIC "-//W3C//DTD SVG 1.1//EN" "http://www.w3.org/Graphics/SVG/1.1/DTD/svg11.dtd"><svg xmlns:xlink="http://www.w3.org/1999/xlink" version="1.1" class="highcharts-root" style="font-family:Arial;font-size:12px;" xmlns="http://www.w3.org/2000/svg" viewBox="0 0 485 415"><desc>Created with Highstock 6.1.1</desc><defs><clipPath id="highcharts-bkrizo5-7"><rect x="0" y="0" width="98" height="252" fill="none"></rect></clipPath><clipPath id="highcharts-bkrizo5-8"><rect x="0" y="0" width="98" height="252" fill="none"></rect></clipPath></defs><rect fill="#fbfbfb" class="highcharts-background" x="0" y="0" width="320" height="208" rx="0" ry="0"></rect><rect fill="none" class="highcharts-plot-background" x="53" y="87" width="252" height="98"></rect><g class="highcharts-pane-group" data-z-index="0"></g><g class="highcharts-grid highcharts-xaxis-grid " data-z-index="1"><path fill="none" data-z-index="1" class="highcharts-grid-line" d="M 53 180.5 L 305 180.5" opacity="1"></path><path fill="none" data-z-index="1" class="highcharts-grid-line" d="M 53 175.5 L 305 175.5" opacity="1"></path><path fill="none" data-z-index="1" class="highcharts-grid-line" d="M 53 170.5 L 305 170.5" opacity="1"></path><path fill="none" data-z-index="1" class="highcharts-grid-line" d="M 53 165.5 L 305 165.5" opacity="1"></path><path fill="none" data-z-index="1" class="highcharts-grid-line" d="M 53 161.5 L 305 161.5" opacity="1"></path><path fill="none" data-z-index="1" class="highcharts-grid-line" d="M 53 156.5 L 305 156.5" opacity="1"></path><path fill="none" data-z-index="1" class="highcharts-grid-line" d="M 53 151.5 L 305 151.5" opacity="1"></path><path fill="none" data-z-index="1" class="highcharts-grid-line" d="M 53 146.5 L 305 146.5" opacity="1"></path><path fill="none" data-z-index="1" class="highcharts-grid-line" d="M 53 141.5 L 305 141.5" opacity="1"></path><path fill="none" data-z-index="1" class="highcharts-grid-line" d="M 53 136.5 L 305 136.5" opacity="1"></path><path fill="none" data-z-index="1" class="highcharts-grid-line" d="M 53 131.5 L 305 131.5" opacity="1"></path><path fill="none" data-z-index="1" class="highcharts-grid-line" d="M 53 126.5 L 305 126.5" opacity="1"></path><path fill="none" data-z-index="1" class="highcharts-grid-line" d="M 53 121.5 L 305 121.5" opacity="1"></path><path fill="none" data-z-index="1" class="highcharts-grid-line" d="M 53 116.5 L 305 116.5" opacity="1"></path><path fill="none" data-z-index="1" class="highcharts-grid-line" d="M 53 111.5 L 305 111.5" opacity="1"></path><path fill="none" data-z-index="1" class="highcharts-grid-line" d="M 53 107.5 L 305 107.5" opacity="1"></path><path fill="none" data-z-index="1" class="highcharts-grid-line" d="M 53 102.5 L 305 102.5" opacity="1"></path><path fill="none" data-z-index="1" class="highcharts-grid-line" d="M 53 97.5 L 305 97.5" opacity="1"></path><path fill="none" data-z-index="1" class="highcharts-grid-line" d="M 53 92.5 L 305 92.5" opacity="1"></path><path fill="none" data-z-index="1" class="highcharts-grid-line" d="M 53 87.5 L 305 87.5" opacity="1"></path><path fill="none" data-z-index="1" class="highcharts-grid-line" d="M 53 185.5 L 305 185.5" opacity="1"></path></g><g class="highcharts-grid highcharts-yaxis-grid " data-z-index="1"><path fill="none" stroke="#B9CFD7" stroke-width="0.5" data-z-index="1" class="highcharts-grid-line" d="M 178.75 87 L 178.75 185" opacity="1"></path><path fill="none" stroke="#B9CFD7" stroke-width="0.5" data-z-index="1" class="highcharts-grid-line" d="M 196.75 87 L 196.75 185" opacity="1"></path><path fill="none" stroke="#B9CFD7" stroke-width="0.5" data-z-index="1" class="highcharts-grid-line" d="M 214.75 87 L 214.75 185" opacity="1"></path><path fill="none" stroke="#B9CFD7" stroke-width="0.5" data-z-index="1" class="highcharts-grid-line" d="M 232.75 87 L 232.75 185" opacity="1"></path><path fill="none" stroke="#B9CFD7" stroke-width="0.5" data-z-index="1" class="highcharts-grid-line" d="M 250.75 87 L 250.75 185" opacity="1"></path><path fill="none" stroke="#B9CFD7" stroke-width="0.5" data-z-index="1" class="highcharts-grid-line" d="M 268.75 87 L 268.75 185" opacity="1"></path><path fill="none" stroke="#B9CFD7" stroke-width="0.5" data-z-index="1" class="highcharts-grid-line" d="M 286.75 87 L 286.75 185" opacity="1"></path><path fill="none" stroke="#B9CFD7" stroke-width="0.5" data-z-index="1" class="highcharts-grid-line" d="M 305.25 87 L 305.25 185" opacity="1"></path><path fill="none" stroke="#B9CFD7" stroke-width="0.5" data-z-index="1" opacity="1" class="highcharts-grid-line" d="M 52.75 87 L 52.75 185"></path><path fill="none" stroke="#B9CFD7" stroke-width="0.5" data-z-index="1" opacity="1" class="highcharts-grid-line" d="M 70.75 87 L 70.75 185"></path><path fill="none" stroke="#B9CFD7" stroke-width="0.5" data-z-index="1" opacity="1" class="highcharts-grid-line" d="M 88.75 87 L 88.75 185"></path><path fill="none" stroke="#B9CFD7" stroke-width="0.5" data-z-index="1" opacity="1" class="highcharts-grid-line" d="M 106.75 87 L 106.75 185"></path><path fill="none" stroke="#B9CFD7" stroke-width="0.5" data-z-index="1" opacity="1" class="highcharts-grid-line" d="M 124.75 87 L 124.75 185"></path><path fill="none" stroke="#B9CFD7" stroke-width="0.5" data-z-index="1" opacity="1" class="highcharts-grid-line" d="M 142.75 87 L 142.75 185"></path><path fill="none" stroke="#B9CFD7" stroke-width="0.5" data-z-index="1" opacity="1" class="highcharts-grid-line" d="M 160.75 87 L 160.75 185"></path></g><rect fill="none" class="highcharts-plot-border" data-z-index="1" x="53" y="87" width="252" height="98"></rect><g class="highcharts-axis highcharts-xaxis " data-z-index="2"><path fill="none" class="highcharts-axis-line" stroke="#B9CFD7" stroke-width="0.5" data-z-index="7" d="M 52.75 87 L 52.75 185"></path></g><g class="highcharts-axis highcharts-yaxis " data-z-index="2"><path fill="none" class="highcharts-axis-line" data-z-index="7" d="M 53 185 L 305 185"></path></g><g class="highcharts-series-group" data-z-index="3"><g data-z-index="0.1" class="highcharts-series highcharts-series-0 highcharts-bar-series " transform="translate(305,185) rotate(90) scale(-1,1) scale(1 1)" clip-path="url(#highcharts-bkrizo5-8)" width="252" height="98"><rect x="-0.5" y="126.5" width="5" height="40" fill="#661200" stroke="#ffffff" stroke-width="0.2" class="highcharts-point highcharts-negative"></rect><rect x="4.5" y="126.5" width="5" height="36" fill="#661200" stroke="#ffffff" stroke-width="0.2" class="highcharts-point highcharts-negative"></rect><rect x="9.5" y="126.5" width="5" height="35" fill="#661200" stroke="#ffffff" stroke-width="0.2" class="highcharts-point highcharts-negative"></rect><rect x="14.5" y="126.5" width="5" height="40" fill="#661200" stroke="#ffffff" stroke-width="0.2" class="highcharts-point highcharts-negative"></rect><rect x="19.5" y="126.5" width="5" height="51" fill="#661200" stroke="#ffffff" stroke-width="0.2" class="highcharts-point highcharts-negative"></rect><rect x="24.5" y="126.5" width="4" height="64" fill="#661200" stroke="#ffffff" stroke-width="0.2" class="highcharts-point highcharts-negative"></rect><rect x="28.5" y="126.5" width="5" height="59" fill="#661200" stroke="#ffffff" stroke-width="0.2" class="highcharts-point highcharts-negative"></rect><rect x="33.5" y="126.5" width="5" height="50" fill="#661200" stroke="#ffffff" stroke-width="0.2" class="highcharts-point highcharts-negative"></rect><rect x="38.5" y="126.5" width="5" height="45" fill="#661200" stroke="#ffffff" stroke-width="0.2" class="highcharts-point highcharts-negative"></rect><rect x="43.5" y="126.5" width="5" height="50" fill="#661200" stroke="#ffffff" stroke-width="0.2" class="highcharts-point highcharts-negative"></rect><rect x="48.5" y="126.5" width="5" height="63" fill="#661200" stroke="#ffffff" stroke-width="0.2" class="highcharts-point highcharts-negative"></rect><rect x="53.5" y="126.5" width="5" height="62" fill="#661200" stroke="#ffffff" stroke-width="0.2" class="highcharts-point highcharts-negative"></rect><rect x="58.5" y="126.5" width="5" height="55" fill="#661200" stroke="#ffffff" stroke-width="0.2" class="highcharts-point highcharts-negative"></rect><rect x="63.5" y="126.5" width="5" height="49" fill="#661200" stroke="#ffffff" stroke-width="0.2" class="highcharts-point highcharts-negative"></rect><rect x="68.5" y="126.5" width="5" height="44" fill="#661200" stroke="#ffffff" stroke-width="0.2" class="highcharts-point highcharts-negative"></rect><rect x="73.5" y="126.5" width="4" height="34" fill="#661200" stroke="#ffffff" stroke-width="0.2" class="highcharts-point highcharts-negative"></rect><rect x="77.5" y="126.5" width="5" height="28" fill="#661200" stroke="#ffffff" stroke-width="0.2" class="highcharts-point highcharts-negative"></rect><rect x="82.5" y="126.5" width="5" height="20" fill="#661200" stroke="#ffffff" stroke-width="0.2" class="highcharts-point highcharts-negative"></rect><rect x="87.5" y="126.5" width="5" height="8" fill="#661200" stroke="#ffffff" stroke-width="0.2" class="highcharts-point highcharts-negative"></rect><rect x="92.5" y="126.5" width="5" height="2" fill="#661200" stroke="#ffffff" stroke-width="0.2" class="highcharts-point highcharts-negative"></rect></g><g data-z-index="0.1" class="highcharts-markers highcharts-series-0 highcharts-bar-series " transform="translate(305,185) rotate(90) scale(-1,1) scale(1 1)" clip-path="none"></g><g data-z-index="0.1" class="highcharts-series highcharts-series-1 highcharts-bar-series " transform="translate(305,185) rotate(90) scale(-1,1) scale(1 1)" clip-path="url(#highcharts-bkrizo5-8)" width="252" height="98"><rect x="-0.5" y="89.5" width="5" height="37" fill="#dc440e" stroke="#ffffff" stroke-width="0.2" class="highcharts-point"></rect><rect x="4.5" y="91.5" width="5" height="35" fill="#dc440e" stroke="#ffffff" stroke-width="0.2" class="highcharts-point"></rect><rect x="9.5" y="94.5" width="5" height="32" fill="#dc440e" stroke="#ffffff" stroke-width="0.2" class="highcharts-point"></rect><rect x="14.5" y="90.5" width="5" height="36" fill="#dc440e" stroke="#ffffff" stroke-width="0.2" class="highcharts-point"></rect><rect x="19.5" y="65.5" width="5" height="61" fill="#dc440e" stroke="#ffffff" stroke-width="0.2" class="highcharts-point"></rect><rect x="24.5" y="53.5" width="4" height="73" fill="#dc440e" stroke="#ffffff" stroke-width="0.2" class="highcharts-point"></rect><rect x="28.5" y="66.5" width="5" height="60" fill="#dc440e" stroke="#ffffff" stroke-width="0.2" class="highcharts-point"></rect><rect x="33.5" y="77.5" width="5" height="49" fill="#dc440e" stroke="#ffffff" stroke-width="0.2" class="highcharts-point"></rect><rect x="38.5" y="80.5" width="5" height="46" fill="#dc440e" stroke="#ffffff" stroke-width="0.2" class="highcharts-point"></rect><rect x="43.5" y="73.5" width="5" height="53" fill="#dc440e" stroke="#ffffff" stroke-width="0.2" class="highcharts-point"></rect><rect x="48.5" y="58.5" width="5" height="68" fill="#dc440e" stroke="#ffffff" stroke-width="0.2" class="highcharts-point"></rect><rect x="53.5" y="58.5" width="5" height="68" fill="#dc440e" stroke="#ffffff" stroke-width="0.2" class="highcharts-point"></rect><rect x="58.5" y="65.5" width="5" height="61" fill="#dc440e" stroke="#ffffff" stroke-width="0.2" class="highcharts-point"></rect><rect x="63.5" y="67.5" width="5" height="59" fill="#dc440e" stroke="#ffffff" stroke-width="0.2" class="highcharts-point"></rect><rect x="68.5" y="69.5" width="5" height="57" fill="#dc440e" stroke="#ffffff" stroke-width="0.2" class="highcharts-point"></rect><rect x="73.5" y="74.5" width="4" height="52" fill="#dc440e" stroke="#ffffff" stroke-width="0.2" class="highcharts-point"></rect><rect x="77.5" y="78.5" width="5" height="48" fill="#dc440e" stroke="#ffffff" stroke-width="0.2" class="highcharts-point"></rect><rect x="82.5" y="86.5" width="5" height="40" fill="#dc440e" stroke="#ffffff" stroke-width="0.2" class="highcharts-point"></rect><rect x="87.5" y="104.5" width="5" height="22" fill="#dc440e" stroke="#ffffff" stroke-width="0.2" class="highcharts-point"></rect><rect x="92.5" y="118.5" width="5" height="8" fill="#dc440e" stroke="#ffffff" stroke-width="0.2" class="highcharts-point"></rect></g><g data-z-index="0.1" class="highcharts-markers highcharts-series-1 highcharts-bar-series " transform="translate(305,185) rotate(90) scale(-1,1) scale(1 1)" clip-path="none"></g></g><text x="2" text-anchor="start" class="highcharts-title" data-z-index="4" style="color:#000000;font-size:14px;font-weight:bold;fill:#000000;" y="13"><tspan>Bevölkerungspyramide der</tspan><tspan dy="17" x="2">Schweizerinnen und Schweizer</tspan></text><text x="2" text-anchor="start" class="highcharts-subtitle" data-z-index="4" style="color:#000000;font-size:12px;font-weight:normal;font-family:Arial;fill:#000000;" y="49"><tspan>Basel-Stadt, 2017</tspan></text><g class="highcharts-plot-lines-4" data-z-index="4"><path fill="none" class="highcharts-plot-line " stroke="white" stroke-width="1" d="M 178.5 87 L 178.5 185" visibility="visible"></path></g><g class="highcharts-legend" data-z-index="7" transform="translate(102,65)"><rect fill="none" class="highcharts-legend-box" rx="0" ry="0" x="0" y="0" width="131" height="10" visibility="visible"></rect><g data-z-index="1"><g><g class="highcharts-legend-item highcharts-bar-series highcharts-color-undefined highcharts-series-0" data-z-index="1" transform="translate(0,-5)"><text x="21" style="color:#333333;font-size:10px;font-weight:normal;cursor:pointer;fill:#333333;" text-anchor="start" data-z-index="2" y="13"><tspan>Männer</tspan></text><rect x="3" y="4" width="10" height="10" fill="#661200" class="highcharts-point" data-z-index="3"></rect></g><g class="highcharts-legend-item highcharts-bar-series highcharts-color-undefined highcharts-series-1" data-z-index="1" transform="translate(77,-5)"><text x="21" y="13" style="color:#333333;font-size:10px;font-weight:normal;cursor:pointer;fill:#333333;" text-anchor="start" data-z-index="2"><tspan>Frauen</tspan></text><rect x="3" y="4" width="10" height="10" fill="#dc440e" class="highcharts-point" data-z-index="3"></rect></g></g></g></g><g class="highcharts-axis-labels highcharts-xaxis-labels " data-z-index="7"><text x="38" style="color:#000000;cursor:default;font-size:10px;fill:#000000;" text-anchor="end" transform="translate(0,0)" y="186" opacity="1">0-4</text><text x="38" style="color:#000000;cursor:default;font-size:10px;fill:#000000;" text-anchor="end" transform="translate(0,0)" y="181" opacity="1">5-9</text><text x="38" style="color:#000000;cursor:default;font-size:10px;fill:#000000;" text-anchor="end" transform="translate(0,0)" y="176" opacity="1">10-14</text><text x="38" style="color:#000000;cursor:default;font-size:10px;fill:#000000;" text-anchor="end" transform="translate(0,0)" y="171" opacity="1">15-19</text><text x="38" style="color:#000000;cursor:default;font-size:10px;fill:#000000;" text-anchor="end" transform="translate(0,0)" y="166" opacity="1">20-24</text><text x="38" style="color:#000000;cursor:default;font-size:10px;fill:#000000;" text-anchor="end" transform="translate(0,0)" y="162" opacity="1">25-29</text><text x="38" style="color:#000000;cursor:default;font-size:10px;fill:#000000;" text-anchor="end" transform="translate(0,0)" y="157" opacity="1">30-34</text><text x="38" style="color:#000000;cursor:default;font-size:10px;fill:#000000;" text-anchor="end" transform="translate(0,0)" y="152" opacity="1">35-39</text><text x="38" style="color:#000000;cursor:default;font-size:10px;fill:#000000;" text-anchor="end" transform="translate(0,0)" y="147" opacity="1">40-44</text><text x="38" style="color:#000000;cursor:default;font-size:10px;fill:#000000;" text-anchor="end" transform="translate(0,0)" y="142" opacity="1">45-49</text><text x="38" style="color:#000000;cursor:default;font-size:10px;fill:#000000;" text-anchor="end" transform="translate(0,0)" y="137" opacity="1">50-54</text><text x="38" style="color:#000000;cursor:default;font-size:10px;fill:#000000;" text-anchor="end" transform="translate(0,0)" y="132" opacity="1">55-59</text><text x="38" style="color:#000000;cursor:default;font-size:10px;fill:#000000;" text-anchor="end" transform="translate(0,0)" y="127" opacity="1">60-64</text><text x="38" style="color:#000000;cursor:default;font-size:10px;fill:#000000;" text-anchor="end" transform="translate(0,0)" y="122" opacity="1">65-69</text><text x="38" style="color:#000000;cursor:default;font-size:10px;fill:#000000;" text-anchor="end" transform="translate(0,0)" y="117" opacity="1">70-74</text><text x="38" style="color:#000000;cursor:default;font-size:10px;fill:#000000;" text-anchor="end" transform="translate(0,0)" y="113" opacity="1">75-79</text><text x="38" style="color:#000000;cursor:default;font-size:10px;fill:#000000;" text-anchor="end" transform="translate(0,0)" y="108" opacity="1">80-84</text><text x="38" style="color:#000000;cursor:default;font-size:10px;fill:#000000;" text-anchor="end" transform="translate(0,0)" y="103" opacity="1">85-89</text><text x="38" style="color:#000000;cursor:default;font-size:10px;fill:#000000;" text-anchor="end" transform="translate(0,0)" y="98" opacity="1">90-94</text><text x="38" style="color:#000000;cursor:default;font-size:10px;fill:#000000;" text-anchor="end" transform="translate(0,0)" y="93" opacity="1"><tspan>95 u.m.</tspan></text></g><g class="highcharts-axis-labels highcharts-yaxis-labels " data-z-index="7"><text x="179" style="color:#000000;cursor:default;font-size:10px;fill:#000000;" text-anchor="middle" transform="translate(0,0)" y="203" opacity="1">0%</text><text x="197" style="color:#000000;cursor:default;font-size:10px;fill:#000000;" text-anchor="middle" transform="translate(0,0)" y="203" opacity="1">1%</text><text x="215" style="color:#000000;cursor:default;font-size:10px;fill:#000000;" text-anchor="middle" transform="translate(0,0)" y="203" opacity="1">2%</text><text x="233" style="color:#000000;cursor:default;font-size:10px;fill:#000000;" text-anchor="middle" transform="translate(0,0)" y="203" opacity="1">3%</text><text x="251" style="color:#000000;cursor:default;font-size:10px;fill:#000000;" text-anchor="middle" transform="translate(0,0)" y="203" opacity="1">4%</text><text x="269" style="color:#000000;cursor:default;font-size:10px;fill:#000000;" text-anchor="middle" transform="translate(0,0)" y="203" opacity="1">5%</text><text x="287" style="color:#000000;cursor:default;font-size:10px;fill:#000000;" text-anchor="middle" transform="translate(0,0)" y="203" opacity="1">6%</text><text x="305" style="color:#000000;cursor:default;font-size:10px;fill:#000000;" text-anchor="middle" transform="translate(0,0)" y="203" opacity="1">7%</text><text x="53" style="color:#000000;cursor:default;font-size:10px;fill:#000000;" text-anchor="middle" transform="translate(0,0)" y="203" opacity="1">7%</text><text x="71" style="color:#000000;cursor:default;font-size:10px;fill:#000000;" text-anchor="middle" transform="translate(0,0)" y="203" opacity="1">6%</text><text x="89" style="color:#000000;cursor:default;font-size:10px;fill:#000000;" text-anchor="middle" transform="translate(0,0)" y="203" opacity="1">5%</text><text x="107" style="color:#000000;cursor:default;font-size:10px;fill:#000000;" text-anchor="middle" transform="translate(0,0)" y="203" opacity="1">4%</text><text x="125" style="color:#000000;cursor:default;font-size:10px;fill:#000000;" text-anchor="middle" transform="translate(0,0)" y="203" opacity="1">3%</text><text x="143" style="color:#000000;cursor:default;font-size:10px;fill:#000000;" text-anchor="middle" transform="translate(0,0)" y="203" opacity="1">2%</text><text x="161" style="color:#000000;cursor:default;font-size:10px;fill:#000000;" text-anchor="middle" transform="translate(0,0)" y="203" opacity="1">1%</text></g><text x="10" class="highcharts-credits" text-anchor="start" data-z-index="8" style="cursor:default;color:#000000;font-size:10px;fill:#000000;" y="193"><tspan>Quelle: Statistisches Amt Basel-Stadt, Bevölkerungsstatistik.</tspan></text></svg>