<?xml version="1.0" standalone="no"?><!DOCTYPE svg PUBLIC "-//W3C//DTD SVG 1.1//EN" "http://www.w3.org/Graphics/SVG/1.1/DTD/svg11.dtd"><svg xmlns:xlink="http://www.w3.org/1999/xlink" version="1.1" class="highcharts-root" style="font-family:Arial;font-size:12px;" xmlns="http://www.w3.org/2000/svg" viewBox="0 0 485 415"><desc>Created with Highcharts 8.1.0</desc><defs><clipPath id="highcharts-5bd0gji-139-"><rect x="0" y="0" width="272" height="64" fill="none"></rect></clipPath><clipPath id="highcharts-5bd0gji-152-"><rect x="0" y="0" width="272" height="64" fill="none"></rect></clipPath><clipPath id="highcharts-5bd0gji-273-"><rect x="46" y="126" width="272" height="64" fill="none"></rect></clipPath></defs><rect fill="#fbfbfb" class="highcharts-background" x="0" y="0" width="320" height="221" rx="0" ry="0"></rect><rect fill="none" class="highcharts-plot-background" x="46" y="126" width="272" height="64"></rect><g class="highcharts-pane-group" data-z-index="0"></g><g class="highcharts-grid highcharts-xaxis-grid" data-z-index="1"><path fill="none" data-z-index="1" class="highcharts-grid-line" d="M 48.5 126 L 48.5 190" opacity="1"></path><path fill="none" data-z-index="1" class="highcharts-grid-line" d="M 96.5 126 L 96.5 190" opacity="1"></path><path fill="none" data-z-index="1" class="highcharts-grid-line" d="M 145.5 126 L 145.5 190" opacity="1"></path><path fill="none" data-z-index="1" class="highcharts-grid-line" d="M 193.5 126 L 193.5 190" opacity="1"></path><path fill="none" data-z-index="1" class="highcharts-grid-line" d="M 242.5 126 L 242.5 190" opacity="1"></path><path fill="none" data-z-index="1" class="highcharts-grid-line" d="M 314.5 126 L 314.5 190" opacity="1"></path></g><g class="highcharts-grid highcharts-yaxis-grid" data-z-index="1"><path fill="none" stroke="#B9CFD7" stroke-width="0.5" data-z-index="1" class="highcharts-grid-line" d="M 46 190.25 L 318 190.25" opacity="1"></path><path fill="none" stroke="#B9CFD7" stroke-width="0.5" data-z-index="1" class="highcharts-grid-line" d="M 46 177.25 L 318 177.25" opacity="1"></path><path fill="none" stroke="#B9CFD7" stroke-width="0.5" data-z-index="1" class="highcharts-grid-line" d="M 46 164.25 L 318 164.25" opacity="1"></path><path fill="none" stroke="#B9CFD7" stroke-width="0.5" data-z-index="1" class="highcharts-grid-line" d="M 46 152.25 L 318 152.25" opacity="1"></path><path fill="none" stroke="#B9CFD7" stroke-width="0.5" data-z-index="1" class="highcharts-grid-line" d="M 46 139.25 L 318 139.25" opacity="1"></path><path fill="none" stroke="#B9CFD7" stroke-width="0.5" data-z-index="1" class="highcharts-grid-line" d="M 46 125.75 L 318 125.75" opacity="1"></path></g><rect fill="none" class="highcharts-plot-border" data-z-index="1" x="46" y="126" width="272" height="64"></rect><g class="highcharts-axis highcharts-xaxis" data-z-index="2"><path fill="none" class="highcharts-axis-line" stroke="#B9CFD7" stroke-width="0.5" data-z-index="7" d="M 46 190.25 L 318 190.25"></path></g><g class="highcharts-axis highcharts-yaxis" data-z-index="2"><path fill="none" class="highcharts-axis-line" data-z-index="7" d="M 46 126 L 46 190"></path></g><g class="highcharts-series-group" data-z-index="3"><g data-z-index="0.1" class="highcharts-series highcharts-series-0 highcharts-area-series" transform="translate(46,126) scale(1 1)" clip-path="url(#highcharts-5bd0gji-152-)"><path fill="rgb(153,153,153)" fill-opacity="0.75" d="M 2.6666666666643 21.324799999999996 L 26.909090909089 20.607999999999997 L 51.151515151514 18.559999999999995 L 75.393939393938 15.104 L 99.636363636363 16.179199999999994 L 123.87878787879 14.591999999999999 L 148.12121212121 13.772799999999997 L 172.36363636364 13.926400000000001 L 196.60606060606 11.135999999999996 L 220.84848484849 8.396799999999999 L 245.09090909091 10.675199999999997 L 269.33333333334 10.7776 L 269.33333333334 13.4144 L 245.09090909091 13.311999999999998 L 220.84848484849 11.596799999999995 L 196.60606060606 13.926400000000001 L 172.36363636364 16.5888 L 148.12121212121 16.563199999999995 L 123.87878787879 17.254399999999997 L 99.636363636363 19.0208 L 75.393939393938 17.894399999999997 L 51.151515151514 20.6336 L 26.909090909089 22.553599999999996 L 2.6666666666643 23.2192" class="highcharts-area" data-z-index="0"></path><path fill="none" d="M 2.6666666666643 21.324799999999996 L 26.909090909089 20.607999999999997 L 51.151515151514 18.559999999999995 L 75.393939393938 15.104 L 99.636363636363 16.179199999999994 L 123.87878787879 14.591999999999999 L 148.12121212121 13.772799999999997 L 172.36363636364 13.926400000000001 L 196.60606060606 11.135999999999996 L 220.84848484849 8.396799999999999 L 245.09090909091 10.675199999999997 L 269.33333333334 10.7776" class="highcharts-graph" data-z-index="1" stroke-linejoin="round" stroke-linecap="round"></path></g><g data-z-index="0.1" class="highcharts-markers highcharts-series-0 highcharts-area-series" transform="translate(46,126) scale(1 1)" clip-path="none"></g><g data-z-index="0.1" class="highcharts-series highcharts-series-1 highcharts-area-series" transform="translate(46,126) scale(1 1)" clip-path="url(#highcharts-5bd0gji-152-)"><path fill="rgb(159,124,90)" fill-opacity="0.75" d="M 2.6666666666643 23.2192 L 26.909090909089 22.553599999999996 L 51.151515151514 20.6336 L 75.393939393938 17.894399999999997 L 99.636363636363 19.0208 L 123.87878787879 17.254399999999997 L 148.12121212121 16.563199999999995 L 172.36363636364 16.5888 L 196.60606060606 13.926400000000001 L 220.84848484849 11.596799999999995 L 245.09090909091 13.311999999999998 L 269.33333333334 13.4144 L 269.33333333334 14.566399999999994 L 245.09090909091 14.5152 L 220.84848484849 12.595199999999998 L 196.60606060606 14.924799999999998 L 172.36363636364 17.382399999999997 L 148.12121212121 17.715199999999996 L 123.87878787879 18.150399999999998 L 99.636363636363 19.711999999999996 L 75.393939393938 18.559999999999995 L 51.151515151514 21.145599999999995 L 26.909090909089 22.937599999999996 L 2.6666666666643 23.4752" class="highcharts-area" data-z-index="0"></path><path fill="none" d="M 2.6666666666643 23.2192 L 26.909090909089 22.553599999999996 L 51.151515151514 20.6336 L 75.393939393938 17.894399999999997 L 99.636363636363 19.0208 L 123.87878787879 17.254399999999997 L 148.12121212121 16.563199999999995 L 172.36363636364 16.5888 L 196.60606060606 13.926400000000001 L 220.84848484849 11.596799999999995 L 245.09090909091 13.311999999999998 L 269.33333333334 13.4144" class="highcharts-graph" data-z-index="1" stroke-linejoin="round" stroke-linecap="round"></path></g><g data-z-index="0.1" class="highcharts-markers highcharts-series-1 highcharts-area-series" transform="translate(46,126) scale(1 1)" clip-path="none"></g><g data-z-index="0.1" class="highcharts-series highcharts-series-2 highcharts-area-series" transform="translate(46,126) scale(1 1)" clip-path="url(#highcharts-5bd0gji-152-)"><path fill="rgb(115,186,124)" fill-opacity="0.75" d="M 2.6666666666643 23.4752 L 26.909090909089 22.937599999999996 L 51.151515151514 21.145599999999995 L 75.393939393938 18.559999999999995 L 99.636363636363 19.711999999999996 L 123.87878787879 18.150399999999998 L 148.12121212121 17.715199999999996 L 172.36363636364 17.382399999999997 L 196.60606060606 14.924799999999998 L 220.84848484849 12.595199999999998 L 245.09090909091 14.5152 L 269.33333333334 14.566399999999994 L 269.33333333334 15.411200000000001 L 245.09090909091 15.334399999999995 L 220.84848484849 13.644799999999996 L 196.60606060606 15.334399999999995 L 172.36363636364 17.791999999999994 L 148.12121212121 18.227199999999996 L 123.87878787879 18.6368 L 99.636363636363 20.351999999999997 L 75.393939393938 19.0208 L 51.151515151514 21.5552 L 26.909090909089 23.372799999999998 L 2.6666666666643 23.833599999999997" class="highcharts-area" data-z-index="0"></path><path fill="none" d="M 2.6666666666643 23.4752 L 26.909090909089 22.937599999999996 L 51.151515151514 21.145599999999995 L 75.393939393938 18.559999999999995 L 99.636363636363 19.711999999999996 L 123.87878787879 18.150399999999998 L 148.12121212121 17.715199999999996 L 172.36363636364 17.382399999999997 L 196.60606060606 14.924799999999998 L 220.84848484849 12.595199999999998 L 245.09090909091 14.5152 L 269.33333333334 14.566399999999994" class="highcharts-graph" data-z-index="1" stroke-linejoin="round" stroke-linecap="round"></path></g><g data-z-index="0.1" class="highcharts-markers highcharts-series-2 highcharts-area-series" transform="translate(46,126) scale(1 1)" clip-path="none"></g><g data-z-index="0.1" class="highcharts-series highcharts-series-3 highcharts-area-series" transform="translate(46,126) scale(1 1)" clip-path="url(#highcharts-5bd0gji-152-)"><path fill="rgb(255,128,40)" fill-opacity="0.75" d="M 2.6666666666643 23.833599999999997 L 26.909090909089 23.372799999999998 L 51.151515151514 21.5552 L 75.393939393938 19.0208 L 99.636363636363 20.351999999999997 L 123.87878787879 18.6368 L 148.12121212121 18.227199999999996 L 172.36363636364 17.791999999999994 L 196.60606060606 15.334399999999995 L 220.84848484849 13.644799999999996 L 245.09090909091 15.334399999999995 L 269.33333333334 15.411200000000001 L 269.33333333334 15.846399999999996 L 245.09090909091 15.564799999999998 L 220.84848484849 13.977599999999995 L 196.60606060606 15.820799999999998 L 172.36363636364 18.099199999999996 L 148.12121212121 18.790399999999998 L 123.87878787879 18.9184 L 99.636363636363 20.7872 L 75.393939393938 19.6096 L 51.151515151514 21.913599999999995 L 26.909090909089 23.8592 L 2.6666666666643 24.038399999999996" class="highcharts-area" data-z-index="0"></path><path fill="none" d="M 2.6666666666643 23.833599999999997 L 26.909090909089 23.372799999999998 L 51.151515151514 21.5552 L 75.393939393938 19.0208 L 99.636363636363 20.351999999999997 L 123.87878787879 18.6368 L 148.12121212121 18.227199999999996 L 172.36363636364 17.791999999999994 L 196.60606060606 15.334399999999995 L 220.84848484849 13.644799999999996 L 245.09090909091 15.334399999999995 L 269.33333333334 15.411200000000001" class="highcharts-graph" data-z-index="1" stroke-linejoin="round" stroke-linecap="round"></path></g><g data-z-index="0.1" class="highcharts-markers highcharts-series-3 highcharts-area-series" transform="translate(46,126) scale(1 1)" clip-path="none"></g><g data-z-index="0.1" class="highcharts-series highcharts-series-4 highcharts-area-series" transform="translate(46,126) scale(1 1)" clip-path="url(#highcharts-5bd0gji-152-)"><path fill="rgb(185,207,215)" fill-opacity="0.75" d="M 2.6666666666643 24.038399999999996 L 26.909090909089 23.8592 L 51.151515151514 21.913599999999995 L 75.393939393938 19.6096 L 99.636363636363 20.7872 L 123.87878787879 18.9184 L 148.12121212121 18.790399999999998 L 172.36363636364 18.099199999999996 L 196.60606060606 15.820799999999998 L 220.84848484849 13.977599999999995 L 245.09090909091 15.564799999999998 L 269.33333333334 15.846399999999996 L 269.33333333334 18.3808 L 245.09090909091 18.099199999999996 L 220.84848484849 16.7168 L 196.60606060606 18.7136 L 172.36363636364 21.247999999999998 L 148.12121212121 22.092799999999997 L 123.87878787879 21.913599999999995 L 99.636363636363 23.936 L 75.393939393938 23.065599999999996 L 51.151515151514 25.830399999999997 L 26.909090909089 27.391999999999996 L 2.6666666666643 27.980799999999995" class="highcharts-area" data-z-index="0"></path><path fill="none" d="M 2.6666666666643 24.038399999999996 L 26.909090909089 23.8592 L 51.151515151514 21.913599999999995 L 75.393939393938 19.6096 L 99.636363636363 20.7872 L 123.87878787879 18.9184 L 148.12121212121 18.790399999999998 L 172.36363636364 18.099199999999996 L 196.60606060606 15.820799999999998 L 220.84848484849 13.977599999999995 L 245.09090909091 15.564799999999998 L 269.33333333334 15.846399999999996" class="highcharts-graph" data-z-index="1" stroke-linejoin="round" stroke-linecap="round"></path></g><g data-z-index="0.1" class="highcharts-markers highcharts-series-4 highcharts-area-series" transform="translate(46,126) scale(1 1)" clip-path="none"></g><g data-z-index="0.1" class="highcharts-series highcharts-series-5 highcharts-area-series" transform="translate(46,126) scale(1 1)" clip-path="url(#highcharts-5bd0gji-152-)"><path fill="rgb(113,163,181)" fill-opacity="0.75" d="M 2.6666666666643 27.980799999999995 L 26.909090909089 27.391999999999996 L 51.151515151514 25.830399999999997 L 75.393939393938 23.065599999999996 L 99.636363636363 23.936 L 123.87878787879 21.913599999999995 L 148.12121212121 22.092799999999997 L 172.36363636364 21.247999999999998 L 196.60606060606 18.7136 L 220.84848484849 16.7168 L 245.09090909091 18.099199999999996 L 269.33333333334 18.3808 L 269.33333333334 20.1216 L 245.09090909091 19.4816 L 220.84848484849 18.534399999999998 L 196.60606060606 19.839999999999996 L 172.36363636364 22.2464 L 148.12121212121 23.142399999999995 L 123.87878787879 22.937599999999996 L 99.636363636363 24.576 L 75.393939393938 23.936 L 51.151515151514 26.419199999999996 L 26.909090909089 27.955199999999998 L 2.6666666666643 28.364799999999995" class="highcharts-area" data-z-index="0"></path><path fill="none" d="M 2.6666666666643 27.980799999999995 L 26.909090909089 27.391999999999996 L 51.151515151514 25.830399999999997 L 75.393939393938 23.065599999999996 L 99.636363636363 23.936 L 123.87878787879 21.913599999999995 L 148.12121212121 22.092799999999997 L 172.36363636364 21.247999999999998 L 196.60606060606 18.7136 L 220.84848484849 16.7168 L 245.09090909091 18.099199999999996 L 269.33333333334 18.3808" class="highcharts-graph" data-z-index="1" stroke-linejoin="round" stroke-linecap="round"></path></g><g data-z-index="0.1" class="highcharts-markers highcharts-series-5 highcharts-area-series" transform="translate(46,126) scale(1 1)" clip-path="none"></g><g data-z-index="0.1" class="highcharts-series highcharts-series-6 highcharts-area-series" transform="translate(46,126) scale(1 1)" clip-path="url(#highcharts-5bd0gji-152-)"><path fill="rgb(180,117,171)" fill-opacity="0.75" d="M 2.6666666666643 28.364799999999995 L 26.909090909089 27.955199999999998 L 51.151515151514 26.419199999999996 L 75.393939393938 23.936 L 99.636363636363 24.576 L 123.87878787879 22.937599999999996 L 148.12121212121 23.142399999999995 L 172.36363636364 22.2464 L 196.60606060606 19.839999999999996 L 220.84848484849 18.534399999999998 L 245.09090909091 19.4816 L 269.33333333334 20.1216 L 269.33333333334 24.985599999999998 L 245.09090909091 24.627199999999995 L 220.84848484849 23.6032 L 196.60606060606 24.857599999999998 L 172.36363636364 26.931199999999997 L 148.12121212121 27.699199999999998 L 123.87878787879 27.0336 L 99.636363636363 28.3904 L 75.393939393938 27.9296 L 51.151515151514 29.695999999999998 L 26.909090909089 31.180799999999998 L 2.6666666666643 31.897599999999997" class="highcharts-area" data-z-index="0"></path><path fill="none" d="M 2.6666666666643 28.364799999999995 L 26.909090909089 27.955199999999998 L 51.151515151514 26.419199999999996 L 75.393939393938 23.936 L 99.636363636363 24.576 L 123.87878787879 22.937599999999996 L 148.12121212121 23.142399999999995 L 172.36363636364 22.2464 L 196.60606060606 19.839999999999996 L 220.84848484849 18.534399999999998 L 245.09090909091 19.4816 L 269.33333333334 20.1216" class="highcharts-graph" data-z-index="1" stroke-linejoin="round" stroke-linecap="round"></path></g><g data-z-index="0.1" class="highcharts-markers highcharts-series-6 highcharts-area-series" transform="translate(46,126) scale(1 1)" clip-path="none"></g><g data-z-index="0.1" class="highcharts-series highcharts-series-7 highcharts-area-series" transform="translate(46,126) scale(1 1)" clip-path="url(#highcharts-5bd0gji-152-)"><path fill="rgb(250,189,36)" fill-opacity="0.75" d="M 2.6666666666643 31.897599999999997 L 26.909090909089 31.180799999999998 L 51.151515151514 29.695999999999998 L 75.393939393938 27.9296 L 99.636363636363 28.3904 L 123.87878787879 27.0336 L 148.12121212121 27.699199999999998 L 172.36363636364 26.931199999999997 L 196.60606060606 24.857599999999998 L 220.84848484849 23.6032 L 245.09090909091 24.627199999999995 L 269.33333333334 24.985599999999998 L 269.33333333334 26.1888 L 245.09090909091 26.0096 L 220.84848484849 25.523199999999996 L 196.60606060606 26.623999999999995 L 172.36363636364 28.543999999999997 L 148.12121212121 29.567999999999998 L 123.87878787879 28.8256 L 99.636363636363 30.5664 L 75.393939393938 30.105599999999995 L 51.151515151514 31.846399999999996 L 26.909090909089 33.92 L 2.6666666666643 34.7392" class="highcharts-area" data-z-index="0"></path><path fill="none" d="M 2.6666666666643 31.897599999999997 L 26.909090909089 31.180799999999998 L 51.151515151514 29.695999999999998 L 75.393939393938 27.9296 L 99.636363636363 28.3904 L 123.87878787879 27.0336 L 148.12121212121 27.699199999999998 L 172.36363636364 26.931199999999997 L 196.60606060606 24.857599999999998 L 220.84848484849 23.6032 L 245.09090909091 24.627199999999995 L 269.33333333334 24.985599999999998" class="highcharts-graph" data-z-index="1" stroke-linejoin="round" stroke-linecap="round"></path></g><g data-z-index="0.1" class="highcharts-markers highcharts-series-7 highcharts-area-series" transform="translate(46,126) scale(1 1)" clip-path="none"></g><g data-z-index="0.1" class="highcharts-series highcharts-series-8 highcharts-area-series" transform="translate(46,126) scale(1 1)" clip-path="url(#highcharts-5bd0gji-152-)"><path fill="rgb(0,122,47)" fill-opacity="0.75" d="M 2.6666666666643 34.7392 L 26.909090909089 33.92 L 51.151515151514 31.846399999999996 L 75.393939393938 30.105599999999995 L 99.636363636363 30.5664 L 123.87878787879 28.8256 L 148.12121212121 29.567999999999998 L 172.36363636364 28.543999999999997 L 196.60606060606 26.623999999999995 L 220.84848484849 25.523199999999996 L 245.09090909091 26.0096 L 269.33333333334 26.1888 L 269.33333333334 28.108799999999995 L 245.09090909091 27.9296 L 220.84848484849 27.2384 L 196.60606060606 27.980799999999995 L 172.36363636364 30.028799999999997 L 148.12121212121 30.745599999999996 L 123.87878787879 30.464 L 99.636363636363 32 L 75.393939393938 31.206399999999995 L 51.151515151514 33.2288 L 26.909090909089 35.0976 L 2.6666666666643 36.1216" class="highcharts-area" data-z-index="0"></path><path fill="none" d="M 2.6666666666643 34.7392 L 26.909090909089 33.92 L 51.151515151514 31.846399999999996 L 75.393939393938 30.105599999999995 L 99.636363636363 30.5664 L 123.87878787879 28.8256 L 148.12121212121 29.567999999999998 L 172.36363636364 28.543999999999997 L 196.60606060606 26.623999999999995 L 220.84848484849 25.523199999999996 L 245.09090909091 26.0096 L 269.33333333334 26.1888" class="highcharts-graph" data-z-index="1" stroke-linejoin="round" stroke-linecap="round"></path></g><g data-z-index="0.1" class="highcharts-markers highcharts-series-8 highcharts-area-series" transform="translate(46,126) scale(1 1)" clip-path="none"></g><g data-z-index="0.1" class="highcharts-series highcharts-series-9 highcharts-area-series" transform="translate(46,126) scale(1 1)" clip-path="url(#highcharts-5bd0gji-152-)"><path fill="rgb(103,39,115)" fill-opacity="0.75" d="M 2.6666666666643 36.1216 L 26.909090909089 35.0976 L 51.151515151514 33.2288 L 75.393939393938 31.206399999999995 L 99.636363636363 32 L 123.87878787879 30.464 L 148.12121212121 30.745599999999996 L 172.36363636364 30.028799999999997 L 196.60606060606 27.980799999999995 L 220.84848484849 27.2384 L 245.09090909091 27.9296 L 269.33333333334 28.108799999999995 L 269.33333333334 33.587199999999996 L 245.09090909091 33.075199999999995 L 220.84848484849 33.1008 L 196.60606060606 32.998400000000004 L 172.36363636364 35.404799999999994 L 148.12121212121 36.1472 L 123.87878787879 35.584 L 99.636363636363 36.7104 L 75.393939393938 35.6096 L 51.151515151514 37.2224 L 26.909090909089 38.502399999999994 L 2.6666666666643 38.4256" class="highcharts-area" data-z-index="0"></path><path fill="none" d="M 2.6666666666643 36.1216 L 26.909090909089 35.0976 L 51.151515151514 33.2288 L 75.393939393938 31.206399999999995 L 99.636363636363 32 L 123.87878787879 30.464 L 148.12121212121 30.745599999999996 L 172.36363636364 30.028799999999997 L 196.60606060606 27.980799999999995 L 220.84848484849 27.2384 L 245.09090909091 27.9296 L 269.33333333334 28.108799999999995" class="highcharts-graph" data-z-index="1" stroke-linejoin="round" stroke-linecap="round"></path></g><g data-z-index="0.1" class="highcharts-markers highcharts-series-9 highcharts-area-series" transform="translate(46,126) scale(1 1)" clip-path="none"></g><g data-z-index="0.1" class="highcharts-series highcharts-series-10 highcharts-area-series" transform="translate(46,126) scale(1 1)" clip-path="url(#highcharts-5bd0gji-152-)"><path fill="rgb(176,0,0)" fill-opacity="0.75" d="M 2.6666666666643 38.4256 L 26.909090909089 38.502399999999994 L 51.151515151514 37.2224 L 75.393939393938 35.6096 L 99.636363636363 36.7104 L 123.87878787879 35.584 L 148.12121212121 36.1472 L 172.36363636364 35.404799999999994 L 196.60606060606 32.998400000000004 L 220.84848484849 33.1008 L 245.09090909091 33.075199999999995 L 269.33333333334 33.587199999999996 L 269.33333333334 64 L 245.09090909091 64 L 220.84848484849 64 L 196.60606060606 64 L 172.36363636364 64 L 148.12121212121 64 L 123.87878787879 64 L 99.636363636363 64 L 75.393939393938 64 L 51.151515151514 64 L 26.909090909089 64 L 2.6666666666643 64" class="highcharts-area" data-z-index="0"></path><path fill="none" d="M 2.6666666666643 38.4256 L 26.909090909089 38.502399999999994 L 51.151515151514 37.2224 L 75.393939393938 35.6096 L 99.636363636363 36.7104 L 123.87878787879 35.584 L 148.12121212121 36.1472 L 172.36363636364 35.404799999999994 L 196.60606060606 32.998400000000004 L 220.84848484849 33.1008 L 245.09090909091 33.075199999999995 L 269.33333333334 33.587199999999996" class="highcharts-graph" data-z-index="1" stroke-linejoin="round" stroke-linecap="round"></path></g><g data-z-index="0.1" class="highcharts-markers highcharts-series-10 highcharts-area-series" transform="translate(46,126) scale(1 1)" clip-path="none"></g></g><text x="2" text-anchor="start" class="highcharts-title" data-z-index="4" style="color:#000000;font-size:10px;font-weight:bold;fill:#000000;" y="9"><tspan>Anzahl Geborene nach Staatsangehörigkeit</tspan></text><text x="2" text-anchor="start" class="highcharts-subtitle" data-z-index="4" style="color:#000000;font-size:10px;font-weight:normal;font-family:Arial;fill:#000000;" y="25"><tspan>Basel-Stadt</tspan></text><text x="2" text-anchor="start" class="highcharts-caption" data-z-index="4" style="color:#666666;fill:#666666;" y="221"></text><g class="highcharts-legend" data-z-index="7" transform="translate(42,39)"><rect fill="none" class="highcharts-legend-box" rx="0" ry="0" x="0" y="0" width="265" height="75" visibility="visible"></rect><g data-z-index="1"><g><g class="highcharts-legend-item highcharts-area-series highcharts-color-undefined highcharts-series-10" data-z-index="1" transform="translate(1,-4)"><text x="21" style="color:#333333;cursor:pointer;font-size:10px;font-weight:normal;fill:#333333;" text-anchor="start" data-z-index="2" y="13"><tspan>Schweiz</tspan></text><rect x="3" y="4" width="10" height="10" fill="#b00000" class="highcharts-point" data-z-index="3"></rect></g><g class="highcharts-legend-item highcharts-area-series highcharts-color-undefined highcharts-series-9" data-z-index="1" transform="translate(132.828125,-4)"><text x="21" y="13" style="color:#333333;cursor:pointer;font-size:10px;font-weight:normal;fill:#333333;" text-anchor="start" data-z-index="2"><tspan>Deutschland</tspan></text><rect x="3" y="4" width="10" height="10" fill="#672773" class="highcharts-point" data-z-index="3"></rect></g><g class="highcharts-legend-item highcharts-area-series highcharts-color-undefined highcharts-series-8" data-z-index="1" transform="translate(1,9)"><text x="21" y="13" style="color:#333333;cursor:pointer;font-size:10px;font-weight:normal;fill:#333333;" text-anchor="start" data-z-index="2"><tspan>Italien</tspan></text><rect x="3" y="4" width="10" height="10" fill="#007a2f" class="highcharts-point" data-z-index="3"></rect></g><g class="highcharts-legend-item highcharts-area-series highcharts-color-undefined highcharts-series-7" data-z-index="1" transform="translate(132.828125,9)"><text x="21" y="13" style="color:#333333;cursor:pointer;font-size:10px;font-weight:normal;fill:#333333;" text-anchor="start" data-z-index="2"><tspan>Türkei</tspan></text><rect x="3" y="4" width="10" height="10" fill="#fabd24" class="highcharts-point" data-z-index="3"></rect></g><g class="highcharts-legend-item highcharts-area-series highcharts-color-undefined highcharts-series-6" data-z-index="1" transform="translate(1,22)"><text x="21" y="13" style="color:#333333;cursor:pointer;font-size:10px;font-weight:normal;fill:#333333;" text-anchor="start" data-z-index="2"><tspan>EU-17 + EFTA</tspan></text><rect x="3" y="4" width="10" height="10" fill="#b475ab" class="highcharts-point" data-z-index="3"></rect></g><g class="highcharts-legend-item highcharts-area-series highcharts-color-undefined highcharts-series-5" data-z-index="1" transform="translate(132.828125,22)"><text x="21" y="13" style="color:#333333;cursor:pointer;font-size:10px;font-weight:normal;fill:#333333;" text-anchor="start" data-z-index="2"><tspan>EU-Ost</tspan></text><rect x="3" y="4" width="10" height="10" fill="#71a3b5" class="highcharts-point" data-z-index="3"></rect></g><g class="highcharts-legend-item highcharts-area-series highcharts-color-undefined highcharts-series-4" data-z-index="1" transform="translate(1,35)"><text x="21" y="13" style="color:#333333;cursor:pointer;font-size:10px;font-weight:normal;fill:#333333;" text-anchor="start" data-z-index="2"><tspan>Balkan</tspan></text><rect x="3" y="4" width="10" height="10" fill="#b9cfd7" class="highcharts-point" data-z-index="3"></rect></g><g class="highcharts-legend-item highcharts-area-series highcharts-color-undefined highcharts-series-3" data-z-index="1" transform="translate(132.828125,35)"><text x="21" y="13" style="color:#333333;cursor:pointer;font-size:10px;font-weight:normal;fill:#333333;" text-anchor="start" data-z-index="2"><tspan>Mittel- u. Südamerika</tspan></text><rect x="3" y="4" width="10" height="10" fill="#ff8028" class="highcharts-point" data-z-index="3"></rect></g><g class="highcharts-legend-item highcharts-area-series highcharts-color-undefined highcharts-series-2" data-z-index="1" transform="translate(1,48)"><text x="21" y="13" style="color:#333333;cursor:pointer;font-size:10px;font-weight:normal;fill:#333333;" text-anchor="start" data-z-index="2"><tspan>Arabische Länder</tspan></text><rect x="3" y="4" width="10" height="10" fill="#73ba7c" class="highcharts-point" data-z-index="3"></rect></g><g class="highcharts-legend-item highcharts-area-series highcharts-color-undefined highcharts-series-1" data-z-index="1" transform="translate(132.828125,48)"><text x="21" y="13" style="color:#333333;cursor:pointer;font-size:10px;font-weight:normal;fill:#333333;" text-anchor="start" data-z-index="2"><tspan>Afrikanische Länder</tspan></text><rect x="3" y="4" width="10" height="10" fill="#9f7c5a" class="highcharts-point" data-z-index="3"></rect></g><g class="highcharts-legend-item highcharts-area-series highcharts-color-undefined highcharts-series-0" data-z-index="1" transform="translate(1,61)"><text x="21" y="13" style="color:#333333;cursor:pointer;font-size:10px;font-weight:normal;fill:#333333;" text-anchor="start" data-z-index="2"><tspan>Übrige Länder</tspan></text><rect x="3" y="4" width="10" height="10" fill="#999999" class="highcharts-point" data-z-index="3"></rect></g></g></g></g><g class="highcharts-axis-labels highcharts-xaxis-labels" data-z-index="7"><text x="48.666666666664" style="color:#000000;cursor:default;font-size:10px;white-space:nowrap;fill:#000000;" text-anchor="middle" transform="translate(0,0)" y="208" opacity="1">2007</text><text x="97.151515151514" style="color:#000000;cursor:default;font-size:10px;white-space:nowrap;fill:#000000;" text-anchor="middle" transform="translate(0,0)" y="208" opacity="1">2009</text><text x="145.63636363636" style="color:#000000;cursor:default;font-size:10px;white-space:nowrap;fill:#000000;" text-anchor="middle" transform="translate(0,0)" y="208" opacity="1">2011</text><text x="194.12121212121" style="color:#000000;cursor:default;font-size:10px;white-space:nowrap;fill:#000000;" text-anchor="middle" transform="translate(0,0)" y="208" opacity="1">2013</text><text x="242.60606060606" style="color:#000000;cursor:default;font-size:10px;white-space:nowrap;fill:#000000;" text-anchor="middle" transform="translate(0,0)" y="208" opacity="1">2015</text><text x="305.28125" style="color:#000000;cursor:default;font-size:10px;white-space:nowrap;fill:#000000;" text-anchor="middle" transform="translate(0,0)" y="208" opacity="1">2018</text></g><g class="highcharts-axis-labels highcharts-yaxis-labels" data-z-index="7"><text x="31" style="color:#000000;cursor:default;font-size:10;fill:#000000;" text-anchor="end" transform="translate(0,0)" y="193" opacity="1">0</text><text x="31" style="color:#000000;cursor:default;font-size:10;fill:#000000;" text-anchor="end" transform="translate(0,0)" y="180" opacity="1">500</text><text x="31" style="color:#000000;cursor:default;font-size:10;fill:#000000;" text-anchor="end" transform="translate(0,0)" y="167" opacity="1"><tspan>1 000</tspan></text><text x="31" style="color:#000000;cursor:default;font-size:10;fill:#000000;" text-anchor="end" transform="translate(0,0)" y="155" opacity="1"><tspan>1 500</tspan></text><text x="31" style="color:#000000;cursor:default;font-size:10;fill:#000000;" text-anchor="end" transform="translate(0,0)" y="142" opacity="1"><tspan>2 000</tspan></text><text x="31" style="color:#000000;cursor:default;font-size:10;fill:#000000;" text-anchor="end" transform="translate(0,0)" y="129" opacity="1"><tspan>2 500</tspan></text></g><text x="10" class="highcharts-credits" text-anchor="start" data-z-index="8" style="cursor:default;color:#000000;font-size:10px;fill:#000000;" y="196"><tspan>Quelle: Statistisches Amt Basel-Stadt, Bevölkerungsstatistik.</tspan><tspan x="10" dy="13">Zuletzt geändert: 2019-12-16</tspan></text><g class="highcharts-control-points" data-z-index="99" clip-path="url(#highcharts-5bd0gji-273-)"></g></svg>