<?xml version="1.0" standalone="no"?><!DOCTYPE svg PUBLIC "-//W3C//DTD SVG 1.1//EN" "http://www.w3.org/Graphics/SVG/1.1/DTD/svg11.dtd"><svg xmlns:xlink="http://www.w3.org/1999/xlink" version="1.1" class="highcharts-root" style="font-family:Arial;font-size:12px;" xmlns="http://www.w3.org/2000/svg" viewBox="0 0 485 415"><desc>Created with Highcharts 8.2.0</desc><defs><clipPath id="highcharts-cnjh6re-127-"><rect x="0" y="0" width="523" height="151" fill="none"></rect></clipPath><clipPath id="highcharts-cnjh6re-148-"><rect x="0" y="0" width="523" height="151" fill="none"></rect></clipPath><clipPath id="highcharts-cnjh6re-249-"><rect x="37" y="7" width="523" height="151" fill="none"></rect></clipPath></defs><rect fill="#fbfbfb" class="highcharts-background" x="0" y="0" width="665" height="221" rx="0" ry="0"></rect><rect fill="none" class="highcharts-plot-background" x="37" y="7" width="523" height="151"></rect><g class="highcharts-pane-group" data-z-index="0"></g><g class="highcharts-grid highcharts-xaxis-grid" data-z-index="1"><path fill="none" data-z-index="1" class="highcharts-grid-line" d="M 41.5 7 L 41.5 158" opacity="1"></path><path fill="none" data-z-index="1" class="highcharts-grid-line" d="M 68.5 7 L 68.5 158" opacity="1"></path><path fill="none" data-z-index="1" class="highcharts-grid-line" d="M 95.5 7 L 95.5 158" opacity="1"></path><path fill="none" data-z-index="1" class="highcharts-grid-line" d="M 122.5 7 L 122.5 158" opacity="1"></path><path fill="none" data-z-index="1" class="highcharts-grid-line" d="M 149.5 7 L 149.5 158" opacity="1"></path><path fill="none" data-z-index="1" class="highcharts-grid-line" d="M 176.5 7 L 176.5 158" opacity="1"></path><path fill="none" data-z-index="1" class="highcharts-grid-line" d="M 203.5 7 L 203.5 158" opacity="1"></path><path fill="none" data-z-index="1" class="highcharts-grid-line" d="M 230.5 7 L 230.5 158" opacity="1"></path><path fill="none" data-z-index="1" class="highcharts-grid-line" d="M 257.5 7 L 257.5 158" opacity="1"></path><path fill="none" data-z-index="1" class="highcharts-grid-line" d="M 284.5 7 L 284.5 158" opacity="1"></path><path fill="none" data-z-index="1" class="highcharts-grid-line" d="M 311.5 7 L 311.5 158" opacity="1"></path><path fill="none" data-z-index="1" class="highcharts-grid-line" d="M 338.5 7 L 338.5 158" opacity="1"></path><path fill="none" data-z-index="1" class="highcharts-grid-line" d="M 365.5 7 L 365.5 158" opacity="1"></path><path fill="none" data-z-index="1" class="highcharts-grid-line" d="M 392.5 7 L 392.5 158" opacity="1"></path><path fill="none" data-z-index="1" class="highcharts-grid-line" d="M 419.5 7 L 419.5 158" opacity="1"></path><path fill="none" data-z-index="1" class="highcharts-grid-line" d="M 446.5 7 L 446.5 158" opacity="1"></path><path fill="none" data-z-index="1" class="highcharts-grid-line" d="M 473.5 7 L 473.5 158" opacity="1"></path><path fill="none" data-z-index="1" class="highcharts-grid-line" d="M 500.5 7 L 500.5 158" opacity="1"></path><path fill="none" data-z-index="1" class="highcharts-grid-line" d="M 527.5 7 L 527.5 158" opacity="1"></path><path fill="none" data-z-index="1" class="highcharts-grid-line" d="M 554.5 7 L 554.5 158" opacity="1"></path></g><g class="highcharts-grid highcharts-yaxis-grid" data-z-index="1"><path fill="none" stroke="#B9CFD7" stroke-width="0.5" data-z-index="1" class="highcharts-grid-line" d="M 37 158.25 L 560 158.25" opacity="1"></path><path fill="none" stroke="#B9CFD7" stroke-width="0.5" data-z-index="1" class="highcharts-grid-line" d="M 37 133.25 L 560 133.25" opacity="1"></path><path fill="none" stroke="#B9CFD7" stroke-width="0.5" data-z-index="1" class="highcharts-grid-line" d="M 37 108.25 L 560 108.25" opacity="1"></path><path fill="none" stroke="#B9CFD7" stroke-width="0.5" data-z-index="1" class="highcharts-grid-line" d="M 37 83.25 L 560 83.25" opacity="1"></path><path fill="none" stroke="#B9CFD7" stroke-width="0.5" data-z-index="1" class="highcharts-grid-line" d="M 37 57.25 L 560 57.25" opacity="1"></path><path fill="none" stroke="#B9CFD7" stroke-width="0.5" data-z-index="1" class="highcharts-grid-line" d="M 37 32.25 L 560 32.25" opacity="1"></path><path fill="none" stroke="#B9CFD7" stroke-width="0.5" data-z-index="1" class="highcharts-grid-line" d="M 37 6.75 L 560 6.75" opacity="1"></path></g><rect fill="none" class="highcharts-plot-border" data-z-index="1" x="37" y="7" width="523" height="151"></rect><g class="highcharts-axis highcharts-xaxis" data-z-index="2"><path fill="none" class="highcharts-axis-line" stroke="#B9CFD7" stroke-width="0.5" data-z-index="7" d="M 37 158.25 L 560 158.25"></path></g><g class="highcharts-axis highcharts-yaxis" data-z-index="2"><path fill="none" class="highcharts-axis-line" data-z-index="7" d="M 37 7 L 37 158"></path></g><g class="highcharts-series-group" data-z-index="3"><g class="highcharts-series highcharts-series-0 highcharts-line-series" data-z-index="0.1" opacity="1" transform="translate(37,7) scale(1 1)" clip-path="url(#highcharts-cnjh6re-148-)"><path fill="none" d="M 5.1274509803936 76.00333333333333 L 32.114035087721 76.00333333333333 L 59.100619195048 74.49333333333334 L 86.087203302375 67.95 L 113.0737874097 64.42666666666668 L 140.06037151703 59.393333333333345 L 167.04695562436 56.87666666666668 L 194.03353973168 55.870000000000005 L 221.02012383901 53.85666666666667 L 248.00670794634 50.33333333333334 L 274.99329205366 46.30666666666667 L 301.97987616099 45.80333333333334 L 328.96646026832 39.260000000000005 L 355.95304437564 37.75 L 382.93962848297 32.213333333333324 L 409.9262125903 32.213333333333324 L 436.91279669763 28.689999999999998 L 463.89938080495 24.663333333333327 L 490.88596491228 25.16666666666667 L 517.87254901961 26.173333333333332" class="highcharts-graph" data-z-index="1" stroke="#b00000" stroke-width="2" stroke-linejoin="round" stroke-linecap="round"></path></g><g class="highcharts-markers highcharts-series-0 highcharts-line-series" data-z-index="0.1" opacity="1" transform="translate(37,7) scale(1 1)" clip-path="none"></g><g class="highcharts-series highcharts-series-1 highcharts-line-series" data-z-index="0.1" opacity="1" transform="translate(37,7) scale(1 1)" clip-path="url(#highcharts-cnjh6re-148-)"><path fill="none" d="M 5.1274509803936 63.92333333333333 L 32.114035087721 62.91666666666667 L 59.100619195048 62.91666666666667 L 86.087203302375 57.88333333333334 L 113.0737874097 59.393333333333345 L 140.06037151703 56.87666666666668 L 167.04695562436 53.35333333333334 L 194.03353973168 52.346666666666664 L 221.02012383901 50.83666666666667 L 248.00670794634 48.32000000000001 L 274.99329205366 46.30666666666667 L 301.97987616099 46.30666666666667 L 328.96646026832 42.28 L 355.95304437564 39.763333333333335 L 382.93962848297 31.710000000000008 L 409.9262125903 31.206666666666663 L 436.91279669763 27.179999999999993 L 463.89938080495 25.16666666666667 L 490.88596491228 23.656666666666666 L 517.87254901961 27.683333333333337" class="highcharts-graph" data-z-index="1" stroke="#661200" stroke-width="2" stroke-dasharray="6,2"></path></g><g class="highcharts-markers highcharts-series-1 highcharts-line-series" data-z-index="0.1" opacity="1" transform="translate(37,7) scale(1 1)" clip-path="none"></g><g class="highcharts-series highcharts-series-2 highcharts-line-series" data-z-index="0.1" opacity="1" transform="translate(37,7) scale(1 1)" clip-path="url(#highcharts-cnjh6re-148-)"><path fill="none" d="M 5.1274509803936 87.07666666666668 L 32.114035087721 88.58666666666667 L 59.100619195048 85.06333333333333 L 86.087203302375 76.50666666666666 L 113.0737874097 68.95666666666666 L 140.06037151703 61.406666666666666 L 167.04695562436 59.89666666666666 L 194.03353973168 58.89 L 221.02012383901 56.87666666666668 L 248.00670794634 51.34 L 274.99329205366 46.30666666666667 L 301.97987616099 45.3 L 328.96646026832 36.74333333333334 L 355.95304437564 36.239999999999995 L 382.93962848297 32.71666666666667 L 409.9262125903 33.22000000000001 L 436.91279669763 29.69666666666666 L 463.89938080495 24.16000000000001 L 490.88596491228 26.676666666666677 L 517.87254901961 24.663333333333327" class="highcharts-graph" data-z-index="1" stroke="#dc440e" stroke-width="2" stroke-dasharray="6,2"></path></g><g class="highcharts-markers highcharts-series-2 highcharts-line-series" data-z-index="0.1" opacity="1" transform="translate(37,7) scale(1 1)" clip-path="none"></g><g class="highcharts-series highcharts-series-3 highcharts-line-series" data-z-index="0.1" opacity="1" transform="translate(37,7) scale(1 1)" clip-path="url(#highcharts-cnjh6re-148-)"><path fill="none" d="M 5.1274509803936 131.37 L 32.114035087721 132.88 L 59.100619195048 129.86 L 86.087203302375 129.86 L 113.0737874097 130.36333333333334 L 140.06037151703 130.86666666666667 L 167.04695562436 132.37666666666667 L 194.03353973168 130.86666666666667 L 221.02012383901 131.37 L 248.00670794634 129.86 L 274.99329205366 126.84 L 301.97987616099 124.32333333333334 L 328.96646026832 126.84 L 355.95304437564 124.82666666666667 L 382.93962848297 124.82666666666667 L 409.9262125903 122.31 L 436.91279669763 117.78 L 463.89938080495 114.25666666666666 L 490.88596491228 112.74666666666667 L 517.87254901961 114.75999999999999" class="highcharts-graph" data-z-index="1" stroke="#cd9c00" stroke-width="2" stroke-linejoin="round" stroke-linecap="round"></path></g><g class="highcharts-markers highcharts-series-3 highcharts-line-series" data-z-index="0.1" opacity="1" transform="translate(37,7) scale(1 1)" clip-path="none"></g><g class="highcharts-series highcharts-series-4 highcharts-line-series" data-z-index="0.1" opacity="1" transform="translate(37,7) scale(1 1)" clip-path="url(#highcharts-cnjh6re-148-)"><path fill="none" d="M 5.1274509803936 127.84666666666666 L 32.114035087721 129.86 L 59.100619195048 125.83333333333334 L 86.087203302375 128.35 L 113.0737874097 130.36333333333334 L 140.06037151703 131.87333333333333 L 167.04695562436 133.88666666666666 L 194.03353973168 133.38333333333333 L 221.02012383901 132.37666666666667 L 248.00670794634 129.86 L 274.99329205366 127.34333333333333 L 301.97987616099 122.31 L 328.96646026832 125.83333333333334 L 355.95304437564 124.82666666666667 L 382.93962848297 123.82 L 409.9262125903 121.30333333333333 L 436.91279669763 118.78666666666666 L 463.89938080495 115.26333333333334 L 490.88596491228 113.75333333333333 L 517.87254901961 117.27666666666667" class="highcharts-graph" data-z-index="1" stroke="#7f5f1a" stroke-width="2" stroke-dasharray="6,2"></path></g><g class="highcharts-markers highcharts-series-4 highcharts-line-series" data-z-index="0.1" opacity="1" transform="translate(37,7) scale(1 1)" clip-path="none"></g><g class="highcharts-series highcharts-series-5 highcharts-line-series" data-z-index="0.1" opacity="1" transform="translate(37,7) scale(1 1)" clip-path="url(#highcharts-cnjh6re-148-)"><path fill="none" d="M 5.1274509803936 134.39 L 32.114035087721 135.39666666666668 L 59.100619195048 133.38333333333333 L 86.087203302375 130.86666666666667 L 113.0737874097 130.36333333333334 L 140.06037151703 129.35666666666668 L 167.04695562436 130.36333333333334 L 194.03353973168 128.85333333333332 L 221.02012383901 130.86666666666667 L 248.00670794634 129.35666666666668 L 274.99329205366 126.33666666666667 L 301.97987616099 126.33666666666667 L 328.96646026832 127.34333333333333 L 355.95304437564 124.82666666666667 L 382.93962848297 125.83333333333334 L 409.9262125903 123.82 L 436.91279669763 116.77333333333334 L 463.89938080495 113.25 L 490.88596491228 112.24333333333334 L 517.87254901961 112.74666666666667" class="highcharts-graph" data-z-index="1" stroke="#ffda80" stroke-width="2" stroke-dasharray="6,2"></path></g><g class="highcharts-markers highcharts-series-5 highcharts-line-series" data-z-index="0.1" opacity="1" transform="translate(37,7) scale(1 1)" clip-path="none"></g></g><text x="2" text-anchor="start" class="highcharts-title" data-z-index="4" style="color:#000000;font-size:10px;font-weight:bold;fill:#000000;" y="14"><tspan>Hochschulquote nach Staatsangehörigkeit und Geschlecht</tspan></text><text x="2" text-anchor="start" class="highcharts-subtitle" data-z-index="4" style="color:#000000;font-size:10px;font-weight:normal;font-family:Arial;fill:#000000;" y="30"><tspan>Basel-Stadt</tspan></text><text x="2" text-anchor="start" class="highcharts-caption" data-z-index="4" style="color:#666666;fill:#666666;" y="201"></text><g class="highcharts-legend" data-z-index="7" transform="translate(572,53)"><rect fill="none" class="highcharts-legend-box" rx="0" ry="0" x="0" y="0" width="91" height="91" visibility="visible"></rect><g data-z-index="1"><g><g class="highcharts-legend-item highcharts-line-series highcharts-color-undefined highcharts-series-0" data-z-index="1" transform="translate(0,-5)"><path fill="none" d="M 0 10 L 16 10" class="highcharts-graph" stroke="#b00000" stroke-width="2"></path><text x="21" style="color:#333333;cursor:pointer;font-size:10px;font-weight:normal;fill:#333333;" text-anchor="start" data-z-index="2" y="13"><tspan>Schweiz</tspan></text></g><g class="highcharts-legend-item highcharts-line-series highcharts-color-undefined highcharts-series-3" data-z-index="1" transform="translate(0,11)"><path fill="none" d="M 0 10 L 16 10" class="highcharts-graph" stroke="#cd9c00" stroke-width="2"></path><text x="21" y="13" style="color:#333333;cursor:pointer;font-size:10px;font-weight:normal;fill:#333333;" text-anchor="start" data-z-index="2"><tspan>Ausland</tspan></text></g><g class="highcharts-legend-item highcharts-line-series highcharts-color-undefined highcharts-series-1" data-z-index="1" transform="translate(0,27)"><path fill="none" d="M 0 10 L 16 10" class="highcharts-graph" stroke-dasharray="6,2" stroke="#661200" stroke-width="2"></path><text x="21" y="13" style="color:#333333;cursor:pointer;font-size:10px;font-weight:normal;fill:#333333;" text-anchor="start" data-z-index="2"><tspan>Schweizer</tspan></text></g><g class="highcharts-legend-item highcharts-line-series highcharts-color-undefined highcharts-series-4" data-z-index="1" transform="translate(0,43)"><path fill="none" d="M 0 10 L 16 10" class="highcharts-graph" stroke-dasharray="6,2" stroke="#7f5f1a" stroke-width="2"></path><text x="21" y="13" style="color:#333333;cursor:pointer;font-size:10px;font-weight:normal;fill:#333333;" text-anchor="start" data-z-index="2"><tspan>Ausländer</tspan></text></g><g class="highcharts-legend-item highcharts-line-series highcharts-color-undefined highcharts-series-2" data-z-index="1" transform="translate(0,59)"><path fill="none" d="M 0 10 L 16 10" class="highcharts-graph" stroke-dasharray="6,2" stroke="#dc440e" stroke-width="2"></path><text x="21" y="13" style="color:#333333;cursor:pointer;font-size:10px;font-weight:normal;fill:#333333;" text-anchor="start" data-z-index="2"><tspan>Schweizerinnen</tspan></text></g><g class="highcharts-legend-item highcharts-line-series highcharts-color-undefined highcharts-series-5" data-z-index="1" transform="translate(0,75)"><path fill="none" d="M 0 10 L 16 10" class="highcharts-graph" stroke-dasharray="6,2" stroke="#ffda80" stroke-width="2"></path><text x="21" y="13" style="color:#333333;cursor:pointer;font-size:10px;font-weight:normal;fill:#333333;" text-anchor="start" data-z-index="2"><tspan>Ausländerinnen</tspan></text></g></g></g></g><g class="highcharts-axis-labels highcharts-xaxis-labels" data-z-index="7"><text x="44.48447358434916" style="color:#000000;cursor:default;font-size:10px;white-space:nowrap;fill:#000000;" text-anchor="end" transform="translate(0,0) rotate(-45 44.48447358434916 173)" y="173" opacity="1">1999</text><text x="71.47105769167617" style="color:#000000;cursor:default;font-size:10px;white-space:nowrap;fill:#000000;" text-anchor="end" transform="translate(0,0) rotate(-45 71.47105769167617 173)" y="173" opacity="1">2000</text><text x="98.45764179900316" style="color:#000000;cursor:default;font-size:10px;white-space:nowrap;fill:#000000;" text-anchor="end" transform="translate(0,0) rotate(-45 98.45764179900316 173)" y="173" opacity="1">2001</text><text x="125.44422590632516" style="color:#000000;cursor:default;font-size:10px;white-space:nowrap;fill:#000000;" text-anchor="end" transform="translate(0,0) rotate(-45 125.44422590632516 173)" y="173" opacity="1">2002</text><text x="152.43081001365516" style="color:#000000;cursor:default;font-size:10px;white-space:nowrap;fill:#000000;" text-anchor="end" transform="translate(0,0) rotate(-45 152.43081001365516 173)" y="173" opacity="1">2003</text><text x="179.41739412098516" style="color:#000000;cursor:default;font-size:10px;white-space:nowrap;fill:#000000;" text-anchor="end" transform="translate(0,0) rotate(-45 179.41739412098516 173)" y="173" opacity="1">2004</text><text x="206.40397822831517" style="color:#000000;cursor:default;font-size:10px;white-space:nowrap;fill:#000000;" text-anchor="end" transform="translate(0,0) rotate(-45 206.40397822831517 173)" y="173" opacity="1">2005</text><text x="233.39056233563517" style="color:#000000;cursor:default;font-size:10px;white-space:nowrap;fill:#000000;" text-anchor="end" transform="translate(0,0) rotate(-45 233.39056233563517 173)" y="173" opacity="1">2006</text><text x="260.37714644296517" style="color:#000000;cursor:default;font-size:10px;white-space:nowrap;fill:#000000;" text-anchor="end" transform="translate(0,0) rotate(-45 260.37714644296517 173)" y="173" opacity="1">2007</text><text x="287.36373055029514" style="color:#000000;cursor:default;font-size:10px;white-space:nowrap;fill:#000000;" text-anchor="end" transform="translate(0,0) rotate(-45 287.36373055029514 173)" y="173" opacity="1">2008</text><text x="314.3503146576152" style="color:#000000;cursor:default;font-size:10px;white-space:nowrap;fill:#000000;" text-anchor="end" transform="translate(0,0) rotate(-45 314.3503146576152 173)" y="173" opacity="1">2009</text><text x="341.33689876494515" style="color:#000000;cursor:default;font-size:10px;white-space:nowrap;fill:#000000;" text-anchor="end" transform="translate(0,0) rotate(-45 341.33689876494515 173)" y="173" opacity="1">2010</text><text x="368.3234828722752" style="color:#000000;cursor:default;font-size:10px;white-space:nowrap;fill:#000000;" text-anchor="end" transform="translate(0,0) rotate(-45 368.3234828722752 173)" y="173" opacity="1">2011</text><text x="395.31006697959515" style="color:#000000;cursor:default;font-size:10px;white-space:nowrap;fill:#000000;" text-anchor="end" transform="translate(0,0) rotate(-45 395.31006697959515 173)" y="173" opacity="1">2012</text><text x="422.2966510869252" style="color:#000000;cursor:default;font-size:10px;white-space:nowrap;fill:#000000;" text-anchor="end" transform="translate(0,0) rotate(-45 422.2966510869252 173)" y="173" opacity="1">2013</text><text x="449.28323519425516" style="color:#000000;cursor:default;font-size:10px;white-space:nowrap;fill:#000000;" text-anchor="end" transform="translate(0,0) rotate(-45 449.28323519425516 173)" y="173" opacity="1">2014</text><text x="476.26981930158513" style="color:#000000;cursor:default;font-size:10px;white-space:nowrap;fill:#000000;" text-anchor="end" transform="translate(0,0) rotate(-45 476.26981930158513 173)" y="173" opacity="1">2015</text><text x="503.25640340890516" style="color:#000000;cursor:default;font-size:10px;white-space:nowrap;fill:#000000;" text-anchor="end" transform="translate(0,0) rotate(-45 503.25640340890516 173)" y="173" opacity="1">2016</text><text x="530.2429875162352" style="color:#000000;cursor:default;font-size:10px;white-space:nowrap;fill:#000000;" text-anchor="end" transform="translate(0,0) rotate(-45 530.2429875162352 173)" y="173" opacity="1">2017</text><text x="557.2295716235651" style="color:#000000;cursor:default;font-size:10px;white-space:nowrap;fill:#000000;" text-anchor="end" transform="translate(0,0) rotate(-45 557.2295716235651 173)" y="173" opacity="1">2018</text></g><g class="highcharts-axis-labels highcharts-yaxis-labels" data-z-index="7"><text x="22" style="color:#000000;cursor:default;font-size:10px;fill:#000000;" text-anchor="end" transform="translate(0,0)" y="161" opacity="1">0%</text><text x="22" style="color:#000000;cursor:default;font-size:10px;fill:#000000;" text-anchor="end" transform="translate(0,0)" y="136" opacity="1">5%</text><text x="22" style="color:#000000;cursor:default;font-size:10px;fill:#000000;" text-anchor="end" transform="translate(0,0)" y="111" opacity="1">10%</text><text x="22" style="color:#000000;cursor:default;font-size:10px;fill:#000000;" text-anchor="end" transform="translate(0,0)" y="86" opacity="1">15%</text><text x="22" style="color:#000000;cursor:default;font-size:10px;fill:#000000;" text-anchor="end" transform="translate(0,0)" y="60" opacity="1">20%</text><text x="22" style="color:#000000;cursor:default;font-size:10px;fill:#000000;" text-anchor="end" transform="translate(0,0)" y="35" opacity="1">25%</text><text x="22" style="color:#000000;cursor:default;font-size:10px;fill:#000000;" text-anchor="end" transform="translate(0,0)" y="10" opacity="1">30%</text></g><text x="10" class="highcharts-credits" text-anchor="start" data-z-index="8" style="cursor:default;color:#000000;font-size:10px;fill:#000000;" y="176"><tspan>Quelle: Bundesamt für Statistik (BFS);</tspan><tspan x="10" dy="13">Statistisches Amt Basel-Stadt, Bevölkerungsstatistik;</tspan><tspan x="10" dy="13">Statistisches Amt Basel-Stadt, Bildungsstatistik.</tspan><tspan x="10" dy="13">Zuletzt geändert: 2019-12-16</tspan></text><g class="highcharts-control-points" data-z-index="99" clip-path="url(#highcharts-cnjh6re-249-)"></g></svg>