<?xml version="1.0" standalone="no"?><!DOCTYPE svg PUBLIC "-//W3C//DTD SVG 1.1//EN" "http://www.w3.org/Graphics/SVG/1.1/DTD/svg11.dtd"><svg xmlns:xlink="http://www.w3.org/1999/xlink" version="1.1" class="highcharts-root" style="font-family:Arial;font-size:12px;" xmlns="http://www.w3.org/2000/svg" viewBox="0 0 485 415"><desc>Created with Highstock 6.1.1</desc><defs><clipPath id="highcharts-9yoi0l1-6"><rect x="0" y="0" width="241" height="167" fill="none"></rect></clipPath></defs><rect fill="#fbfbfb" class="highcharts-background" x="0" y="0" width="320" height="221" rx="0" ry="0"></rect><rect fill="none" class="highcharts-plot-background" x="2" y="42" width="241" height="167"></rect><g class="highcharts-pane-group" data-z-index="0"></g><rect fill="none" class="highcharts-plot-border" data-z-index="1" x="2" y="42" width="241" height="167"></rect><g class="highcharts-series-group" data-z-index="3"><g data-z-index="0.1" class="highcharts-series highcharts-series-0 highcharts-pie-series " transform="translate(2,42) scale(1 1)"><path fill="#B00000" d="M 120.98503001952841 10.50000152449195 A 73.5 73.5 0 0 1 193.7392679090957 73.45254039833283 L 121 84 A 0 0 0 0 0 121 84 Z" transform="translate(0,0)" stroke-linejoin="round" class="highcharts-point highcharts-color-0"></path><path fill="#FF8028" d="M 193.7497789973085 73.52528492784808 A 73.5 73.5 0 0 1 152.4259544879602 150.44290319154223 L 121 84 A 0 0 0 0 0 121 84 Z" transform="translate(0,0)" stroke-linejoin="round" class="highcharts-point highcharts-color-1"></path><path fill="#FABD24" d="M 152.35949588286655 150.47429591934372 A 73.5 73.5 0 0 1 80.21723984670467 145.14749769433567 L 121 84 A 0 0 0 0 0 121 84 Z" transform="translate(0,0)" stroke-linejoin="round" class="highcharts-point highcharts-color-2"></path><path fill="#E6E600" d="M 80.15611275057998 145.1066843672332 A 73.5 73.5 0 0 1 47.808088146379006 90.7226512040841 L 121 84 A 0 0 0 0 0 121 84 Z" transform="translate(0,0)" stroke-linejoin="round" class="highcharts-point highcharts-color-3"></path><path fill="#8AB77D" d="M 47.80140209224824 90.64945594310382 A 73.5 73.5 0 0 1 53.81048568480551 54.203705497356296 L 121 84 A 0 0 0 0 0 121 84 Z" transform="translate(0,0)" stroke-linejoin="round" class="highcharts-point highcharts-color-4"></path><path fill="#68AB2B" d="M 53.84031556909646 54.136530892385366 A 73.5 73.5 0 0 1 69.55044701430475 31.51006289228252 L 121 84 A 0 0 0 0 0 121 84 Z" transform="translate(0,0)" stroke-linejoin="round" class="highcharts-point highcharts-color-5"></path><path fill="#007A2F" d="M 69.60296266743848 31.458639592838125 A 73.5 73.5 0 0 1 91.33937913031703 16.750482755450747 L 121 84 A 0 0 0 0 0 121 84 Z" transform="translate(0,0)" stroke-linejoin="round" class="highcharts-point highcharts-color-6"></path><path fill="#A8C3CA" d="M 91.40664346666256 16.720855764280316 A 73.5 73.5 0 0 1 107.74089841886024 11.705835468822116 L 121 84 A 0 0 0 0 0 121 84 Z" transform="translate(0,0)" stroke-linejoin="round" class="highcharts-point highcharts-color-7"></path><path fill="#008AC3" d="M 107.81319920089265 11.692612516530076 A 73.5 73.5 0 0 1 116.78422493693944 10.621002728180613 L 121 84 A 0 0 0 0 0 121 84 Z" transform="translate(0,0)" stroke-linejoin="round" class="highcharts-point highcharts-color-8"></path><path fill="#3C3C3C" d="M 116.8576060298688 10.616823643315755 A 73.5 73.5 0 0 1 120.89790997455174 10.500070900532805 L 121 84 A 0 0 0 0 0 121 84 Z" transform="translate(0,0)" stroke-linejoin="round" class="highcharts-point highcharts-color-9"></path></g><g data-z-index="0.1" class="highcharts-markers highcharts-series-0 highcharts-pie-series " transform="translate(2,42) scale(1 1)"></g></g><text x="2" text-anchor="start" class="highcharts-title" data-z-index="4" style="color:#000000;font-size:10px;font-weight:bold;fill:#000000;" y="9"><tspan>Anteil Ausländer der Ländergruppe EU-Ost</tspan></text><text x="2" text-anchor="start" class="highcharts-subtitle" data-z-index="4" style="color:#000000;font-size:10px;font-weight:normal;font-family:Arial;fill:#000000;" y="26"><tspan>nach einzelnen Staatsangehörigkeiten, Basel-Stadt, 2018</tspan></text><g class="highcharts-legend" data-z-index="7" transform="translate(243,33)"><rect fill="none" class="highcharts-legend-box" rx="0" ry="0" x="0" y="0" width="75" height="145" visibility="visible"></rect><g data-z-index="1"><g><g class="highcharts-legend-item highcharts-pie-series highcharts-color-0" data-z-index="1" transform="translate(0,-5)"><text x="21" style="color:#333333;font-size:10px;font-weight:normal;cursor:pointer;fill:#333333;" text-anchor="start" data-z-index="2" y="13"><tspan>Polen</tspan></text><rect x="3" y="4" width="10" height="10" fill="#B00000" class="highcharts-point" data-z-index="3"></rect></g><g class="highcharts-legend-item highcharts-pie-series highcharts-color-1" data-z-index="1" transform="translate(0,10)"><text x="21" y="13" style="color:#333333;font-size:10px;font-weight:normal;cursor:pointer;fill:#333333;" text-anchor="start" data-z-index="2"><tspan>Ungarn</tspan></text><rect x="3" y="4" width="10" height="10" fill="#FF8028" class="highcharts-point" data-z-index="3"></rect></g><g class="highcharts-legend-item highcharts-pie-series highcharts-color-2" data-z-index="1" transform="translate(0,25)"><text x="21" y="13" style="color:#333333;font-size:10px;font-weight:normal;cursor:pointer;fill:#333333;" text-anchor="start" data-z-index="2"><tspan>Rumänien</tspan></text><rect x="3" y="4" width="10" height="10" fill="#FABD24" class="highcharts-point" data-z-index="3"></rect></g><g class="highcharts-legend-item highcharts-pie-series highcharts-color-3" data-z-index="1" transform="translate(0,40)"><text x="21" y="13" style="color:#333333;font-size:10px;font-weight:normal;cursor:pointer;fill:#333333;" text-anchor="start" data-z-index="2"><tspan>Slowakei</tspan></text><rect x="3" y="4" width="10" height="10" fill="#E6E600" class="highcharts-point" data-z-index="3"></rect></g><g class="highcharts-legend-item highcharts-pie-series highcharts-color-4" data-z-index="1" transform="translate(0,55)"><text x="21" y="13" style="color:#333333;font-size:10px;font-weight:normal;cursor:pointer;fill:#333333;" text-anchor="start" data-z-index="2"><tspan>Bulgarien</tspan></text><rect x="3" y="4" width="10" height="10" fill="#8AB77D" class="highcharts-point" data-z-index="3"></rect></g><g class="highcharts-legend-item highcharts-pie-series highcharts-color-5" data-z-index="1" transform="translate(0,70)"><text x="21" y="13" style="color:#333333;font-size:10px;font-weight:normal;cursor:pointer;fill:#333333;" text-anchor="start" data-z-index="2"><tspan>Slowenien</tspan></text><rect x="3" y="4" width="10" height="10" fill="#68AB2B" class="highcharts-point" data-z-index="3"></rect></g><g class="highcharts-legend-item highcharts-pie-series highcharts-color-6" data-z-index="1" transform="translate(0,85)"><text x="21" y="13" style="color:#333333;font-size:10px;font-weight:normal;cursor:pointer;fill:#333333;" text-anchor="start" data-z-index="2"><tspan>Tschechien</tspan></text><rect x="3" y="4" width="10" height="10" fill="#007A2F" class="highcharts-point" data-z-index="3"></rect></g><g class="highcharts-legend-item highcharts-pie-series highcharts-color-7" data-z-index="1" transform="translate(0,100)"><text x="21" y="13" style="color:#333333;font-size:10px;font-weight:normal;cursor:pointer;fill:#333333;" text-anchor="start" data-z-index="2"><tspan>Litauen</tspan></text><rect x="3" y="4" width="10" height="10" fill="#A8C3CA" class="highcharts-point" data-z-index="3"></rect></g><g class="highcharts-legend-item highcharts-pie-series highcharts-color-8" data-z-index="1" transform="translate(0,115)"><text x="21" y="13" style="color:#333333;font-size:10px;font-weight:normal;cursor:pointer;fill:#333333;" text-anchor="start" data-z-index="2"><tspan>Lettland</tspan></text><rect x="3" y="4" width="10" height="10" fill="#008AC3" class="highcharts-point" data-z-index="3"></rect></g><g class="highcharts-legend-item highcharts-pie-series highcharts-color-9" data-z-index="1" transform="translate(0,130)"><text x="21" y="13" style="color:#333333;font-size:10px;font-weight:normal;cursor:pointer;fill:#333333;" text-anchor="start" data-z-index="2"><tspan>Estland</tspan></text><rect x="3" y="4" width="10" height="10" fill="#3C3C3C" class="highcharts-point" data-z-index="3"></rect></g></g></g></g><text x="10" class="highcharts-credits" text-anchor="start" data-z-index="8" style="cursor:default;color:#000000;font-size:10px;fill:#000000;" y="196"><tspan>Quelle: Statistisches Amt Basel-Stadt, Bevölkerungsstatistik.</tspan><tspan x="10" dy="13">Zuletzt geändert: 2019-9-13</tspan></text></svg>