<?xml version="1.0" standalone="no"?><!DOCTYPE svg PUBLIC "-//W3C//DTD SVG 1.1//EN" "http://www.w3.org/Graphics/SVG/1.1/DTD/svg11.dtd"><svg xmlns:xlink="http://www.w3.org/1999/xlink" version="1.1" class="highcharts-root" style="font-family:Arial;font-size:12px;" xmlns="http://www.w3.org/2000/svg" viewBox="0 0 485 415"><desc>Created with Highstock 6.1.1</desc><defs><clipPath id="highcharts-w2x730w-6"><rect x="0" y="0" width="125" height="164" fill="none"></rect></clipPath><clipPath id="highcharts-w2x730w-7"><rect x="0" y="0" width="125" height="164" fill="none"></rect></clipPath></defs><rect fill="#fbfbfb" class="highcharts-background" x="0" y="0" width="320" height="221" rx="0" ry="0"></rect><rect fill="none" class="highcharts-plot-background" x="150" y="66" width="164" height="125"></rect><g class="highcharts-pane-group" data-z-index="0"></g><g class="highcharts-grid highcharts-xaxis-grid " data-z-index="1"><path fill="none" data-z-index="1" class="highcharts-grid-line" d="M 150 82.5 L 314 82.5" opacity="1"></path><path fill="none" data-z-index="1" class="highcharts-grid-line" d="M 150 97.5 L 314 97.5" opacity="1"></path><path fill="none" data-z-index="1" class="highcharts-grid-line" d="M 150 113.5 L 314 113.5" opacity="1"></path><path fill="none" data-z-index="1" class="highcharts-grid-line" d="M 150 129.5 L 314 129.5" opacity="1"></path><path fill="none" data-z-index="1" class="highcharts-grid-line" d="M 150 144.5 L 314 144.5" opacity="1"></path><path fill="none" data-z-index="1" class="highcharts-grid-line" d="M 150 160.5 L 314 160.5" opacity="1"></path><path fill="none" data-z-index="1" class="highcharts-grid-line" d="M 150 175.5 L 314 175.5" opacity="1"></path><path fill="none" data-z-index="1" class="highcharts-grid-line" d="M 150 191.5 L 314 191.5" opacity="1"></path><path fill="none" data-z-index="1" class="highcharts-grid-line" d="M 150 66.5 L 314 66.5" opacity="1"></path></g><g class="highcharts-grid highcharts-yaxis-grid " data-z-index="1"><path fill="none" stroke="#B9CFD7" stroke-width="0.5" data-z-index="1" class="highcharts-grid-line" d="M 149.75 66 L 149.75 191" opacity="1"></path><path fill="none" stroke="#B9CFD7" stroke-width="0.5" data-z-index="1" class="highcharts-grid-line" d="M 182.75 66 L 182.75 191" opacity="1"></path><path fill="none" stroke="#B9CFD7" stroke-width="0.5" data-z-index="1" class="highcharts-grid-line" d="M 215.75 66 L 215.75 191" opacity="1"></path><path fill="none" stroke="#B9CFD7" stroke-width="0.5" data-z-index="1" class="highcharts-grid-line" d="M 247.75 66 L 247.75 191" opacity="1"></path><path fill="none" stroke="#B9CFD7" stroke-width="0.5" data-z-index="1" class="highcharts-grid-line" d="M 280.75 66 L 280.75 191" opacity="1"></path><path fill="none" stroke="#B9CFD7" stroke-width="0.5" data-z-index="1" class="highcharts-grid-line" d="M 314.25 66 L 314.25 191" opacity="1"></path></g><rect fill="none" class="highcharts-plot-border" data-z-index="1" x="150" y="66" width="164" height="125"></rect><g class="highcharts-axis highcharts-xaxis " data-z-index="2"><path fill="none" class="highcharts-axis-line" stroke="#B9CFD7" stroke-width="0.5" data-z-index="7" d="M 149.75 66 L 149.75 191"></path></g><g class="highcharts-axis highcharts-yaxis " data-z-index="2"><path fill="none" class="highcharts-axis-line" data-z-index="7" d="M 150 191 L 314 191"></path></g><g class="highcharts-series-group" data-z-index="3"><g data-z-index="0.1" class="highcharts-series highcharts-series-0 highcharts-column-series " transform="translate(314,191) rotate(90) scale(-1,1) scale(1 1)" clip-path="url(#highcharts-w2x730w-7)"><rect x="113" y="0" width="8" height="132" fill="#FABD24" class="highcharts-point"></rect><rect x="98" y="0" width="8" height="117" fill="#FABD24" class="highcharts-point"></rect><rect x="82" y="0" width="8" height="103" fill="#FABD24" class="highcharts-point"></rect><rect x="67" y="0" width="8" height="96" fill="#FABD24" class="highcharts-point"></rect><rect x="51" y="0" width="8" height="88" fill="#FABD24" class="highcharts-point"></rect><rect x="35" y="0" width="8" height="83" fill="#FABD24" class="highcharts-point"></rect><rect x="20" y="0" width="8" height="67" fill="#FABD24" class="highcharts-point"></rect><rect x="4" y="0" width="8" height="67" fill="#FABD24" class="highcharts-point"></rect></g><g data-z-index="0.1" class="highcharts-markers highcharts-series-0 highcharts-column-series " transform="translate(314,191) rotate(90) scale(-1,1) scale(1 1)" clip-path="none"></g><g data-z-index="0.1" class="highcharts-series highcharts-series-1 highcharts-column-series " transform="translate(314,191) rotate(90) scale(-1,1) scale(1 1)" clip-path="url(#highcharts-w2x730w-7)"><rect x="113" y="132" width="8" height="33" fill="#B00000" class="highcharts-point"></rect><rect x="98" y="117" width="8" height="48" fill="#B00000" class="highcharts-point"></rect><rect x="82" y="103" width="8" height="62" fill="#B00000" class="highcharts-point"></rect><rect x="67" y="96" width="8" height="69" fill="#B00000" class="highcharts-point"></rect><rect x="51" y="88" width="8" height="77" fill="#B00000" class="highcharts-point"></rect><rect x="35" y="83" width="8" height="82" fill="#B00000" class="highcharts-point"></rect><rect x="20" y="67" width="8" height="98" fill="#B00000" class="highcharts-point"></rect><rect x="4" y="67" width="8" height="98" fill="#B00000" class="highcharts-point"></rect></g><g data-z-index="0.1" class="highcharts-markers highcharts-series-1 highcharts-column-series " transform="translate(314,191) rotate(90) scale(-1,1) scale(1 1)" clip-path="none"></g></g><text x="2" text-anchor="start" class="highcharts-title" data-z-index="4" style="color:#000000;font-size:10px;font-weight:bold;fill:#000000;" y="9"><tspan>Anteil Arbeitslose in ausgewählten Berufsgruppen</tspan></text><text x="2" text-anchor="start" class="highcharts-subtitle" data-z-index="4" style="color:#000000;font-size:10px;font-weight:normal;font-family:Arial;fill:#000000;" y="26"><tspan>nach Staatsangehörigkeit, Basel-Stadt, 2018</tspan></text><g class="highcharts-legend" data-z-index="7" transform="translate(146,42)"><rect fill="none" class="highcharts-legend-box" rx="0" ry="0" x="0" y="0" width="141" height="12" visibility="visible"></rect><g data-z-index="1"><g><g class="highcharts-legend-item highcharts-column-series highcharts-color-undefined highcharts-series-1" data-z-index="1" transform="translate(1,-4)"><text x="21" style="color:#333333;font-size:10px;font-weight:normal;cursor:pointer;fill:#333333;" text-anchor="start" data-z-index="2" y="13"><tspan>Schweiz</tspan></text><rect x="3" y="4" width="10" height="10" fill="#B00000" class="highcharts-point" data-z-index="3"></rect></g><g class="highcharts-legend-item highcharts-column-series highcharts-color-undefined highcharts-series-0" data-z-index="1" transform="translate(81,-4)"><text x="21" y="13" style="color:#333333;font-size:10px;font-weight:normal;cursor:pointer;fill:#333333;" text-anchor="start" data-z-index="2"><tspan>Ausland</tspan></text><rect x="3" y="4" width="10" height="10" fill="#FABD24" class="highcharts-point" data-z-index="3"></rect></g></g></g></g><g class="highcharts-axis-labels highcharts-xaxis-labels " data-z-index="7"><text x="135" style="color:#000000;cursor:default;font-size:10px;fill:#000000;" text-anchor="end" transform="translate(0,0)" y="77" opacity="1"><tspan>Bau- und Ausbaugewerbe</tspan></text><text x="135" style="color:#000000;cursor:default;font-size:10px;fill:#000000;" text-anchor="end" transform="translate(0,0)" y="92" opacity="1"><tspan>Gastgewerbe, pers. DL</tspan></text><text x="135" style="color:#000000;cursor:default;font-size:10px;fill:#000000;" text-anchor="end" transform="translate(0,0)" y="108" opacity="1"><tspan>Land- und Forstwirtschaft</tspan></text><text x="135" style="color:#000000;cursor:default;font-size:10px;fill:#000000;" text-anchor="end" transform="translate(0,0)" y="124" opacity="1"><tspan>Technische Berufe,</tspan><tspan dy="13" x="135">Informatik</tspan></text><text x="135" style="color:#000000;cursor:default;font-size:10px;fill:#000000;" text-anchor="end" transform="translate(0,0)" y="139" opacity="1"><tspan>Industrie und Gewerbe</tspan></text><text x="135" style="color:#000000;cursor:default;font-size:10px;fill:#000000;" text-anchor="end" transform="translate(0,0)" y="155" opacity="1"><tspan>Handels- und Verkehrsberufe</tspan></text><text x="135" style="color:#000000;cursor:default;font-size:10px;fill:#000000;" text-anchor="end" transform="translate(0,0)" y="171" opacity="1"><tspan>Gesundheit, Lehre, Kultur</tspan></text><text x="135" style="color:#000000;cursor:default;font-size:10px;fill:#000000;" text-anchor="end" transform="translate(0,0)" y="186" opacity="1"><tspan>Banken, Versicherungen o.ä.</tspan></text></g><g class="highcharts-axis-labels highcharts-yaxis-labels " data-z-index="7"><text x="150" style="color:#000000;cursor:default;font-size:10px;fill:#000000;" text-anchor="middle" transform="translate(0,0)" y="206" opacity="1">0%</text><text x="182.8" style="color:#000000;cursor:default;font-size:10px;fill:#000000;" text-anchor="middle" transform="translate(0,0)" y="206" opacity="1">20%</text><text x="215.6" style="color:#000000;cursor:default;font-size:10px;fill:#000000;" text-anchor="middle" transform="translate(0,0)" y="206" opacity="1">40%</text><text x="248.4" style="color:#000000;cursor:default;font-size:10px;fill:#000000;" text-anchor="middle" transform="translate(0,0)" y="206" opacity="1">60%</text><text x="281.2" style="color:#000000;cursor:default;font-size:10px;fill:#000000;" text-anchor="middle" transform="translate(0,0)" y="206" opacity="1">80%</text><text x="307.8" style="color:#000000;cursor:default;font-size:10px;fill:#000000;" text-anchor="middle" transform="translate(0,0)" y="206" opacity="1"><tspan>100%</tspan></text></g><text x="10" class="highcharts-credits" text-anchor="start" data-z-index="8" style="cursor:default;color:#000000;font-size:10;fill:#000000;" y="196"><tspan>Quelle: Staatssekretariat für Wirtschaft SECO, Arbeitslosenstatistik.</tspan><tspan x="10" dy="15">Zuletzt geändert: 2019-9-13</tspan></text></svg>