<?xml version="1.0" standalone="no"?><!DOCTYPE svg PUBLIC "-//W3C//DTD SVG 1.1//EN" "http://www.w3.org/Graphics/SVG/1.1/DTD/svg11.dtd"><svg xmlns:xlink="http://www.w3.org/1999/xlink" version="1.1" class="highcharts-root" style="font-family:Arial;font-size:12px;" xmlns="http://www.w3.org/2000/svg" viewBox="0 0 485 415"><desc>Created with Highcharts 8.0.4</desc><defs><clipPath id="highcharts-6huy4b8-46-"><rect x="0" y="0" width="272" height="90" fill="none"></rect></clipPath><clipPath id="highcharts-6huy4b8-52-"><rect x="0" y="0" width="272" height="90" fill="none"></rect></clipPath></defs><rect fill="#fbfbfb" class="highcharts-background" x="0" y="0" width="320" height="221" rx="0" ry="0"></rect><rect fill="none" class="highcharts-plot-background" x="46" y="100" width="272" height="90"></rect><g class="highcharts-pane-group" data-z-index="0"></g><g class="highcharts-grid highcharts-xaxis-grid" data-z-index="1"><path fill="none" data-z-index="1" class="highcharts-grid-line" d="M 99.5 100 L 99.5 190" opacity="1"></path><path fill="none" data-z-index="1" class="highcharts-grid-line" d="M 154.5 100 L 154.5 190" opacity="1"></path><path fill="none" data-z-index="1" class="highcharts-grid-line" d="M 208.5 100 L 208.5 190" opacity="1"></path><path fill="none" data-z-index="1" class="highcharts-grid-line" d="M 263.5 100 L 263.5 190" opacity="1"></path><path fill="none" data-z-index="1" class="highcharts-grid-line" d="M 317.5 100 L 317.5 190" opacity="1"></path><path fill="none" data-z-index="1" class="highcharts-grid-line" d="M 45.5 100 L 45.5 190" opacity="1"></path></g><g class="highcharts-grid highcharts-yaxis-grid" data-z-index="1"><path fill="none" stroke="#B9CFD7" stroke-width="0.5" data-z-index="1" class="highcharts-grid-line" d="M 46 190.25 L 318 190.25" opacity="1"></path><path fill="none" stroke="#B9CFD7" stroke-width="0.5" data-z-index="1" class="highcharts-grid-line" d="M 46 168.25 L 318 168.25" opacity="1"></path><path fill="none" stroke="#B9CFD7" stroke-width="0.5" data-z-index="1" class="highcharts-grid-line" d="M 46 145.25 L 318 145.25" opacity="1"></path><path fill="none" stroke="#B9CFD7" stroke-width="0.5" data-z-index="1" class="highcharts-grid-line" d="M 46 123.25 L 318 123.25" opacity="1"></path><path fill="none" stroke="#B9CFD7" stroke-width="0.5" data-z-index="1" class="highcharts-grid-line" d="M 46 99.75 L 318 99.75" opacity="1"></path></g><rect fill="none" class="highcharts-plot-border" data-z-index="1" x="46" y="100" width="272" height="90"></rect><g class="highcharts-axis highcharts-xaxis" data-z-index="2"><path fill="none" class="highcharts-axis-line" stroke="#B9CFD7" stroke-width="0.5" data-z-index="7" d="M 46 190.25 L 318 190.25"></path></g><g class="highcharts-axis highcharts-yaxis" data-z-index="2"><path fill="none" class="highcharts-axis-line" data-z-index="7" d="M 46 100 L 46 190"></path></g><g class="highcharts-series-group" data-z-index="3"><g data-z-index="0.1" class="highcharts-series highcharts-series-0 highcharts-column-series" transform="translate(46,100) scale(1 1)" clip-path="url(#highcharts-6huy4b8-52-)"><rect x="5" y="50" width="11" height="41" fill="#661200" opacity="1" class="highcharts-point"></rect><rect x="60" y="14" width="11" height="77" fill="#661200" opacity="1" class="highcharts-point"></rect><rect x="114" y="13" width="11" height="78" fill="#661200" opacity="1" class="highcharts-point"></rect><rect x="169" y="15" width="11" height="76" fill="#661200" opacity="1" class="highcharts-point"></rect><rect x="223" y="28" width="11" height="63" fill="#661200" opacity="1" class="highcharts-point"></rect></g><g data-z-index="0.1" class="highcharts-markers highcharts-series-0 highcharts-column-series" transform="translate(46,100) scale(1 1)" clip-path="none"></g><g data-z-index="0.1" class="highcharts-series highcharts-series-1 highcharts-errorbar-series" transform="translate(46,100) scale(1 1)" clip-path="url(#highcharts-6huy4b8-52-)"><g class="highcharts-point"><path fill="none" class="highcharts-boxplot-stem" stroke="#000000" stroke-width="1" d="M 11.5 52 L 11.5 46 M 11.5 52 L 11.5 52"></path><path fill="none" class="highcharts-boxplot-whisker" stroke="#000000" stroke-width="1" d="M 8.5 46.5 L 14.5 46.5 M 8.5 52.5 L 14.5 52.5"></path><path fill="none" class="highcharts-boxplot-median" stroke="#000000" stroke-width="2" d="M 0 0"></path></g><g class="highcharts-point"><path fill="none" class="highcharts-boxplot-stem" stroke="#000000" stroke-width="1" d="M 66.5 14 L 66.5 10 M 66.5 14 L 66.5 14"></path><path fill="none" class="highcharts-boxplot-whisker" stroke="#000000" stroke-width="1" d="M 63.5 10.5 L 69.5 10.5 M 63.5 14.5 L 69.5 14.5"></path><path fill="none" class="highcharts-boxplot-median" stroke="#000000" stroke-width="2" d="M 0 0"></path></g><g class="highcharts-point"><path fill="none" class="highcharts-boxplot-stem" stroke="#000000" stroke-width="1" d="M 120.5 14 L 120.5 10 M 120.5 14 L 120.5 14"></path><path fill="none" class="highcharts-boxplot-whisker" stroke="#000000" stroke-width="1" d="M 117.5 10.5 L 123.5 10.5 M 117.5 14.5 L 123.5 14.5"></path><path fill="none" class="highcharts-boxplot-median" stroke="#000000" stroke-width="2" d="M 0 0"></path></g><g class="highcharts-point"><path fill="none" class="highcharts-boxplot-stem" stroke="#000000" stroke-width="1" d="M 175.5 15 L 175.5 12 M 175.5 15 L 175.5 15"></path><path fill="none" class="highcharts-boxplot-whisker" stroke="#000000" stroke-width="1" d="M 172.5 12.5 L 178.5 12.5 M 172.5 15.5 L 178.5 15.5"></path><path fill="none" class="highcharts-boxplot-median" stroke="#000000" stroke-width="2" d="M 0 0"></path></g><g class="highcharts-point"><path fill="none" class="highcharts-boxplot-stem" stroke="#000000" stroke-width="1" d="M 229.5 28 L 229.5 24 M 229.5 28 L 229.5 28"></path><path fill="none" class="highcharts-boxplot-whisker" stroke="#000000" stroke-width="1" d="M 226.5 24.5 L 232.5 24.5 M 226.5 28.5 L 232.5 28.5"></path><path fill="none" class="highcharts-boxplot-median" stroke="#000000" stroke-width="2" d="M 0 0"></path></g></g><g data-z-index="0.1" class="highcharts-markers highcharts-series-1 highcharts-errorbar-series" transform="translate(46,100) scale(1 1)" clip-path="none"></g><g data-z-index="0.1" class="highcharts-series highcharts-series-2 highcharts-column-series" transform="translate(46,100) scale(1 1)" clip-path="url(#highcharts-6huy4b8-52-)"><rect x="16" y="45" width="11" height="46" fill="#dc440e" opacity="1" class="highcharts-point"></rect><rect x="71" y="16" width="11" height="75" fill="#dc440e" opacity="1" class="highcharts-point"></rect><rect x="125" y="15" width="11" height="76" fill="#dc440e" opacity="1" class="highcharts-point"></rect><rect x="180" y="17" width="10" height="74" fill="#dc440e" opacity="1" class="highcharts-point"></rect><rect x="234" y="35" width="11" height="56" fill="#dc440e" opacity="1" class="highcharts-point"></rect></g><g data-z-index="0.1" class="highcharts-markers highcharts-series-2 highcharts-column-series" transform="translate(46,100) scale(1 1)" clip-path="none"></g><g data-z-index="0.1" class="highcharts-series highcharts-series-3 highcharts-errorbar-series" transform="translate(46,100) scale(1 1)" clip-path="url(#highcharts-6huy4b8-52-)"><g class="highcharts-point"><path fill="none" class="highcharts-boxplot-stem" stroke="#000000" stroke-width="1" d="M 22.5 47 L 22.5 41 M 22.5 47 L 22.5 47"></path><path fill="none" class="highcharts-boxplot-whisker" stroke="#000000" stroke-width="1" d="M 19.5 41.5 L 25.5 41.5 M 19.5 47.5 L 25.5 47.5"></path><path fill="none" class="highcharts-boxplot-median" stroke="#000000" stroke-width="2" d="M 0 0"></path></g><g class="highcharts-point"><path fill="none" class="highcharts-boxplot-stem" stroke="#000000" stroke-width="1" d="M 77.5 16 L 77.5 12 M 77.5 16 L 77.5 16"></path><path fill="none" class="highcharts-boxplot-whisker" stroke="#000000" stroke-width="1" d="M 74.5 12.5 L 80.5 12.5 M 74.5 16.5 L 80.5 16.5"></path><path fill="none" class="highcharts-boxplot-median" stroke="#000000" stroke-width="2" d="M 0 0"></path></g><g class="highcharts-point"><path fill="none" class="highcharts-boxplot-stem" stroke="#000000" stroke-width="1" d="M 131.5 15 L 131.5 11 M 131.5 15 L 131.5 15"></path><path fill="none" class="highcharts-boxplot-whisker" stroke="#000000" stroke-width="1" d="M 128.5 11.5 L 134.5 11.5 M 128.5 15.5 L 134.5 15.5"></path><path fill="none" class="highcharts-boxplot-median" stroke="#000000" stroke-width="2" d="M 0 0"></path></g><g class="highcharts-point"><path fill="none" class="highcharts-boxplot-stem" stroke="#000000" stroke-width="1" d="M 185.5 17 L 185.5 14 M 185.5 17 L 185.5 17"></path><path fill="none" class="highcharts-boxplot-whisker" stroke="#000000" stroke-width="1" d="M 183 14.5 L 188 14.5 M 183 17.5 L 188 17.5"></path><path fill="none" class="highcharts-boxplot-median" stroke="#000000" stroke-width="2" d="M 0 0"></path></g><g class="highcharts-point"><path fill="none" class="highcharts-boxplot-stem" stroke="#000000" stroke-width="1" d="M 240.5 35 L 240.5 31 M 240.5 35 L 240.5 35"></path><path fill="none" class="highcharts-boxplot-whisker" stroke="#000000" stroke-width="1" d="M 237.5 31.5 L 243.5 31.5 M 237.5 35.5 L 243.5 35.5"></path><path fill="none" class="highcharts-boxplot-median" stroke="#000000" stroke-width="2" d="M 0 0"></path></g></g><g data-z-index="0.1" class="highcharts-markers highcharts-series-3 highcharts-errorbar-series" transform="translate(46,100) scale(1 1)" clip-path="none"></g><g data-z-index="0.1" class="highcharts-series highcharts-series-4 highcharts-column-series" transform="translate(46,100) scale(1 1)" clip-path="url(#highcharts-6huy4b8-52-)"><rect x="27" y="48" width="11" height="43" fill="#7f5f1a" opacity="1" class="highcharts-point"></rect><rect x="82" y="15" width="10" height="76" fill="#7f5f1a" opacity="1" class="highcharts-point"></rect><rect x="136" y="14" width="11" height="77" fill="#7f5f1a" opacity="1" class="highcharts-point"></rect><rect x="190" y="18" width="11" height="73" fill="#7f5f1a" opacity="1" class="highcharts-point"></rect><rect x="245" y="40" width="11" height="51" fill="#7f5f1a" opacity="1" class="highcharts-point"></rect></g><g data-z-index="0.1" class="highcharts-markers highcharts-series-4 highcharts-column-series" transform="translate(46,100) scale(1 1)" clip-path="none"></g><g data-z-index="0.1" class="highcharts-series highcharts-series-5 highcharts-errorbar-series" transform="translate(46,100) scale(1 1)" clip-path="url(#highcharts-6huy4b8-52-)"><g class="highcharts-point"><path fill="none" class="highcharts-boxplot-stem" stroke="#000000" stroke-width="1" d="M 33.5 52 L 33.5 42 M 33.5 52 L 33.5 52"></path><path fill="none" class="highcharts-boxplot-whisker" stroke="#000000" stroke-width="1" d="M 30.5 42.5 L 36.5 42.5 M 30.5 52.5 L 36.5 52.5"></path><path fill="none" class="highcharts-boxplot-median" stroke="#000000" stroke-width="2" d="M 0 0"></path></g><g class="highcharts-point"><path fill="none" class="highcharts-boxplot-stem" stroke="#000000" stroke-width="1" d="M 87.5 15 L 87.5 11 M 87.5 15 L 87.5 15"></path><path fill="none" class="highcharts-boxplot-whisker" stroke="#000000" stroke-width="1" d="M 85 11.5 L 90 11.5 M 85 15.5 L 90 15.5"></path><path fill="none" class="highcharts-boxplot-median" stroke="#000000" stroke-width="2" d="M 0 0"></path></g><g class="highcharts-point"><path fill="none" class="highcharts-boxplot-stem" stroke="#000000" stroke-width="1" d="M 142.5 15 L 142.5 11 M 142.5 15 L 142.5 15"></path><path fill="none" class="highcharts-boxplot-whisker" stroke="#000000" stroke-width="1" d="M 139.5 11.5 L 145.5 11.5 M 139.5 15.5 L 145.5 15.5"></path><path fill="none" class="highcharts-boxplot-median" stroke="#000000" stroke-width="2" d="M 0 0"></path></g><g class="highcharts-point"><path fill="none" class="highcharts-boxplot-stem" stroke="#000000" stroke-width="1" d="M 196.5 18 L 196.5 14 M 196.5 18 L 196.5 18"></path><path fill="none" class="highcharts-boxplot-whisker" stroke="#000000" stroke-width="1" d="M 193.5 14.5 L 199.5 14.5 M 193.5 18.5 L 199.5 18.5"></path><path fill="none" class="highcharts-boxplot-median" stroke="#000000" stroke-width="2" d="M 0 0"></path></g><g class="highcharts-point"><path fill="none" class="highcharts-boxplot-stem" stroke="#000000" stroke-width="1" d="M 251.5 42 L 251.5 35 M 251.5 42 L 251.5 42"></path><path fill="none" class="highcharts-boxplot-whisker" stroke="#000000" stroke-width="1" d="M 248.5 35.5 L 254.5 35.5 M 248.5 42.5 L 254.5 42.5"></path><path fill="none" class="highcharts-boxplot-median" stroke="#000000" stroke-width="2" d="M 0 0"></path></g></g><g data-z-index="0.1" class="highcharts-markers highcharts-series-5 highcharts-errorbar-series" transform="translate(46,100) scale(1 1)" clip-path="none"></g><g data-z-index="0.1" class="highcharts-series highcharts-series-6 highcharts-column-series" transform="translate(46,100) scale(1 1)" clip-path="url(#highcharts-6huy4b8-52-)"><rect x="38" y="54" width="11" height="37" fill="#ffda80" opacity="1" class="highcharts-point"></rect><rect x="92" y="24" width="11" height="67" fill="#ffda80" opacity="1" class="highcharts-point"></rect><rect x="147" y="24" width="11" height="67" fill="#ffda80" opacity="1" class="highcharts-point"></rect><rect x="201" y="29" width="11" height="62" fill="#ffda80" opacity="1" class="highcharts-point"></rect><rect x="256" y="47" width="11" height="44" fill="#ffda80" opacity="1" class="highcharts-point"></rect></g><g data-z-index="0.1" class="highcharts-markers highcharts-series-6 highcharts-column-series" transform="translate(46,100) scale(1 1)" clip-path="none"></g><g data-z-index="0.1" class="highcharts-series highcharts-series-7 highcharts-errorbar-series" transform="translate(46,100) scale(1 1)" clip-path="url(#highcharts-6huy4b8-52-)"><g class="highcharts-point"><path fill="none" class="highcharts-boxplot-stem" stroke="#000000" stroke-width="1" d="M 44.5 57 L 44.5 47 M 44.5 57 L 44.5 57"></path><path fill="none" class="highcharts-boxplot-whisker" stroke="#000000" stroke-width="1" d="M 41.5 47.5 L 47.5 47.5 M 41.5 57.5 L 47.5 57.5"></path><path fill="none" class="highcharts-boxplot-median" stroke="#000000" stroke-width="2" d="M 0 0"></path></g><g class="highcharts-point"><path fill="none" class="highcharts-boxplot-stem" stroke="#000000" stroke-width="1" d="M 98.5 25 L 98.5 20 M 98.5 25 L 98.5 25"></path><path fill="none" class="highcharts-boxplot-whisker" stroke="#000000" stroke-width="1" d="M 95.5 20.5 L 101.5 20.5 M 95.5 25.5 L 101.5 25.5"></path><path fill="none" class="highcharts-boxplot-median" stroke="#000000" stroke-width="2" d="M 0 0"></path></g><g class="highcharts-point"><path fill="none" class="highcharts-boxplot-stem" stroke="#000000" stroke-width="1" d="M 153.5 25 L 153.5 20 M 153.5 25 L 153.5 25"></path><path fill="none" class="highcharts-boxplot-whisker" stroke="#000000" stroke-width="1" d="M 150.5 20.5 L 156.5 20.5 M 150.5 25.5 L 156.5 25.5"></path><path fill="none" class="highcharts-boxplot-median" stroke="#000000" stroke-width="2" d="M 0 0"></path></g><g class="highcharts-point"><path fill="none" class="highcharts-boxplot-stem" stroke="#000000" stroke-width="1" d="M 207.5 30 L 207.5 24 M 207.5 30 L 207.5 30"></path><path fill="none" class="highcharts-boxplot-whisker" stroke="#000000" stroke-width="1" d="M 204.5 24.5 L 210.5 24.5 M 204.5 30.5 L 210.5 30.5"></path><path fill="none" class="highcharts-boxplot-median" stroke="#000000" stroke-width="2" d="M 0 0"></path></g><g class="highcharts-point"><path fill="none" class="highcharts-boxplot-stem" stroke="#000000" stroke-width="1" d="M 262.5 50 L 262.5 41 M 262.5 50 L 262.5 50"></path><path fill="none" class="highcharts-boxplot-whisker" stroke="#000000" stroke-width="1" d="M 259.5 41.5 L 265.5 41.5 M 259.5 50.5 L 265.5 50.5"></path><path fill="none" class="highcharts-boxplot-median" stroke="#000000" stroke-width="2" d="M 0 0"></path></g></g><g data-z-index="0.1" class="highcharts-markers highcharts-series-7 highcharts-errorbar-series" transform="translate(46,100) scale(1 1)" clip-path="none"></g></g><text x="2" text-anchor="start" class="highcharts-title" data-z-index="4" style="color:#000000;font-size:10px;font-weight:bold;fill:#000000;" y="9"><tspan>Erwerbstätigenquote</tspan></text><text x="2" text-anchor="start" class="highcharts-subtitle" data-z-index="4" style="color:#000000;font-size:10px;font-weight:normal;font-family:Arial;fill:#000000;" y="25"><tspan>nach Staatsangehörigkeit, Alter und Geschlecht,</tspan><tspan dy="13" x="2">Basel-Stadt, gepoolte&amp;nbsp;Daten&amp;nbsp;2013 bis</tspan><tspan dy="13" x="2">2017</tspan></text><text x="2" text-anchor="start" class="highcharts-caption" data-z-index="4" style="color:#666666;fill:#666666;" y="221"></text><g class="highcharts-legend" data-z-index="7" transform="translate(42,65)"><rect fill="none" class="highcharts-legend-box" rx="0" ry="0" x="0" y="0" width="225" height="23" visibility="visible"></rect><g data-z-index="1"><g><g class="highcharts-legend-item highcharts-column-series highcharts-color-undefined highcharts-series-0" data-z-index="1" transform="translate(1,-4)"><text x="21" style="color:#333333;cursor:pointer;font-size:10px;font-weight:normal;fill:#333333;" text-anchor="start" data-z-index="2" y="13"><tspan>Schweizer</tspan></text><rect x="3" y="4" width="10" height="10" fill="#661200" class="highcharts-point" data-z-index="3"></rect></g><g class="highcharts-legend-item highcharts-column-series highcharts-color-undefined highcharts-series-2" data-z-index="1" transform="translate(122.859375,-4)"><text x="21" y="13" style="color:#333333;cursor:pointer;font-size:10px;font-weight:normal;fill:#333333;" text-anchor="start" data-z-index="2"><tspan>Schweizerinnen</tspan></text><rect x="3" y="4" width="10" height="10" fill="#dc440e" class="highcharts-point" data-z-index="3"></rect></g><g class="highcharts-legend-item highcharts-column-series highcharts-color-undefined highcharts-series-4" data-z-index="1" transform="translate(1,9)"><text x="21" y="13" style="color:#333333;cursor:pointer;font-size:10px;font-weight:normal;fill:#333333;" text-anchor="start" data-z-index="2"><tspan>Ausländer</tspan></text><rect x="3" y="4" width="10" height="10" fill="#7f5f1a" class="highcharts-point" data-z-index="3"></rect></g><g class="highcharts-legend-item highcharts-column-series highcharts-color-undefined highcharts-series-6" data-z-index="1" transform="translate(122.859375,9)"><text x="21" y="13" style="color:#333333;cursor:pointer;font-size:10px;font-weight:normal;fill:#333333;" text-anchor="start" data-z-index="2"><tspan>Ausländerinnen</tspan></text><rect x="3" y="4" width="10" height="10" fill="#ffda80" class="highcharts-point" data-z-index="3"></rect></g></g></g></g><g class="highcharts-axis-labels highcharts-xaxis-labels" data-z-index="7"><text x="73.2" style="color:#000000;cursor:default;font-size:10px;fill:#000000;" text-anchor="middle" transform="translate(0,0)" y="208" opacity="1">15-24</text><text x="127.60000000000001" style="color:#000000;cursor:default;font-size:10px;fill:#000000;" text-anchor="middle" transform="translate(0,0)" y="208" opacity="1">25-34</text><text x="182" style="color:#000000;cursor:default;font-size:10px;fill:#000000;" text-anchor="middle" transform="translate(0,0)" y="208" opacity="1">35-44</text><text x="236.40000000000003" style="color:#000000;cursor:default;font-size:10px;fill:#000000;" text-anchor="middle" transform="translate(0,0)" y="208" opacity="1">45-54</text><text x="290.8" style="color:#000000;cursor:default;font-size:10px;fill:#000000;" text-anchor="middle" transform="translate(0,0)" y="208" opacity="1">55-64</text></g><g class="highcharts-axis-labels highcharts-yaxis-labels" data-z-index="7"><text x="31" style="color:#000000;cursor:default;font-size:10px;fill:#000000;" text-anchor="end" transform="translate(0,0)" y="193" opacity="1">0%</text><text x="31" style="color:#000000;cursor:default;font-size:10px;fill:#000000;" text-anchor="end" transform="translate(0,0)" y="171" opacity="1">25%</text><text x="31" style="color:#000000;cursor:default;font-size:10px;fill:#000000;" text-anchor="end" transform="translate(0,0)" y="148" opacity="1">50%</text><text x="31" style="color:#000000;cursor:default;font-size:10px;fill:#000000;" text-anchor="end" transform="translate(0,0)" y="126" opacity="1">75%</text><text x="31" style="color:#000000;cursor:default;font-size:10px;fill:#000000;" text-anchor="end" transform="translate(0,0)" y="103" opacity="1">100%</text></g><text x="10" class="highcharts-credits" text-anchor="start" data-z-index="8" style="cursor:default;color:#000000;font-size:10;fill:#000000;" y="196"><tspan>Quelle: Bundesamt für Statistik (BFS), Strukturerhebung (SE).</tspan><tspan x="10" dy="15">Zuletzt geändert: 2019-12-16</tspan></text></svg>