<?xml version="1.0" standalone="no"?><!DOCTYPE svg PUBLIC "-//W3C//DTD SVG 1.1//EN" "http://www.w3.org/Graphics/SVG/1.1/DTD/svg11.dtd"><svg xmlns:xlink="http://www.w3.org/1999/xlink" version="1.1" class="highcharts-root" style="font-family:Arial;font-size:12px;" xmlns="http://www.w3.org/2000/svg" viewBox="0 0 485 415"><desc>Created with Highcharts 7.2.0</desc><defs><clipPath id="highcharts-rlrdoa1-61-"><rect x="0" y="0" width="138" height="92" fill="none"></rect></clipPath><clipPath id="highcharts-rlrdoa1-67-"><rect x="0" y="0" width="138" height="92" fill="none"></rect></clipPath></defs><rect fill="#fbfbfb" class="highcharts-background" x="0" y="0" width="320" height="208" rx="0" ry="0"></rect><rect fill="none" class="highcharts-plot-background" x="87" y="39" width="92" height="138"></rect><g class="highcharts-pane-group" data-z-index="0"></g><g class="highcharts-grid highcharts-xaxis-grid" data-z-index="1"><path fill="none" data-z-index="1" class="highcharts-grid-line" d="M 87 67.5 L 179 67.5" opacity="1"></path><path fill="none" data-z-index="1" class="highcharts-grid-line" d="M 87 94.5 L 179 94.5" opacity="1"></path><path fill="none" data-z-index="1" class="highcharts-grid-line" d="M 87 122.5 L 179 122.5" opacity="1"></path><path fill="none" data-z-index="1" class="highcharts-grid-line" d="M 87 149.5 L 179 149.5" opacity="1"></path><path fill="none" data-z-index="1" class="highcharts-grid-line" d="M 87 177.5 L 179 177.5" opacity="1"></path><path fill="none" data-z-index="1" class="highcharts-grid-line" d="M 87 39.5 L 179 39.5" opacity="1"></path></g><g class="highcharts-grid highcharts-yaxis-grid" data-z-index="1"><path fill="none" stroke="#B9CFD7" stroke-width="0.5" data-z-index="1" class="highcharts-grid-line" d="M 86.75 39 L 86.75 177" opacity="1"></path><path fill="none" stroke="#B9CFD7" stroke-width="0.5" data-z-index="1" class="highcharts-grid-line" d="M 117.75 39 L 117.75 177" opacity="1"></path><path fill="none" stroke="#B9CFD7" stroke-width="0.5" data-z-index="1" class="highcharts-grid-line" d="M 147.75 39 L 147.75 177" opacity="1"></path><path fill="none" stroke="#B9CFD7" stroke-width="0.5" data-z-index="1" class="highcharts-grid-line" d="M 179.25 39 L 179.25 177" opacity="1"></path></g><rect fill="none" class="highcharts-plot-border" data-z-index="1" x="87" y="39" width="92" height="138"></rect><g class="highcharts-axis highcharts-xaxis" data-z-index="2"><path fill="none" class="highcharts-axis-line" stroke="#B9CFD7" stroke-width="0.5" data-z-index="7" d="M 86.75 39 L 86.75 177"></path></g><g class="highcharts-axis highcharts-yaxis" data-z-index="2"><path fill="none" class="highcharts-axis-line" data-z-index="7" d="M 87 177 L 179 177"></path></g><g class="highcharts-series-group" data-z-index="3"><g data-z-index="0.1" class="highcharts-series highcharts-series-0 highcharts-column-series " transform="translate(179,177) rotate(90) scale(-1,1) scale(1 1)" clip-path="url(#highcharts-rlrdoa1-67-)"><rect x="119" y="69" width="10" height="0" fill="#999999" opacity="1" class="highcharts-point"></rect><rect x="92" y="39" width="10" height="0" fill="#999999" opacity="1" class="highcharts-point"></rect><rect x="64" y="61" width="10" height="0" fill="#999999" opacity="1" class="highcharts-point"></rect><rect x="36" y="8" width="10" height="0" fill="#999999" opacity="1" class="highcharts-point"></rect><rect x="9" y="75" width="10" height="0" fill="#999999" opacity="1" class="highcharts-point"></rect></g><g data-z-index="0.1" class="highcharts-markers highcharts-series-0 highcharts-column-series " transform="translate(179,177) rotate(90) scale(-1,1) scale(1 1)" clip-path="none"></g><g data-z-index="0.1" class="highcharts-series highcharts-series-1 highcharts-column-series " transform="translate(179,177) rotate(90) scale(-1,1) scale(1 1)" clip-path="url(#highcharts-rlrdoa1-67-)"><rect x="119" y="69" width="10" height="0" fill="#9f7c5a" opacity="1" class="highcharts-point"></rect><rect x="92" y="39" width="10" height="0" fill="#9f7c5a" opacity="1" class="highcharts-point"></rect><rect x="64" y="61" width="10" height="0" fill="#9f7c5a" opacity="1" class="highcharts-point"></rect><rect x="36" y="8" width="10" height="0" fill="#9f7c5a" opacity="1" class="highcharts-point"></rect><rect x="9" y="75" width="10" height="0" fill="#9f7c5a" opacity="1" class="highcharts-point"></rect></g><g data-z-index="0.1" class="highcharts-markers highcharts-series-1 highcharts-column-series " transform="translate(179,177) rotate(90) scale(-1,1) scale(1 1)" clip-path="none"></g><g data-z-index="0.1" class="highcharts-series highcharts-series-2 highcharts-column-series " transform="translate(179,177) rotate(90) scale(-1,1) scale(1 1)" clip-path="url(#highcharts-rlrdoa1-67-)"><rect x="119" y="69" width="10" height="0" fill="#73ba7c" opacity="1" class="highcharts-point"></rect><rect x="92" y="39" width="10" height="0" fill="#73ba7c" opacity="1" class="highcharts-point"></rect><rect x="64" y="61" width="10" height="0" fill="#73ba7c" opacity="1" class="highcharts-point"></rect><rect x="36" y="8" width="10" height="0" fill="#73ba7c" opacity="1" class="highcharts-point"></rect><rect x="9" y="75" width="10" height="0" fill="#73ba7c" opacity="1" class="highcharts-point"></rect></g><g data-z-index="0.1" class="highcharts-markers highcharts-series-2 highcharts-column-series " transform="translate(179,177) rotate(90) scale(-1,1) scale(1 1)" clip-path="none"></g><g data-z-index="0.1" class="highcharts-series highcharts-series-3 highcharts-column-series " transform="translate(179,177) rotate(90) scale(-1,1) scale(1 1)" clip-path="url(#highcharts-rlrdoa1-67-)"><rect x="119" y="69" width="10" height="0" fill="#ff8028" opacity="1" class="highcharts-point"></rect><rect x="92" y="39" width="10" height="1" fill="#ff8028" opacity="1" class="highcharts-point"></rect><rect x="64" y="61" width="10" height="0" fill="#ff8028" opacity="1" class="highcharts-point"></rect><rect x="36" y="8" width="10" height="0" fill="#ff8028" opacity="1" class="highcharts-point"></rect><rect x="9" y="75" width="10" height="0" fill="#ff8028" opacity="1" class="highcharts-point"></rect></g><g data-z-index="0.1" class="highcharts-markers highcharts-series-3 highcharts-column-series " transform="translate(179,177) rotate(90) scale(-1,1) scale(1 1)" clip-path="none"></g><g data-z-index="0.1" class="highcharts-series highcharts-series-4 highcharts-column-series " transform="translate(179,177) rotate(90) scale(-1,1) scale(1 1)" clip-path="url(#highcharts-rlrdoa1-67-)"><rect x="119" y="69" width="10" height="0" fill="#b9cfd7" opacity="1" class="highcharts-point"></rect><rect x="92" y="40" width="10" height="0" fill="#b9cfd7" opacity="1" class="highcharts-point"></rect><rect x="64" y="61" width="10" height="0" fill="#b9cfd7" opacity="1" class="highcharts-point"></rect><rect x="36" y="8" width="10" height="0" fill="#b9cfd7" opacity="1" class="highcharts-point"></rect><rect x="9" y="75" width="10" height="0" fill="#b9cfd7" opacity="1" class="highcharts-point"></rect></g><g data-z-index="0.1" class="highcharts-markers highcharts-series-4 highcharts-column-series " transform="translate(179,177) rotate(90) scale(-1,1) scale(1 1)" clip-path="none"></g><g data-z-index="0.1" class="highcharts-series highcharts-series-5 highcharts-column-series " transform="translate(179,177) rotate(90) scale(-1,1) scale(1 1)" clip-path="url(#highcharts-rlrdoa1-67-)"><rect x="119" y="69" width="10" height="0" fill="#71a3b5" opacity="1" class="highcharts-point"></rect><rect x="92" y="40" width="10" height="0" fill="#71a3b5" opacity="1" class="highcharts-point"></rect><rect x="64" y="61" width="10" height="0" fill="#71a3b5" opacity="1" class="highcharts-point"></rect><rect x="36" y="8" width="10" height="0" fill="#71a3b5" opacity="1" class="highcharts-point"></rect><rect x="9" y="75" width="10" height="0" fill="#71a3b5" opacity="1" class="highcharts-point"></rect></g><g data-z-index="0.1" class="highcharts-markers highcharts-series-5 highcharts-column-series " transform="translate(179,177) rotate(90) scale(-1,1) scale(1 1)" clip-path="none"></g><g data-z-index="0.1" class="highcharts-series highcharts-series-6 highcharts-column-series " transform="translate(179,177) rotate(90) scale(-1,1) scale(1 1)" clip-path="url(#highcharts-rlrdoa1-67-)"><rect x="119" y="69" width="10" height="0" fill="#b475ab" opacity="1" class="highcharts-point"></rect><rect x="92" y="40" width="10" height="0" fill="#b475ab" opacity="1" class="highcharts-point"></rect><rect x="64" y="61" width="10" height="1" fill="#b475ab" opacity="1" class="highcharts-point"></rect><rect x="36" y="8" width="10" height="1" fill="#b475ab" opacity="1" class="highcharts-point"></rect><rect x="9" y="75" width="10" height="0" fill="#b475ab" opacity="1" class="highcharts-point"></rect></g><g data-z-index="0.1" class="highcharts-markers highcharts-series-6 highcharts-column-series " transform="translate(179,177) rotate(90) scale(-1,1) scale(1 1)" clip-path="none"></g><g data-z-index="0.1" class="highcharts-series highcharts-series-7 highcharts-column-series " transform="translate(179,177) rotate(90) scale(-1,1) scale(1 1)" clip-path="url(#highcharts-rlrdoa1-67-)"><rect x="119" y="69" width="10" height="0" fill="#fabd24" opacity="1" class="highcharts-point"></rect><rect x="92" y="40" width="10" height="0" fill="#fabd24" opacity="1" class="highcharts-point"></rect><rect x="64" y="62" width="10" height="0" fill="#fabd24" opacity="1" class="highcharts-point"></rect><rect x="36" y="9" width="10" height="0" fill="#fabd24" opacity="1" class="highcharts-point"></rect><rect x="9" y="75" width="10" height="0" fill="#fabd24" opacity="1" class="highcharts-point"></rect></g><g data-z-index="0.1" class="highcharts-markers highcharts-series-7 highcharts-column-series " transform="translate(179,177) rotate(90) scale(-1,1) scale(1 1)" clip-path="none"></g><g data-z-index="0.1" class="highcharts-series highcharts-series-8 highcharts-column-series " transform="translate(179,177) rotate(90) scale(-1,1) scale(1 1)" clip-path="url(#highcharts-rlrdoa1-67-)"><rect x="119" y="69" width="10" height="0" fill="#007a2f" opacity="1" class="highcharts-point"></rect><rect x="92" y="40" width="10" height="0" fill="#007a2f" opacity="1" class="highcharts-point"></rect><rect x="64" y="62" width="10" height="0" fill="#007a2f" opacity="1" class="highcharts-point"></rect><rect x="36" y="9" width="10" height="1" fill="#007a2f" opacity="1" class="highcharts-point"></rect><rect x="9" y="75" width="10" height="0" fill="#007a2f" opacity="1" class="highcharts-point"></rect></g><g data-z-index="0.1" class="highcharts-markers highcharts-series-8 highcharts-column-series " transform="translate(179,177) rotate(90) scale(-1,1) scale(1 1)" clip-path="none"></g><g data-z-index="0.1" class="highcharts-series highcharts-series-9 highcharts-column-series " transform="translate(179,177) rotate(90) scale(-1,1) scale(1 1)" clip-path="url(#highcharts-rlrdoa1-67-)"><rect x="119" y="69" width="10" height="1" fill="#672773" opacity="1" class="highcharts-point"></rect><rect x="92" y="40" width="10" height="5" fill="#672773" opacity="1" class="highcharts-point"></rect><rect x="64" y="62" width="10" height="3" fill="#672773" opacity="1" class="highcharts-point"></rect><rect x="36" y="10" width="10" height="9" fill="#672773" opacity="1" class="highcharts-point"></rect><rect x="9" y="75" width="10" height="1" fill="#672773" opacity="1" class="highcharts-point"></rect></g><g data-z-index="0.1" class="highcharts-markers highcharts-series-9 highcharts-column-series " transform="translate(179,177) rotate(90) scale(-1,1) scale(1 1)" clip-path="none"></g><g data-z-index="0.1" class="highcharts-series highcharts-series-10 highcharts-column-series " transform="translate(179,177) rotate(90) scale(-1,1) scale(1 1)" clip-path="url(#highcharts-rlrdoa1-67-)"><rect x="119" y="70" width="10" height="23" fill="#B00000" opacity="1" class="highcharts-point"></rect><rect x="92" y="45" width="10" height="48" fill="#B00000" opacity="1" class="highcharts-point"></rect><rect x="64" y="65" width="10" height="28" fill="#B00000" opacity="1" class="highcharts-point"></rect><rect x="36" y="19" width="10" height="74" fill="#B00000" opacity="1" class="highcharts-point"></rect><rect x="9" y="76" width="10" height="17" fill="#B00000" opacity="1" class="highcharts-point"></rect></g><g data-z-index="0.1" class="highcharts-markers highcharts-series-10 highcharts-column-series " transform="translate(179,177) rotate(90) scale(-1,1) scale(1 1)" clip-path="none"></g></g><text x="2" text-anchor="start" class="highcharts-title" data-z-index="4" style="color:#000000;font-size:10px;font-weight:bold;fill:#000000;" y="9"><tspan>Angestellte in der Verwaltung Basel-Stadt</tspan></text><text x="2" text-anchor="start" class="highcharts-subtitle" data-z-index="4" style="color:#000000;font-size:10px;font-weight:normal;font-family:Arial;fill:#000000;" y="25"><tspan>nach Staatsangehörigkeit und Kaderstufe, 2017</tspan></text><text x="2" text-anchor="start" class="highcharts-caption" data-z-index="4" style="color:#666666;fill:#666666;" y="208"></text><g class="highcharts-legend" data-z-index="7" transform="translate(191,30)"><rect fill="none" class="highcharts-legend-box" rx="0" ry="0" x="0" y="0" width="126" height="138" visibility="visible"></rect><g data-z-index="1"><g><g class="highcharts-legend-item highcharts-column-series highcharts-color-undefined highcharts-series-10" data-z-index="1" transform="translate(0,-5)"><text x="16" style="color:#333333;cursor:pointer;font-size:10px;font-weight:normal;fill:#333333;" text-anchor="start" data-z-index="2" y="13"><tspan>Schweiz</tspan></text><rect x="3" y="4" width="10" height="10" fill="#B00000" class="highcharts-point" data-z-index="3"></rect></g><g class="highcharts-legend-item highcharts-column-series highcharts-color-undefined highcharts-series-9" data-z-index="1" transform="translate(0,8)"><text x="16" y="13" style="color:#333333;cursor:pointer;font-size:10px;font-weight:normal;fill:#333333;" text-anchor="start" data-z-index="2"><tspan>Deutschland</tspan></text><rect x="3" y="4" width="10" height="10" fill="#672773" class="highcharts-point" data-z-index="3"></rect></g><g class="highcharts-legend-item highcharts-column-series highcharts-color-undefined highcharts-series-8" data-z-index="1" transform="translate(0,21)"><text x="16" y="13" style="color:#333333;cursor:pointer;font-size:10px;font-weight:normal;fill:#333333;" text-anchor="start" data-z-index="2"><tspan>Italien</tspan></text><rect x="3" y="4" width="10" height="10" fill="#007a2f" class="highcharts-point" data-z-index="3"></rect></g><g class="highcharts-legend-item highcharts-column-series highcharts-color-undefined highcharts-series-7" data-z-index="1" transform="translate(0,34)"><text x="16" y="13" style="color:#333333;cursor:pointer;font-size:10px;font-weight:normal;fill:#333333;" text-anchor="start" data-z-index="2"><tspan>Türkei</tspan></text><rect x="3" y="4" width="10" height="10" fill="#fabd24" class="highcharts-point" data-z-index="3"></rect></g><g class="highcharts-legend-item highcharts-column-series highcharts-color-undefined highcharts-series-6" data-z-index="1" transform="translate(0,47)"><text x="16" y="13" style="color:#333333;cursor:pointer;font-size:10px;font-weight:normal;fill:#333333;" text-anchor="start" data-z-index="2"><tspan>EU-17 + EFTA</tspan></text><rect x="3" y="4" width="10" height="10" fill="#b475ab" class="highcharts-point" data-z-index="3"></rect></g><g class="highcharts-legend-item highcharts-column-series highcharts-color-undefined highcharts-series-5" data-z-index="1" transform="translate(0,60)"><text x="16" y="13" style="color:#333333;cursor:pointer;font-size:10px;font-weight:normal;fill:#333333;" text-anchor="start" data-z-index="2"><tspan>EU-Ost</tspan></text><rect x="3" y="4" width="10" height="10" fill="#71a3b5" class="highcharts-point" data-z-index="3"></rect></g><g class="highcharts-legend-item highcharts-column-series highcharts-color-undefined highcharts-series-4" data-z-index="1" transform="translate(0,73)"><text x="16" y="13" style="color:#333333;cursor:pointer;font-size:10px;font-weight:normal;fill:#333333;" text-anchor="start" data-z-index="2"><tspan>Balkan</tspan></text><rect x="3" y="4" width="10" height="10" fill="#b9cfd7" class="highcharts-point" data-z-index="3"></rect></g><g class="highcharts-legend-item highcharts-column-series highcharts-color-undefined highcharts-series-3" data-z-index="1" transform="translate(0,86)"><text x="16" y="13" style="color:#333333;cursor:pointer;font-size:10px;font-weight:normal;fill:#333333;" text-anchor="start" data-z-index="2"><tspan>Mittel- u. Südamerika</tspan></text><rect x="3" y="4" width="10" height="10" fill="#ff8028" class="highcharts-point" data-z-index="3"></rect></g><g class="highcharts-legend-item highcharts-column-series highcharts-color-undefined highcharts-series-2" data-z-index="1" transform="translate(0,99)"><text x="16" y="13" style="color:#333333;cursor:pointer;font-size:10px;font-weight:normal;fill:#333333;" text-anchor="start" data-z-index="2"><tspan>Arab. Länder</tspan></text><rect x="3" y="4" width="10" height="10" fill="#73ba7c" class="highcharts-point" data-z-index="3"></rect></g><g class="highcharts-legend-item highcharts-column-series highcharts-color-undefined highcharts-series-1" data-z-index="1" transform="translate(0,112)"><text x="16" y="13" style="color:#333333;cursor:pointer;font-size:10px;font-weight:normal;fill:#333333;" text-anchor="start" data-z-index="2"><tspan>Afrikan. Länder</tspan></text><rect x="3" y="4" width="10" height="10" fill="#9f7c5a" class="highcharts-point" data-z-index="3"></rect></g><g class="highcharts-legend-item highcharts-column-series highcharts-color-undefined highcharts-series-0" data-z-index="1" transform="translate(0,125)"><text x="16" y="13" style="color:#333333;cursor:pointer;font-size:10px;font-weight:normal;fill:#333333;" text-anchor="start" data-z-index="2"><tspan>Übrige Länder</tspan></text><rect x="3" y="4" width="10" height="10" fill="#999999" class="highcharts-point" data-z-index="3"></rect></g></g></g></g><g class="highcharts-axis-labels highcharts-xaxis-labels" data-z-index="7"><text x="82" style="color:#000000;cursor:default;font-size:10px;fill:#000000;" text-anchor="end" transform="translate(0,0)" y="56" opacity="1"><tspan>Oberes Kader</tspan></text><text x="82" style="color:#000000;cursor:default;font-size:10px;fill:#000000;" text-anchor="end" transform="translate(0,0)" y="83" opacity="1"><tspan>Mittleres Kader</tspan></text><text x="82" style="color:#000000;cursor:default;font-size:10px;fill:#000000;" text-anchor="end" transform="translate(0,0)" y="111" opacity="1"><tspan>Mittleres</tspan><tspan dy="13" x="82">Fachkader</tspan></text><text x="82" style="color:#000000;cursor:default;font-size:10px;fill:#000000;" text-anchor="end" transform="translate(0,0)" y="139" opacity="1"><tspan>Unteres Kader</tspan></text><text x="82" style="color:#000000;cursor:default;font-size:10px;fill:#000000;" text-anchor="end" transform="translate(0,0)" y="166" opacity="1"><tspan>Unteres</tspan><tspan dy="13" x="82">Fachkader</tspan></text></g><g class="highcharts-axis-labels highcharts-yaxis-labels" data-z-index="7"><text x="87" style="color:#000000;cursor:default;font-size:10px;fill:#000000;" text-anchor="middle" transform="translate(0,0)" y="195" opacity="1">0</text><text x="117.66666666667" style="color:#000000;cursor:default;font-size:10px;fill:#000000;" text-anchor="middle" transform="translate(0,0)" y="195" opacity="1">250</text><text x="148.33333333333" style="color:#000000;cursor:default;font-size:10px;fill:#000000;" text-anchor="middle" transform="translate(0,0)" y="195" opacity="1">500</text><text x="179" style="color:#000000;cursor:default;font-size:10px;fill:#000000;" text-anchor="middle" transform="translate(0,0)" y="195" opacity="1">750</text></g><text x="10" class="highcharts-credits" text-anchor="start" data-z-index="8" style="cursor:default;color:#000000;font-size:10;fill:#000000;" y="183"><tspan>Quelle: Statistisches Amt Basel-Stadt, Bevölkerungsstatistik;</tspan><tspan x="10" dy="15">Finanzdepartement Basel-Stadt, Zentraler Personaldienst.</tspan></text></svg>