<?xml version="1.0" standalone="no"?><!DOCTYPE svg PUBLIC "-//W3C//DTD SVG 1.1//EN" "http://www.w3.org/Graphics/SVG/1.1/DTD/svg11.dtd"><svg xmlns:xlink="http://www.w3.org/1999/xlink" version="1.1" class="highcharts-root" style="font-family:Arial;font-size:12px;" xmlns="http://www.w3.org/2000/svg" viewBox="0 0 485 415"><desc>Created with Highstock 6.1.1</desc><defs><clipPath id="highcharts-wpv3o4p-6"><rect x="0" y="0" width="280" height="71" fill="none"></rect></clipPath><clipPath id="highcharts-wpv3o4p-7"><rect x="0" y="0" width="280" height="71" fill="none"></rect></clipPath></defs><rect fill="#fbfbfb" class="highcharts-background" x="0" y="0" width="320" height="221" rx="0" ry="0"></rect><rect fill="none" class="highcharts-plot-background" x="38" y="94" width="280" height="71"></rect><g class="highcharts-pane-group" data-z-index="0"></g><g class="highcharts-grid highcharts-xaxis-grid " data-z-index="1"><path fill="none" data-z-index="1" class="highcharts-grid-line" d="M 40.5 94 L 40.5 165" opacity="1"></path><path fill="none" data-z-index="1" class="highcharts-grid-line" d="M 57.5 94 L 57.5 165" opacity="1"></path><path fill="none" data-z-index="1" class="highcharts-grid-line" d="M 74.5 94 L 74.5 165" opacity="1"></path><path fill="none" data-z-index="1" class="highcharts-grid-line" d="M 91.5 94 L 91.5 165" opacity="1"></path><path fill="none" data-z-index="1" class="highcharts-grid-line" d="M 108.5 94 L 108.5 165" opacity="1"></path><path fill="none" data-z-index="1" class="highcharts-grid-line" d="M 126.5 94 L 126.5 165" opacity="1"></path><path fill="none" data-z-index="1" class="highcharts-grid-line" d="M 143.5 94 L 143.5 165" opacity="1"></path><path fill="none" data-z-index="1" class="highcharts-grid-line" d="M 160.5 94 L 160.5 165" opacity="1"></path><path fill="none" data-z-index="1" class="highcharts-grid-line" d="M 177.5 94 L 177.5 165" opacity="1"></path><path fill="none" data-z-index="1" class="highcharts-grid-line" d="M 194.5 94 L 194.5 165" opacity="1"></path><path fill="none" data-z-index="1" class="highcharts-grid-line" d="M 211.5 94 L 211.5 165" opacity="1"></path><path fill="none" data-z-index="1" class="highcharts-grid-line" d="M 228.5 94 L 228.5 165" opacity="1"></path><path fill="none" data-z-index="1" class="highcharts-grid-line" d="M 246.5 94 L 246.5 165" opacity="1"></path><path fill="none" data-z-index="1" class="highcharts-grid-line" d="M 263.5 94 L 263.5 165" opacity="1"></path><path fill="none" data-z-index="1" class="highcharts-grid-line" d="M 280.5 94 L 280.5 165" opacity="1"></path><path fill="none" data-z-index="1" class="highcharts-grid-line" d="M 297.5 94 L 297.5 165" opacity="1"></path><path fill="none" data-z-index="1" class="highcharts-grid-line" d="M 314.5 94 L 314.5 165" opacity="1"></path></g><g class="highcharts-grid highcharts-yaxis-grid " data-z-index="1"><path fill="none" stroke="#B9CFD7" stroke-width="0.5" data-z-index="1" class="highcharts-grid-line" d="M 38 165.25 L 318 165.25" opacity="1"></path><path fill="none" stroke="#B9CFD7" stroke-width="0.5" data-z-index="1" class="highcharts-grid-line" d="M 38 93.75 L 318 93.75" opacity="1"></path></g><rect fill="none" class="highcharts-plot-border" data-z-index="1" x="38" y="94" width="280" height="71"></rect><g class="highcharts-axis highcharts-xaxis " data-z-index="2"><path fill="none" class="highcharts-axis-line" stroke="#B9CFD7" stroke-width="0.5" data-z-index="7" d="M 38 165.25 L 318 165.25"></path></g><g class="highcharts-axis highcharts-yaxis " data-z-index="2"><path fill="none" class="highcharts-axis-line" data-z-index="7" d="M 38 94 L 38 165"></path></g><g class="highcharts-series-group" data-z-index="3"><g data-z-index="0.1" class="highcharts-series highcharts-series-0 highcharts-line-series " transform="translate(38,94) scale(1 1)" clip-path="url(#highcharts-wpv3o4p-7)"><path fill="none" d="M 2.7450980392171 42.3515 L 19.901960784315 40.896 L 37.058823529413 39.9375 L 54.215686274511 39.511500000000005 L 71.372549019609 38.979000000000006 L 88.529411764706 39.05 L 105.6862745098 39.085499999999996 L 122.8431372549 39.3695 L 140 38.127 L 157.1568627451 38.7305 L 174.3137254902 38.837 L 191.47058823529 40.0085 L 208.62745098039 40.68300000000001 L 225.78431372549 41.4995 L 242.94117647059 42.067499999999995 L 260.09803921569 42.493500000000004 L 277.25490196078 42.742000000000004" class="highcharts-graph" data-z-index="1" stroke="#fabd24" stroke-width="2" stroke-linejoin="round" stroke-linecap="round"></path></g><g data-z-index="0.1" class="highcharts-markers highcharts-series-0 highcharts-line-series " transform="translate(38,94) scale(1 1)" clip-path="none"></g><g data-z-index="0.1" class="highcharts-series highcharts-series-1 highcharts-line-series " transform="translate(38,94) scale(1 1)" clip-path="url(#highcharts-wpv3o4p-7)"><path fill="none" d="M 2.7450980392171 14.874499999999998 L 19.901960784315 12.425000000000004 L 37.058823529413 11.8215 L 54.215686274511 11.324500000000008 L 71.372549019609 11.501999999999995 L 88.529411764706 12.567 L 105.6862745098 14.377500000000005 L 122.8431372549 15.407000000000004 L 140 21.797000000000004 L 157.1568627451 23.3945 L 174.3137254902 25.1695 L 191.47058823529 27.761000000000003 L 208.62745098039 32.5535 L 225.78431372549 35.429 L 242.94117647059 38.411 L 260.09803921569 40.611999999999995 L 277.25490196078 41.8545" class="highcharts-graph" data-z-index="1" stroke="#b9cfd7" stroke-width="2" stroke-linejoin="round" stroke-linecap="round"></path></g><g data-z-index="0.1" class="highcharts-markers highcharts-series-1 highcharts-line-series " transform="translate(38,94) scale(1 1)" clip-path="none"></g><g data-z-index="0.1" class="highcharts-series highcharts-series-2 highcharts-line-series " transform="translate(38,94) scale(1 1)" clip-path="url(#highcharts-wpv3o4p-7)"><path fill="none" d="M 2.7450980392171 55.806 L 19.901960784315 55.735 L 37.058823529413 53.9245 L 54.215686274511 54.741 L 71.372549019609 53.3565 L 88.529411764706 55.025 L 105.6862745098 55.6285 L 122.8431372549 56.729 L 140 58.22 L 157.1568627451 57.8295 L 174.3137254902 59.001000000000005 L 191.47058823529 59.6045 L 208.62745098039 60.776 L 225.78431372549 60.705 L 242.94117647059 60.6695 L 260.09803921569 60.989000000000004 L 277.25490196078 61.06" class="highcharts-graph" data-z-index="1" stroke="#007a2f" stroke-width="2" stroke-linejoin="round" stroke-linecap="round"></path></g><g data-z-index="0.1" class="highcharts-markers highcharts-series-2 highcharts-line-series " transform="translate(38,94) scale(1 1)" clip-path="none"></g><g data-z-index="0.1" class="highcharts-series highcharts-series-3 highcharts-line-series " transform="translate(38,94) scale(1 1)" clip-path="url(#highcharts-wpv3o4p-7)"><path fill="none" d="M 2.7450980392171 33.725 L 19.901960784315 30.636500000000005 L 37.058823529413 28.0805 L 54.215686274511 26.021500000000003 L 71.372549019609 23.075000000000003 L 88.529411764706 22.045500000000004 L 105.6862745098 20.164 L 122.8431372549 19.560500000000005 L 140 22.933000000000007 L 157.1568627451 24.3885 L 174.3137254902 28.258000000000003 L 191.47058823529 32.2695 L 208.62745098039 38.056000000000004 L 225.78431372549 41.464 L 242.94117647059 43.949 L 260.09803921569 45.511 L 277.25490196078 48.777" class="highcharts-graph" data-z-index="1" stroke="#b00000" stroke-width="2" stroke-linejoin="round" stroke-linecap="round"></path></g><g data-z-index="0.1" class="highcharts-markers highcharts-series-3 highcharts-line-series " transform="translate(38,94) scale(1 1)" clip-path="none"></g><g data-z-index="0.1" class="highcharts-series highcharts-series-4 highcharts-line-series " transform="translate(38,94) scale(1 1)" clip-path="url(#highcharts-wpv3o4p-7)"><path fill="none" d="M 2.7450980392171 35.3935 L 19.901960784315 27.406000000000006 L 37.058823529413 23.643 L 54.215686274511 20.7675 L 71.372549019609 19.099000000000004 L 88.529411764706 17.608000000000004 L 105.6862745098 14.0225 L 122.8431372549 10.721000000000004 L 140 20.732 L 157.1568627451 22.329499999999996 L 174.3137254902 22.613500000000002 L 191.47058823529 24.175500000000007 L 208.62745098039 26.412 L 225.78431372549 27.619 L 242.94117647059 28.506500000000003 L 260.09803921569 28.542 L 277.25490196078 29.003500000000003" class="highcharts-graph" data-z-index="1" stroke="#E7CEE2" stroke-width="2" stroke-linejoin="round" stroke-linecap="round"></path></g><g data-z-index="0.1" class="highcharts-markers highcharts-series-4 highcharts-line-series " transform="translate(38,94) scale(1 1)" clip-path="none"></g><g data-z-index="0.1" class="highcharts-series highcharts-series-5 highcharts-line-series " transform="translate(38,94) scale(1 1)" clip-path="url(#highcharts-wpv3o4p-7)"><path fill="none" d="M 2.7450980392171 36.991 L 19.901960784315 31.559500000000007 L 37.058823529413 28.435500000000005 L 54.215686274511 24.246500000000005 L 71.372549019609 21.9035 L 88.529411764706 21.726 L 105.6862745098 18.424500000000002 L 122.8431372549 13.916000000000011 L 140 22.542500000000004 L 157.1568627451 22.542500000000004 L 174.3137254902 24.033500000000004 L 191.47058823529 25.311500000000002 L 208.62745098039 27.619 L 225.78431372549 29.181000000000004 L 242.94117647059 30.920500000000004 L 260.09803921569 33.4055 L 277.25490196078 35.074000000000005" class="highcharts-graph" data-z-index="1" stroke="#672773" stroke-width="2" stroke-linejoin="round" stroke-linecap="round"></path></g><g data-z-index="0.1" class="highcharts-markers highcharts-series-5 highcharts-line-series " transform="translate(38,94) scale(1 1)" clip-path="none"></g></g><text x="2" text-anchor="start" class="highcharts-title" data-z-index="4" style="color:#000000;font-size:10px;font-weight:bold;fill:#000000;" y="9"><tspan>IV-Quote nach Staatsangehörigkeit</tspan></text><text x="2" text-anchor="start" class="highcharts-subtitle" data-z-index="4" style="color:#000000;font-size:10px;font-weight:normal;font-family:Arial;fill:#000000;" y="26"><tspan>Top 6 der IV-Bezüger, Basel-Stadt</tspan></text><g class="highcharts-legend" data-z-index="7" transform="translate(38,42)"><rect fill="none" class="highcharts-legend-box" rx="0" ry="0" x="0" y="0" width="276" height="40" visibility="visible"></rect><g data-z-index="1"><g><g class="highcharts-legend-item highcharts-line-series highcharts-color-undefined highcharts-series-0" data-z-index="1" transform="translate(0,-5)"><path fill="none" d="M 0 10 L 16 10" class="highcharts-graph" stroke="#fabd24" stroke-width="2"></path><text x="21" style="color:#333333;font-size:10px;font-weight:normal;cursor:pointer;fill:#333333;" text-anchor="start" data-z-index="2" y="13"><tspan>Schweiz</tspan></text></g><g class="highcharts-legend-item highcharts-line-series highcharts-color-undefined highcharts-series-1" data-z-index="1" transform="translate(138,-5)"><path fill="none" d="M 0 10 L 16 10" class="highcharts-graph" stroke="#b9cfd7" stroke-width="2"></path><text x="21" y="13" style="color:#333333;font-size:10px;font-weight:normal;cursor:pointer;fill:#333333;" text-anchor="start" data-z-index="2"><tspan>Italien</tspan></text></g><g class="highcharts-legend-item highcharts-line-series highcharts-color-undefined highcharts-series-2" data-z-index="1" transform="translate(0,10)"><path fill="none" d="M 0 10 L 16 10" class="highcharts-graph" stroke="#007a2f" stroke-width="2"></path><text x="21" y="13" style="color:#333333;font-size:10px;font-weight:normal;cursor:pointer;fill:#333333;" text-anchor="start" data-z-index="2"><tspan>Portugal</tspan></text></g><g class="highcharts-legend-item highcharts-line-series highcharts-color-undefined highcharts-series-3" data-z-index="1" transform="translate(138,10)"><path fill="none" d="M 0 10 L 16 10" class="highcharts-graph" stroke="#b00000" stroke-width="2"></path><text x="21" y="13" style="color:#333333;font-size:10px;font-weight:normal;cursor:pointer;fill:#333333;" text-anchor="start" data-z-index="2"><tspan>Spanien</tspan></text></g><g class="highcharts-legend-item highcharts-line-series highcharts-color-undefined highcharts-series-4" data-z-index="1" transform="translate(0,25)"><path fill="none" d="M 0 10 L 16 10" class="highcharts-graph" stroke="#E7CEE2" stroke-width="2"></path><text x="21" y="13" style="color:#333333;font-size:10px;font-weight:normal;cursor:pointer;fill:#333333;" text-anchor="start" data-z-index="2"><tspan>Türkei</tspan></text></g><g class="highcharts-legend-item highcharts-line-series highcharts-color-undefined highcharts-series-5" data-z-index="1" transform="translate(138,25)"><path fill="none" d="M 0 10 L 16 10" class="highcharts-graph" stroke="#672773" stroke-width="2"></path><text x="21" y="13" style="color:#333333;font-size:10px;font-weight:normal;cursor:pointer;fill:#333333;" text-anchor="start" data-z-index="2"><tspan>Ehemaliges Jugoslawien</tspan></text></g></g></g></g><g class="highcharts-axis-labels highcharts-xaxis-labels " data-z-index="7"><text x="43.10212064317216" style="color:#000000;cursor:default;font-size:10px;white-space:nowrap;fill:#000000;" text-anchor="end" transform="translate(0,0) rotate(-45 43.10212064317216 180)" y="180" opacity="1">2001</text><text x="60.25898338827016" style="color:#000000;cursor:default;font-size:10px;white-space:nowrap;fill:#000000;" text-anchor="end" transform="translate(0,0) rotate(-45 60.25898338827016 180)" y="180" opacity="1">2002</text><text x="77.41584613336816" style="color:#000000;cursor:default;font-size:10px;white-space:nowrap;fill:#000000;" text-anchor="end" transform="translate(0,0) rotate(-45 77.41584613336816 180)" y="180" opacity="1">2003</text><text x="94.57270887846616" style="color:#000000;cursor:default;font-size:10px;white-space:nowrap;fill:#000000;" text-anchor="end" transform="translate(0,0) rotate(-45 94.57270887846616 180)" y="180" opacity="1">2004</text><text x="111.72957162356516" style="color:#000000;cursor:default;font-size:10px;white-space:nowrap;fill:#000000;" text-anchor="end" transform="translate(0,0) rotate(-45 111.72957162356516 180)" y="180" opacity="1">2005</text><text x="128.88643436866516" style="color:#000000;cursor:default;font-size:10px;white-space:nowrap;fill:#000000;" text-anchor="end" transform="translate(0,0) rotate(-45 128.88643436866516 180)" y="180" opacity="1">2006</text><text x="146.04329711375516" style="color:#000000;cursor:default;font-size:10px;white-space:nowrap;fill:#000000;" text-anchor="end" transform="translate(0,0) rotate(-45 146.04329711375516 180)" y="180" opacity="1">2007</text><text x="163.20015985885516" style="color:#000000;cursor:default;font-size:10px;white-space:nowrap;fill:#000000;" text-anchor="end" transform="translate(0,0) rotate(-45 163.20015985885516 180)" y="180" opacity="1">2008</text><text x="180.35702260395516" style="color:#000000;cursor:default;font-size:10px;white-space:nowrap;fill:#000000;" text-anchor="end" transform="translate(0,0) rotate(-45 180.35702260395516 180)" y="180" opacity="1">2009</text><text x="197.51388534905516" style="color:#000000;cursor:default;font-size:10px;white-space:nowrap;fill:#000000;" text-anchor="end" transform="translate(0,0) rotate(-45 197.51388534905516 180)" y="180" opacity="1">2010</text><text x="214.67074809415516" style="color:#000000;cursor:default;font-size:10px;white-space:nowrap;fill:#000000;" text-anchor="end" transform="translate(0,0) rotate(-45 214.67074809415516 180)" y="180" opacity="1">2011</text><text x="231.82761083924515" style="color:#000000;cursor:default;font-size:10px;white-space:nowrap;fill:#000000;" text-anchor="end" transform="translate(0,0) rotate(-45 231.82761083924515 180)" y="180" opacity="1">2012</text><text x="248.98447358434515" style="color:#000000;cursor:default;font-size:10px;white-space:nowrap;fill:#000000;" text-anchor="end" transform="translate(0,0) rotate(-45 248.98447358434515 180)" y="180" opacity="1">2013</text><text x="266.14133632944515" style="color:#000000;cursor:default;font-size:10px;white-space:nowrap;fill:#000000;" text-anchor="end" transform="translate(0,0) rotate(-45 266.14133632944515 180)" y="180" opacity="1">2014</text><text x="283.29819907454515" style="color:#000000;cursor:default;font-size:10px;white-space:nowrap;fill:#000000;" text-anchor="end" transform="translate(0,0) rotate(-45 283.29819907454515 180)" y="180" opacity="1">2015</text><text x="300.45506181964515" style="color:#000000;cursor:default;font-size:10px;white-space:nowrap;fill:#000000;" text-anchor="end" transform="translate(0,0) rotate(-45 300.45506181964515 180)" y="180" opacity="1">2016</text><text x="317.61192456473515" style="color:#000000;cursor:default;font-size:10px;white-space:nowrap;fill:#000000;" text-anchor="end" transform="translate(0,0) rotate(-45 317.61192456473515 180)" y="180" opacity="1">2017</text></g><g class="highcharts-axis-labels highcharts-yaxis-labels " data-z-index="7"><text x="23" style="color:#000000;cursor:default;font-size:10;fill:#000000;" text-anchor="end" transform="translate(0,0)" y="168" opacity="1">0%</text><text x="23" style="color:#000000;cursor:default;font-size:10;fill:#000000;" text-anchor="end" transform="translate(0,0)" y="97" opacity="1">20%</text></g><text x="10" class="highcharts-credits" text-anchor="start" data-z-index="8" style="cursor:default;color:#000000;font-size:10px;fill:#000000;" y="186"><tspan>Quelle: Statistisches Amt Basel-Stadt, Bevölkerungsstatistik;</tspan><tspan x="10" dy="13">Bundesamt für Sozialversicherungen.</tspan><tspan x="10" dy="13">Zuletzt geändert: 2019-8-12</tspan></text></svg>