<?xml version="1.0" standalone="no"?><!DOCTYPE svg PUBLIC "-//W3C//DTD SVG 1.1//EN" "http://www.w3.org/Graphics/SVG/1.1/DTD/svg11.dtd"><svg xmlns:xlink="http://www.w3.org/1999/xlink" version="1.1" class="highcharts-root" style="font-family:Arial;font-size:12px;" xmlns="http://www.w3.org/2000/svg" viewBox="0 0 485 415"><desc>Created with Highcharts 7.2.0</desc><defs><clipPath id="highcharts-nbwtngp-38-"><rect x="0" y="0" width="216" height="34" fill="none"></rect></clipPath><clipPath id="highcharts-nbwtngp-49-"><rect x="0" y="0" width="216" height="34" fill="none"></rect></clipPath><clipPath id="highcharts-nbwtngp-70-"><rect x="0" y="0" width="216" height="34" fill="none"></rect></clipPath></defs><rect fill="#fbfbfb" class="highcharts-background" x="0" y="0" width="320" height="208" rx="0" ry="0"></rect><rect fill="none" class="highcharts-plot-background" x="58" y="98" width="216" height="34"></rect><g class="highcharts-pane-group" data-z-index="0"></g><g class="highcharts-grid highcharts-xaxis-grid" data-z-index="1"><path fill="none" data-z-index="1" class="highcharts-grid-line" d="M 79.5 98 L 79.5 132" opacity="1"></path><path fill="none" data-z-index="1" class="highcharts-grid-line" d="M 100.5 98 L 100.5 132" opacity="1"></path><path fill="none" data-z-index="1" class="highcharts-grid-line" d="M 122.5 98 L 122.5 132" opacity="1"></path><path fill="none" data-z-index="1" class="highcharts-grid-line" d="M 143.5 98 L 143.5 132" opacity="1"></path><path fill="none" data-z-index="1" class="highcharts-grid-line" d="M 165.5 98 L 165.5 132" opacity="1"></path><path fill="none" data-z-index="1" class="highcharts-grid-line" d="M 187.5 98 L 187.5 132" opacity="1"></path><path fill="none" data-z-index="1" class="highcharts-grid-line" d="M 208.5 98 L 208.5 132" opacity="1"></path><path fill="none" data-z-index="1" class="highcharts-grid-line" d="M 230.5 98 L 230.5 132" opacity="1"></path><path fill="none" data-z-index="1" class="highcharts-grid-line" d="M 251.5 98 L 251.5 132" opacity="1"></path><path fill="none" data-z-index="1" class="highcharts-grid-line" d="M 273.5 98 L 273.5 132" opacity="1"></path><path fill="none" data-z-index="1" class="highcharts-grid-line" d="M 57.5 98 L 57.5 132" opacity="1"></path></g><g class="highcharts-grid highcharts-yaxis-grid" data-z-index="1"><path fill="none" stroke="#e6e6e6" stroke-width="1" data-z-index="1" class="highcharts-grid-line" d="M 58 132.5 L 274 132.5" opacity="1"></path><path fill="none" stroke="#e6e6e6" stroke-width="1" data-z-index="1" class="highcharts-grid-line" d="M 58 97.5 L 274 97.5" opacity="1"></path></g><g class="highcharts-grid highcharts-yaxis-grid" data-z-index="1"><path fill="none" data-z-index="1" class="highcharts-grid-line" d="M 58 132.5 L 274 132.5" opacity="1"></path><path fill="none" data-z-index="1" class="highcharts-grid-line" d="M 58 98.5 L 274 98.5" opacity="1"></path></g><rect fill="none" class="highcharts-plot-border" data-z-index="1" x="58" y="98" width="216" height="34"></rect><g class="highcharts-axis highcharts-xaxis" data-z-index="2"><path fill="none" class="highcharts-axis-line" stroke="#B9CFD7" stroke-width="0.5" data-z-index="7" d="M 58 132.25 L 274 132.25"></path></g><g class="highcharts-axis highcharts-yaxis" data-z-index="2"><path fill="none" class="highcharts-axis-line" data-z-index="7" d="M 58 98 L 58 132"></path></g><g class="highcharts-axis highcharts-yaxis" data-z-index="2"><path fill="none" class="highcharts-axis-line" data-z-index="7" d="M 274 98 L 274 132"></path></g><g class="highcharts-series-group" data-z-index="3"><g data-z-index="0.1" class="highcharts-series highcharts-series-0 highcharts-column-series " transform="translate(58,98) scale(1 1)" clip-path="url(#highcharts-nbwtngp-49-)"><rect x="4" y="3" width="7" height="32" fill="#246370" opacity="1" class="highcharts-point"></rect><rect x="26" y="14" width="6" height="21" fill="#246370" opacity="1" class="highcharts-point"></rect><rect x="48" y="15" width="6" height="20" fill="#246370" opacity="1" class="highcharts-point"></rect><rect x="69" y="17" width="7" height="18" fill="#246370" opacity="1" class="highcharts-point"></rect><rect x="91" y="18" width="6" height="17" fill="#246370" opacity="1" class="highcharts-point"></rect><rect x="112" y="18" width="7" height="17" fill="#246370" opacity="1" class="highcharts-point"></rect><rect x="134" y="20" width="6" height="15" fill="#246370" opacity="1" class="highcharts-point"></rect><rect x="156" y="21" width="6" height="14" fill="#246370" opacity="1" class="highcharts-point"></rect><rect x="177" y="22" width="7" height="13" fill="#246370" opacity="1" class="highcharts-point"></rect><rect x="199" y="22" width="6" height="13" fill="#246370" opacity="1" class="highcharts-point"></rect></g><g data-z-index="0.1" class="highcharts-markers highcharts-series-0 highcharts-column-series " transform="translate(58,98) scale(1 1)" clip-path="none"></g><g data-z-index="0.1" class="highcharts-series highcharts-series-1 highcharts-column-series " transform="translate(58,98) scale(1 1)" clip-path="url(#highcharts-nbwtngp-49-)"><rect x="11" y="18" width="6" height="17" fill="#A8C3CA" opacity="1" class="highcharts-point"></rect><rect x="32" y="16" width="7" height="19" fill="#A8C3CA" opacity="1" class="highcharts-point"></rect><rect x="54" y="19" width="6" height="16" fill="#A8C3CA" opacity="1" class="highcharts-point"></rect><rect x="76" y="21" width="6" height="14" fill="#A8C3CA" opacity="1" class="highcharts-point"></rect><rect x="97" y="25" width="7" height="10" fill="#A8C3CA" opacity="1" class="highcharts-point"></rect><rect x="119" y="20" width="6" height="15" fill="#A8C3CA" opacity="1" class="highcharts-point"></rect><rect x="140" y="26" width="7" height="9" fill="#A8C3CA" opacity="1" class="highcharts-point"></rect><rect x="162" y="25" width="6" height="10" fill="#A8C3CA" opacity="1" class="highcharts-point"></rect><rect x="184" y="22" width="6" height="13" fill="#A8C3CA" opacity="1" class="highcharts-point"></rect><rect x="205" y="27" width="7" height="8" fill="#A8C3CA" opacity="1" class="highcharts-point"></rect></g><g data-z-index="0.1" class="highcharts-markers highcharts-series-1 highcharts-column-series " transform="translate(58,98) scale(1 1)" clip-path="none"></g><g data-z-index="0.1" class="highcharts-series highcharts-series-2 highcharts-scatter-series " transform="translate(58,98) scale(1 1)" clip-path="url(#highcharts-nbwtngp-70-)"></g><g data-z-index="0.1" class="highcharts-markers highcharts-series-2 highcharts-scatter-series " transform="translate(58,98) scale(1 1)" clip-path="none"><path fill="#b00000" d="M 10 23 A 4 4 0 1 1 10.003999999333336 22.99999800000017 Z" opacity="1" class="highcharts-point"></path><path fill="#b00000" d="M 32 36 A 4 4 0 1 1 32.00399999933334 35.99999800000017 Z" opacity="1" class="highcharts-point"></path><path fill="#b00000" d="M 54 35 A 4 4 0 1 1 54.00399999933334 34.99999800000017 Z" opacity="1" class="highcharts-point"></path><path fill="#b00000" d="M 75 10 A 4 4 0 1 1 75.00399999933333 9.999998000000167 Z" opacity="1" class="highcharts-point"></path><path fill="#b00000" d="M 97 34 A 4 4 0 1 1 97.00399999933333 33.99999800000017 Z" opacity="1" class="highcharts-point"></path><path fill="#b00000" d="M 118 35 A 4 4 0 1 1 118.00399999933333 34.99999800000017 Z" opacity="1" class="highcharts-point"></path><path fill="#b00000" d="M 140 35 A 4 4 0 1 1 140.00399999933333 34.99999800000017 Z" opacity="1" class="highcharts-point"></path><path fill="#b00000" d="M 162 28 A 4 4 0 1 1 162.00399999933333 27.99999800000017 Z" opacity="1" class="highcharts-point"></path><path fill="#b00000" d="M 183 30 A 4 4 0 1 1 183.00399999933333 29.99999800000017 Z" opacity="1" class="highcharts-point"></path><path fill="#b00000" d="M 205 14 A 4 4 0 1 1 205.00399999933333 13.999998000000167 Z" opacity="1" class="highcharts-point"></path></g></g><text x="2" text-anchor="start" class="highcharts-title" data-z-index="4" style="color:#000000;font-size:10px;font-weight:bold;fill:#000000;" y="9"><tspan>Mittelwert und Median des Reineinkommens</tspan><tspan dy="13" x="2">pro Veranlagung</tspan></text><text x="2" text-anchor="start" class="highcharts-subtitle" data-z-index="4" style="color:#000000;font-size:10px;font-weight:normal;font-family:Arial;fill:#000000;" y="38"><tspan>nach Staatsangehörigkeit, Top 10 der Mittelwerte in</tspan><tspan dy="13" x="2">Basel-Stadt, Steuerjahr 2015</tspan></text><text x="2" text-anchor="start" class="highcharts-caption" data-z-index="4" style="color:#666666;fill:#666666;" y="218"></text><g class="highcharts-legend" data-z-index="7" transform="translate(55,65)"><rect fill="none" class="highcharts-legend-box" rx="0" ry="0" x="0" y="0" width="210" height="21" visibility="visible"></rect><g data-z-index="1"><g><g class="highcharts-legend-item highcharts-column-series highcharts-color-undefined highcharts-series-0" data-z-index="1" transform="translate(0,-5)"><text x="21" style="color:#333333;cursor:pointer;font-size:10px;font-weight:normal;fill:#333333;" text-anchor="start" data-z-index="2" y="13"><tspan>Mittelwert</tspan></text><rect x="3" y="4" width="10" height="10" fill="#246370" class="highcharts-point" data-z-index="3"></rect></g><g class="highcharts-legend-item highcharts-column-series highcharts-color-undefined highcharts-series-1" data-z-index="1" transform="translate(94.78125,-5)"><text x="21" y="13" style="color:#333333;cursor:pointer;font-size:10px;font-weight:normal;fill:#333333;" text-anchor="start" data-z-index="2"><tspan>Median</tspan></text><rect x="3" y="4" width="10" height="10" fill="#A8C3CA" class="highcharts-point" data-z-index="3"></rect></g><g class="highcharts-legend-item highcharts-scatter-series highcharts-color-undefined highcharts-series-2" data-z-index="1" transform="translate(0,8)"><path fill="none" d="M 0 10 L 16 10" class="highcharts-graph"></path><path fill="#b00000" d="M 8 14 A 4 4 0 1 1 8.003999999333336 13.999998000000167 Z" class="highcharts-point" opacity="1"></path><text x="21" y="13" style="color:#333333;cursor:pointer;font-size:10px;font-weight:normal;fill:#333333;" text-anchor="start" data-z-index="2"><tspan>Anzahl Veranlagungen (rechte Skala)</tspan></text></g></g></g></g><g class="highcharts-axis-labels highcharts-xaxis-labels" data-z-index="7"><text x="71.15702260395516" style="color:#000000;cursor:default;font-size:10px;fill:#000000;" text-anchor="end" transform="translate(0,0) rotate(-45 71.15702260395516 147)" y="147" opacity="1">USA</text><text x="92.75702260395516" style="color:#000000;cursor:default;font-size:10px;fill:#000000;" text-anchor="end" transform="translate(0,0) rotate(-45 92.75702260395516 147)" y="147" opacity="1">Australien</text><text x="114.35702260395516" style="color:#000000;cursor:default;font-size:10px;fill:#000000;" text-anchor="end" transform="translate(0,0) rotate(-45 114.35702260395516 147)" y="147" opacity="1">Kanada</text><text x="135.95702260395515" style="color:#000000;cursor:default;font-size:10px;fill:#000000;" text-anchor="end" transform="translate(0,0) rotate(-45 135.95702260395515 147)" y="147" opacity="1">Grossbritannien</text><text x="157.55702260395515" style="color:#000000;cursor:default;font-size:10px;fill:#000000;" text-anchor="end" transform="translate(0,0) rotate(-45 157.55702260395515 147)" y="147" opacity="1">Belgien</text><text x="179.15702260395514" style="color:#000000;cursor:default;font-size:10px;fill:#000000;" text-anchor="end" transform="translate(0,0) rotate(-45 179.15702260395514 147)" y="147" opacity="1">Irland</text><text x="200.75702260395514" style="color:#000000;cursor:default;font-size:10px;fill:#000000;" text-anchor="end" transform="translate(0,0) rotate(-45 200.75702260395514 147)" y="147" opacity="1">Dänemark</text><text x="222.35702260395516" style="color:#000000;cursor:default;font-size:10px;fill:#000000;" text-anchor="end" transform="translate(0,0) rotate(-45 222.35702260395516 147)" y="147" opacity="1">Niederlande</text><text x="243.95702260395515" style="color:#000000;cursor:default;font-size:10px;fill:#000000;" text-anchor="end" transform="translate(0,0) rotate(-45 243.95702260395515 147)" y="147" opacity="1">Indien</text><text x="265.55702260395515" style="color:#000000;cursor:default;font-size:10px;fill:#000000;" text-anchor="end" transform="translate(0,0) rotate(-45 265.55702260395515 147)" y="147" opacity="1">Frankreich</text></g><g class="highcharts-axis-labels highcharts-yaxis-labels" data-z-index="7"><text x="43" style="color:#000000;cursor:default;font-size:10px;fill:#000000;" text-anchor="end" transform="translate(0,0)" y="137" opacity="1">0</text><text x="43" style="color:#000000;cursor:default;font-size:10px;fill:#000000;" text-anchor="end" transform="translate(0,0)" y="103" opacity="1"><tspan>320 000</tspan></text></g><g class="highcharts-axis-labels highcharts-yaxis-labels" data-z-index="7"><text x="289" style="color:#000000;cursor:default;font-size:10px;fill:#000000;" text-anchor="start" transform="translate(0,0)" y="137" opacity="1">0</text><text x="289" style="color:#000000;cursor:default;font-size:10px;fill:#000000;" text-anchor="start" transform="translate(0,0)" y="103" opacity="1"><tspan>1 200</tspan></text></g><text x="10" class="highcharts-credits" text-anchor="start" data-z-index="8" style="cursor:default;color:#000000;font-size:10;fill:#000000;" y="193"><tspan>Quelle: Statistisches Amt Basel-Stadt, Steuerstatistik.</tspan></text></svg>