<?xml version="1.0" standalone="no"?><!DOCTYPE svg PUBLIC "-//W3C//DTD SVG 1.1//EN" "http://www.w3.org/Graphics/SVG/1.1/DTD/svg11.dtd"><svg xmlns:xlink="http://www.w3.org/1999/xlink" version="1.1" class="highcharts-root" style="font-family:Arial;font-size:10px;" xmlns="http://www.w3.org/2000/svg" viewBox="0 0 485 415"><desc>Created with Highcharts 7.2.1</desc><defs><clipPath id="highcharts-xscgcrz-101-"><rect x="0" y="0" width="480" height="85" fill="none"></rect></clipPath><clipPath id="highcharts-xscgcrz-121-"><rect x="0" y="0" width="480" height="85" fill="none"></rect></clipPath></defs><rect fill="#fbfbfb" class="highcharts-background" x="0" y="0" width="665" height="208" rx="0" ry="0"></rect><rect fill="none" class="highcharts-plot-background" x="75" y="51" width="480" height="85"></rect><g class="highcharts-pane-group" data-z-index="0"></g><g class="highcharts-grid highcharts-xaxis-grid" data-z-index="1"><path fill="none" data-z-index="1" class="highcharts-grid-line" d="M 529.5 51 L 529.5 136" opacity="1"></path><path fill="none" data-z-index="1" class="highcharts-grid-line" d="M 503.5 51 L 503.5 136" opacity="1"></path><path fill="none" data-z-index="1" class="highcharts-grid-line" d="M 478.5 51 L 478.5 136" opacity="1"></path><path fill="none" data-z-index="1" class="highcharts-grid-line" d="M 453.5 51 L 453.5 136" opacity="1"></path><path fill="none" data-z-index="1" class="highcharts-grid-line" d="M 428.5 51 L 428.5 136" opacity="1"></path><path fill="none" data-z-index="1" class="highcharts-grid-line" d="M 402.5 51 L 402.5 136" opacity="1"></path><path fill="none" data-z-index="1" class="highcharts-grid-line" d="M 377.5 51 L 377.5 136" opacity="1"></path><path fill="none" data-z-index="1" class="highcharts-grid-line" d="M 352.5 51 L 352.5 136" opacity="1"></path><path fill="none" data-z-index="1" class="highcharts-grid-line" d="M 327.5 51 L 327.5 136" opacity="1"></path><path fill="none" data-z-index="1" class="highcharts-grid-line" d="M 301.5 51 L 301.5 136" opacity="1"></path><path fill="none" data-z-index="1" class="highcharts-grid-line" d="M 276.5 51 L 276.5 136" opacity="1"></path><path fill="none" data-z-index="1" class="highcharts-grid-line" d="M 251.5 51 L 251.5 136" opacity="1"></path><path fill="none" data-z-index="1" class="highcharts-grid-line" d="M 226.5 51 L 226.5 136" opacity="1"></path><path fill="none" data-z-index="1" class="highcharts-grid-line" d="M 200.5 51 L 200.5 136" opacity="1"></path><path fill="none" data-z-index="1" class="highcharts-grid-line" d="M 175.5 51 L 175.5 136" opacity="1"></path><path fill="none" data-z-index="1" class="highcharts-grid-line" d="M 150.5 51 L 150.5 136" opacity="1"></path><path fill="none" data-z-index="1" class="highcharts-grid-line" d="M 125.5 51 L 125.5 136" opacity="1"></path><path fill="none" data-z-index="1" class="highcharts-grid-line" d="M 99.5 51 L 99.5 136" opacity="1"></path><path fill="none" data-z-index="1" class="highcharts-grid-line" d="M 74.5 51 L 74.5 136" opacity="1"></path><path fill="none" data-z-index="1" class="highcharts-grid-line" d="M 554.5 51 L 554.5 136" opacity="1"></path></g><g class="highcharts-grid highcharts-yaxis-grid" data-z-index="1"><path fill="none" stroke="#B9CFD7" stroke-width="0.5" data-z-index="1" class="highcharts-grid-line" d="M 75 136.25 L 555 136.25" opacity="1"></path><path fill="none" stroke="#B9CFD7" stroke-width="0.5" data-z-index="1" class="highcharts-grid-line" d="M 75 115.25 L 555 115.25" opacity="1"></path><path fill="none" stroke="#B9CFD7" stroke-width="0.5" data-z-index="1" class="highcharts-grid-line" d="M 75 94.25 L 555 94.25" opacity="1"></path><path fill="none" stroke="#B9CFD7" stroke-width="0.5" data-z-index="1" class="highcharts-grid-line" d="M 75 72.25 L 555 72.25" opacity="1"></path><path fill="none" stroke="#B9CFD7" stroke-width="0.5" data-z-index="1" class="highcharts-grid-line" d="M 75 51.25 L 555 51.25" opacity="1"></path></g><rect fill="none" class="highcharts-plot-border" data-z-index="1" x="75" y="51" width="480" height="85"></rect><g class="highcharts-axis highcharts-xaxis" data-z-index="2"><path fill="none" class="highcharts-axis-line" stroke="#B9CFD7" stroke-width="0.5" data-z-index="7" d="M 75 136.25 L 555 136.25"></path></g><g class="highcharts-axis highcharts-yaxis" data-z-index="2"><path fill="none" class="highcharts-axis-line" data-z-index="7" d="M 75 51 L 75 136"></path></g><g class="highcharts-series-group" data-z-index="3"><g data-z-index="0.1" class="highcharts-series highcharts-series-0 highcharts-column-series" transform="translate(75,51) scale(1 1)" clip-path="url(#highcharts-xscgcrz-121-)"><rect x="457" y="0" width="20" height="2" fill="#999999" opacity="1" class="highcharts-point"></rect><rect x="432" y="0" width="20" height="2" fill="#999999" opacity="1" class="highcharts-point"></rect><rect x="407" y="1" width="20" height="0" fill="#999999" opacity="1" class="highcharts-point"></rect><rect x="356" y="0" width="20" height="2" fill="#999999" opacity="1" class="highcharts-point"></rect><rect x="331" y="0" width="20" height="2" fill="#999999" opacity="1" class="highcharts-point"></rect><rect x="306" y="0" width="20" height="2" fill="#999999" opacity="1" class="highcharts-point"></rect><rect x="255" y="0" width="20" height="2" fill="#999999" opacity="1" class="highcharts-point"></rect><rect x="230" y="0" width="20" height="2" fill="#999999" opacity="1" class="highcharts-point"></rect><rect x="205" y="1" width="20" height="0" fill="#999999" opacity="1" class="highcharts-point"></rect><rect x="154" y="0" width="20" height="2" fill="#999999" opacity="1" class="highcharts-point"></rect><rect x="129" y="0" width="20" height="2" fill="#999999" opacity="1" class="highcharts-point"></rect><rect x="104" y="0" width="20" height="2" fill="#999999" opacity="1" class="highcharts-point"></rect><rect x="53" y="0" width="20" height="2" fill="#999999" opacity="1" class="highcharts-point"></rect><rect x="28" y="0" width="20" height="2" fill="#999999" opacity="1" class="highcharts-point"></rect><rect x="3" y="0" width="20" height="3" fill="#999999" opacity="1" class="highcharts-point"></rect></g><g data-z-index="0.1" class="highcharts-markers highcharts-series-0 highcharts-column-series" transform="translate(75,51) scale(1 1)" clip-path="none"></g><g data-z-index="0.1" class="highcharts-series highcharts-series-1 highcharts-column-series" transform="translate(75,51) scale(1 1)" clip-path="url(#highcharts-xscgcrz-121-)"><rect x="457" y="2" width="20" height="1" fill="#dc440e" opacity="1" class="highcharts-point"></rect><rect x="432" y="2" width="20" height="1" fill="#dc440e" opacity="1" class="highcharts-point"></rect><rect x="407" y="0" width="20" height="4" fill="#dc440e" opacity="1" class="highcharts-point"></rect><rect x="356" y="2" width="20" height="2" fill="#dc440e" opacity="1" class="highcharts-point"></rect><rect x="331" y="2" width="20" height="2" fill="#dc440e" opacity="1" class="highcharts-point"></rect><rect x="306" y="2" width="20" height="4" fill="#dc440e" opacity="1" class="highcharts-point"></rect><rect x="255" y="2" width="20" height="1" fill="#dc440e" opacity="1" class="highcharts-point"></rect><rect x="230" y="2" width="20" height="1" fill="#dc440e" opacity="1" class="highcharts-point"></rect><rect x="205" y="0" width="20" height="5" fill="#dc440e" opacity="1" class="highcharts-point"></rect><rect x="154" y="2" width="20" height="2" fill="#dc440e" opacity="1" class="highcharts-point"></rect><rect x="129" y="2" width="20" height="2" fill="#dc440e" opacity="1" class="highcharts-point"></rect><rect x="104" y="2" width="20" height="3" fill="#dc440e" opacity="1" class="highcharts-point"></rect><rect x="53" y="2" width="20" height="2" fill="#dc440e" opacity="1" class="highcharts-point"></rect><rect x="28" y="2" width="20" height="2" fill="#dc440e" opacity="1" class="highcharts-point"></rect><rect x="3" y="3" width="20" height="3" fill="#dc440e" opacity="1" class="highcharts-point"></rect></g><g data-z-index="0.1" class="highcharts-markers highcharts-series-1 highcharts-column-series" transform="translate(75,51) scale(1 1)" clip-path="none"></g><g data-z-index="0.1" class="highcharts-series highcharts-series-2 highcharts-column-series" transform="translate(75,51) scale(1 1)" clip-path="url(#highcharts-xscgcrz-121-)"><rect x="457" y="3" width="20" height="7" fill="#ffbb58" opacity="1" class="highcharts-point"></rect><rect x="432" y="3" width="20" height="7" fill="#ffbb58" opacity="1" class="highcharts-point"></rect><rect x="407" y="4" width="20" height="10" fill="#ffbb58" opacity="1" class="highcharts-point"></rect><rect x="356" y="4" width="20" height="8" fill="#ffbb58" opacity="1" class="highcharts-point"></rect><rect x="331" y="4" width="20" height="8" fill="#ffbb58" opacity="1" class="highcharts-point"></rect><rect x="306" y="6" width="20" height="10" fill="#ffbb58" opacity="1" class="highcharts-point"></rect><rect x="255" y="3" width="20" height="11" fill="#ffbb58" opacity="1" class="highcharts-point"></rect><rect x="230" y="3" width="20" height="10" fill="#ffbb58" opacity="1" class="highcharts-point"></rect><rect x="205" y="5" width="20" height="14" fill="#ffbb58" opacity="1" class="highcharts-point"></rect><rect x="154" y="4" width="20" height="11" fill="#ffbb58" opacity="1" class="highcharts-point"></rect><rect x="129" y="4" width="20" height="10" fill="#ffbb58" opacity="1" class="highcharts-point"></rect><rect x="104" y="5" width="20" height="16" fill="#ffbb58" opacity="1" class="highcharts-point"></rect><rect x="53" y="4" width="20" height="12" fill="#ffbb58" opacity="1" class="highcharts-point"></rect><rect x="28" y="4" width="20" height="11" fill="#ffbb58" opacity="1" class="highcharts-point"></rect><rect x="3" y="6" width="20" height="14" fill="#ffbb58" opacity="1" class="highcharts-point"></rect></g><g data-z-index="0.1" class="highcharts-markers highcharts-series-2 highcharts-column-series" transform="translate(75,51) scale(1 1)" clip-path="none"></g><g data-z-index="0.1" class="highcharts-series highcharts-series-3 highcharts-column-series" transform="translate(75,51) scale(1 1)" clip-path="url(#highcharts-xscgcrz-121-)"><rect x="457" y="10" width="20" height="49" fill="#68ab2b" opacity="1" class="highcharts-point"></rect><rect x="432" y="10" width="20" height="49" fill="#68ab2b" opacity="1" class="highcharts-point"></rect><rect x="407" y="14" width="20" height="45" fill="#68ab2b" opacity="1" class="highcharts-point"></rect><rect x="356" y="12" width="20" height="47" fill="#68ab2b" opacity="1" class="highcharts-point"></rect><rect x="331" y="12" width="20" height="46" fill="#68ab2b" opacity="1" class="highcharts-point"></rect><rect x="306" y="16" width="20" height="48" fill="#68ab2b" opacity="1" class="highcharts-point"></rect><rect x="255" y="14" width="20" height="55" fill="#68ab2b" opacity="1" class="highcharts-point"></rect><rect x="230" y="13" width="20" height="55" fill="#68ab2b" opacity="1" class="highcharts-point"></rect><rect x="205" y="19" width="20" height="54" fill="#68ab2b" opacity="1" class="highcharts-point"></rect><rect x="154" y="15" width="20" height="55" fill="#68ab2b" opacity="1" class="highcharts-point"></rect><rect x="129" y="14" width="20" height="56" fill="#68ab2b" opacity="1" class="highcharts-point"></rect><rect x="104" y="21" width="20" height="46" fill="#68ab2b" opacity="1" class="highcharts-point"></rect><rect x="53" y="16" width="20" height="52" fill="#68ab2b" opacity="1" class="highcharts-point"></rect><rect x="28" y="15" width="20" height="52" fill="#68ab2b" opacity="1" class="highcharts-point"></rect><rect x="3" y="20" width="20" height="55" fill="#68ab2b" opacity="1" class="highcharts-point"></rect></g><g data-z-index="0.1" class="highcharts-markers highcharts-series-3 highcharts-column-series" transform="translate(75,51) scale(1 1)" clip-path="none"></g><g data-z-index="0.1" class="highcharts-series highcharts-series-4 highcharts-column-series" transform="translate(75,51) scale(1 1)" clip-path="url(#highcharts-xscgcrz-121-)"><rect x="457" y="59" width="20" height="27" fill="#007a2f" opacity="1" class="highcharts-point"></rect><rect x="432" y="59" width="20" height="27" fill="#007a2f" opacity="1" class="highcharts-point"></rect><rect x="407" y="59" width="20" height="27" fill="#007a2f" opacity="1" class="highcharts-point"></rect><rect x="356" y="59" width="20" height="27" fill="#007a2f" opacity="1" class="highcharts-point"></rect><rect x="331" y="58" width="20" height="28" fill="#007a2f" opacity="1" class="highcharts-point"></rect><rect x="306" y="64" width="20" height="22" fill="#007a2f" opacity="1" class="highcharts-point"></rect><rect x="255" y="69" width="20" height="17" fill="#007a2f" opacity="1" class="highcharts-point"></rect><rect x="230" y="68" width="20" height="18" fill="#007a2f" opacity="1" class="highcharts-point"></rect><rect x="205" y="73" width="20" height="13" fill="#007a2f" opacity="1" class="highcharts-point"></rect><rect x="154" y="70" width="20" height="16" fill="#007a2f" opacity="1" class="highcharts-point"></rect><rect x="129" y="70" width="20" height="16" fill="#007a2f" opacity="1" class="highcharts-point"></rect><rect x="104" y="67" width="20" height="19" fill="#007a2f" opacity="1" class="highcharts-point"></rect><rect x="53" y="68" width="20" height="18" fill="#007a2f" opacity="1" class="highcharts-point"></rect><rect x="28" y="67" width="20" height="19" fill="#007a2f" opacity="1" class="highcharts-point"></rect><rect x="3" y="75" width="20" height="11" fill="#007a2f" opacity="1" class="highcharts-point"></rect></g><g data-z-index="0.1" class="highcharts-markers highcharts-series-4 highcharts-column-series" transform="translate(75,51) scale(1 1)" clip-path="none"></g></g><text x="333" text-anchor="middle" class="highcharts-title" data-z-index="4" style="color:#333333;font-size:18px;fill:#333333;" y="19"><tspan>Einschätzung der wirtschaftlichen Lage</tspan></text><text x="333" text-anchor="middle" class="highcharts-subtitle" data-z-index="4" style="color:#666666;fill:#666666;" y="37"><tspan>«Darf ich Sie fragen, wie es Ihnen wirtschaftlich gesehen im Moment geht?»</tspan></text><text x="2" text-anchor="start" class="highcharts-caption" data-z-index="4" style="color:#666666;fill:#666666;" y="214"></text><g class="highcharts-legend" data-z-index="7" transform="translate(567,57)"><rect fill="none" class="highcharts-legend-box" rx="0" ry="0" x="0" y="0" width="95" height="88" visibility="visible"></rect><g data-z-index="1"><g><g class="highcharts-legend-item highcharts-column-series highcharts-color-undefined highcharts-series-0" data-z-index="1" transform="translate(0,-5)"><text x="21" style="color:#333333;cursor:pointer;font-size:10px;font-weight:normal;font-family:Arial;whitespace:nowrap;fill:#333333;" text-anchor="start" data-z-index="2" y="13"><tspan>Weiss nicht /</tspan><tspan x="21" dy="13">Keine Angabe</tspan></text><rect x="3" y="4" width="10" height="10" fill="#999999" class="highcharts-point" data-z-index="3"></rect></g><g class="highcharts-legend-item highcharts-column-series highcharts-color-undefined highcharts-series-1" data-z-index="1" transform="translate(0,24)"><text x="21" y="13" style="color:#333333;cursor:pointer;font-size:10px;font-weight:normal;font-family:Arial;whitespace:nowrap;fill:#333333;" text-anchor="start" data-z-index="2"><tspan>Gar nicht gut</tspan></text><rect x="3" y="4" width="10" height="10" fill="#dc440e" class="highcharts-point" data-z-index="3"></rect></g><g class="highcharts-legend-item highcharts-column-series highcharts-color-undefined highcharts-series-2" data-z-index="1" transform="translate(0,40)"><text x="21" y="13" style="color:#333333;cursor:pointer;font-size:10px;font-weight:normal;font-family:Arial;whitespace:nowrap;fill:#333333;" text-anchor="start" data-z-index="2"><tspan>Eher nicht so gut</tspan></text><rect x="3" y="4" width="10" height="10" fill="#ffbb58" class="highcharts-point" data-z-index="3"></rect></g><g class="highcharts-legend-item highcharts-column-series highcharts-color-undefined highcharts-series-3" data-z-index="1" transform="translate(0,56)"><text x="21" y="13" style="color:#333333;cursor:pointer;font-size:10px;font-weight:normal;font-family:Arial;whitespace:nowrap;fill:#333333;" text-anchor="start" data-z-index="2"><tspan>Eher gut</tspan></text><rect x="3" y="4" width="10" height="10" fill="#68ab2b" class="highcharts-point" data-z-index="3"></rect></g><g class="highcharts-legend-item highcharts-column-series highcharts-color-undefined highcharts-series-4" data-z-index="1" transform="translate(0,72)"><text x="21" y="13" style="color:#333333;cursor:pointer;font-size:10px;font-weight:normal;font-family:Arial;whitespace:nowrap;fill:#333333;" text-anchor="start" data-z-index="2"><tspan>Sehr gut</tspan></text><rect x="3" y="4" width="10" height="10" fill="#007a2f" class="highcharts-point" data-z-index="3"></rect></g></g></g></g><g class="highcharts-axis-labels highcharts-xaxis-labels" data-z-index="7"><text x="539.7017543859619" style="color:#000000;cursor:default;font-size:10px;white-space:nowrap;fill:#000000;" text-anchor="end" transform="translate(0,0) rotate(-90 539.7017543859619 146)" y="146" opacity="1"><tspan>2015 Total</tspan><tspan x="539.7017543859619" dy="13">(N=1001)</tspan></text><text x="514.4385964912317" style="color:#000000;cursor:default;font-size:10px;white-space:nowrap;fill:#000000;" text-anchor="end" transform="translate(0,0) rotate(-90 514.4385964912317 146)" y="146" opacity="1"><tspan>2015 Schweiz</tspan><tspan x="514.4385964912317" dy="13">(N=884)</tspan></text><text x="489.17543859649174" style="color:#000000;cursor:default;font-size:10px;white-space:nowrap;fill:#000000;" text-anchor="end" transform="translate(0,0) rotate(-90 489.17543859649174 146)" y="146" opacity="1"><tspan>2015 Ausland</tspan><tspan x="489.17543859649174" dy="13">(N=117)</tspan></text><text x="463.91228070175174" style="color:#000000;cursor:default;font-size:10px;white-space:nowrap;fill:#000000;" text-anchor="end" transform="translate(0,0) rotate(-90 463.91228070175174 146)" y="146" opacity="1"></text><text x="438.64912280702174" style="color:#000000;cursor:default;font-size:10px;white-space:nowrap;fill:#000000;" text-anchor="end" transform="translate(0,0) rotate(-90 438.64912280702174 146)" y="146" opacity="1"><tspan>2011 Total</tspan><tspan x="438.64912280702174" dy="13">(N=1009)</tspan></text><text x="413.38596491228174" style="color:#000000;cursor:default;font-size:10px;white-space:nowrap;fill:#000000;" text-anchor="end" transform="translate(0,0) rotate(-90 413.38596491228174 146)" y="146" opacity="1"><tspan>2011 Schweiz</tspan><tspan x="413.38596491228174" dy="13">(N=873)</tspan></text><text x="388.12280701754173" style="color:#000000;cursor:default;font-size:10px;white-space:nowrap;fill:#000000;" text-anchor="end" transform="translate(0,0) rotate(-90 388.12280701754173 146)" y="146" opacity="1"><tspan>2011 Ausland</tspan><tspan x="388.12280701754173" dy="13">(N=136)</tspan></text><text x="362.85964912281173" style="color:#000000;cursor:default;font-size:10px;white-space:nowrap;fill:#000000;" text-anchor="end" transform="translate(0,0) rotate(-90 362.85964912281173 146)" y="146" opacity="1"></text><text x="337.5964912280717" style="color:#000000;cursor:default;font-size:10px;white-space:nowrap;fill:#000000;" text-anchor="end" transform="translate(0,0) rotate(-90 337.5964912280717 146)" y="146" opacity="1"><tspan>2007 Total</tspan><tspan x="337.5964912280717" dy="13">(N=762)</tspan></text><text x="312.3333333333318" style="color:#000000;cursor:default;font-size:10px;white-space:nowrap;fill:#000000;" text-anchor="end" transform="translate(0,0) rotate(-90 312.3333333333318 146)" y="146" opacity="1"><tspan>2007 Schweiz</tspan><tspan x="312.3333333333318" dy="13">(N=659)</tspan></text><text x="287.0701754385918" style="color:#000000;cursor:default;font-size:10px;white-space:nowrap;fill:#000000;" text-anchor="end" transform="translate(0,0) rotate(-90 287.0701754385918 146)" y="146" opacity="1"><tspan>2007 Ausland</tspan><tspan x="287.0701754385918" dy="13">(N=103)</tspan></text><text x="261.8070175438618" style="color:#000000;cursor:default;font-size:10px;white-space:nowrap;fill:#000000;" text-anchor="end" transform="translate(0,0) rotate(-90 261.8070175438618 146)" y="146" opacity="1"></text><text x="236.54385964912174" style="color:#000000;cursor:default;font-size:10px;white-space:nowrap;fill:#000000;" text-anchor="end" transform="translate(0,0) rotate(-90 236.54385964912174 146)" y="146" opacity="1"><tspan>2005 Total</tspan><tspan x="236.54385964912174" dy="13">(N=782)</tspan></text><text x="211.28070175438177" style="color:#000000;cursor:default;font-size:10px;white-space:nowrap;fill:#000000;" text-anchor="end" transform="translate(0,0) rotate(-90 211.28070175438177 146)" y="146" opacity="1"><tspan>2005 Schweiz</tspan><tspan x="211.28070175438177" dy="13">(N=675)</tspan></text><text x="186.01754385965177" style="color:#000000;cursor:default;font-size:10px;white-space:nowrap;fill:#000000;" text-anchor="end" transform="translate(0,0) rotate(-90 186.01754385965177 146)" y="146" opacity="1"><tspan>2005 Ausland</tspan><tspan x="186.01754385965177" dy="13">(N=107)</tspan></text><text x="160.75438596491176" style="color:#000000;cursor:default;font-size:10px;white-space:nowrap;fill:#000000;" text-anchor="end" transform="translate(0,0) rotate(-90 160.75438596491176 146)" y="146" opacity="1"></text><text x="135.49122807017176" style="color:#000000;cursor:default;font-size:10px;white-space:nowrap;fill:#000000;" text-anchor="end" transform="translate(0,0) rotate(-90 135.49122807017176 146)" y="146" opacity="1"><tspan>2003 Total</tspan><tspan x="135.49122807017176" dy="13">(N=1497)</tspan></text><text x="110.22807017544176" style="color:#000000;cursor:default;font-size:10px;white-space:nowrap;fill:#000000;" text-anchor="end" transform="translate(0,0) rotate(-90 110.22807017544176 146)" y="146" opacity="1"><tspan>2003 Schweiz</tspan><tspan x="110.22807017544176" dy="13">(N=1291)</tspan></text><text x="84.96491228070175" style="color:#000000;cursor:default;font-size:10px;white-space:nowrap;fill:#000000;" text-anchor="end" transform="translate(0,0) rotate(-90 84.96491228070175 146)" y="146" opacity="1"><tspan>2003 Ausland</tspan><tspan x="84.96491228070175" dy="13">(N=206)</tspan></text></g><g class="highcharts-axis-labels highcharts-yaxis-labels" data-z-index="7"><text x="60" style="color:#000000;cursor:default;font-size:10px;fill:#000000;" text-anchor="end" transform="translate(0,0)" y="139" opacity="1">0%</text><text x="60" style="color:#000000;cursor:default;font-size:10px;fill:#000000;" text-anchor="end" transform="translate(0,0)" y="118" opacity="1">25%</text><text x="60" style="color:#000000;cursor:default;font-size:10px;fill:#000000;" text-anchor="end" transform="translate(0,0)" y="97" opacity="1">50%</text><text x="60" style="color:#000000;cursor:default;font-size:10px;fill:#000000;" text-anchor="end" transform="translate(0,0)" y="75" opacity="1">75%</text><text x="60" style="color:#000000;cursor:default;font-size:10px;fill:#000000;" text-anchor="end" transform="translate(0,0)" y="54" opacity="1">100%</text></g><text x="655" class="highcharts-credits" text-anchor="end" data-z-index="8" style="cursor:pointer;color:#999999;font-size:9px;fill:#999999;" y="193"><tspan>Quelle: Statistisches Amt Basel-Stadt, kantonale Bevölkerungsbefragung: F14b.</tspan></text></svg>