<?xml version="1.0" standalone="no"?><!DOCTYPE svg PUBLIC "-//W3C//DTD SVG 1.1//EN" "http://www.w3.org/Graphics/SVG/1.1/DTD/svg11.dtd"><svg xmlns:xlink="http://www.w3.org/1999/xlink" version="1.1" class="highcharts-root" style="font-family:Arial;font-size:12px;" xmlns="http://www.w3.org/2000/svg" viewBox="0 0 485 415"><desc>Created with Highcharts 7.1.2</desc><defs><clipPath id="highcharts-wf1rnd6-33-"><rect x="0" y="0" width="273" height="115" fill="none"></rect></clipPath><clipPath id="highcharts-wf1rnd6-43-"><rect x="0" y="0" width="273" height="115" fill="none"></rect></clipPath></defs><rect fill="#fbfbfb" class="highcharts-background" x="0" y="0" width="320" height="208" rx="0" ry="0"></rect><rect fill="none" class="highcharts-plot-background" x="42" y="62" width="273" height="115"></rect><g class="highcharts-pane-group" data-z-index="0"></g><g class="highcharts-grid highcharts-xaxis-grid" data-z-index="1"><path fill="none" data-z-index="1" class="highcharts-grid-line" d="M 44.5 62 L 44.5 177" opacity="1"></path><path fill="none" data-z-index="1" class="highcharts-grid-line" d="M 77.5 62 L 77.5 177" opacity="1"></path><path fill="none" data-z-index="1" class="highcharts-grid-line" d="M 111.5 62 L 111.5 177" opacity="1"></path><path fill="none" data-z-index="1" class="highcharts-grid-line" d="M 144.5 62 L 144.5 177" opacity="1"></path><path fill="none" data-z-index="1" class="highcharts-grid-line" d="M 178.5 62 L 178.5 177" opacity="1"></path><path fill="none" data-z-index="1" class="highcharts-grid-line" d="M 211.5 62 L 211.5 177" opacity="1"></path><path fill="none" data-z-index="1" class="highcharts-grid-line" d="M 244.5 62 L 244.5 177" opacity="1"></path><path fill="none" data-z-index="1" class="highcharts-grid-line" d="M 278.5 62 L 278.5 177" opacity="1"></path><path fill="none" data-z-index="1" class="highcharts-grid-line" d="M 311.5 62 L 311.5 177" opacity="1"></path></g><g class="highcharts-grid highcharts-yaxis-grid" data-z-index="1"><path fill="none" stroke="#B9CFD7" stroke-width="0.5" data-z-index="1" class="highcharts-grid-line" d="M 42 177.25 L 315 177.25" opacity="1"></path><path fill="none" stroke="#B9CFD7" stroke-width="0.5" data-z-index="1" class="highcharts-grid-line" d="M 42 154.25 L 315 154.25" opacity="1"></path><path fill="none" stroke="#B9CFD7" stroke-width="0.5" data-z-index="1" class="highcharts-grid-line" d="M 42 131.25 L 315 131.25" opacity="1"></path><path fill="none" stroke="#B9CFD7" stroke-width="0.5" data-z-index="1" class="highcharts-grid-line" d="M 42 108.25 L 315 108.25" opacity="1"></path><path fill="none" stroke="#B9CFD7" stroke-width="0.5" data-z-index="1" class="highcharts-grid-line" d="M 42 85.25 L 315 85.25" opacity="1"></path><path fill="none" stroke="#B9CFD7" stroke-width="0.5" data-z-index="1" class="highcharts-grid-line" d="M 42 61.75 L 315 61.75" opacity="1"></path></g><rect fill="none" class="highcharts-plot-border" data-z-index="1" x="42" y="62" width="273" height="115"></rect><g class="highcharts-axis highcharts-xaxis" data-z-index="2"><path fill="none" class="highcharts-axis-line" stroke="#B9CFD7" stroke-width="0.5" data-z-index="7" d="M 42 177.25 L 315 177.25"></path></g><g class="highcharts-axis highcharts-yaxis" data-z-index="2"><path fill="none" class="highcharts-axis-line" data-z-index="7" d="M 42 62 L 42 177"></path></g><g class="highcharts-series-group" data-z-index="3"><g data-z-index="0.1" class="highcharts-series highcharts-series-0 highcharts-area-series " transform="translate(42,62) scale(1 1)" clip-path="url(#highcharts-wf1rnd6-43-)"><path fill="rgb(255,128,40)" fill-opacity="0.75" d="M 2.6764705882329 29.531999999999996 L 36.132352941175 27.048000000000002 L 69.588235294116 7.820000000000007 L 103.04411764706 24.840000000000003 L 136.5 31.004000000000005 L 169.95588235294 31.647999999999996 L 203.41176470588 29.072000000000003 L 236.86764705883 23.92 L 270.32352941177 29.900000000000006 L 270.32352941177 44.068 L 236.86764705883 43.792 L 203.41176470588 41.952 L 169.95588235294 46.736000000000004 L 136.5 48.852000000000004 L 103.04411764706 45.44800000000001 L 69.588235294116 35.328 L 36.132352941175 40.94 L 2.6764705882329 41.676" class="highcharts-area" data-z-index="0"></path><path fill="none" d="M 2.6764705882329 29.531999999999996 L 36.132352941175 27.048000000000002 L 69.588235294116 7.820000000000007 L 103.04411764706 24.840000000000003 L 136.5 31.004000000000005 L 169.95588235294 31.647999999999996 L 203.41176470588 29.072000000000003 L 236.86764705883 23.92 L 270.32352941177 29.900000000000006" class="highcharts-graph" data-z-index="1" stroke-linejoin="round" stroke-linecap="round"></path></g><g data-z-index="0.1" class="highcharts-markers highcharts-series-0 highcharts-area-series " transform="translate(42,62) scale(1 1)" clip-path="none"></g><g data-z-index="0.1" class="highcharts-series highcharts-series-1 highcharts-area-series " transform="translate(42,62) scale(1 1)" clip-path="url(#highcharts-wf1rnd6-43-)"><path fill="rgb(146,63,141)" fill-opacity="0.75" d="M 2.6764705882329 41.676 L 36.132352941175 40.94 L 69.588235294116 35.328 L 103.04411764706 45.44800000000001 L 136.5 48.852000000000004 L 169.95588235294 46.736000000000004 L 203.41176470588 41.952 L 236.86764705883 43.792 L 270.32352941177 44.068 L 270.32352941177 69.55199999999999 L 236.86764705883 68.724 L 203.41176470588 66.7 L 169.95588235294 68.44800000000001 L 136.5 70.564 L 103.04411764706 68.53999999999999 L 69.588235294116 59.616 L 36.132352941175 63.572 L 2.6764705882329 66.24000000000001" class="highcharts-area" data-z-index="0"></path><path fill="none" d="M 2.6764705882329 41.676 L 36.132352941175 40.94 L 69.588235294116 35.328 L 103.04411764706 45.44800000000001 L 136.5 48.852000000000004 L 169.95588235294 46.736000000000004 L 203.41176470588 41.952 L 236.86764705883 43.792 L 270.32352941177 44.068" class="highcharts-graph" data-z-index="1" stroke-linejoin="round" stroke-linecap="round"></path></g><g data-z-index="0.1" class="highcharts-markers highcharts-series-1 highcharts-area-series " transform="translate(42,62) scale(1 1)" clip-path="none"></g><g data-z-index="0.1" class="highcharts-series highcharts-series-2 highcharts-area-series " transform="translate(42,62) scale(1 1)" clip-path="url(#highcharts-wf1rnd6-43-)"><path fill="rgb(47,101,107)" fill-opacity="0.75" d="M 2.6764705882329 66.24000000000001 L 36.132352941175 63.572 L 69.588235294116 59.616 L 103.04411764706 68.53999999999999 L 136.5 70.564 L 169.95588235294 68.44800000000001 L 203.41176470588 66.7 L 236.86764705883 68.724 L 270.32352941177 69.55199999999999 L 270.32352941177 115 L 236.86764705883 115 L 203.41176470588 115 L 169.95588235294 115 L 136.5 115 L 103.04411764706 115 L 69.588235294116 115 L 36.132352941175 115 L 2.6764705882329 115" class="highcharts-area" data-z-index="0"></path><path fill="none" d="M 2.6764705882329 66.24000000000001 L 36.132352941175 63.572 L 69.588235294116 59.616 L 103.04411764706 68.53999999999999 L 136.5 70.564 L 169.95588235294 68.44800000000001 L 203.41176470588 66.7 L 236.86764705883 68.724 L 270.32352941177 69.55199999999999" class="highcharts-graph" data-z-index="1" stroke-linejoin="round" stroke-linecap="round"></path></g><g data-z-index="0.1" class="highcharts-markers highcharts-series-2 highcharts-area-series " transform="translate(42,62) scale(1 1)" clip-path="none"></g></g><text x="2" text-anchor="start" class="highcharts-title" data-z-index="4" style="color:#000000;font-size:10px;font-weight:bold;fill:#000000;" y="9"><tspan>Beschuldigte ausländische Erwachsene</tspan></text><text x="2" text-anchor="start" class="highcharts-subtitle" data-z-index="4" style="color:#000000;font-size:10px;font-weight:normal;font-family:Arial;fill:#000000;" y="25"><tspan>Personen ab 18 Jahren nach Aufenthaltsstatus, Basel-Stadt</tspan></text><g class="highcharts-legend" data-z-index="7" transform="translate(39,39)"><rect fill="none" class="highcharts-legend-box" rx="0" ry="0" x="0" y="0" width="197" height="11" visibility="visible"></rect><g data-z-index="1"><g><g class="highcharts-legend-item highcharts-area-series highcharts-color-undefined highcharts-series-2" data-z-index="1" transform="translate(0,-5)"><text x="21" style="color:#333333;cursor:pointer;font-size:10px;font-weight:normal;fill:#333333;" text-anchor="start" data-z-index="2" y="13"><tspan>C-Bew.</tspan></text><rect x="3" y="4" width="10" height="10" fill="#2F656B" class="highcharts-point" data-z-index="3"></rect></g><g class="highcharts-legend-item highcharts-area-series highcharts-color-undefined highcharts-series-1" data-z-index="1" transform="translate(73.734375,-5)"><text x="21" y="13" style="color:#333333;cursor:pointer;font-size:10px;font-weight:normal;fill:#333333;" text-anchor="start" data-z-index="2"><tspan>B-Bew.</tspan></text><rect x="3" y="4" width="10" height="10" fill="#923F8D" class="highcharts-point" data-z-index="3"></rect></g><g class="highcharts-legend-item highcharts-area-series highcharts-color-undefined highcharts-series-0" data-z-index="1" transform="translate(146.90625,-5)"><text x="21" y="13" style="color:#333333;cursor:pointer;font-size:10px;font-weight:normal;fill:#333333;" text-anchor="start" data-z-index="2"><tspan>Übrige</tspan></text><rect x="3" y="4" width="10" height="10" fill="#FF8028" class="highcharts-point" data-z-index="3"></rect></g></g></g></g><g class="highcharts-axis-labels highcharts-xaxis-labels" data-z-index="7"><text x="44.676470588233" style="color:#000000;cursor:default;font-size:10px;white-space:nowrap;fill:#000000;" text-anchor="middle" transform="translate(0,0)" y="195" opacity="1">2009</text><text x="78.132352941175" style="color:#000000;cursor:default;font-size:10px;white-space:nowrap;fill:#000000;" text-anchor="middle" transform="translate(0,0)" y="195" opacity="1">2010</text><text x="111.58823529412" style="color:#000000;cursor:default;font-size:10px;white-space:nowrap;fill:#000000;" text-anchor="middle" transform="translate(0,0)" y="195" opacity="1">2011</text><text x="145.04411764706" style="color:#000000;cursor:default;font-size:10px;white-space:nowrap;fill:#000000;" text-anchor="middle" transform="translate(0,0)" y="195" opacity="1">2012</text><text x="178.5" style="color:#000000;cursor:default;font-size:10px;white-space:nowrap;fill:#000000;" text-anchor="middle" transform="translate(0,0)" y="195" opacity="1">2013</text><text x="211.95588235294" style="color:#000000;cursor:default;font-size:10px;white-space:nowrap;fill:#000000;" text-anchor="middle" transform="translate(0,0)" y="195" opacity="1">2014</text><text x="245.41176470588" style="color:#000000;cursor:default;font-size:10px;white-space:nowrap;fill:#000000;" text-anchor="middle" transform="translate(0,0)" y="195" opacity="1">2015</text><text x="278.86764705883" style="color:#000000;cursor:default;font-size:10px;white-space:nowrap;fill:#000000;" text-anchor="middle" transform="translate(0,0)" y="195" opacity="1">2016</text><text x="306.90625" style="color:#000000;cursor:default;font-size:10px;white-space:nowrap;fill:#000000;" text-anchor="middle" transform="translate(0,0)" y="195" opacity="1">2017</text></g><g class="highcharts-axis-labels highcharts-yaxis-labels" data-z-index="7"><text x="27" style="color:#000000;cursor:default;font-size:10;fill:#000000;" text-anchor="end" transform="translate(0,0)" y="180" opacity="1">0</text><text x="27" style="color:#000000;cursor:default;font-size:10;fill:#000000;" text-anchor="end" transform="translate(0,0)" y="157" opacity="1">250</text><text x="27" style="color:#000000;cursor:default;font-size:10;fill:#000000;" text-anchor="end" transform="translate(0,0)" y="134" opacity="1">500</text><text x="27" style="color:#000000;cursor:default;font-size:10;fill:#000000;" text-anchor="end" transform="translate(0,0)" y="111" opacity="1">750</text><text x="27" style="color:#000000;cursor:default;font-size:10;fill:#000000;" text-anchor="end" transform="translate(0,0)" y="88" opacity="1"><tspan>1 000</tspan></text><text x="27" style="color:#000000;cursor:default;font-size:10;fill:#000000;" text-anchor="end" transform="translate(0,0)" y="65" opacity="1"><tspan>1 250</tspan></text></g><text x="10" class="highcharts-credits" text-anchor="start" data-z-index="8" style="cursor:default;color:#000000;font-size:10px;fill:#000000;" y="183"><tspan>Quelle: Statistisches Amt Basel-Stadt, Bevölkerungsstatistik;</tspan><tspan x="10" dy="13">Bundesamt für Statistik (BFS), Polizeiliche Kriminalstatistik (PKS).</tspan></text></svg>