<?xml version="1.0" standalone="no"?><!DOCTYPE svg PUBLIC "-//W3C//DTD SVG 1.1//EN" "http://www.w3.org/Graphics/SVG/1.1/DTD/svg11.dtd"><svg xmlns:xlink="http://www.w3.org/1999/xlink" version="1.1" class="highcharts-root" style="font-family:Arial;font-size:10px;" xmlns="http://www.w3.org/2000/svg" viewBox="0 0 485 415"><desc>Created with Highcharts 7.2.1</desc><defs><clipPath id="highcharts-5tmowfu-101-"><rect x="0" y="0" width="496" height="69" fill="none"></rect></clipPath><clipPath id="highcharts-5tmowfu-121-"><rect x="0" y="0" width="496" height="69" fill="none"></rect></clipPath></defs><rect fill="#fbfbfb" class="highcharts-background" x="0" y="0" width="665" height="208" rx="0" ry="0"></rect><rect fill="none" class="highcharts-plot-background" x="43" y="64" width="496" height="69"></rect><g class="highcharts-pane-group" data-z-index="0"></g><g class="highcharts-grid highcharts-xaxis-grid" data-z-index="1"><path fill="none" data-z-index="1" class="highcharts-grid-line" d="M 512.5 64 L 512.5 133" opacity="1"></path><path fill="none" data-z-index="1" class="highcharts-grid-line" d="M 486.5 64 L 486.5 133" opacity="1"></path><path fill="none" data-z-index="1" class="highcharts-grid-line" d="M 460.5 64 L 460.5 133" opacity="1"></path><path fill="none" data-z-index="1" class="highcharts-grid-line" d="M 434.5 64 L 434.5 133" opacity="1"></path><path fill="none" data-z-index="1" class="highcharts-grid-line" d="M 407.5 64 L 407.5 133" opacity="1"></path><path fill="none" data-z-index="1" class="highcharts-grid-line" d="M 381.5 64 L 381.5 133" opacity="1"></path><path fill="none" data-z-index="1" class="highcharts-grid-line" d="M 355.5 64 L 355.5 133" opacity="1"></path><path fill="none" data-z-index="1" class="highcharts-grid-line" d="M 329.5 64 L 329.5 133" opacity="1"></path><path fill="none" data-z-index="1" class="highcharts-grid-line" d="M 303.5 64 L 303.5 133" opacity="1"></path><path fill="none" data-z-index="1" class="highcharts-grid-line" d="M 277.5 64 L 277.5 133" opacity="1"></path><path fill="none" data-z-index="1" class="highcharts-grid-line" d="M 251.5 64 L 251.5 133" opacity="1"></path><path fill="none" data-z-index="1" class="highcharts-grid-line" d="M 225.5 64 L 225.5 133" opacity="1"></path><path fill="none" data-z-index="1" class="highcharts-grid-line" d="M 199.5 64 L 199.5 133" opacity="1"></path><path fill="none" data-z-index="1" class="highcharts-grid-line" d="M 173.5 64 L 173.5 133" opacity="1"></path><path fill="none" data-z-index="1" class="highcharts-grid-line" d="M 146.5 64 L 146.5 133" opacity="1"></path><path fill="none" data-z-index="1" class="highcharts-grid-line" d="M 120.5 64 L 120.5 133" opacity="1"></path><path fill="none" data-z-index="1" class="highcharts-grid-line" d="M 94.5 64 L 94.5 133" opacity="1"></path><path fill="none" data-z-index="1" class="highcharts-grid-line" d="M 68.5 64 L 68.5 133" opacity="1"></path><path fill="none" data-z-index="1" class="highcharts-grid-line" d="M 42.5 64 L 42.5 133" opacity="1"></path><path fill="none" data-z-index="1" class="highcharts-grid-line" d="M 538.5 64 L 538.5 133" opacity="1"></path></g><g class="highcharts-grid highcharts-yaxis-grid" data-z-index="1"><path fill="none" stroke="#B9CFD7" stroke-width="0.5" data-z-index="1" class="highcharts-grid-line" d="M 43 133.25 L 539 133.25" opacity="1"></path><path fill="none" stroke="#B9CFD7" stroke-width="0.5" data-z-index="1" class="highcharts-grid-line" d="M 43 99.25 L 539 99.25" opacity="1"></path><path fill="none" stroke="#B9CFD7" stroke-width="0.5" data-z-index="1" class="highcharts-grid-line" d="M 43 64.25 L 539 64.25" opacity="1"></path></g><rect fill="none" class="highcharts-plot-border" data-z-index="1" x="43" y="64" width="496" height="69"></rect><g class="highcharts-axis highcharts-xaxis" data-z-index="2"><path fill="none" class="highcharts-axis-line" stroke="#B9CFD7" stroke-width="0.5" data-z-index="7" d="M 43 133.25 L 539 133.25"></path></g><g class="highcharts-axis highcharts-yaxis" data-z-index="2"><path fill="none" class="highcharts-axis-line" data-z-index="7" d="M 43 64 L 43 133"></path></g><g class="highcharts-series-group" data-z-index="3"><g data-z-index="0.1" class="highcharts-series highcharts-series-0 highcharts-column-series" transform="translate(43,64) scale(1 1)" clip-path="url(#highcharts-5tmowfu-121-)"><rect x="473" y="0" width="21" height="4" fill="#999999" opacity="1" class="highcharts-point"></rect><rect x="446" y="0" width="21" height="4" fill="#999999" opacity="1" class="highcharts-point"></rect><rect x="420" y="0" width="21" height="3" fill="#999999" opacity="1" class="highcharts-point"></rect><rect x="368" y="0" width="21" height="3" fill="#999999" opacity="1" class="highcharts-point"></rect><rect x="342" y="0" width="21" height="3" fill="#999999" opacity="1" class="highcharts-point"></rect><rect x="316" y="0" width="21" height="3" fill="#999999" opacity="1" class="highcharts-point"></rect><rect x="264" y="0" width="21" height="5" fill="#999999" opacity="1" class="highcharts-point"></rect><rect x="238" y="0" width="21" height="5" fill="#999999" opacity="1" class="highcharts-point"></rect><rect x="211" y="0" width="21" height="6" fill="#999999" opacity="1" class="highcharts-point"></rect><rect x="159" y="0" width="21" height="4" fill="#999999" opacity="1" class="highcharts-point"></rect><rect x="133" y="0" width="21" height="4" fill="#999999" opacity="1" class="highcharts-point"></rect><rect x="107" y="0" width="21" height="4" fill="#999999" opacity="1" class="highcharts-point"></rect><rect x="55" y="0" width="21" height="4" fill="#999999" opacity="1" class="highcharts-point"></rect><rect x="29" y="0" width="21" height="4" fill="#999999" opacity="1" class="highcharts-point"></rect><rect x="3" y="0" width="21" height="5" fill="#999999" opacity="1" class="highcharts-point"></rect></g><g data-z-index="0.1" class="highcharts-markers highcharts-series-0 highcharts-column-series" transform="translate(43,64) scale(1 1)" clip-path="none"></g><g data-z-index="0.1" class="highcharts-series highcharts-series-1 highcharts-column-series" transform="translate(43,64) scale(1 1)" clip-path="url(#highcharts-5tmowfu-121-)"><rect x="473" y="4" width="21" height="2" fill="#dc440e" opacity="1" class="highcharts-point"></rect><rect x="446" y="4" width="21" height="2" fill="#dc440e" opacity="1" class="highcharts-point"></rect><rect x="420" y="3" width="21" height="1" fill="#dc440e" opacity="1" class="highcharts-point"></rect><rect x="368" y="3" width="21" height="4" fill="#dc440e" opacity="1" class="highcharts-point"></rect><rect x="342" y="3" width="21" height="4" fill="#dc440e" opacity="1" class="highcharts-point"></rect><rect x="316" y="3" width="21" height="0" fill="#dc440e" opacity="1" class="highcharts-point"></rect><rect x="264" y="5" width="21" height="4" fill="#dc440e" opacity="1" class="highcharts-point"></rect><rect x="238" y="5" width="21" height="4" fill="#dc440e" opacity="1" class="highcharts-point"></rect><rect x="211" y="6" width="21" height="1" fill="#dc440e" opacity="1" class="highcharts-point"></rect><rect x="159" y="4" width="21" height="3" fill="#dc440e" opacity="1" class="highcharts-point"></rect><rect x="133" y="4" width="21" height="4" fill="#dc440e" opacity="1" class="highcharts-point"></rect><rect x="107" y="4" width="21" height="1" fill="#dc440e" opacity="1" class="highcharts-point"></rect><rect x="55" y="4" width="21" height="4" fill="#dc440e" opacity="1" class="highcharts-point"></rect><rect x="29" y="4" width="21" height="5" fill="#dc440e" opacity="1" class="highcharts-point"></rect><rect x="3" y="5" width="21" height="1" fill="#dc440e" opacity="1" class="highcharts-point"></rect></g><g data-z-index="0.1" class="highcharts-markers highcharts-series-1 highcharts-column-series" transform="translate(43,64) scale(1 1)" clip-path="none"></g><g data-z-index="0.1" class="highcharts-series highcharts-series-2 highcharts-column-series" transform="translate(43,64) scale(1 1)" clip-path="url(#highcharts-5tmowfu-121-)"><rect x="473" y="6" width="21" height="12" fill="#ffbb58" opacity="1" class="highcharts-point"></rect><rect x="446" y="6" width="21" height="13" fill="#ffbb58" opacity="1" class="highcharts-point"></rect><rect x="420" y="4" width="21" height="3" fill="#ffbb58" opacity="1" class="highcharts-point"></rect><rect x="368" y="7" width="21" height="13" fill="#ffbb58" opacity="1" class="highcharts-point"></rect><rect x="342" y="7" width="21" height="15" fill="#ffbb58" opacity="1" class="highcharts-point"></rect><rect x="316" y="3" width="21" height="6" fill="#ffbb58" opacity="1" class="highcharts-point"></rect><rect x="264" y="9" width="21" height="14" fill="#ffbb58" opacity="1" class="highcharts-point"></rect><rect x="238" y="9" width="21" height="14" fill="#ffbb58" opacity="1" class="highcharts-point"></rect><rect x="211" y="7" width="21" height="9" fill="#ffbb58" opacity="1" class="highcharts-point"></rect><rect x="159" y="7" width="21" height="15" fill="#ffbb58" opacity="1" class="highcharts-point"></rect><rect x="133" y="8" width="21" height="15" fill="#ffbb58" opacity="1" class="highcharts-point"></rect><rect x="107" y="5" width="21" height="7" fill="#ffbb58" opacity="1" class="highcharts-point"></rect><rect x="55" y="8" width="21" height="15" fill="#ffbb58" opacity="1" class="highcharts-point"></rect><rect x="29" y="9" width="21" height="16" fill="#ffbb58" opacity="1" class="highcharts-point"></rect><rect x="3" y="6" width="21" height="7" fill="#ffbb58" opacity="1" class="highcharts-point"></rect></g><g data-z-index="0.1" class="highcharts-markers highcharts-series-2 highcharts-column-series" transform="translate(43,64) scale(1 1)" clip-path="none"></g><g data-z-index="0.1" class="highcharts-series highcharts-series-3 highcharts-column-series" transform="translate(43,64) scale(1 1)" clip-path="url(#highcharts-5tmowfu-121-)"><rect x="473" y="18" width="21" height="36" fill="#68ab2b" opacity="1" class="highcharts-point"></rect><rect x="446" y="19" width="21" height="36" fill="#68ab2b" opacity="1" class="highcharts-point"></rect><rect x="420" y="7" width="21" height="35" fill="#68ab2b" opacity="1" class="highcharts-point"></rect><rect x="368" y="20" width="21" height="32" fill="#68ab2b" opacity="1" class="highcharts-point"></rect><rect x="342" y="22" width="21" height="32" fill="#68ab2b" opacity="1" class="highcharts-point"></rect><rect x="316" y="9" width="21" height="33" fill="#68ab2b" opacity="1" class="highcharts-point"></rect><rect x="264" y="23" width="21" height="33" fill="#68ab2b" opacity="1" class="highcharts-point"></rect><rect x="238" y="23" width="21" height="34" fill="#68ab2b" opacity="1" class="highcharts-point"></rect><rect x="211" y="16" width="21" height="38" fill="#68ab2b" opacity="1" class="highcharts-point"></rect><rect x="159" y="22" width="21" height="32" fill="#68ab2b" opacity="1" class="highcharts-point"></rect><rect x="133" y="23" width="21" height="33" fill="#68ab2b" opacity="1" class="highcharts-point"></rect><rect x="107" y="12" width="21" height="31" fill="#68ab2b" opacity="1" class="highcharts-point"></rect><rect x="55" y="23" width="21" height="31" fill="#68ab2b" opacity="1" class="highcharts-point"></rect><rect x="29" y="25" width="21" height="30" fill="#68ab2b" opacity="1" class="highcharts-point"></rect><rect x="3" y="13" width="21" height="33" fill="#68ab2b" opacity="1" class="highcharts-point"></rect></g><g data-z-index="0.1" class="highcharts-markers highcharts-series-3 highcharts-column-series" transform="translate(43,64) scale(1 1)" clip-path="none"></g><g data-z-index="0.1" class="highcharts-series highcharts-series-4 highcharts-column-series" transform="translate(43,64) scale(1 1)" clip-path="url(#highcharts-5tmowfu-121-)"><rect x="473" y="54" width="21" height="16" fill="#007a2f" opacity="1" class="highcharts-point"></rect><rect x="446" y="55" width="21" height="15" fill="#007a2f" opacity="1" class="highcharts-point"></rect><rect x="420" y="42" width="21" height="28" fill="#007a2f" opacity="1" class="highcharts-point"></rect><rect x="368" y="52" width="21" height="18" fill="#007a2f" opacity="1" class="highcharts-point"></rect><rect x="342" y="54" width="21" height="16" fill="#007a2f" opacity="1" class="highcharts-point"></rect><rect x="316" y="42" width="21" height="28" fill="#007a2f" opacity="1" class="highcharts-point"></rect><rect x="264" y="56" width="21" height="14" fill="#007a2f" opacity="1" class="highcharts-point"></rect><rect x="238" y="57" width="21" height="13" fill="#007a2f" opacity="1" class="highcharts-point"></rect><rect x="211" y="54" width="21" height="16" fill="#007a2f" opacity="1" class="highcharts-point"></rect><rect x="159" y="54" width="21" height="16" fill="#007a2f" opacity="1" class="highcharts-point"></rect><rect x="133" y="56" width="21" height="14" fill="#007a2f" opacity="1" class="highcharts-point"></rect><rect x="107" y="43" width="21" height="27" fill="#007a2f" opacity="1" class="highcharts-point"></rect><rect x="55" y="54" width="21" height="16" fill="#007a2f" opacity="1" class="highcharts-point"></rect><rect x="29" y="55" width="21" height="15" fill="#007a2f" opacity="1" class="highcharts-point"></rect><rect x="3" y="46" width="21" height="24" fill="#007a2f" opacity="1" class="highcharts-point"></rect></g><g data-z-index="0.1" class="highcharts-markers highcharts-series-4 highcharts-column-series" transform="translate(43,64) scale(1 1)" clip-path="none"></g></g><text x="333" text-anchor="middle" class="highcharts-title" data-z-index="4" style="color:#333333;font-size:18px;fill:#333333;" y="19"><tspan>Beurteilung von gesellschaftlicher Vielfalt</tspan></text><text x="333" text-anchor="middle" class="highcharts-subtitle" data-z-index="4" style="color:#666666;fill:#666666;" y="37"><tspan>«Im Kanton Basel-Stadt gibt es Menschen aus den verschiedensten Ländern. Bitte geben Sie mir an, ob das eine sehr grosse, eher grosse,</tspan><tspan dy="13" x="333">eher nicht so grosse oder gar keine Bereicherung für den Kanton Basel-Stadt ist.»</tspan></text><text x="2" text-anchor="start" class="highcharts-caption" data-z-index="4" style="color:#666666;fill:#666666;" y="216"></text><g class="highcharts-legend" data-z-index="7" transform="translate(551,54)"><rect fill="none" class="highcharts-legend-box" rx="0" ry="0" x="0" y="0" width="111" height="78" visibility="visible"></rect><g data-z-index="1"><g><g class="highcharts-legend-item highcharts-column-series highcharts-color-undefined highcharts-series-0" data-z-index="1" transform="translate(0,-5)"><text x="21" style="color:#333333;cursor:pointer;font-size:10px;font-weight:normal;font-family:Arial;whitespace:nowrap;fill:#333333;" text-anchor="start" data-z-index="2" y="13"><tspan>Weiss nicht /</tspan><tspan x="21" dy="13">Keine Angabe</tspan></text><rect x="3" y="4" width="10" height="10" fill="#999999" class="highcharts-point" data-z-index="3"></rect></g><g class="highcharts-legend-item highcharts-column-series highcharts-color-undefined highcharts-series-1" data-z-index="1" transform="translate(0,22)"><text x="21" y="13" style="color:#333333;cursor:pointer;font-size:10px;font-weight:normal;font-family:Arial;whitespace:nowrap;fill:#333333;" text-anchor="start" data-z-index="2"><tspan>Gar keine</tspan></text><rect x="3" y="4" width="10" height="10" fill="#dc440e" class="highcharts-point" data-z-index="3"></rect></g><g class="highcharts-legend-item highcharts-column-series highcharts-color-undefined highcharts-series-2" data-z-index="1" transform="translate(0,36)"><text x="21" y="13" style="color:#333333;cursor:pointer;font-size:10px;font-weight:normal;font-family:Arial;whitespace:nowrap;fill:#333333;" text-anchor="start" data-z-index="2"><tspan>Eher nicht so grosse</tspan></text><rect x="3" y="4" width="10" height="10" fill="#ffbb58" class="highcharts-point" data-z-index="3"></rect></g><g class="highcharts-legend-item highcharts-column-series highcharts-color-undefined highcharts-series-3" data-z-index="1" transform="translate(0,50)"><text x="21" y="13" style="color:#333333;cursor:pointer;font-size:10px;font-weight:normal;font-family:Arial;whitespace:nowrap;fill:#333333;" text-anchor="start" data-z-index="2"><tspan>Eher grosse</tspan></text><rect x="3" y="4" width="10" height="10" fill="#68ab2b" class="highcharts-point" data-z-index="3"></rect></g><g class="highcharts-legend-item highcharts-column-series highcharts-color-undefined highcharts-series-4" data-z-index="1" transform="translate(0,64)"><text x="21" y="13" style="color:#333333;cursor:pointer;font-size:10px;font-weight:normal;font-family:Arial;whitespace:nowrap;fill:#333333;" text-anchor="start" data-z-index="2"><tspan>Sehr grosse</tspan></text><rect x="3" y="4" width="10" height="10" fill="#007a2f" class="highcharts-point" data-z-index="3"></rect></g></g></g></g><g class="highcharts-axis-labels highcharts-xaxis-labels" data-z-index="7"><text x="523.2807017543906" style="color:#000000;cursor:default;font-size:10px;white-space:nowrap;fill:#000000;" text-anchor="end" transform="translate(0,0) rotate(-90 523.2807017543906 143)" y="143" opacity="1"><tspan>2015 Total</tspan><tspan x="523.2807017543906" dy="13">(N=1506)</tspan></text><text x="497.17543859649066" style="color:#000000;cursor:default;font-size:10px;white-space:nowrap;fill:#000000;" text-anchor="end" transform="translate(0,0) rotate(-90 497.17543859649066 143)" y="143" opacity="1"><tspan>2015 Schweiz</tspan><tspan x="497.17543859649066" dy="13">(N=1333)</tspan></text><text x="471.07017543860064" style="color:#000000;cursor:default;font-size:10px;white-space:nowrap;fill:#000000;" text-anchor="end" transform="translate(0,0) rotate(-90 471.07017543860064 143)" y="143" opacity="1"><tspan>2015 Ausland</tspan><tspan x="471.07017543860064" dy="13">(N=173)</tspan></text><text x="444.9649122807007" style="color:#000000;cursor:default;font-size:10px;white-space:nowrap;fill:#000000;" text-anchor="end" transform="translate(0,0) rotate(-90 444.9649122807007 143)" y="143" opacity="1"></text><text x="418.85964912281065" style="color:#000000;cursor:default;font-size:10px;white-space:nowrap;fill:#000000;" text-anchor="end" transform="translate(0,0) rotate(-90 418.85964912281065 143)" y="143" opacity="1"><tspan>2011 Total</tspan><tspan x="418.85964912281065" dy="13">(N=1516)</tspan></text><text x="392.7543859649107" style="color:#000000;cursor:default;font-size:10px;white-space:nowrap;fill:#000000;" text-anchor="end" transform="translate(0,0) rotate(-90 392.7543859649107 143)" y="143" opacity="1"><tspan>2011 Schweiz</tspan><tspan x="392.7543859649107" dy="13">(N=1302)</tspan></text><text x="366.64912280702066" style="color:#000000;cursor:default;font-size:10px;white-space:nowrap;fill:#000000;" text-anchor="end" transform="translate(0,0) rotate(-90 366.64912280702066 143)" y="143" opacity="1"><tspan>2011 Ausland</tspan><tspan x="366.64912280702066" dy="13">(N=214)</tspan></text><text x="340.54385964912063" style="color:#000000;cursor:default;font-size:10px;white-space:nowrap;fill:#000000;" text-anchor="end" transform="translate(0,0) rotate(-90 340.54385964912063 143)" y="143" opacity="1"></text><text x="314.43859649123067" style="color:#000000;cursor:default;font-size:10px;white-space:nowrap;fill:#000000;" text-anchor="end" transform="translate(0,0) rotate(-90 314.43859649123067 143)" y="143" opacity="1"><tspan>2007 Total</tspan><tspan x="314.43859649123067" dy="13">(N=1509)</tspan></text><text x="288.33333333333064" style="color:#000000;cursor:default;font-size:10px;white-space:nowrap;fill:#000000;" text-anchor="end" transform="translate(0,0) rotate(-90 288.33333333333064 143)" y="143" opacity="1"><tspan>2007 Schweiz</tspan><tspan x="288.33333333333064" dy="13">(N=1331)</tspan></text><text x="262.2280701754407" style="color:#000000;cursor:default;font-size:10px;white-space:nowrap;fill:#000000;" text-anchor="end" transform="translate(0,0) rotate(-90 262.2280701754407 143)" y="143" opacity="1"><tspan>2007 Ausland</tspan><tspan x="262.2280701754407" dy="13">(N=178)</tspan></text><text x="236.1228070175407" style="color:#000000;cursor:default;font-size:10px;white-space:nowrap;fill:#000000;" text-anchor="end" transform="translate(0,0) rotate(-90 236.1228070175407 143)" y="143" opacity="1"></text><text x="210.01754385965071" style="color:#000000;cursor:default;font-size:10px;white-space:nowrap;fill:#000000;" text-anchor="end" transform="translate(0,0) rotate(-90 210.01754385965071 143)" y="143" opacity="1"><tspan>2005 Total</tspan><tspan x="210.01754385965071" dy="13">(N=1510)</tspan></text><text x="183.91228070175072" style="color:#000000;cursor:default;font-size:10px;white-space:nowrap;fill:#000000;" text-anchor="end" transform="translate(0,0) rotate(-90 183.91228070175072 143)" y="143" opacity="1"><tspan>2005 Schweiz</tspan><tspan x="183.91228070175072" dy="13">(N=1300)</tspan></text><text x="157.80701754386072" style="color:#000000;cursor:default;font-size:10px;white-space:nowrap;fill:#000000;" text-anchor="end" transform="translate(0,0) rotate(-90 157.80701754386072 143)" y="143" opacity="1"><tspan>2005 Ausland</tspan><tspan x="157.80701754386072" dy="13">(N=210)</tspan></text><text x="131.7017543859607" style="color:#000000;cursor:default;font-size:10px;white-space:nowrap;fill:#000000;" text-anchor="end" transform="translate(0,0) rotate(-90 131.7017543859607 143)" y="143" opacity="1"></text><text x="105.5964912280707" style="color:#000000;cursor:default;font-size:10px;white-space:nowrap;fill:#000000;" text-anchor="end" transform="translate(0,0) rotate(-90 105.5964912280707 143)" y="143" opacity="1"><tspan>2003 Total</tspan><tspan x="105.5964912280707" dy="13">(N=1497)</tspan></text><text x="79.4912280701757" style="color:#000000;cursor:default;font-size:10px;white-space:nowrap;fill:#000000;" text-anchor="end" transform="translate(0,0) rotate(-90 79.4912280701757 143)" y="143" opacity="1"><tspan>2003 Schweiz</tspan><tspan x="79.4912280701757" dy="13">(N=1291)</tspan></text><text x="53.385964912280706" style="color:#000000;cursor:default;font-size:10px;white-space:nowrap;fill:#000000;" text-anchor="end" transform="translate(0,0) rotate(-90 53.385964912280706 143)" y="143" opacity="1"><tspan>2003 Ausland</tspan><tspan x="53.385964912280706" dy="13">(N=206)</tspan></text></g><g class="highcharts-axis-labels highcharts-yaxis-labels" data-z-index="7"><text x="28" style="color:#000000;cursor:default;font-size:10px;fill:#000000;" text-anchor="end" transform="translate(0,0)" y="136" opacity="1">0%</text><text x="28" style="color:#000000;cursor:default;font-size:10px;fill:#000000;" text-anchor="end" transform="translate(0,0)" y="102" opacity="1">50%</text><text x="28" style="color:#000000;cursor:default;font-size:10px;fill:#000000;" text-anchor="end" transform="translate(0,0)" y="67" opacity="1">100%</text></g><text x="655" class="highcharts-credits" text-anchor="end" data-z-index="8" style="cursor:pointer;color:#999999;font-size:9px;fill:#999999;" y="193"><tspan>Quelle: Statistisches Amt Basel-Stadt, kantonale Bevölkerungsbefragung: F18.</tspan></text></svg>