<?xml version="1.0" standalone="no"?><!DOCTYPE svg PUBLIC "-//W3C//DTD SVG 1.1//EN" "http://www.w3.org/Graphics/SVG/1.1/DTD/svg11.dtd"><svg xmlns:xlink="http://www.w3.org/1999/xlink" version="1.1" class="highcharts-root" style="font-family:Arial;font-size:10px;" xmlns="http://www.w3.org/2000/svg" viewBox="0 0 485 415"><desc>Created with Highstock 6.1.1</desc><defs><clipPath id="highcharts-ifzh569-6"><rect x="0" y="0" width="81" height="175" fill="none"></rect></clipPath><clipPath id="highcharts-ifzh569-7"><rect x="0" y="0" width="81" height="175" fill="none"></rect></clipPath></defs><rect fill="#fbfbfb" class="highcharts-background" x="0" y="0" width="320" height="221" rx="0" ry="0"></rect><rect fill="none" class="highcharts-plot-background" x="140" y="110" width="175" height="81"></rect><g class="highcharts-pane-group" data-z-index="0"></g><g class="highcharts-grid highcharts-xaxis-grid " data-z-index="1"><path fill="none" data-z-index="1" class="highcharts-grid-line" d="M 140 113.5 L 315 113.5" opacity="1"></path><path fill="none" data-z-index="1" class="highcharts-grid-line" d="M 140 130.5 L 315 130.5" opacity="1"></path><path fill="none" data-z-index="1" class="highcharts-grid-line" d="M 140 148.5 L 315 148.5" opacity="1"></path><path fill="none" data-z-index="1" class="highcharts-grid-line" d="M 140 165.5 L 315 165.5" opacity="1"></path><path fill="none" data-z-index="1" class="highcharts-grid-line" d="M 140 182.5 L 315 182.5" opacity="1"></path></g><g class="highcharts-grid highcharts-yaxis-grid " data-z-index="1"><path fill="none" stroke="#B9CFD7" stroke-width="0.5" data-z-index="1" class="highcharts-grid-line" d="M 139.75 110 L 139.75 191" opacity="1"></path><path fill="none" stroke="#B9CFD7" stroke-width="0.5" data-z-index="1" class="highcharts-grid-line" d="M 227.75 110 L 227.75 191" opacity="1"></path><path fill="none" stroke="#B9CFD7" stroke-width="0.5" data-z-index="1" class="highcharts-grid-line" d="M 315.25 110 L 315.25 191" opacity="1"></path></g><rect fill="none" class="highcharts-plot-border" data-z-index="1" x="140" y="110" width="175" height="81"></rect><g class="highcharts-axis highcharts-xaxis " data-z-index="2"><path fill="none" class="highcharts-axis-line" stroke="#B9CFD7" stroke-width="0.5" data-z-index="7" d="M 139.75 110 L 139.75 191"></path></g><g class="highcharts-axis highcharts-yaxis " data-z-index="2"><path fill="none" class="highcharts-axis-line" data-z-index="7" d="M 140 191 L 315 191"></path></g><g class="highcharts-series-group" data-z-index="3"><g data-z-index="0.1" class="highcharts-series highcharts-series-0 highcharts-column-series " transform="translate(315,191) rotate(90) scale(-1,1) scale(1 1)" clip-path="url(#highcharts-ifzh569-7)"><rect x="76" y="0" width="5" height="12" fill="#6F6F6F" class="highcharts-point"></rect><rect x="70" y="0" width="5" height="15" fill="#6F6F6F" class="highcharts-point"></rect><rect x="64" y="0" width="5" height="11" fill="#6F6F6F" class="highcharts-point"></rect><rect x="58" y="0" width="5" height="11" fill="#6F6F6F" class="highcharts-point"></rect><rect x="47" y="0" width="5" height="10" fill="#6F6F6F" class="highcharts-point"></rect><rect x="41" y="0" width="5" height="11" fill="#6F6F6F" class="highcharts-point"></rect><rect x="35" y="0" width="5" height="12" fill="#6F6F6F" class="highcharts-point"></rect><rect x="30" y="0" width="5" height="8" fill="#6F6F6F" class="highcharts-point"></rect><rect x="18" y="0" width="5" height="8" fill="#6F6F6F" class="highcharts-point"></rect><rect x="12" y="0" width="5" height="9" fill="#6F6F6F" class="highcharts-point"></rect><rect x="6" y="0" width="5" height="8" fill="#6F6F6F" class="highcharts-point"></rect><rect x="1" y="0" width="5" height="8" fill="#6F6F6F" class="highcharts-point"></rect></g><g data-z-index="0.1" class="highcharts-markers highcharts-series-0 highcharts-column-series " transform="translate(315,191) rotate(90) scale(-1,1) scale(1 1)" clip-path="none"></g><g data-z-index="0.1" class="highcharts-series highcharts-series-1 highcharts-column-series " transform="translate(315,191) rotate(90) scale(-1,1) scale(1 1)" clip-path="url(#highcharts-ifzh569-7)"><rect x="76" y="12" width="5" height="32" fill="#C8C8C8" class="highcharts-point"></rect><rect x="70" y="15" width="5" height="37" fill="#C8C8C8" class="highcharts-point"></rect><rect x="64" y="11" width="5" height="31" fill="#C8C8C8" class="highcharts-point"></rect><rect x="58" y="11" width="5" height="33" fill="#C8C8C8" class="highcharts-point"></rect><rect x="47" y="10" width="5" height="40" fill="#C8C8C8" class="highcharts-point"></rect><rect x="41" y="11" width="5" height="38" fill="#C8C8C8" class="highcharts-point"></rect><rect x="35" y="12" width="5" height="36" fill="#C8C8C8" class="highcharts-point"></rect><rect x="30" y="8" width="5" height="43" fill="#C8C8C8" class="highcharts-point"></rect><rect x="18" y="8" width="5" height="40" fill="#C8C8C8" class="highcharts-point"></rect><rect x="12" y="9" width="5" height="45" fill="#C8C8C8" class="highcharts-point"></rect><rect x="6" y="8" width="5" height="36" fill="#C8C8C8" class="highcharts-point"></rect><rect x="1" y="8" width="5" height="41" fill="#C8C8C8" class="highcharts-point"></rect></g><g data-z-index="0.1" class="highcharts-markers highcharts-series-1 highcharts-column-series " transform="translate(315,191) rotate(90) scale(-1,1) scale(1 1)" clip-path="none"></g><g data-z-index="0.1" class="highcharts-series highcharts-series-2 highcharts-column-series " transform="translate(315,191) rotate(90) scale(-1,1) scale(1 1)" clip-path="url(#highcharts-ifzh569-7)"><rect x="76" y="44" width="5" height="20" fill="#DC440E" class="highcharts-point"></rect><rect x="70" y="52" width="5" height="15" fill="#DC440E" class="highcharts-point"></rect><rect x="64" y="42" width="5" height="24" fill="#DC440E" class="highcharts-point"></rect><rect x="58" y="44" width="5" height="18" fill="#DC440E" class="highcharts-point"></rect><rect x="47" y="50" width="5" height="16" fill="#DC440E" class="highcharts-point"></rect><rect x="41" y="49" width="5" height="14" fill="#DC440E" class="highcharts-point"></rect><rect x="35" y="48" width="5" height="13" fill="#DC440E" class="highcharts-point"></rect><rect x="30" y="51" width="5" height="18" fill="#DC440E" class="highcharts-point"></rect><rect x="18" y="48" width="5" height="12" fill="#DC440E" class="highcharts-point"></rect><rect x="12" y="54" width="5" height="7" fill="#DC440E" class="highcharts-point"></rect><rect x="6" y="44" width="5" height="11" fill="#DC440E" class="highcharts-point"></rect><rect x="1" y="49" width="5" height="15" fill="#DC440E" class="highcharts-point"></rect></g><g data-z-index="0.1" class="highcharts-markers highcharts-series-2 highcharts-column-series " transform="translate(315,191) rotate(90) scale(-1,1) scale(1 1)" clip-path="none"></g><g data-z-index="0.1" class="highcharts-series highcharts-series-3 highcharts-column-series " transform="translate(315,191) rotate(90) scale(-1,1) scale(1 1)" clip-path="url(#highcharts-ifzh569-7)"><rect x="76" y="64" width="5" height="43" fill="#FABD24" class="highcharts-point"></rect><rect x="70" y="67" width="5" height="31" fill="#FABD24" class="highcharts-point"></rect><rect x="64" y="66" width="5" height="39" fill="#FABD24" class="highcharts-point"></rect><rect x="58" y="62" width="5" height="48" fill="#FABD24" class="highcharts-point"></rect><rect x="47" y="66" width="5" height="38" fill="#FABD24" class="highcharts-point"></rect><rect x="41" y="63" width="5" height="28" fill="#FABD24" class="highcharts-point"></rect><rect x="35" y="61" width="5" height="38" fill="#FABD24" class="highcharts-point"></rect><rect x="30" y="69" width="5" height="42" fill="#FABD24" class="highcharts-point"></rect><rect x="18" y="60" width="5" height="36" fill="#FABD24" class="highcharts-point"></rect><rect x="12" y="61" width="5" height="25" fill="#FABD24" class="highcharts-point"></rect><rect x="6" y="55" width="5" height="35" fill="#FABD24" class="highcharts-point"></rect><rect x="1" y="64" width="5" height="38" fill="#FABD24" class="highcharts-point"></rect></g><g data-z-index="0.1" class="highcharts-markers highcharts-series-3 highcharts-column-series " transform="translate(315,191) rotate(90) scale(-1,1) scale(1 1)" clip-path="none"></g><g data-z-index="0.1" class="highcharts-series highcharts-series-4 highcharts-column-series " transform="translate(315,191) rotate(90) scale(-1,1) scale(1 1)" clip-path="url(#highcharts-ifzh569-7)"><rect x="76" y="107" width="5" height="52" fill="#68ab2b" class="highcharts-point"></rect><rect x="70" y="98" width="5" height="45" fill="#68ab2b" class="highcharts-point"></rect><rect x="64" y="105" width="5" height="49" fill="#68ab2b" class="highcharts-point"></rect><rect x="58" y="110" width="5" height="56" fill="#68ab2b" class="highcharts-point"></rect><rect x="47" y="104" width="5" height="51" fill="#68ab2b" class="highcharts-point"></rect><rect x="41" y="91" width="5" height="50" fill="#68ab2b" class="highcharts-point"></rect><rect x="35" y="99" width="5" height="49" fill="#68ab2b" class="highcharts-point"></rect><rect x="30" y="111" width="5" height="51" fill="#68ab2b" class="highcharts-point"></rect><rect x="18" y="96" width="5" height="54" fill="#68ab2b" class="highcharts-point"></rect><rect x="12" y="86" width="5" height="49" fill="#68ab2b" class="highcharts-point"></rect><rect x="6" y="90" width="5" height="53" fill="#68ab2b" class="highcharts-point"></rect><rect x="1" y="102" width="5" height="57" fill="#68ab2b" class="highcharts-point"></rect></g><g data-z-index="0.1" class="highcharts-markers highcharts-series-4 highcharts-column-series " transform="translate(315,191) rotate(90) scale(-1,1) scale(1 1)" clip-path="none"></g><g data-z-index="0.1" class="highcharts-series highcharts-series-5 highcharts-column-series " transform="translate(315,191) rotate(90) scale(-1,1) scale(1 1)" clip-path="url(#highcharts-ifzh569-7)"><rect x="76" y="159" width="5" height="17" fill="#007a2f" class="highcharts-point"></rect><rect x="70" y="143" width="5" height="33" fill="#007a2f" class="highcharts-point"></rect><rect x="64" y="154" width="5" height="22" fill="#007a2f" class="highcharts-point"></rect><rect x="58" y="166" width="5" height="10" fill="#007a2f" class="highcharts-point"></rect><rect x="47" y="155" width="5" height="21" fill="#007a2f" class="highcharts-point"></rect><rect x="41" y="141" width="5" height="35" fill="#007a2f" class="highcharts-point"></rect><rect x="35" y="148" width="5" height="28" fill="#007a2f" class="highcharts-point"></rect><rect x="30" y="162" width="5" height="14" fill="#007a2f" class="highcharts-point"></rect><rect x="18" y="150" width="5" height="26" fill="#007a2f" class="highcharts-point"></rect><rect x="12" y="135" width="5" height="41" fill="#007a2f" class="highcharts-point"></rect><rect x="6" y="143" width="5" height="33" fill="#007a2f" class="highcharts-point"></rect><rect x="1" y="159" width="5" height="17" fill="#007a2f" class="highcharts-point"></rect></g><g data-z-index="0.1" class="highcharts-markers highcharts-series-5 highcharts-column-series " transform="translate(315,191) rotate(90) scale(-1,1) scale(1 1)" clip-path="none"></g></g><text x="2" text-anchor="start" class="highcharts-title" data-z-index="4" style="color:#000000;font-size:10px;font-weight:normal;fill:#000000;" y="9"><tspan>Beurteilung der Bildungschancen nach gesprochener</tspan><tspan dy="13" x="2">Sprache</tspan></text><text x="2" text-anchor="start" class="highcharts-subtitle" data-z-index="4" style="color:#000000;font-size:12px;fill:#000000;" y="42"><tspan>«Alle Kinder erhalten die gleichen</tspan><tspan dy="15" x="2">Bildungschancen.»</tspan></text><g class="highcharts-legend" data-z-index="7" transform="translate(1,73)"><rect fill="none" class="highcharts-legend-box" rx="0" ry="0" x="0" y="0" width="307" height="27" visibility="visible"></rect><g data-z-index="1"><g><g class="highcharts-legend-item highcharts-column-series highcharts-color-undefined highcharts-series-5" data-z-index="1" transform="translate(1,-4)"><text x="17" style="color:#333333;font-size:10px;font-weight:normal;cursor:pointer;font-family:Arial;fill:#333333;" text-anchor="start" data-z-index="2" y="13"><tspan>Stimmt genau</tspan></text><rect x="3" y="4" width="10" height="10" fill="#007a2f" class="highcharts-point" data-z-index="3"></rect></g><g class="highcharts-legend-item highcharts-column-series highcharts-color-undefined highcharts-series-4" data-z-index="1" transform="translate(103,-4)"><text x="17" y="13" style="color:#333333;font-size:10px;font-weight:normal;cursor:pointer;font-family:Arial;fill:#333333;" text-anchor="start" data-z-index="2"><tspan>Stimmt eher</tspan></text><rect x="3" y="4" width="10" height="10" fill="#68ab2b" class="highcharts-point" data-z-index="3"></rect></g><g class="highcharts-legend-item highcharts-column-series highcharts-color-undefined highcharts-series-3" data-z-index="1" transform="translate(205,-4)"><text x="17" y="13" style="color:#333333;font-size:10px;font-weight:normal;cursor:pointer;font-family:Arial;fill:#333333;" text-anchor="start" data-z-index="2"><tspan>Stimmt eher nicht</tspan></text><rect x="3" y="4" width="10" height="10" fill="#FABD24" class="highcharts-point" data-z-index="3"></rect></g><g class="highcharts-legend-item highcharts-column-series highcharts-color-undefined highcharts-series-2" data-z-index="1" transform="translate(1,11)"><text x="17" y="13" style="color:#333333;font-size:10px;font-weight:normal;cursor:pointer;font-family:Arial;fill:#333333;" text-anchor="start" data-z-index="2"><tspan>Stimmt gar nicht</tspan></text><rect x="3" y="4" width="10" height="10" fill="#DC440E" class="highcharts-point" data-z-index="3"></rect></g><g class="highcharts-legend-item highcharts-column-series highcharts-color-undefined highcharts-series-1" data-z-index="1" transform="translate(103,11)"><text x="17" y="13" style="color:#333333;font-size:10px;font-weight:normal;cursor:pointer;font-family:Arial;fill:#333333;" text-anchor="start" data-z-index="2"><tspan>Weiss nicht</tspan></text><rect x="3" y="4" width="10" height="10" fill="#C8C8C8" class="highcharts-point" data-z-index="3"></rect></g><g class="highcharts-legend-item highcharts-column-series highcharts-color-undefined highcharts-series-0" data-z-index="1" transform="translate(205,11)"><text x="17" y="13" style="color:#333333;font-size:10px;font-weight:normal;cursor:pointer;font-family:Arial;fill:#333333;" text-anchor="start" data-z-index="2"><tspan>Keine Angabe</tspan></text><rect x="3" y="4" width="10" height="10" fill="#6F6F6F" class="highcharts-point" data-z-index="3"></rect></g></g></g></g><g class="highcharts-axis-labels highcharts-xaxis-labels " data-z-index="7"><text x="5" style="color:#000000;cursor:default;font-size:10px;white-space:nowrap;fill:#000000;" text-anchor="start" transform="translate(0,0)" y="116" opacity="1"><tspan>2009 Total (N=3119)</tspan></text><text x="5" style="color:#000000;cursor:default;font-size:10px;white-space:nowrap;fill:#000000;" text-anchor="start" transform="translate(0,0)" y="133" opacity="1"><tspan>2009 Nur Deutsch (N=1667)</tspan></text><text x="5" style="color:#000000;cursor:default;font-size:10px;white-space:nowrap;fill:#000000;" text-anchor="start" transform="translate(0,0)" y="151" opacity="1"><tspan>2013 Kein Deutsch (N=329)</tspan></text><text x="5" style="color:#000000;cursor:default;font-size:10px;white-space:nowrap;fill:#000000;" text-anchor="start" transform="translate(0,0)" y="168" opacity="1"></text><text x="5" style="color:#000000;cursor:default;font-size:10px;white-space:nowrap;fill:#000000;" text-anchor="start" transform="translate(0,0)" y="185" opacity="1"><tspan>2017 Deutsch u.a. (N=516)</tspan></text></g><g class="highcharts-axis-labels highcharts-yaxis-labels " data-z-index="7"><text x="140" style="color:#000000;cursor:default;font-size:10px;fill:#000000;" text-anchor="middle" transform="translate(0,0)" y="206" opacity="1">0%</text><text x="227.5" style="color:#000000;cursor:default;font-size:10px;fill:#000000;" text-anchor="middle" transform="translate(0,0)" y="206" opacity="1">50%</text><text x="304.5" style="color:#000000;cursor:default;font-size:10px;fill:#000000;" text-anchor="middle" transform="translate(0,0)" y="206" opacity="1">100%</text></g><text x="10" class="highcharts-credits" text-anchor="start" data-z-index="8" style="cursor:default;color:#000000;font-size:10px;fill:#000000;" y="196"><tspan>Quelle: Statistisches Amt Basel-Stadt, kantonale Familienbefragung: F16a_3.</tspan><tspan x="10" dy="13">Zuletzt geändert: 2019-1-18</tspan></text></svg>