<?xml version="1.0" standalone="no"?><!DOCTYPE svg PUBLIC "-//W3C//DTD SVG 1.1//EN" "http://www.w3.org/Graphics/SVG/1.1/DTD/svg11.dtd"><svg xmlns:xlink="http://www.w3.org/1999/xlink" version="1.1" class="highcharts-root" style="font-family:Arial;font-size:12px;" xmlns="http://www.w3.org/2000/svg" viewBox="0 0 485 415"><desc>Created with Highcharts 8.1.0</desc><defs><clipPath id="highcharts-wow4ggw-23-"><rect x="0" y="0" width="272" height="62" fill="none"></rect></clipPath><clipPath id="highcharts-wow4ggw-32-"><rect x="0" y="0" width="272" height="62" fill="none"></rect></clipPath><clipPath id="highcharts-wow4ggw-41-"><rect x="46" y="72" width="272" height="62" fill="none"></rect></clipPath></defs><rect fill="#fbfbfb" class="highcharts-background" x="0" y="0" width="320" height="221" rx="0" ry="0"></rect><rect fill="none" class="highcharts-plot-background" x="46" y="72" width="272" height="62"></rect><g class="highcharts-pane-group" data-z-index="0"></g><g class="highcharts-grid highcharts-xaxis-grid" data-z-index="1"><path fill="none" data-z-index="1" class="highcharts-grid-line" d="M 79.5 72 L 79.5 134" opacity="1"></path><path fill="none" data-z-index="1" class="highcharts-grid-line" d="M 113.5 72 L 113.5 134" opacity="1"></path><path fill="none" data-z-index="1" class="highcharts-grid-line" d="M 147.5 72 L 147.5 134" opacity="1"></path><path fill="none" data-z-index="1" class="highcharts-grid-line" d="M 181.5 72 L 181.5 134" opacity="1"></path><path fill="none" data-z-index="1" class="highcharts-grid-line" d="M 215.5 72 L 215.5 134" opacity="1"></path><path fill="none" data-z-index="1" class="highcharts-grid-line" d="M 249.5 72 L 249.5 134" opacity="1"></path><path fill="none" data-z-index="1" class="highcharts-grid-line" d="M 283.5 72 L 283.5 134" opacity="1"></path><path fill="none" data-z-index="1" class="highcharts-grid-line" d="M 317.5 72 L 317.5 134" opacity="1"></path><path fill="none" data-z-index="1" class="highcharts-grid-line" d="M 45.5 72 L 45.5 134" opacity="1"></path></g><g class="highcharts-grid highcharts-yaxis-grid" data-z-index="1"><path fill="none" stroke="#B9CFD7" stroke-width="0.5" data-z-index="1" class="highcharts-grid-line" d="M 46 134.25 L 318 134.25" opacity="1"></path><path fill="none" stroke="#B9CFD7" stroke-width="0.5" data-z-index="1" class="highcharts-grid-line" d="M 46 119.25 L 318 119.25" opacity="1"></path><path fill="none" stroke="#B9CFD7" stroke-width="0.5" data-z-index="1" class="highcharts-grid-line" d="M 46 103.25 L 318 103.25" opacity="1"></path><path fill="none" stroke="#B9CFD7" stroke-width="0.5" data-z-index="1" class="highcharts-grid-line" d="M 46 88.25 L 318 88.25" opacity="1"></path><path fill="none" stroke="#B9CFD7" stroke-width="0.5" data-z-index="1" class="highcharts-grid-line" d="M 46 71.75 L 318 71.75" opacity="1"></path></g><rect fill="none" class="highcharts-plot-border" data-z-index="1" x="46" y="72" width="272" height="62"></rect><g class="highcharts-axis highcharts-xaxis" data-z-index="2"><path fill="none" class="highcharts-axis-line" stroke="#B9CFD7" stroke-width="0.5" data-z-index="7" d="M 46 134.25 L 318 134.25"></path></g><g class="highcharts-axis highcharts-yaxis" data-z-index="2"><path fill="none" class="highcharts-axis-line" data-z-index="7" d="M 46 72 L 46 134"></path></g><g class="highcharts-series-group" data-z-index="3"><g data-z-index="0.1" class="highcharts-series highcharts-series-0 highcharts-column-series" transform="translate(46,72) scale(1 1)" clip-path="url(#highcharts-wow4ggw-32-)"><rect x="7" y="27" width="10" height="36" fill="#FABD24" opacity="1" class="highcharts-point"></rect><rect x="41" y="10" width="10" height="53" fill="#FABD24" opacity="1" class="highcharts-point"></rect><rect x="75" y="31" width="10" height="32" fill="#FABD24" opacity="1" class="highcharts-point"></rect><rect x="109" y="15" width="10" height="48" fill="#FABD24" opacity="1" class="highcharts-point"></rect><rect x="143" y="32" width="10" height="31" fill="#FABD24" opacity="1" class="highcharts-point"></rect><rect x="177" y="24" width="10" height="39" fill="#FABD24" opacity="1" class="highcharts-point"></rect><rect x="211" y="16" width="10" height="47" fill="#FABD24" opacity="1" class="highcharts-point"></rect><rect x="245" y="22" width="10" height="41" fill="#FABD24" opacity="1" class="highcharts-point"></rect></g><g data-z-index="0.1" class="highcharts-markers highcharts-series-0 highcharts-column-series" transform="translate(46,72) scale(1 1)" clip-path="none"></g><g data-z-index="0.1" class="highcharts-series highcharts-series-1 highcharts-column-series" transform="translate(46,72) scale(1 1)" clip-path="url(#highcharts-wow4ggw-32-)"><rect x="17" y="28" width="10" height="35" fill="#B00000" opacity="1" class="highcharts-point"></rect><rect x="51" y="16" width="10" height="47" fill="#B00000" opacity="1" class="highcharts-point"></rect><rect x="85" y="28" width="10" height="35" fill="#B00000" opacity="1" class="highcharts-point"></rect><rect x="119" y="9" width="10" height="54" fill="#B00000" opacity="1" class="highcharts-point"></rect><rect x="153" y="33" width="10" height="30" fill="#B00000" opacity="1" class="highcharts-point"></rect><rect x="187" y="33" width="10" height="30" fill="#B00000" opacity="1" class="highcharts-point"></rect><rect x="221" y="18" width="10" height="45" fill="#B00000" opacity="1" class="highcharts-point"></rect><rect x="255" y="24" width="10" height="39" fill="#B00000" opacity="1" class="highcharts-point"></rect></g><g data-z-index="0.1" class="highcharts-markers highcharts-series-1 highcharts-column-series" transform="translate(46,72) scale(1 1)" clip-path="none"></g></g><text x="2" text-anchor="start" class="highcharts-title" data-z-index="4" style="color:#000000;font-size:10px;font-weight:bold;fill:#000000;" y="9"><tspan>Zugezogene nach Zuzugsland, bei denen die</tspan><tspan dy="13" x="2">Staatsangehörigkeit dem Zuzugsland entspricht</tspan></text><text x="2" text-anchor="start" class="highcharts-subtitle" data-z-index="4" style="color:#000000;font-size:10px;font-weight:normal;font-family:Arial;fill:#000000;" y="38"><tspan>Basel-Stadt</tspan></text><text x="2" text-anchor="start" class="highcharts-caption" data-z-index="4" style="color:#666666;fill:#666666;" y="221"></text><g class="highcharts-legend" data-z-index="7" transform="translate(43,52)"><rect fill="none" class="highcharts-legend-box" rx="0" ry="0" x="0" y="0" width="112" height="8" visibility="visible"></rect><g data-z-index="1"><g><g class="highcharts-legend-item highcharts-column-series highcharts-color-undefined highcharts-series-0" data-z-index="1" transform="translate(0,-5)"><text x="21" style="color:#333333;cursor:pointer;font-size:10px;font-weight:normal;fill:#333333;" text-anchor="start" data-z-index="2" y="13"><tspan>2009</tspan></text><rect x="3" y="4" width="10" height="10" fill="#FABD24" class="highcharts-point" data-z-index="3"></rect></g><g class="highcharts-legend-item highcharts-column-series highcharts-color-undefined highcharts-series-1" data-z-index="1" transform="translate(66.4375,-5)"><text x="21" y="13" style="color:#333333;cursor:pointer;font-size:10px;font-weight:normal;fill:#333333;" text-anchor="start" data-z-index="2"><tspan>2018</tspan></text><rect x="3" y="4" width="10" height="10" fill="#B00000" class="highcharts-point" data-z-index="3"></rect></g></g></g></g><g class="highcharts-axis-labels highcharts-xaxis-labels" data-z-index="7"><text x="65.35702260395516" style="color:#000000;cursor:default;font-size:10px;fill:#000000;" text-anchor="end" transform="translate(0,0) rotate(-45 65.35702260395516 149)" y="149" opacity="1">Schweiz</text><text x="99.35702260395516" style="color:#000000;cursor:default;font-size:10px;fill:#000000;" text-anchor="end" transform="translate(0,0) rotate(-45 99.35702260395516 149)" y="149" opacity="1">Deutschland</text><text x="133.35702260395516" style="color:#000000;cursor:default;font-size:10px;fill:#000000;" text-anchor="end" transform="translate(0,0) rotate(-45 133.35702260395516 149)" y="149" opacity="1">USA</text><text x="167.35702260395516" style="color:#000000;cursor:default;font-size:10px;fill:#000000;" text-anchor="end" transform="translate(0,0) rotate(-45 167.35702260395516 149)" y="149" opacity="1">Italien</text><text x="201.35702260395516" style="color:#000000;cursor:default;font-size:10px;fill:#000000;" text-anchor="end" transform="translate(0,0) rotate(-45 201.35702260395516 149)" y="149" opacity="1">Frankreich</text><text x="235.35702260395516" style="color:#000000;cursor:default;font-size:10px;fill:#000000;" text-anchor="end" transform="translate(0,0) rotate(-45 235.35702260395516 149)" y="149" opacity="1">UK</text><text x="269.35702260395516" style="color:#000000;cursor:default;font-size:10px;fill:#000000;" text-anchor="end" transform="translate(0,0) rotate(-45 269.35702260395516 149)" y="149" opacity="1"><tspan>Übriges Ausland</tspan></text><text x="303.35702260395516" style="color:#000000;cursor:default;font-size:10px;fill:#000000;" text-anchor="end" transform="translate(0,0) rotate(-45 303.35702260395516 149)" y="149" opacity="1">Total</text></g><g class="highcharts-axis-labels highcharts-yaxis-labels" data-z-index="7"><text x="31" style="color:#000000;cursor:default;font-size:10px;fill:#000000;" text-anchor="end" transform="translate(0,0)" y="137" opacity="1">0%</text><text x="31" style="color:#000000;cursor:default;font-size:10px;fill:#000000;" text-anchor="end" transform="translate(0,0)" y="122" opacity="1">25%</text><text x="31" style="color:#000000;cursor:default;font-size:10px;fill:#000000;" text-anchor="end" transform="translate(0,0)" y="106" opacity="1">50%</text><text x="31" style="color:#000000;cursor:default;font-size:10px;fill:#000000;" text-anchor="end" transform="translate(0,0)" y="91" opacity="1">75%</text><text x="31" style="color:#000000;cursor:default;font-size:10px;fill:#000000;" text-anchor="end" transform="translate(0,0)" y="75" opacity="1">100%</text></g><text x="10" class="highcharts-credits" text-anchor="start" data-z-index="8" style="cursor:default;color:#000000;font-size:10;fill:#000000;" y="196"><tspan>Quelle: Statistisches Amt Basel-Stadt, Bevölkerungsstatistik.</tspan><tspan x="10" dy="15">Zuletzt geändert: 2019-12-30</tspan></text><g class="highcharts-control-points" data-z-index="99" clip-path="url(#highcharts-wow4ggw-41-)"></g></svg>