<?xml version="1.0" standalone="no"?><!DOCTYPE svg PUBLIC "-//W3C//DTD SVG 1.1//EN" "http://www.w3.org/Graphics/SVG/1.1/DTD/svg11.dtd"><svg xmlns:xlink="http://www.w3.org/1999/xlink" version="1.1" class="highcharts-root" style="font-family:Arial;font-size:10px;color:#000000;fill:#000000;" xmlns="http://www.w3.org/2000/svg" viewBox="0 0 485 415"><desc>Created with Highcharts 8.2.0</desc><defs><clipPath id="highcharts-m6hup0b-22-"><rect x="0" y="0" width="260" height="92" fill="none"></rect></clipPath><clipPath id="highcharts-m6hup0b-28-"><rect x="0" y="0" width="260" height="92" fill="none"></rect></clipPath><clipPath id="highcharts-m6hup0b-39-"><rect x="45" y="62" width="260" height="92" fill="none"></rect></clipPath></defs><rect fill="#fbfbfb" class="highcharts-background" x="0" y="0" width="320" height="221" rx="0" ry="0"></rect><rect fill="none" class="highcharts-plot-background" x="45" y="62" width="260" height="92"></rect><g class="highcharts-pane-group" data-z-index="0"></g><g class="highcharts-grid highcharts-xaxis-grid" data-z-index="1"><path fill="none" data-z-index="1" class="highcharts-grid-line" d="M 96.5 62 L 96.5 154" opacity="1"></path><path fill="none" data-z-index="1" class="highcharts-grid-line" d="M 148.5 62 L 148.5 154" opacity="1"></path><path fill="none" data-z-index="1" class="highcharts-grid-line" d="M 200.5 62 L 200.5 154" opacity="1"></path><path fill="none" data-z-index="1" class="highcharts-grid-line" d="M 252.5 62 L 252.5 154" opacity="1"></path><path fill="none" data-z-index="1" class="highcharts-grid-line" d="M 304.5 62 L 304.5 154" opacity="1"></path><path fill="none" data-z-index="1" class="highcharts-grid-line" d="M 44.5 62 L 44.5 154" opacity="1"></path></g><g class="highcharts-grid highcharts-yaxis-grid" data-z-index="1"><path fill="none" stroke="#B9CFD7" stroke-width="0.5" data-z-index="1" class="highcharts-grid-line" d="M 45 154.25 L 305 154.25" opacity="1"></path><path fill="none" stroke="#B9CFD7" stroke-width="0.5" data-z-index="1" class="highcharts-grid-line" d="M 45 136.25 L 305 136.25" opacity="1"></path><path fill="none" stroke="#B9CFD7" stroke-width="0.5" data-z-index="1" class="highcharts-grid-line" d="M 45 117.25 L 305 117.25" opacity="1"></path><path fill="none" stroke="#B9CFD7" stroke-width="0.5" data-z-index="1" class="highcharts-grid-line" d="M 45 99.25 L 305 99.25" opacity="1"></path><path fill="none" stroke="#B9CFD7" stroke-width="0.5" data-z-index="1" class="highcharts-grid-line" d="M 45 80.25 L 305 80.25" opacity="1"></path><path fill="none" stroke="#B9CFD7" stroke-width="0.5" data-z-index="1" class="highcharts-grid-line" d="M 45 61.75 L 305 61.75" opacity="1"></path></g><rect fill="none" class="highcharts-plot-border" data-z-index="1" x="45" y="62" width="260" height="92"></rect><g class="highcharts-axis highcharts-xaxis" data-z-index="2"><path fill="none" class="highcharts-axis-line" stroke="#B9CFD7" stroke-width="0.5" data-z-index="7" d="M 45 154.25 L 305 154.25"></path></g><g class="highcharts-axis highcharts-yaxis" data-z-index="2"><path fill="none" class="highcharts-axis-line" data-z-index="7" d="M 45 62 L 45 154"></path></g><g class="highcharts-series-group" data-z-index="3"><g class="highcharts-series highcharts-series-0 highcharts-column-series" data-z-index="0.1" opacity="1" transform="translate(45,62) scale(1 1)" clip-path="url(#highcharts-m6hup0b-28-)"><rect x="19" y="19" width="15" height="37" fill="#73B97C" opacity="1" class="highcharts-point"></rect><rect x="71" y="46" width="15" height="10" fill="#73B97C" opacity="1" class="highcharts-point"></rect><rect x="123" y="47" width="15" height="9" fill="#73B97C" opacity="1" class="highcharts-point"></rect><rect x="175" y="47" width="15" height="9" fill="#73B97C" opacity="1" class="highcharts-point"></rect><rect x="227" y="48" width="15" height="8" fill="#73B97C" opacity="1" class="highcharts-point"></rect></g><g class="highcharts-markers highcharts-series-0 highcharts-column-series" data-z-index="0.1" opacity="1" transform="translate(45,62) scale(1 1)" clip-path="none"></g><g class="highcharts-series highcharts-series-1 highcharts-column-series" data-z-index="0.1" opacity="1" transform="translate(45,62) scale(1 1)" clip-path="url(#highcharts-m6hup0b-28-)"><rect x="19" y="56" width="15" height="24" fill="#71A3B5" opacity="1" class="highcharts-point highcharts-negative"></rect><rect x="71" y="56" width="15" height="7" fill="#71A3B5" opacity="1" class="highcharts-point highcharts-negative"></rect><rect x="123" y="56" width="15" height="4" fill="#71A3B5" opacity="1" class="highcharts-point highcharts-negative"></rect><rect x="175" y="56" width="15" height="8" fill="#71A3B5" opacity="1" class="highcharts-point highcharts-negative"></rect><rect x="227" y="56" width="15" height="6" fill="#71A3B5" opacity="1" class="highcharts-point highcharts-negative"></rect></g><g class="highcharts-markers highcharts-series-1 highcharts-column-series" data-z-index="0.1" opacity="1" transform="translate(45,62) scale(1 1)" clip-path="none"></g><g class="highcharts-series highcharts-series-2 highcharts-scatter-series" data-z-index="0.1" opacity="1" transform="translate(45,62) scale(1 1)" clip-path="url(#highcharts-m6hup0b-28-)"></g><g class="highcharts-markers highcharts-series-2 highcharts-scatter-series" data-z-index="0.1" opacity="1" transform="translate(45,62) scale(1 1)" clip-path="none"><path fill="#000000" d="M 26 45.8232 A 4 4 0 1 1 26.003999999333335 45.82319800000017 Z" opacity="1" class="highcharts-point"></path><path fill="#000000" d="M 78 56.2008 A 4 4 0 1 1 78.00399999933333 56.20079800000017 Z" opacity="1" class="highcharts-point"></path><path fill="#000000" d="M 130 54.1584 A 4 4 0 1 1 130.00399999933333 54.15839800000017 Z" opacity="1" class="highcharts-point"></path><path fill="#000000" d="M 182 58.059200000000004 A 4 4 0 1 1 182.00399999933333 58.05919800000017 Z" opacity="1" class="highcharts-point"></path><path fill="#000000" d="M 234 56.624 A 4 4 0 1 1 234.00399999933333 56.62399800000017 Z" opacity="1" class="highcharts-point"></path></g></g><text x="2" text-anchor="start" class="highcharts-title" data-z-index="4" style="color:#000000;font-size:10px;font-weight:bold;fill:#000000;" y="9"><tspan>Zugezogene, Weggezogene und Wanderungssaldo</tspan></text><text x="2" text-anchor="start" class="highcharts-subtitle" data-z-index="4" style="color:#000000;font-size:10px;font-weight:normal;font-family:Arial;fill:#000000;" y="25"><tspan>nach Zuzugs- und Wegzugsland, Basel-Stadt, 2018</tspan></text><text x="2" text-anchor="start" class="highcharts-caption" data-z-index="4" style="color:#666666;fill:#666666;" y="219"></text><g class="highcharts-legend" data-z-index="7" transform="translate(42,39)"><rect fill="none" class="highcharts-legend-box" rx="0" ry="0" x="0" y="0" width="218" height="11" visibility="visible"></rect><g data-z-index="1"><g><g class="highcharts-legend-item highcharts-column-series highcharts-color-undefined highcharts-series-0" data-z-index="1" transform="translate(0,-5)"><text x="21" style="color:#000000;cursor:pointer;font-size:10px;font-weight:normal;fill:#000000;" text-anchor="start" data-z-index="2" y="13"><tspan>Zugezogene</tspan></text><rect x="3" y="4" width="10" height="10" fill="#73B97C" class="highcharts-point" data-z-index="3"></rect></g><g class="highcharts-legend-item highcharts-column-series highcharts-color-undefined highcharts-series-1" data-z-index="1" transform="translate(81.46875,-5)"><text x="21" y="13" style="color:#000000;cursor:pointer;font-size:10px;font-weight:normal;fill:#000000;" text-anchor="start" data-z-index="2"><tspan>Weggezogene</tspan></text><rect x="3" y="4" width="10" height="10" fill="#71A3B5" class="highcharts-point" data-z-index="3"></rect></g><g class="highcharts-legend-item highcharts-scatter-series highcharts-color-undefined highcharts-series-2" data-z-index="1" transform="translate(171.828125,-5)"><path fill="none" d="M 0 10 L 16 10" class="highcharts-graph"></path><path fill="#000000" d="M 8 14 A 4 4 0 1 1 8.003999999333336 13.999998000000167 Z" class="highcharts-point" opacity="1"></path><text x="21" y="13" style="color:#000000;cursor:pointer;font-size:10px;font-weight:normal;fill:#000000;" text-anchor="start" data-z-index="2"><tspan>Saldo</tspan></text></g></g></g></g><g class="highcharts-axis-labels highcharts-xaxis-labels" data-z-index="7"><text x="73.35702260395516" style="color:#000000;cursor:default;font-size:10px;fill:#000000;" text-anchor="end" transform="translate(0,0) rotate(-45 73.35702260395516 169)" y="169" opacity="1">Deutschland</text><text x="125.35702260395516" style="color:#000000;cursor:default;font-size:10px;fill:#000000;" text-anchor="end" transform="translate(0,0) rotate(-45 125.35702260395516 169)" y="169" opacity="1">USA</text><text x="177.35702260395516" style="color:#000000;cursor:default;font-size:10px;fill:#000000;" text-anchor="end" transform="translate(0,0) rotate(-45 177.35702260395516 169)" y="169" opacity="1">Italien</text><text x="229.35702260395516" style="color:#000000;cursor:default;font-size:10px;fill:#000000;" text-anchor="end" transform="translate(0,0) rotate(-45 229.35702260395516 169)" y="169" opacity="1">Frankreich</text><text x="281.35702260395516" style="color:#000000;cursor:default;font-size:10px;fill:#000000;" text-anchor="end" transform="translate(0,0) rotate(-45 281.35702260395516 169)" y="169" opacity="1">UK</text></g><g class="highcharts-axis-labels highcharts-yaxis-labels" data-z-index="7"><text x="30" style="color:#000000;cursor:default;font-size:10px;fill:#000000;" text-anchor="end" transform="translate(0,0)" y="139" opacity="1"><tspan>-1 000</tspan></text><text x="30" style="color:#000000;cursor:default;font-size:10px;fill:#000000;" text-anchor="end" transform="translate(0,0)" y="120" opacity="1">0</text><text x="30" style="color:#000000;cursor:default;font-size:10px;fill:#000000;" text-anchor="end" transform="translate(0,0)" y="102" opacity="1"><tspan>1 000</tspan></text><text x="30" style="color:#000000;cursor:default;font-size:10px;fill:#000000;" text-anchor="end" transform="translate(0,0)" y="83" opacity="1"><tspan>2 000</tspan></text><text x="30" style="color:#000000;cursor:default;font-size:10px;fill:#000000;" text-anchor="end" transform="translate(0,0)" y="157" opacity="1"><tspan>-2 000</tspan></text><text x="30" style="color:#000000;cursor:default;font-size:10px;fill:#000000;" text-anchor="end" transform="translate(0,0)" y="65" opacity="1"><tspan>3 000</tspan></text></g><text x="10" class="highcharts-credits" text-anchor="start" data-z-index="8" style="cursor:default;color:#000000;font-size:10px;fill:#000000;" y="196"><tspan>Quelle: Statistisches Amt Basel-Stadt, Bevölkerungsstatistik.</tspan><tspan x="10" dy="13">Zuletzt geändert: 2019-12-30</tspan></text><g class="highcharts-control-points" data-z-index="99" clip-path="url(#highcharts-m6hup0b-39-)"></g></svg>