<?xml version="1.0" standalone="no"?><!DOCTYPE svg PUBLIC "-//W3C//DTD SVG 1.1//EN" "http://www.w3.org/Graphics/SVG/1.1/DTD/svg11.dtd"><svg xmlns:xlink="http://www.w3.org/1999/xlink" version="1.1" class="highcharts-root" style="font-family:Arial;font-size:12px;" xmlns="http://www.w3.org/2000/svg" viewBox="0 0 485 415"><desc>Created with Highcharts 8.1.0</desc><defs><clipPath id="highcharts-k1t6gnc-62-"><rect x="0" y="0" width="370" height="201" fill="none"></rect></clipPath><clipPath id="highcharts-k1t6gnc-74-"><rect x="0" y="0" width="370" height="201" fill="none"></rect></clipPath><clipPath id="highcharts-k1t6gnc-119-"><rect x="105" y="135" width="370" height="201" fill="none"></rect></clipPath></defs><rect fill="#fbfbfb" class="highcharts-background" x="0" y="0" width="485" height="428" rx="0" ry="0"></rect><rect fill="none" class="highcharts-plot-background" x="105" y="135" width="370" height="201"></rect><g class="highcharts-pane-group" data-z-index="0"></g><g class="highcharts-grid highcharts-xaxis-grid" data-z-index="1"><path fill="none" data-z-index="1" class="highcharts-grid-line" d="M 108.5 135 L 108.5 336" opacity="1"></path><path fill="none" data-z-index="1" class="highcharts-grid-line" d="M 144.5 135 L 144.5 336" opacity="1"></path><path fill="none" data-z-index="1" class="highcharts-grid-line" d="M 180.5 135 L 180.5 336" opacity="1"></path><path fill="none" data-z-index="1" class="highcharts-grid-line" d="M 216.5 135 L 216.5 336" opacity="1"></path><path fill="none" data-z-index="1" class="highcharts-grid-line" d="M 253.5 135 L 253.5 336" opacity="1"></path><path fill="none" data-z-index="1" class="highcharts-grid-line" d="M 289.5 135 L 289.5 336" opacity="1"></path><path fill="none" data-z-index="1" class="highcharts-grid-line" d="M 325.5 135 L 325.5 336" opacity="1"></path><path fill="none" data-z-index="1" class="highcharts-grid-line" d="M 362.5 135 L 362.5 336" opacity="1"></path><path fill="none" data-z-index="1" class="highcharts-grid-line" d="M 398.5 135 L 398.5 336" opacity="1"></path><path fill="none" data-z-index="1" class="highcharts-grid-line" d="M 434.5 135 L 434.5 336" opacity="1"></path><path fill="none" data-z-index="1" class="highcharts-grid-line" d="M 470.5 135 L 470.5 336" opacity="1"></path></g><g class="highcharts-grid highcharts-yaxis-grid" data-z-index="1"><path fill="none" stroke="#B9CFD7" stroke-width="0.5" data-z-index="1" class="highcharts-grid-line" d="M 105 336.25 L 475 336.25" opacity="1"></path><path fill="none" stroke="#B9CFD7" stroke-width="0.5" data-z-index="1" class="highcharts-grid-line" d="M 105 269.25 L 475 269.25" opacity="1"></path><path fill="none" stroke="#B9CFD7" stroke-width="0.5" data-z-index="1" class="highcharts-grid-line" d="M 105 202.25 L 475 202.25" opacity="1"></path><path fill="none" stroke="#B9CFD7" stroke-width="0.5" data-z-index="1" class="highcharts-grid-line" d="M 105 134.75 L 475 134.75" opacity="1"></path></g><rect fill="none" class="highcharts-plot-border" data-z-index="1" x="105" y="135" width="370" height="201"></rect><g class="highcharts-axis highcharts-xaxis" data-z-index="2"><path fill="none" class="highcharts-axis-line" stroke="#B9CFD7" stroke-width="0.5" data-z-index="7" d="M 105 336.25 L 475 336.25"></path></g><g class="highcharts-axis highcharts-yaxis" data-z-index="2"><path fill="none" class="highcharts-axis-line" data-z-index="7" d="M 105 135 L 105 336"></path></g><g class="highcharts-series-group" data-z-index="3"><g data-z-index="0.1" class="highcharts-series highcharts-series-0 highcharts-line-series" transform="translate(105,135) scale(1 1)" clip-path="url(#highcharts-k1t6gnc-74-)"><path fill="none" d="M 3.6274509803889 57.667713112 L 39.901960784311 61.444818548 L 76.176470588233 59.175084204 L 112.45098039216 55.16539791599999 L 148.72549019608 59.276661832 L 185 58.261077172 L 221.27450980392 55.61807725199998 L 257.54901960784 51.531695929999984 L 293.82352941177 51.57592973199999 L 330.09803921569 46.139453922" class="highcharts-graph" data-z-index="1" stroke="#008AC3" stroke-width="2" stroke-linejoin="round" stroke-linecap="round"></path></g><g data-z-index="0.1" class="highcharts-markers highcharts-series-0 highcharts-line-series" transform="translate(105,135) scale(1 1)" clip-path="none"></g><g data-z-index="0.1" class="highcharts-series highcharts-series-1 highcharts-line-series" transform="translate(105,135) scale(1 1)" clip-path="url(#highcharts-k1t6gnc-74-)"><path fill="none" d="M 3.6274509803889 172.971565452 L 39.901960784311 170.858985102 L 76.176470588233 169.759984772 L 112.45098039216 169.904956826 L 148.72549019608 173.42392091 L 185 169.890112842 L 221.27450980392 163.58049276399998 L 257.54901960784 160.089125846 L 293.82352941177 164.80844718999998 L 330.09803921569 160.68826544" class="highcharts-graph" data-z-index="1" stroke="#689199" stroke-width="2" stroke-linejoin="round" stroke-linecap="round"></path></g><g data-z-index="0.1" class="highcharts-markers highcharts-series-1 highcharts-line-series" transform="translate(105,135) scale(1 1)" clip-path="none"></g><g data-z-index="0.1" class="highcharts-series highcharts-series-2 highcharts-line-series" transform="translate(105,135) scale(1 1)" clip-path="url(#highcharts-k1t6gnc-74-)"><path fill="none" d="M 3.6274509803889 167.70779782 L 39.901960784311 165.745368088 L 76.176470588233 161.467196452 L 112.45098039216 160.849317092 L 148.72549019608 158.95513945599998 L 185 156.4273013738 L 221.27450980392 152.0530574328 L 257.54901960784 149.9604363962 L 293.82352941177 146.8999775126 L 330.09803921569 146.7010843946" class="highcharts-graph" data-z-index="1" stroke="#FABD24" stroke-width="2" stroke-linejoin="round" stroke-linecap="round"></path></g><g data-z-index="0.1" class="highcharts-markers highcharts-series-2 highcharts-line-series" transform="translate(105,135) scale(1 1)" clip-path="none"></g><g data-z-index="0.1" class="highcharts-series highcharts-series-3 highcharts-line-series" transform="translate(105,135) scale(1 1)" clip-path="url(#highcharts-k1t6gnc-74-)"><path fill="none" d="M 3.6274509803889 95.12774637 L 39.901960784311 120.09317702599999 L 76.176470588233 117.10112680399999 L 112.45098039216 129.9034191608 L 148.72549019608 140.8100300532 L 185 132.748340907 L 221.27450980392 128.0667030966 L 257.54901960784 128.27860199999998 L 293.82352941177 129.8464635194" class="highcharts-graph" data-z-index="1" stroke="#B00000" stroke-width="2" stroke-linejoin="round" stroke-linecap="round"></path></g><g data-z-index="0.1" class="highcharts-markers highcharts-series-3 highcharts-line-series" transform="translate(105,135) scale(1 1)" clip-path="none"></g><g data-z-index="0.1" class="highcharts-series highcharts-series-4 highcharts-line-series" transform="translate(105,135) scale(1 1)" clip-path="url(#highcharts-k1t6gnc-74-)"><path fill="none" d="M 3.6274509803889 183.375508094 L 39.901960784311 183.560639814 L 76.176470588233 183.41501384 L 112.45098039216 183.6185328792 L 148.72549019608 185.4063166458 L 185 186.485501364 L 221.27450980392 183.1712806504 L 257.54901960784 182.97097 L 293.82352941177 182.93836793399998" class="highcharts-graph" data-z-index="1" stroke="#DC440E" stroke-width="2" stroke-linejoin="round" stroke-linecap="round"></path></g><g data-z-index="0.1" class="highcharts-markers highcharts-series-4 highcharts-line-series" transform="translate(105,135) scale(1 1)" clip-path="none"></g></g><text x="10" text-anchor="start" class="highcharts-title" data-z-index="4" style="color:#000000;font-size:14px;font-weight:bold;fill:#000000;" y="21"><tspan>Entwicklung des Ertrags aus Steuern</tspan></text><text x="10" text-anchor="start" class="highcharts-subtitle" data-z-index="4" style="color:#000000;font-size:12px;font-weight:normal;font-family:Arial;fill:#000000;" y="40"><tspan>in Franken, Basel-Stadt</tspan></text><text x="10" text-anchor="start" class="highcharts-caption" data-z-index="4" style="color:#666666;fill:#666666;" y="385"></text><g class="highcharts-legend" data-z-index="7" transform="translate(97,55)"><rect fill="none" class="highcharts-legend-box" rx="0" ry="0" x="0" y="0" width="297" height="68" visibility="visible"></rect><g data-z-index="1"><g><g class="highcharts-legend-item highcharts-line-series highcharts-color-undefined highcharts-series-0" data-z-index="1" transform="translate(8,3)"><path fill="none" d="M 0 11 L 16 11" class="highcharts-graph" stroke="#008AC3" stroke-width="2"></path><text x="21" style="color:#333333;cursor:pointer;font-size:12px;font-weight:normal;fill:#333333;" text-anchor="start" data-z-index="2" y="15"><tspan>Einkommenssteuer</tspan></text></g><g class="highcharts-legend-item highcharts-line-series highcharts-color-undefined highcharts-series-1" data-z-index="1" transform="translate(151.109375,3)"><path fill="none" d="M 0 11 L 16 11" class="highcharts-graph" stroke="#689199" stroke-width="2"></path><text x="21" y="15" style="color:#333333;cursor:pointer;font-size:12px;font-weight:normal;fill:#333333;" text-anchor="start" data-z-index="2"><tspan>Vermögenssteuer</tspan></text></g><g class="highcharts-legend-item highcharts-line-series highcharts-color-undefined highcharts-series-2" data-z-index="1" transform="translate(8,22)"><path fill="none" d="M 0 11 L 16 11" class="highcharts-graph" stroke="#FABD24" stroke-width="2"></path><text x="21" y="15" style="color:#333333;cursor:pointer;font-size:12px;font-weight:normal;fill:#333333;" text-anchor="start" data-z-index="2"><tspan>Quellensteuer</tspan></text></g><g class="highcharts-legend-item highcharts-line-series highcharts-color-undefined highcharts-series-3" data-z-index="1" transform="translate(151.109375,22)"><path fill="none" d="M 0 11 L 16 11" class="highcharts-graph" stroke="#B00000" stroke-width="2"></path><text x="21" y="15" style="color:#333333;cursor:pointer;font-size:12px;font-weight:normal;fill:#333333;" text-anchor="start" data-z-index="2"><tspan>Gewinnsteuer</tspan></text></g><g class="highcharts-legend-item highcharts-line-series highcharts-color-undefined highcharts-series-4" data-z-index="1" transform="translate(8,41)"><path fill="none" d="M 0 11 L 16 11" class="highcharts-graph" stroke="#DC440E" stroke-width="2"></path><text x="21" y="15" style="color:#333333;cursor:pointer;font-size:12px;font-weight:normal;fill:#333333;" text-anchor="start" data-z-index="2"><tspan>Kapitalsteuer</tspan></text></g></g></g></g><g class="highcharts-axis-labels highcharts-xaxis-labels" data-z-index="7"><text x="111.22017584474067" style="color:#000000;cursor:default;font-size:11px;fill:#000000;" text-anchor="end" transform="translate(0,0) rotate(-45 111.22017584474067 352)" y="352" opacity="1">2007</text><text x="147.4946856486607" style="color:#000000;cursor:default;font-size:11px;fill:#000000;" text-anchor="end" transform="translate(0,0) rotate(-45 147.4946856486607 352)" y="352" opacity="1">2008</text><text x="183.76919545258068" style="color:#000000;cursor:default;font-size:11px;fill:#000000;" text-anchor="end" transform="translate(0,0) rotate(-45 183.76919545258068 352)" y="352" opacity="1">2009</text><text x="220.0437052565107" style="color:#000000;cursor:default;font-size:11px;fill:#000000;" text-anchor="end" transform="translate(0,0) rotate(-45 220.0437052565107 352)" y="352" opacity="1">2010</text><text x="256.31821506043065" style="color:#000000;cursor:default;font-size:11px;fill:#000000;" text-anchor="end" transform="translate(0,0) rotate(-45 256.31821506043065 352)" y="352" opacity="1">2011</text><text x="292.59272486435066" style="color:#000000;cursor:default;font-size:11px;fill:#000000;" text-anchor="end" transform="translate(0,0) rotate(-45 292.59272486435066 352)" y="352" opacity="1">2012</text><text x="328.86723466827067" style="color:#000000;cursor:default;font-size:11px;fill:#000000;" text-anchor="end" transform="translate(0,0) rotate(-45 328.86723466827067 352)" y="352" opacity="1">2013</text><text x="365.1417444721907" style="color:#000000;cursor:default;font-size:11px;fill:#000000;" text-anchor="end" transform="translate(0,0) rotate(-45 365.1417444721907 352)" y="352" opacity="1">2014</text><text x="401.41625427612064" style="color:#000000;cursor:default;font-size:11px;fill:#000000;" text-anchor="end" transform="translate(0,0) rotate(-45 401.41625427612064 352)" y="352" opacity="1">2015</text><text x="437.69076408004065" style="color:#000000;cursor:default;font-size:11px;fill:#000000;" text-anchor="end" transform="translate(0,0) rotate(-45 437.69076408004065 352)" y="352" opacity="1">2016</text><text x="473.96527388396066" style="color:#000000;cursor:default;font-size:11px;fill:#000000;" text-anchor="end" transform="translate(0,0) rotate(-45 473.96527388396066 352)" y="352" opacity="1">2017</text></g><g class="highcharts-axis-labels highcharts-yaxis-labels" data-z-index="7"><text x="90" style="color:#000000;cursor:default;font-size:11px;fill:#000000;" text-anchor="end" transform="translate(0,0)" y="341" opacity="1">0</text><text x="90" style="color:#000000;cursor:default;font-size:11px;fill:#000000;" text-anchor="end" transform="translate(0,0)" y="274" opacity="1"><tspan>500 000 000</tspan></text><text x="90" style="color:#000000;cursor:default;font-size:11px;fill:#000000;" text-anchor="end" transform="translate(0,0)" y="207" opacity="1"><tspan>1 000 000 000</tspan></text><text x="90" style="color:#000000;cursor:default;font-size:11px;fill:#000000;" text-anchor="end" transform="translate(0,0)" y="140" opacity="1"><tspan>1 500 000 000</tspan></text></g><text x="10" class="highcharts-credits" text-anchor="start" data-z-index="8" style="cursor:default;color:#000000;font-size:10px;fill:#000000;" y="403"><tspan>Quelle: Jahresbericht des Kantons Basel-Stadt.</tspan><tspan x="10" dy="13">Zuletzt geändert: 2019-6-4</tspan></text><g class="highcharts-control-points" data-z-index="99" clip-path="url(#highcharts-k1t6gnc-119-)"></g></svg>