<?xml version="1.0" standalone="no"?><!DOCTYPE svg PUBLIC "-//W3C//DTD SVG 1.1//EN" "http://www.w3.org/Graphics/SVG/1.1/DTD/svg11.dtd"><svg xmlns:xlink="http://www.w3.org/1999/xlink" version="1.1" class="highcharts-root" style="font-family:Arial;font-size:12px;" xmlns="http://www.w3.org/2000/svg" viewBox="0 0 485 415"><desc>Created with Highcharts 8.1.2</desc><defs><clipPath id="highcharts-39ccbrn-91-"><rect x="0" y="0" width="405" height="184" fill="none"></rect></clipPath><clipPath id="highcharts-39ccbrn-113-"><rect x="0" y="0" width="405" height="184" fill="none"></rect></clipPath><clipPath id="highcharts-39ccbrn-177-"><rect x="70" y="116" width="405" height="184" fill="none"></rect></clipPath></defs><rect fill="#fbfbfb" class="highcharts-background" x="0" y="0" width="485" height="428" rx="0" ry="0"></rect><rect fill="none" class="highcharts-plot-background" x="70" y="116" width="405" height="184"></rect><g class="highcharts-pane-group" data-z-index="0"></g><g class="highcharts-grid highcharts-xaxis-grid" data-z-index="1"><path fill="none" data-z-index="1" class="highcharts-grid-line" d="M 88.5 116 L 88.5 300" opacity="1"></path><path fill="none" data-z-index="1" class="highcharts-grid-line" d="M 108.5 116 L 108.5 300" opacity="1"></path><path fill="none" data-z-index="1" class="highcharts-grid-line" d="M 127.5 116 L 127.5 300" opacity="1"></path><path fill="none" data-z-index="1" class="highcharts-grid-line" d="M 146.5 116 L 146.5 300" opacity="1"></path><path fill="none" data-z-index="1" class="highcharts-grid-line" d="M 165.5 116 L 165.5 300" opacity="1"></path><path fill="none" data-z-index="1" class="highcharts-grid-line" d="M 185.5 116 L 185.5 300" opacity="1"></path><path fill="none" data-z-index="1" class="highcharts-grid-line" d="M 204.5 116 L 204.5 300" opacity="1"></path><path fill="none" data-z-index="1" class="highcharts-grid-line" d="M 223.5 116 L 223.5 300" opacity="1"></path><path fill="none" data-z-index="1" class="highcharts-grid-line" d="M 243.5 116 L 243.5 300" opacity="1"></path><path fill="none" data-z-index="1" class="highcharts-grid-line" d="M 262.5 116 L 262.5 300" opacity="1"></path><path fill="none" data-z-index="1" class="highcharts-grid-line" d="M 281.5 116 L 281.5 300" opacity="1"></path><path fill="none" data-z-index="1" class="highcharts-grid-line" d="M 300.5 116 L 300.5 300" opacity="1"></path><path fill="none" data-z-index="1" class="highcharts-grid-line" d="M 320.5 116 L 320.5 300" opacity="1"></path><path fill="none" data-z-index="1" class="highcharts-grid-line" d="M 339.5 116 L 339.5 300" opacity="1"></path><path fill="none" data-z-index="1" class="highcharts-grid-line" d="M 358.5 116 L 358.5 300" opacity="1"></path><path fill="none" data-z-index="1" class="highcharts-grid-line" d="M 378.5 116 L 378.5 300" opacity="1"></path><path fill="none" data-z-index="1" class="highcharts-grid-line" d="M 397.5 116 L 397.5 300" opacity="1"></path><path fill="none" data-z-index="1" class="highcharts-grid-line" d="M 416.5 116 L 416.5 300" opacity="1"></path><path fill="none" data-z-index="1" class="highcharts-grid-line" d="M 435.5 116 L 435.5 300" opacity="1"></path><path fill="none" data-z-index="1" class="highcharts-grid-line" d="M 455.5 116 L 455.5 300" opacity="1"></path><path fill="none" data-z-index="1" class="highcharts-grid-line" d="M 474.5 116 L 474.5 300" opacity="1"></path><path fill="none" data-z-index="1" class="highcharts-grid-line" d="M 69.5 116 L 69.5 300" opacity="1"></path></g><g class="highcharts-grid highcharts-yaxis-grid" data-z-index="1"><path fill="none" stroke="#B9CFD7" stroke-width="0.5" data-z-index="1" class="highcharts-grid-line" d="M 70 300.25 L 475 300.25" opacity="1"></path><path fill="none" stroke="#B9CFD7" stroke-width="0.5" data-z-index="1" class="highcharts-grid-line" d="M 70 239.25 L 475 239.25" opacity="1"></path><path fill="none" stroke="#B9CFD7" stroke-width="0.5" data-z-index="1" class="highcharts-grid-line" d="M 70 177.25 L 475 177.25" opacity="1"></path><path fill="none" stroke="#B9CFD7" stroke-width="0.5" data-z-index="1" class="highcharts-grid-line" d="M 70 115.75 L 475 115.75" opacity="1"></path></g><rect fill="none" class="highcharts-plot-border" data-z-index="1" x="70" y="116" width="405" height="184"></rect><g class="highcharts-axis highcharts-xaxis" data-z-index="2"><path fill="none" class="highcharts-axis-line" stroke="#B9CFD7" stroke-width="0.5" data-z-index="7" d="M 70 300.25 L 475 300.25"></path></g><g class="highcharts-axis highcharts-yaxis" data-z-index="2"><path fill="none" class="highcharts-axis-line" data-z-index="7" d="M 70 116 L 70 300"></path></g><g class="highcharts-series-group" data-z-index="3"><g class="highcharts-series highcharts-series-0 highcharts-column-series" data-z-index="0.1" opacity="1" transform="translate(70,116) scale(1 1)" clip-path="url(#highcharts-39ccbrn-113-)"><rect x="4" y="65" width="6" height="120" fill="#A8C3CA" opacity="1" class="highcharts-point"></rect><rect x="23" y="75" width="6" height="110" fill="#A8C3CA" opacity="1" class="highcharts-point"></rect><rect x="42" y="103" width="6" height="82" fill="#A8C3CA" opacity="1" class="highcharts-point"></rect><rect x="62" y="121" width="6" height="64" fill="#A8C3CA" opacity="1" class="highcharts-point"></rect><rect x="81" y="67" width="6" height="118" fill="#A8C3CA" opacity="1" class="highcharts-point"></rect><rect x="100" y="122" width="6" height="63" fill="#A8C3CA" opacity="1" class="highcharts-point"></rect><rect x="120" y="27" width="5" height="158" fill="#A8C3CA" opacity="1" class="highcharts-point"></rect><rect x="139" y="95" width="6" height="90" fill="#A8C3CA" opacity="1" class="highcharts-point"></rect><rect x="158" y="102" width="6" height="83" fill="#A8C3CA" opacity="1" class="highcharts-point"></rect><rect x="177" y="124" width="6" height="61" fill="#A8C3CA" opacity="1" class="highcharts-point"></rect><rect x="197" y="126" width="6" height="59" fill="#A8C3CA" opacity="1" class="highcharts-point"></rect><rect x="216" y="120" width="6" height="65" fill="#A8C3CA" opacity="1" class="highcharts-point"></rect><rect x="235" y="127" width="6" height="58" fill="#A8C3CA" opacity="1" class="highcharts-point"></rect><rect x="255" y="104" width="5" height="81" fill="#A8C3CA" opacity="1" class="highcharts-point"></rect><rect x="274" y="116" width="6" height="69" fill="#A8C3CA" opacity="1" class="highcharts-point"></rect><rect x="293" y="132" width="6" height="53" fill="#A8C3CA" opacity="1" class="highcharts-point"></rect><rect x="312" y="126" width="6" height="59" fill="#A8C3CA" opacity="1" class="highcharts-point"></rect><rect x="332" y="132" width="6" height="53" fill="#A8C3CA" opacity="1" class="highcharts-point"></rect><rect x="351" y="131" width="6" height="54" fill="#A8C3CA" opacity="1" class="highcharts-point"></rect><rect x="370" y="81" width="6" height="104" fill="#A8C3CA" opacity="1" class="highcharts-point"></rect><rect x="390" y="75" width="5" height="110" fill="#A8C3CA" opacity="1" class="highcharts-point"></rect></g><g class="highcharts-markers highcharts-series-0 highcharts-column-series" data-z-index="0.1" opacity="1" transform="translate(70,116) scale(1 1)" clip-path="none"></g><g class="highcharts-series highcharts-series-1 highcharts-column-series" data-z-index="0.1" opacity="1" transform="translate(70,116) scale(1 1)" clip-path="url(#highcharts-39ccbrn-113-)"><rect x="10" y="66" width="5" height="119" fill="#246370" opacity="1" class="highcharts-point"></rect><rect x="29" y="58" width="6" height="127" fill="#246370" opacity="1" class="highcharts-point"></rect><rect x="48" y="88" width="6" height="97" fill="#246370" opacity="1" class="highcharts-point"></rect><rect x="68" y="115" width="5" height="70" fill="#246370" opacity="1" class="highcharts-point"></rect><rect x="87" y="59" width="6" height="126" fill="#246370" opacity="1" class="highcharts-point"></rect><rect x="106" y="116" width="6" height="69" fill="#246370" opacity="1" class="highcharts-point"></rect><rect x="125" y="55" width="6" height="130" fill="#246370" opacity="1" class="highcharts-point"></rect><rect x="145" y="85" width="5" height="100" fill="#246370" opacity="1" class="highcharts-point"></rect><rect x="164" y="105" width="6" height="80" fill="#246370" opacity="1" class="highcharts-point"></rect><rect x="183" y="122" width="6" height="63" fill="#246370" opacity="1" class="highcharts-point"></rect><rect x="203" y="120" width="5" height="65" fill="#246370" opacity="1" class="highcharts-point"></rect><rect x="222" y="109" width="6" height="76" fill="#246370" opacity="1" class="highcharts-point"></rect><rect x="241" y="123" width="6" height="62" fill="#246370" opacity="1" class="highcharts-point"></rect><rect x="260" y="87" width="6" height="98" fill="#246370" opacity="1" class="highcharts-point"></rect><rect x="280" y="111" width="5" height="74" fill="#246370" opacity="1" class="highcharts-point"></rect><rect x="299" y="118" width="6" height="67" fill="#246370" opacity="1" class="highcharts-point"></rect><rect x="318" y="123" width="6" height="62" fill="#246370" opacity="1" class="highcharts-point"></rect><rect x="338" y="134" width="5" height="51" fill="#246370" opacity="1" class="highcharts-point"></rect><rect x="357" y="129" width="6" height="56" fill="#246370" opacity="1" class="highcharts-point"></rect><rect x="376" y="72" width="6" height="113" fill="#246370" opacity="1" class="highcharts-point"></rect><rect x="395" y="26" width="6" height="159" fill="#246370" opacity="1" class="highcharts-point"></rect></g><g class="highcharts-markers highcharts-series-1 highcharts-column-series" data-z-index="0.1" opacity="1" transform="translate(70,116) scale(1 1)" clip-path="none"></g><g class="highcharts-series highcharts-series-2 highcharts-line-series" data-z-index="0.1" opacity="1" transform="translate(70,116) scale(1 1)" clip-path="url(#highcharts-39ccbrn-113-)"><path fill="none" d="M 9.6428571428571 104.37706666666666 L 28.928571428571 104.37706666666666 L 48.214285714286 104.37706666666666 L 67.5 104.37706666666666 L 86.785714285714 104.37706666666666 L 106.07142857143 104.37706666666666 L 125.35714285714 104.37706666666666 L 144.64285714286 104.37706666666666 L 163.92857142857 104.37706666666666 L 183.21428571429 104.37706666666666 L 202.5 104.37706666666666 L 221.78571428571 104.37706666666666 L 241.07142857143 104.37706666666666 L 260.35714285714 104.37706666666666 L 279.64285714286 104.37706666666666 L 298.92857142857 104.37706666666666 L 318.21428571429 104.37706666666666 L 337.5 104.37706666666666 L 356.78571428571 104.37706666666666 L 376.07142857143 104.37706666666666 L 395.35714285714 104.37706666666666" class="highcharts-graph" data-z-index="1" stroke="#C8C8C8" stroke-width="2" stroke-linejoin="round" stroke-linecap="round"></path></g><g class="highcharts-markers highcharts-series-2 highcharts-line-series" data-z-index="0.1" opacity="1" transform="translate(70,116) scale(1 1)" clip-path="none"></g><g class="highcharts-series highcharts-series-3 highcharts-line-series" data-z-index="0.1" opacity="1" transform="translate(70,116) scale(1 1)" clip-path="url(#highcharts-39ccbrn-113-)"><path fill="none" d="M 9.6428571428571 98.90245333333333 L 28.928571428571 98.90245333333333 L 48.214285714286 98.90245333333333 L 67.5 98.90245333333333 L 86.785714285714 98.90245333333333 L 106.07142857143 98.90245333333333 L 125.35714285714 98.90245333333333 L 144.64285714286 98.90245333333333 L 163.92857142857 98.90245333333333 L 183.21428571429 98.90245333333333 L 202.5 98.90245333333333 L 221.78571428571 98.90245333333333 L 241.07142857143 98.90245333333333 L 260.35714285714 98.90245333333333 L 279.64285714286 98.90245333333333 L 298.92857142857 98.90245333333333 L 318.21428571429 98.90245333333333 L 337.5 98.90245333333333 L 356.78571428571 98.90245333333333 L 376.07142857143 98.90245333333333 L 395.35714285714 98.90245333333333" class="highcharts-graph" data-z-index="1" stroke="#474747" stroke-width="2" stroke-linejoin="round" stroke-linecap="round"></path></g><g class="highcharts-markers highcharts-series-3 highcharts-line-series" data-z-index="0.1" opacity="1" transform="translate(70,116) scale(1 1)" clip-path="none"></g></g><text x="10" text-anchor="start" class="highcharts-title" data-z-index="4" style="color:#000000;font-size:14px;font-weight:bold;fill:#000000;" y="21"><tspan>Mittelwert des Reineinkommens</tspan></text><text x="10" text-anchor="start" class="highcharts-subtitle" data-z-index="4" style="color:#000000;font-size:12px;font-weight:normal;fill:#000000;" y="40"><tspan>in Franken, Basel-Stadt, 2008 und 2017</tspan></text><text x="10" text-anchor="start" class="highcharts-caption" data-z-index="4" style="color:#666666;fill:#666666;" y="385"></text><g class="highcharts-legend" data-z-index="7" transform="translate(62,55)"><rect fill="none" class="highcharts-legend-box" rx="0" ry="0" x="0" y="0" width="276" height="49" visibility="visible"></rect><g data-z-index="1"><g><g class="highcharts-legend-item highcharts-column-series highcharts-color-undefined highcharts-series-0" data-z-index="1" transform="translate(8,3)"><text x="21" style="color:#333333;cursor:pointer;font-size:12px;font-weight:normal;white-space:nowrap;fill:#333333;" text-anchor="start" data-z-index="2" y="15"><tspan>Mittelwert 2008</tspan></text><rect x="2" y="4" width="12" height="12" fill="#A8C3CA" class="highcharts-point" data-z-index="3"></rect></g><g class="highcharts-legend-item highcharts-line-series highcharts-color-undefined highcharts-series-2" data-z-index="1" transform="translate(148,3)"><path fill="none" d="M 0 11 L 16 11" class="highcharts-graph" stroke="#C8C8C8" stroke-width="2"></path><text x="21" y="15" style="color:#333333;cursor:pointer;font-size:12px;font-weight:normal;white-space:nowrap;fill:#333333;" text-anchor="start" data-z-index="2"><tspan>Mittelwert Basel-Stadt 2008</tspan></text></g><g class="highcharts-legend-item highcharts-column-series highcharts-color-undefined highcharts-series-1" data-z-index="1" transform="translate(8,22)"><text x="21" y="15" style="color:#333333;cursor:pointer;font-size:12px;font-weight:normal;white-space:nowrap;fill:#333333;" text-anchor="start" data-z-index="2"><tspan>Mittelwert 2017</tspan></text><rect x="2" y="4" width="12" height="12" fill="#246370" class="highcharts-point" data-z-index="3"></rect></g><g class="highcharts-legend-item highcharts-line-series highcharts-color-undefined highcharts-series-3" data-z-index="1" transform="translate(148,22)"><path fill="none" d="M 0 11 L 16 11" class="highcharts-graph" stroke="#474747" stroke-width="2"></path><text x="21" y="15" style="color:#333333;cursor:pointer;font-size:12px;font-weight:normal;white-space:nowrap;fill:#333333;" text-anchor="start" data-z-index="2"><tspan>Mittelwert Basel-Stadt 2017</tspan></text></g></g></g></g><g class="highcharts-axis-labels highcharts-xaxis-labels" data-z-index="7"><text x="82.23558200720753" style="color:#000000;cursor:default;font-size:11px;fill:#000000;" text-anchor="end" transform="translate(0,0) rotate(-45 82.23558200720753 316)" y="316" opacity="1"><tspan>Altstadt GB</tspan></text><text x="101.52129629292354" style="color:#000000;cursor:default;font-size:11px;fill:#000000;" text-anchor="end" transform="translate(0,0) rotate(-45 101.52129629292354 316)" y="316" opacity="1">Vorst채dte</text><text x="120.80701057863354" style="color:#000000;cursor:default;font-size:11px;fill:#000000;" text-anchor="end" transform="translate(0,0) rotate(-45 120.80701057863354 316)" y="316" opacity="1"><tspan>Am Ring</tspan></text><text x="140.09272486435356" style="color:#000000;cursor:default;font-size:11px;fill:#000000;" text-anchor="end" transform="translate(0,0) rotate(-45 140.09272486435356 316)" y="316" opacity="1">Breite</text><text x="159.37843915006354" style="color:#000000;cursor:default;font-size:11px;fill:#000000;" text-anchor="end" transform="translate(0,0) rotate(-45 159.37843915006354 316)" y="316" opacity="1"><tspan>St. Alban</tspan></text><text x="178.66415343578356" style="color:#000000;cursor:default;font-size:11px;fill:#000000;" text-anchor="end" transform="translate(0,0) rotate(-45 178.66415343578356 316)" y="316" opacity="1">Gundeldingen</text><text x="197.94986772149355" style="color:#000000;cursor:default;font-size:11px;fill:#000000;" text-anchor="end" transform="translate(0,0) rotate(-45 197.94986772149355 316)" y="316" opacity="1">Bruderholz</text><text x="217.23558200720353" style="color:#000000;cursor:default;font-size:11px;fill:#000000;" text-anchor="end" transform="translate(0,0) rotate(-45 217.23558200720353 316)" y="316" opacity="1">Bachletten</text><text x="236.52129629292355" style="color:#000000;cursor:default;font-size:11px;fill:#000000;" text-anchor="end" transform="translate(0,0) rotate(-45 236.52129629292355 316)" y="316" opacity="1">Gotthelf</text><text x="255.8070105786335" style="color:#000000;cursor:default;font-size:11px;fill:#000000;" text-anchor="end" transform="translate(0,0) rotate(-45 255.8070105786335 316)" y="316" opacity="1">Iselin</text><text x="275.0927248643535" style="color:#000000;cursor:default;font-size:11px;fill:#000000;" text-anchor="end" transform="translate(0,0) rotate(-45 275.0927248643535 316)" y="316" opacity="1"><tspan>St. Johann</tspan></text><text x="294.3784391500635" style="color:#000000;cursor:default;font-size:11px;fill:#000000;" text-anchor="end" transform="translate(0,0) rotate(-45 294.3784391500635 316)" y="316" opacity="1"><tspan>Altstadt KB</tspan></text><text x="313.6641534357835" style="color:#000000;cursor:default;font-size:11px;fill:#000000;" text-anchor="end" transform="translate(0,0) rotate(-45 313.6641534357835 316)" y="316" opacity="1">Clara</text><text x="332.9498677214935" style="color:#000000;cursor:default;font-size:11px;fill:#000000;" text-anchor="end" transform="translate(0,0) rotate(-45 332.9498677214935 316)" y="316" opacity="1">Wettstein</text><text x="352.2355820072035" style="color:#000000;cursor:default;font-size:11px;fill:#000000;" text-anchor="end" transform="translate(0,0) rotate(-45 352.2355820072035 316)" y="316" opacity="1">Hirzbrunnen</text><text x="371.52129629292347" style="color:#000000;cursor:default;font-size:11px;fill:#000000;" text-anchor="end" transform="translate(0,0) rotate(-45 371.52129629292347 316)" y="316" opacity="1">Rosental</text><text x="390.8070105786335" style="color:#000000;cursor:default;font-size:11px;fill:#000000;" text-anchor="end" transform="translate(0,0) rotate(-45 390.8070105786335 316)" y="316" opacity="1">Matth채us</text><text x="410.0927248643535" style="color:#000000;cursor:default;font-size:11px;fill:#000000;" text-anchor="end" transform="translate(0,0) rotate(-45 410.0927248643535 316)" y="316" opacity="1">Klybeck</text><text x="429.3784391500635" style="color:#000000;cursor:default;font-size:11px;fill:#000000;" text-anchor="end" transform="translate(0,0) rotate(-45 429.3784391500635 316)" y="316" opacity="1">Kleinh체ning.</text><text x="448.6641534357835" style="color:#000000;cursor:default;font-size:11px;fill:#000000;" text-anchor="end" transform="translate(0,0) rotate(-45 448.6641534357835 316)" y="316" opacity="1">Riehen</text><text x="467.9498677214935" style="color:#000000;cursor:default;font-size:11px;fill:#000000;" text-anchor="end" transform="translate(0,0) rotate(-45 467.9498677214935 316)" y="316" opacity="1">Bettingen</text></g><g class="highcharts-axis-labels highcharts-yaxis-labels" data-z-index="7"><text x="55" style="color:black;cursor:default;font-size:11px;fill:black;" text-anchor="end" transform="translate(0,0)" y="305" opacity="1">0</text><text x="55" style="color:black;cursor:default;font-size:11px;fill:black;" text-anchor="end" transform="translate(0,0)" y="243" opacity="1"><tspan>50 000</tspan></text><text x="55" style="color:black;cursor:default;font-size:11px;fill:black;" text-anchor="end" transform="translate(0,0)" y="182" opacity="1"><tspan>100 000</tspan></text><text x="55" style="color:black;cursor:default;font-size:11px;fill:black;" text-anchor="end" transform="translate(0,0)" y="121" opacity="1"><tspan>150 000</tspan></text></g><text x="10" class="highcharts-credits" text-anchor="start" data-z-index="8" style="cursor:default;color:#000000;font-size:10px;fill:#000000;" y="403"><tspan>Quelle: Steuerstatistik Basel-Stadt.</tspan><tspan x="10" dy="13">Zuletzt ge채ndert: 2020-6-4</tspan></text><g class="highcharts-control-points" data-z-index="99" clip-path="url(#highcharts-39ccbrn-177-)"></g></svg>