<?xml version="1.0" standalone="no"?><!DOCTYPE svg PUBLIC "-//W3C//DTD SVG 1.1//EN" "http://www.w3.org/Graphics/SVG/1.1/DTD/svg11.dtd"><svg xmlns:xlink="http://www.w3.org/1999/xlink" version="1.1" class="highcharts-root" style="font-family:Arial;font-size:12px;" xmlns="http://www.w3.org/2000/svg" viewBox="0 0 485 415"><desc>Created with Highstock 6.1.1</desc><defs><clipPath id="highcharts-v3vmn2w-8"><rect x="0" y="0" width="334" height="212" fill="none"></rect></clipPath><clipPath id="highcharts-v3vmn2w-9"><rect x="0" y="0" width="334" height="212" fill="none"></rect></clipPath><clipPath id="highcharts-v3vmn2w-10"><rect x="0" y="0" width="334" height="212" fill="none"></rect></clipPath></defs><rect fill="#fbfbfb" class="highcharts-background" x="0" y="0" width="485" height="415" rx="0" ry="0"></rect><rect fill="none" class="highcharts-plot-background" x="65" y="137" width="334" height="212"></rect><g class="highcharts-pane-group" data-z-index="0"></g><g class="highcharts-grid highcharts-xaxis-grid " data-z-index="1"><path fill="none" data-z-index="1" class="highcharts-grid-line" d="M 67.5 137 L 67.5 349" opacity="1"></path><path fill="none" data-z-index="1" class="highcharts-grid-line" d="M 104.5 137 L 104.5 349" opacity="1"></path><path fill="none" data-z-index="1" class="highcharts-grid-line" d="M 140.5 137 L 140.5 349" opacity="1"></path><path fill="none" data-z-index="1" class="highcharts-grid-line" d="M 176.5 137 L 176.5 349" opacity="1"></path><path fill="none" data-z-index="1" class="highcharts-grid-line" d="M 213.5 137 L 213.5 349" opacity="1"></path><path fill="none" data-z-index="1" class="highcharts-grid-line" d="M 249.5 137 L 249.5 349" opacity="1"></path><path fill="none" data-z-index="1" class="highcharts-grid-line" d="M 286.5 137 L 286.5 349" opacity="1"></path><path fill="none" data-z-index="1" class="highcharts-grid-line" d="M 322.5 137 L 322.5 349" opacity="1"></path><path fill="none" data-z-index="1" class="highcharts-grid-line" d="M 358.5 137 L 358.5 349" opacity="1"></path><path fill="none" data-z-index="1" class="highcharts-grid-line" d="M 395.5 137 L 395.5 349" opacity="1"></path></g><g class="highcharts-grid highcharts-yaxis-grid " data-z-index="1"><path fill="none" stroke="#e6e6e6" stroke-width="1" data-z-index="1" class="highcharts-grid-line" d="M 65 349.5 L 399 349.5" opacity="1"></path><path fill="none" stroke="#e6e6e6" stroke-width="1" data-z-index="1" class="highcharts-grid-line" d="M 65 278.5 L 399 278.5" opacity="1"></path><path fill="none" stroke="#e6e6e6" stroke-width="1" data-z-index="1" class="highcharts-grid-line" d="M 65 208.5 L 399 208.5" opacity="1"></path><path fill="none" stroke="#e6e6e6" stroke-width="1" data-z-index="1" class="highcharts-grid-line" d="M 65 136.5 L 399 136.5" opacity="1"></path></g><g class="highcharts-grid highcharts-yaxis-grid " data-z-index="1"><path fill="none" data-z-index="1" class="highcharts-grid-line" d="M 65 349.5 L 399 349.5" opacity="1"></path><path fill="none" data-z-index="1" class="highcharts-grid-line" d="M 65 278.5 L 399 278.5" opacity="1"></path><path fill="none" data-z-index="1" class="highcharts-grid-line" d="M 65 208.5 L 399 208.5" opacity="1"></path><path fill="none" data-z-index="1" class="highcharts-grid-line" d="M 65 137.5 L 399 137.5" opacity="1"></path></g><rect fill="none" class="highcharts-plot-border" data-z-index="1" x="65" y="137" width="334" height="212"></rect><g class="highcharts-axis highcharts-xaxis " data-z-index="2"><path fill="none" class="highcharts-axis-line" stroke="#B9CFD7" stroke-width="0.5" data-z-index="7" d="M 65 349.25 L 399 349.25"></path></g><g class="highcharts-axis highcharts-yaxis " data-z-index="2"><path fill="none" class="highcharts-axis-line" data-z-index="7" d="M 65 137 L 65 349"></path></g><g class="highcharts-axis highcharts-yaxis " data-z-index="2"><path fill="none" class="highcharts-axis-line" data-z-index="7" d="M 399 137 L 399 349"></path></g><g class="highcharts-series-group" data-z-index="3"><g data-z-index="0.1" class="highcharts-series highcharts-series-0 highcharts-line-series " transform="translate(65,137) scale(1 1)" clip-path="url(#highcharts-v3vmn2w-9)"><path fill="none" d="M 3.2745098039186 69.45084666666668 L 39.657952069715 73.87246000000002 L 76.04139433551 84.99256666666668 L 112.42483660131 74.56252 L 148.8082788671 80.08971333333335 L 185.1917211329 84.69470666666668 L 221.57516339869 71.49240666666668 L 257.95860566449 53.18126000000001 L 294.34204793029 38.96277333333333 L 330.72549019608 56.426626666666664" class="highcharts-graph" data-z-index="1" stroke="#B375AB" stroke-width="2" stroke-linejoin="round" stroke-linecap="round"></path></g><g data-z-index="0.1" class="highcharts-markers highcharts-series-0 highcharts-line-series " transform="translate(65,137) scale(1 1)" clip-path="none"></g><g data-z-index="0.1" class="highcharts-series highcharts-series-1 highcharts-line-series " transform="translate(65,137) scale(1 1)" clip-path="url(#highcharts-v3vmn2w-9)"><path fill="none" d="M 3.2745098039186 207.91511333333332 L 39.657952069715 207.97270666666665 L 76.04139433551 207.67060666666666 L 112.42483660131 207.59322666666668 L 148.8082788671 207.38299333333333 L 185.1917211329 206.88090666666668 L 221.57516339869 206.276 L 257.95860566449 206.67986 L 294.34204793029 206.25338666666667 L 330.72549019608 206.24738" class="highcharts-graph" data-z-index="1" stroke="#923F8D" stroke-width="2" stroke-linejoin="round" stroke-linecap="round"></path></g><g data-z-index="0.1" class="highcharts-markers highcharts-series-1 highcharts-line-series " transform="translate(65,137) scale(1 1)" clip-path="none"></g><g data-z-index="0.1" class="highcharts-series highcharts-series-2 highcharts-line-series " transform="translate(65,137) scale(1 1)" clip-path="url(#highcharts-v3vmn2w-10)"><path fill="none" d="M 3.2745098039186 111.82432688 L 39.657952069715 113.45890341333333 L 76.04139433551 106.03158941333334 L 112.42483660131 102.1677739911111 L 148.8082788671 102.6774601511111 L 185.1917211329 115.04927417777778 L 221.57516339869 102.62527234666666 L 257.95860566449 80.44219678222223 L 294.34204793029 68.16740761777777 L 330.72549019608 84.75938315555555" class="highcharts-graph" data-z-index="1" stroke="#2E1435" stroke-width="2" stroke-linejoin="round" stroke-linecap="round"></path></g><g data-z-index="0.1" class="highcharts-markers highcharts-series-2 highcharts-line-series " transform="translate(65,137) scale(1 1)" clip-path="none"></g></g><text x="10" text-anchor="start" class="highcharts-title" data-z-index="4" style="color:#000000;font-size:14px;font-weight:bold;fill:#000000;" y="21"><tspan>Mittelwert und Median des Reinvermögens, Summe des</tspan><tspan dy="17" x="10">Ertrags aus Vermögenssteuer</tspan></text><text x="10" text-anchor="start" class="highcharts-subtitle" data-z-index="4" style="color:#000000;font-size:12px;font-weight:normal;font-family:Arial;fill:#000000;" y="57"><tspan>in Franken, Basel-Stadt</tspan></text><g class="highcharts-legend" data-z-index="7" transform="translate(57,72)"><rect fill="none" class="highcharts-legend-box" rx="0" ry="0" x="0" y="0" width="268" height="53" visibility="visible"></rect><g data-z-index="1"><g><g class="highcharts-legend-item highcharts-line-series highcharts-color-undefined highcharts-series-0" data-z-index="1" transform="translate(8,3)"><path fill="none" d="M 0 11 L 16 11" class="highcharts-graph" stroke="#B375AB" stroke-width="2"></path><text x="21" style="color:#333333;font-size:12px;font-weight:normal;cursor:pointer;fill:#333333;" text-anchor="start" data-z-index="2" y="15"><tspan>Mittelwert Reinvermögen</tspan></text></g><g class="highcharts-legend-item highcharts-line-series highcharts-color-undefined highcharts-series-1" data-z-index="1" transform="translate(8,17)"><path fill="none" d="M 0 11 L 16 11" class="highcharts-graph" stroke="#923F8D" stroke-width="2"></path><text x="21" y="15" style="color:#333333;font-size:12px;font-weight:normal;cursor:pointer;fill:#333333;" text-anchor="start" data-z-index="2"><tspan>Median Reinvermögen</tspan></text></g><g class="highcharts-legend-item highcharts-line-series highcharts-color-undefined highcharts-series-2" data-z-index="1" transform="translate(8,31)"><path fill="none" d="M 0 11 L 16 11" class="highcharts-graph" stroke="#2E1435" stroke-width="2"></path><text x="21" y="15" style="color:#333333;font-size:12px;font-weight:normal;cursor:pointer;fill:#333333;" text-anchor="start" data-z-index="2"><tspan>Ertrag aus Vermögenssteuer (rechte Skala)</tspan></text></g></g></g></g><g class="highcharts-axis-labels highcharts-xaxis-labels " data-z-index="7"><text x="68.274509803919" style="color:#000000;cursor:default;font-size:11px;fill:#000000;" text-anchor="middle" transform="translate(0,0)" y="368" opacity="1">2006</text><text x="104.65795206971" style="color:#000000;cursor:default;font-size:11px;fill:#000000;" text-anchor="middle" transform="translate(0,0)" y="368" opacity="1">2007</text><text x="141.04139433551" style="color:#000000;cursor:default;font-size:11px;fill:#000000;" text-anchor="middle" transform="translate(0,0)" y="368" opacity="1">2008</text><text x="177.42483660131" style="color:#000000;cursor:default;font-size:11px;fill:#000000;" text-anchor="middle" transform="translate(0,0)" y="368" opacity="1">2009</text><text x="213.8082788671" style="color:#000000;cursor:default;font-size:11px;fill:#000000;" text-anchor="middle" transform="translate(0,0)" y="368" opacity="1">2010</text><text x="250.1917211329" style="color:#000000;cursor:default;font-size:11px;fill:#000000;" text-anchor="middle" transform="translate(0,0)" y="368" opacity="1">2011</text><text x="286.57516339869" style="color:#000000;cursor:default;font-size:11px;fill:#000000;" text-anchor="middle" transform="translate(0,0)" y="368" opacity="1">2012</text><text x="322.95860566449" style="color:#000000;cursor:default;font-size:11px;fill:#000000;" text-anchor="middle" transform="translate(0,0)" y="368" opacity="1">2013</text><text x="359.34204793029" style="color:#000000;cursor:default;font-size:11px;fill:#000000;" text-anchor="middle" transform="translate(0,0)" y="368" opacity="1">2014</text><text x="395.72549019608" style="color:#000000;cursor:default;font-size:11px;fill:#000000;" text-anchor="middle" transform="translate(0,0)" y="368" opacity="1">2015</text></g><g class="highcharts-axis-labels highcharts-yaxis-labels " data-z-index="7"><text x="50" style="color:#000000;cursor:default;font-size:11px;fill:#000000;" text-anchor="end" transform="translate(0,0)" y="354" opacity="1">0</text><text x="50" style="color:#000000;cursor:default;font-size:11px;fill:#000000;" text-anchor="end" transform="translate(0,0)" y="283" opacity="1"><tspan>200 000</tspan></text><text x="50" style="color:#000000;cursor:default;font-size:11px;fill:#000000;" text-anchor="end" transform="translate(0,0)" y="212" opacity="1"><tspan>400 000</tspan></text><text x="50" style="color:#000000;cursor:default;font-size:11px;fill:#000000;" text-anchor="end" transform="translate(0,0)" y="142" opacity="1"><tspan>600 000</tspan></text></g><g class="highcharts-axis-labels highcharts-yaxis-labels " data-z-index="7"><text x="414" style="color:#000000;cursor:default;font-size:11px;fill:#000000;" text-anchor="start" transform="translate(0,0)" y="354" opacity="1">0</text><text x="414" style="color:#000000;cursor:default;font-size:11px;fill:#000000;" text-anchor="start" transform="translate(0,0)" y="283" opacity="1"><tspan>150 000 000</tspan></text><text x="414" style="color:#000000;cursor:default;font-size:11px;fill:#000000;" text-anchor="start" transform="translate(0,0)" y="212" opacity="1"><tspan>300 000 000</tspan></text><text x="414" style="color:#000000;cursor:default;font-size:11px;fill:#000000;" text-anchor="start" transform="translate(0,0)" y="142" opacity="1"><tspan>450 000 000</tspan></text></g><text x="10" class="highcharts-credits" text-anchor="start" data-z-index="8" style="cursor:default;color:#000000;font-size:10px;fill:#000000;" y="400"><tspan>Quelle: Steuerstatistik Basel-Stadt.</tspan></text></svg>