<?xml version="1.0" standalone="no"?><!DOCTYPE svg PUBLIC "-//W3C//DTD SVG 1.1//EN" "http://www.w3.org/Graphics/SVG/1.1/DTD/svg11.dtd"><svg xmlns:xlink="http://www.w3.org/1999/xlink" version="1.1" class="highcharts-root" style="font-family:Arial;font-size:12px;" xmlns="http://www.w3.org/2000/svg" viewBox="0 0 485 415"><desc>Created with Highcharts 9.0.0</desc><defs><clipPath id="highcharts-x2nofbm-57-"><rect x="0" y="0" width="340" height="145" fill="none"></rect></clipPath><clipPath id="highcharts-x2nofbm-66-"><rect x="0" y="0" width="340" height="145" fill="none"></rect></clipPath><clipPath id="highcharts-x2nofbm-99-"><rect x="0" y="0" width="340" height="145" fill="none"></rect></clipPath><clipPath id="highcharts-x2nofbm-108-"><rect x="86" y="121" width="340" height="145" fill="none"></rect></clipPath></defs><rect fill="#fbfbfb" class="highcharts-background" x="0" y="0" width="485" height="428" rx="0" ry="0"></rect><rect fill="none" class="highcharts-plot-background" x="86" y="121" width="340" height="145"></rect><g class="highcharts-pane-group" data-z-index="0"></g><g class="highcharts-grid highcharts-xaxis-grid" data-z-index="1"><path fill="none" data-z-index="1" class="highcharts-grid-line" d="M 128.5 121 L 128.5 266" opacity="1"></path><path fill="none" data-z-index="1" class="highcharts-grid-line" d="M 170.5 121 L 170.5 266" opacity="1"></path><path fill="none" data-z-index="1" class="highcharts-grid-line" d="M 213.5 121 L 213.5 266" opacity="1"></path><path fill="none" data-z-index="1" class="highcharts-grid-line" d="M 255.5 121 L 255.5 266" opacity="1"></path><path fill="none" data-z-index="1" class="highcharts-grid-line" d="M 298.5 121 L 298.5 266" opacity="1"></path><path fill="none" data-z-index="1" class="highcharts-grid-line" d="M 340.5 121 L 340.5 266" opacity="1"></path><path fill="none" data-z-index="1" class="highcharts-grid-line" d="M 383.5 121 L 383.5 266" opacity="1"></path><path fill="none" data-z-index="1" class="highcharts-grid-line" d="M 425.5 121 L 425.5 266" opacity="1"></path><path fill="none" data-z-index="1" class="highcharts-grid-line" d="M 85.5 121 L 85.5 266" opacity="1"></path></g><g class="highcharts-grid highcharts-yaxis-grid" data-z-index="1"><path fill="none" stroke="#B9CFD7" stroke-width="0.5" data-z-index="1" class="highcharts-grid-line" d="M 86 266.25 L 426 266.25" opacity="1"></path><path fill="none" stroke="#B9CFD7" stroke-width="0.5" data-z-index="1" class="highcharts-grid-line" d="M 86 218.25 L 426 218.25" opacity="1"></path><path fill="none" stroke="#B9CFD7" stroke-width="0.5" data-z-index="1" class="highcharts-grid-line" d="M 86 169.25 L 426 169.25" opacity="1"></path><path fill="none" stroke="#B9CFD7" stroke-width="0.5" data-z-index="1" class="highcharts-grid-line" d="M 86 120.75 L 426 120.75" opacity="1"></path></g><g class="highcharts-grid highcharts-yaxis-grid" data-z-index="1"><path fill="none" stroke="#B9CFD7" stroke-width="0.5" data-z-index="1" class="highcharts-grid-line" d="M 86 266.25 L 426 266.25" opacity="1"></path><path fill="none" stroke="#B9CFD7" stroke-width="0.5" data-z-index="1" class="highcharts-grid-line" d="M 86 218.25 L 426 218.25" opacity="1"></path><path fill="none" stroke="#B9CFD7" stroke-width="0.5" data-z-index="1" class="highcharts-grid-line" d="M 86 169.25 L 426 169.25" opacity="1"></path><path fill="none" stroke="#B9CFD7" stroke-width="0.5" data-z-index="1" class="highcharts-grid-line" d="M 86 120.75 L 426 120.75" opacity="1"></path></g><rect fill="none" class="highcharts-plot-border" data-z-index="1" x="86" y="121" width="340" height="145"></rect><g class="highcharts-axis highcharts-xaxis" data-z-index="2"><path fill="none" class="highcharts-axis-line" stroke="#B9CFD7" stroke-width="0.5" data-z-index="7" d="M 86 266.25 L 426 266.25"></path></g><g class="highcharts-axis highcharts-yaxis" data-z-index="2"><path fill="none" class="highcharts-axis-line" data-z-index="7" d="M 86 121 L 86 266"></path></g><g class="highcharts-axis highcharts-yaxis" data-z-index="2"><path fill="none" class="highcharts-axis-line" data-z-index="7" d="M 426 121 L 426 266"></path></g><g class="highcharts-series-group" data-z-index="3"><g class="highcharts-series highcharts-series-0 highcharts-column-series" data-z-index="0.1" opacity="1" transform="translate(86,121) scale(1 1)" clip-path="url(#highcharts-x2nofbm-66-)"></g><g class="highcharts-markers highcharts-series-0 highcharts-column-series" data-z-index="0.1" opacity="1" transform="translate(86,121) scale(1 1)" clip-path="none"></g><g class="highcharts-series highcharts-series-1 highcharts-column-series" data-z-index="0.1" opacity="1" transform="translate(86,121) scale(1 1)" clip-path="url(#highcharts-x2nofbm-66-)"><rect x="9" y="65" width="12" height="81" fill="#FABD24" opacity="1" class="highcharts-point highcharts-color-0"></rect><rect x="51" y="144" width="13" height="2" fill="#FABD24" opacity="1" class="highcharts-point highcharts-color-1"></rect><rect x="94" y="119" width="12" height="27" fill="#FABD24" opacity="1" class="highcharts-point highcharts-color-2"></rect><rect x="136" y="115" width="13" height="31" fill="#ECE1D0" opacity="1" class="highcharts-point highcharts-color-3"></rect><rect x="179" y="144" width="12" height="2" fill="#FABD24" opacity="1" class="highcharts-point highcharts-color-4"></rect><rect x="221" y="144" width="13" height="2" fill="#FABD24" opacity="1" class="highcharts-point highcharts-color-5"></rect><rect x="264" y="144" width="12" height="2" fill="#FABD24" opacity="1" class="highcharts-point highcharts-color-6"></rect><rect x="306" y="139" width="13" height="7" fill="#FABD24" opacity="1" class="highcharts-point highcharts-color-7"></rect></g><g class="highcharts-markers highcharts-series-1 highcharts-column-series" data-z-index="0.1" opacity="1" transform="translate(86,121) scale(1 1)" clip-path="none"></g><g class="highcharts-series highcharts-series-2 highcharts-column-series" data-z-index="0.1" opacity="1" transform="translate(86,121) scale(1 1)" clip-path="url(#highcharts-x2nofbm-66-)"></g><g class="highcharts-markers highcharts-series-2 highcharts-column-series" data-z-index="0.1" opacity="1" transform="translate(86,121) scale(1 1)" clip-path="none"></g><g class="highcharts-series highcharts-series-3 highcharts-column-series" data-z-index="0.1" opacity="1" transform="translate(86,121) scale(1 1)" clip-path="url(#highcharts-x2nofbm-66-)"><rect x="21" y="24" width="13" height="122" fill="#7F5F1A" opacity="1" class="highcharts-point highcharts-color-0"></rect><rect x="64" y="144" width="13" height="2" fill="#7F5F1A" opacity="1" class="highcharts-point highcharts-color-1"></rect><rect x="106" y="110" width="13" height="36" fill="#7F5F1A" opacity="1" class="highcharts-point highcharts-color-2"></rect><rect x="149" y="116" width="13" height="30" fill="black" opacity="1" class="highcharts-point highcharts-color-3"></rect><rect x="191" y="144" width="13" height="2" fill="#7F5F1A" opacity="1" class="highcharts-point highcharts-color-4"></rect><rect x="234" y="141" width="13" height="5" fill="#7F5F1A" opacity="1" class="highcharts-point highcharts-color-5"></rect><rect x="276" y="144" width="13" height="2" fill="#7F5F1A" opacity="1" class="highcharts-point highcharts-color-6"></rect><rect x="319" y="134" width="13" height="12" fill="#7F5F1A" opacity="1" class="highcharts-point highcharts-color-7"></rect></g><g class="highcharts-markers highcharts-series-3 highcharts-column-series" data-z-index="0.1" opacity="1" transform="translate(86,121) scale(1 1)" clip-path="none"></g><g class="highcharts-series highcharts-series-4 highcharts-scatter-series" data-z-index="0.1" opacity="1" transform="translate(86,121) scale(1 1)" clip-path="url(#highcharts-x2nofbm-99-)"></g><g class="highcharts-markers highcharts-series-4 highcharts-scatter-series" data-z-index="0.1" opacity="1" transform="translate(86,121) scale(1 1)" clip-path="none"><path fill="#FF8028" d="M 14 69 A 3 3 0 1 1 14.002999999500002 68.99999850000013 Z" opacity="1" class="highcharts-point"></path><path fill="#FF8028" d="M 57 143 A 3 3 0 1 1 57.002999999500005 142.99999850000012 Z" opacity="1" class="highcharts-point"></path><path fill="#FF8028" d="M 99 63 A 3 3 0 1 1 99.0029999995 62.999998500000125 Z" opacity="1" class="highcharts-point"></path><path fill="#FF8028" d="M 142 55 A 3 3 0 1 1 142.0029999995 54.999998500000125 Z" opacity="1" class="highcharts-point"></path><path fill="#FF8028" d="M 184 142 A 3 3 0 1 1 184.0029999995 141.99999850000012 Z" opacity="1" class="highcharts-point"></path><path fill="#FF8028" d="M 227 147 A 3 3 0 1 1 227.0029999995 146.99999850000012 Z" opacity="1" class="highcharts-point"></path><path fill="#FF8028" d="M 269 145 A 3 3 0 1 1 269.0029999995 144.99999850000012 Z" opacity="1" class="highcharts-point"></path><path fill="#FF8028" d="M 312 126 A 3 3 0 1 1 312.0029999995 125.99999850000013 Z" opacity="1" class="highcharts-point"></path></g><g class="highcharts-series highcharts-series-5 highcharts-scatter-series" data-z-index="0.1" opacity="1" transform="translate(86,121) scale(1 1)" clip-path="url(#highcharts-x2nofbm-99-)"></g><g class="highcharts-markers highcharts-series-5 highcharts-scatter-series" data-z-index="0.1" opacity="1" transform="translate(86,121) scale(1 1)" clip-path="none"><path fill="#68AB2B" d="M 27 19 A 3 3 0 1 1 27.002999999500002 18.999998500000125 Z" opacity="1" class="highcharts-point"></path><path fill="#68AB2B" d="M 70 138 A 3 3 0 1 1 70.0029999995 137.99999850000012 Z" opacity="1" class="highcharts-point"></path><path fill="#68AB2B" d="M 112 46 A 3 3 0 1 1 112.0029999995 45.999998500000125 Z" opacity="1" class="highcharts-point"></path><path fill="#68AB2B" d="M 155 55 A 3 3 0 1 1 155.0029999995 54.999998500000125 Z" opacity="1" class="highcharts-point"></path><path fill="#68AB2B" d="M 197 139 A 3 3 0 1 1 197.0029999995 138.99999850000012 Z" opacity="1" class="highcharts-point"></path><path fill="#68AB2B" d="M 240 146 A 3 3 0 1 1 240.0029999995 145.99999850000012 Z" opacity="1" class="highcharts-point"></path><path fill="#68AB2B" d="M 282 142 A 3 3 0 1 1 282.0029999995 141.99999850000012 Z" opacity="1" class="highcharts-point"></path><path fill="#68AB2B" d="M 325 113 A 3 3 0 1 1 325.0029999995 112.99999850000013 Z" opacity="1" class="highcharts-point"></path></g></g><text x="10" text-anchor="start" class="highcharts-title" data-z-index="4" style="color:#000000;font-size:14px;font-weight:bold;fill:#000000;" y="21">Quellensteuerertrag nach Status</text><text x="10" text-anchor="start" class="highcharts-subtitle" data-z-index="4" style="color:#000000;font-size:12px;font-weight:normal;fill:#000000;" y="40">in Franken, Basel-Stadt, 2009 und 2018</text><text x="10" text-anchor="start" class="highcharts-caption" data-z-index="4" style="color:#666666;fill:#666666;" y="400"></text><g class="highcharts-legend" data-z-index="7" transform="translate(78,55)"><rect fill="none" class="highcharts-legend-box" rx="0" ry="0" x="0" y="0" width="300" height="54" visibility="visible"></rect><g data-z-index="1"><g><g class="highcharts-legend-item highcharts-column-series highcharts-color-undefined highcharts-series-0" data-z-index="1" transform="translate(8,3)"><text x="21" style="color:#333333;cursor:pointer;font-size:12px;font-weight:normal;fill:#333333;" text-anchor="start" data-z-index="2" y="15">Ertrag 2009</text><rect x="2" y="4" width="12" height="12" fill="#FABD24" class="highcharts-point" data-z-index="3"></rect></g><g class="highcharts-legend-item highcharts-column-series highcharts-color-undefined highcharts-series-2" data-z-index="1" transform="translate(160.375,3)"><text x="21" y="15" style="color:#333333;cursor:pointer;font-size:12px;font-weight:normal;fill:#333333;" text-anchor="start" data-z-index="2">Ertrag 2018</text><rect x="2" y="4" width="12" height="12" fill="#7F5F1A" class="highcharts-point" data-z-index="3"></rect></g><g class="highcharts-legend-item highcharts-scatter-series highcharts-color-undefined highcharts-series-4" data-z-index="1" transform="translate(8,17)"><path fill="none" d="M 0 11 L 16 11" class="highcharts-graph"></path><path fill="#FF8028" d="M 8 14 A 3 3 0 1 1 8.002999999500002 13.999998500000125 Z" class="highcharts-point" opacity="1"></path><text x="21" y="15" style="color:#333333;cursor:pointer;font-size:12px;font-weight:normal;fill:#333333;" text-anchor="start" data-z-index="2">Veranlagungen 2009<tspan class="highcharts-br" dy="15" x="21">​</tspan>(rechte Skala)</text></g><g class="highcharts-legend-item highcharts-scatter-series highcharts-color-undefined highcharts-series-5" data-z-index="1" transform="translate(160.375,17)"><path fill="none" d="M 0 11 L 16 11" class="highcharts-graph"></path><path fill="#68AB2B" d="M 8 14 A 3 3 0 1 1 8.002999999500002 13.999998500000125 Z" class="highcharts-point" opacity="1"></path><text x="21" y="15" style="color:#333333;cursor:pointer;font-size:12px;font-weight:normal;fill:#333333;" text-anchor="start" data-z-index="2">Veranlagungen 2018<tspan class="highcharts-br" dy="15" x="21">​</tspan>(rechte Skala)</text></g></g></g></g><g class="highcharts-axis-labels highcharts-xaxis-labels" data-z-index="7"><text x="109.84272486435069" style="color:#000000;cursor:default;font-size:11px;fill:#000000;" text-anchor="end" transform="translate(0,0) rotate(-45 109.84272486435069 282)" y="282" opacity="1">Erwerb</text><text x="152.34272486435069" style="color:#000000;cursor:default;font-size:11px;fill:#000000;" text-anchor="end" transform="translate(0,0) rotate(-45 152.34272486435069 282)" y="282" opacity="1">Versicherung</text><text x="194.84272486435069" style="color:#000000;cursor:default;font-size:11px;fill:#000000;" text-anchor="end" transform="translate(0,0) rotate(-45 194.84272486435069 282)" y="282" opacity="1">Grenzgänger Deutschland u.a.</text><text x="237.34272486435066" style="color:#000000;cursor:default;font-size:11px;fill:#000000;" text-anchor="end" transform="translate(0,0) rotate(-45 237.34272486435066 282)" y="282" opacity="1">Grenzgänger aus Frankreich</text><text x="279.84272486435066" style="color:#000000;cursor:default;font-size:11px;fill:#000000;" text-anchor="end" transform="translate(0,0) rotate(-45 279.84272486435066 282)" y="282" opacity="1">Künstler, Sport</text><text x="322.34272486435066" style="color:#000000;cursor:default;font-size:11px;fill:#000000;" text-anchor="end" transform="translate(0,0) rotate(-45 322.34272486435066 282)" y="282" opacity="1">Verwaltungsräte</text><text x="364.84272486435066" style="color:#000000;cursor:default;font-size:11px;fill:#000000;" text-anchor="end" transform="translate(0,0) rotate(-45 364.84272486435066 282)" y="282" opacity="1">Renten</text><text x="407.34272486435066" style="color:#000000;cursor:default;font-size:11px;fill:#000000;" text-anchor="end" transform="translate(0,0) rotate(-45 407.34272486435066 282)" y="282" opacity="1">Kapitalleistungen</text></g><g class="highcharts-axis-labels highcharts-yaxis-labels" data-z-index="7"><text x="71" style="color:#000000;cursor:default;font-size:11px;fill:#000000;" text-anchor="end" transform="translate(0,0)" y="271" opacity="1">0</text><text x="71" style="color:#000000;cursor:default;font-size:11px;fill:#000000;" text-anchor="end" transform="translate(0,0)" y="174" opacity="1">240 000 000</text><text x="71" style="color:#000000;cursor:default;font-size:11px;fill:#000000;" text-anchor="end" transform="translate(0,0)" y="223" opacity="1">120 000 000</text><text x="71" style="color:#000000;cursor:default;font-size:11px;fill:#000000;" text-anchor="end" transform="translate(0,0)" y="126" opacity="1">360 000 000</text></g><g class="highcharts-axis-labels highcharts-yaxis-labels" data-z-index="7"><text x="441" style="color:#000000;cursor:default;font-size:11px;fill:#000000;" text-anchor="start" transform="translate(0,0)" y="271" opacity="1">0</text><text x="441" style="color:#000000;cursor:default;font-size:11px;fill:#000000;" text-anchor="start" transform="translate(0,0)" y="223" opacity="1">12 000</text><text x="441" style="color:#000000;cursor:default;font-size:11px;fill:#000000;" text-anchor="start" transform="translate(0,0)" y="174" opacity="1">24 000</text><text x="441" style="color:#000000;cursor:default;font-size:11px;fill:#000000;" text-anchor="start" transform="translate(0,0)" y="126" opacity="1">36 000</text></g><text x="10" class="highcharts-credits" text-anchor="start" data-z-index="8" style="cursor:default;color:#000000;font-size:10px;fill:#000000;" y="403">Quelle: Steuerstatistik Basel-Stadt.<tspan class="highcharts-br" dy="13" x="10">​</tspan>Zuletzt geändert: 2020-6-4</text><g class="highcharts-control-points" data-z-index="99" clip-path="url(#highcharts-x2nofbm-108-)"></g></svg>