<?xml version="1.0" standalone="no"?><!DOCTYPE svg PUBLIC "-//W3C//DTD SVG 1.1//EN" "http://www.w3.org/Graphics/SVG/1.1/DTD/svg11.dtd"><svg xmlns:xlink="http://www.w3.org/1999/xlink" version="1.1" class="highcharts-root" style="font-family:Arial;font-size:12px;" xmlns="http://www.w3.org/2000/svg" viewBox="0 0 485 415"><desc>Created with Highcharts 8.1.2</desc><defs><clipPath id="highcharts-cfan3jo-113-"><rect x="0" y="0" width="261" height="413" fill="none"></rect></clipPath><clipPath id="highcharts-cfan3jo-135-"><rect x="0" y="0" width="261" height="413" fill="none"></rect></clipPath><clipPath id="highcharts-cfan3jo-220-"><rect x="57" y="106" width="413" height="261" fill="none"></rect></clipPath></defs><rect fill="#fbfbfb" class="highcharts-background" x="0" y="0" width="485" height="428" rx="0" ry="0"></rect><rect fill="none" class="highcharts-plot-background" x="57" y="106" width="413" height="261"></rect><g class="highcharts-pane-group" data-z-index="0"></g><g class="highcharts-grid highcharts-xaxis-grid" data-z-index="1"><path fill="none" data-z-index="1" class="highcharts-grid-line" d="M 57 355.5 L 470 355.5" opacity="1"></path><path fill="none" data-z-index="1" class="highcharts-grid-line" d="M 57 342.5 L 470 342.5" opacity="1"></path><path fill="none" data-z-index="1" class="highcharts-grid-line" d="M 57 330.5 L 470 330.5" opacity="1"></path><path fill="none" data-z-index="1" class="highcharts-grid-line" d="M 57 317.5 L 470 317.5" opacity="1"></path><path fill="none" data-z-index="1" class="highcharts-grid-line" d="M 57 305.5 L 470 305.5" opacity="1"></path><path fill="none" data-z-index="1" class="highcharts-grid-line" d="M 57 292.5 L 470 292.5" opacity="1"></path><path fill="none" data-z-index="1" class="highcharts-grid-line" d="M 57 280.5 L 470 280.5" opacity="1"></path><path fill="none" data-z-index="1" class="highcharts-grid-line" d="M 57 268.5 L 470 268.5" opacity="1"></path><path fill="none" data-z-index="1" class="highcharts-grid-line" d="M 57 255.5 L 470 255.5" opacity="1"></path><path fill="none" data-z-index="1" class="highcharts-grid-line" d="M 57 243.5 L 470 243.5" opacity="1"></path><path fill="none" data-z-index="1" class="highcharts-grid-line" d="M 57 230.5 L 470 230.5" opacity="1"></path><path fill="none" data-z-index="1" class="highcharts-grid-line" d="M 57 218.5 L 470 218.5" opacity="1"></path><path fill="none" data-z-index="1" class="highcharts-grid-line" d="M 57 205.5 L 470 205.5" opacity="1"></path><path fill="none" data-z-index="1" class="highcharts-grid-line" d="M 57 193.5 L 470 193.5" opacity="1"></path><path fill="none" data-z-index="1" class="highcharts-grid-line" d="M 57 181.5 L 470 181.5" opacity="1"></path><path fill="none" data-z-index="1" class="highcharts-grid-line" d="M 57 168.5 L 470 168.5" opacity="1"></path><path fill="none" data-z-index="1" class="highcharts-grid-line" d="M 57 156.5 L 470 156.5" opacity="1"></path><path fill="none" data-z-index="1" class="highcharts-grid-line" d="M 57 143.5 L 470 143.5" opacity="1"></path><path fill="none" data-z-index="1" class="highcharts-grid-line" d="M 57 131.5 L 470 131.5" opacity="1"></path><path fill="none" data-z-index="1" class="highcharts-grid-line" d="M 57 118.5 L 470 118.5" opacity="1"></path><path fill="none" data-z-index="1" class="highcharts-grid-line" d="M 57 106.5 L 470 106.5" opacity="1"></path><path fill="none" data-z-index="1" class="highcharts-grid-line" d="M 57 367.5 L 470 367.5" opacity="1"></path></g><g class="highcharts-grid highcharts-yaxis-grid" data-z-index="1"><path fill="none" stroke="#e6e6e6" stroke-width="1" data-z-index="1" class="highcharts-grid-line" d="M 263.5 106 L 263.5 367" opacity="1"></path><path fill="none" stroke="#e6e6e6" stroke-width="1" data-z-index="1" class="highcharts-grid-line" d="M 304.5 106 L 304.5 367" opacity="1"></path><path fill="none" stroke="#e6e6e6" stroke-width="1" data-z-index="1" class="highcharts-grid-line" d="M 345.5 106 L 345.5 367" opacity="1"></path><path fill="none" stroke="#e6e6e6" stroke-width="1" data-z-index="1" class="highcharts-grid-line" d="M 386.5 106 L 386.5 367" opacity="1"></path><path fill="none" stroke="#e6e6e6" stroke-width="1" data-z-index="1" class="highcharts-grid-line" d="M 428.5 106 L 428.5 367" opacity="1"></path><path fill="none" stroke="#e6e6e6" stroke-width="1" data-z-index="1" class="highcharts-grid-line" d="M 470.5 106 L 470.5 367" opacity="1"></path><path fill="none" stroke="#e6e6e6" stroke-width="1" data-z-index="1" class="highcharts-grid-line" d="M 56.5 106 L 56.5 367" opacity="1"></path><path fill="none" stroke="#e6e6e6" stroke-width="1" data-z-index="1" class="highcharts-grid-line" d="M 97.5 106 L 97.5 367" opacity="1"></path><path fill="none" stroke="#e6e6e6" stroke-width="1" data-z-index="1" class="highcharts-grid-line" d="M 139.5 106 L 139.5 367" opacity="1"></path><path fill="none" stroke="#e6e6e6" stroke-width="1" data-z-index="1" class="highcharts-grid-line" d="M 180.5 106 L 180.5 367" opacity="1"></path><path fill="none" stroke="#e6e6e6" stroke-width="1" data-z-index="1" class="highcharts-grid-line" d="M 221.5 106 L 221.5 367" opacity="1"></path></g><rect fill="none" class="highcharts-plot-border" data-z-index="1" x="57" y="106" width="413" height="261"></rect><g class="highcharts-axis highcharts-xaxis" data-z-index="2"><path fill="none" class="highcharts-axis-line" stroke="#ccd6eb" stroke-width="1" data-z-index="7" d="M 56.5 106 L 56.5 367"></path></g><g class="highcharts-axis highcharts-yaxis" data-z-index="2"><path fill="none" class="highcharts-axis-line" data-z-index="7" d="M 57 367 L 470 367"></path></g><g class="highcharts-series-group" data-z-index="3"><g class="highcharts-series highcharts-series-0 highcharts-bar-series" data-z-index="0.1" opacity="1" transform="translate(470,367) rotate(90) scale(-1,1) scale(1 1)" clip-path="url(#highcharts-cfan3jo-135-)" width="413" height="261"><rect x="0" y="132" width="12" height="43" fill="#d00000" opacity="1" class="highcharts-point"></rect><rect x="12" y="158" width="13" height="31" fill="#d00000" opacity="1" class="highcharts-point"></rect><rect x="25" y="159" width="12" height="26" fill="#d00000" opacity="1" class="highcharts-point"></rect><rect x="37" y="163" width="13" height="21" fill="#d00000" opacity="1" class="highcharts-point"></rect><rect x="50" y="126" width="12" height="35" fill="#d00000" opacity="1" class="highcharts-point"></rect><rect x="62" y="67" width="13" height="79" fill="#d00000" opacity="1" class="highcharts-point"></rect><rect x="75" y="37" width="12" height="108" fill="#d00000" opacity="1" class="highcharts-point"></rect><rect x="87" y="74" width="12" height="86" fill="#d00000" opacity="1" class="highcharts-point"></rect><rect x="99" y="113" width="13" height="58" fill="#d00000" opacity="1" class="highcharts-point"></rect><rect x="112" y="113" width="12" height="52" fill="#d00000" opacity="1" class="highcharts-point"></rect><rect x="124" y="115" width="13" height="44" fill="#d00000" opacity="1" class="highcharts-point"></rect><rect x="137" y="95" width="12" height="48" fill="#d00000" opacity="1" class="highcharts-point"></rect><rect x="149" y="111" width="13" height="38" fill="#d00000" opacity="1" class="highcharts-point"></rect><rect x="162" y="124" width="12" height="23" fill="#d00000" opacity="1" class="highcharts-point"></rect><rect x="174" y="123" width="12" height="21" fill="#d00000" opacity="1" class="highcharts-point"></rect><rect x="186" y="136" width="13" height="15" fill="#d00000" opacity="1" class="highcharts-point"></rect><rect x="199" y="121" width="12" height="13" fill="#d00000" opacity="1" class="highcharts-point"></rect><rect x="211" y="157" width="13" height="1" fill="#d00000" opacity="1" class="highcharts-point"></rect><rect x="224" y="168" width="12" height="3" fill="#d00000" opacity="1" class="highcharts-point"></rect><rect x="236" y="193" width="13" height="0" fill="#d00000" opacity="1" class="highcharts-point"></rect><rect x="249" y="204" width="12" height="0" fill="#d00000" opacity="1" class="highcharts-point"></rect></g><g class="highcharts-markers highcharts-series-0 highcharts-bar-series" data-z-index="0.1" opacity="1" transform="translate(470,367) rotate(90) scale(-1,1) scale(1 1)" clip-path="none"></g><g class="highcharts-series highcharts-series-1 highcharts-bar-series" data-z-index="0.1" opacity="1" transform="translate(470,367) rotate(90) scale(-1,1) scale(1 1)" clip-path="url(#highcharts-cfan3jo-135-)" width="413" height="261"><rect x="0" y="239" width="12" height="40" fill="#00bAf3" opacity="1" class="highcharts-point highcharts-negative"></rect><rect x="12" y="224" width="13" height="35" fill="#00bAf3" opacity="1" class="highcharts-point highcharts-negative"></rect><rect x="25" y="222" width="12" height="25" fill="#00bAf3" opacity="1" class="highcharts-point highcharts-negative"></rect><rect x="37" y="243" width="13" height="23" fill="#00bAf3" opacity="1" class="highcharts-point highcharts-negative"></rect><rect x="50" y="264" width="12" height="36" fill="#00bAf3" opacity="1" class="highcharts-point highcharts-negative"></rect><rect x="62" y="296" width="13" height="80" fill="#00bAf3" opacity="1" class="highcharts-point highcharts-negative"></rect><rect x="75" y="257" width="12" height="101" fill="#00bAf3" opacity="1" class="highcharts-point highcharts-negative"></rect><rect x="87" y="264" width="12" height="110" fill="#00bAf3" opacity="1" class="highcharts-point highcharts-negative"></rect><rect x="99" y="261" width="13" height="70" fill="#00bAf3" opacity="1" class="highcharts-point highcharts-negative"></rect><rect x="112" y="267" width="12" height="75" fill="#00bAf3" opacity="1" class="highcharts-point highcharts-negative"></rect><rect x="124" y="276" width="13" height="59" fill="#00bAf3" opacity="1" class="highcharts-point highcharts-negative"></rect><rect x="137" y="271" width="12" height="51" fill="#00bAf3" opacity="1" class="highcharts-point highcharts-negative"></rect><rect x="149" y="260" width="13" height="42" fill="#00bAf3" opacity="1" class="highcharts-point highcharts-negative"></rect><rect x="162" y="266" width="12" height="35" fill="#00bAf3" opacity="1" class="highcharts-point highcharts-negative"></rect><rect x="174" y="263" width="12" height="25" fill="#00bAf3" opacity="1" class="highcharts-point highcharts-negative"></rect><rect x="186" y="252" width="13" height="14" fill="#00bAf3" opacity="1" class="highcharts-point highcharts-negative"></rect><rect x="199" y="232" width="12" height="11" fill="#00bAf3" opacity="1" class="highcharts-point highcharts-negative"></rect><rect x="211" y="232" width="13" height="7" fill="#00bAf3" opacity="1" class="highcharts-point highcharts-negative"></rect><rect x="224" y="208" width="12" height="0" fill="#00bAf3" opacity="1" class="highcharts-point"></rect><rect x="236" y="208" width="13" height="0" fill="#00bAf3" opacity="1" class="highcharts-point"></rect><rect x="249" y="208" width="12" height="0" fill="#00bAf3" opacity="1" class="highcharts-point"></rect></g><g class="highcharts-markers highcharts-series-1 highcharts-bar-series" data-z-index="0.1" opacity="1" transform="translate(470,367) rotate(90) scale(-1,1) scale(1 1)" clip-path="none"></g><g class="highcharts-series highcharts-series-2 highcharts-bar-series" data-z-index="0.1" opacity="1" transform="translate(470,367) rotate(90) scale(-1,1) scale(1 1)" clip-path="url(#highcharts-cfan3jo-135-)" width="413" height="261"><rect x="0" y="175" width="12" height="33" fill="#B00000" opacity="1" class="highcharts-point"></rect><rect x="12" y="189" width="13" height="19" fill="#B00000" opacity="1" class="highcharts-point"></rect><rect x="25" y="185" width="12" height="23" fill="#B00000" opacity="1" class="highcharts-point"></rect><rect x="37" y="184" width="13" height="24" fill="#B00000" opacity="1" class="highcharts-point"></rect><rect x="50" y="161" width="12" height="47" fill="#B00000" opacity="1" class="highcharts-point"></rect><rect x="62" y="146" width="13" height="62" fill="#B00000" opacity="1" class="highcharts-point"></rect><rect x="75" y="145" width="12" height="63" fill="#B00000" opacity="1" class="highcharts-point"></rect><rect x="87" y="160" width="12" height="48" fill="#B00000" opacity="1" class="highcharts-point"></rect><rect x="99" y="171" width="13" height="37" fill="#B00000" opacity="1" class="highcharts-point"></rect><rect x="112" y="165" width="12" height="43" fill="#B00000" opacity="1" class="highcharts-point"></rect><rect x="124" y="159" width="13" height="49" fill="#B00000" opacity="1" class="highcharts-point"></rect><rect x="137" y="143" width="12" height="65" fill="#B00000" opacity="1" class="highcharts-point"></rect><rect x="149" y="149" width="13" height="59" fill="#B00000" opacity="1" class="highcharts-point"></rect><rect x="162" y="147" width="12" height="61" fill="#B00000" opacity="1" class="highcharts-point"></rect><rect x="174" y="144" width="12" height="64" fill="#B00000" opacity="1" class="highcharts-point"></rect><rect x="186" y="151" width="13" height="57" fill="#B00000" opacity="1" class="highcharts-point"></rect><rect x="199" y="134" width="12" height="74" fill="#B00000" opacity="1" class="highcharts-point"></rect><rect x="211" y="158" width="13" height="50" fill="#B00000" opacity="1" class="highcharts-point"></rect><rect x="224" y="171" width="12" height="37" fill="#B00000" opacity="1" class="highcharts-point"></rect><rect x="236" y="193" width="13" height="15" fill="#B00000" opacity="1" class="highcharts-point"></rect><rect x="249" y="204" width="12" height="4" fill="#B00000" opacity="1" class="highcharts-point"></rect></g><g class="highcharts-markers highcharts-series-2 highcharts-bar-series" data-z-index="0.1" opacity="1" transform="translate(470,367) rotate(90) scale(-1,1) scale(1 1)" clip-path="none"></g><g class="highcharts-series highcharts-series-3 highcharts-bar-series" data-z-index="0.1" opacity="1" transform="translate(470,367) rotate(90) scale(-1,1) scale(1 1)" clip-path="url(#highcharts-cfan3jo-135-)" width="413" height="261"><rect x="0" y="208" width="12" height="31" fill="#008AC3" opacity="1" class="highcharts-point highcharts-negative"></rect><rect x="12" y="208" width="13" height="16" fill="#008AC3" opacity="1" class="highcharts-point highcharts-negative"></rect><rect x="25" y="208" width="12" height="14" fill="#008AC3" opacity="1" class="highcharts-point highcharts-negative"></rect><rect x="37" y="208" width="13" height="35" fill="#008AC3" opacity="1" class="highcharts-point highcharts-negative"></rect><rect x="50" y="208" width="12" height="56" fill="#008AC3" opacity="1" class="highcharts-point highcharts-negative"></rect><rect x="62" y="208" width="13" height="88" fill="#008AC3" opacity="1" class="highcharts-point highcharts-negative"></rect><rect x="75" y="208" width="12" height="49" fill="#008AC3" opacity="1" class="highcharts-point highcharts-negative"></rect><rect x="87" y="208" width="12" height="56" fill="#008AC3" opacity="1" class="highcharts-point highcharts-negative"></rect><rect x="99" y="208" width="13" height="53" fill="#008AC3" opacity="1" class="highcharts-point highcharts-negative"></rect><rect x="112" y="208" width="12" height="59" fill="#008AC3" opacity="1" class="highcharts-point highcharts-negative"></rect><rect x="124" y="208" width="13" height="68" fill="#008AC3" opacity="1" class="highcharts-point highcharts-negative"></rect><rect x="137" y="208" width="12" height="63" fill="#008AC3" opacity="1" class="highcharts-point highcharts-negative"></rect><rect x="149" y="208" width="13" height="52" fill="#008AC3" opacity="1" class="highcharts-point highcharts-negative"></rect><rect x="162" y="208" width="12" height="58" fill="#008AC3" opacity="1" class="highcharts-point highcharts-negative"></rect><rect x="174" y="208" width="12" height="55" fill="#008AC3" opacity="1" class="highcharts-point highcharts-negative"></rect><rect x="186" y="208" width="13" height="44" fill="#008AC3" opacity="1" class="highcharts-point highcharts-negative"></rect><rect x="199" y="208" width="12" height="24" fill="#008AC3" opacity="1" class="highcharts-point highcharts-negative"></rect><rect x="211" y="208" width="13" height="24" fill="#008AC3" opacity="1" class="highcharts-point highcharts-negative"></rect><rect x="224" y="208" width="12" height="10" fill="#008AC3" opacity="1" class="highcharts-point highcharts-negative"></rect><rect x="236" y="208" width="13" height="0" fill="#008AC3" opacity="1" class="highcharts-point highcharts-negative"></rect><rect x="249" y="208" width="12" height="0" fill="#008AC3" opacity="1" class="highcharts-point"></rect></g><g class="highcharts-markers highcharts-series-3 highcharts-bar-series" data-z-index="0.1" opacity="1" transform="translate(470,367) rotate(90) scale(-1,1) scale(1 1)" clip-path="none"></g><g class="highcharts-series highcharts-series-4 highcharts-bar-series highcharts-color-0" visibility="hidden" data-z-index="0.1" opacity="1" transform="translate(470,367) rotate(90) scale(-1,1) scale(1 1)" clip-path="url(#highcharts-cfan3jo-135-)"></g><g class="highcharts-markers highcharts-series-4 highcharts-bar-series highcharts-color-0" visibility="hidden" data-z-index="0.1" opacity="1" transform="translate(470,367) rotate(90) scale(-1,1) scale(1 1)" clip-path="none"></g></g><text x="10" text-anchor="start" class="highcharts-title" data-z-index="4" style="color:#000000;font-size:14px;font-weight:bold;fill:#000000;" y="21"><tspan>Alterspyramide nach Geschlecht und Heimat</tspan></text><text x="10" text-anchor="start" class="highcharts-subtitle" data-z-index="4" style="color:#000000;font-size:12px;font-weight:normal;font-family:Arial;fill:#000000;" y="40"><tspan>Wohnviertel Clara, 2019</tspan></text><text x="10" text-anchor="start" class="highcharts-caption" data-z-index="4" style="color:#666666;fill:#666666;" y="400"></text><g class="highcharts-plot-lines-4" data-z-index="4"><path fill="none" class="highcharts-plot-line " stroke="white" stroke-width="1" d="M 263.5 106 L 263.5 367"></path></g><g class="highcharts-legend" data-z-index="7" transform="translate(154,55)"><rect fill="none" class="highcharts-legend-box" rx="0" ry="0" x="0" y="0" width="276" height="39" visibility="visible"></rect><g data-z-index="1"><g><g class="highcharts-legend-item highcharts-bar-series highcharts-color-undefined highcharts-series-3" data-z-index="1" transform="translate(8,3)"><text x="21" style="color:#333333;cursor:pointer;font-size:12px;font-weight:normal;fill:#333333;" text-anchor="start" data-z-index="2" y="15"><tspan>Schweizer</tspan></text><rect x="2" y="4" width="12" height="12" fill="#008AC3" class="highcharts-point" data-z-index="3"></rect></g><g class="highcharts-legend-item highcharts-bar-series highcharts-color-undefined highcharts-series-2" data-z-index="1" transform="translate(148,3)"><text x="21" y="15" style="color:#333333;cursor:pointer;font-size:12px;font-weight:normal;fill:#333333;" text-anchor="start" data-z-index="2"><tspan>Schweizerinn…</tspan><title>Schweizerinnen</title></text><rect x="2" y="4" width="12" height="12" fill="#B00000" class="highcharts-point" data-z-index="3"></rect></g><g class="highcharts-legend-item highcharts-bar-series highcharts-color-undefined highcharts-series-1" data-z-index="1" transform="translate(8,17)"><text x="21" y="15" style="color:#333333;cursor:pointer;font-size:12px;font-weight:normal;fill:#333333;" text-anchor="start" data-z-index="2"><tspan>Ausländer</tspan></text><rect x="2" y="4" width="12" height="12" fill="#00bAf3" class="highcharts-point" data-z-index="3"></rect></g><g class="highcharts-legend-item highcharts-bar-series highcharts-color-undefined highcharts-series-0" data-z-index="1" transform="translate(148,17)"><text x="21" y="15" style="color:#333333;cursor:pointer;font-size:12px;font-weight:normal;fill:#333333;" text-anchor="start" data-z-index="2"><tspan>Ausländerinn…</tspan><title>Ausländerinnen</title></text><rect x="2" y="4" width="12" height="12" fill="#d00000" class="highcharts-point" data-z-index="3"></rect></g></g></g></g><g class="highcharts-axis-labels highcharts-xaxis-labels" data-z-index="7"><text x="42" style="color:#000000;cursor:default;font-size:11px;fill:#000000;" text-anchor="end" transform="translate(0,0)" y="365" opacity="1">0-4</text><text x="42" style="color:#000000;cursor:default;font-size:11px;fill:#000000;" text-anchor="end" transform="translate(0,0)" y="353" opacity="1">5-9</text><text x="42" style="color:#000000;cursor:default;font-size:11px;fill:#000000;" text-anchor="end" transform="translate(0,0)" y="340" opacity="1">10-14</text><text x="42" style="color:#000000;cursor:default;font-size:11px;fill:#000000;" text-anchor="end" transform="translate(0,0)" y="328" opacity="1">15-19</text><text x="42" style="color:#000000;cursor:default;font-size:11px;fill:#000000;" text-anchor="end" transform="translate(0,0)" y="316" opacity="1">20-24</text><text x="42" style="color:#000000;cursor:default;font-size:11px;fill:#000000;" text-anchor="end" transform="translate(0,0)" y="303" opacity="1">25-29</text><text x="42" style="color:#000000;cursor:default;font-size:11px;fill:#000000;" text-anchor="end" transform="translate(0,0)" y="291" opacity="1">30-34</text><text x="42" style="color:#000000;cursor:default;font-size:11px;fill:#000000;" text-anchor="end" transform="translate(0,0)" y="278" opacity="1">35-39</text><text x="42" style="color:#000000;cursor:default;font-size:11px;fill:#000000;" text-anchor="end" transform="translate(0,0)" y="266" opacity="1">40-44</text><text x="42" style="color:#000000;cursor:default;font-size:11px;fill:#000000;" text-anchor="end" transform="translate(0,0)" y="253" opacity="1">45-49</text><text x="42" style="color:#000000;cursor:default;font-size:11px;fill:#000000;" text-anchor="end" transform="translate(0,0)" y="241" opacity="1">50-54</text><text x="42" style="color:#000000;cursor:default;font-size:11px;fill:#000000;" text-anchor="end" transform="translate(0,0)" y="229" opacity="1">55-59</text><text x="42" style="color:#000000;cursor:default;font-size:11px;fill:#000000;" text-anchor="end" transform="translate(0,0)" y="216" opacity="1">60-64</text><text x="42" style="color:#000000;cursor:default;font-size:11px;fill:#000000;" text-anchor="end" transform="translate(0,0)" y="204" opacity="1">65-69</text><text x="42" style="color:#000000;cursor:default;font-size:11px;fill:#000000;" text-anchor="end" transform="translate(0,0)" y="191" opacity="1">70-74</text><text x="42" style="color:#000000;cursor:default;font-size:11px;fill:#000000;" text-anchor="end" transform="translate(0,0)" y="179" opacity="1">75-79</text><text x="42" style="color:#000000;cursor:default;font-size:11px;fill:#000000;" text-anchor="end" transform="translate(0,0)" y="166" opacity="1">80-84</text><text x="42" style="color:#000000;cursor:default;font-size:11px;fill:#000000;" text-anchor="end" transform="translate(0,0)" y="154" opacity="1">85-89</text><text x="42" style="color:#000000;cursor:default;font-size:11px;fill:#000000;" text-anchor="end" transform="translate(0,0)" y="142" opacity="1">90-94</text><text x="42" style="color:#000000;cursor:default;font-size:11px;fill:#000000;" text-anchor="end" transform="translate(0,0)" y="129" opacity="1">95-99</text><text x="42" style="color:#000000;cursor:default;font-size:11px;fill:#000000;" text-anchor="end" transform="translate(0,0)" y="117" opacity="1">100+</text></g><g class="highcharts-axis-labels highcharts-yaxis-labels" data-z-index="7"><text x="263.5" style="color:#000000;cursor:default;font-size:11px;fill:#000000;" text-anchor="middle" transform="translate(0,0)" y="386" opacity="1">0</text><text x="304.8" style="color:#000000;cursor:default;font-size:11px;fill:#000000;" text-anchor="middle" transform="translate(0,0)" y="386" opacity="1">50</text><text x="346.1" style="color:#000000;cursor:default;font-size:11px;fill:#000000;" text-anchor="middle" transform="translate(0,0)" y="386" opacity="1">100</text><text x="387.4" style="color:#000000;cursor:default;font-size:11px;fill:#000000;" text-anchor="middle" transform="translate(0,0)" y="386" opacity="1">150</text><text x="428.7" style="color:#000000;cursor:default;font-size:11px;fill:#000000;" text-anchor="middle" transform="translate(0,0)" y="386" opacity="1">200</text><text x="470" style="color:#000000;cursor:default;font-size:11px;fill:#000000;" text-anchor="middle" transform="translate(0,0)" y="386" opacity="1">250</text><text x="57" style="color:#000000;cursor:default;font-size:11px;fill:#000000;" text-anchor="middle" transform="translate(0,0)" y="386" opacity="1">250</text><text x="98.3" style="color:#000000;cursor:default;font-size:11px;fill:#000000;" text-anchor="middle" transform="translate(0,0)" y="386" opacity="1">200</text><text x="139.6" style="color:#000000;cursor:default;font-size:11px;fill:#000000;" text-anchor="middle" transform="translate(0,0)" y="386" opacity="1">150</text><text x="180.9" style="color:#000000;cursor:default;font-size:11px;fill:#000000;" text-anchor="middle" transform="translate(0,0)" y="386" opacity="1">100</text><text x="222.2" style="color:#000000;cursor:default;font-size:11px;fill:#000000;" text-anchor="middle" transform="translate(0,0)" y="386" opacity="1">50</text></g><text x="10" class="highcharts-credits" text-anchor="start" data-z-index="8" style="cursor:default;color:#000000;font-size:10px;fill:#000000;" y="403"><tspan>Quelle: Statistisches Amt Basel-Stadt, Bevölkerungsstatistik.</tspan><tspan x="10" dy="13">Zuletzt geändert: 2020-4-9</tspan></text><g class="highcharts-control-points" data-z-index="99" clip-path="url(#highcharts-cfan3jo-220-)"></g></svg>