<?xml version="1.0" standalone="no"?><!DOCTYPE svg PUBLIC "-//W3C//DTD SVG 1.1//EN" "http://www.w3.org/Graphics/SVG/1.1/DTD/svg11.dtd"><svg xmlns:xlink="http://www.w3.org/1999/xlink" version="1.1" class="highcharts-root" style="font-family:Arial;font-size:12px;" xmlns="http://www.w3.org/2000/svg" viewBox="0 0 485 415"><desc>Created with Highstock 6.1.1</desc><defs><clipPath id="highcharts-reuqime-6"><rect x="0" y="0" width="327" height="274" fill="none"></rect></clipPath><clipPath id="highcharts-reuqime-7"><rect x="0" y="0" width="327" height="274" fill="none"></rect></clipPath></defs><rect fill="#fbfbfb" class="highcharts-background" x="0" y="0" width="485" height="415" rx="0" ry="0"></rect><rect fill="none" class="highcharts-plot-background" x="27" y="72" width="327" height="274"></rect><g class="highcharts-pane-group" data-z-index="0"></g><g class="highcharts-grid highcharts-xaxis-grid " data-z-index="1"><path fill="none" data-z-index="1" class="highcharts-grid-line" d="M 29.5 72 L 29.5 346" opacity="1"></path><path fill="none" data-z-index="1" class="highcharts-grid-line" d="M 54.5 72 L 54.5 346" opacity="1"></path><path fill="none" data-z-index="1" class="highcharts-grid-line" d="M 79.5 72 L 79.5 346" opacity="1"></path><path fill="none" data-z-index="1" class="highcharts-grid-line" d="M 103.5 72 L 103.5 346" opacity="1"></path><path fill="none" data-z-index="1" class="highcharts-grid-line" d="M 128.5 72 L 128.5 346" opacity="1"></path><path fill="none" data-z-index="1" class="highcharts-grid-line" d="M 153.5 72 L 153.5 346" opacity="1"></path><path fill="none" data-z-index="1" class="highcharts-grid-line" d="M 177.5 72 L 177.5 346" opacity="1"></path><path fill="none" data-z-index="1" class="highcharts-grid-line" d="M 202.5 72 L 202.5 346" opacity="1"></path><path fill="none" data-z-index="1" class="highcharts-grid-line" d="M 226.5 72 L 226.5 346" opacity="1"></path><path fill="none" data-z-index="1" class="highcharts-grid-line" d="M 251.5 72 L 251.5 346" opacity="1"></path><path fill="none" data-z-index="1" class="highcharts-grid-line" d="M 276.5 72 L 276.5 346" opacity="1"></path><path fill="none" data-z-index="1" class="highcharts-grid-line" d="M 300.5 72 L 300.5 346" opacity="1"></path><path fill="none" data-z-index="1" class="highcharts-grid-line" d="M 325.5 72 L 325.5 346" opacity="1"></path><path fill="none" data-z-index="1" class="highcharts-grid-line" d="M 350.5 72 L 350.5 346" opacity="1"></path></g><g class="highcharts-grid highcharts-yaxis-grid " data-z-index="1"><path fill="none" stroke="#B9CFD7" stroke-width="0.5" data-z-index="1" class="highcharts-grid-line" d="M 27 346.25 L 354 346.25" opacity="1"></path><path fill="none" stroke="#B9CFD7" stroke-width="0.5" data-z-index="1" class="highcharts-grid-line" d="M 27 291.25 L 354 291.25" opacity="1"></path><path fill="none" stroke="#B9CFD7" stroke-width="0.5" data-z-index="1" class="highcharts-grid-line" d="M 27 236.25 L 354 236.25" opacity="1"></path><path fill="none" stroke="#B9CFD7" stroke-width="0.5" data-z-index="1" class="highcharts-grid-line" d="M 27 182.25 L 354 182.25" opacity="1"></path><path fill="none" stroke="#B9CFD7" stroke-width="0.5" data-z-index="1" class="highcharts-grid-line" d="M 27 127.25 L 354 127.25" opacity="1"></path><path fill="none" stroke="#B9CFD7" stroke-width="0.5" data-z-index="1" class="highcharts-grid-line" d="M 27 71.75 L 354 71.75" opacity="1"></path></g><rect fill="none" class="highcharts-plot-border" data-z-index="1" x="27" y="72" width="327" height="274"></rect><g class="highcharts-axis highcharts-xaxis " data-z-index="2"><path fill="none" class="highcharts-axis-line" stroke="#B9CFD7" stroke-width="0.5" data-z-index="7" d="M 27 346.25 L 354 346.25"></path></g><g class="highcharts-axis highcharts-yaxis " data-z-index="2"><path fill="none" class="highcharts-axis-line" data-z-index="7" d="M 27 72 L 27 346"></path></g><g class="highcharts-series-group" data-z-index="3"><g data-z-index="0.1" class="highcharts-series highcharts-series-0 highcharts-area-series " transform="translate(27,72) scale(1 1)" clip-path="url(#highcharts-reuqime-7)"><path fill="rgb(176,0,0)" d="M 3.2058823529438 237.6128 L 27.866515837106 232.2972 L 52.527149321269 230.5436 L 77.187782805431 226.4884 L 101.84841628959 223.2552 L 126.50904977376 221.5016 L 151.16968325792 224.0224 L 175.83031674208 223.0908 L 200.49095022624 223.7484 L 225.15158371041 220.9536 L 249.81221719457 222.3236 L 274.47285067873 222.762 L 299.13348416289 221.3372 L 323.79411764706 220.0768 L 323.79411764706 274 L 299.13348416289 274 L 274.47285067873 274 L 249.81221719457 274 L 225.15158371041 274 L 200.49095022624 274 L 175.83031674208 274 L 151.16968325792 274 L 126.50904977376 274 L 101.84841628959 274 L 77.187782805431 274 L 52.527149321269 274 L 27.866515837106 274 L 3.2058823529438 274" class="highcharts-area" data-z-index="0"></path><path fill="none" d="M 3.2058823529438 237.6128 L 27.866515837106 232.2972 L 52.527149321269 230.5436 L 77.187782805431 226.4884 L 101.84841628959 223.2552 L 126.50904977376 221.5016 L 151.16968325792 224.0224 L 175.83031674208 223.0908 L 200.49095022624 223.7484 L 225.15158371041 220.9536 L 249.81221719457 222.3236 L 274.47285067873 222.762 L 299.13348416289 221.3372 L 323.79411764706 220.0768" class="highcharts-graph" data-z-index="1" stroke-linejoin="round" stroke-linecap="round"></path></g><g data-z-index="0.1" class="highcharts-markers highcharts-series-0 highcharts-area-series " transform="translate(27,72) scale(1 1)" clip-path="none"></g><g data-z-index="0.1" class="highcharts-series highcharts-series-1 highcharts-area-series " transform="translate(27,72) scale(1 1)" clip-path="url(#highcharts-reuqime-7)"><path fill="rgb(255,128,40)" d="M 3.2058823529438 217.66559999999998 L 27.866515837106 212.7336 L 52.527149321269 211.3088 L 77.187782805431 207.3084 L 101.84841628959 203.4724 L 126.50904977376 201.4996 L 151.16968325792 204.13 L 175.83031674208 203.1984 L 200.49095022624 203.6368 L 225.15158371041 200.67759999999998 L 249.81221719457 201.4448 L 274.47285067873 200.01999999999998 L 299.13348416289 196.4032 L 323.79411764706 194.8688 L 323.79411764706 220.0768 L 299.13348416289 221.3372 L 274.47285067873 222.762 L 249.81221719457 222.3236 L 225.15158371041 220.9536 L 200.49095022624 223.7484 L 175.83031674208 223.0908 L 151.16968325792 224.0224 L 126.50904977376 221.5016 L 101.84841628959 223.2552 L 77.187782805431 226.4884 L 52.527149321269 230.5436 L 27.866515837106 232.2972 L 3.2058823529438 237.6128" class="highcharts-area" data-z-index="0"></path><path fill="none" d="M 3.2058823529438 217.66559999999998 L 27.866515837106 212.7336 L 52.527149321269 211.3088 L 77.187782805431 207.3084 L 101.84841628959 203.4724 L 126.50904977376 201.4996 L 151.16968325792 204.13 L 175.83031674208 203.1984 L 200.49095022624 203.6368 L 225.15158371041 200.67759999999998 L 249.81221719457 201.4448 L 274.47285067873 200.01999999999998 L 299.13348416289 196.4032 L 323.79411764706 194.8688" class="highcharts-graph" data-z-index="1" stroke-linejoin="round" stroke-linecap="round"></path></g><g data-z-index="0.1" class="highcharts-markers highcharts-series-1 highcharts-area-series " transform="translate(27,72) scale(1 1)" clip-path="none"></g><g data-z-index="0.1" class="highcharts-series highcharts-series-2 highcharts-area-series " transform="translate(27,72) scale(1 1)" clip-path="url(#highcharts-reuqime-7)"><path fill="rgb(115,186,124)" d="M 3.2058823529438 208.8428 L 27.866515837106 204.0204 L 52.527149321269 203.4176 L 77.187782805431 199.36239999999998 L 101.84841628959 196.0196 L 126.50904977376 194.4304 L 151.16968325792 196.6224 L 175.83031674208 195.1976 L 200.49095022624 195.8552 L 225.15158371041 193.71800000000002 L 249.81221719457 194.4852 L 274.47285067873 193.11520000000002 L 299.13348416289 189.3888 L 323.79411764706 188.6764 L 323.79411764706 194.8688 L 299.13348416289 196.4032 L 274.47285067873 200.01999999999998 L 249.81221719457 201.4448 L 225.15158371041 200.67759999999998 L 200.49095022624 203.6368 L 175.83031674208 203.1984 L 151.16968325792 204.13 L 126.50904977376 201.4996 L 101.84841628959 203.4724 L 77.187782805431 207.3084 L 52.527149321269 211.3088 L 27.866515837106 212.7336 L 3.2058823529438 217.66559999999998" class="highcharts-area" data-z-index="0"></path><path fill="none" d="M 3.2058823529438 208.8428 L 27.866515837106 204.0204 L 52.527149321269 203.4176 L 77.187782805431 199.36239999999998 L 101.84841628959 196.0196 L 126.50904977376 194.4304 L 151.16968325792 196.6224 L 175.83031674208 195.1976 L 200.49095022624 195.8552 L 225.15158371041 193.71800000000002 L 249.81221719457 194.4852 L 274.47285067873 193.11520000000002 L 299.13348416289 189.3888 L 323.79411764706 188.6764" class="highcharts-graph" data-z-index="1" stroke-linejoin="round" stroke-linecap="round"></path></g><g data-z-index="0.1" class="highcharts-markers highcharts-series-2 highcharts-area-series " transform="translate(27,72) scale(1 1)" clip-path="none"></g><g data-z-index="0.1" class="highcharts-series highcharts-series-3 highcharts-area-series " transform="translate(27,72) scale(1 1)" clip-path="url(#highcharts-reuqime-7)"><path fill="rgb(180,117,171)" d="M 3.2058823529438 201.17079999999999 L 27.866515837106 196.6224 L 52.527149321269 196.458 L 77.187782805431 192.5124 L 101.84841628959 188.786 L 126.50904977376 186.594 L 151.16968325792 188.1832 L 175.83031674208 185.224 L 200.49095022624 185.1144 L 225.15158371041 182.04559999999998 L 249.81221719457 182.86759999999998 L 274.47285067873 181.0592 L 299.13348416289 177.9356 L 323.79411764706 176.56560000000002 L 323.79411764706 188.6764 L 299.13348416289 189.3888 L 274.47285067873 193.11520000000002 L 249.81221719457 194.4852 L 225.15158371041 193.71800000000002 L 200.49095022624 195.8552 L 175.83031674208 195.1976 L 151.16968325792 196.6224 L 126.50904977376 194.4304 L 101.84841628959 196.0196 L 77.187782805431 199.36239999999998 L 52.527149321269 203.4176 L 27.866515837106 204.0204 L 3.2058823529438 208.8428" class="highcharts-area" data-z-index="0"></path><path fill="none" d="M 3.2058823529438 201.17079999999999 L 27.866515837106 196.6224 L 52.527149321269 196.458 L 77.187782805431 192.5124 L 101.84841628959 188.786 L 126.50904977376 186.594 L 151.16968325792 188.1832 L 175.83031674208 185.224 L 200.49095022624 185.1144 L 225.15158371041 182.04559999999998 L 249.81221719457 182.86759999999998 L 274.47285067873 181.0592 L 299.13348416289 177.9356 L 323.79411764706 176.56560000000002" class="highcharts-graph" data-z-index="1" stroke-linejoin="round" stroke-linecap="round"></path></g><g data-z-index="0.1" class="highcharts-markers highcharts-series-3 highcharts-area-series " transform="translate(27,72) scale(1 1)" clip-path="none"></g><g data-z-index="0.1" class="highcharts-series highcharts-series-4 highcharts-area-series " transform="translate(27,72) scale(1 1)" clip-path="url(#highcharts-reuqime-7)"><path fill="rgb(8,161,217)" d="M 3.2058823529438 195.9648 L 27.866515837106 191.9644 L 52.527149321269 191.5808 L 77.187782805431 187.1968 L 101.84841628959 183.19639999999998 L 126.50904977376 180.8948 L 151.16968325792 182.31959999999998 L 175.83031674208 179.3056 L 200.49095022624 178.8124 L 225.15158371041 175.1408 L 249.81221719457 176.56560000000002 L 274.47285067873 175.086 L 299.13348416289 171.1952 L 323.79411764706 169.2772 L 323.79411764706 176.56560000000002 L 299.13348416289 177.9356 L 274.47285067873 181.0592 L 249.81221719457 182.86759999999998 L 225.15158371041 182.04559999999998 L 200.49095022624 185.1144 L 175.83031674208 185.224 L 151.16968325792 188.1832 L 126.50904977376 186.594 L 101.84841628959 188.786 L 77.187782805431 192.5124 L 52.527149321269 196.458 L 27.866515837106 196.6224 L 3.2058823529438 201.17079999999999" class="highcharts-area" data-z-index="0"></path><path fill="none" d="M 3.2058823529438 195.9648 L 27.866515837106 191.9644 L 52.527149321269 191.5808 L 77.187782805431 187.1968 L 101.84841628959 183.19639999999998 L 126.50904977376 180.8948 L 151.16968325792 182.31959999999998 L 175.83031674208 179.3056 L 200.49095022624 178.8124 L 225.15158371041 175.1408 L 249.81221719457 176.56560000000002 L 274.47285067873 175.086 L 299.13348416289 171.1952 L 323.79411764706 169.2772" class="highcharts-graph" data-z-index="1" stroke-linejoin="round" stroke-linecap="round"></path></g><g data-z-index="0.1" class="highcharts-markers highcharts-series-4 highcharts-area-series " transform="translate(27,72) scale(1 1)" clip-path="none"></g><g data-z-index="0.1" class="highcharts-series highcharts-series-5 highcharts-area-series " transform="translate(27,72) scale(1 1)" clip-path="url(#highcharts-reuqime-7)"><path fill="rgb(131,82,46)" d="M 3.2058823529438 193.00560000000002 L 27.866515837106 189.4984 L 52.527149321269 188.9504 L 77.187782805431 184.4568 L 101.84841628959 180.3468 L 126.50904977376 178.4836 L 151.16968325792 180.1824 L 175.83031674208 177.6068 L 200.49095022624 177.004 L 225.15158371041 173.5516 L 249.81221719457 174.8668 L 274.47285067873 173.5516 L 299.13348416289 169.4964 L 323.79411764706 167.4688 L 323.79411764706 169.2772 L 299.13348416289 171.1952 L 274.47285067873 175.086 L 249.81221719457 176.56560000000002 L 225.15158371041 175.1408 L 200.49095022624 178.8124 L 175.83031674208 179.3056 L 151.16968325792 182.31959999999998 L 126.50904977376 180.8948 L 101.84841628959 183.19639999999998 L 77.187782805431 187.1968 L 52.527149321269 191.5808 L 27.866515837106 191.9644 L 3.2058823529438 195.9648" class="highcharts-area" data-z-index="0"></path><path fill="none" d="M 3.2058823529438 193.00560000000002 L 27.866515837106 189.4984 L 52.527149321269 188.9504 L 77.187782805431 184.4568 L 101.84841628959 180.3468 L 126.50904977376 178.4836 L 151.16968325792 180.1824 L 175.83031674208 177.6068 L 200.49095022624 177.004 L 225.15158371041 173.5516 L 249.81221719457 174.8668 L 274.47285067873 173.5516 L 299.13348416289 169.4964 L 323.79411764706 167.4688" class="highcharts-graph" data-z-index="1" stroke-linejoin="round" stroke-linecap="round"></path></g><g data-z-index="0.1" class="highcharts-markers highcharts-series-5 highcharts-area-series " transform="translate(27,72) scale(1 1)" clip-path="none"></g><g data-z-index="0.1" class="highcharts-series highcharts-series-6 highcharts-area-series " transform="translate(27,72) scale(1 1)" clip-path="url(#highcharts-reuqime-7)"><path fill="rgb(255,232,70)" d="M 3.2058823529438 184.1828 L 27.866515837106 180.84 L 52.527149321269 180.7852 L 77.187782805431 177.2232 L 101.84841628959 172.6748 L 126.50904977376 172.2912 L 151.16968325792 175.1408 L 175.83031674208 172.4556 L 200.49095022624 171.9076 L 225.15158371041 168.6196 L 249.81221719457 169.1676 L 274.47285067873 167.5784 L 299.13348416289 163.5232 L 323.79411764706 162.0436 L 323.79411764706 167.4688 L 299.13348416289 169.4964 L 274.47285067873 173.5516 L 249.81221719457 174.8668 L 225.15158371041 173.5516 L 200.49095022624 177.004 L 175.83031674208 177.6068 L 151.16968325792 180.1824 L 126.50904977376 178.4836 L 101.84841628959 180.3468 L 77.187782805431 184.4568 L 52.527149321269 188.9504 L 27.866515837106 189.4984 L 3.2058823529438 193.00560000000002" class="highcharts-area" data-z-index="0"></path><path fill="none" d="M 3.2058823529438 184.1828 L 27.866515837106 180.84 L 52.527149321269 180.7852 L 77.187782805431 177.2232 L 101.84841628959 172.6748 L 126.50904977376 172.2912 L 151.16968325792 175.1408 L 175.83031674208 172.4556 L 200.49095022624 171.9076 L 225.15158371041 168.6196 L 249.81221719457 169.1676 L 274.47285067873 167.5784 L 299.13348416289 163.5232 L 323.79411764706 162.0436" class="highcharts-graph" data-z-index="1" stroke-linejoin="round" stroke-linecap="round"></path></g><g data-z-index="0.1" class="highcharts-markers highcharts-series-6 highcharts-area-series " transform="translate(27,72) scale(1 1)" clip-path="none"></g><g data-z-index="0.1" class="highcharts-series highcharts-series-7 highcharts-area-series " transform="translate(27,72) scale(1 1)" clip-path="url(#highcharts-reuqime-7)"><path fill="rgb(60,60,60)" d="M 3.2058823529438 181.66199999999998 L 27.866515837106 178.5384 L 52.527149321269 178.922 L 77.187782805431 176.23680000000002 L 101.84841628959 171.3596 L 126.50904977376 171.0856 L 151.16968325792 173.99 L 175.83031674208 171.4144 L 200.49095022624 170.5376 L 225.15158371041 167.1948 L 249.81221719457 167.8524 L 274.47285067873 166.26319999999998 L 299.13348416289 162.1532 L 323.79411764706 160.7284 L 323.79411764706 162.0436 L 299.13348416289 163.5232 L 274.47285067873 167.5784 L 249.81221719457 169.1676 L 225.15158371041 168.6196 L 200.49095022624 171.9076 L 175.83031674208 172.4556 L 151.16968325792 175.1408 L 126.50904977376 172.2912 L 101.84841628959 172.6748 L 77.187782805431 177.2232 L 52.527149321269 180.7852 L 27.866515837106 180.84 L 3.2058823529438 184.1828" class="highcharts-area" data-z-index="0"></path><path fill="none" d="M 3.2058823529438 181.66199999999998 L 27.866515837106 178.5384 L 52.527149321269 178.922 L 77.187782805431 176.23680000000002 L 101.84841628959 171.3596 L 126.50904977376 171.0856 L 151.16968325792 173.99 L 175.83031674208 171.4144 L 200.49095022624 170.5376 L 225.15158371041 167.1948 L 249.81221719457 167.8524 L 274.47285067873 166.26319999999998 L 299.13348416289 162.1532 L 323.79411764706 160.7284" class="highcharts-graph" data-z-index="1" stroke-linejoin="round" stroke-linecap="round"></path></g><g data-z-index="0.1" class="highcharts-markers highcharts-series-7 highcharts-area-series " transform="translate(27,72) scale(1 1)" clip-path="none"></g><g data-z-index="0.1" class="highcharts-series highcharts-series-8 highcharts-area-series " transform="translate(27,72) scale(1 1)" clip-path="url(#highcharts-reuqime-7)"><path fill="rgb(200,200,200)" d="M 3.2058823529438 181.33319999999998 L 27.866515837106 178.1548 L 52.527149321269 178.5932 L 77.187782805431 175.96280000000002 L 101.84841628959 171.0308 L 126.50904977376 170.9212 L 151.16968325792 173.716 L 175.83031674208 171.1404 L 200.49095022624 170.2636 L 225.15158371041 166.81119999999999 L 249.81221719457 167.3592 L 274.47285067873 165.55079999999998 L 299.13348416289 161.4408 L 323.79411764706 159.6872 L 323.79411764706 160.7284 L 299.13348416289 162.1532 L 274.47285067873 166.26319999999998 L 249.81221719457 167.8524 L 225.15158371041 167.1948 L 200.49095022624 170.5376 L 175.83031674208 171.4144 L 151.16968325792 173.99 L 126.50904977376 171.0856 L 101.84841628959 171.3596 L 77.187782805431 176.23680000000002 L 52.527149321269 178.922 L 27.866515837106 178.5384 L 3.2058823529438 181.66199999999998" class="highcharts-area" data-z-index="0"></path><path fill="none" d="M 3.2058823529438 181.33319999999998 L 27.866515837106 178.1548 L 52.527149321269 178.5932 L 77.187782805431 175.96280000000002 L 101.84841628959 171.0308 L 126.50904977376 170.9212 L 151.16968325792 173.716 L 175.83031674208 171.1404 L 200.49095022624 170.2636 L 225.15158371041 166.81119999999999 L 249.81221719457 167.3592 L 274.47285067873 165.55079999999998 L 299.13348416289 161.4408 L 323.79411764706 159.6872" class="highcharts-graph" data-z-index="1" stroke-linejoin="round" stroke-linecap="round"></path></g><g data-z-index="0.1" class="highcharts-markers highcharts-series-8 highcharts-area-series " transform="translate(27,72) scale(1 1)" clip-path="none"></g><g data-z-index="0.1" class="highcharts-series highcharts-series-9 highcharts-area-series " transform="translate(27,72) scale(1 1)" clip-path="url(#highcharts-reuqime-7)"><path fill="rgb(176,0,0)" d="M 3.2058823529438 178.2644 L 27.866515837106 175.36 L 52.527149321269 176.40120000000002 L 77.187782805431 173.7708 L 101.84841628959 169.3868 L 126.50904977376 169.0032 L 151.16968325792 171.8528 L 175.83031674208 169.4964 L 200.49095022624 168.8936 L 225.15158371041 165.60559999999998 L 249.81221719457 166.04399999999998 L 274.47285067873 164.18079999999998 L 299.13348416289 160.1256 L 323.79411764706 158.1528 L 323.79411764706 159.6872 L 299.13348416289 161.4408 L 274.47285067873 165.55079999999998 L 249.81221719457 167.3592 L 225.15158371041 166.81119999999999 L 200.49095022624 170.2636 L 175.83031674208 171.1404 L 151.16968325792 173.716 L 126.50904977376 170.9212 L 101.84841628959 171.0308 L 77.187782805431 175.96280000000002 L 52.527149321269 178.5932 L 27.866515837106 178.1548 L 3.2058823529438 181.33319999999998" class="highcharts-area" data-z-index="0"></path><path fill="none" d="M 3.2058823529438 178.2644 L 27.866515837106 175.36 L 52.527149321269 176.40120000000002 L 77.187782805431 173.7708 L 101.84841628959 169.3868 L 126.50904977376 169.0032 L 151.16968325792 171.8528 L 175.83031674208 169.4964 L 200.49095022624 168.8936 L 225.15158371041 165.60559999999998 L 249.81221719457 166.04399999999998 L 274.47285067873 164.18079999999998 L 299.13348416289 160.1256 L 323.79411764706 158.1528" class="highcharts-graph" data-z-index="1" stroke-linejoin="round" stroke-linecap="round"></path></g><g data-z-index="0.1" class="highcharts-markers highcharts-series-9 highcharts-area-series " transform="translate(27,72) scale(1 1)" clip-path="none"></g><g data-z-index="0.1" class="highcharts-series highcharts-series-10 highcharts-area-series " transform="translate(27,72) scale(1 1)" clip-path="url(#highcharts-reuqime-7)"><path fill="rgb(255,128,40)" d="M 3.2058823529438 173.168 L 27.866515837106 169.2772 L 52.527149321269 169.6608 L 77.187782805431 166.09879999999998 L 101.84841628959 161.4408 L 126.50904977376 160.6736 L 151.16968325792 164.23559999999998 L 175.83031674208 160.564 L 200.49095022624 159.13920000000002 L 225.15158371041 156.3992 L 249.81221719457 155.906 L 274.47285067873 153.988 L 299.13348416289 148.61759999999998 L 323.79411764706 146.59 L 323.79411764706 158.1528 L 299.13348416289 160.1256 L 274.47285067873 164.18079999999998 L 249.81221719457 166.04399999999998 L 225.15158371041 165.60559999999998 L 200.49095022624 168.8936 L 175.83031674208 169.4964 L 151.16968325792 171.8528 L 126.50904977376 169.0032 L 101.84841628959 169.3868 L 77.187782805431 173.7708 L 52.527149321269 176.40120000000002 L 27.866515837106 175.36 L 3.2058823529438 178.2644" class="highcharts-area" data-z-index="0"></path><path fill="none" d="M 3.2058823529438 173.168 L 27.866515837106 169.2772 L 52.527149321269 169.6608 L 77.187782805431 166.09879999999998 L 101.84841628959 161.4408 L 126.50904977376 160.6736 L 151.16968325792 164.23559999999998 L 175.83031674208 160.564 L 200.49095022624 159.13920000000002 L 225.15158371041 156.3992 L 249.81221719457 155.906 L 274.47285067873 153.988 L 299.13348416289 148.61759999999998 L 323.79411764706 146.59" class="highcharts-graph" data-z-index="1" stroke-linejoin="round" stroke-linecap="round"></path></g><g data-z-index="0.1" class="highcharts-markers highcharts-series-10 highcharts-area-series " transform="translate(27,72) scale(1 1)" clip-path="none"></g><g data-z-index="0.1" class="highcharts-series highcharts-series-11 highcharts-area-series " transform="translate(27,72) scale(1 1)" clip-path="url(#highcharts-reuqime-7)"><path fill="rgb(115,186,124)" d="M 3.2058823529438 168.4004 L 27.866515837106 164.45479999999998 L 52.527149321269 164.18079999999998 L 77.187782805431 159.41320000000002 L 101.84841628959 154.9744 L 126.50904977376 153.9332 L 151.16968325792 157.8788 L 175.83031674208 154.262 L 200.49095022624 152.618 L 225.15158371041 149.32999999999998 L 249.81221719457 148.50799999999998 L 274.47285067873 145.1104 L 299.13348416289 139.0276 L 323.79411764706 135.5752 L 323.79411764706 146.59 L 299.13348416289 148.61759999999998 L 274.47285067873 153.988 L 249.81221719457 155.906 L 225.15158371041 156.3992 L 200.49095022624 159.13920000000002 L 175.83031674208 160.564 L 151.16968325792 164.23559999999998 L 126.50904977376 160.6736 L 101.84841628959 161.4408 L 77.187782805431 166.09879999999998 L 52.527149321269 169.6608 L 27.866515837106 169.2772 L 3.2058823529438 173.168" class="highcharts-area" data-z-index="0"></path><path fill="none" d="M 3.2058823529438 168.4004 L 27.866515837106 164.45479999999998 L 52.527149321269 164.18079999999998 L 77.187782805431 159.41320000000002 L 101.84841628959 154.9744 L 126.50904977376 153.9332 L 151.16968325792 157.8788 L 175.83031674208 154.262 L 200.49095022624 152.618 L 225.15158371041 149.32999999999998 L 249.81221719457 148.50799999999998 L 274.47285067873 145.1104 L 299.13348416289 139.0276 L 323.79411764706 135.5752" class="highcharts-graph" data-z-index="1" stroke-linejoin="round" stroke-linecap="round"></path></g><g data-z-index="0.1" class="highcharts-markers highcharts-series-11 highcharts-area-series " transform="translate(27,72) scale(1 1)" clip-path="none"></g><g data-z-index="0.1" class="highcharts-series highcharts-series-12 highcharts-area-series " transform="translate(27,72) scale(1 1)" clip-path="url(#highcharts-reuqime-7)"><path fill="rgb(180,117,171)" d="M 3.2058823529438 165.87959999999998 L 27.866515837106 161.1668 L 52.527149321269 160.3996 L 77.187782805431 156.454 L 101.84841628959 151.9604 L 126.50904977376 150.0424 L 151.16968325792 153.6044 L 175.83031674208 149.27519999999998 L 200.49095022624 146.80919999999998 L 225.15158371041 143.85 L 249.81221719457 142.9184 L 274.47285067873 140.83599999999998 L 299.13348416289 134.2052 L 323.79411764706 129.1636 L 323.79411764706 135.5752 L 299.13348416289 139.0276 L 274.47285067873 145.1104 L 249.81221719457 148.50799999999998 L 225.15158371041 149.32999999999998 L 200.49095022624 152.618 L 175.83031674208 154.262 L 151.16968325792 157.8788 L 126.50904977376 153.9332 L 101.84841628959 154.9744 L 77.187782805431 159.41320000000002 L 52.527149321269 164.18079999999998 L 27.866515837106 164.45479999999998 L 3.2058823529438 168.4004" class="highcharts-area" data-z-index="0"></path><path fill="none" d="M 3.2058823529438 165.87959999999998 L 27.866515837106 161.1668 L 52.527149321269 160.3996 L 77.187782805431 156.454 L 101.84841628959 151.9604 L 126.50904977376 150.0424 L 151.16968325792 153.6044 L 175.83031674208 149.27519999999998 L 200.49095022624 146.80919999999998 L 225.15158371041 143.85 L 249.81221719457 142.9184 L 274.47285067873 140.83599999999998 L 299.13348416289 134.2052 L 323.79411764706 129.1636" class="highcharts-graph" data-z-index="1" stroke-linejoin="round" stroke-linecap="round"></path></g><g data-z-index="0.1" class="highcharts-markers highcharts-series-12 highcharts-area-series " transform="translate(27,72) scale(1 1)" clip-path="none"></g><g data-z-index="0.1" class="highcharts-series highcharts-series-13 highcharts-area-series " transform="translate(27,72) scale(1 1)" clip-path="url(#highcharts-reuqime-7)"><path fill="rgb(8,161,217)" d="M 3.2058823529438 161.8792 L 27.866515837106 157.0568 L 52.527149321269 155.7964 L 77.187782805431 151.1932 L 101.84841628959 146.2612 L 126.50904977376 144.8364 L 151.16968325792 147.90519999999998 L 175.83031674208 141.7676 L 200.49095022624 139.74 L 225.15158371041 135.7944 L 249.81221719457 134.26 L 274.47285067873 131.79399999999998 L 299.13348416289 125.10839999999999 L 323.79411764706 119.5736 L 323.79411764706 129.1636 L 299.13348416289 134.2052 L 274.47285067873 140.83599999999998 L 249.81221719457 142.9184 L 225.15158371041 143.85 L 200.49095022624 146.80919999999998 L 175.83031674208 149.27519999999998 L 151.16968325792 153.6044 L 126.50904977376 150.0424 L 101.84841628959 151.9604 L 77.187782805431 156.454 L 52.527149321269 160.3996 L 27.866515837106 161.1668 L 3.2058823529438 165.87959999999998" class="highcharts-area" data-z-index="0"></path><path fill="none" d="M 3.2058823529438 161.8792 L 27.866515837106 157.0568 L 52.527149321269 155.7964 L 77.187782805431 151.1932 L 101.84841628959 146.2612 L 126.50904977376 144.8364 L 151.16968325792 147.90519999999998 L 175.83031674208 141.7676 L 200.49095022624 139.74 L 225.15158371041 135.7944 L 249.81221719457 134.26 L 274.47285067873 131.79399999999998 L 299.13348416289 125.10839999999999 L 323.79411764706 119.5736" class="highcharts-graph" data-z-index="1" stroke-linejoin="round" stroke-linecap="round"></path></g><g data-z-index="0.1" class="highcharts-markers highcharts-series-13 highcharts-area-series " transform="translate(27,72) scale(1 1)" clip-path="none"></g><g data-z-index="0.1" class="highcharts-series highcharts-series-14 highcharts-area-series " transform="translate(27,72) scale(1 1)" clip-path="url(#highcharts-reuqime-7)"><path fill="rgb(131,82,46)" d="M 3.2058823529438 157.9336 L 27.866515837106 153.0016 L 52.527149321269 151.6316 L 77.187782805431 147.35719999999998 L 101.84841628959 142.3704 L 126.50904977376 141.00039999999998 L 151.16968325792 144.5624 L 175.83031674208 138.2604 L 200.49095022624 136.0684 L 225.15158371041 131.79399999999998 L 249.81221719457 130.2596 L 274.47285067873 127.5744 L 299.13348416289 121.0532 L 323.79411764706 115.68279999999999 L 323.79411764706 119.5736 L 299.13348416289 125.10839999999999 L 274.47285067873 131.79399999999998 L 249.81221719457 134.26 L 225.15158371041 135.7944 L 200.49095022624 139.74 L 175.83031674208 141.7676 L 151.16968325792 147.90519999999998 L 126.50904977376 144.8364 L 101.84841628959 146.2612 L 77.187782805431 151.1932 L 52.527149321269 155.7964 L 27.866515837106 157.0568 L 3.2058823529438 161.8792" class="highcharts-area" data-z-index="0"></path><path fill="none" d="M 3.2058823529438 157.9336 L 27.866515837106 153.0016 L 52.527149321269 151.6316 L 77.187782805431 147.35719999999998 L 101.84841628959 142.3704 L 126.50904977376 141.00039999999998 L 151.16968325792 144.5624 L 175.83031674208 138.2604 L 200.49095022624 136.0684 L 225.15158371041 131.79399999999998 L 249.81221719457 130.2596 L 274.47285067873 127.5744 L 299.13348416289 121.0532 L 323.79411764706 115.68279999999999" class="highcharts-graph" data-z-index="1" stroke-linejoin="round" stroke-linecap="round"></path></g><g data-z-index="0.1" class="highcharts-markers highcharts-series-14 highcharts-area-series " transform="translate(27,72) scale(1 1)" clip-path="none"></g><g data-z-index="0.1" class="highcharts-series highcharts-series-15 highcharts-area-series " transform="translate(27,72) scale(1 1)" clip-path="url(#highcharts-reuqime-7)"><path fill="rgb(255,232,70)" d="M 3.2058823529438 156.18 L 27.866515837106 151.4124 L 52.527149321269 150.3712 L 77.187782805431 145.9324 L 101.84841628959 140.67159999999998 L 126.50904977376 139.74 L 151.16968325792 143.6856 L 175.83031674208 137.3288 L 200.49095022624 135.356 L 225.15158371041 130.972 L 249.81221719457 129.8212 L 274.47285067873 126.9716 L 299.13348416289 120.286 L 323.79411764706 114.69639999999998 L 323.79411764706 115.68279999999999 L 299.13348416289 121.0532 L 274.47285067873 127.5744 L 249.81221719457 130.2596 L 225.15158371041 131.79399999999998 L 200.49095022624 136.0684 L 175.83031674208 138.2604 L 151.16968325792 144.5624 L 126.50904977376 141.00039999999998 L 101.84841628959 142.3704 L 77.187782805431 147.35719999999998 L 52.527149321269 151.6316 L 27.866515837106 153.0016 L 3.2058823529438 157.9336" class="highcharts-area" data-z-index="0"></path><path fill="none" d="M 3.2058823529438 156.18 L 27.866515837106 151.4124 L 52.527149321269 150.3712 L 77.187782805431 145.9324 L 101.84841628959 140.67159999999998 L 126.50904977376 139.74 L 151.16968325792 143.6856 L 175.83031674208 137.3288 L 200.49095022624 135.356 L 225.15158371041 130.972 L 249.81221719457 129.8212 L 274.47285067873 126.9716 L 299.13348416289 120.286 L 323.79411764706 114.69639999999998" class="highcharts-graph" data-z-index="1" stroke-linejoin="round" stroke-linecap="round"></path></g><g data-z-index="0.1" class="highcharts-markers highcharts-series-15 highcharts-area-series " transform="translate(27,72) scale(1 1)" clip-path="none"></g><g data-z-index="0.1" class="highcharts-series highcharts-series-16 highcharts-area-series " transform="translate(27,72) scale(1 1)" clip-path="url(#highcharts-reuqime-7)"><path fill="rgb(60,60,60)" d="M 3.2058823529438 119.9024 L 27.866515837106 115.51839999999999 L 52.527149321269 113.54560000000001 L 77.187782805431 109.326 L 101.84841628959 102.6952 L 126.50904977376 97.48919999999998 L 151.16968325792 99.84559999999999 L 175.83031674208 91.73519999999999 L 200.49095022624 86.31 L 225.15158371041 77.4872 L 249.81221719457 75.898 L 274.47285067873 75.9528 L 299.13348416289 68.8288 L 323.79411764706 59.5676 L 323.79411764706 114.69639999999998 L 299.13348416289 120.286 L 274.47285067873 126.9716 L 249.81221719457 129.8212 L 225.15158371041 130.972 L 200.49095022624 135.356 L 175.83031674208 137.3288 L 151.16968325792 143.6856 L 126.50904977376 139.74 L 101.84841628959 140.67159999999998 L 77.187782805431 145.9324 L 52.527149321269 150.3712 L 27.866515837106 151.4124 L 3.2058823529438 156.18" class="highcharts-area" data-z-index="0"></path><path fill="none" d="M 3.2058823529438 119.9024 L 27.866515837106 115.51839999999999 L 52.527149321269 113.54560000000001 L 77.187782805431 109.326 L 101.84841628959 102.6952 L 126.50904977376 97.48919999999998 L 151.16968325792 99.84559999999999 L 175.83031674208 91.73519999999999 L 200.49095022624 86.31 L 225.15158371041 77.4872 L 249.81221719457 75.898 L 274.47285067873 75.9528 L 299.13348416289 68.8288 L 323.79411764706 59.5676" class="highcharts-graph" data-z-index="1" stroke-linejoin="round" stroke-linecap="round"></path></g><g data-z-index="0.1" class="highcharts-markers highcharts-series-16 highcharts-area-series " transform="translate(27,72) scale(1 1)" clip-path="none"></g></g><text x="10" text-anchor="start" class="highcharts-title" data-z-index="4" style="color:#000000;font-size:14px;font-weight:bold;fill:#000000;" y="21"><tspan>Ausländische Bevölkerung nach Staatsangehörigkeit und</tspan><tspan dy="17" x="10">Wohnviertel</tspan></text><text x="10" text-anchor="start" class="highcharts-subtitle" data-z-index="4" style="color:#000000;font-size:12px;font-weight:normal;font-family:Arial;fill:#000000;" y="57"><tspan>Am Ring</tspan></text><g class="highcharts-legend" data-z-index="7" transform="translate(359,27)"><rect fill="none" class="highcharts-legend-box" rx="0" ry="0" x="0" y="0" width="116" height="337" visibility="visible"></rect><g data-z-index="1"><g><g class="highcharts-legend-item highcharts-area-series highcharts-color-undefined highcharts-series-16" data-z-index="1" transform="translate(5,0)"><text x="21" style="color:#333333;font-size:12px;font-weight:normal;cursor:pointer;fill:#333333;" text-anchor="start" data-z-index="2" y="15"><tspan>Übrige</tspan></text><rect x="2" y="4" width="12" height="12" fill="rgb(60, 60, 60)" class="highcharts-point" data-z-index="3"></rect></g><g class="highcharts-legend-item highcharts-area-series highcharts-color-undefined highcharts-series-15" data-z-index="1" transform="translate(5,16)"><text x="21" y="15" style="color:#333333;font-size:12px;font-weight:normal;cursor:pointer;fill:#333333;" text-anchor="start" data-z-index="2"><tspan>Sri Lanka</tspan></text><rect x="2" y="4" width="12" height="12" fill="rgb(255, 232, 70)" class="highcharts-point" data-z-index="3"></rect></g><g class="highcharts-legend-item highcharts-area-series highcharts-color-undefined highcharts-series-14" data-z-index="1" transform="translate(5,32)"><text x="21" y="15" style="color:#333333;font-size:12px;font-weight:normal;cursor:pointer;fill:#333333;" text-anchor="start" data-z-index="2"><tspan>Österreich</tspan></text><rect x="2" y="4" width="12" height="12" fill="rgb(131, 82, 46)" class="highcharts-point" data-z-index="3"></rect></g><g class="highcharts-legend-item highcharts-area-series highcharts-color-undefined highcharts-series-13" data-z-index="1" transform="translate(5,48)"><text x="21" y="15" style="color:#333333;font-size:12px;font-weight:normal;cursor:pointer;fill:#333333;" text-anchor="start" data-z-index="2"><tspan>Vereinigte</tspan><tspan x="21" dy="15">Staaten</tspan></text><rect x="2" y="4" width="12" height="12" fill="rgb(8, 161, 217)" class="highcharts-point" data-z-index="3"></rect></g><g class="highcharts-legend-item highcharts-area-series highcharts-color-undefined highcharts-series-12" data-z-index="1" transform="translate(5,79)"><text x="21" y="15" style="color:#333333;font-size:12px;font-weight:normal;cursor:pointer;fill:#333333;" text-anchor="start" data-z-index="2"><tspan>Indien</tspan></text><rect x="2" y="4" width="12" height="12" fill="rgb(180, 117, 171)" class="highcharts-point" data-z-index="3"></rect></g><g class="highcharts-legend-item highcharts-area-series highcharts-color-undefined highcharts-series-11" data-z-index="1" transform="translate(5,95)"><text x="21" y="15" style="color:#333333;font-size:12px;font-weight:normal;cursor:pointer;fill:#333333;" text-anchor="start" data-z-index="2"><tspan>Frankreich</tspan></text><rect x="2" y="4" width="12" height="12" fill="rgb(115, 186, 124)" class="highcharts-point" data-z-index="3"></rect></g><g class="highcharts-legend-item highcharts-area-series highcharts-color-undefined highcharts-series-10" data-z-index="1" transform="translate(5,111)"><text x="21" y="15" style="color:#333333;font-size:12px;font-weight:normal;cursor:pointer;fill:#333333;" text-anchor="start" data-z-index="2"><tspan>Vereinigtes</tspan><tspan x="21" dy="15">Königreich</tspan></text><rect x="2" y="4" width="12" height="12" fill="rgb(255, 128, 40)" class="highcharts-point" data-z-index="3"></rect></g><g class="highcharts-legend-item highcharts-area-series highcharts-color-undefined highcharts-series-9" data-z-index="1" transform="translate(5,142)"><text x="21" y="15" style="color:#333333;font-size:12px;font-weight:normal;cursor:pointer;fill:#333333;" text-anchor="start" data-z-index="2"><tspan>Kroatien</tspan></text><rect x="2" y="4" width="12" height="12" fill="rgb(176, 0, 0)" class="highcharts-point" data-z-index="3"></rect></g><g class="highcharts-legend-item highcharts-area-series highcharts-color-undefined highcharts-series-8" data-z-index="1" transform="translate(5,158)"><text x="21" y="15" style="color:#333333;font-size:12px;font-weight:normal;cursor:pointer;fill:#333333;" text-anchor="start" data-z-index="2"><tspan>Slowenien</tspan></text><rect x="2" y="4" width="12" height="12" fill="rgb(200, 200, 200)" class="highcharts-point" data-z-index="3"></rect></g><g class="highcharts-legend-item highcharts-area-series highcharts-color-undefined highcharts-series-7" data-z-index="1" transform="translate(5,174)"><text x="21" y="15" style="color:#333333;font-size:12px;font-weight:normal;cursor:pointer;fill:#333333;" text-anchor="start" data-z-index="2"><tspan>Bosnien und</tspan><tspan x="21" dy="15">Herzegowina</tspan></text><rect x="2" y="4" width="12" height="12" fill="rgb(60, 60, 60)" class="highcharts-point" data-z-index="3"></rect></g><g class="highcharts-legend-item highcharts-area-series highcharts-color-undefined highcharts-series-6" data-z-index="1" transform="translate(5,205)"><text x="21" y="15" style="color:#333333;font-size:12px;font-weight:normal;cursor:pointer;fill:#333333;" text-anchor="start" data-z-index="2"><tspan>Serbien, Monte-</tspan><tspan x="21" dy="15">negro, Kosovo</tspan></text><rect x="2" y="4" width="12" height="12" fill="rgb(255, 232, 70)" class="highcharts-point" data-z-index="3"></rect></g><g class="highcharts-legend-item highcharts-area-series highcharts-color-undefined highcharts-series-5" data-z-index="1" transform="translate(5,236)"><text x="21" y="15" style="color:#333333;font-size:12px;font-weight:normal;cursor:pointer;fill:#333333;" text-anchor="start" data-z-index="2"><tspan>Mazedonien</tspan></text><rect x="2" y="4" width="12" height="12" fill="rgb(131, 82, 46)" class="highcharts-point" data-z-index="3"></rect></g><g class="highcharts-legend-item highcharts-area-series highcharts-color-undefined highcharts-series-4" data-z-index="1" transform="translate(5,252)"><text x="21" y="15" style="color:#333333;font-size:12px;font-weight:normal;cursor:pointer;fill:#333333;" text-anchor="start" data-z-index="2"><tspan>Portugal</tspan></text><rect x="2" y="4" width="12" height="12" fill="rgb(8, 161, 217)" class="highcharts-point" data-z-index="3"></rect></g><g class="highcharts-legend-item highcharts-area-series highcharts-color-undefined highcharts-series-3" data-z-index="1" transform="translate(5,268)"><text x="21" y="15" style="color:#333333;font-size:12px;font-weight:normal;cursor:pointer;fill:#333333;" text-anchor="start" data-z-index="2"><tspan>Spanien</tspan></text><rect x="2" y="4" width="12" height="12" fill="rgb(180, 117, 171)" class="highcharts-point" data-z-index="3"></rect></g><g class="highcharts-legend-item highcharts-area-series highcharts-color-undefined highcharts-series-2" data-z-index="1" transform="translate(5,284)"><text x="21" y="15" style="color:#333333;font-size:12px;font-weight:normal;cursor:pointer;fill:#333333;" text-anchor="start" data-z-index="2"><tspan>Türkei</tspan></text><rect x="2" y="4" width="12" height="12" fill="rgb(115, 186, 124)" class="highcharts-point" data-z-index="3"></rect></g><g class="highcharts-legend-item highcharts-area-series highcharts-color-undefined highcharts-series-1" data-z-index="1" transform="translate(5,300)"><text x="21" y="15" style="color:#333333;font-size:12px;font-weight:normal;cursor:pointer;fill:#333333;" text-anchor="start" data-z-index="2"><tspan>Italien</tspan></text><rect x="2" y="4" width="12" height="12" fill="rgb(255, 128, 40)" class="highcharts-point" data-z-index="3"></rect></g><g class="highcharts-legend-item highcharts-area-series highcharts-color-undefined highcharts-series-0" data-z-index="1" transform="translate(5,316)"><text x="21" y="15" style="color:#333333;font-size:12px;font-weight:normal;cursor:pointer;fill:#333333;" text-anchor="start" data-z-index="2"><tspan>Deutschland</tspan></text><rect x="2" y="4" width="12" height="12" fill="rgb(176, 0, 0)" class="highcharts-point" data-z-index="3"></rect></g></g></g></g><g class="highcharts-axis-labels highcharts-xaxis-labels " data-z-index="7"><text x="32.79860721729467" style="color:#000000;cursor:default;font-size:11px;fill:#000000;" text-anchor="end" transform="translate(0,0) rotate(-45 32.79860721729467 362)" y="362" opacity="1">2004</text><text x="57.45924070145667" style="color:#000000;cursor:default;font-size:11px;fill:#000000;" text-anchor="end" transform="translate(0,0) rotate(-45 57.45924070145667 362)" y="362" opacity="1">2005</text><text x="82.11987418561966" style="color:#000000;cursor:default;font-size:11px;fill:#000000;" text-anchor="end" transform="translate(0,0) rotate(-45 82.11987418561966 362)" y="362" opacity="1">2006</text><text x="106.78050766978068" style="color:#000000;cursor:default;font-size:11px;fill:#000000;" text-anchor="end" transform="translate(0,0) rotate(-45 106.78050766978068 362)" y="362" opacity="1">2007</text><text x="131.4411411539407" style="color:#000000;cursor:default;font-size:11px;fill:#000000;" text-anchor="end" transform="translate(0,0) rotate(-45 131.4411411539407 362)" y="362" opacity="1">2008</text><text x="156.1017746381107" style="color:#000000;cursor:default;font-size:11px;fill:#000000;" text-anchor="end" transform="translate(0,0) rotate(-45 156.1017746381107 362)" y="362" opacity="1">2009</text><text x="180.7624081222707" style="color:#000000;cursor:default;font-size:11px;fill:#000000;" text-anchor="end" transform="translate(0,0) rotate(-45 180.7624081222707 362)" y="362" opacity="1">2010</text><text x="205.42304160643067" style="color:#000000;cursor:default;font-size:11px;fill:#000000;" text-anchor="end" transform="translate(0,0) rotate(-45 205.42304160643067 362)" y="362" opacity="1">2011</text><text x="230.08367509059067" style="color:#000000;cursor:default;font-size:11px;fill:#000000;" text-anchor="end" transform="translate(0,0) rotate(-45 230.08367509059067 362)" y="362" opacity="1">2012</text><text x="254.74430857476068" style="color:#000000;cursor:default;font-size:11px;fill:#000000;" text-anchor="end" transform="translate(0,0) rotate(-45 254.74430857476068 362)" y="362" opacity="1">2013</text><text x="279.40494205892065" style="color:#000000;cursor:default;font-size:11px;fill:#000000;" text-anchor="end" transform="translate(0,0) rotate(-45 279.40494205892065 362)" y="362" opacity="1">2014</text><text x="304.0655755430807" style="color:#000000;cursor:default;font-size:11px;fill:#000000;" text-anchor="end" transform="translate(0,0) rotate(-45 304.0655755430807 362)" y="362" opacity="1">2015</text><text x="328.72620902724066" style="color:#000000;cursor:default;font-size:11px;fill:#000000;" text-anchor="end" transform="translate(0,0) rotate(-45 328.72620902724066 362)" y="362" opacity="1">2016</text><text x="353.38684251141063" style="color:#000000;cursor:default;font-size:11px;fill:#000000;" text-anchor="end" transform="translate(0,0) rotate(-45 353.38684251141063 362)" y="362" opacity="1">2017</text></g><g class="highcharts-axis-labels highcharts-yaxis-labels " data-z-index="7"><text x="22" style="color:#000000;cursor:default;font-size:11px;fill:#000000;" text-anchor="end" transform="translate(0,0)" y="351" opacity="1">0</text><text x="22" style="color:#000000;cursor:default;font-size:11px;fill:#000000;" text-anchor="end" transform="translate(0,0)" y="296" opacity="1">1k</text><text x="22" style="color:#000000;cursor:default;font-size:11px;fill:#000000;" text-anchor="end" transform="translate(0,0)" y="241" opacity="1">2k</text><text x="22" style="color:#000000;cursor:default;font-size:11px;fill:#000000;" text-anchor="end" transform="translate(0,0)" y="186" opacity="1">3k</text><text x="22" style="color:#000000;cursor:default;font-size:11px;fill:#000000;" text-anchor="end" transform="translate(0,0)" y="131" opacity="1">4k</text><text x="22" style="color:#000000;cursor:default;font-size:11px;fill:#000000;" text-anchor="end" transform="translate(0,0)" y="77" opacity="1">5k</text></g><text x="10" class="highcharts-credits" text-anchor="start" data-z-index="8" style="cursor:default;color:#000000;font-size:10px;fill:#000000;" y="410"><tspan>Quelle:</tspan></text></svg>