<?xml version="1.0" standalone="no"?><!DOCTYPE svg PUBLIC "-//W3C//DTD SVG 1.1//EN" "http://www.w3.org/Graphics/SVG/1.1/DTD/svg11.dtd"><svg xmlns:xlink="http://www.w3.org/1999/xlink" version="1.1" class="highcharts-root" style="font-family:Arial;font-size:12px;" xmlns="http://www.w3.org/2000/svg" viewBox="0 0 485 415"><desc>Created with Highstock 6.1.1</desc><defs><clipPath id="highcharts-835dg1h-6"><rect x="0" y="0" width="312" height="274" fill="none"></rect></clipPath><clipPath id="highcharts-835dg1h-7"><rect x="0" y="0" width="312" height="274" fill="none"></rect></clipPath></defs><rect fill="#fbfbfb" class="highcharts-background" x="0" y="0" width="485" height="415" rx="0" ry="0"></rect><rect fill="none" class="highcharts-plot-background" x="42" y="72" width="312" height="274"></rect><g class="highcharts-pane-group" data-z-index="0"></g><g class="highcharts-grid highcharts-xaxis-grid " data-z-index="1"><path fill="none" data-z-index="1" class="highcharts-grid-line" d="M 44.5 72 L 44.5 346" opacity="1"></path><path fill="none" data-z-index="1" class="highcharts-grid-line" d="M 68.5 72 L 68.5 346" opacity="1"></path><path fill="none" data-z-index="1" class="highcharts-grid-line" d="M 91.5 72 L 91.5 346" opacity="1"></path><path fill="none" data-z-index="1" class="highcharts-grid-line" d="M 115.5 72 L 115.5 346" opacity="1"></path><path fill="none" data-z-index="1" class="highcharts-grid-line" d="M 138.5 72 L 138.5 346" opacity="1"></path><path fill="none" data-z-index="1" class="highcharts-grid-line" d="M 162.5 72 L 162.5 346" opacity="1"></path><path fill="none" data-z-index="1" class="highcharts-grid-line" d="M 185.5 72 L 185.5 346" opacity="1"></path><path fill="none" data-z-index="1" class="highcharts-grid-line" d="M 209.5 72 L 209.5 346" opacity="1"></path><path fill="none" data-z-index="1" class="highcharts-grid-line" d="M 232.5 72 L 232.5 346" opacity="1"></path><path fill="none" data-z-index="1" class="highcharts-grid-line" d="M 256.5 72 L 256.5 346" opacity="1"></path><path fill="none" data-z-index="1" class="highcharts-grid-line" d="M 279.5 72 L 279.5 346" opacity="1"></path><path fill="none" data-z-index="1" class="highcharts-grid-line" d="M 303.5 72 L 303.5 346" opacity="1"></path><path fill="none" data-z-index="1" class="highcharts-grid-line" d="M 326.5 72 L 326.5 346" opacity="1"></path><path fill="none" data-z-index="1" class="highcharts-grid-line" d="M 350.5 72 L 350.5 346" opacity="1"></path></g><g class="highcharts-grid highcharts-yaxis-grid " data-z-index="1"><path fill="none" stroke="#B9CFD7" stroke-width="0.5" data-z-index="1" class="highcharts-grid-line" d="M 42 346.25 L 354 346.25" opacity="1"></path><path fill="none" stroke="#B9CFD7" stroke-width="0.5" data-z-index="1" class="highcharts-grid-line" d="M 42 291.25 L 354 291.25" opacity="1"></path><path fill="none" stroke="#B9CFD7" stroke-width="0.5" data-z-index="1" class="highcharts-grid-line" d="M 42 236.25 L 354 236.25" opacity="1"></path><path fill="none" stroke="#B9CFD7" stroke-width="0.5" data-z-index="1" class="highcharts-grid-line" d="M 42 182.25 L 354 182.25" opacity="1"></path><path fill="none" stroke="#B9CFD7" stroke-width="0.5" data-z-index="1" class="highcharts-grid-line" d="M 42 127.25 L 354 127.25" opacity="1"></path><path fill="none" stroke="#B9CFD7" stroke-width="0.5" data-z-index="1" class="highcharts-grid-line" d="M 42 71.75 L 354 71.75" opacity="1"></path></g><rect fill="none" class="highcharts-plot-border" data-z-index="1" x="42" y="72" width="312" height="274"></rect><g class="highcharts-axis highcharts-xaxis " data-z-index="2"><path fill="none" class="highcharts-axis-line" stroke="#B9CFD7" stroke-width="0.5" data-z-index="7" d="M 42 346.25 L 354 346.25"></path></g><g class="highcharts-axis highcharts-yaxis " data-z-index="2"><path fill="none" class="highcharts-axis-line" data-z-index="7" d="M 42 72 L 42 346"></path></g><g class="highcharts-series-group" data-z-index="3"><g data-z-index="0.1" class="highcharts-series highcharts-series-0 highcharts-area-series " transform="translate(42,72) scale(1 1)" clip-path="url(#highcharts-835dg1h-7)"><path fill="rgb(176,0,0)" d="M 3.0588235294143 230.4888 L 26.58823529412 224.68 L 50.117647058825 221.2824 L 73.647058823531 215.0352 L 97.176470588236 211.9664 L 120.70588235294 208.24 L 144.23529411765 206.9248 L 167.76470588235 205.7192 L 191.29411764706 204.0752 L 214.82352941176 200.34879999999998 L 238.35294117647 202.4312 L 261.88235294117 199.03359999999998 L 285.41176470588 193.22480000000002 L 308.94117647059 196.732 L 308.94117647059 274 L 285.41176470588 274 L 261.88235294117 274 L 238.35294117647 274 L 214.82352941176 274 L 191.29411764706 274 L 167.76470588235 274 L 144.23529411765 274 L 120.70588235294 274 L 97.176470588236 274 L 73.647058823531 274 L 50.117647058825 274 L 26.58823529412 274 L 3.0588235294143 274" class="highcharts-area" data-z-index="0"></path><path fill="none" d="M 3.0588235294143 230.4888 L 26.58823529412 224.68 L 50.117647058825 221.2824 L 73.647058823531 215.0352 L 97.176470588236 211.9664 L 120.70588235294 208.24 L 144.23529411765 206.9248 L 167.76470588235 205.7192 L 191.29411764706 204.0752 L 214.82352941176 200.34879999999998 L 238.35294117647 202.4312 L 261.88235294117 199.03359999999998 L 285.41176470588 193.22480000000002 L 308.94117647059 196.732" class="highcharts-graph" data-z-index="1" stroke-linejoin="round" stroke-linecap="round"></path></g><g data-z-index="0.1" class="highcharts-markers highcharts-series-0 highcharts-area-series " transform="translate(42,72) scale(1 1)" clip-path="none"></g><g data-z-index="0.1" class="highcharts-series highcharts-series-1 highcharts-area-series " transform="translate(42,72) scale(1 1)" clip-path="url(#highcharts-835dg1h-7)"><path fill="rgb(255,128,40)" d="M 3.0588235294143 211.1992 L 26.58823529412 205.3904 L 50.117647058825 203.1984 L 73.647058823531 195.9648 L 97.176470588236 193.00560000000002 L 120.70588235294 187.5256 L 144.23529411765 184.2376 L 167.76470588235 181.1688 L 191.29411764706 178.2096 L 214.82352941176 173.716 L 238.35294117647 177.1136 L 261.88235294117 174.1544 L 285.41176470588 166.81119999999999 L 308.94117647059 168.4552 L 308.94117647059 196.732 L 285.41176470588 193.22480000000002 L 261.88235294117 199.03359999999998 L 238.35294117647 202.4312 L 214.82352941176 200.34879999999998 L 191.29411764706 204.0752 L 167.76470588235 205.7192 L 144.23529411765 206.9248 L 120.70588235294 208.24 L 97.176470588236 211.9664 L 73.647058823531 215.0352 L 50.117647058825 221.2824 L 26.58823529412 224.68 L 3.0588235294143 230.4888" class="highcharts-area" data-z-index="0"></path><path fill="none" d="M 3.0588235294143 211.1992 L 26.58823529412 205.3904 L 50.117647058825 203.1984 L 73.647058823531 195.9648 L 97.176470588236 193.00560000000002 L 120.70588235294 187.5256 L 144.23529411765 184.2376 L 167.76470588235 181.1688 L 191.29411764706 178.2096 L 214.82352941176 173.716 L 238.35294117647 177.1136 L 261.88235294117 174.1544 L 285.41176470588 166.81119999999999 L 308.94117647059 168.4552" class="highcharts-graph" data-z-index="1" stroke-linejoin="round" stroke-linecap="round"></path></g><g data-z-index="0.1" class="highcharts-markers highcharts-series-1 highcharts-area-series " transform="translate(42,72) scale(1 1)" clip-path="none"></g><g data-z-index="0.1" class="highcharts-series highcharts-series-2 highcharts-area-series " transform="translate(42,72) scale(1 1)" clip-path="url(#highcharts-835dg1h-7)"><path fill="rgb(115,186,124)" d="M 3.0588235294143 199.69119999999998 L 26.58823529412 193.88240000000002 L 50.117647058825 192.5672 L 73.647058823531 187.0872 L 97.176470588236 184.7856 L 120.70588235294 179.0864 L 144.23529411765 175.4696 L 167.76470588235 172.4008 L 191.29411764706 168.784 L 214.82352941176 165.16719999999998 L 238.35294117647 168.5648 L 261.88235294117 166.04399999999998 L 285.41176470588 158.70080000000002 L 308.94117647059 159.6872 L 308.94117647059 168.4552 L 285.41176470588 166.81119999999999 L 261.88235294117 174.1544 L 238.35294117647 177.1136 L 214.82352941176 173.716 L 191.29411764706 178.2096 L 167.76470588235 181.1688 L 144.23529411765 184.2376 L 120.70588235294 187.5256 L 97.176470588236 193.00560000000002 L 73.647058823531 195.9648 L 50.117647058825 203.1984 L 26.58823529412 205.3904 L 3.0588235294143 211.1992" class="highcharts-area" data-z-index="0"></path><path fill="none" d="M 3.0588235294143 199.69119999999998 L 26.58823529412 193.88240000000002 L 50.117647058825 192.5672 L 73.647058823531 187.0872 L 97.176470588236 184.7856 L 120.70588235294 179.0864 L 144.23529411765 175.4696 L 167.76470588235 172.4008 L 191.29411764706 168.784 L 214.82352941176 165.16719999999998 L 238.35294117647 168.5648 L 261.88235294117 166.04399999999998 L 285.41176470588 158.70080000000002 L 308.94117647059 159.6872" class="highcharts-graph" data-z-index="1" stroke-linejoin="round" stroke-linecap="round"></path></g><g data-z-index="0.1" class="highcharts-markers highcharts-series-2 highcharts-area-series " transform="translate(42,72) scale(1 1)" clip-path="none"></g><g data-z-index="0.1" class="highcharts-series highcharts-series-3 highcharts-area-series " transform="translate(42,72) scale(1 1)" clip-path="url(#highcharts-835dg1h-7)"><path fill="rgb(180,117,171)" d="M 3.0588235294143 195.3072 L 26.58823529412 189.4984 L 50.117647058825 187.8544 L 73.647058823531 182.81279999999998 L 97.176470588236 180.7304 L 120.70588235294 174.812 L 144.23529411765 171.1952 L 167.76470588235 167.14 L 191.29411764706 163.852 L 214.82352941176 158.59120000000001 L 238.35294117647 160.3448 L 261.88235294117 158.2624 L 285.41176470588 149.9328 L 308.94117647059 150.7 L 308.94117647059 159.6872 L 285.41176470588 158.70080000000002 L 261.88235294117 166.04399999999998 L 238.35294117647 168.5648 L 214.82352941176 165.16719999999998 L 191.29411764706 168.784 L 167.76470588235 172.4008 L 144.23529411765 175.4696 L 120.70588235294 179.0864 L 97.176470588236 184.7856 L 73.647058823531 187.0872 L 50.117647058825 192.5672 L 26.58823529412 193.88240000000002 L 3.0588235294143 199.69119999999998" class="highcharts-area" data-z-index="0"></path><path fill="none" d="M 3.0588235294143 195.3072 L 26.58823529412 189.4984 L 50.117647058825 187.8544 L 73.647058823531 182.81279999999998 L 97.176470588236 180.7304 L 120.70588235294 174.812 L 144.23529411765 171.1952 L 167.76470588235 167.14 L 191.29411764706 163.852 L 214.82352941176 158.59120000000001 L 238.35294117647 160.3448 L 261.88235294117 158.2624 L 285.41176470588 149.9328 L 308.94117647059 150.7" class="highcharts-graph" data-z-index="1" stroke-linejoin="round" stroke-linecap="round"></path></g><g data-z-index="0.1" class="highcharts-markers highcharts-series-3 highcharts-area-series " transform="translate(42,72) scale(1 1)" clip-path="none"></g><g data-z-index="0.1" class="highcharts-series highcharts-series-4 highcharts-area-series " transform="translate(42,72) scale(1 1)" clip-path="url(#highcharts-835dg1h-7)"><path fill="rgb(8,161,217)" d="M 3.0588235294143 192.67680000000001 L 26.58823529412 186.9776 L 50.117647058825 184.8952 L 73.647058823531 179.5248 L 97.176470588236 176.78480000000002 L 120.70588235294 169.0032 L 144.23529411765 165.71519999999998 L 167.76470588235 160.564 L 191.29411764706 156.5088 L 214.82352941176 152.5632 L 238.35294117647 153.7688 L 261.88235294117 152.6728 L 285.41176470588 144.672 L 308.94117647059 144.5624 L 308.94117647059 150.7 L 285.41176470588 149.9328 L 261.88235294117 158.2624 L 238.35294117647 160.3448 L 214.82352941176 158.59120000000001 L 191.29411764706 163.852 L 167.76470588235 167.14 L 144.23529411765 171.1952 L 120.70588235294 174.812 L 97.176470588236 180.7304 L 73.647058823531 182.81279999999998 L 50.117647058825 187.8544 L 26.58823529412 189.4984 L 3.0588235294143 195.3072" class="highcharts-area" data-z-index="0"></path><path fill="none" d="M 3.0588235294143 192.67680000000001 L 26.58823529412 186.9776 L 50.117647058825 184.8952 L 73.647058823531 179.5248 L 97.176470588236 176.78480000000002 L 120.70588235294 169.0032 L 144.23529411765 165.71519999999998 L 167.76470588235 160.564 L 191.29411764706 156.5088 L 214.82352941176 152.5632 L 238.35294117647 153.7688 L 261.88235294117 152.6728 L 285.41176470588 144.672 L 308.94117647059 144.5624" class="highcharts-graph" data-z-index="1" stroke-linejoin="round" stroke-linecap="round"></path></g><g data-z-index="0.1" class="highcharts-markers highcharts-series-4 highcharts-area-series " transform="translate(42,72) scale(1 1)" clip-path="none"></g><g data-z-index="0.1" class="highcharts-series highcharts-series-5 highcharts-area-series " transform="translate(42,72) scale(1 1)" clip-path="url(#highcharts-835dg1h-7)"><path fill="rgb(131,82,46)" d="M 3.0588235294143 191.6904 L 26.58823529412 185.8816 L 50.117647058825 183.79919999999998 L 73.647058823531 178.4288 L 97.176470588236 175.4696 L 120.70588235294 168.1264 L 144.23529411765 164.72879999999998 L 167.76470588235 159.35840000000002 L 191.29411764706 154.7552 L 214.82352941176 151.248 L 238.35294117647 152.344 L 261.88235294117 151.4672 L 285.41176470588 143.028 L 308.94117647059 142.9184 L 308.94117647059 144.5624 L 285.41176470588 144.672 L 261.88235294117 152.6728 L 238.35294117647 153.7688 L 214.82352941176 152.5632 L 191.29411764706 156.5088 L 167.76470588235 160.564 L 144.23529411765 165.71519999999998 L 120.70588235294 169.0032 L 97.176470588236 176.78480000000002 L 73.647058823531 179.5248 L 50.117647058825 184.8952 L 26.58823529412 186.9776 L 3.0588235294143 192.67680000000001" class="highcharts-area" data-z-index="0"></path><path fill="none" d="M 3.0588235294143 191.6904 L 26.58823529412 185.8816 L 50.117647058825 183.79919999999998 L 73.647058823531 178.4288 L 97.176470588236 175.4696 L 120.70588235294 168.1264 L 144.23529411765 164.72879999999998 L 167.76470588235 159.35840000000002 L 191.29411764706 154.7552 L 214.82352941176 151.248 L 238.35294117647 152.344 L 261.88235294117 151.4672 L 285.41176470588 143.028 L 308.94117647059 142.9184" class="highcharts-graph" data-z-index="1" stroke-linejoin="round" stroke-linecap="round"></path></g><g data-z-index="0.1" class="highcharts-markers highcharts-series-5 highcharts-area-series " transform="translate(42,72) scale(1 1)" clip-path="none"></g><g data-z-index="0.1" class="highcharts-series highcharts-series-6 highcharts-area-series " transform="translate(42,72) scale(1 1)" clip-path="url(#highcharts-835dg1h-7)"><path fill="rgb(255,232,70)" d="M 3.0588235294143 188.2928 L 26.58823529412 182.92239999999998 L 50.117647058825 180.5112 L 73.647058823531 175.2504 L 97.176470588236 172.7296 L 120.70588235294 165.16719999999998 L 144.23529411765 161.112 L 167.76470588235 155.4128 L 191.29411764706 150.5904 L 214.82352941176 145.768 L 238.35294117647 147.19279999999998 L 261.88235294117 147.30239999999998 L 285.41176470588 139.192 L 308.94117647059 139.3016 L 308.94117647059 142.9184 L 285.41176470588 143.028 L 261.88235294117 151.4672 L 238.35294117647 152.344 L 214.82352941176 151.248 L 191.29411764706 154.7552 L 167.76470588235 159.35840000000002 L 144.23529411765 164.72879999999998 L 120.70588235294 168.1264 L 97.176470588236 175.4696 L 73.647058823531 178.4288 L 50.117647058825 183.79919999999998 L 26.58823529412 185.8816 L 3.0588235294143 191.6904" class="highcharts-area" data-z-index="0"></path><path fill="none" d="M 3.0588235294143 188.2928 L 26.58823529412 182.92239999999998 L 50.117647058825 180.5112 L 73.647058823531 175.2504 L 97.176470588236 172.7296 L 120.70588235294 165.16719999999998 L 144.23529411765 161.112 L 167.76470588235 155.4128 L 191.29411764706 150.5904 L 214.82352941176 145.768 L 238.35294117647 147.19279999999998 L 261.88235294117 147.30239999999998 L 285.41176470588 139.192 L 308.94117647059 139.3016" class="highcharts-graph" data-z-index="1" stroke-linejoin="round" stroke-linecap="round"></path></g><g data-z-index="0.1" class="highcharts-markers highcharts-series-6 highcharts-area-series " transform="translate(42,72) scale(1 1)" clip-path="none"></g><g data-z-index="0.1" class="highcharts-series highcharts-series-7 highcharts-area-series " transform="translate(42,72) scale(1 1)" clip-path="url(#highcharts-835dg1h-7)"><path fill="rgb(60,60,60)" d="M 3.0588235294143 187.3064 L 26.58823529412 182.15519999999998 L 50.117647058825 179.8536 L 73.647058823531 174.9216 L 97.176470588236 172.5104 L 120.70588235294 164.94799999999998 L 144.23529411765 160.8928 L 167.76470588235 155.084 L 191.29411764706 150.2616 L 214.82352941176 145.4392 L 238.35294117647 146.86399999999998 L 261.88235294117 146.86399999999998 L 285.41176470588 138.9728 L 308.94117647059 139.0824 L 308.94117647059 139.3016 L 285.41176470588 139.192 L 261.88235294117 147.30239999999998 L 238.35294117647 147.19279999999998 L 214.82352941176 145.768 L 191.29411764706 150.5904 L 167.76470588235 155.4128 L 144.23529411765 161.112 L 120.70588235294 165.16719999999998 L 97.176470588236 172.7296 L 73.647058823531 175.2504 L 50.117647058825 180.5112 L 26.58823529412 182.92239999999998 L 3.0588235294143 188.2928" class="highcharts-area" data-z-index="0"></path><path fill="none" d="M 3.0588235294143 187.3064 L 26.58823529412 182.15519999999998 L 50.117647058825 179.8536 L 73.647058823531 174.9216 L 97.176470588236 172.5104 L 120.70588235294 164.94799999999998 L 144.23529411765 160.8928 L 167.76470588235 155.084 L 191.29411764706 150.2616 L 214.82352941176 145.4392 L 238.35294117647 146.86399999999998 L 261.88235294117 146.86399999999998 L 285.41176470588 138.9728 L 308.94117647059 139.0824" class="highcharts-graph" data-z-index="1" stroke-linejoin="round" stroke-linecap="round"></path></g><g data-z-index="0.1" class="highcharts-markers highcharts-series-7 highcharts-area-series " transform="translate(42,72) scale(1 1)" clip-path="none"></g><g data-z-index="0.1" class="highcharts-series highcharts-series-8 highcharts-area-series " transform="translate(42,72) scale(1 1)" clip-path="url(#highcharts-835dg1h-7)"><path fill="rgb(200,200,200)" d="M 3.0588235294143 186.868 L 26.58823529412 181.60719999999998 L 50.117647058825 179.4152 L 73.647058823531 174.4832 L 97.176470588236 172.072 L 120.70588235294 164.39999999999998 L 144.23529411765 160.2352 L 167.76470588235 154.536 L 191.29411764706 150.0424 L 214.82352941176 145.1104 L 238.35294117647 146.5352 L 261.88235294117 146.6448 L 285.41176470588 138.7536 L 308.94117647059 138.7536 L 308.94117647059 139.0824 L 285.41176470588 138.9728 L 261.88235294117 146.86399999999998 L 238.35294117647 146.86399999999998 L 214.82352941176 145.4392 L 191.29411764706 150.2616 L 167.76470588235 155.084 L 144.23529411765 160.8928 L 120.70588235294 164.94799999999998 L 97.176470588236 172.5104 L 73.647058823531 174.9216 L 50.117647058825 179.8536 L 26.58823529412 182.15519999999998 L 3.0588235294143 187.3064" class="highcharts-area" data-z-index="0"></path><path fill="none" d="M 3.0588235294143 186.868 L 26.58823529412 181.60719999999998 L 50.117647058825 179.4152 L 73.647058823531 174.4832 L 97.176470588236 172.072 L 120.70588235294 164.39999999999998 L 144.23529411765 160.2352 L 167.76470588235 154.536 L 191.29411764706 150.0424 L 214.82352941176 145.1104 L 238.35294117647 146.5352 L 261.88235294117 146.6448 L 285.41176470588 138.7536 L 308.94117647059 138.7536" class="highcharts-graph" data-z-index="1" stroke-linejoin="round" stroke-linecap="round"></path></g><g data-z-index="0.1" class="highcharts-markers highcharts-series-8 highcharts-area-series " transform="translate(42,72) scale(1 1)" clip-path="none"></g><g data-z-index="0.1" class="highcharts-series highcharts-series-9 highcharts-area-series " transform="translate(42,72) scale(1 1)" clip-path="url(#highcharts-835dg1h-7)"><path fill="rgb(176,0,0)" d="M 3.0588235294143 186.1008 L 26.58823529412 180.6208 L 50.117647058825 178.1 L 73.647058823531 172.9488 L 97.176470588236 169.7704 L 120.70588235294 161.9888 L 144.23529411765 158.2624 L 167.76470588235 152.7824 L 191.29411764706 148.06959999999998 L 214.82352941176 142.9184 L 238.35294117647 144.4528 L 261.88235294117 144.7816 L 285.41176470588 136.7808 L 308.94117647059 136.5616 L 308.94117647059 138.7536 L 285.41176470588 138.7536 L 261.88235294117 146.6448 L 238.35294117647 146.5352 L 214.82352941176 145.1104 L 191.29411764706 150.0424 L 167.76470588235 154.536 L 144.23529411765 160.2352 L 120.70588235294 164.39999999999998 L 97.176470588236 172.072 L 73.647058823531 174.4832 L 50.117647058825 179.4152 L 26.58823529412 181.60719999999998 L 3.0588235294143 186.868" class="highcharts-area" data-z-index="0"></path><path fill="none" d="M 3.0588235294143 186.1008 L 26.58823529412 180.6208 L 50.117647058825 178.1 L 73.647058823531 172.9488 L 97.176470588236 169.7704 L 120.70588235294 161.9888 L 144.23529411765 158.2624 L 167.76470588235 152.7824 L 191.29411764706 148.06959999999998 L 214.82352941176 142.9184 L 238.35294117647 144.4528 L 261.88235294117 144.7816 L 285.41176470588 136.7808 L 308.94117647059 136.5616" class="highcharts-graph" data-z-index="1" stroke-linejoin="round" stroke-linecap="round"></path></g><g data-z-index="0.1" class="highcharts-markers highcharts-series-9 highcharts-area-series " transform="translate(42,72) scale(1 1)" clip-path="none"></g><g data-z-index="0.1" class="highcharts-series highcharts-series-10 highcharts-area-series " transform="translate(42,72) scale(1 1)" clip-path="url(#highcharts-835dg1h-7)"><path fill="rgb(255,128,40)" d="M 3.0588235294143 175.1408 L 26.58823529412 170.3184 L 50.117647058825 165.82479999999998 L 73.647058823531 158.70080000000002 L 97.176470588236 154.9744 L 120.70588235294 146.5352 L 144.23529411765 142.9184 L 167.76470588235 135.6848 L 191.29411764706 129.4376 L 214.82352941176 126.03999999999999 L 238.35294117647 126.8072 L 261.88235294117 127.7936 L 285.41176470588 120.7792 L 308.94117647059 121.656 L 308.94117647059 136.5616 L 285.41176470588 136.7808 L 261.88235294117 144.7816 L 238.35294117647 144.4528 L 214.82352941176 142.9184 L 191.29411764706 148.06959999999998 L 167.76470588235 152.7824 L 144.23529411765 158.2624 L 120.70588235294 161.9888 L 97.176470588236 169.7704 L 73.647058823531 172.9488 L 50.117647058825 178.1 L 26.58823529412 180.6208 L 3.0588235294143 186.1008" class="highcharts-area" data-z-index="0"></path><path fill="none" d="M 3.0588235294143 175.1408 L 26.58823529412 170.3184 L 50.117647058825 165.82479999999998 L 73.647058823531 158.70080000000002 L 97.176470588236 154.9744 L 120.70588235294 146.5352 L 144.23529411765 142.9184 L 167.76470588235 135.6848 L 191.29411764706 129.4376 L 214.82352941176 126.03999999999999 L 238.35294117647 126.8072 L 261.88235294117 127.7936 L 285.41176470588 120.7792 L 308.94117647059 121.656" class="highcharts-graph" data-z-index="1" stroke-linejoin="round" stroke-linecap="round"></path></g><g data-z-index="0.1" class="highcharts-markers highcharts-series-10 highcharts-area-series " transform="translate(42,72) scale(1 1)" clip-path="none"></g><g data-z-index="0.1" class="highcharts-series highcharts-series-11 highcharts-area-series " transform="translate(42,72) scale(1 1)" clip-path="url(#highcharts-835dg1h-7)"><path fill="rgb(115,186,124)" d="M 3.0588235294143 171.3048 L 26.58823529412 165.71519999999998 L 50.117647058825 160.4544 L 73.647058823531 152.4536 L 97.176470588236 148.72719999999998 L 120.70588235294 139.192 L 144.23529411765 134.6984 L 167.76470588235 126.4784 L 191.29411764706 118.6968 L 214.82352941176 114.31279999999998 L 238.35294117647 114.09360000000001 L 261.88235294117 111.6824 L 285.41176470588 104.5584 L 308.94117647059 107.29839999999999 L 308.94117647059 121.656 L 285.41176470588 120.7792 L 261.88235294117 127.7936 L 238.35294117647 126.8072 L 214.82352941176 126.03999999999999 L 191.29411764706 129.4376 L 167.76470588235 135.6848 L 144.23529411765 142.9184 L 120.70588235294 146.5352 L 97.176470588236 154.9744 L 73.647058823531 158.70080000000002 L 50.117647058825 165.82479999999998 L 26.58823529412 170.3184 L 3.0588235294143 175.1408" class="highcharts-area" data-z-index="0"></path><path fill="none" d="M 3.0588235294143 171.3048 L 26.58823529412 165.71519999999998 L 50.117647058825 160.4544 L 73.647058823531 152.4536 L 97.176470588236 148.72719999999998 L 120.70588235294 139.192 L 144.23529411765 134.6984 L 167.76470588235 126.4784 L 191.29411764706 118.6968 L 214.82352941176 114.31279999999998 L 238.35294117647 114.09360000000001 L 261.88235294117 111.6824 L 285.41176470588 104.5584 L 308.94117647059 107.29839999999999" class="highcharts-graph" data-z-index="1" stroke-linejoin="round" stroke-linecap="round"></path></g><g data-z-index="0.1" class="highcharts-markers highcharts-series-11 highcharts-area-series " transform="translate(42,72) scale(1 1)" clip-path="none"></g><g data-z-index="0.1" class="highcharts-series highcharts-series-12 highcharts-area-series " transform="translate(42,72) scale(1 1)" clip-path="url(#highcharts-835dg1h-7)"><path fill="rgb(180,117,171)" d="M 3.0588235294143 171.1952 L 26.58823529412 165.49599999999998 L 50.117647058825 160.2352 L 73.647058823531 151.6864 L 97.176470588236 147.85039999999998 L 120.70588235294 137.9864 L 144.23529411765 133.9312 L 167.76470588235 125.60159999999999 L 191.29411764706 117.82 L 214.82352941176 113.3264 L 238.35294117647 113.2168 L 261.88235294117 109.9288 L 285.41176470588 102.8048 L 308.94117647059 104.5584 L 308.94117647059 107.29839999999999 L 285.41176470588 104.5584 L 261.88235294117 111.6824 L 238.35294117647 114.09360000000001 L 214.82352941176 114.31279999999998 L 191.29411764706 118.6968 L 167.76470588235 126.4784 L 144.23529411765 134.6984 L 120.70588235294 139.192 L 97.176470588236 148.72719999999998 L 73.647058823531 152.4536 L 50.117647058825 160.4544 L 26.58823529412 165.71519999999998 L 3.0588235294143 171.3048" class="highcharts-area" data-z-index="0"></path><path fill="none" d="M 3.0588235294143 171.1952 L 26.58823529412 165.49599999999998 L 50.117647058825 160.2352 L 73.647058823531 151.6864 L 97.176470588236 147.85039999999998 L 120.70588235294 137.9864 L 144.23529411765 133.9312 L 167.76470588235 125.60159999999999 L 191.29411764706 117.82 L 214.82352941176 113.3264 L 238.35294117647 113.2168 L 261.88235294117 109.9288 L 285.41176470588 102.8048 L 308.94117647059 104.5584" class="highcharts-graph" data-z-index="1" stroke-linejoin="round" stroke-linecap="round"></path></g><g data-z-index="0.1" class="highcharts-markers highcharts-series-12 highcharts-area-series " transform="translate(42,72) scale(1 1)" clip-path="none"></g><g data-z-index="0.1" class="highcharts-series highcharts-series-13 highcharts-area-series " transform="translate(42,72) scale(1 1)" clip-path="url(#highcharts-835dg1h-7)"><path fill="rgb(8,161,217)" d="M 3.0588235294143 162.756 L 26.58823529412 156.6184 L 50.117647058825 153.2208 L 73.647058823531 143.2472 L 97.176470588236 139.5208 L 120.70588235294 128.3416 L 144.23529411765 123.51919999999998 L 167.76470588235 113.1072 L 191.29411764706 106.96959999999999 L 214.82352941176 102.9144 L 238.35294117647 103.1336 L 261.88235294117 98.63999999999999 L 285.41176470588 90.09119999999999 L 308.94117647059 92.2832 L 308.94117647059 104.5584 L 285.41176470588 102.8048 L 261.88235294117 109.9288 L 238.35294117647 113.2168 L 214.82352941176 113.3264 L 191.29411764706 117.82 L 167.76470588235 125.60159999999999 L 144.23529411765 133.9312 L 120.70588235294 137.9864 L 97.176470588236 147.85039999999998 L 73.647058823531 151.6864 L 50.117647058825 160.2352 L 26.58823529412 165.49599999999998 L 3.0588235294143 171.1952" class="highcharts-area" data-z-index="0"></path><path fill="none" d="M 3.0588235294143 162.756 L 26.58823529412 156.6184 L 50.117647058825 153.2208 L 73.647058823531 143.2472 L 97.176470588236 139.5208 L 120.70588235294 128.3416 L 144.23529411765 123.51919999999998 L 167.76470588235 113.1072 L 191.29411764706 106.96959999999999 L 214.82352941176 102.9144 L 238.35294117647 103.1336 L 261.88235294117 98.63999999999999 L 285.41176470588 90.09119999999999 L 308.94117647059 92.2832" class="highcharts-graph" data-z-index="1" stroke-linejoin="round" stroke-linecap="round"></path></g><g data-z-index="0.1" class="highcharts-markers highcharts-series-13 highcharts-area-series " transform="translate(42,72) scale(1 1)" clip-path="none"></g><g data-z-index="0.1" class="highcharts-series highcharts-series-14 highcharts-area-series " transform="translate(42,72) scale(1 1)" clip-path="url(#highcharts-835dg1h-7)"><path fill="rgb(131,82,46)" d="M 3.0588235294143 158.2624 L 26.58823529412 151.1384 L 50.117647058825 148.50799999999998 L 73.647058823531 138.644 L 97.176470588236 134.808 L 120.70588235294 123.51919999999998 L 144.23529411765 117.49119999999999 L 167.76470588235 105.98319999999998 L 191.29411764706 99.51679999999999 L 214.82352941176 95.0232 L 238.35294117647 96.1192 L 261.88235294117 91.62559999999999 L 285.41176470588 83.40559999999999 L 308.94117647059 85.2688 L 308.94117647059 92.2832 L 285.41176470588 90.09119999999999 L 261.88235294117 98.63999999999999 L 238.35294117647 103.1336 L 214.82352941176 102.9144 L 191.29411764706 106.96959999999999 L 167.76470588235 113.1072 L 144.23529411765 123.51919999999998 L 120.70588235294 128.3416 L 97.176470588236 139.5208 L 73.647058823531 143.2472 L 50.117647058825 153.2208 L 26.58823529412 156.6184 L 3.0588235294143 162.756" class="highcharts-area" data-z-index="0"></path><path fill="none" d="M 3.0588235294143 158.2624 L 26.58823529412 151.1384 L 50.117647058825 148.50799999999998 L 73.647058823531 138.644 L 97.176470588236 134.808 L 120.70588235294 123.51919999999998 L 144.23529411765 117.49119999999999 L 167.76470588235 105.98319999999998 L 191.29411764706 99.51679999999999 L 214.82352941176 95.0232 L 238.35294117647 96.1192 L 261.88235294117 91.62559999999999 L 285.41176470588 83.40559999999999 L 308.94117647059 85.2688" class="highcharts-graph" data-z-index="1" stroke-linejoin="round" stroke-linecap="round"></path></g><g data-z-index="0.1" class="highcharts-markers highcharts-series-14 highcharts-area-series " transform="translate(42,72) scale(1 1)" clip-path="none"></g><g data-z-index="0.1" class="highcharts-series highcharts-series-15 highcharts-area-series " transform="translate(42,72) scale(1 1)" clip-path="url(#highcharts-835dg1h-7)"><path fill="rgb(255,232,70)" d="M 3.0588235294143 157.4952 L 26.58823529412 150.5904 L 50.117647058825 147.95999999999998 L 73.647058823531 138.096 L 97.176470588236 134.3696 L 120.70588235294 123.19039999999998 L 120.70588235294 123.51919999999998 L 167.76470588235 105.98319999999998 L 167.76470588235 105.54480000000001 L 191.29411764706 99.18799999999999 L 214.82352941176 94.6944 L 238.35294117647 95.7904 L 261.88235294117 91.40639999999999 L 285.41176470588 83.18639999999999 L 308.94117647059 84.94 L 308.94117647059 85.2688 L 285.41176470588 83.40559999999999 L 261.88235294117 91.62559999999999 L 238.35294117647 96.1192 L 214.82352941176 95.0232 L 191.29411764706 99.51679999999999 L 167.76470588235 105.98319999999998 L 167.76470588235 105.98319999999998 L 120.70588235294 123.51919999999998 L 120.70588235294 123.51919999999998 L 97.176470588236 134.808 L 73.647058823531 138.644 L 50.117647058825 148.50799999999998 L 26.58823529412 151.1384 L 3.0588235294143 158.2624" class="highcharts-area" data-z-index="0"></path><path fill="none" d="M 3.0588235294143 157.4952 L 26.58823529412 150.5904 L 50.117647058825 147.95999999999998 L 73.647058823531 138.096 L 97.176470588236 134.3696 L 120.70588235294 123.19039999999998 M 167.76470588235 105.54480000000001 L 191.29411764706 99.18799999999999 L 214.82352941176 94.6944 L 238.35294117647 95.7904 L 261.88235294117 91.40639999999999 L 285.41176470588 83.18639999999999 L 308.94117647059 84.94" class="highcharts-graph" data-z-index="1" stroke-linejoin="round" stroke-linecap="round"></path></g><g data-z-index="0.1" class="highcharts-markers highcharts-series-15 highcharts-area-series " transform="translate(42,72) scale(1 1)" clip-path="none"></g><g data-z-index="0.1" class="highcharts-series highcharts-series-16 highcharts-area-series " transform="translate(42,72) scale(1 1)" clip-path="url(#highcharts-835dg1h-7)"><path fill="rgb(60,60,60)" d="M 3.0588235294143 127.4648 L 26.58823529412 117.82 L 50.117647058825 114.42239999999998 L 73.647058823531 102.1472 L 97.176470588236 96.44800000000001 L 120.70588235294 83.5152 L 120.70588235294 83.844 L 144.23529411765 77.816 L 167.76470588235 65.97919999999999 L 167.76470588235 65.54079999999999 L 191.29411764706 55.676799999999986 L 214.82352941176 47.78559999999999 L 238.35294117647 45.81279999999998 L 261.88235294117 44.388000000000005 L 285.41176470588 30.249599999999987 L 308.94117647059 31.01679999999999 L 308.94117647059 84.94 L 285.41176470588 83.18639999999999 L 261.88235294117 91.40639999999999 L 238.35294117647 95.7904 L 214.82352941176 94.6944 L 191.29411764706 99.18799999999999 L 167.76470588235 105.54480000000001 L 167.76470588235 105.98319999999998 L 144.23529411765 117.49119999999999 L 120.70588235294 123.51919999999998 L 120.70588235294 123.19039999999998 L 97.176470588236 134.3696 L 73.647058823531 138.096 L 50.117647058825 147.95999999999998 L 26.58823529412 150.5904 L 3.0588235294143 157.4952" class="highcharts-area" data-z-index="0"></path><path fill="none" d="M 3.0588235294143 127.4648 L 26.58823529412 117.82 L 50.117647058825 114.42239999999998 L 73.647058823531 102.1472 L 97.176470588236 96.44800000000001 L 120.70588235294 83.5152 M 120.70588235294 83.844 L 144.23529411765 77.816 L 167.76470588235 65.97919999999999 M 167.76470588235 65.54079999999999 L 191.29411764706 55.676799999999986 L 214.82352941176 47.78559999999999 L 238.35294117647 45.81279999999998 L 261.88235294117 44.388000000000005 L 285.41176470588 30.249599999999987 L 308.94117647059 31.01679999999999" class="highcharts-graph" data-z-index="1" stroke-linejoin="round" stroke-linecap="round"></path></g><g data-z-index="0.1" class="highcharts-markers highcharts-series-16 highcharts-area-series " transform="translate(42,72) scale(1 1)" clip-path="none"></g></g><text x="10" text-anchor="start" class="highcharts-title" data-z-index="4" style="color:#000000;font-size:14px;font-weight:bold;fill:#000000;" y="21"><tspan>Ausländische Bevölkerung nach Staatsangehörigkeit und</tspan><tspan dy="17" x="10">Wohnviertel</tspan></text><text x="10" text-anchor="start" class="highcharts-subtitle" data-z-index="4" style="color:#000000;font-size:12px;font-weight:normal;font-family:Arial;fill:#000000;" y="57"><tspan>Bruderholz</tspan></text><g class="highcharts-legend" data-z-index="7" transform="translate(359,27)"><rect fill="none" class="highcharts-legend-box" rx="0" ry="0" x="0" y="0" width="116" height="337" visibility="visible"></rect><g data-z-index="1"><g><g class="highcharts-legend-item highcharts-area-series highcharts-color-undefined highcharts-series-16" data-z-index="1" transform="translate(5,0)"><text x="21" style="color:#333333;font-size:12px;font-weight:normal;cursor:pointer;fill:#333333;" text-anchor="start" data-z-index="2" y="15"><tspan>Übrige</tspan></text><rect x="2" y="4" width="12" height="12" fill="rgb(60, 60, 60)" class="highcharts-point" data-z-index="3"></rect></g><g class="highcharts-legend-item highcharts-area-series highcharts-color-undefined highcharts-series-15" data-z-index="1" transform="translate(5,16)"><text x="21" y="15" style="color:#333333;font-size:12px;font-weight:normal;cursor:pointer;fill:#333333;" text-anchor="start" data-z-index="2"><tspan>Sri Lanka</tspan></text><rect x="2" y="4" width="12" height="12" fill="rgb(255, 232, 70)" class="highcharts-point" data-z-index="3"></rect></g><g class="highcharts-legend-item highcharts-area-series highcharts-color-undefined highcharts-series-14" data-z-index="1" transform="translate(5,32)"><text x="21" y="15" style="color:#333333;font-size:12px;font-weight:normal;cursor:pointer;fill:#333333;" text-anchor="start" data-z-index="2"><tspan>Österreich</tspan></text><rect x="2" y="4" width="12" height="12" fill="rgb(131, 82, 46)" class="highcharts-point" data-z-index="3"></rect></g><g class="highcharts-legend-item highcharts-area-series highcharts-color-undefined highcharts-series-13" data-z-index="1" transform="translate(5,48)"><text x="21" y="15" style="color:#333333;font-size:12px;font-weight:normal;cursor:pointer;fill:#333333;" text-anchor="start" data-z-index="2"><tspan>Vereinigte</tspan><tspan x="21" dy="15">Staaten</tspan></text><rect x="2" y="4" width="12" height="12" fill="rgb(8, 161, 217)" class="highcharts-point" data-z-index="3"></rect></g><g class="highcharts-legend-item highcharts-area-series highcharts-color-undefined highcharts-series-12" data-z-index="1" transform="translate(5,79)"><text x="21" y="15" style="color:#333333;font-size:12px;font-weight:normal;cursor:pointer;fill:#333333;" text-anchor="start" data-z-index="2"><tspan>Indien</tspan></text><rect x="2" y="4" width="12" height="12" fill="rgb(180, 117, 171)" class="highcharts-point" data-z-index="3"></rect></g><g class="highcharts-legend-item highcharts-area-series highcharts-color-undefined highcharts-series-11" data-z-index="1" transform="translate(5,95)"><text x="21" y="15" style="color:#333333;font-size:12px;font-weight:normal;cursor:pointer;fill:#333333;" text-anchor="start" data-z-index="2"><tspan>Frankreich</tspan></text><rect x="2" y="4" width="12" height="12" fill="rgb(115, 186, 124)" class="highcharts-point" data-z-index="3"></rect></g><g class="highcharts-legend-item highcharts-area-series highcharts-color-undefined highcharts-series-10" data-z-index="1" transform="translate(5,111)"><text x="21" y="15" style="color:#333333;font-size:12px;font-weight:normal;cursor:pointer;fill:#333333;" text-anchor="start" data-z-index="2"><tspan>Vereinigtes</tspan><tspan x="21" dy="15">Königreich</tspan></text><rect x="2" y="4" width="12" height="12" fill="rgb(255, 128, 40)" class="highcharts-point" data-z-index="3"></rect></g><g class="highcharts-legend-item highcharts-area-series highcharts-color-undefined highcharts-series-9" data-z-index="1" transform="translate(5,142)"><text x="21" y="15" style="color:#333333;font-size:12px;font-weight:normal;cursor:pointer;fill:#333333;" text-anchor="start" data-z-index="2"><tspan>Kroatien</tspan></text><rect x="2" y="4" width="12" height="12" fill="rgb(176, 0, 0)" class="highcharts-point" data-z-index="3"></rect></g><g class="highcharts-legend-item highcharts-area-series highcharts-color-undefined highcharts-series-8" data-z-index="1" transform="translate(5,158)"><text x="21" y="15" style="color:#333333;font-size:12px;font-weight:normal;cursor:pointer;fill:#333333;" text-anchor="start" data-z-index="2"><tspan>Slowenien</tspan></text><rect x="2" y="4" width="12" height="12" fill="rgb(200, 200, 200)" class="highcharts-point" data-z-index="3"></rect></g><g class="highcharts-legend-item highcharts-area-series highcharts-color-undefined highcharts-series-7" data-z-index="1" transform="translate(5,174)"><text x="21" y="15" style="color:#333333;font-size:12px;font-weight:normal;cursor:pointer;fill:#333333;" text-anchor="start" data-z-index="2"><tspan>Bosnien und</tspan><tspan x="21" dy="15">Herzegowina</tspan></text><rect x="2" y="4" width="12" height="12" fill="rgb(60, 60, 60)" class="highcharts-point" data-z-index="3"></rect></g><g class="highcharts-legend-item highcharts-area-series highcharts-color-undefined highcharts-series-6" data-z-index="1" transform="translate(5,205)"><text x="21" y="15" style="color:#333333;font-size:12px;font-weight:normal;cursor:pointer;fill:#333333;" text-anchor="start" data-z-index="2"><tspan>Serbien, Monte-</tspan><tspan x="21" dy="15">negro, Kosovo</tspan></text><rect x="2" y="4" width="12" height="12" fill="rgb(255, 232, 70)" class="highcharts-point" data-z-index="3"></rect></g><g class="highcharts-legend-item highcharts-area-series highcharts-color-undefined highcharts-series-5" data-z-index="1" transform="translate(5,236)"><text x="21" y="15" style="color:#333333;font-size:12px;font-weight:normal;cursor:pointer;fill:#333333;" text-anchor="start" data-z-index="2"><tspan>Mazedonien</tspan></text><rect x="2" y="4" width="12" height="12" fill="rgb(131, 82, 46)" class="highcharts-point" data-z-index="3"></rect></g><g class="highcharts-legend-item highcharts-area-series highcharts-color-undefined highcharts-series-4" data-z-index="1" transform="translate(5,252)"><text x="21" y="15" style="color:#333333;font-size:12px;font-weight:normal;cursor:pointer;fill:#333333;" text-anchor="start" data-z-index="2"><tspan>Portugal</tspan></text><rect x="2" y="4" width="12" height="12" fill="rgb(8, 161, 217)" class="highcharts-point" data-z-index="3"></rect></g><g class="highcharts-legend-item highcharts-area-series highcharts-color-undefined highcharts-series-3" data-z-index="1" transform="translate(5,268)"><text x="21" y="15" style="color:#333333;font-size:12px;font-weight:normal;cursor:pointer;fill:#333333;" text-anchor="start" data-z-index="2"><tspan>Spanien</tspan></text><rect x="2" y="4" width="12" height="12" fill="rgb(180, 117, 171)" class="highcharts-point" data-z-index="3"></rect></g><g class="highcharts-legend-item highcharts-area-series highcharts-color-undefined highcharts-series-2" data-z-index="1" transform="translate(5,284)"><text x="21" y="15" style="color:#333333;font-size:12px;font-weight:normal;cursor:pointer;fill:#333333;" text-anchor="start" data-z-index="2"><tspan>Türkei</tspan></text><rect x="2" y="4" width="12" height="12" fill="rgb(115, 186, 124)" class="highcharts-point" data-z-index="3"></rect></g><g class="highcharts-legend-item highcharts-area-series highcharts-color-undefined highcharts-series-1" data-z-index="1" transform="translate(5,300)"><text x="21" y="15" style="color:#333333;font-size:12px;font-weight:normal;cursor:pointer;fill:#333333;" text-anchor="start" data-z-index="2"><tspan>Italien</tspan></text><rect x="2" y="4" width="12" height="12" fill="rgb(255, 128, 40)" class="highcharts-point" data-z-index="3"></rect></g><g class="highcharts-legend-item highcharts-area-series highcharts-color-undefined highcharts-series-0" data-z-index="1" transform="translate(5,316)"><text x="21" y="15" style="color:#333333;font-size:12px;font-weight:normal;cursor:pointer;fill:#333333;" text-anchor="start" data-z-index="2"><tspan>Deutschland</tspan></text><rect x="2" y="4" width="12" height="12" fill="rgb(176, 0, 0)" class="highcharts-point" data-z-index="3"></rect></g></g></g></g><g class="highcharts-axis-labels highcharts-xaxis-labels " data-z-index="7"><text x="47.65154839376467" style="color:#000000;cursor:default;font-size:11px;fill:#000000;" text-anchor="end" transform="translate(0,0) rotate(-45 47.65154839376467 362)" y="362" opacity="1">2004</text><text x="71.18096015847067" style="color:#000000;cursor:default;font-size:11px;fill:#000000;" text-anchor="end" transform="translate(0,0) rotate(-45 71.18096015847067 362)" y="362" opacity="1">2005</text><text x="94.71037192317567" style="color:#000000;cursor:default;font-size:11px;fill:#000000;" text-anchor="end" transform="translate(0,0) rotate(-45 94.71037192317567 362)" y="362" opacity="1">2006</text><text x="118.23978368788067" style="color:#000000;cursor:default;font-size:11px;fill:#000000;" text-anchor="end" transform="translate(0,0) rotate(-45 118.23978368788067 362)" y="362" opacity="1">2007</text><text x="141.76919545259068" style="color:#000000;cursor:default;font-size:11px;fill:#000000;" text-anchor="end" transform="translate(0,0) rotate(-45 141.76919545259068 362)" y="362" opacity="1">2008</text><text x="165.29860721729068" style="color:#000000;cursor:default;font-size:11px;fill:#000000;" text-anchor="end" transform="translate(0,0) rotate(-45 165.29860721729068 362)" y="362" opacity="1">2009</text><text x="188.82801898200069" style="color:#000000;cursor:default;font-size:11px;fill:#000000;" text-anchor="end" transform="translate(0,0) rotate(-45 188.82801898200069 362)" y="362" opacity="1">2010</text><text x="212.3574307467007" style="color:#000000;cursor:default;font-size:11px;fill:#000000;" text-anchor="end" transform="translate(0,0) rotate(-45 212.3574307467007 362)" y="362" opacity="1">2011</text><text x="235.8868425114107" style="color:#000000;cursor:default;font-size:11px;fill:#000000;" text-anchor="end" transform="translate(0,0) rotate(-45 235.8868425114107 362)" y="362" opacity="1">2012</text><text x="259.41625427611064" style="color:#000000;cursor:default;font-size:11px;fill:#000000;" text-anchor="end" transform="translate(0,0) rotate(-45 259.41625427611064 362)" y="362" opacity="1">2013</text><text x="282.94566604082064" style="color:#000000;cursor:default;font-size:11px;fill:#000000;" text-anchor="end" transform="translate(0,0) rotate(-45 282.94566604082064 362)" y="362" opacity="1">2014</text><text x="306.47507780552064" style="color:#000000;cursor:default;font-size:11px;fill:#000000;" text-anchor="end" transform="translate(0,0) rotate(-45 306.47507780552064 362)" y="362" opacity="1">2015</text><text x="330.00448957023065" style="color:#000000;cursor:default;font-size:11px;fill:#000000;" text-anchor="end" transform="translate(0,0) rotate(-45 330.00448957023065 362)" y="362" opacity="1">2016</text><text x="353.53390133494065" style="color:#000000;cursor:default;font-size:11px;fill:#000000;" text-anchor="end" transform="translate(0,0) rotate(-45 353.53390133494065 362)" y="362" opacity="1">2017</text></g><g class="highcharts-axis-labels highcharts-yaxis-labels " data-z-index="7"><text x="37" style="color:#000000;cursor:default;font-size:11px;fill:#000000;" text-anchor="end" transform="translate(0,0)" y="351" opacity="1">0</text><text x="37" style="color:#000000;cursor:default;font-size:11px;fill:#000000;" text-anchor="end" transform="translate(0,0)" y="296" opacity="1">500</text><text x="37" style="color:#000000;cursor:default;font-size:11px;fill:#000000;" text-anchor="end" transform="translate(0,0)" y="241" opacity="1"><tspan>1 000</tspan></text><text x="37" style="color:#000000;cursor:default;font-size:11px;fill:#000000;" text-anchor="end" transform="translate(0,0)" y="186" opacity="1"><tspan>1 500</tspan></text><text x="37" style="color:#000000;cursor:default;font-size:11px;fill:#000000;" text-anchor="end" transform="translate(0,0)" y="131" opacity="1"><tspan>2 000</tspan></text><text x="37" style="color:#000000;cursor:default;font-size:11px;fill:#000000;" text-anchor="end" transform="translate(0,0)" y="77" opacity="1"><tspan>2 500</tspan></text></g><text x="10" class="highcharts-credits" text-anchor="start" data-z-index="8" style="cursor:default;color:#000000;font-size:10px;fill:#000000;" y="410"><tspan>Quelle: .</tspan></text></svg>