<?xml version="1.0" standalone="no"?><!DOCTYPE svg PUBLIC "-//W3C//DTD SVG 1.1//EN" "http://www.w3.org/Graphics/SVG/1.1/DTD/svg11.dtd"><svg xmlns:xlink="http://www.w3.org/1999/xlink" version="1.1" class="highcharts-root" style="font-family:Arial;font-size:12px;" xmlns="http://www.w3.org/2000/svg" viewBox="0 0 485 415"><desc>Created with Highstock 6.1.1</desc><defs><clipPath id="highcharts-ft9jfyf-6"><rect x="0" y="0" width="315" height="274" fill="none"></rect></clipPath><clipPath id="highcharts-ft9jfyf-7"><rect x="0" y="0" width="315" height="274" fill="none"></rect></clipPath></defs><rect fill="#fbfbfb" class="highcharts-background" x="0" y="0" width="485" height="415" rx="0" ry="0"></rect><rect fill="none" class="highcharts-plot-background" x="39" y="72" width="315" height="274"></rect><g class="highcharts-pane-group" data-z-index="0"></g><g class="highcharts-grid highcharts-xaxis-grid " data-z-index="1"><path fill="none" data-z-index="1" class="highcharts-grid-line" d="M 41.5 72 L 41.5 346" opacity="1"></path><path fill="none" data-z-index="1" class="highcharts-grid-line" d="M 65.5 72 L 65.5 346" opacity="1"></path><path fill="none" data-z-index="1" class="highcharts-grid-line" d="M 89.5 72 L 89.5 346" opacity="1"></path><path fill="none" data-z-index="1" class="highcharts-grid-line" d="M 112.5 72 L 112.5 346" opacity="1"></path><path fill="none" data-z-index="1" class="highcharts-grid-line" d="M 136.5 72 L 136.5 346" opacity="1"></path><path fill="none" data-z-index="1" class="highcharts-grid-line" d="M 160.5 72 L 160.5 346" opacity="1"></path><path fill="none" data-z-index="1" class="highcharts-grid-line" d="M 184.5 72 L 184.5 346" opacity="1"></path><path fill="none" data-z-index="1" class="highcharts-grid-line" d="M 207.5 72 L 207.5 346" opacity="1"></path><path fill="none" data-z-index="1" class="highcharts-grid-line" d="M 231.5 72 L 231.5 346" opacity="1"></path><path fill="none" data-z-index="1" class="highcharts-grid-line" d="M 255.5 72 L 255.5 346" opacity="1"></path><path fill="none" data-z-index="1" class="highcharts-grid-line" d="M 279.5 72 L 279.5 346" opacity="1"></path><path fill="none" data-z-index="1" class="highcharts-grid-line" d="M 302.5 72 L 302.5 346" opacity="1"></path><path fill="none" data-z-index="1" class="highcharts-grid-line" d="M 326.5 72 L 326.5 346" opacity="1"></path><path fill="none" data-z-index="1" class="highcharts-grid-line" d="M 350.5 72 L 350.5 346" opacity="1"></path></g><g class="highcharts-grid highcharts-yaxis-grid " data-z-index="1"><path fill="none" stroke="#B9CFD7" stroke-width="0.5" data-z-index="1" class="highcharts-grid-line" d="M 39 346.25 L 354 346.25" opacity="1"></path><path fill="none" stroke="#B9CFD7" stroke-width="0.5" data-z-index="1" class="highcharts-grid-line" d="M 39 278.25 L 354 278.25" opacity="1"></path><path fill="none" stroke="#B9CFD7" stroke-width="0.5" data-z-index="1" class="highcharts-grid-line" d="M 39 209.25 L 354 209.25" opacity="1"></path><path fill="none" stroke="#B9CFD7" stroke-width="0.5" data-z-index="1" class="highcharts-grid-line" d="M 39 140.25 L 354 140.25" opacity="1"></path><path fill="none" stroke="#B9CFD7" stroke-width="0.5" data-z-index="1" class="highcharts-grid-line" d="M 39 71.75 L 354 71.75" opacity="1"></path></g><rect fill="none" class="highcharts-plot-border" data-z-index="1" x="39" y="72" width="315" height="274"></rect><g class="highcharts-axis highcharts-xaxis " data-z-index="2"><path fill="none" class="highcharts-axis-line" stroke="#B9CFD7" stroke-width="0.5" data-z-index="7" d="M 39 346.25 L 354 346.25"></path></g><g class="highcharts-axis highcharts-yaxis " data-z-index="2"><path fill="none" class="highcharts-axis-line" data-z-index="7" d="M 39 72 L 39 346"></path></g><g class="highcharts-series-group" data-z-index="3"><g data-z-index="0.1" class="highcharts-series highcharts-series-0 highcharts-area-series " transform="translate(39,72) scale(1 1)" clip-path="url(#highcharts-ft9jfyf-7)"><path fill="rgb(176,0,0)" d="M 3.0882352941202 228.242 L 26.843891402717 220.296 L 50.599547511314 219.474 L 74.355203619911 210.295 L 98.110859728508 206.322 L 121.8665158371 199.19799999999998 L 145.6221719457 197.28 L 169.3778280543 193.033 L 193.1334841629 195.91 L 216.88914027149 195.362 L 240.64479638009 192.348 L 264.40045248869 192.211 L 288.15610859728 193.855 L 311.91176470588 194.129 L 311.91176470588 274 L 288.15610859728 274 L 264.40045248869 274 L 240.64479638009 274 L 216.88914027149 274 L 193.1334841629 274 L 169.3778280543 274 L 145.6221719457 274 L 121.8665158371 274 L 98.110859728508 274 L 74.355203619911 274 L 50.599547511314 274 L 26.843891402717 274 L 3.0882352941202 274" class="highcharts-area" data-z-index="0"></path><path fill="none" d="M 3.0882352941202 228.242 L 26.843891402717 220.296 L 50.599547511314 219.474 L 74.355203619911 210.295 L 98.110859728508 206.322 L 121.8665158371 199.19799999999998 L 145.6221719457 197.28 L 169.3778280543 193.033 L 193.1334841629 195.91 L 216.88914027149 195.362 L 240.64479638009 192.348 L 264.40045248869 192.211 L 288.15610859728 193.855 L 311.91176470588 194.129" class="highcharts-graph" data-z-index="1" stroke-linejoin="round" stroke-linecap="round"></path></g><g data-z-index="0.1" class="highcharts-markers highcharts-series-0 highcharts-area-series " transform="translate(39,72) scale(1 1)" clip-path="none"></g><g data-z-index="0.1" class="highcharts-series highcharts-series-1 highcharts-area-series " transform="translate(39,72) scale(1 1)" clip-path="url(#highcharts-ft9jfyf-7)"><path fill="rgb(255,128,40)" d="M 3.0882352941202 196.321 L 26.843891402717 187.964 L 50.599547511314 189.06 L 74.355203619911 179.333 L 98.110859728508 176.456 L 121.8665158371 169.058 L 145.6221719457 166.86599999999999 L 169.3778280543 160.564 L 193.1334841629 165.35899999999998 L 216.88914027149 164.81099999999998 L 240.64479638009 163.57799999999997 L 264.40045248869 163.02999999999997 L 288.15610859728 164.12599999999998 L 311.91176470588 163.71499999999997 L 311.91176470588 194.129 L 288.15610859728 193.855 L 264.40045248869 192.211 L 240.64479638009 192.348 L 216.88914027149 195.362 L 193.1334841629 195.91 L 169.3778280543 193.033 L 145.6221719457 197.28 L 121.8665158371 199.19799999999998 L 98.110859728508 206.322 L 74.355203619911 210.295 L 50.599547511314 219.474 L 26.843891402717 220.296 L 3.0882352941202 228.242" class="highcharts-area" data-z-index="0"></path><path fill="none" d="M 3.0882352941202 196.321 L 26.843891402717 187.964 L 50.599547511314 189.06 L 74.355203619911 179.333 L 98.110859728508 176.456 L 121.8665158371 169.058 L 145.6221719457 166.86599999999999 L 169.3778280543 160.564 L 193.1334841629 165.35899999999998 L 216.88914027149 164.81099999999998 L 240.64479638009 163.57799999999997 L 264.40045248869 163.02999999999997 L 288.15610859728 164.12599999999998 L 311.91176470588 163.71499999999997" class="highcharts-graph" data-z-index="1" stroke-linejoin="round" stroke-linecap="round"></path></g><g data-z-index="0.1" class="highcharts-markers highcharts-series-1 highcharts-area-series " transform="translate(39,72) scale(1 1)" clip-path="none"></g><g data-z-index="0.1" class="highcharts-series highcharts-series-2 highcharts-area-series " transform="translate(39,72) scale(1 1)" clip-path="url(#highcharts-ft9jfyf-7)"><path fill="rgb(115,186,124)" d="M 3.0882352941202 180.56599999999997 L 26.843891402717 172.62 L 50.599547511314 175.49699999999999 L 74.355203619911 166.18099999999998 L 98.110859728508 164.12599999999998 L 121.8665158371 156.454 L 145.6221719457 154.81 L 169.3778280543 147.82299999999998 L 193.1334841629 152.755 L 216.88914027149 152.755 L 240.64479638009 152.618 L 264.40045248869 152.618 L 288.15610859728 153.714 L 311.91176470588 152.892 L 311.91176470588 163.71499999999997 L 288.15610859728 164.12599999999998 L 264.40045248869 163.02999999999997 L 240.64479638009 163.57799999999997 L 216.88914027149 164.81099999999998 L 193.1334841629 165.35899999999998 L 169.3778280543 160.564 L 145.6221719457 166.86599999999999 L 121.8665158371 169.058 L 98.110859728508 176.456 L 74.355203619911 179.333 L 50.599547511314 189.06 L 26.843891402717 187.964 L 3.0882352941202 196.321" class="highcharts-area" data-z-index="0"></path><path fill="none" d="M 3.0882352941202 180.56599999999997 L 26.843891402717 172.62 L 50.599547511314 175.49699999999999 L 74.355203619911 166.18099999999998 L 98.110859728508 164.12599999999998 L 121.8665158371 156.454 L 145.6221719457 154.81 L 169.3778280543 147.82299999999998 L 193.1334841629 152.755 L 216.88914027149 152.755 L 240.64479638009 152.618 L 264.40045248869 152.618 L 288.15610859728 153.714 L 311.91176470588 152.892" class="highcharts-graph" data-z-index="1" stroke-linejoin="round" stroke-linecap="round"></path></g><g data-z-index="0.1" class="highcharts-markers highcharts-series-2 highcharts-area-series " transform="translate(39,72) scale(1 1)" clip-path="none"></g><g data-z-index="0.1" class="highcharts-series highcharts-series-3 highcharts-area-series " transform="translate(39,72) scale(1 1)" clip-path="url(#highcharts-ft9jfyf-7)"><path fill="rgb(180,117,171)" d="M 3.0882352941202 169.88 L 26.843891402717 161.249 L 50.599547511314 162.48199999999997 L 74.355203619911 152.755 L 98.110859728508 150.974 L 121.8665158371 144.124 L 145.6221719457 141.795 L 169.3778280543 134.397 L 193.1334841629 140.28799999999998 L 216.88914027149 140.83599999999998 L 240.64479638009 139.73999999999998 L 264.40045248869 139.60299999999998 L 288.15610859728 140.15099999999998 L 311.91176470588 138.91799999999998 L 311.91176470588 152.892 L 288.15610859728 153.714 L 264.40045248869 152.618 L 240.64479638009 152.618 L 216.88914027149 152.755 L 193.1334841629 152.755 L 169.3778280543 147.82299999999998 L 145.6221719457 154.81 L 121.8665158371 156.454 L 98.110859728508 164.12599999999998 L 74.355203619911 166.18099999999998 L 50.599547511314 175.49699999999999 L 26.843891402717 172.62 L 3.0882352941202 180.56599999999997" class="highcharts-area" data-z-index="0"></path><path fill="none" d="M 3.0882352941202 169.88 L 26.843891402717 161.249 L 50.599547511314 162.48199999999997 L 74.355203619911 152.755 L 98.110859728508 150.974 L 121.8665158371 144.124 L 145.6221719457 141.795 L 169.3778280543 134.397 L 193.1334841629 140.28799999999998 L 216.88914027149 140.83599999999998 L 240.64479638009 139.73999999999998 L 264.40045248869 139.60299999999998 L 288.15610859728 140.15099999999998 L 311.91176470588 138.91799999999998" class="highcharts-graph" data-z-index="1" stroke-linejoin="round" stroke-linecap="round"></path></g><g data-z-index="0.1" class="highcharts-markers highcharts-series-3 highcharts-area-series " transform="translate(39,72) scale(1 1)" clip-path="none"></g><g data-z-index="0.1" class="highcharts-series highcharts-series-4 highcharts-area-series " transform="translate(39,72) scale(1 1)" clip-path="url(#highcharts-ft9jfyf-7)"><path fill="rgb(8,161,217)" d="M 3.0882352941202 163.57799999999997 L 26.843891402717 156.043 L 50.599547511314 157.139 L 74.355203619911 146.17899999999997 L 98.110859728508 145.22 L 121.8665158371 137.548 L 145.6221719457 135.082 L 169.3778280543 127.41 L 193.1334841629 132.89 L 216.88914027149 131.51999999999998 L 240.64479638009 130.14999999999998 L 264.40045248869 130.42399999999998 L 288.15610859728 131.93099999999998 L 311.91176470588 131.65699999999998 L 311.91176470588 138.91799999999998 L 288.15610859728 140.15099999999998 L 264.40045248869 139.60299999999998 L 240.64479638009 139.73999999999998 L 216.88914027149 140.83599999999998 L 193.1334841629 140.28799999999998 L 169.3778280543 134.397 L 145.6221719457 141.795 L 121.8665158371 144.124 L 98.110859728508 150.974 L 74.355203619911 152.755 L 50.599547511314 162.48199999999997 L 26.843891402717 161.249 L 3.0882352941202 169.88" class="highcharts-area" data-z-index="0"></path><path fill="none" d="M 3.0882352941202 163.57799999999997 L 26.843891402717 156.043 L 50.599547511314 157.139 L 74.355203619911 146.17899999999997 L 98.110859728508 145.22 L 121.8665158371 137.548 L 145.6221719457 135.082 L 169.3778280543 127.41 L 193.1334841629 132.89 L 216.88914027149 131.51999999999998 L 240.64479638009 130.14999999999998 L 264.40045248869 130.42399999999998 L 288.15610859728 131.93099999999998 L 311.91176470588 131.65699999999998" class="highcharts-graph" data-z-index="1" stroke-linejoin="round" stroke-linecap="round"></path></g><g data-z-index="0.1" class="highcharts-markers highcharts-series-4 highcharts-area-series " transform="translate(39,72) scale(1 1)" clip-path="none"></g><g data-z-index="0.1" class="highcharts-series highcharts-series-5 highcharts-area-series " transform="translate(39,72) scale(1 1)" clip-path="url(#highcharts-ft9jfyf-7)"><path fill="rgb(131,82,46)" d="M 3.0882352941202 159.879 L 26.843891402717 153.44 L 50.599547511314 154.81 L 74.355203619911 143.713 L 98.110859728508 142.343 L 121.8665158371 135.219 L 145.6221719457 132.753 L 169.3778280543 125.35499999999999 L 193.1334841629 130.14999999999998 L 216.88914027149 128.232 L 240.64479638009 126.862 L 264.40045248869 127.136 L 288.15610859728 128.643 L 311.91176470588 128.643 L 311.91176470588 131.65699999999998 L 288.15610859728 131.93099999999998 L 264.40045248869 130.42399999999998 L 240.64479638009 130.14999999999998 L 216.88914027149 131.51999999999998 L 193.1334841629 132.89 L 169.3778280543 127.41 L 145.6221719457 135.082 L 121.8665158371 137.548 L 98.110859728508 145.22 L 74.355203619911 146.17899999999997 L 50.599547511314 157.139 L 26.843891402717 156.043 L 3.0882352941202 163.57799999999997" class="highcharts-area" data-z-index="0"></path><path fill="none" d="M 3.0882352941202 159.879 L 26.843891402717 153.44 L 50.599547511314 154.81 L 74.355203619911 143.713 L 98.110859728508 142.343 L 121.8665158371 135.219 L 145.6221719457 132.753 L 169.3778280543 125.35499999999999 L 193.1334841629 130.14999999999998 L 216.88914027149 128.232 L 240.64479638009 126.862 L 264.40045248869 127.136 L 288.15610859728 128.643 L 311.91176470588 128.643" class="highcharts-graph" data-z-index="1" stroke-linejoin="round" stroke-linecap="round"></path></g><g data-z-index="0.1" class="highcharts-markers highcharts-series-5 highcharts-area-series " transform="translate(39,72) scale(1 1)" clip-path="none"></g><g data-z-index="0.1" class="highcharts-series highcharts-series-6 highcharts-area-series " transform="translate(39,72) scale(1 1)" clip-path="url(#highcharts-ft9jfyf-7)"><path fill="rgb(255,232,70)" d="M 3.0882352941202 146.17899999999997 L 26.843891402717 140.28799999999998 L 50.599547511314 143.165 L 74.355203619911 132.89 L 98.110859728508 132.47899999999998 L 121.8665158371 124.66999999999999 L 145.6221719457 121.92999999999998 L 169.3778280543 115.90199999999999 L 193.1334841629 121.10799999999998 L 216.88914027149 119.053 L 240.64479638009 117.13499999999999 L 264.40045248869 117.54599999999999 L 288.15610859728 117.68299999999999 L 311.91176470588 117.957 L 311.91176470588 128.643 L 288.15610859728 128.643 L 264.40045248869 127.136 L 240.64479638009 126.862 L 216.88914027149 128.232 L 193.1334841629 130.14999999999998 L 169.3778280543 125.35499999999999 L 145.6221719457 132.753 L 121.8665158371 135.219 L 98.110859728508 142.343 L 74.355203619911 143.713 L 50.599547511314 154.81 L 26.843891402717 153.44 L 3.0882352941202 159.879" class="highcharts-area" data-z-index="0"></path><path fill="none" d="M 3.0882352941202 146.17899999999997 L 26.843891402717 140.28799999999998 L 50.599547511314 143.165 L 74.355203619911 132.89 L 98.110859728508 132.47899999999998 L 121.8665158371 124.66999999999999 L 145.6221719457 121.92999999999998 L 169.3778280543 115.90199999999999 L 193.1334841629 121.10799999999998 L 216.88914027149 119.053 L 240.64479638009 117.13499999999999 L 264.40045248869 117.54599999999999 L 288.15610859728 117.68299999999999 L 311.91176470588 117.957" class="highcharts-graph" data-z-index="1" stroke-linejoin="round" stroke-linecap="round"></path></g><g data-z-index="0.1" class="highcharts-markers highcharts-series-6 highcharts-area-series " transform="translate(39,72) scale(1 1)" clip-path="none"></g><g data-z-index="0.1" class="highcharts-series highcharts-series-7 highcharts-area-series " transform="translate(39,72) scale(1 1)" clip-path="url(#highcharts-ft9jfyf-7)"><path fill="rgb(60,60,60)" d="M 3.0882352941202 142.891 L 26.843891402717 136.589 L 50.599547511314 139.87699999999998 L 74.355203619911 130.56099999999998 L 98.110859728508 129.87599999999998 L 121.8665158371 122.47799999999998 L 145.6221719457 120.69699999999997 L 169.3778280543 115.21699999999998 L 193.1334841629 120.423 L 216.88914027149 118.368 L 240.64479638009 116.31299999999999 L 264.40045248869 116.72399999999999 L 288.15610859728 116.99799999999999 L 311.91176470588 117.27199999999999 L 311.91176470588 117.957 L 288.15610859728 117.68299999999999 L 264.40045248869 117.54599999999999 L 240.64479638009 117.13499999999999 L 216.88914027149 119.053 L 193.1334841629 121.10799999999998 L 169.3778280543 115.90199999999999 L 145.6221719457 121.92999999999998 L 121.8665158371 124.66999999999999 L 98.110859728508 132.47899999999998 L 74.355203619911 132.89 L 50.599547511314 143.165 L 26.843891402717 140.28799999999998 L 3.0882352941202 146.17899999999997" class="highcharts-area" data-z-index="0"></path><path fill="none" d="M 3.0882352941202 142.891 L 26.843891402717 136.589 L 50.599547511314 139.87699999999998 L 74.355203619911 130.56099999999998 L 98.110859728508 129.87599999999998 L 121.8665158371 122.47799999999998 L 145.6221719457 120.69699999999997 L 169.3778280543 115.21699999999998 L 193.1334841629 120.423 L 216.88914027149 118.368 L 240.64479638009 116.31299999999999 L 264.40045248869 116.72399999999999 L 288.15610859728 116.99799999999999 L 311.91176470588 117.27199999999999" class="highcharts-graph" data-z-index="1" stroke-linejoin="round" stroke-linecap="round"></path></g><g data-z-index="0.1" class="highcharts-markers highcharts-series-7 highcharts-area-series " transform="translate(39,72) scale(1 1)" clip-path="none"></g><g data-z-index="0.1" class="highcharts-series highcharts-series-8 highcharts-area-series " transform="translate(39,72) scale(1 1)" clip-path="url(#highcharts-ft9jfyf-7)"><path fill="rgb(200,200,200)" d="M 3.0882352941202 142.343 L 26.843891402717 136.041 L 50.599547511314 139.19199999999998 L 74.355203619911 129.73899999999998 L 98.110859728508 128.917 L 121.8665158371 121.65599999999998 L 145.6221719457 119.875 L 169.3778280543 114.53199999999998 L 193.1334841629 119.601 L 216.88914027149 117.68299999999999 L 240.64479638009 115.76499999999999 L 264.40045248869 116.31299999999999 L 288.15610859728 116.58699999999999 L 311.91176470588 116.99799999999999 L 311.91176470588 117.27199999999999 L 288.15610859728 116.99799999999999 L 264.40045248869 116.72399999999999 L 240.64479638009 116.31299999999999 L 216.88914027149 118.368 L 193.1334841629 120.423 L 169.3778280543 115.21699999999998 L 145.6221719457 120.69699999999997 L 121.8665158371 122.47799999999998 L 98.110859728508 129.87599999999998 L 74.355203619911 130.56099999999998 L 50.599547511314 139.87699999999998 L 26.843891402717 136.589 L 3.0882352941202 142.891" class="highcharts-area" data-z-index="0"></path><path fill="none" d="M 3.0882352941202 142.343 L 26.843891402717 136.041 L 50.599547511314 139.19199999999998 L 74.355203619911 129.73899999999998 L 98.110859728508 128.917 L 121.8665158371 121.65599999999998 L 145.6221719457 119.875 L 169.3778280543 114.53199999999998 L 193.1334841629 119.601 L 216.88914027149 117.68299999999999 L 240.64479638009 115.76499999999999 L 264.40045248869 116.31299999999999 L 288.15610859728 116.58699999999999 L 311.91176470588 116.99799999999999" class="highcharts-graph" data-z-index="1" stroke-linejoin="round" stroke-linecap="round"></path></g><g data-z-index="0.1" class="highcharts-markers highcharts-series-8 highcharts-area-series " transform="translate(39,72) scale(1 1)" clip-path="none"></g><g data-z-index="0.1" class="highcharts-series highcharts-series-9 highcharts-area-series " transform="translate(39,72) scale(1 1)" clip-path="url(#highcharts-ft9jfyf-7)"><path fill="rgb(176,0,0)" d="M 3.0882352941202 137.685 L 26.843891402717 132.06799999999998 L 50.599547511314 135.356 L 74.355203619911 126.451 L 98.110859728508 124.39599999999999 L 121.8665158371 117.13499999999999 L 145.6221719457 116.17599999999999 L 169.3778280543 110.97 L 193.1334841629 116.31299999999999 L 216.88914027149 113.84699999999998 L 240.64479638009 110.833 L 264.40045248869 111.92899999999997 L 288.15610859728 111.92899999999997 L 311.91176470588 112.61399999999998 L 311.91176470588 116.99799999999999 L 288.15610859728 116.58699999999999 L 264.40045248869 116.31299999999999 L 240.64479638009 115.76499999999999 L 216.88914027149 117.68299999999999 L 193.1334841629 119.601 L 169.3778280543 114.53199999999998 L 145.6221719457 119.875 L 121.8665158371 121.65599999999998 L 98.110859728508 128.917 L 74.355203619911 129.73899999999998 L 50.599547511314 139.19199999999998 L 26.843891402717 136.041 L 3.0882352941202 142.343" class="highcharts-area" data-z-index="0"></path><path fill="none" d="M 3.0882352941202 137.685 L 26.843891402717 132.06799999999998 L 50.599547511314 135.356 L 74.355203619911 126.451 L 98.110859728508 124.39599999999999 L 121.8665158371 117.13499999999999 L 145.6221719457 116.17599999999999 L 169.3778280543 110.97 L 193.1334841629 116.31299999999999 L 216.88914027149 113.84699999999998 L 240.64479638009 110.833 L 264.40045248869 111.92899999999997 L 288.15610859728 111.92899999999997 L 311.91176470588 112.61399999999998" class="highcharts-graph" data-z-index="1" stroke-linejoin="round" stroke-linecap="round"></path></g><g data-z-index="0.1" class="highcharts-markers highcharts-series-9 highcharts-area-series " transform="translate(39,72) scale(1 1)" clip-path="none"></g><g data-z-index="0.1" class="highcharts-series highcharts-series-10 highcharts-area-series " transform="translate(39,72) scale(1 1)" clip-path="url(#highcharts-ft9jfyf-7)"><path fill="rgb(255,128,40)" d="M 3.0882352941202 132.06799999999998 L 26.843891402717 126.451 L 50.599547511314 128.232 L 74.355203619911 119.19 L 98.110859728508 117.54599999999999 L 121.8665158371 108.77799999999999 L 145.6221719457 106.99699999999999 L 169.3778280543 101.791 L 193.1334841629 106.99699999999999 L 216.88914027149 105.35299999999998 L 240.64479638009 100.55799999999999 L 264.40045248869 101.243 L 288.15610859728 101.517 L 311.91176470588 103.43499999999997 L 311.91176470588 112.61399999999998 L 288.15610859728 111.92899999999997 L 264.40045248869 111.92899999999997 L 240.64479638009 110.833 L 216.88914027149 113.84699999999998 L 193.1334841629 116.31299999999999 L 169.3778280543 110.97 L 145.6221719457 116.17599999999999 L 121.8665158371 117.13499999999999 L 98.110859728508 124.39599999999999 L 74.355203619911 126.451 L 50.599547511314 135.356 L 26.843891402717 132.06799999999998 L 3.0882352941202 137.685" class="highcharts-area" data-z-index="0"></path><path fill="none" d="M 3.0882352941202 132.06799999999998 L 26.843891402717 126.451 L 50.599547511314 128.232 L 74.355203619911 119.19 L 98.110859728508 117.54599999999999 L 121.8665158371 108.77799999999999 L 145.6221719457 106.99699999999999 L 169.3778280543 101.791 L 193.1334841629 106.99699999999999 L 216.88914027149 105.35299999999998 L 240.64479638009 100.55799999999999 L 264.40045248869 101.243 L 288.15610859728 101.517 L 311.91176470588 103.43499999999997" class="highcharts-graph" data-z-index="1" stroke-linejoin="round" stroke-linecap="round"></path></g><g data-z-index="0.1" class="highcharts-markers highcharts-series-10 highcharts-area-series " transform="translate(39,72) scale(1 1)" clip-path="none"></g><g data-z-index="0.1" class="highcharts-series highcharts-series-11 highcharts-area-series " transform="translate(39,72) scale(1 1)" clip-path="url(#highcharts-ft9jfyf-7)"><path fill="rgb(115,186,124)" d="M 3.0882352941202 126.725 L 26.843891402717 121.38199999999998 L 50.599547511314 123.43699999999998 L 74.355203619911 113.98399999999998 L 98.110859728508 110.559 L 121.8665158371 100.14699999999999 L 145.6221719457 98.22899999999998 L 169.3778280543 93.16 L 193.1334841629 97.81799999999998 L 216.88914027149 96.72199999999998 L 240.64479638009 89.59799999999998 L 264.40045248869 90.69399999999999 L 288.15610859728 91.24199999999999 L 311.91176470588 92.749 L 311.91176470588 103.43499999999997 L 288.15610859728 101.517 L 264.40045248869 101.243 L 240.64479638009 100.55799999999999 L 216.88914027149 105.35299999999998 L 193.1334841629 106.99699999999999 L 169.3778280543 101.791 L 145.6221719457 106.99699999999999 L 121.8665158371 108.77799999999999 L 98.110859728508 117.54599999999999 L 74.355203619911 119.19 L 50.599547511314 128.232 L 26.843891402717 126.451 L 3.0882352941202 132.06799999999998" class="highcharts-area" data-z-index="0"></path><path fill="none" d="M 3.0882352941202 126.725 L 26.843891402717 121.38199999999998 L 50.599547511314 123.43699999999998 L 74.355203619911 113.98399999999998 L 98.110859728508 110.559 L 121.8665158371 100.14699999999999 L 145.6221719457 98.22899999999998 L 169.3778280543 93.16 L 193.1334841629 97.81799999999998 L 216.88914027149 96.72199999999998 L 240.64479638009 89.59799999999998 L 264.40045248869 90.69399999999999 L 288.15610859728 91.24199999999999 L 311.91176470588 92.749" class="highcharts-graph" data-z-index="1" stroke-linejoin="round" stroke-linecap="round"></path></g><g data-z-index="0.1" class="highcharts-markers highcharts-series-11 highcharts-area-series " transform="translate(39,72) scale(1 1)" clip-path="none"></g><g data-z-index="0.1" class="highcharts-series highcharts-series-12 highcharts-area-series " transform="translate(39,72) scale(1 1)" clip-path="url(#highcharts-ft9jfyf-7)"><path fill="rgb(180,117,171)" d="M 3.0882352941202 123.71099999999998 L 26.843891402717 118.779 L 50.599547511314 121.92999999999998 L 74.355203619911 110.97 L 98.110859728508 106.99699999999999 L 121.8665158371 97.26999999999998 L 145.6221719457 95.07799999999997 L 169.3778280543 90.28299999999999 L 193.1334841629 93.571 L 216.88914027149 92.064 L 240.64479638009 84.255 L 264.40045248869 85.89899999999997 L 288.15610859728 86.30999999999997 L 311.91176470588 88.77599999999998 L 311.91176470588 92.749 L 288.15610859728 91.24199999999999 L 264.40045248869 90.69399999999999 L 240.64479638009 89.59799999999998 L 216.88914027149 96.72199999999998 L 193.1334841629 97.81799999999998 L 169.3778280543 93.16 L 145.6221719457 98.22899999999998 L 121.8665158371 100.14699999999999 L 98.110859728508 110.559 L 74.355203619911 113.98399999999998 L 50.599547511314 123.43699999999998 L 26.843891402717 121.38199999999998 L 3.0882352941202 126.725" class="highcharts-area" data-z-index="0"></path><path fill="none" d="M 3.0882352941202 123.71099999999998 L 26.843891402717 118.779 L 50.599547511314 121.92999999999998 L 74.355203619911 110.97 L 98.110859728508 106.99699999999999 L 121.8665158371 97.26999999999998 L 145.6221719457 95.07799999999997 L 169.3778280543 90.28299999999999 L 193.1334841629 93.571 L 216.88914027149 92.064 L 240.64479638009 84.255 L 264.40045248869 85.89899999999997 L 288.15610859728 86.30999999999997 L 311.91176470588 88.77599999999998" class="highcharts-graph" data-z-index="1" stroke-linejoin="round" stroke-linecap="round"></path></g><g data-z-index="0.1" class="highcharts-markers highcharts-series-12 highcharts-area-series " transform="translate(39,72) scale(1 1)" clip-path="none"></g><g data-z-index="0.1" class="highcharts-series highcharts-series-13 highcharts-area-series " transform="translate(39,72) scale(1 1)" clip-path="url(#highcharts-ft9jfyf-7)"><path fill="rgb(8,161,217)" d="M 3.0882352941202 122.20399999999998 L 26.843891402717 116.58699999999999 L 50.599547511314 119.19 L 74.355203619911 107.27099999999999 L 98.110859728508 104.80499999999998 L 121.8665158371 94.39299999999997 L 145.6221719457 91.51599999999999 L 169.3778280543 86.44699999999997 L 193.1334841629 88.91299999999998 L 216.88914027149 86.44699999999997 L 240.64479638009 78.08999999999997 L 264.40045248869 82.06299999999999 L 288.15610859728 82.74799999999999 L 311.91176470588 84.118 L 311.91176470588 88.77599999999998 L 288.15610859728 86.30999999999997 L 264.40045248869 85.89899999999997 L 240.64479638009 84.255 L 216.88914027149 92.064 L 193.1334841629 93.571 L 169.3778280543 90.28299999999999 L 145.6221719457 95.07799999999997 L 121.8665158371 97.26999999999998 L 98.110859728508 106.99699999999999 L 74.355203619911 110.97 L 50.599547511314 121.92999999999998 L 26.843891402717 118.779 L 3.0882352941202 123.71099999999998" class="highcharts-area" data-z-index="0"></path><path fill="none" d="M 3.0882352941202 122.20399999999998 L 26.843891402717 116.58699999999999 L 50.599547511314 119.19 L 74.355203619911 107.27099999999999 L 98.110859728508 104.80499999999998 L 121.8665158371 94.39299999999997 L 145.6221719457 91.51599999999999 L 169.3778280543 86.44699999999997 L 193.1334841629 88.91299999999998 L 216.88914027149 86.44699999999997 L 240.64479638009 78.08999999999997 L 264.40045248869 82.06299999999999 L 288.15610859728 82.74799999999999 L 311.91176470588 84.118" class="highcharts-graph" data-z-index="1" stroke-linejoin="round" stroke-linecap="round"></path></g><g data-z-index="0.1" class="highcharts-markers highcharts-series-13 highcharts-area-series " transform="translate(39,72) scale(1 1)" clip-path="none"></g><g data-z-index="0.1" class="highcharts-series highcharts-series-14 highcharts-area-series " transform="translate(39,72) scale(1 1)" clip-path="url(#highcharts-ft9jfyf-7)"><path fill="rgb(131,82,46)" d="M 3.0882352941202 116.31299999999999 L 26.843891402717 111.244 L 50.599547511314 113.57299999999998 L 74.355203619911 100.969 L 98.110859728508 98.36599999999999 L 121.8665158371 87.54299999999998 L 145.6221719457 83.707 L 169.3778280543 79.45999999999998 L 193.1334841629 82.06299999999999 L 216.88914027149 79.87099999999998 L 240.64479638009 71.37699999999998 L 264.40045248869 74.52799999999999 L 288.15610859728 75.624 L 311.91176470588 77.13099999999997 L 311.91176470588 84.118 L 288.15610859728 82.74799999999999 L 264.40045248869 82.06299999999999 L 240.64479638009 78.08999999999997 L 216.88914027149 86.44699999999997 L 193.1334841629 88.91299999999998 L 169.3778280543 86.44699999999997 L 145.6221719457 91.51599999999999 L 121.8665158371 94.39299999999997 L 98.110859728508 104.80499999999998 L 74.355203619911 107.27099999999999 L 50.599547511314 119.19 L 26.843891402717 116.58699999999999 L 3.0882352941202 122.20399999999998" class="highcharts-area" data-z-index="0"></path><path fill="none" d="M 3.0882352941202 116.31299999999999 L 26.843891402717 111.244 L 50.599547511314 113.57299999999998 L 74.355203619911 100.969 L 98.110859728508 98.36599999999999 L 121.8665158371 87.54299999999998 L 145.6221719457 83.707 L 169.3778280543 79.45999999999998 L 193.1334841629 82.06299999999999 L 216.88914027149 79.87099999999998 L 240.64479638009 71.37699999999998 L 264.40045248869 74.52799999999999 L 288.15610859728 75.624 L 311.91176470588 77.13099999999997" class="highcharts-graph" data-z-index="1" stroke-linejoin="round" stroke-linecap="round"></path></g><g data-z-index="0.1" class="highcharts-markers highcharts-series-14 highcharts-area-series " transform="translate(39,72) scale(1 1)" clip-path="none"></g><g data-z-index="0.1" class="highcharts-series highcharts-series-15 highcharts-area-series " transform="translate(39,72) scale(1 1)" clip-path="url(#highcharts-ft9jfyf-7)"><path fill="rgb(255,232,70)" d="M 3.0882352941202 113.29899999999998 L 26.843891402717 107.54499999999999 L 50.599547511314 109.874 L 74.355203619911 98.09199999999998 L 98.110859728508 94.66699999999997 L 121.8665158371 83.707 L 145.6221719457 79.45999999999998 L 169.3778280543 76.172 L 193.1334841629 78.63799999999998 L 216.88914027149 76.309 L 240.64479638009 67.13 L 264.40045248869 71.51399999999998 L 288.15610859728 72.60999999999999 L 311.91176470588 74.11699999999999 L 311.91176470588 77.13099999999997 L 288.15610859728 75.624 L 264.40045248869 74.52799999999999 L 240.64479638009 71.37699999999998 L 216.88914027149 79.87099999999998 L 193.1334841629 82.06299999999999 L 169.3778280543 79.45999999999998 L 145.6221719457 83.707 L 121.8665158371 87.54299999999998 L 98.110859728508 98.36599999999999 L 74.355203619911 100.969 L 50.599547511314 113.57299999999998 L 26.843891402717 111.244 L 3.0882352941202 116.31299999999999" class="highcharts-area" data-z-index="0"></path><path fill="none" d="M 3.0882352941202 113.29899999999998 L 26.843891402717 107.54499999999999 L 50.599547511314 109.874 L 74.355203619911 98.09199999999998 L 98.110859728508 94.66699999999997 L 121.8665158371 83.707 L 145.6221719457 79.45999999999998 L 169.3778280543 76.172 L 193.1334841629 78.63799999999998 L 216.88914027149 76.309 L 240.64479638009 67.13 L 264.40045248869 71.51399999999998 L 288.15610859728 72.60999999999999 L 311.91176470588 74.11699999999999" class="highcharts-graph" data-z-index="1" stroke-linejoin="round" stroke-linecap="round"></path></g><g data-z-index="0.1" class="highcharts-markers highcharts-series-15 highcharts-area-series " transform="translate(39,72) scale(1 1)" clip-path="none"></g><g data-z-index="0.1" class="highcharts-series highcharts-series-16 highcharts-area-series " transform="translate(39,72) scale(1 1)" clip-path="url(#highcharts-ft9jfyf-7)"><path fill="rgb(60,60,60)" d="M 3.0882352941202 78.50099999999998 L 26.843891402717 75.213 L 50.599547511314 77.13099999999997 L 74.355203619911 63.841999999999985 L 98.110859728508 55.484999999999985 L 121.8665158371 39.86699999999999 L 145.6221719457 34.52399999999997 L 169.3778280543 32.05799999999999 L 193.1334841629 30.82499999999999 L 216.88914027149 29.591999999999985 L 240.64479638009 16.988 L 264.40045248869 15.069999999999993 L 288.15610859728 13.97399999999999 L 311.91176470588 13.836999999999989 L 311.91176470588 74.11699999999999 L 288.15610859728 72.60999999999999 L 264.40045248869 71.51399999999998 L 240.64479638009 67.13 L 216.88914027149 76.309 L 193.1334841629 78.63799999999998 L 169.3778280543 76.172 L 145.6221719457 79.45999999999998 L 121.8665158371 83.707 L 98.110859728508 94.66699999999997 L 74.355203619911 98.09199999999998 L 50.599547511314 109.874 L 26.843891402717 107.54499999999999 L 3.0882352941202 113.29899999999998" class="highcharts-area" data-z-index="0"></path><path fill="none" d="M 3.0882352941202 78.50099999999998 L 26.843891402717 75.213 L 50.599547511314 77.13099999999997 L 74.355203619911 63.841999999999985 L 98.110859728508 55.484999999999985 L 121.8665158371 39.86699999999999 L 145.6221719457 34.52399999999997 L 169.3778280543 32.05799999999999 L 193.1334841629 30.82499999999999 L 216.88914027149 29.591999999999985 L 240.64479638009 16.988 L 264.40045248869 15.069999999999993 L 288.15610859728 13.97399999999999 L 311.91176470588 13.836999999999989" class="highcharts-graph" data-z-index="1" stroke-linejoin="round" stroke-linecap="round"></path></g><g data-z-index="0.1" class="highcharts-markers highcharts-series-16 highcharts-area-series " transform="translate(39,72) scale(1 1)" clip-path="none"></g></g><text x="10" text-anchor="start" class="highcharts-title" data-z-index="4" style="color:#000000;font-size:14px;font-weight:bold;fill:#000000;" y="21"><tspan>Ausländische Bevölkerung nach Staatsangehörigkeit und</tspan><tspan dy="17" x="10">Wohnviertel</tspan></text><text x="10" text-anchor="start" class="highcharts-subtitle" data-z-index="4" style="color:#000000;font-size:12px;font-weight:normal;font-family:Arial;fill:#000000;" y="57"><tspan>Gotthelf</tspan></text><g class="highcharts-legend" data-z-index="7" transform="translate(359,27)"><rect fill="none" class="highcharts-legend-box" rx="0" ry="0" x="0" y="0" width="116" height="337" visibility="visible"></rect><g data-z-index="1"><g><g class="highcharts-legend-item highcharts-area-series highcharts-color-undefined highcharts-series-16" data-z-index="1" transform="translate(5,0)"><text x="21" style="color:#333333;font-size:12px;font-weight:normal;cursor:pointer;fill:#333333;" text-anchor="start" data-z-index="2" y="15"><tspan>Übrige</tspan></text><rect x="2" y="4" width="12" height="12" fill="rgb(60, 60, 60)" class="highcharts-point" data-z-index="3"></rect></g><g class="highcharts-legend-item highcharts-area-series highcharts-color-undefined highcharts-series-15" data-z-index="1" transform="translate(5,16)"><text x="21" y="15" style="color:#333333;font-size:12px;font-weight:normal;cursor:pointer;fill:#333333;" text-anchor="start" data-z-index="2"><tspan>Sri Lanka</tspan></text><rect x="2" y="4" width="12" height="12" fill="rgb(255, 232, 70)" class="highcharts-point" data-z-index="3"></rect></g><g class="highcharts-legend-item highcharts-area-series highcharts-color-undefined highcharts-series-14" data-z-index="1" transform="translate(5,32)"><text x="21" y="15" style="color:#333333;font-size:12px;font-weight:normal;cursor:pointer;fill:#333333;" text-anchor="start" data-z-index="2"><tspan>Österreich</tspan></text><rect x="2" y="4" width="12" height="12" fill="rgb(131, 82, 46)" class="highcharts-point" data-z-index="3"></rect></g><g class="highcharts-legend-item highcharts-area-series highcharts-color-undefined highcharts-series-13" data-z-index="1" transform="translate(5,48)"><text x="21" y="15" style="color:#333333;font-size:12px;font-weight:normal;cursor:pointer;fill:#333333;" text-anchor="start" data-z-index="2"><tspan>Vereinigte</tspan><tspan x="21" dy="15">Staaten</tspan></text><rect x="2" y="4" width="12" height="12" fill="rgb(8, 161, 217)" class="highcharts-point" data-z-index="3"></rect></g><g class="highcharts-legend-item highcharts-area-series highcharts-color-undefined highcharts-series-12" data-z-index="1" transform="translate(5,79)"><text x="21" y="15" style="color:#333333;font-size:12px;font-weight:normal;cursor:pointer;fill:#333333;" text-anchor="start" data-z-index="2"><tspan>Indien</tspan></text><rect x="2" y="4" width="12" height="12" fill="rgb(180, 117, 171)" class="highcharts-point" data-z-index="3"></rect></g><g class="highcharts-legend-item highcharts-area-series highcharts-color-undefined highcharts-series-11" data-z-index="1" transform="translate(5,95)"><text x="21" y="15" style="color:#333333;font-size:12px;font-weight:normal;cursor:pointer;fill:#333333;" text-anchor="start" data-z-index="2"><tspan>Frankreich</tspan></text><rect x="2" y="4" width="12" height="12" fill="rgb(115, 186, 124)" class="highcharts-point" data-z-index="3"></rect></g><g class="highcharts-legend-item highcharts-area-series highcharts-color-undefined highcharts-series-10" data-z-index="1" transform="translate(5,111)"><text x="21" y="15" style="color:#333333;font-size:12px;font-weight:normal;cursor:pointer;fill:#333333;" text-anchor="start" data-z-index="2"><tspan>Vereinigtes</tspan><tspan x="21" dy="15">Königreich</tspan></text><rect x="2" y="4" width="12" height="12" fill="rgb(255, 128, 40)" class="highcharts-point" data-z-index="3"></rect></g><g class="highcharts-legend-item highcharts-area-series highcharts-color-undefined highcharts-series-9" data-z-index="1" transform="translate(5,142)"><text x="21" y="15" style="color:#333333;font-size:12px;font-weight:normal;cursor:pointer;fill:#333333;" text-anchor="start" data-z-index="2"><tspan>Kroatien</tspan></text><rect x="2" y="4" width="12" height="12" fill="rgb(176, 0, 0)" class="highcharts-point" data-z-index="3"></rect></g><g class="highcharts-legend-item highcharts-area-series highcharts-color-undefined highcharts-series-8" data-z-index="1" transform="translate(5,158)"><text x="21" y="15" style="color:#333333;font-size:12px;font-weight:normal;cursor:pointer;fill:#333333;" text-anchor="start" data-z-index="2"><tspan>Slowenien</tspan></text><rect x="2" y="4" width="12" height="12" fill="rgb(200, 200, 200)" class="highcharts-point" data-z-index="3"></rect></g><g class="highcharts-legend-item highcharts-area-series highcharts-color-undefined highcharts-series-7" data-z-index="1" transform="translate(5,174)"><text x="21" y="15" style="color:#333333;font-size:12px;font-weight:normal;cursor:pointer;fill:#333333;" text-anchor="start" data-z-index="2"><tspan>Bosnien und</tspan><tspan x="21" dy="15">Herzegowina</tspan></text><rect x="2" y="4" width="12" height="12" fill="rgb(60, 60, 60)" class="highcharts-point" data-z-index="3"></rect></g><g class="highcharts-legend-item highcharts-area-series highcharts-color-undefined highcharts-series-6" data-z-index="1" transform="translate(5,205)"><text x="21" y="15" style="color:#333333;font-size:12px;font-weight:normal;cursor:pointer;fill:#333333;" text-anchor="start" data-z-index="2"><tspan>Serbien, Monte-</tspan><tspan x="21" dy="15">negro, Kosovo</tspan></text><rect x="2" y="4" width="12" height="12" fill="rgb(255, 232, 70)" class="highcharts-point" data-z-index="3"></rect></g><g class="highcharts-legend-item highcharts-area-series highcharts-color-undefined highcharts-series-5" data-z-index="1" transform="translate(5,236)"><text x="21" y="15" style="color:#333333;font-size:12px;font-weight:normal;cursor:pointer;fill:#333333;" text-anchor="start" data-z-index="2"><tspan>Mazedonien</tspan></text><rect x="2" y="4" width="12" height="12" fill="rgb(131, 82, 46)" class="highcharts-point" data-z-index="3"></rect></g><g class="highcharts-legend-item highcharts-area-series highcharts-color-undefined highcharts-series-4" data-z-index="1" transform="translate(5,252)"><text x="21" y="15" style="color:#333333;font-size:12px;font-weight:normal;cursor:pointer;fill:#333333;" text-anchor="start" data-z-index="2"><tspan>Portugal</tspan></text><rect x="2" y="4" width="12" height="12" fill="rgb(8, 161, 217)" class="highcharts-point" data-z-index="3"></rect></g><g class="highcharts-legend-item highcharts-area-series highcharts-color-undefined highcharts-series-3" data-z-index="1" transform="translate(5,268)"><text x="21" y="15" style="color:#333333;font-size:12px;font-weight:normal;cursor:pointer;fill:#333333;" text-anchor="start" data-z-index="2"><tspan>Spanien</tspan></text><rect x="2" y="4" width="12" height="12" fill="rgb(180, 117, 171)" class="highcharts-point" data-z-index="3"></rect></g><g class="highcharts-legend-item highcharts-area-series highcharts-color-undefined highcharts-series-2" data-z-index="1" transform="translate(5,284)"><text x="21" y="15" style="color:#333333;font-size:12px;font-weight:normal;cursor:pointer;fill:#333333;" text-anchor="start" data-z-index="2"><tspan>Türkei</tspan></text><rect x="2" y="4" width="12" height="12" fill="rgb(115, 186, 124)" class="highcharts-point" data-z-index="3"></rect></g><g class="highcharts-legend-item highcharts-area-series highcharts-color-undefined highcharts-series-1" data-z-index="1" transform="translate(5,300)"><text x="21" y="15" style="color:#333333;font-size:12px;font-weight:normal;cursor:pointer;fill:#333333;" text-anchor="start" data-z-index="2"><tspan>Italien</tspan></text><rect x="2" y="4" width="12" height="12" fill="rgb(255, 128, 40)" class="highcharts-point" data-z-index="3"></rect></g><g class="highcharts-legend-item highcharts-area-series highcharts-color-undefined highcharts-series-0" data-z-index="1" transform="translate(5,316)"><text x="21" y="15" style="color:#333333;font-size:12px;font-weight:normal;cursor:pointer;fill:#333333;" text-anchor="start" data-z-index="2"><tspan>Deutschland</tspan></text><rect x="2" y="4" width="12" height="12" fill="rgb(176, 0, 0)" class="highcharts-point" data-z-index="3"></rect></g></g></g></g><g class="highcharts-axis-labels highcharts-xaxis-labels " data-z-index="7"><text x="44.68096015847067" style="color:#000000;cursor:default;font-size:11px;fill:#000000;" text-anchor="end" transform="translate(0,0) rotate(-45 44.68096015847067 362)" y="362" opacity="1">2004</text><text x="68.43661626706768" style="color:#000000;cursor:default;font-size:11px;fill:#000000;" text-anchor="end" transform="translate(0,0) rotate(-45 68.43661626706768 362)" y="362" opacity="1">2005</text><text x="92.19227237566467" style="color:#000000;cursor:default;font-size:11px;fill:#000000;" text-anchor="end" transform="translate(0,0) rotate(-45 92.19227237566467 362)" y="362" opacity="1">2006</text><text x="115.94792848426067" style="color:#000000;cursor:default;font-size:11px;fill:#000000;" text-anchor="end" transform="translate(0,0) rotate(-45 115.94792848426067 362)" y="362" opacity="1">2007</text><text x="139.7035845928607" style="color:#000000;cursor:default;font-size:11px;fill:#000000;" text-anchor="end" transform="translate(0,0) rotate(-45 139.7035845928607 362)" y="362" opacity="1">2008</text><text x="163.45924070145068" style="color:#000000;cursor:default;font-size:11px;fill:#000000;" text-anchor="end" transform="translate(0,0) rotate(-45 163.45924070145068 362)" y="362" opacity="1">2009</text><text x="187.21489681005067" style="color:#000000;cursor:default;font-size:11px;fill:#000000;" text-anchor="end" transform="translate(0,0) rotate(-45 187.21489681005067 362)" y="362" opacity="1">2010</text><text x="210.9705529186507" style="color:#000000;cursor:default;font-size:11px;fill:#000000;" text-anchor="end" transform="translate(0,0) rotate(-45 210.9705529186507 362)" y="362" opacity="1">2011</text><text x="234.7262090272507" style="color:#000000;cursor:default;font-size:11px;fill:#000000;" text-anchor="end" transform="translate(0,0) rotate(-45 234.7262090272507 362)" y="362" opacity="1">2012</text><text x="258.4818651358407" style="color:#000000;cursor:default;font-size:11px;fill:#000000;" text-anchor="end" transform="translate(0,0) rotate(-45 258.4818651358407 362)" y="362" opacity="1">2013</text><text x="282.23752124444064" style="color:#000000;cursor:default;font-size:11px;fill:#000000;" text-anchor="end" transform="translate(0,0) rotate(-45 282.23752124444064 362)" y="362" opacity="1">2014</text><text x="305.99317735304066" style="color:#000000;cursor:default;font-size:11px;fill:#000000;" text-anchor="end" transform="translate(0,0) rotate(-45 305.99317735304066 362)" y="362" opacity="1">2015</text><text x="329.7488334616307" style="color:#000000;cursor:default;font-size:11px;fill:#000000;" text-anchor="end" transform="translate(0,0) rotate(-45 329.7488334616307 362)" y="362" opacity="1">2016</text><text x="353.50448957023065" style="color:#000000;cursor:default;font-size:11px;fill:#000000;" text-anchor="end" transform="translate(0,0) rotate(-45 353.50448957023065 362)" y="362" opacity="1">2017</text></g><g class="highcharts-axis-labels highcharts-yaxis-labels " data-z-index="7"><text x="34" style="color:#000000;cursor:default;font-size:11px;fill:#000000;" text-anchor="end" transform="translate(0,0)" y="351" opacity="1">0</text><text x="34" style="color:#000000;cursor:default;font-size:11px;fill:#000000;" text-anchor="end" transform="translate(0,0)" y="282" opacity="1">500</text><text x="34" style="color:#000000;cursor:default;font-size:11px;fill:#000000;" text-anchor="end" transform="translate(0,0)" y="214" opacity="1">1000</text><text x="34" style="color:#000000;cursor:default;font-size:11px;fill:#000000;" text-anchor="end" transform="translate(0,0)" y="145" opacity="1">1500</text><text x="34" style="color:#000000;cursor:default;font-size:11px;fill:#000000;" text-anchor="end" transform="translate(0,0)" y="77" opacity="1">2000</text></g><text x="10" class="highcharts-credits" text-anchor="start" data-z-index="8" style="cursor:default;color:#000000;font-size:10px;fill:#000000;" y="410"><tspan>Quelle:</tspan></text></svg>