<?xml version="1.0" standalone="no"?><!DOCTYPE svg PUBLIC "-//W3C//DTD SVG 1.1//EN" "http://www.w3.org/Graphics/SVG/1.1/DTD/svg11.dtd"><svg xmlns:xlink="http://www.w3.org/1999/xlink" version="1.1" class="highcharts-root" style="font-family:Arial;font-size:12px;" xmlns="http://www.w3.org/2000/svg" viewBox="0 0 485 415"><desc>Created with Highstock 6.1.1</desc><defs><clipPath id="highcharts-06vni68-6"><rect x="0" y="0" width="315" height="274" fill="none"></rect></clipPath><clipPath id="highcharts-06vni68-7"><rect x="0" y="0" width="315" height="274" fill="none"></rect></clipPath></defs><rect fill="#fbfbfb" class="highcharts-background" x="0" y="0" width="485" height="415" rx="0" ry="0"></rect><rect fill="none" class="highcharts-plot-background" x="39" y="72" width="315" height="274"></rect><g class="highcharts-pane-group" data-z-index="0"></g><g class="highcharts-grid highcharts-xaxis-grid " data-z-index="1"><path fill="none" data-z-index="1" class="highcharts-grid-line" d="M 41.5 72 L 41.5 346" opacity="1"></path><path fill="none" data-z-index="1" class="highcharts-grid-line" d="M 65.5 72 L 65.5 346" opacity="1"></path><path fill="none" data-z-index="1" class="highcharts-grid-line" d="M 89.5 72 L 89.5 346" opacity="1"></path><path fill="none" data-z-index="1" class="highcharts-grid-line" d="M 112.5 72 L 112.5 346" opacity="1"></path><path fill="none" data-z-index="1" class="highcharts-grid-line" d="M 136.5 72 L 136.5 346" opacity="1"></path><path fill="none" data-z-index="1" class="highcharts-grid-line" d="M 160.5 72 L 160.5 346" opacity="1"></path><path fill="none" data-z-index="1" class="highcharts-grid-line" d="M 184.5 72 L 184.5 346" opacity="1"></path><path fill="none" data-z-index="1" class="highcharts-grid-line" d="M 207.5 72 L 207.5 346" opacity="1"></path><path fill="none" data-z-index="1" class="highcharts-grid-line" d="M 231.5 72 L 231.5 346" opacity="1"></path><path fill="none" data-z-index="1" class="highcharts-grid-line" d="M 255.5 72 L 255.5 346" opacity="1"></path><path fill="none" data-z-index="1" class="highcharts-grid-line" d="M 279.5 72 L 279.5 346" opacity="1"></path><path fill="none" data-z-index="1" class="highcharts-grid-line" d="M 302.5 72 L 302.5 346" opacity="1"></path><path fill="none" data-z-index="1" class="highcharts-grid-line" d="M 326.5 72 L 326.5 346" opacity="1"></path><path fill="none" data-z-index="1" class="highcharts-grid-line" d="M 350.5 72 L 350.5 346" opacity="1"></path></g><g class="highcharts-grid highcharts-yaxis-grid " data-z-index="1"><path fill="none" stroke="#B9CFD7" stroke-width="0.5" data-z-index="1" class="highcharts-grid-line" d="M 39 346.25 L 354 346.25" opacity="1"></path><path fill="none" stroke="#B9CFD7" stroke-width="0.5" data-z-index="1" class="highcharts-grid-line" d="M 39 300.25 L 354 300.25" opacity="1"></path><path fill="none" stroke="#B9CFD7" stroke-width="0.5" data-z-index="1" class="highcharts-grid-line" d="M 39 255.25 L 354 255.25" opacity="1"></path><path fill="none" stroke="#B9CFD7" stroke-width="0.5" data-z-index="1" class="highcharts-grid-line" d="M 39 209.25 L 354 209.25" opacity="1"></path><path fill="none" stroke="#B9CFD7" stroke-width="0.5" data-z-index="1" class="highcharts-grid-line" d="M 39 163.25 L 354 163.25" opacity="1"></path><path fill="none" stroke="#B9CFD7" stroke-width="0.5" data-z-index="1" class="highcharts-grid-line" d="M 39 118.25 L 354 118.25" opacity="1"></path><path fill="none" stroke="#B9CFD7" stroke-width="0.5" data-z-index="1" class="highcharts-grid-line" d="M 39 71.75 L 354 71.75" opacity="1"></path></g><rect fill="none" class="highcharts-plot-border" data-z-index="1" x="39" y="72" width="315" height="274"></rect><g class="highcharts-axis highcharts-xaxis " data-z-index="2"><path fill="none" class="highcharts-axis-line" stroke="#B9CFD7" stroke-width="0.5" data-z-index="7" d="M 39 346.25 L 354 346.25"></path></g><g class="highcharts-axis highcharts-yaxis " data-z-index="2"><path fill="none" class="highcharts-axis-line" data-z-index="7" d="M 39 72 L 39 346"></path></g><g class="highcharts-series-group" data-z-index="3"><g data-z-index="0.1" class="highcharts-series highcharts-series-0 highcharts-area-series " transform="translate(39,72) scale(1 1)" clip-path="url(#highcharts-06vni68-7)"><path fill="rgb(176,0,0)" d="M 3.0882352941202 258.108 L 26.843891402717 256.64666666666665 L 50.599547511314 254.272 L 74.355203619911 252.26266666666666 L 98.110859728508 251.16666666666666 L 121.8665158371 248.06133333333332 L 145.6221719457 248.244 L 169.3778280543 245.68666666666667 L 193.1334841629 238.38 L 216.88914027149 239.11066666666667 L 240.64479638009 241.668 L 264.40045248869 239.65866666666668 L 288.15610859728 238.928 L 311.91176470588 240.20666666666665 L 311.91176470588 274 L 288.15610859728 274 L 264.40045248869 274 L 240.64479638009 274 L 216.88914027149 274 L 193.1334841629 274 L 169.3778280543 274 L 145.6221719457 274 L 121.8665158371 274 L 98.110859728508 274 L 74.355203619911 274 L 50.599547511314 274 L 26.843891402717 274 L 3.0882352941202 274" class="highcharts-area" data-z-index="0"></path><path fill="none" d="M 3.0882352941202 258.108 L 26.843891402717 256.64666666666665 L 50.599547511314 254.272 L 74.355203619911 252.26266666666666 L 98.110859728508 251.16666666666666 L 121.8665158371 248.06133333333332 L 145.6221719457 248.244 L 169.3778280543 245.68666666666667 L 193.1334841629 238.38 L 216.88914027149 239.11066666666667 L 240.64479638009 241.668 L 264.40045248869 239.65866666666668 L 288.15610859728 238.928 L 311.91176470588 240.20666666666665" class="highcharts-graph" data-z-index="1" stroke-linejoin="round" stroke-linecap="round"></path></g><g data-z-index="0.1" class="highcharts-markers highcharts-series-0 highcharts-area-series " transform="translate(39,72) scale(1 1)" clip-path="none"></g><g data-z-index="0.1" class="highcharts-series highcharts-series-1 highcharts-area-series " transform="translate(39,72) scale(1 1)" clip-path="url(#highcharts-06vni68-7)"><path fill="rgb(255,128,40)" d="M 3.0882352941202 209.51866666666666 L 26.843891402717 210.79733333333334 L 50.599547511314 209.70133333333334 L 74.355203619911 212.44133333333332 L 98.110859728508 212.44133333333332 L 121.8665158371 209.70133333333334 L 145.6221719457 209.51866666666666 L 169.3778280543 207.50933333333333 L 193.1334841629 202.57733333333334 L 216.88914027149 201.48133333333334 L 240.64479638009 205.5 L 264.40045248869 203.308 L 288.15610859728 203.12533333333334 L 311.91176470588 203.12533333333334 L 311.91176470588 240.20666666666665 L 288.15610859728 238.928 L 264.40045248869 239.65866666666668 L 240.64479638009 241.668 L 216.88914027149 239.11066666666667 L 193.1334841629 238.38 L 169.3778280543 245.68666666666667 L 145.6221719457 248.244 L 121.8665158371 248.06133333333332 L 98.110859728508 251.16666666666666 L 74.355203619911 252.26266666666666 L 50.599547511314 254.272 L 26.843891402717 256.64666666666665 L 3.0882352941202 258.108" class="highcharts-area" data-z-index="0"></path><path fill="none" d="M 3.0882352941202 209.51866666666666 L 26.843891402717 210.79733333333334 L 50.599547511314 209.70133333333334 L 74.355203619911 212.44133333333332 L 98.110859728508 212.44133333333332 L 121.8665158371 209.70133333333334 L 145.6221719457 209.51866666666666 L 169.3778280543 207.50933333333333 L 193.1334841629 202.57733333333334 L 216.88914027149 201.48133333333334 L 240.64479638009 205.5 L 264.40045248869 203.308 L 288.15610859728 203.12533333333334 L 311.91176470588 203.12533333333334" class="highcharts-graph" data-z-index="1" stroke-linejoin="round" stroke-linecap="round"></path></g><g data-z-index="0.1" class="highcharts-markers highcharts-series-1 highcharts-area-series " transform="translate(39,72) scale(1 1)" clip-path="none"></g><g data-z-index="0.1" class="highcharts-series highcharts-series-2 highcharts-area-series " transform="translate(39,72) scale(1 1)" clip-path="url(#highcharts-06vni68-7)"><path fill="rgb(115,186,124)" d="M 3.0882352941202 171.15866666666665 L 26.843891402717 170.976 L 50.599547511314 167.14 L 74.355203619911 171.15866666666665 L 98.110859728508 175.17733333333334 L 121.8665158371 170.976 L 145.6221719457 171.88933333333333 L 169.3778280543 169.88 L 193.1334841629 168.236 L 216.88914027149 167.14 L 240.64479638009 169.88 L 264.40045248869 169.69733333333335 L 288.15610859728 170.428 L 311.91176470588 171.34133333333332 L 311.91176470588 203.12533333333334 L 288.15610859728 203.12533333333334 L 264.40045248869 203.308 L 240.64479638009 205.5 L 216.88914027149 201.48133333333334 L 193.1334841629 202.57733333333334 L 169.3778280543 207.50933333333333 L 145.6221719457 209.51866666666666 L 121.8665158371 209.70133333333334 L 98.110859728508 212.44133333333332 L 74.355203619911 212.44133333333332 L 50.599547511314 209.70133333333334 L 26.843891402717 210.79733333333334 L 3.0882352941202 209.51866666666666" class="highcharts-area" data-z-index="0"></path><path fill="none" d="M 3.0882352941202 171.15866666666665 L 26.843891402717 170.976 L 50.599547511314 167.14 L 74.355203619911 171.15866666666665 L 98.110859728508 175.17733333333334 L 121.8665158371 170.976 L 145.6221719457 171.88933333333333 L 169.3778280543 169.88 L 193.1334841629 168.236 L 216.88914027149 167.14 L 240.64479638009 169.88 L 264.40045248869 169.69733333333335 L 288.15610859728 170.428 L 311.91176470588 171.34133333333332" class="highcharts-graph" data-z-index="1" stroke-linejoin="round" stroke-linecap="round"></path></g><g data-z-index="0.1" class="highcharts-markers highcharts-series-2 highcharts-area-series " transform="translate(39,72) scale(1 1)" clip-path="none"></g><g data-z-index="0.1" class="highcharts-series highcharts-series-3 highcharts-area-series " transform="translate(39,72) scale(1 1)" clip-path="url(#highcharts-06vni68-7)"><path fill="rgb(180,117,171)" d="M 3.0882352941202 164.03466666666668 L 26.843891402717 164.76533333333333 L 50.599547511314 161.47733333333332 L 74.355203619911 166.22666666666666 L 98.110859728508 169.69733333333335 L 121.8665158371 165.49599999999998 L 145.6221719457 166.95733333333334 L 169.3778280543 164.76533333333333 L 193.1334841629 162.756 L 216.88914027149 161.47733333333332 L 240.64479638009 164.58266666666668 L 264.40045248869 163.66933333333333 L 288.15610859728 163.852 L 311.91176470588 164.94799999999998 L 311.91176470588 171.34133333333332 L 288.15610859728 170.428 L 264.40045248869 169.69733333333335 L 240.64479638009 169.88 L 216.88914027149 167.14 L 193.1334841629 168.236 L 169.3778280543 169.88 L 145.6221719457 171.88933333333333 L 121.8665158371 170.976 L 98.110859728508 175.17733333333334 L 74.355203619911 171.15866666666665 L 50.599547511314 167.14 L 26.843891402717 170.976 L 3.0882352941202 171.15866666666665" class="highcharts-area" data-z-index="0"></path><path fill="none" d="M 3.0882352941202 164.03466666666668 L 26.843891402717 164.76533333333333 L 50.599547511314 161.47733333333332 L 74.355203619911 166.22666666666666 L 98.110859728508 169.69733333333335 L 121.8665158371 165.49599999999998 L 145.6221719457 166.95733333333334 L 169.3778280543 164.76533333333333 L 193.1334841629 162.756 L 216.88914027149 161.47733333333332 L 240.64479638009 164.58266666666668 L 264.40045248869 163.66933333333333 L 288.15610859728 163.852 L 311.91176470588 164.94799999999998" class="highcharts-graph" data-z-index="1" stroke-linejoin="round" stroke-linecap="round"></path></g><g data-z-index="0.1" class="highcharts-markers highcharts-series-3 highcharts-area-series " transform="translate(39,72) scale(1 1)" clip-path="none"></g><g data-z-index="0.1" class="highcharts-series highcharts-series-4 highcharts-area-series " transform="translate(39,72) scale(1 1)" clip-path="url(#highcharts-06vni68-7)"><path fill="rgb(8,161,217)" d="M 3.0882352941202 159.65066666666667 L 26.843891402717 160.19866666666667 L 50.599547511314 155.632 L 74.355203619911 160.38133333333332 L 98.110859728508 164.58266666666668 L 121.8665158371 160.564 L 145.6221719457 162.208 L 169.3778280543 159.46800000000002 L 193.1334841629 156.728 L 216.88914027149 154.90133333333333 L 240.64479638009 156.91066666666666 L 264.40045248869 156.18 L 288.15610859728 156.18 L 311.91176470588 157.09333333333333 L 311.91176470588 164.94799999999998 L 288.15610859728 163.852 L 264.40045248869 163.66933333333333 L 240.64479638009 164.58266666666668 L 216.88914027149 161.47733333333332 L 193.1334841629 162.756 L 169.3778280543 164.76533333333333 L 145.6221719457 166.95733333333334 L 121.8665158371 165.49599999999998 L 98.110859728508 169.69733333333335 L 74.355203619911 166.22666666666666 L 50.599547511314 161.47733333333332 L 26.843891402717 164.76533333333333 L 3.0882352941202 164.03466666666668" class="highcharts-area" data-z-index="0"></path><path fill="none" d="M 3.0882352941202 159.65066666666667 L 26.843891402717 160.19866666666667 L 50.599547511314 155.632 L 74.355203619911 160.38133333333332 L 98.110859728508 164.58266666666668 L 121.8665158371 160.564 L 145.6221719457 162.208 L 169.3778280543 159.46800000000002 L 193.1334841629 156.728 L 216.88914027149 154.90133333333333 L 240.64479638009 156.91066666666666 L 264.40045248869 156.18 L 288.15610859728 156.18 L 311.91176470588 157.09333333333333" class="highcharts-graph" data-z-index="1" stroke-linejoin="round" stroke-linecap="round"></path></g><g data-z-index="0.1" class="highcharts-markers highcharts-series-4 highcharts-area-series " transform="translate(39,72) scale(1 1)" clip-path="none"></g><g data-z-index="0.1" class="highcharts-series highcharts-series-5 highcharts-area-series " transform="translate(39,72) scale(1 1)" clip-path="url(#highcharts-06vni68-7)"><path fill="rgb(131,82,46)" d="M 3.0882352941202 141.56666666666666 L 26.843891402717 138.096 L 50.599547511314 133.34666666666666 L 74.355203619911 137.18266666666668 L 98.110859728508 141.01866666666666 L 121.8665158371 138.82666666666665 L 145.6221719457 140.10533333333333 L 169.3778280543 137.91333333333333 L 193.1334841629 134.07733333333334 L 216.88914027149 132.98133333333334 L 240.64479638009 135.356 L 264.40045248869 133.34666666666666 L 288.15610859728 134.62533333333332 L 311.91176470588 134.07733333333334 L 311.91176470588 157.09333333333333 L 288.15610859728 156.18 L 264.40045248869 156.18 L 240.64479638009 156.91066666666666 L 216.88914027149 154.90133333333333 L 193.1334841629 156.728 L 169.3778280543 159.46800000000002 L 145.6221719457 162.208 L 121.8665158371 160.564 L 98.110859728508 164.58266666666668 L 74.355203619911 160.38133333333332 L 50.599547511314 155.632 L 26.843891402717 160.19866666666667 L 3.0882352941202 159.65066666666667" class="highcharts-area" data-z-index="0"></path><path fill="none" d="M 3.0882352941202 141.56666666666666 L 26.843891402717 138.096 L 50.599547511314 133.34666666666666 L 74.355203619911 137.18266666666668 L 98.110859728508 141.01866666666666 L 121.8665158371 138.82666666666665 L 145.6221719457 140.10533333333333 L 169.3778280543 137.91333333333333 L 193.1334841629 134.07733333333334 L 216.88914027149 132.98133333333334 L 240.64479638009 135.356 L 264.40045248869 133.34666666666666 L 288.15610859728 134.62533333333332 L 311.91176470588 134.07733333333334" class="highcharts-graph" data-z-index="1" stroke-linejoin="round" stroke-linecap="round"></path></g><g data-z-index="0.1" class="highcharts-markers highcharts-series-5 highcharts-area-series " transform="translate(39,72) scale(1 1)" clip-path="none"></g><g data-z-index="0.1" class="highcharts-series highcharts-series-6 highcharts-area-series " transform="translate(39,72) scale(1 1)" clip-path="url(#highcharts-06vni68-7)"><path fill="rgb(255,232,70)" d="M 3.0882352941202 124.21333333333334 L 26.843891402717 117.08933333333334 L 50.599547511314 112.70533333333333 L 74.355203619911 119.09866666666667 L 98.110859728508 125.67466666666667 L 121.8665158371 119.28133333333332 L 145.6221719457 120.37733333333333 L 169.3778280543 114.53199999999998 L 193.1334841629 109.41733333333332 L 216.88914027149 107.77333333333334 L 240.64479638009 109.6 L 264.40045248869 107.95599999999999 L 288.15610859728 111.42666666666665 L 311.91176470588 110.33066666666667 L 311.91176470588 134.07733333333334 L 288.15610859728 134.62533333333332 L 264.40045248869 133.34666666666666 L 240.64479638009 135.356 L 216.88914027149 132.98133333333334 L 193.1334841629 134.07733333333334 L 169.3778280543 137.91333333333333 L 145.6221719457 140.10533333333333 L 121.8665158371 138.82666666666665 L 98.110859728508 141.01866666666666 L 74.355203619911 137.18266666666668 L 50.599547511314 133.34666666666666 L 26.843891402717 138.096 L 3.0882352941202 141.56666666666666" class="highcharts-area" data-z-index="0"></path><path fill="none" d="M 3.0882352941202 124.21333333333334 L 26.843891402717 117.08933333333334 L 50.599547511314 112.70533333333333 L 74.355203619911 119.09866666666667 L 98.110859728508 125.67466666666667 L 121.8665158371 119.28133333333332 L 145.6221719457 120.37733333333333 L 169.3778280543 114.53199999999998 L 193.1334841629 109.41733333333332 L 216.88914027149 107.77333333333334 L 240.64479638009 109.6 L 264.40045248869 107.95599999999999 L 288.15610859728 111.42666666666665 L 311.91176470588 110.33066666666667" class="highcharts-graph" data-z-index="1" stroke-linejoin="round" stroke-linecap="round"></path></g><g data-z-index="0.1" class="highcharts-markers highcharts-series-6 highcharts-area-series " transform="translate(39,72) scale(1 1)" clip-path="none"></g><g data-z-index="0.1" class="highcharts-series highcharts-series-7 highcharts-area-series " transform="translate(39,72) scale(1 1)" clip-path="url(#highcharts-06vni68-7)"><path fill="rgb(60,60,60)" d="M 3.0882352941202 117.63733333333332 L 26.843891402717 110.33066666666667 L 50.599547511314 106.85999999999999 L 74.355203619911 113.61866666666666 L 98.110859728508 120.37733333333333 L 121.8665158371 114.53199999999998 L 145.6221719457 115.44533333333334 L 169.3778280543 109.96533333333332 L 193.1334841629 104.85066666666665 L 216.88914027149 103.93733333333333 L 240.64479638009 105.76399999999998 L 264.40045248869 104.48533333333333 L 288.15610859728 107.77333333333334 L 311.91176470588 106.67733333333334 L 311.91176470588 110.33066666666667 L 288.15610859728 111.42666666666665 L 264.40045248869 107.95599999999999 L 240.64479638009 109.6 L 216.88914027149 107.77333333333334 L 193.1334841629 109.41733333333332 L 169.3778280543 114.53199999999998 L 145.6221719457 120.37733333333333 L 121.8665158371 119.28133333333332 L 98.110859728508 125.67466666666667 L 74.355203619911 119.09866666666667 L 50.599547511314 112.70533333333333 L 26.843891402717 117.08933333333334 L 3.0882352941202 124.21333333333334" class="highcharts-area" data-z-index="0"></path><path fill="none" d="M 3.0882352941202 117.63733333333332 L 26.843891402717 110.33066666666667 L 50.599547511314 106.85999999999999 L 74.355203619911 113.61866666666666 L 98.110859728508 120.37733333333333 L 121.8665158371 114.53199999999998 L 145.6221719457 115.44533333333334 L 169.3778280543 109.96533333333332 L 193.1334841629 104.85066666666665 L 216.88914027149 103.93733333333333 L 240.64479638009 105.76399999999998 L 264.40045248869 104.48533333333333 L 288.15610859728 107.77333333333334 L 311.91176470588 106.67733333333334" class="highcharts-graph" data-z-index="1" stroke-linejoin="round" stroke-linecap="round"></path></g><g data-z-index="0.1" class="highcharts-markers highcharts-series-7 highcharts-area-series " transform="translate(39,72) scale(1 1)" clip-path="none"></g><g data-z-index="0.1" class="highcharts-series highcharts-series-8 highcharts-area-series " transform="translate(39,72) scale(1 1)" clip-path="url(#highcharts-06vni68-7)"><path fill="rgb(200,200,200)" d="M 3.0882352941202 117.45466666666667 L 26.843891402717 110.148 L 50.599547511314 106.67733333333334 L 74.355203619911 113.436 L 98.110859728508 120.19466666666665 L 121.8665158371 114.16666666666666 L 145.6221719457 115.07999999999998 L 169.3778280543 109.6 L 193.1334841629 104.12 L 216.88914027149 103.38933333333333 L 240.64479638009 105.21600000000001 L 264.40045248869 103.75466666666665 L 288.15610859728 106.85999999999999 L 311.91176470588 105.03333333333333 L 311.91176470588 106.67733333333334 L 288.15610859728 107.77333333333334 L 264.40045248869 104.48533333333333 L 240.64479638009 105.76399999999998 L 216.88914027149 103.93733333333333 L 193.1334841629 104.85066666666665 L 169.3778280543 109.96533333333332 L 145.6221719457 115.44533333333334 L 121.8665158371 114.53199999999998 L 98.110859728508 120.37733333333333 L 74.355203619911 113.61866666666666 L 50.599547511314 106.85999999999999 L 26.843891402717 110.33066666666667 L 3.0882352941202 117.63733333333332" class="highcharts-area" data-z-index="0"></path><path fill="none" d="M 3.0882352941202 117.45466666666667 L 26.843891402717 110.148 L 50.599547511314 106.67733333333334 L 74.355203619911 113.436 L 98.110859728508 120.19466666666665 L 121.8665158371 114.16666666666666 L 145.6221719457 115.07999999999998 L 169.3778280543 109.6 L 193.1334841629 104.12 L 216.88914027149 103.38933333333333 L 240.64479638009 105.21600000000001 L 264.40045248869 103.75466666666665 L 288.15610859728 106.85999999999999 L 311.91176470588 105.03333333333333" class="highcharts-graph" data-z-index="1" stroke-linejoin="round" stroke-linecap="round"></path></g><g data-z-index="0.1" class="highcharts-markers highcharts-series-8 highcharts-area-series " transform="translate(39,72) scale(1 1)" clip-path="none"></g><g data-z-index="0.1" class="highcharts-series highcharts-series-9 highcharts-area-series " transform="translate(39,72) scale(1 1)" clip-path="url(#highcharts-06vni68-7)"><path fill="rgb(176,0,0)" d="M 3.0882352941202 114.16666666666666 L 26.843891402717 106.12933333333334 L 50.599547511314 102.11066666666667 L 74.355203619911 109.96533333333332 L 98.110859728508 116.35866666666666 L 121.8665158371 109.78266666666667 L 145.6221719457 110.51333333333332 L 169.3778280543 104.85066666666665 L 193.1334841629 99.18799999999999 L 216.88914027149 98.82266666666666 L 240.64479638009 101.01466666666667 L 264.40045248869 99.37066666666666 L 288.15610859728 103.38933333333333 L 311.91176470588 102.11066666666667 L 311.91176470588 105.03333333333333 L 288.15610859728 106.85999999999999 L 264.40045248869 103.75466666666665 L 240.64479638009 105.21600000000001 L 216.88914027149 103.38933333333333 L 193.1334841629 104.12 L 169.3778280543 109.6 L 145.6221719457 115.07999999999998 L 121.8665158371 114.16666666666666 L 98.110859728508 120.19466666666665 L 74.355203619911 113.436 L 50.599547511314 106.67733333333334 L 26.843891402717 110.148 L 3.0882352941202 117.45466666666667" class="highcharts-area" data-z-index="0"></path><path fill="none" d="M 3.0882352941202 114.16666666666666 L 26.843891402717 106.12933333333334 L 50.599547511314 102.11066666666667 L 74.355203619911 109.96533333333332 L 98.110859728508 116.35866666666666 L 121.8665158371 109.78266666666667 L 145.6221719457 110.51333333333332 L 169.3778280543 104.85066666666665 L 193.1334841629 99.18799999999999 L 216.88914027149 98.82266666666666 L 240.64479638009 101.01466666666667 L 264.40045248869 99.37066666666666 L 288.15610859728 103.38933333333333 L 311.91176470588 102.11066666666667" class="highcharts-graph" data-z-index="1" stroke-linejoin="round" stroke-linecap="round"></path></g><g data-z-index="0.1" class="highcharts-markers highcharts-series-9 highcharts-area-series " transform="translate(39,72) scale(1 1)" clip-path="none"></g><g data-z-index="0.1" class="highcharts-series highcharts-series-10 highcharts-area-series " transform="translate(39,72) scale(1 1)" clip-path="url(#highcharts-06vni68-7)"><path fill="rgb(255,128,40)" d="M 3.0882352941202 112.52266666666665 L 26.843891402717 103.20666666666665 L 50.599547511314 99.37066666666666 L 74.355203619911 106.12933333333334 L 98.110859728508 111.792 L 121.8665158371 105.03333333333333 L 145.6221719457 108.32133333333334 L 169.3778280543 102.84133333333332 L 193.1334841629 96.44800000000001 L 216.88914027149 95.9 L 240.64479638009 96.44800000000001 L 264.40045248869 94.62133333333333 L 288.15610859728 99.37066666666666 L 311.91176470588 97.90933333333334 L 311.91176470588 102.11066666666667 L 288.15610859728 103.38933333333333 L 264.40045248869 99.37066666666666 L 240.64479638009 101.01466666666667 L 216.88914027149 98.82266666666666 L 193.1334841629 99.18799999999999 L 169.3778280543 104.85066666666665 L 145.6221719457 110.51333333333332 L 121.8665158371 109.78266666666667 L 98.110859728508 116.35866666666666 L 74.355203619911 109.96533333333332 L 50.599547511314 102.11066666666667 L 26.843891402717 106.12933333333334 L 3.0882352941202 114.16666666666666" class="highcharts-area" data-z-index="0"></path><path fill="none" d="M 3.0882352941202 112.52266666666665 L 26.843891402717 103.20666666666665 L 50.599547511314 99.37066666666666 L 74.355203619911 106.12933333333334 L 98.110859728508 111.792 L 121.8665158371 105.03333333333333 L 145.6221719457 108.32133333333334 L 169.3778280543 102.84133333333332 L 193.1334841629 96.44800000000001 L 216.88914027149 95.9 L 240.64479638009 96.44800000000001 L 264.40045248869 94.62133333333333 L 288.15610859728 99.37066666666666 L 311.91176470588 97.90933333333334" class="highcharts-graph" data-z-index="1" stroke-linejoin="round" stroke-linecap="round"></path></g><g data-z-index="0.1" class="highcharts-markers highcharts-series-10 highcharts-area-series " transform="translate(39,72) scale(1 1)" clip-path="none"></g><g data-z-index="0.1" class="highcharts-series highcharts-series-11 highcharts-area-series " transform="translate(39,72) scale(1 1)" clip-path="url(#highcharts-06vni68-7)"><path fill="rgb(115,186,124)" d="M 3.0882352941202 110.148 L 26.843891402717 101.74533333333332 L 50.599547511314 97.54399999999998 L 74.355203619911 103.024 L 98.110859728508 107.95599999999999 L 121.8665158371 100.64933333333332 L 145.6221719457 106.67733333333334 L 169.3778280543 100.64933333333332 L 193.1334841629 94.07333333333332 L 216.88914027149 93.16 L 240.64479638009 94.07333333333332 L 264.40045248869 92.064 L 288.15610859728 96.81333333333333 L 311.91176470588 95.53466666666665 L 311.91176470588 97.90933333333334 L 288.15610859728 99.37066666666666 L 264.40045248869 94.62133333333333 L 240.64479638009 96.44800000000001 L 216.88914027149 95.9 L 193.1334841629 96.44800000000001 L 169.3778280543 102.84133333333332 L 145.6221719457 108.32133333333334 L 121.8665158371 105.03333333333333 L 98.110859728508 111.792 L 74.355203619911 106.12933333333334 L 50.599547511314 99.37066666666666 L 26.843891402717 103.20666666666665 L 3.0882352941202 112.52266666666665" class="highcharts-area" data-z-index="0"></path><path fill="none" d="M 3.0882352941202 110.148 L 26.843891402717 101.74533333333332 L 50.599547511314 97.54399999999998 L 74.355203619911 103.024 L 98.110859728508 107.95599999999999 L 121.8665158371 100.64933333333332 L 145.6221719457 106.67733333333334 L 169.3778280543 100.64933333333332 L 193.1334841629 94.07333333333332 L 216.88914027149 93.16 L 240.64479638009 94.07333333333332 L 264.40045248869 92.064 L 288.15610859728 96.81333333333333 L 311.91176470588 95.53466666666665" class="highcharts-graph" data-z-index="1" stroke-linejoin="round" stroke-linecap="round"></path></g><g data-z-index="0.1" class="highcharts-markers highcharts-series-11 highcharts-area-series " transform="translate(39,72) scale(1 1)" clip-path="none"></g><g data-z-index="0.1" class="highcharts-series highcharts-series-12 highcharts-area-series " transform="translate(39,72) scale(1 1)" clip-path="url(#highcharts-06vni68-7)"><path fill="rgb(180,117,171)" d="M 3.0882352941202 108.13866666666667 L 26.843891402717 99.00533333333334 L 50.599547511314 95.16933333333333 L 74.355203619911 102.11066666666667 L 98.110859728508 107.04266666666666 L 121.8665158371 99.37066666666666 L 145.6221719457 105.94666666666666 L 169.3778280543 98.27466666666666 L 193.1334841629 88.95866666666666 L 216.88914027149 89.87199999999999 L 240.64479638009 90.60266666666666 L 264.40045248869 88.41066666666666 L 288.15610859728 93.52533333333332 L 311.91176470588 92.24666666666667 L 311.91176470588 95.53466666666665 L 288.15610859728 96.81333333333333 L 264.40045248869 92.064 L 240.64479638009 94.07333333333332 L 216.88914027149 93.16 L 193.1334841629 94.07333333333332 L 169.3778280543 100.64933333333332 L 145.6221719457 106.67733333333334 L 121.8665158371 100.64933333333332 L 98.110859728508 107.95599999999999 L 74.355203619911 103.024 L 50.599547511314 97.54399999999998 L 26.843891402717 101.74533333333332 L 3.0882352941202 110.148" class="highcharts-area" data-z-index="0"></path><path fill="none" d="M 3.0882352941202 108.13866666666667 L 26.843891402717 99.00533333333334 L 50.599547511314 95.16933333333333 L 74.355203619911 102.11066666666667 L 98.110859728508 107.04266666666666 L 121.8665158371 99.37066666666666 L 145.6221719457 105.94666666666666 L 169.3778280543 98.27466666666666 L 193.1334841629 88.95866666666666 L 216.88914027149 89.87199999999999 L 240.64479638009 90.60266666666666 L 264.40045248869 88.41066666666666 L 288.15610859728 93.52533333333332 L 311.91176470588 92.24666666666667" class="highcharts-graph" data-z-index="1" stroke-linejoin="round" stroke-linecap="round"></path></g><g data-z-index="0.1" class="highcharts-markers highcharts-series-12 highcharts-area-series " transform="translate(39,72) scale(1 1)" clip-path="none"></g><g data-z-index="0.1" class="highcharts-series highcharts-series-13 highcharts-area-series " transform="translate(39,72) scale(1 1)" clip-path="url(#highcharts-06vni68-7)"><path fill="rgb(8,161,217)" d="M 3.0882352941202 107.04266666666666 L 26.843891402717 96.26533333333333 L 50.599547511314 92.79466666666667 L 74.355203619911 100.46666666666667 L 98.110859728508 105.21600000000001 L 121.8665158371 98.45733333333334 L 145.6221719457 105.21600000000001 L 169.3778280543 97.54399999999998 L 193.1334841629 87.86266666666666 L 216.88914027149 87.68 L 240.64479638009 88.22800000000001 L 264.40045248869 86.94933333333333 L 288.15610859728 91.69866666666667 L 311.91176470588 90.60266666666666 L 311.91176470588 92.24666666666667 L 288.15610859728 93.52533333333332 L 264.40045248869 88.41066666666666 L 240.64479638009 90.60266666666666 L 216.88914027149 89.87199999999999 L 193.1334841629 88.95866666666666 L 169.3778280543 98.27466666666666 L 145.6221719457 105.94666666666666 L 121.8665158371 99.37066666666666 L 98.110859728508 107.04266666666666 L 74.355203619911 102.11066666666667 L 50.599547511314 95.16933333333333 L 26.843891402717 99.00533333333334 L 3.0882352941202 108.13866666666667" class="highcharts-area" data-z-index="0"></path><path fill="none" d="M 3.0882352941202 107.04266666666666 L 26.843891402717 96.26533333333333 L 50.599547511314 92.79466666666667 L 74.355203619911 100.46666666666667 L 98.110859728508 105.21600000000001 L 121.8665158371 98.45733333333334 L 145.6221719457 105.21600000000001 L 169.3778280543 97.54399999999998 L 193.1334841629 87.86266666666666 L 216.88914027149 87.68 L 240.64479638009 88.22800000000001 L 264.40045248869 86.94933333333333 L 288.15610859728 91.69866666666667 L 311.91176470588 90.60266666666666" class="highcharts-graph" data-z-index="1" stroke-linejoin="round" stroke-linecap="round"></path></g><g data-z-index="0.1" class="highcharts-markers highcharts-series-13 highcharts-area-series " transform="translate(39,72) scale(1 1)" clip-path="none"></g><g data-z-index="0.1" class="highcharts-series highcharts-series-14 highcharts-area-series " transform="translate(39,72) scale(1 1)" clip-path="url(#highcharts-06vni68-7)"><path fill="rgb(131,82,46)" d="M 3.0882352941202 100.46666666666667 L 26.843891402717 89.68933333333334 L 50.599547511314 86.40133333333333 L 74.355203619911 94.43866666666665 L 98.110859728508 99.91866666666667 L 121.8665158371 92.24666666666667 L 145.6221719457 98.82266666666666 L 169.3778280543 91.69866666666667 L 193.1334841629 82.93066666666667 L 216.88914027149 82.93066666666667 L 240.64479638009 83.66133333333332 L 264.40045248869 82.93066666666667 L 288.15610859728 87.31466666666665 L 311.91176470588 86.76666666666665 L 311.91176470588 90.60266666666666 L 288.15610859728 91.69866666666667 L 264.40045248869 86.94933333333333 L 240.64479638009 88.22800000000001 L 216.88914027149 87.68 L 193.1334841629 87.86266666666666 L 169.3778280543 97.54399999999998 L 145.6221719457 105.21600000000001 L 121.8665158371 98.45733333333334 L 98.110859728508 105.21600000000001 L 74.355203619911 100.46666666666667 L 50.599547511314 92.79466666666667 L 26.843891402717 96.26533333333333 L 3.0882352941202 107.04266666666666" class="highcharts-area" data-z-index="0"></path><path fill="none" d="M 3.0882352941202 100.46666666666667 L 26.843891402717 89.68933333333334 L 50.599547511314 86.40133333333333 L 74.355203619911 94.43866666666665 L 98.110859728508 99.91866666666667 L 121.8665158371 92.24666666666667 L 145.6221719457 98.82266666666666 L 169.3778280543 91.69866666666667 L 193.1334841629 82.93066666666667 L 216.88914027149 82.93066666666667 L 240.64479638009 83.66133333333332 L 264.40045248869 82.93066666666667 L 288.15610859728 87.31466666666665 L 311.91176470588 86.76666666666665" class="highcharts-graph" data-z-index="1" stroke-linejoin="round" stroke-linecap="round"></path></g><g data-z-index="0.1" class="highcharts-markers highcharts-series-14 highcharts-area-series " transform="translate(39,72) scale(1 1)" clip-path="none"></g><g data-z-index="0.1" class="highcharts-series highcharts-series-15 highcharts-area-series " transform="translate(39,72) scale(1 1)" clip-path="url(#highcharts-06vni68-7)"><path fill="rgb(255,232,70)" d="M 3.0882352941202 96.81333333333333 L 26.843891402717 83.11333333333332 L 50.599547511314 81.10399999999998 L 74.355203619911 90.60266666666666 L 98.110859728508 96.44800000000001 L 121.8665158371 87.49733333333333 L 145.6221719457 94.98666666666665 L 169.3778280543 88.04533333333333 L 193.1334841629 79.27733333333333 L 216.88914027149 78.72933333333333 L 240.64479638009 79.46000000000001 L 264.40045248869 78.912 L 288.15610859728 82.74799999999999 L 311.91176470588 82.56533333333334 L 311.91176470588 86.76666666666665 L 288.15610859728 87.31466666666665 L 264.40045248869 82.93066666666667 L 240.64479638009 83.66133333333332 L 216.88914027149 82.93066666666667 L 193.1334841629 82.93066666666667 L 169.3778280543 91.69866666666667 L 145.6221719457 98.82266666666666 L 121.8665158371 92.24666666666667 L 98.110859728508 99.91866666666667 L 74.355203619911 94.43866666666665 L 50.599547511314 86.40133333333333 L 26.843891402717 89.68933333333334 L 3.0882352941202 100.46666666666667" class="highcharts-area" data-z-index="0"></path><path fill="none" d="M 3.0882352941202 96.81333333333333 L 26.843891402717 83.11333333333332 L 50.599547511314 81.10399999999998 L 74.355203619911 90.60266666666666 L 98.110859728508 96.44800000000001 L 121.8665158371 87.49733333333333 L 145.6221719457 94.98666666666665 L 169.3778280543 88.04533333333333 L 193.1334841629 79.27733333333333 L 216.88914027149 78.72933333333333 L 240.64479638009 79.46000000000001 L 264.40045248869 78.912 L 288.15610859728 82.74799999999999 L 311.91176470588 82.56533333333334" class="highcharts-graph" data-z-index="1" stroke-linejoin="round" stroke-linecap="round"></path></g><g data-z-index="0.1" class="highcharts-markers highcharts-series-15 highcharts-area-series " transform="translate(39,72) scale(1 1)" clip-path="none"></g><g data-z-index="0.1" class="highcharts-series highcharts-series-16 highcharts-area-series " transform="translate(39,72) scale(1 1)" clip-path="url(#highcharts-06vni68-7)"><path fill="rgb(60,60,60)" d="M 3.0882352941202 77.63333333333333 L 26.843891402717 62.47200000000001 L 50.599547511314 58.45333333333332 L 74.355203619911 71.05733333333333 L 98.110859728508 75.076 L 121.8665158371 55.53066666666666 L 145.6221719457 64.29866666666666 L 169.3778280543 53.52133333333333 L 193.1334841629 34.70666666666665 L 216.88914027149 33.610666666666674 L 240.64479638009 33.976 L 264.40045248869 28.313333333333333 L 288.15610859728 26.121333333333325 L 311.91176470588 27.582666666666654 L 311.91176470588 82.56533333333334 L 288.15610859728 82.74799999999999 L 264.40045248869 78.912 L 240.64479638009 79.46000000000001 L 216.88914027149 78.72933333333333 L 193.1334841629 79.27733333333333 L 169.3778280543 88.04533333333333 L 145.6221719457 94.98666666666665 L 121.8665158371 87.49733333333333 L 98.110859728508 96.44800000000001 L 74.355203619911 90.60266666666666 L 50.599547511314 81.10399999999998 L 26.843891402717 83.11333333333332 L 3.0882352941202 96.81333333333333" class="highcharts-area" data-z-index="0"></path><path fill="none" d="M 3.0882352941202 77.63333333333333 L 26.843891402717 62.47200000000001 L 50.599547511314 58.45333333333332 L 74.355203619911 71.05733333333333 L 98.110859728508 75.076 L 121.8665158371 55.53066666666666 L 145.6221719457 64.29866666666666 L 169.3778280543 53.52133333333333 L 193.1334841629 34.70666666666665 L 216.88914027149 33.610666666666674 L 240.64479638009 33.976 L 264.40045248869 28.313333333333333 L 288.15610859728 26.121333333333325 L 311.91176470588 27.582666666666654" class="highcharts-graph" data-z-index="1" stroke-linejoin="round" stroke-linecap="round"></path></g><g data-z-index="0.1" class="highcharts-markers highcharts-series-16 highcharts-area-series " transform="translate(39,72) scale(1 1)" clip-path="none"></g></g><text x="10" text-anchor="start" class="highcharts-title" data-z-index="4" style="color:#000000;font-size:14px;font-weight:bold;fill:#000000;" y="21"><tspan>Ausländische Bevölkerung nach Staatsangehörigkeit und</tspan><tspan dy="17" x="10">Wohnviertel</tspan></text><text x="10" text-anchor="start" class="highcharts-subtitle" data-z-index="4" style="color:#000000;font-size:12px;font-weight:normal;font-family:Arial;fill:#000000;" y="57"><tspan>Kleinhüningen</tspan></text><g class="highcharts-legend" data-z-index="7" transform="translate(359,27)"><rect fill="none" class="highcharts-legend-box" rx="0" ry="0" x="0" y="0" width="116" height="337" visibility="visible"></rect><g data-z-index="1"><g><g class="highcharts-legend-item highcharts-area-series highcharts-color-undefined highcharts-series-16" data-z-index="1" transform="translate(5,0)"><text x="21" style="color:#333333;font-size:12px;font-weight:normal;cursor:pointer;fill:#333333;" text-anchor="start" data-z-index="2" y="15"><tspan>Übrige</tspan></text><rect x="2" y="4" width="12" height="12" fill="rgb(60, 60, 60)" class="highcharts-point" data-z-index="3"></rect></g><g class="highcharts-legend-item highcharts-area-series highcharts-color-undefined highcharts-series-15" data-z-index="1" transform="translate(5,16)"><text x="21" y="15" style="color:#333333;font-size:12px;font-weight:normal;cursor:pointer;fill:#333333;" text-anchor="start" data-z-index="2"><tspan>Sri Lanka</tspan></text><rect x="2" y="4" width="12" height="12" fill="rgb(255, 232, 70)" class="highcharts-point" data-z-index="3"></rect></g><g class="highcharts-legend-item highcharts-area-series highcharts-color-undefined highcharts-series-14" data-z-index="1" transform="translate(5,32)"><text x="21" y="15" style="color:#333333;font-size:12px;font-weight:normal;cursor:pointer;fill:#333333;" text-anchor="start" data-z-index="2"><tspan>Österreich</tspan></text><rect x="2" y="4" width="12" height="12" fill="rgb(131, 82, 46)" class="highcharts-point" data-z-index="3"></rect></g><g class="highcharts-legend-item highcharts-area-series highcharts-color-undefined highcharts-series-13" data-z-index="1" transform="translate(5,48)"><text x="21" y="15" style="color:#333333;font-size:12px;font-weight:normal;cursor:pointer;fill:#333333;" text-anchor="start" data-z-index="2"><tspan>Vereinigte</tspan><tspan x="21" dy="15">Staaten</tspan></text><rect x="2" y="4" width="12" height="12" fill="rgb(8, 161, 217)" class="highcharts-point" data-z-index="3"></rect></g><g class="highcharts-legend-item highcharts-area-series highcharts-color-undefined highcharts-series-12" data-z-index="1" transform="translate(5,79)"><text x="21" y="15" style="color:#333333;font-size:12px;font-weight:normal;cursor:pointer;fill:#333333;" text-anchor="start" data-z-index="2"><tspan>Indien</tspan></text><rect x="2" y="4" width="12" height="12" fill="rgb(180, 117, 171)" class="highcharts-point" data-z-index="3"></rect></g><g class="highcharts-legend-item highcharts-area-series highcharts-color-undefined highcharts-series-11" data-z-index="1" transform="translate(5,95)"><text x="21" y="15" style="color:#333333;font-size:12px;font-weight:normal;cursor:pointer;fill:#333333;" text-anchor="start" data-z-index="2"><tspan>Frankreich</tspan></text><rect x="2" y="4" width="12" height="12" fill="rgb(115, 186, 124)" class="highcharts-point" data-z-index="3"></rect></g><g class="highcharts-legend-item highcharts-area-series highcharts-color-undefined highcharts-series-10" data-z-index="1" transform="translate(5,111)"><text x="21" y="15" style="color:#333333;font-size:12px;font-weight:normal;cursor:pointer;fill:#333333;" text-anchor="start" data-z-index="2"><tspan>Vereinigtes</tspan><tspan x="21" dy="15">Königreich</tspan></text><rect x="2" y="4" width="12" height="12" fill="rgb(255, 128, 40)" class="highcharts-point" data-z-index="3"></rect></g><g class="highcharts-legend-item highcharts-area-series highcharts-color-undefined highcharts-series-9" data-z-index="1" transform="translate(5,142)"><text x="21" y="15" style="color:#333333;font-size:12px;font-weight:normal;cursor:pointer;fill:#333333;" text-anchor="start" data-z-index="2"><tspan>Kroatien</tspan></text><rect x="2" y="4" width="12" height="12" fill="rgb(176, 0, 0)" class="highcharts-point" data-z-index="3"></rect></g><g class="highcharts-legend-item highcharts-area-series highcharts-color-undefined highcharts-series-8" data-z-index="1" transform="translate(5,158)"><text x="21" y="15" style="color:#333333;font-size:12px;font-weight:normal;cursor:pointer;fill:#333333;" text-anchor="start" data-z-index="2"><tspan>Slowenien</tspan></text><rect x="2" y="4" width="12" height="12" fill="rgb(200, 200, 200)" class="highcharts-point" data-z-index="3"></rect></g><g class="highcharts-legend-item highcharts-area-series highcharts-color-undefined highcharts-series-7" data-z-index="1" transform="translate(5,174)"><text x="21" y="15" style="color:#333333;font-size:12px;font-weight:normal;cursor:pointer;fill:#333333;" text-anchor="start" data-z-index="2"><tspan>Bosnien und</tspan><tspan x="21" dy="15">Herzegowina</tspan></text><rect x="2" y="4" width="12" height="12" fill="rgb(60, 60, 60)" class="highcharts-point" data-z-index="3"></rect></g><g class="highcharts-legend-item highcharts-area-series highcharts-color-undefined highcharts-series-6" data-z-index="1" transform="translate(5,205)"><text x="21" y="15" style="color:#333333;font-size:12px;font-weight:normal;cursor:pointer;fill:#333333;" text-anchor="start" data-z-index="2"><tspan>Serbien, Monte-</tspan><tspan x="21" dy="15">negro, Kosovo</tspan></text><rect x="2" y="4" width="12" height="12" fill="rgb(255, 232, 70)" class="highcharts-point" data-z-index="3"></rect></g><g class="highcharts-legend-item highcharts-area-series highcharts-color-undefined highcharts-series-5" data-z-index="1" transform="translate(5,236)"><text x="21" y="15" style="color:#333333;font-size:12px;font-weight:normal;cursor:pointer;fill:#333333;" text-anchor="start" data-z-index="2"><tspan>Mazedonien</tspan></text><rect x="2" y="4" width="12" height="12" fill="rgb(131, 82, 46)" class="highcharts-point" data-z-index="3"></rect></g><g class="highcharts-legend-item highcharts-area-series highcharts-color-undefined highcharts-series-4" data-z-index="1" transform="translate(5,252)"><text x="21" y="15" style="color:#333333;font-size:12px;font-weight:normal;cursor:pointer;fill:#333333;" text-anchor="start" data-z-index="2"><tspan>Portugal</tspan></text><rect x="2" y="4" width="12" height="12" fill="rgb(8, 161, 217)" class="highcharts-point" data-z-index="3"></rect></g><g class="highcharts-legend-item highcharts-area-series highcharts-color-undefined highcharts-series-3" data-z-index="1" transform="translate(5,268)"><text x="21" y="15" style="color:#333333;font-size:12px;font-weight:normal;cursor:pointer;fill:#333333;" text-anchor="start" data-z-index="2"><tspan>Spanien</tspan></text><rect x="2" y="4" width="12" height="12" fill="rgb(180, 117, 171)" class="highcharts-point" data-z-index="3"></rect></g><g class="highcharts-legend-item highcharts-area-series highcharts-color-undefined highcharts-series-2" data-z-index="1" transform="translate(5,284)"><text x="21" y="15" style="color:#333333;font-size:12px;font-weight:normal;cursor:pointer;fill:#333333;" text-anchor="start" data-z-index="2"><tspan>Türkei</tspan></text><rect x="2" y="4" width="12" height="12" fill="rgb(115, 186, 124)" class="highcharts-point" data-z-index="3"></rect></g><g class="highcharts-legend-item highcharts-area-series highcharts-color-undefined highcharts-series-1" data-z-index="1" transform="translate(5,300)"><text x="21" y="15" style="color:#333333;font-size:12px;font-weight:normal;cursor:pointer;fill:#333333;" text-anchor="start" data-z-index="2"><tspan>Italien</tspan></text><rect x="2" y="4" width="12" height="12" fill="rgb(255, 128, 40)" class="highcharts-point" data-z-index="3"></rect></g><g class="highcharts-legend-item highcharts-area-series highcharts-color-undefined highcharts-series-0" data-z-index="1" transform="translate(5,316)"><text x="21" y="15" style="color:#333333;font-size:12px;font-weight:normal;cursor:pointer;fill:#333333;" text-anchor="start" data-z-index="2"><tspan>Deutschland</tspan></text><rect x="2" y="4" width="12" height="12" fill="rgb(176, 0, 0)" class="highcharts-point" data-z-index="3"></rect></g></g></g></g><g class="highcharts-axis-labels highcharts-xaxis-labels " data-z-index="7"><text x="44.68096015847067" style="color:#000000;cursor:default;font-size:11px;fill:#000000;" text-anchor="end" transform="translate(0,0) rotate(-45 44.68096015847067 362)" y="362" opacity="1">2004</text><text x="68.43661626706768" style="color:#000000;cursor:default;font-size:11px;fill:#000000;" text-anchor="end" transform="translate(0,0) rotate(-45 68.43661626706768 362)" y="362" opacity="1">2005</text><text x="92.19227237566467" style="color:#000000;cursor:default;font-size:11px;fill:#000000;" text-anchor="end" transform="translate(0,0) rotate(-45 92.19227237566467 362)" y="362" opacity="1">2006</text><text x="115.94792848426067" style="color:#000000;cursor:default;font-size:11px;fill:#000000;" text-anchor="end" transform="translate(0,0) rotate(-45 115.94792848426067 362)" y="362" opacity="1">2007</text><text x="139.7035845928607" style="color:#000000;cursor:default;font-size:11px;fill:#000000;" text-anchor="end" transform="translate(0,0) rotate(-45 139.7035845928607 362)" y="362" opacity="1">2008</text><text x="163.45924070145068" style="color:#000000;cursor:default;font-size:11px;fill:#000000;" text-anchor="end" transform="translate(0,0) rotate(-45 163.45924070145068 362)" y="362" opacity="1">2009</text><text x="187.21489681005067" style="color:#000000;cursor:default;font-size:11px;fill:#000000;" text-anchor="end" transform="translate(0,0) rotate(-45 187.21489681005067 362)" y="362" opacity="1">2010</text><text x="210.9705529186507" style="color:#000000;cursor:default;font-size:11px;fill:#000000;" text-anchor="end" transform="translate(0,0) rotate(-45 210.9705529186507 362)" y="362" opacity="1">2011</text><text x="234.7262090272507" style="color:#000000;cursor:default;font-size:11px;fill:#000000;" text-anchor="end" transform="translate(0,0) rotate(-45 234.7262090272507 362)" y="362" opacity="1">2012</text><text x="258.4818651358407" style="color:#000000;cursor:default;font-size:11px;fill:#000000;" text-anchor="end" transform="translate(0,0) rotate(-45 258.4818651358407 362)" y="362" opacity="1">2013</text><text x="282.23752124444064" style="color:#000000;cursor:default;font-size:11px;fill:#000000;" text-anchor="end" transform="translate(0,0) rotate(-45 282.23752124444064 362)" y="362" opacity="1">2014</text><text x="305.99317735304066" style="color:#000000;cursor:default;font-size:11px;fill:#000000;" text-anchor="end" transform="translate(0,0) rotate(-45 305.99317735304066 362)" y="362" opacity="1">2015</text><text x="329.7488334616307" style="color:#000000;cursor:default;font-size:11px;fill:#000000;" text-anchor="end" transform="translate(0,0) rotate(-45 329.7488334616307 362)" y="362" opacity="1">2016</text><text x="353.50448957023065" style="color:#000000;cursor:default;font-size:11px;fill:#000000;" text-anchor="end" transform="translate(0,0) rotate(-45 353.50448957023065 362)" y="362" opacity="1">2017</text></g><g class="highcharts-axis-labels highcharts-yaxis-labels " data-z-index="7"><text x="34" style="color:#000000;cursor:default;font-size:11px;fill:#000000;" text-anchor="end" transform="translate(0,0)" y="351" opacity="1">0</text><text x="34" style="color:#000000;cursor:default;font-size:11px;fill:#000000;" text-anchor="end" transform="translate(0,0)" y="305" opacity="1">250</text><text x="34" style="color:#000000;cursor:default;font-size:11px;fill:#000000;" text-anchor="end" transform="translate(0,0)" y="259" opacity="1">500</text><text x="34" style="color:#000000;cursor:default;font-size:11px;fill:#000000;" text-anchor="end" transform="translate(0,0)" y="214" opacity="1">750</text><text x="34" style="color:#000000;cursor:default;font-size:11px;fill:#000000;" text-anchor="end" transform="translate(0,0)" y="168" opacity="1">1000</text><text x="34" style="color:#000000;cursor:default;font-size:11px;fill:#000000;" text-anchor="end" transform="translate(0,0)" y="122" opacity="1">1250</text><text x="34" style="color:#000000;cursor:default;font-size:11px;fill:#000000;" text-anchor="end" transform="translate(0,0)" y="77" opacity="1">1500</text></g><text x="10" class="highcharts-credits" text-anchor="start" data-z-index="8" style="cursor:default;color:#000000;font-size:10px;fill:#000000;" y="410"><tspan>Quelle:</tspan></text></svg>