<?xml version="1.0" standalone="no"?><!DOCTYPE svg PUBLIC "-//W3C//DTD SVG 1.1//EN" "http://www.w3.org/Graphics/SVG/1.1/DTD/svg11.dtd"><svg xmlns:xlink="http://www.w3.org/1999/xlink" version="1.1" class="highcharts-root" style="font-family:Arial;font-size:12px;" xmlns="http://www.w3.org/2000/svg" viewBox="0 0 485 415"><desc>Created with Highstock 6.1.1</desc><defs><clipPath id="highcharts-hlfivnq-6"><rect x="0" y="0" width="438" height="243" fill="none"></rect></clipPath><clipPath id="highcharts-hlfivnq-7"><rect x="0" y="0" width="438" height="243" fill="none"></rect></clipPath></defs><rect fill="#fbfbfb" class="highcharts-background" x="0" y="0" width="485" height="415" rx="0" ry="0"></rect><rect fill="none" class="highcharts-plot-background" x="37" y="97" width="438" height="243"></rect><g class="highcharts-pane-group" data-z-index="0"></g><g class="highcharts-grid highcharts-xaxis-grid " data-z-index="1"><path fill="none" data-z-index="1" class="highcharts-grid-line" d="M 40.5 97 L 40.5 340" opacity="1"></path><path fill="none" data-z-index="1" class="highcharts-grid-line" d="M 62.5 97 L 62.5 340" opacity="1"></path><path fill="none" data-z-index="1" class="highcharts-grid-line" d="M 83.5 97 L 83.5 340" opacity="1"></path><path fill="none" data-z-index="1" class="highcharts-grid-line" d="M 105.5 97 L 105.5 340" opacity="1"></path><path fill="none" data-z-index="1" class="highcharts-grid-line" d="M 126.5 97 L 126.5 340" opacity="1"></path><path fill="none" data-z-index="1" class="highcharts-grid-line" d="M 148.5 97 L 148.5 340" opacity="1"></path><path fill="none" data-z-index="1" class="highcharts-grid-line" d="M 169.5 97 L 169.5 340" opacity="1"></path><path fill="none" data-z-index="1" class="highcharts-grid-line" d="M 191.5 97 L 191.5 340" opacity="1"></path><path fill="none" data-z-index="1" class="highcharts-grid-line" d="M 212.5 97 L 212.5 340" opacity="1"></path><path fill="none" data-z-index="1" class="highcharts-grid-line" d="M 234.5 97 L 234.5 340" opacity="1"></path><path fill="none" data-z-index="1" class="highcharts-grid-line" d="M 255.5 97 L 255.5 340" opacity="1"></path><path fill="none" data-z-index="1" class="highcharts-grid-line" d="M 276.5 97 L 276.5 340" opacity="1"></path><path fill="none" data-z-index="1" class="highcharts-grid-line" d="M 298.5 97 L 298.5 340" opacity="1"></path><path fill="none" data-z-index="1" class="highcharts-grid-line" d="M 319.5 97 L 319.5 340" opacity="1"></path><path fill="none" data-z-index="1" class="highcharts-grid-line" d="M 341.5 97 L 341.5 340" opacity="1"></path><path fill="none" data-z-index="1" class="highcharts-grid-line" d="M 362.5 97 L 362.5 340" opacity="1"></path><path fill="none" data-z-index="1" class="highcharts-grid-line" d="M 384.5 97 L 384.5 340" opacity="1"></path><path fill="none" data-z-index="1" class="highcharts-grid-line" d="M 405.5 97 L 405.5 340" opacity="1"></path><path fill="none" data-z-index="1" class="highcharts-grid-line" d="M 427.5 97 L 427.5 340" opacity="1"></path><path fill="none" data-z-index="1" class="highcharts-grid-line" d="M 448.5 97 L 448.5 340" opacity="1"></path><path fill="none" data-z-index="1" class="highcharts-grid-line" d="M 470.5 97 L 470.5 340" opacity="1"></path></g><g class="highcharts-grid highcharts-yaxis-grid " data-z-index="1"><path fill="none" stroke="#B9CFD7" stroke-width="0.5" data-z-index="1" class="highcharts-grid-line" d="M 37 340.25 L 475 340.25" opacity="1"></path><path fill="none" stroke="#B9CFD7" stroke-width="0.5" data-z-index="1" class="highcharts-grid-line" d="M 37 279.25 L 475 279.25" opacity="1"></path><path fill="none" stroke="#B9CFD7" stroke-width="0.5" data-z-index="1" class="highcharts-grid-line" d="M 37 219.25 L 475 219.25" opacity="1"></path><path fill="none" stroke="#B9CFD7" stroke-width="0.5" data-z-index="1" class="highcharts-grid-line" d="M 37 158.25 L 475 158.25" opacity="1"></path><path fill="none" stroke="#B9CFD7" stroke-width="0.5" data-z-index="1" class="highcharts-grid-line" d="M 37 96.75 L 475 96.75" opacity="1"></path></g><rect fill="none" class="highcharts-plot-border" data-z-index="1" x="37" y="97" width="438" height="243"></rect><g class="highcharts-axis highcharts-xaxis " data-z-index="2"><path fill="none" class="highcharts-axis-line" stroke="#B9CFD7" stroke-width="0.5" data-z-index="7" d="M 37 340.25 L 475 340.25"></path></g><g class="highcharts-axis highcharts-yaxis " data-z-index="2"><path fill="none" class="highcharts-axis-line" data-z-index="7" d="M 37 97 L 37 340"></path></g><g class="highcharts-series-group" data-z-index="3"><g data-z-index="0.1" class="highcharts-series highcharts-series-0 highcharts-line-series " transform="translate(37,97) scale(1 1)" clip-path="url(#highcharts-hlfivnq-7)"><path fill="none" d="M 4.2941176470588 110.07900000000001 L 8.5882352941176 152.361 L 12.882352941176 145.071 L 17.176470588235 140.697 L 21.470588235294 149.688 L 25.764705882353 151.875 L 30.058823529412 138.99599999999998 L 34.352941176471 146.043 L 38.647058823529 116.154 L 42.941176470588 122.95799999999998 L 47.235294117647 112.75199999999998 L 51.529411764706 75.32999999999998 L 55.823529411765 91.85400000000001 L 60.117647058824 53.946 L 64.411764705882 95.74200000000002 L 68.705882352941 76.30199999999999 L 73 78.24599999999998 L 77.294117647059 45.92700000000002 L 81.588235294118 131.463 L 85.882352941176 127.575 L 90.176470588235 126.117 L 94.470588235294 125.14500000000001 L 98.764705882353 128.06099999999998 L 103.05882352941 119.556 L 107.35294117647 107.649 L 111.64705882353 122.95799999999998 L 115.94117647059 123.444 L 120.23529411765 109.35 L 124.52941176471 119.07000000000001 L 128.82352941176 110.565 L 133.11764705882 111.05100000000002 L 137.41176470588 111.29400000000001 L 141.70588235294 124.173 L 146 122.229 L 150.29411764706 110.07900000000001 L 154.58823529412 110.322 L 158.88235294118 120.77099999999999 L 163.17647058824 109.107 L 167.47058823529 111.29400000000001 L 171.76470588235 109.83599999999998 L 176.05882352941 108.37799999999999 L 180.35294117647 94.52699999999999 L 184.64705882353 106.67699999999999 L 188.94117647059 101.81700000000001 L 193.23529411765 81.648 L 197.52941176471 93.31199999999998 L 201.82352941176 78.24599999999998 L 206.11764705882 98.41499999999999 L 210.41176470588 105.219 L 214.70588235294 90.39599999999999 L 219 90.39599999999999 L 223.29411764706 78.489 L 227.58823529412 89.18099999999998 L 231.88235294118 65.85299999999998 L 236.17647058824 79.947 L 240.47058823529 76.30199999999999 L 244.76470588235 77.031 L 249.05882352941 78.24599999999998 L 253.35294117647 60.507000000000005 L 257.64705882353 50.54399999999998 L 261.94117647059 53.46000000000001 L 266.23529411765 55.889999999999986 L 270.52941176471 51.51599999999999 L 274.82352941176 54.43199999999999 L 279.11764705882 38.394000000000005 L 283.41176470588 56.619 L 287.70588235294 46.656000000000006 L 292 32.31899999999999 L 296.29411764706 50.54399999999998 L 300.58823529412 34.506 L 304.88235294118 40.095 L 309.17647058824 38.879999999999995 L 313.47058823529 48.84299999999999 L 317.76470588235 41.553000000000026 L 322.05882352941 37.42199999999997 L 326.35294117647 39.12299999999999 L 330.64705882353 36.692999999999984 L 334.94117647059 37.908000000000015 L 339.23529411765 33.04799999999997 L 343.52941176471 13.608000000000004 L 347.82352941176 34.02000000000001 L 352.11764705882 27.944999999999993 L 356.41176470588 26.001000000000005 L 360.70588235294 26.486999999999995 L 365 18.224999999999994 L 369.29411764706 36.93599999999998 L 373.58823529412 33.29099999999997 L 377.88235294118 27.459000000000003 L 382.17647058824 34.748999999999995 L 386.47058823529 35.47800000000001 L 390.76470588235 40.58099999999999 L 395.05882352941 32.31899999999999 L 399.35294117647 44.71199999999999 L 403.64705882353 39.365999999999985 L 407.94117647059 81.648 L 412.23529411765 89.667 L 416.52941176471 80.43299999999999 L 420.82352941176 90.15299999999999 L 425.11764705882 18.95399999999998 L 429.41176470588 21.62700000000001 L 433.70588235294 58.077" class="highcharts-graph" data-z-index="1" stroke="#A0BEC8" stroke-width="2" stroke-linejoin="round" stroke-linecap="round"></path></g><g data-z-index="0.1" class="highcharts-markers highcharts-series-0 highcharts-line-series " transform="translate(37,97) scale(1 1)" clip-path="none"></g><g data-z-index="0.1" class="highcharts-series highcharts-series-1 highcharts-line-series " visibility="hidden" transform="translate(37,97) scale(1 1)" clip-path="url(#highcharts-hlfivnq-7)"><path fill="none" d="M 4.2941176470588 117.126 L 8.5882352941176 157.464 L 12.882352941176 147.25799999999998 L 17.176470588235 143.856 L 21.470588235294 155.034 L 25.764705882353 155.763 L 30.058823529412 149.202 L 34.352941176471 143.613 L 38.647058823529 151.875 L 42.941176470588 111.537 L 47.235294117647 120.77099999999999 L 51.529411764706 111.05100000000002 L 55.823529411765 85.53599999999997 L 60.117647058824 64.39500000000001 L 64.411764705882 82.62 L 68.705882352941 40.823999999999984 L 73 61.72200000000001 L 77.294117647059 79.21799999999999 L 81.588235294118 82.863 L 85.882352941176 104.73299999999998 L 90.176470588235 103.761 L 94.470588235294 101.57399999999998 L 98.764705882353 118.58399999999999 L 103.05882352941 126.36 L 107.35294117647 109.35 L 111.64705882353 126.117 L 115.94117647059 112.023 L 120.23529411765 123.687 L 124.52941176471 117.612 L 128.82352941176 115.66799999999999 L 133.11764705882 124.173 L 137.41176470588 112.023 L 141.70588235294 120.285 L 146 108.62099999999998 L 150.29411764706 118.098 L 154.58823529412 106.191 L 158.88235294118 114.453 L 163.17647058824 112.023 L 167.47058823529 113.238 L 171.76470588235 104.976 L 176.05882352941 103.03200000000001 L 180.35294117647 104.73299999999998 L 184.64705882353 112.995 L 188.94117647059 99.387 L 193.23529411765 82.13399999999999 L 197.52941176471 95.013 L 201.82352941176 97.19999999999999 L 206.11764705882 85.53599999999997 L 210.41176470588 92.34 L 214.70588235294 80.67600000000002 L 219 86.994 L 223.29411764706 80.19 L 227.58823529412 89.42399999999998 L 231.88235294118 71.19899999999998 L 236.17647058824 77.517 L 240.47058823529 87.96600000000001 L 244.76470588235 68.769 L 249.05882352941 76.059 L 253.35294117647 71.685 L 257.64705882353 73.143 L 261.94117647059 61.965 L 266.23529411765 62.69399999999999 L 270.52941176471 62.208 L 274.82352941176 58.31999999999999 L 279.11764705882 56.619 L 283.41176470588 61.23599999999999 L 287.70588235294 59.77799999999999 L 292 38.394000000000005 L 296.29411764706 44.954999999999984 L 300.58823529412 30.617999999999995 L 304.88235294118 45.440999999999974 L 309.17647058824 24.542999999999978 L 313.47058823529 37.908000000000015 L 317.76470588235 28.916999999999973 L 322.05882352941 34.02000000000001 L 326.35294117647 27.459000000000003 L 330.64705882353 35.47800000000001 L 334.94117647059 26.972999999999985 L 339.23529411765 28.187999999999988 L 343.52941176471 15.065999999999974 L 347.82352941176 20.897999999999968 L 352.11764705882 25.515000000000015 L 356.41176470588 16.280999999999977 L 360.70588235294 18.710999999999984 L 365 26.486999999999995 L 369.29411764706 36.206999999999994 L 373.58823529412 35.47800000000001 L 377.88235294118 33.777000000000015 L 382.17647058824 35.47800000000001 L 386.47058823529 53.703 L 390.76470588235 55.889999999999986 L 395.05882352941 49.32900000000001 L 399.35294117647 55.403999999999996 L 403.64705882353 72.9 L 407.94117647059 54.91799999999998 L 412.23529411765 37.42199999999997 L 416.52941176471 93.06899999999999 L 420.82352941176 96.471 L 425.11764705882 38.15100000000001 L 429.41176470588 107.16300000000001 L 433.70588235294 -2.430000000000007" class="highcharts-graph" data-z-index="1" stroke="#7F5F1A" stroke-width="2" stroke-linejoin="round" stroke-linecap="round"></path></g><g data-z-index="0.1" class="highcharts-markers highcharts-series-1 highcharts-line-series " visibility="hidden" transform="translate(37,97) scale(1 1)" clip-path="none"></g><g data-z-index="0.1" class="highcharts-series highcharts-series-2 highcharts-line-series " visibility="hidden" transform="translate(37,97) scale(1 1)" clip-path="url(#highcharts-hlfivnq-7)"><path fill="none" d="M 4.2941176470588 114.21000000000001 L 8.5882352941176 156.978 L 12.882352941176 150.417 L 17.176470588235 149.93099999999998 L 21.470588235294 153.08999999999997 L 25.764705882353 150.66 L 30.058823529412 147.50099999999998 L 34.352941176471 144.342 L 38.647058823529 144.099 L 42.941176470588 142.39800000000002 L 47.235294117647 104.976 L 51.529411764706 110.07900000000001 L 55.823529411765 76.54500000000002 L 60.117647058824 86.50799999999998 L 64.411764705882 56.376000000000005 L 68.705882352941 64.881 L 73 32.07599999999999 L 77.294117647059 72.9 L 81.588235294118 128.547 L 85.882352941176 120.042 L 90.176470588235 120.285 L 94.470588235294 102.303 L 98.764705882353 114.939 L 103.05882352941 125.874 L 107.35294117647 114.21000000000001 L 111.64705882353 133.164 L 115.94117647059 107.406 L 120.23529411765 129.033 L 124.52941176471 128.547 L 128.82352941176 120.77099999999999 L 133.11764705882 116.39699999999999 L 137.41176470588 125.874 L 141.70588235294 123.444 L 146 113.481 L 150.29411764706 114.939 L 154.58823529412 112.26599999999999 L 158.88235294118 113.72399999999999 L 163.17647058824 112.26599999999999 L 167.47058823529 107.406 L 171.76470588235 108.13499999999999 L 176.05882352941 107.16300000000001 L 180.35294117647 118.098 L 184.64705882353 106.191 L 188.94117647059 90.63900000000001 L 193.23529411765 95.256 L 197.52941176471 92.826 L 201.82352941176 86.26499999999999 L 206.11764705882 95.74200000000002 L 210.41176470588 96.471 L 214.70588235294 97.929 L 219 77.517 L 223.29411764706 78.24599999999998 L 227.58823529412 82.13399999999999 L 231.88235294118 77.274 L 236.17647058824 79.70400000000001 L 240.47058823529 74.11499999999998 L 244.76470588235 64.881 L 249.05882352941 72.41400000000002 L 253.35294117647 71.685 L 257.64705882353 67.554 L 261.94117647059 62.93699999999998 L 266.23529411765 73.386 L 270.52941176471 57.834 L 274.82352941176 59.535 L 279.11764705882 54.18899999999999 L 283.41176470588 55.64699999999999 L 287.70588235294 40.823999999999984 L 292 45.19799999999998 L 296.29411764706 53.703 L 300.58823529412 39.852000000000004 L 304.88235294118 43.74000000000001 L 309.17647058824 44.226 L 313.47058823529 44.71199999999999 L 317.76470588235 31.590000000000003 L 322.05882352941 32.56199999999998 L 326.35294117647 37.908000000000015 L 330.64705882353 35.47800000000001 L 334.94117647059 33.04799999999997 L 339.23529411765 43.25399999999999 L 343.52941176471 33.04799999999997 L 347.82352941176 24.785999999999973 L 352.11764705882 25.028999999999968 L 356.41176470588 26.486999999999995 L 360.70588235294 18.710999999999984 L 365 30.86099999999999 L 369.29411764706 42.039000000000016 L 373.58823529412 40.337999999999994 L 377.88235294118 36.93599999999998 L 382.17647058824 37.908000000000015 L 386.47058823529 56.13299999999998 L 390.76470588235 50.54399999999998 L 395.05882352941 58.80599999999998 L 399.35294117647 48.114000000000004 L 403.64705882353 52.730999999999995 L 407.94117647059 76.78800000000001 L 412.23529411765 78.00299999999999 L 416.52941176471 98.172 L 420.82352941176 78.00299999999999 L 425.11764705882 113.481 L 429.41176470588 112.50899999999999 L 433.70588235294 78.00299999999999" class="highcharts-graph" data-z-index="1" stroke="#662673" stroke-width="2" stroke-linejoin="round" stroke-linecap="round"></path></g><g data-z-index="0.1" class="highcharts-markers highcharts-series-2 highcharts-line-series " visibility="hidden" transform="translate(37,97) scale(1 1)" clip-path="none"></g><g data-z-index="0.1" class="highcharts-series highcharts-series-3 highcharts-line-series " visibility="hidden" transform="translate(37,97) scale(1 1)" clip-path="url(#highcharts-hlfivnq-7)"><path fill="none" d="M 4.2941176470588 116.88299999999998 L 8.5882352941176 151.875 L 12.882352941176 158.922 L 17.176470588235 145.31400000000002 L 21.470588235294 155.034 L 25.764705882353 153.333 L 30.058823529412 154.062 L 34.352941176471 133.40699999999998 L 38.647058823529 140.21099999999998 L 42.941176470588 141.183 L 47.235294117647 97.44299999999998 L 51.529411764706 80.43299999999999 L 55.823529411765 80.67600000000002 L 60.117647058824 55.403999999999996 L 64.411764705882 85.53599999999997 L 68.705882352941 77.75999999999999 L 73 93.55499999999998 L 77.294117647059 92.583 L 81.588235294118 131.94899999999998 L 85.882352941176 117.612 L 90.176470588235 118.82699999999998 L 94.470588235294 120.042 L 98.764705882353 108.62099999999998 L 103.05882352941 111.537 L 107.35294117647 101.33099999999999 L 111.64705882353 107.892 L 115.94117647059 118.341 L 120.23529411765 117.85499999999999 L 124.52941176471 110.565 L 128.82352941176 121.5 L 133.11764705882 121.98599999999999 L 137.41176470588 126.84599999999999 L 141.70588235294 118.58399999999999 L 146 125.388 L 150.29411764706 123.20100000000001 L 154.58823529412 127.818 L 158.88235294118 112.75199999999998 L 163.17647058824 110.322 L 167.47058823529 96.957 L 171.76470588235 106.67699999999999 L 176.05882352941 108.62099999999998 L 180.35294117647 109.107 L 184.64705882353 103.518 L 188.94117647059 115.91099999999999 L 193.23529411765 97.68599999999998 L 197.52941176471 92.34 L 201.82352941176 89.91 L 206.11764705882 97.44299999999998 L 210.41176470588 98.90100000000001 L 214.70588235294 93.31199999999998 L 219 95.013 L 223.29411764706 93.798 L 227.58823529412 90.63900000000001 L 231.88235294118 93.55499999999998 L 236.17647058824 85.779 L 240.47058823529 79.21799999999999 L 244.76470588235 83.106 L 249.05882352941 78.489 L 253.35294117647 80.91900000000001 L 257.64705882353 65.36699999999999 L 261.94117647059 68.52600000000001 L 266.23529411765 69.74099999999999 L 270.52941176471 78.489 L 274.82352941176 63.17999999999998 L 279.11764705882 70.47 L 283.41176470588 53.946 L 287.70588235294 50.54399999999998 L 292 54.18899999999999 L 296.29411764706 48.599999999999994 L 300.58823529412 52.245000000000005 L 304.88235294118 46.170000000000016 L 309.17647058824 55.16099999999997 L 313.47058823529 40.337999999999994 L 317.76470588235 49.572 L 322.05882352941 46.899 L 326.35294117647 34.748999999999995 L 330.64705882353 53.703 L 334.94117647059 48.114000000000004 L 339.23529411765 40.095 L 343.52941176471 34.263000000000005 L 347.82352941176 40.095 L 352.11764705882 42.525000000000006 L 356.41176470588 31.833 L 360.70588235294 37.178999999999974 L 365 34.263000000000005 L 369.29411764706 32.31899999999999 L 373.58823529412 42.039000000000016 L 377.88235294118 61.47900000000001 L 382.17647058824 60.507000000000005 L 386.47058823529 53.21700000000001 L 390.76470588235 56.861999999999995 L 395.05882352941 54.18899999999999 L 399.35294117647 52.00199999999998 L 403.64705882353 83.34899999999999 L 407.94117647059 78.975 L 412.23529411765 104.73299999999998 L 416.52941176471 115.182 L 420.82352941176 106.434 L 425.11764705882 67.31099999999998 L 429.41176470588 77.031 L 433.70588235294 68.28299999999999" class="highcharts-graph" data-z-index="1" stroke="#B00000" stroke-width="2" stroke-linejoin="round" stroke-linecap="round"></path></g><g data-z-index="0.1" class="highcharts-markers highcharts-series-3 highcharts-line-series " visibility="hidden" transform="translate(37,97) scale(1 1)" clip-path="none"></g><g data-z-index="0.1" class="highcharts-series highcharts-series-4 highcharts-line-series " visibility="hidden" transform="translate(37,97) scale(1 1)" clip-path="url(#highcharts-hlfivnq-7)"><path fill="none" d="M 4.2941176470588 115.66799999999999 L 8.5882352941176 154.548 L 12.882352941176 141.426 L 17.176470588235 144.828 L 21.470588235294 145.8 L 25.764705882353 137.781 L 30.058823529412 145.31400000000002 L 34.352941176471 142.39800000000002 L 38.647058823529 131.22 L 42.941176470588 127.33200000000001 L 47.235294117647 128.79 L 51.529411764706 84.564 L 55.823529411765 79.947 L 60.117647058824 80.19 L 64.411764705882 75.816 L 68.705882352941 81.40499999999997 L 73 73.87199999999999 L 77.294117647059 93.55499999999998 L 81.588235294118 120.77099999999999 L 85.882352941176 123.687 L 90.176470588235 119.313 L 94.470588235294 130.248 L 98.764705882353 118.82699999999998 L 103.05882352941 123.687 L 107.35294117647 117.612 L 111.64705882353 129.033 L 115.94117647059 121.01400000000001 L 120.23529411765 115.182 L 124.52941176471 118.82699999999998 L 128.82352941176 120.285 L 133.11764705882 125.631 L 137.41176470588 129.033 L 141.70588235294 129.033 L 146 119.313 L 150.29411764706 114.453 L 154.58823529412 116.63999999999999 L 158.88235294118 119.556 L 163.17647058824 118.341 L 167.47058823529 112.50899999999999 L 171.76470588235 113.72399999999999 L 176.05882352941 121.5 L 180.35294117647 109.59299999999999 L 184.64705882353 112.50899999999999 L 188.94117647059 109.107 L 193.23529411765 105.94800000000001 L 197.52941176471 102.06 L 201.82352941176 106.67699999999999 L 206.11764705882 108.864 L 210.41176470588 98.41499999999999 L 214.70588235294 86.26499999999999 L 219 101.57399999999998 L 223.29411764706 88.93799999999999 L 227.58823529412 84.321 L 231.88235294118 86.02199999999999 L 236.17647058824 93.55499999999998 L 240.47058823529 90.63900000000001 L 244.76470588235 81.16199999999998 L 249.05882352941 83.83500000000001 L 253.35294117647 82.863 L 257.64705882353 82.62 L 261.94117647059 77.031 L 266.23529411765 53.703 L 270.52941176471 52.730999999999995 L 274.82352941176 72.65700000000001 L 279.11764705882 65.85299999999998 L 283.41176470588 49.572 L 287.70588235294 52.488 L 292 55.889999999999986 L 296.29411764706 58.31999999999999 L 300.58823529412 54.18899999999999 L 304.88235294118 57.34800000000001 L 309.17647058824 52.488 L 313.47058823529 44.468999999999994 L 317.76470588235 46.41300000000001 L 322.05882352941 48.357 L 326.35294117647 54.18899999999999 L 330.64705882353 43.983000000000004 L 334.94117647059 41.309999999999974 L 339.23529411765 44.954999999999984 L 343.52941176471 42.28200000000001 L 347.82352941176 43.010999999999996 L 352.11764705882 44.71199999999999 L 356.41176470588 47.38499999999999 L 360.70588235294 31.833 L 365 39.852000000000004 L 369.29411764706 39.852000000000004 L 373.58823529412 32.31899999999999 L 377.88235294118 57.834 L 382.17647058824 60.992999999999995 L 386.47058823529 61.965 L 390.76470588235 64.39500000000001 L 395.05882352941 54.18899999999999 L 399.35294117647 69.98399999999998 L 403.64705882353 86.02199999999999 L 407.94117647059 76.54500000000002 L 412.23529411765 114.939 L 416.52941176471 96.471 L 420.82352941176 88.93799999999999 L 425.11764705882 82.863 L 429.41176470588 128.79 L 433.70588235294 77.031" class="highcharts-graph" data-z-index="1" stroke="#246370" stroke-width="2" stroke-linejoin="round" stroke-linecap="round"></path></g><g data-z-index="0.1" class="highcharts-markers highcharts-series-4 highcharts-line-series " visibility="hidden" transform="translate(37,97) scale(1 1)" clip-path="none"></g><g data-z-index="0.1" class="highcharts-series highcharts-series-5 highcharts-line-series " transform="translate(37,97) scale(1 1)" clip-path="url(#highcharts-hlfivnq-7)"><path fill="none" d="M 4.2941176470588 121.01400000000001 L 8.5882352941176 150.417 L 12.882352941176 152.84699999999998 L 17.176470588235 150.417 L 21.470588235294 153.333 L 25.764705882353 142.39800000000002 L 30.058823529412 150.903 L 34.352941176471 150.174 L 38.647058823529 131.94899999999998 L 42.941176470588 136.566 L 47.235294117647 119.556 L 51.529411764706 116.154 L 55.823529411765 76.30199999999999 L 60.117647058824 90.882 L 64.411764705882 68.28299999999999 L 68.705882352941 68.769 L 73 80.67600000000002 L 77.294117647059 95.98500000000001 L 81.588235294118 121.257 L 85.882352941176 127.575 L 90.176470588235 139.239 L 94.470588235294 115.91099999999999 L 98.764705882353 118.098 L 103.05882352941 126.84599999999999 L 107.35294117647 101.088 L 111.64705882353 120.52799999999999 L 115.94117647059 128.79 L 120.23529411765 116.39699999999999 L 124.52941176471 131.706 L 128.82352941176 127.818 L 133.11764705882 120.042 L 137.41176470588 121.01400000000001 L 141.70588235294 117.369 L 146 123.92999999999999 L 150.29411764706 120.77099999999999 L 154.58823529412 126.84599999999999 L 158.88235294118 117.612 L 163.17647058824 123.92999999999999 L 167.47058823529 127.818 L 171.76470588235 115.91099999999999 L 176.05882352941 125.388 L 180.35294117647 112.50899999999999 L 184.64705882353 116.154 L 188.94117647059 106.67699999999999 L 193.23529411765 111.78 L 197.52941176471 102.54599999999999 L 201.82352941176 102.303 L 206.11764705882 105.94800000000001 L 210.41176470588 101.33099999999999 L 214.70588235294 85.04999999999998 L 219 106.434 L 223.29411764706 87.237 L 227.58823529412 102.303 L 231.88235294118 94.28399999999999 L 236.17647058824 97.929 L 240.47058823529 85.29299999999998 L 244.76470588235 80.91900000000001 L 249.05882352941 80.19 L 253.35294117647 91.61099999999999 L 257.64705882353 69.012 L 261.94117647059 81.40499999999997 L 266.23529411765 69.255 L 270.52941176471 70.95599999999999 L 274.82352941176 73.87199999999999 L 279.11764705882 68.769 L 283.41176470588 69.49799999999999 L 287.70588235294 69.74099999999999 L 292 54.67499999999998 L 296.29411764706 54.91799999999998 L 300.58823529412 61.23599999999999 L 304.88235294118 63.90899999999999 L 309.17647058824 55.889999999999986 L 313.47058823529 54.43199999999999 L 317.76470588235 55.403999999999996 L 322.05882352941 52.00199999999998 L 326.35294117647 56.13299999999998 L 330.64705882353 43.25399999999999 L 334.94117647059 45.92700000000002 L 339.23529411765 48.357 L 343.52941176471 45.92700000000002 L 347.82352941176 50.78699999999998 L 352.11764705882 57.34800000000001 L 356.41176470588 56.861999999999995 L 360.70588235294 45.19799999999998 L 365 59.535 L 369.29411764706 56.376000000000005 L 373.58823529412 54.67499999999998 L 377.88235294118 53.946 L 382.17647058824 52.730999999999995 L 386.47058823529 59.292 L 390.76470588235 79.70400000000001 L 395.05882352941 73.87199999999999 L 399.35294117647 74.35799999999998 L 403.64705882353 68.52600000000001 L 407.94117647059 89.91 L 412.23529411765 90.63900000000001 L 416.52941176471 70.47 L 420.82352941176 94.041 L 425.11764705882 116.39699999999999 L 429.41176470588 87.72300000000001 L 433.70588235294 112.75199999999998" class="highcharts-graph" data-z-index="1" stroke="#9E7C59" stroke-width="2" stroke-linejoin="round" stroke-linecap="round"></path></g><g data-z-index="0.1" class="highcharts-markers highcharts-series-5 highcharts-line-series " transform="translate(37,97) scale(1 1)" clip-path="none"></g></g><text x="10" text-anchor="start" class="highcharts-title" data-z-index="4" style="color:#000000;font-size:14px;font-weight:bold;fill:#000000;" y="21"><tspan>Mittlere Aufenthaltsdauer in Basler Spitälern nach Alter</tspan></text><text x="10" text-anchor="start" class="highcharts-subtitle" data-z-index="4" style="color:#000000;font-size:12px;font-weight:normal;font-family:Arial;fill:#000000;" y="40"><tspan>im Hauptbereich Akutsomatik, in Tagen</tspan></text><g class="highcharts-legend" data-z-index="7" transform="translate(29,55)"><rect fill="none" class="highcharts-legend-box" rx="0" ry="0" x="0" y="0" width="392" height="30" visibility="visible"></rect><g data-z-index="1"><g><g class="highcharts-legend-item highcharts-line-series highcharts-color-undefined highcharts-series-0" data-z-index="1" transform="translate(8,3)"><path fill="none" d="M 0 11 L 16 11" class="highcharts-graph" stroke="#A0BEC8" stroke-width="2"></path><text x="21" style="color:#333333;font-size:12px;font-weight:normal;cursor:pointer;fill:#333333;" text-anchor="start" data-z-index="2" y="15"><tspan>2012</tspan></text></g><g class="highcharts-legend-item highcharts-line-series highcharts-color-undefined highcharts-series-1 highcharts-legend-item-hidden" data-z-index="1" transform="translate(73.6875,3)"><path fill="none" d="M 0 11 L 16 11" class="highcharts-graph" stroke="#cccccc" stroke-width="2"></path><text x="21" y="15" style="color:#cccccc;font-size:12px;font-weight:normal;cursor:pointer;fill:#cccccc;" text-anchor="start" data-z-index="2"><tspan>2013</tspan></text></g><g class="highcharts-legend-item highcharts-line-series highcharts-color-undefined highcharts-series-2 highcharts-legend-item-hidden" data-z-index="1" transform="translate(139.375,3)"><path fill="none" d="M 0 11 L 16 11" class="highcharts-graph" stroke="#cccccc" stroke-width="2"></path><text x="21" y="15" style="color:#cccccc;font-size:12px;font-weight:normal;cursor:pointer;fill:#cccccc;" text-anchor="start" data-z-index="2"><tspan>2014</tspan></text></g><g class="highcharts-legend-item highcharts-line-series highcharts-color-undefined highcharts-series-3 highcharts-legend-item-hidden" data-z-index="1" transform="translate(205.0625,3)"><path fill="none" d="M 0 11 L 16 11" class="highcharts-graph" stroke="#cccccc" stroke-width="2"></path><text x="21" y="15" style="color:#cccccc;font-size:12px;font-weight:normal;cursor:pointer;fill:#cccccc;" text-anchor="start" data-z-index="2"><tspan>2015</tspan></text></g><g class="highcharts-legend-item highcharts-line-series highcharts-color-undefined highcharts-series-4 highcharts-legend-item-hidden" data-z-index="1" transform="translate(270.75,3)"><path fill="none" d="M 0 11 L 16 11" class="highcharts-graph" stroke="#cccccc" stroke-width="2"></path><text x="21" y="15" style="color:#cccccc;font-size:12px;font-weight:normal;cursor:pointer;fill:#cccccc;" text-anchor="start" data-z-index="2"><tspan>2016</tspan></text></g><g class="highcharts-legend-item highcharts-line-series highcharts-color-undefined highcharts-series-5" data-z-index="1" transform="translate(336.4375,3)"><path fill="none" d="M 0 11 L 16 11" class="highcharts-graph" stroke="#9E7C59" stroke-width="2"></path><text x="21" y="15" style="color:#333333;font-size:12px;font-weight:normal;cursor:pointer;fill:#333333;" text-anchor="start" data-z-index="2"><tspan>2017</tspan></text></g></g></g></g><g class="highcharts-axis-labels highcharts-xaxis-labels " data-z-index="7"><text x="43.88684251140967" style="color:#000000;cursor:default;font-size:11px;fill:#000000;" text-anchor="end" transform="translate(0,0) rotate(-45 43.88684251140967 356)" y="356" opacity="1">0</text><text x="65.35743074670367" style="color:#000000;cursor:default;font-size:11px;fill:#000000;" text-anchor="end" transform="translate(0,0) rotate(-45 65.35743074670367 356)" y="356" opacity="1">5</text><text x="86.82801898199767" style="color:#000000;cursor:default;font-size:11px;fill:#000000;" text-anchor="end" transform="translate(0,0) rotate(-45 86.82801898199767 356)" y="356" opacity="1">10</text><text x="108.29860721729067" style="color:#000000;cursor:default;font-size:11px;fill:#000000;" text-anchor="end" transform="translate(0,0) rotate(-45 108.29860721729067 356)" y="356" opacity="1">15</text><text x="129.76919545259068" style="color:#000000;cursor:default;font-size:11px;fill:#000000;" text-anchor="end" transform="translate(0,0) rotate(-45 129.76919545259068 356)" y="356" opacity="1">20</text><text x="151.23978368788067" style="color:#000000;cursor:default;font-size:11px;fill:#000000;" text-anchor="end" transform="translate(0,0) rotate(-45 151.23978368788067 356)" y="356" opacity="1">25</text><text x="172.7103719231707" style="color:#000000;cursor:default;font-size:11px;fill:#000000;" text-anchor="end" transform="translate(0,0) rotate(-45 172.7103719231707 356)" y="356" opacity="1">30</text><text x="194.1809601584707" style="color:#000000;cursor:default;font-size:11px;fill:#000000;" text-anchor="end" transform="translate(0,0) rotate(-45 194.1809601584707 356)" y="356" opacity="1">35</text><text x="215.6515483937607" style="color:#000000;cursor:default;font-size:11px;fill:#000000;" text-anchor="end" transform="translate(0,0) rotate(-45 215.6515483937607 356)" y="356" opacity="1">40</text><text x="237.1221366290607" style="color:#000000;cursor:default;font-size:11px;fill:#000000;" text-anchor="end" transform="translate(0,0) rotate(-45 237.1221366290607 356)" y="356" opacity="1">45</text><text x="258.59272486435066" style="color:#000000;cursor:default;font-size:11px;fill:#000000;" text-anchor="end" transform="translate(0,0) rotate(-45 258.59272486435066 356)" y="356" opacity="1">50</text><text x="280.06331309964065" style="color:#000000;cursor:default;font-size:11px;fill:#000000;" text-anchor="end" transform="translate(0,0) rotate(-45 280.06331309964065 356)" y="356" opacity="1">55</text><text x="301.53390133494065" style="color:#000000;cursor:default;font-size:11px;fill:#000000;" text-anchor="end" transform="translate(0,0) rotate(-45 301.53390133494065 356)" y="356" opacity="1">60</text><text x="323.00448957023065" style="color:#000000;cursor:default;font-size:11px;fill:#000000;" text-anchor="end" transform="translate(0,0) rotate(-45 323.00448957023065 356)" y="356" opacity="1">65</text><text x="344.47507780553065" style="color:#000000;cursor:default;font-size:11px;fill:#000000;" text-anchor="end" transform="translate(0,0) rotate(-45 344.47507780553065 356)" y="356" opacity="1">70</text><text x="365.94566604082064" style="color:#000000;cursor:default;font-size:11px;fill:#000000;" text-anchor="end" transform="translate(0,0) rotate(-45 365.94566604082064 356)" y="356" opacity="1">75</text><text x="387.41625427611064" style="color:#000000;cursor:default;font-size:11px;fill:#000000;" text-anchor="end" transform="translate(0,0) rotate(-45 387.41625427611064 356)" y="356" opacity="1">80</text><text x="408.88684251141063" style="color:#000000;cursor:default;font-size:11px;fill:#000000;" text-anchor="end" transform="translate(0,0) rotate(-45 408.88684251141063 356)" y="356" opacity="1">85</text><text x="430.35743074670063" style="color:#000000;cursor:default;font-size:11px;fill:#000000;" text-anchor="end" transform="translate(0,0) rotate(-45 430.35743074670063 356)" y="356" opacity="1">90</text><text x="451.8280189820007" style="color:#000000;cursor:default;font-size:11px;fill:#000000;" text-anchor="end" transform="translate(0,0) rotate(-45 451.8280189820007 356)" y="356" opacity="1">95</text><text x="473.2986072172907" style="color:#000000;cursor:default;font-size:11px;fill:#000000;" text-anchor="end" transform="translate(0,0) rotate(-45 473.2986072172907 356)" y="356" opacity="1">100</text></g><g class="highcharts-axis-labels highcharts-yaxis-labels " data-z-index="7"><text x="22" style="color:#000000;cursor:default;font-size:11px;fill:#000000;" text-anchor="end" transform="translate(0,0)" y="345" opacity="1">0</text><text x="22" style="color:#000000;cursor:default;font-size:11px;fill:#000000;" text-anchor="end" transform="translate(0,0)" y="284" opacity="1">3</text><text x="22" style="color:#000000;cursor:default;font-size:11px;fill:#000000;" text-anchor="end" transform="translate(0,0)" y="223" opacity="1">5</text><text x="22" style="color:#000000;cursor:default;font-size:11px;fill:#000000;" text-anchor="end" transform="translate(0,0)" y="162" opacity="1">8</text><text x="22" style="color:#000000;cursor:default;font-size:11px;fill:#000000;" text-anchor="end" transform="translate(0,0)" y="102" opacity="1">10</text></g><text x="10" class="highcharts-credits" text-anchor="start" data-z-index="8" style="cursor:default;color:#000000;font-size:10px;fill:#000000;" y="400"><tspan>Quelle: Statistisches Amt Basel-Stadt, Gesundheitsstatistik.</tspan></text></svg>