<?xml version="1.0" standalone="no"?><!DOCTYPE svg PUBLIC "-//W3C//DTD SVG 1.1//EN" "http://www.w3.org/Graphics/SVG/1.1/DTD/svg11.dtd"><svg xmlns:xlink="http://www.w3.org/1999/xlink" version="1.1" class="highcharts-root" style="font-family:Arial;font-size:12px;" xmlns="http://www.w3.org/2000/svg" viewBox="0 0 485 415"><desc>Created with Highstock 6.1.1</desc><defs><clipPath id="highcharts-20vdhsx-6"><rect x="0" y="0" width="276" height="63" fill="none"></rect></clipPath><clipPath id="highcharts-20vdhsx-7"><rect x="0" y="0" width="276" height="63" fill="none"></rect></clipPath></defs><rect fill="#fbfbfb" class="highcharts-background" x="0" y="0" width="320" height="208" rx="0" ry="0"></rect><rect fill="none" class="highcharts-plot-background" x="42" y="122" width="276" height="63"></rect><g class="highcharts-pane-group" data-z-index="0"></g><g class="highcharts-grid highcharts-xaxis-grid " data-z-index="1"><path fill="none" data-z-index="1" class="highcharts-grid-line" d="M 45.5 122 L 45.5 185" opacity="1"></path><path fill="none" data-z-index="1" class="highcharts-grid-line" d="M 75.5 122 L 75.5 185" opacity="1"></path><path fill="none" data-z-index="1" class="highcharts-grid-line" d="M 104.5 122 L 104.5 185" opacity="1"></path><path fill="none" data-z-index="1" class="highcharts-grid-line" d="M 134.5 122 L 134.5 185" opacity="1"></path><path fill="none" data-z-index="1" class="highcharts-grid-line" d="M 164.5 122 L 164.5 185" opacity="1"></path><path fill="none" data-z-index="1" class="highcharts-grid-line" d="M 194.5 122 L 194.5 185" opacity="1"></path><path fill="none" data-z-index="1" class="highcharts-grid-line" d="M 224.5 122 L 224.5 185" opacity="1"></path><path fill="none" data-z-index="1" class="highcharts-grid-line" d="M 254.5 122 L 254.5 185" opacity="1"></path><path fill="none" data-z-index="1" class="highcharts-grid-line" d="M 283.5 122 L 283.5 185" opacity="1"></path><path fill="none" data-z-index="1" class="highcharts-grid-line" d="M 313.5 122 L 313.5 185" opacity="1"></path></g><g class="highcharts-grid highcharts-yaxis-grid " data-z-index="1"><path fill="none" stroke="#B9CFD7" stroke-width="0.5" data-z-index="1" class="highcharts-grid-line" d="M 42 185.25 L 318 185.25" opacity="1"></path><path fill="none" stroke="#B9CFD7" stroke-width="0.5" data-z-index="1" class="highcharts-grid-line" d="M 42 177.25 L 318 177.25" opacity="1"></path><path fill="none" stroke="#B9CFD7" stroke-width="0.5" data-z-index="1" class="highcharts-grid-line" d="M 42 169.25 L 318 169.25" opacity="1"></path><path fill="none" stroke="#B9CFD7" stroke-width="0.5" data-z-index="1" class="highcharts-grid-line" d="M 42 161.25 L 318 161.25" opacity="1"></path><path fill="none" stroke="#B9CFD7" stroke-width="0.5" data-z-index="1" class="highcharts-grid-line" d="M 42 154.25 L 318 154.25" opacity="1"></path><path fill="none" stroke="#B9CFD7" stroke-width="0.5" data-z-index="1" class="highcharts-grid-line" d="M 42 146.25 L 318 146.25" opacity="1"></path><path fill="none" stroke="#B9CFD7" stroke-width="0.5" data-z-index="1" class="highcharts-grid-line" d="M 42 138.25 L 318 138.25" opacity="1"></path><path fill="none" stroke="#B9CFD7" stroke-width="0.5" data-z-index="1" class="highcharts-grid-line" d="M 42 130.25 L 318 130.25" opacity="1"></path><path fill="none" stroke="#B9CFD7" stroke-width="0.5" data-z-index="1" class="highcharts-grid-line" d="M 42 121.75 L 318 121.75" opacity="1"></path></g><rect fill="none" class="highcharts-plot-border" data-z-index="1" x="42" y="122" width="276" height="63"></rect><g class="highcharts-axis highcharts-xaxis " data-z-index="2"><path fill="none" class="highcharts-axis-line" stroke="#B9CFD7" stroke-width="0.5" data-z-index="7" d="M 42 185.25 L 318 185.25"></path></g><g class="highcharts-axis highcharts-yaxis " data-z-index="2"><path fill="none" class="highcharts-axis-line" data-z-index="7" d="M 42 122 L 42 185"></path></g><g class="highcharts-series-group" data-z-index="3"><g data-z-index="0.1" class="highcharts-series highcharts-series-0 highcharts-line-series " transform="translate(42,122) scale(1 1)" clip-path="url(#highcharts-20vdhsx-7)"><path fill="none" d="M 3.7297297297297 33.46875 L 11.189189189189 32.30325 L 18.648648648649 32.090625 L 26.108108108108 31.696875 L 33.567567567568 31.129875 L 41.027027027027 30.50775 L 48.486486486486 30.877875000000003 L 55.945945945946 31.437 L 63.405405405405 31.444875 L 70.864864864865 31.429125 L 78.324324324324 31.074749999999998 L 85.783783783784 31.5315 L 93.243243243243 31.570875 L 100.7027027027 32.507999999999996 L 108.16216216216 33.46875 L 115.62162162162 33.957 L 123.08108108108 35.07525 L 130.54054054054 35.319375 L 138 35.240625 L 145.45945945946 35.224875 L 152.91891891892 35.287875 L 160.37837837838 35.256375 L 167.83783783784 35.20125 L 175.2972972973 35.20125 L 182.75675675676 35.3745 L 190.21621621622 35.5005 L 197.67567567568 35.48475 L 205.13513513514 35.5005 L 212.59459459459 36.20925 L 220.05405405405 36.3825 L 227.51351351351 36.280125 L 234.97297297297 36.280125 L 242.43243243243 36.689625 L 249.89189189189 36.80775 L 257.35135135135 37.358999999999995 L 264.81081081081 37.611000000000004 L 272.27027027027 38.288250000000005" class="highcharts-graph" data-z-index="1" stroke="#D7E8D2" stroke-width="2" stroke-linejoin="round" stroke-linecap="round"></path></g><g data-z-index="0.1" class="highcharts-markers highcharts-series-0 highcharts-line-series " transform="translate(42,122) scale(1 1)" clip-path="none"></g><g data-z-index="0.1" class="highcharts-series highcharts-series-1 highcharts-line-series " transform="translate(42,122) scale(1 1)" clip-path="url(#highcharts-20vdhsx-7)"><path fill="none" d="M 3.7297297297297 50.707125 L 11.189189189189 50.57325 L 18.648648648649 50.6205 L 26.108108108108 50.8095 L 33.567567567568 50.41575 L 41.027027027027 50.439375 L 48.486486486486 50.313375 L 55.945945945946 51.242625000000004 L 63.405405405405 52.045875 L 70.864864864865 52.219125 L 78.324324324324 51.849000000000004 L 85.783783783784 51.431625 L 93.243243243243 51.258375 L 100.7027027027 50.8725 L 108.16216216216 51.289875 L 115.62162162162 51.723 L 123.08108108108 52.27425 L 130.54054054054 52.3845 L 138 52.27425 L 145.45945945946 52.5105 L 152.91891891892 52.62075 L 160.37837837838 52.691625 L 167.83783783784 52.731 L 175.2972972973 53.069625 L 182.75675675676 52.801875 L 190.21621621622 52.872749999999996 L 197.67567567568 52.77825 L 205.13513513514 52.675875 L 212.59459459459 52.80975 L 220.05405405405 53.40825 L 227.51351351351 53.384625 L 234.97297297297 53.809875 L 242.43243243243 53.739000000000004 L 249.89189189189 53.935874999999996 L 257.35135135135 54.0225 L 264.81081081081 54.2115 L 272.27027027027 54.51075" class="highcharts-graph" data-z-index="1" stroke="#73B97C" stroke-width="2" stroke-linejoin="round" stroke-linecap="round"></path></g><g data-z-index="0.1" class="highcharts-markers highcharts-series-1 highcharts-line-series " transform="translate(42,122) scale(1 1)" clip-path="none"></g><g data-z-index="0.1" class="highcharts-series highcharts-series-2 highcharts-line-series " transform="translate(42,122) scale(1 1)" clip-path="url(#highcharts-20vdhsx-7)"><path fill="none" d="M 3.7297297297297 53.739000000000004 L 11.189189189189 53.542125 L 18.648648648649 53.605125 L 26.108108108108 53.542125 L 33.567567567568 53.235 L 41.027027027027 53.0145 L 48.486486486486 53.353125 L 55.945945945946 52.833375000000004 L 63.405405405405 53.179874999999996 L 70.864864864865 53.164125 L 78.324324324324 53.298 L 85.783783783784 53.164125 L 93.243243243243 53.431875 L 100.7027027027 53.416125 L 108.16216216216 53.668125 L 115.62162162162 53.983125 L 123.08108108108 54.117 L 130.54054054054 54.2115 L 138 54.266625 L 145.45945945946 54.502875 L 152.91891891892 54.47925 L 160.37837837838 54.298125 L 167.83783783784 54.345375000000004 L 175.2972972973 54.44775 L 182.75675675676 54.518625 L 190.21621621622 54.534375 L 197.67567567568 54.471375 L 205.13513513514 54.5265 L 212.59459459459 54.424125000000004 L 220.05405405405 54.502875 L 227.51351351351 54.6525 L 234.97297297297 54.60525 L 242.43243243243 54.7155 L 249.89189189189 55.022625 L 257.35135135135 55.054125 L 264.81081081081 55.117125 L 272.27027027027 55.3455" class="highcharts-graph" data-z-index="1" stroke="#007A2F" stroke-width="2" stroke-linejoin="round" stroke-linecap="round"></path></g><g data-z-index="0.1" class="highcharts-markers highcharts-series-2 highcharts-line-series " transform="translate(42,122) scale(1 1)" clip-path="none"></g><g data-z-index="0.1" class="highcharts-series highcharts-series-3 highcharts-line-series " transform="translate(42,122) scale(1 1)" clip-path="url(#highcharts-20vdhsx-7)"><path fill="none" d="M 3.7297297297297 57.8655 L 11.189189189189 57.810375 L 18.648648648649 57.621375 L 26.108108108108 57.826125 L 33.567567567568 57.274875 L 41.027027027027 57.290625 L 48.486486486486 56.93625 L 55.945945945946 57.589875 L 63.405405405405 57.2355 L 70.864864864865 57.078 L 78.324324324324 56.65275 L 85.783783783784 56.810249999999996 L 93.243243243243 56.49525 L 100.7027027027 56.08575 L 108.16216216216 55.251 L 115.62162162162 55.3455 L 123.08108108108 55.188 L 130.54054054054 55.148625 L 138 55.2825 L 145.45945945946 54.5895 L 152.91891891892 54.219375 L 160.37837837838 54.6525 L 167.83783783784 54.35325 L 175.2972972973 54.329625 L 182.75675675676 54.13275 L 190.21621621622 53.91225 L 197.67567567568 53.148375 L 205.13513513514 53.227125 L 212.59459459459 52.68375 L 220.05405405405 53.15625 L 227.51351351351 52.90425 L 234.97297297297 52.754625000000004 L 242.43243243243 53.053875 L 249.89189189189 52.612875 L 257.35135135135 52.2585 L 264.81081081081 52.17975 L 272.27027027027 52.668" class="highcharts-graph" data-z-index="1" stroke="#0A3B19" stroke-width="2" stroke-linejoin="round" stroke-linecap="round"></path></g><g data-z-index="0.1" class="highcharts-markers highcharts-series-3 highcharts-line-series " transform="translate(42,122) scale(1 1)" clip-path="none"></g></g><text x="2" text-anchor="start" class="highcharts-title" data-z-index="4" style="color:#000000;font-size:10px;font-weight:bold;fill:#000000;" y="9"><tspan>Grenzgänger im Dienstleistungssektor (I)</tspan></text><text x="2" text-anchor="start" class="highcharts-subtitle" data-z-index="4" style="color:#000000;font-size:10px;font-weight:normal;font-family:Arial;fill:#000000;" y="27"><tspan>Bestand Ende Quartal, Basel-Stadt</tspan></text><g class="highcharts-legend" data-z-index="7" transform="translate(42,43)"><rect fill="none" class="highcharts-legend-box" rx="0" ry="0" x="0" y="0" width="145" height="67" visibility="visible"></rect><g data-z-index="1"><g><g class="highcharts-legend-item highcharts-line-series highcharts-color-undefined highcharts-series-0" data-z-index="1" transform="translate(0,-5)"><path fill="none" d="M 0 10 L 16 10" class="highcharts-graph" stroke="#D7E8D2" stroke-width="2"></path><text x="21" style="color:#333333;font-size:10px;font-weight:normal;cursor:pointer;fill:#333333;" text-anchor="start" data-z-index="2" y="13"><tspan>Handel, Reparatur</tspan></text></g><g class="highcharts-legend-item highcharts-line-series highcharts-color-undefined highcharts-series-1" data-z-index="1" transform="translate(0,13)"><path fill="none" d="M 0 10 L 16 10" class="highcharts-graph" stroke="#73B97C" stroke-width="2"></path><text x="21" y="13" style="color:#333333;font-size:10px;font-weight:normal;cursor:pointer;fill:#333333;" text-anchor="start" data-z-index="2"><tspan>Verkehr, Lagerei</tspan></text></g><g class="highcharts-legend-item highcharts-line-series highcharts-color-undefined highcharts-series-2" data-z-index="1" transform="translate(0,31)"><path fill="none" d="M 0 10 L 16 10" class="highcharts-graph" stroke="#007A2F" stroke-width="2"></path><text x="21" y="13" style="color:#333333;font-size:10px;font-weight:normal;cursor:pointer;fill:#333333;" text-anchor="start" data-z-index="2"><tspan>Gastgewerbe</tspan></text></g><g class="highcharts-legend-item highcharts-line-series highcharts-color-undefined highcharts-series-3" data-z-index="1" transform="translate(0,49)"><path fill="none" d="M 0 10 L 16 10" class="highcharts-graph" stroke="#0A3B19" stroke-width="2"></path><text x="21" y="13" style="color:#333333;font-size:10px;font-weight:normal;cursor:pointer;fill:#333333;" text-anchor="start" data-z-index="2"><tspan>Information, Kommunikation</tspan></text></g></g></g></g><g class="highcharts-axis-labels highcharts-xaxis-labels " data-z-index="7"><text x="45.72972972973" style="color:#000000;cursor:default;font-size:10px;white-space:nowrap;fill:#000000;" text-anchor="middle" transform="translate(0,0)" y="203" opacity="1">2009</text><text x="75.567567567568" style="color:#000000;cursor:default;font-size:10px;white-space:nowrap;fill:#000000;" text-anchor="middle" transform="translate(0,0)" y="203" opacity="1">2010</text><text x="105.40540540541" style="color:#000000;cursor:default;font-size:10px;white-space:nowrap;fill:#000000;" text-anchor="middle" transform="translate(0,0)" y="203" opacity="1">2011</text><text x="135.24324324324" style="color:#000000;cursor:default;font-size:10px;white-space:nowrap;fill:#000000;" text-anchor="middle" transform="translate(0,0)" y="203" opacity="1">2012</text><text x="165.08108108108" style="color:#000000;cursor:default;font-size:10px;white-space:nowrap;fill:#000000;" text-anchor="middle" transform="translate(0,0)" y="203" opacity="1">2013</text><text x="194.91891891892" style="color:#000000;cursor:default;font-size:10px;white-space:nowrap;fill:#000000;" text-anchor="middle" transform="translate(0,0)" y="203" opacity="1">2014</text><text x="224.75675675676" style="color:#000000;cursor:default;font-size:10px;white-space:nowrap;fill:#000000;" text-anchor="middle" transform="translate(0,0)" y="203" opacity="1">2015</text><text x="254.59459459459" style="color:#000000;cursor:default;font-size:10px;white-space:nowrap;fill:#000000;" text-anchor="middle" transform="translate(0,0)" y="203" opacity="1">2016</text><text x="284.43243243243" style="color:#000000;cursor:default;font-size:10px;white-space:nowrap;fill:#000000;" text-anchor="middle" transform="translate(0,0)" y="203" opacity="1">2017</text><text x="309.235135135135" style="color:#000000;cursor:default;font-size:10px;white-space:nowrap;fill:#000000;" text-anchor="middle" transform="translate(0,0)" y="203" opacity="1"><tspan>2…</tspan><title>2018</title></text></g><g class="highcharts-axis-labels highcharts-yaxis-labels " data-z-index="7"><text x="27" style="color:#000000;cursor:default;font-size:10;fill:#000000;" text-anchor="end" transform="translate(0,0)" y="188" opacity="1">0</text><text x="27" style="color:#000000;cursor:default;font-size:10;fill:#000000;" text-anchor="end" transform="translate(0,0)" y="180" opacity="1"><tspan>1 000</tspan></text><text x="27" style="color:#000000;cursor:default;font-size:10;fill:#000000;" text-anchor="end" transform="translate(0,0)" y="172" opacity="1"><tspan>2 000</tspan></text><text x="27" style="color:#000000;cursor:default;font-size:10;fill:#000000;" text-anchor="end" transform="translate(0,0)" y="164" opacity="1"><tspan>3 000</tspan></text><text x="27" style="color:#000000;cursor:default;font-size:10;fill:#000000;" text-anchor="end" transform="translate(0,0)" y="157" opacity="1"><tspan>4 000</tspan></text><text x="27" style="color:#000000;cursor:default;font-size:10;fill:#000000;" text-anchor="end" transform="translate(0,0)" y="149" opacity="1"><tspan>5 000</tspan></text><text x="27" style="color:#000000;cursor:default;font-size:10;fill:#000000;" text-anchor="end" transform="translate(0,0)" y="141" opacity="1"><tspan>6 000</tspan></text><text x="27" style="color:#000000;cursor:default;font-size:10;fill:#000000;" text-anchor="end" transform="translate(0,0)" y="133" opacity="1"><tspan>7 000</tspan></text><text x="27" style="color:#000000;cursor:default;font-size:10;fill:#000000;" text-anchor="end" transform="translate(0,0)" y="125" opacity="1"><tspan>8 000</tspan></text></g><text x="10" class="highcharts-credits" text-anchor="start" data-z-index="8" style="cursor:default;color:#000000;font-size:10px;fill:#000000;" y="193"><tspan>Quelle: Bundesamt für Statistik (BFS), Grenzgängerstatistik (GGS).</tspan></text></svg>