<?xml version="1.0" standalone="no"?><!DOCTYPE svg PUBLIC "-//W3C//DTD SVG 1.1//EN" "http://www.w3.org/Graphics/SVG/1.1/DTD/svg11.dtd"><svg xmlns:xlink="http://www.w3.org/1999/xlink" version="1.1" class="highcharts-root" style="font-family:Arial;font-size:12px;" xmlns="http://www.w3.org/2000/svg" viewBox="0 0 485 415"><desc>Created with Highstock 6.1.1</desc><defs><clipPath id="highcharts-g3sw1wh-6"><rect x="0" y="0" width="287" height="99" fill="none"></rect></clipPath><clipPath id="highcharts-g3sw1wh-7"><rect x="0" y="0" width="287" height="99" fill="none"></rect></clipPath></defs><rect fill="#fbfbfb" class="highcharts-background" x="0" y="0" width="320" height="208" rx="0" ry="0"></rect><rect fill="none" class="highcharts-plot-background" x="31" y="86" width="287" height="99"></rect><g class="highcharts-pane-group" data-z-index="0"></g><g class="highcharts-grid highcharts-xaxis-grid " data-z-index="1"><path fill="none" data-z-index="1" class="highcharts-grid-line" d="M 31.5 86 L 31.5 185" opacity="1"></path><path fill="none" data-z-index="1" class="highcharts-grid-line" d="M 60.5 86 L 60.5 185" opacity="1"></path><path fill="none" data-z-index="1" class="highcharts-grid-line" d="M 89.5 86 L 89.5 185" opacity="1"></path><path fill="none" data-z-index="1" class="highcharts-grid-line" d="M 117.5 86 L 117.5 185" opacity="1"></path><path fill="none" data-z-index="1" class="highcharts-grid-line" d="M 146.5 86 L 146.5 185" opacity="1"></path><path fill="none" data-z-index="1" class="highcharts-grid-line" d="M 175.5 86 L 175.5 185" opacity="1"></path><path fill="none" data-z-index="1" class="highcharts-grid-line" d="M 203.5 86 L 203.5 185" opacity="1"></path><path fill="none" data-z-index="1" class="highcharts-grid-line" d="M 232.5 86 L 232.5 185" opacity="1"></path><path fill="none" data-z-index="1" class="highcharts-grid-line" d="M 261.5 86 L 261.5 185" opacity="1"></path><path fill="none" data-z-index="1" class="highcharts-grid-line" d="M 289.5 86 L 289.5 185" opacity="1"></path></g><g class="highcharts-grid highcharts-yaxis-grid " data-z-index="1"><path fill="none" stroke="#B9CFD7" stroke-width="0.5" data-z-index="1" class="highcharts-grid-line" d="M 31 185.25 L 318 185.25" opacity="1"></path><path fill="none" stroke="#B9CFD7" stroke-width="0.5" data-z-index="1" class="highcharts-grid-line" d="M 31 174.25 L 318 174.25" opacity="1"></path><path fill="none" stroke="#B9CFD7" stroke-width="0.5" data-z-index="1" class="highcharts-grid-line" d="M 31 163.25 L 318 163.25" opacity="1"></path><path fill="none" stroke="#B9CFD7" stroke-width="0.5" data-z-index="1" class="highcharts-grid-line" d="M 31 152.25 L 318 152.25" opacity="1"></path><path fill="none" stroke="#B9CFD7" stroke-width="0.5" data-z-index="1" class="highcharts-grid-line" d="M 31 141.25 L 318 141.25" opacity="1"></path><path fill="none" stroke="#B9CFD7" stroke-width="0.5" data-z-index="1" class="highcharts-grid-line" d="M 31 130.25 L 318 130.25" opacity="1"></path><path fill="none" stroke="#B9CFD7" stroke-width="0.5" data-z-index="1" class="highcharts-grid-line" d="M 31 119.25 L 318 119.25" opacity="1"></path><path fill="none" stroke="#B9CFD7" stroke-width="0.5" data-z-index="1" class="highcharts-grid-line" d="M 31 108.25 L 318 108.25" opacity="1"></path><path fill="none" stroke="#B9CFD7" stroke-width="0.5" data-z-index="1" class="highcharts-grid-line" d="M 31 97.25 L 318 97.25" opacity="1"></path><path fill="none" stroke="#B9CFD7" stroke-width="0.5" data-z-index="1" class="highcharts-grid-line" d="M 31 85.75 L 318 85.75" opacity="1"></path></g><rect fill="none" class="highcharts-plot-border" data-z-index="1" x="31" y="86" width="287" height="99"></rect><g class="highcharts-axis highcharts-xaxis " data-z-index="2"><path fill="none" class="highcharts-axis-line" stroke="#B9CFD7" stroke-width="0.5" data-z-index="7" d="M 31 185.25 L 318 185.25"></path></g><g class="highcharts-axis highcharts-yaxis " data-z-index="2"><path fill="none" class="highcharts-axis-line" data-z-index="7" d="M 31 86 L 31 185"></path></g><g class="highcharts-series-group" data-z-index="3"><g data-z-index="0.1" class="highcharts-series highcharts-series-0 highcharts-line-series " transform="translate(31,86) scale(1 1)" clip-path="url(#highcharts-g3sw1wh-7)"><path fill="none" d="M 1.1958333333333 72.6 L 3.5875 72.6 L 5.9791666666667 73.7 L 8.3708333333333 74.8 L 10.7625 74.8 L 13.154166666667 74.8 L 15.545833333333 74.8 L 17.9375 75.9 L 20.329166666667 73.7 L 22.720833333333 73.7 L 25.1125 71.5 L 27.504166666667 69.3 L 29.895833333333 68.2 L 32.2875 68.2 L 34.679166666667 66 L 37.070833333333 66 L 39.4625 66 L 41.854166666667 64.9 L 44.245833333333 63.8 L 46.6375 63.8 L 49.029166666667 62.699999999999996 L 51.420833333333 62.699999999999996 L 53.8125 61.599999999999994 L 56.204166666667 60.49999999999999 L 58.595833333333 51.7 L 60.9875 53.9 L 63.379166666667 55 L 65.770833333333 57.2 L 68.1625 58.300000000000004 L 70.554166666667 58.300000000000004 L 72.945833333333 59.400000000000006 L 75.3375 59.400000000000006 L 77.729166666667 58.300000000000004 L 80.120833333333 59.400000000000006 L 82.5125 60.49999999999999 L 84.904166666667 59.400000000000006 L 87.295833333333 58.300000000000004 L 89.6875 59.400000000000006 L 92.079166666667 60.49999999999999 L 94.470833333333 64.9 L 96.8625 66 L 99.254166666667 67.1 L 101.64583333333 66 L 104.0375 67.1 L 106.42916666667 66 L 108.82083333333 66 L 111.2125 66 L 113.60416666667 63.8 L 115.99583333333 61.599999999999994 L 118.3875 61.599999999999994 L 120.77916666667 62.699999999999996 L 123.17083333333 63.8 L 125.5625 63.8 L 127.95416666667 64.9 L 130.34583333333 64.9 L 132.7375 64.9 L 135.12916666667 63.8 L 137.52083333333 63.8 L 139.9125 62.699999999999996 L 142.30416666667 60.49999999999999 L 144.69583333333 60.49999999999999 L 147.0875 60.49999999999999 L 149.47916666667 62.699999999999996 L 151.87083333333 62.699999999999996 L 154.2625 63.8 L 156.65416666667 66 L 159.04583333333 66 L 161.4375 66 L 163.82916666667 66 L 166.22083333333 66 L 168.6125 64.9 L 171.00416666667 63.8 L 173.39583333333 64.9 L 175.7875 64.9 L 178.17916666667 66 L 180.57083333333 66 L 182.9625 68.2 L 185.35416666667 69.3 L 187.74583333333 69.3 L 190.1375 69.3 L 192.52916666667 69.3 L 194.92083333333 69.3 L 197.3125 67.1 L 199.70416666667 64.9 L 202.09583333333 63.8 L 204.4875 63.8 L 206.87916666667 63.8 L 209.27083333333 64.9 L 211.6625 67.1 L 214.05416666667 67.1 L 216.44583333333 67.1 L 218.8375 64.9 L 221.22916666667 64.9 L 223.62083333333 64.9 L 226.0125 64.9 L 228.40416666667 63.8 L 230.79583333333 62.699999999999996 L 233.1875 61.599999999999994 L 235.57916666667 62.699999999999996 L 237.97083333333 62.699999999999996 L 240.3625 63.8 L 242.75416666667 64.9 L 245.14583333333 66 L 247.5375 64.9 L 249.92916666667 66 L 252.32083333333 64.9 L 254.7125 63.8 L 257.10416666667 63.8 L 259.49583333333 61.599999999999994 L 261.8875 62.699999999999996 L 264.27916666667 63.8 L 266.67083333333 63.8 L 269.0625 66 L 271.45416666667 67.1 L 273.84583333333 67.1 L 276.2375 64.9 L 278.62916666667 67.1 L 281.02083333333 66 L 283.4125 66 L 285.80416666667 66" class="highcharts-graph" data-z-index="1" stroke="#008AC3" stroke-width="2" stroke-linejoin="round" stroke-linecap="round"></path></g><g data-z-index="0.1" class="highcharts-markers highcharts-series-0 highcharts-line-series " transform="translate(31,86) scale(1 1)" clip-path="none"></g><g data-z-index="0.1" class="highcharts-series highcharts-series-1 highcharts-line-series " transform="translate(31,86) scale(1 1)" clip-path="url(#highcharts-g3sw1wh-7)"><path fill="none" d="M 1.1958333333333 72.6 L 3.5875 72.6 L 5.9791666666667 73.7 L 8.3708333333333 73.7 L 10.7625 73.7 L 13.154166666667 73.7 L 15.545833333333 72.6 L 17.9375 72.6 L 20.329166666667 73.7 L 22.720833333333 72.6 L 25.1125 72.6 L 27.504166666667 72.6 L 29.895833333333 72.6 L 32.2875 73.7 L 34.679166666667 72.6 L 37.070833333333 71.5 L 39.4625 72.6 L 41.854166666667 70.4 L 44.245833333333 68.2 L 46.6375 69.3 L 49.029166666667 69.3 L 51.420833333333 67.1 L 53.8125 67.1 L 56.204166666667 66 L 58.595833333333 63.8 L 60.9875 64.9 L 63.379166666667 64.9 L 65.770833333333 66 L 68.1625 66 L 70.554166666667 67.1 L 72.945833333333 64.9 L 75.3375 63.8 L 77.729166666667 64.9 L 80.120833333333 64.9 L 82.5125 66 L 84.904166666667 67.1 L 87.295833333333 66 L 89.6875 66 L 92.079166666667 66 L 94.470833333333 70.4 L 96.8625 70.4 L 99.254166666667 70.4 L 101.64583333333 69.3 L 104.0375 69.3 L 106.42916666667 69.3 L 108.82083333333 69.3 L 111.2125 70.4 L 113.60416666667 71.5 L 115.99583333333 70.4 L 118.3875 70.4 L 120.77916666667 70.4 L 123.17083333333 70.4 L 125.5625 69.3 L 127.95416666667 71.5 L 130.34583333333 69.3 L 132.7375 69.3 L 135.12916666667 69.3 L 137.52083333333 69.3 L 139.9125 69.3 L 142.30416666667 69.3 L 144.69583333333 67.1 L 147.0875 68.2 L 149.47916666667 68.2 L 151.87083333333 69.3 L 154.2625 70.4 L 156.65416666667 71.5 L 159.04583333333 69.3 L 161.4375 69.3 L 163.82916666667 69.3 L 166.22083333333 69.3 L 168.6125 70.4 L 171.00416666667 69.3 L 173.39583333333 70.4 L 175.7875 70.4 L 178.17916666667 70.4 L 180.57083333333 71.5 L 182.9625 72.6 L 185.35416666667 72.6 L 187.74583333333 72.6 L 190.1375 71.5 L 192.52916666667 71.5 L 194.92083333333 71.5 L 197.3125 71.5 L 199.70416666667 72.6 L 202.09583333333 70.4 L 204.4875 71.5 L 206.87916666667 71.5 L 209.27083333333 71.5 L 211.6625 71.5 L 214.05416666667 71.5 L 216.44583333333 70.4 L 218.8375 69.3 L 221.22916666667 68.2 L 223.62083333333 69.3 L 226.0125 70.4 L 228.40416666667 71.5 L 230.79583333333 71.5 L 233.1875 70.4 L 235.57916666667 71.5 L 237.97083333333 69.3 L 240.3625 69.3 L 242.75416666667 70.4 L 245.14583333333 70.4 L 247.5375 68.2 L 249.92916666667 68.2 L 252.32083333333 68.2 L 254.7125 68.2 L 257.10416666667 69.3 L 259.49583333333 69.3 L 261.8875 69.3 L 264.27916666667 68.2 L 266.67083333333 68.2 L 269.0625 70.4 L 271.45416666667 70.4 L 273.84583333333 70.4 L 276.2375 68.2 L 278.62916666667 70.4 L 281.02083333333 70.4 L 283.4125 70.4 L 285.80416666667 71.5" class="highcharts-graph" data-z-index="1" stroke="#662673" stroke-width="2" stroke-linejoin="round" stroke-linecap="round"></path></g><g data-z-index="0.1" class="highcharts-markers highcharts-series-1 highcharts-line-series " transform="translate(31,86) scale(1 1)" clip-path="none"></g><g data-z-index="0.1" class="highcharts-series highcharts-series-2 highcharts-line-series " transform="translate(31,86) scale(1 1)" clip-path="url(#highcharts-g3sw1wh-7)"><path fill="none" d="M 1.1958333333333 42.900000000000006 L 3.5875 42.900000000000006 L 5.9791666666667 46.199999999999996 L 8.3708333333333 49.5 L 10.7625 51.7 L 13.154166666667 49.5 L 15.545833333333 50.6 L 17.9375 51.7 L 20.329166666667 51.7 L 22.720833333333 49.5 L 25.1125 42.900000000000006 L 27.504166666667 33 L 29.895833333333 29.700000000000003 L 32.2875 28.599999999999994 L 34.679166666667 29.700000000000003 L 37.070833333333 31.900000000000006 L 39.4625 31.900000000000006 L 41.854166666667 33 L 44.245833333333 34.10000000000001 L 46.6375 33 L 49.029166666667 31.900000000000006 L 51.420833333333 27.5 L 53.8125 24.19999999999999 L 56.204166666667 13.200000000000003 L 58.595833333333 17.60000000000001 L 60.9875 19.80000000000001 L 63.379166666667 25.299999999999997 L 65.770833333333 29.700000000000003 L 68.1625 33 L 70.554166666667 37.4 L 72.945833333333 39.6 L 75.3375 40.7 L 77.729166666667 41.800000000000004 L 80.120833333333 41.800000000000004 L 82.5125 37.4 L 84.904166666667 27.5 L 87.295833333333 26.39999999999999 L 89.6875 30.799999999999997 L 92.079166666667 31.900000000000006 L 94.470833333333 42.900000000000006 L 96.8625 46.199999999999996 L 99.254166666667 47.3 L 101.64583333333 48.4 L 104.0375 48.4 L 106.42916666667 48.4 L 108.82083333333 47.3 L 111.2125 44 L 113.60416666667 37.4 L 115.99583333333 31.900000000000006 L 118.3875 31.900000000000006 L 120.77916666667 36.3 L 123.17083333333 38.5 L 125.5625 40.7 L 127.95416666667 47.3 L 130.34583333333 49.5 L 132.7375 50.6 L 135.12916666667 49.5 L 137.52083333333 45.1 L 139.9125 40.7 L 142.30416666667 31.900000000000006 L 144.69583333333 27.5 L 147.0875 29.700000000000003 L 149.47916666667 31.900000000000006 L 151.87083333333 37.4 L 154.2625 41.800000000000004 L 156.65416666667 41.800000000000004 L 159.04583333333 44 L 161.4375 45.1 L 163.82916666667 44 L 166.22083333333 41.800000000000004 L 168.6125 36.3 L 171.00416666667 26.39999999999999 L 173.39583333333 31.900000000000006 L 175.7875 35.199999999999996 L 178.17916666667 38.5 L 180.57083333333 42.900000000000006 L 182.9625 48.4 L 185.35416666667 52.8 L 187.74583333333 52.8 L 190.1375 53.9 L 192.52916666667 51.7 L 194.92083333333 47.3 L 197.3125 40.7 L 199.70416666667 30.799999999999997 L 202.09583333333 27.5 L 204.4875 30.799999999999997 L 206.87916666667 31.900000000000006 L 209.27083333333 35.199999999999996 L 211.6625 38.5 L 214.05416666667 41.800000000000004 L 216.44583333333 46.199999999999996 L 218.8375 47.3 L 221.22916666667 42.900000000000006 L 223.62083333333 40.7 L 226.0125 36.3 L 228.40416666667 30.799999999999997 L 230.79583333333 26.39999999999999 L 233.1875 25.299999999999997 L 235.57916666667 28.599999999999994 L 237.97083333333 28.599999999999994 L 240.3625 33 L 242.75416666667 37.4 L 245.14583333333 40.7 L 247.5375 41.800000000000004 L 249.92916666667 41.800000000000004 L 252.32083333333 39.6 L 254.7125 31.900000000000006 L 257.10416666667 23.099999999999994 L 259.49583333333 18.700000000000003 L 261.8875 21.999999999999986 L 264.27916666667 27.5 L 266.67083333333 33 L 269.0625 38.5 L 271.45416666667 39.6 L 273.84583333333 41.800000000000004 L 276.2375 44 L 278.62916666667 45.1 L 281.02083333333 44 L 283.4125 41.800000000000004 L 285.80416666667 34.10000000000001" class="highcharts-graph" data-z-index="1" stroke="#689199" stroke-width="2" stroke-linejoin="round" stroke-linecap="round"></path></g><g data-z-index="0.1" class="highcharts-markers highcharts-series-2 highcharts-line-series " transform="translate(31,86) scale(1 1)" clip-path="none"></g><g data-z-index="0.1" class="highcharts-series highcharts-series-3 highcharts-line-series " transform="translate(31,86) scale(1 1)" clip-path="url(#highcharts-g3sw1wh-7)"><path fill="none" d="M 1.1958333333333 56.1 L 3.5875 55 L 5.9791666666667 56.1 L 8.3708333333333 59.400000000000006 L 10.7625 58.300000000000004 L 13.154166666667 57.2 L 15.545833333333 58.300000000000004 L 17.9375 57.2 L 20.329166666667 53.9 L 22.720833333333 53.9 L 25.1125 53.9 L 27.504166666667 52.8 L 29.895833333333 53.9 L 32.2875 53.9 L 34.679166666667 51.7 L 37.070833333333 52.8 L 39.4625 49.5 L 41.854166666667 45.1 L 44.245833333333 44 L 46.6375 44 L 49.029166666667 40.7 L 51.420833333333 38.5 L 53.8125 39.6 L 56.204166666667 38.5 L 58.595833333333 44 L 60.9875 45.1 L 63.379166666667 46.199999999999996 L 65.770833333333 46.199999999999996 L 68.1625 48.4 L 70.554166666667 49.5 L 72.945833333333 48.4 L 75.3375 46.199999999999996 L 77.729166666667 46.199999999999996 L 80.120833333333 46.199999999999996 L 82.5125 47.3 L 84.904166666667 47.3 L 87.295833333333 44 L 89.6875 45.1 L 92.079166666667 47.3 L 94.470833333333 51.7 L 96.8625 53.9 L 99.254166666667 53.9 L 101.64583333333 53.9 L 104.0375 52.8 L 106.42916666667 51.7 L 108.82083333333 51.7 L 111.2125 53.9 L 113.60416666667 53.9 L 115.99583333333 53.9 L 118.3875 52.8 L 120.77916666667 51.7 L 123.17083333333 51.7 L 125.5625 52.8 L 127.95416666667 52.8 L 130.34583333333 52.8 L 132.7375 51.7 L 135.12916666667 50.6 L 137.52083333333 50.6 L 139.9125 50.6 L 142.30416666667 49.5 L 144.69583333333 49.5 L 147.0875 49.5 L 149.47916666667 48.4 L 151.87083333333 49.5 L 154.2625 50.6 L 156.65416666667 52.8 L 159.04583333333 51.7 L 161.4375 50.6 L 163.82916666667 51.7 L 166.22083333333 50.6 L 168.6125 52.8 L 171.00416666667 52.8 L 173.39583333333 56.1 L 175.7875 56.1 L 178.17916666667 55 L 180.57083333333 56.1 L 182.9625 59.400000000000006 L 185.35416666667 59.400000000000006 L 187.74583333333 58.300000000000004 L 190.1375 56.1 L 192.52916666667 56.1 L 194.92083333333 56.1 L 197.3125 56.1 L 199.70416666667 56.1 L 202.09583333333 55 L 204.4875 53.9 L 206.87916666667 53.9 L 209.27083333333 53.9 L 211.6625 53.9 L 214.05416666667 53.9 L 216.44583333333 53.9 L 218.8375 53.9 L 221.22916666667 52.8 L 223.62083333333 51.7 L 226.0125 51.7 L 228.40416666667 51.7 L 230.79583333333 49.5 L 233.1875 47.3 L 235.57916666667 48.4 L 237.97083333333 47.3 L 240.3625 48.4 L 242.75416666667 49.5 L 245.14583333333 49.5 L 247.5375 49.5 L 249.92916666667 50.6 L 252.32083333333 51.7 L 254.7125 50.6 L 257.10416666667 50.6 L 259.49583333333 50.6 L 261.8875 49.5 L 264.27916666667 48.4 L 266.67083333333 50.6 L 269.0625 50.6 L 271.45416666667 50.6 L 273.84583333333 50.6 L 276.2375 48.4 L 278.62916666667 51.7 L 281.02083333333 50.6 L 283.4125 51.7 L 285.80416666667 49.5" class="highcharts-graph" data-z-index="1" stroke="#B375AB" stroke-width="2" stroke-linejoin="round" stroke-linecap="round"></path></g><g data-z-index="0.1" class="highcharts-markers highcharts-series-3 highcharts-line-series " transform="translate(31,86) scale(1 1)" clip-path="none"></g></g><text x="2" text-anchor="start" class="highcharts-title" data-z-index="4" style="color:#000000;font-size:10px;font-weight:bold;fill:#000000;" y="9"><tspan>Arbeitslosenquote nach Herkunft und Geschlecht</tspan></text><text x="2" text-anchor="start" class="highcharts-subtitle" data-z-index="4" style="color:#000000;font-size:10px;font-weight:normal;font-family:Arial;fill:#000000;" y="27"><tspan>Basel-Stadt</tspan></text><g class="highcharts-legend" data-z-index="7" transform="translate(31,43)"><rect fill="none" class="highcharts-legend-box" rx="0" ry="0" x="0" y="0" width="300" height="31" visibility="visible"></rect><g data-z-index="1"><g><g class="highcharts-legend-item highcharts-line-series highcharts-color-undefined highcharts-series-0" data-z-index="1" transform="translate(0,-5)"><path fill="none" d="M 0 10 L 16 10" class="highcharts-graph" stroke="#008AC3" stroke-width="2"></path><text x="21" style="color:#333333;font-size:10px;font-weight:normal;cursor:pointer;fill:#333333;" text-anchor="start" data-z-index="2" y="13"><tspan>Schweizer</tspan></text></g><g class="highcharts-legend-item highcharts-line-series highcharts-color-undefined highcharts-series-1" data-z-index="1" transform="translate(111.46875,-5)"><path fill="none" d="M 0 10 L 16 10" class="highcharts-graph" stroke="#662673" stroke-width="2"></path><text x="21" y="13" style="color:#333333;font-size:10px;font-weight:normal;cursor:pointer;fill:#333333;" text-anchor="start" data-z-index="2"><tspan>Schweizerinnen</tspan></text></g><g class="highcharts-legend-item highcharts-line-series highcharts-color-undefined highcharts-series-2" data-z-index="1" transform="translate(0,13)"><path fill="none" d="M 0 10 L 16 10" class="highcharts-graph" stroke="#689199" stroke-width="2"></path><text x="21" y="13" style="color:#333333;font-size:10px;font-weight:normal;cursor:pointer;fill:#333333;" text-anchor="start" data-z-index="2"><tspan>Ausländer</tspan></text></g><g class="highcharts-legend-item highcharts-line-series highcharts-color-undefined highcharts-series-3" data-z-index="1" transform="translate(111.46875,13)"><path fill="none" d="M 0 10 L 16 10" class="highcharts-graph" stroke="#B375AB" stroke-width="2"></path><text x="21" y="13" style="color:#333333;font-size:10px;font-weight:normal;cursor:pointer;fill:#333333;" text-anchor="start" data-z-index="2"><tspan>Ausländerinnen</tspan></text></g></g></g></g><g class="highcharts-axis-labels highcharts-xaxis-labels " data-z-index="7"><text x="32.195833333333" style="color:#000000;cursor:default;font-size:10px;white-space:nowrap;fill:#000000;" text-anchor="middle" transform="translate(0,0)" y="203" opacity="1">2008</text><text x="60.895833333333" style="color:#000000;cursor:default;font-size:10px;white-space:nowrap;fill:#000000;" text-anchor="middle" transform="translate(0,0)" y="203" opacity="1">2009</text><text x="89.595833333333" style="color:#000000;cursor:default;font-size:10px;white-space:nowrap;fill:#000000;" text-anchor="middle" transform="translate(0,0)" y="203" opacity="1">2010</text><text x="118.29583333333" style="color:#000000;cursor:default;font-size:10px;white-space:nowrap;fill:#000000;" text-anchor="middle" transform="translate(0,0)" y="203" opacity="1">2011</text><text x="146.99583333333" style="color:#000000;cursor:default;font-size:10px;white-space:nowrap;fill:#000000;" text-anchor="middle" transform="translate(0,0)" y="203" opacity="1">2012</text><text x="175.69583333333" style="color:#000000;cursor:default;font-size:10px;white-space:nowrap;fill:#000000;" text-anchor="middle" transform="translate(0,0)" y="203" opacity="1">2013</text><text x="204.39583333333" style="color:#000000;cursor:default;font-size:10px;white-space:nowrap;fill:#000000;" text-anchor="middle" transform="translate(0,0)" y="203" opacity="1">2014</text><text x="233.09583333333" style="color:#000000;cursor:default;font-size:10px;white-space:nowrap;fill:#000000;" text-anchor="middle" transform="translate(0,0)" y="203" opacity="1">2015</text><text x="261.79583333333" style="color:#000000;cursor:default;font-size:10px;white-space:nowrap;fill:#000000;" text-anchor="middle" transform="translate(0,0)" y="203" opacity="1">2016</text><text x="290.49583333333" style="color:#000000;cursor:default;font-size:10px;white-space:nowrap;fill:#000000;" text-anchor="middle" transform="translate(0,0)" y="203" opacity="1">2017</text></g><g class="highcharts-axis-labels highcharts-yaxis-labels " data-z-index="7"><text x="16" style="color:#000000;cursor:default;font-size:10;fill:#000000;" text-anchor="end" transform="translate(0,0)" y="188" opacity="1">0%</text><text x="16" style="color:#000000;cursor:default;font-size:10;fill:#000000;" text-anchor="end" transform="translate(0,0)" y="177" opacity="1">1%</text><text x="16" style="color:#000000;cursor:default;font-size:10;fill:#000000;" text-anchor="end" transform="translate(0,0)" y="166" opacity="1">2%</text><text x="16" style="color:#000000;cursor:default;font-size:10;fill:#000000;" text-anchor="end" transform="translate(0,0)" y="155" opacity="1">3%</text><text x="16" style="color:#000000;cursor:default;font-size:10;fill:#000000;" text-anchor="end" transform="translate(0,0)" y="144" opacity="1">4%</text><text x="16" style="color:#000000;cursor:default;font-size:10;fill:#000000;" text-anchor="end" transform="translate(0,0)" y="133" opacity="1">5%</text><text x="16" style="color:#000000;cursor:default;font-size:10;fill:#000000;" text-anchor="end" transform="translate(0,0)" y="122" opacity="1">6%</text><text x="16" style="color:#000000;cursor:default;font-size:10;fill:#000000;" text-anchor="end" transform="translate(0,0)" y="111" opacity="1">7%</text><text x="16" style="color:#000000;cursor:default;font-size:10;fill:#000000;" text-anchor="end" transform="translate(0,0)" y="100" opacity="1">8%</text><text x="16" style="color:#000000;cursor:default;font-size:10;fill:#000000;" text-anchor="end" transform="translate(0,0)" y="89" opacity="1">9%</text></g><text x="10" class="highcharts-credits" text-anchor="start" data-z-index="8" style="cursor:default;color:#000000;font-size:10px;fill:#000000;" y="193"><tspan>Quelle: Staatssekretariat für Wirtschaft SECO, Arbeitslosenstatistik.</tspan></text></svg>