<?xml version="1.0" standalone="no"?><!DOCTYPE svg PUBLIC "-//W3C//DTD SVG 1.1//EN" "http://www.w3.org/Graphics/SVG/1.1/DTD/svg11.dtd"><svg xmlns:xlink="http://www.w3.org/1999/xlink" version="1.1" class="highcharts-root" style="font-family:Arial;font-size:12px;" xmlns="http://www.w3.org/2000/svg" viewBox="0 0 485 415"><desc>Created with Highcharts 8.0.0</desc><defs><clipPath id="highcharts-w0zfynp-366-"><rect x="0" y="0" width="282" height="96" fill="none"></rect></clipPath><clipPath id="highcharts-w0zfynp-487-"><rect x="0" y="0" width="282" height="96" fill="none"></rect></clipPath></defs><rect fill="#fbfbfb" class="highcharts-background" x="0" y="0" width="320" height="221" rx="0" ry="0"></rect><rect fill="none" class="highcharts-plot-background" x="36" y="94" width="282" height="96"></rect><g class="highcharts-pane-group" data-z-index="0"></g><g class="highcharts-grid highcharts-xaxis-grid" data-z-index="1"><path fill="none" data-z-index="1" class="highcharts-grid-line" d="M 36.5 94 L 36.5 190" opacity="1"></path><path fill="none" data-z-index="1" class="highcharts-grid-line" d="M 64.5 94 L 64.5 190" opacity="1"></path><path fill="none" data-z-index="1" class="highcharts-grid-line" d="M 93.5 94 L 93.5 190" opacity="1"></path><path fill="none" data-z-index="1" class="highcharts-grid-line" d="M 121.5 94 L 121.5 190" opacity="1"></path><path fill="none" data-z-index="1" class="highcharts-grid-line" d="M 149.5 94 L 149.5 190" opacity="1"></path><path fill="none" data-z-index="1" class="highcharts-grid-line" d="M 177.5 94 L 177.5 190" opacity="1"></path><path fill="none" data-z-index="1" class="highcharts-grid-line" d="M 205.5 94 L 205.5 190" opacity="1"></path><path fill="none" data-z-index="1" class="highcharts-grid-line" d="M 234.5 94 L 234.5 190" opacity="1"></path><path fill="none" data-z-index="1" class="highcharts-grid-line" d="M 262.5 94 L 262.5 190" opacity="1"></path><path fill="none" data-z-index="1" class="highcharts-grid-line" d="M 290.5 94 L 290.5 190" opacity="1"></path></g><g class="highcharts-grid highcharts-yaxis-grid" data-z-index="1"><path fill="none" stroke="#B9CFD7" stroke-width="0.5" data-z-index="1" class="highcharts-grid-line" d="M 36 190.25 L 318 190.25" opacity="1"></path><path fill="none" stroke="#B9CFD7" stroke-width="0.5" data-z-index="1" class="highcharts-grid-line" d="M 36 176.25 L 318 176.25" opacity="1"></path><path fill="none" stroke="#B9CFD7" stroke-width="0.5" data-z-index="1" class="highcharts-grid-line" d="M 36 163.25 L 318 163.25" opacity="1"></path><path fill="none" stroke="#B9CFD7" stroke-width="0.5" data-z-index="1" class="highcharts-grid-line" d="M 36 149.25 L 318 149.25" opacity="1"></path><path fill="none" stroke="#B9CFD7" stroke-width="0.5" data-z-index="1" class="highcharts-grid-line" d="M 36 135.25 L 318 135.25" opacity="1"></path><path fill="none" stroke="#B9CFD7" stroke-width="0.5" data-z-index="1" class="highcharts-grid-line" d="M 36 121.25 L 318 121.25" opacity="1"></path><path fill="none" stroke="#B9CFD7" stroke-width="0.5" data-z-index="1" class="highcharts-grid-line" d="M 36 108.25 L 318 108.25" opacity="1"></path><path fill="none" stroke="#B9CFD7" stroke-width="0.5" data-z-index="1" class="highcharts-grid-line" d="M 36 93.75 L 318 93.75" opacity="1"></path></g><rect fill="none" class="highcharts-plot-border" data-z-index="1" x="36" y="94" width="282" height="96"></rect><g class="highcharts-axis highcharts-xaxis" data-z-index="2"><path fill="none" class="highcharts-axis-line" stroke="#B9CFD7" stroke-width="0.5" data-z-index="7" d="M 36 190.25 L 318 190.25"></path></g><g class="highcharts-axis highcharts-yaxis" data-z-index="2"><path fill="none" class="highcharts-axis-line" data-z-index="7" d="M 36 94 L 36 190"></path></g><g class="highcharts-series-group" data-z-index="3"><g data-z-index="0.1" class="highcharts-series highcharts-series-0 highcharts-line-series" transform="translate(36,94) scale(1 1)" clip-path="url(#highcharts-w0zfynp-487-)"><path fill="none" d="M 1.175 55.95428571428571 L 3.525 54.72 L 5.875 52.52571428571429 L 8.225 49.645714285714284 L 10.575 47.86285714285714 L 12.925 47.58857142857143 L 15.275 48.27428571428571 L 17.625 53.76 L 19.975 51.01714285714286 L 22.325 49.23428571428571 L 24.675 49.919999999999995 L 27.025 49.78285714285714 L 29.375 51.01714285714286 L 31.725 52.52571428571429 L 34.075 53.62285714285714 L 36.425 56.36571428571428 L 38.775 55.817142857142855 L 41.125 58.01142857142857 L 43.475 59.794285714285714 L 45.825 63.36 L 48.175 65.41714285714286 L 50.525 66.5142857142857 L 52.875 65.69142857142857 L 55.225 66.5142857142857 L 57.575 66.24 L 59.925 66.78857142857143 L 62.275 66.24 L 64.625 70.08 L 66.975 71.03999999999999 L 69.325 71.72571428571429 L 71.675 68.16 L 74.025 69.25714285714285 L 76.375 67.47428571428571 L 78.725 66.5142857142857 L 81.075 66.5142857142857 L 83.425 63.90857142857143 L 85.775 60.61714285714285 L 88.125 57.87428571428571 L 90.475 59.65714285714286 L 92.825 61.988571428571426 L 95.175 62.12571428571428 L 97.525 64.04571428571428 L 99.875 62.94857142857143 L 102.225 63.08571428571428 L 104.575 63.08571428571428 L 106.925 61.988571428571426 L 109.275 58.559999999999995 L 111.625 56.64 L 113.975 52.8 L 116.325 53.62285714285714 L 118.675 55.26857142857143 L 121.025 56.36571428571428 L 123.375 54.582857142857144 L 125.725 56.22857142857143 L 128.075 57.87428571428571 L 130.425 58.01142857142857 L 132.775 58.14857142857143 L 135.125 60.205714285714286 L 137.475 57.87428571428571 L 139.825 56.36571428571428 L 142.175 54.99428571428571 L 144.525 54.99428571428571 L 146.875 57.325714285714284 L 149.225 58.14857142857143 L 151.575 60.48 L 153.925 63.63428571428571 L 156.275 64.45714285714286 L 158.625 62.81142857142857 L 160.975 62.4 L 163.325 61.85142857142857 L 165.675 61.44 L 168.025 61.028571428571425 L 170.375 58.97142857142857 L 172.725 59.245714285714286 L 175.075 59.519999999999996 L 177.425 59.93142857142857 L 179.775 60.61714285714285 L 182.125 60.48 L 184.475 64.04571428571428 L 186.825 63.36 L 189.175 61.85142857142857 L 191.525 62.26285714285714 L 193.875 62.537142857142854 L 196.225 63.08571428571428 L 198.575 58.01142857142857 L 200.925 56.22857142857143 L 203.275 56.36571428571428 L 205.625 54.582857142857144 L 207.975 54.582857142857144 L 210.325 55.68 L 212.675 54.72 L 215.025 52.25142857142857 L 217.375 54.44571428571428 L 219.725 53.348571428571425 L 222.075 54.857142857142854 L 224.425 51.29142857142857 L 226.775 50.74285714285714 L 229.125 53.074285714285715 L 231.475 55.26857142857143 L 233.825 56.64 L 236.175 63.08571428571428 L 238.525 63.63428571428571 L 240.875 65.00571428571428 L 243.225 64.59428571428572 L 245.575 67.2 L 247.925 66.24 L 250.275 66.24 L 252.625 64.18285714285715 L 254.975 63.497142857142855 L 257.325 64.04571428571428 L 259.675 61.44 L 262.025 62.674285714285716 L 264.375 64.04571428571428 L 266.725 66.92571428571429 L 269.075 67.2 L 271.425 66.10285714285715 L 273.775 67.06285714285714 L 276.125 66.5142857142857 L 278.475 67.88571428571429 L 280.825 64.45714285714286" class="highcharts-graph" data-z-index="1" stroke="#E7CEE2" stroke-width="2" stroke-linejoin="round" stroke-linecap="round"></path></g><g data-z-index="0.1" class="highcharts-markers highcharts-series-0 highcharts-line-series" transform="translate(36,94) scale(1 1)" clip-path="none"></g><g data-z-index="0.1" class="highcharts-series highcharts-series-1 highcharts-line-series" transform="translate(36,94) scale(1 1)" clip-path="url(#highcharts-w0zfynp-487-)"><path fill="none" d="M 1.175 89.96571428571428 L 3.525 90.37714285714286 L 5.875 90.37714285714286 L 8.225 90.65142857142857 L 10.575 90.92571428571429 L 12.925 89.28 L 15.275 89.14285714285714 L 17.625 87.90857142857143 L 19.975 88.45714285714286 L 22.325 89.00571428571429 L 24.675 88.45714285714286 L 27.025 86.26285714285714 L 29.375 85.57714285714286 L 31.725 85.44 L 34.075 84.75428571428571 L 36.425 84.75428571428571 L 38.775 84.75428571428571 L 41.125 84.48 L 43.475 85.02857142857142 L 45.825 84.89142857142858 L 48.175 85.85142857142857 L 50.525 86.81142857142856 L 52.875 86.12571428571428 L 55.225 85.44 L 57.575 84.34285714285714 L 59.925 83.93142857142857 L 62.275 83.93142857142857 L 64.625 85.71428571428571 L 66.975 84.89142857142858 L 69.325 83.93142857142857 L 71.675 82.56 L 74.025 82.83428571428571 L 76.375 81.6 L 78.725 82.01142857142857 L 81.075 81.32571428571428 L 83.425 80.09142857142857 L 85.775 79.81714285714285 L 88.125 79.68 L 90.475 80.91428571428571 L 92.825 80.50285714285714 L 95.175 79.40571428571428 L 97.525 80.36571428571429 L 99.875 79.68 L 102.225 79.81714285714285 L 104.575 78.85714285714286 L 106.925 77.48571428571428 L 109.275 78.44571428571429 L 111.625 78.44571428571429 L 113.975 78.99428571428571 L 116.325 79.68 L 118.675 79.26857142857142 L 121.025 80.09142857142857 L 123.375 82.01142857142857 L 125.725 82.69714285714285 L 128.075 82.69714285714285 L 130.425 82.69714285714285 L 132.775 83.10857142857142 L 135.125 81.32571428571428 L 137.475 81.18857142857144 L 139.825 79.54285714285714 L 142.175 78.17142857142858 L 144.525 78.72 L 146.875 79.54285714285714 L 149.225 78.30857142857143 L 151.575 78.85714285714286 L 153.925 79.68 L 156.275 79.54285714285714 L 158.625 80.36571428571429 L 160.975 78.72 L 163.325 78.30857142857143 L 165.675 78.44571428571429 L 168.025 79.26857142857142 L 170.375 77.75999999999999 L 172.725 76.38857142857142 L 175.075 76.66285714285715 L 177.425 76.25142857142856 L 179.775 76.66285714285715 L 182.125 76.25142857142856 L 184.475 75.70285714285714 L 186.825 76.25142857142856 L 189.175 77.89714285714285 L 191.525 77.62285714285714 L 193.875 77.07428571428571 L 196.225 76.38857142857142 L 198.575 76.25142857142856 L 200.925 77.34857142857143 L 203.275 77.89714285714285 L 205.625 76.52571428571429 L 207.975 76.8 L 210.325 77.21142857142857 L 212.675 76.8 L 215.025 77.21142857142857 L 217.375 76.66285714285715 L 219.725 75.84 L 222.075 75.84 L 224.425 75.42857142857143 L 226.775 77.07428571428571 L 229.125 77.75999999999999 L 231.475 78.17142857142858 L 233.825 78.03428571428572 L 236.175 79.40571428571428 L 238.525 80.50285714285714 L 240.875 81.05142857142857 L 243.225 80.77714285714285 L 245.575 82.56 L 247.925 81.32571428571428 L 250.275 81.32571428571428 L 252.625 81.6 L 254.975 81.46285714285715 L 257.325 81.6 L 259.675 80.91428571428571 L 262.025 81.05142857142857 L 264.375 80.36571428571429 L 266.725 80.50285714285714 L 269.075 81.6 L 271.425 80.50285714285714 L 273.775 80.91428571428571 L 276.125 81.18857142857144 L 278.475 81.87428571428572 L 280.825 81.32571428571428" class="highcharts-graph" data-z-index="1" stroke="#B375AB" stroke-width="2" stroke-linejoin="round" stroke-linecap="round"></path></g><g data-z-index="0.1" class="highcharts-markers highcharts-series-1 highcharts-line-series" transform="translate(36,94) scale(1 1)" clip-path="none"></g><g data-z-index="0.1" class="highcharts-series highcharts-series-2 highcharts-line-series" transform="translate(36,94) scale(1 1)" clip-path="url(#highcharts-w0zfynp-487-)"><path fill="none" d="M 1.175 29.348571428571432 L 3.525 30.308571428571426 L 5.875 32.22857142857143 L 8.225 41.69142857142857 L 10.575 45.25714285714285 L 12.925 50.46857142857143 L 15.275 58.285714285714285 L 17.625 59.65714285714286 L 19.975 58.285714285714285 L 22.325 56.64 L 24.675 55.68 L 27.025 52.93714285714285 L 29.375 52.114285714285714 L 31.725 50.605714285714285 L 34.075 56.777142857142856 L 36.425 60.48 L 38.775 63.08571428571428 L 41.125 65.82857142857142 L 43.475 70.21714285714286 L 45.825 71.31428571428572 L 48.175 72.68571428571428 L 50.525 74.05714285714285 L 52.875 72.27428571428571 L 55.225 67.33714285714285 L 57.575 65.28 L 59.925 63.77142857142857 L 62.275 65.55428571428571 L 64.625 70.21714285714286 L 66.975 69.53142857142856 L 69.325 69.53142857142856 L 71.675 72.54857142857142 L 74.025 71.72571428571429 L 76.375 70.49142857142857 L 78.725 66.5142857142857 L 81.075 55.95428571428571 L 83.425 38.537142857142854 L 85.775 27.70285714285714 L 88.125 24.54857142857142 L 90.475 32.36571428571428 L 92.825 41.55428571428571 L 95.175 50.879999999999995 L 97.525 58.69714285714286 L 99.875 64.04571428571428 L 102.225 68.70857142857143 L 104.575 68.98285714285714 L 106.925 63.36 L 109.275 54.17142857142857 L 111.625 31.13142857142857 L 113.975 26.879999999999995 L 116.325 30.44571428571429 L 118.675 37.988571428571426 L 121.025 47.31428571428571 L 123.375 55.26857142857143 L 125.725 60.34285714285714 L 128.075 64.73142857142857 L 130.425 66.78857142857143 L 132.775 64.86857142857143 L 135.125 60.205714285714286 L 137.475 47.31428571428571 L 139.825 29.48571428571428 L 142.175 29.348571428571432 L 144.525 34.559999999999995 L 146.875 39.497142857142855 L 149.225 48.54857142857143 L 151.575 56.91428571428571 L 153.925 63.36 L 156.275 65.55428571428571 L 158.625 66.65142857142857 L 160.975 62.94857142857143 L 163.325 54.72 L 165.675 38.67428571428571 L 168.025 14.399999999999991 L 170.375 14.125714285714281 L 172.725 18.514285714285705 L 175.075 22.902857142857144 L 177.425 33.18857142857143 L 179.775 42.925714285714285 L 182.125 51.15428571428571 L 184.475 55.95428571428571 L 186.825 57.051428571428566 L 189.175 54.308571428571426 L 191.525 47.31428571428571 L 193.875 32.63999999999999 L 196.225 18.78857142857143 L 198.575 13.57714285714286 L 200.925 16.319999999999993 L 203.275 21.668571428571425 L 205.625 25.78285714285714 L 207.975 34.83428571428571 L 210.325 40.18285714285714 L 212.675 49.919999999999995 L 215.025 53.348571428571425 L 217.375 52.8 L 219.725 51.15428571428571 L 222.075 36.48 L 224.425 16.457142857142856 L 226.775 11.245714285714286 L 229.125 21.394285714285715 L 231.475 29.48571428571428 L 233.825 39.22285714285714 L 236.175 47.45142857142857 L 238.525 53.348571428571425 L 240.875 58.97142857142857 L 243.225 57.46285714285714 L 245.575 61.16571428571429 L 247.925 56.777142857142856 L 250.275 45.25714285714285 L 252.625 26.879999999999995 L 254.975 24.411428571428573 L 257.325 27.70285714285714 L 259.675 33.18857142857143 L 262.025 43.61142857142857 L 264.375 50.46857142857143 L 266.725 56.64 L 269.075 60.48 L 271.425 61.44 L 273.775 60.205714285714286 L 276.125 53.76 L 278.475 38.94857142857143 L 280.825 17.28" class="highcharts-graph" data-z-index="1" stroke="#662673" stroke-width="2" stroke-linejoin="round" stroke-linecap="round"></path></g><g data-z-index="0.1" class="highcharts-markers highcharts-series-2 highcharts-line-series" transform="translate(36,94) scale(1 1)" clip-path="none"></g></g><text x="2" text-anchor="start" class="highcharts-title" data-z-index="4" style="color:#000000;font-size:10px;font-weight:bold;fill:#000000;" y="9"><tspan>Arbeitslose in Industrie und Baugewerbe</tspan></text><text x="2" text-anchor="start" class="highcharts-subtitle" data-z-index="4" style="color:#000000;font-size:10px;font-weight:normal;font-family:Arial;fill:#000000;" y="25"><tspan>Basel-Stadt</tspan></text><text x="2" text-anchor="start" class="highcharts-caption" data-z-index="4" style="color:#666666;fill:#666666;" y="221"></text><g class="highcharts-legend" data-z-index="7" transform="translate(36,39)"><rect fill="none" class="highcharts-legend-box" rx="0" ry="0" x="0" y="0" width="189" height="43" visibility="visible"></rect><g data-z-index="1"><g><g class="highcharts-legend-item highcharts-line-series highcharts-color-undefined highcharts-series-0" data-z-index="1" transform="translate(0,-5)"><path fill="none" d="M 0 10 L 16 10" class="highcharts-graph" stroke="#E7CEE2" stroke-width="2"></path><text x="21" style="color:#333333;cursor:pointer;font-size:10px;font-weight:normal;fill:#333333;" text-anchor="start" data-z-index="2" y="13"><tspan>Industrie (exkl. Chemie, Pharma)</tspan></text></g><g class="highcharts-legend-item highcharts-line-series highcharts-color-undefined highcharts-series-1" data-z-index="1" transform="translate(0,11)"><path fill="none" d="M 0 10 L 16 10" class="highcharts-graph" stroke="#B375AB" stroke-width="2"></path><text x="21" y="13" style="color:#333333;cursor:pointer;font-size:10px;font-weight:normal;fill:#333333;" text-anchor="start" data-z-index="2"><tspan>Chemie, Pharma</tspan></text></g><g class="highcharts-legend-item highcharts-line-series highcharts-color-undefined highcharts-series-2" data-z-index="1" transform="translate(0,27)"><path fill="none" d="M 0 10 L 16 10" class="highcharts-graph" stroke="#662673" stroke-width="2"></path><text x="21" y="13" style="color:#333333;cursor:pointer;font-size:10px;font-weight:normal;fill:#333333;" text-anchor="start" data-z-index="2"><tspan>Baugewerbe</tspan></text></g></g></g></g><g class="highcharts-axis-labels highcharts-xaxis-labels" data-z-index="7"><text x="51.175" style="color:#000000;cursor:default;font-size:10px;white-space:nowrap;fill:#000000;" text-anchor="middle" transform="translate(0,0)" y="208" opacity="1">2009</text><text x="79.375" style="color:#000000;cursor:default;font-size:10px;white-space:nowrap;fill:#000000;" text-anchor="middle" transform="translate(0,0)" y="208" opacity="1">2010</text><text x="107.575" style="color:#000000;cursor:default;font-size:10px;white-space:nowrap;fill:#000000;" text-anchor="middle" transform="translate(0,0)" y="208" opacity="1">2011</text><text x="135.775" style="color:#000000;cursor:default;font-size:10px;white-space:nowrap;fill:#000000;" text-anchor="middle" transform="translate(0,0)" y="208" opacity="1">2012</text><text x="163.975" style="color:#000000;cursor:default;font-size:10px;white-space:nowrap;fill:#000000;" text-anchor="middle" transform="translate(0,0)" y="208" opacity="1">2013</text><text x="192.175" style="color:#000000;cursor:default;font-size:10px;white-space:nowrap;fill:#000000;" text-anchor="middle" transform="translate(0,0)" y="208" opacity="1">2014</text><text x="220.375" style="color:#000000;cursor:default;font-size:10px;white-space:nowrap;fill:#000000;" text-anchor="middle" transform="translate(0,0)" y="208" opacity="1">2015</text><text x="248.575" style="color:#000000;cursor:default;font-size:10px;white-space:nowrap;fill:#000000;" text-anchor="middle" transform="translate(0,0)" y="208" opacity="1">2016</text><text x="276.775" style="color:#000000;cursor:default;font-size:10px;white-space:nowrap;fill:#000000;" text-anchor="middle" transform="translate(0,0)" y="208" opacity="1">2017</text><text x="304.975" style="color:#000000;cursor:default;font-size:10px;white-space:nowrap;fill:#000000;" text-anchor="middle" transform="translate(0,0)" y="208" opacity="1">2018</text></g><g class="highcharts-axis-labels highcharts-yaxis-labels" data-z-index="7"><text x="21" style="color:#000000;cursor:default;font-size:10;fill:#000000;" text-anchor="end" transform="translate(0,0)" y="193" opacity="1">0</text><text x="21" style="color:#000000;cursor:default;font-size:10;fill:#000000;" text-anchor="end" transform="translate(0,0)" y="179" opacity="1">100</text><text x="21" style="color:#000000;cursor:default;font-size:10;fill:#000000;" text-anchor="end" transform="translate(0,0)" y="166" opacity="1">200</text><text x="21" style="color:#000000;cursor:default;font-size:10;fill:#000000;" text-anchor="end" transform="translate(0,0)" y="152" opacity="1">300</text><text x="21" style="color:#000000;cursor:default;font-size:10;fill:#000000;" text-anchor="end" transform="translate(0,0)" y="138" opacity="1">400</text><text x="21" style="color:#000000;cursor:default;font-size:10;fill:#000000;" text-anchor="end" transform="translate(0,0)" y="124" opacity="1">500</text><text x="21" style="color:#000000;cursor:default;font-size:10;fill:#000000;" text-anchor="end" transform="translate(0,0)" y="111" opacity="1">600</text><text x="21" style="color:#000000;cursor:default;font-size:10;fill:#000000;" text-anchor="end" transform="translate(0,0)" y="97" opacity="1">700</text></g><text x="10" class="highcharts-credits" text-anchor="start" data-z-index="8" style="cursor:default;color:#000000;font-size:10px;fill:#000000;" y="196"><tspan>Quelle: Staatssekretariat für Wirtschaft SECO, Arbeitslosenstatistik.</tspan><tspan x="10" dy="13">Zuletzt geändert: 2020-1-3</tspan></text></svg>