<?xml version="1.0" standalone="no"?><!DOCTYPE svg PUBLIC "-//W3C//DTD SVG 1.1//EN" "http://www.w3.org/Graphics/SVG/1.1/DTD/svg11.dtd"><svg xmlns:xlink="http://www.w3.org/1999/xlink" version="1.1" class="highcharts-root" style="font-family:Arial;font-size:12px;" xmlns="http://www.w3.org/2000/svg" viewBox="0 0 485 415"><desc>Created with Highcharts 8.1.1</desc><defs><clipPath id="highcharts-5rfv7ez-43-"><rect x="0" y="0" width="270" height="96" fill="none"></rect></clipPath><clipPath id="highcharts-5rfv7ez-53-"><rect x="0" y="0" width="270" height="96" fill="none"></rect></clipPath><clipPath id="highcharts-5rfv7ez-81-"><rect x="48" y="94" width="270" height="96" fill="none"></rect></clipPath></defs><rect fill="#fbfbfb" class="highcharts-background" x="0" y="0" width="320" height="221" rx="0" ry="0"></rect><rect fill="none" class="highcharts-plot-background" x="48" y="94" width="270" height="96"></rect><g class="highcharts-pane-group" data-z-index="0"></g><g class="highcharts-grid highcharts-xaxis-grid" data-z-index="1"><path fill="none" data-z-index="1" class="highcharts-grid-line" d="M 77.5 94 L 77.5 190" opacity="1"></path><path fill="none" data-z-index="1" class="highcharts-grid-line" d="M 107.5 94 L 107.5 190" opacity="1"></path><path fill="none" data-z-index="1" class="highcharts-grid-line" d="M 137.5 94 L 137.5 190" opacity="1"></path><path fill="none" data-z-index="1" class="highcharts-grid-line" d="M 167.5 94 L 167.5 190" opacity="1"></path><path fill="none" data-z-index="1" class="highcharts-grid-line" d="M 197.5 94 L 197.5 190" opacity="1"></path><path fill="none" data-z-index="1" class="highcharts-grid-line" d="M 227.5 94 L 227.5 190" opacity="1"></path><path fill="none" data-z-index="1" class="highcharts-grid-line" d="M 257.5 94 L 257.5 190" opacity="1"></path><path fill="none" data-z-index="1" class="highcharts-grid-line" d="M 287.5 94 L 287.5 190" opacity="1"></path><path fill="none" data-z-index="1" class="highcharts-grid-line" d="M 317.5 94 L 317.5 190" opacity="1"></path><path fill="none" data-z-index="1" class="highcharts-grid-line" d="M 47.5 94 L 47.5 190" opacity="1"></path></g><g class="highcharts-grid highcharts-yaxis-grid" data-z-index="1"><path fill="none" stroke="#B9CFD7" stroke-width="0.5" data-z-index="1" class="highcharts-grid-line" d="M 48 190.25 L 318 190.25" opacity="1"></path><path fill="none" stroke="#B9CFD7" stroke-width="0.5" data-z-index="1" class="highcharts-grid-line" d="M 48 171.25 L 318 171.25" opacity="1"></path><path fill="none" stroke="#B9CFD7" stroke-width="0.5" data-z-index="1" class="highcharts-grid-line" d="M 48 152.25 L 318 152.25" opacity="1"></path><path fill="none" stroke="#B9CFD7" stroke-width="0.5" data-z-index="1" class="highcharts-grid-line" d="M 48 132.25 L 318 132.25" opacity="1"></path><path fill="none" stroke="#B9CFD7" stroke-width="0.5" data-z-index="1" class="highcharts-grid-line" d="M 48 113.25 L 318 113.25" opacity="1"></path><path fill="none" stroke="#B9CFD7" stroke-width="0.5" data-z-index="1" class="highcharts-grid-line" d="M 48 93.75 L 318 93.75" opacity="1"></path></g><rect fill="none" class="highcharts-plot-border" data-z-index="1" x="48" y="94" width="270" height="96"></rect><g class="highcharts-axis highcharts-xaxis" data-z-index="2"><path fill="none" class="highcharts-axis-line" stroke="#B9CFD7" stroke-width="0.5" data-z-index="7" d="M 48 190.25 L 318 190.25"></path></g><g class="highcharts-axis highcharts-yaxis" data-z-index="2"><path fill="none" class="highcharts-axis-line" data-z-index="7" d="M 48 94 L 48 190"></path></g><g class="highcharts-series-group" data-z-index="3"><g class="highcharts-series highcharts-series-0 highcharts-column-series" data-z-index="0.1" opacity="1" transform="translate(48,94) scale(1 1)" clip-path="url(#highcharts-5rfv7ez-53-)"><rect x="3" y="46" width="6" height="51" fill="#D7E8D2" opacity="1" class="highcharts-point"></rect><rect x="63" y="46" width="6" height="51" fill="#D7E8D2" opacity="1" class="highcharts-point"></rect><rect x="93" y="47" width="6" height="50" fill="#D7E8D2" opacity="1" class="highcharts-point"></rect><rect x="123" y="48" width="6" height="49" fill="#D7E8D2" opacity="1" class="highcharts-point"></rect><rect x="153" y="49" width="6" height="48" fill="#D7E8D2" opacity="1" class="highcharts-point"></rect><rect x="183" y="49" width="6" height="48" fill="#D7E8D2" opacity="1" class="highcharts-point"></rect><rect x="213" y="50" width="6" height="47" fill="#D7E8D2" opacity="1" class="highcharts-point"></rect><rect x="243" y="51" width="6" height="46" fill="#D7E8D2" opacity="1" class="highcharts-point"></rect></g><g class="highcharts-markers highcharts-series-0 highcharts-column-series" data-z-index="0.1" opacity="1" transform="translate(48,94) scale(1 1)" clip-path="none"></g><g class="highcharts-series highcharts-series-1 highcharts-column-series" data-z-index="0.1" opacity="1" transform="translate(48,94) scale(1 1)" clip-path="url(#highcharts-5rfv7ez-53-)"><rect x="9" y="51" width="6" height="46" fill="#8A8A8A" opacity="1" class="highcharts-point"></rect><rect x="69" y="54" width="6" height="43" fill="#8A8A8A" opacity="1" class="highcharts-point"></rect><rect x="99" y="54" width="6" height="43" fill="#8A8A8A" opacity="1" class="highcharts-point"></rect><rect x="129" y="55" width="6" height="42" fill="#8A8A8A" opacity="1" class="highcharts-point"></rect><rect x="159" y="56" width="6" height="41" fill="#8A8A8A" opacity="1" class="highcharts-point"></rect><rect x="189" y="59" width="6" height="38" fill="#8A8A8A" opacity="1" class="highcharts-point"></rect><rect x="219" y="61" width="6" height="36" fill="#8A8A8A" opacity="1" class="highcharts-point"></rect><rect x="249" y="62" width="6" height="35" fill="#8A8A8A" opacity="1" class="highcharts-point"></rect></g><g class="highcharts-markers highcharts-series-1 highcharts-column-series" data-z-index="0.1" opacity="1" transform="translate(48,94) scale(1 1)" clip-path="none"></g><g class="highcharts-series highcharts-series-2 highcharts-column-series" data-z-index="0.1" opacity="1" transform="translate(48,94) scale(1 1)" clip-path="url(#highcharts-5rfv7ez-53-)"><rect x="15" y="73" width="6" height="24" fill="#007A2F" opacity="1" class="highcharts-point"></rect><rect x="75" y="72" width="6" height="25" fill="#007A2F" opacity="1" class="highcharts-point"></rect><rect x="105" y="71" width="6" height="26" fill="#007A2F" opacity="1" class="highcharts-point"></rect><rect x="135" y="69" width="6" height="28" fill="#007A2F" opacity="1" class="highcharts-point"></rect><rect x="165" y="69" width="6" height="28" fill="#007A2F" opacity="1" class="highcharts-point"></rect><rect x="195" y="69" width="6" height="28" fill="#007A2F" opacity="1" class="highcharts-point"></rect><rect x="225" y="69" width="6" height="28" fill="#007A2F" opacity="1" class="highcharts-point"></rect><rect x="255" y="69" width="6" height="28" fill="#007A2F" opacity="1" class="highcharts-point"></rect></g><g class="highcharts-markers highcharts-series-2 highcharts-column-series" data-z-index="0.1" opacity="1" transform="translate(48,94) scale(1 1)" clip-path="none"></g><g class="highcharts-series highcharts-series-3 highcharts-column-series" data-z-index="0.1" opacity="1" transform="translate(48,94) scale(1 1)" clip-path="url(#highcharts-5rfv7ez-53-)"><rect x="21" y="81" width="6" height="16" fill="#0A3B19" opacity="1" class="highcharts-point"></rect><rect x="81" y="82" width="6" height="15" fill="#0A3B19" opacity="1" class="highcharts-point"></rect><rect x="111" y="80" width="6" height="17" fill="#0A3B19" opacity="1" class="highcharts-point"></rect><rect x="141" y="80" width="6" height="17" fill="#0A3B19" opacity="1" class="highcharts-point"></rect><rect x="171" y="81" width="6" height="16" fill="#0A3B19" opacity="1" class="highcharts-point"></rect><rect x="201" y="81" width="6" height="16" fill="#0A3B19" opacity="1" class="highcharts-point"></rect><rect x="231" y="82" width="6" height="15" fill="#0A3B19" opacity="1" class="highcharts-point"></rect><rect x="261" y="82" width="6" height="15" fill="#0A3B19" opacity="1" class="highcharts-point"></rect></g><g class="highcharts-markers highcharts-series-3 highcharts-column-series" data-z-index="0.1" opacity="1" transform="translate(48,94) scale(1 1)" clip-path="none"></g></g><text x="2" text-anchor="start" class="highcharts-title" data-z-index="4" style="color:#000000;font-size:10px;font-weight:bold;fill:#000000;" y="9"><tspan>Besch채ftigung im Dienstleistungssektor (I)</tspan></text><text x="2" text-anchor="start" class="highcharts-subtitle" data-z-index="4" style="color:#000000;font-size:10px;font-weight:normal;font-family:Arial;fill:#000000;" y="25"><tspan>in Vollzeit채quivalenten, Basel-Stadt</tspan></text><text x="2" text-anchor="start" class="highcharts-caption" data-z-index="4" style="color:#666666;fill:#666666;" y="221"></text><g class="highcharts-legend" data-z-index="7" transform="translate(45,39)"><rect fill="none" class="highcharts-legend-box" rx="0" ry="0" x="0" y="0" width="145" height="43" visibility="visible"></rect><g data-z-index="1"><g><g class="highcharts-legend-item highcharts-column-series highcharts-color-undefined highcharts-series-0" data-z-index="1" transform="translate(0,-5)"><text x="21" style="color:#333333;cursor:pointer;font-size:10px;font-weight:normal;fill:#333333;" text-anchor="start" data-z-index="2" y="13"><tspan>Handel, Reparatur</tspan></text><rect x="3" y="4" width="10" height="10" fill="#D7E8D2" class="highcharts-point" data-z-index="3"></rect></g><g class="highcharts-legend-item highcharts-column-series highcharts-color-undefined highcharts-series-1" data-z-index="1" transform="translate(0,7)"><text x="21" y="13" style="color:#333333;cursor:pointer;font-size:10px;font-weight:normal;fill:#333333;" text-anchor="start" data-z-index="2"><tspan>Verkehr, Lagerei</tspan></text><rect x="3" y="4" width="10" height="10" fill="#8A8A8A" class="highcharts-point" data-z-index="3"></rect></g><g class="highcharts-legend-item highcharts-column-series highcharts-color-undefined highcharts-series-2" data-z-index="1" transform="translate(0,19)"><text x="21" y="13" style="color:#333333;cursor:pointer;font-size:10px;font-weight:normal;fill:#333333;" text-anchor="start" data-z-index="2"><tspan>Gastgewerbe</tspan></text><rect x="3" y="4" width="10" height="10" fill="#007A2F" class="highcharts-point" data-z-index="3"></rect></g><g class="highcharts-legend-item highcharts-column-series highcharts-color-undefined highcharts-series-3" data-z-index="1" transform="translate(0,31)"><text x="21" y="13" style="color:#333333;cursor:pointer;font-size:10px;font-weight:normal;fill:#333333;" text-anchor="start" data-z-index="2"><tspan>Information, Kommunikation</tspan></text><rect x="3" y="4" width="10" height="10" fill="#0A3B19" class="highcharts-point" data-z-index="3"></rect></g></g></g></g><g class="highcharts-axis-labels highcharts-xaxis-labels" data-z-index="7"><text x="63" style="color:#000000;cursor:default;font-size:10px;white-space:nowrap;fill:#000000;" text-anchor="middle" transform="translate(0,0)" y="208" opacity="1">2008</text><text x="93" style="color:#000000;cursor:default;font-size:10px;white-space:nowrap;fill:#000000;" text-anchor="middle" transform="translate(0,0)" y="208" opacity="1"> </text><text x="123" style="color:#000000;cursor:default;font-size:10px;white-space:nowrap;fill:#000000;" text-anchor="middle" transform="translate(0,0)" y="208" opacity="1">2011</text><text x="153" style="color:#000000;cursor:default;font-size:10px;white-space:nowrap;fill:#000000;" text-anchor="middle" transform="translate(0,0)" y="208" opacity="1">2012</text><text x="183" style="color:#000000;cursor:default;font-size:10px;white-space:nowrap;fill:#000000;" text-anchor="middle" transform="translate(0,0)" y="208" opacity="1">2013</text><text x="213" style="color:#000000;cursor:default;font-size:10px;white-space:nowrap;fill:#000000;" text-anchor="middle" transform="translate(0,0)" y="208" opacity="1">2014</text><text x="243" style="color:#000000;cursor:default;font-size:10px;white-space:nowrap;fill:#000000;" text-anchor="middle" transform="translate(0,0)" y="208" opacity="1">2015</text><text x="273" style="color:#000000;cursor:default;font-size:10px;white-space:nowrap;fill:#000000;" text-anchor="middle" transform="translate(0,0)" y="208" opacity="1">2016</text><text x="303" style="color:#000000;cursor:default;font-size:10px;white-space:nowrap;fill:#000000;" text-anchor="middle" transform="translate(0,0)" y="208" opacity="1">2017</text></g><g class="highcharts-axis-labels highcharts-yaxis-labels" data-z-index="7"><text x="33" style="color:#000000;cursor:default;font-size:10;fill:#000000;" text-anchor="end" transform="translate(0,0)" y="193" opacity="1">0</text><text x="33" style="color:#000000;cursor:default;font-size:10;fill:#000000;" text-anchor="end" transform="translate(0,0)" y="174" opacity="1"><tspan>5 000</tspan></text><text x="33" style="color:#000000;cursor:default;font-size:10;fill:#000000;" text-anchor="end" transform="translate(0,0)" y="155" opacity="1"><tspan>10 000</tspan></text><text x="33" style="color:#000000;cursor:default;font-size:10;fill:#000000;" text-anchor="end" transform="translate(0,0)" y="135" opacity="1"><tspan>15 000</tspan></text><text x="33" style="color:#000000;cursor:default;font-size:10;fill:#000000;" text-anchor="end" transform="translate(0,0)" y="116" opacity="1"><tspan>20 000</tspan></text><text x="33" style="color:#000000;cursor:default;font-size:10;fill:#000000;" text-anchor="end" transform="translate(0,0)" y="97" opacity="1"><tspan>25 000</tspan></text></g><text x="10" class="highcharts-credits" text-anchor="start" data-z-index="8" style="cursor:default;color:#000000;font-size:10px;fill:#000000;" y="196"><tspan>Quelle: Bundesamt f체r Statistik (BFS), Statistik der Unternehmensstruktur (STATENT).</tspan><tspan x="10" dy="13">Zuletzt ge채ndert: 2020-3-25</tspan></text><g class="highcharts-control-points" data-z-index="99" clip-path="url(#highcharts-5rfv7ez-81-)"></g></svg>