<?xml version="1.0" standalone="no"?><!DOCTYPE svg PUBLIC "-//W3C//DTD SVG 1.1//EN" "http://www.w3.org/Graphics/SVG/1.1/DTD/svg11.dtd"><svg xmlns:xlink="http://www.w3.org/1999/xlink" version="1.1" class="highcharts-root" style="font-family:Arial;font-size:12px;" xmlns="http://www.w3.org/2000/svg" viewBox="0 0 485 415"><desc>Created with Highstock 6.1.1</desc><defs><clipPath id="highcharts-decubcf-8"><rect x="0" y="0" width="244" height="105" fill="none"></rect></clipPath><clipPath id="highcharts-decubcf-9"><rect x="0" y="0" width="244" height="105" fill="none"></rect></clipPath><clipPath id="highcharts-decubcf-10"><rect x="0" y="0" width="244" height="105" fill="none"></rect></clipPath></defs><rect fill="#fbfbfb" class="highcharts-background" x="0" y="0" width="320" height="208" rx="0" ry="0"></rect><rect fill="none" class="highcharts-plot-background" x="44" y="80" width="244" height="105"></rect><g class="highcharts-pane-group" data-z-index="0"></g><g class="highcharts-grid highcharts-xaxis-grid " data-z-index="1"><path fill="none" data-z-index="1" class="highcharts-grid-line" d="M 104.5 80 L 104.5 185" opacity="1"></path><path fill="none" data-z-index="1" class="highcharts-grid-line" d="M 165.5 80 L 165.5 185" opacity="1"></path><path fill="none" data-z-index="1" class="highcharts-grid-line" d="M 226.5 80 L 226.5 185" opacity="1"></path><path fill="none" data-z-index="1" class="highcharts-grid-line" d="M 287.5 80 L 287.5 185" opacity="1"></path><path fill="none" data-z-index="1" class="highcharts-grid-line" d="M 43.5 80 L 43.5 185" opacity="1"></path></g><g class="highcharts-grid highcharts-yaxis-grid " data-z-index="1"><path fill="none" stroke="#e6e6e6" stroke-width="1" data-z-index="1" class="highcharts-grid-line" d="M 44 185.5 L 288 185.5" opacity="1"></path><path fill="none" stroke="#e6e6e6" stroke-width="1" data-z-index="1" class="highcharts-grid-line" d="M 44 173.5 L 288 173.5" opacity="1"></path><path fill="none" stroke="#e6e6e6" stroke-width="1" data-z-index="1" class="highcharts-grid-line" d="M 44 162.5 L 288 162.5" opacity="1"></path><path fill="none" stroke="#e6e6e6" stroke-width="1" data-z-index="1" class="highcharts-grid-line" d="M 44 150.5 L 288 150.5" opacity="1"></path><path fill="none" stroke="#e6e6e6" stroke-width="1" data-z-index="1" class="highcharts-grid-line" d="M 44 138.5 L 288 138.5" opacity="1"></path><path fill="none" stroke="#e6e6e6" stroke-width="1" data-z-index="1" class="highcharts-grid-line" d="M 44 127.5 L 288 127.5" opacity="1"></path><path fill="none" stroke="#e6e6e6" stroke-width="1" data-z-index="1" class="highcharts-grid-line" d="M 44 115.5 L 288 115.5" opacity="1"></path><path fill="none" stroke="#e6e6e6" stroke-width="1" data-z-index="1" class="highcharts-grid-line" d="M 44 103.5 L 288 103.5" opacity="1"></path><path fill="none" stroke="#e6e6e6" stroke-width="1" data-z-index="1" class="highcharts-grid-line" d="M 44 92.5 L 288 92.5" opacity="1"></path><path fill="none" stroke="#e6e6e6" stroke-width="1" data-z-index="1" class="highcharts-grid-line" d="M 44 79.5 L 288 79.5" opacity="1"></path></g><g class="highcharts-grid highcharts-yaxis-grid " data-z-index="1"><path fill="none" data-z-index="1" class="highcharts-grid-line" d="M 44 185.5 L 288 185.5" opacity="1"></path><path fill="none" data-z-index="1" class="highcharts-grid-line" d="M 44 173.5 L 288 173.5" opacity="1"></path><path fill="none" data-z-index="1" class="highcharts-grid-line" d="M 44 162.5 L 288 162.5" opacity="1"></path><path fill="none" data-z-index="1" class="highcharts-grid-line" d="M 44 150.5 L 288 150.5" opacity="1"></path><path fill="none" data-z-index="1" class="highcharts-grid-line" d="M 44 138.5 L 288 138.5" opacity="1"></path><path fill="none" data-z-index="1" class="highcharts-grid-line" d="M 44 127.5 L 288 127.5" opacity="1"></path><path fill="none" data-z-index="1" class="highcharts-grid-line" d="M 44 115.5 L 288 115.5" opacity="1"></path><path fill="none" data-z-index="1" class="highcharts-grid-line" d="M 44 103.5 L 288 103.5" opacity="1"></path><path fill="none" data-z-index="1" class="highcharts-grid-line" d="M 44 92.5 L 288 92.5" opacity="1"></path><path fill="none" data-z-index="1" class="highcharts-grid-line" d="M 44 80.5 L 288 80.5" opacity="1"></path></g><rect fill="none" class="highcharts-plot-border" data-z-index="1" x="44" y="80" width="244" height="105"></rect><g class="highcharts-axis highcharts-xaxis " data-z-index="2"><path fill="none" class="highcharts-axis-line" stroke="#B9CFD7" stroke-width="0.5" data-z-index="7" d="M 44 185.25 L 288 185.25"></path></g><g class="highcharts-axis highcharts-yaxis " data-z-index="2"><path fill="none" class="highcharts-axis-line" data-z-index="7" d="M 44 80 L 44 185"></path></g><g class="highcharts-axis highcharts-yaxis " data-z-index="2"><path fill="none" class="highcharts-axis-line" data-z-index="7" d="M 288 80 L 288 185"></path></g><g class="highcharts-series-group" data-z-index="3"><g data-z-index="0.1" class="highcharts-series highcharts-series-0 highcharts-line-series " transform="translate(44,80) scale(1 1)" clip-path="url(#highcharts-decubcf-9)"><path fill="none" d="M 30.5 -100000 L 91.5 -100000 L 152.5 -100000 L 213.5 -100000" class="highcharts-graph" data-z-index="1" stroke="#6F6F6F" stroke-width="2" stroke-linejoin="round" stroke-linecap="round"></path></g><g data-z-index="0.1" class="highcharts-markers highcharts-series-0 highcharts-line-series " transform="translate(44,80) scale(1 1)" clip-path="none"></g><g data-z-index="0.1" class="highcharts-series highcharts-series-1 highcharts-column-series " transform="translate(44,80) scale(1 1)" clip-path="url(#highcharts-decubcf-10)"><rect x="12" y="29" width="12" height="77" fill="#DC440E" class="highcharts-point"></rect><rect x="73" y="23" width="12" height="83" fill="#DC440E" class="highcharts-point"></rect><rect x="134" y="25" width="12" height="81" fill="#DC440E" class="highcharts-point"></rect><rect x="195" y="24" width="12" height="82" fill="#DC440E" class="highcharts-point"></rect></g><g data-z-index="0.1" class="highcharts-markers highcharts-series-1 highcharts-column-series " transform="translate(44,80) scale(1 1)" clip-path="none"></g><g data-z-index="0.1" class="highcharts-series highcharts-series-2 highcharts-column-series " transform="translate(44,80) scale(1 1)" clip-path="url(#highcharts-decubcf-10)"><rect x="24" y="34" width="13" height="72" fill="#008AC3" class="highcharts-point"></rect><rect x="85" y="28" width="13" height="78" fill="#008AC3" class="highcharts-point"></rect><rect x="146" y="29" width="13" height="77" fill="#008AC3" class="highcharts-point"></rect><rect x="207" y="28" width="13" height="78" fill="#008AC3" class="highcharts-point"></rect></g><g data-z-index="0.1" class="highcharts-markers highcharts-series-2 highcharts-column-series " transform="translate(44,80) scale(1 1)" clip-path="none"></g><g data-z-index="0.1" class="highcharts-series highcharts-series-3 highcharts-column-series " transform="translate(44,80) scale(1 1)" clip-path="url(#highcharts-decubcf-10)"><rect x="37" y="106" width="12" height="0" fill="#3C3C3C" class="highcharts-point"></rect><rect x="98" y="106" width="12" height="0" fill="#3C3C3C" class="highcharts-point"></rect><rect x="159" y="106" width="12" height="0" fill="#3C3C3C" class="highcharts-point"></rect><rect x="220" y="106" width="12" height="0" fill="#3C3C3C" class="highcharts-point"></rect></g><g data-z-index="0.1" class="highcharts-markers highcharts-series-3 highcharts-column-series " transform="translate(44,80) scale(1 1)" clip-path="none"></g></g><text x="2" text-anchor="start" class="highcharts-title" data-z-index="4" style="color:#000000;font-size:10px;font-weight:bold;fill:#000000;" y="9"><tspan>Medianlohn nach Geschlecht</tspan></text><text x="2" text-anchor="start" class="highcharts-subtitle" data-z-index="4" style="color:#000000;font-size:10px;font-weight:normal;font-family:Arial;fill:#000000;" y="27"><tspan>Median in Franken, Nordwestschweiz</tspan></text><g class="highcharts-legend" data-z-index="7" transform="translate(41,43)"><rect fill="none" class="highcharts-legend-box" rx="0" ry="0" x="0" y="0" width="340" height="25" visibility="visible"></rect><g data-z-index="1"><g><g class="highcharts-legend-item highcharts-line-series highcharts-color-undefined highcharts-series-0" data-z-index="1" transform="translate(0,-5)"><path fill="none" d="M 0 10 L 16 10" class="highcharts-graph" stroke="#6F6F6F" stroke-width="2"></path><text x="21" style="color:#333333;font-size:10px;font-weight:normal;cursor:pointer;fill:#333333;" text-anchor="start" data-z-index="2" y="13"><tspan>Frauen</tspan></text></g><g class="highcharts-legend-item highcharts-column-series highcharts-color-undefined highcharts-series-1" data-z-index="1" transform="translate(170,-5)"><text x="21" y="13" style="color:#333333;font-size:10px;font-weight:normal;cursor:pointer;fill:#333333;" text-anchor="start" data-z-index="2"><tspan>M채nner</tspan></text><rect x="3" y="4" width="10" height="10" fill="#DC440E" class="highcharts-point" data-z-index="3"></rect></g><g class="highcharts-legend-item highcharts-column-series highcharts-color-undefined highcharts-series-2" data-z-index="1" transform="translate(0,10)"><text x="21" y="13" style="color:#333333;font-size:10px;font-weight:normal;cursor:pointer;fill:#333333;" text-anchor="start" data-z-index="2"><tspan>Total</tspan></text><rect x="3" y="4" width="10" height="10" fill="#008AC3" class="highcharts-point" data-z-index="3"></rect></g><g class="highcharts-legend-item highcharts-column-series highcharts-color-undefined highcharts-series-3" data-z-index="1" transform="translate(170,10)"><text x="21" y="13" style="color:#333333;font-size:10px;font-weight:normal;cursor:pointer;fill:#333333;" text-anchor="start" data-z-index="2"><tspan>Verh채ltnis Frauen/M채nner</tspan></text><rect x="3" y="4" width="10" height="10" fill="#3C3C3C" class="highcharts-point" data-z-index="3"></rect></g></g></g></g><g class="highcharts-axis-labels highcharts-xaxis-labels " data-z-index="7"><text x="74.5" style="color:#000000;cursor:default;font-size:10px;fill:#000000;" text-anchor="middle" transform="translate(0,0)" y="203" opacity="1">2010</text><text x="135.5" style="color:#000000;cursor:default;font-size:10px;fill:#000000;" text-anchor="middle" transform="translate(0,0)" y="203" opacity="1">2012</text><text x="196.5" style="color:#000000;cursor:default;font-size:10px;fill:#000000;" text-anchor="middle" transform="translate(0,0)" y="203" opacity="1">2014</text><text x="257.5" style="color:#000000;cursor:default;font-size:10px;fill:#000000;" text-anchor="middle" transform="translate(0,0)" y="203" opacity="1">2016</text></g><g class="highcharts-axis-labels highcharts-yaxis-labels " data-z-index="7"><text x="29" style="color:#000000;cursor:default;font-size:11px;fill:#000000;" text-anchor="end" transform="translate(0,0)" y="190" opacity="1">0</text><text x="29" style="color:#000000;cursor:default;font-size:11px;fill:#000000;" text-anchor="end" transform="translate(0,0)" y="178" opacity="1"><tspan>1 000</tspan></text><text x="29" style="color:#000000;cursor:default;font-size:11px;fill:#000000;" text-anchor="end" transform="translate(0,0)" y="166" opacity="1"><tspan>2 000</tspan></text><text x="29" style="color:#000000;cursor:default;font-size:11px;fill:#000000;" text-anchor="end" transform="translate(0,0)" y="155" opacity="1"><tspan>3 000</tspan></text><text x="29" style="color:#000000;cursor:default;font-size:11px;fill:#000000;" text-anchor="end" transform="translate(0,0)" y="143" opacity="1"><tspan>4 000</tspan></text><text x="29" style="color:#000000;cursor:default;font-size:11px;fill:#000000;" text-anchor="end" transform="translate(0,0)" y="131" opacity="1"><tspan>5 000</tspan></text><text x="29" style="color:#000000;cursor:default;font-size:11px;fill:#000000;" text-anchor="end" transform="translate(0,0)" y="120" opacity="1"><tspan>6 000</tspan></text><text x="29" style="color:#000000;cursor:default;font-size:11px;fill:#000000;" text-anchor="end" transform="translate(0,0)" y="108" opacity="1"><tspan>7 000</tspan></text><text x="29" style="color:#000000;cursor:default;font-size:11px;fill:#000000;" text-anchor="end" transform="translate(0,0)" y="96" opacity="1"><tspan>8 000</tspan></text><text x="29" style="color:#000000;cursor:default;font-size:11px;fill:#000000;" text-anchor="end" transform="translate(0,0)" y="85" opacity="1"><tspan>9 000</tspan></text></g><g class="highcharts-axis-labels highcharts-yaxis-labels " data-z-index="7"><text x="303" style="color:#000000;cursor:default;font-size:11px;fill:#000000;" text-anchor="start" transform="translate(0,0)" y="190" opacity="1">0.0</text><text x="303" style="color:#000000;cursor:default;font-size:11px;fill:#000000;" text-anchor="start" transform="translate(0,0)" y="178" opacity="1">0.1</text><text x="303" style="color:#000000;cursor:default;font-size:11px;fill:#000000;" text-anchor="start" transform="translate(0,0)" y="166" opacity="1">0.2</text><text x="303" style="color:#000000;cursor:default;font-size:11px;fill:#000000;" text-anchor="start" transform="translate(0,0)" y="155" opacity="1">0.3</text><text x="303" style="color:#000000;cursor:default;font-size:11px;fill:#000000;" text-anchor="start" transform="translate(0,0)" y="143" opacity="1">0.4</text><text x="303" style="color:#000000;cursor:default;font-size:11px;fill:#000000;" text-anchor="start" transform="translate(0,0)" y="131" opacity="1">0.5</text><text x="303" style="color:#000000;cursor:default;font-size:11px;fill:#000000;" text-anchor="start" transform="translate(0,0)" y="120" opacity="1">0.6</text><text x="303" style="color:#000000;cursor:default;font-size:11px;fill:#000000;" text-anchor="start" transform="translate(0,0)" y="108" opacity="1">0.7</text><text x="303" style="color:#000000;cursor:default;font-size:11px;fill:#000000;" text-anchor="start" transform="translate(0,0)" y="96" opacity="1">0.8</text><text x="303" style="color:#000000;cursor:default;font-size:11px;fill:#000000;" text-anchor="start" transform="translate(0,0)" y="85" opacity="1">0.9</text></g><text x="10" class="highcharts-credits" text-anchor="start" data-z-index="8" style="cursor:default;color:#000000;font-size:10;fill:#000000;" y="193"><tspan>Quelle: Bundesamt f체r Statistik (BFS), Lohnstrukturerhebung (LSE).</tspan></text></svg>