<?xml version="1.0" standalone="no"?><!DOCTYPE svg PUBLIC "-//W3C//DTD SVG 1.1//EN" "http://www.w3.org/Graphics/SVG/1.1/DTD/svg11.dtd"><svg xmlns:xlink="http://www.w3.org/1999/xlink" version="1.1" class="highcharts-root" style="font-family:Arial;font-size:12px;" xmlns="http://www.w3.org/2000/svg" viewBox="0 0 485 415"><desc>Created with Highcharts 8.1.2</desc><defs><clipPath id="highcharts-cnelsar-88-"><rect x="0" y="0" width="419" height="248" fill="none"></rect></clipPath><clipPath id="highcharts-cnelsar-129-"><rect x="0" y="0" width="419" height="248" fill="none"></rect></clipPath><clipPath id="highcharts-cnelsar-170-"><rect x="56" y="109" width="419" height="248" fill="none"></rect></clipPath></defs><rect fill="#fbfbfb" class="highcharts-background" x="0" y="0" width="485" height="428" rx="0" ry="0"></rect><rect fill="none" class="highcharts-plot-background" x="56" y="109" width="419" height="248"></rect><g class="highcharts-pane-group" data-z-index="0"></g><g class="highcharts-grid highcharts-xaxis-grid" data-z-index="1"><path fill="none" data-z-index="1" class="highcharts-grid-line" d="M 60.5 109 L 60.5 357" opacity="1"></path><path fill="none" data-z-index="1" class="highcharts-grid-line" d="M 102.5 109 L 102.5 357" opacity="1"></path><path fill="none" data-z-index="1" class="highcharts-grid-line" d="M 144.5 109 L 144.5 357" opacity="1"></path><path fill="none" data-z-index="1" class="highcharts-grid-line" d="M 186.5 109 L 186.5 357" opacity="1"></path><path fill="none" data-z-index="1" class="highcharts-grid-line" d="M 228.5 109 L 228.5 357" opacity="1"></path><path fill="none" data-z-index="1" class="highcharts-grid-line" d="M 270.5 109 L 270.5 357" opacity="1"></path><path fill="none" data-z-index="1" class="highcharts-grid-line" d="M 312.5 109 L 312.5 357" opacity="1"></path><path fill="none" data-z-index="1" class="highcharts-grid-line" d="M 354.5 109 L 354.5 357" opacity="1"></path><path fill="none" data-z-index="1" class="highcharts-grid-line" d="M 395.5 109 L 395.5 357" opacity="1"></path><path fill="none" data-z-index="1" class="highcharts-grid-line" d="M 437.5 109 L 437.5 357" opacity="1"></path></g><g class="highcharts-grid highcharts-yaxis-grid" data-z-index="1"><path fill="none" stroke="#B9CFD7" stroke-width="0.5" data-z-index="1" class="highcharts-grid-line" d="M 56 357.25 L 475 357.25" opacity="1"></path><path fill="none" stroke="#B9CFD7" stroke-width="0.5" data-z-index="1" class="highcharts-grid-line" d="M 56 322.25 L 475 322.25" opacity="1"></path><path fill="none" stroke="#B9CFD7" stroke-width="0.5" data-z-index="1" class="highcharts-grid-line" d="M 56 286.25 L 475 286.25" opacity="1"></path><path fill="none" stroke="#B9CFD7" stroke-width="0.5" data-z-index="1" class="highcharts-grid-line" d="M 56 251.25 L 475 251.25" opacity="1"></path><path fill="none" stroke="#B9CFD7" stroke-width="0.5" data-z-index="1" class="highcharts-grid-line" d="M 56 215.25 L 475 215.25" opacity="1"></path><path fill="none" stroke="#B9CFD7" stroke-width="0.5" data-z-index="1" class="highcharts-grid-line" d="M 56 180.25 L 475 180.25" opacity="1"></path><path fill="none" stroke="#B9CFD7" stroke-width="0.5" data-z-index="1" class="highcharts-grid-line" d="M 56 144.25 L 475 144.25" opacity="1"></path><path fill="none" stroke="#B9CFD7" stroke-width="0.5" data-z-index="1" class="highcharts-grid-line" d="M 56 108.75 L 475 108.75" opacity="1"></path></g><g class="highcharts-grid highcharts-yaxis-grid" data-z-index="1"></g><rect fill="none" class="highcharts-plot-border" data-z-index="1" x="56" y="109" width="419" height="248"></rect><g class="highcharts-axis highcharts-xaxis" data-z-index="2"><path fill="none" class="highcharts-axis-line" stroke="#B9CFD7" stroke-width="0.5" data-z-index="7" d="M 56 357.25 L 475 357.25"></path></g><g class="highcharts-axis highcharts-yaxis" data-z-index="2"><path fill="none" class="highcharts-axis-line" data-z-index="7" d="M 56 109 L 56 357"></path></g><g class="highcharts-axis highcharts-yaxis" data-z-index="2"><path fill="none" class="highcharts-axis-line" data-z-index="7" d="M 475 109 L 475 357"></path></g><g class="highcharts-series-group" data-z-index="3"><g class="highcharts-series highcharts-series-0 highcharts-line-series" data-z-index="0.1" opacity="1" transform="translate(56,109) scale(1 1)" clip-path="url(#highcharts-cnelsar-129-)"><path fill="none" d="M 5.2375 150.74857142857144 L 15.7125 153.40571428571428 L 26.1875 143.84 L 36.6625 159.07428571428574 L 47.1375 153.05142857142857 L 57.6125 147.73714285714289 L 68.0875 140.82857142857142 L 78.5625 141.0057142857143 L 89.0375 138.88 L 99.5125 129.66857142857145 L 109.9875 108.23428571428573 L 120.4625 110.71428571428572 L 130.9375 105.75428571428571 L 141.4125 99.55428571428573 L 151.8875 109.12 L 162.3625 93.17714285714288 L 172.8375 82.7257142857143 L 183.3125 94.24000000000001 L 193.7875 87.50857142857143 L 204.2625 85.02857142857144 L 214.7375 77.94285714285715 L 225.2125 73.86857142857144 L 235.6875 59.1657142857143 L 246.1625 58.457142857142884 L 256.6375 52.78857142857143 L 267.1125 56.50857142857143 L 277.5875 49.42285714285717 L 288.0625 50.485714285714295 L 298.5375 59.342857142857156 L 309.0125 43.400000000000006 L 319.4875 38.61714285714288 L 329.9625 39.148571428571444 L 340.4375 43.9314285714286 L 350.9125 28.697142857142865 L 361.3875 30.291428571428582 L 371.8625 30.64571428571429 L 382.3375 21.611428571428576 L 392.8125 29.76000000000002 L 403.2875 20.902857142857158 L 413.7625 14.348571428571432" class="highcharts-graph" data-z-index="1" stroke="#0A3B19" stroke-width="2" stroke-linejoin="round" stroke-linecap="round"></path></g><g class="highcharts-markers highcharts-series-0 highcharts-line-series" data-z-index="0.1" opacity="1" transform="translate(56,109) scale(1 1)" clip-path="none"></g><g class="highcharts-series highcharts-series-1 highcharts-line-series" data-z-index="0.1" opacity="1" transform="translate(56,109) scale(1 1)" clip-path="url(#highcharts-cnelsar-129-)"><path fill="none" d="M 5.2375 241.62285714285716 L 15.7125 242.33142857142857 L 26.1875 242.33142857142857 L 36.6625 236.84 L 47.1375 234.71428571428572 L 57.6125 241.44571428571427 L 68.0875 240.73714285714286 L 78.5625 241.62285714285716 L 89.0375 240.73714285714286 L 99.5125 241.62285714285716 L 109.9875 243.21714285714285 L 120.4625 241.44571428571427 L 130.9375 238.43428571428572 L 141.4125 238.25714285714287 L 151.8875 239.85142857142858 L 162.3625 239.14285714285714 L 172.8375 237.54857142857142 L 183.3125 240.9142857142857 L 193.7875 240.38285714285715 L 204.2625 235.77714285714285 L 214.7375 235.6 L 225.2125 238.08 L 235.6875 236.84 L 246.1625 235.24571428571429 L 256.6375 234.36 L 267.1125 238.61142857142858 L 277.5875 239.14285714285714 L 288.0625 239.14285714285714 L 298.5375 234.89142857142858 L 309.0125 237.90285714285716 L 319.4875 240.2057142857143 L 329.9625 240.38285714285715 L 340.4375 237.54857142857142 L 350.9125 241.09142857142857 L 361.3875 241.97714285714287 L 371.8625 241.62285714285716 L 382.3375 238.78857142857143 L 392.8125 239.6742857142857 L 403.2875 239.32 L 413.7625 238.08" class="highcharts-graph" data-z-index="1" stroke="#008AC3" stroke-width="2" stroke-linejoin="round" stroke-linecap="round"></path></g><g class="highcharts-markers highcharts-series-1 highcharts-line-series" data-z-index="0.1" opacity="1" transform="translate(56,109) scale(1 1)" clip-path="none"></g></g><text x="10" text-anchor="start" class="highcharts-title" data-z-index="4" style="color:#000000;font-size:14px;font-weight:bold;fill:#000000;" y="21"><tspan>Ausländische Erwerbstätige in der Branche IT-</tspan><tspan dy="17" x="10">Dienstleistungen</tspan></text><text x="10" text-anchor="start" class="highcharts-subtitle" data-z-index="4" style="color:#000000;font-size:12px;font-weight:normal;font-family:Arial;fill:#000000;" y="57"><tspan>Basel-Stadt</tspan></text><text x="10" text-anchor="start" class="highcharts-caption" data-z-index="4" style="color:#666666;fill:#666666;" y="390"></text><g class="highcharts-legend" data-z-index="7" transform="translate(48,72)"><rect fill="none" class="highcharts-legend-box" rx="0" ry="0" x="0" y="0" width="404" height="25" visibility="visible"></rect><g data-z-index="1"><g><g class="highcharts-legend-item highcharts-line-series highcharts-color-undefined highcharts-series-0" data-z-index="1" transform="translate(8,3)"><path fill="none" d="M 0 11 L 16 11" class="highcharts-graph" stroke="#0A3B19" stroke-width="2"></path><text x="21" style="color:#333333;cursor:pointer;font-size:12px;font-weight:normal;fill:#333333;" text-anchor="start" data-z-index="2" y="15"><tspan>Bestand Grenzgänger</tspan></text></g><g class="highcharts-legend-item highcharts-line-series highcharts-color-undefined highcharts-series-1" data-z-index="1" transform="translate(181.6875,3)"><path fill="none" d="M 0 11 L 16 11" class="highcharts-graph" stroke="#008AC3" stroke-width="2"></path><text x="21" y="15" style="color:#333333;cursor:pointer;font-size:12px;font-weight:normal;fill:#333333;" text-anchor="start" data-z-index="2"><tspan>Bestand Meldepflichtige in VZÄ</tspan></text></g></g></g></g><g class="highcharts-axis-labels highcharts-xaxis-labels" data-z-index="7"><text x="78.2375" style="color:#000000;cursor:default;font-size:11px;fill:#000000;" text-anchor="middle" transform="translate(0,0)" y="376" opacity="1">2010</text><text x="120.1375" style="color:#000000;cursor:default;font-size:11px;fill:#000000;" text-anchor="middle" transform="translate(0,0)" y="376" opacity="1">2011</text><text x="162.0375" style="color:#000000;cursor:default;font-size:11px;fill:#000000;" text-anchor="middle" transform="translate(0,0)" y="376" opacity="1">2012</text><text x="203.9375" style="color:#000000;cursor:default;font-size:11px;fill:#000000;" text-anchor="middle" transform="translate(0,0)" y="376" opacity="1">2013</text><text x="245.8375" style="color:#000000;cursor:default;font-size:11px;fill:#000000;" text-anchor="middle" transform="translate(0,0)" y="376" opacity="1">2014</text><text x="287.7375" style="color:#000000;cursor:default;font-size:11px;fill:#000000;" text-anchor="middle" transform="translate(0,0)" y="376" opacity="1">2015</text><text x="329.6375" style="color:#000000;cursor:default;font-size:11px;fill:#000000;" text-anchor="middle" transform="translate(0,0)" y="376" opacity="1">2016</text><text x="371.5375" style="color:#000000;cursor:default;font-size:11px;fill:#000000;" text-anchor="middle" transform="translate(0,0)" y="376" opacity="1">2017</text><text x="413.4375" style="color:#000000;cursor:default;font-size:11px;fill:#000000;" text-anchor="middle" transform="translate(0,0)" y="376" opacity="1">2018</text><text x="455.3375" style="color:#000000;cursor:default;font-size:11px;fill:#000000;" text-anchor="middle" transform="translate(0,0)" y="376" opacity="1">2019</text></g><g class="highcharts-axis-labels highcharts-yaxis-labels" data-z-index="7"><text x="41" style="color:#000000;cursor:default;font-size:11px;fill:#000000;" text-anchor="end" transform="translate(0,0)" y="362" opacity="1">0</text><text x="41" style="color:#000000;cursor:default;font-size:11px;fill:#000000;" text-anchor="end" transform="translate(0,0)" y="326" opacity="1">200</text><text x="41" style="color:#000000;cursor:default;font-size:11px;fill:#000000;" text-anchor="end" transform="translate(0,0)" y="291" opacity="1">400</text><text x="41" style="color:#000000;cursor:default;font-size:11px;fill:#000000;" text-anchor="end" transform="translate(0,0)" y="255" opacity="1">600</text><text x="41" style="color:#000000;cursor:default;font-size:11px;fill:#000000;" text-anchor="end" transform="translate(0,0)" y="220" opacity="1">800</text><text x="41" style="color:#000000;cursor:default;font-size:11px;fill:#000000;" text-anchor="end" transform="translate(0,0)" y="184" opacity="1"><tspan>1 000</tspan></text><text x="41" style="color:#000000;cursor:default;font-size:11px;fill:#000000;" text-anchor="end" transform="translate(0,0)" y="149" opacity="1"><tspan>1 200</tspan></text><text x="41" style="color:#000000;cursor:default;font-size:11px;fill:#000000;" text-anchor="end" transform="translate(0,0)" y="114" opacity="1"><tspan>1 400</tspan></text></g><g class="highcharts-axis-labels highcharts-yaxis-labels" data-z-index="7"></g><text x="10" class="highcharts-credits" text-anchor="start" data-z-index="8" style="cursor:default;color:#000000;font-size:10px;fill:#000000;" y="393"><tspan>Quelle: Staatssekretariat für Migration (SEM), Zentrales Migrationssystem (ZEMIS);</tspan><tspan x="10" dy="13">Bundesamt für Statistik (BFS), Grenzgängerstatistik (GGS).</tspan><tspan x="10" dy="13">Zuletzt geändert: 2020-3-17</tspan></text><g class="highcharts-control-points" data-z-index="99" clip-path="url(#highcharts-cnelsar-170-)"></g></svg>