<?xml version="1.0" standalone="no"?><!DOCTYPE svg PUBLIC "-//W3C//DTD SVG 1.1//EN" "http://www.w3.org/Graphics/SVG/1.1/DTD/svg11.dtd"><svg xmlns:xlink="http://www.w3.org/1999/xlink" version="1.1" class="highcharts-root" style="font-family:Arial;font-size:12px;" xmlns="http://www.w3.org/2000/svg" viewBox="0 0 485 415"><desc>Created with Highcharts 8.0.0</desc><defs><clipPath id="highcharts-rrgdb83-24-"><rect x="0" y="0" width="216" height="295" fill="none"></rect></clipPath><clipPath id="highcharts-rrgdb83-31-"><rect x="0" y="0" width="216" height="295" fill="none"></rect></clipPath></defs><rect fill="#fbfbfb" class="highcharts-background" x="0" y="0" width="485" height="428" rx="0" ry="0"></rect><rect fill="none" class="highcharts-plot-background" x="46" y="72" width="216" height="295"></rect><g class="highcharts-pane-group" data-z-index="0"></g><g class="highcharts-grid highcharts-xaxis-grid" data-z-index="1"><path fill="none" data-z-index="1" class="highcharts-grid-line" d="M 81.5 72 L 81.5 367" opacity="1"></path><path fill="none" data-z-index="1" class="highcharts-grid-line" d="M 117.5 72 L 117.5 367" opacity="1"></path><path fill="none" data-z-index="1" class="highcharts-grid-line" d="M 153.5 72 L 153.5 367" opacity="1"></path><path fill="none" data-z-index="1" class="highcharts-grid-line" d="M 189.5 72 L 189.5 367" opacity="1"></path><path fill="none" data-z-index="1" class="highcharts-grid-line" d="M 225.5 72 L 225.5 367" opacity="1"></path><path fill="none" data-z-index="1" class="highcharts-grid-line" d="M 261.5 72 L 261.5 367" opacity="1"></path><path fill="none" data-z-index="1" class="highcharts-grid-line" d="M 45.5 72 L 45.5 367" opacity="1"></path></g><g class="highcharts-grid highcharts-yaxis-grid" data-z-index="1"><path fill="none" stroke="#B9CFD7" stroke-width="0.5" data-z-index="1" class="highcharts-grid-line" d="M 46 367.25 L 262 367.25" opacity="1"></path><path fill="none" stroke="#B9CFD7" stroke-width="0.5" data-z-index="1" class="highcharts-grid-line" d="M 46 334.25 L 262 334.25" opacity="1"></path><path fill="none" stroke="#B9CFD7" stroke-width="0.5" data-z-index="1" class="highcharts-grid-line" d="M 46 301.25 L 262 301.25" opacity="1"></path><path fill="none" stroke="#B9CFD7" stroke-width="0.5" data-z-index="1" class="highcharts-grid-line" d="M 46 269.25 L 262 269.25" opacity="1"></path><path fill="none" stroke="#B9CFD7" stroke-width="0.5" data-z-index="1" class="highcharts-grid-line" d="M 46 236.25 L 262 236.25" opacity="1"></path><path fill="none" stroke="#B9CFD7" stroke-width="0.5" data-z-index="1" class="highcharts-grid-line" d="M 46 203.25 L 262 203.25" opacity="1"></path><path fill="none" stroke="#B9CFD7" stroke-width="0.5" data-z-index="1" class="highcharts-grid-line" d="M 46 170.25 L 262 170.25" opacity="1"></path><path fill="none" stroke="#B9CFD7" stroke-width="0.5" data-z-index="1" class="highcharts-grid-line" d="M 46 138.25 L 262 138.25" opacity="1"></path><path fill="none" stroke="#B9CFD7" stroke-width="0.5" data-z-index="1" class="highcharts-grid-line" d="M 46 105.25 L 262 105.25" opacity="1"></path><path fill="none" stroke="#B9CFD7" stroke-width="0.5" data-z-index="1" class="highcharts-grid-line" d="M 46 71.75 L 262 71.75" opacity="1"></path></g><rect fill="none" class="highcharts-plot-border" data-z-index="1" x="46" y="72" width="216" height="295"></rect><g class="highcharts-axis highcharts-xaxis" data-z-index="2"><path fill="none" class="highcharts-axis-line" stroke="#B9CFD7" stroke-width="0.5" data-z-index="7" d="M 46 367.25 L 262 367.25"></path></g><g class="highcharts-axis highcharts-yaxis" data-z-index="2"><path fill="none" class="highcharts-axis-line" data-z-index="7" d="M 46 72 L 46 367"></path></g><g class="highcharts-series-group" data-z-index="3"><g data-z-index="0.1" class="highcharts-series highcharts-series-0 highcharts-column-series" transform="translate(46,72) scale(1 1)" clip-path="url(#highcharts-rrgdb83-31-)"><rect x="6" y="103" width="25" height="193" fill="#246370" opacity="1" class="highcharts-point"></rect><rect x="42" y="89" width="25" height="207" fill="#246370" opacity="1" class="highcharts-point"></rect><rect x="78" y="61" width="25" height="235" fill="#246370" opacity="1" class="highcharts-point"></rect><rect x="114" y="64" width="25" height="232" fill="#246370" opacity="1" class="highcharts-point"></rect><rect x="150" y="38" width="25" height="258" fill="#246370" opacity="1" class="highcharts-point"></rect><rect x="186" y="23" width="25" height="273" fill="#246370" opacity="1" class="highcharts-point"></rect></g><g data-z-index="0.1" class="highcharts-markers highcharts-series-0 highcharts-column-series" transform="translate(46,72) scale(1 1)" clip-path="none"></g><g data-z-index="0.1" class="highcharts-series highcharts-series-1 highcharts-column-series" transform="translate(46,72) scale(1 1)" clip-path="url(#highcharts-rrgdb83-31-)"><rect x="6" y="103" width="25" height="0" fill="#689199" opacity="1" class="highcharts-point"></rect><rect x="42" y="88" width="25" height="1" fill="#689199" opacity="1" class="highcharts-point"></rect><rect x="78" y="61" width="25" height="0" fill="#689199" opacity="1" class="highcharts-point"></rect><rect x="114" y="50" width="25" height="14" fill="#689199" opacity="1" class="highcharts-point"></rect><rect x="150" y="37" width="25" height="1" fill="#689199" opacity="1" class="highcharts-point"></rect><rect x="186" y="20" width="25" height="3" fill="#689199" opacity="1" class="highcharts-point"></rect></g><g data-z-index="0.1" class="highcharts-markers highcharts-series-1 highcharts-column-series" transform="translate(46,72) scale(1 1)" clip-path="none"></g><g data-z-index="0.1" class="highcharts-series highcharts-series-2 highcharts-column-series" transform="translate(46,72) scale(1 1)" clip-path="url(#highcharts-rrgdb83-31-)"><rect x="6" y="102" width="25" height="1" fill="#D3E2E4" opacity="1" class="highcharts-point"></rect><rect x="42" y="88" width="25" height="0" fill="#D3E2E4" opacity="1" class="highcharts-point"></rect><rect x="78" y="61" width="25" height="0" fill="#D3E2E4" opacity="1" class="highcharts-point"></rect><rect x="114" y="50" width="25" height="0" fill="#D3E2E4" opacity="1" class="highcharts-point"></rect><rect x="150" y="37" width="25" height="0" fill="#D3E2E4" opacity="1" class="highcharts-point"></rect><rect x="186" y="20" width="25" height="0" fill="#D3E2E4" opacity="1" class="highcharts-point"></rect></g><g data-z-index="0.1" class="highcharts-markers highcharts-series-2 highcharts-column-series" transform="translate(46,72) scale(1 1)" clip-path="none"></g></g><text x="10" text-anchor="start" class="highcharts-title" data-z-index="4" style="color:#000000;font-size:14px;font-weight:bold;fill:#000000;" y="21"><tspan>Beschäftigung in der Branche Wach- und</tspan><tspan dy="17" x="10">Sicherheitsdienste</tspan></text><text x="10" text-anchor="start" class="highcharts-subtitle" data-z-index="4" style="color:#000000;font-size:12px;font-weight:normal;font-family:Arial;fill:#000000;" y="57"><tspan>in Vollzeitäquivalenten, Basel-Stadt</tspan></text><text x="10" text-anchor="start" class="highcharts-caption" data-z-index="4" style="color:#666666;fill:#666666;" y="400"></text><g class="highcharts-legend" data-z-index="7" transform="translate(274,143)"><rect fill="none" class="highcharts-legend-box" rx="0" ry="0" x="0" y="0" width="201" height="113" visibility="visible"></rect><g data-z-index="1"><g><g class="highcharts-legend-item highcharts-column-series highcharts-color-undefined highcharts-series-2" data-z-index="1" transform="translate(8,3)"><text x="21" style="color:#333333;cursor:pointer;font-size:12px;font-weight:normal;fill:#333333;" text-anchor="start" data-z-index="2" y="15"><tspan>Detekteien</tspan></text><rect x="2" y="4" width="12" height="12" fill="#D3E2E4" class="highcharts-point" data-z-index="3"></rect></g><g class="highcharts-legend-item highcharts-column-series highcharts-color-undefined highcharts-series-1" data-z-index="1" transform="translate(8,22)"><text x="21" y="15" style="color:#333333;cursor:pointer;font-size:12px;font-weight:normal;fill:#333333;" text-anchor="start" data-z-index="2"><tspan>Sicherheitsdienste mithilfe</tspan><tspan dy="15" x="21">von Überwachungs-</tspan><tspan x="21" dy="15">Alarmsystemen</tspan></text><rect x="2" y="4" width="12" height="12" fill="#689199" class="highcharts-point" data-z-index="3"></rect></g><g class="highcharts-legend-item highcharts-column-series highcharts-color-undefined highcharts-series-0" data-z-index="1" transform="translate(8,71)"><text x="21" y="15" style="color:#333333;cursor:pointer;font-size:12px;font-weight:normal;fill:#333333;" text-anchor="start" data-z-index="2"><tspan>Private Wach- und</tspan><tspan dy="15" x="21">Sicherheitsdienste</tspan></text><rect x="2" y="4" width="12" height="12" fill="#246370" class="highcharts-point" data-z-index="3"></rect></g></g></g></g><g class="highcharts-axis-labels highcharts-xaxis-labels" data-z-index="7"><text x="64" style="color:#000000;cursor:default;font-size:11px;fill:#000000;" text-anchor="middle" transform="translate(0,0)" y="386" opacity="1">2011</text><text x="100" style="color:#000000;cursor:default;font-size:11px;fill:#000000;" text-anchor="middle" transform="translate(0,0)" y="386" opacity="1">2012</text><text x="136" style="color:#000000;cursor:default;font-size:11px;fill:#000000;" text-anchor="middle" transform="translate(0,0)" y="386" opacity="1">2013</text><text x="172" style="color:#000000;cursor:default;font-size:11px;fill:#000000;" text-anchor="middle" transform="translate(0,0)" y="386" opacity="1">2014</text><text x="208" style="color:#000000;cursor:default;font-size:11px;fill:#000000;" text-anchor="middle" transform="translate(0,0)" y="386" opacity="1">2015</text><text x="244" style="color:#000000;cursor:default;font-size:11px;fill:#000000;" text-anchor="middle" transform="translate(0,0)" y="386" opacity="1">2016</text></g><g class="highcharts-axis-labels highcharts-yaxis-labels" data-z-index="7"><text x="31" style="color:#000000;cursor:default;font-size:11px;fill:#000000;" text-anchor="end" transform="translate(0,0)" y="372" opacity="1">0</text><text x="31" style="color:#000000;cursor:default;font-size:11px;fill:#000000;" text-anchor="end" transform="translate(0,0)" y="339" opacity="1">100</text><text x="31" style="color:#000000;cursor:default;font-size:11px;fill:#000000;" text-anchor="end" transform="translate(0,0)" y="306" opacity="1">200</text><text x="31" style="color:#000000;cursor:default;font-size:11px;fill:#000000;" text-anchor="end" transform="translate(0,0)" y="273" opacity="1">300</text><text x="31" style="color:#000000;cursor:default;font-size:11px;fill:#000000;" text-anchor="end" transform="translate(0,0)" y="240" opacity="1">400</text><text x="31" style="color:#000000;cursor:default;font-size:11px;fill:#000000;" text-anchor="end" transform="translate(0,0)" y="208" opacity="1">500</text><text x="31" style="color:#000000;cursor:default;font-size:11px;fill:#000000;" text-anchor="end" transform="translate(0,0)" y="175" opacity="1">600</text><text x="31" style="color:#000000;cursor:default;font-size:11px;fill:#000000;" text-anchor="end" transform="translate(0,0)" y="142" opacity="1">700</text><text x="31" style="color:#000000;cursor:default;font-size:11px;fill:#000000;" text-anchor="end" transform="translate(0,0)" y="109" opacity="1">800</text><text x="31" style="color:#000000;cursor:default;font-size:11px;fill:#000000;" text-anchor="end" transform="translate(0,0)" y="77" opacity="1">900</text></g><text x="10" class="highcharts-credits" text-anchor="start" data-z-index="8" style="cursor:default;color:#000000;font-size:10px;fill:#000000;" y="403"><tspan>Quelle: Bundesamt für Statistik (BFS), Statistik der Unternehmensstruktur (STATENT).</tspan><tspan x="10" dy="13">Zuletzt geändert: 2019-3-25</tspan></text></svg>