<?xml version="1.0" standalone="no"?><!DOCTYPE svg PUBLIC "-//W3C//DTD SVG 1.1//EN" "http://www.w3.org/Graphics/SVG/1.1/DTD/svg11.dtd"><svg xmlns:xlink="http://www.w3.org/1999/xlink" version="1.1" class="highcharts-root" style="font-family:Arial;font-size:12px;" xmlns="http://www.w3.org/2000/svg" viewBox="0 0 485 415"><desc>Created with Highstock 6.1.1</desc><defs><clipPath id="highcharts-5r4b5o2-7"><rect x="0" y="0" width="209" height="293" fill="none"></rect></clipPath><clipPath id="highcharts-5r4b5o2-8"><rect x="0" y="0" width="209" height="293" fill="none"></rect></clipPath></defs><rect fill="#fbfbfb" class="highcharts-background" x="0" y="0" width="485" height="428" rx="0" ry="0"></rect><rect fill="none" class="highcharts-plot-background" x="49" y="73" width="209" height="293"></rect><g class="highcharts-pane-group" data-z-index="0"></g><g class="highcharts-grid highcharts-xaxis-grid " data-z-index="1"><path fill="none" data-z-index="1" class="highcharts-grid-line" d="M 83.5 73 L 83.5 366" opacity="1"></path><path fill="none" data-z-index="1" class="highcharts-grid-line" d="M 118.5 73 L 118.5 366" opacity="1"></path><path fill="none" data-z-index="1" class="highcharts-grid-line" d="M 153.5 73 L 153.5 366" opacity="1"></path><path fill="none" data-z-index="1" class="highcharts-grid-line" d="M 187.5 73 L 187.5 366" opacity="1"></path><path fill="none" data-z-index="1" class="highcharts-grid-line" d="M 222.5 73 L 222.5 366" opacity="1"></path><path fill="none" data-z-index="1" class="highcharts-grid-line" d="M 257.5 73 L 257.5 366" opacity="1"></path><path fill="none" data-z-index="1" class="highcharts-grid-line" d="M 48.5 73 L 48.5 366" opacity="1"></path></g><g class="highcharts-grid highcharts-yaxis-grid " data-z-index="1"><path fill="none" stroke="#B9CFD7" stroke-width="0.5" data-z-index="1" class="highcharts-grid-line" d="M 49 366.25 L 258 366.25" opacity="1"></path><path fill="none" stroke="#B9CFD7" stroke-width="0.5" data-z-index="1" class="highcharts-grid-line" d="M 49 307.25 L 258 307.25" opacity="1"></path><path fill="none" stroke="#B9CFD7" stroke-width="0.5" data-z-index="1" class="highcharts-grid-line" d="M 49 249.25 L 258 249.25" opacity="1"></path><path fill="none" stroke="#B9CFD7" stroke-width="0.5" data-z-index="1" class="highcharts-grid-line" d="M 49 190.25 L 258 190.25" opacity="1"></path><path fill="none" stroke="#B9CFD7" stroke-width="0.5" data-z-index="1" class="highcharts-grid-line" d="M 49 132.25 L 258 132.25" opacity="1"></path><path fill="none" stroke="#B9CFD7" stroke-width="0.5" data-z-index="1" class="highcharts-grid-line" d="M 49 72.75 L 258 72.75" opacity="1"></path></g><g class="highcharts-grid highcharts-yaxis-grid " data-z-index="1"></g><rect fill="none" class="highcharts-plot-border" data-z-index="1" x="49" y="73" width="209" height="293"></rect><g class="highcharts-axis highcharts-xaxis " data-z-index="2"><path fill="none" class="highcharts-axis-line" stroke="#B9CFD7" stroke-width="0.5" data-z-index="7" d="M 49 366.25 L 258 366.25"></path></g><g class="highcharts-axis highcharts-yaxis " data-z-index="2"><path fill="none" class="highcharts-axis-line" data-z-index="7" d="M 49 73 L 49 366"></path></g><g class="highcharts-axis highcharts-yaxis " data-z-index="2"><path fill="none" class="highcharts-axis-line" data-z-index="7" d="M 10 73 L 10 366"></path></g><g class="highcharts-series-group" data-z-index="3"><g data-z-index="0.1" class="highcharts-series highcharts-series-0 highcharts-column-series " transform="translate(49,73) scale(1 1)" clip-path="url(#highcharts-5r4b5o2-8)"><rect x="5" y="121" width="25" height="172" fill="#246370" class="highcharts-point"></rect><rect x="40" y="108" width="25" height="185" fill="#246370" class="highcharts-point"></rect><rect x="75" y="84" width="25" height="210" fill="#246370" class="highcharts-point"></rect><rect x="109" y="74" width="25" height="208" fill="#246370" class="highcharts-point"></rect><rect x="144" y="62" width="25" height="231" fill="#246370" class="highcharts-point"></rect><rect x="179" y="47" width="25" height="244" fill="#246370" class="highcharts-point"></rect></g><g data-z-index="0.1" class="highcharts-markers highcharts-series-0 highcharts-column-series " transform="translate(49,73) scale(1 1)" clip-path="none"></g><g data-z-index="0.1" class="highcharts-series highcharts-series-1 highcharts-column-series " transform="translate(49,73) scale(1 1)" clip-path="url(#highcharts-5r4b5o2-8)"><rect x="5" y="293" width="25" height="1" fill="#689199" class="highcharts-point"></rect><rect x="40" y="293" width="25" height="1" fill="#689199" class="highcharts-point"></rect><rect x="75" y="294" width="25" height="0" fill="#689199" class="highcharts-point"></rect><rect x="109" y="282" width="25" height="12" fill="#689199" class="highcharts-point"></rect><rect x="144" y="293" width="25" height="1" fill="#689199" class="highcharts-point"></rect><rect x="179" y="291" width="25" height="3" fill="#689199" class="highcharts-point"></rect></g><g data-z-index="0.1" class="highcharts-markers highcharts-series-1 highcharts-column-series " transform="translate(49,73) scale(1 1)" clip-path="none"></g><g data-z-index="0.1" class="highcharts-series highcharts-series-2 highcharts-column-series " transform="translate(49,73) scale(1 1)" clip-path="url(#highcharts-5r4b5o2-8)"><rect x="5" y="294" width="25" height="0" fill="#D3E2E4" class="highcharts-point"></rect><rect x="40" y="294" width="25" height="0" fill="#D3E2E4" class="highcharts-point"></rect><rect x="75" y="294" width="25" height="0" fill="#D3E2E4" class="highcharts-point"></rect><rect x="109" y="294" width="25" height="0" fill="#D3E2E4" class="highcharts-point"></rect><rect x="144" y="294" width="25" height="0" fill="#D3E2E4" class="highcharts-point"></rect><rect x="179" y="294" width="25" height="0" fill="#D3E2E4" class="highcharts-point"></rect></g><g data-z-index="0.1" class="highcharts-markers highcharts-series-2 highcharts-column-series " transform="translate(49,73) scale(1 1)" clip-path="none"></g></g><text x="10" text-anchor="start" class="highcharts-title" data-z-index="4" style="color:#000000;font-size:14px;font-weight:bold;fill:#000000;" y="21"><tspan>Beschäftigung in der Branche Wach- und</tspan><tspan dy="17" x="10">Sicherheitsdienste</tspan></text><text x="10" text-anchor="start" class="highcharts-subtitle" data-z-index="4" style="color:#000000;font-size:12px;font-weight:normal;font-family:Arial;fill:#000000;" y="57"><tspan>in Vollzeitäquivalenten, Basel-Stadt</tspan></text><g class="highcharts-legend" data-z-index="7" transform="translate(270,141)"><rect fill="none" class="highcharts-legend-box" rx="0" ry="0" x="0" y="0" width="205" height="116" visibility="visible"></rect><g data-z-index="1"><g><g class="highcharts-legend-item highcharts-column-series highcharts-color-undefined highcharts-series-2" data-z-index="1" transform="translate(8,3)"><text x="21" style="color:#333333;font-size:12px;font-weight:normal;cursor:pointer;fill:#333333;" text-anchor="start" data-z-index="2" y="15"><tspan>Detekteien</tspan></text><rect x="2" y="4" width="12" height="12" fill="#D3E2E4" class="highcharts-point" data-z-index="3"></rect></g><g class="highcharts-legend-item highcharts-column-series highcharts-color-undefined highcharts-series-1" data-z-index="1" transform="translate(8,23)"><text x="21" y="15" style="color:#333333;font-size:12px;font-weight:normal;cursor:pointer;fill:#333333;" text-anchor="start" data-z-index="2"><tspan>Sicherheitsdienste mithilfe von</tspan><tspan dy="15" x="21">Überwachungs-</tspan><tspan x="21" dy="15">Alarmsystemen</tspan></text><rect x="2" y="4" width="12" height="12" fill="#689199" class="highcharts-point" data-z-index="3"></rect></g><g class="highcharts-legend-item highcharts-column-series highcharts-color-undefined highcharts-series-0" data-z-index="1" transform="translate(8,73)"><text x="21" y="15" style="color:#333333;font-size:12px;font-weight:normal;cursor:pointer;fill:#333333;" text-anchor="start" data-z-index="2"><tspan>Private Wach- und</tspan><tspan dy="15" x="21">Sicherheitsdienste</tspan></text><rect x="2" y="4" width="12" height="12" fill="#246370" class="highcharts-point" data-z-index="3"></rect></g></g></g></g><g class="highcharts-axis-labels highcharts-xaxis-labels " data-z-index="7"><text x="66.41666666666633" style="color:#000000;cursor:default;font-size:11px;fill:#000000;" text-anchor="middle" transform="translate(0,0)" y="385" opacity="1">2011</text><text x="101.25000000000333" style="color:#000000;cursor:default;font-size:11px;fill:#000000;" text-anchor="middle" transform="translate(0,0)" y="385" opacity="1">2012</text><text x="136.08333333333334" style="color:#000000;cursor:default;font-size:11px;fill:#000000;" text-anchor="middle" transform="translate(0,0)" y="385" opacity="1">2013</text><text x="170.91666666666333" style="color:#000000;cursor:default;font-size:11px;fill:#000000;" text-anchor="middle" transform="translate(0,0)" y="385" opacity="1">2014</text><text x="205.75000000000335" style="color:#000000;cursor:default;font-size:11px;fill:#000000;" text-anchor="middle" transform="translate(0,0)" y="385" opacity="1">2015</text><text x="240.58333333333334" style="color:#000000;cursor:default;font-size:11px;fill:#000000;" text-anchor="middle" transform="translate(0,0)" y="385" opacity="1">2016</text></g><g class="highcharts-axis-labels highcharts-yaxis-labels " data-z-index="7"><text x="34" style="color:#000000;cursor:default;font-size:11px;fill:#000000;" text-anchor="end" transform="translate(0,0)" y="370" opacity="1">0</text><text x="34" style="color:#000000;cursor:default;font-size:11px;fill:#000000;" text-anchor="end" transform="translate(0,0)" y="311" opacity="1">200</text><text x="34" style="color:#000000;cursor:default;font-size:11px;fill:#000000;" text-anchor="end" transform="translate(0,0)" y="253" opacity="1">400</text><text x="34" style="color:#000000;cursor:default;font-size:11px;fill:#000000;" text-anchor="end" transform="translate(0,0)" y="194" opacity="1">600</text><text x="34" style="color:#000000;cursor:default;font-size:11px;fill:#000000;" text-anchor="end" transform="translate(0,0)" y="136" opacity="1">800</text><text x="34" style="color:#000000;cursor:default;font-size:11px;fill:#000000;" text-anchor="end" transform="translate(0,0)" y="77" opacity="1">1000</text></g><g class="highcharts-axis-labels highcharts-yaxis-labels " data-z-index="7"></g><text x="10" class="highcharts-credits" text-anchor="start" data-z-index="8" style="cursor:default;color:#000000;font-size:10px;fill:#000000;" y="403"><tspan>Quelle: Bundesamt für Statistik (BFS), Statistik der Unternehmensstruktur (STATENT).</tspan><tspan x="10" dy="13">Zuletzt geändert: 2019-3-25</tspan></text></svg>