<?xml version="1.0" standalone="no"?><!DOCTYPE svg PUBLIC "-//W3C//DTD SVG 1.1//EN" "http://www.w3.org/Graphics/SVG/1.1/DTD/svg11.dtd"><svg xmlns:xlink="http://www.w3.org/1999/xlink" version="1.1" class="highcharts-root" style="font-family:Arial;font-size:12px;" xmlns="http://www.w3.org/2000/svg" viewBox="0 0 485 415"><desc>Created with Highstock 6.1.1</desc><defs><clipPath id="highcharts-bxc45y4-8"><rect x="0" y="0" width="246" height="86" fill="none"></rect></clipPath><clipPath id="highcharts-bxc45y4-9"><rect x="0" y="0" width="246" height="86" fill="none"></rect></clipPath><clipPath id="highcharts-bxc45y4-10"><rect x="0" y="0" width="246" height="86" fill="none"></rect></clipPath></defs><rect fill="#fbfbfb" class="highcharts-background" x="0" y="0" width="320" height="208" rx="0" ry="0"></rect><rect fill="none" class="highcharts-plot-background" x="39" y="99" width="246" height="86"></rect><g class="highcharts-pane-group" data-z-index="0"></g><g class="highcharts-grid highcharts-xaxis-grid " data-z-index="1"><path fill="none" data-z-index="1" class="highcharts-grid-line" d="M 39.5 99 L 39.5 185" opacity="1"></path><path fill="none" data-z-index="1" class="highcharts-grid-line" d="M 66.5 99 L 66.5 185" opacity="1"></path><path fill="none" data-z-index="1" class="highcharts-grid-line" d="M 94.5 99 L 94.5 185" opacity="1"></path><path fill="none" data-z-index="1" class="highcharts-grid-line" d="M 121.5 99 L 121.5 185" opacity="1"></path><path fill="none" data-z-index="1" class="highcharts-grid-line" d="M 148.5 99 L 148.5 185" opacity="1"></path><path fill="none" data-z-index="1" class="highcharts-grid-line" d="M 176.5 99 L 176.5 185" opacity="1"></path><path fill="none" data-z-index="1" class="highcharts-grid-line" d="M 203.5 99 L 203.5 185" opacity="1"></path><path fill="none" data-z-index="1" class="highcharts-grid-line" d="M 230.5 99 L 230.5 185" opacity="1"></path><path fill="none" data-z-index="1" class="highcharts-grid-line" d="M 258.5 99 L 258.5 185" opacity="1"></path></g><g class="highcharts-grid highcharts-yaxis-grid " data-z-index="1"><path fill="none" stroke="#e6e6e6" stroke-width="1" data-z-index="1" class="highcharts-grid-line" d="M 39 185.5 L 285 185.5" opacity="1"></path><path fill="none" stroke="#e6e6e6" stroke-width="1" data-z-index="1" class="highcharts-grid-line" d="M 39 171.5 L 285 171.5" opacity="1"></path><path fill="none" stroke="#e6e6e6" stroke-width="1" data-z-index="1" class="highcharts-grid-line" d="M 39 156.5 L 285 156.5" opacity="1"></path><path fill="none" stroke="#e6e6e6" stroke-width="1" data-z-index="1" class="highcharts-grid-line" d="M 39 142.5 L 285 142.5" opacity="1"></path><path fill="none" stroke="#e6e6e6" stroke-width="1" data-z-index="1" class="highcharts-grid-line" d="M 39 128.5 L 285 128.5" opacity="1"></path><path fill="none" stroke="#e6e6e6" stroke-width="1" data-z-index="1" class="highcharts-grid-line" d="M 39 113.5 L 285 113.5" opacity="1"></path><path fill="none" stroke="#e6e6e6" stroke-width="1" data-z-index="1" class="highcharts-grid-line" d="M 39 98.5 L 285 98.5" opacity="1"></path></g><g class="highcharts-grid highcharts-yaxis-grid " data-z-index="1"><path fill="none" data-z-index="1" class="highcharts-grid-line" d="M 39 185.5 L 285 185.5" opacity="1"></path><path fill="none" data-z-index="1" class="highcharts-grid-line" d="M 39 171.5 L 285 171.5" opacity="1"></path><path fill="none" data-z-index="1" class="highcharts-grid-line" d="M 39 156.5 L 285 156.5" opacity="1"></path><path fill="none" data-z-index="1" class="highcharts-grid-line" d="M 39 142.5 L 285 142.5" opacity="1"></path><path fill="none" data-z-index="1" class="highcharts-grid-line" d="M 39 128.5 L 285 128.5" opacity="1"></path><path fill="none" data-z-index="1" class="highcharts-grid-line" d="M 39 113.5 L 285 113.5" opacity="1"></path><path fill="none" data-z-index="1" class="highcharts-grid-line" d="M 39 99.5 L 285 99.5" opacity="1"></path></g><rect fill="none" class="highcharts-plot-border" data-z-index="1" x="39" y="99" width="246" height="86"></rect><g class="highcharts-axis highcharts-xaxis " data-z-index="2"><path fill="none" class="highcharts-axis-line" stroke="#B9CFD7" stroke-width="0.5" data-z-index="7" d="M 39 185.25 L 285 185.25"></path></g><g class="highcharts-axis highcharts-yaxis " data-z-index="2"><path fill="none" class="highcharts-axis-line" data-z-index="7" d="M 39 99 L 39 185"></path></g><g class="highcharts-axis highcharts-yaxis " data-z-index="2"><path fill="none" class="highcharts-axis-line" data-z-index="7" d="M 285 99 L 285 185"></path></g><g class="highcharts-series-group" data-z-index="3"><g data-z-index="0.1" class="highcharts-series highcharts-series-0 highcharts-line-series " transform="translate(39,99) scale(1 1)" clip-path="url(#highcharts-bxc45y4-9)"><path fill="none" d="M 1.1388888888889 4.5597199999999845 L 3.4166666666667 4.5597199999999845 L 5.6944444444444 4.5597199999999845 L 7.9722222222222 4.5597199999999845 L 10.25 4.5597199999999845 L 12.527777777778 4.5597199999999845 L 14.805555555556 4.5597199999999845 L 17.083333333333 4.5597199999999845 L 19.361111111111 4.5597199999999845 L 21.638888888889 4.5597199999999845 L 23.916666666667 4.5597199999999845 L 26.194444444444 4.5597199999999845 L 28.472222222222 26.433246666666662 L 30.75 26.433246666666662 L 33.027777777778 26.433246666666662 L 35.305555555556 26.433246666666662 L 37.583333333333 26.433246666666662 L 39.861111111111 26.433246666666662 L 42.138888888889 26.433246666666662 L 44.416666666667 26.433246666666662 L 46.694444444444 26.433246666666662 L 48.972222222222 26.433246666666662 L 51.25 26.433246666666662 L 53.527777777778 26.433246666666662 L 55.805555555556 70.45435333333333 L 58.083333333333 70.45435333333333 L 60.361111111111 70.45435333333333 L 62.638888888889 70.45435333333333 L 64.916666666667 70.45435333333333 L 67.194444444444 70.45435333333333 L 69.472222222222 70.45435333333333 L 71.75 70.45435333333333 L 74.027777777778 70.45435333333333 L 76.305555555556 70.45435333333333 L 78.583333333333 70.45435333333333 L 80.861111111111 70.45435333333333 L 83.138888888889 77.68924666666666 L 85.416666666667 77.68924666666666 L 87.694444444444 77.68924666666666 L 89.972222222222 77.68924666666666 L 92.25 77.68924666666666 L 94.527777777778 77.68924666666666 L 96.805555555556 77.68924666666666 L 99.083333333333 77.68924666666666 L 101.36111111111 77.68924666666666 L 103.63888888889 77.68924666666666 L 105.91666666667 77.68924666666666 L 108.19444444444 77.68924666666666 L 110.47222222222 78.91274 L 112.75 78.91274 L 115.02777777778 78.91274 L 117.30555555556 78.91274 L 119.58333333333 78.91274 L 121.86111111111 78.91274 L 124.13888888889 78.91274 L 126.41666666667 78.91274 L 128.69444444444 78.91274 L 130.97222222222 78.91274 L 133.25 78.91274 L 135.52777777778 78.91274 L 137.80555555556 78.46984 L 140.08333333333 78.46984 L 142.36111111111 78.46984 L 144.63888888889 78.46984 L 146.91666666667 78.46984 L 149.19444444444 78.46984 L 151.47222222222 78.46984 L 153.75 78.46984 L 156.02777777778 78.46984 L 158.30555555556 78.46984 L 160.58333333333 78.46984 L 162.86111111111 78.46984 L 165.13888888889 79.71426 L 167.41666666667 79.71426 L 169.69444444444 79.71426 L 171.97222222222 79.71426 L 174.25 79.71426 L 176.52777777778 79.71426 L 178.80555555556 79.71426 L 181.08333333333 79.71426 L 183.36111111111 79.71426 L 185.63888888889 79.71426 L 187.91666666667 79.71426 L 190.19444444444 79.71426 L 192.47222222222 76.74009333333333 L 194.75 76.74009333333333 L 197.02777777778 76.74009333333333 L 199.30555555556 76.74009333333333 L 201.58333333333 76.74009333333333 L 203.86111111111 76.74009333333333 L 206.13888888889 76.74009333333333 L 208.41666666667 76.74009333333333 L 210.69444444444 76.74009333333333 L 212.97222222222 76.74009333333333 L 215.25 76.74009333333333 L 217.52777777778 76.74009333333333 L 219.80555555556 77.37305333333333 L 222.08333333333 77.37305333333333 L 224.36111111111 77.37305333333333 L 226.63888888889 77.37305333333333 L 228.91666666667 77.37305333333333 L 231.19444444444 77.37305333333333 L 233.47222222222 77.37305333333333 L 235.75 77.37305333333333 L 238.02777777778 77.37305333333333 L 240.30555555556 77.37305333333333 L 242.58333333333 77.37305333333333 L 244.86111111111 77.37305333333333" class="highcharts-graph" data-z-index="1" stroke="#B00000" stroke-width="2" stroke-linejoin="round" stroke-linecap="round"></path></g><g data-z-index="0.1" class="highcharts-markers highcharts-series-0 highcharts-line-series " transform="translate(39,99) scale(1 1)" clip-path="none"></g><g data-z-index="0.1" class="highcharts-series highcharts-series-1 highcharts-line-series " transform="translate(39,99) scale(1 1)" clip-path="url(#highcharts-bxc45y4-10)"><path fill="none" d="M 1.1388888888889 22.36 L 3.4166666666667 27.376666666666665 L 5.6944444444444 32.82333333333333 L 7.9722222222222 41.71 L 10.25 45.00666666666667 L 12.527777777778 53.03333333333333 L 14.805555555556 56.61666666666666 L 17.083333333333 54.89666666666666 L 19.361111111111 50.02333333333333 L 21.638888888889 45.29333333333333 L 23.916666666667 36.406666666666666 L 26.194444444444 13.043333333333337 L 28.472222222222 14.763333333333335 L 30.75 24.08 L 33.027777777778 28.236666666666665 L 35.305555555556 40.56333333333333 L 37.583333333333 49.306666666666665 L 39.861111111111 56.903333333333336 L 42.138888888889 62.63666666666667 L 44.416666666667 65.64666666666666 L 46.694444444444 68.65666666666667 L 48.972222222222 71.23666666666666 L 51.25 72.24 L 53.527777777778 72.95666666666666 L 55.805555555556 74.10333333333334 L 58.083333333333 74.67666666666666 L 60.361111111111 74.82 L 62.638888888889 75.96666666666667 L 64.916666666667 75.96666666666667 L 67.194444444444 76.53999999999999 L 69.472222222222 76.68333333333334 L 71.75 77.25666666666666 L 74.027777777778 78.83333333333333 L 76.305555555556 79.40666666666667 L 78.583333333333 80.98333333333333 L 80.861111111111 81.12666666666667 L 83.138888888889 80.84 L 85.416666666667 81.41333333333333 L 87.694444444444 81.55666666666667 L 89.972222222222 82.27333333333333 L 92.25 82.41666666666667 L 94.527777777778 81.55666666666667 L 96.805555555556 81.27 L 99.083333333333 80.98333333333333 L 101.36111111111 81.41333333333333 L 103.63888888889 80.84 L 105.91666666667 80.69666666666667 L 108.19444444444 80.26666666666667 L 110.47222222222 80.84 L 112.75 80.69666666666667 L 115.02777777778 80.98333333333333 L 117.30555555556 81.7 L 119.58333333333 81.7 L 121.86111111111 82.13 L 124.13888888889 82.41666666666667 L 126.41666666667 82.70333333333333 L 128.69444444444 83.27666666666667 L 130.97222222222 83.27666666666667 L 133.25 82.27333333333333 L 135.52777777778 81.84333333333333 L 137.80555555556 81.41333333333333 L 140.08333333333 81.27 L 142.36111111111 80.69666666666667 L 144.63888888889 81.98666666666666 L 146.91666666667 82.13 L 149.19444444444 81.41333333333333 L 151.47222222222 82.41666666666667 L 153.75 82.13 L 156.02777777778 81.98666666666666 L 158.30555555556 81.84333333333333 L 160.58333333333 81.98666666666666 L 162.86111111111 81.55666666666667 L 165.13888888889 81.27 L 167.41666666667 81.12666666666667 L 169.69444444444 81.7 L 171.97222222222 81.84333333333333 L 174.25 82.84666666666666 L 176.52777777778 83.70666666666666 L 178.80555555556 83.99333333333334 L 181.08333333333 83.70666666666666 L 183.36111111111 83.56333333333333 L 185.63888888889 82.41666666666667 L 187.91666666667 81.84333333333333 L 190.19444444444 81.27 L 192.47222222222 79.26333333333334 L 194.75 80.26666666666667 L 197.02777777778 80.12333333333333 L 199.30555555556 81.12666666666667 L 201.58333333333 81.41333333333333 L 203.86111111111 81.7 L 206.13888888889 82.13 L 208.41666666667 82.41666666666667 L 210.69444444444 81.84333333333333 L 212.97222222222 80.98333333333333 L 215.25 80.55333333333333 L 217.52777777778 77.25666666666666 L 219.80555555556 77.4 L 222.08333333333 77.83 L 224.36111111111 79.55 L 226.63888888889 81.12666666666667 L 228.91666666667 81.84333333333333 L 231.19444444444 82.13 L 233.47222222222 82.84666666666666 L 235.75 82.99 L 238.02777777778 83.13333333333334 L 240.30555555556 82.70333333333333 L 242.58333333333 81.84333333333333 L 244.86111111111 79.98" class="highcharts-graph" data-z-index="1" stroke="#FF8028" stroke-width="2" stroke-linejoin="round" stroke-linecap="round"></path></g><g data-z-index="0.1" class="highcharts-markers highcharts-series-1 highcharts-line-series " transform="translate(39,99) scale(1 1)" clip-path="none"></g></g><text x="2" text-anchor="start" class="highcharts-title" data-z-index="4" style="color:#000000;font-size:10px;font-weight:bold;fill:#000000;" y="9"><tspan>Arbeitslose und Arbeitslosenquote in der</tspan><tspan dy="13" x="2">Personalvermittlung und -überlassung</tspan></text><text x="2" text-anchor="start" class="highcharts-subtitle" data-z-index="4" style="color:#000000;font-size:10px;font-weight:normal;font-family:Arial;fill:#000000;" y="40"><tspan>Basel-Stadt</tspan></text><g class="highcharts-legend" data-z-index="7" transform="translate(39,56)"><rect fill="none" class="highcharts-legend-box" rx="0" ry="0" x="0" y="0" width="219" height="31" visibility="visible"></rect><g data-z-index="1"><g><g class="highcharts-legend-item highcharts-line-series highcharts-color-undefined highcharts-series-0" data-z-index="1" transform="translate(0,-5)"><path fill="none" d="M 0 10 L 16 10" class="highcharts-graph" stroke="#B00000" stroke-width="2"></path><text x="21" style="color:#333333;font-size:10px;font-weight:normal;cursor:pointer;fill:#333333;" text-anchor="start" data-z-index="2" y="13"><tspan>Mittlere jährliche Arbeitslosenquote</tspan></text></g><g class="highcharts-legend-item highcharts-line-series highcharts-color-undefined highcharts-series-1" data-z-index="1" transform="translate(0,13)"><path fill="none" d="M 0 10 L 16 10" class="highcharts-graph" stroke="#FF8028" stroke-width="2"></path><text x="21" y="13" style="color:#333333;font-size:10px;font-weight:normal;cursor:pointer;fill:#333333;" text-anchor="start" data-z-index="2"><tspan>Monatliche Anzahl Arbeitslose (rechte Skala)</tspan></text></g></g></g></g><g class="highcharts-axis-labels highcharts-xaxis-labels " data-z-index="7"><text x="40.138888888889" style="color:#000000;cursor:default;font-size:10px;white-space:nowrap;fill:#000000;" text-anchor="middle" transform="translate(0,0)" y="203" opacity="1">2010</text><text x="67.472222222222" style="color:#000000;cursor:default;font-size:10px;white-space:nowrap;fill:#000000;" text-anchor="middle" transform="translate(0,0)" y="203" opacity="1">2011</text><text x="94.805555555556" style="color:#000000;cursor:default;font-size:10px;white-space:nowrap;fill:#000000;" text-anchor="middle" transform="translate(0,0)" y="203" opacity="1">2012</text><text x="122.13888888889" style="color:#000000;cursor:default;font-size:10px;white-space:nowrap;fill:#000000;" text-anchor="middle" transform="translate(0,0)" y="203" opacity="1">2013</text><text x="149.47222222222" style="color:#000000;cursor:default;font-size:10px;white-space:nowrap;fill:#000000;" text-anchor="middle" transform="translate(0,0)" y="203" opacity="1">2014</text><text x="176.80555555556" style="color:#000000;cursor:default;font-size:10px;white-space:nowrap;fill:#000000;" text-anchor="middle" transform="translate(0,0)" y="203" opacity="1">2015</text><text x="204.13888888889" style="color:#000000;cursor:default;font-size:10px;white-space:nowrap;fill:#000000;" text-anchor="middle" transform="translate(0,0)" y="203" opacity="1">2016</text><text x="231.47222222222" style="color:#000000;cursor:default;font-size:10px;white-space:nowrap;fill:#000000;" text-anchor="middle" transform="translate(0,0)" y="203" opacity="1">2017</text><text x="258.80555555556" style="color:#000000;cursor:default;font-size:10px;white-space:nowrap;fill:#000000;" text-anchor="middle" transform="translate(0,0)" y="203" opacity="1">2018</text></g><g class="highcharts-axis-labels highcharts-yaxis-labels " data-z-index="7"><text x="24" style="color:#000000;cursor:default;font-size:11px;fill:#000000;" text-anchor="end" transform="translate(0,0)" y="190" opacity="1">0%</text><text x="24" style="color:#000000;cursor:default;font-size:11px;fill:#000000;" text-anchor="end" transform="translate(0,0)" y="175" opacity="1">5%</text><text x="24" style="color:#000000;cursor:default;font-size:11px;fill:#000000;" text-anchor="end" transform="translate(0,0)" y="161" opacity="1">10%</text><text x="24" style="color:#000000;cursor:default;font-size:11px;fill:#000000;" text-anchor="end" transform="translate(0,0)" y="147" opacity="1">15%</text><text x="24" style="color:#000000;cursor:default;font-size:11px;fill:#000000;" text-anchor="end" transform="translate(0,0)" y="132" opacity="1">20%</text><text x="24" style="color:#000000;cursor:default;font-size:11px;fill:#000000;" text-anchor="end" transform="translate(0,0)" y="118" opacity="1">25%</text><text x="24" style="color:#000000;cursor:default;font-size:11px;fill:#000000;" text-anchor="end" transform="translate(0,0)" y="104" opacity="1">30%</text></g><g class="highcharts-axis-labels highcharts-yaxis-labels " data-z-index="7"><text x="300" style="color:#000000;cursor:default;font-size:11px;fill:#000000;" text-anchor="start" transform="translate(0,0)" y="190" opacity="1">0</text><text x="300" style="color:#000000;cursor:default;font-size:11px;fill:#000000;" text-anchor="start" transform="translate(0,0)" y="175" opacity="1">100</text><text x="300" style="color:#000000;cursor:default;font-size:11px;fill:#000000;" text-anchor="start" transform="translate(0,0)" y="161" opacity="1">200</text><text x="300" style="color:#000000;cursor:default;font-size:11px;fill:#000000;" text-anchor="start" transform="translate(0,0)" y="147" opacity="1">300</text><text x="300" style="color:#000000;cursor:default;font-size:11px;fill:#000000;" text-anchor="start" transform="translate(0,0)" y="132" opacity="1">400</text><text x="300" style="color:#000000;cursor:default;font-size:11px;fill:#000000;" text-anchor="start" transform="translate(0,0)" y="118" opacity="1">500</text><text x="300" style="color:#000000;cursor:default;font-size:11px;fill:#000000;" text-anchor="start" transform="translate(0,0)" y="104" opacity="1">600</text></g><text x="10" class="highcharts-credits" text-anchor="start" data-z-index="8" style="cursor:default;color:#000000;font-size:10px;fill:#000000;" y="193"><tspan>Quelle: Staatssekretariat für Wirtschaft SECO, Arbeitslosenstatistik.</tspan></text></svg>