<?xml version="1.0" standalone="no"?><!DOCTYPE svg PUBLIC "-//W3C//DTD SVG 1.1//EN" "http://www.w3.org/Graphics/SVG/1.1/DTD/svg11.dtd"><svg xmlns:xlink="http://www.w3.org/1999/xlink" version="1.1" class="highcharts-root" style="font-family:Arial;font-size:12px;" xmlns="http://www.w3.org/2000/svg" viewBox="0 0 485 415"><desc>Created with Highcharts 8.0.0</desc><defs><clipPath id="highcharts-akt3mfl-79-"><rect x="0" y="0" width="276" height="95" fill="none"></rect></clipPath><clipPath id="highcharts-akt3mfl-116-"><rect x="0" y="0" width="276" height="95" fill="none"></rect></clipPath></defs><rect fill="#fbfbfb" class="highcharts-background" x="0" y="0" width="320" height="221" rx="0" ry="0"></rect><rect fill="none" class="highcharts-plot-background" x="42" y="85" width="276" height="95"></rect><g class="highcharts-pane-group" data-z-index="0"></g><g class="highcharts-grid highcharts-xaxis-grid" data-z-index="1"><path fill="none" data-z-index="1" class="highcharts-grid-line" d="M 45.5 85 L 45.5 180" opacity="1"></path><path fill="none" data-z-index="1" class="highcharts-grid-line" d="M 76.5 85 L 76.5 180" opacity="1"></path><path fill="none" data-z-index="1" class="highcharts-grid-line" d="M 106.5 85 L 106.5 180" opacity="1"></path><path fill="none" data-z-index="1" class="highcharts-grid-line" d="M 137.5 85 L 137.5 180" opacity="1"></path><path fill="none" data-z-index="1" class="highcharts-grid-line" d="M 168.5 85 L 168.5 180" opacity="1"></path><path fill="none" data-z-index="1" class="highcharts-grid-line" d="M 198.5 85 L 198.5 180" opacity="1"></path><path fill="none" data-z-index="1" class="highcharts-grid-line" d="M 229.5 85 L 229.5 180" opacity="1"></path><path fill="none" data-z-index="1" class="highcharts-grid-line" d="M 260.5 85 L 260.5 180" opacity="1"></path><path fill="none" data-z-index="1" class="highcharts-grid-line" d="M 290.5 85 L 290.5 180" opacity="1"></path></g><g class="highcharts-grid highcharts-yaxis-grid" data-z-index="1"><path fill="none" stroke="#B9CFD7" stroke-width="0.5" data-z-index="1" class="highcharts-grid-line" d="M 42 180.25 L 318 180.25" opacity="1"></path><path fill="none" stroke="#B9CFD7" stroke-width="0.5" data-z-index="1" class="highcharts-grid-line" d="M 42 161.25 L 318 161.25" opacity="1"></path><path fill="none" stroke="#B9CFD7" stroke-width="0.5" data-z-index="1" class="highcharts-grid-line" d="M 42 142.25 L 318 142.25" opacity="1"></path><path fill="none" stroke="#B9CFD7" stroke-width="0.5" data-z-index="1" class="highcharts-grid-line" d="M 42 123.25 L 318 123.25" opacity="1"></path><path fill="none" stroke="#B9CFD7" stroke-width="0.5" data-z-index="1" class="highcharts-grid-line" d="M 42 104.25 L 318 104.25" opacity="1"></path><path fill="none" stroke="#B9CFD7" stroke-width="0.5" data-z-index="1" class="highcharts-grid-line" d="M 42 84.75 L 318 84.75" opacity="1"></path></g><g class="highcharts-grid highcharts-yaxis-grid" data-z-index="1"></g><rect fill="none" class="highcharts-plot-border" data-z-index="1" x="42" y="85" width="276" height="95"></rect><g class="highcharts-axis highcharts-xaxis" data-z-index="2"><path fill="none" class="highcharts-axis-line" stroke="#B9CFD7" stroke-width="0.5" data-z-index="7" d="M 42 180.25 L 318 180.25"></path></g><g class="highcharts-axis highcharts-yaxis" data-z-index="2"><path fill="none" class="highcharts-axis-line" data-z-index="7" d="M 42 85 L 42 180"></path></g><g class="highcharts-axis highcharts-yaxis" data-z-index="2"><path fill="none" class="highcharts-axis-line" data-z-index="7" d="M 318 85 L 318 180"></path></g><g class="highcharts-series-group" data-z-index="3"><g data-z-index="0.1" class="highcharts-series highcharts-series-0 highcharts-line-series" transform="translate(42,85) scale(1 1)" clip-path="url(#highcharts-akt3mfl-116-)"><path fill="none" d="M 3.8333333333333 46.588 L 11.5 42.294000000000004 L 19.166666666667 39.52 L 26.833333333333 37.886 L 34.5 41.648 L 42.166666666667 35.72 L 49.833333333333 30.476 L 57.5 35.948 L 65.166666666667 40.432 L 72.833333333333 29.564000000000007 L 80.5 22.534000000000006 L 88.166666666667 27.816000000000003 L 95.833333333333 30.476 L 103.5 20.482 L 111.16666666667 14.022000000000006 L 118.83333333333 18.695999999999998 L 126.5 21.204000000000008 L 134.16666666667 12.084000000000003 L 141.83333333333 10.070000000000007 L 149.5 17.632000000000005 L 157.16666666667 19.152 L 164.83333333333 12.920000000000002 L 172.5 10.716000000000008 L 180.16666666667 22.724000000000004 L 187.83333333333 24.281999999999996 L 195.5 14.060000000000002 L 203.16666666667 11.438000000000002 L 210.83333333333 18.049999999999997 L 218.5 12.311999999999998 L 226.16666666667 12.198000000000008 L 233.83333333333 9.310000000000002 L 241.5 7.334000000000003 L 249.16666666667 11.210000000000008 L 256.83333333333 11.780000000000001 L 264.5 10.146 L 272.16666666667 10.792000000000002" class="highcharts-graph" data-z-index="1" stroke="#0A3B19" stroke-width="2" stroke-linejoin="round" stroke-linecap="round"></path></g><g data-z-index="0.1" class="highcharts-markers highcharts-series-0 highcharts-line-series" transform="translate(42,85) scale(1 1)" clip-path="none"></g><g data-z-index="0.1" class="highcharts-series highcharts-series-1 highcharts-line-series" transform="translate(42,85) scale(1 1)" clip-path="url(#highcharts-akt3mfl-116-)"><path fill="none" d="M 3.8333333333333 91.162 L 11.5 86.83 L 19.166666666667 79.19200000000001 L 26.833333333333 84.702 L 34.5 88.008 L 42.166666666667 85.234 L 49.833333333333 80.56 L 57.5 84.17 L 65.166666666667 88.502 L 72.833333333333 84.588 L 80.5 72.428 L 88.166666666667 80.104 L 95.833333333333 83.486 L 103.5 75.468 L 111.16666666667 69.844 L 118.83333333333 78.318 L 126.5 82.46000000000001 L 134.16666666667 74.78399999999999 L 141.83333333333 65.208 L 149.5 82.346 L 157.16666666667 83.676 L 164.83333333333 80.028 L 172.5 72.086 L 180.16666666667 85.728 L 187.83333333333 86.944 L 195.5 82.612 L 203.16666666667 78.66 L 210.83333333333 84.664 L 218.5 87.818 L 226.16666666667 78.394 L 233.83333333333 74.366 L 241.5 82.08 L 249.16666666667 85.386 L 256.83333333333 79.078 L 264.5 73.79599999999999 L 272.16666666667 82.08" class="highcharts-graph" data-z-index="1" stroke="#008AC3" stroke-width="2" stroke-linejoin="round" stroke-linecap="round"></path></g><g data-z-index="0.1" class="highcharts-markers highcharts-series-1 highcharts-line-series" transform="translate(42,85) scale(1 1)" clip-path="none"></g></g><text x="2" text-anchor="start" class="highcharts-title" data-z-index="4" style="color:#000000;font-size:10px;font-weight:bold;fill:#000000;" y="9"><tspan>Ausländische Erwerbstätige in der Branche</tspan><tspan dy="13" x="2">Personalvermittlung und -überlassung</tspan></text><text x="2" text-anchor="start" class="highcharts-subtitle" data-z-index="4" style="color:#000000;font-size:10px;font-weight:normal;font-family:Arial;fill:#000000;" y="38"><tspan>Basel-Stadt</tspan></text><text x="2" text-anchor="start" class="highcharts-caption" data-z-index="4" style="color:#666666;fill:#666666;" y="211"></text><g class="highcharts-legend" data-z-index="7" transform="translate(39,52)"><rect fill="none" class="highcharts-legend-box" rx="0" ry="0" x="0" y="0" width="159" height="21" visibility="visible"></rect><g data-z-index="1"><g><g class="highcharts-legend-item highcharts-line-series highcharts-color-undefined highcharts-series-0" data-z-index="1" transform="translate(0,-5)"><path fill="none" d="M 0 10 L 16 10" class="highcharts-graph" stroke="#0A3B19" stroke-width="2"></path><text x="21" style="color:#333333;cursor:pointer;font-size:10px;font-weight:normal;fill:#333333;" text-anchor="start" data-z-index="2" y="13"><tspan>Bestand Grenzgänger</tspan></text></g><g class="highcharts-legend-item highcharts-line-series highcharts-color-undefined highcharts-series-1" data-z-index="1" transform="translate(0,8)"><path fill="none" d="M 0 10 L 16 10" class="highcharts-graph" stroke="#008AC3" stroke-width="2"></path><text x="21" y="13" style="color:#333333;cursor:pointer;font-size:10px;font-weight:normal;fill:#333333;" text-anchor="start" data-z-index="2"><tspan>Bestand Meldepflichtige in VZÄ</tspan></text></g></g></g></g><g class="highcharts-axis-labels highcharts-xaxis-labels" data-z-index="7"><text x="56.833333333333" style="color:#000000;cursor:default;font-size:10px;fill:#000000;" text-anchor="middle" transform="translate(0,0)" y="198" opacity="1">2010</text><text x="87.5" style="color:#000000;cursor:default;font-size:10px;fill:#000000;" text-anchor="middle" transform="translate(0,0)" y="198" opacity="1">2011</text><text x="118.16666666667" style="color:#000000;cursor:default;font-size:10px;fill:#000000;" text-anchor="middle" transform="translate(0,0)" y="198" opacity="1">2012</text><text x="148.83333333333" style="color:#000000;cursor:default;font-size:10px;fill:#000000;" text-anchor="middle" transform="translate(0,0)" y="198" opacity="1">2013</text><text x="179.5" style="color:#000000;cursor:default;font-size:10px;fill:#000000;" text-anchor="middle" transform="translate(0,0)" y="198" opacity="1">2014</text><text x="210.16666666667" style="color:#000000;cursor:default;font-size:10px;fill:#000000;" text-anchor="middle" transform="translate(0,0)" y="198" opacity="1">2015</text><text x="240.83333333333" style="color:#000000;cursor:default;font-size:10px;fill:#000000;" text-anchor="middle" transform="translate(0,0)" y="198" opacity="1">2016</text><text x="271.5" style="color:#000000;cursor:default;font-size:10px;fill:#000000;" text-anchor="middle" transform="translate(0,0)" y="198" opacity="1">2017</text><text x="302.16666666667" style="color:#000000;cursor:default;font-size:10px;fill:#000000;" text-anchor="middle" transform="translate(0,0)" y="198" opacity="1">2018</text></g><g class="highcharts-axis-labels highcharts-yaxis-labels" data-z-index="7"><text x="27" style="color:#000000;cursor:default;font-size:10px;fill:#000000;" text-anchor="end" transform="translate(0,0)" y="185" opacity="1">0</text><text x="27" style="color:#000000;cursor:default;font-size:10px;fill:#000000;" text-anchor="end" transform="translate(0,0)" y="166" opacity="1">500</text><text x="27" style="color:#000000;cursor:default;font-size:10px;fill:#000000;" text-anchor="end" transform="translate(0,0)" y="147" opacity="1"><tspan>1 000</tspan></text><text x="27" style="color:#000000;cursor:default;font-size:10px;fill:#000000;" text-anchor="end" transform="translate(0,0)" y="128" opacity="1"><tspan>1 500</tspan></text><text x="27" style="color:#000000;cursor:default;font-size:10px;fill:#000000;" text-anchor="end" transform="translate(0,0)" y="109" opacity="1"><tspan>2 000</tspan></text><text x="27" style="color:#000000;cursor:default;font-size:10px;fill:#000000;" text-anchor="end" transform="translate(0,0)" y="90" opacity="1"><tspan>2 500</tspan></text></g><g class="highcharts-axis-labels highcharts-yaxis-labels" data-z-index="7"></g><text x="10" class="highcharts-credits" text-anchor="start" data-z-index="8" style="cursor:default;color:#000000;font-size:10;fill:#000000;" y="186"><tspan>Quelle: Staatssekretariat für Migration (SEM), Zentrales Migrationssystem (ZEMIS);</tspan><tspan x="10" dy="15">Bundesamt für Statistik (BFS), Grenzgängerstatistik (GGS).</tspan><tspan x="10" dy="15">Zuletzt geändert: 2020-1-3</tspan></text></svg>