<?xml version="1.0" standalone="no"?><!DOCTYPE svg PUBLIC "-//W3C//DTD SVG 1.1//EN" "http://www.w3.org/Graphics/SVG/1.1/DTD/svg11.dtd"><svg xmlns:xlink="http://www.w3.org/1999/xlink" version="1.1" class="highcharts-root" style="font-family:Arial;font-size:12px;" xmlns="http://www.w3.org/2000/svg" viewBox="0 0 485 415"><desc>Created with Highcharts 9.0.1</desc><defs><clipPath id="highcharts-vu4kodq-46-"><rect x="0" y="0" width="434" height="240" fill="none"></rect></clipPath><clipPath id="highcharts-vu4kodq-60-"><rect x="0" y="0" width="434" height="240" fill="none"></rect></clipPath><clipPath id="highcharts-vu4kodq-87-"><rect x="41" y="92" width="434" height="240" fill="none"></rect></clipPath></defs><rect fill="#fbfbfb" class="highcharts-background" x="0" y="0" width="485" height="428" rx="0" ry="0"></rect><rect fill="none" class="highcharts-plot-background" x="41" y="92" width="434" height="240"></rect><g class="highcharts-pane-group" data-z-index="0"></g><g class="highcharts-grid highcharts-xaxis-grid" data-z-index="1"><path fill="none" data-z-index="1" class="highcharts-grid-line" d="M 44.5 92 L 44.5 332" opacity="1"></path><path fill="none" data-z-index="1" class="highcharts-grid-line" d="M 78.5 92 L 78.5 332" opacity="1"></path><path fill="none" data-z-index="1" class="highcharts-grid-line" d="M 114.5 92 L 114.5 332" opacity="1"></path><path fill="none" data-z-index="1" class="highcharts-grid-line" d="M 149.5 92 L 149.5 332" opacity="1"></path><path fill="none" data-z-index="1" class="highcharts-grid-line" d="M 185.5 92 L 185.5 332" opacity="1"></path><path fill="none" data-z-index="1" class="highcharts-grid-line" d="M 220.5 92 L 220.5 332" opacity="1"></path><path fill="none" data-z-index="1" class="highcharts-grid-line" d="M 256.5 92 L 256.5 332" opacity="1"></path><path fill="none" data-z-index="1" class="highcharts-grid-line" d="M 292.5 92 L 292.5 332" opacity="1"></path><path fill="none" data-z-index="1" class="highcharts-grid-line" d="M 327.5 92 L 327.5 332" opacity="1"></path><path fill="none" data-z-index="1" class="highcharts-grid-line" d="M 363.5 92 L 363.5 332" opacity="1"></path><path fill="none" data-z-index="1" class="highcharts-grid-line" d="M 398.5 92 L 398.5 332" opacity="1"></path><path fill="none" data-z-index="1" class="highcharts-grid-line" d="M 434.5 92 L 434.5 332" opacity="1"></path><path fill="none" data-z-index="1" class="highcharts-grid-line" d="M 470.5 92 L 470.5 332" opacity="1"></path></g><g class="highcharts-grid highcharts-yaxis-grid" data-z-index="1"><path fill="none" stroke="#B9CFD7" stroke-width="0.5" data-z-index="1" class="highcharts-grid-line" d="M 41 332.25 L 475 332.25" opacity="1"></path><path fill="none" stroke="#B9CFD7" stroke-width="0.5" data-z-index="1" class="highcharts-grid-line" d="M 41 252.25 L 475 252.25" opacity="1"></path><path fill="none" stroke="#B9CFD7" stroke-width="0.5" data-z-index="1" class="highcharts-grid-line" d="M 41 172.25 L 475 172.25" opacity="1"></path><path fill="none" stroke="#B9CFD7" stroke-width="0.5" data-z-index="1" class="highcharts-grid-line" d="M 41 91.75 L 475 91.75" opacity="1"></path></g><rect fill="none" class="highcharts-plot-border" data-z-index="1" x="41" y="92" width="434" height="240"></rect><g class="highcharts-axis highcharts-xaxis" data-z-index="2"><path fill="none" class="highcharts-axis-line" stroke="#B9CFD7" stroke-width="0.5" data-z-index="7" d="M 41 332.25 L 475 332.25"></path></g><g class="highcharts-axis highcharts-yaxis" data-z-index="2"><path fill="none" class="highcharts-axis-line" data-z-index="7" d="M 41 92 L 41 332"></path></g><g class="highcharts-series-group" data-z-index="3"><g class="highcharts-series highcharts-series-0 highcharts-line-series" data-z-index="0.1" opacity="1" transform="translate(41,92) scale(1 1)" clip-path="url(#highcharts-vu4kodq-60-)"><path fill="none" d="M 4.2549019607843 112.636 L 37.968606021644 98.78399999999999 L 74.007393121183 86.24799999999999 L 108.88363870138 80.832 L 144.92242580092 78.976 L 179.79867138112 75.53200000000001 L 215.83745848066 79.75200000000001 L 251.8762455802 83.19200000000001 L 286.7524911604 83.30799999999999 L 322.79127825994 80.79599999999999 L 357.66752384014 69.46000000000001 L 393.70631093968 65.512 L 429.74509803922 67.06" class="highcharts-graph" data-z-index="1" stroke="#083038" stroke-width="2" stroke-linejoin="round" stroke-linecap="round"></path></g><g class="highcharts-markers highcharts-series-0 highcharts-line-series" data-z-index="0.1" opacity="1" transform="translate(41,92) scale(1 1)" clip-path="none"></g><g class="highcharts-series highcharts-series-1 highcharts-line-series" data-z-index="0.1" opacity="1" transform="translate(41,92) scale(1 1)" clip-path="url(#highcharts-vu4kodq-60-)"><path fill="none" d="M 4.2549019607843 111.768 L 37.968606021644 100.112 L 74.007393121183 87.988 L 108.88363870138 68.404 L 144.92242580092 60.476 L 179.79867138112 39.02799999999999 L 215.83745848066 50.684 L 251.8762455802 70.73599999999999 L 286.7524911604 80.064 L 322.79127825994 82.392 L 357.66752384014 76.79600000000002 L 393.70631093968 82.85999999999999 L 429.74509803922 79.12800000000001" class="highcharts-graph" data-z-index="1" stroke="#008AC3" stroke-width="2" stroke-linejoin="round" stroke-linecap="round"></path></g><g class="highcharts-markers highcharts-series-1 highcharts-line-series" data-z-index="0.1" opacity="1" transform="translate(41,92) scale(1 1)" clip-path="none"></g><g class="highcharts-series highcharts-series-2 highcharts-line-series" data-z-index="0.1" opacity="1" transform="translate(41,92) scale(1 1)" clip-path="url(#highcharts-vu4kodq-60-)"><path fill="none" d="M 4.2549019607843 128.81599999999997 L 37.968606021644 122.336 L 74.007393121183 117.02 L 108.88363870138 114.82 L 144.92242580092 116.372 L 179.79867138112 112.356 L 215.83745848066 113.91199999999999 L 251.8762455802 114.43199999999999 L 286.7524911604 114.3 L 322.79127825994 104.71200000000002 L 357.66752384014 95.25200000000001 L 393.70631093968 93.048 L 429.74509803922 94.99199999999999" class="highcharts-graph" data-z-index="1" stroke="#71A3B5" stroke-width="2" stroke-linejoin="round" stroke-linecap="round"></path></g><g class="highcharts-markers highcharts-series-2 highcharts-line-series" data-z-index="0.1" opacity="1" transform="translate(41,92) scale(1 1)" clip-path="none"></g></g><text x="10" text-anchor="start" class="highcharts-title" data-z-index="4" style="color:#000000;font-size:14px;font-weight:bold;fill:#000000;" y="21">Arbeitslosenquote nach Alter</text><text x="10" text-anchor="start" class="highcharts-subtitle" data-z-index="4" style="color:#000000;font-size:12px;font-weight:normal;fill:#000000;" y="40">Basel-Stadt</text><text x="10" text-anchor="start" class="highcharts-caption" data-z-index="4" style="color:#666666;fill:#666666;" y="385"></text><g class="highcharts-legend" data-z-index="7" transform="translate(33,55)"><rect fill="none" class="highcharts-legend-box" rx="0" ry="0" x="0" y="0" width="282" height="25" visibility="visible"></rect><g data-z-index="1"><g><g class="highcharts-legend-item highcharts-line-series highcharts-color-undefined highcharts-series-0" data-z-index="1" transform="translate(8,3)"><path fill="none" d="M 0 11 L 16 11" class="highcharts-graph" stroke="#083038" stroke-width="2"></path><text x="21" style="color:#333333;cursor:pointer;font-size:12px;font-weight:normal;fill:#333333;" text-anchor="start" data-z-index="2" y="15">Total</text></g><g class="highcharts-legend-item highcharts-line-series highcharts-color-undefined highcharts-series-1" data-z-index="1" transform="translate(75.65625,3)"><path fill="none" d="M 0 11 L 16 11" class="highcharts-graph" stroke="#008AC3" stroke-width="2"></path><text x="21" y="15" style="color:#333333;cursor:pointer;font-size:12px;font-weight:normal;fill:#333333;" text-anchor="start" data-z-index="2">15-24 Jahre</text></g><g class="highcharts-legend-item highcharts-line-series highcharts-color-undefined highcharts-series-2" data-z-index="1" transform="translate(180.65625,3)"><path fill="none" d="M 0 11 L 16 11" class="highcharts-graph" stroke="#71A3B5" stroke-width="2"></path><text x="21" y="15" style="color:#333333;cursor:pointer;font-size:12px;font-weight:normal;fill:#333333;" text-anchor="start" data-z-index="2">50 Jahre u.m.</text></g></g></g></g><g class="highcharts-axis-labels highcharts-xaxis-labels" data-z-index="7"><text x="47.84762682513467" style="color:#000000;cursor:default;font-size:11px;fill:#000000;" text-anchor="end" transform="translate(0,0) rotate(-45 47.84762682513467 348)" y="348" opacity="1">Feb 20</text><text x="81.56133088599468" style="color:#000000;cursor:default;font-size:11px;fill:#000000;" text-anchor="end" transform="translate(0,0) rotate(-45 81.56133088599468 348)" y="348" opacity="1">Mar</text><text x="117.60011798553067" style="color:#000000;cursor:default;font-size:11px;fill:#000000;" text-anchor="end" transform="translate(0,0) rotate(-45 117.60011798553067 348)" y="348" opacity="1">Apr</text><text x="152.47636356573068" style="color:#000000;cursor:default;font-size:11px;fill:#000000;" text-anchor="end" transform="translate(0,0) rotate(-45 152.47636356573068 348)" y="348" opacity="1">May</text><text x="188.51515066527068" style="color:#000000;cursor:default;font-size:11px;fill:#000000;" text-anchor="end" transform="translate(0,0) rotate(-45 188.51515066527068 348)" y="348" opacity="1">Jun</text><text x="223.39139624547067" style="color:#000000;cursor:default;font-size:11px;fill:#000000;" text-anchor="end" transform="translate(0,0) rotate(-45 223.39139624547067 348)" y="348" opacity="1">Jul</text><text x="259.4301833450107" style="color:#000000;cursor:default;font-size:11px;fill:#000000;" text-anchor="end" transform="translate(0,0) rotate(-45 259.4301833450107 348)" y="348" opacity="1">Aug</text><text x="295.4689704445507" style="color:#000000;cursor:default;font-size:11px;fill:#000000;" text-anchor="end" transform="translate(0,0) rotate(-45 295.4689704445507 348)" y="348" opacity="1">Sep</text><text x="330.34521602475064" style="color:#000000;cursor:default;font-size:11px;fill:#000000;" text-anchor="end" transform="translate(0,0) rotate(-45 330.34521602475064 348)" y="348" opacity="1">Oct</text><text x="366.38400312429064" style="color:#000000;cursor:default;font-size:11px;fill:#000000;" text-anchor="end" transform="translate(0,0) rotate(-45 366.38400312429064 348)" y="348" opacity="1">Nov</text><text x="401.26024870449066" style="color:#000000;cursor:default;font-size:11px;fill:#000000;" text-anchor="end" transform="translate(0,0) rotate(-45 401.26024870449066 348)" y="348" opacity="1">Dec</text><text x="437.29903580403067" style="color:#000000;cursor:default;font-size:11px;fill:#000000;" text-anchor="end" transform="translate(0,0) rotate(-45 437.29903580403067 348)" y="348" opacity="1">Jan</text><text x="473.33782290357067" style="color:#000000;cursor:default;font-size:11px;fill:#000000;" text-anchor="end" transform="translate(0,0) rotate(-45 473.33782290357067 348)" y="348" opacity="1">Feb 21</text></g><g class="highcharts-axis-labels highcharts-yaxis-labels" data-z-index="7"><text x="26" style="color:#000000;cursor:default;font-size:11px;fill:#000000;" text-anchor="end" transform="translate(0,0)" y="337" opacity="1">0%</text><text x="26" style="color:#000000;cursor:default;font-size:11px;fill:#000000;" text-anchor="end" transform="translate(0,0)" y="257" opacity="1">2%</text><text x="26" style="color:#000000;cursor:default;font-size:11px;fill:#000000;" text-anchor="end" transform="translate(0,0)" y="177" opacity="1">4%</text><text x="26" style="color:#000000;cursor:default;font-size:11px;fill:#000000;" text-anchor="end" transform="translate(0,0)" y="97" opacity="1">6%</text></g><text x="10" class="highcharts-credits" text-anchor="start" data-z-index="8" style="cursor:default;color:#000000;font-size:10px;fill:#000000;" y="403">Quelle: Staatssekretariat für Wirtschaft SECO, Arbeitslosenstatistik.<tspan class="highcharts-br" dy="13" x="10">​</tspan>Zuletzt geändert: 2021-3-8</text><g class="highcharts-control-points" data-z-index="99" clip-path="url(#highcharts-vu4kodq-87-)"></g></svg>