<svg version="1.1" class="highcharts-root" style="font-family: Inter, &quot;Helvetica Neue&quot;, Helvetica, Arial, sans-serif; font-size: 1rem;" xmlns="http://www.w3.org/2000/svg" width="600" height="400" viewBox="0 0 600 400" role="img" aria-label="Jahresteuerung Basler Index und Landesindex"><desc>Created with Highcharts 12.5.0</desc><defs><filter id="highcharts-drop-shadow-0"><feDropShadow dx="1" dy="1" flood-color="#000000" flood-opacity="0.75" stdDeviation="2.5"></feDropShadow></filter><clipPath id="highcharts-vt8b1sj-201-"><rect x="0" y="0" width="531" height="199" fill="none"></rect></clipPath></defs><rect fill="#ffffff" class="highcharts-background" filter="none" x="0" y="0" width="600" height="400" rx="0" ry="0"></rect><rect fill="none" class="highcharts-plot-background" x="59" y="83" width="531" height="199" filter="none"></rect><g class="highcharts-pane-group" data-z-index="0"></g><g class="highcharts-grid highcharts-xaxis-grid" data-z-index="1"><path fill="none" stroke="#e6e6e6" stroke-width="0" stroke-dasharray="none" data-z-index="1" class="highcharts-grid-line" d="M 82.5 83 L 82.5 282" opacity="1"></path><path fill="none" stroke="#e6e6e6" stroke-width="0" stroke-dasharray="none" data-z-index="1" class="highcharts-grid-line" d="M 122.5 83 L 122.5 282" opacity="1"></path><path fill="none" stroke="#e6e6e6" stroke-width="0" stroke-dasharray="none" data-z-index="1" class="highcharts-grid-line" d="M 163.5 83 L 163.5 282" opacity="1"></path><path fill="none" stroke="#e6e6e6" stroke-width="0" stroke-dasharray="none" data-z-index="1" class="highcharts-grid-line" d="M 203.5 83 L 203.5 282" opacity="1"></path><path fill="none" stroke="#e6e6e6" stroke-width="0" stroke-dasharray="none" data-z-index="1" class="highcharts-grid-line" d="M 244.5 83 L 244.5 282" opacity="1"></path><path fill="none" stroke="#e6e6e6" stroke-width="0" stroke-dasharray="none" data-z-index="1" class="highcharts-grid-line" d="M 285.5 83 L 285.5 282" opacity="1"></path><path fill="none" stroke="#e6e6e6" stroke-width="0" stroke-dasharray="none" data-z-index="1" class="highcharts-grid-line" d="M 325.5 83 L 325.5 282" opacity="1"></path><path fill="none" stroke="#e6e6e6" stroke-width="0" stroke-dasharray="none" data-z-index="1" class="highcharts-grid-line" d="M 366.5 83 L 366.5 282" opacity="1"></path><path fill="none" stroke="#e6e6e6" stroke-width="0" stroke-dasharray="none" data-z-index="1" class="highcharts-grid-line" d="M 405.5 83 L 405.5 282" opacity="1"></path><path fill="none" stroke="#e6e6e6" stroke-width="0" stroke-dasharray="none" data-z-index="1" class="highcharts-grid-line" d="M 447.5 83 L 447.5 282" opacity="1"></path><path fill="none" stroke="#e6e6e6" stroke-width="0" stroke-dasharray="none" data-z-index="1" class="highcharts-grid-line" d="M 488.5 83 L 488.5 282" opacity="1"></path><path fill="none" stroke="#e6e6e6" stroke-width="0" stroke-dasharray="none" data-z-index="1" class="highcharts-grid-line" d="M 525.5 83 L 525.5 282" opacity="1"></path><path fill="none" stroke="#e6e6e6" stroke-width="0" stroke-dasharray="none" data-z-index="1" class="highcharts-grid-line" d="M 566.5 83 L 566.5 282" opacity="1"></path></g><g class="highcharts-grid highcharts-yaxis-grid" data-z-index="1"><path fill="none" stroke="#B9CFD7" stroke-width="0.5" stroke-dasharray="none" data-z-index="1" class="highcharts-grid-line" d="M 59 282.25 L 590 282.25" opacity="1"></path><path fill="none" stroke="#B9CFD7" stroke-width="0.5" stroke-dasharray="none" data-z-index="1" class="highcharts-grid-line" d="M 59 232.25 L 590 232.25" opacity="1"></path><path fill="none" stroke="#B9CFD7" stroke-width="0.5" stroke-dasharray="none" data-z-index="1" class="highcharts-grid-line" d="M 59 182.25 L 590 182.25" opacity="1"></path><path fill="none" stroke="#B9CFD7" stroke-width="0.5" stroke-dasharray="none" data-z-index="1" class="highcharts-grid-line" d="M 59 133.25 L 590 133.25" opacity="1"></path><path fill="none" stroke="#B9CFD7" stroke-width="0.5" stroke-dasharray="none" data-z-index="1" class="highcharts-grid-line" d="M 59 83.25 L 590 83.25" opacity="1"></path></g><rect fill="none" class="highcharts-plot-border" data-z-index="1" stroke="#cccccc" stroke-width="0" x="59" y="83" width="531" height="199"></rect><g class="highcharts-axis highcharts-xaxis" data-z-index="2"><path fill="none" class="highcharts-axis-line" stroke="#B9CFD7" stroke-width="0.5" data-z-index="7" d="M 59 282.25 L 590 282.25"></path></g><g class="highcharts-axis highcharts-yaxis" data-z-index="2"><path fill="none" class="highcharts-axis-line" stroke="#B9CFD7" stroke-width="0" data-z-index="7" d="M 59 83 L 59 282"></path></g><g class="highcharts-series-group" data-z-index="3" filter="none"><g class="highcharts-series highcharts-series-0 highcharts-column-series highcharts-tracker" data-z-index="0.1" opacity="1" transform="translate(59,83) scale(1 1)" clip-path="url(#highcharts-vt8b1sj-201-)"><path fill="rgb(111,111,111)" d="M 15.5 109.5 L 20.5 109.5 A 3 3 0 0 1 23.5 112.5 L 23.5 149.5 A 0 0 0 0 1 23.5 149.5 L 12.5 149.5 A 0 0 0 0 1 12.5 149.5 L 12.5 112.5 A 3 3 0 0 1 15.5 109.5 Z" stroke="#ffffff" stroke-width="1" opacity="1" filter="none" class="highcharts-point"></path><path fill="rgb(111,111,111)" d="M 52.5 149.5 L 63.5 149.5 A 0 0 0 0 1 63.5 149.5 L 63.5 166.5 A 3 3 0 0 1 60.5 169.5 L 55.5 169.5 A 3 3 0 0 1 52.5 166.5 L 52.5 149.5 A 0 0 0 0 1 52.5 149.5 Z" stroke="#ffffff" stroke-width="1" opacity="1" filter="none" class="highcharts-point highcharts-negative"></path><path fill="rgb(111,111,111)" d="M 96.5 149.5 L 101.5 149.5 A 3 3 0 0 1 101.5 149.5 L 101.5 149.5 A 0 0 0 0 1 101.5 149.5 L 101.5 149.5 A 0 0 0 0 1 96.5 149.5 L 96.5 149.5 A 3 3 0 0 1 96.5 149.5 Z" stroke="#ffffff" stroke-width="1" opacity="1" filter="none" class="highcharts-point"></path><path fill="rgb(111,111,111)" d="M 135.5 129.5 L 141.5 129.5 A 3 3 0 0 1 144.5 132.5 L 144.5 149.5 A 0 0 0 0 1 144.5 149.5 L 132.5 149.5 A 0 0 0 0 1 132.5 149.5 L 132.5 132.5 A 3 3 0 0 1 135.5 129.5 Z" stroke="#ffffff" stroke-width="1" opacity="1" filter="none" class="highcharts-point"></path><path fill="rgb(111,111,111)" d="M 177.5 129.5 L 182.5 129.5 A 3 3 0 0 1 185.5 132.5 L 185.5 149.5 A 0 0 0 0 1 185.5 149.5 L 174.5 149.5 A 0 0 0 0 1 174.5 149.5 L 174.5 132.5 A 3 3 0 0 1 177.5 129.5 Z" stroke="#ffffff" stroke-width="1" opacity="1" filter="none" class="highcharts-point"></path><path fill="rgb(111,111,111)" d="M 218.5 109.5 L 223.5 109.5 A 3 3 0 0 1 226.5 112.5 L 226.5 149.5 A 0 0 0 0 1 226.5 149.5 L 215.5 149.5 A 0 0 0 0 1 215.5 149.5 L 215.5 112.5 A 3 3 0 0 1 218.5 109.5 Z" stroke="#ffffff" stroke-width="1" opacity="1" filter="none" class="highcharts-point"></path><path fill="rgb(111,111,111)" d="M 258.5 109.5 L 263.5 109.5 A 3 3 0 0 1 266.5 112.5 L 266.5 149.5 A 0 0 0 0 1 266.5 149.5 L 255.5 149.5 A 0 0 0 0 1 255.5 149.5 L 255.5 112.5 A 3 3 0 0 1 258.5 109.5 Z" stroke="#ffffff" stroke-width="1" opacity="1" filter="none" class="highcharts-point"></path><path fill="rgb(111,111,111)" d="M 299.5 129.5 L 304.5 129.5 A 3 3 0 0 1 307.5 132.5 L 307.5 149.5 A 0 0 0 0 1 307.5 149.5 L 296.5 149.5 A 0 0 0 0 1 296.5 149.5 L 296.5 132.5 A 3 3 0 0 1 299.5 129.5 Z" stroke="#ffffff" stroke-width="1" opacity="1" filter="none" class="highcharts-point"></path><path fill="rgb(111,111,111)" d="M 338.5 129.5 L 344.5 129.5 A 3 3 0 0 1 347.5 132.5 L 347.5 149.5 A 0 0 0 0 1 347.5 149.5 L 335.5 149.5 A 0 0 0 0 1 335.5 149.5 L 335.5 132.5 A 3 3 0 0 1 338.5 129.5 Z" stroke="#ffffff" stroke-width="1" opacity="1" filter="none" class="highcharts-point"></path><path fill="rgb(111,111,111)" d="M 380.5 129.5 L 385.5 129.5 A 3 3 0 0 1 388.5 132.5 L 388.5 149.5 A 0 0 0 0 1 388.5 149.5 L 377.5 149.5 A 0 0 0 0 1 377.5 149.5 L 377.5 132.5 A 3 3 0 0 1 380.5 129.5 Z" stroke="#ffffff" stroke-width="1" opacity="1" filter="none" class="highcharts-point"></path><path fill="rgb(111,111,111)" d="M 421.5 129.5 L 426.5 129.5 A 3 3 0 0 1 429.5 132.5 L 429.5 149.5 A 0 0 0 0 1 429.5 149.5 L 418.5 149.5 A 0 0 0 0 1 418.5 149.5 L 418.5 132.5 A 3 3 0 0 1 421.5 129.5 Z" stroke="#ffffff" stroke-width="1" opacity="1" filter="none" class="highcharts-point"></path><path fill="rgb(111,111,111)" d="M 458.5 89.5 L 463.5 89.5 A 3 3 0 0 1 466.5 92.5 L 466.5 149.5 A 0 0 0 0 1 466.5 149.5 L 455.5 149.5 A 0 0 0 0 1 455.5 149.5 L 455.5 92.5 A 3 3 0 0 1 458.5 89.5 Z" stroke="#ffffff" stroke-width="1" opacity="1" filter="none" class="highcharts-point"></path><path fill="rgb(111,111,111)" d="M 499.5 29.5 L 504.5 29.5 A 3 3 0 0 1 507.5 32.5 L 507.5 149.5 A 0 0 0 0 1 507.5 149.5 L 496.5 149.5 A 0 0 0 0 1 496.5 149.5 L 496.5 32.5 A 3 3 0 0 1 499.5 29.5 Z" stroke="#ffffff" stroke-width="1" opacity="1" filter="none" class="highcharts-point"></path></g><g class="highcharts-markers highcharts-series-0 highcharts-column-series" data-z-index="0.1" opacity="1" transform="translate(59,83) scale(1 1)" clip-path="none"></g><g class="highcharts-series highcharts-series-1 highcharts-column-series highcharts-tracker" data-z-index="0.1" opacity="1" transform="translate(59,83) scale(1 1)" clip-path="url(#highcharts-vt8b1sj-201-)"><path fill="rgb(176,0,0)" d="M 26.5 149.5 L 31.5 149.5 A 3 3 0 0 1 31.5 149.5 L 31.5 149.5 A 0 0 0 0 1 31.5 149.5 L 31.5 149.5 A 0 0 0 0 1 26.5 149.5 L 26.5 149.5 A 3 3 0 0 1 26.5 149.5 Z" stroke="#ffffff" stroke-width="1" opacity="1" filter="none" class="highcharts-point"></path><path fill="rgb(176,0,0)" d="M 63.5 149.5 L 74.5 149.5 A 0 0 0 0 1 74.5 149.5 L 74.5 166.5 A 3 3 0 0 1 71.5 169.5 L 66.5 169.5 A 3 3 0 0 1 63.5 166.5 L 63.5 149.5 A 0 0 0 0 1 63.5 149.5 Z" stroke="#ffffff" stroke-width="1" opacity="1" filter="none" class="highcharts-point highcharts-negative"></path><path fill="rgb(176,0,0)" d="M 107.5 129.5 L 112.5 129.5 A 3 3 0 0 1 115.5 132.5 L 115.5 149.5 A 0 0 0 0 1 115.5 149.5 L 104.5 149.5 A 0 0 0 0 1 104.5 149.5 L 104.5 132.5 A 3 3 0 0 1 107.5 129.5 Z" stroke="#ffffff" stroke-width="1" opacity="1" filter="none" class="highcharts-point"></path><path fill="rgb(176,0,0)" d="M 147.5 109.5 L 152.5 109.5 A 3 3 0 0 1 155.5 112.5 L 155.5 149.5 A 0 0 0 0 1 155.5 149.5 L 144.5 149.5 A 0 0 0 0 1 144.5 149.5 L 144.5 112.5 A 3 3 0 0 1 147.5 109.5 Z" stroke="#ffffff" stroke-width="1" opacity="1" filter="none" class="highcharts-point"></path><path fill="rgb(176,0,0)" d="M 188.5 109.5 L 193.5 109.5 A 3 3 0 0 1 196.5 112.5 L 196.5 149.5 A 0 0 0 0 1 196.5 149.5 L 185.5 149.5 A 0 0 0 0 1 185.5 149.5 L 185.5 112.5 A 3 3 0 0 1 188.5 109.5 Z" stroke="#ffffff" stroke-width="1" opacity="1" filter="none" class="highcharts-point"></path><path fill="rgb(176,0,0)" d="M 229.5 109.5 L 234.5 109.5 A 3 3 0 0 1 237.5 112.5 L 237.5 149.5 A 0 0 0 0 1 237.5 149.5 L 226.5 149.5 A 0 0 0 0 1 226.5 149.5 L 226.5 112.5 A 3 3 0 0 1 229.5 109.5 Z" stroke="#ffffff" stroke-width="1" opacity="1" filter="none" class="highcharts-point"></path><path fill="rgb(176,0,0)" d="M 269.5 129.5 L 274.5 129.5 A 3 3 0 0 1 277.5 132.5 L 277.5 149.5 A 0 0 0 0 1 277.5 149.5 L 266.5 149.5 A 0 0 0 0 1 266.5 149.5 L 266.5 132.5 A 3 3 0 0 1 269.5 129.5 Z" stroke="#ffffff" stroke-width="1" opacity="1" filter="none" class="highcharts-point"></path><path fill="rgb(176,0,0)" d="M 310.5 149.5 L 315.5 149.5 A 3 3 0 0 1 315.5 149.5 L 315.5 149.5 A 0 0 0 0 1 315.5 149.5 L 315.5 149.5 A 0 0 0 0 1 310.5 149.5 L 310.5 149.5 A 3 3 0 0 1 310.5 149.5 Z" stroke="#ffffff" stroke-width="1" opacity="1" filter="none" class="highcharts-point"></path><path fill="rgb(176,0,0)" d="M 350.5 129.5 L 355.5 129.5 A 3 3 0 0 1 358.5 132.5 L 358.5 149.5 A 0 0 0 0 1 358.5 149.5 L 347.5 149.5 A 0 0 0 0 1 347.5 149.5 L 347.5 132.5 A 3 3 0 0 1 350.5 129.5 Z" stroke="#ffffff" stroke-width="1" opacity="1" filter="none" class="highcharts-point"></path><path fill="rgb(176,0,0)" d="M 391.5 129.5 L 396.5 129.5 A 3 3 0 0 1 399.5 132.5 L 399.5 149.5 A 0 0 0 0 1 399.5 149.5 L 388.5 149.5 A 0 0 0 0 1 388.5 149.5 L 388.5 132.5 A 3 3 0 0 1 391.5 129.5 Z" stroke="#ffffff" stroke-width="1" opacity="1" filter="none" class="highcharts-point"></path><path fill="rgb(176,0,0)" d="M 432.5 129.5 L 437.5 129.5 A 3 3 0 0 1 440.5 132.5 L 440.5 149.5 A 0 0 0 0 1 440.5 149.5 L 429.5 149.5 A 0 0 0 0 1 429.5 149.5 L 429.5 132.5 A 3 3 0 0 1 432.5 129.5 Z" stroke="#ffffff" stroke-width="1" opacity="1" filter="none" class="highcharts-point"></path><path fill="rgb(176,0,0)" d="M 469.5 89.5 L 474.5 89.5 A 3 3 0 0 1 477.5 92.5 L 477.5 149.5 A 0 0 0 0 1 477.5 149.5 L 466.5 149.5 A 0 0 0 0 1 466.5 149.5 L 466.5 92.5 A 3 3 0 0 1 469.5 89.5 Z" stroke="#ffffff" stroke-width="1" opacity="1" filter="none" class="highcharts-point"></path><path fill="rgb(176,0,0)" d="M 510.5 29.5 L 515.5 29.5 A 3 3 0 0 1 518.5 32.5 L 518.5 149.5 A 0 0 0 0 1 518.5 149.5 L 507.5 149.5 A 0 0 0 0 1 507.5 149.5 L 507.5 32.5 A 3 3 0 0 1 510.5 29.5 Z" stroke="#ffffff" stroke-width="1" opacity="1" filter="none" class="highcharts-point"></path></g><g class="highcharts-markers highcharts-series-1 highcharts-column-series" data-z-index="0.1" opacity="1" transform="translate(59,83) scale(1 1)" clip-path="none"></g></g><text x="10" text-anchor="start" class="highcharts-caption" data-z-index="4" style="font-size: 0.8em; fill: rgb(102, 102, 102);" text-align="left" y="347" transform-origin="10 15" transform="translate(0,0) scale(1 1)"></text><g class="highcharts-axis-labels highcharts-xaxis-labels" data-z-index="7"><text x="85.13070041977518" text-anchor="end" transform="translate(0,0) rotate(-45 85.13070041977518 305)" style="cursor: default; font-size: 0.8em; fill: rgb(0, 0, 0);" y="305" opacity="1">Apr 25</text><text x="124.92585405454618" text-anchor="end" transform="translate(0,0) rotate(-45 124.92585405454618 305)" style="cursor: default; font-size: 0.8em; fill: rgb(0, 0, 0);" y="305" opacity="1">May</text><text x="166.04751281048618" text-anchor="end" transform="translate(0,0) rotate(-45 166.04751281048618 305)" style="cursor: default; font-size: 0.8em; fill: rgb(0, 0, 0);" y="305" opacity="1">Jun</text><text x="205.84266644525619" text-anchor="end" transform="translate(0,0) rotate(-45 205.84266644525619 305)" style="cursor: default; font-size: 0.8em; fill: rgb(0, 0, 0);" y="305" opacity="1">Jul</text><text x="246.96432520118617" text-anchor="end" transform="translate(0,0) rotate(-45 246.96432520118617 305)" style="cursor: default; font-size: 0.8em; fill: rgb(0, 0, 0);" y="305" opacity="1">Aug</text><text x="288.0859839571262" text-anchor="end" transform="translate(0,0) rotate(-45 288.0859839571262 305)" style="cursor: default; font-size: 0.8em; fill: rgb(0, 0, 0);" y="305" opacity="1">Sep</text><text x="327.8811375918962" text-anchor="end" transform="translate(0,0) rotate(-45 327.8811375918962 305)" style="cursor: default; font-size: 0.8em; fill: rgb(0, 0, 0);" y="305" opacity="1">Oct</text><text x="369.00279634782623" text-anchor="end" transform="translate(0,0) rotate(-45 369.00279634782623 305)" style="cursor: default; font-size: 0.8em; fill: rgb(0, 0, 0);" y="305" opacity="1">Nov</text><text x="408.7979499826062" text-anchor="end" transform="translate(0,0) rotate(-45 408.7979499826062 305)" style="cursor: default; font-size: 0.8em; fill: rgb(0, 0, 0);" y="305" opacity="1">Dec</text><text x="449.9196087385362" text-anchor="end" transform="translate(0,0) rotate(-45 449.9196087385362 305)" style="cursor: default; font-size: 0.8em; fill: rgb(0, 0, 0);" y="305" opacity="1">Jan</text><text x="491.04126749446624" text-anchor="end" transform="translate(0,0) rotate(-45 491.04126749446624 305)" style="cursor: default; font-size: 0.8em; fill: rgb(0, 0, 0);" y="305" opacity="1">Feb</text><text x="528.1834108869263" text-anchor="end" transform="translate(0,0) rotate(-45 528.1834108869263 305)" style="cursor: default; font-size: 0.8em; fill: rgb(0, 0, 0);" y="305" opacity="1">Mar</text><text x="569.3050696428562" text-anchor="end" transform="translate(0,0) rotate(-45 569.3050696428562 305)" style="cursor: default; font-size: 0.8em; fill: rgb(0, 0, 0);" y="305" opacity="1">Apr 26</text></g><g class="highcharts-axis-labels highcharts-yaxis-labels" data-z-index="7"><text x="44" text-anchor="end" transform="translate(0,0)" style="cursor: default; font-size: 0.8em; fill: rgb(0, 0, 0);" y="287" opacity="1">-0.3%</text><text x="44" text-anchor="end" transform="translate(0,0)" style="cursor: default; font-size: 0.8em; fill: rgb(0, 0, 0);" y="237" opacity="1">0.0%</text><text x="44" text-anchor="end" transform="translate(0,0)" style="cursor: default; font-size: 0.8em; fill: rgb(0, 0, 0);" y="187" opacity="1">0.3%</text><text x="44" text-anchor="end" transform="translate(0,0)" style="cursor: default; font-size: 0.8em; fill: rgb(0, 0, 0);" y="137" opacity="1">0.5%</text><text x="44" text-anchor="end" transform="translate(0,0)" style="cursor: default; font-size: 0.8em; fill: rgb(0, 0, 0);" y="88" opacity="1">0.8%</text></g><g class="highcharts-legend highcharts-no-tooltip" data-z-index="7" text-align="left" transform="translate(51,41)"><rect fill="none" class="highcharts-legend-box" rx="0" ry="0" stroke="#999999" stroke-width="0" filter="none" x="0" y="0" width="223" height="30"></rect><g data-z-index="1"><g><g class="highcharts-legend-item highcharts-column-series highcharts-color-undefined highcharts-series-0" data-z-index="1" transform="translate(8,3)"><text x="21" text-anchor="start" data-z-index="2" style="cursor: pointer; font-size: 0.8em; text-decoration: none; font-weight: normal; fill: rgb(51, 51, 51);" y="17">Basler Index</text><rect x="2" y="6" rx="0" ry="0" width="12" height="12" fill="rgb(111,111,111)" class="highcharts-point" data-z-index="3"></rect></g><g class="highcharts-legend-item highcharts-column-series highcharts-color-undefined highcharts-series-1" data-z-index="1" transform="translate(120.74993896484375,3)"><text x="21" y="17" text-anchor="start" data-z-index="2" style="cursor: pointer; font-size: 0.8em; text-decoration: none; font-weight: normal; fill: rgb(51, 51, 51);">Landesindex</text><rect x="2" y="6" rx="0" ry="0" width="12" height="12" fill="rgb(176,0,0)" class="highcharts-point" data-z-index="3"></rect></g></g></g></g></svg>