<?xml version="1.0" standalone="no"?><!DOCTYPE svg PUBLIC "-//W3C//DTD SVG 1.1//EN" "http://www.w3.org/Graphics/SVG/1.1/DTD/svg11.dtd"><svg xmlns:xlink="http://www.w3.org/1999/xlink" version="1.1" class="highcharts-root" style="font-family:Arial;font-size:12px;" xmlns="http://www.w3.org/2000/svg" viewBox="0 0 485 415"><desc>Created with Highcharts 8.2.0</desc><defs><clipPath id="highcharts-hasqy91-33-"><rect x="0" y="0" width="411" height="243" fill="none"></rect></clipPath><clipPath id="highcharts-hasqy91-47-"><rect x="0" y="0" width="411" height="243" fill="none"></rect></clipPath><clipPath id="highcharts-hasqy91-61-"><rect x="54" y="79" width="411" height="243" fill="none"></rect></clipPath></defs><rect fill="#fbfbfb" class="highcharts-background" x="0" y="0" width="485" height="428" rx="0" ry="0"></rect><rect fill="none" class="highcharts-plot-background" x="54" y="79" width="411" height="243"></rect><g class="highcharts-pane-group" data-z-index="0"></g><g class="highcharts-grid highcharts-xaxis-grid" data-z-index="1"><path fill="none" data-z-index="1" class="highcharts-grid-line" d="M 71.5 79 L 71.5 322" opacity="1"></path><path fill="none" data-z-index="1" class="highcharts-grid-line" d="M 103.5 79 L 103.5 322" opacity="1"></path><path fill="none" data-z-index="1" class="highcharts-grid-line" d="M 134.5 79 L 134.5 322" opacity="1"></path><path fill="none" data-z-index="1" class="highcharts-grid-line" d="M 166.5 79 L 166.5 322" opacity="1"></path><path fill="none" data-z-index="1" class="highcharts-grid-line" d="M 196.5 79 L 196.5 322" opacity="1"></path><path fill="none" data-z-index="1" class="highcharts-grid-line" d="M 228.5 79 L 228.5 322" opacity="1"></path><path fill="none" data-z-index="1" class="highcharts-grid-line" d="M 260.5 79 L 260.5 322" opacity="1"></path><path fill="none" data-z-index="1" class="highcharts-grid-line" d="M 291.5 79 L 291.5 322" opacity="1"></path><path fill="none" data-z-index="1" class="highcharts-grid-line" d="M 323.5 79 L 323.5 322" opacity="1"></path><path fill="none" data-z-index="1" class="highcharts-grid-line" d="M 353.5 79 L 353.5 322" opacity="1"></path><path fill="none" data-z-index="1" class="highcharts-grid-line" d="M 385.5 79 L 385.5 322" opacity="1"></path><path fill="none" data-z-index="1" class="highcharts-grid-line" d="M 417.5 79 L 417.5 322" opacity="1"></path><path fill="none" data-z-index="1" class="highcharts-grid-line" d="M 446.5 79 L 446.5 322" opacity="1"></path></g><g class="highcharts-grid highcharts-yaxis-grid" data-z-index="1"><path fill="none" stroke="#B9CFD7" stroke-width="0.5" data-z-index="1" class="highcharts-grid-line" d="M 54 322.25 L 465 322.25" opacity="1"></path><path fill="none" stroke="#B9CFD7" stroke-width="0.5" data-z-index="1" class="highcharts-grid-line" d="M 54 241.25 L 465 241.25" opacity="1"></path><path fill="none" stroke="#B9CFD7" stroke-width="0.5" data-z-index="1" class="highcharts-grid-line" d="M 54 160.25 L 465 160.25" opacity="1"></path><path fill="none" stroke="#B9CFD7" stroke-width="0.5" data-z-index="1" class="highcharts-grid-line" d="M 54 78.75 L 465 78.75" opacity="1"></path></g><rect fill="none" class="highcharts-plot-border" data-z-index="1" x="54" y="79" width="411" height="243"></rect><g class="highcharts-axis highcharts-xaxis" data-z-index="2"><path fill="none" class="highcharts-axis-line" stroke="#B9CFD7" stroke-width="0.5" data-z-index="7" d="M 54 322.25 L 465 322.25"></path></g><g class="highcharts-axis highcharts-yaxis" data-z-index="2"><path fill="none" class="highcharts-axis-line" data-z-index="7" d="M 54 79 L 54 322"></path></g><g class="highcharts-series-group" data-z-index="3"><g class="highcharts-series highcharts-series-0 highcharts-column-series" data-z-index="0.1" opacity="1" transform="translate(54,79) scale(1 1)" clip-path="url(#highcharts-hasqy91-47-)"><rect x="8.5" y="-0.5" width="9" height="82" fill="rgb(111,111,111)" stroke="#ffffff" stroke-width="1" opacity="1" class="highcharts-point highcharts-negative"></rect><rect x="40.5" y="-0.5" width="9" height="163" fill="rgb(111,111,111)" stroke="#ffffff" stroke-width="1" opacity="1" class="highcharts-point highcharts-negative"></rect><rect x="71.5" y="-0.5" width="9" height="195" fill="rgb(111,111,111)" stroke="#ffffff" stroke-width="1" opacity="1" class="highcharts-point highcharts-negative"></rect><rect x="103.5" y="-0.5" width="9" height="195" fill="rgb(111,111,111)" stroke="#ffffff" stroke-width="1" opacity="1" class="highcharts-point highcharts-negative"></rect><rect x="134.5" y="-0.5" width="8" height="131" fill="rgb(111,111,111)" stroke="#ffffff" stroke-width="1" opacity="1" class="highcharts-point highcharts-negative"></rect><rect x="166.5" y="-0.5" width="8" height="114" fill="rgb(111,111,111)" stroke="#ffffff" stroke-width="1" opacity="1" class="highcharts-point highcharts-negative"></rect><rect x="197.5" y="-0.5" width="9" height="114" fill="rgb(111,111,111)" stroke="#ffffff" stroke-width="1" opacity="1" class="highcharts-point highcharts-negative"></rect><rect x="228.5" y="-0.5" width="9" height="66" fill="rgb(111,111,111)" stroke="#ffffff" stroke-width="1" opacity="1" class="highcharts-point highcharts-negative"></rect><rect x="260.5" y="-0.5" width="9" height="82" fill="rgb(111,111,111)" stroke="#ffffff" stroke-width="1" opacity="1" class="highcharts-point highcharts-negative"></rect><rect x="291.5" y="-0.5" width="8" height="98" fill="rgb(111,111,111)" stroke="#ffffff" stroke-width="1" opacity="1" class="highcharts-point highcharts-negative"></rect><rect x="323.5" y="-0.5" width="8" height="50" fill="rgb(111,111,111)" stroke="#ffffff" stroke-width="1" opacity="1" class="highcharts-point highcharts-negative"></rect><rect x="355.5" y="-0.5" width="8" height="50" fill="rgb(111,111,111)" stroke="#ffffff" stroke-width="1" opacity="1" class="highcharts-point highcharts-negative"></rect><rect x="383.5" y="-0.5" width="9" height="17" fill="rgb(111,111,111)" stroke="#ffffff" stroke-width="1" opacity="1" class="highcharts-point highcharts-negative"></rect></g><g class="highcharts-markers highcharts-series-0 highcharts-column-series" data-z-index="0.1" opacity="1" transform="translate(54,79) scale(1 1)" clip-path="none"></g><g class="highcharts-series highcharts-series-1 highcharts-column-series" data-z-index="0.1" opacity="1" transform="translate(54,79) scale(1 1)" clip-path="url(#highcharts-hasqy91-47-)"><rect x="17.5" y="-0.5" width="9" height="82" fill="rgb(176,0,0)" stroke="#ffffff" stroke-width="1" opacity="1" class="highcharts-point highcharts-negative"></rect><rect x="49.5" y="-0.5" width="9" height="179" fill="rgb(176,0,0)" stroke="#ffffff" stroke-width="1" opacity="1" class="highcharts-point highcharts-negative"></rect><rect x="80.5" y="-0.5" width="8" height="212" fill="rgb(176,0,0)" stroke="#ffffff" stroke-width="1" opacity="1" class="highcharts-point highcharts-negative"></rect><rect x="112.5" y="-0.5" width="8" height="212" fill="rgb(176,0,0)" stroke="#ffffff" stroke-width="1" opacity="1" class="highcharts-point highcharts-negative"></rect><rect x="142.5" y="-0.5" width="9" height="147" fill="rgb(176,0,0)" stroke="#ffffff" stroke-width="1" opacity="1" class="highcharts-point highcharts-negative"></rect><rect x="174.5" y="-0.5" width="9" height="147" fill="rgb(176,0,0)" stroke="#ffffff" stroke-width="1" opacity="1" class="highcharts-point highcharts-negative"></rect><rect x="206.5" y="-0.5" width="9" height="131" fill="rgb(176,0,0)" stroke="#ffffff" stroke-width="1" opacity="1" class="highcharts-point highcharts-negative"></rect><rect x="237.5" y="-0.5" width="9" height="98" fill="rgb(176,0,0)" stroke="#ffffff" stroke-width="1" opacity="1" class="highcharts-point highcharts-negative"></rect><rect x="269.5" y="-0.5" width="8" height="114" fill="rgb(176,0,0)" stroke="#ffffff" stroke-width="1" opacity="1" class="highcharts-point highcharts-negative"></rect><rect x="299.5" y="-0.5" width="9" height="131" fill="rgb(176,0,0)" stroke="#ffffff" stroke-width="1" opacity="1" class="highcharts-point highcharts-negative"></rect><rect x="331.5" y="-0.5" width="9" height="82" fill="rgb(176,0,0)" stroke="#ffffff" stroke-width="1" opacity="1" class="highcharts-point highcharts-negative"></rect><rect x="363.5" y="-0.5" width="9" height="82" fill="rgb(176,0,0)" stroke="#ffffff" stroke-width="1" opacity="1" class="highcharts-point highcharts-negative"></rect><rect x="392.5" y="-0.5" width="9" height="33" fill="rgb(176,0,0)" stroke="#ffffff" stroke-width="1" opacity="1" class="highcharts-point highcharts-negative"></rect></g><g class="highcharts-markers highcharts-series-1 highcharts-column-series" data-z-index="0.1" opacity="1" transform="translate(54,79) scale(1 1)" clip-path="none"></g></g><text x="10" text-anchor="start" class="highcharts-title" data-z-index="4" style="color:#000000;font-size:14px;font-weight:bold;fill:#000000;" y="21"><tspan>Jahresteuerung Basler Index und Landesindex</tspan></text><text x="10" text-anchor="start" class="highcharts-subtitle" data-z-index="4" style="color:#000000;font-size:12px;font-weight:normal;fill:#000000;" y="40"></text><text x="10" text-anchor="start" class="highcharts-caption" data-z-index="4" style="color:#666666;fill:#666666;" y="375"></text><g class="highcharts-legend" data-z-index="7" transform="translate(46,41)"><rect fill="none" class="highcharts-legend-box" rx="0" ry="0" x="0" y="0" width="217" height="26" visibility="visible"></rect><g data-z-index="1"><g><g class="highcharts-legend-item highcharts-column-series highcharts-color-undefined highcharts-series-0" data-z-index="1" transform="translate(8,3)"><text x="21" style="color:#333333;cursor:pointer;font-size:12px;font-weight:normal;fill:#333333;" text-anchor="start" data-z-index="2" y="15"><tspan>Basler Index</tspan></text><rect x="2" y="4" width="12" height="12" fill="rgb(111,111,111)" class="highcharts-point" data-z-index="3"></rect></g><g class="highcharts-legend-item highcharts-column-series highcharts-color-undefined highcharts-series-1" data-z-index="1" transform="translate(117,3)"><text x="21" y="15" style="color:#333333;cursor:pointer;font-size:12px;font-weight:normal;fill:#333333;" text-anchor="start" data-z-index="2"><tspan>Landesindex</tspan></text><rect x="2" y="4" width="12" height="12" fill="rgb(176,0,0)" class="highcharts-point" data-z-index="3"></rect></g></g></g></g><g class="highcharts-axis-labels highcharts-xaxis-labels" data-z-index="7"><text x="74.67172811191467" style="color:#000000;cursor:default;font-size:11px;fill:#000000;" text-anchor="end" transform="translate(0,0) rotate(-45 74.67172811191467 338)" y="338" opacity="1"><tspan>Mar 20</tspan></text><text x="106.50035664052068" style="color:#000000;cursor:default;font-size:11px;fill:#000000;" text-anchor="end" transform="translate(0,0) rotate(-45 106.50035664052068 338)" y="338" opacity="1">Apr</text><text x="137.30225521659068" style="color:#000000;cursor:default;font-size:11px;fill:#000000;" text-anchor="end" transform="translate(0,0) rotate(-45 137.30225521659068 338)" y="338" opacity="1">May</text><text x="169.1308837451907" style="color:#000000;cursor:default;font-size:11px;fill:#000000;" text-anchor="end" transform="translate(0,0) rotate(-45 169.1308837451907 338)" y="338" opacity="1">Jun</text><text x="199.93278232126067" style="color:#000000;cursor:default;font-size:11px;fill:#000000;" text-anchor="end" transform="translate(0,0) rotate(-45 199.93278232126067 338)" y="338" opacity="1">Jul</text><text x="231.76141084986068" style="color:#000000;cursor:default;font-size:11px;fill:#000000;" text-anchor="end" transform="translate(0,0) rotate(-45 231.76141084986068 338)" y="338" opacity="1">Aug</text><text x="263.59003937846063" style="color:#000000;cursor:default;font-size:11px;fill:#000000;" text-anchor="end" transform="translate(0,0) rotate(-45 263.59003937846063 338)" y="338" opacity="1">Sep</text><text x="294.39193795453065" style="color:#000000;cursor:default;font-size:11px;fill:#000000;" text-anchor="end" transform="translate(0,0) rotate(-45 294.39193795453065 338)" y="338" opacity="1">Oct</text><text x="326.22056648314066" style="color:#000000;cursor:default;font-size:11px;fill:#000000;" text-anchor="end" transform="translate(0,0) rotate(-45 326.22056648314066 338)" y="338" opacity="1">Nov</text><text x="357.02246505920067" style="color:#000000;cursor:default;font-size:11px;fill:#000000;" text-anchor="end" transform="translate(0,0) rotate(-45 357.02246505920067 338)" y="338" opacity="1">Dec</text><text x="388.8510935878107" style="color:#000000;cursor:default;font-size:11px;fill:#000000;" text-anchor="end" transform="translate(0,0) rotate(-45 388.8510935878107 338)" y="338" opacity="1">Jan</text><text x="420.67972211641063" style="color:#000000;cursor:default;font-size:11px;fill:#000000;" text-anchor="end" transform="translate(0,0) rotate(-45 420.67972211641063 338)" y="338" opacity="1">Feb</text><text x="449.42816078741066" style="color:#000000;cursor:default;font-size:11px;fill:#000000;" text-anchor="end" transform="translate(0,0) rotate(-45 449.42816078741066 338)" y="338" opacity="1"><tspan>Mar 21</tspan></text></g><g class="highcharts-axis-labels highcharts-yaxis-labels" data-z-index="7"><text x="39" style="color:#000000;cursor:default;font-size:11px;fill:#000000;" text-anchor="end" transform="translate(0,0)" y="326" opacity="1">-1.5%</text><text x="39" style="color:#000000;cursor:default;font-size:11px;fill:#000000;" text-anchor="end" transform="translate(0,0)" y="245" opacity="1">-1.0%</text><text x="39" style="color:#000000;cursor:default;font-size:11px;fill:#000000;" text-anchor="end" transform="translate(0,0)" y="164" opacity="1">-0.5%</text><text x="39" style="color:#000000;cursor:default;font-size:11px;fill:#000000;" text-anchor="end" transform="translate(0,0)" y="83" opacity="1">0.0%</text></g><text x="10" class="highcharts-credits" text-anchor="start" data-z-index="8" style="cursor:default;color:#000000;font-size:10px;fill:#000000;" y="393"><tspan>Quelle: Statistisches Amt Basel-Stadt;</tspan><tspan x="10" dy="13">Bundesamt für Statistik (BFS).</tspan><tspan x="10" dy="13">Zuletzt geändert: 2021-4-1</tspan></text><g class="highcharts-control-points" data-z-index="99" clip-path="url(#highcharts-hasqy91-61-)"></g></svg>