<?xml version="1.0" standalone="no"?><!DOCTYPE svg PUBLIC "-//W3C//DTD SVG 1.1//EN" "http://www.w3.org/Graphics/SVG/1.1/DTD/svg11.dtd"><svg xmlns:xlink="http://www.w3.org/1999/xlink" version="1.1" class="highcharts-root" style="font-family:Arial;font-size:12px;" xmlns="http://www.w3.org/2000/svg" viewBox="0 0 485 415"><desc>Created with Highcharts 8.0.4</desc><defs><clipPath id="highcharts-jvf8bll-52-"><rect x="0" y="0" width="366" height="152" fill="none"></rect></clipPath><clipPath id="highcharts-jvf8bll-64-"><rect x="0" y="0" width="366" height="152" fill="none"></rect></clipPath><clipPath id="highcharts-jvf8bll-87-"><rect x="0" y="0" width="366" height="152" fill="none"></rect></clipPath></defs><rect fill="#fbfbfb" class="highcharts-background" x="0" y="0" width="485" height="428" rx="0" ry="0"></rect><rect fill="none" class="highcharts-plot-background" x="70" y="128" width="366" height="152"></rect><g class="highcharts-pane-group" data-z-index="0"></g><g class="highcharts-grid highcharts-xaxis-grid" data-z-index="1"><path fill="none" data-z-index="1" class="highcharts-grid-line" d="M 102.5 128 L 102.5 280" opacity="1"></path><path fill="none" data-z-index="1" class="highcharts-grid-line" d="M 136.5 128 L 136.5 280" opacity="1"></path><path fill="none" data-z-index="1" class="highcharts-grid-line" d="M 169.5 128 L 169.5 280" opacity="1"></path><path fill="none" data-z-index="1" class="highcharts-grid-line" d="M 202.5 128 L 202.5 280" opacity="1"></path><path fill="none" data-z-index="1" class="highcharts-grid-line" d="M 235.5 128 L 235.5 280" opacity="1"></path><path fill="none" data-z-index="1" class="highcharts-grid-line" d="M 269.5 128 L 269.5 280" opacity="1"></path><path fill="none" data-z-index="1" class="highcharts-grid-line" d="M 302.5 128 L 302.5 280" opacity="1"></path><path fill="none" data-z-index="1" class="highcharts-grid-line" d="M 335.5 128 L 335.5 280" opacity="1"></path><path fill="none" data-z-index="1" class="highcharts-grid-line" d="M 368.5 128 L 368.5 280" opacity="1"></path><path fill="none" data-z-index="1" class="highcharts-grid-line" d="M 402.5 128 L 402.5 280" opacity="1"></path><path fill="none" data-z-index="1" class="highcharts-grid-line" d="M 435.5 128 L 435.5 280" opacity="1"></path><path fill="none" data-z-index="1" class="highcharts-grid-line" d="M 69.5 128 L 69.5 280" opacity="1"></path></g><g class="highcharts-grid highcharts-yaxis-grid" data-z-index="1"><path fill="none" stroke="#B9CFD7" stroke-width="0.5" data-z-index="1" class="highcharts-grid-line" d="M 70 280.25 L 436 280.25" opacity="1"></path><path fill="none" stroke="#B9CFD7" stroke-width="0.5" data-z-index="1" class="highcharts-grid-line" d="M 70 250.25 L 436 250.25" opacity="1"></path><path fill="none" stroke="#B9CFD7" stroke-width="0.5" data-z-index="1" class="highcharts-grid-line" d="M 70 219.25 L 436 219.25" opacity="1"></path><path fill="none" stroke="#B9CFD7" stroke-width="0.5" data-z-index="1" class="highcharts-grid-line" d="M 70 189.25 L 436 189.25" opacity="1"></path><path fill="none" stroke="#B9CFD7" stroke-width="0.5" data-z-index="1" class="highcharts-grid-line" d="M 70 158.25 L 436 158.25" opacity="1"></path><path fill="none" stroke="#B9CFD7" stroke-width="0.5" data-z-index="1" class="highcharts-grid-line" d="M 70 127.75 L 436 127.75" opacity="1"></path></g><g class="highcharts-grid highcharts-yaxis-grid" data-z-index="1"><path fill="none" stroke="#B9CFD7" stroke-width="0.5" data-z-index="1" class="highcharts-grid-line" d="M 70 280.25 L 436 280.25" opacity="1"></path><path fill="none" stroke="#B9CFD7" stroke-width="0.5" data-z-index="1" class="highcharts-grid-line" d="M 70 250.25 L 436 250.25" opacity="1"></path><path fill="none" stroke="#B9CFD7" stroke-width="0.5" data-z-index="1" class="highcharts-grid-line" d="M 70 219.25 L 436 219.25" opacity="1"></path><path fill="none" stroke="#B9CFD7" stroke-width="0.5" data-z-index="1" class="highcharts-grid-line" d="M 70 189.25 L 436 189.25" opacity="1"></path><path fill="none" stroke="#B9CFD7" stroke-width="0.5" data-z-index="1" class="highcharts-grid-line" d="M 70 158.25 L 436 158.25" opacity="1"></path><path fill="none" stroke="#B9CFD7" stroke-width="0.5" data-z-index="1" class="highcharts-grid-line" d="M 70 127.75 L 436 127.75" opacity="1"></path></g><rect fill="none" class="highcharts-plot-border" data-z-index="1" x="70" y="128" width="366" height="152"></rect><g class="highcharts-axis highcharts-xaxis" data-z-index="2"><path fill="none" class="highcharts-axis-line" stroke="#B9CFD7" stroke-width="0.5" data-z-index="7" d="M 70 280.25 L 436 280.25"></path></g><g class="highcharts-axis highcharts-yaxis" data-z-index="2"><path fill="none" class="highcharts-axis-line" data-z-index="7" d="M 70 128 L 70 280"></path></g><g class="highcharts-axis highcharts-yaxis" data-z-index="2"><path fill="none" class="highcharts-axis-line" data-z-index="7" d="M 436 128 L 436 280"></path></g><g class="highcharts-series-group" data-z-index="3"><g data-z-index="0.1" class="highcharts-series highcharts-series-0 highcharts-column-series" transform="translate(70,128) scale(1 1)" clip-path="url(#highcharts-jvf8bll-64-)"><rect x="7" y="76" width="10" height="77" fill="rgb(168, 196, 203)" opacity="1" class="highcharts-point"></rect><rect x="40" y="102" width="10" height="51" fill="rgb(168, 196, 203)" opacity="1" class="highcharts-point"></rect><rect x="73" y="127" width="10" height="26" fill="rgb(168, 196, 203)" opacity="1" class="highcharts-point"></rect><rect x="106" y="133" width="10" height="20" fill="rgb(168, 196, 203)" opacity="1" class="highcharts-point"></rect><rect x="140" y="141" width="10" height="12" fill="rgb(168, 196, 203)" opacity="1" class="highcharts-point"></rect><rect x="173" y="142" width="10" height="11" fill="rgb(168, 196, 203)" opacity="1" class="highcharts-point"></rect><rect x="206" y="147" width="10" height="6" fill="rgb(168, 196, 203)" opacity="1" class="highcharts-point"></rect><rect x="240" y="145" width="10" height="8" fill="rgb(168, 196, 203)" opacity="1" class="highcharts-point"></rect><rect x="273" y="151" width="10" height="2" fill="rgb(168, 196, 203)" opacity="1" class="highcharts-point"></rect><rect x="306" y="150" width="10" height="3" fill="rgb(168, 196, 203)" opacity="1" class="highcharts-point"></rect><rect x="339" y="100" width="10" height="53" fill="rgb(168, 196, 203)" opacity="1" class="highcharts-point"></rect></g><g data-z-index="0.1" class="highcharts-markers highcharts-series-0 highcharts-column-series" transform="translate(70,128) scale(1 1)" clip-path="none"></g><g data-z-index="0.1" class="highcharts-series highcharts-series-1 highcharts-column-series" transform="translate(70,128) scale(1 1)" clip-path="url(#highcharts-jvf8bll-64-)"><rect x="17" y="32" width="10" height="121" fill="rgb(105, 146, 155)" opacity="1" class="highcharts-point"></rect><rect x="50" y="101" width="10" height="52" fill="rgb(105, 146, 155)" opacity="1" class="highcharts-point"></rect><rect x="83" y="117" width="10" height="36" fill="rgb(105, 146, 155)" opacity="1" class="highcharts-point"></rect><rect x="116" y="130" width="10" height="23" fill="rgb(105, 146, 155)" opacity="1" class="highcharts-point"></rect><rect x="150" y="139" width="10" height="14" fill="rgb(105, 146, 155)" opacity="1" class="highcharts-point"></rect><rect x="183" y="142" width="10" height="11" fill="rgb(105, 146, 155)" opacity="1" class="highcharts-point"></rect><rect x="216" y="144" width="10" height="9" fill="rgb(105, 146, 155)" opacity="1" class="highcharts-point"></rect><rect x="250" y="145" width="10" height="8" fill="rgb(105, 146, 155)" opacity="1" class="highcharts-point"></rect><rect x="283" y="147" width="10" height="6" fill="rgb(105, 146, 155)" opacity="1" class="highcharts-point"></rect><rect x="316" y="143" width="10" height="10" fill="rgb(105, 146, 155)" opacity="1" class="highcharts-point"></rect><rect x="349" y="82" width="10" height="71" fill="rgb(105, 146, 155)" opacity="1" class="highcharts-point"></rect></g><g data-z-index="0.1" class="highcharts-markers highcharts-series-1 highcharts-column-series" transform="translate(70,128) scale(1 1)" clip-path="none"></g><g data-z-index="0.1" class="highcharts-series highcharts-series-2 highcharts-scatter-series" transform="translate(70,128) scale(1 1)" clip-path="url(#highcharts-jvf8bll-87-)"></g><g data-z-index="0.1" class="highcharts-markers highcharts-series-2 highcharts-scatter-series" transform="translate(70,128) scale(1 1)" clip-path="none"><path fill="rgb(176, 0, 0)" d="M 16 24 L 21 29 16 34 11 29 Z" opacity="1" class="highcharts-point"></path><path fill="rgb(176, 0, 0)" d="M 49 65 L 54 70 49 75 44 70 Z" opacity="1" class="highcharts-point"></path><path fill="rgb(176, 0, 0)" d="M 83 105 L 88 110 83 115 78 110 Z" opacity="1" class="highcharts-point"></path><path fill="rgb(176, 0, 0)" d="M 116 115 L 121 120 116 125 111 120 Z" opacity="1" class="highcharts-point"></path><path fill="rgb(176, 0, 0)" d="M 149 127 L 154 132 149 137 144 132 Z" opacity="1" class="highcharts-point"></path><path fill="rgb(176, 0, 0)" d="M 183 129 L 188 134 183 139 178 134 Z" opacity="1" class="highcharts-point"></path><path fill="rgb(176, 0, 0)" d="M 216 137 L 221 142 216 147 211 142 Z" opacity="1" class="highcharts-point"></path><path fill="rgb(176, 0, 0)" d="M 249 134 L 254 139 249 144 244 139 Z" opacity="1" class="highcharts-point"></path><path fill="rgb(176, 0, 0)" d="M 282 143 L 287 148 282 153 277 148 Z" opacity="1" class="highcharts-point"></path><path fill="rgb(176, 0, 0)" d="M 316 142 L 321 147 316 152 311 147 Z" opacity="1" class="highcharts-point"></path><path fill="rgb(176, 0, 0)" d="M 349 62 L 354 67 349 72 344 67 Z" opacity="1" class="highcharts-point"></path></g><g data-z-index="0.1" class="highcharts-series highcharts-series-3 highcharts-scatter-series" transform="translate(70,128) scale(1 1)" clip-path="url(#highcharts-jvf8bll-87-)"></g><g data-z-index="0.1" class="highcharts-markers highcharts-series-3 highcharts-scatter-series" transform="translate(70,128) scale(1 1)" clip-path="none"><path fill="rgb(220, 68, 14)" d="M 16 2 L 21 7 16 12 11 7 Z" opacity="1" class="highcharts-point"></path><path fill="rgb(220, 68, 14)" d="M 49 84 L 54 89 49 94 44 89 Z" opacity="1" class="highcharts-point"></path><path fill="rgb(220, 68, 14)" d="M 83 104 L 88 109 83 114 78 109 Z" opacity="1" class="highcharts-point"></path><path fill="rgb(220, 68, 14)" d="M 116 120 L 121 125 116 130 111 125 Z" opacity="1" class="highcharts-point"></path><path fill="rgb(220, 68, 14)" d="M 149 130 L 154 135 149 140 144 135 Z" opacity="1" class="highcharts-point"></path><path fill="rgb(220, 68, 14)" d="M 183 134 L 188 139 183 144 178 139 Z" opacity="1" class="highcharts-point"></path><path fill="rgb(220, 68, 14)" d="M 216 137 L 221 142 216 147 211 142 Z" opacity="1" class="highcharts-point"></path><path fill="rgb(220, 68, 14)" d="M 249 137 L 254 142 249 147 244 142 Z" opacity="1" class="highcharts-point"></path><path fill="rgb(220, 68, 14)" d="M 282 140 L 287 145 282 150 277 145 Z" opacity="1" class="highcharts-point"></path><path fill="rgb(220, 68, 14)" d="M 316 135 L 321 140 316 145 311 140 Z" opacity="1" class="highcharts-point"></path><path fill="rgb(220, 68, 14)" d="M 349 61 L 354 66 349 71 344 66 Z" opacity="1" class="highcharts-point"></path></g></g><text x="10" text-anchor="start" class="highcharts-title" data-z-index="4" style="color:#000000;font-size:14px;font-weight:bold;fill:#000000;" y="21"><tspan>Logiernächte und Marktanteile am</tspan><tspan dy="17" x="10">Übernachtungsvolumen</tspan></text><text x="10" text-anchor="start" class="highcharts-subtitle" data-z-index="4" style="color:#000000;font-size:12px;font-weight:normal;font-family:Arial;fill:#000000;" y="57"><tspan>Basel-Stadt</tspan></text><text x="10" text-anchor="start" class="highcharts-caption" data-z-index="4" style="color:#666666;fill:#666666;" y="400"></text><g class="highcharts-legend" data-z-index="7" transform="translate(267,32)"><rect fill="none" class="highcharts-legend-box" rx="0" ry="0" x="0" y="0" width="208" height="84" visibility="visible"></rect><g data-z-index="1" transform="translate(0,35)"><g><g class="highcharts-legend-item highcharts-column-series highcharts-color-undefined highcharts-series-0" data-z-index="1" transform="translate(8,3)"><text x="21" style="color:#333333;cursor:pointer;font-size:12px;font-weight:normal;fill:#333333;" text-anchor="start" data-z-index="2" y="15"><tspan>2010</tspan><title>2010</title></text><rect x="2" y="4" width="12" height="12" fill="rgb(168, 196, 203)" class="highcharts-point" data-z-index="3"></rect></g><g class="highcharts-legend-item highcharts-column-series highcharts-color-undefined highcharts-series-1" data-z-index="1" transform="translate(78,3)"><text x="21" y="15" style="color:#333333;cursor:pointer;font-size:12px;font-weight:normal;fill:#333333;" text-anchor="start" data-z-index="2"><tspan>2019</tspan><title>2019</title></text><rect x="2" y="4" width="12" height="12" fill="rgb(105, 146, 155)" class="highcharts-point" data-z-index="3"></rect></g><g class="highcharts-legend-item highcharts-scatter-series highcharts-color-undefined highcharts-series-2" data-z-index="1" transform="translate(8,22)"><path fill="none" d="M 0 11 L 16 11" class="highcharts-graph"></path><path fill="rgb(176, 0, 0)" d="M 8 6 L 13 11 8 16 3 11 Z" class="highcharts-point" opacity="1"></path><text x="21" y="15" style="color:#333333;cursor:pointer;font-size:12px;font-weight:normal;fill:#333333;" text-anchor="start" data-z-index="2"><tspan>2010</tspan><title>2010</title></text></g><g class="highcharts-legend-item highcharts-scatter-series highcharts-color-undefined highcharts-series-3" data-z-index="1" transform="translate(78,22)"><path fill="none" d="M 0 11 L 16 11" class="highcharts-graph"></path><path fill="rgb(220, 68, 14)" d="M 8 6 L 13 11 8 16 3 11 Z" class="highcharts-point" opacity="1"></path><text x="21" y="15" style="color:#333333;cursor:pointer;font-size:12px;font-weight:normal;fill:#333333;" text-anchor="start" data-z-index="2"><tspan>2019</tspan><title>2019</title></text></g></g></g><g class="highcharts-label highcharts-legend-title" data-z-index="1" transform="translate(-215,40)"><text x="3" data-z-index="1" style="font-weight:normal;" y="15"><tspan>Logiernächte:</tspan><tspan x="3" dy="15">Marktanteile (rechte Skala):</tspan></text></g></g><g class="highcharts-axis-labels highcharts-xaxis-labels" data-z-index="7"><text x="89.22908850071703" style="color:#000000;cursor:default;font-size:11px;fill:#000000;" text-anchor="end" transform="translate(0,0) rotate(-45 89.22908850071703 296)" y="296" opacity="1">Schweiz</text><text x="122.50181577343706" style="color:#000000;cursor:default;font-size:11px;fill:#000000;" text-anchor="end" transform="translate(0,0) rotate(-45 122.50181577343706 296)" y="296" opacity="1">Deutschland</text><text x="155.77454304616705" style="color:#000000;cursor:default;font-size:11px;fill:#000000;" text-anchor="end" transform="translate(0,0) rotate(-45 155.77454304616705 296)" y="296" opacity="1"><tspan>Vereinigte Staaten</tspan></text><text x="189.04727031889706" style="color:#000000;cursor:default;font-size:11px;fill:#000000;" text-anchor="end" transform="translate(0,0) rotate(-45 189.04727031889706 296)" y="296" opacity="1"><tspan>Vereinigtes Königreich</tspan></text><text x="222.31999759162707" style="color:#000000;cursor:default;font-size:11px;fill:#000000;" text-anchor="end" transform="translate(0,0) rotate(-45 222.31999759162707 296)" y="296" opacity="1">Frankreich</text><text x="255.59272486434702" style="color:#000000;cursor:default;font-size:11px;fill:#000000;" text-anchor="end" transform="translate(0,0) rotate(-45 255.59272486434702 296)" y="296" opacity="1">Italien</text><text x="288.86545213707706" style="color:#000000;cursor:default;font-size:11px;fill:#000000;" text-anchor="end" transform="translate(0,0) rotate(-45 288.86545213707706 296)" y="296" opacity="1">Spanien</text><text x="322.13817940980704" style="color:#000000;cursor:default;font-size:11px;fill:#000000;" text-anchor="end" transform="translate(0,0) rotate(-45 322.13817940980704 296)" y="296" opacity="1">Niederlande</text><text x="355.410906682537" style="color:#000000;cursor:default;font-size:11px;fill:#000000;" text-anchor="end" transform="translate(0,0) rotate(-45 355.410906682537 296)" y="296" opacity="1">Indien</text><text x="388.68363395525705" style="color:#000000;cursor:default;font-size:11px;fill:#000000;" text-anchor="end" transform="translate(0,0) rotate(-45 388.68363395525705 296)" y="296" opacity="1"><tspan>VR China</tspan></text><text x="421.95636122798703" style="color:#000000;cursor:default;font-size:11px;fill:#000000;" text-anchor="end" transform="translate(0,0) rotate(-45 421.95636122798703 296)" y="296" opacity="1"><tspan>Übrige Länder</tspan></text></g><g class="highcharts-axis-labels highcharts-yaxis-labels" data-z-index="7"><text x="55" style="color:#000000;cursor:default;font-size:11px;fill:#000000;" text-anchor="end" transform="translate(0,0)" y="285" opacity="1">0</text><text x="55" style="color:#000000;cursor:default;font-size:11px;fill:#000000;" text-anchor="end" transform="translate(0,0)" y="254" opacity="1"><tspan>120 000</tspan></text><text x="55" style="color:#000000;cursor:default;font-size:11px;fill:#000000;" text-anchor="end" transform="translate(0,0)" y="224" opacity="1"><tspan>240 000</tspan></text><text x="55" style="color:#000000;cursor:default;font-size:11px;fill:#000000;" text-anchor="end" transform="translate(0,0)" y="193" opacity="1"><tspan>360 000</tspan></text><text x="55" style="color:#000000;cursor:default;font-size:11px;fill:#000000;" text-anchor="end" transform="translate(0,0)" y="163" opacity="1"><tspan>480 000</tspan></text><text x="55" style="color:#000000;cursor:default;font-size:11px;fill:#000000;" text-anchor="end" transform="translate(0,0)" y="133" opacity="1"><tspan>600 000</tspan></text></g><g class="highcharts-axis-labels highcharts-yaxis-labels" data-z-index="7"><text x="451" style="color:#000000;cursor:default;font-size:11px;fill:#000000;" text-anchor="start" transform="translate(0,0)" y="285" opacity="1">0%</text><text x="451" style="color:#000000;cursor:default;font-size:11px;fill:#000000;" text-anchor="start" transform="translate(0,0)" y="254" opacity="1">7%</text><text x="451" style="color:#000000;cursor:default;font-size:11px;fill:#000000;" text-anchor="start" transform="translate(0,0)" y="224" opacity="1">14%</text><text x="451" style="color:#000000;cursor:default;font-size:11px;fill:#000000;" text-anchor="start" transform="translate(0,0)" y="193" opacity="1">21%</text><text x="451" style="color:#000000;cursor:default;font-size:11px;fill:#000000;" text-anchor="start" transform="translate(0,0)" y="163" opacity="1">28%</text><text x="451" style="color:#000000;cursor:default;font-size:11px;fill:#000000;" text-anchor="start" transform="translate(0,0)" y="133" opacity="1">35%</text></g><text x="10" class="highcharts-credits" text-anchor="start" data-z-index="8" style="cursor:default;color:#000000;font-size:10px;fill:#000000;" y="403"><tspan>Quelle: Statistisches Amt Basel-Stadt, Tourismusstatistik.</tspan><tspan x="10" dy="13">Zuletzt geändert: 2020-2-17</tspan></text></svg>