<?xml version="1.0" standalone="no"?><!DOCTYPE svg PUBLIC "-//W3C//DTD SVG 1.1//EN" "http://www.w3.org/Graphics/SVG/1.1/DTD/svg11.dtd"><svg xmlns:xlink="http://www.w3.org/1999/xlink" version="1.1" class="highcharts-root" style="font-family:Inter,Helvetica Neue,Helvetica,Arial,sans-serif;font-size:12px;" xmlns="http://www.w3.org/2000/svg" width="600" height="428"><desc>Created with Highcharts 8.2.2</desc><defs><clipPath id="highcharts-ebdjnmv-194-"><rect x="0" y="0" width="488" height="227" fill="none"></rect></clipPath><clipPath id="highcharts-ebdjnmv-232-"><rect x="0" y="0" width="488" height="227" fill="none"></rect></clipPath><clipPath id="highcharts-ebdjnmv-381-"><rect x="0" y="0" width="488" height="227" fill="none"></rect></clipPath><clipPath id="highcharts-ebdjnmv-382-"><rect x="64" y="124" width="488" height="227" fill="none"></rect></clipPath></defs><rect fill="#ffffff" class="highcharts-background" x="0" y="0" width="600" height="428" rx="0" ry="0"></rect><rect fill="none" class="highcharts-plot-background" x="64" y="124" width="488" height="227"></rect><g class="highcharts-pane-group" data-z-index="0"></g><g class="highcharts-grid highcharts-xaxis-grid" data-z-index="1"><path fill="none" data-z-index="1" class="highcharts-grid-line" d="M 70.5 124 L 70.5 351" opacity="1"></path><path fill="none" data-z-index="1" class="highcharts-grid-line" d="M 109.5 124 L 109.5 351" opacity="1"></path><path fill="none" data-z-index="1" class="highcharts-grid-line" d="M 149.5 124 L 149.5 351" opacity="1"></path><path fill="none" data-z-index="1" class="highcharts-grid-line" d="M 188.5 124 L 188.5 351" opacity="1"></path><path fill="none" data-z-index="1" class="highcharts-grid-line" d="M 228.5 124 L 228.5 351" opacity="1"></path><path fill="none" data-z-index="1" class="highcharts-grid-line" d="M 267.5 124 L 267.5 351" opacity="1"></path><path fill="none" data-z-index="1" class="highcharts-grid-line" d="M 307.5 124 L 307.5 351" opacity="1"></path><path fill="none" data-z-index="1" class="highcharts-grid-line" d="M 347.5 124 L 347.5 351" opacity="1"></path><path fill="none" data-z-index="1" class="highcharts-grid-line" d="M 386.5 124 L 386.5 351" opacity="1"></path><path fill="none" data-z-index="1" class="highcharts-grid-line" d="M 426.5 124 L 426.5 351" opacity="1"></path><path fill="none" data-z-index="1" class="highcharts-grid-line" d="M 465.5 124 L 465.5 351" opacity="1"></path><path fill="none" data-z-index="1" class="highcharts-grid-line" d="M 505.5 124 L 505.5 351" opacity="1"></path><path fill="none" data-z-index="1" class="highcharts-grid-line" d="M 544.5 124 L 544.5 351" opacity="1"></path></g><g class="highcharts-grid highcharts-yaxis-grid" data-z-index="1"><path fill="none" stroke="#e6e6e6" stroke-width="1" data-z-index="1" class="highcharts-grid-line" d="M 64 351.5 L 552 351.5" opacity="1"></path><path fill="none" stroke="#e6e6e6" stroke-width="1" data-z-index="1" class="highcharts-grid-line" d="M 64 294.5 L 552 294.5" opacity="1"></path><path fill="none" stroke="#e6e6e6" stroke-width="1" data-z-index="1" class="highcharts-grid-line" d="M 64 238.5 L 552 238.5" opacity="1"></path><path fill="none" stroke="#e6e6e6" stroke-width="1" data-z-index="1" class="highcharts-grid-line" d="M 64 181.5 L 552 181.5" opacity="1"></path><path fill="none" stroke="#e6e6e6" stroke-width="1" data-z-index="1" class="highcharts-grid-line" d="M 64 123.5 L 552 123.5" opacity="1"></path></g><g class="highcharts-grid highcharts-yaxis-grid" data-z-index="1"><path fill="none" data-z-index="1" class="highcharts-grid-line" d="M 64 351.5 L 552 351.5" opacity="1"></path><path fill="none" data-z-index="1" class="highcharts-grid-line" d="M 64 294.5 L 552 294.5" opacity="1"></path><path fill="none" data-z-index="1" class="highcharts-grid-line" d="M 64 238.5 L 552 238.5" opacity="1"></path><path fill="none" data-z-index="1" class="highcharts-grid-line" d="M 64 181.5 L 552 181.5" opacity="1"></path><path fill="none" data-z-index="1" class="highcharts-grid-line" d="M 64 124.5 L 552 124.5" opacity="1"></path></g><rect fill="none" class="highcharts-plot-border" data-z-index="1" x="64" y="124" width="488" height="227"></rect><g class="highcharts-axis highcharts-xaxis" data-z-index="2"><path fill="none" class="highcharts-axis-line" stroke="#B9CFD7" stroke-width="0.5" data-z-index="7" d="M 64 351.25 L 552 351.25"></path></g><g class="highcharts-axis highcharts-yaxis" data-z-index="2"><path fill="none" class="highcharts-axis-line" data-z-index="7" d="M 64 124 L 64 351"></path></g><g class="highcharts-axis highcharts-yaxis" data-z-index="2"><path fill="none" class="highcharts-axis-line" data-z-index="7" d="M 552 124 L 552 351"></path></g><g class="highcharts-series-group" data-z-index="3"><g class="highcharts-series highcharts-series-0 highcharts-scatter-series" data-z-index="0.1" opacity="1" transform="translate(64,124) scale(1 1)" clip-path="url(#highcharts-ebdjnmv-232-)"></g><g class="highcharts-markers highcharts-series-0 highcharts-scatter-series" data-z-index="0.1" opacity="1" transform="translate(64,124) scale(1 1)" clip-path="none"><path fill="#662673" d="M 19 113 A 4 4 0 1 1 19.003999999333335 112.99999800000016 Z" opacity="1" class="highcharts-point"></path><path fill="#662673" d="M 46 94 A 4 4 0 1 1 46.00399999933334 93.99999800000016 Z" opacity="1" class="highcharts-point"></path><path fill="#662673" d="M 72 67 A 4 4 0 1 1 72.00399999933333 66.99999800000016 Z" opacity="1" class="highcharts-point"></path><path fill="#662673" d="M 98 58 A 4 4 0 1 1 98.00399999933333 57.99999800000017 Z" opacity="1" class="highcharts-point"></path><path fill="#662673" d="M 125 69 A 4 4 0 1 1 125.00399999933333 68.99999800000016 Z" opacity="1" class="highcharts-point"></path><path fill="#662673" d="M 151 69 A 4 4 0 1 1 151.00399999933333 68.99999800000016 Z" opacity="1" class="highcharts-point"></path><path fill="#662673" d="M 178 57 A 4 4 0 1 1 178.00399999933333 56.99999800000017 Z" opacity="1" class="highcharts-point"></path><path fill="#662673" d="M 204 95 A 4 4 0 1 1 204.00399999933333 94.99999800000016 Z" opacity="1" class="highcharts-point"></path><path fill="#662673" d="M 217 150 A 4 4 0 1 1 217.00399999933333 149.99999800000018 Z" opacity="1" class="highcharts-point"></path><path fill="#662673" d="M 230 106 A 4 4 0 1 1 230.00399999933333 105.99999800000016 Z" opacity="1" class="highcharts-point"></path><path fill="#662673" d="M 244 156 A 4 4 0 1 1 244.00399999933333 155.99999800000018 Z" opacity="1" class="highcharts-point"></path><path fill="#662673" d="M 257 113 A 4 4 0 1 1 257.00399999933336 112.99999800000016 Z" opacity="1" class="highcharts-point"></path><path fill="#662673" d="M 270 162 A 4 4 0 1 1 270.00399999933336 161.99999800000018 Z" opacity="1" class="highcharts-point"></path><path fill="#662673" d="M 283 125 A 4 4 0 1 1 283.00399999933336 124.99999800000016 Z" opacity="1" class="highcharts-point"></path><path fill="#662673" d="M 309 106 A 4 4 0 1 1 309.00399999933336 105.99999800000016 Z" opacity="1" class="highcharts-point"></path><path fill="#662673" d="M 336 95 A 4 4 0 1 1 336.00399999933336 94.99999800000016 Z" opacity="1" class="highcharts-point"></path><path fill="#662673" d="M 375 108 A 4 4 0 1 1 375.00399999933336 107.99999800000016 Z" opacity="1" class="highcharts-point"></path><path fill="#662673" d="M 402 100 A 4 4 0 1 1 402.00399999933336 99.99999800000016 Z" opacity="1" class="highcharts-point"></path><path fill="#662673" d="M 428 113 A 4 4 0 1 1 428.00399999933336 112.99999800000016 Z" opacity="1" class="highcharts-point"></path><path fill="#662673" d="M 455 112 A 4 4 0 1 1 455.00399999933336 111.99999800000016 Z" opacity="1" class="highcharts-point"></path><path fill="#662673" d="M 481 120 A 4 4 0 1 1 481.00399999933336 119.99999800000016 Z" opacity="1" class="highcharts-point"></path></g><g class="highcharts-series highcharts-series-1 highcharts-line-series" data-z-index="0.1" opacity="1" transform="translate(64,124) scale(1 1)" clip-path="url(#highcharts-ebdjnmv-232-)"><path fill="none" d="M 32.972972972973 139.145325 L 46.162162162162 134.784655 L 59.351351351351 123.543615 L 72.540540540541 130.16520500000001 L 85.72972972973 126.65919000000001 L 98.918918918919 122.19637 L 112.10810810811 124.21099500000001 L 125.2972972973 124.06798500000001 L 138.48648648649 129.32417 L 151.67567567568 137.25895500000001 L 164.86486486486 134.81076000000002 L 178.05405405405 135.53262 L 191.24324324324 138.64479 L 204.43243243243 142.45839 L 217.62162162162 139.86945500000002 L 230.81081081081 135.746 L 244 130.525 L 257.18918918919 128.59550000000002 L 270.37837837838 133.3625 L 283.56756756757 153.96275 L 296.75675675676 125.58775 L 309.94594594595 125.1905 L 323.13513513514 120.08300000000001 L 336.32432432432 111.57050000000001 L 349.51351351351 105.78200000000001 L 362.7027027027 120.4235 L 375.89189189189 112.7055 L 389.08108108108 109.86800000000001 L 402.27027027027 108.6195 L 415.45945945946 88.53 L 428.64864864865 93.07 L 441.83783783784 56.75 L 455.02702702703 62.42500000000001 L 468.21621621622 73.775 L 481.40540540541 73.775" class="highcharts-graph" data-z-index="1" stroke="#FFBB58" stroke-width="2" stroke-linejoin="round" stroke-linecap="round"></path></g><g class="highcharts-markers highcharts-series-1 highcharts-line-series" data-z-index="0.1" opacity="1" transform="translate(64,124) scale(1 1)" clip-path="none"></g><g class="highcharts-series highcharts-series-2 highcharts-line-series" data-z-index="0.1" opacity="1" transform="translate(64,124) scale(1 1)" clip-path="url(#highcharts-ebdjnmv-232-)"><path fill="none" d="M 6.5945945945946 171.38273 L 19.783783783784 165.549965 L 32.972972972973 171.23064 L 46.162162162162 166.14811 L 59.351351351351 165.27189 L 72.540540540541 157.350725 L 85.72972972973 158.62306 L 98.918918918919 161.04969 L 112.10810810811 158.195165 L 125.2972972973 186.83802500000002 L 138.48648648649 182.992645 L 151.67567567568 180.11315000000002 L 164.86486486486 177.05319 L 178.05405405405 170.25 L 191.24324324324 174.79000000000002 L 204.43243243243 173.655 L 217.62162162162 169.115 L 230.81081081081 167.98000000000002 L 244 166.845 L 257.18918918919 164.575 L 270.37837837838 170.25 L 283.56756756757 170.25 L 296.75675675676 167.98000000000002 L 309.94594594595 163.44 L 323.13513513514 163.44 L 336.32432432432 158.9 L 349.51351351351 158.9 L 362.7027027027 157.765 L 375.89189189189 156.0625 L 389.08108108108 153.22500000000002 L 402.27027027027 153.22500000000002 L 415.45945945946 129.39 L 428.64864864865 122.58000000000001 L 441.83783783784 115.77000000000001 L 455.02702702703 119.17500000000001 L 468.21621621622 119.17500000000001 L 481.40540540541 119.17500000000001" class="highcharts-graph" data-z-index="1" stroke="#008AC3" stroke-width="2" stroke-linejoin="round" stroke-linecap="round"></path></g><g class="highcharts-markers highcharts-series-2 highcharts-line-series" data-z-index="0.1" opacity="1" transform="translate(64,124) scale(1 1)" clip-path="none"></g><g class="highcharts-series highcharts-series-3 highcharts-scatter-series" data-z-index="0.1" opacity="1" transform="translate(64,124) scale(1 1)" clip-path="url(#highcharts-ebdjnmv-232-)"></g><g class="highcharts-markers highcharts-series-3 highcharts-scatter-series" data-z-index="0.1" opacity="1" transform="translate(64,124) scale(1 1)" clip-path="none"><path fill="#73B97C" d="M 19 161 A 4 4 0 1 1 19.003999999333335 160.99999800000018 Z" opacity="1" class="highcharts-point"></path><path fill="#73B97C" d="M 46 155 A 4 4 0 1 1 46.00399999933334 154.99999800000018 Z" opacity="1" class="highcharts-point"></path><path fill="#73B97C" d="M 72 123 A 4 4 0 1 1 72.00399999933333 122.99999800000016 Z" opacity="1" class="highcharts-point"></path><path fill="#73B97C" d="M 98 135 A 4 4 0 1 1 98.00399999933333 134.99999800000018 Z" opacity="1" class="highcharts-point"></path><path fill="#73B97C" d="M 125 136 A 4 4 0 1 1 125.00399999933333 135.99999800000018 Z" opacity="1" class="highcharts-point"></path><path fill="#73B97C" d="M 151 133 A 4 4 0 1 1 151.00399999933333 132.99999800000018 Z" opacity="1" class="highcharts-point"></path><path fill="#73B97C" d="M 178 138 A 4 4 0 1 1 178.00399999933333 137.99999800000018 Z" opacity="1" class="highcharts-point"></path><path fill="#73B97C" d="M 204 144 A 4 4 0 1 1 204.00399999933333 143.99999800000018 Z" opacity="1" class="highcharts-point"></path><path fill="#73B97C" d="M 230 140 A 4 4 0 1 1 230.00399999933333 139.99999800000018 Z" opacity="1" class="highcharts-point"></path><path fill="#73B97C" d="M 257 142 A 4 4 0 1 1 257.00399999933336 141.99999800000018 Z" opacity="1" class="highcharts-point"></path><path fill="#73B97C" d="M 283 140 A 4 4 0 1 1 283.00399999933336 139.99999800000018 Z" opacity="1" class="highcharts-point"></path><path fill="#73B97C" d="M 309 142 A 4 4 0 1 1 309.00399999933336 141.99999800000018 Z" opacity="1" class="highcharts-point"></path><path fill="#73B97C" d="M 336 140 A 4 4 0 1 1 336.00399999933336 139.99999800000018 Z" opacity="1" class="highcharts-point"></path><path fill="#73B97C" d="M 362 142 A 4 4 0 1 1 362.00399999933336 141.99999800000018 Z" opacity="1" class="highcharts-point"></path><path fill="#73B97C" d="M 389 146 A 4 4 0 1 1 389.00399999933336 145.99999800000018 Z" opacity="1" class="highcharts-point"></path><path fill="#73B97C" d="M 415 145 A 4 4 0 1 1 415.00399999933336 144.99999800000018 Z" opacity="1" class="highcharts-point"></path><path fill="#73B97C" d="M 441 150 A 4 4 0 1 1 441.00399999933336 149.99999800000018 Z" opacity="1" class="highcharts-point"></path><path fill="#73B97C" d="M 468 151 A 4 4 0 1 1 468.00399999933336 150.99999800000018 Z" opacity="1" class="highcharts-point"></path></g><g class="highcharts-series highcharts-series-4 highcharts-line-series" data-z-index="0.1" opacity="1" transform="translate(64,124) scale(1 1)" clip-path="url(#highcharts-ebdjnmv-381-)"><path fill="none" d="M 6.5945945945946 69.61333333333334 L 19.783783783784 66.20833333333334 L 32.972972972973 55.23666666666668 L 46.162162162162 62.04666666666668 L 59.351351351351 54.10166666666666 L 72.540540540541 38.968333333333334 L 85.72972972973 21.943333333333328 L 98.918918918919 46.156666666666666 L 112.10810810811 45.778333333333336 L 125.2972972973 56.75 L 138.48648648649 57.50666666666666 L 151.67567567568 68.1 L 164.86486486486 60.91166666666666 L 178.05405405405 75.66666666666666 L 191.24324324324 75.66666666666666 L 204.43243243243 75.66666666666666 L 217.62162162162 69.99166666666667 L 230.81081081081 65.07333333333332 L 244 74.53166666666667 L 257.18918918919 95.71833333333333 L 270.37837837838 86.63833333333332 L 283.56756756757 114.71066666666667 L 296.75675675676 101.23367666666667 L 309.94594594595 100.84172333333333 L 323.13513513514 99.51150333333334 L 336.32432432432 102.63729333333333 L 349.51351351351 112.586325 L 362.7027027027 112.25604 L 375.89189189189 112.92493333333333 L 389.08108108108 112.42326333333334 L 402.27027027027 111.911 L 415.45945945946 166.53325333333333 L 428.64864864865 165.08877666666666 L 441.83783783784 176.97147 L 455.02702702703 177.10048166666667 L 468.21621621622 172.38190833333334 L 481.40540540541 180.18276333333333" class="highcharts-graph" data-z-index="1" stroke="#68AB2B" stroke-width="2" stroke-linejoin="round" stroke-linecap="round"></path></g><g class="highcharts-markers highcharts-series-4 highcharts-line-series" data-z-index="0.1" opacity="1" transform="translate(64,124) scale(1 1)" clip-path="none"></g></g><text x="10" text-anchor="start" class="highcharts-caption" data-z-index="4" style="color:#666666;fill:#666666;" y="385"></text><g class="highcharts-legend" data-z-index="7" transform="translate(56,41)"><rect fill="none" class="highcharts-legend-box" rx="0" ry="0" x="0" y="0" width="408" height="71" visibility="visible"></rect><g data-z-index="1"><g><g class="highcharts-legend-item highcharts-line-series highcharts-color-undefined highcharts-series-1" data-z-index="1" transform="translate(8,3)"><path fill="none" d="M 0 11 L 16 11" class="highcharts-graph" stroke="#FFBB58" stroke-width="2"></path><text x="21" style="color:#333333;cursor:pointer;font-size:12px;font-weight:normal;fill:#333333;" text-anchor="start" data-z-index="2" y="15"><tspan>Besucher Baselworld</tspan></text></g><g class="highcharts-legend-item highcharts-scatter-series highcharts-color-undefined highcharts-series-3" data-z-index="1" transform="translate(208,3)"><path fill="none" d="M 0 11 L 16 11" class="highcharts-graph"></path><path fill="#73B97C" d="M 8 15 A 4 4 0 1 1 8.003999999333336 14.999998000000167 Z" class="highcharts-point" opacity="1"></path><text x="21" y="15" style="color:#333333;cursor:pointer;font-size:12px;font-weight:normal;fill:#333333;" text-anchor="start" data-z-index="2"><tspan>Besucher Igeho</tspan></text></g><g class="highcharts-legend-item highcharts-line-series highcharts-color-undefined highcharts-series-2" data-z-index="1" transform="translate(8,23)"><path fill="none" d="M 0 11 L 16 11" class="highcharts-graph" stroke="#008AC3" stroke-width="2"></path><text x="21" y="15" style="color:#333333;cursor:pointer;font-size:12px;font-weight:normal;fill:#333333;" text-anchor="start" data-z-index="2"><tspan>Besucher Art Basel</tspan></text></g><g class="highcharts-legend-item highcharts-scatter-series highcharts-color-undefined highcharts-series-0" data-z-index="1" transform="translate(208,23)"><path fill="none" d="M 0 11 L 16 11" class="highcharts-graph"></path><path fill="#662673" d="M 8 15 A 4 4 0 1 1 8.003999999333336 14.999998000000167 Z" class="highcharts-point" opacity="1"></path><text x="21" y="15" style="color:#333333;cursor:pointer;font-size:12px;font-weight:normal;fill:#333333;" text-anchor="start" data-z-index="2"><tspan>Besucher Swissbau</tspan></text></g><g class="highcharts-legend-item highcharts-line-series highcharts-color-undefined highcharts-series-4" data-z-index="1" transform="translate(8,43)"><path fill="none" d="M 0 11 L 16 11" class="highcharts-graph" stroke="#68AB2B" stroke-width="2"></path><text x="21" y="15" style="color:#333333;cursor:pointer;font-size:12px;font-weight:normal;fill:#333333;" text-anchor="start" data-z-index="2"><tspan>Besucher Muba (rechte Skala)</tspan></text></g></g></g></g><g class="highcharts-axis-labels highcharts-xaxis-labels" data-z-index="7"><text x="70.594594594595" style="color:#000000;cursor:default;font-size:11px;fill:#000000;" text-anchor="middle" transform="translate(0,0)" y="370" opacity="1">1982</text><text x="110.16216216216" style="color:#000000;cursor:default;font-size:11px;fill:#000000;" text-anchor="middle" transform="translate(0,0)" y="370" opacity="1">1985</text><text x="149.72972972973" style="color:#000000;cursor:default;font-size:11px;fill:#000000;" text-anchor="middle" transform="translate(0,0)" y="370" opacity="1">1988</text><text x="189.2972972973" style="color:#000000;cursor:default;font-size:11px;fill:#000000;" text-anchor="middle" transform="translate(0,0)" y="370" opacity="1">1991</text><text x="228.86486486486" style="color:#000000;cursor:default;font-size:11px;fill:#000000;" text-anchor="middle" transform="translate(0,0)" y="370" opacity="1">1994</text><text x="268.43243243243" style="color:#000000;cursor:default;font-size:11px;fill:#000000;" text-anchor="middle" transform="translate(0,0)" y="370" opacity="1">1997</text><text x="308" style="color:#000000;cursor:default;font-size:11px;fill:#000000;" text-anchor="middle" transform="translate(0,0)" y="370" opacity="1">2000</text><text x="347.56756756757" style="color:#000000;cursor:default;font-size:11px;fill:#000000;" text-anchor="middle" transform="translate(0,0)" y="370" opacity="1">2003</text><text x="387.13513513514" style="color:#000000;cursor:default;font-size:11px;fill:#000000;" text-anchor="middle" transform="translate(0,0)" y="370" opacity="1">2006</text><text x="426.7027027027" style="color:#000000;cursor:default;font-size:11px;fill:#000000;" text-anchor="middle" transform="translate(0,0)" y="370" opacity="1">2009</text><text x="466.27027027027" style="color:#000000;cursor:default;font-size:11px;fill:#000000;" text-anchor="middle" transform="translate(0,0)" y="370" opacity="1">2012</text><text x="505.83783783784" style="color:#000000;cursor:default;font-size:11px;fill:#000000;" text-anchor="middle" transform="translate(0,0)" y="370" opacity="1">2015</text><text x="545.40540540541" style="color:#000000;cursor:default;font-size:11px;fill:#000000;" text-anchor="middle" transform="translate(0,0)" y="370" opacity="1">2018</text></g><g class="highcharts-axis-labels highcharts-yaxis-labels" data-z-index="7"><text x="49" style="color:#000000;cursor:default;font-size:11px;fill:#000000;" text-anchor="end" transform="translate(0,0)" y="355" opacity="1">0</text><text x="49" style="color:#000000;cursor:default;font-size:11px;fill:#000000;" text-anchor="end" transform="translate(0,0)" y="298" opacity="1"><tspan>50 000</tspan></text><text x="49" style="color:#000000;cursor:default;font-size:11px;fill:#000000;" text-anchor="end" transform="translate(0,0)" y="242" opacity="1"><tspan>100 000</tspan></text><text x="49" style="color:#000000;cursor:default;font-size:11px;fill:#000000;" text-anchor="end" transform="translate(0,0)" y="185" opacity="1"><tspan>150 000</tspan></text><text x="49" style="color:#000000;cursor:default;font-size:11px;fill:#000000;" text-anchor="end" transform="translate(0,0)" y="128" opacity="1"><tspan>200 000</tspan></text></g><g class="highcharts-axis-labels highcharts-yaxis-labels" data-z-index="7"><text x="567" style="color:#000000;cursor:default;font-size:11px;fill:#000000;" text-anchor="start" transform="translate(0,0)" y="355" opacity="1">0</text><text x="567" style="color:#000000;cursor:default;font-size:11px;fill:#000000;" text-anchor="start" transform="translate(0,0)" y="298" opacity="1">150k</text><text x="567" style="color:#000000;cursor:default;font-size:11px;fill:#000000;" text-anchor="start" transform="translate(0,0)" y="242" opacity="1">300k</text><text x="567" style="color:#000000;cursor:default;font-size:11px;fill:#000000;" text-anchor="start" transform="translate(0,0)" y="185" opacity="1">450k</text><text x="567" style="color:#000000;cursor:default;font-size:11px;fill:#000000;" text-anchor="start" transform="translate(0,0)" y="128" opacity="1">600k</text></g></svg>