<?xml version="1.0" standalone="no"?><!DOCTYPE svg PUBLIC "-//W3C//DTD SVG 1.1//EN" "http://www.w3.org/Graphics/SVG/1.1/DTD/svg11.dtd"><svg xmlns:xlink="http://www.w3.org/1999/xlink" version="1.1" class="highcharts-root" style="font-family:Arial;font-size:12px;" xmlns="http://www.w3.org/2000/svg" viewBox="0 0 485 415"><desc>Created with Highcharts 8.1.2</desc><defs><clipPath id="highcharts-nybk4t1-27-"><rect x="0" y="0" width="465" height="314" fill="none"></rect></clipPath></defs><rect fill="#fbfbfb" class="highcharts-background" x="0" y="0" width="485" height="415" rx="0" ry="0"></rect><rect fill="none" class="highcharts-plot-background" x="10" y="56" width="465" height="314"></rect><g class="highcharts-pane-group" data-z-index="0"></g><rect fill="none" class="highcharts-plot-border" data-z-index="1" x="10" y="56" width="465" height="314"></rect><g class="highcharts-series-group" data-z-index="3"><g class="highcharts-series highcharts-series-0 highcharts-pie-series" data-z-index="0.1" opacity="1" transform="translate(10,56) scale(1 1)"><path fill="#D3E2E4" d="M 232.4745408495381 32.0000025926734 A 125 125 0 0 1 289.8668960996059 45.941280252755405 L 289.8668960996059 45.941280252755405 A 125 125 0 0 0 232.4745408495381 32.0000025926734 Z" transform="translate(0,0)" stroke="#ffffff" stroke-width="2" opacity="1" stroke-linejoin="round" class="highcharts-point highcharts-color-0"></path><path fill="#B00000" d="M 289.9779261173977 45.9987026686491 A 125 125 0 1 1 111.31184992590924 187.6338420969303 L 111.31184992590924 187.6338420969303 A 125 125 0 1 0 289.9779261173977 45.9987026686491 Z" transform="translate(0,0)" stroke="#ffffff" stroke-width="2" opacity="1" stroke-linejoin="round" class="highcharts-point highcharts-color-1"></path><path fill="#689199" d="M 111.28127668298796 187.51263865013448 A 125 125 0 0 1 138.5578664005905 74.53864217228352 L 138.5578664005905 74.53864217228352 A 125 125 0 0 0 111.28127668298796 187.51263865013448 Z" transform="translate(0,0)" stroke="#ffffff" stroke-width="2" opacity="1" stroke-linejoin="round" class="highcharts-point highcharts-color-2"></path><path fill="#DC440E" d="M 138.64037471573755 74.44474128501662 A 125 125 0 0 1 146.80351248108963 65.99938446954748 L 146.80351248108963 65.99938446954748 A 125 125 0 0 0 138.64037471573755 74.44474128501662 Z" transform="translate(0,0)" stroke="#ffffff" stroke-width="2" opacity="1" stroke-linejoin="round" class="highcharts-point highcharts-color-3"></path><path fill="#083038" d="M 146.89455592969347 65.9137334966153 A 125 125 0 0 1 232.32637750774106 32.00012057913743 L 232.32637750774106 32.00012057913743 A 125 125 0 0 0 146.89455592969347 65.9137334966153 Z" transform="translate(0,0)" stroke="#ffffff" stroke-width="2" opacity="1" stroke-linejoin="round" class="highcharts-point highcharts-color-4"></path></g><g class="highcharts-markers highcharts-series-0 highcharts-pie-series" data-z-index="0.1" opacity="1" transform="translate(10,56) scale(1 1)"></g><g class="highcharts-series highcharts-series-1 highcharts-pie-series" data-z-index="0.1" opacity="1" transform="translate(10,56) scale(1 1)"><path fill="#D3E2E4" d="M 232.4745408495381 32.0000025926734 A 125 125 0 0 1 290.19981360824477 46.113880446767325 L 255.57992544329792 112.64555217870694 A 50 50 0 0 0 232.48981633981523 107.00000103706935 Z" transform="translate(0,0)" stroke="#ffffff" stroke-width="2" opacity="1" stroke-linejoin="round" class="highcharts-point highcharts-color-0"></path><path fill="#B00000" d="M 290.3106708594126 46.171635693814096 A 125 125 0 1 1 111.28127668298796 187.51263865013448 L 184.01251067319518 169.20505546005379 A 50 50 0 1 0 255.62426834376504 112.66865427752563 Z" transform="translate(0,0)" stroke="#ffffff" stroke-width="2" opacity="1" stroke-linejoin="round" class="highcharts-point highcharts-color-1"></path><path fill="#689199" d="M 111.25082465877986 187.39140469070253 A 125 125 0 0 1 138.47545202756925 74.63262552090137 L 194.8901808110277 124.05305020836055 A 50 50 0 0 0 184.00032986351195 169.15656187628102 Z" transform="translate(0,0)" stroke="#ffffff" stroke-width="2" opacity="1" stroke-linejoin="round" class="highcharts-point highcharts-color-2"></path><path fill="#DC440E" d="M 138.5578664005905 74.53864217228352 A 125 125 0 0 1 146.6216827642807 66.17095933149375 L 198.1486731057123 120.6683837325975 A 50 50 0 0 0 194.9231465602362 124.01545686891342 Z" transform="translate(0,0)" stroke="#ffffff" stroke-width="2" opacity="1" stroke-linejoin="round" class="highcharts-point highcharts-color-3"></path><path fill="#083038" d="M 146.7125547289661 66.08512644308765 A 125 125 0 0 1 232.32637750774106 32.00012057913743 L 232.4305510030964 107.00004823165497 A 50 50 0 0 0 198.18502189158644 120.63405057723506 Z" transform="translate(0,0)" stroke="#ffffff" stroke-width="2" opacity="1" stroke-linejoin="round" class="highcharts-point highcharts-color-4"></path></g><g class="highcharts-markers highcharts-series-1 highcharts-pie-series" data-z-index="0.1" opacity="1" transform="translate(10,56) scale(1 1)"></g></g><text x="10" text-anchor="start" class="highcharts-title" data-z-index="4" style="color:#000000;font-size:14px;font-weight:bold;fill:#000000;" y="21"><tspan>Gesch채ftsleerstandsfl채che nach Nutzung</tspan></text><text x="10" text-anchor="start" class="highcharts-subtitle" data-z-index="4" style="color:#000000;font-size:12px;font-weight:normal;font-family:Arial;fill:#000000;" y="40"><tspan>Basel-Stadt, Anteile 2020</tspan></text><text x="10" text-anchor="start" class="highcharts-caption" data-z-index="4" style="color:#666666;fill:#666666;" y="382"></text><g class="highcharts-data-labels highcharts-series-0 highcharts-pie-series" data-z-index="6" opacity="1" transform="translate(10,56) scale(1 1)"><g class="highcharts-label highcharts-data-label highcharts-data-label-color-0" data-z-index="1" transform="translate(276,11)"><text x="5" data-z-index="1" y="17" style="color:black;cursor:true;font-size:12px;font-weight:normal;fill:black;"><tspan x="5" y="17" class="highcharts-text-outline" fill="black" stroke="black" stroke-width="0px" stroke-linejoin="round" style="">Laden</tspan><tspan x="5" y="17">Laden</tspan></text></g><g class="highcharts-label highcharts-data-label highcharts-data-label-color-1" data-z-index="1" transform="translate(329,257)"><text x="5" data-z-index="1" y="17" style="color:black;cursor:true;font-size:12px;font-weight:normal;fill:black;"><tspan x="5" y="17" class="highcharts-text-outline" fill="black" stroke="black" stroke-width="0px" stroke-linejoin="round" style="">B체ro</tspan><tspan x="5" y="17">B체ro</tspan></text></g><g class="highcharts-label highcharts-data-label highcharts-data-label-color-2" data-z-index="1" transform="translate(26,114)"><text x="5" data-z-index="1" y="17" style="color:black;cursor:true;font-size:12px;font-weight:normal;fill:black;"><tspan x="5" y="17" class="highcharts-text-outline" fill="black" stroke="black" stroke-width="0px" stroke-linejoin="round" style="">Gewerbe</tspan><tspan x="5" y="17">Gewerbe</tspan></text></g><g class="highcharts-label highcharts-data-label highcharts-data-label-color-3" data-z-index="1" transform="translate(53,50)"><text x="5" data-z-index="1" y="17" style="color:black;cursor:true;font-size:12px;font-weight:normal;fill:black;"><tspan x="5" y="17" class="highcharts-text-outline" fill="black" stroke="black" stroke-width="0px" stroke-linejoin="round" style="">Produktion</tspan><tspan x="5" y="17">Produktion</tspan></text></g><g class="highcharts-label highcharts-data-label highcharts-data-label-color-4" data-z-index="1" transform="translate(129,17)"><text x="5" data-z-index="1" y="17" style="color:black;cursor:true;font-size:12px;font-weight:normal;fill:black;"><tspan x="5" y="17" class="highcharts-text-outline" fill="black" stroke="black" stroke-width="0px" stroke-linejoin="round" style="">Lager</tspan><tspan x="5" y="17">Lager</tspan></text></g></g><g class="highcharts-data-labels highcharts-series-1 highcharts-pie-series" data-z-index="6" opacity="1" transform="translate(10,56) scale(1 1)"><g class="highcharts-label highcharts-data-label highcharts-data-label-color-0" data-z-index="1" transform="translate(240,60)"><text x="5" data-z-index="1" y="17" style="color:#000000;cursor:true;font-size:12px;font-weight:normal;fill:#000000;"><tspan x="5" y="17" class="highcharts-text-outline" fill="black" stroke="black" stroke-width="0px" stroke-linejoin="round" style="">8%</tspan><tspan x="5" y="17">8%</tspan></text></g><g class="highcharts-label highcharts-data-label highcharts-data-label-color-1" data-z-index="1" transform="translate(271,218)"><text x="5" data-z-index="1" y="17" style="color:#FFFFFF;cursor:true;font-size:12px;font-weight:normal;fill:#FFFFFF;"><tspan x="5" y="17" class="highcharts-text-outline" fill="black" stroke="black" stroke-width="0px" stroke-linejoin="round" style="">63%</tspan><tspan x="5" y="17">63%</tspan></text></g><g class="highcharts-label highcharts-data-label highcharts-data-label-color-2" data-z-index="1" transform="translate(128,126)"><text x="5" data-z-index="1" y="17" style="color:#FFFFFF;cursor:true;font-size:12px;font-weight:normal;fill:#FFFFFF;"><tspan x="5" y="17" class="highcharts-text-outline" fill="black" stroke="black" stroke-width="0px" stroke-linejoin="round">15%</tspan><tspan x="5" y="17">15%</tspan></text></g><g class="highcharts-label highcharts-data-label highcharts-data-label-color-3" data-z-index="1" transform="translate(154,85)"><text x="5" data-z-index="1" y="17" style="color:#FFFFFF;cursor:true;font-size:12px;font-weight:normal;fill:#FFFFFF;"><tspan x="5" y="17" class="highcharts-text-outline" fill="black" stroke="black" stroke-width="0px" stroke-linejoin="round">1%</tspan><tspan x="5" y="17">1%</tspan></text></g><g class="highcharts-label highcharts-data-label highcharts-data-label-color-4" data-z-index="1" transform="translate(182,63)"><text x="5" data-z-index="1" y="17" style="color:#FFFFFF;cursor:true;font-size:12px;font-weight:normal;fill:#FFFFFF;"><tspan x="5" y="17" class="highcharts-text-outline" fill="black" stroke="black" stroke-width="0px" stroke-linejoin="round">12%</tspan><tspan x="5" y="17">12%</tspan></text></g></g><g class="highcharts-legend" data-z-index="7"><rect fill="none" class="highcharts-legend-box" rx="0" ry="0" x="0" y="0" width="8" height="8" visibility="hidden"></rect><g data-z-index="1"><g></g></g></g><text x="10" class="highcharts-credits" text-anchor="start" data-z-index="8" style="cursor:default;color:#000000;font-size:10px;fill:#000000;" y="400"><tspan>Quelle: Leerstandserhebung.</tspan></text></svg>