<?xml version="1.0" standalone="no"?><!DOCTYPE svg PUBLIC "-//W3C//DTD SVG 1.1//EN" "http://www.w3.org/Graphics/SVG/1.1/DTD/svg11.dtd"><svg xmlns:xlink="http://www.w3.org/1999/xlink" version="1.1" class="highcharts-root" style="font-family:Inter,Helvetica Neue,Helvetica,Arial,sans-serif;font-size:12px;" xmlns="http://www.w3.org/2000/svg" width="600" height="428"><desc>Created with Highcharts 8.2.2</desc><defs><clipPath id="highcharts-hpmp2nn-47-"><rect x="0" y="0" width="538" height="252" fill="none"></rect></clipPath><clipPath id="highcharts-hpmp2nn-68-"><rect x="0" y="0" width="538" height="252" fill="none"></rect></clipPath><clipPath id="highcharts-hpmp2nn-89-"><rect x="52" y="99" width="538" height="252" fill="none"></rect></clipPath></defs><rect fill="#ffffff" class="highcharts-background" x="0" y="0" width="600" height="428" rx="0" ry="0"></rect><rect fill="none" class="highcharts-plot-background" x="52" y="99" width="538" height="252"></rect><g class="highcharts-pane-group" data-z-index="0"></g><g class="highcharts-grid highcharts-xaxis-grid" data-z-index="1"><path fill="none" data-z-index="1" class="highcharts-grid-line" d="M 56.5 99 L 56.5 351" opacity="1"></path><path fill="none" data-z-index="1" class="highcharts-grid-line" d="M 112.5 99 L 112.5 351" opacity="1"></path><path fill="none" data-z-index="1" class="highcharts-grid-line" d="M 167.5 99 L 167.5 351" opacity="1"></path><path fill="none" data-z-index="1" class="highcharts-grid-line" d="M 223.5 99 L 223.5 351" opacity="1"></path><path fill="none" data-z-index="1" class="highcharts-grid-line" d="M 278.5 99 L 278.5 351" opacity="1"></path><path fill="none" data-z-index="1" class="highcharts-grid-line" d="M 334.5 99 L 334.5 351" opacity="1"></path><path fill="none" data-z-index="1" class="highcharts-grid-line" d="M 389.5 99 L 389.5 351" opacity="1"></path><path fill="none" data-z-index="1" class="highcharts-grid-line" d="M 445.5 99 L 445.5 351" opacity="1"></path><path fill="none" data-z-index="1" class="highcharts-grid-line" d="M 500.5 99 L 500.5 351" opacity="1"></path><path fill="none" data-z-index="1" class="highcharts-grid-line" d="M 556.5 99 L 556.5 351" opacity="1"></path></g><g class="highcharts-grid highcharts-yaxis-grid" data-z-index="1"><path fill="none" stroke="#B9CFD7" stroke-width="0.5" data-z-index="1" class="highcharts-grid-line" d="M 52 351.25 L 590 351.25" opacity="1"></path><path fill="none" stroke="#B9CFD7" stroke-width="0.5" data-z-index="1" class="highcharts-grid-line" d="M 52 309.25 L 590 309.25" opacity="1"></path><path fill="none" stroke="#B9CFD7" stroke-width="0.5" data-z-index="1" class="highcharts-grid-line" d="M 52 267.25 L 590 267.25" opacity="1"></path><path fill="none" stroke="#B9CFD7" stroke-width="0.5" data-z-index="1" class="highcharts-grid-line" d="M 52 225.25 L 590 225.25" opacity="1"></path><path fill="none" stroke="#B9CFD7" stroke-width="0.5" data-z-index="1" class="highcharts-grid-line" d="M 52 183.25 L 590 183.25" opacity="1"></path><path fill="none" stroke="#B9CFD7" stroke-width="0.5" data-z-index="1" class="highcharts-grid-line" d="M 52 141.25 L 590 141.25" opacity="1"></path><path fill="none" stroke="#B9CFD7" stroke-width="0.5" data-z-index="1" class="highcharts-grid-line" d="M 52 98.75 L 590 98.75" opacity="1"></path></g><rect fill="none" class="highcharts-plot-border" data-z-index="1" x="52" y="99" width="538" height="252"></rect><g class="highcharts-axis highcharts-xaxis" data-z-index="2"><path fill="none" class="highcharts-axis-line" stroke="#B9CFD7" stroke-width="0.5" data-z-index="7" d="M 52 351.25 L 590 351.25"></path></g><g class="highcharts-axis highcharts-yaxis" data-z-index="2"><path fill="none" class="highcharts-axis-line" data-z-index="7" d="M 52 99 L 52 351"></path></g><g class="highcharts-series-group" data-z-index="3"><g class="highcharts-series highcharts-series-0 highcharts-line-series" data-z-index="0.1" opacity="1" transform="translate(52,99) scale(1 1)" clip-path="url(#highcharts-hpmp2nn-68-)"><path fill="none" d="M 5.2745098039231 64.47 L 33.0350877193 64.17599999999999 L 60.795665634676 59.891999999999996 L 88.556243550053 57.95999999999998 L 116.31682146543 54.053999999999974 L 144.07739938081 55.44 L 171.83797729618 58.127999999999986 L 199.59855521156 61.19399999999999 L 227.35913312694 56.952 L 255.11971104231 52.24799999999999 L 282.88028895769 53.38199999999998 L 310.64086687306 54.17999999999998 L 338.40144478844 50.315999999999974 L 366.16202270382 53.50799999999998 L 393.92260061919 53.339999999999975 L 421.68317853457 52.16399999999999 L 449.44375644995 54.851999999999975 L 477.20433436532 56.82599999999999 L 504.9649122807 53.67599999999999 L 532.72549019608 54.13799999999998" class="highcharts-graph" data-z-index="1" stroke="#cd9c00" stroke-width="2" stroke-linejoin="round" stroke-linecap="round"></path></g><g class="highcharts-markers highcharts-series-0 highcharts-line-series" data-z-index="0.1" opacity="1" transform="translate(52,99) scale(1 1)" clip-path="none"></g><g class="highcharts-series highcharts-series-1 highcharts-line-series" data-z-index="0.1" opacity="1" transform="translate(52,99) scale(1 1)" clip-path="url(#highcharts-hpmp2nn-68-)"><path fill="none" d="M 5.2745098039231 246.372 L 33.0350877193 245.91 L 60.795665634676 245.784 L 88.556243550053 245.49 L 116.31682146543 244.86 L 144.07739938081 235.326 L 171.83797729618 229.908 L 199.59855521156 226.548 L 227.35913312694 225.75 L 255.11971104231 225.75 L 282.88028895769 226.464 L 310.64086687306 190.554 L 338.40144478844 178.5 L 366.16202270382 173.166 L 393.92260061919 163.38 L 421.68317853457 135.072 L 449.44375644995 128.016 L 477.20433436532 127.88999999999999 L 504.9649122807 126.75599999999999 L 532.72549019608 121.506" class="highcharts-graph" data-z-index="1" stroke="#b375ab" stroke-width="2" stroke-linejoin="round" stroke-linecap="round"></path></g><g class="highcharts-markers highcharts-series-1 highcharts-line-series" data-z-index="0.1" opacity="1" transform="translate(52,99) scale(1 1)" clip-path="none"></g></g><text x="10" text-anchor="start" class="highcharts-caption" data-z-index="4" style="color:#666666;fill:#666666;" y="385"></text><g class="highcharts-legend" data-z-index="7" transform="translate(44,56)"><rect fill="none" class="highcharts-legend-box" rx="0" ry="0" x="0" y="0" width="168" height="31" visibility="visible"></rect><g data-z-index="1"><g><g class="highcharts-legend-item highcharts-line-series highcharts-color-undefined highcharts-series-0" data-z-index="1" transform="translate(8,3)"><path fill="none" d="M 0 11 L 16 11" class="highcharts-graph" stroke="#cd9c00" stroke-width="2"></path><text x="21" style="color:#333333;cursor:pointer;font-size:12px;font-weight:normal;fill:#333333;" text-anchor="start" data-z-index="2" y="15"><tspan>Messe</tspan></text></g><g class="highcharts-legend-item highcharts-line-series highcharts-color-undefined highcharts-series-1" data-z-index="1" transform="translate(86,3)"><path fill="none" d="M 0 11 L 16 11" class="highcharts-graph" stroke="#b375ab" stroke-width="2"></path><text x="21" y="15" style="color:#333333;cursor:pointer;font-size:12px;font-weight:normal;fill:#333333;" text-anchor="start" data-z-index="2"><tspan>Erlenmatt</tspan></text></g></g></g></g><g class="highcharts-axis-labels highcharts-xaxis-labels" data-z-index="7"><text x="57.274509803923" style="color:#000000;cursor:default;font-size:11px;fill:#000000;" text-anchor="middle" transform="translate(0,0)" y="370" opacity="1">2004</text><text x="112.79566563468" style="color:#000000;cursor:default;font-size:11px;fill:#000000;" text-anchor="middle" transform="translate(0,0)" y="370" opacity="1">2006</text><text x="168.31682146543" style="color:#000000;cursor:default;font-size:11px;fill:#000000;" text-anchor="middle" transform="translate(0,0)" y="370" opacity="1">2008</text><text x="223.83797729618" style="color:#000000;cursor:default;font-size:11px;fill:#000000;" text-anchor="middle" transform="translate(0,0)" y="370" opacity="1">2010</text><text x="279.35913312694" style="color:#000000;cursor:default;font-size:11px;fill:#000000;" text-anchor="middle" transform="translate(0,0)" y="370" opacity="1">2012</text><text x="334.88028895769" style="color:#000000;cursor:default;font-size:11px;fill:#000000;" text-anchor="middle" transform="translate(0,0)" y="370" opacity="1">2014</text><text x="390.40144478844" style="color:#000000;cursor:default;font-size:11px;fill:#000000;" text-anchor="middle" transform="translate(0,0)" y="370" opacity="1">2016</text><text x="445.92260061919" style="color:#000000;cursor:default;font-size:11px;fill:#000000;" text-anchor="middle" transform="translate(0,0)" y="370" opacity="1">2018</text><text x="501.44375644995" style="color:#000000;cursor:default;font-size:11px;fill:#000000;" text-anchor="middle" transform="translate(0,0)" y="370" opacity="1">2020</text><text x="556.9649122807" style="color:#000000;cursor:default;font-size:11px;fill:#000000;" text-anchor="middle" transform="translate(0,0)" y="370" opacity="1">2022</text></g><g class="highcharts-axis-labels highcharts-yaxis-labels" data-z-index="7"><text x="37" style="color:#000000;cursor:default;font-size:11px;fill:#000000;" text-anchor="end" transform="translate(0,0)" y="355" opacity="1">0</text><text x="37" style="color:#000000;cursor:default;font-size:11px;fill:#000000;" text-anchor="end" transform="translate(0,0)" y="313" opacity="1"><tspan>1 000</tspan></text><text x="37" style="color:#000000;cursor:default;font-size:11px;fill:#000000;" text-anchor="end" transform="translate(0,0)" y="271" opacity="1"><tspan>2 000</tspan></text><text x="37" style="color:#000000;cursor:default;font-size:11px;fill:#000000;" text-anchor="end" transform="translate(0,0)" y="229" opacity="1"><tspan>3 000</tspan></text><text x="37" style="color:#000000;cursor:default;font-size:11px;fill:#000000;" text-anchor="end" transform="translate(0,0)" y="187" opacity="1"><tspan>4 000</tspan></text><text x="37" style="color:#000000;cursor:default;font-size:11px;fill:#000000;" text-anchor="end" transform="translate(0,0)" y="145" opacity="1"><tspan>5 000</tspan></text><text x="37" style="color:#000000;cursor:default;font-size:11px;fill:#000000;" text-anchor="end" transform="translate(0,0)" y="103" opacity="1"><tspan>6 000</tspan></text></g></svg>