<?xml version="1.0" standalone="no"?><!DOCTYPE svg PUBLIC "-//W3C//DTD SVG 1.1//EN" "http://www.w3.org/Graphics/SVG/1.1/DTD/svg11.dtd"><svg xmlns:xlink="http://www.w3.org/1999/xlink" version="1.1" class="highcharts-root" style="font-family:Arial;font-size:12px;" xmlns="http://www.w3.org/2000/svg" viewBox="0 0 485 415"><desc>Created with Highcharts 8.0.0</desc><defs><clipPath id="highcharts-n9ic9nc-166-"><rect x="0" y="0" width="436" height="217" fill="none"></rect></clipPath><clipPath id="highcharts-n9ic9nc-187-"><rect x="0" y="0" width="436" height="217" fill="none"></rect></clipPath></defs><rect fill="#fbfbfb" class="highcharts-background" x="0" y="0" width="485" height="428" rx="0" ry="0"></rect><rect fill="none" class="highcharts-plot-background" x="39" y="135" width="436" height="217"></rect><g class="highcharts-pane-group" data-z-index="0"></g><g class="highcharts-grid highcharts-xaxis-grid" data-z-index="1"><path fill="none" data-z-index="1" class="highcharts-grid-line" d="M 65.5 135 L 65.5 352" opacity="1"></path><path fill="none" data-z-index="1" class="highcharts-grid-line" d="M 110.5 135 L 110.5 352" opacity="1"></path><path fill="none" data-z-index="1" class="highcharts-grid-line" d="M 155.5 135 L 155.5 352" opacity="1"></path><path fill="none" data-z-index="1" class="highcharts-grid-line" d="M 200.5 135 L 200.5 352" opacity="1"></path><path fill="none" data-z-index="1" class="highcharts-grid-line" d="M 245.5 135 L 245.5 352" opacity="1"></path><path fill="none" data-z-index="1" class="highcharts-grid-line" d="M 290.5 135 L 290.5 352" opacity="1"></path><path fill="none" data-z-index="1" class="highcharts-grid-line" d="M 335.5 135 L 335.5 352" opacity="1"></path><path fill="none" data-z-index="1" class="highcharts-grid-line" d="M 380.5 135 L 380.5 352" opacity="1"></path><path fill="none" data-z-index="1" class="highcharts-grid-line" d="M 425.5 135 L 425.5 352" opacity="1"></path><path fill="none" data-z-index="1" class="highcharts-grid-line" d="M 470.5 135 L 470.5 352" opacity="1"></path></g><g class="highcharts-grid highcharts-yaxis-grid" data-z-index="1"><path fill="none" stroke="#B9CFD7" stroke-width="0.5" data-z-index="1" class="highcharts-grid-line" d="M 39 352.25 L 475 352.25" opacity="1"></path><path fill="none" stroke="#B9CFD7" stroke-width="0.5" data-z-index="1" class="highcharts-grid-line" d="M 39 280.25 L 475 280.25" opacity="1"></path><path fill="none" stroke="#B9CFD7" stroke-width="0.5" data-z-index="1" class="highcharts-grid-line" d="M 39 207.25 L 475 207.25" opacity="1"></path><path fill="none" stroke="#B9CFD7" stroke-width="0.5" data-z-index="1" class="highcharts-grid-line" d="M 39 134.75 L 475 134.75" opacity="1"></path></g><rect fill="none" class="highcharts-plot-border" data-z-index="1" x="39" y="135" width="436" height="217"></rect><g class="highcharts-axis highcharts-xaxis" data-z-index="2"><path fill="none" class="highcharts-axis-line" stroke="#B9CFD7" stroke-width="0.5" data-z-index="7" d="M 39 352.25 L 475 352.25"></path></g><g class="highcharts-axis highcharts-yaxis" data-z-index="2"><path fill="none" class="highcharts-axis-line" data-z-index="7" d="M 39 135 L 39 352"></path></g><g class="highcharts-series-group" data-z-index="3"><g data-z-index="0.1" class="highcharts-series highcharts-series-0 highcharts-line-series" transform="translate(39,135) scale(1 1)" clip-path="url(#highcharts-n9ic9nc-187-)"><path fill="none" d="M 4.2745098039228 132.73166666666668 L 26.771929824562 129.115 L 49.269349845202 122.60499999999999 L 71.766769865842 131.285 L 94.264189886482 136.71 L 116.76160990712 141.4116666666667 L 139.25902992776 144.66666666666669 L 161.7564499484 153.70833333333334 L 184.25386996904 160.57999999999998 L 206.75128998968 168.175 L 229.24871001032 167.09 L 251.74613003096 173.6 L 274.2435500516 172.87666666666667 L 296.74097007224 162.38833333333332 L 319.23839009288 165.64333333333335 L 341.73581011352 169.26 L 364.23323013416 169.98333333333335 L 386.7306501548 175.04666666666668 L 409.22807017544 173.6 L 431.72549019608 168.53666666666666" class="highcharts-graph" data-z-index="1" stroke="#b00000" stroke-width="2" stroke-linejoin="round" stroke-linecap="round"></path></g><g data-z-index="0.1" class="highcharts-markers highcharts-series-0 highcharts-line-series" transform="translate(39,135) scale(1 1)" clip-path="none"></g><g data-z-index="0.1" class="highcharts-series highcharts-series-1 highcharts-line-series" transform="translate(39,135) scale(1 1)" clip-path="url(#highcharts-n9ic9nc-187-)"><path fill="none" d="M 4.2745098039228 118.62666666666667 L 26.771929824562 109.94666666666666 L 49.269349845202 134.90166666666667 L 71.766769865842 145.75166666666667 L 94.264189886482 145.75166666666667 L 116.76160990712 146.11333333333334 L 139.25902992776 168.53666666666666 L 161.7564499484 158.04833333333335 L 184.25386996904 160.57999999999998 L 206.75128998968 151.53833333333333 L 229.24871001032 158.04833333333335 L 251.74613003096 142.49666666666667 L 274.2435500516 142.85833333333335 L 296.74097007224 146.475 L 319.23839009288 159.495 L 341.73581011352 162.38833333333332 L 364.23323013416 154.07 L 386.7306501548 159.495 L 409.22807017544 163.47333333333333 L 431.72549019608 158.77166666666665" class="highcharts-graph" data-z-index="1" stroke="#672773" stroke-width="2" stroke-linejoin="round" stroke-linecap="round"></path></g><g data-z-index="0.1" class="highcharts-markers highcharts-series-1 highcharts-line-series" transform="translate(39,135) scale(1 1)" clip-path="none"></g><g data-z-index="0.1" class="highcharts-series highcharts-series-2 highcharts-line-series" transform="translate(39,135) scale(1 1)" clip-path="url(#highcharts-n9ic9nc-187-)"><path fill="none" d="M 4.2745098039228 150.09166666666667 L 26.771929824562 142.49666666666667 L 49.269349845202 146.83666666666667 L 71.766769865842 153.34666666666666 L 94.264189886482 163.47333333333333 L 116.76160990712 162.38833333333332 L 139.25902992776 147.92166666666668 L 161.7564499484 146.83666666666667 L 184.25386996904 142.49666666666667 L 206.75128998968 150.09166666666667 L 229.24871001032 145.02833333333334 L 251.74613003096 142.49666666666667 L 274.2435500516 142.85833333333335 L 296.74097007224 147.92166666666668 L 319.23839009288 151.53833333333333 L 341.73581011352 160.94166666666666 L 364.23323013416 167.81333333333333 L 386.7306501548 163.11166666666668 L 409.22807017544 166.005 L 431.72549019608 161.30333333333334" class="highcharts-graph" data-z-index="1" stroke="#007a2f" stroke-width="2" stroke-linejoin="round" stroke-linecap="round"></path></g><g data-z-index="0.1" class="highcharts-markers highcharts-series-2 highcharts-line-series" transform="translate(39,135) scale(1 1)" clip-path="none"></g><g data-z-index="0.1" class="highcharts-series highcharts-series-3 highcharts-line-series" transform="translate(39,135) scale(1 1)" clip-path="url(#highcharts-n9ic9nc-187-)"><path fill="none" d="M 4.2745098039228 122.96666666666667 L 26.771929824562 123.69 L 49.269349845202 121.15833333333333 L 71.766769865842 116.45666666666666 L 94.264189886482 108.86166666666666 L 116.76160990712 120.07333333333332 L 139.25902992776 124.05166666666666 L 161.7564499484 139.965 L 184.25386996904 137.79500000000002 L 206.75128998968 131.64666666666665 L 229.24871001032 117.54166666666667 L 251.74613003096 117.17999999999999 L 274.2435500516 119.71166666666667 L 296.74097007224 120.79666666666667 L 319.23839009288 116.81833333333333 L 341.73581011352 118.98833333333333 L 364.23323013416 104.52166666666666 L 386.7306501548 101.62833333333334 L 409.22807017544 107.05333333333334 L 431.72549019608 96.20333333333333" class="highcharts-graph" data-z-index="1" stroke="#fabd24" stroke-width="2" stroke-linejoin="round" stroke-linecap="round"></path></g><g data-z-index="0.1" class="highcharts-markers highcharts-series-3 highcharts-line-series" transform="translate(39,135) scale(1 1)" clip-path="none"></g><g data-z-index="0.1" class="highcharts-series highcharts-series-4 highcharts-line-series" transform="translate(39,135) scale(1 1)" clip-path="url(#highcharts-n9ic9nc-187-)"><path fill="none" d="M 4.2745098039228 143.58166666666665 L 26.771929824562 145.02833333333334 L 49.269349845202 154.07 L 71.766769865842 142.135 L 94.264189886482 130.92333333333335 L 116.76160990712 130.2 L 139.25902992776 130.92333333333335 L 161.7564499484 131.285 L 184.25386996904 141.05 L 206.75128998968 152.62333333333333 L 229.24871001032 163.47333333333333 L 251.74613003096 171.43 L 274.2435500516 172.15333333333334 L 296.74097007224 158.04833333333335 L 319.23839009288 155.51666666666665 L 341.73581011352 158.41 L 364.23323013416 154.07 L 386.7306501548 169.26 L 409.22807017544 166.36666666666667 L 431.72549019608 164.19666666666666" class="highcharts-graph" data-z-index="1" stroke="#b475ab" stroke-width="2" stroke-linejoin="round" stroke-linecap="round"></path></g><g data-z-index="0.1" class="highcharts-markers highcharts-series-4 highcharts-line-series" transform="translate(39,135) scale(1 1)" clip-path="none"></g><g data-z-index="0.1" class="highcharts-series highcharts-series-5 highcharts-line-series" transform="translate(39,135) scale(1 1)" clip-path="url(#highcharts-n9ic9nc-187-)"><path fill="none" d="M 4.2745098039228 114.64833333333333 L 26.771929824562 105.96833333333333 L 49.269349845202 92.58666666666667 L 71.766769865842 54.97333333333333 L 94.264189886482 74.14166666666665 L 116.76160990712 59.31333333333333 L 139.25902992776 87.16166666666666 L 161.7564499484 98.37333333333335 L 184.25386996904 103.075 L 206.75128998968 110.30833333333334 L 229.24871001032 139.24166666666667 L 251.74613003096 142.85833333333335 L 274.2435500516 152.985 L 296.74097007224 128.03 L 319.23839009288 115.01 L 341.73581011352 138.88 L 364.23323013416 153.34666666666666 L 386.7306501548 146.83666666666667 L 409.22807017544 149.00666666666666 L 431.72549019608 150.45333333333332" class="highcharts-graph" data-z-index="1" stroke="#71a3b5" stroke-width="2" stroke-linejoin="round" stroke-linecap="round"></path></g><g data-z-index="0.1" class="highcharts-markers highcharts-series-5 highcharts-line-series" transform="translate(39,135) scale(1 1)" clip-path="none"></g><g data-z-index="0.1" class="highcharts-series highcharts-series-6 highcharts-line-series" transform="translate(39,135) scale(1 1)" clip-path="url(#highcharts-n9ic9nc-187-)"><path fill="none" d="M 4.2745098039228 141.05 L 26.771929824562 130.2 L 49.269349845202 124.775 L 71.766769865842 123.69 L 94.264189886482 122.24333333333334 L 116.76160990712 128.39166666666665 L 139.25902992776 135.98666666666668 L 161.7564499484 143.22 L 184.25386996904 155.51666666666665 L 206.75128998968 155.51666666666665 L 229.24871001032 160.57999999999998 L 251.74613003096 163.11166666666668 L 274.2435500516 156.60166666666666 L 296.74097007224 146.83666666666667 L 319.23839009288 149.00666666666666 L 341.73581011352 149.73 L 364.23323013416 135.98666666666668 L 386.7306501548 142.85833333333335 L 409.22807017544 141.7733333333333 L 431.72549019608 152.26166666666666" class="highcharts-graph" data-z-index="1" stroke="#b9cfd7" stroke-width="2" stroke-linejoin="round" stroke-linecap="round"></path></g><g data-z-index="0.1" class="highcharts-markers highcharts-series-6 highcharts-line-series" transform="translate(39,135) scale(1 1)" clip-path="none"></g><g data-z-index="0.1" class="highcharts-series highcharts-series-7 highcharts-line-series" transform="translate(39,135) scale(1 1)" clip-path="url(#highcharts-n9ic9nc-187-)"><path fill="none" d="M 4.2745098039228 153.34666666666666 L 26.771929824562 153.34666666666666 L 49.269349845202 156.60166666666666 L 71.766769865842 161.665 L 94.264189886482 163.835 L 116.76160990712 173.23833333333334 L 139.25902992776 156.24 L 161.7564499484 142.85833333333335 L 184.25386996904 146.475 L 206.75128998968 150.45333333333332 L 229.24871001032 149.73 L 251.74613003096 168.89833333333334 L 274.2435500516 171.43 L 296.74097007224 166.36666666666667 L 319.23839009288 157.68666666666667 L 341.73581011352 163.11166666666668 L 364.23323013416 171.79166666666666 L 386.7306501548 171.06833333333333 L 409.22807017544 159.13333333333333 L 431.72549019608 163.835" class="highcharts-graph" data-z-index="1" stroke="#999999" stroke-width="2" stroke-linejoin="round" stroke-linecap="round"></path></g><g data-z-index="0.1" class="highcharts-markers highcharts-series-7 highcharts-line-series" transform="translate(39,135) scale(1 1)" clip-path="none"></g></g><text x="10" text-anchor="start" class="highcharts-title" data-z-index="4" style="color:#000000;font-size:14px;font-weight:bold;fill:#000000;" y="21"><tspan>Segregationsindex nach Staatsangehörigkeit</tspan></text><text x="10" text-anchor="start" class="highcharts-subtitle" data-z-index="4" style="color:#000000;font-size:12px;font-weight:normal;font-family:Arial;fill:#000000;" y="40"><tspan>Wohnviertel Rosental</tspan></text><text x="10" text-anchor="start" class="highcharts-caption" data-z-index="4" style="color:#666666;fill:#666666;" y="385"></text><g class="highcharts-legend" data-z-index="7" transform="translate(31,55)"><rect fill="none" class="highcharts-legend-box" rx="0" ry="0" x="0" y="0" width="357" height="68" visibility="visible"></rect><g data-z-index="1"><g><g class="highcharts-legend-item highcharts-line-series highcharts-color-undefined highcharts-series-0" data-z-index="1" transform="translate(8,3)"><path fill="none" d="M 0 11 L 16 11" class="highcharts-graph" stroke="#b00000" stroke-width="2"></path><text x="21" style="color:#333333;cursor:pointer;font-size:12px;font-weight:normal;fill:#333333;" text-anchor="start" data-z-index="2" y="15"><tspan>Schweiz</tspan></text></g><g class="highcharts-legend-item highcharts-line-series highcharts-color-undefined highcharts-series-1" data-z-index="1" transform="translate(123.546875,3)"><path fill="none" d="M 0 11 L 16 11" class="highcharts-graph" stroke="#672773" stroke-width="2"></path><text x="21" y="15" style="color:#333333;cursor:pointer;font-size:12px;font-weight:normal;fill:#333333;" text-anchor="start" data-z-index="2"><tspan>Deutschland</tspan></text></g><g class="highcharts-legend-item highcharts-line-series highcharts-color-undefined highcharts-series-2" data-z-index="1" transform="translate(239.09375,3)"><path fill="none" d="M 0 11 L 16 11" class="highcharts-graph" stroke="#007a2f" stroke-width="2"></path><text x="21" y="15" style="color:#333333;cursor:pointer;font-size:12px;font-weight:normal;fill:#333333;" text-anchor="start" data-z-index="2"><tspan>Italien</tspan></text></g><g class="highcharts-legend-item highcharts-line-series highcharts-color-undefined highcharts-series-3" data-z-index="1" transform="translate(8,22)"><path fill="none" d="M 0 11 L 16 11" class="highcharts-graph" stroke="#fabd24" stroke-width="2"></path><text x="21" y="15" style="color:#333333;cursor:pointer;font-size:12px;font-weight:normal;fill:#333333;" text-anchor="start" data-z-index="2"><tspan>Türkei</tspan></text></g><g class="highcharts-legend-item highcharts-line-series highcharts-color-undefined highcharts-series-4" data-z-index="1" transform="translate(123.546875,22)"><path fill="none" d="M 0 11 L 16 11" class="highcharts-graph" stroke="#b475ab" stroke-width="2"></path><text x="21" y="15" style="color:#333333;cursor:pointer;font-size:12px;font-weight:normal;fill:#333333;" text-anchor="start" data-z-index="2"><tspan>EU-17 + EFTA</tspan></text></g><g class="highcharts-legend-item highcharts-line-series highcharts-color-undefined highcharts-series-5" data-z-index="1" transform="translate(239.09375,22)"><path fill="none" d="M 0 11 L 16 11" class="highcharts-graph" stroke="#71a3b5" stroke-width="2"></path><text x="21" y="15" style="color:#333333;cursor:pointer;font-size:12px;font-weight:normal;fill:#333333;" text-anchor="start" data-z-index="2"><tspan>EU-Ost</tspan></text></g><g class="highcharts-legend-item highcharts-line-series highcharts-color-undefined highcharts-series-6" data-z-index="1" transform="translate(8,41)"><path fill="none" d="M 0 11 L 16 11" class="highcharts-graph" stroke="#b9cfd7" stroke-width="2"></path><text x="21" y="15" style="color:#333333;cursor:pointer;font-size:12px;font-weight:normal;fill:#333333;" text-anchor="start" data-z-index="2"><tspan>Balkan</tspan></text></g><g class="highcharts-legend-item highcharts-line-series highcharts-color-undefined highcharts-series-7" data-z-index="1" transform="translate(123.546875,41)"><path fill="none" d="M 0 11 L 16 11" class="highcharts-graph" stroke="#999999" stroke-width="2"></path><text x="21" y="15" style="color:#333333;cursor:pointer;font-size:12px;font-weight:normal;fill:#333333;" text-anchor="start" data-z-index="2"><tspan>Übrige Länder</tspan></text></g></g></g></g><g class="highcharts-axis-labels highcharts-xaxis-labels" data-z-index="7"><text x="65.771929824562" style="color:#000000;cursor:default;font-size:11px;fill:#000000;" text-anchor="middle" transform="translate(0,0)" y="371" opacity="1">2000</text><text x="110.76676986584" style="color:#000000;cursor:default;font-size:11px;fill:#000000;" text-anchor="middle" transform="translate(0,0)" y="371" opacity="1">2002</text><text x="155.76160990712" style="color:#000000;cursor:default;font-size:11px;fill:#000000;" text-anchor="middle" transform="translate(0,0)" y="371" opacity="1">2004</text><text x="200.7564499484" style="color:#000000;cursor:default;font-size:11px;fill:#000000;" text-anchor="middle" transform="translate(0,0)" y="371" opacity="1">2006</text><text x="245.75128998968" style="color:#000000;cursor:default;font-size:11px;fill:#000000;" text-anchor="middle" transform="translate(0,0)" y="371" opacity="1">2008</text><text x="290.74613003096" style="color:#000000;cursor:default;font-size:11px;fill:#000000;" text-anchor="middle" transform="translate(0,0)" y="371" opacity="1">2010</text><text x="335.74097007224" style="color:#000000;cursor:default;font-size:11px;fill:#000000;" text-anchor="middle" transform="translate(0,0)" y="371" opacity="1">2012</text><text x="380.73581011352" style="color:#000000;cursor:default;font-size:11px;fill:#000000;" text-anchor="middle" transform="translate(0,0)" y="371" opacity="1">2014</text><text x="425.7306501548" style="color:#000000;cursor:default;font-size:11px;fill:#000000;" text-anchor="middle" transform="translate(0,0)" y="371" opacity="1">2016</text><text x="461.03125" style="color:#000000;cursor:default;font-size:11px;fill:#000000;" text-anchor="middle" transform="translate(0,0)" y="371" opacity="1">2018</text></g><g class="highcharts-axis-labels highcharts-yaxis-labels" data-z-index="7"><text x="24" style="color:#000000;cursor:default;font-size:11px;fill:#000000;" text-anchor="end" transform="translate(0,0)" y="357" opacity="1">0</text><text x="24" style="color:#000000;cursor:default;font-size:11px;fill:#000000;" text-anchor="end" transform="translate(0,0)" y="284" opacity="1">20</text><text x="24" style="color:#000000;cursor:default;font-size:11px;fill:#000000;" text-anchor="end" transform="translate(0,0)" y="212" opacity="1">40</text><text x="24" style="color:#000000;cursor:default;font-size:11px;fill:#000000;" text-anchor="end" transform="translate(0,0)" y="140" opacity="1">60</text></g><text x="10" class="highcharts-credits" text-anchor="start" data-z-index="8" style="cursor:default;color:#000000;font-size:10px;fill:#000000;" y="403"><tspan>Quelle: Statistisches Amt Basel-Stadt, Bevölkerungsstatistik.</tspan><tspan x="10" dy="13">Zuletzt geändert: 2019-12-10</tspan></text></svg>