<svg version="1.1" class="highcharts-root" style="font-family: Arial; font-size: 1rem;" xmlns="http://www.w3.org/2000/svg" width="600" height="400" viewBox="0 0 600 400" role="img" aria-label="Genossenschaftswohnungen"><desc>Created with Highcharts 12.5.0</desc><defs><filter id="highcharts-drop-shadow-0"><feDropShadow dx="1" dy="1" flood-color="#000000" flood-opacity="0.75" stdDeviation="2.5"></feDropShadow></filter><clipPath id="highcharts-p0g5tgh-89-"><rect x="0" y="0" width="510" height="230" fill="none"></rect></clipPath><clipPath id="highcharts-p0g5tgh-100-"><rect x="0" y="0" width="510" height="230" fill="none"></rect></clipPath></defs><rect fill="#ffffff" class="highcharts-background" filter="none" x="0" y="0" width="600" height="400" rx="0" ry="0"></rect><rect fill="none" class="highcharts-plot-background" x="46" y="100" width="510" height="230" filter="none"></rect><g class="highcharts-pane-group" data-z-index="0"></g><g class="highcharts-grid highcharts-xaxis-grid" data-z-index="1"><path fill="none" stroke="#e6e6e6" stroke-width="0" stroke-dasharray="none" data-z-index="1" class="highcharts-grid-line" d="M 75.5 100 L 75.5 330" opacity="1"></path><path fill="none" stroke="#e6e6e6" stroke-width="0" stroke-dasharray="none" data-z-index="1" class="highcharts-grid-line" d="M 125.5 100 L 125.5 330" opacity="1"></path><path fill="none" stroke="#e6e6e6" stroke-width="0" stroke-dasharray="none" data-z-index="1" class="highcharts-grid-line" d="M 175.5 100 L 175.5 330" opacity="1"></path><path fill="none" stroke="#e6e6e6" stroke-width="0" stroke-dasharray="none" data-z-index="1" class="highcharts-grid-line" d="M 225.5 100 L 225.5 330" opacity="1"></path><path fill="none" stroke="#e6e6e6" stroke-width="0" stroke-dasharray="none" data-z-index="1" class="highcharts-grid-line" d="M 275.5 100 L 275.5 330" opacity="1"></path><path fill="none" stroke="#e6e6e6" stroke-width="0" stroke-dasharray="none" data-z-index="1" class="highcharts-grid-line" d="M 326.5 100 L 326.5 330" opacity="1"></path><path fill="none" stroke="#e6e6e6" stroke-width="0" stroke-dasharray="none" data-z-index="1" class="highcharts-grid-line" d="M 376.5 100 L 376.5 330" opacity="1"></path><path fill="none" stroke="#e6e6e6" stroke-width="0" stroke-dasharray="none" data-z-index="1" class="highcharts-grid-line" d="M 426.5 100 L 426.5 330" opacity="1"></path><path fill="none" stroke="#e6e6e6" stroke-width="0" stroke-dasharray="none" data-z-index="1" class="highcharts-grid-line" d="M 476.5 100 L 476.5 330" opacity="1"></path><path fill="none" stroke="#e6e6e6" stroke-width="0" stroke-dasharray="none" data-z-index="1" class="highcharts-grid-line" d="M 526.5 100 L 526.5 330" opacity="1"></path></g><g class="highcharts-grid highcharts-yaxis-grid" data-z-index="1"><path fill="none" stroke="#B9CFD7" stroke-width="0.5" stroke-dasharray="none" data-z-index="1" class="highcharts-grid-line" d="M 46 330.25 L 556 330.25" opacity="1"></path><path fill="none" stroke="#B9CFD7" stroke-width="0.5" stroke-dasharray="none" data-z-index="1" class="highcharts-grid-line" d="M 46 284.25 L 556 284.25" opacity="1"></path><path fill="none" stroke="#B9CFD7" stroke-width="0.5" stroke-dasharray="none" data-z-index="1" class="highcharts-grid-line" d="M 46 238.25 L 556 238.25" opacity="1"></path><path fill="none" stroke="#B9CFD7" stroke-width="0.5" stroke-dasharray="none" data-z-index="1" class="highcharts-grid-line" d="M 46 192.25 L 556 192.25" opacity="1"></path><path fill="none" stroke="#B9CFD7" stroke-width="0.5" stroke-dasharray="none" data-z-index="1" class="highcharts-grid-line" d="M 46 146.25 L 556 146.25" opacity="1"></path><path fill="none" stroke="#B9CFD7" stroke-width="0.5" stroke-dasharray="none" data-z-index="1" class="highcharts-grid-line" d="M 46 100.25 L 556 100.25" opacity="1"></path></g><g class="highcharts-grid highcharts-yaxis-grid" data-z-index="1"><path fill="none" stroke="#B9CFD7" stroke-width="0" stroke-dasharray="none" data-z-index="1" class="highcharts-grid-line" d="M 46 330.5 L 556 330.5" opacity="1"></path><path fill="none" stroke="#B9CFD7" stroke-width="0" stroke-dasharray="none" data-z-index="1" class="highcharts-grid-line" d="M 46 253.5 L 556 253.5" opacity="1"></path><path fill="none" stroke="#B9CFD7" stroke-width="0" stroke-dasharray="none" data-z-index="1" class="highcharts-grid-line" d="M 46 176.5 L 556 176.5" opacity="1"></path><path fill="none" stroke="#B9CFD7" stroke-width="0" stroke-dasharray="none" data-z-index="1" class="highcharts-grid-line" d="M 46 100.5 L 556 100.5" opacity="1"></path></g><rect fill="none" class="highcharts-plot-border" data-z-index="1" stroke="#cccccc" stroke-width="0" x="46" y="100" width="510" height="230"></rect><g class="highcharts-axis highcharts-xaxis" data-z-index="2"><path fill="none" class="highcharts-axis-line" stroke="#B9CFD7" stroke-width="0.5" data-z-index="7" d="M 46 330.25 L 556 330.25"></path></g><g class="highcharts-axis highcharts-yaxis" data-z-index="2"><path fill="none" class="highcharts-axis-line" stroke="#333333" stroke-width="0" data-z-index="7" d="M 46 100 L 46 330"></path></g><g class="highcharts-axis highcharts-yaxis" data-z-index="2"><path fill="none" class="highcharts-axis-line" stroke="#333333" stroke-width="0" data-z-index="7" d="M 556 100 L 556 330"></path></g><g class="highcharts-series-group" data-z-index="3" filter="none"><g class="highcharts-series highcharts-series-0 highcharts-column-series highcharts-tracker" data-z-index="0.1" opacity="1" transform="translate(46,100) scale(1 1)" clip-path="url(#highcharts-p0g5tgh-89-)"><path fill="#a8c3ca" d="M 23 120 L 37 120 A 3 3 0 0 1 40 123 L 40 230 A 0 0 0 0 1 40 230 L 20 230 A 0 0 0 0 1 20 230 L 20 123 A 3 3 0 0 1 23 120 Z" stroke="#ffffff" stroke-width="0" opacity="1" filter="none" class="highcharts-point"></path><path fill="#a8c3ca" d="M 73 121 L 87 121 A 3 3 0 0 1 90 124 L 90 230 A 0 0 0 0 1 90 230 L 70 230 A 0 0 0 0 1 70 230 L 70 124 A 3 3 0 0 1 73 121 Z" stroke="#ffffff" stroke-width="0" opacity="1" filter="none" class="highcharts-point"></path><path fill="#a8c3ca" d="M 123 118 L 137 118 A 3 3 0 0 1 140 121 L 140 230 A 0 0 0 0 1 140 230 L 120 230 A 0 0 0 0 1 120 230 L 120 121 A 3 3 0 0 1 123 118 Z" stroke="#ffffff" stroke-width="0" opacity="1" filter="none" class="highcharts-point"></path><path fill="#a8c3ca" d="M 173 77 L 187 77 A 3 3 0 0 1 190 80 L 190 230 A 0 0 0 0 1 190 230 L 170 230 A 0 0 0 0 1 170 230 L 170 80 A 3 3 0 0 1 173 77 Z" stroke="#ffffff" stroke-width="0" opacity="1" filter="none" class="highcharts-point"></path><path fill="#a8c3ca" d="M 223 28 L 237 28 A 3 3 0 0 1 240 31 L 240 230 A 0 0 0 0 1 240 230 L 220 230 A 0 0 0 0 1 220 230 L 220 31 A 3 3 0 0 1 223 28 Z" stroke="#ffffff" stroke-width="0" opacity="1" filter="none" class="highcharts-point"></path><path fill="#a8c3ca" d="M 273 26 L 287 26 A 3 3 0 0 1 290 29 L 290 230 A 0 0 0 0 1 290 230 L 270 230 A 0 0 0 0 1 270 230 L 270 29 A 3 3 0 0 1 273 26 Z" stroke="#ffffff" stroke-width="0" opacity="1" filter="none" class="highcharts-point"></path><path fill="#a8c3ca" d="M 323 33 L 337 33 A 3 3 0 0 1 340 36 L 340 230 A 0 0 0 0 1 340 230 L 320 230 A 0 0 0 0 1 320 230 L 320 36 A 3 3 0 0 1 323 33 Z" stroke="#ffffff" stroke-width="0" opacity="1" filter="none" class="highcharts-point"></path><path fill="#a8c3ca" d="M 373 42 L 387 42 A 3 3 0 0 1 390 45 L 390 230 A 0 0 0 0 1 390 230 L 370 230 A 0 0 0 0 1 370 230 L 370 45 A 3 3 0 0 1 373 42 Z" stroke="#ffffff" stroke-width="0" opacity="1" filter="none" class="highcharts-point"></path><path fill="#a8c3ca" d="M 423 39 L 437 39 A 3 3 0 0 1 440 42 L 440 230 A 0 0 0 0 1 440 230 L 420 230 A 0 0 0 0 1 420 230 L 420 42 A 3 3 0 0 1 423 39 Z" stroke="#ffffff" stroke-width="0" opacity="1" filter="none" class="highcharts-point"></path><path fill="#a8c3ca" d="M 473 35 L 487 35 A 3 3 0 0 1 490 38 L 490 230 A 0 0 0 0 1 490 230 L 470 230 A 0 0 0 0 1 470 230 L 470 38 A 3 3 0 0 1 473 35 Z" stroke="#ffffff" stroke-width="0" opacity="1" filter="none" class="highcharts-point"></path></g><g class="highcharts-markers highcharts-series-0 highcharts-column-series" data-z-index="0.1" opacity="1" transform="translate(46,100) scale(1 1)" clip-path="none"></g><g class="highcharts-series highcharts-series-1 highcharts-line-series" data-z-index="0.1" opacity="1" transform="translate(46,100) scale(1 1)" clip-path="url(#highcharts-p0g5tgh-100-)"><path fill="none" d="M 29.557956777992 138.18363273454 L 79.656188605105 152.9152465349 L 129.75442043222 154.27677029362 L 179.85265225933 127.23298880278 L 229.95088408644 98.680577182615 L 280.04911591356 110.30942335117 L 330.14734774067 114.78464419583 L 380.24557956778 120.62937063117 L 430.34381139489 119.32074773276 L 480.44204322201 119.46318462098" class="highcharts-graph" data-z-index="1" stroke="#246370" stroke-width="2" stroke-linejoin="round" stroke-linecap="round" filter="none"></path><path fill="none" d="M 29.557956777992 138.18363273454 L 79.656188605105 152.9152465349 L 129.75442043222 154.27677029362 L 179.85265225933 127.23298880278 L 229.95088408644 98.680577182615 L 280.04911591356 110.30942335117 L 330.14734774067 114.78464419583 L 380.24557956778 120.62937063117 L 430.34381139489 119.32074773276 L 480.44204322201 119.46318462098" data-z-index="2" class="highcharts-tracker-line" stroke-linecap="round" stroke-linejoin="round" stroke="rgba(192,192,192,0.0001)" stroke-width="22"></path></g><g class="highcharts-markers highcharts-series-1 highcharts-line-series highcharts-tracker" data-z-index="0.1" opacity="1" transform="translate(46,100) scale(1 1)" clip-path="none"></g></g><text x="10" text-anchor="start" class="highcharts-caption" data-z-index="4" style="font-size: 0.8em; fill: rgb(102, 102, 102);" text-align="left" y="372" transform-origin="10 15" transform="translate(0,0) scale(1 1)"></text><g class="highcharts-axis-labels highcharts-xaxis-labels" data-z-index="7"><text x="75.557956777992" text-anchor="middle" transform="translate(0,0)" style="cursor: default; font-size: 0.8em; fill: rgb(0, 0, 0);" y="357" opacity="1">2014</text><text x="125.65618860511" text-anchor="middle" transform="translate(0,0)" style="cursor: default; font-size: 0.8em; fill: rgb(0, 0, 0);" y="357" opacity="1">2015</text><text x="175.75442043222" text-anchor="middle" transform="translate(0,0)" style="cursor: default; font-size: 0.8em; fill: rgb(0, 0, 0);" y="357" opacity="1">2016</text><text x="225.85265225933" text-anchor="middle" transform="translate(0,0)" style="cursor: default; font-size: 0.8em; fill: rgb(0, 0, 0);" y="357" opacity="1">2017</text><text x="275.95088408644" text-anchor="middle" transform="translate(0,0)" style="cursor: default; font-size: 0.8em; fill: rgb(0, 0, 0);" y="357" opacity="1">2018</text><text x="326.04911591356" text-anchor="middle" transform="translate(0,0)" style="cursor: default; font-size: 0.8em; fill: rgb(0, 0, 0);" y="357" opacity="1">2019</text><text x="376.14734774067" text-anchor="middle" transform="translate(0,0)" style="cursor: default; font-size: 0.8em; fill: rgb(0, 0, 0);" y="357" opacity="1">2020</text><text x="426.24557956778" text-anchor="middle" transform="translate(0,0)" style="cursor: default; font-size: 0.8em; fill: rgb(0, 0, 0);" y="357" opacity="1">2021</text><text x="476.34381139489" text-anchor="middle" transform="translate(0,0)" style="cursor: default; font-size: 0.8em; fill: rgb(0, 0, 0);" y="357" opacity="1">2022</text><text x="526.44204322201" text-anchor="middle" transform="translate(0,0)" style="cursor: default; font-size: 0.8em; fill: rgb(0, 0, 0);" y="357" opacity="1">2023</text></g><g class="highcharts-axis-labels highcharts-yaxis-labels" data-z-index="7"><text x="31" text-anchor="end" transform="translate(0,0)" style="cursor: default; font-size: 0.8em; fill: rgb(0, 0, 0);" y="335" opacity="1">0</text><text x="31" text-anchor="end" transform="translate(0,0)" style="cursor: default; font-size: 0.8em; fill: rgb(0, 0, 0);" y="289" opacity="1">25</text><text x="31" text-anchor="end" transform="translate(0,0)" style="cursor: default; font-size: 0.8em; fill: rgb(0, 0, 0);" y="243" opacity="1">50</text><text x="31" text-anchor="end" transform="translate(0,0)" style="cursor: default; font-size: 0.8em; fill: rgb(0, 0, 0);" y="197" opacity="1">75</text><text x="31" text-anchor="end" transform="translate(0,0)" style="cursor: default; font-size: 0.8em; fill: rgb(0, 0, 0);" y="151" opacity="1">100</text><text x="31" text-anchor="end" transform="translate(0,0)" style="cursor: default; font-size: 0.8em; fill: rgb(0, 0, 0);" y="105" opacity="1">125</text></g><g class="highcharts-axis-labels highcharts-yaxis-labels" data-z-index="7"><text x="571" text-anchor="start" transform="translate(0,0)" style="cursor: default; font-size: 0.8em; fill: rgb(0, 0, 0);" y="335" opacity="1">0%</text><text x="571" text-anchor="start" transform="translate(0,0)" style="cursor: default; font-size: 0.8em; fill: rgb(0, 0, 0);" y="258" opacity="1">2%</text><text x="571" text-anchor="start" transform="translate(0,0)" style="cursor: default; font-size: 0.8em; fill: rgb(0, 0, 0);" y="181" opacity="1">4%</text><text x="571" text-anchor="start" transform="translate(0,0)" style="cursor: default; font-size: 0.8em; fill: rgb(0, 0, 0);" y="105" opacity="1">6%</text></g><g class="highcharts-legend highcharts-no-tooltip" data-z-index="7" text-align="left" transform="translate(38,55)"><rect fill="none" class="highcharts-legend-box" rx="0" ry="0" stroke="#999999" stroke-width="0" filter="none" x="0" y="0" width="476" height="33"></rect><g data-z-index="1"><g><g class="highcharts-legend-item highcharts-column-series highcharts-color-undefined highcharts-series-0" data-z-index="1" transform="translate(8,3)"><text x="21" text-anchor="start" data-z-index="2" style="cursor: pointer; font-size: 0.8em; text-decoration: none; font-weight: normal; fill: rgb(51, 51, 51);" y="17">Anzahl Genossenschaftswohnungen</text><rect x="2" y="6" rx="0" ry="0" width="12" height="12" fill="#a8c3ca" class="highcharts-point" data-z-index="3"></rect></g><g class="highcharts-legend-item highcharts-line-series highcharts-color-undefined highcharts-series-1" data-z-index="1" transform="translate(257.796875,3)"><path fill="none" class="highcharts-graph" stroke-width="2" stroke-linecap="round" d="M 1 13 L 15 13" stroke="#246370"></path><text x="21" y="17" text-anchor="start" data-z-index="2" style="cursor: pointer; font-size: 0.8em; text-decoration: none; font-weight: normal; fill: rgb(51, 51, 51);">Anteil am Bestand (rechte Skala)</text></g></g></g></g></svg>