<?xml version="1.0" standalone="no"?><!DOCTYPE svg PUBLIC "-//W3C//DTD SVG 1.1//EN" "http://www.w3.org/Graphics/SVG/1.1/DTD/svg11.dtd"><svg xmlns:xlink="http://www.w3.org/1999/xlink" version="1.1" class="highcharts-root" style="font-family:Arial;font-size:12px;" xmlns="http://www.w3.org/2000/svg" viewBox="0 0 485 415"><desc>Created with Highcharts 8.0.0</desc><defs><clipPath id="highcharts-frjs3oo-80-"><rect x="0" y="0" width="395" height="237" fill="none"></rect></clipPath><clipPath id="highcharts-frjs3oo-99-"><rect x="0" y="0" width="395" height="237" fill="none"></rect></clipPath><clipPath id="highcharts-frjs3oo-136-"><rect x="0" y="0" width="395" height="237" fill="none"></rect></clipPath></defs><rect fill="#fbfbfb" class="highcharts-background" x="0" y="0" width="485" height="428" rx="0" ry="0"></rect><rect fill="none" class="highcharts-plot-background" x="43" y="116" width="395" height="237"></rect><g class="highcharts-pane-group" data-z-index="0"></g><g class="highcharts-grid highcharts-xaxis-grid" data-z-index="1"><path fill="none" data-z-index="1" class="highcharts-grid-line" d="M 78.5 116 L 78.5 353" opacity="1"></path><path fill="none" data-z-index="1" class="highcharts-grid-line" d="M 121.5 116 L 121.5 353" opacity="1"></path><path fill="none" data-z-index="1" class="highcharts-grid-line" d="M 164.5 116 L 164.5 353" opacity="1"></path><path fill="none" data-z-index="1" class="highcharts-grid-line" d="M 207.5 116 L 207.5 353" opacity="1"></path><path fill="none" data-z-index="1" class="highcharts-grid-line" d="M 250.5 116 L 250.5 353" opacity="1"></path><path fill="none" data-z-index="1" class="highcharts-grid-line" d="M 293.5 116 L 293.5 353" opacity="1"></path><path fill="none" data-z-index="1" class="highcharts-grid-line" d="M 336.5 116 L 336.5 353" opacity="1"></path><path fill="none" data-z-index="1" class="highcharts-grid-line" d="M 379.5 116 L 379.5 353" opacity="1"></path><path fill="none" data-z-index="1" class="highcharts-grid-line" d="M 423.5 116 L 423.5 353" opacity="1"></path></g><g class="highcharts-grid highcharts-yaxis-grid" data-z-index="1"><path fill="none" stroke="#B9CFD7" stroke-width="0.5" data-z-index="1" class="highcharts-grid-line" d="M 43 353.25 L 438 353.25" opacity="1"></path><path fill="none" stroke="#B9CFD7" stroke-width="0.5" data-z-index="1" class="highcharts-grid-line" d="M 43 294.25 L 438 294.25" opacity="1"></path><path fill="none" stroke="#B9CFD7" stroke-width="0.5" data-z-index="1" class="highcharts-grid-line" d="M 43 235.25 L 438 235.25" opacity="1"></path><path fill="none" stroke="#B9CFD7" stroke-width="0.5" data-z-index="1" class="highcharts-grid-line" d="M 43 175.25 L 438 175.25" opacity="1"></path><path fill="none" stroke="#B9CFD7" stroke-width="0.5" data-z-index="1" class="highcharts-grid-line" d="M 43 115.75 L 438 115.75" opacity="1"></path></g><g class="highcharts-grid highcharts-yaxis-grid" data-z-index="1"><path fill="none" stroke="#B9CFD7" stroke-width="0.5" data-z-index="1" class="highcharts-grid-line" d="M 43 353.25 L 438 353.25" opacity="1"></path><path fill="none" stroke="#B9CFD7" stroke-width="0.5" data-z-index="1" class="highcharts-grid-line" d="M 43 294.25 L 438 294.25" opacity="1"></path><path fill="none" stroke="#B9CFD7" stroke-width="0.5" data-z-index="1" class="highcharts-grid-line" d="M 43 235.25 L 438 235.25" opacity="1"></path><path fill="none" stroke="#B9CFD7" stroke-width="0.5" data-z-index="1" class="highcharts-grid-line" d="M 43 175.25 L 438 175.25" opacity="1"></path><path fill="none" stroke="#B9CFD7" stroke-width="0.5" data-z-index="1" class="highcharts-grid-line" d="M 43 115.75 L 438 115.75" opacity="1"></path></g><rect fill="none" class="highcharts-plot-border" data-z-index="1" x="43" y="116" width="395" height="237"></rect><g class="highcharts-axis highcharts-xaxis" data-z-index="2"><path fill="none" class="highcharts-axis-line" stroke="#B9CFD7" stroke-width="0.5" data-z-index="7" d="M 43 353.25 L 438 353.25"></path></g><g class="highcharts-axis highcharts-yaxis" data-z-index="2"><path fill="none" class="highcharts-axis-line" data-z-index="7" d="M 43 116 L 43 353"></path></g><g class="highcharts-axis highcharts-yaxis" data-z-index="2"><path fill="none" class="highcharts-axis-line" data-z-index="7" d="M 438 116 L 438 353"></path></g><g class="highcharts-series-group" data-z-index="3"><g data-z-index="0.1" class="highcharts-series highcharts-series-0 highcharts-column-series" transform="translate(43,116) scale(1 1)" clip-path="url(#highcharts-frjs3oo-99-)"><rect x="9" y="148" width="6" height="90" fill="#cd9c00" opacity="1" class="highcharts-point"></rect><rect x="30" y="138" width="6" height="100" fill="#cd9c00" opacity="1" class="highcharts-point"></rect><rect x="52" y="118" width="6" height="120" fill="#cd9c00" opacity="1" class="highcharts-point"></rect><rect x="73" y="104" width="6" height="134" fill="#cd9c00" opacity="1" class="highcharts-point"></rect><rect x="95" y="77" width="6" height="161" fill="#cd9c00" opacity="1" class="highcharts-point"></rect><rect x="116" y="69" width="6" height="169" fill="#cd9c00" opacity="1" class="highcharts-point"></rect><rect x="138" y="72" width="6" height="166" fill="#cd9c00" opacity="1" class="highcharts-point"></rect><rect x="159" y="86" width="6" height="152" fill="#cd9c00" opacity="1" class="highcharts-point"></rect><rect x="181" y="97" width="6" height="141" fill="#cd9c00" opacity="1" class="highcharts-point"></rect><rect x="202" y="91" width="6" height="147" fill="#cd9c00" opacity="1" class="highcharts-point"></rect><rect x="224" y="87" width="6" height="151" fill="#cd9c00" opacity="1" class="highcharts-point"></rect><rect x="246" y="87" width="6" height="151" fill="#cd9c00" opacity="1" class="highcharts-point"></rect><rect x="267" y="70" width="6" height="168" fill="#cd9c00" opacity="1" class="highcharts-point"></rect><rect x="289" y="73" width="6" height="165" fill="#cd9c00" opacity="1" class="highcharts-point"></rect><rect x="310" y="68" width="6" height="170" fill="#cd9c00" opacity="1" class="highcharts-point"></rect><rect x="332" y="41" width="6" height="197" fill="#cd9c00" opacity="1" class="highcharts-point"></rect><rect x="353" y="27" width="6" height="211" fill="#cd9c00" opacity="1" class="highcharts-point"></rect><rect x="375" y="40" width="6" height="198" fill="#cd9c00" opacity="1" class="highcharts-point"></rect></g><g data-z-index="0.1" class="highcharts-markers highcharts-series-0 highcharts-column-series" transform="translate(43,116) scale(1 1)" clip-path="none"></g><g data-z-index="0.1" class="highcharts-series highcharts-series-1 highcharts-column-series" transform="translate(43,116) scale(1 1)" clip-path="url(#highcharts-frjs3oo-99-)"><rect x="15" y="231" width="6" height="7" fill="#b375ab" opacity="1" class="highcharts-point"></rect><rect x="37" y="229" width="6" height="9" fill="#b375ab" opacity="1" class="highcharts-point"></rect><rect x="58" y="226" width="6" height="12" fill="#b375ab" opacity="1" class="highcharts-point"></rect><rect x="80" y="227" width="6" height="11" fill="#b375ab" opacity="1" class="highcharts-point"></rect><rect x="101" y="232" width="6" height="6" fill="#b375ab" opacity="1" class="highcharts-point"></rect><rect x="123" y="233" width="6" height="5" fill="#b375ab" opacity="1" class="highcharts-point"></rect><rect x="144" y="232" width="6" height="6" fill="#b375ab" opacity="1" class="highcharts-point"></rect><rect x="166" y="230" width="6" height="8" fill="#b375ab" opacity="1" class="highcharts-point"></rect><rect x="187" y="231" width="6" height="7" fill="#b375ab" opacity="1" class="highcharts-point"></rect><rect x="209" y="229" width="6" height="9" fill="#b375ab" opacity="1" class="highcharts-point"></rect><rect x="230" y="231" width="6" height="7" fill="#b375ab" opacity="1" class="highcharts-point"></rect><rect x="252" y="231" width="6" height="7" fill="#b375ab" opacity="1" class="highcharts-point"></rect><rect x="274" y="233" width="6" height="5" fill="#b375ab" opacity="1" class="highcharts-point"></rect><rect x="295" y="234" width="6" height="4" fill="#b375ab" opacity="1" class="highcharts-point"></rect><rect x="317" y="230" width="6" height="8" fill="#b375ab" opacity="1" class="highcharts-point"></rect><rect x="338" y="231" width="6" height="7" fill="#b375ab" opacity="1" class="highcharts-point"></rect><rect x="360" y="231" width="6" height="7" fill="#b375ab" opacity="1" class="highcharts-point"></rect><rect x="381" y="228" width="6" height="10" fill="#b375ab" opacity="1" class="highcharts-point"></rect></g><g data-z-index="0.1" class="highcharts-markers highcharts-series-1 highcharts-column-series" transform="translate(43,116) scale(1 1)" clip-path="none"></g><g data-z-index="0.1" class="highcharts-series highcharts-series-2 highcharts-line-series" transform="translate(43,116) scale(1 1)" clip-path="url(#highcharts-frjs3oo-136-)"><path fill="none" d="M 14.430207197384 183.55827201493125 L 35.967829880045 179.88544050379687 L 57.505452562706 168.81333825901874 L 79.043075245366 162.19106942578125 L 100.58069792803 146.74046847056252 L 122.11832061069 144.38139483712501 L 143.65594329335 147.06696428465625 L 165.19356597601 156.227402927625 L 186.73118865867 161.67147435853127 L 208.26881134133 157.57855827290626 L 229.80643402399 153.69395223375 L 251.34405670665 155.66521317609374 L 272.88167938931 148.54857022903124 L 294.41930207197 149.9229223936875 L 315.95692475463 146.89848725775 L 337.49454743729 134.58954602296876 L 359.03217011996 125.2637272543125 L 380.56979280262 132.09117335840625" class="highcharts-graph" data-z-index="1" stroke="#7f5f1a" stroke-width="2" stroke-linejoin="round" stroke-linecap="round"></path></g><g data-z-index="0.1" class="highcharts-markers highcharts-series-2 highcharts-line-series" transform="translate(43,116) scale(1 1)" clip-path="none"></g><g data-z-index="0.1" class="highcharts-series highcharts-series-3 highcharts-line-series" transform="translate(43,116) scale(1 1)" clip-path="url(#highcharts-frjs3oo-136-)"><path fill="none" d="M 14.430207197384 99.20930232403126 L 35.967829880045 68.18106617690626 L 57.505452562706 36.83108108128127 L 79.043075245366 32.49906716053124 L 100.58069792803 139.95258620587498 L 122.11832061069 146.9239864876875 L 143.65594329335 141.4354838743125 L 165.19356597601 119.37132353071874 L 186.73118865867 195.957808564575 L 208.26881134133 196.167062737575 L 229.80643402399 208.8904702966875 L 251.34405670665 209.745 L 272.88167938931 215.67000000000002 L 294.41930207197 218.728001644425 L 315.95692475463 223.83783321958126 L 337.49454743729 226.41964285693126 L 359.03217011996 227.13552210998438 L 380.56979280262 224.71475118492188" class="highcharts-graph" data-z-index="1" stroke="#923f8d" stroke-width="2" stroke-linejoin="round" stroke-linecap="round"></path></g><g data-z-index="0.1" class="highcharts-markers highcharts-series-3 highcharts-line-series" transform="translate(43,116) scale(1 1)" clip-path="none"></g></g><text x="10" text-anchor="start" class="highcharts-title" data-z-index="4" style="color:#000000;font-size:14px;font-weight:bold;fill:#000000;" y="21"><tspan>Sozialhilfebez체ger und -quote</tspan></text><text x="10" text-anchor="start" class="highcharts-subtitle" data-z-index="4" style="color:#000000;font-size:12px;font-weight:normal;font-family:Arial;fill:#000000;" y="40"><tspan>Wohnviertel Rosental, nach Bezirk</tspan></text><text x="10" text-anchor="start" class="highcharts-caption" data-z-index="4" style="color:#666666;fill:#666666;" y="385"></text><g class="highcharts-legend" data-z-index="7" transform="translate(35,55)"><rect fill="none" class="highcharts-legend-box" rx="0" ry="0" x="0" y="0" width="408" height="49" visibility="visible"></rect><g data-z-index="1"><g><g class="highcharts-legend-item highcharts-column-series highcharts-color-undefined highcharts-series-0" data-z-index="1" transform="translate(8,3)"><text x="21" style="color:#333333;cursor:pointer;font-size:12px;font-weight:normal;fill:#333333;" text-anchor="start" data-z-index="2" y="15"><tspan>Bez체ger Messe</tspan></text><rect x="2" y="4" width="12" height="12" fill="#cd9c00" class="highcharts-point" data-z-index="3"></rect></g><g class="highcharts-legend-item highcharts-column-series highcharts-color-undefined highcharts-series-1" data-z-index="1" transform="translate(214.25,3)"><text x="21" y="15" style="color:#333333;cursor:pointer;font-size:12px;font-weight:normal;fill:#333333;" text-anchor="start" data-z-index="2"><tspan>Bez체ger Erlenmatt</tspan></text><rect x="2" y="4" width="12" height="12" fill="#b375ab" class="highcharts-point" data-z-index="3"></rect></g><g class="highcharts-legend-item highcharts-line-series highcharts-color-undefined highcharts-series-2" data-z-index="1" transform="translate(8,22)"><path fill="none" d="M 0 11 L 16 11" class="highcharts-graph" stroke="#7f5f1a" stroke-width="2"></path><text x="21" y="15" style="color:#333333;cursor:pointer;font-size:12px;font-weight:normal;fill:#333333;" text-anchor="start" data-z-index="2"><tspan>Quote Messe (rechte Skala)</tspan></text></g><g class="highcharts-legend-item highcharts-line-series highcharts-color-undefined highcharts-series-3" data-z-index="1" transform="translate(214.25,22)"><path fill="none" d="M 0 11 L 16 11" class="highcharts-graph" stroke="#923f8d" stroke-width="2"></path><text x="21" y="15" style="color:#333333;cursor:pointer;font-size:12px;font-weight:normal;fill:#333333;" text-anchor="start" data-z-index="2"><tspan>Quote Erlenmatt  (rechte Skala)</tspan></text></g></g></g></g><g class="highcharts-axis-labels highcharts-xaxis-labels" data-z-index="7"><text x="78.967829880045" style="color:#000000;cursor:default;font-size:11px;fill:#000000;" text-anchor="middle" transform="translate(0,0)" y="372" opacity="1">2002</text><text x="122.04307524537" style="color:#000000;cursor:default;font-size:11px;fill:#000000;" text-anchor="middle" transform="translate(0,0)" y="372" opacity="1">2004</text><text x="165.11832061069" style="color:#000000;cursor:default;font-size:11px;fill:#000000;" text-anchor="middle" transform="translate(0,0)" y="372" opacity="1">2006</text><text x="208.19356597601" style="color:#000000;cursor:default;font-size:11px;fill:#000000;" text-anchor="middle" transform="translate(0,0)" y="372" opacity="1">2008</text><text x="251.26881134133" style="color:#000000;cursor:default;font-size:11px;fill:#000000;" text-anchor="middle" transform="translate(0,0)" y="372" opacity="1">2010</text><text x="294.34405670665" style="color:#000000;cursor:default;font-size:11px;fill:#000000;" text-anchor="middle" transform="translate(0,0)" y="372" opacity="1">2012</text><text x="337.41930207197" style="color:#000000;cursor:default;font-size:11px;fill:#000000;" text-anchor="middle" transform="translate(0,0)" y="372" opacity="1">2014</text><text x="380.49454743729" style="color:#000000;cursor:default;font-size:11px;fill:#000000;" text-anchor="middle" transform="translate(0,0)" y="372" opacity="1">2016</text><text x="423.56979280262" style="color:#000000;cursor:default;font-size:11px;fill:#000000;" text-anchor="middle" transform="translate(0,0)" y="372" opacity="1">2018</text></g><g class="highcharts-axis-labels highcharts-yaxis-labels" data-z-index="7"><text x="28" style="color:#000000;cursor:default;font-size:11px;fill:#000000;" text-anchor="end" transform="translate(0,0)" y="358" opacity="1">0</text><text x="28" style="color:#000000;cursor:default;font-size:11px;fill:#000000;" text-anchor="end" transform="translate(0,0)" y="299" opacity="1">200</text><text x="28" style="color:#000000;cursor:default;font-size:11px;fill:#000000;" text-anchor="end" transform="translate(0,0)" y="240" opacity="1">400</text><text x="28" style="color:#000000;cursor:default;font-size:11px;fill:#000000;" text-anchor="end" transform="translate(0,0)" y="180" opacity="1">600</text><text x="28" style="color:#000000;cursor:default;font-size:11px;fill:#000000;" text-anchor="end" transform="translate(0,0)" y="121" opacity="1">800</text></g><g class="highcharts-axis-labels highcharts-yaxis-labels" data-z-index="7"><text x="453" style="color:#000000;cursor:default;font-size:11px;fill:#000000;" text-anchor="start" transform="translate(0,0)" y="358" opacity="1">0%</text><text x="453" style="color:#000000;cursor:default;font-size:11px;fill:#000000;" text-anchor="start" transform="translate(0,0)" y="299" opacity="1">8%</text><text x="453" style="color:#000000;cursor:default;font-size:11px;fill:#000000;" text-anchor="start" transform="translate(0,0)" y="240" opacity="1">16%</text><text x="453" style="color:#000000;cursor:default;font-size:11px;fill:#000000;" text-anchor="start" transform="translate(0,0)" y="180" opacity="1">24%</text><text x="453" style="color:#000000;cursor:default;font-size:11px;fill:#000000;" text-anchor="start" transform="translate(0,0)" y="121" opacity="1">32%</text></g><text x="10" class="highcharts-credits" text-anchor="start" data-z-index="8" style="cursor:default;color:#000000;font-size:10px;fill:#000000;" y="403"><tspan>Quelle: Statistisches Amt Basel-Stadt, Sozialhilfestatistik.</tspan><tspan x="10" dy="13">Zuletzt ge채ndert: 2019-12-10</tspan></text></svg>