<?xml version="1.0" standalone="no"?><!DOCTYPE svg PUBLIC "-//W3C//DTD SVG 1.1//EN" "http://www.w3.org/Graphics/SVG/1.1/DTD/svg11.dtd"><svg xmlns:xlink="http://www.w3.org/1999/xlink" version="1.1" class="highcharts-root" style="font-family:Inter,Helvetica Neue,Helvetica,Arial,sans-serif;font-size:12px;" xmlns="http://www.w3.org/2000/svg" width="600" height="428"><desc>Created with Highcharts 8.2.2</desc><defs><clipPath id="highcharts-gypq8yq-47-"><rect x="0" y="0" width="295" height="477" fill="none"></rect></clipPath><clipPath id="highcharts-gypq8yq-68-"><rect x="0" y="0" width="295" height="477" fill="none"></rect></clipPath><clipPath id="highcharts-gypq8yq-89-"><rect x="113" y="56" width="477" height="295" fill="none"></rect></clipPath></defs><rect fill="#ffffff" class="highcharts-background" x="0" y="0" width="600" height="428" rx="0" ry="0"></rect><rect fill="none" class="highcharts-plot-background" x="113" y="56" width="477" height="295"></rect><g class="highcharts-pane-group" data-z-index="0"></g><g class="highcharts-grid highcharts-xaxis-grid" data-z-index="1"><path fill="none" data-z-index="1" class="highcharts-grid-line" d="M 113 71.5 L 590 71.5" opacity="1"></path><path fill="none" data-z-index="1" class="highcharts-grid-line" d="M 113 86.5 L 590 86.5" opacity="1"></path><path fill="none" data-z-index="1" class="highcharts-grid-line" d="M 113 100.5 L 590 100.5" opacity="1"></path><path fill="none" data-z-index="1" class="highcharts-grid-line" d="M 113 115.5 L 590 115.5" opacity="1"></path><path fill="none" data-z-index="1" class="highcharts-grid-line" d="M 113 130.5 L 590 130.5" opacity="1"></path><path fill="none" data-z-index="1" class="highcharts-grid-line" d="M 113 145.5 L 590 145.5" opacity="1"></path><path fill="none" data-z-index="1" class="highcharts-grid-line" d="M 113 159.5 L 590 159.5" opacity="1"></path><path fill="none" data-z-index="1" class="highcharts-grid-line" d="M 113 174.5 L 590 174.5" opacity="1"></path><path fill="none" data-z-index="1" class="highcharts-grid-line" d="M 113 189.5 L 590 189.5" opacity="1"></path><path fill="none" data-z-index="1" class="highcharts-grid-line" d="M 113 204.5 L 590 204.5" opacity="1"></path><path fill="none" data-z-index="1" class="highcharts-grid-line" d="M 113 218.5 L 590 218.5" opacity="1"></path><path fill="none" data-z-index="1" class="highcharts-grid-line" d="M 113 233.5 L 590 233.5" opacity="1"></path><path fill="none" data-z-index="1" class="highcharts-grid-line" d="M 113 248.5 L 590 248.5" opacity="1"></path><path fill="none" data-z-index="1" class="highcharts-grid-line" d="M 113 263.5 L 590 263.5" opacity="1"></path><path fill="none" data-z-index="1" class="highcharts-grid-line" d="M 113 277.5 L 590 277.5" opacity="1"></path><path fill="none" data-z-index="1" class="highcharts-grid-line" d="M 113 292.5 L 590 292.5" opacity="1"></path><path fill="none" data-z-index="1" class="highcharts-grid-line" d="M 113 307.5 L 590 307.5" opacity="1"></path><path fill="none" data-z-index="1" class="highcharts-grid-line" d="M 113 322.5 L 590 322.5" opacity="1"></path><path fill="none" data-z-index="1" class="highcharts-grid-line" d="M 113 336.5 L 590 336.5" opacity="1"></path><path fill="none" data-z-index="1" class="highcharts-grid-line" d="M 113 351.5 L 590 351.5" opacity="1"></path><path fill="none" data-z-index="1" class="highcharts-grid-line" d="M 113 56.5 L 590 56.5" opacity="1"></path></g><g class="highcharts-grid highcharts-yaxis-grid" data-z-index="1"><path fill="none" stroke="#B9CFD7" stroke-width="0.5" data-z-index="1" class="highcharts-grid-line" d="M 112.75 56 L 112.75 351" opacity="1"></path><path fill="none" stroke="#B9CFD7" stroke-width="0.5" data-z-index="1" class="highcharts-grid-line" d="M 180.75 56 L 180.75 351" opacity="1"></path><path fill="none" stroke="#B9CFD7" stroke-width="0.5" data-z-index="1" class="highcharts-grid-line" d="M 248.75 56 L 248.75 351" opacity="1"></path><path fill="none" stroke="#B9CFD7" stroke-width="0.5" data-z-index="1" class="highcharts-grid-line" d="M 316.75 56 L 316.75 351" opacity="1"></path><path fill="none" stroke="#B9CFD7" stroke-width="0.5" data-z-index="1" class="highcharts-grid-line" d="M 385.75 56 L 385.75 351" opacity="1"></path><path fill="none" stroke="#B9CFD7" stroke-width="0.5" data-z-index="1" class="highcharts-grid-line" d="M 453.75 56 L 453.75 351" opacity="1"></path><path fill="none" stroke="#B9CFD7" stroke-width="0.5" data-z-index="1" class="highcharts-grid-line" d="M 521.75 56 L 521.75 351" opacity="1"></path><path fill="none" stroke="#B9CFD7" stroke-width="0.5" data-z-index="1" class="highcharts-grid-line" d="M 590.25 56 L 590.25 351" opacity="1"></path></g><rect fill="none" class="highcharts-plot-border" data-z-index="1" x="113" y="56" width="477" height="295"></rect><g class="highcharts-axis highcharts-xaxis" data-z-index="2"><path fill="none" class="highcharts-axis-line" stroke="#B9CFD7" stroke-width="0.5" data-z-index="7" d="M 112.75 56 L 112.75 351"></path></g><g class="highcharts-axis highcharts-yaxis" data-z-index="2"><path fill="none" class="highcharts-axis-line" data-z-index="7" d="M 113 351 L 590 351"></path></g><g class="highcharts-series-group" data-z-index="3"><g class="highcharts-series highcharts-series-0 highcharts-column-series" data-z-index="0.1" opacity="1" transform="translate(590,351) rotate(90) scale(-1,1) scale(1 1)" clip-path="url(#highcharts-gypq8yq-68-)"><rect x="283.5" y="14.5" width="8" height="463" fill="#73b97c" stroke="#ffffff" stroke-width="1" opacity="1" class="highcharts-point highcharts-color-0"></rect><rect x="268.5" y="68.5" width="8" height="409" fill="#73b97c" stroke="#ffffff" stroke-width="1" opacity="1" class="highcharts-point highcharts-color-1"></rect><rect x="254.5" y="68.5" width="8" height="409" fill="#73b97c" stroke="#ffffff" stroke-width="1" opacity="1" class="highcharts-point highcharts-color-2"></rect><rect x="239.5" y="80.5" width="8" height="397" fill="#73b97c" stroke="#ffffff" stroke-width="1" opacity="1" class="highcharts-point highcharts-color-3"></rect><rect x="224.5" y="118.5" width="8" height="359" fill="#73b97c" stroke="#ffffff" stroke-width="1" opacity="1" class="highcharts-point highcharts-color-4"></rect><rect x="209.5" y="120.5" width="8" height="357" fill="#73b97c" stroke="#ffffff" stroke-width="1" opacity="1" class="highcharts-point highcharts-color-5"></rect><rect x="195.5" y="120.5" width="8" height="357" fill="#73b97c" stroke="#ffffff" stroke-width="1" opacity="1" class="highcharts-point highcharts-color-6"></rect><rect x="180.5" y="122.5" width="8" height="355" fill="#73b97c" stroke="#ffffff" stroke-width="1" opacity="1" class="highcharts-point highcharts-color-7"></rect><rect x="165.5" y="144.5" width="8" height="333" fill="#73b97c" stroke="#ffffff" stroke-width="1" opacity="1" class="highcharts-point highcharts-color-8"></rect><rect x="150.5" y="161.5" width="8" height="316" fill="#73b97c" stroke="#ffffff" stroke-width="1" opacity="1" class="highcharts-point highcharts-color-9"></rect><rect x="136.5" y="178.5" width="8" height="299" fill="#73b97c" stroke="#ffffff" stroke-width="1" opacity="1" class="highcharts-point highcharts-color-10"></rect><rect x="121.5" y="178.5" width="8" height="299" fill="#73b97c" stroke="#ffffff" stroke-width="1" opacity="1" class="highcharts-point highcharts-color-11"></rect><rect x="106.5" y="185.5" width="8" height="292" fill="#73b97c" stroke="#ffffff" stroke-width="1" opacity="1" class="highcharts-point highcharts-color-12"></rect><rect x="91.5" y="209.5" width="8" height="268" fill="#007a2f" stroke="#ffffff" stroke-width="1" opacity="1" class="highcharts-point highcharts-color-13"></rect><rect x="77.5" y="212.5" width="8" height="265" fill="#73b97c" stroke="#ffffff" stroke-width="1" opacity="1" class="highcharts-point highcharts-color-14"></rect><rect x="62.5" y="214.5" width="8" height="263" fill="#73b97c" stroke="#ffffff" stroke-width="1" opacity="1" class="highcharts-point highcharts-color-15"></rect><rect x="47.5" y="238.5" width="8" height="239" fill="#73b97c" stroke="#ffffff" stroke-width="1" opacity="1" class="highcharts-point highcharts-color-16"></rect><rect x="32.5" y="241.5" width="8" height="236" fill="#73b97c" stroke="#ffffff" stroke-width="1" opacity="1" class="highcharts-point highcharts-color-17"></rect><rect x="18.5" y="312.5" width="8" height="165" fill="#73b97c" stroke="#ffffff" stroke-width="1" opacity="1" class="highcharts-point highcharts-color-18"></rect><rect x="3.5" y="348.5" width="8" height="129" fill="#73b97c" stroke="#ffffff" stroke-width="1" opacity="1" class="highcharts-point highcharts-color-19"></rect></g><g class="highcharts-markers highcharts-series-0 highcharts-column-series" data-z-index="0.1" opacity="1" transform="translate(590,351) rotate(90) scale(-1,1) scale(1 1)" clip-path="none"></g><g class="highcharts-series highcharts-series-1 highcharts-errorbar-series" data-z-index="0.1" opacity="1" transform="translate(590,351) rotate(90) scale(-1,1) scale(1 1)" clip-path="url(#highcharts-gypq8yq-68-)"><g class="highcharts-point"><path fill="none" class="highcharts-boxplot-stem" stroke="#000000" stroke-width="1" d="M 287.5 49 L 287.5 -22 M 287.5 49 L 287.5 49"></path><path fill="none" class="highcharts-boxplot-whisker" stroke="#000000" stroke-width="1" d="M 285.5 -21.5 L 289.5 -21.5 M 285.5 49.5 L 289.5 49.5"></path><path fill="none" class="highcharts-boxplot-median" stroke="#000000" stroke-width="2" d="M 0 0"></path></g><g class="highcharts-point"><path fill="none" class="highcharts-boxplot-stem" stroke="#000000" stroke-width="1" d="M 272.5 86 L 272.5 50 M 272.5 86 L 272.5 86"></path><path fill="none" class="highcharts-boxplot-whisker" stroke="#000000" stroke-width="1" d="M 270.5 50.5 L 274.5 50.5 M 270.5 86.5 L 274.5 86.5"></path><path fill="none" class="highcharts-boxplot-median" stroke="#000000" stroke-width="2" d="M 0 0"></path></g><g class="highcharts-point"><path fill="none" class="highcharts-boxplot-stem" stroke="#000000" stroke-width="1" d="M 258.5 95 L 258.5 41 M 258.5 95 L 258.5 95"></path><path fill="none" class="highcharts-boxplot-whisker" stroke="#000000" stroke-width="1" d="M 256.5 41.5 L 260.5 41.5 M 256.5 95.5 L 260.5 95.5"></path><path fill="none" class="highcharts-boxplot-median" stroke="#000000" stroke-width="2" d="M 0 0"></path></g><g class="highcharts-point"><path fill="none" class="highcharts-boxplot-stem" stroke="#000000" stroke-width="1" d="M 243.5 118 L 243.5 40 M 243.5 118 L 243.5 118"></path><path fill="none" class="highcharts-boxplot-whisker" stroke="#000000" stroke-width="1" d="M 241.5 40.5 L 245.5 40.5 M 241.5 118.5 L 245.5 118.5"></path><path fill="none" class="highcharts-boxplot-median" stroke="#000000" stroke-width="2" d="M 0 0"></path></g><g class="highcharts-point"><path fill="none" class="highcharts-boxplot-stem" stroke="#000000" stroke-width="1" d="M 228.5 135 L 228.5 101 M 228.5 135 L 228.5 135"></path><path fill="none" class="highcharts-boxplot-whisker" stroke="#000000" stroke-width="1" d="M 226.5 101.5 L 230.5 101.5 M 226.5 135.5 L 230.5 135.5"></path><path fill="none" class="highcharts-boxplot-median" stroke="#000000" stroke-width="2" d="M 0 0"></path></g><g class="highcharts-point"><path fill="none" class="highcharts-boxplot-stem" stroke="#000000" stroke-width="1" d="M 213.5 138 L 213.5 100 M 213.5 138 L 213.5 138"></path><path fill="none" class="highcharts-boxplot-whisker" stroke="#000000" stroke-width="1" d="M 211.5 100.5 L 215.5 100.5 M 211.5 138.5 L 215.5 138.5"></path><path fill="none" class="highcharts-boxplot-median" stroke="#000000" stroke-width="2" d="M 0 0"></path></g><g class="highcharts-point"><path fill="none" class="highcharts-boxplot-stem" stroke="#000000" stroke-width="1" d="M 199.5 144 L 199.5 95 M 199.5 144 L 199.5 144"></path><path fill="none" class="highcharts-boxplot-whisker" stroke="#000000" stroke-width="1" d="M 197.5 95.5 L 201.5 95.5 M 197.5 144.5 L 201.5 144.5"></path><path fill="none" class="highcharts-boxplot-median" stroke="#000000" stroke-width="2" d="M 0 0"></path></g><g class="highcharts-point"><path fill="none" class="highcharts-boxplot-stem" stroke="#000000" stroke-width="1" d="M 184.5 137 L 184.5 106 M 184.5 137 L 184.5 137"></path><path fill="none" class="highcharts-boxplot-whisker" stroke="#000000" stroke-width="1" d="M 182.5 106.5 L 186.5 106.5 M 182.5 137.5 L 186.5 137.5"></path><path fill="none" class="highcharts-boxplot-median" stroke="#000000" stroke-width="2" d="M 0 0"></path></g><g class="highcharts-point"><path fill="none" class="highcharts-boxplot-stem" stroke="#000000" stroke-width="1" d="M 169.5 166 L 169.5 122 M 169.5 166 L 169.5 166"></path><path fill="none" class="highcharts-boxplot-whisker" stroke="#000000" stroke-width="1" d="M 167.5 122.5 L 171.5 122.5 M 167.5 166.5 L 171.5 166.5"></path><path fill="none" class="highcharts-boxplot-median" stroke="#000000" stroke-width="2" d="M 0 0"></path></g><g class="highcharts-point"><path fill="none" class="highcharts-boxplot-stem" stroke="#000000" stroke-width="1" d="M 154.5 174 L 154.5 147 M 154.5 174 L 154.5 174"></path><path fill="none" class="highcharts-boxplot-whisker" stroke="#000000" stroke-width="1" d="M 152.5 147.5 L 156.5 147.5 M 152.5 174.5 L 156.5 174.5"></path><path fill="none" class="highcharts-boxplot-median" stroke="#000000" stroke-width="2" d="M 0 0"></path></g><g class="highcharts-point"><path fill="none" class="highcharts-boxplot-stem" stroke="#000000" stroke-width="1" d="M 140.5 193 L 140.5 161 M 140.5 193 L 140.5 193"></path><path fill="none" class="highcharts-boxplot-whisker" stroke="#000000" stroke-width="1" d="M 138.5 161.5 L 142.5 161.5 M 138.5 193.5 L 142.5 193.5"></path><path fill="none" class="highcharts-boxplot-median" stroke="#000000" stroke-width="2" d="M 0 0"></path></g><g class="highcharts-point"><path fill="none" class="highcharts-boxplot-stem" stroke="#000000" stroke-width="1" d="M 125.5 192 L 125.5 163 M 125.5 192 L 125.5 192"></path><path fill="none" class="highcharts-boxplot-whisker" stroke="#000000" stroke-width="1" d="M 123.5 163.5 L 127.5 163.5 M 123.5 192.5 L 127.5 192.5"></path><path fill="none" class="highcharts-boxplot-median" stroke="#000000" stroke-width="2" d="M 0 0"></path></g><g class="highcharts-point"><path fill="none" class="highcharts-boxplot-stem" stroke="#000000" stroke-width="1" d="M 110.5 196 L 110.5 173 M 110.5 196 L 110.5 196"></path><path fill="none" class="highcharts-boxplot-whisker" stroke="#000000" stroke-width="1" d="M 108.5 173.5 L 112.5 173.5 M 108.5 196.5 L 112.5 196.5"></path><path fill="none" class="highcharts-boxplot-median" stroke="#000000" stroke-width="2" d="M 0 0"></path></g><g class="highcharts-point"><path fill="none" class="highcharts-boxplot-stem" stroke="#000000" stroke-width="1" d="M 95.5 231 L 95.5 185 M 95.5 231 L 95.5 231"></path><path fill="none" class="highcharts-boxplot-whisker" stroke="#000000" stroke-width="1" d="M 93.5 185.5 L 97.5 185.5 M 93.5 231.5 L 97.5 231.5"></path><path fill="none" class="highcharts-boxplot-median" stroke="#000000" stroke-width="2" d="M 0 0"></path></g><g class="highcharts-point"><path fill="none" class="highcharts-boxplot-stem" stroke="#000000" stroke-width="1" d="M 81.5 241 L 81.5 182 M 81.5 241 L 81.5 241"></path><path fill="none" class="highcharts-boxplot-whisker" stroke="#000000" stroke-width="1" d="M 79.5 182.5 L 83.5 182.5 M 79.5 241.5 L 83.5 241.5"></path><path fill="none" class="highcharts-boxplot-median" stroke="#000000" stroke-width="2" d="M 0 0"></path></g><g class="highcharts-point"><path fill="none" class="highcharts-boxplot-stem" stroke="#000000" stroke-width="1" d="M 66.5 228 L 66.5 200 M 66.5 228 L 66.5 228"></path><path fill="none" class="highcharts-boxplot-whisker" stroke="#000000" stroke-width="1" d="M 64.5 200.5 L 68.5 200.5 M 64.5 228.5 L 68.5 228.5"></path><path fill="none" class="highcharts-boxplot-median" stroke="#000000" stroke-width="2" d="M 0 0"></path></g><g class="highcharts-point"><path fill="none" class="highcharts-boxplot-stem" stroke="#000000" stroke-width="1" d="M 51.5 256 L 51.5 219 M 51.5 256 L 51.5 256"></path><path fill="none" class="highcharts-boxplot-whisker" stroke="#000000" stroke-width="1" d="M 49.5 219.5 L 53.5 219.5 M 49.5 256.5 L 53.5 256.5"></path><path fill="none" class="highcharts-boxplot-median" stroke="#000000" stroke-width="2" d="M 0 0"></path></g><g class="highcharts-point"><path fill="none" class="highcharts-boxplot-stem" stroke="#000000" stroke-width="1" d="M 36.5 258 L 36.5 223 M 36.5 258 L 36.5 258"></path><path fill="none" class="highcharts-boxplot-whisker" stroke="#000000" stroke-width="1" d="M 34.5 223.5 L 38.5 223.5 M 34.5 258.5 L 38.5 258.5"></path><path fill="none" class="highcharts-boxplot-median" stroke="#000000" stroke-width="2" d="M 0 0"></path></g><g class="highcharts-point"><path fill="none" class="highcharts-boxplot-stem" stroke="#000000" stroke-width="1" d="M 22.5 331 L 22.5 292 M 22.5 331 L 22.5 331"></path><path fill="none" class="highcharts-boxplot-whisker" stroke="#000000" stroke-width="1" d="M 20.5 292.5 L 24.5 292.5 M 20.5 331.5 L 24.5 331.5"></path><path fill="none" class="highcharts-boxplot-median" stroke="#000000" stroke-width="2" d="M 0 0"></path></g><g class="highcharts-point"><path fill="none" class="highcharts-boxplot-stem" stroke="#000000" stroke-width="1" d="M 7.5 376 L 7.5 320 M 7.5 376 L 7.5 376"></path><path fill="none" class="highcharts-boxplot-whisker" stroke="#000000" stroke-width="1" d="M 5.5 320.5 L 9.5 320.5 M 5.5 376.5 L 9.5 376.5"></path><path fill="none" class="highcharts-boxplot-median" stroke="#000000" stroke-width="2" d="M 0 0"></path></g></g><g class="highcharts-markers highcharts-series-1 highcharts-errorbar-series" data-z-index="0.1" opacity="1" transform="translate(590,351) rotate(90) scale(-1,1) scale(1 1)" clip-path="none"></g></g><text x="10" text-anchor="start" class="highcharts-caption" data-z-index="4" style="color:#666666;fill:#666666;" y="385"></text><g class="highcharts-axis-labels highcharts-xaxis-labels" data-z-index="7"><text x="98" style="color:#000000;cursor:default;font-size:10px;fill:#000000;" text-anchor="end" transform="translate(0,0)" y="67" opacity="1"><tspan>Altstadt Grossbasel</tspan></text><text x="98" style="color:#000000;cursor:default;font-size:10px;fill:#000000;" text-anchor="end" transform="translate(0,0)" y="82" opacity="1"><tspan>Am Ring</tspan></text><text x="98" style="color:#000000;cursor:default;font-size:10px;fill:#000000;" text-anchor="end" transform="translate(0,0)" y="96" opacity="1">Vorstädte</text><text x="98" style="color:#000000;cursor:default;font-size:10px;fill:#000000;" text-anchor="end" transform="translate(0,0)" y="111" opacity="1"><tspan>Altstadt Kleinbasel</tspan></text><text x="98" style="color:#000000;cursor:default;font-size:10px;fill:#000000;" text-anchor="end" transform="translate(0,0)" y="126" opacity="1"><tspan>St. Alban</tspan></text><text x="98" style="color:#000000;cursor:default;font-size:10px;fill:#000000;" text-anchor="end" transform="translate(0,0)" y="141" opacity="1">Bruderholz</text><text x="98" style="color:#000000;cursor:default;font-size:10px;fill:#000000;" text-anchor="end" transform="translate(0,0)" y="155" opacity="1">Wettstein</text><text x="98" style="color:#000000;cursor:default;font-size:10px;fill:#000000;" text-anchor="end" transform="translate(0,0)" y="170" opacity="1">Bachletten</text><text x="98" style="color:#000000;cursor:default;font-size:10px;fill:#000000;" text-anchor="end" transform="translate(0,0)" y="185" opacity="1">Gotthelf</text><text x="98" style="color:#000000;cursor:default;font-size:10px;fill:#000000;" text-anchor="end" transform="translate(0,0)" y="200" opacity="1">Gundeldingen</text><text x="98" style="color:#000000;cursor:default;font-size:10px;fill:#000000;" text-anchor="end" transform="translate(0,0)" y="214" opacity="1">Matthäus</text><text x="98" style="color:#000000;cursor:default;font-size:10px;fill:#000000;" text-anchor="end" transform="translate(0,0)" y="229" opacity="1"><tspan>St. Johann</tspan></text><text x="98" style="color:#000000;cursor:default;font-size:10px;fill:#000000;" text-anchor="end" transform="translate(0,0)" y="244" opacity="1">Riehen/Bettingen</text><text x="98" style="color:#000000;cursor:default;font-size:10px;fill:#000000;" text-anchor="end" transform="translate(0,0)" y="259" opacity="1">Rosental</text><text x="98" style="color:#000000;cursor:default;font-size:10px;fill:#000000;" text-anchor="end" transform="translate(0,0)" y="273" opacity="1">Clara</text><text x="98" style="color:#000000;cursor:default;font-size:10px;fill:#000000;" text-anchor="end" transform="translate(0,0)" y="288" opacity="1">Iselin</text><text x="98" style="color:#000000;cursor:default;font-size:10px;fill:#000000;" text-anchor="end" transform="translate(0,0)" y="303" opacity="1">Breite</text><text x="98" style="color:#000000;cursor:default;font-size:10px;fill:#000000;" text-anchor="end" transform="translate(0,0)" y="318" opacity="1">Hirzbrunnen</text><text x="98" style="color:#000000;cursor:default;font-size:10px;fill:#000000;" text-anchor="end" transform="translate(0,0)" y="332" opacity="1">Klybeck</text><text x="98" style="color:#000000;cursor:default;font-size:10px;fill:#000000;" text-anchor="end" transform="translate(0,0)" y="347" opacity="1">Kleinhüningen</text></g><g class="highcharts-axis-labels highcharts-yaxis-labels" data-z-index="7"><text x="113" style="color:#000000;cursor:default;font-size:11px;fill:#000000;" text-anchor="middle" transform="translate(0,0)" y="370" opacity="1">0%</text><text x="181.14285714286" style="color:#000000;cursor:default;font-size:11px;fill:#000000;" text-anchor="middle" transform="translate(0,0)" y="370" opacity="1">10%</text><text x="249.28571428571" style="color:#000000;cursor:default;font-size:11px;fill:#000000;" text-anchor="middle" transform="translate(0,0)" y="370" opacity="1">20%</text><text x="317.42857142857" style="color:#000000;cursor:default;font-size:11px;fill:#000000;" text-anchor="middle" transform="translate(0,0)" y="370" opacity="1">30%</text><text x="385.57142857143" style="color:#000000;cursor:default;font-size:11px;fill:#000000;" text-anchor="middle" transform="translate(0,0)" y="370" opacity="1">40%</text><text x="453.71428571429" style="color:#000000;cursor:default;font-size:11px;fill:#000000;" text-anchor="middle" transform="translate(0,0)" y="370" opacity="1">50%</text><text x="521.85714285714" style="color:#000000;cursor:default;font-size:11px;fill:#000000;" text-anchor="middle" transform="translate(0,0)" y="370" opacity="1">60%</text><text x="579" style="color:#000000;cursor:default;font-size:11px;fill:#000000;" text-anchor="middle" transform="translate(0,0)" y="370" opacity="1">70%</text></g></svg>