<?xml version="1.0" standalone="no"?><!DOCTYPE svg PUBLIC "-//W3C//DTD SVG 1.1//EN" "http://www.w3.org/Graphics/SVG/1.1/DTD/svg11.dtd"><svg xmlns:xlink="http://www.w3.org/1999/xlink" version="1.1" class="highcharts-root" style="font-family:Inter,Helvetica Neue,Helvetica,Arial,sans-serif;font-size:12px;" xmlns="http://www.w3.org/2000/svg" width="600" height="428"><desc>Created with Highcharts 8.2.2</desc><defs><clipPath id="highcharts-yhxntev-35-"><rect x="0" y="0" width="553" height="252" fill="none"></rect></clipPath><clipPath id="highcharts-yhxntev-50-"><rect x="0" y="0" width="553" height="252" fill="none"></rect></clipPath><clipPath id="highcharts-yhxntev-65-"><rect x="37" y="99" width="553" height="252" fill="none"></rect></clipPath></defs><rect fill="#ffffff" class="highcharts-background" x="0" y="0" width="600" height="428" rx="0" ry="0"></rect><rect fill="none" class="highcharts-plot-background" x="37" y="99" width="553" height="252"></rect><g class="highcharts-pane-group" data-z-index="0"></g><g class="highcharts-grid highcharts-xaxis-grid" data-z-index="1"><path fill="none" data-z-index="1" class="highcharts-grid-line" d="M 41.5 99 L 41.5 351" opacity="1"></path><path fill="none" data-z-index="1" class="highcharts-grid-line" d="M 83.5 99 L 83.5 351" opacity="1"></path><path fill="none" data-z-index="1" class="highcharts-grid-line" d="M 125.5 99 L 125.5 351" opacity="1"></path><path fill="none" data-z-index="1" class="highcharts-grid-line" d="M 167.5 99 L 167.5 351" opacity="1"></path><path fill="none" data-z-index="1" class="highcharts-grid-line" d="M 208.5 99 L 208.5 351" opacity="1"></path><path fill="none" data-z-index="1" class="highcharts-grid-line" d="M 250.5 99 L 250.5 351" opacity="1"></path><path fill="none" data-z-index="1" class="highcharts-grid-line" d="M 292.5 99 L 292.5 351" opacity="1"></path><path fill="none" data-z-index="1" class="highcharts-grid-line" d="M 333.5 99 L 333.5 351" opacity="1"></path><path fill="none" data-z-index="1" class="highcharts-grid-line" d="M 375.5 99 L 375.5 351" opacity="1"></path><path fill="none" data-z-index="1" class="highcharts-grid-line" d="M 417.5 99 L 417.5 351" opacity="1"></path><path fill="none" data-z-index="1" class="highcharts-grid-line" d="M 458.5 99 L 458.5 351" opacity="1"></path><path fill="none" data-z-index="1" class="highcharts-grid-line" d="M 500.5 99 L 500.5 351" opacity="1"></path><path fill="none" data-z-index="1" class="highcharts-grid-line" d="M 542.5 99 L 542.5 351" opacity="1"></path><path fill="none" data-z-index="1" class="highcharts-grid-line" d="M 584.5 99 L 584.5 351" opacity="1"></path></g><g class="highcharts-grid highcharts-yaxis-grid" data-z-index="1"><path fill="none" stroke="#B9CFD7" stroke-width="0.5" data-z-index="1" class="highcharts-grid-line" d="M 37 351.25 L 590 351.25" opacity="1"></path><path fill="none" stroke="#B9CFD7" stroke-width="0.5" data-z-index="1" class="highcharts-grid-line" d="M 37 267.25 L 590 267.25" opacity="1"></path><path fill="none" stroke="#B9CFD7" stroke-width="0.5" data-z-index="1" class="highcharts-grid-line" d="M 37 183.25 L 590 183.25" opacity="1"></path><path fill="none" stroke="#B9CFD7" stroke-width="0.5" data-z-index="1" class="highcharts-grid-line" d="M 37 98.75 L 590 98.75" opacity="1"></path></g><rect fill="none" class="highcharts-plot-border" data-z-index="1" x="37" y="99" width="553" height="252"></rect><g class="highcharts-axis highcharts-xaxis" data-z-index="2"><path fill="none" class="highcharts-axis-line" stroke="#B9CFD7" stroke-width="0.5" data-z-index="7" d="M 37 351.25 L 590 351.25"></path></g><g class="highcharts-axis highcharts-yaxis" data-z-index="2"><path fill="none" class="highcharts-axis-line" data-z-index="7" d="M 37 99 L 37 351"></path></g><g class="highcharts-series-group" data-z-index="3"><g class="highcharts-series highcharts-series-0 highcharts-line-series" data-z-index="0.1" opacity="1" transform="translate(37,99) scale(1 1)" clip-path="url(#highcharts-yhxntev-50-)"><path fill="none" d="M 5.4215686274554 168 L 47.12594268477 147 L 88.830316742085 105 L 130.5346907994 105 L 172.23906485671 126 L 213.94343891403 105 L 255.64781297134 113.4 L 297.35218702866 58.79999999999998 L 339.05656108597 33.599999999999994 L 380.76093514329 109.19999999999999 L 422.4653092006 151.2 L 464.16968325792 92.4 L 505.87405731523 21 L 547.57843137254 84" class="highcharts-graph" data-z-index="1" stroke="#cd9c00" stroke-width="2" stroke-linejoin="round" stroke-linecap="round"></path></g><g class="highcharts-markers highcharts-series-0 highcharts-line-series" data-z-index="0.1" opacity="1" transform="translate(37,99) scale(1 1)" clip-path="none"></g><g class="highcharts-series highcharts-series-1 highcharts-line-series" data-z-index="0.1" opacity="1" transform="translate(37,99) scale(1 1)" clip-path="url(#highcharts-yhxntev-50-)"><path fill="none" d="M 5.4215686274554 243.6 L 47.12594268477 247.8 L 88.830316742085 222.6 L 130.5346907994 226.8 L 172.23906485671 247.8 L 213.94343891403 252 L 255.64781297134 205.8 L 297.35218702866 231 L 339.05656108597 197.4 L 380.76093514329 197.4 L 422.4653092006 88.19999999999999 L 464.16968325792 92.4 L 505.87405731523 159.6 L 547.57843137254 163.8" class="highcharts-graph" data-z-index="1" stroke="#b375ab" stroke-width="2" stroke-linejoin="round" stroke-linecap="round"></path></g><g class="highcharts-markers highcharts-series-1 highcharts-line-series" data-z-index="0.1" opacity="1" transform="translate(37,99) scale(1 1)" clip-path="none"></g></g><text x="10" text-anchor="start" class="highcharts-caption" data-z-index="4" style="color:#666666;fill:#666666;" y="385"></text><g class="highcharts-legend" data-z-index="7" transform="translate(29,56)"><rect fill="none" class="highcharts-legend-box" rx="0" ry="0" x="0" y="0" width="168" height="31" visibility="visible"></rect><g data-z-index="1"><g><g class="highcharts-legend-item highcharts-line-series highcharts-color-undefined highcharts-series-0" data-z-index="1" transform="translate(8,3)"><path fill="none" d="M 0 11 L 16 11" class="highcharts-graph" stroke="#cd9c00" stroke-width="2"></path><text x="21" style="color:#333333;cursor:pointer;font-size:12px;font-weight:normal;fill:#333333;" text-anchor="start" data-z-index="2" y="15"><tspan>Messe</tspan></text></g><g class="highcharts-legend-item highcharts-line-series highcharts-color-undefined highcharts-series-1" data-z-index="1" transform="translate(86,3)"><path fill="none" d="M 0 11 L 16 11" class="highcharts-graph" stroke="#b375ab" stroke-width="2"></path><text x="21" y="15" style="color:#333333;cursor:pointer;font-size:12px;font-weight:normal;fill:#333333;" text-anchor="start" data-z-index="2"><tspan>Erlenmatt</tspan></text></g></g></g></g><g class="highcharts-axis-labels highcharts-xaxis-labels" data-z-index="7"><text x="42.421568627455" style="color:#000000;cursor:default;font-size:11px;fill:#000000;" text-anchor="middle" transform="translate(0,0)" y="370" opacity="1">2009</text><text x="84.12594268477" style="color:#000000;cursor:default;font-size:11px;fill:#000000;" text-anchor="middle" transform="translate(0,0)" y="370" opacity="1">2010</text><text x="125.83031674208" style="color:#000000;cursor:default;font-size:11px;fill:#000000;" text-anchor="middle" transform="translate(0,0)" y="370" opacity="1">2011</text><text x="167.5346907994" style="color:#000000;cursor:default;font-size:11px;fill:#000000;" text-anchor="middle" transform="translate(0,0)" y="370" opacity="1">2012</text><text x="209.23906485671" style="color:#000000;cursor:default;font-size:11px;fill:#000000;" text-anchor="middle" transform="translate(0,0)" y="370" opacity="1">2013</text><text x="250.94343891403" style="color:#000000;cursor:default;font-size:11px;fill:#000000;" text-anchor="middle" transform="translate(0,0)" y="370" opacity="1">2014</text><text x="292.64781297134" style="color:#000000;cursor:default;font-size:11px;fill:#000000;" text-anchor="middle" transform="translate(0,0)" y="370" opacity="1">2015</text><text x="334.35218702866" style="color:#000000;cursor:default;font-size:11px;fill:#000000;" text-anchor="middle" transform="translate(0,0)" y="370" opacity="1">2016</text><text x="376.05656108597" style="color:#000000;cursor:default;font-size:11px;fill:#000000;" text-anchor="middle" transform="translate(0,0)" y="370" opacity="1">2017</text><text x="417.76093514329" style="color:#000000;cursor:default;font-size:11px;fill:#000000;" text-anchor="middle" transform="translate(0,0)" y="370" opacity="1">2018</text><text x="459.4653092006" style="color:#000000;cursor:default;font-size:11px;fill:#000000;" text-anchor="middle" transform="translate(0,0)" y="370" opacity="1">2019</text><text x="501.16968325792" style="color:#000000;cursor:default;font-size:11px;fill:#000000;" text-anchor="middle" transform="translate(0,0)" y="370" opacity="1">2020</text><text x="542.87405731523" style="color:#000000;cursor:default;font-size:11px;fill:#000000;" text-anchor="middle" transform="translate(0,0)" y="370" opacity="1">2021</text><text x="578" style="color:#000000;cursor:default;font-size:11px;fill:#000000;" text-anchor="middle" transform="translate(0,0)" y="370" opacity="1">2022</text></g><g class="highcharts-axis-labels highcharts-yaxis-labels" data-z-index="7"><text x="22" style="color:#000000;cursor:default;font-size:11px;fill:#000000;" text-anchor="end" transform="translate(0,0)" y="355" opacity="1">0</text><text x="22" style="color:#000000;cursor:default;font-size:11px;fill:#000000;" text-anchor="end" transform="translate(0,0)" y="271" opacity="1">20</text><text x="22" style="color:#000000;cursor:default;font-size:11px;fill:#000000;" text-anchor="end" transform="translate(0,0)" y="187" opacity="1">40</text><text x="22" style="color:#000000;cursor:default;font-size:11px;fill:#000000;" text-anchor="end" transform="translate(0,0)" y="103" opacity="1">60</text></g></svg>