<?xml version="1.0" standalone="no"?><!DOCTYPE svg PUBLIC "-//W3C//DTD SVG 1.1//EN" "http://www.w3.org/Graphics/SVG/1.1/DTD/svg11.dtd"><svg xmlns:xlink="http://www.w3.org/1999/xlink" version="1.1" class="highcharts-root" style="font-family:Arial;font-size:12px;" xmlns="http://www.w3.org/2000/svg" viewBox="0 0 485 415"><desc>Created with Highcharts 8.2.2</desc><defs><clipPath id="highcharts-4z6gd2z-535-"><rect x="0" y="0" width="435" height="207" fill="none"></rect></clipPath><clipPath id="highcharts-4z6gd2z-602-"><rect x="0" y="0" width="435" height="207" fill="none"></rect></clipPath><clipPath id="highcharts-4z6gd2z-1065-"><rect x="40" y="159" width="435" height="207" fill="none"></rect></clipPath></defs><rect fill="#fbfbfb" class="highcharts-background" x="0" y="0" width="485" height="428" rx="0" ry="0"></rect><rect fill="none" class="highcharts-plot-background" x="40" y="159" width="435" height="207"></rect><g class="highcharts-pane-group" data-z-index="0"></g><g class="highcharts-grid highcharts-xaxis-grid" data-z-index="1"><path fill="none" data-z-index="1" class="highcharts-grid-line" d="M 76.5 159 L 76.5 366" opacity="1"></path><path fill="none" data-z-index="1" class="highcharts-grid-line" d="M 142.5 159 L 142.5 366" opacity="1"></path><path fill="none" data-z-index="1" class="highcharts-grid-line" d="M 207.5 159 L 207.5 366" opacity="1"></path><path fill="none" data-z-index="1" class="highcharts-grid-line" d="M 273.5 159 L 273.5 366" opacity="1"></path><path fill="none" data-z-index="1" class="highcharts-grid-line" d="M 339.5 159 L 339.5 366" opacity="1"></path><path fill="none" data-z-index="1" class="highcharts-grid-line" d="M 404.5 159 L 404.5 366" opacity="1"></path><path fill="none" data-z-index="1" class="highcharts-grid-line" d="M 470.5 159 L 470.5 366" opacity="1"></path></g><g class="highcharts-grid highcharts-yaxis-grid" data-z-index="1"><path fill="none" stroke="#B9CFD7" stroke-width="0.5" data-z-index="1" class="highcharts-grid-line" d="M 40 366.25 L 475 366.25" opacity="1"></path><path fill="none" stroke="#B9CFD7" stroke-width="0.5" data-z-index="1" class="highcharts-grid-line" d="M 40 263.25 L 475 263.25" opacity="1"></path><path fill="none" stroke="#B9CFD7" stroke-width="0.5" data-z-index="1" class="highcharts-grid-line" d="M 40 158.75 L 475 158.75" opacity="1"></path></g><rect fill="none" class="highcharts-plot-border" data-z-index="1" x="40" y="159" width="435" height="207"></rect><g class="highcharts-axis highcharts-xaxis" data-z-index="2"><path fill="none" class="highcharts-axis-line" stroke="#B9CFD7" stroke-width="0.5" data-z-index="7" d="M 40 366.25 L 475 366.25"></path></g><g class="highcharts-axis highcharts-yaxis" data-z-index="2"><path fill="none" class="highcharts-axis-line" data-z-index="7" d="M 40 159 L 40 366"></path></g><g class="highcharts-series-group" data-z-index="3"><g class="highcharts-series highcharts-series-0 highcharts-line-series" data-z-index="0.1" opacity="1" transform="translate(40,159) scale(1 1)" clip-path="url(#highcharts-4z6gd2z-602-)"><path fill="none" d="M 4.2647058823535 102.051 L 10.825791855204 97.8075 L 17.386877828055 98.8425 L 23.947963800906 97.083 L 30.509049773756 102.15450000000001 L 37.070135746607 98.63550000000001 L 43.631221719457 95.5305 L 50.192307692308 100.188 L 56.753393665159 98.32499999999999 L 63.314479638009 108.054 L 69.87556561086 111.0555 L 76.436651583711 103.707 L 82.997737556561 117.4725 L 89.558823529412 108.882 L 96.119909502263 110.124 L 102.68099547511 112.9185 L 109.24208144796 112.09049999999999 L 115.80316742081 107.5365 L 122.36425339367 101.637 L 128.92533936652 105.2595 L 135.48642533937 98.2215 L 142.04751131222 106.605 L 148.60859728507 95.32350000000001 L 155.16968325792 99.6705 L 161.73076923077 90.5625 L 168.29185520362 84.35249999999999 L 174.85294117647 90.66599999999998 L 181.41402714932 85.1805 L 187.97511312217 91.07999999999998 L 194.53619909502 86.0085 L 201.09728506787 82.69649999999999 L 207.65837104072 87.35400000000001 L 214.21945701357 84.24900000000001 L 220.78054298643 90.5625 L 227.34162895928 93.8745 L 233.90271493213 90.66599999999998 L 240.46380090498 96.1515 L 247.02488687783 102.258 L 253.58597285068 104.742 L 260.14705882353 110.4345 L 266.70814479638 107.433" class="highcharts-graph" data-z-index="1" stroke="#007A2F" stroke-width="2" stroke-linejoin="round" stroke-linecap="round"></path></g><g class="highcharts-markers highcharts-series-0 highcharts-line-series" data-z-index="0.1" opacity="1" transform="translate(40,159) scale(1 1)" clip-path="none"></g><g class="highcharts-series highcharts-series-1 highcharts-line-series" data-z-index="0.1" opacity="1" transform="translate(40,159) scale(1 1)" clip-path="url(#highcharts-4z6gd2z-602-)"><path fill="none" d="M 273.26923076923 101.9475 L 279.83031674208 101.11950000000002 L 286.39140271493 100.4985 L 292.95248868778 100.0845 L 299.51357466063 99.774 L 306.07466063348 99.46350000000001 L 312.63574660633 99.15299999999999 L 319.19683257919 98.946 L 325.75791855204 98.73899999999999 L 332.31900452489 98.532 L 338.88009049774 98.32499999999999 L 345.44117647059 98.2215 L 352.00226244344 98.01450000000001 L 358.56334841629 97.911 L 365.12443438914 97.8075 L 371.68552036199 97.704 L 378.24660633484 97.497 L 384.80769230769 97.3935 L 391.36877828054 97.28999999999999 L 397.92986425339 97.18650000000001 L 404.49095022624 97.18650000000001 L 411.05203619909 97.083 L 417.61312217195 96.9795 L 424.1742081448 96.87599999999999 L 430.73529411765 96.77250000000001" class="highcharts-graph" data-z-index="1" stroke="#923F8D" stroke-width="2" stroke-linejoin="round" stroke-linecap="round"></path></g><g class="highcharts-markers highcharts-series-1 highcharts-line-series" data-z-index="0.1" opacity="1" transform="translate(40,159) scale(1 1)" clip-path="none"></g><g class="highcharts-series highcharts-series-2 highcharts-line-series" data-z-index="0.1" opacity="1" transform="translate(40,159) scale(1 1)" clip-path="url(#highcharts-4z6gd2z-602-)"><path fill="none" d="M 273.26923076923 109.089 L 279.83031674208 109.19250000000001 L 286.39140271493 109.19250000000001 L 292.95248868778 109.296 L 299.51357466063 109.296 L 306.07466063348 109.3995 L 312.63574660633 109.3995 L 319.19683257919 109.3995 L 325.75791855204 109.3995 L 332.31900452489 109.503 L 338.88009049774 109.503 L 345.44117647059 109.503 L 352.00226244344 109.503 L 358.56334841629 109.503 L 365.12443438914 109.503 L 371.68552036199 109.60650000000001 L 378.24660633484 109.60650000000001 L 384.80769230769 109.60650000000001 L 391.36877828054 109.60650000000001 L 397.92986425339 109.60650000000001 L 404.49095022624 109.60650000000001 L 411.05203619909 109.60650000000001 L 417.61312217195 109.60650000000001 L 424.1742081448 109.60650000000001 L 430.73529411765 109.71000000000001" class="highcharts-graph" data-z-index="1" stroke="#DC440E" stroke-width="2" stroke-linejoin="round" stroke-linecap="round"></path></g><g class="highcharts-markers highcharts-series-2 highcharts-line-series" data-z-index="0.1" opacity="1" transform="translate(40,159) scale(1 1)" clip-path="none"></g><g class="highcharts-series highcharts-series-3 highcharts-line-series" data-z-index="0.1" opacity="1" transform="translate(40,159) scale(1 1)" clip-path="url(#highcharts-4z6gd2z-602-)"><path fill="none" d="M 273.26923076923 116.2305 L 279.83031674208 117.2655 L 286.39140271493 117.99 L 292.95248868778 118.611 L 299.51357466063 119.025 L 306.07466063348 119.43900000000001 L 312.63574660633 119.7495 L 319.19683257919 120.06 L 325.75791855204 120.26700000000001 L 332.31900452489 120.5775 L 338.88009049774 120.78450000000001 L 345.44117647059 120.9915 L 352.00226244344 121.095 L 358.56334841629 121.302 L 365.12443438914 121.509 L 371.68552036199 121.61250000000001 L 378.24660633484 121.71600000000001 L 384.80769230769 121.923 L 391.36877828054 122.0265 L 397.92986425339 122.13000000000001 L 404.49095022624 122.2335 L 411.05203619909 122.337 L 417.61312217195 122.4405 L 424.1742081448 122.54400000000001 L 430.73529411765 122.64750000000001" class="highcharts-graph" data-z-index="1" stroke="#FFDA80" stroke-width="2" stroke-linejoin="round" stroke-linecap="round"></path></g><g class="highcharts-markers highcharts-series-3 highcharts-line-series" data-z-index="0.1" opacity="1" transform="translate(40,159) scale(1 1)" clip-path="none"></g><g class="highcharts-series highcharts-series-4 highcharts-line-series" data-z-index="0.1" opacity="1" transform="translate(40,159) scale(1 1)" clip-path="url(#highcharts-4z6gd2z-602-)"><path fill="none" d="M 4.2647058823535 49.9905 L 10.825791855204 42.435 L 17.386877828055 49.9905 L 23.947963800906 45.333 L 30.509049773756 49.472999999999985 L 37.070135746607 28.876499999999993 L 43.631221719457 16.04249999999999 L 50.192307692308 30.118499999999983 L 56.753393665159 25.461000000000013 L 63.314479638009 12.523500000000013 L 69.87556561086 30.015000000000015 L 76.436651583711 24.115499999999997 L 82.997737556561 17.491500000000002 L 89.558823529412 30.5325 L 96.119909502263 29.394000000000005 L 102.68099547511 25.875 L 109.24208144796 45.85050000000001 L 115.80316742081 40.36499999999998 L 122.36425339367 42.74549999999999 L 128.92533936652 45.746999999999986 L 135.48642533937 45.64350000000002 L 142.04751131222 33.2235 L 148.60859728507 51.956999999999994 L 155.16968325792 45.126000000000005 L 161.73076923077 43.98750000000001 L 168.29185520362 39.329999999999984 L 174.85294117647 40.572 L 181.41402714932 44.504999999999995 L 187.97511312217 32.08500000000001 L 194.53619909502 51.12899999999999 L 201.09728506787 46.989000000000004 L 207.65837104072 25.668000000000006 L 214.21945701357 47.196 L 220.78054298643 43.05599999999998 L 227.34162895928 48.230999999999995 L 233.90271493213 61.065 L 240.46380090498 50.8185 L 247.02488687783 77.93549999999999 L 253.58597285068 72.1395 L 260.14705882353 83.52449999999999 L 266.70814479638 78.34949999999998" class="highcharts-graph" data-z-index="1" stroke="#007A2F" stroke-width="2" stroke-dasharray="8,6"></path></g><g class="highcharts-markers highcharts-series-4 highcharts-line-series" data-z-index="0.1" opacity="1" transform="translate(40,159) scale(1 1)" clip-path="none"></g><g class="highcharts-series highcharts-series-5 highcharts-line-series" data-z-index="0.1" opacity="1" transform="translate(40,159) scale(1 1)" clip-path="url(#highcharts-4z6gd2z-602-)"><path fill="none" d="M 273.26923076923 68.82750000000001 L 279.83031674208 68.10299999999998 L 286.39140271493 67.482 L 292.95248868778 67.06799999999998 L 299.51357466063 66.7575 L 306.07466063348 66.447 L 312.63574660633 66.23999999999998 L 319.19683257919 66.03299999999999 L 325.75791855204 65.826 L 332.31900452489 65.619 L 338.88009049774 65.41199999999998 L 345.44117647059 65.30850000000001 L 352.00226244344 65.10149999999999 L 358.56334841629 64.99799999999999 L 365.12443438914 64.8945 L 371.68552036199 64.791 L 378.24660633484 64.6875 L 384.80769230769 64.584 L 391.36877828054 64.4805 L 397.92986425339 64.37700000000001 L 404.49095022624 64.27350000000001 L 411.05203619909 64.17000000000002 L 417.61312217195 64.17000000000002 L 424.1742081448 64.06649999999999 L 430.73529411765 63.96300000000002" class="highcharts-graph" data-z-index="1" stroke="#923F8D" stroke-width="2" stroke-dasharray="8,6"></path></g><g class="highcharts-markers highcharts-series-5 highcharts-line-series" data-z-index="0.1" opacity="1" transform="translate(40,159) scale(1 1)" clip-path="none"></g><g class="highcharts-series highcharts-series-6 highcharts-line-series" data-z-index="0.1" opacity="1" transform="translate(40,159) scale(1 1)" clip-path="url(#highcharts-4z6gd2z-602-)"><path fill="none" d="M 273.26923076923 80.41949999999999 L 279.83031674208 80.00549999999998 L 286.39140271493 79.79849999999999 L 292.95248868778 79.5915 L 299.51357466063 79.488 L 306.07466063348 79.38449999999999 L 312.63574660633 79.1775 L 319.19683257919 79.1775 L 325.75791855204 79.074 L 332.31900452489 78.97049999999999 L 338.88009049774 78.86699999999999 L 345.44117647059 78.86699999999999 L 352.00226244344 78.7635 L 358.56334841629 78.66 L 365.12443438914 78.66 L 371.68552036199 78.5565 L 378.24660633484 78.5565 L 384.80769230769 78.5565 L 391.36877828054 78.453 L 397.92986425339 78.453 L 404.49095022624 78.34949999999998 L 411.05203619909 78.34949999999998 L 417.61312217195 78.34949999999998 L 424.1742081448 78.24600000000001 L 430.73529411765 78.24600000000001" class="highcharts-graph" data-z-index="1" stroke="#DC440E" stroke-width="2" stroke-dasharray="8,6"></path></g><g class="highcharts-markers highcharts-series-6 highcharts-line-series" data-z-index="0.1" opacity="1" transform="translate(40,159) scale(1 1)" clip-path="none"></g><g class="highcharts-series highcharts-series-7 highcharts-line-series" data-z-index="0.1" opacity="1" transform="translate(40,159) scale(1 1)" clip-path="url(#highcharts-4z6gd2z-602-)"><path fill="none" d="M 273.26923076923 91.90799999999999 L 279.83031674208 92.0115 L 286.39140271493 92.115 L 292.95248868778 92.115 L 299.51357466063 92.115 L 306.07466063348 92.2185 L 312.63574660633 92.2185 L 319.19683257919 92.2185 L 325.75791855204 92.32199999999999 L 332.31900452489 92.32199999999999 L 338.88009049774 92.32199999999999 L 345.44117647059 92.32199999999999 L 352.00226244344 92.32199999999999 L 358.56334841629 92.4255 L 365.12443438914 92.4255 L 371.68552036199 92.4255 L 378.24660633484 92.4255 L 384.80769230769 92.4255 L 391.36877828054 92.4255 L 397.92986425339 92.4255 L 404.49095022624 92.4255 L 411.05203619909 92.529 L 417.61312217195 92.529 L 424.1742081448 92.529 L 430.73529411765 92.529" class="highcharts-graph" data-z-index="1" stroke="#FFDA80" stroke-width="2" stroke-dasharray="8,6"></path></g><g class="highcharts-markers highcharts-series-7 highcharts-line-series" data-z-index="0.1" opacity="1" transform="translate(40,159) scale(1 1)" clip-path="none"></g></g><text x="10" text-anchor="start" class="highcharts-title" data-z-index="4" style="color:#000000;font-size:14px;font-weight:bold;fill:#000000;" y="21"><tspan>Zusammengefasste Geburtenziffer nach Herkunft</tspan></text><text x="10" text-anchor="start" class="highcharts-subtitle" data-z-index="4" style="color:#000000;font-size:12px;font-weight:normal;fill:#000000;" y="40"><tspan>Bevölkerungsszenarien Basel-Stadt, 2026</tspan></text><text x="10" text-anchor="start" class="highcharts-caption" data-z-index="4" style="color:#666666;fill:#666666;" y="400"></text><g class="highcharts-legend" data-z-index="7" transform="translate(32,56)"><rect fill="none" class="highcharts-legend-box" rx="0" ry="0" x="0" y="0" width="356" height="91" visibility="visible"></rect><g data-z-index="1"><g><g class="highcharts-legend-item highcharts-line-series highcharts-color-undefined highcharts-series-0" data-z-index="1" transform="translate(8,3)"><path fill="none" d="M 0 11 L 16 11" class="highcharts-graph" stroke="#007A2F" stroke-width="2"></path><text x="21" style="color:#333333;cursor:pointer;font-size:12px;font-weight:normal;fill:#333333;" text-anchor="start" data-z-index="2" y="15"><tspan>Effektiv CH</tspan></text></g><g class="highcharts-legend-item highcharts-line-series highcharts-color-undefined highcharts-series-1" data-z-index="1" transform="translate(188,3)"><path fill="none" d="M 0 11 L 16 11" class="highcharts-graph" stroke="#923F8D" stroke-width="2"></path><text x="21" y="15" style="color:#333333;cursor:pointer;font-size:12px;font-weight:normal;fill:#333333;" text-anchor="start" data-z-index="2"><tspan>Hohes Szenario CH</tspan></text></g><g class="highcharts-legend-item highcharts-line-series highcharts-color-undefined highcharts-series-2" data-z-index="1" transform="translate(8,23)"><path fill="none" d="M 0 11 L 16 11" class="highcharts-graph" stroke="#DC440E" stroke-width="2"></path><text x="21" y="15" style="color:#333333;cursor:pointer;font-size:12px;font-weight:normal;fill:#333333;" text-anchor="start" data-z-index="2"><tspan>Mittleres Szenario CH</tspan></text></g><g class="highcharts-legend-item highcharts-line-series highcharts-color-undefined highcharts-series-3" data-z-index="1" transform="translate(188,23)"><path fill="none" d="M 0 11 L 16 11" class="highcharts-graph" stroke="#FFDA80" stroke-width="2"></path><text x="21" y="15" style="color:#333333;cursor:pointer;font-size:12px;font-weight:normal;fill:#333333;" text-anchor="start" data-z-index="2"><tspan>Tiefes Szenario CH</tspan></text></g><g class="highcharts-legend-item highcharts-line-series highcharts-color-undefined highcharts-series-4" data-z-index="1" transform="translate(8,43)"><path fill="none" d="M 0 11 L 16 11" class="highcharts-graph" stroke-dasharray="8,6" stroke="#007A2F" stroke-width="2"></path><text x="21" y="15" style="color:#333333;cursor:pointer;font-size:12px;font-weight:normal;fill:#333333;" text-anchor="start" data-z-index="2"><tspan>Effektiv AU</tspan></text></g><g class="highcharts-legend-item highcharts-line-series highcharts-color-undefined highcharts-series-5" data-z-index="1" transform="translate(188,43)"><path fill="none" d="M 0 11 L 16 11" class="highcharts-graph" stroke-dasharray="8,6" stroke="#923F8D" stroke-width="2"></path><text x="21" y="15" style="color:#333333;cursor:pointer;font-size:12px;font-weight:normal;fill:#333333;" text-anchor="start" data-z-index="2"><tspan>Hohes Szenario AU</tspan></text></g><g class="highcharts-legend-item highcharts-line-series highcharts-color-undefined highcharts-series-6" data-z-index="1" transform="translate(8,63)"><path fill="none" d="M 0 11 L 16 11" class="highcharts-graph" stroke-dasharray="8,6" stroke="#DC440E" stroke-width="2"></path><text x="21" y="15" style="color:#333333;cursor:pointer;font-size:12px;font-weight:normal;fill:#333333;" text-anchor="start" data-z-index="2"><tspan>Mittleres Szenario AU</tspan></text></g><g class="highcharts-legend-item highcharts-line-series highcharts-color-undefined highcharts-series-7" data-z-index="1" transform="translate(188,63)"><path fill="none" d="M 0 11 L 16 11" class="highcharts-graph" stroke-dasharray="8,6" stroke="#FFDA80" stroke-width="2"></path><text x="21" y="15" style="color:#333333;cursor:pointer;font-size:12px;font-weight:normal;fill:#333333;" text-anchor="start" data-z-index="2"><tspan>Tiefes Szenario AU</tspan></text></g></g></g></g><g class="highcharts-axis-labels highcharts-xaxis-labels" data-z-index="7"><text x="77.070135746607" style="color:#000000;cursor:default;font-size:11px;fill:#000000;" text-anchor="middle" transform="translate(0,0)" y="385" opacity="1">1990</text><text x="142.68099547511" style="color:#000000;cursor:default;font-size:11px;fill:#000000;" text-anchor="middle" transform="translate(0,0)" y="385" opacity="1">2000</text><text x="208.29185520362" style="color:#000000;cursor:default;font-size:11px;fill:#000000;" text-anchor="middle" transform="translate(0,0)" y="385" opacity="1">2010</text><text x="273.90271493213" style="color:#000000;cursor:default;font-size:11px;fill:#000000;" text-anchor="middle" transform="translate(0,0)" y="385" opacity="1">2020</text><text x="339.51357466063" style="color:#000000;cursor:default;font-size:11px;fill:#000000;" text-anchor="middle" transform="translate(0,0)" y="385" opacity="1">2030</text><text x="405.12443438914" style="color:#000000;cursor:default;font-size:11px;fill:#000000;" text-anchor="middle" transform="translate(0,0)" y="385" opacity="1">2040</text><text x="463" style="color:#000000;cursor:default;font-size:11px;fill:#000000;" text-anchor="middle" transform="translate(0,0)" y="385" opacity="1">2050</text></g><g class="highcharts-axis-labels highcharts-yaxis-labels" data-z-index="7"><text x="25" style="color:#000000;cursor:default;font-size:11px;fill:#000000;" text-anchor="end" transform="translate(0,0)" y="370" opacity="1">0.0</text><text x="25" style="color:#000000;cursor:default;font-size:11px;fill:#000000;" text-anchor="end" transform="translate(0,0)" y="267" opacity="1">1.0</text><text x="25" style="color:#000000;cursor:default;font-size:11px;fill:#000000;" text-anchor="end" transform="translate(0,0)" y="163" opacity="1">2.0</text></g><text x="10" class="highcharts-credits" text-anchor="start" data-z-index="8" style="cursor:default;color:#000000;font-size:10px;fill:#000000;" y="403"><tspan>Quelle: Statistisches Amt Basel-Stadt, Bevölkerungsszenarien.</tspan><tspan x="10" dy="13">Zuletzt geändert: 16.7.2026</tspan></text><g class="highcharts-control-points" data-z-index="99" clip-path="url(#highcharts-4z6gd2z-1065-)"></g></svg>