<?xml version="1.0" standalone="no"?><!DOCTYPE svg PUBLIC "-//W3C//DTD SVG 1.1//EN" "http://www.w3.org/Graphics/SVG/1.1/DTD/svg11.dtd"><svg xmlns:xlink="http://www.w3.org/1999/xlink" version="1.1" class="highcharts-root" style="font-family:Arial;font-size:12px;" xmlns="http://www.w3.org/2000/svg" viewBox="0 0 485 415"><desc>Created with Highcharts 8.0.0</desc><defs><clipPath id="highcharts-ydwyfql-230-"><rect x="0" y="0" width="410" height="252" fill="none"></rect></clipPath><clipPath id="highcharts-ydwyfql-287-"><rect x="0" y="0" width="410" height="252" fill="none"></rect></clipPath></defs><rect fill="#fbfbfb" class="highcharts-background" x="0" y="0" width="485" height="428" rx="0" ry="0"></rect><rect fill="none" class="highcharts-plot-background" x="65" y="116" width="410" height="252"></rect><g class="highcharts-pane-group" data-z-index="0"></g><g class="highcharts-grid highcharts-xaxis-grid" data-z-index="1"><path fill="none" data-z-index="1" class="highcharts-grid-line" d="M 105.5 116 L 105.5 368" opacity="1"></path><path fill="none" data-z-index="1" class="highcharts-grid-line" d="M 178.5 116 L 178.5 368" opacity="1"></path><path fill="none" data-z-index="1" class="highcharts-grid-line" d="M 251.5 116 L 251.5 368" opacity="1"></path><path fill="none" data-z-index="1" class="highcharts-grid-line" d="M 324.5 116 L 324.5 368" opacity="1"></path><path fill="none" data-z-index="1" class="highcharts-grid-line" d="M 397.5 116 L 397.5 368" opacity="1"></path><path fill="none" data-z-index="1" class="highcharts-grid-line" d="M 470.5 116 L 470.5 368" opacity="1"></path></g><g class="highcharts-grid highcharts-yaxis-grid" data-z-index="1"><path fill="none" stroke="#B9CFD7" stroke-width="0.5" data-z-index="1" class="highcharts-grid-line" d="M 65 368.25 L 475 368.25" opacity="1"></path><path fill="none" stroke="#B9CFD7" stroke-width="0.5" data-z-index="1" class="highcharts-grid-line" d="M 65 305.25 L 475 305.25" opacity="1"></path><path fill="none" stroke="#B9CFD7" stroke-width="0.5" data-z-index="1" class="highcharts-grid-line" d="M 65 242.25 L 475 242.25" opacity="1"></path><path fill="none" stroke="#B9CFD7" stroke-width="0.5" data-z-index="1" class="highcharts-grid-line" d="M 65 179.25 L 475 179.25" opacity="1"></path><path fill="none" stroke="#B9CFD7" stroke-width="0.5" data-z-index="1" class="highcharts-grid-line" d="M 65 115.75 L 475 115.75" opacity="1"></path></g><rect fill="none" class="highcharts-plot-border" data-z-index="1" x="65" y="116" width="410" height="252"></rect><g class="highcharts-axis highcharts-xaxis" data-z-index="2"><path fill="none" class="highcharts-axis-line" stroke="#B9CFD7" stroke-width="0.5" data-z-index="7" d="M 65 368.25 L 475 368.25"></path></g><g class="highcharts-axis highcharts-yaxis" data-z-index="2"><path fill="none" class="highcharts-axis-line" data-z-index="7" d="M 65 116 L 65 368"></path></g><g class="highcharts-series-group" data-z-index="3"><g data-z-index="0.1" class="highcharts-series highcharts-series-0 highcharts-line-series" transform="translate(65,116) scale(1 1)" clip-path="url(#highcharts-ydwyfql-287-)"><path fill="none" d="M 4.0196078431369 119.65464 L 11.32798573975 121.52447999999998 L 18.636363636363 122.14187999999999 L 25.944741532977 122.45184 L 33.25311942959 122.87771999999998 L 40.561497326203 121.55975999999998 L 47.869875222816 120.05027999999999 L 55.178253119429 119.81843999999998 L 62.486631016043 118.99943999999999 L 69.795008912656 119.68992 L 77.103386809269 120.32244 L 84.411764705882 120.85667999999998 L 91.720142602495 122.69628 L 99.028520499109 124.54596 L 106.33689839572 125.9622 L 113.64527629233 127.38852 L 120.95365418895 128.00088 L 128.26203208556 126.34272 L 135.57040998217 125.94959999999999 L 142.87878787879 125.68751999999999 L 150.1871657754 126.06299999999999 L 157.49554367201 126.14112 L 164.80392156863 126.29231999999999 L 172.11229946524 124.40988 L 179.42067736185 123.44976 L 186.72905525847 124.02431999999999 L 194.03743315508 122.58539999999999 L 201.34581105169 121.59755999999999 L 208.65418894831 120.0906 L 215.96256684492 118.82303999999999 L 223.27094474153 116.92548 L 230.57932263815 115.98552000000001 L 237.88770053476 116.00316000000001 L 245.19607843137 115.50168" class="highcharts-graph" data-z-index="1" stroke="#007A2F" stroke-width="2" stroke-linejoin="round" stroke-linecap="round"></path></g><g data-z-index="0.1" class="highcharts-markers highcharts-series-0 highcharts-line-series" transform="translate(65,116) scale(1 1)" clip-path="none"></g><g data-z-index="0.1" class="highcharts-series highcharts-series-1 highcharts-line-series" transform="translate(65,116) scale(1 1)" clip-path="url(#highcharts-ydwyfql-287-)"><path fill="none" d="M 252.50445632799 113.81327999999999 L 259.8128342246 111.53772000000001 L 267.12121212121 108.79847999999998 L 274.42959001783 105.66612 L 281.73796791444 102.21876 L 289.04634581105 98.54208 L 296.35472370767 94.7268 L 303.66310160428 90.86112 L 310.97147950089 87.02568 L 318.2798573975 83.29103999999998 L 325.58823529412 79.70759999999999 L 332.89661319073 76.30308 L 340.20499108734 73.08251999999999 L 347.51336898396 70.01568 L 354.82174688057 67.06475999999998 L 362.13012477718 64.16927999999999 L 369.4385026738 61.27884 L 376.74688057041 58.34304 L 384.05525846702 55.339200000000005 L 391.36363636364 52.244640000000004 L 398.67201426025 49.05431999999999 L 405.98039215686 45.76571999999999" class="highcharts-graph" data-z-index="1" stroke="#923F8D" stroke-width="2" stroke-linejoin="round" stroke-linecap="round"></path></g><g data-z-index="0.1" class="highcharts-markers highcharts-series-1 highcharts-line-series" transform="translate(65,116) scale(1 1)" clip-path="none"></g><g data-z-index="0.1" class="highcharts-series highcharts-series-2 highcharts-line-series" transform="translate(65,116) scale(1 1)" clip-path="url(#highcharts-ydwyfql-287-)"><path fill="none" d="M 252.50445632799 114.77088 L 259.8128342246 113.7276 L 267.12121212121 112.4676 L 274.42959001783 111.0438 L 281.73796791444 109.49652 L 289.04634581105 107.87616 L 296.35472370767 106.22808 L 303.66310160428 104.59008 L 310.97147950089 103.00247999999999 L 318.2798573975 101.493 L 325.58823529412 100.08936 L 332.89661319073 98.79659999999998 L 340.20499108734 97.61472 L 347.51336898396 96.52356 L 354.82174688057 95.49539999999999 L 362.13012477718 94.49748 L 369.4385026738 93.49452 L 376.74688057041 92.4588 L 384.05525846702 91.3752 L 391.36363636364 90.23615999999998 L 398.67201426025 89.03915999999998 L 405.98039215686 87.77915999999999" class="highcharts-graph" data-z-index="1" stroke="#DC440E" stroke-width="2" stroke-linejoin="round" stroke-linecap="round"></path></g><g data-z-index="0.1" class="highcharts-markers highcharts-series-2 highcharts-line-series" transform="translate(65,116) scale(1 1)" clip-path="none"></g><g data-z-index="0.1" class="highcharts-series highcharts-series-3 highcharts-line-series" transform="translate(65,116) scale(1 1)" clip-path="url(#highcharts-ydwyfql-287-)"><path fill="none" d="M 252.50445632799 115.84943999999999 L 259.8128342246 116.13672 L 267.12121212121 116.424 L 274.42959001783 116.72388000000001 L 281.73796791444 117.04643999999999 L 289.04634581105 117.39168000000001 L 296.35472370767 117.75204 L 303.66310160428 118.11995999999999 L 310.97147950089 118.4904 L 318.2798573975 118.85579999999999 L 325.58823529412 119.21112 L 332.89661319073 119.56139999999999 L 340.20499108734 119.90412 L 347.51336898396 120.24683999999999 L 354.82174688057 120.58956 L 362.13012477718 120.93984 L 369.4385026738 121.29767999999999 L 376.74688057041 121.66559999999998 L 384.05525846702 122.04612 L 391.36363636364 122.43672000000001 L 398.67201426025 122.83992 L 405.98039215686 123.25319999999999" class="highcharts-graph" data-z-index="1" stroke="#FFDA80" stroke-width="2" stroke-linejoin="round" stroke-linecap="round"></path></g><g data-z-index="0.1" class="highcharts-markers highcharts-series-3 highcharts-line-series" transform="translate(65,116) scale(1 1)" clip-path="none"></g></g><text x="10" text-anchor="start" class="highcharts-title" data-z-index="4" style="color:#000000;font-size:14px;font-weight:bold;fill:#000000;" y="21"><tspan>Bevölkerung Kleinbasel</tspan></text><text x="10" text-anchor="start" class="highcharts-subtitle" data-z-index="4" style="color:#000000;font-size:12px;font-weight:normal;font-family:Arial;fill:#000000;" y="40"><tspan>Bevölkerungsszenarien Basel-Stadt, 2019</tspan></text><text x="10" text-anchor="start" class="highcharts-caption" data-z-index="4" style="color:#666666;fill:#666666;" y="400"></text><g class="highcharts-legend" data-z-index="7" transform="translate(57,55)"><rect fill="none" class="highcharts-legend-box" rx="0" ry="0" x="0" y="0" width="296" height="49" visibility="visible"></rect><g data-z-index="1"><g><g class="highcharts-legend-item highcharts-line-series highcharts-color-undefined highcharts-series-0" data-z-index="1" transform="translate(8,3)"><path fill="none" d="M 0 11 L 16 11" class="highcharts-graph" stroke="#007A2F" stroke-width="2"></path><text x="21" style="color:#333333;cursor:pointer;font-size:12px;font-weight:normal;fill:#333333;" text-anchor="start" data-z-index="2" y="15"><tspan>Effektiv</tspan></text></g><g class="highcharts-legend-item highcharts-line-series highcharts-color-undefined highcharts-series-1" data-z-index="1" transform="translate(158,3)"><path fill="none" d="M 0 11 L 16 11" class="highcharts-graph" stroke="#923F8D" stroke-width="2"></path><text x="21" y="15" style="color:#333333;cursor:pointer;font-size:12px;font-weight:normal;fill:#333333;" text-anchor="start" data-z-index="2"><tspan>Hohes Szenario</tspan></text></g><g class="highcharts-legend-item highcharts-line-series highcharts-color-undefined highcharts-series-2" data-z-index="1" transform="translate(8,22)"><path fill="none" d="M 0 11 L 16 11" class="highcharts-graph" stroke="#DC440E" stroke-width="2"></path><text x="21" y="15" style="color:#333333;cursor:pointer;font-size:12px;font-weight:normal;fill:#333333;" text-anchor="start" data-z-index="2"><tspan>Mittleres Szenario</tspan></text></g><g class="highcharts-legend-item highcharts-line-series highcharts-color-undefined highcharts-series-3" data-z-index="1" transform="translate(158,22)"><path fill="none" d="M 0 11 L 16 11" class="highcharts-graph" stroke="#FFDA80" stroke-width="2"></path><text x="21" y="15" style="color:#333333;cursor:pointer;font-size:12px;font-weight:normal;fill:#333333;" text-anchor="start" data-z-index="2"><tspan>Tiefes Szenario</tspan></text></g></g></g></g><g class="highcharts-axis-labels highcharts-xaxis-labels" data-z-index="7"><text x="105.5614973262" style="color:#000000;cursor:default;font-size:11px;fill:#000000;" text-anchor="middle" transform="translate(0,0)" y="387" opacity="1">1990</text><text x="178.64527629233" style="color:#000000;cursor:default;font-size:11px;fill:#000000;" text-anchor="middle" transform="translate(0,0)" y="387" opacity="1">2000</text><text x="251.72905525847" style="color:#000000;cursor:default;font-size:11px;fill:#000000;" text-anchor="middle" transform="translate(0,0)" y="387" opacity="1">2010</text><text x="324.8128342246" style="color:#000000;cursor:default;font-size:11px;fill:#000000;" text-anchor="middle" transform="translate(0,0)" y="387" opacity="1">2020</text><text x="397.89661319073" style="color:#000000;cursor:default;font-size:11px;fill:#000000;" text-anchor="middle" transform="translate(0,0)" y="387" opacity="1">2030</text><text x="462.78125" style="color:#000000;cursor:default;font-size:11px;fill:#000000;" text-anchor="middle" transform="translate(0,0)" y="387" opacity="1">2040</text></g><g class="highcharts-axis-labels highcharts-yaxis-labels" data-z-index="7"><text x="50" style="color:#000000;cursor:default;font-size:11px;fill:#000000;" text-anchor="end" transform="translate(0,0)" y="373" opacity="1">0</text><text x="50" style="color:#000000;cursor:default;font-size:11px;fill:#000000;" text-anchor="end" transform="translate(0,0)" y="310" opacity="1"><tspan>25 000</tspan></text><text x="50" style="color:#000000;cursor:default;font-size:11px;fill:#000000;" text-anchor="end" transform="translate(0,0)" y="247" opacity="1"><tspan>50 000</tspan></text><text x="50" style="color:#000000;cursor:default;font-size:11px;fill:#000000;" text-anchor="end" transform="translate(0,0)" y="184" opacity="1"><tspan>75 000</tspan></text><text x="50" style="color:#000000;cursor:default;font-size:11px;fill:#000000;" text-anchor="end" transform="translate(0,0)" y="121" opacity="1"><tspan>100 000</tspan></text></g><text x="10" class="highcharts-credits" text-anchor="start" data-z-index="8" style="cursor:default;color:#000000;font-size:10px;fill:#000000;" y="403"><tspan>Quelle: Statistisches Amt Basel-Stadt, Bevölkerungsszenarien.</tspan><tspan x="10" dy="13">Zuletzt geändert: 2019-7-15</tspan></text></svg>