<svg version="1.1" class="highcharts-root" style="font-family: Arial; font-size: 1rem;" xmlns="http://www.w3.org/2000/svg" width="600" height="400" viewBox="0 0 600 400" role="img" aria-label="Altersquotient"><desc>Created with Highcharts 12.5.0</desc><defs><filter id="highcharts-drop-shadow-0"><feDropShadow dx="1" dy="1" flood-color="#000000" flood-opacity="0.75" stdDeviation="2.5"></feDropShadow></filter><clipPath id="highcharts-4cjnde0-1020-"><rect x="0" y="0" width="551" height="208" fill="none"></rect></clipPath></defs><rect fill="#ffffff" class="highcharts-background" filter="none" x="0" y="0" width="600" height="400" rx="0" ry="0"></rect><rect fill="none" class="highcharts-plot-background" x="39" y="122" width="551" height="208" filter="none"></rect><g class="highcharts-pane-group" data-z-index="0"></g><g class="highcharts-grid highcharts-xaxis-grid" data-z-index="1"><path fill="none" stroke="#e6e6e6" stroke-width="0" stroke-dasharray="none" data-z-index="1" class="highcharts-grid-line" d="M 89.5 122 L 89.5 330" opacity="1"></path><path fill="none" stroke="#e6e6e6" stroke-width="0" stroke-dasharray="none" data-z-index="1" class="highcharts-grid-line" d="M 179.5 122 L 179.5 330" opacity="1"></path><path fill="none" stroke="#e6e6e6" stroke-width="0" stroke-dasharray="none" data-z-index="1" class="highcharts-grid-line" d="M 269.5 122 L 269.5 330" opacity="1"></path><path fill="none" stroke="#e6e6e6" stroke-width="0" stroke-dasharray="none" data-z-index="1" class="highcharts-grid-line" d="M 359.5 122 L 359.5 330" opacity="1"></path><path fill="none" stroke="#e6e6e6" stroke-width="0" stroke-dasharray="none" data-z-index="1" class="highcharts-grid-line" d="M 449.5 122 L 449.5 330" opacity="1"></path><path fill="none" stroke="#e6e6e6" stroke-width="0" stroke-dasharray="none" data-z-index="1" class="highcharts-grid-line" d="M 539.5 122 L 539.5 330" opacity="1"></path></g><g class="highcharts-grid highcharts-yaxis-grid" data-z-index="1"><path fill="none" stroke="#B9CFD7" stroke-width="0.5" stroke-dasharray="none" data-z-index="1" class="highcharts-grid-line" d="M 39 330.25 L 590 330.25" opacity="1"></path><path fill="none" stroke="#B9CFD7" stroke-width="0.5" stroke-dasharray="none" data-z-index="1" class="highcharts-grid-line" d="M 39 278.25 L 590 278.25" opacity="1"></path><path fill="none" stroke="#B9CFD7" stroke-width="0.5" stroke-dasharray="none" data-z-index="1" class="highcharts-grid-line" d="M 39 226.25 L 590 226.25" opacity="1"></path><path fill="none" stroke="#B9CFD7" stroke-width="0.5" stroke-dasharray="none" data-z-index="1" class="highcharts-grid-line" d="M 39 174.25 L 590 174.25" opacity="1"></path><path fill="none" stroke="#B9CFD7" stroke-width="0.5" stroke-dasharray="none" data-z-index="1" class="highcharts-grid-line" d="M 39 122.25 L 590 122.25" opacity="1"></path></g><rect fill="none" class="highcharts-plot-border" data-z-index="1" stroke="#cccccc" stroke-width="0" x="39" y="122" width="551" height="208"></rect><g class="highcharts-axis highcharts-xaxis" data-z-index="2"><path fill="none" class="highcharts-axis-line" stroke="#B9CFD7" stroke-width="0.5" data-z-index="7" d="M 39 330.25 L 590 330.25"></path></g><g class="highcharts-axis highcharts-yaxis" data-z-index="2"><path fill="none" class="highcharts-axis-line" stroke="#B9CFD7" stroke-width="0" data-z-index="7" d="M 39 122 L 39 330"></path></g><g class="highcharts-series-group" data-z-index="3" filter="none"><g class="highcharts-series highcharts-series-0 highcharts-line-series" data-z-index="0.1" opacity="1" transform="translate(39,122) scale(1 1)" clip-path="url(#highcharts-4cjnde0-1020-)"><path fill="none" d="M 5.4019607843129 48.984 L 14.405228758169 46.072 L 23.408496732025 44.46 L 32.411764705882 43.004 L 41.415032679738 41.548 L 50.418300653594 42.64 L 59.42156862745 42.9 L 68.424836601307 43.264 L 77.428104575163 43.108 L 86.431372549019 40.976 L 95.434640522875 39.52 L 104.43790849673 37.856 L 113.44117647059 35.828 L 122.44444444444 35.1 L 131.4477124183 33.176 L 140.45098039216 31.928 L 149.45424836601 31.98 L 158.45751633987 35.048 L 167.46078431373 36.92 L 176.46405228758 37.908 L 185.46732026144 37.908 L 194.47058823529 38.324 L 203.47385620915 38.116 L 212.47712418301 39.676 L 221.48039215686 41.496 L 230.48366013072 42.12 L 239.48692810458 43.316 L 248.49019607843 44.356 L 257.49346405229 45.708 L 266.49673202614 46.436 L 275.5 47.164 L 284.50326797386 48.152 L 293.50653594771 48.88 L 302.50980392157 49.712 L 311.51307189542 49.972 L 320.51633986928 51.636 L 329.51960784314 50.232 L 338.52287581699 51.324 L 347.52614379085 51.324 L 356.52941176471 50.804" class="highcharts-graph" data-z-index="1" stroke="#007A2F" stroke-width="2" stroke-linejoin="round" stroke-linecap="round" filter="none"></path><path fill="none" d="M 5.4019607843129 48.984 L 14.405228758169 46.072 L 23.408496732025 44.46 L 32.411764705882 43.004 L 41.415032679738 41.548 L 50.418300653594 42.64 L 59.42156862745 42.9 L 68.424836601307 43.264 L 77.428104575163 43.108 L 86.431372549019 40.976 L 95.434640522875 39.52 L 104.43790849673 37.856 L 113.44117647059 35.828 L 122.44444444444 35.1 L 131.4477124183 33.176 L 140.45098039216 31.928 L 149.45424836601 31.98 L 158.45751633987 35.048 L 167.46078431373 36.92 L 176.46405228758 37.908 L 185.46732026144 37.908 L 194.47058823529 38.324 L 203.47385620915 38.116 L 212.47712418301 39.676 L 221.48039215686 41.496 L 230.48366013072 42.12 L 239.48692810458 43.316 L 248.49019607843 44.356 L 257.49346405229 45.708 L 266.49673202614 46.436 L 275.5 47.164 L 284.50326797386 48.152 L 293.50653594771 48.88 L 302.50980392157 49.712 L 311.51307189542 49.972 L 320.51633986928 51.636 L 329.51960784314 50.232 L 338.52287581699 51.324 L 347.52614379085 51.324 L 356.52941176471 50.804" data-z-index="2" class="highcharts-tracker-line" stroke-linecap="round" stroke-linejoin="round" stroke="rgba(192,192,192,0.0001)" stroke-width="22"></path></g><g class="highcharts-markers highcharts-series-0 highcharts-line-series highcharts-tracker" data-z-index="0.1" opacity="1" transform="translate(39,122) scale(1 1)" clip-path="none"></g><g class="highcharts-series highcharts-series-1 highcharts-line-series" data-z-index="0.1" opacity="1" transform="translate(39,122) scale(1 1)" clip-path="url(#highcharts-4cjnde0-1020-)"><path fill="none" d="M 365.53267973856 50.336 L 374.53594771242 50.284 L 383.53921568627 50.232 L 392.54248366013 49.712 L 401.54575163399 48.932 L 410.54901960784 48.516 L 419.5522875817 48.36 L 428.55555555556 49.036 L 437.55882352941 49.66 L 446.56209150327 50.388 L 455.56535947712 51.532 L 464.56862745098 52.676 L 473.57189542484 53.768 L 482.57516339869 54.652 L 491.57843137255 54.912 L 500.58169934641 55.172 L 509.58496732026 55.12 L 518.58823529412 54.652 L 527.59150326797 54.288 L 536.59477124183 53.716 L 545.59803921569 52.728" class="highcharts-graph" data-z-index="1" stroke="#923F8D" stroke-width="2" stroke-linejoin="round" stroke-linecap="round" filter="none"></path><path fill="none" d="M 365.53267973856 50.336 L 374.53594771242 50.284 L 383.53921568627 50.232 L 392.54248366013 49.712 L 401.54575163399 48.932 L 410.54901960784 48.516 L 419.5522875817 48.36 L 428.55555555556 49.036 L 437.55882352941 49.66 L 446.56209150327 50.388 L 455.56535947712 51.532 L 464.56862745098 52.676 L 473.57189542484 53.768 L 482.57516339869 54.652 L 491.57843137255 54.912 L 500.58169934641 55.172 L 509.58496732026 55.12 L 518.58823529412 54.652 L 527.59150326797 54.288 L 536.59477124183 53.716 L 545.59803921569 52.728" data-z-index="2" class="highcharts-tracker-line" stroke-linecap="round" stroke-linejoin="round" stroke="rgba(192,192,192,0.0001)" stroke-width="22"></path></g><g class="highcharts-markers highcharts-series-1 highcharts-line-series highcharts-tracker" data-z-index="0.1" opacity="1" transform="translate(39,122) scale(1 1)" clip-path="none"></g><g class="highcharts-series highcharts-series-2 highcharts-line-series" data-z-index="0.1" opacity="1" transform="translate(39,122) scale(1 1)" clip-path="url(#highcharts-4cjnde0-1020-)"><path fill="none" d="M 365.53267973856 50.024 L 374.53594771242 49.66 L 383.53921568627 49.348 L 392.54248366013 48.568 L 401.54575163399 47.476 L 410.54901960784 46.8 L 419.5522875817 46.332 L 428.55555555556 46.696 L 437.55882352941 46.956 L 446.56209150327 47.424 L 455.56535947712 48.256 L 464.56862745098 49.244 L 473.57189542484 50.232 L 482.57516339869 51.012 L 491.57843137255 51.272 L 500.58169934641 51.584 L 509.58496732026 51.636 L 518.58823529412 51.324 L 527.59150326797 51.168 L 536.59477124183 50.856 L 545.59803921569 50.024" class="highcharts-graph" data-z-index="1" stroke="#DC440E" stroke-width="2" stroke-linejoin="round" stroke-linecap="round" filter="none"></path><path fill="none" d="M 365.53267973856 50.024 L 374.53594771242 49.66 L 383.53921568627 49.348 L 392.54248366013 48.568 L 401.54575163399 47.476 L 410.54901960784 46.8 L 419.5522875817 46.332 L 428.55555555556 46.696 L 437.55882352941 46.956 L 446.56209150327 47.424 L 455.56535947712 48.256 L 464.56862745098 49.244 L 473.57189542484 50.232 L 482.57516339869 51.012 L 491.57843137255 51.272 L 500.58169934641 51.584 L 509.58496732026 51.636 L 518.58823529412 51.324 L 527.59150326797 51.168 L 536.59477124183 50.856 L 545.59803921569 50.024" data-z-index="2" class="highcharts-tracker-line" stroke-linecap="round" stroke-linejoin="round" stroke="rgba(192,192,192,0.0001)" stroke-width="22"></path></g><g class="highcharts-markers highcharts-series-2 highcharts-line-series highcharts-tracker" data-z-index="0.1" opacity="1" transform="translate(39,122) scale(1 1)" clip-path="none"></g><g class="highcharts-series highcharts-series-3 highcharts-line-series" data-z-index="0.1" opacity="1" transform="translate(39,122) scale(1 1)" clip-path="url(#highcharts-4cjnde0-1020-)"><path fill="none" d="M 365.53267973856 49.4 L 374.53594771242 48.412 L 383.53921568627 47.476 L 392.54248366013 46.124 L 401.54575163399 44.408 L 410.54901960784 43.056 L 419.5522875817 41.912 L 428.55555555556 41.6 L 437.55882352941 41.236 L 446.56209150327 41.08 L 455.56535947712 41.392 L 464.56862745098 41.964 L 473.57189542484 42.64 L 482.57516339869 43.212 L 491.57843137255 43.316 L 500.58169934641 43.68 L 509.58496732026 43.784 L 518.58823529412 43.576 L 527.59150326797 43.68 L 536.59477124183 43.68 L 545.59803921569 43.108" class="highcharts-graph" data-z-index="1" stroke="#FFDA80" stroke-width="2" stroke-linejoin="round" stroke-linecap="round" filter="none"></path><path fill="none" d="M 365.53267973856 49.4 L 374.53594771242 48.412 L 383.53921568627 47.476 L 392.54248366013 46.124 L 401.54575163399 44.408 L 410.54901960784 43.056 L 419.5522875817 41.912 L 428.55555555556 41.6 L 437.55882352941 41.236 L 446.56209150327 41.08 L 455.56535947712 41.392 L 464.56862745098 41.964 L 473.57189542484 42.64 L 482.57516339869 43.212 L 491.57843137255 43.316 L 500.58169934641 43.68 L 509.58496732026 43.784 L 518.58823529412 43.576 L 527.59150326797 43.68 L 536.59477124183 43.68 L 545.59803921569 43.108" data-z-index="2" class="highcharts-tracker-line" stroke-linecap="round" stroke-linejoin="round" stroke="rgba(192,192,192,0.0001)" stroke-width="22"></path></g><g class="highcharts-markers highcharts-series-3 highcharts-line-series highcharts-tracker" data-z-index="0.1" opacity="1" transform="translate(39,122) scale(1 1)" clip-path="none"></g></g><text x="10" text-anchor="start" class="highcharts-caption" data-z-index="4" style="font-size: 0.8em; fill: rgb(102, 102, 102);" text-align="left" y="372" transform-origin="10 15" transform="translate(0,0) scale(1 1)"></text><g class="highcharts-axis-labels highcharts-xaxis-labels" data-z-index="7"><text x="89.418300653594" text-anchor="middle" transform="translate(0,0)" style="cursor: default; font-size: 0.8em; fill: rgb(0, 0, 0);" y="357" opacity="1">1990</text><text x="179.45098039216" text-anchor="middle" transform="translate(0,0)" style="cursor: default; font-size: 0.8em; fill: rgb(0, 0, 0);" y="357" opacity="1">2000</text><text x="269.48366013072" text-anchor="middle" transform="translate(0,0)" style="cursor: default; font-size: 0.8em; fill: rgb(0, 0, 0);" y="357" opacity="1">2010</text><text x="359.51633986928" text-anchor="middle" transform="translate(0,0)" style="cursor: default; font-size: 0.8em; fill: rgb(0, 0, 0);" y="357" opacity="1">2020</text><text x="449.54901960784" text-anchor="middle" transform="translate(0,0)" style="cursor: default; font-size: 0.8em; fill: rgb(0, 0, 0);" y="357" opacity="1">2030</text><text x="539.58169934641" text-anchor="middle" transform="translate(0,0)" style="cursor: default; font-size: 0.8em; fill: rgb(0, 0, 0);" y="357" opacity="1">2040</text></g><g class="highcharts-axis-labels highcharts-yaxis-labels" data-z-index="7"><text x="24" text-anchor="end" transform="translate(0,0)" style="cursor: default; font-size: 0.8em; fill: rgb(0, 0, 0);" y="335" opacity="1">0</text><text x="24" text-anchor="end" transform="translate(0,0)" style="cursor: default; font-size: 0.8em; fill: rgb(0, 0, 0);" y="283" opacity="1">10</text><text x="24" text-anchor="end" transform="translate(0,0)" style="cursor: default; font-size: 0.8em; fill: rgb(0, 0, 0);" y="231" opacity="1">20</text><text x="24" text-anchor="end" transform="translate(0,0)" style="cursor: default; font-size: 0.8em; fill: rgb(0, 0, 0);" y="179" opacity="1">30</text><text x="24" text-anchor="end" transform="translate(0,0)" style="cursor: default; font-size: 0.8em; fill: rgb(0, 0, 0);" y="127" opacity="1">40</text></g><g class="highcharts-legend highcharts-no-tooltip" data-z-index="7" text-align="left" transform="translate(31,55)"><rect fill="none" class="highcharts-legend-box" rx="0" ry="0" stroke="#999999" stroke-width="0" filter="none" x="0" y="0" width="446" height="55"></rect><g data-z-index="1"><g><g class="highcharts-legend-item highcharts-line-series highcharts-color-undefined highcharts-series-0" data-z-index="1" transform="translate(8,3)"><path fill="none" class="highcharts-graph" stroke-width="2" stroke-linecap="round" d="M 1 13 L 15 13" stroke="#007A2F"></path><text x="21" text-anchor="start" data-z-index="2" style="cursor: pointer; font-size: 0.8em; text-decoration: none; font-weight: normal; fill: rgb(51, 51, 51);" y="17">Effektiv</text></g><g class="highcharts-legend-item highcharts-line-series highcharts-color-undefined highcharts-series-1" data-z-index="1" transform="translate(158,3)"><path fill="none" class="highcharts-graph" stroke-width="2" stroke-linecap="round" d="M 1 13 L 15 13" stroke="#923F8D"></path><text x="21" y="17" text-anchor="start" data-z-index="2" style="cursor: pointer; font-size: 0.8em; text-decoration: none; font-weight: normal; fill: rgb(51, 51, 51);">Hohes Szenario</text></g><g class="highcharts-legend-item highcharts-line-series highcharts-color-undefined highcharts-series-2" data-z-index="1" transform="translate(308,3)"><path fill="none" class="highcharts-graph" stroke-width="2" stroke-linecap="round" d="M 1 13 L 15 13" stroke="#DC440E"></path><text x="21" y="17" text-anchor="start" data-z-index="2" style="cursor: pointer; font-size: 0.8em; text-decoration: none; font-weight: normal; fill: rgb(51, 51, 51);">Mittleres Szenario</text></g><g class="highcharts-legend-item highcharts-line-series highcharts-color-undefined highcharts-series-3" data-z-index="1" transform="translate(8,25)"><path fill="none" class="highcharts-graph" stroke-width="2" stroke-linecap="round" d="M 1 13 L 15 13" stroke="#FFDA80"></path><text x="21" y="17" text-anchor="start" data-z-index="2" style="cursor: pointer; font-size: 0.8em; text-decoration: none; font-weight: normal; fill: rgb(51, 51, 51);">Tiefes Szenario</text></g></g></g></g></svg>