<?xml version="1.0" standalone="no"?><!DOCTYPE svg PUBLIC "-//W3C//DTD SVG 1.1//EN" "http://www.w3.org/Graphics/SVG/1.1/DTD/svg11.dtd"><svg xmlns:xlink="http://www.w3.org/1999/xlink" version="1.1" class="highcharts-root" style="font-family:Arial;font-size:12px;" xmlns="http://www.w3.org/2000/svg" viewBox="0 0 485 415"><desc>Created with Highcharts 8.1.2</desc><defs><clipPath id="highcharts-hfqqata-231-"><rect x="0" y="0" width="436" height="251" fill="none"></rect></clipPath><clipPath id="highcharts-hfqqata-288-"><rect x="0" y="0" width="436" height="251" fill="none"></rect></clipPath><clipPath id="highcharts-hfqqata-457-"><rect x="39" y="116" width="436" height="251" fill="none"></rect></clipPath></defs><rect fill="#fbfbfb" class="highcharts-background" x="0" y="0" width="485" height="428" rx="0" ry="0"></rect><rect fill="none" class="highcharts-plot-background" x="39" y="116" width="436" height="251"></rect><g class="highcharts-pane-group" data-z-index="0"></g><g class="highcharts-grid highcharts-xaxis-grid" data-z-index="1"><path fill="none" data-z-index="1" class="highcharts-grid-line" d="M 81.5 116 L 81.5 367" opacity="1"></path><path fill="none" data-z-index="1" class="highcharts-grid-line" d="M 159.5 116 L 159.5 367" opacity="1"></path><path fill="none" data-z-index="1" class="highcharts-grid-line" d="M 237.5 116 L 237.5 367" opacity="1"></path><path fill="none" data-z-index="1" class="highcharts-grid-line" d="M 314.5 116 L 314.5 367" opacity="1"></path><path fill="none" data-z-index="1" class="highcharts-grid-line" d="M 392.5 116 L 392.5 367" opacity="1"></path><path fill="none" data-z-index="1" class="highcharts-grid-line" d="M 470.5 116 L 470.5 367" opacity="1"></path></g><g class="highcharts-grid highcharts-yaxis-grid" data-z-index="1"><path fill="none" stroke="#B9CFD7" stroke-width="0.5" data-z-index="1" class="highcharts-grid-line" d="M 39 367.25 L 475 367.25" opacity="1"></path><path fill="none" stroke="#B9CFD7" stroke-width="0.5" data-z-index="1" class="highcharts-grid-line" d="M 39 304.25 L 475 304.25" opacity="1"></path><path fill="none" stroke="#B9CFD7" stroke-width="0.5" data-z-index="1" class="highcharts-grid-line" d="M 39 242.25 L 475 242.25" opacity="1"></path><path fill="none" stroke="#B9CFD7" stroke-width="0.5" data-z-index="1" class="highcharts-grid-line" d="M 39 179.25 L 475 179.25" opacity="1"></path><path fill="none" stroke="#B9CFD7" stroke-width="0.5" data-z-index="1" class="highcharts-grid-line" d="M 39 115.75 L 475 115.75" opacity="1"></path></g><rect fill="none" class="highcharts-plot-border" data-z-index="1" x="39" y="116" width="436" height="251"></rect><g class="highcharts-axis highcharts-xaxis" data-z-index="2"><path fill="none" class="highcharts-axis-line" stroke="#B9CFD7" stroke-width="0.5" data-z-index="7" d="M 39 367.25 L 475 367.25"></path></g><g class="highcharts-axis highcharts-yaxis" data-z-index="2"><path fill="none" class="highcharts-axis-line" data-z-index="7" d="M 39 116 L 39 367"></path></g><g class="highcharts-series-group" data-z-index="3"><g class="highcharts-series highcharts-series-0 highcharts-line-series" data-z-index="0.1" opacity="1" transform="translate(39,116) scale(1 1)" clip-path="url(#highcharts-hfqqata-288-)"><path fill="none" d="M 4.2745098039212 59.1105 L 12.046345811051 55.59649999999999 L 19.818181818181 53.651250000000005 L 27.590017825312 51.89424999999997 L 35.361853832442 50.137249999999995 L 43.133689839572 51.454999999999984 L 50.905525846702 51.76875000000001 L 58.677361853832 52.20799999999997 L 66.449197860962 52.019750000000016 L 74.221033868092 49.447 L 81.992869875223 47.69 L 89.764705882353 45.682000000000016 L 97.536541889483 43.23474999999999 L 105.30837789661 42.35624999999999 L 113.08021390374 40.03450000000001 L 120.85204991087 38.52849999999998 L 128.623885918 38.591249999999974 L 136.39572192513 42.293499999999995 L 144.16755793226 44.55249999999998 L 151.93939393939 45.74475000000001 L 159.71122994652 45.74475000000001 L 167.48306595365 46.24675000000002 L 175.25490196078 45.995750000000015 L 183.02673796791 47.87825000000001 L 190.79857397504 50.0745 L 198.57040998217 50.827499999999986 L 206.3422459893 52.27075000000002 L 214.11408199643 53.525750000000016 L 221.88591800357 55.157250000000005 L 229.6577540107 56.03575000000001 L 237.42959001783 56.91424999999998 L 245.20142602496 58.10649999999998 L 252.97326203209 58.985000000000014 L 260.74509803922 59.989000000000004 L 268.51693404635 60.30275" class="highcharts-graph" data-z-index="1" stroke="#007A2F" stroke-width="2" stroke-linejoin="round" stroke-linecap="round"></path></g><g class="highcharts-markers highcharts-series-0 highcharts-line-series" data-z-index="0.1" opacity="1" transform="translate(39,116) scale(1 1)" clip-path="none"></g><g class="highcharts-series highcharts-series-1 highcharts-line-series" data-z-index="0.1" opacity="1" transform="translate(39,116) scale(1 1)" clip-path="url(#highcharts-hfqqata-288-)"><path fill="none" d="M 276.28877005348 60.679249999999996 L 284.06060606061 60.3655 L 291.83244206774 60.55375000000001 L 299.60427807487 60.86750000000001 L 307.376114082 60.992999999999995 L 315.14795008913 60.3655 L 322.91978609626 60.42824999999999 L 330.69162210339 60.491000000000014 L 338.46345811052 60.30275 L 346.23529411765 59.486999999999995 L 354.00713012478 58.92225000000002 L 361.77896613191 57.91825000000003 L 369.55080213904 57.60450000000003 L 377.32263814617 56.977000000000004 L 385.0944741533 56.474999999999994 L 392.86631016043 56.286749999999984 L 400.63814616756 56.03575000000001 L 408.40998217469 56.0985 L 416.18181818182 56.03575000000001 L 423.95365418895 55.59649999999999 L 431.72549019608 55.59649999999999" class="highcharts-graph" data-z-index="1" stroke="#923F8D" stroke-width="2" stroke-linejoin="round" stroke-linecap="round"></path></g><g class="highcharts-markers highcharts-series-1 highcharts-line-series" data-z-index="0.1" opacity="1" transform="translate(39,116) scale(1 1)" clip-path="none"></g><g class="highcharts-series highcharts-series-2 highcharts-line-series" data-z-index="0.1" opacity="1" transform="translate(39,116) scale(1 1)" clip-path="url(#highcharts-hfqqata-288-)"><path fill="none" d="M 276.28877005348 59.92625000000001 L 284.06060606061 58.85949999999997 L 291.83244206774 58.23200000000003 L 299.60427807487 57.60450000000003 L 307.376114082 56.78874999999999 L 315.14795008913 55.03174999999999 L 322.91978609626 53.90225000000001 L 330.69162210339 52.71000000000001 L 338.46345811052 51.26674999999997 L 346.23529411765 49.133250000000004 L 354.00713012478 47.501750000000015 L 361.77896613191 45.493750000000006 L 369.55080213904 44.48974999999999 L 377.32263814617 43.36024999999998 L 385.0944741533 42.35624999999999 L 392.86631016043 41.85425000000001 L 400.63814616756 41.35225 L 408.40998217469 41.164000000000016 L 416.18181818182 40.787499999999994 L 423.95365418895 39.971750000000014 L 431.72549019608 39.658000000000015" class="highcharts-graph" data-z-index="1" stroke="#DC440E" stroke-width="2" stroke-linejoin="round" stroke-linecap="round"></path></g><g class="highcharts-markers highcharts-series-2 highcharts-line-series" data-z-index="0.1" opacity="1" transform="translate(39,116) scale(1 1)" clip-path="none"></g><g class="highcharts-series highcharts-series-3 highcharts-line-series" data-z-index="0.1" opacity="1" transform="translate(39,116) scale(1 1)" clip-path="url(#highcharts-hfqqata-288-)"><path fill="none" d="M 276.28877005348 58.92225000000002 L 284.06060606061 56.663250000000005 L 291.83244206774 54.90625 L 299.60427807487 53.149249999999995 L 307.376114082 51.07849999999999 L 315.14795008913 48.12925000000001 L 322.91978609626 45.74475000000001 L 330.69162210339 43.297499999999985 L 338.46345811052 40.662000000000006 L 346.23529411765 37.33624999999998 L 354.00713012478 34.57525000000001 L 361.77896613191 31.500499999999988 L 369.55080213904 29.743499999999983 L 377.32263814617 27.86099999999999 L 385.0944741533 26.355000000000018 L 392.86631016043 25.476500000000016 L 400.63814616756 24.597999999999985 L 408.40998217469 24.158749999999998 L 416.18181818182 23.53125 L 423.95365418895 22.464499999999987 L 431.72549019608 21.83699999999999" class="highcharts-graph" data-z-index="1" stroke="#FFDA80" stroke-width="2" stroke-linejoin="round" stroke-linecap="round"></path></g><g class="highcharts-markers highcharts-series-3 highcharts-line-series" data-z-index="0.1" opacity="1" transform="translate(39,116) scale(1 1)" clip-path="none"></g></g><text x="10" text-anchor="start" class="highcharts-title" data-z-index="4" style="color:#000000;font-size:14px;font-weight:bold;fill:#000000;" y="21"><tspan>Altersquotient</tspan></text><text x="10" text-anchor="start" class="highcharts-subtitle" data-z-index="4" style="color:#000000;font-size:12px;font-weight:normal;font-family:Arial;fill:#000000;" y="40"><tspan>Bevölkerungsszenarien Basel-Stadt, 2020</tspan></text><text x="10" text-anchor="start" class="highcharts-caption" data-z-index="4" style="color:#666666;fill:#666666;" y="400"></text><g class="highcharts-legend" data-z-index="7" transform="translate(31,55)"><rect fill="none" class="highcharts-legend-box" rx="0" ry="0" x="0" y="0" width="296" height="49" visibility="visible"></rect><g data-z-index="1"><g><g class="highcharts-legend-item highcharts-line-series highcharts-color-undefined highcharts-series-0" data-z-index="1" transform="translate(8,3)"><path fill="none" d="M 0 11 L 16 11" class="highcharts-graph" stroke="#007A2F" stroke-width="2"></path><text x="21" style="color:#333333;cursor:pointer;font-size:12px;font-weight:normal;fill:#333333;" text-anchor="start" data-z-index="2" y="15"><tspan>Effektiv</tspan></text></g><g class="highcharts-legend-item highcharts-line-series highcharts-color-undefined highcharts-series-1" data-z-index="1" transform="translate(158,3)"><path fill="none" d="M 0 11 L 16 11" class="highcharts-graph" stroke="#923F8D" stroke-width="2"></path><text x="21" y="15" style="color:#333333;cursor:pointer;font-size:12px;font-weight:normal;fill:#333333;" text-anchor="start" data-z-index="2"><tspan>Hohes Szenario</tspan></text></g><g class="highcharts-legend-item highcharts-line-series highcharts-color-undefined highcharts-series-2" data-z-index="1" transform="translate(8,22)"><path fill="none" d="M 0 11 L 16 11" class="highcharts-graph" stroke="#DC440E" stroke-width="2"></path><text x="21" y="15" style="color:#333333;cursor:pointer;font-size:12px;font-weight:normal;fill:#333333;" text-anchor="start" data-z-index="2"><tspan>Mittleres Szena…</tspan><title>Mittleres Szenario</title></text></g><g class="highcharts-legend-item highcharts-line-series highcharts-color-undefined highcharts-series-3" data-z-index="1" transform="translate(158,22)"><path fill="none" d="M 0 11 L 16 11" class="highcharts-graph" stroke="#FFDA80" stroke-width="2"></path><text x="21" y="15" style="color:#333333;cursor:pointer;font-size:12px;font-weight:normal;fill:#333333;" text-anchor="start" data-z-index="2"><tspan>Tiefes Szenario</tspan></text></g></g></g></g><g class="highcharts-axis-labels highcharts-xaxis-labels" data-z-index="7"><text x="82.133689839572" style="color:#000000;cursor:default;font-size:11px;fill:#000000;" text-anchor="middle" transform="translate(0,0)" y="386" opacity="1">1990</text><text x="159.85204991087" style="color:#000000;cursor:default;font-size:11px;fill:#000000;" text-anchor="middle" transform="translate(0,0)" y="386" opacity="1">2000</text><text x="237.57040998217" style="color:#000000;cursor:default;font-size:11px;fill:#000000;" text-anchor="middle" transform="translate(0,0)" y="386" opacity="1">2010</text><text x="315.28877005348" style="color:#000000;cursor:default;font-size:11px;fill:#000000;" text-anchor="middle" transform="translate(0,0)" y="386" opacity="1">2020</text><text x="393.00713012478" style="color:#000000;cursor:default;font-size:11px;fill:#000000;" text-anchor="middle" transform="translate(0,0)" y="386" opacity="1">2030</text><text x="461.03125" style="color:#000000;cursor:default;font-size:11px;fill:#000000;" text-anchor="middle" transform="translate(0,0)" y="386" opacity="1">2040</text></g><g class="highcharts-axis-labels highcharts-yaxis-labels" data-z-index="7"><text x="24" style="color:#000000;cursor:default;font-size:11px;fill:#000000;" text-anchor="end" transform="translate(0,0)" y="372" opacity="1">0</text><text x="24" style="color:#000000;cursor:default;font-size:11px;fill:#000000;" text-anchor="end" transform="translate(0,0)" y="309" opacity="1">10</text><text x="24" style="color:#000000;cursor:default;font-size:11px;fill:#000000;" text-anchor="end" transform="translate(0,0)" y="246" opacity="1">20</text><text x="24" style="color:#000000;cursor:default;font-size:11px;fill:#000000;" text-anchor="end" transform="translate(0,0)" y="183" opacity="1">30</text><text x="24" style="color:#000000;cursor:default;font-size:11px;fill:#000000;" text-anchor="end" transform="translate(0,0)" y="121" opacity="1">40</text></g><text x="10" class="highcharts-credits" text-anchor="start" data-z-index="8" style="cursor:default;color:#000000;font-size:10px;fill:#000000;" y="403"><tspan>Quelle: Statistisches Amt Basel-Stadt, Bevölkerungsszenarien.</tspan><tspan x="10" dy="13">Zuletzt geändert: 2020-7-14</tspan></text><g class="highcharts-control-points" data-z-index="99" clip-path="url(#highcharts-hfqqata-457-)"></g></svg>