<?xml version="1.0" standalone="no"?><!DOCTYPE svg PUBLIC "-//W3C//DTD SVG 1.1//EN" "http://www.w3.org/Graphics/SVG/1.1/DTD/svg11.dtd"><svg xmlns:xlink="http://www.w3.org/1999/xlink" version="1.1" class="highcharts-root" style="font-family:Arial;font-size:12px;" xmlns="http://www.w3.org/2000/svg" viewBox="0 0 485 415"><desc>Created with Highcharts 8.2.2</desc><defs><clipPath id="highcharts-r906z9v-271-"><rect x="0" y="0" width="423" height="247" fill="none"></rect></clipPath><clipPath id="highcharts-r906z9v-338-"><rect x="0" y="0" width="423" height="247" fill="none"></rect></clipPath><clipPath id="highcharts-r906z9v-537-"><rect x="52" y="119" width="423" height="247" fill="none"></rect></clipPath></defs><rect fill="#fbfbfb" class="highcharts-background" x="0" y="0" width="485" height="428" rx="0" ry="0"></rect><rect fill="none" class="highcharts-plot-background" x="52" y="119" width="423" height="247"></rect><g class="highcharts-pane-group" data-z-index="0"></g><g class="highcharts-grid highcharts-xaxis-grid" data-z-index="1"><path fill="none" data-z-index="1" class="highcharts-grid-line" d="M 87.5 119 L 87.5 366" opacity="1"></path><path fill="none" data-z-index="1" class="highcharts-grid-line" d="M 151.5 119 L 151.5 366" opacity="1"></path><path fill="none" data-z-index="1" class="highcharts-grid-line" d="M 215.5 119 L 215.5 366" opacity="1"></path><path fill="none" data-z-index="1" class="highcharts-grid-line" d="M 278.5 119 L 278.5 366" opacity="1"></path><path fill="none" data-z-index="1" class="highcharts-grid-line" d="M 342.5 119 L 342.5 366" opacity="1"></path><path fill="none" data-z-index="1" class="highcharts-grid-line" d="M 406.5 119 L 406.5 366" opacity="1"></path><path fill="none" data-z-index="1" class="highcharts-grid-line" d="M 470.5 119 L 470.5 366" opacity="1"></path></g><g class="highcharts-grid highcharts-yaxis-grid" data-z-index="1"><path fill="none" stroke="#B9CFD7" stroke-width="0.5" data-z-index="1" class="highcharts-grid-line" d="M 52 366.25 L 475 366.25" opacity="1"></path><path fill="none" stroke="#B9CFD7" stroke-width="0.5" data-z-index="1" class="highcharts-grid-line" d="M 52 284.25 L 475 284.25" opacity="1"></path><path fill="none" stroke="#B9CFD7" stroke-width="0.5" data-z-index="1" class="highcharts-grid-line" d="M 52 201.25 L 475 201.25" opacity="1"></path><path fill="none" stroke="#B9CFD7" stroke-width="0.5" data-z-index="1" class="highcharts-grid-line" d="M 52 118.75 L 475 118.75" opacity="1"></path></g><rect fill="none" class="highcharts-plot-border" data-z-index="1" x="52" y="119" width="423" height="247"></rect><g class="highcharts-axis highcharts-xaxis" data-z-index="2"><path fill="none" class="highcharts-axis-line" stroke="#B9CFD7" stroke-width="0.5" data-z-index="7" d="M 52 366.25 L 475 366.25"></path></g><g class="highcharts-axis highcharts-yaxis" data-z-index="2"><path fill="none" class="highcharts-axis-line" data-z-index="7" d="M 52 119 L 52 366"></path></g><g class="highcharts-series-group" data-z-index="3"><g class="highcharts-series highcharts-series-0 highcharts-line-series" data-z-index="0.1" opacity="1" transform="translate(52,119) scale(1 1)" clip-path="url(#highcharts-r906z9v-338-)"><path fill="none" d="M 4.14705882353 105.38666666666668 L 10.527149321268 99.12933333333334 L 16.907239819005 102.25800000000001 L 23.287330316743 100.36433333333335 L 29.66742081448 104.89266666666668 L 36.047511312218 95.42433333333335 L 42.427601809955 85.13266666666667 L 48.807692307693 89.24933333333334 L 55.18778280543 83.56833333333336 L 61.567873303168 83.56833333333336 L 67.947963800905 94.35400000000001 L 74.328054298643 85.709 L 80.70814479638 97.071 L 87.088235294118 99.70566666666667 L 93.468325791856 104.56333333333333 L 99.848416289593 107.28033333333335 L 106.22850678733 118.066 L 112.60859728507 114.36100000000002 L 118.98868778281 111.47933333333333 L 125.36877828054 112.96133333333333 L 131.74886877828 109.83266666666668 L 138.12895927602 110.162 L 144.50904977376 109.75033333333334 L 150.88914027149 107.44500000000002 L 157.26923076923 100.85833333333335 L 163.64932126697 89.74333333333334 L 170.02941176471 93.20133333333334 L 176.40950226244 88.09666666666666 L 182.78959276018 85.46200000000002 L 189.16968325792 85.87366666666668 L 195.54977375566 76.98166666666668 L 201.92986425339 68.17200000000003 L 208.30995475113 75.66433333333333 L 214.69004524887 75.91133333333335 L 221.07013574661 76.81700000000001 L 227.45022624434 82.33333333333334 L 233.83031674208 76.89933333333335 L 240.21040723982 99.541 L 246.59049773756 92.37800000000001 L 252.97058823529 100.77600000000001 L 259.35067873303 93.94233333333335" class="highcharts-graph" data-z-index="1" stroke="#007A2F" stroke-width="2" stroke-linejoin="round" stroke-linecap="round"></path></g><g class="highcharts-markers highcharts-series-0 highcharts-line-series" data-z-index="0.1" opacity="1" transform="translate(52,119) scale(1 1)" clip-path="none"></g><g class="highcharts-series highcharts-series-1 highcharts-line-series" data-z-index="0.1" opacity="1" transform="translate(52,119) scale(1 1)" clip-path="url(#highcharts-r906z9v-338-)"><path fill="none" d="M 265.73076923077 85.79133333333334 L 272.11085972851 83.65066666666667 L 278.49095022624 81.42766666666668 L 284.87104072398 79.20466666666667 L 291.25113122172 77.06400000000002 L 297.63122171946 75.08800000000002 L 304.01131221719 73.19433333333333 L 310.39140271493 71.46533333333335 L 316.77149321267 69.81866666666667 L 323.15158371041 68.17200000000003 L 329.53167420814 66.69000000000003 L 335.91176470588 65.29033333333334 L 342.29185520362 63.890666666666675 L 348.67194570136 62.491000000000014 L 355.05203619909 61.09133333333335 L 361.43212669683 59.69166666666669 L 367.81221719457 58.292 L 374.19230769231 56.81 L 380.57239819004 55.328 L 386.95248868778 53.846000000000004 L 393.33257918552 52.364000000000004 L 399.71266968326 50.79966666666667 L 406.09276018099 49.23533333333336 L 412.47285067873 47.67100000000002 L 418.85294117647 46.10666666666668" class="highcharts-graph" data-z-index="1" stroke="#923F8D" stroke-width="2" stroke-linejoin="round" stroke-linecap="round"></path></g><g class="highcharts-markers highcharts-series-1 highcharts-line-series" data-z-index="0.1" opacity="1" transform="translate(52,119) scale(1 1)" clip-path="none"></g><g class="highcharts-series highcharts-series-2 highcharts-line-series" data-z-index="0.1" opacity="1" transform="translate(52,119) scale(1 1)" clip-path="url(#highcharts-r906z9v-338-)"><path fill="none" d="M 265.73076923077 99.12933333333334 L 272.11085972851 98.80000000000001 L 278.49095022624 98.22366666666667 L 284.87104072398 97.565 L 291.25113122172 96.82400000000001 L 297.63122171946 96.083 L 304.01131221719 95.42433333333335 L 310.39140271493 94.76566666666668 L 316.77149321267 94.18933333333334 L 323.15158371041 93.69533333333334 L 329.53167420814 93.20133333333334 L 335.91176470588 92.70733333333334 L 342.29185520362 92.29566666666668 L 348.67194570136 91.80166666666668 L 355.05203619909 91.30766666666668 L 361.43212669683 90.89600000000002 L 367.81221719457 90.48433333333335 L 374.19230769231 89.99033333333335 L 380.57239819004 89.57866666666666 L 386.95248868778 89.167 L 393.33257918552 88.75533333333334 L 399.71266968326 88.42600000000002 L 406.09276018099 88.01433333333335 L 412.47285067873 87.60266666666666 L 418.85294117647 87.27333333333334" class="highcharts-graph" data-z-index="1" stroke="#DC440E" stroke-width="2" stroke-linejoin="round" stroke-linecap="round"></path></g><g class="highcharts-markers highcharts-series-2 highcharts-line-series" data-z-index="0.1" opacity="1" transform="translate(52,119) scale(1 1)" clip-path="none"></g><g class="highcharts-series highcharts-series-3 highcharts-line-series" data-z-index="0.1" opacity="1" transform="translate(52,119) scale(1 1)" clip-path="url(#highcharts-r906z9v-338-)"><path fill="none" d="M 265.73076923077 112.46733333333333 L 272.11085972851 114.608 L 278.49095022624 116.33700000000002 L 284.87104072398 117.73666666666668 L 291.25113122172 118.97166666666666 L 297.63122171946 120.12433333333334 L 304.01131221719 121.11233333333334 L 310.39140271493 122.01800000000001 L 316.77149321267 122.92366666666668 L 323.15158371041 123.74700000000001 L 329.53167420814 124.48800000000001 L 335.91176470588 125.22900000000001 L 342.29185520362 125.88766666666668 L 348.67194570136 126.54633333333334 L 355.05203619909 127.12266666666667 L 361.43212669683 127.61666666666667 L 367.81221719457 128.193 L 374.19230769231 128.687 L 380.57239819004 129.09866666666667 L 386.95248868778 129.59266666666667 L 393.33257918552 130.00433333333334 L 399.71266968326 130.49833333333333 L 406.09276018099 130.91000000000003 L 412.47285067873 131.32166666666666 L 418.85294117647 131.8156666666667" class="highcharts-graph" data-z-index="1" stroke="#FFDA80" stroke-width="2" stroke-linejoin="round" stroke-linecap="round"></path></g><g class="highcharts-markers highcharts-series-3 highcharts-line-series" data-z-index="0.1" opacity="1" transform="translate(52,119) scale(1 1)" clip-path="none"></g></g><text x="10" text-anchor="start" class="highcharts-title" data-z-index="4" style="color:#000000;font-size:14px;font-weight:bold;fill:#000000;" y="21"><tspan>Geburten</tspan></text><text x="10" text-anchor="start" class="highcharts-subtitle" data-z-index="4" style="color:#000000;font-size:12px;font-weight:normal;fill:#000000;" y="40"><tspan>Bevölkerungsszenarien Basel-Stadt, 2026</tspan></text><text x="10" text-anchor="start" class="highcharts-caption" data-z-index="4" style="color:#666666;fill:#666666;" y="400"></text><g class="highcharts-legend" data-z-index="7" transform="translate(44,56)"><rect fill="none" class="highcharts-legend-box" rx="0" ry="0" x="0" y="0" width="296" height="51" visibility="visible"></rect><g data-z-index="1"><g><g class="highcharts-legend-item highcharts-line-series highcharts-color-undefined highcharts-series-0" data-z-index="1" transform="translate(8,3)"><path fill="none" d="M 0 11 L 16 11" class="highcharts-graph" stroke="#007A2F" stroke-width="2"></path><text x="21" style="color:#333333;cursor:pointer;font-size:12px;font-weight:normal;fill:#333333;" text-anchor="start" data-z-index="2" y="15"><tspan>Effektiv</tspan></text></g><g class="highcharts-legend-item highcharts-line-series highcharts-color-undefined highcharts-series-1" data-z-index="1" transform="translate(158,3)"><path fill="none" d="M 0 11 L 16 11" class="highcharts-graph" stroke="#923F8D" stroke-width="2"></path><text x="21" y="15" style="color:#333333;cursor:pointer;font-size:12px;font-weight:normal;fill:#333333;" text-anchor="start" data-z-index="2"><tspan>Hohes Szenario</tspan></text></g><g class="highcharts-legend-item highcharts-line-series highcharts-color-undefined highcharts-series-2" data-z-index="1" transform="translate(8,23)"><path fill="none" d="M 0 11 L 16 11" class="highcharts-graph" stroke="#DC440E" stroke-width="2"></path><text x="21" y="15" style="color:#333333;cursor:pointer;font-size:12px;font-weight:normal;fill:#333333;" text-anchor="start" data-z-index="2"><tspan>Mittleres Szenario</tspan></text></g><g class="highcharts-legend-item highcharts-line-series highcharts-color-undefined highcharts-series-3" data-z-index="1" transform="translate(158,23)"><path fill="none" d="M 0 11 L 16 11" class="highcharts-graph" stroke="#FFDA80" stroke-width="2"></path><text x="21" y="15" style="color:#333333;cursor:pointer;font-size:12px;font-weight:normal;fill:#333333;" text-anchor="start" data-z-index="2"><tspan>Tiefes Szenario</tspan></text></g></g></g></g><g class="highcharts-axis-labels highcharts-xaxis-labels" data-z-index="7"><text x="88.047511312218" style="color:#000000;cursor:default;font-size:11px;fill:#000000;" text-anchor="middle" transform="translate(0,0)" y="385" opacity="1">1990</text><text x="151.84841628959" style="color:#000000;cursor:default;font-size:11px;fill:#000000;" text-anchor="middle" transform="translate(0,0)" y="385" opacity="1">2000</text><text x="215.64932126697" style="color:#000000;cursor:default;font-size:11px;fill:#000000;" text-anchor="middle" transform="translate(0,0)" y="385" opacity="1">2010</text><text x="279.45022624434" style="color:#000000;cursor:default;font-size:11px;fill:#000000;" text-anchor="middle" transform="translate(0,0)" y="385" opacity="1">2020</text><text x="343.25113122172" style="color:#000000;cursor:default;font-size:11px;fill:#000000;" text-anchor="middle" transform="translate(0,0)" y="385" opacity="1">2030</text><text x="407.05203619909" style="color:#000000;cursor:default;font-size:11px;fill:#000000;" text-anchor="middle" transform="translate(0,0)" y="385" opacity="1">2040</text><text x="463" style="color:#000000;cursor:default;font-size:11px;fill:#000000;" text-anchor="middle" transform="translate(0,0)" y="385" opacity="1">2050</text></g><g class="highcharts-axis-labels highcharts-yaxis-labels" data-z-index="7"><text x="37" style="color:#000000;cursor:default;font-size:11px;fill:#000000;" text-anchor="end" transform="translate(0,0)" y="370" opacity="1">0</text><text x="37" style="color:#000000;cursor:default;font-size:11px;fill:#000000;" text-anchor="end" transform="translate(0,0)" y="288" opacity="1"><tspan>1 000</tspan></text><text x="37" style="color:#000000;cursor:default;font-size:11px;fill:#000000;" text-anchor="end" transform="translate(0,0)" y="205" opacity="1"><tspan>2 000</tspan></text><text x="37" style="color:#000000;cursor:default;font-size:11px;fill:#000000;" text-anchor="end" transform="translate(0,0)" y="123" opacity="1"><tspan>3 000</tspan></text></g><text x="10" class="highcharts-credits" text-anchor="start" data-z-index="8" style="cursor:default;color:#000000;font-size:10px;fill:#000000;" y="403"><tspan>Quelle: Statistisches Amt Basel-Stadt, Bevölkerungsszenarien.</tspan><tspan x="10" dy="13">Zuletzt geändert: 16.7.2026</tspan></text><g class="highcharts-control-points" data-z-index="99" clip-path="url(#highcharts-r906z9v-537-)"></g></svg>