<?xml version="1.0" standalone="no"?><!DOCTYPE svg PUBLIC "-//W3C//DTD SVG 1.1//EN" "http://www.w3.org/Graphics/SVG/1.1/DTD/svg11.dtd"><svg xmlns:xlink="http://www.w3.org/1999/xlink" version="1.1" class="highcharts-root" style="font-family:Arial;font-size:12px;" xmlns="http://www.w3.org/2000/svg" viewBox="0 0 485 415"><desc>Created with Highcharts 8.2.2</desc><defs><clipPath id="highcharts-z2zndv1-271-"><rect x="0" y="0" width="411" height="232" fill="none"></rect></clipPath><clipPath id="highcharts-z2zndv1-338-"><rect x="0" y="0" width="411" height="232" fill="none"></rect></clipPath><clipPath id="highcharts-z2zndv1-537-"><rect x="64" y="119" width="411" height="232" fill="none"></rect></clipPath></defs><rect fill="#fbfbfb" class="highcharts-background" x="0" y="0" width="485" height="428" rx="0" ry="0"></rect><rect fill="none" class="highcharts-plot-background" x="64" y="119" width="411" height="232"></rect><g class="highcharts-pane-group" data-z-index="0"></g><g class="highcharts-grid highcharts-xaxis-grid" data-z-index="1"><path fill="none" data-z-index="1" class="highcharts-grid-line" d="M 160.5 119 L 160.5 351" opacity="1"></path><path fill="none" data-z-index="1" class="highcharts-grid-line" d="M 284.5 119 L 284.5 351" opacity="1"></path><path fill="none" data-z-index="1" class="highcharts-grid-line" d="M 408.5 119 L 408.5 351" opacity="1"></path></g><g class="highcharts-grid highcharts-yaxis-grid" data-z-index="1"><path fill="none" stroke="#B9CFD7" stroke-width="0.5" data-z-index="1" class="highcharts-grid-line" d="M 64 351.25 L 475 351.25" opacity="1"></path><path fill="none" stroke="#B9CFD7" stroke-width="0.5" data-z-index="1" class="highcharts-grid-line" d="M 64 274.25 L 475 274.25" opacity="1"></path><path fill="none" stroke="#B9CFD7" stroke-width="0.5" data-z-index="1" class="highcharts-grid-line" d="M 64 196.25 L 475 196.25" opacity="1"></path><path fill="none" stroke="#B9CFD7" stroke-width="0.5" data-z-index="1" class="highcharts-grid-line" d="M 64 118.75 L 475 118.75" opacity="1"></path></g><rect fill="none" class="highcharts-plot-border" data-z-index="1" x="64" y="119" width="411" height="232"></rect><g class="highcharts-axis highcharts-xaxis" data-z-index="2"><path fill="none" class="highcharts-axis-line" stroke="#B9CFD7" stroke-width="0.5" data-z-index="7" d="M 64 351.25 L 475 351.25"></path></g><g class="highcharts-axis highcharts-yaxis" data-z-index="2"><path fill="none" class="highcharts-axis-line" data-z-index="7" d="M 64 119 L 64 351"></path></g><g class="highcharts-series-group" data-z-index="3"><g class="highcharts-series highcharts-series-0 highcharts-line-series" data-z-index="0.1" opacity="1" transform="translate(64,119) scale(1 1)" clip-path="url(#highcharts-z2zndv1-338-)"><path fill="none" d="M 4.0294117647064 75.7132 L 10.228506787331 77.3836 L 16.427601809955 78.48173333333332 L 22.62669683258 79.84512000000001 L 28.825791855204 80.39882666666668 L 35.024886877829 79.88610666666668 L 41.223981900453 78.89005333333333 L 47.423076923077 78.40904 L 53.622171945702 77.66586666666666 L 59.821266968326 78.10357333333334 L 66.020361990951 78.78101333333333 L 72.219457013575 79.92632 L 78.418552036199 81.76607999999999 L 84.617647058824 83.37152 L 90.816742081448 84.87565333333333 L 97.015837104073 86.49655999999999 L 103.2149321267 87.04949333333334 L 109.41402714932 86.54759999999999 L 115.61312217195 86.55224000000001 L 121.81221719457 86.24368000000001 L 128.01131221719 87.02861333333334 L 134.21040723982 87.10208 L 140.40950226244 86.85770666666667 L 146.60859728507 85.62810666666667 L 152.80769230769 85.03186666666667 L 159.00678733032 84.80914666666666 L 165.20588235294 83.46122666666668 L 171.40497737557 82.39170666666666 L 177.60407239819 80.84504000000001 L 183.80316742081 80.06242666666665 L 190.00226244344 79.49557333333334 L 196.20135746606 78.72069333333334 L 202.40045248869 78.11594666666667 L 208.59954751131 77.13535999999999 L 214.79864253394 76.80591999999999 L 220.99773755656 75.80909333333332 L 227.19683257919 75.93746666666667 L 233.39592760181 73.81466666666665 L 239.59502262443 72.45514666666668 L 245.79411764706 71.52173333333334 L 251.99321266968 69.19090666666668" class="highcharts-graph" data-z-index="1" stroke="#007A2F" stroke-width="2" stroke-linejoin="round" stroke-linecap="round"></path></g><g class="highcharts-markers highcharts-series-0 highcharts-line-series" data-z-index="0.1" opacity="1" transform="translate(64,119) scale(1 1)" clip-path="none"></g><g class="highcharts-series highcharts-series-1 highcharts-line-series" data-z-index="0.1" opacity="1" transform="translate(64,119) scale(1 1)" clip-path="url(#highcharts-z2zndv1-338-)"><path fill="none" d="M 258.19230769231 67.72543999999999 L 264.39140271493 66.20042666666666 L 270.59049773756 64.64912000000001 L 276.78959276018 63.094719999999995 L 282.98868778281 61.551919999999996 L 289.18778280543 60.02922666666666 L 295.38687782805 58.53050666666667 L 301.58597285068 57.06039999999999 L 307.7850678733 55.618906666666675 L 313.98416289593 54.20602666666667 L 320.18325791855 52.81711999999999 L 326.38235294118 51.44909333333334 L 332.5814479638 50.09343999999999 L 338.78054298643 48.74242666666666 L 344.97963800905 47.389093333333335 L 351.17873303167 46.027253333333334 L 357.3778280543 44.653040000000004 L 363.57692307692 43.26568 L 369.77601809955 41.86517333333333 L 375.97511312217 40.45151999999999 L 382.1742081448 39.028586666666655 L 388.37330316742 37.59637333333333 L 394.57239819004 36.15719999999999 L 400.77149321267 34.711839999999995 L 406.97058823529 33.26029333333332" class="highcharts-graph" data-z-index="1" stroke="#923F8D" stroke-width="2" stroke-linejoin="round" stroke-linecap="round"></path></g><g class="highcharts-markers highcharts-series-1 highcharts-line-series" data-z-index="0.1" opacity="1" transform="translate(64,119) scale(1 1)" clip-path="none"></g><g class="highcharts-series highcharts-series-2 highcharts-line-series" data-z-index="0.1" opacity="1" transform="translate(64,119) scale(1 1)" clip-path="url(#highcharts-z2zndv1-338-)"><path fill="none" d="M 258.19230769231 68.46242666666666 L 264.39140271493 67.66666666666666 L 270.59049773756 66.82837333333333 L 276.78959276018 65.97152 L 282.98868778281 65.11621333333332 L 289.18778280543 64.27637333333334 L 295.38687782805 63.460506666666674 L 301.58597285068 62.67248000000001 L 307.7850678733 61.91383999999999 L 313.98416289593 61.18226666666666 L 320.18325791855 60.476213333333334 L 326.38235294118 59.792586666666665 L 332.5814479638 59.13061333333334 L 338.78054298643 58.48797333333334 L 344.97963800905 57.86312000000001 L 351.17873303167 57.253733333333344 L 357.3778280543 56.65826666666666 L 363.57692307692 56.073626666666655 L 369.77601809955 55.49672000000001 L 375.97511312217 54.92445333333333 L 382.1742081448 54.356053333333335 L 388.37330316742 53.78842666666665 L 394.57239819004 53.22157333333334 L 400.77149321267 52.653946666666656 L 406.97058823529 52.08554666666666" class="highcharts-graph" data-z-index="1" stroke="#DC440E" stroke-width="2" stroke-linejoin="round" stroke-linecap="round"></path></g><g class="highcharts-markers highcharts-series-2 highcharts-line-series" data-z-index="0.1" opacity="1" transform="translate(64,119) scale(1 1)" clip-path="none"></g><g class="highcharts-series highcharts-series-3 highcharts-line-series" data-z-index="0.1" opacity="1" transform="translate(64,119) scale(1 1)" clip-path="url(#highcharts-z2zndv1-338-)"><path fill="none" d="M 258.19230769231 69.65181333333334 L 264.39140271493 70.08024 L 270.59049773756 70.47232 L 276.78959276018 70.83424 L 282.98868778281 71.17295999999999 L 289.18778280543 71.5024 L 295.38687782805 71.83184 L 301.58597285068 72.17133333333334 L 307.7850678733 72.52938666666665 L 313.98416289593 72.90909333333335 L 320.18325791855 73.31432000000001 L 326.38235294118 73.74351999999999 L 332.5814479638 74.19514666666666 L 338.78054298643 74.66456 L 344.97963800905 75.14866666666666 L 351.17873303167 75.64205333333334 L 357.3778280543 76.14162666666667 L 363.57692307692 76.64429333333334 L 369.77601809955 77.14850666666666 L 375.97511312217 77.65194666666667 L 382.1742081448 78.15461333333334 L 388.37330316742 78.65495999999999 L 394.57239819004 79.15298666666666 L 400.77149321267 79.64792 L 406.97058823529 80.14130666666668" class="highcharts-graph" data-z-index="1" stroke="#FFDA80" stroke-width="2" stroke-linejoin="round" stroke-linecap="round"></path></g><g class="highcharts-markers highcharts-series-3 highcharts-line-series" data-z-index="0.1" opacity="1" transform="translate(64,119) scale(1 1)" clip-path="none"></g></g><text x="10" text-anchor="start" class="highcharts-title" data-z-index="4" style="color:#000000;font-size:14px;font-weight:bold;fill:#000000;" y="21"><tspan>Wohnbevölkerung gemäss Bevölkerungsszenarien</tspan></text><text x="10" text-anchor="start" class="highcharts-subtitle" data-z-index="4" style="color:#000000;font-size:12px;font-weight:normal;fill:#000000;" y="40"><tspan>Bevölkerungsszenarien Basel-Stadt, 2026</tspan></text><text x="10" text-anchor="start" class="highcharts-caption" data-z-index="4" style="color:#666666;fill:#666666;" y="385"></text><g class="highcharts-legend" data-z-index="7" transform="translate(56,56)"><rect fill="none" class="highcharts-legend-box" rx="0" ry="0" x="0" y="0" width="296" height="51" visibility="visible"></rect><g data-z-index="1"><g><g class="highcharts-legend-item highcharts-line-series highcharts-color-undefined highcharts-series-0" data-z-index="1" transform="translate(8,3)"><path fill="none" d="M 0 11 L 16 11" class="highcharts-graph" stroke="#007A2F" stroke-width="2"></path><text x="21" style="color:#333333;cursor:pointer;font-size:12px;font-weight:normal;fill:#333333;" text-anchor="start" data-z-index="2" y="15"><tspan>Effektiv</tspan></text></g><g class="highcharts-legend-item highcharts-line-series highcharts-color-undefined highcharts-series-1" data-z-index="1" transform="translate(158,3)"><path fill="none" d="M 0 11 L 16 11" class="highcharts-graph" stroke="#923F8D" stroke-width="2"></path><text x="21" y="15" style="color:#333333;cursor:pointer;font-size:12px;font-weight:normal;fill:#333333;" text-anchor="start" data-z-index="2"><tspan>Hohes Szenario</tspan></text></g><g class="highcharts-legend-item highcharts-line-series highcharts-color-undefined highcharts-series-2" data-z-index="1" transform="translate(8,23)"><path fill="none" d="M 0 11 L 16 11" class="highcharts-graph" stroke="#DC440E" stroke-width="2"></path><text x="21" y="15" style="color:#333333;cursor:pointer;font-size:12px;font-weight:normal;fill:#333333;" text-anchor="start" data-z-index="2"><tspan>Mittleres Szenario</tspan></text></g><g class="highcharts-legend-item highcharts-line-series highcharts-color-undefined highcharts-series-3" data-z-index="1" transform="translate(158,23)"><path fill="none" d="M 0 11 L 16 11" class="highcharts-graph" stroke="#FFDA80" stroke-width="2"></path><text x="21" y="15" style="color:#333333;cursor:pointer;font-size:12px;font-weight:normal;fill:#333333;" text-anchor="start" data-z-index="2"><tspan>Tiefes Szenario</tspan></text></g></g></g></g><g class="highcharts-axis-labels highcharts-xaxis-labels" data-z-index="7"><text x="161.01583710407" style="color:#000000;cursor:default;font-size:11px;fill:#000000;" text-anchor="middle" transform="translate(0,0)" y="370" opacity="1">2000</text><text x="284.99773755656" style="color:#000000;cursor:default;font-size:11px;fill:#000000;" text-anchor="middle" transform="translate(0,0)" y="370" opacity="1">2020</text><text x="408.97963800905" style="color:#000000;cursor:default;font-size:11px;fill:#000000;" text-anchor="middle" transform="translate(0,0)" y="370" opacity="1">2040</text></g><g class="highcharts-axis-labels highcharts-yaxis-labels" data-z-index="7"><text x="49" style="color:#000000;cursor:default;font-size:11px;fill:#000000;" text-anchor="end" transform="translate(0,0)" y="355" opacity="1">0</text><text x="49" style="color:#000000;cursor:default;font-size:11px;fill:#000000;" text-anchor="end" transform="translate(0,0)" y="278" opacity="1"><tspan>100 000</tspan></text><text x="49" style="color:#000000;cursor:default;font-size:11px;fill:#000000;" text-anchor="end" transform="translate(0,0)" y="200" opacity="1"><tspan>200 000</tspan></text><text x="49" style="color:#000000;cursor:default;font-size:11px;fill:#000000;" text-anchor="end" transform="translate(0,0)" y="123" opacity="1"><tspan>300 000</tspan></text></g><text x="10" class="highcharts-credits" text-anchor="start" data-z-index="8" style="cursor:default;color:#000000;font-size:10px;fill:#000000;" y="403"><tspan>Quelle: Statistisches Amt Basel-Stadt, Bevölkerungsszenarien.</tspan><tspan x="10" dy="13">Zuletzt geändert: 16.7.2026</tspan></text><g class="highcharts-control-points" data-z-index="99" clip-path="url(#highcharts-z2zndv1-537-)"></g></svg>