<?xml version="1.0" standalone="no"?><!DOCTYPE svg PUBLIC "-//W3C//DTD SVG 1.1//EN" "http://www.w3.org/Graphics/SVG/1.1/DTD/svg11.dtd"><svg xmlns:xlink="http://www.w3.org/1999/xlink" version="1.1" class="highcharts-root" style="font-family:Arial;font-size:12px;" xmlns="http://www.w3.org/2000/svg" viewBox="0 0 485 415"><desc>Created with Highcharts 8.0.4</desc><defs><clipPath id="highcharts-u39uyoq-66-"><rect x="0" y="0" width="387" height="186" fill="none"></rect></clipPath><clipPath id="highcharts-u39uyoq-79-"><rect x="0" y="0" width="387" height="186" fill="none"></rect></clipPath></defs><rect fill="#fbfbfb" class="highcharts-background" x="0" y="0" width="485" height="428" rx="0" ry="0"></rect><rect fill="none" class="highcharts-plot-background" x="88" y="150" width="387" height="186"></rect><g class="highcharts-pane-group" data-z-index="0"></g><g class="highcharts-grid highcharts-xaxis-grid" data-z-index="1"><path fill="none" data-z-index="1" class="highcharts-grid-line" d="M 91.5 150 L 91.5 336" opacity="1"></path><path fill="none" data-z-index="1" class="highcharts-grid-line" d="M 125.5 150 L 125.5 336" opacity="1"></path><path fill="none" data-z-index="1" class="highcharts-grid-line" d="M 160.5 150 L 160.5 336" opacity="1"></path><path fill="none" data-z-index="1" class="highcharts-grid-line" d="M 194.5 150 L 194.5 336" opacity="1"></path><path fill="none" data-z-index="1" class="highcharts-grid-line" d="M 229.5 150 L 229.5 336" opacity="1"></path><path fill="none" data-z-index="1" class="highcharts-grid-line" d="M 263.5 150 L 263.5 336" opacity="1"></path><path fill="none" data-z-index="1" class="highcharts-grid-line" d="M 298.5 150 L 298.5 336" opacity="1"></path><path fill="none" data-z-index="1" class="highcharts-grid-line" d="M 332.5 150 L 332.5 336" opacity="1"></path><path fill="none" data-z-index="1" class="highcharts-grid-line" d="M 367.5 150 L 367.5 336" opacity="1"></path><path fill="none" data-z-index="1" class="highcharts-grid-line" d="M 401.5 150 L 401.5 336" opacity="1"></path><path fill="none" data-z-index="1" class="highcharts-grid-line" d="M 436.5 150 L 436.5 336" opacity="1"></path><path fill="none" data-z-index="1" class="highcharts-grid-line" d="M 470.5 150 L 470.5 336" opacity="1"></path></g><g class="highcharts-grid highcharts-yaxis-grid" data-z-index="1"><path fill="none" stroke="#B9CFD7" stroke-width="0.5" data-z-index="1" class="highcharts-grid-line" d="M 88 336.25 L 475 336.25" opacity="1"></path><path fill="none" stroke="#B9CFD7" stroke-width="0.5" data-z-index="1" class="highcharts-grid-line" d="M 88 290.25 L 475 290.25" opacity="1"></path><path fill="none" stroke="#B9CFD7" stroke-width="0.5" data-z-index="1" class="highcharts-grid-line" d="M 88 243.25 L 475 243.25" opacity="1"></path><path fill="none" stroke="#B9CFD7" stroke-width="0.5" data-z-index="1" class="highcharts-grid-line" d="M 88 197.25 L 475 197.25" opacity="1"></path><path fill="none" stroke="#B9CFD7" stroke-width="0.5" data-z-index="1" class="highcharts-grid-line" d="M 88 149.75 L 475 149.75" opacity="1"></path></g><rect fill="none" class="highcharts-plot-border" data-z-index="1" x="88" y="150" width="387" height="186"></rect><g class="highcharts-axis highcharts-xaxis" data-z-index="2"><path fill="none" class="highcharts-axis-line" stroke="#B9CFD7" stroke-width="0.5" data-z-index="7" d="M 88 336.25 L 475 336.25"></path></g><g class="highcharts-axis highcharts-yaxis" data-z-index="2"><path fill="none" class="highcharts-axis-line" data-z-index="7" d="M 88 150 L 88 336"></path></g><g class="highcharts-series-group" data-z-index="3"><g data-z-index="0.1" class="highcharts-series highcharts-series-0 highcharts-line-series" transform="translate(88,150) scale(1 1)" clip-path="url(#highcharts-u39uyoq-79-)"><path fill="none" d="M 3.7941176470554 90.51756959999999 L 38.286096256682 87.4614036 L 72.778074866308 98.45800259999999 L 107.27005347593 88.66832969999999 L 141.76203208556 77.89636289999999 L 176.25401069519 78.67694909999999 L 210.74598930481 65.59440659999999 L 245.23796791444 62.33419859999999 L 279.72994652407 50.57964959999998 L 314.22192513369 54.297901199999984 L 348.71390374332 57.83394719999998 L 383.20588235294 54.63511919999999" class="highcharts-graph" data-z-index="1" stroke="#FABD24" stroke-width="2" stroke-linejoin="round" stroke-linecap="round"></path></g><g data-z-index="0.1" class="highcharts-markers highcharts-series-0 highcharts-line-series" transform="translate(88,150) scale(1 1)" clip-path="none"></g><g data-z-index="0.1" class="highcharts-series highcharts-series-1 highcharts-line-series" transform="translate(88,150) scale(1 1)" clip-path="url(#highcharts-u39uyoq-79-)"><path fill="none" d="M 3.7941176470554 32.09267249999999 L 38.286096256682 27.571923899999973 L 72.778074866308 48.732251099999985 L 107.27005347593 41.065247399999976 L 141.76203208556 38.9538963 L 176.25401069519 48.97213529999999 L 210.74598930481 35.710716599999984 L 245.23796791444 34.74924539999998 L 279.72994652407 12.42171239999999 L 314.22192513369 17.47398389999998 L 348.71390374332 29.1527844 L 383.20588235294 21.071995799999996" class="highcharts-graph" data-z-index="1" stroke="#7F5F1A" stroke-width="2" stroke-linejoin="round" stroke-linecap="round"></path></g><g data-z-index="0.1" class="highcharts-markers highcharts-series-1 highcharts-line-series" transform="translate(88,150) scale(1 1)" clip-path="none"></g><g data-z-index="0.1" class="highcharts-series highcharts-series-2 highcharts-line-series" transform="translate(88,150) scale(1 1)" clip-path="url(#highcharts-u39uyoq-79-)"><path fill="none" d="M 3.7941176470554 156.1016625 L 38.286096256682 155.7696525 L 72.778074866308 157.8357591 L 107.27005347593 153.8645382 L 141.76203208556 156.1291068 L 176.25401069519 159.5646756 L 210.74598930481 161.6532789 L 245.23796791444 162.281652 L 279.72994652407 164.5409196 L 314.22192513369 165.6801417 L 348.71390374332 166.0005732 L 383.20588235294 167.909826" class="highcharts-graph" data-z-index="1" stroke="#008AC3" stroke-width="2" stroke-linejoin="round" stroke-linecap="round"></path></g><g data-z-index="0.1" class="highcharts-markers highcharts-series-2 highcharts-line-series" transform="translate(88,150) scale(1 1)" clip-path="none"></g><g data-z-index="0.1" class="highcharts-series highcharts-series-3 highcharts-line-series" transform="translate(88,150) scale(1 1)" clip-path="url(#highcharts-u39uyoq-79-)"><path fill="none" d="M 3.7941176470554 156.9407922 L 38.286096256682 156.9045966 L 72.778074866308 159.0544311 L 107.27005347593 157.2822603 L 141.76203208556 160.7652777 L 176.25401069519 164.1153144 L 210.74598930481 166.025367 L 245.23796791444 166.5903885 L 279.72994652407 167.7694983 L 314.22192513369 169.7484825 L 348.71390374332 169.4736768 L 383.20588235294 171.0170397" class="highcharts-graph" data-z-index="1" stroke="#2B0099" stroke-width="2" stroke-linejoin="round" stroke-linecap="round"></path></g><g data-z-index="0.1" class="highcharts-markers highcharts-series-3 highcharts-line-series" transform="translate(88,150) scale(1 1)" clip-path="none"></g><g data-z-index="0.1" class="highcharts-series highcharts-series-4 highcharts-line-series" transform="translate(88,150) scale(1 1)" clip-path="url(#highcharts-u39uyoq-79-)"><path fill="none" d="M 3.7941176470554 145.1435655 L 38.286096256682 147.7564563 L 72.778074866308 156.1321479 L 107.27005347593 164.4575358 L 141.76203208556 157.6665921 L 176.25401069519 168.6795498 L 210.74598930481 180.2139585 L 245.23796791444 169.5434175 L 279.72994652407 168.3241689 L 314.22192513369 181.2545727 L 348.71390374332 171.9926004 L 383.20588235294 166.358028" class="highcharts-graph" data-z-index="1" stroke="#68AB2B" stroke-width="2" stroke-linejoin="round" stroke-linecap="round"></path></g><g data-z-index="0.1" class="highcharts-markers highcharts-series-4 highcharts-line-series" transform="translate(88,150) scale(1 1)" clip-path="none"></g></g><text x="10" text-anchor="start" class="highcharts-title" data-z-index="4" style="color:#000000;font-size:14px;font-weight:bold;fill:#000000;" y="21"><tspan>Warentransit durch die Schweiz</tspan></text><text x="10" text-anchor="start" class="highcharts-subtitle" data-z-index="4" style="color:#000000;font-size:12px;font-weight:normal;font-family:Arial;fill:#000000;" y="40"><tspan>mit Eingang oder Ausgang Region Basel, in Tonnen, nach</tspan><tspan dy="15" x="10">Verkehrsträger</tspan></text><text x="10" text-anchor="start" class="highcharts-caption" data-z-index="4" style="color:#666666;fill:#666666;" y="385"></text><g class="highcharts-legend" data-z-index="7" transform="translate(80,70)"><rect fill="none" class="highcharts-legend-box" rx="0" ry="0" x="0" y="0" width="287" height="68" visibility="visible"></rect><g data-z-index="1"><g><g class="highcharts-legend-item highcharts-line-series highcharts-color-undefined highcharts-series-0" data-z-index="1" transform="translate(8,3)"><path fill="none" d="M 0 11 L 16 11" class="highcharts-graph" stroke="#FABD24" stroke-width="2"></path><text x="21" style="color:#333333;cursor:pointer;font-size:12px;font-weight:normal;fill:#333333;" text-anchor="start" data-z-index="2" y="15"><tspan>Schiene Ausgang</tspan></text></g><g class="highcharts-legend-item highcharts-line-series highcharts-color-undefined highcharts-series-2" data-z-index="1" transform="translate(153.9375,3)"><path fill="none" d="M 0 11 L 16 11" class="highcharts-graph" stroke="#008AC3" stroke-width="2"></path><text x="21" y="15" style="color:#333333;cursor:pointer;font-size:12px;font-weight:normal;fill:#333333;" text-anchor="start" data-z-index="2"><tspan>Strasse Ausgang</tspan></text></g><g class="highcharts-legend-item highcharts-line-series highcharts-color-undefined highcharts-series-1" data-z-index="1" transform="translate(8,22)"><path fill="none" d="M 0 11 L 16 11" class="highcharts-graph" stroke="#7F5F1A" stroke-width="2"></path><text x="21" y="15" style="color:#333333;cursor:pointer;font-size:12px;font-weight:normal;fill:#333333;" text-anchor="start" data-z-index="2"><tspan>Schiene Eingang</tspan></text></g><g class="highcharts-legend-item highcharts-line-series highcharts-color-undefined highcharts-series-3" data-z-index="1" transform="translate(153.9375,22)"><path fill="none" d="M 0 11 L 16 11" class="highcharts-graph" stroke="#2B0099" stroke-width="2"></path><text x="21" y="15" style="color:#333333;cursor:pointer;font-size:12px;font-weight:normal;fill:#333333;" text-anchor="start" data-z-index="2"><tspan>Strasse Eingang</tspan></text></g><g class="highcharts-legend-item highcharts-line-series highcharts-color-undefined highcharts-series-4" data-z-index="1" transform="translate(8,41)"><path fill="none" d="M 0 11 L 16 11" class="highcharts-graph" stroke="#68AB2B" stroke-width="2"></path><text x="21" y="15" style="color:#333333;cursor:pointer;font-size:12px;font-weight:normal;fill:#333333;" text-anchor="start" data-z-index="2"><tspan>Pipeline Eingang</tspan></text></g></g></g></g><g class="highcharts-axis-labels highcharts-xaxis-labels" data-z-index="7"><text x="94.38684251140567" style="color:#000000;cursor:default;font-size:11px;fill:#000000;" text-anchor="end" transform="translate(0,0) rotate(-45 94.38684251140567 352)" y="352" opacity="1">2007</text><text x="128.87882112103068" style="color:#000000;cursor:default;font-size:11px;fill:#000000;" text-anchor="end" transform="translate(0,0) rotate(-45 128.87882112103068 352)" y="352" opacity="1">2008</text><text x="163.37079973066068" style="color:#000000;cursor:default;font-size:11px;fill:#000000;" text-anchor="end" transform="translate(0,0) rotate(-45 163.37079973066068 352)" y="352" opacity="1">2009</text><text x="197.8627783402807" style="color:#000000;cursor:default;font-size:11px;fill:#000000;" text-anchor="end" transform="translate(0,0) rotate(-45 197.8627783402807 352)" y="352" opacity="1">2010</text><text x="232.3547569499107" style="color:#000000;cursor:default;font-size:11px;fill:#000000;" text-anchor="end" transform="translate(0,0) rotate(-45 232.3547569499107 352)" y="352" opacity="1">2011</text><text x="266.84673555954066" style="color:#000000;cursor:default;font-size:11px;fill:#000000;" text-anchor="end" transform="translate(0,0) rotate(-45 266.84673555954066 352)" y="352" opacity="1">2012</text><text x="301.33871416916065" style="color:#000000;cursor:default;font-size:11px;fill:#000000;" text-anchor="end" transform="translate(0,0) rotate(-45 301.33871416916065 352)" y="352" opacity="1">2013</text><text x="335.83069277879065" style="color:#000000;cursor:default;font-size:11px;fill:#000000;" text-anchor="end" transform="translate(0,0) rotate(-45 335.83069277879065 352)" y="352" opacity="1">2014</text><text x="370.32267138842064" style="color:#000000;cursor:default;font-size:11px;fill:#000000;" text-anchor="end" transform="translate(0,0) rotate(-45 370.32267138842064 352)" y="352" opacity="1">2015</text><text x="404.81464999804064" style="color:#000000;cursor:default;font-size:11px;fill:#000000;" text-anchor="end" transform="translate(0,0) rotate(-45 404.81464999804064 352)" y="352" opacity="1">2016</text><text x="439.30662860767063" style="color:#000000;cursor:default;font-size:11px;fill:#000000;" text-anchor="end" transform="translate(0,0) rotate(-45 439.30662860767063 352)" y="352" opacity="1">2017</text><text x="473.7986072172907" style="color:#000000;cursor:default;font-size:11px;fill:#000000;" text-anchor="end" transform="translate(0,0) rotate(-45 473.7986072172907 352)" y="352" opacity="1">2018</text></g><g class="highcharts-axis-labels highcharts-yaxis-labels" data-z-index="7"><text x="73" style="color:#000000;cursor:default;font-size:11px;fill:#000000;" text-anchor="end" transform="translate(0,0)" y="341" opacity="1">0</text><text x="73" style="color:#000000;cursor:default;font-size:11px;fill:#000000;" text-anchor="end" transform="translate(0,0)" y="294" opacity="1"><tspan>5 000 000</tspan></text><text x="73" style="color:#000000;cursor:default;font-size:11px;fill:#000000;" text-anchor="end" transform="translate(0,0)" y="248" opacity="1"><tspan>10 000 000</tspan></text><text x="73" style="color:#000000;cursor:default;font-size:11px;fill:#000000;" text-anchor="end" transform="translate(0,0)" y="201" opacity="1"><tspan>15 000 000</tspan></text><text x="73" style="color:#000000;cursor:default;font-size:11px;fill:#000000;" text-anchor="end" transform="translate(0,0)" y="155" opacity="1"><tspan>20 000 000</tspan></text></g><text x="10" class="highcharts-credits" text-anchor="start" data-z-index="8" style="cursor:default;color:#000000;font-size:10px;fill:#000000;" y="403"><tspan>Quelle: Eidgenössische Zollverwaltung EZV.</tspan><tspan x="10" dy="13">Zuletzt geändert: 2019-12-30</tspan></text></svg>