<?xml version="1.0" standalone="no"?><!DOCTYPE svg PUBLIC "-//W3C//DTD SVG 1.1//EN" "http://www.w3.org/Graphics/SVG/1.1/DTD/svg11.dtd"><svg xmlns:xlink="http://www.w3.org/1999/xlink" version="1.1" class="highcharts-root" style="font-family:Arial;font-size:12px;" xmlns="http://www.w3.org/2000/svg" viewBox="0 0 485 415"><desc>Created with Highcharts 8.0.4</desc><defs><clipPath id="highcharts-81icjft-166-"><rect x="0" y="0" width="534" height="112" fill="none"></rect></clipPath><clipPath id="highcharts-81icjft-199-"><rect x="0" y="0" width="534" height="112" fill="none"></rect></clipPath></defs><rect fill="#fbfbfb" class="highcharts-background" x="0" y="0" width="665" height="221" rx="0" ry="0"></rect><rect fill="none" class="highcharts-plot-background" x="43" y="42" width="534" height="112"></rect><g class="highcharts-pane-group" data-z-index="0"></g><g class="highcharts-grid highcharts-xaxis-grid" data-z-index="1"><path fill="none" data-z-index="1" class="highcharts-grid-line" d="M 59.5 42 L 59.5 154" opacity="1"></path><path fill="none" data-z-index="1" class="highcharts-grid-line" d="M 75.5 42 L 75.5 154" opacity="1"></path><path fill="none" data-z-index="1" class="highcharts-grid-line" d="M 92.5 42 L 92.5 154" opacity="1"></path><path fill="none" data-z-index="1" class="highcharts-grid-line" d="M 109.5 42 L 109.5 154" opacity="1"></path><path fill="none" data-z-index="1" class="highcharts-grid-line" d="M 125.5 42 L 125.5 154" opacity="1"></path><path fill="none" data-z-index="1" class="highcharts-grid-line" d="M 142.5 42 L 142.5 154" opacity="1"></path><path fill="none" data-z-index="1" class="highcharts-grid-line" d="M 159.5 42 L 159.5 154" opacity="1"></path><path fill="none" data-z-index="1" class="highcharts-grid-line" d="M 176.5 42 L 176.5 154" opacity="1"></path><path fill="none" data-z-index="1" class="highcharts-grid-line" d="M 192.5 42 L 192.5 154" opacity="1"></path><path fill="none" data-z-index="1" class="highcharts-grid-line" d="M 209.5 42 L 209.5 154" opacity="1"></path><path fill="none" data-z-index="1" class="highcharts-grid-line" d="M 226.5 42 L 226.5 154" opacity="1"></path><path fill="none" data-z-index="1" class="highcharts-grid-line" d="M 242.5 42 L 242.5 154" opacity="1"></path><path fill="none" data-z-index="1" class="highcharts-grid-line" d="M 259.5 42 L 259.5 154" opacity="1"></path><path fill="none" data-z-index="1" class="highcharts-grid-line" d="M 276.5 42 L 276.5 154" opacity="1"></path><path fill="none" data-z-index="1" class="highcharts-grid-line" d="M 292.5 42 L 292.5 154" opacity="1"></path><path fill="none" data-z-index="1" class="highcharts-grid-line" d="M 309.5 42 L 309.5 154" opacity="1"></path><path fill="none" data-z-index="1" class="highcharts-grid-line" d="M 326.5 42 L 326.5 154" opacity="1"></path><path fill="none" data-z-index="1" class="highcharts-grid-line" d="M 342.5 42 L 342.5 154" opacity="1"></path><path fill="none" data-z-index="1" class="highcharts-grid-line" d="M 359.5 42 L 359.5 154" opacity="1"></path><path fill="none" data-z-index="1" class="highcharts-grid-line" d="M 376.5 42 L 376.5 154" opacity="1"></path><path fill="none" data-z-index="1" class="highcharts-grid-line" d="M 392.5 42 L 392.5 154" opacity="1"></path><path fill="none" data-z-index="1" class="highcharts-grid-line" d="M 409.5 42 L 409.5 154" opacity="1"></path><path fill="none" data-z-index="1" class="highcharts-grid-line" d="M 426.5 42 L 426.5 154" opacity="1"></path><path fill="none" data-z-index="1" class="highcharts-grid-line" d="M 443.5 42 L 443.5 154" opacity="1"></path><path fill="none" data-z-index="1" class="highcharts-grid-line" d="M 459.5 42 L 459.5 154" opacity="1"></path><path fill="none" data-z-index="1" class="highcharts-grid-line" d="M 476.5 42 L 476.5 154" opacity="1"></path><path fill="none" data-z-index="1" class="highcharts-grid-line" d="M 493.5 42 L 493.5 154" opacity="1"></path><path fill="none" data-z-index="1" class="highcharts-grid-line" d="M 509.5 42 L 509.5 154" opacity="1"></path><path fill="none" data-z-index="1" class="highcharts-grid-line" d="M 526.5 42 L 526.5 154" opacity="1"></path><path fill="none" data-z-index="1" class="highcharts-grid-line" d="M 543.5 42 L 543.5 154" opacity="1"></path><path fill="none" data-z-index="1" class="highcharts-grid-line" d="M 559.5 42 L 559.5 154" opacity="1"></path><path fill="none" data-z-index="1" class="highcharts-grid-line" d="M 576.5 42 L 576.5 154" opacity="1"></path><path fill="none" data-z-index="1" class="highcharts-grid-line" d="M 42.5 42 L 42.5 154" opacity="1"></path></g><g class="highcharts-grid highcharts-yaxis-grid" data-z-index="1"><path fill="none" stroke="#B9CFD7" stroke-width="0.5" data-z-index="1" class="highcharts-grid-line" d="M 43 154.25 L 577 154.25" opacity="1"></path><path fill="none" stroke="#B9CFD7" stroke-width="0.5" data-z-index="1" class="highcharts-grid-line" d="M 43 126.25 L 577 126.25" opacity="1"></path><path fill="none" stroke="#B9CFD7" stroke-width="0.5" data-z-index="1" class="highcharts-grid-line" d="M 43 98.25 L 577 98.25" opacity="1"></path><path fill="none" stroke="#B9CFD7" stroke-width="0.5" data-z-index="1" class="highcharts-grid-line" d="M 43 70.25 L 577 70.25" opacity="1"></path><path fill="none" stroke="#B9CFD7" stroke-width="0.5" data-z-index="1" class="highcharts-grid-line" d="M 43 41.75 L 577 41.75" opacity="1"></path></g><rect fill="none" class="highcharts-plot-border" data-z-index="1" x="43" y="42" width="534" height="112"></rect><g class="highcharts-axis highcharts-xaxis" data-z-index="2"><path fill="none" class="highcharts-axis-line" stroke="#B9CFD7" stroke-width="0.5" data-z-index="7" d="M 43 154.25 L 577 154.25"></path></g><g class="highcharts-axis highcharts-yaxis" data-z-index="2"><path fill="none" class="highcharts-axis-line" data-z-index="7" d="M 43 42 L 43 154"></path></g><g class="highcharts-series-group" data-z-index="3"><g data-z-index="0.1" class="highcharts-series highcharts-series-0 highcharts-column-series" transform="translate(43,42) scale(1 1)" clip-path="url(#highcharts-81icjft-199-)"><rect x="2" y="0" width="14" height="8" fill="#68ab2b" opacity="1" class="highcharts-point"></rect><rect x="18" y="0" width="14" height="4" fill="#68ab2b" opacity="1" class="highcharts-point"></rect><rect x="52" y="0" width="14" height="8" fill="#68ab2b" opacity="1" class="highcharts-point"></rect><rect x="68" y="0" width="14" height="4" fill="#68ab2b" opacity="1" class="highcharts-point"></rect><rect x="102" y="0" width="14" height="8" fill="#68ab2b" opacity="1" class="highcharts-point"></rect><rect x="118" y="0" width="14" height="8" fill="#68ab2b" opacity="1" class="highcharts-point"></rect><rect x="152" y="0" width="14" height="8" fill="#68ab2b" opacity="1" class="highcharts-point"></rect><rect x="169" y="0" width="14" height="14" fill="#68ab2b" opacity="1" class="highcharts-point"></rect><rect x="202" y="0" width="14" height="8" fill="#68ab2b" opacity="1" class="highcharts-point"></rect><rect x="219" y="0" width="14" height="15" fill="#68ab2b" opacity="1" class="highcharts-point"></rect><rect x="252" y="0" width="14" height="10" fill="#68ab2b" opacity="1" class="highcharts-point"></rect><rect x="269" y="0" width="14" height="15" fill="#68ab2b" opacity="1" class="highcharts-point"></rect><rect x="302" y="0" width="14" height="10" fill="#68ab2b" opacity="1" class="highcharts-point"></rect><rect x="319" y="0" width="14" height="15" fill="#68ab2b" opacity="1" class="highcharts-point"></rect><rect x="352" y="0" width="14" height="10" fill="#68ab2b" opacity="1" class="highcharts-point"></rect><rect x="369" y="0" width="14" height="15" fill="#68ab2b" opacity="1" class="highcharts-point"></rect><rect x="402" y="0" width="14" height="10" fill="#68ab2b" opacity="1" class="highcharts-point"></rect><rect x="419" y="0" width="14" height="25" fill="#68ab2b" opacity="1" class="highcharts-point"></rect><rect x="452" y="0" width="14" height="10" fill="#68ab2b" opacity="1" class="highcharts-point"></rect><rect x="469" y="0" width="14" height="25" fill="#68ab2b" opacity="1" class="highcharts-point"></rect><rect x="502" y="0" width="14" height="11" fill="#68ab2b" opacity="1" class="highcharts-point"></rect><rect x="519" y="0" width="14" height="25" fill="#68ab2b" opacity="1" class="highcharts-point"></rect></g><g data-z-index="0.1" class="highcharts-markers highcharts-series-0 highcharts-column-series" transform="translate(43,42) scale(1 1)" clip-path="none"></g><g data-z-index="0.1" class="highcharts-series highcharts-series-1 highcharts-column-series" transform="translate(43,42) scale(1 1)" clip-path="url(#highcharts-81icjft-199-)"><rect x="18" y="4" width="14" height="1" fill="#008AC3" opacity="1" class="highcharts-point"></rect><rect x="68" y="4" width="14" height="1" fill="#008AC3" opacity="1" class="highcharts-point"></rect><rect x="118" y="8" width="14" height="1" fill="#008AC3" opacity="1" class="highcharts-point"></rect><rect x="169" y="14" width="14" height="1" fill="#008AC3" opacity="1" class="highcharts-point"></rect><rect x="219" y="15" width="14" height="1" fill="#008AC3" opacity="1" class="highcharts-point"></rect><rect x="269" y="15" width="14" height="1" fill="#008AC3" opacity="1" class="highcharts-point"></rect><rect x="319" y="15" width="14" height="1" fill="#008AC3" opacity="1" class="highcharts-point"></rect><rect x="369" y="15" width="14" height="1" fill="#008AC3" opacity="1" class="highcharts-point"></rect><rect x="419" y="25" width="14" height="1" fill="#008AC3" opacity="1" class="highcharts-point"></rect><rect x="469" y="25" width="14" height="1" fill="#008AC3" opacity="1" class="highcharts-point"></rect><rect x="519" y="25" width="14" height="1" fill="#008AC3" opacity="1" class="highcharts-point"></rect></g><g data-z-index="0.1" class="highcharts-markers highcharts-series-1 highcharts-column-series" transform="translate(43,42) scale(1 1)" clip-path="none"></g><g data-z-index="0.1" class="highcharts-series highcharts-series-2 highcharts-column-series" transform="translate(43,42) scale(1 1)" clip-path="url(#highcharts-81icjft-199-)"><rect x="2" y="8" width="14" height="50" fill="#C8C8C8" opacity="1" class="highcharts-point"></rect><rect x="18" y="5" width="14" height="19" fill="#C8C8C8" opacity="1" class="highcharts-point"></rect><rect x="52" y="8" width="14" height="50" fill="#C8C8C8" opacity="1" class="highcharts-point"></rect><rect x="68" y="5" width="14" height="19" fill="#C8C8C8" opacity="1" class="highcharts-point"></rect><rect x="102" y="8" width="14" height="50" fill="#C8C8C8" opacity="1" class="highcharts-point"></rect><rect x="118" y="9" width="14" height="22" fill="#C8C8C8" opacity="1" class="highcharts-point"></rect><rect x="152" y="8" width="14" height="50" fill="#C8C8C8" opacity="1" class="highcharts-point"></rect><rect x="169" y="15" width="14" height="22" fill="#C8C8C8" opacity="1" class="highcharts-point"></rect><rect x="202" y="8" width="14" height="45" fill="#C8C8C8" opacity="1" class="highcharts-point"></rect><rect x="219" y="16" width="14" height="22" fill="#C8C8C8" opacity="1" class="highcharts-point"></rect><rect x="252" y="10" width="14" height="52" fill="#C8C8C8" opacity="1" class="highcharts-point"></rect><rect x="269" y="16" width="14" height="9" fill="#C8C8C8" opacity="1" class="highcharts-point"></rect><rect x="302" y="10" width="14" height="52" fill="#C8C8C8" opacity="1" class="highcharts-point"></rect><rect x="319" y="16" width="14" height="8" fill="#C8C8C8" opacity="1" class="highcharts-point"></rect><rect x="352" y="10" width="14" height="51" fill="#C8C8C8" opacity="1" class="highcharts-point"></rect><rect x="369" y="16" width="14" height="9" fill="#C8C8C8" opacity="1" class="highcharts-point"></rect><rect x="402" y="10" width="14" height="52" fill="#C8C8C8" opacity="1" class="highcharts-point"></rect><rect x="419" y="26" width="14" height="15" fill="#C8C8C8" opacity="1" class="highcharts-point"></rect><rect x="452" y="10" width="14" height="51" fill="#C8C8C8" opacity="1" class="highcharts-point"></rect><rect x="469" y="26" width="14" height="15" fill="#C8C8C8" opacity="1" class="highcharts-point"></rect><rect x="502" y="11" width="14" height="51" fill="#C8C8C8" opacity="1" class="highcharts-point"></rect><rect x="519" y="26" width="14" height="16" fill="#C8C8C8" opacity="1" class="highcharts-point"></rect></g><g data-z-index="0.1" class="highcharts-markers highcharts-series-2 highcharts-column-series" transform="translate(43,42) scale(1 1)" clip-path="none"></g><g data-z-index="0.1" class="highcharts-series highcharts-series-3 highcharts-column-series" transform="translate(43,42) scale(1 1)" clip-path="url(#highcharts-81icjft-199-)"><rect x="2" y="58" width="14" height="30" fill="#8A8A8A" opacity="1" class="highcharts-point"></rect><rect x="18" y="24" width="14" height="23" fill="#8A8A8A" opacity="1" class="highcharts-point"></rect><rect x="52" y="58" width="14" height="30" fill="#8A8A8A" opacity="1" class="highcharts-point"></rect><rect x="68" y="24" width="14" height="26" fill="#8A8A8A" opacity="1" class="highcharts-point"></rect><rect x="102" y="58" width="14" height="30" fill="#8A8A8A" opacity="1" class="highcharts-point"></rect><rect x="118" y="31" width="14" height="29" fill="#8A8A8A" opacity="1" class="highcharts-point"></rect><rect x="152" y="58" width="14" height="30" fill="#8A8A8A" opacity="1" class="highcharts-point"></rect><rect x="169" y="37" width="14" height="29" fill="#8A8A8A" opacity="1" class="highcharts-point"></rect><rect x="202" y="53" width="14" height="30" fill="#8A8A8A" opacity="1" class="highcharts-point"></rect><rect x="219" y="38" width="14" height="30" fill="#8A8A8A" opacity="1" class="highcharts-point"></rect><rect x="252" y="62" width="14" height="28" fill="#8A8A8A" opacity="1" class="highcharts-point"></rect><rect x="269" y="25" width="14" height="29" fill="#8A8A8A" opacity="1" class="highcharts-point"></rect><rect x="302" y="62" width="14" height="28" fill="#8A8A8A" opacity="1" class="highcharts-point"></rect><rect x="319" y="24" width="14" height="29" fill="#8A8A8A" opacity="1" class="highcharts-point"></rect><rect x="352" y="61" width="14" height="28" fill="#8A8A8A" opacity="1" class="highcharts-point"></rect><rect x="369" y="25" width="14" height="29" fill="#8A8A8A" opacity="1" class="highcharts-point"></rect><rect x="402" y="62" width="14" height="27" fill="#8A8A8A" opacity="1" class="highcharts-point"></rect><rect x="419" y="41" width="14" height="31" fill="#8A8A8A" opacity="1" class="highcharts-point"></rect><rect x="452" y="61" width="14" height="28" fill="#8A8A8A" opacity="1" class="highcharts-point"></rect><rect x="469" y="41" width="14" height="32" fill="#8A8A8A" opacity="1" class="highcharts-point"></rect><rect x="502" y="62" width="14" height="28" fill="#8A8A8A" opacity="1" class="highcharts-point"></rect><rect x="519" y="42" width="14" height="33" fill="#8A8A8A" opacity="1" class="highcharts-point"></rect></g><g data-z-index="0.1" class="highcharts-markers highcharts-series-3 highcharts-column-series" transform="translate(43,42) scale(1 1)" clip-path="none"></g><g data-z-index="0.1" class="highcharts-series highcharts-series-4 highcharts-column-series" transform="translate(43,42) scale(1 1)" clip-path="url(#highcharts-81icjft-199-)"><rect x="2" y="88" width="14" height="25" fill="#474747" opacity="1" class="highcharts-point"></rect><rect x="18" y="47" width="14" height="66" fill="#474747" opacity="1" class="highcharts-point"></rect><rect x="52" y="88" width="14" height="25" fill="#474747" opacity="1" class="highcharts-point"></rect><rect x="68" y="50" width="14" height="63" fill="#474747" opacity="1" class="highcharts-point"></rect><rect x="102" y="88" width="14" height="25" fill="#474747" opacity="1" class="highcharts-point"></rect><rect x="118" y="60" width="14" height="53" fill="#474747" opacity="1" class="highcharts-point"></rect><rect x="152" y="88" width="14" height="25" fill="#474747" opacity="1" class="highcharts-point"></rect><rect x="169" y="66" width="14" height="47" fill="#474747" opacity="1" class="highcharts-point"></rect><rect x="202" y="83" width="14" height="30" fill="#474747" opacity="1" class="highcharts-point"></rect><rect x="219" y="68" width="14" height="45" fill="#474747" opacity="1" class="highcharts-point"></rect><rect x="252" y="90" width="14" height="23" fill="#474747" opacity="1" class="highcharts-point"></rect><rect x="269" y="54" width="14" height="59" fill="#474747" opacity="1" class="highcharts-point"></rect><rect x="302" y="90" width="14" height="23" fill="#474747" opacity="1" class="highcharts-point"></rect><rect x="319" y="53" width="14" height="60" fill="#474747" opacity="1" class="highcharts-point"></rect><rect x="352" y="89" width="14" height="24" fill="#474747" opacity="1" class="highcharts-point"></rect><rect x="369" y="54" width="14" height="59" fill="#474747" opacity="1" class="highcharts-point"></rect><rect x="402" y="89" width="14" height="24" fill="#474747" opacity="1" class="highcharts-point"></rect><rect x="419" y="72" width="14" height="41" fill="#474747" opacity="1" class="highcharts-point"></rect><rect x="452" y="89" width="14" height="24" fill="#474747" opacity="1" class="highcharts-point"></rect><rect x="469" y="73" width="14" height="40" fill="#474747" opacity="1" class="highcharts-point"></rect><rect x="502" y="90" width="14" height="23" fill="#474747" opacity="1" class="highcharts-point"></rect><rect x="519" y="75" width="14" height="38" fill="#474747" opacity="1" class="highcharts-point"></rect></g><g data-z-index="0.1" class="highcharts-markers highcharts-series-4 highcharts-column-series" transform="translate(43,42) scale(1 1)" clip-path="none"></g></g><text x="2" text-anchor="start" class="highcharts-title" data-z-index="4" style="color:#000000;font-size:10px;font-weight:bold;fill:#000000;" y="12"><tspan>Bodenbedeckung nach Nutzungsarten</tspan></text><text x="2" text-anchor="start" class="highcharts-subtitle" data-z-index="4" style="color:#000000;font-size:10px;font-weight:normal;font-family:Arial;fill:#000000;" y="28"><tspan>Anteil an der Bezirksfläche, Wohnviertel Rosental, nach Bezirk</tspan></text><text x="2" text-anchor="start" class="highcharts-caption" data-z-index="4" style="color:#666666;fill:#666666;" y="218"></text><g class="highcharts-legend" data-z-index="7" transform="translate(589,34)"><rect fill="none" class="highcharts-legend-box" rx="0" ry="0" x="0" y="0" width="73" height="114" visibility="visible"></rect><g data-z-index="1"><g><g class="highcharts-legend-item highcharts-column-series highcharts-color-undefined highcharts-series-0" data-z-index="1" transform="translate(0,-5)"><text x="21" style="color:#333333;cursor:pointer;font-size:10px;font-weight:bold;fill:#333333;" text-anchor="start" data-z-index="2" y="13"><tspan>Grünfläche</tspan></text><rect x="3" y="4" width="10" height="10" fill="#68ab2b" class="highcharts-point" data-z-index="3"></rect></g><g class="highcharts-legend-item highcharts-column-series highcharts-color-undefined highcharts-series-1" data-z-index="1" transform="translate(0,11)"><text x="21" y="13" style="color:#333333;cursor:pointer;font-size:10px;font-weight:bold;fill:#333333;" text-anchor="start" data-z-index="2"><tspan>Gewässer</tspan></text><rect x="3" y="4" width="10" height="10" fill="#008AC3" class="highcharts-point" data-z-index="3"></rect></g><g class="highcharts-legend-item highcharts-column-series highcharts-color-undefined highcharts-series-2" data-z-index="1" transform="translate(0,27)"><text x="21" y="13" style="color:#333333;cursor:pointer;font-size:10px;font-weight:bold;fill:#333333;" text-anchor="start" data-z-index="2"><tspan>Gebäude</tspan></text><rect x="3" y="4" width="10" height="10" fill="#C8C8C8" class="highcharts-point" data-z-index="3"></rect></g><g class="highcharts-legend-item highcharts-column-series highcharts-color-undefined highcharts-series-3" data-z-index="1" transform="translate(0,43)"><text x="21" y="13" style="color:#333333;cursor:pointer;font-size:10px;font-weight:bold;fill:#333333;" text-anchor="start" data-z-index="2"><tspan>Verkehrs-</tspan><tspan x="21" dy="13">fläche</tspan></text><rect x="3" y="4" width="10" height="10" fill="#8A8A8A" class="highcharts-point" data-z-index="3"></rect></g><g class="highcharts-legend-item highcharts-column-series highcharts-color-undefined highcharts-series-4" data-z-index="1" transform="translate(0,72)"><text x="21" y="13" style="color:#333333;cursor:pointer;font-size:10px;font-weight:bold;fill:#333333;" text-anchor="start" data-z-index="2"><tspan>Übrige</tspan><tspan dy="13" x="21">befestigte</tspan><tspan dy="13" x="21">Flächen</tspan></text><rect x="3" y="4" width="10" height="10" fill="#474747" class="highcharts-point" data-z-index="3"></rect></g></g></g></g><g class="highcharts-axis-labels highcharts-xaxis-labels" data-z-index="7"><text x="54.677083333333336" style="color:#000000;cursor:default;font-size:10px;fill:#000000;" text-anchor="end" transform="translate(0,0) rotate(-90 54.677083333333336 166)" y="166" opacity="1"><tspan>2008: Me.</tspan></text><text x="71.36458333333333" style="color:#000000;cursor:default;font-size:10px;fill:#000000;" text-anchor="end" transform="translate(0,0) rotate(-90 71.36458333333333 166)" y="166" opacity="1"><tspan>2008: Erl.</tspan></text><text x="88.05208333333333" style="color:#000000;cursor:default;font-size:10px;fill:#000000;" text-anchor="end" transform="translate(0,0) rotate(-90 88.05208333333333 166)" y="166" opacity="1"></text><text x="104.73958333333333" style="color:#000000;cursor:default;font-size:10px;fill:#000000;" text-anchor="end" transform="translate(0,0) rotate(-90 104.73958333333333 166)" y="166" opacity="1"><tspan>2009: Me.</tspan></text><text x="121.42708333333334" style="color:#000000;cursor:default;font-size:10px;fill:#000000;" text-anchor="end" transform="translate(0,0) rotate(-90 121.42708333333334 166)" y="166" opacity="1"><tspan>2009: Erl.</tspan></text><text x="138.11458333333334" style="color:#000000;cursor:default;font-size:10px;fill:#000000;" text-anchor="end" transform="translate(0,0) rotate(-90 138.11458333333334 166)" y="166" opacity="1"></text><text x="154.80208333333334" style="color:#000000;cursor:default;font-size:10px;fill:#000000;" text-anchor="end" transform="translate(0,0) rotate(-90 154.80208333333334 166)" y="166" opacity="1"><tspan>2010: Me.</tspan></text><text x="171.48958333333334" style="color:#000000;cursor:default;font-size:10px;fill:#000000;" text-anchor="end" transform="translate(0,0) rotate(-90 171.48958333333334 166)" y="166" opacity="1"><tspan>2010: Erl.</tspan></text><text x="188.17708333333334" style="color:#000000;cursor:default;font-size:10px;fill:#000000;" text-anchor="end" transform="translate(0,0) rotate(-90 188.17708333333334 166)" y="166" opacity="1"></text><text x="204.86458333333334" style="color:#000000;cursor:default;font-size:10px;fill:#000000;" text-anchor="end" transform="translate(0,0) rotate(-90 204.86458333333334 166)" y="166" opacity="1"><tspan>2011: Me.</tspan></text><text x="221.55208333333334" style="color:#000000;cursor:default;font-size:10px;fill:#000000;" text-anchor="end" transform="translate(0,0) rotate(-90 221.55208333333334 166)" y="166" opacity="1"><tspan>2011: Erl.</tspan></text><text x="238.23958333333334" style="color:#000000;cursor:default;font-size:10px;fill:#000000;" text-anchor="end" transform="translate(0,0) rotate(-90 238.23958333333334 166)" y="166" opacity="1"></text><text x="254.92708333333331" style="color:#000000;cursor:default;font-size:10px;fill:#000000;" text-anchor="end" transform="translate(0,0) rotate(-90 254.92708333333331 166)" y="166" opacity="1"><tspan>2012: Me.</tspan></text><text x="271.6145833333333" style="color:#000000;cursor:default;font-size:10px;fill:#000000;" text-anchor="end" transform="translate(0,0) rotate(-90 271.6145833333333 166)" y="166" opacity="1"><tspan>2012: Erl.</tspan></text><text x="288.3020833333333" style="color:#000000;cursor:default;font-size:10px;fill:#000000;" text-anchor="end" transform="translate(0,0) rotate(-90 288.3020833333333 166)" y="166" opacity="1"></text><text x="304.9895833333333" style="color:#000000;cursor:default;font-size:10px;fill:#000000;" text-anchor="end" transform="translate(0,0) rotate(-90 304.9895833333333 166)" y="166" opacity="1"><tspan>2013: Me.</tspan></text><text x="321.6770833333333" style="color:#000000;cursor:default;font-size:10px;fill:#000000;" text-anchor="end" transform="translate(0,0) rotate(-90 321.6770833333333 166)" y="166" opacity="1"><tspan>2013: Erl.</tspan></text><text x="338.3645833333333" style="color:#000000;cursor:default;font-size:10px;fill:#000000;" text-anchor="end" transform="translate(0,0) rotate(-90 338.3645833333333 166)" y="166" opacity="1"></text><text x="355.0520833333333" style="color:#000000;cursor:default;font-size:10px;fill:#000000;" text-anchor="end" transform="translate(0,0) rotate(-90 355.0520833333333 166)" y="166" opacity="1"><tspan>2014: Me.</tspan></text><text x="371.7395833333333" style="color:#000000;cursor:default;font-size:10px;fill:#000000;" text-anchor="end" transform="translate(0,0) rotate(-90 371.7395833333333 166)" y="166" opacity="1"><tspan>2014: Erl.</tspan></text><text x="388.4270833333333" style="color:#000000;cursor:default;font-size:10px;fill:#000000;" text-anchor="end" transform="translate(0,0) rotate(-90 388.4270833333333 166)" y="166" opacity="1"></text><text x="405.1145833333333" style="color:#000000;cursor:default;font-size:10px;fill:#000000;" text-anchor="end" transform="translate(0,0) rotate(-90 405.1145833333333 166)" y="166" opacity="1"><tspan>2015: Me.</tspan></text><text x="421.8020833333333" style="color:#000000;cursor:default;font-size:10px;fill:#000000;" text-anchor="end" transform="translate(0,0) rotate(-90 421.8020833333333 166)" y="166" opacity="1"><tspan>2015: Erl.</tspan></text><text x="438.4895833333333" style="color:#000000;cursor:default;font-size:10px;fill:#000000;" text-anchor="end" transform="translate(0,0) rotate(-90 438.4895833333333 166)" y="166" opacity="1"></text><text x="455.1770833333333" style="color:#000000;cursor:default;font-size:10px;fill:#000000;" text-anchor="end" transform="translate(0,0) rotate(-90 455.1770833333333 166)" y="166" opacity="1"><tspan>2016: Me.</tspan></text><text x="471.8645833333333" style="color:#000000;cursor:default;font-size:10px;fill:#000000;" text-anchor="end" transform="translate(0,0) rotate(-90 471.8645833333333 166)" y="166" opacity="1"><tspan>2016: Erl.</tspan></text><text x="488.5520833333333" style="color:#000000;cursor:default;font-size:10px;fill:#000000;" text-anchor="end" transform="translate(0,0) rotate(-90 488.5520833333333 166)" y="166" opacity="1"></text><text x="505.23958333333337" style="color:#000000;cursor:default;font-size:10px;fill:#000000;" text-anchor="end" transform="translate(0,0) rotate(-90 505.23958333333337 166)" y="166" opacity="1"><tspan>2017: Me.</tspan></text><text x="521.9270833333334" style="color:#000000;cursor:default;font-size:10px;fill:#000000;" text-anchor="end" transform="translate(0,0) rotate(-90 521.9270833333334 166)" y="166" opacity="1"><tspan>2017: Erl.</tspan></text><text x="538.6145833333334" style="color:#000000;cursor:default;font-size:10px;fill:#000000;" text-anchor="end" transform="translate(0,0) rotate(-90 538.6145833333334 166)" y="166" opacity="1"></text><text x="555.3020833333334" style="color:#000000;cursor:default;font-size:10px;fill:#000000;" text-anchor="end" transform="translate(0,0) rotate(-90 555.3020833333334 166)" y="166" opacity="1"><tspan>2018: Me.</tspan></text><text x="571.9895833333334" style="color:#000000;cursor:default;font-size:10px;fill:#000000;" text-anchor="end" transform="translate(0,0) rotate(-90 571.9895833333334 166)" y="166" opacity="1"><tspan>2018: Erl.</tspan></text></g><g class="highcharts-axis-labels highcharts-yaxis-labels" data-z-index="7"><text x="28" style="color:#000000;cursor:default;font-size:10px;fill:#000000;" text-anchor="end" transform="translate(0,0)" y="157" opacity="1">0%</text><text x="28" style="color:#000000;cursor:default;font-size:10px;fill:#000000;" text-anchor="end" transform="translate(0,0)" y="129" opacity="1">25%</text><text x="28" style="color:#000000;cursor:default;font-size:10px;fill:#000000;" text-anchor="end" transform="translate(0,0)" y="101" opacity="1">50%</text><text x="28" style="color:#000000;cursor:default;font-size:10px;fill:#000000;" text-anchor="end" transform="translate(0,0)" y="73" opacity="1">75%</text><text x="28" style="color:#000000;cursor:default;font-size:10px;fill:#000000;" text-anchor="end" transform="translate(0,0)" y="45" opacity="1">100%</text></g><text x="10" class="highcharts-credits" text-anchor="start" data-z-index="8" style="cursor:default;color:#000000;font-size:10;fill:#000000;" y="196"><tspan>Quelle: Grundbuch- und Vermessungsamt Basel-Stadt.</tspan><tspan x="10" dy="15">Zuletzt geändert: 2019-12-10</tspan></text></svg>