<?xml version="1.0" standalone="no"?><!DOCTYPE svg PUBLIC "-//W3C//DTD SVG 1.1//EN" "http://www.w3.org/Graphics/SVG/1.1/DTD/svg11.dtd"><svg xmlns:xlink="http://www.w3.org/1999/xlink" version="1.1" class="highcharts-root" style="font-family:Arial;font-size:12px;" xmlns="http://www.w3.org/2000/svg" viewBox="0 0 485 415"><desc>Created with Highcharts 8.1.0</desc><defs><clipPath id="highcharts-lv8vsw9-92-"><rect x="0" y="0" width="175" height="107" fill="none"></rect></clipPath><clipPath id="highcharts-lv8vsw9-110-"><rect x="0" y="0" width="175" height="107" fill="none"></rect></clipPath><clipPath id="highcharts-lv8vsw9-179-"><rect x="31" y="42" width="175" height="107" fill="none"></rect></clipPath></defs><rect fill="#fbfbfb" class="highcharts-background" x="0" y="0" width="320" height="221" rx="0" ry="0"></rect><rect fill="none" class="highcharts-plot-background" x="31" y="42" width="175" height="107"></rect><g class="highcharts-pane-group" data-z-index="0"></g><g class="highcharts-grid highcharts-xaxis-grid" data-z-index="1"><path fill="none" data-z-index="1" class="highcharts-grid-line" d="M 40.5 42 L 40.5 149" opacity="1"></path><path fill="none" data-z-index="1" class="highcharts-grid-line" d="M 51.5 42 L 51.5 149" opacity="1"></path><path fill="none" data-z-index="1" class="highcharts-grid-line" d="M 61.5 42 L 61.5 149" opacity="1"></path><path fill="none" data-z-index="1" class="highcharts-grid-line" d="M 71.5 42 L 71.5 149" opacity="1"></path><path fill="none" data-z-index="1" class="highcharts-grid-line" d="M 81.5 42 L 81.5 149" opacity="1"></path><path fill="none" data-z-index="1" class="highcharts-grid-line" d="M 92.5 42 L 92.5 149" opacity="1"></path><path fill="none" data-z-index="1" class="highcharts-grid-line" d="M 102.5 42 L 102.5 149" opacity="1"></path><path fill="none" data-z-index="1" class="highcharts-grid-line" d="M 112.5 42 L 112.5 149" opacity="1"></path><path fill="none" data-z-index="1" class="highcharts-grid-line" d="M 123.5 42 L 123.5 149" opacity="1"></path><path fill="none" data-z-index="1" class="highcharts-grid-line" d="M 133.5 42 L 133.5 149" opacity="1"></path><path fill="none" data-z-index="1" class="highcharts-grid-line" d="M 143.5 42 L 143.5 149" opacity="1"></path><path fill="none" data-z-index="1" class="highcharts-grid-line" d="M 154.5 42 L 154.5 149" opacity="1"></path><path fill="none" data-z-index="1" class="highcharts-grid-line" d="M 164.5 42 L 164.5 149" opacity="1"></path><path fill="none" data-z-index="1" class="highcharts-grid-line" d="M 174.5 42 L 174.5 149" opacity="1"></path><path fill="none" data-z-index="1" class="highcharts-grid-line" d="M 184.5 42 L 184.5 149" opacity="1"></path><path fill="none" data-z-index="1" class="highcharts-grid-line" d="M 195.5 42 L 195.5 149" opacity="1"></path><path fill="none" data-z-index="1" class="highcharts-grid-line" d="M 205.5 42 L 205.5 149" opacity="1"></path><path fill="none" data-z-index="1" class="highcharts-grid-line" d="M 30.5 42 L 30.5 149" opacity="1"></path></g><g class="highcharts-grid highcharts-yaxis-grid" data-z-index="1"><path fill="none" stroke="#B9CFD7" stroke-width="0.5" data-z-index="1" class="highcharts-grid-line" d="M 31 149.25 L 206 149.25" opacity="1"></path><path fill="none" stroke="#B9CFD7" stroke-width="0.5" data-z-index="1" class="highcharts-grid-line" d="M 31 122.25 L 206 122.25" opacity="1"></path><path fill="none" stroke="#B9CFD7" stroke-width="0.5" data-z-index="1" class="highcharts-grid-line" d="M 31 96.25 L 206 96.25" opacity="1"></path><path fill="none" stroke="#B9CFD7" stroke-width="0.5" data-z-index="1" class="highcharts-grid-line" d="M 31 69.25 L 206 69.25" opacity="1"></path><path fill="none" stroke="#B9CFD7" stroke-width="0.5" data-z-index="1" class="highcharts-grid-line" d="M 31 41.75 L 206 41.75" opacity="1"></path></g><rect fill="none" class="highcharts-plot-border" data-z-index="1" x="31" y="42" width="175" height="107"></rect><g class="highcharts-axis highcharts-xaxis" data-z-index="2"><path fill="none" class="highcharts-axis-line" stroke="#B9CFD7" stroke-width="0.5" data-z-index="7" d="M 31 149.25 L 206 149.25"></path></g><g class="highcharts-axis highcharts-yaxis" data-z-index="2"><path fill="none" class="highcharts-axis-line" data-z-index="7" d="M 31 42 L 31 149"></path></g><g class="highcharts-series-group" data-z-index="3"><g data-z-index="0.1" class="highcharts-series highcharts-series-0 highcharts-column-series" transform="translate(31,42) scale(1 1)" clip-path="url(#highcharts-lv8vsw9-110-)"><rect x="0" y="12" width="10" height="0" fill="#6F6F6F" opacity="1" class="highcharts-point"></rect><rect x="10" y="98" width="10" height="0" fill="#6F6F6F" opacity="1" class="highcharts-point"></rect><rect x="21" y="108" width="10" height="0" fill="#6F6F6F" opacity="1" class="highcharts-point highcharts-null-point"></rect><rect x="31" y="11" width="10" height="1" fill="#6F6F6F" opacity="1" class="highcharts-point"></rect><rect x="41" y="99" width="10" height="0" fill="#6F6F6F" opacity="1" class="highcharts-point"></rect><rect x="52" y="108" width="10" height="0" fill="#6F6F6F" opacity="1" class="highcharts-point highcharts-null-point"></rect><rect x="62" y="12" width="10" height="1" fill="#6F6F6F" opacity="1" class="highcharts-point"></rect><rect x="72" y="97" width="10" height="0" fill="#6F6F6F" opacity="1" class="highcharts-point"></rect><rect x="83" y="108" width="10" height="0" fill="#6F6F6F" opacity="1" class="highcharts-point highcharts-null-point"></rect><rect x="93" y="13" width="10" height="0" fill="#6F6F6F" opacity="1" class="highcharts-point"></rect><rect x="103" y="97" width="10" height="0" fill="#6F6F6F" opacity="1" class="highcharts-point"></rect><rect x="113" y="108" width="10" height="0" fill="#6F6F6F" opacity="1" class="highcharts-point highcharts-null-point"></rect><rect x="124" y="14" width="10" height="0" fill="#6F6F6F" opacity="1" class="highcharts-point"></rect><rect x="134" y="96" width="10" height="0" fill="#6F6F6F" opacity="1" class="highcharts-point"></rect><rect x="144" y="108" width="10" height="0" fill="#6F6F6F" opacity="1" class="highcharts-point highcharts-null-point"></rect><rect x="155" y="14" width="10" height="0" fill="#6F6F6F" opacity="1" class="highcharts-point"></rect><rect x="165" y="95" width="10" height="1" fill="#6F6F6F" opacity="1" class="highcharts-point"></rect></g><g data-z-index="0.1" class="highcharts-markers highcharts-series-0 highcharts-column-series" transform="translate(31,42) scale(1 1)" clip-path="none"></g><g data-z-index="0.1" class="highcharts-series highcharts-series-1 highcharts-column-series" transform="translate(31,42) scale(1 1)" clip-path="url(#highcharts-lv8vsw9-110-)"><rect x="0" y="12" width="10" height="18" fill="#C9D6DB" opacity="1" class="highcharts-point"></rect><rect x="10" y="98" width="10" height="4" fill="#C9D6DB" opacity="1" class="highcharts-point"></rect><rect x="21" y="108" width="10" height="0" fill="#C9D6DB" opacity="1" class="highcharts-point highcharts-null-point"></rect><rect x="31" y="12" width="10" height="17" fill="#C9D6DB" opacity="1" class="highcharts-point"></rect><rect x="41" y="99" width="10" height="3" fill="#C9D6DB" opacity="1" class="highcharts-point"></rect><rect x="52" y="108" width="10" height="0" fill="#C9D6DB" opacity="1" class="highcharts-point highcharts-null-point"></rect><rect x="62" y="13" width="10" height="17" fill="#C9D6DB" opacity="1" class="highcharts-point"></rect><rect x="72" y="97" width="10" height="2" fill="#C9D6DB" opacity="1" class="highcharts-point"></rect><rect x="83" y="108" width="10" height="0" fill="#C9D6DB" opacity="1" class="highcharts-point highcharts-null-point"></rect><rect x="93" y="13" width="10" height="16" fill="#C9D6DB" opacity="1" class="highcharts-point"></rect><rect x="103" y="97" width="10" height="2" fill="#C9D6DB" opacity="1" class="highcharts-point"></rect><rect x="113" y="108" width="10" height="0" fill="#C9D6DB" opacity="1" class="highcharts-point highcharts-null-point"></rect><rect x="124" y="14" width="10" height="15" fill="#C9D6DB" opacity="1" class="highcharts-point"></rect><rect x="134" y="96" width="10" height="2" fill="#C9D6DB" opacity="1" class="highcharts-point"></rect><rect x="144" y="108" width="10" height="0" fill="#C9D6DB" opacity="1" class="highcharts-point highcharts-null-point"></rect><rect x="155" y="14" width="10" height="14" fill="#C9D6DB" opacity="1" class="highcharts-point"></rect><rect x="165" y="96" width="10" height="1" fill="#C9D6DB" opacity="1" class="highcharts-point"></rect></g><g data-z-index="0.1" class="highcharts-markers highcharts-series-1 highcharts-column-series" transform="translate(31,42) scale(1 1)" clip-path="none"></g><g data-z-index="0.1" class="highcharts-series highcharts-series-2 highcharts-column-series" transform="translate(31,42) scale(1 1)" clip-path="url(#highcharts-lv8vsw9-110-)"><rect x="0" y="30" width="10" height="47" fill="#FFDA80" opacity="1" class="highcharts-point"></rect><rect x="10" y="102" width="10" height="3" fill="#FFDA80" opacity="1" class="highcharts-point"></rect><rect x="21" y="108" width="10" height="0" fill="#FFDA80" opacity="1" class="highcharts-point highcharts-null-point"></rect><rect x="31" y="29" width="10" height="46" fill="#FFDA80" opacity="1" class="highcharts-point"></rect><rect x="41" y="102" width="10" height="3" fill="#FFDA80" opacity="1" class="highcharts-point"></rect><rect x="52" y="108" width="10" height="0" fill="#FFDA80" opacity="1" class="highcharts-point highcharts-null-point"></rect><rect x="62" y="30" width="10" height="45" fill="#FFDA80" opacity="1" class="highcharts-point"></rect><rect x="72" y="99" width="10" height="6" fill="#FFDA80" opacity="1" class="highcharts-point"></rect><rect x="83" y="108" width="10" height="0" fill="#FFDA80" opacity="1" class="highcharts-point highcharts-null-point"></rect><rect x="93" y="29" width="10" height="48" fill="#FFDA80" opacity="1" class="highcharts-point"></rect><rect x="103" y="99" width="10" height="6" fill="#FFDA80" opacity="1" class="highcharts-point"></rect><rect x="113" y="108" width="10" height="0" fill="#FFDA80" opacity="1" class="highcharts-point highcharts-null-point"></rect><rect x="124" y="29" width="10" height="48" fill="#FFDA80" opacity="1" class="highcharts-point"></rect><rect x="134" y="98" width="10" height="7" fill="#FFDA80" opacity="1" class="highcharts-point"></rect><rect x="144" y="108" width="10" height="0" fill="#FFDA80" opacity="1" class="highcharts-point highcharts-null-point"></rect><rect x="155" y="28" width="10" height="49" fill="#FFDA80" opacity="1" class="highcharts-point"></rect><rect x="165" y="97" width="10" height="8" fill="#FFDA80" opacity="1" class="highcharts-point"></rect></g><g data-z-index="0.1" class="highcharts-markers highcharts-series-2 highcharts-column-series" transform="translate(31,42) scale(1 1)" clip-path="none"></g><g data-z-index="0.1" class="highcharts-series highcharts-series-3 highcharts-column-series" transform="translate(31,42) scale(1 1)" clip-path="url(#highcharts-lv8vsw9-110-)"><rect x="0" y="77" width="10" height="14" fill="#C4AB91" opacity="1" class="highcharts-point"></rect><rect x="10" y="105" width="10" height="1" fill="#C4AB91" opacity="1" class="highcharts-point"></rect><rect x="21" y="108" width="10" height="0" fill="#C4AB91" opacity="1" class="highcharts-point highcharts-null-point"></rect><rect x="31" y="75" width="10" height="11" fill="#C4AB91" opacity="1" class="highcharts-point"></rect><rect x="41" y="105" width="10" height="1" fill="#C4AB91" opacity="1" class="highcharts-point"></rect><rect x="52" y="108" width="10" height="0" fill="#C4AB91" opacity="1" class="highcharts-point highcharts-null-point"></rect><rect x="62" y="75" width="10" height="12" fill="#C4AB91" opacity="1" class="highcharts-point"></rect><rect x="72" y="105" width="10" height="1" fill="#C4AB91" opacity="1" class="highcharts-point"></rect><rect x="83" y="108" width="10" height="0" fill="#C4AB91" opacity="1" class="highcharts-point highcharts-null-point"></rect><rect x="93" y="77" width="10" height="10" fill="#C4AB91" opacity="1" class="highcharts-point"></rect><rect x="103" y="105" width="10" height="1" fill="#C4AB91" opacity="1" class="highcharts-point"></rect><rect x="113" y="108" width="10" height="0" fill="#C4AB91" opacity="1" class="highcharts-point highcharts-null-point"></rect><rect x="124" y="77" width="10" height="11" fill="#C4AB91" opacity="1" class="highcharts-point"></rect><rect x="134" y="105" width="10" height="1" fill="#C4AB91" opacity="1" class="highcharts-point"></rect><rect x="144" y="108" width="10" height="0" fill="#C4AB91" opacity="1" class="highcharts-point highcharts-null-point"></rect><rect x="155" y="77" width="10" height="11" fill="#C4AB91" opacity="1" class="highcharts-point"></rect><rect x="165" y="105" width="10" height="1" fill="#C4AB91" opacity="1" class="highcharts-point"></rect></g><g data-z-index="0.1" class="highcharts-markers highcharts-series-3 highcharts-column-series" transform="translate(31,42) scale(1 1)" clip-path="none"></g><g data-z-index="0.1" class="highcharts-series highcharts-series-4 highcharts-column-series" transform="translate(31,42) scale(1 1)" clip-path="url(#highcharts-lv8vsw9-110-)"><rect x="0" y="91" width="10" height="17" fill="#9E7C59" opacity="1" class="highcharts-point"></rect><rect x="10" y="106" width="10" height="2" fill="#9E7C59" opacity="1" class="highcharts-point"></rect><rect x="21" y="108" width="10" height="0" fill="#9E7C59" opacity="1" class="highcharts-point highcharts-null-point"></rect><rect x="31" y="86" width="10" height="22" fill="#9E7C59" opacity="1" class="highcharts-point"></rect><rect x="41" y="106" width="10" height="2" fill="#9E7C59" opacity="1" class="highcharts-point"></rect><rect x="52" y="108" width="10" height="0" fill="#9E7C59" opacity="1" class="highcharts-point highcharts-null-point"></rect><rect x="62" y="87" width="10" height="21" fill="#9E7C59" opacity="1" class="highcharts-point"></rect><rect x="72" y="106" width="10" height="2" fill="#9E7C59" opacity="1" class="highcharts-point"></rect><rect x="83" y="108" width="10" height="0" fill="#9E7C59" opacity="1" class="highcharts-point highcharts-null-point"></rect><rect x="93" y="87" width="10" height="21" fill="#9E7C59" opacity="1" class="highcharts-point"></rect><rect x="103" y="106" width="10" height="2" fill="#9E7C59" opacity="1" class="highcharts-point"></rect><rect x="113" y="108" width="10" height="0" fill="#9E7C59" opacity="1" class="highcharts-point highcharts-null-point"></rect><rect x="124" y="88" width="10" height="20" fill="#9E7C59" opacity="1" class="highcharts-point"></rect><rect x="134" y="106" width="10" height="2" fill="#9E7C59" opacity="1" class="highcharts-point"></rect><rect x="144" y="108" width="10" height="0" fill="#9E7C59" opacity="1" class="highcharts-point highcharts-null-point"></rect><rect x="155" y="88" width="10" height="20" fill="#9E7C59" opacity="1" class="highcharts-point"></rect><rect x="165" y="106" width="10" height="2" fill="#9E7C59" opacity="1" class="highcharts-point"></rect></g><g data-z-index="0.1" class="highcharts-markers highcharts-series-4 highcharts-column-series" transform="translate(31,42) scale(1 1)" clip-path="none"></g></g><text x="2" text-anchor="start" class="highcharts-title" data-z-index="4" style="color:#000000;font-size:10px;font-weight:bold;fill:#000000;" y="12"><tspan>Heizsysteme nach Energieträger</tspan></text><text x="2" text-anchor="start" class="highcharts-subtitle" data-z-index="4" style="color:#000000;font-size:10px;font-weight:normal;font-family:Arial;fill:#000000;" y="28"><tspan>Wohnviertel Rosental, nach Bezirk</tspan></text><text x="2" text-anchor="start" class="highcharts-caption" data-z-index="4" style="color:#666666;fill:#666666;" y="253"></text><g class="highcharts-legend" data-z-index="7" transform="translate(218,43)"><rect fill="none" class="highcharts-legend-box" rx="0" ry="0" x="0" y="0" width="99" height="101" visibility="visible"></rect><g data-z-index="1"><g><g class="highcharts-legend-item highcharts-column-series highcharts-color-undefined highcharts-series-0" data-z-index="1" transform="translate(0,-5)"><text x="21" style="color:#333333;cursor:pointer;font-size:10px;font-weight:bold;fill:#333333;" text-anchor="start" data-z-index="2" y="13"><tspan>Kein</tspan><tspan dy="13" x="21">Energieträger</tspan></text><rect x="3" y="4" width="10" height="10" fill="#6F6F6F" class="highcharts-point" data-z-index="3"></rect></g><g class="highcharts-legend-item highcharts-column-series highcharts-color-undefined highcharts-series-1" data-z-index="1" transform="translate(0,24)"><text x="21" y="13" style="color:#333333;cursor:pointer;font-size:10px;font-weight:bold;fill:#333333;" text-anchor="start" data-z-index="2"><tspan>Anderer</tspan><tspan dy="13" x="21">Energieträger</tspan></text><rect x="3" y="4" width="10" height="10" fill="#C9D6DB" class="highcharts-point" data-z-index="3"></rect></g><g class="highcharts-legend-item highcharts-column-series highcharts-color-undefined highcharts-series-2" data-z-index="1" transform="translate(0,53)"><text x="21" y="13" style="color:#333333;cursor:pointer;font-size:10px;font-weight:bold;fill:#333333;" text-anchor="start" data-z-index="2"><tspan>Fernwärme</tspan></text><rect x="3" y="4" width="10" height="10" fill="#FFDA80" class="highcharts-point" data-z-index="3"></rect></g><g class="highcharts-legend-item highcharts-column-series highcharts-color-undefined highcharts-series-3" data-z-index="1" transform="translate(0,69)"><text x="21" y="13" style="color:#333333;cursor:pointer;font-size:10px;font-weight:bold;fill:#333333;" text-anchor="start" data-z-index="2"><tspan>Heizöl</tspan></text><rect x="3" y="4" width="10" height="10" fill="#C4AB91" class="highcharts-point" data-z-index="3"></rect></g><g class="highcharts-legend-item highcharts-column-series highcharts-color-undefined highcharts-series-4" data-z-index="1" transform="translate(0,85)"><text x="21" y="13" style="color:#333333;cursor:pointer;font-size:10px;font-weight:bold;fill:#333333;" text-anchor="start" data-z-index="2"><tspan>Erdgas</tspan></text><rect x="3" y="4" width="10" height="10" fill="#9E7C59" class="highcharts-point" data-z-index="3"></rect></g></g></g></g><g class="highcharts-axis-labels highcharts-xaxis-labels" data-z-index="7"><text x="39.48039215686292" style="color:#000000;cursor:default;font-size:10px;fill:#000000;" text-anchor="start" transform="translate(0,0) rotate(-90 39.48039215686292 194)" y="194" opacity="1"><tspan>2013: Me.</tspan></text><text x="49.77450980392192" style="color:#000000;cursor:default;font-size:10px;fill:#000000;" text-anchor="start" transform="translate(0,0) rotate(-90 49.77450980392192 194)" y="194" opacity="1"><tspan>2013: Erl.</tspan></text><text x="60.068627450979925" style="color:#000000;cursor:default;font-size:10px;fill:#000000;" text-anchor="start" transform="translate(0,0) rotate(-90 60.068627450979925 194)" y="194" opacity="1"></text><text x="70.36274509803893" style="color:#000000;cursor:default;font-size:10px;fill:#000000;" text-anchor="start" transform="translate(0,0) rotate(-90 70.36274509803893 194)" y="194" opacity="1"><tspan>2014: Me.</tspan></text><text x="80.65686274509792" style="color:#000000;cursor:default;font-size:10px;fill:#000000;" text-anchor="start" transform="translate(0,0) rotate(-90 80.65686274509792 194)" y="194" opacity="1"><tspan>2014: Erl.</tspan></text><text x="90.95098039215692" style="color:#000000;cursor:default;font-size:10px;fill:#000000;" text-anchor="start" transform="translate(0,0) rotate(-90 90.95098039215692 194)" y="194" opacity="1"></text><text x="101.24509803921393" style="color:#000000;cursor:default;font-size:10px;fill:#000000;" text-anchor="start" transform="translate(0,0) rotate(-90 101.24509803921393 194)" y="194" opacity="1"><tspan>2015: Me.</tspan></text><text x="111.53921568627392" style="color:#000000;cursor:default;font-size:10px;fill:#000000;" text-anchor="start" transform="translate(0,0) rotate(-90 111.53921568627392 194)" y="194" opacity="1"><tspan>2015: Erl.</tspan></text><text x="121.83333333333393" style="color:#000000;cursor:default;font-size:10px;fill:#000000;" text-anchor="start" transform="translate(0,0) rotate(-90 121.83333333333393 194)" y="194" opacity="1"></text><text x="132.12745098039392" style="color:#000000;cursor:default;font-size:10px;fill:#000000;" text-anchor="start" transform="translate(0,0) rotate(-90 132.12745098039392 194)" y="194" opacity="1"><tspan>2016: Me.</tspan></text><text x="142.42156862745392" style="color:#000000;cursor:default;font-size:10px;fill:#000000;" text-anchor="start" transform="translate(0,0) rotate(-90 142.42156862745392 194)" y="194" opacity="1"><tspan>2016: Erl.</tspan></text><text x="152.71568627451393" style="color:#000000;cursor:default;font-size:10px;fill:#000000;" text-anchor="start" transform="translate(0,0) rotate(-90 152.71568627451393 194)" y="194" opacity="1"></text><text x="163.00980392156393" style="color:#000000;cursor:default;font-size:10px;fill:#000000;" text-anchor="start" transform="translate(0,0) rotate(-90 163.00980392156393 194)" y="194" opacity="1"><tspan>2017: Me.</tspan></text><text x="173.30392156862393" style="color:#000000;cursor:default;font-size:10px;fill:#000000;" text-anchor="start" transform="translate(0,0) rotate(-90 173.30392156862393 194)" y="194" opacity="1"><tspan>2017: Erl.</tspan></text><text x="183.5980392156839" style="color:#000000;cursor:default;font-size:10px;fill:#000000;" text-anchor="start" transform="translate(0,0) rotate(-90 183.5980392156839 194)" y="194" opacity="1"></text><text x="193.89215686274392" style="color:#000000;cursor:default;font-size:10px;fill:#000000;" text-anchor="start" transform="translate(0,0) rotate(-90 193.89215686274392 194)" y="194" opacity="1"><tspan>2018: Me.</tspan></text><text x="204.18627450980392" style="color:#000000;cursor:default;font-size:10px;fill:#000000;" text-anchor="start" transform="translate(0,0) rotate(-90 204.18627450980392 194)" y="194" opacity="1"><tspan>2018: Erl.</tspan></text></g><g class="highcharts-axis-labels highcharts-yaxis-labels" data-z-index="7"><text x="21" style="color:#000000;cursor:default;font-size:10px;fill:#000000;" text-anchor="end" transform="translate(0,0)" y="152" opacity="1">0</text><text x="21" style="color:#000000;cursor:default;font-size:10px;fill:#000000;" text-anchor="end" transform="translate(0,0)" y="125" opacity="1">100</text><text x="21" style="color:#000000;cursor:default;font-size:10px;fill:#000000;" text-anchor="end" transform="translate(0,0)" y="99" opacity="1">200</text><text x="21" style="color:#000000;cursor:default;font-size:10px;fill:#000000;" text-anchor="end" transform="translate(0,0)" y="72" opacity="1">300</text><text x="21" style="color:#000000;cursor:default;font-size:10px;fill:#000000;" text-anchor="end" transform="translate(0,0)" y="45" opacity="1">400</text></g><text x="10" class="highcharts-credits" text-anchor="start" data-z-index="8" style="cursor:default;color:#000000;font-size:10;fill:#000000;" y="196"><tspan>Quelle: Statistisches Amt Basel-Stadt, Gebäude- und Wohnungsstatistik.</tspan><tspan x="10" dy="15">Zuletzt geändert: 2019-12-10</tspan></text><g class="highcharts-control-points" data-z-index="99" clip-path="url(#highcharts-lv8vsw9-179-)"></g></svg>