<?xml version="1.0" standalone="no"?><!DOCTYPE svg PUBLIC "-//W3C//DTD SVG 1.1//EN" "http://www.w3.org/Graphics/SVG/1.1/DTD/svg11.dtd"><svg xmlns:xlink="http://www.w3.org/1999/xlink" version="1.1" class="highcharts-root" style="font-family:Arial;font-size:12px;" xmlns="http://www.w3.org/2000/svg" viewBox="0 0 485 415"><desc>Created with Highcharts 8.0.4</desc><defs><clipPath id="highcharts-jyl4vx1-52-"><rect x="0" y="0" width="236" height="150" fill="none"></rect></clipPath><clipPath id="highcharts-jyl4vx1-64-"><rect x="0" y="0" width="236" height="150" fill="none"></rect></clipPath><clipPath id="highcharts-jyl4vx1-87-"><rect x="0" y="0" width="236" height="150" fill="none"></rect></clipPath></defs><rect fill="#fbfbfb" class="highcharts-background" x="0" y="0" width="320" height="221" rx="0" ry="0"></rect><rect fill="none" class="highcharts-plot-background" x="54" y="40" width="236" height="150"></rect><g class="highcharts-pane-group" data-z-index="0"></g><g class="highcharts-grid highcharts-xaxis-grid" data-z-index="1"><path fill="none" data-z-index="1" class="highcharts-grid-line" d="M 66.5 40 L 66.5 190" opacity="1"></path><path fill="none" data-z-index="1" class="highcharts-grid-line" d="M 108.5 40 L 108.5 190" opacity="1"></path><path fill="none" data-z-index="1" class="highcharts-grid-line" d="M 150.5 40 L 150.5 190" opacity="1"></path><path fill="none" data-z-index="1" class="highcharts-grid-line" d="M 192.5 40 L 192.5 190" opacity="1"></path><path fill="none" data-z-index="1" class="highcharts-grid-line" d="M 234.5 40 L 234.5 190" opacity="1"></path><path fill="none" data-z-index="1" class="highcharts-grid-line" d="M 276.5 40 L 276.5 190" opacity="1"></path></g><g class="highcharts-grid highcharts-yaxis-grid" data-z-index="1"><path fill="none" stroke="#B9CFD7" stroke-width="0.5" data-z-index="1" class="highcharts-grid-line" d="M 54 190.25 L 290 190.25" opacity="1"></path><path fill="none" stroke="#B9CFD7" stroke-width="0.5" data-z-index="1" class="highcharts-grid-line" d="M 54 153.25 L 290 153.25" opacity="1"></path><path fill="none" stroke="#B9CFD7" stroke-width="0.5" data-z-index="1" class="highcharts-grid-line" d="M 54 115.25 L 290 115.25" opacity="1"></path><path fill="none" stroke="#B9CFD7" stroke-width="0.5" data-z-index="1" class="highcharts-grid-line" d="M 54 78.25 L 290 78.25" opacity="1"></path><path fill="none" stroke="#B9CFD7" stroke-width="0.5" data-z-index="1" class="highcharts-grid-line" d="M 54 39.75 L 290 39.75" opacity="1"></path></g><g class="highcharts-grid highcharts-yaxis-grid" data-z-index="1"><path fill="none" stroke="#B9CFD7" stroke-width="0.5" data-z-index="1" class="highcharts-grid-line" d="M 54 190.25 L 290 190.25" opacity="1"></path><path fill="none" stroke="#B9CFD7" stroke-width="0.5" data-z-index="1" class="highcharts-grid-line" d="M 54 153.25 L 290 153.25" opacity="1"></path><path fill="none" stroke="#B9CFD7" stroke-width="0.5" data-z-index="1" class="highcharts-grid-line" d="M 54 115.25 L 290 115.25" opacity="1"></path><path fill="none" stroke="#B9CFD7" stroke-width="0.5" data-z-index="1" class="highcharts-grid-line" d="M 54 78.25 L 290 78.25" opacity="1"></path><path fill="none" stroke="#B9CFD7" stroke-width="0.5" data-z-index="1" class="highcharts-grid-line" d="M 54 39.75 L 290 39.75" opacity="1"></path></g><rect fill="none" class="highcharts-plot-border" data-z-index="1" x="54" y="40" width="236" height="150"></rect><g class="highcharts-axis highcharts-xaxis" data-z-index="2"><path fill="none" class="highcharts-axis-line" stroke="#B9CFD7" stroke-width="0.5" data-z-index="7" d="M 54 190.25 L 290 190.25"></path></g><g class="highcharts-axis highcharts-yaxis" data-z-index="2"><path fill="none" class="highcharts-axis-line" data-z-index="7" d="M 54 40 L 54 190"></path></g><g class="highcharts-axis highcharts-yaxis" data-z-index="2"><path fill="none" class="highcharts-axis-line" data-z-index="7" d="M 290 40 L 290 190"></path></g><g class="highcharts-series-group" data-z-index="3"><g data-z-index="0.1" class="highcharts-series highcharts-series-0 highcharts-column-series" transform="translate(54,40) scale(1 1)" clip-path="url(#highcharts-jyl4vx1-64-)"><rect x="7" y="140" width="6" height="11" fill="#cd9c00" opacity="1" class="highcharts-point"></rect><rect x="28" y="140" width="6" height="11" fill="#cd9c00" opacity="1" class="highcharts-point"></rect><rect x="49" y="140" width="6" height="11" fill="#cd9c00" opacity="1" class="highcharts-point"></rect><rect x="70" y="140" width="6" height="11" fill="#cd9c00" opacity="1" class="highcharts-point"></rect><rect x="91" y="140" width="6" height="11" fill="#cd9c00" opacity="1" class="highcharts-point"></rect><rect x="112" y="140" width="6" height="11" fill="#cd9c00" opacity="1" class="highcharts-point"></rect><rect x="133" y="140" width="6" height="11" fill="#cd9c00" opacity="1" class="highcharts-point"></rect><rect x="154" y="140" width="6" height="11" fill="#cd9c00" opacity="1" class="highcharts-point"></rect><rect x="176" y="140" width="6" height="11" fill="#cd9c00" opacity="1" class="highcharts-point"></rect><rect x="197" y="140" width="6" height="11" fill="#cd9c00" opacity="1" class="highcharts-point"></rect><rect x="218" y="140" width="6" height="11" fill="#cd9c00" opacity="1" class="highcharts-point"></rect></g><g data-z-index="0.1" class="highcharts-markers highcharts-series-0 highcharts-column-series" transform="translate(54,40) scale(1 1)" clip-path="none"></g><g data-z-index="0.1" class="highcharts-series highcharts-series-1 highcharts-column-series" transform="translate(54,40) scale(1 1)" clip-path="url(#highcharts-jyl4vx1-64-)"><rect x="13" y="151" width="6" height="0" fill="#b375ab" opacity="1" class="highcharts-point"></rect><rect x="34" y="151" width="6" height="0" fill="#b375ab" opacity="1" class="highcharts-point"></rect><rect x="55" y="121" width="6" height="30" fill="#b375ab" opacity="1" class="highcharts-point"></rect><rect x="76" y="54" width="6" height="97" fill="#b375ab" opacity="1" class="highcharts-point"></rect><rect x="98" y="54" width="6" height="97" fill="#b375ab" opacity="1" class="highcharts-point"></rect><rect x="119" y="54" width="6" height="97" fill="#b375ab" opacity="1" class="highcharts-point"></rect><rect x="140" y="54" width="6" height="97" fill="#b375ab" opacity="1" class="highcharts-point"></rect><rect x="161" y="54" width="6" height="97" fill="#b375ab" opacity="1" class="highcharts-point"></rect><rect x="182" y="8" width="6" height="143" fill="#b375ab" opacity="1" class="highcharts-point"></rect><rect x="203" y="11" width="6" height="140" fill="#b375ab" opacity="1" class="highcharts-point"></rect><rect x="224" y="11" width="6" height="140" fill="#b375ab" opacity="1" class="highcharts-point"></rect></g><g data-z-index="0.1" class="highcharts-markers highcharts-series-1 highcharts-column-series" transform="translate(54,40) scale(1 1)" clip-path="none"></g><g data-z-index="0.1" class="highcharts-series highcharts-series-2 highcharts-line-series" transform="translate(54,40) scale(1 1)" clip-path="url(#highcharts-jyl4vx1-87-)"><path fill="none" d="M 12.642857142855 144.1875 L 33.714285714284 144.1875 L 54.785714285713 144.1875 L 75.857142857142 144.1875 L 96.928571428571 144.1875 L 118 144.1875 L 139.07142857143 144.1875 L 160.14285714286 144.1875 L 181.21428571429 144.1875 L 202.28571428572 144.1875 L 223.35714285714 144.1875" class="highcharts-graph" data-z-index="1" stroke="#7f5f1a" stroke-width="2" stroke-linejoin="round" stroke-linecap="round"></path></g><g data-z-index="0.1" class="highcharts-markers highcharts-series-2 highcharts-line-series" transform="translate(54,40) scale(1 1)" clip-path="none"></g><g data-z-index="0.1" class="highcharts-series highcharts-series-3 highcharts-line-series" transform="translate(54,40) scale(1 1)" clip-path="url(#highcharts-jyl4vx1-87-)"><path fill="none" d="M 12.642857142855 150 L 33.714285714284 150 L 54.785714285713 127.03125 L 75.857142857142 75.75 L 96.928571428571 75.75 L 118 75.75 L 139.07142857143 75.75 L 160.14285714286 75.75 L 181.21428571429 41.34375 L 202.28571428572 43.6875 L 223.35714285714 43.6875" class="highcharts-graph" data-z-index="1" stroke="#923f8d" stroke-width="2" stroke-linejoin="round" stroke-linecap="round"></path></g><g data-z-index="0.1" class="highcharts-markers highcharts-series-3 highcharts-line-series" transform="translate(54,40) scale(1 1)" clip-path="none"></g></g><text x="2" text-anchor="start" class="highcharts-title" data-z-index="4" style="color:#000000;font-size:10px;font-weight:bold;fill:#000000;" y="9"><tspan>Freiraumfl채che</tspan></text><text x="2" text-anchor="start" class="highcharts-subtitle" data-z-index="4" style="color:#000000;font-size:10px;font-weight:normal;font-family:Arial;fill:#000000;" y="25"><tspan>in m2 und Anteil an der Bezirksfl채che, Wohnviertel Rosental,</tspan><tspan dy="13" x="2">nach Bezirk</tspan></text><text x="2" text-anchor="start" class="highcharts-caption" data-z-index="4" style="color:#666666;fill:#666666;" y="221"></text><g class="highcharts-legend" data-z-index="7" transform="translate(151,22)"><rect fill="none" class="highcharts-legend-box" rx="0" ry="0" x="0" y="0" width="160" height="51" visibility="visible"></rect><g data-z-index="1" transform="translate(0,30)"><g><g class="highcharts-legend-item highcharts-column-series highcharts-color-undefined highcharts-series-0" data-z-index="1" transform="translate(0,-5)"><text x="21" style="color:#333333;cursor:pointer;font-size:10px;font-weight:bold;fill:#333333;" text-anchor="start" data-z-index="2" y="13"><tspan>Messe</tspan></text><rect x="3" y="4" width="10" height="10" fill="#cd9c00" class="highcharts-point" data-z-index="3"></rect></g><g class="highcharts-legend-item highcharts-column-series highcharts-color-undefined highcharts-series-1" data-z-index="1" transform="translate(71.515625,-5)"><text x="21" y="13" style="color:#333333;cursor:pointer;font-size:10px;font-weight:bold;fill:#333333;" text-anchor="start" data-z-index="2"><tspan>Erlenmatt</tspan></text><rect x="3" y="4" width="10" height="10" fill="#b375ab" class="highcharts-point" data-z-index="3"></rect></g><g class="highcharts-legend-item highcharts-line-series highcharts-color-undefined highcharts-series-2" data-z-index="1" transform="translate(0,8)"><path fill="none" d="M 0 10 L 16 10" class="highcharts-graph" stroke="#7f5f1a" stroke-width="2"></path><text x="21" y="13" style="color:#333333;cursor:pointer;font-size:10px;font-weight:bold;fill:#333333;" text-anchor="start" data-z-index="2"><tspan>Messe</tspan></text></g><g class="highcharts-legend-item highcharts-line-series highcharts-color-undefined highcharts-series-3" data-z-index="1" transform="translate(71.515625,8)"><path fill="none" d="M 0 10 L 16 10" class="highcharts-graph" stroke="#923f8d" stroke-width="2"></path><text x="21" y="13" style="color:#333333;cursor:pointer;font-size:10px;font-weight:bold;fill:#333333;" text-anchor="start" data-z-index="2"><tspan>Erlenmatt</tspan></text></g></g></g><g class="highcharts-label highcharts-legend-title" data-z-index="1" transform="translate(-100,25)"><text x="3" data-z-index="1" style="font-size:10px;font-weight:normal;" y="13"><tspan x="3">Fl채che:</tspan><tspan x="3" dy="13">Anteil (rechte Skala):</tspan></text></g></g><g class="highcharts-axis-labels highcharts-xaxis-labels" data-z-index="7"><text x="66.642857142855" style="color:#000000;cursor:default;font-size:10px;white-space:nowrap;fill:#000000;" text-anchor="middle" transform="translate(0,0)" y="208" opacity="1">2008</text><text x="108.78571428571" style="color:#000000;cursor:default;font-size:10px;white-space:nowrap;fill:#000000;" text-anchor="middle" transform="translate(0,0)" y="208" opacity="1">2010</text><text x="150.92857142857" style="color:#000000;cursor:default;font-size:10px;white-space:nowrap;fill:#000000;" text-anchor="middle" transform="translate(0,0)" y="208" opacity="1">2012</text><text x="193.07142857143" style="color:#000000;cursor:default;font-size:10px;white-space:nowrap;fill:#000000;" text-anchor="middle" transform="translate(0,0)" y="208" opacity="1">2014</text><text x="235.21428571429" style="color:#000000;cursor:default;font-size:10px;white-space:nowrap;fill:#000000;" text-anchor="middle" transform="translate(0,0)" y="208" opacity="1">2016</text><text x="277.35714285714" style="color:#000000;cursor:default;font-size:10px;white-space:nowrap;fill:#000000;" text-anchor="middle" transform="translate(0,0)" y="208" opacity="1">2018</text></g><g class="highcharts-axis-labels highcharts-yaxis-labels" data-z-index="7"><text x="49" style="color:#000000;cursor:default;font-size:10px;fill:#000000;" text-anchor="end" transform="translate(0,0)" y="193" opacity="1"><tspan>0 m2</tspan></text><text x="49" style="color:#000000;cursor:default;font-size:10px;fill:#000000;" text-anchor="end" transform="translate(0,0)" y="156" opacity="1"><tspan>8 000 m2</tspan></text><text x="49" style="color:#000000;cursor:default;font-size:10px;fill:#000000;" text-anchor="end" transform="translate(0,0)" y="118" opacity="1"><tspan>16 000 m2</tspan></text><text x="49" style="color:#000000;cursor:default;font-size:10px;fill:#000000;" text-anchor="end" transform="translate(0,0)" y="81" opacity="1"><tspan>24 000 m2</tspan></text><text x="49" style="color:#000000;cursor:default;font-size:10px;fill:#000000;" text-anchor="end" transform="translate(0,0)" y="43" opacity="1"><tspan>32 000 m2</tspan></text></g><g class="highcharts-axis-labels highcharts-yaxis-labels" data-z-index="7"><text x="295" style="color:#000000;cursor:default;font-size:10px;fill:#000000;" text-anchor="start" transform="translate(0,0)" y="193" opacity="1">0%</text><text x="295" style="color:#000000;cursor:default;font-size:10px;fill:#000000;" text-anchor="start" transform="translate(0,0)" y="156" opacity="1">4%</text><text x="295" style="color:#000000;cursor:default;font-size:10px;fill:#000000;" text-anchor="start" transform="translate(0,0)" y="118" opacity="1">8%</text><text x="295" style="color:#000000;cursor:default;font-size:10px;fill:#000000;" text-anchor="start" transform="translate(0,0)" y="81" opacity="1">12%</text><text x="295" style="color:#000000;cursor:default;font-size:10px;fill:#000000;" text-anchor="start" transform="translate(0,0)" y="43" opacity="1">16%</text></g><text x="10" class="highcharts-credits" text-anchor="start" data-z-index="8" style="cursor:default;color:#000000;font-size:10px;fill:#000000;" y="196"><tspan>Quelle: Grundbuch- und Vermessungsamt Basel-Stadt.</tspan><tspan x="10" dy="13">Zuletzt ge채ndert: 2019-12-10</tspan></text></svg>