<?xml version="1.0" standalone="no"?><!DOCTYPE svg PUBLIC "-//W3C//DTD SVG 1.1//EN" "http://www.w3.org/Graphics/SVG/1.1/DTD/svg11.dtd"><svg xmlns:xlink="http://www.w3.org/1999/xlink" version="1.1" class="highcharts-root" style="font-family:Arial;font-size:12px;" xmlns="http://www.w3.org/2000/svg" viewBox="0 0 485 415"><desc>Created with Highstock 6.1.1</desc><defs><clipPath id="highcharts-woppshq-6"><rect x="0" y="0" width="307" height="277" fill="none"></rect></clipPath><clipPath id="highcharts-woppshq-7"><rect x="0" y="0" width="307" height="277" fill="none"></rect></clipPath></defs><rect fill="#fbfbfb" class="highcharts-background" x="0" y="0" width="485" height="463" rx="0" ry="0"></rect><rect fill="none" class="highcharts-plot-background" x="198" y="104" width="277" height="307"></rect><g class="highcharts-pane-group" data-z-index="0"></g><g class="highcharts-grid highcharts-xaxis-grid " data-z-index="1"><path fill="none" data-z-index="1" class="highcharts-grid-line" d="M 198 118.5 L 475 118.5" opacity="1"></path><path fill="none" data-z-index="1" class="highcharts-grid-line" d="M 198 132.5 L 475 132.5" opacity="1"></path><path fill="none" data-z-index="1" class="highcharts-grid-line" d="M 198 146.5 L 475 146.5" opacity="1"></path><path fill="none" data-z-index="1" class="highcharts-grid-line" d="M 198 160.5 L 475 160.5" opacity="1"></path><path fill="none" data-z-index="1" class="highcharts-grid-line" d="M 198 174.5 L 475 174.5" opacity="1"></path><path fill="none" data-z-index="1" class="highcharts-grid-line" d="M 198 188.5 L 475 188.5" opacity="1"></path><path fill="none" data-z-index="1" class="highcharts-grid-line" d="M 198 202.5 L 475 202.5" opacity="1"></path><path fill="none" data-z-index="1" class="highcharts-grid-line" d="M 198 216.5 L 475 216.5" opacity="1"></path><path fill="none" data-z-index="1" class="highcharts-grid-line" d="M 198 230.5 L 475 230.5" opacity="1"></path><path fill="none" data-z-index="1" class="highcharts-grid-line" d="M 198 244.5 L 475 244.5" opacity="1"></path><path fill="none" data-z-index="1" class="highcharts-grid-line" d="M 198 258.5 L 475 258.5" opacity="1"></path><path fill="none" data-z-index="1" class="highcharts-grid-line" d="M 198 271.5 L 475 271.5" opacity="1"></path><path fill="none" data-z-index="1" class="highcharts-grid-line" d="M 198 285.5 L 475 285.5" opacity="1"></path><path fill="none" data-z-index="1" class="highcharts-grid-line" d="M 198 299.5 L 475 299.5" opacity="1"></path><path fill="none" data-z-index="1" class="highcharts-grid-line" d="M 198 313.5 L 475 313.5" opacity="1"></path><path fill="none" data-z-index="1" class="highcharts-grid-line" d="M 198 327.5 L 475 327.5" opacity="1"></path><path fill="none" data-z-index="1" class="highcharts-grid-line" d="M 198 341.5 L 475 341.5" opacity="1"></path><path fill="none" data-z-index="1" class="highcharts-grid-line" d="M 198 355.5 L 475 355.5" opacity="1"></path><path fill="none" data-z-index="1" class="highcharts-grid-line" d="M 198 369.5 L 475 369.5" opacity="1"></path><path fill="none" data-z-index="1" class="highcharts-grid-line" d="M 198 383.5 L 475 383.5" opacity="1"></path><path fill="none" data-z-index="1" class="highcharts-grid-line" d="M 198 397.5 L 475 397.5" opacity="1"></path><path fill="none" data-z-index="1" class="highcharts-grid-line" d="M 198 411.5 L 475 411.5" opacity="1"></path><path fill="none" data-z-index="1" class="highcharts-grid-line" d="M 198 104.5 L 475 104.5" opacity="1"></path></g><g class="highcharts-grid highcharts-yaxis-grid " data-z-index="1"><path fill="none" stroke="#B9CFD7" stroke-width="0.5" data-z-index="1" class="highcharts-grid-line" d="M 197.75 104 L 197.75 411" opacity="1"></path><path fill="none" stroke="#B9CFD7" stroke-width="0.5" data-z-index="1" class="highcharts-grid-line" d="M 266.75 104 L 266.75 411" opacity="1"></path><path fill="none" stroke="#B9CFD7" stroke-width="0.5" data-z-index="1" class="highcharts-grid-line" d="M 336.75 104 L 336.75 411" opacity="1"></path><path fill="none" stroke="#B9CFD7" stroke-width="0.5" data-z-index="1" class="highcharts-grid-line" d="M 405.75 104 L 405.75 411" opacity="1"></path><path fill="none" stroke="#B9CFD7" stroke-width="0.5" data-z-index="1" class="highcharts-grid-line" d="M 475.25 104 L 475.25 411" opacity="1"></path></g><rect fill="none" class="highcharts-plot-border" data-z-index="1" x="198" y="104" width="277" height="307"></rect><g class="highcharts-axis highcharts-xaxis " data-z-index="2"><path fill="none" class="highcharts-axis-line" stroke="#B9CFD7" stroke-width="0.5" data-z-index="7" d="M 197.75 104 L 197.75 411"></path></g><g class="highcharts-axis highcharts-yaxis " data-z-index="2"><path fill="none" class="highcharts-axis-line" data-z-index="7" d="M 198 411 L 475 411"></path></g><g class="highcharts-series-group" data-z-index="3"><g data-z-index="0.1" class="highcharts-series highcharts-series-0 highcharts-column-series " transform="translate(475,411) rotate(90) scale(-1,1) scale(1 1)" clip-path="url(#highcharts-woppshq-7)"><rect x="296" y="15" width="9" height="263" fill="#689199" class="highcharts-point"></rect><rect x="282" y="19" width="9" height="259" fill="#689199" class="highcharts-point"></rect><rect x="268" y="13" width="9" height="265" fill="#689199" class="highcharts-point"></rect><rect x="254" y="11" width="9" height="267" fill="#689199" class="highcharts-point"></rect><rect x="240" y="33" width="9" height="245" fill="#689199" class="highcharts-point"></rect><rect x="212" y="12" width="9" height="266" fill="#689199" class="highcharts-point"></rect><rect x="198" y="15" width="9" height="263" fill="#689199" class="highcharts-point"></rect><rect x="184" y="11" width="9" height="267" fill="#689199" class="highcharts-point"></rect><rect x="156" y="28" width="9" height="250" fill="#689199" class="highcharts-point"></rect><rect x="142" y="32" width="9" height="246" fill="#689199" class="highcharts-point"></rect><rect x="128" y="26" width="9" height="252" fill="#689199" class="highcharts-point"></rect><rect x="114" y="33" width="9" height="245" fill="#689199" class="highcharts-point"></rect><rect x="86" y="21" width="9" height="257" fill="#689199" class="highcharts-point"></rect><rect x="72" y="27" width="9" height="251" fill="#689199" class="highcharts-point"></rect><rect x="58" y="19" width="9" height="259" fill="#689199" class="highcharts-point"></rect><rect x="30" y="13" width="9" height="265" fill="#689199" class="highcharts-point"></rect><rect x="16" y="15" width="9" height="263" fill="#689199" class="highcharts-point"></rect><rect x="3" y="12" width="9" height="266" fill="#689199" class="highcharts-point"></rect></g><g data-z-index="0.1" class="highcharts-markers highcharts-series-0 highcharts-column-series " transform="translate(475,411) rotate(90) scale(-1,1) scale(1 1)" clip-path="none"></g><g data-z-index="0.1" class="highcharts-series highcharts-series-1 highcharts-column-series " transform="translate(475,411) rotate(90) scale(-1,1) scale(1 1)" clip-path="url(#highcharts-woppshq-7)"><rect x="296" y="0" width="9" height="15" fill="#661200" class="highcharts-point"></rect><rect x="282" y="0" width="9" height="19" fill="#661200" class="highcharts-point"></rect><rect x="268" y="0" width="9" height="13" fill="#661200" class="highcharts-point"></rect><rect x="254" y="0" width="9" height="11" fill="#661200" class="highcharts-point"></rect><rect x="240" y="0" width="9" height="33" fill="#661200" class="highcharts-point"></rect><rect x="212" y="0" width="9" height="12" fill="#661200" class="highcharts-point"></rect><rect x="198" y="0" width="9" height="15" fill="#661200" class="highcharts-point"></rect><rect x="184" y="0" width="9" height="11" fill="#661200" class="highcharts-point"></rect><rect x="156" y="0" width="9" height="28" fill="#661200" class="highcharts-point"></rect><rect x="142" y="0" width="9" height="32" fill="#661200" class="highcharts-point"></rect><rect x="128" y="0" width="9" height="26" fill="#661200" class="highcharts-point"></rect><rect x="114" y="0" width="9" height="33" fill="#661200" class="highcharts-point"></rect><rect x="86" y="0" width="9" height="21" fill="#661200" class="highcharts-point"></rect><rect x="72" y="0" width="9" height="27" fill="#661200" class="highcharts-point"></rect><rect x="58" y="0" width="9" height="19" fill="#661200" class="highcharts-point"></rect><rect x="30" y="0" width="9" height="13" fill="#661200" class="highcharts-point"></rect><rect x="16" y="0" width="9" height="15" fill="#661200" class="highcharts-point"></rect><rect x="3" y="0" width="9" height="12" fill="#661200" class="highcharts-point"></rect></g><g data-z-index="0.1" class="highcharts-markers highcharts-series-1 highcharts-column-series " transform="translate(475,411) rotate(90) scale(-1,1) scale(1 1)" clip-path="none"></g></g><text x="10" text-anchor="start" class="highcharts-title" data-z-index="4" style="color:#000000;font-size:14px;font-weight:bold;fill:#000000;" y="21"><tspan>Erwerbspersonen</tspan></text><text x="10" text-anchor="start" class="highcharts-subtitle" data-z-index="4" style="color:#000000;font-size:12px;fill:#000000;" y="40"></text><g class="highcharts-legend" data-z-index="7" transform="translate(190,41)"><rect fill="none" class="highcharts-legend-box" rx="0" ry="0" x="0" y="0" width="246" height="51" visibility="visible"></rect><g data-z-index="1"><g><g class="highcharts-legend-item highcharts-column-series highcharts-color-undefined highcharts-series-0" data-z-index="1" transform="translate(8,3)"><text x="21" style="color:#333333;font-size:12px;font-weight:normal;cursor:pointer;fill:#333333;" text-anchor="start" data-z-index="2" y="15"><tspan>Erwerbstätigen</tspan></text><rect x="2" y="4" width="12" height="12" fill="#689199" class="highcharts-point" data-z-index="3"></rect></g><g class="highcharts-legend-item highcharts-column-series highcharts-color-undefined highcharts-series-1" data-z-index="1" transform="translate(8,23)"><text x="21" y="15" style="color:#333333;font-size:12px;font-weight:normal;cursor:pointer;fill:#333333;" text-anchor="start" data-z-index="2"><tspan>Erwerbslosen</tspan></text><rect x="2" y="4" width="12" height="12" fill="#661200" class="highcharts-point" data-z-index="3"></rect></g></g></g></g><g class="highcharts-axis-labels highcharts-xaxis-labels " data-z-index="7"><text x="183" style="color:#000000;cursor:default;font-size:11px;white-space:nowrap;fill:#000000;" text-anchor="end" transform="translate(0,0)" y="115" opacity="1"><tspan>Basel: Agglomeration</tspan></text><text x="183" style="color:#000000;cursor:default;font-size:11px;white-space:nowrap;fill:#000000;" text-anchor="end" transform="translate(0,0)" y="129" opacity="1"><tspan>Basel: Kernstadt</tspan></text><text x="183" style="color:#000000;cursor:default;font-size:11px;white-space:nowrap;fill:#000000;" text-anchor="end" transform="translate(0,0)" y="143" opacity="1"><tspan>Basel: CH Agglomerationsgürtel</tspan></text><text x="183" style="color:#000000;cursor:default;font-size:11px;white-space:nowrap;fill:#000000;" text-anchor="end" transform="translate(0,0)" y="157" opacity="1"><tspan>Basel: DE Agglomerationsgürtel</tspan></text><text x="183" style="color:#000000;cursor:default;font-size:11px;white-space:nowrap;fill:#000000;" text-anchor="end" transform="translate(0,0)" y="171" opacity="1"><tspan>Basel: FR Agglomerationsgürtel</tspan></text><text x="183" style="color:#000000;cursor:default;font-size:11px;white-space:nowrap;fill:#000000;" text-anchor="end" transform="translate(0,0)" y="192" opacity="1"></text><text x="183" style="color:#000000;cursor:default;font-size:11px;white-space:nowrap;fill:#000000;" text-anchor="end" transform="translate(0,0)" y="199" opacity="1"><tspan>Bern: Agglomeration</tspan></text><text x="183" style="color:#000000;cursor:default;font-size:11px;white-space:nowrap;fill:#000000;" text-anchor="end" transform="translate(0,0)" y="213" opacity="1"><tspan>Bern: Kernstadt</tspan></text><text x="183" style="color:#000000;cursor:default;font-size:11px;white-space:nowrap;fill:#000000;" text-anchor="end" transform="translate(0,0)" y="227" opacity="1"><tspan>Bern: CH Agglomerationsgürtel</tspan></text><text x="183" style="color:#000000;cursor:default;font-size:11px;white-space:nowrap;fill:#000000;" text-anchor="end" transform="translate(0,0)" y="248" opacity="1"></text><text x="183" style="color:#000000;cursor:default;font-size:11px;white-space:nowrap;fill:#000000;" text-anchor="end" transform="translate(0,0)" y="255" opacity="1"><tspan>Genève: Agglomeration</tspan></text><text x="183" style="color:#000000;cursor:default;font-size:11px;white-space:nowrap;fill:#000000;" text-anchor="end" transform="translate(0,0)" y="268" opacity="1"><tspan>Genève: Kernstadt</tspan></text><text x="183" style="color:#000000;cursor:default;font-size:11px;white-space:nowrap;fill:#000000;" text-anchor="end" transform="translate(0,0)" y="282" opacity="1"><tspan>Genève: CH Agglomerationsgürtel</tspan></text><text x="183" style="color:#000000;cursor:default;font-size:11px;white-space:nowrap;fill:#000000;" text-anchor="end" transform="translate(0,0)" y="296" opacity="1"><tspan>Genève: FR Agglomerationsgürtel</tspan></text><text x="183" style="color:#000000;cursor:default;font-size:11px;white-space:nowrap;fill:#000000;" text-anchor="end" transform="translate(0,0)" y="317" opacity="1"></text><text x="183" style="color:#000000;cursor:default;font-size:11px;white-space:nowrap;fill:#000000;" text-anchor="end" transform="translate(0,0)" y="324" opacity="1"><tspan>Lausanne: Agglomeration</tspan></text><text x="183" style="color:#000000;cursor:default;font-size:11px;white-space:nowrap;fill:#000000;" text-anchor="end" transform="translate(0,0)" y="338" opacity="1"><tspan>Lausanne: Kernstadt</tspan></text><text x="183" style="color:#000000;cursor:default;font-size:11px;white-space:nowrap;fill:#000000;" text-anchor="end" transform="translate(0,0)" y="352" opacity="1"><tspan>Lausanne: CH Agglomerationsgürtel</tspan></text><text x="183" style="color:#000000;cursor:default;font-size:11px;white-space:nowrap;fill:#000000;" text-anchor="end" transform="translate(0,0)" y="373" opacity="1"></text><text x="183" style="color:#000000;cursor:default;font-size:11px;white-space:nowrap;fill:#000000;" text-anchor="end" transform="translate(0,0)" y="380" opacity="1"><tspan>Zürich: Agglomeration</tspan></text><text x="183" style="color:#000000;cursor:default;font-size:11px;white-space:nowrap;fill:#000000;" text-anchor="end" transform="translate(0,0)" y="394" opacity="1"><tspan>Zürich: Kernstadt</tspan></text><text x="183" style="color:#000000;cursor:default;font-size:11px;white-space:nowrap;fill:#000000;" text-anchor="end" transform="translate(0,0)" y="408" opacity="1"><tspan>Zürich: CH Agglomerationsgürtel</tspan></text></g><g class="highcharts-axis-labels highcharts-yaxis-labels " data-z-index="7"><text x="198" style="color:#000000;cursor:default;font-size:11px;white-space:nowrap;fill:#000000;" text-anchor="middle" transform="translate(0,0)" y="430" opacity="1">0%</text><text x="461" style="color:#000000;cursor:default;font-size:11px;white-space:nowrap;fill:#000000;" text-anchor="middle" transform="translate(0,0)" y="430" opacity="1">100%</text><text x="267.25" style="color:#000000;cursor:default;font-size:11px;white-space:nowrap;fill:#000000;" text-anchor="middle" transform="translate(0,0)" y="430" opacity="1">25%</text><text x="336.5" style="color:#000000;cursor:default;font-size:11px;white-space:nowrap;fill:#000000;" text-anchor="middle" transform="translate(0,0)" y="430" opacity="1">50%</text><text x="405.75" style="color:#000000;cursor:default;font-size:11px;white-space:nowrap;fill:#000000;" text-anchor="middle" transform="translate(0,0)" y="430" opacity="1">75%</text></g><text x="10" class="highcharts-credits" text-anchor="start" data-z-index="8" style="cursor:default;color:#000000;font-size:10px;fill:#000000;" y="448"><tspan>Quelle: .</tspan><tspan x="10" dy="13">Zuletzt geändert: 2019-10-24</tspan></text></svg>