<?xml version="1.0" standalone="no"?><!DOCTYPE svg PUBLIC "-//W3C//DTD SVG 1.1//EN" "http://www.w3.org/Graphics/SVG/1.1/DTD/svg11.dtd"><svg xmlns:xlink="http://www.w3.org/1999/xlink" version="1.1" class="highcharts-root" style="font-family:Arial;font-size:12px;" xmlns="http://www.w3.org/2000/svg" viewBox="0 0 485 415"><desc>Created with Highstock 6.1.1</desc><defs><clipPath id="highcharts-4hq1p8y-6"><rect x="0" y="0" width="279" height="103" fill="none"></rect></clipPath><clipPath id="highcharts-4hq1p8y-7"><rect x="0" y="0" width="279" height="103" fill="none"></rect></clipPath></defs><rect fill="#fbfbfb" class="highcharts-background" x="0" y="0" width="320" height="221" rx="0" ry="0"></rect><rect fill="none" class="highcharts-plot-background" x="39" y="85" width="279" height="103"></rect><g class="highcharts-pane-group" data-z-index="0"></g><g class="highcharts-grid highcharts-xaxis-grid " data-z-index="1"><path fill="none" data-z-index="1" class="highcharts-grid-line" d="M 61.5 85 L 61.5 188" opacity="1"></path><path fill="none" data-z-index="1" class="highcharts-grid-line" d="M 85.5 85 L 85.5 188" opacity="1"></path><path fill="none" data-z-index="1" class="highcharts-grid-line" d="M 108.5 85 L 108.5 188" opacity="1"></path><path fill="none" data-z-index="1" class="highcharts-grid-line" d="M 131.5 85 L 131.5 188" opacity="1"></path><path fill="none" data-z-index="1" class="highcharts-grid-line" d="M 154.5 85 L 154.5 188" opacity="1"></path><path fill="none" data-z-index="1" class="highcharts-grid-line" d="M 178.5 85 L 178.5 188" opacity="1"></path><path fill="none" data-z-index="1" class="highcharts-grid-line" d="M 201.5 85 L 201.5 188" opacity="1"></path><path fill="none" data-z-index="1" class="highcharts-grid-line" d="M 224.5 85 L 224.5 188" opacity="1"></path><path fill="none" data-z-index="1" class="highcharts-grid-line" d="M 247.5 85 L 247.5 188" opacity="1"></path><path fill="none" data-z-index="1" class="highcharts-grid-line" d="M 271.5 85 L 271.5 188" opacity="1"></path><path fill="none" data-z-index="1" class="highcharts-grid-line" d="M 294.5 85 L 294.5 188" opacity="1"></path><path fill="none" data-z-index="1" class="highcharts-grid-line" d="M 317.5 85 L 317.5 188" opacity="1"></path><path fill="none" data-z-index="1" class="highcharts-grid-line" d="M 38.5 85 L 38.5 188" opacity="1"></path></g><g class="highcharts-grid highcharts-yaxis-grid " data-z-index="1"><path fill="none" stroke="#B9CFD7" stroke-width="0.5" data-z-index="1" class="highcharts-grid-line" d="M 39 188.25 L 318 188.25" opacity="1"></path><path fill="none" stroke="#B9CFD7" stroke-width="0.5" data-z-index="1" class="highcharts-grid-line" d="M 39 167.25 L 318 167.25" opacity="1"></path><path fill="none" stroke="#B9CFD7" stroke-width="0.5" data-z-index="1" class="highcharts-grid-line" d="M 39 147.25 L 318 147.25" opacity="1"></path><path fill="none" stroke="#B9CFD7" stroke-width="0.5" data-z-index="1" class="highcharts-grid-line" d="M 39 126.25 L 318 126.25" opacity="1"></path><path fill="none" stroke="#B9CFD7" stroke-width="0.5" data-z-index="1" class="highcharts-grid-line" d="M 39 106.25 L 318 106.25" opacity="1"></path><path fill="none" stroke="#B9CFD7" stroke-width="0.5" data-z-index="1" class="highcharts-grid-line" d="M 39 84.75 L 318 84.75" opacity="1"></path></g><rect fill="none" class="highcharts-plot-border" data-z-index="1" x="39" y="85" width="279" height="103"></rect><g class="highcharts-axis highcharts-xaxis " data-z-index="2"><path fill="none" class="highcharts-axis-line" stroke="#B9CFD7" stroke-width="0.5" data-z-index="7" d="M 39 188.25 L 318 188.25"></path></g><g class="highcharts-axis highcharts-yaxis " data-z-index="2"><path fill="none" class="highcharts-axis-line" data-z-index="7" d="M 39 85 L 39 188"></path></g><g class="highcharts-series-group" data-z-index="3"><g data-z-index="0.1" class="highcharts-series highcharts-series-0 highcharts-column-series " transform="translate(39,85) scale(1 1)" clip-path="url(#highcharts-4hq1p8y-7)"><rect x="5" y="94" width="7" height="10" fill="rgb(220, 68, 14)" class="highcharts-point"></rect><rect x="28" y="94" width="7" height="10" fill="rgb(220, 68, 14)" class="highcharts-point"></rect><rect x="51" y="93" width="7" height="11" fill="rgb(220, 68, 14)" class="highcharts-point"></rect><rect x="74" y="93" width="7" height="11" fill="rgb(220, 68, 14)" class="highcharts-point"></rect><rect x="98" y="91" width="7" height="13" fill="rgb(220, 68, 14)" class="highcharts-point"></rect><rect x="121" y="93" width="7" height="11" fill="rgb(220, 68, 14)" class="highcharts-point"></rect><rect x="144" y="89" width="7" height="15" fill="rgb(220, 68, 14)" class="highcharts-point"></rect><rect x="167" y="92" width="7" height="12" fill="rgb(220, 68, 14)" class="highcharts-point"></rect><rect x="191" y="91" width="7" height="13" fill="rgb(220, 68, 14)" class="highcharts-point"></rect><rect x="214" y="89" width="7" height="15" fill="rgb(220, 68, 14)" class="highcharts-point"></rect><rect x="237" y="88" width="7" height="16" fill="rgb(220, 68, 14)" class="highcharts-point"></rect><rect x="260" y="90" width="7" height="14" fill="rgb(220, 68, 14)" class="highcharts-point"></rect></g><g data-z-index="0.1" class="highcharts-markers highcharts-series-0 highcharts-column-series " transform="translate(39,85) scale(1 1)" clip-path="none"></g><g data-z-index="0.1" class="highcharts-series highcharts-series-1 highcharts-column-series " transform="translate(39,85) scale(1 1)" clip-path="url(#highcharts-4hq1p8y-7)"><rect x="5" y="78" width="7" height="16" fill="rgb(168, 196, 203)" class="highcharts-point"></rect><rect x="28" y="76" width="7" height="18" fill="rgb(168, 196, 203)" class="highcharts-point"></rect><rect x="51" y="73" width="7" height="20" fill="rgb(168, 196, 203)" class="highcharts-point"></rect><rect x="74" y="72" width="7" height="21" fill="rgb(168, 196, 203)" class="highcharts-point"></rect><rect x="98" y="67" width="7" height="24" fill="rgb(168, 196, 203)" class="highcharts-point"></rect><rect x="121" y="66" width="7" height="27" fill="rgb(168, 196, 203)" class="highcharts-point"></rect><rect x="144" y="63" width="7" height="26" fill="rgb(168, 196, 203)" class="highcharts-point"></rect><rect x="167" y="66" width="7" height="26" fill="rgb(168, 196, 203)" class="highcharts-point"></rect><rect x="191" y="66" width="7" height="25" fill="rgb(168, 196, 203)" class="highcharts-point"></rect><rect x="214" y="66" width="7" height="23" fill="rgb(168, 196, 203)" class="highcharts-point"></rect><rect x="237" y="66" width="7" height="22" fill="rgb(168, 196, 203)" class="highcharts-point"></rect><rect x="260" y="69" width="7" height="21" fill="rgb(168, 196, 203)" class="highcharts-point"></rect></g><g data-z-index="0.1" class="highcharts-markers highcharts-series-1 highcharts-column-series " transform="translate(39,85) scale(1 1)" clip-path="none"></g><g data-z-index="0.1" class="highcharts-series highcharts-series-2 highcharts-column-series " transform="translate(39,85) scale(1 1)" clip-path="url(#highcharts-4hq1p8y-7)"><rect x="12" y="91" width="7" height="13" fill="rgb(176, 0, 0)" class="highcharts-point"></rect><rect x="35" y="91" width="7" height="13" fill="rgb(176, 0, 0)" class="highcharts-point"></rect><rect x="58" y="91" width="7" height="13" fill="rgb(176, 0, 0)" class="highcharts-point"></rect><rect x="81" y="90" width="7" height="14" fill="rgb(176, 0, 0)" class="highcharts-point"></rect><rect x="105" y="88" width="7" height="16" fill="rgb(176, 0, 0)" class="highcharts-point"></rect><rect x="128" y="89" width="7" height="15" fill="rgb(176, 0, 0)" class="highcharts-point"></rect><rect x="151" y="86" width="7" height="18" fill="rgb(176, 0, 0)" class="highcharts-point"></rect><rect x="174" y="89" width="7" height="15" fill="rgb(176, 0, 0)" class="highcharts-point"></rect><rect x="198" y="89" width="7" height="15" fill="rgb(176, 0, 0)" class="highcharts-point"></rect><rect x="221" y="85" width="7" height="19" fill="rgb(176, 0, 0)" class="highcharts-point"></rect><rect x="244" y="87" width="7" height="17" fill="rgb(176, 0, 0)" class="highcharts-point"></rect><rect x="267" y="87" width="7" height="17" fill="rgb(176, 0, 0)" class="highcharts-point"></rect></g><g data-z-index="0.1" class="highcharts-markers highcharts-series-2 highcharts-column-series " transform="translate(39,85) scale(1 1)" clip-path="none"></g><g data-z-index="0.1" class="highcharts-series highcharts-series-3 highcharts-column-series " transform="translate(39,85) scale(1 1)" clip-path="url(#highcharts-4hq1p8y-7)"><rect x="12" y="72" width="7" height="19" fill="rgb(105, 146, 155)" class="highcharts-point"></rect><rect x="35" y="71" width="7" height="20" fill="rgb(105, 146, 155)" class="highcharts-point"></rect><rect x="58" y="67" width="7" height="24" fill="rgb(105, 146, 155)" class="highcharts-point"></rect><rect x="81" y="65" width="7" height="25" fill="rgb(105, 146, 155)" class="highcharts-point"></rect><rect x="105" y="60" width="7" height="28" fill="rgb(105, 146, 155)" class="highcharts-point"></rect><rect x="128" y="57" width="7" height="32" fill="rgb(105, 146, 155)" class="highcharts-point"></rect><rect x="151" y="53" width="7" height="33" fill="rgb(105, 146, 155)" class="highcharts-point"></rect><rect x="174" y="56" width="7" height="33" fill="rgb(105, 146, 155)" class="highcharts-point"></rect><rect x="198" y="59" width="7" height="30" fill="rgb(105, 146, 155)" class="highcharts-point"></rect><rect x="221" y="57" width="7" height="28" fill="rgb(105, 146, 155)" class="highcharts-point"></rect><rect x="244" y="61" width="7" height="26" fill="rgb(105, 146, 155)" class="highcharts-point"></rect><rect x="267" y="60" width="7" height="27" fill="rgb(105, 146, 155)" class="highcharts-point"></rect></g><g data-z-index="0.1" class="highcharts-markers highcharts-series-3 highcharts-column-series " transform="translate(39,85) scale(1 1)" clip-path="none"></g></g><text x="2" text-anchor="start" class="highcharts-title" data-z-index="4" style="color:#000000;font-size:10px;font-weight:bold;fill:#000000;" y="9"><tspan>Ankünfte pro Monat nach Herkunft der Gäste</tspan></text><text x="2" text-anchor="start" class="highcharts-subtitle" data-z-index="4" style="color:#000000;font-size:10px;font-weight:normal;font-family:Arial;fill:#000000;" y="26"><tspan>Basel-Stadt</tspan></text><g class="highcharts-legend" data-z-index="7" transform="translate(36,42)"><rect fill="none" class="highcharts-legend-box" rx="0" ry="0" x="0" y="0" width="240" height="31" visibility="visible"></rect><g data-z-index="1"><g><g class="highcharts-legend-item highcharts-column-series highcharts-color-undefined highcharts-series-0" data-z-index="1" transform="translate(0,-5)"><text x="21" style="color:#333333;font-size:10px;font-weight:normal;cursor:pointer;fill:#333333;" text-anchor="start" data-z-index="2" y="13"><tspan>Inland Ø 2009-2…</tspan><title>Inland Ø 2009-2018</title></text><rect x="3" y="4" width="10" height="10" fill="rgb(220, 68, 14)" class="highcharts-point" data-z-index="3"></rect></g><g class="highcharts-legend-item highcharts-column-series highcharts-color-undefined highcharts-series-1" data-z-index="1" transform="translate(130,-5)"><text x="21" y="13" style="color:#333333;font-size:10px;font-weight:normal;cursor:pointer;fill:#333333;" text-anchor="start" data-z-index="2"><tspan>Ausland Ø 2009-…</tspan><title>Ausland Ø 2009-2018</title></text><rect x="3" y="4" width="10" height="10" fill="rgb(168, 196, 203)" class="highcharts-point" data-z-index="3"></rect></g><g class="highcharts-legend-item highcharts-column-series highcharts-color-undefined highcharts-series-2" data-z-index="1" transform="translate(0,13)"><text x="21" y="13" style="color:#333333;font-size:10px;font-weight:normal;cursor:pointer;fill:#333333;" text-anchor="start" data-z-index="2"><tspan>Inland 2018</tspan></text><rect x="3" y="4" width="10" height="10" fill="rgb(176, 0, 0)" class="highcharts-point" data-z-index="3"></rect></g><g class="highcharts-legend-item highcharts-column-series highcharts-color-undefined highcharts-series-3" data-z-index="1" transform="translate(130,13)"><text x="21" y="13" style="color:#333333;font-size:10px;font-weight:normal;cursor:pointer;fill:#333333;" text-anchor="start" data-z-index="2"><tspan>Ausland 2018</tspan></text><rect x="3" y="4" width="10" height="10" fill="rgb(105, 146, 155)" class="highcharts-point" data-z-index="3"></rect></g></g></g></g><g class="highcharts-axis-labels highcharts-xaxis-labels " data-z-index="7"><text x="50.625" style="color:#000000;cursor:default;font-size:10px;fill:#000000;" text-anchor="middle" transform="translate(0,0)" y="206" opacity="1">Jan</text><text x="73.875" style="color:#000000;cursor:default;font-size:10px;fill:#000000;" text-anchor="middle" transform="translate(0,0)" y="206" opacity="1">Feb</text><text x="97.125" style="color:#000000;cursor:default;font-size:10px;fill:#000000;" text-anchor="middle" transform="translate(0,0)" y="206" opacity="1">Mrz</text><text x="120.375" style="color:#000000;cursor:default;font-size:10px;fill:#000000;" text-anchor="middle" transform="translate(0,0)" y="206" opacity="1">Apr</text><text x="143.625" style="color:#000000;cursor:default;font-size:10px;fill:#000000;" text-anchor="middle" transform="translate(0,0)" y="206" opacity="1">Mai</text><text x="166.875" style="color:#000000;cursor:default;font-size:10px;fill:#000000;" text-anchor="middle" transform="translate(0,0)" y="206" opacity="1">Jun</text><text x="190.125" style="color:#000000;cursor:default;font-size:10px;fill:#000000;" text-anchor="middle" transform="translate(0,0)" y="206" opacity="1">Jul</text><text x="213.375" style="color:#000000;cursor:default;font-size:10px;fill:#000000;" text-anchor="middle" transform="translate(0,0)" y="206" opacity="1">Aug</text><text x="236.625" style="color:#000000;cursor:default;font-size:10px;fill:#000000;" text-anchor="middle" transform="translate(0,0)" y="206" opacity="1">Sep</text><text x="259.875" style="color:#000000;cursor:default;font-size:10px;fill:#000000;" text-anchor="middle" transform="translate(0,0)" y="206" opacity="1">Okt</text><text x="283.125" style="color:#000000;cursor:default;font-size:10px;fill:#000000;" text-anchor="middle" transform="translate(0,0)" y="206" opacity="1">Nov</text><text x="306.375" style="color:#000000;cursor:default;font-size:10px;fill:#000000;" text-anchor="middle" transform="translate(0,0)" y="206" opacity="1">Dez</text></g><g class="highcharts-axis-labels highcharts-yaxis-labels " data-z-index="7"><text x="24" style="color:#000000;cursor:default;font-size:10px;fill:#000000;" text-anchor="end" transform="translate(0,0)" y="191" opacity="1">0</text><text x="24" style="color:#000000;cursor:default;font-size:10px;fill:#000000;" text-anchor="end" transform="translate(0,0)" y="170" opacity="1">30k</text><text x="24" style="color:#000000;cursor:default;font-size:10px;fill:#000000;" text-anchor="end" transform="translate(0,0)" y="150" opacity="1">60k</text><text x="24" style="color:#000000;cursor:default;font-size:10px;fill:#000000;" text-anchor="end" transform="translate(0,0)" y="129" opacity="1">90k</text><text x="24" style="color:#000000;cursor:default;font-size:10px;fill:#000000;" text-anchor="end" transform="translate(0,0)" y="109" opacity="1">120k</text><text x="24" style="color:#000000;cursor:default;font-size:10px;fill:#000000;" text-anchor="end" transform="translate(0,0)" y="88" opacity="1">150k</text></g><text x="10" class="highcharts-credits" text-anchor="start" data-z-index="8" style="cursor:default;color:#000000;font-size:10;fill:#000000;" y="196"><tspan>Quelle: Statistisches Amt Basel-Stadt, Tourismusstatistik.</tspan><tspan x="10" dy="15">Zuletzt geändert: 2019-2-21</tspan></text></svg>