<?xml version="1.0" standalone="no"?><!DOCTYPE svg PUBLIC "-//W3C//DTD SVG 1.1//EN" "http://www.w3.org/Graphics/SVG/1.1/DTD/svg11.dtd"><svg xmlns:xlink="http://www.w3.org/1999/xlink" version="1.1" class="highcharts-root" style="font-family:Arial;font-size:12px;" xmlns="http://www.w3.org/2000/svg" viewBox="0 0 485 415"><desc>Created with Highstock 6.1.1</desc><defs><clipPath id="highcharts-gwr54d3-8"><rect x="0" y="0" width="590" height="97" fill="none"></rect></clipPath><clipPath id="highcharts-gwr54d3-9"><rect x="0" y="0" width="590" height="97" fill="none"></rect></clipPath><clipPath id="highcharts-gwr54d3-10"><rect x="0" y="0" width="590" height="97" fill="none"></rect></clipPath></defs><rect fill="#fbfbfb" class="highcharts-background" x="0" y="0" width="661.41732283" height="220" rx="0" ry="0"></rect><rect fill="none" class="highcharts-plot-background" x="43" y="75" width="590" height="97"></rect><g class="highcharts-pane-group" data-z-index="0"></g><g class="highcharts-grid highcharts-xaxis-grid " data-z-index="1"><path fill="none" data-z-index="1" class="highcharts-grid-line" d="M 96.5 75 L 96.5 172" opacity="1"></path><path fill="none" data-z-index="1" class="highcharts-grid-line" d="M 149.5 75 L 149.5 172" opacity="1"></path><path fill="none" data-z-index="1" class="highcharts-grid-line" d="M 203.5 75 L 203.5 172" opacity="1"></path><path fill="none" data-z-index="1" class="highcharts-grid-line" d="M 257.5 75 L 257.5 172" opacity="1"></path><path fill="none" data-z-index="1" class="highcharts-grid-line" d="M 310.5 75 L 310.5 172" opacity="1"></path><path fill="none" data-z-index="1" class="highcharts-grid-line" d="M 364.5 75 L 364.5 172" opacity="1"></path><path fill="none" data-z-index="1" class="highcharts-grid-line" d="M 417.5 75 L 417.5 172" opacity="1"></path><path fill="none" data-z-index="1" class="highcharts-grid-line" d="M 471.5 75 L 471.5 172" opacity="1"></path><path fill="none" data-z-index="1" class="highcharts-grid-line" d="M 525.5 75 L 525.5 172" opacity="1"></path><path fill="none" data-z-index="1" class="highcharts-grid-line" d="M 578.5 75 L 578.5 172" opacity="1"></path><path fill="none" data-z-index="1" class="highcharts-grid-line" d="M 632.5 75 L 632.5 172" opacity="1"></path><path fill="none" data-z-index="1" class="highcharts-grid-line" d="M 42.5 75 L 42.5 172" opacity="1"></path></g><g class="highcharts-grid highcharts-yaxis-grid " data-z-index="1"><path fill="none" stroke="#B6CFD7" stroke-width="0.35" data-z-index="1" class="highcharts-grid-line" d="M 43 172.175 L 633 172.175" opacity="1"></path><path fill="none" stroke="#B6CFD7" stroke-width="0.35" data-z-index="1" class="highcharts-grid-line" d="M 43 153.175 L 633 153.175" opacity="1"></path><path fill="none" stroke="#B6CFD7" stroke-width="0.35" data-z-index="1" class="highcharts-grid-line" d="M 43 133.175 L 633 133.175" opacity="1"></path><path fill="none" stroke="#B6CFD7" stroke-width="0.35" data-z-index="1" class="highcharts-grid-line" d="M 43 114.175 L 633 114.175" opacity="1"></path><path fill="none" stroke="#B6CFD7" stroke-width="0.35" data-z-index="1" class="highcharts-grid-line" d="M 43 94.175 L 633 94.175" opacity="1"></path><path fill="none" stroke="#B6CFD7" stroke-width="0.35" data-z-index="1" class="highcharts-grid-line" d="M 43 74.825 L 633 74.825" opacity="1"></path></g><g class="highcharts-grid highcharts-yaxis-grid " data-z-index="1"><path fill="none" stroke="#B6CFD7" stroke-width="0.35" data-z-index="1" class="highcharts-grid-line" d="M 43 172.175 L 633 172.175" opacity="1"></path><path fill="none" stroke="#B6CFD7" stroke-width="0.35" data-z-index="1" class="highcharts-grid-line" d="M 43 153.175 L 633 153.175" opacity="1"></path><path fill="none" stroke="#B6CFD7" stroke-width="0.35" data-z-index="1" class="highcharts-grid-line" d="M 43 133.175 L 633 133.175" opacity="1"></path><path fill="none" stroke="#B6CFD7" stroke-width="0.35" data-z-index="1" class="highcharts-grid-line" d="M 43 114.175 L 633 114.175" opacity="1"></path><path fill="none" stroke="#B6CFD7" stroke-width="0.35" data-z-index="1" class="highcharts-grid-line" d="M 43 94.175 L 633 94.175" opacity="1"></path><path fill="none" stroke="#B6CFD7" stroke-width="0.35" data-z-index="1" class="highcharts-grid-line" d="M 43 74.825 L 633 74.825" opacity="1"></path></g><rect fill="none" class="highcharts-plot-border" data-z-index="1" x="43" y="75" width="590" height="97"></rect><g class="highcharts-axis highcharts-xaxis " data-z-index="2"><path fill="none" class="highcharts-axis-line" stroke="#B9CFD7" stroke-width="0.5" data-z-index="7" d="M 43 172.25 L 633 172.25"></path></g><g class="highcharts-axis highcharts-yaxis " data-z-index="2"><path fill="none" class="highcharts-axis-line" data-z-index="7" d="M 43 75 L 43 172"></path></g><g class="highcharts-axis highcharts-yaxis " data-z-index="2"><path fill="none" class="highcharts-axis-line" data-z-index="7" d="M 633 75 L 633 172"></path></g><g class="highcharts-series-group" data-z-index="3"><g data-z-index="0.1" class="highcharts-series highcharts-series-0 highcharts-column-series " transform="translate(43,75) scale(1 1)" clip-path="url(#highcharts-gwr54d3-9)"><rect x="11" y="37" width="16" height="61" fill="rgb(191, 215, 236)" class="highcharts-point"></rect><rect x="64" y="59" width="16" height="39" fill="rgb(191, 215, 236)" class="highcharts-point"></rect><rect x="118" y="80" width="16" height="18" fill="rgb(191, 215, 236)" class="highcharts-point"></rect><rect x="172" y="83" width="16" height="15" fill="rgb(191, 215, 236)" class="highcharts-point"></rect><rect x="225" y="89" width="16" height="9" fill="rgb(191, 215, 236)" class="highcharts-point"></rect><rect x="279" y="90" width="16" height="8" fill="rgb(191, 215, 236)" class="highcharts-point"></rect><rect x="333" y="93" width="16" height="5" fill="rgb(191, 215, 236)" class="highcharts-point"></rect><rect x="386" y="92" width="16" height="6" fill="rgb(191, 215, 236)" class="highcharts-point"></rect><rect x="440" y="97" width="16" height="1" fill="rgb(191, 215, 236)" class="highcharts-point"></rect><rect x="493" y="96" width="17" height="2" fill="rgb(191, 215, 236)" class="highcharts-point"></rect><rect x="547" y="63" width="16" height="35" fill="rgb(191, 215, 236)" class="highcharts-point"></rect></g><g data-z-index="0.1" class="highcharts-markers highcharts-series-0 highcharts-column-series " transform="translate(43,75) scale(1 1)" clip-path="none"></g><g data-z-index="0.1" class="highcharts-series highcharts-series-1 highcharts-column-series " transform="translate(43,75) scale(1 1)" clip-path="url(#highcharts-gwr54d3-9)"><rect x="27" y="9" width="16" height="89" fill="rgb(159, 196, 227)" class="highcharts-point"></rect><rect x="80" y="60" width="17" height="38" fill="rgb(159, 196, 227)" class="highcharts-point"></rect><rect x="134" y="70" width="16" height="28" fill="rgb(159, 196, 227)" class="highcharts-point"></rect><rect x="188" y="80" width="16" height="18" fill="rgb(159, 196, 227)" class="highcharts-point"></rect><rect x="241" y="86" width="16" height="12" fill="rgb(159, 196, 227)" class="highcharts-point"></rect><rect x="295" y="89" width="16" height="9" fill="rgb(159, 196, 227)" class="highcharts-point"></rect><rect x="349" y="91" width="16" height="7" fill="rgb(159, 196, 227)" class="highcharts-point"></rect><rect x="402" y="92" width="16" height="6" fill="rgb(159, 196, 227)" class="highcharts-point"></rect><rect x="456" y="93" width="16" height="5" fill="rgb(159, 196, 227)" class="highcharts-point"></rect><rect x="510" y="94" width="16" height="4" fill="rgb(159, 196, 227)" class="highcharts-point"></rect><rect x="563" y="45" width="16" height="53" fill="rgb(159, 196, 227)" class="highcharts-point"></rect></g><g data-z-index="0.1" class="highcharts-markers highcharts-series-1 highcharts-column-series " transform="translate(43,75) scale(1 1)" clip-path="none"></g><g data-z-index="0.1" class="highcharts-series highcharts-series-2 highcharts-scatter-series " transform="translate(43,75) scale(1 1)" clip-path="url(#highcharts-gwr54d3-10)"></g><g data-z-index="0.1" class="highcharts-markers highcharts-series-2 highcharts-scatter-series " transform="translate(43,75) scale(1 1)" clip-path="none"><path fill="rgb(255, 102, 0)" d="M 17.8 8 L 22.6 12.8 17.8 17.6 13 12.8 Z" class="highcharts-point"></path><path fill="rgb(255, 102, 0)" d="M 71.8 38 L 76.6 42.8 71.8 47.6 67 42.8 Z" class="highcharts-point"></path><path fill="rgb(255, 102, 0)" d="M 125.8 68 L 130.6 72.8 125.8 77.6 121 72.8 Z" class="highcharts-point"></path><path fill="rgb(255, 102, 0)" d="M 178.8 71 L 183.6 75.8 178.8 80.6 174 75.8 Z" class="highcharts-point"></path><path fill="rgb(255, 102, 0)" d="M 232.8 79 L 237.6 83.8 232.8 88.6 228 83.8 Z" class="highcharts-point"></path><path fill="rgb(255, 102, 0)" d="M 285.8 81 L 290.6 85.8 285.8 90.6 281 85.8 Z" class="highcharts-point"></path><path fill="rgb(255, 102, 0)" d="M 339.8 85 L 344.6 89.8 339.8 94.6 335 89.8 Z" class="highcharts-point"></path><path fill="rgb(255, 102, 0)" d="M 393.8 84 L 398.6 88.8 393.8 93.6 389 88.8 Z" class="highcharts-point"></path><path fill="rgb(255, 102, 0)" d="M 446.8 90 L 451.6 94.8 446.8 99.6 442 94.8 Z" class="highcharts-point"></path><path fill="rgb(255, 102, 0)" d="M 500.8 89 L 505.6 93.8 500.8 98.6 496 93.8 Z" class="highcharts-point"></path><path fill="rgb(255, 102, 0)" d="M 554.8 44 L 559.6 48.8 554.8 53.6 550 48.8 Z" class="highcharts-point"></path></g><g data-z-index="0.1" class="highcharts-series highcharts-series-3 highcharts-scatter-series " transform="translate(43,75) scale(1 1)" clip-path="url(#highcharts-gwr54d3-10)"></g><g data-z-index="0.1" class="highcharts-markers highcharts-series-3 highcharts-scatter-series " transform="translate(43,75) scale(1 1)" clip-path="none"><path fill="rgb(201, 62, 13)" d="M 33.8 1 L 38.6 5.8 33.8 10.6 29 5.8 Z" class="highcharts-point"></path><path fill="rgb(201, 62, 13)" d="M 87.8 53 L 92.6 57.8 87.8 62.6 83 57.8 Z" class="highcharts-point"></path><path fill="rgb(201, 62, 13)" d="M 141.8 64 L 146.6 68.8 141.8 73.6 137 68.8 Z" class="highcharts-point"></path><path fill="rgb(201, 62, 13)" d="M 194.8 73 L 199.6 77.8 194.8 82.6 190 77.8 Z" class="highcharts-point"></path><path fill="rgb(201, 62, 13)" d="M 248.8 80 L 253.6 84.8 248.8 89.6 244 84.8 Z" class="highcharts-point"></path><path fill="rgb(201, 62, 13)" d="M 302.8 83 L 307.6 87.8 302.8 92.6 298 87.8 Z" class="highcharts-point"></path><path fill="rgb(201, 62, 13)" d="M 355.8 85 L 360.6 89.8 355.8 94.6 351 89.8 Z" class="highcharts-point"></path><path fill="rgb(201, 62, 13)" d="M 409.8 86 L 414.6 90.8 409.8 95.6 405 90.8 Z" class="highcharts-point"></path><path fill="rgb(201, 62, 13)" d="M 462.8 87 L 467.6 91.8 462.8 96.6 458 91.8 Z" class="highcharts-point"></path><path fill="rgb(201, 62, 13)" d="M 516.8 88 L 521.6 92.8 516.8 97.6 512 92.8 Z" class="highcharts-point"></path><path fill="rgb(201, 62, 13)" d="M 570.8 37 L 575.6 41.8 570.8 46.6 566 41.8 Z" class="highcharts-point"></path></g></g><text x="2" text-anchor="start" class="highcharts-title" data-z-index="4" style="color:#000000;font-size:10px;font-weight:bold;fill:#000000;" y="42"><tspan>Logiernächte und Marktanteile am Übernachtungsvolumen</tspan></text><text x="2" text-anchor="start" class="highcharts-subtitle" data-z-index="4" style="color:#000000;font-size:10px;font-weight:normal;font-family:Arial;fill:#000000;" y="59"><tspan>Basel-Stadt</tspan></text><g class="highcharts-legend" data-z-index="7" transform="translate(40,50)"><rect fill="none" class="highcharts-legend-box" rx="0" ry="0" x="0" y="0" width="411" height="7" visibility="visible"></rect><g data-z-index="1"><g><g class="highcharts-legend-item highcharts-column-series highcharts-color-undefined highcharts-series-0" data-z-index="1" transform="translate(0,-5)"><text x="16" style="color:#333333;font-size:9px;font-weight:normal;cursor:pointer;height:2;fill:#333333;" text-anchor="start" data-z-index="2" y="12"><tspan>Verfügbare Zimmer: 2009</tspan></text><rect x="4" y="5" width="8" height="8" fill="rgb(191, 215, 236)" class="highcharts-point" data-z-index="3"></rect></g><g class="highcharts-legend-item highcharts-column-series highcharts-color-undefined highcharts-series-1" data-z-index="1" transform="translate(128,-5)"><text x="16" y="12" style="color:#333333;font-size:9px;font-weight:normal;cursor:pointer;height:2;fill:#333333;" text-anchor="start" data-z-index="2"><tspan>2018</tspan></text><rect x="4" y="5" width="8" height="8" fill="rgb(159, 196, 227)" class="highcharts-point" data-z-index="3"></rect></g><g class="highcharts-legend-item highcharts-scatter-series highcharts-color-undefined highcharts-series-2" data-z-index="1" transform="translate(169,-5)"><path fill="none" d="M 0 9 L 16 9" class="highcharts-graph"></path><path fill="rgb(255, 102, 0)" d="M 8 5 L 12 9 8 13 4 9 Z" class="highcharts-point"></path><text x="16" y="12" style="color:#333333;font-size:9px;font-weight:normal;cursor:pointer;height:2;fill:#333333;" text-anchor="start" data-z-index="2"><tspan>Nettozimmerauslastung (rechte Skala): 2009</tspan></text></g><g class="highcharts-legend-item highcharts-scatter-series highcharts-color-undefined highcharts-series-3" data-z-index="1" transform="translate(375,-5)"><path fill="none" d="M 0 9 L 16 9" class="highcharts-graph"></path><path fill="rgb(201, 62, 13)" d="M 8 5 L 12 9 8 13 4 9 Z" class="highcharts-point"></path><text x="16" y="12" style="color:#333333;font-size:9px;font-weight:normal;cursor:pointer;height:2;fill:#333333;" text-anchor="start" data-z-index="2"><tspan>2018</tspan></text></g></g></g></g><g class="highcharts-axis-labels highcharts-xaxis-labels " data-z-index="7"><text x="69.81818181818218" style="color:#000000;cursor:default;font-size:9px;fill:#000000;" text-anchor="middle" transform="translate(0,0)" y="190" opacity="1">Schweiz</text><text x="123.4545454545482" style="color:#000000;cursor:default;font-size:9px;fill:#000000;" text-anchor="middle" transform="translate(0,0)" y="190" opacity="1">Deutschland</text><text x="177.09090909090818" style="color:#000000;cursor:default;font-size:9px;fill:#000000;" text-anchor="middle" transform="translate(0,0)" y="190" opacity="1"><tspan>Vereinigte</tspan><tspan x="177.09090909090818" dy="12">Staaten</tspan></text><text x="230.7272727272682" style="color:#000000;cursor:default;font-size:9px;fill:#000000;" text-anchor="middle" transform="translate(0,0)" y="190" opacity="1"><tspan>Vereinigtes</tspan><tspan x="230.7272727272682" dy="12">Königreich</tspan></text><text x="284.3636363636382" style="color:#000000;cursor:default;font-size:9px;fill:#000000;" text-anchor="middle" transform="translate(0,0)" y="190" opacity="1">Frankreich</text><text x="337.9999999999982" style="color:#000000;cursor:default;font-size:9px;fill:#000000;" text-anchor="middle" transform="translate(0,0)" y="190" opacity="1">Italien</text><text x="391.6363636363682" style="color:#000000;cursor:default;font-size:9px;fill:#000000;" text-anchor="middle" transform="translate(0,0)" y="190" opacity="1">Spanien</text><text x="445.27272727272816" style="color:#000000;cursor:default;font-size:9px;fill:#000000;" text-anchor="middle" transform="translate(0,0)" y="190" opacity="1">Niederlande</text><text x="498.9090909090882" style="color:#000000;cursor:default;font-size:9px;fill:#000000;" text-anchor="middle" transform="translate(0,0)" y="190" opacity="1">Indien</text><text x="552.5454545454581" style="color:#000000;cursor:default;font-size:9px;fill:#000000;" text-anchor="middle" transform="translate(0,0)" y="190" opacity="1"><tspan>China,</tspan><tspan x="552.5454545454581" dy="12">Hongkong</tspan></text><text x="606.1818181818181" style="color:#000000;cursor:default;font-size:9px;fill:#000000;" text-anchor="middle" transform="translate(0,0)" y="190" opacity="1"><tspan>Übrige</tspan><tspan x="606.1818181818181" dy="12">Länder</tspan></text></g><g class="highcharts-axis-labels highcharts-yaxis-labels " data-z-index="7"><text x="35" style="color:#000000;cursor:default;font-size:9px;fill:#000000;" text-anchor="end" transform="translate(0,0)" y="175" opacity="1">0</text><text x="35" style="color:#000000;cursor:default;font-size:9px;fill:#000000;" text-anchor="end" transform="translate(0,0)" y="155" opacity="1"><tspan>100 000</tspan></text><text x="35" style="color:#000000;cursor:default;font-size:9px;fill:#000000;" text-anchor="end" transform="translate(0,0)" y="136" opacity="1"><tspan>200 000</tspan></text><text x="35" style="color:#000000;cursor:default;font-size:9px;fill:#000000;" text-anchor="end" transform="translate(0,0)" y="116" opacity="1"><tspan>300 000</tspan></text><text x="35" style="color:#000000;cursor:default;font-size:9px;fill:#000000;" text-anchor="end" transform="translate(0,0)" y="97" opacity="1"><tspan>400 000</tspan></text><text x="35" style="color:#000000;cursor:default;font-size:9px;fill:#000000;" text-anchor="end" transform="translate(0,0)" y="78" opacity="1"><tspan>500 000</tspan></text></g><g class="highcharts-axis-labels highcharts-yaxis-labels " data-z-index="7"><text x="641" style="color:#000000;cursor:default;font-size:9px;fill:#000000;" text-anchor="start" transform="translate(0,0)" y="175" opacity="1">0%</text><text x="641" style="color:#000000;cursor:default;font-size:9px;fill:#000000;" text-anchor="start" transform="translate(0,0)" y="155" opacity="1">7%</text><text x="641" style="color:#000000;cursor:default;font-size:9px;fill:#000000;" text-anchor="start" transform="translate(0,0)" y="136" opacity="1">14%</text><text x="641" style="color:#000000;cursor:default;font-size:9px;fill:#000000;" text-anchor="start" transform="translate(0,0)" y="116" opacity="1">21%</text><text x="641" style="color:#000000;cursor:default;font-size:9px;fill:#000000;" text-anchor="start" transform="translate(0,0)" y="97" opacity="1">28%</text><text x="641" style="color:#000000;cursor:default;font-size:9px;fill:#000000;" text-anchor="start" transform="translate(0,0)" y="78" opacity="1">35%</text></g><text x="10" class="highcharts-credits" text-anchor="start" data-z-index="8" style="cursor:default;color:#000000;font-size:10;fill:#000000;" y="195"><tspan>Quelle: Statistisches Amt Basel-Stadt, Tourismusstatistik.</tspan><tspan x="10" dy="15">Zuletzt geändert: 2019-2-21</tspan></text></svg>