<svg version="1.1" class="highcharts-root" style="font-family: Inter, &quot;Helvetica Neue&quot;, Helvetica, Arial, sans-serif; font-size: 1rem;" xmlns="http://www.w3.org/2000/svg" width="600" height="400" viewBox="0 0 600 400" role="img" aria-label="Wohnbevölkerung"><desc>Created with Highcharts 12.5.0</desc><defs><filter id="highcharts-drop-shadow-0"><feDropShadow dx="1" dy="1" flood-color="#000000" flood-opacity="0.75" stdDeviation="2.5"></feDropShadow></filter><clipPath id="highcharts-3urjuzk-559-"><rect x="0" y="0" width="526" height="215" fill="none"></rect></clipPath></defs><rect fill="#ffffff" class="highcharts-background" filter="none" x="0" y="0" width="600" height="400" rx="0" ry="0"></rect><rect fill="none" class="highcharts-plot-background" x="64" y="100" width="526" height="215" filter="none"></rect><g class="highcharts-pane-group" data-z-index="0"></g><g class="highcharts-grid highcharts-xaxis-grid" data-z-index="1"><path fill="none" stroke="#e6e6e6" stroke-width="0" stroke-dasharray="none" data-z-index="1" class="highcharts-grid-line" d="M 69.5 100 L 69.5 315" opacity="1"></path><path fill="none" stroke="#e6e6e6" stroke-width="0" stroke-dasharray="none" data-z-index="1" class="highcharts-grid-line" d="M 113.5 100 L 113.5 315" opacity="1"></path><path fill="none" stroke="#e6e6e6" stroke-width="0" stroke-dasharray="none" data-z-index="1" class="highcharts-grid-line" d="M 158.5 100 L 158.5 315" opacity="1"></path><path fill="none" stroke="#e6e6e6" stroke-width="0" stroke-dasharray="none" data-z-index="1" class="highcharts-grid-line" d="M 203.5 100 L 203.5 315" opacity="1"></path><path fill="none" stroke="#e6e6e6" stroke-width="0" stroke-dasharray="none" data-z-index="1" class="highcharts-grid-line" d="M 248.5 100 L 248.5 315" opacity="1"></path><path fill="none" stroke="#e6e6e6" stroke-width="0" stroke-dasharray="none" data-z-index="1" class="highcharts-grid-line" d="M 293.5 100 L 293.5 315" opacity="1"></path><path fill="none" stroke="#e6e6e6" stroke-width="0" stroke-dasharray="none" data-z-index="1" class="highcharts-grid-line" d="M 338.5 100 L 338.5 315" opacity="1"></path><path fill="none" stroke="#e6e6e6" stroke-width="0" stroke-dasharray="none" data-z-index="1" class="highcharts-grid-line" d="M 383.5 100 L 383.5 315" opacity="1"></path><path fill="none" stroke="#e6e6e6" stroke-width="0" stroke-dasharray="none" data-z-index="1" class="highcharts-grid-line" d="M 427.5 100 L 427.5 315" opacity="1"></path><path fill="none" stroke="#e6e6e6" stroke-width="0" stroke-dasharray="none" data-z-index="1" class="highcharts-grid-line" d="M 472.5 100 L 472.5 315" opacity="1"></path><path fill="none" stroke="#e6e6e6" stroke-width="0" stroke-dasharray="none" data-z-index="1" class="highcharts-grid-line" d="M 517.5 100 L 517.5 315" opacity="1"></path><path fill="none" stroke="#e6e6e6" stroke-width="0" stroke-dasharray="none" data-z-index="1" class="highcharts-grid-line" d="M 562.5 100 L 562.5 315" opacity="1"></path></g><g class="highcharts-grid highcharts-yaxis-grid" data-z-index="1"><path fill="none" stroke="#B9CFD7" stroke-width="0.5" stroke-dasharray="none" data-z-index="1" class="highcharts-grid-line" d="M 64 315.25 L 590 315.25" opacity="1"></path><path fill="none" stroke="#B9CFD7" stroke-width="0.5" stroke-dasharray="none" data-z-index="1" class="highcharts-grid-line" d="M 64 261.25 L 590 261.25" opacity="1"></path><path fill="none" stroke="#B9CFD7" stroke-width="0.5" stroke-dasharray="none" data-z-index="1" class="highcharts-grid-line" d="M 64 207.25 L 590 207.25" opacity="1"></path><path fill="none" stroke="#B9CFD7" stroke-width="0.5" stroke-dasharray="none" data-z-index="1" class="highcharts-grid-line" d="M 64 154.25 L 590 154.25" opacity="1"></path><path fill="none" stroke="#B9CFD7" stroke-width="0.5" stroke-dasharray="none" data-z-index="1" class="highcharts-grid-line" d="M 64 100.25 L 590 100.25" opacity="1"></path></g><rect fill="none" class="highcharts-plot-border" data-z-index="1" stroke="#cccccc" stroke-width="0" x="64" y="100" width="526" height="215"></rect><g class="highcharts-axis highcharts-xaxis" data-z-index="2"><path fill="none" class="highcharts-axis-line" stroke="#B9CFD7" stroke-width="0.5" data-z-index="7" d="M 64 315.25 L 590 315.25"></path></g><g class="highcharts-axis highcharts-yaxis" data-z-index="2"><path fill="none" class="highcharts-axis-line" stroke="#B9CFD7" stroke-width="0" data-z-index="7" d="M 64 100 L 64 315"></path></g><g class="highcharts-series-group" data-z-index="3" filter="none"><g class="highcharts-series highcharts-series-0 highcharts-line-series" data-z-index="0.1" opacity="1" transform="translate(64,100) scale(1 1)" clip-path="url(#highcharts-3urjuzk-559-)"><path fill="none" d="M 5.1568627450984 62.9305 L 27.57800511509 64.328 L 49.999147485081 64.1775 L 72.420289855073 63.683 L 94.841432225064 64.4355 L 117.26257459506 64.1345 L 139.68371696505 61.877 L 162.10485933504 63.941 L 184.52600170503 61.791 L 206.94714407502 59.555 L 229.36828644501 61.2965 L 251.789428815 59.039 L 274.210571185 58.738 L 296.63171355499 58.179 L 319.05285592498 57.018 L 341.47399829497 58.4585 L 363.89514066496 60.157 L 386.31628303495 59.0175 L 408.73742540494 58.2005 L 431.15856777494 59.4045 L 453.57971014493 62.135 L 476.00085251492 65.532 L 498.42199488491 64.3065 L 520.8431372549 64.629" class="highcharts-graph" data-z-index="1" stroke="#cd9c00" stroke-width="2" stroke-linejoin="round" stroke-linecap="round" filter="none"></path><path fill="none" d="M 5.1568627450984 62.9305 L 27.57800511509 64.328 L 49.999147485081 64.1775 L 72.420289855073 63.683 L 94.841432225064 64.4355 L 117.26257459506 64.1345 L 139.68371696505 61.877 L 162.10485933504 63.941 L 184.52600170503 61.791 L 206.94714407502 59.555 L 229.36828644501 61.2965 L 251.789428815 59.039 L 274.210571185 58.738 L 296.63171355499 58.179 L 319.05285592498 57.018 L 341.47399829497 58.4585 L 363.89514066496 60.157 L 386.31628303495 59.0175 L 408.73742540494 58.2005 L 431.15856777494 59.4045 L 453.57971014493 62.135 L 476.00085251492 65.532 L 498.42199488491 64.3065 L 520.8431372549 64.629" data-z-index="2" class="highcharts-tracker-line" stroke-linecap="round" stroke-linejoin="round" stroke="rgba(192,192,192,0.0001)" stroke-width="22"></path></g><g class="highcharts-markers highcharts-series-0 highcharts-line-series highcharts-tracker" data-z-index="0.1" opacity="1" transform="translate(64,100) scale(1 1)" clip-path="none"></g><g class="highcharts-series highcharts-series-1 highcharts-line-series" data-z-index="0.1" opacity="1" transform="translate(64,100) scale(1 1)" clip-path="url(#highcharts-3urjuzk-559-)"><path fill="none" d="M 5.1568627450984 164.217 L 27.57800511509 164.1955 L 49.999147485081 161.981 L 72.420289855073 161.164 L 94.841432225064 161.68 L 117.26257459506 159.96 L 139.68371696505 160.003 L 162.10485933504 160.347 L 184.52600170503 160.1105 L 206.94714407502 158.2615 L 229.36828644501 158.584 L 251.789428815 156.9715 L 274.210571185 153.1445 L 296.63171355499 153.123 L 319.05285592498 153.166 L 341.47399829497 152.65 L 363.89514066496 152.8005 L 386.31628303495 153.854 L 408.73742540494 153.553 L 431.15856777494 154.843 L 453.57971014493 154.6065 L 476.00085251492 155.8965 L 498.42199488491 154.9505 L 520.8431372549 154.198" class="highcharts-graph" data-z-index="1" stroke="#b375ab" stroke-width="2" stroke-linejoin="round" stroke-linecap="round" filter="none"></path><path fill="none" d="M 5.1568627450984 164.217 L 27.57800511509 164.1955 L 49.999147485081 161.981 L 72.420289855073 161.164 L 94.841432225064 161.68 L 117.26257459506 159.96 L 139.68371696505 160.003 L 162.10485933504 160.347 L 184.52600170503 160.1105 L 206.94714407502 158.2615 L 229.36828644501 158.584 L 251.789428815 156.9715 L 274.210571185 153.1445 L 296.63171355499 153.123 L 319.05285592498 153.166 L 341.47399829497 152.65 L 363.89514066496 152.8005 L 386.31628303495 153.854 L 408.73742540494 153.553 L 431.15856777494 154.843 L 453.57971014493 154.6065 L 476.00085251492 155.8965 L 498.42199488491 154.9505 L 520.8431372549 154.198" data-z-index="2" class="highcharts-tracker-line" stroke-linecap="round" stroke-linejoin="round" stroke="rgba(192,192,192,0.0001)" stroke-width="22"></path></g><g class="highcharts-markers highcharts-series-1 highcharts-line-series highcharts-tracker" data-z-index="0.1" opacity="1" transform="translate(64,100) scale(1 1)" clip-path="none"></g></g><text x="10" text-anchor="start" class="highcharts-caption" data-z-index="4" style="font-size: 0.8em; fill: rgb(102, 102, 102);" text-align="left" y="357" transform-origin="10 15" transform="translate(0,0) scale(1 1)"></text><g class="highcharts-axis-labels highcharts-xaxis-labels" data-z-index="7"><text x="69.156862745098" text-anchor="middle" transform="translate(0,0)" style="cursor: default; font-size: 0.8em; fill: rgb(0, 0, 0);" y="342" opacity="1">2000</text><text x="113.99914748508" text-anchor="middle" transform="translate(0,0)" style="cursor: default; font-size: 0.8em; fill: rgb(0, 0, 0);" y="342" opacity="1">2002</text><text x="158.84143222506" text-anchor="middle" transform="translate(0,0)" style="cursor: default; font-size: 0.8em; fill: rgb(0, 0, 0);" y="342" opacity="1">2004</text><text x="203.68371696505" text-anchor="middle" transform="translate(0,0)" style="cursor: default; font-size: 0.8em; fill: rgb(0, 0, 0);" y="342" opacity="1">2006</text><text x="248.52600170503" text-anchor="middle" transform="translate(0,0)" style="cursor: default; font-size: 0.8em; fill: rgb(0, 0, 0);" y="342" opacity="1">2008</text><text x="293.36828644501" text-anchor="middle" transform="translate(0,0)" style="cursor: default; font-size: 0.8em; fill: rgb(0, 0, 0);" y="342" opacity="1">2010</text><text x="338.210571185" text-anchor="middle" transform="translate(0,0)" style="cursor: default; font-size: 0.8em; fill: rgb(0, 0, 0);" y="342" opacity="1">2012</text><text x="383.05285592498" text-anchor="middle" transform="translate(0,0)" style="cursor: default; font-size: 0.8em; fill: rgb(0, 0, 0);" y="342" opacity="1">2014</text><text x="427.89514066496" text-anchor="middle" transform="translate(0,0)" style="cursor: default; font-size: 0.8em; fill: rgb(0, 0, 0);" y="342" opacity="1">2016</text><text x="472.73742540494" text-anchor="middle" transform="translate(0,0)" style="cursor: default; font-size: 0.8em; fill: rgb(0, 0, 0);" y="342" opacity="1">2018</text><text x="517.57971014493" text-anchor="middle" transform="translate(0,0)" style="cursor: default; font-size: 0.8em; fill: rgb(0, 0, 0);" y="342" opacity="1">2020</text><text x="562.42199488491" text-anchor="middle" transform="translate(0,0)" style="cursor: default; font-size: 0.8em; fill: rgb(0, 0, 0);" y="342" opacity="1">2022</text></g><g class="highcharts-axis-labels highcharts-yaxis-labels" data-z-index="7"><text x="49" text-anchor="end" transform="translate(0,0)" style="cursor: default; font-size: 0.8em; fill: rgb(0, 0, 0);" y="320" opacity="1">0</text><text x="49" text-anchor="end" transform="translate(0,0)" style="cursor: default; font-size: 0.8em; fill: rgb(0, 0, 0);" y="266" opacity="1">2,500</text><text x="49" text-anchor="end" transform="translate(0,0)" style="cursor: default; font-size: 0.8em; fill: rgb(0, 0, 0);" y="212" opacity="1">5,000</text><text x="49" text-anchor="end" transform="translate(0,0)" style="cursor: default; font-size: 0.8em; fill: rgb(0, 0, 0);" y="158" opacity="1">7,500</text><text x="49" text-anchor="end" transform="translate(0,0)" style="cursor: default; font-size: 0.8em; fill: rgb(0, 0, 0);" y="105" opacity="1">10,000</text></g><g class="highcharts-legend highcharts-no-tooltip" data-z-index="7" text-align="left" transform="translate(56,55)"><rect fill="none" class="highcharts-legend-box" rx="0" ry="0" stroke="#999999" stroke-width="0" filter="none" x="0" y="0" width="205" height="33"></rect><g data-z-index="1"><g><g class="highcharts-legend-item highcharts-line-series highcharts-color-undefined highcharts-series-0" data-z-index="1" transform="translate(8,3)"><path fill="none" class="highcharts-graph" stroke-width="2" stroke-linecap="round" d="M 1 13 L 15 13" stroke="#cd9c00"></path><text x="21" text-anchor="start" data-z-index="2" style="cursor: pointer; font-size: 0.8em; text-decoration: none; font-weight: normal; fill: rgb(51, 51, 51);" y="17">Klybeck</text></g><g class="highcharts-legend-item highcharts-line-series highcharts-color-undefined highcharts-series-1" data-z-index="1" transform="translate(94.41871643066406,3)"><path fill="none" class="highcharts-graph" stroke-width="2" stroke-linecap="round" d="M 1 13 L 15 13" stroke="#b375ab"></path><text x="21" y="17" text-anchor="start" data-z-index="2" style="cursor: pointer; font-size: 0.8em; text-decoration: none; font-weight: normal; fill: rgb(51, 51, 51);">Kleinhüningen</text></g></g></g></g></svg>