<?xml version="1.0" standalone="no"?><!DOCTYPE svg PUBLIC "-//W3C//DTD SVG 1.1//EN" "http://www.w3.org/Graphics/SVG/1.1/DTD/svg11.dtd"><svg xmlns:xlink="http://www.w3.org/1999/xlink" version="1.1" class="highcharts-root" style="font-family:Arial;font-size:12px;" xmlns="http://www.w3.org/2000/svg" viewBox="0 0 485 415"><desc>Created with Highcharts 8.1.2</desc><defs><clipPath id="highcharts-lvrz8mo-48-"><rect x="0" y="0" width="266" height="403" fill="none"></rect></clipPath><clipPath id="highcharts-lvrz8mo-69-"><rect x="0" y="0" width="266" height="403" fill="none"></rect></clipPath><clipPath id="highcharts-lvrz8mo-90-"><rect x="67" y="92" width="403" height="266" fill="none"></rect></clipPath></defs><rect fill="#fbfbfb" class="highcharts-background" x="0" y="0" width="485" height="428" rx="0" ry="0"></rect><rect fill="none" class="highcharts-plot-background" x="67" y="92" width="403" height="266"></rect><g class="highcharts-pane-group" data-z-index="0"></g><g class="highcharts-grid highcharts-xaxis-grid" data-z-index="1"><path fill="none" data-z-index="1" class="highcharts-grid-line" d="M 67 345.5 L 470 345.5" opacity="1"></path><path fill="none" data-z-index="1" class="highcharts-grid-line" d="M 67 331.5 L 470 331.5" opacity="1"></path><path fill="none" data-z-index="1" class="highcharts-grid-line" d="M 67 318.5 L 470 318.5" opacity="1"></path><path fill="none" data-z-index="1" class="highcharts-grid-line" d="M 67 305.5 L 470 305.5" opacity="1"></path><path fill="none" data-z-index="1" class="highcharts-grid-line" d="M 67 292.5 L 470 292.5" opacity="1"></path><path fill="none" data-z-index="1" class="highcharts-grid-line" d="M 67 278.5 L 470 278.5" opacity="1"></path><path fill="none" data-z-index="1" class="highcharts-grid-line" d="M 67 265.5 L 470 265.5" opacity="1"></path><path fill="none" data-z-index="1" class="highcharts-grid-line" d="M 67 252.5 L 470 252.5" opacity="1"></path><path fill="none" data-z-index="1" class="highcharts-grid-line" d="M 67 238.5 L 470 238.5" opacity="1"></path><path fill="none" data-z-index="1" class="highcharts-grid-line" d="M 67 225.5 L 470 225.5" opacity="1"></path><path fill="none" data-z-index="1" class="highcharts-grid-line" d="M 67 212.5 L 470 212.5" opacity="1"></path><path fill="none" data-z-index="1" class="highcharts-grid-line" d="M 67 198.5 L 470 198.5" opacity="1"></path><path fill="none" data-z-index="1" class="highcharts-grid-line" d="M 67 185.5 L 470 185.5" opacity="1"></path><path fill="none" data-z-index="1" class="highcharts-grid-line" d="M 67 172.5 L 470 172.5" opacity="1"></path><path fill="none" data-z-index="1" class="highcharts-grid-line" d="M 67 158.5 L 470 158.5" opacity="1"></path><path fill="none" data-z-index="1" class="highcharts-grid-line" d="M 67 145.5 L 470 145.5" opacity="1"></path><path fill="none" data-z-index="1" class="highcharts-grid-line" d="M 67 132.5 L 470 132.5" opacity="1"></path><path fill="none" data-z-index="1" class="highcharts-grid-line" d="M 67 119.5 L 470 119.5" opacity="1"></path><path fill="none" data-z-index="1" class="highcharts-grid-line" d="M 67 105.5 L 470 105.5" opacity="1"></path><path fill="none" data-z-index="1" class="highcharts-grid-line" d="M 67 92.5 L 470 92.5" opacity="1"></path><path fill="none" data-z-index="1" class="highcharts-grid-line" d="M 67 358.5 L 470 358.5" opacity="1"></path></g><g class="highcharts-grid highcharts-yaxis-grid" data-z-index="1"><path fill="none" stroke="#e6e6e6" stroke-width="1" data-z-index="1" class="highcharts-grid-line" d="M 268.5 92 L 268.5 358" opacity="1"></path><path fill="none" stroke="#e6e6e6" stroke-width="1" data-z-index="1" class="highcharts-grid-line" d="M 318.5 92 L 318.5 358" opacity="1"></path><path fill="none" stroke="#e6e6e6" stroke-width="1" data-z-index="1" class="highcharts-grid-line" d="M 368.5 92 L 368.5 358" opacity="1"></path><path fill="none" stroke="#e6e6e6" stroke-width="1" data-z-index="1" class="highcharts-grid-line" d="M 419.5 92 L 419.5 358" opacity="1"></path><path fill="none" stroke="#e6e6e6" stroke-width="1" data-z-index="1" class="highcharts-grid-line" d="M 470.5 92 L 470.5 358" opacity="1"></path><path fill="none" stroke="#e6e6e6" stroke-width="1" data-z-index="1" class="highcharts-grid-line" d="M 66.5 92 L 66.5 358" opacity="1"></path><path fill="none" stroke="#e6e6e6" stroke-width="1" data-z-index="1" class="highcharts-grid-line" d="M 116.5 92 L 116.5 358" opacity="1"></path><path fill="none" stroke="#e6e6e6" stroke-width="1" data-z-index="1" class="highcharts-grid-line" d="M 167.5 92 L 167.5 358" opacity="1"></path><path fill="none" stroke="#e6e6e6" stroke-width="1" data-z-index="1" class="highcharts-grid-line" d="M 217.5 92 L 217.5 358" opacity="1"></path></g><rect fill="none" class="highcharts-plot-border" data-z-index="1" x="67" y="92" width="403" height="266"></rect><g class="highcharts-axis highcharts-xaxis" data-z-index="2"><path fill="none" class="highcharts-axis-line" stroke="#ccd6eb" stroke-width="1" data-z-index="7" d="M 66.5 92 L 66.5 358"></path></g><g class="highcharts-axis highcharts-yaxis" data-z-index="2"><path fill="none" class="highcharts-axis-line" data-z-index="7" d="M 67 358 L 470 358"></path></g><g class="highcharts-series-group" data-z-index="3"><g class="highcharts-series highcharts-series-0 highcharts-bar-series" data-z-index="0.1" opacity="1" transform="translate(470,358) rotate(90) scale(-1,1) scale(1 1)" clip-path="url(#highcharts-lvrz8mo-69-)" width="403" height="266"><rect x="0" y="203" width="13" height="87" fill="#008ac3" opacity="1" class="highcharts-point highcharts-negative"></rect><rect x="13" y="203" width="14" height="95" fill="#008ac3" opacity="1" class="highcharts-point highcharts-negative"></rect><rect x="27" y="203" width="13" height="85" fill="#008ac3" opacity="1" class="highcharts-point highcharts-negative"></rect><rect x="40" y="203" width="13" height="82" fill="#008ac3" opacity="1" class="highcharts-point highcharts-negative"></rect><rect x="53" y="203" width="14" height="111" fill="#008ac3" opacity="1" class="highcharts-point highcharts-negative"></rect><rect x="67" y="203" width="13" height="168" fill="#008ac3" opacity="1" class="highcharts-point highcharts-negative"></rect><rect x="80" y="203" width="13" height="153" fill="#008ac3" opacity="1" class="highcharts-point highcharts-negative"></rect><rect x="93" y="203" width="13" height="168" fill="#008ac3" opacity="1" class="highcharts-point highcharts-negative"></rect><rect x="106" y="203" width="14" height="159" fill="#008ac3" opacity="1" class="highcharts-point highcharts-negative"></rect><rect x="120" y="203" width="13" height="125" fill="#008ac3" opacity="1" class="highcharts-point highcharts-negative"></rect><rect x="133" y="203" width="13" height="141" fill="#008ac3" opacity="1" class="highcharts-point highcharts-negative"></rect><rect x="146" y="203" width="14" height="129" fill="#008ac3" opacity="1" class="highcharts-point highcharts-negative"></rect><rect x="160" y="203" width="13" height="110" fill="#008ac3" opacity="1" class="highcharts-point highcharts-negative"></rect><rect x="173" y="203" width="13" height="81" fill="#008ac3" opacity="1" class="highcharts-point highcharts-negative"></rect><rect x="186" y="203" width="14" height="65" fill="#008ac3" opacity="1" class="highcharts-point highcharts-negative"></rect><rect x="200" y="203" width="13" height="47" fill="#008ac3" opacity="1" class="highcharts-point highcharts-negative"></rect><rect x="213" y="203" width="13" height="26" fill="#008ac3" opacity="1" class="highcharts-point highcharts-negative"></rect><rect x="226" y="203" width="13" height="19" fill="#008ac3" opacity="1" class="highcharts-point highcharts-negative"></rect><rect x="239" y="203" width="14" height="5" fill="#008ac3" opacity="1" class="highcharts-point highcharts-negative"></rect><rect x="253" y="203" width="13" height="0" fill="#008ac3" opacity="1" class="highcharts-point highcharts-negative"></rect></g><g class="highcharts-markers highcharts-series-0 highcharts-bar-series" data-z-index="0.1" opacity="1" transform="translate(470,358) rotate(90) scale(-1,1) scale(1 1)" clip-path="none"></g><g class="highcharts-series highcharts-series-1 highcharts-bar-series" data-z-index="0.1" opacity="1" transform="translate(470,358) rotate(90) scale(-1,1) scale(1 1)" clip-path="url(#highcharts-lvrz8mo-69-)" width="403" height="266"><rect x="0" y="112" width="13" height="91" fill="#b00000" opacity="1" class="highcharts-point"></rect><rect x="13" y="126" width="14" height="77" fill="#b00000" opacity="1" class="highcharts-point"></rect><rect x="27" y="119" width="13" height="84" fill="#b00000" opacity="1" class="highcharts-point"></rect><rect x="40" y="120" width="13" height="83" fill="#b00000" opacity="1" class="highcharts-point"></rect><rect x="53" y="76" width="14" height="127" fill="#b00000" opacity="1" class="highcharts-point"></rect><rect x="67" y="53" width="13" height="150" fill="#b00000" opacity="1" class="highcharts-point"></rect><rect x="80" y="39" width="13" height="164" fill="#b00000" opacity="1" class="highcharts-point"></rect><rect x="93" y="59" width="13" height="144" fill="#b00000" opacity="1" class="highcharts-point"></rect><rect x="106" y="76" width="14" height="127" fill="#b00000" opacity="1" class="highcharts-point"></rect><rect x="120" y="83" width="13" height="120" fill="#b00000" opacity="1" class="highcharts-point"></rect><rect x="133" y="92" width="13" height="111" fill="#b00000" opacity="1" class="highcharts-point"></rect><rect x="146" y="76" width="14" height="127" fill="#b00000" opacity="1" class="highcharts-point"></rect><rect x="160" y="99" width="13" height="104" fill="#b00000" opacity="1" class="highcharts-point"></rect><rect x="173" y="123" width="13" height="80" fill="#b00000" opacity="1" class="highcharts-point"></rect><rect x="186" y="139" width="14" height="64" fill="#b00000" opacity="1" class="highcharts-point"></rect><rect x="200" y="159" width="13" height="44" fill="#b00000" opacity="1" class="highcharts-point"></rect><rect x="213" y="162" width="13" height="41" fill="#b00000" opacity="1" class="highcharts-point"></rect><rect x="226" y="172" width="13" height="31" fill="#b00000" opacity="1" class="highcharts-point"></rect><rect x="239" y="189" width="14" height="14" fill="#b00000" opacity="1" class="highcharts-point"></rect><rect x="253" y="199" width="13" height="4" fill="#b00000" opacity="1" class="highcharts-point"></rect></g><g class="highcharts-markers highcharts-series-1 highcharts-bar-series" data-z-index="0.1" opacity="1" transform="translate(470,358) rotate(90) scale(-1,1) scale(1 1)" clip-path="none"></g></g><text x="10" text-anchor="start" class="highcharts-title" data-z-index="4" style="color:#000000;font-size:14px;font-weight:bold;fill:#000000;" y="21"><tspan>Wohnbevölkerung nach Alter und Geschlecht</tspan></text><text x="10" text-anchor="start" class="highcharts-subtitle" data-z-index="4" style="color:#000000;font-size:12px;font-weight:normal;font-family:Arial;fill:#000000;" y="40"><tspan>Wohnviertel Klybeck, 2019</tspan></text><text x="10" text-anchor="start" class="highcharts-caption" data-z-index="4" style="color:#666666;fill:#666666;" y="400"></text><g class="highcharts-plot-lines-4" data-z-index="4"><path fill="none" class="highcharts-plot-line " stroke="white" stroke-width="1" d="M 268.5 92 L 268.5 358"></path></g><g class="highcharts-legend" data-z-index="7" transform="translate(109,55)"><rect fill="none" class="highcharts-legend-box" rx="0" ry="0" x="0" y="0" width="273" height="25" visibility="visible"></rect><g data-z-index="1"><g><g class="highcharts-legend-item highcharts-bar-series highcharts-color-undefined highcharts-series-0" data-z-index="1" transform="translate(8,3)"><text x="21" style="color:#333333;cursor:pointer;font-size:12px;font-weight:normal;fill:#333333;" text-anchor="start" data-z-index="2" y="15"><tspan>Männer Klybeck</tspan></text><rect x="2" y="4" width="12" height="12" fill="#008ac3" class="highcharts-point" data-z-index="3"></rect></g><g class="highcharts-legend-item highcharts-bar-series highcharts-color-undefined highcharts-series-1" data-z-index="1" transform="translate(148.796875,3)"><text x="21" y="15" style="color:#333333;cursor:pointer;font-size:12px;font-weight:normal;fill:#333333;" text-anchor="start" data-z-index="2"><tspan>Frauen Klybeck</tspan></text><rect x="2" y="4" width="12" height="12" fill="#b00000" class="highcharts-point" data-z-index="3"></rect></g></g></g></g><g class="highcharts-axis-labels highcharts-xaxis-labels" data-z-index="7"><text x="52" style="color:#000000;cursor:default;font-size:11px;fill:#000000;" text-anchor="end" transform="translate(0,0)" y="356" opacity="1">0-4</text><text x="52" style="color:#000000;cursor:default;font-size:11px;fill:#000000;" text-anchor="end" transform="translate(0,0)" y="343" opacity="1">5-9</text><text x="52" style="color:#000000;cursor:default;font-size:11px;fill:#000000;" text-anchor="end" transform="translate(0,0)" y="329" opacity="1">10-14</text><text x="52" style="color:#000000;cursor:default;font-size:11px;fill:#000000;" text-anchor="end" transform="translate(0,0)" y="316" opacity="1">15-19</text><text x="52" style="color:#000000;cursor:default;font-size:11px;fill:#000000;" text-anchor="end" transform="translate(0,0)" y="303" opacity="1">20-24</text><text x="52" style="color:#000000;cursor:default;font-size:11px;fill:#000000;" text-anchor="end" transform="translate(0,0)" y="289" opacity="1">25-29</text><text x="52" style="color:#000000;cursor:default;font-size:11px;fill:#000000;" text-anchor="end" transform="translate(0,0)" y="276" opacity="1">30-34</text><text x="52" style="color:#000000;cursor:default;font-size:11px;fill:#000000;" text-anchor="end" transform="translate(0,0)" y="263" opacity="1">35-39</text><text x="52" style="color:#000000;cursor:default;font-size:11px;fill:#000000;" text-anchor="end" transform="translate(0,0)" y="249" opacity="1">40-44</text><text x="52" style="color:#000000;cursor:default;font-size:11px;fill:#000000;" text-anchor="end" transform="translate(0,0)" y="236" opacity="1">45-49</text><text x="52" style="color:#000000;cursor:default;font-size:11px;fill:#000000;" text-anchor="end" transform="translate(0,0)" y="223" opacity="1">50-54</text><text x="52" style="color:#000000;cursor:default;font-size:11px;fill:#000000;" text-anchor="end" transform="translate(0,0)" y="210" opacity="1">55-59</text><text x="52" style="color:#000000;cursor:default;font-size:11px;fill:#000000;" text-anchor="end" transform="translate(0,0)" y="196" opacity="1">60-64</text><text x="52" style="color:#000000;cursor:default;font-size:11px;fill:#000000;" text-anchor="end" transform="translate(0,0)" y="183" opacity="1">65-69</text><text x="52" style="color:#000000;cursor:default;font-size:11px;fill:#000000;" text-anchor="end" transform="translate(0,0)" y="170" opacity="1">70-74</text><text x="52" style="color:#000000;cursor:default;font-size:11px;fill:#000000;" text-anchor="end" transform="translate(0,0)" y="156" opacity="1">75-79</text><text x="52" style="color:#000000;cursor:default;font-size:11px;fill:#000000;" text-anchor="end" transform="translate(0,0)" y="143" opacity="1">80-84</text><text x="52" style="color:#000000;cursor:default;font-size:11px;fill:#000000;" text-anchor="end" transform="translate(0,0)" y="130" opacity="1">85-89</text><text x="52" style="color:#000000;cursor:default;font-size:11px;fill:#000000;" text-anchor="end" transform="translate(0,0)" y="116" opacity="1">90-94</text><text x="52" style="color:#000000;cursor:default;font-size:11px;fill:#000000;" text-anchor="end" transform="translate(0,0)" y="103" opacity="1"><tspan>95 u.m.</tspan></text></g><g class="highcharts-axis-labels highcharts-yaxis-labels" data-z-index="7"><text x="268.5" style="color:#000000;cursor:default;font-size:11px;fill:#000000;" text-anchor="middle" transform="translate(0,0)" y="377" opacity="1">0</text><text x="318.875" style="color:#000000;cursor:default;font-size:11px;fill:#000000;" text-anchor="middle" transform="translate(0,0)" y="377" opacity="1">100</text><text x="369.25" style="color:#000000;cursor:default;font-size:11px;fill:#000000;" text-anchor="middle" transform="translate(0,0)" y="377" opacity="1">200</text><text x="419.625" style="color:#000000;cursor:default;font-size:11px;fill:#000000;" text-anchor="middle" transform="translate(0,0)" y="377" opacity="1">300</text><text x="470" style="color:#000000;cursor:default;font-size:11px;fill:#000000;" text-anchor="middle" transform="translate(0,0)" y="377" opacity="1">400</text><text x="67" style="color:#000000;cursor:default;font-size:11px;fill:#000000;" text-anchor="middle" transform="translate(0,0)" y="377" opacity="1">400</text><text x="117.375" style="color:#000000;cursor:default;font-size:11px;fill:#000000;" text-anchor="middle" transform="translate(0,0)" y="377" opacity="1">300</text><text x="167.75" style="color:#000000;cursor:default;font-size:11px;fill:#000000;" text-anchor="middle" transform="translate(0,0)" y="377" opacity="1">200</text><text x="218.125" style="color:#000000;cursor:default;font-size:11px;fill:#000000;" text-anchor="middle" transform="translate(0,0)" y="377" opacity="1">100</text></g><text x="10" class="highcharts-credits" text-anchor="start" data-z-index="8" style="cursor:default;color:#000000;font-size:10px;fill:#000000;" y="403"><tspan>Quelle: Statistisches Amt Basel-Stadt, Bevölkerungsstatistik.</tspan><tspan x="10" dy="13">Zuletzt geändert: 2020-2-19</tspan></text><g class="highcharts-control-points" data-z-index="99" clip-path="url(#highcharts-lvrz8mo-90-)"></g></svg>