<?xml version="1.0" standalone="no"?><!DOCTYPE svg PUBLIC "-//W3C//DTD SVG 1.1//EN" "http://www.w3.org/Graphics/SVG/1.1/DTD/svg11.dtd"><svg xmlns:xlink="http://www.w3.org/1999/xlink" version="1.1" class="highcharts-root" style="font-family:Arial;font-size:12px;" xmlns="http://www.w3.org/2000/svg" viewBox="0 0 485 415"><desc>Created with Highcharts 8.2.0</desc><defs><clipPath id="highcharts-7oe6zgd-78-"><rect x="0" y="0" width="398" height="212" fill="none"></rect></clipPath><clipPath id="highcharts-7oe6zgd-91-"><rect x="0" y="0" width="398" height="212" fill="none"></rect></clipPath></defs><rect fill="#fbfbfb" class="highcharts-background" x="0" y="0" width="485" height="428" rx="0" ry="0"></rect><rect fill="none" class="highcharts-plot-background" x="77" y="139" width="398" height="212"></rect><g class="highcharts-pane-group" data-z-index="0"></g><g class="highcharts-plot-lines-0" data-z-index="0"><path fill="none" class="highcharts-plot-line " stroke="#B9CFD7" stroke-width="2" d="M 77 233 L 475 233"></path></g><g class="highcharts-grid highcharts-xaxis-grid" data-z-index="1"><path fill="none" data-z-index="1" class="highcharts-grid-line" d="M 96.5 139 L 96.5 351" opacity="1"></path><path fill="none" data-z-index="1" class="highcharts-grid-line" d="M 128.5 139 L 128.5 351" opacity="1"></path><path fill="none" data-z-index="1" class="highcharts-grid-line" d="M 161.5 139 L 161.5 351" opacity="1"></path><path fill="none" data-z-index="1" class="highcharts-grid-line" d="M 194.5 139 L 194.5 351" opacity="1"></path><path fill="none" data-z-index="1" class="highcharts-grid-line" d="M 226.5 139 L 226.5 351" opacity="1"></path><path fill="none" data-z-index="1" class="highcharts-grid-line" d="M 259.5 139 L 259.5 351" opacity="1"></path><path fill="none" data-z-index="1" class="highcharts-grid-line" d="M 291.5 139 L 291.5 351" opacity="1"></path><path fill="none" data-z-index="1" class="highcharts-grid-line" d="M 324.5 139 L 324.5 351" opacity="1"></path><path fill="none" data-z-index="1" class="highcharts-grid-line" d="M 356.5 139 L 356.5 351" opacity="1"></path><path fill="none" data-z-index="1" class="highcharts-grid-line" d="M 389.5 139 L 389.5 351" opacity="1"></path><path fill="none" data-z-index="1" class="highcharts-grid-line" d="M 422.5 139 L 422.5 351" opacity="1"></path><path fill="none" data-z-index="1" class="highcharts-grid-line" d="M 454.5 139 L 454.5 351" opacity="1"></path></g><g class="highcharts-grid highcharts-yaxis-grid" data-z-index="1"><path fill="none" stroke="#B9CFD7" stroke-width="0.5" data-z-index="1" class="highcharts-grid-line" d="M 77 351.25 L 475 351.25" opacity="1"></path><path fill="none" stroke="#B9CFD7" stroke-width="0.5" data-z-index="1" class="highcharts-grid-line" d="M 77 327.25 L 475 327.25" opacity="1"></path><path fill="none" stroke="#B9CFD7" stroke-width="0.5" data-z-index="1" class="highcharts-grid-line" d="M 77 304.25 L 475 304.25" opacity="1"></path><path fill="none" stroke="#B9CFD7" stroke-width="0.5" data-z-index="1" class="highcharts-grid-line" d="M 77 280.25 L 475 280.25" opacity="1"></path><path fill="none" stroke="#B9CFD7" stroke-width="0.5" data-z-index="1" class="highcharts-grid-line" d="M 77 257.25 L 475 257.25" opacity="1"></path><path fill="none" stroke="#B9CFD7" stroke-width="0.5" data-z-index="1" class="highcharts-grid-line" d="M 77 233.25 L 475 233.25" opacity="1"></path><path fill="none" stroke="#B9CFD7" stroke-width="0.5" data-z-index="1" class="highcharts-grid-line" d="M 77 210.25 L 475 210.25" opacity="1"></path><path fill="none" stroke="#B9CFD7" stroke-width="0.5" data-z-index="1" class="highcharts-grid-line" d="M 77 186.25 L 475 186.25" opacity="1"></path><path fill="none" stroke="#B9CFD7" stroke-width="0.5" data-z-index="1" class="highcharts-grid-line" d="M 77 163.25 L 475 163.25" opacity="1"></path><path fill="none" stroke="#B9CFD7" stroke-width="0.5" data-z-index="1" class="highcharts-grid-line" d="M 77 138.75 L 475 138.75" opacity="1"></path></g><rect fill="none" class="highcharts-plot-border" data-z-index="1" x="77" y="139" width="398" height="212"></rect><g class="highcharts-axis highcharts-xaxis" data-z-index="2"><path fill="none" class="highcharts-axis-line" stroke="#B9CFD7" stroke-width="0.5" data-z-index="7" d="M 77 351.25 L 475 351.25"></path></g><g class="highcharts-axis highcharts-yaxis" data-z-index="2"><path fill="none" class="highcharts-axis-line" data-z-index="7" d="M 77 139 L 77 351"></path></g><g class="highcharts-series-group" data-z-index="3"><g class="highcharts-series highcharts-series-0 highcharts-column-series" data-z-index="0.1" opacity="1" transform="translate(77,139) scale(1 1)" clip-path="url(#highcharts-7oe6zgd-91-)"><rect x="11" y="53" width="8" height="42" fill="#cd9c00" opacity="1" class="highcharts-point"></rect><rect x="44" y="43" width="8" height="52" fill="#cd9c00" opacity="1" class="highcharts-point"></rect><rect x="76" y="18" width="8" height="77" fill="#cd9c00" opacity="1" class="highcharts-point"></rect><rect x="109" y="21" width="8" height="74" fill="#cd9c00" opacity="1" class="highcharts-point"></rect><rect x="141" y="33" width="8" height="62" fill="#cd9c00" opacity="1" class="highcharts-point"></rect><rect x="174" y="23" width="8" height="72" fill="#cd9c00" opacity="1" class="highcharts-point"></rect><rect x="206" y="24" width="8" height="71" fill="#cd9c00" opacity="1" class="highcharts-point"></rect><rect x="239" y="27" width="8" height="68" fill="#cd9c00" opacity="1" class="highcharts-point"></rect><rect x="272" y="5" width="8" height="90" fill="#cd9c00" opacity="1" class="highcharts-point"></rect><rect x="304" y="33" width="8" height="62" fill="#cd9c00" opacity="1" class="highcharts-point"></rect><rect x="337" y="29" width="8" height="66" fill="#cd9c00" opacity="1" class="highcharts-point"></rect><rect x="369" y="32" width="8" height="63" fill="#cd9c00" opacity="1" class="highcharts-point"></rect></g><g class="highcharts-markers highcharts-series-0 highcharts-column-series" data-z-index="0.1" opacity="1" transform="translate(77,139) scale(1 1)" clip-path="none"></g><g class="highcharts-series highcharts-series-1 highcharts-column-series" data-z-index="0.1" opacity="1" transform="translate(77,139) scale(1 1)" clip-path="url(#highcharts-7oe6zgd-91-)"><rect x="11" y="95" width="8" height="94" fill="#7f5f1a" opacity="1" class="highcharts-point highcharts-negative"></rect><rect x="44" y="95" width="8" height="90" fill="#7f5f1a" opacity="1" class="highcharts-point highcharts-negative"></rect><rect x="76" y="95" width="8" height="94" fill="#7f5f1a" opacity="1" class="highcharts-point highcharts-negative"></rect><rect x="109" y="95" width="8" height="81" fill="#7f5f1a" opacity="1" class="highcharts-point highcharts-negative"></rect><rect x="141" y="95" width="8" height="79" fill="#7f5f1a" opacity="1" class="highcharts-point highcharts-negative"></rect><rect x="174" y="95" width="8" height="58" fill="#7f5f1a" opacity="1" class="highcharts-point highcharts-negative"></rect><rect x="206" y="95" width="8" height="84" fill="#7f5f1a" opacity="1" class="highcharts-point highcharts-negative"></rect><rect x="239" y="95" width="8" height="77" fill="#7f5f1a" opacity="1" class="highcharts-point highcharts-negative"></rect><rect x="272" y="95" width="8" height="78" fill="#7f5f1a" opacity="1" class="highcharts-point highcharts-negative"></rect><rect x="304" y="95" width="8" height="60" fill="#7f5f1a" opacity="1" class="highcharts-point highcharts-negative"></rect><rect x="337" y="95" width="8" height="77" fill="#7f5f1a" opacity="1" class="highcharts-point highcharts-negative"></rect><rect x="369" y="95" width="8" height="70" fill="#7f5f1a" opacity="1" class="highcharts-point highcharts-negative"></rect></g><g class="highcharts-markers highcharts-series-1 highcharts-column-series" data-z-index="0.1" opacity="1" transform="translate(77,139) scale(1 1)" clip-path="none"></g><g class="highcharts-series highcharts-series-2 highcharts-column-series" data-z-index="0.1" opacity="1" transform="translate(77,139) scale(1 1)" clip-path="url(#highcharts-7oe6zgd-91-)"><rect x="21" y="81" width="8" height="14" fill="#b375ab" opacity="1" class="highcharts-point"></rect><rect x="53" y="78" width="8" height="17" fill="#b375ab" opacity="1" class="highcharts-point"></rect><rect x="86" y="77" width="8" height="18" fill="#b375ab" opacity="1" class="highcharts-point"></rect><rect x="119" y="81" width="8" height="14" fill="#b375ab" opacity="1" class="highcharts-point"></rect><rect x="151" y="76" width="8" height="19" fill="#b375ab" opacity="1" class="highcharts-point"></rect><rect x="184" y="80" width="8" height="15" fill="#b375ab" opacity="1" class="highcharts-point"></rect><rect x="216" y="76" width="8" height="19" fill="#b375ab" opacity="1" class="highcharts-point"></rect><rect x="249" y="44" width="8" height="51" fill="#b375ab" opacity="1" class="highcharts-point"></rect><rect x="281" y="68" width="8" height="27" fill="#b375ab" opacity="1" class="highcharts-point"></rect><rect x="314" y="78" width="8" height="17" fill="#b375ab" opacity="1" class="highcharts-point"></rect><rect x="347" y="69" width="8" height="26" fill="#b375ab" opacity="1" class="highcharts-point"></rect><rect x="379" y="67" width="8" height="28" fill="#b375ab" opacity="1" class="highcharts-point"></rect></g><g class="highcharts-markers highcharts-series-2 highcharts-column-series" data-z-index="0.1" opacity="1" transform="translate(77,139) scale(1 1)" clip-path="none"></g><g class="highcharts-series highcharts-series-3 highcharts-column-series" data-z-index="0.1" opacity="1" transform="translate(77,139) scale(1 1)" clip-path="url(#highcharts-7oe6zgd-91-)"><rect x="21" y="95" width="8" height="28" fill="#923f8d" opacity="1" class="highcharts-point highcharts-negative"></rect><rect x="53" y="95" width="8" height="26" fill="#923f8d" opacity="1" class="highcharts-point highcharts-negative"></rect><rect x="86" y="95" width="8" height="33" fill="#923f8d" opacity="1" class="highcharts-point highcharts-negative"></rect><rect x="119" y="95" width="8" height="23" fill="#923f8d" opacity="1" class="highcharts-point highcharts-negative"></rect><rect x="151" y="95" width="8" height="30" fill="#923f8d" opacity="1" class="highcharts-point highcharts-negative"></rect><rect x="184" y="95" width="8" height="16" fill="#923f8d" opacity="1" class="highcharts-point highcharts-negative"></rect><rect x="216" y="95" width="8" height="17" fill="#923f8d" opacity="1" class="highcharts-point highcharts-negative"></rect><rect x="249" y="95" width="8" height="22" fill="#923f8d" opacity="1" class="highcharts-point highcharts-negative"></rect><rect x="281" y="95" width="8" height="20" fill="#923f8d" opacity="1" class="highcharts-point highcharts-negative"></rect><rect x="314" y="95" width="8" height="26" fill="#923f8d" opacity="1" class="highcharts-point highcharts-negative"></rect><rect x="347" y="95" width="8" height="24" fill="#923f8d" opacity="1" class="highcharts-point highcharts-negative"></rect><rect x="379" y="95" width="8" height="42" fill="#923f8d" opacity="1" class="highcharts-point highcharts-negative"></rect></g><g class="highcharts-markers highcharts-series-3 highcharts-column-series" data-z-index="0.1" opacity="1" transform="translate(77,139) scale(1 1)" clip-path="none"></g><g class="highcharts-series highcharts-series-5 highcharts-line-series" data-z-index="1" opacity="1" transform="translate(77,139) scale(1 1)" clip-path="url(#highcharts-7oe6zgd-91-)"><path fill="none" d="M 19.867430441896 108.32003377777778 L 52.436988543369 102.79927111111111 L 85.006546644843 109.36976355555555 L 117.57610474632 102.08563199999999 L 150.14566284779 105.24810666666666 L 182.71522094926 94.43214933333333 L 215.28477905074 91.02300088888889 L 247.85433715221 64.73952355555556 L 280.42389525368 86.30312711111111 L 312.99345335516 102.98394666666667 L 345.56301145663 92.20388799999999 L 378.1325695581 107.40928177777778" class="highcharts-graph" data-z-index="1" stroke-linejoin="round" stroke-linecap="round"></path></g><g class="highcharts-markers highcharts-series-5 highcharts-line-series" data-z-index="1" opacity="1" transform="translate(77,139) scale(1 1)" clip-path="none"><path fill="#d7bed2" d="M 19 103 L 24 108 L 19 113 L 14 108 Z" opacity="1" class="highcharts-point highcharts-negative"></path><path fill="#d7bed2" d="M 52 98 L 57 103 L 52 108 L 47 103 Z" opacity="1" class="highcharts-point highcharts-negative"></path><path fill="#d7bed2" d="M 85 104 L 90 109 L 85 114 L 80 109 Z" opacity="1" class="highcharts-point highcharts-negative"></path><path fill="#d7bed2" d="M 117 97 L 122 102 L 117 107 L 112 102 Z" opacity="1" class="highcharts-point highcharts-negative"></path><path fill="#d7bed2" d="M 150 100 L 155 105 L 150 110 L 145 105 Z" opacity="1" class="highcharts-point highcharts-negative"></path><path fill="#d7bed2" d="M 182 89 L 187 94 L 182 99 L 177 94 Z" opacity="1" class="highcharts-point highcharts-negative"></path><path fill="#d7bed2" d="M 215 86 L 220 91 L 215 96 L 210 91 Z" opacity="1" class="highcharts-point"></path><path fill="#d7bed2" d="M 247 60 L 252 65 L 247 70 L 242 65 Z" opacity="1" class="highcharts-point"></path><path fill="#d7bed2" d="M 280 81 L 285 86 L 280 91 L 275 86 Z" opacity="1" class="highcharts-point"></path><path fill="#d7bed2" d="M 312 98 L 317 103 L 312 108 L 307 103 Z" opacity="1" class="highcharts-point highcharts-negative"></path><path fill="#d7bed2" d="M 345 87 L 350 92 L 345 97 L 340 92 Z" opacity="1" class="highcharts-point"></path><path fill="#d7bed2" d="M 378 102 L 383 107 L 378 112 L 373 107 Z" opacity="1" class="highcharts-point highcharts-negative"></path></g><g class="highcharts-series highcharts-series-4 highcharts-line-series" data-z-index="2" opacity="1" transform="translate(77,139) scale(1 1)" clip-path="url(#highcharts-7oe6zgd-91-)"><path fill="none" d="M 19.867430441896 145.88144 L 52.436988543369 131.73255999999998 L 85.006546644843 110.72825955555555 L 117.57610474632 100.90436799999999 L 150.14566284779 110.719968 L 182.71522094926 79.74488355555556 L 215.28477905074 107.55118044444444 L 247.85433715221 102.9773511111111 L 280.42389525368 81.55932088888889 L 312.99345335516 91.4682951111111 L 345.56301145663 104.58657244444444 L 378.1325695581 101.22029511111111" class="highcharts-graph" data-z-index="1" stroke-linejoin="round" stroke-linecap="round"></path></g><g class="highcharts-markers highcharts-series-4 highcharts-line-series" data-z-index="2" opacity="1" transform="translate(77,139) scale(1 1)" clip-path="none"><path fill="#fabd24" d="M 19 150 A 4 4 0 1 1 19.003999999333335 149.99999800000018 Z" opacity="1" class="highcharts-point highcharts-negative"></path><path fill="#fabd24" d="M 52 136 A 4 4 0 1 1 52.00399999933334 135.99999800000018 Z" opacity="1" class="highcharts-point highcharts-negative"></path><path fill="#fabd24" d="M 85 115 A 4 4 0 1 1 85.00399999933333 114.99999800000016 Z" opacity="1" class="highcharts-point highcharts-negative"></path><path fill="#fabd24" d="M 117 105 A 4 4 0 1 1 117.00399999933333 104.99999800000016 Z" opacity="1" class="highcharts-point highcharts-negative"></path><path fill="#fabd24" d="M 150 115 A 4 4 0 1 1 150.00399999933333 114.99999800000016 Z" opacity="1" class="highcharts-point highcharts-negative"></path><path fill="#fabd24" d="M 182 84 A 4 4 0 1 1 182.00399999933333 83.99999800000016 Z" opacity="1" class="highcharts-point"></path><path fill="#fabd24" d="M 215 112 A 4 4 0 1 1 215.00399999933333 111.99999800000016 Z" opacity="1" class="highcharts-point highcharts-negative"></path><path fill="#fabd24" d="M 247 107 A 4 4 0 1 1 247.00399999933333 106.99999800000016 Z" opacity="1" class="highcharts-point highcharts-negative"></path><path fill="#fabd24" d="M 280 86 A 4 4 0 1 1 280.00399999933336 85.99999800000016 Z" opacity="1" class="highcharts-point"></path><path fill="#fabd24" d="M 312 95 A 4 4 0 1 1 312.00399999933336 94.99999800000016 Z" opacity="1" class="highcharts-point"></path><path fill="#fabd24" d="M 345 109 A 4 4 0 1 1 345.00399999933336 108.99999800000016 Z" opacity="1" class="highcharts-point highcharts-negative"></path><path fill="#fabd24" d="M 378 105 A 4 4 0 1 1 378.00399999933336 104.99999800000016 Z" opacity="1" class="highcharts-point highcharts-negative"></path></g></g><text x="10" text-anchor="start" class="highcharts-title" data-z-index="4" style="color:#000000;font-size:14px;font-weight:bold;fill:#000000;" y="21"><tspan>Steuerertrag durch Zu- und Wegzüger</tspan></text><text x="10" text-anchor="start" class="highcharts-subtitle" data-z-index="4" style="color:#000000;font-size:12px;font-weight:normal;fill:#000000;" y="40"><tspan>in Fr., Wohnviertel Klybeck und Kleinhüningen</tspan></text><text x="10" text-anchor="start" class="highcharts-caption" data-z-index="4" style="color:#666666;fill:#666666;" y="385"></text><g class="highcharts-legend" data-z-index="7" transform="translate(69,56)"><rect fill="none" class="highcharts-legend-box" rx="0" ry="0" x="0" y="0" width="392" height="71" visibility="visible"></rect><g data-z-index="1"><g><g class="highcharts-legend-item highcharts-column-series highcharts-color-undefined highcharts-series-0" data-z-index="1" transform="translate(8,3)"><text x="21" style="color:#333333;cursor:pointer;font-size:12px;font-weight:normal;fill:#333333;" text-anchor="start" data-z-index="2" y="15"><tspan>Zugezogene Klybeck</tspan></text><rect x="2" y="4" width="12" height="12" fill="#cd9c00" class="highcharts-point" data-z-index="3"></rect></g><g class="highcharts-legend-item highcharts-column-series highcharts-color-undefined highcharts-series-2" data-z-index="1" transform="translate(198,3)"><text x="21" y="15" style="color:#333333;cursor:pointer;font-size:12px;font-weight:normal;fill:#333333;" text-anchor="start" data-z-index="2"><tspan>Zugezogene Kleinhüningen</tspan></text><rect x="2" y="4" width="12" height="12" fill="#b375ab" class="highcharts-point" data-z-index="3"></rect></g><g class="highcharts-legend-item highcharts-column-series highcharts-color-undefined highcharts-series-1" data-z-index="1" transform="translate(8,23)"><text x="21" y="15" style="color:#333333;cursor:pointer;font-size:12px;font-weight:normal;fill:#333333;" text-anchor="start" data-z-index="2"><tspan>Weggezogene Klybeck</tspan></text><rect x="2" y="4" width="12" height="12" fill="#7f5f1a" class="highcharts-point" data-z-index="3"></rect></g><g class="highcharts-legend-item highcharts-column-series highcharts-color-undefined highcharts-series-3" data-z-index="1" transform="translate(198,23)"><text x="21" y="15" style="color:#333333;cursor:pointer;font-size:12px;font-weight:normal;fill:#333333;" text-anchor="start" data-z-index="2"><tspan>Weggezogene Kleinhüning…</tspan><title>Weggezogene Kleinhüningen</title></text><rect x="2" y="4" width="12" height="12" fill="#923f8d" class="highcharts-point" data-z-index="3"></rect></g><g class="highcharts-legend-item highcharts-line-series highcharts-color-undefined highcharts-series-4" data-z-index="1" transform="translate(8,43)"><path fill="none" d="M 0 11 L 16 11" class="highcharts-graph"></path><path fill="#fabd24" d="M 8 15 A 4 4 0 1 1 8.003999999333336 14.999998000000167 Z" class="highcharts-point" opacity="1"></path><text x="21" y="15" style="color:#333333;cursor:pointer;font-size:12px;font-weight:normal;fill:#333333;" text-anchor="start" data-z-index="2"><tspan>Saldo Klybeck</tspan></text></g><g class="highcharts-legend-item highcharts-line-series highcharts-color-undefined highcharts-series-5" data-z-index="1" transform="translate(198,43)"><path fill="none" d="M 0 11 L 16 11" class="highcharts-graph"></path><path fill="#d7bed2" d="M 8 6 L 13 11 L 8 16 L 3 11 Z" class="highcharts-point" opacity="1"></path><text x="21" y="15" style="color:#333333;cursor:pointer;font-size:12px;font-weight:normal;fill:#333333;" text-anchor="start" data-z-index="2"><tspan>Saldo Kleinhüningen</tspan></text></g></g></g></g><g class="highcharts-axis-labels highcharts-xaxis-labels" data-z-index="7"><text x="96.867430441896" style="color:#000000;cursor:default;font-size:11px;fill:#000000;" text-anchor="middle" transform="translate(0,0)" y="370" opacity="1">2005</text><text x="129.43698854337" style="color:#000000;cursor:default;font-size:11px;fill:#000000;" text-anchor="middle" transform="translate(0,0)" y="370" opacity="1">2006</text><text x="162.00654664484" style="color:#000000;cursor:default;font-size:11px;fill:#000000;" text-anchor="middle" transform="translate(0,0)" y="370" opacity="1">2007</text><text x="194.57610474632" style="color:#000000;cursor:default;font-size:11px;fill:#000000;" text-anchor="middle" transform="translate(0,0)" y="370" opacity="1">2008</text><text x="227.14566284779" style="color:#000000;cursor:default;font-size:11px;fill:#000000;" text-anchor="middle" transform="translate(0,0)" y="370" opacity="1">2009</text><text x="259.71522094926" style="color:#000000;cursor:default;font-size:11px;fill:#000000;" text-anchor="middle" transform="translate(0,0)" y="370" opacity="1">2010</text><text x="292.28477905074" style="color:#000000;cursor:default;font-size:11px;fill:#000000;" text-anchor="middle" transform="translate(0,0)" y="370" opacity="1">2011</text><text x="324.85433715221" style="color:#000000;cursor:default;font-size:11px;fill:#000000;" text-anchor="middle" transform="translate(0,0)" y="370" opacity="1">2012</text><text x="357.42389525368" style="color:#000000;cursor:default;font-size:11px;fill:#000000;" text-anchor="middle" transform="translate(0,0)" y="370" opacity="1">2013</text><text x="389.99345335516" style="color:#000000;cursor:default;font-size:11px;fill:#000000;" text-anchor="middle" transform="translate(0,0)" y="370" opacity="1">2014</text><text x="422.56301145663" style="color:#000000;cursor:default;font-size:11px;fill:#000000;" text-anchor="middle" transform="translate(0,0)" y="370" opacity="1">2015</text><text x="455.1325695581" style="color:#000000;cursor:default;font-size:11px;fill:#000000;" text-anchor="middle" transform="translate(0,0)" y="370" opacity="1">2016</text></g><g class="highcharts-axis-labels highcharts-yaxis-labels" data-z-index="7"><text x="62" style="color:#000000;cursor:default;font-size:11px;fill:#000000;" text-anchor="end" transform="translate(0,0)" y="355" opacity="1"><tspan>-1 250 000</tspan></text><text x="62" style="color:#000000;cursor:default;font-size:11px;fill:#000000;" text-anchor="end" transform="translate(0,0)" y="331" opacity="1"><tspan>-1 000 000</tspan></text><text x="62" style="color:#000000;cursor:default;font-size:11px;fill:#000000;" text-anchor="end" transform="translate(0,0)" y="308" opacity="1"><tspan>-750 000</tspan></text><text x="62" style="color:#000000;cursor:default;font-size:11px;fill:#000000;" text-anchor="end" transform="translate(0,0)" y="284" opacity="1"><tspan>-500 000</tspan></text><text x="62" style="color:#000000;cursor:default;font-size:11px;fill:#000000;" text-anchor="end" transform="translate(0,0)" y="261" opacity="1"><tspan>-250 000</tspan></text><text x="62" style="color:#000000;cursor:default;font-size:11px;fill:#000000;" text-anchor="end" transform="translate(0,0)" y="237" opacity="1">0</text><text x="62" style="color:#000000;cursor:default;font-size:11px;fill:#000000;" text-anchor="end" transform="translate(0,0)" y="214" opacity="1"><tspan>250 000</tspan></text><text x="62" style="color:#000000;cursor:default;font-size:11px;fill:#000000;" text-anchor="end" transform="translate(0,0)" y="190" opacity="1"><tspan>500 000</tspan></text><text x="62" style="color:#000000;cursor:default;font-size:11px;fill:#000000;" text-anchor="end" transform="translate(0,0)" y="167" opacity="1"><tspan>750 000</tspan></text><text x="62" style="color:#000000;cursor:default;font-size:11px;fill:#000000;" text-anchor="end" transform="translate(0,0)" y="143" opacity="1"><tspan>1 000 000</tspan></text></g><text x="10" class="highcharts-credits" text-anchor="start" data-z-index="8" style="cursor:default;color:#000000;font-size:10px;fill:#000000;" y="403"><tspan>Quelle: Statistisches Amt Basel-Stadt, Steuerstatistik.</tspan><tspan x="10" dy="13">Zuletzt geändert: 2020-7-20</tspan></text></svg>