<?xml version="1.0" standalone="no"?><!DOCTYPE svg PUBLIC "-//W3C//DTD SVG 1.1//EN" "http://www.w3.org/Graphics/SVG/1.1/DTD/svg11.dtd"><svg xmlns:xlink="http://www.w3.org/1999/xlink" version="1.1" class="highcharts-root" style="font-family:Arial;font-size:12px;" xmlns="http://www.w3.org/2000/svg" viewBox="0 0 485 415"><desc>Created with Highcharts 8.0.4</desc><defs><clipPath id="highcharts-s41y1tx-74-"><rect x="0" y="0" width="227" height="260" fill="none"></rect></clipPath><clipPath id="highcharts-s41y1tx-92-"><rect x="0" y="0" width="227" height="260" fill="none"></rect></clipPath></defs><rect fill="#fbfbfb" class="highcharts-background" x="0" y="0" width="485" height="428" rx="0" ry="0"></rect><rect fill="none" class="highcharts-plot-background" x="56" y="55" width="227" height="260"></rect><g class="highcharts-pane-group" data-z-index="0"></g><g class="highcharts-grid highcharts-xaxis-grid" data-z-index="1"><path fill="none" data-z-index="1" class="highcharts-grid-line" d="M 68.5 55 L 68.5 315" opacity="1"></path><path fill="none" data-z-index="1" class="highcharts-grid-line" d="M 82.5 55 L 82.5 315" opacity="1"></path><path fill="none" data-z-index="1" class="highcharts-grid-line" d="M 95.5 55 L 95.5 315" opacity="1"></path><path fill="none" data-z-index="1" class="highcharts-grid-line" d="M 108.5 55 L 108.5 315" opacity="1"></path><path fill="none" data-z-index="1" class="highcharts-grid-line" d="M 122.5 55 L 122.5 315" opacity="1"></path><path fill="none" data-z-index="1" class="highcharts-grid-line" d="M 135.5 55 L 135.5 315" opacity="1"></path><path fill="none" data-z-index="1" class="highcharts-grid-line" d="M 148.5 55 L 148.5 315" opacity="1"></path><path fill="none" data-z-index="1" class="highcharts-grid-line" d="M 162.5 55 L 162.5 315" opacity="1"></path><path fill="none" data-z-index="1" class="highcharts-grid-line" d="M 175.5 55 L 175.5 315" opacity="1"></path><path fill="none" data-z-index="1" class="highcharts-grid-line" d="M 189.5 55 L 189.5 315" opacity="1"></path><path fill="none" data-z-index="1" class="highcharts-grid-line" d="M 202.5 55 L 202.5 315" opacity="1"></path><path fill="none" data-z-index="1" class="highcharts-grid-line" d="M 215.5 55 L 215.5 315" opacity="1"></path><path fill="none" data-z-index="1" class="highcharts-grid-line" d="M 229.5 55 L 229.5 315" opacity="1"></path><path fill="none" data-z-index="1" class="highcharts-grid-line" d="M 242.5 55 L 242.5 315" opacity="1"></path><path fill="none" data-z-index="1" class="highcharts-grid-line" d="M 255.5 55 L 255.5 315" opacity="1"></path><path fill="none" data-z-index="1" class="highcharts-grid-line" d="M 269.5 55 L 269.5 315" opacity="1"></path><path fill="none" data-z-index="1" class="highcharts-grid-line" d="M 282.5 55 L 282.5 315" opacity="1"></path><path fill="none" data-z-index="1" class="highcharts-grid-line" d="M 55.5 55 L 55.5 315" opacity="1"></path></g><g class="highcharts-grid highcharts-yaxis-grid" data-z-index="1"><path fill="none" stroke="#B9CFD7" stroke-width="0.5" data-z-index="1" class="highcharts-grid-line" d="M 56 315.25 L 283 315.25" opacity="1"></path><path fill="none" stroke="#B9CFD7" stroke-width="0.5" data-z-index="1" class="highcharts-grid-line" d="M 56 283.25 L 283 283.25" opacity="1"></path><path fill="none" stroke="#B9CFD7" stroke-width="0.5" data-z-index="1" class="highcharts-grid-line" d="M 56 250.25 L 283 250.25" opacity="1"></path><path fill="none" stroke="#B9CFD7" stroke-width="0.5" data-z-index="1" class="highcharts-grid-line" d="M 56 218.25 L 283 218.25" opacity="1"></path><path fill="none" stroke="#B9CFD7" stroke-width="0.5" data-z-index="1" class="highcharts-grid-line" d="M 56 185.25 L 283 185.25" opacity="1"></path><path fill="none" stroke="#B9CFD7" stroke-width="0.5" data-z-index="1" class="highcharts-grid-line" d="M 56 153.25 L 283 153.25" opacity="1"></path><path fill="none" stroke="#B9CFD7" stroke-width="0.5" data-z-index="1" class="highcharts-grid-line" d="M 56 120.25 L 283 120.25" opacity="1"></path><path fill="none" stroke="#B9CFD7" stroke-width="0.5" data-z-index="1" class="highcharts-grid-line" d="M 56 88.25 L 283 88.25" opacity="1"></path><path fill="none" stroke="#B9CFD7" stroke-width="0.5" data-z-index="1" class="highcharts-grid-line" d="M 56 54.75 L 283 54.75" opacity="1"></path></g><rect fill="none" class="highcharts-plot-border" data-z-index="1" x="56" y="55" width="227" height="260"></rect><g class="highcharts-axis highcharts-xaxis" data-z-index="2"><path fill="none" class="highcharts-axis-line" stroke="#B9CFD7" stroke-width="0.5" data-z-index="7" d="M 56 315.25 L 283 315.25"></path></g><g class="highcharts-axis highcharts-yaxis" data-z-index="2"><path fill="none" class="highcharts-axis-line" data-z-index="7" d="M 56 55 L 56 315"></path></g><g class="highcharts-series-group" data-z-index="3"><g data-z-index="0.1" class="highcharts-series highcharts-series-0 highcharts-column-series" transform="translate(56,55) scale(1 1)" clip-path="url(#highcharts-s41y1tx-92-)"><rect x="1" y="74" width="12" height="187" fill="#ffbb58" opacity="1" class="highcharts-point"></rect><rect x="14" y="200" width="12" height="61" fill="#ffbb58" opacity="1" class="highcharts-point"></rect><rect x="41" y="73" width="12" height="188" fill="#ffbb58" opacity="1" class="highcharts-point"></rect><rect x="54" y="201" width="12" height="60" fill="#ffbb58" opacity="1" class="highcharts-point"></rect><rect x="81" y="76" width="12" height="185" fill="#ffbb58" opacity="1" class="highcharts-point"></rect><rect x="94" y="201" width="12" height="60" fill="#ffbb58" opacity="1" class="highcharts-point"></rect><rect x="121" y="77" width="12" height="184" fill="#ffbb58" opacity="1" class="highcharts-point"></rect><rect x="134" y="201" width="12" height="60" fill="#ffbb58" opacity="1" class="highcharts-point"></rect><rect x="161" y="74" width="12" height="187" fill="#ffbb58" opacity="1" class="highcharts-point"></rect><rect x="174" y="201" width="12" height="60" fill="#ffbb58" opacity="1" class="highcharts-point"></rect><rect x="201" y="76" width="12" height="185" fill="#ffbb58" opacity="1" class="highcharts-point"></rect><rect x="215" y="203" width="12" height="58" fill="#ffbb58" opacity="1" class="highcharts-point"></rect></g><g data-z-index="0.1" class="highcharts-markers highcharts-series-0 highcharts-column-series" transform="translate(56,55) scale(1 1)" clip-path="none"></g><g data-z-index="0.1" class="highcharts-series highcharts-series-1 highcharts-column-series" transform="translate(56,55) scale(1 1)" clip-path="url(#highcharts-s41y1tx-92-)"><rect x="1" y="42" width="12" height="32" fill="#008AC3" opacity="1" class="highcharts-point"></rect><rect x="14" y="180" width="12" height="20" fill="#008AC3" opacity="1" class="highcharts-point"></rect><rect x="41" y="41" width="12" height="32" fill="#008AC3" opacity="1" class="highcharts-point"></rect><rect x="54" y="181" width="12" height="20" fill="#008AC3" opacity="1" class="highcharts-point"></rect><rect x="81" y="44" width="12" height="32" fill="#008AC3" opacity="1" class="highcharts-point"></rect><rect x="94" y="181" width="12" height="20" fill="#008AC3" opacity="1" class="highcharts-point"></rect><rect x="121" y="46" width="12" height="31" fill="#008AC3" opacity="1" class="highcharts-point"></rect><rect x="134" y="181" width="12" height="20" fill="#008AC3" opacity="1" class="highcharts-point"></rect><rect x="161" y="44" width="12" height="30" fill="#008AC3" opacity="1" class="highcharts-point"></rect><rect x="174" y="181" width="12" height="20" fill="#008AC3" opacity="1" class="highcharts-point"></rect><rect x="201" y="45" width="12" height="31" fill="#008AC3" opacity="1" class="highcharts-point"></rect><rect x="215" y="183" width="12" height="20" fill="#008AC3" opacity="1" class="highcharts-point"></rect></g><g data-z-index="0.1" class="highcharts-markers highcharts-series-1 highcharts-column-series" transform="translate(56,55) scale(1 1)" clip-path="none"></g><g data-z-index="0.1" class="highcharts-series highcharts-series-2 highcharts-column-series" transform="translate(56,55) scale(1 1)" clip-path="url(#highcharts-s41y1tx-92-)"><rect x="1" y="36" width="12" height="6" fill="#73B97C" opacity="1" class="highcharts-point"></rect><rect x="14" y="178" width="12" height="2" fill="#73B97C" opacity="1" class="highcharts-point"></rect><rect x="41" y="36" width="12" height="5" fill="#73B97C" opacity="1" class="highcharts-point"></rect><rect x="54" y="178" width="12" height="3" fill="#73B97C" opacity="1" class="highcharts-point"></rect><rect x="81" y="39" width="12" height="5" fill="#73B97C" opacity="1" class="highcharts-point"></rect><rect x="94" y="178" width="12" height="3" fill="#73B97C" opacity="1" class="highcharts-point"></rect><rect x="121" y="41" width="12" height="5" fill="#73B97C" opacity="1" class="highcharts-point"></rect><rect x="134" y="178" width="12" height="3" fill="#73B97C" opacity="1" class="highcharts-point"></rect><rect x="161" y="39" width="12" height="5" fill="#73B97C" opacity="1" class="highcharts-point"></rect><rect x="174" y="179" width="12" height="2" fill="#73B97C" opacity="1" class="highcharts-point"></rect><rect x="201" y="40" width="12" height="5" fill="#73B97C" opacity="1" class="highcharts-point"></rect><rect x="215" y="181" width="12" height="2" fill="#73B97C" opacity="1" class="highcharts-point"></rect></g><g data-z-index="0.1" class="highcharts-markers highcharts-series-2 highcharts-column-series" transform="translate(56,55) scale(1 1)" clip-path="none"></g><g data-z-index="0.1" class="highcharts-series highcharts-series-3 highcharts-column-series" transform="translate(56,55) scale(1 1)" clip-path="url(#highcharts-s41y1tx-92-)"><rect x="1" y="35" width="12" height="1" fill="#662673" opacity="1" class="highcharts-point"></rect><rect x="14" y="177" width="12" height="1" fill="#662673" opacity="1" class="highcharts-point"></rect><rect x="28" y="261" width="12" height="0" fill="#662673" opacity="1" class="highcharts-point highcharts-null-point"></rect><rect x="41" y="35" width="12" height="1" fill="#662673" opacity="1" class="highcharts-point"></rect><rect x="54" y="178" width="12" height="0" fill="#662673" opacity="1" class="highcharts-point"></rect><rect x="68" y="261" width="12" height="0" fill="#662673" opacity="1" class="highcharts-point highcharts-null-point"></rect><rect x="81" y="38" width="12" height="1" fill="#662673" opacity="1" class="highcharts-point"></rect><rect x="94" y="178" width="12" height="0" fill="#662673" opacity="1" class="highcharts-point"></rect><rect x="108" y="261" width="12" height="0" fill="#662673" opacity="1" class="highcharts-point highcharts-null-point"></rect><rect x="121" y="40" width="12" height="1" fill="#662673" opacity="1" class="highcharts-point"></rect><rect x="134" y="178" width="12" height="0" fill="#662673" opacity="1" class="highcharts-point"></rect><rect x="148" y="261" width="12" height="0" fill="#662673" opacity="1" class="highcharts-point highcharts-null-point"></rect><rect x="161" y="39" width="12" height="0" fill="#662673" opacity="1" class="highcharts-point"></rect><rect x="174" y="178" width="12" height="1" fill="#662673" opacity="1" class="highcharts-point"></rect><rect x="188" y="261" width="12" height="0" fill="#662673" opacity="1" class="highcharts-point highcharts-null-point"></rect><rect x="201" y="39" width="12" height="1" fill="#662673" opacity="1" class="highcharts-point"></rect><rect x="215" y="179" width="12" height="2" fill="#662673" opacity="1" class="highcharts-point"></rect></g><g data-z-index="0.1" class="highcharts-markers highcharts-series-3 highcharts-column-series" transform="translate(56,55) scale(1 1)" clip-path="none"></g></g><text x="10" text-anchor="start" class="highcharts-title" data-z-index="4" style="color:#000000;font-size:14px;font-weight:bold;fill:#000000;" y="21"><tspan>Wohnungen nach Belegungsart</tspan></text><text x="10" text-anchor="start" class="highcharts-subtitle" data-z-index="4" style="color:#000000;font-size:12px;font-weight:normal;font-family:Arial;fill:#000000;" y="40"><tspan>Wohnviertel Klybeck und Kleinh체ningen</tspan></text><text x="10" text-anchor="start" class="highcharts-caption" data-z-index="4" style="color:#666666;fill:#666666;" y="400"></text><g class="highcharts-legend" data-z-index="7" transform="translate(295,141)"><rect fill="none" class="highcharts-legend-box" rx="0" ry="0" x="0" y="0" width="179" height="117" visibility="visible"></rect><g data-z-index="1"><g><g class="highcharts-legend-item highcharts-column-series highcharts-color-undefined highcharts-series-3" data-z-index="1" transform="translate(8,3)"><text x="21" style="color:#333333;cursor:pointer;font-size:12px;font-weight:normal;fill:#333333;" text-anchor="start" data-z-index="2" y="15"><tspan>Sonstige Wohnungen</tspan></text><rect x="2" y="4" width="12" height="12" fill="#662673" class="highcharts-point" data-z-index="3"></rect></g><g class="highcharts-legend-item highcharts-column-series highcharts-color-undefined highcharts-series-2" data-z-index="1" transform="translate(8,22)"><text x="21" y="15" style="color:#333333;cursor:pointer;font-size:12px;font-weight:normal;fill:#333333;" text-anchor="start" data-z-index="2"><tspan>Selbstbewohnte</tspan><tspan x="21" dy="15">Eigent체merwohnungen</tspan></text><rect x="2" y="4" width="12" height="12" fill="#73B97C" class="highcharts-point" data-z-index="3"></rect></g><g class="highcharts-legend-item highcharts-column-series highcharts-color-undefined highcharts-series-1" data-z-index="1" transform="translate(8,56)"><text x="21" y="15" style="color:#333333;cursor:pointer;font-size:12px;font-weight:normal;fill:#333333;" text-anchor="start" data-z-index="2"><tspan>Genossenschafts-</tspan><tspan x="21" dy="15">wohnungen</tspan></text><rect x="2" y="4" width="12" height="12" fill="#008AC3" class="highcharts-point" data-z-index="3"></rect></g><g class="highcharts-legend-item highcharts-column-series highcharts-color-undefined highcharts-series-0" data-z-index="1" transform="translate(8,90)"><text x="21" y="15" style="color:#333333;cursor:pointer;font-size:12px;font-weight:normal;fill:#333333;" text-anchor="start" data-z-index="2"><tspan>Mietwohnungen</tspan></text><rect x="2" y="4" width="12" height="12" fill="#ffbb58" class="highcharts-point" data-z-index="3"></rect></g></g></g></g><g class="highcharts-axis-labels highcharts-xaxis-labels" data-z-index="7"><text x="65.26919545258639" style="color:#000000;cursor:default;font-size:11px;fill:#000000;" text-anchor="end" transform="translate(0,0) rotate(-45 65.26919545258639 331)" y="331" opacity="1"><tspan>2013: Klybeck</tspan></text><text x="78.62213662905639" style="color:#000000;cursor:default;font-size:11px;fill:#000000;" text-anchor="end" transform="translate(0,0) rotate(-45 78.62213662905639 331)" y="331" opacity="1"><tspan>2013: Kleinh.</tspan></text><text x="91.97507780552738" style="color:#000000;cursor:default;font-size:11px;fill:#000000;" text-anchor="end" transform="translate(0,0) rotate(-45 91.97507780552738 331)" y="331" opacity="1"></text><text x="105.32801898199538" style="color:#000000;cursor:default;font-size:11px;fill:#000000;" text-anchor="end" transform="translate(0,0) rotate(-45 105.32801898199538 331)" y="331" opacity="1"><tspan>2014: Klybeck</tspan></text><text x="118.68096015846538" style="color:#000000;cursor:default;font-size:11px;fill:#000000;" text-anchor="end" transform="translate(0,0) rotate(-45 118.68096015846538 331)" y="331" opacity="1"><tspan>2014: Kleinh.</tspan></text><text x="132.0339013349354" style="color:#000000;cursor:default;font-size:11px;fill:#000000;" text-anchor="end" transform="translate(0,0) rotate(-45 132.0339013349354 331)" y="331" opacity="1"></text><text x="145.38684251140538" style="color:#000000;cursor:default;font-size:11px;fill:#000000;" text-anchor="end" transform="translate(0,0) rotate(-45 145.38684251140538 331)" y="331" opacity="1"><tspan>2015: Klybeck</tspan></text><text x="158.7397836878754" style="color:#000000;cursor:default;font-size:11px;fill:#000000;" text-anchor="end" transform="translate(0,0) rotate(-45 158.7397836878754 331)" y="331" opacity="1"><tspan>2015: Kleinh.</tspan></text><text x="172.09272486435538" style="color:#000000;cursor:default;font-size:11px;fill:#000000;" text-anchor="end" transform="translate(0,0) rotate(-45 172.09272486435538 331)" y="331" opacity="1"></text><text x="185.4456660408254" style="color:#000000;cursor:default;font-size:11px;fill:#000000;" text-anchor="end" transform="translate(0,0) rotate(-45 185.4456660408254 331)" y="331" opacity="1"><tspan>2016: Klybeck</tspan></text><text x="198.79860721729537" style="color:#000000;cursor:default;font-size:11px;fill:#000000;" text-anchor="end" transform="translate(0,0) rotate(-45 198.79860721729537 331)" y="331" opacity="1"><tspan>2016: Kleinh.</tspan></text><text x="212.15154839376538" style="color:#000000;cursor:default;font-size:11px;fill:#000000;" text-anchor="end" transform="translate(0,0) rotate(-45 212.15154839376538 331)" y="331" opacity="1"></text><text x="225.5044895702354" style="color:#000000;cursor:default;font-size:11px;fill:#000000;" text-anchor="end" transform="translate(0,0) rotate(-45 225.5044895702354 331)" y="331" opacity="1"><tspan>2017: Klybeck</tspan></text><text x="238.85743074670538" style="color:#000000;cursor:default;font-size:11px;fill:#000000;" text-anchor="end" transform="translate(0,0) rotate(-45 238.85743074670538 331)" y="331" opacity="1"><tspan>2017: Kleinh.</tspan></text><text x="252.21037192317533" style="color:#000000;cursor:default;font-size:11px;fill:#000000;" text-anchor="end" transform="translate(0,0) rotate(-45 252.21037192317533 331)" y="331" opacity="1"></text><text x="265.56331309964537" style="color:#000000;cursor:default;font-size:11px;fill:#000000;" text-anchor="end" transform="translate(0,0) rotate(-45 265.56331309964537 331)" y="331" opacity="1"><tspan>2018: Klybeck</tspan></text><text x="278.91625427611535" style="color:#000000;cursor:default;font-size:11px;fill:#000000;" text-anchor="end" transform="translate(0,0) rotate(-45 278.91625427611535 331)" y="331" opacity="1"><tspan>2018: Kleinh.</tspan></text></g><g class="highcharts-axis-labels highcharts-yaxis-labels" data-z-index="7"><text x="41" style="color:#000000;cursor:default;font-size:11px;fill:#000000;" text-anchor="end" transform="translate(0,0)" y="320" opacity="1">0</text><text x="41" style="color:#000000;cursor:default;font-size:11px;fill:#000000;" text-anchor="end" transform="translate(0,0)" y="287" opacity="1">500</text><text x="41" style="color:#000000;cursor:default;font-size:11px;fill:#000000;" text-anchor="end" transform="translate(0,0)" y="255" opacity="1"><tspan>1 000</tspan></text><text x="41" style="color:#000000;cursor:default;font-size:11px;fill:#000000;" text-anchor="end" transform="translate(0,0)" y="222" opacity="1"><tspan>1 500</tspan></text><text x="41" style="color:#000000;cursor:default;font-size:11px;fill:#000000;" text-anchor="end" transform="translate(0,0)" y="190" opacity="1"><tspan>2 000</tspan></text><text x="41" style="color:#000000;cursor:default;font-size:11px;fill:#000000;" text-anchor="end" transform="translate(0,0)" y="157" opacity="1"><tspan>2 500</tspan></text><text x="41" style="color:#000000;cursor:default;font-size:11px;fill:#000000;" text-anchor="end" transform="translate(0,0)" y="125" opacity="1"><tspan>3 000</tspan></text><text x="41" style="color:#000000;cursor:default;font-size:11px;fill:#000000;" text-anchor="end" transform="translate(0,0)" y="92" opacity="1"><tspan>3 500</tspan></text><text x="41" style="color:#000000;cursor:default;font-size:11px;fill:#000000;" text-anchor="end" transform="translate(0,0)" y="60" opacity="1"><tspan>4 000</tspan></text></g><text x="10" class="highcharts-credits" text-anchor="start" data-z-index="8" style="cursor:default;color:#000000;font-size:10px;fill:#000000;" y="403"><tspan>Quelle: Statistisches Amt Basel-Stadt, Geb채ude- und Wohnungsstatistik.</tspan><tspan x="10" dy="13">Zuletzt ge채ndert: 2020-2-19</tspan></text></svg>