<svg version="1.1" class="highcharts-root" style="font-family: Arial; font-size: 1rem;" xmlns="http://www.w3.org/2000/svg" width="600" height="400" viewBox="0 0 600 400" role="img" aria-label="Umgebaute Wohnungen"><desc>Created with Highcharts 12.5.0</desc><defs><filter id="highcharts-drop-shadow-0"><feDropShadow dx="1" dy="1" flood-color="#000000" flood-opacity="0.75" stdDeviation="2.5"></feDropShadow></filter><clipPath id="highcharts-hnr8kmc-196-"><rect x="0" y="0" width="371" height="275" fill="none"></rect></clipPath></defs><rect fill="#ffffff" class="highcharts-background" filter="none" x="0" y="0" width="600" height="400" rx="0" ry="0"></rect><rect fill="none" class="highcharts-plot-background" x="46" y="55" width="371" height="275" filter="none"></rect><g class="highcharts-pane-group" data-z-index="0"></g><g class="highcharts-grid highcharts-xaxis-grid" data-z-index="1"><path fill="none" stroke="#e6e6e6" stroke-width="0" stroke-dasharray="none" data-z-index="1" class="highcharts-grid-line" d="M 60.5 55 L 60.5 330" opacity="1"></path><path fill="none" stroke="#e6e6e6" stroke-width="0" stroke-dasharray="none" data-z-index="1" class="highcharts-grid-line" d="M 106.5 55 L 106.5 330" opacity="1"></path><path fill="none" stroke="#e6e6e6" stroke-width="0" stroke-dasharray="none" data-z-index="1" class="highcharts-grid-line" d="M 151.5 55 L 151.5 330" opacity="1"></path><path fill="none" stroke="#e6e6e6" stroke-width="0" stroke-dasharray="none" data-z-index="1" class="highcharts-grid-line" d="M 197.5 55 L 197.5 330" opacity="1"></path><path fill="none" stroke="#e6e6e6" stroke-width="0" stroke-dasharray="none" data-z-index="1" class="highcharts-grid-line" d="M 242.5 55 L 242.5 330" opacity="1"></path><path fill="none" stroke="#e6e6e6" stroke-width="0" stroke-dasharray="none" data-z-index="1" class="highcharts-grid-line" d="M 288.5 55 L 288.5 330" opacity="1"></path><path fill="none" stroke="#e6e6e6" stroke-width="0" stroke-dasharray="none" data-z-index="1" class="highcharts-grid-line" d="M 333.5 55 L 333.5 330" opacity="1"></path><path fill="none" stroke="#e6e6e6" stroke-width="0" stroke-dasharray="none" data-z-index="1" class="highcharts-grid-line" d="M 379.5 55 L 379.5 330" opacity="1"></path></g><g class="highcharts-grid highcharts-yaxis-grid" data-z-index="1"><path fill="none" stroke="#B9CFD7" stroke-width="0.5" stroke-dasharray="none" data-z-index="1" class="highcharts-grid-line" d="M 46 330.25 L 417 330.25" opacity="1"></path><path fill="none" stroke="#B9CFD7" stroke-width="0.5" stroke-dasharray="none" data-z-index="1" class="highcharts-grid-line" d="M 46 316.25 L 417 316.25" opacity="1"></path><path fill="none" stroke="#B9CFD7" stroke-width="0.5" stroke-dasharray="none" data-z-index="1" class="highcharts-grid-line" d="M 46 302.25 L 417 302.25" opacity="1"></path><path fill="none" stroke="#B9CFD7" stroke-width="0.5" stroke-dasharray="none" data-z-index="1" class="highcharts-grid-line" d="M 46 289.25 L 417 289.25" opacity="1"></path><path fill="none" stroke="#B9CFD7" stroke-width="0.5" stroke-dasharray="none" data-z-index="1" class="highcharts-grid-line" d="M 46 275.25 L 417 275.25" opacity="1"></path><path fill="none" stroke="#B9CFD7" stroke-width="0.5" stroke-dasharray="none" data-z-index="1" class="highcharts-grid-line" d="M 46 261.25 L 417 261.25" opacity="1"></path><path fill="none" stroke="#B9CFD7" stroke-width="0.5" stroke-dasharray="none" data-z-index="1" class="highcharts-grid-line" d="M 46 247.25 L 417 247.25" opacity="1"></path><path fill="none" stroke="#B9CFD7" stroke-width="0.5" stroke-dasharray="none" data-z-index="1" class="highcharts-grid-line" d="M 46 234.25 L 417 234.25" opacity="1"></path><path fill="none" stroke="#B9CFD7" stroke-width="0.5" stroke-dasharray="none" data-z-index="1" class="highcharts-grid-line" d="M 46 220.25 L 417 220.25" opacity="1"></path><path fill="none" stroke="#B9CFD7" stroke-width="0.5" stroke-dasharray="none" data-z-index="1" class="highcharts-grid-line" d="M 46 206.25 L 417 206.25" opacity="1"></path><path fill="none" stroke="#B9CFD7" stroke-width="0.5" stroke-dasharray="none" data-z-index="1" class="highcharts-grid-line" d="M 46 192.25 L 417 192.25" opacity="1"></path><path fill="none" stroke="#B9CFD7" stroke-width="0.5" stroke-dasharray="none" data-z-index="1" class="highcharts-grid-line" d="M 46 179.25 L 417 179.25" opacity="1"></path><path fill="none" stroke="#B9CFD7" stroke-width="0.5" stroke-dasharray="none" data-z-index="1" class="highcharts-grid-line" d="M 46 165.25 L 417 165.25" opacity="1"></path><path fill="none" stroke="#B9CFD7" stroke-width="0.5" stroke-dasharray="none" data-z-index="1" class="highcharts-grid-line" d="M 46 151.25 L 417 151.25" opacity="1"></path><path fill="none" stroke="#B9CFD7" stroke-width="0.5" stroke-dasharray="none" data-z-index="1" class="highcharts-grid-line" d="M 46 137.25 L 417 137.25" opacity="1"></path><path fill="none" stroke="#B9CFD7" stroke-width="0.5" stroke-dasharray="none" data-z-index="1" class="highcharts-grid-line" d="M 46 124.25 L 417 124.25" opacity="1"></path><path fill="none" stroke="#B9CFD7" stroke-width="0.5" stroke-dasharray="none" data-z-index="1" class="highcharts-grid-line" d="M 46 110.25 L 417 110.25" opacity="1"></path><path fill="none" stroke="#B9CFD7" stroke-width="0.5" stroke-dasharray="none" data-z-index="1" class="highcharts-grid-line" d="M 46 96.25 L 417 96.25" opacity="1"></path><path fill="none" stroke="#B9CFD7" stroke-width="0.5" stroke-dasharray="none" data-z-index="1" class="highcharts-grid-line" d="M 46 82.25 L 417 82.25" opacity="1"></path><path fill="none" stroke="#B9CFD7" stroke-width="0.5" stroke-dasharray="none" data-z-index="1" class="highcharts-grid-line" d="M 46 69.25 L 417 69.25" opacity="1"></path><path fill="none" stroke="#B9CFD7" stroke-width="0.5" stroke-dasharray="none" data-z-index="1" class="highcharts-grid-line" d="M 46 55.25 L 417 55.25" opacity="1"></path></g><rect fill="none" class="highcharts-plot-border" data-z-index="1" stroke="#cccccc" stroke-width="0" x="46" y="55" width="371" height="275"></rect><g class="highcharts-axis highcharts-xaxis" data-z-index="2"><path fill="none" class="highcharts-axis-line" stroke="#B9CFD7" stroke-width="0.5" data-z-index="7" d="M 46 330.25 L 417 330.25"></path></g><g class="highcharts-axis highcharts-yaxis" data-z-index="2"><path fill="none" class="highcharts-axis-line" stroke="#B9CFD7" stroke-width="0" data-z-index="7" d="M 46 55 L 46 330"></path></g><g class="highcharts-series-group" data-z-index="3" filter="none"><g class="highcharts-series highcharts-series-0 highcharts-column-series highcharts-tracker" data-z-index="0.1" opacity="1" transform="translate(46,55) scale(1 1)" clip-path="url(#highcharts-hnr8kmc-196-)"><path fill="#007a2f" d="M 12.00000005 243.00000005 L 17.00000005 243.00000005 A 3 3 0 0 1 17.00000005 243.00000005 L 17.00000005 243.00000005 A 0 0 0 0 1 17.00000005 243.00000005 L 17.00000005 243.00000005 A 0 0 0 0 1 12.00000005 243.00000005 L 12.00000005 243.00000005 A 3 3 0 0 1 12.00000005 243.00000005 Z" stroke="#ffffff" stroke-width="1e-7" opacity="1" filter="none" class="highcharts-point"></path><path fill="#007a2f" d="M 35.00000005 247.00000005 L 40.00000005 247.00000005 A 3 3 0 0 1 40.00000005 247.00000005 L 40.00000005 247.00000005 A 0 0 0 0 1 40.00000005 247.00000005 L 40.00000005 247.00000005 A 0 0 0 0 1 35.00000005 247.00000005 L 35.00000005 247.00000005 A 3 3 0 0 1 35.00000005 247.00000005 Z" stroke="#ffffff" stroke-width="1e-7" opacity="1" filter="none" class="highcharts-point"></path><path fill="#007a2f" d="M 58.00000005 247.00000005 L 63.00000005 247.00000005 A 3 3 0 0 1 63.00000005 247.00000005 L 63.00000005 247.00000005 A 0 0 0 0 1 63.00000005 247.00000005 L 63.00000005 247.00000005 A 0 0 0 0 1 58.00000005 247.00000005 L 58.00000005 247.00000005 A 3 3 0 0 1 58.00000005 247.00000005 Z" stroke="#ffffff" stroke-width="1e-7" opacity="1" filter="none" class="highcharts-point"></path><path fill="#007a2f" d="M 81.00000005 246.00000005 L 86.00000005 246.00000005 A 3 3 0 0 1 86.00000005 246.00000005 L 86.00000005 246.00000005 A 0 0 0 0 1 86.00000005 246.00000005 L 86.00000005 246.00000005 A 0 0 0 0 1 81.00000005 246.00000005 L 81.00000005 246.00000005 A 3 3 0 0 1 81.00000005 246.00000005 Z" stroke="#ffffff" stroke-width="1e-7" opacity="1" filter="none" class="highcharts-point"></path><path fill="#007a2f" d="M 103.00000005 239.00000005 L 108.00000005 239.00000005 A 3 3 0 0 1 108.00000005 239.00000005 L 108.00000005 239.00000005 A 0 0 0 0 1 108.00000005 239.00000005 L 108.00000005 239.00000005 A 0 0 0 0 1 103.00000005 239.00000005 L 103.00000005 239.00000005 A 3 3 0 0 1 103.00000005 239.00000005 Z" stroke="#ffffff" stroke-width="1e-7" opacity="1" filter="none" class="highcharts-point"></path><path fill="#007a2f" d="M 126.00000005 245.00000005 L 131.00000005 245.00000005 A 3 3 0 0 1 131.00000005 245.00000005 L 131.00000005 245.00000005 A 0 0 0 0 1 131.00000005 245.00000005 L 131.00000005 245.00000005 A 0 0 0 0 1 126.00000005 245.00000005 L 126.00000005 245.00000005 A 3 3 0 0 1 126.00000005 245.00000005 Z" stroke="#ffffff" stroke-width="1e-7" opacity="1" filter="none" class="highcharts-point"></path><path fill="#007a2f" d="M 149.00000005 245.00000005 L 154.00000005 245.00000005 A 3 3 0 0 1 154.00000005 245.00000005 L 154.00000005 245.00000005 A 0 0 0 0 1 154.00000005 245.00000005 L 154.00000005 245.00000005 A 0 0 0 0 1 149.00000005 245.00000005 L 149.00000005 245.00000005 A 3 3 0 0 1 149.00000005 245.00000005 Z" stroke="#ffffff" stroke-width="1e-7" opacity="1" filter="none" class="highcharts-point"></path><path fill="#007a2f" d="M 172.00000005 247.00000005 L 177.00000005 247.00000005 A 3 3 0 0 1 177.00000005 247.00000005 L 177.00000005 247.00000005 A 0 0 0 0 1 177.00000005 247.00000005 L 177.00000005 247.00000005 A 0 0 0 0 1 172.00000005 247.00000005 L 172.00000005 247.00000005 A 3 3 0 0 1 172.00000005 247.00000005 Z" stroke="#ffffff" stroke-width="1e-7" opacity="1" filter="none" class="highcharts-point"></path><path fill="#007a2f" d="M 194.00000005 241.00000005 L 199.00000005 241.00000005 A 3 3 0 0 1 201.2360680274998 242.00000005 L 201.2360680274998 242.00000005 A 0 0 0 0 1 201.2360680274998 242.00000005 L 201.2360680274998 242.00000005 A 0 0 0 0 1 191.7639320725002 242.00000005 L 191.7639320725002 242.00000005 A 3 3 0 0 1 194.00000005 241.00000005 Z" stroke="#ffffff" stroke-width="1e-7" opacity="1" filter="none" class="highcharts-point"></path><path fill="#007a2f" d="M 217.00000005 247.00000005 L 222.00000005 247.00000005 A 3 3 0 0 1 222.00000005 247.00000005 L 222.00000005 247.00000005 A 0 0 0 0 1 222.00000005 247.00000005 L 222.00000005 247.00000005 A 0 0 0 0 1 217.00000005 247.00000005 L 217.00000005 247.00000005 A 3 3 0 0 1 217.00000005 247.00000005 Z" stroke="#ffffff" stroke-width="1e-7" opacity="1" filter="none" class="highcharts-point"></path><path fill="#007a2f" d="M 240.00000005 243.00000005 L 245.00000005 243.00000005 A 3 3 0 0 1 245.00000005 243.00000005 L 245.00000005 243.00000005 A 0 0 0 0 1 245.00000005 243.00000005 L 245.00000005 243.00000005 A 0 0 0 0 1 240.00000005 243.00000005 L 240.00000005 243.00000005 A 3 3 0 0 1 240.00000005 243.00000005 Z" stroke="#ffffff" stroke-width="1e-7" opacity="1" filter="none" class="highcharts-point"></path><path fill="#007a2f" d="M 263.00000005 137.00000005 L 268.00000005 137.00000005 A 3 3 0 0 1 271.00000005 140.00000005 L 271.00000005 247.00000005 A 0 0 0 0 1 271.00000005 247.00000005 L 260.00000005 247.00000005 A 0 0 0 0 1 260.00000005 247.00000005 L 260.00000005 140.00000005 A 3 3 0 0 1 263.00000005 137.00000005 Z" stroke="#ffffff" stroke-width="1e-7" opacity="1" filter="none" class="highcharts-point"></path><path fill="#007a2f" d="M 285.00000005 245.00000005 L 290.00000005 245.00000005 A 3 3 0 0 1 290.00000005 245.00000005 L 290.00000005 245.00000005 A 0 0 0 0 1 290.00000005 245.00000005 L 290.00000005 245.00000005 A 0 0 0 0 1 285.00000005 245.00000005 L 285.00000005 245.00000005 A 3 3 0 0 1 285.00000005 245.00000005 Z" stroke="#ffffff" stroke-width="1e-7" opacity="1" filter="none" class="highcharts-point"></path><path fill="#007a2f" d="M 308.00000005 243.00000005 L 313.00000005 243.00000005 A 3 3 0 0 1 313.00000005 243.00000005 L 313.00000005 243.00000005 A 0 0 0 0 1 313.00000005 243.00000005 L 313.00000005 243.00000005 A 0 0 0 0 1 308.00000005 243.00000005 L 308.00000005 243.00000005 A 3 3 0 0 1 308.00000005 243.00000005 Z" stroke="#ffffff" stroke-width="1e-7" opacity="1" filter="none" class="highcharts-point"></path><path fill="#007a2f" d="M 331.00000005 19.00000005 L 336.00000005 19.00000005 A 3 3 0 0 1 336.00000005 19.00000005 L 336.00000005 19.00000005 A 0 0 0 0 1 336.00000005 19.00000005 L 336.00000005 19.00000005 A 0 0 0 0 1 331.00000005 19.00000005 L 331.00000005 19.00000005 A 3 3 0 0 1 331.00000005 19.00000005 Z" stroke="#ffffff" stroke-width="1e-7" opacity="1" filter="none" class="highcharts-point"></path><path fill="#007a2f" d="M 354.00000005 234.00000005 L 359.00000005 234.00000005 A 3 3 0 0 1 359.00000005 234.00000005 L 359.00000005 234.00000005 A 0 0 0 0 1 359.00000005 234.00000005 L 359.00000005 234.00000005 A 0 0 0 0 1 354.00000005 234.00000005 L 354.00000005 234.00000005 A 3 3 0 0 1 354.00000005 234.00000005 Z" stroke="#ffffff" stroke-width="1e-7" opacity="1" filter="none" class="highcharts-point"></path></g><g class="highcharts-markers highcharts-series-0 highcharts-column-series" data-z-index="0.1" opacity="1" transform="translate(46,55) scale(1 1)" clip-path="none"></g><g class="highcharts-series highcharts-series-1 highcharts-column-series highcharts-tracker" data-z-index="0.1" opacity="1" transform="translate(46,55) scale(1 1)" clip-path="url(#highcharts-hnr8kmc-196-)"><path fill="#2f656b" d="M 12.00000005 243.00000005 L 17.00000005 243.00000005 A 3 3 0 0 1 20.00000005 246.00000005 L 20.00000005 247.00000005 A 0 0 0 0 1 20.00000005 247.00000005 L 9.00000005 247.00000005 A 0 0 0 0 1 9.00000005 247.00000005 L 9.00000005 246.00000005 A 3 3 0 0 1 12.00000005 243.00000005 Z" stroke="#ffffff" stroke-width="1e-7" opacity="1" filter="none" class="highcharts-point"></path><path fill="#2f656b" d="M 35.00000005 247.00000005 L 40.00000005 247.00000005 A 3 3 0 0 1 40.00000005 247.00000005 L 40.00000005 247.00000005 A 0 0 0 0 1 40.00000005 247.00000005 L 40.00000005 247.00000005 A 0 0 0 0 1 35.00000005 247.00000005 L 35.00000005 247.00000005 A 3 3 0 0 1 35.00000005 247.00000005 Z" stroke="#ffffff" stroke-width="1e-7" opacity="1" filter="none" class="highcharts-point"></path><path fill="#2f656b" d="M 58.00000005 247.00000005 L 63.00000005 247.00000005 A 3 3 0 0 1 63.00000005 247.00000005 L 63.00000005 247.00000005 A 0 0 0 0 1 63.00000005 247.00000005 L 63.00000005 247.00000005 A 0 0 0 0 1 58.00000005 247.00000005 L 58.00000005 247.00000005 A 3 3 0 0 1 58.00000005 247.00000005 Z" stroke="#ffffff" stroke-width="1e-7" opacity="1" filter="none" class="highcharts-point"></path><path fill="#2f656b" d="M 81.00000005 246.00000005 L 86.00000005 246.00000005 A 3 3 0 0 1 88.23606802749978 247.00000005 L 88.23606802749978 247.00000005 A 0 0 0 0 1 88.23606802749978 247.00000005 L 88.23606802749978 247.00000005 A 0 0 0 0 1 78.76393207250021 247.00000005 L 78.76393207250021 247.00000005 A 3 3 0 0 1 81.00000005 246.00000005 Z" stroke="#ffffff" stroke-width="1e-7" opacity="1" filter="none" class="highcharts-point"></path><path fill="#2f656b" d="M 103.00000005 239.00000005 L 108.00000005 239.00000005 A 3 3 0 0 1 108.00000005 239.00000005 L 108.00000005 239.00000005 A 0 0 0 0 1 108.00000005 239.00000005 L 108.00000005 239.00000005 A 0 0 0 0 1 103.00000005 239.00000005 L 103.00000005 239.00000005 A 3 3 0 0 1 103.00000005 239.00000005 Z" stroke="#ffffff" stroke-width="1e-7" opacity="1" filter="none" class="highcharts-point"></path><path fill="#2f656b" d="M 126.00000005 245.00000005 L 131.00000005 245.00000005 A 3 3 0 0 1 133.8284271747462 247.00000005 L 133.8284271747462 247.00000005 A 0 0 0 0 1 133.8284271747462 247.00000005 L 133.8284271747462 247.00000005 A 0 0 0 0 1 123.17157292525381 247.00000005 L 123.17157292525381 247.00000005 A 3 3 0 0 1 126.00000005 245.00000005 Z" stroke="#ffffff" stroke-width="1e-7" opacity="1" filter="none" class="highcharts-point"></path><path fill="#2f656b" d="M 149.00000005 245.00000005 L 154.00000005 245.00000005 A 3 3 0 0 1 156.8284271747462 247.00000005 L 156.8284271747462 247.00000005 A 0 0 0 0 1 156.8284271747462 247.00000005 L 156.8284271747462 247.00000005 A 0 0 0 0 1 146.17157292525383 247.00000005 L 146.17157292525383 247.00000005 A 3 3 0 0 1 149.00000005 245.00000005 Z" stroke="#ffffff" stroke-width="1e-7" opacity="1" filter="none" class="highcharts-point"></path><path fill="#2f656b" d="M 172.00000005 247.00000005 L 177.00000005 247.00000005 A 3 3 0 0 1 177.00000005 247.00000005 L 177.00000005 247.00000005 A 0 0 0 0 1 177.00000005 247.00000005 L 177.00000005 247.00000005 A 0 0 0 0 1 172.00000005 247.00000005 L 172.00000005 247.00000005 A 3 3 0 0 1 172.00000005 247.00000005 Z" stroke="#ffffff" stroke-width="1e-7" opacity="1" filter="none" class="highcharts-point"></path><path fill="#2f656b" d="M 191.7639320725002 242.00000005 L 201.2360680274998 242.00000005 A 3 3 0 0 1 201.2360680274998 242.00000005 L 201.2360680274998 242.00000005 A 0 0 0 0 1 201.2360680274998 242.00000005 L 201.2360680274998 242.00000005 A 0 0 0 0 1 191.7639320725002 242.00000005 L 191.7639320725002 242.00000005 A 3 3 0 0 1 191.7639320725002 242.00000005 Z" stroke="#ffffff" stroke-width="1e-7" opacity="1" filter="none" class="highcharts-point"></path><path fill="#2f656b" d="M 217.00000005 247.00000005 L 222.00000005 247.00000005 A 3 3 0 0 1 222.00000005 247.00000005 L 222.00000005 247.00000005 A 0 0 0 0 1 222.00000005 247.00000005 L 222.00000005 247.00000005 A 0 0 0 0 1 217.00000005 247.00000005 L 217.00000005 247.00000005 A 3 3 0 0 1 217.00000005 247.00000005 Z" stroke="#ffffff" stroke-width="1e-7" opacity="1" filter="none" class="highcharts-point"></path><path fill="#2f656b" d="M 240.00000005 243.00000005 L 245.00000005 243.00000005 A 3 3 0 0 1 245.00000005 243.00000005 L 245.00000005 243.00000005 A 0 0 0 0 1 245.00000005 243.00000005 L 245.00000005 243.00000005 A 0 0 0 0 1 240.00000005 243.00000005 L 240.00000005 243.00000005 A 3 3 0 0 1 240.00000005 243.00000005 Z" stroke="#ffffff" stroke-width="1e-7" opacity="1" filter="none" class="highcharts-point"></path><path fill="#2f656b" d="M 260.00000005 247.00000005 L 271.00000005 247.00000005 A 0 0 0 0 1 271.00000005 247.00000005 L 271.00000005 247.00000005 A 0 0 0 0 1 271.00000005 247.00000005 L 260.00000005 247.00000005 A 0 0 0 0 1 260.00000005 247.00000005 L 260.00000005 247.00000005 A 0 0 0 0 1 260.00000005 247.00000005 Z" stroke="#ffffff" stroke-width="1e-7" opacity="1" filter="none" class="highcharts-point"></path><path fill="#2f656b" d="M 285.00000005 245.00000005 L 290.00000005 245.00000005 A 3 3 0 0 1 290.00000005 245.00000005 L 290.00000005 245.00000005 A 0 0 0 0 1 290.00000005 245.00000005 L 290.00000005 245.00000005 A 0 0 0 0 1 285.00000005 245.00000005 L 285.00000005 245.00000005 A 3 3 0 0 1 285.00000005 245.00000005 Z" stroke="#ffffff" stroke-width="1e-7" opacity="1" filter="none" class="highcharts-point"></path><path fill="#2f656b" d="M 308.00000005 243.00000005 L 313.00000005 243.00000005 A 3 3 0 0 1 316.00000005 246.00000005 L 316.00000005 246.00000005 A 0 0 0 0 1 316.00000005 246.00000005 L 305.00000005 246.00000005 A 0 0 0 0 1 305.00000005 246.00000005 L 305.00000005 246.00000005 A 3 3 0 0 1 308.00000005 243.00000005 Z" stroke="#ffffff" stroke-width="1e-7" opacity="1" filter="none" class="highcharts-point"></path><path fill="#2f656b" d="M 331.00000005 19.00000005 L 336.00000005 19.00000005 A 3 3 0 0 1 339.00000005 22.00000005 L 339.00000005 32.00000005 A 0 0 0 0 1 339.00000005 32.00000005 L 328.00000005 32.00000005 A 0 0 0 0 1 328.00000005 32.00000005 L 328.00000005 22.00000005 A 3 3 0 0 1 331.00000005 19.00000005 Z" stroke="#ffffff" stroke-width="1e-7" opacity="1" filter="none" class="highcharts-point"></path><path fill="#2f656b" d="M 354.00000005 234.00000005 L 359.00000005 234.00000005 A 3 3 0 0 1 362.00000005 237.00000005 L 362.00000005 239.00000005 A 0 0 0 0 1 362.00000005 239.00000005 L 351.00000005 239.00000005 A 0 0 0 0 1 351.00000005 239.00000005 L 351.00000005 237.00000005 A 3 3 0 0 1 354.00000005 234.00000005 Z" stroke="#ffffff" stroke-width="1e-7" opacity="1" filter="none" class="highcharts-point"></path></g><g class="highcharts-markers highcharts-series-1 highcharts-column-series" data-z-index="0.1" opacity="1" transform="translate(46,55) scale(1 1)" clip-path="none"></g><g class="highcharts-series highcharts-series-2 highcharts-column-series highcharts-tracker" data-z-index="0.1" opacity="1" transform="translate(46,55) scale(1 1)" clip-path="url(#highcharts-hnr8kmc-196-)"><path fill="#68ab2b" d="M 9.00000005 247.00000005 L 20.00000005 247.00000005 A 0 0 0 0 1 20.00000005 247.00000005 L 20.00000005 247.00000005 A 3 3 0 0 1 17.00000005 250.00000005 L 12.00000005 250.00000005 A 3 3 0 0 1 9.00000005 247.00000005 L 9.00000005 247.00000005 A 0 0 0 0 1 9.00000005 247.00000005 Z" stroke="#ffffff" stroke-width="1e-7" opacity="1" filter="none" class="highcharts-point highcharts-negative"></path><path fill="#68ab2b" d="M 32.00000005 247.00000005 L 43.00000005 247.00000005 A 0 0 0 0 1 43.00000005 247.00000005 L 43.00000005 247.00000005 A 3 3 0 0 1 40.00000005 250.00000005 L 35.00000005 250.00000005 A 3 3 0 0 1 32.00000005 247.00000005 L 32.00000005 247.00000005 A 0 0 0 0 1 32.00000005 247.00000005 Z" stroke="#ffffff" stroke-width="1e-7" opacity="1" filter="none" class="highcharts-point highcharts-negative"></path><path fill="#68ab2b" d="M 58.00000005 247.00000005 L 63.00000005 247.00000005 A 3 3 0 0 1 63.00000005 247.00000005 L 63.00000005 247.00000005 A 0 0 0 0 1 63.00000005 247.00000005 L 63.00000005 247.00000005 A 0 0 0 0 1 58.00000005 247.00000005 L 58.00000005 247.00000005 A 3 3 0 0 1 58.00000005 247.00000005 Z" stroke="#ffffff" stroke-width="1e-7" opacity="1" filter="none" class="highcharts-point"></path><path fill="#68ab2b" d="M 78.00000005 247.00000005 L 89.00000005 247.00000005 A 0 0 0 0 1 89.00000005 247.00000005 L 89.00000005 257.00000005 A 3 3 0 0 1 86.00000005 260.00000005 L 81.00000005 260.00000005 A 3 3 0 0 1 78.00000005 257.00000005 L 78.00000005 247.00000005 A 0 0 0 0 1 78.00000005 247.00000005 Z" stroke="#ffffff" stroke-width="1e-7" opacity="1" filter="none" class="highcharts-point highcharts-negative"></path><path fill="#68ab2b" d="M 103.00000005 239.00000005 L 108.00000005 239.00000005 A 3 3 0 0 1 111.00000005 242.00000005 L 111.00000005 247.00000005 A 0 0 0 0 1 111.00000005 247.00000005 L 100.00000005 247.00000005 A 0 0 0 0 1 100.00000005 247.00000005 L 100.00000005 242.00000005 A 3 3 0 0 1 103.00000005 239.00000005 Z" stroke="#ffffff" stroke-width="1e-7" opacity="1" filter="none" class="highcharts-point"></path><path fill="#68ab2b" d="M 123.17157292525381 247.00000005 L 133.8284271747462 247.00000005 A 3 3 0 0 1 133.8284271747462 247.00000005 L 133.8284271747462 247.00000005 A 0 0 0 0 1 133.8284271747462 247.00000005 L 133.8284271747462 247.00000005 A 0 0 0 0 1 123.17157292525381 247.00000005 L 123.17157292525381 247.00000005 A 3 3 0 0 1 123.17157292525381 247.00000005 Z" stroke="#ffffff" stroke-width="1e-7" opacity="1" filter="none" class="highcharts-point"></path><path fill="#68ab2b" d="M 146.00000005 247.00000005 L 157.00000005 247.00000005 A 0 0 0 0 1 157.00000005 247.00000005 L 157.00000005 247.00000005 A 3 3 0 0 1 154.00000005 250.00000005 L 149.00000005 250.00000005 A 3 3 0 0 1 146.00000005 247.00000005 L 146.00000005 247.00000005 A 0 0 0 0 1 146.00000005 247.00000005 Z" stroke="#ffffff" stroke-width="1e-7" opacity="1" filter="none" class="highcharts-point highcharts-negative"></path><path fill="#68ab2b" d="M 172.00000005 247.00000005 L 177.00000005 247.00000005 A 3 3 0 0 1 177.00000005 247.00000005 L 177.00000005 247.00000005 A 0 0 0 0 1 177.00000005 247.00000005 L 177.00000005 247.00000005 A 0 0 0 0 1 172.00000005 247.00000005 L 172.00000005 247.00000005 A 3 3 0 0 1 172.00000005 247.00000005 Z" stroke="#ffffff" stroke-width="1e-7" opacity="1" filter="none" class="highcharts-point"></path><path fill="#68ab2b" d="M 191.7639320725002 242.00000005 L 201.2360680274998 242.00000005 A 3 3 0 0 1 202.00000005 244.00000005 L 202.00000005 247.00000005 A 0 0 0 0 1 202.00000005 247.00000005 L 191.00000005 247.00000005 A 0 0 0 0 1 191.00000005 247.00000005 L 191.00000005 244.00000005 A 3 3 0 0 1 191.7639320725002 242.00000005 Z" stroke="#ffffff" stroke-width="1e-7" opacity="1" filter="none" class="highcharts-point"></path><path fill="#68ab2b" d="M 217.00000005 247.00000005 L 222.00000005 247.00000005 A 3 3 0 0 1 222.00000005 247.00000005 L 222.00000005 247.00000005 A 0 0 0 0 1 222.00000005 247.00000005 L 222.00000005 247.00000005 A 0 0 0 0 1 217.00000005 247.00000005 L 217.00000005 247.00000005 A 3 3 0 0 1 217.00000005 247.00000005 Z" stroke="#ffffff" stroke-width="1e-7" opacity="1" filter="none" class="highcharts-point"></path><path fill="#68ab2b" d="M 240.00000005 243.00000005 L 245.00000005 243.00000005 A 3 3 0 0 1 245.00000005 243.00000005 L 245.00000005 243.00000005 A 0 0 0 0 1 245.00000005 243.00000005 L 245.00000005 243.00000005 A 0 0 0 0 1 240.00000005 243.00000005 L 240.00000005 243.00000005 A 3 3 0 0 1 240.00000005 243.00000005 Z" stroke="#ffffff" stroke-width="1e-7" opacity="1" filter="none" class="highcharts-point"></path><path fill="#68ab2b" d="M 260.00000005 247.00000005 L 271.00000005 247.00000005 A 0 0 0 0 1 271.00000005 247.00000005 L 271.00000005 247.00000005 A 0 0 0 0 1 271.00000005 247.00000005 L 260.00000005 247.00000005 A 0 0 0 0 1 260.00000005 247.00000005 L 260.00000005 247.00000005 A 0 0 0 0 1 260.00000005 247.00000005 Z" stroke="#ffffff" stroke-width="1e-7" opacity="1" filter="none" class="highcharts-point"></path><path fill="#68ab2b" d="M 285.00000005 245.00000005 L 290.00000005 245.00000005 A 3 3 0 0 1 292.23606802749975 246.00000005 L 292.23606802749975 246.00000005 A 0 0 0 0 1 292.23606802749975 246.00000005 L 292.23606802749975 246.00000005 A 0 0 0 0 1 282.7639320725002 246.00000005 L 282.7639320725002 246.00000005 A 3 3 0 0 1 285.00000005 245.00000005 Z" stroke="#ffffff" stroke-width="1e-7" opacity="1" filter="none" class="highcharts-point"></path><path fill="#68ab2b" d="M 305.00000005 246.00000005 L 316.00000005 246.00000005 A 0 0 0 0 1 316.00000005 246.00000005 L 316.00000005 246.00000005 A 0 0 0 0 1 316.00000005 246.00000005 L 305.00000005 246.00000005 A 0 0 0 0 1 305.00000005 246.00000005 L 305.00000005 246.00000005 A 0 0 0 0 1 305.00000005 246.00000005 Z" stroke="#ffffff" stroke-width="1e-7" opacity="1" filter="none" class="highcharts-point"></path><path fill="#68ab2b" d="M 328.00000005 32.00000005 L 339.00000005 32.00000005 A 0 0 0 0 1 339.00000005 32.00000005 L 339.00000005 32.00000005 A 0 0 0 0 1 339.00000005 32.00000005 L 328.00000005 32.00000005 A 0 0 0 0 1 328.00000005 32.00000005 L 328.00000005 32.00000005 A 0 0 0 0 1 328.00000005 32.00000005 Z" stroke="#ffffff" stroke-width="1e-7" opacity="1" filter="none" class="highcharts-point"></path><path fill="#68ab2b" d="M 351.00000005 239.00000005 L 362.00000005 239.00000005 A 0 0 0 0 1 362.00000005 239.00000005 L 362.00000005 247.00000005 A 0 0 0 0 1 362.00000005 247.00000005 L 351.00000005 247.00000005 A 0 0 0 0 1 351.00000005 247.00000005 L 351.00000005 239.00000005 A 0 0 0 0 1 351.00000005 239.00000005 Z" stroke="#ffffff" stroke-width="1e-7" opacity="1" filter="none" class="highcharts-point"></path></g><g class="highcharts-markers highcharts-series-2 highcharts-column-series" data-z-index="0.1" opacity="1" transform="translate(46,55) scale(1 1)" clip-path="none"></g><g class="highcharts-series highcharts-series-3 highcharts-column-series highcharts-tracker" data-z-index="0.1" opacity="1" transform="translate(46,55) scale(1 1)" clip-path="url(#highcharts-hnr8kmc-196-)"><path fill="#73b97c" d="M 9.00000005 247.00000005 L 20.00000005 247.00000005 A 0 0 0 0 1 20.00000005 247.00000005 L 20.00000005 247.00000005 A 0 0 0 0 1 20.00000005 247.00000005 L 9.00000005 247.00000005 A 0 0 0 0 1 9.00000005 247.00000005 L 9.00000005 247.00000005 A 0 0 0 0 1 9.00000005 247.00000005 Z" stroke="#ffffff" stroke-width="1e-7" opacity="1" filter="none" class="highcharts-point"></path><path fill="#73b97c" d="M 35.00000005 247.00000005 L 40.00000005 247.00000005 A 3 3 0 0 1 40.00000005 247.00000005 L 40.00000005 247.00000005 A 0 0 0 0 1 40.00000005 247.00000005 L 40.00000005 247.00000005 A 0 0 0 0 1 35.00000005 247.00000005 L 35.00000005 247.00000005 A 3 3 0 0 1 35.00000005 247.00000005 Z" stroke="#ffffff" stroke-width="1e-7" opacity="1" filter="none" class="highcharts-point"></path><path fill="#73b97c" d="M 58.00000005 247.00000005 L 63.00000005 247.00000005 A 3 3 0 0 1 63.00000005 247.00000005 L 63.00000005 247.00000005 A 0 0 0 0 1 63.00000005 247.00000005 L 63.00000005 247.00000005 A 0 0 0 0 1 58.00000005 247.00000005 L 58.00000005 247.00000005 A 3 3 0 0 1 58.00000005 247.00000005 Z" stroke="#ffffff" stroke-width="1e-7" opacity="1" filter="none" class="highcharts-point"></path><path fill="#73b97c" d="M 78.76393207250021 247.00000005 L 88.23606802749978 247.00000005 A 3 3 0 0 1 88.23606802749978 247.00000005 L 88.23606802749978 247.00000005 A 0 0 0 0 1 88.23606802749978 247.00000005 L 88.23606802749978 247.00000005 A 0 0 0 0 1 78.76393207250021 247.00000005 L 78.76393207250021 247.00000005 A 3 3 0 0 1 78.76393207250021 247.00000005 Z" stroke="#ffffff" stroke-width="1e-7" opacity="1" filter="none" class="highcharts-point"></path><path fill="#73b97c" d="M 100.00000005 247.00000005 L 111.00000005 247.00000005 A 0 0 0 0 1 111.00000005 247.00000005 L 111.00000005 247.00000005 A 0 0 0 0 1 111.00000005 247.00000005 L 100.00000005 247.00000005 A 0 0 0 0 1 100.00000005 247.00000005 L 100.00000005 247.00000005 A 0 0 0 0 1 100.00000005 247.00000005 Z" stroke="#ffffff" stroke-width="1e-7" opacity="1" filter="none" class="highcharts-point"></path><path fill="#73b97c" d="M 123.17157292525381 247.00000005 L 133.8284271747462 247.00000005 A 3 3 0 0 1 133.8284271747462 247.00000005 L 133.8284271747462 247.00000005 A 0 0 0 0 1 133.8284271747462 247.00000005 L 133.8284271747462 247.00000005 A 0 0 0 0 1 123.17157292525381 247.00000005 L 123.17157292525381 247.00000005 A 3 3 0 0 1 123.17157292525381 247.00000005 Z" stroke="#ffffff" stroke-width="1e-7" opacity="1" filter="none" class="highcharts-point"></path><path fill="#73b97c" d="M 146.17157292525383 247.00000005 L 156.8284271747462 247.00000005 A 3 3 0 0 1 156.8284271747462 247.00000005 L 156.8284271747462 247.00000005 A 0 0 0 0 1 156.8284271747462 247.00000005 L 156.8284271747462 247.00000005 A 0 0 0 0 1 146.17157292525383 247.00000005 L 146.17157292525383 247.00000005 A 3 3 0 0 1 146.17157292525383 247.00000005 Z" stroke="#ffffff" stroke-width="1e-7" opacity="1" filter="none" class="highcharts-point"></path><path fill="#73b97c" d="M 172.00000005 247.00000005 L 177.00000005 247.00000005 A 3 3 0 0 1 177.00000005 247.00000005 L 177.00000005 247.00000005 A 0 0 0 0 1 177.00000005 247.00000005 L 177.00000005 247.00000005 A 0 0 0 0 1 172.00000005 247.00000005 L 172.00000005 247.00000005 A 3 3 0 0 1 172.00000005 247.00000005 Z" stroke="#ffffff" stroke-width="1e-7" opacity="1" filter="none" class="highcharts-point"></path><path fill="#73b97c" d="M 191.00000005 247.00000005 L 202.00000005 247.00000005 A 0 0 0 0 1 202.00000005 247.00000005 L 202.00000005 247.00000005 A 0 0 0 0 1 202.00000005 247.00000005 L 191.00000005 247.00000005 A 0 0 0 0 1 191.00000005 247.00000005 L 191.00000005 247.00000005 A 0 0 0 0 1 191.00000005 247.00000005 Z" stroke="#ffffff" stroke-width="1e-7" opacity="1" filter="none" class="highcharts-point"></path><path fill="#73b97c" d="M 217.00000005 247.00000005 L 222.00000005 247.00000005 A 3 3 0 0 1 222.00000005 247.00000005 L 222.00000005 247.00000005 A 0 0 0 0 1 222.00000005 247.00000005 L 222.00000005 247.00000005 A 0 0 0 0 1 217.00000005 247.00000005 L 217.00000005 247.00000005 A 3 3 0 0 1 217.00000005 247.00000005 Z" stroke="#ffffff" stroke-width="1e-7" opacity="1" filter="none" class="highcharts-point"></path><path fill="#73b97c" d="M 240.00000005 243.00000005 L 245.00000005 243.00000005 A 3 3 0 0 1 248.00000005 246.00000005 L 248.00000005 247.00000005 A 0 0 0 0 1 248.00000005 247.00000005 L 237.00000005 247.00000005 A 0 0 0 0 1 237.00000005 247.00000005 L 237.00000005 246.00000005 A 3 3 0 0 1 240.00000005 243.00000005 Z" stroke="#ffffff" stroke-width="1e-7" opacity="1" filter="none" class="highcharts-point"></path><path fill="#73b97c" d="M 260.00000005 247.00000005 L 271.00000005 247.00000005 A 0 0 0 0 1 271.00000005 247.00000005 L 271.00000005 247.00000005 A 0 0 0 0 1 271.00000005 247.00000005 L 260.00000005 247.00000005 A 0 0 0 0 1 260.00000005 247.00000005 L 260.00000005 247.00000005 A 0 0 0 0 1 260.00000005 247.00000005 Z" stroke="#ffffff" stroke-width="1e-7" opacity="1" filter="none" class="highcharts-point"></path><path fill="#73b97c" d="M 282.7639320725002 246.00000005 L 292.23606802749975 246.00000005 A 3 3 0 0 1 292.8284271747462 247.00000005 L 292.8284271747462 247.00000005 A 0 0 0 0 1 292.8284271747462 247.00000005 L 292.8284271747462 247.00000005 A 0 0 0 0 1 282.17157292525377 247.00000005 L 282.17157292525377 247.00000005 A 3 3 0 0 1 282.7639320725002 246.00000005 Z" stroke="#ffffff" stroke-width="1e-7" opacity="1" filter="none" class="highcharts-point"></path><path fill="#73b97c" d="M 305.00000005 246.00000005 L 316.00000005 246.00000005 A 0 0 0 0 1 316.00000005 246.00000005 L 316.00000005 247.00000005 A 0 0 0 0 1 316.00000005 247.00000005 L 305.00000005 247.00000005 A 0 0 0 0 1 305.00000005 247.00000005 L 305.00000005 246.00000005 A 0 0 0 0 1 305.00000005 246.00000005 Z" stroke="#ffffff" stroke-width="1e-7" opacity="1" filter="none" class="highcharts-point"></path><path fill="#73b97c" d="M 328.00000005 32.00000005 L 339.00000005 32.00000005 A 0 0 0 0 1 339.00000005 32.00000005 L 339.00000005 247.00000004999998 A 0 0 0 0 1 339.00000005 247.00000004999998 L 328.00000005 247.00000004999998 A 0 0 0 0 1 328.00000005 247.00000004999998 L 328.00000005 32.00000005 A 0 0 0 0 1 328.00000005 32.00000005 Z" stroke="#ffffff" stroke-width="1e-7" opacity="1" filter="none" class="highcharts-point"></path><path fill="#73b97c" d="M 351.00000005 247.00000005 L 362.00000005 247.00000005 A 0 0 0 0 1 362.00000005 247.00000005 L 362.00000005 247.00000005 A 0 0 0 0 1 362.00000005 247.00000005 L 351.00000005 247.00000005 A 0 0 0 0 1 351.00000005 247.00000005 L 351.00000005 247.00000005 A 0 0 0 0 1 351.00000005 247.00000005 Z" stroke="#ffffff" stroke-width="1e-7" opacity="1" filter="none" class="highcharts-point"></path></g><g class="highcharts-markers highcharts-series-3 highcharts-column-series" data-z-index="0.1" opacity="1" transform="translate(46,55) scale(1 1)" clip-path="none"></g><g class="highcharts-series highcharts-series-4 highcharts-column-series highcharts-tracker" data-z-index="0.1" opacity="1" transform="translate(46,55) scale(1 1)" clip-path="url(#highcharts-hnr8kmc-196-)"><path fill="#990300" d="M 9.00000005 247.00000005 L 20.00000005 247.00000005 A 0 0 0 0 1 20.00000005 247.00000005 L 20.00000005 247.00000005 A 0 0 0 0 1 20.00000005 247.00000005 L 9.00000005 247.00000005 A 0 0 0 0 1 9.00000005 247.00000005 L 9.00000005 247.00000005 A 0 0 0 0 1 9.00000005 247.00000005 Z" stroke="#ffffff" stroke-width="1e-7" opacity="1" filter="none" class="highcharts-point"></path><path fill="#990300" d="M 35.00000005 247.00000005 L 40.00000005 247.00000005 A 3 3 0 0 1 40.00000005 247.00000005 L 40.00000005 247.00000005 A 0 0 0 0 1 40.00000005 247.00000005 L 40.00000005 247.00000005 A 0 0 0 0 1 35.00000005 247.00000005 L 35.00000005 247.00000005 A 3 3 0 0 1 35.00000005 247.00000005 Z" stroke="#ffffff" stroke-width="1e-7" opacity="1" filter="none" class="highcharts-point"></path><path fill="#990300" d="M 58.00000005 247.00000005 L 63.00000005 247.00000005 A 3 3 0 0 1 63.00000005 247.00000005 L 63.00000005 247.00000005 A 0 0 0 0 1 63.00000005 247.00000005 L 63.00000005 247.00000005 A 0 0 0 0 1 58.00000005 247.00000005 L 58.00000005 247.00000005 A 3 3 0 0 1 58.00000005 247.00000005 Z" stroke="#ffffff" stroke-width="1e-7" opacity="1" filter="none" class="highcharts-point"></path><path fill="#990300" d="M 78.76393207250021 247.00000005 L 88.23606802749978 247.00000005 A 3 3 0 0 1 88.23606802749978 247.00000005 L 88.23606802749978 247.00000005 A 0 0 0 0 1 88.23606802749978 247.00000005 L 88.23606802749978 247.00000005 A 0 0 0 0 1 78.76393207250021 247.00000005 L 78.76393207250021 247.00000005 A 3 3 0 0 1 78.76393207250021 247.00000005 Z" stroke="#ffffff" stroke-width="1e-7" opacity="1" filter="none" class="highcharts-point"></path><path fill="#990300" d="M 110.82842717474618 247.00000005 L 110.82842717474618 247.00000005 A 0 0 0 0 1 110.82842717474618 247.00000005 L 110.82842717474618 247.00000005 A 3 3 0 0 1 108.00000005 249.00000005 L 103.00000005 249.00000005 A 3 3 0 0 1 100.17157292525381 247.00000005 L 100.17157292525381 247.00000005 A 0 0 0 0 1 110.82842717474618 247.00000005 Z" stroke="#ffffff" stroke-width="1e-7" opacity="1" filter="none" class="highcharts-point highcharts-negative"></path><path fill="#990300" d="M 123.17157292525381 247.00000005 L 133.8284271747462 247.00000005 A 3 3 0 0 1 133.8284271747462 247.00000005 L 133.8284271747462 247.00000005 A 0 0 0 0 1 133.8284271747462 247.00000005 L 133.8284271747462 247.00000005 A 0 0 0 0 1 123.17157292525381 247.00000005 L 123.17157292525381 247.00000005 A 3 3 0 0 1 123.17157292525381 247.00000005 Z" stroke="#ffffff" stroke-width="1e-7" opacity="1" filter="none" class="highcharts-point"></path><path fill="#990300" d="M 146.17157292525383 247.00000005 L 156.8284271747462 247.00000005 A 3 3 0 0 1 156.8284271747462 247.00000005 L 156.8284271747462 247.00000005 A 0 0 0 0 1 156.8284271747462 247.00000005 L 156.8284271747462 247.00000005 A 0 0 0 0 1 146.17157292525383 247.00000005 L 146.17157292525383 247.00000005 A 3 3 0 0 1 146.17157292525383 247.00000005 Z" stroke="#ffffff" stroke-width="1e-7" opacity="1" filter="none" class="highcharts-point"></path><path fill="#990300" d="M 172.00000005 247.00000005 L 177.00000005 247.00000005 A 3 3 0 0 1 177.00000005 247.00000005 L 177.00000005 247.00000005 A 0 0 0 0 1 177.00000005 247.00000005 L 177.00000005 247.00000005 A 0 0 0 0 1 172.00000005 247.00000005 L 172.00000005 247.00000005 A 3 3 0 0 1 172.00000005 247.00000005 Z" stroke="#ffffff" stroke-width="1e-7" opacity="1" filter="none" class="highcharts-point"></path><path fill="#990300" d="M 191.00000005 247.00000005 L 202.00000005 247.00000005 A 0 0 0 0 1 202.00000005 247.00000005 L 202.00000005 247.00000005 A 0 0 0 0 1 202.00000005 247.00000005 L 191.00000005 247.00000005 A 0 0 0 0 1 191.00000005 247.00000005 L 191.00000005 247.00000005 A 0 0 0 0 1 191.00000005 247.00000005 Z" stroke="#ffffff" stroke-width="1e-7" opacity="1" filter="none" class="highcharts-point"></path><path fill="#990300" d="M 217.00000005 247.00000005 L 222.00000005 247.00000005 A 3 3 0 0 1 222.00000005 247.00000005 L 222.00000005 247.00000005 A 0 0 0 0 1 222.00000005 247.00000005 L 222.00000005 247.00000005 A 0 0 0 0 1 217.00000005 247.00000005 L 217.00000005 247.00000005 A 3 3 0 0 1 217.00000005 247.00000005 Z" stroke="#ffffff" stroke-width="1e-7" opacity="1" filter="none" class="highcharts-point"></path><path fill="#990300" d="M 247.8284271747462 247.00000005 L 247.8284271747462 247.00000005 A 0 0 0 0 1 247.8284271747462 247.00000005 L 247.8284271747462 247.00000005 A 3 3 0 0 1 245.00000005 249.00000005 L 240.00000005 249.00000005 A 3 3 0 0 1 237.17157292525383 247.00000005 L 237.17157292525383 247.00000005 A 0 0 0 0 1 247.8284271747462 247.00000005 Z" stroke="#ffffff" stroke-width="1e-7" opacity="1" filter="none" class="highcharts-point highcharts-negative"></path><path fill="#990300" d="M 260.00000005 247.00000005 L 271.00000005 247.00000005 A 0 0 0 0 1 271.00000005 247.00000005 L 271.00000005 247.00000005 A 0 0 0 0 1 271.00000005 247.00000005 L 260.00000005 247.00000005 A 0 0 0 0 1 260.00000005 247.00000005 L 260.00000005 247.00000005 A 0 0 0 0 1 260.00000005 247.00000005 Z" stroke="#ffffff" stroke-width="1e-7" opacity="1" filter="none" class="highcharts-point"></path><path fill="#990300" d="M 282.17157292525377 247.00000005 L 292.8284271747462 247.00000005 A 3 3 0 0 1 292.8284271747462 247.00000005 L 292.8284271747462 247.00000005 A 0 0 0 0 1 292.8284271747462 247.00000005 L 292.8284271747462 247.00000005 A 0 0 0 0 1 282.17157292525377 247.00000005 L 282.17157292525377 247.00000005 A 3 3 0 0 1 282.17157292525377 247.00000005 Z" stroke="#ffffff" stroke-width="1e-7" opacity="1" filter="none" class="highcharts-point"></path><path fill="#990300" d="M 305.00000005 247.00000005 L 316.00000005 247.00000005 A 0 0 0 0 1 316.00000005 247.00000005 L 316.00000005 247.00000005 A 0 0 0 0 1 316.00000005 247.00000005 L 305.00000005 247.00000005 A 0 0 0 0 1 305.00000005 247.00000005 L 305.00000005 247.00000005 A 0 0 0 0 1 305.00000005 247.00000005 Z" stroke="#ffffff" stroke-width="1e-7" opacity="1" filter="none" class="highcharts-point"></path><path fill="#990300" d="M 328.00000005 247.00000005 L 339.00000005 247.00000005 A 0 0 0 0 1 339.00000005 247.00000005 L 339.00000005 247.00000005 A 0 0 0 0 1 339.00000005 247.00000005 L 328.00000005 247.00000005 A 0 0 0 0 1 328.00000005 247.00000005 L 328.00000005 247.00000005 A 0 0 0 0 1 328.00000005 247.00000005 Z" stroke="#ffffff" stroke-width="1e-7" opacity="1" filter="none" class="highcharts-point"></path><path fill="#990300" d="M 351.00000005 247.00000005 L 362.00000005 247.00000005 A 0 0 0 0 1 362.00000005 247.00000005 L 362.00000005 247.00000005 A 0 0 0 0 1 362.00000005 247.00000005 L 351.00000005 247.00000005 A 0 0 0 0 1 351.00000005 247.00000005 L 351.00000005 247.00000005 A 0 0 0 0 1 351.00000005 247.00000005 Z" stroke="#ffffff" stroke-width="1e-7" opacity="1" filter="none" class="highcharts-point"></path></g><g class="highcharts-markers highcharts-series-4 highcharts-column-series" data-z-index="0.1" opacity="1" transform="translate(46,55) scale(1 1)" clip-path="none"></g><g class="highcharts-series highcharts-series-5 highcharts-line-series" data-z-index="0.1" opacity="1" transform="translate(46,55) scale(1 1)" clip-path="url(#highcharts-hnr8kmc-196-)"><path fill="none" d="M 14.794478527609 246.125 L 37.555214723928 250.25 L 60.315950920247 247.5 L 83.076687116566 258.5 L 105.83742331288 240.625 L 128.5981595092 244.75 L 151.35889570552 247.5 L 174.11963190184 247.5 L 196.88036809816 240.625 L 219.64110429448 247.5 L 242.4018404908 244.75 L 265.16257668712 137.5 L 287.92331288343 244.75 L 310.68404907975 243.375 L 333.44478527607 19.25 L 356.20552147239 233.75" class="highcharts-graph" data-z-index="1" stroke="#fabd24" stroke-width="2" stroke-linejoin="round" stroke-linecap="round" filter="none"></path><path fill="none" d="M 14.794478527609 246.125 L 37.555214723928 250.25 L 60.315950920247 247.5 L 83.076687116566 258.5 L 105.83742331288 240.625 L 128.5981595092 244.75 L 151.35889570552 247.5 L 174.11963190184 247.5 L 196.88036809816 240.625 L 219.64110429448 247.5 L 242.4018404908 244.75 L 265.16257668712 137.5 L 287.92331288343 244.75 L 310.68404907975 243.375 L 333.44478527607 19.25 L 356.20552147239 233.75" data-z-index="2" class="highcharts-tracker-line" stroke-linecap="round" stroke-linejoin="round" stroke="rgba(192,192,192,0.0001)" stroke-width="22"></path></g><g class="highcharts-markers highcharts-series-5 highcharts-line-series highcharts-tracker" data-z-index="0.1" opacity="1" transform="translate(46,55) scale(1 1)" clip-path="none"></g></g><text x="10" text-anchor="start" class="highcharts-caption" data-z-index="4" style="font-size: 0.8em; fill: rgb(102, 102, 102);" text-align="left" y="372" transform-origin="10 15" transform="translate(0,0) scale(1 1)"></text><g class="highcharts-legend highcharts-no-tooltip" data-z-index="7" text-align="right" transform="translate(429,63)"><rect fill="none" class="highcharts-legend-box" rx="0" ry="0" stroke="#999999" stroke-width="0" filter="none" x="0" y="0" width="161" height="245"></rect><g data-z-index="1"><g><g class="highcharts-legend-item highcharts-column-series highcharts-color-undefined highcharts-series-0" data-z-index="1" transform="translate(8,3)"><text x="21" text-anchor="start" data-z-index="2" style="cursor: pointer; font-size: 0.8em; text-decoration: none; font-weight: normal; fill: rgb(51, 51, 51);" y="17">Büros zu<tspan dy="15" x="21">​</tspan>Wohnungen</text><rect x="2" y="6" rx="0" ry="0" width="12" height="12" fill="#007a2f" class="highcharts-point" data-z-index="3"></rect></g><g class="highcharts-legend-item highcharts-column-series highcharts-color-undefined highcharts-series-1" data-z-index="1" transform="translate(8,42)"><text x="21" y="17" text-anchor="start" data-z-index="2" style="cursor: pointer; font-size: 0.8em; text-decoration: none; font-weight: normal; fill: rgb(51, 51, 51);">(Dachstock-)<tspan dy="15" x="21">​</tspan>Ausbauten</text><rect x="2" y="6" rx="0" ry="0" width="12" height="12" fill="#2f656b" class="highcharts-point" data-z-index="3"></rect></g><g class="highcharts-legend-item highcharts-column-series highcharts-color-undefined highcharts-series-2" data-z-index="1" transform="translate(8,81)"><text x="21" y="17" text-anchor="start" data-z-index="2" style="cursor: pointer; font-size: 0.8em; text-decoration: none; font-weight: normal; fill: rgb(51, 51, 51);">Saldo aus<tspan dy="15" x="21">​</tspan>Zusammenlegungen/<tspan dy="15" x="21">​</tspan>Aufteilungen</text><rect x="2" y="6" rx="0" ry="0" width="12" height="12" fill="#68ab2b" class="highcharts-point" data-z-index="3"></rect></g><g class="highcharts-legend-item highcharts-column-series highcharts-color-undefined highcharts-series-3" data-z-index="1" transform="translate(8,135)"><text x="21" y="17" text-anchor="start" data-z-index="2" style="cursor: pointer; font-size: 0.8em; text-decoration: none; font-weight: normal; fill: rgb(51, 51, 51);">Sonstige<tspan dy="15" x="21">​</tspan>Umnutzungen</text><rect x="2" y="6" rx="0" ry="0" width="12" height="12" fill="#73b97c" class="highcharts-point" data-z-index="3"></rect></g><g class="highcharts-legend-item highcharts-column-series highcharts-color-undefined highcharts-series-4" data-z-index="1" transform="translate(8,174)"><text x="21" y="17" text-anchor="start" data-z-index="2" style="cursor: pointer; font-size: 0.8em; text-decoration: none; font-weight: normal; fill: rgb(51, 51, 51);">Zweckentfremdungen<tspan dy="15" x="21">​</tspan>von Wohnungen</text><rect x="2" y="6" rx="0" ry="0" width="12" height="12" fill="#990300" class="highcharts-point" data-z-index="3"></rect></g><g class="highcharts-legend-item highcharts-line-series highcharts-color-undefined highcharts-series-5" data-z-index="1" transform="translate(8,213)"><path fill="none" class="highcharts-graph" stroke-width="2" stroke-linecap="round" d="M 1 13 L 15 13" stroke="#fabd24"></path><text x="21" y="17" text-anchor="start" data-z-index="2" style="cursor: pointer; font-size: 0.8em; text-decoration: none; font-weight: normal; fill: rgb(51, 51, 51);">Umbausaldo</text></g></g></g></g><g class="highcharts-axis-labels highcharts-xaxis-labels" data-z-index="7"><text x="60.794478527609" text-anchor="middle" transform="translate(0,0)" style="cursor: default; font-size: 0.8em; fill: rgb(0, 0, 0);" y="357" opacity="1">2008</text><text x="106.31595092025" text-anchor="middle" transform="translate(0,0)" style="cursor: default; font-size: 0.8em; fill: rgb(0, 0, 0);" y="357" opacity="1">2010</text><text x="151.83742331288" text-anchor="middle" transform="translate(0,0)" style="cursor: default; font-size: 0.8em; fill: rgb(0, 0, 0);" y="357" opacity="1">2012</text><text x="197.35889570552" text-anchor="middle" transform="translate(0,0)" style="cursor: default; font-size: 0.8em; fill: rgb(0, 0, 0);" y="357" opacity="1">2014</text><text x="242.88036809816" text-anchor="middle" transform="translate(0,0)" style="cursor: default; font-size: 0.8em; fill: rgb(0, 0, 0);" y="357" opacity="1">2016</text><text x="288.4018404908" text-anchor="middle" transform="translate(0,0)" style="cursor: default; font-size: 0.8em; fill: rgb(0, 0, 0);" y="357" opacity="1">2018</text><text x="333.92331288343" text-anchor="middle" transform="translate(0,0)" style="cursor: default; font-size: 0.8em; fill: rgb(0, 0, 0);" y="357" opacity="1">2020</text><text x="379.44478527607" text-anchor="middle" transform="translate(0,0)" style="cursor: default; font-size: 0.8em; fill: rgb(0, 0, 0);" y="357" opacity="1">2022</text></g><g class="highcharts-axis-labels highcharts-yaxis-labels" data-z-index="7"><text x="31" text-anchor="end" transform="translate(0,0)" style="cursor: default; font-size: 0.8em; fill: rgb(0, 0, 0);" y="335" opacity="1">-20</text><text x="31" text-anchor="end" transform="translate(0,0)" style="cursor: default; font-size: 0.8em; fill: rgb(0, 0, 0);" y="321" opacity="1">-10</text><text x="31" text-anchor="end" transform="translate(0,0)" style="cursor: default; font-size: 0.8em; fill: rgb(0, 0, 0);" y="307" opacity="1">0</text><text x="31" text-anchor="end" transform="translate(0,0)" style="cursor: default; font-size: 0.8em; fill: rgb(0, 0, 0);" y="293" opacity="1">10</text><text x="31" text-anchor="end" transform="translate(0,0)" style="cursor: default; font-size: 0.8em; fill: rgb(0, 0, 0);" y="280" opacity="1">20</text><text x="31" text-anchor="end" transform="translate(0,0)" style="cursor: default; font-size: 0.8em; fill: rgb(0, 0, 0);" y="266" opacity="1">30</text><text x="31" text-anchor="end" transform="translate(0,0)" style="cursor: default; font-size: 0.8em; fill: rgb(0, 0, 0);" y="252" opacity="1">40</text><text x="31" text-anchor="end" transform="translate(0,0)" style="cursor: default; font-size: 0.8em; fill: rgb(0, 0, 0);" y="238" opacity="1">50</text><text x="31" text-anchor="end" transform="translate(0,0)" style="cursor: default; font-size: 0.8em; fill: rgb(0, 0, 0);" y="225" opacity="1">60</text><text x="31" text-anchor="end" transform="translate(0,0)" style="cursor: default; font-size: 0.8em; fill: rgb(0, 0, 0);" y="211" opacity="1">70</text><text x="31" text-anchor="end" transform="translate(0,0)" style="cursor: default; font-size: 0.8em; fill: rgb(0, 0, 0);" y="197" opacity="1">80</text><text x="31" text-anchor="end" transform="translate(0,0)" style="cursor: default; font-size: 0.8em; fill: rgb(0, 0, 0);" y="183" opacity="1">90</text><text x="31" text-anchor="end" transform="translate(0,0)" style="cursor: default; font-size: 0.8em; fill: rgb(0, 0, 0);" y="170" opacity="1">100</text><text x="31" text-anchor="end" transform="translate(0,0)" style="cursor: default; font-size: 0.8em; fill: rgb(0, 0, 0);" y="156" opacity="1">110</text><text x="31" text-anchor="end" transform="translate(0,0)" style="cursor: default; font-size: 0.8em; fill: rgb(0, 0, 0);" y="142" opacity="1">120</text><text x="31" text-anchor="end" transform="translate(0,0)" style="cursor: default; font-size: 0.8em; fill: rgb(0, 0, 0);" y="128" opacity="1">130</text><text x="31" text-anchor="end" transform="translate(0,0)" style="cursor: default; font-size: 0.8em; fill: rgb(0, 0, 0);" y="115" opacity="1">140</text><text x="31" text-anchor="end" transform="translate(0,0)" style="cursor: default; font-size: 0.8em; fill: rgb(0, 0, 0);" y="101" opacity="1">150</text><text x="31" text-anchor="end" transform="translate(0,0)" style="cursor: default; font-size: 0.8em; fill: rgb(0, 0, 0);" y="87" opacity="1">160</text><text x="31" text-anchor="end" transform="translate(0,0)" style="cursor: default; font-size: 0.8em; fill: rgb(0, 0, 0);" y="73" opacity="1">170</text><text x="31" text-anchor="end" transform="translate(0,0)" style="cursor: default; font-size: 0.8em; fill: rgb(0, 0, 0);" y="60" opacity="1">180</text></g></svg>