<?xml version="1.0" standalone="no"?><!DOCTYPE svg PUBLIC "-//W3C//DTD SVG 1.1//EN" "http://www.w3.org/Graphics/SVG/1.1/DTD/svg11.dtd"><svg xmlns:xlink="http://www.w3.org/1999/xlink" version="1.1" class="highcharts-root" style="font-family:Arial;font-size:12px;" xmlns="http://www.w3.org/2000/svg" viewBox="0 0 485 415"><desc>Created with Highstock 6.1.1</desc><defs><clipPath id="highcharts-albjdqh-6"><rect x="0" y="0" width="432" height="207" fill="none"></rect></clipPath><clipPath id="highcharts-albjdqh-7"><rect x="0" y="0" width="432" height="207" fill="none"></rect></clipPath></defs><rect fill="#fbfbfb" class="highcharts-background" x="0" y="0" width="485" height="428" rx="0" ry="0"></rect><rect fill="none" class="highcharts-plot-background" x="43" y="159" width="432" height="207"></rect><g class="highcharts-pane-group" data-z-index="0"></g><g class="highcharts-plot-lines-0" data-z-index="0"><path fill="none" class="highcharts-plot-line " stroke="#B6CFD7" stroke-width="2" d="M 43 340 L 475 340"></path></g><g class="highcharts-grid highcharts-xaxis-grid " data-z-index="1"><path fill="none" data-z-index="1" class="highcharts-grid-line" d="M 60.5 159 L 60.5 366" opacity="1"></path><path fill="none" data-z-index="1" class="highcharts-grid-line" d="M 117.5 159 L 117.5 366" opacity="1"></path><path fill="none" data-z-index="1" class="highcharts-grid-line" d="M 173.5 159 L 173.5 366" opacity="1"></path><path fill="none" data-z-index="1" class="highcharts-grid-line" d="M 230.5 159 L 230.5 366" opacity="1"></path><path fill="none" data-z-index="1" class="highcharts-grid-line" d="M 286.5 159 L 286.5 366" opacity="1"></path><path fill="none" data-z-index="1" class="highcharts-grid-line" d="M 343.5 159 L 343.5 366" opacity="1"></path><path fill="none" data-z-index="1" class="highcharts-grid-line" d="M 399.5 159 L 399.5 366" opacity="1"></path><path fill="none" data-z-index="1" class="highcharts-grid-line" d="M 456.5 159 L 456.5 366" opacity="1"></path></g><g class="highcharts-grid highcharts-yaxis-grid " data-z-index="1"><path fill="none" stroke="#B9CFD7" stroke-width="0.5" data-z-index="1" class="highcharts-grid-line" d="M 43 366.25 L 475 366.25" opacity="1"></path><path fill="none" stroke="#B9CFD7" stroke-width="0.5" data-z-index="1" class="highcharts-grid-line" d="M 43 340.25 L 475 340.25" opacity="1"></path><path fill="none" stroke="#B9CFD7" stroke-width="0.5" data-z-index="1" class="highcharts-grid-line" d="M 43 314.25 L 475 314.25" opacity="1"></path><path fill="none" stroke="#B9CFD7" stroke-width="0.5" data-z-index="1" class="highcharts-grid-line" d="M 43 288.25 L 475 288.25" opacity="1"></path><path fill="none" stroke="#B9CFD7" stroke-width="0.5" data-z-index="1" class="highcharts-grid-line" d="M 43 263.25 L 475 263.25" opacity="1"></path><path fill="none" stroke="#B9CFD7" stroke-width="0.5" data-z-index="1" class="highcharts-grid-line" d="M 43 237.25 L 475 237.25" opacity="1"></path><path fill="none" stroke="#B9CFD7" stroke-width="0.5" data-z-index="1" class="highcharts-grid-line" d="M 43 211.25 L 475 211.25" opacity="1"></path><path fill="none" stroke="#B9CFD7" stroke-width="0.5" data-z-index="1" class="highcharts-grid-line" d="M 43 185.25 L 475 185.25" opacity="1"></path><path fill="none" stroke="#B9CFD7" stroke-width="0.5" data-z-index="1" class="highcharts-grid-line" d="M 43 158.75 L 475 158.75" opacity="1"></path></g><rect fill="none" class="highcharts-plot-border" data-z-index="1" x="43" y="159" width="432" height="207"></rect><g class="highcharts-axis highcharts-xaxis " data-z-index="2"><path fill="none" class="highcharts-axis-line" stroke="#B9CFD7" stroke-width="0.5" data-z-index="7" d="M 43 366.25 L 475 366.25"></path></g><g class="highcharts-axis highcharts-yaxis " data-z-index="2"><path fill="none" class="highcharts-axis-line" data-z-index="7" d="M 43 159 L 43 366"></path></g><g class="highcharts-series-group" data-z-index="3"><g data-z-index="0.1" class="highcharts-series highcharts-series-0 highcharts-column-series " transform="translate(43,159) scale(1 1)" clip-path="url(#highcharts-albjdqh-7)"><rect x="11" y="182" width="15" height="0" fill="#689199" class="highcharts-point"></rect><rect x="39" y="41" width="15" height="141" fill="#689199" class="highcharts-point"></rect><rect x="67" y="172" width="15" height="10" fill="#689199" class="highcharts-point"></rect><rect x="95" y="182" width="15" height="0" fill="#689199" class="highcharts-point"></rect><rect x="124" y="181" width="15" height="0" fill="#689199" class="highcharts-point"></rect><rect x="152" y="182" width="15" height="0" fill="#689199" class="highcharts-point"></rect><rect x="180" y="182" width="15" height="0" fill="#689199" class="highcharts-point"></rect><rect x="209" y="54" width="15" height="128" fill="#689199" class="highcharts-point"></rect><rect x="237" y="176" width="15" height="0" fill="#689199" class="highcharts-point"></rect><rect x="265" y="180" width="15" height="0" fill="#689199" class="highcharts-point"></rect><rect x="293" y="182" width="15" height="0" fill="#689199" class="highcharts-point"></rect><rect x="322" y="182" width="15" height="0" fill="#689199" class="highcharts-point"></rect><rect x="350" y="176" width="15" height="0" fill="#689199" class="highcharts-point"></rect><rect x="378" y="178" width="15" height="0" fill="#689199" class="highcharts-point"></rect><rect x="406" y="169" width="15" height="11" fill="#689199" class="highcharts-point"></rect></g><g data-z-index="0.1" class="highcharts-markers highcharts-series-0 highcharts-column-series " transform="translate(43,159) scale(1 1)" clip-path="none"></g><g data-z-index="0.1" class="highcharts-series highcharts-series-1 highcharts-column-series " transform="translate(43,159) scale(1 1)" clip-path="url(#highcharts-albjdqh-7)"><rect x="11" y="182" width="15" height="0" fill="#a8c4cb" class="highcharts-point"></rect><rect x="39" y="182" width="15" height="0" fill="#a8c4cb" class="highcharts-point"></rect><rect x="67" y="182" width="15" height="3" fill="#a8c4cb" class="highcharts-point highcharts-negative"></rect><rect x="95" y="182" width="15" height="0" fill="#a8c4cb" class="highcharts-point"></rect><rect x="124" y="181" width="15" height="0" fill="#a8c4cb" class="highcharts-point"></rect><rect x="152" y="182" width="15" height="0" fill="#a8c4cb" class="highcharts-point"></rect><rect x="180" y="182" width="15" height="0" fill="#a8c4cb" class="highcharts-point"></rect><rect x="209" y="182" width="15" height="0" fill="#a8c4cb" class="highcharts-point"></rect><rect x="237" y="176" width="15" height="0" fill="#a8c4cb" class="highcharts-point"></rect><rect x="265" y="180" width="15" height="0" fill="#a8c4cb" class="highcharts-point"></rect><rect x="293" y="182" width="15" height="0" fill="#a8c4cb" class="highcharts-point"></rect><rect x="322" y="182" width="15" height="0" fill="#a8c4cb" class="highcharts-point"></rect><rect x="350" y="176" width="15" height="0" fill="#a8c4cb" class="highcharts-point"></rect><rect x="378" y="182" width="15" height="1" fill="#a8c4cb" class="highcharts-point highcharts-negative"></rect><rect x="406" y="182" width="15" height="1" fill="#a8c4cb" class="highcharts-point highcharts-negative"></rect></g><g data-z-index="0.1" class="highcharts-markers highcharts-series-1 highcharts-column-series " transform="translate(43,159) scale(1 1)" clip-path="none"></g><g data-z-index="0.1" class="highcharts-series highcharts-series-2 highcharts-column-series " transform="translate(43,159) scale(1 1)" clip-path="url(#highcharts-albjdqh-7)"><rect x="11" y="182" width="15" height="3" fill="#fabd24" class="highcharts-point highcharts-negative"></rect><rect x="39" y="182" width="15" height="3" fill="#fabd24" class="highcharts-point highcharts-negative"></rect><rect x="67" y="182" width="15" height="0" fill="#fabd24" class="highcharts-point"></rect><rect x="95" y="182" width="15" height="8" fill="#fabd24" class="highcharts-point highcharts-negative"></rect><rect x="124" y="181" width="15" height="1" fill="#fabd24" class="highcharts-point"></rect><rect x="152" y="182" width="15" height="3" fill="#fabd24" class="highcharts-point highcharts-negative"></rect><rect x="180" y="182" width="15" height="0" fill="#fabd24" class="highcharts-point"></rect><rect x="209" y="182" width="15" height="10" fill="#fabd24" class="highcharts-point highcharts-negative"></rect><rect x="237" y="176" width="15" height="6" fill="#fabd24" class="highcharts-point"></rect><rect x="265" y="180" width="15" height="2" fill="#fabd24" class="highcharts-point"></rect><rect x="293" y="182" width="15" height="0" fill="#fabd24" class="highcharts-point"></rect><rect x="322" y="182" width="15" height="0" fill="#fabd24" class="highcharts-point"></rect><rect x="350" y="176" width="15" height="6" fill="#fabd24" class="highcharts-point"></rect><rect x="378" y="178" width="15" height="4" fill="#fabd24" class="highcharts-point"></rect><rect x="406" y="180" width="15" height="2" fill="#fabd24" class="highcharts-point"></rect></g><g data-z-index="0.1" class="highcharts-markers highcharts-series-2 highcharts-column-series " transform="translate(43,159) scale(1 1)" clip-path="none"></g><g data-z-index="0.1" class="highcharts-series highcharts-series-3 highcharts-line-series " transform="translate(43,159) scale(1 1)" clip-path="url(#highcharts-albjdqh-7)"><path fill="none" d="M 18.094240837699 183.7125 L 46.366492146599 42.693749999999994 L 74.638743455499 173.3625 L 102.9109947644 188.8875 L 131.1832460733 179.83125 L 159.4554973822 183.7125 L 187.7277486911 181.125 L 216 63.39375000000001 L 244.2722513089 174.65625 L 272.5445026178 178.5375 L 300.8167539267 181.125 L 329.0890052356 181.125 L 357.3612565445 174.65625 L 385.6335078534 178.5375 L 413.9057591623 169.48125" class="highcharts-graph" data-z-index="1" stroke="#000000" stroke-width="2" stroke-linejoin="round" stroke-linecap="round"></path></g><g data-z-index="0.1" class="highcharts-markers highcharts-series-3 highcharts-line-series " transform="translate(43,159) scale(1 1)" clip-path="none"></g></g><text x="10" text-anchor="start" class="highcharts-title" data-z-index="4" style="color:#000000;font-size:14px;font-weight:bold;fill:#000000;" y="21"><tspan>Nettowohnungsproduktion</tspan></text><text x="10" text-anchor="start" class="highcharts-subtitle" data-z-index="4" style="color:#000000;font-size:12px;font-weight:normal;font-family:Arial;fill:#000000;" y="40"><tspan>Wohnviertel Klybeck und Kleinhüningen</tspan></text><g class="highcharts-legend" data-z-index="7" transform="translate(50,56)"><rect fill="none" class="highcharts-legend-box" rx="0" ry="0" x="0" y="0" width="307" height="91" visibility="visible"></rect><g data-z-index="1"><g><g class="highcharts-legend-item highcharts-column-series highcharts-color-undefined highcharts-series-0" data-z-index="1" transform="translate(8,3)"><text x="21" style="color:#333333;font-size:12px;font-weight:normal;cursor:pointer;fill:#333333;" text-anchor="start" data-z-index="2" y="15"><tspan>Neubau KlybeckKleinhüningen</tspan></text><rect x="2" y="4" width="12" height="12" fill="#689199" class="highcharts-point" data-z-index="3"></rect></g><g class="highcharts-legend-item highcharts-column-series highcharts-color-undefined highcharts-series-1" data-z-index="1" transform="translate(8,23)"><text x="21" y="15" style="color:#333333;font-size:12px;font-weight:normal;cursor:pointer;fill:#333333;" text-anchor="start" data-z-index="2"><tspan>Abbruch KlybeckKleinhüningen</tspan></text><rect x="2" y="4" width="12" height="12" fill="#a8c4cb" class="highcharts-point" data-z-index="3"></rect></g><g class="highcharts-legend-item highcharts-column-series highcharts-color-undefined highcharts-series-2" data-z-index="1" transform="translate(8,43)"><text x="21" y="15" style="color:#333333;font-size:12px;font-weight:normal;cursor:pointer;fill:#333333;" text-anchor="start" data-z-index="2"><tspan>Umbausaldo KlybeckKleinhüningen</tspan></text><rect x="2" y="4" width="12" height="12" fill="#fabd24" class="highcharts-point" data-z-index="3"></rect></g><g class="highcharts-legend-item highcharts-line-series highcharts-color-undefined highcharts-series-3" data-z-index="1" transform="translate(8,63)"><path fill="none" d="M 0 11 L 16 11" class="highcharts-graph" stroke="#000000" stroke-width="2"></path><text x="21" y="15" style="color:#333333;font-size:12px;font-weight:normal;cursor:pointer;fill:#333333;" text-anchor="start" data-z-index="2"><tspan>Nettowohnungsproduktion KlybeckKleinhüningen</tspan></text></g></g></g></g><g class="highcharts-axis-labels highcharts-xaxis-labels " data-z-index="7"><text x="61.094240837699" style="color:#000000;cursor:default;font-size:11px;fill:#000000;" text-anchor="middle" transform="translate(0,0)" y="385" opacity="1">2004</text><text x="117.6387434555" style="color:#000000;cursor:default;font-size:11px;fill:#000000;" text-anchor="middle" transform="translate(0,0)" y="385" opacity="1">2006</text><text x="174.1832460733" style="color:#000000;cursor:default;font-size:11px;fill:#000000;" text-anchor="middle" transform="translate(0,0)" y="385" opacity="1">2008</text><text x="230.7277486911" style="color:#000000;cursor:default;font-size:11px;fill:#000000;" text-anchor="middle" transform="translate(0,0)" y="385" opacity="1">2010</text><text x="287.2722513089" style="color:#000000;cursor:default;font-size:11px;fill:#000000;" text-anchor="middle" transform="translate(0,0)" y="385" opacity="1">2012</text><text x="343.8167539267" style="color:#000000;cursor:default;font-size:11px;fill:#000000;" text-anchor="middle" transform="translate(0,0)" y="385" opacity="1">2014</text><text x="400.3612565445" style="color:#000000;cursor:default;font-size:11px;fill:#000000;" text-anchor="middle" transform="translate(0,0)" y="385" opacity="1">2016</text><text x="456.9057591623" style="color:#000000;cursor:default;font-size:11px;fill:#000000;" text-anchor="middle" transform="translate(0,0)" y="385" opacity="1">2018</text></g><g class="highcharts-axis-labels highcharts-yaxis-labels " data-z-index="7"><text x="28" style="color:#000000;cursor:default;font-size:11px;fill:#000000;" text-anchor="end" transform="translate(0,0)" y="370" opacity="1">-20</text><text x="28" style="color:#000000;cursor:default;font-size:11px;fill:#000000;" text-anchor="end" transform="translate(0,0)" y="344" opacity="1">0</text><text x="28" style="color:#000000;cursor:default;font-size:11px;fill:#000000;" text-anchor="end" transform="translate(0,0)" y="318" opacity="1">20</text><text x="28" style="color:#000000;cursor:default;font-size:11px;fill:#000000;" text-anchor="end" transform="translate(0,0)" y="292" opacity="1">40</text><text x="28" style="color:#000000;cursor:default;font-size:11px;fill:#000000;" text-anchor="end" transform="translate(0,0)" y="267" opacity="1">60</text><text x="28" style="color:#000000;cursor:default;font-size:11px;fill:#000000;" text-anchor="end" transform="translate(0,0)" y="241" opacity="1">80</text><text x="28" style="color:#000000;cursor:default;font-size:11px;fill:#000000;" text-anchor="end" transform="translate(0,0)" y="215" opacity="1">100</text><text x="28" style="color:#000000;cursor:default;font-size:11px;fill:#000000;" text-anchor="end" transform="translate(0,0)" y="189" opacity="1">120</text><text x="28" style="color:#000000;cursor:default;font-size:11px;fill:#000000;" text-anchor="end" transform="translate(0,0)" y="163" opacity="1">140</text></g><text x="10" class="highcharts-credits" text-anchor="start" data-z-index="8" style="cursor:default;color:#000000;font-size:10px;fill:#000000;" y="403"><tspan>Quelle: Statistisches Amt Basel-Stadt, Baustatistik.</tspan><tspan x="10" dy="13">Zuletzt geändert: 2019-11-12</tspan></text></svg>