<?xml version="1.0" standalone="no"?><!DOCTYPE svg PUBLIC "-//W3C//DTD SVG 1.1//EN" "http://www.w3.org/Graphics/SVG/1.1/DTD/svg11.dtd"><svg xmlns:xlink="http://www.w3.org/1999/xlink" version="1.1" class="highcharts-root" style="font-family:Arial;font-size:12px;" xmlns="http://www.w3.org/2000/svg" viewBox="0 0 485 415"><desc>Created with Highstock 6.1.1</desc><defs><clipPath id="highcharts-pa6lbx5-6"><rect x="0" y="0" width="257" height="235" fill="none"></rect></clipPath><clipPath id="highcharts-pa6lbx5-7"><rect x="0" y="0" width="257" height="235" fill="none"></rect></clipPath></defs><rect fill="#fbfbfb" class="highcharts-background" x="0" y="0" width="485" height="428" rx="0" ry="0"></rect><rect fill="none" class="highcharts-plot-background" x="200" y="94" width="235" height="257"></rect><g class="highcharts-pane-group" data-z-index="0"></g><g class="highcharts-grid highcharts-xaxis-grid " data-z-index="1"><path fill="none" data-z-index="1" class="highcharts-grid-line" d="M 200 120.5 L 435 120.5" opacity="1"></path><path fill="none" data-z-index="1" class="highcharts-grid-line" d="M 200 145.5 L 435 145.5" opacity="1"></path><path fill="none" data-z-index="1" class="highcharts-grid-line" d="M 200 171.5 L 435 171.5" opacity="1"></path><path fill="none" data-z-index="1" class="highcharts-grid-line" d="M 200 197.5 L 435 197.5" opacity="1"></path><path fill="none" data-z-index="1" class="highcharts-grid-line" d="M 200 222.5 L 435 222.5" opacity="1"></path><path fill="none" data-z-index="1" class="highcharts-grid-line" d="M 200 248.5 L 435 248.5" opacity="1"></path><path fill="none" data-z-index="1" class="highcharts-grid-line" d="M 200 274.5 L 435 274.5" opacity="1"></path><path fill="none" data-z-index="1" class="highcharts-grid-line" d="M 200 300.5 L 435 300.5" opacity="1"></path><path fill="none" data-z-index="1" class="highcharts-grid-line" d="M 200 325.5 L 435 325.5" opacity="1"></path><path fill="none" data-z-index="1" class="highcharts-grid-line" d="M 200 351.5 L 435 351.5" opacity="1"></path><path fill="none" data-z-index="1" class="highcharts-grid-line" d="M 200 94.5 L 435 94.5" opacity="1"></path></g><g class="highcharts-grid highcharts-yaxis-grid " data-z-index="1"><path fill="none" stroke="#B9CFD7" stroke-width="0.5" data-z-index="1" class="highcharts-grid-line" d="M 199.75 94 L 199.75 351" opacity="1"></path><path fill="none" stroke="#B9CFD7" stroke-width="0.5" data-z-index="1" class="highcharts-grid-line" d="M 246.75 94 L 246.75 351" opacity="1"></path><path fill="none" stroke="#B9CFD7" stroke-width="0.5" data-z-index="1" class="highcharts-grid-line" d="M 293.75 94 L 293.75 351" opacity="1"></path><path fill="none" stroke="#B9CFD7" stroke-width="0.5" data-z-index="1" class="highcharts-grid-line" d="M 340.75 94 L 340.75 351" opacity="1"></path><path fill="none" stroke="#B9CFD7" stroke-width="0.5" data-z-index="1" class="highcharts-grid-line" d="M 387.75 94 L 387.75 351" opacity="1"></path><path fill="none" stroke="#B9CFD7" stroke-width="0.5" data-z-index="1" class="highcharts-grid-line" d="M 435.25 94 L 435.25 351" opacity="1"></path></g><rect fill="none" class="highcharts-plot-border" data-z-index="1" x="200" y="94" width="235" height="257"></rect><g class="highcharts-axis highcharts-xaxis " data-z-index="2"><path fill="none" class="highcharts-axis-line" stroke="#B9CFD7" stroke-width="0.5" data-z-index="7" d="M 199.75 94 L 199.75 351"></path></g><g class="highcharts-axis highcharts-yaxis " data-z-index="2"><path fill="none" class="highcharts-axis-line" data-z-index="7" d="M 200 351 L 435 351"></path></g><g class="highcharts-series-group" data-z-index="3"><g data-z-index="0.1" class="highcharts-series highcharts-series-0 highcharts-column-series " transform="translate(435,351) rotate(90) scale(-1,1) scale(1 1)" clip-path="url(#highcharts-pa6lbx5-7)"><rect x="247" y="41" width="5" height="195" fill="#A8C3CA" class="highcharts-point"></rect><rect x="221" y="108" width="5" height="128" fill="#A8C3CA" class="highcharts-point"></rect><rect x="195" y="142" width="5" height="94" fill="#A8C3CA" class="highcharts-point"></rect><rect x="170" y="155" width="5" height="81" fill="#A8C3CA" class="highcharts-point"></rect><rect x="144" y="186" width="5" height="50" fill="#A8C3CA" class="highcharts-point"></rect><rect x="118" y="208" width="5" height="28" fill="#A8C3CA" class="highcharts-point"></rect><rect x="93" y="195" width="5" height="41" fill="#A8C3CA" class="highcharts-point"></rect><rect x="67" y="189" width="5" height="47" fill="#A8C3CA" class="highcharts-point"></rect><rect x="41" y="191" width="5" height="45" fill="#A8C3CA" class="highcharts-point"></rect><rect x="15" y="217" width="6" height="19" fill="#A8C3CA" class="highcharts-point"></rect></g><g data-z-index="0.1" class="highcharts-markers highcharts-series-0 highcharts-column-series " transform="translate(435,351) rotate(90) scale(-1,1) scale(1 1)" clip-path="none"></g><g data-z-index="0.1" class="highcharts-series highcharts-series-1 highcharts-column-series " transform="translate(435,351) rotate(90) scale(-1,1) scale(1 1)" clip-path="url(#highcharts-pa6lbx5-7)"><rect x="242" y="41" width="5" height="195" fill="#689199" class="highcharts-point"></rect><rect x="216" y="135" width="5" height="101" fill="#689199" class="highcharts-point"></rect><rect x="190" y="154" width="5" height="82" fill="#689199" class="highcharts-point"></rect><rect x="164" y="158" width="6" height="78" fill="#689199" class="highcharts-point"></rect><rect x="139" y="186" width="5" height="50" fill="#689199" class="highcharts-point"></rect><rect x="113" y="201" width="5" height="35" fill="#689199" class="highcharts-point"></rect><rect x="87" y="196" width="6" height="40" fill="#689199" class="highcharts-point"></rect><rect x="62" y="193" width="5" height="43" fill="#689199" class="highcharts-point"></rect><rect x="36" y="191" width="5" height="45" fill="#689199" class="highcharts-point"></rect><rect x="10" y="207" width="5" height="29" fill="#689199" class="highcharts-point"></rect></g><g data-z-index="0.1" class="highcharts-markers highcharts-series-1 highcharts-column-series " transform="translate(435,351) rotate(90) scale(-1,1) scale(1 1)" clip-path="none"></g><g data-z-index="0.1" class="highcharts-series highcharts-series-2 highcharts-column-series " transform="translate(435,351) rotate(90) scale(-1,1) scale(1 1)" clip-path="url(#highcharts-pa6lbx5-7)"><rect x="236" y="35" width="6" height="201" fill="#246370" class="highcharts-point"></rect><rect x="211" y="145" width="5" height="91" fill="#246370" class="highcharts-point"></rect><rect x="185" y="149" width="5" height="87" fill="#246370" class="highcharts-point"></rect><rect x="159" y="166" width="5" height="70" fill="#246370" class="highcharts-point"></rect><rect x="134" y="181" width="5" height="55" fill="#246370" class="highcharts-point"></rect><rect x="108" y="189" width="5" height="47" fill="#246370" class="highcharts-point"></rect><rect x="82" y="194" width="5" height="42" fill="#246370" class="highcharts-point"></rect><rect x="57" y="197" width="5" height="39" fill="#246370" class="highcharts-point"></rect><rect x="31" y="198" width="5" height="38" fill="#246370" class="highcharts-point"></rect><rect x="5" y="199" width="5" height="37" fill="#246370" class="highcharts-point"></rect></g><g data-z-index="0.1" class="highcharts-markers highcharts-series-2 highcharts-column-series " transform="translate(435,351) rotate(90) scale(-1,1) scale(1 1)" clip-path="none"></g></g><text x="10" text-anchor="start" class="highcharts-title" data-z-index="4" style="color:#000000;font-size:14px;font-weight:bold;fill:#000000;" y="21"><tspan>Beschäftigung nach ausgewählten Branchen</tspan></text><text x="10" text-anchor="start" class="highcharts-subtitle" data-z-index="4" style="color:#000000;font-size:12px;font-weight:normal;font-family:Arial;fill:#000000;" y="40"><tspan>Wohnviertel Klybeck und Kleinhüningen</tspan></text><g class="highcharts-legend" data-z-index="7" transform="translate(192,56)"><rect fill="none" class="highcharts-legend-box" rx="0" ry="0" x="0" y="0" width="203" height="26" visibility="visible"></rect><g data-z-index="1"><g><g class="highcharts-legend-item highcharts-column-series highcharts-color-undefined highcharts-series-0" data-z-index="1" transform="translate(8,3)"><text x="21" style="color:#333333;font-size:12px;font-weight:normal;cursor:pointer;fill:#333333;" text-anchor="start" data-z-index="2" y="15"><tspan>2015</tspan></text><rect x="2" y="4" width="12" height="12" fill="#A8C3CA" class="highcharts-point" data-z-index="3"></rect></g><g class="highcharts-legend-item highcharts-column-series highcharts-color-undefined highcharts-series-1" data-z-index="1" transform="translate(77,3)"><text x="21" y="15" style="color:#333333;font-size:12px;font-weight:normal;cursor:pointer;fill:#333333;" text-anchor="start" data-z-index="2"><tspan>2016</tspan></text><rect x="2" y="4" width="12" height="12" fill="#689199" class="highcharts-point" data-z-index="3"></rect></g><g class="highcharts-legend-item highcharts-column-series highcharts-color-undefined highcharts-series-2" data-z-index="1" transform="translate(146,3)"><text x="21" y="15" style="color:#333333;font-size:12px;font-weight:normal;cursor:pointer;fill:#333333;" text-anchor="start" data-z-index="2"><tspan>2017</tspan></text><rect x="2" y="4" width="12" height="12" fill="#246370" class="highcharts-point" data-z-index="3"></rect></g></g></g></g><g class="highcharts-axis-labels highcharts-xaxis-labels " data-z-index="7"><text x="20" style="color:#000000;cursor:default;font-size:11px;fill:#000000;" text-anchor="start" transform="translate(0,0)" y="111" opacity="1"><tspan>Sonst. wirtsch. DL</tspan></text><text x="20" style="color:#000000;cursor:default;font-size:11px;fill:#000000;" text-anchor="start" transform="translate(0,0)" y="137" opacity="1">Gastronomie</text><text x="20" style="color:#000000;cursor:default;font-size:11px;fill:#000000;" text-anchor="start" transform="translate(0,0)" y="162" opacity="1"><tspan>Schiffahrt, Luftfahrt</tspan></text><text x="20" style="color:#000000;cursor:default;font-size:11px;fill:#000000;" text-anchor="start" transform="translate(0,0)" y="188" opacity="1">Chemie</text><text x="20" style="color:#000000;cursor:default;font-size:11px;fill:#000000;" text-anchor="start" transform="translate(0,0)" y="214" opacity="1">Landverkehr</text><text x="20" style="color:#000000;cursor:default;font-size:11px;fill:#000000;" text-anchor="start" transform="translate(0,0)" y="239" opacity="1"><tspan>Architektur- und Ingenieurbüros</tspan></text><text x="20" style="color:#000000;cursor:default;font-size:11px;fill:#000000;" text-anchor="start" transform="translate(0,0)" y="265" opacity="1">Baunebengewerbe</text><text x="20" style="color:#000000;cursor:default;font-size:11px;fill:#000000;" text-anchor="start" transform="translate(0,0)" y="291" opacity="1">Detailhandel</text><text x="20" style="color:#000000;cursor:default;font-size:11px;fill:#000000;" text-anchor="start" transform="translate(0,0)" y="316" opacity="1">Lagerei</text><text x="20" style="color:#000000;cursor:default;font-size:11px;fill:#000000;" text-anchor="start" transform="translate(0,0)" y="342" opacity="1"><tspan>Personalvermittlung, -überlassung</tspan></text></g><g class="highcharts-axis-labels highcharts-yaxis-labels " data-z-index="7"><text x="200" style="color:#000000;cursor:default;font-size:11px;fill:#000000;" text-anchor="middle" transform="translate(0,0)" y="370" opacity="1">0</text><text x="247" style="color:#000000;cursor:default;font-size:11px;fill:#000000;" text-anchor="middle" transform="translate(0,0)" y="370" opacity="1">500</text><text x="294" style="color:#000000;cursor:default;font-size:11px;fill:#000000;" text-anchor="middle" transform="translate(0,0)" y="370" opacity="1"><tspan>1 000</tspan></text><text x="341" style="color:#000000;cursor:default;font-size:11px;fill:#000000;" text-anchor="middle" transform="translate(0,0)" y="370" opacity="1"><tspan>1 500</tspan></text><text x="388" style="color:#000000;cursor:default;font-size:11px;fill:#000000;" text-anchor="middle" transform="translate(0,0)" y="370" opacity="1"><tspan>2 000</tspan></text><text x="435" style="color:#000000;cursor:default;font-size:11px;fill:#000000;" text-anchor="middle" transform="translate(0,0)" y="370" opacity="1"><tspan>2 500</tspan></text></g><text x="10" class="highcharts-credits" text-anchor="start" data-z-index="8" style="cursor:default;color:#000000;font-size:10px;fill:#000000;" y="403"><tspan>Quelle: Bundesamt für Statistik (BFS), Statistik der Unternehmensstruktur (STATENT).</tspan><tspan x="10" dy="13">Zuletzt geändert: 2019-11-12</tspan></text></svg>