<?xml version="1.0" standalone="no"?><!DOCTYPE svg PUBLIC "-//W3C//DTD SVG 1.1//EN" "http://www.w3.org/Graphics/SVG/1.1/DTD/svg11.dtd"><svg xmlns:xlink="http://www.w3.org/1999/xlink" version="1.1" class="highcharts-root" style="font-family:Arial;font-size:12px;" xmlns="http://www.w3.org/2000/svg" viewBox="0 0 485 415"><desc>Created with Highstock 6.1.1</desc><defs><clipPath id="highcharts-tzsr9h4-6"><rect x="0" y="0" width="444" height="272" fill="none"></rect></clipPath><clipPath id="highcharts-tzsr9h4-7"><rect x="0" y="0" width="444" height="272" fill="none"></rect></clipPath></defs><rect fill="#fbfbfb" class="highcharts-background" x="0" y="0" width="485" height="428" rx="0" ry="0"></rect><rect fill="none" class="highcharts-plot-background" x="31" y="94" width="444" height="272"></rect><g class="highcharts-pane-group" data-z-index="0"></g><g class="highcharts-grid highcharts-xaxis-grid " data-z-index="1"><path fill="none" data-z-index="1" class="highcharts-grid-line" d="M 64.5 94 L 64.5 366" opacity="1"></path><path fill="none" data-z-index="1" class="highcharts-grid-line" d="M 98.5 94 L 98.5 366" opacity="1"></path><path fill="none" data-z-index="1" class="highcharts-grid-line" d="M 132.5 94 L 132.5 366" opacity="1"></path><path fill="none" data-z-index="1" class="highcharts-grid-line" d="M 167.5 94 L 167.5 366" opacity="1"></path><path fill="none" data-z-index="1" class="highcharts-grid-line" d="M 201.5 94 L 201.5 366" opacity="1"></path><path fill="none" data-z-index="1" class="highcharts-grid-line" d="M 235.5 94 L 235.5 366" opacity="1"></path><path fill="none" data-z-index="1" class="highcharts-grid-line" d="M 269.5 94 L 269.5 366" opacity="1"></path><path fill="none" data-z-index="1" class="highcharts-grid-line" d="M 303.5 94 L 303.5 366" opacity="1"></path><path fill="none" data-z-index="1" class="highcharts-grid-line" d="M 337.5 94 L 337.5 366" opacity="1"></path><path fill="none" data-z-index="1" class="highcharts-grid-line" d="M 372.5 94 L 372.5 366" opacity="1"></path><path fill="none" data-z-index="1" class="highcharts-grid-line" d="M 406.5 94 L 406.5 366" opacity="1"></path><path fill="none" data-z-index="1" class="highcharts-grid-line" d="M 440.5 94 L 440.5 366" opacity="1"></path><path fill="none" data-z-index="1" class="highcharts-grid-line" d="M 474.5 94 L 474.5 366" opacity="1"></path><path fill="none" data-z-index="1" class="highcharts-grid-line" d="M 30.5 94 L 30.5 366" opacity="1"></path></g><g class="highcharts-grid highcharts-yaxis-grid " data-z-index="1"><path fill="none" stroke="#B9CFD7" stroke-width="0.5" data-z-index="1" class="highcharts-grid-line" d="M 31 366.25 L 475 366.25" opacity="1"></path><path fill="none" stroke="#B9CFD7" stroke-width="0.5" data-z-index="1" class="highcharts-grid-line" d="M 31 327.25 L 475 327.25" opacity="1"></path><path fill="none" stroke="#B9CFD7" stroke-width="0.5" data-z-index="1" class="highcharts-grid-line" d="M 31 288.25 L 475 288.25" opacity="1"></path><path fill="none" stroke="#B9CFD7" stroke-width="0.5" data-z-index="1" class="highcharts-grid-line" d="M 31 249.25 L 475 249.25" opacity="1"></path><path fill="none" stroke="#B9CFD7" stroke-width="0.5" data-z-index="1" class="highcharts-grid-line" d="M 31 211.25 L 475 211.25" opacity="1"></path><path fill="none" stroke="#B9CFD7" stroke-width="0.5" data-z-index="1" class="highcharts-grid-line" d="M 31 172.25 L 475 172.25" opacity="1"></path><path fill="none" stroke="#B9CFD7" stroke-width="0.5" data-z-index="1" class="highcharts-grid-line" d="M 31 133.25 L 475 133.25" opacity="1"></path><path fill="none" stroke="#B9CFD7" stroke-width="0.5" data-z-index="1" class="highcharts-grid-line" d="M 31 93.75 L 475 93.75" opacity="1"></path></g><rect fill="none" class="highcharts-plot-border" data-z-index="1" x="31" y="94" width="444" height="272"></rect><g class="highcharts-axis highcharts-xaxis " data-z-index="2"><path fill="none" class="highcharts-axis-line" stroke="#B9CFD7" stroke-width="0.5" data-z-index="7" d="M 31 366.25 L 475 366.25"></path></g><g class="highcharts-axis highcharts-yaxis " data-z-index="2"><path fill="none" class="highcharts-axis-line" data-z-index="7" d="M 31 94 L 31 366"></path></g><g class="highcharts-series-group" data-z-index="3"><g data-z-index="0.1" class="highcharts-series highcharts-series-0 highcharts-column-series " transform="translate(31,94) scale(1 1)" clip-path="url(#highcharts-tzsr9h4-7)"><rect x="42" y="234" width="9" height="39" fill="#cd9c00" class="highcharts-point"></rect><rect x="76" y="156" width="9" height="117" fill="#cd9c00" class="highcharts-point"></rect><rect x="110" y="156" width="9" height="117" fill="#cd9c00" class="highcharts-point"></rect><rect x="144" y="118" width="9" height="155" fill="#cd9c00" class="highcharts-point"></rect><rect x="179" y="156" width="9" height="117" fill="#cd9c00" class="highcharts-point"></rect><rect x="213" y="118" width="9" height="155" fill="#cd9c00" class="highcharts-point"></rect><rect x="247" y="40" width="9" height="233" fill="#cd9c00" class="highcharts-point"></rect><rect x="281" y="79" width="9" height="194" fill="#cd9c00" class="highcharts-point"></rect><rect x="315" y="40" width="9" height="233" fill="#cd9c00" class="highcharts-point"></rect><rect x="349" y="195" width="9" height="78" fill="#cd9c00" class="highcharts-point"></rect><rect x="384" y="195" width="9" height="78" fill="#cd9c00" class="highcharts-point"></rect><rect x="418" y="234" width="9" height="39" fill="#cd9c00" class="highcharts-point"></rect></g><g data-z-index="0.1" class="highcharts-markers highcharts-series-0 highcharts-column-series " transform="translate(31,94) scale(1 1)" clip-path="none"></g><g data-z-index="0.1" class="highcharts-series highcharts-series-1 highcharts-column-series " transform="translate(31,94) scale(1 1)" clip-path="url(#highcharts-tzsr9h4-7)"><rect x="18" y="156" width="9" height="117" fill="#b375ab" class="highcharts-point"></rect><rect x="52" y="156" width="9" height="117" fill="#b375ab" class="highcharts-point"></rect><rect x="86" y="234" width="9" height="39" fill="#b375ab" class="highcharts-point"></rect><rect x="394" y="156" width="9" height="117" fill="#b375ab" class="highcharts-point"></rect></g><g data-z-index="0.1" class="highcharts-markers highcharts-series-1 highcharts-column-series " transform="translate(31,94) scale(1 1)" clip-path="none"></g></g><text x="10" text-anchor="start" class="highcharts-title" data-z-index="4" style="color:#000000;font-size:14px;font-weight:bold;fill:#000000;" y="21"><tspan>Anzahl Rotlichtsalons</tspan></text><text x="10" text-anchor="start" class="highcharts-subtitle" data-z-index="4" style="color:#000000;font-size:12px;font-weight:normal;font-family:Arial;fill:#000000;" y="40"><tspan>Wohnviertel Klybeck und Kleinhüningen</tspan></text><g class="highcharts-legend" data-z-index="7" transform="translate(23,56)"><rect fill="none" class="highcharts-legend-box" rx="0" ry="0" x="0" y="0" width="200" height="26" visibility="visible"></rect><g data-z-index="1"><g><g class="highcharts-legend-item highcharts-column-series highcharts-color-undefined highcharts-series-0" data-z-index="1" transform="translate(8,3)"><text x="21" style="color:#333333;font-size:12px;font-weight:normal;cursor:pointer;fill:#333333;" text-anchor="start" data-z-index="2" y="15"><tspan>Klybeck</tspan></text><rect x="2" y="4" width="12" height="12" fill="#cd9c00" class="highcharts-point" data-z-index="3"></rect></g><g class="highcharts-legend-item highcharts-column-series highcharts-color-undefined highcharts-series-1" data-z-index="1" transform="translate(91,3)"><text x="21" y="15" style="color:#333333;font-size:12px;font-weight:normal;cursor:pointer;fill:#333333;" text-anchor="start" data-z-index="2"><tspan>Kleinhüningen</tspan></text><rect x="2" y="4" width="12" height="12" fill="#b375ab" class="highcharts-point" data-z-index="3"></rect></g></g></g></g><g class="highcharts-axis-labels highcharts-xaxis-labels " data-z-index="7"><text x="48.076923076922924" style="color:#000000;cursor:default;font-size:11px;fill:#000000;" text-anchor="middle" transform="translate(0,0)" y="385" opacity="1">2005</text><text x="82.23076923076891" style="color:#000000;cursor:default;font-size:11px;fill:#000000;" text-anchor="middle" transform="translate(0,0)" y="385" opacity="1">2006</text><text x="116.38461538461691" style="color:#000000;cursor:default;font-size:11px;fill:#000000;" text-anchor="middle" transform="translate(0,0)" y="385" opacity="1">2007</text><text x="150.53846153845694" style="color:#000000;cursor:default;font-size:11px;fill:#000000;" text-anchor="middle" transform="translate(0,0)" y="385" opacity="1">2009</text><text x="184.69230769230694" style="color:#000000;cursor:default;font-size:11px;fill:#000000;" text-anchor="middle" transform="translate(0,0)" y="385" opacity="1">2010</text><text x="218.84615384615694" style="color:#000000;cursor:default;font-size:11px;fill:#000000;" text-anchor="middle" transform="translate(0,0)" y="385" opacity="1">2011</text><text x="252.99999999999696" style="color:#000000;cursor:default;font-size:11px;fill:#000000;" text-anchor="middle" transform="translate(0,0)" y="385" opacity="1">2013</text><text x="287.1538461538469" style="color:#000000;cursor:default;font-size:11px;fill:#000000;" text-anchor="middle" transform="translate(0,0)" y="385" opacity="1">2014</text><text x="321.3076923076969" style="color:#000000;cursor:default;font-size:11px;fill:#000000;" text-anchor="middle" transform="translate(0,0)" y="385" opacity="1">2015</text><text x="355.4615384615369" style="color:#000000;cursor:default;font-size:11px;fill:#000000;" text-anchor="middle" transform="translate(0,0)" y="385" opacity="1">2016</text><text x="389.6153846153869" style="color:#000000;cursor:default;font-size:11px;fill:#000000;" text-anchor="middle" transform="translate(0,0)" y="385" opacity="1">2017</text><text x="423.7692307692269" style="color:#000000;cursor:default;font-size:11px;fill:#000000;" text-anchor="middle" transform="translate(0,0)" y="385" opacity="1">2018</text><text x="457.9230769230769" style="color:#000000;cursor:default;font-size:11px;fill:#000000;" text-anchor="middle" transform="translate(0,0)" y="385" opacity="1">2019</text></g><g class="highcharts-axis-labels highcharts-yaxis-labels " data-z-index="7"><text x="16" style="color:#000000;cursor:default;font-size:11px;fill:#000000;" text-anchor="end" transform="translate(0,0)" y="370" opacity="1">0</text><text x="16" style="color:#000000;cursor:default;font-size:11px;fill:#000000;" text-anchor="end" transform="translate(0,0)" y="331" opacity="1">1</text><text x="16" style="color:#000000;cursor:default;font-size:11px;fill:#000000;" text-anchor="end" transform="translate(0,0)" y="292" opacity="1">2</text><text x="16" style="color:#000000;cursor:default;font-size:11px;fill:#000000;" text-anchor="end" transform="translate(0,0)" y="253" opacity="1">3</text><text x="16" style="color:#000000;cursor:default;font-size:11px;fill:#000000;" text-anchor="end" transform="translate(0,0)" y="215" opacity="1">4</text><text x="16" style="color:#000000;cursor:default;font-size:11px;fill:#000000;" text-anchor="end" transform="translate(0,0)" y="176" opacity="1">5</text><text x="16" style="color:#000000;cursor:default;font-size:11px;fill:#000000;" text-anchor="end" transform="translate(0,0)" y="137" opacity="1">6</text><text x="16" style="color:#000000;cursor:default;font-size:11px;fill:#000000;" text-anchor="end" transform="translate(0,0)" y="98" opacity="1">7</text></g><text x="10" class="highcharts-credits" text-anchor="start" data-z-index="8" style="cursor:default;color:#000000;font-size:10px;fill:#000000;" y="403"><tspan>Quelle: Statistisches Amt Basel-Stadt.</tspan><tspan x="10" dy="13">Zuletzt geändert: 2019-11-12</tspan></text></svg>