<?xml version="1.0" standalone="no"?><!DOCTYPE svg PUBLIC "-//W3C//DTD SVG 1.1//EN" "http://www.w3.org/Graphics/SVG/1.1/DTD/svg11.dtd"><svg xmlns:xlink="http://www.w3.org/1999/xlink" version="1.1" class="highcharts-root" style="font-family:Arial;font-size:12px;" xmlns="http://www.w3.org/2000/svg" viewBox="0 0 485 415"><desc>Created with Highstock 6.1.1</desc><defs><clipPath id="highcharts-kf95wia-6"><rect x="0" y="0" width="422" height="254" fill="none"></rect></clipPath><clipPath id="highcharts-kf95wia-7"><rect x="0" y="0" width="422" height="254" fill="none"></rect></clipPath></defs><rect fill="#fbfbfb" class="highcharts-background" x="0" y="0" width="485" height="428" rx="0" ry="0"></rect><rect fill="none" class="highcharts-plot-background" x="53" y="94" width="422" height="254"></rect><g class="highcharts-pane-group" data-z-index="0"></g><g class="highcharts-grid highcharts-xaxis-grid " data-z-index="1"><path fill="none" data-z-index="1" class="highcharts-grid-line" d="M 193.5 94 L 193.5 348" opacity="1"></path><path fill="none" data-z-index="1" class="highcharts-grid-line" d="M 333.5 94 L 333.5 348" opacity="1"></path><path fill="none" data-z-index="1" class="highcharts-grid-line" d="M 474.5 94 L 474.5 348" opacity="1"></path><path fill="none" data-z-index="1" class="highcharts-grid-line" d="M 52.5 94 L 52.5 348" opacity="1"></path></g><g class="highcharts-grid highcharts-yaxis-grid " data-z-index="1"><path fill="none" stroke="#B9CFD7" stroke-width="0.5" data-z-index="1" class="highcharts-grid-line" d="M 53 348.25 L 475 348.25" opacity="1"></path><path fill="none" stroke="#B9CFD7" stroke-width="0.5" data-z-index="1" class="highcharts-grid-line" d="M 53 285.25 L 475 285.25" opacity="1"></path><path fill="none" stroke="#B9CFD7" stroke-width="0.5" data-z-index="1" class="highcharts-grid-line" d="M 53 221.25 L 475 221.25" opacity="1"></path><path fill="none" stroke="#B9CFD7" stroke-width="0.5" data-z-index="1" class="highcharts-grid-line" d="M 53 158.25 L 475 158.25" opacity="1"></path><path fill="none" stroke="#B9CFD7" stroke-width="0.5" data-z-index="1" class="highcharts-grid-line" d="M 53 93.75 L 475 93.75" opacity="1"></path></g><rect fill="none" class="highcharts-plot-border" data-z-index="1" x="53" y="94" width="422" height="254"></rect><g class="highcharts-axis highcharts-xaxis " data-z-index="2"><path fill="none" class="highcharts-axis-line" stroke="#B9CFD7" stroke-width="0.5" data-z-index="7" d="M 53 348.25 L 475 348.25"></path></g><g class="highcharts-axis highcharts-yaxis " data-z-index="2"><path fill="none" class="highcharts-axis-line" data-z-index="7" d="M 53 94 L 53 348"></path></g><g class="highcharts-series-group" data-z-index="3"><g data-z-index="0.1" class="highcharts-series highcharts-series-0 highcharts-column-series " transform="translate(53,94) scale(1 1)" clip-path="url(#highcharts-kf95wia-7)"><rect x="27.5" y="68.5" width="28" height="186" fill="#cd9c00" stroke="#ffffff" stroke-width="1" class="highcharts-point"></rect><rect x="168.5" y="77.5" width="28" height="177" fill="#cd9c00" stroke="#ffffff" stroke-width="1" class="highcharts-point"></rect><rect x="308.5" y="97.5" width="29" height="157" fill="#cd9c00" stroke="#ffffff" stroke-width="1" class="highcharts-point"></rect></g><g data-z-index="0.1" class="highcharts-markers highcharts-series-0 highcharts-column-series " transform="translate(53,94) scale(1 1)" clip-path="none"></g><g data-z-index="0.1" class="highcharts-series highcharts-series-1 highcharts-errorbar-series " transform="translate(53,94) scale(1 1)" clip-path="url(#highcharts-kf95wia-7)"><g class="highcharts-point"><path fill="none" class="highcharts-boxplot-stem" stroke="#000000" stroke-width="1" d="M 323.5 106 L 323.5 88 M 323.5 106 L 323.5 106"></path><path fill="none" class="highcharts-boxplot-whisker" stroke="#000000" stroke-width="1" d="M 316 88.5 L 331 88.5 M 316 106.5 L 331 106.5"></path><path fill="none" class="highcharts-boxplot-median" stroke="#000000" stroke-width="2" d="M 0 0"></path></g></g><g data-z-index="0.1" class="highcharts-markers highcharts-series-1 highcharts-errorbar-series " transform="translate(53,94) scale(1 1)" clip-path="none"></g><g data-z-index="0.1" class="highcharts-series highcharts-series-2 highcharts-column-series " transform="translate(53,94) scale(1 1)" clip-path="url(#highcharts-kf95wia-7)"><rect x="55.5" y="72.5" width="28" height="182" fill="#b375ab" stroke="#ffffff" stroke-width="1" class="highcharts-point"></rect><rect x="196.5" y="76.5" width="28" height="178" fill="#b375ab" stroke="#ffffff" stroke-width="1" class="highcharts-point"></rect><rect x="337.5" y="88.5" width="28" height="166" fill="#b375ab" stroke="#ffffff" stroke-width="1" class="highcharts-point"></rect></g><g data-z-index="0.1" class="highcharts-markers highcharts-series-2 highcharts-column-series " transform="translate(53,94) scale(1 1)" clip-path="none"></g><g data-z-index="0.1" class="highcharts-series highcharts-series-3 highcharts-errorbar-series " transform="translate(53,94) scale(1 1)" clip-path="url(#highcharts-kf95wia-7)"><g class="highcharts-point"><path fill="none" class="highcharts-boxplot-stem" stroke="#000000" stroke-width="1" d="M 351.5 102 L 351.5 73 M 351.5 102 L 351.5 102"></path><path fill="none" class="highcharts-boxplot-whisker" stroke="#000000" stroke-width="1" d="M 344.5 73.5 L 358.5 73.5 M 344.5 102.5 L 358.5 102.5"></path><path fill="none" class="highcharts-boxplot-median" stroke="#000000" stroke-width="2" d="M 0 0"></path></g></g><g data-z-index="0.1" class="highcharts-markers highcharts-series-3 highcharts-errorbar-series " transform="translate(53,94) scale(1 1)" clip-path="none"></g><g data-z-index="0.1" class="highcharts-series highcharts-series-4 highcharts-column-series " transform="translate(53,94) scale(1 1)" clip-path="url(#highcharts-kf95wia-7)"><rect x="83.5" y="68.5" width="29" height="186" fill="#8A8A8A" stroke="#ffffff" stroke-width="1" class="highcharts-point"></rect><rect x="224.5" y="69.5" width="28" height="185" fill="#8A8A8A" stroke="#ffffff" stroke-width="1" class="highcharts-point"></rect><rect x="365.5" y="68.5" width="28" height="186" fill="#8A8A8A" stroke="#ffffff" stroke-width="1" class="highcharts-point"></rect></g><g data-z-index="0.1" class="highcharts-markers highcharts-series-4 highcharts-column-series " transform="translate(53,94) scale(1 1)" clip-path="none"></g><g data-z-index="0.1" class="highcharts-series highcharts-series-5 highcharts-errorbar-series " transform="translate(53,94) scale(1 1)" clip-path="url(#highcharts-kf95wia-7)"><g class="highcharts-point"><path fill="none" class="highcharts-boxplot-stem" stroke="#000000" stroke-width="1" d="M 379.5 69 L 379.5 65 M 379.5 69 L 379.5 69"></path><path fill="none" class="highcharts-boxplot-whisker" stroke="#000000" stroke-width="1" d="M 372.5 65.5 L 386.5 65.5 M 372.5 69.5 L 386.5 69.5"></path><path fill="none" class="highcharts-boxplot-median" stroke="#000000" stroke-width="2" d="M 0 0"></path></g></g><g data-z-index="0.1" class="highcharts-markers highcharts-series-5 highcharts-errorbar-series " transform="translate(53,94) scale(1 1)" clip-path="none"></g></g><text x="10" text-anchor="start" class="highcharts-title" data-z-index="4" style="color:#000000;font-size:14px;font-weight:bold;fill:#000000;" y="21"><tspan>Nettoerwerbstätigenquote</tspan></text><text x="10" text-anchor="start" class="highcharts-subtitle" data-z-index="4" style="color:#000000;font-size:12px;font-weight:normal;font-family:Arial;fill:#000000;" y="40"><tspan>Wohnviertel Klybeck und Kleinhüningen</tspan></text><g class="highcharts-legend" data-z-index="7" transform="translate(45,56)"><rect fill="none" class="highcharts-legend-box" rx="0" ry="0" x="0" y="0" width="274" height="26" visibility="visible"></rect><g data-z-index="1"><g><g class="highcharts-legend-item highcharts-column-series highcharts-color-undefined highcharts-series-0" data-z-index="1" transform="translate(8,3)"><text x="21" style="color:#333333;font-size:12px;font-weight:normal;cursor:pointer;fill:#333333;" text-anchor="start" data-z-index="2" y="15"><tspan>Klybeck</tspan></text><rect x="2" y="4" width="12" height="12" fill="#cd9c00" class="highcharts-point" data-z-index="3"></rect></g><g class="highcharts-legend-item highcharts-column-series highcharts-color-undefined highcharts-series-2" data-z-index="1" transform="translate(76,3)"><text x="21" y="15" style="color:#333333;font-size:12px;font-weight:normal;cursor:pointer;fill:#333333;" text-anchor="start" data-z-index="2"><tspan>Kleinhüningen</tspan></text><rect x="2" y="4" width="12" height="12" fill="#b375ab" class="highcharts-point" data-z-index="3"></rect></g><g class="highcharts-legend-item highcharts-column-series highcharts-color-undefined highcharts-series-4" data-z-index="1" transform="translate(182,3)"><text x="21" y="15" style="color:#333333;font-size:12px;font-weight:normal;cursor:pointer;fill:#333333;" text-anchor="start" data-z-index="2"><tspan>Stadt Basel</tspan></text><rect x="2" y="4" width="12" height="12" fill="#8A8A8A" class="highcharts-point" data-z-index="3"></rect></g></g></g></g><g class="highcharts-axis-labels highcharts-xaxis-labels " data-z-index="7"><text x="123.33333333333668" style="color:#000000;cursor:default;font-size:11px;fill:#000000;" text-anchor="middle" transform="translate(0,0)" y="367" opacity="1">1990</text><text x="263.9999999999967" style="color:#000000;cursor:default;font-size:11px;fill:#000000;" text-anchor="middle" transform="translate(0,0)" y="367" opacity="1">2000</text><text x="404.6666666666667" style="color:#000000;cursor:default;font-size:11px;fill:#000000;" text-anchor="middle" transform="translate(0,0)" y="367" opacity="1">2013-2017</text></g><g class="highcharts-axis-labels highcharts-yaxis-labels " data-z-index="7"><text x="38" style="color:#000000;cursor:default;font-size:11px;fill:#000000;" text-anchor="end" transform="translate(0,0)" y="352" opacity="1">0%</text><text x="38" style="color:#000000;cursor:default;font-size:11px;fill:#000000;" text-anchor="end" transform="translate(0,0)" y="289" opacity="1">25%</text><text x="38" style="color:#000000;cursor:default;font-size:11px;fill:#000000;" text-anchor="end" transform="translate(0,0)" y="225" opacity="1">50%</text><text x="38" style="color:#000000;cursor:default;font-size:11px;fill:#000000;" text-anchor="end" transform="translate(0,0)" y="162" opacity="1">75%</text><text x="38" style="color:#000000;cursor:default;font-size:11px;fill:#000000;" text-anchor="end" transform="translate(0,0)" y="98" opacity="1">100%</text></g><text x="10" class="highcharts-credits" text-anchor="start" data-z-index="8" style="cursor:default;color:#000000;font-size:10px;fill:#000000;" y="393"><tspan>Quelle: Bundesamt für Statistik (BFS), Strukturerhebung (SE);</tspan><tspan x="10" dy="13">Bundesamt für Statistik (BFS), Volkszählung (VZ).</tspan><tspan x="10" dy="13">Zuletzt geändert: 2019-11-12</tspan></text></svg>