<?xml version="1.0" standalone="no"?><!DOCTYPE svg PUBLIC "-//W3C//DTD SVG 1.1//EN" "http://www.w3.org/Graphics/SVG/1.1/DTD/svg11.dtd"><svg xmlns:xlink="http://www.w3.org/1999/xlink" version="1.1" class="highcharts-root" style="font-family:Inter,Helvetica Neue,Helvetica,Arial,sans-serif;font-size:12px;" xmlns="http://www.w3.org/2000/svg" width="600" height="428"><desc>Created with Highcharts 8.2.2</desc><defs><clipPath id="highcharts-qp1vhp6-55-"><rect x="0" y="0" width="517" height="212" fill="none"></rect></clipPath><clipPath id="highcharts-qp1vhp6-64-"><rect x="0" y="0" width="517" height="212" fill="none"></rect></clipPath><clipPath id="highcharts-qp1vhp6-105-"><rect x="73" y="139" width="517" height="212" fill="none"></rect></clipPath></defs><rect fill="#ffffff" class="highcharts-background" x="0" y="0" width="600" height="428" rx="0" ry="0"></rect><rect fill="none" class="highcharts-plot-background" x="73" y="139" width="517" height="212"></rect><g class="highcharts-pane-group" data-z-index="0"></g><g class="highcharts-grid highcharts-xaxis-grid" data-z-index="1"><path fill="none" data-z-index="1" class="highcharts-grid-line" d="M 137.5 139 L 137.5 351" opacity="1"></path><path fill="none" data-z-index="1" class="highcharts-grid-line" d="M 201.5 139 L 201.5 351" opacity="1"></path><path fill="none" data-z-index="1" class="highcharts-grid-line" d="M 266.5 139 L 266.5 351" opacity="1"></path><path fill="none" data-z-index="1" class="highcharts-grid-line" d="M 331.5 139 L 331.5 351" opacity="1"></path><path fill="none" data-z-index="1" class="highcharts-grid-line" d="M 395.5 139 L 395.5 351" opacity="1"></path><path fill="none" data-z-index="1" class="highcharts-grid-line" d="M 460.5 139 L 460.5 351" opacity="1"></path><path fill="none" data-z-index="1" class="highcharts-grid-line" d="M 524.5 139 L 524.5 351" opacity="1"></path><path fill="none" data-z-index="1" class="highcharts-grid-line" d="M 589.5 139 L 589.5 351" opacity="1"></path><path fill="none" data-z-index="1" class="highcharts-grid-line" d="M 72.5 139 L 72.5 351" opacity="1"></path></g><g class="highcharts-grid highcharts-yaxis-grid" data-z-index="1"><path fill="none" stroke="#B9CFD7" stroke-width="0.5" data-z-index="1" class="highcharts-grid-line" d="M 73 351.25 L 590 351.25" opacity="1"></path><path fill="none" stroke="#B9CFD7" stroke-width="0.5" data-z-index="1" class="highcharts-grid-line" d="M 73 298.25 L 590 298.25" opacity="1"></path><path fill="none" stroke="#B9CFD7" stroke-width="0.5" data-z-index="1" class="highcharts-grid-line" d="M 73 245.25 L 590 245.25" opacity="1"></path><path fill="none" stroke="#B9CFD7" stroke-width="0.5" data-z-index="1" class="highcharts-grid-line" d="M 73 192.25 L 590 192.25" opacity="1"></path><path fill="none" stroke="#B9CFD7" stroke-width="0.5" data-z-index="1" class="highcharts-grid-line" d="M 73 138.75 L 590 138.75" opacity="1"></path></g><rect fill="none" class="highcharts-plot-border" data-z-index="1" x="73" y="139" width="517" height="212"></rect><g class="highcharts-axis highcharts-xaxis" data-z-index="2"><path fill="none" class="highcharts-axis-line" stroke="#B9CFD7" stroke-width="0.5" data-z-index="7" d="M 73 351.25 L 590 351.25"></path></g><g class="highcharts-axis highcharts-yaxis" data-z-index="2"><path fill="none" class="highcharts-axis-line" data-z-index="7" d="M 73 139 L 73 351"></path></g><g class="highcharts-series-group" data-z-index="3"><g class="highcharts-series highcharts-series-0 highcharts-column-series" data-z-index="0.1" opacity="1" transform="translate(73,139) scale(1 1)" clip-path="url(#highcharts-qp1vhp6-64-)"><rect x="10" y="144" width="11" height="69" fill="#cd9c00" opacity="1" class="highcharts-point"></rect><rect x="139" y="140" width="11" height="73" fill="#cd9c00" opacity="1" class="highcharts-point"></rect><rect x="204" y="143" width="11" height="70" fill="#cd9c00" opacity="1" class="highcharts-point"></rect><rect x="268" y="143" width="12" height="70" fill="#cd9c00" opacity="1" class="highcharts-point"></rect><rect x="333" y="144" width="11" height="69" fill="#cd9c00" opacity="1" class="highcharts-point"></rect><rect x="397" y="145" width="12" height="68" fill="#cd9c00" opacity="1" class="highcharts-point"></rect><rect x="462" y="143" width="11" height="70" fill="#cd9c00" opacity="1" class="highcharts-point"></rect></g><g class="highcharts-markers highcharts-series-0 highcharts-column-series" data-z-index="0.1" opacity="1" transform="translate(73,139) scale(1 1)" clip-path="none"></g><g class="highcharts-series highcharts-series-1 highcharts-column-series" data-z-index="0.1" opacity="1" transform="translate(73,139) scale(1 1)" clip-path="url(#highcharts-qp1vhp6-64-)"><rect x="21" y="44" width="11" height="169" fill="#7f5f1a" opacity="1" class="highcharts-point"></rect><rect x="150" y="39" width="12" height="174" fill="#7f5f1a" opacity="1" class="highcharts-point"></rect><rect x="215" y="38" width="11" height="175" fill="#7f5f1a" opacity="1" class="highcharts-point"></rect><rect x="280" y="38" width="11" height="175" fill="#7f5f1a" opacity="1" class="highcharts-point"></rect><rect x="344" y="78" width="11" height="135" fill="#7f5f1a" opacity="1" class="highcharts-point"></rect><rect x="409" y="78" width="11" height="135" fill="#7f5f1a" opacity="1" class="highcharts-point"></rect><rect x="473" y="78" width="12" height="135" fill="#7f5f1a" opacity="1" class="highcharts-point"></rect></g><g class="highcharts-markers highcharts-series-1 highcharts-column-series" data-z-index="0.1" opacity="1" transform="translate(73,139) scale(1 1)" clip-path="none"></g><g class="highcharts-series highcharts-series-2 highcharts-column-series" data-z-index="0.1" opacity="1" transform="translate(73,139) scale(1 1)" clip-path="url(#highcharts-qp1vhp6-64-)"><rect x="32" y="191" width="12" height="22" fill="#b375ab" opacity="1" class="highcharts-point"></rect><rect x="162" y="188" width="11" height="25" fill="#b375ab" opacity="1" class="highcharts-point"></rect><rect x="226" y="187" width="11" height="26" fill="#b375ab" opacity="1" class="highcharts-point"></rect><rect x="291" y="184" width="11" height="29" fill="#b375ab" opacity="1" class="highcharts-point"></rect><rect x="355" y="185" width="12" height="28" fill="#b375ab" opacity="1" class="highcharts-point"></rect><rect x="420" y="185" width="11" height="28" fill="#b375ab" opacity="1" class="highcharts-point"></rect><rect x="485" y="185" width="11" height="28" fill="#b375ab" opacity="1" class="highcharts-point"></rect></g><g class="highcharts-markers highcharts-series-2 highcharts-column-series" data-z-index="0.1" opacity="1" transform="translate(73,139) scale(1 1)" clip-path="none"></g><g class="highcharts-series highcharts-series-3 highcharts-column-series" data-z-index="0.1" opacity="1" transform="translate(73,139) scale(1 1)" clip-path="url(#highcharts-qp1vhp6-64-)"><rect x="44" y="153" width="11" height="60" fill="#923f8d" opacity="1" class="highcharts-point"></rect><rect x="173" y="155" width="11" height="58" fill="#923f8d" opacity="1" class="highcharts-point"></rect><rect x="237" y="154" width="12" height="59" fill="#923f8d" opacity="1" class="highcharts-point"></rect><rect x="302" y="155" width="11" height="58" fill="#923f8d" opacity="1" class="highcharts-point"></rect><rect x="367" y="121" width="11" height="92" fill="#923f8d" opacity="1" class="highcharts-point"></rect><rect x="431" y="123" width="12" height="90" fill="#923f8d" opacity="1" class="highcharts-point"></rect><rect x="496" y="118" width="11" height="95" fill="#923f8d" opacity="1" class="highcharts-point"></rect></g><g class="highcharts-markers highcharts-series-3 highcharts-column-series" data-z-index="0.1" opacity="1" transform="translate(73,139) scale(1 1)" clip-path="none"></g><g class="highcharts-series highcharts-series-4 highcharts-column-series" visibility="hidden" data-z-index="0.1" opacity="1" transform="translate(73,139) scale(1 1)" clip-path="url(#highcharts-qp1vhp6-64-)"></g><g class="highcharts-markers highcharts-series-4 highcharts-column-series" visibility="hidden" data-z-index="0.1" opacity="1" transform="translate(73,139) scale(1 1)" clip-path="none"></g><g class="highcharts-series highcharts-series-5 highcharts-column-series" visibility="hidden" data-z-index="0.1" opacity="1" transform="translate(73,139) scale(1 1)" clip-path="url(#highcharts-qp1vhp6-64-)"></g><g class="highcharts-markers highcharts-series-5 highcharts-column-series" visibility="hidden" data-z-index="0.1" opacity="1" transform="translate(73,139) scale(1 1)" clip-path="none"></g></g><text x="10" text-anchor="start" class="highcharts-caption" data-z-index="4" style="color:#666666;fill:#666666;" y="385"></text><g class="highcharts-legend" data-z-index="7" transform="translate(65,56)"><rect fill="none" class="highcharts-legend-box" rx="0" ry="0" x="0" y="0" width="336" height="71" visibility="visible"></rect><g data-z-index="1"><g><g class="highcharts-legend-item highcharts-column-series highcharts-color-undefined highcharts-series-0" data-z-index="1" transform="translate(8,3)"><text x="21" style="color:#333333;cursor:pointer;font-size:12px;font-weight:normal;fill:#333333;" text-anchor="start" data-z-index="2" y="15"><tspan>Wohnen Klybeck</tspan></text><rect x="2" y="4" width="12" height="12" fill="#cd9c00" class="highcharts-point" data-z-index="3"></rect></g><g class="highcharts-legend-item highcharts-column-series highcharts-color-undefined highcharts-series-1" data-z-index="1" transform="translate(178,3)"><text x="21" y="15" style="color:#333333;cursor:pointer;font-size:12px;font-weight:normal;fill:#333333;" text-anchor="start" data-z-index="2"><tspan>Arbeiten Klybeck</tspan></text><rect x="2" y="4" width="12" height="12" fill="#7f5f1a" class="highcharts-point" data-z-index="3"></rect></g><g class="highcharts-legend-item highcharts-column-series highcharts-color-undefined highcharts-series-2" data-z-index="1" transform="translate(8,23)"><text x="21" y="15" style="color:#333333;cursor:pointer;font-size:12px;font-weight:normal;fill:#333333;" text-anchor="start" data-z-index="2"><tspan>Wohnen Kleinhüningen</tspan></text><rect x="2" y="4" width="12" height="12" fill="#b375ab" class="highcharts-point" data-z-index="3"></rect></g><g class="highcharts-legend-item highcharts-column-series highcharts-color-undefined highcharts-series-3" data-z-index="1" transform="translate(178,23)"><text x="21" y="15" style="color:#333333;cursor:pointer;font-size:12px;font-weight:normal;fill:#333333;" text-anchor="start" data-z-index="2"><tspan>Arbeiten Kleinhüningen</tspan></text><rect x="2" y="4" width="12" height="12" fill="#923f8d" class="highcharts-point" data-z-index="3"></rect></g><g class="highcharts-legend-item highcharts-column-series highcharts-color-undefined highcharts-series-4 highcharts-legend-item-hidden" data-z-index="1" transform="translate(8,43)"><text x="21" y="15" style="color:#cccccc;cursor:pointer;font-size:12px;font-weight:normal;fill:#cccccc;" text-anchor="start" data-z-index="2"><tspan>Wohnen Basel</tspan></text><rect x="2" y="4" width="12" height="12" fill="#cccccc" class="highcharts-point" data-z-index="3"></rect></g><g class="highcharts-legend-item highcharts-column-series highcharts-color-undefined highcharts-series-5 highcharts-legend-item-hidden" data-z-index="1" transform="translate(178,43)"><text x="21" y="15" style="color:#cccccc;cursor:pointer;font-size:12px;font-weight:normal;fill:#cccccc;" text-anchor="start" data-z-index="2"><tspan>Arbeiten Basel</tspan></text><rect x="2" y="4" width="12" height="12" fill="#cccccc" class="highcharts-point" data-z-index="3"></rect></g></g></g></g><g class="highcharts-axis-labels highcharts-xaxis-labels" data-z-index="7"><text x="105.3125" style="color:#000000;cursor:default;font-size:11px;fill:#000000;" text-anchor="middle" transform="translate(0,0)" y="370" opacity="1">1995</text><text x="169.9375" style="color:#000000;cursor:default;font-size:11px;fill:#000000;" text-anchor="middle" transform="translate(0,0)" y="370" opacity="1"></text><text x="234.5625" style="color:#000000;cursor:default;font-size:11px;fill:#000000;" text-anchor="middle" transform="translate(0,0)" y="370" opacity="1">2005</text><text x="299.1875" style="color:#000000;cursor:default;font-size:11px;fill:#000000;" text-anchor="middle" transform="translate(0,0)" y="370" opacity="1">2010</text><text x="363.8125" style="color:#000000;cursor:default;font-size:11px;fill:#000000;" text-anchor="middle" transform="translate(0,0)" y="370" opacity="1">2015</text><text x="428.4375" style="color:#000000;cursor:default;font-size:11px;fill:#000000;" text-anchor="middle" transform="translate(0,0)" y="370" opacity="1">2020</text><text x="493.0625" style="color:#000000;cursor:default;font-size:11px;fill:#000000;" text-anchor="middle" transform="translate(0,0)" y="370" opacity="1">2021</text><text x="557.6875" style="color:#000000;cursor:default;font-size:11px;fill:#000000;" text-anchor="middle" transform="translate(0,0)" y="370" opacity="1">2022</text></g><g class="highcharts-axis-labels highcharts-yaxis-labels" data-z-index="7"><text x="58" style="color:#000000;cursor:default;font-size:11px;fill:#000000;" text-anchor="end" transform="translate(0,0)" y="355" opacity="1">0</text><text x="58" style="color:#000000;cursor:default;font-size:11px;fill:#000000;" text-anchor="end" transform="translate(0,0)" y="302" opacity="1"><tspan>250 000</tspan></text><text x="58" style="color:#000000;cursor:default;font-size:11px;fill:#000000;" text-anchor="end" transform="translate(0,0)" y="249" opacity="1"><tspan>500 000</tspan></text><text x="58" style="color:#000000;cursor:default;font-size:11px;fill:#000000;" text-anchor="end" transform="translate(0,0)" y="196" opacity="1"><tspan>750 000</tspan></text><text x="58" style="color:#000000;cursor:default;font-size:11px;fill:#000000;" text-anchor="end" transform="translate(0,0)" y="143" opacity="1"><tspan>1 000 000</tspan></text></g></svg>