<svg version="1.1" class="highcharts-root" style="font-family: Inter, &quot;Helvetica Neue&quot;, Helvetica, Arial, sans-serif; font-size: 1rem;" xmlns="http://www.w3.org/2000/svg" width="600" height="400" viewBox="0 0 600 400" role="img" aria-label="Quote der Haushalte mit Familienmietzinsbeiträgen und reiner Prämienverbilligung"><desc>Created with Highcharts 12.5.0</desc><defs><filter id="highcharts-drop-shadow-0"><feDropShadow dx="1" dy="1" flood-color="#000000" flood-opacity="0.75" stdDeviation="2.5"></feDropShadow></filter><clipPath id="highcharts-jbykryd-812-"><rect x="0" y="0" width="539" height="183" fill="none"></rect></clipPath></defs><rect fill="#ffffff" class="highcharts-background" filter="none" x="0" y="0" width="600" height="400" rx="0" ry="0"></rect><rect fill="none" class="highcharts-plot-background" x="51" y="122" width="539" height="183" filter="none"></rect><g class="highcharts-pane-group" data-z-index="0"></g><g class="highcharts-grid highcharts-xaxis-grid" data-z-index="1"><path fill="none" stroke="#e6e6e6" stroke-width="0" stroke-dasharray="none" data-z-index="1" class="highcharts-grid-line" d="M 56.5 122 L 56.5 305" opacity="1"></path><path fill="none" stroke="#e6e6e6" stroke-width="0" stroke-dasharray="none" data-z-index="1" class="highcharts-grid-line" d="M 100.5 122 L 100.5 305" opacity="1"></path><path fill="none" stroke="#e6e6e6" stroke-width="0" stroke-dasharray="none" data-z-index="1" class="highcharts-grid-line" d="M 144.5 122 L 144.5 305" opacity="1"></path><path fill="none" stroke="#e6e6e6" stroke-width="0" stroke-dasharray="none" data-z-index="1" class="highcharts-grid-line" d="M 188.5 122 L 188.5 305" opacity="1"></path><path fill="none" stroke="#e6e6e6" stroke-width="0" stroke-dasharray="none" data-z-index="1" class="highcharts-grid-line" d="M 232.5 122 L 232.5 305" opacity="1"></path><path fill="none" stroke="#e6e6e6" stroke-width="0" stroke-dasharray="none" data-z-index="1" class="highcharts-grid-line" d="M 276.5 122 L 276.5 305" opacity="1"></path><path fill="none" stroke="#e6e6e6" stroke-width="0" stroke-dasharray="none" data-z-index="1" class="highcharts-grid-line" d="M 320.5 122 L 320.5 305" opacity="1"></path><path fill="none" stroke="#e6e6e6" stroke-width="0" stroke-dasharray="none" data-z-index="1" class="highcharts-grid-line" d="M 364.5 122 L 364.5 305" opacity="1"></path><path fill="none" stroke="#e6e6e6" stroke-width="0" stroke-dasharray="none" data-z-index="1" class="highcharts-grid-line" d="M 408.5 122 L 408.5 305" opacity="1"></path><path fill="none" stroke="#e6e6e6" stroke-width="0" stroke-dasharray="none" data-z-index="1" class="highcharts-grid-line" d="M 452.5 122 L 452.5 305" opacity="1"></path><path fill="none" stroke="#e6e6e6" stroke-width="0" stroke-dasharray="none" data-z-index="1" class="highcharts-grid-line" d="M 496.5 122 L 496.5 305" opacity="1"></path><path fill="none" stroke="#e6e6e6" stroke-width="0" stroke-dasharray="none" data-z-index="1" class="highcharts-grid-line" d="M 540.5 122 L 540.5 305" opacity="1"></path><path fill="none" stroke="#e6e6e6" stroke-width="0" stroke-dasharray="none" data-z-index="1" class="highcharts-grid-line" d="M 584.5 122 L 584.5 305" opacity="1"></path></g><g class="highcharts-grid highcharts-yaxis-grid" data-z-index="1"><path fill="none" stroke="#B9CFD7" stroke-width="0.5" stroke-dasharray="none" data-z-index="1" class="highcharts-grid-line" d="M 51 305.25 L 590 305.25" opacity="1"></path><path fill="none" stroke="#B9CFD7" stroke-width="0.5" stroke-dasharray="none" data-z-index="1" class="highcharts-grid-line" d="M 51 259.25 L 590 259.25" opacity="1"></path><path fill="none" stroke="#B9CFD7" stroke-width="0.5" stroke-dasharray="none" data-z-index="1" class="highcharts-grid-line" d="M 51 213.25 L 590 213.25" opacity="1"></path><path fill="none" stroke="#B9CFD7" stroke-width="0.5" stroke-dasharray="none" data-z-index="1" class="highcharts-grid-line" d="M 51 168.25 L 590 168.25" opacity="1"></path><path fill="none" stroke="#B9CFD7" stroke-width="0.5" stroke-dasharray="none" data-z-index="1" class="highcharts-grid-line" d="M 51 122.25 L 590 122.25" opacity="1"></path></g><rect fill="none" class="highcharts-plot-border" data-z-index="1" stroke="#cccccc" stroke-width="0" x="51" y="122" width="539" height="183"></rect><g class="highcharts-axis highcharts-xaxis" data-z-index="2"><path fill="none" class="highcharts-axis-line" stroke="#B9CFD7" stroke-width="0.5" data-z-index="7" d="M 51 305.25 L 590 305.25"></path></g><g class="highcharts-axis highcharts-yaxis" data-z-index="2"><path fill="none" class="highcharts-axis-line" stroke="#B9CFD7" stroke-width="0" data-z-index="7" d="M 51 122 L 51 305"></path></g><g class="highcharts-series-group" data-z-index="3" filter="none"><g class="highcharts-series highcharts-series-0 highcharts-line-series" data-z-index="0.1" opacity="1" transform="translate(51,122) scale(1 1)" clip-path="url(#highcharts-jbykryd-812-)"><path fill="none" d="M 5.2843137254855 172.02 L 49.320261437905 168.36 L 93.356209150324 165.1575 L 137.39215686274 164.2425 L 181.42810457516 162.87 L 225.46405228758 161.04 L 269.5 161.4975 L 313.53594771242 161.04 L 357.57189542484 163.3275 L 401.60784313726 163.3275 L 445.64379084968 163.785 L 489.6797385621 164.7 L 533.71568627451 164.2425" class="highcharts-graph" data-z-index="1" stroke="#cd9c00" stroke-width="2" stroke-linejoin="round" stroke-linecap="round" filter="none"></path><path fill="none" d="M 5.2843137254855 172.02 L 49.320261437905 168.36 L 93.356209150324 165.1575 L 137.39215686274 164.2425 L 181.42810457516 162.87 L 225.46405228758 161.04 L 269.5 161.4975 L 313.53594771242 161.04 L 357.57189542484 163.3275 L 401.60784313726 163.3275 L 445.64379084968 163.785 L 489.6797385621 164.7 L 533.71568627451 164.2425" data-z-index="2" class="highcharts-tracker-line" stroke-linecap="round" stroke-linejoin="round" stroke="rgba(192,192,192,0.0001)" stroke-width="22"></path></g><g class="highcharts-markers highcharts-series-0 highcharts-line-series highcharts-tracker" data-z-index="0.1" opacity="1" transform="translate(51,122) scale(1 1)" clip-path="none"></g><g class="highcharts-series highcharts-series-1 highcharts-line-series" data-z-index="0.1" opacity="1" transform="translate(51,122) scale(1 1)" clip-path="url(#highcharts-jbykryd-812-)"><path fill="none" d="M 5.2843137254855 171.105 L 49.320261437905 167.9025 L 93.356209150324 165.615 L 137.39215686274 164.2425 L 181.42810457516 162.4125 L 225.46405228758 159.21 L 269.5 160.125 L 313.53594771242 159.6675 L 357.57189542484 161.955 L 401.60784313726 159.6675 L 445.64379084968 162.4125 L 489.6797385621 161.04 L 533.71568627451 161.955" class="highcharts-graph" data-z-index="1" stroke="#b375ab" stroke-width="2" stroke-linejoin="round" stroke-linecap="round" filter="none"></path><path fill="none" d="M 5.2843137254855 171.105 L 49.320261437905 167.9025 L 93.356209150324 165.615 L 137.39215686274 164.2425 L 181.42810457516 162.4125 L 225.46405228758 159.21 L 269.5 160.125 L 313.53594771242 159.6675 L 357.57189542484 161.955 L 401.60784313726 159.6675 L 445.64379084968 162.4125 L 489.6797385621 161.04 L 533.71568627451 161.955" data-z-index="2" class="highcharts-tracker-line" stroke-linecap="round" stroke-linejoin="round" stroke="rgba(192,192,192,0.0001)" stroke-width="22"></path></g><g class="highcharts-markers highcharts-series-1 highcharts-line-series highcharts-tracker" data-z-index="0.1" opacity="1" transform="translate(51,122) scale(1 1)" clip-path="none"></g><g class="highcharts-series highcharts-series-2 highcharts-line-series" data-z-index="0.1" opacity="1" transform="translate(51,122) scale(1 1)" clip-path="url(#highcharts-jbykryd-812-)"><path fill="none" d="M 5.2843137254855 82.35 L 49.320261437905 79.605 L 93.356209150324 77.775 L 137.39215686274 75.4875 L 181.42810457516 77.775 L 225.46405228758 73.6575 L 269.5 75.4875 L 313.53594771242 68.625 L 357.57189542484 59.9325 L 401.60784313726 55.815 L 445.64379084968 51.6975 L 489.6797385621 61.7625 L 533.71568627451 62.22" class="highcharts-graph" data-z-index="1" stroke="#7f5f1a" stroke-width="2" stroke-linejoin="round" stroke-linecap="round" filter="none"></path><path fill="none" d="M 5.2843137254855 82.35 L 49.320261437905 79.605 L 93.356209150324 77.775 L 137.39215686274 75.4875 L 181.42810457516 77.775 L 225.46405228758 73.6575 L 269.5 75.4875 L 313.53594771242 68.625 L 357.57189542484 59.9325 L 401.60784313726 55.815 L 445.64379084968 51.6975 L 489.6797385621 61.7625 L 533.71568627451 62.22" data-z-index="2" class="highcharts-tracker-line" stroke-linecap="round" stroke-linejoin="round" stroke="rgba(192,192,192,0.0001)" stroke-width="22"></path></g><g class="highcharts-markers highcharts-series-2 highcharts-line-series highcharts-tracker" data-z-index="0.1" opacity="1" transform="translate(51,122) scale(1 1)" clip-path="none"></g><g class="highcharts-series highcharts-series-3 highcharts-line-series" data-z-index="0.1" opacity="1" transform="translate(51,122) scale(1 1)" clip-path="url(#highcharts-jbykryd-812-)"><path fill="none" d="M 5.2843137254855 91.5 L 49.320261437905 95.16 L 93.356209150324 94.7025 L 137.39215686274 91.9575 L 181.42810457516 86.925 L 225.46405228758 80.0625 L 269.5 76.4025 L 313.53594771242 76.4025 L 357.57189542484 68.625 L 401.60784313726 64.965 L 445.64379084968 59.475 L 489.6797385621 59.9325 L 533.71568627451 65.88" class="highcharts-graph" data-z-index="1" stroke="#923f8d" stroke-width="2" stroke-linejoin="round" stroke-linecap="round" filter="none"></path><path fill="none" d="M 5.2843137254855 91.5 L 49.320261437905 95.16 L 93.356209150324 94.7025 L 137.39215686274 91.9575 L 181.42810457516 86.925 L 225.46405228758 80.0625 L 269.5 76.4025 L 313.53594771242 76.4025 L 357.57189542484 68.625 L 401.60784313726 64.965 L 445.64379084968 59.475 L 489.6797385621 59.9325 L 533.71568627451 65.88" data-z-index="2" class="highcharts-tracker-line" stroke-linecap="round" stroke-linejoin="round" stroke="rgba(192,192,192,0.0001)" stroke-width="22"></path></g><g class="highcharts-markers highcharts-series-3 highcharts-line-series highcharts-tracker" data-z-index="0.1" opacity="1" transform="translate(51,122) scale(1 1)" clip-path="none"></g></g><text x="10" text-anchor="start" class="highcharts-caption" data-z-index="4" style="font-size: 0.8em; fill: rgb(102, 102, 102);" text-align="left" y="347" transform-origin="10 15" transform="translate(0,0) scale(1 1)"></text><g class="highcharts-axis-labels highcharts-xaxis-labels" data-z-index="7"><text x="56.284313725486" text-anchor="middle" transform="translate(0,0)" style="cursor: default; font-size: 0.8em; fill: rgb(0, 0, 0);" y="332" opacity="1">2011</text><text x="100.32026143791" text-anchor="middle" transform="translate(0,0)" style="cursor: default; font-size: 0.8em; fill: rgb(0, 0, 0);" y="332" opacity="1">2012</text><text x="144.35620915032" text-anchor="middle" transform="translate(0,0)" style="cursor: default; font-size: 0.8em; fill: rgb(0, 0, 0);" y="332" opacity="1">2013</text><text x="188.39215686274" text-anchor="middle" transform="translate(0,0)" style="cursor: default; font-size: 0.8em; fill: rgb(0, 0, 0);" y="332" opacity="1">2014</text><text x="232.42810457516" text-anchor="middle" transform="translate(0,0)" style="cursor: default; font-size: 0.8em; fill: rgb(0, 0, 0);" y="332" opacity="1">2015</text><text x="276.46405228758" text-anchor="middle" transform="translate(0,0)" style="cursor: default; font-size: 0.8em; fill: rgb(0, 0, 0);" y="332" opacity="1">2016</text><text x="320.5" text-anchor="middle" transform="translate(0,0)" style="cursor: default; font-size: 0.8em; fill: rgb(0, 0, 0);" y="332" opacity="1">2017</text><text x="364.53594771242" text-anchor="middle" transform="translate(0,0)" style="cursor: default; font-size: 0.8em; fill: rgb(0, 0, 0);" y="332" opacity="1">2018</text><text x="408.57189542484" text-anchor="middle" transform="translate(0,0)" style="cursor: default; font-size: 0.8em; fill: rgb(0, 0, 0);" y="332" opacity="1">2019</text><text x="452.60784313726" text-anchor="middle" transform="translate(0,0)" style="cursor: default; font-size: 0.8em; fill: rgb(0, 0, 0);" y="332" opacity="1">2020</text><text x="496.64379084968" text-anchor="middle" transform="translate(0,0)" style="cursor: default; font-size: 0.8em; fill: rgb(0, 0, 0);" y="332" opacity="1">2021</text><text x="540.6797385621" text-anchor="middle" transform="translate(0,0)" style="cursor: default; font-size: 0.8em; fill: rgb(0, 0, 0);" y="332" opacity="1">2022</text><text x="576.234375" text-anchor="middle" transform="translate(0,0)" style="cursor: default; font-size: 0.8em; fill: rgb(0, 0, 0);" y="332" opacity="1">2023</text></g><g class="highcharts-axis-labels highcharts-yaxis-labels" data-z-index="7"><text x="36" text-anchor="end" transform="translate(0,0)" style="cursor: default; font-size: 0.8em; fill: rgb(0, 0, 0);" y="310" opacity="1">0%</text><text x="36" text-anchor="end" transform="translate(0,0)" style="cursor: default; font-size: 0.8em; fill: rgb(0, 0, 0);" y="264" opacity="1">10%</text><text x="36" text-anchor="end" transform="translate(0,0)" style="cursor: default; font-size: 0.8em; fill: rgb(0, 0, 0);" y="218" opacity="1">20%</text><text x="36" text-anchor="end" transform="translate(0,0)" style="cursor: default; font-size: 0.8em; fill: rgb(0, 0, 0);" y="172" opacity="1">30%</text><text x="36" text-anchor="end" transform="translate(0,0)" style="cursor: default; font-size: 0.8em; fill: rgb(0, 0, 0);" y="127" opacity="1">40%</text></g><g class="highcharts-legend highcharts-no-tooltip" data-z-index="7" text-align="left" transform="translate(43,55)"><rect fill="none" class="highcharts-legend-box" rx="0" ry="0" stroke="#999999" stroke-width="0" filter="none" x="0" y="0" width="385" height="55"></rect><g data-z-index="1"><g><g class="highcharts-legend-item highcharts-line-series highcharts-color-undefined highcharts-series-0" data-z-index="1" transform="translate(8,3)"><path fill="none" class="highcharts-graph" stroke-width="2" stroke-linecap="round" d="M 1 13 L 15 13" stroke="#cd9c00"></path><text x="21" text-anchor="start" data-z-index="2" style="cursor: pointer; font-size: 0.8em; text-decoration: none; font-weight: normal; fill: rgb(51, 51, 51);" y="17">FAMI-Quote Klybeck</text></g><g class="highcharts-legend-item highcharts-line-series highcharts-color-undefined highcharts-series-1" data-z-index="1" transform="translate(202.703125,3)"><path fill="none" class="highcharts-graph" stroke-width="2" stroke-linecap="round" d="M 1 13 L 15 13" stroke="#b375ab"></path><text x="21" y="17" text-anchor="start" data-z-index="2" style="cursor: pointer; font-size: 0.8em; text-decoration: none; font-weight: normal; fill: rgb(51, 51, 51);">FAMI-Quote Kleinhüningen</text></g><g class="highcharts-legend-item highcharts-line-series highcharts-color-undefined highcharts-series-2" data-z-index="1" transform="translate(8,25)"><path fill="none" class="highcharts-graph" stroke-width="2" stroke-linecap="round" d="M 1 13 L 15 13" stroke="#7f5f1a"></path><text x="21" y="17" text-anchor="start" data-z-index="2" style="cursor: pointer; font-size: 0.8em; text-decoration: none; font-weight: normal; fill: rgb(51, 51, 51);">PV-Quote Klybeck</text></g><g class="highcharts-legend-item highcharts-line-series highcharts-color-undefined highcharts-series-3" data-z-index="1" transform="translate(202.703125,25)"><path fill="none" class="highcharts-graph" stroke-width="2" stroke-linecap="round" d="M 1 13 L 15 13" stroke="#923f8d"></path><text x="21" y="17" text-anchor="start" data-z-index="2" style="cursor: pointer; font-size: 0.8em; text-decoration: none; font-weight: normal; fill: rgb(51, 51, 51);">PV-Quote Kleinhüningen</text></g></g></g></g></svg>