<svg version="1.1" class="highcharts-root" style="font-family: Inter, &quot;Helvetica Neue&quot;, Helvetica, Arial, sans-serif; font-size: 1rem;" xmlns="http://www.w3.org/2000/svg" width="600" height="400" viewBox="0 0 600 400" role="img" aria-label="Personenwagen pro Haushalt, Motorisierungsgrad"><desc>Created with Highcharts 12.5.0</desc><defs><filter id="highcharts-drop-shadow-0"><feDropShadow dx="1" dy="1" flood-color="#000000" flood-opacity="0.75" stdDeviation="2.5"></feDropShadow></filter><clipPath id="highcharts-jbykryd-134-"><rect x="0" y="0" width="511" height="183" fill="none"></rect></clipPath><clipPath id="highcharts-jbykryd-151-"><rect x="0" y="0" width="511" height="183" fill="none"></rect></clipPath></defs><rect fill="#ffffff" class="highcharts-background" filter="none" x="0" y="0" width="600" height="400" rx="0" ry="0"></rect><rect fill="none" class="highcharts-plot-background" x="43" y="122" width="511" height="183" filter="none"></rect><g class="highcharts-pane-group" data-z-index="0"></g><g class="highcharts-grid highcharts-xaxis-grid" data-z-index="1"><path fill="none" stroke="#e6e6e6" stroke-width="0" stroke-dasharray="none" data-z-index="1" class="highcharts-grid-line" d="M 78.5 122 L 78.5 305" opacity="1"></path><path fill="none" stroke="#e6e6e6" stroke-width="0" stroke-dasharray="none" data-z-index="1" class="highcharts-grid-line" d="M 141.5 122 L 141.5 305" opacity="1"></path><path fill="none" stroke="#e6e6e6" stroke-width="0" stroke-dasharray="none" data-z-index="1" class="highcharts-grid-line" d="M 204.5 122 L 204.5 305" opacity="1"></path><path fill="none" stroke="#e6e6e6" stroke-width="0" stroke-dasharray="none" data-z-index="1" class="highcharts-grid-line" d="M 267.5 122 L 267.5 305" opacity="1"></path><path fill="none" stroke="#e6e6e6" stroke-width="0" stroke-dasharray="none" data-z-index="1" class="highcharts-grid-line" d="M 329.5 122 L 329.5 305" opacity="1"></path><path fill="none" stroke="#e6e6e6" stroke-width="0" stroke-dasharray="none" data-z-index="1" class="highcharts-grid-line" d="M 392.5 122 L 392.5 305" opacity="1"></path><path fill="none" stroke="#e6e6e6" stroke-width="0" stroke-dasharray="none" data-z-index="1" class="highcharts-grid-line" d="M 455.5 122 L 455.5 305" opacity="1"></path><path fill="none" stroke="#e6e6e6" stroke-width="0" stroke-dasharray="none" data-z-index="1" class="highcharts-grid-line" d="M 518.5 122 L 518.5 305" opacity="1"></path></g><g class="highcharts-grid highcharts-yaxis-grid" data-z-index="1"><path fill="none" stroke="#B9CFD7" stroke-width="0.5" stroke-dasharray="none" data-z-index="1" class="highcharts-grid-line" d="M 43 305.25 L 554 305.25" opacity="1"></path><path fill="none" stroke="#B9CFD7" stroke-width="0.5" stroke-dasharray="none" data-z-index="1" class="highcharts-grid-line" d="M 43 244.25 L 554 244.25" opacity="1"></path><path fill="none" stroke="#B9CFD7" stroke-width="0.5" stroke-dasharray="none" data-z-index="1" class="highcharts-grid-line" d="M 43 183.25 L 554 183.25" opacity="1"></path><path fill="none" stroke="#B9CFD7" stroke-width="0.5" stroke-dasharray="none" data-z-index="1" class="highcharts-grid-line" d="M 43 122.25 L 554 122.25" opacity="1"></path></g><g class="highcharts-grid highcharts-yaxis-grid" data-z-index="1"><path fill="none" stroke="#B9CFD7" stroke-width="0.5" stroke-dasharray="none" data-z-index="1" class="highcharts-grid-line" d="M 43 305.25 L 554 305.25" opacity="1"></path><path fill="none" stroke="#B9CFD7" stroke-width="0.5" stroke-dasharray="none" data-z-index="1" class="highcharts-grid-line" d="M 43 244.25 L 554 244.25" opacity="1"></path><path fill="none" stroke="#B9CFD7" stroke-width="0.5" stroke-dasharray="none" data-z-index="1" class="highcharts-grid-line" d="M 43 183.25 L 554 183.25" opacity="1"></path><path fill="none" stroke="#B9CFD7" stroke-width="0.5" stroke-dasharray="none" data-z-index="1" class="highcharts-grid-line" d="M 43 122.25 L 554 122.25" opacity="1"></path></g><rect fill="none" class="highcharts-plot-border" data-z-index="1" stroke="#cccccc" stroke-width="0" x="43" y="122" width="511" height="183"></rect><g class="highcharts-axis highcharts-xaxis" data-z-index="2"><path fill="none" class="highcharts-axis-line" stroke="#B9CFD7" stroke-width="0.5" data-z-index="7" d="M 43 305.25 L 554 305.25"></path></g><g class="highcharts-axis highcharts-yaxis" data-z-index="2"><path fill="none" class="highcharts-axis-line" stroke="#333333" stroke-width="0" data-z-index="7" d="M 43 122 L 43 305"></path></g><g class="highcharts-axis highcharts-yaxis" data-z-index="2"><path fill="none" class="highcharts-axis-line" stroke="#333333" stroke-width="0" data-z-index="7" d="M 554 122 L 554 305"></path></g><g class="highcharts-series-group" data-z-index="3" filter="none"><g class="highcharts-series highcharts-series-0 highcharts-column-series highcharts-tracker" data-z-index="0.1" opacity="1" transform="translate(43,122) scale(1 1)" clip-path="url(#highcharts-jbykryd-134-)"><path fill="#cd9c00" d="M 21 56 L 26 56 A 3 3 0 0 1 29 59 L 29 183 A 0 0 0 0 1 29 183 L 18 183 A 0 0 0 0 1 18 183 L 18 59 A 3 3 0 0 1 21 56 Z" stroke="#ffffff" stroke-width="0" opacity="1" filter="none" class="highcharts-point"></path><path fill="#cd9c00" d="M 84 61 L 89 61 A 3 3 0 0 1 92 64 L 92 183 A 0 0 0 0 1 92 183 L 81 183 A 0 0 0 0 1 81 183 L 81 64 A 3 3 0 0 1 84 61 Z" stroke="#ffffff" stroke-width="0" opacity="1" filter="none" class="highcharts-point"></path><path fill="#cd9c00" d="M 147 61 L 152 61 A 3 3 0 0 1 155 64 L 155 183 A 0 0 0 0 1 155 183 L 144 183 A 0 0 0 0 1 144 183 L 144 64 A 3 3 0 0 1 147 61 Z" stroke="#ffffff" stroke-width="0" opacity="1" filter="none" class="highcharts-point"></path><path fill="#cd9c00" d="M 210 63 L 215 63 A 3 3 0 0 1 218 66 L 218 183 A 0 0 0 0 1 218 183 L 207 183 A 0 0 0 0 1 207 183 L 207 66 A 3 3 0 0 1 210 63 Z" stroke="#ffffff" stroke-width="0" opacity="1" filter="none" class="highcharts-point"></path><path fill="#cd9c00" d="M 272 68 L 277 68 A 3 3 0 0 1 280 71 L 280 183 A 0 0 0 0 1 280 183 L 269 183 A 0 0 0 0 1 269 183 L 269 71 A 3 3 0 0 1 272 68 Z" stroke="#ffffff" stroke-width="0" opacity="1" filter="none" class="highcharts-point"></path><path fill="#cd9c00" d="M 335 66 L 340 66 A 3 3 0 0 1 343 69 L 343 183 A 0 0 0 0 1 343 183 L 332 183 A 0 0 0 0 1 332 183 L 332 69 A 3 3 0 0 1 335 66 Z" stroke="#ffffff" stroke-width="0" opacity="1" filter="none" class="highcharts-point"></path><path fill="#cd9c00" d="M 398 71 L 403 71 A 3 3 0 0 1 406 74 L 406 183 A 0 0 0 0 1 406 183 L 395 183 A 0 0 0 0 1 395 183 L 395 74 A 3 3 0 0 1 398 71 Z" stroke="#ffffff" stroke-width="0" opacity="1" filter="none" class="highcharts-point"></path><path fill="#cd9c00" d="M 461 71 L 466 71 A 3 3 0 0 1 469 74 L 469 183 A 0 0 0 0 1 469 183 L 458 183 A 0 0 0 0 1 458 183 L 458 74 A 3 3 0 0 1 461 71 Z" stroke="#ffffff" stroke-width="0" opacity="1" filter="none" class="highcharts-point"></path></g><g class="highcharts-markers highcharts-series-0 highcharts-column-series" data-z-index="0.1" opacity="1" transform="translate(43,122) scale(1 1)" clip-path="none"></g><g class="highcharts-series highcharts-series-1 highcharts-column-series highcharts-tracker" data-z-index="0.1" opacity="1" transform="translate(43,122) scale(1 1)" clip-path="url(#highcharts-jbykryd-134-)"><path fill="#b375ab" d="M 34 37 L 39 37 A 3 3 0 0 1 42 40 L 42 183 A 0 0 0 0 1 42 183 L 31 183 A 0 0 0 0 1 31 183 L 31 40 A 3 3 0 0 1 34 37 Z" stroke="#ffffff" stroke-width="0" opacity="1" filter="none" class="highcharts-point"></path><path fill="#b375ab" d="M 97 39 L 102 39 A 3 3 0 0 1 105 42 L 105 183 A 0 0 0 0 1 105 183 L 94 183 A 0 0 0 0 1 94 183 L 94 42 A 3 3 0 0 1 97 39 Z" stroke="#ffffff" stroke-width="0" opacity="1" filter="none" class="highcharts-point"></path><path fill="#b375ab" d="M 159 44 L 164 44 A 3 3 0 0 1 167 47 L 167 183 A 0 0 0 0 1 167 183 L 156 183 A 0 0 0 0 1 156 183 L 156 47 A 3 3 0 0 1 159 44 Z" stroke="#ffffff" stroke-width="0" opacity="1" filter="none" class="highcharts-point"></path><path fill="#b375ab" d="M 222 46 L 227 46 A 3 3 0 0 1 230 49 L 230 183 A 0 0 0 0 1 230 183 L 219 183 A 0 0 0 0 1 219 183 L 219 49 A 3 3 0 0 1 222 46 Z" stroke="#ffffff" stroke-width="0" opacity="1" filter="none" class="highcharts-point"></path><path fill="#b375ab" d="M 285 51 L 290 51 A 3 3 0 0 1 293 54 L 293 183 A 0 0 0 0 1 293 183 L 282 183 A 0 0 0 0 1 282 183 L 282 54 A 3 3 0 0 1 285 51 Z" stroke="#ffffff" stroke-width="0" opacity="1" filter="none" class="highcharts-point"></path><path fill="#b375ab" d="M 348 39 L 353 39 A 3 3 0 0 1 356 42 L 356 183 A 0 0 0 0 1 356 183 L 345 183 A 0 0 0 0 1 345 183 L 345 42 A 3 3 0 0 1 348 39 Z" stroke="#ffffff" stroke-width="0" opacity="1" filter="none" class="highcharts-point"></path><path fill="#b375ab" d="M 410 51 L 415 51 A 3 3 0 0 1 418 54 L 418 183 A 0 0 0 0 1 418 183 L 407 183 A 0 0 0 0 1 407 183 L 407 54 A 3 3 0 0 1 410 51 Z" stroke="#ffffff" stroke-width="0" opacity="1" filter="none" class="highcharts-point"></path><path fill="#b375ab" d="M 473 44 L 478 44 A 3 3 0 0 1 481 47 L 481 183 A 0 0 0 0 1 481 183 L 470 183 A 0 0 0 0 1 470 183 L 470 47 A 3 3 0 0 1 473 44 Z" stroke="#ffffff" stroke-width="0" opacity="1" filter="none" class="highcharts-point"></path></g><g class="highcharts-markers highcharts-series-1 highcharts-column-series" data-z-index="0.1" opacity="1" transform="translate(43,122) scale(1 1)" clip-path="none"></g><g class="highcharts-series highcharts-series-2 highcharts-line-series" data-z-index="0.1" opacity="1" transform="translate(43,122) scale(1 1)" clip-path="url(#highcharts-jbykryd-151-)"><path fill="none" d="M 35.782555282552 39.772 L 98.558968058966 38.43 L 161.33538083538 38.735 L 224.11179361179 39.711 L 286.88820638821 44.713 L 349.66461916462 44.896 L 412.44103194103 48.007 L 475.21744471745 48.922" class="highcharts-graph" data-z-index="1" stroke="#7f5f1a" stroke-width="2" stroke-linejoin="round" stroke-linecap="round" filter="none"></path><path fill="none" d="M 35.782555282552 39.772 L 98.558968058966 38.43 L 161.33538083538 38.735 L 224.11179361179 39.711 L 286.88820638821 44.713 L 349.66461916462 44.896 L 412.44103194103 48.007 L 475.21744471745 48.922" data-z-index="2" class="highcharts-tracker-line" stroke-linecap="round" stroke-linejoin="round" stroke="rgba(192,192,192,0.0001)" stroke-width="22"></path></g><g class="highcharts-markers highcharts-series-2 highcharts-line-series highcharts-tracker" data-z-index="0.1" opacity="1" transform="translate(43,122) scale(1 1)" clip-path="none"></g><g class="highcharts-series highcharts-series-3 highcharts-line-series" data-z-index="0.1" opacity="1" transform="translate(43,122) scale(1 1)" clip-path="url(#highcharts-jbykryd-151-)"><path fill="none" d="M 35.782555282552 27.999 L 98.558968058966 19.642 L 161.33538083538 27.145 L 224.11179361179 28.914 L 286.88820638821 33.855 L 349.66461916462 22.753 L 412.44103194103 36.173 L 475.21744471745 26.657" class="highcharts-graph" data-z-index="1" stroke="#923f8d" stroke-width="2" stroke-linejoin="round" stroke-linecap="round" filter="none"></path><path fill="none" d="M 35.782555282552 27.999 L 98.558968058966 19.642 L 161.33538083538 27.145 L 224.11179361179 28.914 L 286.88820638821 33.855 L 349.66461916462 22.753 L 412.44103194103 36.173 L 475.21744471745 26.657" data-z-index="2" class="highcharts-tracker-line" stroke-linecap="round" stroke-linejoin="round" stroke="rgba(192,192,192,0.0001)" stroke-width="22"></path></g><g class="highcharts-markers highcharts-series-3 highcharts-line-series highcharts-tracker" data-z-index="0.1" opacity="1" transform="translate(43,122) scale(1 1)" clip-path="none"></g><g class="highcharts-series highcharts-series-4 highcharts-column-series highcharts-tracker" data-z-index="0.1" opacity="1" transform="translate(43,122) scale(1 1)" clip-path="url(#highcharts-jbykryd-134-)"><path fill="#8A8A8A" d="M 46 63 L 51 63 A 3 3 0 0 1 54 66 L 54 183 A 0 0 0 0 1 54 183 L 43 183 A 0 0 0 0 1 43 183 L 43 66 A 3 3 0 0 1 46 63 Z" stroke="#ffffff" stroke-width="0" opacity="1" filter="none" class="highcharts-point"></path><path fill="#8A8A8A" d="M 109 71 L 114 71 A 3 3 0 0 1 117 74 L 117 183 A 0 0 0 0 1 117 183 L 106 183 A 0 0 0 0 1 106 183 L 106 74 A 3 3 0 0 1 109 71 Z" stroke="#ffffff" stroke-width="0" opacity="1" filter="none" class="highcharts-point"></path><path fill="#8A8A8A" d="M 172 71 L 177 71 A 3 3 0 0 1 180 74 L 180 183 A 0 0 0 0 1 180 183 L 169 183 A 0 0 0 0 1 169 183 L 169 74 A 3 3 0 0 1 172 71 Z" stroke="#ffffff" stroke-width="0" opacity="1" filter="none" class="highcharts-point"></path><path fill="#8A8A8A" d="M 235 71 L 240 71 A 3 3 0 0 1 243 74 L 243 183 A 0 0 0 0 1 243 183 L 232 183 A 0 0 0 0 1 232 183 L 232 74 A 3 3 0 0 1 235 71 Z" stroke="#ffffff" stroke-width="0" opacity="1" filter="none" class="highcharts-point"></path><path fill="#8A8A8A" d="M 297 73 L 302 73 A 3 3 0 0 1 305 76 L 305 183 A 0 0 0 0 1 305 183 L 294 183 A 0 0 0 0 1 294 183 L 294 76 A 3 3 0 0 1 297 73 Z" stroke="#ffffff" stroke-width="0" opacity="1" filter="none" class="highcharts-point"></path><path fill="#8A8A8A" d="M 360 71 L 365 71 A 3 3 0 0 1 368 74 L 368 183 A 0 0 0 0 1 368 183 L 357 183 A 0 0 0 0 1 357 183 L 357 74 A 3 3 0 0 1 360 71 Z" stroke="#ffffff" stroke-width="0" opacity="1" filter="none" class="highcharts-point"></path><path fill="#8A8A8A" d="M 423 73 L 428 73 A 3 3 0 0 1 431 76 L 431 183 A 0 0 0 0 1 431 183 L 420 183 A 0 0 0 0 1 420 183 L 420 76 A 3 3 0 0 1 423 73 Z" stroke="#ffffff" stroke-width="0" opacity="1" filter="none" class="highcharts-point"></path><path fill="#8A8A8A" d="M 486 71 L 491 71 A 3 3 0 0 1 494 74 L 494 183 A 0 0 0 0 1 494 183 L 483 183 A 0 0 0 0 1 483 183 L 483 74 A 3 3 0 0 1 486 71 Z" stroke="#ffffff" stroke-width="0" opacity="1" filter="none" class="highcharts-point"></path></g><g class="highcharts-markers highcharts-series-4 highcharts-column-series" data-z-index="0.1" opacity="1" transform="translate(43,122) scale(1 1)" clip-path="none"></g><g class="highcharts-series highcharts-series-5 highcharts-line-series" data-z-index="0.1" opacity="1" transform="translate(43,122) scale(1 1)" clip-path="url(#highcharts-jbykryd-151-)"><path fill="none" d="M 35.782555282552 39.467 L 98.558968058966 37.637 L 161.33538083538 37.515 L 224.11179361179 40.016 L 286.88820638821 43.371 L 349.66461916462 40.016 L 412.44103194103 43.859 L 475.21744471745 41.358" class="highcharts-graph" data-z-index="1" stroke="#777777" stroke-width="2" stroke-linejoin="round" stroke-linecap="round" filter="none"></path><path fill="none" d="M 35.782555282552 39.467 L 98.558968058966 37.637 L 161.33538083538 37.515 L 224.11179361179 40.016 L 286.88820638821 43.371 L 349.66461916462 40.016 L 412.44103194103 43.859 L 475.21744471745 41.358" data-z-index="2" class="highcharts-tracker-line" stroke-linecap="round" stroke-linejoin="round" stroke="rgba(192,192,192,0.0001)" stroke-width="22"></path></g><g class="highcharts-markers highcharts-series-5 highcharts-line-series highcharts-tracker" data-z-index="0.1" opacity="1" transform="translate(43,122) scale(1 1)" clip-path="none"></g></g><text x="10" text-anchor="start" class="highcharts-caption" data-z-index="4" style="font-size: 0.8em; fill: rgb(102, 102, 102);" text-align="left" y="347" transform-origin="10 15" transform="translate(0,0) scale(1 1)"></text><g class="highcharts-legend highcharts-no-tooltip" data-z-index="7" text-align="right" transform="translate(342,5)" style="visibility: inherit;"><rect fill="none" class="highcharts-legend-box" rx="0" ry="0" stroke="#999999" stroke-width="0" filter="none" x="0" y="0" width="248" height="105"></rect><g data-z-index="1" transform="translate(0,50)"><g><g class="highcharts-legend-item highcharts-column-series highcharts-color-undefined highcharts-series-0" data-z-index="1" transform="translate(8,3)"><rect x="2" y="6" rx="0" ry="0" width="12" height="12" fill="#cd9c00" class="highcharts-point" data-z-index="3"></rect></g><g class="highcharts-legend-item highcharts-column-series highcharts-color-undefined highcharts-series-1" data-z-index="1" transform="translate(83,3)"><rect x="2" y="6" rx="0" ry="0" width="12" height="12" fill="#b375ab" class="highcharts-point" data-z-index="3"></rect></g><g class="highcharts-legend-item highcharts-column-series highcharts-color-undefined highcharts-series-4" data-z-index="1" transform="translate(158,3)"><rect x="2" y="6" rx="0" ry="0" width="12" height="12" fill="#8A8A8A" class="highcharts-point" data-z-index="3"></rect></g><g class="highcharts-legend-item highcharts-line-series highcharts-color-undefined highcharts-series-2" data-z-index="1" transform="translate(8,25)"><path fill="none" class="highcharts-graph" stroke-width="2" stroke-linecap="round" d="M 1 13 L 15 13" stroke="#7f5f1a"></path></g><g class="highcharts-legend-item highcharts-line-series highcharts-color-undefined highcharts-series-3" data-z-index="1" transform="translate(83,25)"><path fill="none" class="highcharts-graph" stroke-width="2" stroke-linecap="round" d="M 1 13 L 15 13" stroke="#923f8d"></path></g><g class="highcharts-legend-item highcharts-line-series highcharts-color-undefined highcharts-series-5" data-z-index="1" transform="translate(158,25)"><path fill="none" class="highcharts-graph" stroke-width="2" stroke-linecap="round" d="M 1 13 L 15 13" stroke="#777777"></path></g></g></g><g class="highcharts-label highcharts-legend-title" data-z-index="1" transform="translate(-190,46)"></g></g><g class="highcharts-axis-labels highcharts-xaxis-labels" data-z-index="7"><text x="78.782555282552" text-anchor="middle" transform="translate(0,0)" style="cursor: default; font-size: 0.8em; fill: rgb(0, 0, 0);" y="332" opacity="1">2010</text><text x="141.55896805897" text-anchor="middle" transform="translate(0,0)" style="cursor: default; font-size: 0.8em; fill: rgb(0, 0, 0);" y="332" opacity="1">2011</text><text x="204.33538083538" text-anchor="middle" transform="translate(0,0)" style="cursor: default; font-size: 0.8em; fill: rgb(0, 0, 0);" y="332" opacity="1">2012</text><text x="267.11179361179" text-anchor="middle" transform="translate(0,0)" style="cursor: default; font-size: 0.8em; fill: rgb(0, 0, 0);" y="332" opacity="1">2013</text><text x="329.88820638821" text-anchor="middle" transform="translate(0,0)" style="cursor: default; font-size: 0.8em; fill: rgb(0, 0, 0);" y="332" opacity="1">2014</text><text x="392.66461916462" text-anchor="middle" transform="translate(0,0)" style="cursor: default; font-size: 0.8em; fill: rgb(0, 0, 0);" y="332" opacity="1">2015</text><text x="455.44103194103" text-anchor="middle" transform="translate(0,0)" style="cursor: default; font-size: 0.8em; fill: rgb(0, 0, 0);" y="332" opacity="1">2016</text><text x="518.21744471745" text-anchor="middle" transform="translate(0,0)" style="cursor: default; font-size: 0.8em; fill: rgb(0, 0, 0);" y="332" opacity="1">2017</text></g><g class="highcharts-axis-labels highcharts-yaxis-labels" data-z-index="7"></g><g class="highcharts-axis-labels highcharts-yaxis-labels" data-z-index="7"><text x="569" text-anchor="start" transform="translate(0,0)" style="cursor: default; font-size: 0.8em; fill: rgb(0, 0, 0);" y="310" opacity="1">0</text><text x="569" text-anchor="start" transform="translate(0,0)" style="cursor: default; font-size: 0.8em; fill: rgb(0, 0, 0);" y="249" opacity="1">100</text><text x="569" text-anchor="start" transform="translate(0,0)" style="cursor: default; font-size: 0.8em; fill: rgb(0, 0, 0);" y="188" opacity="1">200</text><text x="569" text-anchor="start" transform="translate(0,0)" style="cursor: default; font-size: 0.8em; fill: rgb(0, 0, 0);" y="127" opacity="1">300</text></g></svg>