<svg version="1.1" class="highcharts-root" style="font-family: Inter, &quot;Helvetica Neue&quot;, Helvetica, Arial, sans-serif; font-size: 1rem;" xmlns="http://www.w3.org/2000/svg" width="600" height="400" viewBox="0 0 600 400" role="img" aria-label="Freiraumfläche"><desc>Created with Highcharts 12.5.0</desc><defs><filter id="highcharts-drop-shadow-0"><feDropShadow dx="1" dy="1" flood-color="#000000" flood-opacity="0.75" stdDeviation="2.5"></feDropShadow></filter><clipPath id="highcharts-gl9cqzx-657-"><rect x="0" y="0" width="472" height="133" fill="none"></rect></clipPath><clipPath id="highcharts-gl9cqzx-690-"><rect x="0" y="0" width="472" height="133" fill="none"></rect></clipPath></defs><rect fill="#ffffff" class="highcharts-background" filter="none" x="0" y="0" width="600" height="400" rx="0" ry="0"></rect><rect fill="none" class="highcharts-plot-background" x="84" y="166" width="472" height="133" filter="none"></rect><g class="highcharts-pane-group" data-z-index="0"></g><g class="highcharts-grid highcharts-xaxis-grid" data-z-index="1"><path fill="none" stroke="#e6e6e6" stroke-width="0" stroke-dasharray="none" data-z-index="1" class="highcharts-grid-line" d="M 102.5 166 L 102.5 299" opacity="1"></path><path fill="none" stroke="#e6e6e6" stroke-width="0" stroke-dasharray="none" data-z-index="1" class="highcharts-grid-line" d="M 131.5 166 L 131.5 299" opacity="1"></path><path fill="none" stroke="#e6e6e6" stroke-width="0" stroke-dasharray="none" data-z-index="1" class="highcharts-grid-line" d="M 160.5 166 L 160.5 299" opacity="1"></path><path fill="none" stroke="#e6e6e6" stroke-width="0" stroke-dasharray="none" data-z-index="1" class="highcharts-grid-line" d="M 189.5 166 L 189.5 299" opacity="1"></path><path fill="none" stroke="#e6e6e6" stroke-width="0" stroke-dasharray="none" data-z-index="1" class="highcharts-grid-line" d="M 218.5 166 L 218.5 299" opacity="1"></path><path fill="none" stroke="#e6e6e6" stroke-width="0" stroke-dasharray="none" data-z-index="1" class="highcharts-grid-line" d="M 247.5 166 L 247.5 299" opacity="1"></path><path fill="none" stroke="#e6e6e6" stroke-width="0" stroke-dasharray="none" data-z-index="1" class="highcharts-grid-line" d="M 276.5 166 L 276.5 299" opacity="1"></path><path fill="none" stroke="#e6e6e6" stroke-width="0" stroke-dasharray="none" data-z-index="1" class="highcharts-grid-line" d="M 305.5 166 L 305.5 299" opacity="1"></path><path fill="none" stroke="#e6e6e6" stroke-width="0" stroke-dasharray="none" data-z-index="1" class="highcharts-grid-line" d="M 334.5 166 L 334.5 299" opacity="1"></path><path fill="none" stroke="#e6e6e6" stroke-width="0" stroke-dasharray="none" data-z-index="1" class="highcharts-grid-line" d="M 363.5 166 L 363.5 299" opacity="1"></path><path fill="none" stroke="#e6e6e6" stroke-width="0" stroke-dasharray="none" data-z-index="1" class="highcharts-grid-line" d="M 392.5 166 L 392.5 299" opacity="1"></path><path fill="none" stroke="#e6e6e6" stroke-width="0" stroke-dasharray="none" data-z-index="1" class="highcharts-grid-line" d="M 421.5 166 L 421.5 299" opacity="1"></path><path fill="none" stroke="#e6e6e6" stroke-width="0" stroke-dasharray="none" data-z-index="1" class="highcharts-grid-line" d="M 450.5 166 L 450.5 299" opacity="1"></path><path fill="none" stroke="#e6e6e6" stroke-width="0" stroke-dasharray="none" data-z-index="1" class="highcharts-grid-line" d="M 479.5 166 L 479.5 299" opacity="1"></path><path fill="none" stroke="#e6e6e6" stroke-width="0" stroke-dasharray="none" data-z-index="1" class="highcharts-grid-line" d="M 508.5 166 L 508.5 299" opacity="1"></path><path fill="none" stroke="#e6e6e6" stroke-width="0" stroke-dasharray="none" data-z-index="1" class="highcharts-grid-line" d="M 537.5 166 L 537.5 299" opacity="1"></path></g><g class="highcharts-grid highcharts-yaxis-grid" data-z-index="1"><path fill="none" stroke="#B9CFD7" stroke-width="0.5" stroke-dasharray="none" data-z-index="1" class="highcharts-grid-line" d="M 84 299.25 L 556 299.25" opacity="1"></path><path fill="none" stroke="#B9CFD7" stroke-width="0.5" stroke-dasharray="none" data-z-index="1" class="highcharts-grid-line" d="M 84 232.25 L 556 232.25" opacity="1"></path><path fill="none" stroke="#B9CFD7" stroke-width="0.5" stroke-dasharray="none" data-z-index="1" class="highcharts-grid-line" d="M 84 166.25 L 556 166.25" opacity="1"></path></g><g class="highcharts-grid highcharts-yaxis-grid" data-z-index="1"><path fill="none" stroke="#B9CFD7" stroke-width="0.5" stroke-dasharray="none" data-z-index="1" class="highcharts-grid-line" d="M 84 299.25 L 556 299.25" opacity="1"></path><path fill="none" stroke="#B9CFD7" stroke-width="0.5" stroke-dasharray="none" data-z-index="1" class="highcharts-grid-line" d="M 84 232.25 L 556 232.25" opacity="1"></path><path fill="none" stroke="#B9CFD7" stroke-width="0.5" stroke-dasharray="none" data-z-index="1" class="highcharts-grid-line" d="M 84 166.25 L 556 166.25" opacity="1"></path></g><rect fill="none" class="highcharts-plot-border" data-z-index="1" stroke="#cccccc" stroke-width="0" x="84" y="166" width="472" height="133"></rect><g class="highcharts-axis highcharts-xaxis" data-z-index="2"><path fill="none" class="highcharts-axis-line" stroke="#B9CFD7" stroke-width="0.5" data-z-index="7" d="M 84 299.25 L 556 299.25"></path></g><g class="highcharts-axis highcharts-yaxis" data-z-index="2"><path fill="none" class="highcharts-axis-line" stroke="#333333" stroke-width="0" data-z-index="7" d="M 84 166 L 84 299"></path></g><g class="highcharts-axis highcharts-yaxis" data-z-index="2"><path fill="none" class="highcharts-axis-line" stroke="#333333" stroke-width="0" data-z-index="7" d="M 556 166 L 556 299"></path></g><g class="highcharts-series-group" data-z-index="3" filter="none"><g class="highcharts-series highcharts-series-0 highcharts-column-series highcharts-tracker" data-z-index="0.1" opacity="1" transform="translate(84,166) scale(1 1)" clip-path="url(#highcharts-gl9cqzx-657-)"><path fill="#cd9c00" d="M 14 113 L 15 113 A 3 3 0 0 1 18 116 L 18 133 A 0 0 0 0 1 18 133 L 11 133 A 0 0 0 0 1 11 133 L 11 116 A 3 3 0 0 1 14 113 Z" stroke="#ffffff" stroke-width="0" opacity="1" filter="none" class="highcharts-point"></path><path fill="#cd9c00" d="M 43 113 L 44 113 A 3 3 0 0 1 47 116 L 47 133 A 0 0 0 0 1 47 133 L 40 133 A 0 0 0 0 1 40 133 L 40 116 A 3 3 0 0 1 43 113 Z" stroke="#ffffff" stroke-width="0" opacity="1" filter="none" class="highcharts-point"></path><path fill="#cd9c00" d="M 72 113 L 73 113 A 3 3 0 0 1 76 116 L 76 133 A 0 0 0 0 1 76 133 L 69 133 A 0 0 0 0 1 69 133 L 69 116 A 3 3 0 0 1 72 113 Z" stroke="#ffffff" stroke-width="0" opacity="1" filter="none" class="highcharts-point"></path><path fill="#cd9c00" d="M 101 113 L 102 113 A 3 3 0 0 1 105 116 L 105 133 A 0 0 0 0 1 105 133 L 98 133 A 0 0 0 0 1 98 133 L 98 116 A 3 3 0 0 1 101 113 Z" stroke="#ffffff" stroke-width="0" opacity="1" filter="none" class="highcharts-point"></path><path fill="#cd9c00" d="M 130 113 L 131 113 A 3 3 0 0 1 134 116 L 134 133 A 0 0 0 0 1 134 133 L 127 133 A 0 0 0 0 1 127 133 L 127 116 A 3 3 0 0 1 130 113 Z" stroke="#ffffff" stroke-width="0" opacity="1" filter="none" class="highcharts-point"></path><path fill="#cd9c00" d="M 159 113 L 160 113 A 3 3 0 0 1 163 116 L 163 133 A 0 0 0 0 1 163 133 L 156 133 A 0 0 0 0 1 156 133 L 156 116 A 3 3 0 0 1 159 113 Z" stroke="#ffffff" stroke-width="0" opacity="1" filter="none" class="highcharts-point"></path><path fill="#cd9c00" d="M 188 113 L 189 113 A 3 3 0 0 1 192 116 L 192 133 A 0 0 0 0 1 192 133 L 185 133 A 0 0 0 0 1 185 133 L 185 116 A 3 3 0 0 1 188 113 Z" stroke="#ffffff" stroke-width="0" opacity="1" filter="none" class="highcharts-point"></path><path fill="#cd9c00" d="M 217 113 L 218 113 A 3 3 0 0 1 221 116 L 221 133 A 0 0 0 0 1 221 133 L 214 133 A 0 0 0 0 1 214 133 L 214 116 A 3 3 0 0 1 217 113 Z" stroke="#ffffff" stroke-width="0" opacity="1" filter="none" class="highcharts-point"></path><path fill="#cd9c00" d="M 246 113 L 247 113 A 3 3 0 0 1 250 116 L 250 133 A 0 0 0 0 1 250 133 L 243 133 A 0 0 0 0 1 243 133 L 243 116 A 3 3 0 0 1 246 113 Z" stroke="#ffffff" stroke-width="0" opacity="1" filter="none" class="highcharts-point"></path><path fill="#cd9c00" d="M 275 113 L 276 113 A 3 3 0 0 1 279 116 L 279 133 A 0 0 0 0 1 279 133 L 272 133 A 0 0 0 0 1 272 133 L 272 116 A 3 3 0 0 1 275 113 Z" stroke="#ffffff" stroke-width="0" opacity="1" filter="none" class="highcharts-point"></path><path fill="#cd9c00" d="M 304 113 L 305 113 A 3 3 0 0 1 308 116 L 308 133 A 0 0 0 0 1 308 133 L 301 133 A 0 0 0 0 1 301 133 L 301 116 A 3 3 0 0 1 304 113 Z" stroke="#ffffff" stroke-width="0" opacity="1" filter="none" class="highcharts-point"></path><path fill="#cd9c00" d="M 333 113 L 334 113 A 3 3 0 0 1 337 116 L 337 133 A 0 0 0 0 1 337 133 L 330 133 A 0 0 0 0 1 330 133 L 330 116 A 3 3 0 0 1 333 113 Z" stroke="#ffffff" stroke-width="0" opacity="1" filter="none" class="highcharts-point"></path><path fill="#cd9c00" d="M 361 113 L 362 113 A 3 3 0 0 1 365 116 L 365 133 A 0 0 0 0 1 365 133 L 358 133 A 0 0 0 0 1 358 133 L 358 116 A 3 3 0 0 1 361 113 Z" stroke="#ffffff" stroke-width="0" opacity="1" filter="none" class="highcharts-point"></path><path fill="#cd9c00" d="M 390 113 L 391 113 A 3 3 0 0 1 394 116 L 394 133 A 0 0 0 0 1 394 133 L 387 133 A 0 0 0 0 1 387 133 L 387 116 A 3 3 0 0 1 390 113 Z" stroke="#ffffff" stroke-width="0" opacity="1" filter="none" class="highcharts-point"></path><path fill="#cd9c00" d="M 419 113 L 420 113 A 3 3 0 0 1 423 116 L 423 133 A 0 0 0 0 1 423 133 L 416 133 A 0 0 0 0 1 416 133 L 416 116 A 3 3 0 0 1 419 113 Z" stroke="#ffffff" stroke-width="0" opacity="1" filter="none" class="highcharts-point"></path><path fill="#cd9c00" d="M 448 113 L 449 113 A 3 3 0 0 1 452 116 L 452 133 A 0 0 0 0 1 452 133 L 445 133 A 0 0 0 0 1 445 133 L 445 116 A 3 3 0 0 1 448 113 Z" stroke="#ffffff" stroke-width="0" opacity="1" filter="none" class="highcharts-point"></path></g><g class="highcharts-markers highcharts-series-0 highcharts-column-series" data-z-index="0.1" opacity="1" transform="translate(84,166) scale(1 1)" clip-path="none"></g><g class="highcharts-series highcharts-series-1 highcharts-column-series highcharts-tracker" data-z-index="0.1" opacity="1" transform="translate(84,166) scale(1 1)" clip-path="url(#highcharts-gl9cqzx-657-)"><path fill="#b375ab" d="M 23 11 L 24 11 A 3 3 0 0 1 27 14 L 27 133 A 0 0 0 0 1 27 133 L 20 133 A 0 0 0 0 1 20 133 L 20 14 A 3 3 0 0 1 23 11 Z" stroke="#ffffff" stroke-width="0" opacity="1" filter="none" class="highcharts-point"></path><path fill="#b375ab" d="M 52 11 L 53 11 A 3 3 0 0 1 56 14 L 56 133 A 0 0 0 0 1 56 133 L 49 133 A 0 0 0 0 1 49 133 L 49 14 A 3 3 0 0 1 52 11 Z" stroke="#ffffff" stroke-width="0" opacity="1" filter="none" class="highcharts-point"></path><path fill="#b375ab" d="M 81 11 L 82 11 A 3 3 0 0 1 85 14 L 85 133 A 0 0 0 0 1 85 133 L 78 133 A 0 0 0 0 1 78 133 L 78 14 A 3 3 0 0 1 81 11 Z" stroke="#ffffff" stroke-width="0" opacity="1" filter="none" class="highcharts-point"></path><path fill="#b375ab" d="M 110 11 L 111 11 A 3 3 0 0 1 114 14 L 114 133 A 0 0 0 0 1 114 133 L 107 133 A 0 0 0 0 1 107 133 L 107 14 A 3 3 0 0 1 110 11 Z" stroke="#ffffff" stroke-width="0" opacity="1" filter="none" class="highcharts-point"></path><path fill="#b375ab" d="M 139 11 L 140 11 A 3 3 0 0 1 143 14 L 143 133 A 0 0 0 0 1 143 133 L 136 133 A 0 0 0 0 1 136 133 L 136 14 A 3 3 0 0 1 139 11 Z" stroke="#ffffff" stroke-width="0" opacity="1" filter="none" class="highcharts-point"></path><path fill="#b375ab" d="M 167 35 L 168 35 A 3 3 0 0 1 171 38 L 171 133 A 0 0 0 0 1 171 133 L 164 133 A 0 0 0 0 1 164 133 L 164 38 A 3 3 0 0 1 167 35 Z" stroke="#ffffff" stroke-width="0" opacity="1" filter="none" class="highcharts-point"></path><path fill="#b375ab" d="M 196 36 L 197 36 A 3 3 0 0 1 200 39 L 200 133 A 0 0 0 0 1 200 133 L 193 133 A 0 0 0 0 1 193 133 L 193 39 A 3 3 0 0 1 196 36 Z" stroke="#ffffff" stroke-width="0" opacity="1" filter="none" class="highcharts-point"></path><path fill="#b375ab" d="M 225 36 L 226 36 A 3 3 0 0 1 229 39 L 229 133 A 0 0 0 0 1 229 133 L 222 133 A 0 0 0 0 1 222 133 L 222 39 A 3 3 0 0 1 225 36 Z" stroke="#ffffff" stroke-width="0" opacity="1" filter="none" class="highcharts-point"></path><path fill="#b375ab" d="M 254 36 L 255 36 A 3 3 0 0 1 258 39 L 258 133 A 0 0 0 0 1 258 133 L 251 133 A 0 0 0 0 1 251 133 L 251 39 A 3 3 0 0 1 254 36 Z" stroke="#ffffff" stroke-width="0" opacity="1" filter="none" class="highcharts-point"></path><path fill="#b375ab" d="M 283 36 L 284 36 A 3 3 0 0 1 287 39 L 287 133 A 0 0 0 0 1 287 133 L 280 133 A 0 0 0 0 1 280 133 L 280 39 A 3 3 0 0 1 283 36 Z" stroke="#ffffff" stroke-width="0" opacity="1" filter="none" class="highcharts-point"></path><path fill="#b375ab" d="M 312 36 L 313 36 A 3 3 0 0 1 316 39 L 316 133 A 0 0 0 0 1 316 133 L 309 133 A 0 0 0 0 1 309 133 L 309 39 A 3 3 0 0 1 312 36 Z" stroke="#ffffff" stroke-width="0" opacity="1" filter="none" class="highcharts-point"></path><path fill="#b375ab" d="M 341 36 L 342 36 A 3 3 0 0 1 345 39 L 345 133 A 0 0 0 0 1 345 133 L 338 133 A 0 0 0 0 1 338 133 L 338 39 A 3 3 0 0 1 341 36 Z" stroke="#ffffff" stroke-width="0" opacity="1" filter="none" class="highcharts-point"></path><path fill="#b375ab" d="M 370 36 L 371 36 A 3 3 0 0 1 374 39 L 374 133 A 0 0 0 0 1 374 133 L 367 133 A 0 0 0 0 1 367 133 L 367 39 A 3 3 0 0 1 370 36 Z" stroke="#ffffff" stroke-width="0" opacity="1" filter="none" class="highcharts-point"></path><path fill="#b375ab" d="M 399 36 L 400 36 A 3 3 0 0 1 403 39 L 403 133 A 0 0 0 0 1 403 133 L 396 133 A 0 0 0 0 1 396 133 L 396 39 A 3 3 0 0 1 399 36 Z" stroke="#ffffff" stroke-width="0" opacity="1" filter="none" class="highcharts-point"></path><path fill="#b375ab" d="M 428 36 L 429 36 A 3 3 0 0 1 432 39 L 432 133 A 0 0 0 0 1 432 133 L 425 133 A 0 0 0 0 1 425 133 L 425 39 A 3 3 0 0 1 428 36 Z" stroke="#ffffff" stroke-width="0" opacity="1" filter="none" class="highcharts-point"></path><path fill="#b375ab" d="M 457 36 L 458 36 A 3 3 0 0 1 461 39 L 461 133 A 0 0 0 0 1 461 133 L 454 133 A 0 0 0 0 1 454 133 L 454 39 A 3 3 0 0 1 457 36 Z" stroke="#ffffff" stroke-width="0" opacity="1" filter="none" class="highcharts-point"></path></g><g class="highcharts-markers highcharts-series-1 highcharts-column-series" data-z-index="0.1" opacity="1" transform="translate(84,166) scale(1 1)" clip-path="none"></g><g class="highcharts-series highcharts-series-2 highcharts-line-series" data-z-index="0.1" opacity="1" transform="translate(84,166) scale(1 1)" clip-path="url(#highcharts-gl9cqzx-690-)"><path fill="none" d="M 18.822085889573 121.03 L 47.779141104297 121.03 L 76.73619631902 121.03 L 105.69325153374 121.03 L 134.65030674847 121.03 L 163.60736196319 121.03 L 192.56441717791 121.03 L 221.52147239264 121.03 L 250.47852760736 121.03 L 279.43558282209 121.03 L 308.39263803681 121.03 L 337.34969325153 121.03 L 366.30674846626 121.03 L 395.26380368098 121.03 L 424.2208588957 121.03 L 453.17791411043 121.03" class="highcharts-graph" data-z-index="1" stroke="#7f5f1a" stroke-width="2" stroke-linejoin="round" stroke-linecap="round" filter="none"></path><path fill="none" d="M 18.822085889573 121.03 L 47.779141104297 121.03 L 76.73619631902 121.03 L 105.69325153374 121.03 L 134.65030674847 121.03 L 163.60736196319 121.03 L 192.56441717791 121.03 L 221.52147239264 121.03 L 250.47852760736 121.03 L 279.43558282209 121.03 L 308.39263803681 121.03 L 337.34969325153 121.03 L 366.30674846626 121.03 L 395.26380368098 121.03 L 424.2208588957 121.03 L 453.17791411043 121.03" data-z-index="2" class="highcharts-tracker-line" stroke-linecap="round" stroke-linejoin="round" stroke="rgba(192,192,192,0.0001)" stroke-width="22"></path></g><g class="highcharts-markers highcharts-series-2 highcharts-line-series highcharts-tracker" data-z-index="0.1" opacity="1" transform="translate(84,166) scale(1 1)" clip-path="none"></g><g class="highcharts-series highcharts-series-3 highcharts-line-series" data-z-index="0.1" opacity="1" transform="translate(84,166) scale(1 1)" clip-path="url(#highcharts-gl9cqzx-690-)"><path fill="none" d="M 18.822085889573 26.6 L 47.779141104297 26.6 L 76.73619631902 26.6 L 105.69325153374 26.6 L 134.65030674847 26.6 L 163.60736196319 48.2125 L 192.56441717791 48.545 L 221.52147239264 48.545 L 250.47852760736 48.545 L 279.43558282209 48.545 L 308.39263803681 48.545 L 337.34969325153 48.545 L 366.30674846626 48.545 L 395.26380368098 48.545 L 424.2208588957 48.545 L 453.17791411043 48.545" class="highcharts-graph" data-z-index="1" stroke="#923f8d" stroke-width="2" stroke-linejoin="round" stroke-linecap="round" filter="none"></path><path fill="none" d="M 18.822085889573 26.6 L 47.779141104297 26.6 L 76.73619631902 26.6 L 105.69325153374 26.6 L 134.65030674847 26.6 L 163.60736196319 48.2125 L 192.56441717791 48.545 L 221.52147239264 48.545 L 250.47852760736 48.545 L 279.43558282209 48.545 L 308.39263803681 48.545 L 337.34969325153 48.545 L 366.30674846626 48.545 L 395.26380368098 48.545 L 424.2208588957 48.545 L 453.17791411043 48.545" data-z-index="2" class="highcharts-tracker-line" stroke-linecap="round" stroke-linejoin="round" stroke="rgba(192,192,192,0.0001)" stroke-width="22"></path></g><g class="highcharts-markers highcharts-series-3 highcharts-line-series highcharts-tracker" data-z-index="0.1" opacity="1" transform="translate(84,166) scale(1 1)" clip-path="none"></g></g><text x="10" text-anchor="start" class="highcharts-caption" data-z-index="4" style="font-size: 0.8em; fill: rgb(102, 102, 102);" text-align="left" y="357" transform-origin="10 15" transform="translate(0,0) scale(1 1)"></text><g class="highcharts-axis-labels highcharts-xaxis-labels" data-z-index="7"><text x="105.65051301431619" text-anchor="end" transform="translate(0,0) rotate(-45 105.65051301431619 322)" style="cursor: default; font-size: 0.8em; fill: rgb(0, 0, 0);" y="322" opacity="1">2008</text><text x="134.6075682290462" text-anchor="end" transform="translate(0,0) rotate(-45 134.6075682290462 322)" style="cursor: default; font-size: 0.8em; fill: rgb(0, 0, 0);" y="322" opacity="1">2009</text><text x="163.56462344376618" text-anchor="end" transform="translate(0,0) rotate(-45 163.56462344376618 322)" style="cursor: default; font-size: 0.8em; fill: rgb(0, 0, 0);" y="322" opacity="1">2010</text><text x="192.5216786584862" text-anchor="end" transform="translate(0,0) rotate(-45 192.5216786584862 322)" style="cursor: default; font-size: 0.8em; fill: rgb(0, 0, 0);" y="322" opacity="1">2011</text><text x="221.47873387321619" text-anchor="end" transform="translate(0,0) rotate(-45 221.47873387321619 322)" style="cursor: default; font-size: 0.8em; fill: rgb(0, 0, 0);" y="322" opacity="1">2012</text><text x="250.43578908793617" text-anchor="end" transform="translate(0,0) rotate(-45 250.43578908793617 322)" style="cursor: default; font-size: 0.8em; fill: rgb(0, 0, 0);" y="322" opacity="1">2013</text><text x="279.3928443026562" text-anchor="end" transform="translate(0,0) rotate(-45 279.3928443026562 322)" style="cursor: default; font-size: 0.8em; fill: rgb(0, 0, 0);" y="322" opacity="1">2014</text><text x="308.34989951738623" text-anchor="end" transform="translate(0,0) rotate(-45 308.34989951738623 322)" style="cursor: default; font-size: 0.8em; fill: rgb(0, 0, 0);" y="322" opacity="1">2015</text><text x="337.3069547321062" text-anchor="end" transform="translate(0,0) rotate(-45 337.3069547321062 322)" style="cursor: default; font-size: 0.8em; fill: rgb(0, 0, 0);" y="322" opacity="1">2016</text><text x="366.2640099468362" text-anchor="end" transform="translate(0,0) rotate(-45 366.2640099468362 322)" style="cursor: default; font-size: 0.8em; fill: rgb(0, 0, 0);" y="322" opacity="1">2017</text><text x="395.2210651615562" text-anchor="end" transform="translate(0,0) rotate(-45 395.2210651615562 322)" style="cursor: default; font-size: 0.8em; fill: rgb(0, 0, 0);" y="322" opacity="1">2018</text><text x="424.17812037627624" text-anchor="end" transform="translate(0,0) rotate(-45 424.17812037627624 322)" style="cursor: default; font-size: 0.8em; fill: rgb(0, 0, 0);" y="322" opacity="1">2019</text><text x="453.1351755910062" text-anchor="end" transform="translate(0,0) rotate(-45 453.1351755910062 322)" style="cursor: default; font-size: 0.8em; fill: rgb(0, 0, 0);" y="322" opacity="1">2020</text><text x="482.0922308057262" text-anchor="end" transform="translate(0,0) rotate(-45 482.0922308057262 322)" style="cursor: default; font-size: 0.8em; fill: rgb(0, 0, 0);" y="322" opacity="1">2021</text><text x="511.04928602044623" text-anchor="end" transform="translate(0,0) rotate(-45 511.04928602044623 322)" style="cursor: default; font-size: 0.8em; fill: rgb(0, 0, 0);" y="322" opacity="1">2022</text><text x="540.0063412351763" text-anchor="end" transform="translate(0,0) rotate(-45 540.0063412351763 322)" style="cursor: default; font-size: 0.8em; fill: rgb(0, 0, 0);" y="322" opacity="1">2023</text></g><g class="highcharts-axis-labels highcharts-yaxis-labels" data-z-index="7"></g><g class="highcharts-axis-labels highcharts-yaxis-labels" data-z-index="7"><text x="571" text-anchor="start" transform="translate(0,0)" style="cursor: default; font-size: 0.8em; fill: rgb(0, 0, 0);" y="304" opacity="1">0%</text><text x="571" text-anchor="start" transform="translate(0,0)" style="cursor: default; font-size: 0.8em; fill: rgb(0, 0, 0);" y="237" opacity="1">2%</text><text x="571" text-anchor="start" transform="translate(0,0)" style="cursor: default; font-size: 0.8em; fill: rgb(0, 0, 0);" y="171" opacity="1">4%</text></g><g class="highcharts-legend highcharts-no-tooltip" data-z-index="7" text-align="left" transform="translate(76,55)"><rect fill="none" class="highcharts-legend-box" rx="0" ry="0" stroke="#999999" stroke-width="0" filter="none" x="0" y="0" width="328" height="99"></rect><g data-z-index="1"><g><g class="highcharts-legend-item highcharts-column-series highcharts-color-undefined highcharts-series-0" data-z-index="1" transform="translate(8,3)"><text x="21" text-anchor="start" data-z-index="2" style="cursor: pointer; font-size: 0.8em; text-decoration: none; font-weight: normal; fill: rgb(51, 51, 51);" y="17">Freiraumfläche Kleinhüningen</text><rect x="2" y="6" rx="0" ry="0" width="12" height="12" fill="#cd9c00" class="highcharts-point" data-z-index="3"></rect></g><g class="highcharts-legend-item highcharts-column-series highcharts-color-undefined highcharts-series-1" data-z-index="1" transform="translate(8,25)"><text x="21" y="17" text-anchor="start" data-z-index="2" style="cursor: pointer; font-size: 0.8em; text-decoration: none; font-weight: normal; fill: rgb(51, 51, 51);">Freiraumfläche Klybeck</text><rect x="2" y="6" rx="0" ry="0" width="12" height="12" fill="#b375ab" class="highcharts-point" data-z-index="3"></rect></g><g class="highcharts-legend-item highcharts-line-series highcharts-color-undefined highcharts-series-2" data-z-index="1" transform="translate(8,47)"><path fill="none" class="highcharts-graph" stroke-width="2" stroke-linecap="round" d="M 1 13 L 15 13" stroke="#7f5f1a"></path><text x="21" y="17" text-anchor="start" data-z-index="2" style="cursor: pointer; font-size: 0.8em; text-decoration: none; font-weight: normal; fill: rgb(51, 51, 51);">Anteil Freiraumfläche Kleinhüningen (rechte Skala)</text></g><g class="highcharts-legend-item highcharts-line-series highcharts-color-undefined highcharts-series-3" data-z-index="1" transform="translate(8,69)"><path fill="none" class="highcharts-graph" stroke-width="2" stroke-linecap="round" d="M 1 13 L 15 13" stroke="#923f8d"></path><text x="21" y="17" text-anchor="start" data-z-index="2" style="cursor: pointer; font-size: 0.8em; text-decoration: none; font-weight: normal; fill: rgb(51, 51, 51);">Anteil Freiraumfläche Klybeck (rechte Skala)</text></g></g></g></g></svg>