<svg version="1.1" class="highcharts-root" style="font-family: Arial; font-size: 1rem;" xmlns="http://www.w3.org/2000/svg" width="600" height="400" viewBox="0 0 600 400" role="img" aria-label="Umzugssaldo"><desc>Created with Highcharts 12.5.0</desc><defs><filter id="highcharts-drop-shadow-0"><feDropShadow dx="1" dy="1" flood-color="#000000" flood-opacity="0.75" stdDeviation="2.5"></feDropShadow></filter><clipPath id="highcharts-gl9cqzx-535-"><rect x="0" y="0" width="539" height="217" fill="none"></rect></clipPath></defs><rect fill="#ffffff" class="highcharts-background" filter="none" x="0" y="0" width="600" height="400" rx="0" ry="0"></rect><rect fill="none" class="highcharts-plot-background" x="51" y="97" width="539" height="217" filter="none"></rect><g class="highcharts-pane-group" data-z-index="0"></g><g class="highcharts-plot-lines-0" data-z-index="0"><path fill="none" class="highcharts-plot-line " stroke="#B9CFD7" stroke-width="1" d="M 51 190.5 L 590 190.5"></path></g><g class="highcharts-grid highcharts-xaxis-grid" data-z-index="1"><path fill="none" stroke="#e6e6e6" stroke-width="0" stroke-dasharray="none" data-z-index="1" class="highcharts-grid-line" d="M 80.5 97 L 80.5 314" opacity="1"></path><path fill="none" stroke="#e6e6e6" stroke-width="0" stroke-dasharray="none" data-z-index="1" class="highcharts-grid-line" d="M 110.5 97 L 110.5 314" opacity="1"></path><path fill="none" stroke="#e6e6e6" stroke-width="0" stroke-dasharray="none" data-z-index="1" class="highcharts-grid-line" d="M 140.5 97 L 140.5 314" opacity="1"></path><path fill="none" stroke="#e6e6e6" stroke-width="0" stroke-dasharray="none" data-z-index="1" class="highcharts-grid-line" d="M 170.5 97 L 170.5 314" opacity="1"></path><path fill="none" stroke="#e6e6e6" stroke-width="0" stroke-dasharray="none" data-z-index="1" class="highcharts-grid-line" d="M 200.5 97 L 200.5 314" opacity="1"></path><path fill="none" stroke="#e6e6e6" stroke-width="0" stroke-dasharray="none" data-z-index="1" class="highcharts-grid-line" d="M 230.5 97 L 230.5 314" opacity="1"></path><path fill="none" stroke="#e6e6e6" stroke-width="0" stroke-dasharray="none" data-z-index="1" class="highcharts-grid-line" d="M 260.5 97 L 260.5 314" opacity="1"></path><path fill="none" stroke="#e6e6e6" stroke-width="0" stroke-dasharray="none" data-z-index="1" class="highcharts-grid-line" d="M 290.5 97 L 290.5 314" opacity="1"></path><path fill="none" stroke="#e6e6e6" stroke-width="0" stroke-dasharray="none" data-z-index="1" class="highcharts-grid-line" d="M 320.5 97 L 320.5 314" opacity="1"></path><path fill="none" stroke="#e6e6e6" stroke-width="0" stroke-dasharray="none" data-z-index="1" class="highcharts-grid-line" d="M 350.5 97 L 350.5 314" opacity="1"></path><path fill="none" stroke="#e6e6e6" stroke-width="0" stroke-dasharray="none" data-z-index="1" class="highcharts-grid-line" d="M 380.5 97 L 380.5 314" opacity="1"></path><path fill="none" stroke="#e6e6e6" stroke-width="0" stroke-dasharray="none" data-z-index="1" class="highcharts-grid-line" d="M 410.5 97 L 410.5 314" opacity="1"></path><path fill="none" stroke="#e6e6e6" stroke-width="0" stroke-dasharray="none" data-z-index="1" class="highcharts-grid-line" d="M 440.5 97 L 440.5 314" opacity="1"></path><path fill="none" stroke="#e6e6e6" stroke-width="0" stroke-dasharray="none" data-z-index="1" class="highcharts-grid-line" d="M 470.5 97 L 470.5 314" opacity="1"></path><path fill="none" stroke="#e6e6e6" stroke-width="0" stroke-dasharray="none" data-z-index="1" class="highcharts-grid-line" d="M 500.5 97 L 500.5 314" opacity="1"></path><path fill="none" stroke="#e6e6e6" stroke-width="0" stroke-dasharray="none" data-z-index="1" class="highcharts-grid-line" d="M 530.5 97 L 530.5 314" opacity="1"></path><path fill="none" stroke="#e6e6e6" stroke-width="0" stroke-dasharray="none" data-z-index="1" class="highcharts-grid-line" d="M 560.5 97 L 560.5 314" opacity="1"></path><path fill="none" stroke="#e6e6e6" stroke-width="0" stroke-dasharray="none" data-z-index="1" class="highcharts-grid-line" d="M 590.5 97 L 590.5 314" opacity="1"></path><path fill="none" stroke="#e6e6e6" stroke-width="0" stroke-dasharray="none" data-z-index="1" class="highcharts-grid-line" d="M 51.5 97 L 51.5 314" opacity="1"></path></g><g class="highcharts-grid highcharts-yaxis-grid" data-z-index="1"><path fill="none" stroke="#B9CFD7" stroke-width="0.5" stroke-dasharray="none" data-z-index="1" class="highcharts-grid-line" d="M 51 314.25 L 590 314.25" opacity="1"></path><path fill="none" stroke="#B9CFD7" stroke-width="0.5" stroke-dasharray="none" data-z-index="1" class="highcharts-grid-line" d="M 51 298.25 L 590 298.25" opacity="1"></path><path fill="none" stroke="#B9CFD7" stroke-width="0.5" stroke-dasharray="none" data-z-index="1" class="highcharts-grid-line" d="M 51 283.25 L 590 283.25" opacity="1"></path><path fill="none" stroke="#B9CFD7" stroke-width="0.5" stroke-dasharray="none" data-z-index="1" class="highcharts-grid-line" d="M 51 267.25 L 590 267.25" opacity="1"></path><path fill="none" stroke="#B9CFD7" stroke-width="0.5" stroke-dasharray="none" data-z-index="1" class="highcharts-grid-line" d="M 51 252.25 L 590 252.25" opacity="1"></path><path fill="none" stroke="#B9CFD7" stroke-width="0.5" stroke-dasharray="none" data-z-index="1" class="highcharts-grid-line" d="M 51 236.25 L 590 236.25" opacity="1"></path><path fill="none" stroke="#B9CFD7" stroke-width="0.5" stroke-dasharray="none" data-z-index="1" class="highcharts-grid-line" d="M 51 221.25 L 590 221.25" opacity="1"></path><path fill="none" stroke="#B9CFD7" stroke-width="0.5" stroke-dasharray="none" data-z-index="1" class="highcharts-grid-line" d="M 51 205.25 L 590 205.25" opacity="1"></path><path fill="none" stroke="#B9CFD7" stroke-width="0.5" stroke-dasharray="none" data-z-index="1" class="highcharts-grid-line" d="M 51 190.25 L 590 190.25" opacity="1"></path><path fill="none" stroke="#B9CFD7" stroke-width="0.5" stroke-dasharray="none" data-z-index="1" class="highcharts-grid-line" d="M 51 174.25 L 590 174.25" opacity="1"></path><path fill="none" stroke="#B9CFD7" stroke-width="0.5" stroke-dasharray="none" data-z-index="1" class="highcharts-grid-line" d="M 51 159.25 L 590 159.25" opacity="1"></path><path fill="none" stroke="#B9CFD7" stroke-width="0.5" stroke-dasharray="none" data-z-index="1" class="highcharts-grid-line" d="M 51 143.25 L 590 143.25" opacity="1"></path><path fill="none" stroke="#B9CFD7" stroke-width="0.5" stroke-dasharray="none" data-z-index="1" class="highcharts-grid-line" d="M 51 128.25 L 590 128.25" opacity="1"></path><path fill="none" stroke="#B9CFD7" stroke-width="0.5" stroke-dasharray="none" data-z-index="1" class="highcharts-grid-line" d="M 51 112.25 L 590 112.25" opacity="1"></path><path fill="none" stroke="#B9CFD7" stroke-width="0.5" stroke-dasharray="none" data-z-index="1" class="highcharts-grid-line" d="M 51 97.25 L 590 97.25" opacity="1"></path></g><rect fill="none" class="highcharts-plot-border" data-z-index="1" stroke="#cccccc" stroke-width="0" x="51" y="97" width="539" height="217"></rect><g class="highcharts-axis highcharts-xaxis" data-z-index="2"><path fill="none" class="highcharts-axis-line" stroke="#B9CFD7" stroke-width="0.5" data-z-index="7" d="M 51 314.25 L 590 314.25"></path></g><g class="highcharts-axis highcharts-yaxis" data-z-index="2"><path fill="none" class="highcharts-axis-line" stroke="#B9CFD7" stroke-width="0" data-z-index="7" d="M 51 97 L 51 314"></path></g><g class="highcharts-series-group" data-z-index="3" filter="none"><g class="highcharts-series highcharts-series-0 highcharts-column-series highcharts-tracker" data-z-index="0.1" opacity="1" transform="translate(51,97) scale(1 1)" clip-path="url(#highcharts-gl9cqzx-535-)"><path fill="#cd9c00" d="M 9 26 L 12 26 A 3 3 0 0 1 15 29 L 15 93 A 0 0 0 0 1 15 93 L 6 93 A 0 0 0 0 1 6 93 L 6 29 A 3 3 0 0 1 9 26 Z" stroke="#ffffff" stroke-width="0" opacity="1" filter="none" class="highcharts-point"></path><path fill="#cd9c00" d="M 36 93 L 45 93 A 0 0 0 0 1 45 93 L 45 181 A 3 3 0 0 1 42 184 L 39 184 A 3 3 0 0 1 36 181 L 36 93 A 0 0 0 0 1 36 93 Z" stroke="#ffffff" stroke-width="0" opacity="1" filter="none" class="highcharts-point highcharts-negative"></path><path fill="#cd9c00" d="M 69 56 L 72 56 A 3 3 0 0 1 75 59 L 75 93 A 0 0 0 0 1 75 93 L 66 93 A 0 0 0 0 1 66 93 L 66 59 A 3 3 0 0 1 69 56 Z" stroke="#ffffff" stroke-width="0" opacity="1" filter="none" class="highcharts-point"></path><path fill="#cd9c00" d="M 99 92 L 102 92 A 3 3 0 0 1 104.23606797749979 93 L 104.23606797749979 93 A 0 0 0 0 1 104.23606797749979 93 L 104.23606797749979 93 A 0 0 0 0 1 96.76393202250021 93 L 96.76393202250021 93 A 3 3 0 0 1 99 92 Z" stroke="#ffffff" stroke-width="0" opacity="1" filter="none" class="highcharts-point"></path><path fill="#cd9c00" d="M 126 93 L 135 93 A 0 0 0 0 1 135 93 L 135 125 A 3 3 0 0 1 132 128 L 129 128 A 3 3 0 0 1 126 125 L 126 93 A 0 0 0 0 1 126 93 Z" stroke="#ffffff" stroke-width="0" opacity="1" filter="none" class="highcharts-point highcharts-negative"></path><path fill="#cd9c00" d="M 159 64 L 162 64 A 3 3 0 0 1 165 67 L 165 93 A 0 0 0 0 1 165 93 L 156 93 A 0 0 0 0 1 156 93 L 156 67 A 3 3 0 0 1 159 64 Z" stroke="#ffffff" stroke-width="0" opacity="1" filter="none" class="highcharts-point"></path><path fill="#cd9c00" d="M 189 62 L 192 62 A 3 3 0 0 1 195 65 L 195 93 A 0 0 0 0 1 195 93 L 186 93 A 0 0 0 0 1 186 93 L 186 65 A 3 3 0 0 1 189 62 Z" stroke="#ffffff" stroke-width="0" opacity="1" filter="none" class="highcharts-point"></path><path fill="#cd9c00" d="M 219 77 L 222 77 A 3 3 0 0 1 225 80 L 225 93 A 0 0 0 0 1 225 93 L 216 93 A 0 0 0 0 1 216 93 L 216 80 A 3 3 0 0 1 219 77 Z" stroke="#ffffff" stroke-width="0" opacity="1" filter="none" class="highcharts-point"></path><path fill="#cd9c00" d="M 246 93 L 255 93 A 0 0 0 0 1 255 93 L 255 102 A 3 3 0 0 1 252 105 L 249 105 A 3 3 0 0 1 246 102 L 246 93 A 0 0 0 0 1 246 93 Z" stroke="#ffffff" stroke-width="0" opacity="1" filter="none" class="highcharts-point highcharts-negative"></path><path fill="#cd9c00" d="M 275 93 L 284 93 A 0 0 0 0 1 284 93 L 284 150 A 3 3 0 0 1 281 153 L 278 153 A 3 3 0 0 1 275 150 L 275 93 A 0 0 0 0 1 275 93 Z" stroke="#ffffff" stroke-width="0" opacity="1" filter="none" class="highcharts-point highcharts-negative"></path><path fill="#cd9c00" d="M 305 93 L 314 93 A 0 0 0 0 1 314 93 L 314 150 A 3 3 0 0 1 311 153 L 308 153 A 3 3 0 0 1 305 150 L 305 93 A 0 0 0 0 1 305 93 Z" stroke="#ffffff" stroke-width="0" opacity="1" filter="none" class="highcharts-point highcharts-negative"></path><path fill="#cd9c00" d="M 338 85 L 341 85 A 3 3 0 0 1 344 88 L 344 93 A 0 0 0 0 1 344 93 L 335 93 A 0 0 0 0 1 335 93 L 335 88 A 3 3 0 0 1 338 85 Z" stroke="#ffffff" stroke-width="0" opacity="1" filter="none" class="highcharts-point"></path><path fill="#cd9c00" d="M 365 93 L 374 93 A 0 0 0 0 1 374 93 L 374 130 A 3 3 0 0 1 371 133 L 368 133 A 3 3 0 0 1 365 130 L 365 93 A 0 0 0 0 1 365 93 Z" stroke="#ffffff" stroke-width="0" opacity="1" filter="none" class="highcharts-point highcharts-negative"></path><path fill="#cd9c00" d="M 395 93 L 404 93 A 0 0 0 0 1 404 93 L 404 145 A 3 3 0 0 1 401 148 L 398 148 A 3 3 0 0 1 395 145 L 395 93 A 0 0 0 0 1 395 93 Z" stroke="#ffffff" stroke-width="0" opacity="1" filter="none" class="highcharts-point highcharts-negative"></path><path fill="#cd9c00" d="M 425 93 L 434 93 A 0 0 0 0 1 434 93 L 434 198 A 3 3 0 0 1 431 201 L 428 201 A 3 3 0 0 1 425 198 L 425 93 A 0 0 0 0 1 425 93 Z" stroke="#ffffff" stroke-width="0" opacity="1" filter="none" class="highcharts-point highcharts-negative"></path><path fill="#cd9c00" d="M 455 93 L 464 93 A 0 0 0 0 1 464 93 L 464 181 A 3 3 0 0 1 461 184 L 458 184 A 3 3 0 0 1 455 181 L 455 93 A 0 0 0 0 1 455 93 Z" stroke="#ffffff" stroke-width="0" opacity="1" filter="none" class="highcharts-point highcharts-negative"></path><path fill="#cd9c00" d="M 488 86 L 491 86 A 3 3 0 0 1 494 89 L 494 93 A 0 0 0 0 1 494 93 L 485 93 A 0 0 0 0 1 485 93 L 485 89 A 3 3 0 0 1 488 86 Z" stroke="#ffffff" stroke-width="0" opacity="1" filter="none" class="highcharts-point"></path><path fill="#cd9c00" d="M 515 93 L 524 93 A 0 0 0 0 1 524 93 L 524 148 A 3 3 0 0 1 521 151 L 518 151 A 3 3 0 0 1 515 148 L 515 93 A 0 0 0 0 1 515 93 Z" stroke="#ffffff" stroke-width="0" opacity="1" filter="none" class="highcharts-point highcharts-negative"></path></g><g class="highcharts-markers highcharts-series-0 highcharts-column-series" data-z-index="0.1" opacity="1" transform="translate(51,97) scale(1 1)" clip-path="none"></g><g class="highcharts-series highcharts-series-1 highcharts-column-series highcharts-tracker" data-z-index="0.1" opacity="1" transform="translate(51,97) scale(1 1)" clip-path="url(#highcharts-gl9cqzx-535-)"><path fill="#b375ab" d="M 18 71 L 21 71 A 3 3 0 0 1 24 74 L 24 93 A 0 0 0 0 1 24 93 L 15 93 A 0 0 0 0 1 15 93 L 15 74 A 3 3 0 0 1 18 71 Z" stroke="#ffffff" stroke-width="0" opacity="1" filter="none" class="highcharts-point"></path><path fill="#b375ab" d="M 48 78 L 51 78 A 3 3 0 0 1 54 81 L 54 93 A 0 0 0 0 1 54 93 L 45 93 A 0 0 0 0 1 45 93 L 45 81 A 3 3 0 0 1 48 78 Z" stroke="#ffffff" stroke-width="0" opacity="1" filter="none" class="highcharts-point"></path><path fill="#b375ab" d="M 75 93 L 84 93 A 0 0 0 0 1 84 93 L 84 112 A 3 3 0 0 1 81 115 L 78 115 A 3 3 0 0 1 75 112 L 75 93 A 0 0 0 0 1 75 93 Z" stroke="#ffffff" stroke-width="0" opacity="1" filter="none" class="highcharts-point highcharts-negative"></path><path fill="#b375ab" d="M 108 24 L 111 24 A 3 3 0 0 1 114 27 L 114 93 A 0 0 0 0 1 114 93 L 105 93 A 0 0 0 0 1 105 93 L 105 27 A 3 3 0 0 1 108 24 Z" stroke="#ffffff" stroke-width="0" opacity="1" filter="none" class="highcharts-point"></path><path fill="#b375ab" d="M 135 93 L 144 93 A 0 0 0 0 1 144 93 L 144 101 A 3 3 0 0 1 141 104 L 138 104 A 3 3 0 0 1 135 101 L 135 93 A 0 0 0 0 1 135 93 Z" stroke="#ffffff" stroke-width="0" opacity="1" filter="none" class="highcharts-point highcharts-negative"></path><path fill="#b375ab" d="M 168 68 L 171 68 A 3 3 0 0 1 174 71 L 174 93 A 0 0 0 0 1 174 93 L 165 93 A 0 0 0 0 1 165 93 L 165 71 A 3 3 0 0 1 168 68 Z" stroke="#ffffff" stroke-width="0" opacity="1" filter="none" class="highcharts-point"></path><path fill="#b375ab" d="M 198 33 L 201 33 A 3 3 0 0 1 204 36 L 204 93 A 0 0 0 0 1 204 93 L 195 93 A 0 0 0 0 1 195 93 L 195 36 A 3 3 0 0 1 198 33 Z" stroke="#ffffff" stroke-width="0" opacity="1" filter="none" class="highcharts-point"></path><path fill="#b375ab" d="M 225 93 L 234 93 A 0 0 0 0 1 234 93 L 234 102 A 3 3 0 0 1 231 105 L 228 105 A 3 3 0 0 1 225 102 L 225 93 A 0 0 0 0 1 225 93 Z" stroke="#ffffff" stroke-width="0" opacity="1" filter="none" class="highcharts-point highcharts-negative"></path><path fill="#b375ab" d="M 258 75 L 261 75 A 3 3 0 0 1 264 78 L 264 93 A 0 0 0 0 1 264 93 L 255 93 A 0 0 0 0 1 255 93 L 255 78 A 3 3 0 0 1 258 75 Z" stroke="#ffffff" stroke-width="0" opacity="1" filter="none" class="highcharts-point"></path><path fill="#b375ab" d="M 287 78 L 290 78 A 3 3 0 0 1 293 81 L 293 93 A 0 0 0 0 1 293 93 L 284 93 A 0 0 0 0 1 284 93 L 284 81 A 3 3 0 0 1 287 78 Z" stroke="#ffffff" stroke-width="0" opacity="1" filter="none" class="highcharts-point"></path><path fill="#b375ab" d="M 317 90 L 320 90 A 3 3 0 0 1 323 93 L 323 93 A 0 0 0 0 1 323 93 L 314 93 A 0 0 0 0 1 314 93 L 314 93 A 3 3 0 0 1 317 90 Z" stroke="#ffffff" stroke-width="0" opacity="1" filter="none" class="highcharts-point"></path><path fill="#b375ab" d="M 344 93 L 353 93 A 0 0 0 0 1 353 93 L 353 107 A 3 3 0 0 1 350 110 L 347 110 A 3 3 0 0 1 344 107 L 344 93 A 0 0 0 0 1 344 93 Z" stroke="#ffffff" stroke-width="0" opacity="1" filter="none" class="highcharts-point highcharts-negative"></path><path fill="#b375ab" d="M 377 77 L 380 77 A 3 3 0 0 1 383 80 L 383 93 A 0 0 0 0 1 383 93 L 374 93 A 0 0 0 0 1 374 93 L 374 80 A 3 3 0 0 1 377 77 Z" stroke="#ffffff" stroke-width="0" opacity="1" filter="none" class="highcharts-point"></path><path fill="#b375ab" d="M 407 90 L 410 90 A 3 3 0 0 1 413 93 L 413 93 A 0 0 0 0 1 413 93 L 404 93 A 0 0 0 0 1 404 93 L 404 93 A 3 3 0 0 1 407 90 Z" stroke="#ffffff" stroke-width="0" opacity="1" filter="none" class="highcharts-point"></path><path fill="#b375ab" d="M 437 84 L 440 84 A 3 3 0 0 1 443 87 L 443 93 A 0 0 0 0 1 443 93 L 434 93 A 0 0 0 0 1 434 93 L 434 87 A 3 3 0 0 1 437 84 Z" stroke="#ffffff" stroke-width="0" opacity="1" filter="none" class="highcharts-point"></path><path fill="#b375ab" d="M 464 93 L 473 93 A 0 0 0 0 1 473 93 L 473 100 A 3 3 0 0 1 470 103 L 467 103 A 3 3 0 0 1 464 100 L 464 93 A 0 0 0 0 1 464 93 Z" stroke="#ffffff" stroke-width="0" opacity="1" filter="none" class="highcharts-point highcharts-negative"></path><path fill="#b375ab" d="M 494 93 L 503 93 A 0 0 0 0 1 503 93 L 503 106 A 3 3 0 0 1 500 109 L 497 109 A 3 3 0 0 1 494 106 L 494 93 A 0 0 0 0 1 494 93 Z" stroke="#ffffff" stroke-width="0" opacity="1" filter="none" class="highcharts-point highcharts-negative"></path><path fill="#b375ab" d="M 524 93 L 533 93 A 0 0 0 0 1 533 93 L 533 187 A 3 3 0 0 1 530 190 L 527 190 A 3 3 0 0 1 524 187 L 524 93 A 0 0 0 0 1 524 93 Z" stroke="#ffffff" stroke-width="0" opacity="1" filter="none" class="highcharts-point highcharts-negative"></path></g><g class="highcharts-markers highcharts-series-1 highcharts-column-series" data-z-index="0.1" opacity="1" transform="translate(51,97) scale(1 1)" clip-path="none"></g></g><text x="10" text-anchor="start" class="highcharts-caption" data-z-index="4" style="font-size: 0.8em; fill: rgb(102, 102, 102);" text-align="left" y="372" transform-origin="10 15" transform="translate(0,0) scale(1 1)"></text><g class="highcharts-axis-labels highcharts-xaxis-labels" data-z-index="7"><text x="68.80064934696796" text-anchor="end" transform="translate(0,0) rotate(-45 68.80064934696796 337)" style="cursor: default; font-size: 0.8em; fill: rgb(0, 0, 0);" y="337" opacity="1">2006</text><text x="98.74509379141395" text-anchor="end" transform="translate(0,0) rotate(-45 98.74509379141395 337)" style="cursor: default; font-size: 0.8em; fill: rgb(0, 0, 0);" y="337" opacity="1">2007</text><text x="128.68953823585395" text-anchor="end" transform="translate(0,0) rotate(-45 128.68953823585395 337)" style="cursor: default; font-size: 0.8em; fill: rgb(0, 0, 0);" y="337" opacity="1">2008</text><text x="158.63398268030394" text-anchor="end" transform="translate(0,0) rotate(-45 158.63398268030394 337)" style="cursor: default; font-size: 0.8em; fill: rgb(0, 0, 0);" y="337" opacity="1">2009</text><text x="188.57842712474397" text-anchor="end" transform="translate(0,0) rotate(-45 188.57842712474397 337)" style="cursor: default; font-size: 0.8em; fill: rgb(0, 0, 0);" y="337" opacity="1">2010</text><text x="218.52287156919397" text-anchor="end" transform="translate(0,0) rotate(-45 218.52287156919397 337)" style="cursor: default; font-size: 0.8em; fill: rgb(0, 0, 0);" y="337" opacity="1">2011</text><text x="248.467316013634" text-anchor="end" transform="translate(0,0) rotate(-45 248.467316013634 337)" style="cursor: default; font-size: 0.8em; fill: rgb(0, 0, 0);" y="337" opacity="1">2012</text><text x="278.41176045808396" text-anchor="end" transform="translate(0,0) rotate(-45 278.41176045808396 337)" style="cursor: default; font-size: 0.8em; fill: rgb(0, 0, 0);" y="337" opacity="1">2013</text><text x="308.356204902524" text-anchor="end" transform="translate(0,0) rotate(-45 308.356204902524 337)" style="cursor: default; font-size: 0.8em; fill: rgb(0, 0, 0);" y="337" opacity="1">2014</text><text x="338.300649346964" text-anchor="end" transform="translate(0,0) rotate(-45 338.300649346964 337)" style="cursor: default; font-size: 0.8em; fill: rgb(0, 0, 0);" y="337" opacity="1">2015</text><text x="368.245093791414" text-anchor="end" transform="translate(0,0) rotate(-45 368.245093791414 337)" style="cursor: default; font-size: 0.8em; fill: rgb(0, 0, 0);" y="337" opacity="1">2016</text><text x="398.189538235854" text-anchor="end" transform="translate(0,0) rotate(-45 398.189538235854 337)" style="cursor: default; font-size: 0.8em; fill: rgb(0, 0, 0);" y="337" opacity="1">2017</text><text x="428.133982680304" text-anchor="end" transform="translate(0,0) rotate(-45 428.133982680304 337)" style="cursor: default; font-size: 0.8em; fill: rgb(0, 0, 0);" y="337" opacity="1">2018</text><text x="458.078427124744" text-anchor="end" transform="translate(0,0) rotate(-45 458.078427124744 337)" style="cursor: default; font-size: 0.8em; fill: rgb(0, 0, 0);" y="337" opacity="1">2019</text><text x="488.02287156919397" text-anchor="end" transform="translate(0,0) rotate(-45 488.02287156919397 337)" style="cursor: default; font-size: 0.8em; fill: rgb(0, 0, 0);" y="337" opacity="1">2020</text><text x="517.967316013634" text-anchor="end" transform="translate(0,0) rotate(-45 517.967316013634 337)" style="cursor: default; font-size: 0.8em; fill: rgb(0, 0, 0);" y="337" opacity="1">2021</text><text x="547.911760458084" text-anchor="end" transform="translate(0,0) rotate(-45 547.911760458084 337)" style="cursor: default; font-size: 0.8em; fill: rgb(0, 0, 0);" y="337" opacity="1">2022</text><text x="577.856204902524" text-anchor="end" transform="translate(0,0) rotate(-45 577.856204902524 337)" style="cursor: default; font-size: 0.8em; fill: rgb(0, 0, 0);" y="337" opacity="1">2023</text></g><g class="highcharts-axis-labels highcharts-yaxis-labels" data-z-index="7"><text x="36" text-anchor="end" transform="translate(0,0)" style="cursor: default; font-size: 0.8em; fill: rgb(0, 0, 0);" y="319" opacity="1">-160</text><text x="36" text-anchor="end" transform="translate(0,0)" style="cursor: default; font-size: 0.8em; fill: rgb(0, 0, 0);" y="303" opacity="1">-140</text><text x="36" text-anchor="end" transform="translate(0,0)" style="cursor: default; font-size: 0.8em; fill: rgb(0, 0, 0);" y="288" opacity="1">-120</text><text x="36" text-anchor="end" transform="translate(0,0)" style="cursor: default; font-size: 0.8em; fill: rgb(0, 0, 0);" y="272" opacity="1">-100</text><text x="36" text-anchor="end" transform="translate(0,0)" style="cursor: default; font-size: 0.8em; fill: rgb(0, 0, 0);" y="257" opacity="1">-80</text><text x="36" text-anchor="end" transform="translate(0,0)" style="cursor: default; font-size: 0.8em; fill: rgb(0, 0, 0);" y="241" opacity="1">-60</text><text x="36" text-anchor="end" transform="translate(0,0)" style="cursor: default; font-size: 0.8em; fill: rgb(0, 0, 0);" y="226" opacity="1">-40</text><text x="36" text-anchor="end" transform="translate(0,0)" style="cursor: default; font-size: 0.8em; fill: rgb(0, 0, 0);" y="210" opacity="1">-20</text><text x="36" text-anchor="end" transform="translate(0,0)" style="cursor: default; font-size: 0.8em; fill: rgb(0, 0, 0);" y="195" opacity="1">0</text><text x="36" text-anchor="end" transform="translate(0,0)" style="cursor: default; font-size: 0.8em; fill: rgb(0, 0, 0);" y="179" opacity="1">20</text><text x="36" text-anchor="end" transform="translate(0,0)" style="cursor: default; font-size: 0.8em; fill: rgb(0, 0, 0);" y="164" opacity="1">40</text><text x="36" text-anchor="end" transform="translate(0,0)" style="cursor: default; font-size: 0.8em; fill: rgb(0, 0, 0);" y="148" opacity="1">60</text><text x="36" text-anchor="end" transform="translate(0,0)" style="cursor: default; font-size: 0.8em; fill: rgb(0, 0, 0);" y="133" opacity="1">80</text><text x="36" text-anchor="end" transform="translate(0,0)" style="cursor: default; font-size: 0.8em; fill: rgb(0, 0, 0);" y="117" opacity="1">100</text><text x="36" text-anchor="end" transform="translate(0,0)" style="cursor: default; font-size: 0.8em; fill: rgb(0, 0, 0);" y="102" opacity="1">120</text></g><g class="highcharts-legend highcharts-no-tooltip" data-z-index="7" text-align="left" transform="translate(43,55)"><rect fill="none" class="highcharts-legend-box" rx="0" ry="0" stroke="#999999" stroke-width="0" filter="none" x="0" y="0" width="367" height="30"></rect><g data-z-index="1"><g><g class="highcharts-legend-item highcharts-column-series highcharts-color-undefined highcharts-series-0" data-z-index="1" transform="translate(8,3)"><text x="21" text-anchor="start" data-z-index="2" style="cursor: pointer; font-size: 0.8em; text-decoration: none; font-weight: normal; fill: rgb(51, 51, 51);" y="17">Umzugssaldo Klybeck</text><rect x="2" y="6" rx="0" ry="0" width="12" height="12" fill="#cd9c00" class="highcharts-point" data-z-index="3"></rect></g><g class="highcharts-legend-item highcharts-column-series highcharts-color-undefined highcharts-series-1" data-z-index="1" transform="translate(175.51864624023438,3)"><text x="21" y="17" text-anchor="start" data-z-index="2" style="cursor: pointer; font-size: 0.8em; text-decoration: none; font-weight: normal; fill: rgb(51, 51, 51);">Umzugssaldo Kleinhüningen</text><rect x="2" y="6" rx="0" ry="0" width="12" height="12" fill="#b375ab" class="highcharts-point" data-z-index="3"></rect></g></g></g></g></svg>