<?xml version="1.0" standalone="no"?><!DOCTYPE svg PUBLIC "-//W3C//DTD SVG 1.1//EN" "http://www.w3.org/Graphics/SVG/1.1/DTD/svg11.dtd"><svg xmlns:xlink="http://www.w3.org/1999/xlink" version="1.1" class="highcharts-root" style="font-family:Arial;font-size:12px;" xmlns="http://www.w3.org/2000/svg" viewBox="0 0 485 415"><desc>Created with Highcharts 8.2.0</desc><defs><clipPath id="highcharts-fblnasn-77-"><rect x="0" y="0" width="424" height="212" fill="none"></rect></clipPath><clipPath id="highcharts-fblnasn-88-"><rect x="0" y="0" width="424" height="212" fill="none"></rect></clipPath><clipPath id="highcharts-fblnasn-149-"><rect x="41" y="139" width="424" height="212" fill="none"></rect></clipPath></defs><rect fill="#fbfbfb" class="highcharts-background" x="0" y="0" width="485" height="428" rx="0" ry="0"></rect><rect fill="none" class="highcharts-plot-background" x="41" y="139" width="424" height="212"></rect><g class="highcharts-pane-group" data-z-index="0"></g><g class="highcharts-grid highcharts-xaxis-grid" data-z-index="1"><path fill="none" data-z-index="1" class="highcharts-grid-line" d="M 44.5 139 L 44.5 351" opacity="1"></path><path fill="none" data-z-index="1" class="highcharts-grid-line" d="M 90.5 139 L 90.5 351" opacity="1"></path><path fill="none" data-z-index="1" class="highcharts-grid-line" d="M 137.5 139 L 137.5 351" opacity="1"></path><path fill="none" data-z-index="1" class="highcharts-grid-line" d="M 183.5 139 L 183.5 351" opacity="1"></path><path fill="none" data-z-index="1" class="highcharts-grid-line" d="M 229.5 139 L 229.5 351" opacity="1"></path><path fill="none" data-z-index="1" class="highcharts-grid-line" d="M 275.5 139 L 275.5 351" opacity="1"></path><path fill="none" data-z-index="1" class="highcharts-grid-line" d="M 321.5 139 L 321.5 351" opacity="1"></path><path fill="none" data-z-index="1" class="highcharts-grid-line" d="M 367.5 139 L 367.5 351" opacity="1"></path><path fill="none" data-z-index="1" class="highcharts-grid-line" d="M 414.5 139 L 414.5 351" opacity="1"></path><path fill="none" data-z-index="1" class="highcharts-grid-line" d="M 460.5 139 L 460.5 351" opacity="1"></path></g><g class="highcharts-grid highcharts-yaxis-grid" data-z-index="1"><path fill="none" stroke="#B9CFD7" stroke-width="0.5" data-z-index="1" class="highcharts-grid-line" d="M 41 351.25 L 465 351.25" opacity="1"></path><path fill="none" stroke="#B9CFD7" stroke-width="0.5" data-z-index="1" class="highcharts-grid-line" d="M 41 298.25 L 465 298.25" opacity="1"></path><path fill="none" stroke="#B9CFD7" stroke-width="0.5" data-z-index="1" class="highcharts-grid-line" d="M 41 245.25 L 465 245.25" opacity="1"></path><path fill="none" stroke="#B9CFD7" stroke-width="0.5" data-z-index="1" class="highcharts-grid-line" d="M 41 192.25 L 465 192.25" opacity="1"></path><path fill="none" stroke="#B9CFD7" stroke-width="0.5" data-z-index="1" class="highcharts-grid-line" d="M 41 138.75 L 465 138.75" opacity="1"></path></g><rect fill="none" class="highcharts-plot-border" data-z-index="1" x="41" y="139" width="424" height="212"></rect><g class="highcharts-axis highcharts-xaxis" data-z-index="2"><path fill="none" class="highcharts-axis-line" stroke="#B9CFD7" stroke-width="0.5" data-z-index="7" d="M 41 351.25 L 465 351.25"></path></g><g class="highcharts-axis highcharts-yaxis" data-z-index="2"><path fill="none" class="highcharts-axis-line" data-z-index="7" d="M 41 139 L 41 351"></path></g><g class="highcharts-series-group" data-z-index="3"><g class="highcharts-series highcharts-series-0 highcharts-line-series" data-z-index="0.1" opacity="1" transform="translate(41,139) scale(1 1)" clip-path="url(#highcharts-fblnasn-88-)"><path fill="none" d="M 4.1568627450943 47.06400000000002 L 50.344226579518 75.6257 L 96.531590413941 92.6387 L 142.71895424836 89.6866 L 188.90631808279 94.17835 L 235.09368191721 91.8543 L 281.28104575164 92.95670000000001 L 327.46840958606 92.88515 L 373.65577342048 109.9273 L 419.84313725491 126.14529999999999" class="highcharts-graph" data-z-index="1" stroke="#73B97C" stroke-width="2" stroke-linejoin="round" stroke-linecap="round"></path></g><g class="highcharts-markers highcharts-series-0 highcharts-line-series" data-z-index="0.1" opacity="1" transform="translate(41,139) scale(1 1)" clip-path="none"></g><g class="highcharts-series highcharts-series-1 highcharts-line-series" data-z-index="0.1" opacity="1" transform="translate(41,139) scale(1 1)" clip-path="url(#highcharts-fblnasn-88-)"><path fill="none" d="M 4.1568627450943 79.1979 L 50.344226579518 102.23965000000001 L 96.531590413941 106.3392 L 142.71895424836 106.63335000000001 L 188.90631808279 115.79175000000001 L 235.09368191721 100.2548 L 281.28104575164 92.83745 L 327.46840958606 105.51240000000001 L 373.65577342048 122.2604 L 419.84313725491 131.90375" class="highcharts-graph" data-z-index="1" stroke="#007A2F " stroke-width="2" stroke-linejoin="round" stroke-linecap="round"></path></g><g class="highcharts-markers highcharts-series-1 highcharts-line-series" data-z-index="0.1" opacity="1" transform="translate(41,139) scale(1 1)" clip-path="none"></g><g class="highcharts-series highcharts-series-2 highcharts-line-series" data-z-index="0.1" opacity="1" transform="translate(41,139) scale(1 1)" clip-path="url(#highcharts-fblnasn-88-)"><path fill="none" d="M 4.1568627450943 91.3296 L 50.344226579518 105.92845 L 96.531590413941 98.79465 L 142.71895424836 92.50089999999999 L 188.90631808279 111.11980000000001 L 235.09368191721 103.95684999999999 L 281.28104575164 95.9459 L 327.46840958606 103.76605 L 373.65577342048 113.0967 L 419.84313725491 124.41485" class="highcharts-graph" data-z-index="1" stroke="#FFBB58" stroke-width="2" stroke-linejoin="round" stroke-linecap="round"></path></g><g class="highcharts-markers highcharts-series-2 highcharts-line-series" data-z-index="0.1" opacity="1" transform="translate(41,139) scale(1 1)" clip-path="none"></g><g class="highcharts-series highcharts-series-3 highcharts-line-series" data-z-index="0.1" opacity="1" transform="translate(41,139) scale(1 1)" clip-path="url(#highcharts-fblnasn-88-)"><path fill="none" d="M 4.1568627450943 111.3742 L 50.344226579518 122.8116 L 96.531590413941 120.36035 L 142.71895424836 123.03155000000001 L 188.90631808279 130.00635 L 235.09368191721 121.8894 L 281.28104575164 116.72720000000001 L 327.46840958606 118.13965 L 373.65577342048 123.05805 L 419.84313725491 130.39855" class="highcharts-graph" data-z-index="1" stroke="#689199" stroke-width="2" stroke-linejoin="round" stroke-linecap="round"></path></g><g class="highcharts-markers highcharts-series-3 highcharts-line-series" data-z-index="0.1" opacity="1" transform="translate(41,139) scale(1 1)" clip-path="none"></g><g class="highcharts-series highcharts-series-4 highcharts-line-series" data-z-index="0.1" opacity="1" transform="translate(41,139) scale(1 1)" clip-path="url(#highcharts-fblnasn-88-)"><path fill="none" d="M 4.1568627450943 130.20245 L 50.344226579518 136.62605000000002 L 96.531590413941 136.04835 L 142.71895424836 131.8163 L 188.90631808279 132.65635 L 235.09368191721 126.01280000000001 L 281.28104575164 121.7251 L 327.46840958606 133.38774999999998 L 373.65577342048 141.51794999999998 L 419.84313725491 141.457" class="highcharts-graph" data-z-index="1" stroke="#246370" stroke-width="2" stroke-linejoin="round" stroke-linecap="round"></path></g><g class="highcharts-markers highcharts-series-4 highcharts-line-series" data-z-index="0.1" opacity="1" transform="translate(41,139) scale(1 1)" clip-path="none"></g><g class="highcharts-series highcharts-series-5 highcharts-line-series" data-z-index="0.1" opacity="1" transform="translate(41,139) scale(1 1)" clip-path="url(#highcharts-fblnasn-88-)"><path fill="none" d="M 4.1568627450943 131.76330000000002 L 50.344226579518 136.6234 L 96.531590413941 139.2416 L 142.71895424836 140.238 L 188.90631808279 150.8592 L 235.09368191721 156.0903 L 281.28104575164 147.88855 L 327.46840958606 149.6826 L 373.65577342048 155.04885000000002 L 419.84313725491 154.92695" class="highcharts-graph" data-z-index="1" stroke="#B375AB" stroke-width="2" stroke-linejoin="round" stroke-linecap="round"></path></g><g class="highcharts-markers highcharts-series-5 highcharts-line-series" data-z-index="0.1" opacity="1" transform="translate(41,139) scale(1 1)" clip-path="none"></g><g class="highcharts-series highcharts-series-6 highcharts-line-series" data-z-index="0.1" opacity="1" transform="translate(41,139) scale(1 1)" clip-path="url(#highcharts-fblnasn-88-)"><path fill="none" d="M 4.1568627450943 101.33335 L 50.344226579518 115.21935 L 96.531590413941 115.20875 L 142.71895424836 113.2663 L 188.90631808279 122.09345 L 235.09368191721 115.20345 L 281.28104575164 109.5298 L 327.46840958606 116.4993 L 373.65577342048 125.83259999999999 L 419.84313725491 133.07505" class="highcharts-graph" data-z-index="1" stroke="#3C3C3C" stroke-width="2" stroke-linejoin="round" stroke-linecap="round"></path></g><g class="highcharts-markers highcharts-series-6 highcharts-line-series" data-z-index="0.1" opacity="1" transform="translate(41,139) scale(1 1)" clip-path="none"></g></g><text x="10" text-anchor="start" class="highcharts-title" data-z-index="4" style="color:#000000;font-size:14px;font-weight:bold;fill:#000000;" y="21"><tspan>Arbeitslosenquote nach Alter</tspan></text><text x="10" text-anchor="start" class="highcharts-subtitle" data-z-index="4" style="color:#000000;font-size:12px;font-weight:normal;fill:#000000;" y="40"><tspan>Basel-Stadt</tspan></text><text x="10" text-anchor="start" class="highcharts-caption" data-z-index="4" style="color:#666666;fill:#666666;" y="385"></text><g class="highcharts-legend" data-z-index="7" transform="translate(33,56)"><rect fill="none" class="highcharts-legend-box" rx="0" ry="0" x="0" y="0" width="416" height="71" visibility="visible"></rect><g data-z-index="1"><g><g class="highcharts-legend-item highcharts-line-series highcharts-color-undefined highcharts-series-0" data-z-index="1" transform="translate(8,3)"><path fill="none" d="M 0 11 L 16 11" class="highcharts-graph" stroke="#73B97C" stroke-width="2"></path><text x="21" style="color:#333333;cursor:pointer;font-size:12px;font-weight:normal;fill:#333333;" text-anchor="start" data-z-index="2" y="15"><tspan>15-24 Jahre</tspan></text></g><g class="highcharts-legend-item highcharts-line-series highcharts-color-undefined highcharts-series-1" data-z-index="1" transform="translate(148,3)"><path fill="none" d="M 0 11 L 16 11" class="highcharts-graph" stroke="#007A2F " stroke-width="2"></path><text x="21" y="15" style="color:#333333;cursor:pointer;font-size:12px;font-weight:normal;fill:#333333;" text-anchor="start" data-z-index="2"><tspan>25-29 Jahre</tspan></text></g><g class="highcharts-legend-item highcharts-line-series highcharts-color-undefined highcharts-series-2" data-z-index="1" transform="translate(288,3)"><path fill="none" d="M 0 11 L 16 11" class="highcharts-graph" stroke="#FFBB58" stroke-width="2"></path><text x="21" y="15" style="color:#333333;cursor:pointer;font-size:12px;font-weight:normal;fill:#333333;" text-anchor="start" data-z-index="2"><tspan>30-39 Jahre</tspan></text></g><g class="highcharts-legend-item highcharts-line-series highcharts-color-undefined highcharts-series-3" data-z-index="1" transform="translate(8,23)"><path fill="none" d="M 0 11 L 16 11" class="highcharts-graph" stroke="#689199" stroke-width="2"></path><text x="21" y="15" style="color:#333333;cursor:pointer;font-size:12px;font-weight:normal;fill:#333333;" text-anchor="start" data-z-index="2"><tspan>40-49 Jahre</tspan></text></g><g class="highcharts-legend-item highcharts-line-series highcharts-color-undefined highcharts-series-4" data-z-index="1" transform="translate(148,23)"><path fill="none" d="M 0 11 L 16 11" class="highcharts-graph" stroke="#246370" stroke-width="2"></path><text x="21" y="15" style="color:#333333;cursor:pointer;font-size:12px;font-weight:normal;fill:#333333;" text-anchor="start" data-z-index="2"><tspan>50-59 Jahre</tspan></text></g><g class="highcharts-legend-item highcharts-line-series highcharts-color-undefined highcharts-series-5" data-z-index="1" transform="translate(288,23)"><path fill="none" d="M 0 11 L 16 11" class="highcharts-graph" stroke="#B375AB" stroke-width="2"></path><text x="21" y="15" style="color:#333333;cursor:pointer;font-size:12px;font-weight:normal;fill:#333333;" text-anchor="start" data-z-index="2"><tspan>60 Jahre u.m.</tspan></text></g><g class="highcharts-legend-item highcharts-line-series highcharts-color-undefined highcharts-series-6" data-z-index="1" transform="translate(8,43)"><path fill="none" d="M 0 11 L 16 11" class="highcharts-graph" stroke="#3C3C3C" stroke-width="2"></path><text x="21" y="15" style="color:#333333;cursor:pointer;font-size:12px;font-weight:normal;fill:#333333;" text-anchor="start" data-z-index="2"><tspan>Total</tspan></text></g></g></g></g><g class="highcharts-axis-labels highcharts-xaxis-labels" data-z-index="7"><text x="45.156862745094" style="color:#000000;cursor:default;font-size:11px;fill:#000000;" text-anchor="middle" transform="translate(0,0)" y="370" opacity="1">2010</text><text x="91.344226579518" style="color:#000000;cursor:default;font-size:11px;fill:#000000;" text-anchor="middle" transform="translate(0,0)" y="370" opacity="1">2011</text><text x="137.53159041394" style="color:#000000;cursor:default;font-size:11px;fill:#000000;" text-anchor="middle" transform="translate(0,0)" y="370" opacity="1">2012</text><text x="183.71895424836" style="color:#000000;cursor:default;font-size:11px;fill:#000000;" text-anchor="middle" transform="translate(0,0)" y="370" opacity="1">2013</text><text x="229.90631808279" style="color:#000000;cursor:default;font-size:11px;fill:#000000;" text-anchor="middle" transform="translate(0,0)" y="370" opacity="1">2014</text><text x="276.09368191721" style="color:#000000;cursor:default;font-size:11px;fill:#000000;" text-anchor="middle" transform="translate(0,0)" y="370" opacity="1">2015</text><text x="322.28104575164" style="color:#000000;cursor:default;font-size:11px;fill:#000000;" text-anchor="middle" transform="translate(0,0)" y="370" opacity="1">2016</text><text x="368.46840958606" style="color:#000000;cursor:default;font-size:11px;fill:#000000;" text-anchor="middle" transform="translate(0,0)" y="370" opacity="1">2017</text><text x="414.65577342048" style="color:#000000;cursor:default;font-size:11px;fill:#000000;" text-anchor="middle" transform="translate(0,0)" y="370" opacity="1">2018</text><text x="460.84313725491" style="color:#000000;cursor:default;font-size:11px;fill:#000000;" text-anchor="middle" transform="translate(0,0)" y="370" opacity="1">2019</text></g><g class="highcharts-axis-labels highcharts-yaxis-labels" data-z-index="7"><text x="26" style="color:#000000;cursor:default;font-size:11px;fill:#000000;" text-anchor="end" transform="translate(0,0)" y="355" opacity="1">0%</text><text x="26" style="color:#000000;cursor:default;font-size:11px;fill:#000000;" text-anchor="end" transform="translate(0,0)" y="302" opacity="1">2%</text><text x="26" style="color:#000000;cursor:default;font-size:11px;fill:#000000;" text-anchor="end" transform="translate(0,0)" y="249" opacity="1">4%</text><text x="26" style="color:#000000;cursor:default;font-size:11px;fill:#000000;" text-anchor="end" transform="translate(0,0)" y="196" opacity="1">6%</text><text x="26" style="color:#000000;cursor:default;font-size:11px;fill:#000000;" text-anchor="end" transform="translate(0,0)" y="143" opacity="1">8%</text></g><text x="10" class="highcharts-credits" text-anchor="start" data-z-index="8" style="cursor:default;color:#000000;font-size:10px;fill:#000000;" y="403"><tspan>Quelle: Staatssekretariat für Wirtschaft SECO, Arbeitslosenstatistik.</tspan><tspan x="10" dy="13">Zuletzt geändert: 2020-5-18</tspan></text><g class="highcharts-control-points" data-z-index="99" clip-path="url(#highcharts-fblnasn-149-)"></g></svg>