<?xml version="1.0" standalone="no"?><!DOCTYPE svg PUBLIC "-//W3C//DTD SVG 1.1//EN" "http://www.w3.org/Graphics/SVG/1.1/DTD/svg11.dtd"><svg xmlns:xlink="http://www.w3.org/1999/xlink" version="1.1" class="highcharts-root" style="font-family:Arial;font-size:12px;" xmlns="http://www.w3.org/2000/svg" viewBox="0 0 485 415"><desc>Created with Highstock 6.1.1</desc><defs><clipPath id="highcharts-9l2mkwl-6"><rect x="0" y="0" width="495" height="219" fill="none"></rect></clipPath><clipPath id="highcharts-9l2mkwl-7"><rect x="0" y="0" width="495" height="219" fill="none"></rect></clipPath></defs><rect fill="#fbfbfb" class="highcharts-background" x="0" y="0" width="485" height="613" rx="0" ry="0"></rect><rect fill="none" class="highcharts-plot-background" x="130" y="56" width="219" height="495"></rect><g class="highcharts-pane-group" data-z-index="0"></g><g class="highcharts-grid highcharts-xaxis-grid " data-z-index="1"><path fill="none" data-z-index="1" class="highcharts-grid-line" d="M 130 71.5 L 349 71.5" opacity="1"></path><path fill="none" data-z-index="1" class="highcharts-grid-line" d="M 130 86.5 L 349 86.5" opacity="1"></path><path fill="none" data-z-index="1" class="highcharts-grid-line" d="M 130 101.5 L 349 101.5" opacity="1"></path><path fill="none" data-z-index="1" class="highcharts-grid-line" d="M 130 116.5 L 349 116.5" opacity="1"></path><path fill="none" data-z-index="1" class="highcharts-grid-line" d="M 130 131.5 L 349 131.5" opacity="1"></path><path fill="none" data-z-index="1" class="highcharts-grid-line" d="M 130 146.5 L 349 146.5" opacity="1"></path><path fill="none" data-z-index="1" class="highcharts-grid-line" d="M 130 161.5 L 349 161.5" opacity="1"></path><path fill="none" data-z-index="1" class="highcharts-grid-line" d="M 130 176.5 L 349 176.5" opacity="1"></path><path fill="none" data-z-index="1" class="highcharts-grid-line" d="M 130 191.5 L 349 191.5" opacity="1"></path><path fill="none" data-z-index="1" class="highcharts-grid-line" d="M 130 206.5 L 349 206.5" opacity="1"></path><path fill="none" data-z-index="1" class="highcharts-grid-line" d="M 130 221.5 L 349 221.5" opacity="1"></path><path fill="none" data-z-index="1" class="highcharts-grid-line" d="M 130 236.5 L 349 236.5" opacity="1"></path><path fill="none" data-z-index="1" class="highcharts-grid-line" d="M 130 251.5 L 349 251.5" opacity="1"></path><path fill="none" data-z-index="1" class="highcharts-grid-line" d="M 130 266.5 L 349 266.5" opacity="1"></path><path fill="none" data-z-index="1" class="highcharts-grid-line" d="M 130 281.5 L 349 281.5" opacity="1"></path><path fill="none" data-z-index="1" class="highcharts-grid-line" d="M 130 296.5 L 349 296.5" opacity="1"></path><path fill="none" data-z-index="1" class="highcharts-grid-line" d="M 130 311.5 L 349 311.5" opacity="1"></path><path fill="none" data-z-index="1" class="highcharts-grid-line" d="M 130 326.5 L 349 326.5" opacity="1"></path><path fill="none" data-z-index="1" class="highcharts-grid-line" d="M 130 341.5 L 349 341.5" opacity="1"></path><path fill="none" data-z-index="1" class="highcharts-grid-line" d="M 130 356.5 L 349 356.5" opacity="1"></path><path fill="none" data-z-index="1" class="highcharts-grid-line" d="M 130 371.5 L 349 371.5" opacity="1"></path><path fill="none" data-z-index="1" class="highcharts-grid-line" d="M 130 386.5 L 349 386.5" opacity="1"></path><path fill="none" data-z-index="1" class="highcharts-grid-line" d="M 130 401.5 L 349 401.5" opacity="1"></path><path fill="none" data-z-index="1" class="highcharts-grid-line" d="M 130 416.5 L 349 416.5" opacity="1"></path><path fill="none" data-z-index="1" class="highcharts-grid-line" d="M 130 431.5 L 349 431.5" opacity="1"></path><path fill="none" data-z-index="1" class="highcharts-grid-line" d="M 130 446.5 L 349 446.5" opacity="1"></path><path fill="none" data-z-index="1" class="highcharts-grid-line" d="M 130 461.5 L 349 461.5" opacity="1"></path><path fill="none" data-z-index="1" class="highcharts-grid-line" d="M 130 476.5 L 349 476.5" opacity="1"></path><path fill="none" data-z-index="1" class="highcharts-grid-line" d="M 130 491.5 L 349 491.5" opacity="1"></path><path fill="none" data-z-index="1" class="highcharts-grid-line" d="M 130 506.5 L 349 506.5" opacity="1"></path><path fill="none" data-z-index="1" class="highcharts-grid-line" d="M 130 521.5 L 349 521.5" opacity="1"></path><path fill="none" data-z-index="1" class="highcharts-grid-line" d="M 130 536.5 L 349 536.5" opacity="1"></path><path fill="none" data-z-index="1" class="highcharts-grid-line" d="M 130 551.5 L 349 551.5" opacity="1"></path><path fill="none" data-z-index="1" class="highcharts-grid-line" d="M 130 56.5 L 349 56.5" opacity="1"></path></g><g class="highcharts-grid highcharts-yaxis-grid " data-z-index="1"><path fill="none" stroke="#B9CFD7" stroke-width="0.5" data-z-index="1" class="highcharts-grid-line" d="M 129.75 56 L 129.75 551" opacity="1"></path><path fill="none" stroke="#B9CFD7" stroke-width="0.5" data-z-index="1" class="highcharts-grid-line" d="M 173.75 56 L 173.75 551" opacity="1"></path><path fill="none" stroke="#B9CFD7" stroke-width="0.5" data-z-index="1" class="highcharts-grid-line" d="M 217.75 56 L 217.75 551" opacity="1"></path><path fill="none" stroke="#B9CFD7" stroke-width="0.5" data-z-index="1" class="highcharts-grid-line" d="M 260.75 56 L 260.75 551" opacity="1"></path><path fill="none" stroke="#B9CFD7" stroke-width="0.5" data-z-index="1" class="highcharts-grid-line" d="M 304.75 56 L 304.75 551" opacity="1"></path><path fill="none" stroke="#B9CFD7" stroke-width="0.5" data-z-index="1" class="highcharts-grid-line" d="M 349.25 56 L 349.25 551" opacity="1"></path></g><rect fill="none" class="highcharts-plot-border" data-z-index="1" x="130" y="56" width="219" height="495"></rect><g class="highcharts-axis highcharts-xaxis " data-z-index="2"><path fill="none" class="highcharts-axis-line" stroke="#B9CFD7" stroke-width="0.5" data-z-index="7" d="M 129.75 56 L 129.75 551"></path></g><g class="highcharts-axis highcharts-yaxis " data-z-index="2"><path fill="none" class="highcharts-axis-line" data-z-index="7" d="M 130 551 L 349 551"></path></g><g class="highcharts-series-group" data-z-index="3"><g data-z-index="0.1" class="highcharts-series highcharts-series-0 highcharts-column-series " transform="translate(349,551) rotate(90) scale(-1,1) scale(1 1)" clip-path="url(#highcharts-9l2mkwl-7)"><rect x="469" y="147" width="8" height="73" fill="#007A2F" class="highcharts-point"></rect><rect x="454" y="155" width="8" height="65" fill="#007A2F" class="highcharts-point"></rect><rect x="424" y="168" width="8" height="52" fill="#007A2F" class="highcharts-point"></rect><rect x="409" y="162" width="8" height="58" fill="#007A2F" class="highcharts-point"></rect><rect x="394" y="130" width="8" height="90" fill="#007A2F" class="highcharts-point"></rect><rect x="364" y="146" width="8" height="74" fill="#007A2F" class="highcharts-point"></rect><rect x="349" y="153" width="8" height="67" fill="#007A2F" class="highcharts-point"></rect><rect x="334" y="157" width="8" height="63" fill="#007A2F" class="highcharts-point"></rect><rect x="319" y="153" width="8" height="67" fill="#007A2F" class="highcharts-point"></rect><rect x="289" y="160" width="8" height="60" fill="#007A2F" class="highcharts-point"></rect><rect x="274" y="150" width="8" height="70" fill="#007A2F" class="highcharts-point"></rect><rect x="259" y="136" width="8" height="84" fill="#007A2F" class="highcharts-point"></rect><rect x="229" y="125" width="8" height="95" fill="#007A2F" class="highcharts-point"></rect><rect x="214" y="133" width="8" height="87" fill="#007A2F" class="highcharts-point"></rect><rect x="199" y="133" width="8" height="87" fill="#007A2F" class="highcharts-point"></rect><rect x="184" y="151" width="8" height="69" fill="#007A2F" class="highcharts-point"></rect><rect x="169" y="154" width="8" height="66" fill="#007A2F" class="highcharts-point"></rect><rect x="154" y="179" width="8" height="41" fill="#007A2F" class="highcharts-point"></rect><rect x="124" y="153" width="8" height="67" fill="#007A2F" class="highcharts-point"></rect><rect x="109" y="146" width="8" height="74" fill="#007A2F" class="highcharts-point"></rect><rect x="79" y="131" width="8" height="89" fill="#007A2F" class="highcharts-point"></rect><rect x="64" y="121" width="8" height="99" fill="#007A2F" class="highcharts-point"></rect><rect x="49" y="131" width="8" height="89" fill="#007A2F" class="highcharts-point"></rect><rect x="34" y="122" width="8" height="98" fill="#007A2F" class="highcharts-point"></rect><rect x="19" y="134" width="8" height="86" fill="#007A2F" class="highcharts-point"></rect><rect x="4" y="152" width="8" height="68" fill="#007A2F" class="highcharts-point"></rect></g><g data-z-index="0.1" class="highcharts-markers highcharts-series-0 highcharts-column-series " transform="translate(349,551) rotate(90) scale(-1,1) scale(1 1)" clip-path="none"></g><g data-z-index="0.1" class="highcharts-series highcharts-series-1 highcharts-column-series " transform="translate(349,551) rotate(90) scale(-1,1) scale(1 1)" clip-path="url(#highcharts-9l2mkwl-7)"><rect x="469" y="29" width="8" height="118" fill="#73BA7C" class="highcharts-point"></rect><rect x="454" y="36" width="8" height="119" fill="#73BA7C" class="highcharts-point"></rect><rect x="424" y="62" width="8" height="106" fill="#73BA7C" class="highcharts-point"></rect><rect x="409" y="35" width="8" height="127" fill="#73BA7C" class="highcharts-point"></rect><rect x="394" y="14" width="8" height="116" fill="#73BA7C" class="highcharts-point"></rect><rect x="364" y="31" width="8" height="115" fill="#73BA7C" class="highcharts-point"></rect><rect x="349" y="36" width="8" height="117" fill="#73BA7C" class="highcharts-point"></rect><rect x="334" y="38" width="8" height="119" fill="#73BA7C" class="highcharts-point"></rect><rect x="319" y="33" width="8" height="120" fill="#73BA7C" class="highcharts-point"></rect><rect x="289" y="45" width="8" height="115" fill="#73BA7C" class="highcharts-point"></rect><rect x="274" y="26" width="8" height="124" fill="#73BA7C" class="highcharts-point"></rect><rect x="259" y="18" width="8" height="118" fill="#73BA7C" class="highcharts-point"></rect><rect x="229" y="26" width="8" height="99" fill="#73BA7C" class="highcharts-point"></rect><rect x="214" y="26" width="8" height="107" fill="#73BA7C" class="highcharts-point"></rect><rect x="199" y="16" width="8" height="117" fill="#73BA7C" class="highcharts-point"></rect><rect x="184" y="34" width="8" height="117" fill="#73BA7C" class="highcharts-point"></rect><rect x="169" y="33" width="8" height="121" fill="#73BA7C" class="highcharts-point"></rect><rect x="154" y="46" width="8" height="133" fill="#73BA7C" class="highcharts-point"></rect><rect x="124" y="34" width="8" height="119" fill="#73BA7C" class="highcharts-point"></rect><rect x="109" y="35" width="8" height="111" fill="#73BA7C" class="highcharts-point"></rect><rect x="79" y="31" width="8" height="100" fill="#73BA7C" class="highcharts-point"></rect><rect x="64" y="26" width="8" height="95" fill="#73BA7C" class="highcharts-point"></rect><rect x="49" y="31" width="8" height="100" fill="#73BA7C" class="highcharts-point"></rect><rect x="34" y="28" width="8" height="94" fill="#73BA7C" class="highcharts-point"></rect><rect x="19" y="31" width="8" height="103" fill="#73BA7C" class="highcharts-point"></rect><rect x="4" y="35" width="8" height="117" fill="#73BA7C" class="highcharts-point"></rect></g><g data-z-index="0.1" class="highcharts-markers highcharts-series-1 highcharts-column-series " transform="translate(349,551) rotate(90) scale(-1,1) scale(1 1)" clip-path="none"></g><g data-z-index="0.1" class="highcharts-series highcharts-series-2 highcharts-column-series " transform="translate(349,551) rotate(90) scale(-1,1) scale(1 1)" clip-path="url(#highcharts-9l2mkwl-7)"><rect x="469" y="7" width="8" height="22" fill="#FFBB58" class="highcharts-point"></rect><rect x="454" y="9" width="8" height="27" fill="#FFBB58" class="highcharts-point"></rect><rect x="424" y="14" width="8" height="48" fill="#FFBB58" class="highcharts-point"></rect><rect x="409" y="7" width="8" height="28" fill="#FFBB58" class="highcharts-point"></rect><rect x="394" y="3" width="8" height="11" fill="#FFBB58" class="highcharts-point"></rect><rect x="364" y="10" width="8" height="21" fill="#FFBB58" class="highcharts-point"></rect><rect x="349" y="10" width="8" height="26" fill="#FFBB58" class="highcharts-point"></rect><rect x="334" y="14" width="8" height="24" fill="#FFBB58" class="highcharts-point"></rect><rect x="319" y="8" width="8" height="25" fill="#FFBB58" class="highcharts-point"></rect><rect x="289" y="12" width="8" height="33" fill="#FFBB58" class="highcharts-point"></rect><rect x="274" y="5" width="8" height="21" fill="#FFBB58" class="highcharts-point"></rect><rect x="259" y="6" width="8" height="12" fill="#FFBB58" class="highcharts-point"></rect><rect x="229" y="9" width="8" height="17" fill="#FFBB58" class="highcharts-point"></rect><rect x="214" y="8" width="8" height="18" fill="#FFBB58" class="highcharts-point"></rect><rect x="199" y="6" width="8" height="10" fill="#FFBB58" class="highcharts-point"></rect><rect x="184" y="9" width="8" height="25" fill="#FFBB58" class="highcharts-point"></rect><rect x="169" y="7" width="8" height="26" fill="#FFBB58" class="highcharts-point"></rect><rect x="154" y="8" width="8" height="38" fill="#FFBB58" class="highcharts-point"></rect><rect x="124" y="10" width="8" height="24" fill="#FFBB58" class="highcharts-point"></rect><rect x="109" y="10" width="8" height="25" fill="#FFBB58" class="highcharts-point"></rect><rect x="79" y="7" width="8" height="24" fill="#FFBB58" class="highcharts-point"></rect><rect x="64" y="4" width="8" height="22" fill="#FFBB58" class="highcharts-point"></rect><rect x="49" y="4" width="8" height="27" fill="#FFBB58" class="highcharts-point"></rect><rect x="34" y="6" width="8" height="22" fill="#FFBB58" class="highcharts-point"></rect><rect x="19" y="8" width="8" height="23" fill="#FFBB58" class="highcharts-point"></rect><rect x="4" y="11" width="8" height="24" fill="#FFBB58" class="highcharts-point"></rect></g><g data-z-index="0.1" class="highcharts-markers highcharts-series-2 highcharts-column-series " transform="translate(349,551) rotate(90) scale(-1,1) scale(1 1)" clip-path="none"></g><g data-z-index="0.1" class="highcharts-series highcharts-series-3 highcharts-column-series " transform="translate(349,551) rotate(90) scale(-1,1) scale(1 1)" clip-path="url(#highcharts-9l2mkwl-7)"><rect x="469" y="4" width="8" height="3" fill="#FF8028" class="highcharts-point"></rect><rect x="454" y="4" width="8" height="5" fill="#FF8028" class="highcharts-point"></rect><rect x="424" y="4" width="8" height="10" fill="#FF8028" class="highcharts-point"></rect><rect x="409" y="3" width="8" height="4" fill="#FF8028" class="highcharts-point"></rect><rect x="394" y="2" width="8" height="1" fill="#FF8028" class="highcharts-point"></rect><rect x="364" y="5" width="8" height="5" fill="#FF8028" class="highcharts-point"></rect><rect x="349" y="7" width="8" height="3" fill="#FF8028" class="highcharts-point"></rect><rect x="334" y="8" width="8" height="6" fill="#FF8028" class="highcharts-point"></rect><rect x="319" y="6" width="8" height="2" fill="#FF8028" class="highcharts-point"></rect><rect x="289" y="5" width="8" height="7" fill="#FF8028" class="highcharts-point"></rect><rect x="274" y="3" width="8" height="2" fill="#FF8028" class="highcharts-point"></rect><rect x="259" y="4" width="8" height="2" fill="#FF8028" class="highcharts-point"></rect><rect x="229" y="8" width="8" height="1" fill="#FF8028" class="highcharts-point"></rect><rect x="214" y="4" width="8" height="4" fill="#FF8028" class="highcharts-point"></rect><rect x="199" y="2" width="8" height="4" fill="#FF8028" class="highcharts-point"></rect><rect x="184" y="4" width="8" height="5" fill="#FF8028" class="highcharts-point"></rect><rect x="169" y="3" width="8" height="4" fill="#FF8028" class="highcharts-point"></rect><rect x="154" y="3" width="8" height="5" fill="#FF8028" class="highcharts-point"></rect><rect x="124" y="6" width="8" height="4" fill="#FF8028" class="highcharts-point"></rect><rect x="109" y="5" width="8" height="5" fill="#FF8028" class="highcharts-point"></rect><rect x="79" y="2" width="8" height="5" fill="#FF8028" class="highcharts-point"></rect><rect x="64" y="0" width="8" height="4" fill="#FF8028" class="highcharts-point"></rect><rect x="49" y="0" width="8" height="4" fill="#FF8028" class="highcharts-point"></rect><rect x="34" y="0" width="8" height="6" fill="#FF8028" class="highcharts-point"></rect><rect x="19" y="2" width="8" height="6" fill="#FF8028" class="highcharts-point"></rect><rect x="4" y="6" width="8" height="5" fill="#FF8028" class="highcharts-point"></rect></g><g data-z-index="0.1" class="highcharts-markers highcharts-series-3 highcharts-column-series " transform="translate(349,551) rotate(90) scale(-1,1) scale(1 1)" clip-path="none"></g><g data-z-index="0.1" class="highcharts-series highcharts-series-4 highcharts-column-series " transform="translate(349,551) rotate(90) scale(-1,1) scale(1 1)" clip-path="url(#highcharts-9l2mkwl-7)"><rect x="469" y="2" width="8" height="2" fill="#C8C8C8" class="highcharts-point"></rect><rect x="454" y="3" width="8" height="1" fill="#C8C8C8" class="highcharts-point"></rect><rect x="424" y="3" width="8" height="1" fill="#C8C8C8" class="highcharts-point"></rect><rect x="409" y="2" width="8" height="1" fill="#C8C8C8" class="highcharts-point"></rect><rect x="394" y="2" width="8" height="0" fill="#C8C8C8" class="highcharts-point"></rect><rect x="364" y="5" width="8" height="0" fill="#C8C8C8" class="highcharts-point"></rect><rect x="349" y="5" width="8" height="2" fill="#C8C8C8" class="highcharts-point"></rect><rect x="334" y="7" width="8" height="1" fill="#C8C8C8" class="highcharts-point"></rect><rect x="319" y="4" width="8" height="2" fill="#C8C8C8" class="highcharts-point"></rect><rect x="289" y="3" width="8" height="2" fill="#C8C8C8" class="highcharts-point"></rect><rect x="274" y="3" width="8" height="0" fill="#C8C8C8" class="highcharts-point"></rect><rect x="259" y="3" width="8" height="1" fill="#C8C8C8" class="highcharts-point"></rect><rect x="229" y="2" width="8" height="6" fill="#C8C8C8" class="highcharts-point"></rect><rect x="214" y="3" width="8" height="1" fill="#C8C8C8" class="highcharts-point"></rect><rect x="199" y="2" width="8" height="0" fill="#C8C8C8" class="highcharts-point"></rect><rect x="184" y="3" width="8" height="1" fill="#C8C8C8" class="highcharts-point"></rect><rect x="169" y="3" width="8" height="0" fill="#C8C8C8" class="highcharts-point"></rect><rect x="154" y="3" width="8" height="0" fill="#C8C8C8" class="highcharts-point"></rect><rect x="124" y="5" width="8" height="1" fill="#C8C8C8" class="highcharts-point"></rect><rect x="109" y="3" width="8" height="2" fill="#C8C8C8" class="highcharts-point"></rect><rect x="79" y="0" width="8" height="2" fill="#C8C8C8" class="highcharts-point"></rect><rect x="64" y="1" width="8" height="0" fill="#C8C8C8" class="highcharts-point"></rect><rect x="49" y="1" width="8" height="0" fill="#C8C8C8" class="highcharts-point"></rect><rect x="34" y="1" width="8" height="0" fill="#C8C8C8" class="highcharts-point"></rect><rect x="19" y="0" width="8" height="2" fill="#C8C8C8" class="highcharts-point"></rect><rect x="4" y="5" width="8" height="1" fill="#C8C8C8" class="highcharts-point"></rect></g><g data-z-index="0.1" class="highcharts-markers highcharts-series-4 highcharts-column-series " transform="translate(349,551) rotate(90) scale(-1,1) scale(1 1)" clip-path="none"></g><g data-z-index="0.1" class="highcharts-series highcharts-series-5 highcharts-column-series " transform="translate(349,551) rotate(90) scale(-1,1) scale(1 1)" clip-path="url(#highcharts-9l2mkwl-7)"><rect x="469" y="0" width="8" height="2" fill="#6F6F6F" class="highcharts-point"></rect><rect x="454" y="0" width="8" height="3" fill="#6F6F6F" class="highcharts-point"></rect><rect x="424" y="0" width="8" height="3" fill="#6F6F6F" class="highcharts-point"></rect><rect x="409" y="0" width="8" height="2" fill="#6F6F6F" class="highcharts-point"></rect><rect x="394" y="0" width="8" height="2" fill="#6F6F6F" class="highcharts-point"></rect><rect x="364" y="0" width="8" height="5" fill="#6F6F6F" class="highcharts-point"></rect><rect x="349" y="0" width="8" height="5" fill="#6F6F6F" class="highcharts-point"></rect><rect x="334" y="0" width="8" height="7" fill="#6F6F6F" class="highcharts-point"></rect><rect x="319" y="0" width="8" height="4" fill="#6F6F6F" class="highcharts-point"></rect><rect x="289" y="0" width="8" height="3" fill="#6F6F6F" class="highcharts-point"></rect><rect x="274" y="0" width="8" height="3" fill="#6F6F6F" class="highcharts-point"></rect><rect x="259" y="0" width="8" height="3" fill="#6F6F6F" class="highcharts-point"></rect><rect x="229" y="0" width="8" height="2" fill="#6F6F6F" class="highcharts-point"></rect><rect x="214" y="0" width="8" height="3" fill="#6F6F6F" class="highcharts-point"></rect><rect x="199" y="0" width="8" height="2" fill="#6F6F6F" class="highcharts-point"></rect><rect x="184" y="0" width="8" height="3" fill="#6F6F6F" class="highcharts-point"></rect><rect x="169" y="0" width="8" height="3" fill="#6F6F6F" class="highcharts-point"></rect><rect x="154" y="0" width="8" height="3" fill="#6F6F6F" class="highcharts-point"></rect><rect x="124" y="0" width="8" height="5" fill="#6F6F6F" class="highcharts-point"></rect><rect x="109" y="0" width="8" height="3" fill="#6F6F6F" class="highcharts-point"></rect><rect x="79" y="1" width="8" height="0" fill="#6F6F6F" class="highcharts-point"></rect><rect x="64" y="1" width="8" height="0" fill="#6F6F6F" class="highcharts-point"></rect><rect x="49" y="1" width="8" height="0" fill="#6F6F6F" class="highcharts-point"></rect><rect x="34" y="1" width="8" height="0" fill="#6F6F6F" class="highcharts-point"></rect><rect x="19" y="1" width="8" height="0" fill="#6F6F6F" class="highcharts-point"></rect><rect x="4" y="0" width="8" height="5" fill="#6F6F6F" class="highcharts-point"></rect></g><g data-z-index="0.1" class="highcharts-markers highcharts-series-5 highcharts-column-series " transform="translate(349,551) rotate(90) scale(-1,1) scale(1 1)" clip-path="none"></g></g><text x="10" text-anchor="start" class="highcharts-title" data-z-index="4" style="color:#000000;font-size:14px;font-weight:bold;fill:#000000;" y="21"><tspan>Gesundheitliche Verfassung</tspan></text><text x="10" text-anchor="start" class="highcharts-subtitle" data-z-index="4" style="color:#000000;font-size:12px;fill:#000000;" y="40"><tspan>«Wie geht es Ihnen zurzeit gesundheitlich?»</tspan></text><g class="highcharts-legend" data-z-index="7" transform="translate(361,226)"><rect fill="none" class="highcharts-legend-box" rx="0" ry="0" x="0" y="0" width="114" height="131" visibility="visible"></rect><g data-z-index="1"><g><g class="highcharts-legend-item highcharts-column-series highcharts-color-undefined highcharts-series-0" data-z-index="1" transform="translate(8,3)"><text x="21" style="color:#333333;font-size:12px;font-weight:normal;cursor:pointer;fill:#333333;" text-anchor="start" data-z-index="2" y="15"><tspan>Sehr gut</tspan></text><rect x="2" y="4" width="12" height="12" fill="#007A2F" class="highcharts-point" data-z-index="3"></rect></g><g class="highcharts-legend-item highcharts-column-series highcharts-color-undefined highcharts-series-1" data-z-index="1" transform="translate(8,23)"><text x="21" y="15" style="color:#333333;font-size:12px;font-weight:normal;cursor:pointer;fill:#333333;" text-anchor="start" data-z-index="2"><tspan>Eher gut</tspan></text><rect x="2" y="4" width="12" height="12" fill="#73BA7C" class="highcharts-point" data-z-index="3"></rect></g><g class="highcharts-legend-item highcharts-column-series highcharts-color-undefined highcharts-series-2" data-z-index="1" transform="translate(8,43)"><text x="21" y="15" style="color:#333333;font-size:12px;font-weight:normal;cursor:pointer;fill:#333333;" text-anchor="start" data-z-index="2"><tspan>Eher nicht gut</tspan></text><rect x="2" y="4" width="12" height="12" fill="#FFBB58" class="highcharts-point" data-z-index="3"></rect></g><g class="highcharts-legend-item highcharts-column-series highcharts-color-undefined highcharts-series-3" data-z-index="1" transform="translate(8,63)"><text x="21" y="15" style="color:#333333;font-size:12px;font-weight:normal;cursor:pointer;fill:#333333;" text-anchor="start" data-z-index="2"><tspan>Gar nicht gut</tspan></text><rect x="2" y="4" width="12" height="12" fill="#FF8028" class="highcharts-point" data-z-index="3"></rect></g><g class="highcharts-legend-item highcharts-column-series highcharts-color-undefined highcharts-series-4" data-z-index="1" transform="translate(8,83)"><text x="21" y="15" style="color:#333333;font-size:12px;font-weight:normal;cursor:pointer;fill:#333333;" text-anchor="start" data-z-index="2"><tspan>Weiss nicht</tspan></text><rect x="2" y="4" width="12" height="12" fill="#C8C8C8" class="highcharts-point" data-z-index="3"></rect></g><g class="highcharts-legend-item highcharts-column-series highcharts-color-undefined highcharts-series-5" data-z-index="1" transform="translate(8,103)"><text x="21" y="15" style="color:#333333;font-size:12px;font-weight:normal;cursor:pointer;fill:#333333;" text-anchor="start" data-z-index="2"><tspan>Keine Angabe</tspan></text><rect x="2" y="4" width="12" height="12" fill="#6F6F6F" class="highcharts-point" data-z-index="3"></rect></g></g></g></g><g class="highcharts-axis-labels highcharts-xaxis-labels " data-z-index="7"><text x="10" style="color:#000000;cursor:default;font-size:11px;white-space:nowrap;fill:#000000;" text-anchor="start" transform="translate(0,0)" y="68" opacity="1"><tspan>Geschlecht</tspan></text><text x="10" style="color:#000000;cursor:default;font-size:11px;white-space:nowrap;fill:#000000;" text-anchor="start" transform="translate(0,0)" y="83" opacity="1"><tspan>&amp;nbsp; &amp;nbsp; &amp;nbsp; Männlich</tspan></text><text x="10" style="color:#000000;cursor:default;font-size:11px;white-space:nowrap;fill:#000000;" text-anchor="start" transform="translate(0,0)" y="98" opacity="1"><tspan>&amp;nbsp; &amp;nbsp; &amp;nbsp; Weiblich</tspan></text><text x="10" style="color:#000000;cursor:default;font-size:11px;white-space:nowrap;fill:#000000;" text-anchor="start" transform="translate(0,0)" y="113" opacity="1"><tspan>Haushaltseinkommen</tspan></text><text x="10" style="color:#000000;cursor:default;font-size:11px;white-space:nowrap;fill:#000000;" text-anchor="start" transform="translate(0,0)" y="128" opacity="1"><tspan>&amp;nbsp; &amp;nbsp; &amp;nbsp; &lt;3 000 Fr.</tspan></text><text x="10" style="color:#000000;cursor:default;font-size:11px;white-space:nowrap;fill:#000000;" text-anchor="start" transform="translate(0,0)" y="143" opacity="1"><tspan>&amp;nbsp; &amp;nbsp; &amp;nbsp; 3 000-7 499 Fr.</tspan></text><text x="10" style="color:#000000;cursor:default;font-size:11px;white-space:nowrap;fill:#000000;" text-anchor="start" transform="translate(0,0)" y="158" opacity="1"><tspan>&amp;nbsp; &amp;nbsp; &amp;nbsp; &gt;7 499 Fr.</tspan></text><text x="10" style="color:#000000;cursor:default;font-size:11px;white-space:nowrap;fill:#000000;" text-anchor="start" transform="translate(0,0)" y="173" opacity="1"><tspan>Wahlkreis</tspan></text><text x="10" style="color:#000000;cursor:default;font-size:11px;white-space:nowrap;fill:#000000;" text-anchor="start" transform="translate(0,0)" y="188" opacity="1"><tspan>&amp;nbsp; &amp;nbsp; &amp;nbsp; Grossbasel Ost</tspan></text><text x="10" style="color:#000000;cursor:default;font-size:11px;white-space:nowrap;fill:#000000;" text-anchor="start" transform="translate(0,0)" y="203" opacity="1"><tspan>&amp;nbsp; &amp;nbsp; &amp;nbsp; Grossbasel West</tspan></text><text x="10" style="color:#000000;cursor:default;font-size:11px;white-space:nowrap;fill:#000000;" text-anchor="start" transform="translate(0,0)" y="218" opacity="1"><tspan>&amp;nbsp; &amp;nbsp; &amp;nbsp; Kleinbasel</tspan></text><text x="10" style="color:#000000;cursor:default;font-size:11px;white-space:nowrap;fill:#000000;" text-anchor="start" transform="translate(0,0)" y="233" opacity="1"><tspan>&amp;nbsp; &amp;nbsp; &amp;nbsp; Riehen, Bettingen</tspan></text><text x="10" style="color:#000000;cursor:default;font-size:11px;white-space:nowrap;fill:#000000;" text-anchor="start" transform="translate(0,0)" y="248" opacity="1"><tspan>Haushaltsform</tspan></text><text x="10" style="color:#000000;cursor:default;font-size:11px;white-space:nowrap;fill:#000000;" text-anchor="start" transform="translate(0,0)" y="263" opacity="1"><tspan>&amp;nbsp; &amp;nbsp; &amp;nbsp; Single-HH</tspan></text><text x="10" style="color:#000000;cursor:default;font-size:11px;white-space:nowrap;fill:#000000;" text-anchor="start" transform="translate(0,0)" y="278" opacity="1"><tspan>&amp;nbsp; &amp;nbsp; &amp;nbsp; Übrige HH o. K.</tspan></text><text x="10" style="color:#000000;cursor:default;font-size:11px;white-space:nowrap;fill:#000000;" text-anchor="start" transform="translate(0,0)" y="293" opacity="1"><tspan>HH m. mind. 1 K</tspan></text><text x="10" style="color:#000000;cursor:default;font-size:11px;white-space:nowrap;fill:#000000;" text-anchor="start" transform="translate(0,0)" y="308" opacity="1"><tspan>Alter</tspan></text><text x="10" style="color:#000000;cursor:default;font-size:11px;white-space:nowrap;fill:#000000;" text-anchor="start" transform="translate(0,0)" y="323" opacity="1"><tspan>18-29 J.</tspan></text><text x="10" style="color:#000000;cursor:default;font-size:11px;white-space:nowrap;fill:#000000;" text-anchor="start" transform="translate(0,0)" y="338" opacity="1"><tspan>30-39 J.</tspan></text><text x="10" style="color:#000000;cursor:default;font-size:11px;white-space:nowrap;fill:#000000;" text-anchor="start" transform="translate(0,0)" y="353" opacity="1"><tspan>40-49 J.</tspan></text><text x="10" style="color:#000000;cursor:default;font-size:11px;white-space:nowrap;fill:#000000;" text-anchor="start" transform="translate(0,0)" y="368" opacity="1"><tspan>50-59 J.</tspan></text><text x="10" style="color:#000000;cursor:default;font-size:11px;white-space:nowrap;fill:#000000;" text-anchor="start" transform="translate(0,0)" y="383" opacity="1"><tspan>60-69 J.</tspan></text><text x="10" style="color:#000000;cursor:default;font-size:11px;white-space:nowrap;fill:#000000;" text-anchor="start" transform="translate(0,0)" y="398" opacity="1"><tspan>&gt;69 J.</tspan></text><text x="10" style="color:#000000;cursor:default;font-size:11px;white-space:nowrap;fill:#000000;" text-anchor="start" transform="translate(0,0)" y="413" opacity="1"><tspan>Staatsangehörigkeit</tspan></text><text x="10" style="color:#000000;cursor:default;font-size:11px;white-space:nowrap;fill:#000000;" text-anchor="start" transform="translate(0,0)" y="428" opacity="1"><tspan>&amp;nbsp; &amp;nbsp; &amp;nbsp; Schweiz</tspan></text><text x="10" style="color:#000000;cursor:default;font-size:11px;white-space:nowrap;fill:#000000;" text-anchor="start" transform="translate(0,0)" y="443" opacity="1"><tspan>&amp;nbsp; &amp;nbsp; &amp;nbsp; Ausland</tspan></text><text x="10" style="color:#000000;cursor:default;font-size:11px;white-space:nowrap;fill:#000000;" text-anchor="start" transform="translate(0,0)" y="458" opacity="1"><tspan>Befragungsjahr</tspan></text><text x="10" style="color:#000000;cursor:default;font-size:11px;white-space:nowrap;fill:#000000;" text-anchor="start" transform="translate(0,0)" y="473" opacity="1"><tspan>&amp;nbsp; &amp;nbsp; &amp;nbsp; 2003</tspan></text><text x="10" style="color:#000000;cursor:default;font-size:11px;white-space:nowrap;fill:#000000;" text-anchor="start" transform="translate(0,0)" y="488" opacity="1"><tspan>&amp;nbsp; &amp;nbsp; &amp;nbsp; 2005</tspan></text><text x="10" style="color:#000000;cursor:default;font-size:11px;white-space:nowrap;fill:#000000;" text-anchor="start" transform="translate(0,0)" y="503" opacity="1"><tspan>&amp;nbsp; &amp;nbsp; &amp;nbsp; 2007</tspan></text><text x="10" style="color:#000000;cursor:default;font-size:11px;white-space:nowrap;fill:#000000;" text-anchor="start" transform="translate(0,0)" y="518" opacity="1"><tspan>&amp;nbsp; &amp;nbsp; &amp;nbsp; 2011</tspan></text><text x="10" style="color:#000000;cursor:default;font-size:11px;white-space:nowrap;fill:#000000;" text-anchor="start" transform="translate(0,0)" y="533" opacity="1"><tspan>&amp;nbsp; &amp;nbsp; &amp;nbsp; 2015</tspan></text><text x="10" style="color:#000000;cursor:default;font-size:11px;white-space:nowrap;fill:#000000;" text-anchor="start" transform="translate(0,0)" y="548" opacity="1"><tspan>&amp;nbsp; &amp;nbsp; &amp;nbsp; 2019</tspan></text></g><g class="highcharts-axis-labels highcharts-yaxis-labels " data-z-index="7"><text x="130" style="color:#000000;cursor:default;font-size:11px;fill:#000000;" text-anchor="middle" transform="translate(0,0)" y="570" opacity="1">0%</text><text x="173.8" style="color:#000000;cursor:default;font-size:11px;fill:#000000;" text-anchor="middle" transform="translate(0,0)" y="570" opacity="1">20%</text><text x="217.6" style="color:#000000;cursor:default;font-size:11px;fill:#000000;" text-anchor="middle" transform="translate(0,0)" y="570" opacity="1">40%</text><text x="261.4" style="color:#000000;cursor:default;font-size:11px;fill:#000000;" text-anchor="middle" transform="translate(0,0)" y="570" opacity="1">60%</text><text x="305.2" style="color:#000000;cursor:default;font-size:11px;fill:#000000;" text-anchor="middle" transform="translate(0,0)" y="570" opacity="1">80%</text><text x="349" style="color:#000000;cursor:default;font-size:11px;fill:#000000;" text-anchor="middle" transform="translate(0,0)" y="570" opacity="1">100%</text></g><text x="10" class="highcharts-credits" text-anchor="start" data-z-index="8" style="cursor:default;color:#000000;font-size:10px;fill:#000000;" y="588"><tspan>Quelle: Statistisches Amt Basel-Stadt, kantonale Bevölkerungsbefragung.</tspan><tspan x="10" dy="13">Zuletzt geändert: 2019-11-25</tspan></text></svg>