<?xml version="1.0" standalone="no"?><!DOCTYPE svg PUBLIC "-//W3C//DTD SVG 1.1//EN" "http://www.w3.org/Graphics/SVG/1.1/DTD/svg11.dtd"><svg xmlns:xlink="http://www.w3.org/1999/xlink" version="1.1" class="highcharts-root" style="font-family:Arial;font-size:12px;" xmlns="http://www.w3.org/2000/svg" viewBox="0 0 485 415"><desc>Created with Highstock 6.1.1</desc><defs><clipPath id="highcharts-d1sr4vd-6"><rect x="0" y="0" width="515" height="335" fill="none"></rect></clipPath><clipPath id="highcharts-d1sr4vd-7"><rect x="0" y="0" width="515" height="335" fill="none"></rect></clipPath></defs><rect fill="#fbfbfb" class="highcharts-background" x="0" y="0" width="485" height="713" rx="0" ry="0"></rect><rect fill="none" class="highcharts-plot-background" x="125" y="136" width="335" height="515"></rect><g class="highcharts-pane-group" data-z-index="0"></g><g class="highcharts-grid highcharts-xaxis-grid " data-z-index="1"><path fill="none" data-z-index="1" class="highcharts-grid-line" d="M 125 152.5 L 460 152.5" opacity="1"></path><path fill="none" data-z-index="1" class="highcharts-grid-line" d="M 125 167.5 L 460 167.5" opacity="1"></path><path fill="none" data-z-index="1" class="highcharts-grid-line" d="M 125 183.5 L 460 183.5" opacity="1"></path><path fill="none" data-z-index="1" class="highcharts-grid-line" d="M 125 198.5 L 460 198.5" opacity="1"></path><path fill="none" data-z-index="1" class="highcharts-grid-line" d="M 125 214.5 L 460 214.5" opacity="1"></path><path fill="none" data-z-index="1" class="highcharts-grid-line" d="M 125 230.5 L 460 230.5" opacity="1"></path><path fill="none" data-z-index="1" class="highcharts-grid-line" d="M 125 245.5 L 460 245.5" opacity="1"></path><path fill="none" data-z-index="1" class="highcharts-grid-line" d="M 125 261.5 L 460 261.5" opacity="1"></path><path fill="none" data-z-index="1" class="highcharts-grid-line" d="M 125 276.5 L 460 276.5" opacity="1"></path><path fill="none" data-z-index="1" class="highcharts-grid-line" d="M 125 292.5 L 460 292.5" opacity="1"></path><path fill="none" data-z-index="1" class="highcharts-grid-line" d="M 125 308.5 L 460 308.5" opacity="1"></path><path fill="none" data-z-index="1" class="highcharts-grid-line" d="M 125 323.5 L 460 323.5" opacity="1"></path><path fill="none" data-z-index="1" class="highcharts-grid-line" d="M 125 339.5 L 460 339.5" opacity="1"></path><path fill="none" data-z-index="1" class="highcharts-grid-line" d="M 125 354.5 L 460 354.5" opacity="1"></path><path fill="none" data-z-index="1" class="highcharts-grid-line" d="M 125 370.5 L 460 370.5" opacity="1"></path><path fill="none" data-z-index="1" class="highcharts-grid-line" d="M 125 386.5 L 460 386.5" opacity="1"></path><path fill="none" data-z-index="1" class="highcharts-grid-line" d="M 125 401.5 L 460 401.5" opacity="1"></path><path fill="none" data-z-index="1" class="highcharts-grid-line" d="M 125 417.5 L 460 417.5" opacity="1"></path><path fill="none" data-z-index="1" class="highcharts-grid-line" d="M 125 433.5 L 460 433.5" opacity="1"></path><path fill="none" data-z-index="1" class="highcharts-grid-line" d="M 125 448.5 L 460 448.5" opacity="1"></path><path fill="none" data-z-index="1" class="highcharts-grid-line" d="M 125 464.5 L 460 464.5" opacity="1"></path><path fill="none" data-z-index="1" class="highcharts-grid-line" d="M 125 479.5 L 460 479.5" opacity="1"></path><path fill="none" data-z-index="1" class="highcharts-grid-line" d="M 125 495.5 L 460 495.5" opacity="1"></path><path fill="none" data-z-index="1" class="highcharts-grid-line" d="M 125 511.5 L 460 511.5" opacity="1"></path><path fill="none" data-z-index="1" class="highcharts-grid-line" d="M 125 526.5 L 460 526.5" opacity="1"></path><path fill="none" data-z-index="1" class="highcharts-grid-line" d="M 125 542.5 L 460 542.5" opacity="1"></path><path fill="none" data-z-index="1" class="highcharts-grid-line" d="M 125 557.5 L 460 557.5" opacity="1"></path><path fill="none" data-z-index="1" class="highcharts-grid-line" d="M 125 573.5 L 460 573.5" opacity="1"></path><path fill="none" data-z-index="1" class="highcharts-grid-line" d="M 125 589.5 L 460 589.5" opacity="1"></path><path fill="none" data-z-index="1" class="highcharts-grid-line" d="M 125 604.5 L 460 604.5" opacity="1"></path><path fill="none" data-z-index="1" class="highcharts-grid-line" d="M 125 620.5 L 460 620.5" opacity="1"></path><path fill="none" data-z-index="1" class="highcharts-grid-line" d="M 125 635.5 L 460 635.5" opacity="1"></path><path fill="none" data-z-index="1" class="highcharts-grid-line" d="M 125 651.5 L 460 651.5" opacity="1"></path><path fill="none" data-z-index="1" class="highcharts-grid-line" d="M 125 136.5 L 460 136.5" opacity="1"></path></g><g class="highcharts-grid highcharts-yaxis-grid " data-z-index="1"><path fill="none" stroke="#B9CFD7" stroke-width="0.5" data-z-index="1" class="highcharts-grid-line" d="M 124.75 136 L 124.75 651" opacity="1"></path><path fill="none" stroke="#B9CFD7" stroke-width="0.5" data-z-index="1" class="highcharts-grid-line" d="M 191.75 136 L 191.75 651" opacity="1"></path><path fill="none" stroke="#B9CFD7" stroke-width="0.5" data-z-index="1" class="highcharts-grid-line" d="M 258.75 136 L 258.75 651" opacity="1"></path><path fill="none" stroke="#B9CFD7" stroke-width="0.5" data-z-index="1" class="highcharts-grid-line" d="M 325.75 136 L 325.75 651" opacity="1"></path><path fill="none" stroke="#B9CFD7" stroke-width="0.5" data-z-index="1" class="highcharts-grid-line" d="M 392.75 136 L 392.75 651" opacity="1"></path><path fill="none" stroke="#B9CFD7" stroke-width="0.5" data-z-index="1" class="highcharts-grid-line" d="M 460.25 136 L 460.25 651" opacity="1"></path></g><rect fill="none" class="highcharts-plot-border" data-z-index="1" x="125" y="136" width="335" height="515"></rect><g class="highcharts-axis highcharts-xaxis " data-z-index="2"><path fill="none" class="highcharts-axis-line" stroke="#B9CFD7" stroke-width="0.5" data-z-index="7" d="M 124.75 136 L 124.75 651"></path></g><g class="highcharts-axis highcharts-yaxis " data-z-index="2"><path fill="none" class="highcharts-axis-line" data-z-index="7" d="M 125 651 L 460 651"></path></g><g class="highcharts-series-group" data-z-index="3"><g data-z-index="0.1" class="highcharts-series highcharts-series-0 highcharts-column-series " transform="translate(460,651) rotate(90) scale(-1,1) scale(1 1)" clip-path="url(#highcharts-d1sr4vd-7)"><rect x="488" y="300" width="8" height="36" fill="#007A2F" class="highcharts-point"></rect><rect x="472" y="263" width="8" height="73" fill="#007A2F" class="highcharts-point"></rect><rect x="441" y="270" width="8" height="66" fill="#007A2F" class="highcharts-point"></rect><rect x="425" y="269" width="8" height="67" fill="#007A2F" class="highcharts-point"></rect><rect x="410" y="266" width="8" height="70" fill="#007A2F" class="highcharts-point"></rect><rect x="379" y="271" width="8" height="65" fill="#007A2F" class="highcharts-point"></rect><rect x="363" y="263" width="8" height="73" fill="#007A2F" class="highcharts-point"></rect><rect x="347" y="256" width="8" height="80" fill="#007A2F" class="highcharts-point"></rect><rect x="332" y="279" width="8" height="57" fill="#007A2F" class="highcharts-point"></rect><rect x="301" y="314" width="8" height="22" fill="#007A2F" class="highcharts-point"></rect><rect x="285" y="298" width="8" height="38" fill="#007A2F" class="highcharts-point"></rect><rect x="269" y="248" width="8" height="88" fill="#007A2F" class="highcharts-point"></rect><rect x="238" y="263" width="8" height="73" fill="#007A2F" class="highcharts-point"></rect><rect x="223" y="276" width="8" height="60" fill="#007A2F" class="highcharts-point"></rect><rect x="207" y="275" width="8" height="61" fill="#007A2F" class="highcharts-point"></rect><rect x="176" y="327" width="8" height="9" fill="#007A2F" class="highcharts-point"></rect><rect x="160" y="307" width="8" height="29" fill="#007A2F" class="highcharts-point"></rect><rect x="145" y="232" width="8" height="104" fill="#007A2F" class="highcharts-point"></rect><rect x="113" y="274" width="8" height="62" fill="#007A2F" class="highcharts-point"></rect><rect x="98" y="266" width="8" height="70" fill="#007A2F" class="highcharts-point"></rect><rect x="82" y="277" width="8" height="59" fill="#007A2F" class="highcharts-point"></rect><rect x="66" y="255" width="8" height="81" fill="#007A2F" class="highcharts-point"></rect><rect x="35" y="271" width="8" height="65" fill="#007A2F" class="highcharts-point"></rect><rect x="20" y="272" width="8" height="64" fill="#007A2F" class="highcharts-point"></rect><rect x="4" y="269" width="8" height="67" fill="#007A2F" class="highcharts-point"></rect></g><g data-z-index="0.1" class="highcharts-markers highcharts-series-0 highcharts-column-series " transform="translate(460,651) rotate(90) scale(-1,1) scale(1 1)" clip-path="none"></g><g data-z-index="0.1" class="highcharts-series highcharts-series-1 highcharts-column-series " transform="translate(460,651) rotate(90) scale(-1,1) scale(1 1)" clip-path="url(#highcharts-d1sr4vd-7)"><rect x="488" y="236" width="8" height="64" fill="#73BA7C" class="highcharts-point"></rect><rect x="472" y="171" width="8" height="92" fill="#73BA7C" class="highcharts-point"></rect><rect x="441" y="180" width="8" height="90" fill="#73BA7C" class="highcharts-point"></rect><rect x="425" y="180" width="8" height="89" fill="#73BA7C" class="highcharts-point"></rect><rect x="410" y="190" width="8" height="76" fill="#73BA7C" class="highcharts-point"></rect><rect x="379" y="191" width="8" height="80" fill="#73BA7C" class="highcharts-point"></rect><rect x="363" y="167" width="8" height="96" fill="#73BA7C" class="highcharts-point"></rect><rect x="347" y="180" width="8" height="76" fill="#73BA7C" class="highcharts-point"></rect><rect x="332" y="182" width="8" height="97" fill="#73BA7C" class="highcharts-point"></rect><rect x="301" y="253" width="8" height="61" fill="#73BA7C" class="highcharts-point"></rect><rect x="285" y="212" width="8" height="86" fill="#73BA7C" class="highcharts-point"></rect><rect x="269" y="157" width="8" height="91" fill="#73BA7C" class="highcharts-point"></rect><rect x="238" y="177" width="8" height="86" fill="#73BA7C" class="highcharts-point"></rect><rect x="223" y="187" width="8" height="89" fill="#73BA7C" class="highcharts-point"></rect><rect x="207" y="190" width="8" height="85" fill="#73BA7C" class="highcharts-point"></rect><rect x="176" y="273" width="8" height="54" fill="#73BA7C" class="highcharts-point"></rect><rect x="160" y="226" width="8" height="81" fill="#73BA7C" class="highcharts-point"></rect><rect x="145" y="133" width="8" height="99" fill="#73BA7C" class="highcharts-point"></rect><rect x="113" y="182" width="8" height="92" fill="#73BA7C" class="highcharts-point"></rect><rect x="98" y="180" width="8" height="86" fill="#73BA7C" class="highcharts-point"></rect><rect x="82" y="198" width="8" height="79" fill="#73BA7C" class="highcharts-point"></rect><rect x="66" y="164" width="8" height="91" fill="#73BA7C" class="highcharts-point"></rect><rect x="35" y="189" width="8" height="82" fill="#73BA7C" class="highcharts-point"></rect><rect x="20" y="175" width="8" height="97" fill="#73BA7C" class="highcharts-point"></rect><rect x="4" y="182" width="8" height="87" fill="#73BA7C" class="highcharts-point"></rect></g><g data-z-index="0.1" class="highcharts-markers highcharts-series-1 highcharts-column-series " transform="translate(460,651) rotate(90) scale(-1,1) scale(1 1)" clip-path="none"></g><g data-z-index="0.1" class="highcharts-series highcharts-series-2 highcharts-column-series " transform="translate(460,651) rotate(90) scale(-1,1) scale(1 1)" clip-path="url(#highcharts-d1sr4vd-7)"><rect x="488" y="146" width="8" height="90" fill="#FFBB58" class="highcharts-point"></rect><rect x="472" y="87" width="8" height="84" fill="#FFBB58" class="highcharts-point"></rect><rect x="441" y="94" width="8" height="86" fill="#FFBB58" class="highcharts-point"></rect><rect x="425" y="97" width="8" height="83" fill="#FFBB58" class="highcharts-point"></rect><rect x="410" y="106" width="8" height="84" fill="#FFBB58" class="highcharts-point"></rect><rect x="379" y="102" width="8" height="89" fill="#FFBB58" class="highcharts-point"></rect><rect x="363" y="96" width="8" height="71" fill="#FFBB58" class="highcharts-point"></rect><rect x="347" y="91" width="8" height="89" fill="#FFBB58" class="highcharts-point"></rect><rect x="332" y="97" width="8" height="85" fill="#FFBB58" class="highcharts-point"></rect><rect x="301" y="164" width="8" height="89" fill="#FFBB58" class="highcharts-point"></rect><rect x="285" y="116" width="8" height="96" fill="#FFBB58" class="highcharts-point"></rect><rect x="269" y="79" width="8" height="78" fill="#FFBB58" class="highcharts-point"></rect><rect x="238" y="88" width="8" height="89" fill="#FFBB58" class="highcharts-point"></rect><rect x="223" y="102" width="8" height="85" fill="#FFBB58" class="highcharts-point"></rect><rect x="207" y="125" width="8" height="65" fill="#FFBB58" class="highcharts-point"></rect><rect x="176" y="167" width="8" height="106" fill="#FFBB58" class="highcharts-point"></rect><rect x="160" y="126" width="8" height="100" fill="#FFBB58" class="highcharts-point"></rect><rect x="145" y="60" width="8" height="73" fill="#FFBB58" class="highcharts-point"></rect><rect x="113" y="99" width="8" height="83" fill="#FFBB58" class="highcharts-point"></rect><rect x="98" y="101" width="8" height="79" fill="#FFBB58" class="highcharts-point"></rect><rect x="82" y="102" width="8" height="96" fill="#FFBB58" class="highcharts-point"></rect><rect x="66" y="79" width="8" height="85" fill="#FFBB58" class="highcharts-point"></rect><rect x="35" y="116" width="8" height="73" fill="#FFBB58" class="highcharts-point"></rect><rect x="20" y="111" width="8" height="64" fill="#FFBB58" class="highcharts-point"></rect><rect x="4" y="98" width="8" height="84" fill="#FFBB58" class="highcharts-point"></rect></g><g data-z-index="0.1" class="highcharts-markers highcharts-series-2 highcharts-column-series " transform="translate(460,651) rotate(90) scale(-1,1) scale(1 1)" clip-path="none"></g><g data-z-index="0.1" class="highcharts-series highcharts-series-3 highcharts-column-series " transform="translate(460,651) rotate(90) scale(-1,1) scale(1 1)" clip-path="url(#highcharts-d1sr4vd-7)"><rect x="488" y="37" width="8" height="109" fill="#FF8028" class="highcharts-point"></rect><rect x="472" y="27" width="8" height="60" fill="#FF8028" class="highcharts-point"></rect><rect x="441" y="27" width="8" height="67" fill="#FF8028" class="highcharts-point"></rect><rect x="425" y="29" width="8" height="68" fill="#FF8028" class="highcharts-point"></rect><rect x="410" y="34" width="8" height="72" fill="#FF8028" class="highcharts-point"></rect><rect x="379" y="25" width="8" height="77" fill="#FF8028" class="highcharts-point"></rect><rect x="363" y="30" width="8" height="66" fill="#FF8028" class="highcharts-point"></rect><rect x="347" y="33" width="8" height="58" fill="#FF8028" class="highcharts-point"></rect><rect x="332" y="29" width="8" height="68" fill="#FF8028" class="highcharts-point"></rect><rect x="301" y="94" width="8" height="70" fill="#FF8028" class="highcharts-point"></rect><rect x="285" y="34" width="8" height="82" fill="#FF8028" class="highcharts-point"></rect><rect x="269" y="19" width="8" height="60" fill="#FF8028" class="highcharts-point"></rect><rect x="238" y="18" width="8" height="70" fill="#FF8028" class="highcharts-point"></rect><rect x="223" y="34" width="8" height="68" fill="#FF8028" class="highcharts-point"></rect><rect x="207" y="62" width="8" height="63" fill="#FF8028" class="highcharts-point"></rect><rect x="176" y="58" width="8" height="109" fill="#FF8028" class="highcharts-point"></rect><rect x="160" y="29" width="8" height="97" fill="#FF8028" class="highcharts-point"></rect><rect x="145" y="13" width="8" height="47" fill="#FF8028" class="highcharts-point"></rect><rect x="113" y="22" width="8" height="77" fill="#FF8028" class="highcharts-point"></rect><rect x="98" y="32" width="8" height="69" fill="#FF8028" class="highcharts-point"></rect><rect x="82" y="38" width="8" height="64" fill="#FF8028" class="highcharts-point"></rect><rect x="66" y="20" width="8" height="59" fill="#FF8028" class="highcharts-point"></rect><rect x="35" y="41" width="8" height="75" fill="#FF8028" class="highcharts-point"></rect><rect x="20" y="38" width="8" height="73" fill="#FF8028" class="highcharts-point"></rect><rect x="4" y="29" width="8" height="69" fill="#FF8028" class="highcharts-point"></rect></g><g data-z-index="0.1" class="highcharts-markers highcharts-series-3 highcharts-column-series " transform="translate(460,651) rotate(90) scale(-1,1) scale(1 1)" clip-path="none"></g><g data-z-index="0.1" class="highcharts-series highcharts-series-4 highcharts-column-series " transform="translate(460,651) rotate(90) scale(-1,1) scale(1 1)" clip-path="url(#highcharts-d1sr4vd-7)"><rect x="488" y="24" width="8" height="13" fill="#C8C8C8" class="highcharts-point"></rect><rect x="472" y="17" width="8" height="10" fill="#C8C8C8" class="highcharts-point"></rect><rect x="441" y="18" width="8" height="9" fill="#C8C8C8" class="highcharts-point"></rect><rect x="425" y="19" width="8" height="10" fill="#C8C8C8" class="highcharts-point"></rect><rect x="410" y="15" width="8" height="19" fill="#C8C8C8" class="highcharts-point"></rect><rect x="379" y="15" width="8" height="10" fill="#C8C8C8" class="highcharts-point"></rect><rect x="363" y="17" width="8" height="13" fill="#C8C8C8" class="highcharts-point"></rect><rect x="347" y="20" width="8" height="13" fill="#C8C8C8" class="highcharts-point"></rect><rect x="332" y="17" width="8" height="12" fill="#C8C8C8" class="highcharts-point"></rect><rect x="301" y="71" width="8" height="23" fill="#C8C8C8" class="highcharts-point"></rect><rect x="285" y="21" width="8" height="13" fill="#C8C8C8" class="highcharts-point"></rect><rect x="269" y="9" width="8" height="10" fill="#C8C8C8" class="highcharts-point"></rect><rect x="238" y="9" width="8" height="9" fill="#C8C8C8" class="highcharts-point"></rect><rect x="223" y="22" width="8" height="12" fill="#C8C8C8" class="highcharts-point"></rect><rect x="207" y="41" width="8" height="21" fill="#C8C8C8" class="highcharts-point"></rect><rect x="176" y="46" width="8" height="12" fill="#C8C8C8" class="highcharts-point"></rect><rect x="160" y="19" width="8" height="10" fill="#C8C8C8" class="highcharts-point"></rect><rect x="145" y="6" width="8" height="7" fill="#C8C8C8" class="highcharts-point"></rect><rect x="113" y="15" width="8" height="7" fill="#C8C8C8" class="highcharts-point"></rect><rect x="98" y="17" width="8" height="15" fill="#C8C8C8" class="highcharts-point"></rect><rect x="82" y="26" width="8" height="12" fill="#C8C8C8" class="highcharts-point"></rect><rect x="66" y="12" width="8" height="8" fill="#C8C8C8" class="highcharts-point"></rect><rect x="35" y="29" width="8" height="12" fill="#C8C8C8" class="highcharts-point"></rect><rect x="20" y="24" width="8" height="14" fill="#C8C8C8" class="highcharts-point"></rect><rect x="4" y="18" width="8" height="11" fill="#C8C8C8" class="highcharts-point"></rect></g><g data-z-index="0.1" class="highcharts-markers highcharts-series-4 highcharts-column-series " transform="translate(460,651) rotate(90) scale(-1,1) scale(1 1)" clip-path="none"></g><g data-z-index="0.1" class="highcharts-series highcharts-series-5 highcharts-column-series " transform="translate(460,651) rotate(90) scale(-1,1) scale(1 1)" clip-path="url(#highcharts-d1sr4vd-7)"><rect x="488" y="0" width="8" height="24" fill="#6F6F6F" class="highcharts-point"></rect><rect x="472" y="0" width="8" height="17" fill="#6F6F6F" class="highcharts-point"></rect><rect x="441" y="0" width="8" height="18" fill="#6F6F6F" class="highcharts-point"></rect><rect x="425" y="0" width="8" height="19" fill="#6F6F6F" class="highcharts-point"></rect><rect x="410" y="0" width="8" height="15" fill="#6F6F6F" class="highcharts-point"></rect><rect x="379" y="0" width="8" height="15" fill="#6F6F6F" class="highcharts-point"></rect><rect x="363" y="0" width="8" height="17" fill="#6F6F6F" class="highcharts-point"></rect><rect x="347" y="0" width="8" height="20" fill="#6F6F6F" class="highcharts-point"></rect><rect x="332" y="0" width="8" height="17" fill="#6F6F6F" class="highcharts-point"></rect><rect x="301" y="0" width="8" height="71" fill="#6F6F6F" class="highcharts-point"></rect><rect x="285" y="0" width="8" height="21" fill="#6F6F6F" class="highcharts-point"></rect><rect x="269" y="0" width="8" height="9" fill="#6F6F6F" class="highcharts-point"></rect><rect x="238" y="0" width="8" height="9" fill="#6F6F6F" class="highcharts-point"></rect><rect x="223" y="0" width="8" height="22" fill="#6F6F6F" class="highcharts-point"></rect><rect x="207" y="0" width="8" height="41" fill="#6F6F6F" class="highcharts-point"></rect><rect x="176" y="0" width="8" height="46" fill="#6F6F6F" class="highcharts-point"></rect><rect x="160" y="0" width="8" height="19" fill="#6F6F6F" class="highcharts-point"></rect><rect x="145" y="0" width="8" height="6" fill="#6F6F6F" class="highcharts-point"></rect><rect x="113" y="0" width="8" height="15" fill="#6F6F6F" class="highcharts-point"></rect><rect x="98" y="0" width="8" height="17" fill="#6F6F6F" class="highcharts-point"></rect><rect x="82" y="0" width="8" height="26" fill="#6F6F6F" class="highcharts-point"></rect><rect x="66" y="0" width="8" height="12" fill="#6F6F6F" class="highcharts-point"></rect><rect x="35" y="0" width="8" height="29" fill="#6F6F6F" class="highcharts-point"></rect><rect x="20" y="0" width="8" height="24" fill="#6F6F6F" class="highcharts-point"></rect><rect x="4" y="0" width="8" height="18" fill="#6F6F6F" class="highcharts-point"></rect></g><g data-z-index="0.1" class="highcharts-markers highcharts-series-5 highcharts-column-series " transform="translate(460,651) rotate(90) scale(-1,1) scale(1 1)" clip-path="none"></g></g><text x="10" text-anchor="start" class="highcharts-title" data-z-index="4" style="color:#000000;font-size:14px;font-weight:bold;fill:#000000;" y="21"><tspan>Finanzielle Lage</tspan></text><text x="10" text-anchor="start" class="highcharts-subtitle" data-z-index="4" style="color:#000000;font-size:12px;fill:#000000;" y="40"><tspan>«Unsere finanzielle Lage hat sich in den vergangenen fünf Jahren</tspan><tspan dy="15" x="10">verbessert.»</tspan></text><g class="highcharts-legend" data-z-index="7" transform="translate(120,71)"><rect fill="none" class="highcharts-legend-box" rx="0" ry="0" x="0" y="0" width="254" height="65" visibility="visible"></rect><g data-z-index="1"><g><g class="highcharts-legend-item highcharts-column-series highcharts-color-undefined highcharts-series-0" data-z-index="1" transform="translate(5,0)"><text x="21" style="color:#333333;font-size:12px;font-weight:normal;cursor:pointer;fill:#333333;" text-anchor="start" data-z-index="2" y="15"><tspan>Stimmt genau</tspan></text><rect x="2" y="4" width="12" height="12" fill="#007A2F" class="highcharts-point" data-z-index="3"></rect></g><g class="highcharts-legend-item highcharts-column-series highcharts-color-undefined highcharts-series-1" data-z-index="1" transform="translate(132,0)"><text x="21" y="15" style="color:#333333;font-size:12px;font-weight:normal;cursor:pointer;fill:#333333;" text-anchor="start" data-z-index="2"><tspan>Stimmt eher</tspan></text><rect x="2" y="4" width="12" height="12" fill="#73BA7C" class="highcharts-point" data-z-index="3"></rect></g><g class="highcharts-legend-item highcharts-column-series highcharts-color-undefined highcharts-series-2" data-z-index="1" transform="translate(5,20)"><text x="21" y="15" style="color:#333333;font-size:12px;font-weight:normal;cursor:pointer;fill:#333333;" text-anchor="start" data-z-index="2"><tspan>Stimmt eher nicht</tspan></text><rect x="2" y="4" width="12" height="12" fill="#FFBB58" class="highcharts-point" data-z-index="3"></rect></g><g class="highcharts-legend-item highcharts-column-series highcharts-color-undefined highcharts-series-3" data-z-index="1" transform="translate(132,20)"><text x="21" y="15" style="color:#333333;font-size:12px;font-weight:normal;cursor:pointer;fill:#333333;" text-anchor="start" data-z-index="2"><tspan>Stimmt gar nicht</tspan></text><rect x="2" y="4" width="12" height="12" fill="#FF8028" class="highcharts-point" data-z-index="3"></rect></g><g class="highcharts-legend-item highcharts-column-series highcharts-color-undefined highcharts-series-4" data-z-index="1" transform="translate(5,40)"><text x="21" y="15" style="color:#333333;font-size:12px;font-weight:normal;cursor:pointer;fill:#333333;" text-anchor="start" data-z-index="2"><tspan>Weiss nicht</tspan></text><rect x="2" y="4" width="12" height="12" fill="#C8C8C8" class="highcharts-point" data-z-index="3"></rect></g><g class="highcharts-legend-item highcharts-column-series highcharts-color-undefined highcharts-series-5" data-z-index="1" transform="translate(132,40)"><text x="21" y="15" style="color:#333333;font-size:12px;font-weight:normal;cursor:pointer;fill:#333333;" text-anchor="start" data-z-index="2"><tspan>Keine Angabe</tspan></text><rect x="2" y="4" width="12" height="12" fill="#6F6F6F" class="highcharts-point" data-z-index="3"></rect></g></g></g></g><g class="highcharts-axis-labels highcharts-xaxis-labels " data-z-index="7"><text x="10" style="color:#000000;cursor:default;font-size:11px;white-space:nowrap;fill:#000000;" text-anchor="start" transform="translate(0,0)" y="148" opacity="1"><tspan>&amp;nbsp;&amp;nbsp;&amp;nbsp;Familienform</tspan></text><text x="10" style="color:#000000;cursor:default;font-size:11px;white-space:nowrap;fill:#000000;" text-anchor="start" transform="translate(0,0)" y="163" opacity="1"><tspan>&amp;nbsp;&amp;nbsp;&amp;nbsp;Einelternfamilie</tspan></text><text x="10" style="color:#000000;cursor:default;font-size:11px;white-space:nowrap;fill:#000000;" text-anchor="start" transform="translate(0,0)" y="179" opacity="1"><tspan>&amp;nbsp;&amp;nbsp;&amp;nbsp;Zweielternfamilie</tspan></text><text x="10" style="color:#000000;cursor:default;font-size:11px;white-space:nowrap;fill:#000000;" text-anchor="start" transform="translate(0,0)" y="195" opacity="1"><tspan>&amp;nbsp;&amp;nbsp;&amp;nbsp;Anzahl Kinder</tspan></text><text x="10" style="color:#000000;cursor:default;font-size:11px;white-space:nowrap;fill:#000000;" text-anchor="start" transform="translate(0,0)" y="210" opacity="1"><tspan>&amp;nbsp;&amp;nbsp;&amp;nbsp;1 Kind</tspan></text><text x="10" style="color:#000000;cursor:default;font-size:11px;white-space:nowrap;fill:#000000;" text-anchor="start" transform="translate(0,0)" y="226" opacity="1"><tspan>&amp;nbsp;&amp;nbsp;&amp;nbsp;2 Kinder</tspan></text><text x="10" style="color:#000000;cursor:default;font-size:11px;white-space:nowrap;fill:#000000;" text-anchor="start" transform="translate(0,0)" y="241" opacity="1"><tspan>&amp;nbsp;&amp;nbsp;&amp;nbsp;3 Kinder u.m.</tspan></text><text x="10" style="color:#000000;cursor:default;font-size:11px;white-space:nowrap;fill:#000000;" text-anchor="start" transform="translate(0,0)" y="257" opacity="1"><tspan>&amp;nbsp;&amp;nbsp;&amp;nbsp;Alter jüngstes Kind</tspan></text><text x="10" style="color:#000000;cursor:default;font-size:11px;white-space:nowrap;fill:#000000;" text-anchor="start" transform="translate(0,0)" y="273" opacity="1"><tspan>&amp;nbsp;&amp;nbsp;&amp;nbsp;0-4 Jahre</tspan></text><text x="10" style="color:#000000;cursor:default;font-size:11px;white-space:nowrap;fill:#000000;" text-anchor="start" transform="translate(0,0)" y="288" opacity="1"><tspan>&amp;nbsp;&amp;nbsp;&amp;nbsp;5-8 Jahre</tspan></text><text x="10" style="color:#000000;cursor:default;font-size:11px;white-space:nowrap;fill:#000000;" text-anchor="start" transform="translate(0,0)" y="304" opacity="1"><tspan>&amp;nbsp;&amp;nbsp;&amp;nbsp;9-12 Jahre</tspan></text><text x="10" style="color:#000000;cursor:default;font-size:11px;white-space:nowrap;fill:#000000;" text-anchor="start" transform="translate(0,0)" y="319" opacity="1"><tspan>&amp;nbsp;&amp;nbsp;&amp;nbsp;13-17 Jahre</tspan></text><text x="10" style="color:#000000;cursor:default;font-size:11px;white-space:nowrap;fill:#000000;" text-anchor="start" transform="translate(0,0)" y="335" opacity="1"><tspan>&amp;nbsp;&amp;nbsp;&amp;nbsp;Bildungsniveau Eltern</tspan></text><text x="10" style="color:#000000;cursor:default;font-size:11px;white-space:nowrap;fill:#000000;" text-anchor="start" transform="translate(0,0)" y="351" opacity="1"><tspan>&amp;nbsp;&amp;nbsp;&amp;nbsp;Obligat. Schule</tspan></text><text x="10" style="color:#000000;cursor:default;font-size:11px;white-space:nowrap;fill:#000000;" text-anchor="start" transform="translate(0,0)" y="366" opacity="1"><tspan>&amp;nbsp;&amp;nbsp;&amp;nbsp;Sekundarstufe II</tspan></text><text x="10" style="color:#000000;cursor:default;font-size:11px;white-space:nowrap;fill:#000000;" text-anchor="start" transform="translate(0,0)" y="382" opacity="1"><tspan>&amp;nbsp;&amp;nbsp;&amp;nbsp;Tertiärstufe</tspan></text><text x="10" style="color:#000000;cursor:default;font-size:11px;white-space:nowrap;fill:#000000;" text-anchor="start" transform="translate(0,0)" y="397" opacity="1"><tspan>&amp;nbsp;&amp;nbsp;&amp;nbsp;Haushaltssprache</tspan></text><text x="10" style="color:#000000;cursor:default;font-size:11px;white-space:nowrap;fill:#000000;" text-anchor="start" transform="translate(0,0)" y="413" opacity="1"><tspan>&amp;nbsp;&amp;nbsp;&amp;nbsp;ch/dt</tspan></text><text x="10" style="color:#000000;cursor:default;font-size:11px;white-space:nowrap;fill:#000000;" text-anchor="start" transform="translate(0,0)" y="429" opacity="1"><tspan>&amp;nbsp;&amp;nbsp;&amp;nbsp;ch/dt und andere</tspan></text><text x="10" style="color:#000000;cursor:default;font-size:11px;white-space:nowrap;fill:#000000;" text-anchor="start" transform="translate(0,0)" y="444" opacity="1"><tspan>&amp;nbsp;&amp;nbsp;&amp;nbsp;nur andere</tspan></text><text x="10" style="color:#000000;cursor:default;font-size:11px;white-space:nowrap;fill:#000000;" text-anchor="start" transform="translate(0,0)" y="460" opacity="1"><tspan>&amp;nbsp;&amp;nbsp;&amp;nbsp;Haushaltseinkommen</tspan></text><text x="10" style="color:#000000;cursor:default;font-size:11px;white-space:nowrap;fill:#000000;" text-anchor="start" transform="translate(0,0)" y="476" opacity="1"><tspan>&amp;nbsp;&amp;nbsp;&amp;nbsp;&lt;3000 Fr.</tspan></text><text x="10" style="color:#000000;cursor:default;font-size:11px;white-space:nowrap;fill:#000000;" text-anchor="start" transform="translate(0,0)" y="491" opacity="1"><tspan>&amp;nbsp;&amp;nbsp;&amp;nbsp;3000-7499 Fr.</tspan></text><text x="10" style="color:#000000;cursor:default;font-size:11px;white-space:nowrap;fill:#000000;" text-anchor="start" transform="translate(0,0)" y="507" opacity="1"><tspan>&amp;nbsp;&amp;nbsp;&amp;nbsp;&gt;7499 Fr.</tspan></text><text x="10" style="color:#000000;cursor:default;font-size:11px;white-space:nowrap;fill:#000000;" text-anchor="start" transform="translate(0,0)" y="522" opacity="1"><tspan>&amp;nbsp;&amp;nbsp;&amp;nbsp;Wahlkreis</tspan></text><text x="10" style="color:#000000;cursor:default;font-size:11px;white-space:nowrap;fill:#000000;" text-anchor="start" transform="translate(0,0)" y="538" opacity="1"><tspan>&amp;nbsp;&amp;nbsp;&amp;nbsp;Grossbasel Ost</tspan></text><text x="10" style="color:#000000;cursor:default;font-size:11px;white-space:nowrap;fill:#000000;" text-anchor="start" transform="translate(0,0)" y="554" opacity="1"><tspan>&amp;nbsp;&amp;nbsp;&amp;nbsp;Grossbasel West</tspan></text><text x="10" style="color:#000000;cursor:default;font-size:11px;white-space:nowrap;fill:#000000;" text-anchor="start" transform="translate(0,0)" y="569" opacity="1"><tspan>&amp;nbsp;&amp;nbsp;&amp;nbsp;Kleinbasel</tspan></text><text x="10" style="color:#000000;cursor:default;font-size:11px;white-space:nowrap;fill:#000000;" text-anchor="start" transform="translate(0,0)" y="585" opacity="1"><tspan>&amp;nbsp;&amp;nbsp;&amp;nbsp;Riehen, Bettingen</tspan></text><text x="10" style="color:#000000;cursor:default;font-size:11px;white-space:nowrap;fill:#000000;" text-anchor="start" transform="translate(0,0)" y="600" opacity="1"><tspan>&amp;nbsp;&amp;nbsp;&amp;nbsp;Befragungsjahr</tspan></text><text x="10" style="color:#000000;cursor:default;font-size:11px;white-space:nowrap;fill:#000000;" text-anchor="start" transform="translate(0,0)" y="616" opacity="1"><tspan>&amp;nbsp;&amp;nbsp;&amp;nbsp;2009</tspan></text><text x="10" style="color:#000000;cursor:default;font-size:11px;white-space:nowrap;fill:#000000;" text-anchor="start" transform="translate(0,0)" y="632" opacity="1"><tspan>&amp;nbsp;&amp;nbsp;&amp;nbsp;2013</tspan></text><text x="10" style="color:#000000;cursor:default;font-size:11px;white-space:nowrap;fill:#000000;" text-anchor="start" transform="translate(0,0)" y="647" opacity="1"><tspan>&amp;nbsp;&amp;nbsp;&amp;nbsp;2017</tspan></text></g><g class="highcharts-axis-labels highcharts-yaxis-labels " data-z-index="7"><text x="125" style="color:#000000;cursor:default;font-size:11px;fill:#000000;" text-anchor="middle" transform="translate(0,0)" y="670" opacity="1">0%</text><text x="192" style="color:#000000;cursor:default;font-size:11px;fill:#000000;" text-anchor="middle" transform="translate(0,0)" y="670" opacity="1">20%</text><text x="259" style="color:#000000;cursor:default;font-size:11px;fill:#000000;" text-anchor="middle" transform="translate(0,0)" y="670" opacity="1">40%</text><text x="326" style="color:#000000;cursor:default;font-size:11px;fill:#000000;" text-anchor="middle" transform="translate(0,0)" y="670" opacity="1">60%</text><text x="393" style="color:#000000;cursor:default;font-size:11px;fill:#000000;" text-anchor="middle" transform="translate(0,0)" y="670" opacity="1">80%</text><text x="460" style="color:#000000;cursor:default;font-size:11px;fill:#000000;" text-anchor="middle" transform="translate(0,0)" y="670" opacity="1">100%</text></g><text x="10" class="highcharts-credits" text-anchor="start" data-z-index="8" style="cursor:default;color:#000000;font-size:10px;fill:#000000;" y="688"><tspan>Quelle: Statistisches Amt Basel-Stadt, kantonale Familienbefragung.</tspan><tspan x="10" dy="13">Zuletzt geändert: 2019-11-25</tspan></text></svg>