<?xml version="1.0" standalone="no"?><!DOCTYPE svg PUBLIC "-//W3C//DTD SVG 1.1//EN" "http://www.w3.org/Graphics/SVG/1.1/DTD/svg11.dtd"><svg xmlns:xlink="http://www.w3.org/1999/xlink" version="1.1" class="highcharts-root" style="font-family:Inter,Helvetica Neue,Helvetica,Arial,sans-serif;font-size:12px;" xmlns="http://www.w3.org/2000/svg" width="600" height="428"><desc>Created with Highcharts 8.2.2</desc><defs><clipPath id="highcharts-pvvmmgs-133-"><rect x="0" y="0" width="347" height="295" fill="none"></rect></clipPath><clipPath id="highcharts-pvvmmgs-143-"><rect x="0" y="0" width="347" height="295" fill="none"></rect></clipPath><clipPath id="highcharts-pvvmmgs-261-"><rect x="43" y="56" width="347" height="295" fill="none"></rect></clipPath></defs><rect fill="#ffffff" class="highcharts-background" x="0" y="0" width="600" height="428" rx="0" ry="0"></rect><rect fill="none" class="highcharts-plot-background" x="43" y="56" width="347" height="295"></rect><g class="highcharts-pane-group" data-z-index="0"></g><g class="highcharts-grid highcharts-xaxis-grid" data-z-index="1"><path fill="none" data-z-index="1" class="highcharts-grid-line" d="M 45.5 56 L 45.5 351" opacity="1"></path><path fill="none" data-z-index="1" class="highcharts-grid-line" d="M 88.5 56 L 88.5 351" opacity="1"></path><path fill="none" data-z-index="1" class="highcharts-grid-line" d="M 130.5 56 L 130.5 351" opacity="1"></path><path fill="none" data-z-index="1" class="highcharts-grid-line" d="M 173.5 56 L 173.5 351" opacity="1"></path><path fill="none" data-z-index="1" class="highcharts-grid-line" d="M 216.5 56 L 216.5 351" opacity="1"></path><path fill="none" data-z-index="1" class="highcharts-grid-line" d="M 258.5 56 L 258.5 351" opacity="1"></path><path fill="none" data-z-index="1" class="highcharts-grid-line" d="M 301.5 56 L 301.5 351" opacity="1"></path><path fill="none" data-z-index="1" class="highcharts-grid-line" d="M 343.5 56 L 343.5 351" opacity="1"></path><path fill="none" data-z-index="1" class="highcharts-grid-line" d="M 386.5 56 L 386.5 351" opacity="1"></path></g><g class="highcharts-grid highcharts-yaxis-grid" data-z-index="1"><path fill="none" stroke="#B9CFD7" stroke-width="0.5" data-z-index="1" class="highcharts-grid-line" d="M 43 351.25 L 390 351.25" opacity="1"></path><path fill="none" stroke="#B9CFD7" stroke-width="0.5" data-z-index="1" class="highcharts-grid-line" d="M 43 331.25 L 390 331.25" opacity="1"></path><path fill="none" stroke="#B9CFD7" stroke-width="0.5" data-z-index="1" class="highcharts-grid-line" d="M 43 312.25 L 390 312.25" opacity="1"></path><path fill="none" stroke="#B9CFD7" stroke-width="0.5" data-z-index="1" class="highcharts-grid-line" d="M 43 292.25 L 390 292.25" opacity="1"></path><path fill="none" stroke="#B9CFD7" stroke-width="0.5" data-z-index="1" class="highcharts-grid-line" d="M 43 272.25 L 390 272.25" opacity="1"></path><path fill="none" stroke="#B9CFD7" stroke-width="0.5" data-z-index="1" class="highcharts-grid-line" d="M 43 253.25 L 390 253.25" opacity="1"></path><path fill="none" stroke="#B9CFD7" stroke-width="0.5" data-z-index="1" class="highcharts-grid-line" d="M 43 233.25 L 390 233.25" opacity="1"></path><path fill="none" stroke="#B9CFD7" stroke-width="0.5" data-z-index="1" class="highcharts-grid-line" d="M 43 213.25 L 390 213.25" opacity="1"></path><path fill="none" stroke="#B9CFD7" stroke-width="0.5" data-z-index="1" class="highcharts-grid-line" d="M 43 194.25 L 390 194.25" opacity="1"></path><path fill="none" stroke="#B9CFD7" stroke-width="0.5" data-z-index="1" class="highcharts-grid-line" d="M 43 174.25 L 390 174.25" opacity="1"></path><path fill="none" stroke="#B9CFD7" stroke-width="0.5" data-z-index="1" class="highcharts-grid-line" d="M 43 154.25 L 390 154.25" opacity="1"></path><path fill="none" stroke="#B9CFD7" stroke-width="0.5" data-z-index="1" class="highcharts-grid-line" d="M 43 135.25 L 390 135.25" opacity="1"></path><path fill="none" stroke="#B9CFD7" stroke-width="0.5" data-z-index="1" class="highcharts-grid-line" d="M 43 115.25 L 390 115.25" opacity="1"></path><path fill="none" stroke="#B9CFD7" stroke-width="0.5" data-z-index="1" class="highcharts-grid-line" d="M 43 95.25 L 390 95.25" opacity="1"></path><path fill="none" stroke="#B9CFD7" stroke-width="0.5" data-z-index="1" class="highcharts-grid-line" d="M 43 76.25 L 390 76.25" opacity="1"></path><path fill="none" stroke="#B9CFD7" stroke-width="0.5" data-z-index="1" class="highcharts-grid-line" d="M 43 55.75 L 390 55.75" opacity="1"></path></g><rect fill="none" class="highcharts-plot-border" data-z-index="1" x="43" y="56" width="347" height="295"></rect><g class="highcharts-axis highcharts-xaxis" data-z-index="2"><path fill="none" class="highcharts-axis-line" stroke="#B9CFD7" stroke-width="0.5" data-z-index="7" d="M 43 351.25 L 390 351.25"></path></g><g class="highcharts-axis highcharts-yaxis" data-z-index="2"><path fill="none" class="highcharts-axis-line" data-z-index="7" d="M 43 56 L 43 351"></path></g><g class="highcharts-series-group" data-z-index="3"><g class="highcharts-series highcharts-series-0 highcharts-line-series" data-z-index="0.1" opacity="1" transform="translate(43,56) scale(1 1)" clip-path="url(#highcharts-pvvmmgs-143-)"><path fill="none" d="M 3.4019607843107 236 L 45.926470588233 209.79416666666668 L 88.450980392155 181.543 L 130.97549019608 158.92633333333333 L 173.5 146.8805 L 216.02450980392 135.62133333333333 L 258.54901960784 127.29249999999999 L 301.07352941177 63.93633333333332 L 343.59803921569 31.83050000000003" class="highcharts-graph" data-z-index="1" stroke="#E7CEE2" stroke-width="2" stroke-linejoin="round" stroke-linecap="round"></path></g><g class="highcharts-markers highcharts-series-0 highcharts-line-series" data-z-index="0.1" opacity="1" transform="translate(43,56) scale(1 1)" clip-path="none"></g><g class="highcharts-series highcharts-series-1 highcharts-line-series" data-z-index="0.1" opacity="1" transform="translate(43,56) scale(1 1)" clip-path="url(#highcharts-pvvmmgs-143-)"><path fill="none" d="M 3.4019607843107 236 L 45.926470588233 234.18083333333334 L 88.450980392155 227.45483333333334 L 130.97549019608 227.96616666666665 L 173.5 212.30166666666668 L 216.02450980392 209.6761666666667 L 258.54901960784 209.79416666666668 L 301.07352941177 164.74766666666667 L 343.59803921569 152.4265" class="highcharts-graph" data-z-index="1" stroke="#672773" stroke-width="2" stroke-linejoin="round" stroke-linecap="round"></path></g><g class="highcharts-markers highcharts-series-1 highcharts-line-series" data-z-index="0.1" opacity="1" transform="translate(43,56) scale(1 1)" clip-path="none"></g><g class="highcharts-series highcharts-series-2 highcharts-line-series" data-z-index="0.1" opacity="1" transform="translate(43,56) scale(1 1)" clip-path="url(#highcharts-pvvmmgs-143-)"><path fill="none" d="M 3.4019607843107 236 L 45.926470588233 235.24283333333335 L 88.450980392155 230.4835 L 130.97549019608 226.501 L 173.5 225.144 L 216.02450980392 219.61766666666668 L 258.54901960784 220.3355 L 301.07352941177 214.44533333333334 L 343.59803921569 208.5355" class="highcharts-graph" data-z-index="1" stroke="#B9CFD7" stroke-width="2" stroke-linejoin="round" stroke-linecap="round"></path></g><g class="highcharts-markers highcharts-series-2 highcharts-line-series" data-z-index="0.1" opacity="1" transform="translate(43,56) scale(1 1)" clip-path="none"></g><g class="highcharts-series highcharts-series-3 highcharts-line-series" data-z-index="0.1" opacity="1" transform="translate(43,56) scale(1 1)" clip-path="url(#highcharts-pvvmmgs-143-)"><path fill="none" d="M 3.4019607843107 236 L 45.926470588233 237.6815 L 88.450980392155 234.28900000000002 L 130.97549019608 231.103 L 173.5 228.48733333333334 L 216.02450980392 225.793 L 258.54901960784 220.70916666666668 L 301.07352941177 218.49666666666667 L 343.59803921569 217.06099999999998" class="highcharts-graph" data-z-index="1" stroke="#246370" stroke-width="2" stroke-linejoin="round" stroke-linecap="round"></path></g><g class="highcharts-markers highcharts-series-3 highcharts-line-series" data-z-index="0.1" opacity="1" transform="translate(43,56) scale(1 1)" clip-path="none"></g><g class="highcharts-series highcharts-series-4 highcharts-line-series" data-z-index="0.1" opacity="1" transform="translate(43,56) scale(1 1)" clip-path="url(#highcharts-pvvmmgs-143-)"><path fill="none" d="M 3.4019607843107 236 L 45.926470588233 246.9445 L 88.450980392155 250.042 L 130.97549019608 250.59266666666667 L 173.5 238.73366666666666 L 216.02450980392 238.09449999999998 L 258.54901960784 249.865 L 301.07352941177 229.4608333333333 L 343.59803921569 219.37183333333334" class="highcharts-graph" data-z-index="1" stroke="#008AC3" stroke-width="2" stroke-linejoin="round" stroke-linecap="round"></path></g><g class="highcharts-markers highcharts-series-4 highcharts-line-series" data-z-index="0.1" opacity="1" transform="translate(43,56) scale(1 1)" clip-path="none"></g><g class="highcharts-series highcharts-series-5 highcharts-line-series" data-z-index="0.1" opacity="1" transform="translate(43,56) scale(1 1)" clip-path="url(#highcharts-pvvmmgs-143-)"><path fill="none" d="M 3.4019607843107 236 L 45.926470588233 233.83666666666667 L 88.450980392155 233.5515 L 130.97549019608 232.56816666666668 L 173.5 228.92000000000002 L 216.02450980392 235.75416666666666 L 258.54901960784 245.558 L 301.07352941177 226.973 L 343.59803921569 221.54500000000002" class="highcharts-graph" data-z-index="1" stroke="#2B0099" stroke-width="2" stroke-linejoin="round" stroke-linecap="round"></path></g><g class="highcharts-markers highcharts-series-5 highcharts-line-series" data-z-index="0.1" opacity="1" transform="translate(43,56) scale(1 1)" clip-path="none"></g><g class="highcharts-series highcharts-series-6 highcharts-line-series" data-z-index="0.1" opacity="1" transform="translate(43,56) scale(1 1)" clip-path="url(#highcharts-pvvmmgs-143-)"><path fill="none" d="M 3.4019607843107 236 L 45.926470588233 238.01583333333332 L 88.450980392155 237.18 L 130.97549019608 228.64466666666667 L 173.5 224.91783333333333 L 216.02450980392 223.6591666666667 L 258.54901960784 238.2715 L 301.07352941177 229.47066666666666 L 343.59803921569 224.95716666666667" class="highcharts-graph" data-z-index="1" stroke="#73BA7C" stroke-width="2" stroke-linejoin="round" stroke-linecap="round"></path></g><g class="highcharts-markers highcharts-series-6 highcharts-line-series" data-z-index="0.1" opacity="1" transform="translate(43,56) scale(1 1)" clip-path="none"></g><g class="highcharts-series highcharts-series-7 highcharts-line-series" data-z-index="0.1" opacity="1" transform="translate(43,56) scale(1 1)" clip-path="url(#highcharts-pvvmmgs-143-)"><path fill="none" d="M 3.4019607843107 236 L 45.926470588233 234.72166666666666 L 88.450980392155 235.4886666666667 L 130.97549019608 234.72166666666666 L 173.5 233.59083333333334 L 216.02450980392 233.09916666666666 L 258.54901960784 229.94266666666667 L 301.07352941177 228.98883333333333 L 343.59803921569 227.72033333333331" class="highcharts-graph" data-z-index="1" stroke="#D7E8D2" stroke-width="2" stroke-linejoin="round" stroke-linecap="round"></path></g><g class="highcharts-markers highcharts-series-7 highcharts-line-series" data-z-index="0.1" opacity="1" transform="translate(43,56) scale(1 1)" clip-path="none"></g><g class="highcharts-series highcharts-series-8 highcharts-line-series" data-z-index="0.1" opacity="1" transform="translate(43,56) scale(1 1)" clip-path="url(#highcharts-pvvmmgs-143-)"><path fill="none" d="M 3.4019607843107 236 L 45.926470588233 238.7435 L 88.450980392155 237.39633333333333 L 130.97549019608 236.40316666666666 L 173.5 232.2535 L 216.02450980392 232.33216666666667 L 258.54901960784 230.67033333333333 L 301.07352941177 226.41250000000002 L 343.59803921569 234.112" class="highcharts-graph" data-z-index="1" stroke="#007A2F" stroke-width="2" stroke-linejoin="round" stroke-linecap="round"></path></g><g class="highcharts-markers highcharts-series-8 highcharts-line-series" data-z-index="0.1" opacity="1" transform="translate(43,56) scale(1 1)" clip-path="none"></g><g class="highcharts-series highcharts-series-9 highcharts-line-series" data-z-index="0.1" opacity="1" transform="translate(43,56) scale(1 1)" clip-path="url(#highcharts-pvvmmgs-143-)"><path fill="none" d="M 3.4019607843107 236 L 45.926470588233 239.08766666666668 L 88.450980392155 236.8555 L 130.97549019608 239.6285 L 173.5 233.56133333333332 L 216.02450980392 231.87 L 258.54901960784 235.705 L 301.07352941177 229.392 L 343.59803921569 237.18" class="highcharts-graph" data-z-index="1" stroke="#FFDA80" stroke-width="2" stroke-linejoin="round" stroke-linecap="round"></path></g><g class="highcharts-markers highcharts-series-9 highcharts-line-series" data-z-index="0.1" opacity="1" transform="translate(43,56) scale(1 1)" clip-path="none"></g><g class="highcharts-series highcharts-series-10 highcharts-line-series" data-z-index="0.1" opacity="1" transform="translate(43,56) scale(1 1)" clip-path="url(#highcharts-pvvmmgs-143-)"><path fill="none" d="M 3.4019607843107 236 L 45.926470588233 245.15483333333333 L 88.450980392155 244.732 L 130.97549019608 247.98683333333332 L 173.5 240.22833333333332 L 216.02450980392 242.89316666666667 L 258.54901960784 242.78500000000003 L 301.07352941177 249.70766666666668 L 343.59803921569 241.24116666666666" class="highcharts-graph" data-z-index="1" stroke="#FFBB58" stroke-width="2" stroke-linejoin="round" stroke-linecap="round"></path></g><g class="highcharts-markers highcharts-series-10 highcharts-line-series" data-z-index="0.1" opacity="1" transform="translate(43,56) scale(1 1)" clip-path="none"></g><g class="highcharts-series highcharts-series-11 highcharts-line-series" data-z-index="0.1" opacity="1" transform="translate(43,56) scale(1 1)" clip-path="url(#highcharts-pvvmmgs-143-)"><path fill="none" d="M 3.4019607843107 236 L 45.926470588233 230.67033333333333 L 88.450980392155 230.47366666666665 L 130.97549019608 231.76183333333333 L 173.5 236.118 L 216.02450980392 237.01283333333333 L 258.54901960784 238.714 L 301.07352941177 243.83716666666666 L 343.59803921569 246.36433333333335" class="highcharts-graph" data-z-index="1" stroke="#FF8028" stroke-width="2" stroke-linejoin="round" stroke-linecap="round"></path></g><g class="highcharts-markers highcharts-series-11 highcharts-line-series" data-z-index="0.1" opacity="1" transform="translate(43,56) scale(1 1)" clip-path="none"></g><g class="highcharts-series highcharts-series-12 highcharts-line-series" data-z-index="0.1" opacity="1" transform="translate(43,56) scale(1 1)" clip-path="url(#highcharts-pvvmmgs-143-)"><path fill="none" d="M 3.4019607843107 236 L 45.926470588233 239.186 L 88.450980392155 241.76233333333334 L 130.97549019608 241.428 L 173.5 237.89783333333335 L 216.02450980392 232.3125 L 258.54901960784 280.32866666666666 L 301.07352941177 281.017 L 343.59803921569 248.54733333333334" class="highcharts-graph" data-z-index="1" stroke="#DC440E" stroke-width="2" stroke-linejoin="round" stroke-linecap="round"></path></g><g class="highcharts-markers highcharts-series-12 highcharts-line-series" data-z-index="0.1" opacity="1" transform="translate(43,56) scale(1 1)" clip-path="none"></g><g class="highcharts-series highcharts-series-13 highcharts-line-series" data-z-index="0.1" opacity="1" transform="translate(43,56) scale(1 1)" clip-path="url(#highcharts-pvvmmgs-143-)"><path fill="none" d="M 3.4019607843107 236 L 45.926470588233 243.257 L 88.450980392155 246.75766666666667 L 130.97549019608 247.682 L 173.5 245.37116666666668 L 216.02450980392 241.56566666666666 L 258.54901960784 261.50766666666664 L 301.07352941177 268.25333333333333 L 343.59803921569 260.15066666666667" class="highcharts-graph" data-z-index="1" stroke="#8B2223" stroke-width="2" stroke-linejoin="round" stroke-linecap="round"></path></g><g class="highcharts-markers highcharts-series-13 highcharts-line-series" data-z-index="0.1" opacity="1" transform="translate(43,56) scale(1 1)" clip-path="none"></g></g><text x="10" text-anchor="start" class="highcharts-caption" data-z-index="4" style="color:#666666;fill:#666666;" y="385"></text><g class="highcharts-legend" data-z-index="7" transform="translate(402,46)"><rect fill="none" class="highcharts-legend-box" rx="0" ry="0" x="0" y="0" width="188" height="291" visibility="visible"></rect><g data-z-index="1"><g><g class="highcharts-legend-item highcharts-line-series highcharts-color-undefined highcharts-series-0" data-z-index="1" transform="translate(8,3)"><path fill="none" d="M 0 11 L 16 11" class="highcharts-graph" stroke="#E7CEE2" stroke-width="2"></path><text x="21" style="color:#333333;cursor:pointer;font-size:12px;font-weight:normal;fill:#333333;" text-anchor="start" data-z-index="2" y="15"><tspan>Pharma</tspan></text></g><g class="highcharts-legend-item highcharts-line-series highcharts-color-undefined highcharts-series-1" data-z-index="1" transform="translate(8,23)"><path fill="none" d="M 0 11 L 16 11" class="highcharts-graph" stroke="#672773" stroke-width="2"></path><text x="21" y="15" style="color:#333333;cursor:pointer;font-size:12px;font-weight:normal;fill:#333333;" text-anchor="start" data-z-index="2"><tspan>Chemische Industrie</tspan></text></g><g class="highcharts-legend-item highcharts-line-series highcharts-color-undefined highcharts-series-2" data-z-index="1" transform="translate(8,43)"><path fill="none" d="M 0 11 L 16 11" class="highcharts-graph" stroke="#B9CFD7" stroke-width="2"></path><text x="21" y="15" style="color:#333333;cursor:pointer;font-size:12px;font-weight:normal;fill:#333333;" text-anchor="start" data-z-index="2"><tspan>Gesundheits-, Sozialwesen</tspan></text></g><g class="highcharts-legend-item highcharts-line-series highcharts-color-undefined highcharts-series-3" data-z-index="1" transform="translate(8,63)"><path fill="none" d="M 0 11 L 16 11" class="highcharts-graph" stroke="#246370" stroke-width="2"></path><text x="21" y="15" style="color:#333333;cursor:pointer;font-size:12px;font-weight:normal;fill:#333333;" text-anchor="start" data-z-index="2"><tspan>Finanz-, Versicherungs-DL</tspan></text></g><g class="highcharts-legend-item highcharts-line-series highcharts-color-undefined highcharts-series-4" data-z-index="1" transform="translate(8,83)"><path fill="none" d="M 0 11 L 16 11" class="highcharts-graph" stroke="#008AC3" stroke-width="2"></path><text x="21" y="15" style="color:#333333;cursor:pointer;font-size:12px;font-weight:normal;fill:#333333;" text-anchor="start" data-z-index="2"><tspan>Elektronik/Optik</tspan></text></g><g class="highcharts-legend-item highcharts-line-series highcharts-color-undefined highcharts-series-5" data-z-index="1" transform="translate(8,103)"><path fill="none" d="M 0 11 L 16 11" class="highcharts-graph" stroke="#2B0099" stroke-width="2"></path><text x="21" y="15" style="color:#333333;cursor:pointer;font-size:12px;font-weight:normal;fill:#333333;" text-anchor="start" data-z-index="2"><tspan>Maschinen</tspan></text></g><g class="highcharts-legend-item highcharts-line-series highcharts-color-undefined highcharts-series-6" data-z-index="1" transform="translate(8,123)"><path fill="none" d="M 0 11 L 16 11" class="highcharts-graph" stroke="#73BA7C" stroke-width="2"></path><text x="21" y="15" style="color:#333333;cursor:pointer;font-size:12px;font-weight:normal;fill:#333333;" text-anchor="start" data-z-index="2"><tspan>Metallprodukte</tspan></text></g><g class="highcharts-legend-item highcharts-line-series highcharts-color-undefined highcharts-series-7" data-z-index="1" transform="translate(8,143)"><path fill="none" d="M 0 11 L 16 11" class="highcharts-graph" stroke="#D7E8D2" stroke-width="2"></path><text x="21" y="15" style="color:#333333;cursor:pointer;font-size:12px;font-weight:normal;fill:#333333;" text-anchor="start" data-z-index="2"><tspan>Öff. Verwaltung, Bildung</tspan></text></g><g class="highcharts-legend-item highcharts-line-series highcharts-color-undefined highcharts-series-8" data-z-index="1" transform="translate(8,163)"><path fill="none" d="M 0 11 L 16 11" class="highcharts-graph" stroke="#007A2F" stroke-width="2"></path><text x="21" y="15" style="color:#333333;cursor:pointer;font-size:12px;font-weight:normal;fill:#333333;" text-anchor="start" data-z-index="2"><tspan>Baugewerbe</tspan></text></g><g class="highcharts-legend-item highcharts-line-series highcharts-color-undefined highcharts-series-9" data-z-index="1" transform="translate(8,183)"><path fill="none" d="M 0 11 L 16 11" class="highcharts-graph" stroke="#FFDA80" stroke-width="2"></path><text x="21" y="15" style="color:#333333;cursor:pointer;font-size:12px;font-weight:normal;fill:#333333;" text-anchor="start" data-z-index="2"><tspan>Freib., wiss., tech. DL</tspan></text></g><g class="highcharts-legend-item highcharts-line-series highcharts-color-undefined highcharts-series-10" data-z-index="1" transform="translate(8,203)"><path fill="none" d="M 0 11 L 16 11" class="highcharts-graph" stroke="#FFBB58" stroke-width="2"></path><text x="21" y="15" style="color:#333333;cursor:pointer;font-size:12px;font-weight:normal;fill:#333333;" text-anchor="start" data-z-index="2"><tspan>Primärer Sektor</tspan></text></g><g class="highcharts-legend-item highcharts-line-series highcharts-color-undefined highcharts-series-11" data-z-index="1" transform="translate(8,223)"><path fill="none" d="M 0 11 L 16 11" class="highcharts-graph" stroke="#FF8028" stroke-width="2"></path><text x="21" y="15" style="color:#333333;cursor:pointer;font-size:12px;font-weight:normal;fill:#333333;" text-anchor="start" data-z-index="2"><tspan>Handel, Reparatur</tspan></text></g><g class="highcharts-legend-item highcharts-line-series highcharts-color-undefined highcharts-series-12" data-z-index="1" transform="translate(8,243)"><path fill="none" d="M 0 11 L 16 11" class="highcharts-graph" stroke="#DC440E" stroke-width="2"></path><text x="21" y="15" style="color:#333333;cursor:pointer;font-size:12px;font-weight:normal;fill:#333333;" text-anchor="start" data-z-index="2"><tspan>Gastgewerbe</tspan></text></g><g class="highcharts-legend-item highcharts-line-series highcharts-color-undefined highcharts-series-13" data-z-index="1" transform="translate(8,263)"><path fill="none" d="M 0 11 L 16 11" class="highcharts-graph" stroke="#8B2223" stroke-width="2"></path><text x="21" y="15" style="color:#333333;cursor:pointer;font-size:12px;font-weight:normal;fill:#333333;" text-anchor="start" data-z-index="2"><tspan>Verkehr, Lagerei</tspan></text></g></g></g></g><g class="highcharts-axis-labels highcharts-xaxis-labels" data-z-index="7"><text x="46.401960784311" style="color:#000000;cursor:default;font-size:11px;fill:#000000;" text-anchor="middle" transform="translate(0,0)" y="370" opacity="1">2014</text><text x="88.926470588233" style="color:#000000;cursor:default;font-size:11px;fill:#000000;" text-anchor="middle" transform="translate(0,0)" y="370" opacity="1">2015</text><text x="131.45098039216" style="color:#000000;cursor:default;font-size:11px;fill:#000000;" text-anchor="middle" transform="translate(0,0)" y="370" opacity="1">2016</text><text x="173.97549019608" style="color:#000000;cursor:default;font-size:11px;fill:#000000;" text-anchor="middle" transform="translate(0,0)" y="370" opacity="1">2017</text><text x="216.5" style="color:#000000;cursor:default;font-size:11px;fill:#000000;" text-anchor="middle" transform="translate(0,0)" y="370" opacity="1">2018</text><text x="259.02450980392" style="color:#000000;cursor:default;font-size:11px;fill:#000000;" text-anchor="middle" transform="translate(0,0)" y="370" opacity="1">2019</text><text x="301.54901960784" style="color:#000000;cursor:default;font-size:11px;fill:#000000;" text-anchor="middle" transform="translate(0,0)" y="370" opacity="1">2020</text><text x="344.07352941177" style="color:#000000;cursor:default;font-size:11px;fill:#000000;" text-anchor="middle" transform="translate(0,0)" y="370" opacity="1">2021</text><text x="386.59803921569" style="color:#000000;cursor:default;font-size:11px;fill:#000000;" text-anchor="middle" transform="translate(0,0)" y="370" opacity="1">2022</text></g><g class="highcharts-axis-labels highcharts-yaxis-labels" data-z-index="7"><text x="28" style="color:#000000;cursor:default;font-size:11px;fill:#000000;" text-anchor="end" transform="translate(0,0)" y="355" opacity="1">40</text><text x="28" style="color:#000000;cursor:default;font-size:11px;fill:#000000;" text-anchor="end" transform="translate(0,0)" y="335" opacity="1">60</text><text x="28" style="color:#000000;cursor:default;font-size:11px;fill:#000000;" text-anchor="end" transform="translate(0,0)" y="316" opacity="1">80</text><text x="28" style="color:#000000;cursor:default;font-size:11px;fill:#000000;" text-anchor="end" transform="translate(0,0)" y="296" opacity="1">100</text><text x="28" style="color:#000000;cursor:default;font-size:11px;fill:#000000;" text-anchor="end" transform="translate(0,0)" y="276" opacity="1">120</text><text x="28" style="color:#000000;cursor:default;font-size:11px;fill:#000000;" text-anchor="end" transform="translate(0,0)" y="257" opacity="1">140</text><text x="28" style="color:#000000;cursor:default;font-size:11px;fill:#000000;" text-anchor="end" transform="translate(0,0)" y="237" opacity="1">160</text><text x="28" style="color:#000000;cursor:default;font-size:11px;fill:#000000;" text-anchor="end" transform="translate(0,0)" y="217" opacity="1">180</text><text x="28" style="color:#000000;cursor:default;font-size:11px;fill:#000000;" text-anchor="end" transform="translate(0,0)" y="198" opacity="1">200</text><text x="28" style="color:#000000;cursor:default;font-size:11px;fill:#000000;" text-anchor="end" transform="translate(0,0)" y="178" opacity="1">220</text><text x="28" style="color:#000000;cursor:default;font-size:11px;fill:#000000;" text-anchor="end" transform="translate(0,0)" y="158" opacity="1">240</text><text x="28" style="color:#000000;cursor:default;font-size:11px;fill:#000000;" text-anchor="end" transform="translate(0,0)" y="139" opacity="1">260</text><text x="28" style="color:#000000;cursor:default;font-size:11px;fill:#000000;" text-anchor="end" transform="translate(0,0)" y="119" opacity="1">280</text><text x="28" style="color:#000000;cursor:default;font-size:11px;fill:#000000;" text-anchor="end" transform="translate(0,0)" y="99" opacity="1">300</text><text x="28" style="color:#000000;cursor:default;font-size:11px;fill:#000000;" text-anchor="end" transform="translate(0,0)" y="80" opacity="1">320</text><text x="28" style="color:#000000;cursor:default;font-size:11px;fill:#000000;" text-anchor="end" transform="translate(0,0)" y="60" opacity="1">340</text></g></svg>