<?xml version="1.0" standalone="no"?><!DOCTYPE svg PUBLIC "-//W3C//DTD SVG 1.1//EN" "http://www.w3.org/Graphics/SVG/1.1/DTD/svg11.dtd"><svg xmlns:xlink="http://www.w3.org/1999/xlink" version="1.1" class="highcharts-root" style="font-family:Inter,Helvetica Neue,Helvetica,Arial,sans-serif;font-size:12px;" xmlns="http://www.w3.org/2000/svg" width="600" height="428"><desc>Created with Highcharts 8.2.2</desc><defs><clipPath id="highcharts-wur4prm-27-"><rect x="0" y="0" width="527" height="291" fill="none"></rect></clipPath><clipPath id="highcharts-wur4prm-48-"><rect x="0" y="0" width="527" height="291" fill="none"></rect></clipPath><clipPath id="highcharts-wur4prm-49-"><rect x="53" y="60" width="527" height="291" fill="none"></rect></clipPath></defs><rect fill="#ffffff" class="highcharts-background" x="0" y="0" width="600" height="428" rx="0" ry="0"></rect><rect fill="none" class="highcharts-plot-background" x="53" y="60" width="527" height="291"></rect><g class="highcharts-pane-group" data-z-index="0"></g><g class="highcharts-grid highcharts-xaxis-grid" data-z-index="1"><path fill="none" data-z-index="1" class="highcharts-grid-line" d="M 84.5 60 L 84.5 351" opacity="1"></path><path fill="none" data-z-index="1" class="highcharts-grid-line" d="M 139.5 60 L 139.5 351" opacity="1"></path><path fill="none" data-z-index="1" class="highcharts-grid-line" d="M 193.5 60 L 193.5 351" opacity="1"></path><path fill="none" data-z-index="1" class="highcharts-grid-line" d="M 248.5 60 L 248.5 351" opacity="1"></path><path fill="none" data-z-index="1" class="highcharts-grid-line" d="M 302.5 60 L 302.5 351" opacity="1"></path><path fill="none" data-z-index="1" class="highcharts-grid-line" d="M 356.5 60 L 356.5 351" opacity="1"></path><path fill="none" data-z-index="1" class="highcharts-grid-line" d="M 411.5 60 L 411.5 351" opacity="1"></path><path fill="none" data-z-index="1" class="highcharts-grid-line" d="M 465.5 60 L 465.5 351" opacity="1"></path><path fill="none" data-z-index="1" class="highcharts-grid-line" d="M 519.5 60 L 519.5 351" opacity="1"></path><path fill="none" data-z-index="1" class="highcharts-grid-line" d="M 574.5 60 L 574.5 351" opacity="1"></path></g><g class="highcharts-grid highcharts-yaxis-grid" data-z-index="1"><path fill="none" stroke="#B9CFD7" stroke-width="0.5" data-z-index="1" class="highcharts-grid-line" d="M 53 351.25 L 580 351.25" opacity="1"></path><path fill="none" stroke="#B9CFD7" stroke-width="0.5" data-z-index="1" class="highcharts-grid-line" d="M 53 278.25 L 580 278.25" opacity="1"></path><path fill="none" stroke="#B9CFD7" stroke-width="0.5" data-z-index="1" class="highcharts-grid-line" d="M 53 206.25 L 580 206.25" opacity="1"></path><path fill="none" stroke="#B9CFD7" stroke-width="0.5" data-z-index="1" class="highcharts-grid-line" d="M 53 133.25 L 580 133.25" opacity="1"></path><path fill="none" stroke="#B9CFD7" stroke-width="0.5" data-z-index="1" class="highcharts-grid-line" d="M 53 59.75 L 580 59.75" opacity="1"></path></g><rect fill="none" class="highcharts-plot-border" data-z-index="1" x="53" y="60" width="527" height="291"></rect><g class="highcharts-axis highcharts-xaxis" data-z-index="2"><path fill="none" class="highcharts-axis-line" stroke="#B9CFD7" stroke-width="0.5" data-z-index="7" d="M 53 351.25 L 580 351.25"></path></g><g class="highcharts-axis highcharts-yaxis" data-z-index="2"><path fill="none" class="highcharts-axis-line" data-z-index="7" d="M 53 60 L 53 351"></path></g><g class="highcharts-series-group" data-z-index="3"><g class="highcharts-series highcharts-series-0 highcharts-line-series" data-z-index="0.1" opacity="1" transform="translate(53,60) scale(1 1)" clip-path="url(#highcharts-wur4prm-48-)"><path fill="none" d="M 5.1666666666681 202.536 L 32.359649122808 200.499 L 59.552631578949 199.91699999999997 L 86.745614035089 198.753 L 113.93859649123 196.425 L 141.13157894737 196.134 L 168.32456140351 193.80599999999998 L 195.51754385965 192.351 L 222.71052631579 190.314 L 249.90350877193 189.14999999999998 L 277.09649122807 188.277 L 304.28947368421 187.113 L 331.48245614035 186.24 L 358.67543859649 185.076 L 385.86842105263 184.49399999999997 L 413.06140350877 183.32999999999998 L 440.25438596491 183.62099999999998 L 467.44736842105 180.711 L 494.64035087719 179.256 L 521.83333333333 178.38299999999998" class="highcharts-graph" data-z-index="1" stroke="#73B97C" stroke-width="2" stroke-linejoin="round" stroke-linecap="round"></path></g><g class="highcharts-markers highcharts-series-0 highcharts-line-series" data-z-index="0.1" opacity="1" transform="translate(53,60) scale(1 1)" clip-path="none"></g></g><text x="10" text-anchor="start" class="highcharts-caption" data-z-index="4" style="color:#666666;fill:#666666;" y="385"></text><g class="highcharts-axis-labels highcharts-xaxis-labels" data-z-index="7"><text x="85.359649122808" style="color:#000000;cursor:default;font-size:11px;fill:#000000;" text-anchor="middle" transform="translate(0,0)" y="370" opacity="1">2006</text><text x="139.74561403509" style="color:#000000;cursor:default;font-size:11px;fill:#000000;" text-anchor="middle" transform="translate(0,0)" y="370" opacity="1">2008</text><text x="194.13157894737" style="color:#000000;cursor:default;font-size:11px;fill:#000000;" text-anchor="middle" transform="translate(0,0)" y="370" opacity="1">2010</text><text x="248.51754385965" style="color:#000000;cursor:default;font-size:11px;fill:#000000;" text-anchor="middle" transform="translate(0,0)" y="370" opacity="1">2012</text><text x="302.90350877193" style="color:#000000;cursor:default;font-size:11px;fill:#000000;" text-anchor="middle" transform="translate(0,0)" y="370" opacity="1">2014</text><text x="357.28947368421" style="color:#000000;cursor:default;font-size:11px;fill:#000000;" text-anchor="middle" transform="translate(0,0)" y="370" opacity="1">2016</text><text x="411.67543859649" style="color:#000000;cursor:default;font-size:11px;fill:#000000;" text-anchor="middle" transform="translate(0,0)" y="370" opacity="1">2018</text><text x="466.06140350877" style="color:#000000;cursor:default;font-size:11px;fill:#000000;" text-anchor="middle" transform="translate(0,0)" y="370" opacity="1">2020</text><text x="520.44736842105" style="color:#000000;cursor:default;font-size:11px;fill:#000000;" text-anchor="middle" transform="translate(0,0)" y="370" opacity="1">2022</text><text x="574.83333333333" style="color:#000000;cursor:default;font-size:11px;fill:#000000;" text-anchor="middle" transform="translate(0,0)" y="370" opacity="1">2024</text></g><g class="highcharts-axis-labels highcharts-yaxis-labels" data-z-index="7"><text x="38" style="color:#000000;cursor:default;font-size:11px;fill:#000000;" text-anchor="end" transform="translate(0,0)" y="355" opacity="1">0%</text><text x="38" style="color:#000000;cursor:default;font-size:11px;fill:#000000;" text-anchor="end" transform="translate(0,0)" y="282" opacity="1">25%</text><text x="38" style="color:#000000;cursor:default;font-size:11px;fill:#000000;" text-anchor="end" transform="translate(0,0)" y="210" opacity="1">50%</text><text x="38" style="color:#000000;cursor:default;font-size:11px;fill:#000000;" text-anchor="end" transform="translate(0,0)" y="137" opacity="1">75%</text><text x="38" style="color:#000000;cursor:default;font-size:11px;fill:#000000;" text-anchor="end" transform="translate(0,0)" y="64" opacity="1">100%</text></g></svg>