<?xml version="1.0" standalone="no"?><!DOCTYPE svg PUBLIC "-//W3C//DTD SVG 1.1//EN" "http://www.w3.org/Graphics/SVG/1.1/DTD/svg11.dtd"><svg xmlns:xlink="http://www.w3.org/1999/xlink" version="1.1" class="highcharts-root" style="font-family:Arial;font-size:10px;" xmlns="http://www.w3.org/2000/svg" viewBox="0 0 485 415"><desc>Created with Highstock 6.1.1</desc><defs><clipPath id="highcharts-i32i25i-6"><rect x="0" y="0" width="42" height="174" fill="none"></rect></clipPath><clipPath id="highcharts-i32i25i-7"><rect x="0" y="0" width="42" height="174" fill="none"></rect></clipPath></defs><rect fill="#fbfbfb" class="highcharts-background" x="0" y="0" width="320" height="221" rx="0" ry="0"></rect><rect fill="none" class="highcharts-plot-background" x="138" y="154" width="174" height="42"></rect><g class="highcharts-pane-group" data-z-index="0"></g><g class="highcharts-grid highcharts-xaxis-grid " data-z-index="1"><path fill="none" data-z-index="1" class="highcharts-grid-line" d="M 138 156.5 L 312 156.5" opacity="1"></path><path fill="none" data-z-index="1" class="highcharts-grid-line" d="M 138 175.5 L 312 175.5" opacity="1"></path><path fill="none" data-z-index="1" class="highcharts-grid-line" d="M 138 194.5 L 312 194.5" opacity="1"></path></g><g class="highcharts-grid highcharts-yaxis-grid " data-z-index="1"><path fill="none" stroke="#B9CFD7" stroke-width="0.5" data-z-index="1" class="highcharts-grid-line" d="M 138.75 154 L 138.75 196" opacity="1"></path><path fill="none" stroke="#B9CFD7" stroke-width="0.5" data-z-index="1" class="highcharts-grid-line" d="M 172.75 154 L 172.75 196" opacity="1"></path><path fill="none" stroke="#B9CFD7" stroke-width="0.5" data-z-index="1" class="highcharts-grid-line" d="M 207.75 154 L 207.75 196" opacity="1"></path><path fill="none" stroke="#B9CFD7" stroke-width="0.5" data-z-index="1" class="highcharts-grid-line" d="M 241.75 154 L 241.75 196" opacity="1"></path><path fill="none" stroke="#B9CFD7" stroke-width="0.5" data-z-index="1" class="highcharts-grid-line" d="M 276.75 154 L 276.75 196" opacity="1"></path><path fill="none" stroke="#B9CFD7" stroke-width="0.5" data-z-index="1" class="highcharts-grid-line" d="M 310.75 154 L 310.75 196" opacity="1"></path></g><rect fill="none" class="highcharts-plot-border" data-z-index="1" x="138" y="154" width="174" height="42"></rect><g class="highcharts-axis highcharts-xaxis " data-z-index="2"><path fill="none" class="highcharts-axis-line" stroke="#B9CFD7" stroke-width="0.5" data-z-index="7" d="M 137.75 154 L 137.75 196"></path></g><g class="highcharts-axis highcharts-yaxis " data-z-index="2"><path fill="none" class="highcharts-axis-line" data-z-index="7" d="M 138 196 L 312 196"></path></g><g class="highcharts-series-group" data-z-index="3"><g data-z-index="0.1" class="highcharts-series highcharts-series-0 highcharts-column-series " transform="translate(312,196) rotate(90) scale(-1,1) scale(1 1)" clip-path="url(#highcharts-i32i25i-7)"><rect x="39" y="174" width="4" height="0" fill="#256370" class="highcharts-point"></rect><rect x="35" y="171" width="4" height="3" fill="#256370" class="highcharts-point"></rect><rect x="31" y="171" width="4" height="3" fill="#256370" class="highcharts-point"></rect><rect x="23" y="174" width="4" height="0" fill="#256370" class="highcharts-point"></rect><rect x="19" y="171" width="4" height="3" fill="#256370" class="highcharts-point"></rect><rect x="16" y="171" width="4" height="3" fill="#256370" class="highcharts-point"></rect><rect x="8" y="174" width="4" height="0" fill="#256370" class="highcharts-point"></rect><rect x="4" y="173" width="4" height="1" fill="#256370" class="highcharts-point"></rect><rect x="0" y="172" width="4" height="2" fill="#256370" class="highcharts-point"></rect></g><g data-z-index="0.1" class="highcharts-markers highcharts-series-0 highcharts-column-series " transform="translate(312,196) rotate(90) scale(-1,1) scale(1 1)" clip-path="none"></g><g data-z-index="0.1" class="highcharts-series highcharts-series-1 highcharts-column-series " transform="translate(312,196) rotate(90) scale(-1,1) scale(1 1)" clip-path="url(#highcharts-i32i25i-7)"><rect x="39" y="172" width="4" height="2" fill="#71A3B5" class="highcharts-point"></rect><rect x="35" y="151" width="4" height="20" fill="#71A3B5" class="highcharts-point"></rect><rect x="31" y="153" width="4" height="18" fill="#71A3B5" class="highcharts-point"></rect><rect x="23" y="171" width="4" height="3" fill="#71A3B5" class="highcharts-point"></rect><rect x="19" y="150" width="4" height="21" fill="#71A3B5" class="highcharts-point"></rect><rect x="16" y="153" width="4" height="18" fill="#71A3B5" class="highcharts-point"></rect><rect x="8" y="173" width="4" height="1" fill="#71A3B5" class="highcharts-point"></rect><rect x="4" y="161" width="4" height="12" fill="#71A3B5" class="highcharts-point"></rect><rect x="0" y="160" width="4" height="12" fill="#71A3B5" class="highcharts-point"></rect></g><g data-z-index="0.1" class="highcharts-markers highcharts-series-1 highcharts-column-series " transform="translate(312,196) rotate(90) scale(-1,1) scale(1 1)" clip-path="none"></g><g data-z-index="0.1" class="highcharts-series highcharts-series-2 highcharts-column-series " transform="translate(312,196) rotate(90) scale(-1,1) scale(1 1)" clip-path="url(#highcharts-i32i25i-7)"><rect x="39" y="167" width="4" height="5" fill="#FFBB58" class="highcharts-point"></rect><rect x="35" y="128" width="4" height="23" fill="#FFBB58" class="highcharts-point"></rect><rect x="31" y="132" width="4" height="21" fill="#FFBB58" class="highcharts-point"></rect><rect x="23" y="165" width="4" height="6" fill="#FFBB58" class="highcharts-point"></rect><rect x="19" y="130" width="4" height="20" fill="#FFBB58" class="highcharts-point"></rect><rect x="16" y="132" width="4" height="21" fill="#FFBB58" class="highcharts-point"></rect><rect x="8" y="169" width="4" height="4" fill="#FFBB58" class="highcharts-point"></rect><rect x="4" y="146" width="4" height="15" fill="#FFBB58" class="highcharts-point"></rect><rect x="0" y="147" width="4" height="13" fill="#FFBB58" class="highcharts-point"></rect></g><g data-z-index="0.1" class="highcharts-markers highcharts-series-2 highcharts-column-series " transform="translate(312,196) rotate(90) scale(-1,1) scale(1 1)" clip-path="none"></g><g data-z-index="0.1" class="highcharts-series highcharts-series-3 highcharts-column-series " transform="translate(312,196) rotate(90) scale(-1,1) scale(1 1)" clip-path="url(#highcharts-i32i25i-7)"><rect x="39" y="78" width="4" height="89" fill="#FF8028" class="highcharts-point"></rect><rect x="35" y="43" width="4" height="85" fill="#FF8028" class="highcharts-point"></rect><rect x="31" y="43" width="4" height="89" fill="#FF8028" class="highcharts-point"></rect><rect x="23" y="78" width="4" height="87" fill="#FF8028" class="highcharts-point"></rect><rect x="19" y="44" width="4" height="86" fill="#FF8028" class="highcharts-point"></rect><rect x="16" y="45" width="4" height="87" fill="#FF8028" class="highcharts-point"></rect><rect x="8" y="81" width="4" height="88" fill="#FF8028" class="highcharts-point"></rect><rect x="4" y="53" width="4" height="93" fill="#FF8028" class="highcharts-point"></rect><rect x="0" y="56" width="4" height="91" fill="#FF8028" class="highcharts-point"></rect></g><g data-z-index="0.1" class="highcharts-markers highcharts-series-3 highcharts-column-series " transform="translate(312,196) rotate(90) scale(-1,1) scale(1 1)" clip-path="none"></g><g data-z-index="0.1" class="highcharts-series highcharts-series-4 highcharts-column-series " transform="translate(312,196) rotate(90) scale(-1,1) scale(1 1)" clip-path="url(#highcharts-i32i25i-7)"><rect x="39" y="40" width="4" height="38" fill="#C8C8C8" class="highcharts-point"></rect><rect x="35" y="31" width="4" height="12" fill="#C8C8C8" class="highcharts-point"></rect><rect x="31" y="32" width="4" height="11" fill="#C8C8C8" class="highcharts-point"></rect><rect x="23" y="43" width="4" height="35" fill="#C8C8C8" class="highcharts-point"></rect><rect x="19" y="34" width="4" height="10" fill="#C8C8C8" class="highcharts-point"></rect><rect x="16" y="34" width="4" height="11" fill="#C8C8C8" class="highcharts-point"></rect><rect x="8" y="50" width="4" height="31" fill="#C8C8C8" class="highcharts-point"></rect><rect x="4" y="53" width="4" height="0" fill="#C8C8C8" class="highcharts-point"></rect><rect x="0" y="42" width="4" height="14" fill="#C8C8C8" class="highcharts-point"></rect></g><g data-z-index="0.1" class="highcharts-markers highcharts-series-4 highcharts-column-series " transform="translate(312,196) rotate(90) scale(-1,1) scale(1 1)" clip-path="none"></g><g data-z-index="0.1" class="highcharts-series highcharts-series-5 highcharts-column-series " transform="translate(312,196) rotate(90) scale(-1,1) scale(1 1)" clip-path="url(#highcharts-i32i25i-7)"><rect x="39" y="2" width="4" height="38" fill="#8A8A8A" class="highcharts-point"></rect><rect x="35" y="2" width="4" height="29" fill="#8A8A8A" class="highcharts-point"></rect><rect x="31" y="2" width="4" height="30" fill="#8A8A8A" class="highcharts-point"></rect><rect x="23" y="2" width="4" height="41" fill="#8A8A8A" class="highcharts-point"></rect><rect x="19" y="2" width="4" height="32" fill="#8A8A8A" class="highcharts-point"></rect><rect x="16" y="2" width="4" height="32" fill="#8A8A8A" class="highcharts-point"></rect><rect x="8" y="2" width="4" height="48" fill="#8A8A8A" class="highcharts-point"></rect><rect x="4" y="2" width="4" height="51" fill="#8A8A8A" class="highcharts-point"></rect><rect x="0" y="2" width="4" height="40" fill="#8A8A8A" class="highcharts-point"></rect></g><g data-z-index="0.1" class="highcharts-markers highcharts-series-5 highcharts-column-series " transform="translate(312,196) rotate(90) scale(-1,1) scale(1 1)" clip-path="none"></g></g><text x="160" text-anchor="middle" class="highcharts-title" data-z-index="4" style="color:#333333;font-size:18px;fill:#333333;" y="16"><tspan>Erhaltene materielle</tspan><tspan dy="21" x="160">Hilfeleistungen</tspan></text><text x="160" text-anchor="middle" class="highcharts-subtitle" data-z-index="4" style="color:#666666;fill:#666666;" y="56"><tspan>«Wie häufig erhalten Sie oder ein anderes Mitglied Ihres</tspan><tspan dy="13" x="160">Haushaltes materielle Hilfeleistungen von</tspan><tspan dy="13" x="160">Arbeitskollegen, Freunden/Bekannten oder Nachbarn?»,</tspan><tspan dy="13" x="160">Basel-Stadt</tspan></text><g class="highcharts-legend" data-z-index="7" transform="translate(18,111)"><rect fill="none" class="highcharts-legend-box" rx="0" ry="0" x="0" y="0" width="300" height="34" visibility="visible"></rect><g data-z-index="1"><g><g class="highcharts-legend-item highcharts-column-series highcharts-color-undefined highcharts-series-0" data-z-index="1" transform="translate(0,-5)"><text x="21" style="color:#000000;font-size:10px;font-weight:normal;cursor:pointer;font-family:Arial;whitespace:nowrap;white-space:nowrap;fill:#000000;" text-anchor="start" data-z-index="2" y="13"><tspan>Regelmässig</tspan></text><rect x="3" y="4" width="10" height="10" fill="#256370" class="highcharts-point" data-z-index="3"></rect></g><g class="highcharts-legend-item highcharts-column-series highcharts-color-undefined highcharts-series-1" data-z-index="1" transform="translate(150,-5)"><text x="21" y="13" style="color:#000000;font-size:10px;font-weight:normal;cursor:pointer;font-family:Arial;whitespace:nowrap;white-space:nowrap;fill:#000000;" text-anchor="start" data-z-index="2"><tspan>Hin und wieder</tspan></text><rect x="3" y="4" width="10" height="10" fill="#71A3B5" class="highcharts-point" data-z-index="3"></rect></g><g class="highcharts-legend-item highcharts-column-series highcharts-color-undefined highcharts-series-2" data-z-index="1" transform="translate(0,8)"><text x="21" y="13" style="color:#000000;font-size:10px;font-weight:normal;cursor:pointer;font-family:Arial;whitespace:nowrap;white-space:nowrap;fill:#000000;" text-anchor="start" data-z-index="2"><tspan>Selten</tspan></text><rect x="3" y="4" width="10" height="10" fill="#FFBB58" class="highcharts-point" data-z-index="3"></rect></g><g class="highcharts-legend-item highcharts-column-series highcharts-color-undefined highcharts-series-3" data-z-index="1" transform="translate(150,8)"><text x="21" y="13" style="color:#000000;font-size:10px;font-weight:normal;cursor:pointer;font-family:Arial;whitespace:nowrap;white-space:nowrap;fill:#000000;" text-anchor="start" data-z-index="2"><tspan>Nie</tspan></text><rect x="3" y="4" width="10" height="10" fill="#FF8028" class="highcharts-point" data-z-index="3"></rect></g><g class="highcharts-legend-item highcharts-column-series highcharts-color-undefined highcharts-series-4" data-z-index="1" transform="translate(0,21)"><text x="21" y="13" style="color:#000000;font-size:10px;font-weight:normal;cursor:pointer;font-family:Arial;whitespace:nowrap;white-space:nowrap;fill:#000000;" text-anchor="start" data-z-index="2"><tspan>Nicht möglich</tspan></text><rect x="3" y="4" width="10" height="10" fill="#C8C8C8" class="highcharts-point" data-z-index="3"></rect></g><g class="highcharts-legend-item highcharts-column-series highcharts-color-undefined highcharts-series-5" data-z-index="1" transform="translate(150,21)"><text x="21" y="13" style="color:#000000;font-size:10px;font-weight:normal;cursor:pointer;font-family:Arial;whitespace:nowrap;white-space:nowrap;fill:#000000;" text-anchor="start" data-z-index="2"><tspan>Keine Angabe</tspan></text><rect x="3" y="4" width="10" height="10" fill="#8A8A8A" class="highcharts-point" data-z-index="3"></rect></g></g></g></g><g class="highcharts-axis-labels highcharts-xaxis-labels " data-z-index="7"><text x="133" style="color:#000000;cursor:default;font-size:10px;font-family:Arial;white-space:nowrap;fill:#000000;" text-anchor="end" transform="translate(0,0)" y="159" opacity="1"><tspan>2019: Arbeitskollegen</tspan></text><text x="133" style="color:#000000;cursor:default;font-size:10px;font-family:Arial;white-space:nowrap;fill:#000000;" text-anchor="end" transform="translate(0,0)" y="179" opacity="1"><tspan>2015: Nachbarn</tspan></text><text x="133" style="color:#000000;cursor:default;font-size:10px;font-family:Arial;white-space:nowrap;fill:#000000;" text-anchor="end" transform="translate(0,0)" y="198" opacity="1"><tspan>2011: Freund und Bekannte</tspan></text></g><g class="highcharts-axis-labels highcharts-yaxis-labels " data-z-index="7"><text x="138.86138613861" style="color:#000000;cursor:default;font-size:10px;fill:#000000;" text-anchor="middle" transform="translate(0,0)" y="206" opacity="1">0%</text><text x="173.31683168317" style="color:#000000;cursor:default;font-size:10px;fill:#000000;" text-anchor="middle" transform="translate(0,0)" y="206" opacity="1">20%</text><text x="207.77227722772" style="color:#000000;cursor:default;font-size:10px;fill:#000000;" text-anchor="middle" transform="translate(0,0)" y="206" opacity="1">40%</text><text x="242.22772277228" style="color:#000000;cursor:default;font-size:10px;fill:#000000;" text-anchor="middle" transform="translate(0,0)" y="206" opacity="1">60%</text><text x="276.68316831683" style="color:#000000;cursor:default;font-size:10px;fill:#000000;" text-anchor="middle" transform="translate(0,0)" y="206" opacity="1">80%</text><text x="307.319306930695" style="color:#000000;cursor:default;font-size:10px;fill:#000000;" text-anchor="middle" transform="translate(0,0)" y="206" opacity="1"><tspan>100%</tspan></text></g><text x="310" class="highcharts-credits" text-anchor="end" data-z-index="8" style="cursor:pointer;color:#999999;font-size:9px;fill:#999999;" y="196"><tspan>Quelle: Statistisches Amt Basel-Stadt, kantonale Befragung 55plus.</tspan><tspan x="310" dy="12">Zuletzt geändert: 2020-6-22</tspan></text></svg>