<?xml version="1.0" standalone="no"?><!DOCTYPE svg PUBLIC "-//W3C//DTD SVG 1.1//EN" "http://www.w3.org/Graphics/SVG/1.1/DTD/svg11.dtd"><svg xmlns:xlink="http://www.w3.org/1999/xlink" version="1.1" class="highcharts-root" style="font-family:Arial;font-size:10px;" xmlns="http://www.w3.org/2000/svg" viewBox="0 0 485 415"><desc>Created with Highstock 6.1.1</desc><defs><clipPath id="highcharts-m430mck-6"><rect x="0" y="0" width="150" height="119" fill="none"></rect></clipPath><clipPath id="highcharts-m430mck-7"><rect x="0" y="0" width="150" height="119" fill="none"></rect></clipPath></defs><rect fill="#fbfbfb" class="highcharts-background" x="0" y="0" width="320" height="221" rx="0" ry="0"></rect><rect fill="none" class="highcharts-plot-background" x="44" y="56" width="150" height="119"></rect><g class="highcharts-pane-group" data-z-index="0"></g><g class="highcharts-grid highcharts-xaxis-grid " data-z-index="1"><path fill="none" data-z-index="1" class="highcharts-grid-line" d="M 73.5 56 L 73.5 175" opacity="1"></path><path fill="none" data-z-index="1" class="highcharts-grid-line" d="M 103.5 56 L 103.5 175" opacity="1"></path><path fill="none" data-z-index="1" class="highcharts-grid-line" d="M 133.5 56 L 133.5 175" opacity="1"></path><path fill="none" data-z-index="1" class="highcharts-grid-line" d="M 163.5 56 L 163.5 175" opacity="1"></path><path fill="none" data-z-index="1" class="highcharts-grid-line" d="M 193.5 56 L 193.5 175" opacity="1"></path><path fill="none" data-z-index="1" class="highcharts-grid-line" d="M 43.5 56 L 43.5 175" opacity="1"></path></g><g class="highcharts-grid highcharts-yaxis-grid " data-z-index="1"><path fill="none" stroke="#B9CFD7" stroke-width="0.5" data-z-index="1" class="highcharts-grid-line" d="M 44 175.25 L 194 175.25" opacity="1"></path><path fill="none" stroke="#B9CFD7" stroke-width="0.5" data-z-index="1" class="highcharts-grid-line" d="M 44 151.25 L 194 151.25" opacity="1"></path><path fill="none" stroke="#B9CFD7" stroke-width="0.5" data-z-index="1" class="highcharts-grid-line" d="M 44 127.25 L 194 127.25" opacity="1"></path><path fill="none" stroke="#B9CFD7" stroke-width="0.5" data-z-index="1" class="highcharts-grid-line" d="M 44 104.25 L 194 104.25" opacity="1"></path><path fill="none" stroke="#B9CFD7" stroke-width="0.5" data-z-index="1" class="highcharts-grid-line" d="M 44 80.25 L 194 80.25" opacity="1"></path><path fill="none" stroke="#B9CFD7" stroke-width="0.5" data-z-index="1" class="highcharts-grid-line" d="M 44 55.75 L 194 55.75" opacity="1"></path></g><rect fill="none" class="highcharts-plot-border" data-z-index="1" x="44" y="56" width="150" height="119"></rect><g class="highcharts-axis highcharts-xaxis " data-z-index="2"><path fill="none" class="highcharts-axis-line" stroke="#B9CFD7" stroke-width="0.5" data-z-index="7" d="M 44 175.25 L 194 175.25"></path></g><g class="highcharts-axis highcharts-yaxis " data-z-index="2"><path fill="none" class="highcharts-axis-line" data-z-index="7" d="M 44 56 L 44 175"></path></g><g class="highcharts-series-group" data-z-index="3"><g data-z-index="0.1" class="highcharts-series highcharts-series-0 highcharts-column-series " transform="translate(44,56) scale(1 1)" clip-path="url(#highcharts-m430mck-7)"><rect x="8" y="117" width="15" height="3" fill="#71A3B5" class="highcharts-point"></rect><rect x="38" y="118" width="15" height="2" fill="#71A3B5" class="highcharts-point"></rect><rect x="68" y="117" width="15" height="3" fill="#71A3B5" class="highcharts-point"></rect><rect x="98" y="111" width="15" height="9" fill="#71A3B5" class="highcharts-point"></rect><rect x="128" y="116" width="15" height="4" fill="#71A3B5" class="highcharts-point"></rect></g><g data-z-index="0.1" class="highcharts-markers highcharts-series-0 highcharts-column-series " transform="translate(44,56) scale(1 1)" clip-path="none"></g><g data-z-index="0.1" class="highcharts-series highcharts-series-1 highcharts-column-series " transform="translate(44,56) scale(1 1)" clip-path="url(#highcharts-m430mck-7)"><rect x="8" y="28" width="15" height="89" fill="#8A8A8A" class="highcharts-point"></rect><rect x="38" y="16" width="15" height="102" fill="#8A8A8A" class="highcharts-point"></rect><rect x="68" y="38" width="15" height="79" fill="#8A8A8A" class="highcharts-point"></rect><rect x="98" y="111" width="15" height="0" fill="#8A8A8A" class="highcharts-point"></rect><rect x="128" y="57" width="15" height="59" fill="#8A8A8A" class="highcharts-point"></rect></g><g data-z-index="0.1" class="highcharts-markers highcharts-series-1 highcharts-column-series " transform="translate(44,56) scale(1 1)" clip-path="none"></g><g data-z-index="0.1" class="highcharts-series highcharts-series-2 highcharts-column-series " transform="translate(44,56) scale(1 1)" clip-path="url(#highcharts-m430mck-7)"><rect x="8" y="0" width="15" height="28" fill="#FABD24" class="highcharts-point"></rect><rect x="38" y="0" width="15" height="16" fill="#FABD24" class="highcharts-point"></rect><rect x="68" y="0" width="15" height="38" fill="#FABD24" class="highcharts-point"></rect><rect x="98" y="0" width="15" height="111" fill="#FABD24" class="highcharts-point"></rect><rect x="128" y="0" width="15" height="57" fill="#FABD24" class="highcharts-point"></rect></g><g data-z-index="0.1" class="highcharts-markers highcharts-series-2 highcharts-column-series " transform="translate(44,56) scale(1 1)" clip-path="none"></g></g><text x="2" text-anchor="start" class="highcharts-title" data-z-index="4" style="color:#000000;font-size:10px;font-weight:normal;fill:#000000;" y="9"><tspan>Bedrohungen und Angriffe</tspan></text><text x="2" text-anchor="start" class="highcharts-subtitle" data-z-index="4" style="color:#000000;font-size:10px;fill:#000000;" y="27"><tspan>«Sind Sie im letzten Jahr bedroht oder angegriffen</tspan><tspan dy="13" x="2">worden?»</tspan></text><g class="highcharts-legend" data-z-index="7" transform="translate(206,86)"><rect fill="none" class="highcharts-legend-box" rx="0" ry="0" x="0" y="0" width="112" height="40" visibility="visible"></rect><g data-z-index="1"><g><g class="highcharts-legend-item highcharts-column-series highcharts-color-undefined highcharts-series-2" data-z-index="1" transform="translate(0,-5)"><text x="21" style="color:#333333;font-size:10px;font-weight:normal;cursor:pointer;font-family:Arial;fill:#333333;" text-anchor="start" data-z-index="2" y="13"><tspan>nein</tspan></text><rect x="3" y="4" width="10" height="10" fill="#FABD24" class="highcharts-point" data-z-index="3"></rect></g><g class="highcharts-legend-item highcharts-column-series highcharts-color-undefined highcharts-series-1" data-z-index="1" transform="translate(0,10)"><text x="21" y="13" style="color:#333333;font-size:10px;font-weight:normal;cursor:pointer;font-family:Arial;fill:#333333;" text-anchor="start" data-z-index="2"><tspan>Anz weiss nicht/K…</tspan><title>Anz weiss nicht/Keine Angabe</title></text><rect x="3" y="4" width="10" height="10" fill="#8A8A8A" class="highcharts-point" data-z-index="3"></rect></g><g class="highcharts-legend-item highcharts-column-series highcharts-color-undefined highcharts-series-0" data-z-index="1" transform="translate(0,25)"><text x="21" y="13" style="color:#333333;font-size:10px;font-weight:normal;cursor:pointer;font-family:Arial;fill:#333333;" text-anchor="start" data-z-index="2"><tspan>ja</tspan></text><rect x="3" y="4" width="10" height="10" fill="#71A3B5" class="highcharts-point" data-z-index="3"></rect></g></g></g></g><g class="highcharts-axis-labels highcharts-xaxis-labels " data-z-index="7"><text x="59" style="color:#000000;cursor:default;font-size:10px;fill:#000000;" text-anchor="middle" transform="translate(0,0)" y="193" opacity="1"><tspan>2003</tspan><tspan x="59" dy="13">(N=1497)</tspan></text><text x="89" style="color:#000000;cursor:default;font-size:10px;fill:#000000;" text-anchor="middle" transform="translate(0,0)" y="193" opacity="1"><tspan>2005</tspan><tspan x="89" dy="13">(N=1510)</tspan></text><text x="119" style="color:#000000;cursor:default;font-size:10px;fill:#000000;" text-anchor="middle" transform="translate(0,0)" y="193" opacity="1"><tspan>2007</tspan><tspan x="119" dy="13">(N=1509)</tspan></text><text x="149" style="color:#000000;cursor:default;font-size:10px;fill:#000000;" text-anchor="middle" transform="translate(0,0)" y="193" opacity="1"><tspan>2011</tspan><tspan x="149" dy="13">(N=1516)</tspan></text><text x="179" style="color:#000000;cursor:default;font-size:10px;fill:#000000;" text-anchor="middle" transform="translate(0,0)" y="193" opacity="1"><tspan>2015</tspan><tspan x="179" dy="13">(N=1506)</tspan></text></g><g class="highcharts-axis-labels highcharts-yaxis-labels " data-z-index="7"><text x="29" style="color:#000000;cursor:default;font-size:10px;fill:#000000;" text-anchor="end" transform="translate(0,0)" y="178" opacity="1">0%</text><text x="29" style="color:#000000;cursor:default;font-size:10px;fill:#000000;" text-anchor="end" transform="translate(0,0)" y="154" opacity="1">20%</text><text x="29" style="color:#000000;cursor:default;font-size:10px;fill:#000000;" text-anchor="end" transform="translate(0,0)" y="130" opacity="1">40%</text><text x="29" style="color:#000000;cursor:default;font-size:10px;fill:#000000;" text-anchor="end" transform="translate(0,0)" y="107" opacity="1">60%</text><text x="29" style="color:#000000;cursor:default;font-size:10px;fill:#000000;" text-anchor="end" transform="translate(0,0)" y="83" opacity="1">80%</text><text x="29" style="color:#000000;cursor:default;font-size:10px;fill:#000000;" text-anchor="end" transform="translate(0,0)" y="59" opacity="1">100%</text></g><text x="10" class="highcharts-credits" text-anchor="start" data-z-index="8" style="cursor:default;color:#000000;font-size:10px;fill:#000000;" y="196"><tspan>Quelle: Statistisches Amt Basel-Stadt, kantonale Bevölkerungsbefragung: F9b.</tspan><tspan x="10" dy="13">Zuletzt geändert: 2019-12-20</tspan></text></svg>