<?xml version="1.0" standalone="no"?><!DOCTYPE svg PUBLIC "-//W3C//DTD SVG 1.1//EN" "http://www.w3.org/Graphics/SVG/1.1/DTD/svg11.dtd"><svg xmlns:xlink="http://www.w3.org/1999/xlink" version="1.1" class="highcharts-root" style="font-family:Arial;font-size:10px;" xmlns="http://www.w3.org/2000/svg" viewBox="0 0 485 415"><desc>Created with Highstock 6.1.1</desc><defs><clipPath id="highcharts-hmzamgo-6"><rect x="0" y="0" width="274" height="67" fill="none"></rect></clipPath><clipPath id="highcharts-hmzamgo-7"><rect x="0" y="0" width="274" height="67" fill="none"></rect></clipPath></defs><rect fill="#fbfbfb" class="highcharts-background" x="0" y="0" width="320" height="208" rx="0" ry="0"></rect><rect fill="none" class="highcharts-plot-background" x="44" y="105" width="274" height="67"></rect><g class="highcharts-pane-group" data-z-index="0"></g><g class="highcharts-grid highcharts-xaxis-grid " data-z-index="1"><path fill="none" data-z-index="1" class="highcharts-grid-line" d="M 89.5 105 L 89.5 172" opacity="1"></path><path fill="none" data-z-index="1" class="highcharts-grid-line" d="M 134.5 105 L 134.5 172" opacity="1"></path><path fill="none" data-z-index="1" class="highcharts-grid-line" d="M 180.5 105 L 180.5 172" opacity="1"></path><path fill="none" data-z-index="1" class="highcharts-grid-line" d="M 226.5 105 L 226.5 172" opacity="1"></path><path fill="none" data-z-index="1" class="highcharts-grid-line" d="M 271.5 105 L 271.5 172" opacity="1"></path><path fill="none" data-z-index="1" class="highcharts-grid-line" d="M 317.5 105 L 317.5 172" opacity="1"></path><path fill="none" data-z-index="1" class="highcharts-grid-line" d="M 43.5 105 L 43.5 172" opacity="1"></path></g><g class="highcharts-grid highcharts-yaxis-grid " data-z-index="1"><path fill="none" stroke="#B9CFD7" stroke-width="0.5" data-z-index="1" class="highcharts-grid-line" d="M 44 172.25 L 318 172.25" opacity="1"></path><path fill="none" stroke="#B9CFD7" stroke-width="0.5" data-z-index="1" class="highcharts-grid-line" d="M 44 158.25 L 318 158.25" opacity="1"></path><path fill="none" stroke="#B9CFD7" stroke-width="0.5" data-z-index="1" class="highcharts-grid-line" d="M 44 145.25 L 318 145.25" opacity="1"></path><path fill="none" stroke="#B9CFD7" stroke-width="0.5" data-z-index="1" class="highcharts-grid-line" d="M 44 132.25 L 318 132.25" opacity="1"></path><path fill="none" stroke="#B9CFD7" stroke-width="0.5" data-z-index="1" class="highcharts-grid-line" d="M 44 119.25 L 318 119.25" opacity="1"></path><path fill="none" stroke="#B9CFD7" stroke-width="0.5" data-z-index="1" class="highcharts-grid-line" d="M 44 105.25 L 318 105.25" opacity="1"></path></g><rect fill="none" class="highcharts-plot-border" data-z-index="1" x="44" y="105" width="274" height="67"></rect><g class="highcharts-axis highcharts-xaxis " data-z-index="2"><path fill="none" class="highcharts-axis-line" stroke="#B9CFD7" stroke-width="0.5" data-z-index="7" d="M 44 172.25 L 318 172.25"></path></g><g class="highcharts-axis highcharts-yaxis " data-z-index="2"><path fill="none" class="highcharts-axis-line" data-z-index="7" d="M 44 105 L 44 172"></path></g><g class="highcharts-series-group" data-z-index="3"><g data-z-index="0.1" class="highcharts-series highcharts-series-0 highcharts-column-series " transform="translate(44,105) scale(1 1)" clip-path="url(#highcharts-hmzamgo-7)"><rect x="5" y="25" width="37" height="43" fill="#71A3B5" class="highcharts-point"></rect><rect x="50" y="24" width="37" height="44" fill="#71A3B5" class="highcharts-point"></rect><rect x="96" y="29" width="37" height="39" fill="#71A3B5" class="highcharts-point"></rect><rect x="142" y="25" width="37" height="43" fill="#71A3B5" class="highcharts-point"></rect><rect x="187" y="23" width="37" height="45" fill="#71A3B5" class="highcharts-point"></rect><rect x="233" y="23" width="37" height="45" fill="#71A3B5" class="highcharts-point"></rect></g><g data-z-index="0.1" class="highcharts-markers highcharts-series-0 highcharts-column-series " transform="translate(44,105) scale(1 1)" clip-path="none"></g><g data-z-index="0.1" class="highcharts-series highcharts-series-1 highcharts-column-series " transform="translate(44,105) scale(1 1)" clip-path="url(#highcharts-hmzamgo-7)"><rect x="5" y="2" width="37" height="23" fill="#FABD24" class="highcharts-point"></rect><rect x="50" y="2" width="37" height="22" fill="#FABD24" class="highcharts-point"></rect><rect x="96" y="0" width="37" height="29" fill="#FABD24" class="highcharts-point"></rect><rect x="142" y="2" width="37" height="23" fill="#FABD24" class="highcharts-point"></rect><rect x="187" y="2" width="37" height="21" fill="#FABD24" class="highcharts-point"></rect><rect x="233" y="3" width="37" height="20" fill="#FABD24" class="highcharts-point"></rect></g><g data-z-index="0.1" class="highcharts-markers highcharts-series-1 highcharts-column-series " transform="translate(44,105) scale(1 1)" clip-path="none"></g><g data-z-index="0.1" class="highcharts-series highcharts-series-2 highcharts-column-series " transform="translate(44,105) scale(1 1)" clip-path="url(#highcharts-hmzamgo-7)"><rect x="5" y="0" width="37" height="2" fill="#C8C8C8" class="highcharts-point"></rect><rect x="50" y="0" width="37" height="2" fill="#C8C8C8" class="highcharts-point"></rect><rect x="96" y="1" width="37" height="0" fill="#C8C8C8" class="highcharts-point"></rect><rect x="142" y="0" width="37" height="2" fill="#C8C8C8" class="highcharts-point"></rect><rect x="187" y="0" width="37" height="2" fill="#C8C8C8" class="highcharts-point"></rect><rect x="233" y="3" width="37" height="0" fill="#C8C8C8" class="highcharts-point"></rect></g><g data-z-index="0.1" class="highcharts-markers highcharts-series-2 highcharts-column-series " transform="translate(44,105) scale(1 1)" clip-path="none"></g><g data-z-index="0.1" class="highcharts-series highcharts-series-3 highcharts-column-series " transform="translate(44,105) scale(1 1)" clip-path="url(#highcharts-hmzamgo-7)"><rect x="5" y="1" width="37" height="0" fill="#6F6F6F" class="highcharts-point"></rect><rect x="50" y="1" width="37" height="0" fill="#6F6F6F" class="highcharts-point"></rect><rect x="96" y="1" width="37" height="0" fill="#6F6F6F" class="highcharts-point"></rect><rect x="142" y="1" width="37" height="0" fill="#6F6F6F" class="highcharts-point"></rect><rect x="187" y="1" width="37" height="0" fill="#6F6F6F" class="highcharts-point"></rect><rect x="233" y="0" width="37" height="3" fill="#6F6F6F" class="highcharts-point"></rect></g><g data-z-index="0.1" class="highcharts-markers highcharts-series-3 highcharts-column-series " transform="translate(44,105) scale(1 1)" clip-path="none"></g></g><text x="160" text-anchor="middle" class="highcharts-title" data-z-index="4" style="color:#333333;font-size:18px;fill:#333333;" y="16"><tspan>Gedanken über die Arbeitsstelle</tspan></text><text x="160" text-anchor="middle" class="highcharts-subtitle" data-z-index="4" style="color:#666666;fill:#666666;" y="35"><tspan>«Machen Sie sich manchmal Gedanken über Ihre</tspan><tspan dy="13" x="160">Arbeitsstelle?», Basel-Stadt</tspan></text><g class="highcharts-legend" data-z-index="7" transform="translate(41,64)"><rect fill="none" class="highcharts-legend-box" rx="0" ry="0" x="0" y="0" width="198" height="29" visibility="visible"></rect><g data-z-index="1"><g><g class="highcharts-legend-item highcharts-column-series highcharts-color-undefined highcharts-series-0" data-z-index="1" transform="translate(0,-5)"><text x="21" style="color:#333333;font-size:10px;font-weight:normal;cursor:pointer;font-family:Arial;whitespace:nowrap;fill:#333333;" text-anchor="start" data-z-index="2" y="13"><tspan>Ja</tspan></text><rect x="3" y="4" width="10" height="10" fill="#71A3B5" class="highcharts-point" data-z-index="3"></rect></g><g class="highcharts-legend-item highcharts-column-series highcharts-color-undefined highcharts-series-1" data-z-index="1" transform="translate(109,-5)"><text x="21" y="13" style="color:#333333;font-size:10px;font-weight:normal;cursor:pointer;font-family:Arial;whitespace:nowrap;fill:#333333;" text-anchor="start" data-z-index="2"><tspan>Nein</tspan></text><rect x="3" y="4" width="10" height="10" fill="#FABD24" class="highcharts-point" data-z-index="3"></rect></g><g class="highcharts-legend-item highcharts-column-series highcharts-color-undefined highcharts-series-2" data-z-index="1" transform="translate(0,12)"><text x="21" y="13" style="color:#333333;font-size:10px;font-weight:normal;cursor:pointer;font-family:Arial;whitespace:nowrap;fill:#333333;" text-anchor="start" data-z-index="2"><tspan>Weiss nicht</tspan></text><rect x="3" y="4" width="10" height="10" fill="#C8C8C8" class="highcharts-point" data-z-index="3"></rect></g><g class="highcharts-legend-item highcharts-column-series highcharts-color-undefined highcharts-series-3" data-z-index="1" transform="translate(109,12)"><text x="21" y="13" style="color:#333333;font-size:10px;font-weight:normal;cursor:pointer;font-family:Arial;whitespace:nowrap;fill:#333333;" text-anchor="start" data-z-index="2"><tspan>Keine Angabe</tspan></text><rect x="3" y="4" width="10" height="10" fill="#6F6F6F" class="highcharts-point" data-z-index="3"></rect></g></g></g></g><g class="highcharts-axis-labels highcharts-xaxis-labels " data-z-index="7"><text x="66.83333333333367" style="color:#000000;cursor:default;font-size:10px;white-space:nowrap;fill:#000000;" text-anchor="middle" transform="translate(0,0)" y="190" opacity="1"><tspan>2003</tspan><tspan x="66.83333333333367" dy="13">(N=855)</tspan></text><text x="112.49999999999666" style="color:#000000;cursor:default;font-size:10px;white-space:nowrap;fill:#000000;" text-anchor="middle" transform="translate(0,0)" y="190" opacity="1"><tspan>2005</tspan><tspan x="112.49999999999666" dy="13">(N=882)</tspan></text><text x="158.16666666666666" style="color:#000000;cursor:default;font-size:10px;white-space:nowrap;fill:#000000;" text-anchor="middle" transform="translate(0,0)" y="190" opacity="1"><tspan>2007</tspan><tspan x="158.16666666666666" dy="13">(N=869)</tspan></text><text x="203.83333333333667" style="color:#000000;cursor:default;font-size:10px;white-space:nowrap;fill:#000000;" text-anchor="middle" transform="translate(0,0)" y="190" opacity="1"><tspan>2011</tspan><tspan x="203.83333333333667" dy="13">(N=791)</tspan></text><text x="249.49999999999667" style="color:#000000;cursor:default;font-size:10px;white-space:nowrap;fill:#000000;" text-anchor="middle" transform="translate(0,0)" y="190" opacity="1"><tspan>2015</tspan><tspan x="249.49999999999667" dy="13">(N=690)</tspan></text><text x="295.1666666666667" style="color:#000000;cursor:default;font-size:10px;white-space:nowrap;fill:#000000;" text-anchor="middle" transform="translate(0,0)" y="190" opacity="1"><tspan>2019</tspan><tspan x="295.1666666666667" dy="13">(N=1237)</tspan></text></g><g class="highcharts-axis-labels highcharts-yaxis-labels " data-z-index="7"><text x="29" style="color:#000000;cursor:default;font-size:10px;fill:#000000;" text-anchor="end" transform="translate(0,0)" y="175" opacity="1">0%</text><text x="29" style="color:#000000;cursor:default;font-size:10px;fill:#000000;" text-anchor="end" transform="translate(0,0)" y="161" opacity="1">20%</text><text x="29" style="color:#000000;cursor:default;font-size:10px;fill:#000000;" text-anchor="end" transform="translate(0,0)" y="148" opacity="1">40%</text><text x="29" style="color:#000000;cursor:default;font-size:10px;fill:#000000;" text-anchor="end" transform="translate(0,0)" y="135" opacity="1">60%</text><text x="29" style="color:#000000;cursor:default;font-size:10px;fill:#000000;" text-anchor="end" transform="translate(0,0)" y="122" opacity="1">80%</text><text x="29" style="color:#000000;cursor:default;font-size:10px;fill:#000000;" text-anchor="end" transform="translate(0,0)" y="108" opacity="1">100%</text></g><text x="310" class="highcharts-credits" text-anchor="end" data-z-index="8" style="cursor:pointer;color:#999999;font-size:9px;fill:#999999;" y="193"><tspan>Quelle: Statistisches Amt Basel-Stadt, kantonale Bevölkerungsbefragung.</tspan></text></svg>