<?xml version="1.0" standalone="no"?><!DOCTYPE svg PUBLIC "-//W3C//DTD SVG 1.1//EN" "http://www.w3.org/Graphics/SVG/1.1/DTD/svg11.dtd"><svg xmlns:xlink="http://www.w3.org/1999/xlink" version="1.1" class="highcharts-root" style="font-family:Inter,Helvetica Neue,Helvetica,Arial,sans-serif;font-size:12px;" xmlns="http://www.w3.org/2000/svg" width="600" height="428"><desc>Created with Highcharts 8.2.2</desc><defs><clipPath id="highcharts-6kgra2u-37-"><rect x="0" y="0" width="547" height="252" fill="none"></rect></clipPath><clipPath id="highcharts-6kgra2u-48-"><rect x="0" y="0" width="547" height="252" fill="none"></rect></clipPath><clipPath id="highcharts-6kgra2u-69-"><rect x="43" y="99" width="547" height="252" fill="none"></rect></clipPath></defs><rect fill="#ffffff" class="highcharts-background" x="0" y="0" width="600" height="428" rx="0" ry="0"></rect><rect fill="none" class="highcharts-plot-background" x="43" y="99" width="547" height="252"></rect><g class="highcharts-pane-group" data-z-index="0"></g><g class="highcharts-grid highcharts-xaxis-grid" data-z-index="1"><path fill="none" data-z-index="1" class="highcharts-grid-line" d="M 47.5 99 L 47.5 351" opacity="1"></path><path fill="none" data-z-index="1" class="highcharts-grid-line" d="M 107.5 99 L 107.5 351" opacity="1"></path><path fill="none" data-z-index="1" class="highcharts-grid-line" d="M 167.5 99 L 167.5 351" opacity="1"></path><path fill="none" data-z-index="1" class="highcharts-grid-line" d="M 226.5 99 L 226.5 351" opacity="1"></path><path fill="none" data-z-index="1" class="highcharts-grid-line" d="M 286.5 99 L 286.5 351" opacity="1"></path><path fill="none" data-z-index="1" class="highcharts-grid-line" d="M 345.5 99 L 345.5 351" opacity="1"></path><path fill="none" data-z-index="1" class="highcharts-grid-line" d="M 405.5 99 L 405.5 351" opacity="1"></path><path fill="none" data-z-index="1" class="highcharts-grid-line" d="M 464.5 99 L 464.5 351" opacity="1"></path><path fill="none" data-z-index="1" class="highcharts-grid-line" d="M 524.5 99 L 524.5 351" opacity="1"></path><path fill="none" data-z-index="1" class="highcharts-grid-line" d="M 584.5 99 L 584.5 351" opacity="1"></path></g><g class="highcharts-grid highcharts-yaxis-grid" data-z-index="1"><path fill="none" stroke="#B9CFD7" stroke-width="0.5" data-z-index="1" class="highcharts-grid-line" d="M 43 351.25 L 590 351.25" opacity="1"></path><path fill="none" stroke="#B9CFD7" stroke-width="0.5" data-z-index="1" class="highcharts-grid-line" d="M 43 301.25 L 590 301.25" opacity="1"></path><path fill="none" stroke="#B9CFD7" stroke-width="0.5" data-z-index="1" class="highcharts-grid-line" d="M 43 250.25 L 590 250.25" opacity="1"></path><path fill="none" stroke="#B9CFD7" stroke-width="0.5" data-z-index="1" class="highcharts-grid-line" d="M 43 200.25 L 590 200.25" opacity="1"></path><path fill="none" stroke="#B9CFD7" stroke-width="0.5" data-z-index="1" class="highcharts-grid-line" d="M 43 149.25 L 590 149.25" opacity="1"></path><path fill="none" stroke="#B9CFD7" stroke-width="0.5" data-z-index="1" class="highcharts-grid-line" d="M 43 98.75 L 590 98.75" opacity="1"></path></g><rect fill="none" class="highcharts-plot-border" data-z-index="1" x="43" y="99" width="547" height="252"></rect><g class="highcharts-axis highcharts-xaxis" data-z-index="2"><path fill="none" class="highcharts-axis-line" stroke="#B9CFD7" stroke-width="0.5" data-z-index="7" d="M 43 351.25 L 590 351.25"></path></g><g class="highcharts-axis highcharts-yaxis" data-z-index="2"><path fill="none" class="highcharts-axis-line" data-z-index="7" d="M 43 99 L 43 351"></path></g><g class="highcharts-series-group" data-z-index="3"><g class="highcharts-series highcharts-series-0 highcharts-line-series" data-z-index="0.1" opacity="1" transform="translate(43,99) scale(1 1)" clip-path="url(#highcharts-6kgra2u-48-)"><path fill="none" d="M 5.3627450980344 151.2 L 64.948801742916 134.67793391924744 L 124.5348583878 118.80727546176735 L 184.12091503268 110.43767448418322 L 243.70697167756 104.47630775016123 L 303.29302832244 92.31669878271131 L 362.87908496732 78.87401419373276 L 422.4651416122 95.17894440004457 L 482.05119825708 82.28896930958751 L 541.63725490197 36.76939418151727" class="highcharts-graph" data-z-index="1" stroke="rgb(71,71,71)" stroke-width="2" stroke-linejoin="round" stroke-linecap="round"></path></g><g class="highcharts-markers highcharts-series-0 highcharts-line-series" data-z-index="0.1" opacity="1" transform="translate(43,99) scale(1 1)" clip-path="none"></g><g class="highcharts-series highcharts-series-1 highcharts-line-series" data-z-index="0.1" opacity="1" transform="translate(43,99) scale(1 1)" clip-path="url(#highcharts-6kgra2u-48-)"><path fill="none" d="M 5.3627450980344 151.2 L 64.948801742916 142.75575510026044 L 124.5348583878 131.53815525793323 L 184.12091503268 132.75236040693488 L 243.70697167756 137.5125965023609 L 303.29302832244 137.0986629288443 L 362.87908496732 133.51123862503545 L 422.4651416122 130.5033213241548 L 482.05119825708 125.12218486841651 L 541.63725490197 90.33796690722727" class="highcharts-graph" data-z-index="1" stroke="rgb(255,128,40)" stroke-width="2" stroke-linejoin="round" stroke-linecap="round"></path></g><g class="highcharts-markers highcharts-series-1 highcharts-line-series" data-z-index="0.1" opacity="1" transform="translate(43,99) scale(1 1)" clip-path="none"></g><g class="highcharts-series highcharts-series-2 highcharts-line-series" data-z-index="0.1" opacity="1" transform="translate(43,99) scale(1 1)" clip-path="url(#highcharts-6kgra2u-48-)"><path fill="none" d="M 5.3627450980344 151.2 L 64.948801742916 145.7151928986097 L 124.5348583878 132.80976442472743 L 184.12091503268 137.86439057700136 L 243.70697167756 144.80105838171136 L 303.29302832244 154.6414475930353 L 362.87908496732 155.7706725844995 L 422.4651416122 166.47142369409238 L 482.05119825708 174.96749743939876 L 541.63725490197 160.34134516899903" class="highcharts-graph" data-z-index="1" stroke="rgb(250,189,36)" stroke-width="2" stroke-linejoin="round" stroke-linecap="round"></path></g><g class="highcharts-markers highcharts-series-2 highcharts-line-series" data-z-index="0.1" opacity="1" transform="translate(43,99) scale(1 1)" clip-path="none"></g></g><text x="10" text-anchor="start" class="highcharts-caption" data-z-index="4" style="color:#666666;fill:#666666;" y="385"></text><g class="highcharts-legend" data-z-index="7" transform="translate(40,56)"><rect fill="none" class="highcharts-legend-box" rx="0" ry="0" x="0" y="0" width="304" height="31" visibility="visible"></rect><g data-z-index="1"><g><g class="highcharts-legend-item highcharts-line-series highcharts-color-undefined highcharts-series-0" data-z-index="1" transform="translate(8,3)"><path fill="none" d="M 0 11 L 16 11" class="highcharts-graph" stroke="rgb(71,71,71)" stroke-width="2"></path><text x="21" style="color:#333333;cursor:pointer;font-size:12px;font-weight:normal;fill:#333333;" text-anchor="start" data-z-index="2" y="15"><tspan>Basel-Stadt</tspan></text></g><g class="highcharts-legend-item highcharts-line-series highcharts-color-undefined highcharts-series-1" data-z-index="1" transform="translate(113,3)"><path fill="none" d="M 0 11 L 16 11" class="highcharts-graph" stroke="rgb(255,128,40)" stroke-width="2"></path><text x="21" y="15" style="color:#333333;cursor:pointer;font-size:12px;font-weight:normal;fill:#333333;" text-anchor="start" data-z-index="2"><tspan>Basel-Landschaft</tspan></text></g><g class="highcharts-legend-item highcharts-line-series highcharts-color-undefined highcharts-series-2" data-z-index="1" transform="translate(251,3)"><path fill="none" d="M 0 11 L 16 11" class="highcharts-graph" stroke="rgb(250,189,36)" stroke-width="2"></path><text x="21" y="15" style="color:#333333;cursor:pointer;font-size:12px;font-weight:normal;fill:#333333;" text-anchor="start" data-z-index="2"><tspan>Jura</tspan></text></g></g></g></g><g class="highcharts-axis-labels highcharts-xaxis-labels" data-z-index="7"><text x="48.362745098034" style="color:#000000;cursor:default;font-size:11px;fill:#000000;" text-anchor="middle" transform="translate(0,0)" y="370" opacity="1">2014</text><text x="107.94880174292" style="color:#000000;cursor:default;font-size:11px;fill:#000000;" text-anchor="middle" transform="translate(0,0)" y="370" opacity="1">2015</text><text x="167.5348583878" style="color:#000000;cursor:default;font-size:11px;fill:#000000;" text-anchor="middle" transform="translate(0,0)" y="370" opacity="1">2016</text><text x="227.12091503268" style="color:#000000;cursor:default;font-size:11px;fill:#000000;" text-anchor="middle" transform="translate(0,0)" y="370" opacity="1">2017</text><text x="286.70697167756" style="color:#000000;cursor:default;font-size:11px;fill:#000000;" text-anchor="middle" transform="translate(0,0)" y="370" opacity="1">2018</text><text x="346.29302832244" style="color:#000000;cursor:default;font-size:11px;fill:#000000;" text-anchor="middle" transform="translate(0,0)" y="370" opacity="1">2019</text><text x="405.87908496732" style="color:#000000;cursor:default;font-size:11px;fill:#000000;" text-anchor="middle" transform="translate(0,0)" y="370" opacity="1">2020</text><text x="465.4651416122" style="color:#000000;cursor:default;font-size:11px;fill:#000000;" text-anchor="middle" transform="translate(0,0)" y="370" opacity="1">2021</text><text x="525.05119825708" style="color:#000000;cursor:default;font-size:11px;fill:#000000;" text-anchor="middle" transform="translate(0,0)" y="370" opacity="1">2022</text><text x="578" style="color:#000000;cursor:default;font-size:11px;fill:#000000;" text-anchor="middle" transform="translate(0,0)" y="370" opacity="1">2023</text></g><g class="highcharts-axis-labels highcharts-yaxis-labels" data-z-index="7"><text x="28" style="color:#000000;cursor:default;font-size:11px;fill:#000000;" text-anchor="end" transform="translate(0,0)" y="355" opacity="1">96</text><text x="28" style="color:#000000;cursor:default;font-size:11px;fill:#000000;" text-anchor="end" transform="translate(0,0)" y="305" opacity="1">98</text><text x="28" style="color:#000000;cursor:default;font-size:11px;fill:#000000;" text-anchor="end" transform="translate(0,0)" y="254" opacity="1">100</text><text x="28" style="color:#000000;cursor:default;font-size:11px;fill:#000000;" text-anchor="end" transform="translate(0,0)" y="204" opacity="1">102</text><text x="28" style="color:#000000;cursor:default;font-size:11px;fill:#000000;" text-anchor="end" transform="translate(0,0)" y="153" opacity="1">104</text><text x="28" style="color:#000000;cursor:default;font-size:11px;fill:#000000;" text-anchor="end" transform="translate(0,0)" y="103" opacity="1">106</text></g></svg>