<?xml version="1.0" standalone="no"?><!DOCTYPE svg PUBLIC "-//W3C//DTD SVG 1.1//EN" "http://www.w3.org/Graphics/SVG/1.1/DTD/svg11.dtd"><svg xmlns:xlink="http://www.w3.org/1999/xlink" version="1.1" class="highcharts-root" style="font-family:Arial;font-size:12px;" xmlns="http://www.w3.org/2000/svg" viewBox="0 0 485 415"><desc>Created with Highstock 6.1.1</desc><defs><clipPath id="highcharts-9twwur2-6"><rect x="0" y="0" width="257" height="371" fill="none"></rect></clipPath><clipPath id="highcharts-9twwur2-7"><rect x="0" y="0" width="257" height="371" fill="none"></rect></clipPath></defs><rect fill="#fbfbfb" class="highcharts-background" x="0" y="0" width="485" height="428" rx="0" ry="0"></rect><rect fill="none" class="highcharts-plot-background" x="104" y="109" width="371" height="257"></rect><g class="highcharts-pane-group" data-z-index="0"></g><g class="highcharts-grid highcharts-xaxis-grid " data-z-index="1"><path fill="none" data-z-index="1" class="highcharts-grid-line" d="M 104 173.5 L 475 173.5" opacity="1"></path><path fill="none" data-z-index="1" class="highcharts-grid-line" d="M 104 238.5 L 475 238.5" opacity="1"></path><path fill="none" data-z-index="1" class="highcharts-grid-line" d="M 104 302.5 L 475 302.5" opacity="1"></path><path fill="none" data-z-index="1" class="highcharts-grid-line" d="M 104 366.5 L 475 366.5" opacity="1"></path><path fill="none" data-z-index="1" class="highcharts-grid-line" d="M 104 109.5 L 475 109.5" opacity="1"></path></g><g class="highcharts-grid highcharts-yaxis-grid " data-z-index="1"><path fill="none" stroke="#B9CFD7" stroke-width="0.5" data-z-index="1" class="highcharts-grid-line" d="M 103.75 109 L 103.75 366" opacity="1"></path><path fill="none" stroke="#B9CFD7" stroke-width="0.5" data-z-index="1" class="highcharts-grid-line" d="M 165.75 109 L 165.75 366" opacity="1"></path><path fill="none" stroke="#B9CFD7" stroke-width="0.5" data-z-index="1" class="highcharts-grid-line" d="M 227.75 109 L 227.75 366" opacity="1"></path><path fill="none" stroke="#B9CFD7" stroke-width="0.5" data-z-index="1" class="highcharts-grid-line" d="M 289.75 109 L 289.75 366" opacity="1"></path><path fill="none" stroke="#B9CFD7" stroke-width="0.5" data-z-index="1" class="highcharts-grid-line" d="M 350.75 109 L 350.75 366" opacity="1"></path><path fill="none" stroke="#B9CFD7" stroke-width="0.5" data-z-index="1" class="highcharts-grid-line" d="M 412.75 109 L 412.75 366" opacity="1"></path><path fill="none" stroke="#B9CFD7" stroke-width="0.5" data-z-index="1" class="highcharts-grid-line" d="M 475.25 109 L 475.25 366" opacity="1"></path></g><rect fill="none" class="highcharts-plot-border" data-z-index="1" x="104" y="109" width="371" height="257"></rect><g class="highcharts-axis highcharts-xaxis " data-z-index="2"><path fill="none" class="highcharts-axis-line" stroke="#B9CFD7" stroke-width="0.5" data-z-index="7" d="M 103.75 109 L 103.75 366"></path></g><g class="highcharts-axis highcharts-yaxis " data-z-index="2"><path fill="none" class="highcharts-axis-line" data-z-index="7" d="M 104 366 L 475 366"></path></g><g class="highcharts-series-group" data-z-index="3"><g data-z-index="0.1" class="highcharts-series highcharts-series-0 highcharts-column-series " transform="translate(475,366) rotate(90) scale(-1,1) scale(1 1)" clip-path="url(#highcharts-9twwur2-7)"><rect x="236" y="332" width="8" height="40" fill="#474747" class="highcharts-point"></rect><rect x="172" y="70" width="8" height="302" fill="#474747" class="highcharts-point"></rect><rect x="108" y="250" width="8" height="122" fill="#474747" class="highcharts-point"></rect><rect x="44" y="233" width="7" height="139" fill="#474747" class="highcharts-point"></rect></g><g data-z-index="0.1" class="highcharts-markers highcharts-series-0 highcharts-column-series " transform="translate(475,366) rotate(90) scale(-1,1) scale(1 1)" clip-path="none"></g><g data-z-index="0.1" class="highcharts-series highcharts-series-1 highcharts-column-series " transform="translate(475,366) rotate(90) scale(-1,1) scale(1 1)" clip-path="url(#highcharts-9twwur2-7)"><rect x="229" y="331" width="7" height="41" fill="#FF8028" class="highcharts-point"></rect><rect x="164" y="219" width="8" height="153" fill="#FF8028" class="highcharts-point"></rect><rect x="100" y="287" width="8" height="85" fill="#FF8028" class="highcharts-point"></rect><rect x="36" y="278" width="8" height="94" fill="#FF8028" class="highcharts-point"></rect></g><g data-z-index="0.1" class="highcharts-markers highcharts-series-1 highcharts-column-series " transform="translate(475,366) rotate(90) scale(-1,1) scale(1 1)" clip-path="none"></g><g data-z-index="0.1" class="highcharts-series highcharts-series-2 highcharts-column-series " transform="translate(475,366) rotate(90) scale(-1,1) scale(1 1)" clip-path="url(#highcharts-9twwur2-7)"><rect x="221" y="337" width="8" height="35" fill="#FABD24" class="highcharts-point"></rect><rect x="157" y="214" width="7" height="158" fill="#FABD24" class="highcharts-point"></rect><rect x="93" y="299" width="7" height="73" fill="#FABD24" class="highcharts-point"></rect><rect x="28" y="289" width="8" height="83" fill="#FABD24" class="highcharts-point"></rect></g><g data-z-index="0.1" class="highcharts-markers highcharts-series-2 highcharts-column-series " transform="translate(475,366) rotate(90) scale(-1,1) scale(1 1)" clip-path="none"></g><g data-z-index="0.1" class="highcharts-series highcharts-series-3 highcharts-column-series " transform="translate(475,366) rotate(90) scale(-1,1) scale(1 1)" clip-path="url(#highcharts-9twwur2-7)"><rect x="213" y="334" width="8" height="38" fill="#B375AB" class="highcharts-point"></rect><rect x="149" y="179" width="8" height="193" fill="#B375AB" class="highcharts-point"></rect><rect x="85" y="272" width="8" height="100" fill="#B375AB" class="highcharts-point"></rect><rect x="21" y="262" width="7" height="110" fill="#B375AB" class="highcharts-point"></rect></g><g data-z-index="0.1" class="highcharts-markers highcharts-series-3 highcharts-column-series " transform="translate(475,366) rotate(90) scale(-1,1) scale(1 1)" clip-path="none"></g><g data-z-index="0.1" class="highcharts-series highcharts-series-4 highcharts-column-series " transform="translate(475,366) rotate(90) scale(-1,1) scale(1 1)" clip-path="url(#highcharts-9twwur2-7)"><rect x="206" y="335" width="7" height="37" fill="#990300" class="highcharts-point"></rect><rect x="141" y="232" width="8" height="140" fill="#990300" class="highcharts-point"></rect><rect x="77" y="280" width="8" height="92" fill="#990300" class="highcharts-point"></rect><rect x="13" y="278" width="8" height="94" fill="#990300" class="highcharts-point"></rect></g><g data-z-index="0.1" class="highcharts-markers highcharts-series-4 highcharts-column-series " transform="translate(475,366) rotate(90) scale(-1,1) scale(1 1)" clip-path="none"></g></g><text x="10" text-anchor="start" class="highcharts-title" data-z-index="4" style="color:#000000;font-size:14px;font-weight:bold;fill:#000000;" y="21"><tspan>Durchschnittliche Zahl der Beschäftigten pro Arbeitsstätte</tspan></text><text x="10" text-anchor="start" class="highcharts-subtitle" data-z-index="4" style="color:#000000;font-size:12px;font-weight:normal;font-family:Arial;fill:#000000;" y="40"><tspan>2017</tspan></text><g class="highcharts-legend" data-z-index="7" transform="translate(96,56)"><rect fill="none" class="highcharts-legend-box" rx="0" ry="0" x="0" y="0" width="371" height="41" visibility="visible"></rect><g data-z-index="1"><g><g class="highcharts-legend-item highcharts-column-series highcharts-color-undefined highcharts-series-0" data-z-index="1" transform="translate(8,3)"><text x="21" style="color:#333333;font-size:12px;font-weight:normal;cursor:pointer;fill:#333333;" text-anchor="start" data-z-index="2" y="15"><tspan>Basel-Stadt</tspan></text><rect x="2" y="4" width="12" height="12" fill="#474747" class="highcharts-point" data-z-index="3"></rect></g><g class="highcharts-legend-item highcharts-column-series highcharts-color-undefined highcharts-series-1" data-z-index="1" transform="translate(128,3)"><text x="21" y="15" style="color:#333333;font-size:12px;font-weight:normal;cursor:pointer;fill:#333333;" text-anchor="start" data-z-index="2"><tspan>Basel-Landsc…</tspan><title>Basel-Landschaft</title></text><rect x="2" y="4" width="12" height="12" fill="#FF8028" class="highcharts-point" data-z-index="3"></rect></g><g class="highcharts-legend-item highcharts-column-series highcharts-color-undefined highcharts-series-2" data-z-index="1" transform="translate(248,3)"><text x="21" y="15" style="color:#333333;font-size:12px;font-weight:normal;cursor:pointer;fill:#333333;" text-anchor="start" data-z-index="2"><tspan>Jura</tspan></text><rect x="2" y="4" width="12" height="12" fill="#FABD24" class="highcharts-point" data-z-index="3"></rect></g><g class="highcharts-legend-item highcharts-column-series highcharts-color-undefined highcharts-series-3" data-z-index="1" transform="translate(8,18)"><text x="21" y="15" style="color:#333333;font-size:12px;font-weight:normal;cursor:pointer;fill:#333333;" text-anchor="start" data-z-index="2"><tspan>BS/BL/JU</tspan></text><rect x="2" y="4" width="12" height="12" fill="#B375AB" class="highcharts-point" data-z-index="3"></rect></g><g class="highcharts-legend-item highcharts-column-series highcharts-color-undefined highcharts-series-4" data-z-index="1" transform="translate(128,18)"><text x="21" y="15" style="color:#333333;font-size:12px;font-weight:normal;cursor:pointer;fill:#333333;" text-anchor="start" data-z-index="2"><tspan>Schweiz</tspan></text><rect x="2" y="4" width="12" height="12" fill="#990300" class="highcharts-point" data-z-index="3"></rect></g></g></g></g><g class="highcharts-axis-labels highcharts-xaxis-labels " data-z-index="7"><text x="89" style="color:#000000;cursor:default;font-size:11px;fill:#000000;" text-anchor="end" transform="translate(0,0)" y="145" opacity="1">Landwirtschaft</text><text x="89" style="color:#000000;cursor:default;font-size:11px;fill:#000000;" text-anchor="end" transform="translate(0,0)" y="209" opacity="1">Industrie</text><text x="89" style="color:#000000;cursor:default;font-size:11px;fill:#000000;" text-anchor="end" transform="translate(0,0)" y="274" opacity="1">Dienstleistungen</text><text x="89" style="color:#000000;cursor:default;font-size:11px;fill:#000000;" text-anchor="end" transform="translate(0,0)" y="338" opacity="1">Total</text></g><g class="highcharts-axis-labels highcharts-yaxis-labels " data-z-index="7"><text x="104" style="color:#000000;cursor:default;font-size:11px;fill:#000000;" text-anchor="middle" transform="translate(0,0)" y="385" opacity="1">0</text><text x="165.83333333333" style="color:#000000;cursor:default;font-size:11px;fill:#000000;" text-anchor="middle" transform="translate(0,0)" y="385" opacity="1">5</text><text x="227.66666666667" style="color:#000000;cursor:default;font-size:11px;fill:#000000;" text-anchor="middle" transform="translate(0,0)" y="385" opacity="1">10</text><text x="289.5" style="color:#000000;cursor:default;font-size:11px;fill:#000000;" text-anchor="middle" transform="translate(0,0)" y="385" opacity="1">15</text><text x="351.33333333333" style="color:#000000;cursor:default;font-size:11px;fill:#000000;" text-anchor="middle" transform="translate(0,0)" y="385" opacity="1">20</text><text x="413.16666666667" style="color:#000000;cursor:default;font-size:11px;fill:#000000;" text-anchor="middle" transform="translate(0,0)" y="385" opacity="1">25</text><text x="469" style="color:#000000;cursor:default;font-size:11px;fill:#000000;" text-anchor="middle" transform="translate(0,0)" y="385" opacity="1">30</text></g><text x="10" class="highcharts-credits" text-anchor="start" data-z-index="8" style="cursor:default;color:#000000;font-size:10px;fill:#000000;" y="403"><tspan>Quelle: Bundesamt für Statistik (BFS), Statistik der Unternehmensstruktur (STATENT).</tspan><tspan x="10" dy="13">Zuletzt geändert: 2020-1-3</tspan></text></svg>