<?xml version="1.0" standalone="no"?><!DOCTYPE svg PUBLIC "-//W3C//DTD SVG 1.1//EN" "http://www.w3.org/Graphics/SVG/1.1/DTD/svg11.dtd"><svg xmlns:xlink="http://www.w3.org/1999/xlink" version="1.1" class="highcharts-root" style="font-family:Inter,Helvetica Neue,Helvetica,Arial,sans-serif;font-size:12px;" xmlns="http://www.w3.org/2000/svg" width="600" height="428"><desc>Created with Highcharts 8.2.2</desc><defs><clipPath id="highcharts-hna2v7k-487-"><rect x="0" y="0" width="549" height="267" fill="none"></rect></clipPath><clipPath id="highcharts-hna2v7k-608-"><rect x="0" y="0" width="549" height="267" fill="none"></rect></clipPath><clipPath id="highcharts-hna2v7k-969-"><rect x="41" y="84" width="549" height="267" fill="none"></rect></clipPath></defs><rect fill="#ffffff" class="highcharts-background" x="0" y="0" width="600" height="428" rx="0" ry="0"></rect><rect fill="none" class="highcharts-plot-background" x="41" y="84" width="549" height="267"></rect><g class="highcharts-pane-group" data-z-index="0"></g><g class="highcharts-grid highcharts-xaxis-grid" data-z-index="1"><path fill="none" data-z-index="1" class="highcharts-grid-line" d="M 42.5 84 L 42.5 351" opacity="1"></path><path fill="none" data-z-index="1" class="highcharts-grid-line" d="M 97.5 84 L 97.5 351" opacity="1"></path><path fill="none" data-z-index="1" class="highcharts-grid-line" d="M 152.5 84 L 152.5 351" opacity="1"></path><path fill="none" data-z-index="1" class="highcharts-grid-line" d="M 207.5 84 L 207.5 351" opacity="1"></path><path fill="none" data-z-index="1" class="highcharts-grid-line" d="M 262.5 84 L 262.5 351" opacity="1"></path><path fill="none" data-z-index="1" class="highcharts-grid-line" d="M 317.5 84 L 317.5 351" opacity="1"></path><path fill="none" data-z-index="1" class="highcharts-grid-line" d="M 372.5 84 L 372.5 351" opacity="1"></path><path fill="none" data-z-index="1" class="highcharts-grid-line" d="M 427.5 84 L 427.5 351" opacity="1"></path><path fill="none" data-z-index="1" class="highcharts-grid-line" d="M 481.5 84 L 481.5 351" opacity="1"></path><path fill="none" data-z-index="1" class="highcharts-grid-line" d="M 536.5 84 L 536.5 351" opacity="1"></path></g><g class="highcharts-grid highcharts-yaxis-grid" data-z-index="1"><path fill="none" stroke="#B9CFD7" stroke-width="0.5" data-z-index="1" class="highcharts-grid-line" d="M 41 351.25 L 590 351.25" opacity="1"></path><path fill="none" stroke="#B9CFD7" stroke-width="0.5" data-z-index="1" class="highcharts-grid-line" d="M 41 284.25 L 590 284.25" opacity="1"></path><path fill="none" stroke="#B9CFD7" stroke-width="0.5" data-z-index="1" class="highcharts-grid-line" d="M 41 218.25 L 590 218.25" opacity="1"></path><path fill="none" stroke="#B9CFD7" stroke-width="0.5" data-z-index="1" class="highcharts-grid-line" d="M 41 151.25 L 590 151.25" opacity="1"></path><path fill="none" stroke="#B9CFD7" stroke-width="0.5" data-z-index="1" class="highcharts-grid-line" d="M 41 83.75 L 590 83.75" opacity="1"></path></g><rect fill="none" class="highcharts-plot-border" data-z-index="1" x="41" y="84" width="549" height="267"></rect><g class="highcharts-axis highcharts-xaxis" data-z-index="2"><path fill="none" class="highcharts-axis-line" stroke="#B9CFD7" stroke-width="0.5" data-z-index="7" d="M 41 351.25 L 590 351.25"></path></g><g class="highcharts-axis highcharts-yaxis" data-z-index="2"><path fill="none" class="highcharts-axis-line" data-z-index="7" d="M 41 84 L 41 351"></path></g><g class="highcharts-series-group" data-z-index="3"><g class="highcharts-series highcharts-series-0 highcharts-line-series" data-z-index="0.1" opacity="1" transform="translate(41,84) scale(1 1)" clip-path="url(#highcharts-hna2v7k-608-)"><path fill="none" d="M 2.2875 141.9105 L 6.8625 144.280125 L 11.4375 147.417375 L 16.0125 152.290125 L 20.5875 159.031875 L 25.1625 162.93675000000002 L 29.7375 162.369375 L 34.3125 162.40275 L 38.8875 160.13325 L 43.4625 157.6635 L 48.0375 151.32225 L 52.6125 143.44575 L 57.1875 137.238 L 61.7625 140.175 L 66.3375 141.276375 L 70.9125 145.04775 L 75.4875 148.51875 L 80.0625 150.321 L 84.6375 153.45825 L 89.2125 150.554625 L 93.7875 146.015625 L 98.3625 145.71525 L 102.9375 143.145375 L 107.5125 139.674375 L 112.0875 134.067375 L 116.6625 130.195875 L 121.2375 134.467875 L 125.8125 132.8325 L 130.3875 137.137875 L 134.9625 141.64350000000002 L 139.5375 145.78199999999998 L 144.1125 143.57925 L 148.6875 144.11325 L 153.2625 143.17875 L 157.8375 137.071125 L 162.4125 131.2305 L 166.9875 132.03150000000002 L 171.5625 135.46912500000002 L 176.1375 138.139125 L 180.7125 142.31099999999998 L 185.2875 149.11950000000002 L 189.8625 151.389 L 194.4375 153.558375 L 199.0125 149.95387499999998 L 203.5875 155.46075 L 208.1625 153.62512500000003 L 212.7375 152.59050000000002 L 217.3125 147.05025 L 221.8875 144.64724999999999 L 226.4625 149.086125 L 231.0375 150.354375 L 235.6125 155.7945 L 240.1875 159.699375 L 244.7625 163.20375 L 249.3375 163.671 L 253.9125 163.904625 L 258.4875 166.040625 L 263.0625 165.9405 L 267.6375 163.33724999999998 L 272.2125 156.094875 L 276.7875 152.023125 L 281.3625 157.830375 L 285.9375 160.03312499999998 L 290.5125 165.10612500000002 L 295.0875 169.74525 L 299.6625 173.316375 L 304.2375 174.384375 L 308.8125 174.41775 L 313.3875 177.58837499999998 L 317.9625 175.35225 L 322.5375 169.4115 L 327.1125 162.00225 L 331.6875 156.462 L 336.2625 158.230875 L 340.8375 146.38275 L 345.4125 135.669375 L 349.9875 131.06362499999997 L 354.5625 129.461625 L 359.1375 126.52462500000001 L 363.7125 130.129125 L 368.2875 133.066125 L 372.8625 133.16625000000002 L 377.4375 131.03025 L 382.0125 121.35150000000002 L 386.5875 117.980625 L 391.1625 119.28225 L 395.7375 120.717375 L 400.3125 126.991875 L 404.8875 133.199625 L 409.4625 137.004375 L 414.0375 140.875875 L 418.6125 144.447 L 423.1875 151.88962500000002 L 427.7625 156.16162500000002 L 432.3375 155.827875 L 436.9125 153.1245 L 441.4875 151.088625 L 446.0625 153.157875 L 450.6375 159.06525 L 455.2125 161.33474999999999 L 459.7875 164.47199999999998 L 464.3625 167.74275 L 468.9375 170.31262500000003 L 473.5125 170.045625 L 478.0875 173.08275 L 482.6625 172.94925 L 487.2375 170.67975 L 491.8125 169.044375 L 496.3875 164.972625 L 500.9625 164.3385 L 505.5375 167.242125 L 510.1125 167.10862500000002 L 514.6875 170.980125 L 519.2625 171.08024999999998 L 523.8375 168.24337500000001 L 528.4125 166.40775000000002 L 532.9875 168.043125 L 537.5625 163.33724999999998 L 542.1375 157.763625 L 546.7125 148.952625" class="highcharts-graph" data-z-index="1" stroke="#474747" stroke-width="2" stroke-linejoin="round" stroke-linecap="round"></path></g><g class="highcharts-markers highcharts-series-0 highcharts-line-series" data-z-index="0.1" opacity="1" transform="translate(41,84) scale(1 1)" clip-path="none"></g><g class="highcharts-series highcharts-series-1 highcharts-line-series" data-z-index="0.1" opacity="1" transform="translate(41,84) scale(1 1)" clip-path="url(#highcharts-hna2v7k-608-)"><path fill="none" d="M 2.2875 171.914625 L 6.8625 172.41525000000001 L 11.4375 173.316375 L 16.0125 174.48450000000003 L 20.5875 178.75650000000002 L 25.1625 180.258375 L 29.7375 180.992625 L 34.3125 182.794875 L 38.8875 182.527875 L 43.4625 182.69475 L 48.0375 180.12487499999997 L 52.6125 175.2855 L 57.1875 174.250875 L 61.7625 175.35225 L 66.3375 176.253375 L 70.9125 176.320125 L 75.4875 177.22125 L 80.0625 178.856625 L 84.6375 177.42149999999998 L 89.2125 179.524125 L 93.7875 177.988875 L 98.3625 176.119875 L 102.9375 170.54625 L 107.5125 163.637625 L 112.0875 162.90337499999998 L 116.6625 164.572125 L 121.2375 164.739 L 125.8125 167.8095 L 130.3875 168.81074999999998 L 134.9625 168.24337500000001 L 139.5375 168.94425 L 144.1125 167.20875 L 148.6875 168.41025 L 153.2625 170.27925 L 157.8375 166.441125 L 162.4125 162.13575 L 166.9875 163.2705 L 171.5625 163.33724999999998 L 176.1375 166.00725 L 180.7125 170.27925 L 185.2875 172.8825 L 189.8625 174.01725 L 194.4375 174.58462500000002 L 199.0125 174.15075000000002 L 203.5875 176.119875 L 208.1625 177.15449999999998 L 212.7375 172.915875 L 217.3125 169.177875 L 221.8875 167.642625 L 226.4625 169.27800000000002 L 231.0375 178.92337500000002 L 235.6125 188.40187500000002 L 240.1875 197.51325 L 244.7625 197.7135 L 249.3375 200.1165 L 253.9125 200.58375 L 258.4875 201.1845 L 263.0625 201.9855 L 267.6375 202.65300000000002 L 272.2125 200.04975000000002 L 276.7875 198.414375 L 281.3625 198.98175 L 285.9375 201.31799999999998 L 290.5125 203.05349999999999 L 295.0875 206.35762499999998 L 299.6625 208.05975 L 304.2375 208.827375 L 308.8125 208.293375 L 313.3875 211.13025 L 317.9625 209.9955 L 322.5375 207.993 L 327.1125 199.64925 L 331.6875 197.746875 L 336.2625 200.683875 L 340.8375 191.138625 L 345.4125 177.054375 L 349.9875 174.784875 L 354.5625 174.918375 L 359.1375 177.288 L 363.7125 176.754 L 368.2875 180.391875 L 372.8625 180.191625 L 377.4375 178.189125 L 382.0125 172.11487499999998 L 386.5875 168.57712500000002 L 391.1625 169.177875 L 395.7375 173.21625 L 400.3125 177.655125 L 404.8875 180.525375 L 409.4625 184.997625 L 414.0375 187.133625 L 418.6125 187.867875 L 423.1875 191.70600000000002 L 427.7625 195.210375 L 432.3375 195.677625 L 436.9125 192.473625 L 441.4875 193.007625 L 446.0625 195.3105 L 450.6375 198.54787499999998 L 455.2125 201.885375 L 459.7875 204.22162500000002 L 464.3625 205.690125 L 468.9375 207.192 L 473.5125 206.691375 L 478.0875 208.99425 L 482.6625 209.428125 L 487.2375 209.628375 L 491.8125 206.35762499999998 L 496.3875 203.821125 L 500.9625 204.522 L 505.5375 205.222875 L 510.1125 207.39225 L 514.6875 208.693875 L 519.2625 209.1945 L 523.8375 210.629625 L 528.4125 208.72725 L 532.9875 205.92374999999998 L 537.5625 206.491125 L 542.1375 204.288375 L 546.7125 198.648" class="highcharts-graph" data-z-index="1" stroke="#FF8028" stroke-width="2" stroke-linejoin="round" stroke-linecap="round"></path></g><g class="highcharts-markers highcharts-series-1 highcharts-line-series" data-z-index="0.1" opacity="1" transform="translate(41,84) scale(1 1)" clip-path="none"></g><g class="highcharts-series highcharts-series-2 highcharts-line-series" data-z-index="0.1" opacity="1" transform="translate(41,84) scale(1 1)" clip-path="url(#highcharts-hna2v7k-608-)"><path fill="none" d="M 2.2875 129.39487499999998 L 6.8625 134.134125 L 11.4375 138.139125 L 16.0125 148.5855 L 20.5875 155.02687500000002 L 25.1625 158.230875 L 29.7375 154.225875 L 34.3125 148.8525 L 38.8875 150.85500000000002 L 43.4625 146.583 L 48.0375 143.412375 L 52.6125 132.66562499999998 L 57.1875 126.12412499999999 L 61.7625 127.02525 L 66.3375 131.197125 L 70.9125 136.403625 L 75.4875 140.208375 L 80.0625 143.412375 L 84.6375 138.472875 L 89.2125 132.865875 L 93.7875 133.5 L 98.3625 132.03150000000002 L 102.9375 125.28975 L 107.5125 116.47875000000002 L 112.0875 106.46625 L 116.6625 107.4675 L 121.2375 110.67149999999998 L 125.8125 119.01524999999998 L 130.3875 122.853375 L 134.9625 123.65437500000002 L 139.5375 117.94725 L 144.1125 109.57012500000002 L 148.6875 113.00775000000002 L 153.2625 113.208 L 157.8375 112.74074999999999 L 162.4125 97.38825 L 166.9875 89.97899999999998 L 171.5625 91.347375 L 176.1375 103.562625 L 180.7125 109.43662499999999 L 185.2875 118.88175000000001 L 189.8625 122.08575000000002 L 194.4375 119.983125 L 199.0125 110.07075 L 203.5875 118.514625 L 208.1625 122.18587499999998 L 212.7375 123.55425 L 217.3125 111.27224999999999 L 221.8875 111.639375 L 226.4625 119.983125 L 231.0375 131.43075 L 235.6125 141.61012499999998 L 240.1875 146.38275 L 244.7625 151.5225 L 249.3375 148.8525 L 253.9125 146.74987499999997 L 258.4875 154.1925 L 263.0625 152.99099999999999 L 267.6375 151.355625 L 272.2125 143.44575 L 276.7875 142.1775 L 281.3625 147.217125 L 285.9375 157.19625 L 290.5125 160.80075 L 295.0875 164.104875 L 299.6625 164.104875 L 304.2375 160.6005 L 308.8125 154.82662499999998 L 313.3875 157.763625 L 317.9625 148.0515 L 322.5375 145.014375 L 327.1125 134.935125 L 331.6875 135.402375 L 336.2625 135.135375 L 340.8375 130.79662499999998 L 345.4125 121.251375 L 349.9875 119.41575 L 354.5625 112.30687500000002 L 359.1375 98.689875 L 363.7125 96.48712499999999 L 368.2875 98.78999999999999 L 372.8625 94.084125 L 377.4375 87.10875000000001 L 382.0125 80.400375 L 386.5875 75.59437499999999 L 391.1625 77.43 L 395.7375 87.84299999999999 L 400.3125 94.75162500000002 L 404.8875 101.25975 L 409.4625 108.435375 L 414.0375 107.26725000000002 L 418.6125 113.041125 L 423.1875 119.78287500000002 L 427.7625 119.849625 L 432.3375 118.21424999999999 L 436.9125 116.74575000000002 L 441.4875 126.12412499999999 L 446.0625 128.89425 L 450.6375 136.23675 L 455.2125 142.51125000000002 L 459.7875 143.145375 L 464.3625 140.5755 L 468.9375 140.8425 L 473.5125 146.082375 L 478.0875 151.7895 L 482.6625 153.525 L 487.2375 149.95387499999998 L 491.8125 144.814125 L 496.3875 145.71525 L 500.9625 145.081125 L 505.5375 151.98975000000002 L 510.1125 158.230875 L 514.6875 159.699375 L 519.2625 162.26925 L 523.8375 159.232125 L 528.4125 158.598 L 532.9875 156.495375 L 537.5625 152.42362500000002 L 542.1375 145.54837500000002 L 546.7125 138.806625" class="highcharts-graph" data-z-index="1" stroke="#FABD24" stroke-width="2" stroke-linejoin="round" stroke-linecap="round"></path></g><g class="highcharts-markers highcharts-series-2 highcharts-line-series" data-z-index="0.1" opacity="1" transform="translate(41,84) scale(1 1)" clip-path="none"></g><g class="highcharts-series highcharts-series-3 highcharts-line-series" data-z-index="0.1" opacity="1" transform="translate(41,84) scale(1 1)" clip-path="url(#highcharts-hna2v7k-608-)"><path fill="none" d="M 2.2875 153.157875 L 6.8625 156.12824999999998 L 11.4375 160.90087499999998 L 16.0125 165.17287499999998 L 20.5875 170.2125 L 25.1625 172.94925 L 29.7375 172.6155 L 34.3125 171.61425 L 38.8875 170.4795 L 43.4625 168.64387499999998 L 48.0375 165.573375 L 52.6125 157.53 L 57.1875 154.893375 L 61.7625 155.627625 L 66.3375 159.232125 L 70.9125 162.169125 L 75.4875 165.706875 L 80.0625 168.00975 L 84.6375 167.642625 L 89.2125 165.239625 L 93.7875 164.3385 L 98.3625 162.06900000000002 L 102.9375 156.962625 L 107.5125 149.18625 L 112.0875 145.44825 L 116.6625 147.117 L 121.2375 151.622625 L 125.8125 155.928 L 130.3875 159.46575 L 134.9625 163.671 L 139.5375 163.5375 L 144.1125 160.90087499999998 L 148.6875 161.034375 L 153.2625 159.632625 L 157.8375 156.16162500000002 L 162.4125 148.618875 L 166.9875 148.5855 L 171.5625 151.95637499999998 L 176.1375 157.363125 L 180.7125 161.6685 L 185.2875 166.374375 L 189.8625 170.81324999999998 L 194.4375 170.57962500000002 L 199.0125 169.4115 L 203.5875 171.147 L 208.1625 169.9455 L 212.7375 168.14325 L 217.3125 161.434875 L 221.8875 159.632625 L 226.4625 163.37062500000002 L 231.0375 173.116125 L 235.6125 180.75900000000001 L 240.1875 188.235 L 244.7625 190.270875 L 249.3375 190.638 L 253.9125 189.336375 L 258.4875 190.270875 L 263.0625 189.736875 L 267.6375 187.467375 L 272.2125 180.859125 L 276.7875 177.75525 L 281.3625 180.992625 L 285.9375 186.132375 L 290.5125 189.77025 L 295.0875 194.008875 L 299.6625 197.012625 L 304.2375 196.74562500000002 L 308.8125 195.34387500000003 L 313.3875 195.64425 L 317.9625 193.808625 L 322.5375 190.43775 L 327.1125 182.56125 L 331.6875 179.15699999999998 L 336.2625 181.459875 L 340.8375 168.54375 L 345.4125 155.627625 L 349.9875 153.758625 L 354.5625 157.89712500000002 L 359.1375 158.93175 L 363.7125 157.296375 L 368.2875 159.16537499999998 L 372.8625 158.73149999999998 L 377.4375 155.72775000000001 L 382.0125 148.285125 L 386.5875 143.77949999999998 L 391.1625 145.081125 L 395.7375 152.3235 L 400.3125 157.16287499999999 L 404.8875 163.20375 L 409.4625 171.313875 L 414.0375 173.88375 L 418.6125 175.2855 L 423.1875 179.657625 L 427.7625 182.260875 L 432.3375 182.594625 L 436.9125 178.623 L 441.4875 178.2225 L 446.0625 181.35975000000002 L 450.6375 187.50074999999998 L 455.2125 191.205375 L 459.7875 195.84449999999998 L 464.3625 199.8495 L 468.9375 200.58375 L 473.5125 200.6505 L 478.0875 202.01887499999998 L 482.6625 201.91875 L 487.2375 200.683875 L 491.8125 196.612125 L 496.3875 193.84199999999998 L 500.9625 195.51075 L 505.5375 199.64925 L 510.1125 201.284625 L 514.6875 203.05349999999999 L 519.2625 205.222875 L 523.8375 203.38725 L 528.4125 201.75187499999998 L 532.9875 201.051 L 537.5625 199.081875 L 542.1375 195.84449999999998 L 546.7125 189.43650000000002" class="highcharts-graph" data-z-index="1" stroke="#990300" stroke-width="2" stroke-linejoin="round" stroke-linecap="round"></path></g><g class="highcharts-markers highcharts-series-3 highcharts-line-series" data-z-index="0.1" opacity="1" transform="translate(41,84) scale(1 1)" clip-path="none"></g></g><text x="10" text-anchor="start" class="highcharts-caption" data-z-index="4" style="color:#666666;fill:#666666;" y="385"></text><g class="highcharts-legend" data-z-index="7" transform="translate(33,41)"><rect fill="none" class="highcharts-legend-box" rx="0" ry="0" x="0" y="0" width="224" height="31" visibility="visible"></rect><g data-z-index="1"><g><g class="highcharts-legend-item highcharts-line-series highcharts-color-undefined highcharts-series-0" data-z-index="1" transform="translate(8,3)"><path fill="none" d="M 0 11 L 16 11" class="highcharts-graph" stroke="#474747" stroke-width="2"></path><text x="21" style="color:#333333;cursor:pointer;font-size:12px;font-weight:normal;fill:#333333;" text-anchor="start" data-z-index="2" y="15"><tspan>BS</tspan></text></g><g class="highcharts-legend-item highcharts-line-series highcharts-color-undefined highcharts-series-1" data-z-index="1" transform="translate(65,3)"><path fill="none" d="M 0 11 L 16 11" class="highcharts-graph" stroke="#FF8028" stroke-width="2"></path><text x="21" y="15" style="color:#333333;cursor:pointer;font-size:12px;font-weight:normal;fill:#333333;" text-anchor="start" data-z-index="2"><tspan>BL</tspan></text></g><g class="highcharts-legend-item highcharts-line-series highcharts-color-undefined highcharts-series-2" data-z-index="1" transform="translate(121,3)"><path fill="none" d="M 0 11 L 16 11" class="highcharts-graph" stroke="#FABD24" stroke-width="2"></path><text x="21" y="15" style="color:#333333;cursor:pointer;font-size:12px;font-weight:normal;fill:#333333;" text-anchor="start" data-z-index="2"><tspan>JU</tspan></text></g><g class="highcharts-legend-item highcharts-line-series highcharts-color-undefined highcharts-series-3" data-z-index="1" transform="translate(177,3)"><path fill="none" d="M 0 11 L 16 11" class="highcharts-graph" stroke="#990300" stroke-width="2"></path><text x="21" y="15" style="color:#333333;cursor:pointer;font-size:12px;font-weight:normal;fill:#333333;" text-anchor="start" data-z-index="2"><tspan>CH</tspan></text></g></g></g></g><g class="highcharts-axis-labels highcharts-xaxis-labels" data-z-index="7"><text x="73.2875" style="color:#000000;cursor:default;font-size:11px;fill:#000000;" text-anchor="middle" transform="translate(0,0)" y="370" opacity="1">2014</text><text x="128.1875" style="color:#000000;cursor:default;font-size:11px;fill:#000000;" text-anchor="middle" transform="translate(0,0)" y="370" opacity="1">2015</text><text x="183.0875" style="color:#000000;cursor:default;font-size:11px;fill:#000000;" text-anchor="middle" transform="translate(0,0)" y="370" opacity="1">2016</text><text x="237.9875" style="color:#000000;cursor:default;font-size:11px;fill:#000000;" text-anchor="middle" transform="translate(0,0)" y="370" opacity="1">2017</text><text x="292.8875" style="color:#000000;cursor:default;font-size:11px;fill:#000000;" text-anchor="middle" transform="translate(0,0)" y="370" opacity="1">2018</text><text x="347.7875" style="color:#000000;cursor:default;font-size:11px;fill:#000000;" text-anchor="middle" transform="translate(0,0)" y="370" opacity="1">2019</text><text x="402.6875" style="color:#000000;cursor:default;font-size:11px;fill:#000000;" text-anchor="middle" transform="translate(0,0)" y="370" opacity="1">2020</text><text x="457.5875" style="color:#000000;cursor:default;font-size:11px;fill:#000000;" text-anchor="middle" transform="translate(0,0)" y="370" opacity="1">2021</text><text x="512.4875" style="color:#000000;cursor:default;font-size:11px;fill:#000000;" text-anchor="middle" transform="translate(0,0)" y="370" opacity="1">2022</text><text x="567.3875" style="color:#000000;cursor:default;font-size:11px;fill:#000000;" text-anchor="middle" transform="translate(0,0)" y="370" opacity="1">2023</text></g><g class="highcharts-axis-labels highcharts-yaxis-labels" data-z-index="7"><text x="26" style="color:#000000;cursor:default;font-size:11px;fill:#000000;" text-anchor="end" transform="translate(0,0)" y="355" opacity="1">0%</text><text x="26" style="color:#000000;cursor:default;font-size:11px;fill:#000000;" text-anchor="end" transform="translate(0,0)" y="288" opacity="1">2%</text><text x="26" style="color:#000000;cursor:default;font-size:11px;fill:#000000;" text-anchor="end" transform="translate(0,0)" y="222" opacity="1">4%</text><text x="26" style="color:#000000;cursor:default;font-size:11px;fill:#000000;" text-anchor="end" transform="translate(0,0)" y="155" opacity="1">6%</text><text x="26" style="color:#000000;cursor:default;font-size:11px;fill:#000000;" text-anchor="end" transform="translate(0,0)" y="88" opacity="1">8%</text></g></svg>