<?xml version="1.0" standalone="no"?><!DOCTYPE svg PUBLIC "-//W3C//DTD SVG 1.1//EN" "http://www.w3.org/Graphics/SVG/1.1/DTD/svg11.dtd"><svg xmlns:xlink="http://www.w3.org/1999/xlink" version="1.1" class="highcharts-root" style="font-family:Arial;font-size:12px;" xmlns="http://www.w3.org/2000/svg" viewBox="0 0 485 415"><desc>Created with Highcharts 8.1.2</desc><defs><clipPath id="highcharts-4tbx8yb-487-"><rect x="0" y="0" width="282" height="84" fill="none"></rect></clipPath><clipPath id="highcharts-4tbx8yb-608-"><rect x="0" y="0" width="282" height="84" fill="none"></rect></clipPath><clipPath id="highcharts-4tbx8yb-969-"><rect x="23" y="91" width="282" height="84" fill="none"></rect></clipPath></defs><rect fill="#fbfbfb" class="highcharts-background" x="0" y="0" width="320" height="221" rx="0" ry="0"></rect><rect fill="none" class="highcharts-plot-background" x="23" y="91" width="282" height="84"></rect><g class="highcharts-pane-group" data-z-index="0"></g><g class="highcharts-grid highcharts-xaxis-grid" data-z-index="1"><path fill="none" data-z-index="1" class="highcharts-grid-line" d="M 23.5 91 L 23.5 175" opacity="1"></path><path fill="none" data-z-index="1" class="highcharts-grid-line" d="M 51.5 91 L 51.5 175" opacity="1"></path><path fill="none" data-z-index="1" class="highcharts-grid-line" d="M 80.5 91 L 80.5 175" opacity="1"></path><path fill="none" data-z-index="1" class="highcharts-grid-line" d="M 108.5 91 L 108.5 175" opacity="1"></path><path fill="none" data-z-index="1" class="highcharts-grid-line" d="M 136.5 91 L 136.5 175" opacity="1"></path><path fill="none" data-z-index="1" class="highcharts-grid-line" d="M 164.5 91 L 164.5 175" opacity="1"></path><path fill="none" data-z-index="1" class="highcharts-grid-line" d="M 192.5 91 L 192.5 175" opacity="1"></path><path fill="none" data-z-index="1" class="highcharts-grid-line" d="M 221.5 91 L 221.5 175" opacity="1"></path><path fill="none" data-z-index="1" class="highcharts-grid-line" d="M 249.5 91 L 249.5 175" opacity="1"></path><path fill="none" data-z-index="1" class="highcharts-grid-line" d="M 277.5 91 L 277.5 175" opacity="1"></path></g><g class="highcharts-grid highcharts-yaxis-grid" data-z-index="1"><path fill="none" stroke="#B9CFD7" stroke-width="0.5" data-z-index="1" class="highcharts-grid-line" d="M 23 175.25 L 305 175.25" opacity="1"></path><path fill="none" stroke="#B9CFD7" stroke-width="0.5" data-z-index="1" class="highcharts-grid-line" d="M 23 154.25 L 305 154.25" opacity="1"></path><path fill="none" stroke="#B9CFD7" stroke-width="0.5" data-z-index="1" class="highcharts-grid-line" d="M 23 133.25 L 305 133.25" opacity="1"></path><path fill="none" stroke="#B9CFD7" stroke-width="0.5" data-z-index="1" class="highcharts-grid-line" d="M 23 112.25 L 305 112.25" opacity="1"></path><path fill="none" stroke="#B9CFD7" stroke-width="0.5" data-z-index="1" class="highcharts-grid-line" d="M 23 90.75 L 305 90.75" opacity="1"></path></g><rect fill="none" class="highcharts-plot-border" data-z-index="1" x="23" y="91" width="282" height="84"></rect><g class="highcharts-axis highcharts-xaxis" data-z-index="2"><path fill="none" class="highcharts-axis-line" stroke="#B9CFD7" stroke-width="0.5" data-z-index="7" d="M 23 175.25 L 305 175.25"></path></g><g class="highcharts-axis highcharts-yaxis" data-z-index="2"><path fill="none" class="highcharts-axis-line" data-z-index="7" d="M 23 91 L 23 175"></path></g><g class="highcharts-series-group" data-z-index="3"><g class="highcharts-series highcharts-series-0 highcharts-line-series" data-z-index="0.1" opacity="1" transform="translate(23,91) scale(1 1)" clip-path="url(#highcharts-4tbx8yb-608-)"><path fill="none" d="M 1.175 38.85 L 3.525 40.949999999999996 L 5.875 42 L 8.225 44.1 L 10.575 45.15 L 12.925 45.15 L 15.275 46.2 L 17.625 46.2 L 19.975 45.15 L 22.325 46.2 L 24.675 47.25 L 27.025 46.2 L 29.375 45.15 L 31.725 46.2 L 34.075 47.25 L 36.425 51.45 L 38.775 52.5 L 41.125 53.55 L 43.475 52.5 L 45.825 53.55 L 48.175 52.5 L 50.525 52.5 L 52.875 52.5 L 55.225 50.4 L 57.575 48.3 L 59.925 48.3 L 62.275 49.35 L 64.625 50.4 L 66.975 50.4 L 69.325 51.45 L 71.675 51.45 L 74.025 51.45 L 76.375 50.4 L 78.725 50.4 L 81.075 49.35 L 83.425 47.25 L 85.775 47.25 L 88.125 47.25 L 90.475 49.35 L 92.825 49.35 L 95.175 50.4 L 97.525 52.5 L 99.875 52.5 L 102.225 52.5 L 104.575 52.5 L 106.925 52.5 L 109.275 51.45 L 111.625 50.4 L 113.975 51.45 L 116.325 51.45 L 118.675 52.5 L 121.025 52.5 L 123.375 54.599999999999994 L 125.725 55.65 L 128.075 55.65 L 130.425 55.65 L 132.775 55.65 L 135.125 55.65 L 137.475 53.55 L 139.825 51.45 L 142.175 50.4 L 144.525 50.4 L 146.875 50.4 L 149.225 51.45 L 151.575 53.55 L 153.925 53.55 L 156.275 53.55 L 158.625 51.45 L 160.975 51.45 L 163.325 51.45 L 165.675 51.45 L 168.025 50.4 L 170.375 49.35 L 172.725 48.3 L 175.075 49.35 L 177.425 49.35 L 179.775 50.4 L 182.125 51.45 L 184.475 52.5 L 186.825 51.45 L 189.175 52.5 L 191.525 51.45 L 193.875 50.4 L 196.225 50.4 L 198.575 48.3 L 200.925 50.4 L 203.275 50.4 L 205.625 50.4 L 207.975 52.5 L 210.325 53.55 L 212.675 53.55 L 215.025 51.45 L 217.375 53.55 L 219.725 52.5 L 222.075 52.5 L 224.425 52.5 L 226.775 52.5 L 229.125 53.55 L 231.475 54.599999999999994 L 233.825 55.65 L 236.175 55.65 L 238.525 55.65 L 240.875 55.65 L 243.225 54.599999999999994 L 245.575 56.7 L 247.925 56.7 L 250.275 56.7 L 252.625 55.65 L 254.975 53.55 L 257.325 54.599999999999994 L 259.675 55.65 L 262.025 55.65 L 264.375 57.75 L 266.725 57.75 L 269.075 57.75 L 271.425 58.8 L 273.775 60.900000000000006 L 276.125 60.900000000000006 L 278.475 59.85 L 280.825 57.75" class="highcharts-graph" data-z-index="1" stroke="#008AC3" stroke-width="2" stroke-linejoin="round" stroke-linecap="round"></path></g><g class="highcharts-markers highcharts-series-0 highcharts-line-series" data-z-index="0.1" opacity="1" transform="translate(23,91) scale(1 1)" clip-path="none"></g><g class="highcharts-series highcharts-series-1 highcharts-line-series" data-z-index="0.1" opacity="1" transform="translate(23,91) scale(1 1)" clip-path="url(#highcharts-4tbx8yb-608-)"><path fill="none" d="M 1.175 50.4 L 3.525 51.45 L 5.875 51.45 L 8.225 52.5 L 10.575 52.5 L 12.925 53.55 L 15.275 51.45 L 17.625 50.4 L 19.975 51.45 L 22.325 51.45 L 24.675 52.5 L 27.025 53.55 L 29.375 52.5 L 31.725 52.5 L 34.075 52.5 L 36.425 56.7 L 38.775 56.7 L 41.125 56.7 L 43.475 55.65 L 45.825 55.65 L 48.175 55.65 L 50.525 55.65 L 52.875 56.7 L 55.225 57.75 L 57.575 56.7 L 59.925 56.7 L 62.275 56.7 L 64.625 56.7 L 66.975 55.65 L 69.325 57.75 L 71.675 55.65 L 74.025 55.65 L 76.375 55.65 L 78.725 55.65 L 81.075 55.65 L 83.425 55.65 L 85.775 53.55 L 88.125 54.599999999999994 L 90.475 54.599999999999994 L 92.825 55.65 L 95.175 56.7 L 97.525 57.75 L 99.875 55.65 L 102.225 55.65 L 104.575 55.65 L 106.925 55.65 L 109.275 56.7 L 111.625 55.65 L 113.975 56.7 L 116.325 56.7 L 118.675 56.7 L 121.025 57.75 L 123.375 58.8 L 125.725 58.8 L 128.075 58.8 L 130.425 57.75 L 132.775 57.75 L 135.125 57.75 L 137.475 57.75 L 139.825 58.8 L 142.175 56.7 L 144.525 57.75 L 146.875 57.75 L 149.225 57.75 L 151.575 57.75 L 153.925 57.75 L 156.275 56.7 L 158.625 55.65 L 160.975 54.599999999999994 L 163.325 55.65 L 165.675 56.7 L 168.025 57.75 L 170.375 57.75 L 172.725 56.7 L 175.075 57.75 L 177.425 55.65 L 179.775 55.65 L 182.125 56.7 L 184.475 56.7 L 186.825 54.599999999999994 L 189.175 54.599999999999994 L 191.525 54.599999999999994 L 193.875 54.599999999999994 L 196.225 55.65 L 198.575 55.65 L 200.925 56.7 L 203.275 55.65 L 205.625 54.599999999999994 L 207.975 56.7 L 210.325 57.75 L 212.675 57.75 L 215.025 55.65 L 217.375 56.7 L 219.725 56.7 L 222.075 57.75 L 224.425 57.75 L 226.775 57.75 L 229.125 57.75 L 231.475 57.75 L 233.825 58.8 L 236.175 59.85 L 238.525 59.85 L 240.875 58.8 L 243.225 59.85 L 245.575 60.900000000000006 L 247.925 61.95 L 250.275 61.95 L 252.625 61.95 L 254.975 61.95 L 257.325 63 L 259.675 63 L 262.025 65.1 L 264.375 65.1 L 266.725 65.1 L 269.075 64.05 L 271.425 64.05 L 273.775 63 L 276.125 63 L 278.475 63 L 280.825 63" class="highcharts-graph" data-z-index="1" stroke="#662673" stroke-width="2" stroke-linejoin="round" stroke-linecap="round"></path></g><g class="highcharts-markers highcharts-series-1 highcharts-line-series" data-z-index="0.1" opacity="1" transform="translate(23,91) scale(1 1)" clip-path="none"></g><g class="highcharts-series highcharts-series-2 highcharts-line-series" data-z-index="0.1" opacity="1" transform="translate(23,91) scale(1 1)" clip-path="url(#highcharts-4tbx8yb-608-)"><path fill="none" d="M 1.175 6.299999999999997 L 3.525 8.400000000000006 L 5.875 13.649999999999991 L 8.225 17.849999999999994 L 10.575 21 L 12.925 25.199999999999996 L 15.275 27.299999999999997 L 17.625 28.35 L 19.975 29.400000000000006 L 22.325 29.400000000000006 L 24.675 25.199999999999996 L 27.025 15.75 L 29.375 14.700000000000003 L 31.725 18.900000000000006 L 34.075 19.950000000000003 L 36.425 30.450000000000003 L 38.775 33.6 L 41.125 34.65 L 43.475 35.7 L 45.825 35.7 L 48.175 35.7 L 50.525 34.65 L 52.875 31.5 L 55.225 25.199999999999996 L 57.575 19.950000000000003 L 59.925 19.950000000000003 L 62.275 24.15 L 64.625 26.25 L 66.975 28.35 L 69.325 34.65 L 71.675 36.75 L 74.025 37.800000000000004 L 76.375 36.75 L 78.725 32.55 L 81.075 28.35 L 83.425 19.950000000000003 L 85.775 15.75 L 88.125 17.849999999999994 L 90.475 19.950000000000003 L 92.825 25.199999999999996 L 95.175 29.400000000000006 L 97.525 29.400000000000006 L 99.875 31.5 L 102.225 32.55 L 104.575 31.5 L 106.925 29.400000000000006 L 109.275 24.15 L 111.625 14.700000000000003 L 113.975 19.950000000000003 L 116.325 23.099999999999994 L 118.675 26.25 L 121.025 30.450000000000003 L 123.375 35.7 L 125.725 39.9 L 128.075 39.9 L 130.425 40.949999999999996 L 132.775 38.85 L 135.125 34.65 L 137.475 28.35 L 139.825 18.900000000000006 L 142.175 15.75 L 144.525 18.900000000000006 L 146.875 19.950000000000003 L 149.225 23.099999999999994 L 151.575 26.25 L 153.925 29.400000000000006 L 156.275 33.6 L 158.625 34.65 L 160.975 30.450000000000003 L 163.325 28.35 L 165.675 24.15 L 168.025 18.900000000000006 L 170.375 14.700000000000003 L 172.725 13.649999999999991 L 175.075 16.799999999999997 L 177.425 16.799999999999997 L 179.775 21 L 182.125 25.199999999999996 L 184.475 28.35 L 186.825 29.400000000000006 L 189.175 29.400000000000006 L 191.525 27.299999999999997 L 193.875 19.950000000000003 L 196.225 11.549999999999997 L 198.575 12.599999999999994 L 200.925 15.75 L 203.275 21 L 205.625 25.199999999999996 L 207.975 29.400000000000006 L 210.325 31.5 L 212.675 33.6 L 215.025 34.65 L 217.375 36.75 L 219.725 35.7 L 222.075 33.6 L 224.425 26.25 L 226.775 23.099999999999994 L 229.125 27.299999999999997 L 231.475 28.35 L 233.825 33.6 L 236.175 36.75 L 238.525 39.9 L 240.875 40.949999999999996 L 243.225 40.949999999999996 L 245.575 40.949999999999996 L 247.925 38.85 L 250.275 33.6 L 252.625 25.199999999999996 L 254.975 23.099999999999994 L 257.325 27.299999999999997 L 259.675 29.400000000000006 L 262.025 32.55 L 264.375 36.75 L 266.725 39.9 L 269.075 42 L 271.425 42 L 273.775 43.05 L 276.125 42 L 278.475 35.7 L 280.825 28.35" class="highcharts-graph" data-z-index="1" stroke="#689199" stroke-width="2" stroke-linejoin="round" stroke-linecap="round"></path></g><g class="highcharts-markers highcharts-series-2 highcharts-line-series" data-z-index="0.1" opacity="1" transform="translate(23,91) scale(1 1)" clip-path="none"></g><g class="highcharts-series highcharts-series-3 highcharts-line-series" data-z-index="0.1" opacity="1" transform="translate(23,91) scale(1 1)" clip-path="url(#highcharts-4tbx8yb-608-)"><path fill="none" d="M 1.175 31.5 L 3.525 32.55 L 5.875 33.6 L 8.225 33.6 L 10.575 35.7 L 12.925 36.75 L 15.275 35.7 L 17.625 33.6 L 19.975 33.6 L 22.325 33.6 L 24.675 34.65 L 27.025 34.65 L 29.375 31.5 L 31.725 32.55 L 34.075 34.65 L 36.425 38.85 L 38.775 40.949999999999996 L 41.125 40.949999999999996 L 43.475 40.949999999999996 L 45.825 39.9 L 48.175 38.85 L 50.525 38.85 L 52.875 40.949999999999996 L 55.225 40.949999999999996 L 57.575 40.949999999999996 L 59.925 39.9 L 62.275 38.85 L 64.625 38.85 L 66.975 39.9 L 69.325 39.9 L 71.675 39.9 L 74.025 38.85 L 76.375 37.800000000000004 L 78.725 37.800000000000004 L 81.075 37.800000000000004 L 83.425 36.75 L 85.775 36.75 L 88.125 36.75 L 90.475 35.7 L 92.825 36.75 L 95.175 37.800000000000004 L 97.525 39.9 L 99.875 38.85 L 102.225 37.800000000000004 L 104.575 38.85 L 106.925 37.800000000000004 L 109.275 39.9 L 111.625 39.9 L 113.975 43.05 L 116.325 43.05 L 118.675 42 L 121.025 43.05 L 123.375 46.2 L 125.725 46.2 L 128.075 45.15 L 130.425 43.05 L 132.775 43.05 L 135.125 43.05 L 137.475 43.05 L 139.825 43.05 L 142.175 42 L 144.525 40.949999999999996 L 146.875 40.949999999999996 L 149.225 40.949999999999996 L 151.575 40.949999999999996 L 153.925 40.949999999999996 L 156.275 40.949999999999996 L 158.625 40.949999999999996 L 160.975 39.9 L 163.325 38.85 L 165.675 38.85 L 168.025 38.85 L 170.375 36.75 L 172.725 34.65 L 175.075 35.7 L 177.425 34.65 L 179.775 35.7 L 182.125 36.75 L 184.475 36.75 L 186.825 36.75 L 189.175 37.800000000000004 L 191.525 38.85 L 193.875 37.800000000000004 L 196.225 37.800000000000004 L 198.575 43.05 L 200.925 40.949999999999996 L 203.275 40.949999999999996 L 205.625 43.05 L 207.975 43.05 L 210.325 43.05 L 212.675 43.05 L 215.025 40.949999999999996 L 217.375 44.1 L 219.725 42 L 222.075 43.05 L 224.425 42 L 226.775 42 L 229.125 43.05 L 231.475 42 L 233.825 42 L 236.175 43.05 L 238.525 45.15 L 240.875 45.15 L 243.225 46.2 L 245.575 45.15 L 247.925 46.2 L 250.275 46.2 L 252.625 47.25 L 254.975 45.15 L 257.325 47.25 L 259.675 47.25 L 262.025 48.3 L 264.375 48.3 L 266.725 50.4 L 269.075 50.4 L 271.425 50.4 L 273.775 51.45 L 276.125 49.35 L 278.475 49.35 L 280.825 48.3" class="highcharts-graph" data-z-index="1" stroke="#B375AB" stroke-width="2" stroke-linejoin="round" stroke-linecap="round"></path></g><g class="highcharts-markers highcharts-series-3 highcharts-line-series" data-z-index="0.1" opacity="1" transform="translate(23,91) scale(1 1)" clip-path="none"></g></g><text x="2" text-anchor="start" class="highcharts-title" data-z-index="4" style="color:#000000;font-size:10px;font-weight:bold;fill:#000000;" y="9"><tspan>Arbeitslosenquote nach Herkunft und</tspan><tspan dy="13" x="2">Geschlecht</tspan></text><text x="2" text-anchor="start" class="highcharts-subtitle" data-z-index="4" style="color:#000000;font-size:10px;font-weight:normal;font-family:Arial;fill:#000000;" y="38"><tspan>Basel-Stadt</tspan></text><text x="2" text-anchor="start" class="highcharts-caption" data-z-index="4" style="color:#666666;fill:#666666;" y="221"></text><g class="highcharts-legend" data-z-index="7" transform="translate(23,52)"><rect fill="none" class="highcharts-legend-box" rx="0" ry="0" x="0" y="0" width="223" height="27" visibility="visible"></rect><g data-z-index="1"><g><g class="highcharts-legend-item highcharts-line-series highcharts-color-undefined highcharts-series-0" data-z-index="1" transform="translate(0,-5)"><path fill="none" d="M 0 10 L 16 10" class="highcharts-graph" stroke="#008AC3" stroke-width="2"></path><text x="21" style="color:#333333;cursor:pointer;font-size:10px;font-weight:normal;fill:#333333;" text-anchor="start" data-z-index="2" y="13"><tspan>Schweizer</tspan></text></g><g class="highcharts-legend-item highcharts-line-series highcharts-color-undefined highcharts-series-1" data-z-index="1" transform="translate(121.859375,-5)"><path fill="none" d="M 0 10 L 16 10" class="highcharts-graph" stroke="#662673" stroke-width="2"></path><text x="21" y="13" style="color:#333333;cursor:pointer;font-size:10px;font-weight:normal;fill:#333333;" text-anchor="start" data-z-index="2"><tspan>Schweizerinnen</tspan></text></g><g class="highcharts-legend-item highcharts-line-series highcharts-color-undefined highcharts-series-2" data-z-index="1" transform="translate(0,11)"><path fill="none" d="M 0 10 L 16 10" class="highcharts-graph" stroke="#689199" stroke-width="2"></path><text x="21" y="13" style="color:#333333;cursor:pointer;font-size:10px;font-weight:normal;fill:#333333;" text-anchor="start" data-z-index="2"><tspan>Ausl채nder</tspan></text></g><g class="highcharts-legend-item highcharts-line-series highcharts-color-undefined highcharts-series-3" data-z-index="1" transform="translate(121.859375,11)"><path fill="none" d="M 0 10 L 16 10" class="highcharts-graph" stroke="#B375AB" stroke-width="2"></path><text x="21" y="13" style="color:#333333;cursor:pointer;font-size:10px;font-weight:normal;fill:#333333;" text-anchor="start" data-z-index="2"><tspan>Ausl채nderinnen</tspan></text></g></g></g></g><g class="highcharts-axis-labels highcharts-xaxis-labels" data-z-index="7"><text x="26.53202260395516" style="color:#000000;cursor:default;font-size:10px;white-space:nowrap;fill:#000000;" text-anchor="end" transform="translate(0,0) rotate(-45 26.53202260395516 190)" y="190" opacity="1">2010</text><text x="54.73202260395516" style="color:#000000;cursor:default;font-size:10px;white-space:nowrap;fill:#000000;" text-anchor="end" transform="translate(0,0) rotate(-45 54.73202260395516 190)" y="190" opacity="1">2011</text><text x="82.93202260395516" style="color:#000000;cursor:default;font-size:10px;white-space:nowrap;fill:#000000;" text-anchor="end" transform="translate(0,0) rotate(-45 82.93202260395516 190)" y="190" opacity="1">2012</text><text x="111.13202260395516" style="color:#000000;cursor:default;font-size:10px;white-space:nowrap;fill:#000000;" text-anchor="end" transform="translate(0,0) rotate(-45 111.13202260395516 190)" y="190" opacity="1">2013</text><text x="139.33202260395515" style="color:#000000;cursor:default;font-size:10px;white-space:nowrap;fill:#000000;" text-anchor="end" transform="translate(0,0) rotate(-45 139.33202260395515 190)" y="190" opacity="1">2014</text><text x="167.53202260395517" style="color:#000000;cursor:default;font-size:10px;white-space:nowrap;fill:#000000;" text-anchor="end" transform="translate(0,0) rotate(-45 167.53202260395517 190)" y="190" opacity="1">2015</text><text x="195.73202260395516" style="color:#000000;cursor:default;font-size:10px;white-space:nowrap;fill:#000000;" text-anchor="end" transform="translate(0,0) rotate(-45 195.73202260395516 190)" y="190" opacity="1">2016</text><text x="223.93202260395515" style="color:#000000;cursor:default;font-size:10px;white-space:nowrap;fill:#000000;" text-anchor="end" transform="translate(0,0) rotate(-45 223.93202260395515 190)" y="190" opacity="1">2017</text><text x="252.13202260395516" style="color:#000000;cursor:default;font-size:10px;white-space:nowrap;fill:#000000;" text-anchor="end" transform="translate(0,0) rotate(-45 252.13202260395516 190)" y="190" opacity="1">2018</text><text x="280.3320226039552" style="color:#000000;cursor:default;font-size:10px;white-space:nowrap;fill:#000000;" text-anchor="end" transform="translate(0,0) rotate(-45 280.3320226039552 190)" y="190" opacity="1">2019</text></g><g class="highcharts-axis-labels highcharts-yaxis-labels" data-z-index="7"><text x="18" style="color:#000000;cursor:default;font-size:10px;fill:#000000;" text-anchor="end" transform="translate(0,0)" y="178" opacity="1">0%</text><text x="18" style="color:#000000;cursor:default;font-size:10px;fill:#000000;" text-anchor="end" transform="translate(0,0)" y="157" opacity="1">2%</text><text x="18" style="color:#000000;cursor:default;font-size:10px;fill:#000000;" text-anchor="end" transform="translate(0,0)" y="136" opacity="1">4%</text><text x="18" style="color:#000000;cursor:default;font-size:10px;fill:#000000;" text-anchor="end" transform="translate(0,0)" y="115" opacity="1">6%</text><text x="18" style="color:#000000;cursor:default;font-size:10px;fill:#000000;" text-anchor="end" transform="translate(0,0)" y="94" opacity="1">8%</text></g><text x="10" class="highcharts-credits" text-anchor="start" data-z-index="8" style="cursor:default;color:#000000;font-size:10px;fill:#000000;" y="196"><tspan>Quelle: Staatssekretariat f체r Wirtschaft SECO, Arbeitslosenstatistik.</tspan><tspan x="10" dy="13">Zuletzt ge채ndert: 2020-5-18</tspan></text><g class="highcharts-control-points" data-z-index="99" clip-path="url(#highcharts-4tbx8yb-969-)"></g></svg>