<?xml version="1.0" standalone="no"?><!DOCTYPE svg PUBLIC "-//W3C//DTD SVG 1.1//EN" "http://www.w3.org/Graphics/SVG/1.1/DTD/svg11.dtd"><svg xmlns:xlink="http://www.w3.org/1999/xlink" version="1.1" class="highcharts-root" style="font-family:Arial;font-size:10px;color:#000000;fill:#000000;" xmlns="http://www.w3.org/2000/svg" viewBox="0 0 485 415"><desc>Created with Highstock 6.1.1</desc><defs><clipPath id="highcharts-4a8767a-6"><rect x="0" y="0" width="124" height="194" fill="none"></rect></clipPath><clipPath id="highcharts-4a8767a-7"><rect x="0" y="0" width="124" height="194" fill="none"></rect></clipPath></defs><rect fill="#fbfbfb" class="highcharts-background" x="0" y="0" width="320" height="221" rx="0" ry="0"></rect><rect fill="none" class="highcharts-plot-background" x="111" y="79" width="194" height="124"></rect><g class="highcharts-pane-group" data-z-index="0"></g><g class="highcharts-grid highcharts-xaxis-grid " data-z-index="1"><path fill="none" data-z-index="1" class="highcharts-grid-line" d="M 111 110.5 L 305 110.5" opacity="1"></path><path fill="none" data-z-index="1" class="highcharts-grid-line" d="M 111 141.5 L 305 141.5" opacity="1"></path><path fill="none" data-z-index="1" class="highcharts-grid-line" d="M 111 172.5 L 305 172.5" opacity="1"></path><path fill="none" data-z-index="1" class="highcharts-grid-line" d="M 111 203.5 L 305 203.5" opacity="1"></path><path fill="none" data-z-index="1" class="highcharts-grid-line" d="M 111 79.5 L 305 79.5" opacity="1"></path></g><g class="highcharts-grid highcharts-yaxis-grid " data-z-index="1"><path fill="none" stroke="#B9CFD7" stroke-width="0.5" data-z-index="1" class="highcharts-grid-line" d="M 110.75 79 L 110.75 203" opacity="1"></path><path fill="none" stroke="#B9CFD7" stroke-width="0.5" data-z-index="1" class="highcharts-grid-line" d="M 159.75 79 L 159.75 203" opacity="1"></path><path fill="none" stroke="#B9CFD7" stroke-width="0.5" data-z-index="1" class="highcharts-grid-line" d="M 207.75 79 L 207.75 203" opacity="1"></path><path fill="none" stroke="#B9CFD7" stroke-width="0.5" data-z-index="1" class="highcharts-grid-line" d="M 256.75 79 L 256.75 203" opacity="1"></path><path fill="none" stroke="#B9CFD7" stroke-width="0.5" data-z-index="1" class="highcharts-grid-line" d="M 305.25 79 L 305.25 203" opacity="1"></path></g><rect fill="none" class="highcharts-plot-border" data-z-index="1" x="111" y="79" width="194" height="124"></rect><g class="highcharts-axis highcharts-xaxis " data-z-index="2"><path fill="none" class="highcharts-axis-line" stroke="#B9CFD7" stroke-width="0.5" data-z-index="7" d="M 110.75 79 L 110.75 203"></path></g><g class="highcharts-axis highcharts-yaxis " data-z-index="2"><path fill="none" class="highcharts-axis-line" data-z-index="7" d="M 111 203 L 305 203"></path></g><g class="highcharts-series-group" data-z-index="3"><g data-z-index="0.1" class="highcharts-series highcharts-series-0 highcharts-column-series " transform="translate(305,203) rotate(90) scale(-1,1) scale(1 1)" clip-path="url(#highcharts-4a8767a-7)" width="194" height="124"><rect x="113" y="150" width="5" height="45" fill="#246370" class="highcharts-point"></rect><rect x="82" y="174" width="5" height="21" fill="#246370" class="highcharts-point"></rect><rect x="51" y="48" width="5" height="147" fill="#246370" class="highcharts-point"></rect><rect x="20" y="155" width="5" height="40" fill="#246370" class="highcharts-point"></rect></g><g data-z-index="0.1" class="highcharts-markers highcharts-series-0 highcharts-column-series " transform="translate(305,203) rotate(90) scale(-1,1) scale(1 1)" clip-path="none"></g><g data-z-index="0.1" class="highcharts-series highcharts-series-1 highcharts-column-series " transform="translate(305,203) rotate(90) scale(-1,1) scale(1 1)" clip-path="url(#highcharts-4a8767a-7)" width="194" height="124"><rect x="109" y="177" width="4" height="18" fill="#FABD24" class="highcharts-point"></rect><rect x="78" y="146" width="4" height="49" fill="#FABD24" class="highcharts-point"></rect><rect x="47" y="108" width="4" height="87" fill="#FABD24" class="highcharts-point"></rect><rect x="16" y="155" width="4" height="40" fill="#FABD24" class="highcharts-point"></rect></g><g data-z-index="0.1" class="highcharts-markers highcharts-series-1 highcharts-column-series " transform="translate(305,203) rotate(90) scale(-1,1) scale(1 1)" clip-path="none"></g><g data-z-index="0.1" class="highcharts-series highcharts-series-2 highcharts-column-series " transform="translate(305,203) rotate(90) scale(-1,1) scale(1 1)" clip-path="url(#highcharts-4a8767a-7)" width="194" height="124"><rect x="104" y="120" width="5" height="75" fill="#B00000" class="highcharts-point"></rect><rect x="73" y="124" width="5" height="71" fill="#B00000" class="highcharts-point"></rect><rect x="42" y="16" width="4" height="179" fill="#B00000" class="highcharts-point"></rect><rect x="11" y="116" width="4" height="79" fill="#B00000" class="highcharts-point"></rect></g><g data-z-index="0.1" class="highcharts-markers highcharts-series-2 highcharts-column-series " transform="translate(305,203) rotate(90) scale(-1,1) scale(1 1)" clip-path="none"></g><g data-z-index="0.1" class="highcharts-series highcharts-series-3 highcharts-column-series " transform="translate(305,203) rotate(90) scale(-1,1) scale(1 1)" clip-path="url(#highcharts-4a8767a-7)" width="194" height="124"><rect x="99" y="192" width="5" height="3" fill="#B375AB" class="highcharts-point"></rect><rect x="68" y="194" width="5" height="1" fill="#B375AB" class="highcharts-point"></rect><rect x="37" y="186" width="5" height="9" fill="#B375AB" class="highcharts-point"></rect><rect x="6" y="193" width="5" height="2" fill="#B375AB" class="highcharts-point"></rect></g><g data-z-index="0.1" class="highcharts-markers highcharts-series-3 highcharts-column-series " transform="translate(305,203) rotate(90) scale(-1,1) scale(1 1)" clip-path="none"></g></g><text x="2" text-anchor="start" class="highcharts-title" data-z-index="4" style="color:#000000;font-size:10px;font-weight:bold;fill:#000000;" y="9"><tspan>Vorläufig Aufgenommene und Asylsuchende nach Alter</tspan></text><text x="2" text-anchor="start" class="highcharts-subtitle" data-z-index="4" style="color:#000000;font-size:10px;font-weight:normal;font-family:Arial;fill:#000000;" y="26"><tspan>Basel-Stadt, 2019</tspan></text><g class="highcharts-legend" data-z-index="7" transform="translate(108,42)"><rect fill="none" class="highcharts-legend-box" rx="0" ry="0" x="0" y="0" width="140" height="25" visibility="visible"></rect><g data-z-index="1"><g><g class="highcharts-legend-item highcharts-column-series highcharts-color-undefined highcharts-series-0" data-z-index="1" transform="translate(0,-5)"><text x="21" style="color:#333333;font-size:10px;font-weight:normal;cursor:pointer;fill:#333333;" text-anchor="start" data-z-index="2" y="13"><tspan>0-17</tspan></text><rect x="3" y="4" width="10" height="10" fill="#246370" class="highcharts-point" data-z-index="3"></rect></g><g class="highcharts-legend-item highcharts-column-series highcharts-color-undefined highcharts-series-1" data-z-index="1" transform="translate(80,-5)"><text x="21" y="13" style="color:#333333;font-size:10px;font-weight:normal;cursor:pointer;fill:#333333;" text-anchor="start" data-z-index="2"><tspan>18-25</tspan></text><rect x="3" y="4" width="10" height="10" fill="#FABD24" class="highcharts-point" data-z-index="3"></rect></g><g class="highcharts-legend-item highcharts-column-series highcharts-color-undefined highcharts-series-2" data-z-index="1" transform="translate(0,10)"><text x="21" y="13" style="color:#333333;font-size:10px;font-weight:normal;cursor:pointer;fill:#333333;" text-anchor="start" data-z-index="2"><tspan>26-64</tspan></text><rect x="3" y="4" width="10" height="10" fill="#B00000" class="highcharts-point" data-z-index="3"></rect></g><g class="highcharts-legend-item highcharts-column-series highcharts-color-undefined highcharts-series-3" data-z-index="1" transform="translate(80,10)"><text x="21" y="13" style="color:#333333;font-size:10px;font-weight:normal;cursor:pointer;fill:#333333;" text-anchor="start" data-z-index="2"><tspan>65 u. m.</tspan></text><rect x="3" y="4" width="10" height="10" fill="#B375AB" class="highcharts-point" data-z-index="3"></rect></g></g></g></g><g class="highcharts-axis-labels highcharts-xaxis-labels " data-z-index="7"><text x="96" style="color:#000000;cursor:default;font-size:10px;fill:#000000;" text-anchor="end" transform="translate(0,0)" y="92" opacity="1"><tspan>2009: Vorläufig</tspan><tspan dy="13" x="96">Aufgenommene</tspan></text><text x="96" style="color:#000000;cursor:default;font-size:10px;fill:#000000;" text-anchor="end" transform="translate(0,0)" y="129" opacity="1"><tspan>2009: Asylsuchende</tspan></text><text x="96" style="color:#000000;cursor:default;font-size:10px;fill:#000000;" text-anchor="end" transform="translate(0,0)" y="154" opacity="1"><tspan>2018: Vorläufig</tspan><tspan dy="13" x="96">Aufgenommene</tspan></text><text x="96" style="color:#000000;cursor:default;font-size:10px;fill:#000000;" text-anchor="end" transform="translate(0,0)" y="191" opacity="1"><tspan>2018: Asylsuchende</tspan></text></g><g class="highcharts-axis-labels highcharts-yaxis-labels " data-z-index="7"><text x="111" style="color:#000000;cursor:default;font-size:10px;fill:#000000;" text-anchor="middle" transform="translate(0,0)" y="206" opacity="1">0</text><text x="159.5" style="color:#000000;cursor:default;font-size:10px;fill:#000000;" text-anchor="middle" transform="translate(0,0)" y="206" opacity="1">100</text><text x="208" style="color:#000000;cursor:default;font-size:10px;fill:#000000;" text-anchor="middle" transform="translate(0,0)" y="206" opacity="1">200</text><text x="256.5" style="color:#000000;cursor:default;font-size:10px;fill:#000000;" text-anchor="middle" transform="translate(0,0)" y="206" opacity="1">300</text><text x="305" style="color:#000000;cursor:default;font-size:10px;fill:#000000;" text-anchor="middle" transform="translate(0,0)" y="206" opacity="1">400</text></g><text x="10" class="highcharts-credits" text-anchor="start" data-z-index="8" style="cursor:default;color:#000000;font-size:10;fill:#000000;" y="196"><tspan>Quelle: Statistisches Amt Basel-Stadt, Bevölkerungsstatistik.</tspan><tspan x="10" dy="15">Zuletzt geändert: 2020-1-23</tspan></text></svg>