<?xml version="1.0" standalone="no"?><!DOCTYPE svg PUBLIC "-//W3C//DTD SVG 1.1//EN" "http://www.w3.org/Graphics/SVG/1.1/DTD/svg11.dtd"><svg xmlns:xlink="http://www.w3.org/1999/xlink" version="1.1" class="highcharts-root" style="font-family:Arial;font-size:12px;" xmlns="http://www.w3.org/2000/svg" viewBox="0 0 485 415"><desc>Created with Highcharts 8.1.0</desc><defs><clipPath id="highcharts-rzzueuz-67-"><rect x="0" y="0" width="258" height="84" fill="none"></rect></clipPath><clipPath id="highcharts-rzzueuz-80-"><rect x="0" y="0" width="258" height="84" fill="none"></rect></clipPath><clipPath id="highcharts-rzzueuz-129-"><rect x="37" y="94" width="258" height="84" fill="none"></rect></clipPath></defs><rect fill="#fbfbfb" class="highcharts-background" x="0" y="0" width="320" height="221" rx="0" ry="0"></rect><rect fill="none" class="highcharts-plot-background" x="37" y="94" width="258" height="84"></rect><g class="highcharts-pane-group" data-z-index="0"></g><g class="highcharts-grid highcharts-xaxis-grid" data-z-index="1"><path fill="none" data-z-index="1" class="highcharts-grid-line" d="M 39.5 94 L 39.5 178" opacity="1"></path><path fill="none" data-z-index="1" class="highcharts-grid-line" d="M 62.5 94 L 62.5 178" opacity="1"></path><path fill="none" data-z-index="1" class="highcharts-grid-line" d="M 85.5 94 L 85.5 178" opacity="1"></path><path fill="none" data-z-index="1" class="highcharts-grid-line" d="M 108.5 94 L 108.5 178" opacity="1"></path><path fill="none" data-z-index="1" class="highcharts-grid-line" d="M 131.5 94 L 131.5 178" opacity="1"></path><path fill="none" data-z-index="1" class="highcharts-grid-line" d="M 154.5 94 L 154.5 178" opacity="1"></path><path fill="none" data-z-index="1" class="highcharts-grid-line" d="M 176.5 94 L 176.5 178" opacity="1"></path><path fill="none" data-z-index="1" class="highcharts-grid-line" d="M 199.5 94 L 199.5 178" opacity="1"></path><path fill="none" data-z-index="1" class="highcharts-grid-line" d="M 222.5 94 L 222.5 178" opacity="1"></path><path fill="none" data-z-index="1" class="highcharts-grid-line" d="M 245.5 94 L 245.5 178" opacity="1"></path><path fill="none" data-z-index="1" class="highcharts-grid-line" d="M 268.5 94 L 268.5 178" opacity="1"></path><path fill="none" data-z-index="1" class="highcharts-grid-line" d="M 291.5 94 L 291.5 178" opacity="1"></path></g><g class="highcharts-grid highcharts-yaxis-grid" data-z-index="1"><path fill="none" stroke="#B9CFD7" stroke-width="0.5" data-z-index="1" class="highcharts-grid-line" d="M 37 178.25 L 295 178.25" opacity="1"></path><path fill="none" stroke="#B9CFD7" stroke-width="0.5" data-z-index="1" class="highcharts-grid-line" d="M 37 157.25 L 295 157.25" opacity="1"></path><path fill="none" stroke="#B9CFD7" stroke-width="0.5" data-z-index="1" class="highcharts-grid-line" d="M 37 136.25 L 295 136.25" opacity="1"></path><path fill="none" stroke="#B9CFD7" stroke-width="0.5" data-z-index="1" class="highcharts-grid-line" d="M 37 115.25 L 295 115.25" opacity="1"></path><path fill="none" stroke="#B9CFD7" stroke-width="0.5" data-z-index="1" class="highcharts-grid-line" d="M 37 93.75 L 295 93.75" opacity="1"></path></g><rect fill="none" class="highcharts-plot-border" data-z-index="1" x="37" y="94" width="258" height="84"></rect><g class="highcharts-axis highcharts-xaxis" data-z-index="2"><path fill="none" class="highcharts-axis-line" stroke="#B9CFD7" stroke-width="0.5" data-z-index="7" d="M 37 178.25 L 295 178.25"></path></g><g class="highcharts-axis highcharts-yaxis" data-z-index="2"><path fill="none" class="highcharts-axis-line" data-z-index="7" d="M 37 94 L 37 178"></path></g><g class="highcharts-series-group" data-z-index="3"><g data-z-index="0.1" class="highcharts-series highcharts-series-0 highcharts-line-series" transform="translate(37,94) scale(1 1)" clip-path="url(#highcharts-rzzueuz-80-)"><path fill="none" d="M 2.5294117647036 44.94 L 25.524064171121 38.63999999999999 L 48.518716577539 38.63999999999999 L 71.513368983956 39.48 L 94.508021390374 36.96 L 117.50267379679 42.419999999999995 L 140.49732620321 33.599999999999994 L 163.49197860963 34.86 L 186.48663101604 38.22 L 209.48128342246 43.26 L 232.47593582888 36.12 L 255.4705882353 40.31999999999999" class="highcharts-graph" data-z-index="1" stroke="#FABD24" stroke-width="2" stroke-linejoin="round" stroke-linecap="round"></path></g><g data-z-index="0.1" class="highcharts-markers highcharts-series-0 highcharts-line-series" transform="translate(37,94) scale(1 1)" clip-path="none"></g><g data-z-index="0.1" class="highcharts-series highcharts-series-1 highcharts-line-series" transform="translate(37,94) scale(1 1)" clip-path="url(#highcharts-rzzueuz-80-)"><path fill="none" d="M 2.5294117647036 50.82 L 25.524064171121 41.58 L 48.518716577539 50.4 L 71.513368983956 38.22 L 94.508021390374 40.31999999999999 L 117.50267379679 44.519999999999996 L 140.49732620321 44.519999999999996 L 163.49197860963 38.63999999999999 L 186.48663101604 40.31999999999999 L 209.48128342246 46.199999999999996 L 232.47593582888 39.48 L 255.4705882353 42" class="highcharts-graph" data-z-index="1" stroke="#FFDA80" stroke-width="2" stroke-linejoin="round" stroke-linecap="round"></path></g><g data-z-index="0.1" class="highcharts-markers highcharts-series-1 highcharts-line-series" transform="translate(37,94) scale(1 1)" clip-path="none"></g><g data-z-index="0.1" class="highcharts-series highcharts-series-2 highcharts-line-series" transform="translate(37,94) scale(1 1)" clip-path="url(#highcharts-rzzueuz-80-)"><path fill="none" d="M 2.5294117647036 39.48 L 25.524064171121 34.019999999999996 L 48.518716577539 28.560000000000002 L 71.513368983956 16.379999999999995 L 94.508021390374 32.76 L 117.50267379679 40.739999999999995 L 140.49732620321 21 L 163.49197860963 28.560000000000002 L 186.48663101604 28.560000000000002 L 209.48128342246 41.160000000000004 L 232.47593582888 36.12 L 255.4705882353 28.560000000000002" class="highcharts-graph" data-z-index="1" stroke="#B375AB" stroke-width="2" stroke-linejoin="round" stroke-linecap="round"></path></g><g data-z-index="0.1" class="highcharts-markers highcharts-series-2 highcharts-line-series" transform="translate(37,94) scale(1 1)" clip-path="none"></g><g data-z-index="0.1" class="highcharts-series highcharts-series-3 highcharts-line-series" transform="translate(37,94) scale(1 1)" clip-path="url(#highcharts-rzzueuz-80-)"><path fill="none" d="M 2.5294117647036 47.88 L 25.524064171121 42.839999999999996 L 48.518716577539 43.26 L 71.513368983956 51.24 L 94.508021390374 39.48 L 117.50267379679 37.38 L 140.49732620321 36.53999999999999 L 163.49197860963 31.08 L 186.48663101604 33.599999999999994 L 209.48128342246 42 L 232.47593582888 36.12 L 255.4705882353 40.739999999999995" class="highcharts-graph" data-z-index="1" stroke="#E7CEE2" stroke-width="2" stroke-linejoin="round" stroke-linecap="round"></path></g><g data-z-index="0.1" class="highcharts-markers highcharts-series-3 highcharts-line-series" transform="translate(37,94) scale(1 1)" clip-path="none"></g><g data-z-index="0.1" class="highcharts-series highcharts-series-4 highcharts-line-series" transform="translate(37,94) scale(1 1)" clip-path="url(#highcharts-rzzueuz-80-)"><path fill="none" d="M 2.5294117647036 46.62 L 25.524064171121 39.48 L 48.518716577539 42 L 71.513368983956 37.38 L 94.508021390374 37.8 L 117.50267379679 42.419999999999995 L 140.49732620321 36.12 L 163.49197860963 34.86 L 186.48663101604 36.96 L 209.48128342246 43.68 L 232.47593582888 36.96 L 255.4705882353 39.06" class="highcharts-graph" data-z-index="1" stroke="#689199" stroke-width="2" stroke-linejoin="round" stroke-linecap="round"></path></g><g data-z-index="0.1" class="highcharts-markers highcharts-series-4 highcharts-line-series" transform="translate(37,94) scale(1 1)" clip-path="none"></g></g><text x="2" text-anchor="start" class="highcharts-title" data-z-index="4" style="color:#000000;font-size:10px;font-weight:bold;fill:#000000;" y="9"><tspan>Lehrabbruchquote nach Herkunft und Geschlecht</tspan></text><text x="2" text-anchor="start" class="highcharts-subtitle" data-z-index="4" style="color:#000000;font-size:10px;font-weight:normal;font-family:Arial;fill:#000000;" y="25"><tspan>in Prozent</tspan></text><text x="2" text-anchor="start" class="highcharts-caption" data-z-index="4" style="color:#666666;fill:#666666;" y="221"></text><g class="highcharts-legend" data-z-index="7" transform="translate(37,39)"><rect fill="none" class="highcharts-legend-box" rx="0" ry="0" x="0" y="0" width="202" height="43" visibility="visible"></rect><g data-z-index="1"><g><g class="highcharts-legend-item highcharts-line-series highcharts-color-undefined highcharts-series-0" data-z-index="1" transform="translate(0,-5)"><path fill="none" d="M 0 10 L 16 10" class="highcharts-graph" stroke="#FABD24" stroke-width="2"></path><text x="21" style="color:#333333;cursor:pointer;font-size:10px;font-weight:normal;fill:#333333;" text-anchor="start" data-z-index="2" y="13"><tspan>Schweizer</tspan></text></g><g class="highcharts-legend-item highcharts-line-series highcharts-color-undefined highcharts-series-1" data-z-index="1" transform="translate(111.46875,-5)"><path fill="none" d="M 0 10 L 16 10" class="highcharts-graph" stroke="#FFDA80" stroke-width="2"></path><text x="21" y="13" style="color:#333333;cursor:pointer;font-size:10px;font-weight:normal;fill:#333333;" text-anchor="start" data-z-index="2"><tspan>Schweizerinnen</tspan></text></g><g class="highcharts-legend-item highcharts-line-series highcharts-color-undefined highcharts-series-2" data-z-index="1" transform="translate(0,11)"><path fill="none" d="M 0 10 L 16 10" class="highcharts-graph" stroke="#B375AB" stroke-width="2"></path><text x="21" y="13" style="color:#333333;cursor:pointer;font-size:10px;font-weight:normal;fill:#333333;" text-anchor="start" data-z-index="2"><tspan>Ausländer</tspan></text></g><g class="highcharts-legend-item highcharts-line-series highcharts-color-undefined highcharts-series-3" data-z-index="1" transform="translate(111.46875,11)"><path fill="none" d="M 0 10 L 16 10" class="highcharts-graph" stroke="#E7CEE2" stroke-width="2"></path><text x="21" y="13" style="color:#333333;cursor:pointer;font-size:10px;font-weight:normal;fill:#333333;" text-anchor="start" data-z-index="2"><tspan>Ausländerinnen</tspan></text></g><g class="highcharts-legend-item highcharts-line-series highcharts-color-undefined highcharts-series-4" data-z-index="1" transform="translate(0,27)"><path fill="none" d="M 0 10 L 16 10" class="highcharts-graph" stroke="#689199" stroke-width="2"></path><text x="21" y="13" style="color:#333333;cursor:pointer;font-size:10px;font-weight:normal;fill:#333333;" text-anchor="start" data-z-index="2"><tspan>Total</tspan></text></g></g></g></g><g class="highcharts-axis-labels highcharts-xaxis-labels" data-z-index="7"><text x="41.88643436865916" style="color:#000000;cursor:default;font-size:10px;white-space:nowrap;fill:#000000;" text-anchor="end" transform="translate(0,0) rotate(-45 41.88643436865916 193)" y="193" opacity="1">2007</text><text x="64.88108677507616" style="color:#000000;cursor:default;font-size:10px;white-space:nowrap;fill:#000000;" text-anchor="end" transform="translate(0,0) rotate(-45 64.88108677507616 193)" y="193" opacity="1">2008</text><text x="87.87573918149415" style="color:#000000;cursor:default;font-size:10px;white-space:nowrap;fill:#000000;" text-anchor="end" transform="translate(0,0) rotate(-45 87.87573918149415 193)" y="193" opacity="1">2009</text><text x="110.87039158791517" style="color:#000000;cursor:default;font-size:10px;white-space:nowrap;fill:#000000;" text-anchor="end" transform="translate(0,0) rotate(-45 110.87039158791517 193)" y="193" opacity="1">2010</text><text x="133.86504399432516" style="color:#000000;cursor:default;font-size:10px;white-space:nowrap;fill:#000000;" text-anchor="end" transform="translate(0,0) rotate(-45 133.86504399432516 193)" y="193" opacity="1">2011</text><text x="156.85969640074515" style="color:#000000;cursor:default;font-size:10px;white-space:nowrap;fill:#000000;" text-anchor="end" transform="translate(0,0) rotate(-45 156.85969640074515 193)" y="193" opacity="1">2012</text><text x="179.85434880716517" style="color:#000000;cursor:default;font-size:10px;white-space:nowrap;fill:#000000;" text-anchor="end" transform="translate(0,0) rotate(-45 179.85434880716517 193)" y="193" opacity="1">2013</text><text x="202.84900121358515" style="color:#000000;cursor:default;font-size:10px;white-space:nowrap;fill:#000000;" text-anchor="end" transform="translate(0,0) rotate(-45 202.84900121358515 193)" y="193" opacity="1">2014</text><text x="225.84365361999517" style="color:#000000;cursor:default;font-size:10px;white-space:nowrap;fill:#000000;" text-anchor="end" transform="translate(0,0) rotate(-45 225.84365361999517 193)" y="193" opacity="1">2015</text><text x="248.83830602641515" style="color:#000000;cursor:default;font-size:10px;white-space:nowrap;fill:#000000;" text-anchor="end" transform="translate(0,0) rotate(-45 248.83830602641515 193)" y="193" opacity="1">2016</text><text x="271.83295843283514" style="color:#000000;cursor:default;font-size:10px;white-space:nowrap;fill:#000000;" text-anchor="end" transform="translate(0,0) rotate(-45 271.83295843283514 193)" y="193" opacity="1">2017</text><text x="294.82761083925516" style="color:#000000;cursor:default;font-size:10px;white-space:nowrap;fill:#000000;" text-anchor="end" transform="translate(0,0) rotate(-45 294.82761083925516 193)" y="193" opacity="1">2018</text></g><g class="highcharts-axis-labels highcharts-yaxis-labels" data-z-index="7"><text x="22" style="color:#000000;cursor:default;font-size:10;fill:#000000;" text-anchor="end" transform="translate(0,0)" y="181" opacity="1">0%</text><text x="22" style="color:#000000;cursor:default;font-size:10;fill:#000000;" text-anchor="end" transform="translate(0,0)" y="160" opacity="1">5%</text><text x="22" style="color:#000000;cursor:default;font-size:10;fill:#000000;" text-anchor="end" transform="translate(0,0)" y="139" opacity="1">10%</text><text x="22" style="color:#000000;cursor:default;font-size:10;fill:#000000;" text-anchor="end" transform="translate(0,0)" y="118" opacity="1">15%</text><text x="22" style="color:#000000;cursor:default;font-size:10;fill:#000000;" text-anchor="end" transform="translate(0,0)" y="97" opacity="1">20%</text></g><text x="10" class="highcharts-credits" text-anchor="start" data-z-index="8" style="cursor:default;color:#000000;font-size:10px;fill:#000000;" y="196"><tspan>Quelle: Erziehungsdepartement Basel-Stadt, Fachstelle Lehraufsicht.</tspan><tspan x="10" dy="13">Zuletzt geändert: 2020-5-18</tspan></text><g class="highcharts-control-points" data-z-index="99" clip-path="url(#highcharts-rzzueuz-129-)"></g></svg>