<?xml version="1.0" standalone="no"?><!DOCTYPE svg PUBLIC "-//W3C//DTD SVG 1.1//EN" "http://www.w3.org/Graphics/SVG/1.1/DTD/svg11.dtd"><svg xmlns:xlink="http://www.w3.org/1999/xlink" version="1.1" class="highcharts-root" style="font-family:Arial;font-size:12px;" xmlns="http://www.w3.org/2000/svg" viewBox="0 0 485 415"><desc>Created with Highcharts 8.2.2</desc><defs><clipPath id="highcharts-c1s4dhw-37-"><rect x="0" y="0" width="257" height="103" fill="none"></rect></clipPath><clipPath id="highcharts-c1s4dhw-48-"><rect x="0" y="0" width="257" height="103" fill="none"></rect></clipPath><clipPath id="highcharts-c1s4dhw-69-"><rect x="48" y="75" width="257" height="103" fill="none"></rect></clipPath></defs><rect fill="#fbfbfb" class="highcharts-background" x="0" y="0" width="320" height="221" rx="0" ry="0"></rect><rect fill="none" class="highcharts-plot-background" x="48" y="75" width="257" height="103"></rect><g class="highcharts-pane-group" data-z-index="0"></g><g class="highcharts-grid highcharts-xaxis-grid" data-z-index="1"><path fill="none" data-z-index="1" class="highcharts-grid-line" d="M 50.5 75 L 50.5 178" opacity="1"></path><path fill="none" data-z-index="1" class="highcharts-grid-line" d="M 78.5 75 L 78.5 178" opacity="1"></path><path fill="none" data-z-index="1" class="highcharts-grid-line" d="M 106.5 75 L 106.5 178" opacity="1"></path><path fill="none" data-z-index="1" class="highcharts-grid-line" d="M 134.5 75 L 134.5 178" opacity="1"></path><path fill="none" data-z-index="1" class="highcharts-grid-line" d="M 162.5 75 L 162.5 178" opacity="1"></path><path fill="none" data-z-index="1" class="highcharts-grid-line" d="M 189.5 75 L 189.5 178" opacity="1"></path><path fill="none" data-z-index="1" class="highcharts-grid-line" d="M 217.5 75 L 217.5 178" opacity="1"></path><path fill="none" data-z-index="1" class="highcharts-grid-line" d="M 245.5 75 L 245.5 178" opacity="1"></path><path fill="none" data-z-index="1" class="highcharts-grid-line" d="M 273.5 75 L 273.5 178" opacity="1"></path><path fill="none" data-z-index="1" class="highcharts-grid-line" d="M 301.5 75 L 301.5 178" opacity="1"></path></g><g class="highcharts-grid highcharts-yaxis-grid" data-z-index="1"><path fill="none" stroke="#B9CFD7" stroke-width="0.5" data-z-index="1" class="highcharts-grid-line" d="M 48 178.25 L 305 178.25" opacity="1"></path><path fill="none" stroke="#B9CFD7" stroke-width="0.5" data-z-index="1" class="highcharts-grid-line" d="M 48 157.25 L 305 157.25" opacity="1"></path><path fill="none" stroke="#B9CFD7" stroke-width="0.5" data-z-index="1" class="highcharts-grid-line" d="M 48 137.25 L 305 137.25" opacity="1"></path><path fill="none" stroke="#B9CFD7" stroke-width="0.5" data-z-index="1" class="highcharts-grid-line" d="M 48 116.25 L 305 116.25" opacity="1"></path><path fill="none" stroke="#B9CFD7" stroke-width="0.5" data-z-index="1" class="highcharts-grid-line" d="M 48 96.25 L 305 96.25" opacity="1"></path><path fill="none" stroke="#B9CFD7" stroke-width="0.5" data-z-index="1" class="highcharts-grid-line" d="M 48 74.75 L 305 74.75" opacity="1"></path></g><rect fill="none" class="highcharts-plot-border" data-z-index="1" x="48" y="75" width="257" height="103"></rect><g class="highcharts-axis highcharts-xaxis" data-z-index="2"><path fill="none" class="highcharts-axis-line" stroke="#B9CFD7" stroke-width="0.5" data-z-index="7" d="M 48 178.25 L 305 178.25"></path></g><g class="highcharts-axis highcharts-yaxis" data-z-index="2"><path fill="none" class="highcharts-axis-line" data-z-index="7" d="M 48 75 L 48 178"></path></g><g class="highcharts-series-group" data-z-index="3"><g class="highcharts-series highcharts-series-0 highcharts-line-series" data-z-index="0.1" opacity="1" transform="translate(48,75) scale(1 1)" clip-path="url(#highcharts-c1s4dhw-48-)"><path fill="none" d="M 2.519607843135 43.55355 L 30.515250544661 43.239399999999996 L 58.510893246186 42.55445 L 86.506535947712 42.0446 L 114.50217864924 40.72105 L 142.49782135076 38.7795 L 170.49346405229 37.203599999999994 L 198.48910675381 35.797650000000004 L 226.48474945534 34.21145 L 254.48039215687 33.03725" class="highcharts-graph" data-z-index="1" stroke="#246370" stroke-width="2" stroke-linejoin="round" stroke-linecap="round"></path></g><g class="highcharts-markers highcharts-series-0 highcharts-line-series" data-z-index="0.1" opacity="1" transform="translate(48,75) scale(1 1)" clip-path="none"></g><g class="highcharts-series highcharts-series-1 highcharts-line-series" data-z-index="0.1" opacity="1" transform="translate(48,75) scale(1 1)" clip-path="url(#highcharts-c1s4dhw-48-)"><path fill="none" d="M 2.519607843135 63.57675 L 30.515250544661 63.66945 L 58.510893246186 64.169 L 86.506535947712 63.8394 L 114.50217864924 64.47285 L 142.49782135076 64.3235 L 170.49346405229 64.46255 L 198.48910675381 64.50375 L 226.48474945534 64.36985 L 254.48039215687 64.0763" class="highcharts-graph" data-z-index="1" stroke="#B00000" stroke-width="2" stroke-linejoin="round" stroke-linecap="round"></path></g><g class="highcharts-markers highcharts-series-1 highcharts-line-series" data-z-index="0.1" opacity="1" transform="translate(48,75) scale(1 1)" clip-path="none"></g><g class="highcharts-series highcharts-series-2 highcharts-line-series" data-z-index="0.1" opacity="1" transform="translate(48,75) scale(1 1)" clip-path="url(#highcharts-c1s4dhw-48-)"><path fill="none" d="M 2.519607843135 6.798000000000002 L 30.515250544661 7.276949999999999 L 58.510893246186 7.173950000000005 L 86.506535947712 7.045199999999994 L 114.50217864924 8.47175 L 142.49782135076 10.047650000000004 L 170.49346405229 11.134299999999996 L 198.48910675381 12.663849999999996 L 226.48474945534 13.20975 L 254.48039215687 15.367599999999996" class="highcharts-graph" data-z-index="1" stroke="#CD9C00" stroke-width="2" stroke-linejoin="round" stroke-linecap="round"></path></g><g class="highcharts-markers highcharts-series-2 highcharts-line-series" data-z-index="0.1" opacity="1" transform="translate(48,75) scale(1 1)" clip-path="none"></g></g><text x="2" text-anchor="start" class="highcharts-title" data-z-index="4" style="color:#000000;font-size:10px;font-weight:bold;fill:#000000;" y="9"><tspan>Entwicklung der Bevölkerung unter 25 Jahren nach</tspan><tspan dy="13" x="2">Altersgruppe</tspan></text><text x="2" text-anchor="start" class="highcharts-subtitle" data-z-index="4" style="color:#000000;font-size:10px;font-weight:normal;font-family:Arial;fill:#000000;" y="38"><tspan>Basel-Stadt</tspan></text><text x="2" text-anchor="start" class="highcharts-caption" data-z-index="4" style="color:#666666;fill:#666666;" y="221"></text><g class="highcharts-legend" data-z-index="7" transform="translate(48,52)"><rect fill="none" class="highcharts-legend-box" rx="0" ry="0" x="0" y="0" width="205" height="11" visibility="visible"></rect><g data-z-index="1"><g><g class="highcharts-legend-item highcharts-line-series highcharts-color-undefined highcharts-series-0" data-z-index="1" transform="translate(0,-5)"><path fill="none" d="M 0 10 L 16 10" class="highcharts-graph" stroke="#246370" stroke-width="2"></path><text x="21" style="color:#333333;cursor:pointer;font-size:10px;font-weight:normal;fill:#333333;" text-anchor="start" data-z-index="2" y="13"><tspan>5-12 J.</tspan></text></g><g class="highcharts-legend-item highcharts-line-series highcharts-color-undefined highcharts-series-1" data-z-index="1" transform="translate(71.5,-5)"><path fill="none" d="M 0 10 L 16 10" class="highcharts-graph" stroke="#B00000" stroke-width="2"></path><text x="21" y="13" style="color:#333333;cursor:pointer;font-size:10px;font-weight:normal;fill:#333333;" text-anchor="start" data-z-index="2"><tspan>13-17 J.</tspan></text></g><g class="highcharts-legend-item highcharts-line-series highcharts-color-undefined highcharts-series-2" data-z-index="1" transform="translate(148.546875,-5)"><path fill="none" d="M 0 10 L 16 10" class="highcharts-graph" stroke="#CD9C00" stroke-width="2"></path><text x="21" y="13" style="color:#333333;cursor:pointer;font-size:10px;font-weight:normal;fill:#333333;" text-anchor="start" data-z-index="2"><tspan>18-25 J.</tspan></text></g></g></g></g><g class="highcharts-axis-labels highcharts-xaxis-labels" data-z-index="7"><text x="52.87663044709016" style="color:#000000;cursor:default;font-size:10px;white-space:nowrap;fill:#000000;" text-anchor="end" transform="translate(0,0) rotate(-45 52.87663044709016 193)" y="193" opacity="1">2010</text><text x="80.87227314861616" style="color:#000000;cursor:default;font-size:10px;white-space:nowrap;fill:#000000;" text-anchor="end" transform="translate(0,0) rotate(-45 80.87227314861616 193)" y="193" opacity="1">2011</text><text x="108.86791585014515" style="color:#000000;cursor:default;font-size:10px;white-space:nowrap;fill:#000000;" text-anchor="end" transform="translate(0,0) rotate(-45 108.86791585014515 193)" y="193" opacity="1">2012</text><text x="136.86355855166516" style="color:#000000;cursor:default;font-size:10px;white-space:nowrap;fill:#000000;" text-anchor="end" transform="translate(0,0) rotate(-45 136.86355855166516 193)" y="193" opacity="1">2013</text><text x="164.85920125319515" style="color:#000000;cursor:default;font-size:10px;white-space:nowrap;fill:#000000;" text-anchor="end" transform="translate(0,0) rotate(-45 164.85920125319515 193)" y="193" opacity="1">2014</text><text x="192.85484395471516" style="color:#000000;cursor:default;font-size:10px;white-space:nowrap;fill:#000000;" text-anchor="end" transform="translate(0,0) rotate(-45 192.85484395471516 193)" y="193" opacity="1">2015</text><text x="220.85048665624515" style="color:#000000;cursor:default;font-size:10px;white-space:nowrap;fill:#000000;" text-anchor="end" transform="translate(0,0) rotate(-45 220.85048665624515 193)" y="193" opacity="1">2016</text><text x="248.84612935776516" style="color:#000000;cursor:default;font-size:10px;white-space:nowrap;fill:#000000;" text-anchor="end" transform="translate(0,0) rotate(-45 248.84612935776516 193)" y="193" opacity="1">2017</text><text x="276.8417720592952" style="color:#000000;cursor:default;font-size:10px;white-space:nowrap;fill:#000000;" text-anchor="end" transform="translate(0,0) rotate(-45 276.8417720592952 193)" y="193" opacity="1">2018</text><text x="304.83741476082514" style="color:#000000;cursor:default;font-size:10px;white-space:nowrap;fill:#000000;" text-anchor="end" transform="translate(0,0) rotate(-45 304.83741476082514 193)" y="193" opacity="1">2019</text></g><g class="highcharts-axis-labels highcharts-yaxis-labels" data-z-index="7"><text x="33" style="color:#000000;cursor:default;font-size:10px;fill:#000000;" text-anchor="end" transform="translate(0,0)" y="181" opacity="1">0</text><text x="33" style="color:#000000;cursor:default;font-size:10px;fill:#000000;" text-anchor="end" transform="translate(0,0)" y="160" opacity="1"><tspan>4 000</tspan></text><text x="33" style="color:#000000;cursor:default;font-size:10px;fill:#000000;" text-anchor="end" transform="translate(0,0)" y="140" opacity="1"><tspan>8 000</tspan></text><text x="33" style="color:#000000;cursor:default;font-size:10px;fill:#000000;" text-anchor="end" transform="translate(0,0)" y="119" opacity="1"><tspan>12 000</tspan></text><text x="33" style="color:#000000;cursor:default;font-size:10px;fill:#000000;" text-anchor="end" transform="translate(0,0)" y="99" opacity="1"><tspan>16 000</tspan></text><text x="33" style="color:#000000;cursor:default;font-size:10px;fill:#000000;" text-anchor="end" transform="translate(0,0)" y="78" opacity="1"><tspan>20 000</tspan></text></g><text x="10" class="highcharts-credits" text-anchor="start" data-z-index="8" style="cursor:default;color:#000000;font-size:10px;fill:#000000;" y="196"><tspan>Quelle: Statistisches Amt Basel-Stadt, Bevölkerungsstatistik.</tspan><tspan x="10" dy="13">Zuletzt geändert: 2020-5-18</tspan></text><g class="highcharts-control-points" data-z-index="99" clip-path="url(#highcharts-c1s4dhw-69-)"></g></svg>