<?xml version="1.0" standalone="no"?><!DOCTYPE svg PUBLIC "-//W3C//DTD SVG 1.1//EN" "http://www.w3.org/Graphics/SVG/1.1/DTD/svg11.dtd"><svg xmlns:xlink="http://www.w3.org/1999/xlink" version="1.1" class="highcharts-root" style="font-family:Arial;font-size:12px;" xmlns="http://www.w3.org/2000/svg" viewBox="0 0 485 415"><desc>Created with Highstock 6.1.1</desc><defs><clipPath id="highcharts-gdsf2nf-6"><rect x="0" y="0" width="143" height="213" fill="none"></rect></clipPath><clipPath id="highcharts-gdsf2nf-7"><rect x="0" y="0" width="143" height="213" fill="none"></rect></clipPath></defs><rect fill="#fbfbfb" class="highcharts-background" x="0" y="0" width="320" height="221" rx="0" ry="0"></rect><rect fill="none" class="highcharts-plot-background" x="105" y="48" width="213" height="143"></rect><g class="highcharts-pane-group" data-z-index="0"></g><g class="highcharts-grid highcharts-xaxis-grid " data-z-index="1"><path fill="none" data-z-index="1" class="highcharts-grid-line" d="M 105 51.5 L 318 51.5" opacity="1"></path><path fill="none" data-z-index="1" class="highcharts-grid-line" d="M 105 65.5 L 318 65.5" opacity="1"></path><path fill="none" data-z-index="1" class="highcharts-grid-line" d="M 105 79.5 L 318 79.5" opacity="1"></path><path fill="none" data-z-index="1" class="highcharts-grid-line" d="M 105 92.5 L 318 92.5" opacity="1"></path><path fill="none" data-z-index="1" class="highcharts-grid-line" d="M 105 106.5 L 318 106.5" opacity="1"></path><path fill="none" data-z-index="1" class="highcharts-grid-line" d="M 105 119.5 L 318 119.5" opacity="1"></path><path fill="none" data-z-index="1" class="highcharts-grid-line" d="M 105 133.5 L 318 133.5" opacity="1"></path><path fill="none" data-z-index="1" class="highcharts-grid-line" d="M 105 147.5 L 318 147.5" opacity="1"></path><path fill="none" data-z-index="1" class="highcharts-grid-line" d="M 105 160.5 L 318 160.5" opacity="1"></path><path fill="none" data-z-index="1" class="highcharts-grid-line" d="M 105 174.5 L 318 174.5" opacity="1"></path><path fill="none" data-z-index="1" class="highcharts-grid-line" d="M 105 188.5 L 318 188.5" opacity="1"></path></g><g class="highcharts-grid highcharts-yaxis-grid " data-z-index="1"><path fill="none" stroke="#B9CFD7" stroke-width="0.5" data-z-index="1" class="highcharts-grid-line" d="M 104.75 48 L 104.75 191" opacity="1"></path><path fill="none" stroke="#B9CFD7" stroke-width="0.5" data-z-index="1" class="highcharts-grid-line" d="M 147.75 48 L 147.75 191" opacity="1"></path><path fill="none" stroke="#B9CFD7" stroke-width="0.5" data-z-index="1" class="highcharts-grid-line" d="M 189.75 48 L 189.75 191" opacity="1"></path><path fill="none" stroke="#B9CFD7" stroke-width="0.5" data-z-index="1" class="highcharts-grid-line" d="M 232.75 48 L 232.75 191" opacity="1"></path><path fill="none" stroke="#B9CFD7" stroke-width="0.5" data-z-index="1" class="highcharts-grid-line" d="M 274.75 48 L 274.75 191" opacity="1"></path><path fill="none" stroke="#B9CFD7" stroke-width="0.5" data-z-index="1" class="highcharts-grid-line" d="M 318.25 48 L 318.25 191" opacity="1"></path></g><rect fill="none" class="highcharts-plot-border" data-z-index="1" x="105" y="48" width="213" height="143"></rect><g class="highcharts-axis highcharts-xaxis " data-z-index="2"><path fill="none" class="highcharts-axis-line" stroke="#B9CFD7" stroke-width="0.5" data-z-index="7" d="M 104.75 48 L 104.75 191"></path></g><g class="highcharts-axis highcharts-yaxis " data-z-index="2"><path fill="none" class="highcharts-axis-line" data-z-index="7" d="M 105 191 L 318 191"></path></g><g class="highcharts-series-group" data-z-index="3"><g data-z-index="0.1" class="highcharts-series highcharts-series-0 highcharts-scatter-series " transform="translate(318,191) rotate(90) scale(-1,1) scale(1 1)" clip-path="url(#highcharts-gdsf2nf-7)"></g><g data-z-index="0.1" class="highcharts-markers highcharts-series-0 highcharts-scatter-series " transform="translate(318,191) rotate(90) scale(-1,1) scale(1 1)" clip-path="none"><path fill="#68AB2B" d="M 143 199 A 4 4 0 1 1 142.99999800000018 198.99600000066667 Z" class="highcharts-point"></path><path fill="#68AB2B" d="M 136 196 A 4 4 0 1 1 135.99999800000018 195.99600000066667 Z" class="highcharts-point"></path><path fill="#68AB2B" d="M 129 187 A 4 4 0 1 1 128.99999800000018 186.99600000066667 Z" class="highcharts-point"></path><path fill="#68AB2B" d="M 123 182 A 4 4 0 1 1 122.99999800000016 181.99600000066667 Z" class="highcharts-point"></path><path fill="#68AB2B" d="M 116 179 A 4 4 0 1 1 115.99999800000016 178.99600000066667 Z" class="highcharts-point"></path><path fill="#68AB2B" d="M 109 178 A 4 4 0 1 1 108.99999800000016 177.99600000066667 Z" class="highcharts-point"></path><path fill="#68AB2B" d="M 102 175 A 4 4 0 1 1 101.99999800000016 174.99600000066667 Z" class="highcharts-point"></path><path fill="#68AB2B" d="M 95 172 A 4 4 0 1 1 94.99999800000016 171.99600000066667 Z" class="highcharts-point"></path><path fill="#68AB2B" d="M 89 165 A 4 4 0 1 1 88.99999800000016 164.99600000066667 Z" class="highcharts-point"></path><path fill="#68AB2B" d="M 82 162 A 4 4 0 1 1 81.99999800000016 161.99600000066667 Z" class="highcharts-point"></path><path fill="#68AB2B" d="M 75 154 A 4 4 0 1 1 74.99999800000016 153.99600000066667 Z" class="highcharts-point"></path><path fill="#68AB2B" d="M 68 153 A 4 4 0 1 1 67.99999800000016 152.99600000066667 Z" class="highcharts-point"></path><path fill="#68AB2B" d="M 61 145 A 4 4 0 1 1 60.99999800000017 144.99600000066667 Z" class="highcharts-point"></path><path fill="#68AB2B" d="M 55 144 A 4 4 0 1 1 54.99999800000017 143.99600000066667 Z" class="highcharts-point"></path><path fill="#68AB2B" d="M 48 136 A 4 4 0 1 1 47.99999800000017 135.99600000066667 Z" class="highcharts-point"></path><path fill="#68AB2B" d="M 41 134 A 4 4 0 1 1 40.99999800000017 133.99600000066667 Z" class="highcharts-point"></path><path fill="#68AB2B" d="M 34 125 A 4 4 0 1 1 33.99999800000017 124.99600000066667 Z" class="highcharts-point"></path><path fill="#68AB2B" d="M 27 86 A 4 4 0 1 1 26.99999800000017 85.99600000066667 Z" class="highcharts-point"></path><path fill="#68AB2B" d="M 21 61 A 4 4 0 1 1 20.99999800000017 60.99600000066666 Z" class="highcharts-point"></path><path fill="#68AB2B" d="M 14 43 A 4 4 0 1 1 13.999998000000167 42.99600000066666 Z" class="highcharts-point"></path><path fill="#68AB2B" d="M 7 21 A 4 4 0 1 1 6.999998000000167 20.996000000666665 Z" class="highcharts-point"></path></g><g data-z-index="0.1" class="highcharts-series highcharts-series-1 highcharts-scatter-series highcharts-color-0 " visibility="hidden" transform="translate(318,191) rotate(90) scale(-1,1) scale(1 1)" clip-path="url(#highcharts-gdsf2nf-7)"></g><g data-z-index="0.1" class="highcharts-markers highcharts-series-1 highcharts-scatter-series highcharts-color-0 " visibility="hidden" transform="translate(318,191) rotate(90) scale(-1,1) scale(1 1)" clip-path="none"></g></g><text x="2" text-anchor="start" class="highcharts-title" data-z-index="4" style="color:#000000;font-size:14px;font-weight:bold;font-family:Arial;fill:#000000;" y="13"><tspan>Anteil Grünflächen</tspan></text><text x="2" text-anchor="start" class="highcharts-subtitle" data-z-index="4" style="color:#000000;font-size:12px;font-weight:normal;font-family:Arial;fill:#000000;" y="32"><tspan>Basel-Stadt, 2019</tspan></text><g class="highcharts-axis-labels highcharts-xaxis-labels " data-z-index="7"><text x="90" style="color:#000000;cursor:default;font-size:10px;fill:#000000;" text-anchor="end" transform="translate(0,0)" y="55" opacity="1"><tspan>Altstadt Grossbasel</tspan></text><text x="90" style="color:#000000;cursor:default;font-size:10px;fill:#000000;" text-anchor="end" transform="translate(0,0)" y="69" opacity="1">Klybeck</text><text x="90" style="color:#000000;cursor:default;font-size:10px;fill:#000000;" text-anchor="end" transform="translate(0,0)" y="82" opacity="1">Clara</text><text x="90" style="color:#000000;cursor:default;font-size:10px;fill:#000000;" text-anchor="end" transform="translate(0,0)" y="96" opacity="1">Gundeldingen</text><text x="90" style="color:#000000;cursor:default;font-size:10px;fill:#000000;" text-anchor="end" transform="translate(0,0)" y="109" opacity="1">Kleinhüningen</text><text x="90" style="color:#000000;cursor:default;font-size:10px;fill:#000000;" text-anchor="end" transform="translate(0,0)" y="123" opacity="1">Wettstein</text><text x="90" style="color:#000000;cursor:default;font-size:10px;fill:#000000;" text-anchor="end" transform="translate(0,0)" y="137" opacity="1">Gotthelf</text><text x="90" style="color:#000000;cursor:default;font-size:10px;fill:#000000;" text-anchor="end" transform="translate(0,0)" y="150" opacity="1">Breite</text><text x="90" style="color:#000000;cursor:default;font-size:10px;fill:#000000;" text-anchor="end" transform="translate(0,0)" y="164" opacity="1">Bachletten</text><text x="90" style="color:#000000;cursor:default;font-size:10px;fill:#000000;" text-anchor="end" transform="translate(0,0)" y="177" opacity="1">Bruderholz</text><text x="90" style="color:#000000;cursor:default;font-size:10px;fill:#000000;" text-anchor="end" transform="translate(0,0)" y="191" opacity="1">Bettingen</text></g><g class="highcharts-axis-labels highcharts-yaxis-labels " data-z-index="7"><text x="105" style="color:#000000;cursor:default;font-size:11px;fill:#000000;" text-anchor="middle" transform="translate(0,0)" y="206" opacity="1">0%</text><text x="147.6" style="color:#000000;cursor:default;font-size:11px;fill:#000000;" text-anchor="middle" transform="translate(0,0)" y="206" opacity="1">20%</text><text x="190.2" style="color:#000000;cursor:default;font-size:11px;fill:#000000;" text-anchor="middle" transform="translate(0,0)" y="206" opacity="1">40%</text><text x="232.8" style="color:#000000;cursor:default;font-size:11px;fill:#000000;" text-anchor="middle" transform="translate(0,0)" y="206" opacity="1">60%</text><text x="275.4" style="color:#000000;cursor:default;font-size:11px;fill:#000000;" text-anchor="middle" transform="translate(0,0)" y="206" opacity="1">80%</text><text x="307.35" style="color:#000000;cursor:default;font-size:11px;fill:#000000;" text-anchor="middle" transform="translate(0,0)" y="206" opacity="1"><tspan>1…</tspan><title>100%</title></text></g><text x="10" class="highcharts-credits" text-anchor="start" data-z-index="8" style="cursor:default;color:#000000;font-size:10px;fill:#000000;" y="196"><tspan>Quelle: Grundbuch- und Vermessungsamt Basel-Stadt.</tspan><tspan x="10" dy="13">Zuletzt geändert: 2019-5-14</tspan></text></svg>