<?xml version="1.0" standalone="no"?><!DOCTYPE svg PUBLIC "-//W3C//DTD SVG 1.1//EN" "http://www.w3.org/Graphics/SVG/1.1/DTD/svg11.dtd"><svg xmlns:xlink="http://www.w3.org/1999/xlink" version="1.1" class="highcharts-root" style="font-family:Arial;font-size:12px;" xmlns="http://www.w3.org/2000/svg" viewBox="0 0 485 415"><desc>Created with Highcharts 8.1.2</desc><defs><clipPath id="highcharts-89c2u0r-157-"><rect x="0" y="0" width="601" height="62" fill="none"></rect></clipPath><clipPath id="highcharts-89c2u0r-183-"><rect x="0" y="0" width="601" height="62" fill="none"></rect></clipPath><clipPath id="highcharts-89c2u0r-309-"><rect x="54" y="91" width="601" height="62" fill="none"></rect></clipPath></defs><rect fill="#fbfbfb" class="highcharts-background" x="0" y="0" width="665" height="283" rx="0" ry="0"></rect><rect fill="none" class="highcharts-plot-background" x="54" y="91" width="601" height="62"></rect><g class="highcharts-pane-group" data-z-index="0"></g><g class="highcharts-grid highcharts-xaxis-grid" data-z-index="1"><path fill="none" data-z-index="1" class="highcharts-grid-line" d="M 77.5 91 L 77.5 153" opacity="1"></path><path fill="none" data-z-index="1" class="highcharts-grid-line" d="M 101.5 91 L 101.5 153" opacity="1"></path><path fill="none" data-z-index="1" class="highcharts-grid-line" d="M 125.5 91 L 125.5 153" opacity="1"></path><path fill="none" data-z-index="1" class="highcharts-grid-line" d="M 149.5 91 L 149.5 153" opacity="1"></path><path fill="none" data-z-index="1" class="highcharts-grid-line" d="M 173.5 91 L 173.5 153" opacity="1"></path><path fill="none" data-z-index="1" class="highcharts-grid-line" d="M 197.5 91 L 197.5 153" opacity="1"></path><path fill="none" data-z-index="1" class="highcharts-grid-line" d="M 221.5 91 L 221.5 153" opacity="1"></path><path fill="none" data-z-index="1" class="highcharts-grid-line" d="M 245.5 91 L 245.5 153" opacity="1"></path><path fill="none" data-z-index="1" class="highcharts-grid-line" d="M 269.5 91 L 269.5 153" opacity="1"></path><path fill="none" data-z-index="1" class="highcharts-grid-line" d="M 293.5 91 L 293.5 153" opacity="1"></path><path fill="none" data-z-index="1" class="highcharts-grid-line" d="M 317.5 91 L 317.5 153" opacity="1"></path><path fill="none" data-z-index="1" class="highcharts-grid-line" d="M 341.5 91 L 341.5 153" opacity="1"></path><path fill="none" data-z-index="1" class="highcharts-grid-line" d="M 366.5 91 L 366.5 153" opacity="1"></path><path fill="none" data-z-index="1" class="highcharts-grid-line" d="M 390.5 91 L 390.5 153" opacity="1"></path><path fill="none" data-z-index="1" class="highcharts-grid-line" d="M 414.5 91 L 414.5 153" opacity="1"></path><path fill="none" data-z-index="1" class="highcharts-grid-line" d="M 438.5 91 L 438.5 153" opacity="1"></path><path fill="none" data-z-index="1" class="highcharts-grid-line" d="M 462.5 91 L 462.5 153" opacity="1"></path><path fill="none" data-z-index="1" class="highcharts-grid-line" d="M 486.5 91 L 486.5 153" opacity="1"></path><path fill="none" data-z-index="1" class="highcharts-grid-line" d="M 510.5 91 L 510.5 153" opacity="1"></path><path fill="none" data-z-index="1" class="highcharts-grid-line" d="M 534.5 91 L 534.5 153" opacity="1"></path><path fill="none" data-z-index="1" class="highcharts-grid-line" d="M 558.5 91 L 558.5 153" opacity="1"></path><path fill="none" data-z-index="1" class="highcharts-grid-line" d="M 582.5 91 L 582.5 153" opacity="1"></path><path fill="none" data-z-index="1" class="highcharts-grid-line" d="M 606.5 91 L 606.5 153" opacity="1"></path><path fill="none" data-z-index="1" class="highcharts-grid-line" d="M 630.5 91 L 630.5 153" opacity="1"></path><path fill="none" data-z-index="1" class="highcharts-grid-line" d="M 654.5 91 L 654.5 153" opacity="1"></path><path fill="none" data-z-index="1" class="highcharts-grid-line" d="M 53.5 91 L 53.5 153" opacity="1"></path></g><g class="highcharts-grid highcharts-yaxis-grid" data-z-index="1"><path fill="none" stroke="#B9CFD7" stroke-width="0.5" data-z-index="1" class="highcharts-grid-line" d="M 54 153.25 L 655 153.25" opacity="1"></path><path fill="none" stroke="#B9CFD7" stroke-width="0.5" data-z-index="1" class="highcharts-grid-line" d="M 54 132.25 L 655 132.25" opacity="1"></path><path fill="none" stroke="#B9CFD7" stroke-width="0.5" data-z-index="1" class="highcharts-grid-line" d="M 54 112.25 L 655 112.25" opacity="1"></path><path fill="none" stroke="#B9CFD7" stroke-width="0.5" data-z-index="1" class="highcharts-grid-line" d="M 54 90.75 L 655 90.75" opacity="1"></path></g><rect fill="none" class="highcharts-plot-border" data-z-index="1" x="54" y="91" width="601" height="62"></rect><g class="highcharts-axis highcharts-xaxis" data-z-index="2"><path fill="none" class="highcharts-axis-line" stroke="#B9CFD7" stroke-width="0.5" data-z-index="7" d="M 54 153.25 L 655 153.25"></path></g><g class="highcharts-axis highcharts-yaxis" data-z-index="2"><path fill="none" class="highcharts-axis-line" data-z-index="7" d="M 54 91 L 54 153"></path></g><g class="highcharts-series-group" data-z-index="3"><g class="highcharts-series highcharts-series-0 highcharts-column-series" data-z-index="0.1" opacity="1" transform="translate(54,91) scale(1 1)" clip-path="url(#highcharts-89c2u0r-183-)"><rect x="30" y="61" width="12" height="2" fill="#083038" opacity="1" class="highcharts-point"></rect><rect x="54" y="61" width="12" height="2" fill="#083038" opacity="1" class="highcharts-point"></rect><rect x="102" y="62" width="12" height="1" fill="#083038" opacity="1" class="highcharts-point"></rect><rect x="126" y="61" width="12" height="2" fill="#083038" opacity="1" class="highcharts-point"></rect><rect x="175" y="61" width="12" height="2" fill="#083038" opacity="1" class="highcharts-point"></rect><rect x="199" y="61" width="12" height="2" fill="#083038" opacity="1" class="highcharts-point"></rect><rect x="223" y="62" width="12" height="1" fill="#083038" opacity="1" class="highcharts-point"></rect><rect x="271" y="61" width="12" height="2" fill="#083038" opacity="1" class="highcharts-point"></rect><rect x="295" y="61" width="12" height="2" fill="#083038" opacity="1" class="highcharts-point"></rect><rect x="343" y="61" width="12" height="2" fill="#083038" opacity="1" class="highcharts-point"></rect><rect x="367" y="61" width="12" height="2" fill="#083038" opacity="1" class="highcharts-point"></rect><rect x="391" y="61" width="12" height="2" fill="#083038" opacity="1" class="highcharts-point"></rect><rect x="439" y="62" width="12" height="1" fill="#083038" opacity="1" class="highcharts-point"></rect><rect x="463" y="61" width="12" height="2" fill="#083038" opacity="1" class="highcharts-point"></rect><rect x="487" y="61" width="12" height="2" fill="#083038" opacity="1" class="highcharts-point"></rect><rect x="511" y="62" width="12" height="1" fill="#083038" opacity="1" class="highcharts-point"></rect><rect x="559" y="62" width="12" height="1" fill="#083038" opacity="1" class="highcharts-point"></rect><rect x="583" y="61" width="12" height="2" fill="#083038" opacity="1" class="highcharts-point"></rect></g><g class="highcharts-markers highcharts-series-0 highcharts-column-series" data-z-index="0.1" opacity="1" transform="translate(54,91) scale(1 1)" clip-path="none"></g><g class="highcharts-series highcharts-series-1 highcharts-column-series" data-z-index="0.1" opacity="1" transform="translate(54,91) scale(1 1)" clip-path="url(#highcharts-89c2u0r-183-)"><rect x="30" y="52" width="12" height="9" fill="#A8C3CA" opacity="1" class="highcharts-point"></rect><rect x="54" y="53" width="12" height="8" fill="#A8C3CA" opacity="1" class="highcharts-point"></rect><rect x="102" y="53" width="12" height="9" fill="#A8C3CA" opacity="1" class="highcharts-point"></rect><rect x="126" y="52" width="12" height="9" fill="#A8C3CA" opacity="1" class="highcharts-point"></rect><rect x="175" y="50" width="12" height="11" fill="#A8C3CA" opacity="1" class="highcharts-point"></rect><rect x="199" y="51" width="12" height="10" fill="#A8C3CA" opacity="1" class="highcharts-point"></rect><rect x="223" y="57" width="12" height="5" fill="#A8C3CA" opacity="1" class="highcharts-point"></rect><rect x="271" y="52" width="12" height="9" fill="#A8C3CA" opacity="1" class="highcharts-point"></rect><rect x="295" y="54" width="12" height="7" fill="#A8C3CA" opacity="1" class="highcharts-point"></rect><rect x="343" y="53" width="12" height="8" fill="#A8C3CA" opacity="1" class="highcharts-point"></rect><rect x="367" y="52" width="12" height="9" fill="#A8C3CA" opacity="1" class="highcharts-point"></rect><rect x="391" y="51" width="12" height="10" fill="#A8C3CA" opacity="1" class="highcharts-point"></rect><rect x="439" y="53" width="12" height="9" fill="#A8C3CA" opacity="1" class="highcharts-point"></rect><rect x="463" y="52" width="12" height="9" fill="#A8C3CA" opacity="1" class="highcharts-point"></rect><rect x="487" y="52" width="12" height="9" fill="#A8C3CA" opacity="1" class="highcharts-point"></rect><rect x="511" y="52" width="12" height="10" fill="#A8C3CA" opacity="1" class="highcharts-point"></rect><rect x="559" y="56" width="12" height="6" fill="#A8C3CA" opacity="1" class="highcharts-point"></rect><rect x="583" y="53" width="12" height="8" fill="#A8C3CA" opacity="1" class="highcharts-point"></rect></g><g class="highcharts-markers highcharts-series-1 highcharts-column-series" data-z-index="0.1" opacity="1" transform="translate(54,91) scale(1 1)" clip-path="none"></g><g class="highcharts-series highcharts-series-2 highcharts-column-series" data-z-index="0.1" opacity="1" transform="translate(54,91) scale(1 1)" clip-path="url(#highcharts-89c2u0r-183-)"><rect x="30" y="45" width="12" height="7" fill="#FFBB58" opacity="1" class="highcharts-point"></rect><rect x="54" y="43" width="12" height="10" fill="#FFBB58" opacity="1" class="highcharts-point"></rect><rect x="102" y="44" width="12" height="9" fill="#FFBB58" opacity="1" class="highcharts-point"></rect><rect x="126" y="44" width="12" height="8" fill="#FFBB58" opacity="1" class="highcharts-point"></rect><rect x="175" y="38" width="12" height="12" fill="#FFBB58" opacity="1" class="highcharts-point"></rect><rect x="199" y="42" width="12" height="9" fill="#FFBB58" opacity="1" class="highcharts-point"></rect><rect x="223" y="52" width="12" height="5" fill="#FFBB58" opacity="1" class="highcharts-point"></rect><rect x="271" y="44" width="12" height="8" fill="#FFBB58" opacity="1" class="highcharts-point"></rect><rect x="295" y="46" width="12" height="8" fill="#FFBB58" opacity="1" class="highcharts-point"></rect><rect x="343" y="46" width="12" height="7" fill="#FFBB58" opacity="1" class="highcharts-point"></rect><rect x="367" y="43" width="12" height="9" fill="#FFBB58" opacity="1" class="highcharts-point"></rect><rect x="391" y="41" width="12" height="10" fill="#FFBB58" opacity="1" class="highcharts-point"></rect><rect x="439" y="44" width="12" height="9" fill="#FFBB58" opacity="1" class="highcharts-point"></rect><rect x="463" y="43" width="12" height="9" fill="#FFBB58" opacity="1" class="highcharts-point"></rect><rect x="487" y="43" width="12" height="9" fill="#FFBB58" opacity="1" class="highcharts-point"></rect><rect x="511" y="44" width="12" height="8" fill="#FFBB58" opacity="1" class="highcharts-point"></rect><rect x="559" y="50" width="12" height="6" fill="#FFBB58" opacity="1" class="highcharts-point"></rect><rect x="583" y="44" width="12" height="9" fill="#FFBB58" opacity="1" class="highcharts-point"></rect></g><g class="highcharts-markers highcharts-series-2 highcharts-column-series" data-z-index="0.1" opacity="1" transform="translate(54,91) scale(1 1)" clip-path="none"></g><g class="highcharts-series highcharts-series-3 highcharts-column-series" data-z-index="0.1" opacity="1" transform="translate(54,91) scale(1 1)" clip-path="url(#highcharts-89c2u0r-183-)"><rect x="30" y="27" width="12" height="18" fill="#B00000" opacity="1" class="highcharts-point"></rect><rect x="54" y="24" width="12" height="19" fill="#B00000" opacity="1" class="highcharts-point"></rect><rect x="102" y="23" width="12" height="21" fill="#B00000" opacity="1" class="highcharts-point"></rect><rect x="126" y="27" width="12" height="17" fill="#B00000" opacity="1" class="highcharts-point"></rect><rect x="175" y="20" width="12" height="18" fill="#B00000" opacity="1" class="highcharts-point"></rect><rect x="199" y="23" width="12" height="19" fill="#B00000" opacity="1" class="highcharts-point"></rect><rect x="223" y="34" width="12" height="18" fill="#B00000" opacity="1" class="highcharts-point"></rect><rect x="271" y="25" width="12" height="19" fill="#B00000" opacity="1" class="highcharts-point"></rect><rect x="295" y="23" width="12" height="23" fill="#B00000" opacity="1" class="highcharts-point"></rect><rect x="343" y="27" width="12" height="19" fill="#B00000" opacity="1" class="highcharts-point"></rect><rect x="367" y="23" width="12" height="20" fill="#B00000" opacity="1" class="highcharts-point"></rect><rect x="391" y="22" width="12" height="19" fill="#B00000" opacity="1" class="highcharts-point"></rect><rect x="439" y="25" width="12" height="19" fill="#B00000" opacity="1" class="highcharts-point"></rect><rect x="463" y="24" width="12" height="19" fill="#B00000" opacity="1" class="highcharts-point"></rect><rect x="487" y="27" width="12" height="16" fill="#B00000" opacity="1" class="highcharts-point"></rect><rect x="511" y="25" width="12" height="19" fill="#B00000" opacity="1" class="highcharts-point"></rect><rect x="559" y="30" width="12" height="20" fill="#B00000" opacity="1" class="highcharts-point"></rect><rect x="583" y="25" width="12" height="19" fill="#B00000" opacity="1" class="highcharts-point"></rect></g><g class="highcharts-markers highcharts-series-3 highcharts-column-series" data-z-index="0.1" opacity="1" transform="translate(54,91) scale(1 1)" clip-path="none"></g><g class="highcharts-series highcharts-series-4 highcharts-column-series" data-z-index="0.1" opacity="1" transform="translate(54,91) scale(1 1)" clip-path="url(#highcharts-89c2u0r-183-)"><rect x="30" y="22" width="12" height="5" fill="#C8C8C8" opacity="1" class="highcharts-point"></rect><rect x="54" y="21" width="12" height="3" fill="#C8C8C8" opacity="1" class="highcharts-point"></rect><rect x="102" y="20" width="12" height="3" fill="#C8C8C8" opacity="1" class="highcharts-point"></rect><rect x="126" y="23" width="12" height="4" fill="#C8C8C8" opacity="1" class="highcharts-point"></rect><rect x="175" y="17" width="12" height="3" fill="#C8C8C8" opacity="1" class="highcharts-point"></rect><rect x="199" y="19" width="12" height="4" fill="#C8C8C8" opacity="1" class="highcharts-point"></rect><rect x="223" y="29" width="12" height="5" fill="#C8C8C8" opacity="1" class="highcharts-point"></rect><rect x="271" y="22" width="12" height="3" fill="#C8C8C8" opacity="1" class="highcharts-point"></rect><rect x="295" y="18" width="12" height="5" fill="#C8C8C8" opacity="1" class="highcharts-point"></rect><rect x="343" y="22" width="12" height="5" fill="#C8C8C8" opacity="1" class="highcharts-point"></rect><rect x="367" y="21" width="12" height="2" fill="#C8C8C8" opacity="1" class="highcharts-point"></rect><rect x="391" y="19" width="12" height="3" fill="#C8C8C8" opacity="1" class="highcharts-point"></rect><rect x="439" y="20" width="12" height="5" fill="#C8C8C8" opacity="1" class="highcharts-point"></rect><rect x="463" y="21" width="12" height="3" fill="#C8C8C8" opacity="1" class="highcharts-point"></rect><rect x="487" y="22" width="12" height="5" fill="#C8C8C8" opacity="1" class="highcharts-point"></rect><rect x="511" y="22" width="12" height="3" fill="#C8C8C8" opacity="1" class="highcharts-point"></rect><rect x="559" y="26" width="12" height="4" fill="#C8C8C8" opacity="1" class="highcharts-point"></rect><rect x="583" y="21" width="12" height="4" fill="#C8C8C8" opacity="1" class="highcharts-point"></rect></g><g class="highcharts-markers highcharts-series-4 highcharts-column-series" data-z-index="0.1" opacity="1" transform="translate(54,91) scale(1 1)" clip-path="none"></g><g class="highcharts-series highcharts-series-5 highcharts-column-series" data-z-index="0.1" opacity="1" transform="translate(54,91) scale(1 1)" clip-path="url(#highcharts-89c2u0r-183-)"><rect x="30" y="11" width="12" height="11" fill="#6F6F6F" opacity="1" class="highcharts-point"></rect><rect x="54" y="11" width="12" height="10" fill="#6F6F6F" opacity="1" class="highcharts-point"></rect><rect x="102" y="11" width="12" height="9" fill="#6F6F6F" opacity="1" class="highcharts-point"></rect><rect x="126" y="11" width="12" height="12" fill="#6F6F6F" opacity="1" class="highcharts-point"></rect><rect x="175" y="11" width="12" height="6" fill="#6F6F6F" opacity="1" class="highcharts-point"></rect><rect x="199" y="11" width="12" height="8" fill="#6F6F6F" opacity="1" class="highcharts-point"></rect><rect x="223" y="11" width="12" height="18" fill="#6F6F6F" opacity="1" class="highcharts-point"></rect><rect x="271" y="11" width="12" height="11" fill="#6F6F6F" opacity="1" class="highcharts-point"></rect><rect x="295" y="11" width="12" height="7" fill="#6F6F6F" opacity="1" class="highcharts-point"></rect><rect x="343" y="11" width="12" height="11" fill="#6F6F6F" opacity="1" class="highcharts-point"></rect><rect x="367" y="11" width="12" height="10" fill="#6F6F6F" opacity="1" class="highcharts-point"></rect><rect x="391" y="11" width="12" height="8" fill="#6F6F6F" opacity="1" class="highcharts-point"></rect><rect x="439" y="11" width="12" height="9" fill="#6F6F6F" opacity="1" class="highcharts-point"></rect><rect x="463" y="11" width="12" height="10" fill="#6F6F6F" opacity="1" class="highcharts-point"></rect><rect x="487" y="11" width="12" height="11" fill="#6F6F6F" opacity="1" class="highcharts-point"></rect><rect x="511" y="11" width="12" height="11" fill="#6F6F6F" opacity="1" class="highcharts-point"></rect><rect x="559" y="11" width="12" height="15" fill="#6F6F6F" opacity="1" class="highcharts-point"></rect><rect x="583" y="11" width="12" height="10" fill="#6F6F6F" opacity="1" class="highcharts-point"></rect></g><g class="highcharts-markers highcharts-series-5 highcharts-column-series" data-z-index="0.1" opacity="1" transform="translate(54,91) scale(1 1)" clip-path="none"></g></g><text x="333" text-anchor="middle" class="highcharts-title" data-z-index="4" style="color:#333333;font-size:18px;fill:#333333;" y="24"><tspan>Materielle Unterstützung von Freunden</tspan></text><text x="333" text-anchor="middle" class="highcharts-subtitle" data-z-index="4" style="color:#666666;fill:#666666;" y="45"><tspan>«Wie häufig unterstützen Sie oder ein anderes Mitglied Ihres Haushalts Freunde/Bekannte</tspan><tspan dy="15" x="333">materiell?» Stand: 2015</tspan></text><text x="10" text-anchor="start" class="highcharts-caption" data-z-index="4" style="color:#666666;fill:#666666;" y="280"></text><g class="highcharts-legend" data-z-index="7" transform="translate(54,75)"><rect fill="none" class="highcharts-legend-box" rx="0" ry="0" x="0" y="0" width="556" height="4" visibility="visible"></rect><g data-z-index="1"><g><g class="highcharts-legend-item highcharts-column-series highcharts-color-undefined highcharts-series-0" data-z-index="1" transform="translate(0,-5)"><text x="21" style="color:#000000;cursor:pointer;font-size:10px;font-weight:normal;fill:#000000;" text-anchor="start" data-z-index="2" y="6"><tspan>Regelmässig</tspan></text><rect x="3" y="-3" width="10" height="10" fill="#083038" class="highcharts-point" data-z-index="3"></rect></g><g class="highcharts-legend-item highcharts-column-series highcharts-color-undefined highcharts-series-1" data-z-index="1" transform="translate(87.15625,-5)"><text x="21" y="6" style="color:#000000;cursor:pointer;font-size:10px;font-weight:normal;fill:#000000;" text-anchor="start" data-z-index="2"><tspan>Hin und wieder</tspan></text><rect x="3" y="-3" width="10" height="10" fill="#A8C3CA" class="highcharts-point" data-z-index="3"></rect></g><g class="highcharts-legend-item highcharts-column-series highcharts-color-undefined highcharts-series-2" data-z-index="1" transform="translate(188.8125,-5)"><text x="21" y="6" style="color:#000000;cursor:pointer;font-size:10px;font-weight:normal;fill:#000000;" text-anchor="start" data-z-index="2"><tspan>Selten</tspan></text><rect x="3" y="-3" width="10" height="10" fill="#FFBB58" class="highcharts-point" data-z-index="3"></rect></g><g class="highcharts-legend-item highcharts-column-series highcharts-color-undefined highcharts-series-3" data-z-index="1" transform="translate(244.109375,-5)"><text x="21" y="6" style="color:#000000;cursor:pointer;font-size:10px;font-weight:normal;fill:#000000;" text-anchor="start" data-z-index="2"><tspan>Nie</tspan></text><rect x="3" y="-3" width="10" height="10" fill="#B00000" class="highcharts-point" data-z-index="3"></rect></g><g class="highcharts-legend-item highcharts-column-series highcharts-color-undefined highcharts-series-4" data-z-index="1" transform="translate(284.953125,-5)"><text x="21" y="6" style="color:#000000;cursor:pointer;font-size:10px;font-weight:normal;fill:#000000;" text-anchor="start" data-z-index="2"><tspan>Nicht möglich/nicht vorhanden</tspan></text><rect x="3" y="-3" width="10" height="10" fill="#C8C8C8" class="highcharts-point" data-z-index="3"></rect></g><g class="highcharts-legend-item highcharts-column-series highcharts-color-undefined highcharts-series-5" data-z-index="1" transform="translate(465.578125,-5)"><text x="21" y="6" style="color:#000000;cursor:pointer;font-size:10px;font-weight:normal;fill:#000000;" text-anchor="start" data-z-index="2"><tspan>Keine Angabe</tspan></text><rect x="3" y="-3" width="10" height="10" fill="#6F6F6F" class="highcharts-point" data-z-index="3"></rect></g></g></g></g><g class="highcharts-axis-labels highcharts-xaxis-labels" data-z-index="7"><text x="68.37702260395517" style="color:#000000;cursor:default;font-size:10px;white-space:nowrap;fill:#000000;" text-anchor="end" transform="translate(0,0) rotate(-45 68.37702260395517 168)" y="168" opacity="1"><tspan style="font-weight:bold">Haushaltsform</tspan></text><text x="92.41702260395516" style="color:#000000;cursor:default;font-size:10px;white-space:nowrap;fill:#000000;" text-anchor="end" transform="translate(0,0) rotate(-45 92.41702260395516 168)" y="168" opacity="1">Einpersonen-HH (n=506)</text><text x="116.45702260395517" style="color:#000000;cursor:default;font-size:10px;white-space:nowrap;fill:#000000;" text-anchor="end" transform="translate(0,0) rotate(-45 116.45702260395517 168)" y="168" opacity="1">Mehrpersonen-HH (n=921)</text><text x="140.49702260395514" style="color:#000000;cursor:default;font-size:10px;white-space:nowrap;fill:#000000;" text-anchor="end" transform="translate(0,0) rotate(-45 140.49702260395514 168)" y="168" opacity="1"><tspan style="font-weight:bold">Geschlecht</tspan></text><text x="164.53702260395514" style="color:#000000;cursor:default;font-size:10px;white-space:nowrap;fill:#000000;" text-anchor="end" transform="translate(0,0) rotate(-45 164.53702260395514 168)" y="168" opacity="1">Männlich (n=627)</text><text x="188.57702260395516" style="color:#000000;cursor:default;font-size:10px;white-space:nowrap;fill:#000000;" text-anchor="end" transform="translate(0,0) rotate(-45 188.57702260395516 168)" y="168" opacity="1">Weiblich (n=793)</text><text x="212.61702260395515" style="color:#000000;cursor:default;font-size:10px;white-space:nowrap;fill:#000000;" text-anchor="end" transform="translate(0,0) rotate(-45 212.61702260395515 168)" y="168" opacity="1"><tspan style="font-weight:bold">Alter</tspan></text><text x="236.65702260395514" style="color:#000000;cursor:default;font-size:10px;white-space:nowrap;fill:#000000;" text-anchor="end" transform="translate(0,0) rotate(-45 236.65702260395514 168)" y="168" opacity="1">55-64 Jahre (n=477)</text><text x="260.6970226039552" style="color:#000000;cursor:default;font-size:10px;white-space:nowrap;fill:#000000;" text-anchor="end" transform="translate(0,0) rotate(-45 260.6970226039552 168)" y="168" opacity="1">65-74 Jahre (n=475)</text><text x="284.73702260395515" style="color:#000000;cursor:default;font-size:10px;white-space:nowrap;fill:#000000;" text-anchor="end" transform="translate(0,0) rotate(-45 284.73702260395515 168)" y="168" opacity="1">&gt;74 Jahre (n=463)</text><text x="308.7770226039552" style="color:#000000;cursor:default;font-size:10px;white-space:nowrap;fill:#000000;" text-anchor="end" transform="translate(0,0) rotate(-45 308.7770226039552 168)" y="168" opacity="1"><tspan style="font-weight:bold">Staatsangehörigkeit</tspan></text><text x="332.8170226039552" style="color:#000000;cursor:default;font-size:10px;white-space:nowrap;fill:#000000;" text-anchor="end" transform="translate(0,0) rotate(-45 332.8170226039552 168)" y="168" opacity="1">Schweiz (n=1 309)</text><text x="356.85702260395516" style="color:#000000;cursor:default;font-size:10px;white-space:nowrap;fill:#000000;" text-anchor="end" transform="translate(0,0) rotate(-45 356.85702260395516 168)" y="168" opacity="1">Ausland (n=107)</text><text x="380.8970226039552" style="color:#000000;cursor:default;font-size:10px;white-space:nowrap;fill:#000000;" text-anchor="end" transform="translate(0,0) rotate(-45 380.8970226039552 168)" y="168" opacity="1"><tspan style="font-weight:bold">Haushaltseinkommen</tspan></text><text x="404.9370226039552" style="color:#000000;cursor:default;font-size:10px;white-space:nowrap;fill:#000000;" text-anchor="end" transform="translate(0,0) rotate(-45 404.9370226039552 168)" y="168" opacity="1"><tspan>&lt;5 000 Fr. (n=447)</tspan></text><text x="428.97702260395516" style="color:#000000;cursor:default;font-size:10px;white-space:nowrap;fill:#000000;" text-anchor="end" transform="translate(0,0) rotate(-45 428.97702260395516 168)" y="168" opacity="1">5 000-7 499 Fr. (n=327)</text><text x="453.0170226039552" style="color:#000000;cursor:default;font-size:10px;white-space:nowrap;fill:#000000;" text-anchor="end" transform="translate(0,0) rotate(-45 453.0170226039552 168)" y="168" opacity="1">&gt;7 499 Fr. (n=449)</text><text x="477.0570226039552" style="color:#000000;cursor:default;font-size:10px;white-space:nowrap;fill:#000000;" text-anchor="end" transform="translate(0,0) rotate(-45 477.0570226039552 168)" y="168" opacity="1"><tspan style="font-weight:bold">Wahlkreis</tspan></text><text x="501.0970226039551" style="color:#000000;cursor:default;font-size:10px;white-space:nowrap;fill:#000000;" text-anchor="end" transform="translate(0,0) rotate(-45 501.0970226039551 168)" y="168" opacity="1">Grossbasel Ost (n=404)</text><text x="525.1370226039551" style="color:#000000;cursor:default;font-size:10px;white-space:nowrap;fill:#000000;" text-anchor="end" transform="translate(0,0) rotate(-45 525.1370226039551 168)" y="168" opacity="1">Grossbasel West (n=438)</text><text x="549.1770226039553" style="color:#000000;cursor:default;font-size:10px;white-space:nowrap;fill:#000000;" text-anchor="end" transform="translate(0,0) rotate(-45 549.1770226039553 168)" y="168" opacity="1">Kleinbasel (n=288)</text><text x="573.2170226039552" style="color:#000000;cursor:default;font-size:10px;white-space:nowrap;fill:#000000;" text-anchor="end" transform="translate(0,0) rotate(-45 573.2170226039552 168)" y="168" opacity="1">Riehen, Bettingen (n=252)</text><text x="597.2570226039552" style="color:#000000;cursor:default;font-size:10px;white-space:nowrap;fill:#000000;" text-anchor="end" transform="translate(0,0) rotate(-45 597.2570226039552 168)" y="168" opacity="1"><tspan style="font-weight:bold">Befragungsjahr</tspan></text><text x="621.2970226039552" style="color:#000000;cursor:default;font-size:10px;white-space:nowrap;fill:#000000;" text-anchor="end" transform="translate(0,0) rotate(-45 621.2970226039552 168)" y="168" opacity="1">2011 (N=1 689)</text><text x="645.3370226039551" style="color:#000000;cursor:default;font-size:10px;white-space:nowrap;fill:#000000;" text-anchor="end" transform="translate(0,0) rotate(-45 645.3370226039551 168)" y="168" opacity="1">2015 (N=1 427)</text></g><g class="highcharts-axis-labels highcharts-yaxis-labels" data-z-index="7"><text x="39" style="color:#000000;cursor:default;font-size:10px;fill:#000000;" text-anchor="end" transform="translate(0,0)" y="158" opacity="1">0%</text><text x="39" style="color:#000000;cursor:default;font-size:10px;fill:#000000;" text-anchor="end" transform="translate(0,0)" y="137" opacity="1">40%</text><text x="39" style="color:#000000;cursor:default;font-size:10px;fill:#000000;" text-anchor="end" transform="translate(0,0)" y="116" opacity="1">80%</text><text x="39" style="color:#000000;cursor:default;font-size:10px;fill:#000000;" text-anchor="end" transform="translate(0,0)" y="96" opacity="1">120%</text></g><text x="655" class="highcharts-credits" text-anchor="end" data-z-index="8" style="cursor:pointer;color:#999999;font-size:9px;fill:#999999;" y="258"><tspan>Quelle: Statistisches Amt Basel-Stadt, kantonale Befragung 55plus.</tspan><tspan x="655" dy="12">Zuletzt geändert: 2020-5-18</tspan></text><g class="highcharts-control-points" data-z-index="99" clip-path="url(#highcharts-89c2u0r-309-)"></g></svg>