<?xml version="1.0" standalone="no"?><!DOCTYPE svg PUBLIC "-//W3C//DTD SVG 1.1//EN" "http://www.w3.org/Graphics/SVG/1.1/DTD/svg11.dtd"><svg xmlns:xlink="http://www.w3.org/1999/xlink" version="1.1" class="highcharts-root" style="font-family:Arial;font-size:10px;" xmlns="http://www.w3.org/2000/svg" viewBox="0 0 485 415"><desc>Created with Highcharts 8.1.0</desc><defs><clipPath id="highcharts-kao012v-31-"><rect x="0" y="0" width="272" height="92" fill="none"></rect></clipPath><clipPath id="highcharts-kao012v-40-"><rect x="0" y="0" width="272" height="92" fill="none"></rect></clipPath><clipPath id="highcharts-kao012v-57-"><rect x="46" y="98" width="272" height="92" fill="none"></rect></clipPath></defs><rect fill="#fbfbfb" class="highcharts-background" x="0" y="0" width="320" height="221" rx="0" ry="0"></rect><rect fill="none" class="highcharts-plot-background" x="46" y="98" width="272" height="92"></rect><g class="highcharts-pane-group" data-z-index="0"></g><g class="highcharts-grid highcharts-xaxis-grid" data-z-index="1"><path fill="none" data-z-index="1" class="highcharts-grid-line" d="M 79.5 98 L 79.5 190" opacity="1"></path><path fill="none" data-z-index="1" class="highcharts-grid-line" d="M 113.5 98 L 113.5 190" opacity="1"></path><path fill="none" data-z-index="1" class="highcharts-grid-line" d="M 147.5 98 L 147.5 190" opacity="1"></path><path fill="none" data-z-index="1" class="highcharts-grid-line" d="M 181.5 98 L 181.5 190" opacity="1"></path><path fill="none" data-z-index="1" class="highcharts-grid-line" d="M 215.5 98 L 215.5 190" opacity="1"></path><path fill="none" data-z-index="1" class="highcharts-grid-line" d="M 249.5 98 L 249.5 190" opacity="1"></path><path fill="none" data-z-index="1" class="highcharts-grid-line" d="M 283.5 98 L 283.5 190" opacity="1"></path><path fill="none" data-z-index="1" class="highcharts-grid-line" d="M 317.5 98 L 317.5 190" opacity="1"></path><path fill="none" data-z-index="1" class="highcharts-grid-line" d="M 45.5 98 L 45.5 190" opacity="1"></path></g><g class="highcharts-grid highcharts-yaxis-grid" data-z-index="1"><path fill="none" stroke="#B9CFD7" stroke-width="0.5" data-z-index="1" class="highcharts-grid-line" d="M 46 190.25 L 318 190.25" opacity="1"></path><path fill="none" stroke="#B9CFD7" stroke-width="0.5" data-z-index="1" class="highcharts-grid-line" d="M 46 172.25 L 318 172.25" opacity="1"></path><path fill="none" stroke="#B9CFD7" stroke-width="0.5" data-z-index="1" class="highcharts-grid-line" d="M 46 153.25 L 318 153.25" opacity="1"></path><path fill="none" stroke="#B9CFD7" stroke-width="0.5" data-z-index="1" class="highcharts-grid-line" d="M 46 135.25 L 318 135.25" opacity="1"></path><path fill="none" stroke="#B9CFD7" stroke-width="0.5" data-z-index="1" class="highcharts-grid-line" d="M 46 116.25 L 318 116.25" opacity="1"></path><path fill="none" stroke="#B9CFD7" stroke-width="0.5" data-z-index="1" class="highcharts-grid-line" d="M 46 97.75 L 318 97.75" opacity="1"></path></g><rect fill="none" class="highcharts-plot-border" data-z-index="1" x="46" y="98" width="272" height="92"></rect><g class="highcharts-axis highcharts-xaxis" data-z-index="2"><path fill="none" class="highcharts-axis-line" stroke="#B9CFD7" stroke-width="0.5" data-z-index="7" d="M 46 190.25 L 318 190.25"></path></g><g class="highcharts-axis highcharts-yaxis" data-z-index="2"><path fill="none" class="highcharts-axis-line" data-z-index="7" d="M 46 98 L 46 190"></path></g><g class="highcharts-series-group" data-z-index="3"><g data-z-index="0.1" class="highcharts-series highcharts-series-0 highcharts-column-series" transform="translate(46,98) scale(1 1)" clip-path="url(#highcharts-kao012v-40-)"><rect x="9" y="65" width="17" height="28" fill="#FFDA80" opacity="1" class="highcharts-point"></rect><rect x="43" y="58" width="17" height="35" fill="#FFDA80" opacity="1" class="highcharts-point"></rect><rect x="77" y="53" width="17" height="40" fill="#FFDA80" opacity="1" class="highcharts-point"></rect><rect x="111" y="50" width="17" height="43" fill="#FFDA80" opacity="1" class="highcharts-point"></rect><rect x="145" y="46" width="17" height="47" fill="#FFDA80" opacity="1" class="highcharts-point"></rect><rect x="179" y="43" width="17" height="50" fill="#FFDA80" opacity="1" class="highcharts-point"></rect><rect x="213" y="42" width="17" height="51" fill="#FFDA80" opacity="1" class="highcharts-point"></rect><rect x="247" y="41" width="17" height="52" fill="#FFDA80" opacity="1" class="highcharts-point"></rect></g><g data-z-index="0.1" class="highcharts-markers highcharts-series-0 highcharts-column-series" transform="translate(46,98) scale(1 1)" clip-path="none"></g><g data-z-index="0.1" class="highcharts-series highcharts-series-1 highcharts-column-series" transform="translate(46,98) scale(1 1)" clip-path="url(#highcharts-kao012v-40-)"><rect x="9" y="51" width="17" height="14" fill="#CD9C00" opacity="1" class="highcharts-point"></rect><rect x="43" y="39" width="17" height="19" fill="#CD9C00" opacity="1" class="highcharts-point"></rect><rect x="77" y="32" width="17" height="21" fill="#CD9C00" opacity="1" class="highcharts-point"></rect><rect x="111" y="27" width="17" height="23" fill="#CD9C00" opacity="1" class="highcharts-point"></rect><rect x="145" y="23" width="17" height="23" fill="#CD9C00" opacity="1" class="highcharts-point"></rect><rect x="179" y="18" width="17" height="25" fill="#CD9C00" opacity="1" class="highcharts-point"></rect><rect x="213" y="15" width="17" height="27" fill="#CD9C00" opacity="1" class="highcharts-point"></rect><rect x="247" y="14" width="17" height="27" fill="#CD9C00" opacity="1" class="highcharts-point"></rect></g><g data-z-index="0.1" class="highcharts-markers highcharts-series-1 highcharts-column-series" transform="translate(46,98) scale(1 1)" clip-path="none"></g><g data-z-index="0.1" class="highcharts-series highcharts-series-2 highcharts-column-series" transform="translate(46,98) scale(1 1)" clip-path="url(#highcharts-kao012v-40-)"><rect x="9" y="50" width="17" height="1" fill="#007A2F" opacity="1" class="highcharts-point"></rect><rect x="43" y="38" width="17" height="1" fill="#007A2F" opacity="1" class="highcharts-point"></rect><rect x="77" y="30" width="17" height="2" fill="#007A2F" opacity="1" class="highcharts-point"></rect><rect x="111" y="24" width="17" height="3" fill="#007A2F" opacity="1" class="highcharts-point"></rect><rect x="145" y="20" width="17" height="3" fill="#007A2F" opacity="1" class="highcharts-point"></rect><rect x="179" y="14" width="17" height="4" fill="#007A2F" opacity="1" class="highcharts-point"></rect><rect x="213" y="11" width="17" height="4" fill="#007A2F" opacity="1" class="highcharts-point"></rect><rect x="247" y="10" width="17" height="4" fill="#007A2F" opacity="1" class="highcharts-point"></rect></g><g data-z-index="0.1" class="highcharts-markers highcharts-series-2 highcharts-column-series" transform="translate(46,98) scale(1 1)" clip-path="none"></g></g><text x="2" text-anchor="start" class="highcharts-title" data-z-index="4" style="color:#000000;font-size:10px;font-weight:normal;fill:#000000;" y="9"><tspan>Haushalte mit Familienmietzinsbeiträgen nach</tspan><tspan dy="13" x="2">Haushaltstyp</tspan></text><text x="2" text-anchor="start" class="highcharts-subtitle" data-z-index="4" style="color:#000000;font-size:10px;fill:#000000;" y="38"><tspan>Basel-Stadt</tspan></text><text x="2" text-anchor="start" class="highcharts-caption" data-z-index="4" style="color:#666666;fill:#666666;" y="219"></text><g class="highcharts-legend" data-z-index="7" transform="translate(43,52)"><rect fill="none" class="highcharts-legend-box" rx="0" ry="0" x="0" y="0" width="169" height="34" visibility="visible"></rect><g data-z-index="1"><g><g class="highcharts-legend-item highcharts-column-series highcharts-color-undefined highcharts-series-2" data-z-index="1" transform="translate(0,-5)"><text x="21" style="color:#333333;cursor:pointer;font-size:10px;font-weight:normal;font-family:Arial;fill:#333333;" text-anchor="start" data-z-index="2" y="13"><tspan>Konkubinatspaare mit Kind…</tspan><title>Konkubinatspaare mit Kindern</title></text><rect x="3" y="4" width="10" height="10" fill="#007A2F" class="highcharts-point" data-z-index="3"></rect></g><g class="highcharts-legend-item highcharts-column-series highcharts-color-undefined highcharts-series-1" data-z-index="1" transform="translate(0,8)"><text x="21" y="13" style="color:#333333;cursor:pointer;font-size:10px;font-weight:normal;font-family:Arial;fill:#333333;" text-anchor="start" data-z-index="2"><tspan>Einelternfamilien</tspan></text><rect x="3" y="4" width="10" height="10" fill="#CD9C00" class="highcharts-point" data-z-index="3"></rect></g><g class="highcharts-legend-item highcharts-column-series highcharts-color-undefined highcharts-series-0" data-z-index="1" transform="translate(0,21)"><text x="21" y="13" style="color:#333333;cursor:pointer;font-size:10px;font-weight:normal;font-family:Arial;fill:#333333;" text-anchor="start" data-z-index="2"><tspan>Ehepaare mit Kindern</tspan></text><rect x="3" y="4" width="10" height="10" fill="#FFDA80" class="highcharts-point" data-z-index="3"></rect></g></g></g></g><g class="highcharts-axis-labels highcharts-xaxis-labels" data-z-index="7"><text x="63" style="color:#000000;cursor:default;font-size:10px;fill:#000000;" text-anchor="middle" transform="translate(0,0)" y="208" opacity="1"><tspan>2011</tspan></text><text x="97" style="color:#000000;cursor:default;font-size:10px;fill:#000000;" text-anchor="middle" transform="translate(0,0)" y="208" opacity="1"><tspan>2012</tspan></text><text x="131" style="color:#000000;cursor:default;font-size:10px;fill:#000000;" text-anchor="middle" transform="translate(0,0)" y="208" opacity="1"><tspan>2013</tspan></text><text x="165" style="color:#000000;cursor:default;font-size:10px;fill:#000000;" text-anchor="middle" transform="translate(0,0)" y="208" opacity="1"><tspan>2014</tspan></text><text x="199" style="color:#000000;cursor:default;font-size:10px;fill:#000000;" text-anchor="middle" transform="translate(0,0)" y="208" opacity="1"><tspan>2015</tspan></text><text x="233" style="color:#000000;cursor:default;font-size:10px;fill:#000000;" text-anchor="middle" transform="translate(0,0)" y="208" opacity="1"><tspan>2016</tspan></text><text x="267" style="color:#000000;cursor:default;font-size:10px;fill:#000000;" text-anchor="middle" transform="translate(0,0)" y="208" opacity="1"><tspan>2017</tspan></text><text x="301" style="color:#000000;cursor:default;font-size:10px;fill:#000000;" text-anchor="middle" transform="translate(0,0)" y="208" opacity="1"><tspan>2018</tspan></text></g><g class="highcharts-axis-labels highcharts-yaxis-labels" data-z-index="7"><text x="31" style="color:#000000;cursor:default;font-size:10px;fill:#000000;" text-anchor="end" transform="translate(0,0)" y="193" opacity="1">0</text><text x="31" style="color:#000000;cursor:default;font-size:10px;fill:#000000;" text-anchor="end" transform="translate(0,0)" y="175" opacity="1">500</text><text x="31" style="color:#000000;cursor:default;font-size:10px;fill:#000000;" text-anchor="end" transform="translate(0,0)" y="156" opacity="1"><tspan>1 000</tspan></text><text x="31" style="color:#000000;cursor:default;font-size:10px;fill:#000000;" text-anchor="end" transform="translate(0,0)" y="138" opacity="1"><tspan>1 500</tspan></text><text x="31" style="color:#000000;cursor:default;font-size:10px;fill:#000000;" text-anchor="end" transform="translate(0,0)" y="119" opacity="1"><tspan>2 000</tspan></text><text x="31" style="color:#000000;cursor:default;font-size:10px;fill:#000000;" text-anchor="end" transform="translate(0,0)" y="101" opacity="1"><tspan>2 500</tspan></text></g><text x="10" class="highcharts-credits" text-anchor="start" data-z-index="8" style="cursor:default;color:#000000;font-size:10px;fill:#000000;" y="196"><tspan>Quelle: Basler Informationssystem Sozialleistungen (BISS).</tspan><tspan x="10" dy="13">Zuletzt geändert: 2020-5-18</tspan></text><g class="highcharts-control-points" data-z-index="99" clip-path="url(#highcharts-kao012v-57-)"></g></svg>