<?xml version="1.0" standalone="no"?><!DOCTYPE svg PUBLIC "-//W3C//DTD SVG 1.1//EN" "http://www.w3.org/Graphics/SVG/1.1/DTD/svg11.dtd"><svg xmlns:xlink="http://www.w3.org/1999/xlink" version="1.1" class="highcharts-root" style="font-family:Arial;font-size:12px;" xmlns="http://www.w3.org/2000/svg" viewBox="0 0 485 415"><desc>Created with Highcharts 8.2.2</desc><defs><clipPath id="highcharts-tpsm47q-47-"><rect x="0" y="0" width="257" height="116" fill="none"></rect></clipPath><clipPath id="highcharts-tpsm47q-68-"><rect x="0" y="0" width="257" height="116" fill="none"></rect></clipPath><clipPath id="highcharts-tpsm47q-89-"><rect x="48" y="62" width="257" height="116" fill="none"></rect></clipPath></defs><rect fill="#fbfbfb" class="highcharts-background" x="0" y="0" width="320" height="221" rx="0" ry="0"></rect><rect fill="none" class="highcharts-plot-background" x="48" y="62" width="257" height="116"></rect><g class="highcharts-pane-group" data-z-index="0"></g><g class="highcharts-grid highcharts-xaxis-grid" data-z-index="1"><path fill="none" data-z-index="1" class="highcharts-grid-line" d="M 50.5 62 L 50.5 178" opacity="1"></path><path fill="none" data-z-index="1" class="highcharts-grid-line" d="M 76.5 62 L 76.5 178" opacity="1"></path><path fill="none" data-z-index="1" class="highcharts-grid-line" d="M 103.5 62 L 103.5 178" opacity="1"></path><path fill="none" data-z-index="1" class="highcharts-grid-line" d="M 129.5 62 L 129.5 178" opacity="1"></path><path fill="none" data-z-index="1" class="highcharts-grid-line" d="M 156.5 62 L 156.5 178" opacity="1"></path><path fill="none" data-z-index="1" class="highcharts-grid-line" d="M 182.5 62 L 182.5 178" opacity="1"></path><path fill="none" data-z-index="1" class="highcharts-grid-line" d="M 209.5 62 L 209.5 178" opacity="1"></path><path fill="none" data-z-index="1" class="highcharts-grid-line" d="M 235.5 62 L 235.5 178" opacity="1"></path><path fill="none" data-z-index="1" class="highcharts-grid-line" d="M 262.5 62 L 262.5 178" opacity="1"></path><path fill="none" data-z-index="1" class="highcharts-grid-line" d="M 288.5 62 L 288.5 178" opacity="1"></path></g><g class="highcharts-grid highcharts-yaxis-grid" data-z-index="1"><path fill="none" stroke="#B9CFD7" stroke-width="0.5" data-z-index="1" class="highcharts-grid-line" d="M 48 178.25 L 305 178.25" opacity="1"></path><path fill="none" stroke="#B9CFD7" stroke-width="0.5" data-z-index="1" class="highcharts-grid-line" d="M 48 120.25 L 305 120.25" opacity="1"></path><path fill="none" stroke="#B9CFD7" stroke-width="0.5" data-z-index="1" class="highcharts-grid-line" d="M 48 61.75 L 305 61.75" opacity="1"></path></g><rect fill="none" class="highcharts-plot-border" data-z-index="1" x="48" y="62" width="257" height="116"></rect><g class="highcharts-axis highcharts-xaxis" data-z-index="2"><path fill="none" class="highcharts-axis-line" stroke="#B9CFD7" stroke-width="0.5" data-z-index="7" d="M 48 178.25 L 305 178.25"></path></g><g class="highcharts-axis highcharts-yaxis" data-z-index="2"><path fill="none" class="highcharts-axis-line" data-z-index="7" d="M 48 62 L 48 178"></path></g><g class="highcharts-series-group" data-z-index="3"><g class="highcharts-series highcharts-series-0 highcharts-line-series" data-z-index="0.1" opacity="1" transform="translate(48,62) scale(1 1)" clip-path="url(#highcharts-tpsm47q-68-)"><path fill="none" d="M 2.519607843138 33.95320000000001 L 15.780701754387 34.7072 L 29.041795665635 34.626000000000005 L 42.302889576884 34.3592 L 55.563983488133 34.76520000000001 L 68.825077399381 34.6028 L 82.08617131063 33.38480000000001 L 95.347265221878 34.498400000000004 L 108.60835913313 33.33840000000001 L 121.86945304438 32.132000000000005 L 135.13054695562 33.071600000000004 L 148.39164086687 31.8536 L 161.65273477812 31.69120000000001 L 174.91382868937 31.3896 L 188.17492260062 30.763200000000012 L 201.43601651187 31.540400000000005 L 214.69711042312 32.4568 L 227.95820433436 31.842 L 241.21929824561 31.401200000000003 L 254.48039215686 32.05080000000001" class="highcharts-graph" data-z-index="1" stroke="#cd9c00" stroke-width="2" stroke-linejoin="round" stroke-linecap="round"></path></g><g class="highcharts-markers highcharts-series-0 highcharts-line-series" data-z-index="0.1" opacity="1" transform="translate(48,62) scale(1 1)" clip-path="none"></g><g class="highcharts-series highcharts-series-1 highcharts-line-series" data-z-index="0.1" opacity="1" transform="translate(48,62) scale(1 1)" clip-path="url(#highcharts-tpsm47q-68-)"><path fill="none" d="M 2.519607843138 88.6008 L 15.780701754387 88.5892 L 29.041795665635 87.3944 L 42.302889576884 86.9536 L 55.563983488133 87.232 L 68.825077399381 86.304 L 82.08617131063 86.3272 L 95.347265221878 86.5128 L 108.60835913313 86.3852 L 121.86945304438 85.3876 L 135.13054695562 85.5616 L 148.39164086687 84.6916 L 161.65273477812 82.6268 L 174.91382868937 82.6152 L 188.17492260062 82.6384 L 201.43601651187 82.36 L 214.69711042312 82.44120000000001 L 227.95820433436 83.0096 L 241.21929824561 82.8472 L 254.48039215686 83.5432" class="highcharts-graph" data-z-index="1" stroke="#b375ab" stroke-width="2" stroke-linejoin="round" stroke-linecap="round"></path></g><g class="highcharts-markers highcharts-series-1 highcharts-line-series" data-z-index="0.1" opacity="1" transform="translate(48,62) scale(1 1)" clip-path="none"></g></g><text x="2" text-anchor="start" class="highcharts-title" data-z-index="4" style="color:#000000;font-size:10px;font-weight:bold;fill:#000000;" y="9"><tspan>Wohnbevölkerung</tspan></text><text x="2" text-anchor="start" class="highcharts-subtitle" data-z-index="4" style="color:#000000;font-size:10px;font-weight:normal;font-family:Arial;fill:#000000;" y="25"><tspan>Wohnviertel Klybeck und Kleinhüningen</tspan></text><text x="2" text-anchor="start" class="highcharts-caption" data-z-index="4" style="color:#666666;fill:#666666;" y="221"></text><g class="highcharts-legend" data-z-index="7" transform="translate(48,39)"><rect fill="none" class="highcharts-legend-box" rx="0" ry="0" x="0" y="0" width="160" height="11" visibility="visible"></rect><g data-z-index="1"><g><g class="highcharts-legend-item highcharts-line-series highcharts-color-undefined highcharts-series-0" data-z-index="1" transform="translate(0,-5)"><path fill="none" d="M 0 10 L 16 10" class="highcharts-graph" stroke="#cd9c00" stroke-width="2"></path><text x="21" style="color:#333333;cursor:pointer;font-size:10px;font-weight:normal;fill:#333333;" text-anchor="start" data-z-index="2" y="13"><tspan>Klybeck</tspan></text></g><g class="highcharts-legend-item highcharts-line-series highcharts-color-undefined highcharts-series-1" data-z-index="1" transform="translate(75.96875,-5)"><path fill="none" d="M 0 10 L 16 10" class="highcharts-graph" stroke="#b375ab" stroke-width="2"></path><text x="21" y="13" style="color:#333333;cursor:pointer;font-size:10px;font-weight:normal;fill:#333333;" text-anchor="start" data-z-index="2"><tspan>Kleinhüningen</tspan></text></g></g></g></g><g class="highcharts-axis-labels highcharts-xaxis-labels" data-z-index="7"><text x="52.876630447093156" style="color:#000000;cursor:default;font-size:10px;white-space:nowrap;fill:#000000;" text-anchor="end" transform="translate(0,0) rotate(-45 52.876630447093156 193)" y="193" opacity="1">2000</text><text x="79.39881826959015" style="color:#000000;cursor:default;font-size:10px;white-space:nowrap;fill:#000000;" text-anchor="end" transform="translate(0,0) rotate(-45 79.39881826959015 193)" y="193" opacity="1">2002</text><text x="105.92100609208516" style="color:#000000;cursor:default;font-size:10px;white-space:nowrap;fill:#000000;" text-anchor="end" transform="translate(0,0) rotate(-45 105.92100609208516 193)" y="193" opacity="1">2004</text><text x="132.44319391458515" style="color:#000000;cursor:default;font-size:10px;white-space:nowrap;fill:#000000;" text-anchor="end" transform="translate(0,0) rotate(-45 132.44319391458515 193)" y="193" opacity="1">2006</text><text x="158.96538173708515" style="color:#000000;cursor:default;font-size:10px;white-space:nowrap;fill:#000000;" text-anchor="end" transform="translate(0,0) rotate(-45 158.96538173708515 193)" y="193" opacity="1">2008</text><text x="185.48756955957515" style="color:#000000;cursor:default;font-size:10px;white-space:nowrap;fill:#000000;" text-anchor="end" transform="translate(0,0) rotate(-45 185.48756955957515 193)" y="193" opacity="1">2010</text><text x="212.00975738207515" style="color:#000000;cursor:default;font-size:10px;white-space:nowrap;fill:#000000;" text-anchor="end" transform="translate(0,0) rotate(-45 212.00975738207515 193)" y="193" opacity="1">2012</text><text x="238.53194520457515" style="color:#000000;cursor:default;font-size:10px;white-space:nowrap;fill:#000000;" text-anchor="end" transform="translate(0,0) rotate(-45 238.53194520457515 193)" y="193" opacity="1">2014</text><text x="265.0541330270752" style="color:#000000;cursor:default;font-size:10px;white-space:nowrap;fill:#000000;" text-anchor="end" transform="translate(0,0) rotate(-45 265.0541330270752 193)" y="193" opacity="1">2016</text><text x="291.57632084956515" style="color:#000000;cursor:default;font-size:10px;white-space:nowrap;fill:#000000;" text-anchor="end" transform="translate(0,0) rotate(-45 291.57632084956515 193)" y="193" opacity="1">2018</text></g><g class="highcharts-axis-labels highcharts-yaxis-labels" data-z-index="7"><text x="33" style="color:#000000;cursor:default;font-size:10px;fill:#000000;" text-anchor="end" transform="translate(0,0)" y="181" opacity="1">0</text><text x="33" style="color:#000000;cursor:default;font-size:10px;fill:#000000;" text-anchor="end" transform="translate(0,0)" y="123" opacity="1"><tspan>5 000</tspan></text><text x="33" style="color:#000000;cursor:default;font-size:10px;fill:#000000;" text-anchor="end" transform="translate(0,0)" y="65" opacity="1"><tspan>10 000</tspan></text></g><text x="10" class="highcharts-credits" text-anchor="start" data-z-index="8" style="cursor:default;color:#000000;font-size:10px;fill:#000000;" y="196"><tspan>Quelle: Statistisches Amt Basel-Stadt, Bevölkerungsstatistik.</tspan><tspan x="10" dy="13">Zuletzt geändert: 2020-2-19</tspan></text><g class="highcharts-control-points" data-z-index="99" clip-path="url(#highcharts-tpsm47q-89-)"></g></svg>