<?xml version="1.0" standalone="no"?><!DOCTYPE svg PUBLIC "-//W3C//DTD SVG 1.1//EN" "http://www.w3.org/Graphics/SVG/1.1/DTD/svg11.dtd"><svg xmlns:xlink="http://www.w3.org/1999/xlink" version="1.1" class="highcharts-root" style="font-family:Arial;font-size:12px;" xmlns="http://www.w3.org/2000/svg" viewBox="0 0 485 415"><desc>Created with Highcharts 8.0.4</desc><defs><clipPath id="highcharts-7io0h5h-66-"><rect x="0" y="0" width="290" height="128" fill="none"></rect></clipPath><clipPath id="highcharts-7io0h5h-87-"><rect x="0" y="0" width="290" height="128" fill="none"></rect></clipPath></defs><rect fill="#fbfbfb" class="highcharts-background" x="0" y="0" width="320" height="221" rx="0" ry="0"></rect><rect fill="none" class="highcharts-plot-background" x="28" y="62" width="290" height="128"></rect><g class="highcharts-pane-group" data-z-index="0"></g><g class="highcharts-grid highcharts-xaxis-grid" data-z-index="1"><path fill="none" data-z-index="1" class="highcharts-grid-line" d="M 30.5 62 L 30.5 190" opacity="1"></path><path fill="none" data-z-index="1" class="highcharts-grid-line" d="M 60.5 62 L 60.5 190" opacity="1"></path><path fill="none" data-z-index="1" class="highcharts-grid-line" d="M 90.5 62 L 90.5 190" opacity="1"></path><path fill="none" data-z-index="1" class="highcharts-grid-line" d="M 120.5 62 L 120.5 190" opacity="1"></path><path fill="none" data-z-index="1" class="highcharts-grid-line" d="M 150.5 62 L 150.5 190" opacity="1"></path><path fill="none" data-z-index="1" class="highcharts-grid-line" d="M 179.5 62 L 179.5 190" opacity="1"></path><path fill="none" data-z-index="1" class="highcharts-grid-line" d="M 209.5 62 L 209.5 190" opacity="1"></path><path fill="none" data-z-index="1" class="highcharts-grid-line" d="M 239.5 62 L 239.5 190" opacity="1"></path><path fill="none" data-z-index="1" class="highcharts-grid-line" d="M 269.5 62 L 269.5 190" opacity="1"></path><path fill="none" data-z-index="1" class="highcharts-grid-line" d="M 299.5 62 L 299.5 190" opacity="1"></path></g><g class="highcharts-grid highcharts-yaxis-grid" data-z-index="1"><path fill="none" stroke="#B9CFD7" stroke-width="0.5" data-z-index="1" class="highcharts-grid-line" d="M 28 190.25 L 318 190.25" opacity="1"></path><path fill="none" stroke="#B9CFD7" stroke-width="0.5" data-z-index="1" class="highcharts-grid-line" d="M 28 158.25 L 318 158.25" opacity="1"></path><path fill="none" stroke="#B9CFD7" stroke-width="0.5" data-z-index="1" class="highcharts-grid-line" d="M 28 126.25 L 318 126.25" opacity="1"></path><path fill="none" stroke="#B9CFD7" stroke-width="0.5" data-z-index="1" class="highcharts-grid-line" d="M 28 94.25 L 318 94.25" opacity="1"></path><path fill="none" stroke="#B9CFD7" stroke-width="0.5" data-z-index="1" class="highcharts-grid-line" d="M 28 61.75 L 318 61.75" opacity="1"></path></g><rect fill="none" class="highcharts-plot-border" data-z-index="1" x="28" y="62" width="290" height="128"></rect><g class="highcharts-axis highcharts-xaxis" data-z-index="2"><path fill="none" class="highcharts-axis-line" stroke="#B9CFD7" stroke-width="0.5" data-z-index="7" d="M 28 190.25 L 318 190.25"></path></g><g class="highcharts-axis highcharts-yaxis" data-z-index="2"><path fill="none" class="highcharts-axis-line" data-z-index="7" d="M 28 62 L 28 190"></path></g><g class="highcharts-series-group" data-z-index="3"><g data-z-index="0.1" class="highcharts-series highcharts-series-0 highcharts-line-series" transform="translate(28,62) scale(1 1)" clip-path="url(#highcharts-7io0h5h-87-)"><path fill="none" d="M 2.8431372549028 55.36 L 17.80701754386 55.36 L 32.770897832818 58.56 L 47.734778121776 59.519999999999996 L 62.698658410733 60.47999999999999 L 77.662538699691 60.16 L 92.626418988648 59.519999999999996 L 107.59029927761 59.519999999999996 L 122.55417956656 61.44 L 137.51805985552 62.08 L 152.48194014448 61.760000000000005 L 167.44582043344 62.39999999999999 L 182.40970072239 62.72 L 197.37358101135 61.120000000000005 L 212.33746130031 62.08 L 227.30134158927 63.67999999999999 L 242.26522187822 62.08 L 257.22910216718 63.03999999999999 L 272.19298245614 61.120000000000005 L 287.1568627451 59.519999999999996" class="highcharts-graph" data-z-index="1" stroke="#cd9c00" stroke-width="2" stroke-linejoin="round" stroke-linecap="round"></path></g><g data-z-index="0.1" class="highcharts-markers highcharts-series-0 highcharts-line-series" transform="translate(28,62) scale(1 1)" clip-path="none"></g><g data-z-index="0.1" class="highcharts-series highcharts-series-1 highcharts-line-series" transform="translate(28,62) scale(1 1)" clip-path="url(#highcharts-7io0h5h-87-)"><path fill="none" d="M 2.8431372549028 31.039999999999992 L 17.80701754386 29.120000000000005 L 32.770897832818 32.639999999999986 L 47.734778121776 34.239999999999995 L 62.698658410733 37.44 L 77.662538699691 41.27999999999999 L 92.626418988648 41.92 L 107.59029927761 36.8 L 122.55417956656 35.19999999999999 L 137.51805985552 39.67999999999999 L 152.48194014448 35.519999999999996 L 167.44582043344 33.92 L 182.40970072239 38.39999999999999 L 197.37358101135 39.03999999999999 L 212.33746130031 38.39999999999999 L 227.30134158927 37.75999999999999 L 242.26522187822 38.079999999999984 L 257.22910216718 36.8 L 272.19298245614 33.92 L 287.1568627451 32.31999999999999" class="highcharts-graph" data-z-index="1" stroke="#b375ab" stroke-width="2" stroke-linejoin="round" stroke-linecap="round"></path></g><g data-z-index="0.1" class="highcharts-markers highcharts-series-1 highcharts-line-series" transform="translate(28,62) scale(1 1)" clip-path="none"></g><g data-z-index="0.1" class="highcharts-series highcharts-series-2 highcharts-line-series" transform="translate(28,62) scale(1 1)" clip-path="url(#highcharts-7io0h5h-87-)"><path fill="none" d="M 2.8431372549028 23.040000000000006 L 17.80701754386 23.359999999999985 L 32.770897832818 25.279999999999987 L 47.734778121776 26.560000000000002 L 62.698658410733 27.519999999999996 L 77.662538699691 27.83999999999999 L 92.626418988648 28.159999999999997 L 107.59029927761 28.47999999999999 L 122.55417956656 29.75999999999999 L 137.51805985552 31.039999999999992 L 152.48194014448 31.36 L 167.44582043344 32.31999999999999 L 182.40970072239 33.27999999999999 L 197.37358101135 34.239999999999995 L 212.33746130031 34.56 L 227.30134158927 34.879999999999995 L 242.26522187822 35.519999999999996 L 257.22910216718 35.83999999999999 L 272.19298245614 36.47999999999999 L 287.1568627451 36.47999999999999" class="highcharts-graph" data-z-index="1" stroke="#999999" stroke-width="2" stroke-linejoin="round" stroke-linecap="round"></path></g><g data-z-index="0.1" class="highcharts-markers highcharts-series-2 highcharts-line-series" transform="translate(28,62) scale(1 1)" clip-path="none"></g></g><text x="2" text-anchor="start" class="highcharts-title" data-z-index="4" style="color:#000000;font-size:10px;font-weight:bold;fill:#000000;" y="9"><tspan>Altersquotient</tspan></text><text x="2" text-anchor="start" class="highcharts-subtitle" data-z-index="4" style="color:#000000;font-size:10px;font-weight:normal;font-family:Arial;fill:#000000;" y="25"><tspan>Wohnviertel Klybeck und Kleinhüningen</tspan></text><text x="2" text-anchor="start" class="highcharts-caption" data-z-index="4" style="color:#666666;fill:#666666;" y="221"></text><g class="highcharts-legend" data-z-index="7" transform="translate(28,39)"><rect fill="none" class="highcharts-legend-box" rx="0" ry="0" x="0" y="0" width="252" height="11" visibility="visible"></rect><g data-z-index="1"><g><g class="highcharts-legend-item highcharts-line-series highcharts-color-undefined highcharts-series-0" data-z-index="1" transform="translate(0,-5)"><path fill="none" d="M 0 10 L 16 10" class="highcharts-graph" stroke="#cd9c00" stroke-width="2"></path><text x="21" style="color:#333333;cursor:pointer;font-size:10px;font-weight:normal;fill:#333333;" text-anchor="start" data-z-index="2" y="13"><tspan>Klybeck</tspan></text></g><g class="highcharts-legend-item highcharts-line-series highcharts-color-undefined highcharts-series-1" data-z-index="1" transform="translate(75.96875,-5)"><path fill="none" d="M 0 10 L 16 10" class="highcharts-graph" stroke="#b375ab" stroke-width="2"></path><text x="21" y="13" style="color:#333333;cursor:pointer;font-size:10px;font-weight:normal;fill:#333333;" text-anchor="start" data-z-index="2"><tspan>Kleinhüningen</tspan></text></g><g class="highcharts-legend-item highcharts-line-series highcharts-color-undefined highcharts-series-2" data-z-index="1" transform="translate(180.203125,-5)"><path fill="none" d="M 0 10 L 16 10" class="highcharts-graph" stroke="#999999" stroke-width="2"></path><text x="21" y="13" style="color:#333333;cursor:pointer;font-size:10px;font-weight:normal;fill:#333333;" text-anchor="start" data-z-index="2"><tspan>Stadt Basel</tspan></text></g></g></g></g><g class="highcharts-axis-labels highcharts-xaxis-labels" data-z-index="7"><text x="30.843137254903" style="color:#000000;cursor:default;font-size:10px;white-space:nowrap;fill:#000000;" text-anchor="middle" transform="translate(0,0)" y="208" opacity="1">2000</text><text x="60.770897832818" style="color:#000000;cursor:default;font-size:10px;white-space:nowrap;fill:#000000;" text-anchor="middle" transform="translate(0,0)" y="208" opacity="1">2002</text><text x="90.698658410733" style="color:#000000;cursor:default;font-size:10px;white-space:nowrap;fill:#000000;" text-anchor="middle" transform="translate(0,0)" y="208" opacity="1">2004</text><text x="120.62641898865" style="color:#000000;cursor:default;font-size:10px;white-space:nowrap;fill:#000000;" text-anchor="middle" transform="translate(0,0)" y="208" opacity="1">2006</text><text x="150.55417956656" style="color:#000000;cursor:default;font-size:10px;white-space:nowrap;fill:#000000;" text-anchor="middle" transform="translate(0,0)" y="208" opacity="1">2008</text><text x="180.48194014448" style="color:#000000;cursor:default;font-size:10px;white-space:nowrap;fill:#000000;" text-anchor="middle" transform="translate(0,0)" y="208" opacity="1">2010</text><text x="210.40970072239" style="color:#000000;cursor:default;font-size:10px;white-space:nowrap;fill:#000000;" text-anchor="middle" transform="translate(0,0)" y="208" opacity="1">2012</text><text x="240.33746130031" style="color:#000000;cursor:default;font-size:10px;white-space:nowrap;fill:#000000;" text-anchor="middle" transform="translate(0,0)" y="208" opacity="1">2014</text><text x="270.26522187822" style="color:#000000;cursor:default;font-size:10px;white-space:nowrap;fill:#000000;" text-anchor="middle" transform="translate(0,0)" y="208" opacity="1">2016</text><text x="300.19298245614" style="color:#000000;cursor:default;font-size:10px;white-space:nowrap;fill:#000000;" text-anchor="middle" transform="translate(0,0)" y="208" opacity="1">2018</text></g><g class="highcharts-axis-labels highcharts-yaxis-labels" data-z-index="7"><text x="13" style="color:#000000;cursor:default;font-size:10;fill:#000000;" text-anchor="end" transform="translate(0,0)" y="193" opacity="1">0</text><text x="13" style="color:#000000;cursor:default;font-size:10;fill:#000000;" text-anchor="end" transform="translate(0,0)" y="161" opacity="1">10</text><text x="13" style="color:#000000;cursor:default;font-size:10;fill:#000000;" text-anchor="end" transform="translate(0,0)" y="129" opacity="1">20</text><text x="13" style="color:#000000;cursor:default;font-size:10;fill:#000000;" text-anchor="end" transform="translate(0,0)" y="97" opacity="1">30</text><text x="13" style="color:#000000;cursor:default;font-size:10;fill:#000000;" text-anchor="end" transform="translate(0,0)" y="65" opacity="1">40</text></g><text x="10" class="highcharts-credits" text-anchor="start" data-z-index="8" style="cursor:default;color:#000000;font-size:10px;fill:#000000;" y="196"><tspan>Quelle: Statistisches Amt Basel-Stadt, Bevölkerungsstatistik.</tspan><tspan x="10" dy="13">Zuletzt geändert: 2020-2-19</tspan></text></svg>