<?xml version="1.0" standalone="no"?><!DOCTYPE svg PUBLIC "-//W3C//DTD SVG 1.1//EN" "http://www.w3.org/Graphics/SVG/1.1/DTD/svg11.dtd"><svg xmlns:xlink="http://www.w3.org/1999/xlink" version="1.1" class="highcharts-root" style="font-family:Arial;font-size:10px;color:#000000;fill:#000000;" xmlns="http://www.w3.org/2000/svg" viewBox="0 0 485 415"><desc>Created with Highcharts 8.1.2</desc><defs><clipPath id="highcharts-vz9hnuk-62-"><rect x="0" y="0" width="266" height="57" fill="none"></rect></clipPath><clipPath id="highcharts-vz9hnuk-74-"><rect x="0" y="0" width="266" height="57" fill="none"></rect></clipPath><clipPath id="highcharts-vz9hnuk-119-"><rect x="39" y="85" width="266" height="57" fill="none"></rect></clipPath></defs><rect fill="#fbfbfb" class="highcharts-background" x="0" y="0" width="320" height="221" rx="0" ry="0"></rect><rect fill="none" class="highcharts-plot-background" x="39" y="85" width="266" height="57"></rect><g class="highcharts-pane-group" data-z-index="0"></g><g class="highcharts-plot-lines-0" data-z-index="0"><path fill="none" class="highcharts-plot-line " stroke="#B9CFD7" stroke-width="1" d="M 39 119.5 L 305 119.5"></path></g><g class="highcharts-grid highcharts-xaxis-grid" data-z-index="1"><path fill="none" data-z-index="1" class="highcharts-grid-line" d="M 62.5 85 L 62.5 142" opacity="1"></path><path fill="none" data-z-index="1" class="highcharts-grid-line" d="M 86.5 85 L 86.5 142" opacity="1"></path><path fill="none" data-z-index="1" class="highcharts-grid-line" d="M 111.5 85 L 111.5 142" opacity="1"></path><path fill="none" data-z-index="1" class="highcharts-grid-line" d="M 135.5 85 L 135.5 142" opacity="1"></path><path fill="none" data-z-index="1" class="highcharts-grid-line" d="M 159.5 85 L 159.5 142" opacity="1"></path><path fill="none" data-z-index="1" class="highcharts-grid-line" d="M 183.5 85 L 183.5 142" opacity="1"></path><path fill="none" data-z-index="1" class="highcharts-grid-line" d="M 207.5 85 L 207.5 142" opacity="1"></path><path fill="none" data-z-index="1" class="highcharts-grid-line" d="M 231.5 85 L 231.5 142" opacity="1"></path><path fill="none" data-z-index="1" class="highcharts-grid-line" d="M 256.5 85 L 256.5 142" opacity="1"></path><path fill="none" data-z-index="1" class="highcharts-grid-line" d="M 280.5 85 L 280.5 142" opacity="1"></path><path fill="none" data-z-index="1" class="highcharts-grid-line" d="M 304.5 85 L 304.5 142" opacity="1"></path><path fill="none" data-z-index="1" class="highcharts-grid-line" d="M 38.5 85 L 38.5 142" opacity="1"></path></g><g class="highcharts-grid highcharts-yaxis-grid" data-z-index="1"><path fill="none" stroke="#B9CFD7" stroke-width="0.5" data-z-index="1" class="highcharts-grid-line" d="M 39 142.25 L 305 142.25" opacity="1"></path><path fill="none" stroke="#B9CFD7" stroke-width="0.5" data-z-index="1" class="highcharts-grid-line" d="M 39 131.25 L 305 131.25" opacity="1"></path><path fill="none" stroke="#B9CFD7" stroke-width="0.5" data-z-index="1" class="highcharts-grid-line" d="M 39 119.25 L 305 119.25" opacity="1"></path><path fill="none" stroke="#B9CFD7" stroke-width="0.5" data-z-index="1" class="highcharts-grid-line" d="M 39 108.25 L 305 108.25" opacity="1"></path><path fill="none" stroke="#B9CFD7" stroke-width="0.5" data-z-index="1" class="highcharts-grid-line" d="M 39 96.25 L 305 96.25" opacity="1"></path><path fill="none" stroke="#B9CFD7" stroke-width="0.5" data-z-index="1" class="highcharts-grid-line" d="M 39 84.75 L 305 84.75" opacity="1"></path></g><rect fill="none" class="highcharts-plot-border" data-z-index="1" x="39" y="85" width="266" height="57"></rect><g class="highcharts-axis highcharts-xaxis" data-z-index="2"><path fill="none" class="highcharts-axis-line" stroke="#B9CFD7" stroke-width="0.5" data-z-index="7" d="M 39 142.25 L 305 142.25"></path></g><g class="highcharts-axis highcharts-yaxis" data-z-index="2"><path fill="none" class="highcharts-axis-line" data-z-index="7" d="M 39 85 L 39 142"></path></g><g class="highcharts-series-group" data-z-index="3"><g class="highcharts-series highcharts-series-0 highcharts-column-series" data-z-index="0.1" opacity="1" transform="translate(39,85) scale(1 1)" clip-path="url(#highcharts-vz9hnuk-74-)"><rect x="5" y="35" width="3" height="9" fill="#FFBB58" opacity="1" class="highcharts-point highcharts-negative"></rect><rect x="29" y="35" width="3" height="6" fill="#FFBB58" opacity="1" class="highcharts-point highcharts-negative"></rect><rect x="53" y="35" width="3" height="8" fill="#FFBB58" opacity="1" class="highcharts-point highcharts-negative"></rect><rect x="77" y="35" width="3" height="8" fill="#FFBB58" opacity="1" class="highcharts-point highcharts-negative"></rect><rect x="102" y="35" width="2" height="4" fill="#FFBB58" opacity="1" class="highcharts-point highcharts-negative"></rect><rect x="150" y="35" width="3" height="8" fill="#FFBB58" opacity="1" class="highcharts-point highcharts-negative"></rect><rect x="174" y="35" width="3" height="13" fill="#FFBB58" opacity="1" class="highcharts-point highcharts-negative"></rect><rect x="198" y="35" width="3" height="12" fill="#FFBB58" opacity="1" class="highcharts-point highcharts-negative"></rect><rect x="222" y="35" width="3" height="7" fill="#FFBB58" opacity="1" class="highcharts-point highcharts-negative"></rect><rect x="247" y="35" width="3" height="7" fill="#FFBB58" opacity="1" class="highcharts-point highcharts-negative"></rect></g><g class="highcharts-markers highcharts-series-0 highcharts-column-series" data-z-index="0.1" opacity="1" transform="translate(39,85) scale(1 1)" clip-path="none"></g><g class="highcharts-series highcharts-series-1 highcharts-column-series" data-z-index="0.1" opacity="1" transform="translate(39,85) scale(1 1)" clip-path="url(#highcharts-vz9hnuk-74-)"><rect x="8" y="35" width="3" height="2" fill="#DC440E" opacity="1" class="highcharts-point highcharts-negative"></rect><rect x="32" y="32" width="3" height="3" fill="#DC440E" opacity="1" class="highcharts-point"></rect><rect x="56" y="35" width="3" height="2" fill="#DC440E" opacity="1" class="highcharts-point highcharts-negative"></rect><rect x="80" y="35" width="3" height="0" fill="#DC440E" opacity="1" class="highcharts-point"></rect><rect x="104" y="35" width="3" height="1" fill="#DC440E" opacity="1" class="highcharts-point highcharts-negative"></rect><rect x="153" y="31" width="3" height="4" fill="#DC440E" opacity="1" class="highcharts-point"></rect><rect x="177" y="32" width="3" height="3" fill="#DC440E" opacity="1" class="highcharts-point"></rect><rect x="201" y="35" width="3" height="5" fill="#DC440E" opacity="1" class="highcharts-point highcharts-negative"></rect><rect x="225" y="29" width="3" height="6" fill="#DC440E" opacity="1" class="highcharts-point"></rect><rect x="250" y="35" width="2" height="3" fill="#DC440E" opacity="1" class="highcharts-point highcharts-negative"></rect></g><g class="highcharts-markers highcharts-series-1 highcharts-column-series" data-z-index="0.1" opacity="1" transform="translate(39,85) scale(1 1)" clip-path="none"></g><g class="highcharts-series highcharts-series-2 highcharts-column-series" data-z-index="0.1" opacity="1" transform="translate(39,85) scale(1 1)" clip-path="url(#highcharts-vz9hnuk-74-)"><rect x="11" y="23" width="3" height="12" fill="#A8C3CA" opacity="1" class="highcharts-point"></rect><rect x="35" y="26" width="3" height="9" fill="#A8C3CA" opacity="1" class="highcharts-point"></rect><rect x="59" y="25" width="3" height="10" fill="#A8C3CA" opacity="1" class="highcharts-point"></rect><rect x="83" y="31" width="3" height="4" fill="#A8C3CA" opacity="1" class="highcharts-point"></rect><rect x="107" y="30" width="3" height="5" fill="#A8C3CA" opacity="1" class="highcharts-point"></rect><rect x="156" y="17" width="3" height="18" fill="#A8C3CA" opacity="1" class="highcharts-point"></rect><rect x="180" y="17" width="3" height="18" fill="#A8C3CA" opacity="1" class="highcharts-point"></rect><rect x="204" y="13" width="3" height="22" fill="#A8C3CA" opacity="1" class="highcharts-point"></rect><rect x="228" y="20" width="3" height="15" fill="#A8C3CA" opacity="1" class="highcharts-point"></rect><rect x="252" y="7" width="3" height="28" fill="#A8C3CA" opacity="1" class="highcharts-point"></rect></g><g class="highcharts-markers highcharts-series-2 highcharts-column-series" data-z-index="0.1" opacity="1" transform="translate(39,85) scale(1 1)" clip-path="none"></g><g class="highcharts-series highcharts-series-3 highcharts-column-series" data-z-index="0.1" opacity="1" transform="translate(39,85) scale(1 1)" clip-path="url(#highcharts-vz9hnuk-74-)"><rect x="14" y="35" width="2" height="5" fill="#246370" opacity="1" class="highcharts-point highcharts-negative"></rect><rect x="38" y="35" width="3" height="5" fill="#246370" opacity="1" class="highcharts-point highcharts-negative"></rect><rect x="62" y="35" width="3" height="3" fill="#246370" opacity="1" class="highcharts-point highcharts-negative"></rect><rect x="86" y="35" width="3" height="3" fill="#246370" opacity="1" class="highcharts-point highcharts-negative"></rect><rect x="110" y="35" width="3" height="4" fill="#246370" opacity="1" class="highcharts-point highcharts-negative"></rect><rect x="159" y="35" width="3" height="11" fill="#246370" opacity="1" class="highcharts-point highcharts-negative"></rect><rect x="183" y="35" width="3" height="10" fill="#246370" opacity="1" class="highcharts-point highcharts-negative"></rect><rect x="207" y="35" width="3" height="12" fill="#246370" opacity="1" class="highcharts-point highcharts-negative"></rect><rect x="231" y="35" width="3" height="10" fill="#246370" opacity="1" class="highcharts-point highcharts-negative"></rect><rect x="255" y="35" width="3" height="9" fill="#246370" opacity="1" class="highcharts-point highcharts-negative"></rect></g><g class="highcharts-markers highcharts-series-3 highcharts-column-series" data-z-index="0.1" opacity="1" transform="translate(39,85) scale(1 1)" clip-path="none"></g><g class="highcharts-series highcharts-series-4 highcharts-column-series" data-z-index="0.1" opacity="1" transform="translate(39,85) scale(1 1)" clip-path="url(#highcharts-vz9hnuk-74-)"><rect x="16" y="35" width="3" height="4" fill="#083038" opacity="1" class="highcharts-point highcharts-negative"></rect><rect x="41" y="34" width="3" height="1" fill="#083038" opacity="1" class="highcharts-point"></rect><rect x="65" y="35" width="3" height="2" fill="#083038" opacity="1" class="highcharts-point highcharts-negative"></rect><rect x="89" y="35" width="3" height="6" fill="#083038" opacity="1" class="highcharts-point highcharts-negative"></rect><rect x="113" y="35" width="3" height="3" fill="#083038" opacity="1" class="highcharts-point highcharts-negative"></rect><rect x="162" y="32" width="2" height="3" fill="#083038" opacity="1" class="highcharts-point"></rect><rect x="186" y="35" width="3" height="2" fill="#083038" opacity="1" class="highcharts-point highcharts-negative"></rect><rect x="210" y="35" width="3" height="6" fill="#083038" opacity="1" class="highcharts-point highcharts-negative"></rect><rect x="234" y="30" width="3" height="5" fill="#083038" opacity="1" class="highcharts-point"></rect><rect x="258" y="26" width="3" height="9" fill="#083038" opacity="1" class="highcharts-point"></rect></g><g class="highcharts-markers highcharts-series-4 highcharts-column-series" data-z-index="0.1" opacity="1" transform="translate(39,85) scale(1 1)" clip-path="none"></g></g><text x="2" text-anchor="start" class="highcharts-title" data-z-index="4" style="color:#000000;font-size:10px;font-weight:bold;fill:#000000;" y="9"><tspan>Wanderungssaldo nach Zuzugs- und Wegzugsort</tspan></text><text x="2" text-anchor="start" class="highcharts-subtitle" data-z-index="4" style="color:#000000;font-size:10px;font-weight:normal;font-family:Arial;fill:#000000;" y="25"><tspan>Wohnviertel Klybeck und Kleinhüningen</tspan></text><text x="2" text-anchor="start" class="highcharts-caption" data-z-index="4" style="color:#666666;fill:#666666;" y="219"></text><g class="highcharts-legend" data-z-index="7" transform="translate(36,39)"><rect fill="none" class="highcharts-legend-box" rx="0" ry="0" x="0" y="0" width="245" height="34" visibility="visible"></rect><g data-z-index="1"><g><g class="highcharts-legend-item highcharts-column-series highcharts-color-undefined highcharts-series-0" data-z-index="1" transform="translate(0,-5)"><text x="21" style="color:#333333;cursor:pointer;font-size:10px;font-weight:normal;fill:#333333;" text-anchor="start" data-z-index="2" y="13"><tspan>Schweiz. Aggl. BS</tspan></text><rect x="3" y="4" width="10" height="10" fill="#FFBB58" class="highcharts-point" data-z-index="3"></rect></g><g class="highcharts-legend-item highcharts-column-series highcharts-color-undefined highcharts-series-1" data-z-index="1" transform="translate(132.84375,-5)"><text x="21" y="13" style="color:#333333;cursor:pointer;font-size:10px;font-weight:normal;fill:#333333;" text-anchor="start" data-z-index="2"><tspan>Übrige Schweiz</tspan></text><rect x="3" y="4" width="10" height="10" fill="#DC440E" class="highcharts-point" data-z-index="3"></rect></g><g class="highcharts-legend-item highcharts-column-series highcharts-color-undefined highcharts-series-2" data-z-index="1" transform="translate(0,8)"><text x="21" y="13" style="color:#333333;cursor:pointer;font-size:10px;font-weight:normal;fill:#333333;" text-anchor="start" data-z-index="2"><tspan>Ausland</tspan></text><rect x="3" y="4" width="10" height="10" fill="#A8C3CA" class="highcharts-point" data-z-index="3"></rect></g><g class="highcharts-legend-item highcharts-column-series highcharts-color-undefined highcharts-series-3" data-z-index="1" transform="translate(132.84375,8)"><text x="21" y="13" style="color:#333333;cursor:pointer;font-size:10px;font-weight:normal;fill:#333333;" text-anchor="start" data-z-index="2"><tspan>Unbekannt</tspan></text><rect x="3" y="4" width="10" height="10" fill="#246370" class="highcharts-point" data-z-index="3"></rect></g><g class="highcharts-legend-item highcharts-column-series highcharts-color-undefined highcharts-series-4" data-z-index="1" transform="translate(0,21)"><text x="21" y="13" style="color:#333333;cursor:pointer;font-size:10px;font-weight:normal;fill:#333333;" text-anchor="start" data-z-index="2"><tspan>Total</tspan></text><rect x="3" y="4" width="10" height="10" fill="#083038" class="highcharts-point" data-z-index="3"></rect></g></g></g></g><g class="highcharts-axis-labels highcharts-xaxis-labels" data-z-index="7"><text x="53.44793169486407" style="color:#000000;cursor:default;font-size:10px;fill:#000000;" text-anchor="end" transform="translate(0,0) rotate(-45 53.44793169486407 157)" y="157" opacity="1"><tspan>2014: Kleinh.</tspan></text><text x="77.62974987668207" style="color:#000000;cursor:default;font-size:10px;fill:#000000;" text-anchor="end" transform="translate(0,0) rotate(-45 77.62974987668207 157)" y="157" opacity="1"><tspan>2015: Kleinh.</tspan></text><text x="101.81156805849606" style="color:#000000;cursor:default;font-size:10px;fill:#000000;" text-anchor="end" transform="translate(0,0) rotate(-45 101.81156805849606 157)" y="157" opacity="1"><tspan>2016: Kleinh.</tspan></text><text x="125.99338624031606" style="color:#000000;cursor:default;font-size:10px;fill:#000000;" text-anchor="end" transform="translate(0,0) rotate(-45 125.99338624031606 157)" y="157" opacity="1"><tspan>2017: Kleinh.</tspan></text><text x="150.17520442213606" style="color:#000000;cursor:default;font-size:10px;fill:#000000;" text-anchor="end" transform="translate(0,0) rotate(-45 150.17520442213606 157)" y="157" opacity="1"><tspan>2018: Kleinh.</tspan></text><text x="174.35702260395607" style="color:#000000;cursor:default;font-size:10px;fill:#000000;" text-anchor="end" transform="translate(0,0) rotate(-45 174.35702260395607 157)" y="157" opacity="1"></text><text x="198.53884078577607" style="color:#000000;cursor:default;font-size:10px;fill:#000000;" text-anchor="end" transform="translate(0,0) rotate(-45 198.53884078577607 157)" y="157" opacity="1"><tspan>2014: Klybeck</tspan></text><text x="222.72065896759605" style="color:#000000;cursor:default;font-size:10px;fill:#000000;" text-anchor="end" transform="translate(0,0) rotate(-45 222.72065896759605 157)" y="157" opacity="1"><tspan>2015: Klybeck</tspan></text><text x="246.90247714940605" style="color:#000000;cursor:default;font-size:10px;fill:#000000;" text-anchor="end" transform="translate(0,0) rotate(-45 246.90247714940605 157)" y="157" opacity="1"><tspan>2016: Klybeck</tspan></text><text x="271.0842953312261" style="color:#000000;cursor:default;font-size:10px;fill:#000000;" text-anchor="end" transform="translate(0,0) rotate(-45 271.0842953312261 157)" y="157" opacity="1"><tspan>2017: Klybeck</tspan></text><text x="295.2661135130461" style="color:#000000;cursor:default;font-size:10px;fill:#000000;" text-anchor="end" transform="translate(0,0) rotate(-45 295.2661135130461 157)" y="157" opacity="1"><tspan>2018: Klybeck</tspan></text></g><g class="highcharts-axis-labels highcharts-yaxis-labels" data-z-index="7"><text x="24" style="color:#000000;cursor:default;font-size:10px;fill:#000000;" text-anchor="end" transform="translate(0,0)" y="122" opacity="1">0</text><text x="24" style="color:#000000;cursor:default;font-size:10px;fill:#000000;" text-anchor="end" transform="translate(0,0)" y="99" opacity="1">120</text><text x="24" style="color:#000000;cursor:default;font-size:10px;fill:#000000;" text-anchor="end" transform="translate(0,0)" y="145" opacity="1">-120</text><text x="24" style="color:#000000;cursor:default;font-size:10px;fill:#000000;" text-anchor="end" transform="translate(0,0)" y="134" opacity="1">-60</text><text x="24" style="color:#000000;cursor:default;font-size:10px;fill:#000000;" text-anchor="end" transform="translate(0,0)" y="111" opacity="1">60</text><text x="24" style="color:#000000;cursor:default;font-size:10px;fill:#000000;" text-anchor="end" transform="translate(0,0)" y="88" opacity="1">180</text></g><text x="10" class="highcharts-credits" text-anchor="start" data-z-index="8" style="cursor:default;color:#000000;font-size:10;fill:#000000;" y="196"><tspan>Quelle: Statistisches Amt Basel-Stadt, Bevölkerungsstatistik.</tspan><tspan x="10" dy="15">Zuletzt geändert: 2020-2-19</tspan></text><g class="highcharts-control-points" data-z-index="99" clip-path="url(#highcharts-vz9hnuk-119-)"></g></svg>