<?xml version="1.0" standalone="no"?><!DOCTYPE svg PUBLIC "-//W3C//DTD SVG 1.1//EN" "http://www.w3.org/Graphics/SVG/1.1/DTD/svg11.dtd"><svg xmlns:xlink="http://www.w3.org/1999/xlink" version="1.1" class="highcharts-root" style="font-family:Arial;font-size:12px;" xmlns="http://www.w3.org/2000/svg" viewBox="0 0 485 415"><desc>Created with Highcharts 8.2.2</desc><defs><clipPath id="highcharts-fw6x6fn-67-"><rect x="0" y="0" width="274" height="116" fill="none"></rect></clipPath><clipPath id="highcharts-fw6x6fn-88-"><rect x="0" y="0" width="274" height="116" fill="none"></rect></clipPath><clipPath id="highcharts-fw6x6fn-129-"><rect x="31" y="62" width="274" height="116" fill="none"></rect></clipPath></defs><rect fill="#fbfbfb" class="highcharts-background" x="0" y="0" width="320" height="221" rx="0" ry="0"></rect><rect fill="none" class="highcharts-plot-background" x="31" y="62" width="274" height="116"></rect><g class="highcharts-pane-group" data-z-index="0"></g><g class="highcharts-grid highcharts-xaxis-grid" data-z-index="1"><path fill="none" data-z-index="1" class="highcharts-grid-line" d="M 33.5 62 L 33.5 178" opacity="1"></path><path fill="none" data-z-index="1" class="highcharts-grid-line" d="M 61.5 62 L 61.5 178" opacity="1"></path><path fill="none" data-z-index="1" class="highcharts-grid-line" d="M 89.5 62 L 89.5 178" opacity="1"></path><path fill="none" data-z-index="1" class="highcharts-grid-line" d="M 118.5 62 L 118.5 178" opacity="1"></path><path fill="none" data-z-index="1" class="highcharts-grid-line" d="M 146.5 62 L 146.5 178" opacity="1"></path><path fill="none" data-z-index="1" class="highcharts-grid-line" d="M 174.5 62 L 174.5 178" opacity="1"></path><path fill="none" data-z-index="1" class="highcharts-grid-line" d="M 202.5 62 L 202.5 178" opacity="1"></path><path fill="none" data-z-index="1" class="highcharts-grid-line" d="M 231.5 62 L 231.5 178" opacity="1"></path><path fill="none" data-z-index="1" class="highcharts-grid-line" d="M 259.5 62 L 259.5 178" opacity="1"></path><path fill="none" data-z-index="1" class="highcharts-grid-line" d="M 287.5 62 L 287.5 178" opacity="1"></path></g><g class="highcharts-grid highcharts-yaxis-grid" data-z-index="1"><path fill="none" stroke="#B9CFD7" stroke-width="0.5" data-z-index="1" class="highcharts-grid-line" d="M 31 178.25 L 305 178.25" opacity="1"></path><path fill="none" stroke="#B9CFD7" stroke-width="0.5" data-z-index="1" class="highcharts-grid-line" d="M 31 149.25 L 305 149.25" opacity="1"></path><path fill="none" stroke="#B9CFD7" stroke-width="0.5" data-z-index="1" class="highcharts-grid-line" d="M 31 120.25 L 305 120.25" opacity="1"></path><path fill="none" stroke="#B9CFD7" stroke-width="0.5" data-z-index="1" class="highcharts-grid-line" d="M 31 91.25 L 305 91.25" opacity="1"></path><path fill="none" stroke="#B9CFD7" stroke-width="0.5" data-z-index="1" class="highcharts-grid-line" d="M 31 61.75 L 305 61.75" opacity="1"></path></g><rect fill="none" class="highcharts-plot-border" data-z-index="1" x="31" y="62" width="274" height="116"></rect><g class="highcharts-axis highcharts-xaxis" data-z-index="2"><path fill="none" class="highcharts-axis-line" stroke="#B9CFD7" stroke-width="0.5" data-z-index="7" d="M 31 178.25 L 305 178.25"></path></g><g class="highcharts-axis highcharts-yaxis" data-z-index="2"><path fill="none" class="highcharts-axis-line" data-z-index="7" d="M 31 62 L 31 178"></path></g><g class="highcharts-series-group" data-z-index="3"><g class="highcharts-series highcharts-series-0 highcharts-line-series" data-z-index="0.1" opacity="1" transform="translate(31,62) scale(1 1)" clip-path="url(#highcharts-fw6x6fn-88-)"><path fill="none" d="M 2.6862745098047 82.739486605 L 16.824561403509 55.81430912100001 L 30.962848297214 85.115237568 L 45.101135190919 61.913329687 L 59.239422084624 68.276467347 L 73.377708978329 73.025246985 L 87.515995872033 51.830445228 L 101.65428276574 59.651849889 L 115.79256965944 61.078687647 L 129.93085655315 82.720042714 L 144.06914344685 96.651187617 L 158.20743034056 106.715048018 L 172.34571723426 104.4 L 186.48400412797 105.846485316 L 200.62229102167 109.755047113 L 214.76057791538 109.793472432 L 228.89886480908 110.57509354 L 243.03715170279 106.722474019 L 257.17543859649 106.754516467 L 271.3137254902 99.0499468668" class="highcharts-graph" data-z-index="1" stroke="#cd9c00" stroke-width="2" stroke-linejoin="round" stroke-linecap="round"></path></g><g class="highcharts-markers highcharts-series-0 highcharts-line-series" data-z-index="0.1" opacity="1" transform="translate(31,62) scale(1 1)" clip-path="none"></g><g class="highcharts-series highcharts-series-1 highcharts-line-series" data-z-index="0.1" opacity="1" transform="translate(31,62) scale(1 1)" clip-path="url(#highcharts-fw6x6fn-88-)"><path fill="none" d="M 2.6862745098047 72.614173232 L 16.824561403509 10.877856586999997 L 30.962848297214 67.97160882 L 45.101135190919 14.167938922000005 L 59.239422084624 18.595419846 L 73.377708978329 76.152671742 L 87.515995872033 80.580152666 L 101.65428276574 85.00763359 L 115.79256965944 82.81922196 L 129.93085655315 74.035034264 L 144.06914344685 76.243716691 L 158.20743034056 99.4640057 L 172.34571723426 105.665003577 L 186.48400412797 109.545994059 L 200.62229102167 107.420118348 L 214.76057791538 113.862932928 L 228.89886480908 107.476855253 L 243.03715170279 96.822924312 L 257.17543859649 94.707782661 L 271.3137254902 96.8370044065" class="highcharts-graph" data-z-index="1" stroke="#b375ab" stroke-width="2" stroke-linejoin="round" stroke-linecap="round"></path></g><g class="highcharts-markers highcharts-series-1 highcharts-line-series" data-z-index="0.1" opacity="1" transform="translate(31,62) scale(1 1)" clip-path="none"></g><g class="highcharts-series highcharts-series-2 highcharts-line-series" data-z-index="0.1" opacity="1" transform="translate(31,62) scale(1 1)" clip-path="url(#highcharts-fw6x6fn-88-)"><path fill="none" d="M 2.6862745098047 76.16923926800001 L 16.824561403509 72.686991449 L 30.962848297214 75.531016026 L 45.101135190919 73.652318915 L 59.239422084624 71.926303266 L 73.377708978329 70.113339701 L 87.515995872033 74.735153569 L 101.65428276574 75.363018185 L 115.79256965944 80.049586791 L 129.93085655315 89.094968294 L 144.06914344685 93.778715954 L 158.20743034056 101.702246 L 172.34571723426 102.284893352 L 186.48400412797 106.499838293 L 200.62229102167 110.154676248 L 214.76057791538 107.229360785 L 228.89886480908 104.471236557 L 243.03715170279 102.421796175 L 257.17543859649 96.098152658 L 271.3137254902 86.6679168501" class="highcharts-graph" data-z-index="1" stroke="#999" stroke-width="2" stroke-linejoin="round" stroke-linecap="round"></path></g><g class="highcharts-markers highcharts-series-2 highcharts-line-series" data-z-index="0.1" opacity="1" transform="translate(31,62) scale(1 1)" clip-path="none"></g></g><text x="2" text-anchor="start" class="highcharts-title" data-z-index="4" style="color:#000000;font-size:10px;font-weight:bold;fill:#000000;" y="9"><tspan>Leerwohnungsquote</tspan></text><text x="2" text-anchor="start" class="highcharts-subtitle" data-z-index="4" style="color:#000000;font-size:10px;font-weight:normal;font-family:Arial;fill:#000000;" y="25"><tspan>Wohnviertel Klybeck und Kleinh체ningen</tspan></text><text x="2" text-anchor="start" class="highcharts-caption" data-z-index="4" style="color:#666666;fill:#666666;" y="221"></text><g class="highcharts-legend" data-z-index="7" transform="translate(31,39)"><rect fill="none" class="highcharts-legend-box" rx="0" ry="0" x="0" y="0" width="252" height="11" visibility="visible"></rect><g data-z-index="1"><g><g class="highcharts-legend-item highcharts-line-series highcharts-color-undefined highcharts-series-0" data-z-index="1" transform="translate(0,-5)"><path fill="none" d="M 0 10 L 16 10" class="highcharts-graph" stroke="#cd9c00" stroke-width="2"></path><text x="21" style="color:#333333;cursor:pointer;font-size:10px;font-weight:normal;fill:#333333;" text-anchor="start" data-z-index="2" y="13"><tspan>Klybeck</tspan></text></g><g class="highcharts-legend-item highcharts-line-series highcharts-color-undefined highcharts-series-1" data-z-index="1" transform="translate(75.96875,-5)"><path fill="none" d="M 0 10 L 16 10" class="highcharts-graph" stroke="#b375ab" stroke-width="2"></path><text x="21" y="13" style="color:#333333;cursor:pointer;font-size:10px;font-weight:normal;fill:#333333;" text-anchor="start" data-z-index="2"><tspan>Kleinh체ningen</tspan></text></g><g class="highcharts-legend-item highcharts-line-series highcharts-color-undefined highcharts-series-2" data-z-index="1" transform="translate(180.203125,-5)"><path fill="none" d="M 0 10 L 16 10" class="highcharts-graph" stroke="#999" stroke-width="2"></path><text x="21" y="13" style="color:#333333;cursor:pointer;font-size:10px;font-weight:normal;fill:#333333;" text-anchor="start" data-z-index="2"><tspan>Stadt Basel</tspan></text></g></g></g></g><g class="highcharts-axis-labels highcharts-xaxis-labels" data-z-index="7"><text x="36.04329711376016" style="color:#000000;cursor:default;font-size:10px;white-space:nowrap;fill:#000000;" text-anchor="end" transform="translate(0,0) rotate(-45 36.04329711376016 193)" y="193" opacity="1">2000</text><text x="64.31987090116917" style="color:#000000;cursor:default;font-size:10px;white-space:nowrap;fill:#000000;" text-anchor="end" transform="translate(0,0) rotate(-45 64.31987090116917 193)" y="193" opacity="1">2002</text><text x="92.59644468857915" style="color:#000000;cursor:default;font-size:10px;white-space:nowrap;fill:#000000;" text-anchor="end" transform="translate(0,0) rotate(-45 92.59644468857915 193)" y="193" opacity="1">2004</text><text x="120.87301847598516" style="color:#000000;cursor:default;font-size:10px;white-space:nowrap;fill:#000000;" text-anchor="end" transform="translate(0,0) rotate(-45 120.87301847598516 193)" y="193" opacity="1">2006</text><text x="149.14959226339516" style="color:#000000;cursor:default;font-size:10px;white-space:nowrap;fill:#000000;" text-anchor="end" transform="translate(0,0) rotate(-45 149.14959226339516 193)" y="193" opacity="1">2008</text><text x="177.42616605080516" style="color:#000000;cursor:default;font-size:10px;white-space:nowrap;fill:#000000;" text-anchor="end" transform="translate(0,0) rotate(-45 177.42616605080516 193)" y="193" opacity="1">2010</text><text x="205.70273983821517" style="color:#000000;cursor:default;font-size:10px;white-space:nowrap;fill:#000000;" text-anchor="end" transform="translate(0,0) rotate(-45 205.70273983821517 193)" y="193" opacity="1">2012</text><text x="233.97931362562517" style="color:#000000;cursor:default;font-size:10px;white-space:nowrap;fill:#000000;" text-anchor="end" transform="translate(0,0) rotate(-45 233.97931362562517 193)" y="193" opacity="1">2014</text><text x="262.25588741303517" style="color:#000000;cursor:default;font-size:10px;white-space:nowrap;fill:#000000;" text-anchor="end" transform="translate(0,0) rotate(-45 262.25588741303517 193)" y="193" opacity="1">2016</text><text x="290.53246120044514" style="color:#000000;cursor:default;font-size:10px;white-space:nowrap;fill:#000000;" text-anchor="end" transform="translate(0,0) rotate(-45 290.53246120044514 193)" y="193" opacity="1">2018</text></g><g class="highcharts-axis-labels highcharts-yaxis-labels" data-z-index="7"><text x="16" style="color:#000000;cursor:default;font-size:10px;fill:#000000;" text-anchor="end" transform="translate(0,0)" y="181" opacity="1">0%</text><text x="16" style="color:#000000;cursor:default;font-size:10px;fill:#000000;" text-anchor="end" transform="translate(0,0)" y="152" opacity="1">1%</text><text x="16" style="color:#000000;cursor:default;font-size:10px;fill:#000000;" text-anchor="end" transform="translate(0,0)" y="123" opacity="1">2%</text><text x="16" style="color:#000000;cursor:default;font-size:10px;fill:#000000;" text-anchor="end" transform="translate(0,0)" y="94" opacity="1">3%</text><text x="16" style="color:#000000;cursor:default;font-size:10px;fill:#000000;" text-anchor="end" transform="translate(0,0)" y="65" opacity="1">4%</text></g><text x="10" class="highcharts-credits" text-anchor="start" data-z-index="8" style="cursor:default;color:#000000;font-size:10px;fill:#000000;" y="196"><tspan>Quelle: Statistisches Amt Basel-Stadt, Geb채ude- und Wohnungsstatistik.</tspan><tspan x="10" dy="13">Zuletzt ge채ndert: 2020-2-19</tspan></text><g class="highcharts-control-points" data-z-index="99" clip-path="url(#highcharts-fw6x6fn-129-)"></g></svg>