<svg version="1.1" class="highcharts-root" style="font-family: Inter, &quot;Helvetica Neue&quot;, Helvetica, Arial, sans-serif; font-size: 1rem;" xmlns="http://www.w3.org/2000/svg" width="600" height="400" viewBox="0 0 600 400" role="img" aria-label="Ausländische Erwerbstätige in der Branche Lagerei und Zustelldienste"><desc>Created with Highcharts 12.5.0</desc><defs><filter id="highcharts-drop-shadow-0"><feDropShadow dx="1" dy="1" flood-color="#000000" flood-opacity="0.75" stdDeviation="2.5"></feDropShadow></filter><clipPath id="highcharts-fa8wc88-633-"><rect x="0" y="0" width="515" height="151" fill="none"></rect></clipPath><clipPath id="highcharts-fa8wc88-674-"><rect x="0" y="0" width="515" height="151" fill="none"></rect></clipPath></defs><rect fill="#ffffff" class="highcharts-background" filter="none" x="0" y="0" width="600" height="400" rx="0" ry="0"></rect><rect fill="none" class="highcharts-plot-background" x="46" y="154" width="515" height="151" filter="none"></rect><g class="highcharts-pane-group" data-z-index="0"></g><g class="highcharts-grid highcharts-xaxis-grid" data-z-index="1"><path fill="none" stroke="#e6e6e6" stroke-width="0" stroke-dasharray="none" data-z-index="1" class="highcharts-grid-line" d="M 52.5 154 L 52.5 305" opacity="1"></path><path fill="none" stroke="#e6e6e6" stroke-width="0" stroke-dasharray="none" data-z-index="1" class="highcharts-grid-line" d="M 103.5 154 L 103.5 305" opacity="1"></path><path fill="none" stroke="#e6e6e6" stroke-width="0" stroke-dasharray="none" data-z-index="1" class="highcharts-grid-line" d="M 155.5 154 L 155.5 305" opacity="1"></path><path fill="none" stroke="#e6e6e6" stroke-width="0" stroke-dasharray="none" data-z-index="1" class="highcharts-grid-line" d="M 206.5 154 L 206.5 305" opacity="1"></path><path fill="none" stroke="#e6e6e6" stroke-width="0" stroke-dasharray="none" data-z-index="1" class="highcharts-grid-line" d="M 258.5 154 L 258.5 305" opacity="1"></path><path fill="none" stroke="#e6e6e6" stroke-width="0" stroke-dasharray="none" data-z-index="1" class="highcharts-grid-line" d="M 309.5 154 L 309.5 305" opacity="1"></path><path fill="none" stroke="#e6e6e6" stroke-width="0" stroke-dasharray="none" data-z-index="1" class="highcharts-grid-line" d="M 361.5 154 L 361.5 305" opacity="1"></path><path fill="none" stroke="#e6e6e6" stroke-width="0" stroke-dasharray="none" data-z-index="1" class="highcharts-grid-line" d="M 412.5 154 L 412.5 305" opacity="1"></path><path fill="none" stroke="#e6e6e6" stroke-width="0" stroke-dasharray="none" data-z-index="1" class="highcharts-grid-line" d="M 464.5 154 L 464.5 305" opacity="1"></path><path fill="none" stroke="#e6e6e6" stroke-width="0" stroke-dasharray="none" data-z-index="1" class="highcharts-grid-line" d="M 515.5 154 L 515.5 305" opacity="1"></path></g><g class="highcharts-grid highcharts-yaxis-grid" data-z-index="1"><path fill="none" stroke="#B9CFD7" stroke-width="0.5" stroke-dasharray="none" data-z-index="1" class="highcharts-grid-line" d="M 46 305.25 L 561 305.25" opacity="1"></path><path fill="none" stroke="#B9CFD7" stroke-width="0.5" stroke-dasharray="none" data-z-index="1" class="highcharts-grid-line" d="M 46 286.25 L 561 286.25" opacity="1"></path><path fill="none" stroke="#B9CFD7" stroke-width="0.5" stroke-dasharray="none" data-z-index="1" class="highcharts-grid-line" d="M 46 267.25 L 561 267.25" opacity="1"></path><path fill="none" stroke="#B9CFD7" stroke-width="0.5" stroke-dasharray="none" data-z-index="1" class="highcharts-grid-line" d="M 46 248.25 L 561 248.25" opacity="1"></path><path fill="none" stroke="#B9CFD7" stroke-width="0.5" stroke-dasharray="none" data-z-index="1" class="highcharts-grid-line" d="M 46 229.25 L 561 229.25" opacity="1"></path><path fill="none" stroke="#B9CFD7" stroke-width="0.5" stroke-dasharray="none" data-z-index="1" class="highcharts-grid-line" d="M 46 210.25 L 561 210.25" opacity="1"></path><path fill="none" stroke="#B9CFD7" stroke-width="0.5" stroke-dasharray="none" data-z-index="1" class="highcharts-grid-line" d="M 46 192.25 L 561 192.25" opacity="1"></path><path fill="none" stroke="#B9CFD7" stroke-width="0.5" stroke-dasharray="none" data-z-index="1" class="highcharts-grid-line" d="M 46 173.25 L 561 173.25" opacity="1"></path><path fill="none" stroke="#B9CFD7" stroke-width="0.5" stroke-dasharray="none" data-z-index="1" class="highcharts-grid-line" d="M 46 154.25 L 561 154.25" opacity="1"></path></g><g class="highcharts-grid highcharts-yaxis-grid" data-z-index="1"><path fill="none" stroke="#B9CFD7" stroke-width="0.5" stroke-dasharray="none" data-z-index="1" class="highcharts-grid-line" d="M 46 305.25 L 561 305.25" opacity="1"></path><path fill="none" stroke="#B9CFD7" stroke-width="0.5" stroke-dasharray="none" data-z-index="1" class="highcharts-grid-line" d="M 46 286.25 L 561 286.25" opacity="1"></path><path fill="none" stroke="#B9CFD7" stroke-width="0.5" stroke-dasharray="none" data-z-index="1" class="highcharts-grid-line" d="M 46 267.25 L 561 267.25" opacity="1"></path><path fill="none" stroke="#B9CFD7" stroke-width="0.5" stroke-dasharray="none" data-z-index="1" class="highcharts-grid-line" d="M 46 248.25 L 561 248.25" opacity="1"></path><path fill="none" stroke="#B9CFD7" stroke-width="0.5" stroke-dasharray="none" data-z-index="1" class="highcharts-grid-line" d="M 46 229.25 L 561 229.25" opacity="1"></path><path fill="none" stroke="#B9CFD7" stroke-width="0.5" stroke-dasharray="none" data-z-index="1" class="highcharts-grid-line" d="M 46 210.25 L 561 210.25" opacity="1"></path><path fill="none" stroke="#B9CFD7" stroke-width="0.5" stroke-dasharray="none" data-z-index="1" class="highcharts-grid-line" d="M 46 192.25 L 561 192.25" opacity="1"></path><path fill="none" stroke="#B9CFD7" stroke-width="0.5" stroke-dasharray="none" data-z-index="1" class="highcharts-grid-line" d="M 46 173.25 L 561 173.25" opacity="1"></path><path fill="none" stroke="#B9CFD7" stroke-width="0.5" stroke-dasharray="none" data-z-index="1" class="highcharts-grid-line" d="M 46 154.25 L 561 154.25" opacity="1"></path></g><rect fill="none" class="highcharts-plot-border" data-z-index="1" stroke="#cccccc" stroke-width="0" x="46" y="154" width="515" height="151"></rect><g class="highcharts-axis highcharts-xaxis" data-z-index="2"><path fill="none" class="highcharts-axis-line" stroke="#B9CFD7" stroke-width="0.5" data-z-index="7" d="M 46 305.25 L 561 305.25"></path></g><g class="highcharts-axis highcharts-yaxis" data-z-index="2"><path fill="none" class="highcharts-axis-line" stroke="#333333" stroke-width="0" data-z-index="7" d="M 46 154 L 46 305"></path></g><g class="highcharts-axis highcharts-yaxis" data-z-index="2"><path fill="none" class="highcharts-axis-line" stroke="#333333" stroke-width="0" data-z-index="7" d="M 561 154 L 561 305"></path></g><g class="highcharts-series-group" data-z-index="3" filter="none"><g class="highcharts-series highcharts-series-0 highcharts-column-series highcharts-tracker" data-z-index="0.1" opacity="1" transform="translate(46,154) scale(1 1)" clip-path="url(#highcharts-fa8wc88-633-)"><path fill="#73b97c" d="M 6 91 L 7 91 A 3 3 0 0 1 10 94 L 10 151 A 0 0 0 0 1 10 151 L 3 151 A 0 0 0 0 1 3 151 L 3 94 A 3 3 0 0 1 6 91 Z" stroke="#ffffff" stroke-width="0" opacity="1" filter="none" class="highcharts-point"></path><path fill="#73b97c" d="M 19 125 L 20 125 A 3 3 0 0 1 23 128 L 23 151 A 0 0 0 0 1 23 151 L 16 151 A 0 0 0 0 1 16 151 L 16 128 A 3 3 0 0 1 19 125 Z" stroke="#ffffff" stroke-width="0" opacity="1" filter="none" class="highcharts-point"></path><path fill="#73b97c" d="M 32 113 L 33 113 A 3 3 0 0 1 36 116 L 36 151 A 0 0 0 0 1 36 151 L 29 151 A 0 0 0 0 1 29 151 L 29 116 A 3 3 0 0 1 32 113 Z" stroke="#ffffff" stroke-width="0" opacity="1" filter="none" class="highcharts-point"></path><path fill="#73b97c" d="M 45 117 L 46 117 A 3 3 0 0 1 49 120 L 49 151 A 0 0 0 0 1 49 151 L 42 151 A 0 0 0 0 1 42 151 L 42 120 A 3 3 0 0 1 45 117 Z" stroke="#ffffff" stroke-width="0" opacity="1" filter="none" class="highcharts-point"></path><path fill="#73b97c" d="M 58 85 L 59 85 A 3 3 0 0 1 62 88 L 62 151 A 0 0 0 0 1 62 151 L 55 151 A 0 0 0 0 1 55 151 L 55 88 A 3 3 0 0 1 58 85 Z" stroke="#ffffff" stroke-width="0" opacity="1" filter="none" class="highcharts-point"></path><path fill="#73b97c" d="M 71 92 L 72 92 A 3 3 0 0 1 75 95 L 75 151 A 0 0 0 0 1 75 151 L 68 151 A 0 0 0 0 1 68 151 L 68 95 A 3 3 0 0 1 71 92 Z" stroke="#ffffff" stroke-width="0" opacity="1" filter="none" class="highcharts-point"></path><path fill="#73b97c" d="M 84 125 L 85 125 A 3 3 0 0 1 88 128 L 88 151 A 0 0 0 0 1 88 151 L 81 151 A 0 0 0 0 1 81 151 L 81 128 A 3 3 0 0 1 84 125 Z" stroke="#ffffff" stroke-width="0" opacity="1" filter="none" class="highcharts-point"></path><path fill="#73b97c" d="M 96 132 L 97 132 A 3 3 0 0 1 100 135 L 100 151 A 0 0 0 0 1 100 151 L 93 151 A 0 0 0 0 1 93 151 L 93 135 A 3 3 0 0 1 96 132 Z" stroke="#ffffff" stroke-width="0" opacity="1" filter="none" class="highcharts-point"></path><path fill="#73b97c" d="M 109 94 L 110 94 A 3 3 0 0 1 113 97 L 113 151 A 0 0 0 0 1 113 151 L 106 151 A 0 0 0 0 1 106 151 L 106 97 A 3 3 0 0 1 109 94 Z" stroke="#ffffff" stroke-width="0" opacity="1" filter="none" class="highcharts-point"></path><path fill="#73b97c" d="M 122 96 L 123 96 A 3 3 0 0 1 126 99 L 126 151 A 0 0 0 0 1 126 151 L 119 151 A 0 0 0 0 1 119 151 L 119 99 A 3 3 0 0 1 122 96 Z" stroke="#ffffff" stroke-width="0" opacity="1" filter="none" class="highcharts-point"></path><path fill="#73b97c" d="M 135 142 L 136 142 A 3 3 0 0 1 139 145 L 139 151 A 0 0 0 0 1 139 151 L 132 151 A 0 0 0 0 1 132 151 L 132 145 A 3 3 0 0 1 135 142 Z" stroke="#ffffff" stroke-width="0" opacity="1" filter="none" class="highcharts-point"></path><path fill="#73b97c" d="M 148 121 L 149 121 A 3 3 0 0 1 152 124 L 152 151 A 0 0 0 0 1 152 151 L 145 151 A 0 0 0 0 1 145 151 L 145 124 A 3 3 0 0 1 148 121 Z" stroke="#ffffff" stroke-width="0" opacity="1" filter="none" class="highcharts-point"></path><path fill="#73b97c" d="M 161 109 L 162 109 A 3 3 0 0 1 165 112 L 165 151 A 0 0 0 0 1 165 151 L 158 151 A 0 0 0 0 1 158 151 L 158 112 A 3 3 0 0 1 161 109 Z" stroke="#ffffff" stroke-width="0" opacity="1" filter="none" class="highcharts-point"></path><path fill="#73b97c" d="M 174 119 L 175 119 A 3 3 0 0 1 178 122 L 178 151 A 0 0 0 0 1 178 151 L 171 151 A 0 0 0 0 1 171 151 L 171 122 A 3 3 0 0 1 174 119 Z" stroke="#ffffff" stroke-width="0" opacity="1" filter="none" class="highcharts-point"></path><path fill="#73b97c" d="M 187 111 L 188 111 A 3 3 0 0 1 191 114 L 191 151 A 0 0 0 0 1 191 151 L 184 151 A 0 0 0 0 1 184 151 L 184 114 A 3 3 0 0 1 187 111 Z" stroke="#ffffff" stroke-width="0" opacity="1" filter="none" class="highcharts-point"></path><path fill="#73b97c" d="M 199 111 L 200 111 A 3 3 0 0 1 203 114 L 203 151 A 0 0 0 0 1 203 151 L 196 151 A 0 0 0 0 1 196 151 L 196 114 A 3 3 0 0 1 199 111 Z" stroke="#ffffff" stroke-width="0" opacity="1" filter="none" class="highcharts-point"></path><path fill="#73b97c" d="M 212 85 L 213 85 A 3 3 0 0 1 216 88 L 216 151 A 0 0 0 0 1 216 151 L 209 151 A 0 0 0 0 1 209 151 L 209 88 A 3 3 0 0 1 212 85 Z" stroke="#ffffff" stroke-width="0" opacity="1" filter="none" class="highcharts-point"></path><path fill="#73b97c" d="M 225 123 L 226 123 A 3 3 0 0 1 229 126 L 229 151 A 0 0 0 0 1 229 151 L 222 151 A 0 0 0 0 1 222 151 L 222 126 A 3 3 0 0 1 225 123 Z" stroke="#ffffff" stroke-width="0" opacity="1" filter="none" class="highcharts-point"></path><path fill="#73b97c" d="M 238 113 L 239 113 A 3 3 0 0 1 242 116 L 242 151 A 0 0 0 0 1 242 151 L 235 151 A 0 0 0 0 1 235 151 L 235 116 A 3 3 0 0 1 238 113 Z" stroke="#ffffff" stroke-width="0" opacity="1" filter="none" class="highcharts-point"></path><path fill="#73b97c" d="M 251 123 L 252 123 A 3 3 0 0 1 255 126 L 255 151 A 0 0 0 0 1 255 151 L 248 151 A 0 0 0 0 1 248 151 L 248 126 A 3 3 0 0 1 251 123 Z" stroke="#ffffff" stroke-width="0" opacity="1" filter="none" class="highcharts-point"></path><path fill="#73b97c" d="M 264 130 L 265 130 A 3 3 0 0 1 268 133 L 268 151 A 0 0 0 0 1 268 151 L 261 151 A 0 0 0 0 1 261 151 L 261 133 A 3 3 0 0 1 264 130 Z" stroke="#ffffff" stroke-width="0" opacity="1" filter="none" class="highcharts-point"></path><path fill="#73b97c" d="M 277 142 L 278 142 A 3 3 0 0 1 281 145 L 281 151 A 0 0 0 0 1 281 151 L 274 151 A 0 0 0 0 1 274 151 L 274 145 A 3 3 0 0 1 277 142 Z" stroke="#ffffff" stroke-width="0" opacity="1" filter="none" class="highcharts-point"></path><path fill="#73b97c" d="M 290 134 L 291 134 A 3 3 0 0 1 294 137 L 294 151 A 0 0 0 0 1 294 151 L 287 151 A 0 0 0 0 1 287 151 L 287 137 A 3 3 0 0 1 290 134 Z" stroke="#ffffff" stroke-width="0" opacity="1" filter="none" class="highcharts-point"></path><path fill="#73b97c" d="M 302 136 L 303 136 A 3 3 0 0 1 306 139 L 306 151 A 0 0 0 0 1 306 151 L 299 151 A 0 0 0 0 1 299 151 L 299 139 A 3 3 0 0 1 302 136 Z" stroke="#ffffff" stroke-width="0" opacity="1" filter="none" class="highcharts-point"></path><path fill="#73b97c" d="M 315 130 L 316 130 A 3 3 0 0 1 319 133 L 319 151 A 0 0 0 0 1 319 151 L 312 151 A 0 0 0 0 1 312 151 L 312 133 A 3 3 0 0 1 315 130 Z" stroke="#ffffff" stroke-width="0" opacity="1" filter="none" class="highcharts-point"></path><path fill="#73b97c" d="M 328 128 L 329 128 A 3 3 0 0 1 332 131 L 332 151 A 0 0 0 0 1 332 151 L 325 151 A 0 0 0 0 1 325 151 L 325 131 A 3 3 0 0 1 328 128 Z" stroke="#ffffff" stroke-width="0" opacity="1" filter="none" class="highcharts-point"></path><path fill="#73b97c" d="M 341 138 L 342 138 A 3 3 0 0 1 345 141 L 345 151 A 0 0 0 0 1 345 151 L 338 151 A 0 0 0 0 1 338 151 L 338 141 A 3 3 0 0 1 341 138 Z" stroke="#ffffff" stroke-width="0" opacity="1" filter="none" class="highcharts-point"></path><path fill="#73b97c" d="M 354 128 L 355 128 A 3 3 0 0 1 358 131 L 358 151 A 0 0 0 0 1 358 151 L 351 151 A 0 0 0 0 1 351 151 L 351 131 A 3 3 0 0 1 354 128 Z" stroke="#ffffff" stroke-width="0" opacity="1" filter="none" class="highcharts-point"></path><path fill="#73b97c" d="M 367 130 L 368 130 A 3 3 0 0 1 371 133 L 371 151 A 0 0 0 0 1 371 151 L 364 151 A 0 0 0 0 1 364 151 L 364 133 A 3 3 0 0 1 367 130 Z" stroke="#ffffff" stroke-width="0" opacity="1" filter="none" class="highcharts-point"></path><path fill="#73b97c" d="M 380 134 L 381 134 A 3 3 0 0 1 384 137 L 384 151 A 0 0 0 0 1 384 151 L 377 151 A 0 0 0 0 1 377 151 L 377 137 A 3 3 0 0 1 380 134 Z" stroke="#ffffff" stroke-width="0" opacity="1" filter="none" class="highcharts-point"></path><path fill="#73b97c" d="M 393 121 L 394 121 A 3 3 0 0 1 397 124 L 397 151 A 0 0 0 0 1 397 151 L 390 151 A 0 0 0 0 1 390 151 L 390 124 A 3 3 0 0 1 393 121 Z" stroke="#ffffff" stroke-width="0" opacity="1" filter="none" class="highcharts-point"></path><path fill="#73b97c" d="M 405 134 L 406 134 A 3 3 0 0 1 409 137 L 409 151 A 0 0 0 0 1 409 151 L 402 151 A 0 0 0 0 1 402 151 L 402 137 A 3 3 0 0 1 405 134 Z" stroke="#ffffff" stroke-width="0" opacity="1" filter="none" class="highcharts-point"></path><path fill="#73b97c" d="M 418 130 L 419 130 A 3 3 0 0 1 422 133 L 422 151 A 0 0 0 0 1 422 151 L 415 151 A 0 0 0 0 1 415 151 L 415 133 A 3 3 0 0 1 418 130 Z" stroke="#ffffff" stroke-width="0" opacity="1" filter="none" class="highcharts-point"></path><path fill="#73b97c" d="M 431 142 L 432 142 A 3 3 0 0 1 435 145 L 435 151 A 0 0 0 0 1 435 151 L 428 151 A 0 0 0 0 1 428 151 L 428 145 A 3 3 0 0 1 431 142 Z" stroke="#ffffff" stroke-width="0" opacity="1" filter="none" class="highcharts-point"></path><path fill="#73b97c" d="M 444 136 L 445 136 A 3 3 0 0 1 448 139 L 448 151 A 0 0 0 0 1 448 151 L 441 151 A 0 0 0 0 1 441 151 L 441 139 A 3 3 0 0 1 444 136 Z" stroke="#ffffff" stroke-width="0" opacity="1" filter="none" class="highcharts-point"></path><path fill="#73b97c" d="M 457 138 L 458 138 A 3 3 0 0 1 461 141 L 461 151 A 0 0 0 0 1 461 151 L 454 151 A 0 0 0 0 1 454 151 L 454 141 A 3 3 0 0 1 457 138 Z" stroke="#ffffff" stroke-width="0" opacity="1" filter="none" class="highcharts-point"></path><path fill="#73b97c" d="M 470 136 L 471 136 A 3 3 0 0 1 474 139 L 474 151 A 0 0 0 0 1 474 151 L 467 151 A 0 0 0 0 1 467 151 L 467 139 A 3 3 0 0 1 470 136 Z" stroke="#ffffff" stroke-width="0" opacity="1" filter="none" class="highcharts-point"></path><path fill="#73b97c" d="M 483 130 L 484 130 A 3 3 0 0 1 487 133 L 487 151 A 0 0 0 0 1 487 151 L 480 151 A 0 0 0 0 1 480 151 L 480 133 A 3 3 0 0 1 483 130 Z" stroke="#ffffff" stroke-width="0" opacity="1" filter="none" class="highcharts-point"></path><path fill="#73b97c" d="M 496 136 L 497 136 A 3 3 0 0 1 500 139 L 500 151 A 0 0 0 0 1 500 151 L 493 151 A 0 0 0 0 1 493 151 L 493 139 A 3 3 0 0 1 496 136 Z" stroke="#ffffff" stroke-width="0" opacity="1" filter="none" class="highcharts-point"></path><path fill="#73b97c" d="M 508 142 L 509 142 A 3 3 0 0 1 512 145 L 512 151 A 0 0 0 0 1 512 151 L 505 151 A 0 0 0 0 1 505 151 L 505 145 A 3 3 0 0 1 508 142 Z" stroke="#ffffff" stroke-width="0" opacity="1" filter="none" class="highcharts-point"></path></g><g class="highcharts-markers highcharts-series-0 highcharts-column-series" data-z-index="0.1" opacity="1" transform="translate(46,154) scale(1 1)" clip-path="none"></g><g class="highcharts-series highcharts-series-1 highcharts-line-series" data-z-index="0.1" opacity="1" transform="translate(46,154) scale(1 1)" clip-path="url(#highcharts-fa8wc88-674-)"><path fill="none" d="M 6.4375 68.89375 L 19.3125 70.97 L 32.1875 76.82125 L 45.0625 77.01 L 57.9375 76.255 L 70.8125 77.3875 L 83.6875 76.6325 L 96.5625 79.84125 L 109.4375 81.1625 L 122.3125 79.46375 L 135.1875 78.52 L 148.0625 80.785 L 160.9375 82.295 L 173.8125 82.10625 L 186.6875 85.6925 L 199.5625 81.35125 L 212.4375 84.56 L 225.3125 82.10625 L 238.1875 85.50375 L 251.0625 86.4475 L 263.9375 88.90125 L 276.8125 83.61625 L 289.6875 87.2025 L 302.5625 80.03 L 315.4375 82.10625 L 328.3125 82.86125 L 341.1875 78.52 L 354.0625 76.6325 L 366.9375 81.1625 L 379.8125 82.48375 L 392.6875 86.25875 L 405.5625 86.25875 L 418.4375 81.35125 L 431.3125 84.56 L 444.1875 84.37125 L 457.0625 84.74875 L 469.9375 82.295 L 482.8125 83.4275 L 495.6875 82.6725 L 508.5625 77.19875" class="highcharts-graph" data-z-index="1" stroke="#0A3B19" stroke-width="2" stroke-linejoin="round" stroke-linecap="round" filter="none"></path><path fill="none" d="M 6.4375 68.89375 L 19.3125 70.97 L 32.1875 76.82125 L 45.0625 77.01 L 57.9375 76.255 L 70.8125 77.3875 L 83.6875 76.6325 L 96.5625 79.84125 L 109.4375 81.1625 L 122.3125 79.46375 L 135.1875 78.52 L 148.0625 80.785 L 160.9375 82.295 L 173.8125 82.10625 L 186.6875 85.6925 L 199.5625 81.35125 L 212.4375 84.56 L 225.3125 82.10625 L 238.1875 85.50375 L 251.0625 86.4475 L 263.9375 88.90125 L 276.8125 83.61625 L 289.6875 87.2025 L 302.5625 80.03 L 315.4375 82.10625 L 328.3125 82.86125 L 341.1875 78.52 L 354.0625 76.6325 L 366.9375 81.1625 L 379.8125 82.48375 L 392.6875 86.25875 L 405.5625 86.25875 L 418.4375 81.35125 L 431.3125 84.56 L 444.1875 84.37125 L 457.0625 84.74875 L 469.9375 82.295 L 482.8125 83.4275 L 495.6875 82.6725 L 508.5625 77.19875" data-z-index="2" class="highcharts-tracker-line" stroke-linecap="round" stroke-linejoin="round" stroke="rgba(192,192,192,0.0001)" stroke-width="22"></path></g><g class="highcharts-markers highcharts-series-1 highcharts-line-series highcharts-tracker" data-z-index="0.1" opacity="1" transform="translate(46,154) scale(1 1)" clip-path="none"></g><g class="highcharts-series highcharts-series-2 highcharts-line-series" data-z-index="0.1" opacity="1" transform="translate(46,154) scale(1 1)" clip-path="url(#highcharts-fa8wc88-674-)"><path fill="none" d="M 6.4375 140.24125 L 19.3125 138.92 L 32.1875 138.35375 L 45.0625 138.5425 L 57.9375 140.43 L 70.8125 140.43 L 83.6875 140.99625 L 96.5625 141.5625 L 109.4375 140.61875 L 122.3125 142.88375 L 135.1875 143.0725 L 148.0625 143.63875 L 160.9375 141.94 L 173.8125 143.63875 L 186.6875 144.39375 L 199.5625 146.28125 L 212.4375 144.96 L 225.3125 145.14875 L 238.1875 146.8475 L 251.0625 146.65875 L 263.9375 147.6025 L 276.8125 148.735 L 289.6875 147.79125 L 302.5625 147.79125 L 315.4375 147.98 L 328.3125 146.65875 L 341.1875 148.16875 L 354.0625 147.98 L 366.9375 146.8475 L 379.8125 148.16875 L 392.6875 147.225 L 405.5625 147.6025 L 418.4375 147.98 L 431.3125 148.92375 L 444.1875 147.225 L 457.0625 147.6025 L 469.9375 147.225 L 482.8125 146.47 L 495.6875 146.28125 L 508.5625 147.03625" class="highcharts-graph" data-z-index="1" stroke="#0A3B19" stroke-width="2" stroke-dasharray="8,6" filter="none"></path><path fill="none" d="M 6.4375 140.24125 L 19.3125 138.92 L 32.1875 138.35375 L 45.0625 138.5425 L 57.9375 140.43 L 70.8125 140.43 L 83.6875 140.99625 L 96.5625 141.5625 L 109.4375 140.61875 L 122.3125 142.88375 L 135.1875 143.0725 L 148.0625 143.63875 L 160.9375 141.94 L 173.8125 143.63875 L 186.6875 144.39375 L 199.5625 146.28125 L 212.4375 144.96 L 225.3125 145.14875 L 238.1875 146.8475 L 251.0625 146.65875 L 263.9375 147.6025 L 276.8125 148.735 L 289.6875 147.79125 L 302.5625 147.79125 L 315.4375 147.98 L 328.3125 146.65875 L 341.1875 148.16875 L 354.0625 147.98 L 366.9375 146.8475 L 379.8125 148.16875 L 392.6875 147.225 L 405.5625 147.6025 L 418.4375 147.98 L 431.3125 148.92375 L 444.1875 147.225 L 457.0625 147.6025 L 469.9375 147.225 L 482.8125 146.47 L 495.6875 146.28125 L 508.5625 147.03625" data-z-index="2" class="highcharts-tracker-line" stroke-linecap="round" stroke-linejoin="round" stroke="rgba(192,192,192,0.0001)" stroke-width="22"></path></g><g class="highcharts-markers highcharts-series-2 highcharts-line-series highcharts-tracker" data-z-index="0.1" opacity="1" transform="translate(46,154) scale(1 1)" clip-path="none"></g><g class="highcharts-series highcharts-series-3 highcharts-line-series" data-z-index="0.1" opacity="1" transform="translate(46,154) scale(1 1)" clip-path="url(#highcharts-fa8wc88-674-)"><path fill="none" d="M 6.4375 151 M 32.1875 150.81125 L 45.0625 151 L 57.9375 151 L 70.8125 151 L 83.6875 151 L 96.5625 150.6225 L 109.4375 150.6225 L 122.3125 151 L 135.1875 150.6225 L 148.0625 150.6225 L 160.9375 150.81125 L 173.8125 150.81125 L 186.6875 151 L 199.5625 151 L 212.4375 150.43375 L 225.3125 150.6225 L 238.1875 150.81125 L 251.0625 150.43375 L 263.9375 150.43375 L 276.8125 150.6225 L 289.6875 150.81125 L 302.5625 150.81125 L 315.4375 151 L 328.3125 150.6225 L 341.1875 150.6225 L 354.0625 150.81125 M 379.8125 151 L 392.6875 151 L 405.5625 150.81125 L 418.4375 150.43375 L 431.3125 147.41375 L 444.1875 141.75125 L 457.0625 133.2575 L 469.9375 123.63125 L 482.8125 138.165 L 495.6875 150.05625 L 508.5625 150.6225" class="highcharts-graph" data-z-index="1" stroke="#008AC3" stroke-width="2" stroke-linejoin="round" stroke-linecap="round" filter="none"></path><path fill="none" d="M 6.4375 151 M 32.1875 150.81125 L 45.0625 151 L 57.9375 151 L 70.8125 151 L 83.6875 151 L 96.5625 150.6225 L 109.4375 150.6225 L 122.3125 151 L 135.1875 150.6225 L 148.0625 150.6225 L 160.9375 150.81125 L 173.8125 150.81125 L 186.6875 151 L 199.5625 151 L 212.4375 150.43375 L 225.3125 150.6225 L 238.1875 150.81125 L 251.0625 150.43375 L 263.9375 150.43375 L 276.8125 150.6225 L 289.6875 150.81125 L 302.5625 150.81125 L 315.4375 151 L 328.3125 150.6225 L 341.1875 150.6225 L 354.0625 150.81125 M 379.8125 151 L 392.6875 151 L 405.5625 150.81125 L 418.4375 150.43375 L 431.3125 147.41375 L 444.1875 141.75125 L 457.0625 133.2575 L 469.9375 123.63125 L 482.8125 138.165 L 495.6875 150.05625 L 508.5625 150.6225" data-z-index="2" class="highcharts-tracker-line" stroke-linecap="round" stroke-linejoin="round" stroke="rgba(192,192,192,0.0001)" stroke-width="22"></path></g><g class="highcharts-markers highcharts-series-3 highcharts-line-series highcharts-tracker" data-z-index="0.1" opacity="1" transform="translate(46,154) scale(1 1)" clip-path="none"></g></g><text x="10" text-anchor="start" class="highcharts-caption" data-z-index="4" style="font-size: 0.8em; fill: rgb(102, 102, 102);" text-align="left" y="347" transform-origin="10 15" transform="translate(0,0) scale(1 1)"></text><g class="highcharts-axis-labels highcharts-xaxis-labels" data-z-index="7"><text x="69.4375" text-anchor="middle" transform="translate(0,0)" style="cursor: default; font-size: 0.8em; fill: rgb(0, 0, 0);" y="332" opacity="1">2015</text><text x="120.9375" text-anchor="middle" transform="translate(0,0)" style="cursor: default; font-size: 0.8em; fill: rgb(0, 0, 0);" y="332" opacity="1">2016</text><text x="172.4375" text-anchor="middle" transform="translate(0,0)" style="cursor: default; font-size: 0.8em; fill: rgb(0, 0, 0);" y="332" opacity="1">2017</text><text x="223.9375" text-anchor="middle" transform="translate(0,0)" style="cursor: default; font-size: 0.8em; fill: rgb(0, 0, 0);" y="332" opacity="1">2018</text><text x="275.4375" text-anchor="middle" transform="translate(0,0)" style="cursor: default; font-size: 0.8em; fill: rgb(0, 0, 0);" y="332" opacity="1">2019</text><text x="326.9375" text-anchor="middle" transform="translate(0,0)" style="cursor: default; font-size: 0.8em; fill: rgb(0, 0, 0);" y="332" opacity="1">2020</text><text x="378.4375" text-anchor="middle" transform="translate(0,0)" style="cursor: default; font-size: 0.8em; fill: rgb(0, 0, 0);" y="332" opacity="1">2021</text><text x="429.9375" text-anchor="middle" transform="translate(0,0)" style="cursor: default; font-size: 0.8em; fill: rgb(0, 0, 0);" y="332" opacity="1">2022</text><text x="481.4375" text-anchor="middle" transform="translate(0,0)" style="cursor: default; font-size: 0.8em; fill: rgb(0, 0, 0);" y="332" opacity="1">2023</text><text x="532.9375" text-anchor="middle" transform="translate(0,0)" style="cursor: default; font-size: 0.8em; fill: rgb(0, 0, 0);" y="332" opacity="1">2024</text></g><g class="highcharts-axis-labels highcharts-yaxis-labels" data-z-index="7"><text x="31" text-anchor="end" transform="translate(0,0)" style="cursor: default; font-size: 0.8em; fill: rgb(0, 0, 0);" y="310" opacity="1">0</text><text x="31" text-anchor="end" transform="translate(0,0)" style="cursor: default; font-size: 0.8em; fill: rgb(0, 0, 0);" y="291" opacity="1">100</text><text x="31" text-anchor="end" transform="translate(0,0)" style="cursor: default; font-size: 0.8em; fill: rgb(0, 0, 0);" y="272" opacity="1">200</text><text x="31" text-anchor="end" transform="translate(0,0)" style="cursor: default; font-size: 0.8em; fill: rgb(0, 0, 0);" y="253" opacity="1">300</text><text x="31" text-anchor="end" transform="translate(0,0)" style="cursor: default; font-size: 0.8em; fill: rgb(0, 0, 0);" y="234" opacity="1">400</text><text x="31" text-anchor="end" transform="translate(0,0)" style="cursor: default; font-size: 0.8em; fill: rgb(0, 0, 0);" y="215" opacity="1">500</text><text x="31" text-anchor="end" transform="translate(0,0)" style="cursor: default; font-size: 0.8em; fill: rgb(0, 0, 0);" y="196" opacity="1">600</text><text x="31" text-anchor="end" transform="translate(0,0)" style="cursor: default; font-size: 0.8em; fill: rgb(0, 0, 0);" y="177" opacity="1">700</text><text x="31" text-anchor="end" transform="translate(0,0)" style="cursor: default; font-size: 0.8em; fill: rgb(0, 0, 0);" y="159" opacity="1">800</text></g><g class="highcharts-axis-labels highcharts-yaxis-labels" data-z-index="7"><text x="576" text-anchor="start" transform="translate(0,0)" style="cursor: default; font-size: 0.8em; fill: rgb(0, 0, 0);" y="310" opacity="1">0</text><text x="576" text-anchor="start" transform="translate(0,0)" style="cursor: default; font-size: 0.8em; fill: rgb(0, 0, 0);" y="291" opacity="1">10</text><text x="576" text-anchor="start" transform="translate(0,0)" style="cursor: default; font-size: 0.8em; fill: rgb(0, 0, 0);" y="272" opacity="1">20</text><text x="576" text-anchor="start" transform="translate(0,0)" style="cursor: default; font-size: 0.8em; fill: rgb(0, 0, 0);" y="253" opacity="1">30</text><text x="576" text-anchor="start" transform="translate(0,0)" style="cursor: default; font-size: 0.8em; fill: rgb(0, 0, 0);" y="234" opacity="1">40</text><text x="576" text-anchor="start" transform="translate(0,0)" style="cursor: default; font-size: 0.8em; fill: rgb(0, 0, 0);" y="215" opacity="1">50</text><text x="576" text-anchor="start" transform="translate(0,0)" style="cursor: default; font-size: 0.8em; fill: rgb(0, 0, 0);" y="196" opacity="1">60</text><text x="576" text-anchor="start" transform="translate(0,0)" style="cursor: default; font-size: 0.8em; fill: rgb(0, 0, 0);" y="177" opacity="1">70</text><text x="576" text-anchor="start" transform="translate(0,0)" style="cursor: default; font-size: 0.8em; fill: rgb(0, 0, 0);" y="159" opacity="1">80</text></g><g class="highcharts-legend highcharts-no-tooltip" data-z-index="7" text-align="left" transform="translate(38,55)"><rect fill="none" class="highcharts-legend-box" rx="0" ry="0" stroke="#999999" stroke-width="0" filter="none" x="0" y="0" width="372" height="87"></rect><g data-z-index="1"><g><g class="highcharts-legend-item highcharts-column-series highcharts-color-undefined highcharts-series-0" data-z-index="1" transform="translate(8,3)"><text x="21" text-anchor="start" data-z-index="2" style="cursor: pointer; font-size: 0.8em; text-decoration: none; font-weight: normal; fill: rgb(51, 51, 51);" y="17">Zuwanderung Erwerbstätige (rechte Skala)</text><rect x="2" y="6" rx="0" ry="0" width="12" height="12" fill="#73b97c" class="highcharts-point" data-z-index="3"></rect></g><g class="highcharts-legend-item highcharts-line-series highcharts-color-undefined highcharts-series-1" data-z-index="1" transform="translate(8,22)"><path fill="none" class="highcharts-graph" stroke-width="2" stroke-linecap="round" d="M 1 13 L 15 13" stroke="#0A3B19"></path><text x="21" y="17" text-anchor="start" data-z-index="2" style="cursor: pointer; font-size: 0.8em; text-decoration: none; font-weight: normal; fill: rgb(51, 51, 51);">Bestand Grenzgänger Lagerei u. sonst. DL für den Verkehr</text></g><g class="highcharts-legend-item highcharts-line-series highcharts-color-undefined highcharts-series-2" data-z-index="1" transform="translate(8,41)"><path fill="none" class="highcharts-graph" stroke-width="2" stroke-dasharray="8,6" d="M 0 13 L 16 13" stroke="#0A3B19"></path><text x="21" y="17" text-anchor="start" data-z-index="2" style="cursor: pointer; font-size: 0.8em; text-decoration: none; font-weight: normal; fill: rgb(51, 51, 51);">Bestand Grenzgänger Post-, Kurier- und Expressdienste</text></g><g class="highcharts-legend-item highcharts-line-series highcharts-color-undefined highcharts-series-3" data-z-index="1" transform="translate(8,60)"><path fill="none" class="highcharts-graph" stroke-width="2" stroke-linecap="round" d="M 1 13 L 15 13" stroke="#008AC3"></path><text x="21" y="17" text-anchor="start" data-z-index="2" style="cursor: pointer; font-size: 0.8em; text-decoration: none; font-weight: normal; fill: rgb(51, 51, 51);">Best. Meldepflichtige in VZÄ</text></g></g></g></g></svg>