<?xml version="1.0" standalone="no"?><!DOCTYPE svg PUBLIC "-//W3C//DTD SVG 1.1//EN" "http://www.w3.org/Graphics/SVG/1.1/DTD/svg11.dtd"><svg xmlns:xlink="http://www.w3.org/1999/xlink" version="1.1" class="highcharts-root" style="font-family:Arial;font-size:12px;" xmlns="http://www.w3.org/2000/svg" viewBox="0 0 485 415"><desc>Created with Highstock 6.1.1</desc><defs><clipPath id="highcharts-smvo38k-8"><rect x="0" y="0" width="258" height="90" fill="none"></rect></clipPath><clipPath id="highcharts-smvo38k-9"><rect x="0" y="0" width="258" height="90" fill="none"></rect></clipPath><clipPath id="highcharts-smvo38k-10"><rect x="0" y="0" width="258" height="90" fill="none"></rect></clipPath></defs><rect fill="#fbfbfb" class="highcharts-background" x="0" y="0" width="320" height="221" rx="0" ry="0"></rect><rect fill="none" class="highcharts-plot-background" x="33" y="85" width="258" height="90"></rect><g class="highcharts-pane-group" data-z-index="0"></g><g class="highcharts-grid highcharts-xaxis-grid " data-z-index="1"><path fill="none" data-z-index="1" class="highcharts-grid-line" d="M 33.5 85 L 33.5 175" opacity="1"></path><path fill="none" data-z-index="1" class="highcharts-grid-line" d="M 59.5 85 L 59.5 175" opacity="1"></path><path fill="none" data-z-index="1" class="highcharts-grid-line" d="M 85.5 85 L 85.5 175" opacity="1"></path><path fill="none" data-z-index="1" class="highcharts-grid-line" d="M 110.5 85 L 110.5 175" opacity="1"></path><path fill="none" data-z-index="1" class="highcharts-grid-line" d="M 136.5 85 L 136.5 175" opacity="1"></path><path fill="none" data-z-index="1" class="highcharts-grid-line" d="M 162.5 85 L 162.5 175" opacity="1"></path><path fill="none" data-z-index="1" class="highcharts-grid-line" d="M 188.5 85 L 188.5 175" opacity="1"></path><path fill="none" data-z-index="1" class="highcharts-grid-line" d="M 214.5 85 L 214.5 175" opacity="1"></path><path fill="none" data-z-index="1" class="highcharts-grid-line" d="M 239.5 85 L 239.5 175" opacity="1"></path><path fill="none" data-z-index="1" class="highcharts-grid-line" d="M 265.5 85 L 265.5 175" opacity="1"></path></g><g class="highcharts-grid highcharts-yaxis-grid " data-z-index="1"><path fill="none" stroke="#e6e6e6" stroke-width="1" data-z-index="1" class="highcharts-grid-line" d="M 33 175.5 L 291 175.5" opacity="1"></path><path fill="none" stroke="#e6e6e6" stroke-width="1" data-z-index="1" class="highcharts-grid-line" d="M 33 153.5 L 291 153.5" opacity="1"></path><path fill="none" stroke="#e6e6e6" stroke-width="1" data-z-index="1" class="highcharts-grid-line" d="M 33 130.5 L 291 130.5" opacity="1"></path><path fill="none" stroke="#e6e6e6" stroke-width="1" data-z-index="1" class="highcharts-grid-line" d="M 33 108.5 L 291 108.5" opacity="1"></path><path fill="none" stroke="#e6e6e6" stroke-width="1" data-z-index="1" class="highcharts-grid-line" d="M 33 84.5 L 291 84.5" opacity="1"></path></g><g class="highcharts-grid highcharts-yaxis-grid " data-z-index="1"><path fill="none" data-z-index="1" class="highcharts-grid-line" d="M 33 175.5 L 291 175.5" opacity="1"></path><path fill="none" data-z-index="1" class="highcharts-grid-line" d="M 33 153.5 L 291 153.5" opacity="1"></path><path fill="none" data-z-index="1" class="highcharts-grid-line" d="M 33 130.5 L 291 130.5" opacity="1"></path><path fill="none" data-z-index="1" class="highcharts-grid-line" d="M 33 108.5 L 291 108.5" opacity="1"></path><path fill="none" data-z-index="1" class="highcharts-grid-line" d="M 33 85.5 L 291 85.5" opacity="1"></path></g><rect fill="none" class="highcharts-plot-border" data-z-index="1" x="33" y="85" width="258" height="90"></rect><g class="highcharts-axis highcharts-xaxis " data-z-index="2"><path fill="none" class="highcharts-axis-line" stroke="#B9CFD7" stroke-width="0.5" data-z-index="7" d="M 33 175.25 L 291 175.25"></path></g><g class="highcharts-axis highcharts-yaxis " data-z-index="2"><path fill="none" class="highcharts-axis-line" data-z-index="7" d="M 33 85 L 33 175"></path></g><g class="highcharts-axis highcharts-yaxis " data-z-index="2"><path fill="none" class="highcharts-axis-line" data-z-index="7" d="M 291 85 L 291 175"></path></g><g class="highcharts-series-group" data-z-index="3"><g data-z-index="0.1" class="highcharts-series highcharts-series-0 highcharts-line-series " transform="translate(33,85) scale(1 1)" clip-path="url(#highcharts-smvo38k-9)"><path fill="none" d="M 1.075 38.79675 L 3.225 38.79675 L 5.375 38.79675 L 7.525 38.79675 L 9.675 38.79675 L 11.825 38.79675 L 13.975 38.79675 L 16.125 38.79675 L 18.275 38.79675 L 20.425 38.79675 L 22.575 38.79675 L 24.725 38.79675 L 26.875 31.994999999999997 L 29.025 31.994999999999997 L 31.175 31.994999999999997 L 33.325 31.994999999999997 L 35.475 31.994999999999997 L 37.625 31.994999999999997 L 39.775 31.994999999999997 L 41.925 31.994999999999997 L 44.075 31.994999999999997 L 46.225 31.994999999999997 L 48.375 31.994999999999997 L 50.525 31.994999999999997 L 52.675 38.60775 L 54.825 38.60775 L 56.975 38.60775 L 59.125 38.60775 L 61.275 38.60775 L 63.425 38.60775 L 65.575 38.60775 L 67.725 38.60775 L 69.875 38.60775 L 72.025 38.60775 L 74.175 38.60775 L 76.325 38.60775 L 78.475 29.348999999999997 L 80.625 29.348999999999997 L 82.775 29.348999999999997 L 84.925 29.348999999999997 L 87.075 29.348999999999997 L 89.225 29.348999999999997 L 91.375 29.348999999999997 L 93.525 29.348999999999997 L 95.675 29.348999999999997 L 97.825 29.348999999999997 L 99.975 29.348999999999997 L 102.125 29.348999999999997 L 104.275 38.60775 L 106.425 38.60775 L 108.575 38.60775 L 110.725 38.60775 L 112.875 38.60775 L 115.025 38.60775 L 117.175 38.60775 L 119.325 38.60775 L 121.475 38.60775 L 123.625 38.60775 L 125.775 38.60775 L 127.925 38.60775 L 130.075 19.903499999999994 L 132.225 19.903499999999994 L 134.375 19.903499999999994 L 136.525 19.903499999999994 L 138.675 19.903499999999994 L 140.825 19.903499999999994 L 142.975 19.903499999999994 L 145.125 19.903499999999994 L 147.275 19.903499999999994 L 149.425 19.903499999999994 L 151.575 19.903499999999994 L 153.725 19.903499999999994 L 155.875 24.43724999999999 L 158.025 24.43724999999999 L 160.175 24.43724999999999 L 162.325 24.43724999999999 L 164.475 24.43724999999999 L 166.625 24.43724999999999 L 168.775 24.43724999999999 L 170.925 24.43724999999999 L 173.075 24.43724999999999 L 175.225 24.43724999999999 L 177.375 24.43724999999999 L 179.525 24.43724999999999 L 181.675 19.903499999999994 L 183.825 19.903499999999994 L 185.975 19.903499999999994 L 188.125 19.903499999999994 L 190.275 19.903499999999994 L 192.425 19.903499999999994 L 194.575 19.903499999999994 L 196.725 19.903499999999994 L 198.875 19.903499999999994 L 201.025 19.903499999999994 L 203.175 19.903499999999994 L 205.325 19.903499999999994 L 207.475 33.885 L 209.625 33.885 L 211.775 33.885 L 213.925 33.885 L 216.075 33.885 L 218.225 33.885 L 220.375 33.885 L 222.525 33.885 L 224.675 33.885 L 226.825 33.885 L 228.975 33.885 L 231.125 33.885 L 233.275 53.91225 L 235.425 53.91225 L 237.575 53.91225 L 239.725 53.91225 L 241.875 53.91225 L 244.025 53.91225 L 246.175 53.91225 L 248.325 53.91225 L 250.475 53.91225 L 252.625 53.91225 L 254.775 53.91225 L 256.925 53.91225" class="highcharts-graph" data-z-index="1" stroke="#B00000" stroke-width="2" stroke-linejoin="round" stroke-linecap="round"></path></g><g data-z-index="0.1" class="highcharts-markers highcharts-series-0 highcharts-line-series " transform="translate(33,85) scale(1 1)" clip-path="none"></g><g data-z-index="0.1" class="highcharts-series highcharts-series-1 highcharts-line-series " transform="translate(33,85) scale(1 1)" clip-path="url(#highcharts-smvo38k-10)"><path fill="none" d="M 1.075 64.125 L 3.225 66.375 L 5.375 65.25 L 7.525 65.25 L 9.675 64.125 L 11.825 65.25 L 13.975 63 L 16.125 64.125 L 18.275 66.375 L 20.425 67.5 L 22.575 61.875 L 24.725 61.875 L 26.875 58.5 L 29.025 59.625 L 31.175 60.75 L 33.325 65.25 L 35.475 64.125 L 37.625 65.25 L 39.775 63 L 41.925 61.875 L 44.075 55.125 L 46.225 56.25 L 48.375 64.125 L 50.525 60.75 L 52.675 58.5 L 54.825 58.5 L 56.975 60.75 L 59.125 67.5 L 61.275 66.375 L 63.425 68.625 L 65.575 70.875 L 67.725 72 L 69.875 68.625 L 72.025 64.125 L 74.175 60.75 L 76.325 57.375 L 78.475 61.875 L 80.625 61.875 L 82.775 63 L 84.925 56.25 L 87.075 55.125 L 89.225 58.5 L 91.375 58.5 L 93.525 55.125 L 95.675 56.25 L 97.825 63 L 99.975 64.125 L 102.125 65.25 L 104.275 63 L 106.425 60.75 L 108.575 60.75 L 110.725 64.125 L 112.875 64.125 L 115.025 66.375 L 117.175 66.375 L 119.325 63 L 121.475 67.5 L 123.625 67.5 L 125.775 66.375 L 127.925 64.125 L 130.075 61.875 L 132.225 64.125 L 134.375 61.875 L 136.525 57.375 L 138.675 56.25 L 140.825 58.5 L 142.975 54 L 145.125 52.875 L 147.275 50.625 L 149.425 47.25 L 151.575 43.875 L 153.725 54 L 155.875 58.5 L 158.025 61.875 L 160.175 61.875 L 162.325 59.625 L 164.475 57.375 L 166.625 59.625 L 168.775 60.75 L 170.925 54 L 173.075 51.75 L 175.225 52.875 L 177.375 56.25 L 179.525 55.125 L 181.675 58.5 L 183.825 58.5 L 185.975 51.75 L 188.125 49.5 L 190.275 54 L 192.425 52.875 L 194.575 55.125 L 196.725 55.125 L 198.875 55.125 L 201.025 57.375 L 203.175 57.375 L 205.325 57.375 L 207.475 61.875 L 209.625 56.25 L 211.775 57.375 L 213.925 57.375 L 216.075 57.375 L 218.225 60.75 L 220.375 59.625 L 222.525 64.125 L 224.675 67.5 L 226.825 69.75 L 228.975 69.75 L 231.125 64.125 L 233.275 69.75 L 235.425 74.25 L 237.575 73.125 L 239.725 75.375 L 241.875 76.5 L 244.025 73.125 L 246.175 74.25 L 248.325 70.875 L 250.475 69.75 L 252.625 73.125 L 254.775 66.375 L 256.925 68.625" class="highcharts-graph" data-z-index="1" stroke="#FF8028" stroke-width="2" stroke-linejoin="round" stroke-linecap="round"></path></g><g data-z-index="0.1" class="highcharts-markers highcharts-series-1 highcharts-line-series " transform="translate(33,85) scale(1 1)" clip-path="none"></g></g><text x="2" text-anchor="start" class="highcharts-title" data-z-index="4" style="color:#000000;font-size:10px;font-weight:bold;fill:#000000;" y="9"><tspan>Arbeitslose und Arbeitslosenquote in der Branche</tspan><tspan dy="13" x="2">Immobilienwesen</tspan></text><text x="2" text-anchor="start" class="highcharts-subtitle" data-z-index="4" style="color:#000000;font-size:10px;font-weight:normal;font-family:Arial;fill:#000000;" y="39"></text><g class="highcharts-legend" data-z-index="7" transform="translate(33,42)"><rect fill="none" class="highcharts-legend-box" rx="0" ry="0" x="0" y="0" width="231" height="31" visibility="visible"></rect><g data-z-index="1"><g><g class="highcharts-legend-item highcharts-line-series highcharts-color-undefined highcharts-series-0" data-z-index="1" transform="translate(0,-5)"><path fill="none" d="M 0 10 L 16 10" class="highcharts-graph" stroke="#B00000" stroke-width="2"></path><text x="21" style="color:#333333;font-size:10px;font-weight:normal;cursor:pointer;fill:#333333;" text-anchor="start" data-z-index="2" y="13"><tspan>Mittlere jährliche Arbeitslosenquote</tspan></text></g><g class="highcharts-legend-item highcharts-line-series highcharts-color-undefined highcharts-series-1" data-z-index="1" transform="translate(0,13)"><path fill="none" d="M 0 10 L 16 10" class="highcharts-graph" stroke="#FF8028" stroke-width="2"></path><text x="21" y="13" style="color:#333333;font-size:10px;font-weight:normal;cursor:pointer;fill:#333333;" text-anchor="start" data-z-index="2"><tspan>Monatliche Anzahl Arbeitslose (rechte Skala)</tspan></text></g></g></g></g><g class="highcharts-axis-labels highcharts-xaxis-labels " data-z-index="7"><text x="56.43202260395516" style="color:#000000;cursor:default;font-size:10px;white-space:nowrap;fill:#000000;" text-anchor="end" transform="translate(0,0) rotate(-45 56.43202260395516 190)" y="190" opacity="1">2010</text><text x="82.23202260395516" style="color:#000000;cursor:default;font-size:10px;white-space:nowrap;fill:#000000;" text-anchor="end" transform="translate(0,0) rotate(-45 82.23202260395516 190)" y="190" opacity="1">2011</text><text x="108.03202260395516" style="color:#000000;cursor:default;font-size:10px;white-space:nowrap;fill:#000000;" text-anchor="end" transform="translate(0,0) rotate(-45 108.03202260395516 190)" y="190" opacity="1">2012</text><text x="133.83202260395515" style="color:#000000;cursor:default;font-size:10px;white-space:nowrap;fill:#000000;" text-anchor="end" transform="translate(0,0) rotate(-45 133.83202260395515 190)" y="190" opacity="1">2013</text><text x="159.63202260395516" style="color:#000000;cursor:default;font-size:10px;white-space:nowrap;fill:#000000;" text-anchor="end" transform="translate(0,0) rotate(-45 159.63202260395516 190)" y="190" opacity="1">2014</text><text x="185.43202260395515" style="color:#000000;cursor:default;font-size:10px;white-space:nowrap;fill:#000000;" text-anchor="end" transform="translate(0,0) rotate(-45 185.43202260395515 190)" y="190" opacity="1">2015</text><text x="211.23202260395516" style="color:#000000;cursor:default;font-size:10px;white-space:nowrap;fill:#000000;" text-anchor="end" transform="translate(0,0) rotate(-45 211.23202260395516 190)" y="190" opacity="1">2016</text><text x="237.03202260395517" style="color:#000000;cursor:default;font-size:10px;white-space:nowrap;fill:#000000;" text-anchor="end" transform="translate(0,0) rotate(-45 237.03202260395517 190)" y="190" opacity="1">2017</text><text x="262.8320226039552" style="color:#000000;cursor:default;font-size:10px;white-space:nowrap;fill:#000000;" text-anchor="end" transform="translate(0,0) rotate(-45 262.8320226039552 190)" y="190" opacity="1">2018</text><text x="288.63202260395514" style="color:#000000;cursor:default;font-size:10px;white-space:nowrap;fill:#000000;" text-anchor="end" transform="translate(0,0) rotate(-45 288.63202260395514 190)" y="190" opacity="1">2019</text></g><g class="highcharts-axis-labels highcharts-yaxis-labels " data-z-index="7"><text x="18" style="color:#000000;cursor:default;font-size:11px;fill:#000000;" text-anchor="end" transform="translate(0,0)" y="179" opacity="1">0%</text><text x="18" style="color:#000000;cursor:default;font-size:11px;fill:#000000;" text-anchor="end" transform="translate(0,0)" y="157" opacity="1">1%</text><text x="18" style="color:#000000;cursor:default;font-size:11px;fill:#000000;" text-anchor="end" transform="translate(0,0)" y="134" opacity="1">2%</text><text x="18" style="color:#000000;cursor:default;font-size:11px;fill:#000000;" text-anchor="end" transform="translate(0,0)" y="112" opacity="1">3%</text><text x="18" style="color:#000000;cursor:default;font-size:11px;fill:#000000;" text-anchor="end" transform="translate(0,0)" y="89" opacity="1">4%</text></g><g class="highcharts-axis-labels highcharts-yaxis-labels " data-z-index="7"><text x="306" style="color:#000000;cursor:default;font-size:11px;fill:#000000;" text-anchor="start" transform="translate(0,0)" y="179" opacity="1">0</text><text x="306" style="color:#000000;cursor:default;font-size:11px;fill:#000000;" text-anchor="start" transform="translate(0,0)" y="157" opacity="1">20</text><text x="306" style="color:#000000;cursor:default;font-size:11px;fill:#000000;" text-anchor="start" transform="translate(0,0)" y="134" opacity="1">40</text><text x="306" style="color:#000000;cursor:default;font-size:11px;fill:#000000;" text-anchor="start" transform="translate(0,0)" y="112" opacity="1">60</text><text x="306" style="color:#000000;cursor:default;font-size:11px;fill:#000000;" text-anchor="start" transform="translate(0,0)" y="89" opacity="1">80</text></g><text x="10" class="highcharts-credits" text-anchor="start" data-z-index="8" style="cursor:default;color:#000000;font-size:10px;fill:#000000;" y="196"><tspan>Quelle: Bundesamt für Statistik (BFS), Statistik der Unternehmensstruktur (STATENT).</tspan><tspan x="10" dy="13">Zuletzt geändert: 2020-1-29</tspan></text></svg>