<?xml version="1.0" standalone="no"?><!DOCTYPE svg PUBLIC "-//W3C//DTD SVG 1.1//EN" "http://www.w3.org/Graphics/SVG/1.1/DTD/svg11.dtd"><svg xmlns:xlink="http://www.w3.org/1999/xlink" version="1.1" class="highcharts-root" style="font-family:Arial;font-size:10px;" xmlns="http://www.w3.org/2000/svg" viewBox="0 0 485 415"><desc>Created with Highstock 6.1.1</desc><defs><clipPath id="highcharts-to1wl5l-6"><rect x="0" y="0" width="61" height="248" fill="none"></rect></clipPath><clipPath id="highcharts-to1wl5l-7"><rect x="0" y="0" width="61" height="248" fill="none"></rect></clipPath></defs><rect fill="#fbfbfb" class="highcharts-background" x="0" y="0" width="320" height="221" rx="0" ry="0"></rect><rect fill="none" class="highcharts-plot-background" x="70" y="135" width="248" height="61"></rect><g class="highcharts-pane-group" data-z-index="0"></g><g class="highcharts-grid highcharts-xaxis-grid " data-z-index="1"><path fill="none" data-z-index="1" class="highcharts-grid-line" d="M 70 140.5 L 318 140.5" opacity="1"></path><path fill="none" data-z-index="1" class="highcharts-grid-line" d="M 70 144.5 L 318 144.5" opacity="1"></path><path fill="none" data-z-index="1" class="highcharts-grid-line" d="M 70 149.5 L 318 149.5" opacity="1"></path><path fill="none" data-z-index="1" class="highcharts-grid-line" d="M 70 154.5 L 318 154.5" opacity="1"></path><path fill="none" data-z-index="1" class="highcharts-grid-line" d="M 70 158.5 L 318 158.5" opacity="1"></path><path fill="none" data-z-index="1" class="highcharts-grid-line" d="M 70 163.5 L 318 163.5" opacity="1"></path><path fill="none" data-z-index="1" class="highcharts-grid-line" d="M 70 168.5 L 318 168.5" opacity="1"></path><path fill="none" data-z-index="1" class="highcharts-grid-line" d="M 70 173.5 L 318 173.5" opacity="1"></path><path fill="none" data-z-index="1" class="highcharts-grid-line" d="M 70 177.5 L 318 177.5" opacity="1"></path><path fill="none" data-z-index="1" class="highcharts-grid-line" d="M 70 182.5 L 318 182.5" opacity="1"></path><path fill="none" data-z-index="1" class="highcharts-grid-line" d="M 70 187.5 L 318 187.5" opacity="1"></path><path fill="none" data-z-index="1" class="highcharts-grid-line" d="M 70 191.5 L 318 191.5" opacity="1"></path><path fill="none" data-z-index="1" class="highcharts-grid-line" d="M 70 196.5 L 318 196.5" opacity="1"></path><path fill="none" data-z-index="1" class="highcharts-grid-line" d="M 70 135.5 L 318 135.5" opacity="1"></path></g><g class="highcharts-grid highcharts-yaxis-grid " data-z-index="1"><path fill="none" stroke="#B9CFD7" stroke-width="0.5" data-z-index="1" class="highcharts-grid-line" d="M 69.75 135 L 69.75 196" opacity="1"></path><path fill="none" stroke="#B9CFD7" stroke-width="0.5" data-z-index="1" class="highcharts-grid-line" d="M 131.75 135 L 131.75 196" opacity="1"></path><path fill="none" stroke="#B9CFD7" stroke-width="0.5" data-z-index="1" class="highcharts-grid-line" d="M 193.75 135 L 193.75 196" opacity="1"></path><path fill="none" stroke="#B9CFD7" stroke-width="0.5" data-z-index="1" class="highcharts-grid-line" d="M 255.75 135 L 255.75 196" opacity="1"></path><path fill="none" stroke="#B9CFD7" stroke-width="0.5" data-z-index="1" class="highcharts-grid-line" d="M 318.25 135 L 318.25 196" opacity="1"></path></g><rect fill="none" class="highcharts-plot-border" data-z-index="1" x="70" y="135" width="248" height="61"></rect><g class="highcharts-axis highcharts-xaxis " data-z-index="2"><path fill="none" class="highcharts-axis-line" stroke="#B9CFD7" stroke-width="0.5" data-z-index="7" d="M 69.75 135 L 69.75 196"></path></g><g class="highcharts-axis highcharts-yaxis " data-z-index="2"><path fill="none" class="highcharts-axis-line" data-z-index="7" d="M 70 196 L 318 196"></path></g><g class="highcharts-series-group" data-z-index="3"><g data-z-index="0.1" class="highcharts-series highcharts-series-0 highcharts-column-series " transform="translate(318,196) rotate(90) scale(-1,1) scale(1 1)" clip-path="url(#highcharts-to1wl5l-7)"><rect x="57" y="0" width="4" height="3" fill="#6F6F6F" class="highcharts-point"></rect><rect x="52" y="0" width="4" height="3" fill="#6F6F6F" class="highcharts-point"></rect><rect x="47" y="0" width="4" height="2" fill="#6F6F6F" class="highcharts-point"></rect><rect x="43" y="0" width="4" height="3" fill="#6F6F6F" class="highcharts-point"></rect><rect x="38" y="0" width="4" height="3" fill="#6F6F6F" class="highcharts-point"></rect><rect x="33" y="0" width="4" height="3" fill="#6F6F6F" class="highcharts-point"></rect><rect x="24" y="1" width="4" height="0" fill="#6F6F6F" class="highcharts-point"></rect><rect x="19" y="1" width="4" height="0" fill="#6F6F6F" class="highcharts-point"></rect><rect x="15" y="1" width="4" height="0" fill="#6F6F6F" class="highcharts-point"></rect><rect x="10" y="1" width="4" height="0" fill="#6F6F6F" class="highcharts-point"></rect><rect x="5" y="1" width="4" height="0" fill="#6F6F6F" class="highcharts-point"></rect><rect x="0" y="0" width="4" height="6" fill="#6F6F6F" class="highcharts-point"></rect></g><g data-z-index="0.1" class="highcharts-markers highcharts-series-0 highcharts-column-series " transform="translate(318,196) rotate(90) scale(-1,1) scale(1 1)" clip-path="none"></g><g data-z-index="0.1" class="highcharts-series highcharts-series-1 highcharts-column-series " transform="translate(318,196) rotate(90) scale(-1,1) scale(1 1)" clip-path="url(#highcharts-to1wl5l-7)"><rect x="57" y="3" width="4" height="6" fill="#C8C8C8" class="highcharts-point"></rect><rect x="52" y="3" width="4" height="1" fill="#C8C8C8" class="highcharts-point"></rect><rect x="47" y="2" width="4" height="0" fill="#C8C8C8" class="highcharts-point"></rect><rect x="43" y="3" width="4" height="1" fill="#C8C8C8" class="highcharts-point"></rect><rect x="38" y="3" width="4" height="1" fill="#C8C8C8" class="highcharts-point"></rect><rect x="33" y="3" width="4" height="1" fill="#C8C8C8" class="highcharts-point"></rect><rect x="24" y="0" width="4" height="2" fill="#C8C8C8" class="highcharts-point"></rect><rect x="19" y="1" width="4" height="0" fill="#C8C8C8" class="highcharts-point"></rect><rect x="15" y="1" width="4" height="0" fill="#C8C8C8" class="highcharts-point"></rect><rect x="10" y="1" width="4" height="0" fill="#C8C8C8" class="highcharts-point"></rect><rect x="5" y="0" width="4" height="2" fill="#C8C8C8" class="highcharts-point"></rect><rect x="0" y="6" width="4" height="1" fill="#C8C8C8" class="highcharts-point"></rect></g><g data-z-index="0.1" class="highcharts-markers highcharts-series-1 highcharts-column-series " transform="translate(318,196) rotate(90) scale(-1,1) scale(1 1)" clip-path="none"></g><g data-z-index="0.1" class="highcharts-series highcharts-series-2 highcharts-column-series " transform="translate(318,196) rotate(90) scale(-1,1) scale(1 1)" clip-path="url(#highcharts-to1wl5l-7)"><rect x="57" y="9" width="4" height="2" fill="#008AC3" class="highcharts-point"></rect><rect x="52" y="4" width="4" height="5" fill="#008AC3" class="highcharts-point"></rect><rect x="47" y="2" width="4" height="5" fill="#008AC3" class="highcharts-point"></rect><rect x="43" y="4" width="4" height="6" fill="#008AC3" class="highcharts-point"></rect><rect x="38" y="4" width="4" height="4" fill="#008AC3" class="highcharts-point"></rect><rect x="33" y="4" width="4" height="5" fill="#008AC3" class="highcharts-point"></rect><rect x="24" y="2" width="4" height="6" fill="#008AC3" class="highcharts-point"></rect><rect x="19" y="0" width="4" height="4" fill="#008AC3" class="highcharts-point"></rect><rect x="15" y="0" width="4" height="4" fill="#008AC3" class="highcharts-point"></rect><rect x="10" y="0" width="4" height="7" fill="#008AC3" class="highcharts-point"></rect><rect x="5" y="2" width="4" height="6" fill="#008AC3" class="highcharts-point"></rect><rect x="0" y="7" width="4" height="5" fill="#008AC3" class="highcharts-point"></rect></g><g data-z-index="0.1" class="highcharts-markers highcharts-series-2 highcharts-column-series " transform="translate(318,196) rotate(90) scale(-1,1) scale(1 1)" clip-path="none"></g><g data-z-index="0.1" class="highcharts-series highcharts-series-3 highcharts-column-series " transform="translate(318,196) rotate(90) scale(-1,1) scale(1 1)" clip-path="url(#highcharts-to1wl5l-7)"><rect x="57" y="11" width="4" height="19" fill="#FABD24" class="highcharts-point"></rect><rect x="52" y="9" width="4" height="20" fill="#FABD24" class="highcharts-point"></rect><rect x="47" y="7" width="4" height="11" fill="#FABD24" class="highcharts-point"></rect><rect x="43" y="10" width="4" height="28" fill="#FABD24" class="highcharts-point"></rect><rect x="38" y="8" width="4" height="29" fill="#FABD24" class="highcharts-point"></rect><rect x="33" y="9" width="4" height="43" fill="#FABD24" class="highcharts-point"></rect><rect x="24" y="8" width="4" height="27" fill="#FABD24" class="highcharts-point"></rect><rect x="19" y="4" width="4" height="25" fill="#FABD24" class="highcharts-point"></rect><rect x="15" y="4" width="4" height="30" fill="#FABD24" class="highcharts-point"></rect><rect x="10" y="7" width="4" height="24" fill="#FABD24" class="highcharts-point"></rect><rect x="5" y="8" width="4" height="27" fill="#FABD24" class="highcharts-point"></rect><rect x="0" y="12" width="4" height="27" fill="#FABD24" class="highcharts-point"></rect></g><g data-z-index="0.1" class="highcharts-markers highcharts-series-3 highcharts-column-series " transform="translate(318,196) rotate(90) scale(-1,1) scale(1 1)" clip-path="none"></g><g data-z-index="0.1" class="highcharts-series highcharts-series-4 highcharts-column-series " transform="translate(318,196) rotate(90) scale(-1,1) scale(1 1)" clip-path="url(#highcharts-to1wl5l-7)"><rect x="57" y="30" width="4" height="112" fill="#B375AB" class="highcharts-point"></rect><rect x="52" y="29" width="4" height="121" fill="#B375AB" class="highcharts-point"></rect><rect x="47" y="18" width="4" height="133" fill="#B375AB" class="highcharts-point"></rect><rect x="43" y="38" width="4" height="133" fill="#B375AB" class="highcharts-point"></rect><rect x="38" y="37" width="4" height="138" fill="#B375AB" class="highcharts-point"></rect><rect x="33" y="52" width="4" height="150" fill="#B375AB" class="highcharts-point"></rect><rect x="24" y="35" width="4" height="113" fill="#B375AB" class="highcharts-point"></rect><rect x="19" y="29" width="4" height="107" fill="#B375AB" class="highcharts-point"></rect><rect x="15" y="34" width="4" height="114" fill="#B375AB" class="highcharts-point"></rect><rect x="10" y="31" width="4" height="107" fill="#B375AB" class="highcharts-point"></rect><rect x="5" y="35" width="4" height="117" fill="#B375AB" class="highcharts-point"></rect><rect x="0" y="39" width="4" height="133" fill="#B375AB" class="highcharts-point"></rect></g><g data-z-index="0.1" class="highcharts-markers highcharts-series-4 highcharts-column-series " transform="translate(318,196) rotate(90) scale(-1,1) scale(1 1)" clip-path="none"></g><g data-z-index="0.1" class="highcharts-series highcharts-series-5 highcharts-column-series " transform="translate(318,196) rotate(90) scale(-1,1) scale(1 1)" clip-path="url(#highcharts-to1wl5l-7)"><rect x="57" y="142" width="4" height="107" fill="#923F8D" class="highcharts-point"></rect><rect x="52" y="150" width="4" height="99" fill="#923F8D" class="highcharts-point"></rect><rect x="47" y="151" width="4" height="98" fill="#923F8D" class="highcharts-point"></rect><rect x="43" y="171" width="4" height="78" fill="#923F8D" class="highcharts-point"></rect><rect x="38" y="175" width="4" height="74" fill="#923F8D" class="highcharts-point"></rect><rect x="33" y="202" width="4" height="47" fill="#923F8D" class="highcharts-point"></rect><rect x="24" y="148" width="4" height="101" fill="#923F8D" class="highcharts-point"></rect><rect x="19" y="136" width="4" height="113" fill="#923F8D" class="highcharts-point"></rect><rect x="15" y="148" width="4" height="101" fill="#923F8D" class="highcharts-point"></rect><rect x="10" y="138" width="4" height="111" fill="#923F8D" class="highcharts-point"></rect><rect x="5" y="152" width="4" height="97" fill="#923F8D" class="highcharts-point"></rect><rect x="0" y="172" width="4" height="77" fill="#923F8D" class="highcharts-point"></rect></g><g data-z-index="0.1" class="highcharts-markers highcharts-series-5 highcharts-column-series " transform="translate(318,196) rotate(90) scale(-1,1) scale(1 1)" clip-path="none"></g></g><text x="160" text-anchor="middle" class="highcharts-title" data-z-index="4" style="color:#333333;font-size:18px;fill:#333333;" y="16"><tspan>Empfundene gesundheitliche</tspan><tspan dy="21" x="160">Verfassung</tspan></text><text x="160" text-anchor="middle" class="highcharts-subtitle" data-z-index="4" style="color:#666666;fill:#666666;" y="56"><tspan>«Wie fühlen Sie sich zurzeit gesundheitlich?», nach</tspan><tspan dy="13" x="160">Altersgruppe und Befragungsjahr, Basel-Stadt, 2019</tspan></text><g class="highcharts-legend" data-z-index="7" transform="translate(67,85)"><rect fill="none" class="highcharts-legend-box" rx="0" ry="0" x="0" y="0" width="200" height="43" visibility="visible"></rect><g data-z-index="1"><g><g class="highcharts-legend-item highcharts-column-series highcharts-color-undefined highcharts-series-5" data-z-index="1" transform="translate(0,-5)"><text x="21" style="color:#000000;font-size:10px;font-weight:normal;cursor:pointer;font-family:Arial;whitespace:nowrap;white-space:nowrap;fill:#000000;" text-anchor="start" data-z-index="2" y="13"><tspan>Sehr gut</tspan></text><rect x="3" y="4" width="10" height="10" fill="#923F8D" class="highcharts-point" data-z-index="3"></rect></g><g class="highcharts-legend-item highcharts-column-series highcharts-color-undefined highcharts-series-4" data-z-index="1" transform="translate(110,-5)"><text x="21" y="13" style="color:#000000;font-size:10px;font-weight:normal;cursor:pointer;font-family:Arial;whitespace:nowrap;white-space:nowrap;fill:#000000;" text-anchor="start" data-z-index="2"><tspan>Gut</tspan></text><rect x="3" y="4" width="10" height="10" fill="#B375AB" class="highcharts-point" data-z-index="3"></rect></g><g class="highcharts-legend-item highcharts-column-series highcharts-color-undefined highcharts-series-3" data-z-index="1" transform="translate(0,11)"><text x="21" y="13" style="color:#000000;font-size:10px;font-weight:normal;cursor:pointer;font-family:Arial;whitespace:nowrap;white-space:nowrap;fill:#000000;" text-anchor="start" data-z-index="2"><tspan>Eher nicht so gut</tspan></text><rect x="3" y="4" width="10" height="10" fill="#FABD24" class="highcharts-point" data-z-index="3"></rect></g><g class="highcharts-legend-item highcharts-column-series highcharts-color-undefined highcharts-series-2" data-z-index="1" transform="translate(110,11)"><text x="21" y="13" style="color:#000000;font-size:10px;font-weight:normal;cursor:pointer;font-family:Arial;whitespace:nowrap;white-space:nowrap;fill:#000000;" text-anchor="start" data-z-index="2"><tspan>Gar nicht gut</tspan></text><rect x="3" y="4" width="10" height="10" fill="#008AC3" class="highcharts-point" data-z-index="3"></rect></g><g class="highcharts-legend-item highcharts-column-series highcharts-color-undefined highcharts-series-1" data-z-index="1" transform="translate(0,27)"><text x="21" y="13" style="color:#000000;font-size:10px;font-weight:normal;cursor:pointer;font-family:Arial;whitespace:nowrap;white-space:nowrap;fill:#000000;" text-anchor="start" data-z-index="2"><tspan>Weiss nicht</tspan></text><rect x="3" y="4" width="10" height="10" fill="#C8C8C8" class="highcharts-point" data-z-index="3"></rect></g><g class="highcharts-legend-item highcharts-column-series highcharts-color-undefined highcharts-series-0" data-z-index="1" transform="translate(110,27)"><text x="21" y="13" style="color:#000000;font-size:10px;font-weight:normal;cursor:pointer;font-family:Arial;whitespace:nowrap;white-space:nowrap;fill:#000000;" text-anchor="start" data-z-index="2"><tspan>Keine Angabe</tspan></text><rect x="3" y="4" width="10" height="10" fill="#6F6F6F" class="highcharts-point" data-z-index="3"></rect></g></g></g></g><g class="highcharts-axis-labels highcharts-xaxis-labels " data-z-index="7"><text x="10" style="color:#000000;cursor:default;font-size:8px;font-family:Arial;white-space:nowrap;fill:#000000;" text-anchor="start" transform="translate(0,0)" y="140" opacity="1"><tspan>18-29 (N=155)</tspan></text><text x="10" style="color:#000000;cursor:default;font-size:8px;font-family:Arial;white-space:nowrap;fill:#000000;" text-anchor="start" transform="translate(0,0)" y="145" opacity="1"><tspan>30-39 (N=322)</tspan></text><text x="10" style="color:#000000;cursor:default;font-size:8px;font-family:Arial;white-space:nowrap;fill:#000000;" text-anchor="start" transform="translate(0,0)" y="150" opacity="1"><tspan>40-49 (N=305)</tspan></text><text x="10" style="color:#000000;cursor:default;font-size:8px;font-family:Arial;white-space:nowrap;fill:#000000;" text-anchor="start" transform="translate(0,0)" y="154" opacity="1"><tspan>50-59 (N=364)</tspan></text><text x="10" style="color:#000000;cursor:default;font-size:8px;font-family:Arial;white-space:nowrap;fill:#000000;" text-anchor="start" transform="translate(0,0)" y="159" opacity="1"><tspan>60-69 (N=363)</tspan></text><text x="10" style="color:#000000;cursor:default;font-size:8px;font-family:Arial;white-space:nowrap;fill:#000000;" text-anchor="start" transform="translate(0,0)" y="164" opacity="1"><tspan>70 u.m. (N=538)</tspan></text><text x="10" style="color:#000000;cursor:default;font-size:8px;font-family:Arial;white-space:nowrap;fill:#000000;" text-anchor="start" transform="translate(0,0)" y="168" opacity="1"></text><text x="10" style="color:#000000;cursor:default;font-size:8px;font-family:Arial;white-space:nowrap;fill:#000000;" text-anchor="start" transform="translate(0,0)" y="173" opacity="1"><tspan>2003 (N=1497)</tspan></text><text x="10" style="color:#000000;cursor:default;font-size:8px;font-family:Arial;white-space:nowrap;fill:#000000;" text-anchor="start" transform="translate(0,0)" y="178" opacity="1"><tspan>2005 (N=1510)</tspan></text><text x="10" style="color:#000000;cursor:default;font-size:8px;font-family:Arial;white-space:nowrap;fill:#000000;" text-anchor="start" transform="translate(0,0)" y="183" opacity="1"><tspan>2007 (N=1509)</tspan></text><text x="10" style="color:#000000;cursor:default;font-size:8px;font-family:Arial;white-space:nowrap;fill:#000000;" text-anchor="start" transform="translate(0,0)" y="187" opacity="1"><tspan>2011 (N=1516)</tspan></text><text x="10" style="color:#000000;cursor:default;font-size:8px;font-family:Arial;white-space:nowrap;fill:#000000;" text-anchor="start" transform="translate(0,0)" y="192" opacity="1"><tspan>2015 (N=1506)</tspan></text><text x="10" style="color:#000000;cursor:default;font-size:8px;font-family:Arial;white-space:nowrap;fill:#000000;" text-anchor="start" transform="translate(0,0)" y="197" opacity="1"><tspan>2019 (N=2108)</tspan></text></g><g class="highcharts-axis-labels highcharts-yaxis-labels " data-z-index="7"><text x="70" style="color:#000000;cursor:default;font-size:10px;fill:#000000;" text-anchor="middle" transform="translate(0,0)" y="206" opacity="1">0%</text><text x="132" style="color:#000000;cursor:default;font-size:10px;fill:#000000;" text-anchor="middle" transform="translate(0,0)" y="206" opacity="1">25%</text><text x="194" style="color:#000000;cursor:default;font-size:10px;fill:#000000;" text-anchor="middle" transform="translate(0,0)" y="206" opacity="1">50%</text><text x="256" style="color:#000000;cursor:default;font-size:10px;fill:#000000;" text-anchor="middle" transform="translate(0,0)" y="206" opacity="1">75%</text><text x="304.5" style="color:#000000;cursor:default;font-size:10px;fill:#000000;" text-anchor="middle" transform="translate(0,0)" y="206" opacity="1">100%</text></g><text x="310" class="highcharts-credits" text-anchor="end" data-z-index="8" style="cursor:pointer;color:#999999;font-size:9px;fill:#999999;" y="196"><tspan>Quelle: Statistisches Amt Basel-Stadt, kantonale Bevölkerungsbefragung.</tspan><tspan x="310" dy="12">Zuletzt geändert: 2020-6-19</tspan></text></svg>