<?xml version="1.0" standalone="no"?><!DOCTYPE svg PUBLIC "-//W3C//DTD SVG 1.1//EN" "http://www.w3.org/Graphics/SVG/1.1/DTD/svg11.dtd"><svg xmlns:xlink="http://www.w3.org/1999/xlink" version="1.1" class="highcharts-root" style="font-family:Arial;font-size:10px;" xmlns="http://www.w3.org/2000/svg" viewBox="0 0 485 415"><desc>Created with Highstock 6.1.1</desc><defs><clipPath id="highcharts-2j1lx2f-6"><rect x="0" y="0" width="179" height="111" fill="none"></rect></clipPath><clipPath id="highcharts-2j1lx2f-7"><rect x="0" y="0" width="179" height="111" fill="none"></rect></clipPath></defs><rect fill="#fbfbfb" class="highcharts-background" x="0" y="0" width="320" height="221" rx="0" ry="0"></rect><rect fill="none" class="highcharts-plot-background" x="95" y="6" width="111" height="179"></rect><g class="highcharts-pane-group" data-z-index="0"></g><g class="highcharts-grid highcharts-xaxis-grid " data-z-index="1"><path fill="none" data-z-index="1" class="highcharts-grid-line" d="M 95 20.5 L 206 20.5" opacity="1"></path><path fill="none" data-z-index="1" class="highcharts-grid-line" d="M 95 34.5 L 206 34.5" opacity="1"></path><path fill="none" data-z-index="1" class="highcharts-grid-line" d="M 95 47.5 L 206 47.5" opacity="1"></path><path fill="none" data-z-index="1" class="highcharts-grid-line" d="M 95 61.5 L 206 61.5" opacity="1"></path><path fill="none" data-z-index="1" class="highcharts-grid-line" d="M 95 75.5 L 206 75.5" opacity="1"></path><path fill="none" data-z-index="1" class="highcharts-grid-line" d="M 95 89.5 L 206 89.5" opacity="1"></path><path fill="none" data-z-index="1" class="highcharts-grid-line" d="M 95 102.5 L 206 102.5" opacity="1"></path><path fill="none" data-z-index="1" class="highcharts-grid-line" d="M 95 116.5 L 206 116.5" opacity="1"></path><path fill="none" data-z-index="1" class="highcharts-grid-line" d="M 95 130.5 L 206 130.5" opacity="1"></path><path fill="none" data-z-index="1" class="highcharts-grid-line" d="M 95 144.5 L 206 144.5" opacity="1"></path><path fill="none" data-z-index="1" class="highcharts-grid-line" d="M 95 157.5 L 206 157.5" opacity="1"></path><path fill="none" data-z-index="1" class="highcharts-grid-line" d="M 95 171.5 L 206 171.5" opacity="1"></path><path fill="none" data-z-index="1" class="highcharts-grid-line" d="M 95 185.5 L 206 185.5" opacity="1"></path><path fill="none" data-z-index="1" class="highcharts-grid-line" d="M 95 6.5 L 206 6.5" opacity="1"></path></g><g class="highcharts-grid highcharts-yaxis-grid " data-z-index="1"><path fill="none" stroke="#B9CFD7" stroke-width="0.5" data-z-index="1" class="highcharts-grid-line" d="M 95.75 6 L 95.75 185" opacity="1"></path><path fill="none" stroke="#B9CFD7" stroke-width="0.5" data-z-index="1" class="highcharts-grid-line" d="M 122.75 6 L 122.75 185" opacity="1"></path><path fill="none" stroke="#B9CFD7" stroke-width="0.5" data-z-index="1" class="highcharts-grid-line" d="M 150.75 6 L 150.75 185" opacity="1"></path><path fill="none" stroke="#B9CFD7" stroke-width="0.5" data-z-index="1" class="highcharts-grid-line" d="M 177.75 6 L 177.75 185" opacity="1"></path><path fill="none" stroke="#B9CFD7" stroke-width="0.5" data-z-index="1" class="highcharts-grid-line" d="M 204.75 6 L 204.75 185" opacity="1"></path></g><rect fill="none" class="highcharts-plot-border" data-z-index="1" x="95" y="6" width="111" height="179"></rect><g class="highcharts-axis highcharts-xaxis " data-z-index="2"><path fill="none" class="highcharts-axis-line" stroke="#B9CFD7" stroke-width="0.5" data-z-index="7" d="M 94.75 6 L 94.75 185"></path></g><g class="highcharts-axis highcharts-yaxis " data-z-index="2"><path fill="none" class="highcharts-axis-line" data-z-index="7" d="M 95 185 L 206 185"></path></g><g class="highcharts-series-group" data-z-index="3"><g data-z-index="0.1" class="highcharts-series highcharts-series-0 highcharts-column-series " transform="translate(206,185) rotate(90) scale(-1,1) scale(1 1)" clip-path="url(#highcharts-2j1lx2f-7)" width="111" height="179"><rect x="167" y="2" width="12" height="0" fill="#6F6F6F" class="highcharts-point"></rect><rect x="153" y="2" width="12" height="1" fill="#6F6F6F" class="highcharts-point"></rect><rect x="139" y="2" width="12" height="0" fill="#6F6F6F" class="highcharts-point"></rect><rect x="125" y="2" width="12" height="0" fill="#6F6F6F" class="highcharts-point"></rect><rect x="112" y="2" width="12" height="0" fill="#6F6F6F" class="highcharts-point"></rect><rect x="98" y="2" width="12" height="0" fill="#6F6F6F" class="highcharts-point"></rect><rect x="70" y="2" width="12" height="0" fill="#6F6F6F" class="highcharts-point"></rect><rect x="56" y="2" width="12" height="0" fill="#6F6F6F" class="highcharts-point"></rect><rect x="43" y="2" width="12" height="0" fill="#6F6F6F" class="highcharts-point"></rect><rect x="29" y="2" width="12" height="0" fill="#6F6F6F" class="highcharts-point"></rect><rect x="15" y="2" width="12" height="0" fill="#6F6F6F" class="highcharts-point"></rect><rect x="1" y="2" width="12" height="2" fill="#6F6F6F" class="highcharts-point"></rect></g><g data-z-index="0.1" class="highcharts-markers highcharts-series-0 highcharts-column-series " transform="translate(206,185) rotate(90) scale(-1,1) scale(1 1)" clip-path="none"></g><g data-z-index="0.1" class="highcharts-series highcharts-series-1 highcharts-column-series " transform="translate(206,185) rotate(90) scale(-1,1) scale(1 1)" clip-path="url(#highcharts-2j1lx2f-7)" width="111" height="179"><rect x="167" y="2" width="12" height="3" fill="#C8C8C8" class="highcharts-point"></rect><rect x="153" y="3" width="12" height="0" fill="#C8C8C8" class="highcharts-point"></rect><rect x="139" y="2" width="12" height="0" fill="#C8C8C8" class="highcharts-point"></rect><rect x="125" y="2" width="12" height="1" fill="#C8C8C8" class="highcharts-point"></rect><rect x="112" y="2" width="12" height="1" fill="#C8C8C8" class="highcharts-point"></rect><rect x="98" y="2" width="12" height="1" fill="#C8C8C8" class="highcharts-point"></rect><rect x="70" y="2" width="12" height="0" fill="#C8C8C8" class="highcharts-point"></rect><rect x="56" y="2" width="12" height="0" fill="#C8C8C8" class="highcharts-point"></rect><rect x="43" y="2" width="12" height="0" fill="#C8C8C8" class="highcharts-point"></rect><rect x="29" y="2" width="12" height="0" fill="#C8C8C8" class="highcharts-point"></rect><rect x="15" y="2" width="12" height="0" fill="#C8C8C8" class="highcharts-point"></rect><rect x="1" y="4" width="12" height="0" fill="#C8C8C8" class="highcharts-point"></rect></g><g data-z-index="0.1" class="highcharts-markers highcharts-series-1 highcharts-column-series " transform="translate(206,185) rotate(90) scale(-1,1) scale(1 1)" clip-path="none"></g><g data-z-index="0.1" class="highcharts-series highcharts-series-2 highcharts-column-series " transform="translate(206,185) rotate(90) scale(-1,1) scale(1 1)" clip-path="url(#highcharts-2j1lx2f-7)" width="111" height="179"><rect x="167" y="5" width="12" height="1" fill="#008AC3" class="highcharts-point"></rect><rect x="153" y="3" width="12" height="2" fill="#008AC3" class="highcharts-point"></rect><rect x="139" y="2" width="12" height="2" fill="#008AC3" class="highcharts-point"></rect><rect x="125" y="3" width="12" height="2" fill="#008AC3" class="highcharts-point"></rect><rect x="112" y="3" width="12" height="2" fill="#008AC3" class="highcharts-point"></rect><rect x="98" y="3" width="12" height="2" fill="#008AC3" class="highcharts-point"></rect><rect x="70" y="2" width="12" height="3" fill="#008AC3" class="highcharts-point"></rect><rect x="56" y="2" width="12" height="1" fill="#008AC3" class="highcharts-point"></rect><rect x="43" y="2" width="12" height="1" fill="#008AC3" class="highcharts-point"></rect><rect x="29" y="2" width="12" height="2" fill="#008AC3" class="highcharts-point"></rect><rect x="15" y="2" width="12" height="3" fill="#008AC3" class="highcharts-point"></rect><rect x="1" y="4" width="12" height="2" fill="#008AC3" class="highcharts-point"></rect></g><g data-z-index="0.1" class="highcharts-markers highcharts-series-2 highcharts-column-series " transform="translate(206,185) rotate(90) scale(-1,1) scale(1 1)" clip-path="none"></g><g data-z-index="0.1" class="highcharts-series highcharts-series-3 highcharts-column-series " transform="translate(206,185) rotate(90) scale(-1,1) scale(1 1)" clip-path="url(#highcharts-2j1lx2f-7)" width="111" height="179"><rect x="167" y="6" width="12" height="8" fill="#FABD24" class="highcharts-point"></rect><rect x="153" y="5" width="12" height="9" fill="#FABD24" class="highcharts-point"></rect><rect x="139" y="4" width="12" height="5" fill="#FABD24" class="highcharts-point"></rect><rect x="125" y="5" width="12" height="13" fill="#FABD24" class="highcharts-point"></rect><rect x="112" y="5" width="12" height="12" fill="#FABD24" class="highcharts-point"></rect><rect x="98" y="5" width="12" height="19" fill="#FABD24" class="highcharts-point"></rect><rect x="70" y="5" width="12" height="12" fill="#FABD24" class="highcharts-point"></rect><rect x="56" y="3" width="12" height="11" fill="#FABD24" class="highcharts-point"></rect><rect x="43" y="3" width="12" height="13" fill="#FABD24" class="highcharts-point"></rect><rect x="29" y="4" width="12" height="11" fill="#FABD24" class="highcharts-point"></rect><rect x="15" y="5" width="12" height="11" fill="#FABD24" class="highcharts-point"></rect><rect x="1" y="6" width="12" height="13" fill="#FABD24" class="highcharts-point"></rect></g><g data-z-index="0.1" class="highcharts-markers highcharts-series-3 highcharts-column-series " transform="translate(206,185) rotate(90) scale(-1,1) scale(1 1)" clip-path="none"></g><g data-z-index="0.1" class="highcharts-series highcharts-series-4 highcharts-column-series " transform="translate(206,185) rotate(90) scale(-1,1) scale(1 1)" clip-path="url(#highcharts-2j1lx2f-7)" width="111" height="179"><rect x="167" y="14" width="12" height="50" fill="#B375AB" class="highcharts-point"></rect><rect x="153" y="14" width="12" height="54" fill="#B375AB" class="highcharts-point"></rect><rect x="139" y="9" width="12" height="59" fill="#B375AB" class="highcharts-point"></rect><rect x="125" y="18" width="12" height="59" fill="#B375AB" class="highcharts-point"></rect><rect x="112" y="17" width="12" height="61" fill="#B375AB" class="highcharts-point"></rect><rect x="98" y="24" width="12" height="67" fill="#B375AB" class="highcharts-point"></rect><rect x="70" y="17" width="12" height="50" fill="#B375AB" class="highcharts-point"></rect><rect x="56" y="14" width="12" height="48" fill="#B375AB" class="highcharts-point"></rect><rect x="43" y="16" width="12" height="51" fill="#B375AB" class="highcharts-point"></rect><rect x="29" y="15" width="12" height="47" fill="#B375AB" class="highcharts-point"></rect><rect x="15" y="16" width="12" height="52" fill="#B375AB" class="highcharts-point"></rect><rect x="1" y="19" width="12" height="59" fill="#B375AB" class="highcharts-point"></rect></g><g data-z-index="0.1" class="highcharts-markers highcharts-series-4 highcharts-column-series " transform="translate(206,185) rotate(90) scale(-1,1) scale(1 1)" clip-path="none"></g><g data-z-index="0.1" class="highcharts-series highcharts-series-5 highcharts-column-series " transform="translate(206,185) rotate(90) scale(-1,1) scale(1 1)" clip-path="url(#highcharts-2j1lx2f-7)" width="111" height="179"><rect x="167" y="64" width="12" height="47" fill="#923F8D" class="highcharts-point"></rect><rect x="153" y="68" width="12" height="43" fill="#923F8D" class="highcharts-point"></rect><rect x="139" y="68" width="12" height="43" fill="#923F8D" class="highcharts-point"></rect><rect x="125" y="77" width="12" height="34" fill="#923F8D" class="highcharts-point"></rect><rect x="112" y="78" width="12" height="33" fill="#923F8D" class="highcharts-point"></rect><rect x="98" y="91" width="12" height="20" fill="#923F8D" class="highcharts-point"></rect><rect x="70" y="67" width="12" height="44" fill="#923F8D" class="highcharts-point"></rect><rect x="56" y="62" width="12" height="49" fill="#923F8D" class="highcharts-point"></rect><rect x="43" y="67" width="12" height="44" fill="#923F8D" class="highcharts-point"></rect><rect x="29" y="62" width="12" height="49" fill="#923F8D" class="highcharts-point"></rect><rect x="15" y="68" width="12" height="43" fill="#923F8D" class="highcharts-point"></rect><rect x="1" y="78" width="12" height="33" fill="#923F8D" class="highcharts-point"></rect></g><g data-z-index="0.1" class="highcharts-markers highcharts-series-5 highcharts-column-series " transform="translate(206,185) rotate(90) scale(-1,1) scale(1 1)" clip-path="none"></g></g><text x="160" text-anchor="middle" class="highcharts-title" data-z-index="4" style="color:#333333;font-size:18px;fill:#333333;" y="16"><tspan>Empfundene gesundheitliche</tspan><tspan dy="21" x="160">Verfassung</tspan></text><text x="160" text-anchor="middle" class="highcharts-subtitle" data-z-index="4" style="color:#666666;fill:#666666;" y="56"><tspan>nach Altersgruppe 2019 sowie im Vergleich 2003 bis</tspan><tspan dy="13" x="160">2019</tspan><tspan x="160" dy="13">«Wie fühlen Sie sich zurzeit gesundheitlich?»</tspan></text><g class="highcharts-legend" data-z-index="7" transform="translate(218,54)"><rect fill="none" class="highcharts-legend-box" rx="0" ry="0" x="0" y="0" width="100" height="103" visibility="visible"></rect><g data-z-index="1"><g><g class="highcharts-legend-item highcharts-column-series highcharts-color-undefined highcharts-series-5" data-z-index="1" transform="translate(0,-5)"><text x="21" style="color:#333333;font-size:10px;font-weight:normal;cursor:pointer;font-family:Arial;whitespace:nowrap;fill:#333333;" text-anchor="start" data-z-index="2" y="13"><tspan>Sehr gut</tspan></text><rect x="3" y="4" width="10" height="10" fill="#923F8D" class="highcharts-point" data-z-index="3"></rect></g><g class="highcharts-legend-item highcharts-column-series highcharts-color-undefined highcharts-series-4" data-z-index="1" transform="translate(0,13)"><text x="21" y="13" style="color:#333333;font-size:10px;font-weight:normal;cursor:pointer;font-family:Arial;whitespace:nowrap;fill:#333333;" text-anchor="start" data-z-index="2"><tspan>Gut</tspan></text><rect x="3" y="4" width="10" height="10" fill="#B375AB" class="highcharts-point" data-z-index="3"></rect></g><g class="highcharts-legend-item highcharts-column-series highcharts-color-undefined highcharts-series-3" data-z-index="1" transform="translate(0,31)"><text x="21" y="13" style="color:#333333;font-size:10px;font-weight:normal;cursor:pointer;font-family:Arial;whitespace:nowrap;fill:#333333;" text-anchor="start" data-z-index="2"><tspan>Eher nicht so gut</tspan></text><rect x="3" y="4" width="10" height="10" fill="#FABD24" class="highcharts-point" data-z-index="3"></rect></g><g class="highcharts-legend-item highcharts-column-series highcharts-color-undefined highcharts-series-2" data-z-index="1" transform="translate(0,49)"><text x="21" y="13" style="color:#333333;font-size:10px;font-weight:normal;cursor:pointer;font-family:Arial;whitespace:nowrap;fill:#333333;" text-anchor="start" data-z-index="2"><tspan>Gar nicht gut</tspan></text><rect x="3" y="4" width="10" height="10" fill="#008AC3" class="highcharts-point" data-z-index="3"></rect></g><g class="highcharts-legend-item highcharts-column-series highcharts-color-undefined highcharts-series-1" data-z-index="1" transform="translate(0,67)"><text x="21" y="13" style="color:#333333;font-size:10px;font-weight:normal;cursor:pointer;font-family:Arial;whitespace:nowrap;fill:#333333;" text-anchor="start" data-z-index="2"><tspan>Weiss nicht</tspan></text><rect x="3" y="4" width="10" height="10" fill="#C8C8C8" class="highcharts-point" data-z-index="3"></rect></g><g class="highcharts-legend-item highcharts-column-series highcharts-color-undefined highcharts-series-0" data-z-index="1" transform="translate(0,85)"><text x="21" y="13" style="color:#333333;font-size:10px;font-weight:normal;cursor:pointer;font-family:Arial;whitespace:nowrap;fill:#333333;" text-anchor="start" data-z-index="2"><tspan>Keine Angabe</tspan></text><rect x="3" y="4" width="10" height="10" fill="#6F6F6F" class="highcharts-point" data-z-index="3"></rect></g></g></g></g><g class="highcharts-axis-labels highcharts-xaxis-labels " data-z-index="7"><text x="15" style="color:#000000;cursor:default;font-size:10px;white-space:nowrap;fill:#000000;" text-anchor="start" transform="translate(0,0)" y="16" opacity="1"><tspan>18-29 (N=155)</tspan></text><text x="15" style="color:#000000;cursor:default;font-size:10px;white-space:nowrap;fill:#000000;" text-anchor="start" transform="translate(0,0)" y="30" opacity="1"><tspan>30-39 (N=322)</tspan></text><text x="15" style="color:#000000;cursor:default;font-size:10px;white-space:nowrap;fill:#000000;" text-anchor="start" transform="translate(0,0)" y="44" opacity="1"><tspan>40-49 (N=305)</tspan></text><text x="15" style="color:#000000;cursor:default;font-size:10px;white-space:nowrap;fill:#000000;" text-anchor="start" transform="translate(0,0)" y="58" opacity="1"><tspan>50-59 (N=364)</tspan></text><text x="15" style="color:#000000;cursor:default;font-size:10px;white-space:nowrap;fill:#000000;" text-anchor="start" transform="translate(0,0)" y="71" opacity="1"><tspan>60-69 (N=363)</tspan></text><text x="15" style="color:#000000;cursor:default;font-size:10px;white-space:nowrap;fill:#000000;" text-anchor="start" transform="translate(0,0)" y="85" opacity="1"><tspan>70 u.m. (N=538)</tspan></text><text x="15" style="color:#000000;cursor:default;font-size:10px;white-space:nowrap;fill:#000000;" text-anchor="start" transform="translate(0,0)" y="106" opacity="1"></text><text x="15" style="color:#000000;cursor:default;font-size:10px;white-space:nowrap;fill:#000000;" text-anchor="start" transform="translate(0,0)" y="113" opacity="1"><tspan>2003 (N=1497)</tspan></text><text x="15" style="color:#000000;cursor:default;font-size:10px;white-space:nowrap;fill:#000000;" text-anchor="start" transform="translate(0,0)" y="127" opacity="1"><tspan>2005 (N=1510)</tspan></text><text x="15" style="color:#000000;cursor:default;font-size:10px;white-space:nowrap;fill:#000000;" text-anchor="start" transform="translate(0,0)" y="140" opacity="1"><tspan>2007 (N=1509)</tspan></text><text x="15" style="color:#000000;cursor:default;font-size:10px;white-space:nowrap;fill:#000000;" text-anchor="start" transform="translate(0,0)" y="154" opacity="1"><tspan>2011 (N=1516)</tspan></text><text x="15" style="color:#000000;cursor:default;font-size:10px;white-space:nowrap;fill:#000000;" text-anchor="start" transform="translate(0,0)" y="168" opacity="1"><tspan>2015 (N=1506)</tspan></text><text x="15" style="color:#000000;cursor:default;font-size:10px;white-space:nowrap;fill:#000000;" text-anchor="start" transform="translate(0,0)" y="182" opacity="1"><tspan>2019 (N=2108)</tspan></text></g><g class="highcharts-axis-labels highcharts-yaxis-labels " data-z-index="7"><text x="97.90652755445016" style="color:#000000;cursor:default;font-size:10px;fill:#000000;" text-anchor="end" transform="translate(0,0) rotate(-45 97.90652755445016 188)" y="188" opacity="1">0%</text><text x="125.38177507920516" style="color:#000000;cursor:default;font-size:10px;fill:#000000;" text-anchor="end" transform="translate(0,0) rotate(-45 125.38177507920516 188)" y="188" opacity="1">25%</text><text x="152.85702260395516" style="color:#000000;cursor:default;font-size:10px;fill:#000000;" text-anchor="end" transform="translate(0,0) rotate(-45 152.85702260395516 188)" y="188" opacity="1">50%</text><text x="180.33227012870515" style="color:#000000;cursor:default;font-size:10px;fill:#000000;" text-anchor="end" transform="translate(0,0) rotate(-45 180.33227012870515 188)" y="188" opacity="1">75%</text><text x="207.80751765345516" style="color:#000000;cursor:default;font-size:10px;fill:#000000;" text-anchor="end" transform="translate(0,0) rotate(-45 207.80751765345516 188)" y="188" opacity="1">100%</text></g><text x="310" class="highcharts-credits" text-anchor="end" data-z-index="8" style="cursor:pointer;color:#999999;font-size:9px;fill:#999999;" y="196"><tspan>Quelle: Statistisches Amt Basel-Stadt, kantonale Bevölkerungsbefragung.</tspan><tspan x="310" dy="12">Zuletzt geändert: 2020-3-18</tspan></text></svg>