<?xml version="1.0" standalone="no"?><!DOCTYPE svg PUBLIC "-//W3C//DTD SVG 1.1//EN" "http://www.w3.org/Graphics/SVG/1.1/DTD/svg11.dtd"><svg xmlns:xlink="http://www.w3.org/1999/xlink" version="1.1" class="highcharts-root" style="font-family:Arial;font-size:10px;" xmlns="http://www.w3.org/2000/svg" viewBox="0 0 485 415"><desc>Created with Highstock 6.1.1</desc><defs><clipPath id="highcharts-z011tlt-6"><rect x="0" y="0" width="274" height="0" fill="none"></rect></clipPath><clipPath id="highcharts-z011tlt-7"><rect x="0" y="0" width="274" height="0" fill="none"></rect></clipPath></defs><rect fill="#fbfbfb" class="highcharts-background" x="0" y="0" width="320" height="221" rx="0" ry="0"></rect><rect fill="none" class="highcharts-plot-background" x="44" y="147" width="274" height="0"></rect><g class="highcharts-pane-group" data-z-index="0"></g><g class="highcharts-grid highcharts-xaxis-grid " data-z-index="1"><path fill="none" data-z-index="1" class="highcharts-grid-line" d="M 292.5 147.5 L 292.5 147.5" opacity="1"></path><path fill="none" data-z-index="1" class="highcharts-grid-line" d="M 267.5 147.5 L 267.5 147.5" opacity="1"></path><path fill="none" data-z-index="1" class="highcharts-grid-line" d="M 242.5 147.5 L 242.5 147.5" opacity="1"></path><path fill="none" data-z-index="1" class="highcharts-grid-line" d="M 217.5 147.5 L 217.5 147.5" opacity="1"></path><path fill="none" data-z-index="1" class="highcharts-grid-line" d="M 192.5 147.5 L 192.5 147.5" opacity="1"></path><path fill="none" data-z-index="1" class="highcharts-grid-line" d="M 168.5 147.5 L 168.5 147.5" opacity="1"></path><path fill="none" data-z-index="1" class="highcharts-grid-line" d="M 143.5 147.5 L 143.5 147.5" opacity="1"></path><path fill="none" data-z-index="1" class="highcharts-grid-line" d="M 118.5 147.5 L 118.5 147.5" opacity="1"></path><path fill="none" data-z-index="1" class="highcharts-grid-line" d="M 93.5 147.5 L 93.5 147.5" opacity="1"></path><path fill="none" data-z-index="1" class="highcharts-grid-line" d="M 68.5 147.5 L 68.5 147.5" opacity="1"></path><path fill="none" data-z-index="1" class="highcharts-grid-line" d="M 43.5 147.5 L 43.5 147.5" opacity="1"></path><path fill="none" data-z-index="1" class="highcharts-grid-line" d="M 317.5 147.5 L 317.5 147.5" opacity="1"></path></g><g class="highcharts-grid highcharts-yaxis-grid " data-z-index="1"><path fill="none" stroke="#B9CFD7" stroke-width="0.5" data-z-index="1" class="highcharts-grid-line" d="M 44 146.75 L 318 146.75" opacity="1"></path><path fill="none" stroke="#B9CFD7" stroke-width="0.5" data-z-index="1" class="highcharts-grid-line" d="M 44 146.75 L 318 146.75" opacity="1"></path></g><rect fill="none" class="highcharts-plot-border" data-z-index="1" x="44" y="147" width="274" height="0"></rect><g class="highcharts-axis highcharts-xaxis " data-z-index="2"><path fill="none" class="highcharts-axis-line" stroke="#B9CFD7" stroke-width="0.5" data-z-index="7" d="M 44 147.25 L 318 147.25"></path></g><g class="highcharts-axis highcharts-yaxis " data-z-index="2"><path fill="none" class="highcharts-axis-line" data-z-index="7" d="M 44 147 L 44 147"></path></g><g class="highcharts-series-group" data-z-index="3"><g data-z-index="0.1" class="highcharts-series highcharts-series-0 highcharts-column-series " transform="translate(44,147) scale(1 1)" clip-path="url(#highcharts-z011tlt-7)"><rect x="252" y="1" width="20" height="0" fill="#D3E2E4" class="highcharts-point"></rect><rect x="227" y="1" width="20" height="0" fill="#D3E2E4" class="highcharts-point"></rect><rect x="202" y="1" width="20" height="0" fill="#D3E2E4" class="highcharts-point"></rect><rect x="177" y="1" width="20" height="0" fill="#D3E2E4" class="highcharts-point"></rect><rect x="152" y="1" width="20" height="0" fill="#D3E2E4" class="highcharts-point"></rect><rect x="127" y="1" width="20" height="0" fill="#D3E2E4" class="highcharts-point"></rect><rect x="102" y="1" width="20" height="0" fill="#D3E2E4" class="highcharts-point"></rect><rect x="52" y="1" width="20" height="0" fill="#D3E2E4" class="highcharts-point"></rect><rect x="27" y="1" width="20" height="0" fill="#D3E2E4" class="highcharts-point"></rect><rect x="2" y="1" width="20" height="0" fill="#D3E2E4" class="highcharts-point"></rect></g><g data-z-index="0.1" class="highcharts-markers highcharts-series-0 highcharts-column-series " transform="translate(44,147) scale(1 1)" clip-path="none"></g><g data-z-index="0.1" class="highcharts-series highcharts-series-1 highcharts-column-series " transform="translate(44,147) scale(1 1)" clip-path="url(#highcharts-z011tlt-7)"><rect x="252" y="1" width="20" height="0" fill="#689199" class="highcharts-point"></rect><rect x="227" y="1" width="20" height="0" fill="#689199" class="highcharts-point"></rect><rect x="202" y="1" width="20" height="0" fill="#689199" class="highcharts-point"></rect><rect x="177" y="1" width="20" height="0" fill="#689199" class="highcharts-point"></rect><rect x="152" y="1" width="20" height="0" fill="#689199" class="highcharts-point"></rect><rect x="127" y="1" width="20" height="0" fill="#689199" class="highcharts-point"></rect><rect x="102" y="1" width="20" height="0" fill="#689199" class="highcharts-point"></rect><rect x="52" y="1" width="20" height="0" fill="#689199" class="highcharts-point"></rect><rect x="27" y="1" width="20" height="0" fill="#689199" class="highcharts-point"></rect><rect x="2" y="1" width="20" height="0" fill="#689199" class="highcharts-point"></rect></g><g data-z-index="0.1" class="highcharts-markers highcharts-series-1 highcharts-column-series " transform="translate(44,147) scale(1 1)" clip-path="none"></g><g data-z-index="0.1" class="highcharts-series highcharts-series-2 highcharts-column-series " transform="translate(44,147) scale(1 1)" clip-path="url(#highcharts-z011tlt-7)"><rect x="252" y="1" width="20" height="0" fill="#2F656B" class="highcharts-point"></rect><rect x="227" y="1" width="20" height="0" fill="#2F656B" class="highcharts-point"></rect><rect x="202" y="1" width="20" height="0" fill="#2F656B" class="highcharts-point"></rect><rect x="177" y="1" width="20" height="0" fill="#2F656B" class="highcharts-point"></rect><rect x="152" y="1" width="20" height="0" fill="#2F656B" class="highcharts-point"></rect><rect x="127" y="1" width="20" height="0" fill="#2F656B" class="highcharts-point"></rect><rect x="102" y="1" width="20" height="0" fill="#2F656B" class="highcharts-point"></rect><rect x="52" y="1" width="20" height="0" fill="#2F656B" class="highcharts-point"></rect><rect x="27" y="1" width="20" height="0" fill="#2F656B" class="highcharts-point"></rect><rect x="2" y="1" width="20" height="0" fill="#2F656B" class="highcharts-point"></rect></g><g data-z-index="0.1" class="highcharts-markers highcharts-series-2 highcharts-column-series " transform="translate(44,147) scale(1 1)" clip-path="none"></g><g data-z-index="0.1" class="highcharts-series highcharts-series-3 highcharts-column-series " transform="translate(44,147) scale(1 1)" clip-path="url(#highcharts-z011tlt-7)"><rect x="252" y="1" width="20" height="0" fill="#083038" class="highcharts-point"></rect><rect x="227" y="1" width="20" height="0" fill="#083038" class="highcharts-point"></rect><rect x="202" y="1" width="20" height="0" fill="#083038" class="highcharts-point"></rect><rect x="177" y="1" width="20" height="0" fill="#083038" class="highcharts-point"></rect><rect x="152" y="1" width="20" height="0" fill="#083038" class="highcharts-point"></rect><rect x="127" y="1" width="20" height="0" fill="#083038" class="highcharts-point"></rect><rect x="102" y="1" width="20" height="0" fill="#083038" class="highcharts-point"></rect><rect x="52" y="1" width="20" height="0" fill="#083038" class="highcharts-point"></rect><rect x="27" y="1" width="20" height="0" fill="#083038" class="highcharts-point"></rect><rect x="2" y="1" width="20" height="0" fill="#083038" class="highcharts-point"></rect></g><g data-z-index="0.1" class="highcharts-markers highcharts-series-3 highcharts-column-series " transform="translate(44,147) scale(1 1)" clip-path="none"></g></g><text x="160" text-anchor="middle" class="highcharts-title" data-z-index="4" style="color:#333333;font-size:18px;fill:#333333;" y="16"><tspan>Zahlfälle der Sozialhilfe nach</tspan><tspan dy="21" x="160">Bezugsdauer</tspan></text><text x="160" text-anchor="middle" class="highcharts-subtitle" data-z-index="4" style="color:#666666;fill:#666666;" y="56"><tspan>Basel-Stadt (bis 2015 Stadt Basel)</tspan></text><g class="highcharts-legend" data-z-index="7" transform="translate(41,72)"><rect fill="none" class="highcharts-legend-box" rx="0" ry="0" x="0" y="0" width="180" height="63" visibility="visible"></rect><g data-z-index="1"><g><g class="highcharts-legend-item highcharts-column-series highcharts-color-undefined highcharts-series-0" data-z-index="1" transform="translate(0,-5)"><text x="21" style="color:#333333;font-size:10px;font-weight:normal;cursor:pointer;font-family:Arial;whitespace:nowrap;fill:#333333;" text-anchor="start" data-z-index="2" y="13"><tspan>Bis 3 Monate</tspan></text><rect x="3" y="4" width="10" height="10" fill="#D3E2E4" class="highcharts-point" data-z-index="3"></rect></g><g class="highcharts-legend-item highcharts-column-series highcharts-color-undefined highcharts-series-1" data-z-index="1" transform="translate(0,12)"><text x="21" y="13" style="color:#333333;font-size:10px;font-weight:normal;cursor:pointer;font-family:Arial;whitespace:nowrap;fill:#333333;" text-anchor="start" data-z-index="2"><tspan>4 bis 12 Monate</tspan></text><rect x="3" y="4" width="10" height="10" fill="#689199" class="highcharts-point" data-z-index="3"></rect></g><g class="highcharts-legend-item highcharts-column-series highcharts-color-undefined highcharts-series-2" data-z-index="1" transform="translate(0,29)"><text x="21" y="13" style="color:#333333;font-size:10px;font-weight:normal;cursor:pointer;font-family:Arial;whitespace:nowrap;fill:#333333;" text-anchor="start" data-z-index="2"><tspan>13 bis 36 Monate</tspan></text><rect x="3" y="4" width="10" height="10" fill="#2F656B" class="highcharts-point" data-z-index="3"></rect></g><g class="highcharts-legend-item highcharts-column-series highcharts-color-undefined highcharts-series-3" data-z-index="1" transform="translate(0,46)"><text x="21" y="13" style="color:#333333;font-size:10px;font-weight:normal;cursor:pointer;font-family:Arial;whitespace:nowrap;fill:#333333;" text-anchor="start" data-z-index="2"><tspan>Über 36 Monate</tspan></text><rect x="3" y="4" width="10" height="10" fill="#083038" class="highcharts-point" data-z-index="3"></rect></g></g></g></g><g class="highcharts-axis-labels highcharts-xaxis-labels " data-z-index="7"><text x="305.5454545454554" style="color:#000000;cursor:default;font-size:10px;white-space:nowrap;fill:#000000;" text-anchor="middle" transform="translate(0,0)" y="165" opacity="1"><tspan>2009</tspan></text><text x="280.63636363636545" style="color:#000000;cursor:default;font-size:10px;white-space:nowrap;fill:#000000;" text-anchor="middle" transform="translate(0,0)" y="165" opacity="1"><tspan>2010</tspan></text><text x="255.72727272727548" style="color:#000000;cursor:default;font-size:10px;white-space:nowrap;fill:#000000;" text-anchor="middle" transform="translate(0,0)" y="165" opacity="1"><tspan>2011</tspan></text><text x="230.81818181818548" style="color:#000000;cursor:default;font-size:10px;white-space:nowrap;fill:#000000;" text-anchor="middle" transform="translate(0,0)" y="165" opacity="1"><tspan>2012</tspan></text><text x="205.90909090909545" style="color:#000000;cursor:default;font-size:10px;white-space:nowrap;fill:#000000;" text-anchor="middle" transform="translate(0,0)" y="165" opacity="1"><tspan>2013</tspan></text><text x="180.99999999999548" style="color:#000000;cursor:default;font-size:10px;white-space:nowrap;fill:#000000;" text-anchor="middle" transform="translate(0,0)" y="165" opacity="1"><tspan>2014</tspan></text><text x="156.09090909090546" style="color:#000000;cursor:default;font-size:10px;white-space:nowrap;fill:#000000;" text-anchor="middle" transform="translate(0,0)" y="165" opacity="1"><tspan>2015</tspan></text><text x="131.18181818181546" style="color:#000000;cursor:default;font-size:10px;white-space:nowrap;fill:#000000;" text-anchor="middle" transform="translate(0,0)" y="165" opacity="1"></text><text x="106.27272727272745" style="color:#000000;cursor:default;font-size:10px;white-space:nowrap;fill:#000000;" text-anchor="middle" transform="translate(0,0)" y="165" opacity="1"><tspan>2016</tspan></text><text x="81.36363636363646" style="color:#000000;cursor:default;font-size:10px;white-space:nowrap;fill:#000000;" text-anchor="middle" transform="translate(0,0)" y="165" opacity="1"><tspan>2017</tspan></text><text x="56.45454545454545" style="color:#000000;cursor:default;font-size:10px;white-space:nowrap;fill:#000000;" text-anchor="middle" transform="translate(0,0)" y="165" opacity="1"><tspan>2018</tspan></text></g><g class="highcharts-axis-labels highcharts-yaxis-labels " data-z-index="7"><text x="29" style="color:#000000;cursor:default;font-size:10px;fill:#000000;" text-anchor="end" transform="translate(0,0)" y="150" opacity="1">0%</text><text x="29" style="color:#000000;cursor:default;font-size:10px;fill:#000000;" text-anchor="end" transform="translate(0,0)" y="150" opacity="1">260%</text></g><text x="310" class="highcharts-credits" text-anchor="end" data-z-index="8" style="cursor:pointer;color:#999999;font-size:9px;fill:#999999;" y="176"><tspan>Quelle: Statistisches Amt Basel-Stadt, Sozialhilfestatistik;</tspan><tspan x="310" dy="12">Sozialhilfe Stadt Basel;</tspan><tspan x="310" dy="12">Sozialhilfe Riehen.</tspan><tspan x="310" dy="12">Zuletzt geändert: 2020-3-18</tspan></text></svg>