<?xml version="1.0" standalone="no"?><!DOCTYPE svg PUBLIC "-//W3C//DTD SVG 1.1//EN" "http://www.w3.org/Graphics/SVG/1.1/DTD/svg11.dtd"><svg xmlns:xlink="http://www.w3.org/1999/xlink" version="1.1" class="highcharts-root" style="font-family:Arial;font-size:10px;color:#000000;fill:#000000;" xmlns="http://www.w3.org/2000/svg" viewBox="0 0 485 415"><desc>Created with Highstock 6.1.1</desc><defs><clipPath id="highcharts-hg0q9gv-8"><rect x="0" y="0" width="378" height="142" fill="none"></rect></clipPath><clipPath id="highcharts-hg0q9gv-9"><rect x="0" y="0" width="378" height="142" fill="none"></rect></clipPath><clipPath id="highcharts-hg0q9gv-10"><rect x="0" y="0" width="378" height="142" fill="none"></rect></clipPath></defs><rect fill="#fbfbfb" class="highcharts-background" x="0" y="0" width="665" height="221" rx="0" ry="0"></rect><rect fill="none" class="highcharts-plot-background" x="44" y="7" width="378" height="142"></rect><g class="highcharts-pane-group" data-z-index="0"></g><g class="highcharts-grid highcharts-xaxis-grid " data-z-index="1"><path fill="none" data-z-index="1" class="highcharts-grid-line" d="M 61.5 7 L 61.5 149" opacity="1"></path><path fill="none" data-z-index="1" class="highcharts-grid-line" d="M 89.5 7 L 89.5 149" opacity="1"></path><path fill="none" data-z-index="1" class="highcharts-grid-line" d="M 118.5 7 L 118.5 149" opacity="1"></path><path fill="none" data-z-index="1" class="highcharts-grid-line" d="M 146.5 7 L 146.5 149" opacity="1"></path><path fill="none" data-z-index="1" class="highcharts-grid-line" d="M 175.5 7 L 175.5 149" opacity="1"></path><path fill="none" data-z-index="1" class="highcharts-grid-line" d="M 203.5 7 L 203.5 149" opacity="1"></path><path fill="none" data-z-index="1" class="highcharts-grid-line" d="M 232.5 7 L 232.5 149" opacity="1"></path><path fill="none" data-z-index="1" class="highcharts-grid-line" d="M 261.5 7 L 261.5 149" opacity="1"></path><path fill="none" data-z-index="1" class="highcharts-grid-line" d="M 289.5 7 L 289.5 149" opacity="1"></path><path fill="none" data-z-index="1" class="highcharts-grid-line" d="M 318.5 7 L 318.5 149" opacity="1"></path><path fill="none" data-z-index="1" class="highcharts-grid-line" d="M 346.5 7 L 346.5 149" opacity="1"></path><path fill="none" data-z-index="1" class="highcharts-grid-line" d="M 375.5 7 L 375.5 149" opacity="1"></path><path fill="none" data-z-index="1" class="highcharts-grid-line" d="M 403.5 7 L 403.5 149" opacity="1"></path></g><rect fill="none" class="highcharts-plot-border" data-z-index="1" x="44" y="7" width="378" height="142"></rect><g class="highcharts-grid highcharts-yaxis-grid " data-z-index="1"><path fill="none" stroke="#B9CFD7" stroke-width="0.5" data-z-index="1" class="highcharts-grid-line" d="M 44 149.25 L 422 149.25" opacity="1"></path><path fill="none" stroke="#B9CFD7" stroke-width="0.5" data-z-index="1" class="highcharts-grid-line" d="M 44 78.25 L 422 78.25" opacity="1"></path><path fill="none" stroke="#B9CFD7" stroke-width="0.5" data-z-index="1" class="highcharts-grid-line" d="M 44 6.75 L 422 6.75" opacity="1"></path></g><g class="highcharts-grid highcharts-yaxis-grid " data-z-index="1"><path fill="none" stroke="#B9CFD7" stroke-width="0.5" data-z-index="1" class="highcharts-grid-line" d="M 44 149.25 L 422 149.25" opacity="1"></path><path fill="none" stroke="#B9CFD7" stroke-width="0.5" data-z-index="1" class="highcharts-grid-line" d="M 44 78.25 L 422 78.25" opacity="1"></path><path fill="none" stroke="#B9CFD7" stroke-width="0.5" data-z-index="1" class="highcharts-grid-line" d="M 44 6.75 L 422 6.75" opacity="1"></path></g><g class="highcharts-axis highcharts-xaxis " data-z-index="2"><path fill="none" class="highcharts-axis-line" stroke="#B9CFD7" stroke-width="0.5" data-z-index="7" d="M 44 149.25 L 422 149.25"></path></g><g class="highcharts-axis highcharts-yaxis " data-z-index="2"><path fill="none" class="highcharts-axis-line" data-z-index="7" d="M 44 7 L 44 149"></path></g><g class="highcharts-axis highcharts-yaxis " data-z-index="2"><path fill="none" class="highcharts-axis-line" data-z-index="7" d="M 422 7 L 422 149"></path></g><g class="highcharts-series-group" data-z-index="3"><g data-z-index="0.1" class="highcharts-series highcharts-series-0 highcharts-column-series " transform="translate(44,7) scale(1 1)" clip-path="url(#highcharts-hg0q9gv-9)"><rect x="6" y="13" width="4" height="130" fill="#8A8A8A" class="highcharts-point"></rect><rect x="35" y="28" width="4" height="115" fill="#8A8A8A" class="highcharts-point"></rect><rect x="63" y="57" width="4" height="86" fill="#8A8A8A" class="highcharts-point"></rect><rect x="92" y="74" width="4" height="69" fill="#8A8A8A" class="highcharts-point"></rect><rect x="120" y="97" width="4" height="46" fill="#8A8A8A" class="highcharts-point"></rect><rect x="149" y="99" width="4" height="44" fill="#8A8A8A" class="highcharts-point"></rect><rect x="178" y="111" width="3" height="32" fill="#8A8A8A" class="highcharts-point"></rect><rect x="206" y="121" width="4" height="22" fill="#8A8A8A" class="highcharts-point"></rect><rect x="235" y="111" width="3" height="32" fill="#8A8A8A" class="highcharts-point"></rect><rect x="263" y="103" width="4" height="40" fill="#8A8A8A" class="highcharts-point"></rect><rect x="292" y="95" width="4" height="48" fill="#8A8A8A" class="highcharts-point"></rect><rect x="320" y="74" width="4" height="69" fill="#8A8A8A" class="highcharts-point"></rect><rect x="349" y="43" width="4" height="100" fill="#8A8A8A" class="highcharts-point"></rect></g><g data-z-index="0.1" class="highcharts-markers highcharts-series-0 highcharts-column-series " transform="translate(44,7) scale(1 1)" clip-path="none"></g><g data-z-index="0.1" class="highcharts-series highcharts-series-1 highcharts-column-series " transform="translate(44,7) scale(1 1)" clip-path="url(#highcharts-hg0q9gv-9)"><rect x="10" y="126" width="4" height="17" fill="#B00000" class="highcharts-point"></rect><rect x="39" y="129" width="3" height="14" fill="#B00000" class="highcharts-point"></rect><rect x="67" y="130" width="4" height="13" fill="#B00000" class="highcharts-point"></rect><rect x="96" y="132" width="4" height="11" fill="#B00000" class="highcharts-point"></rect><rect x="124" y="135" width="4" height="8" fill="#B00000" class="highcharts-point"></rect><rect x="153" y="132" width="4" height="11" fill="#B00000" class="highcharts-point"></rect><rect x="181" y="138" width="4" height="5" fill="#B00000" class="highcharts-point"></rect><rect x="210" y="141" width="4" height="2" fill="#B00000" class="highcharts-point"></rect><rect x="238" y="138" width="4" height="5" fill="#B00000" class="highcharts-point"></rect><rect x="267" y="138" width="4" height="5" fill="#B00000" class="highcharts-point"></rect><rect x="296" y="137" width="3" height="6" fill="#B00000" class="highcharts-point"></rect><rect x="324" y="133" width="4" height="10" fill="#B00000" class="highcharts-point"></rect><rect x="353" y="126" width="3" height="17" fill="#B00000" class="highcharts-point"></rect></g><g data-z-index="0.1" class="highcharts-markers highcharts-series-1 highcharts-column-series " transform="translate(44,7) scale(1 1)" clip-path="none"></g><g data-z-index="0.1" class="highcharts-series highcharts-series-2 highcharts-column-series " transform="translate(44,7) scale(1 1)" clip-path="url(#highcharts-hg0q9gv-9)"><rect x="14" y="114" width="4" height="29" fill="#ffbb58" class="highcharts-point"></rect><rect x="42" y="120" width="4" height="23" fill="#ffbb58" class="highcharts-point"></rect><rect x="71" y="125" width="4" height="18" fill="#ffbb58" class="highcharts-point"></rect><rect x="100" y="129" width="3" height="14" fill="#ffbb58" class="highcharts-point"></rect><rect x="128" y="133" width="4" height="10" fill="#ffbb58" class="highcharts-point"></rect><rect x="157" y="134" width="3" height="9" fill="#ffbb58" class="highcharts-point"></rect><rect x="185" y="135" width="4" height="8" fill="#ffbb58" class="highcharts-point"></rect><rect x="214" y="138" width="4" height="5" fill="#ffbb58" class="highcharts-point"></rect><rect x="242" y="136" width="4" height="7" fill="#ffbb58" class="highcharts-point"></rect><rect x="271" y="134" width="4" height="9" fill="#ffbb58" class="highcharts-point"></rect><rect x="299" y="128" width="4" height="15" fill="#ffbb58" class="highcharts-point"></rect><rect x="328" y="121" width="4" height="22" fill="#ffbb58" class="highcharts-point"></rect><rect x="356" y="114" width="4" height="29" fill="#ffbb58" class="highcharts-point"></rect></g><g data-z-index="0.1" class="highcharts-markers highcharts-series-2 highcharts-column-series " transform="translate(44,7) scale(1 1)" clip-path="none"></g><g data-z-index="0.1" class="highcharts-series highcharts-series-3 highcharts-column-series " transform="translate(44,7) scale(1 1)" clip-path="url(#highcharts-hg0q9gv-9)"><rect x="18" y="92" width="4" height="51" fill="#007a2f" class="highcharts-point"></rect><rect x="46" y="96" width="4" height="47" fill="#007a2f" class="highcharts-point"></rect><rect x="75" y="110" width="4" height="33" fill="#007a2f" class="highcharts-point"></rect><rect x="103" y="115" width="4" height="28" fill="#007a2f" class="highcharts-point"></rect><rect x="132" y="128" width="4" height="15" fill="#007a2f" class="highcharts-point"></rect><rect x="160" y="129" width="4" height="14" fill="#007a2f" class="highcharts-point"></rect><rect x="189" y="131" width="4" height="12" fill="#007a2f" class="highcharts-point"></rect><rect x="218" y="135" width="3" height="8" fill="#007a2f" class="highcharts-point"></rect><rect x="246" y="134" width="4" height="9" fill="#007a2f" class="highcharts-point"></rect><rect x="275" y="129" width="3" height="14" fill="#007a2f" class="highcharts-point"></rect><rect x="303" y="125" width="4" height="18" fill="#007a2f" class="highcharts-point"></rect><rect x="332" y="119" width="4" height="24" fill="#007a2f" class="highcharts-point"></rect><rect x="360" y="107" width="4" height="36" fill="#007a2f" class="highcharts-point"></rect></g><g data-z-index="0.1" class="highcharts-markers highcharts-series-3 highcharts-column-series " transform="translate(44,7) scale(1 1)" clip-path="none"></g><g data-z-index="0.1" class="highcharts-series highcharts-series-4 highcharts-column-series " transform="translate(44,7) scale(1 1)" clip-path="url(#highcharts-hg0q9gv-9)"><rect x="22" y="119" width="3" height="24" fill="#923f8d" class="highcharts-point"></rect><rect x="50" y="119" width="4" height="24" fill="#923f8d" class="highcharts-point"></rect><rect x="79" y="125" width="3" height="18" fill="#923f8d" class="highcharts-point"></rect><rect x="107" y="130" width="4" height="13" fill="#923f8d" class="highcharts-point"></rect><rect x="136" y="135" width="4" height="8" fill="#923f8d" class="highcharts-point"></rect><rect x="164" y="135" width="4" height="8" fill="#923f8d" class="highcharts-point"></rect><rect x="193" y="138" width="4" height="5" fill="#923f8d" class="highcharts-point"></rect><rect x="221" y="139" width="4" height="4" fill="#923f8d" class="highcharts-point"></rect><rect x="250" y="136" width="4" height="7" fill="#923f8d" class="highcharts-point"></rect><rect x="278" y="136" width="4" height="7" fill="#923f8d" class="highcharts-point"></rect><rect x="307" y="136" width="4" height="7" fill="#923f8d" class="highcharts-point"></rect><rect x="336" y="134" width="3" height="9" fill="#923f8d" class="highcharts-point"></rect><rect x="364" y="129" width="4" height="14" fill="#923f8d" class="highcharts-point"></rect></g><g data-z-index="0.1" class="highcharts-markers highcharts-series-4 highcharts-column-series " transform="translate(44,7) scale(1 1)" clip-path="none"></g><g data-z-index="0.1" class="highcharts-series highcharts-series-5 highcharts-column-series " transform="translate(44,7) scale(1 1)" clip-path="url(#highcharts-hg0q9gv-9)"><rect x="25" y="134" width="4" height="9" fill="#2B0099" class="highcharts-point"></rect><rect x="54" y="135" width="4" height="8" fill="#2B0099" class="highcharts-point"></rect><rect x="82" y="138" width="4" height="5" fill="#2B0099" class="highcharts-point"></rect><rect x="111" y="140" width="4" height="3" fill="#2B0099" class="highcharts-point"></rect><rect x="140" y="139" width="3" height="4" fill="#2B0099" class="highcharts-point"></rect><rect x="168" y="140" width="4" height="3" fill="#2B0099" class="highcharts-point"></rect><rect x="197" y="141" width="3" height="2" fill="#2B0099" class="highcharts-point"></rect><rect x="225" y="141" width="4" height="2" fill="#2B0099" class="highcharts-point"></rect><rect x="254" y="140" width="4" height="3" fill="#2B0099" class="highcharts-point"></rect><rect x="282" y="139" width="4" height="4" fill="#2B0099" class="highcharts-point"></rect><rect x="311" y="141" width="4" height="2" fill="#2B0099" class="highcharts-point"></rect><rect x="339" y="139" width="4" height="4" fill="#2B0099" class="highcharts-point"></rect><rect x="368" y="138" width="4" height="5" fill="#2B0099" class="highcharts-point"></rect></g><g data-z-index="0.1" class="highcharts-markers highcharts-series-5 highcharts-column-series " transform="translate(44,7) scale(1 1)" clip-path="none"></g><g data-z-index="0.1" class="highcharts-series highcharts-series-6 highcharts-line-series " transform="translate(44,7) scale(1 1)" clip-path="url(#highcharts-hg0q9gv-10)"><path fill="none" d="M 17.700906344408 42.490729602293996 L 46.250755287007 54.28626256653601 L 74.800604229605 76.350846390215 L 103.3504531722 89.09358762067299 L 131.9003021148 106.792050614669 L 160.4501510574 108.43470367995499 L 189 117.801776795983 L 217.5498489426 125.783909760433 L 246.0996978852 118.106087442933 L 274.6495468278 112.409301725173 L 303.19939577039 106.473973607106 L 331.74924471299 91.506634290964 L 360.29909365559 70.19377710594101" class="highcharts-graph" data-z-index="1" stroke="#000000" stroke-width="5" stroke-linejoin="round" stroke-linecap="round"  stroke-opacity="0.049999999999999996" transform="translate(1, 1)"></path><path fill="none" d="M 17.700906344408 42.490729602293996 L 46.250755287007 54.28626256653601 L 74.800604229605 76.350846390215 L 103.3504531722 89.09358762067299 L 131.9003021148 106.792050614669 L 160.4501510574 108.43470367995499 L 189 117.801776795983 L 217.5498489426 125.783909760433 L 246.0996978852 118.106087442933 L 274.6495468278 112.409301725173 L 303.19939577039 106.473973607106 L 331.74924471299 91.506634290964 L 360.29909365559 70.19377710594101" class="highcharts-graph" data-z-index="1" stroke="#000000" stroke-width="3" stroke-linejoin="round" stroke-linecap="round"  stroke-opacity="0.09999999999999999" transform="translate(1, 1)"></path><path fill="none" d="M 17.700906344408 42.490729602293996 L 46.250755287007 54.28626256653601 L 74.800604229605 76.350846390215 L 103.3504531722 89.09358762067299 L 131.9003021148 106.792050614669 L 160.4501510574 108.43470367995499 L 189 117.801776795983 L 217.5498489426 125.783909760433 L 246.0996978852 118.106087442933 L 274.6495468278 112.409301725173 L 303.19939577039 106.473973607106 L 331.74924471299 91.506634290964 L 360.29909365559 70.19377710594101" class="highcharts-graph" data-z-index="1" stroke="#000000" stroke-width="1" stroke-linejoin="round" stroke-linecap="round"  stroke-opacity="0.15" transform="translate(1, 1)"></path><path fill="none" d="M 17.700906344408 42.490729602293996 L 46.250755287007 54.28626256653601 L 74.800604229605 76.350846390215 L 103.3504531722 89.09358762067299 L 131.9003021148 106.792050614669 L 160.4501510574 108.43470367995499 L 189 117.801776795983 L 217.5498489426 125.783909760433 L 246.0996978852 118.106087442933 L 274.6495468278 112.409301725173 L 303.19939577039 106.473973607106 L 331.74924471299 91.506634290964 L 360.29909365559 70.19377710594101" class="highcharts-graph" data-z-index="1" stroke="#000000" stroke-width="2" stroke-linejoin="round" stroke-linecap="round"></path></g><g data-z-index="0.1" class="highcharts-markers highcharts-series-6 highcharts-line-series " transform="translate(44,7) scale(1 1)" clip-path="none"></g><g data-z-index="0.1" class="highcharts-series highcharts-series-7 highcharts-line-series " transform="translate(44,7) scale(1 1)" clip-path="url(#highcharts-hg0q9gv-10)"><path fill="none" d="M 17.700906344408 24.806052269622 L 46.250755287007 46.103896103921 L 74.800604229605 53.63620539602 L 103.3504531722 65.396850256722 L 131.9003021148 83.732145975221 L 160.4501510574 68.273996509653 L 189 106.069452927333 L 217.5498489426 125.389481564733 L 246.0996978852 107.45012165451399 L 274.6495468278 102.20764424849 L 303.19939577039 98.378749548291 L 331.74924471299 67.863453815283 L 360.29909365559 25.678322910272996" class="highcharts-graph" data-z-index="1" stroke="#000000" stroke-width="5" stroke-linejoin="round" stroke-linecap="round"  stroke-opacity="0.049999999999999996" transform="translate(1, 1)"></path><path fill="none" d="M 17.700906344408 24.806052269622 L 46.250755287007 46.103896103921 L 74.800604229605 53.63620539602 L 103.3504531722 65.396850256722 L 131.9003021148 83.732145975221 L 160.4501510574 68.273996509653 L 189 106.069452927333 L 217.5498489426 125.389481564733 L 246.0996978852 107.45012165451399 L 274.6495468278 102.20764424849 L 303.19939577039 98.378749548291 L 331.74924471299 67.863453815283 L 360.29909365559 25.678322910272996" class="highcharts-graph" data-z-index="1" stroke="#000000" stroke-width="3" stroke-linejoin="round" stroke-linecap="round"  stroke-opacity="0.09999999999999999" transform="translate(1, 1)"></path><path fill="none" d="M 17.700906344408 24.806052269622 L 46.250755287007 46.103896103921 L 74.800604229605 53.63620539602 L 103.3504531722 65.396850256722 L 131.9003021148 83.732145975221 L 160.4501510574 68.273996509653 L 189 106.069452927333 L 217.5498489426 125.389481564733 L 246.0996978852 107.45012165451399 L 274.6495468278 102.20764424849 L 303.19939577039 98.378749548291 L 331.74924471299 67.863453815283 L 360.29909365559 25.678322910272996" class="highcharts-graph" data-z-index="1" stroke="#000000" stroke-width="1" stroke-linejoin="round" stroke-linecap="round"  stroke-opacity="0.15" transform="translate(1, 1)"></path><path fill="none" d="M 17.700906344408 24.806052269622 L 46.250755287007 46.103896103921 L 74.800604229605 53.63620539602 L 103.3504531722 65.396850256722 L 131.9003021148 83.732145975221 L 160.4501510574 68.273996509653 L 189 106.069452927333 L 217.5498489426 125.389481564733 L 246.0996978852 107.45012165451399 L 274.6495468278 102.20764424849 L 303.19939577039 98.378749548291 L 331.74924471299 67.863453815283 L 360.29909365559 25.678322910272996" class="highcharts-graph" data-z-index="1" stroke="#B00000" stroke-width="2" stroke-linejoin="round" stroke-linecap="round"></path></g><g data-z-index="0.1" class="highcharts-markers highcharts-series-7 highcharts-line-series " transform="translate(44,7) scale(1 1)" clip-path="none"></g><g data-z-index="0.1" class="highcharts-series highcharts-series-8 highcharts-line-series " transform="translate(44,7) scale(1 1)" clip-path="url(#highcharts-hg0q9gv-10)"><path fill="none" d="M 17.700906344408 47.75600337882901 L 46.250755287007 68.875075730076 L 74.800604229605 84.234365513099 L 103.3504531722 96.619741100379 L 131.9003021148 108.97006472492299 L 160.4501510574 112.949496570273 L 189 116.115620367806 L 217.5498489426 127.390946502088 L 246.0996978852 117.938029532855 L 274.6495468278 111.8949871211 L 303.19939577039 96.209760509672 L 331.74924471299 72.606284802026 L 360.29909365559 53.294081687285" class="highcharts-graph" data-z-index="1" stroke="#000000" stroke-width="5" stroke-linejoin="round" stroke-linecap="round"  stroke-opacity="0.049999999999999996" transform="translate(1, 1)"></path><path fill="none" d="M 17.700906344408 47.75600337882901 L 46.250755287007 68.875075730076 L 74.800604229605 84.234365513099 L 103.3504531722 96.619741100379 L 131.9003021148 108.97006472492299 L 160.4501510574 112.949496570273 L 189 116.115620367806 L 217.5498489426 127.390946502088 L 246.0996978852 117.938029532855 L 274.6495468278 111.8949871211 L 303.19939577039 96.209760509672 L 331.74924471299 72.606284802026 L 360.29909365559 53.294081687285" class="highcharts-graph" data-z-index="1" stroke="#000000" stroke-width="3" stroke-linejoin="round" stroke-linecap="round"  stroke-opacity="0.09999999999999999" transform="translate(1, 1)"></path><path fill="none" d="M 17.700906344408 47.75600337882901 L 46.250755287007 68.875075730076 L 74.800604229605 84.234365513099 L 103.3504531722 96.619741100379 L 131.9003021148 108.97006472492299 L 160.4501510574 112.949496570273 L 189 116.115620367806 L 217.5498489426 127.390946502088 L 246.0996978852 117.938029532855 L 274.6495468278 111.8949871211 L 303.19939577039 96.209760509672 L 331.74924471299 72.606284802026 L 360.29909365559 53.294081687285" class="highcharts-graph" data-z-index="1" stroke="#000000" stroke-width="1" stroke-linejoin="round" stroke-linecap="round"  stroke-opacity="0.15" transform="translate(1, 1)"></path><path fill="none" d="M 17.700906344408 47.75600337882901 L 46.250755287007 68.875075730076 L 74.800604229605 84.234365513099 L 103.3504531722 96.619741100379 L 131.9003021148 108.97006472492299 L 160.4501510574 112.949496570273 L 189 116.115620367806 L 217.5498489426 127.390946502088 L 246.0996978852 117.938029532855 L 274.6495468278 111.8949871211 L 303.19939577039 96.209760509672 L 331.74924471299 72.606284802026 L 360.29909365559 53.294081687285" class="highcharts-graph" data-z-index="1" stroke="#ffbb58" stroke-width="2" stroke-linejoin="round" stroke-linecap="round"></path></g><g data-z-index="0.1" class="highcharts-markers highcharts-series-8 highcharts-line-series " transform="translate(44,7) scale(1 1)" clip-path="none"></g><g data-z-index="0.1" class="highcharts-series highcharts-series-9 highcharts-line-series " transform="translate(44,7) scale(1 1)" clip-path="url(#highcharts-hg0q9gv-10)"><path fill="none" d="M 17.700906344408 37.80789163124301 L 46.250755287007 45.073534308335 L 74.800604229605 74.65754825514699 L 103.3504531722 84.636864104423 L 131.9003021148 111.111586017469 L 160.4501510574 113.39128231125301 L 189 117.555668067463 L 217.5498489426 125.541053891091 L 246.0996978852 123.063363078959 L 274.6495468278 113.414103989146 L 303.19939577039 106.713118787544 L 331.74924471299 95.66282906799 L 360.29909365559 72.621696328986" class="highcharts-graph" data-z-index="1" stroke="#000000" stroke-width="5" stroke-linejoin="round" stroke-linecap="round"  stroke-opacity="0.049999999999999996" transform="translate(1, 1)"></path><path fill="none" d="M 17.700906344408 37.80789163124301 L 46.250755287007 45.073534308335 L 74.800604229605 74.65754825514699 L 103.3504531722 84.636864104423 L 131.9003021148 111.111586017469 L 160.4501510574 113.39128231125301 L 189 117.555668067463 L 217.5498489426 125.541053891091 L 246.0996978852 123.063363078959 L 274.6495468278 113.414103989146 L 303.19939577039 106.713118787544 L 331.74924471299 95.66282906799 L 360.29909365559 72.621696328986" class="highcharts-graph" data-z-index="1" stroke="#000000" stroke-width="3" stroke-linejoin="round" stroke-linecap="round"  stroke-opacity="0.09999999999999999" transform="translate(1, 1)"></path><path fill="none" d="M 17.700906344408 37.80789163124301 L 46.250755287007 45.073534308335 L 74.800604229605 74.65754825514699 L 103.3504531722 84.636864104423 L 131.9003021148 111.111586017469 L 160.4501510574 113.39128231125301 L 189 117.555668067463 L 217.5498489426 125.541053891091 L 246.0996978852 123.063363078959 L 274.6495468278 113.414103989146 L 303.19939577039 106.713118787544 L 331.74924471299 95.66282906799 L 360.29909365559 72.621696328986" class="highcharts-graph" data-z-index="1" stroke="#000000" stroke-width="1" stroke-linejoin="round" stroke-linecap="round"  stroke-opacity="0.15" transform="translate(1, 1)"></path><path fill="none" d="M 17.700906344408 37.80789163124301 L 46.250755287007 45.073534308335 L 74.800604229605 74.65754825514699 L 103.3504531722 84.636864104423 L 131.9003021148 111.111586017469 L 160.4501510574 113.39128231125301 L 189 117.555668067463 L 217.5498489426 125.541053891091 L 246.0996978852 123.063363078959 L 274.6495468278 113.414103989146 L 303.19939577039 106.713118787544 L 331.74924471299 95.66282906799 L 360.29909365559 72.621696328986" class="highcharts-graph" data-z-index="1" stroke="#007a2f" stroke-width="2" stroke-linejoin="round" stroke-linecap="round"></path></g><g data-z-index="0.1" class="highcharts-markers highcharts-series-9 highcharts-line-series " transform="translate(44,7) scale(1 1)" clip-path="none"></g><g data-z-index="0.1" class="highcharts-series highcharts-series-10 highcharts-line-series " transform="translate(44,7) scale(1 1)" clip-path="url(#highcharts-hg0q9gv-10)"><path fill="none" d="M 17.700906344408 32.022779043308006 L 46.250755287007 35.266394372616006 L 74.800604229605 61.796667608023 L 103.3504531722 83.10525725817101 L 131.9003021148 105.595831243451 L 160.4501510574 108.171745152412 L 189 120.412294764819 L 217.5498489426 123.929052441847 L 246.0996978852 112.258232143851 L 274.6495468278 113.242964599477 L 303.19939577039 110.805899890217 L 331.74924471299 105.542531120362 L 360.29909365559 85.308262930213" class="highcharts-graph" data-z-index="1" stroke="#000000" stroke-width="5" stroke-linejoin="round" stroke-linecap="round"  stroke-opacity="0.049999999999999996" transform="translate(1, 1)"></path><path fill="none" d="M 17.700906344408 32.022779043308006 L 46.250755287007 35.266394372616006 L 74.800604229605 61.796667608023 L 103.3504531722 83.10525725817101 L 131.9003021148 105.595831243451 L 160.4501510574 108.171745152412 L 189 120.412294764819 L 217.5498489426 123.929052441847 L 246.0996978852 112.258232143851 L 274.6495468278 113.242964599477 L 303.19939577039 110.805899890217 L 331.74924471299 105.542531120362 L 360.29909365559 85.308262930213" class="highcharts-graph" data-z-index="1" stroke="#000000" stroke-width="3" stroke-linejoin="round" stroke-linecap="round"  stroke-opacity="0.09999999999999999" transform="translate(1, 1)"></path><path fill="none" d="M 17.700906344408 32.022779043308006 L 46.250755287007 35.266394372616006 L 74.800604229605 61.796667608023 L 103.3504531722 83.10525725817101 L 131.9003021148 105.595831243451 L 160.4501510574 108.171745152412 L 189 120.412294764819 L 217.5498489426 123.929052441847 L 246.0996978852 112.258232143851 L 274.6495468278 113.242964599477 L 303.19939577039 110.805899890217 L 331.74924471299 105.542531120362 L 360.29909365559 85.308262930213" class="highcharts-graph" data-z-index="1" stroke="#000000" stroke-width="1" stroke-linejoin="round" stroke-linecap="round"  stroke-opacity="0.15" transform="translate(1, 1)"></path><path fill="none" d="M 17.700906344408 32.022779043308006 L 46.250755287007 35.266394372616006 L 74.800604229605 61.796667608023 L 103.3504531722 83.10525725817101 L 131.9003021148 105.595831243451 L 160.4501510574 108.171745152412 L 189 120.412294764819 L 217.5498489426 123.929052441847 L 246.0996978852 112.258232143851 L 274.6495468278 113.242964599477 L 303.19939577039 110.805899890217 L 331.74924471299 105.542531120362 L 360.29909365559 85.308262930213" class="highcharts-graph" data-z-index="1" stroke="#923f8d" stroke-width="2" stroke-linejoin="round" stroke-linecap="round"></path></g><g data-z-index="0.1" class="highcharts-markers highcharts-series-10 highcharts-line-series " transform="translate(44,7) scale(1 1)" clip-path="none"></g><g data-z-index="0.1" class="highcharts-series highcharts-series-11 highcharts-line-series " transform="translate(44,7) scale(1 1)" clip-path="url(#highcharts-hg0q9gv-10)"><path fill="none" d="M 17.700906344408 80.160703612056 L 46.250755287007 90.695060783868 L 74.800604229605 109.46159721635 L 103.3504531722 120.315092898975 L 131.9003021148 112.02448703881299 L 160.4501510574 121.654445849164 L 189 129.479005710463 L 217.5498489426 126.494189220835 L 246.0996978852 120.402620700431 L 274.6495468278 117.665991587508 L 303.19939577039 126.541213063772 L 331.74924471299 115.54448067077101 L 360.29909365559 112.960024695223" class="highcharts-graph" data-z-index="1" stroke="#000000" stroke-width="5" stroke-linejoin="round" stroke-linecap="round"  stroke-opacity="0.049999999999999996" transform="translate(1, 1)"></path><path fill="none" d="M 17.700906344408 80.160703612056 L 46.250755287007 90.695060783868 L 74.800604229605 109.46159721635 L 103.3504531722 120.315092898975 L 131.9003021148 112.02448703881299 L 160.4501510574 121.654445849164 L 189 129.479005710463 L 217.5498489426 126.494189220835 L 246.0996978852 120.402620700431 L 274.6495468278 117.665991587508 L 303.19939577039 126.541213063772 L 331.74924471299 115.54448067077101 L 360.29909365559 112.960024695223" class="highcharts-graph" data-z-index="1" stroke="#000000" stroke-width="3" stroke-linejoin="round" stroke-linecap="round"  stroke-opacity="0.09999999999999999" transform="translate(1, 1)"></path><path fill="none" d="M 17.700906344408 80.160703612056 L 46.250755287007 90.695060783868 L 74.800604229605 109.46159721635 L 103.3504531722 120.315092898975 L 131.9003021148 112.02448703881299 L 160.4501510574 121.654445849164 L 189 129.479005710463 L 217.5498489426 126.494189220835 L 246.0996978852 120.402620700431 L 274.6495468278 117.665991587508 L 303.19939577039 126.541213063772 L 331.74924471299 115.54448067077101 L 360.29909365559 112.960024695223" class="highcharts-graph" data-z-index="1" stroke="#000000" stroke-width="1" stroke-linejoin="round" stroke-linecap="round"  stroke-opacity="0.15" transform="translate(1, 1)"></path><path fill="none" d="M 17.700906344408 80.160703612056 L 46.250755287007 90.695060783868 L 74.800604229605 109.46159721635 L 103.3504531722 120.315092898975 L 131.9003021148 112.02448703881299 L 160.4501510574 121.654445849164 L 189 129.479005710463 L 217.5498489426 126.494189220835 L 246.0996978852 120.402620700431 L 274.6495468278 117.665991587508 L 303.19939577039 126.541213063772 L 331.74924471299 115.54448067077101 L 360.29909365559 112.960024695223" class="highcharts-graph" data-z-index="1" stroke="#2B0099" stroke-width="2" stroke-linejoin="round" stroke-linecap="round"></path></g><g data-z-index="0.1" class="highcharts-markers highcharts-series-11 highcharts-line-series " transform="translate(44,7) scale(1 1)" clip-path="none"></g></g><text x="2" text-anchor="start" class="highcharts-title" data-z-index="4" style="color:#000000;font-size:10px;font-weight:bold;fill:#000000;" y="9"><tspan>Leerwohnungen und Leerwohnungsquote nach Zimmerzahl</tspan></text><text x="2" text-anchor="start" class="highcharts-subtitle" data-z-index="4" style="color:#000000;font-size:10px;font-weight:normal;font-family:Arial;fill:#000000;" y="26"><tspan>Basel-Stadt</tspan></text><g class="highcharts-legend" data-z-index="7" transform="translate(473,5)"><rect fill="none" class="highcharts-legend-box" rx="0" ry="0" x="0" y="0" width="190" height="175" visibility="visible"></rect><g data-z-index="1"><g><g class="highcharts-legend-item highcharts-column-series highcharts-color-undefined highcharts-series-0" data-z-index="1" transform="translate(0,-5)"><text x="19" style="color:#333333;font-size:10px;font-weight:normal;cursor:pointer;whitespace:nowrap;fill:#333333;" text-anchor="start" data-z-index="2" y="13"><tspan>Anzahl leere Wohnungen</tspan></text><rect x="3" y="4" width="10" height="10" fill="#8A8A8A" class="highcharts-point" data-z-index="3"></rect></g><g class="highcharts-legend-item highcharts-line-series highcharts-color-undefined highcharts-series-6" data-z-index="1" transform="translate(0,10)"><path fill="none" d="M 0 10 L 16 10" class="highcharts-graph" stroke="#000000" stroke-width="2"></path><text x="19" y="13" style="color:#333333;font-size:10px;font-weight:normal;cursor:pointer;whitespace:nowrap;fill:#333333;" text-anchor="start" data-z-index="2"><tspan>LWQ alle Wohnungen (rechte Skala)</tspan></text></g><g class="highcharts-legend-item highcharts-column-series highcharts-color-undefined highcharts-series-1" data-z-index="1" transform="translate(0,25)"><text x="19" y="13" style="color:#333333;font-size:10px;font-weight:normal;cursor:pointer;whitespace:nowrap;fill:#333333;" text-anchor="start" data-z-index="2"><tspan>1 Zimmer</tspan></text><rect x="3" y="4" width="10" height="10" fill="#B00000" class="highcharts-point" data-z-index="3"></rect></g><g class="highcharts-legend-item highcharts-line-series highcharts-color-undefined highcharts-series-7" data-z-index="1" transform="translate(0,40)"><path fill="none" d="M 0 10 L 16 10" class="highcharts-graph" stroke="#B00000" stroke-width="2"></path><text x="19" y="13" style="color:#333333;font-size:10px;font-weight:normal;cursor:pointer;whitespace:nowrap;fill:#333333;" text-anchor="start" data-z-index="2"><tspan>LWQ 1 Zimmer</tspan></text></g><g class="highcharts-legend-item highcharts-column-series highcharts-color-undefined highcharts-series-2" data-z-index="1" transform="translate(0,55)"><text x="19" y="13" style="color:#333333;font-size:10px;font-weight:normal;cursor:pointer;whitespace:nowrap;fill:#333333;" text-anchor="start" data-z-index="2"><tspan>2 Zimmer</tspan></text><rect x="3" y="4" width="10" height="10" fill="#ffbb58" class="highcharts-point" data-z-index="3"></rect></g><g class="highcharts-legend-item highcharts-line-series highcharts-color-undefined highcharts-series-8" data-z-index="1" transform="translate(0,70)"><path fill="none" d="M 0 10 L 16 10" class="highcharts-graph" stroke="#ffbb58" stroke-width="2"></path><text x="19" y="13" style="color:#333333;font-size:10px;font-weight:normal;cursor:pointer;whitespace:nowrap;fill:#333333;" text-anchor="start" data-z-index="2"><tspan>LWQ 2 Zimmer</tspan></text></g><g class="highcharts-legend-item highcharts-column-series highcharts-color-undefined highcharts-series-3" data-z-index="1" transform="translate(0,85)"><text x="19" y="13" style="color:#333333;font-size:10px;font-weight:normal;cursor:pointer;whitespace:nowrap;fill:#333333;" text-anchor="start" data-z-index="2"><tspan>3 Zimmer</tspan></text><rect x="3" y="4" width="10" height="10" fill="#007a2f" class="highcharts-point" data-z-index="3"></rect></g><g class="highcharts-legend-item highcharts-line-series highcharts-color-undefined highcharts-series-9" data-z-index="1" transform="translate(0,100)"><path fill="none" d="M 0 10 L 16 10" class="highcharts-graph" stroke="#007a2f" stroke-width="2"></path><text x="19" y="13" style="color:#333333;font-size:10px;font-weight:normal;cursor:pointer;whitespace:nowrap;fill:#333333;" text-anchor="start" data-z-index="2"><tspan>LWQ 3 Zimmer</tspan></text></g><g class="highcharts-legend-item highcharts-column-series highcharts-color-undefined highcharts-series-4" data-z-index="1" transform="translate(0,115)"><text x="19" y="13" style="color:#333333;font-size:10px;font-weight:normal;cursor:pointer;whitespace:nowrap;fill:#333333;" text-anchor="start" data-z-index="2"><tspan>4 Zimmer</tspan></text><rect x="3" y="4" width="10" height="10" fill="#923f8d" class="highcharts-point" data-z-index="3"></rect></g><g class="highcharts-legend-item highcharts-line-series highcharts-color-undefined highcharts-series-10" data-z-index="1" transform="translate(0,130)"><path fill="none" d="M 0 10 L 16 10" class="highcharts-graph" stroke="#923f8d" stroke-width="2"></path><text x="19" y="13" style="color:#333333;font-size:10px;font-weight:normal;cursor:pointer;whitespace:nowrap;fill:#333333;" text-anchor="start" data-z-index="2"><tspan>LWQ 4 Zimmer</tspan></text></g><g class="highcharts-legend-item highcharts-column-series highcharts-color-undefined highcharts-series-5" data-z-index="1" transform="translate(0,145)"><text x="19" y="13" style="color:#333333;font-size:10px;font-weight:normal;cursor:pointer;whitespace:nowrap;fill:#333333;" text-anchor="start" data-z-index="2"><tspan>5+ Zimmer</tspan></text><rect x="3" y="4" width="10" height="10" fill="#2B0099" class="highcharts-point" data-z-index="3"></rect></g><g class="highcharts-legend-item highcharts-line-series highcharts-color-undefined highcharts-series-11" data-z-index="1" transform="translate(0,160)"><path fill="none" d="M 0 10 L 16 10" class="highcharts-graph" stroke="#2B0099" stroke-width="2"></path><text x="19" y="13" style="color:#333333;font-size:10px;font-weight:normal;cursor:pointer;whitespace:nowrap;fill:#333333;" text-anchor="start" data-z-index="2"><tspan>LWQ 5+ Zimmer</tspan></text></g></g></g></g><g class="highcharts-axis-labels highcharts-xaxis-labels " data-z-index="7"><text x="64.05792894836316" style="color:#000000;cursor:default;font-size:10px;fill:#000000;" text-anchor="end" transform="translate(0,0) rotate(-45 64.05792894836316 164)" y="164" opacity="1">2007</text><text x="92.60777789096215" style="color:#000000;cursor:default;font-size:10px;fill:#000000;" text-anchor="end" transform="translate(0,0) rotate(-45 92.60777789096215 164)" y="164" opacity="1">2008</text><text x="121.15762683356516" style="color:#000000;cursor:default;font-size:10px;fill:#000000;" text-anchor="end" transform="translate(0,0) rotate(-45 121.15762683356516 164)" y="164" opacity="1">2009</text><text x="149.70747577615515" style="color:#000000;cursor:default;font-size:10px;fill:#000000;" text-anchor="end" transform="translate(0,0) rotate(-45 149.70747577615515 164)" y="164" opacity="1">2010</text><text x="178.25732471875517" style="color:#000000;cursor:default;font-size:10px;fill:#000000;" text-anchor="end" transform="translate(0,0) rotate(-45 178.25732471875517 164)" y="164" opacity="1">2011</text><text x="206.80717366135516" style="color:#000000;cursor:default;font-size:10px;fill:#000000;" text-anchor="end" transform="translate(0,0) rotate(-45 206.80717366135516 164)" y="164" opacity="1">2012</text><text x="235.35702260395516" style="color:#000000;cursor:default;font-size:10px;fill:#000000;" text-anchor="end" transform="translate(0,0) rotate(-45 235.35702260395516 164)" y="164" opacity="1">2013</text><text x="263.9068715465552" style="color:#000000;cursor:default;font-size:10px;fill:#000000;" text-anchor="end" transform="translate(0,0) rotate(-45 263.9068715465552 164)" y="164" opacity="1">2014</text><text x="292.45672048915515" style="color:#000000;cursor:default;font-size:10px;fill:#000000;" text-anchor="end" transform="translate(0,0) rotate(-45 292.45672048915515 164)" y="164" opacity="1">2015</text><text x="321.00656943175517" style="color:#000000;cursor:default;font-size:10px;fill:#000000;" text-anchor="end" transform="translate(0,0) rotate(-45 321.00656943175517 164)" y="164" opacity="1">2016</text><text x="349.5564183743452" style="color:#000000;cursor:default;font-size:10px;fill:#000000;" text-anchor="end" transform="translate(0,0) rotate(-45 349.5564183743452 164)" y="164" opacity="1">2017</text><text x="378.10626731694515" style="color:#000000;cursor:default;font-size:10px;fill:#000000;" text-anchor="end" transform="translate(0,0) rotate(-45 378.10626731694515 164)" y="164" opacity="1">2018</text><text x="406.6561162595452" style="color:#000000;cursor:default;font-size:10px;fill:#000000;" text-anchor="end" transform="translate(0,0) rotate(-45 406.6561162595452 164)" y="164" opacity="1">2019</text></g><g class="highcharts-axis-labels highcharts-yaxis-labels " data-z-index="7"><text x="29" style="color:#000000;cursor:default;font-size:10px;fill:#000000;" text-anchor="end" transform="translate(0,0)" y="152" opacity="1">0</text><text x="29" style="color:#000000;cursor:default;font-size:10px;fill:#000000;" text-anchor="end" transform="translate(0,0)" y="81" opacity="1">800</text><text x="29" style="color:#000000;cursor:default;font-size:10px;fill:#000000;" text-anchor="end" transform="translate(0,0)" y="10" opacity="1"><tspan>1 600</tspan></text></g><g class="highcharts-axis-labels highcharts-yaxis-labels " data-z-index="7"><text x="437" style="color:#000000;cursor:default;font-size:10px;fill:#000000;" text-anchor="start" transform="translate(0,0)" y="152" opacity="1">0.0%</text><text x="437" style="color:#000000;cursor:default;font-size:10px;fill:#000000;" text-anchor="start" transform="translate(0,0)" y="81" opacity="1">1.0%</text><text x="437" style="color:#000000;cursor:default;font-size:10px;fill:#000000;" text-anchor="start" transform="translate(0,0)" y="10" opacity="1">2.0%</text></g><text x="10" class="highcharts-credits" text-anchor="start" data-z-index="8" style="cursor:default;color:#000000;font-size:10;fill:#000000;" y="196"><tspan>Quelle: Statistisches Amt Basel-Stadt, Leerstandserhebung.</tspan><tspan x="10" dy="15">Zuletzt geändert: 2020-3-18</tspan></text></svg>