<?xml version="1.0" standalone="no"?><!DOCTYPE svg PUBLIC "-//W3C//DTD SVG 1.1//EN" "http://www.w3.org/Graphics/SVG/1.1/DTD/svg11.dtd"><svg xmlns:xlink="http://www.w3.org/1999/xlink" version="1.1" class="highcharts-root" style="font-family:Arial;font-size:12px;" xmlns="http://www.w3.org/2000/svg" viewBox="0 0 485 415"><desc>Created with Highstock 6.1.1</desc><defs><clipPath id="highcharts-klcpl7o-8"><rect x="0" y="0" width="217" height="67" fill="none"></rect></clipPath><clipPath id="highcharts-klcpl7o-9"><rect x="0" y="0" width="217" height="67" fill="none"></rect></clipPath><clipPath id="highcharts-klcpl7o-10"><rect x="0" y="0" width="217" height="67" fill="none"></rect></clipPath></defs><rect fill="#fbfbfb" class="highcharts-background" x="0" y="0" width="320" height="221" rx="0" ry="0"></rect><rect fill="none" class="highcharts-plot-background" x="59" y="108" width="217" height="67"></rect><g class="highcharts-pane-group" data-z-index="0"></g><g class="highcharts-grid highcharts-xaxis-grid " data-z-index="1"><path fill="none" data-z-index="1" class="highcharts-grid-line" d="M 85.5 108 L 85.5 175" opacity="1"></path><path fill="none" data-z-index="1" class="highcharts-grid-line" d="M 112.5 108 L 112.5 175" opacity="1"></path><path fill="none" data-z-index="1" class="highcharts-grid-line" d="M 139.5 108 L 139.5 175" opacity="1"></path><path fill="none" data-z-index="1" class="highcharts-grid-line" d="M 167.5 108 L 167.5 175" opacity="1"></path><path fill="none" data-z-index="1" class="highcharts-grid-line" d="M 194.5 108 L 194.5 175" opacity="1"></path><path fill="none" data-z-index="1" class="highcharts-grid-line" d="M 221.5 108 L 221.5 175" opacity="1"></path><path fill="none" data-z-index="1" class="highcharts-grid-line" d="M 248.5 108 L 248.5 175" opacity="1"></path><path fill="none" data-z-index="1" class="highcharts-grid-line" d="M 275.5 108 L 275.5 175" opacity="1"></path><path fill="none" data-z-index="1" class="highcharts-grid-line" d="M 58.5 108 L 58.5 175" opacity="1"></path></g><rect fill="none" class="highcharts-plot-border" data-z-index="1" x="59" y="108" width="217" height="67"></rect><g class="highcharts-grid highcharts-yaxis-grid " data-z-index="1"><path fill="none" stroke="#B9CFD7" stroke-width="0.5" data-z-index="1" class="highcharts-grid-line" d="M 59 175.25 L 276 175.25" opacity="1"></path><path fill="none" stroke="#B9CFD7" stroke-width="0.5" data-z-index="1" class="highcharts-grid-line" d="M 59 158.25 L 276 158.25" opacity="1"></path><path fill="none" stroke="#B9CFD7" stroke-width="0.5" data-z-index="1" class="highcharts-grid-line" d="M 59 142.25 L 276 142.25" opacity="1"></path><path fill="none" stroke="#B9CFD7" stroke-width="0.5" data-z-index="1" class="highcharts-grid-line" d="M 59 125.25 L 276 125.25" opacity="1"></path><path fill="none" stroke="#B9CFD7" stroke-width="0.5" data-z-index="1" class="highcharts-grid-line" d="M 59 107.75 L 276 107.75" opacity="1"></path></g><g class="highcharts-grid highcharts-yaxis-grid " data-z-index="1"><path fill="none" stroke="#B9CFD7" stroke-width="0.5" data-z-index="1" class="highcharts-grid-line" d="M 59 175.25 L 276 175.25" opacity="1"></path><path fill="none" stroke="#B9CFD7" stroke-width="0.5" data-z-index="1" class="highcharts-grid-line" d="M 59 158.25 L 276 158.25" opacity="1"></path><path fill="none" stroke="#B9CFD7" stroke-width="0.5" data-z-index="1" class="highcharts-grid-line" d="M 59 142.25 L 276 142.25" opacity="1"></path><path fill="none" stroke="#B9CFD7" stroke-width="0.5" data-z-index="1" class="highcharts-grid-line" d="M 59 125.25 L 276 125.25" opacity="1"></path><path fill="none" stroke="#B9CFD7" stroke-width="0.5" data-z-index="1" class="highcharts-grid-line" d="M 59 107.75 L 276 107.75" opacity="1"></path></g><g class="highcharts-axis highcharts-xaxis " data-z-index="2"><path fill="none" class="highcharts-axis-line" stroke="#B9CFD7" stroke-width="0.5" data-z-index="7" d="M 59 175.25 L 276 175.25"></path></g><g class="highcharts-axis highcharts-yaxis " data-z-index="2"><path fill="none" class="highcharts-axis-line" data-z-index="7" d="M 276 108 L 276 175"></path></g><g class="highcharts-axis highcharts-yaxis " data-z-index="2"><path fill="none" class="highcharts-axis-line" data-z-index="7" d="M 59 108 L 59 175"></path></g><g class="highcharts-series-group" data-z-index="3"><g data-z-index="0.1" class="highcharts-series highcharts-series-0 highcharts-column-series " transform="translate(59,108) scale(1 1)" clip-path="url(#highcharts-klcpl7o-9)"><rect x="3" y="18" width="11" height="50" fill="#008AC3" class="highcharts-point"></rect><rect x="30" y="17" width="11" height="51" fill="#008AC3" class="highcharts-point"></rect><rect x="57" y="15" width="11" height="53" fill="#008AC3" class="highcharts-point"></rect><rect x="84" y="14" width="11" height="54" fill="#008AC3" class="highcharts-point"></rect><rect x="111" y="13" width="11" height="55" fill="#008AC3" class="highcharts-point"></rect><rect x="138" y="10" width="11" height="58" fill="#008AC3" class="highcharts-point"></rect><rect x="165" y="11" width="11" height="57" fill="#008AC3" class="highcharts-point"></rect><rect x="193" y="11" width="10" height="57" fill="#008AC3" class="highcharts-point"></rect></g><g data-z-index="0.1" class="highcharts-markers highcharts-series-0 highcharts-column-series " transform="translate(59,108) scale(1 1)" clip-path="none"></g><g data-z-index="0.1" class="highcharts-series highcharts-series-1 highcharts-column-series " transform="translate(59,108) scale(1 1)" clip-path="url(#highcharts-klcpl7o-9)"><rect x="14" y="28" width="10" height="40" fill="#DC440E" class="highcharts-point"></rect><rect x="41" y="27" width="11" height="41" fill="#DC440E" class="highcharts-point"></rect><rect x="68" y="25" width="11" height="43" fill="#DC440E" class="highcharts-point"></rect><rect x="95" y="24" width="11" height="44" fill="#DC440E" class="highcharts-point"></rect><rect x="122" y="22" width="11" height="46" fill="#DC440E" class="highcharts-point"></rect><rect x="149" y="20" width="11" height="48" fill="#DC440E" class="highcharts-point"></rect><rect x="176" y="19" width="11" height="49" fill="#DC440E" class="highcharts-point"></rect><rect x="203" y="18" width="11" height="50" fill="#DC440E" class="highcharts-point"></rect></g><g data-z-index="0.1" class="highcharts-markers highcharts-series-1 highcharts-column-series " transform="translate(59,108) scale(1 1)" clip-path="none"></g><g data-z-index="0.1" class="highcharts-series highcharts-series-2 highcharts-line-series " transform="translate(59,108) scale(1 1)" clip-path="url(#highcharts-klcpl7o-10)"><path fill="none" d="M 13.5625 13.898698264352497 L 40.6875 13.406561122898616 L 67.8125 12.549816674637327 L 94.9375 12.36923076923079 L 122.0625 11.868166717003902 L 149.1875 11.540296770439362 L 176.3125 9.650124798120665 L 203.4375 9.099007009345783" class="highcharts-graph" data-z-index="1" stroke="#fabd24" stroke-width="2" stroke-linejoin="round" stroke-linecap="round"></path></g><g data-z-index="0.1" class="highcharts-markers highcharts-series-2 highcharts-line-series " transform="translate(59,108) scale(1 1)" clip-path="none"></g></g><text x="2" text-anchor="start" class="highcharts-title" data-z-index="4" style="color:#000000;font-size:10px;font-weight:bold;fill:#000000;" y="9"><tspan>Verhältnis der Löhne von Frauen und Männern</tspan></text><text x="2" text-anchor="start" class="highcharts-subtitle" data-z-index="4" style="color:#000000;font-size:10px;font-weight:normal;font-family:Arial;fill:#000000;" y="26"><tspan>im privaten Sektor in der Nordwestschweiz</tspan></text><g class="highcharts-legend" data-z-index="7" transform="translate(3,42)"><rect fill="none" class="highcharts-legend-box" rx="0" ry="0" x="0" y="0" width="310" height="54" visibility="visible"></rect><g data-z-index="1"><g><g class="highcharts-legend-item highcharts-line-series highcharts-color-undefined highcharts-series-2" data-z-index="1" transform="translate(0,0)"><path fill="none" d="M 0 10 L 16 10" class="highcharts-graph" stroke="#fabd24" stroke-width="2"></path><text x="21" style="color:#333333;font-size:10px;font-weight:normal;cursor:pointer;fill:#333333;" text-anchor="start" data-z-index="2" y="13"><tspan>Verhältnis der Löhne von Frauen und Männern (rechte Achse)</tspan></text></g><g class="highcharts-legend-item highcharts-column-series highcharts-color-undefined highcharts-series-1" data-z-index="1" transform="translate(0,18)"><text x="21" y="13" style="color:#333333;font-size:10px;font-weight:normal;cursor:pointer;fill:#333333;" text-anchor="start" data-z-index="2"><tspan>Bruttolohn der Frauen</tspan></text><rect x="3" y="4" width="10" height="10" fill="#DC440E" class="highcharts-point" data-z-index="3"></rect></g><g class="highcharts-legend-item highcharts-column-series highcharts-color-undefined highcharts-series-0" data-z-index="1" transform="translate(0,36)"><text x="21" y="13" style="color:#333333;font-size:10px;font-weight:normal;cursor:pointer;fill:#333333;" text-anchor="start" data-z-index="2"><tspan>Bruttolohn der Männer</tspan></text><rect x="3" y="4" width="10" height="10" fill="#008AC3" class="highcharts-point" data-z-index="3"></rect></g></g></g></g><g class="highcharts-axis-labels highcharts-xaxis-labels " data-z-index="7"><text x="74.91952260395516" style="color:#000000;cursor:default;font-size:10px;white-space:nowrap;fill:#000000;" text-anchor="end" transform="translate(0,0) rotate(-45 74.91952260395516 190)" y="190" opacity="1">2002</text><text x="102.04452260395516" style="color:#000000;cursor:default;font-size:10px;white-space:nowrap;fill:#000000;" text-anchor="end" transform="translate(0,0) rotate(-45 102.04452260395516 190)" y="190" opacity="1">2004</text><text x="129.16952260395516" style="color:#000000;cursor:default;font-size:10px;white-space:nowrap;fill:#000000;" text-anchor="end" transform="translate(0,0) rotate(-45 129.16952260395516 190)" y="190" opacity="1">2006</text><text x="156.29452260395516" style="color:#000000;cursor:default;font-size:10px;white-space:nowrap;fill:#000000;" text-anchor="end" transform="translate(0,0) rotate(-45 156.29452260395516 190)" y="190" opacity="1">2008</text><text x="183.41952260395516" style="color:#000000;cursor:default;font-size:10px;white-space:nowrap;fill:#000000;" text-anchor="end" transform="translate(0,0) rotate(-45 183.41952260395516 190)" y="190" opacity="1">2010</text><text x="210.54452260395516" style="color:#000000;cursor:default;font-size:10px;white-space:nowrap;fill:#000000;" text-anchor="end" transform="translate(0,0) rotate(-45 210.54452260395516 190)" y="190" opacity="1">2012</text><text x="237.66952260395516" style="color:#000000;cursor:default;font-size:10px;white-space:nowrap;fill:#000000;" text-anchor="end" transform="translate(0,0) rotate(-45 237.66952260395516 190)" y="190" opacity="1">2014</text><text x="264.79452260395516" style="color:#000000;cursor:default;font-size:10px;white-space:nowrap;fill:#000000;" text-anchor="end" transform="translate(0,0) rotate(-45 264.79452260395516 190)" y="190" opacity="1">2016</text></g><g class="highcharts-axis-labels highcharts-yaxis-labels " data-z-index="7"><text x="291" style="color:#000000;cursor:default;font-size:10px;fill:#000000;" text-anchor="start" transform="translate(0,0)" y="178" opacity="1">0%</text><text x="291" style="color:#000000;cursor:default;font-size:10px;fill:#000000;" text-anchor="start" transform="translate(0,0)" y="161" opacity="1">25%</text><text x="291" style="color:#000000;cursor:default;font-size:10px;fill:#000000;" text-anchor="start" transform="translate(0,0)" y="145" opacity="1">50%</text><text x="291" style="color:#000000;cursor:default;font-size:10px;fill:#000000;" text-anchor="start" transform="translate(0,0)" y="128" opacity="1">75%</text><text x="291" style="color:#000000;cursor:default;font-size:10px;fill:#000000;" text-anchor="start" transform="translate(0,0)" y="111" opacity="1">100%</text></g><g class="highcharts-axis-labels highcharts-yaxis-labels " data-z-index="7"><text x="44" style="color:#000000;cursor:default;font-size:10px;fill:#000000;" text-anchor="end" transform="translate(0,0)" y="178" opacity="1"><tspan>0 Fr.</tspan></text><text x="44" style="color:#000000;cursor:default;font-size:10px;fill:#000000;" text-anchor="end" transform="translate(0,0)" y="161" opacity="1"><tspan>2 000 Fr.</tspan></text><text x="44" style="color:#000000;cursor:default;font-size:10px;fill:#000000;" text-anchor="end" transform="translate(0,0)" y="145" opacity="1"><tspan>4 000 Fr.</tspan></text><text x="44" style="color:#000000;cursor:default;font-size:10px;fill:#000000;" text-anchor="end" transform="translate(0,0)" y="128" opacity="1"><tspan>6 000 Fr.</tspan></text><text x="44" style="color:#000000;cursor:default;font-size:10px;fill:#000000;" text-anchor="end" transform="translate(0,0)" y="111" opacity="1"><tspan>8 000 Fr.</tspan></text></g><text x="10" class="highcharts-credits" text-anchor="start" data-z-index="8" style="cursor:default;color:#000000;font-size:10px;fill:#000000;" y="196"><tspan>Quelle: Bundesamt für Statistik (BFS), Lohnstrukturerhebung (LSE).</tspan><tspan x="10" dy="13">Zuletzt geändert: 2020-3-18</tspan></text></svg>