<?xml version="1.0" standalone="no"?><!DOCTYPE svg PUBLIC "-//W3C//DTD SVG 1.1//EN" "http://www.w3.org/Graphics/SVG/1.1/DTD/svg11.dtd"><svg xmlns:xlink="http://www.w3.org/1999/xlink" version="1.1" class="highcharts-root" style="font-family:Arial;font-size:10px;color:#000000;fill:#000000;" xmlns="http://www.w3.org/2000/svg" viewBox="0 0 485 415"><desc>Created with Highstock 6.1.1</desc><defs><clipPath id="highcharts-9qc0cl3-6"><rect x="0" y="0" width="85" height="168" fill="none"></rect></clipPath><clipPath id="highcharts-9qc0cl3-7"><rect x="0" y="0" width="85" height="168" fill="none"></rect></clipPath></defs><rect fill="#fbfbfb" class="highcharts-background" x="0" y="0" width="320" height="221" rx="0" ry="0"></rect><rect fill="none" class="highcharts-plot-background" x="56" y="7" width="85" height="168"></rect><g class="highcharts-pane-group" data-z-index="0"></g><g class="highcharts-grid highcharts-xaxis-grid " data-z-index="1"><path fill="none" data-z-index="1" class="highcharts-grid-line" d="M 63.5 7 L 63.5 175" opacity="1"></path><path fill="none" data-z-index="1" class="highcharts-grid-line" d="M 70.5 7 L 70.5 175" opacity="1"></path><path fill="none" data-z-index="1" class="highcharts-grid-line" d="M 78.5 7 L 78.5 175" opacity="1"></path><path fill="none" data-z-index="1" class="highcharts-grid-line" d="M 86.5 7 L 86.5 175" opacity="1"></path><path fill="none" data-z-index="1" class="highcharts-grid-line" d="M 94.5 7 L 94.5 175" opacity="1"></path><path fill="none" data-z-index="1" class="highcharts-grid-line" d="M 101.5 7 L 101.5 175" opacity="1"></path><path fill="none" data-z-index="1" class="highcharts-grid-line" d="M 109.5 7 L 109.5 175" opacity="1"></path><path fill="none" data-z-index="1" class="highcharts-grid-line" d="M 117.5 7 L 117.5 175" opacity="1"></path><path fill="none" data-z-index="1" class="highcharts-grid-line" d="M 125.5 7 L 125.5 175" opacity="1"></path><path fill="none" data-z-index="1" class="highcharts-grid-line" d="M 132.5 7 L 132.5 175" opacity="1"></path><path fill="none" data-z-index="1" class="highcharts-grid-line" d="M 140.5 7 L 140.5 175" opacity="1"></path><path fill="none" data-z-index="1" class="highcharts-grid-line" d="M 55.5 7 L 55.5 175" opacity="1"></path></g><g class="highcharts-grid highcharts-yaxis-grid " data-z-index="1"><path fill="none" stroke="#B9CFD7" stroke-width="0.5" data-z-index="1" class="highcharts-grid-line" d="M 56 175.25 L 141 175.25" opacity="1"></path><path fill="none" stroke="#B9CFD7" stroke-width="0.5" data-z-index="1" class="highcharts-grid-line" d="M 56 151.25 L 141 151.25" opacity="1"></path><path fill="none" stroke="#B9CFD7" stroke-width="0.5" data-z-index="1" class="highcharts-grid-line" d="M 56 127.25 L 141 127.25" opacity="1"></path><path fill="none" stroke="#B9CFD7" stroke-width="0.5" data-z-index="1" class="highcharts-grid-line" d="M 56 103.25 L 141 103.25" opacity="1"></path><path fill="none" stroke="#B9CFD7" stroke-width="0.5" data-z-index="1" class="highcharts-grid-line" d="M 56 79.25 L 141 79.25" opacity="1"></path><path fill="none" stroke="#B9CFD7" stroke-width="0.5" data-z-index="1" class="highcharts-grid-line" d="M 56 55.25 L 141 55.25" opacity="1"></path><path fill="none" stroke="#B9CFD7" stroke-width="0.5" data-z-index="1" class="highcharts-grid-line" d="M 56 31.25 L 141 31.25" opacity="1"></path><path fill="none" stroke="#B9CFD7" stroke-width="0.5" data-z-index="1" class="highcharts-grid-line" d="M 56 6.75 L 141 6.75" opacity="1"></path></g><rect fill="none" class="highcharts-plot-border" data-z-index="1" x="56" y="7" width="85" height="168"></rect><g class="highcharts-axis highcharts-xaxis " data-z-index="2"><path fill="none" class="highcharts-axis-line" stroke="#B9CFD7" stroke-width="0.5" data-z-index="7" d="M 56 175.25 L 141 175.25"></path></g><g class="highcharts-axis highcharts-yaxis " data-z-index="2"><path fill="none" class="highcharts-axis-line" data-z-index="7" d="M 56 7 L 56 175"></path></g><g class="highcharts-series-group" data-z-index="3"><g data-z-index="0.1" class="highcharts-series highcharts-series-0 highcharts-column-series " transform="translate(56,7) scale(1 1)" clip-path="url(#highcharts-9qc0cl3-7)"><rect x="1" y="32" width="7" height="19" fill="#b00000" class="highcharts-point"></rect><rect x="16" y="26" width="7" height="21" fill="#b00000" class="highcharts-point"></rect><rect x="32" y="22" width="7" height="22" fill="#b00000" class="highcharts-point"></rect><rect x="39" y="19" width="7" height="23" fill="#b00000" class="highcharts-point"></rect><rect x="47" y="18" width="7" height="23" fill="#b00000" class="highcharts-point"></rect><rect x="55" y="16" width="7" height="24" fill="#b00000" class="highcharts-point"></rect><rect x="63" y="16" width="7" height="24" fill="#b00000" class="highcharts-point"></rect><rect x="70" y="16" width="7" height="24" fill="#b00000" class="highcharts-point"></rect><rect x="78" y="16" width="7" height="24" fill="#b00000" class="highcharts-point"></rect></g><g data-z-index="0.1" class="highcharts-markers highcharts-series-0 highcharts-column-series " transform="translate(56,7) scale(1 1)" clip-path="none"></g><g data-z-index="0.1" class="highcharts-series highcharts-series-1 highcharts-column-series " transform="translate(56,7) scale(1 1)" clip-path="url(#highcharts-9qc0cl3-7)"><rect x="1" y="51" width="7" height="19" fill="#ff8028" class="highcharts-point"></rect><rect x="16" y="47" width="7" height="20" fill="#ff8028" class="highcharts-point"></rect><rect x="32" y="44" width="7" height="21" fill="#ff8028" class="highcharts-point"></rect><rect x="39" y="42" width="7" height="22" fill="#ff8028" class="highcharts-point"></rect><rect x="47" y="41" width="7" height="23" fill="#ff8028" class="highcharts-point"></rect><rect x="55" y="40" width="7" height="23" fill="#ff8028" class="highcharts-point"></rect><rect x="63" y="40" width="7" height="24" fill="#ff8028" class="highcharts-point"></rect><rect x="70" y="40" width="7" height="24" fill="#ff8028" class="highcharts-point"></rect><rect x="78" y="40" width="7" height="25" fill="#ff8028" class="highcharts-point"></rect></g><g data-z-index="0.1" class="highcharts-markers highcharts-series-1 highcharts-column-series " transform="translate(56,7) scale(1 1)" clip-path="none"></g><g data-z-index="0.1" class="highcharts-series highcharts-series-2 highcharts-column-series " transform="translate(56,7) scale(1 1)" clip-path="url(#highcharts-9qc0cl3-7)"><rect x="1" y="70" width="7" height="14" fill="#ffbb58" class="highcharts-point"></rect><rect x="16" y="67" width="7" height="14" fill="#ffbb58" class="highcharts-point"></rect><rect x="32" y="65" width="7" height="14" fill="#ffbb58" class="highcharts-point"></rect><rect x="39" y="64" width="7" height="14" fill="#ffbb58" class="highcharts-point"></rect><rect x="47" y="64" width="7" height="14" fill="#ffbb58" class="highcharts-point"></rect><rect x="55" y="63" width="7" height="15" fill="#ffbb58" class="highcharts-point"></rect><rect x="63" y="64" width="7" height="15" fill="#ffbb58" class="highcharts-point"></rect><rect x="70" y="64" width="7" height="16" fill="#ffbb58" class="highcharts-point"></rect><rect x="78" y="65" width="7" height="15" fill="#ffbb58" class="highcharts-point"></rect></g><g data-z-index="0.1" class="highcharts-markers highcharts-series-2 highcharts-column-series " transform="translate(56,7) scale(1 1)" clip-path="none"></g><g data-z-index="0.1" class="highcharts-series highcharts-series-3 highcharts-column-series " transform="translate(56,7) scale(1 1)" clip-path="url(#highcharts-9qc0cl3-7)"><rect x="1" y="84" width="7" height="24" fill="#71a3b5" class="highcharts-point"></rect><rect x="16" y="81" width="7" height="26" fill="#71a3b5" class="highcharts-point"></rect><rect x="32" y="79" width="7" height="27" fill="#71a3b5" class="highcharts-point"></rect><rect x="39" y="78" width="7" height="28" fill="#71a3b5" class="highcharts-point"></rect><rect x="47" y="78" width="7" height="29" fill="#71a3b5" class="highcharts-point"></rect><rect x="55" y="78" width="7" height="30" fill="#71a3b5" class="highcharts-point"></rect><rect x="63" y="79" width="7" height="29" fill="#71a3b5" class="highcharts-point"></rect><rect x="70" y="80" width="7" height="29" fill="#71a3b5" class="highcharts-point"></rect><rect x="78" y="80" width="7" height="31" fill="#71a3b5" class="highcharts-point"></rect></g><g data-z-index="0.1" class="highcharts-markers highcharts-series-3 highcharts-column-series " transform="translate(56,7) scale(1 1)" clip-path="none"></g><g data-z-index="0.1" class="highcharts-series highcharts-series-4 highcharts-column-series " transform="translate(56,7) scale(1 1)" clip-path="url(#highcharts-9qc0cl3-7)"><rect x="1" y="108" width="7" height="9" fill="#b9cfd7" class="highcharts-point"></rect><rect x="16" y="107" width="7" height="9" fill="#b9cfd7" class="highcharts-point"></rect><rect x="32" y="106" width="7" height="10" fill="#b9cfd7" class="highcharts-point"></rect><rect x="39" y="106" width="7" height="10" fill="#b9cfd7" class="highcharts-point"></rect><rect x="47" y="107" width="7" height="10" fill="#b9cfd7" class="highcharts-point"></rect><rect x="55" y="108" width="7" height="9" fill="#b9cfd7" class="highcharts-point"></rect><rect x="63" y="108" width="7" height="10" fill="#b9cfd7" class="highcharts-point"></rect><rect x="70" y="109" width="7" height="9" fill="#b9cfd7" class="highcharts-point"></rect><rect x="78" y="111" width="7" height="8" fill="#b9cfd7" class="highcharts-point"></rect></g><g data-z-index="0.1" class="highcharts-markers highcharts-series-4 highcharts-column-series " transform="translate(56,7) scale(1 1)" clip-path="none"></g><g data-z-index="0.1" class="highcharts-series highcharts-series-5 highcharts-column-series " transform="translate(56,7) scale(1 1)" clip-path="url(#highcharts-9qc0cl3-7)"><rect x="1" y="117" width="7" height="25" fill="#d7e9d2" class="highcharts-point"></rect><rect x="16" y="116" width="7" height="26" fill="#d7e9d2" class="highcharts-point"></rect><rect x="32" y="116" width="7" height="24" fill="#d7e9d2" class="highcharts-point"></rect><rect x="39" y="116" width="7" height="24" fill="#d7e9d2" class="highcharts-point"></rect><rect x="47" y="117" width="7" height="23" fill="#d7e9d2" class="highcharts-point"></rect><rect x="55" y="117" width="7" height="23" fill="#d7e9d2" class="highcharts-point"></rect><rect x="63" y="118" width="7" height="21" fill="#d7e9d2" class="highcharts-point"></rect><rect x="70" y="118" width="7" height="21" fill="#d7e9d2" class="highcharts-point"></rect><rect x="78" y="119" width="7" height="21" fill="#d7e9d2" class="highcharts-point"></rect></g><g data-z-index="0.1" class="highcharts-markers highcharts-series-5 highcharts-column-series " transform="translate(56,7) scale(1 1)" clip-path="none"></g><g data-z-index="0.1" class="highcharts-series highcharts-series-6 highcharts-column-series " transform="translate(56,7) scale(1 1)" clip-path="url(#highcharts-9qc0cl3-7)"><rect x="1" y="142" width="7" height="8" fill="#73ba7c" class="highcharts-point"></rect><rect x="16" y="142" width="7" height="7" fill="#73ba7c" class="highcharts-point"></rect><rect x="32" y="140" width="7" height="7" fill="#73ba7c" class="highcharts-point"></rect><rect x="39" y="140" width="7" height="7" fill="#73ba7c" class="highcharts-point"></rect><rect x="47" y="140" width="7" height="8" fill="#73ba7c" class="highcharts-point"></rect><rect x="55" y="140" width="7" height="7" fill="#73ba7c" class="highcharts-point"></rect><rect x="63" y="139" width="7" height="8" fill="#73ba7c" class="highcharts-point"></rect><rect x="70" y="139" width="7" height="8" fill="#73ba7c" class="highcharts-point"></rect><rect x="78" y="140" width="7" height="7" fill="#73ba7c" class="highcharts-point"></rect></g><g data-z-index="0.1" class="highcharts-markers highcharts-series-6 highcharts-column-series " transform="translate(56,7) scale(1 1)" clip-path="none"></g><g data-z-index="0.1" class="highcharts-series highcharts-series-7 highcharts-column-series " transform="translate(56,7) scale(1 1)" clip-path="url(#highcharts-9qc0cl3-7)"><rect x="1" y="150" width="7" height="9" fill="#44ab2b" class="highcharts-point"></rect><rect x="16" y="149" width="7" height="8" fill="#44ab2b" class="highcharts-point"></rect><rect x="32" y="147" width="7" height="9" fill="#44ab2b" class="highcharts-point"></rect><rect x="39" y="147" width="7" height="8" fill="#44ab2b" class="highcharts-point"></rect><rect x="47" y="148" width="7" height="7" fill="#44ab2b" class="highcharts-point"></rect><rect x="55" y="147" width="7" height="7" fill="#44ab2b" class="highcharts-point"></rect><rect x="63" y="147" width="7" height="7" fill="#44ab2b" class="highcharts-point"></rect><rect x="70" y="147" width="7" height="7" fill="#44ab2b" class="highcharts-point"></rect><rect x="78" y="147" width="7" height="7" fill="#44ab2b" class="highcharts-point"></rect></g><g data-z-index="0.1" class="highcharts-markers highcharts-series-7 highcharts-column-series " transform="translate(56,7) scale(1 1)" clip-path="none"></g><g data-z-index="0.1" class="highcharts-series highcharts-series-8 highcharts-column-series " transform="translate(56,7) scale(1 1)" clip-path="url(#highcharts-9qc0cl3-7)"><rect x="1" y="159" width="7" height="10" fill="#007a2f" class="highcharts-point"></rect><rect x="16" y="157" width="7" height="12" fill="#007a2f" class="highcharts-point"></rect><rect x="32" y="156" width="7" height="13" fill="#007a2f" class="highcharts-point"></rect><rect x="39" y="155" width="7" height="14" fill="#007a2f" class="highcharts-point"></rect><rect x="47" y="155" width="7" height="14" fill="#007a2f" class="highcharts-point"></rect><rect x="55" y="154" width="7" height="15" fill="#007a2f" class="highcharts-point"></rect><rect x="63" y="154" width="7" height="15" fill="#007a2f" class="highcharts-point"></rect><rect x="70" y="154" width="7" height="15" fill="#007a2f" class="highcharts-point"></rect><rect x="78" y="154" width="7" height="15" fill="#007a2f" class="highcharts-point"></rect></g><g data-z-index="0.1" class="highcharts-markers highcharts-series-8 highcharts-column-series " transform="translate(56,7) scale(1 1)" clip-path="none"></g></g><text x="2" text-anchor="start" class="highcharts-title" data-z-index="4" style="color:#000000;font-size:10px;font-weight:bold;fill:#000000;" y="9"><tspan>Anzahl Beschäftigte nach Branche</tspan></text><text x="2" text-anchor="start" class="highcharts-subtitle" data-z-index="4" style="color:#000000;font-size:10px;font-weight:normal;font-family:Arial;fill:#000000;" y="26"><tspan>Basel-Stadt</tspan></text><g class="highcharts-legend" data-z-index="7" transform="translate(153,27)"><rect fill="none" class="highcharts-legend-box" rx="0" ry="0" x="0" y="0" width="165" height="157" visibility="visible"></rect><g data-z-index="1"><g><g class="highcharts-legend-item highcharts-column-series highcharts-color-undefined highcharts-series-0" data-z-index="1" transform="translate(0,-5)"><text x="21" style="color:#333333;font-size:10px;font-weight:normal;cursor:pointer;fill:#333333;" text-anchor="start" data-z-index="2" y="13"><tspan>Übrige Branchen</tspan></text><rect x="3" y="4" width="10" height="10" fill="#b00000" class="highcharts-point" data-z-index="3"></rect></g><g class="highcharts-legend-item highcharts-column-series highcharts-color-undefined highcharts-series-1" data-z-index="1" transform="translate(0,13)"><text x="21" y="13" style="color:#333333;font-size:10px;font-weight:normal;cursor:pointer;fill:#333333;" text-anchor="start" data-z-index="2"><tspan>Gesundheits- und Sozialwesen</tspan></text><rect x="3" y="4" width="10" height="10" fill="#ff8028" class="highcharts-point" data-z-index="3"></rect></g><g class="highcharts-legend-item highcharts-column-series highcharts-color-undefined highcharts-series-2" data-z-index="1" transform="translate(0,31)"><text x="21" y="13" style="color:#333333;font-size:10px;font-weight:normal;cursor:pointer;fill:#333333;" text-anchor="start" data-z-index="2"><tspan>Öff. Verwaltung und Bildung</tspan></text><rect x="3" y="4" width="10" height="10" fill="#ffbb58" class="highcharts-point" data-z-index="3"></rect></g><g class="highcharts-legend-item highcharts-column-series highcharts-color-undefined highcharts-series-3" data-z-index="1" transform="translate(0,49)"><text x="21" y="13" style="color:#333333;font-size:10px;font-weight:normal;cursor:pointer;fill:#333333;" text-anchor="start" data-z-index="2"><tspan>Unternehmens-DL, Freiberufe</tspan></text><rect x="3" y="4" width="10" height="10" fill="#71a3b5" class="highcharts-point" data-z-index="3"></rect></g><g class="highcharts-legend-item highcharts-column-series highcharts-color-undefined highcharts-series-4" data-z-index="1" transform="translate(0,67)"><text x="21" y="13" style="color:#333333;font-size:10px;font-weight:normal;cursor:pointer;fill:#333333;" text-anchor="start" data-z-index="2"><tspan>Finanzen, Versicherung</tspan></text><rect x="3" y="4" width="10" height="10" fill="#b9cfd7" class="highcharts-point" data-z-index="3"></rect></g><g class="highcharts-legend-item highcharts-column-series highcharts-color-undefined highcharts-series-5" data-z-index="1" transform="translate(0,85)"><text x="21" y="13" style="color:#333333;font-size:10px;font-weight:normal;cursor:pointer;fill:#333333;" text-anchor="start" data-z-index="2"><tspan>Handel und Verkehr</tspan></text><rect x="3" y="4" width="10" height="10" fill="#d7e9d2" class="highcharts-point" data-z-index="3"></rect></g><g class="highcharts-legend-item highcharts-column-series highcharts-color-undefined highcharts-series-6" data-z-index="1" transform="translate(0,103)"><text x="21" y="13" style="color:#333333;font-size:10px;font-weight:normal;cursor:pointer;fill:#333333;" text-anchor="start" data-z-index="2"><tspan>Bau, Energie, Wasser</tspan></text><rect x="3" y="4" width="10" height="10" fill="#73ba7c" class="highcharts-point" data-z-index="3"></rect></g><g class="highcharts-legend-item highcharts-column-series highcharts-color-undefined highcharts-series-7" data-z-index="1" transform="translate(0,121)"><text x="21" y="13" style="color:#333333;font-size:10px;font-weight:normal;cursor:pointer;fill:#333333;" text-anchor="start" data-z-index="2"><tspan>Übriges verarbeit. Gewerbe</tspan></text><rect x="3" y="4" width="10" height="10" fill="#44ab2b" class="highcharts-point" data-z-index="3"></rect></g><g class="highcharts-legend-item highcharts-column-series highcharts-color-undefined highcharts-series-8" data-z-index="1" transform="translate(0,139)"><text x="21" y="13" style="color:#333333;font-size:10px;font-weight:normal;cursor:pointer;fill:#333333;" text-anchor="start" data-z-index="2"><tspan>Pharmaindustrie</tspan></text><rect x="3" y="4" width="10" height="10" fill="#007a2f" class="highcharts-point" data-z-index="3"></rect></g></g></g></g><g class="highcharts-axis-labels highcharts-xaxis-labels " data-z-index="7"><text x="62.220658967591795" style="color:#000000;cursor:default;font-size:10px;fill:#000000;" text-anchor="end" transform="translate(0,0) rotate(-45 62.220658967591795 190)" y="190" opacity="1">2005</text><text x="69.9479316948638" style="color:#000000;cursor:default;font-size:10px;fill:#000000;" text-anchor="end" transform="translate(0,0) rotate(-45 69.9479316948638 190)" y="190" opacity="1"></text><text x="77.6752044221368" style="color:#000000;cursor:default;font-size:10px;fill:#000000;" text-anchor="end" transform="translate(0,0) rotate(-45 77.6752044221368 190)" y="190" opacity="1">2008</text><text x="85.4024771494098" style="color:#000000;cursor:default;font-size:10px;fill:#000000;" text-anchor="end" transform="translate(0,0) rotate(-45 85.4024771494098 190)" y="190" opacity="1"></text><text x="93.1297498766828" style="color:#000000;cursor:default;font-size:10px;fill:#000000;" text-anchor="end" transform="translate(0,0) rotate(-45 93.1297498766828 190)" y="190" opacity="1">2011</text><text x="100.8570226039588" style="color:#000000;cursor:default;font-size:10px;fill:#000000;" text-anchor="end" transform="translate(0,0) rotate(-45 100.8570226039588 190)" y="190" opacity="1">2012</text><text x="108.5842953312288" style="color:#000000;cursor:default;font-size:10px;fill:#000000;" text-anchor="end" transform="translate(0,0) rotate(-45 108.5842953312288 190)" y="190" opacity="1">2013</text><text x="116.31156805849879" style="color:#000000;cursor:default;font-size:10px;fill:#000000;" text-anchor="end" transform="translate(0,0) rotate(-45 116.31156805849879 190)" y="190" opacity="1">2014</text><text x="124.0388407857688" style="color:#000000;cursor:default;font-size:10px;fill:#000000;" text-anchor="end" transform="translate(0,0) rotate(-45 124.0388407857688 190)" y="190" opacity="1">2015</text><text x="131.7661135130488" style="color:#000000;cursor:default;font-size:10px;fill:#000000;" text-anchor="end" transform="translate(0,0) rotate(-45 131.7661135130488 190)" y="190" opacity="1">2016</text><text x="139.49338624031878" style="color:#000000;cursor:default;font-size:10px;fill:#000000;" text-anchor="end" transform="translate(0,0) rotate(-45 139.49338624031878 190)" y="190" opacity="1">2017</text></g><g class="highcharts-axis-labels highcharts-yaxis-labels " data-z-index="7"><text x="41" style="color:#000000;cursor:default;font-size:10px;fill:#000000;" text-anchor="end" transform="translate(0,0)" y="178" opacity="1">0</text><text x="41" style="color:#000000;cursor:default;font-size:10px;fill:#000000;" text-anchor="end" transform="translate(0,0)" y="154" opacity="1"><tspan>30 000</tspan></text><text x="41" style="color:#000000;cursor:default;font-size:10px;fill:#000000;" text-anchor="end" transform="translate(0,0)" y="130" opacity="1"><tspan>60 000</tspan></text><text x="41" style="color:#000000;cursor:default;font-size:10px;fill:#000000;" text-anchor="end" transform="translate(0,0)" y="106" opacity="1"><tspan>90 000</tspan></text><text x="41" style="color:#000000;cursor:default;font-size:10px;fill:#000000;" text-anchor="end" transform="translate(0,0)" y="82" opacity="1"><tspan>120 000</tspan></text><text x="41" style="color:#000000;cursor:default;font-size:10px;fill:#000000;" text-anchor="end" transform="translate(0,0)" y="58" opacity="1"><tspan>150 000</tspan></text><text x="41" style="color:#000000;cursor:default;font-size:10px;fill:#000000;" text-anchor="end" transform="translate(0,0)" y="34" opacity="1"><tspan>180 000</tspan></text><text x="41" style="color:#000000;cursor:default;font-size:10px;fill:#000000;" text-anchor="end" transform="translate(0,0)" y="10" opacity="1"><tspan>210 000</tspan></text></g><text x="10" class="highcharts-credits" text-anchor="start" data-z-index="8" style="cursor:default;color:#000000;font-size:10;fill:#000000;" y="196"><tspan>Quelle: Bundesamt für Statistik (BFS), Statistik der Unternehmensstruktur (STATENT).</tspan><tspan x="10" dy="15">Zuletzt geändert: 2020-3-18</tspan></text></svg>