<?xml version="1.0" standalone="no"?><!DOCTYPE svg PUBLIC "-//W3C//DTD SVG 1.1//EN" "http://www.w3.org/Graphics/SVG/1.1/DTD/svg11.dtd"><svg xmlns:xlink="http://www.w3.org/1999/xlink" version="1.1" class="highcharts-root" style="font-family:Arial;font-size:12px;" xmlns="http://www.w3.org/2000/svg" viewBox="0 0 485 415"><desc>Created with Highcharts 8.1.2</desc><defs><clipPath id="highcharts-cncx8pn-567-"><rect x="0" y="0" width="380" height="184" fill="none"></rect></clipPath><clipPath id="highcharts-cncx8pn-754-"><rect x="0" y="0" width="380" height="184" fill="none"></rect></clipPath><clipPath id="highcharts-cncx8pn-1127-"><rect x="0" y="0" width="380" height="184" fill="none"></rect></clipPath><clipPath id="highcharts-cncx8pn-1128-"><rect x="56" y="152" width="380" height="184" fill="none"></rect></clipPath></defs><rect fill="#fbfbfb" class="highcharts-background" x="0" y="0" width="485" height="428" rx="0" ry="0"></rect><rect fill="none" class="highcharts-plot-background" x="56" y="152" width="380" height="184"></rect><g class="highcharts-pane-group" data-z-index="0"></g><g class="highcharts-grid highcharts-xaxis-grid" data-z-index="1"><path fill="none" data-z-index="1" class="highcharts-grid-line" d="M 56.5 152 L 56.5 336" opacity="1"></path><path fill="none" data-z-index="1" class="highcharts-grid-line" d="M 81.5 152 L 81.5 336" opacity="1"></path><path fill="none" data-z-index="1" class="highcharts-grid-line" d="M 105.5 152 L 105.5 336" opacity="1"></path><path fill="none" data-z-index="1" class="highcharts-grid-line" d="M 130.5 152 L 130.5 336" opacity="1"></path><path fill="none" data-z-index="1" class="highcharts-grid-line" d="M 154.5 152 L 154.5 336" opacity="1"></path><path fill="none" data-z-index="1" class="highcharts-grid-line" d="M 179.5 152 L 179.5 336" opacity="1"></path><path fill="none" data-z-index="1" class="highcharts-grid-line" d="M 203.5 152 L 203.5 336" opacity="1"></path><path fill="none" data-z-index="1" class="highcharts-grid-line" d="M 228.5 152 L 228.5 336" opacity="1"></path><path fill="none" data-z-index="1" class="highcharts-grid-line" d="M 252.5 152 L 252.5 336" opacity="1"></path><path fill="none" data-z-index="1" class="highcharts-grid-line" d="M 277.5 152 L 277.5 336" opacity="1"></path><path fill="none" data-z-index="1" class="highcharts-grid-line" d="M 301.5 152 L 301.5 336" opacity="1"></path><path fill="none" data-z-index="1" class="highcharts-grid-line" d="M 326.5 152 L 326.5 336" opacity="1"></path><path fill="none" data-z-index="1" class="highcharts-grid-line" d="M 350.5 152 L 350.5 336" opacity="1"></path><path fill="none" data-z-index="1" class="highcharts-grid-line" d="M 375.5 152 L 375.5 336" opacity="1"></path><path fill="none" data-z-index="1" class="highcharts-grid-line" d="M 399.5 152 L 399.5 336" opacity="1"></path><path fill="none" data-z-index="1" class="highcharts-grid-line" d="M 424.5 152 L 424.5 336" opacity="1"></path></g><g class="highcharts-grid highcharts-yaxis-grid" data-z-index="1"><path fill="none" stroke="#e6e6e6" stroke-width="1" data-z-index="1" class="highcharts-grid-line" d="M 56 336.5 L 436 336.5" opacity="1"></path><path fill="none" stroke="#e6e6e6" stroke-width="1" data-z-index="1" class="highcharts-grid-line" d="M 56 310.5 L 436 310.5" opacity="1"></path><path fill="none" stroke="#e6e6e6" stroke-width="1" data-z-index="1" class="highcharts-grid-line" d="M 56 283.5 L 436 283.5" opacity="1"></path><path fill="none" stroke="#e6e6e6" stroke-width="1" data-z-index="1" class="highcharts-grid-line" d="M 56 257.5 L 436 257.5" opacity="1"></path><path fill="none" stroke="#e6e6e6" stroke-width="1" data-z-index="1" class="highcharts-grid-line" d="M 56 231.5 L 436 231.5" opacity="1"></path><path fill="none" stroke="#e6e6e6" stroke-width="1" data-z-index="1" class="highcharts-grid-line" d="M 56 205.5 L 436 205.5" opacity="1"></path><path fill="none" stroke="#e6e6e6" stroke-width="1" data-z-index="1" class="highcharts-grid-line" d="M 56 178.5 L 436 178.5" opacity="1"></path><path fill="none" stroke="#e6e6e6" stroke-width="1" data-z-index="1" class="highcharts-grid-line" d="M 56 151.5 L 436 151.5" opacity="1"></path></g><g class="highcharts-grid highcharts-yaxis-grid" data-z-index="1"><path fill="none" data-z-index="1" class="highcharts-grid-line" d="M 56 336.5 L 436 336.5" opacity="1"></path><path fill="none" data-z-index="1" class="highcharts-grid-line" d="M 56 310.5 L 436 310.5" opacity="1"></path><path fill="none" data-z-index="1" class="highcharts-grid-line" d="M 56 283.5 L 436 283.5" opacity="1"></path><path fill="none" data-z-index="1" class="highcharts-grid-line" d="M 56 257.5 L 436 257.5" opacity="1"></path><path fill="none" data-z-index="1" class="highcharts-grid-line" d="M 56 231.5 L 436 231.5" opacity="1"></path><path fill="none" data-z-index="1" class="highcharts-grid-line" d="M 56 205.5 L 436 205.5" opacity="1"></path><path fill="none" data-z-index="1" class="highcharts-grid-line" d="M 56 178.5 L 436 178.5" opacity="1"></path><path fill="none" data-z-index="1" class="highcharts-grid-line" d="M 56 152.5 L 436 152.5" opacity="1"></path></g><rect fill="none" class="highcharts-plot-border" data-z-index="1" x="56" y="152" width="380" height="184"></rect><g class="highcharts-axis highcharts-xaxis" data-z-index="2"><path fill="none" class="highcharts-axis-line" stroke="#B9CFD7" stroke-width="0.5" data-z-index="7" d="M 56 336.25 L 436 336.25"></path></g><g class="highcharts-axis highcharts-yaxis" data-z-index="2"><path fill="none" class="highcharts-axis-line" data-z-index="7" d="M 56 152 L 56 336"></path></g><g class="highcharts-axis highcharts-yaxis" data-z-index="2"><path fill="none" class="highcharts-axis-line" data-z-index="7" d="M 436 152 L 436 336"></path></g><g class="highcharts-series-group" data-z-index="3"><g class="highcharts-series highcharts-series-0 highcharts-line-series" data-z-index="0.1" opacity="1" transform="translate(56,152) scale(1 1)" clip-path="url(#highcharts-cncx8pn-754-)"><path fill="none" d="M 1.0215053763441 39.39571428571429 L 3.0645161290323 40.90714285714287 L 5.1075268817204 48.792857142857144 L 7.1505376344086 52.670000000000016 L 9.1935483870968 56.64571428571429 L 11.236559139785 56.842857142857156 L 13.279569892473 56.44857142857144 L 15.322580645161 59.66857142857144 L 17.365591397849 58.19000000000001 L 19.408602150538 60.292857142857144 L 21.451612903226 58.91285714285715 L 23.494623655914 53.360000000000014 L 25.537634408602 52.670000000000016 L 27.58064516129 50.140000000000015 L 29.623655913978 53.59 L 31.666666666667 59.86571428571429 L 33.709677419355 66.20714285714287 L 35.752688172043 69.9857142857143 L 37.795698924731 68.3757142857143 L 39.838709677419 69.13142857142857 L 41.881720430108 70.28142857142858 L 43.924731182796 71.49714285714286 L 45.967741935484 70.28142857142858 L 48.010752688172 67.39 L 50.05376344086 64.43285714285715 L 52.096774193548 67.32428571428572 L 54.139784946237 71.66142857142857 L 56.182795698925 75.47285714285715 L 58.225806451613 78.9557142857143 L 60.268817204301 80.63142857142857 L 62.311827956989 82.07714285714286 L 64.354838709677 84.64 L 66.397849462366 90.09428571428572 L 68.440860215054 89.83142857142857 L 70.483870967742 88.28714285714287 L 72.52688172043 86.3157142857143 L 74.569892473118 82.99714285714286 L 76.612903225806 83.58857142857143 L 78.655913978495 88.1557142857143 L 80.698924731183 92.62428571428572 L 82.741935483871 93.34714285714286 L 84.784946236559 92.13142857142857 L 86.827956989247 91.21142857142857 L 88.870967741935 92.78857142857143 L 90.913978494624 90.68571428571428 L 92.956989247312 88.28714285714287 L 95 82.96428571428572 L 97.043010752688 74.42142857142858 L 99.086021505376 72.22 L 101.12903225806 71.79285714285714 L 103.17204301075 68.73714285714286 L 105.21505376344 69.49285714285715 L 107.25806451613 69.13142857142857 L 109.30107526882 64.76142857142858 L 111.34408602151 61.44285714285715 L 113.38709677419 62.72428571428571 L 115.43010752688 58.321428571428584 L 117.47311827957 52.83428571428573 L 119.51612903226 50.86285714285714 L 121.55913978495 41.99142857142857 L 123.60215053763 38.90285714285716 L 125.64516129032 43.37142857142857 L 127.68817204301 47.87285714285716 L 129.7311827957 52.965714285714284 L 131.77419354839 56.61285714285715 L 133.81720430108 61.31142857142858 L 135.86021505376 60.85142857142857 L 137.90322580645 59.57000000000001 L 139.94623655914 59.89857142857143 L 141.98924731183 61.77142857142857 L 144.03225806452 61.47571428571429 L 146.0752688172 54.97 L 148.11827956989 51.717142857142875 L 150.16129032258 55.101428571428585 L 152.20430107527 58.12428571428572 L 154.24731182796 74.02714285714286 L 156.29032258065 77.11571428571429 L 158.33333333333 79.21857142857144 L 160.37634408602 78.89 L 162.41935483871 78.13428571428572 L 164.4623655914 77.24714285714286 L 166.50537634409 77.31285714285715 L 168.54838709677 75.93285714285715 L 170.59139784946 71.03714285714287 L 172.63440860215 65.74714285714286 L 174.67741935484 64.86 L 176.72043010753 68.14571428571429 L 178.76344086022 70.18285714285715 L 180.8064516129 71.5957142857143 L 182.84946236559 77.67428571428572 L 184.89247311828 77.93714285714286 L 186.93548387097 77.57571428571428 L 188.97849462366 75.34142857142858 L 191.02150537634 72.25285714285715 L 193.06451612903 70.05142857142857 L 195.10752688172 62.36285714285715 L 197.15053763441 57.40142857142858 L 199.1935483871 59.471428571428575 L 201.23655913978 62.855714285714285 L 203.27956989247 67.85000000000001 L 205.32258064516 72.61428571428571 L 207.36559139785 76.32714285714286 L 209.40860215054 74.88142857142857 L 211.45161290323 75.07857142857144 L 213.49462365591 73.99428571428572 L 215.5376344086 73.2057142857143 L 217.58064516129 70.24857142857144 L 219.62365591398 62.625714285714295 L 221.66666666667 61.96857142857144 L 223.70967741935 64.26857142857143 L 225.75268817204 67.32428571428572 L 227.79569892473 72.08857142857143 L 229.83870967742 78.66000000000001 L 231.88172043011 82.47142857142858 L 233.9247311828 81.91285714285715 L 235.96774193548 81.94571428571429 L 238.01075268817 79.74428571428572 L 240.05376344086 77.31285714285715 L 242.09677419355 71.13571428571429 L 244.13978494624 63.447142857142865 L 246.18279569892 57.40142857142858 L 248.22580645161 60.260000000000005 L 250.2688172043 61.34428571428572 L 252.31182795699 65.02428571428572 L 254.35483870968 68.40857142857143 L 256.39784946237 70.15 L 258.44086021505 73.2057142857143 L 260.48387096774 70.38000000000001 L 262.52688172043 65.94428571428573 L 264.56989247312 65.68142857142858 L 266.61290322581 63.15142857142858 L 268.65591397849 59.76714285714286 L 270.69892473118 54.312857142857155 L 272.74193548387 50.534285714285716 L 274.78494623656 54.707142857142856 L 276.82795698925 53.09714285714287 L 278.87096774194 57.30285714285715 L 280.91397849462 61.70571428571429 L 282.95698924731 65.74714285714286 L 285 63.578571428571436 L 287.04301075269 64.10428571428572 L 289.08602150538 63.18428571428572 L 291.12903225806 57.23714285714286 L 293.17204301075 51.52000000000001 L 295.21505376344 46.62428571428572 L 297.25806451613 50.10714285714286 L 299.30107526882 52.83428571428573 L 301.34408602151 57.072857142857146 L 303.38709677419 64.00571428571429 L 305.43010752688 66.33857142857143 L 307.47311827957 68.54 L 309.51612903226 64.86 L 311.55913978495 70.47857142857143 L 313.60215053763 68.60571428571428 L 315.64516129032 67.55428571428573 L 317.68817204301 61.902857142857144 L 319.7311827957 59.471428571428575 L 321.77419354839 63.97285714285715 L 323.81720430108 65.28714285714287 L 325.86021505376 70.80714285714286 L 327.90322580645 74.78285714285715 L 329.94623655914 78.36428571428571 L 331.98924731183 78.82428571428572 L 334.03225806452 79.05428571428573 L 336.0752688172 81.22285714285715 L 338.11827956989 81.12428571428572 L 340.16129032258 78.49571428571429 L 342.20430107527 71.10285714285715 L 344.24731182796 66.96285714285715 L 346.29032258065 72.87714285714286 L 348.33333333333 75.11142857142858 L 350.37634408602 80.30285714285715 L 352.41935483871 85.00142857142858 L 354.4623655914 88.64857142857143 L 356.50537634409 89.73285714285714 L 358.54838709677 89.7657142857143 L 360.59139784946 92.9857142857143 L 362.63440860215 90.71857142857144 L 364.67741935484 84.67285714285715 L 366.72043010753 77.11571428571429 L 368.76344086022 74.09285714285714 L 370.8064516129 75.83428571428571 L 372.84946236559 64.07142857142858 L 374.89247311828 53.42571428571429 L 376.93548387097 48.8257142857143 L 378.97849462366 47.24857142857144" class="highcharts-graph" data-z-index="1" stroke="#B00000" stroke-width="2" stroke-linejoin="round" stroke-linecap="round"></path></g><g class="highcharts-markers highcharts-series-0 highcharts-line-series" data-z-index="0.1" opacity="1" transform="translate(56,152) scale(1 1)" clip-path="none"></g><g class="highcharts-series highcharts-series-1 highcharts-line-series" data-z-index="0.1" opacity="1" transform="translate(56,152) scale(1 1)" clip-path="url(#highcharts-cncx8pn-754-)"><path fill="none" d="M 1.0215053763441 157.81285714285715 L 3.0645161290323 158.79857142857142 L 5.1075268817204 158.96285714285713 L 7.1505376344086 159.85 L 9.1935483870968 160.21142857142857 L 11.236559139785 159.68571428571428 L 13.279569892473 159.75142857142856 L 15.322580645161 159.62 L 17.365591397849 159.78428571428572 L 19.408602150538 159.58714285714285 L 21.451612903226 159.75142857142856 L 23.494623655914 160.24428571428572 L 25.537634408602 161.62428571428572 L 27.58064516129 161.42714285714285 L 29.623655913978 162.05142857142857 L 31.666666666667 162.51142857142858 L 33.709677419355 162.5442857142857 L 35.752688172043 161.69 L 37.795698924731 161.42714285714285 L 39.838709677419 161.13142857142856 L 41.881720430108 161.42714285714285 L 43.924731182796 162.15 L 45.967741935484 162.31428571428572 L 48.010752688172 161.49285714285713 L 50.05376344086 161.59142857142857 L 52.096774193548 162.01857142857142 L 54.139784946237 162.80714285714285 L 56.182795698925 164.5157142857143 L 58.225806451613 164.87714285714287 L 60.268817204301 163.79285714285714 L 62.311827956989 163.9242857142857 L 64.354838709677 164.28571428571428 L 66.397849462366 165.37 L 68.440860215054 165.99428571428572 L 70.483870967742 166.06 L 72.52688172043 165.86285714285714 L 74.569892473118 165.23857142857142 L 76.612903225806 165.79714285714286 L 78.655913978495 166.4542857142857 L 80.698924731183 167.57142857142858 L 82.741935483871 168.19571428571427 L 84.784946236559 168.32714285714286 L 86.827956989247 168.26142857142858 L 88.870967741935 168.49142857142857 L 90.913978494624 168.85285714285715 L 92.956989247312 168.82 L 95 169.28 L 97.043010752688 168.91857142857143 L 99.086021505376 168.03142857142856 L 101.12903225806 168.78714285714287 L 103.17204301075 168.72142857142856 L 105.21505376344 168.52428571428572 L 107.25806451613 168.39285714285714 L 109.30107526882 167.14428571428573 L 111.34408602151 166.32285714285715 L 113.38709677419 166.02714285714285 L 115.43010752688 165.14 L 117.47311827957 164.41714285714286 L 119.51612903226 162.80714285714285 L 121.55913978495 160.90142857142857 L 123.60215053763 159.91571428571427 L 125.64516129032 158.8642857142857 L 127.68817204301 157.3857142857143 L 129.7311827957 156.72857142857143 L 131.77419354839 155.51285714285714 L 133.81720430108 154.46142857142857 L 135.86021505376 154.36285714285714 L 137.90322580645 154.06714285714287 L 139.94623655914 154.16571428571427 L 141.98924731183 155.87428571428572 L 144.03225806452 155.80857142857144 L 146.0752688172 156.26857142857142 L 148.11827956989 156.6957142857143 L 150.16129032258 157.55 L 152.20430107527 158.56857142857143 L 154.24731182796 164.22 L 156.29032258065 165.43571428571428 L 158.33333333333 165.63285714285715 L 160.37634408602 166.02714285714285 L 162.41935483871 165.6 L 164.4623655914 166.29 L 166.50537634409 166.71714285714285 L 168.54838709677 166.84857142857143 L 170.59139784946 167.07857142857142 L 172.63440860215 166.71714285714285 L 174.67741935484 165.43571428571428 L 176.72043010753 165.73142857142858 L 178.76344086022 166.15857142857143 L 180.8064516129 165.6 L 182.84946236559 165.50142857142856 L 184.89247311828 165.50142857142856 L 186.93548387097 165.2057142857143 L 188.97849462366 165.27142857142857 L 191.02150537634 164.74571428571429 L 193.06451612903 164.45 L 195.10752688172 163.10285714285715 L 197.15053763441 162.64285714285714 L 199.1935483871 164.25285714285715 L 201.23655913978 164.28571428571428 L 203.27956989247 164.3842857142857 L 205.32258064516 164.12142857142857 L 207.36559139785 163.79285714285714 L 209.40860215054 163.85857142857142 L 211.45161290323 165.0742857142857 L 213.49462365591 164.48285714285714 L 215.5376344086 163.6614285714286 L 217.58064516129 163.3657142857143 L 219.62365591398 163.07 L 221.66666666667 162.84 L 223.70967741935 163.39857142857142 L 225.75268817204 163.62857142857143 L 227.79569892473 164.15428571428572 L 229.83870967742 164.91 L 231.88172043011 164.81142857142856 L 233.9247311828 165.53428571428572 L 235.96774193548 165.73142857142858 L 238.01075268817 164.97571428571428 L 240.05376344086 164.84428571428572 L 242.09677419355 165.33714285714285 L 244.13978494624 164.68 L 246.18279569892 163.89142857142858 L 248.22580645161 163.59571428571428 L 250.2688172043 164.58142857142857 L 252.31182795699 164.54857142857142 L 254.35483870968 163.99 L 256.39784946237 164.02285714285713 L 258.44086021505 164.08857142857144 L 260.48387096774 164.48285714285714 L 262.52688172043 163.49714285714285 L 264.56989247312 163.3 L 266.61290322581 163.33285714285714 L 268.65591397849 162.61 L 270.69892473118 163.1357142857143 L 272.74193548387 162.5442857142857 L 274.78494623656 162.38 L 276.82795698925 162.87285714285713 L 278.87096774194 162.6757142857143 L 280.91397849462 162.80714285714285 L 282.95698924731 162.08428571428573 L 285 162.84 L 287.04301075269 162.08428571428573 L 289.08602150538 161.19714285714286 L 291.12903225806 160.21142857142857 L 293.17204301075 159.85 L 295.21505376344 159.22571428571428 L 297.25806451613 160.31 L 299.30107526882 160.4742857142857 L 301.34408602151 160.90142857142857 L 303.38709677419 161.55857142857144 L 305.43010752688 161.49285714285713 L 307.47311827957 161.92000000000002 L 309.51612903226 162.77428571428572 L 311.55913978495 164.08857142857144 L 313.60215053763 164.0557142857143 L 315.64516129032 164.35142857142858 L 317.68817204301 164.54857142857142 L 319.7311827957 164.35142857142858 L 321.77419354839 164.94285714285715 L 323.81720430108 166.42142857142858 L 325.86021505376 165.73142857142858 L 327.90322580645 166.38857142857142 L 329.94623655914 167.0457142857143 L 331.98924731183 167.07857142857142 L 334.03225806452 167.34142857142857 L 336.0752688172 168.13 L 338.11827956989 168.06428571428572 L 340.16129032258 169.21428571428572 L 342.20430107527 168.75428571428571 L 344.24731182796 168.26142857142858 L 346.29032258065 168.95142857142858 L 348.33333333333 168.2942857142857 L 350.37634408602 169.01714285714286 L 352.41935483871 169.08285714285714 L 354.4623655914 170.1342857142857 L 356.50537634409 170.06857142857143 L 358.54838709677 170.29857142857142 L 360.59139784946 170.9557142857143 L 362.63440860215 171.15285714285716 L 364.67741935484 170.56142857142856 L 366.72043010753 169.83857142857144 L 368.76344086022 169.14857142857142 L 370.8064516129 168.78714285714287 L 372.84946236559 167.30857142857144 L 374.89247311828 165.2057142857143 L 376.93548387097 163.39857142857142 L 378.97849462366 161.55857142857144" class="highcharts-graph" data-z-index="1" stroke="#FF8028" stroke-width="2" stroke-linejoin="round" stroke-linecap="round"></path></g><g class="highcharts-markers highcharts-series-1 highcharts-line-series" data-z-index="0.1" opacity="1" transform="translate(56,152) scale(1 1)" clip-path="none"></g><g class="highcharts-series highcharts-series-2 highcharts-line-series" data-z-index="0.1" opacity="1" transform="translate(56,152) scale(1 1)" clip-path="url(#highcharts-cncx8pn-1127-)"><path fill="none" d="M 1.0215053763441 88.79314285714284 L 3.0645161290323 91.4112 L 5.1075268817204 86.64822857142855 L 7.1505376344086 87.32639999999999 L 9.1935483870968 85.80182857142856 L 11.236559139785 83.47817142857141 L 13.279569892473 84.05645714285713 L 15.322580645161 80.91268571428571 L 17.365591397849 82.81051428571426 L 19.408602150538 80.25554285714286 L 21.451612903226 82.0902857142857 L 23.494623655914 88.40411428571427 L 25.537634408602 94.42879999999998 L 27.58064516129 95.34879999999998 L 29.623655913978 95.5222857142857 L 31.666666666667 92.99359999999999 L 33.709677419355 88.24114285714285 L 35.752688172043 81.12822857142856 L 37.795698924731 81.36479999999999 L 39.838709677419 79.34079999999999 L 41.881720430108 79.64571428571426 L 43.924731182796 81.89577142857141 L 45.967741935484 83.74628571428569 L 48.010752688172 82.5318857142857 L 50.05376344086 85.47588571428571 L 52.096774193548 84.95542857142856 L 54.139784946237 84.82399999999998 L 56.182795698925 89.61851428571428 L 58.225806451613 88.29371428571427 L 60.268817204301 81.22811428571427 L 62.311827956989 80.45005714285713 L 64.354838709677 79.69302857142856 L 66.397849462366 79.70354285714284 L 68.440860215054 83.47817142857141 L 70.483870967742 85.46011428571427 L 72.52688172043 86.39062857142856 L 74.569892473118 86.34857142857142 L 76.612903225806 88.69851428571428 L 78.655913978495 87.76274285714284 L 80.698924731183 89.48182857142855 L 82.741935483871 92.34697142857142 L 84.784946236559 94.31314285714285 L 86.827956989247 94.82834285714284 L 88.870967741935 94.6128 L 90.913978494624 98.66605714285714 L 92.956989247312 100.62171428571428 L 95 107.40868571428571 L 97.043010752688 111.64594285714284 L 99.086021505376 108.89645714285714 L 101.12903225806 112.72365714285714 L 103.17204301075 114.31657142857142 L 105.21505376344 112.94971428571428 L 107.25806451613 112.57119999999999 L 109.30107526882 109.68502857142856 L 111.34408602151 108.17097142857142 L 113.38709677419 106.08914285714285 L 115.43010752688 105.10605714285713 L 117.47311827957 105.51085714285713 L 119.51612903226 100.3168 L 121.55913978495 98.48731428571428 L 123.60215053763 96.7366857142857 L 125.64516129032 90.03382857142856 L 127.68817204301 81.21759999999999 L 129.7311827957 74.58834285714285 L 131.77419354839 66.43451428571427 L 133.81720430108 57.42902857142856 L 135.86021505376 57.48159999999997 L 137.90322580645 57.53417142857141 L 139.94623655914 57.61828571428569 L 141.98924731183 63.02788571428569 L 144.03225806452 63.038399999999996 L 146.0752688172 71.01348571428571 L 148.11827956989 75.48731428571426 L 150.16129032258 76.12342857142856 L 152.20430107527 77.7846857142857 L 154.24731182796 89.44502857142857 L 156.29032258065 92.6886857142857 L 158.33333333333 91.84754285714284 L 160.37634408602 94.10811428571428 L 162.41935483871 92.62559999999999 L 164.4623655914 96.78399999999999 L 166.50537634409 98.8342857142857 L 168.54838709677 100.5638857142857 L 170.59139784946 105.24799999999999 L 172.63440860215 107.16685714285713 L 174.67741935484 102.08319999999999 L 176.72043010753 101.10011428571428 L 178.76344086022 101.58902857142856 L 180.8064516129 97.94582857142856 L 182.84946236559 92.53622857142857 L 184.89247311828 92.31017142857141 L 186.93548387097 91.15885714285713 L 188.97849462366 93.3878857142857 L 191.02150537634 93.41942857142855 L 193.06451612903 93.80319999999999 L 195.10752688172 93.6822857142857 L 197.15053763441 95.312 L 199.1935483871 100.63222857142856 L 201.23655913978 98.45051428571426 L 203.27956989247 95.21737142857141 L 205.32258064516 90.17577142857142 L 207.36559139785 85.33919999999999 L 209.40860215054 86.96365714285713 L 211.45161290323 92.6518857142857 L 213.49462365591 90.72777142857142 L 215.5376344086 87.49462857142855 L 217.58064516129 88.63542857142856 L 219.62365591398 93.34582857142856 L 221.66666666667 92.84114285714284 L 223.70967741935 93.5456 L 225.75268817204 92.2102857142857 L 227.79569892473 90.77508571428571 L 229.83870967742 88.73005714285713 L 231.88172043011 84.63999999999999 L 233.9247311828 88.90879999999999 L 235.96774193548 89.8918857142857 L 238.01075268817 88.06765714285713 L 240.05376344086 89.60799999999999 L 242.09677419355 97.0678857142857 L 244.13978494624 99.74902857142855 L 246.18279569892 100.49554285714284 L 248.22580645161 97.30971428571428 L 250.2688172043 100.76891428571429 L 252.31182795699 98.05097142857142 L 254.35483870968 92.99359999999999 L 256.39784946237 91.75291428571428 L 258.44086021505 89.51862857142856 L 260.48387096774 93.69279999999999 L 262.52688172043 92.69919999999999 L 264.56989247312 92.0262857142857 L 266.61290322581 94.09234285714284 L 268.65591397849 93.48251428571427 L 270.69892473118 99.4230857142857 L 272.74193548387 99.48617142857142 L 274.78494623656 96.09005714285713 L 276.82795698925 99.14971428571428 L 278.87096774194 95.51702857142857 L 280.91397849462 92.89897142857141 L 282.95698924731 86.56937142857142 L 285 91.62148571428571 L 287.04301075269 87.9046857142857 L 289.08602150538 84.7766857142857 L 291.12903225806 85.34445714285714 L 293.17204301075 88.16754285714285 L 295.21505376344 89.1926857142857 L 297.25806451613 90.98537142857141 L 299.30107526882 89.70788571428571 L 301.34408602151 88.33051428571427 L 303.38709677419 85.68091428571428 L 305.43010752688 83.43611428571428 L 307.47311827957 83.46239999999999 L 309.51612903226 90.33874285714283 L 311.55913978495 91.78971428571427 L 313.60215053763 93.13554285714285 L 315.64516129032 95.29097142857141 L 317.68817204301 100.24845714285713 L 319.7311827957 101.05279999999999 L 321.77419354839 100.53234285714285 L 323.81720430108 106.15222857142857 L 325.86021505376 99.15497142857141 L 327.90322580645 99.22857142857141 L 329.94623655914 99.62285714285713 L 331.98924731183 99.41782857142856 L 334.03225806452 100.54811428571428 L 336.0752688172 102.82445714285714 L 338.11827956989 102.56685714285713 L 340.16129032258 110.32639999999999 L 342.20430107527 113.00754285714285 L 344.24731182796 113.30194285714285 L 346.29032258065 112.80777142857141 L 348.33333333333 108.17097142857142 L 350.37634408602 108.03954285714285 L 352.41935483871 104.78537142857141 L 354.4623655914 107.55062857142856 L 356.50537634409 106.3046857142857 L 358.54838709677 107.56114285714284 L 360.59139784946 108.65462857142856 L 362.63440860215 111.59862857142856 L 364.67741935484 112.87085714285713 L 366.72043010753 114.34811428571427 L 368.76344086022 112.96022857142856 L 370.8064516129 110.06354285714285 L 372.84946236559 110.8310857142857 L 374.89247311828 108.3286857142857 L 376.93548387097 103.87588571428572 L 378.97849462366 97.7302857142857" class="highcharts-graph" data-z-index="1" stroke="#474747" stroke-width="2" stroke-linejoin="round" stroke-linecap="round"></path></g><g class="highcharts-markers highcharts-series-2 highcharts-line-series" data-z-index="0.1" opacity="1" transform="translate(56,152) scale(1 1)" clip-path="none"></g></g><text x="10" text-anchor="start" class="highcharts-title" data-z-index="4" style="color:#000000;font-size:14px;font-weight:bold;fill:#000000;" y="21"><tspan>Arbeitslose, Langzeitarbeitslose und Anteil der</tspan><tspan dy="17" x="10">Langzeitarbeitslosen am Total</tspan></text><text x="10" text-anchor="start" class="highcharts-subtitle" data-z-index="4" style="color:#000000;font-size:12px;font-weight:normal;fill:#000000;" y="57"><tspan>Basel-Stadt</tspan></text><text x="10" text-anchor="start" class="highcharts-caption" data-z-index="4" style="color:#666666;fill:#666666;" y="385"></text><g class="highcharts-legend" data-z-index="7" transform="translate(48,72)"><rect fill="none" class="highcharts-legend-box" rx="0" ry="0" x="0" y="0" width="342" height="68" visibility="visible"></rect><g data-z-index="1"><g><g class="highcharts-legend-item highcharts-line-series highcharts-color-undefined highcharts-series-0" data-z-index="1" transform="translate(8,3)"><path fill="none" d="M 0 11 L 16 11" class="highcharts-graph" stroke="#B00000" stroke-width="2"></path><text x="21" style="color:#333333;cursor:pointer;font-size:12px;font-weight:normal;fill:#333333;" text-anchor="start" data-z-index="2" y="15"><tspan>Arbeitslose</tspan></text></g><g class="highcharts-legend-item highcharts-line-series highcharts-color-undefined highcharts-series-1" data-z-index="1" transform="translate(8,22)"><path fill="none" d="M 0 11 L 16 11" class="highcharts-graph" stroke="#FF8028" stroke-width="2"></path><text x="21" y="15" style="color:#333333;cursor:pointer;font-size:12px;font-weight:normal;fill:#333333;" text-anchor="start" data-z-index="2"><tspan>Langzeitarbeitslose</tspan></text></g><g class="highcharts-legend-item highcharts-line-series highcharts-color-undefined highcharts-series-2" data-z-index="1" transform="translate(8,41)"><path fill="none" d="M 0 11 L 16 11" class="highcharts-graph" stroke="#474747" stroke-width="2"></path><text x="21" y="15" style="color:#333333;cursor:pointer;font-size:12px;font-weight:normal;fill:#333333;" text-anchor="start" data-z-index="2"><tspan>Anteil Langzeitarbeitslose am Total (rechte Skala)</tspan></text></g></g></g></g><g class="highcharts-axis-labels highcharts-xaxis-labels" data-z-index="7"><text x="59.614230240694674" style="color:#000000;cursor:default;font-size:11px;fill:#000000;" text-anchor="end" transform="translate(0,0) rotate(-45 59.614230240694674 352)" y="352" opacity="1">2005</text><text x="84.13035927295267" style="color:#000000;cursor:default;font-size:11px;fill:#000000;" text-anchor="end" transform="translate(0,0) rotate(-45 84.13035927295267 352)" y="352" opacity="1">2006</text><text x="108.64648830521067" style="color:#000000;cursor:default;font-size:11px;fill:#000000;" text-anchor="end" transform="translate(0,0) rotate(-45 108.64648830521067 352)" y="352" opacity="1">2007</text><text x="133.1626173374707" style="color:#000000;cursor:default;font-size:11px;fill:#000000;" text-anchor="end" transform="translate(0,0) rotate(-45 133.1626173374707 352)" y="352" opacity="1">2008</text><text x="157.67874636973067" style="color:#000000;cursor:default;font-size:11px;fill:#000000;" text-anchor="end" transform="translate(0,0) rotate(-45 157.67874636973067 352)" y="352" opacity="1">2009</text><text x="182.19487540198068" style="color:#000000;cursor:default;font-size:11px;fill:#000000;" text-anchor="end" transform="translate(0,0) rotate(-45 182.19487540198068 352)" y="352" opacity="1">2010</text><text x="206.7110044342407" style="color:#000000;cursor:default;font-size:11px;fill:#000000;" text-anchor="end" transform="translate(0,0) rotate(-45 206.7110044342407 352)" y="352" opacity="1">2011</text><text x="231.22713346650067" style="color:#000000;cursor:default;font-size:11px;fill:#000000;" text-anchor="end" transform="translate(0,0) rotate(-45 231.22713346650067 352)" y="352" opacity="1">2012</text><text x="255.74326249876069" style="color:#000000;cursor:default;font-size:11px;fill:#000000;" text-anchor="end" transform="translate(0,0) rotate(-45 255.74326249876069 352)" y="352" opacity="1">2013</text><text x="280.25939153102064" style="color:#000000;cursor:default;font-size:11px;fill:#000000;" text-anchor="end" transform="translate(0,0) rotate(-45 280.25939153102064 352)" y="352" opacity="1">2014</text><text x="304.7755205632707" style="color:#000000;cursor:default;font-size:11px;fill:#000000;" text-anchor="end" transform="translate(0,0) rotate(-45 304.7755205632707 352)" y="352" opacity="1">2015</text><text x="329.29164959553066" style="color:#000000;cursor:default;font-size:11px;fill:#000000;" text-anchor="end" transform="translate(0,0) rotate(-45 329.29164959553066 352)" y="352" opacity="1">2016</text><text x="353.80777862779064" style="color:#000000;cursor:default;font-size:11px;fill:#000000;" text-anchor="end" transform="translate(0,0) rotate(-45 353.80777862779064 352)" y="352" opacity="1">2017</text><text x="378.3239076600507" style="color:#000000;cursor:default;font-size:11px;fill:#000000;" text-anchor="end" transform="translate(0,0) rotate(-45 378.3239076600507 352)" y="352" opacity="1">2018</text><text x="402.84003669231066" style="color:#000000;cursor:default;font-size:11px;fill:#000000;" text-anchor="end" transform="translate(0,0) rotate(-45 402.84003669231066 352)" y="352" opacity="1">2019</text><text x="427.35616572457064" style="color:#000000;cursor:default;font-size:11px;fill:#000000;" text-anchor="end" transform="translate(0,0) rotate(-45 427.35616572457064 352)" y="352" opacity="1">2020</text></g><g class="highcharts-axis-labels highcharts-yaxis-labels" data-z-index="7"><text x="41" style="color:#000000;cursor:default;font-size:11px;fill:#000000;" text-anchor="end" transform="translate(0,0)" y="341" opacity="1">0</text><text x="41" style="color:#000000;cursor:default;font-size:11px;fill:#000000;" text-anchor="end" transform="translate(0,0)" y="314" opacity="1">800</text><text x="41" style="color:#000000;cursor:default;font-size:11px;fill:#000000;" text-anchor="end" transform="translate(0,0)" y="288" opacity="1"><tspan>1 600</tspan></text><text x="41" style="color:#000000;cursor:default;font-size:11px;fill:#000000;" text-anchor="end" transform="translate(0,0)" y="262" opacity="1"><tspan>2 400</tspan></text><text x="41" style="color:#000000;cursor:default;font-size:11px;fill:#000000;" text-anchor="end" transform="translate(0,0)" y="235" opacity="1"><tspan>3 200</tspan></text><text x="41" style="color:#000000;cursor:default;font-size:11px;fill:#000000;" text-anchor="end" transform="translate(0,0)" y="209" opacity="1"><tspan>4 000</tspan></text><text x="41" style="color:#000000;cursor:default;font-size:11px;fill:#000000;" text-anchor="end" transform="translate(0,0)" y="183" opacity="1"><tspan>4 800</tspan></text><text x="41" style="color:#000000;cursor:default;font-size:11px;fill:#000000;" text-anchor="end" transform="translate(0,0)" y="157" opacity="1"><tspan>5 600</tspan></text></g><g class="highcharts-axis-labels highcharts-yaxis-labels" data-z-index="7"><text x="451" style="color:#000000;cursor:default;font-size:11px;fill:#000000;" text-anchor="start" transform="translate(0,0)" y="341" opacity="1">0%</text><text x="451" style="color:#000000;cursor:default;font-size:11px;fill:#000000;" text-anchor="start" transform="translate(0,0)" y="314" opacity="1">5%</text><text x="451" style="color:#000000;cursor:default;font-size:11px;fill:#000000;" text-anchor="start" transform="translate(0,0)" y="288" opacity="1">10%</text><text x="451" style="color:#000000;cursor:default;font-size:11px;fill:#000000;" text-anchor="start" transform="translate(0,0)" y="262" opacity="1">15%</text><text x="451" style="color:#000000;cursor:default;font-size:11px;fill:#000000;" text-anchor="start" transform="translate(0,0)" y="235" opacity="1">20%</text><text x="451" style="color:#000000;cursor:default;font-size:11px;fill:#000000;" text-anchor="start" transform="translate(0,0)" y="209" opacity="1">25%</text><text x="451" style="color:#000000;cursor:default;font-size:11px;fill:#000000;" text-anchor="start" transform="translate(0,0)" y="183" opacity="1">30%</text><text x="451" style="color:#000000;cursor:default;font-size:11px;fill:#000000;" text-anchor="start" transform="translate(0,0)" y="157" opacity="1">35%</text></g><text x="10" class="highcharts-credits" text-anchor="start" data-z-index="8" style="cursor:default;color:#000000;font-size:10px;fill:#000000;" y="403"><tspan>Quelle: Staatssekretariat für Wirtschaft SECO, Arbeitslosenstatistik.</tspan><tspan x="10" dy="13">Zuletzt geändert: 2020-7-8</tspan></text><g class="highcharts-control-points" data-z-index="99" clip-path="url(#highcharts-cncx8pn-1128-)"></g></svg>