<?xml version="1.0" standalone="no"?><!DOCTYPE svg PUBLIC "-//W3C//DTD SVG 1.1//EN" "http://www.w3.org/Graphics/SVG/1.1/DTD/svg11.dtd"><svg xmlns:xlink="http://www.w3.org/1999/xlink" version="1.1" class="highcharts-root" style="font-family:Arial;font-size:12px;" xmlns="http://www.w3.org/2000/svg" viewBox="0 0 485 415"><desc>Created with Highcharts 8.2.0</desc><defs><clipPath id="highcharts-x2foal2-663-"><rect x="0" y="0" width="386" height="182" fill="none"></rect></clipPath><clipPath id="highcharts-x2foal2-882-"><rect x="0" y="0" width="386" height="182" fill="none"></rect></clipPath><clipPath id="highcharts-x2foal2-1319-"><rect x="0" y="0" width="386" height="182" fill="none"></rect></clipPath><clipPath id="highcharts-x2foal2-1320-"><rect x="52" y="156" width="386" height="182" fill="none"></rect></clipPath></defs><rect fill="#fbfbfb" class="highcharts-background" x="0" y="0" width="485" height="428" rx="0" ry="0"></rect><rect fill="none" class="highcharts-plot-background" x="52" y="156" width="386" height="182"></rect><g class="highcharts-pane-group" data-z-index="0"></g><g class="highcharts-grid highcharts-xaxis-grid" data-z-index="1"><path fill="none" data-z-index="1" class="highcharts-grid-line" d="M 52.5 156 L 52.5 338" opacity="1"></path><path fill="none" data-z-index="1" class="highcharts-grid-line" d="M 73.5 156 L 73.5 338" opacity="1"></path><path fill="none" data-z-index="1" class="highcharts-grid-line" d="M 94.5 156 L 94.5 338" opacity="1"></path><path fill="none" data-z-index="1" class="highcharts-grid-line" d="M 116.5 156 L 116.5 338" opacity="1"></path><path fill="none" data-z-index="1" class="highcharts-grid-line" d="M 137.5 156 L 137.5 338" opacity="1"></path><path fill="none" data-z-index="1" class="highcharts-grid-line" d="M 158.5 156 L 158.5 338" opacity="1"></path><path fill="none" data-z-index="1" class="highcharts-grid-line" d="M 179.5 156 L 179.5 338" opacity="1"></path><path fill="none" data-z-index="1" class="highcharts-grid-line" d="M 201.5 156 L 201.5 338" opacity="1"></path><path fill="none" data-z-index="1" class="highcharts-grid-line" d="M 222.5 156 L 222.5 338" opacity="1"></path><path fill="none" data-z-index="1" class="highcharts-grid-line" d="M 243.5 156 L 243.5 338" opacity="1"></path><path fill="none" data-z-index="1" class="highcharts-grid-line" d="M 264.5 156 L 264.5 338" opacity="1"></path><path fill="none" data-z-index="1" class="highcharts-grid-line" d="M 286.5 156 L 286.5 338" opacity="1"></path><path fill="none" data-z-index="1" class="highcharts-grid-line" d="M 307.5 156 L 307.5 338" opacity="1"></path><path fill="none" data-z-index="1" class="highcharts-grid-line" d="M 328.5 156 L 328.5 338" opacity="1"></path><path fill="none" data-z-index="1" class="highcharts-grid-line" d="M 349.5 156 L 349.5 338" opacity="1"></path><path fill="none" data-z-index="1" class="highcharts-grid-line" d="M 371.5 156 L 371.5 338" opacity="1"></path><path fill="none" data-z-index="1" class="highcharts-grid-line" d="M 392.5 156 L 392.5 338" opacity="1"></path><path fill="none" data-z-index="1" class="highcharts-grid-line" d="M 413.5 156 L 413.5 338" opacity="1"></path><path fill="none" data-z-index="1" class="highcharts-grid-line" d="M 434.5 156 L 434.5 338" opacity="1"></path></g><g class="highcharts-grid highcharts-yaxis-grid" data-z-index="1"><path fill="none" stroke="#e6e6e6" stroke-width="1" data-z-index="1" class="highcharts-grid-line" d="M 52 338.5 L 438 338.5" opacity="1"></path><path fill="none" stroke="#e6e6e6" stroke-width="1" data-z-index="1" class="highcharts-grid-line" d="M 52 312.5 L 438 312.5" opacity="1"></path><path fill="none" stroke="#e6e6e6" stroke-width="1" data-z-index="1" class="highcharts-grid-line" d="M 52 286.5 L 438 286.5" opacity="1"></path><path fill="none" stroke="#e6e6e6" stroke-width="1" data-z-index="1" class="highcharts-grid-line" d="M 52 260.5 L 438 260.5" opacity="1"></path><path fill="none" stroke="#e6e6e6" stroke-width="1" data-z-index="1" class="highcharts-grid-line" d="M 52 234.5 L 438 234.5" opacity="1"></path><path fill="none" stroke="#e6e6e6" stroke-width="1" data-z-index="1" class="highcharts-grid-line" d="M 52 208.5 L 438 208.5" opacity="1"></path><path fill="none" stroke="#e6e6e6" stroke-width="1" data-z-index="1" class="highcharts-grid-line" d="M 52 182.5 L 438 182.5" opacity="1"></path><path fill="none" stroke="#e6e6e6" stroke-width="1" data-z-index="1" class="highcharts-grid-line" d="M 52 155.5 L 438 155.5" opacity="1"></path></g><g class="highcharts-grid highcharts-yaxis-grid" data-z-index="1"><path fill="none" data-z-index="1" class="highcharts-grid-line" d="M 52 338.5 L 438 338.5" opacity="1"></path><path fill="none" data-z-index="1" class="highcharts-grid-line" d="M 52 312.5 L 438 312.5" opacity="1"></path><path fill="none" data-z-index="1" class="highcharts-grid-line" d="M 52 286.5 L 438 286.5" opacity="1"></path><path fill="none" data-z-index="1" class="highcharts-grid-line" d="M 52 260.5 L 438 260.5" opacity="1"></path><path fill="none" data-z-index="1" class="highcharts-grid-line" d="M 52 234.5 L 438 234.5" opacity="1"></path><path fill="none" data-z-index="1" class="highcharts-grid-line" d="M 52 208.5 L 438 208.5" opacity="1"></path><path fill="none" data-z-index="1" class="highcharts-grid-line" d="M 52 182.5 L 438 182.5" opacity="1"></path><path fill="none" data-z-index="1" class="highcharts-grid-line" d="M 52 156.5 L 438 156.5" opacity="1"></path></g><rect fill="none" class="highcharts-plot-border" data-z-index="1" x="52" y="156" width="386" height="182"></rect><g class="highcharts-axis highcharts-xaxis" data-z-index="2"><path fill="none" class="highcharts-axis-line" stroke="#B9CFD7" stroke-width="0.5" data-z-index="7" d="M 52 338.25 L 438 338.25"></path></g><g class="highcharts-axis highcharts-yaxis" data-z-index="2"><path fill="none" class="highcharts-axis-line" data-z-index="7" d="M 52 156 L 52 338"></path></g><g class="highcharts-axis highcharts-yaxis" data-z-index="2"><path fill="none" class="highcharts-axis-line" data-z-index="7" d="M 438 156 L 438 338"></path></g><g class="highcharts-series-group" data-z-index="3"><g class="highcharts-series highcharts-series-0 highcharts-line-series" data-z-index="0.1" opacity="1" transform="translate(52,156) scale(1 1)" clip-path="url(#highcharts-x2foal2-882-)"><path fill="none" d="M 0.88532110091743 38.9675 L 2.6559633027523 40.462500000000006 L 4.4266055045872 48.26249999999999 L 6.197247706422 52.0975 L 7.9678899082569 56.03 L 9.7385321100917 56.224999999999994 L 11.509174311927 55.834999999999994 L 13.279816513761 59.019999999999996 L 15.050458715596 57.55749999999999 L 16.821100917431 59.6375 L 18.591743119266 58.272499999999994 L 20.362385321101 52.78 L 22.133027522936 52.0975 L 23.903669724771 49.595 L 25.674311926606 53.00749999999999 L 27.44495412844 59.21499999999999 L 29.215596330275 65.4875 L 30.98623853211 69.225 L 32.756880733945 67.6325 L 34.52752293578 68.38 L 36.298165137615 69.5175 L 38.06880733945 70.72 L 39.839449541284 69.5175 L 41.610091743119 66.6575 L 43.380733944954 63.7325 L 45.151376146789 66.5925 L 46.922018348624 70.8825 L 48.692660550459 74.6525 L 50.463302752294 78.0975 L 52.233944954128 79.755 L 54.004587155963 81.185 L 55.775229357798 83.72 L 57.545871559633 89.115 L 59.316513761468 88.85499999999999 L 61.087155963303 87.3275 L 62.857798165138 85.3775 L 64.628440366972 82.095 L 66.399082568807 82.67999999999999 L 68.169724770642 87.19749999999999 L 69.940366972477 91.61749999999999 L 71.711009174312 92.3325 L 73.481651376147 91.13 L 75.252293577982 90.22 L 77.022935779817 91.78 L 78.793577981651 89.7 L 80.564220183486 87.3275 L 82.334862385321 82.0625 L 84.105504587156 73.6125 L 85.876146788991 71.435 L 87.646788990826 71.0125 L 89.417431192661 67.99 L 91.188073394495 68.7375 L 92.95871559633 68.38 L 94.729357798165 64.05749999999999 L 96.5 60.77499999999999 L 98.270642201835 62.04249999999999 L 100.04128440367 57.6875 L 101.8119266055 52.25999999999999 L 103.58256880734 50.31 L 105.35321100917 41.535 L 107.12385321101 38.47999999999999 L 108.89449541284 42.900000000000006 L 110.66513761468 47.35249999999999 L 112.43577981651 52.389999999999986 L 114.20642201835 55.9975 L 115.97706422018 60.644999999999996 L 117.74770642202 60.19 L 119.51834862385 58.9225 L 121.28899082569 59.2475 L 123.05963302752 61.099999999999994 L 124.83027522936 60.80749999999999 L 126.60091743119 54.3725 L 128.37155963303 51.155 L 130.14220183486 54.5025 L 131.9128440367 57.49249999999999 L 133.68348623853 73.2225 L 135.45412844037 76.2775 L 137.2247706422 78.3575 L 138.99541284404 78.0325 L 140.76605504587 77.285 L 142.53669724771 76.4075 L 144.30733944954 76.4725 L 146.07798165138 75.1075 L 147.84862385321 70.265 L 149.61926605505 65.0325 L 151.38990825688 64.155 L 153.16055045872 67.405 L 154.93119266055 69.42 L 156.70183486239 70.8175 L 158.47247706422 76.83 L 160.24311926606 77.09 L 162.01376146789 76.7325 L 163.78440366972 74.5225 L 165.55504587156 71.4675 L 167.32568807339 69.28999999999999 L 169.09633027523 61.685 L 170.86697247706 56.77749999999999 L 172.6376146789 58.825 L 174.40825688073 62.1725 L 176.17889908257 67.1125 L 177.9495412844 71.825 L 179.72018348624 75.4975 L 181.49082568807 74.0675 L 183.26146788991 74.2625 L 185.03211009174 73.19 L 186.80275229358 72.41 L 188.57339449541 69.485 L 190.34403669725 61.94499999999999 L 192.11467889908 61.295 L 193.88532110092 63.56999999999999 L 195.65596330275 66.5925 L 197.42660550459 71.30499999999999 L 199.19724770642 77.80499999999999 L 200.96788990826 81.575 L 202.73853211009 81.0225 L 204.50917431193 81.05499999999999 L 206.27981651376 78.8775 L 208.0504587156 76.4725 L 209.82110091743 70.3625 L 211.59174311927 62.75749999999999 L 213.3623853211 56.77749999999999 L 215.13302752294 59.60499999999999 L 216.90366972477 60.677499999999995 L 218.67431192661 64.3175 L 220.44495412844 67.66499999999999 L 222.21559633028 69.3875 L 223.98623853211 72.41 L 225.75688073394 69.615 L 227.52752293578 65.22749999999999 L 229.29816513761 64.9675 L 231.06880733945 62.46499999999999 L 232.83944954128 59.11749999999999 L 234.61009174312 53.7225 L 236.38073394495 49.984999999999985 L 238.15137614679 54.1125 L 239.92201834862 52.51999999999998 L 241.69266055046 56.67999999999999 L 243.46330275229 61.035 L 245.23394495413 65.0325 L 247.00458715596 62.8875 L 248.7752293578 63.4075 L 250.54587155963 62.4975 L 252.31651376147 56.614999999999995 L 254.0871559633 50.96000000000001 L 255.85779816514 46.11750000000001 L 257.62844036697 49.5625 L 259.39908256881 52.25999999999999 L 261.16972477064 56.4525 L 262.94036697248 63.31 L 264.71100917431 65.61749999999999 L 266.48165137615 67.795 L 268.25229357798 64.155 L 270.02293577982 69.71249999999999 L 271.79357798165 67.86 L 273.56422018349 66.82 L 275.33486238532 61.22999999999999 L 277.10550458716 58.825 L 278.87614678899 63.27749999999999 L 280.64678899083 64.5775 L 282.41743119266 70.0375 L 284.1880733945 73.97 L 285.95871559633 77.5125 L 287.72935779817 77.9675 L 289.5 78.195 L 291.27064220183 80.34 L 293.04128440367 80.24249999999999 L 294.8119266055 77.6425 L 296.58256880734 70.33 L 298.35321100917 66.235 L 300.12385321101 72.085 L 301.89449541284 74.295 L 303.66513761468 79.42999999999999 L 305.43577981651 84.0775 L 307.20642201835 87.685 L 308.97706422018 88.7575 L 310.74770642202 88.78999999999999 L 312.51834862385 91.975 L 314.28899082569 89.7325 L 316.05963302752 83.7525 L 317.83027522936 76.2775 L 319.60091743119 73.2875 L 321.37155963303 75.00999999999999 L 323.14220183486 63.375 L 324.9128440367 52.845 L 326.68348623853 48.29499999999999 L 328.45412844037 46.734999999999985 L 330.2247706422 43.8425 L 331.99541284404 47.38499999999999 L 333.76605504587 50.2775 L 335.53669724771 50.375 L 337.30733944954 48.26249999999999 L 339.07798165138 38.74000000000001 L 340.84862385321 35.42499999999998 L 342.61926605505 36.724999999999994 L 344.38990825688 38.1225 L 346.16055045872 44.297499999999985 L 347.93119266055 50.4075 L 349.70183486239 54.144999999999996 L 351.47247706422 57.94749999999999 L 353.24311926606 61.457499999999996 L 355.01376146789 68.77 L 356.78440366972 72.99499999999999 L 358.55504587156 72.67 L 360.32568807339 70.005 L 362.09633027523 67.99 L 363.86697247706 70.0375 L 365.6376146789 75.85499999999999 L 367.40825688073 78.065 L 369.17889908257 81.1525 L 370.9495412844 84.36999999999999 L 372.72018348624 86.905 L 374.49082568807 86.645 L 376.26146788991 89.63499999999999 L 378.03211009174 89.505 L 379.80275229358 87.2625 L 381.57339449541 85.67 L 383.34403669725 81.64 L 385.11467889908 81.0225" class="highcharts-graph" data-z-index="1" stroke="#B00000" stroke-width="2" stroke-linejoin="round" stroke-linecap="round"></path></g><g class="highcharts-markers highcharts-series-0 highcharts-line-series" data-z-index="0.1" opacity="1" transform="translate(52,156) scale(1 1)" clip-path="none"></g><g class="highcharts-series highcharts-series-1 highcharts-line-series" data-z-index="0.1" opacity="1" transform="translate(52,156) scale(1 1)" clip-path="url(#highcharts-x2foal2-882-)"><path fill="none" d="M 0.88532110091743 156.0975 L 2.6559633027523 157.0725 L 4.4266055045872 157.235 L 6.197247706422 158.1125 L 7.9678899082569 158.47 L 9.7385321100917 157.95 L 11.509174311927 158.015 L 13.279816513761 157.885 L 15.050458715596 158.0475 L 16.821100917431 157.8525 L 18.591743119266 158.015 L 20.362385321101 158.5025 L 22.133027522936 159.8675 L 23.903669724771 159.6725 L 25.674311926606 160.29 L 27.44495412844 160.745 L 29.215596330275 160.7775 L 30.98623853211 159.9325 L 32.756880733945 159.6725 L 34.52752293578 159.38 L 36.298165137615 159.6725 L 38.06880733945 160.3875 L 39.839449541284 160.55 L 41.610091743119 159.7375 L 43.380733944954 159.835 L 45.151376146789 160.2575 L 46.922018348624 161.0375 L 48.692660550459 162.7275 L 50.463302752294 163.085 L 52.233944954128 162.0125 L 54.004587155963 162.14249999999998 L 55.775229357798 162.5 L 57.545871559633 163.5725 L 59.316513761468 164.19 L 61.087155963303 164.255 L 62.857798165138 164.06 L 64.628440366972 163.4425 L 66.399082568807 163.995 L 68.169724770642 164.645 L 69.940366972477 165.75 L 71.711009174312 166.3675 L 73.481651376147 166.4975 L 75.252293577982 166.4325 L 77.022935779817 166.66 L 78.793577981651 167.0175 L 80.564220183486 166.985 L 82.334862385321 167.44 L 84.105504587156 167.0825 L 85.876146788991 166.205 L 87.646788990826 166.9525 L 89.417431192661 166.8875 L 91.188073394495 166.6925 L 92.95871559633 166.5625 L 94.729357798165 165.3275 L 96.5 164.515 L 98.270642201835 164.2225 L 100.04128440367 163.345 L 101.8119266055 162.63 L 103.58256880734 161.0375 L 105.35321100917 159.1525 L 107.12385321101 158.1775 L 108.89449541284 157.1375 L 110.66513761468 155.675 L 112.43577981651 155.025 L 114.20642201835 153.8225 L 115.97706422018 152.7825 L 117.74770642202 152.685 L 119.51834862385 152.39249999999998 L 121.28899082569 152.49 L 123.05963302752 154.18 L 124.83027522936 154.115 L 126.60091743119 154.57 L 128.37155963303 154.9925 L 130.14220183486 155.8375 L 131.9128440367 156.845 L 133.68348623853 162.435 L 135.45412844037 163.6375 L 137.2247706422 163.8325 L 138.99541284404 164.2225 L 140.76605504587 163.8 L 142.53669724771 164.4825 L 144.30733944954 164.905 L 146.07798165138 165.035 L 147.84862385321 165.2625 L 149.61926605505 164.905 L 151.38990825688 163.6375 L 153.16055045872 163.93 L 154.93119266055 164.3525 L 156.70183486239 163.8 L 158.47247706422 163.7025 L 160.24311926606 163.7025 L 162.01376146789 163.41 L 163.78440366972 163.475 L 165.55504587156 162.95499999999998 L 167.32568807339 162.6625 L 169.09633027523 161.32999999999998 L 170.86697247706 160.875 L 172.6376146789 162.4675 L 174.40825688073 162.5 L 176.17889908257 162.5975 L 177.9495412844 162.3375 L 179.72018348624 162.0125 L 181.49082568807 162.0775 L 183.26146788991 163.28 L 185.03211009174 162.695 L 186.80275229358 161.8825 L 188.57339449541 161.59 L 190.34403669725 161.2975 L 192.11467889908 161.07 L 193.88532110092 161.6225 L 195.65596330275 161.85 L 197.42660550459 162.37 L 199.19724770642 163.1175 L 200.96788990826 163.02 L 202.73853211009 163.735 L 204.50917431193 163.93 L 206.27981651376 163.1825 L 208.0504587156 163.0525 L 209.82110091743 163.54 L 211.59174311927 162.89 L 213.3623853211 162.11 L 215.13302752294 161.8175 L 216.90366972477 162.7925 L 218.67431192661 162.76 L 220.44495412844 162.2075 L 222.21559633028 162.24 L 223.98623853211 162.305 L 225.75688073394 162.695 L 227.52752293578 161.72 L 229.29816513761 161.525 L 231.06880733945 161.5575 L 232.83944954128 160.8425 L 234.61009174312 161.3625 L 236.38073394495 160.7775 L 238.15137614679 160.615 L 239.92201834862 161.1025 L 241.69266055046 160.9075 L 243.46330275229 161.0375 L 245.23394495413 160.3225 L 247.00458715596 161.07 L 248.7752293578 160.3225 L 250.54587155963 159.445 L 252.31651376147 158.47 L 254.0871559633 158.1125 L 255.85779816514 157.495 L 257.62844036697 158.5675 L 259.39908256881 158.73 L 261.16972477064 159.1525 L 262.94036697248 159.8025 L 264.71100917431 159.7375 L 266.48165137615 160.16 L 268.25229357798 161.005 L 270.02293577982 162.305 L 271.79357798165 162.2725 L 273.56422018349 162.565 L 275.33486238532 162.76 L 277.10550458716 162.565 L 278.87614678899 163.15 L 280.64678899083 164.6125 L 282.41743119266 163.93 L 284.1880733945 164.57999999999998 L 285.95871559633 165.23 L 287.72935779817 165.2625 L 289.5 165.5225 L 291.27064220183 166.3025 L 293.04128440367 166.2375 L 294.8119266055 167.375 L 296.58256880734 166.92 L 298.35321100917 166.4325 L 300.12385321101 167.115 L 301.89449541284 166.465 L 303.66513761468 167.18 L 305.43577981651 167.245 L 307.20642201835 168.285 L 308.97706422018 168.22 L 310.74770642202 168.4475 L 312.51834862385 169.0975 L 314.28899082569 169.2925 L 316.05963302752 168.7075 L 317.83027522936 167.9925 L 319.60091743119 167.31 L 321.37155963303 166.9525 L 323.14220183486 165.49 L 324.9128440367 163.41 L 326.68348623853 161.6225 L 328.45412844037 159.8025 L 330.2247706422 157.1375 L 331.99541284404 155.805 L 333.76605504587 154.115 L 335.53669724771 153.335 L 337.30733944954 153.66 L 339.07798165138 151.8075 L 340.84862385321 151.19 L 342.61926605505 150.41 L 344.38990825688 149.3375 L 346.16055045872 147.615 L 347.93119266055 145.5675 L 349.70183486239 145.47 L 351.47247706422 146.0225 L 353.24311926606 146.60750000000002 L 355.01376146789 148.265 L 356.78440366972 149.6625 L 358.55504587156 150.67 L 360.32568807339 150.865 L 362.09633027523 151.2225 L 363.86697247706 152.3275 L 365.6376146789 153.3675 L 367.40825688073 153.66 L 369.17889908257 154.8625 L 370.9495412844 157.0725 L 372.72018348624 159.0225 L 374.49082568807 160.4525 L 376.26146788991 161.6875 L 378.03211009174 161.915 L 379.80275229358 162.5 L 381.57339449541 164.8725 L 383.34403669725 165.9125 L 385.11467889908 166.27" class="highcharts-graph" data-z-index="1" stroke="#FF8028" stroke-width="2" stroke-linejoin="round" stroke-linecap="round"></path></g><g class="highcharts-markers highcharts-series-1 highcharts-line-series" data-z-index="0.1" opacity="1" transform="translate(52,156) scale(1 1)" clip-path="none"></g><g class="highcharts-series highcharts-series-2 highcharts-line-series" data-z-index="0.1" opacity="1" transform="translate(52,156) scale(1 1)" clip-path="url(#highcharts-x2foal2-1319-)"><path fill="none" d="M 0.88532110091743 87.82799999999999 L 2.6559633027523 90.41760000000001 L 4.4266055045872 85.70639999999999 L 6.197247706422 86.3772 L 7.9678899082569 84.86919999999999 L 9.7385321100917 82.5708 L 11.509174311927 83.1428 L 13.279816513761 80.03320000000001 L 15.050458715596 81.9104 L 16.821100917431 79.3832 L 18.591743119266 81.19800000000001 L 20.362385321101 87.4432 L 22.133027522936 93.4024 L 23.903669724771 94.3124 L 25.674311926606 94.484 L 27.44495412844 91.9828 L 29.215596330275 87.282 L 30.98623853211 80.24640000000001 L 32.756880733945 80.4804 L 34.52752293578 78.4784 L 36.298165137615 78.78 L 38.06880733945 81.0056 L 39.839449541284 82.836 L 41.610091743119 81.63480000000001 L 43.380733944954 84.5468 L 45.151376146789 84.032 L 46.922018348624 83.90199999999999 L 48.692660550459 88.6444 L 50.463302752294 87.334 L 52.233944954128 80.3452 L 54.004587155963 79.5756 L 55.775229357798 78.82679999999999 L 57.545871559633 78.8372 L 59.316513761468 82.5708 L 61.087155963303 84.5312 L 62.857798165138 85.4516 L 64.628440366972 85.41 L 66.399082568807 87.73440000000001 L 68.169724770642 86.8088 L 69.940366972477 88.50919999999999 L 71.711009174312 91.3432 L 73.481651376147 93.288 L 75.252293577982 93.7976 L 77.022935779817 93.5844 L 78.793577981651 97.59360000000001 L 80.564220183486 99.528 L 82.334862385321 106.2412 L 84.105504587156 110.4324 L 85.876146788991 107.7128 L 87.646788990826 111.4984 L 89.417431192661 113.074 L 91.188073394495 111.72200000000001 L 92.95871559633 111.3476 L 94.729357798165 108.49279999999999 L 96.5 106.9952 L 98.270642201835 104.936 L 100.04128440367 103.9636 L 101.8119266055 104.364 L 103.58256880734 99.22640000000001 L 105.35321100917 97.4168 L 107.12385321101 95.6852 L 108.89449541284 89.0552 L 110.66513761468 80.3348 L 112.43577981651 73.7776 L 114.20642201835 65.7124 L 115.97706422018 56.8048 L 117.74770642202 56.85679999999999 L 119.51834862385 56.9088 L 121.28899082569 56.992000000000004 L 123.05963302752 62.3428 L 124.83027522936 62.3532 L 126.60091743119 70.2416 L 128.37155963303 74.6668 L 130.14220183486 75.296 L 131.9128440367 76.9392 L 133.68348623853 88.4728 L 135.45412844037 91.68119999999999 L 137.2247706422 90.8492 L 138.99541284404 93.0852 L 140.76605504587 91.61880000000001 L 142.53669724771 95.732 L 144.30733944954 97.75999999999999 L 146.07798165138 99.47080000000001 L 147.84862385321 104.104 L 149.61926605505 106.002 L 151.38990825688 100.9736 L 153.16055045872 100.0012 L 154.93119266055 100.48479999999999 L 156.70183486239 96.88119999999999 L 158.47247706422 91.5304 L 160.24311926606 91.3068 L 162.01376146789 90.16799999999999 L 163.78440366972 92.3728 L 165.55504587156 92.404 L 167.32568807339 92.7836 L 169.09633027523 92.664 L 170.86697247706 94.27600000000001 L 172.6376146789 99.5384 L 174.40825688073 97.3804 L 176.17889908257 94.1824 L 177.9495412844 89.1956 L 179.72018348624 84.41159999999999 L 181.49082568807 86.0184 L 183.26146788991 91.6448 L 185.03211009174 89.7416 L 186.80275229358 86.5436 L 188.57339449541 87.672 L 190.34403669725 92.3312 L 192.11467889908 91.832 L 193.88532110092 92.5288 L 195.65596330275 91.208 L 197.42660550459 89.78840000000001 L 199.19724770642 87.7656 L 200.96788990826 83.72 L 202.73853211009 87.94239999999999 L 204.50917431193 88.9148 L 206.27981651376 87.1104 L 208.0504587156 88.634 L 209.82110091743 96.0128 L 211.59174311927 98.6648 L 213.3623853211 99.4032 L 215.13302752294 96.25200000000001 L 216.90366972477 99.67360000000001 L 218.67431192661 96.9852 L 220.44495412844 91.9828 L 222.21559633028 90.7556 L 223.98623853211 88.54560000000001 L 225.75688073394 92.6744 L 227.52752293578 91.69160000000001 L 229.29816513761 91.026 L 231.06880733945 93.0696 L 232.83944954128 92.4664 L 234.61009174312 98.3424 L 236.38073394495 98.40480000000001 L 238.15137614679 95.0456 L 239.92201834862 98.072 L 241.69266055046 94.4788 L 243.46330275229 91.8892 L 245.23394495413 85.6284 L 247.00458715596 90.6256 L 248.7752293578 86.94919999999999 L 250.54587155963 83.85520000000001 L 252.31651376147 84.41680000000001 L 254.0871559633 87.2092 L 255.85779816514 88.2232 L 257.62844036697 89.9964 L 259.39908256881 88.7328 L 261.16972477064 87.3704 L 262.94036697248 84.7496 L 264.71100917431 82.5292 L 266.48165137615 82.5552 L 268.25229357798 89.35679999999999 L 270.02293577982 90.792 L 271.79357798165 92.1232 L 273.56422018349 94.2552 L 275.33486238532 99.1588 L 277.10550458716 99.95439999999999 L 278.87614678899 99.4396 L 280.64678899083 104.9984 L 282.41743119266 98.07719999999999 L 284.1880733945 98.14999999999999 L 285.95871559633 98.53999999999999 L 287.72935779817 98.3372 L 289.5 99.4552 L 291.27064220183 101.7068 L 293.04128440367 101.452 L 294.8119266055 109.1272 L 296.58256880734 111.7792 L 298.35321100917 112.0704 L 300.12385321101 111.5816 L 301.89449541284 106.9952 L 303.66513761468 106.8652 L 305.43577981651 103.6464 L 307.20642201835 106.3816 L 308.97706422018 105.1492 L 310.74770642202 106.392 L 312.51834862385 107.4736 L 314.28899082569 110.3856 L 316.05963302752 111.64399999999999 L 317.83027522936 113.1052 L 319.60091743119 111.7324 L 321.37155963303 108.86720000000001 L 323.14220183486 109.6264 L 324.9128440367 107.15119999999999 L 326.68348623853 102.74680000000001 L 328.45412844037 96.668 L 330.2247706422 88.4208 L 331.99541284404 80.8132 L 333.76605504587 71.916 L 335.53669724771 68.7544 L 337.30733944954 71.80680000000001 L 339.07798165138 72.41 L 340.84862385321 72.696 L 342.61926605505 68.926 L 344.38990825688 63.949600000000004 L 346.16055045872 52.156000000000006 L 347.93119266055 38.03280000000001 L 349.70183486239 33.43079999999998 L 351.47247706422 31.189600000000013 L 353.24311926606 29.3228 L 355.01376146789 27.076400000000007 L 356.78440366972 27.736800000000017 L 358.55504587156 32.9888 L 360.32568807339 37.44 L 362.09633027523 41.625999999999976 L 363.86697247706 44.18960000000001 L 365.6376146789 41.73000000000002 L 367.40825688073 40.211599999999976 L 369.17889908257 42.073200000000014 L 370.9495412844 49.22839999999999 L 372.72018348624 56.35239999999999 L 374.49082568807 64.4956 L 376.26146788991 67.6416 L 378.03211009174 69.082 L 379.80275229358 74.96839999999999 L 381.57339449541 89.544 L 383.34403669725 98.644 L 385.11467889908 100.9944" class="highcharts-graph" data-z-index="1" stroke="#474747" stroke-width="2" stroke-linejoin="round" stroke-linecap="round"></path></g><g class="highcharts-markers highcharts-series-2 highcharts-line-series" data-z-index="0.1" opacity="1" transform="translate(52,156) scale(1 1)" clip-path="none"></g></g><text x="10" text-anchor="start" class="highcharts-title" data-z-index="4" style="color:#000000;font-size:14px;font-weight:bold;fill:#000000;" y="21"><tspan>Arbeitslose, Langzeitarbeitslose und Anteil der</tspan><tspan dy="17" x="10">Langzeitarbeitslosen am Total</tspan></text><text x="10" text-anchor="start" class="highcharts-subtitle" data-z-index="4" style="color:#000000;font-size:12px;font-weight:normal;fill:#000000;" y="57"><tspan>Basel-Stadt</tspan></text><text x="10" text-anchor="start" class="highcharts-caption" data-z-index="4" style="color:#666666;fill:#666666;" y="385"></text><g class="highcharts-legend" data-z-index="7" transform="translate(44,73)"><rect fill="none" class="highcharts-legend-box" rx="0" ry="0" x="0" y="0" width="308" height="71" visibility="visible"></rect><g data-z-index="1"><g><g class="highcharts-legend-item highcharts-line-series highcharts-color-undefined highcharts-series-0" data-z-index="1" transform="translate(8,3)"><path fill="none" d="M 0 11 L 16 11" class="highcharts-graph" stroke="#B00000" stroke-width="2"></path><text x="21" style="color:#333333;cursor:pointer;font-size:12px;font-weight:normal;fill:#333333;" text-anchor="start" data-z-index="2" y="15"><tspan>Arbeitslose</tspan></text></g><g class="highcharts-legend-item highcharts-line-series highcharts-color-undefined highcharts-series-1" data-z-index="1" transform="translate(8,23)"><path fill="none" d="M 0 11 L 16 11" class="highcharts-graph" stroke="#FF8028" stroke-width="2"></path><text x="21" y="15" style="color:#333333;cursor:pointer;font-size:12px;font-weight:normal;fill:#333333;" text-anchor="start" data-z-index="2"><tspan>Langzeitarbeitslose</tspan></text></g><g class="highcharts-legend-item highcharts-line-series highcharts-color-undefined highcharts-series-2" data-z-index="1" transform="translate(8,43)"><path fill="none" d="M 0 11 L 16 11" class="highcharts-graph" stroke="#474747" stroke-width="2"></path><text x="21" y="15" style="color:#333333;cursor:pointer;font-size:12px;font-weight:normal;fill:#333333;" text-anchor="start" data-z-index="2"><tspan>Anteil Langzeitarbeitslose am Total (rechte Skala)</tspan></text></g></g></g></g><g class="highcharts-axis-labels highcharts-xaxis-labels" data-z-index="7"><text x="55.47804596526767" style="color:#000000;cursor:default;font-size:11px;fill:#000000;" text-anchor="end" transform="translate(0,0) rotate(-45 55.47804596526767 354)" y="354" opacity="1">2005</text><text x="76.72575238728668" style="color:#000000;cursor:default;font-size:11px;fill:#000000;" text-anchor="end" transform="translate(0,0) rotate(-45 76.72575238728668 354)" y="354" opacity="1">2006</text><text x="97.97345880930467" style="color:#000000;cursor:default;font-size:11px;fill:#000000;" text-anchor="end" transform="translate(0,0) rotate(-45 97.97345880930467 354)" y="354" opacity="1">2007</text><text x="119.22116523132067" style="color:#000000;cursor:default;font-size:11px;fill:#000000;" text-anchor="end" transform="translate(0,0) rotate(-45 119.22116523132067 354)" y="354" opacity="1">2008</text><text x="140.4688716533407" style="color:#000000;cursor:default;font-size:11px;fill:#000000;" text-anchor="end" transform="translate(0,0) rotate(-45 140.4688716533407 354)" y="354" opacity="1">2009</text><text x="161.71657807536067" style="color:#000000;cursor:default;font-size:11px;fill:#000000;" text-anchor="end" transform="translate(0,0) rotate(-45 161.71657807536067 354)" y="354" opacity="1">2010</text><text x="182.96428449738067" style="color:#000000;cursor:default;font-size:11px;fill:#000000;" text-anchor="end" transform="translate(0,0) rotate(-45 182.96428449738067 354)" y="354" opacity="1">2011</text><text x="204.21199091940068" style="color:#000000;cursor:default;font-size:11px;fill:#000000;" text-anchor="end" transform="translate(0,0) rotate(-45 204.21199091940068 354)" y="354" opacity="1">2012</text><text x="225.45969734141067" style="color:#000000;cursor:default;font-size:11px;fill:#000000;" text-anchor="end" transform="translate(0,0) rotate(-45 225.45969734141067 354)" y="354" opacity="1">2013</text><text x="246.70740376343068" style="color:#000000;cursor:default;font-size:11px;fill:#000000;" text-anchor="end" transform="translate(0,0) rotate(-45 246.70740376343068 354)" y="354" opacity="1">2014</text><text x="267.9551101854507" style="color:#000000;cursor:default;font-size:11px;fill:#000000;" text-anchor="end" transform="translate(0,0) rotate(-45 267.9551101854507 354)" y="354" opacity="1">2015</text><text x="289.20281660747065" style="color:#000000;cursor:default;font-size:11px;fill:#000000;" text-anchor="end" transform="translate(0,0) rotate(-45 289.20281660747065 354)" y="354" opacity="1">2016</text><text x="310.4505230294907" style="color:#000000;cursor:default;font-size:11px;fill:#000000;" text-anchor="end" transform="translate(0,0) rotate(-45 310.4505230294907 354)" y="354" opacity="1">2017</text><text x="331.69822945151066" style="color:#000000;cursor:default;font-size:11px;fill:#000000;" text-anchor="end" transform="translate(0,0) rotate(-45 331.69822945151066 354)" y="354" opacity="1">2018</text><text x="352.9459358735207" style="color:#000000;cursor:default;font-size:11px;fill:#000000;" text-anchor="end" transform="translate(0,0) rotate(-45 352.9459358735207 354)" y="354" opacity="1">2019</text><text x="374.19364229554066" style="color:#000000;cursor:default;font-size:11px;fill:#000000;" text-anchor="end" transform="translate(0,0) rotate(-45 374.19364229554066 354)" y="354" opacity="1">2020</text><text x="395.44134871756063" style="color:#000000;cursor:default;font-size:11px;fill:#000000;" text-anchor="end" transform="translate(0,0) rotate(-45 395.44134871756063 354)" y="354" opacity="1">2021</text><text x="416.68905513958066" style="color:#000000;cursor:default;font-size:11px;fill:#000000;" text-anchor="end" transform="translate(0,0) rotate(-45 416.68905513958066 354)" y="354" opacity="1">2022</text><text x="437.93676156160063" style="color:#000000;cursor:default;font-size:11px;fill:#000000;" text-anchor="end" transform="translate(0,0) rotate(-45 437.93676156160063 354)" y="354" opacity="1">2023</text></g><g class="highcharts-axis-labels highcharts-yaxis-labels" data-z-index="7"><text x="37" style="color:#000000;cursor:default;font-size:11px;fill:#000000;" text-anchor="end" transform="translate(0,0)" y="342" opacity="1">0</text><text x="37" style="color:#000000;cursor:default;font-size:11px;fill:#000000;" text-anchor="end" transform="translate(0,0)" y="316" opacity="1">800</text><text x="37" style="color:#000000;cursor:default;font-size:11px;fill:#000000;" text-anchor="end" transform="translate(0,0)" y="290" opacity="1"><tspan>1 600</tspan></text><text x="37" style="color:#000000;cursor:default;font-size:11px;fill:#000000;" text-anchor="end" transform="translate(0,0)" y="264" opacity="1"><tspan>2 400</tspan></text><text x="37" style="color:#000000;cursor:default;font-size:11px;fill:#000000;" text-anchor="end" transform="translate(0,0)" y="238" opacity="1"><tspan>3 200</tspan></text><text x="37" style="color:#000000;cursor:default;font-size:11px;fill:#000000;" text-anchor="end" transform="translate(0,0)" y="212" opacity="1"><tspan>4 000</tspan></text><text x="37" style="color:#000000;cursor:default;font-size:11px;fill:#000000;" text-anchor="end" transform="translate(0,0)" y="186" opacity="1"><tspan>4 800</tspan></text><text x="37" style="color:#000000;cursor:default;font-size:11px;fill:#000000;" text-anchor="end" transform="translate(0,0)" y="160" opacity="1"><tspan>5 600</tspan></text></g><g class="highcharts-axis-labels highcharts-yaxis-labels" data-z-index="7"><text x="453" style="color:#000000;cursor:default;font-size:11px;fill:#000000;" text-anchor="start" transform="translate(0,0)" y="342" opacity="1">0%</text><text x="453" style="color:#000000;cursor:default;font-size:11px;fill:#000000;" text-anchor="start" transform="translate(0,0)" y="316" opacity="1">5%</text><text x="453" style="color:#000000;cursor:default;font-size:11px;fill:#000000;" text-anchor="start" transform="translate(0,0)" y="290" opacity="1">10%</text><text x="453" style="color:#000000;cursor:default;font-size:11px;fill:#000000;" text-anchor="start" transform="translate(0,0)" y="264" opacity="1">15%</text><text x="453" style="color:#000000;cursor:default;font-size:11px;fill:#000000;" text-anchor="start" transform="translate(0,0)" y="238" opacity="1">20%</text><text x="453" style="color:#000000;cursor:default;font-size:11px;fill:#000000;" text-anchor="start" transform="translate(0,0)" y="212" opacity="1">25%</text><text x="453" style="color:#000000;cursor:default;font-size:11px;fill:#000000;" text-anchor="start" transform="translate(0,0)" y="186" opacity="1">30%</text><text x="453" style="color:#000000;cursor:default;font-size:11px;fill:#000000;" text-anchor="start" transform="translate(0,0)" y="160" opacity="1">35%</text></g><text x="10" class="highcharts-credits" text-anchor="start" data-z-index="8" style="cursor:default;color:#000000;font-size:10px;fill:#000000;" y="403"><tspan>Quelle: Staatssekretariat für Wirtschaft SECO, Arbeitslosenstatistik.</tspan><tspan x="10" dy="13">Zuletzt geändert: 7.2.2023</tspan></text><g class="highcharts-control-points" data-z-index="99" clip-path="url(#highcharts-x2foal2-1320-)"></g></svg>