<?xml version="1.0" standalone="no"?><!DOCTYPE svg PUBLIC "-//W3C//DTD SVG 1.1//EN" "http://www.w3.org/Graphics/SVG/1.1/DTD/svg11.dtd"><svg xmlns:xlink="http://www.w3.org/1999/xlink" version="1.1" class="highcharts-root" style="font-family:Arial;font-size:12px;" xmlns="http://www.w3.org/2000/svg" viewBox="0 0 485 415"><desc>Created with Highcharts 8.0.4</desc><defs><clipPath id="highcharts-z31swcn-557-"><rect x="0" y="0" width="380" height="184" fill="none"></rect></clipPath><clipPath id="highcharts-z31swcn-741-"><rect x="0" y="0" width="380" height="184" fill="none"></rect></clipPath><clipPath id="highcharts-z31swcn-1108-"><rect x="0" y="0" width="380" height="184" fill="none"></rect></clipPath></defs><rect fill="#fbfbfb" class="highcharts-background" x="0" y="0" width="485" height="428" rx="0" ry="0"></rect><rect fill="none" class="highcharts-plot-background" x="56" y="152" width="380" height="184"></rect><g class="highcharts-pane-group" data-z-index="0"></g><g class="highcharts-grid highcharts-xaxis-grid" data-z-index="1"><path fill="none" data-z-index="1" class="highcharts-grid-line" d="M 56.5 152 L 56.5 336" opacity="1"></path><path fill="none" data-z-index="1" class="highcharts-grid-line" d="M 81.5 152 L 81.5 336" opacity="1"></path><path fill="none" data-z-index="1" class="highcharts-grid-line" d="M 106.5 152 L 106.5 336" opacity="1"></path><path fill="none" data-z-index="1" class="highcharts-grid-line" d="M 131.5 152 L 131.5 336" opacity="1"></path><path fill="none" data-z-index="1" class="highcharts-grid-line" d="M 156.5 152 L 156.5 336" opacity="1"></path><path fill="none" data-z-index="1" class="highcharts-grid-line" d="M 181.5 152 L 181.5 336" opacity="1"></path><path fill="none" data-z-index="1" class="highcharts-grid-line" d="M 206.5 152 L 206.5 336" opacity="1"></path><path fill="none" data-z-index="1" class="highcharts-grid-line" d="M 230.5 152 L 230.5 336" opacity="1"></path><path fill="none" data-z-index="1" class="highcharts-grid-line" d="M 255.5 152 L 255.5 336" opacity="1"></path><path fill="none" data-z-index="1" class="highcharts-grid-line" d="M 280.5 152 L 280.5 336" opacity="1"></path><path fill="none" data-z-index="1" class="highcharts-grid-line" d="M 305.5 152 L 305.5 336" opacity="1"></path><path fill="none" data-z-index="1" class="highcharts-grid-line" d="M 330.5 152 L 330.5 336" opacity="1"></path><path fill="none" data-z-index="1" class="highcharts-grid-line" d="M 355.5 152 L 355.5 336" opacity="1"></path><path fill="none" data-z-index="1" class="highcharts-grid-line" d="M 380.5 152 L 380.5 336" opacity="1"></path><path fill="none" data-z-index="1" class="highcharts-grid-line" d="M 405.5 152 L 405.5 336" opacity="1"></path><path fill="none" data-z-index="1" class="highcharts-grid-line" d="M 430.5 152 L 430.5 336" opacity="1"></path></g><g class="highcharts-grid highcharts-yaxis-grid" data-z-index="1"><path fill="none" stroke="#e6e6e6" stroke-width="1" data-z-index="1" class="highcharts-grid-line" d="M 56 336.5 L 436 336.5" opacity="1"></path><path fill="none" stroke="#e6e6e6" stroke-width="1" data-z-index="1" class="highcharts-grid-line" d="M 56 310.5 L 436 310.5" opacity="1"></path><path fill="none" stroke="#e6e6e6" stroke-width="1" data-z-index="1" class="highcharts-grid-line" d="M 56 283.5 L 436 283.5" opacity="1"></path><path fill="none" stroke="#e6e6e6" stroke-width="1" data-z-index="1" class="highcharts-grid-line" d="M 56 257.5 L 436 257.5" opacity="1"></path><path fill="none" stroke="#e6e6e6" stroke-width="1" data-z-index="1" class="highcharts-grid-line" d="M 56 231.5 L 436 231.5" opacity="1"></path><path fill="none" stroke="#e6e6e6" stroke-width="1" data-z-index="1" class="highcharts-grid-line" d="M 56 205.5 L 436 205.5" opacity="1"></path><path fill="none" stroke="#e6e6e6" stroke-width="1" data-z-index="1" class="highcharts-grid-line" d="M 56 178.5 L 436 178.5" opacity="1"></path><path fill="none" stroke="#e6e6e6" stroke-width="1" data-z-index="1" class="highcharts-grid-line" d="M 56 151.5 L 436 151.5" opacity="1"></path></g><g class="highcharts-grid highcharts-yaxis-grid" data-z-index="1"><path fill="none" data-z-index="1" class="highcharts-grid-line" d="M 56 336.5 L 436 336.5" opacity="1"></path><path fill="none" data-z-index="1" class="highcharts-grid-line" d="M 56 310.5 L 436 310.5" opacity="1"></path><path fill="none" data-z-index="1" class="highcharts-grid-line" d="M 56 283.5 L 436 283.5" opacity="1"></path><path fill="none" data-z-index="1" class="highcharts-grid-line" d="M 56 257.5 L 436 257.5" opacity="1"></path><path fill="none" data-z-index="1" class="highcharts-grid-line" d="M 56 231.5 L 436 231.5" opacity="1"></path><path fill="none" data-z-index="1" class="highcharts-grid-line" d="M 56 205.5 L 436 205.5" opacity="1"></path><path fill="none" data-z-index="1" class="highcharts-grid-line" d="M 56 178.5 L 436 178.5" opacity="1"></path><path fill="none" data-z-index="1" class="highcharts-grid-line" d="M 56 152.5 L 436 152.5" opacity="1"></path></g><rect fill="none" class="highcharts-plot-border" data-z-index="1" x="56" y="152" width="380" height="184"></rect><g class="highcharts-axis highcharts-xaxis" data-z-index="2"><path fill="none" class="highcharts-axis-line" stroke="#B9CFD7" stroke-width="0.5" data-z-index="7" d="M 56 336.25 L 436 336.25"></path></g><g class="highcharts-axis highcharts-yaxis" data-z-index="2"><path fill="none" class="highcharts-axis-line" data-z-index="7" d="M 56 152 L 56 336"></path></g><g class="highcharts-axis highcharts-yaxis" data-z-index="2"><path fill="none" class="highcharts-axis-line" data-z-index="7" d="M 436 152 L 436 336"></path></g><g class="highcharts-series-group" data-z-index="3"><g data-z-index="0.1" class="highcharts-series highcharts-series-0 highcharts-line-series" transform="translate(56,152) scale(1 1)" clip-path="url(#highcharts-z31swcn-741-)"><path fill="none" d="M 1.0382513661202 39.39571428571429 L 3.1147540983607 40.90714285714287 L 5.1912568306011 48.792857142857144 L 7.2677595628415 52.670000000000016 L 9.344262295082 56.64571428571429 L 11.420765027322 56.842857142857156 L 13.497267759563 56.44857142857144 L 15.573770491803 59.66857142857144 L 17.650273224044 58.19000000000001 L 19.726775956284 60.292857142857144 L 21.803278688525 58.91285714285715 L 23.879781420765 53.360000000000014 L 25.956284153005 52.670000000000016 L 28.032786885246 50.140000000000015 L 30.109289617486 53.59 L 32.185792349727 59.86571428571429 L 34.262295081967 66.20714285714287 L 36.338797814208 69.9857142857143 L 38.415300546448 68.3757142857143 L 40.491803278689 69.13142857142857 L 42.568306010929 70.28142857142858 L 44.644808743169 71.49714285714286 L 46.72131147541 70.28142857142858 L 48.79781420765 67.39 L 50.874316939891 64.43285714285715 L 52.950819672131 67.32428571428572 L 55.027322404372 71.66142857142857 L 57.103825136612 75.47285714285715 L 59.180327868852 78.9557142857143 L 61.256830601093 80.63142857142857 L 63.333333333333 82.07714285714286 L 65.409836065574 84.64 L 67.486338797814 90.09428571428572 L 69.562841530055 89.83142857142857 L 71.639344262295 88.28714285714287 L 73.715846994536 86.3157142857143 L 75.792349726776 82.99714285714286 L 77.868852459016 83.58857142857143 L 79.945355191257 88.1557142857143 L 82.021857923497 92.62428571428572 L 84.098360655738 93.34714285714286 L 86.174863387978 92.13142857142857 L 88.251366120219 91.21142857142857 L 90.327868852459 92.78857142857143 L 92.404371584699 90.68571428571428 L 94.48087431694 88.28714285714287 L 96.55737704918 82.96428571428572 L 98.633879781421 74.42142857142858 L 100.71038251366 72.22 L 102.7868852459 71.79285714285714 L 104.86338797814 68.73714285714286 L 106.93989071038 69.49285714285715 L 109.01639344262 69.13142857142857 L 111.09289617486 64.76142857142858 L 113.1693989071 61.44285714285715 L 115.24590163934 62.72428571428571 L 117.32240437158 58.321428571428584 L 119.39890710383 52.83428571428573 L 121.47540983607 50.86285714285714 L 123.55191256831 41.99142857142857 L 125.62841530055 38.90285714285716 L 127.70491803279 43.37142857142857 L 129.78142076503 47.87285714285716 L 131.85792349727 52.965714285714284 L 133.93442622951 56.61285714285715 L 136.01092896175 61.31142857142858 L 138.08743169399 60.85142857142857 L 140.16393442623 59.57000000000001 L 142.24043715847 59.89857142857143 L 144.31693989071 61.77142857142857 L 146.39344262295 61.47571428571429 L 148.46994535519 54.97 L 150.54644808743 51.717142857142875 L 152.62295081967 55.101428571428585 L 154.69945355191 58.12428571428572 L 156.77595628415 74.02714285714286 L 158.85245901639 77.11571428571429 L 160.92896174863 79.21857142857144 L 163.00546448087 78.89 L 165.08196721311 78.13428571428572 L 167.15846994536 77.24714285714286 L 169.2349726776 77.31285714285715 L 171.31147540984 75.93285714285715 L 173.38797814208 71.03714285714287 L 175.46448087432 65.74714285714286 L 177.54098360656 64.86 L 179.6174863388 68.14571428571429 L 181.69398907104 70.18285714285715 L 183.77049180328 71.5957142857143 L 185.84699453552 77.67428571428572 L 187.92349726776 77.93714285714286 L 190 77.57571428571428 L 192.07650273224 75.34142857142858 L 194.15300546448 72.25285714285715 L 196.22950819672 70.05142857142857 L 198.30601092896 62.36285714285715 L 200.3825136612 57.40142857142858 L 202.45901639344 59.471428571428575 L 204.53551912568 62.855714285714285 L 206.61202185792 67.85000000000001 L 208.68852459016 72.61428571428571 L 210.7650273224 76.32714285714286 L 212.84153005464 74.88142857142857 L 214.91803278689 75.07857142857144 L 216.99453551913 73.99428571428572 L 219.07103825137 73.2057142857143 L 221.14754098361 70.24857142857144 L 223.22404371585 62.625714285714295 L 225.30054644809 61.96857142857144 L 227.37704918033 64.26857142857143 L 229.45355191257 67.32428571428572 L 231.53005464481 72.08857142857143 L 233.60655737705 78.66000000000001 L 235.68306010929 82.47142857142858 L 237.75956284153 81.91285714285715 L 239.83606557377 81.94571428571429 L 241.91256830601 79.74428571428572 L 243.98907103825 77.31285714285715 L 246.06557377049 71.13571428571429 L 248.14207650273 63.447142857142865 L 250.21857923497 57.40142857142858 L 252.29508196721 60.260000000000005 L 254.37158469945 61.34428571428572 L 256.44808743169 65.02428571428572 L 258.52459016393 68.40857142857143 L 260.60109289617 70.15 L 262.67759562842 73.2057142857143 L 264.75409836066 70.38000000000001 L 266.8306010929 65.94428571428573 L 268.90710382514 65.68142857142858 L 270.98360655738 63.15142857142858 L 273.06010928962 59.76714285714286 L 275.13661202186 54.312857142857155 L 277.2131147541 50.534285714285716 L 279.28961748634 54.707142857142856 L 281.36612021858 53.09714285714287 L 283.44262295082 57.30285714285715 L 285.51912568306 61.70571428571429 L 287.5956284153 65.74714285714286 L 289.67213114754 63.578571428571436 L 291.74863387978 64.10428571428572 L 293.82513661202 63.18428571428572 L 295.90163934426 57.23714285714286 L 297.9781420765 51.52000000000001 L 300.05464480874 46.62428571428572 L 302.13114754098 50.10714285714286 L 304.20765027322 52.83428571428573 L 306.28415300546 57.072857142857146 L 308.3606557377 64.00571428571429 L 310.43715846995 66.33857142857143 L 312.51366120219 68.54 L 314.59016393443 64.86 L 316.66666666667 70.47857142857143 L 318.74316939891 68.60571428571428 L 320.81967213115 67.55428571428573 L 322.89617486339 61.902857142857144 L 324.97267759563 59.471428571428575 L 327.04918032787 63.97285714285715 L 329.12568306011 65.28714285714287 L 331.20218579235 70.80714285714286 L 333.27868852459 74.78285714285715 L 335.35519125683 78.36428571428571 L 337.43169398907 78.82428571428572 L 339.50819672131 79.05428571428573 L 341.58469945355 81.22285714285715 L 343.66120218579 81.12428571428572 L 345.73770491803 78.49571428571429 L 347.81420765027 71.10285714285715 L 349.89071038251 66.96285714285715 L 351.96721311475 72.87714285714286 L 354.04371584699 75.11142857142858 L 356.12021857923 80.30285714285715 L 358.19672131148 85.00142857142858 L 360.27322404372 88.64857142857143 L 362.34972677596 89.73285714285714 L 364.4262295082 89.7657142857143 L 366.50273224044 92.9857142857143 L 368.57923497268 90.71857142857144 L 370.65573770492 84.67285714285715 L 372.73224043716 77.11571428571429 L 374.8087431694 74.09285714285714 L 376.88524590164 75.83428571428571 L 378.96174863388 64.07142857142858" class="highcharts-graph" data-z-index="1" stroke="#B00000" stroke-width="2" stroke-linejoin="round" stroke-linecap="round"></path></g><g data-z-index="0.1" class="highcharts-markers highcharts-series-0 highcharts-line-series" transform="translate(56,152) scale(1 1)" clip-path="none"></g><g data-z-index="0.1" class="highcharts-series highcharts-series-1 highcharts-line-series" transform="translate(56,152) scale(1 1)" clip-path="url(#highcharts-z31swcn-741-)"><path fill="none" d="M 1.0382513661202 157.81285714285715 L 3.1147540983607 158.79857142857142 L 5.1912568306011 158.96285714285713 L 7.2677595628415 159.85 L 9.344262295082 160.21142857142857 L 11.420765027322 159.68571428571428 L 13.497267759563 159.75142857142856 L 15.573770491803 159.62 L 17.650273224044 159.78428571428572 L 19.726775956284 159.58714285714285 L 21.803278688525 159.75142857142856 L 23.879781420765 160.24428571428572 L 25.956284153005 161.62428571428572 L 28.032786885246 161.42714285714285 L 30.109289617486 162.05142857142857 L 32.185792349727 162.51142857142858 L 34.262295081967 162.5442857142857 L 36.338797814208 161.69 L 38.415300546448 161.42714285714285 L 40.491803278689 161.13142857142856 L 42.568306010929 161.42714285714285 L 44.644808743169 162.15 L 46.72131147541 162.31428571428572 L 48.79781420765 161.49285714285713 L 50.874316939891 161.59142857142857 L 52.950819672131 162.01857142857142 L 55.027322404372 162.80714285714285 L 57.103825136612 164.5157142857143 L 59.180327868852 164.87714285714287 L 61.256830601093 163.79285714285714 L 63.333333333333 163.9242857142857 L 65.409836065574 164.28571428571428 L 67.486338797814 165.37 L 69.562841530055 165.99428571428572 L 71.639344262295 166.06 L 73.715846994536 165.86285714285714 L 75.792349726776 165.23857142857142 L 77.868852459016 165.79714285714286 L 79.945355191257 166.4542857142857 L 82.021857923497 167.57142857142858 L 84.098360655738 168.19571428571427 L 86.174863387978 168.32714285714286 L 88.251366120219 168.26142857142858 L 90.327868852459 168.49142857142857 L 92.404371584699 168.85285714285715 L 94.48087431694 168.82 L 96.55737704918 169.28 L 98.633879781421 168.91857142857143 L 100.71038251366 168.03142857142856 L 102.7868852459 168.78714285714287 L 104.86338797814 168.72142857142856 L 106.93989071038 168.52428571428572 L 109.01639344262 168.39285714285714 L 111.09289617486 167.14428571428573 L 113.1693989071 166.32285714285715 L 115.24590163934 166.02714285714285 L 117.32240437158 165.14 L 119.39890710383 164.41714285714286 L 121.47540983607 162.80714285714285 L 123.55191256831 160.90142857142857 L 125.62841530055 159.91571428571427 L 127.70491803279 158.8642857142857 L 129.78142076503 157.3857142857143 L 131.85792349727 156.72857142857143 L 133.93442622951 155.51285714285714 L 136.01092896175 154.46142857142857 L 138.08743169399 154.36285714285714 L 140.16393442623 154.06714285714287 L 142.24043715847 154.16571428571427 L 144.31693989071 155.87428571428572 L 146.39344262295 155.80857142857144 L 148.46994535519 156.26857142857142 L 150.54644808743 156.6957142857143 L 152.62295081967 157.55 L 154.69945355191 158.56857142857143 L 156.77595628415 164.22 L 158.85245901639 165.43571428571428 L 160.92896174863 165.63285714285715 L 163.00546448087 166.02714285714285 L 165.08196721311 165.6 L 167.15846994536 166.29 L 169.2349726776 166.71714285714285 L 171.31147540984 166.84857142857143 L 173.38797814208 167.07857142857142 L 175.46448087432 166.71714285714285 L 177.54098360656 165.43571428571428 L 179.6174863388 165.73142857142858 L 181.69398907104 166.15857142857143 L 183.77049180328 165.6 L 185.84699453552 165.50142857142856 L 187.92349726776 165.50142857142856 L 190 165.2057142857143 L 192.07650273224 165.27142857142857 L 194.15300546448 164.74571428571429 L 196.22950819672 164.45 L 198.30601092896 163.10285714285715 L 200.3825136612 162.64285714285714 L 202.45901639344 164.25285714285715 L 204.53551912568 164.28571428571428 L 206.61202185792 164.3842857142857 L 208.68852459016 164.12142857142857 L 210.7650273224 163.79285714285714 L 212.84153005464 163.85857142857142 L 214.91803278689 165.0742857142857 L 216.99453551913 164.48285714285714 L 219.07103825137 163.6614285714286 L 221.14754098361 163.3657142857143 L 223.22404371585 163.07 L 225.30054644809 162.84 L 227.37704918033 163.39857142857142 L 229.45355191257 163.62857142857143 L 231.53005464481 164.15428571428572 L 233.60655737705 164.91 L 235.68306010929 164.81142857142856 L 237.75956284153 165.53428571428572 L 239.83606557377 165.73142857142858 L 241.91256830601 164.97571428571428 L 243.98907103825 164.84428571428572 L 246.06557377049 165.33714285714285 L 248.14207650273 164.68 L 250.21857923497 163.89142857142858 L 252.29508196721 163.59571428571428 L 254.37158469945 164.58142857142857 L 256.44808743169 164.54857142857142 L 258.52459016393 163.99 L 260.60109289617 164.02285714285713 L 262.67759562842 164.08857142857144 L 264.75409836066 164.48285714285714 L 266.8306010929 163.49714285714285 L 268.90710382514 163.3 L 270.98360655738 163.33285714285714 L 273.06010928962 162.61 L 275.13661202186 163.1357142857143 L 277.2131147541 162.5442857142857 L 279.28961748634 162.38 L 281.36612021858 162.87285714285713 L 283.44262295082 162.6757142857143 L 285.51912568306 162.80714285714285 L 287.5956284153 162.08428571428573 L 289.67213114754 162.84 L 291.74863387978 162.08428571428573 L 293.82513661202 161.19714285714286 L 295.90163934426 160.21142857142857 L 297.9781420765 159.85 L 300.05464480874 159.22571428571428 L 302.13114754098 160.31 L 304.20765027322 160.4742857142857 L 306.28415300546 160.90142857142857 L 308.3606557377 161.55857142857144 L 310.43715846995 161.49285714285713 L 312.51366120219 161.92000000000002 L 314.59016393443 162.77428571428572 L 316.66666666667 164.08857142857144 L 318.74316939891 164.0557142857143 L 320.81967213115 164.35142857142858 L 322.89617486339 164.54857142857142 L 324.97267759563 164.35142857142858 L 327.04918032787 164.94285714285715 L 329.12568306011 166.42142857142858 L 331.20218579235 165.73142857142858 L 333.27868852459 166.38857142857142 L 335.35519125683 167.0457142857143 L 337.43169398907 167.07857142857142 L 339.50819672131 167.34142857142857 L 341.58469945355 168.13 L 343.66120218579 168.06428571428572 L 345.73770491803 169.21428571428572 L 347.81420765027 168.75428571428571 L 349.89071038251 168.26142857142858 L 351.96721311475 168.95142857142858 L 354.04371584699 168.2942857142857 L 356.12021857923 169.01714285714286 L 358.19672131148 169.08285714285714 L 360.27322404372 170.1342857142857 L 362.34972677596 170.06857142857143 L 364.4262295082 170.29857142857142 L 366.50273224044 170.9557142857143 L 368.57923497268 171.15285714285716 L 370.65573770492 170.56142857142856 L 372.73224043716 169.83857142857144 L 374.8087431694 169.14857142857142 L 376.88524590164 168.78714285714287 L 378.96174863388 167.30857142857144" class="highcharts-graph" data-z-index="1" stroke="#FF8028" stroke-width="2" stroke-linejoin="round" stroke-linecap="round"></path></g><g data-z-index="0.1" class="highcharts-markers highcharts-series-1 highcharts-line-series" transform="translate(56,152) scale(1 1)" clip-path="none"></g><g data-z-index="0.1" class="highcharts-series highcharts-series-2 highcharts-line-series" transform="translate(56,152) scale(1 1)" clip-path="url(#highcharts-z31swcn-1108-)"><path fill="none" d="M 1.0382513661202 88.79577142857141 L 3.1147540983607 91.41172571428571 L 5.1912568306011 86.65033142857142 L 7.2677595628415 87.32745142857142 L 9.344262295082 85.80130285714284 L 11.420765027322 83.47606857142856 L 13.497267759563 84.05750857142856 L 15.573770491803 80.91321142857142 L 17.650273224044 82.81156571428569 L 19.726775956284 80.25344 L 21.803278688525 82.08870857142855 L 23.879781420765 88.40358857142856 L 25.956284153005 94.42985142857141 L 28.032786885246 95.34879999999998 L 30.109289617486 95.52018285714284 L 32.185792349727 92.99517714285713 L 34.262295081967 88.24219428571428 L 36.338797814208 81.12980571428571 L 38.415300546448 81.36690285714283 L 40.491803278689 79.33817142857141 L 42.568306010929 79.64676571428569 L 44.644808743169 81.89734857142855 L 46.72131147541 83.74838857142856 L 48.79781420765 82.53083428571428 L 50.874316939891 85.47378285714285 L 52.950819672131 84.95647999999998 L 55.027322404372 84.82294857142857 L 57.103825136612 89.61641142857141 L 59.180327868852 88.29581714285712 L 61.256830601093 81.23021714285713 L 63.333333333333 80.45005714285713 L 65.409836065574 79.69145142857141 L 67.486338797814 79.70354285714284 L 69.562841530055 83.47974857142856 L 71.639344262295 85.46221714285714 L 73.715846994536 86.39010285714285 L 75.792349726776 86.3480457142857 L 77.868852459016 88.69693714285714 L 79.945355191257 87.76011428571427 L 82.021857923497 89.48130285714284 L 84.098360655738 92.34749714285714 L 86.174863387978 94.31261714285714 L 88.251366120219 94.82939428571427 L 90.327868852459 94.6133257142857 L 92.404371584699 98.66395428571428 L 94.48087431694 100.62223999999999 L 96.55737704918 107.40816 L 98.633879781421 111.64541714285713 L 100.71038251366 108.89803428571427 L 102.7868852459 112.72470857142856 L 104.86338797814 114.31446857142856 L 106.93989071038 112.94918857142856 L 109.01639344262 112.57119999999999 L 111.09289617486 109.68450285714286 L 113.1693989071 108.17307428571428 L 115.24590163934 106.09019428571428 L 117.32240437158 105.1086857142857 L 119.39890710383 105.51138285714285 L 121.47540983607 100.31627428571429 L 123.55191256831 98.48941714285714 L 125.62841530055 96.73826285714284 L 127.70491803279 90.03487999999999 L 129.78142076503 81.21759999999999 L 131.85792349727 74.58623999999999 L 133.93442622951 66.43609142857142 L 136.01092896175 57.428502857142846 L 138.08743169399 57.48054857142856 L 140.16393442623 57.53417142857141 L 142.24043715847 57.61723428571426 L 144.31693989071 63.02893714285712 L 146.39344262295 63.039451428571425 L 148.46994535519 71.01243428571426 L 150.54644808743 75.48836571428569 L 152.62295081967 76.12342857142856 L 154.69945355191 77.78678857142856 L 156.77595628415 89.44345142857142 L 158.85245901639 92.69078857142856 L 160.92896174863 91.84754285714284 L 163.00546448087 94.10758857142856 L 165.08196721311 92.62822857142856 L 167.15846994536 96.78557714285714 L 169.2349726776 98.83638857142856 L 171.31147540984 100.56335999999999 L 173.38797814208 105.25010285714283 L 175.46448087432 107.1658057142857 L 177.54098360656 102.08372571428569 L 179.6174863388 101.10221714285714 L 181.69398907104 101.59165714285713 L 183.77049180328 97.94319999999999 L 185.84699453552 92.53622857142857 L 187.92349726776 92.3096457142857 L 190 91.15990857142856 L 192.07650273224 93.38683428571429 L 194.15300546448 93.41837714285712 L 196.22950819672 93.8037257142857 L 198.30601092896 93.68281142857141 L 200.3825136612 95.312 L 202.45901639344 100.63485714285713 L 204.53551912568 98.44841142857142 L 206.61202185792 95.21579428571427 L 208.68852459016 90.17787428571427 L 210.7650273224 85.33814857142856 L 212.84153005464 86.96207999999999 L 214.91803278689 92.65398857142857 L 216.99453551913 90.72829714285713 L 219.07103825137 87.49410285714283 L 221.14754098361 88.63647999999999 L 223.22404371585 93.34477714285713 L 225.30054644809 92.84219428571427 L 227.37704918033 93.54349714285713 L 229.45355191257 92.21081142857142 L 231.53005464481 90.77298285714285 L 233.60655737705 88.72847999999999 L 235.68306010929 84.64157714285713 L 237.75956284153 88.90774857142857 L 239.83606557377 89.89293714285714 L 241.91256830601 88.06923428571427 L 243.98907103825 89.60799999999999 L 246.06557377049 97.06946285714284 L 248.14207650273 99.74797714285714 L 250.21857923497 100.49711999999998 L 252.29508196721 97.31181714285714 L 254.37158469945 100.76996571428572 L 256.44808743169 98.0504457142857 L 258.52459016393 92.99359999999999 L 260.60109289617 91.75343999999998 L 262.67759562842 89.52125714285712 L 264.75409836066 93.69490285714284 L 266.8306010929 92.69867428571428 L 268.90710382514 92.02575999999999 L 270.98360655738 94.09391999999998 L 273.06010928962 93.48409142857142 L 275.13661202186 99.42203428571428 L 277.2131147541 99.48722285714284 L 279.28961748634 96.09163428571428 L 281.36612021858 99.15181714285713 L 283.44262295082 95.51755428571428 L 285.51912568306 92.89686857142856 L 287.5956284153 86.56989714285713 L 289.67213114754 91.62358857142856 L 291.74863387978 87.9046857142857 L 293.82513661202 84.77615999999999 L 295.90163934426 85.34340571428571 L 297.9781420765 88.1664914285714 L 300.05464480874 89.1926857142857 L 302.13114754098 90.98379428571427 L 304.20765027322 89.70841142857142 L 306.28415300546 88.32893714285713 L 308.3606557377 85.68038857142857 L 310.43715846995 83.43769142857141 L 312.51366120219 83.46502857142856 L 314.59016393443 90.33979428571426 L 316.66666666667 91.7907657142857 L 318.74316939891 93.13764571428571 L 320.81967213115 95.29307428571428 L 322.89617486339 100.24793142857142 L 324.97267759563 101.05069714285713 L 327.04918032787 100.53023999999999 L 329.12568306011 106.15433142857141 L 331.20218579235 99.15339428571427 L 333.27868852459 99.22751999999998 L 335.35519125683 99.62390857142856 L 337.43169398907 99.4194057142857 L 339.50819672131 100.55074285714285 L 341.58469945355 102.82340571428571 L 343.66120218579 102.56527999999999 L 345.73770491803 110.32482285714285 L 347.81420765027 113.00701714285714 L 349.89071038251 113.3045714285714 L 351.96721311475 112.80619428571428 L 354.04371584699 108.17254857142856 L 356.12021857923 108.04111999999999 L 358.19672131148 104.78537142857141 L 360.27322404372 107.5522057142857 L 362.34972677596 106.30626285714284 L 364.4262295082 107.56271999999998 L 366.50273224044 108.65410285714285 L 368.57923497268 111.596 L 370.65573770492 112.87295999999999 L 372.73224043716 114.34653714285713 L 374.8087431694 112.9618057142857 L 376.88524590164 110.06143999999999 L 378.96174863388 110.83213714285714" class="highcharts-graph" data-z-index="1" stroke="#474747" stroke-width="2" stroke-linejoin="round" stroke-linecap="round"></path></g><g data-z-index="0.1" class="highcharts-markers highcharts-series-2 highcharts-line-series" transform="translate(56,152) scale(1 1)" clip-path="none"></g></g><text x="10" text-anchor="start" class="highcharts-title" data-z-index="4" style="color:#000000;font-size:14px;font-weight:bold;fill:#000000;" y="21"><tspan>Arbeitslose, Langzeitarbeitslose und Anteil der</tspan><tspan dy="17" x="10">Langzeitarbeitslosen am Total</tspan></text><text x="10" text-anchor="start" class="highcharts-subtitle" data-z-index="4" style="color:#000000;font-size:12px;font-weight:normal;font-family:Arial;fill:#000000;" y="57"><tspan>Basel-Stadt</tspan></text><text x="10" text-anchor="start" class="highcharts-caption" data-z-index="4" style="color:#666666;fill:#666666;" y="385"></text><g class="highcharts-legend" data-z-index="7" transform="translate(48,72)"><rect fill="none" class="highcharts-legend-box" rx="0" ry="0" x="0" y="0" width="342" height="68" visibility="visible"></rect><g data-z-index="1"><g><g class="highcharts-legend-item highcharts-line-series highcharts-color-undefined highcharts-series-0" data-z-index="1" transform="translate(8,3)"><path fill="none" d="M 0 11 L 16 11" class="highcharts-graph" stroke="#B00000" stroke-width="2"></path><text x="21" style="color:#333333;cursor:pointer;font-size:12px;font-weight:normal;fill:#333333;" text-anchor="start" data-z-index="2" y="15"><tspan>Arbeitslose</tspan></text></g><g class="highcharts-legend-item highcharts-line-series highcharts-color-undefined highcharts-series-1" data-z-index="1" transform="translate(8,22)"><path fill="none" d="M 0 11 L 16 11" class="highcharts-graph" stroke="#FF8028" stroke-width="2"></path><text x="21" y="15" style="color:#333333;cursor:pointer;font-size:12px;font-weight:normal;fill:#333333;" text-anchor="start" data-z-index="2"><tspan>Langzeitarbeitslose</tspan></text></g><g class="highcharts-legend-item highcharts-line-series highcharts-color-undefined highcharts-series-2" data-z-index="1" transform="translate(8,41)"><path fill="none" d="M 0 11 L 16 11" class="highcharts-graph" stroke="#474747" stroke-width="2"></path><text x="21" y="15" style="color:#333333;cursor:pointer;font-size:12px;font-weight:normal;fill:#333333;" text-anchor="start" data-z-index="2"><tspan>Anteil Langzeitarbeitslose am Total (rechte Skala)</tspan></text></g></g></g></g><g class="highcharts-axis-labels highcharts-xaxis-labels" data-z-index="7"><text x="59.63097623047067" style="color:#000000;cursor:default;font-size:11px;fill:#000000;" text-anchor="end" transform="translate(0,0) rotate(-45 59.63097623047067 352)" y="352" opacity="1">2005</text><text x="84.54900901735567" style="color:#000000;cursor:default;font-size:11px;fill:#000000;" text-anchor="end" transform="translate(0,0) rotate(-45 84.54900901735567 352)" y="352" opacity="1">2006</text><text x="109.46704180424067" style="color:#000000;cursor:default;font-size:11px;fill:#000000;" text-anchor="end" transform="translate(0,0) rotate(-45 109.46704180424067 352)" y="352" opacity="1">2007</text><text x="134.3850745911307" style="color:#000000;cursor:default;font-size:11px;fill:#000000;" text-anchor="end" transform="translate(0,0) rotate(-45 134.3850745911307 352)" y="352" opacity="1">2008</text><text x="159.30310737801068" style="color:#000000;cursor:default;font-size:11px;fill:#000000;" text-anchor="end" transform="translate(0,0) rotate(-45 159.30310737801068 352)" y="352" opacity="1">2009</text><text x="184.22114016490067" style="color:#000000;cursor:default;font-size:11px;fill:#000000;" text-anchor="end" transform="translate(0,0) rotate(-45 184.22114016490067 352)" y="352" opacity="1">2010</text><text x="209.1391729517807" style="color:#000000;cursor:default;font-size:11px;fill:#000000;" text-anchor="end" transform="translate(0,0) rotate(-45 209.1391729517807 352)" y="352" opacity="1">2011</text><text x="234.0572057386707" style="color:#000000;cursor:default;font-size:11px;fill:#000000;" text-anchor="end" transform="translate(0,0) rotate(-45 234.0572057386707 352)" y="352" opacity="1">2012</text><text x="258.97523852555065" style="color:#000000;cursor:default;font-size:11px;fill:#000000;" text-anchor="end" transform="translate(0,0) rotate(-45 258.97523852555065 352)" y="352" opacity="1">2013</text><text x="283.8932713124407" style="color:#000000;cursor:default;font-size:11px;fill:#000000;" text-anchor="end" transform="translate(0,0) rotate(-45 283.8932713124407 352)" y="352" opacity="1">2014</text><text x="308.81130409932064" style="color:#000000;cursor:default;font-size:11px;fill:#000000;" text-anchor="end" transform="translate(0,0) rotate(-45 308.81130409932064 352)" y="352" opacity="1">2015</text><text x="333.72933688621066" style="color:#000000;cursor:default;font-size:11px;fill:#000000;" text-anchor="end" transform="translate(0,0) rotate(-45 333.72933688621066 352)" y="352" opacity="1">2016</text><text x="358.6473696730907" style="color:#000000;cursor:default;font-size:11px;fill:#000000;" text-anchor="end" transform="translate(0,0) rotate(-45 358.6473696730907 352)" y="352" opacity="1">2017</text><text x="383.56540245998065" style="color:#000000;cursor:default;font-size:11px;fill:#000000;" text-anchor="end" transform="translate(0,0) rotate(-45 383.56540245998065 352)" y="352" opacity="1">2018</text><text x="408.48343524686067" style="color:#000000;cursor:default;font-size:11px;fill:#000000;" text-anchor="end" transform="translate(0,0) rotate(-45 408.48343524686067 352)" y="352" opacity="1">2019</text><text x="433.40146803375063" style="color:#000000;cursor:default;font-size:11px;fill:#000000;" text-anchor="end" transform="translate(0,0) rotate(-45 433.40146803375063 352)" y="352" opacity="1">2020</text></g><g class="highcharts-axis-labels highcharts-yaxis-labels" data-z-index="7"><text x="41" style="color:#000000;cursor:default;font-size:11px;fill:#000000;" text-anchor="end" transform="translate(0,0)" y="341" opacity="1">0</text><text x="41" style="color:#000000;cursor:default;font-size:11px;fill:#000000;" text-anchor="end" transform="translate(0,0)" y="314" opacity="1">800</text><text x="41" style="color:#000000;cursor:default;font-size:11px;fill:#000000;" text-anchor="end" transform="translate(0,0)" y="288" opacity="1"><tspan>1 600</tspan></text><text x="41" style="color:#000000;cursor:default;font-size:11px;fill:#000000;" text-anchor="end" transform="translate(0,0)" y="262" opacity="1"><tspan>2 400</tspan></text><text x="41" style="color:#000000;cursor:default;font-size:11px;fill:#000000;" text-anchor="end" transform="translate(0,0)" y="235" opacity="1"><tspan>3 200</tspan></text><text x="41" style="color:#000000;cursor:default;font-size:11px;fill:#000000;" text-anchor="end" transform="translate(0,0)" y="209" opacity="1"><tspan>4 000</tspan></text><text x="41" style="color:#000000;cursor:default;font-size:11px;fill:#000000;" text-anchor="end" transform="translate(0,0)" y="183" opacity="1"><tspan>4 800</tspan></text><text x="41" style="color:#000000;cursor:default;font-size:11px;fill:#000000;" text-anchor="end" transform="translate(0,0)" y="157" opacity="1"><tspan>5 600</tspan></text></g><g class="highcharts-axis-labels highcharts-yaxis-labels" data-z-index="7"><text x="451" style="color:#000000;cursor:default;font-size:11px;fill:#000000;" text-anchor="start" transform="translate(0,0)" y="341" opacity="1">0%</text><text x="451" style="color:#000000;cursor:default;font-size:11px;fill:#000000;" text-anchor="start" transform="translate(0,0)" y="314" opacity="1">5%</text><text x="451" style="color:#000000;cursor:default;font-size:11px;fill:#000000;" text-anchor="start" transform="translate(0,0)" y="288" opacity="1">10%</text><text x="451" style="color:#000000;cursor:default;font-size:11px;fill:#000000;" text-anchor="start" transform="translate(0,0)" y="262" opacity="1">15%</text><text x="451" style="color:#000000;cursor:default;font-size:11px;fill:#000000;" text-anchor="start" transform="translate(0,0)" y="235" opacity="1">20%</text><text x="451" style="color:#000000;cursor:default;font-size:11px;fill:#000000;" text-anchor="start" transform="translate(0,0)" y="209" opacity="1">25%</text><text x="451" style="color:#000000;cursor:default;font-size:11px;fill:#000000;" text-anchor="start" transform="translate(0,0)" y="183" opacity="1">30%</text><text x="451" style="color:#000000;cursor:default;font-size:11px;fill:#000000;" text-anchor="start" transform="translate(0,0)" y="157" opacity="1">35%</text></g><text x="10" class="highcharts-credits" text-anchor="start" data-z-index="8" style="cursor:default;color:#000000;font-size:10px;fill:#000000;" y="403"><tspan>Quelle: Staatssekretariat für Wirtschaft SECO, Arbeitslosenstatistik.</tspan><tspan x="10" dy="13">Zuletzt geändert: 2020-4-7</tspan></text></svg>