<?xml version="1.0" standalone="no"?><!DOCTYPE svg PUBLIC "-//W3C//DTD SVG 1.1//EN" "http://www.w3.org/Graphics/SVG/1.1/DTD/svg11.dtd"><svg xmlns:xlink="http://www.w3.org/1999/xlink" version="1.1" class="highcharts-root" style="font-family:Inter,Helvetica Neue,Helvetica,Arial,sans-serif;font-size:12px;" xmlns="http://www.w3.org/2000/svg" width="600" height="428"><desc>Created with Highcharts 8.2.2</desc><defs><clipPath id="highcharts-nwt8yqp-56-"><rect x="0" y="0" width="538" height="237" fill="none"></rect></clipPath><clipPath id="highcharts-nwt8yqp-81-"><rect x="0" y="0" width="538" height="237" fill="none"></rect></clipPath><clipPath id="highcharts-nwt8yqp-106-"><rect x="52" y="99" width="538" height="237" fill="none"></rect></clipPath></defs><rect fill="#ffffff" class="highcharts-background" x="0" y="0" width="600" height="428" rx="0" ry="0"></rect><rect fill="none" class="highcharts-plot-background" x="52" y="99" width="538" height="237"></rect><g class="highcharts-pane-group" data-z-index="0"></g><g class="highcharts-grid highcharts-xaxis-grid" data-z-index="1"><path fill="none" data-z-index="1" class="highcharts-grid-line" d="M 73.5 99 L 73.5 336" opacity="1"></path><path fill="none" data-z-index="1" class="highcharts-grid-line" d="M 96.5 99 L 96.5 336" opacity="1"></path><path fill="none" data-z-index="1" class="highcharts-grid-line" d="M 118.5 99 L 118.5 336" opacity="1"></path><path fill="none" data-z-index="1" class="highcharts-grid-line" d="M 141.5 99 L 141.5 336" opacity="1"></path><path fill="none" data-z-index="1" class="highcharts-grid-line" d="M 163.5 99 L 163.5 336" opacity="1"></path><path fill="none" data-z-index="1" class="highcharts-grid-line" d="M 186.5 99 L 186.5 336" opacity="1"></path><path fill="none" data-z-index="1" class="highcharts-grid-line" d="M 208.5 99 L 208.5 336" opacity="1"></path><path fill="none" data-z-index="1" class="highcharts-grid-line" d="M 230.5 99 L 230.5 336" opacity="1"></path><path fill="none" data-z-index="1" class="highcharts-grid-line" d="M 253.5 99 L 253.5 336" opacity="1"></path><path fill="none" data-z-index="1" class="highcharts-grid-line" d="M 275.5 99 L 275.5 336" opacity="1"></path><path fill="none" data-z-index="1" class="highcharts-grid-line" d="M 298.5 99 L 298.5 336" opacity="1"></path><path fill="none" data-z-index="1" class="highcharts-grid-line" d="M 320.5 99 L 320.5 336" opacity="1"></path><path fill="none" data-z-index="1" class="highcharts-grid-line" d="M 342.5 99 L 342.5 336" opacity="1"></path><path fill="none" data-z-index="1" class="highcharts-grid-line" d="M 365.5 99 L 365.5 336" opacity="1"></path><path fill="none" data-z-index="1" class="highcharts-grid-line" d="M 387.5 99 L 387.5 336" opacity="1"></path><path fill="none" data-z-index="1" class="highcharts-grid-line" d="M 410.5 99 L 410.5 336" opacity="1"></path><path fill="none" data-z-index="1" class="highcharts-grid-line" d="M 432.5 99 L 432.5 336" opacity="1"></path><path fill="none" data-z-index="1" class="highcharts-grid-line" d="M 455.5 99 L 455.5 336" opacity="1"></path><path fill="none" data-z-index="1" class="highcharts-grid-line" d="M 477.5 99 L 477.5 336" opacity="1"></path><path fill="none" data-z-index="1" class="highcharts-grid-line" d="M 499.5 99 L 499.5 336" opacity="1"></path><path fill="none" data-z-index="1" class="highcharts-grid-line" d="M 522.5 99 L 522.5 336" opacity="1"></path><path fill="none" data-z-index="1" class="highcharts-grid-line" d="M 544.5 99 L 544.5 336" opacity="1"></path><path fill="none" data-z-index="1" class="highcharts-grid-line" d="M 567.5 99 L 567.5 336" opacity="1"></path><path fill="none" data-z-index="1" class="highcharts-grid-line" d="M 589.5 99 L 589.5 336" opacity="1"></path><path fill="none" data-z-index="1" class="highcharts-grid-line" d="M 51.5 99 L 51.5 336" opacity="1"></path></g><g class="highcharts-grid highcharts-yaxis-grid" data-z-index="1"><path fill="none" stroke="#e6e6e6" stroke-width="1" data-z-index="1" class="highcharts-grid-line" d="M 52 336.5 L 590 336.5" opacity="1"></path><path fill="none" stroke="#e6e6e6" stroke-width="1" data-z-index="1" class="highcharts-grid-line" d="M 52 289.5 L 590 289.5" opacity="1"></path><path fill="none" stroke="#e6e6e6" stroke-width="1" data-z-index="1" class="highcharts-grid-line" d="M 52 241.5 L 590 241.5" opacity="1"></path><path fill="none" stroke="#e6e6e6" stroke-width="1" data-z-index="1" class="highcharts-grid-line" d="M 52 194.5 L 590 194.5" opacity="1"></path><path fill="none" stroke="#e6e6e6" stroke-width="1" data-z-index="1" class="highcharts-grid-line" d="M 52 146.5 L 590 146.5" opacity="1"></path><path fill="none" stroke="#e6e6e6" stroke-width="1" data-z-index="1" class="highcharts-grid-line" d="M 52 98.5 L 590 98.5" opacity="1"></path></g><rect fill="none" class="highcharts-plot-border" data-z-index="1" x="52" y="99" width="538" height="237"></rect><g class="highcharts-axis highcharts-xaxis" data-z-index="2"><path fill="none" class="highcharts-axis-line" stroke="#B9CFD7" stroke-width="0.5" data-z-index="7" d="M 52 336.25 L 590 336.25"></path></g><g class="highcharts-axis highcharts-yaxis" data-z-index="2"><path fill="none" class="highcharts-axis-line" data-z-index="7" d="M 52 99 L 52 336"></path></g><g class="highcharts-series-group" data-z-index="3"><g class="highcharts-series highcharts-series-0 highcharts-line-series" data-z-index="0.1" opacity="1" transform="translate(52,99) scale(1 1)" clip-path="url(#highcharts-nwt8yqp-81-)"><path fill="none" d="M 11.208333333333 229.7952 L 33.625 233.5872 L 56.041666666667 234.9144 L 78.458333333333 234.9144 L 100.875 232.8288 L 123.29166666667 223.5384 L 145.70833333333 165.7104 L 168.125 54.98400000000001 L 190.54166666667 56.311200000000014 L 212.95833333333 149.40480000000002 L 235.375 170.8296 L 257.79166666667 155.0928 L 280.20833333333 133.668 L 302.625 136.512 L 325.04166666667 151.8696 L 347.45833333333 142.9584 L 369.875 94.9896 L 392.29166666667 46.452 L 414.70833333333 74.1336 L 437.125 133.8576 L 459.54166666667 174.2424 L 481.95833333333 186.5664 L 504.375 196.0464 L 526.79166666667 212.54160000000002" class="highcharts-graph" data-z-index="1" stroke="#662673" stroke-width="2" stroke-linejoin="round" stroke-linecap="round"></path></g><g class="highcharts-markers highcharts-series-0 highcharts-line-series" data-z-index="0.1" opacity="1" transform="translate(52,99) scale(1 1)" clip-path="none"></g><g class="highcharts-series highcharts-series-1 highcharts-line-series" data-z-index="0.1" opacity="1" transform="translate(52,99) scale(1 1)" clip-path="url(#highcharts-nwt8yqp-81-)"><path fill="none" d="M 11.208333333333 233.7768 L 33.625 235.6728 L 56.041666666667 235.6728 L 78.458333333333 236.2416 L 100.875 234.5352 L 123.29166666667 228.2784 L 145.70833333333 193.7712 L 168.125 155.8512 L 190.54166666667 167.41680000000002 L 212.95833333333 193.392 L 235.375 199.6488 L 257.79166666667 194.1504 L 280.20833333333 177.6552 L 302.625 178.9824 L 325.04166666667 182.01600000000002 L 347.45833333333 177.6552 L 369.875 156.0408 L 392.29166666667 138.2184 L 414.70833333333 158.1264 L 437.125 195.4776 L 459.54166666667 217.092 L 481.95833333333 224.8656 L 504.375 228.2784 L 526.79166666667 231.5016" class="highcharts-graph" data-z-index="1" stroke="#008AC3" stroke-width="2" stroke-linejoin="round" stroke-linecap="round"></path></g><g class="highcharts-markers highcharts-series-1 highcharts-line-series" data-z-index="0.1" opacity="1" transform="translate(52,99) scale(1 1)" clip-path="none"></g></g><text x="10" text-anchor="start" class="highcharts-caption" data-z-index="4" style="color:#666666;fill:#666666;" y="385"></text><g class="highcharts-legend" data-z-index="7" transform="translate(44,56)"><rect fill="none" class="highcharts-legend-box" rx="0" ry="0" x="0" y="0" width="134" height="31" visibility="visible"></rect><g data-z-index="1"><g><g class="highcharts-legend-item highcharts-line-series highcharts-color-undefined highcharts-series-0" data-z-index="1" transform="translate(8,3)"><path fill="none" d="M 0 11 L 16 11" class="highcharts-graph" stroke="#662673" stroke-width="2"></path><text x="21" style="color:#333333;cursor:pointer;font-size:12px;font-weight:normal;fill:#333333;" text-anchor="start" data-z-index="2" y="15"><tspan>2019</tspan></text></g><g class="highcharts-legend-item highcharts-line-series highcharts-color-undefined highcharts-series-1" data-z-index="1" transform="translate(77,3)"><path fill="none" d="M 0 11 L 16 11" class="highcharts-graph" stroke="#008AC3" stroke-width="2"></path><text x="21" y="15" style="color:#333333;cursor:pointer;font-size:12px;font-weight:normal;fill:#333333;" text-anchor="start" data-z-index="2"><tspan>2020</tspan></text></g></g></g></g><g class="highcharts-axis-labels highcharts-xaxis-labels" data-z-index="7"><text x="65.80105819768434" style="color:#000000;cursor:default;font-size:11px;fill:#000000;" text-anchor="end" transform="translate(0,0) rotate(-45 65.80105819768434 352)" y="352" opacity="1">00:00</text><text x="88.21772486435034" style="color:#000000;cursor:default;font-size:11px;fill:#000000;" text-anchor="end" transform="translate(0,0) rotate(-45 88.21772486435034 352)" y="352" opacity="1">01:00</text><text x="110.63439153101734" style="color:#000000;cursor:default;font-size:11px;fill:#000000;" text-anchor="end" transform="translate(0,0) rotate(-45 110.63439153101734 352)" y="352" opacity="1">02:00</text><text x="133.05105819768735" style="color:#000000;cursor:default;font-size:11px;fill:#000000;" text-anchor="end" transform="translate(0,0) rotate(-45 133.05105819768735 352)" y="352" opacity="1">03:00</text><text x="155.46772486434733" style="color:#000000;cursor:default;font-size:11px;fill:#000000;" text-anchor="end" transform="translate(0,0) rotate(-45 155.46772486434733 352)" y="352" opacity="1">04:00</text><text x="177.88439153101734" style="color:#000000;cursor:default;font-size:11px;fill:#000000;" text-anchor="end" transform="translate(0,0) rotate(-45 177.88439153101734 352)" y="352" opacity="1">05:00</text><text x="200.30105819768735" style="color:#000000;cursor:default;font-size:11px;fill:#000000;" text-anchor="end" transform="translate(0,0) rotate(-45 200.30105819768735 352)" y="352" opacity="1">06:00</text><text x="222.71772486434733" style="color:#000000;cursor:default;font-size:11px;fill:#000000;" text-anchor="end" transform="translate(0,0) rotate(-45 222.71772486434733 352)" y="352" opacity="1">07:00</text><text x="245.13439153101731" style="color:#000000;cursor:default;font-size:11px;fill:#000000;" text-anchor="end" transform="translate(0,0) rotate(-45 245.13439153101731 352)" y="352" opacity="1">08:00</text><text x="267.5510581976873" style="color:#000000;cursor:default;font-size:11px;fill:#000000;" text-anchor="end" transform="translate(0,0) rotate(-45 267.5510581976873 352)" y="352" opacity="1">09:00</text><text x="289.96772486434736" style="color:#000000;cursor:default;font-size:11px;fill:#000000;" text-anchor="end" transform="translate(0,0) rotate(-45 289.96772486434736 352)" y="352" opacity="1">10:00</text><text x="312.38439153101734" style="color:#000000;cursor:default;font-size:11px;fill:#000000;" text-anchor="end" transform="translate(0,0) rotate(-45 312.38439153101734 352)" y="352" opacity="1">11:00</text><text x="334.8010581976873" style="color:#000000;cursor:default;font-size:11px;fill:#000000;" text-anchor="end" transform="translate(0,0) rotate(-45 334.8010581976873 352)" y="352" opacity="1">12:00</text><text x="357.21772486434736" style="color:#000000;cursor:default;font-size:11px;fill:#000000;" text-anchor="end" transform="translate(0,0) rotate(-45 357.21772486434736 352)" y="352" opacity="1">13:00</text><text x="379.63439153101734" style="color:#000000;cursor:default;font-size:11px;fill:#000000;" text-anchor="end" transform="translate(0,0) rotate(-45 379.63439153101734 352)" y="352" opacity="1">14:00</text><text x="402.0510581976873" style="color:#000000;cursor:default;font-size:11px;fill:#000000;" text-anchor="end" transform="translate(0,0) rotate(-45 402.0510581976873 352)" y="352" opacity="1">15:00</text><text x="424.46772486434736" style="color:#000000;cursor:default;font-size:11px;fill:#000000;" text-anchor="end" transform="translate(0,0) rotate(-45 424.46772486434736 352)" y="352" opacity="1">16:00</text><text x="446.88439153101734" style="color:#000000;cursor:default;font-size:11px;fill:#000000;" text-anchor="end" transform="translate(0,0) rotate(-45 446.88439153101734 352)" y="352" opacity="1">17:00</text><text x="469.3010581976873" style="color:#000000;cursor:default;font-size:11px;fill:#000000;" text-anchor="end" transform="translate(0,0) rotate(-45 469.3010581976873 352)" y="352" opacity="1">18:00</text><text x="491.71772486434736" style="color:#000000;cursor:default;font-size:11px;fill:#000000;" text-anchor="end" transform="translate(0,0) rotate(-45 491.71772486434736 352)" y="352" opacity="1">19:00</text><text x="514.1343915310173" style="color:#000000;cursor:default;font-size:11px;fill:#000000;" text-anchor="end" transform="translate(0,0) rotate(-45 514.1343915310173 352)" y="352" opacity="1">20:00</text><text x="536.5510581976873" style="color:#000000;cursor:default;font-size:11px;fill:#000000;" text-anchor="end" transform="translate(0,0) rotate(-45 536.5510581976873 352)" y="352" opacity="1">21:00</text><text x="558.9677248643472" style="color:#000000;cursor:default;font-size:11px;fill:#000000;" text-anchor="end" transform="translate(0,0) rotate(-45 558.9677248643472 352)" y="352" opacity="1">22:00</text><text x="581.3843915310173" style="color:#000000;cursor:default;font-size:11px;fill:#000000;" text-anchor="end" transform="translate(0,0) rotate(-45 581.3843915310173 352)" y="352" opacity="1">23:00</text></g><g class="highcharts-axis-labels highcharts-yaxis-labels" data-z-index="7"><text x="37" style="color:black;cursor:default;font-size:11px;fill:black;" text-anchor="end" transform="translate(0,0)" y="340" opacity="1">0</text><text x="37" style="color:black;cursor:default;font-size:11px;fill:black;" text-anchor="end" transform="translate(0,0)" y="293" opacity="1">250</text><text x="37" style="color:black;cursor:default;font-size:11px;fill:black;" text-anchor="end" transform="translate(0,0)" y="245" opacity="1">500</text><text x="37" style="color:black;cursor:default;font-size:11px;fill:black;" text-anchor="end" transform="translate(0,0)" y="198" opacity="1">750</text><text x="37" style="color:black;cursor:default;font-size:11px;fill:black;" text-anchor="end" transform="translate(0,0)" y="150" opacity="1"><tspan>1 000</tspan></text><text x="37" style="color:black;cursor:default;font-size:11px;fill:black;" text-anchor="end" transform="translate(0,0)" y="103" opacity="1"><tspan>1 250</tspan></text></g></svg>