<?xml version="1.0" standalone="no"?><!DOCTYPE svg PUBLIC "-//W3C//DTD SVG 1.1//EN" "http://www.w3.org/Graphics/SVG/1.1/DTD/svg11.dtd"><svg xmlns:xlink="http://www.w3.org/1999/xlink" version="1.1" class="highcharts-root" style="font-family:Arial;font-size:10px;color:#000000;fill:#000000;" xmlns="http://www.w3.org/2000/svg" viewBox="0 0 485 415"><desc>Created with Highstock 6.1.1</desc><defs><clipPath id="highcharts-glaeyij-6"><rect x="0" y="0" width="255" height="109" fill="none"></rect></clipPath><clipPath id="highcharts-glaeyij-7"><rect x="0" y="0" width="255" height="109" fill="none"></rect></clipPath></defs><rect fill="#fbfbfb" class="highcharts-background" x="0" y="0" width="320" height="221" rx="0" ry="0"></rect><rect fill="none" class="highcharts-plot-background" x="50" y="79" width="255" height="109"></rect><g class="highcharts-pane-group" data-z-index="0"></g><g class="highcharts-grid highcharts-xaxis-grid " data-z-index="1"><path fill="none" data-z-index="1" class="highcharts-grid-line" d="M 74.5 79 L 74.5 188" opacity="1"></path><path fill="none" data-z-index="1" class="highcharts-grid-line" d="M 120.5 79 L 120.5 188" opacity="1"></path><path fill="none" data-z-index="1" class="highcharts-grid-line" d="M 165.5 79 L 165.5 188" opacity="1"></path><path fill="none" data-z-index="1" class="highcharts-grid-line" d="M 211.5 79 L 211.5 188" opacity="1"></path><path fill="none" data-z-index="1" class="highcharts-grid-line" d="M 256.5 79 L 256.5 188" opacity="1"></path><path fill="none" data-z-index="1" class="highcharts-grid-line" d="M 302.5 79 L 302.5 188" opacity="1"></path></g><g class="highcharts-grid highcharts-yaxis-grid " data-z-index="1"><path fill="none" stroke="#B9CFD7" stroke-width="0.5" data-z-index="1" class="highcharts-grid-line" d="M 50 188.25 L 305 188.25" opacity="1"></path><path fill="none" stroke="#B9CFD7" stroke-width="0.5" data-z-index="1" class="highcharts-grid-line" d="M 50 170.25 L 305 170.25" opacity="1"></path><path fill="none" stroke="#B9CFD7" stroke-width="0.5" data-z-index="1" class="highcharts-grid-line" d="M 50 152.25 L 305 152.25" opacity="1"></path><path fill="none" stroke="#B9CFD7" stroke-width="0.5" data-z-index="1" class="highcharts-grid-line" d="M 50 134.25 L 305 134.25" opacity="1"></path><path fill="none" stroke="#B9CFD7" stroke-width="0.5" data-z-index="1" class="highcharts-grid-line" d="M 50 115.25 L 305 115.25" opacity="1"></path><path fill="none" stroke="#B9CFD7" stroke-width="0.5" data-z-index="1" class="highcharts-grid-line" d="M 50 97.25 L 305 97.25" opacity="1"></path><path fill="none" stroke="#B9CFD7" stroke-width="0.5" data-z-index="1" class="highcharts-grid-line" d="M 50 78.75 L 305 78.75" opacity="1"></path></g><rect fill="none" class="highcharts-plot-border" data-z-index="1" x="50" y="79" width="255" height="109"></rect><g class="highcharts-axis highcharts-xaxis " data-z-index="2"><path fill="none" class="highcharts-axis-line" stroke="#B9CFD7" stroke-width="0.5" data-z-index="7" d="M 50 188.25 L 305 188.25"></path></g><g class="highcharts-axis highcharts-yaxis " data-z-index="2"><path fill="none" class="highcharts-axis-line" data-z-index="7" d="M 50 79 L 50 188"></path></g><g class="highcharts-series-group" data-z-index="3"><g data-z-index="0.1" class="highcharts-series highcharts-series-0 highcharts-line-series " transform="translate(50,79) scale(1 1)" clip-path="url(#highcharts-glaeyij-7)"><path fill="none" d="M 2.4999999999998 30.447333333333333 L 7.0454545454544 30.625366666666665 L 11.590909090909 31.330233333333325 L 16.136363636363 32.064166666666665 L 20.681818181818 32.04963333333333 L 25.227272727273 32.064166666666665 L 29.772727272727 32.038733333333326 L 34.318181818182 31.67176666666667 L 38.863636363636 31.286633333333327 L 43.409090909091 30.32743333333333 L 47.954545454545 29.2556 L 52.5 28.7106 L 57.045454545454 29.07393333333333 L 61.590909090909 29.528099999999995 L 66.136363636364 29.651633333333336 L 70.681818181818 30.120333333333335 L 75.227272727273 29.52446666666667 L 79.772727272727 29.5608 L 84.318181818182 29.47359999999999 L 88.863636363636 29.684333333333328 L 93.409090909091 30.305633333333333 L 97.954545454545 30.036766666666665 L 102.5 30.054933333333324 L 107.04545454545 29.989533333333327 L 111.59090909091 30.116699999999994 L 116.13636363636 29.346433333333337 L 120.68181818182 29.386399999999995 L 125.22727272727 28.954033333333328 L 129.77272727273 28.597966666666665 L 134.31818181818 28.394499999999994 L 138.86363636364 28.801433333333335 L 143.40909090909 28.372699999999995 L 147.95454545455 27.151899999999998 L 152.5 26.665033333333326" class="highcharts-graph" data-z-index="1" stroke="#007A2F" stroke-width="2" stroke-linejoin="round" stroke-linecap="round"></path></g><g data-z-index="0.1" class="highcharts-markers highcharts-series-0 highcharts-line-series " transform="translate(50,79) scale(1 1)" clip-path="none"></g><g data-z-index="0.1" class="highcharts-series highcharts-series-1 highcharts-line-series " transform="translate(50,79) scale(1 1)" clip-path="url(#highcharts-glaeyij-7)"><path fill="none" d="M 157.04545454545 25.981966666666665 L 161.59090909091 25.16083333333333 L 166.13636363636 24.26339999999999 L 170.68181818182 23.318733333333327 L 175.22727272727 22.345 L 179.77272727273 21.36763333333333 L 184.31818181818 20.40116666666667 L 188.86363636364 19.463766666666658 L 193.40909090909 18.559066666666666 L 197.95454545455 17.687066666666666 L 202.5 16.851399999999998 L 207.04545454545 16.03753333333333 L 211.59090909091 15.245466666666658 L 216.13636363636 14.47156666666666 L 220.68181818182 13.70856666666667 L 225.22727272727 12.956466666666657 L 229.77272727273 12.211633333333324 L 234.31818181818 11.470433333333332 L 238.86363636364 10.736499999999992 L 243.40909090909 10.002566666666667 L 247.95454545455 9.275899999999993 L 252.5 8.55286666666666" class="highcharts-graph" data-z-index="1" stroke="#923F8D" stroke-width="2" stroke-linejoin="round" stroke-linecap="round"></path></g><g data-z-index="0.1" class="highcharts-markers highcharts-series-1 highcharts-line-series " transform="translate(50,79) scale(1 1)" clip-path="none"></g><g data-z-index="0.1" class="highcharts-series highcharts-series-2 highcharts-line-series " transform="translate(50,79) scale(1 1)" clip-path="url(#highcharts-glaeyij-7)"><path fill="none" d="M 157.04545454545 26.476100000000002 L 161.59090909091 26.167266666666663 L 166.13636363636 25.793033333333327 L 170.68181818182 25.36066666666666 L 175.22727272727 24.8956 L 179.77272727273 24.415999999999997 L 184.31818181818 23.936399999999992 L 188.86363636364 23.467699999999994 L 193.40909090909 23.024433333333334 L 197.95454545455 22.60296666666666 L 202.5 22.206933333333325 L 207.04545454545 21.832700000000003 L 211.59090909091 21.476633333333325 L 216.13636363636 21.14236666666666 L 220.68181818182 20.82263333333333 L 225.22727272727 20.52106666666667 L 229.77272727273 20.23766666666667 L 234.31818181818 19.9688 L 238.86363636364 19.718099999999993 L 243.40909090909 19.48193333333333 L 247.95454545455 19.2603 L 252.5 19.049566666666664" class="highcharts-graph" data-z-index="1" stroke="#DC440E" stroke-width="2" stroke-linejoin="round" stroke-linecap="round"></path></g><g data-z-index="0.1" class="highcharts-markers highcharts-series-2 highcharts-line-series " transform="translate(50,79) scale(1 1)" clip-path="none"></g><g data-z-index="0.1" class="highcharts-series highcharts-series-3 highcharts-line-series " transform="translate(50,79) scale(1 1)" clip-path="url(#highcharts-glaeyij-7)"><path fill="none" d="M 157.04545454545 26.992033333333325 L 161.59090909091 27.220933333333335 L 166.13636363636 27.380799999999994 L 170.68181818182 27.47526666666667 L 175.22727272727 27.522499999999994 L 179.77272727273 27.540666666666667 L 184.31818181818 27.544299999999993 L 188.86363636364 27.55156666666666 L 193.40909090909 27.573366666666658 L 197.95454545455 27.606066666666663 L 202.5 27.6533 L 207.04545454545 27.715066666666658 L 211.59090909091 27.79136666666666 L 216.13636363636 27.878566666666657 L 220.68181818182 27.97666666666666 L 225.22727272727 28.089299999999994 L 229.77272727273 28.220100000000002 L 234.31818181818 28.36906666666667 L 238.86363636364 28.536199999999994 L 243.40909090909 28.721499999999992 L 247.95454545455 28.924966666666663 L 252.5 29.142966666666666" class="highcharts-graph" data-z-index="1" stroke="#FFDA80" stroke-width="2" stroke-linejoin="round" stroke-linecap="round"></path></g><g data-z-index="0.1" class="highcharts-markers highcharts-series-3 highcharts-line-series " transform="translate(50,79) scale(1 1)" clip-path="none"></g></g><text x="2" text-anchor="start" class="highcharts-title" data-z-index="4" style="color:#000000;font-size:10px;font-weight:bold;fill:#000000;" y="9"><tspan>Bevölkerung Riehen und Bettingen</tspan></text><text x="2" text-anchor="start" class="highcharts-subtitle" data-z-index="4" style="color:#000000;font-size:10px;font-weight:normal;font-family:Arial;fill:#000000;" y="26"><tspan>Bevölkerungsszenarien Basel-Stadt, 2019</tspan></text><g class="highcharts-legend" data-z-index="7" transform="translate(50,42)"><rect fill="none" class="highcharts-legend-box" rx="0" ry="0" x="0" y="0" width="300" height="25" visibility="visible"></rect><g data-z-index="1"><g><g class="highcharts-legend-item highcharts-line-series highcharts-color-undefined highcharts-series-0" data-z-index="1" transform="translate(0,-5)"><path fill="none" d="M 0 10 L 16 10" class="highcharts-graph" stroke="#007A2F" stroke-width="2"></path><text x="21" style="color:#333333;font-size:10px;font-weight:normal;cursor:pointer;fill:#333333;" text-anchor="start" data-z-index="2" y="13"><tspan>Effektiv</tspan></text></g><g class="highcharts-legend-item highcharts-line-series highcharts-color-undefined highcharts-series-1" data-z-index="1" transform="translate(140,-5)"><path fill="none" d="M 0 10 L 16 10" class="highcharts-graph" stroke="#923F8D" stroke-width="2"></path><text x="21" y="13" style="color:#333333;font-size:10px;font-weight:normal;cursor:pointer;fill:#333333;" text-anchor="start" data-z-index="2"><tspan>Hohes Szenario</tspan></text></g><g class="highcharts-legend-item highcharts-line-series highcharts-color-undefined highcharts-series-2" data-z-index="1" transform="translate(0,10)"><path fill="none" d="M 0 10 L 16 10" class="highcharts-graph" stroke="#DC440E" stroke-width="2"></path><text x="21" y="13" style="color:#333333;font-size:10px;font-weight:normal;cursor:pointer;fill:#333333;" text-anchor="start" data-z-index="2"><tspan>Mittleres Szenario</tspan></text></g><g class="highcharts-legend-item highcharts-line-series highcharts-color-undefined highcharts-series-3" data-z-index="1" transform="translate(140,10)"><path fill="none" d="M 0 10 L 16 10" class="highcharts-graph" stroke="#FFDA80" stroke-width="2"></path><text x="21" y="13" style="color:#333333;font-size:10px;font-weight:normal;cursor:pointer;fill:#333333;" text-anchor="start" data-z-index="2"><tspan>Tiefes Szenario</tspan></text></g></g></g></g><g class="highcharts-axis-labels highcharts-xaxis-labels " data-z-index="7"><text x="75.227272727273" style="color:#000000;cursor:default;font-size:10px;fill:#000000;" text-anchor="middle" transform="translate(0,0)" y="206" opacity="1">1990</text><text x="120.68181818182" style="color:#000000;cursor:default;font-size:10px;fill:#000000;" text-anchor="middle" transform="translate(0,0)" y="206" opacity="1">2000</text><text x="166.13636363636" style="color:#000000;cursor:default;font-size:10px;fill:#000000;" text-anchor="middle" transform="translate(0,0)" y="206" opacity="1">2010</text><text x="211.59090909091" style="color:#000000;cursor:default;font-size:10px;fill:#000000;" text-anchor="middle" transform="translate(0,0)" y="206" opacity="1">2020</text><text x="257.04545454545" style="color:#000000;cursor:default;font-size:10px;fill:#000000;" text-anchor="middle" transform="translate(0,0)" y="206" opacity="1">2030</text><text x="302.5" style="color:#000000;cursor:default;font-size:10px;fill:#000000;" text-anchor="middle" transform="translate(0,0)" y="206" opacity="1">2040</text></g><g class="highcharts-axis-labels highcharts-yaxis-labels " data-z-index="7"><text x="35" style="color:#000000;cursor:default;font-size:10px;fill:#000000;" text-anchor="end" transform="translate(0,0)" y="191" opacity="1">0</text><text x="35" style="color:#000000;cursor:default;font-size:10px;fill:#000000;" text-anchor="end" transform="translate(0,0)" y="173" opacity="1"><tspan>5 000</tspan></text><text x="35" style="color:#000000;cursor:default;font-size:10px;fill:#000000;" text-anchor="end" transform="translate(0,0)" y="155" opacity="1"><tspan>10 000</tspan></text><text x="35" style="color:#000000;cursor:default;font-size:10px;fill:#000000;" text-anchor="end" transform="translate(0,0)" y="137" opacity="1"><tspan>15 000</tspan></text><text x="35" style="color:#000000;cursor:default;font-size:10px;fill:#000000;" text-anchor="end" transform="translate(0,0)" y="118" opacity="1"><tspan>20 000</tspan></text><text x="35" style="color:#000000;cursor:default;font-size:10px;fill:#000000;" text-anchor="end" transform="translate(0,0)" y="100" opacity="1"><tspan>25 000</tspan></text><text x="35" style="color:#000000;cursor:default;font-size:10px;fill:#000000;" text-anchor="end" transform="translate(0,0)" y="82" opacity="1"><tspan>30 000</tspan></text></g><text x="10" class="highcharts-credits" text-anchor="start" data-z-index="8" style="cursor:default;color:#000000;font-size:10;fill:#000000;" y="196"><tspan>Quelle: Statistisches Amt Basel-Stadt, Bevölkerungsszenarien.</tspan><tspan x="10" dy="15">Zuletzt geändert: 2020-6-25</tspan></text></svg>