<?xml version="1.0" standalone="no"?><!DOCTYPE svg PUBLIC "-//W3C//DTD SVG 1.1//EN" "http://www.w3.org/Graphics/SVG/1.1/DTD/svg11.dtd"><svg xmlns:xlink="http://www.w3.org/1999/xlink" version="1.1" class="highcharts-root" style="font-family:Arial;font-size:10px;color:#000000;fill:#000000;" xmlns="http://www.w3.org/2000/svg" viewBox="0 0 485 415"><desc>Created with Highstock 6.1.1</desc><defs><clipPath id="highcharts-urtf2nt-6"><rect x="0" y="0" width="267" height="122" fill="none"></rect></clipPath><clipPath id="highcharts-urtf2nt-7"><rect x="0" y="0" width="267" height="122" fill="none"></rect></clipPath></defs><rect fill="#fbfbfb" class="highcharts-background" x="0" y="0" width="320" height="221" rx="0" ry="0"></rect><rect fill="none" class="highcharts-plot-background" x="38" y="66" width="267" height="122"></rect><g class="highcharts-pane-group" data-z-index="0"></g><g class="highcharts-grid highcharts-xaxis-grid " data-z-index="1"><path fill="none" data-z-index="1" class="highcharts-grid-line" d="M 63.5 66 L 63.5 188" opacity="1"></path><path fill="none" data-z-index="1" class="highcharts-grid-line" d="M 111.5 66 L 111.5 188" opacity="1"></path><path fill="none" data-z-index="1" class="highcharts-grid-line" d="M 159.5 66 L 159.5 188" opacity="1"></path><path fill="none" data-z-index="1" class="highcharts-grid-line" d="M 206.5 66 L 206.5 188" opacity="1"></path><path fill="none" data-z-index="1" class="highcharts-grid-line" d="M 254.5 66 L 254.5 188" opacity="1"></path><path fill="none" data-z-index="1" class="highcharts-grid-line" d="M 301.5 66 L 301.5 188" opacity="1"></path></g><g class="highcharts-grid highcharts-yaxis-grid " data-z-index="1"><path fill="none" stroke="#B9CFD7" stroke-width="0.5" data-z-index="1" class="highcharts-grid-line" d="M 38 188.25 L 305 188.25" opacity="1"></path><path fill="none" stroke="#B9CFD7" stroke-width="0.5" data-z-index="1" class="highcharts-grid-line" d="M 38 173.25 L 305 173.25" opacity="1"></path><path fill="none" stroke="#B9CFD7" stroke-width="0.5" data-z-index="1" class="highcharts-grid-line" d="M 38 158.25 L 305 158.25" opacity="1"></path><path fill="none" stroke="#B9CFD7" stroke-width="0.5" data-z-index="1" class="highcharts-grid-line" d="M 38 142.25 L 305 142.25" opacity="1"></path><path fill="none" stroke="#B9CFD7" stroke-width="0.5" data-z-index="1" class="highcharts-grid-line" d="M 38 127.25 L 305 127.25" opacity="1"></path><path fill="none" stroke="#B9CFD7" stroke-width="0.5" data-z-index="1" class="highcharts-grid-line" d="M 38 112.25 L 305 112.25" opacity="1"></path><path fill="none" stroke="#B9CFD7" stroke-width="0.5" data-z-index="1" class="highcharts-grid-line" d="M 38 97.25 L 305 97.25" opacity="1"></path><path fill="none" stroke="#B9CFD7" stroke-width="0.5" data-z-index="1" class="highcharts-grid-line" d="M 38 81.25 L 305 81.25" opacity="1"></path><path fill="none" stroke="#B9CFD7" stroke-width="0.5" data-z-index="1" class="highcharts-grid-line" d="M 38 65.75 L 305 65.75" opacity="1"></path></g><rect fill="none" class="highcharts-plot-border" data-z-index="1" x="38" y="66" width="267" height="122"></rect><g class="highcharts-axis highcharts-xaxis " data-z-index="2"><path fill="none" class="highcharts-axis-line" stroke="#B9CFD7" stroke-width="0.5" data-z-index="7" d="M 38 188.25 L 305 188.25"></path></g><g class="highcharts-axis highcharts-yaxis " data-z-index="2"><path fill="none" class="highcharts-axis-line" data-z-index="7" d="M 38 66 L 38 188"></path></g><g class="highcharts-series-group" data-z-index="3"><g data-z-index="0.1" class="highcharts-series highcharts-series-0 highcharts-line-series " transform="translate(38,66) scale(1 1)" clip-path="url(#highcharts-urtf2nt-7)"><path fill="none" d="M 2.6176470588233 28.730999999999995 L 7.3770053475934 27.022999999999996 L 12.136363636363 26.0775 L 16.895721925134 25.223499999999987 L 21.655080213904 24.369500000000002 L 26.414438502674 25.010000000000005 L 31.173796791444 25.162499999999994 L 35.933155080214 25.37599999999999 L 40.692513368984 25.28450000000001 L 45.451871657754 24.034000000000006 L 50.211229946524 23.179999999999993 L 54.970588235294 22.204000000000008 L 59.729946524064 21.014499999999998 L 64.489304812834 20.58749999999999 L 69.248663101604 19.459000000000003 L 74.008021390374 18.72699999999999 L 78.767379679144 18.757499999999993 L 83.526737967914 20.557000000000002 L 88.286096256684 21.655 L 93.045454545454 22.234499999999997 L 97.804812834225 22.234499999999997 L 102.56417112299 22.47850000000001 L 107.32352941176 22.356499999999997 L 112.08288770053 23.271500000000003 L 116.8422459893 24.339 L 121.60160427807 24.705 L 126.36096256684 25.40650000000001 L 131.12032085561 26.016500000000008 L 135.87967914439 26.8095 L 140.63903743316 27.236500000000007 L 145.39839572193 27.6635 L 150.1577540107 28.242999999999995 L 154.91711229947 28.67 L 159.67647058824 29.158" class="highcharts-graph" data-z-index="1" stroke="#007A2F" stroke-width="2" stroke-linejoin="round" stroke-linecap="round"></path></g><g data-z-index="0.1" class="highcharts-markers highcharts-series-0 highcharts-line-series " transform="translate(38,66) scale(1 1)" clip-path="none"></g><g data-z-index="0.1" class="highcharts-series highcharts-series-1 highcharts-line-series " transform="translate(38,66) scale(1 1)" clip-path="url(#highcharts-urtf2nt-7)"><path fill="none" d="M 164.43582887701 29.615499999999997 L 169.19518716578 30.195000000000007 L 173.95454545455 30.46950000000001 L 178.71390374332 30.805000000000007 L 183.47326203209 31.262500000000003 L 188.23262032086 31.56750000000001 L 192.99197860963 31.476 L 197.7513368984 31.628500000000003 L 202.51069518717 31.628500000000003 L 207.27005347594 31.445499999999996 L 212.02941176471 30.95750000000001 L 216.78877005348 30.560999999999993 L 221.54812834225 30.012 L 226.30748663102 29.768 L 231.06684491979 29.402 L 235.82620320856 29.09700000000001 L 240.58556149733 28.97500000000001 L 245.3449197861 28.913999999999987 L 250.10427807487 28.883499999999998 L 254.86363636364 28.792 L 259.62299465241 28.639499999999998 L 264.38235294118 28.5175" class="highcharts-graph" data-z-index="1" stroke="#923F8D" stroke-width="2" stroke-linejoin="round" stroke-linecap="round"></path></g><g data-z-index="0.1" class="highcharts-markers highcharts-series-1 highcharts-line-series " transform="translate(38,66) scale(1 1)" clip-path="none"></g><g data-z-index="0.1" class="highcharts-series highcharts-series-2 highcharts-line-series " transform="translate(38,66) scale(1 1)" clip-path="url(#highcharts-urtf2nt-7)"><path fill="none" d="M 164.43582887701 29.06649999999999 L 169.19518716578 29.06649999999999 L 173.95454545455 28.67 L 178.71390374332 28.364999999999995 L 183.47326203209 28.151500000000013 L 188.23262032086 27.7855 L 192.99197860963 26.992500000000007 L 197.7513368984 26.474000000000004 L 202.51069518717 25.833499999999987 L 207.27005347594 25.040499999999994 L 212.02941176471 23.942499999999995 L 216.78877005348 23.027500000000003 L 221.54812834225 22.021 L 226.30748663102 21.411 L 231.06684491979 20.679000000000002 L 235.82620320856 20.099499999999992 L 240.58556149733 19.763999999999996 L 245.3449197861 19.519999999999996 L 250.10427807487 19.337000000000003 L 254.86363636364 19.093000000000004 L 259.62299465241 18.757499999999993 L 264.38235294118 18.483000000000004" class="highcharts-graph" data-z-index="1" stroke="#DC440E" stroke-width="2" stroke-linejoin="round" stroke-linecap="round"></path></g><g data-z-index="0.1" class="highcharts-markers highcharts-series-2 highcharts-line-series " transform="translate(38,66) scale(1 1)" clip-path="none"></g><g data-z-index="0.1" class="highcharts-series highcharts-series-3 highcharts-line-series " transform="translate(38,66) scale(1 1)" clip-path="url(#highcharts-urtf2nt-7)"><path fill="none" d="M 164.43582887701 28.425999999999988 L 169.19518716578 27.724500000000006 L 173.95454545455 26.59599999999999 L 178.71390374332 25.4675 L 183.47326203209 24.461000000000013 L 188.23262032086 23.302000000000007 L 192.99197860963 21.68549999999999 L 197.7513368984 20.373999999999995 L 202.51069518717 19.001499999999993 L 207.27005347594 17.50699999999999 L 212.02941176471 15.738 L 216.78877005348 14.243499999999997 L 221.54812834225 12.718499999999992 L 226.30748663102 11.712000000000003 L 231.06684491979 10.674999999999997 L 235.82620320856 9.790499999999994 L 240.58556149733 9.272000000000006 L 245.3449197861 8.875500000000002 L 250.10427807487 8.570499999999996 L 254.86363636364 8.20450000000001 L 259.62299465241 7.716500000000011 L 264.38235294118 7.319999999999993" class="highcharts-graph" data-z-index="1" stroke="#FFDA80" stroke-width="2" stroke-linejoin="round" stroke-linecap="round"></path></g><g data-z-index="0.1" class="highcharts-markers highcharts-series-3 highcharts-line-series " transform="translate(38,66) scale(1 1)" clip-path="none"></g></g><text x="2" text-anchor="start" class="highcharts-title" data-z-index="4" style="color:#000000;font-size:10px;font-weight:bold;fill:#000000;" y="9"><tspan>Altersquotient</tspan></text><text x="2" text-anchor="start" class="highcharts-subtitle" data-z-index="4" style="color:#000000;font-size:10px;font-weight:normal;font-family:Arial;fill:#000000;" y="26"></text><g class="highcharts-legend" data-z-index="7" transform="translate(38,29)"><rect fill="none" class="highcharts-legend-box" rx="0" ry="0" x="0" y="0" width="300" height="25" visibility="visible"></rect><g data-z-index="1"><g><g class="highcharts-legend-item highcharts-line-series highcharts-color-undefined highcharts-series-0" data-z-index="1" transform="translate(0,-5)"><path fill="none" d="M 0 10 L 16 10" class="highcharts-graph" stroke="#007A2F" stroke-width="2"></path><text x="21" style="color:#333333;font-size:10px;font-weight:normal;cursor:pointer;fill:#333333;" text-anchor="start" data-z-index="2" y="13"><tspan>Effektiv</tspan></text></g><g class="highcharts-legend-item highcharts-line-series highcharts-color-undefined highcharts-series-1" data-z-index="1" transform="translate(140,-5)"><path fill="none" d="M 0 10 L 16 10" class="highcharts-graph" stroke="#923F8D" stroke-width="2"></path><text x="21" y="13" style="color:#333333;font-size:10px;font-weight:normal;cursor:pointer;fill:#333333;" text-anchor="start" data-z-index="2"><tspan>Hohes Szenario</tspan></text></g><g class="highcharts-legend-item highcharts-line-series highcharts-color-undefined highcharts-series-2" data-z-index="1" transform="translate(0,10)"><path fill="none" d="M 0 10 L 16 10" class="highcharts-graph" stroke="#DC440E" stroke-width="2"></path><text x="21" y="13" style="color:#333333;font-size:10px;font-weight:normal;cursor:pointer;fill:#333333;" text-anchor="start" data-z-index="2"><tspan>Mittleres Szenario</tspan></text></g><g class="highcharts-legend-item highcharts-line-series highcharts-color-undefined highcharts-series-3" data-z-index="1" transform="translate(140,10)"><path fill="none" d="M 0 10 L 16 10" class="highcharts-graph" stroke="#FFDA80" stroke-width="2"></path><text x="21" y="13" style="color:#333333;font-size:10px;font-weight:normal;cursor:pointer;fill:#333333;" text-anchor="start" data-z-index="2"><tspan>Tiefes Szenario</tspan></text></g></g></g></g><g class="highcharts-axis-labels highcharts-xaxis-labels " data-z-index="7"><text x="64.414438502674" style="color:#000000;cursor:default;font-size:10px;fill:#000000;" text-anchor="middle" transform="translate(0,0)" y="206" opacity="1">1990</text><text x="112.00802139037" style="color:#000000;cursor:default;font-size:10px;fill:#000000;" text-anchor="middle" transform="translate(0,0)" y="206" opacity="1">2000</text><text x="159.60160427807" style="color:#000000;cursor:default;font-size:10px;fill:#000000;" text-anchor="middle" transform="translate(0,0)" y="206" opacity="1">2010</text><text x="207.19518716578" style="color:#000000;cursor:default;font-size:10px;fill:#000000;" text-anchor="middle" transform="translate(0,0)" y="206" opacity="1">2020</text><text x="254.78877005348" style="color:#000000;cursor:default;font-size:10px;fill:#000000;" text-anchor="middle" transform="translate(0,0)" y="206" opacity="1">2030</text><text x="302.38235294118" style="color:#000000;cursor:default;font-size:10px;fill:#000000;" text-anchor="middle" transform="translate(0,0)" y="206" opacity="1">2040</text></g><g class="highcharts-axis-labels highcharts-yaxis-labels " data-z-index="7"><text x="23" style="color:#000000;cursor:default;font-size:10px;fill:#000000;" text-anchor="end" transform="translate(0,0)" y="191" opacity="1">0%</text><text x="23" style="color:#000000;cursor:default;font-size:10px;fill:#000000;" text-anchor="end" transform="translate(0,0)" y="176" opacity="1">5%</text><text x="23" style="color:#000000;cursor:default;font-size:10px;fill:#000000;" text-anchor="end" transform="translate(0,0)" y="161" opacity="1">10%</text><text x="23" style="color:#000000;cursor:default;font-size:10px;fill:#000000;" text-anchor="end" transform="translate(0,0)" y="145" opacity="1">15%</text><text x="23" style="color:#000000;cursor:default;font-size:10px;fill:#000000;" text-anchor="end" transform="translate(0,0)" y="130" opacity="1">20%</text><text x="23" style="color:#000000;cursor:default;font-size:10px;fill:#000000;" text-anchor="end" transform="translate(0,0)" y="115" opacity="1">25%</text><text x="23" style="color:#000000;cursor:default;font-size:10px;fill:#000000;" text-anchor="end" transform="translate(0,0)" y="100" opacity="1">30%</text><text x="23" style="color:#000000;cursor:default;font-size:10px;fill:#000000;" text-anchor="end" transform="translate(0,0)" y="84" opacity="1">35%</text><text x="23" style="color:#000000;cursor:default;font-size:10px;fill:#000000;" text-anchor="end" transform="translate(0,0)" y="69" opacity="1">40%</text></g><text x="10" class="highcharts-credits" text-anchor="start" data-z-index="8" style="cursor:default;color:#000000;font-size:10;fill:#000000;" y="196"><tspan>Quelle: Statistisches Amt Basel-Stadt, Bevölkerungsszenarien.</tspan><tspan x="10" dy="15">Zuletzt geändert: 2020-6-25</tspan></text></svg>