<?xml version="1.0" standalone="no"?><!DOCTYPE svg PUBLIC "-//W3C//DTD SVG 1.1//EN" "http://www.w3.org/Graphics/SVG/1.1/DTD/svg11.dtd"><svg xmlns:xlink="http://www.w3.org/1999/xlink" version="1.1" class="highcharts-root" style="font-family:Arial;font-size:10px;color:#000000;fill:#000000;" xmlns="http://www.w3.org/2000/svg" viewBox="0 0 485 415"><desc>Created with Highcharts 8.1.2</desc><defs><clipPath id="highcharts-bvxmm2b-40-"><rect x="0" y="0" width="580" height="103" fill="none"></rect></clipPath><clipPath id="highcharts-bvxmm2b-49-"><rect x="0" y="0" width="580" height="103" fill="none"></rect></clipPath><clipPath id="highcharts-bvxmm2b-58-"><rect x="0" y="0" width="580" height="103" fill="none"></rect></clipPath></defs><rect fill="#fbfbfb" class="highcharts-background" x="0" y="0" width="665" height="208" rx="0" ry="0"></rect><rect fill="none" class="highcharts-plot-background" x="44" y="69" width="580" height="103"></rect><g class="highcharts-pane-group" data-z-index="0"></g><g class="highcharts-grid highcharts-xaxis-grid" data-z-index="1"><path fill="none" data-z-index="1" class="highcharts-grid-line" d="M 116.5 69 L 116.5 172" opacity="1"></path><path fill="none" data-z-index="1" class="highcharts-grid-line" d="M 188.5 69 L 188.5 172" opacity="1"></path><path fill="none" data-z-index="1" class="highcharts-grid-line" d="M 261.5 69 L 261.5 172" opacity="1"></path><path fill="none" data-z-index="1" class="highcharts-grid-line" d="M 333.5 69 L 333.5 172" opacity="1"></path><path fill="none" data-z-index="1" class="highcharts-grid-line" d="M 406.5 69 L 406.5 172" opacity="1"></path><path fill="none" data-z-index="1" class="highcharts-grid-line" d="M 478.5 69 L 478.5 172" opacity="1"></path><path fill="none" data-z-index="1" class="highcharts-grid-line" d="M 551.5 69 L 551.5 172" opacity="1"></path><path fill="none" data-z-index="1" class="highcharts-grid-line" d="M 623.5 69 L 623.5 172" opacity="1"></path><path fill="none" data-z-index="1" class="highcharts-grid-line" d="M 43.5 69 L 43.5 172" opacity="1"></path></g><rect fill="none" class="highcharts-plot-border" data-z-index="1" x="44" y="69" width="580" height="103"></rect><g class="highcharts-grid highcharts-yaxis-grid" data-z-index="1"><path fill="none" stroke="#B9CFD7" stroke-width="0.5" data-z-index="1" class="highcharts-grid-line" d="M 44 172.25 L 624 172.25" opacity="1"></path><path fill="none" stroke="#B9CFD7" stroke-width="0.5" data-z-index="1" class="highcharts-grid-line" d="M 44 138.25 L 624 138.25" opacity="1"></path><path fill="none" stroke="#B9CFD7" stroke-width="0.5" data-z-index="1" class="highcharts-grid-line" d="M 44 103.25 L 624 103.25" opacity="1"></path><path fill="none" stroke="#B9CFD7" stroke-width="0.5" data-z-index="1" class="highcharts-grid-line" d="M 44 68.75 L 624 68.75" opacity="1"></path></g><g class="highcharts-grid highcharts-yaxis-grid" data-z-index="1"><path fill="none" stroke="#B9CFD7" stroke-width="0.5" data-z-index="1" class="highcharts-grid-line" d="M 44 172.25 L 624 172.25" opacity="1"></path><path fill="none" stroke="#B9CFD7" stroke-width="0.5" data-z-index="1" class="highcharts-grid-line" d="M 44 138.25 L 624 138.25" opacity="1"></path><path fill="none" stroke="#B9CFD7" stroke-width="0.5" data-z-index="1" class="highcharts-grid-line" d="M 44 103.25 L 624 103.25" opacity="1"></path><path fill="none" stroke="#B9CFD7" stroke-width="0.5" data-z-index="1" class="highcharts-grid-line" d="M 44 68.75 L 624 68.75" opacity="1"></path></g><g class="highcharts-axis highcharts-xaxis" data-z-index="2"><path fill="none" class="highcharts-axis-line" stroke="#B9CFD7" stroke-width="0.5" data-z-index="7" d="M 44 172.25 L 624 172.25"></path></g><g class="highcharts-axis highcharts-yaxis" data-z-index="2"><path fill="none" class="highcharts-axis-line" data-z-index="7" d="M 44 69 L 44 172"></path></g><g class="highcharts-axis highcharts-yaxis" data-z-index="2"><path fill="none" class="highcharts-axis-line" data-z-index="7" d="M 624 69 L 624 172"></path></g><g class="highcharts-series-group" data-z-index="3"><g class="highcharts-series highcharts-series-0 highcharts-column-series" data-z-index="0.1" opacity="1" transform="translate(44,69) scale(1 1)" clip-path="url(#highcharts-bvxmm2b-49-)"><rect x="29" y="62" width="15" height="42" fill="#6F6F6F" opacity="1" class="highcharts-point"></rect><rect x="101" y="80" width="15" height="24" fill="#6F6F6F" opacity="1" class="highcharts-point"></rect><rect x="174" y="96" width="15" height="8" fill="#6F6F6F" opacity="1" class="highcharts-point"></rect></g><g class="highcharts-markers highcharts-series-0 highcharts-column-series" data-z-index="0.1" opacity="1" transform="translate(44,69) scale(1 1)" clip-path="none"></g><g class="highcharts-series highcharts-series-1 highcharts-scatter-series" data-z-index="0.1" opacity="1" transform="translate(44,69) scale(1 1)" clip-path="url(#highcharts-bvxmm2b-58-)"></g><g class="highcharts-markers highcharts-series-1 highcharts-scatter-series" data-z-index="0.1" opacity="1" transform="translate(44,69) scale(1 1)" clip-path="none"><path fill="#6F6F6F" d="M 36 29.64666666666666 L 40 37.64666666666666 L 32 37.64666666666666 Z" opacity="1" class="highcharts-point"></path><path fill="#6F6F6F" d="M 108 39.26 L 112 47.26 L 104 47.26 Z" opacity="1" class="highcharts-point"></path><path fill="#6F6F6F" d="M 181 28.959999999999994 L 185 36.959999999999994 L 177 36.959999999999994 Z" opacity="1" class="highcharts-point"></path></g><g class="highcharts-series highcharts-series-2 highcharts-column-series" data-z-index="0.1" opacity="1" transform="translate(44,69) scale(1 1)" clip-path="url(#highcharts-bvxmm2b-49-)"><rect x="246" y="41" width="15" height="63" fill="#DC440E" opacity="1" class="highcharts-point"></rect><rect x="319" y="95" width="15" height="9" fill="#DC440E" opacity="1" class="highcharts-point"></rect><rect x="391" y="78" width="15" height="26" fill="#DC440E" opacity="1" class="highcharts-point"></rect><rect x="464" y="96" width="15" height="8" fill="#DC440E" opacity="1" class="highcharts-point"></rect><rect x="536" y="100" width="15" height="4" fill="#DC440E" opacity="1" class="highcharts-point"></rect></g><g class="highcharts-markers highcharts-series-2 highcharts-column-series" data-z-index="0.1" opacity="1" transform="translate(44,69) scale(1 1)" clip-path="none"></g><g class="highcharts-series highcharts-series-3 highcharts-scatter-series" data-z-index="0.1" opacity="1" transform="translate(44,69) scale(1 1)" clip-path="url(#highcharts-bvxmm2b-58-)"></g><g class="highcharts-markers highcharts-series-3 highcharts-scatter-series" data-z-index="0.1" opacity="1" transform="translate(44,69) scale(1 1)" clip-path="none"><path fill="#DC440E" d="M 253 18.659999999999997 L 257 26.659999999999997 L 249 26.659999999999997 Z" opacity="1" class="highcharts-point"></path><path fill="#DC440E" d="M 326 5.61333333333333 L 330 13.61333333333333 L 322 13.61333333333333 Z" opacity="1" class="highcharts-point"></path><path fill="#DC440E" d="M 398 10.420000000000002 L 402 18.42 L 394 18.42 Z" opacity="1" class="highcharts-point"></path><path fill="#DC440E" d="M 471 50.93333333333333 L 475 58.93333333333333 L 467 58.93333333333333 Z" opacity="1" class="highcharts-point"></path><path fill="#DC440E" d="M 543 44.06666666666666 L 547 52.06666666666666 L 539 52.06666666666666 Z" opacity="1" class="highcharts-point"></path></g></g><text x="2" text-anchor="start" class="highcharts-title" data-z-index="4" style="color:#000000;font-size:10px;font-weight:bold;fill:#000000;" y="9"><tspan>Leerwohnungen und Leerwohnungsquoten nach Kantonsgebiet</tspan></text><text x="2" text-anchor="start" class="highcharts-subtitle" data-z-index="4" style="color:#000000;font-size:10px;font-weight:normal;font-family:Arial;fill:#000000;" y="26"><tspan>Basel-Stadt und Basel-Landschaft, 2020</tspan></text><text x="2" text-anchor="start" class="highcharts-caption" data-z-index="4" style="color:#666666;fill:#666666;" y="216"></text><g class="highcharts-legend" data-z-index="7" transform="translate(40,42)"><rect fill="none" class="highcharts-legend-box" rx="0" ry="0" x="0" y="0" width="336" height="15" visibility="visible"></rect><g data-z-index="1"><g><g class="highcharts-legend-item highcharts-column-series highcharts-color-undefined highcharts-series-0" data-z-index="1" transform="translate(1,-4)"><text x="21" style="color:#000000;cursor:pointer;font-size:10px;font-weight:normal;fill:#000000;" text-anchor="start" data-z-index="2" y="13"><tspan>Anzahl Leerwohnungen BS</tspan></text><rect x="3" y="4" width="10" height="10" fill="#6F6F6F" class="highcharts-point" data-z-index="3"></rect></g><g class="highcharts-legend-item highcharts-scatter-series highcharts-color-undefined highcharts-series-1" data-z-index="1" transform="translate(153,-4)"><path fill="none" d="M 0 10 L 16 10" class="highcharts-graph"></path><path fill="#6F6F6F" d="M 8 6 L 12 14 L 4 14 Z" class="highcharts-point" opacity="1"></path><text x="21" y="13" style="color:#000000;cursor:pointer;font-size:10px;font-weight:normal;fill:#000000;" text-anchor="start" data-z-index="2"><tspan>Leerstandsquote BS (rechte Skala)</tspan></text></g></g></g></g><g class="highcharts-axis-labels highcharts-xaxis-labels" data-z-index="7"><text x="80.25" style="color:#000000;cursor:default;font-size:10px;fill:#000000;" text-anchor="middle" transform="translate(0,0)" y="190" opacity="1">Grossbasel</text><text x="152.75" style="color:#000000;cursor:default;font-size:10px;fill:#000000;" text-anchor="middle" transform="translate(0,0)" y="203" opacity="1">Kleinbasel</text><text x="225.25" style="color:#000000;cursor:default;font-size:10px;fill:#000000;" text-anchor="middle" transform="translate(0,0)" y="190" opacity="1">Riehen/Bettingen</text><text x="297.75" style="color:#000000;cursor:default;font-size:10px;fill:#000000;" text-anchor="middle" transform="translate(0,0)" y="203" opacity="1">Arlesheim</text><text x="370.25" style="color:#000000;cursor:default;font-size:10px;fill:#000000;" text-anchor="middle" transform="translate(0,0)" y="190" opacity="1">Laufen</text><text x="442.75" style="color:#000000;cursor:default;font-size:10px;fill:#000000;" text-anchor="middle" transform="translate(0,0)" y="203" opacity="1">Liestal</text><text x="515.25" style="color:#000000;cursor:default;font-size:10px;fill:#000000;" text-anchor="middle" transform="translate(0,0)" y="190" opacity="1">Sissach</text><text x="587.75" style="color:#000000;cursor:default;font-size:10px;fill:#000000;" text-anchor="middle" transform="translate(0,0)" y="203" opacity="1">Waldenburg</text></g><g class="highcharts-axis-labels highcharts-yaxis-labels" data-z-index="7"><text x="29" style="color:#000000;cursor:default;font-size:10px;fill:#000000;" text-anchor="end" transform="translate(0,0)" y="175" opacity="1">0</text><text x="29" style="color:#000000;cursor:default;font-size:10px;fill:#000000;" text-anchor="end" transform="translate(0,0)" y="141" opacity="1">500</text><text x="29" style="color:#000000;cursor:default;font-size:10px;fill:#000000;" text-anchor="end" transform="translate(0,0)" y="106" opacity="1"><tspan>1 000</tspan></text><text x="29" style="color:#000000;cursor:default;font-size:10px;fill:#000000;" text-anchor="end" transform="translate(0,0)" y="72" opacity="1"><tspan>1 500</tspan></text></g><g class="highcharts-axis-labels highcharts-yaxis-labels" data-z-index="7"><text x="639" style="color:#000000;cursor:default;font-size:10px;fill:#000000;" text-anchor="start" transform="translate(0,0)" y="175" opacity="1">0.0%</text><text x="639" style="color:#000000;cursor:default;font-size:10px;fill:#000000;" text-anchor="start" transform="translate(0,0)" y="141" opacity="1">0.5%</text><text x="639" style="color:#000000;cursor:default;font-size:10px;fill:#000000;" text-anchor="start" transform="translate(0,0)" y="106" opacity="1">1.0%</text><text x="639" style="color:#000000;cursor:default;font-size:10px;fill:#000000;" text-anchor="start" transform="translate(0,0)" y="72" opacity="1">1.5%</text></g><text x="10" class="highcharts-credits" text-anchor="start" data-z-index="8" style="cursor:default;color:#000000;font-size:10px;fill:#000000;" y="193"><tspan>Quelle: Leerstandserhebung.</tspan></text></svg>