<?xml version="1.0" standalone="no"?><!DOCTYPE svg PUBLIC "-//W3C//DTD SVG 1.1//EN" "http://www.w3.org/Graphics/SVG/1.1/DTD/svg11.dtd"><svg xmlns:xlink="http://www.w3.org/1999/xlink" version="1.1" class="highcharts-root" style="font-family:Arial;font-size:12px;" xmlns="http://www.w3.org/2000/svg" viewBox="0 0 485 415"><desc>Created with Highcharts 8.1.2</desc><defs><clipPath id="highcharts-sgfdq55-36-"><rect x="0" y="0" width="611" height="118" fill="none"></rect></clipPath><clipPath id="highcharts-sgfdq55-47-"><rect x="0" y="0" width="611" height="118" fill="none"></rect></clipPath></defs><rect fill="#fbfbfb" class="highcharts-background" x="0" y="0" width="665" height="208" rx="0" ry="0"></rect><rect fill="none" class="highcharts-plot-background" x="39" y="67" width="611" height="118"></rect><g class="highcharts-pane-group" data-z-index="0"></g><g class="highcharts-grid highcharts-xaxis-grid" data-z-index="1"><path fill="none" data-z-index="1" class="highcharts-grid-line" d="M 44.5 67 L 44.5 185" opacity="1"></path><path fill="none" data-z-index="1" class="highcharts-grid-line" d="M 111.5 67 L 111.5 185" opacity="1"></path><path fill="none" data-z-index="1" class="highcharts-grid-line" d="M 177.5 67 L 177.5 185" opacity="1"></path><path fill="none" data-z-index="1" class="highcharts-grid-line" d="M 244.5 67 L 244.5 185" opacity="1"></path><path fill="none" data-z-index="1" class="highcharts-grid-line" d="M 310.5 67 L 310.5 185" opacity="1"></path><path fill="none" data-z-index="1" class="highcharts-grid-line" d="M 377.5 67 L 377.5 185" opacity="1"></path><path fill="none" data-z-index="1" class="highcharts-grid-line" d="M 443.5 67 L 443.5 185" opacity="1"></path><path fill="none" data-z-index="1" class="highcharts-grid-line" d="M 510.5 67 L 510.5 185" opacity="1"></path><path fill="none" data-z-index="1" class="highcharts-grid-line" d="M 576.5 67 L 576.5 185" opacity="1"></path><path fill="none" data-z-index="1" class="highcharts-grid-line" d="M 643.5 67 L 643.5 185" opacity="1"></path></g><g class="highcharts-grid highcharts-yaxis-grid" data-z-index="1"><path fill="none" stroke="#B9CFD7" stroke-width="0.5" data-z-index="1" class="highcharts-grid-line" d="M 39 185.25 L 650 185.25" opacity="1"></path><path fill="none" stroke="#B9CFD7" stroke-width="0.5" data-z-index="1" class="highcharts-grid-line" d="M 39 156.25 L 650 156.25" opacity="1"></path><path fill="none" stroke="#B9CFD7" stroke-width="0.5" data-z-index="1" class="highcharts-grid-line" d="M 39 126.25 L 650 126.25" opacity="1"></path><path fill="none" stroke="#B9CFD7" stroke-width="0.5" data-z-index="1" class="highcharts-grid-line" d="M 39 97.25 L 650 97.25" opacity="1"></path><path fill="none" stroke="#B9CFD7" stroke-width="0.5" data-z-index="1" class="highcharts-grid-line" d="M 39 66.75 L 650 66.75" opacity="1"></path></g><rect fill="none" class="highcharts-plot-border" data-z-index="1" x="39" y="67" width="611" height="118"></rect><g class="highcharts-axis highcharts-xaxis" data-z-index="2"><path fill="none" class="highcharts-axis-line" stroke="#B9CFD7" stroke-width="0.5" data-z-index="7" d="M 39 185.25 L 650 185.25"></path></g><g class="highcharts-axis highcharts-yaxis" data-z-index="2"><path fill="none" class="highcharts-axis-line" data-z-index="7" d="M 39 67 L 39 185"></path></g><g class="highcharts-series-group" data-z-index="3"><g class="highcharts-series highcharts-series-0 highcharts-line-series" data-z-index="0.1" opacity="1" transform="translate(39,67) scale(1 1)" clip-path="url(#highcharts-sgfdq55-47-)"><path fill="none" d="M 5.990196078426 76.36399499999999 L 72.54793028322 68.238515 L 139.10566448801 74.1866 L 205.66339869281 83.27230499999999 L 272.2211328976 83.953165 L 338.7788671024 87.27693 L 405.33660130719 92.558315 L 471.89433551199 85.6267 L 538.45206971678 86.332635 L 605.00980392157 88.900315" class="highcharts-graph" data-z-index="1" stroke="#6F6F6F" stroke-width="2" stroke-linejoin="round" stroke-linecap="round"></path></g><g class="highcharts-markers highcharts-series-0 highcharts-line-series" data-z-index="0.1" opacity="1" transform="translate(39,67) scale(1 1)" clip-path="none"></g><g class="highcharts-series highcharts-series-1 highcharts-line-series" data-z-index="0.1" opacity="1" transform="translate(39,67) scale(1 1)" clip-path="url(#highcharts-sgfdq55-47-)"><path fill="none" d="M 5.990196078426 64.627125 L 72.54793028322 72.14372499999999 L 139.10566448801 56.6813 L 205.66339869281 62.531445 L 272.2211328976 65.70417 L 338.7788671024 60.708344999999994 L 405.33660130719 58.512955 L 471.89433551199 44.57862999999999 L 538.45206971678 48.50861999999999 L 605.00980392157 54.450804999999995" class="highcharts-graph" data-z-index="1" stroke="#DC440E" stroke-width="2" stroke-linejoin="round" stroke-linecap="round"></path></g><g class="highcharts-markers highcharts-series-1 highcharts-line-series" data-z-index="0.1" opacity="1" transform="translate(39,67) scale(1 1)" clip-path="none"></g><g class="highcharts-series highcharts-series-2 highcharts-line-series" data-z-index="0.1" opacity="1" transform="translate(39,67) scale(1 1)" clip-path="url(#highcharts-sgfdq55-47-)"><path fill="none" d="M 5.990196078426 22.991119999999995 L 72.54793028322 22.382239999999996 L 139.10566448801 12.867899999999992 L 205.66339869281 27.803749999999994 L 272.2211328976 31.65733499999999 L 338.7788671024 29.985275 L 405.33660130719 33.07127 L 471.89433551199 12.20532999999999 L 538.45206971678 16.84125499999999 L 605.00980392157 25.351119999999995" class="highcharts-graph" data-z-index="1" stroke="#FABD24" stroke-width="2" stroke-linejoin="round" stroke-linecap="round"></path></g><g class="highcharts-markers highcharts-series-2 highcharts-line-series" data-z-index="0.1" opacity="1" transform="translate(39,67) scale(1 1)" clip-path="none"></g></g><text x="2" text-anchor="start" class="highcharts-title" data-z-index="4" style="color:#000000;font-size:10px;font-weight:bold;fill:#000000;" y="9"><tspan>Geschäftsleerstandsfläche</tspan></text><text x="2" text-anchor="start" class="highcharts-subtitle" data-z-index="4" style="color:#000000;font-size:10px;font-weight:normal;font-family:Arial;fill:#000000;" y="26"><tspan>Basel-Stadt und Basel-Landschaft</tspan></text><text x="2" text-anchor="start" class="highcharts-caption" data-z-index="4" style="color:#666666;fill:#666666;" y="218"></text><g class="highcharts-legend" data-z-index="7" transform="translate(39,42)"><rect fill="none" class="highcharts-legend-box" rx="0" ry="0" x="0" y="0" width="294" height="13" visibility="visible"></rect><g data-z-index="1"><g><g class="highcharts-legend-item highcharts-line-series highcharts-color-undefined highcharts-series-0" data-z-index="1" transform="translate(0,-5)"><path fill="none" d="M 0 10 L 16 10" class="highcharts-graph" stroke="#6F6F6F" stroke-width="2"></path><text x="21" style="color:#333333;cursor:pointer;font-size:10px;font-weight:normal;fill:#333333;" text-anchor="start" data-z-index="2" y="13"><tspan>Basel-Stadt</tspan></text></g><g class="highcharts-legend-item highcharts-line-series highcharts-color-undefined highcharts-series-1" data-z-index="1" transform="translate(95,-5)"><path fill="none" d="M 0 10 L 16 10" class="highcharts-graph" stroke="#DC440E" stroke-width="2"></path><text x="21" y="13" style="color:#333333;cursor:pointer;font-size:10px;font-weight:normal;fill:#333333;" text-anchor="start" data-z-index="2"><tspan>Basel-Landschaft</tspan></text></g><g class="highcharts-legend-item highcharts-line-series highcharts-color-undefined highcharts-series-2" data-z-index="1" transform="translate(216,-5)"><path fill="none" d="M 0 10 L 16 10" class="highcharts-graph" stroke="#FABD24" stroke-width="2"></path><text x="21" y="13" style="color:#333333;cursor:pointer;font-size:10px;font-weight:normal;fill:#333333;" text-anchor="start" data-z-index="2"><tspan>Beide Basel</tspan></text></g></g></g></g><g class="highcharts-axis-labels highcharts-xaxis-labels" data-z-index="7"><text x="44.990196078426" style="color:#000000;cursor:default;font-size:10px;white-space:nowrap;fill:#000000;" text-anchor="middle" transform="translate(0,0)" y="203" opacity="1">2010</text><text x="111.54793028322" style="color:#000000;cursor:default;font-size:10px;white-space:nowrap;fill:#000000;" text-anchor="middle" transform="translate(0,0)" y="203" opacity="1">2011</text><text x="178.10566448801" style="color:#000000;cursor:default;font-size:10px;white-space:nowrap;fill:#000000;" text-anchor="middle" transform="translate(0,0)" y="203" opacity="1">2012</text><text x="244.66339869281" style="color:#000000;cursor:default;font-size:10px;white-space:nowrap;fill:#000000;" text-anchor="middle" transform="translate(0,0)" y="203" opacity="1">2013</text><text x="311.2211328976" style="color:#000000;cursor:default;font-size:10px;white-space:nowrap;fill:#000000;" text-anchor="middle" transform="translate(0,0)" y="203" opacity="1">2014</text><text x="377.7788671024" style="color:#000000;cursor:default;font-size:10px;white-space:nowrap;fill:#000000;" text-anchor="middle" transform="translate(0,0)" y="203" opacity="1">2015</text><text x="444.33660130719" style="color:#000000;cursor:default;font-size:10px;white-space:nowrap;fill:#000000;" text-anchor="middle" transform="translate(0,0)" y="203" opacity="1">2016</text><text x="510.89433551199" style="color:#000000;cursor:default;font-size:10px;white-space:nowrap;fill:#000000;" text-anchor="middle" transform="translate(0,0)" y="203" opacity="1">2017</text><text x="577.45206971678" style="color:#000000;cursor:default;font-size:10px;white-space:nowrap;fill:#000000;" text-anchor="middle" transform="translate(0,0)" y="203" opacity="1">2018</text><text x="644.00980392157" style="color:#000000;cursor:default;font-size:10px;white-space:nowrap;fill:#000000;" text-anchor="middle" transform="translate(0,0)" y="203" opacity="1">2019</text></g><g class="highcharts-axis-labels highcharts-yaxis-labels" data-z-index="7"><text x="24" style="color:#000000;cursor:default;font-size:10px;fill:#000000;" text-anchor="end" transform="translate(0,0)" y="188" opacity="1">0</text><text x="24" style="color:#000000;cursor:default;font-size:10px;fill:#000000;" text-anchor="end" transform="translate(0,0)" y="159" opacity="1">100k</text><text x="24" style="color:#000000;cursor:default;font-size:10px;fill:#000000;" text-anchor="end" transform="translate(0,0)" y="129" opacity="1">200k</text><text x="24" style="color:#000000;cursor:default;font-size:10px;fill:#000000;" text-anchor="end" transform="translate(0,0)" y="100" opacity="1">300k</text><text x="24" style="color:#000000;cursor:default;font-size:10px;fill:#000000;" text-anchor="end" transform="translate(0,0)" y="70" opacity="1">400k</text></g><text x="10" class="highcharts-credits" text-anchor="start" data-z-index="8" style="cursor:default;color:#000000;font-size:10px;fill:#000000;" y="193"><tspan>Quelle: Leerstandserhebung.</tspan></text></svg>