<?xml version="1.0" standalone="no"?><!DOCTYPE svg PUBLIC "-//W3C//DTD SVG 1.1//EN" "http://www.w3.org/Graphics/SVG/1.1/DTD/svg11.dtd"><svg xmlns:xlink="http://www.w3.org/1999/xlink" version="1.1" class="highcharts-root" style="font-family:Arial;font-size:12px;" xmlns="http://www.w3.org/2000/svg" viewBox="0 0 485 415"><desc>Created with Highcharts 8.2.0</desc><defs><clipPath id="highcharts-dolfon3-42-"><rect x="0" y="0" width="432" height="207" fill="none"></rect></clipPath><clipPath id="highcharts-dolfon3-61-"><rect x="0" y="0" width="432" height="207" fill="none"></rect></clipPath></defs><rect fill="#fbfbfb" class="highcharts-background" x="0" y="0" width="485" height="428" rx="0" ry="0"></rect><rect fill="none" class="highcharts-plot-background" x="43" y="94" width="432" height="207"></rect><g class="highcharts-pane-group" data-z-index="0"></g><g class="highcharts-grid highcharts-xaxis-grid" data-z-index="1"><path fill="none" data-z-index="1" class="highcharts-grid-line" d="M 66.5 94 L 66.5 301" opacity="1"></path><path fill="none" data-z-index="1" class="highcharts-grid-line" d="M 90.5 94 L 90.5 301" opacity="1"></path><path fill="none" data-z-index="1" class="highcharts-grid-line" d="M 114.5 94 L 114.5 301" opacity="1"></path><path fill="none" data-z-index="1" class="highcharts-grid-line" d="M 138.5 94 L 138.5 301" opacity="1"></path><path fill="none" data-z-index="1" class="highcharts-grid-line" d="M 162.5 94 L 162.5 301" opacity="1"></path><path fill="none" data-z-index="1" class="highcharts-grid-line" d="M 186.5 94 L 186.5 301" opacity="1"></path><path fill="none" data-z-index="1" class="highcharts-grid-line" d="M 210.5 94 L 210.5 301" opacity="1"></path><path fill="none" data-z-index="1" class="highcharts-grid-line" d="M 234.5 94 L 234.5 301" opacity="1"></path><path fill="none" data-z-index="1" class="highcharts-grid-line" d="M 258.5 94 L 258.5 301" opacity="1"></path><path fill="none" data-z-index="1" class="highcharts-grid-line" d="M 282.5 94 L 282.5 301" opacity="1"></path><path fill="none" data-z-index="1" class="highcharts-grid-line" d="M 306.5 94 L 306.5 301" opacity="1"></path><path fill="none" data-z-index="1" class="highcharts-grid-line" d="M 330.5 94 L 330.5 301" opacity="1"></path><path fill="none" data-z-index="1" class="highcharts-grid-line" d="M 354.5 94 L 354.5 301" opacity="1"></path><path fill="none" data-z-index="1" class="highcharts-grid-line" d="M 378.5 94 L 378.5 301" opacity="1"></path><path fill="none" data-z-index="1" class="highcharts-grid-line" d="M 402.5 94 L 402.5 301" opacity="1"></path><path fill="none" data-z-index="1" class="highcharts-grid-line" d="M 426.5 94 L 426.5 301" opacity="1"></path><path fill="none" data-z-index="1" class="highcharts-grid-line" d="M 450.5 94 L 450.5 301" opacity="1"></path><path fill="none" data-z-index="1" class="highcharts-grid-line" d="M 474.5 94 L 474.5 301" opacity="1"></path><path fill="none" data-z-index="1" class="highcharts-grid-line" d="M 42.5 94 L 42.5 301" opacity="1"></path></g><g class="highcharts-grid highcharts-yaxis-grid" data-z-index="1"><path fill="none" stroke="#B9CFD7" stroke-width="0.5" data-z-index="1" class="highcharts-grid-line" d="M 43 301.25 L 475 301.25" opacity="1"></path><path fill="none" stroke="#B9CFD7" stroke-width="0.5" data-z-index="1" class="highcharts-grid-line" d="M 43 260.25 L 475 260.25" opacity="1"></path><path fill="none" stroke="#B9CFD7" stroke-width="0.5" data-z-index="1" class="highcharts-grid-line" d="M 43 218.25 L 475 218.25" opacity="1"></path><path fill="none" stroke="#B9CFD7" stroke-width="0.5" data-z-index="1" class="highcharts-grid-line" d="M 43 177.25 L 475 177.25" opacity="1"></path><path fill="none" stroke="#B9CFD7" stroke-width="0.5" data-z-index="1" class="highcharts-grid-line" d="M 43 135.25 L 475 135.25" opacity="1"></path><path fill="none" stroke="#B9CFD7" stroke-width="0.5" data-z-index="1" class="highcharts-grid-line" d="M 43 93.75 L 475 93.75" opacity="1"></path></g><rect fill="none" class="highcharts-plot-border" data-z-index="1" x="43" y="94" width="432" height="207"></rect><g class="highcharts-axis highcharts-xaxis" data-z-index="2"><path fill="none" class="highcharts-axis-line" stroke="#B9CFD7" stroke-width="0.5" data-z-index="7" d="M 43 301.25 L 475 301.25"></path></g><g class="highcharts-axis highcharts-yaxis" data-z-index="2"><path fill="none" class="highcharts-axis-line" data-z-index="7" d="M 43 94 L 43 301"></path></g><g class="highcharts-series-group" data-z-index="3"><g class="highcharts-series highcharts-series-0 highcharts-column-series" data-z-index="0.1" opacity="1" transform="translate(43,94) scale(1 1)" clip-path="url(#highcharts-dolfon3-61-)"><rect x="5" y="40" width="7" height="168" fill="#246370" opacity="1" class="highcharts-point"></rect><rect x="29" y="30" width="7" height="178" fill="#246370" opacity="1" class="highcharts-point"></rect><rect x="53" y="53" width="7" height="155" fill="#246370" opacity="1" class="highcharts-point"></rect><rect x="77" y="42" width="7" height="166" fill="#246370" opacity="1" class="highcharts-point"></rect><rect x="101" y="30" width="7" height="178" fill="#246370" opacity="1" class="highcharts-point"></rect><rect x="125" y="35" width="7" height="173" fill="#246370" opacity="1" class="highcharts-point"></rect><rect x="149" y="39" width="7" height="169" fill="#246370" opacity="1" class="highcharts-point"></rect><rect x="173" y="35" width="7" height="173" fill="#246370" opacity="1" class="highcharts-point"></rect><rect x="197" y="29" width="7" height="179" fill="#246370" opacity="1" class="highcharts-point"></rect><rect x="221" y="28" width="7" height="180" fill="#246370" opacity="1" class="highcharts-point"></rect><rect x="245" y="63" width="7" height="145" fill="#246370" opacity="1" class="highcharts-point"></rect><rect x="269" y="52" width="7" height="156" fill="#246370" opacity="1" class="highcharts-point"></rect><rect x="293" y="60" width="7" height="148" fill="#246370" opacity="1" class="highcharts-point"></rect><rect x="317" y="51" width="7" height="157" fill="#246370" opacity="1" class="highcharts-point"></rect><rect x="341" y="56" width="7" height="152" fill="#246370" opacity="1" class="highcharts-point"></rect><rect x="365" y="56" width="7" height="152" fill="#246370" opacity="1" class="highcharts-point"></rect><rect x="389" y="52" width="7" height="156" fill="#246370" opacity="1" class="highcharts-point"></rect><rect x="413" y="33" width="7" height="175" fill="#246370" opacity="1" class="highcharts-point"></rect></g><g class="highcharts-markers highcharts-series-0 highcharts-column-series" data-z-index="0.1" opacity="1" transform="translate(43,94) scale(1 1)" clip-path="none"></g><g class="highcharts-series highcharts-series-1 highcharts-column-series" data-z-index="0.1" opacity="1" transform="translate(43,94) scale(1 1)" clip-path="url(#highcharts-dolfon3-61-)"><rect x="12" y="54" width="7" height="154" fill="#990300" opacity="1" class="highcharts-point"></rect><rect x="36" y="42" width="7" height="166" fill="#990300" opacity="1" class="highcharts-point"></rect><rect x="60" y="71" width="7" height="137" fill="#990300" opacity="1" class="highcharts-point"></rect><rect x="84" y="57" width="7" height="151" fill="#990300" opacity="1" class="highcharts-point"></rect><rect x="108" y="48" width="7" height="160" fill="#990300" opacity="1" class="highcharts-point"></rect><rect x="132" y="56" width="7" height="152" fill="#990300" opacity="1" class="highcharts-point"></rect><rect x="156" y="49" width="7" height="159" fill="#990300" opacity="1" class="highcharts-point"></rect><rect x="180" y="49" width="7" height="159" fill="#990300" opacity="1" class="highcharts-point"></rect><rect x="204" y="47" width="7" height="161" fill="#990300" opacity="1" class="highcharts-point"></rect><rect x="228" y="48" width="7" height="160" fill="#990300" opacity="1" class="highcharts-point"></rect><rect x="252" y="77" width="7" height="131" fill="#990300" opacity="1" class="highcharts-point"></rect><rect x="276" y="67" width="7" height="141" fill="#990300" opacity="1" class="highcharts-point"></rect><rect x="300" y="71" width="7" height="137" fill="#990300" opacity="1" class="highcharts-point"></rect><rect x="324" y="64" width="7" height="144" fill="#990300" opacity="1" class="highcharts-point"></rect><rect x="348" y="69" width="7" height="139" fill="#990300" opacity="1" class="highcharts-point"></rect><rect x="372" y="71" width="7" height="137" fill="#990300" opacity="1" class="highcharts-point"></rect><rect x="396" y="73" width="7" height="135" fill="#990300" opacity="1" class="highcharts-point"></rect><rect x="420" y="58" width="7" height="150" fill="#990300" opacity="1" class="highcharts-point"></rect></g><g class="highcharts-markers highcharts-series-1 highcharts-column-series" data-z-index="0.1" opacity="1" transform="translate(43,94) scale(1 1)" clip-path="none"></g></g><text x="10" text-anchor="start" class="highcharts-title" data-z-index="4" style="color:#000000;font-size:14px;font-weight:bold;fill:#000000;" y="21"><tspan>Erwerbstätigenquote nach Geschlecht</tspan></text><text x="10" text-anchor="start" class="highcharts-subtitle" data-z-index="4" style="color:#000000;font-size:12px;font-weight:normal;fill:#000000;" y="40"><tspan>der 20- bis 64-Jährigen, 2018</tspan></text><text x="10" text-anchor="start" class="highcharts-caption" data-z-index="4" style="color:#666666;fill:#666666;" y="380"></text><g class="highcharts-legend" data-z-index="7" transform="translate(35,56)"><rect fill="none" class="highcharts-legend-box" rx="0" ry="0" x="0" y="0" width="158" height="26" visibility="visible"></rect><g data-z-index="1"><g><g class="highcharts-legend-item highcharts-column-series highcharts-color-undefined highcharts-series-0" data-z-index="1" transform="translate(8,3)"><text x="21" style="color:#333333;cursor:pointer;font-size:12px;font-weight:normal;fill:#333333;" text-anchor="start" data-z-index="2" y="15"><tspan>Männer</tspan></text><rect x="2" y="4" width="12" height="12" fill="#246370" class="highcharts-point" data-z-index="3"></rect></g><g class="highcharts-legend-item highcharts-column-series highcharts-color-undefined highcharts-series-1" data-z-index="1" transform="translate(90,3)"><text x="21" y="15" style="color:#333333;cursor:pointer;font-size:12px;font-weight:normal;fill:#333333;" text-anchor="start" data-z-index="2"><tspan>Frauen</tspan></text><rect x="2" y="4" width="12" height="12" fill="#990300" class="highcharts-point" data-z-index="3"></rect></g></g></g></g><g class="highcharts-axis-labels highcharts-xaxis-labels" data-z-index="7"><text x="57.59272486435067" style="color:#000000;cursor:default;font-size:11px;fill:#000000;" text-anchor="end" transform="translate(0,0) rotate(-45 57.59272486435067 317)" y="317" opacity="1">Basel</text><text x="81.59272486435067" style="color:#000000;cursor:default;font-size:11px;fill:#000000;" text-anchor="end" transform="translate(0,0) rotate(-45 81.59272486435067 317)" y="317" opacity="1">Bern</text><text x="105.59272486435067" style="color:#000000;cursor:default;font-size:11px;fill:#000000;" text-anchor="end" transform="translate(0,0) rotate(-45 105.59272486435067 317)" y="317" opacity="1">Genève</text><text x="129.59272486435069" style="color:#000000;cursor:default;font-size:11px;fill:#000000;" text-anchor="end" transform="translate(0,0) rotate(-45 129.59272486435069 317)" y="317" opacity="1">Lausanne</text><text x="153.59272486435069" style="color:#000000;cursor:default;font-size:11px;fill:#000000;" text-anchor="end" transform="translate(0,0) rotate(-45 153.59272486435069 317)" y="317" opacity="1">Zürich</text><text x="177.59272486435069" style="color:#000000;cursor:default;font-size:11px;fill:#000000;" text-anchor="end" transform="translate(0,0) rotate(-45 177.59272486435069 317)" y="317" opacity="1"><tspan>Frankfurt a. M.</tspan></text><text x="201.59272486435069" style="color:#000000;cursor:default;font-size:11px;fill:#000000;" text-anchor="end" transform="translate(0,0) rotate(-45 201.59272486435069 317)" y="317" opacity="1"><tspan>Freiburg i. Br.</tspan></text><text x="225.59272486435069" style="color:#000000;cursor:default;font-size:11px;fill:#000000;" text-anchor="end" transform="translate(0,0) rotate(-45 225.59272486435069 317)" y="317" opacity="1">Karlsruhe</text><text x="249.59272486435066" style="color:#000000;cursor:default;font-size:11px;fill:#000000;" text-anchor="end" transform="translate(0,0) rotate(-45 249.59272486435066 317)" y="317" opacity="1">München</text><text x="273.59272486435066" style="color:#000000;cursor:default;font-size:11px;fill:#000000;" text-anchor="end" transform="translate(0,0) rotate(-45 273.59272486435066 317)" y="317" opacity="1">Stuttgart</text><text x="297.59272486435066" style="color:#000000;cursor:default;font-size:11px;fill:#000000;" text-anchor="end" transform="translate(0,0) rotate(-45 297.59272486435066 317)" y="317" opacity="1">Lille</text><text x="321.59272486435066" style="color:#000000;cursor:default;font-size:11px;fill:#000000;" text-anchor="end" transform="translate(0,0) rotate(-45 321.59272486435066 317)" y="317" opacity="1">Lyon</text><text x="345.59272486435066" style="color:#000000;cursor:default;font-size:11px;fill:#000000;" text-anchor="end" transform="translate(0,0) rotate(-45 345.59272486435066 317)" y="317" opacity="1">Metz</text><text x="369.59272486435066" style="color:#000000;cursor:default;font-size:11px;fill:#000000;" text-anchor="end" transform="translate(0,0) rotate(-45 369.59272486435066 317)" y="317" opacity="1">Paris</text><text x="393.59272486435066" style="color:#000000;cursor:default;font-size:11px;fill:#000000;" text-anchor="end" transform="translate(0,0) rotate(-45 393.59272486435066 317)" y="317" opacity="1">Strasbourg</text><text x="417.59272486435066" style="color:#000000;cursor:default;font-size:11px;fill:#000000;" text-anchor="end" transform="translate(0,0) rotate(-45 417.59272486435066 317)" y="317" opacity="1">Barcelona</text><text x="441.59272486435066" style="color:#000000;cursor:default;font-size:11px;fill:#000000;" text-anchor="end" transform="translate(0,0) rotate(-45 441.59272486435066 317)" y="317" opacity="1">Madrid</text><text x="465.59272486435066" style="color:#000000;cursor:default;font-size:11px;fill:#000000;" text-anchor="end" transform="translate(0,0) rotate(-45 465.59272486435066 317)" y="317" opacity="1">London</text></g><g class="highcharts-axis-labels highcharts-yaxis-labels" data-z-index="7"><text x="28" style="color:#000000;cursor:default;font-size:11px;fill:#000000;" text-anchor="end" transform="translate(0,0)" y="305" opacity="1">0</text><text x="28" style="color:#000000;cursor:default;font-size:11px;fill:#000000;" text-anchor="end" transform="translate(0,0)" y="264" opacity="1">20</text><text x="28" style="color:#000000;cursor:default;font-size:11px;fill:#000000;" text-anchor="end" transform="translate(0,0)" y="222" opacity="1">40</text><text x="28" style="color:#000000;cursor:default;font-size:11px;fill:#000000;" text-anchor="end" transform="translate(0,0)" y="181" opacity="1">60</text><text x="28" style="color:#000000;cursor:default;font-size:11px;fill:#000000;" text-anchor="end" transform="translate(0,0)" y="139" opacity="1">80</text><text x="28" style="color:#000000;cursor:default;font-size:11px;fill:#000000;" text-anchor="end" transform="translate(0,0)" y="98" opacity="1">100</text></g><text x="10" class="highcharts-credits" text-anchor="start" data-z-index="8" style="cursor:default;color:#000000;font-size:10px;fill:#000000;" y="393"><tspan>Quelle: Bundesamt für Statistik (BFS), City Statistics;</tspan><tspan x="10" dy="13">eurostat.</tspan><tspan x="10" dy="13">Zuletzt geändert: 2020-12-22</tspan></text></svg>