<svg version="1.1" class="highcharts-root" style="font-family: Arial; font-size: 1rem;" xmlns="http://www.w3.org/2000/svg" width="600" height="400" viewBox="0 0 600 400" role="img" aria-label="Plätze in Kindertagesstätten"><desc>Created with Highcharts 12.5.0</desc><defs><filter id="highcharts-drop-shadow-0"><feDropShadow dx="1" dy="1" flood-color="#000000" flood-opacity="0.75" stdDeviation="2.5"></feDropShadow></filter><clipPath id="highcharts-prd6j3n-1438-"><rect x="0" y="0" width="533" height="209" fill="none"></rect></clipPath></defs><rect fill="#ffffff" class="highcharts-background" filter="none" x="0" y="0" width="600" height="400" rx="0" ry="0"></rect><rect fill="none" class="highcharts-plot-background" x="57" y="106" width="533" height="209" filter="none"></rect><g class="highcharts-pane-group" data-z-index="0"></g><g class="highcharts-grid highcharts-xaxis-grid" data-z-index="1"><path fill="none" stroke="#e6e6e6" stroke-width="0" stroke-dasharray="none" data-z-index="1" class="highcharts-grid-line" d="M 105.5 106 L 105.5 315" opacity="1"></path><path fill="none" stroke="#e6e6e6" stroke-width="0" stroke-dasharray="none" data-z-index="1" class="highcharts-grid-line" d="M 153.5 106 L 153.5 315" opacity="1"></path><path fill="none" stroke="#e6e6e6" stroke-width="0" stroke-dasharray="none" data-z-index="1" class="highcharts-grid-line" d="M 202.5 106 L 202.5 315" opacity="1"></path><path fill="none" stroke="#e6e6e6" stroke-width="0" stroke-dasharray="none" data-z-index="1" class="highcharts-grid-line" d="M 250.5 106 L 250.5 315" opacity="1"></path><path fill="none" stroke="#e6e6e6" stroke-width="0" stroke-dasharray="none" data-z-index="1" class="highcharts-grid-line" d="M 299.5 106 L 299.5 315" opacity="1"></path><path fill="none" stroke="#e6e6e6" stroke-width="0" stroke-dasharray="none" data-z-index="1" class="highcharts-grid-line" d="M 347.5 106 L 347.5 315" opacity="1"></path><path fill="none" stroke="#e6e6e6" stroke-width="0" stroke-dasharray="none" data-z-index="1" class="highcharts-grid-line" d="M 396.5 106 L 396.5 315" opacity="1"></path><path fill="none" stroke="#e6e6e6" stroke-width="0" stroke-dasharray="none" data-z-index="1" class="highcharts-grid-line" d="M 444.5 106 L 444.5 315" opacity="1"></path><path fill="none" stroke="#e6e6e6" stroke-width="0" stroke-dasharray="none" data-z-index="1" class="highcharts-grid-line" d="M 493.5 106 L 493.5 315" opacity="1"></path><path fill="none" stroke="#e6e6e6" stroke-width="0" stroke-dasharray="none" data-z-index="1" class="highcharts-grid-line" d="M 541.5 106 L 541.5 315" opacity="1"></path><path fill="none" stroke="#e6e6e6" stroke-width="0" stroke-dasharray="none" data-z-index="1" class="highcharts-grid-line" d="M 590.5 106 L 590.5 315" opacity="1"></path><path fill="none" stroke="#e6e6e6" stroke-width="0" stroke-dasharray="none" data-z-index="1" class="highcharts-grid-line" d="M 57.5 106 L 57.5 315" opacity="1"></path></g><g class="highcharts-grid highcharts-yaxis-grid" data-z-index="1"><path fill="none" stroke="#B9CFD7" stroke-width="0.5" stroke-dasharray="none" data-z-index="1" class="highcharts-grid-line" d="M 57 315.25 L 590 315.25" opacity="1"></path><path fill="none" stroke="#B9CFD7" stroke-width="0.5" stroke-dasharray="none" data-z-index="1" class="highcharts-grid-line" d="M 57 273.25 L 590 273.25" opacity="1"></path><path fill="none" stroke="#B9CFD7" stroke-width="0.5" stroke-dasharray="none" data-z-index="1" class="highcharts-grid-line" d="M 57 231.25 L 590 231.25" opacity="1"></path><path fill="none" stroke="#B9CFD7" stroke-width="0.5" stroke-dasharray="none" data-z-index="1" class="highcharts-grid-line" d="M 57 189.25 L 590 189.25" opacity="1"></path><path fill="none" stroke="#B9CFD7" stroke-width="0.5" stroke-dasharray="none" data-z-index="1" class="highcharts-grid-line" d="M 57 148.25 L 590 148.25" opacity="1"></path><path fill="none" stroke="#B9CFD7" stroke-width="0.5" stroke-dasharray="none" data-z-index="1" class="highcharts-grid-line" d="M 57 106.25 L 590 106.25" opacity="1"></path></g><rect fill="none" class="highcharts-plot-border" data-z-index="1" stroke="#cccccc" stroke-width="0" x="57" y="106" width="533" height="209"></rect><g class="highcharts-axis highcharts-xaxis" data-z-index="2"><path fill="none" class="highcharts-axis-line" stroke="#B9CFD7" stroke-width="0.5" data-z-index="7" d="M 57 315.25 L 590 315.25"></path></g><g class="highcharts-axis highcharts-yaxis" data-z-index="2"><path fill="none" class="highcharts-axis-line" stroke="#B9CFD7" stroke-width="0" data-z-index="7" d="M 57 106 L 57 315"></path></g><g class="highcharts-series-group" data-z-index="3" filter="none"><g class="highcharts-series highcharts-series-0 highcharts-column-series highcharts-tracker" data-z-index="0.1" opacity="1" transform="translate(57,106) scale(1 1)" clip-path="url(#highcharts-prd6j3n-1438-)"><path fill="#FF8028" d="M 403.00000005 28.00000005 L 421.00000005 28.00000005 A 3 3 0 0 1 424.00000005 31.00000005 L 424.00000005 54.00000005 A 0 0 0 0 1 424.00000005 54.00000005 L 400.00000005 54.00000005 A 0 0 0 0 1 400.00000005 54.00000005 L 400.00000005 31.00000005 A 3 3 0 0 1 403.00000005 28.00000005 Z" stroke="#ffffff" stroke-width="1e-7" opacity="1" filter="none" class="highcharts-point"></path><path fill="#FF8028" d="M 452.00000005 23.00000005 L 470.00000005 23.00000005 A 3 3 0 0 1 473.00000005 26.00000005 L 473.00000005 44.00000005 A 0 0 0 0 1 473.00000005 44.00000005 L 449.00000005 44.00000005 A 0 0 0 0 1 449.00000005 44.00000005 L 449.00000005 26.00000005 A 3 3 0 0 1 452.00000005 23.00000005 Z" stroke="#ffffff" stroke-width="1e-7" opacity="1" filter="none" class="highcharts-point"></path><path fill="#FF8028" d="M 500.00000005 18.00000005 L 518.00000005 18.00000005 A 3 3 0 0 1 521.00000005 21.00000005 L 521.00000005 26.00000005 A 0 0 0 0 1 521.00000005 26.00000005 L 497.00000005 26.00000005 A 0 0 0 0 1 497.00000005 26.00000005 L 497.00000005 21.00000005 A 3 3 0 0 1 500.00000005 18.00000005 Z" stroke="#ffffff" stroke-width="1e-7" opacity="1" filter="none" class="highcharts-point"></path></g><g class="highcharts-markers highcharts-series-0 highcharts-column-series" data-z-index="0.1" opacity="1" transform="translate(57,106) scale(1 1)" clip-path="none"></g><g class="highcharts-series highcharts-series-1 highcharts-column-series highcharts-tracker" data-z-index="0.1" opacity="1" transform="translate(57,106) scale(1 1)" clip-path="url(#highcharts-prd6j3n-1438-)"><path fill="#B375AB" d="M 16.00000005 46.00000005 L 34.00000005 46.00000005 A 3 3 0 0 1 37.00000005 49.00000005 L 37.00000005 67.00000005 A 0 0 0 0 1 37.00000005 67.00000005 L 13.00000005 67.00000005 A 0 0 0 0 1 13.00000005 67.00000005 L 13.00000005 49.00000005 A 3 3 0 0 1 16.00000005 46.00000005 Z" stroke="#ffffff" stroke-width="1e-7" opacity="1" filter="none" class="highcharts-point"></path><path fill="#B375AB" d="M 64.00000005 39.00000005 L 82.00000005 39.00000005 A 3 3 0 0 1 85.00000005 42.00000005 L 85.00000005 58.00000005 A 0 0 0 0 1 85.00000005 58.00000005 L 61.00000005 58.00000005 A 0 0 0 0 1 61.00000005 58.00000005 L 61.00000005 42.00000005 A 3 3 0 0 1 64.00000005 39.00000005 Z" stroke="#ffffff" stroke-width="1e-7" opacity="1" filter="none" class="highcharts-point"></path><path fill="#B375AB" d="M 113.00000005 41.00000005 L 131.00000005 41.00000005 A 3 3 0 0 1 134.00000005 44.00000005 L 134.00000005 60.00000005 A 0 0 0 0 1 134.00000005 60.00000005 L 110.00000005 60.00000005 A 0 0 0 0 1 110.00000005 60.00000005 L 110.00000005 44.00000005 A 3 3 0 0 1 113.00000005 41.00000005 Z" stroke="#ffffff" stroke-width="1e-7" opacity="1" filter="none" class="highcharts-point"></path><path fill="#B375AB" d="M 161.00000005 42.00000005 L 179.00000005 42.00000005 A 3 3 0 0 1 182.00000005 45.00000005 L 182.00000005 59.00000005 A 0 0 0 0 1 182.00000005 59.00000005 L 158.00000005 59.00000005 A 0 0 0 0 1 158.00000005 59.00000005 L 158.00000005 45.00000005 A 3 3 0 0 1 161.00000005 42.00000005 Z" stroke="#ffffff" stroke-width="1e-7" opacity="1" filter="none" class="highcharts-point"></path><path fill="#B375AB" d="M 209.00000005 34.00000005 L 227.00000005 34.00000005 A 3 3 0 0 1 230.00000005 37.00000005 L 230.00000005 48.00000005 A 0 0 0 0 1 230.00000005 48.00000005 L 206.00000005 48.00000005 A 0 0 0 0 1 206.00000005 48.00000005 L 206.00000005 37.00000005 A 3 3 0 0 1 209.00000005 34.00000005 Z" stroke="#ffffff" stroke-width="1e-7" opacity="1" filter="none" class="highcharts-point"></path><path fill="#B375AB" d="M 258.00000005000004 29.00000005 L 276.00000005 29.00000005 A 3 3 0 0 1 279.00000005 32.00000005 L 279.00000005 42.00000005 A 0 0 0 0 1 279.00000005 42.00000005 L 255.00000005 42.00000005 A 0 0 0 0 1 255.00000005 42.00000005 L 255.00000005 32.00000005 A 3 3 0 0 1 258.00000005000004 29.00000005 Z" stroke="#ffffff" stroke-width="1e-7" opacity="1" filter="none" class="highcharts-point"></path><path fill="#B375AB" d="M 306.00000005 28.00000005 L 324.00000005 28.00000005 A 3 3 0 0 1 327.00000005 31.00000005 L 327.00000005 41.00000005 A 0 0 0 0 1 327.00000005 41.00000005 L 303.00000005 41.00000005 A 0 0 0 0 1 303.00000005 41.00000005 L 303.00000005 31.00000005 A 3 3 0 0 1 306.00000005 28.00000005 Z" stroke="#ffffff" stroke-width="1e-7" opacity="1" filter="none" class="highcharts-point"></path><path fill="#B375AB" d="M 400.00000005 54.00000005 L 424.00000005 54.00000005 A 0 0 0 0 1 424.00000005 54.00000005 L 424.00000005 67.00000005 A 0 0 0 0 1 424.00000005 67.00000005 L 400.00000005 67.00000005 A 0 0 0 0 1 400.00000005 67.00000005 L 400.00000005 54.00000005 A 0 0 0 0 1 400.00000005 54.00000005 Z" stroke="#ffffff" stroke-width="1e-7" opacity="1" filter="none" class="highcharts-point"></path><path fill="#B375AB" d="M 449.00000005 44.00000005 L 473.00000005 44.00000005 A 0 0 0 0 1 473.00000005 44.00000005 L 473.00000005 57.00000005 A 0 0 0 0 1 473.00000005 57.00000005 L 449.00000005 57.00000005 A 0 0 0 0 1 449.00000005 57.00000005 L 449.00000005 44.00000005 A 0 0 0 0 1 449.00000005 44.00000005 Z" stroke="#ffffff" stroke-width="1e-7" opacity="1" filter="none" class="highcharts-point"></path><path fill="#B375AB" d="M 497.00000005 26.00000005 L 521.00000005 26.00000005 A 0 0 0 0 1 521.00000005 26.00000005 L 521.00000005 39.00000005 A 0 0 0 0 1 521.00000005 39.00000005 L 497.00000005 39.00000005 A 0 0 0 0 1 497.00000005 39.00000005 L 497.00000005 26.00000005 A 0 0 0 0 1 497.00000005 26.00000005 Z" stroke="#ffffff" stroke-width="1e-7" opacity="1" filter="none" class="highcharts-point"></path></g><g class="highcharts-markers highcharts-series-1 highcharts-column-series" data-z-index="0.1" opacity="1" transform="translate(57,106) scale(1 1)" clip-path="none"></g><g class="highcharts-series highcharts-series-2 highcharts-column-series highcharts-tracker" data-z-index="0.1" opacity="1" transform="translate(57,106) scale(1 1)" clip-path="url(#highcharts-prd6j3n-1438-)"><path fill="#662673" d="M 400.00000005 67.00000005 L 424.00000005 67.00000005 A 0 0 0 0 1 424.00000005 67.00000005 L 424.00000005 209.00000004999998 A 0 0 0 0 1 424.00000005 209.00000004999998 L 400.00000005 209.00000004999998 A 0 0 0 0 1 400.00000005 209.00000004999998 L 400.00000005 67.00000005 A 0 0 0 0 1 400.00000005 67.00000005 Z" stroke="#ffffff" stroke-width="1e-7" opacity="1" filter="none" class="highcharts-point"></path><path fill="#662673" d="M 449.00000005 57.00000005 L 473.00000005 57.00000005 A 0 0 0 0 1 473.00000005 57.00000005 L 473.00000005 209.00000004999998 A 0 0 0 0 1 473.00000005 209.00000004999998 L 449.00000005 209.00000004999998 A 0 0 0 0 1 449.00000005 209.00000004999998 L 449.00000005 57.00000005 A 0 0 0 0 1 449.00000005 57.00000005 Z" stroke="#ffffff" stroke-width="1e-7" opacity="1" filter="none" class="highcharts-point"></path><path fill="#662673" d="M 497.00000005 39.00000005 L 521.00000005 39.00000005 A 0 0 0 0 1 521.00000005 39.00000005 L 521.00000005 209.00000004999998 A 0 0 0 0 1 521.00000005 209.00000004999998 L 497.00000005 209.00000004999998 A 0 0 0 0 1 497.00000005 209.00000004999998 L 497.00000005 39.00000005 A 0 0 0 0 1 497.00000005 39.00000005 Z" stroke="#ffffff" stroke-width="1e-7" opacity="1" filter="none" class="highcharts-point"></path></g><g class="highcharts-markers highcharts-series-2 highcharts-column-series" data-z-index="0.1" opacity="1" transform="translate(57,106) scale(1 1)" clip-path="none"></g><g class="highcharts-series highcharts-series-3 highcharts-column-series highcharts-tracker" data-z-index="0.1" opacity="1" transform="translate(57,106) scale(1 1)" clip-path="url(#highcharts-prd6j3n-1438-)"><path fill="#999999" d="M 13.00000005 67.00000005 L 37.00000005 67.00000005 A 0 0 0 0 1 37.00000005 67.00000005 L 37.00000005 209.00000004999998 A 0 0 0 0 1 37.00000005 209.00000004999998 L 13.00000005 209.00000004999998 A 0 0 0 0 1 13.00000005 209.00000004999998 L 13.00000005 67.00000005 A 0 0 0 0 1 13.00000005 67.00000005 Z" stroke="#ffffff" stroke-width="1e-7" opacity="1" filter="none" class="highcharts-point"></path><path fill="#999999" d="M 61.00000005 58.00000005 L 85.00000005 58.00000005 A 0 0 0 0 1 85.00000005 58.00000005 L 85.00000005 209.00000004999998 A 0 0 0 0 1 85.00000005 209.00000004999998 L 61.00000005 209.00000004999998 A 0 0 0 0 1 61.00000005 209.00000004999998 L 61.00000005 58.00000005 A 0 0 0 0 1 61.00000005 58.00000005 Z" stroke="#ffffff" stroke-width="1e-7" opacity="1" filter="none" class="highcharts-point"></path><path fill="#999999" d="M 110.00000005 60.00000005 L 134.00000005 60.00000005 A 0 0 0 0 1 134.00000005 60.00000005 L 134.00000005 209.00000004999998 A 0 0 0 0 1 134.00000005 209.00000004999998 L 110.00000005 209.00000004999998 A 0 0 0 0 1 110.00000005 209.00000004999998 L 110.00000005 60.00000005 A 0 0 0 0 1 110.00000005 60.00000005 Z" stroke="#ffffff" stroke-width="1e-7" opacity="1" filter="none" class="highcharts-point"></path><path fill="#999999" d="M 158.00000005 59.00000005 L 182.00000005 59.00000005 A 0 0 0 0 1 182.00000005 59.00000005 L 182.00000005 209.00000004999998 A 0 0 0 0 1 182.00000005 209.00000004999998 L 158.00000005 209.00000004999998 A 0 0 0 0 1 158.00000005 209.00000004999998 L 158.00000005 59.00000005 A 0 0 0 0 1 158.00000005 59.00000005 Z" stroke="#ffffff" stroke-width="1e-7" opacity="1" filter="none" class="highcharts-point"></path><path fill="#999999" d="M 206.00000005 48.00000005 L 230.00000005 48.00000005 A 0 0 0 0 1 230.00000005 48.00000005 L 230.00000005 209.00000004999998 A 0 0 0 0 1 230.00000005 209.00000004999998 L 206.00000005 209.00000004999998 A 0 0 0 0 1 206.00000005 209.00000004999998 L 206.00000005 48.00000005 A 0 0 0 0 1 206.00000005 48.00000005 Z" stroke="#ffffff" stroke-width="1e-7" opacity="1" filter="none" class="highcharts-point"></path><path fill="#999999" d="M 255.00000005 42.00000005 L 279.00000005 42.00000005 A 0 0 0 0 1 279.00000005 42.00000005 L 279.00000005 209.00000004999998 A 0 0 0 0 1 279.00000005 209.00000004999998 L 255.00000005 209.00000004999998 A 0 0 0 0 1 255.00000005 209.00000004999998 L 255.00000005 42.00000005 A 0 0 0 0 1 255.00000005 42.00000005 Z" stroke="#ffffff" stroke-width="1e-7" opacity="1" filter="none" class="highcharts-point"></path><path fill="#999999" d="M 303.00000005 41.00000005 L 327.00000005 41.00000005 A 0 0 0 0 1 327.00000005 41.00000005 L 327.00000005 209.00000004999998 A 0 0 0 0 1 327.00000005 209.00000004999998 L 303.00000005 209.00000004999998 A 0 0 0 0 1 303.00000005 209.00000004999998 L 303.00000005 41.00000005 A 0 0 0 0 1 303.00000005 41.00000005 Z" stroke="#ffffff" stroke-width="1e-7" opacity="1" filter="none" class="highcharts-point"></path></g><g class="highcharts-markers highcharts-series-3 highcharts-column-series" data-z-index="0.1" opacity="1" transform="translate(57,106) scale(1 1)" clip-path="none"></g></g><text x="10" text-anchor="start" class="highcharts-caption" data-z-index="4" style="font-size: 0.8em; fill: rgb(102, 102, 102);" text-align="left" y="357" transform-origin="10 15" transform="translate(0,0) scale(1 1)"></text><g class="highcharts-axis-labels highcharts-xaxis-labels" data-z-index="7"><text x="81.22727272726726" text-anchor="middle" transform="translate(0,0)" style="cursor: default; font-size: 0.8em; fill: rgb(0, 0, 0);" y="342" opacity="1">2015</text><text x="129.68181818181728" text-anchor="middle" transform="translate(0,0)" style="cursor: default; font-size: 0.8em; fill: rgb(0, 0, 0);" y="342" opacity="1">2016</text><text x="178.1363636363673" text-anchor="middle" transform="translate(0,0)" style="cursor: default; font-size: 0.8em; fill: rgb(0, 0, 0);" y="342" opacity="1">2017</text><text x="226.59090909090727" text-anchor="middle" transform="translate(0,0)" style="cursor: default; font-size: 0.8em; fill: rgb(0, 0, 0);" y="342" opacity="1">2018</text><text x="275.04545454545723" text-anchor="middle" transform="translate(0,0)" style="cursor: default; font-size: 0.8em; fill: rgb(0, 0, 0);" y="342" opacity="1">2019</text><text x="323.49999999999727" text-anchor="middle" transform="translate(0,0)" style="cursor: default; font-size: 0.8em; fill: rgb(0, 0, 0);" y="342" opacity="1">2020</text><text x="371.95454545454726" text-anchor="middle" transform="translate(0,0)" style="cursor: default; font-size: 0.8em; fill: rgb(0, 0, 0);" y="342" opacity="1">2021</text><text x="420.40909090908724" text-anchor="middle" transform="translate(0,0)" style="cursor: default; font-size: 0.8em; fill: rgb(0, 0, 0);" y="342" opacity="1"></text><text x="468.8636363636372" text-anchor="middle" transform="translate(0,0)" style="cursor: default; font-size: 0.8em; fill: rgb(0, 0, 0);" y="342" opacity="1">2022</text><text x="517.3181818181772" text-anchor="middle" transform="translate(0,0)" style="cursor: default; font-size: 0.8em; fill: rgb(0, 0, 0);" y="342" opacity="1">2023</text><text x="565.7727272727273" text-anchor="middle" transform="translate(0,0)" style="cursor: default; font-size: 0.8em; fill: rgb(0, 0, 0);" y="342" opacity="1">2024</text></g><g class="highcharts-axis-labels highcharts-yaxis-labels" data-z-index="7"><text x="42" text-anchor="end" transform="translate(0,0)" style="cursor: default; font-size: 0.8em; fill: rgb(0, 0, 0);" y="320" opacity="1">0</text><text x="42" text-anchor="end" transform="translate(0,0)" style="cursor: default; font-size: 0.8em; fill: rgb(0, 0, 0);" y="278" opacity="1">1,000</text><text x="42" text-anchor="end" transform="translate(0,0)" style="cursor: default; font-size: 0.8em; fill: rgb(0, 0, 0);" y="236" opacity="1">2,000</text><text x="42" text-anchor="end" transform="translate(0,0)" style="cursor: default; font-size: 0.8em; fill: rgb(0, 0, 0);" y="194" opacity="1">3,000</text><text x="42" text-anchor="end" transform="translate(0,0)" style="cursor: default; font-size: 0.8em; fill: rgb(0, 0, 0);" y="152" opacity="1">4,000</text><text x="42" text-anchor="end" transform="translate(0,0)" style="cursor: default; font-size: 0.8em; fill: rgb(0, 0, 0);" y="111" opacity="1">5,000</text></g><g class="highcharts-legend highcharts-no-tooltip" data-z-index="7" text-align="left" transform="translate(57,55)"><rect fill="none" class="highcharts-legend-box" rx="0" ry="0" stroke="#999999" stroke-width="0" filter="none" x="0" y="0" width="500" height="39"></rect><g data-z-index="1"><g><g class="highcharts-legend-item highcharts-column-series highcharts-color-undefined highcharts-series-2" data-z-index="1" transform="translate(0,-5)"><text x="21" text-anchor="start" data-z-index="2" style="cursor: pointer; font-size: 0.8em; text-decoration: none; font-weight: normal; fill: rgb(51, 51, 51);" y="17">Kitas mit Betreuungsbeiträgen</text><rect x="2" y="6" rx="0" ry="0" width="12" height="12" fill="#662673" class="highcharts-point" data-z-index="3"></rect></g><g class="highcharts-legend-item highcharts-column-series highcharts-color-undefined highcharts-series-1" data-z-index="1" transform="translate(230,-5)"><text x="21" y="17" text-anchor="start" data-z-index="2" style="cursor: pointer; font-size: 0.8em; text-decoration: none; font-weight: normal; fill: rgb(51, 51, 51);">Firmenkitas</text><rect x="2" y="6" rx="0" ry="0" width="12" height="12" fill="#B375AB" class="highcharts-point" data-z-index="3"></rect></g><g class="highcharts-legend-item highcharts-column-series highcharts-color-undefined highcharts-series-0" data-z-index="1" transform="translate(0,17)"><text x="21" y="17" text-anchor="start" data-z-index="2" style="cursor: pointer; font-size: 0.8em; text-decoration: none; font-weight: normal; fill: rgb(51, 51, 51);">Kitas ohne Betreuungsbeiträge</text><rect x="2" y="6" rx="0" ry="0" width="12" height="12" fill="#FF8028" class="highcharts-point" data-z-index="3"></rect></g><g class="highcharts-legend-item highcharts-column-series highcharts-color-undefined highcharts-series-3" data-z-index="1" transform="translate(230,17)"><text x="21" y="17" text-anchor="start" data-z-index="2" style="cursor: pointer; font-size: 0.8em; text-decoration: none; font-weight: normal; fill: rgb(51, 51, 51);">Kitas</text><rect x="2" y="6" rx="0" ry="0" width="12" height="12" fill="#999999" class="highcharts-point" data-z-index="3"></rect></g></g></g></g></svg>