<?xml version="1.0" standalone="no"?><!DOCTYPE svg PUBLIC "-//W3C//DTD SVG 1.1//EN" "http://www.w3.org/Graphics/SVG/1.1/DTD/svg11.dtd"><svg xmlns:xlink="http://www.w3.org/1999/xlink" version="1.1" class="highcharts-root" style="font-family:Arial;font-size:12px;" xmlns="http://www.w3.org/2000/svg" viewBox="0 0 485 415"><desc>Created with Highcharts 8.2.0</desc><defs><clipPath id="highcharts-0no90ca-43-"><rect x="0" y="0" width="332" height="379" fill="none"></rect></clipPath><clipPath id="highcharts-0no90ca-50-"><rect x="0" y="0" width="332" height="379" fill="none"></rect></clipPath><clipPath id="highcharts-0no90ca-81-"><rect x="96" y="139" width="379" height="332" fill="none"></rect></clipPath></defs><rect fill="#fbfbfb" class="highcharts-background" x="0" y="0" width="485" height="533" rx="0" ry="0"></rect><rect fill="none" class="highcharts-plot-background" x="96" y="139" width="379" height="332"></rect><g class="highcharts-pane-group" data-z-index="0"></g><g class="highcharts-grid highcharts-xaxis-grid" data-z-index="1"><path fill="none" data-z-index="1" class="highcharts-grid-line" d="M 96 194.5 L 475 194.5" opacity="1"></path><path fill="none" data-z-index="1" class="highcharts-grid-line" d="M 96 250.5 L 475 250.5" opacity="1"></path><path fill="none" data-z-index="1" class="highcharts-grid-line" d="M 96 305.5 L 475 305.5" opacity="1"></path><path fill="none" data-z-index="1" class="highcharts-grid-line" d="M 96 360.5 L 475 360.5" opacity="1"></path><path fill="none" data-z-index="1" class="highcharts-grid-line" d="M 96 416.5 L 475 416.5" opacity="1"></path><path fill="none" data-z-index="1" class="highcharts-grid-line" d="M 96 471.5 L 475 471.5" opacity="1"></path><path fill="none" data-z-index="1" class="highcharts-grid-line" d="M 96 139.5 L 475 139.5" opacity="1"></path></g><g class="highcharts-grid highcharts-yaxis-grid" data-z-index="1"><path fill="none" stroke="#B9CFD7" stroke-width="0.5" data-z-index="1" class="highcharts-grid-line" d="M 95.75 139 L 95.75 471" opacity="1"></path><path fill="none" stroke="#B9CFD7" stroke-width="0.5" data-z-index="1" class="highcharts-grid-line" d="M 171.75 139 L 171.75 471" opacity="1"></path><path fill="none" stroke="#B9CFD7" stroke-width="0.5" data-z-index="1" class="highcharts-grid-line" d="M 247.75 139 L 247.75 471" opacity="1"></path><path fill="none" stroke="#B9CFD7" stroke-width="0.5" data-z-index="1" class="highcharts-grid-line" d="M 322.75 139 L 322.75 471" opacity="1"></path><path fill="none" stroke="#B9CFD7" stroke-width="0.5" data-z-index="1" class="highcharts-grid-line" d="M 398.75 139 L 398.75 471" opacity="1"></path><path fill="none" stroke="#B9CFD7" stroke-width="0.5" data-z-index="1" class="highcharts-grid-line" d="M 475.25 139 L 475.25 471" opacity="1"></path></g><rect fill="none" class="highcharts-plot-border" data-z-index="1" x="96" y="139" width="379" height="332"></rect><g class="highcharts-axis highcharts-xaxis" data-z-index="2"><path fill="none" class="highcharts-axis-line" stroke="#B9CFD7" stroke-width="0.5" data-z-index="7" d="M 95.75 139 L 95.75 471"></path></g><g class="highcharts-axis highcharts-yaxis" data-z-index="2"><path fill="none" class="highcharts-axis-line" data-z-index="7" d="M 96 471 L 475 471"></path></g><g class="highcharts-series-group" data-z-index="3"><g class="highcharts-series highcharts-series-0 highcharts-column-series" data-z-index="0.1" opacity="1" transform="translate(475,471) rotate(90) scale(-1,1) scale(1 1)" clip-path="url(#highcharts-0no90ca-50-)"><rect x="282" y="1" width="45" height="0" fill="#6F6F6F" opacity="1" class="highcharts-point"></rect><rect x="227" y="1" width="45" height="0" fill="#6F6F6F" opacity="1" class="highcharts-point"></rect><rect x="172" y="1" width="45" height="0" fill="#6F6F6F" opacity="1" class="highcharts-point"></rect><rect x="116" y="0" width="45" height="2" fill="#6F6F6F" opacity="1" class="highcharts-point"></rect><rect x="61" y="1" width="45" height="0" fill="#6F6F6F" opacity="1" class="highcharts-point"></rect><rect x="6" y="0" width="45" height="18" fill="#6F6F6F" opacity="1" class="highcharts-point"></rect></g><g class="highcharts-markers highcharts-series-0 highcharts-column-series" data-z-index="0.1" opacity="1" transform="translate(475,471) rotate(90) scale(-1,1) scale(1 1)" clip-path="none"></g><g class="highcharts-series highcharts-series-1 highcharts-column-series" data-z-index="0.1" opacity="1" transform="translate(475,471) rotate(90) scale(-1,1) scale(1 1)" clip-path="url(#highcharts-0no90ca-50-)"><rect x="282" y="0" width="45" height="21" fill="#C8C8C8" opacity="1" class="highcharts-point"></rect><rect x="227" y="0" width="45" height="16" fill="#C8C8C8" opacity="1" class="highcharts-point"></rect><rect x="172" y="0" width="45" height="17" fill="#C8C8C8" opacity="1" class="highcharts-point"></rect><rect x="116" y="2" width="45" height="10" fill="#C8C8C8" opacity="1" class="highcharts-point"></rect><rect x="61" y="0" width="45" height="21" fill="#C8C8C8" opacity="1" class="highcharts-point"></rect><rect x="6" y="18" width="45" height="28" fill="#C8C8C8" opacity="1" class="highcharts-point"></rect></g><g class="highcharts-markers highcharts-series-1 highcharts-column-series" data-z-index="0.1" opacity="1" transform="translate(475,471) rotate(90) scale(-1,1) scale(1 1)" clip-path="none"></g><g class="highcharts-series highcharts-series-2 highcharts-column-series" data-z-index="0.1" opacity="1" transform="translate(475,471) rotate(90) scale(-1,1) scale(1 1)" clip-path="url(#highcharts-0no90ca-50-)"><rect x="282" y="21" width="45" height="4" fill="#DC440E" opacity="1" class="highcharts-point"></rect><rect x="227" y="16" width="45" height="6" fill="#DC440E" opacity="1" class="highcharts-point"></rect><rect x="172" y="17" width="45" height="2" fill="#DC440E" opacity="1" class="highcharts-point"></rect><rect x="116" y="12" width="45" height="3" fill="#DC440E" opacity="1" class="highcharts-point"></rect><rect x="61" y="21" width="45" height="1" fill="#DC440E" opacity="1" class="highcharts-point"></rect><rect x="6" y="46" width="45" height="3" fill="#DC440E" opacity="1" class="highcharts-point"></rect></g><g class="highcharts-markers highcharts-series-2 highcharts-column-series" data-z-index="0.1" opacity="1" transform="translate(475,471) rotate(90) scale(-1,1) scale(1 1)" clip-path="none"></g><g class="highcharts-series highcharts-series-3 highcharts-column-series" data-z-index="0.1" opacity="1" transform="translate(475,471) rotate(90) scale(-1,1) scale(1 1)" clip-path="url(#highcharts-0no90ca-50-)"><rect x="282" y="25" width="45" height="30" fill="#FABD24" opacity="1" class="highcharts-point"></rect><rect x="227" y="22" width="45" height="31" fill="#FABD24" opacity="1" class="highcharts-point"></rect><rect x="172" y="19" width="45" height="32" fill="#FABD24" opacity="1" class="highcharts-point"></rect><rect x="116" y="15" width="45" height="23" fill="#FABD24" opacity="1" class="highcharts-point"></rect><rect x="61" y="22" width="45" height="18" fill="#FABD24" opacity="1" class="highcharts-point"></rect><rect x="6" y="49" width="45" height="26" fill="#FABD24" opacity="1" class="highcharts-point"></rect></g><g class="highcharts-markers highcharts-series-3 highcharts-column-series" data-z-index="0.1" opacity="1" transform="translate(475,471) rotate(90) scale(-1,1) scale(1 1)" clip-path="none"></g><g class="highcharts-series highcharts-series-4 highcharts-column-series" data-z-index="0.1" opacity="1" transform="translate(475,471) rotate(90) scale(-1,1) scale(1 1)" clip-path="url(#highcharts-0no90ca-50-)"><rect x="282" y="55" width="45" height="175" fill="#68ab2b" opacity="1" class="highcharts-point"></rect><rect x="227" y="53" width="45" height="196" fill="#68ab2b" opacity="1" class="highcharts-point"></rect><rect x="172" y="51" width="45" height="204" fill="#68ab2b" opacity="1" class="highcharts-point"></rect><rect x="116" y="38" width="45" height="157" fill="#68ab2b" opacity="1" class="highcharts-point"></rect><rect x="61" y="40" width="45" height="175" fill="#68ab2b" opacity="1" class="highcharts-point"></rect><rect x="6" y="75" width="45" height="155" fill="#68ab2b" opacity="1" class="highcharts-point"></rect></g><g class="highcharts-markers highcharts-series-4 highcharts-column-series" data-z-index="0.1" opacity="1" transform="translate(475,471) rotate(90) scale(-1,1) scale(1 1)" clip-path="none"></g><g class="highcharts-series highcharts-series-5 highcharts-column-series" data-z-index="0.1" opacity="1" transform="translate(475,471) rotate(90) scale(-1,1) scale(1 1)" clip-path="url(#highcharts-0no90ca-50-)"><rect x="282" y="230" width="45" height="150" fill="#007a2f" opacity="1" class="highcharts-point"></rect><rect x="227" y="249" width="45" height="131" fill="#007a2f" opacity="1" class="highcharts-point"></rect><rect x="172" y="255" width="45" height="125" fill="#007a2f" opacity="1" class="highcharts-point"></rect><rect x="116" y="195" width="45" height="185" fill="#007a2f" opacity="1" class="highcharts-point"></rect><rect x="61" y="215" width="45" height="165" fill="#007a2f" opacity="1" class="highcharts-point"></rect><rect x="6" y="230" width="45" height="150" fill="#007a2f" opacity="1" class="highcharts-point"></rect></g><g class="highcharts-markers highcharts-series-5 highcharts-column-series" data-z-index="0.1" opacity="1" transform="translate(475,471) rotate(90) scale(-1,1) scale(1 1)" clip-path="none"></g></g><text x="10" text-anchor="start" class="highcharts-title" data-z-index="4" style="color:#000000;font-size:14px;font-weight:bold;fill:#000000;" y="21"><tspan>Zufriedenheit mit dem Kulturangebot</tspan></text><text x="10" text-anchor="start" class="highcharts-subtitle" data-z-index="4" style="color:#000000;font-size:12px;fill:#000000;" y="40"><tspan>«Wie zufrieden sind Sie mit dem Kulturangebot?», Basel-Stadt</tspan></text><text x="10" text-anchor="start" class="highcharts-caption" data-z-index="4" style="color:#666666;fill:#666666;" y="505"></text><g class="highcharts-legend" data-z-index="7" transform="translate(88,56)"><rect fill="none" class="highcharts-legend-box" rx="0" ry="0" x="0" y="0" width="264" height="71" visibility="visible"></rect><g data-z-index="1"><g><g class="highcharts-legend-item highcharts-column-series highcharts-color-undefined highcharts-series-5" data-z-index="1" transform="translate(8,3)"><text x="21" style="color:#333333;cursor:pointer;font-size:12px;font-weight:normal;fill:#333333;" text-anchor="start" data-z-index="2" y="15"><tspan>Sehr zufrieden</tspan></text><rect x="2" y="4" width="12" height="12" fill="#007a2f" class="highcharts-point" data-z-index="3"></rect></g><g class="highcharts-legend-item highcharts-column-series highcharts-color-undefined highcharts-series-4" data-z-index="1" transform="translate(142,3)"><text x="21" y="15" style="color:#333333;cursor:pointer;font-size:12px;font-weight:normal;fill:#333333;" text-anchor="start" data-z-index="2"><tspan>Eher zufrieden</tspan></text><rect x="2" y="4" width="12" height="12" fill="#68ab2b" class="highcharts-point" data-z-index="3"></rect></g><g class="highcharts-legend-item highcharts-column-series highcharts-color-undefined highcharts-series-3" data-z-index="1" transform="translate(8,23)"><text x="21" y="15" style="color:#333333;cursor:pointer;font-size:12px;font-weight:normal;fill:#333333;" text-anchor="start" data-z-index="2"><tspan>Eher unzufrieden</tspan></text><rect x="2" y="4" width="12" height="12" fill="#FABD24" class="highcharts-point" data-z-index="3"></rect></g><g class="highcharts-legend-item highcharts-column-series highcharts-color-undefined highcharts-series-2" data-z-index="1" transform="translate(142,23)"><text x="21" y="15" style="color:#333333;cursor:pointer;font-size:12px;font-weight:normal;fill:#333333;" text-anchor="start" data-z-index="2"><tspan>Sehr unzufrieden</tspan></text><rect x="2" y="4" width="12" height="12" fill="#DC440E" class="highcharts-point" data-z-index="3"></rect></g><g class="highcharts-legend-item highcharts-column-series highcharts-color-undefined highcharts-series-1" data-z-index="1" transform="translate(8,43)"><text x="21" y="15" style="color:#333333;cursor:pointer;font-size:12px;font-weight:normal;fill:#333333;" text-anchor="start" data-z-index="2"><tspan>Weiss nicht</tspan></text><rect x="2" y="4" width="12" height="12" fill="#C8C8C8" class="highcharts-point" data-z-index="3"></rect></g><g class="highcharts-legend-item highcharts-column-series highcharts-color-undefined highcharts-series-0" data-z-index="1" transform="translate(142,43)"><text x="21" y="15" style="color:#333333;cursor:pointer;font-size:12px;font-weight:normal;fill:#333333;" text-anchor="start" data-z-index="2"><tspan>Keine Angabe</tspan></text><rect x="2" y="4" width="12" height="12" fill="#6F6F6F" class="highcharts-point" data-z-index="3"></rect></g></g></g></g><g class="highcharts-axis-labels highcharts-xaxis-labels" data-z-index="7"><text x="81" style="color:#000000;cursor:default;font-size:11px;white-space:nowrap;fill:#000000;" text-anchor="end" transform="translate(0,0)" y="171" opacity="1"><tspan>2003 (n=1488)</tspan></text><text x="81" style="color:#000000;cursor:default;font-size:11px;white-space:nowrap;fill:#000000;" text-anchor="end" transform="translate(0,0)" y="226" opacity="1"><tspan>2005 (n=1504)</tspan></text><text x="81" style="color:#000000;cursor:default;font-size:11px;white-space:nowrap;fill:#000000;" text-anchor="end" transform="translate(0,0)" y="281" opacity="1"><tspan>2007 (n=1499)</tspan></text><text x="81" style="color:#000000;cursor:default;font-size:11px;white-space:nowrap;fill:#000000;" text-anchor="end" transform="translate(0,0)" y="337" opacity="1"><tspan>2011 (n=1509)</tspan></text><text x="81" style="color:#000000;cursor:default;font-size:11px;white-space:nowrap;fill:#000000;" text-anchor="end" transform="translate(0,0)" y="392" opacity="1"><tspan>2015 (n=1495)</tspan></text><text x="81" style="color:#000000;cursor:default;font-size:11px;white-space:nowrap;fill:#000000;" text-anchor="end" transform="translate(0,0)" y="447" opacity="1"><tspan>2019 (n=2008)</tspan></text></g><g class="highcharts-axis-labels highcharts-yaxis-labels" data-z-index="7"><text x="96" style="color:#000000;cursor:default;font-size:11px;white-space:nowrap;fill:#000000;" text-anchor="middle" transform="translate(0,0)" y="490" opacity="1">0%</text><text x="171.8" style="color:#000000;cursor:default;font-size:11px;white-space:nowrap;fill:#000000;" text-anchor="middle" transform="translate(0,0)" y="490" opacity="1">20%</text><text x="247.6" style="color:#000000;cursor:default;font-size:11px;white-space:nowrap;fill:#000000;" text-anchor="middle" transform="translate(0,0)" y="490" opacity="1">40%</text><text x="323.4" style="color:#000000;cursor:default;font-size:11px;white-space:nowrap;fill:#000000;" text-anchor="middle" transform="translate(0,0)" y="490" opacity="1">60%</text><text x="399.2" style="color:#000000;cursor:default;font-size:11px;white-space:nowrap;fill:#000000;" text-anchor="middle" transform="translate(0,0)" y="490" opacity="1">80%</text><text x="461" style="color:#000000;cursor:default;font-size:11px;white-space:nowrap;fill:#000000;" text-anchor="middle" transform="translate(0,0)" y="490" opacity="1">100%</text></g><text x="10" class="highcharts-credits" text-anchor="start" data-z-index="8" style="cursor:default;color:#000000;font-size:10px;fill:#000000;" y="508"><tspan>Quelle: Statistisches Amt Basel-Stadt, kantonale Bevölkerungsbefragung.</tspan><tspan x="10" dy="13">Zuletzt geändert: 16.11.2020</tspan></text><g class="highcharts-control-points" data-z-index="99" clip-path="url(#highcharts-0no90ca-81-)"></g></svg>