<svg version="1.1" class="highcharts-root" style="font-family: Arial; font-size: 1rem;" xmlns="http://www.w3.org/2000/svg" width="600" height="400" viewBox="0 0 600 400" role="img" aria-label="Freiraumfläche und Anteil an der Gesamtfläche"><desc>Created with Highcharts 12.5.0</desc><defs><filter id="highcharts-drop-shadow-0"><feDropShadow dx="1" dy="1" flood-color="#000000" flood-opacity="0.75" stdDeviation="2.5"></feDropShadow></filter><clipPath id="highcharts-1l55k80-702-"><rect x="0" y="0" width="499" height="245" fill="none"></rect></clipPath><clipPath id="highcharts-1l55k80-726-"><rect x="0" y="0" width="499" height="245" fill="none"></rect></clipPath></defs><rect fill="#ffffff" class="highcharts-background" filter="none" x="0" y="0" width="600" height="400" rx="0" ry="0"></rect><rect fill="none" class="highcharts-plot-background" x="46" y="85" width="499" height="245" filter="none"></rect><g class="highcharts-pane-group" data-z-index="0"></g><g class="highcharts-grid highcharts-xaxis-grid" data-z-index="1"><path fill="none" stroke="#e6e6e6" stroke-width="0" stroke-dasharray="none" data-z-index="1" class="highcharts-grid-line" d="M 61.5 85 L 61.5 330" opacity="1"></path><path fill="none" stroke="#e6e6e6" stroke-width="0" stroke-dasharray="none" data-z-index="1" class="highcharts-grid-line" d="M 103.5 85 L 103.5 330" opacity="1"></path><path fill="none" stroke="#e6e6e6" stroke-width="0" stroke-dasharray="none" data-z-index="1" class="highcharts-grid-line" d="M 146.5 85 L 146.5 330" opacity="1"></path><path fill="none" stroke="#e6e6e6" stroke-width="0" stroke-dasharray="none" data-z-index="1" class="highcharts-grid-line" d="M 189.5 85 L 189.5 330" opacity="1"></path><path fill="none" stroke="#e6e6e6" stroke-width="0" stroke-dasharray="none" data-z-index="1" class="highcharts-grid-line" d="M 231.5 85 L 231.5 330" opacity="1"></path><path fill="none" stroke="#e6e6e6" stroke-width="0" stroke-dasharray="none" data-z-index="1" class="highcharts-grid-line" d="M 274.5 85 L 274.5 330" opacity="1"></path><path fill="none" stroke="#e6e6e6" stroke-width="0" stroke-dasharray="none" data-z-index="1" class="highcharts-grid-line" d="M 316.5 85 L 316.5 330" opacity="1"></path><path fill="none" stroke="#e6e6e6" stroke-width="0" stroke-dasharray="none" data-z-index="1" class="highcharts-grid-line" d="M 359.5 85 L 359.5 330" opacity="1"></path><path fill="none" stroke="#e6e6e6" stroke-width="0" stroke-dasharray="none" data-z-index="1" class="highcharts-grid-line" d="M 401.5 85 L 401.5 330" opacity="1"></path><path fill="none" stroke="#e6e6e6" stroke-width="0" stroke-dasharray="none" data-z-index="1" class="highcharts-grid-line" d="M 444.5 85 L 444.5 330" opacity="1"></path><path fill="none" stroke="#e6e6e6" stroke-width="0" stroke-dasharray="none" data-z-index="1" class="highcharts-grid-line" d="M 487.5 85 L 487.5 330" opacity="1"></path><path fill="none" stroke="#e6e6e6" stroke-width="0" stroke-dasharray="none" data-z-index="1" class="highcharts-grid-line" d="M 529.5 85 L 529.5 330" opacity="1"></path></g><g class="highcharts-grid highcharts-yaxis-grid" data-z-index="1"><path fill="none" stroke="#B9CFD7" stroke-width="0.5" stroke-dasharray="none" data-z-index="1" class="highcharts-grid-line" d="M 46 330.25 L 545 330.25" opacity="1"></path><path fill="none" stroke="#B9CFD7" stroke-width="0.5" stroke-dasharray="none" data-z-index="1" class="highcharts-grid-line" d="M 46 269.25 L 545 269.25" opacity="1"></path><path fill="none" stroke="#B9CFD7" stroke-width="0.5" stroke-dasharray="none" data-z-index="1" class="highcharts-grid-line" d="M 46 207.25 L 545 207.25" opacity="1"></path><path fill="none" stroke="#B9CFD7" stroke-width="0.5" stroke-dasharray="none" data-z-index="1" class="highcharts-grid-line" d="M 46 146.25 L 545 146.25" opacity="1"></path><path fill="none" stroke="#B9CFD7" stroke-width="0.5" stroke-dasharray="none" data-z-index="1" class="highcharts-grid-line" d="M 46 85.25 L 545 85.25" opacity="1"></path></g><g class="highcharts-grid highcharts-yaxis-grid" data-z-index="1"><path fill="none" stroke="#B9CFD7" stroke-width="0.5" stroke-dasharray="none" data-z-index="1" class="highcharts-grid-line" d="M 46 330.25 L 545 330.25" opacity="1"></path><path fill="none" stroke="#B9CFD7" stroke-width="0.5" stroke-dasharray="none" data-z-index="1" class="highcharts-grid-line" d="M 46 269.25 L 545 269.25" opacity="1"></path><path fill="none" stroke="#B9CFD7" stroke-width="0.5" stroke-dasharray="none" data-z-index="1" class="highcharts-grid-line" d="M 46 207.25 L 545 207.25" opacity="1"></path><path fill="none" stroke="#B9CFD7" stroke-width="0.5" stroke-dasharray="none" data-z-index="1" class="highcharts-grid-line" d="M 46 146.25 L 545 146.25" opacity="1"></path><path fill="none" stroke="#B9CFD7" stroke-width="0.5" stroke-dasharray="none" data-z-index="1" class="highcharts-grid-line" d="M 46 85.25 L 545 85.25" opacity="1"></path></g><rect fill="none" class="highcharts-plot-border" data-z-index="1" stroke="#cccccc" stroke-width="0" x="46" y="85" width="499" height="245"></rect><g class="highcharts-axis highcharts-xaxis" data-z-index="2"><path fill="none" class="highcharts-axis-line" stroke="#B9CFD7" stroke-width="0.5" data-z-index="7" d="M 46 330.25 L 545 330.25"></path></g><g class="highcharts-axis highcharts-yaxis" data-z-index="2"><path fill="none" class="highcharts-axis-line" stroke="#333333" stroke-width="0" data-z-index="7" d="M 46 85 L 46 330"></path></g><g class="highcharts-axis highcharts-yaxis" data-z-index="2"><path fill="none" class="highcharts-axis-line" stroke="#333333" stroke-width="0" data-z-index="7" d="M 545 85 L 545 330"></path></g><g class="highcharts-series-group" data-z-index="3" filter="none"><g class="highcharts-series highcharts-series-0 highcharts-column-series highcharts-tracker" data-z-index="0.1" opacity="1" transform="translate(46,85) scale(1 1)" clip-path="url(#highcharts-1l55k80-702-)"><path fill="#73b97c" d="M 13.00000005 96.00000005 L 18.00000005 96.00000005 A 3 3 0 0 1 21.00000005 99.00000005 L 21.00000005 245.00000004999998 A 0 0 0 0 1 21.00000005 245.00000004999998 L 10.00000005 245.00000004999998 A 0 0 0 0 1 10.00000005 245.00000004999998 L 10.00000005 99.00000005 A 3 3 0 0 1 13.00000005 96.00000005 Z" stroke="#ffffff" stroke-width="1e-7" opacity="1" filter="none" class="highcharts-point"></path><path fill="#73b97c" d="M 35.00000005 74.00000005 L 40.00000005 74.00000005 A 3 3 0 0 1 43.00000005 77.00000005 L 43.00000005 245.00000004999998 A 0 0 0 0 1 43.00000005 245.00000004999998 L 32.00000005 245.00000004999998 A 0 0 0 0 1 32.00000005 245.00000004999998 L 32.00000005 77.00000005 A 3 3 0 0 1 35.00000005 74.00000005 Z" stroke="#ffffff" stroke-width="1e-7" opacity="1" filter="none" class="highcharts-point"></path><path fill="#73b97c" d="M 56.00000005 73.00000005 L 61.00000005 73.00000005 A 3 3 0 0 1 64.00000005 76.00000005 L 64.00000005 245.00000004999998 A 0 0 0 0 1 64.00000005 245.00000004999998 L 53.00000005 245.00000004999998 A 0 0 0 0 1 53.00000005 245.00000004999998 L 53.00000005 76.00000005 A 3 3 0 0 1 56.00000005 73.00000005 Z" stroke="#ffffff" stroke-width="1e-7" opacity="1" filter="none" class="highcharts-point"></path><path fill="#73b97c" d="M 77.00000005 74.00000005 L 82.00000005 74.00000005 A 3 3 0 0 1 85.00000005 77.00000005 L 85.00000005 245.00000004999998 A 0 0 0 0 1 85.00000005 245.00000004999998 L 74.00000005 245.00000004999998 A 0 0 0 0 1 74.00000005 245.00000004999998 L 74.00000005 77.00000005 A 3 3 0 0 1 77.00000005 74.00000005 Z" stroke="#ffffff" stroke-width="1e-7" opacity="1" filter="none" class="highcharts-point"></path><path fill="#73b97c" d="M 98.00000005 74.00000005 L 103.00000005 74.00000005 A 3 3 0 0 1 106.00000005 77.00000005 L 106.00000005 245.00000004999998 A 0 0 0 0 1 106.00000005 245.00000004999998 L 95.00000005 245.00000004999998 A 0 0 0 0 1 95.00000005 245.00000004999998 L 95.00000005 77.00000005 A 3 3 0 0 1 98.00000005 74.00000005 Z" stroke="#ffffff" stroke-width="1e-7" opacity="1" filter="none" class="highcharts-point"></path><path fill="#73b97c" d="M 120.00000005 74.00000005 L 125.00000005000001 74.00000005 A 3 3 0 0 1 128.00000005 77.00000005 L 128.00000005 245.00000004999998 A 0 0 0 0 1 128.00000005 245.00000004999998 L 117.00000005 245.00000004999998 A 0 0 0 0 1 117.00000005 245.00000004999998 L 117.00000005 77.00000005 A 3 3 0 0 1 120.00000005 74.00000005 Z" stroke="#ffffff" stroke-width="1e-7" opacity="1" filter="none" class="highcharts-point"></path><path fill="#73b97c" d="M 141.00000005 74.00000005 L 146.00000005 74.00000005 A 3 3 0 0 1 149.00000005 77.00000005 L 149.00000005 245.00000004999998 A 0 0 0 0 1 149.00000005 245.00000004999998 L 138.00000005 245.00000004999998 A 0 0 0 0 1 138.00000005 245.00000004999998 L 138.00000005 77.00000005 A 3 3 0 0 1 141.00000005 74.00000005 Z" stroke="#ffffff" stroke-width="1e-7" opacity="1" filter="none" class="highcharts-point"></path><path fill="#73b97c" d="M 162.00000005 74.00000005 L 167.00000005 74.00000005 A 3 3 0 0 1 170.00000005 77.00000005 L 170.00000005 245.00000004999998 A 0 0 0 0 1 170.00000005 245.00000004999998 L 159.00000005 245.00000004999998 A 0 0 0 0 1 159.00000005 245.00000004999998 L 159.00000005 77.00000005 A 3 3 0 0 1 162.00000005 74.00000005 Z" stroke="#ffffff" stroke-width="1e-7" opacity="1" filter="none" class="highcharts-point"></path><path fill="#73b97c" d="M 184.00000005 71.00000005 L 189.00000005 71.00000005 A 3 3 0 0 1 192.00000005 74.00000005 L 192.00000005 245.00000004999998 A 0 0 0 0 1 192.00000005 245.00000004999998 L 181.00000005 245.00000004999998 A 0 0 0 0 1 181.00000005 245.00000004999998 L 181.00000005 74.00000005 A 3 3 0 0 1 184.00000005 71.00000005 Z" stroke="#ffffff" stroke-width="1e-7" opacity="1" filter="none" class="highcharts-point"></path><path fill="#73b97c" d="M 205.00000005 68.00000005 L 210.00000005 68.00000005 A 3 3 0 0 1 213.00000005 71.00000005 L 213.00000005 245.00000004999998 A 0 0 0 0 1 213.00000005 245.00000004999998 L 202.00000005 245.00000004999998 A 0 0 0 0 1 202.00000005 245.00000004999998 L 202.00000005 71.00000005 A 3 3 0 0 1 205.00000005 68.00000005 Z" stroke="#ffffff" stroke-width="1e-7" opacity="1" filter="none" class="highcharts-point"></path><path fill="#73b97c" d="M 226.00000005 71.00000005 L 231.00000005 71.00000005 A 3 3 0 0 1 234.00000005 74.00000005 L 234.00000005 245.00000004999998 A 0 0 0 0 1 234.00000005 245.00000004999998 L 223.00000005 245.00000004999998 A 0 0 0 0 1 223.00000005 245.00000004999998 L 223.00000005 74.00000005 A 3 3 0 0 1 226.00000005 71.00000005 Z" stroke="#ffffff" stroke-width="1e-7" opacity="1" filter="none" class="highcharts-point"></path><path fill="#73b97c" d="M 247.00000005 74.00000005 L 252.00000005 74.00000005 A 3 3 0 0 1 255.00000005 77.00000005 L 255.00000005 245.00000004999998 A 0 0 0 0 1 255.00000005 245.00000004999998 L 244.00000005 245.00000004999998 A 0 0 0 0 1 244.00000005 245.00000004999998 L 244.00000005 77.00000005 A 3 3 0 0 1 247.00000005 74.00000005 Z" stroke="#ffffff" stroke-width="1e-7" opacity="1" filter="none" class="highcharts-point"></path><path fill="#73b97c" d="M 269.00000005 64.00000005 L 274.00000005 64.00000005 A 3 3 0 0 1 277.00000005 67.00000005 L 277.00000005 245.00000004999998 A 0 0 0 0 1 277.00000005 245.00000004999998 L 266.00000005 245.00000004999998 A 0 0 0 0 1 266.00000005 245.00000004999998 L 266.00000005 67.00000005 A 3 3 0 0 1 269.00000005 64.00000005 Z" stroke="#ffffff" stroke-width="1e-7" opacity="1" filter="none" class="highcharts-point"></path><path fill="#73b97c" d="M 290.00000005 63.00000005 L 295.00000005 63.00000005 A 3 3 0 0 1 298.00000005 66.00000005 L 298.00000005 245.00000004999998 A 0 0 0 0 1 298.00000005 245.00000004999998 L 287.00000005 245.00000004999998 A 0 0 0 0 1 287.00000005 245.00000004999998 L 287.00000005 66.00000005 A 3 3 0 0 1 290.00000005 63.00000005 Z" stroke="#ffffff" stroke-width="1e-7" opacity="1" filter="none" class="highcharts-point"></path><path fill="#73b97c" d="M 311.00000005 60.00000005 L 316.00000005 60.00000005 A 3 3 0 0 1 319.00000005 63.00000005 L 319.00000005 245.00000004999998 A 0 0 0 0 1 319.00000005 245.00000004999998 L 308.00000005 245.00000004999998 A 0 0 0 0 1 308.00000005 245.00000004999998 L 308.00000005 63.00000005 A 3 3 0 0 1 311.00000005 60.00000005 Z" stroke="#ffffff" stroke-width="1e-7" opacity="1" filter="none" class="highcharts-point"></path><path fill="#73b97c" d="M 333.00000005 61.00000005 L 338.00000005 61.00000005 A 3 3 0 0 1 341.00000005 64.00000005 L 341.00000005 245.00000004999998 A 0 0 0 0 1 341.00000005 245.00000004999998 L 330.00000005 245.00000004999998 A 0 0 0 0 1 330.00000005 245.00000004999998 L 330.00000005 64.00000005 A 3 3 0 0 1 333.00000005 61.00000005 Z" stroke="#ffffff" stroke-width="1e-7" opacity="1" filter="none" class="highcharts-point"></path><path fill="#73b97c" d="M 354.00000005 62.00000005 L 359.00000005 62.00000005 A 3 3 0 0 1 362.00000005 65.00000005 L 362.00000005 245.00000004999998 A 0 0 0 0 1 362.00000005 245.00000004999998 L 351.00000005 245.00000004999998 A 0 0 0 0 1 351.00000005 245.00000004999998 L 351.00000005 65.00000005 A 3 3 0 0 1 354.00000005 62.00000005 Z" stroke="#ffffff" stroke-width="1e-7" opacity="1" filter="none" class="highcharts-point"></path><path fill="#73b97c" d="M 375.00000005 63.00000005 L 380.00000005 63.00000005 A 3 3 0 0 1 383.00000005 66.00000005 L 383.00000005 245.00000004999998 A 0 0 0 0 1 383.00000005 245.00000004999998 L 372.00000005 245.00000004999998 A 0 0 0 0 1 372.00000005 245.00000004999998 L 372.00000005 66.00000005 A 3 3 0 0 1 375.00000005 63.00000005 Z" stroke="#ffffff" stroke-width="1e-7" opacity="1" filter="none" class="highcharts-point"></path><path fill="#73b97c" d="M 396.00000005 63.00000005 L 401.00000005 63.00000005 A 3 3 0 0 1 404.00000005 66.00000005 L 404.00000005 245.00000004999998 A 0 0 0 0 1 404.00000005 245.00000004999998 L 393.00000005 245.00000004999998 A 0 0 0 0 1 393.00000005 245.00000004999998 L 393.00000005 66.00000005 A 3 3 0 0 1 396.00000005 63.00000005 Z" stroke="#ffffff" stroke-width="1e-7" opacity="1" filter="none" class="highcharts-point"></path><path fill="#73b97c" d="M 418.00000005 61.00000005 L 423.00000005 61.00000005 A 3 3 0 0 1 426.00000005 64.00000005 L 426.00000005 245.00000004999998 A 0 0 0 0 1 426.00000005 245.00000004999998 L 415.00000005 245.00000004999998 A 0 0 0 0 1 415.00000005 245.00000004999998 L 415.00000005 64.00000005 A 3 3 0 0 1 418.00000005 61.00000005 Z" stroke="#ffffff" stroke-width="1e-7" opacity="1" filter="none" class="highcharts-point"></path><path fill="#73b97c" d="M 439.00000005 53.00000005 L 444.00000005 53.00000005 A 3 3 0 0 1 447.00000005 56.00000005 L 447.00000005 245.00000004999998 A 0 0 0 0 1 447.00000005 245.00000004999998 L 436.00000005 245.00000004999998 A 0 0 0 0 1 436.00000005 245.00000004999998 L 436.00000005 56.00000005 A 3 3 0 0 1 439.00000005 53.00000005 Z" stroke="#ffffff" stroke-width="1e-7" opacity="1" filter="none" class="highcharts-point"></path><path fill="#73b97c" d="M 460.00000005 50.00000005 L 465.00000005 50.00000005 A 3 3 0 0 1 468.00000005 53.00000005 L 468.00000005 245.00000004999998 A 0 0 0 0 1 468.00000005 245.00000004999998 L 457.00000005 245.00000004999998 A 0 0 0 0 1 457.00000005 245.00000004999998 L 457.00000005 53.00000005 A 3 3 0 0 1 460.00000005 50.00000005 Z" stroke="#ffffff" stroke-width="1e-7" opacity="1" filter="none" class="highcharts-point"></path><path fill="#73b97c" d="M 482.00000005 50.00000005 L 487.00000005 50.00000005 A 3 3 0 0 1 490.00000005 53.00000005 L 490.00000005 245.00000004999998 A 0 0 0 0 1 490.00000005 245.00000004999998 L 479.00000005 245.00000004999998 A 0 0 0 0 1 479.00000005 245.00000004999998 L 479.00000005 53.00000005 A 3 3 0 0 1 482.00000005 50.00000005 Z" stroke="#ffffff" stroke-width="1e-7" opacity="1" filter="none" class="highcharts-point"></path></g><g class="highcharts-markers highcharts-series-0 highcharts-column-series" data-z-index="0.1" opacity="1" transform="translate(46,85) scale(1 1)" clip-path="none"></g><g class="highcharts-series highcharts-series-1 highcharts-line-series" data-z-index="0.1" opacity="1" transform="translate(46,85) scale(1 1)" clip-path="url(#highcharts-1l55k80-726-)"><path fill="none" d="M 15.327645051195 164.15 L 36.616040955632 152.30833333333 L 57.904436860069 151.9 L 79.192832764506 152.30833333333 L 100.48122866894 152.71666666667 L 121.76962457338 152.71666666667 L 143.05802047782 152.30833333333 L 164.34641638225 152.30833333333 L 185.63481228669 151.08333333333 L 206.92320819113 149.45 L 228.21160409556 150.675 L 249.5 152.30833333333 L 270.78839590444 147.40833333333 L 292.07679180887 146.59166666667 L 313.36518771331 144.95833333333 L 334.65358361775 145.36666666667 L 355.94197952218 145.775 L 377.23037542662 146.59166666667 L 398.51877133106 146.18333333333 L 419.80716723549 145.775 L 441.09556313993 141.28333333333 L 462.38395904437 139.24166666667 L 483.6723549488 139.65" class="highcharts-graph" data-z-index="1" stroke="#cd9c00" stroke-width="2" stroke-linejoin="round" stroke-linecap="round" filter="none"></path><path fill="none" d="M 15.327645051195 164.15 L 36.616040955632 152.30833333333 L 57.904436860069 151.9 L 79.192832764506 152.30833333333 L 100.48122866894 152.71666666667 L 121.76962457338 152.71666666667 L 143.05802047782 152.30833333333 L 164.34641638225 152.30833333333 L 185.63481228669 151.08333333333 L 206.92320819113 149.45 L 228.21160409556 150.675 L 249.5 152.30833333333 L 270.78839590444 147.40833333333 L 292.07679180887 146.59166666667 L 313.36518771331 144.95833333333 L 334.65358361775 145.36666666667 L 355.94197952218 145.775 L 377.23037542662 146.59166666667 L 398.51877133106 146.18333333333 L 419.80716723549 145.775 L 441.09556313993 141.28333333333 L 462.38395904437 139.24166666667 L 483.6723549488 139.65" data-z-index="2" class="highcharts-tracker-line" stroke-linecap="round" stroke-linejoin="round" stroke="rgba(192,192,192,0.0001)" stroke-width="22"></path></g><g class="highcharts-markers highcharts-series-1 highcharts-line-series highcharts-tracker" data-z-index="0.1" opacity="1" transform="translate(46,85) scale(1 1)" clip-path="none"><path fill="#cd9c00" d="M 15.5 168.15 A 4 4 0 1 1 15.500199999999918 168.149999995 Z" stroke="#ffffff" stroke-width="0" opacity="1" class="highcharts-point"></path><path fill="#cd9c00" d="M 36.5 156.30833333333 A 4 4 0 1 1 36.500199999999914 156.30833332833 Z" stroke="#ffffff" stroke-width="0" opacity="1" class="highcharts-point"></path><path fill="#cd9c00" d="M 57.5 155.9 A 4 4 0 1 1 57.500199999999914 155.899999995 Z" stroke="#ffffff" stroke-width="0" opacity="1" class="highcharts-point"></path><path fill="#cd9c00" d="M 79.5 156.30833333333 A 4 4 0 1 1 79.50019999999992 156.30833332833 Z" stroke="#ffffff" stroke-width="0" opacity="1" class="highcharts-point"></path><path fill="#cd9c00" d="M 100.5 156.71666666667 A 4 4 0 1 1 100.50019999999992 156.71666666167 Z" stroke="#ffffff" stroke-width="0" opacity="1" class="highcharts-point"></path><path fill="#cd9c00" d="M 121.5 156.71666666667 A 4 4 0 1 1 121.50019999999992 156.71666666167 Z" stroke="#ffffff" stroke-width="0" opacity="1" class="highcharts-point"></path><path fill="#cd9c00" d="M 143.5 156.30833333333 A 4 4 0 1 1 143.50019999999992 156.30833332833 Z" stroke="#ffffff" stroke-width="0" opacity="1" class="highcharts-point"></path><path fill="#cd9c00" d="M 164.5 156.30833333333 A 4 4 0 1 1 164.50019999999992 156.30833332833 Z" stroke="#ffffff" stroke-width="0" opacity="1" class="highcharts-point"></path><path fill="#cd9c00" d="M 185.5 155.08333333333 A 4 4 0 1 1 185.50019999999992 155.08333332832999 Z" stroke="#ffffff" stroke-width="0" opacity="1" class="highcharts-point"></path><path fill="#cd9c00" d="M 206.5 153.45 A 4 4 0 1 1 206.50019999999992 153.44999999499998 Z" stroke="#ffffff" stroke-width="0" opacity="1" class="highcharts-point"></path><path fill="#cd9c00" d="M 228.5 154.675 A 4 4 0 1 1 228.50019999999992 154.674999995 Z" stroke="#ffffff" stroke-width="0" opacity="1" class="highcharts-point"></path><path fill="#cd9c00" d="M 249.5 156.30833333333 A 4 4 0 1 1 249.50019999999992 156.30833332833 Z" stroke="#ffffff" stroke-width="0" opacity="1" class="highcharts-point"></path><path fill="#cd9c00" d="M 270.5 151.40833333333 A 4 4 0 1 1 270.5001999999999 151.40833332833 Z" stroke="#ffffff" stroke-width="0" opacity="1" class="highcharts-point"></path><path fill="#cd9c00" d="M 292.5 150.59166666667 A 4 4 0 1 1 292.5001999999999 150.59166666167 Z" stroke="#ffffff" stroke-width="0" opacity="1" class="highcharts-point"></path><path fill="#cd9c00" d="M 313.5 148.95833333333 A 4 4 0 1 1 313.5001999999999 148.95833332832999 Z" stroke="#ffffff" stroke-width="0" opacity="1" class="highcharts-point"></path><path fill="#cd9c00" d="M 334.5 149.36666666667 A 4 4 0 1 1 334.5001999999999 149.36666666167 Z" stroke="#ffffff" stroke-width="0" opacity="1" class="highcharts-point"></path><path fill="#cd9c00" d="M 355.5 149.775 A 4 4 0 1 1 355.5001999999999 149.774999995 Z" stroke="#ffffff" stroke-width="0" opacity="1" class="highcharts-point"></path><path fill="#cd9c00" d="M 377.5 150.59166666667 A 4 4 0 1 1 377.5001999999999 150.59166666167 Z" stroke="#ffffff" stroke-width="0" opacity="1" class="highcharts-point"></path><path fill="#cd9c00" d="M 398.5 150.18333333333 A 4 4 0 1 1 398.5001999999999 150.18333332833 Z" stroke="#ffffff" stroke-width="0" opacity="1" class="highcharts-point"></path><path fill="#cd9c00" d="M 419.5 149.775 A 4 4 0 1 1 419.5001999999999 149.774999995 Z" stroke="#ffffff" stroke-width="0" opacity="1" class="highcharts-point"></path><path fill="#cd9c00" d="M 441.5 145.28333333333 A 4 4 0 1 1 441.5001999999999 145.28333332833 Z" stroke="#ffffff" stroke-width="0" opacity="1" class="highcharts-point"></path><path fill="#cd9c00" d="M 462.5 143.24166666667 A 4 4 0 1 1 462.5001999999999 143.24166666167 Z" stroke="#ffffff" stroke-width="0" opacity="1" class="highcharts-point"></path><path fill="#cd9c00" d="M 483.5 143.65 A 4 4 0 1 1 483.5001999999999 143.649999995 Z" stroke="#ffffff" stroke-width="0" opacity="1" class="highcharts-point"></path></g></g><text x="10" text-anchor="start" class="highcharts-caption" data-z-index="4" style="font-size: 0.8em; fill: rgb(102, 102, 102);" text-align="left" y="372" transform-origin="10 15" transform="translate(0,0) scale(1 1)"></text><g class="highcharts-axis-labels highcharts-xaxis-labels" data-z-index="7"><text x="61.327645051195" text-anchor="middle" transform="translate(0,0)" style="cursor: default; font-size: 0.8em; fill: rgb(0, 0, 0);" y="357" opacity="1">2002</text><text x="103.90443686007" text-anchor="middle" transform="translate(0,0)" style="cursor: default; font-size: 0.8em; fill: rgb(0, 0, 0);" y="357" opacity="1">2004</text><text x="146.48122866894" text-anchor="middle" transform="translate(0,0)" style="cursor: default; font-size: 0.8em; fill: rgb(0, 0, 0);" y="357" opacity="1">2006</text><text x="189.05802047782" text-anchor="middle" transform="translate(0,0)" style="cursor: default; font-size: 0.8em; fill: rgb(0, 0, 0);" y="357" opacity="1">2008</text><text x="231.63481228669" text-anchor="middle" transform="translate(0,0)" style="cursor: default; font-size: 0.8em; fill: rgb(0, 0, 0);" y="357" opacity="1">2010</text><text x="274.21160409556" text-anchor="middle" transform="translate(0,0)" style="cursor: default; font-size: 0.8em; fill: rgb(0, 0, 0);" y="357" opacity="1">2012</text><text x="316.78839590444" text-anchor="middle" transform="translate(0,0)" style="cursor: default; font-size: 0.8em; fill: rgb(0, 0, 0);" y="357" opacity="1">2014</text><text x="359.36518771331" text-anchor="middle" transform="translate(0,0)" style="cursor: default; font-size: 0.8em; fill: rgb(0, 0, 0);" y="357" opacity="1">2016</text><text x="401.94197952218" text-anchor="middle" transform="translate(0,0)" style="cursor: default; font-size: 0.8em; fill: rgb(0, 0, 0);" y="357" opacity="1">2018</text><text x="444.51877133106" text-anchor="middle" transform="translate(0,0)" style="cursor: default; font-size: 0.8em; fill: rgb(0, 0, 0);" y="357" opacity="1">2020</text><text x="487.09556313993" text-anchor="middle" transform="translate(0,0)" style="cursor: default; font-size: 0.8em; fill: rgb(0, 0, 0);" y="357" opacity="1">2022</text><text x="529.6723549488" text-anchor="middle" transform="translate(0,0)" style="cursor: default; font-size: 0.8em; fill: rgb(0, 0, 0);" y="357" opacity="1">2024</text></g><g class="highcharts-axis-labels highcharts-yaxis-labels" data-z-index="7"><text x="31" text-anchor="end" transform="translate(0,0)" style="cursor: default; font-size: 0.8em; fill: rgb(0, 0, 0);" y="335" opacity="1">0</text><text x="31" text-anchor="end" transform="translate(0,0)" style="cursor: default; font-size: 0.8em; fill: rgb(0, 0, 0);" y="273" opacity="1">30</text><text x="31" text-anchor="end" transform="translate(0,0)" style="cursor: default; font-size: 0.8em; fill: rgb(0, 0, 0);" y="212" opacity="1">60</text><text x="31" text-anchor="end" transform="translate(0,0)" style="cursor: default; font-size: 0.8em; fill: rgb(0, 0, 0);" y="151" opacity="1">90</text><text x="31" text-anchor="end" transform="translate(0,0)" style="cursor: default; font-size: 0.8em; fill: rgb(0, 0, 0);" y="90" opacity="1">120</text></g><g class="highcharts-axis-labels highcharts-yaxis-labels" data-z-index="7"><text x="560" text-anchor="start" transform="translate(0,0)" style="cursor: default; font-size: 0.8em; fill: rgb(0, 0, 0);" y="335" opacity="1">0.0%</text><text x="560" text-anchor="start" transform="translate(0,0)" style="cursor: default; font-size: 0.8em; fill: rgb(0, 0, 0);" y="273" opacity="1">1.5%</text><text x="560" text-anchor="start" transform="translate(0,0)" style="cursor: default; font-size: 0.8em; fill: rgb(0, 0, 0);" y="212" opacity="1">3.0%</text><text x="560" text-anchor="start" transform="translate(0,0)" style="cursor: default; font-size: 0.8em; fill: rgb(0, 0, 0);" y="151" opacity="1">4.5%</text><text x="560" text-anchor="start" transform="translate(0,0)" style="cursor: default; font-size: 0.8em; fill: rgb(0, 0, 0);" y="90" opacity="1">6.0%</text></g><g class="highcharts-legend highcharts-no-tooltip" data-z-index="7" text-align="left" transform="translate(38,55)"><rect fill="none" class="highcharts-legend-box" rx="0" ry="0" stroke="#999999" stroke-width="0" filter="none" x="0" y="0" width="409" height="30"></rect><g data-z-index="1"><g><g class="highcharts-legend-item highcharts-column-series highcharts-color-undefined highcharts-series-0" data-z-index="1" transform="translate(8,3)"><text x="21" text-anchor="start" data-z-index="2" style="cursor: pointer; font-size: 0.8em; text-decoration: none; font-weight: normal; fill: rgb(51, 51, 51);" y="17">Freiräume in ha</text><rect x="2" y="6" rx="0" ry="0" width="12" height="12" fill="#73b97c" class="highcharts-point" data-z-index="3"></rect></g><g class="highcharts-legend-item highcharts-line-series highcharts-color-undefined highcharts-series-1" data-z-index="1" transform="translate(138.640625,3)"><path fill="none" class="highcharts-graph" stroke-width="2" stroke-linecap="round" d="M 1 13 L 15 13" stroke="#cd9c00"></path><path fill="#cd9c00" d="M 8 17 A 4 4 0 1 1 8.000199999999918 16.999999995 Z" class="highcharts-point" stroke="#ffffff" stroke-width="0" opacity="1"></path><text x="21" y="17" text-anchor="start" data-z-index="2" style="cursor: pointer; font-size: 0.8em; text-decoration: none; font-weight: normal; fill: rgb(51, 51, 51);">Anteil an der Kantonsfläche (rechte Skala)</text></g></g></g></g></svg>