<?xml version="1.0" standalone="no"?><!DOCTYPE svg PUBLIC "-//W3C//DTD SVG 1.1//EN" "http://www.w3.org/Graphics/SVG/1.1/DTD/svg11.dtd"><svg xmlns:xlink="http://www.w3.org/1999/xlink" version="1.1" class="highcharts-root" style="font-family:Arial;font-size:12px;" xmlns="http://www.w3.org/2000/svg" viewBox="0 0 485 415"><desc>Created with Highcharts 8.2.0</desc><defs><clipPath id="highcharts-nytrdhv-175-"><rect x="0" y="0" width="428" height="134" fill="none"></rect></clipPath><clipPath id="highcharts-nytrdhv-204-"><rect x="0" y="0" width="428" height="134" fill="none"></rect></clipPath><clipPath id="highcharts-nytrdhv-345-"><rect x="37" y="187" width="428" height="134" fill="none"></rect></clipPath></defs><rect fill="#fbfbfb" class="highcharts-background" x="0" y="0" width="485" height="428" rx="0" ry="0"></rect><rect fill="none" class="highcharts-plot-background" x="37" y="187" width="428" height="134"></rect><g class="highcharts-pane-group" data-z-index="0"></g><g class="highcharts-grid highcharts-xaxis-grid" data-z-index="1"><path fill="none" data-z-index="1" class="highcharts-grid-line" d="M 40.5 187 L 40.5 321" opacity="1"></path><path fill="none" data-z-index="1" class="highcharts-grid-line" d="M 118.5 187 L 118.5 321" opacity="1"></path><path fill="none" data-z-index="1" class="highcharts-grid-line" d="M 196.5 187 L 196.5 321" opacity="1"></path><path fill="none" data-z-index="1" class="highcharts-grid-line" d="M 273.5 187 L 273.5 321" opacity="1"></path><path fill="none" data-z-index="1" class="highcharts-grid-line" d="M 351.5 187 L 351.5 321" opacity="1"></path><path fill="none" data-z-index="1" class="highcharts-grid-line" d="M 429.5 187 L 429.5 321" opacity="1"></path></g><g class="highcharts-grid highcharts-yaxis-grid" data-z-index="1"><path fill="none" stroke="#B9CFD7" stroke-width="0.5" data-z-index="1" class="highcharts-grid-line" d="M 37 321.25 L 465 321.25" opacity="1"></path><path fill="none" stroke="#B9CFD7" stroke-width="0.5" data-z-index="1" class="highcharts-grid-line" d="M 37 276.25 L 465 276.25" opacity="1"></path><path fill="none" stroke="#B9CFD7" stroke-width="0.5" data-z-index="1" class="highcharts-grid-line" d="M 37 232.25 L 465 232.25" opacity="1"></path><path fill="none" stroke="#B9CFD7" stroke-width="0.5" data-z-index="1" class="highcharts-grid-line" d="M 37 186.75 L 465 186.75" opacity="1"></path></g><rect fill="none" class="highcharts-plot-border" data-z-index="1" x="37" y="187" width="428" height="134"></rect><g class="highcharts-axis highcharts-xaxis" data-z-index="2"><path fill="none" class="highcharts-axis-line" stroke="#B9CFD7" stroke-width="0.5" data-z-index="7" d="M 37 321.25 L 465 321.25"></path></g><g class="highcharts-axis highcharts-yaxis" data-z-index="2"><path fill="none" class="highcharts-axis-line" data-z-index="7" d="M 37 187 L 37 321"></path></g><g class="highcharts-series-group" data-z-index="3"><g class="highcharts-series highcharts-series-0 highcharts-line-series" data-z-index="0.1" opacity="1" transform="translate(37,187) scale(1 1)" clip-path="url(#highcharts-nytrdhv-204-)"><path fill="none" d="M 4.1960784313723 131.76666666666668 L 19.737109658678 134 L 35.278140885984 134 L 50.81917211329 127.3 L 66.360203340595 131.76666666666668 L 81.901234567901 134 L 97.442265795207 134 L 112.98329702251 134 L 128.52432824982 116.13333333333333 L 144.06535947712 131.76666666666668 L 159.60639070443 129.53333333333333 L 175.14742193174 125.06666666666666 L 190.68845315904 134 L 206.22948438635 131.76666666666668 L 221.77051561365 131.76666666666668 L 237.31154684096 129.53333333333333 L 252.85257806826 129.53333333333333 L 268.39360929557 125.06666666666666 L 283.93464052288 125.06666666666666 L 299.47567175018 134 L 315.01670297749 109.43333333333334 L 330.55773420479 131.76666666666668 L 346.0987654321 120.6 L 361.6397966594 127.3 L 377.18082788671 120.6 L 392.72185911402 127.3 L 408.26289034132 131.76666666666668 L 423.80392156863 122.83333333333333" class="highcharts-graph" data-z-index="1" stroke="#73B97C" stroke-width="2" stroke-linejoin="round" stroke-linecap="round"></path></g><g class="highcharts-markers highcharts-series-0 highcharts-line-series" data-z-index="0.1" opacity="1" transform="translate(37,187) scale(1 1)" clip-path="none"></g><g class="highcharts-series highcharts-series-1 highcharts-line-series" data-z-index="0.1" opacity="1" transform="translate(37,187) scale(1 1)" clip-path="url(#highcharts-nytrdhv-204-)"><path fill="none" d="M 237.31154684096 84.86666666666667 L 252.85257806826 102.73333333333333 L 268.39360929557 96.03333333333333 L 283.93464052288 82.63333333333333 L 299.47567175018 107.2 L 315.01670297749 44.66666666666666 L 330.55773420479 82.63333333333333 L 346.0987654321 44.66666666666666 L 361.6397966594 37.96666666666667 L 377.18082788671 58.06666666666666 L 392.72185911402 71.46666666666667 L 408.26289034132 120.6 L 423.80392156863 93.8" class="highcharts-graph" data-z-index="1" stroke="#68AB2B" stroke-width="2" stroke-linejoin="round" stroke-linecap="round"></path></g><g class="highcharts-markers highcharts-series-1 highcharts-line-series" data-z-index="0.1" opacity="1" transform="translate(37,187) scale(1 1)" clip-path="none"></g><g class="highcharts-series highcharts-series-2 highcharts-line-series" data-z-index="0.1" opacity="1" transform="translate(37,187) scale(1 1)" clip-path="url(#highcharts-nytrdhv-204-)"><path fill="none" d="M 237.31154684096 98.26666666666667 L 252.85257806826 102.73333333333333 L 268.39360929557 98.26666666666667 L 283.93464052288 93.8 L 299.47567175018 109.43333333333334 L 315.01670297749 58.06666666666666 L 330.55773420479 91.56666666666666 L 346.0987654321 55.83333333333333 L 361.6397966594 49.133333333333326 L 377.18082788671 64.76666666666667 L 392.72185911402 80.4 L 408.26289034132 120.6 L 423.80392156863 104.96666666666667" class="highcharts-graph" data-z-index="1" stroke="#007A2F" stroke-width="2" stroke-linejoin="round" stroke-linecap="round"></path></g><g class="highcharts-markers highcharts-series-2 highcharts-line-series" data-z-index="0.1" opacity="1" transform="translate(37,187) scale(1 1)" clip-path="none"></g><g class="highcharts-series highcharts-series-3 highcharts-line-series" data-z-index="0.1" opacity="1" transform="translate(37,187) scale(1 1)" clip-path="url(#highcharts-nytrdhv-204-)"><path fill="none" d="M 237.31154684096 122.83333333333333 L 252.85257806826 120.6 L 268.39360929557 120.6 L 283.93464052288 120.6 L 299.47567175018 131.76666666666668 L 315.01670297749 87.1 L 330.55773420479 131.76666666666668 L 346.0987654321 109.43333333333334 L 361.6397966594 113.9 L 377.18082788671 111.66666666666666 L 392.72185911402 116.13333333333333 L 408.26289034132 122.83333333333333 L 423.80392156863 104.96666666666667" class="highcharts-graph" data-z-index="1" stroke="#0A3B19" stroke-width="2" stroke-linejoin="round" stroke-linecap="round"></path></g><g class="highcharts-markers highcharts-series-3 highcharts-line-series" data-z-index="0.1" opacity="1" transform="translate(37,187) scale(1 1)" clip-path="none"></g><g class="highcharts-series highcharts-series-4 highcharts-line-series" data-z-index="0.1" opacity="1" transform="translate(37,187) scale(1 1)" clip-path="url(#highcharts-nytrdhv-204-)"><path fill="none" d="M 237.31154684096 134 L 252.85257806826 129.53333333333333 L 268.39360929557 127.3 L 283.93464052288 125.06666666666666 L 299.47567175018 134 L 315.01670297749 131.76666666666668 L 330.55773420479 134 L 346.0987654321 131.76666666666668 L 361.6397966594 134 L 377.18082788671 127.3 L 392.72185911402 131.76666666666668 L 408.26289034132 134 L 423.80392156863 116.13333333333333" class="highcharts-graph" data-z-index="1" stroke="#FFDA80" stroke-width="2" stroke-linejoin="round" stroke-linecap="round"></path></g><g class="highcharts-markers highcharts-series-4 highcharts-line-series" data-z-index="0.1" opacity="1" transform="translate(37,187) scale(1 1)" clip-path="none"></g><g class="highcharts-series highcharts-series-5 highcharts-line-series" data-z-index="0.1" opacity="1" transform="translate(37,187) scale(1 1)" clip-path="url(#highcharts-nytrdhv-204-)"><path fill="none" d="M 237.31154684096 118.36666666666667 L 252.85257806826 127.3 L 268.39360929557 125.06666666666666 L 283.93464052288 118.36666666666667 L 299.47567175018 131.76666666666668 L 315.01670297749 84.86666666666667 L 330.55773420479 125.06666666666666 L 346.0987654321 113.9 L 361.6397966594 120.6 L 377.18082788671 111.66666666666666 L 392.72185911402 118.36666666666667 L 408.26289034132 134 L 423.80392156863 125.06666666666666" class="highcharts-graph" data-z-index="1" stroke="#FABD24" stroke-width="2" stroke-linejoin="round" stroke-linecap="round"></path></g><g class="highcharts-markers highcharts-series-5 highcharts-line-series" data-z-index="0.1" opacity="1" transform="translate(37,187) scale(1 1)" clip-path="none"></g></g><text x="10" text-anchor="start" class="highcharts-title" data-z-index="4" style="color:#000000;font-size:14px;font-weight:bold;fill:#000000;" y="21"><tspan>Hitzetage und Tropennächte</tspan></text><text x="10" text-anchor="start" class="highcharts-subtitle" data-z-index="4" style="color:#000000;font-size:12px;font-weight:normal;fill:#000000;" y="40"><tspan>Anzahl Tage, Basel-Stadt</tspan></text><text x="10" text-anchor="start" class="highcharts-caption" data-z-index="4" style="color:#666666;fill:#666666;" y="355"></text><g class="highcharts-legend" data-z-index="7" transform="translate(29,56)"><rect fill="none" class="highcharts-legend-box" rx="0" ry="0" x="0" y="0" width="394" height="119" visibility="visible"></rect><g data-z-index="1"><g><g class="highcharts-legend-item highcharts-line-series highcharts-color-undefined highcharts-series-0" data-z-index="1" transform="translate(8,3)"><path fill="none" d="M 0 11 L 16 11" class="highcharts-graph" stroke="#73B97C" stroke-width="2"></path><text x="21" style="color:#333333;cursor:pointer;font-size:12px;font-weight:normal;fill:#333333;" text-anchor="start" data-z-index="2" y="15"><tspan>Basel-Binningen (vorstädtisch, keine Bebauung)</tspan></text></g><g class="highcharts-legend-item highcharts-line-series highcharts-color-undefined highcharts-series-1" data-z-index="1" transform="translate(8,21)"><path fill="none" d="M 0 11 L 16 11" class="highcharts-graph" stroke="#68AB2B" stroke-width="2"></path><text x="21" y="15" style="color:#333333;cursor:pointer;font-size:12px;font-weight:normal;fill:#333333;" text-anchor="start" data-z-index="2"><tspan>Feldbergstrasse, Basel (Stadtzentrum, geschlossene Bebauung)</tspan></text></g><g class="highcharts-legend-item highcharts-line-series highcharts-color-undefined highcharts-series-2" data-z-index="1" transform="translate(8,39)"><path fill="none" d="M 0 11 L 16 11" class="highcharts-graph" stroke="#007A2F" stroke-width="2"></path><text x="21" y="15" style="color:#333333;cursor:pointer;font-size:12px;font-weight:normal;fill:#333333;" text-anchor="start" data-z-index="2"><tspan>St. Johann, Basel (Stadtzentrum, offene Bebauung)</tspan></text></g><g class="highcharts-legend-item highcharts-line-series highcharts-color-undefined highcharts-series-3" data-z-index="1" transform="translate(8,57)"><path fill="none" d="M 0 11 L 16 11" class="highcharts-graph" stroke="#0A3B19" stroke-width="2"></path><text x="21" y="15" style="color:#333333;cursor:pointer;font-size:12px;font-weight:normal;fill:#333333;" text-anchor="start" data-z-index="2"><tspan>Klingelbergstrasse, Basel (Stadtzentrum, 38m über Grund)</tspan></text></g><g class="highcharts-legend-item highcharts-line-series highcharts-color-undefined highcharts-series-4" data-z-index="1" transform="translate(8,75)"><path fill="none" d="M 0 11 L 16 11" class="highcharts-graph" stroke="#FFDA80" stroke-width="2"></path><text x="21" y="15" style="color:#333333;cursor:pointer;font-size:12px;font-weight:normal;fill:#333333;" text-anchor="start" data-z-index="2"><tspan>Sissach (vorstädtisch, offene Bebauung)</tspan></text></g><g class="highcharts-legend-item highcharts-line-series highcharts-color-undefined highcharts-series-5" data-z-index="1" transform="translate(8,93)"><path fill="none" d="M 0 11 L 16 11" class="highcharts-graph" stroke="#FABD24" stroke-width="2"></path><text x="21" y="15" style="color:#333333;cursor:pointer;font-size:12px;font-weight:normal;fill:#333333;" text-anchor="start" data-z-index="2"><tspan>Dornach (vorstädtisch, offene Bebauung)</tspan></text></g></g></g></g><g class="highcharts-axis-labels highcharts-xaxis-labels" data-z-index="7"><text x="41.196078431372" style="color:#000000;cursor:default;font-size:11px;fill:#000000;" text-anchor="middle" transform="translate(0,0)" y="340" opacity="1">1995</text><text x="118.9012345679" style="color:#000000;cursor:default;font-size:11px;fill:#000000;" text-anchor="middle" transform="translate(0,0)" y="340" opacity="1">2000</text><text x="196.60639070443" style="color:#000000;cursor:default;font-size:11px;fill:#000000;" text-anchor="middle" transform="translate(0,0)" y="340" opacity="1">2005</text><text x="274.31154684096" style="color:#000000;cursor:default;font-size:11px;fill:#000000;" text-anchor="middle" transform="translate(0,0)" y="340" opacity="1">2010</text><text x="352.01670297749" style="color:#000000;cursor:default;font-size:11px;fill:#000000;" text-anchor="middle" transform="translate(0,0)" y="340" opacity="1">2015</text><text x="429.72185911402" style="color:#000000;cursor:default;font-size:11px;fill:#000000;" text-anchor="middle" transform="translate(0,0)" y="340" opacity="1">2020</text></g><g class="highcharts-axis-labels highcharts-yaxis-labels" data-z-index="7"><text x="22" style="color:#000000;cursor:default;font-size:11px;fill:#000000;" text-anchor="end" transform="translate(0,0)" y="325" opacity="1">0</text><text x="22" style="color:#000000;cursor:default;font-size:11px;fill:#000000;" text-anchor="end" transform="translate(0,0)" y="280" opacity="1">20</text><text x="22" style="color:#000000;cursor:default;font-size:11px;fill:#000000;" text-anchor="end" transform="translate(0,0)" y="236" opacity="1">40</text><text x="22" style="color:#000000;cursor:default;font-size:11px;fill:#000000;" text-anchor="end" transform="translate(0,0)" y="191" opacity="1">60</text></g><text x="10" class="highcharts-credits" text-anchor="start" data-z-index="8" style="cursor:default;color:#000000;font-size:10px;fill:#000000;" y="373"><tspan>Quelle: Universität Basel;</tspan><tspan x="10" dy="13">Lufthygieneamt beider Basel;</tspan><tspan x="10" dy="13">Meteorologischer Verein der Region Basel;</tspan><tspan x="10" dy="13">MeteoSchweiz.</tspan><tspan x="10" dy="13">Zuletzt geändert: 20.12.2022</tspan></text><g class="highcharts-control-points" data-z-index="99" clip-path="url(#highcharts-nytrdhv-345-)"></g></svg>