<?xml version="1.0" standalone="no"?><!DOCTYPE svg PUBLIC "-//W3C//DTD SVG 1.1//EN" "http://www.w3.org/Graphics/SVG/1.1/DTD/svg11.dtd"><svg xmlns:xlink="http://www.w3.org/1999/xlink" version="1.1" class="highcharts-root" style="font-family:Inter,Helvetica Neue,Helvetica,Arial,sans-serif;font-size:12px;" xmlns="http://www.w3.org/2000/svg" width="600" height="428"><desc>Created with Highcharts 8.2.2</desc><defs><clipPath id="highcharts-s8gmt0x-43-"><rect x="0" y="0" width="528" height="247" fill="none"></rect></clipPath><clipPath id="highcharts-s8gmt0x-56-"><rect x="0" y="0" width="528" height="247" fill="none"></rect></clipPath><clipPath id="highcharts-s8gmt0x-81-"><rect x="52" y="99" width="528" height="247" fill="none"></rect></clipPath></defs><rect fill="#ffffff" class="highcharts-background" x="0" y="0" width="600" height="428" rx="0" ry="0"></rect><rect fill="none" class="highcharts-plot-background" x="52" y="99" width="528" height="247"></rect><g class="highcharts-pane-group" data-z-index="0"></g><g class="highcharts-grid highcharts-xaxis-grid" data-z-index="1"><path fill="none" data-z-index="1" class="highcharts-grid-line" d="M 56.5 99 L 56.5 346" opacity="1"></path><path fill="none" data-z-index="1" class="highcharts-grid-line" d="M 103.5 99 L 103.5 346" opacity="1"></path><path fill="none" data-z-index="1" class="highcharts-grid-line" d="M 150.5 99 L 150.5 346" opacity="1"></path><path fill="none" data-z-index="1" class="highcharts-grid-line" d="M 197.5 99 L 197.5 346" opacity="1"></path><path fill="none" data-z-index="1" class="highcharts-grid-line" d="M 244.5 99 L 244.5 346" opacity="1"></path><path fill="none" data-z-index="1" class="highcharts-grid-line" d="M 291.5 99 L 291.5 346" opacity="1"></path><path fill="none" data-z-index="1" class="highcharts-grid-line" d="M 339.5 99 L 339.5 346" opacity="1"></path><path fill="none" data-z-index="1" class="highcharts-grid-line" d="M 386.5 99 L 386.5 346" opacity="1"></path><path fill="none" data-z-index="1" class="highcharts-grid-line" d="M 433.5 99 L 433.5 346" opacity="1"></path><path fill="none" data-z-index="1" class="highcharts-grid-line" d="M 480.5 99 L 480.5 346" opacity="1"></path><path fill="none" data-z-index="1" class="highcharts-grid-line" d="M 527.5 99 L 527.5 346" opacity="1"></path><path fill="none" data-z-index="1" class="highcharts-grid-line" d="M 574.5 99 L 574.5 346" opacity="1"></path></g><g class="highcharts-grid highcharts-yaxis-grid" data-z-index="1"><path fill="none" stroke="#B9CFD7" stroke-width="0.5" data-z-index="1" class="highcharts-grid-line" d="M 52 346.25 L 580 346.25" opacity="1"></path><path fill="none" stroke="#B9CFD7" stroke-width="0.5" data-z-index="1" class="highcharts-grid-line" d="M 52 305.25 L 580 305.25" opacity="1"></path><path fill="none" stroke="#B9CFD7" stroke-width="0.5" data-z-index="1" class="highcharts-grid-line" d="M 52 264.25 L 580 264.25" opacity="1"></path><path fill="none" stroke="#B9CFD7" stroke-width="0.5" data-z-index="1" class="highcharts-grid-line" d="M 52 223.25 L 580 223.25" opacity="1"></path><path fill="none" stroke="#B9CFD7" stroke-width="0.5" data-z-index="1" class="highcharts-grid-line" d="M 52 181.25 L 580 181.25" opacity="1"></path><path fill="none" stroke="#B9CFD7" stroke-width="0.5" data-z-index="1" class="highcharts-grid-line" d="M 52 140.25 L 580 140.25" opacity="1"></path><path fill="none" stroke="#B9CFD7" stroke-width="0.5" data-z-index="1" class="highcharts-grid-line" d="M 52 98.75 L 580 98.75" opacity="1"></path></g><rect fill="none" class="highcharts-plot-border" data-z-index="1" x="52" y="99" width="528" height="247"></rect><g class="highcharts-axis highcharts-xaxis" data-z-index="2"><path fill="none" class="highcharts-axis-line" stroke="#B9CFD7" stroke-width="0.5" data-z-index="7" d="M 52 346.25 L 580 346.25"></path></g><g class="highcharts-axis highcharts-yaxis" data-z-index="2"><path fill="none" class="highcharts-axis-line" data-z-index="7" d="M 52 99 L 52 346"></path></g><g class="highcharts-series-group" data-z-index="3"><g class="highcharts-series highcharts-series-0 highcharts-line-series" data-z-index="0.1" opacity="1" transform="translate(52,99) scale(1 1)" clip-path="url(#highcharts-s8gmt0x-56-)"><path fill="none" d="M 5.1764705882307 198.341 L 52.235294117643 198.835 L 99.294117647056 198.42333333333335 L 146.35294117647 194.80066666666667 L 193.41176470588 197.2295 L 240.47058823529 192.04250000000002 L 287.52941176471 191.21916666666667 L 334.58823529412 192.33066666666667 L 381.64705882353 193.23633333333333 L 428.70588235294 199.329 L 475.76470588236 197.76466666666667 L 522.82352941177 199.823" class="highcharts-graph" data-z-index="1" stroke="#71a3b5" stroke-width="2" stroke-linejoin="round" stroke-linecap="round"></path></g><g class="highcharts-markers highcharts-series-0 highcharts-line-series" data-z-index="0.1" opacity="1" transform="translate(52,99) scale(1 1)" clip-path="none"></g><g class="highcharts-series highcharts-series-1 highcharts-line-series" data-z-index="0.1" opacity="1" transform="translate(52,99) scale(1 1)" clip-path="url(#highcharts-s8gmt0x-56-)"><path fill="none" d="M 5.1764705882307 93.32483333333334 L 52.235294117643 99.78800000000001 L 99.294117647056 99.00583333333336 L 146.35294117647 90.19616666666667 L 193.41176470588 86.24416666666667 L 240.47058823529 73.02966666666669 L 287.52941176471 82.41566666666668 L 334.58823529412 57.01583333333335 L 381.64705882353 65.49616666666668 L 428.70588235294 84.06233333333336 L 475.76470588236 75.04683333333335 L 522.82352941177 86.86166666666668" class="highcharts-graph" data-z-index="1" stroke="#007A2F" stroke-width="2" stroke-linejoin="round" stroke-linecap="round"></path></g><g class="highcharts-markers highcharts-series-1 highcharts-line-series" data-z-index="0.1" opacity="1" transform="translate(52,99) scale(1 1)" clip-path="none"></g><g class="highcharts-series highcharts-series-2 highcharts-line-series" data-z-index="0.1" opacity="1" transform="translate(52,99) scale(1 1)" clip-path="url(#highcharts-s8gmt0x-56-)"><path fill="none" d="M 5.1764705882307 85.83250000000001 L 52.235294117643 93.98350000000002 L 99.294117647056 93.2425 L 146.35294117647 83.03316666666669 L 193.41176470588 80.48083333333335 L 240.47058823529 66.69000000000003 L 287.52941176471 76.28183333333334 L 334.58823529412 47.506333333333345 L 381.64705882353 56.151333333333355 L 428.70588235294 75.49966666666668 L 475.76470588236 68.46016666666668 L 522.82352941177 81.51000000000002" class="highcharts-graph" data-z-index="1" stroke="#ff8028" stroke-width="2" stroke-linejoin="round" stroke-linecap="round"></path></g><g class="highcharts-markers highcharts-series-2 highcharts-line-series" data-z-index="0.1" opacity="1" transform="translate(52,99) scale(1 1)" clip-path="none"></g></g><text x="10" text-anchor="start" class="highcharts-caption" data-z-index="4" style="color:#666666;fill:#666666;" y="380"></text><g class="highcharts-legend" data-z-index="7" transform="translate(44,56)"><rect fill="none" class="highcharts-legend-box" rx="0" ry="0" x="0" y="0" width="298" height="31" visibility="visible"></rect><g data-z-index="1"><g><g class="highcharts-legend-item highcharts-line-series highcharts-color-undefined highcharts-series-0" data-z-index="1" transform="translate(8,3)"><path fill="none" d="M 0 11 L 16 11" class="highcharts-graph" stroke="#71a3b5" stroke-width="2"></path><text x="21" style="color:#333333;cursor:pointer;font-size:12px;font-weight:normal;fill:#333333;" text-anchor="start" data-z-index="2" y="15"><tspan>Innenstadt</tspan></text></g><g class="highcharts-legend-item highcharts-line-series highcharts-color-undefined highcharts-series-1" data-z-index="1" transform="translate(107,3)"><path fill="none" d="M 0 11 L 16 11" class="highcharts-graph" stroke="#007A2F" stroke-width="2"></path><text x="21" y="15" style="color:#333333;cursor:pointer;font-size:12px;font-weight:normal;fill:#333333;" text-anchor="start" data-z-index="2"><tspan>Stadt Basel</tspan></text></g><g class="highcharts-legend-item highcharts-line-series highcharts-color-undefined highcharts-series-2" data-z-index="1" transform="translate(211,3)"><path fill="none" d="M 0 11 L 16 11" class="highcharts-graph" stroke="#ff8028" stroke-width="2"></path><text x="21" y="15" style="color:#333333;cursor:pointer;font-size:12px;font-weight:normal;fill:#333333;" text-anchor="start" data-z-index="2"><tspan>Kanton BS</tspan></text></g></g></g></g><g class="highcharts-axis-labels highcharts-xaxis-labels" data-z-index="7"><text x="57.176470588231" style="color:#000000;cursor:default;font-size:11px;fill:#000000;" text-anchor="middle" transform="translate(0,0)" y="365" opacity="1">2013</text><text x="104.23529411764" style="color:#000000;cursor:default;font-size:11px;fill:#000000;" text-anchor="middle" transform="translate(0,0)" y="365" opacity="1">2014</text><text x="151.29411764706" style="color:#000000;cursor:default;font-size:11px;fill:#000000;" text-anchor="middle" transform="translate(0,0)" y="365" opacity="1">2015</text><text x="198.35294117647" style="color:#000000;cursor:default;font-size:11px;fill:#000000;" text-anchor="middle" transform="translate(0,0)" y="365" opacity="1">2016</text><text x="245.41176470588" style="color:#000000;cursor:default;font-size:11px;fill:#000000;" text-anchor="middle" transform="translate(0,0)" y="365" opacity="1">2017</text><text x="292.47058823529" style="color:#000000;cursor:default;font-size:11px;fill:#000000;" text-anchor="middle" transform="translate(0,0)" y="365" opacity="1">2018</text><text x="339.52941176471" style="color:#000000;cursor:default;font-size:11px;fill:#000000;" text-anchor="middle" transform="translate(0,0)" y="365" opacity="1">2019</text><text x="386.58823529412" style="color:#000000;cursor:default;font-size:11px;fill:#000000;" text-anchor="middle" transform="translate(0,0)" y="365" opacity="1">2020</text><text x="433.64705882353" style="color:#000000;cursor:default;font-size:11px;fill:#000000;" text-anchor="middle" transform="translate(0,0)" y="365" opacity="1">2021</text><text x="480.70588235294" style="color:#000000;cursor:default;font-size:11px;fill:#000000;" text-anchor="middle" transform="translate(0,0)" y="365" opacity="1">2022</text><text x="527.76470588236" style="color:#000000;cursor:default;font-size:11px;fill:#000000;" text-anchor="middle" transform="translate(0,0)" y="365" opacity="1">2023</text><text x="574.82352941177" style="color:#000000;cursor:default;font-size:11px;fill:#000000;" text-anchor="middle" transform="translate(0,0)" y="365" opacity="1">2024</text></g><g class="highcharts-axis-labels highcharts-yaxis-labels" data-z-index="7"><text x="37" style="color:#000000;cursor:default;font-size:11px;fill:#000000;" text-anchor="end" transform="translate(0,0)" y="350" opacity="1">0</text><text x="37" style="color:#000000;cursor:default;font-size:11px;fill:#000000;" text-anchor="end" transform="translate(0,0)" y="309" opacity="1"><tspan>1 000</tspan></text><text x="37" style="color:#000000;cursor:default;font-size:11px;fill:#000000;" text-anchor="end" transform="translate(0,0)" y="268" opacity="1"><tspan>2 000</tspan></text><text x="37" style="color:#000000;cursor:default;font-size:11px;fill:#000000;" text-anchor="end" transform="translate(0,0)" y="227" opacity="1"><tspan>3 000</tspan></text><text x="37" style="color:#000000;cursor:default;font-size:11px;fill:#000000;" text-anchor="end" transform="translate(0,0)" y="185" opacity="1"><tspan>4 000</tspan></text><text x="37" style="color:#000000;cursor:default;font-size:11px;fill:#000000;" text-anchor="end" transform="translate(0,0)" y="144" opacity="1"><tspan>5 000</tspan></text><text x="37" style="color:#000000;cursor:default;font-size:11px;fill:#000000;" text-anchor="end" transform="translate(0,0)" y="103" opacity="1"><tspan>6 000</tspan></text></g></svg>