<?xml version="1.0" standalone="no"?><!DOCTYPE svg PUBLIC "-//W3C//DTD SVG 1.1//EN" "http://www.w3.org/Graphics/SVG/1.1/DTD/svg11.dtd"><svg xmlns:xlink="http://www.w3.org/1999/xlink" version="1.1" class="highcharts-root" style="font-family:Inter,Helvetica Neue,Helvetica,Arial,sans-serif;font-size:12px;" xmlns="http://www.w3.org/2000/svg" width="600" height="428"><desc>Created with Highcharts 8.2.2</desc><defs><clipPath id="highcharts-apngli5-112-"><rect x="0" y="0" width="517" height="202" fill="none"></rect></clipPath><clipPath id="highcharts-apngli5-134-"><rect x="0" y="0" width="517" height="202" fill="none"></rect></clipPath><clipPath id="highcharts-apngli5-219-"><rect x="73" y="139" width="517" height="202" fill="none"></rect></clipPath></defs><rect fill="#ffffff" class="highcharts-background" x="0" y="0" width="600" height="428" rx="0" ry="0"></rect><rect fill="none" class="highcharts-plot-background" x="73" y="139" width="517" height="202"></rect><g class="highcharts-pane-group" data-z-index="0"></g><g class="highcharts-grid highcharts-xaxis-grid" data-z-index="1"><path fill="none" data-z-index="1" class="highcharts-grid-line" d="M 102.5 139 L 102.5 341" opacity="1"></path><path fill="none" data-z-index="1" class="highcharts-grid-line" d="M 153.5 139 L 153.5 341" opacity="1"></path><path fill="none" data-z-index="1" class="highcharts-grid-line" d="M 204.5 139 L 204.5 341" opacity="1"></path><path fill="none" data-z-index="1" class="highcharts-grid-line" d="M 254.5 139 L 254.5 341" opacity="1"></path><path fill="none" data-z-index="1" class="highcharts-grid-line" d="M 305.5 139 L 305.5 341" opacity="1"></path><path fill="none" data-z-index="1" class="highcharts-grid-line" d="M 356.5 139 L 356.5 341" opacity="1"></path><path fill="none" data-z-index="1" class="highcharts-grid-line" d="M 407.5 139 L 407.5 341" opacity="1"></path><path fill="none" data-z-index="1" class="highcharts-grid-line" d="M 457.5 139 L 457.5 341" opacity="1"></path><path fill="none" data-z-index="1" class="highcharts-grid-line" d="M 508.5 139 L 508.5 341" opacity="1"></path><path fill="none" data-z-index="1" class="highcharts-grid-line" d="M 559.5 139 L 559.5 341" opacity="1"></path></g><g class="highcharts-grid highcharts-yaxis-grid" data-z-index="1"><path fill="none" stroke="#B9CFD7" stroke-width="0.5" data-z-index="1" class="highcharts-grid-line" d="M 73 341.25 L 590 341.25" opacity="1"></path><path fill="none" stroke="#B9CFD7" stroke-width="0.5" data-z-index="1" class="highcharts-grid-line" d="M 73 291.25 L 590 291.25" opacity="1"></path><path fill="none" stroke="#B9CFD7" stroke-width="0.5" data-z-index="1" class="highcharts-grid-line" d="M 73 240.25 L 590 240.25" opacity="1"></path><path fill="none" stroke="#B9CFD7" stroke-width="0.5" data-z-index="1" class="highcharts-grid-line" d="M 73 190.25 L 590 190.25" opacity="1"></path><path fill="none" stroke="#B9CFD7" stroke-width="0.5" data-z-index="1" class="highcharts-grid-line" d="M 73 138.75 L 590 138.75" opacity="1"></path></g><rect fill="none" class="highcharts-plot-border" data-z-index="1" x="73" y="139" width="517" height="202"></rect><g class="highcharts-axis highcharts-xaxis" data-z-index="2"><path fill="none" class="highcharts-axis-line" stroke="#B9CFD7" stroke-width="0.5" data-z-index="7" d="M 73 341.25 L 590 341.25"></path></g><g class="highcharts-axis highcharts-yaxis" data-z-index="2"><path fill="none" class="highcharts-axis-line" data-z-index="7" d="M 73 139 L 73 341"></path></g><g class="highcharts-series-group" data-z-index="3"><g class="highcharts-series highcharts-series-0 highcharts-line-series" data-z-index="0.1" opacity="1" transform="translate(73,139) scale(1 1)" clip-path="url(#highcharts-apngli5-134-)"><path fill="none" d="M 5.0686274509815 182.187941 L 30.411764705883 182.987861 L 55.754901960785 184.044119 L 81.098039215687 186.007357 L 106.44117647059 185.316012 L 131.78431372549 184.207234 L 157.12745098039 183.949684 L 182.47058823529 184.023212 L 207.8137254902 185.370855 L 233.1568627451 185.272986 L 258.5 182.927362 L 283.8431372549 184.923223 L 309.1862745098 185.198953 L 334.52941176471 184.626687 L 359.87254901961 184.626687 L 385.21568627451 183.742634 L 410.55882352941 183.445795 L 435.90196078431 190.414088 L 461.24509803921 200.658114 L 486.58823529412 187.036345 L 511.93137254902 186.046343" class="highcharts-graph" data-z-index="1" stroke="#B00000" stroke-width="2" stroke-linejoin="round" stroke-linecap="round"></path></g><g class="highcharts-markers highcharts-series-0 highcharts-line-series" data-z-index="0.1" opacity="1" transform="translate(73,139) scale(1 1)" clip-path="none"></g><g class="highcharts-series highcharts-series-1 highcharts-line-series" data-z-index="0.1" opacity="1" transform="translate(73,139) scale(1 1)" clip-path="url(#highcharts-apngli5-134-)"><path fill="none" d="M 5.0686274509815 191.375002 L 30.411764705883 188.617702 L 55.754901960785 187.965242 L 81.098039215687 185.160068 L 106.44117647059 185.62466799999999 L 131.78431372549 185.3956 L 157.12745098039 184.865148 L 182.47058823529 183.07886200000002 L 207.8137254902 184.520536 L 233.1568627451 183.71698 L 258.5 184.29581100000001 L 283.8431372549 184.447109 L 309.1862745098 185.871512 L 334.52941176471 184.092599 L 359.87254901961 185.022506 L 385.21568627451 186.368836 L 410.55882352941 186.272482 L 435.90196078431 191.151287 L 461.24509803921 199.183817 L 486.58823529412 191.104625 L 511.93137254902 196.453282" class="highcharts-graph" data-z-index="1" stroke="#007A2F" stroke-width="2" stroke-linejoin="round" stroke-linecap="round"></path></g><g class="highcharts-markers highcharts-series-1 highcharts-line-series" data-z-index="0.1" opacity="1" transform="translate(73,139) scale(1 1)" clip-path="none"></g><g class="highcharts-series highcharts-series-2 highcharts-line-series" data-z-index="0.1" opacity="1" transform="translate(73,139) scale(1 1)" clip-path="url(#highcharts-apngli5-134-)"><path fill="none" d="M 5.0686274509815 91.886164 L 30.411764705883 89.45186199999999 L 55.754901960785 111.87568 L 81.098039215687 107.473797 L 106.44117647059 114.762563 L 131.78431372549 115.437243 L 157.12745098039 113.823061 L 182.47058823529 117.86801 L 207.8137254902 122.088396 L 233.1568627451 118.886595 L 258.5 131.95417700000002 L 283.8431372549 135.967008 L 309.1862745098 134.94711 L 334.52941176471 140.927219 L 359.87254901961 140.272537 L 385.21568627451 148.08317 L 410.55882352941 142.059833 L 435.90196078431 182.39186 L 461.24509803921 170.137833 L 486.58823529412 147.555546 L 511.93137254902 133.992559" class="highcharts-graph" data-z-index="1" stroke="#4f81bd" stroke-width="2" stroke-linejoin="round" stroke-linecap="round"></path></g><g class="highcharts-markers highcharts-series-2 highcharts-line-series" data-z-index="0.1" opacity="1" transform="translate(73,139) scale(1 1)" clip-path="none"></g><g class="highcharts-series highcharts-series-3 highcharts-line-series" data-z-index="0.1" opacity="1" transform="translate(73,139) scale(1 1)" clip-path="url(#highcharts-apngli5-134-)"><path fill="none" d="M 5.0686274509815 81.038158 L 30.411764705883 25.740657999999996 L 55.754901960785 80.501141 L 81.098039215687 67.262869 L 106.44117647059 60.622119 L 131.78431372549 71.168034 L 157.12745098039 35.606944 L 182.47058823529 72.770702 L 207.8137254902 71.070266 L 233.1568627451 69.34175199999999 L 258.5 67.03066999999999 L 283.8431372549 74.311962 L 309.1862745098 66.14520300000001 L 334.52941176471 63.139443 L 359.87254901961 51.721090000000004 L 385.21568627451 77.654456 L 410.55882352941 56.40698499999999 L 435.90196078431 115.41886099999999 L 461.24509803921 107.935064 L 486.58823529412 71.27751799999999 L 511.93137254902 59.34881200000001" class="highcharts-graph" data-z-index="1" stroke="#662673" stroke-width="2" stroke-linejoin="round" stroke-linecap="round"></path></g><g class="highcharts-markers highcharts-series-3 highcharts-line-series" data-z-index="0.1" opacity="1" transform="translate(73,139) scale(1 1)" clip-path="none"></g><g class="highcharts-series highcharts-series-4 highcharts-line-series" data-z-index="0.1" opacity="1" transform="translate(73,139) scale(1 1)" clip-path="url(#highcharts-apngli5-134-)"><path fill="none" d="M 5.0686274509815 85.324901 L 30.411764705883 80.327825 L 55.754901960785 80.649005 L 81.098039215687 78.97089 L 106.44117647059 73.98886300000001 L 131.78431372549 73.77555100000001 L 157.12745098039 72.14389599999998 L 182.47058823529 69.31266399999998 L 207.8137254902 68.13530699999998 L 233.1568627451 71.21954399999998 L 258.5 77.150466 L 283.8431372549 84.547605 L 309.1862745098 83.029575 L 334.52941176471 73.716163 L 359.87254901961 75.776866 L 385.21568627451 74.006336 L 410.55882352941 64.399216 L 435.90196078431 41.155681999999985 L 461.24509803921 19.095564999999993 L 486.58823529412 23.20111399999999 L 511.93137254902 16.88013000000001" class="highcharts-graph" data-z-index="1" stroke="#FABD24" stroke-width="2" stroke-linejoin="round" stroke-linecap="round"></path></g><g class="highcharts-markers highcharts-series-4 highcharts-line-series" data-z-index="0.1" opacity="1" transform="translate(73,139) scale(1 1)" clip-path="none"></g></g><text x="10" text-anchor="start" class="highcharts-caption" data-z-index="4" style="color:#666666;fill:#666666;" y="375"></text><g class="highcharts-legend" data-z-index="7" transform="translate(65,56)"><rect fill="none" class="highcharts-legend-box" rx="0" ry="0" x="0" y="0" width="372" height="71" visibility="visible"></rect><g data-z-index="1"><g><g class="highcharts-legend-item highcharts-line-series highcharts-color-undefined highcharts-series-0" data-z-index="1" transform="translate(8,3)"><path fill="none" d="M 0 11 L 16 11" class="highcharts-graph" stroke="#B00000" stroke-width="2"></path><text x="21" style="color:#333333;cursor:pointer;font-size:12px;font-weight:normal;fill:#333333;" text-anchor="start" data-z-index="2" y="15"><tspan>Theater</tspan></text></g><g class="highcharts-legend-item highcharts-line-series highcharts-color-undefined highcharts-series-1" data-z-index="1" transform="translate(196,3)"><path fill="none" d="M 0 11 L 16 11" class="highcharts-graph" stroke="#007A2F" stroke-width="2"></path><text x="21" y="15" style="color:#333333;cursor:pointer;font-size:12px;font-weight:normal;fill:#333333;" text-anchor="start" data-z-index="2"><tspan>Kleintheater</tspan></text></g><g class="highcharts-legend-item highcharts-line-series highcharts-color-undefined highcharts-series-2" data-z-index="1" transform="translate(8,23)"><path fill="none" d="M 0 11 L 16 11" class="highcharts-graph" stroke="#4f81bd" stroke-width="2"></path><text x="21" y="15" style="color:#333333;cursor:pointer;font-size:12px;font-weight:normal;fill:#333333;" text-anchor="start" data-z-index="2"><tspan>Kinos</tspan></text></g><g class="highcharts-legend-item highcharts-line-series highcharts-color-undefined highcharts-series-3" data-z-index="1" transform="translate(196,23)"><path fill="none" d="M 0 11 L 16 11" class="highcharts-graph" stroke="#662673" stroke-width="2"></path><text x="21" y="15" style="color:#333333;cursor:pointer;font-size:12px;font-weight:normal;fill:#333333;" text-anchor="start" data-z-index="2"><tspan>Museen</tspan></text></g><g class="highcharts-legend-item highcharts-line-series highcharts-color-undefined highcharts-series-4" data-z-index="1" transform="translate(8,43)"><path fill="none" d="M 0 11 L 16 11" class="highcharts-graph" stroke="#FABD24" stroke-width="2"></path><text x="21" y="15" style="color:#333333;cursor:pointer;font-size:12px;font-weight:normal;fill:#333333;" text-anchor="start" data-z-index="2"><tspan>Stadtbibliothek (Ausleihen)</tspan></text></g></g></g></g><g class="highcharts-axis-labels highcharts-xaxis-labels" data-z-index="7"><text x="103.41176470588" style="color:#000000;cursor:default;font-size:11px;fill:#000000;" text-anchor="middle" transform="translate(0,0)" y="360" opacity="1">2004</text><text x="154.09803921569" style="color:#000000;cursor:default;font-size:11px;fill:#000000;" text-anchor="middle" transform="translate(0,0)" y="360" opacity="1">2006</text><text x="204.78431372549" style="color:#000000;cursor:default;font-size:11px;fill:#000000;" text-anchor="middle" transform="translate(0,0)" y="360" opacity="1">2008</text><text x="255.47058823529" style="color:#000000;cursor:default;font-size:11px;fill:#000000;" text-anchor="middle" transform="translate(0,0)" y="360" opacity="1">2010</text><text x="306.1568627451" style="color:#000000;cursor:default;font-size:11px;fill:#000000;" text-anchor="middle" transform="translate(0,0)" y="360" opacity="1">2012</text><text x="356.8431372549" style="color:#000000;cursor:default;font-size:11px;fill:#000000;" text-anchor="middle" transform="translate(0,0)" y="360" opacity="1">2014</text><text x="407.52941176471" style="color:#000000;cursor:default;font-size:11px;fill:#000000;" text-anchor="middle" transform="translate(0,0)" y="360" opacity="1">2016</text><text x="458.21568627451" style="color:#000000;cursor:default;font-size:11px;fill:#000000;" text-anchor="middle" transform="translate(0,0)" y="360" opacity="1">2018</text><text x="508.90196078431" style="color:#000000;cursor:default;font-size:11px;fill:#000000;" text-anchor="middle" transform="translate(0,0)" y="360" opacity="1">2020</text><text x="559.58823529412" style="color:#000000;cursor:default;font-size:11px;fill:#000000;" text-anchor="middle" transform="translate(0,0)" y="360" opacity="1">2022</text></g><g class="highcharts-axis-labels highcharts-yaxis-labels" data-z-index="7"><text x="58" style="color:#000000;cursor:default;font-size:11px;fill:#000000;" text-anchor="end" transform="translate(0,0)" y="345" opacity="1">0</text><text x="58" style="color:#000000;cursor:default;font-size:11px;fill:#000000;" text-anchor="end" transform="translate(0,0)" y="295" opacity="1"><tspan>500 000</tspan></text><text x="58" style="color:#000000;cursor:default;font-size:11px;fill:#000000;" text-anchor="end" transform="translate(0,0)" y="244" opacity="1"><tspan>1 000 000</tspan></text><text x="58" style="color:#000000;cursor:default;font-size:11px;fill:#000000;" text-anchor="end" transform="translate(0,0)" y="194" opacity="1"><tspan>1 500 000</tspan></text><text x="58" style="color:#000000;cursor:default;font-size:11px;fill:#000000;" text-anchor="end" transform="translate(0,0)" y="143" opacity="1"><tspan>2 000 000</tspan></text></g></svg>