<svg version="1.1" class="highcharts-root" style="font-family: Arial; font-size: 1rem;" xmlns="http://www.w3.org/2000/svg" width="600" height="400" viewBox="0 0 600 400" role="img" aria-label="Personenwagen mit elektrischem Antrieb"><desc>Created with Highcharts 12.5.0</desc><defs><filter id="highcharts-drop-shadow-0"><feDropShadow dx="1" dy="1" flood-color="#000000" flood-opacity="0.75" stdDeviation="2.5"></feDropShadow></filter><clipPath id="highcharts-fnmfr7c-288-"><rect x="0" y="0" width="488" height="179" fill="none"></rect></clipPath><clipPath id="highcharts-fnmfr7c-374-"><rect x="0" y="0" width="488" height="179" fill="none"></rect></clipPath></defs><rect fill="#ffffff" class="highcharts-background" filter="none" x="0" y="0" width="600" height="400" rx="0" ry="0"></rect><rect fill="none" class="highcharts-plot-background" x="57" y="135" width="488" height="179" filter="none"></rect><g class="highcharts-pane-group" data-z-index="0"></g><g class="highcharts-grid highcharts-xaxis-grid" data-z-index="1"><path fill="none" stroke="#e6e6e6" stroke-width="0" stroke-dasharray="none" data-z-index="1" class="highcharts-grid-line" d="M 85.5 135 L 85.5 314" opacity="1"></path><path fill="none" stroke="#e6e6e6" stroke-width="0" stroke-dasharray="none" data-z-index="1" class="highcharts-grid-line" d="M 114.5 135 L 114.5 314" opacity="1"></path><path fill="none" stroke="#e6e6e6" stroke-width="0" stroke-dasharray="none" data-z-index="1" class="highcharts-grid-line" d="M 143.5 135 L 143.5 314" opacity="1"></path><path fill="none" stroke="#e6e6e6" stroke-width="0" stroke-dasharray="none" data-z-index="1" class="highcharts-grid-line" d="M 171.5 135 L 171.5 314" opacity="1"></path><path fill="none" stroke="#e6e6e6" stroke-width="0" stroke-dasharray="none" data-z-index="1" class="highcharts-grid-line" d="M 200.5 135 L 200.5 314" opacity="1"></path><path fill="none" stroke="#e6e6e6" stroke-width="0" stroke-dasharray="none" data-z-index="1" class="highcharts-grid-line" d="M 229.5 135 L 229.5 314" opacity="1"></path><path fill="none" stroke="#e6e6e6" stroke-width="0" stroke-dasharray="none" data-z-index="1" class="highcharts-grid-line" d="M 257.5 135 L 257.5 314" opacity="1"></path><path fill="none" stroke="#e6e6e6" stroke-width="0" stroke-dasharray="none" data-z-index="1" class="highcharts-grid-line" d="M 286.5 135 L 286.5 314" opacity="1"></path><path fill="none" stroke="#e6e6e6" stroke-width="0" stroke-dasharray="none" data-z-index="1" class="highcharts-grid-line" d="M 315.5 135 L 315.5 314" opacity="1"></path><path fill="none" stroke="#e6e6e6" stroke-width="0" stroke-dasharray="none" data-z-index="1" class="highcharts-grid-line" d="M 344.5 135 L 344.5 314" opacity="1"></path><path fill="none" stroke="#e6e6e6" stroke-width="0" stroke-dasharray="none" data-z-index="1" class="highcharts-grid-line" d="M 372.5 135 L 372.5 314" opacity="1"></path><path fill="none" stroke="#e6e6e6" stroke-width="0" stroke-dasharray="none" data-z-index="1" class="highcharts-grid-line" d="M 401.5 135 L 401.5 314" opacity="1"></path><path fill="none" stroke="#e6e6e6" stroke-width="0" stroke-dasharray="none" data-z-index="1" class="highcharts-grid-line" d="M 430.5 135 L 430.5 314" opacity="1"></path><path fill="none" stroke="#e6e6e6" stroke-width="0" stroke-dasharray="none" data-z-index="1" class="highcharts-grid-line" d="M 458.5 135 L 458.5 314" opacity="1"></path><path fill="none" stroke="#e6e6e6" stroke-width="0" stroke-dasharray="none" data-z-index="1" class="highcharts-grid-line" d="M 487.5 135 L 487.5 314" opacity="1"></path><path fill="none" stroke="#e6e6e6" stroke-width="0" stroke-dasharray="none" data-z-index="1" class="highcharts-grid-line" d="M 516.5 135 L 516.5 314" opacity="1"></path><path fill="none" stroke="#e6e6e6" stroke-width="0" stroke-dasharray="none" data-z-index="1" class="highcharts-grid-line" d="M 545.5 135 L 545.5 314" opacity="1"></path><path fill="none" stroke="#e6e6e6" stroke-width="0" stroke-dasharray="none" data-z-index="1" class="highcharts-grid-line" d="M 57.5 135 L 57.5 314" opacity="1"></path></g><g class="highcharts-grid highcharts-yaxis-grid" data-z-index="1"><path fill="none" stroke="#B9CFD7" stroke-width="0.5" stroke-dasharray="none" data-z-index="1" class="highcharts-grid-line" d="M 57 314.25 L 545 314.25" opacity="1"></path><path fill="none" stroke="#B9CFD7" stroke-width="0.5" stroke-dasharray="none" data-z-index="1" class="highcharts-grid-line" d="M 57 254.25 L 545 254.25" opacity="1"></path><path fill="none" stroke="#B9CFD7" stroke-width="0.5" stroke-dasharray="none" data-z-index="1" class="highcharts-grid-line" d="M 57 194.25 L 545 194.25" opacity="1"></path><path fill="none" stroke="#B9CFD7" stroke-width="0.5" stroke-dasharray="none" data-z-index="1" class="highcharts-grid-line" d="M 57 135.25 L 545 135.25" opacity="1"></path></g><g class="highcharts-grid highcharts-yaxis-grid" data-z-index="1"><path fill="none" stroke="#B9CFD7" stroke-width="0.5" stroke-dasharray="none" data-z-index="1" class="highcharts-grid-line" d="M 57 314.25 L 545 314.25" opacity="1"></path><path fill="none" stroke="#B9CFD7" stroke-width="0.5" stroke-dasharray="none" data-z-index="1" class="highcharts-grid-line" d="M 57 254.25 L 545 254.25" opacity="1"></path><path fill="none" stroke="#B9CFD7" stroke-width="0.5" stroke-dasharray="none" data-z-index="1" class="highcharts-grid-line" d="M 57 194.25 L 545 194.25" opacity="1"></path><path fill="none" stroke="#B9CFD7" stroke-width="0.5" stroke-dasharray="none" data-z-index="1" class="highcharts-grid-line" d="M 57 135.25 L 545 135.25" opacity="1"></path></g><rect fill="none" class="highcharts-plot-border" data-z-index="1" stroke="#cccccc" stroke-width="0" x="57" y="135" width="488" height="179"></rect><g class="highcharts-axis highcharts-xaxis" data-z-index="2"><path fill="none" class="highcharts-axis-line" stroke="#B9CFD7" stroke-width="0.5" data-z-index="7" d="M 57 314.25 L 545 314.25"></path></g><g class="highcharts-axis highcharts-yaxis" data-z-index="2"><path fill="none" class="highcharts-axis-line" stroke="#B9CFD7" stroke-width="0" data-z-index="7" d="M 57 135 L 57 314"></path></g><g class="highcharts-axis highcharts-yaxis" data-z-index="2"><path fill="none" class="highcharts-axis-line" stroke="#B9CFD7" stroke-width="0" data-z-index="7" d="M 545 135 L 545 314"></path></g><g class="highcharts-series-group" data-z-index="3" filter="none"><g class="highcharts-series highcharts-series-0 highcharts-column-series highcharts-tracker" data-z-index="0.1" opacity="1" transform="translate(57,135) scale(1 1)" clip-path="url(#highcharts-fnmfr7c-288-)"><path fill="#FF8028" d="M 7.763932072500211 179.00000005 L 20.23606802749979 179.00000005 A 3 3 0 0 1 20.23606802749979 179.00000005 L 20.23606802749979 179.00000005 A 0 0 0 0 1 20.23606802749979 179.00000005 L 20.23606802749979 179.00000005 A 0 0 0 0 1 7.763932072500211 179.00000005 L 7.763932072500211 179.00000005 A 3 3 0 0 1 7.763932072500211 179.00000005 Z" stroke="#ffffff" stroke-width="1e-7" opacity="1" filter="none" class="highcharts-point"></path><path fill="#FF8028" d="M 36.76393207250021 179.00000005 L 49.23606802749978 179.00000005 A 3 3 0 0 1 49.23606802749978 179.00000005 L 49.23606802749978 179.00000005 A 0 0 0 0 1 49.23606802749978 179.00000005 L 49.23606802749978 179.00000005 A 0 0 0 0 1 36.76393207250021 179.00000005 L 36.76393207250021 179.00000005 A 3 3 0 0 1 36.76393207250021 179.00000005 Z" stroke="#ffffff" stroke-width="1e-7" opacity="1" filter="none" class="highcharts-point"></path><path fill="#FF8028" d="M 65.76393207250021 177.00000005 L 78.23606802749978 177.00000005 A 3 3 0 0 1 79.00000005 179.00000005 L 79.00000005 179.00000005 A 0 0 0 0 1 79.00000005 179.00000005 L 65.00000005 179.00000005 A 0 0 0 0 1 65.00000005 179.00000005 L 65.00000005 179.00000005 A 3 3 0 0 1 65.76393207250021 177.00000005 Z" stroke="#ffffff" stroke-width="1e-7" opacity="1" filter="none" class="highcharts-point"></path><path fill="#FF8028" d="M 97.00000005 171.00000005 L 105.00000005 171.00000005 A 3 3 0 0 1 108.00000005 174.00000005 L 108.00000005 179.00000005 A 0 0 0 0 1 108.00000005 179.00000005 L 94.00000005 179.00000005 A 0 0 0 0 1 94.00000005 179.00000005 L 94.00000005 174.00000005 A 3 3 0 0 1 97.00000005 171.00000005 Z" stroke="#ffffff" stroke-width="1e-7" opacity="1" filter="none" class="highcharts-point"></path><path fill="#FF8028" d="M 125.00000005 169.00000005 L 133.00000005 169.00000005 A 3 3 0 0 1 136.00000005 172.00000005 L 136.00000005 179.00000005 A 0 0 0 0 1 136.00000005 179.00000005 L 122.00000005 179.00000005 A 0 0 0 0 1 122.00000005 179.00000005 L 122.00000005 172.00000005 A 3 3 0 0 1 125.00000005 169.00000005 Z" stroke="#ffffff" stroke-width="1e-7" opacity="1" filter="none" class="highcharts-point"></path><path fill="#FF8028" d="M 154.00000005 166.00000005 L 162.00000005 166.00000005 A 3 3 0 0 1 165.00000005 169.00000005 L 165.00000005 179.00000005 A 0 0 0 0 1 165.00000005 179.00000005 L 151.00000005 179.00000005 A 0 0 0 0 1 151.00000005 179.00000005 L 151.00000005 169.00000005 A 3 3 0 0 1 154.00000005 166.00000005 Z" stroke="#ffffff" stroke-width="1e-7" opacity="1" filter="none" class="highcharts-point"></path><path fill="#FF8028" d="M 180.7639320725002 164.00000005 L 193.2360680274998 164.00000005 A 3 3 0 0 1 194.00000005 166.00000005 L 194.00000005 179.00000005 A 0 0 0 0 1 194.00000005 179.00000005 L 180.00000005 179.00000005 A 0 0 0 0 1 180.00000005 179.00000005 L 180.00000005 166.00000005 A 3 3 0 0 1 180.7639320725002 164.00000005 Z" stroke="#ffffff" stroke-width="1e-7" opacity="1" filter="none" class="highcharts-point"></path><path fill="#FF8028" d="M 208.7639320725002 161.00000005 L 221.2360680274998 161.00000005 A 3 3 0 0 1 222.00000005 163.00000005 L 222.00000005 179.00000005 A 0 0 0 0 1 222.00000005 179.00000005 L 208.00000005 179.00000005 A 0 0 0 0 1 208.00000005 179.00000005 L 208.00000005 163.00000005 A 3 3 0 0 1 208.7639320725002 161.00000005 Z" stroke="#ffffff" stroke-width="1e-7" opacity="1" filter="none" class="highcharts-point"></path><path fill="#FF8028" d="M 237.00000005 156.00000005 L 251.00000005 156.00000005 A 0 0 0 0 1 251.00000005 156.00000005 L 251.00000005 179.00000005 A 0 0 0 0 1 251.00000005 179.00000005 L 237.00000005 179.00000005 A 0 0 0 0 1 237.00000005 179.00000005 L 237.00000005 156.00000005 A 0 0 0 0 1 237.00000005 156.00000005 Z" stroke="#ffffff" stroke-width="1e-7" opacity="1" filter="none" class="highcharts-point"></path><path fill="#FF8028" d="M 266.00000005 153.00000005 L 280.00000005 153.00000005 A 0 0 0 0 1 280.00000005 153.00000005 L 280.00000005 179.00000005 A 0 0 0 0 1 280.00000005 179.00000005 L 266.00000005 179.00000005 A 0 0 0 0 1 266.00000005 179.00000005 L 266.00000005 153.00000005 A 0 0 0 0 1 266.00000005 153.00000005 Z" stroke="#ffffff" stroke-width="1e-7" opacity="1" filter="none" class="highcharts-point"></path><path fill="#FF8028" d="M 295.00000005 151.00000005 L 309.00000005 151.00000005 A 0 0 0 0 1 309.00000005 151.00000005 L 309.00000005 179.00000005 A 0 0 0 0 1 309.00000005 179.00000005 L 295.00000005 179.00000005 A 0 0 0 0 1 295.00000005 179.00000005 L 295.00000005 151.00000005 A 0 0 0 0 1 295.00000005 151.00000005 Z" stroke="#ffffff" stroke-width="1e-7" opacity="1" filter="none" class="highcharts-point"></path><path fill="#FF8028" d="M 323.00000005 146.00000005 L 337.00000005 146.00000005 A 0 0 0 0 1 337.00000005 146.00000005 L 337.00000005 179.00000005 A 0 0 0 0 1 337.00000005 179.00000005 L 323.00000005 179.00000005 A 0 0 0 0 1 323.00000005 179.00000005 L 323.00000005 146.00000005 A 0 0 0 0 1 323.00000005 146.00000005 Z" stroke="#ffffff" stroke-width="1e-7" opacity="1" filter="none" class="highcharts-point"></path><path fill="#FF8028" d="M 352.00000005 142.00000005 L 366.00000005 142.00000005 A 0 0 0 0 1 366.00000005 142.00000005 L 366.00000005 179.00000005 A 0 0 0 0 1 366.00000005 179.00000005 L 352.00000005 179.00000005 A 0 0 0 0 1 352.00000005 179.00000005 L 352.00000005 142.00000005 A 0 0 0 0 1 352.00000005 142.00000005 Z" stroke="#ffffff" stroke-width="1e-7" opacity="1" filter="none" class="highcharts-point"></path><path fill="#FF8028" d="M 381.00000005 138.00000005 L 395.00000005 138.00000005 A 0 0 0 0 1 395.00000005 138.00000005 L 395.00000005 179.00000005 A 0 0 0 0 1 395.00000005 179.00000005 L 381.00000005 179.00000005 A 0 0 0 0 1 381.00000005 179.00000005 L 381.00000005 138.00000005 A 0 0 0 0 1 381.00000005 138.00000005 Z" stroke="#ffffff" stroke-width="1e-7" opacity="1" filter="none" class="highcharts-point"></path><path fill="#FF8028" d="M 409.00000005 132.00000005 L 423.00000005 132.00000005 A 0 0 0 0 1 423.00000005 132.00000005 L 423.00000005 179.00000005 A 0 0 0 0 1 423.00000005 179.00000005 L 409.00000005 179.00000005 A 0 0 0 0 1 409.00000005 179.00000005 L 409.00000005 132.00000005 A 0 0 0 0 1 409.00000005 132.00000005 Z" stroke="#ffffff" stroke-width="1e-7" opacity="1" filter="none" class="highcharts-point"></path><path fill="#FF8028" d="M 438.00000005 120.00000005 L 452.00000005 120.00000005 A 0 0 0 0 1 452.00000005 120.00000005 L 452.00000005 179.00000005 A 0 0 0 0 1 452.00000005 179.00000005 L 438.00000005 179.00000005 A 0 0 0 0 1 438.00000005 179.00000005 L 438.00000005 120.00000005 A 0 0 0 0 1 438.00000005 120.00000005 Z" stroke="#ffffff" stroke-width="1e-7" opacity="1" filter="none" class="highcharts-point"></path><path fill="#FF8028" d="M 467.00000005 98.00000005 L 481.00000005 98.00000005 A 0 0 0 0 1 481.00000005 98.00000005 L 481.00000005 179.00000005 A 0 0 0 0 1 481.00000005 179.00000005 L 467.00000005 179.00000005 A 0 0 0 0 1 467.00000005 179.00000005 L 467.00000005 98.00000005 A 0 0 0 0 1 467.00000005 98.00000005 Z" stroke="#ffffff" stroke-width="1e-7" opacity="1" filter="none" class="highcharts-point"></path></g><g class="highcharts-markers highcharts-series-0 highcharts-column-series" data-z-index="0.1" opacity="1" transform="translate(57,135) scale(1 1)" clip-path="none"></g><g class="highcharts-series highcharts-series-1 highcharts-column-series highcharts-tracker" data-z-index="0.1" opacity="1" transform="translate(57,135) scale(1 1)" clip-path="url(#highcharts-fnmfr7c-288-)"><path fill="#A8C3CA" d="M 7.763932072500211 179.00000005 L 20.23606802749979 179.00000005 A 3 3 0 0 1 20.23606802749979 179.00000005 L 20.23606802749979 179.00000005 A 0 0 0 0 1 20.23606802749979 179.00000005 L 20.23606802749979 179.00000005 A 0 0 0 0 1 7.763932072500211 179.00000005 L 7.763932072500211 179.00000005 A 3 3 0 0 1 7.763932072500211 179.00000005 Z" stroke="#ffffff" stroke-width="1e-7" opacity="1" filter="none" class="highcharts-point"></path><path fill="#A8C3CA" d="M 36.76393207250021 179.00000005 L 49.23606802749978 179.00000005 A 3 3 0 0 1 49.23606802749978 179.00000005 L 49.23606802749978 179.00000005 A 0 0 0 0 1 49.23606802749978 179.00000005 L 49.23606802749978 179.00000005 A 0 0 0 0 1 36.76393207250021 179.00000005 L 36.76393207250021 179.00000005 A 3 3 0 0 1 36.76393207250021 179.00000005 Z" stroke="#ffffff" stroke-width="1e-7" opacity="1" filter="none" class="highcharts-point"></path><path fill="#A8C3CA" d="M 65.76393207250021 177.00000005 L 78.23606802749978 177.00000005 A 3 3 0 0 1 78.23606802749978 177.00000005 L 78.23606802749978 177.00000005 A 0 0 0 0 1 78.23606802749978 177.00000005 L 78.23606802749978 177.00000005 A 0 0 0 0 1 65.76393207250021 177.00000005 L 65.76393207250021 177.00000005 A 3 3 0 0 1 65.76393207250021 177.00000005 Z" stroke="#ffffff" stroke-width="1e-7" opacity="1" filter="none" class="highcharts-point"></path><path fill="#A8C3CA" d="M 97.00000005 171.00000005 L 105.00000005 171.00000005 A 3 3 0 0 1 105.00000005 171.00000005 L 105.00000005 171.00000005 A 0 0 0 0 1 105.00000005 171.00000005 L 105.00000005 171.00000005 A 0 0 0 0 1 97.00000005 171.00000005 L 97.00000005 171.00000005 A 3 3 0 0 1 97.00000005 171.00000005 Z" stroke="#ffffff" stroke-width="1e-7" opacity="1" filter="none" class="highcharts-point"></path><path fill="#A8C3CA" d="M 125.00000005 169.00000005 L 133.00000005 169.00000005 A 3 3 0 0 1 133.00000005 169.00000005 L 133.00000005 169.00000005 A 0 0 0 0 1 133.00000005 169.00000005 L 133.00000005 169.00000005 A 0 0 0 0 1 125.00000005 169.00000005 L 125.00000005 169.00000005 A 3 3 0 0 1 125.00000005 169.00000005 Z" stroke="#ffffff" stroke-width="1e-7" opacity="1" filter="none" class="highcharts-point"></path><path fill="#A8C3CA" d="M 154.00000005 166.00000005 L 162.00000005 166.00000005 A 3 3 0 0 1 162.00000005 166.00000005 L 162.00000005 166.00000005 A 0 0 0 0 1 162.00000005 166.00000005 L 162.00000005 166.00000005 A 0 0 0 0 1 154.00000005 166.00000005 L 154.00000005 166.00000005 A 3 3 0 0 1 154.00000005 166.00000005 Z" stroke="#ffffff" stroke-width="1e-7" opacity="1" filter="none" class="highcharts-point"></path><path fill="#A8C3CA" d="M 180.7639320725002 164.00000005 L 193.2360680274998 164.00000005 A 3 3 0 0 1 193.2360680274998 164.00000005 L 193.2360680274998 164.00000005 A 0 0 0 0 1 193.2360680274998 164.00000005 L 193.2360680274998 164.00000005 A 0 0 0 0 1 180.7639320725002 164.00000005 L 180.7639320725002 164.00000005 A 3 3 0 0 1 180.7639320725002 164.00000005 Z" stroke="#ffffff" stroke-width="1e-7" opacity="1" filter="none" class="highcharts-point"></path><path fill="#A8C3CA" d="M 208.7639320725002 161.00000005 L 221.2360680274998 161.00000005 A 3 3 0 0 1 221.2360680274998 161.00000005 L 221.2360680274998 161.00000005 A 0 0 0 0 1 221.2360680274998 161.00000005 L 221.2360680274998 161.00000005 A 0 0 0 0 1 208.7639320725002 161.00000005 L 208.7639320725002 161.00000005 A 3 3 0 0 1 208.7639320725002 161.00000005 Z" stroke="#ffffff" stroke-width="1e-7" opacity="1" filter="none" class="highcharts-point"></path><path fill="#A8C3CA" d="M 237.00000005 156.00000005 L 251.00000005 156.00000005 A 0 0 0 0 1 251.00000005 156.00000005 L 251.00000005 156.00000005 A 0 0 0 0 1 251.00000005 156.00000005 L 237.00000005 156.00000005 A 0 0 0 0 1 237.00000005 156.00000005 L 237.00000005 156.00000005 A 0 0 0 0 1 237.00000005 156.00000005 Z" stroke="#ffffff" stroke-width="1e-7" opacity="1" filter="none" class="highcharts-point"></path><path fill="#A8C3CA" d="M 266.00000005 153.00000005 L 280.00000005 153.00000005 A 0 0 0 0 1 280.00000005 153.00000005 L 280.00000005 153.00000005 A 0 0 0 0 1 280.00000005 153.00000005 L 266.00000005 153.00000005 A 0 0 0 0 1 266.00000005 153.00000005 L 266.00000005 153.00000005 A 0 0 0 0 1 266.00000005 153.00000005 Z" stroke="#ffffff" stroke-width="1e-7" opacity="1" filter="none" class="highcharts-point"></path><path fill="#A8C3CA" d="M 295.00000005 150.00000005 L 309.00000005 150.00000005 A 0 0 0 0 1 309.00000005 150.00000005 L 309.00000005 151.00000005 A 0 0 0 0 1 309.00000005 151.00000005 L 295.00000005 151.00000005 A 0 0 0 0 1 295.00000005 151.00000005 L 295.00000005 150.00000005 A 0 0 0 0 1 295.00000005 150.00000005 Z" stroke="#ffffff" stroke-width="1e-7" opacity="1" filter="none" class="highcharts-point"></path><path fill="#A8C3CA" d="M 323.00000005 144.00000005 L 337.00000005 144.00000005 A 0 0 0 0 1 337.00000005 144.00000005 L 337.00000005 146.00000005 A 0 0 0 0 1 337.00000005 146.00000005 L 323.00000005 146.00000005 A 0 0 0 0 1 323.00000005 146.00000005 L 323.00000005 144.00000005 A 0 0 0 0 1 323.00000005 144.00000005 Z" stroke="#ffffff" stroke-width="1e-7" opacity="1" filter="none" class="highcharts-point"></path><path fill="#A8C3CA" d="M 352.00000005 139.00000005 L 366.00000005 139.00000005 A 0 0 0 0 1 366.00000005 139.00000005 L 366.00000005 142.00000005 A 0 0 0 0 1 366.00000005 142.00000005 L 352.00000005 142.00000005 A 0 0 0 0 1 352.00000005 142.00000005 L 352.00000005 139.00000005 A 0 0 0 0 1 352.00000005 139.00000005 Z" stroke="#ffffff" stroke-width="1e-7" opacity="1" filter="none" class="highcharts-point"></path><path fill="#A8C3CA" d="M 381.00000005 133.00000005 L 395.00000005 133.00000005 A 0 0 0 0 1 395.00000005 133.00000005 L 395.00000005 138.00000005 A 0 0 0 0 1 395.00000005 138.00000005 L 381.00000005 138.00000005 A 0 0 0 0 1 381.00000005 138.00000005 L 381.00000005 133.00000005 A 0 0 0 0 1 381.00000005 133.00000005 Z" stroke="#ffffff" stroke-width="1e-7" opacity="1" filter="none" class="highcharts-point"></path><path fill="#A8C3CA" d="M 409.00000005 123.00000005 L 423.00000005 123.00000005 A 0 0 0 0 1 423.00000005 123.00000005 L 423.00000005 132.00000005 A 0 0 0 0 1 423.00000005 132.00000005 L 409.00000005 132.00000005 A 0 0 0 0 1 409.00000005 132.00000005 L 409.00000005 123.00000005 A 0 0 0 0 1 409.00000005 123.00000005 Z" stroke="#ffffff" stroke-width="1e-7" opacity="1" filter="none" class="highcharts-point"></path><path fill="#A8C3CA" d="M 438.00000005 101.00000005 L 452.00000005 101.00000005 A 0 0 0 0 1 452.00000005 101.00000005 L 452.00000005 120.00000005 A 0 0 0 0 1 452.00000005 120.00000005 L 438.00000005 120.00000005 A 0 0 0 0 1 438.00000005 120.00000005 L 438.00000005 101.00000005 A 0 0 0 0 1 438.00000005 101.00000005 Z" stroke="#ffffff" stroke-width="1e-7" opacity="1" filter="none" class="highcharts-point"></path><path fill="#A8C3CA" d="M 467.00000005 74.00000005 L 481.00000005 74.00000005 A 0 0 0 0 1 481.00000005 74.00000005 L 481.00000005 98.00000005 A 0 0 0 0 1 481.00000005 98.00000005 L 467.00000005 98.00000005 A 0 0 0 0 1 467.00000005 98.00000005 L 467.00000005 74.00000005 A 0 0 0 0 1 467.00000005 74.00000005 Z" stroke="#ffffff" stroke-width="1e-7" opacity="1" filter="none" class="highcharts-point"></path></g><g class="highcharts-markers highcharts-series-1 highcharts-column-series" data-z-index="0.1" opacity="1" transform="translate(57,135) scale(1 1)" clip-path="none"></g><g class="highcharts-series highcharts-series-2 highcharts-column-series highcharts-tracker" data-z-index="0.1" opacity="1" transform="translate(57,135) scale(1 1)" clip-path="url(#highcharts-fnmfr7c-288-)"><path fill="#DC440E" d="M 7.763932072500211 179.00000005 L 20.23606802749979 179.00000005 A 3 3 0 0 1 20.23606802749979 179.00000005 L 20.23606802749979 179.00000005 A 0 0 0 0 1 20.23606802749979 179.00000005 L 20.23606802749979 179.00000005 A 0 0 0 0 1 7.763932072500211 179.00000005 L 7.763932072500211 179.00000005 A 3 3 0 0 1 7.763932072500211 179.00000005 Z" stroke="#ffffff" stroke-width="1e-7" opacity="1" filter="none" class="highcharts-point"></path><path fill="#DC440E" d="M 36.76393207250021 179.00000005 L 49.23606802749978 179.00000005 A 3 3 0 0 1 49.23606802749978 179.00000005 L 49.23606802749978 179.00000005 A 0 0 0 0 1 49.23606802749978 179.00000005 L 49.23606802749978 179.00000005 A 0 0 0 0 1 36.76393207250021 179.00000005 L 36.76393207250021 179.00000005 A 3 3 0 0 1 36.76393207250021 179.00000005 Z" stroke="#ffffff" stroke-width="1e-7" opacity="1" filter="none" class="highcharts-point"></path><path fill="#DC440E" d="M 65.76393207250021 177.00000005 L 78.23606802749978 177.00000005 A 3 3 0 0 1 78.23606802749978 177.00000005 L 78.23606802749978 177.00000005 A 0 0 0 0 1 78.23606802749978 177.00000005 L 78.23606802749978 177.00000005 A 0 0 0 0 1 65.76393207250021 177.00000005 L 65.76393207250021 177.00000005 A 3 3 0 0 1 65.76393207250021 177.00000005 Z" stroke="#ffffff" stroke-width="1e-7" opacity="1" filter="none" class="highcharts-point"></path><path fill="#DC440E" d="M 97.00000005 171.00000005 L 105.00000005 171.00000005 A 3 3 0 0 1 105.00000005 171.00000005 L 105.00000005 171.00000005 A 0 0 0 0 1 105.00000005 171.00000005 L 105.00000005 171.00000005 A 0 0 0 0 1 97.00000005 171.00000005 L 97.00000005 171.00000005 A 3 3 0 0 1 97.00000005 171.00000005 Z" stroke="#ffffff" stroke-width="1e-7" opacity="1" filter="none" class="highcharts-point"></path><path fill="#DC440E" d="M 125.00000005 169.00000005 L 133.00000005 169.00000005 A 3 3 0 0 1 133.00000005 169.00000005 L 133.00000005 169.00000005 A 0 0 0 0 1 133.00000005 169.00000005 L 133.00000005 169.00000005 A 0 0 0 0 1 125.00000005 169.00000005 L 125.00000005 169.00000005 A 3 3 0 0 1 125.00000005 169.00000005 Z" stroke="#ffffff" stroke-width="1e-7" opacity="1" filter="none" class="highcharts-point"></path><path fill="#DC440E" d="M 154.00000005 166.00000005 L 162.00000005 166.00000005 A 3 3 0 0 1 162.00000005 166.00000005 L 162.00000005 166.00000005 A 0 0 0 0 1 162.00000005 166.00000005 L 162.00000005 166.00000005 A 0 0 0 0 1 154.00000005 166.00000005 L 154.00000005 166.00000005 A 3 3 0 0 1 154.00000005 166.00000005 Z" stroke="#ffffff" stroke-width="1e-7" opacity="1" filter="none" class="highcharts-point"></path><path fill="#DC440E" d="M 180.7639320725002 164.00000005 L 193.2360680274998 164.00000005 A 3 3 0 0 1 193.2360680274998 164.00000005 L 193.2360680274998 164.00000005 A 0 0 0 0 1 193.2360680274998 164.00000005 L 193.2360680274998 164.00000005 A 0 0 0 0 1 180.7639320725002 164.00000005 L 180.7639320725002 164.00000005 A 3 3 0 0 1 180.7639320725002 164.00000005 Z" stroke="#ffffff" stroke-width="1e-7" opacity="1" filter="none" class="highcharts-point"></path><path fill="#DC440E" d="M 208.7639320725002 161.00000005 L 221.2360680274998 161.00000005 A 3 3 0 0 1 221.2360680274998 161.00000005 L 221.2360680274998 161.00000005 A 0 0 0 0 1 221.2360680274998 161.00000005 L 221.2360680274998 161.00000005 A 0 0 0 0 1 208.7639320725002 161.00000005 L 208.7639320725002 161.00000005 A 3 3 0 0 1 208.7639320725002 161.00000005 Z" stroke="#ffffff" stroke-width="1e-7" opacity="1" filter="none" class="highcharts-point"></path><path fill="#DC440E" d="M 237.17157292525383 155.00000005 L 250.8284271747462 155.00000005 A 3 3 0 0 1 251.00000005 156.00000005 L 251.00000005 156.00000005 A 0 0 0 0 1 251.00000005 156.00000005 L 237.00000005 156.00000005 A 0 0 0 0 1 237.00000005 156.00000005 L 237.00000005 156.00000005 A 3 3 0 0 1 237.17157292525383 155.00000005 Z" stroke="#ffffff" stroke-width="1e-7" opacity="1" filter="none" class="highcharts-point"></path><path fill="#DC440E" d="M 266.17157292525377 152.00000005 L 279.8284271747462 152.00000005 A 3 3 0 0 1 280.00000005 153.00000005 L 280.00000005 153.00000005 A 0 0 0 0 1 280.00000005 153.00000005 L 266.00000005 153.00000005 A 0 0 0 0 1 266.00000005 153.00000005 L 266.00000005 153.00000005 A 3 3 0 0 1 266.17157292525377 152.00000005 Z" stroke="#ffffff" stroke-width="1e-7" opacity="1" filter="none" class="highcharts-point"></path><path fill="#DC440E" d="M 295.00000005 149.00000005 L 309.00000005 149.00000005 A 0 0 0 0 1 309.00000005 149.00000005 L 309.00000005 150.00000005 A 0 0 0 0 1 309.00000005 150.00000005 L 295.00000005 150.00000005 A 0 0 0 0 1 295.00000005 150.00000005 L 295.00000005 149.00000005 A 0 0 0 0 1 295.00000005 149.00000005 Z" stroke="#ffffff" stroke-width="1e-7" opacity="1" filter="none" class="highcharts-point"></path><path fill="#DC440E" d="M 323.00000005 143.00000005 L 337.00000005 143.00000005 A 0 0 0 0 1 337.00000005 143.00000005 L 337.00000005 144.00000005 A 0 0 0 0 1 337.00000005 144.00000005 L 323.00000005 144.00000005 A 0 0 0 0 1 323.00000005 144.00000005 L 323.00000005 143.00000005 A 0 0 0 0 1 323.00000005 143.00000005 Z" stroke="#ffffff" stroke-width="1e-7" opacity="1" filter="none" class="highcharts-point"></path><path fill="#DC440E" d="M 352.00000005 138.00000005 L 366.00000005 138.00000005 A 0 0 0 0 1 366.00000005 138.00000005 L 366.00000005 139.00000005 A 0 0 0 0 1 366.00000005 139.00000005 L 352.00000005 139.00000005 A 0 0 0 0 1 352.00000005 139.00000005 L 352.00000005 138.00000005 A 0 0 0 0 1 352.00000005 138.00000005 Z" stroke="#ffffff" stroke-width="1e-7" opacity="1" filter="none" class="highcharts-point"></path><path fill="#DC440E" d="M 381.00000005 132.00000005 L 395.00000005 132.00000005 A 0 0 0 0 1 395.00000005 132.00000005 L 395.00000005 133.00000005 A 0 0 0 0 1 395.00000005 133.00000005 L 381.00000005 133.00000005 A 0 0 0 0 1 381.00000005 133.00000005 L 381.00000005 132.00000005 A 0 0 0 0 1 381.00000005 132.00000005 Z" stroke="#ffffff" stroke-width="1e-7" opacity="1" filter="none" class="highcharts-point"></path><path fill="#DC440E" d="M 409.00000005 119.00000005 L 423.00000005 119.00000005 A 0 0 0 0 1 423.00000005 119.00000005 L 423.00000005 123.00000005 A 0 0 0 0 1 423.00000005 123.00000005 L 409.00000005 123.00000005 A 0 0 0 0 1 409.00000005 123.00000005 L 409.00000005 119.00000005 A 0 0 0 0 1 409.00000005 119.00000005 Z" stroke="#ffffff" stroke-width="1e-7" opacity="1" filter="none" class="highcharts-point"></path><path fill="#DC440E" d="M 438.00000005 93.00000005 L 452.00000005 93.00000005 A 0 0 0 0 1 452.00000005 93.00000005 L 452.00000005 101.00000005 A 0 0 0 0 1 452.00000005 101.00000005 L 438.00000005 101.00000005 A 0 0 0 0 1 438.00000005 101.00000005 L 438.00000005 93.00000005 A 0 0 0 0 1 438.00000005 93.00000005 Z" stroke="#ffffff" stroke-width="1e-7" opacity="1" filter="none" class="highcharts-point"></path><path fill="#DC440E" d="M 467.00000005 55.00000005 L 481.00000005 55.00000005 A 0 0 0 0 1 481.00000005 55.00000005 L 481.00000005 74.00000005 A 0 0 0 0 1 481.00000005 74.00000005 L 467.00000005 74.00000005 A 0 0 0 0 1 467.00000005 74.00000005 L 467.00000005 55.00000005 A 0 0 0 0 1 467.00000005 55.00000005 Z" stroke="#ffffff" stroke-width="1e-7" opacity="1" filter="none" class="highcharts-point"></path></g><g class="highcharts-markers highcharts-series-2 highcharts-column-series" data-z-index="0.1" opacity="1" transform="translate(57,135) scale(1 1)" clip-path="none"></g><g class="highcharts-series highcharts-series-3 highcharts-column-series highcharts-tracker" data-z-index="0.1" opacity="1" transform="translate(57,135) scale(1 1)" clip-path="url(#highcharts-fnmfr7c-288-)"><path fill="#689199" d="M 7.763932072500211 179.00000005 L 20.23606802749979 179.00000005 A 3 3 0 0 1 20.23606802749979 179.00000005 L 20.23606802749979 179.00000005 A 0 0 0 0 1 20.23606802749979 179.00000005 L 20.23606802749979 179.00000005 A 0 0 0 0 1 7.763932072500211 179.00000005 L 7.763932072500211 179.00000005 A 3 3 0 0 1 7.763932072500211 179.00000005 Z" stroke="#ffffff" stroke-width="1e-7" opacity="1" filter="none" class="highcharts-point"></path><path fill="#689199" d="M 36.76393207250021 179.00000005 L 49.23606802749978 179.00000005 A 3 3 0 0 1 49.23606802749978 179.00000005 L 49.23606802749978 179.00000005 A 0 0 0 0 1 49.23606802749978 179.00000005 L 49.23606802749978 179.00000005 A 0 0 0 0 1 36.76393207250021 179.00000005 L 36.76393207250021 179.00000005 A 3 3 0 0 1 36.76393207250021 179.00000005 Z" stroke="#ffffff" stroke-width="1e-7" opacity="1" filter="none" class="highcharts-point"></path><path fill="#689199" d="M 65.76393207250021 177.00000005 L 78.23606802749978 177.00000005 A 3 3 0 0 1 78.23606802749978 177.00000005 L 78.23606802749978 177.00000005 A 0 0 0 0 1 78.23606802749978 177.00000005 L 78.23606802749978 177.00000005 A 0 0 0 0 1 65.76393207250021 177.00000005 L 65.76393207250021 177.00000005 A 3 3 0 0 1 65.76393207250021 177.00000005 Z" stroke="#ffffff" stroke-width="1e-7" opacity="1" filter="none" class="highcharts-point"></path><path fill="#689199" d="M 97.00000005 171.00000005 L 105.00000005 171.00000005 A 3 3 0 0 1 105.00000005 171.00000005 L 105.00000005 171.00000005 A 0 0 0 0 1 105.00000005 171.00000005 L 105.00000005 171.00000005 A 0 0 0 0 1 97.00000005 171.00000005 L 97.00000005 171.00000005 A 3 3 0 0 1 97.00000005 171.00000005 Z" stroke="#ffffff" stroke-width="1e-7" opacity="1" filter="none" class="highcharts-point"></path><path fill="#689199" d="M 125.00000005 169.00000005 L 133.00000005 169.00000005 A 3 3 0 0 1 133.00000005 169.00000005 L 133.00000005 169.00000005 A 0 0 0 0 1 133.00000005 169.00000005 L 133.00000005 169.00000005 A 0 0 0 0 1 125.00000005 169.00000005 L 125.00000005 169.00000005 A 3 3 0 0 1 125.00000005 169.00000005 Z" stroke="#ffffff" stroke-width="1e-7" opacity="1" filter="none" class="highcharts-point"></path><path fill="#689199" d="M 154.00000005 166.00000005 L 162.00000005 166.00000005 A 3 3 0 0 1 162.00000005 166.00000005 L 162.00000005 166.00000005 A 0 0 0 0 1 162.00000005 166.00000005 L 162.00000005 166.00000005 A 0 0 0 0 1 154.00000005 166.00000005 L 154.00000005 166.00000005 A 3 3 0 0 1 154.00000005 166.00000005 Z" stroke="#ffffff" stroke-width="1e-7" opacity="1" filter="none" class="highcharts-point"></path><path fill="#689199" d="M 180.7639320725002 164.00000005 L 193.2360680274998 164.00000005 A 3 3 0 0 1 193.2360680274998 164.00000005 L 193.2360680274998 164.00000005 A 0 0 0 0 1 193.2360680274998 164.00000005 L 193.2360680274998 164.00000005 A 0 0 0 0 1 180.7639320725002 164.00000005 L 180.7639320725002 164.00000005 A 3 3 0 0 1 180.7639320725002 164.00000005 Z" stroke="#ffffff" stroke-width="1e-7" opacity="1" filter="none" class="highcharts-point"></path><path fill="#689199" d="M 208.7639320725002 161.00000005 L 221.2360680274998 161.00000005 A 3 3 0 0 1 221.2360680274998 161.00000005 L 221.2360680274998 161.00000005 A 0 0 0 0 1 221.2360680274998 161.00000005 L 221.2360680274998 161.00000005 A 0 0 0 0 1 208.7639320725002 161.00000005 L 208.7639320725002 161.00000005 A 3 3 0 0 1 208.7639320725002 161.00000005 Z" stroke="#ffffff" stroke-width="1e-7" opacity="1" filter="none" class="highcharts-point"></path><path fill="#689199" d="M 237.17157292525383 155.00000005 L 250.8284271747462 155.00000005 A 3 3 0 0 1 250.8284271747462 155.00000005 L 250.8284271747462 155.00000005 A 0 0 0 0 1 250.8284271747462 155.00000005 L 250.8284271747462 155.00000005 A 0 0 0 0 1 237.17157292525383 155.00000005 L 237.17157292525383 155.00000005 A 3 3 0 0 1 237.17157292525383 155.00000005 Z" stroke="#ffffff" stroke-width="1e-7" opacity="1" filter="none" class="highcharts-point"></path><path fill="#689199" d="M 266.17157292525377 152.00000005 L 279.8284271747462 152.00000005 A 3 3 0 0 1 279.8284271747462 152.00000005 L 279.8284271747462 152.00000005 A 0 0 0 0 1 279.8284271747462 152.00000005 L 279.8284271747462 152.00000005 A 0 0 0 0 1 266.17157292525377 152.00000005 L 266.17157292525377 152.00000005 A 3 3 0 0 1 266.17157292525377 152.00000005 Z" stroke="#ffffff" stroke-width="1e-7" opacity="1" filter="none" class="highcharts-point"></path><path fill="#689199" d="M 295.00000005 149.00000005 L 309.00000005 149.00000005 A 0 0 0 0 1 309.00000005 149.00000005 L 309.00000005 149.00000005 A 0 0 0 0 1 309.00000005 149.00000005 L 295.00000005 149.00000005 A 0 0 0 0 1 295.00000005 149.00000005 L 295.00000005 149.00000005 A 0 0 0 0 1 295.00000005 149.00000005 Z" stroke="#ffffff" stroke-width="1e-7" opacity="1" filter="none" class="highcharts-point"></path><path fill="#689199" d="M 323.00000005 143.00000005 L 337.00000005 143.00000005 A 0 0 0 0 1 337.00000005 143.00000005 L 337.00000005 143.00000005 A 0 0 0 0 1 337.00000005 143.00000005 L 323.00000005 143.00000005 A 0 0 0 0 1 323.00000005 143.00000005 L 323.00000005 143.00000005 A 0 0 0 0 1 323.00000005 143.00000005 Z" stroke="#ffffff" stroke-width="1e-7" opacity="1" filter="none" class="highcharts-point"></path><path fill="#689199" d="M 352.00000005 138.00000005 L 366.00000005 138.00000005 A 0 0 0 0 1 366.00000005 138.00000005 L 366.00000005 138.00000005 A 0 0 0 0 1 366.00000005 138.00000005 L 352.00000005 138.00000005 A 0 0 0 0 1 352.00000005 138.00000005 L 352.00000005 138.00000005 A 0 0 0 0 1 352.00000005 138.00000005 Z" stroke="#ffffff" stroke-width="1e-7" opacity="1" filter="none" class="highcharts-point"></path><path fill="#689199" d="M 381.00000005 131.00000005 L 395.00000005 131.00000005 A 0 0 0 0 1 395.00000005 131.00000005 L 395.00000005 132.00000005 A 0 0 0 0 1 395.00000005 132.00000005 L 381.00000005 132.00000005 A 0 0 0 0 1 381.00000005 132.00000005 L 381.00000005 131.00000005 A 0 0 0 0 1 381.00000005 131.00000005 Z" stroke="#ffffff" stroke-width="1e-7" opacity="1" filter="none" class="highcharts-point"></path><path fill="#689199" d="M 409.00000005 119.00000005 L 423.00000005 119.00000005 A 0 0 0 0 1 423.00000005 119.00000005 L 423.00000005 119.00000005 A 0 0 0 0 1 423.00000005 119.00000005 L 409.00000005 119.00000005 A 0 0 0 0 1 409.00000005 119.00000005 L 409.00000005 119.00000005 A 0 0 0 0 1 409.00000005 119.00000005 Z" stroke="#ffffff" stroke-width="1e-7" opacity="1" filter="none" class="highcharts-point"></path><path fill="#689199" d="M 438.00000005 93.00000005 L 452.00000005 93.00000005 A 0 0 0 0 1 452.00000005 93.00000005 L 452.00000005 93.00000005 A 0 0 0 0 1 452.00000005 93.00000005 L 438.00000005 93.00000005 A 0 0 0 0 1 438.00000005 93.00000005 L 438.00000005 93.00000005 A 0 0 0 0 1 438.00000005 93.00000005 Z" stroke="#ffffff" stroke-width="1e-7" opacity="1" filter="none" class="highcharts-point"></path><path fill="#689199" d="M 467.00000005 55.00000005 L 481.00000005 55.00000005 A 0 0 0 0 1 481.00000005 55.00000005 L 481.00000005 55.00000005 A 0 0 0 0 1 481.00000005 55.00000005 L 467.00000005 55.00000005 A 0 0 0 0 1 467.00000005 55.00000005 L 467.00000005 55.00000005 A 0 0 0 0 1 467.00000005 55.00000005 Z" stroke="#ffffff" stroke-width="1e-7" opacity="1" filter="none" class="highcharts-point"></path></g><g class="highcharts-markers highcharts-series-3 highcharts-column-series" data-z-index="0.1" opacity="1" transform="translate(57,135) scale(1 1)" clip-path="none"></g><g class="highcharts-series highcharts-series-4 highcharts-column-series highcharts-tracker" data-z-index="0.1" opacity="1" transform="translate(57,135) scale(1 1)" clip-path="url(#highcharts-fnmfr7c-288-)"><path fill="#B00000" d="M 10.00000005 178.00000005 L 18.00000005 178.00000005 A 3 3 0 0 1 20.23606802749979 179.00000005 L 20.23606802749979 179.00000005 A 0 0 0 0 1 20.23606802749979 179.00000005 L 20.23606802749979 179.00000005 A 0 0 0 0 1 7.763932072500211 179.00000005 L 7.763932072500211 179.00000005 A 3 3 0 0 1 10.00000005 178.00000005 Z" stroke="#ffffff" stroke-width="1e-7" opacity="1" filter="none" class="highcharts-point"></path><path fill="#B00000" d="M 39.00000005 178.00000005 L 47.00000005 178.00000005 A 3 3 0 0 1 49.23606802749978 179.00000005 L 49.23606802749978 179.00000005 A 0 0 0 0 1 49.23606802749978 179.00000005 L 49.23606802749978 179.00000005 A 0 0 0 0 1 36.76393207250021 179.00000005 L 36.76393207250021 179.00000005 A 3 3 0 0 1 39.00000005 178.00000005 Z" stroke="#ffffff" stroke-width="1e-7" opacity="1" filter="none" class="highcharts-point"></path><path fill="#B00000" d="M 68.00000005 176.00000005 L 76.00000005 176.00000005 A 3 3 0 0 1 78.23606802749978 177.00000005 L 78.23606802749978 177.00000005 A 0 0 0 0 1 78.23606802749978 177.00000005 L 78.23606802749978 177.00000005 A 0 0 0 0 1 65.76393207250021 177.00000005 L 65.76393207250021 177.00000005 A 3 3 0 0 1 68.00000005 176.00000005 Z" stroke="#ffffff" stroke-width="1e-7" opacity="1" filter="none" class="highcharts-point"></path><path fill="#B00000" d="M 97.00000005 171.00000005 L 105.00000005 171.00000005 A 3 3 0 0 1 105.00000005 171.00000005 L 105.00000005 171.00000005 A 0 0 0 0 1 105.00000005 171.00000005 L 105.00000005 171.00000005 A 0 0 0 0 1 97.00000005 171.00000005 L 97.00000005 171.00000005 A 3 3 0 0 1 97.00000005 171.00000005 Z" stroke="#ffffff" stroke-width="1e-7" opacity="1" filter="none" class="highcharts-point"></path><path fill="#B00000" d="M 125.00000005 169.00000005 L 133.00000005 169.00000005 A 3 3 0 0 1 133.00000005 169.00000005 L 133.00000005 169.00000005 A 0 0 0 0 1 133.00000005 169.00000005 L 133.00000005 169.00000005 A 0 0 0 0 1 125.00000005 169.00000005 L 125.00000005 169.00000005 A 3 3 0 0 1 125.00000005 169.00000005 Z" stroke="#ffffff" stroke-width="1e-7" opacity="1" filter="none" class="highcharts-point"></path><path fill="#B00000" d="M 154.00000005 166.00000005 L 162.00000005 166.00000005 A 3 3 0 0 1 162.00000005 166.00000005 L 162.00000005 166.00000005 A 0 0 0 0 1 162.00000005 166.00000005 L 162.00000005 166.00000005 A 0 0 0 0 1 154.00000005 166.00000005 L 154.00000005 166.00000005 A 3 3 0 0 1 154.00000005 166.00000005 Z" stroke="#ffffff" stroke-width="1e-7" opacity="1" filter="none" class="highcharts-point"></path><path fill="#B00000" d="M 183.00000005 163.00000005 L 191.00000005 163.00000005 A 3 3 0 0 1 193.2360680274998 164.00000005 L 193.2360680274998 164.00000005 A 0 0 0 0 1 193.2360680274998 164.00000005 L 193.2360680274998 164.00000005 A 0 0 0 0 1 180.7639320725002 164.00000005 L 180.7639320725002 164.00000005 A 3 3 0 0 1 183.00000005 163.00000005 Z" stroke="#ffffff" stroke-width="1e-7" opacity="1" filter="none" class="highcharts-point"></path><path fill="#B00000" d="M 211.00000005 160.00000005 L 219.00000005 160.00000005 A 3 3 0 0 1 221.2360680274998 161.00000005 L 221.2360680274998 161.00000005 A 0 0 0 0 1 221.2360680274998 161.00000005 L 221.2360680274998 161.00000005 A 0 0 0 0 1 208.7639320725002 161.00000005 L 208.7639320725002 161.00000005 A 3 3 0 0 1 211.00000005 160.00000005 Z" stroke="#ffffff" stroke-width="1e-7" opacity="1" filter="none" class="highcharts-point"></path><path fill="#B00000" d="M 240.00000005 153.00000005 L 248.00000005 153.00000005 A 3 3 0 0 1 250.8284271747462 155.00000005 L 250.8284271747462 155.00000005 A 0 0 0 0 1 250.8284271747462 155.00000005 L 250.8284271747462 155.00000005 A 0 0 0 0 1 237.17157292525383 155.00000005 L 237.17157292525383 155.00000005 A 3 3 0 0 1 240.00000005 153.00000005 Z" stroke="#ffffff" stroke-width="1e-7" opacity="1" filter="none" class="highcharts-point"></path><path fill="#B00000" d="M 269.00000005 150.00000005 L 277.00000005 150.00000005 A 3 3 0 0 1 279.8284271747462 152.00000005 L 279.8284271747462 152.00000005 A 0 0 0 0 1 279.8284271747462 152.00000005 L 279.8284271747462 152.00000005 A 0 0 0 0 1 266.17157292525377 152.00000005 L 266.17157292525377 152.00000005 A 3 3 0 0 1 269.00000005 150.00000005 Z" stroke="#ffffff" stroke-width="1e-7" opacity="1" filter="none" class="highcharts-point"></path><path fill="#B00000" d="M 298.00000005 146.00000005 L 306.00000005 146.00000005 A 3 3 0 0 1 309.00000005 149.00000005 L 309.00000005 149.00000005 A 0 0 0 0 1 309.00000005 149.00000005 L 295.00000005 149.00000005 A 0 0 0 0 1 295.00000005 149.00000005 L 295.00000005 149.00000005 A 3 3 0 0 1 298.00000005 146.00000005 Z" stroke="#ffffff" stroke-width="1e-7" opacity="1" filter="none" class="highcharts-point"></path><path fill="#B00000" d="M 326.00000005 137.00000005 L 334.00000005 137.00000005 A 3 3 0 0 1 337.00000005 140.00000005 L 337.00000005 143.00000005 A 0 0 0 0 1 337.00000005 143.00000005 L 323.00000005 143.00000005 A 0 0 0 0 1 323.00000005 143.00000005 L 323.00000005 140.00000005 A 3 3 0 0 1 326.00000005 137.00000005 Z" stroke="#ffffff" stroke-width="1e-7" opacity="1" filter="none" class="highcharts-point"></path><path fill="#B00000" d="M 355.00000005 130.00000005 L 363.00000005 130.00000005 A 3 3 0 0 1 366.00000005 133.00000005 L 366.00000005 138.00000005 A 0 0 0 0 1 366.00000005 138.00000005 L 352.00000005 138.00000005 A 0 0 0 0 1 352.00000005 138.00000005 L 352.00000005 133.00000005 A 3 3 0 0 1 355.00000005 130.00000005 Z" stroke="#ffffff" stroke-width="1e-7" opacity="1" filter="none" class="highcharts-point"></path><path fill="#B00000" d="M 384.00000005 122.00000005 L 392.00000005 122.00000005 A 3 3 0 0 1 395.00000005 125.00000005 L 395.00000005 131.00000005 A 0 0 0 0 1 395.00000005 131.00000005 L 381.00000005 131.00000005 A 0 0 0 0 1 381.00000005 131.00000005 L 381.00000005 125.00000005 A 3 3 0 0 1 384.00000005 122.00000005 Z" stroke="#ffffff" stroke-width="1e-7" opacity="1" filter="none" class="highcharts-point"></path><path fill="#B00000" d="M 412.00000005 104.00000005 L 420.00000005 104.00000005 A 3 3 0 0 1 423.00000005 107.00000005 L 423.00000005 119.00000005 A 0 0 0 0 1 423.00000005 119.00000005 L 409.00000005 119.00000005 A 0 0 0 0 1 409.00000005 119.00000005 L 409.00000005 107.00000005 A 3 3 0 0 1 412.00000005 104.00000005 Z" stroke="#ffffff" stroke-width="1e-7" opacity="1" filter="none" class="highcharts-point"></path><path fill="#B00000" d="M 441.00000005 70.00000005 L 449.00000005 70.00000005 A 3 3 0 0 1 452.00000005 73.00000005 L 452.00000005 93.00000005 A 0 0 0 0 1 452.00000005 93.00000005 L 438.00000005 93.00000005 A 0 0 0 0 1 438.00000005 93.00000005 L 438.00000005 73.00000005 A 3 3 0 0 1 441.00000005 70.00000005 Z" stroke="#ffffff" stroke-width="1e-7" opacity="1" filter="none" class="highcharts-point"></path><path fill="#B00000" d="M 470.00000005 19.00000005 L 478.00000005 19.00000005 A 3 3 0 0 1 481.00000005 22.00000005 L 481.00000005 55.00000005 A 0 0 0 0 1 481.00000005 55.00000005 L 467.00000005 55.00000005 A 0 0 0 0 1 467.00000005 55.00000005 L 467.00000005 22.00000005 A 3 3 0 0 1 470.00000005 19.00000005 Z" stroke="#ffffff" stroke-width="1e-7" opacity="1" filter="none" class="highcharts-point"></path></g><g class="highcharts-markers highcharts-series-4 highcharts-column-series" data-z-index="0.1" opacity="1" transform="translate(57,135) scale(1 1)" clip-path="none"></g><g class="highcharts-series highcharts-series-5 highcharts-line-series" data-z-index="0.1" opacity="1" transform="translate(57,135) scale(1 1)" clip-path="url(#highcharts-fnmfr7c-374-)"><path fill="none" d="M 14.352941176471 178.284 L 43.058823529412 178.284 L 71.764705882353 176.61333333333 L 100.47058823529 171.36266666667 L 129.17647058824 169.45333333333 L 157.88235294118 167.30533333333 L 186.58823529412 164.68 L 215.29411764706 161.816 L 244 156.088 L 272.70588235294 152.98533333333 L 301.41176470588 148.68933333333 L 330.11764705882 141.052 L 358.82352941176 135.08533333333 L 387.52941176471 127.448 L 416.23529411765 110.50266666667 L 444.94117647059 77.328 L 473.64705882353 30.072" class="highcharts-graph" data-z-index="1" stroke="#246370" stroke-width="2" stroke-linejoin="round" stroke-linecap="round" filter="none"></path><path fill="none" d="M 14.352941176471 178.284 L 43.058823529412 178.284 L 71.764705882353 176.61333333333 L 100.47058823529 171.36266666667 L 129.17647058824 169.45333333333 L 157.88235294118 167.30533333333 L 186.58823529412 164.68 L 215.29411764706 161.816 L 244 156.088 L 272.70588235294 152.98533333333 L 301.41176470588 148.68933333333 L 330.11764705882 141.052 L 358.82352941176 135.08533333333 L 387.52941176471 127.448 L 416.23529411765 110.50266666667 L 444.94117647059 77.328 L 473.64705882353 30.072" data-z-index="2" class="highcharts-tracker-line" stroke-linecap="round" stroke-linejoin="round" stroke="rgba(192,192,192,0.0001)" stroke-width="22"></path></g><g class="highcharts-markers highcharts-series-5 highcharts-line-series highcharts-tracker" data-z-index="0.1" opacity="1" transform="translate(57,135) scale(1 1)" clip-path="none"></g></g><text x="10" text-anchor="start" class="highcharts-caption" data-z-index="4" style="font-size: 0.8em; fill: rgb(102, 102, 102);" text-align="left" y="372" transform-origin="10 15" transform="translate(0,0) scale(1 1)"></text><g class="highcharts-axis-labels highcharts-xaxis-labels" data-z-index="7"><text x="74.1813683012166" text-anchor="end" transform="translate(0,0) rotate(-45 74.1813683012166 337)" style="cursor: default; font-size: 0.8em; fill: rgb(0, 0, 0);" y="337" opacity="1">2005</text><text x="102.8872506541556" text-anchor="end" transform="translate(0,0) rotate(-45 102.8872506541556 337)" style="cursor: default; font-size: 0.8em; fill: rgb(0, 0, 0);" y="337" opacity="1">2006</text><text x="131.59313300709562" text-anchor="end" transform="translate(0,0) rotate(-45 131.59313300709562 337)" style="cursor: default; font-size: 0.8em; fill: rgb(0, 0, 0);" y="337" opacity="1">2007</text><text x="160.2990153600356" text-anchor="end" transform="translate(0,0) rotate(-45 160.2990153600356 337)" style="cursor: default; font-size: 0.8em; fill: rgb(0, 0, 0);" y="337" opacity="1">2008</text><text x="189.0048977129856" text-anchor="end" transform="translate(0,0) rotate(-45 189.0048977129856 337)" style="cursor: default; font-size: 0.8em; fill: rgb(0, 0, 0);" y="337" opacity="1">2009</text><text x="217.7107800659256" text-anchor="end" transform="translate(0,0) rotate(-45 217.7107800659256 337)" style="cursor: default; font-size: 0.8em; fill: rgb(0, 0, 0);" y="337" opacity="1">2010</text><text x="246.41666241886563" text-anchor="end" transform="translate(0,0) rotate(-45 246.41666241886563 337)" style="cursor: default; font-size: 0.8em; fill: rgb(0, 0, 0);" y="337" opacity="1">2011</text><text x="275.1225447718056" text-anchor="end" transform="translate(0,0) rotate(-45 275.1225447718056 337)" style="cursor: default; font-size: 0.8em; fill: rgb(0, 0, 0);" y="337" opacity="1">2012</text><text x="303.8284271247456" text-anchor="end" transform="translate(0,0) rotate(-45 303.8284271247456 337)" style="cursor: default; font-size: 0.8em; fill: rgb(0, 0, 0);" y="337" opacity="1">2013</text><text x="332.5343094776856" text-anchor="end" transform="translate(0,0) rotate(-45 332.5343094776856 337)" style="cursor: default; font-size: 0.8em; fill: rgb(0, 0, 0);" y="337" opacity="1">2014</text><text x="361.2401918306256" text-anchor="end" transform="translate(0,0) rotate(-45 361.2401918306256 337)" style="cursor: default; font-size: 0.8em; fill: rgb(0, 0, 0);" y="337" opacity="1">2015</text><text x="389.9460741835656" text-anchor="end" transform="translate(0,0) rotate(-45 389.9460741835656 337)" style="cursor: default; font-size: 0.8em; fill: rgb(0, 0, 0);" y="337" opacity="1">2016</text><text x="418.6519565365156" text-anchor="end" transform="translate(0,0) rotate(-45 418.6519565365156 337)" style="cursor: default; font-size: 0.8em; fill: rgb(0, 0, 0);" y="337" opacity="1">2017</text><text x="447.3578388894556" text-anchor="end" transform="translate(0,0) rotate(-45 447.3578388894556 337)" style="cursor: default; font-size: 0.8em; fill: rgb(0, 0, 0);" y="337" opacity="1">2018</text><text x="476.0637212423956" text-anchor="end" transform="translate(0,0) rotate(-45 476.0637212423956 337)" style="cursor: default; font-size: 0.8em; fill: rgb(0, 0, 0);" y="337" opacity="1">2019</text><text x="504.76960359533564" text-anchor="end" transform="translate(0,0) rotate(-45 504.76960359533564 337)" style="cursor: default; font-size: 0.8em; fill: rgb(0, 0, 0);" y="337" opacity="1">2020</text><text x="533.4754859482756" text-anchor="end" transform="translate(0,0) rotate(-45 533.4754859482756 337)" style="cursor: default; font-size: 0.8em; fill: rgb(0, 0, 0);" y="337" opacity="1">2021</text></g><g class="highcharts-axis-labels highcharts-yaxis-labels" data-z-index="7"><text x="42" text-anchor="end" transform="translate(0,0)" style="cursor: default; font-size: 0.8em; fill: rgb(0, 0, 0);" y="319" opacity="1">0</text><text x="42" text-anchor="end" transform="translate(0,0)" style="cursor: default; font-size: 0.8em; fill: rgb(0, 0, 0);" y="259" opacity="1">1,500</text><text x="42" text-anchor="end" transform="translate(0,0)" style="cursor: default; font-size: 0.8em; fill: rgb(0, 0, 0);" y="199" opacity="1">3,000</text><text x="42" text-anchor="end" transform="translate(0,0)" style="cursor: default; font-size: 0.8em; fill: rgb(0, 0, 0);" y="140" opacity="1">4,500</text></g><g class="highcharts-axis-labels highcharts-yaxis-labels" data-z-index="7"><text x="560" text-anchor="start" transform="translate(0,0)" style="cursor: default; font-size: 0.8em; fill: rgb(0, 0, 0);" y="319" opacity="1">0%</text><text x="560" text-anchor="start" transform="translate(0,0)" style="cursor: default; font-size: 0.8em; fill: rgb(0, 0, 0);" y="259" opacity="1">2.5%</text><text x="560" text-anchor="start" transform="translate(0,0)" style="cursor: default; font-size: 0.8em; fill: rgb(0, 0, 0);" y="199" opacity="1">5%</text><text x="560" text-anchor="start" transform="translate(0,0)" style="cursor: default; font-size: 0.8em; fill: rgb(0, 0, 0);" y="140" opacity="1">7.5%</text></g><g class="highcharts-legend highcharts-no-tooltip" data-z-index="7" text-align="left" transform="translate(49,55)"><rect fill="none" class="highcharts-legend-box" rx="0" ry="0" stroke="#999999" stroke-width="0" filter="none" x="0" y="0" width="371" height="68"></rect><g data-z-index="1"><g><g class="highcharts-legend-item highcharts-column-series highcharts-color-undefined highcharts-series-0" data-z-index="1" transform="translate(8,3)"><text x="21" text-anchor="start" data-z-index="2" style="cursor: pointer; font-size: 0.8em; text-decoration: none; font-weight: normal; fill: rgb(51, 51, 51);" y="17">Benzin-el.: Normal-Hybrid</text><rect x="2" y="6" rx="0" ry="0" width="12" height="12" fill="#FF8028" class="highcharts-point" data-z-index="3"></rect></g><g class="highcharts-legend-item highcharts-column-series highcharts-color-undefined highcharts-series-1" data-z-index="1" transform="translate(195.53125,3)"><text x="21" y="17" text-anchor="start" data-z-index="2" style="cursor: pointer; font-size: 0.8em; text-decoration: none; font-weight: normal; fill: rgb(51, 51, 51);">Benzin-el.: Plug-in-Hybrid</text><rect x="2" y="6" rx="0" ry="0" width="12" height="12" fill="#A8C3CA" class="highcharts-point" data-z-index="3"></rect></g><g class="highcharts-legend-item highcharts-column-series highcharts-color-undefined highcharts-series-2" data-z-index="1" transform="translate(8,22)"><text x="21" y="17" text-anchor="start" data-z-index="2" style="cursor: pointer; font-size: 0.8em; text-decoration: none; font-weight: normal; fill: rgb(51, 51, 51);">Diesel-el.: Normal-Hybrid</text><rect x="2" y="6" rx="0" ry="0" width="12" height="12" fill="#DC440E" class="highcharts-point" data-z-index="3"></rect></g><g class="highcharts-legend-item highcharts-column-series highcharts-color-undefined highcharts-series-3" data-z-index="1" transform="translate(195.53125,22)"><text x="21" y="17" text-anchor="start" data-z-index="2" style="cursor: pointer; font-size: 0.8em; text-decoration: none; font-weight: normal; fill: rgb(51, 51, 51);">Diesel-el.: Plug-in-Hybrid</text><rect x="2" y="6" rx="0" ry="0" width="12" height="12" fill="#689199" class="highcharts-point" data-z-index="3"></rect></g><g class="highcharts-legend-item highcharts-column-series highcharts-color-undefined highcharts-series-4" data-z-index="1" transform="translate(8,41)"><text x="21" y="17" text-anchor="start" data-z-index="2" style="cursor: pointer; font-size: 0.8em; text-decoration: none; font-weight: normal; fill: rgb(51, 51, 51);">Elektrisch</text><rect x="2" y="6" rx="0" ry="0" width="12" height="12" fill="#B00000" class="highcharts-point" data-z-index="3"></rect></g><g class="highcharts-legend-item highcharts-line-series highcharts-color-undefined highcharts-series-5" data-z-index="1" transform="translate(195.53125,41)"><path fill="none" class="highcharts-graph" stroke-width="2" stroke-linecap="round" d="M 1 13 L 15 13" stroke="#246370"></path><text x="21" y="17" text-anchor="start" data-z-index="2" style="cursor: pointer; font-size: 0.8em; text-decoration: none; font-weight: normal; fill: rgb(51, 51, 51);">Anteil (rechte Skala)</text></g></g></g></g></svg>