<?xml version="1.0" standalone="no"?><!DOCTYPE svg PUBLIC "-//W3C//DTD SVG 1.1//EN" "http://www.w3.org/Graphics/SVG/1.1/DTD/svg11.dtd"><svg xmlns:xlink="http://www.w3.org/1999/xlink" version="1.1" class="highcharts-root" style="font-family:Arial;font-size:12px;" xmlns="http://www.w3.org/2000/svg" viewBox="0 0 485 415"><desc>Created with Highcharts 8.2.0</desc><defs><clipPath id="highcharts-b0ci56k-59-"><rect x="0" y="0" width="444" height="244" fill="none"></rect></clipPath><clipPath id="highcharts-b0ci56k-86-"><rect x="0" y="0" width="444" height="244" fill="none"></rect></clipPath><clipPath id="highcharts-b0ci56k-113-"><rect x="31" y="94" width="444" height="244" fill="none"></rect></clipPath></defs><rect fill="#fbfbfb" class="highcharts-background" x="0" y="0" width="485" height="428" rx="0" ry="0"></rect><rect fill="none" class="highcharts-plot-background" x="31" y="94" width="444" height="244"></rect><g class="highcharts-pane-group" data-z-index="0"></g><g class="highcharts-grid highcharts-xaxis-grid" data-z-index="1"><path fill="none" data-z-index="1" class="highcharts-grid-line" d="M 43.5 94 L 43.5 338" opacity="1"></path><path fill="none" data-z-index="1" class="highcharts-grid-line" d="M 59.5 94 L 59.5 338" opacity="1"></path><path fill="none" data-z-index="1" class="highcharts-grid-line" d="M 76.5 94 L 76.5 338" opacity="1"></path><path fill="none" data-z-index="1" class="highcharts-grid-line" d="M 93.5 94 L 93.5 338" opacity="1"></path><path fill="none" data-z-index="1" class="highcharts-grid-line" d="M 110.5 94 L 110.5 338" opacity="1"></path><path fill="none" data-z-index="1" class="highcharts-grid-line" d="M 126.5 94 L 126.5 338" opacity="1"></path><path fill="none" data-z-index="1" class="highcharts-grid-line" d="M 143.5 94 L 143.5 338" opacity="1"></path><path fill="none" data-z-index="1" class="highcharts-grid-line" d="M 160.5 94 L 160.5 338" opacity="1"></path><path fill="none" data-z-index="1" class="highcharts-grid-line" d="M 177.5 94 L 177.5 338" opacity="1"></path><path fill="none" data-z-index="1" class="highcharts-grid-line" d="M 193.5 94 L 193.5 338" opacity="1"></path><path fill="none" data-z-index="1" class="highcharts-grid-line" d="M 210.5 94 L 210.5 338" opacity="1"></path><path fill="none" data-z-index="1" class="highcharts-grid-line" d="M 227.5 94 L 227.5 338" opacity="1"></path><path fill="none" data-z-index="1" class="highcharts-grid-line" d="M 244.5 94 L 244.5 338" opacity="1"></path><path fill="none" data-z-index="1" class="highcharts-grid-line" d="M 260.5 94 L 260.5 338" opacity="1"></path><path fill="none" data-z-index="1" class="highcharts-grid-line" d="M 277.5 94 L 277.5 338" opacity="1"></path><path fill="none" data-z-index="1" class="highcharts-grid-line" d="M 294.5 94 L 294.5 338" opacity="1"></path><path fill="none" data-z-index="1" class="highcharts-grid-line" d="M 311.5 94 L 311.5 338" opacity="1"></path><path fill="none" data-z-index="1" class="highcharts-grid-line" d="M 327.5 94 L 327.5 338" opacity="1"></path><path fill="none" data-z-index="1" class="highcharts-grid-line" d="M 344.5 94 L 344.5 338" opacity="1"></path><path fill="none" data-z-index="1" class="highcharts-grid-line" d="M 361.5 94 L 361.5 338" opacity="1"></path><path fill="none" data-z-index="1" class="highcharts-grid-line" d="M 378.5 94 L 378.5 338" opacity="1"></path><path fill="none" data-z-index="1" class="highcharts-grid-line" d="M 394.5 94 L 394.5 338" opacity="1"></path><path fill="none" data-z-index="1" class="highcharts-grid-line" d="M 411.5 94 L 411.5 338" opacity="1"></path><path fill="none" data-z-index="1" class="highcharts-grid-line" d="M 428.5 94 L 428.5 338" opacity="1"></path><path fill="none" data-z-index="1" class="highcharts-grid-line" d="M 445.5 94 L 445.5 338" opacity="1"></path><path fill="none" data-z-index="1" class="highcharts-grid-line" d="M 461.5 94 L 461.5 338" opacity="1"></path></g><g class="highcharts-grid highcharts-yaxis-grid" data-z-index="1"><path fill="none" stroke="#B9CFD7" stroke-width="0.5" data-z-index="1" class="highcharts-grid-line" d="M 31 338.25 L 475 338.25" opacity="1"></path><path fill="none" stroke="#B9CFD7" stroke-width="0.5" data-z-index="1" class="highcharts-grid-line" d="M 31 289.25 L 475 289.25" opacity="1"></path><path fill="none" stroke="#B9CFD7" stroke-width="0.5" data-z-index="1" class="highcharts-grid-line" d="M 31 240.25 L 475 240.25" opacity="1"></path><path fill="none" stroke="#B9CFD7" stroke-width="0.5" data-z-index="1" class="highcharts-grid-line" d="M 31 192.25 L 475 192.25" opacity="1"></path><path fill="none" stroke="#B9CFD7" stroke-width="0.5" data-z-index="1" class="highcharts-grid-line" d="M 31 143.25 L 475 143.25" opacity="1"></path><path fill="none" stroke="#B9CFD7" stroke-width="0.5" data-z-index="1" class="highcharts-grid-line" d="M 31 93.75 L 475 93.75" opacity="1"></path></g><rect fill="none" class="highcharts-plot-border" data-z-index="1" x="31" y="94" width="444" height="244"></rect><g class="highcharts-axis highcharts-xaxis" data-z-index="2"><path fill="none" class="highcharts-axis-line" stroke="#B9CFD7" stroke-width="0.5" data-z-index="7" d="M 31 338.25 L 475 338.25"></path></g><g class="highcharts-axis highcharts-yaxis" data-z-index="2"><path fill="none" class="highcharts-axis-line" data-z-index="7" d="M 31 94 L 31 338"></path></g><g class="highcharts-series-group" data-z-index="3"><g class="highcharts-series highcharts-series-0 highcharts-column-series" data-z-index="0.1" opacity="1" transform="translate(31,94) scale(1 1)" clip-path="url(#highcharts-b0ci56k-86-)"><rect x="8.5" y="33.5" width="9" height="211" fill="#2F656B" stroke="#ffffff" stroke-width="1" opacity="1" class="highcharts-point"></rect><rect x="41.5" y="54.5" width="9" height="190" fill="#2F656B" stroke="#ffffff" stroke-width="1" opacity="1" class="highcharts-point"></rect><rect x="75.5" y="61.5" width="9" height="183" fill="#2F656B" stroke="#ffffff" stroke-width="1" opacity="1" class="highcharts-point"></rect><rect x="108.5" y="74.5" width="9" height="170" fill="#2F656B" stroke="#ffffff" stroke-width="1" opacity="1" class="highcharts-point"></rect><rect x="142.5" y="94.5" width="9" height="150" fill="#2F656B" stroke="#ffffff" stroke-width="1" opacity="1" class="highcharts-point"></rect></g><g class="highcharts-markers highcharts-series-0 highcharts-column-series" data-z-index="0.1" opacity="1" transform="translate(31,94) scale(1 1)" clip-path="none"></g><g class="highcharts-series highcharts-series-1 highcharts-line-series" data-z-index="0.1" opacity="1" transform="translate(31,94) scale(1 1)" clip-path="url(#highcharts-b0ci56k-86-)"><path fill="none" d="M 113.09433962264 74.42000000000002 L 129.84905660377 83.35040000000001 L 146.60377358491 92.2808 L 163.35849056604 101.21119999999999 L 180.11320754717 110.14160000000001 L 196.8679245283 119.072 L 213.62264150943 128.00240000000002 L 230.37735849057 136.93280000000001 L 247.1320754717 145.8632 L 263.88679245283 154.7936 L 280.64150943396 163.724 L 297.39622641509 172.6544 L 314.15094339623 181.5848 L 330.90566037736 190.5152 L 347.66037735849 199.4456 L 364.41509433962 208.376 L 381.16981132075 217.3064 L 397.92452830189 226.23680000000002 L 414.67924528302 235.1672 L 431.43396226415 244" class="highcharts-graph" data-z-index="1" stroke="#999999" stroke-width="2" stroke-dasharray="6,2"></path></g><g class="highcharts-markers highcharts-series-1 highcharts-line-series" data-z-index="0.1" opacity="1" transform="translate(31,94) scale(1 1)" clip-path="none"><path fill="#999999" d="M 431 248 A 4 4 0 1 1 431.00399999933336 247.99999800000018 Z" opacity="1" class="highcharts-point"></path></g></g><text x="10" text-anchor="start" class="highcharts-title" data-z-index="4" style="color:#000000;font-size:14px;font-weight:bold;fill:#000000;" y="21"><tspan>CO2-Emissionen</tspan></text><text x="10" text-anchor="start" class="highcharts-subtitle" data-z-index="4" style="color:#000000;font-size:12px;font-weight:normal;fill:#000000;" y="40"><tspan>in Tonnen pro Kopf, Basel-Stadt</tspan></text><text x="10" text-anchor="start" class="highcharts-caption" data-z-index="4" style="color:#666666;fill:#666666;" y="385"></text><g class="highcharts-data-labels highcharts-series-1 highcharts-line-series" data-z-index="6" opacity="1" transform="translate(31,94) scale(1 1)"><g class="highcharts-label highcharts-data-label highcharts-data-label-color-undefined" data-z-index="1" transform="translate(329,140)"><text x="5" data-z-index="1" y="16" style="color:#000000;font-size:11px;font-weight:bold;fill:#000000;"><tspan>Zielwert 2037: 0.0</tspan></text></g></g><g class="highcharts-legend" data-z-index="7" transform="translate(23,56)"><rect fill="none" class="highcharts-legend-box" rx="0" ry="0" x="0" y="0" width="213" height="26" visibility="visible"></rect><g data-z-index="1"><g><g class="highcharts-legend-item highcharts-column-series highcharts-color-undefined highcharts-series-0" data-z-index="1" transform="translate(8,3)"><text x="21" style="color:#333333;cursor:pointer;font-size:12px;font-weight:normal;fill:#333333;" text-anchor="start" data-z-index="2" y="15"><tspan>Tonnen pro Kopf</tspan></text><rect x="2" y="4" width="12" height="12" fill="#2F656B" class="highcharts-point" data-z-index="3"></rect></g><g class="highcharts-legend-item highcharts-line-series highcharts-color-undefined highcharts-series-1" data-z-index="1" transform="translate(140,3)"><path fill="none" d="M 0 11 L 16 11" class="highcharts-graph" stroke-dasharray="6,2" stroke="#999999" stroke-width="2"></path><text x="21" y="15" style="color:#333333;cursor:pointer;font-size:12px;font-weight:normal;fill:#333333;" text-anchor="start" data-z-index="2"><tspan>Zielpfad</tspan></text></g></g></g></g><g class="highcharts-axis-labels highcharts-xaxis-labels" data-z-index="7"><text x="46.15876260019967" style="color:#000000;cursor:default;font-size:11px;fill:#000000;" text-anchor="end" transform="translate(0,0) rotate(-45 46.15876260019967 354)" y="354" opacity="1">2012</text><text x="62.91347958133167" style="color:#000000;cursor:default;font-size:11px;fill:#000000;" text-anchor="end" transform="translate(0,0) rotate(-45 62.91347958133167 354)" y="354" opacity="1">2013</text><text x="79.66819656246368" style="color:#000000;cursor:default;font-size:11px;fill:#000000;" text-anchor="end" transform="translate(0,0) rotate(-45 79.66819656246368 354)" y="354" opacity="1">2014</text><text x="96.42291354359567" style="color:#000000;cursor:default;font-size:11px;fill:#000000;" text-anchor="end" transform="translate(0,0) rotate(-45 96.42291354359567 354)" y="354" opacity="1">2015</text><text x="113.17763052473067" style="color:#000000;cursor:default;font-size:11px;fill:#000000;" text-anchor="end" transform="translate(0,0) rotate(-45 113.17763052473067 354)" y="354" opacity="1">2016</text><text x="129.9323475058607" style="color:#000000;cursor:default;font-size:11px;fill:#000000;" text-anchor="end" transform="translate(0,0) rotate(-45 129.9323475058607 354)" y="354" opacity="1">2017</text><text x="146.6870644869907" style="color:#000000;cursor:default;font-size:11px;fill:#000000;" text-anchor="end" transform="translate(0,0) rotate(-45 146.6870644869907 354)" y="354" opacity="1">2018</text><text x="163.4417814681207" style="color:#000000;cursor:default;font-size:11px;fill:#000000;" text-anchor="end" transform="translate(0,0) rotate(-45 163.4417814681207 354)" y="354" opacity="1">2019</text><text x="180.19649844926067" style="color:#000000;cursor:default;font-size:11px;fill:#000000;" text-anchor="end" transform="translate(0,0) rotate(-45 180.19649844926067 354)" y="354" opacity="1">2020</text><text x="196.95121543039068" style="color:#000000;cursor:default;font-size:11px;fill:#000000;" text-anchor="end" transform="translate(0,0) rotate(-45 196.95121543039068 354)" y="354" opacity="1">2021</text><text x="213.70593241152068" style="color:#000000;cursor:default;font-size:11px;fill:#000000;" text-anchor="end" transform="translate(0,0) rotate(-45 213.70593241152068 354)" y="354" opacity="1">2022</text><text x="230.46064939265068" style="color:#000000;cursor:default;font-size:11px;fill:#000000;" text-anchor="end" transform="translate(0,0) rotate(-45 230.46064939265068 354)" y="354" opacity="1">2023</text><text x="247.21536637378068" style="color:#000000;cursor:default;font-size:11px;fill:#000000;" text-anchor="end" transform="translate(0,0) rotate(-45 247.21536637378068 354)" y="354" opacity="1">2024</text><text x="263.97008335492063" style="color:#000000;cursor:default;font-size:11px;fill:#000000;" text-anchor="end" transform="translate(0,0) rotate(-45 263.97008335492063 354)" y="354" opacity="1">2025</text><text x="280.72480033605063" style="color:#000000;cursor:default;font-size:11px;fill:#000000;" text-anchor="end" transform="translate(0,0) rotate(-45 280.72480033605063 354)" y="354" opacity="1">2026</text><text x="297.47951731718064" style="color:#000000;cursor:default;font-size:11px;fill:#000000;" text-anchor="end" transform="translate(0,0) rotate(-45 297.47951731718064 354)" y="354" opacity="1">2027</text><text x="314.23423429831064" style="color:#000000;cursor:default;font-size:11px;fill:#000000;" text-anchor="end" transform="translate(0,0) rotate(-45 314.23423429831064 354)" y="354" opacity="1">2028</text><text x="330.98895127944064" style="color:#000000;cursor:default;font-size:11px;fill:#000000;" text-anchor="end" transform="translate(0,0) rotate(-45 330.98895127944064 354)" y="354" opacity="1">2029</text><text x="347.74366826058065" style="color:#000000;cursor:default;font-size:11px;fill:#000000;" text-anchor="end" transform="translate(0,0) rotate(-45 347.74366826058065 354)" y="354" opacity="1">2030</text><text x="364.49838524171065" style="color:#000000;cursor:default;font-size:11px;fill:#000000;" text-anchor="end" transform="translate(0,0) rotate(-45 364.49838524171065 354)" y="354" opacity="1">2031</text><text x="381.25310222284065" style="color:#000000;cursor:default;font-size:11px;fill:#000000;" text-anchor="end" transform="translate(0,0) rotate(-45 381.25310222284065 354)" y="354" opacity="1">2032</text><text x="398.00781920397066" style="color:#000000;cursor:default;font-size:11px;fill:#000000;" text-anchor="end" transform="translate(0,0) rotate(-45 398.00781920397066 354)" y="354" opacity="1">2033</text><text x="414.76253618510066" style="color:#000000;cursor:default;font-size:11px;fill:#000000;" text-anchor="end" transform="translate(0,0) rotate(-45 414.76253618510066 354)" y="354" opacity="1">2034</text><text x="431.51725316624066" style="color:#000000;cursor:default;font-size:11px;fill:#000000;" text-anchor="end" transform="translate(0,0) rotate(-45 431.51725316624066 354)" y="354" opacity="1">2035</text><text x="448.27197014737067" style="color:#000000;cursor:default;font-size:11px;fill:#000000;" text-anchor="end" transform="translate(0,0) rotate(-45 448.27197014737067 354)" y="354" opacity="1">2036</text><text x="465.02668712850067" style="color:#000000;cursor:default;font-size:11px;fill:#000000;" text-anchor="end" transform="translate(0,0) rotate(-45 465.02668712850067 354)" y="354" opacity="1">2037</text></g><g class="highcharts-axis-labels highcharts-yaxis-labels" data-z-index="7"><text x="16" style="color:#000000;cursor:default;font-size:11px;fill:#000000;" text-anchor="end" transform="translate(0,0)" y="342" opacity="1">0</text><text x="16" style="color:#000000;cursor:default;font-size:11px;fill:#000000;" text-anchor="end" transform="translate(0,0)" y="293" opacity="1">1</text><text x="16" style="color:#000000;cursor:default;font-size:11px;fill:#000000;" text-anchor="end" transform="translate(0,0)" y="244" opacity="1">2</text><text x="16" style="color:#000000;cursor:default;font-size:11px;fill:#000000;" text-anchor="end" transform="translate(0,0)" y="196" opacity="1">3</text><text x="16" style="color:#000000;cursor:default;font-size:11px;fill:#000000;" text-anchor="end" transform="translate(0,0)" y="147" opacity="1">4</text><text x="16" style="color:#000000;cursor:default;font-size:11px;fill:#000000;" text-anchor="end" transform="translate(0,0)" y="98" opacity="1">5</text></g><text x="10" class="highcharts-credits" text-anchor="start" data-z-index="8" style="cursor:default;color:#000000;font-size:10px;fill:#000000;" y="403"><tspan>Quelle: Statistisches Amt Basel-Stadt, Energiestatistik.</tspan><tspan x="10" dy="13">Zuletzt geändert: 28.6.2022</tspan></text><g class="highcharts-control-points" data-z-index="99" clip-path="url(#highcharts-b0ci56k-113-)"></g></svg>