<svg version="1.1" class="highcharts-root" style="font-family: Inter, &quot;Helvetica Neue&quot;, Helvetica, Arial, sans-serif; font-size: 1rem;" xmlns="http://www.w3.org/2000/svg" width="600" height="400" viewBox="0 0 600 400" role="img" aria-label="Lebenserwartung"><desc>Created with Highcharts 12.5.0</desc><defs><filter id="highcharts-drop-shadow-0"><feDropShadow dx="1" dy="1" flood-color="#000000" flood-opacity="0.75" stdDeviation="2.5"></feDropShadow></filter><clipPath id="highcharts-751f0h4-221-"><rect x="0" y="0" width="551" height="218" fill="none"></rect></clipPath></defs><rect fill="#ffffff" class="highcharts-background" filter="none" x="0" y="0" width="600" height="400" rx="0" ry="0"></rect><rect fill="none" class="highcharts-plot-background" x="39" y="97" width="551" height="218" filter="none"></rect><g class="highcharts-pane-group" data-z-index="0"></g><g class="highcharts-grid highcharts-xaxis-grid" data-z-index="1"><path fill="none" stroke="#e6e6e6" stroke-width="0" stroke-dasharray="none" data-z-index="1" class="highcharts-grid-line" d="M 54.5 97 L 54.5 315" opacity="1"></path><path fill="none" stroke="#e6e6e6" stroke-width="0" stroke-dasharray="none" data-z-index="1" class="highcharts-grid-line" d="M 96.5 97 L 96.5 315" opacity="1"></path><path fill="none" stroke="#e6e6e6" stroke-width="0" stroke-dasharray="none" data-z-index="1" class="highcharts-grid-line" d="M 137.5 97 L 137.5 315" opacity="1"></path><path fill="none" stroke="#e6e6e6" stroke-width="0" stroke-dasharray="none" data-z-index="1" class="highcharts-grid-line" d="M 179.5 97 L 179.5 315" opacity="1"></path><path fill="none" stroke="#e6e6e6" stroke-width="0" stroke-dasharray="none" data-z-index="1" class="highcharts-grid-line" d="M 220.5 97 L 220.5 315" opacity="1"></path><path fill="none" stroke="#e6e6e6" stroke-width="0" stroke-dasharray="none" data-z-index="1" class="highcharts-grid-line" d="M 262.5 97 L 262.5 315" opacity="1"></path><path fill="none" stroke="#e6e6e6" stroke-width="0" stroke-dasharray="none" data-z-index="1" class="highcharts-grid-line" d="M 304.5 97 L 304.5 315" opacity="1"></path><path fill="none" stroke="#e6e6e6" stroke-width="0" stroke-dasharray="none" data-z-index="1" class="highcharts-grid-line" d="M 345.5 97 L 345.5 315" opacity="1"></path><path fill="none" stroke="#e6e6e6" stroke-width="0" stroke-dasharray="none" data-z-index="1" class="highcharts-grid-line" d="M 387.5 97 L 387.5 315" opacity="1"></path><path fill="none" stroke="#e6e6e6" stroke-width="0" stroke-dasharray="none" data-z-index="1" class="highcharts-grid-line" d="M 428.5 97 L 428.5 315" opacity="1"></path><path fill="none" stroke="#e6e6e6" stroke-width="0" stroke-dasharray="none" data-z-index="1" class="highcharts-grid-line" d="M 470.5 97 L 470.5 315" opacity="1"></path><path fill="none" stroke="#e6e6e6" stroke-width="0" stroke-dasharray="none" data-z-index="1" class="highcharts-grid-line" d="M 512.5 97 L 512.5 315" opacity="1"></path><path fill="none" stroke="#e6e6e6" stroke-width="0" stroke-dasharray="none" data-z-index="1" class="highcharts-grid-line" d="M 553.5 97 L 553.5 315" opacity="1"></path></g><g class="highcharts-grid highcharts-yaxis-grid" data-z-index="1"><path fill="none" stroke="#B9CFD7" stroke-width="0.5" stroke-dasharray="none" data-z-index="1" class="highcharts-grid-line" d="M 39 315.25 L 590 315.25" opacity="1"></path><path fill="none" stroke="#B9CFD7" stroke-width="0.5" stroke-dasharray="none" data-z-index="1" class="highcharts-grid-line" d="M 39 271.25 L 590 271.25" opacity="1"></path><path fill="none" stroke="#B9CFD7" stroke-width="0.5" stroke-dasharray="none" data-z-index="1" class="highcharts-grid-line" d="M 39 228.25 L 590 228.25" opacity="1"></path><path fill="none" stroke="#B9CFD7" stroke-width="0.5" stroke-dasharray="none" data-z-index="1" class="highcharts-grid-line" d="M 39 184.25 L 590 184.25" opacity="1"></path><path fill="none" stroke="#B9CFD7" stroke-width="0.5" stroke-dasharray="none" data-z-index="1" class="highcharts-grid-line" d="M 39 140.25 L 590 140.25" opacity="1"></path><path fill="none" stroke="#B9CFD7" stroke-width="0.5" stroke-dasharray="none" data-z-index="1" class="highcharts-grid-line" d="M 39 97.25 L 590 97.25" opacity="1"></path></g><rect fill="none" class="highcharts-plot-border" data-z-index="1" stroke="#cccccc" stroke-width="0" x="39" y="97" width="551" height="218"></rect><g class="highcharts-axis highcharts-xaxis" data-z-index="2"><path fill="none" class="highcharts-axis-line" stroke="#B9CFD7" stroke-width="0.5" data-z-index="7" d="M 39 315.25 L 590 315.25"></path></g><g class="highcharts-axis highcharts-yaxis" data-z-index="2"><path fill="none" class="highcharts-axis-line" stroke="#B9CFD7" stroke-width="0" data-z-index="7" d="M 39 97 L 39 315"></path></g><g class="highcharts-series-group" data-z-index="3" filter="none"><g class="highcharts-series highcharts-series-1 highcharts-errorbar-series highcharts-tracker" data-z-index="0.1" opacity="1" transform="translate(39,97) scale(1 1)" clip-path="url(#highcharts-751f0h4-221-)"><g class="highcharts-point"><path fill="none" class="highcharts-boxplot-stem" stroke="#44b1f7" stroke-width="1" d="M 15.5 183.12 L 15.5 154.78 M 15.5 183.12 L 15.5 183.12"></path><path fill="none" class="highcharts-boxplot-whisker" stroke="#44b1f7" stroke-width="1" d="M 13 154.5 L 18 154.5 M 13 183.5 L 18 183.5"></path><path fill="none" class="highcharts-boxplot-median" stroke="#44b1f7" stroke-width="2" d="M 0 0"></path></g><g class="highcharts-point"><path fill="none" class="highcharts-boxplot-stem" stroke="#44b1f7" stroke-width="1" d="M 36.5 185.3 L 36.5 156.96 M 36.5 185.3 L 36.5 185.3"></path><path fill="none" class="highcharts-boxplot-whisker" stroke="#44b1f7" stroke-width="1" d="M 34 156.5 L 39 156.5 M 34 185.5 L 39 185.5"></path><path fill="none" class="highcharts-boxplot-median" stroke="#44b1f7" stroke-width="2" d="M 0 0"></path></g><g class="highcharts-point"><path fill="none" class="highcharts-boxplot-stem" stroke="#44b1f7" stroke-width="1" d="M 57.5 165.68 L 57.5 139.52 M 57.5 165.68 L 57.5 165.68"></path><path fill="none" class="highcharts-boxplot-whisker" stroke="#44b1f7" stroke-width="1" d="M 55 139.5 L 60 139.5 M 55 165.5 L 60 165.5"></path><path fill="none" class="highcharts-boxplot-median" stroke="#44b1f7" stroke-width="2" d="M 0 0"></path></g><g class="highcharts-point"><path fill="none" class="highcharts-boxplot-stem" stroke="#44b1f7" stroke-width="1" d="M 77.5 163.5 L 77.5 135.16 M 77.5 163.5 L 77.5 163.5"></path><path fill="none" class="highcharts-boxplot-whisker" stroke="#44b1f7" stroke-width="1" d="M 75 135.5 L 80 135.5 M 75 163.5 L 80 163.5"></path><path fill="none" class="highcharts-boxplot-median" stroke="#44b1f7" stroke-width="2" d="M 0 0"></path></g><g class="highcharts-point"><path fill="none" class="highcharts-boxplot-stem" stroke="#44b1f7" stroke-width="1" d="M 98.5 150.42 L 98.5 126.44 M 98.5 150.42 L 98.5 150.42"></path><path fill="none" class="highcharts-boxplot-whisker" stroke="#44b1f7" stroke-width="1" d="M 96 126.5 L 101 126.5 M 96 150.5 L 101 150.5"></path><path fill="none" class="highcharts-boxplot-median" stroke="#44b1f7" stroke-width="2" d="M 0 0"></path></g><g class="highcharts-point"><path fill="none" class="highcharts-boxplot-stem" stroke="#44b1f7" stroke-width="1" d="M 119.5 165.68 L 119.5 137.34 M 119.5 165.68 L 119.5 165.68"></path><path fill="none" class="highcharts-boxplot-whisker" stroke="#44b1f7" stroke-width="1" d="M 117 137.5 L 122 137.5 M 117 165.5 L 122 165.5"></path><path fill="none" class="highcharts-boxplot-median" stroke="#44b1f7" stroke-width="2" d="M 0 0"></path></g><g class="highcharts-point"><path fill="none" class="highcharts-boxplot-stem" stroke="#44b1f7" stroke-width="1" d="M 140.5 137.34 L 140.5 109 M 140.5 137.34 L 140.5 137.34"></path><path fill="none" class="highcharts-boxplot-whisker" stroke="#44b1f7" stroke-width="1" d="M 138 109.5 L 143 109.5 M 138 137.5 L 143 137.5"></path><path fill="none" class="highcharts-boxplot-median" stroke="#44b1f7" stroke-width="2" d="M 0 0"></path></g><g class="highcharts-point"><path fill="none" class="highcharts-boxplot-stem" stroke="#44b1f7" stroke-width="1" d="M 161.5 137.34 L 161.5 111.18 M 161.5 137.34 L 161.5 137.34"></path><path fill="none" class="highcharts-boxplot-whisker" stroke="#44b1f7" stroke-width="1" d="M 159 111.5 L 164 111.5 M 159 137.5 L 164 137.5"></path><path fill="none" class="highcharts-boxplot-median" stroke="#44b1f7" stroke-width="2" d="M 0 0"></path></g><g class="highcharts-point"><path fill="none" class="highcharts-boxplot-stem" stroke="#44b1f7" stroke-width="1" d="M 181.5 122.08 L 181.5 98.1 M 181.5 122.08 L 181.5 122.08"></path><path fill="none" class="highcharts-boxplot-whisker" stroke="#44b1f7" stroke-width="1" d="M 179 98.5 L 184 98.5 M 179 122.5 L 184 122.5"></path><path fill="none" class="highcharts-boxplot-median" stroke="#44b1f7" stroke-width="2" d="M 0 0"></path></g><g class="highcharts-point"><path fill="none" class="highcharts-boxplot-stem" stroke="#44b1f7" stroke-width="1" d="M 202.5 115.54 L 202.5 89.38 M 202.5 115.54 L 202.5 115.54"></path><path fill="none" class="highcharts-boxplot-whisker" stroke="#44b1f7" stroke-width="1" d="M 200 89.5 L 205 89.5 M 200 115.5 L 205 115.5"></path><path fill="none" class="highcharts-boxplot-median" stroke="#44b1f7" stroke-width="2" d="M 0 0"></path></g><g class="highcharts-point"><path fill="none" class="highcharts-boxplot-stem" stroke="#44b1f7" stroke-width="1" d="M 223.5 128.62 L 223.5 100.28 M 223.5 128.62 L 223.5 128.62"></path><path fill="none" class="highcharts-boxplot-whisker" stroke="#44b1f7" stroke-width="1" d="M 221 100.5 L 226 100.5 M 221 128.5 L 226 128.5"></path><path fill="none" class="highcharts-boxplot-median" stroke="#44b1f7" stroke-width="2" d="M 0 0"></path></g><g class="highcharts-point"><path fill="none" class="highcharts-boxplot-stem" stroke="#44b1f7" stroke-width="1" d="M 244.5 119.9 L 244.5 93.74 M 244.5 119.9 L 244.5 119.9"></path><path fill="none" class="highcharts-boxplot-whisker" stroke="#44b1f7" stroke-width="1" d="M 242 93.5 L 247 93.5 M 242 119.5 L 247 119.5"></path><path fill="none" class="highcharts-boxplot-median" stroke="#44b1f7" stroke-width="2" d="M 0 0"></path></g><g class="highcharts-point"><path fill="none" class="highcharts-boxplot-stem" stroke="#44b1f7" stroke-width="1" d="M 265.5 115.54 L 265.5 89.38 M 265.5 115.54 L 265.5 115.54"></path><path fill="none" class="highcharts-boxplot-whisker" stroke="#44b1f7" stroke-width="1" d="M 263 89.5 L 268 89.5 M 263 115.5 L 268 115.5"></path><path fill="none" class="highcharts-boxplot-median" stroke="#44b1f7" stroke-width="2" d="M 0 0"></path></g><g class="highcharts-point"><path fill="none" class="highcharts-boxplot-stem" stroke="#44b1f7" stroke-width="1" d="M 285.5 113.36 L 285.5 85.02 M 285.5 113.36 L 285.5 113.36"></path><path fill="none" class="highcharts-boxplot-whisker" stroke="#44b1f7" stroke-width="1" d="M 283 85.5 L 288 85.5 M 283 113.5 L 288 113.5"></path><path fill="none" class="highcharts-boxplot-median" stroke="#44b1f7" stroke-width="2" d="M 0 0"></path></g><g class="highcharts-point"><path fill="none" class="highcharts-boxplot-stem" stroke="#44b1f7" stroke-width="1" d="M 306.5 109 L 306.5 82.84 M 306.5 109 L 306.5 109"></path><path fill="none" class="highcharts-boxplot-whisker" stroke="#44b1f7" stroke-width="1" d="M 304 82.5 L 309 82.5 M 304 109.5 L 309 109.5"></path><path fill="none" class="highcharts-boxplot-median" stroke="#44b1f7" stroke-width="2" d="M 0 0"></path></g><g class="highcharts-point"><path fill="none" class="highcharts-boxplot-stem" stroke="#44b1f7" stroke-width="1" d="M 327.5 104.64 L 327.5 78.48 M 327.5 104.64 L 327.5 104.64"></path><path fill="none" class="highcharts-boxplot-whisker" stroke="#44b1f7" stroke-width="1" d="M 325 78.5 L 330 78.5 M 325 104.5 L 330 104.5"></path><path fill="none" class="highcharts-boxplot-median" stroke="#44b1f7" stroke-width="2" d="M 0 0"></path></g><g class="highcharts-point"><path fill="none" class="highcharts-boxplot-stem" stroke="#44b1f7" stroke-width="1" d="M 348.5 109 L 348.5 85.02 M 348.5 109 L 348.5 109"></path><path fill="none" class="highcharts-boxplot-whisker" stroke="#44b1f7" stroke-width="1" d="M 346 85.5 L 351 85.5 M 346 109.5 L 351 109.5"></path><path fill="none" class="highcharts-boxplot-median" stroke="#44b1f7" stroke-width="2" d="M 0 0"></path></g><g class="highcharts-point"><path fill="none" class="highcharts-boxplot-stem" stroke="#44b1f7" stroke-width="1" d="M 369.5 95.92 L 369.5 74.12 M 369.5 95.92 L 369.5 95.92"></path><path fill="none" class="highcharts-boxplot-whisker" stroke="#44b1f7" stroke-width="1" d="M 367 74.5 L 372 74.5 M 367 95.5 L 372 95.5"></path><path fill="none" class="highcharts-boxplot-median" stroke="#44b1f7" stroke-width="2" d="M 0 0"></path></g><g class="highcharts-point"><path fill="none" class="highcharts-boxplot-stem" stroke="#44b1f7" stroke-width="1" d="M 389.5 80.66 L 389.5 56.68 M 389.5 80.66 L 389.5 80.66"></path><path fill="none" class="highcharts-boxplot-whisker" stroke="#44b1f7" stroke-width="1" d="M 387 56.5 L 392 56.5 M 387 80.5 L 392 80.5"></path><path fill="none" class="highcharts-boxplot-median" stroke="#44b1f7" stroke-width="2" d="M 0 0"></path></g><g class="highcharts-point"><path fill="none" class="highcharts-boxplot-stem" stroke="#44b1f7" stroke-width="1" d="M 410.5 87.2 L 410.5 65.4 M 410.5 87.2 L 410.5 87.2"></path><path fill="none" class="highcharts-boxplot-whisker" stroke="#44b1f7" stroke-width="1" d="M 408 65.5 L 413 65.5 M 408 87.5 L 413 87.5"></path><path fill="none" class="highcharts-boxplot-median" stroke="#44b1f7" stroke-width="2" d="M 0 0"></path></g><g class="highcharts-point"><path fill="none" class="highcharts-boxplot-stem" stroke="#44b1f7" stroke-width="1" d="M 431.5 80.66 L 431.5 58.86 M 431.5 80.66 L 431.5 80.66"></path><path fill="none" class="highcharts-boxplot-whisker" stroke="#44b1f7" stroke-width="1" d="M 429 58.5 L 434 58.5 M 429 80.5 L 434 80.5"></path><path fill="none" class="highcharts-boxplot-median" stroke="#44b1f7" stroke-width="2" d="M 0 0"></path></g><g class="highcharts-point"><path fill="none" class="highcharts-boxplot-stem" stroke="#44b1f7" stroke-width="1" d="M 452.5 85.02 L 452.5 58.86 M 452.5 85.02 L 452.5 85.02"></path><path fill="none" class="highcharts-boxplot-whisker" stroke="#44b1f7" stroke-width="1" d="M 450 58.5 L 455 58.5 M 450 85.5 L 455 85.5"></path><path fill="none" class="highcharts-boxplot-median" stroke="#44b1f7" stroke-width="2" d="M 0 0"></path></g><g class="highcharts-point"><path fill="none" class="highcharts-boxplot-stem" stroke="#44b1f7" stroke-width="1" d="M 473.5 87.2 L 473.5 63.22 M 473.5 87.2 L 473.5 87.2"></path><path fill="none" class="highcharts-boxplot-whisker" stroke="#44b1f7" stroke-width="1" d="M 471 63.5 L 476 63.5 M 471 87.5 L 476 87.5"></path><path fill="none" class="highcharts-boxplot-median" stroke="#44b1f7" stroke-width="2" d="M 0 0"></path></g><g class="highcharts-point"><path fill="none" class="highcharts-boxplot-stem" stroke="#44b1f7" stroke-width="1" d="M 493.5 71.94 L 493.5 47.96 M 493.5 71.94 L 493.5 71.94"></path><path fill="none" class="highcharts-boxplot-whisker" stroke="#44b1f7" stroke-width="1" d="M 491 47.5 L 496 47.5 M 491 71.5 L 496 71.5"></path><path fill="none" class="highcharts-boxplot-median" stroke="#44b1f7" stroke-width="2" d="M 0 0"></path></g><g class="highcharts-point"><path fill="none" class="highcharts-boxplot-stem" stroke="#44b1f7" stroke-width="1" d="M 514.5 93.74 L 514.5 67.58 M 514.5 93.74 L 514.5 93.74"></path><path fill="none" class="highcharts-boxplot-whisker" stroke="#44b1f7" stroke-width="1" d="M 512 67.5 L 517 67.5 M 512 93.5 L 517 93.5"></path><path fill="none" class="highcharts-boxplot-median" stroke="#44b1f7" stroke-width="2" d="M 0 0"></path></g><g class="highcharts-point"><path fill="none" class="highcharts-boxplot-stem" stroke="#44b1f7" stroke-width="1" d="M 535.5 74.12 L 535.5 50.14 M 535.5 74.12 L 535.5 74.12"></path><path fill="none" class="highcharts-boxplot-whisker" stroke="#44b1f7" stroke-width="1" d="M 533 50.5 L 538 50.5 M 533 74.5 L 538 74.5"></path><path fill="none" class="highcharts-boxplot-median" stroke="#44b1f7" stroke-width="2" d="M 0 0"></path></g></g><g class="highcharts-markers highcharts-series-1 highcharts-errorbar-series" data-z-index="0.1" opacity="1" transform="translate(39,97) scale(1 1)" clip-path="none"></g><g class="highcharts-series highcharts-series-2 highcharts-line-series" data-z-index="0.1" opacity="1" transform="translate(39,97) scale(1 1)" clip-path="url(#highcharts-751f0h4-221-)"><path fill="none" d="M 15.594339622642 143.88 L 36.38679245283 137.34 L 57.179245283019 135.16 L 77.971698113208 124.26 L 98.764150943396 119.9 L 119.55660377358 117.72 L 140.34905660377 106.82 L 161.14150943396 102.46 L 181.93396226415 95.92 L 202.72641509434 91.56 L 223.51886792453 85.02 L 244.31132075472 85.02 L 265.10377358491 80.66 L 285.89622641509 76.3 L 306.68867924528 74.12 L 327.48113207547 74.12 L 348.27358490566 65.4 L 369.06603773585 69.76 L 389.85849056604 56.68 L 410.65094339623 56.68 L 431.44339622642 54.5 L 452.2358490566 50.14 L 473.02830188679 65.4 L 493.82075471698 52.32 L 514.61320754717 56.68 L 535.40566037736 43.6" class="highcharts-graph" data-z-index="1" stroke="#999999" stroke-width="2" stroke-linejoin="round" stroke-linecap="round" filter="none"></path><path fill="none" d="M 15.594339622642 143.88 L 36.38679245283 137.34 L 57.179245283019 135.16 L 77.971698113208 124.26 L 98.764150943396 119.9 L 119.55660377358 117.72 L 140.34905660377 106.82 L 161.14150943396 102.46 L 181.93396226415 95.92 L 202.72641509434 91.56 L 223.51886792453 85.02 L 244.31132075472 85.02 L 265.10377358491 80.66 L 285.89622641509 76.3 L 306.68867924528 74.12 L 327.48113207547 74.12 L 348.27358490566 65.4 L 369.06603773585 69.76 L 389.85849056604 56.68 L 410.65094339623 56.68 L 431.44339622642 54.5 L 452.2358490566 50.14 L 473.02830188679 65.4 L 493.82075471698 52.32 L 514.61320754717 56.68 L 535.40566037736 43.6" data-z-index="2" class="highcharts-tracker-line" stroke-linecap="round" stroke-linejoin="round" stroke="rgba(192,192,192,0.0001)" stroke-width="22"></path></g><g class="highcharts-markers highcharts-series-2 highcharts-line-series highcharts-tracker" data-z-index="0.1" opacity="1" transform="translate(39,97) scale(1 1)" clip-path="none"></g><g class="highcharts-series highcharts-series-3 highcharts-errorbar-series highcharts-tracker" data-z-index="0.1" opacity="1" transform="translate(39,97) scale(1 1)" clip-path="url(#highcharts-751f0h4-221-)"><g class="highcharts-point"><path fill="none" class="highcharts-boxplot-stem" stroke="#aaaaaa" stroke-width="1" d="M 15.5 146.06 L 15.5 141.7 M 15.5 146.06 L 15.5 146.06"></path><path fill="none" class="highcharts-boxplot-whisker" stroke="#aaaaaa" stroke-width="1" d="M 13 141.5 L 18 141.5 M 13 146.5 L 18 146.5"></path><path fill="none" class="highcharts-boxplot-median" stroke="#aaaaaa" stroke-width="2" d="M 0 0"></path></g><g class="highcharts-point"><path fill="none" class="highcharts-boxplot-stem" stroke="#aaaaaa" stroke-width="1" d="M 36.5 139.52 L 36.5 135.16 M 36.5 139.52 L 36.5 139.52"></path><path fill="none" class="highcharts-boxplot-whisker" stroke="#aaaaaa" stroke-width="1" d="M 34 135.5 L 39 135.5 M 34 139.5 L 39 139.5"></path><path fill="none" class="highcharts-boxplot-median" stroke="#aaaaaa" stroke-width="2" d="M 0 0"></path></g><g class="highcharts-point"><path fill="none" class="highcharts-boxplot-stem" stroke="#aaaaaa" stroke-width="1" d="M 57.5 137.34 L 57.5 132.98 M 57.5 137.34 L 57.5 137.34"></path><path fill="none" class="highcharts-boxplot-whisker" stroke="#aaaaaa" stroke-width="1" d="M 55 132.5 L 60 132.5 M 55 137.5 L 60 137.5"></path><path fill="none" class="highcharts-boxplot-median" stroke="#aaaaaa" stroke-width="2" d="M 0 0"></path></g><g class="highcharts-point"><path fill="none" class="highcharts-boxplot-stem" stroke="#aaaaaa" stroke-width="1" d="M 77.5 126.44 L 77.5 122.08 M 77.5 126.44 L 77.5 126.44"></path><path fill="none" class="highcharts-boxplot-whisker" stroke="#aaaaaa" stroke-width="1" d="M 75 122.5 L 80 122.5 M 75 126.5 L 80 126.5"></path><path fill="none" class="highcharts-boxplot-median" stroke="#aaaaaa" stroke-width="2" d="M 0 0"></path></g><g class="highcharts-point"><path fill="none" class="highcharts-boxplot-stem" stroke="#aaaaaa" stroke-width="1" d="M 98.5 122.08 L 98.5 117.72 M 98.5 122.08 L 98.5 122.08"></path><path fill="none" class="highcharts-boxplot-whisker" stroke="#aaaaaa" stroke-width="1" d="M 96 117.5 L 101 117.5 M 96 122.5 L 101 122.5"></path><path fill="none" class="highcharts-boxplot-median" stroke="#aaaaaa" stroke-width="2" d="M 0 0"></path></g><g class="highcharts-point"><path fill="none" class="highcharts-boxplot-stem" stroke="#aaaaaa" stroke-width="1" d="M 119.5 119.9 L 119.5 115.54 M 119.5 119.9 L 119.5 119.9"></path><path fill="none" class="highcharts-boxplot-whisker" stroke="#aaaaaa" stroke-width="1" d="M 117 115.5 L 122 115.5 M 117 119.5 L 122 119.5"></path><path fill="none" class="highcharts-boxplot-median" stroke="#aaaaaa" stroke-width="2" d="M 0 0"></path></g><g class="highcharts-point"><path fill="none" class="highcharts-boxplot-stem" stroke="#aaaaaa" stroke-width="1" d="M 140.5 109 L 140.5 104.64 M 140.5 109 L 140.5 109"></path><path fill="none" class="highcharts-boxplot-whisker" stroke="#aaaaaa" stroke-width="1" d="M 138 104.5 L 143 104.5 M 138 109.5 L 143 109.5"></path><path fill="none" class="highcharts-boxplot-median" stroke="#aaaaaa" stroke-width="2" d="M 0 0"></path></g><g class="highcharts-point"><path fill="none" class="highcharts-boxplot-stem" stroke="#aaaaaa" stroke-width="1" d="M 161.5 104.64 L 161.5 100.28 M 161.5 104.64 L 161.5 104.64"></path><path fill="none" class="highcharts-boxplot-whisker" stroke="#aaaaaa" stroke-width="1" d="M 159 100.5 L 164 100.5 M 159 104.5 L 164 104.5"></path><path fill="none" class="highcharts-boxplot-median" stroke="#aaaaaa" stroke-width="2" d="M 0 0"></path></g><g class="highcharts-point"><path fill="none" class="highcharts-boxplot-stem" stroke="#aaaaaa" stroke-width="1" d="M 181.5 98.1 L 181.5 93.74 M 181.5 98.1 L 181.5 98.1"></path><path fill="none" class="highcharts-boxplot-whisker" stroke="#aaaaaa" stroke-width="1" d="M 179 93.5 L 184 93.5 M 179 98.5 L 184 98.5"></path><path fill="none" class="highcharts-boxplot-median" stroke="#aaaaaa" stroke-width="2" d="M 0 0"></path></g><g class="highcharts-point"><path fill="none" class="highcharts-boxplot-stem" stroke="#aaaaaa" stroke-width="1" d="M 202.5 93.74 L 202.5 89.38 M 202.5 93.74 L 202.5 93.74"></path><path fill="none" class="highcharts-boxplot-whisker" stroke="#aaaaaa" stroke-width="1" d="M 200 89.5 L 205 89.5 M 200 93.5 L 205 93.5"></path><path fill="none" class="highcharts-boxplot-median" stroke="#aaaaaa" stroke-width="2" d="M 0 0"></path></g><g class="highcharts-point"><path fill="none" class="highcharts-boxplot-stem" stroke="#aaaaaa" stroke-width="1" d="M 223.5 87.2 L 223.5 82.84 M 223.5 87.2 L 223.5 87.2"></path><path fill="none" class="highcharts-boxplot-whisker" stroke="#aaaaaa" stroke-width="1" d="M 221 82.5 L 226 82.5 M 221 87.5 L 226 87.5"></path><path fill="none" class="highcharts-boxplot-median" stroke="#aaaaaa" stroke-width="2" d="M 0 0"></path></g><g class="highcharts-point"><path fill="none" class="highcharts-boxplot-stem" stroke="#aaaaaa" stroke-width="1" d="M 244.5 87.2 L 244.5 82.84 M 244.5 87.2 L 244.5 87.2"></path><path fill="none" class="highcharts-boxplot-whisker" stroke="#aaaaaa" stroke-width="1" d="M 242 82.5 L 247 82.5 M 242 87.5 L 247 87.5"></path><path fill="none" class="highcharts-boxplot-median" stroke="#aaaaaa" stroke-width="2" d="M 0 0"></path></g><g class="highcharts-point"><path fill="none" class="highcharts-boxplot-stem" stroke="#aaaaaa" stroke-width="1" d="M 265.5 82.84 L 265.5 78.48 M 265.5 82.84 L 265.5 82.84"></path><path fill="none" class="highcharts-boxplot-whisker" stroke="#aaaaaa" stroke-width="1" d="M 263 78.5 L 268 78.5 M 263 82.5 L 268 82.5"></path><path fill="none" class="highcharts-boxplot-median" stroke="#aaaaaa" stroke-width="2" d="M 0 0"></path></g><g class="highcharts-point"><path fill="none" class="highcharts-boxplot-stem" stroke="#aaaaaa" stroke-width="1" d="M 285.5 78.48 L 285.5 74.12 M 285.5 78.48 L 285.5 78.48"></path><path fill="none" class="highcharts-boxplot-whisker" stroke="#aaaaaa" stroke-width="1" d="M 283 74.5 L 288 74.5 M 283 78.5 L 288 78.5"></path><path fill="none" class="highcharts-boxplot-median" stroke="#aaaaaa" stroke-width="2" d="M 0 0"></path></g><g class="highcharts-point"><path fill="none" class="highcharts-boxplot-stem" stroke="#aaaaaa" stroke-width="1" d="M 306.5 76.3 L 306.5 74.12 M 306.5 76.3 L 306.5 76.3"></path><path fill="none" class="highcharts-boxplot-whisker" stroke="#aaaaaa" stroke-width="1" d="M 304 74.5 L 309 74.5 M 304 76.5 L 309 76.5"></path><path fill="none" class="highcharts-boxplot-median" stroke="#aaaaaa" stroke-width="2" d="M 0 0"></path></g><g class="highcharts-point"><path fill="none" class="highcharts-boxplot-stem" stroke="#aaaaaa" stroke-width="1" d="M 327.5 74.12 L 327.5 71.94 M 327.5 74.12 L 327.5 74.12"></path><path fill="none" class="highcharts-boxplot-whisker" stroke="#aaaaaa" stroke-width="1" d="M 325 71.5 L 330 71.5 M 325 74.5 L 330 74.5"></path><path fill="none" class="highcharts-boxplot-median" stroke="#aaaaaa" stroke-width="2" d="M 0 0"></path></g><g class="highcharts-point"><path fill="none" class="highcharts-boxplot-stem" stroke="#aaaaaa" stroke-width="1" d="M 348.5 67.58 L 348.5 63.22 M 348.5 67.58 L 348.5 67.58"></path><path fill="none" class="highcharts-boxplot-whisker" stroke="#aaaaaa" stroke-width="1" d="M 346 63.5 L 351 63.5 M 346 67.5 L 351 67.5"></path><path fill="none" class="highcharts-boxplot-median" stroke="#aaaaaa" stroke-width="2" d="M 0 0"></path></g><g class="highcharts-point"><path fill="none" class="highcharts-boxplot-stem" stroke="#aaaaaa" stroke-width="1" d="M 369.5 71.94 L 369.5 67.58 M 369.5 71.94 L 369.5 71.94"></path><path fill="none" class="highcharts-boxplot-whisker" stroke="#aaaaaa" stroke-width="1" d="M 367 67.5 L 372 67.5 M 367 71.5 L 372 71.5"></path><path fill="none" class="highcharts-boxplot-median" stroke="#aaaaaa" stroke-width="2" d="M 0 0"></path></g><g class="highcharts-point"><path fill="none" class="highcharts-boxplot-stem" stroke="#aaaaaa" stroke-width="1" d="M 389.5 58.86 L 389.5 54.5 M 389.5 58.86 L 389.5 58.86"></path><path fill="none" class="highcharts-boxplot-whisker" stroke="#aaaaaa" stroke-width="1" d="M 387 54.5 L 392 54.5 M 387 58.5 L 392 58.5"></path><path fill="none" class="highcharts-boxplot-median" stroke="#aaaaaa" stroke-width="2" d="M 0 0"></path></g><g class="highcharts-point"><path fill="none" class="highcharts-boxplot-stem" stroke="#aaaaaa" stroke-width="1" d="M 410.5 58.86 L 410.5 56.68 M 410.5 58.86 L 410.5 58.86"></path><path fill="none" class="highcharts-boxplot-whisker" stroke="#aaaaaa" stroke-width="1" d="M 408 56.5 L 413 56.5 M 408 58.5 L 413 58.5"></path><path fill="none" class="highcharts-boxplot-median" stroke="#aaaaaa" stroke-width="2" d="M 0 0"></path></g><g class="highcharts-point"><path fill="none" class="highcharts-boxplot-stem" stroke="#aaaaaa" stroke-width="1" d="M 431.5 56.68 L 431.5 52.32 M 431.5 56.68 L 431.5 56.68"></path><path fill="none" class="highcharts-boxplot-whisker" stroke="#aaaaaa" stroke-width="1" d="M 429 52.5 L 434 52.5 M 429 56.5 L 434 56.5"></path><path fill="none" class="highcharts-boxplot-median" stroke="#aaaaaa" stroke-width="2" d="M 0 0"></path></g><g class="highcharts-point"><path fill="none" class="highcharts-boxplot-stem" stroke="#aaaaaa" stroke-width="1" d="M 452.5 52.32 L 452.5 47.96 M 452.5 52.32 L 452.5 52.32"></path><path fill="none" class="highcharts-boxplot-whisker" stroke="#aaaaaa" stroke-width="1" d="M 450 47.5 L 455 47.5 M 450 52.5 L 455 52.5"></path><path fill="none" class="highcharts-boxplot-median" stroke="#aaaaaa" stroke-width="2" d="M 0 0"></path></g><g class="highcharts-point"><path fill="none" class="highcharts-boxplot-stem" stroke="#aaaaaa" stroke-width="1" d="M 473.5 67.58 L 473.5 63.22 M 473.5 67.58 L 473.5 67.58"></path><path fill="none" class="highcharts-boxplot-whisker" stroke="#aaaaaa" stroke-width="1" d="M 471 63.5 L 476 63.5 M 471 67.5 L 476 67.5"></path><path fill="none" class="highcharts-boxplot-median" stroke="#aaaaaa" stroke-width="2" d="M 0 0"></path></g><g class="highcharts-point"><path fill="none" class="highcharts-boxplot-stem" stroke="#aaaaaa" stroke-width="1" d="M 493.5 54.5 L 493.5 50.14 M 493.5 54.5 L 493.5 54.5"></path><path fill="none" class="highcharts-boxplot-whisker" stroke="#aaaaaa" stroke-width="1" d="M 491 50.5 L 496 50.5 M 491 54.5 L 496 54.5"></path><path fill="none" class="highcharts-boxplot-median" stroke="#aaaaaa" stroke-width="2" d="M 0 0"></path></g><g class="highcharts-point"><path fill="none" class="highcharts-boxplot-stem" stroke="#aaaaaa" stroke-width="1" d="M 514.5 56.68 L 514.5 54.5 M 514.5 56.68 L 514.5 56.68"></path><path fill="none" class="highcharts-boxplot-whisker" stroke="#aaaaaa" stroke-width="1" d="M 512 54.5 L 517 54.5 M 512 56.5 L 517 56.5"></path><path fill="none" class="highcharts-boxplot-median" stroke="#aaaaaa" stroke-width="2" d="M 0 0"></path></g><g class="highcharts-point"><path fill="none" class="highcharts-boxplot-stem" stroke="#aaaaaa" stroke-width="1" d="M 535.5 45.78 L 535.5 41.42 M 535.5 45.78 L 535.5 45.78"></path><path fill="none" class="highcharts-boxplot-whisker" stroke="#aaaaaa" stroke-width="1" d="M 533 41.5 L 538 41.5 M 533 45.5 L 538 45.5"></path><path fill="none" class="highcharts-boxplot-median" stroke="#aaaaaa" stroke-width="2" d="M 0 0"></path></g></g><g class="highcharts-markers highcharts-series-3 highcharts-errorbar-series" data-z-index="0.1" opacity="1" transform="translate(39,97) scale(1 1)" clip-path="none"></g><g class="highcharts-series highcharts-series-4 highcharts-line-series highcharts-color-0" visibility="hidden" data-z-index="0.1" opacity="1" transform="translate(39,97) scale(1 1)" clip-path="url(#highcharts-751f0h4-221-)"><path fill="none" d="M 473.02830188679 1853 L 493.82075471698 1874.8 L 514.61320754717 1831.2 L 535.40566037736 1874.8" class="highcharts-graph" data-z-index="1" stroke="#2caffe" stroke-width="2" stroke-linejoin="round" stroke-linecap="round" filter="none"></path><path fill="none" d="M 473.02830188679 1853 L 493.82075471698 1874.8 L 514.61320754717 1831.2 L 535.40566037736 1874.8" visibility="hidden" data-z-index="2" class="highcharts-tracker-line" stroke-linecap="round" stroke-linejoin="round" stroke="rgba(192,192,192,0.0001)" stroke-width="22"></path></g><g class="highcharts-markers highcharts-series-4 highcharts-line-series highcharts-color-0 highcharts-tracker" visibility="hidden" data-z-index="0.1" opacity="1" transform="translate(39,97) scale(1 1)" clip-path="none"></g><g class="highcharts-series highcharts-series-0 highcharts-line-series" data-z-index="2" opacity="1" transform="translate(39,97) scale(1 1)" clip-path="url(#highcharts-751f0h4-221-)"><path fill="none" d="M 15.594339622642 170.04 L 36.38679245283 170.04 L 57.179245283019 152.6 L 77.971698113208 148.24 L 98.764150943396 137.34 L 119.55660377358 150.42 L 140.34905660377 124.26 L 161.14150943396 124.26 L 181.93396226415 109 L 202.72641509434 102.46 L 223.51886792453 115.54 L 244.31132075472 106.82 L 265.10377358491 102.46 L 285.89622641509 100.28 L 306.68867924528 95.92 L 327.48113207547 91.56 L 348.27358490566 98.1 L 369.06603773585 85.02 L 389.85849056604 69.76 L 410.65094339623 76.3 L 431.44339622642 69.76 L 452.2358490566 71.94 L 473.02830188679 76.3 L 493.82075471698 61.04 L 514.61320754717 80.66 L 535.40566037736 63.22" class="highcharts-graph" data-z-index="1" stroke="#0091f7" stroke-width="2" stroke-linejoin="round" stroke-linecap="round" filter="none"></path><path fill="none" d="M 15.594339622642 170.04 L 36.38679245283 170.04 L 57.179245283019 152.6 L 77.971698113208 148.24 L 98.764150943396 137.34 L 119.55660377358 150.42 L 140.34905660377 124.26 L 161.14150943396 124.26 L 181.93396226415 109 L 202.72641509434 102.46 L 223.51886792453 115.54 L 244.31132075472 106.82 L 265.10377358491 102.46 L 285.89622641509 100.28 L 306.68867924528 95.92 L 327.48113207547 91.56 L 348.27358490566 98.1 L 369.06603773585 85.02 L 389.85849056604 69.76 L 410.65094339623 76.3 L 431.44339622642 69.76 L 452.2358490566 71.94 L 473.02830188679 76.3 L 493.82075471698 61.04 L 514.61320754717 80.66 L 535.40566037736 63.22" data-z-index="2" class="highcharts-tracker-line" stroke-linecap="round" stroke-linejoin="round" stroke="rgba(192,192,192,0.0001)" stroke-width="22"></path></g><g class="highcharts-markers highcharts-series-0 highcharts-line-series highcharts-tracker" data-z-index="2" opacity="1" transform="translate(39,97) scale(1 1)" clip-path="none"><path fill="#fbf659" d="M 473.5 80.3 A 4 4 0 1 1 473.5001999999999 80.299999995 Z" stroke="#0091f7" stroke-width="1" opacity="1" class="highcharts-point"></path><path fill="#59fb59" d="M 493.5 65.03999999999999 A 4 4 0 1 1 493.5001999999999 65.039999995 Z" stroke="#0091f7" stroke-width="1" opacity="1" class="highcharts-point"></path><path fill="#fb9999" d="M 514.5 84.66 A 4 4 0 1 1 514.5002 84.65999999499999 Z" stroke="#0091f7" stroke-width="1" opacity="1" class="highcharts-point"></path><path fill="#59fb59" d="M 535.5 67.22 A 4 4 0 1 1 535.5002 67.219999995 Z" stroke="#0091f7" stroke-width="1" opacity="1" class="highcharts-point"></path></g></g><text x="10" text-anchor="start" class="highcharts-caption" data-z-index="4" style="font-size: 0.8em; fill: rgb(102, 102, 102);" text-align="left" y="357" transform-origin="10 15" transform="translate(0,0) scale(1 1)"></text><g class="highcharts-axis-labels highcharts-xaxis-labels" data-z-index="7"><text x="54.594339622642" text-anchor="middle" transform="translate(0,0)" style="cursor: default; font-size: 0.8em; fill: rgb(0, 0, 0);" y="342" opacity="1">1998</text><text x="96.179245283019" text-anchor="middle" transform="translate(0,0)" style="cursor: default; font-size: 0.8em; fill: rgb(0, 0, 0);" y="342" opacity="1">2000</text><text x="137.7641509434" text-anchor="middle" transform="translate(0,0)" style="cursor: default; font-size: 0.8em; fill: rgb(0, 0, 0);" y="342" opacity="1">2002</text><text x="179.34905660377" text-anchor="middle" transform="translate(0,0)" style="cursor: default; font-size: 0.8em; fill: rgb(0, 0, 0);" y="342" opacity="1">2004</text><text x="220.93396226415" text-anchor="middle" transform="translate(0,0)" style="cursor: default; font-size: 0.8em; fill: rgb(0, 0, 0);" y="342" opacity="1">2006</text><text x="262.51886792453" text-anchor="middle" transform="translate(0,0)" style="cursor: default; font-size: 0.8em; fill: rgb(0, 0, 0);" y="342" opacity="1">2008</text><text x="304.10377358491" text-anchor="middle" transform="translate(0,0)" style="cursor: default; font-size: 0.8em; fill: rgb(0, 0, 0);" y="342" opacity="1">2010</text><text x="345.68867924528" text-anchor="middle" transform="translate(0,0)" style="cursor: default; font-size: 0.8em; fill: rgb(0, 0, 0);" y="342" opacity="1">2012</text><text x="387.27358490566" text-anchor="middle" transform="translate(0,0)" style="cursor: default; font-size: 0.8em; fill: rgb(0, 0, 0);" y="342" opacity="1">2014</text><text x="428.85849056604" text-anchor="middle" transform="translate(0,0)" style="cursor: default; font-size: 0.8em; fill: rgb(0, 0, 0);" y="342" opacity="1">2016</text><text x="470.44339622642" text-anchor="middle" transform="translate(0,0)" style="cursor: default; font-size: 0.8em; fill: rgb(0, 0, 0);" y="342" opacity="1">2018</text><text x="512.02830188679" text-anchor="middle" transform="translate(0,0)" style="cursor: default; font-size: 0.8em; fill: rgb(0, 0, 0);" y="342" opacity="1">2020</text><text x="553.61320754717" text-anchor="middle" transform="translate(0,0)" style="cursor: default; font-size: 0.8em; fill: rgb(0, 0, 0);" y="342" opacity="1">2022</text></g><g class="highcharts-axis-labels highcharts-yaxis-labels" data-z-index="7"><text x="24" text-anchor="end" transform="translate(0,0)" style="cursor: default; font-size: 0.8em; fill: rgb(0, 0, 0);" y="320" opacity="1">76</text><text x="24" text-anchor="end" transform="translate(0,0)" style="cursor: default; font-size: 0.8em; fill: rgb(0, 0, 0);" y="276" opacity="1">78</text><text x="24" text-anchor="end" transform="translate(0,0)" style="cursor: default; font-size: 0.8em; fill: rgb(0, 0, 0);" y="232" opacity="1">80</text><text x="24" text-anchor="end" transform="translate(0,0)" style="cursor: default; font-size: 0.8em; fill: rgb(0, 0, 0);" y="189" opacity="1">82</text><text x="24" text-anchor="end" transform="translate(0,0)" style="cursor: default; font-size: 0.8em; fill: rgb(0, 0, 0);" y="145" opacity="1">84</text><text x="24" text-anchor="end" transform="translate(0,0)" style="cursor: default; font-size: 0.8em; fill: rgb(0, 0, 0);" y="102" opacity="1">86</text></g><g class="highcharts-legend highcharts-no-tooltip" data-z-index="7" text-align="left" transform="translate(31,55)"><rect fill="none" class="highcharts-legend-box" rx="0" ry="0" stroke="#999999" stroke-width="0" filter="none" x="0" y="0" width="193" height="30"></rect><g data-z-index="1"><g><g class="highcharts-legend-item highcharts-line-series highcharts-color-undefined highcharts-series-0" data-z-index="1" transform="translate(8,3)"><path fill="none" class="highcharts-graph" stroke-width="2" stroke-linecap="round" d="M 1 13 L 15 13" stroke="#0091f7"></path><text x="21" text-anchor="start" data-z-index="2" style="cursor: pointer; font-size: 0.8em; text-decoration: none; font-weight: normal; fill: rgb(51, 51, 51);" y="17">Basel-Stadt</text></g><g class="highcharts-legend-item highcharts-line-series highcharts-color-undefined highcharts-series-2" data-z-index="1" transform="translate(115.61244201660156,3)"><path fill="none" class="highcharts-graph" stroke-width="2" stroke-linecap="round" d="M 1 13 L 15 13" stroke="#999999"></path><text x="21" y="17" text-anchor="start" data-z-index="2" style="cursor: pointer; font-size: 0.8em; text-decoration: none; font-weight: normal; fill: rgb(51, 51, 51);">Schweiz</text></g></g></g></g></svg>