<svg version="1.1" class="highcharts-root" style="font-family: Inter, &quot;Helvetica Neue&quot;, Helvetica, Arial, sans-serif; font-size: 1rem;" xmlns="http://www.w3.org/2000/svg" width="600" height="400" viewBox="0 0 600 400" role="img" aria-label="Nettowohnungsproduktion seit 2019"><desc>Created with Highcharts 12.5.0</desc><defs><filter id="highcharts-drop-shadow-0"><feDropShadow dx="1" dy="1" flood-color="#000000" flood-opacity="0.75" stdDeviation="2.5"></feDropShadow></filter><clipPath id="highcharts-uwew2mw-27-"><rect x="0" y="0" width="526" height="259" fill="none"></rect></clipPath></defs><rect fill="#ffffff" class="highcharts-background" filter="none" x="0" y="0" width="600" height="400" rx="0" ry="0"></rect><rect fill="none" class="highcharts-plot-background" x="64" y="55" width="526" height="259" filter="none"></rect><g class="highcharts-pane-group" data-z-index="0"></g><g class="highcharts-grid highcharts-xaxis-grid" data-z-index="1"><path fill="none" stroke="#e6e6e6" stroke-width="0" stroke-dasharray="none" data-z-index="1" class="highcharts-grid-line" d="M 69.5 55 L 69.5 314" opacity="1"></path><path fill="none" stroke="#e6e6e6" stroke-width="0" stroke-dasharray="none" data-z-index="1" class="highcharts-grid-line" d="M 101.5 55 L 101.5 314" opacity="1"></path><path fill="none" stroke="#e6e6e6" stroke-width="0" stroke-dasharray="none" data-z-index="1" class="highcharts-grid-line" d="M 133.5 55 L 133.5 314" opacity="1"></path><path fill="none" stroke="#e6e6e6" stroke-width="0" stroke-dasharray="none" data-z-index="1" class="highcharts-grid-line" d="M 165.5 55 L 165.5 314" opacity="1"></path><path fill="none" stroke="#e6e6e6" stroke-width="0" stroke-dasharray="none" data-z-index="1" class="highcharts-grid-line" d="M 198.5 55 L 198.5 314" opacity="1"></path><path fill="none" stroke="#e6e6e6" stroke-width="0" stroke-dasharray="none" data-z-index="1" class="highcharts-grid-line" d="M 230.5 55 L 230.5 314" opacity="1"></path><path fill="none" stroke="#e6e6e6" stroke-width="0" stroke-dasharray="none" data-z-index="1" class="highcharts-grid-line" d="M 262.5 55 L 262.5 314" opacity="1"></path><path fill="none" stroke="#e6e6e6" stroke-width="0" stroke-dasharray="none" data-z-index="1" class="highcharts-grid-line" d="M 294.5 55 L 294.5 314" opacity="1"></path><path fill="none" stroke="#e6e6e6" stroke-width="0" stroke-dasharray="none" data-z-index="1" class="highcharts-grid-line" d="M 327.5 55 L 327.5 314" opacity="1"></path><path fill="none" stroke="#e6e6e6" stroke-width="0" stroke-dasharray="none" data-z-index="1" class="highcharts-grid-line" d="M 359.5 55 L 359.5 314" opacity="1"></path><path fill="none" stroke="#e6e6e6" stroke-width="0" stroke-dasharray="none" data-z-index="1" class="highcharts-grid-line" d="M 391.5 55 L 391.5 314" opacity="1"></path><path fill="none" stroke="#e6e6e6" stroke-width="0" stroke-dasharray="none" data-z-index="1" class="highcharts-grid-line" d="M 423.5 55 L 423.5 314" opacity="1"></path><path fill="none" stroke="#e6e6e6" stroke-width="0" stroke-dasharray="none" data-z-index="1" class="highcharts-grid-line" d="M 455.5 55 L 455.5 314" opacity="1"></path><path fill="none" stroke="#e6e6e6" stroke-width="0" stroke-dasharray="none" data-z-index="1" class="highcharts-grid-line" d="M 488.5 55 L 488.5 314" opacity="1"></path><path fill="none" stroke="#e6e6e6" stroke-width="0" stroke-dasharray="none" data-z-index="1" class="highcharts-grid-line" d="M 520.5 55 L 520.5 314" opacity="1"></path><path fill="none" stroke="#e6e6e6" stroke-width="0" stroke-dasharray="none" data-z-index="1" class="highcharts-grid-line" d="M 552.5 55 L 552.5 314" opacity="1"></path><path fill="none" stroke="#e6e6e6" stroke-width="0" stroke-dasharray="none" data-z-index="1" class="highcharts-grid-line" d="M 584.5 55 L 584.5 314" opacity="1"></path></g><g class="highcharts-grid highcharts-yaxis-grid" data-z-index="1"><path fill="none" stroke="#B9CFD7" stroke-width="0.5" stroke-dasharray="none" data-z-index="1" class="highcharts-grid-line" d="M 64 314.25 L 590 314.25" opacity="1"></path><path fill="none" stroke="#B9CFD7" stroke-width="0.5" stroke-dasharray="none" data-z-index="1" class="highcharts-grid-line" d="M 64 262.25 L 590 262.25" opacity="1"></path><path fill="none" stroke="#B9CFD7" stroke-width="0.5" stroke-dasharray="none" data-z-index="1" class="highcharts-grid-line" d="M 64 210.25 L 590 210.25" opacity="1"></path><path fill="none" stroke="#B9CFD7" stroke-width="0.5" stroke-dasharray="none" data-z-index="1" class="highcharts-grid-line" d="M 64 158.25 L 590 158.25" opacity="1"></path><path fill="none" stroke="#B9CFD7" stroke-width="0.5" stroke-dasharray="none" data-z-index="1" class="highcharts-grid-line" d="M 64 107.25 L 590 107.25" opacity="1"></path><path fill="none" stroke="#B9CFD7" stroke-width="0.5" stroke-dasharray="none" data-z-index="1" class="highcharts-grid-line" d="M 64 55.25 L 590 55.25" opacity="1"></path></g><rect fill="none" class="highcharts-plot-border" data-z-index="1" stroke="#cccccc" stroke-width="0" x="64" y="55" width="526" height="259"></rect><g class="highcharts-axis highcharts-xaxis" data-z-index="2"><path fill="none" class="highcharts-axis-line" stroke="#B9CFD7" stroke-width="0.5" data-z-index="7" d="M 64 314.25 L 590 314.25"></path></g><g class="highcharts-axis highcharts-yaxis" data-z-index="2"><path fill="none" class="highcharts-axis-line" stroke="#B9CFD7" stroke-width="0" data-z-index="7" d="M 64 55 L 64 314"></path></g><g class="highcharts-series-group" data-z-index="3" filter="none"><g class="highcharts-series highcharts-series-1 highcharts-line-series" data-z-index="0.1" opacity="1" transform="translate(64,55) scale(1 1)" clip-path="url(#highcharts-uwew2mw-27-)"><path fill="none" d="M 520.8431372549 51.8" class="highcharts-graph" data-z-index="1" stroke="#999999" stroke-width="2" stroke-dasharray="6,2" filter="none"></path><path fill="none" d="M 520.8431372549 51.8" data-z-index="2" class="highcharts-tracker-line" stroke-linecap="round" stroke-linejoin="round" stroke="rgba(192,192,192,0.0001)" stroke-width="22"></path></g><g class="highcharts-markers highcharts-series-1 highcharts-line-series highcharts-tracker" data-z-index="0.1" opacity="1" transform="translate(64,55) scale(1 1)" clip-path="none"><path fill="#999999" d="M 520.5 55.8 A 4 4 0 1 1 520.5002 55.799999995 Z" stroke="#ffffff" stroke-width="0" opacity="1" class="highcharts-point"></path></g><g class="highcharts-series highcharts-series-2 highcharts-line-series highcharts-color-0" visibility="hidden" data-z-index="0.1" opacity="1" transform="translate(64,55) scale(1 1)" clip-path="url(#highcharts-uwew2mw-27-)"></g><g class="highcharts-markers highcharts-series-2 highcharts-line-series highcharts-color-0" visibility="hidden" data-z-index="0.1" opacity="1" transform="translate(64,55) scale(1 1)" clip-path="none"></g><g class="highcharts-series highcharts-series-0 highcharts-line-series" data-z-index="2" opacity="1" transform="translate(64,55) scale(1 1)" clip-path="url(#highcharts-uwew2mw-27-)"><path fill="none" d="M 37.387254901963 245.07616 L 69.617647058825 224.83272 L 101.84803921569 200.61104 L 134.07843137255 182.68824 L 166.30882352941 172.10032 L 198.53921568628 160.91152" class="highcharts-graph" data-z-index="1" stroke="#0091f7" stroke-width="2" stroke-linejoin="round" stroke-linecap="round" filter="none"></path><path fill="none" d="M 37.387254901963 245.07616 L 69.617647058825 224.83272 L 101.84803921569 200.61104 L 134.07843137255 182.68824 L 166.30882352941 172.10032 L 198.53921568628 160.91152" data-z-index="2" class="highcharts-tracker-line" stroke-linecap="round" stroke-linejoin="round" stroke="rgba(192,192,192,0.0001)" stroke-width="22"></path></g><g class="highcharts-markers highcharts-series-0 highcharts-line-series highcharts-tracker" data-z-index="2" opacity="1" transform="translate(64,55) scale(1 1)" clip-path="none"><path fill="#0091f7" d="M 37.5 248.07616 A 3 3 0 1 1 37.50019999999986 248.07615999333333 Z" stroke="#0091f7" stroke-width="1" opacity="1" class="highcharts-point"></path><path fill="#0091f7" d="M 69.5 227.83272 A 3 3 0 1 1 69.50019999999985 227.83271999333334 Z" stroke="#0091f7" stroke-width="1" opacity="1" class="highcharts-point"></path><path fill="#0091f7" d="M 101.5 203.61104 A 3 3 0 1 1 101.50019999999985 203.61103999333335 Z" stroke="#0091f7" stroke-width="1" opacity="1" class="highcharts-point"></path><path fill="#0091f7" d="M 134.5 185.68824 A 3 3 0 1 1 134.50019999999986 185.68823999333335 Z" stroke="#0091f7" stroke-width="1" opacity="1" class="highcharts-point"></path><path fill="#0091f7" d="M 166.5 175.10032 A 3 3 0 1 1 166.50019999999986 175.10031999333336 Z" stroke="#0091f7" stroke-width="1" opacity="1" class="highcharts-point"></path><path fill="#0091f7" d="M 198.5 165.41152 A 4.5 4.5 0 1 1 198.50019999999995 165.41151999555555 Z" stroke="#0091f7" stroke-width="1" opacity="1" class="highcharts-point"></path></g></g><text x="10" text-anchor="start" class="highcharts-caption" data-z-index="4" style="font-size: 0.8em; fill: rgb(102, 102, 102);" text-align="left" y="372" transform-origin="10 15" transform="translate(0,0) scale(1 1)"></text><g class="highcharts-data-labels highcharts-series-1 highcharts-line-series" data-z-index="6" opacity="1" transform="translate(64,55) scale(1 1)"><g class="highcharts-label highcharts-data-label highcharts-data-label-color-undefined" data-z-index="1" filter="none" transform="translate(415,26)"><text x="55.47265625" data-z-index="1" y="15" text-anchor="middle" style="font-size: 10px; font-weight: bold; fill: rgb(153, 153, 153);">Zielwert 2035: 10,000</text></g></g><g class="highcharts-axis-labels highcharts-xaxis-labels" data-z-index="7"><text x="71.98528986984718" text-anchor="end" transform="translate(0,0) rotate(-45 71.98528986984718 337)" style="cursor: default; font-size: 0.8em; fill: rgb(0, 0, 0);" y="337" opacity="1">2019</text><text x="104.21568202670619" text-anchor="end" transform="translate(0,0) rotate(-45 104.21568202670619 337)" style="cursor: default; font-size: 0.8em; fill: rgb(0, 0, 0);" y="337" opacity="1">2020</text><text x="136.44607418357617" text-anchor="end" transform="translate(0,0) rotate(-45 136.44607418357617 337)" style="cursor: default; font-size: 0.8em; fill: rgb(0, 0, 0);" y="337" opacity="1">2021</text><text x="168.67646634043618" text-anchor="end" transform="translate(0,0) rotate(-45 168.67646634043618 337)" style="cursor: default; font-size: 0.8em; fill: rgb(0, 0, 0);" y="337" opacity="1">2022</text><text x="200.90685849729618" text-anchor="end" transform="translate(0,0) rotate(-45 200.90685849729618 337)" style="cursor: default; font-size: 0.8em; fill: rgb(0, 0, 0);" y="337" opacity="1">2023</text><text x="233.1372506541562" text-anchor="end" transform="translate(0,0) rotate(-45 233.1372506541562 337)" style="cursor: default; font-size: 0.8em; fill: rgb(0, 0, 0);" y="337" opacity="1">2024</text><text x="265.3676428110262" text-anchor="end" transform="translate(0,0) rotate(-45 265.3676428110262 337)" style="cursor: default; font-size: 0.8em; fill: rgb(0, 0, 0);" y="337" opacity="1">2025</text><text x="297.59803496788624" text-anchor="end" transform="translate(0,0) rotate(-45 297.59803496788624 337)" style="cursor: default; font-size: 0.8em; fill: rgb(0, 0, 0);" y="337" opacity="1">2026</text><text x="329.8284271247462" text-anchor="end" transform="translate(0,0) rotate(-45 329.8284271247462 337)" style="cursor: default; font-size: 0.8em; fill: rgb(0, 0, 0);" y="337" opacity="1">2027</text><text x="362.0588192816062" text-anchor="end" transform="translate(0,0) rotate(-45 362.0588192816062 337)" style="cursor: default; font-size: 0.8em; fill: rgb(0, 0, 0);" y="337" opacity="1">2028</text><text x="394.2892114384662" text-anchor="end" transform="translate(0,0) rotate(-45 394.2892114384662 337)" style="cursor: default; font-size: 0.8em; fill: rgb(0, 0, 0);" y="337" opacity="1">2029</text><text x="426.5196035953362" text-anchor="end" transform="translate(0,0) rotate(-45 426.5196035953362 337)" style="cursor: default; font-size: 0.8em; fill: rgb(0, 0, 0);" y="337" opacity="1">2030</text><text x="458.7499957521962" text-anchor="end" transform="translate(0,0) rotate(-45 458.7499957521962 337)" style="cursor: default; font-size: 0.8em; fill: rgb(0, 0, 0);" y="337" opacity="1">2031</text><text x="490.9803879090562" text-anchor="end" transform="translate(0,0) rotate(-45 490.9803879090562 337)" style="cursor: default; font-size: 0.8em; fill: rgb(0, 0, 0);" y="337" opacity="1">2032</text><text x="523.2107800659162" text-anchor="end" transform="translate(0,0) rotate(-45 523.2107800659162 337)" style="cursor: default; font-size: 0.8em; fill: rgb(0, 0, 0);" y="337" opacity="1">2033</text><text x="555.4411722227862" text-anchor="end" transform="translate(0,0) rotate(-45 555.4411722227862 337)" style="cursor: default; font-size: 0.8em; fill: rgb(0, 0, 0);" y="337" opacity="1">2034</text><text x="587.6715643796462" text-anchor="end" transform="translate(0,0) rotate(-45 587.6715643796462 337)" style="cursor: default; font-size: 0.8em; fill: rgb(0, 0, 0);" y="337" opacity="1">2035</text></g><g class="highcharts-axis-labels highcharts-yaxis-labels" data-z-index="7"><text x="49" text-anchor="end" transform="translate(0,0)" style="cursor: default; font-size: 0.8em; fill: rgb(0, 0, 0);" y="319" opacity="1">0</text><text x="49" text-anchor="end" transform="translate(0,0)" style="cursor: default; font-size: 0.8em; fill: rgb(0, 0, 0);" y="267" opacity="1">2,500</text><text x="49" text-anchor="end" transform="translate(0,0)" style="cursor: default; font-size: 0.8em; fill: rgb(0, 0, 0);" y="215" opacity="1">5,000</text><text x="49" text-anchor="end" transform="translate(0,0)" style="cursor: default; font-size: 0.8em; fill: rgb(0, 0, 0);" y="163" opacity="1">7,500</text><text x="49" text-anchor="end" transform="translate(0,0)" style="cursor: default; font-size: 0.8em; fill: rgb(0, 0, 0);" y="111" opacity="1">10,000</text><text x="49" text-anchor="end" transform="translate(0,0)" style="cursor: default; font-size: 0.8em; fill: rgb(0, 0, 0);" y="60" opacity="1">12,500</text></g></svg>