<?xml version="1.0" standalone="no"?><!DOCTYPE svg PUBLIC "-//W3C//DTD SVG 1.1//EN" "http://www.w3.org/Graphics/SVG/1.1/DTD/svg11.dtd"><svg xmlns:xlink="http://www.w3.org/1999/xlink" version="1.1" class="highcharts-root" style="font-family:Inter,Helvetica Neue,Helvetica,Arial,sans-serif;font-size:12px;" xmlns="http://www.w3.org/2000/svg" width="600" height="428"><desc>Created with Highcharts 8.2.2</desc><defs><clipPath id="highcharts-56a8acl-52-"><rect x="0" y="0" width="547" height="247" fill="none"></rect></clipPath><clipPath id="highcharts-56a8acl-68-"><rect x="0" y="0" width="547" height="247" fill="none"></rect></clipPath><clipPath id="highcharts-56a8acl-99-"><rect x="43" y="94" width="547" height="247" fill="none"></rect></clipPath></defs><rect fill="#ffffff" class="highcharts-background" x="0" y="0" width="600" height="428" rx="0" ry="0"></rect><rect fill="none" class="highcharts-plot-background" x="43" y="94" width="547" height="247"></rect><g class="highcharts-pane-group" data-z-index="0"></g><g class="highcharts-grid highcharts-xaxis-grid" data-z-index="1"><path fill="none" data-z-index="1" class="highcharts-grid-line" d="M 47.5 94 L 47.5 341" opacity="1"></path><path fill="none" data-z-index="1" class="highcharts-grid-line" d="M 162.5 94 L 162.5 341" opacity="1"></path><path fill="none" data-z-index="1" class="highcharts-grid-line" d="M 277.5 94 L 277.5 341" opacity="1"></path><path fill="none" data-z-index="1" class="highcharts-grid-line" d="M 392.5 94 L 392.5 341" opacity="1"></path><path fill="none" data-z-index="1" class="highcharts-grid-line" d="M 507.5 94 L 507.5 341" opacity="1"></path></g><g class="highcharts-grid highcharts-yaxis-grid" data-z-index="1"><path fill="none" stroke="#B9CFD7" stroke-width="0.5" data-z-index="1" class="highcharts-grid-line" d="M 43 341.25 L 590 341.25" opacity="1"></path><path fill="none" stroke="#B9CFD7" stroke-width="0.5" data-z-index="1" class="highcharts-grid-line" d="M 43 300.25 L 590 300.25" opacity="1"></path><path fill="none" stroke="#B9CFD7" stroke-width="0.5" data-z-index="1" class="highcharts-grid-line" d="M 43 259.25 L 590 259.25" opacity="1"></path><path fill="none" stroke="#B9CFD7" stroke-width="0.5" data-z-index="1" class="highcharts-grid-line" d="M 43 218.25 L 590 218.25" opacity="1"></path><path fill="none" stroke="#B9CFD7" stroke-width="0.5" data-z-index="1" class="highcharts-grid-line" d="M 43 176.25 L 590 176.25" opacity="1"></path><path fill="none" stroke="#B9CFD7" stroke-width="0.5" data-z-index="1" class="highcharts-grid-line" d="M 43 135.25 L 590 135.25" opacity="1"></path><path fill="none" stroke="#B9CFD7" stroke-width="0.5" data-z-index="1" class="highcharts-grid-line" d="M 43 93.75 L 590 93.75" opacity="1"></path></g><rect fill="none" class="highcharts-plot-border" data-z-index="1" x="43" y="94" width="547" height="247"></rect><g class="highcharts-axis highcharts-xaxis" data-z-index="2"><path fill="none" class="highcharts-axis-line" stroke="#B9CFD7" stroke-width="0.5" data-z-index="7" d="M 43 341.25 L 590 341.25"></path></g><g class="highcharts-axis highcharts-yaxis" data-z-index="2"><path fill="none" class="highcharts-axis-line" data-z-index="7" d="M 43 94 L 43 341"></path></g><g class="highcharts-series-group" data-z-index="3"><g class="highcharts-series highcharts-series-1 highcharts-line-series" data-z-index="0.1" opacity="1" transform="translate(43,94) scale(1 1)" clip-path="url(#highcharts-56a8acl-68-)"><path fill="none" d="M 5.362745098043 182.78000000000003 L 43.668067226894 177.83999999999997 L 81.973389355745 177.01666666666668 L 120.2787114846 170.43000000000004 L 158.58403361345 166.31333333333336 L 196.8893557423 164.66666666666669 L 235.19467787115 161.37333333333328 L 273.5 158.08000000000004 L 311.80532212885 155.61000000000007 L 350.1106442577 152.31666666666666 L 388.41596638655 147.37666666666672 L 426.7212885154 135.02666666666673" class="highcharts-graph" data-z-index="1" stroke="#999999" stroke-width="2" stroke-linejoin="round" stroke-linecap="round"></path></g><g class="highcharts-markers highcharts-series-1 highcharts-line-series" data-z-index="0.1" opacity="1" transform="translate(43,94) scale(1 1)" clip-path="none"></g><g class="highcharts-series highcharts-series-2 highcharts-line-series highcharts-color-0" visibility="hidden" data-z-index="0.1" opacity="1" transform="translate(43,94) scale(1 1)" clip-path="url(#highcharts-56a8acl-68-)"><path fill="none" d="M 350.1106442577 971.5333333333333 L 388.41596638655 971.5333333333333 L 426.7212885154 987.9999999999999" class="highcharts-graph" data-z-index="1" stroke="#7cb5ec" stroke-width="2" stroke-linejoin="round" stroke-linecap="round"></path></g><g class="highcharts-markers highcharts-series-2 highcharts-line-series highcharts-color-0" visibility="hidden" data-z-index="0.1" opacity="1" transform="translate(43,94) scale(1 1)" clip-path="none"></g><g class="highcharts-series highcharts-series-0 highcharts-line-series" data-z-index="2" opacity="1" transform="translate(43,94) scale(1 1)" clip-path="url(#highcharts-56a8acl-68-)"><path fill="none" d="M 5.362745098043 199.2466666666667 L 43.668067226894 191.01333333333338 L 81.973389355745 187.71999999999997 L 120.2787114846 178.66333333333336 L 158.58403361345 173.7233333333333 L 196.8893557423 164.66666666666669 L 235.19467787115 151.4933333333334 L 273.5 141.61333333333337 L 311.80532212885 131.73333333333335 L 350.1106442577 120.20666666666664 L 388.41596638655 111.15 L 426.7212885154 103.73999999999998 L 465.02661064426 93.03666666666666 L 503.33193277311 74.92333333333332 L 541.63725490196 46.930000000000035" class="highcharts-graph" data-z-index="1" stroke="#0091f7" stroke-width="2" stroke-linejoin="round" stroke-linecap="round"></path></g><g class="highcharts-markers highcharts-series-0 highcharts-line-series" data-z-index="2" opacity="1" transform="translate(43,94) scale(1 1)" clip-path="none"><path fill="#fb9999" d="M 350 123.20666666666664 A 3 3 0 1 1 350.0029999995 123.20666516666677 Z" stroke="#0091f7" stroke-width="1" opacity="1" class="highcharts-point"></path><path fill="#fb9999" d="M 388 114.15 A 3 3 0 1 1 388.0029999995 114.14999850000014 Z" stroke="#0091f7" stroke-width="1" opacity="1" class="highcharts-point"></path><path fill="#59fb59" d="M 426 108.23999999999998 A 4.5 4.5 0 1 1 426.00449999925 108.23999775000017 Z" stroke="#0091f7" stroke-width="1" opacity="1" class="highcharts-point"></path></g></g><text x="10" text-anchor="start" class="highcharts-caption" data-z-index="4" style="color:#666666;fill:#666666;" y="375"></text><g class="highcharts-data-labels highcharts-series-1 highcharts-line-series" data-z-index="6" opacity="1" transform="translate(43,94) scale(1 1)"></g><g class="highcharts-legend" data-z-index="7" transform="translate(35,56)"><rect fill="none" class="highcharts-legend-box" rx="0" ry="0" x="0" y="0" width="324" height="26" visibility="visible"></rect><g data-z-index="1"><g><g class="highcharts-legend-item highcharts-line-series highcharts-color-undefined highcharts-series-0" data-z-index="1" transform="translate(8,3)"><path fill="none" d="M 0 11 L 16 11" class="highcharts-graph" stroke="#0091f7" stroke-width="2"></path><text x="21" style="color:#333333;cursor:pointer;font-size:12px;font-weight:normal;fill:#333333;" text-anchor="start" data-z-index="2" y="15"><tspan>Mietpreisindex</tspan></text></g><g class="highcharts-legend-item highcharts-line-series highcharts-color-undefined highcharts-series-1" data-z-index="1" transform="translate(128,3)"><path fill="none" d="M 0 11 L 16 11" class="highcharts-graph" stroke="#999999" stroke-width="2"></path><text x="21" y="15" style="color:#333333;cursor:pointer;font-size:12px;font-weight:normal;fill:#333333;" text-anchor="start" data-z-index="2"><tspan>Index Median Reineinkommen</tspan></text></g></g></g></g><g class="highcharts-axis-labels highcharts-xaxis-labels" data-z-index="7"><text x="48.362745098043" style="color:#000000;cursor:default;font-size:11px;fill:#000000;" text-anchor="middle" transform="translate(0,0)" y="360" opacity="1">2010</text><text x="163.2787114846" style="color:#000000;cursor:default;font-size:11px;fill:#000000;" text-anchor="middle" transform="translate(0,0)" y="360" opacity="1">2013</text><text x="278.19467787115" style="color:#000000;cursor:default;font-size:11px;fill:#000000;" text-anchor="middle" transform="translate(0,0)" y="360" opacity="1">2016</text><text x="393.1106442577" style="color:#000000;cursor:default;font-size:11px;fill:#000000;" text-anchor="middle" transform="translate(0,0)" y="360" opacity="1">2019</text><text x="508.02661064426" style="color:#000000;cursor:default;font-size:11px;fill:#000000;" text-anchor="middle" transform="translate(0,0)" y="360" opacity="1">2022</text></g><g class="highcharts-axis-labels highcharts-yaxis-labels" data-z-index="7"><text x="28" style="color:#000000;cursor:default;font-size:11px;fill:#000000;" text-anchor="end" transform="translate(0,0)" y="345" opacity="1">90</text><text x="28" style="color:#000000;cursor:default;font-size:11px;fill:#000000;" text-anchor="end" transform="translate(0,0)" y="304" opacity="1">95</text><text x="28" style="color:#000000;cursor:default;font-size:11px;fill:#000000;" text-anchor="end" transform="translate(0,0)" y="263" opacity="1">100</text><text x="28" style="color:#000000;cursor:default;font-size:11px;fill:#000000;" text-anchor="end" transform="translate(0,0)" y="222" opacity="1">105</text><text x="28" style="color:#000000;cursor:default;font-size:11px;fill:#000000;" text-anchor="end" transform="translate(0,0)" y="180" opacity="1">110</text><text x="28" style="color:#000000;cursor:default;font-size:11px;fill:#000000;" text-anchor="end" transform="translate(0,0)" y="139" opacity="1">115</text><text x="28" style="color:#000000;cursor:default;font-size:11px;fill:#000000;" text-anchor="end" transform="translate(0,0)" y="98" opacity="1">120</text></g></svg>