<?xml version="1.0" standalone="no"?><!DOCTYPE svg PUBLIC "-//W3C//DTD SVG 1.1//EN" "http://www.w3.org/Graphics/SVG/1.1/DTD/svg11.dtd"><svg xmlns:xlink="http://www.w3.org/1999/xlink" version="1.1" class="highcharts-root" style="font-family:Inter,Helvetica Neue,Helvetica,Arial,sans-serif;font-size:12px;" xmlns="http://www.w3.org/2000/svg" width="600" height="428"><desc>Created with Highcharts 8.2.2</desc><defs><clipPath id="highcharts-qpg3wkj-35-"><rect x="0" y="0" width="511" height="255" fill="none"></rect></clipPath><clipPath id="highcharts-qpg3wkj-50-"><rect x="0" y="0" width="511" height="255" fill="none"></rect></clipPath><clipPath id="highcharts-qpg3wkj-65-"><rect x="79" y="111" width="511" height="255" fill="none"></rect></clipPath></defs><rect fill="#ffffff" class="highcharts-background" x="0" y="0" width="600" height="428" rx="0" ry="0"></rect><rect fill="none" class="highcharts-plot-background" x="79" y="111" width="511" height="255"></rect><g class="highcharts-pane-group" data-z-index="0"></g><g class="highcharts-grid highcharts-xaxis-grid" data-z-index="1"><path fill="none" data-z-index="1" class="highcharts-grid-line" d="M 115.5 111 L 115.5 366" opacity="1"></path><path fill="none" data-z-index="1" class="highcharts-grid-line" d="M 151.5 111 L 151.5 366" opacity="1"></path><path fill="none" data-z-index="1" class="highcharts-grid-line" d="M 188.5 111 L 188.5 366" opacity="1"></path><path fill="none" data-z-index="1" class="highcharts-grid-line" d="M 224.5 111 L 224.5 366" opacity="1"></path><path fill="none" data-z-index="1" class="highcharts-grid-line" d="M 261.5 111 L 261.5 366" opacity="1"></path><path fill="none" data-z-index="1" class="highcharts-grid-line" d="M 297.5 111 L 297.5 366" opacity="1"></path><path fill="none" data-z-index="1" class="highcharts-grid-line" d="M 334.5 111 L 334.5 366" opacity="1"></path><path fill="none" data-z-index="1" class="highcharts-grid-line" d="M 370.5 111 L 370.5 366" opacity="1"></path><path fill="none" data-z-index="1" class="highcharts-grid-line" d="M 407.5 111 L 407.5 366" opacity="1"></path><path fill="none" data-z-index="1" class="highcharts-grid-line" d="M 443.5 111 L 443.5 366" opacity="1"></path><path fill="none" data-z-index="1" class="highcharts-grid-line" d="M 480.5 111 L 480.5 366" opacity="1"></path><path fill="none" data-z-index="1" class="highcharts-grid-line" d="M 516.5 111 L 516.5 366" opacity="1"></path><path fill="none" data-z-index="1" class="highcharts-grid-line" d="M 553.5 111 L 553.5 366" opacity="1"></path><path fill="none" data-z-index="1" class="highcharts-grid-line" d="M 589.5 111 L 589.5 366" opacity="1"></path><path fill="none" data-z-index="1" class="highcharts-grid-line" d="M 78.5 111 L 78.5 366" opacity="1"></path></g><g class="highcharts-grid highcharts-yaxis-grid" data-z-index="1"><path fill="none" stroke="#B9CFD7" stroke-width="0.5" data-z-index="1" class="highcharts-grid-line" d="M 79 366.25 L 590 366.25" opacity="1"></path><path fill="none" stroke="#B9CFD7" stroke-width="0.5" data-z-index="1" class="highcharts-grid-line" d="M 79 330.25 L 590 330.25" opacity="1"></path><path fill="none" stroke="#B9CFD7" stroke-width="0.5" data-z-index="1" class="highcharts-grid-line" d="M 79 293.25 L 590 293.25" opacity="1"></path><path fill="none" stroke="#B9CFD7" stroke-width="0.5" data-z-index="1" class="highcharts-grid-line" d="M 79 257.25 L 590 257.25" opacity="1"></path><path fill="none" stroke="#B9CFD7" stroke-width="0.5" data-z-index="1" class="highcharts-grid-line" d="M 79 220.25 L 590 220.25" opacity="1"></path><path fill="none" stroke="#B9CFD7" stroke-width="0.5" data-z-index="1" class="highcharts-grid-line" d="M 79 184.25 L 590 184.25" opacity="1"></path><path fill="none" stroke="#B9CFD7" stroke-width="0.5" data-z-index="1" class="highcharts-grid-line" d="M 79 147.25 L 590 147.25" opacity="1"></path><path fill="none" stroke="#B9CFD7" stroke-width="0.5" data-z-index="1" class="highcharts-grid-line" d="M 79 110.75 L 590 110.75" opacity="1"></path></g><rect fill="none" class="highcharts-plot-border" data-z-index="1" x="79" y="111" width="511" height="255"></rect><g class="highcharts-axis highcharts-xaxis" data-z-index="2"><path fill="none" class="highcharts-axis-line" stroke="#B9CFD7" stroke-width="0.5" data-z-index="7" d="M 79 366.25 L 590 366.25"></path></g><g class="highcharts-axis highcharts-yaxis" data-z-index="2"><path fill="none" class="highcharts-axis-line" data-z-index="7" d="M 79 111 L 79 366"></path></g><g class="highcharts-series-group" data-z-index="3"><g class="highcharts-series highcharts-series-0 highcharts-column-series" data-z-index="0.1" opacity="1" transform="translate(79,111) scale(1 1)" clip-path="url(#highcharts-qpg3wkj-50-)"><rect x="7" y="210" width="11" height="10" fill="#71a3b5" opacity="1" class="highcharts-point"></rect><rect x="44" y="200" width="11" height="20" fill="#71a3b5" opacity="1" class="highcharts-point"></rect><rect x="80" y="197" width="11" height="23" fill="#71a3b5" opacity="1" class="highcharts-point"></rect><rect x="117" y="220" width="11" height="20" fill="#71a3b5" opacity="1" class="highcharts-point highcharts-negative"></rect><rect x="153" y="175" width="11" height="45" fill="#71a3b5" opacity="1" class="highcharts-point"></rect><rect x="190" y="164" width="11" height="56" fill="#71a3b5" opacity="1" class="highcharts-point"></rect><rect x="226" y="193" width="11" height="27" fill="#71a3b5" opacity="1" class="highcharts-point"></rect><rect x="263" y="182" width="11" height="38" fill="#71a3b5" opacity="1" class="highcharts-point"></rect><rect x="299" y="209" width="11" height="11" fill="#71a3b5" opacity="1" class="highcharts-point"></rect><rect x="336" y="220" width="11" height="2" fill="#71a3b5" opacity="1" class="highcharts-point highcharts-negative"></rect><rect x="372" y="182" width="11" height="38" fill="#71a3b5" opacity="1" class="highcharts-point"></rect><rect x="409" y="197" width="11" height="23" fill="#71a3b5" opacity="1" class="highcharts-point"></rect><rect x="445" y="212" width="11" height="8" fill="#71a3b5" opacity="1" class="highcharts-point"></rect><rect x="482" y="206" width="11" height="14" fill="#71a3b5" opacity="1" class="highcharts-point"></rect></g><g class="highcharts-markers highcharts-series-0 highcharts-column-series" data-z-index="0.1" opacity="1" transform="translate(79,111) scale(1 1)" clip-path="none"></g><g class="highcharts-series highcharts-series-1 highcharts-column-series" data-z-index="0.1" opacity="1" transform="translate(79,111) scale(1 1)" clip-path="url(#highcharts-qpg3wkj-50-)"><rect x="18" y="220" width="11" height="28" fill="#ff8028" opacity="1" class="highcharts-point highcharts-negative"></rect><rect x="55" y="158" width="11" height="62" fill="#ff8028" opacity="1" class="highcharts-point"></rect><rect x="91" y="64" width="11" height="156" fill="#ff8028" opacity="1" class="highcharts-point"></rect><rect x="128" y="155" width="11" height="65" fill="#ff8028" opacity="1" class="highcharts-point"></rect><rect x="164" y="21" width="11" height="199" fill="#ff8028" opacity="1" class="highcharts-point"></rect><rect x="201" y="40" width="11" height="180" fill="#ff8028" opacity="1" class="highcharts-point"></rect><rect x="237" y="159" width="11" height="61" fill="#ff8028" opacity="1" class="highcharts-point"></rect><rect x="274" y="167" width="11" height="53" fill="#ff8028" opacity="1" class="highcharts-point"></rect><rect x="310" y="114" width="11" height="106" fill="#ff8028" opacity="1" class="highcharts-point"></rect><rect x="347" y="121" width="11" height="99" fill="#ff8028" opacity="1" class="highcharts-point"></rect><rect x="383" y="32" width="11" height="188" fill="#ff8028" opacity="1" class="highcharts-point"></rect><rect x="420" y="129" width="11" height="91" fill="#ff8028" opacity="1" class="highcharts-point"></rect><rect x="456" y="155" width="11" height="65" fill="#ff8028" opacity="1" class="highcharts-point"></rect><rect x="493" y="191" width="11" height="29" fill="#ff8028" opacity="1" class="highcharts-point"></rect></g><g class="highcharts-markers highcharts-series-1 highcharts-column-series" data-z-index="0.1" opacity="1" transform="translate(79,111) scale(1 1)" clip-path="none"></g></g><text x="10" text-anchor="start" class="highcharts-caption" data-z-index="4" style="color:#666666;fill:#666666;" y="400"></text><g class="highcharts-legend" data-z-index="7" transform="translate(71,73)"><rect fill="none" class="highcharts-legend-box" rx="0" ry="0" x="0" y="0" width="264" height="26" visibility="visible"></rect><g data-z-index="1"><g><g class="highcharts-legend-item highcharts-column-series highcharts-color-undefined highcharts-series-0" data-z-index="1" transform="translate(8,3)"><text x="21" style="color:#333333;cursor:pointer;font-size:12px;font-weight:normal;fill:#333333;" text-anchor="start" data-z-index="2" y="15"><tspan>Saldo Innenstadt</tspan></text><rect x="2" y="4" width="12" height="12" fill="#71a3b5" class="highcharts-point" data-z-index="3"></rect></g><g class="highcharts-legend-item highcharts-column-series highcharts-color-undefined highcharts-series-1" data-z-index="1" transform="translate(142,3)"><text x="21" y="15" style="color:#333333;cursor:pointer;font-size:12px;font-weight:normal;fill:#333333;" text-anchor="start" data-z-index="2"><tspan>Saldo Kanton BS</tspan></text><rect x="2" y="4" width="12" height="12" fill="#ff8028" class="highcharts-point" data-z-index="3"></rect></g></g></g></g><g class="highcharts-axis-labels highcharts-xaxis-labels" data-z-index="7"><text x="97.25" style="color:#000000;cursor:default;font-size:11px;fill:#000000;" text-anchor="middle" transform="translate(0,0)" y="385" opacity="1">2008</text><text x="133.75" style="color:#000000;cursor:default;font-size:11px;fill:#000000;" text-anchor="middle" transform="translate(0,0)" y="385" opacity="1">2009</text><text x="170.25" style="color:#000000;cursor:default;font-size:11px;fill:#000000;" text-anchor="middle" transform="translate(0,0)" y="385" opacity="1">2010</text><text x="206.75" style="color:#000000;cursor:default;font-size:11px;fill:#000000;" text-anchor="middle" transform="translate(0,0)" y="385" opacity="1">2011</text><text x="243.25" style="color:#000000;cursor:default;font-size:11px;fill:#000000;" text-anchor="middle" transform="translate(0,0)" y="385" opacity="1">2012</text><text x="279.75" style="color:#000000;cursor:default;font-size:11px;fill:#000000;" text-anchor="middle" transform="translate(0,0)" y="385" opacity="1">2013</text><text x="316.25" style="color:#000000;cursor:default;font-size:11px;fill:#000000;" text-anchor="middle" transform="translate(0,0)" y="385" opacity="1">2014</text><text x="352.75" style="color:#000000;cursor:default;font-size:11px;fill:#000000;" text-anchor="middle" transform="translate(0,0)" y="385" opacity="1">2015</text><text x="389.25" style="color:#000000;cursor:default;font-size:11px;fill:#000000;" text-anchor="middle" transform="translate(0,0)" y="385" opacity="1">2016</text><text x="425.75" style="color:#000000;cursor:default;font-size:11px;fill:#000000;" text-anchor="middle" transform="translate(0,0)" y="385" opacity="1">2017</text><text x="462.25" style="color:#000000;cursor:default;font-size:11px;fill:#000000;" text-anchor="middle" transform="translate(0,0)" y="385" opacity="1">2018</text><text x="498.75" style="color:#000000;cursor:default;font-size:11px;fill:#000000;" text-anchor="middle" transform="translate(0,0)" y="385" opacity="1">2019</text><text x="535.25" style="color:#000000;cursor:default;font-size:11px;fill:#000000;" text-anchor="middle" transform="translate(0,0)" y="385" opacity="1">2020</text><text x="571.75" style="color:#000000;cursor:default;font-size:11px;fill:#000000;" text-anchor="middle" transform="translate(0,0)" y="385" opacity="1">2021</text></g><g class="highcharts-axis-labels highcharts-yaxis-labels" data-z-index="7"><text x="64" style="color:#000000;cursor:default;font-size:11px;fill:#000000;" text-anchor="end" transform="translate(0,0)" y="370" opacity="1"><tspan>-2 500 000</tspan></text><text x="64" style="color:#000000;cursor:default;font-size:11px;fill:#000000;" text-anchor="end" transform="translate(0,0)" y="334" opacity="1">0</text><text x="64" style="color:#000000;cursor:default;font-size:11px;fill:#000000;" text-anchor="end" transform="translate(0,0)" y="297" opacity="1"><tspan>2 500 000</tspan></text><text x="64" style="color:#000000;cursor:default;font-size:11px;fill:#000000;" text-anchor="end" transform="translate(0,0)" y="261" opacity="1"><tspan>5 000 000</tspan></text><text x="64" style="color:#000000;cursor:default;font-size:11px;fill:#000000;" text-anchor="end" transform="translate(0,0)" y="224" opacity="1"><tspan>7 500 000</tspan></text><text x="64" style="color:#000000;cursor:default;font-size:11px;fill:#000000;" text-anchor="end" transform="translate(0,0)" y="188" opacity="1"><tspan>10 000 000</tspan></text><text x="64" style="color:#000000;cursor:default;font-size:11px;fill:#000000;" text-anchor="end" transform="translate(0,0)" y="151" opacity="1"><tspan>12 500 000</tspan></text><text x="64" style="color:#000000;cursor:default;font-size:11px;fill:#000000;" text-anchor="end" transform="translate(0,0)" y="115" opacity="1"><tspan>15 000 000</tspan></text></g></svg>