<?xml version="1.0" standalone="no"?><!DOCTYPE svg PUBLIC "-//W3C//DTD SVG 1.1//EN" "http://www.w3.org/Graphics/SVG/1.1/DTD/svg11.dtd"><svg xmlns:xlink="http://www.w3.org/1999/xlink" version="1.1" class="highcharts-root" style="font-family:Inter,Helvetica Neue,Helvetica,Arial,sans-serif;font-size:12px;" xmlns="http://www.w3.org/2000/svg" width="600" height="428"><desc>Created with Highcharts 8.2.2</desc><defs><clipPath id="highcharts-7yrwqlv-47-"><rect x="0" y="0" width="537" height="172" fill="none"></rect></clipPath><clipPath id="highcharts-7yrwqlv-56-"><rect x="0" y="0" width="537" height="172" fill="none"></rect></clipPath><clipPath id="highcharts-7yrwqlv-89-"><rect x="53" y="179" width="537" height="172" fill="none"></rect></clipPath></defs><rect fill="#ffffff" class="highcharts-background" x="0" y="0" width="600" height="428" rx="0" ry="0"></rect><rect fill="none" class="highcharts-plot-background" x="53" y="179" width="537" height="172"></rect><g class="highcharts-pane-group" data-z-index="0"></g><g class="highcharts-grid highcharts-xaxis-grid" data-z-index="1"><path fill="none" data-z-index="1" class="highcharts-grid-line" d="M 57.5 179 L 57.5 351" opacity="1"></path><path fill="none" data-z-index="1" class="highcharts-grid-line" d="M 132.5 179 L 132.5 351" opacity="1"></path><path fill="none" data-z-index="1" class="highcharts-grid-line" d="M 208.5 179 L 208.5 351" opacity="1"></path><path fill="none" data-z-index="1" class="highcharts-grid-line" d="M 283.5 179 L 283.5 351" opacity="1"></path><path fill="none" data-z-index="1" class="highcharts-grid-line" d="M 358.5 179 L 358.5 351" opacity="1"></path><path fill="none" data-z-index="1" class="highcharts-grid-line" d="M 433.5 179 L 433.5 351" opacity="1"></path><path fill="none" data-z-index="1" class="highcharts-grid-line" d="M 509.5 179 L 509.5 351" opacity="1"></path><path fill="none" data-z-index="1" class="highcharts-grid-line" d="M 584.5 179 L 584.5 351" opacity="1"></path></g><g class="highcharts-grid highcharts-yaxis-grid" data-z-index="1"><path fill="none" stroke="#B9CFD7" stroke-width="0.5" data-z-index="1" class="highcharts-grid-line" d="M 53 351.25 L 590 351.25" opacity="1"></path><path fill="none" stroke="#B9CFD7" stroke-width="0.5" data-z-index="1" class="highcharts-grid-line" d="M 53 308.25 L 590 308.25" opacity="1"></path><path fill="none" stroke="#B9CFD7" stroke-width="0.5" data-z-index="1" class="highcharts-grid-line" d="M 53 265.25 L 590 265.25" opacity="1"></path><path fill="none" stroke="#B9CFD7" stroke-width="0.5" data-z-index="1" class="highcharts-grid-line" d="M 53 222.25 L 590 222.25" opacity="1"></path><path fill="none" stroke="#B9CFD7" stroke-width="0.5" data-z-index="1" class="highcharts-grid-line" d="M 53 178.75 L 590 178.75" opacity="1"></path></g><rect fill="none" class="highcharts-plot-border" data-z-index="1" x="53" y="179" width="537" height="172"></rect><g class="highcharts-axis highcharts-xaxis" data-z-index="2"><path fill="none" class="highcharts-axis-line" stroke="#B9CFD7" stroke-width="0.5" data-z-index="7" d="M 53 351.25 L 590 351.25"></path></g><g class="highcharts-axis highcharts-yaxis" data-z-index="2"><path fill="none" class="highcharts-axis-line" data-z-index="7" d="M 53 179 L 53 351"></path></g><g class="highcharts-series-group" data-z-index="3"><g class="highcharts-series highcharts-series-0 highcharts-line-series" data-z-index="0.1" opacity="1" transform="translate(53,179) scale(1 1)" clip-path="url(#highcharts-7yrwqlv-56-)"><path fill="none" d="M 5.2647058823482 50.43900000000002 L 80.474789915963 39.181599999999975 L 155.68487394958 47.476299999999995 L 230.89495798319 40.845699999999994 L 306.10504201681 46.44 L 381.31512605042 51.79780000000004 L 456.52521008404 52.515899999999974 L 531.73529411765 51.85800000000002" class="highcharts-graph" data-z-index="1" stroke="#4f81bd" stroke-width="2" stroke-linejoin="round" stroke-linecap="round"></path></g><g class="highcharts-markers highcharts-series-0 highcharts-line-series" data-z-index="0.1" opacity="1" transform="translate(53,179) scale(1 1)" clip-path="none"></g><g class="highcharts-series highcharts-series-1 highcharts-line-series" data-z-index="0.1" opacity="1" transform="translate(53,179) scale(1 1)" clip-path="url(#highcharts-7yrwqlv-56-)"><path fill="none" d="M 5.2647058823482 62.169399999999996 L 80.474789915963 61.6319 L 155.68487394958 54.261700000000005 L 230.89495798319 77.98479999999998 L 306.10504201681 65.20089999999999 L 381.31512605042 80.17349999999999 L 456.52521008404 56.373000000000005 L 531.73529411765 65.52770000000002" class="highcharts-graph" data-z-index="1" stroke="#662673" stroke-width="2" stroke-linejoin="round" stroke-linecap="round"></path></g><g class="highcharts-markers highcharts-series-1 highcharts-line-series" data-z-index="0.1" opacity="1" transform="translate(53,179) scale(1 1)" clip-path="none"></g><g class="highcharts-series highcharts-series-2 highcharts-line-series" data-z-index="0.1" opacity="1" transform="translate(53,179) scale(1 1)" clip-path="url(#highcharts-7yrwqlv-56-)"><path fill="none" d="M 5.2647058823482 62.65099999999998" class="highcharts-graph" data-z-index="1" stroke="#7F5F1A" stroke-width="2" stroke-linejoin="round" stroke-linecap="round"></path></g><g class="highcharts-markers highcharts-series-2 highcharts-line-series" data-z-index="0.1" opacity="1" transform="translate(53,179) scale(1 1)" clip-path="none"><path fill="#7F5F1A" d="M 5 67 A 4 4 0 1 1 5.0039999993333355 66.99999800000016 Z" opacity="1" class="highcharts-point"></path></g><g class="highcharts-series highcharts-series-3 highcharts-line-series" data-z-index="0.1" opacity="1" transform="translate(53,179) scale(1 1)" clip-path="url(#highcharts-7yrwqlv-56-)"><path fill="none" d="M 5.2647058823482 110.00259999999997 L 80.474789915963 106.1412 L 155.68487394958 126.48450000000003 L 230.89495798319 123.4057 L 306.10504201681 120.97189999999998 L 381.31512605042 117.9146 L 456.52521008404 101.4972 L 531.73529411765 94.2947" class="highcharts-graph" data-z-index="1" stroke="#FABD24" stroke-width="2" stroke-linejoin="round" stroke-linecap="round"></path></g><g class="highcharts-markers highcharts-series-3 highcharts-line-series" data-z-index="0.1" opacity="1" transform="translate(53,179) scale(1 1)" clip-path="none"></g><g class="highcharts-series highcharts-series-4 highcharts-line-series" data-z-index="0.1" opacity="1" transform="translate(53,179) scale(1 1)" clip-path="url(#highcharts-7yrwqlv-56-)"><path fill="none" d="M 5.2647058823482 62.35000000000001 L 80.474789915963 55.03999999999999 L 155.68487394958 62.77999999999999 L 230.89495798319 63.21000000000002 L 306.10504201681 63.639999999999986 L 381.31512605042 69.22999999999998 L 456.52521008404 62.77999999999999 L 531.73529411765 62.77999999999999" class="highcharts-graph" data-z-index="1" stroke="#000000" stroke-width="2" stroke-linejoin="round" stroke-linecap="round"></path></g><g class="highcharts-markers highcharts-series-4 highcharts-line-series" data-z-index="0.1" opacity="1" transform="translate(53,179) scale(1 1)" clip-path="none"></g></g><text x="10" text-anchor="start" class="highcharts-caption" data-z-index="4" style="color:#666666;fill:#666666;" y="385"></text><g class="highcharts-legend" data-z-index="7" transform="translate(45,56)"><rect fill="none" class="highcharts-legend-box" rx="0" ry="0" x="0" y="0" width="345" height="111" visibility="visible"></rect><g data-z-index="1"><g><g class="highcharts-legend-item highcharts-line-series highcharts-color-undefined highcharts-series-0" data-z-index="1" transform="translate(8,3)"><path fill="none" d="M 0 11 L 16 11" class="highcharts-graph" stroke="#4f81bd" stroke-width="2"></path><text x="21" style="color:#333333;cursor:pointer;font-size:12px;font-weight:normal;fill:#333333;" text-anchor="start" data-z-index="2" y="15"><tspan>In der Schweiz geborene Schweizerinnen und Schweizer</tspan></text></g><g class="highcharts-legend-item highcharts-line-series highcharts-color-undefined highcharts-series-1" data-z-index="1" transform="translate(8,23)"><path fill="none" d="M 0 11 L 16 11" class="highcharts-graph" stroke="#662673" stroke-width="2"></path><text x="21" y="15" style="color:#333333;cursor:pointer;font-size:12px;font-weight:normal;fill:#333333;" text-anchor="start" data-z-index="2"><tspan>In der Schweiz geborene Ausländerinnen und Ausländer</tspan></text></g><g class="highcharts-legend-item highcharts-line-series highcharts-color-undefined highcharts-series-2" data-z-index="1" transform="translate(8,43)"><path fill="none" d="M 0 11 L 16 11" class="highcharts-graph" stroke="#7F5F1A" stroke-width="2"></path><path fill="#7F5F1A" d="M 8 15 A 4 4 0 1 1 8.003999999333336 14.999998000000167 Z" class="highcharts-point" opacity="1"></path><text x="21" y="15" style="color:#333333;cursor:pointer;font-size:12px;font-weight:normal;fill:#333333;" text-anchor="start" data-z-index="2"><tspan>Im Ausland geborene Schweizerinnen und Schweizer</tspan></text></g><g class="highcharts-legend-item highcharts-line-series highcharts-color-undefined highcharts-series-3" data-z-index="1" transform="translate(8,63)"><path fill="none" d="M 0 11 L 16 11" class="highcharts-graph" stroke="#FABD24" stroke-width="2"></path><text x="21" y="15" style="color:#333333;cursor:pointer;font-size:12px;font-weight:normal;fill:#333333;" text-anchor="start" data-z-index="2"><tspan>Im Ausland geborene Ausländerinnen und Ausländer</tspan></text></g><g class="highcharts-legend-item highcharts-line-series highcharts-color-undefined highcharts-series-4" data-z-index="1" transform="translate(8,83)"><path fill="none" d="M 0 11 L 16 11" class="highcharts-graph" stroke="#000000" stroke-width="2"></path><text x="21" y="15" style="color:#333333;cursor:pointer;font-size:12px;font-weight:normal;fill:#333333;" text-anchor="start" data-z-index="2"><tspan>Total</tspan></text></g></g></g></g><g class="highcharts-axis-labels highcharts-xaxis-labels" data-z-index="7"><text x="58.264705882348" style="color:#000000;cursor:default;font-size:11px;fill:#000000;" text-anchor="middle" transform="translate(0,0)" y="370" opacity="1">2015</text><text x="133.47478991596" style="color:#000000;cursor:default;font-size:11px;fill:#000000;" text-anchor="middle" transform="translate(0,0)" y="370" opacity="1">2016</text><text x="208.68487394958" style="color:#000000;cursor:default;font-size:11px;fill:#000000;" text-anchor="middle" transform="translate(0,0)" y="370" opacity="1">2017</text><text x="283.89495798319" style="color:#000000;cursor:default;font-size:11px;fill:#000000;" text-anchor="middle" transform="translate(0,0)" y="370" opacity="1">2018</text><text x="359.10504201681" style="color:#000000;cursor:default;font-size:11px;fill:#000000;" text-anchor="middle" transform="translate(0,0)" y="370" opacity="1">2019</text><text x="434.31512605042" style="color:#000000;cursor:default;font-size:11px;fill:#000000;" text-anchor="middle" transform="translate(0,0)" y="370" opacity="1">2020</text><text x="509.52521008404" style="color:#000000;cursor:default;font-size:11px;fill:#000000;" text-anchor="middle" transform="translate(0,0)" y="370" opacity="1">2021</text><text x="578" style="color:#000000;cursor:default;font-size:11px;fill:#000000;" text-anchor="middle" transform="translate(0,0)" y="370" opacity="1">2022</text></g><g class="highcharts-axis-labels highcharts-yaxis-labels" data-z-index="7"><text x="38" style="color:#000000;cursor:default;font-size:11px;fill:#000000;" text-anchor="end" transform="translate(0,0)" y="355" opacity="1">60%</text><text x="38" style="color:#000000;cursor:default;font-size:11px;fill:#000000;" text-anchor="end" transform="translate(0,0)" y="312" opacity="1">70%</text><text x="38" style="color:#000000;cursor:default;font-size:11px;fill:#000000;" text-anchor="end" transform="translate(0,0)" y="269" opacity="1">80%</text><text x="38" style="color:#000000;cursor:default;font-size:11px;fill:#000000;" text-anchor="end" transform="translate(0,0)" y="226" opacity="1">90%</text><text x="38" style="color:#000000;cursor:default;font-size:11px;fill:#000000;" text-anchor="end" transform="translate(0,0)" y="183" opacity="1">100%</text></g></svg>