<svg version="1.1" class="highcharts-root" style="font-family: Inter, &quot;Helvetica Neue&quot;, Helvetica, Arial, sans-serif; font-size: 1rem;" xmlns="http://www.w3.org/2000/svg" width="600" height="400" viewBox="0 0 600 400" role="img" aria-label="Bevölkerungsdichte in Bauzone"><desc>Created with Highcharts 12.5.0</desc><defs><filter id="highcharts-drop-shadow-0"><feDropShadow dx="1" dy="1" flood-color="#000000" flood-opacity="0.75" stdDeviation="2.5"></feDropShadow></filter><clipPath id="highcharts-owokcuf-378-"><rect x="0" y="0" width="544" height="154" fill="none"></rect></clipPath></defs><rect fill="#ffffff" class="highcharts-background" filter="none" x="0" y="0" width="600" height="400" rx="0" ry="0"></rect><rect fill="none" class="highcharts-plot-background" x="46" y="135" width="544" height="154" filter="none"></rect><g class="highcharts-pane-group" data-z-index="0"></g><g class="highcharts-grid highcharts-xaxis-grid" data-z-index="1"><path fill="none" stroke="#e6e6e6" stroke-width="0" stroke-dasharray="none" data-z-index="1" class="highcharts-grid-line" d="M 51.5 135 L 51.5 289" opacity="1"></path><path fill="none" stroke="#e6e6e6" stroke-width="0" stroke-dasharray="none" data-z-index="1" class="highcharts-grid-line" d="M 80.5 135 L 80.5 289" opacity="1"></path><path fill="none" stroke="#e6e6e6" stroke-width="0" stroke-dasharray="none" data-z-index="1" class="highcharts-grid-line" d="M 110.5 135 L 110.5 289" opacity="1"></path><path fill="none" stroke="#e6e6e6" stroke-width="0" stroke-dasharray="none" data-z-index="1" class="highcharts-grid-line" d="M 140.5 135 L 140.5 289" opacity="1"></path><path fill="none" stroke="#e6e6e6" stroke-width="0" stroke-dasharray="none" data-z-index="1" class="highcharts-grid-line" d="M 169.5 135 L 169.5 289" opacity="1"></path><path fill="none" stroke="#e6e6e6" stroke-width="0" stroke-dasharray="none" data-z-index="1" class="highcharts-grid-line" d="M 199.5 135 L 199.5 289" opacity="1"></path><path fill="none" stroke="#e6e6e6" stroke-width="0" stroke-dasharray="none" data-z-index="1" class="highcharts-grid-line" d="M 229.5 135 L 229.5 289" opacity="1"></path><path fill="none" stroke="#e6e6e6" stroke-width="0" stroke-dasharray="none" data-z-index="1" class="highcharts-grid-line" d="M 258.5 135 L 258.5 289" opacity="1"></path><path fill="none" stroke="#e6e6e6" stroke-width="0" stroke-dasharray="none" data-z-index="1" class="highcharts-grid-line" d="M 288.5 135 L 288.5 289" opacity="1"></path><path fill="none" stroke="#e6e6e6" stroke-width="0" stroke-dasharray="none" data-z-index="1" class="highcharts-grid-line" d="M 318.5 135 L 318.5 289" opacity="1"></path><path fill="none" stroke="#e6e6e6" stroke-width="0" stroke-dasharray="none" data-z-index="1" class="highcharts-grid-line" d="M 347.5 135 L 347.5 289" opacity="1"></path><path fill="none" stroke="#e6e6e6" stroke-width="0" stroke-dasharray="none" data-z-index="1" class="highcharts-grid-line" d="M 377.5 135 L 377.5 289" opacity="1"></path><path fill="none" stroke="#e6e6e6" stroke-width="0" stroke-dasharray="none" data-z-index="1" class="highcharts-grid-line" d="M 406.5 135 L 406.5 289" opacity="1"></path><path fill="none" stroke="#e6e6e6" stroke-width="0" stroke-dasharray="none" data-z-index="1" class="highcharts-grid-line" d="M 436.5 135 L 436.5 289" opacity="1"></path><path fill="none" stroke="#e6e6e6" stroke-width="0" stroke-dasharray="none" data-z-index="1" class="highcharts-grid-line" d="M 466.5 135 L 466.5 289" opacity="1"></path><path fill="none" stroke="#e6e6e6" stroke-width="0" stroke-dasharray="none" data-z-index="1" class="highcharts-grid-line" d="M 495.5 135 L 495.5 289" opacity="1"></path><path fill="none" stroke="#e6e6e6" stroke-width="0" stroke-dasharray="none" data-z-index="1" class="highcharts-grid-line" d="M 525.5 135 L 525.5 289" opacity="1"></path><path fill="none" stroke="#e6e6e6" stroke-width="0" stroke-dasharray="none" data-z-index="1" class="highcharts-grid-line" d="M 555.5 135 L 555.5 289" opacity="1"></path><path fill="none" stroke="#e6e6e6" stroke-width="0" stroke-dasharray="none" data-z-index="1" class="highcharts-grid-line" d="M 584.5 135 L 584.5 289" opacity="1"></path></g><g class="highcharts-grid highcharts-yaxis-grid" data-z-index="1"><path fill="none" stroke="#B9CFD7" stroke-width="0.5" stroke-dasharray="none" data-z-index="1" class="highcharts-grid-line" d="M 46 289.25 L 590 289.25" opacity="1"></path><path fill="none" stroke="#B9CFD7" stroke-width="0.5" stroke-dasharray="none" data-z-index="1" class="highcharts-grid-line" d="M 46 212.25 L 590 212.25" opacity="1"></path><path fill="none" stroke="#B9CFD7" stroke-width="0.5" stroke-dasharray="none" data-z-index="1" class="highcharts-grid-line" d="M 46 135.25 L 590 135.25" opacity="1"></path></g><rect fill="none" class="highcharts-plot-border" data-z-index="1" stroke="#cccccc" stroke-width="0" x="46" y="135" width="544" height="154"></rect><g class="highcharts-axis highcharts-xaxis" data-z-index="2"><path fill="none" class="highcharts-axis-line" stroke="#B9CFD7" stroke-width="0.5" data-z-index="7" d="M 46 289.25 L 590 289.25"></path></g><g class="highcharts-axis highcharts-yaxis" data-z-index="2"><path fill="none" class="highcharts-axis-line" stroke="#B9CFD7" stroke-width="0" data-z-index="7" d="M 46 135 L 46 289"></path></g><g class="highcharts-series-group" data-z-index="3" filter="none"><g class="highcharts-series highcharts-series-0 highcharts-line-series" data-z-index="0.1" opacity="1" transform="translate(46,135) scale(1 1)" clip-path="url(#highcharts-owokcuf-378-)"><path fill="none" d="M 5.3333333333352 53.9 L 34.962962962965 53.9 L 64.592592592594 53.823 L 94.222222222223 53.13 L 123.85185185185 52.437 L 153.48148148148 52.36 L 183.11111111111 51.59 L 212.74074074074 50.974 L 242.37037037037 49.973 L 272 49.511 L 301.62962962963 49.126 L 331.25925925926 48.587 L 360.88888888889 48.279 L 390.51851851852 47.663 L 420.14814814815 47.278 L 449.77777777778 46.354 L 479.40740740741 46.354 L 509.03703703704 44.891 L 538.66666666666 44.275" class="highcharts-graph" data-z-index="1" stroke="#B00000" stroke-width="2" stroke-linejoin="round" stroke-linecap="round" filter="none"></path><path fill="none" d="M 5.3333333333352 53.9 L 34.962962962965 53.9 L 64.592592592594 53.823 L 94.222222222223 53.13 L 123.85185185185 52.437 L 153.48148148148 52.36 L 183.11111111111 51.59 L 212.74074074074 50.974 L 242.37037037037 49.973 L 272 49.511 L 301.62962962963 49.126 L 331.25925925926 48.587 L 360.88888888889 48.279 L 390.51851851852 47.663 L 420.14814814815 47.278 L 449.77777777778 46.354 L 479.40740740741 46.354 L 509.03703703704 44.891 L 538.66666666666 44.275" data-z-index="2" class="highcharts-tracker-line" stroke-linecap="round" stroke-linejoin="round" stroke="rgba(192,192,192,0.0001)" stroke-width="22"></path></g><g class="highcharts-markers highcharts-series-0 highcharts-line-series highcharts-tracker" data-z-index="0.1" opacity="1" transform="translate(46,135) scale(1 1)" clip-path="none"></g><g class="highcharts-series highcharts-series-1 highcharts-line-series" data-z-index="0.1" opacity="1" transform="translate(46,135) scale(1 1)" clip-path="url(#highcharts-owokcuf-378-)"><path fill="none" d="M 5.3333333333352 39.655 L 34.962962962965 39.732 L 64.592592592594 39.578 L 94.222222222223 38.654 L 123.85185185185 37.884 L 153.48148148148 37.73 L 183.11111111111 36.806 L 212.74074074074 36.652 L 242.37037037037 35.497 L 272 35.343 L 301.62962962963 34.881 L 331.25925925926 34.342 L 360.88888888889 33.726 L 390.51851851852 32.956 L 420.14814814815 33.264 L 449.77777777778 32.263 L 479.40740740741 32.263 L 509.03703703704 30.646 L 538.66666666666 30.03" class="highcharts-graph" data-z-index="1" stroke="#246370" stroke-width="2" stroke-linejoin="round" stroke-linecap="round" filter="none"></path><path fill="none" d="M 5.3333333333352 39.655 L 34.962962962965 39.732 L 64.592592592594 39.578 L 94.222222222223 38.654 L 123.85185185185 37.884 L 153.48148148148 37.73 L 183.11111111111 36.806 L 212.74074074074 36.652 L 242.37037037037 35.497 L 272 35.343 L 301.62962962963 34.881 L 331.25925925926 34.342 L 360.88888888889 33.726 L 390.51851851852 32.956 L 420.14814814815 33.264 L 449.77777777778 32.263 L 479.40740740741 32.263 L 509.03703703704 30.646 L 538.66666666666 30.03" data-z-index="2" class="highcharts-tracker-line" stroke-linecap="round" stroke-linejoin="round" stroke="rgba(192,192,192,0.0001)" stroke-width="22"></path></g><g class="highcharts-markers highcharts-series-1 highcharts-line-series highcharts-tracker" data-z-index="0.1" opacity="1" transform="translate(46,135) scale(1 1)" clip-path="none"></g><g class="highcharts-series highcharts-series-2 highcharts-line-series" data-z-index="0.1" opacity="1" transform="translate(46,135) scale(1 1)" clip-path="url(#highcharts-owokcuf-378-)"><path fill="none" d="M 5.3333333333352 114.884 L 34.962962962965 114.884 L 64.592592592594 114.807 L 94.222222222223 114.499 L 123.85185185185 114.268 L 153.48148148148 114.268 L 183.11111111111 113.96 L 212.74074074074 113.729 L 242.37037037037 113.267 L 272 113.036 L 301.62962962963 112.882 L 331.25925925926 111.496 L 360.88888888889 111.342 L 390.51851851852 111.034 L 420.14814814815 111.034 L 449.77777777778 110.649 L 479.40740740741 110.726 L 509.03703703704 110.11 L 538.66666666666 109.725" class="highcharts-graph" data-z-index="1" stroke="#008AC3" stroke-width="2" stroke-linejoin="round" stroke-linecap="round" filter="none"></path><path fill="none" d="M 5.3333333333352 114.884 L 34.962962962965 114.884 L 64.592592592594 114.807 L 94.222222222223 114.499 L 123.85185185185 114.268 L 153.48148148148 114.268 L 183.11111111111 113.96 L 212.74074074074 113.729 L 242.37037037037 113.267 L 272 113.036 L 301.62962962963 112.882 L 331.25925925926 111.496 L 360.88888888889 111.342 L 390.51851851852 111.034 L 420.14814814815 111.034 L 449.77777777778 110.649 L 479.40740740741 110.726 L 509.03703703704 110.11 L 538.66666666666 109.725" data-z-index="2" class="highcharts-tracker-line" stroke-linecap="round" stroke-linejoin="round" stroke="rgba(192,192,192,0.0001)" stroke-width="22"></path></g><g class="highcharts-markers highcharts-series-2 highcharts-line-series highcharts-tracker" data-z-index="0.1" opacity="1" transform="translate(46,135) scale(1 1)" clip-path="none"></g></g><text x="10" text-anchor="start" class="highcharts-caption" data-z-index="4" style="font-size: 0.8em; fill: rgb(102, 102, 102);" text-align="left" y="347" transform-origin="10 15" transform="translate(0,0) scale(1 1)"></text><g class="highcharts-axis-labels highcharts-xaxis-labels" data-z-index="7"><text x="54.16176045808119" text-anchor="end" transform="translate(0,0) rotate(-45 54.16176045808119 312)" style="cursor: default; font-size: 0.8em; fill: rgb(0, 0, 0);" y="312" opacity="1">2005</text><text x="83.79139008771118" text-anchor="end" transform="translate(0,0) rotate(-45 83.79139008771118 312)" style="cursor: default; font-size: 0.8em; fill: rgb(0, 0, 0);" y="312" opacity="1">2006</text><text x="113.42101971733618" text-anchor="end" transform="translate(0,0) rotate(-45 113.42101971733618 312)" style="cursor: default; font-size: 0.8em; fill: rgb(0, 0, 0);" y="312" opacity="1">2007</text><text x="143.0506493469662" text-anchor="end" transform="translate(0,0) rotate(-45 143.0506493469662 312)" style="cursor: default; font-size: 0.8em; fill: rgb(0, 0, 0);" y="312" opacity="1">2008</text><text x="172.68027897659618" text-anchor="end" transform="translate(0,0) rotate(-45 172.68027897659618 312)" style="cursor: default; font-size: 0.8em; fill: rgb(0, 0, 0);" y="312" opacity="1">2009</text><text x="202.30990860622617" text-anchor="end" transform="translate(0,0) rotate(-45 202.30990860622617 312)" style="cursor: default; font-size: 0.8em; fill: rgb(0, 0, 0);" y="312" opacity="1">2010</text><text x="231.9395382358562" text-anchor="end" transform="translate(0,0) rotate(-45 231.9395382358562 312)" style="cursor: default; font-size: 0.8em; fill: rgb(0, 0, 0);" y="312" opacity="1">2011</text><text x="261.56916786548624" text-anchor="end" transform="translate(0,0) rotate(-45 261.56916786548624 312)" style="cursor: default; font-size: 0.8em; fill: rgb(0, 0, 0);" y="312" opacity="1">2012</text><text x="291.1987974951162" text-anchor="end" transform="translate(0,0) rotate(-45 291.1987974951162 312)" style="cursor: default; font-size: 0.8em; fill: rgb(0, 0, 0);" y="312" opacity="1">2013</text><text x="320.8284271247462" text-anchor="end" transform="translate(0,0) rotate(-45 320.8284271247462 312)" style="cursor: default; font-size: 0.8em; fill: rgb(0, 0, 0);" y="312" opacity="1">2014</text><text x="350.45805675437623" text-anchor="end" transform="translate(0,0) rotate(-45 350.45805675437623 312)" style="cursor: default; font-size: 0.8em; fill: rgb(0, 0, 0);" y="312" opacity="1">2015</text><text x="380.0876863840062" text-anchor="end" transform="translate(0,0) rotate(-45 380.0876863840062 312)" style="cursor: default; font-size: 0.8em; fill: rgb(0, 0, 0);" y="312" opacity="1">2016</text><text x="409.7173160136362" text-anchor="end" transform="translate(0,0) rotate(-45 409.7173160136362 312)" style="cursor: default; font-size: 0.8em; fill: rgb(0, 0, 0);" y="312" opacity="1">2017</text><text x="439.3469456432662" text-anchor="end" transform="translate(0,0) rotate(-45 439.3469456432662 312)" style="cursor: default; font-size: 0.8em; fill: rgb(0, 0, 0);" y="312" opacity="1">2018</text><text x="468.97657527289624" text-anchor="end" transform="translate(0,0) rotate(-45 468.97657527289624 312)" style="cursor: default; font-size: 0.8em; fill: rgb(0, 0, 0);" y="312" opacity="1">2019</text><text x="498.6062049025262" text-anchor="end" transform="translate(0,0) rotate(-45 498.6062049025262 312)" style="cursor: default; font-size: 0.8em; fill: rgb(0, 0, 0);" y="312" opacity="1">2020</text><text x="528.2358345321562" text-anchor="end" transform="translate(0,0) rotate(-45 528.2358345321562 312)" style="cursor: default; font-size: 0.8em; fill: rgb(0, 0, 0);" y="312" opacity="1">2021</text><text x="557.8654641617862" text-anchor="end" transform="translate(0,0) rotate(-45 557.8654641617862 312)" style="cursor: default; font-size: 0.8em; fill: rgb(0, 0, 0);" y="312" opacity="1">2022</text><text x="587.4950937914062" text-anchor="end" transform="translate(0,0) rotate(-45 587.4950937914062 312)" style="cursor: default; font-size: 0.8em; fill: rgb(0, 0, 0);" y="312" opacity="1">2023</text></g><g class="highcharts-axis-labels highcharts-yaxis-labels" data-z-index="7"><text x="31" text-anchor="end" transform="translate(0,0)" style="cursor: default; font-size: 0.8em; fill: rgb(0, 0, 0);" y="294" opacity="1">0</text><text x="31" text-anchor="end" transform="translate(0,0)" style="cursor: default; font-size: 0.8em; fill: rgb(0, 0, 0);" y="217" opacity="1">100</text><text x="31" text-anchor="end" transform="translate(0,0)" style="cursor: default; font-size: 0.8em; fill: rgb(0, 0, 0);" y="140" opacity="1">200</text></g><g class="highcharts-legend highcharts-no-tooltip" data-z-index="7" text-align="left" transform="translate(38,55)"><rect fill="none" class="highcharts-legend-box" rx="0" ry="0" stroke="#999999" stroke-width="0" filter="none" x="0" y="0" width="393" height="68"></rect><g data-z-index="1"><g><g class="highcharts-legend-item highcharts-line-series highcharts-color-undefined highcharts-series-0" data-z-index="1" transform="translate(8,3)"><path fill="none" class="highcharts-graph" stroke-width="2" stroke-linecap="round" d="M 1 13 L 15 13" stroke="#B00000"></path><text x="21" text-anchor="start" data-z-index="2" style="cursor: pointer; font-size: 0.8em; text-decoration: none; font-weight: normal; fill: rgb(51, 51, 51);" y="17">Bevölkerungsdichte in Bauzonen</text></g><g class="highcharts-legend-item highcharts-line-series highcharts-color-undefined highcharts-series-1" data-z-index="1" transform="translate(8,22)"><path fill="none" class="highcharts-graph" stroke-width="2" stroke-linecap="round" d="M 1 13 L 15 13" stroke="#246370"></path><text x="21" y="17" text-anchor="start" data-z-index="2" style="cursor: pointer; font-size: 0.8em; text-decoration: none; font-weight: normal; fill: rgb(51, 51, 51);">Bevölkerungsdichte in Bauzonen mit potentieller Wohnnutzung</text></g><g class="highcharts-legend-item highcharts-line-series highcharts-color-undefined highcharts-series-2" data-z-index="1" transform="translate(8,41)"><path fill="none" class="highcharts-graph" stroke-width="2" stroke-linecap="round" d="M 1 13 L 15 13" stroke="#008AC3"></path><text x="21" y="17" text-anchor="start" data-z-index="2" style="cursor: pointer; font-size: 0.8em; text-decoration: none; font-weight: normal; fill: rgb(51, 51, 51);">Bevölkerungsdichte Kanton Basel-Stadt</text></g></g></g></g></svg>