<?xml version="1.0" standalone="no"?><!DOCTYPE svg PUBLIC "-//W3C//DTD SVG 1.1//EN" "http://www.w3.org/Graphics/SVG/1.1/DTD/svg11.dtd"><svg xmlns:xlink="http://www.w3.org/1999/xlink" version="1.1" class="highcharts-root" style="font-family:Arial;font-size:12px;" xmlns="http://www.w3.org/2000/svg" viewBox="0 0 485 415"><desc>Created with Highcharts 8.2.0</desc><defs><clipPath id="highcharts-n7w58wy-126-"><rect x="0" y="0" width="402" height="232" fill="none"></rect></clipPath><clipPath id="highcharts-n7w58wy-166-"><rect x="0" y="0" width="402" height="232" fill="none"></rect></clipPath><clipPath id="highcharts-n7w58wy-206-"><rect x="0" y="0" width="402" height="232" fill="none"></rect></clipPath><clipPath id="highcharts-n7w58wy-246-"><rect x="52" y="124" width="402" height="232" fill="none"></rect></clipPath></defs><rect fill="#fbfbfb" class="highcharts-background" x="0" y="0" width="485" height="428" rx="0" ry="0"></rect><rect fill="none" class="highcharts-plot-background" x="52" y="124" width="402" height="232"></rect><g class="highcharts-pane-group" data-z-index="0"></g><g class="highcharts-grid highcharts-xaxis-grid" data-z-index="1"><path fill="none" data-z-index="1" class="highcharts-grid-line" d="M 56.5 124 L 56.5 356" opacity="1"></path><path fill="none" data-z-index="1" class="highcharts-grid-line" d="M 97.5 124 L 97.5 356" opacity="1"></path><path fill="none" data-z-index="1" class="highcharts-grid-line" d="M 139.5 124 L 139.5 356" opacity="1"></path><path fill="none" data-z-index="1" class="highcharts-grid-line" d="M 180.5 124 L 180.5 356" opacity="1"></path><path fill="none" data-z-index="1" class="highcharts-grid-line" d="M 221.5 124 L 221.5 356" opacity="1"></path><path fill="none" data-z-index="1" class="highcharts-grid-line" d="M 262.5 124 L 262.5 356" opacity="1"></path><path fill="none" data-z-index="1" class="highcharts-grid-line" d="M 304.5 124 L 304.5 356" opacity="1"></path><path fill="none" data-z-index="1" class="highcharts-grid-line" d="M 345.5 124 L 345.5 356" opacity="1"></path><path fill="none" data-z-index="1" class="highcharts-grid-line" d="M 386.5 124 L 386.5 356" opacity="1"></path><path fill="none" data-z-index="1" class="highcharts-grid-line" d="M 427.5 124 L 427.5 356" opacity="1"></path></g><g class="highcharts-grid highcharts-yaxis-grid" data-z-index="1"><path fill="none" stroke="#B9CFD7" stroke-width="0.5" data-z-index="1" class="highcharts-grid-line" d="M 52 356.25 L 454 356.25" opacity="1"></path><path fill="none" stroke="#B9CFD7" stroke-width="0.5" data-z-index="1" class="highcharts-grid-line" d="M 52 317.25 L 454 317.25" opacity="1"></path><path fill="none" stroke="#B9CFD7" stroke-width="0.5" data-z-index="1" class="highcharts-grid-line" d="M 52 279.25 L 454 279.25" opacity="1"></path><path fill="none" stroke="#B9CFD7" stroke-width="0.5" data-z-index="1" class="highcharts-grid-line" d="M 52 240.25 L 454 240.25" opacity="1"></path><path fill="none" stroke="#B9CFD7" stroke-width="0.5" data-z-index="1" class="highcharts-grid-line" d="M 52 201.25 L 454 201.25" opacity="1"></path><path fill="none" stroke="#B9CFD7" stroke-width="0.5" data-z-index="1" class="highcharts-grid-line" d="M 52 163.25 L 454 163.25" opacity="1"></path><path fill="none" stroke="#B9CFD7" stroke-width="0.5" data-z-index="1" class="highcharts-grid-line" d="M 52 123.75 L 454 123.75" opacity="1"></path></g><g class="highcharts-grid highcharts-yaxis-grid" data-z-index="1"><path fill="none" stroke="#B9CFD7" stroke-width="0.5" data-z-index="1" class="highcharts-grid-line" d="M 52 356.25 L 454 356.25" opacity="1"></path><path fill="none" stroke="#B9CFD7" stroke-width="0.5" data-z-index="1" class="highcharts-grid-line" d="M 52 317.25 L 454 317.25" opacity="1"></path><path fill="none" stroke="#B9CFD7" stroke-width="0.5" data-z-index="1" class="highcharts-grid-line" d="M 52 279.25 L 454 279.25" opacity="1"></path><path fill="none" stroke="#B9CFD7" stroke-width="0.5" data-z-index="1" class="highcharts-grid-line" d="M 52 240.25 L 454 240.25" opacity="1"></path><path fill="none" stroke="#B9CFD7" stroke-width="0.5" data-z-index="1" class="highcharts-grid-line" d="M 52 201.25 L 454 201.25" opacity="1"></path><path fill="none" stroke="#B9CFD7" stroke-width="0.5" data-z-index="1" class="highcharts-grid-line" d="M 52 163.25 L 454 163.25" opacity="1"></path><path fill="none" stroke="#B9CFD7" stroke-width="0.5" data-z-index="1" class="highcharts-grid-line" d="M 52 123.75 L 454 123.75" opacity="1"></path></g><rect fill="none" class="highcharts-plot-border" data-z-index="1" x="52" y="124" width="402" height="232"></rect><g class="highcharts-axis highcharts-xaxis" data-z-index="2"><path fill="none" class="highcharts-axis-line" stroke="#B9CFD7" stroke-width="0.5" data-z-index="7" d="M 52 356.25 L 454 356.25"></path></g><g class="highcharts-axis highcharts-yaxis" data-z-index="2"><path fill="none" class="highcharts-axis-line" data-z-index="7" d="M 52 124 L 52 356"></path></g><g class="highcharts-axis highcharts-yaxis" data-z-index="2"><path fill="none" class="highcharts-axis-line" data-z-index="7" d="M 454 124 L 454 356"></path></g><g class="highcharts-series-group" data-z-index="3"><g class="highcharts-series highcharts-series-0 highcharts-column-series" data-z-index="0.1" opacity="1" transform="translate(52,124) scale(1 1)" clip-path="url(#highcharts-n7w58wy-166-)"><rect x="12.5" y="39.5" width="5" height="193" fill="#73b97c" stroke="#ffffff" stroke-width="1e-7" opacity="1" class="highcharts-point"></rect><rect x="22.5" y="135.5" width="5" height="97" fill="#73b97c" stroke="#ffffff" stroke-width="1e-7" opacity="1" class="highcharts-point"></rect><rect x="43.5" y="39.5" width="5" height="193" fill="#73b97c" stroke="#ffffff" stroke-width="1e-7" opacity="1" class="highcharts-point"></rect><rect x="64.5" y="87.5" width="5" height="145" fill="#73b97c" stroke="#ffffff" stroke-width="1e-7" opacity="1" class="highcharts-point"></rect><rect x="74.5" y="135.5" width="5" height="97" fill="#73b97c" stroke="#ffffff" stroke-width="1e-7" opacity="1" class="highcharts-point"></rect><rect x="94.5" y="184.5" width="5" height="48" fill="#73b97c" stroke="#ffffff" stroke-width="1e-7" opacity="1" class="highcharts-point"></rect><rect x="239.5" y="184.5" width="5" height="48" fill="#73b97c" stroke="#ffffff" stroke-width="1e-7" opacity="1" class="highcharts-point"></rect></g><g class="highcharts-markers highcharts-series-0 highcharts-column-series" data-z-index="0.1" opacity="1" transform="translate(52,124) scale(1 1)" clip-path="none"></g><g class="highcharts-series highcharts-series-1 highcharts-line-series" data-z-index="0.1" opacity="1" transform="translate(52,124) scale(1 1)" clip-path="url(#highcharts-n7w58wy-206-)"><path fill="none" d="M 5.1538461538462 114.06666666666666 L 15.461538461538 107.648 L 25.769230769231 107.02933333333333 L 36.076923076923 103.62666666666667 L 46.384615384615 104.09066666666666 L 56.692307692308 99.064 L 67 91.94933333333333 L 77.307692307692 92.64533333333333 L 87.615384615385 96.28 L 97.923076923077 86.536 L 108.23076923077 77.952 L 118.53846153846 74.08533333333332 L 128.84615384615 80.42666666666665 L 139.15384615385 73.93066666666667 L 149.46153846154 72.46133333333333 L 159.76923076923 69.368 L 170.07692307692 72.46133333333333 L 180.38461538462 65.96533333333332 L 190.69230769231 49.570666666666654 L 201 55.602666666666664 L 211.30769230769 54.05599999999998 L 221.61538461538 50.57599999999999 L 231.92307692308 49.338666666666654 L 242.23076923077 46.70933333333332 L 252.53846153846 45.085333333333324 L 262.84615384615 43.30666666666664 L 273.15384615385 45.626666666666665 L 283.46153846154 33.330666666666644 L 293.76923076923 38.357333333333315 L 304.07692307692 39.98133333333331 L 314.38461538462 32.40266666666665 L 324.69230769231 33.71733333333333 L 335 28.768 L 345.30769230769 36.03733333333332 L 355.61538461538 28.381333333333316 L 365.92307692308 27.375999999999976 L 376.23076923077 23.122666666666646 L 386.53846153846 21.96266666666665 L 396.84615384615 25.674666666666667" class="highcharts-graph" data-z-index="1" stroke="#0A3B19" stroke-width="2" stroke-linejoin="round" stroke-linecap="round"></path></g><g class="highcharts-markers highcharts-series-1 highcharts-line-series" data-z-index="0.1" opacity="1" transform="translate(52,124) scale(1 1)" clip-path="none"></g><g class="highcharts-series highcharts-series-2 highcharts-line-series" data-z-index="0.1" opacity="1" transform="translate(52,124) scale(1 1)" clip-path="url(#highcharts-n7w58wy-206-)"><path fill="none" d="M 180.38461538462 231.92266666666666 L 190.69230769231 231.92266666666666 L 201 231.92266666666666 M 221.61538461538 231.92266666666666 L 231.92307692308 231.92266666666666 L 242.23076923077 231.92266666666666 L 252.53846153846 232 L 262.84615384615 231.92266666666666 L 273.15384615385 231.84533333333334 L 283.46153846154 231.92266666666666 L 293.76923076923 231.92266666666666 L 304.07692307692 231.768 L 314.38461538462 231.92266666666666 L 324.69230769231 231.768 L 335 231.84533333333334 L 345.30769230769 231.69066666666666 L 355.61538461538 231.768 L 365.92307692308 231.92266666666666 M 386.53846153846 231.92266666666666 L 396.84615384615 232" class="highcharts-graph" data-z-index="1" stroke="#008AC3" stroke-width="2" stroke-linejoin="round" stroke-linecap="round"></path></g><g class="highcharts-markers highcharts-series-2 highcharts-line-series" data-z-index="0.1" opacity="1" transform="translate(52,124) scale(1 1)" clip-path="none"></g></g><text x="10" text-anchor="start" class="highcharts-title" data-z-index="4" style="color:#000000;font-size:14px;font-weight:bold;fill:#000000;" y="21"><tspan>Ausländische Erwerbstätige in der Branche Gärtnereien</tspan></text><text x="10" text-anchor="start" class="highcharts-subtitle" data-z-index="4" style="color:#000000;font-size:12px;font-weight:normal;fill:#000000;" y="40"><tspan>Basel-Stadt</tspan></text><text x="10" text-anchor="start" class="highcharts-caption" data-z-index="4" style="color:#666666;fill:#666666;" y="390"></text><g class="highcharts-legend" data-z-index="7" transform="translate(44,56)"><rect fill="none" class="highcharts-legend-box" rx="0" ry="0" x="0" y="0" width="271" height="56" visibility="visible"></rect><g data-z-index="1"><g><g class="highcharts-legend-item highcharts-column-series highcharts-color-undefined highcharts-series-0" data-z-index="1" transform="translate(8,3)"><text x="21" style="color:#333333;cursor:pointer;font-size:12px;font-weight:normal;fill:#333333;" text-anchor="start" data-z-index="2" y="15"><tspan>Zuwanderung Erwerbstätige (rechte Skala)</tspan></text><rect x="2" y="4" width="12" height="12" fill="#73b97c" class="highcharts-point" data-z-index="3"></rect></g><g class="highcharts-legend-item highcharts-line-series highcharts-color-undefined highcharts-series-1" data-z-index="1" transform="translate(8,18)"><path fill="none" d="M 0 11 L 16 11" class="highcharts-graph" stroke="#0A3B19" stroke-width="2"></path><text x="21" y="15" style="color:#333333;cursor:pointer;font-size:12px;font-weight:normal;fill:#333333;" text-anchor="start" data-z-index="2"><tspan>Bestand Grenzgänger sonst. wirtsch. DL</tspan></text></g><g class="highcharts-legend-item highcharts-line-series highcharts-color-undefined highcharts-series-2" data-z-index="1" transform="translate(8,33)"><path fill="none" d="M 0 11 L 16 11" class="highcharts-graph" stroke="#008AC3" stroke-width="2"></path><text x="21" y="15" style="color:#333333;cursor:pointer;font-size:12px;font-weight:normal;fill:#333333;" text-anchor="start" data-z-index="2"><tspan>Bestand Meldepflichtige in VZÄ</tspan></text></g></g></g></g><g class="highcharts-axis-labels highcharts-xaxis-labels" data-z-index="7"><text x="74.15384615384599" style="color:#000000;cursor:default;font-size:11px;fill:#000000;" text-anchor="middle" transform="translate(0,0)" y="375" opacity="1">2013</text><text x="115.384615384615" style="color:#000000;cursor:default;font-size:11px;fill:#000000;" text-anchor="middle" transform="translate(0,0)" y="375" opacity="1">2014</text><text x="156.61538461538" style="color:#000000;cursor:default;font-size:11px;fill:#000000;" text-anchor="middle" transform="translate(0,0)" y="375" opacity="1">2015</text><text x="197.84615384615" style="color:#000000;cursor:default;font-size:11px;fill:#000000;" text-anchor="middle" transform="translate(0,0)" y="375" opacity="1">2016</text><text x="239.07692307692" style="color:#000000;cursor:default;font-size:11px;fill:#000000;" text-anchor="middle" transform="translate(0,0)" y="375" opacity="1">2017</text><text x="280.30769230769" style="color:#000000;cursor:default;font-size:11px;fill:#000000;" text-anchor="middle" transform="translate(0,0)" y="375" opacity="1">2018</text><text x="321.53846153846" style="color:#000000;cursor:default;font-size:11px;fill:#000000;" text-anchor="middle" transform="translate(0,0)" y="375" opacity="1">2019</text><text x="362.76923076923" style="color:#000000;cursor:default;font-size:11px;fill:#000000;" text-anchor="middle" transform="translate(0,0)" y="375" opacity="1">2020</text><text x="404" style="color:#000000;cursor:default;font-size:11px;fill:#000000;" text-anchor="middle" transform="translate(0,0)" y="375" opacity="1">2021</text><text x="445.23076923077" style="color:#000000;cursor:default;font-size:11px;fill:#000000;" text-anchor="middle" transform="translate(0,0)" y="375" opacity="1">2022</text></g><g class="highcharts-axis-labels highcharts-yaxis-labels" data-z-index="7"><text x="37" style="color:#000000;cursor:default;font-size:11px;fill:#000000;" text-anchor="end" transform="translate(0,0)" y="360" opacity="1">0</text><text x="37" style="color:#000000;cursor:default;font-size:11px;fill:#000000;" text-anchor="end" transform="translate(0,0)" y="321" opacity="1">500</text><text x="37" style="color:#000000;cursor:default;font-size:11px;fill:#000000;" text-anchor="end" transform="translate(0,0)" y="283" opacity="1"><tspan>1 000</tspan></text><text x="37" style="color:#000000;cursor:default;font-size:11px;fill:#000000;" text-anchor="end" transform="translate(0,0)" y="244" opacity="1"><tspan>1 500</tspan></text><text x="37" style="color:#000000;cursor:default;font-size:11px;fill:#000000;" text-anchor="end" transform="translate(0,0)" y="205" opacity="1"><tspan>2 000</tspan></text><text x="37" style="color:#000000;cursor:default;font-size:11px;fill:#000000;" text-anchor="end" transform="translate(0,0)" y="167" opacity="1"><tspan>2 500</tspan></text><text x="37" style="color:#000000;cursor:default;font-size:11px;fill:#000000;" text-anchor="end" transform="translate(0,0)" y="128" opacity="1"><tspan>3 000</tspan></text></g><g class="highcharts-axis-labels highcharts-yaxis-labels" data-z-index="7"><text x="469" style="color:#000000;cursor:default;font-size:11px;fill:#000000;" text-anchor="start" transform="translate(0,0)" y="360" opacity="1">0</text><text x="469" style="color:#000000;cursor:default;font-size:11px;fill:#000000;" text-anchor="start" transform="translate(0,0)" y="321" opacity="1">1</text><text x="469" style="color:#000000;cursor:default;font-size:11px;fill:#000000;" text-anchor="start" transform="translate(0,0)" y="283" opacity="1">2</text><text x="469" style="color:#000000;cursor:default;font-size:11px;fill:#000000;" text-anchor="start" transform="translate(0,0)" y="244" opacity="1">2</text><text x="469" style="color:#000000;cursor:default;font-size:11px;fill:#000000;" text-anchor="start" transform="translate(0,0)" y="205" opacity="1">3</text><text x="469" style="color:#000000;cursor:default;font-size:11px;fill:#000000;" text-anchor="start" transform="translate(0,0)" y="167" opacity="1">4</text><text x="469" style="color:#000000;cursor:default;font-size:11px;fill:#000000;" text-anchor="start" transform="translate(0,0)" y="128" opacity="1">5</text></g><text x="10" class="highcharts-credits" text-anchor="start" data-z-index="8" style="cursor:default;color:#000000;font-size:10px;fill:#000000;" y="393"><tspan>Quelle: Staatssekretariat für Migration (SEM), Zentrales Migrationssystem (ZEMIS);</tspan><tspan x="10" dy="13">Bundesamt für Statistik (BFS), Grenzgängerstatistik (GGS).</tspan><tspan x="10" dy="13">Zuletzt geändert: 14.2.2023</tspan></text><g class="highcharts-control-points" data-z-index="99" clip-path="url(#highcharts-n7w58wy-246-)"></g></svg>