<?xml version="1.0" standalone="no"?><!DOCTYPE svg PUBLIC "-//W3C//DTD SVG 1.1//EN" "http://www.w3.org/Graphics/SVG/1.1/DTD/svg11.dtd"><svg xmlns:xlink="http://www.w3.org/1999/xlink" version="1.1" class="highcharts-root" style="font-family:Inter,Helvetica Neue,Helvetica,Arial,sans-serif;font-size:12px;" xmlns="http://www.w3.org/2000/svg" width="600" height="428"><desc>Created with Highcharts 8.2.2</desc><defs><clipPath id="highcharts-r7taxrl-33-"><rect x="0" y="0" width="496" height="235" fill="none"></rect></clipPath><clipPath id="highcharts-r7taxrl-46-"><rect x="0" y="0" width="496" height="235" fill="none"></rect></clipPath><clipPath id="highcharts-r7taxrl-59-"><rect x="0" y="0" width="496" height="235" fill="none"></rect></clipPath><clipPath id="highcharts-r7taxrl-60-"><rect x="52" y="116" width="496" height="235" fill="none"></rect></clipPath></defs><rect fill="#ffffff" class="highcharts-background" x="0" y="0" width="600" height="428" rx="0" ry="0"></rect><rect fill="none" class="highcharts-plot-background" x="52" y="116" width="496" height="235"></rect><g class="highcharts-pane-group" data-z-index="0"></g><g class="highcharts-grid highcharts-xaxis-grid" data-z-index="1"><path fill="none" data-z-index="1" class="highcharts-grid-line" d="M 56.5 116 L 56.5 351" opacity="1"></path><path fill="none" data-z-index="1" class="highcharts-grid-line" d="M 100.5 116 L 100.5 351" opacity="1"></path><path fill="none" data-z-index="1" class="highcharts-grid-line" d="M 144.5 116 L 144.5 351" opacity="1"></path><path fill="none" data-z-index="1" class="highcharts-grid-line" d="M 188.5 116 L 188.5 351" opacity="1"></path><path fill="none" data-z-index="1" class="highcharts-grid-line" d="M 233.5 116 L 233.5 351" opacity="1"></path><path fill="none" data-z-index="1" class="highcharts-grid-line" d="M 277.5 116 L 277.5 351" opacity="1"></path><path fill="none" data-z-index="1" class="highcharts-grid-line" d="M 321.5 116 L 321.5 351" opacity="1"></path><path fill="none" data-z-index="1" class="highcharts-grid-line" d="M 365.5 116 L 365.5 351" opacity="1"></path><path fill="none" data-z-index="1" class="highcharts-grid-line" d="M 410.5 116 L 410.5 351" opacity="1"></path><path fill="none" data-z-index="1" class="highcharts-grid-line" d="M 454.5 116 L 454.5 351" opacity="1"></path><path fill="none" data-z-index="1" class="highcharts-grid-line" d="M 498.5 116 L 498.5 351" opacity="1"></path><path fill="none" data-z-index="1" class="highcharts-grid-line" d="M 542.5 116 L 542.5 351" opacity="1"></path></g><g class="highcharts-grid highcharts-yaxis-grid" data-z-index="1"><path fill="none" stroke="#e6e6e6" stroke-width="1" data-z-index="1" class="highcharts-grid-line" d="M 52 351.5 L 548 351.5" opacity="1"></path><path fill="none" stroke="#e6e6e6" stroke-width="1" data-z-index="1" class="highcharts-grid-line" d="M 52 312.5 L 548 312.5" opacity="1"></path><path fill="none" stroke="#e6e6e6" stroke-width="1" data-z-index="1" class="highcharts-grid-line" d="M 52 273.5 L 548 273.5" opacity="1"></path><path fill="none" stroke="#e6e6e6" stroke-width="1" data-z-index="1" class="highcharts-grid-line" d="M 52 234.5 L 548 234.5" opacity="1"></path><path fill="none" stroke="#e6e6e6" stroke-width="1" data-z-index="1" class="highcharts-grid-line" d="M 52 194.5 L 548 194.5" opacity="1"></path><path fill="none" stroke="#e6e6e6" stroke-width="1" data-z-index="1" class="highcharts-grid-line" d="M 52 155.5 L 548 155.5" opacity="1"></path><path fill="none" stroke="#e6e6e6" stroke-width="1" data-z-index="1" class="highcharts-grid-line" d="M 52 115.5 L 548 115.5" opacity="1"></path></g><g class="highcharts-grid highcharts-yaxis-grid" data-z-index="1"><path fill="none" data-z-index="1" class="highcharts-grid-line" d="M 52 351.5 L 548 351.5" opacity="1"></path><path fill="none" data-z-index="1" class="highcharts-grid-line" d="M 52 317.5 L 548 317.5" opacity="1"></path><path fill="none" data-z-index="1" class="highcharts-grid-line" d="M 52 284.5 L 548 284.5" opacity="1"></path><path fill="none" data-z-index="1" class="highcharts-grid-line" d="M 52 250.5 L 548 250.5" opacity="1"></path><path fill="none" data-z-index="1" class="highcharts-grid-line" d="M 52 217.5 L 548 217.5" opacity="1"></path><path fill="none" data-z-index="1" class="highcharts-grid-line" d="M 52 183.5 L 548 183.5" opacity="1"></path><path fill="none" data-z-index="1" class="highcharts-grid-line" d="M 52 150.5 L 548 150.5" opacity="1"></path><path fill="none" data-z-index="1" class="highcharts-grid-line" d="M 52 116.5 L 548 116.5" opacity="1"></path></g><rect fill="none" class="highcharts-plot-border" data-z-index="1" x="52" y="116" width="496" height="235"></rect><g class="highcharts-axis highcharts-xaxis" data-z-index="2"><path fill="none" class="highcharts-axis-line" stroke="#B9CFD7" stroke-width="0.5" data-z-index="7" d="M 52 351.25 L 548 351.25"></path></g><g class="highcharts-axis highcharts-yaxis" data-z-index="2"><path fill="none" class="highcharts-axis-line" data-z-index="7" d="M 52 116 L 52 351"></path></g><g class="highcharts-axis highcharts-yaxis" data-z-index="2"><path fill="none" class="highcharts-axis-line" data-z-index="7" d="M 548 116 L 548 351"></path></g><g class="highcharts-series-group" data-z-index="3"><g class="highcharts-series highcharts-series-0 highcharts-line-series" data-z-index="0.1" opacity="1" transform="translate(52,116) scale(1 1)" clip-path="url(#highcharts-r7taxrl-46-)"><path fill="none" d="M 4.8627450980349 102.14666666666665 L 49.069518716574 89.22166666666666 L 93.276292335113 80.37 L 137.48306595365 68.22833333333332 L 181.68983957219 60.47333333333333 L 225.89661319073 58.906666666666666 L 270.10338680927 56.32166666666666 L 314.31016042781 54.833333333333314 L 358.51693404635 58.67166666666665 L 402.72370766489 64.38999999999999 L 446.93048128343 63.44999999999999 L 491.13725490197 70.57833333333332" class="highcharts-graph" data-z-index="1" stroke="#B00000" stroke-width="2" stroke-linejoin="round" stroke-linecap="round"></path></g><g class="highcharts-markers highcharts-series-0 highcharts-line-series" data-z-index="0.1" opacity="1" transform="translate(52,116) scale(1 1)" clip-path="none"></g><g class="highcharts-series highcharts-series-1 highcharts-line-series" data-z-index="0.1" opacity="1" transform="translate(52,116) scale(1 1)" clip-path="url(#highcharts-r7taxrl-59-)"><path fill="none" d="M 4.8627450980349 74.93142857142857 L 49.069518716574 74.19285714285715 L 93.276292335113 72.9842857142857 L 137.48306595365 75.53571428571428 L 181.68983957219 73.48785714285714 L 225.89661319073 67.98214285714286 L 270.10338680927 63.31571428571428 L 314.31016042781 62.57714285714286 L 358.51693404635 60.39500000000001 L 402.72370766489 60.495714285714286 L 446.93048128343 52.53928571428571 L 491.13725490197 42.19928571428571" class="highcharts-graph" data-z-index="1" stroke="#FF8028" stroke-width="2" stroke-linejoin="round" stroke-linecap="round"></path></g><g class="highcharts-markers highcharts-series-1 highcharts-line-series" data-z-index="0.1" opacity="1" transform="translate(52,116) scale(1 1)" clip-path="none"></g></g><text x="10" text-anchor="start" class="highcharts-caption" data-z-index="4" style="color:#666666;fill:#666666;" y="385"></text><g class="highcharts-legend" data-z-index="7" transform="translate(44,73)"><rect fill="none" class="highcharts-legend-box" rx="0" ry="0" x="0" y="0" width="460" height="31" visibility="visible"></rect><g data-z-index="1"><g><g class="highcharts-legend-item highcharts-line-series highcharts-color-undefined highcharts-series-0" data-z-index="1" transform="translate(8,3)"><path fill="none" d="M 0 11 L 16 11" class="highcharts-graph" stroke="#B00000" stroke-width="2"></path><text x="21" style="color:#333333;cursor:pointer;font-size:12px;font-weight:normal;fill:#333333;" text-anchor="start" data-z-index="2" y="15"><tspan>Anzahl Mietverhältnisse</tspan></text></g><g class="highcharts-legend-item highcharts-line-series highcharts-color-undefined highcharts-series-1" data-z-index="1" transform="translate(177,3)"><path fill="none" d="M 0 11 L 16 11" class="highcharts-graph" stroke="#FF8028" stroke-width="2"></path><text x="21" y="15" style="color:#333333;cursor:pointer;font-size:12px;font-weight:normal;fill:#333333;" text-anchor="start" data-z-index="2"><tspan>Durchschnittsbeitrag in Franken (rechte Skala)</tspan></text></g></g></g></g><g class="highcharts-axis-labels highcharts-xaxis-labels" data-z-index="7"><text x="56.862745098035" style="color:#000000;cursor:default;font-size:11px;fill:#000000;" text-anchor="middle" transform="translate(0,0)" y="370" opacity="1">2013</text><text x="101.06951871657" style="color:#000000;cursor:default;font-size:11px;fill:#000000;" text-anchor="middle" transform="translate(0,0)" y="370" opacity="1">2014</text><text x="145.27629233511" style="color:#000000;cursor:default;font-size:11px;fill:#000000;" text-anchor="middle" transform="translate(0,0)" y="370" opacity="1">2015</text><text x="189.48306595365" style="color:#000000;cursor:default;font-size:11px;fill:#000000;" text-anchor="middle" transform="translate(0,0)" y="370" opacity="1">2016</text><text x="233.68983957219" style="color:#000000;cursor:default;font-size:11px;fill:#000000;" text-anchor="middle" transform="translate(0,0)" y="370" opacity="1">2017</text><text x="277.89661319073" style="color:#000000;cursor:default;font-size:11px;fill:#000000;" text-anchor="middle" transform="translate(0,0)" y="370" opacity="1">2018</text><text x="322.10338680927" style="color:#000000;cursor:default;font-size:11px;fill:#000000;" text-anchor="middle" transform="translate(0,0)" y="370" opacity="1">2019</text><text x="366.31016042781" style="color:#000000;cursor:default;font-size:11px;fill:#000000;" text-anchor="middle" transform="translate(0,0)" y="370" opacity="1">2020</text><text x="410.51693404635" style="color:#000000;cursor:default;font-size:11px;fill:#000000;" text-anchor="middle" transform="translate(0,0)" y="370" opacity="1">2021</text><text x="454.72370766489" style="color:#000000;cursor:default;font-size:11px;fill:#000000;" text-anchor="middle" transform="translate(0,0)" y="370" opacity="1">2022</text><text x="498.93048128343" style="color:#000000;cursor:default;font-size:11px;fill:#000000;" text-anchor="middle" transform="translate(0,0)" y="370" opacity="1">2023</text><text x="543.13725490197" style="color:#000000;cursor:default;font-size:11px;fill:#000000;" text-anchor="middle" transform="translate(0,0)" y="370" opacity="1">2024</text></g><g class="highcharts-axis-labels highcharts-yaxis-labels" data-z-index="7"><text x="37" style="color:#000000;cursor:default;font-size:11px;fill:#000000;" text-anchor="end" transform="translate(0,0)" y="355" opacity="1">0</text><text x="37" style="color:#000000;cursor:default;font-size:11px;fill:#000000;" text-anchor="end" transform="translate(0,0)" y="316" opacity="1">500</text><text x="37" style="color:#000000;cursor:default;font-size:11px;fill:#000000;" text-anchor="end" transform="translate(0,0)" y="277" opacity="1"><tspan>1 000</tspan></text><text x="37" style="color:#000000;cursor:default;font-size:11px;fill:#000000;" text-anchor="end" transform="translate(0,0)" y="238" opacity="1"><tspan>1 500</tspan></text><text x="37" style="color:#000000;cursor:default;font-size:11px;fill:#000000;" text-anchor="end" transform="translate(0,0)" y="198" opacity="1"><tspan>2 000</tspan></text><text x="37" style="color:#000000;cursor:default;font-size:11px;fill:#000000;" text-anchor="end" transform="translate(0,0)" y="159" opacity="1"><tspan>2 500</tspan></text><text x="37" style="color:#000000;cursor:default;font-size:11px;fill:#000000;" text-anchor="end" transform="translate(0,0)" y="120" opacity="1"><tspan>3 000</tspan></text></g><g class="highcharts-axis-labels highcharts-yaxis-labels" data-z-index="7"><text x="563" style="color:#000000;cursor:default;font-size:11px;fill:#000000;" text-anchor="start" transform="translate(0,0)" y="355" opacity="1">0</text><text x="563" style="color:#000000;cursor:default;font-size:11px;fill:#000000;" text-anchor="start" transform="translate(0,0)" y="321" opacity="1"><tspan>1 000</tspan></text><text x="563" style="color:#000000;cursor:default;font-size:11px;fill:#000000;" text-anchor="start" transform="translate(0,0)" y="288" opacity="1"><tspan>2 000</tspan></text><text x="563" style="color:#000000;cursor:default;font-size:11px;fill:#000000;" text-anchor="start" transform="translate(0,0)" y="254" opacity="1"><tspan>3 000</tspan></text><text x="563" style="color:#000000;cursor:default;font-size:11px;fill:#000000;" text-anchor="start" transform="translate(0,0)" y="221" opacity="1"><tspan>4 000</tspan></text><text x="563" style="color:#000000;cursor:default;font-size:11px;fill:#000000;" text-anchor="start" transform="translate(0,0)" y="187" opacity="1"><tspan>5 000</tspan></text><text x="563" style="color:#000000;cursor:default;font-size:11px;fill:#000000;" text-anchor="start" transform="translate(0,0)" y="154" opacity="1"><tspan>6 000</tspan></text><text x="563" style="color:#000000;cursor:default;font-size:11px;fill:#000000;" text-anchor="start" transform="translate(0,0)" y="120" opacity="1"><tspan>7 000</tspan></text></g></svg>