<svg version="1.1" class="highcharts-root" style="font-family: Arial; font-size: 1rem;" xmlns="http://www.w3.org/2000/svg" width="600" height="400" viewBox="0 0 600 400" role="img" aria-label="Kinder in Kindertagesstätten und Tagesfamilien"><desc>Created with Highcharts 12.5.0</desc><defs><filter id="highcharts-drop-shadow-0"><feDropShadow dx="1" dy="1" flood-color="#000000" flood-opacity="0.75" stdDeviation="2.5"></feDropShadow></filter><clipPath id="highcharts-fwk9lzm-391-"><rect x="0" y="0" width="533" height="260" fill="none"></rect></clipPath></defs><rect fill="#ffffff" class="highcharts-background" filter="none" x="0" y="0" width="600" height="400" rx="0" ry="0"></rect><rect fill="none" class="highcharts-plot-background" x="57" y="55" width="533" height="260" filter="none"></rect><g class="highcharts-pane-group" data-z-index="0"></g><g class="highcharts-grid highcharts-xaxis-grid" data-z-index="1"><path fill="none" stroke="#e6e6e6" stroke-width="0" stroke-dasharray="none" data-z-index="1" class="highcharts-grid-line" d="M 105.5 55 L 105.5 315" opacity="1"></path><path fill="none" stroke="#e6e6e6" stroke-width="0" stroke-dasharray="none" data-z-index="1" class="highcharts-grid-line" d="M 153.5 55 L 153.5 315" opacity="1"></path><path fill="none" stroke="#e6e6e6" stroke-width="0" stroke-dasharray="none" data-z-index="1" class="highcharts-grid-line" d="M 202.5 55 L 202.5 315" opacity="1"></path><path fill="none" stroke="#e6e6e6" stroke-width="0" stroke-dasharray="none" data-z-index="1" class="highcharts-grid-line" d="M 250.5 55 L 250.5 315" opacity="1"></path><path fill="none" stroke="#e6e6e6" stroke-width="0" stroke-dasharray="none" data-z-index="1" class="highcharts-grid-line" d="M 299.5 55 L 299.5 315" opacity="1"></path><path fill="none" stroke="#e6e6e6" stroke-width="0" stroke-dasharray="none" data-z-index="1" class="highcharts-grid-line" d="M 347.5 55 L 347.5 315" opacity="1"></path><path fill="none" stroke="#e6e6e6" stroke-width="0" stroke-dasharray="none" data-z-index="1" class="highcharts-grid-line" d="M 396.5 55 L 396.5 315" opacity="1"></path><path fill="none" stroke="#e6e6e6" stroke-width="0" stroke-dasharray="none" data-z-index="1" class="highcharts-grid-line" d="M 444.5 55 L 444.5 315" opacity="1"></path><path fill="none" stroke="#e6e6e6" stroke-width="0" stroke-dasharray="none" data-z-index="1" class="highcharts-grid-line" d="M 493.5 55 L 493.5 315" opacity="1"></path><path fill="none" stroke="#e6e6e6" stroke-width="0" stroke-dasharray="none" data-z-index="1" class="highcharts-grid-line" d="M 541.5 55 L 541.5 315" opacity="1"></path><path fill="none" stroke="#e6e6e6" stroke-width="0" stroke-dasharray="none" data-z-index="1" class="highcharts-grid-line" d="M 590.5 55 L 590.5 315" opacity="1"></path><path fill="none" stroke="#e6e6e6" stroke-width="0" stroke-dasharray="none" data-z-index="1" class="highcharts-grid-line" d="M 57.5 55 L 57.5 315" opacity="1"></path></g><g class="highcharts-grid highcharts-yaxis-grid" data-z-index="1"><path fill="none" stroke="#B9CFD7" stroke-width="0.5" stroke-dasharray="none" data-z-index="1" class="highcharts-grid-line" d="M 57 315.25 L 590 315.25" opacity="1"></path><path fill="none" stroke="#B9CFD7" stroke-width="0.5" stroke-dasharray="none" data-z-index="1" class="highcharts-grid-line" d="M 57 278.25 L 590 278.25" opacity="1"></path><path fill="none" stroke="#B9CFD7" stroke-width="0.5" stroke-dasharray="none" data-z-index="1" class="highcharts-grid-line" d="M 57 240.25 L 590 240.25" opacity="1"></path><path fill="none" stroke="#B9CFD7" stroke-width="0.5" stroke-dasharray="none" data-z-index="1" class="highcharts-grid-line" d="M 57 203.25 L 590 203.25" opacity="1"></path><path fill="none" stroke="#B9CFD7" stroke-width="0.5" stroke-dasharray="none" data-z-index="1" class="highcharts-grid-line" d="M 57 166.25 L 590 166.25" opacity="1"></path><path fill="none" stroke="#B9CFD7" stroke-width="0.5" stroke-dasharray="none" data-z-index="1" class="highcharts-grid-line" d="M 57 129.25 L 590 129.25" opacity="1"></path><path fill="none" stroke="#B9CFD7" stroke-width="0.5" stroke-dasharray="none" data-z-index="1" class="highcharts-grid-line" d="M 57 92.25 L 590 92.25" opacity="1"></path><path fill="none" stroke="#B9CFD7" stroke-width="0.5" stroke-dasharray="none" data-z-index="1" class="highcharts-grid-line" d="M 57 55.25 L 590 55.25" opacity="1"></path></g><rect fill="none" class="highcharts-plot-border" data-z-index="1" stroke="#cccccc" stroke-width="0" x="57" y="55" width="533" height="260"></rect><g class="highcharts-axis highcharts-xaxis" data-z-index="2"><path fill="none" class="highcharts-axis-line" stroke="#B9CFD7" stroke-width="0.5" data-z-index="7" d="M 57 315.25 L 590 315.25"></path></g><g class="highcharts-axis highcharts-yaxis" data-z-index="2"><path fill="none" class="highcharts-axis-line" stroke="#B9CFD7" stroke-width="0" data-z-index="7" d="M 57 55 L 57 315"></path></g><g class="highcharts-series-group" data-z-index="3" filter="none"><g class="highcharts-series highcharts-series-0 highcharts-column-series highcharts-tracker" data-z-index="0.1" opacity="1" transform="translate(57,55) scale(1 1)" clip-path="url(#highcharts-fwk9lzm-391-)"><path fill="#662673" d="M 16 93 L 34 93 A 3 3 0 0 1 37 96 L 37 260 A 0 0 0 0 1 37 260 L 13 260 A 0 0 0 0 1 13 260 L 13 96 A 3 3 0 0 1 16 93 Z" stroke="#ffffff" stroke-width="0" opacity="1" filter="none" class="highcharts-point"></path><path fill="#662673" d="M 113 79 L 131 79 A 3 3 0 0 1 134 82 L 134 260 A 0 0 0 0 1 134 260 L 110 260 A 0 0 0 0 1 110 260 L 110 82 A 3 3 0 0 1 113 79 Z" stroke="#ffffff" stroke-width="0" opacity="1" filter="none" class="highcharts-point"></path><path fill="#662673" d="M 209 69 L 227 69 A 3 3 0 0 1 230 72 L 230 260 A 0 0 0 0 1 230 260 L 206 260 A 0 0 0 0 1 206 260 L 206 72 A 3 3 0 0 1 209 69 Z" stroke="#ffffff" stroke-width="0" opacity="1" filter="none" class="highcharts-point"></path><path fill="#662673" d="M 258 64 L 276 64 A 3 3 0 0 1 279 67 L 279 260 A 0 0 0 0 1 279 260 L 255 260 A 0 0 0 0 1 255 260 L 255 67 A 3 3 0 0 1 258 64 Z" stroke="#ffffff" stroke-width="0" opacity="1" filter="none" class="highcharts-point"></path><path fill="#662673" d="M 306 68 L 324 68 A 3 3 0 0 1 327 71 L 327 260 A 0 0 0 0 1 327 260 L 303 260 A 0 0 0 0 1 303 260 L 303 71 A 3 3 0 0 1 306 68 Z" stroke="#ffffff" stroke-width="0" opacity="1" filter="none" class="highcharts-point"></path><path fill="#662673" d="M 355 63 L 373 63 A 3 3 0 0 1 376 66 L 376 260 A 0 0 0 0 1 376 260 L 352 260 A 0 0 0 0 1 352 260 L 352 66 A 3 3 0 0 1 355 63 Z" stroke="#ffffff" stroke-width="0" opacity="1" filter="none" class="highcharts-point"></path><path fill="#662673" d="M 403 53 L 421 53 A 3 3 0 0 1 424 56 L 424 260 A 0 0 0 0 1 424 260 L 400 260 A 0 0 0 0 1 400 260 L 400 56 A 3 3 0 0 1 403 53 Z" stroke="#ffffff" stroke-width="0" opacity="1" filter="none" class="highcharts-point"></path><path fill="#662673" d="M 452 52 L 470 52 A 3 3 0 0 1 473 55 L 473 260 A 0 0 0 0 1 473 260 L 449 260 A 0 0 0 0 1 449 260 L 449 55 A 3 3 0 0 1 452 52 Z" stroke="#ffffff" stroke-width="0" opacity="1" filter="none" class="highcharts-point"></path><path fill="#662673" d="M 500 44 L 518 44 A 3 3 0 0 1 521 47 L 521 260 A 0 0 0 0 1 521 260 L 497 260 A 0 0 0 0 1 497 260 L 497 47 A 3 3 0 0 1 500 44 Z" stroke="#ffffff" stroke-width="0" opacity="1" filter="none" class="highcharts-point"></path></g><g class="highcharts-markers highcharts-series-0 highcharts-column-series" data-z-index="0.1" opacity="1" transform="translate(57,55) scale(1 1)" clip-path="none"></g></g><text x="10" text-anchor="start" class="highcharts-caption" data-z-index="4" style="font-size: 0.8em; fill: rgb(102, 102, 102);" text-align="left" y="357" transform-origin="10 15" transform="translate(0,0) scale(1 1)"></text><g class="highcharts-axis-labels highcharts-xaxis-labels" data-z-index="7"><text x="81.22727272726726" text-anchor="middle" transform="translate(0,0)" style="cursor: default; font-size: 0.8em; fill: rgb(0, 0, 0);" y="342" opacity="1">2014</text><text x="129.68181818181728" text-anchor="middle" transform="translate(0,0)" style="cursor: default; font-size: 0.8em; fill: rgb(0, 0, 0);" y="342" opacity="1">2015</text><text x="178.1363636363673" text-anchor="middle" transform="translate(0,0)" style="cursor: default; font-size: 0.8em; fill: rgb(0, 0, 0);" y="342" opacity="1">2016</text><text x="226.59090909090727" text-anchor="middle" transform="translate(0,0)" style="cursor: default; font-size: 0.8em; fill: rgb(0, 0, 0);" y="342" opacity="1">2017</text><text x="275.04545454545723" text-anchor="middle" transform="translate(0,0)" style="cursor: default; font-size: 0.8em; fill: rgb(0, 0, 0);" y="342" opacity="1">2018</text><text x="323.49999999999727" text-anchor="middle" transform="translate(0,0)" style="cursor: default; font-size: 0.8em; fill: rgb(0, 0, 0);" y="342" opacity="1">2019</text><text x="371.95454545454726" text-anchor="middle" transform="translate(0,0)" style="cursor: default; font-size: 0.8em; fill: rgb(0, 0, 0);" y="342" opacity="1">2020</text><text x="420.40909090908724" text-anchor="middle" transform="translate(0,0)" style="cursor: default; font-size: 0.8em; fill: rgb(0, 0, 0);" y="342" opacity="1">2021</text><text x="468.8636363636372" text-anchor="middle" transform="translate(0,0)" style="cursor: default; font-size: 0.8em; fill: rgb(0, 0, 0);" y="342" opacity="1">2022</text><text x="517.3181818181772" text-anchor="middle" transform="translate(0,0)" style="cursor: default; font-size: 0.8em; fill: rgb(0, 0, 0);" y="342" opacity="1">2023</text><text x="565.7727272727273" text-anchor="middle" transform="translate(0,0)" style="cursor: default; font-size: 0.8em; fill: rgb(0, 0, 0);" y="342" opacity="1">2024</text></g><g class="highcharts-axis-labels highcharts-yaxis-labels" data-z-index="7"><text x="42" text-anchor="end" transform="translate(0,0)" style="cursor: default; font-size: 0.8em; fill: rgb(0, 0, 0);" y="320" opacity="1">0</text><text x="42" text-anchor="end" transform="translate(0,0)" style="cursor: default; font-size: 0.8em; fill: rgb(0, 0, 0);" y="282" opacity="1">1,000</text><text x="42" text-anchor="end" transform="translate(0,0)" style="cursor: default; font-size: 0.8em; fill: rgb(0, 0, 0);" y="245" opacity="1">2,000</text><text x="42" text-anchor="end" transform="translate(0,0)" style="cursor: default; font-size: 0.8em; fill: rgb(0, 0, 0);" y="208" opacity="1">3,000</text><text x="42" text-anchor="end" transform="translate(0,0)" style="cursor: default; font-size: 0.8em; fill: rgb(0, 0, 0);" y="171" opacity="1">4,000</text><text x="42" text-anchor="end" transform="translate(0,0)" style="cursor: default; font-size: 0.8em; fill: rgb(0, 0, 0);" y="134" opacity="1">5,000</text><text x="42" text-anchor="end" transform="translate(0,0)" style="cursor: default; font-size: 0.8em; fill: rgb(0, 0, 0);" y="97" opacity="1">6,000</text><text x="42" text-anchor="end" transform="translate(0,0)" style="cursor: default; font-size: 0.8em; fill: rgb(0, 0, 0);" y="60" opacity="1">7,000</text></g></svg>