<?xml version="1.0" standalone="no"?><!DOCTYPE svg PUBLIC "-//W3C//DTD SVG 1.1//EN" "http://www.w3.org/Graphics/SVG/1.1/DTD/svg11.dtd"><svg xmlns:xlink="http://www.w3.org/1999/xlink" version="1.1" class="highcharts-root" style="font-family:arial;font-size:9pt;" xmlns="http://www.w3.org/2000/svg" width="485" height="415"><desc>Created with Highstock 5.0.14</desc><defs><clipPath id="highcharts-e0aekzt-11"><rect x="0" y="0" width="416" height="143" fill="none"></rect></clipPath><clipPath id="highcharts-e0aekzt-12"><rect x="0" y="0" width="416" height="143" fill="none"></rect></clipPath><clipPath id="highcharts-e0aekzt-13"><rect x="0" y="0" width="416" height="143" fill="none"></rect></clipPath><clipPath id="highcharts-e0aekzt-14"><rect x="0" y="0" width="388" height="40" fill="none"></rect></clipPath></defs><rect fill="#fbfbfb" class="highcharts-background" x="0" y="0" width="485" height="415" rx="0" ry="0"></rect><rect fill="none" class="highcharts-plot-background" x="49" y="109" width="416" height="143"></rect><g class="highcharts-label" style="cursor:pointer;" transform="translate(10,451)"><text x="0" y="0"><tspan>&gt; Indikator-Details</tspan></text></g><g class="highcharts-pane-group"></g><g class="highcharts-grid highcharts-xaxis-grid "><path fill="none" class="highcharts-grid-line" d="M 74.5 109 L 74.5 252" opacity="1"></path><path fill="none" class="highcharts-grid-line" d="M 100.5 109 L 100.5 252" opacity="1"></path><path fill="none" class="highcharts-grid-line" d="M 126.5 109 L 126.5 252" opacity="1"></path><path fill="none" class="highcharts-grid-line" d="M 152.5 109 L 152.5 252" opacity="1"></path><path fill="none" class="highcharts-grid-line" d="M 178.5 109 L 178.5 252" opacity="1"></path><path fill="none" class="highcharts-grid-line" d="M 204.5 109 L 204.5 252" opacity="1"></path><path fill="none" class="highcharts-grid-line" d="M 230.5 109 L 230.5 252" opacity="1"></path><path fill="none" class="highcharts-grid-line" d="M 256.5 109 L 256.5 252" opacity="1"></path><path fill="none" class="highcharts-grid-line" d="M 282.5 109 L 282.5 252" opacity="1"></path><path fill="none" class="highcharts-grid-line" d="M 308.5 109 L 308.5 252" opacity="1"></path><path fill="none" class="highcharts-grid-line" d="M 334.5 109 L 334.5 252" opacity="1"></path><path fill="none" class="highcharts-grid-line" d="M 360.5 109 L 360.5 252" opacity="1"></path><path fill="none" class="highcharts-grid-line" d="M 386.5 109 L 386.5 252" opacity="1"></path><path fill="none" class="highcharts-grid-line" d="M 412.5 109 L 412.5 252" opacity="1"></path><path fill="none" class="highcharts-grid-line" d="M 438.5 109 L 438.5 252" opacity="1"></path><path fill="none" class="highcharts-grid-line" d="M 464.5 109 L 464.5 252" opacity="1"></path></g><g class="highcharts-grid highcharts-xaxis-grid highcharts-navigator-xaxis"><path fill="none" class="highcharts-grid-line" d="M 65.5 311 L 65.5 351" opacity="1"></path><path fill="none" class="highcharts-grid-line" d="M 320.5 311 L 320.5 351" opacity="1"></path></g><g class="highcharts-grid highcharts-yaxis-grid "><path fill="none" stroke="#e6e6e6" stroke-width="1" class="highcharts-grid-line" d="M 49 252.5 L 465 252.5" opacity="1"></path><path fill="none" stroke="#e6e6e6" stroke-width="1" class="highcharts-grid-line" d="M 49 181.5 L 465 181.5" opacity="1"></path><path fill="none" stroke="#e6e6e6" stroke-width="1" class="highcharts-grid-line" d="M 49 108.5 L 465 108.5" opacity="1"></path></g><g class="highcharts-grid highcharts-yaxis-grid "></g><g class="highcharts-grid highcharts-yaxis-grid highcharts-navigator-yaxis"><path fill="none" class="highcharts-grid-line" d="M 63 351.5 L 451 351.5" opacity="1"></path><path fill="none" class="highcharts-grid-line" d="M 63 314.5 L 451 314.5" opacity="1"></path></g><rect fill="none" class="highcharts-plot-border" x="49" y="109" width="416" height="143"></rect><g class="highcharts-axis highcharts-xaxis "><path fill="none" class="highcharts-axis-line" stroke="#ccd6eb" stroke-width="1" d="M 49 252.5 L 465 252.5"></path></g><g class="highcharts-axis highcharts-xaxis highcharts-navigator-xaxis"><path fill="none" class="highcharts-axis-line" d="M 63 351 L 451 351"></path></g><g class="highcharts-axis highcharts-yaxis "><path fill="none" class="highcharts-axis-line" d="M 49 109 L 49 252"></path></g><g class="highcharts-axis highcharts-yaxis "><text x="475" text-anchor="middle" transform="translate(0,0) rotate(90 475 180.5)" class="highcharts-axis-title" style="color:#000000;font-size:0.9em;fill:#000000;" y="180.5"></text><path fill="none" class="highcharts-axis-line" d="M 465 109 L 465 252"></path></g><g class="highcharts-axis highcharts-yaxis highcharts-navigator-yaxis"><path fill="none" class="highcharts-axis-line" d="M 49 311 L 49 351"></path></g><g class="highcharts-scrollbar" transform="translate(49,352)"><rect fill="#f2f2f2" class="highcharts-scrollbar-track" x="0" rx="0" ry="0" height="14" width="416" stroke="#f2f2f2" stroke-width="1" y="-0.5"></rect><g transform="translate(323,-0.5)"><rect fill="#cccccc" class="highcharts-scrollbar-thumb" height="14" width="76.447368421053" rx="0" ry="0" stroke="#cccccc" stroke-width="1"></rect><path fill="none" d="M -3 3.5 L -3 9.333333333333334 M 0 3.5 L 0 9.333333333333334 M 3 3.5 L 3 9.333333333333334" class="highcharts-scrollbar-rifles" stroke="#333333" stroke-width="1" transform="translate(37.7236842105265,0)"></path></g><g><rect fill="#e6e6e6" class="highcharts-scrollbar-button" stroke="#cccccc" stroke-width="1" x="-0.5" y="-0.5" width="14" height="14" rx="0" ry="0"></rect><path fill="#333333" d="M 8 4 L 8 10 L 5 7" class="highcharts-scrollbar-arrow"></path></g><g transform="translate(402,0)"><rect fill="#e6e6e6" class="highcharts-scrollbar-button" stroke="#cccccc" stroke-width="1" x="-0.5" y="-0.5" width="14" height="14" rx="0" ry="0"></rect><path fill="#333333" d="M 6 4 L 6 10 L 9 7" class="highcharts-scrollbar-arrow"></path></g></g><g class="highcharts-series-group"><g class="highcharts-series highcharts-series-0 highcharts-column-series highcharts-color-undefined " transform="translate(49,109) scale(1 1)" clip-path="url(#highcharts-e0aekzt-12)"><rect x="6" y="144" width="7" height="0" fill="#FF8028" class="highcharts-point"></rect><rect x="32" y="142" width="7" height="2" fill="#FF8028" class="highcharts-point"></rect><rect x="58" y="144" width="7" height="0" fill="#FF8028" class="highcharts-point"></rect><rect x="84" y="141" width="7" height="3" fill="#FF8028" class="highcharts-point"></rect><rect x="110" y="144" width="7" height="0" fill="#FF8028" class="highcharts-point"></rect><rect x="136" y="142" width="7" height="2" fill="#FF8028" class="highcharts-point"></rect><rect x="162" y="137" width="7" height="7" fill="#FF8028" class="highcharts-point"></rect><rect x="188" y="143" width="7" height="1" fill="#FF8028" class="highcharts-point"></rect><rect x="214" y="143" width="7" height="1" fill="#FF8028" class="highcharts-point"></rect><rect x="240" y="144" width="7" height="0" fill="#FF8028" class="highcharts-point"></rect><rect x="266" y="144" width="7" height="0" fill="#FF8028" class="highcharts-point"></rect><rect x="292" y="143" width="7" height="1" fill="#FF8028" class="highcharts-point"></rect><rect x="318" y="143" width="7" height="1" fill="#FF8028" class="highcharts-point"></rect><rect x="344" y="135" width="7" height="9" fill="#FF8028" class="highcharts-point"></rect><rect x="370" y="142" width="7" height="2" fill="#FF8028" class="highcharts-point"></rect><rect x="396" y="132" width="7" height="12" fill="#FF8028" class="highcharts-point"></rect></g><g class="highcharts-markers highcharts-series-0 highcharts-column-series highcharts-color-undefined " transform="translate(49,109) scale(1 1)" clip-path="none"></g><g class="highcharts-series highcharts-series-1 highcharts-column-series highcharts-color-undefined " visibility="hidden" transform="translate(49,109) scale(1 1)" clip-path="url(#highcharts-e0aekzt-13)"></g><g class="highcharts-markers highcharts-series-1 highcharts-column-series highcharts-color-undefined " visibility="hidden" transform="translate(49,109) scale(1 1)" clip-path="none"></g><g class="highcharts-series highcharts-series-2 highcharts-column-series highcharts-color-undefined " transform="translate(49,109) scale(1 1)" clip-path="url(#highcharts-e0aekzt-12)"><rect x="14" y="131" width="7" height="13" fill="#B375AB" class="highcharts-point"></rect><rect x="40" y="141" width="7" height="3" fill="#B375AB" class="highcharts-point"></rect><rect x="66" y="132" width="7" height="12" fill="#B375AB" class="highcharts-point"></rect><rect x="92" y="138" width="7" height="6" fill="#B375AB" class="highcharts-point"></rect><rect x="118" y="140" width="7" height="4" fill="#B375AB" class="highcharts-point"></rect><rect x="144" y="127" width="7" height="17" fill="#B375AB" class="highcharts-point"></rect><rect x="170" y="66" width="7" height="78" fill="#B375AB" class="highcharts-point"></rect><rect x="196" y="143" width="7" height="1" fill="#B375AB" class="highcharts-point"></rect><rect x="222" y="137" width="7" height="7" fill="#B375AB" class="highcharts-point"></rect><rect x="248" y="143" width="7" height="1" fill="#B375AB" class="highcharts-point"></rect><rect x="274" y="144" width="7" height="0" fill="#B375AB" class="highcharts-point"></rect><rect x="300" y="136" width="7" height="8" fill="#B375AB" class="highcharts-point"></rect><rect x="326" y="143" width="7" height="1" fill="#B375AB" class="highcharts-point"></rect><rect x="352" y="140" width="7" height="4" fill="#B375AB" class="highcharts-point"></rect><rect x="378" y="133" width="7" height="11" fill="#B375AB" class="highcharts-point"></rect><rect x="404" y="21" width="7" height="123" fill="#B375AB" class="highcharts-point"></rect></g><g class="highcharts-markers highcharts-series-2 highcharts-column-series highcharts-color-undefined " transform="translate(49,109) scale(1 1)" clip-path="none"></g><g class="highcharts-series highcharts-series-3 highcharts-column-series highcharts-color-undefined " visibility="hidden" transform="translate(49,109) scale(1 1)" clip-path="url(#highcharts-e0aekzt-13)"></g><g class="highcharts-markers highcharts-series-3 highcharts-column-series highcharts-color-undefined " visibility="hidden" transform="translate(49,109) scale(1 1)" clip-path="none"></g><g class="highcharts-series highcharts-series-4 highcharts-column-series highcharts-color-undefined " transform="translate(63,311) scale(1 1)" clip-path="url(#highcharts-e0aekzt-14)"><rect x="221" y="41" width="1" height="0" fill="#FF8028" class="highcharts-point"></rect><rect x="226" y="41" width="1" height="0" fill="#FF8028" class="highcharts-point"></rect><rect x="231" y="41" width="1" height="0" fill="#FF8028" class="highcharts-point"></rect><rect x="236" y="41" width="1" height="0" fill="#FF8028" class="highcharts-point"></rect><rect x="241" y="41" width="1" height="0" fill="#FF8028" class="highcharts-point"></rect><rect x="246" y="41" width="1" height="0" fill="#FF8028" class="highcharts-point"></rect><rect x="251" y="41" width="1" height="0" fill="#FF8028" class="highcharts-point"></rect><rect x="256" y="41" width="1" height="0" fill="#FF8028" class="highcharts-point"></rect><rect x="261" y="41" width="1" height="0" fill="#FF8028" class="highcharts-point"></rect><rect x="267" y="41" width="1" height="0" fill="#FF8028" class="highcharts-point"></rect><rect x="272" y="41" width="1" height="0" fill="#FF8028" class="highcharts-point"></rect><rect x="277" y="41" width="1" height="0" fill="#FF8028" class="highcharts-point"></rect><rect x="282" y="41" width="1" height="0" fill="#FF8028" class="highcharts-point"></rect><rect x="287" y="41" width="1" height="0" fill="#FF8028" class="highcharts-point"></rect><rect x="292" y="41" width="1" height="0" fill="#FF8028" class="highcharts-point"></rect><rect x="297" y="41" width="1" height="0" fill="#FF8028" class="highcharts-point"></rect><rect x="302" y="41" width="1" height="0" fill="#FF8028" class="highcharts-point"></rect><rect x="307" y="41" width="1" height="0" fill="#FF8028" class="highcharts-point"></rect><rect x="313" y="41" width="1" height="0" fill="#FF8028" class="highcharts-point"></rect><rect x="318" y="41" width="1" height="0" fill="#FF8028" class="highcharts-point"></rect><rect x="323" y="41" width="1" height="0" fill="#FF8028" class="highcharts-point"></rect><rect x="328" y="41" width="1" height="0" fill="#FF8028" class="highcharts-point"></rect><rect x="333" y="41" width="1" height="0" fill="#FF8028" class="highcharts-point"></rect><rect x="338" y="41" width="1" height="0" fill="#FF8028" class="highcharts-point"></rect><rect x="343" y="41" width="1" height="0" fill="#FF8028" class="highcharts-point"></rect><rect x="348" y="41" width="1" height="0" fill="#FF8028" class="highcharts-point"></rect><rect x="353" y="41" width="1" height="0" fill="#FF8028" class="highcharts-point"></rect><rect x="358" y="41" width="1" height="0" fill="#FF8028" class="highcharts-point"></rect><rect x="364" y="41" width="1" height="0" fill="#FF8028" class="highcharts-point"></rect><rect x="369" y="41" width="1" height="0" fill="#FF8028" class="highcharts-point"></rect><rect x="374" y="41" width="1" height="0" fill="#FF8028" class="highcharts-point"></rect><rect x="379" y="41" width="1" height="0" fill="#FF8028" class="highcharts-point"></rect><rect x="384" y="41" width="1" height="0" fill="#FF8028" class="highcharts-point"></rect></g><g class="highcharts-markers highcharts-series-4 highcharts-column-series highcharts-color-undefined " transform="translate(63,311) scale(1 1)" clip-path="none"></g><g class="highcharts-series highcharts-series-5 highcharts-column-series highcharts-color-undefined " transform="translate(63,311) scale(1 1)" clip-path="url(#highcharts-e0aekzt-14)"><rect x="221" y="41" width="1" height="0" fill="#DC440E" class="highcharts-point"></rect><rect x="226" y="41" width="1" height="0" fill="#DC440E" class="highcharts-point"></rect><rect x="232" y="41" width="1" height="0" fill="#DC440E" class="highcharts-point"></rect><rect x="237" y="41" width="1" height="0" fill="#DC440E" class="highcharts-point"></rect><rect x="242" y="41" width="1" height="0" fill="#DC440E" class="highcharts-point"></rect><rect x="247" y="41" width="1" height="0" fill="#DC440E" class="highcharts-point"></rect><rect x="252" y="41" width="1" height="0" fill="#DC440E" class="highcharts-point"></rect><rect x="257" y="41" width="1" height="0" fill="#DC440E" class="highcharts-point"></rect><rect x="262" y="41" width="1" height="0" fill="#DC440E" class="highcharts-point"></rect><rect x="267" y="41" width="1" height="0" fill="#DC440E" class="highcharts-point"></rect><rect x="272" y="41" width="1" height="0" fill="#DC440E" class="highcharts-point"></rect><rect x="278" y="41" width="1" height="0" fill="#DC440E" class="highcharts-point"></rect><rect x="283" y="41" width="1" height="0" fill="#DC440E" class="highcharts-point"></rect><rect x="288" y="41" width="1" height="0" fill="#DC440E" class="highcharts-point"></rect><rect x="293" y="41" width="1" height="0" fill="#DC440E" class="highcharts-point"></rect><rect x="298" y="40" width="1" height="1" fill="#DC440E" class="highcharts-point"></rect><rect x="303" y="41" width="1" height="0" fill="#DC440E" class="highcharts-point"></rect><rect x="308" y="41" width="1" height="0" fill="#DC440E" class="highcharts-point"></rect><rect x="313" y="41" width="1" height="0" fill="#DC440E" class="highcharts-point"></rect><rect x="318" y="41" width="1" height="0" fill="#DC440E" class="highcharts-point"></rect><rect x="323" y="41" width="1" height="0" fill="#DC440E" class="highcharts-point"></rect><rect x="329" y="41" width="1" height="0" fill="#DC440E" class="highcharts-point"></rect><rect x="334" y="41" width="1" height="0" fill="#DC440E" class="highcharts-point"></rect><rect x="339" y="41" width="1" height="0" fill="#DC440E" class="highcharts-point"></rect><rect x="344" y="41" width="1" height="0" fill="#DC440E" class="highcharts-point"></rect><rect x="349" y="41" width="1" height="0" fill="#DC440E" class="highcharts-point"></rect><rect x="354" y="41" width="1" height="0" fill="#DC440E" class="highcharts-point"></rect><rect x="359" y="41" width="1" height="0" fill="#DC440E" class="highcharts-point"></rect><rect x="364" y="41" width="1" height="0" fill="#DC440E" class="highcharts-point"></rect><rect x="369" y="41" width="1" height="0" fill="#DC440E" class="highcharts-point"></rect><rect x="375" y="40" width="1" height="1" fill="#DC440E" class="highcharts-point"></rect><rect x="380" y="41" width="1" height="0" fill="#DC440E" class="highcharts-point"></rect><rect x="385" y="40" width="1" height="1" fill="#DC440E" class="highcharts-point"></rect></g><g class="highcharts-markers highcharts-series-5 highcharts-column-series highcharts-color-undefined " transform="translate(63,311) scale(1 1)" clip-path="none"></g><g class="highcharts-series highcharts-series-6 highcharts-column-series highcharts-color-undefined " transform="translate(63,311) scale(1 1)" clip-path="url(#highcharts-e0aekzt-14)"><rect x="3" y="41" width="1" height="0" fill="#B375AB" class="highcharts-point"></rect><rect x="8" y="41" width="1" height="0" fill="#B375AB" class="highcharts-point"></rect><rect x="13" y="41" width="1" height="0" fill="#B375AB" class="highcharts-point"></rect><rect x="18" y="41" width="1" height="0" fill="#B375AB" class="highcharts-point"></rect><rect x="23" y="41" width="1" height="0" fill="#B375AB" class="highcharts-point"></rect><rect x="28" y="41" width="1" height="0" fill="#B375AB" class="highcharts-point"></rect><rect x="33" y="41" width="1" height="0" fill="#B375AB" class="highcharts-point"></rect><rect x="38" y="41" width="1" height="0" fill="#B375AB" class="highcharts-point"></rect><rect x="43" y="41" width="1" height="0" fill="#B375AB" class="highcharts-point"></rect><rect x="49" y="41" width="1" height="0" fill="#B375AB" class="highcharts-point"></rect><rect x="54" y="41" width="1" height="0" fill="#B375AB" class="highcharts-point"></rect><rect x="59" y="41" width="1" height="0" fill="#B375AB" class="highcharts-point"></rect><rect x="64" y="41" width="1" height="0" fill="#B375AB" class="highcharts-point"></rect><rect x="69" y="41" width="1" height="0" fill="#B375AB" class="highcharts-point"></rect><rect x="74" y="41" width="1" height="0" fill="#B375AB" class="highcharts-point"></rect><rect x="79" y="41" width="1" height="0" fill="#B375AB" class="highcharts-point"></rect><rect x="84" y="41" width="1" height="0" fill="#B375AB" class="highcharts-point"></rect><rect x="89" y="41" width="1" height="0" fill="#B375AB" class="highcharts-point"></rect><rect x="95" y="41" width="1" height="0" fill="#B375AB" class="highcharts-point"></rect><rect x="100" y="41" width="1" height="0" fill="#B375AB" class="highcharts-point"></rect><rect x="105" y="41" width="1" height="0" fill="#B375AB" class="highcharts-point"></rect><rect x="110" y="41" width="1" height="0" fill="#B375AB" class="highcharts-point"></rect><rect x="115" y="41" width="1" height="0" fill="#B375AB" class="highcharts-point"></rect><rect x="120" y="41" width="1" height="0" fill="#B375AB" class="highcharts-point"></rect><rect x="125" y="41" width="1" height="0" fill="#B375AB" class="highcharts-point"></rect><rect x="130" y="41" width="1" height="0" fill="#B375AB" class="highcharts-point"></rect><rect x="135" y="41" width="1" height="0" fill="#B375AB" class="highcharts-point"></rect><rect x="140" y="41" width="1" height="0" fill="#B375AB" class="highcharts-point"></rect><rect x="146" y="41" width="1" height="0" fill="#B375AB" class="highcharts-point"></rect><rect x="151" y="41" width="1" height="0" fill="#B375AB" class="highcharts-point"></rect><rect x="156" y="41" width="1" height="0" fill="#B375AB" class="highcharts-point"></rect><rect x="161" y="41" width="1" height="0" fill="#B375AB" class="highcharts-point"></rect><rect x="166" y="41" width="1" height="0" fill="#B375AB" class="highcharts-point"></rect><rect x="171" y="41" width="1" height="0" fill="#B375AB" class="highcharts-point"></rect><rect x="176" y="41" width="1" height="0" fill="#B375AB" class="highcharts-point"></rect><rect x="181" y="41" width="1" height="0" fill="#B375AB" class="highcharts-point"></rect><rect x="186" y="41" width="1" height="0" fill="#B375AB" class="highcharts-point"></rect><rect x="192" y="41" width="1" height="0" fill="#B375AB" class="highcharts-point"></rect><rect x="197" y="41" width="1" height="0" fill="#B375AB" class="highcharts-point"></rect><rect x="202" y="41" width="1" height="0" fill="#B375AB" class="highcharts-point"></rect><rect x="207" y="41" width="1" height="0" fill="#B375AB" class="highcharts-point"></rect><rect x="212" y="41" width="1" height="0" fill="#B375AB" class="highcharts-point"></rect><rect x="217" y="41" width="1" height="0" fill="#B375AB" class="highcharts-point"></rect><rect x="222" y="41" width="1" height="0" fill="#B375AB" class="highcharts-point"></rect><rect x="227" y="41" width="1" height="0" fill="#B375AB" class="highcharts-point"></rect><rect x="232" y="41" width="1" height="0" fill="#B375AB" class="highcharts-point"></rect><rect x="237" y="41" width="1" height="0" fill="#B375AB" class="highcharts-point"></rect><rect x="243" y="41" width="1" height="0" fill="#B375AB" class="highcharts-point"></rect><rect x="248" y="41" width="1" height="0" fill="#B375AB" class="highcharts-point"></rect><rect x="253" y="41" width="1" height="0" fill="#B375AB" class="highcharts-point"></rect><rect x="258" y="41" width="1" height="0" fill="#B375AB" class="highcharts-point"></rect><rect x="263" y="41" width="1" height="0" fill="#B375AB" class="highcharts-point"></rect><rect x="268" y="41" width="1" height="0" fill="#B375AB" class="highcharts-point"></rect><rect x="273" y="41" width="1" height="0" fill="#B375AB" class="highcharts-point"></rect><rect x="278" y="41" width="1" height="0" fill="#B375AB" class="highcharts-point"></rect><rect x="283" y="41" width="1" height="0" fill="#B375AB" class="highcharts-point"></rect><rect x="289" y="41" width="1" height="0" fill="#B375AB" class="highcharts-point"></rect><rect x="294" y="41" width="1" height="0" fill="#B375AB" class="highcharts-point"></rect><rect x="299" y="40" width="1" height="1" fill="#B375AB" class="highcharts-point"></rect><rect x="304" y="41" width="1" height="0" fill="#B375AB" class="highcharts-point"></rect><rect x="309" y="41" width="1" height="0" fill="#B375AB" class="highcharts-point"></rect><rect x="314" y="41" width="1" height="0" fill="#B375AB" class="highcharts-point"></rect><rect x="319" y="41" width="1" height="0" fill="#B375AB" class="highcharts-point"></rect><rect x="324" y="41" width="1" height="0" fill="#B375AB" class="highcharts-point"></rect><rect x="329" y="41" width="1" height="0" fill="#B375AB" class="highcharts-point"></rect><rect x="334" y="41" width="1" height="0" fill="#B375AB" class="highcharts-point"></rect><rect x="340" y="40" width="1" height="1" fill="#B375AB" class="highcharts-point"></rect><rect x="345" y="41" width="1" height="0" fill="#B375AB" class="highcharts-point"></rect><rect x="350" y="41" width="1" height="0" fill="#B375AB" class="highcharts-point"></rect><rect x="355" y="41" width="1" height="0" fill="#B375AB" class="highcharts-point"></rect><rect x="360" y="41" width="1" height="0" fill="#B375AB" class="highcharts-point"></rect><rect x="365" y="41" width="1" height="0" fill="#B375AB" class="highcharts-point"></rect><rect x="370" y="41" width="1" height="0" fill="#B375AB" class="highcharts-point"></rect><rect x="375" y="41" width="1" height="0" fill="#B375AB" class="highcharts-point"></rect><rect x="380" y="41" width="1" height="0" fill="#B375AB" class="highcharts-point"></rect><rect x="386" y="40" width="1" height="1" fill="#B375AB" class="highcharts-point"></rect></g><g class="highcharts-markers highcharts-series-6 highcharts-column-series highcharts-color-undefined " transform="translate(63,311) scale(1 1)" clip-path="none"></g><g class="highcharts-series highcharts-series-7 highcharts-column-series highcharts-color-undefined " transform="translate(63,311) scale(1 1)" clip-path="url(#highcharts-e0aekzt-14)"><rect x="3" y="41" width="1" height="0" fill="#923F8D" class="highcharts-point"></rect><rect x="9" y="41" width="1" height="0" fill="#923F8D" class="highcharts-point"></rect><rect x="14" y="41" width="1" height="0" fill="#923F8D" class="highcharts-point"></rect><rect x="19" y="41" width="1" height="0" fill="#923F8D" class="highcharts-point"></rect><rect x="24" y="41" width="1" height="0" fill="#923F8D" class="highcharts-point"></rect><rect x="29" y="41" width="1" height="0" fill="#923F8D" class="highcharts-point"></rect><rect x="34" y="41" width="1" height="0" fill="#923F8D" class="highcharts-point"></rect><rect x="39" y="41" width="1" height="0" fill="#923F8D" class="highcharts-point"></rect><rect x="44" y="41" width="1" height="0" fill="#923F8D" class="highcharts-point"></rect><rect x="49" y="41" width="1" height="0" fill="#923F8D" class="highcharts-point"></rect><rect x="54" y="41" width="1" height="0" fill="#923F8D" class="highcharts-point"></rect><rect x="60" y="41" width="1" height="0" fill="#923F8D" class="highcharts-point"></rect><rect x="65" y="41" width="1" height="0" fill="#923F8D" class="highcharts-point"></rect><rect x="70" y="41" width="1" height="0" fill="#923F8D" class="highcharts-point"></rect><rect x="75" y="41" width="1" height="0" fill="#923F8D" class="highcharts-point"></rect><rect x="80" y="41" width="1" height="0" fill="#923F8D" class="highcharts-point"></rect><rect x="85" y="41" width="1" height="0" fill="#923F8D" class="highcharts-point"></rect><rect x="90" y="41" width="1" height="0" fill="#923F8D" class="highcharts-point"></rect><rect x="95" y="41" width="1" height="0" fill="#923F8D" class="highcharts-point"></rect><rect x="100" y="41" width="1" height="0" fill="#923F8D" class="highcharts-point"></rect><rect x="106" y="41" width="1" height="0" fill="#923F8D" class="highcharts-point"></rect><rect x="111" y="41" width="1" height="0" fill="#923F8D" class="highcharts-point"></rect><rect x="116" y="41" width="1" height="0" fill="#923F8D" class="highcharts-point"></rect><rect x="121" y="41" width="1" height="0" fill="#923F8D" class="highcharts-point"></rect><rect x="126" y="41" width="1" height="0" fill="#923F8D" class="highcharts-point"></rect><rect x="131" y="41" width="1" height="0" fill="#923F8D" class="highcharts-point"></rect><rect x="136" y="41" width="1" height="0" fill="#923F8D" class="highcharts-point"></rect><rect x="141" y="41" width="1" height="0" fill="#923F8D" class="highcharts-point"></rect><rect x="146" y="41" width="1" height="0" fill="#923F8D" class="highcharts-point"></rect><rect x="151" y="41" width="1" height="0" fill="#923F8D" class="highcharts-point"></rect><rect x="157" y="41" width="1" height="0" fill="#923F8D" class="highcharts-point"></rect><rect x="162" y="41" width="1" height="0" fill="#923F8D" class="highcharts-point"></rect><rect x="167" y="40" width="1" height="1" fill="#923F8D" class="highcharts-point"></rect><rect x="172" y="41" width="1" height="0" fill="#923F8D" class="highcharts-point"></rect><rect x="177" y="41" width="1" height="0" fill="#923F8D" class="highcharts-point"></rect><rect x="182" y="41" width="1" height="0" fill="#923F8D" class="highcharts-point"></rect><rect x="187" y="41" width="1" height="0" fill="#923F8D" class="highcharts-point"></rect><rect x="192" y="41" width="1" height="0" fill="#923F8D" class="highcharts-point"></rect><rect x="197" y="41" width="1" height="0" fill="#923F8D" class="highcharts-point"></rect><rect x="203" y="41" width="1" height="0" fill="#923F8D" class="highcharts-point"></rect><rect x="208" y="41" width="1" height="0" fill="#923F8D" class="highcharts-point"></rect><rect x="213" y="41" width="1" height="0" fill="#923F8D" class="highcharts-point"></rect><rect x="218" y="41" width="1" height="0" fill="#923F8D" class="highcharts-point"></rect><rect x="223" y="41" width="1" height="0" fill="#923F8D" class="highcharts-point"></rect><rect x="228" y="40" width="1" height="1" fill="#923F8D" class="highcharts-point"></rect><rect x="233" y="41" width="1" height="0" fill="#923F8D" class="highcharts-point"></rect><rect x="238" y="40" width="1" height="1" fill="#923F8D" class="highcharts-point"></rect><rect x="243" y="41" width="1" height="0" fill="#923F8D" class="highcharts-point"></rect><rect x="248" y="41" width="1" height="0" fill="#923F8D" class="highcharts-point"></rect><rect x="254" y="41" width="1" height="0" fill="#923F8D" class="highcharts-point"></rect><rect x="259" y="40" width="1" height="1" fill="#923F8D" class="highcharts-point"></rect><rect x="264" y="41" width="1" height="0" fill="#923F8D" class="highcharts-point"></rect><rect x="269" y="41" width="1" height="0" fill="#923F8D" class="highcharts-point"></rect><rect x="274" y="38" width="1" height="3" fill="#923F8D" class="highcharts-point"></rect><rect x="279" y="40" width="1" height="1" fill="#923F8D" class="highcharts-point"></rect><rect x="284" y="41" width="1" height="0" fill="#923F8D" class="highcharts-point"></rect><rect x="289" y="40" width="1" height="1" fill="#923F8D" class="highcharts-point"></rect><rect x="294" y="41" width="1" height="0" fill="#923F8D" class="highcharts-point"></rect><rect x="300" y="36" width="1" height="5" fill="#923F8D" class="highcharts-point"></rect><rect x="305" y="41" width="1" height="0" fill="#923F8D" class="highcharts-point"></rect><rect x="310" y="40" width="1" height="1" fill="#923F8D" class="highcharts-point"></rect><rect x="315" y="41" width="1" height="0" fill="#923F8D" class="highcharts-point"></rect><rect x="320" y="40" width="1" height="1" fill="#923F8D" class="highcharts-point"></rect><rect x="325" y="41" width="1" height="0" fill="#923F8D" class="highcharts-point"></rect><rect x="330" y="41" width="1" height="0" fill="#923F8D" class="highcharts-point"></rect><rect x="335" y="40" width="1" height="1" fill="#923F8D" class="highcharts-point"></rect><rect x="340" y="5" width="1" height="36" fill="#923F8D" class="highcharts-point"></rect><rect x="345" y="41" width="1" height="0" fill="#923F8D" class="highcharts-point"></rect><rect x="351" y="41" width="1" height="0" fill="#923F8D" class="highcharts-point"></rect><rect x="356" y="41" width="1" height="0" fill="#923F8D" class="highcharts-point"></rect><rect x="361" y="41" width="1" height="0" fill="#923F8D" class="highcharts-point"></rect><rect x="366" y="40" width="1" height="1" fill="#923F8D" class="highcharts-point"></rect><rect x="371" y="41" width="1" height="0" fill="#923F8D" class="highcharts-point"></rect><rect x="376" y="41" width="1" height="0" fill="#923F8D" class="highcharts-point"></rect><rect x="381" y="41" width="1" height="0" fill="#923F8D" class="highcharts-point"></rect><rect x="386" y="28" width="1" height="13" fill="#923F8D" class="highcharts-point"></rect></g><g class="highcharts-markers highcharts-series-7 highcharts-column-series highcharts-color-undefined " transform="translate(63,311) scale(1 1)" clip-path="none"></g></g><text x="10" text-anchor="start" class="highcharts-title" style="color:#000000;font-size:1.1em;font-weight:bold;fill:#000000;" y="20"><tspan>Gebäudeschäden durch Hochwasser und Rutschungen</tspan></text><text x="10" text-anchor="start" class="highcharts-subtitle" style="color:#000000;font-size:0.9em;fill:#000000;" y="38"><tspan>Anzahl Schadenfälle; Tausend CHF (rechte Skala)</tspan></text><g class="highcharts-legend" transform="translate(10,40)"><rect fill="none" class="highcharts-legend-box" rx="0" ry="0" x="0" y="0" width="365" height="57" visibility="visible"></rect><g><g><g class="highcharts-legend-item highcharts-column-series highcharts-color-undefined highcharts-series-0" transform="translate(12,7)"><text x="21" style="color:#333333;font-size:1em;font-weight:normal;cursor:pointer;fill:#333333;" text-anchor="start" y="15"><tspan>BS: Schadenfälle</tspan></text><rect x="2" y="4" width="12" height="12" fill="#FF8028" class="highcharts-point"></rect></g><g class="highcharts-legend-item highcharts-column-series highcharts-color-undefined highcharts-series-1 highcharts-legend-item-hidden" transform="translate(145,7)"><text x="21" y="15" style="color:#cccccc;font-size:1em;font-weight:normal;cursor:pointer;fill:#cccccc;" text-anchor="start"><tspan>BS: Schadensumme (rechte Skala)</tspan></text><rect x="2" y="4" width="12" height="12" fill="#cccccc" class="highcharts-point"></rect></g><g class="highcharts-legend-item highcharts-column-series highcharts-color-undefined highcharts-series-2" transform="translate(12,26)"><text x="21" y="15" style="color:#333333;font-size:1em;font-weight:normal;cursor:pointer;fill:#333333;" text-anchor="start"><tspan>BL: Schadenfälle</tspan></text><rect x="2" y="4" width="12" height="12" fill="#B375AB" class="highcharts-point"></rect></g><g class="highcharts-legend-item highcharts-column-series highcharts-color-undefined highcharts-series-3 highcharts-legend-item-hidden" transform="translate(143.671875,26)"><text x="21" y="15" style="color:#cccccc;font-size:1em;font-weight:normal;cursor:pointer;fill:#cccccc;" text-anchor="start"><tspan>BL: Schadensumme (rechte Skala)</tspan></text><rect x="2" y="4" width="12" height="12" fill="#cccccc" class="highcharts-point"></rect></g></g></g></g><g class="highcharts-axis-labels highcharts-xaxis-labels "><text x="64.59272486435067" style="color:#000000;cursor:default;font-size:0.9em;fill:#000000;" text-anchor="end" transform="translate(0,0) rotate(-45 64.59272486435067 268)" y="268" opacity="1"><tspan>2001</tspan></text><text x="90.59272486435067" style="color:#000000;cursor:default;font-size:0.9em;fill:#000000;" text-anchor="end" transform="translate(0,0) rotate(-45 90.59272486435067 268)" y="268" opacity="1"><tspan>2002</tspan></text><text x="116.59272486435069" style="color:#000000;cursor:default;font-size:0.9em;fill:#000000;" text-anchor="end" transform="translate(0,0) rotate(-45 116.59272486435069 268)" y="268" opacity="1"><tspan>2003</tspan></text><text x="142.59272486435069" style="color:#000000;cursor:default;font-size:0.9em;fill:#000000;" text-anchor="end" transform="translate(0,0) rotate(-45 142.59272486435069 268)" y="268" opacity="1"><tspan>2004</tspan></text><text x="168.59272486435069" style="color:#000000;cursor:default;font-size:0.9em;fill:#000000;" text-anchor="end" transform="translate(0,0) rotate(-45 168.59272486435069 268)" y="268" opacity="1"><tspan>2005</tspan></text><text x="194.59272486435069" style="color:#000000;cursor:default;font-size:0.9em;fill:#000000;" text-anchor="end" transform="translate(0,0) rotate(-45 194.59272486435069 268)" y="268" opacity="1"><tspan>2006</tspan></text><text x="220.59272486435069" style="color:#000000;cursor:default;font-size:0.9em;fill:#000000;" text-anchor="end" transform="translate(0,0) rotate(-45 220.59272486435069 268)" y="268" opacity="1"><tspan>2007</tspan></text><text x="246.59272486435066" style="color:#000000;cursor:default;font-size:0.9em;fill:#000000;" text-anchor="end" transform="translate(0,0) rotate(-45 246.59272486435066 268)" y="268" opacity="1"><tspan>2008</tspan></text><text x="272.59272486435066" style="color:#000000;cursor:default;font-size:0.9em;fill:#000000;" text-anchor="end" transform="translate(0,0) rotate(-45 272.59272486435066 268)" y="268" opacity="1"><tspan>2009</tspan></text><text x="298.59272486435066" style="color:#000000;cursor:default;font-size:0.9em;fill:#000000;" text-anchor="end" transform="translate(0,0) rotate(-45 298.59272486435066 268)" y="268" opacity="1"><tspan>2010</tspan></text><text x="324.59272486435066" style="color:#000000;cursor:default;font-size:0.9em;fill:#000000;" text-anchor="end" transform="translate(0,0) rotate(-45 324.59272486435066 268)" y="268" opacity="1"><tspan>2011</tspan></text><text x="350.59272486435066" style="color:#000000;cursor:default;font-size:0.9em;fill:#000000;" text-anchor="end" transform="translate(0,0) rotate(-45 350.59272486435066 268)" y="268" opacity="1"><tspan>2012</tspan></text><text x="376.59272486435066" style="color:#000000;cursor:default;font-size:0.9em;fill:#000000;" text-anchor="end" transform="translate(0,0) rotate(-45 376.59272486435066 268)" y="268" opacity="1"><tspan>2013</tspan></text><text x="402.59272486435066" style="color:#000000;cursor:default;font-size:0.9em;fill:#000000;" text-anchor="end" transform="translate(0,0) rotate(-45 402.59272486435066 268)" y="268" opacity="1"><tspan>2014</tspan></text><text x="428.59272486435066" style="color:#000000;cursor:default;font-size:0.9em;fill:#000000;" text-anchor="end" transform="translate(0,0) rotate(-45 428.59272486435066 268)" y="268" opacity="1"><tspan>2015</tspan></text><text x="454.59272486435066" style="color:#000000;cursor:default;font-size:0.9em;fill:#000000;" text-anchor="end" transform="translate(0,0) rotate(-45 454.59272486435066 268)" y="268" opacity="1"><tspan>2016</tspan></text></g><g class="highcharts-axis-labels highcharts-xaxis-labels highcharts-navigator-xaxis"></g><g class="highcharts-axis-labels highcharts-yaxis-labels "><text x="34" style="color:#000000;cursor:default;font-size:0.9em;fill:#000000;" text-anchor="end" transform="translate(0,0)" y="257" opacity="1"><tspan>0</tspan></text><text x="34" style="color:#000000;cursor:default;font-size:0.9em;fill:#000000;" text-anchor="end" transform="translate(0,0)" y="185" opacity="1"><tspan>800</tspan></text><text x="34" style="color:#000000;cursor:default;font-size:0.9em;fill:#000000;" text-anchor="end" transform="translate(0,0)" y="114" opacity="1"><tspan>1600</tspan></text></g><g class="highcharts-axis-labels highcharts-yaxis-labels "></g><g class="highcharts-axis-labels highcharts-yaxis-labels highcharts-navigator-yaxis"></g><g class="highcharts-navigator" visibility="visible"><rect fill="rgb(0,0,0)" fill-opacity="0" class="highcharts-navigator-mask-outside" x="63" y="311" width="309" height="40"></rect><rect fill="rgb(102,133,194)" fill-opacity="0.3" class="highcharts-navigator-mask-inside" style="cursor:ew-resize;" x="372" y="311" width="76" height="40"></rect><rect fill="rgb(0,0,0)" fill-opacity="0" class="highcharts-navigator-mask-outside" x="448" y="311" width="3" height="40"></rect><path fill="none" class="highcharts-navigator-outline" stroke="#cccccc" stroke-width="1" d="M 49 311.5 L 371.5 311.5 L 371.5 365.5 L 447.5 365.5 L 447.5 311.5 L 465 311.5 M 371 311.5 L 448 311.5"></path><path fill="#f2f2f2" d="M -4.5 0.5 L 3.5 0.5 L 3.5 15.5 L -4.5 15.5 L -4.5 0.5 M -1.5 4 L -1.5 12 M 0.5 4 L 0.5 12" class="highcharts-navigator-handle highcharts-navigator-handle-right" stroke="#999999" stroke-width="1" style="cursor:ew-resize;" transform="translate(448,323)"></path><path fill="#f2f2f2" d="M -4.5 0.5 L 3.5 0.5 L 3.5 15.5 L -4.5 15.5 L -4.5 0.5 M -1.5 4 L -1.5 12 M 0.5 4 L 0.5 12" class="highcharts-navigator-handle highcharts-navigator-handle-left" stroke="#999999" stroke-width="1" style="cursor:ew-resize;" transform="translate(372,323)"></path></g><text x="10" class="highcharts-credits" text-anchor="start" style="cursor:default;color:#000000;font-size:0.8em;fill:#000000;" y="400"><tspan>Quelle: Gebäudeversicherung des Kantons Basel-Stadt; Basellandschaftliche Gebäudeversicherung</tspan></text></svg>