<svg class="highcharts-root" xmlns="http://www.w3.org/2000/svg" viewBox="0 0 485 415" font-family="Arial" font-size="12">
    <defs>
        <clipPath id="a">
            <path fill="none" d="M0 0h270v295H0z"/>
        </clipPath>
    </defs>
    <rect fill="#fbfbfb" class="highcharts-background" width="485" height="415" rx="0" ry="0"/>
    <path fill="none" class="highcharts-plot-background" d="M53 55h270v295H53z"/>
    <g class="highcharts-grid highcharts-xaxis-grid">
        <path fill="none" class="highcharts-grid-line" d="M187.5 55v295m135-295v295M52.5 55v295"/>
    </g>
    <g class="highcharts-grid highcharts-yaxis-grid">
        <path fill="none" stroke="#e6e6e6" class="highcharts-grid-line" d="M53 350.5h270m-270-29h270m-270-30h270m-270-29h270m-270-30h270m-270-29h270m-270-30h270m-270-29h270m-270-30h270m-270-29h270m-270-31h270"/>
    </g>
    <path fill="none" class="highcharts-plot-border" d="M53 55h270v295H53z"/>
    <g class="highcharts-axis highcharts-xaxis">
        <path fill="none" class="highcharts-tick" stroke="#FFF" d="M187.5 350v10m136-10v10m-271-10v10"/>
        <path fill="none" class="highcharts-axis-line" stroke="#ccd6eb" d="M53 350.5h270"/>
    </g>
    <g class="highcharts-axis highcharts-yaxis">
        <path fill="none" class="highcharts-axis-line" d="M53 55v295"/>
    </g>
    <g class="highcharts-series-group">
        <g class="highcharts-series highcharts-series-0 highcharts-column-series highcharts-color-undefined highcharts-tracker" transform="translate(53 55)" clip-path="url(#a)">
            <path fill="#B475AB" class="highcharts-point" stroke="#fff" d="M34.5 274.5h65v21h-65zm135-4h65v25h-65z"/>
        </g>
        <g class="highcharts-series highcharts-series-1 highcharts-column-series highcharts-color-undefined highcharts-tracker" transform="translate(53 55)" clip-path="url(#a)">
            <path fill="#71A3B5" class="highcharts-point" stroke="#fff" d="M34.5 255.5h65v19h-65zm135-9h65v24h-65z"/>
        </g>
        <g class="highcharts-series highcharts-series-2 highcharts-column-series highcharts-color-undefined highcharts-tracker" transform="translate(53 55)" clip-path="url(#a)">
            <path fill="#FFBB58" class="highcharts-point" stroke="#fff" d="M34.5 17.5h65v238h-65zm135-3h65v232h-65z"/>
        </g>
        <g class="highcharts-series highcharts-series-3 highcharts-column-series highcharts-color-undefined highcharts-tracker" transform="translate(53 55)" clip-path="url(#a)">
            <path fill="#C8C8C8" class="highcharts-point" stroke="#fff" d="M34.5 13.5h65v4h-65zm135-1h65v2h-65z"/>
        </g>
        <g class="highcharts-series highcharts-series-4 highcharts-column-series highcharts-color-undefined highcharts-tracker" transform="translate(53 55)" clip-path="url(#a)">
            <path fill="#8A8A8A" class="highcharts-point" stroke="#fff" d="M34.5-.5h65v14h-65zm135 0h65v13h-65z"/>
        </g>
    </g>
    <text x="10" class="highcharts-title" style="width:421px" y="21" color="#000" font-size="14" font-weight="700">
        <tspan>1.1.05 Zusammensetzung des Freundeskreises</tspan>
    </text>
    <text x="10" class="highcharts-subtitle" style="width:421px" y="40" color="#000">
        <tspan>«Wie sieht Dein Freundeskreis aus?»</tspan>
    </text>
    <g class="highcharts-legend" transform="translate(335 137)">
        <rect fill="none" class="highcharts-legend-box" rx="0" ry="0" width="140" height="121"/>
        <g class="highcharts-legend-item highcharts-column-series highcharts-color-undefined highcharts-series-4">
            <text x="21" style="width:115" y="15" color="#333" font-weight="400" cursor="pointer" fill="#333" transform="translate(8 3)">
                <tspan>Keine Angabe</tspan>
            </text>
            <path fill="#8A8A8A" class="highcharts-point" d="M10 7h12v12H10z"/>
        </g>
        <g class="highcharts-legend-item highcharts-column-series highcharts-color-undefined highcharts-series-3">
            <text x="21" y="15" style="width:115" color="#333" font-weight="400" cursor="pointer" fill="#333" transform="translate(8 22)">
                <tspan>Kein Freundeskreis</tspan>
            </text>
            <path fill="#C8C8C8" class="highcharts-point" d="M10 26h12v12H10z"/>
        </g>
        <g class="highcharts-legend-item highcharts-column-series highcharts-color-undefined highcharts-series-2">
            <text x="21" y="15" style="width:115" color="#333" font-weight="400" cursor="pointer" fill="#333" transform="translate(8 41)">
                <tspan>Mädchen und</tspan><tspan dy="15" x="21">Jungen</tspan><title>Mädchen und Jungen</title>
            </text>
            <path fill="#FFBB58" class="highcharts-point" d="M10 45h12v12H10z"/>
        </g>
        <g class="highcharts-legend-item highcharts-column-series highcharts-color-undefined highcharts-series-1">
            <text x="21" y="15" style="width:115" color="#333" font-weight="400" cursor="pointer" fill="#333" transform="translate(8 75)">
                <tspan>Nur Jungen</tspan>
            </text>
            <path fill="#71A3B5" class="highcharts-point" d="M10 79h12v12H10z"/>
        </g>
        <g class="highcharts-legend-item highcharts-column-series highcharts-color-undefined highcharts-series-0">
            <text x="21" y="15" style="width:115" color="#333" font-weight="400" cursor="pointer" fill="#333" transform="translate(8 94)">
                <tspan>Nur Mädchen</tspan>
            </text>
            <path fill="#B475AB" class="highcharts-point" d="M10 98h12v12H10z"/>
        </g>
    </g>
    <g class="highcharts-axis-labels highcharts-xaxis-labels" text-anchor="middle" color="#000" cursor="default" font-size="11">
        <text x="120.5" style="width:135" y="369" text-overflow="none">
            <tspan>2009</tspan><tspan x="120.5" dy="14">(N=881)</tspan>
        </text>
        <text x="255.5" style="width:135" y="369" text-overflow="none">
            <tspan>2013</tspan><tspan x="255.5" dy="14">(N=1038)</tspan>
        </text>
    </g>
    <g class="highcharts-axis-labels highcharts-yaxis-labels" text-anchor="end" color="#000" cursor="default" font-size="11">
        <text x="38" style="width:150px" y="355">
            <tspan>0%</tspan>
        </text>
        <text x="38" style="width:150px" y="325">
            <tspan>10%</tspan>
        </text>
        <text x="38" style="width:150px" y="296">
            <tspan>20%</tspan>
        </text>
        <text x="38" style="width:150px" y="266">
            <tspan>30%</tspan>
        </text>
        <text x="38" style="width:150px" y="237">
            <tspan>40%</tspan>
        </text>
        <text x="38" style="width:150px" y="207">
            <tspan>50%</tspan>
        </text>
        <text x="38" style="width:150px" y="178">
            <tspan>60%</tspan>
        </text>
        <text x="38" style="width:150px" y="148">
            <tspan>70%</tspan>
        </text>
        <text x="38" style="width:150px" y="119">
            <tspan>80%</tspan>
        </text>
        <text x="38" style="width:150px" y="89">
            <tspan>90%</tspan>
        </text>
        <text x="38" style="width:150px" y="60">
            <tspan>100%</tspan>
        </text>
    </g>
    <text x="10" class="highcharts-credits" y="400" cursor="default" color="#000" font-size="10">
        <tspan>Quelle: Statistisches Amt Basel-Stadt, kantonale Jugendbefragung: F34</tspan>
    </text>
</svg>
