<svg class="highcharts-root" xmlns="http://www.w3.org/2000/svg" viewBox="0 0 485 415" font-family="Arial" font-size="12">
    <defs>
        <clipPath id="a">
            <path fill="none" d="M0 0h428v224H0z"/>
        </clipPath>
    </defs>
    <rect fill="#fbfbfb" class="highcharts-background" width="485" height="415" rx="0" ry="0"/>
    <path fill="none" class="highcharts-plot-background" d="M47 112h428v224H47z"/>
    <g class="highcharts-grid highcharts-xaxis-grid">
        <path fill="none" class="highcharts-grid-line" d="M153.5 112v224m107-224v224m107-224v224m107-224v224m-428-224v224"/>
    </g>
    <g class="highcharts-grid highcharts-yaxis-grid">
        <path fill="none" stroke="#e6e6e6" class="highcharts-grid-line" d="M47 336.5h428m-428-56h428m-428-56h428m-428-56h428m-428-57h428"/>
    </g>
    <path fill="none" class="highcharts-plot-border" d="M47 112h428v224H47z"/>
    <g class="highcharts-axis highcharts-xaxis">
        <path fill="none" class="highcharts-tick" stroke="#FFF" d="M153.5 336v10m107-10v10m107-10v10m108-10v10m-429-10v10"/>
        <path fill="none" class="highcharts-axis-line" stroke="#ccd6eb" d="M47 336.5h428"/>
    </g>
    <g class="highcharts-axis highcharts-yaxis">
        <path fill="none" class="highcharts-axis-line" d="M47 112v224"/>
    </g>
    <g class="highcharts-series-group">
        <g class="highcharts-series highcharts-series-0 highcharts-column-series highcharts-color-undefined highcharts-tracker" transform="translate(47 112)" clip-path="url(#a)">
            <path fill="#b475ab" class="highcharts-point" stroke="#fff" d="M21.5 145.5h9v79h-9zm107 55h9v24h-9zm107-85h9v109h-9zm107-56h9v165h-9z"/>
        </g>
        <g class="highcharts-series highcharts-series-1 highcharts-column-series highcharts-color-undefined highcharts-tracker" transform="translate(47 112)" clip-path="url(#a)">
            <path fill="#a8c4cb" class="highcharts-point" stroke="#fff" d="M32.5 142.5h9v82h-9zm107 51h9v31h-9zm107-96h9v127h-9zm107-43h9v170h-9z"/>
        </g>
        <g class="highcharts-series highcharts-series-2 highcharts-column-series highcharts-color-undefined highcharts-tracker" transform="translate(47 112)" clip-path="url(#a)">
            <path fill="#73ba7c" class="highcharts-point" stroke="#fff" d="M43.5 137.5h9v87h-9zm107 50h9v37h-9zm107-107h9v144h-9zm107-45h9v189h-9z"/>
        </g>
        <g class="highcharts-series highcharts-series-3 highcharts-column-series highcharts-color-undefined highcharts-tracker" transform="translate(47 112)" clip-path="url(#a)">
            <path fill="#008AC3" class="highcharts-point" stroke="#fff" d="M54.5 132.5h9v92h-9zm107 50h9v42h-9zm107-100h9v142h-9zm107-51h9v193h-9z"/>
        </g>
        <g class="highcharts-series highcharts-series-4 highcharts-column-series highcharts-color-undefined highcharts-tracker" transform="translate(47 112)" clip-path="url(#a)">
            <path fill="#fabd24" class="highcharts-point" stroke="#fff" d="M64.5 127.5h9v97h-9zm107 51h9v46h-9zm107-100h9v146h-9zm107-50h9v196h-9z"/>
        </g>
        <g class="highcharts-series highcharts-series-5 highcharts-column-series highcharts-color-undefined highcharts-tracker" transform="translate(47 112)" clip-path="url(#a)">
            <path fill="#E64900" class="highcharts-point" stroke="#fff" d="M75.5 126.5h9v98h-9zm107 50h9v48h-9zm107-107h9v155h-9zm107-47h9v202h-9z"/>
        </g>
    </g>
    <text x="10" class="highcharts-title" y="21" color="#000" font-size="14" font-weight="700">
        <tspan>LP.4.15.1 Anteil Versicherte in Managed-Care-Modellen</tspan><tspan dy="17" x="10">(Ärztenetzwerke, HMO1) - Erwachsene ab 19 Jahren, Kanton</tspan><tspan dy="17" x="10">BS und CH</tspan><title>LP.4.15.1 Anteil Versicherte in Managed-Care-Modellen (Ärztenetzwerke, HMO1) - Erwachsene ab 19 Jahren, Kanton BS und CH</title>
    </text>
    <text x="10" class="highcharts-subtitle" y="74" color="#000" font-weight="400">
        <tspan>Erwachsene ab 19 Jahren, Kanton BS und CH</tspan>
    </text>
    <g class="highcharts-legend" transform="translate(40 75)">
        <rect fill="none" class="highcharts-legend-box" rx="0" ry="0" width="402" height="25"/>
        <g class="highcharts-legend-item highcharts-column-series highcharts-color-undefined highcharts-series-0">
            <text x="21" y="15" color="#333" font-weight="400" cursor="pointer" fill="#333" transform="translate(8 3)">
                2010
            </text>
            <path fill="#b475ab" class="highcharts-point" d="M10 7h12v12H10z"/>
        </g>
        <g class="highcharts-legend-item highcharts-column-series highcharts-color-undefined highcharts-series-1">
            <text x="21" y="15" color="#333" font-weight="400" cursor="pointer" fill="#333" transform="translate(75.688 3)">
                2011
            </text>
            <path fill="#a8c4cb" class="highcharts-point" d="M77.688 7h12v12h-12z"/>
        </g>
        <g class="highcharts-legend-item highcharts-column-series highcharts-color-undefined highcharts-series-2">
            <text x="21" y="15" color="#333" font-weight="400" cursor="pointer" fill="#333" transform="translate(143.375 3)">
                2012
            </text>
            <path fill="#73ba7c" class="highcharts-point" d="M145.375 7h12v12h-12z"/>
        </g>
        <g class="highcharts-legend-item highcharts-column-series highcharts-color-undefined highcharts-series-3">
            <text x="21" y="15" color="#333" font-weight="400" cursor="pointer" fill="#333" transform="translate(211.063 3)">
                2013
            </text>
            <path fill="#008AC3" class="highcharts-point" d="M213.063 7h12v12h-12z"/>
        </g>
        <g class="highcharts-legend-item highcharts-column-series highcharts-color-undefined highcharts-series-4">
            <text x="21" y="15" color="#333" font-weight="400" cursor="pointer" fill="#333" transform="translate(278.75 3)">
                2014
            </text>
            <path fill="#fabd24" class="highcharts-point" d="M280.75 7h12v12h-12z"/>
        </g>
        <g class="highcharts-legend-item highcharts-column-series highcharts-color-undefined highcharts-series-5">
            <text x="21" y="15" color="#333" font-weight="400" cursor="pointer" fill="#333" transform="translate(346.438 3)">
                2015
            </text>
            <path fill="#E64900" class="highcharts-point" d="M348.438 7h12v12h-12z"/>
        </g>
    </g>
    <g class="highcharts-axis-labels highcharts-xaxis-labels" text-anchor="middle" color="#000" cursor="default" font-size="11">
        <text x="100.5" y="355">
            <tspan>Versicherte in</tspan><tspan dy="14" x="100.5">HMO-Modellen BS</tspan><title>Versicherte in HMO-Modellen BS</title>
        </text>
        <text x="207.5" y="355">
            <tspan>Versicherte in</tspan><tspan dy="14" x="207.5">HMO-Modellen CH</tspan><title>Versicherte in HMO-Modellen CH</title>
        </text>
        <text x="314.5" y="355">
            <tspan>Versicherte in</tspan><tspan dy="14" x="314.5">Hausarzt-Modellen</tspan><tspan dy="14" x="314.5">BS</tspan><title>Versicherte in Hausarzt-Modellen BS</title>
        </text>
        <text x="421.5" y="355">
            <tspan>Versicherte in</tspan><tspan dy="14" x="421.5">Hausarzt-Modellen</tspan><tspan dy="14" x="421.5">CH</tspan><title>Versicherte in Hausarzt-Modellen CH</title>
        </text>
    </g>
    <g class="highcharts-axis-labels highcharts-yaxis-labels" text-anchor="end" color="#000" cursor="default" font-size="11">
        <text x="32" y="341">
            <tspan>0%</tspan>
        </text>
        <text x="32" y="285">
            <tspan>10%</tspan>
        </text>
        <text x="32" y="229">
            <tspan>20%</tspan>
        </text>
        <text x="32" y="173">
            <tspan>30%</tspan>
        </text>
        <text x="32" y="117">
            <tspan>40%</tspan>
        </text>
    </g>
    <text x="10" class="highcharts-credits" y="400" cursor="default" color="#000" font-size="10">
        <tspan>Quelle: Bundesamt für Gesundheit BAG</tspan>
    </text>
</svg>
