<svg class="highcharts-root" xmlns="http://www.w3.org/2000/svg" viewBox="0 0 485 415" font-family="Arial" font-size="12">
    <rect fill="#fbfbfb" class="highcharts-background" width="485" height="415" rx="0" ry="0"/>
    <path fill="none" class="highcharts-plot-background" d="M10 55h280v315H10z"/>
    <path fill="none" class="highcharts-plot-border" d="M10 55h280v315H10z"/>
    <g class="highcharts-series-group">
        <g class="highcharts-series highcharts-series-0 highcharts-pie-series highcharts-color-undefined highcharts-tracker" cursor="true">
            <path fill="#007A2F" d="M155.987 157a62 62 0 0 1 40.134 14.732L156 219z" class="highcharts-point highcharts-color-0"/>
            <path fill="#68AB2B" d="M196.168 171.772a62 62 0 0 1 20.96 36.86L156 219z" class="highcharts-point highcharts-color-1"/>
            <path fill="#73B97C" d="M217.137 208.694a62 62 0 0 1-63.753 72.25L156 219z" class="highcharts-point highcharts-color-2"/>
            <path fill="#990300" d="M153.322 280.942a62 62 0 0 1-51.714-32.185L156 219z" class="highcharts-point highcharts-color-3"/>
            <path fill="#6F6F6F" d="M101.578 248.702a62 62 0 0 1 2.78-64.011L156 219z" class="highcharts-point highcharts-color-4"/>
            <path fill="#3C3C3C" d="M104.392 184.64a62 62 0 0 1 37.57-26.03L156 219z" class="highcharts-point highcharts-color-5"/>
            <path fill="#008AC3" d="M142.023 158.596a62 62 0 0 1 13.89-1.596l.087 62z" class="highcharts-point highcharts-color-6"/>
        </g>
    </g>
    <text x="10" class="highcharts-title" y="21" color="#000" font-size="14" font-weight="700">
        <tspan>Anteil Fläche nach Art der Bodenbedeckung</tspan>
    </text>
    <text x="10" class="highcharts-subtitle" y="40" color="#000" font-weight="400">
        <tspan>Stand 2016</tspan>
    </text>
    <g class="highcharts-data-labels highcharts-series-0 highcharts-pie-series highcharts-color-undefined highcharts-tracker" cursor="true">
        <path fill="none" class="highcharts-data-label-connector highcharts-color-0" stroke="#007A2F" d="M192.749 132.152c-5 0-11.212 16.894-13.283 22.525l-2.07 5.632"/>
        <path fill="none" class="highcharts-data-label-connector highcharts-color-1" stroke="#68AB2B" d="M241.003 173.074c-5 0-20.653 8.888-25.87 11.85l-5.218 2.963"/>
        <path fill="none" class="highcharts-data-label-connector highcharts-color-2" stroke="#73B97C" d="M229.941 279.419c-5 0-18.488-11.92-22.984-15.892l-4.496-3.973"/>
        <path fill="none" class="highcharts-data-label-connector highcharts-color-3" stroke="#990300" d="M102.358 296.59c5 0 14.517-15.28 17.69-20.372l3.171-5.093"/>
        <path fill="none" class="highcharts-data-label-connector highcharts-color-4" stroke="#6F6F6F" d="M59.087 214.496c5 0 22.983.784 28.977 1.045l5.995.26"/>
        <path fill="none" class="highcharts-data-label-connector highcharts-color-5" stroke="#3C3C3C" d="M90.148 149.5c5 0 23.725 8.161 27.141 13.094l3.416 4.933"/>
        <path fill="none" class="highcharts-data-label-connector highcharts-color-6" stroke="#008AC3" d="M140.56 126.5c5 0 7.043 18.478 7.724 24.44l.68 5.96"/>
        <text x="5" style="text-outline:1px contrast" y="16" font-size="11" font-weight="700" color="#000" transform="translate(198 122)" class="highcharts-label highcharts-data-label highcharts-data-label-color-0">
            <tspan x="5" y="16" class="highcharts-text-outline" fill="#FFF" stroke="#FFF" stroke-width="2" stroke-linejoin="round">11.2 %</tspan><tspan x="5" y="16">11.2 %</tspan>
        </text>
        <text x="5" style="text-outline:1px contrast" y="16" font-size="11" font-weight="700" color="#000" transform="translate(246 163)" class="highcharts-label highcharts-data-label highcharts-data-label-color-1">
            <tspan x="5" y="16" class="highcharts-text-outline" fill="#FFF" stroke="#FFF" stroke-width="2" stroke-linejoin="round">11.1 %</tspan><tspan x="5" y="16">11.1 %</tspan>
        </text>
        <text x="5" style="text-outline:1px contrast" y="16" font-size="11" font-weight="700" color="#000" transform="translate(235 269)" class="highcharts-label highcharts-data-label highcharts-data-label-color-2">
            <tspan x="5" y="16" class="highcharts-text-outline" fill="#FFF" stroke="#FFF" stroke-width="2" stroke-linejoin="round">28.3 %</tspan><tspan x="5" y="16">28.3 %</tspan>
        </text>
        <text x="5" style="text-outline:1px contrast" y="16" font-size="11" font-weight="700" color="#000" transform="translate(53 287)" class="highcharts-label highcharts-data-label highcharts-data-label-color-3">
            <tspan x="5" y="16" class="highcharts-text-outline" fill="#FFF" stroke="#FFF" stroke-width="2" stroke-linejoin="round">16.4 %</tspan><tspan x="5" y="16">16.4 %</tspan>
        </text>
        <text x="5" style="text-outline:1px contrast" y="16" font-size="11" font-weight="700" color="#000" transform="translate(10 204)" class="highcharts-label highcharts-data-label highcharts-data-label-color-4">
            <tspan x="5" y="16" class="highcharts-text-outline" fill="#FFF" stroke="#FFF" stroke-width="2" stroke-linejoin="round">17.3 %</tspan><tspan x="5" y="16">17.3 %</tspan>
        </text>
        <text x="5" style="text-outline:1px contrast" y="16" font-size="11" font-weight="700" color="#000" transform="translate(41 140)" class="highcharts-label highcharts-data-label highcharts-data-label-color-5">
            <tspan x="5" y="16" class="highcharts-text-outline" fill="#FFF" stroke="#FFF" stroke-width="2" stroke-linejoin="round">12.0 %</tspan><tspan x="5" y="16">12.0 %</tspan>
        </text>
        <text x="5" style="text-outline:1px contrast" y="16" font-size="11" font-weight="700" color="#000" transform="translate(97 117)" class="highcharts-label highcharts-data-label highcharts-data-label-color-6">
            <tspan x="5" y="16" class="highcharts-text-outline" fill="#FFF" stroke="#FFF" stroke-width="2" stroke-linejoin="round">3.6 %</tspan><tspan x="5" y="16">3.6 %</tspan>
        </text>
    </g>
    <g class="highcharts-legend" transform="translate(302 118)">
        <rect fill="none" class="highcharts-legend-box" rx="0" ry="0" width="172" height="144"/>
        <g class="highcharts-legend-item highcharts-pie-series highcharts-color-0">
            <text x="21" y="15" color="#333" font-weight="400" cursor="pointer" fill="#333" transform="translate(8 3)">
                Wald
            </text>
            <path fill="#007A2F" class="highcharts-point" d="M10 7h12v12H10z"/>
        </g>
        <g class="highcharts-legend-item highcharts-pie-series highcharts-color-1">
            <text x="21" y="15" color="#333" font-weight="400" cursor="pointer" fill="#333" transform="translate(8 22)">
                <tspan>Acker, Wiese, Weide</tspan>
            </text>
            <path fill="#68AB2B" class="highcharts-point" d="M10 26h12v12H10z"/>
        </g>
        <g class="highcharts-legend-item highcharts-pie-series highcharts-color-2">
            <text x="21" y="15" color="#333" font-weight="400" cursor="pointer" fill="#333" transform="translate(8 41)">
                <tspan>Übrige Grünfläche</tspan>
            </text>
            <path fill="#73B97C" class="highcharts-point" d="M10 45h12v12H10z"/>
        </g>
        <g class="highcharts-legend-item highcharts-pie-series highcharts-color-3">
            <text x="21" y="15" color="#333" font-weight="400" cursor="pointer" fill="#333" transform="translate(8 60)">
                Gebäude
            </text>
            <path fill="#990300" class="highcharts-point" d="M10 64h12v12H10z"/>
        </g>
        <g class="highcharts-legend-item highcharts-pie-series highcharts-color-4">
            <text x="21" y="15" color="#333" font-weight="400" cursor="pointer" fill="#333" transform="translate(8 79)">
                Verkehrsfläche
            </text>
            <path fill="#6F6F6F" class="highcharts-point" d="M10 83h12v12H10z"/>
        </g>
        <g class="highcharts-legend-item highcharts-pie-series highcharts-color-5">
            <text x="21" y="15" color="#333" font-weight="400" cursor="pointer" fill="#333" transform="translate(8 98)">
                <tspan>Übrige versiegelte Fläche</tspan>
            </text>
            <path fill="#3C3C3C" class="highcharts-point" d="M10 102h12v12H10z"/>
        </g>
        <g class="highcharts-legend-item highcharts-pie-series highcharts-color-6">
            <text x="21" y="15" color="#333" font-weight="400" cursor="pointer" fill="#333" transform="translate(8 117)">
                Gewässer
            </text>
            <path fill="#008AC3" class="highcharts-point" d="M10 121h12v12H10z"/>
        </g>
    </g>
    <text x="10" class="highcharts-credits" y="410" cursor="default" color="#000" font-size="10">
        <tspan>Quelle:</tspan>
    </text>
</svg>
