<?xml version="1.0" standalone="no"?>
<!DOCTYPE svg PUBLIC "-//W3C//DTD SVG 1.1//EN" "http://www.w3.org/Graphics/SVG/1.1/DTD/svg11.dtd">
<svg xmlns:xlink="http://www.w3.org/1999/xlink" version="1.1" class="highcharts-root" style="font-family:arial;font-size:12px;" xmlns="http://www.w3.org/2000/svg" viewBox="0 0 485 415">
  <desc>
    Created with Highstock 5.0.14
  </desc>
  <defs>
    <clipPath>
      <rect x="0" y="0" width="435" height="308" fill="none"/>
    </clipPath>
    <clipPath id="a">
      <rect x="0" y="0" width="435" height="308" fill="none"/>
    </clipPath>
  </defs>
  <rect fill="#fbfbfb" class="highcharts-background" x="0" y="0" width="485" height="415" rx="0" ry="0"/>
  <rect fill="none" class="highcharts-plot-background" x="40" y="41" width="435" height="308"/>
  <g class="highcharts-pane-group"/>
  <g class="highcharts-grid highcharts-xaxis-grid ">
    <path fill="none" class="highcharts-grid-line" d="M 43.5 41 L 43.5 349" opacity="1"/>
    <path fill="none" class="highcharts-grid-line" d="M 91.5 41 L 91.5 349" opacity="1"/>
    <path fill="none" class="highcharts-grid-line" d="M 138.5 41 L 138.5 349" opacity="1"/>
    <path fill="none" class="highcharts-grid-line" d="M 185.5 41 L 185.5 349" opacity="1"/>
    <path fill="none" class="highcharts-grid-line" d="M 233.5 41 L 233.5 349" opacity="1"/>
    <path fill="none" class="highcharts-grid-line" d="M 280.5 41 L 280.5 349" opacity="1"/>
    <path fill="none" class="highcharts-grid-line" d="M 328.5 41 L 328.5 349" opacity="1"/>
    <path fill="none" class="highcharts-grid-line" d="M 375.5 41 L 375.5 349" opacity="1"/>
    <path fill="none" class="highcharts-grid-line" d="M 422.5 41 L 422.5 349" opacity="1"/>
    <path fill="none" class="highcharts-grid-line" d="M 470.5 41 L 470.5 349" opacity="1"/>
  </g>
  <g class="highcharts-grid highcharts-yaxis-grid ">
    <path fill="none" stroke="#B9CFD7" stroke-width="0.5" class="highcharts-grid-line" d="M 40 349.25 L 475 349.25" opacity="1"/>
    <path fill="none" stroke="#B9CFD7" stroke-width="0.5" class="highcharts-grid-line" d="M 40 272.25 L 475 272.25" opacity="1"/>
    <path fill="none" stroke="#B9CFD7" stroke-width="0.5" class="highcharts-grid-line" d="M 40 195.25 L 475 195.25" opacity="1"/>
    <path fill="none" stroke="#B9CFD7" stroke-width="0.5" class="highcharts-grid-line" d="M 40 118.25 L 475 118.25" opacity="1"/>
    <path fill="none" stroke="#B9CFD7" stroke-width="0.5" class="highcharts-grid-line" d="M 40 40.75 L 475 40.75" opacity="1"/>
  </g>
  <rect fill="none" class="highcharts-plot-border" x="40" y="41" width="435" height="308"/>
  <g class="highcharts-axis highcharts-xaxis ">
    <path fill="none" class="highcharts-axis-line" stroke="#B9CFD7" stroke-width="0.5" d="M 40 349.25 L 475 349.25"/>
  </g>
  <g class="highcharts-axis highcharts-yaxis ">
    <path fill="none" class="highcharts-axis-line" d="M 40 41 L 40 349"/>
  </g>
  <g class="highcharts-series-group">
    <g class="highcharts-series highcharts-series-0 highcharts-line-series highcharts-color-undefined " transform="translate(40,41) scale(1 1)" clip-path="url(#a)">
      <path fill="none" d="M 4.2647058823544 73.83927539024808 L 27.957516339871 70.45643089603118 L 51.650326797387 106.5514634451313 L 75.343137254903 91.10692669805033 L 99.035947712419 103.55559821840001 L 122.72875816994 98.17865709735008 L 146.42156862745 86.34719613630264 L 170.11437908497 73.91999999999999 L 193.80718954248 91.48625606912174 L 217.5 92.1629909682836 L 241.19281045752 117.03999999999999 L 264.88562091503 166.32 L 288.57843137255 193.3859534061421 L 312.27124183006 78.63829787234036 L 335.96405228758 235.1963995310314 L 359.6568627451 255.51371305029215 L 383.34967320261 272.52780519907867 L 407.04248366013 256.17376712974203 L 430.73529411765 243.817358671502" class="highcharts-graph" stroke="#83522E" stroke-width="2" stroke-linejoin="round" stroke-linecap="round"/>
    </g>
    <g class="highcharts-markers highcharts-series-0 highcharts-line-series highcharts-color-undefined " transform="translate(40,41) scale(1 1)" clip-path="none">
      <path fill="#83522E" d="M 8 74 A 4 4 0 1 1 7.999998000000167 73.99600000066667 Z" class="highcharts-point"/>
      <path fill="#83522E" d="M 31 70 A 4 4 0 1 1 30.99999800000017 69.99600000066667 Z" class="highcharts-point"/>
      <path fill="#83522E" d="M 55 107 A 4 4 0 1 1 54.99999800000017 106.99600000066667 Z" class="highcharts-point"/>
      <path fill="#83522E" d="M 79 91 A 4 4 0 1 1 78.99999800000016 90.99600000066667 Z" class="highcharts-point"/>
      <path fill="#83522E" d="M 103 104 A 4 4 0 1 1 102.99999800000016 103.99600000066667 Z" class="highcharts-point"/>
      <path fill="#83522E" d="M 126 98 A 4 4 0 1 1 125.99999800000016 97.99600000066667 Z" class="highcharts-point"/>
      <path fill="#83522E" d="M 150 86 A 4 4 0 1 1 149.99999800000018 85.99600000066667 Z" class="highcharts-point"/>
      <path fill="#83522E" d="M 174 74 A 4 4 0 1 1 173.99999800000018 73.99600000066667 Z" class="highcharts-point"/>
      <path fill="#83522E" d="M 197 91 A 4 4 0 1 1 196.99999800000018 90.99600000066667 Z" class="highcharts-point"/>
      <path fill="#83522E" d="M 221 92 A 4 4 0 1 1 220.99999800000018 91.99600000066667 Z" class="highcharts-point"/>
      <path fill="#83522E" d="M 245 117 A 4 4 0 1 1 244.99999800000018 116.99600000066667 Z" class="highcharts-point"/>
      <path fill="#83522E" d="M 268 166 A 4 4 0 1 1 267.9999980000002 165.99600000066667 Z" class="highcharts-point"/>
      <path fill="#83522E" d="M 292 193 A 4 4 0 1 1 291.9999980000002 192.99600000066667 Z" class="highcharts-point"/>
      <path fill="#83522E" d="M 316 79 A 4 4 0 1 1 315.9999980000002 78.99600000066667 Z" class="highcharts-point"/>
      <path fill="#83522E" d="M 339 235 A 4 4 0 1 1 338.9999980000002 234.99600000066667 Z" class="highcharts-point"/>
      <path fill="#83522E" d="M 363 256 A 4 4 0 1 1 362.9999980000002 255.99600000066667 Z" class="highcharts-point"/>
      <path fill="#83522E" d="M 387 273 A 4 4 0 1 1 386.9999980000002 272.99600000066664 Z" class="highcharts-point"/>
      <path fill="#83522E" d="M 411 256 A 4 4 0 1 1 410.9999980000002 255.99600000066667 Z" class="highcharts-point"/>
      <path fill="#83522E" d="M 434 244 A 4 4 0 1 1 433.9999980000002 243.99600000066667 Z" class="highcharts-point"/>
    </g>
  </g>
  <text x="10" text-anchor="start" class="highcharts-title" style="color:#000000;font-size:14px;font-weight:bold;fill:#000000;" y="21">
    <tspan>Leerwohnungsquote</tspan>
  </text>
  <g class="highcharts-data-labels highcharts-series-0 highcharts-line-series highcharts-color-undefined " visibility="visible" transform="translate(40,41) scale(1 1)">
    <g class="highcharts-label highcharts-data-label highcharts-data-label-color-undefined " transform="translate(-5,81)">
      <text x="5" style="font-size:11px;font-weight:bold;color:#000000;fill:#000000;" y="16">
        <tspan x="5" y="16" class="highcharts-text-outline" fill="#FFFFFF" stroke="#FFFFFF" stroke-width="2px" stroke-linejoin="round" style="">1,5</tspan><tspan x="5" y="16">1,5</tspan>
      </text>
    </g>
    <g class="highcharts-label highcharts-data-label highcharts-data-label-color-undefined " transform="translate(23,90)">
      <text x="5" style="font-size:11px;font-weight:bold;color:#000000;fill:#000000;" y="16"/>
    </g>
    <g class="highcharts-label highcharts-data-label highcharts-data-label-color-undefined " transform="translate(47,127)">
      <text x="5" style="font-size:11px;font-weight:bold;color:#000000;fill:#000000;" y="16"/>
    </g>
    <g class="highcharts-label highcharts-data-label highcharts-data-label-color-undefined " transform="translate(70,111)">
      <text x="5" style="font-size:11px;font-weight:bold;color:#000000;fill:#000000;" y="16"/>
    </g>
    <g class="highcharts-label highcharts-data-label highcharts-data-label-color-undefined " transform="translate(94,124)">
      <text x="5" style="font-size:11px;font-weight:bold;color:#000000;fill:#000000;" y="16"/>
    </g>
    <g class="highcharts-label highcharts-data-label highcharts-data-label-color-undefined " transform="translate(118,118)">
      <text x="5" style="font-size:11px;font-weight:bold;color:#000000;fill:#000000;" y="16"/>
    </g>
    <g class="highcharts-label highcharts-data-label highcharts-data-label-color-undefined " transform="translate(141,106)">
      <text x="5" style="font-size:11px;font-weight:bold;color:#000000;fill:#000000;" y="16"/>
    </g>
    <g class="highcharts-label highcharts-data-label highcharts-data-label-color-undefined " transform="translate(165,94)">
      <text x="5" style="font-size:11px;font-weight:bold;color:#000000;fill:#000000;" y="16"/>
    </g>
    <g class="highcharts-label highcharts-data-label highcharts-data-label-color-undefined " transform="translate(189,111)">
      <text x="5" style="font-size:11px;font-weight:bold;color:#000000;fill:#000000;" y="16"/>
    </g>
    <g class="highcharts-label highcharts-data-label highcharts-data-label-color-undefined " transform="translate(213,112)">
      <text x="5" style="font-size:11px;font-weight:bold;color:#000000;fill:#000000;" y="16"/>
    </g>
    <g class="highcharts-label highcharts-data-label highcharts-data-label-color-undefined " transform="translate(236,137)">
      <text x="5" style="font-size:11px;font-weight:bold;color:#000000;fill:#000000;" y="16"/>
    </g>
    <g class="highcharts-label highcharts-data-label highcharts-data-label-color-undefined " transform="translate(260,186)">
      <text x="5" style="font-size:11px;font-weight:bold;color:#000000;fill:#000000;" y="16"/>
    </g>
    <g class="highcharts-label highcharts-data-label highcharts-data-label-color-undefined " transform="translate(284,213)">
      <text x="5" style="font-size:11px;font-weight:bold;color:#000000;fill:#000000;" y="16"/>
    </g>
    <g class="highcharts-label highcharts-data-label highcharts-data-label-color-undefined " transform="translate(307,99)">
      <text x="5" style="font-size:11px;font-weight:bold;color:#000000;fill:#000000;" y="16"/>
    </g>
    <g class="highcharts-label highcharts-data-label highcharts-data-label-color-undefined " transform="translate(331,255)">
      <text x="5" style="font-size:11px;font-weight:bold;color:#000000;fill:#000000;" y="16"/>
    </g>
    <g class="highcharts-label highcharts-data-label highcharts-data-label-color-undefined " transform="translate(355,276)">
      <text x="5" style="font-size:11px;font-weight:bold;color:#000000;fill:#000000;" y="16"/>
    </g>
    <g class="highcharts-label highcharts-data-label highcharts-data-label-color-undefined " transform="translate(378,293)">
      <text x="5" style="font-size:11px;font-weight:bold;color:#000000;fill:#000000;" y="16"/>
    </g>
    <g class="highcharts-label highcharts-data-label highcharts-data-label-color-undefined " transform="translate(402,276)">
      <text x="5" style="font-size:11px;font-weight:bold;color:#000000;fill:#000000;" y="16"/>
    </g>
    <g class="highcharts-label highcharts-data-label highcharts-data-label-color-undefined " transform="translate(415,251)">
      <text x="5" style="font-size:11px;font-weight:bold;color:#000000;fill:#000000;" y="16">
        <tspan x="5" y="16" class="highcharts-text-outline" fill="#FFFFFF" stroke="#FFFFFF" stroke-width="2px" stroke-linejoin="round">0,4</tspan><tspan x="5" y="16">0,4</tspan>
      </text>
    </g>
  </g>
  <g class="highcharts-axis-labels highcharts-xaxis-labels ">
    <text x="44.26470588235442" style="color:#000000;cursor:default;font-size:11px;fill:#000000;" text-anchor="middle" transform="translate(0,0)" y="368" opacity="1">
      1998
    </text>
    <text x="91.65032679738677" style="color:#000000;cursor:default;font-size:11px;fill:#000000;" text-anchor="middle" transform="translate(0,0)" y="368" opacity="1">
      2000
    </text>
    <text x="139.0359477124191" style="color:#000000;cursor:default;font-size:11px;fill:#000000;" text-anchor="middle" transform="translate(0,0)" y="368" opacity="1">
      2002
    </text>
    <text x="186.42156862745145" style="color:#000000;cursor:default;font-size:11px;fill:#000000;" text-anchor="middle" transform="translate(0,0)" y="368" opacity="1">
      2004
    </text>
    <text x="233.8071895424838" style="color:#000000;cursor:default;font-size:11px;fill:#000000;" text-anchor="middle" transform="translate(0,0)" y="368" opacity="1">
      2006
    </text>
    <text x="281.19281045751615" style="color:#000000;cursor:default;font-size:11px;fill:#000000;" text-anchor="middle" transform="translate(0,0)" y="368" opacity="1">
      2008
    </text>
    <text x="328.5784313725485" style="color:#000000;cursor:default;font-size:11px;fill:#000000;" text-anchor="middle" transform="translate(0,0)" y="368" opacity="1">
      2010
    </text>
    <text x="375.96405228758084" style="color:#000000;cursor:default;font-size:11px;fill:#000000;" text-anchor="middle" transform="translate(0,0)" y="368" opacity="1">
      2012
    </text>
    <text x="423.3496732026132" style="color:#000000;cursor:default;font-size:11px;fill:#000000;" text-anchor="middle" transform="translate(0,0)" y="368" opacity="1">
      2014
    </text>
    <text x="462.78125" style="color:#000000;cursor:default;font-size:11px;fill:#000000;" text-anchor="middle" transform="translate(0,0)" y="368" opacity="1">
      2016
    </text>
  </g>
  <g class="highcharts-axis-labels highcharts-yaxis-labels ">
    <text x="25" style="color:#000000;cursor:default;font-size:11px;fill:#000000;" text-anchor="end" transform="translate(0,0)" y="354" opacity="1">
      <tspan>0.0</tspan>
    </text>
    <text x="25" style="color:#000000;cursor:default;font-size:11px;fill:#000000;" text-anchor="end" transform="translate(0,0)" y="277" opacity="1">
      <tspan>0.5</tspan>
    </text>
    <text x="25" style="color:#000000;cursor:default;font-size:11px;fill:#000000;" text-anchor="end" transform="translate(0,0)" y="200" opacity="1">
      <tspan>1.0</tspan>
    </text>
    <text x="25" style="color:#000000;cursor:default;font-size:11px;fill:#000000;" text-anchor="end" transform="translate(0,0)" y="123" opacity="1">
      <tspan>1.5</tspan>
    </text>
    <text x="25" style="color:#000000;cursor:default;font-size:11px;fill:#000000;" text-anchor="end" transform="translate(0,0)" y="46" opacity="1">
      <tspan>2.0</tspan>
    </text>
  </g>
  <text x="10" class="highcharts-credits" text-anchor="start" style="cursor:default;color:#000000;font-size:10px;fill:#000000;" y="400">
    <tspan>Quelle: Statistisches Amt Basel-Stadt, Leerstandserhebung</tspan>
  </text>
</svg>
