<svg class="highcharts-root" xmlns="http://www.w3.org/2000/svg" width="665" height="208" font-family="arial" font-size="12">
    <defs>
        <clipPath id="a">
            <path fill="none" d="M0 0h456v136H0z"/>
        </clipPath>
    </defs>
    <rect fill="#fbfbfb" class="highcharts-background" width="665" height="208" rx="0" ry="0"/>
    <path fill="none" class="highcharts-plot-background" d="M52 43h456v136H52z"/>
    <g class="highcharts-grid highcharts-xaxis-grid">
        <path fill="none" class="highcharts-grid-line" d="M75.5 43v136m41-136v136m41-136v136m41-136v136m40-136v136m41-136v136m41-136v136m40-136v136m41-136v136m41-136v136m41-136v136"/>
    </g>
    <g class="highcharts-grid highcharts-yaxis-grid">
        <path fill="none" stroke="#B9CFD7" stroke-width=".5" class="highcharts-grid-line" d="M52 179.25h456m-456-34h456m-456-34h456m-456-34h456M52 42.75h456"/>
    </g>
    <path fill="none" class="highcharts-plot-border" d="M52 43h456v136H52z"/>
    <g class="highcharts-axis highcharts-xaxis">
        <path fill="none" class="highcharts-axis-line" stroke="#B9CFD7" stroke-width=".5" d="M52 179.25h456"/>
    </g>
    <g class="highcharts-axis highcharts-yaxis">
        <path fill="none" class="highcharts-axis-line" d="M52 43v136"/>
    </g>
    <g class="highcharts-series-group">
        <g class="highcharts-series highcharts-series-0 highcharts-column-series highcharts-color-undefined" transform="translate(52 43)" clip-path="url(#a)">
            <path fill="#246370" class="highcharts-point" d="M17 28h15v19H17zm41-2h15v19H58zm40-5h15v22H98zm41 3h15v20h-15zm41-1h15v21h-15zm41-2h15v21h-15zm40 1h15v20h-15zm41-4h15v21h-15zm41 5h15v19h-15zm40-2h15v21h-15zm41-2h15v22h-15z"/>
        </g>
        <g class="highcharts-series highcharts-series-1 highcharts-column-series highcharts-color-undefined" transform="translate(52 43)" clip-path="url(#a)">
            <path fill="#007A2F" class="highcharts-point highcharts-negative" d="M17 82h15v24H17zm41 0h15v25H58zm40 0h15v24H98zm41 0h15v24h-15zm41 1h15v22h-15zm41 1h15v23h-15zm40 0h15v22h-15zm41 1h15v24h-15zm41 0h15v23h-15zm40 1h15v24h-15zm41 0h15v26h-15z"/>
        </g>
        <g class="highcharts-series highcharts-series-2 highcharts-column-series highcharts-color-undefined" transform="translate(52 43)" clip-path="url(#a)">
            <path fill="#A8C3CA" class="highcharts-point" d="M17 47h15v22H17zm41-2h15v24H58zm40-2h15v26H98zm41 1h15v25h-15zm41 0h15v25h-15zm41-2h15v27h-15zm40 0h15v27h-15zm41-3h15v30h-15zm41 3h15v27h-15zm40 0h15v27h-15zm41-1h15v28h-15z"/>
        </g>
        <g class="highcharts-series highcharts-series-3 highcharts-column-series highcharts-color-undefined" transform="translate(52 43)" clip-path="url(#a)">
            <path fill="#8AB77D" class="highcharts-point highcharts-negative" d="M17 69h15v13H17zm41 0h15v13H58zm40 0h15v13H98zm41 0h15v13h-15zm41 0h15v14h-15zm41 0h15v15h-15zm40 0h15v15h-15zm41 0h15v16h-15zm41 0h15v16h-15zm40 0h15v17h-15zm41 0h15v17h-15z"/>
        </g>
        <g class="highcharts-series highcharts-series-4 highcharts-line-series highcharts-color-undefined" transform="translate(52 43)" clip-path="url(#a)">
            <path fill="none" d="M24.429 66.667l40.714-.568 40.714-5.015 40.714 1.252 40.715 4.77L228 62.329l40.714-.238 40.715-.548 40.714 3.76 40.714.276 40.714-.646" class="highcharts-graph" stroke="#000" stroke-width="2" stroke-linejoin="round" stroke-linecap="round"/>
        </g>
    </g>
    <text x="3" class="highcharts-title" y="22" color="#000" font-size="10" font-weight="700">
        <tspan>Wanderungssaldo</tspan>
    </text>
    <g class="highcharts-legend" transform="translate(520 57)">
        <rect fill="none" class="highcharts-legend-box" rx="0" ry="0" width="142" height="101"/>
        <g class="highcharts-legend-item highcharts-column-series highcharts-color-undefined highcharts-series-0">
            <text x="21" y="13" color="#333" font-size="10" font-weight="400" cursor="pointer" fill="#333" transform="translate(8 3)">
                <tspan>Zuzug aus der Schweiz</tspan>
            </text>
            <path fill="#246370" class="highcharts-point" d="M11 7h10v10H11z"/>
        </g>
        <g class="highcharts-legend-item highcharts-column-series highcharts-color-undefined highcharts-series-1">
            <text x="21" y="13" color="#333" font-size="10" font-weight="400" cursor="pointer" fill="#333" transform="translate(8 21)">
                <tspan>Wegzug in die Schweiz</tspan>
            </text>
            <path fill="#007A2F" class="highcharts-point" d="M11 25h10v10H11z"/>
        </g>
        <g class="highcharts-legend-item highcharts-column-series highcharts-color-undefined highcharts-series-2">
            <text x="21" y="13" color="#333" font-size="10" font-weight="400" cursor="pointer" fill="#333" transform="translate(8 39)">
                <tspan>Zuzug aus Ausland</tspan>
            </text>
            <path fill="#A8C3CA" class="highcharts-point" d="M11 43h10v10H11z"/>
        </g>
        <g class="highcharts-legend-item highcharts-column-series highcharts-color-undefined highcharts-series-3">
            <text x="21" y="13" color="#333" font-size="10" font-weight="400" cursor="pointer" fill="#333" transform="translate(8 57)">
                <tspan>Wegzug ins Ausland</tspan>
            </text>
            <path fill="#8AB77D" class="highcharts-point" d="M11 61h10v10H11z"/>
        </g>
        <g class="highcharts-legend-item highcharts-line-series highcharts-color-undefined highcharts-series-4">
            <path fill="none" d="M8 85h16" class="highcharts-graph" stroke="#000" stroke-width="2"/>
            <text x="21" y="13" color="#333" font-size="10" font-weight="400" cursor="pointer" fill="#333" transform="translate(8 75)">
                <tspan>Wanderungssaldo Total</tspan>
            </text>
        </g>
    </g>
    <g class="highcharts-axis-labels highcharts-xaxis-labels" text-anchor="middle" color="#000" cursor="default" font-size="10">
        <text x="76.429" y="199">
            2006
        </text>
        <text x="117.143" y="199">
            2007
        </text>
        <text x="157.857" y="199">
            2008
        </text>
        <text x="198.571" y="199">
            2009
        </text>
        <text x="239.286" y="199">
            2010
        </text>
        <text x="280" y="199">
            2011
        </text>
        <text x="320.714" y="199">
            2012
        </text>
        <text x="361.429" y="199">
            2013
        </text>
        <text x="402.143" y="199">
            2014
        </text>
        <text x="442.857" y="199">
            2015
        </text>
        <text x="483.571" y="199">
            2016
        </text>
    </g>
    <g class="highcharts-axis-labels highcharts-yaxis-labels" text-anchor="end" color="#000" cursor="default" font-size="10">
        <text x="37" y="185">
            <tspan>-20 000</tspan>
        </text>
        <text x="37" y="151">
            <tspan>-10 000</tspan>
        </text>
        <text x="37" y="117">
            <tspan>0</tspan>
        </text>
        <text x="37" y="83">
            <tspan>10 000</tspan>
        </text>
        <text x="37" y="49">
            <tspan>20 000</tspan>
        </text>
    </g>
    <text x="10" class="highcharts-credits" y="193" cursor="default" color="#000" font-size="10">
        <tspan>Quelle: Statistisches Amt Basel-Stadt, Bevölkerungsstatistik</tspan>
    </text>
</svg>
