<?xml version="1.0" standalone="no"?><!DOCTYPE svg PUBLIC "-//W3C//DTD SVG 1.1//EN" "http://www.w3.org/Graphics/SVG/1.1/DTD/svg11.dtd"><svg xmlns:xlink="http://www.w3.org/1999/xlink" version="1.1" class="highcharts-root" style="font-family:arial;font-size:12px;" xmlns="http://www.w3.org/2000/svg" viewBox="0 0 320 208"><desc>Created with Highstock 5.0.14</desc><defs><clipPath id="highcharts-frp5aq8-6"><rect x="0" y="0" width="187" height="119" fill="none"></rect></clipPath><clipPath id="highcharts-frp5aq8-7"><rect x="0" y="0" width="187" height="119" fill="none"></rect></clipPath></defs><rect fill="#fbfbfb" class="highcharts-background" x="0" y="0" width="320" height="208" rx="0" ry="0"></rect><rect fill="none" class="highcharts-plot-background" x="46" y="46" width="187" height="119"></rect><g class="highcharts-pane-group"></g><g class="highcharts-grid highcharts-xaxis-grid "><path fill="none" class="highcharts-grid-line" d="M 82.5 46 L 82.5 165" opacity="1"></path><path fill="none" class="highcharts-grid-line" d="M 120.5 46 L 120.5 165" opacity="1"></path><path fill="none" class="highcharts-grid-line" d="M 157.5 46 L 157.5 165" opacity="1"></path><path fill="none" class="highcharts-grid-line" d="M 195.5 46 L 195.5 165" opacity="1"></path><path fill="none" class="highcharts-grid-line" d="M 232.5 46 L 232.5 165" opacity="1"></path><path fill="none" class="highcharts-grid-line" d="M 45.5 46 L 45.5 165" opacity="1"></path></g><g class="highcharts-grid highcharts-yaxis-grid "><path fill="none" stroke="#B9CFD7" stroke-width="0.5" class="highcharts-grid-line" d="M 46 165.25 L 233 165.25" opacity="1"></path><path fill="none" stroke="#B9CFD7" stroke-width="0.5" class="highcharts-grid-line" d="M 46 141.25 L 233 141.25" opacity="1"></path><path fill="none" stroke="#B9CFD7" stroke-width="0.5" class="highcharts-grid-line" d="M 46 117.25 L 233 117.25" opacity="1"></path><path fill="none" stroke="#B9CFD7" stroke-width="0.5" class="highcharts-grid-line" d="M 46 94.25 L 233 94.25" opacity="1"></path><path fill="none" stroke="#B9CFD7" stroke-width="0.5" class="highcharts-grid-line" d="M 46 70.25 L 233 70.25" opacity="1"></path><path fill="none" stroke="#B9CFD7" stroke-width="0.5" class="highcharts-grid-line" d="M 46 45.75 L 233 45.75" opacity="1"></path></g><rect fill="none" class="highcharts-plot-border" x="46" y="46" width="187" height="119"></rect><g class="highcharts-axis highcharts-xaxis "><path fill="none" class="highcharts-tick" stroke="#FFFFFF" stroke-width="1" d="M 82.5 165 L 82.5 175" opacity="1"></path><path fill="none" class="highcharts-tick" stroke="#FFFFFF" stroke-width="1" d="M 120.5 165 L 120.5 175" opacity="1"></path><path fill="none" class="highcharts-tick" stroke="#FFFFFF" stroke-width="1" d="M 157.5 165 L 157.5 175" opacity="1"></path><path fill="none" class="highcharts-tick" stroke="#FFFFFF" stroke-width="1" d="M 195.5 165 L 195.5 175" opacity="1"></path><path fill="none" class="highcharts-tick" stroke="#FFFFFF" stroke-width="1" d="M 232.5 165 L 232.5 175" opacity="1"></path><path fill="none" class="highcharts-tick" stroke="#FFFFFF" stroke-width="1" d="M 45.5 165 L 45.5 175" opacity="1"></path><path fill="none" class="highcharts-axis-line" stroke="#B9CFD7" stroke-width="0.5" d="M 46 165.25 L 233 165.25"></path></g><g class="highcharts-axis highcharts-yaxis "><path fill="none" class="highcharts-axis-line" d="M 46 46 L 46 165"></path></g><g class="highcharts-series-group"><g class="highcharts-series highcharts-series-0 highcharts-column-series highcharts-color-undefined " transform="translate(46,46) scale(1 1)" clip-path="url(#highcharts-frp5aq8-7)"><rect x="10" y="120" width="18" height="0" fill="#b00000" class="highcharts-point"></rect><rect x="47" y="120" width="18" height="0" fill="#b00000" class="highcharts-point"></rect><rect x="85" y="120" width="18" height="0" fill="#b00000" class="highcharts-point"></rect><rect x="122" y="119" width="18" height="1" fill="#b00000" class="highcharts-point"></rect><rect x="159" y="120" width="18" height="0" fill="#b00000" class="highcharts-point"></rect></g><g class="highcharts-markers highcharts-series-0 highcharts-column-series highcharts-color-undefined " transform="translate(46,46) scale(1 1)" clip-path="none"></g><g class="highcharts-series highcharts-series-1 highcharts-column-series highcharts-color-undefined " transform="translate(46,46) scale(1 1)" clip-path="url(#highcharts-frp5aq8-7)"><rect x="10" y="119" width="18" height="1" fill="#dc440e" class="highcharts-point"></rect><rect x="47" y="119" width="18" height="1" fill="#dc440e" class="highcharts-point"></rect><rect x="85" y="119" width="18" height="1" fill="#dc440e" class="highcharts-point"></rect><rect x="122" y="119" width="18" height="0" fill="#dc440e" class="highcharts-point"></rect><rect x="159" y="120" width="18" height="0" fill="#dc440e" class="highcharts-point"></rect></g><g class="highcharts-markers highcharts-series-1 highcharts-column-series highcharts-color-undefined " transform="translate(46,46) scale(1 1)" clip-path="none"></g><g class="highcharts-series highcharts-series-2 highcharts-column-series highcharts-color-undefined " transform="translate(46,46) scale(1 1)" clip-path="url(#highcharts-frp5aq8-7)"><rect x="10" y="118" width="18" height="1" fill="#ff8028" class="highcharts-point"></rect><rect x="47" y="118" width="18" height="1" fill="#ff8028" class="highcharts-point"></rect><rect x="85" y="118" width="18" height="1" fill="#ff8028" class="highcharts-point"></rect><rect x="122" y="118" width="18" height="1" fill="#ff8028" class="highcharts-point"></rect><rect x="159" y="118" width="18" height="2" fill="#ff8028" class="highcharts-point"></rect></g><g class="highcharts-markers highcharts-series-2 highcharts-column-series highcharts-color-undefined " transform="translate(46,46) scale(1 1)" clip-path="none"></g><g class="highcharts-series highcharts-series-3 highcharts-column-series highcharts-color-undefined " transform="translate(46,46) scale(1 1)" clip-path="url(#highcharts-frp5aq8-7)"><rect x="10" y="116" width="18" height="2" fill="#ffbb58" class="highcharts-point"></rect><rect x="47" y="116" width="18" height="2" fill="#ffbb58" class="highcharts-point"></rect><rect x="85" y="116" width="18" height="2" fill="#ffbb58" class="highcharts-point"></rect><rect x="122" y="117" width="18" height="1" fill="#ffbb58" class="highcharts-point"></rect><rect x="159" y="117" width="18" height="1" fill="#ffbb58" class="highcharts-point"></rect></g><g class="highcharts-markers highcharts-series-3 highcharts-column-series highcharts-color-undefined " transform="translate(46,46) scale(1 1)" clip-path="none"></g><g class="highcharts-series highcharts-series-4 highcharts-column-series highcharts-color-undefined " transform="translate(46,46) scale(1 1)" clip-path="url(#highcharts-frp5aq8-7)"><rect x="10" y="105" width="18" height="11" fill="#71a3b5" class="highcharts-point"></rect><rect x="47" y="104" width="18" height="12" fill="#71a3b5" class="highcharts-point"></rect><rect x="85" y="107" width="18" height="9" fill="#71a3b5" class="highcharts-point"></rect><rect x="122" y="109" width="18" height="8" fill="#71a3b5" class="highcharts-point"></rect><rect x="159" y="110" width="18" height="7" fill="#71a3b5" class="highcharts-point"></rect></g><g class="highcharts-markers highcharts-series-4 highcharts-column-series highcharts-color-undefined " transform="translate(46,46) scale(1 1)" clip-path="none"></g><g class="highcharts-series highcharts-series-5 highcharts-column-series highcharts-color-undefined " transform="translate(46,46) scale(1 1)" clip-path="url(#highcharts-frp5aq8-7)"><rect x="10" y="94" width="18" height="11" fill="#b9cfd7" class="highcharts-point"></rect><rect x="47" y="93" width="18" height="11" fill="#b9cfd7" class="highcharts-point"></rect><rect x="85" y="97" width="18" height="10" fill="#b9cfd7" class="highcharts-point"></rect><rect x="122" y="102" width="18" height="7" fill="#b9cfd7" class="highcharts-point"></rect><rect x="159" y="102" width="18" height="8" fill="#b9cfd7" class="highcharts-point"></rect></g><g class="highcharts-markers highcharts-series-5 highcharts-column-series highcharts-color-undefined " transform="translate(46,46) scale(1 1)" clip-path="none"></g><g class="highcharts-series highcharts-series-6 highcharts-column-series highcharts-color-undefined " transform="translate(46,46) scale(1 1)" clip-path="url(#highcharts-frp5aq8-7)"><rect x="10" y="65" width="18" height="29" fill="#d7e9d2" class="highcharts-point"></rect><rect x="47" y="64" width="18" height="29" fill="#d7e9d2" class="highcharts-point"></rect><rect x="85" y="67" width="18" height="30" fill="#d7e9d2" class="highcharts-point"></rect><rect x="122" y="76" width="18" height="26" fill="#d7e9d2" class="highcharts-point"></rect><rect x="159" y="80" width="18" height="22" fill="#d7e9d2" class="highcharts-point"></rect></g><g class="highcharts-markers highcharts-series-6 highcharts-column-series highcharts-color-undefined " transform="translate(46,46) scale(1 1)" clip-path="none"></g><g class="highcharts-series highcharts-series-7 highcharts-column-series highcharts-color-undefined " transform="translate(46,46) scale(1 1)" clip-path="url(#highcharts-frp5aq8-7)"><rect x="10" y="19" width="18" height="46" fill="#73ba7c" class="highcharts-point"></rect><rect x="47" y="21" width="18" height="43" fill="#73ba7c" class="highcharts-point"></rect><rect x="85" y="22" width="18" height="45" fill="#73ba7c" class="highcharts-point"></rect><rect x="122" y="30" width="18" height="46" fill="#73ba7c" class="highcharts-point"></rect><rect x="159" y="33" width="18" height="47" fill="#73ba7c" class="highcharts-point"></rect></g><g class="highcharts-markers highcharts-series-7 highcharts-column-series highcharts-color-undefined " transform="translate(46,46) scale(1 1)" clip-path="none"></g><g class="highcharts-series highcharts-series-8 highcharts-column-series highcharts-color-undefined " transform="translate(46,46) scale(1 1)" clip-path="url(#highcharts-frp5aq8-7)"><rect x="10" y="11" width="18" height="8" fill="#44ab2b" class="highcharts-point"></rect><rect x="47" y="9" width="18" height="12" fill="#44ab2b" class="highcharts-point"></rect><rect x="85" y="9" width="18" height="13" fill="#44ab2b" class="highcharts-point"></rect><rect x="122" y="17" width="18" height="13" fill="#44ab2b" class="highcharts-point"></rect><rect x="159" y="15" width="18" height="18" fill="#44ab2b" class="highcharts-point"></rect></g><g class="highcharts-markers highcharts-series-8 highcharts-column-series highcharts-color-undefined " transform="translate(46,46) scale(1 1)" clip-path="none"></g><g class="highcharts-series highcharts-series-9 highcharts-column-series highcharts-color-undefined " transform="translate(46,46) scale(1 1)" clip-path="url(#highcharts-frp5aq8-7)"><rect x="10" y="0" width="18" height="11" fill="#007a2f" class="highcharts-point"></rect><rect x="47" y="0" width="18" height="9" fill="#007a2f" class="highcharts-point"></rect><rect x="85" y="0" width="18" height="9" fill="#007a2f" class="highcharts-point"></rect><rect x="122" y="0" width="18" height="17" fill="#007a2f" class="highcharts-point"></rect><rect x="159" y="0" width="18" height="15" fill="#007a2f" class="highcharts-point"></rect></g><g class="highcharts-markers highcharts-series-9 highcharts-column-series highcharts-color-undefined " transform="translate(46,46) scale(1 1)" clip-path="none"></g></g><text x="3" text-anchor="start" class="highcharts-title" style="color:#000000;font-size:14px;font-weight:bold;fill:#000000;" y="26"><tspan>Bewertung der Lebensqualität</tspan></text><g class="highcharts-legend" transform="translate(245,9)"><rect fill="none" class="highcharts-legend-box" rx="0" ry="0" x="0" y="0" width="71" height="181" visibility="visible"></rect><g><g><g class="highcharts-legend-item highcharts-column-series highcharts-color-undefined highcharts-series-9" transform="translate(8,3)"><text x="21" style="color:#333333;font-size:10px;font-weight:normal;cursor:pointer;fill:#333333;" text-anchor="start" y="13"><tspan>Note 10</tspan></text><rect x="3" y="4" width="10" height="10" fill="#007a2f" class="highcharts-point"></rect></g><g class="highcharts-legend-item highcharts-column-series highcharts-color-undefined highcharts-series-8" transform="translate(8,20)"><text x="21" y="13" style="color:#333333;font-size:10px;font-weight:normal;cursor:pointer;fill:#333333;" text-anchor="start"><tspan>Note 9</tspan></text><rect x="3" y="4" width="10" height="10" fill="#44ab2b" class="highcharts-point"></rect></g><g class="highcharts-legend-item highcharts-column-series highcharts-color-undefined highcharts-series-7" transform="translate(8,37)"><text x="21" y="13" style="color:#333333;font-size:10px;font-weight:normal;cursor:pointer;fill:#333333;" text-anchor="start"><tspan>Note 8</tspan></text><rect x="3" y="4" width="10" height="10" fill="#73ba7c" class="highcharts-point"></rect></g><g class="highcharts-legend-item highcharts-column-series highcharts-color-undefined highcharts-series-6" transform="translate(8,54)"><text x="21" y="13" style="color:#333333;font-size:10px;font-weight:normal;cursor:pointer;fill:#333333;" text-anchor="start"><tspan>Note 7</tspan></text><rect x="3" y="4" width="10" height="10" fill="#d7e9d2" class="highcharts-point"></rect></g><g class="highcharts-legend-item highcharts-column-series highcharts-color-undefined highcharts-series-5" transform="translate(8,71)"><text x="21" y="13" style="color:#333333;font-size:10px;font-weight:normal;cursor:pointer;fill:#333333;" text-anchor="start"><tspan>Note 6</tspan></text><rect x="3" y="4" width="10" height="10" fill="#b9cfd7" class="highcharts-point"></rect></g><g class="highcharts-legend-item highcharts-column-series highcharts-color-undefined highcharts-series-4" transform="translate(8,88)"><text x="21" y="13" style="color:#333333;font-size:10px;font-weight:normal;cursor:pointer;fill:#333333;" text-anchor="start"><tspan>Note 5</tspan></text><rect x="3" y="4" width="10" height="10" fill="#71a3b5" class="highcharts-point"></rect></g><g class="highcharts-legend-item highcharts-column-series highcharts-color-undefined highcharts-series-3" transform="translate(8,105)"><text x="21" y="13" style="color:#333333;font-size:10px;font-weight:normal;cursor:pointer;fill:#333333;" text-anchor="start"><tspan>Note 4</tspan></text><rect x="3" y="4" width="10" height="10" fill="#ffbb58" class="highcharts-point"></rect></g><g class="highcharts-legend-item highcharts-column-series highcharts-color-undefined highcharts-series-2" transform="translate(8,122)"><text x="21" y="13" style="color:#333333;font-size:10px;font-weight:normal;cursor:pointer;fill:#333333;" text-anchor="start"><tspan>Note 3</tspan></text><rect x="3" y="4" width="10" height="10" fill="#ff8028" class="highcharts-point"></rect></g><g class="highcharts-legend-item highcharts-column-series highcharts-color-undefined highcharts-series-1" transform="translate(8,139)"><text x="21" y="13" style="color:#333333;font-size:10px;font-weight:normal;cursor:pointer;fill:#333333;" text-anchor="start"><tspan>Note 2</tspan></text><rect x="3" y="4" width="10" height="10" fill="#dc440e" class="highcharts-point"></rect></g><g class="highcharts-legend-item highcharts-column-series highcharts-color-undefined highcharts-series-0" transform="translate(8,156)"><text x="21" y="13" style="color:#333333;font-size:10px;font-weight:normal;cursor:pointer;fill:#333333;" text-anchor="start"><tspan>Note 1</tspan></text><rect x="3" y="4" width="10" height="10" fill="#b00000" class="highcharts-point"></rect></g></g></g></g><g class="highcharts-axis-labels highcharts-xaxis-labels "><text x="64.7" style="color:#000000;cursor:default;font-size:11px;fill:#000000;" text-anchor="middle" transform="translate(0,0)" y="184" opacity="1"><tspan>2003</tspan><tspan x="64.7" dy="14">(N=1477)</tspan><title>2003(N=1477)</title></text><text x="102.1" style="color:#000000;cursor:default;font-size:11px;fill:#000000;" text-anchor="middle" transform="translate(0,0)" y="184" opacity="1"><tspan>2005</tspan><tspan x="102.1" dy="14">(N=1500)</tspan><title>2005(N=1500)</title></text><text x="139.5" style="color:#000000;cursor:default;font-size:11px;fill:#000000;" text-anchor="middle" transform="translate(0,0)" y="184" opacity="1"><tspan>2007</tspan><tspan x="139.5" dy="14">(N=1500)</tspan><title>2007(N=1500)</title></text><text x="176.9" style="color:#000000;cursor:default;font-size:11px;fill:#000000;" text-anchor="middle" transform="translate(0,0)" y="184" opacity="1"><tspan>2011</tspan><tspan x="176.9" dy="14">(N=1513)</tspan><title>2011(N=1513)</title></text><text x="214.29999999999998" style="color:#000000;cursor:default;font-size:11px;fill:#000000;" text-anchor="middle" transform="translate(0,0)" y="184" opacity="1"><tspan>2015</tspan><tspan x="214.29999999999998" dy="14">(N=1489)</tspan><title>2015(N=1489)</title></text></g><g class="highcharts-axis-labels highcharts-yaxis-labels "><text x="31" style="color:#000000;cursor:default;font-size:11px;fill:#000000;" text-anchor="end" transform="translate(0,0)" y="170" opacity="1"><tspan>0%</tspan></text><text x="31" style="color:#000000;cursor:default;font-size:11px;fill:#000000;" text-anchor="end" transform="translate(0,0)" y="146" opacity="1"><tspan>20%</tspan></text><text x="31" style="color:#000000;cursor:default;font-size:11px;fill:#000000;" text-anchor="end" transform="translate(0,0)" y="122" opacity="1"><tspan>40%</tspan></text><text x="31" style="color:#000000;cursor:default;font-size:11px;fill:#000000;" text-anchor="end" transform="translate(0,0)" y="98" opacity="1"><tspan>60%</tspan></text><text x="31" style="color:#000000;cursor:default;font-size:11px;fill:#000000;" text-anchor="end" transform="translate(0,0)" y="74" opacity="1"><tspan>80%</tspan></text><text x="31" style="color:#000000;cursor:default;font-size:11px;fill:#000000;" text-anchor="end" transform="translate(0,0)" y="51" opacity="1"><tspan>100%</tspan></text></g><text x="10" class="highcharts-credits" text-anchor="start" style="cursor:default;color:#000000;font-size:10px;fill:#000000;" y="193"><tspan>Quelle: Statistisches Amt Basel-Stadt, kantonale Bevölkerungsbefragung: F4</tspan></text></svg>