<?xml version="1.0" standalone="no"?>
<!DOCTYPE svg PUBLIC "-//W3C//DTD SVG 1.1//EN" "http://www.w3.org/Graphics/SVG/1.1/DTD/svg11.dtd">
<svg xmlns:xlink="http://www.w3.org/1999/xlink" version="1.1" class="highcharts-root" style="font-family:arial;font-size:12px;" xmlns="http://www.w3.org/2000/svg" viewBox="0 0 485 415">
  <desc>
    Created with Highstock 5.0.14
  </desc>
  <defs>
    <clipPath>
      <rect x="0" y="0" width="438" height="294" fill="none"/>
    </clipPath>
    <clipPath id="a">
      <rect x="0" y="0" width="438" height="294" fill="none"/>
    </clipPath>
  </defs>
  <rect fill="#fbfbfb" class="highcharts-background" x="0" y="0" width="485" height="415" rx="0" ry="0"/>
  <rect fill="none" class="highcharts-plot-background" x="37" y="55" width="438" height="294"/>
  <g class="highcharts-pane-group"/>
  <g class="highcharts-grid highcharts-xaxis-grid ">
    <path fill="none" class="highcharts-grid-line" d="M 60.5 55 L 60.5 349" opacity="1"/>
    <path fill="none" class="highcharts-grid-line" d="M 118.5 55 L 118.5 349" opacity="1"/>
    <path fill="none" class="highcharts-grid-line" d="M 177.5 55 L 177.5 349" opacity="1"/>
    <path fill="none" class="highcharts-grid-line" d="M 235.5 55 L 235.5 349" opacity="1"/>
    <path fill="none" class="highcharts-grid-line" d="M 294.5 55 L 294.5 349" opacity="1"/>
    <path fill="none" class="highcharts-grid-line" d="M 353.5 55 L 353.5 349" opacity="1"/>
    <path fill="none" class="highcharts-grid-line" d="M 411.5 55 L 411.5 349" opacity="1"/>
    <path fill="none" class="highcharts-grid-line" d="M 470.5 55 L 470.5 349" opacity="1"/>
  </g>
  <g class="highcharts-grid highcharts-yaxis-grid ">
    <path fill="none" stroke="#e6e6e6" stroke-width="1" class="highcharts-grid-line" d="M 37 349.5 L 475 349.5" opacity="1"/>
    <path fill="none" stroke="#e6e6e6" stroke-width="1" class="highcharts-grid-line" d="M 37 276.5 L 475 276.5" opacity="1"/>
    <path fill="none" stroke="#e6e6e6" stroke-width="1" class="highcharts-grid-line" d="M 37 202.5 L 475 202.5" opacity="1"/>
    <path fill="none" stroke="#e6e6e6" stroke-width="1" class="highcharts-grid-line" d="M 37 129.5 L 475 129.5" opacity="1"/>
    <path fill="none" stroke="#e6e6e6" stroke-width="1" class="highcharts-grid-line" d="M 37 54.5 L 475 54.5" opacity="1"/>
  </g>
  <rect fill="none" class="highcharts-plot-border" x="37" y="55" width="438" height="294"/>
  <g class="highcharts-axis highcharts-xaxis ">
    <path fill="none" class="highcharts-axis-line" stroke="#ccd6eb" stroke-width="1" d="M 37 349.5 L 475 349.5"/>
  </g>
  <g class="highcharts-axis highcharts-yaxis ">
    <path fill="none" class="highcharts-axis-line" d="M 37 55 L 37 349"/>
  </g>
  <g class="highcharts-series-group">
    <g class="highcharts-series highcharts-series-0 highcharts-line-series highcharts-color-undefined " transform="translate(37,55) scale(1 1)" clip-path="url(#a)">
      <path fill="none" d="M 4.2941176470593 91.13999999999999 L 23.812834224599 89.67000000000002 L 43.331550802139 92.61000000000001 L 62.85026737968 94.08000000000001 L 82.36898395722 94.08000000000001 L 101.88770053476 92.61000000000001 L 121.4064171123 91.13999999999999 L 140.92513368984 89.67000000000002 L 160.44385026738 89.67000000000002 L 179.96256684492 88.20000000000002 L 199.48128342246 85.26000000000002 L 219 86.73000000000002 L 238.51871657754 89.67000000000002 L 258.03743315508 88.20000000000002 L 277.55614973262 88.20000000000002 L 297.07486631016 88.20000000000002 L 316.5935828877 83.78999999999999 L 336.11229946524 83.78999999999999 L 355.63101604278 80.85000000000002 L 375.14973262032 80.85000000000002 L 394.66844919786 79.38000000000002 L 414.1871657754 77.91000000000003 L 433.70588235294 77.91000000000003" class="highcharts-graph" stroke="#B00000" stroke-width="2" stroke-linejoin="round" stroke-linecap="round"/>
    </g>
    <g class="highcharts-markers highcharts-series-0 highcharts-line-series highcharts-color-undefined " transform="translate(37,55) scale(1 1)" clip-path="none">
      <path fill="#B00000" d="M 8 91 A 4 4 0 1 1 7.999998000000167 90.99600000066667 Z" class="highcharts-point"/>
      <path fill="#B00000" d="M 27 90 A 4 4 0 1 1 26.99999800000017 89.99600000066667 Z" class="highcharts-point"/>
      <path fill="#B00000" d="M 47 93 A 4 4 0 1 1 46.99999800000017 92.99600000066667 Z" class="highcharts-point"/>
      <path fill="#B00000" d="M 66 94 A 4 4 0 1 1 65.99999800000016 93.99600000066667 Z" class="highcharts-point"/>
      <path fill="#B00000" d="M 86 94 A 4 4 0 1 1 85.99999800000016 93.99600000066667 Z" class="highcharts-point"/>
      <path fill="#B00000" d="M 105 93 A 4 4 0 1 1 104.99999800000016 92.99600000066667 Z" class="highcharts-point"/>
      <path fill="#B00000" d="M 125 91 A 4 4 0 1 1 124.99999800000016 90.99600000066667 Z" class="highcharts-point"/>
      <path fill="#B00000" d="M 144 90 A 4 4 0 1 1 143.99999800000018 89.99600000066667 Z" class="highcharts-point"/>
      <path fill="#B00000" d="M 164 90 A 4 4 0 1 1 163.99999800000018 89.99600000066667 Z" class="highcharts-point"/>
      <path fill="#B00000" d="M 183 88 A 4 4 0 1 1 182.99999800000018 87.99600000066667 Z" class="highcharts-point"/>
      <path fill="#B00000" d="M 203 85 A 4 4 0 1 1 202.99999800000018 84.99600000066667 Z" class="highcharts-point"/>
      <path fill="#B00000" d="M 223 87 A 4 4 0 1 1 222.99999800000018 86.99600000066667 Z" class="highcharts-point"/>
      <path fill="#B00000" d="M 242 90 A 4 4 0 1 1 241.99999800000018 89.99600000066667 Z" class="highcharts-point"/>
      <path fill="#B00000" d="M 262 88 A 4 4 0 1 1 261.9999980000002 87.99600000066667 Z" class="highcharts-point"/>
      <path fill="#B00000" d="M 281 88 A 4 4 0 1 1 280.9999980000002 87.99600000066667 Z" class="highcharts-point"/>
      <path fill="#B00000" d="M 301 88 A 4 4 0 1 1 300.9999980000002 87.99600000066667 Z" class="highcharts-point"/>
      <path fill="#B00000" d="M 320 84 A 4 4 0 1 1 319.9999980000002 83.99600000066667 Z" class="highcharts-point"/>
      <path fill="#B00000" d="M 340 84 A 4 4 0 1 1 339.9999980000002 83.99600000066667 Z" class="highcharts-point"/>
      <path fill="#B00000" d="M 359 81 A 4 4 0 1 1 358.9999980000002 80.99600000066667 Z" class="highcharts-point"/>
      <path fill="#B00000" d="M 379 81 A 4 4 0 1 1 378.9999980000002 80.99600000066667 Z" class="highcharts-point"/>
      <path fill="#B00000" d="M 398 79 A 4 4 0 1 1 397.9999980000002 78.99600000066667 Z" class="highcharts-point"/>
      <path fill="#B00000" d="M 418 78 A 4 4 0 1 1 417.9999980000002 77.99600000066667 Z" class="highcharts-point"/>
      <path fill="#B00000" d="M 437 78 A 4 4 0 1 1 436.9999980000002 77.99600000066667 Z" class="highcharts-point"/>
    </g>
  </g>
  <text x="10" text-anchor="start" class="highcharts-title" style="color:#000000;font-size:14px;font-weight:bold;fill:#000000;" y="21">
    <tspan>Wassertemperatur Grundwasser</tspan>
  </text>
  <text x="10" text-anchor="start" class="highcharts-subtitle" style="color:#000000;font-size:12px;font-weight:normal;font-family:arial;fill:#000000;" y="40">
    <tspan>°C</tspan>
  </text>
  <g class="highcharts-axis-labels highcharts-xaxis-labels ">
    <text x="60.8128342245994" style="color:#000000;cursor:default;font-size:11px;fill:#000000;" text-anchor="middle" transform="translate(0,0)" y="368" opacity="1">
      1995
    </text>
    <text x="119.36898395721958" style="color:#000000;cursor:default;font-size:11px;fill:#000000;" text-anchor="middle" transform="translate(0,0)" y="368" opacity="1">
      1998
    </text>
    <text x="177.92513368983975" style="color:#000000;cursor:default;font-size:11px;fill:#000000;" text-anchor="middle" transform="translate(0,0)" y="368" opacity="1">
      2001
    </text>
    <text x="236.48128342245994" style="color:#000000;cursor:default;font-size:11px;fill:#000000;" text-anchor="middle" transform="translate(0,0)" y="368" opacity="1">
      2004
    </text>
    <text x="295.0374331550801" style="color:#000000;cursor:default;font-size:11px;fill:#000000;" text-anchor="middle" transform="translate(0,0)" y="368" opacity="1">
      2007
    </text>
    <text x="353.5935828877003" style="color:#000000;cursor:default;font-size:11px;fill:#000000;" text-anchor="middle" transform="translate(0,0)" y="368" opacity="1">
      2010
    </text>
    <text x="412.14973262032044" style="color:#000000;cursor:default;font-size:11px;fill:#000000;" text-anchor="middle" transform="translate(0,0)" y="368" opacity="1">
      2013
    </text>
    <text x="462.78125" style="color:#000000;cursor:default;font-size:11px;fill:#000000;" text-anchor="middle" transform="translate(0,0)" y="368" opacity="1">
      2016
    </text>
  </g>
  <g class="highcharts-axis-labels highcharts-yaxis-labels ">
    <text x="22" style="color:#000000;cursor:default;font-size:11px;fill:#000000;" text-anchor="end" transform="translate(0,0)" y="354" opacity="1">
      <tspan>0</tspan>
    </text>
    <text x="22" style="color:#000000;cursor:default;font-size:11px;fill:#000000;" text-anchor="end" transform="translate(0,0)" y="280" opacity="1">
      <tspan>5</tspan>
    </text>
    <text x="22" style="color:#000000;cursor:default;font-size:11px;fill:#000000;" text-anchor="end" transform="translate(0,0)" y="207" opacity="1">
      <tspan>10</tspan>
    </text>
    <text x="22" style="color:#000000;cursor:default;font-size:11px;fill:#000000;" text-anchor="end" transform="translate(0,0)" y="133" opacity="1">
      <tspan>15</tspan>
    </text>
    <text x="22" style="color:#000000;cursor:default;font-size:11px;fill:#000000;" text-anchor="end" transform="translate(0,0)" y="60" opacity="1">
      <tspan>20</tspan>
    </text>
  </g>
  <text x="10" class="highcharts-credits" text-anchor="start" style="cursor:default;color:#000000;font-size:10px;fill:#000000;" y="400">
    <tspan>Quelle: Amt für Umwelt und Energie Basel-Stadt</tspan>
  </text>
</svg>
