<?xml version="1.0" standalone="no"?>
<!DOCTYPE svg PUBLIC "-//W3C//DTD SVG 1.1//EN" "http://www.w3.org/Graphics/SVG/1.1/DTD/svg11.dtd">
<svg xmlns:xlink="http://www.w3.org/1999/xlink" version="1.1" class="highcharts-root" style="font-family:Arial;font-size:12px;" xmlns="http://www.w3.org/2000/svg" viewBox="0 0 485 415">
  <desc>
    Created with Highstock 6.0.3
  </desc>
  <defs>
    <clipPath>
      <rect x="0" y="0" width="432" height="292" fill="none"/>
    </clipPath>
    <clipPath id="a">
      <rect x="0" y="0" width="432" height="292" fill="none"/>
    </clipPath>
  </defs>
  <rect fill="#fbfbfb" class="highcharts-background" x="0" y="0" width="485" height="415" rx="0" ry="0"/>
  <rect fill="none" class="highcharts-plot-background" x="43" y="87" width="432" height="292"/>
  <g class="highcharts-pane-group"/>
  <g class="highcharts-grid highcharts-xaxis-grid ">
    <path fill="none" class="highcharts-grid-line" d="M 67.5 87 L 67.5 379" opacity="1"/>
    <path fill="none" class="highcharts-grid-line" d="M 110.5 87 L 110.5 379" opacity="1"/>
    <path fill="none" class="highcharts-grid-line" d="M 152.5 87 L 152.5 379" opacity="1"/>
    <path fill="none" class="highcharts-grid-line" d="M 194.5 87 L 194.5 379" opacity="1"/>
    <path fill="none" class="highcharts-grid-line" d="M 237.5 87 L 237.5 379" opacity="1"/>
    <path fill="none" class="highcharts-grid-line" d="M 279.5 87 L 279.5 379" opacity="1"/>
    <path fill="none" class="highcharts-grid-line" d="M 322.5 87 L 322.5 379" opacity="1"/>
    <path fill="none" class="highcharts-grid-line" d="M 364.5 87 L 364.5 379" opacity="1"/>
    <path fill="none" class="highcharts-grid-line" d="M 406.5 87 L 406.5 379" opacity="1"/>
    <path fill="none" class="highcharts-grid-line" d="M 449.5 87 L 449.5 379" opacity="1"/>
  </g>
  <g class="highcharts-grid highcharts-yaxis-grid ">
    <path fill="none" stroke="#B9CFD7" stroke-width="0.5" class="highcharts-grid-line" d="M 43 379.25 L 475 379.25" opacity="1"/>
    <path fill="none" stroke="#B9CFD7" stroke-width="0.5" class="highcharts-grid-line" d="M 43 321.25 L 475 321.25" opacity="1"/>
    <path fill="none" stroke="#B9CFD7" stroke-width="0.5" class="highcharts-grid-line" d="M 43 262.25 L 475 262.25" opacity="1"/>
    <path fill="none" stroke="#B9CFD7" stroke-width="0.5" class="highcharts-grid-line" d="M 43 204.25 L 475 204.25" opacity="1"/>
    <path fill="none" stroke="#B9CFD7" stroke-width="0.5" class="highcharts-grid-line" d="M 43 145.25 L 475 145.25" opacity="1"/>
    <path fill="none" stroke="#B9CFD7" stroke-width="0.5" class="highcharts-grid-line" d="M 43 86.75 L 475 86.75" opacity="1"/>
  </g>
  <rect fill="none" class="highcharts-plot-border" x="43" y="87" width="432" height="292"/>
  <g class="highcharts-axis highcharts-xaxis ">
    <path fill="none" class="highcharts-axis-line" stroke="#B9CFD7" stroke-width="0.5" d="M 43 379.25 L 475 379.25"/>
  </g>
  <g class="highcharts-axis highcharts-yaxis ">
    <path fill="none" class="highcharts-axis-line" d="M 43 87 L 43 379"/>
  </g>
  <g class="highcharts-series-group">
    <g class="highcharts-series highcharts-series-0 highcharts-line-series " transform="translate(43,87) scale(1 1)" clip-path="url(#a)">
      <path fill="none" d="M 4.235294117648 233.6 L 25.411764705883 239.44 L 46.588235294118 239.44 L 67.764705882354 230.68 L 88.941176470589 224.84 L 110.11764705882 201.48000000000002 L 131.29411764706 181.04000000000002 L 152.47058823529 166.44 L 173.64705882353 151.84 L 194.82352941176 131.4 L 216 116.80000000000001 L 237.17647058824 90.52000000000001 L 258.35294117647 61.31999999999999 L 279.52941176471 49.640000000000015 L 300.70588235294 55.48000000000002 L 321.88235294118 49.640000000000015 L 343.05882352941 37.96000000000001 L 364.23529411765 32.120000000000005 L 385.41176470588 37.96000000000001 L 406.58823529412 35.04000000000002 L 427.76470588235 29.19999999999999" class="highcharts-graph" stroke="#008AC3" stroke-width="2" stroke-linejoin="round" stroke-linecap="round"/>
    </g>
    <g class="highcharts-markers highcharts-series-0 highcharts-line-series " transform="translate(43,87) scale(1 1)" clip-path="none">
      <path fill="#008AC3" d="M 8 234 A 4 4 0 1 1 7.999998000000167 233.99600000066667 Z" class="highcharts-point"/>
      <path fill="#008AC3" d="M 29 239 A 4 4 0 1 1 28.99999800000017 238.99600000066667 Z" class="highcharts-point"/>
      <path fill="#008AC3" d="M 50 239 A 4 4 0 1 1 49.99999800000017 238.99600000066667 Z" class="highcharts-point"/>
      <path fill="#008AC3" d="M 71 231 A 4 4 0 1 1 70.99999800000016 230.99600000066667 Z" class="highcharts-point"/>
      <path fill="#008AC3" d="M 92 225 A 4 4 0 1 1 91.99999800000016 224.99600000066667 Z" class="highcharts-point"/>
      <path fill="#008AC3" d="M 114 201 A 4 4 0 1 1 113.99999800000016 200.99600000066667 Z" class="highcharts-point"/>
      <path fill="#008AC3" d="M 135 181 A 4 4 0 1 1 134.99999800000018 180.99600000066667 Z" class="highcharts-point"/>
      <path fill="#008AC3" d="M 156 166 A 4 4 0 1 1 155.99999800000018 165.99600000066667 Z" class="highcharts-point"/>
      <path fill="#008AC3" d="M 177 152 A 4 4 0 1 1 176.99999800000018 151.99600000066667 Z" class="highcharts-point"/>
      <path fill="#008AC3" d="M 198 131 A 4 4 0 1 1 197.99999800000018 130.99600000066667 Z" class="highcharts-point"/>
      <path fill="#008AC3" d="M 220 117 A 4 4 0 1 1 219.99999800000018 116.99600000066667 Z" class="highcharts-point"/>
      <path fill="#008AC3" d="M 241 91 A 4 4 0 1 1 240.99999800000018 90.99600000066667 Z" class="highcharts-point"/>
      <path fill="#008AC3" d="M 262 61 A 4 4 0 1 1 261.9999980000002 60.99600000066666 Z" class="highcharts-point"/>
      <path fill="#008AC3" d="M 283 50 A 4 4 0 1 1 282.9999980000002 49.99600000066666 Z" class="highcharts-point"/>
      <path fill="#008AC3" d="M 304 55 A 4 4 0 1 1 303.9999980000002 54.99600000066666 Z" class="highcharts-point"/>
      <path fill="#008AC3" d="M 325 50 A 4 4 0 1 1 324.9999980000002 49.99600000066666 Z" class="highcharts-point"/>
      <path fill="#008AC3" d="M 347 38 A 4 4 0 1 1 346.9999980000002 37.99600000066666 Z" class="highcharts-point"/>
      <path fill="#008AC3" d="M 368 32 A 4 4 0 1 1 367.9999980000002 31.996000000666665 Z" class="highcharts-point"/>
      <path fill="#008AC3" d="M 389 38 A 4 4 0 1 1 388.9999980000002 37.99600000066666 Z" class="highcharts-point"/>
      <path fill="#008AC3" d="M 410 35 A 4 4 0 1 1 409.9999980000002 34.99600000066666 Z" class="highcharts-point"/>
      <path fill="#008AC3" d="M 431 29 A 4 4 0 1 1 430.9999980000002 28.996000000666665 Z" class="highcharts-point"/>
    </g>
    <g class="highcharts-series highcharts-series-1 highcharts-line-series " transform="translate(43,87) scale(1 1)" clip-path="url(#a)">
      <path fill="none" d="M 4.235294117648 233.6 L 25.411764705883 219 L 46.588235294118 216.07999999999998 L 67.764705882354 216.07999999999998 L 88.941176470589 219 L 110.11764705882 204.4 L 131.29411764706 175.2 L 152.47058823529 186.88 L 173.64705882353 183.96 L 194.82352941176 189.8 L 216 178.12 L 237.17647058824 175.2 L 258.35294117647 81.75999999999999 L 279.52941176471 146 L 300.70588235294 186.88 L 321.88235294118 160.6 L 343.05882352941 160.6 L 364.23529411765 134.32 L 385.41176470588 131.4 L 406.58823529412 116.80000000000001 L 427.76470588235 96.36000000000001" class="highcharts-graph" stroke="#007A2F" stroke-width="2" stroke-linejoin="round" stroke-linecap="round"/>
    </g>
    <g class="highcharts-markers highcharts-series-1 highcharts-line-series " transform="translate(43,87) scale(1 1)" clip-path="none">
      <path fill="#007A2F" d="M 8 234 A 4 4 0 1 1 7.999998000000167 233.99600000066667 Z" class="highcharts-point"/>
      <path fill="#007A2F" d="M 29 219 A 4 4 0 1 1 28.99999800000017 218.99600000066667 Z" class="highcharts-point"/>
      <path fill="#007A2F" d="M 50 216 A 4 4 0 1 1 49.99999800000017 215.99600000066667 Z" class="highcharts-point"/>
      <path fill="#007A2F" d="M 71 216 A 4 4 0 1 1 70.99999800000016 215.99600000066667 Z" class="highcharts-point"/>
      <path fill="#007A2F" d="M 92 219 A 4 4 0 1 1 91.99999800000016 218.99600000066667 Z" class="highcharts-point"/>
      <path fill="#007A2F" d="M 114 204 A 4 4 0 1 1 113.99999800000016 203.99600000066667 Z" class="highcharts-point"/>
      <path fill="#007A2F" d="M 135 175 A 4 4 0 1 1 134.99999800000018 174.99600000066667 Z" class="highcharts-point"/>
      <path fill="#007A2F" d="M 156 187 A 4 4 0 1 1 155.99999800000018 186.99600000066667 Z" class="highcharts-point"/>
      <path fill="#007A2F" d="M 177 184 A 4 4 0 1 1 176.99999800000018 183.99600000066667 Z" class="highcharts-point"/>
      <path fill="#007A2F" d="M 198 190 A 4 4 0 1 1 197.99999800000018 189.99600000066667 Z" class="highcharts-point"/>
      <path fill="#007A2F" d="M 220 178 A 4 4 0 1 1 219.99999800000018 177.99600000066667 Z" class="highcharts-point"/>
      <path fill="#007A2F" d="M 241 175 A 4 4 0 1 1 240.99999800000018 174.99600000066667 Z" class="highcharts-point"/>
      <path fill="#007A2F" d="M 262 82 A 4 4 0 1 1 261.9999980000002 81.99600000066667 Z" class="highcharts-point"/>
      <path fill="#007A2F" d="M 283 146 A 4 4 0 1 1 282.9999980000002 145.99600000066667 Z" class="highcharts-point"/>
      <path fill="#007A2F" d="M 304 187 A 4 4 0 1 1 303.9999980000002 186.99600000066667 Z" class="highcharts-point"/>
      <path fill="#007A2F" d="M 325 161 A 4 4 0 1 1 324.9999980000002 160.99600000066667 Z" class="highcharts-point"/>
      <path fill="#007A2F" d="M 347 161 A 4 4 0 1 1 346.9999980000002 160.99600000066667 Z" class="highcharts-point"/>
      <path fill="#007A2F" d="M 368 134 A 4 4 0 1 1 367.9999980000002 133.99600000066667 Z" class="highcharts-point"/>
      <path fill="#007A2F" d="M 389 131 A 4 4 0 1 1 388.9999980000002 130.99600000066667 Z" class="highcharts-point"/>
      <path fill="#007A2F" d="M 410 117 A 4 4 0 1 1 409.9999980000002 116.99600000066667 Z" class="highcharts-point"/>
      <path fill="#007A2F" d="M 431 96 A 4 4 0 1 1 430.9999980000002 95.99600000066667 Z" class="highcharts-point"/>
    </g>
  </g>
  <text x="10" text-anchor="start" class="highcharts-title" style="color:#000000;font-size:14px;font-weight:bold;fill:#000000;" y="21">
    <tspan>Kantonales BIP im Vergleich zu den Staatsausgaben</tspan>
  </text>
  <text x="10" text-anchor="start" class="highcharts-subtitle" style="color:#000000;font-size:12px;font-weight:normal;font-family:Arial;fill:#000000;" y="40">
    <tspan>indexiert (1995 = 100)</tspan>
  </text>
  <g class="highcharts-legend" transform="translate(35,45)">
    <rect fill="none" class="highcharts-legend-box" rx="0" ry="0" x="0" y="0" width="396" height="30" visibility="visible"/>
    <g>
      <g>
        <g class="highcharts-legend-item highcharts-line-series highcharts-color-undefined highcharts-series-0" transform="translate(8,3)">
          <path fill="none" d="M 0 11 L 16 11" class="highcharts-graph" stroke="#008AC3" stroke-width="2"/>
          <path fill="#008AC3" d="M 12 11 A 4 4 0 1 1 11.999998000000167 10.996000000666664 Z" class="highcharts-point"/>
          <text x="21" style="color:#333333;font-size:12px;font-weight:normal;cursor:pointer;fill:#333333;" text-anchor="start" y="15">
            <tspan>Nominales BIP BS</tspan>
          </text>
        </g>
        <g class="highcharts-legend-item highcharts-line-series highcharts-color-undefined highcharts-series-1" transform="translate(208,3)">
          <path fill="none" d="M 0 11 L 16 11" class="highcharts-graph" stroke="#007A2F" stroke-width="2"/>
          <path fill="#007A2F" d="M 12 11 A 4 4 0 1 1 11.999998000000167 10.996000000666664 Z" class="highcharts-point"/>
          <text x="21" y="15" style="color:#333333;font-size:12px;font-weight:normal;cursor:pointer;fill:#333333;" text-anchor="start">
            <tspan>Staatsausgaben BS</tspan>
          </text>
        </g>
      </g>
    </g>
  </g>
  <g class="highcharts-axis-labels highcharts-xaxis-labels ">
    <text x="68.4117647058832" style="color:#000000;cursor:default;font-size:11px;fill:#000000;" text-anchor="middle" transform="translate(0,0)" y="398" opacity="1">
      1996
    </text>
    <text x="110.76470588235361" style="color:#000000;cursor:default;font-size:11px;fill:#000000;" text-anchor="middle" transform="translate(0,0)" y="398" opacity="1">
      1998
    </text>
    <text x="153.117647058824" style="color:#000000;cursor:default;font-size:11px;fill:#000000;" text-anchor="middle" transform="translate(0,0)" y="398" opacity="1">
      2000
    </text>
    <text x="195.4705882352944" style="color:#000000;cursor:default;font-size:11px;fill:#000000;" text-anchor="middle" transform="translate(0,0)" y="398" opacity="1">
      2002
    </text>
    <text x="237.8235294117648" style="color:#000000;cursor:default;font-size:11px;fill:#000000;" text-anchor="middle" transform="translate(0,0)" y="398" opacity="1">
      2004
    </text>
    <text x="280.17647058823525" style="color:#000000;cursor:default;font-size:11px;fill:#000000;" text-anchor="middle" transform="translate(0,0)" y="398" opacity="1">
      2006
    </text>
    <text x="322.5294117647056" style="color:#000000;cursor:default;font-size:11px;fill:#000000;" text-anchor="middle" transform="translate(0,0)" y="398" opacity="1">
      2008
    </text>
    <text x="364.882352941176" style="color:#000000;cursor:default;font-size:11px;fill:#000000;" text-anchor="middle" transform="translate(0,0)" y="398" opacity="1">
      2010
    </text>
    <text x="407.23529411764645" style="color:#000000;cursor:default;font-size:11px;fill:#000000;" text-anchor="middle" transform="translate(0,0)" y="398" opacity="1">
      2012
    </text>
    <text x="449.5882352941168" style="color:#000000;cursor:default;font-size:11px;fill:#000000;" text-anchor="middle" transform="translate(0,0)" y="398" opacity="1">
      2014
    </text>
  </g>
  <g class="highcharts-axis-labels highcharts-yaxis-labels ">
    <text x="28" style="color:#000000;cursor:default;font-size:11px;fill:#000000;" text-anchor="end" transform="translate(0,0)" y="384" opacity="1">
      <tspan>80</tspan>
    </text>
    <text x="28" style="color:#000000;cursor:default;font-size:11px;fill:#000000;" text-anchor="end" transform="translate(0,0)" y="325" opacity="1">
      <tspan>100</tspan>
    </text>
    <text x="28" style="color:#000000;cursor:default;font-size:11px;fill:#000000;" text-anchor="end" transform="translate(0,0)" y="267" opacity="1">
      <tspan>120</tspan>
    </text>
    <text x="28" style="color:#000000;cursor:default;font-size:11px;fill:#000000;" text-anchor="end" transform="translate(0,0)" y="208" opacity="1">
      <tspan>140</tspan>
    </text>
    <text x="28" style="color:#000000;cursor:default;font-size:11px;fill:#000000;" text-anchor="end" transform="translate(0,0)" y="150" opacity="1">
      <tspan>160</tspan>
    </text>
    <text x="28" style="color:#000000;cursor:default;font-size:11px;fill:#000000;" text-anchor="end" transform="translate(0,0)" y="92" opacity="1">
      <tspan>180</tspan>
    </text>
  </g>
  <text x="10" class="highcharts-credits" text-anchor="start" style="cursor:default;color:#000000;font-size:10px;fill:#000000;" y="390">
    <tspan>Quelle: Eidgenössische Finanzverwaltung;</tspan><tspan x="10" dy="13">BAK Economics</tspan>
  </text>
</svg>
