<?xml version="1.0" standalone="no"?>
<!DOCTYPE svg PUBLIC "-//W3C//DTD SVG 1.1//EN" "http://www.w3.org/Graphics/SVG/1.1/DTD/svg11.dtd">
<svg xmlns:xlink="http://www.w3.org/1999/xlink" version="1.1" class="highcharts-root" style="font-family:arial;font-size:12px;" xmlns="http://www.w3.org/2000/svg" viewBox="0 0 485 415">
  <desc>
    Created with Highstock 5.0.14
  </desc>
  <defs>
    <clipPath>
      <rect x="0" y="0" width="410" height="248" fill="none"/>
    </clipPath>
    <clipPath id="a">
      <rect x="0" y="0" width="410" height="248" fill="none"/>
    </clipPath>
  </defs>
  <rect fill="#fbfbfb" class="highcharts-background" x="0" y="0" width="485" height="415" rx="0" ry="0"/>
  <rect fill="none" class="highcharts-plot-background" x="65" y="116" width="410" height="248"/>
  <g class="highcharts-pane-group"/>
  <g class="highcharts-grid highcharts-xaxis-grid ">
    <path fill="none" class="highcharts-grid-line" d="M 105.5 116 L 105.5 364" opacity="1"/>
    <path fill="none" class="highcharts-grid-line" d="M 146.5 116 L 146.5 364" opacity="1"/>
    <path fill="none" class="highcharts-grid-line" d="M 187.5 116 L 187.5 364" opacity="1"/>
    <path fill="none" class="highcharts-grid-line" d="M 228.5 116 L 228.5 364" opacity="1"/>
    <path fill="none" class="highcharts-grid-line" d="M 269.5 116 L 269.5 364" opacity="1"/>
    <path fill="none" class="highcharts-grid-line" d="M 310.5 116 L 310.5 364" opacity="1"/>
    <path fill="none" class="highcharts-grid-line" d="M 351.5 116 L 351.5 364" opacity="1"/>
    <path fill="none" class="highcharts-grid-line" d="M 392.5 116 L 392.5 364" opacity="1"/>
    <path fill="none" class="highcharts-grid-line" d="M 433.5 116 L 433.5 364" opacity="1"/>
    <path fill="none" class="highcharts-grid-line" d="M 474.5 116 L 474.5 364" opacity="1"/>
    <path fill="none" class="highcharts-grid-line" d="M 64.5 116 L 64.5 364" opacity="1"/>
  </g>
  <g class="highcharts-grid highcharts-yaxis-grid ">
    <path fill="none" stroke="#B9CFD7" stroke-width="0.5" class="highcharts-grid-line" d="M 65 364.25 L 475 364.25" opacity="1"/>
    <path fill="none" stroke="#B9CFD7" stroke-width="0.5" class="highcharts-grid-line" d="M 65 302.25 L 475 302.25" opacity="1"/>
    <path fill="none" stroke="#B9CFD7" stroke-width="0.5" class="highcharts-grid-line" d="M 65 240.25 L 475 240.25" opacity="1"/>
    <path fill="none" stroke="#B9CFD7" stroke-width="0.5" class="highcharts-grid-line" d="M 65 178.25 L 475 178.25" opacity="1"/>
    <path fill="none" stroke="#B9CFD7" stroke-width="0.5" class="highcharts-grid-line" d="M 65 115.75 L 475 115.75" opacity="1"/>
  </g>
  <rect fill="none" class="highcharts-plot-border" x="65" y="116" width="410" height="248"/>
  <g class="highcharts-axis highcharts-xaxis ">
    <path fill="none" class="highcharts-tick" stroke="#FFFFFF" stroke-width="1" d="M 105.5 364 L 105.5 374" opacity="1"/>
    <path fill="none" class="highcharts-tick" stroke="#FFFFFF" stroke-width="1" d="M 146.5 364 L 146.5 374" opacity="1"/>
    <path fill="none" class="highcharts-tick" stroke="#FFFFFF" stroke-width="1" d="M 187.5 364 L 187.5 374" opacity="1"/>
    <path fill="none" class="highcharts-tick" stroke="#FFFFFF" stroke-width="1" d="M 228.5 364 L 228.5 374" opacity="1"/>
    <path fill="none" class="highcharts-tick" stroke="#FFFFFF" stroke-width="1" d="M 269.5 364 L 269.5 374" opacity="1"/>
    <path fill="none" class="highcharts-tick" stroke="#FFFFFF" stroke-width="1" d="M 310.5 364 L 310.5 374" opacity="1"/>
    <path fill="none" class="highcharts-tick" stroke="#FFFFFF" stroke-width="1" d="M 351.5 364 L 351.5 374" opacity="1"/>
    <path fill="none" class="highcharts-tick" stroke="#FFFFFF" stroke-width="1" d="M 392.5 364 L 392.5 374" opacity="1"/>
    <path fill="none" class="highcharts-tick" stroke="#FFFFFF" stroke-width="1" d="M 433.5 364 L 433.5 374" opacity="1"/>
    <path fill="none" class="highcharts-tick" stroke="#FFFFFF" stroke-width="1" d="M 475.5 364 L 475.5 374" opacity="1"/>
    <path fill="none" class="highcharts-tick" stroke="#FFFFFF" stroke-width="1" d="M 64.5 364 L 64.5 374" opacity="1"/>
    <path fill="none" class="highcharts-axis-line" stroke="#B9CFD7" stroke-width="0.5" d="M 65 364.25 L 475 364.25"/>
  </g>
  <g class="highcharts-axis highcharts-yaxis ">
    <path fill="none" class="highcharts-axis-line" d="M 65 116 L 65 364"/>
  </g>
  <g class="highcharts-series-group">
    <g class="highcharts-series highcharts-series-0 highcharts-column-series highcharts-color-undefined " transform="translate(65,116) scale(1 1)" clip-path="url(#a)">
      <rect x="13" y="61" width="15" height="79" fill="#b475ab" class="highcharts-point"/>
      <rect x="54" y="99" width="15" height="63" fill="#b475ab" class="highcharts-point"/>
      <rect x="95" y="76" width="15" height="73" fill="#b475ab" class="highcharts-point"/>
      <rect x="136" y="114" width="15" height="56" fill="#b475ab" class="highcharts-point"/>
      <rect x="177" y="123" width="15" height="49" fill="#b475ab" class="highcharts-point"/>
      <rect x="218" y="121" width="15" height="50" fill="#b475ab" class="highcharts-point"/>
      <rect x="259" y="123" width="15" height="47" fill="#b475ab" class="highcharts-point"/>
      <rect x="300" y="122" width="15" height="49" fill="#b475ab" class="highcharts-point"/>
      <rect x="341" y="124" width="15" height="47" fill="#b475ab" class="highcharts-point"/>
      <rect x="382" y="125" width="15" height="48" fill="#b475ab" class="highcharts-point"/>
    </g>
    <g class="highcharts-markers highcharts-series-0 highcharts-column-series highcharts-color-undefined " transform="translate(65,116) scale(1 1)" clip-path="none"/>
    <g class="highcharts-series highcharts-series-1 highcharts-column-series highcharts-color-undefined " transform="translate(65,116) scale(1 1)" clip-path="url(#a)">
      <rect x="13" y="140" width="15" height="109" fill="#a8c4cb" class="highcharts-point"/>
      <rect x="54" y="162" width="15" height="87" fill="#a8c4cb" class="highcharts-point"/>
      <rect x="95" y="149" width="15" height="100" fill="#a8c4cb" class="highcharts-point"/>
      <rect x="136" y="170" width="15" height="79" fill="#a8c4cb" class="highcharts-point"/>
      <rect x="177" y="172" width="15" height="77" fill="#a8c4cb" class="highcharts-point"/>
      <rect x="218" y="171" width="15" height="78" fill="#a8c4cb" class="highcharts-point"/>
      <rect x="259" y="170" width="15" height="79" fill="#a8c4cb" class="highcharts-point"/>
      <rect x="300" y="171" width="15" height="78" fill="#a8c4cb" class="highcharts-point"/>
      <rect x="341" y="171" width="15" height="78" fill="#a8c4cb" class="highcharts-point"/>
      <rect x="382" y="173" width="15" height="76" fill="#a8c4cb" class="highcharts-point"/>
    </g>
    <g class="highcharts-markers highcharts-series-1 highcharts-column-series highcharts-color-undefined " transform="translate(65,116) scale(1 1)" clip-path="none"/>
  </g>
  <text x="10" text-anchor="start" class="highcharts-title" style="color:#000000;font-size:14px;font-weight:bold;fill:#000000;" y="21">
    <tspan>Leerstehende Indistrue-und Gewerberäume</tspan>
  </text>
  <g class="highcharts-legend" transform="translate(50,50)">
    <rect fill="none" class="highcharts-legend-box" rx="0" ry="0" x="0" y="0" width="496" height="54" visibility="visible"/>
    <g>
      <g>
        <g class="highcharts-legend-item highcharts-column-series highcharts-color-undefined highcharts-series-0" transform="translate(8,8)">
          <text x="21" style="color:#333333;font-size:12px;font-weight:normal;cursor:pointer;fill:#333333;" text-anchor="start" y="15">
            <tspan>Industrie</tspan>
          </text>
          <rect x="2" y="4" width="12" height="12" fill="#b475ab" class="highcharts-point"/>
        </g>
        <g class="highcharts-legend-item highcharts-column-series highcharts-color-undefined highcharts-series-1" transform="translate(8,27)">
          <text x="21" y="15" style="color:#333333;font-size:12px;font-weight:normal;cursor:pointer;fill:#333333;" text-anchor="start">
            <tspan>Gewerbe</tspan>
          </text>
          <rect x="2" y="4" width="12" height="12" fill="#a8c4cb" class="highcharts-point"/>
        </g>
      </g>
    </g>
  </g>
  <g class="highcharts-axis-labels highcharts-xaxis-labels ">
    <text x="85.5" style="color:#000000;cursor:default;font-size:11px;fill:#000000;" text-anchor="middle" transform="translate(0,0)" y="383" opacity="1">
      1970
    </text>
    <text x="126.5" style="color:#000000;cursor:default;font-size:11px;fill:#000000;" text-anchor="middle" transform="translate(0,0)" y="383" opacity="1">
      1980
    </text>
    <text x="167.5" style="color:#000000;cursor:default;font-size:11px;fill:#000000;" text-anchor="middle" transform="translate(0,0)" y="383" opacity="1">
      1990
    </text>
    <text x="208.5" style="color:#000000;cursor:default;font-size:11px;fill:#000000;" text-anchor="middle" transform="translate(0,0)" y="383" opacity="1">
      2000
    </text>
    <text x="249.5" style="color:#000000;cursor:default;font-size:11px;fill:#000000;" text-anchor="middle" transform="translate(0,0)" y="383" opacity="1">
      2010
    </text>
    <text x="290.5" style="color:#000000;cursor:default;font-size:11px;fill:#000000;" text-anchor="middle" transform="translate(0,0)" y="383" opacity="1">
      2011
    </text>
    <text x="331.5" style="color:#000000;cursor:default;font-size:11px;fill:#000000;" text-anchor="middle" transform="translate(0,0)" y="383" opacity="1">
      2012
    </text>
    <text x="372.5" style="color:#000000;cursor:default;font-size:11px;fill:#000000;" text-anchor="middle" transform="translate(0,0)" y="383" opacity="1">
      2013
    </text>
    <text x="413.5" style="color:#000000;cursor:default;font-size:11px;fill:#000000;" text-anchor="middle" transform="translate(0,0)" y="383" opacity="1">
      2014
    </text>
    <text x="454.5" style="color:#000000;cursor:default;font-size:11px;fill:#000000;" text-anchor="middle" transform="translate(0,0)" y="383" opacity="1">
      2015
    </text>
  </g>
  <g class="highcharts-axis-labels highcharts-yaxis-labels ">
    <text x="50" style="color:#000000;cursor:default;font-size:11px;fill:#000000;" text-anchor="end" transform="translate(0,0)" y="369" opacity="1">
      <tspan>0</tspan>
    </text>
    <text x="50" style="color:#000000;cursor:default;font-size:11px;fill:#000000;" text-anchor="end" transform="translate(0,0)" y="307" opacity="1">
      <tspan>50 000</tspan>
    </text>
    <text x="50" style="color:#000000;cursor:default;font-size:11px;fill:#000000;" text-anchor="end" transform="translate(0,0)" y="245" opacity="1">
      <tspan>100 000</tspan>
    </text>
    <text x="50" style="color:#000000;cursor:default;font-size:11px;fill:#000000;" text-anchor="end" transform="translate(0,0)" y="183" opacity="1">
      <tspan>150 000</tspan>
    </text>
    <text x="50" style="color:#000000;cursor:default;font-size:11px;fill:#000000;" text-anchor="end" transform="translate(0,0)" y="121" opacity="1">
      <tspan>200 000</tspan>
    </text>
  </g>
  <text x="10" class="highcharts-credits" text-anchor="start" style="cursor:default;color:#000000;font-size:10px;fill:#000000;" y="400">
    <tspan>Quelle: Statistisches Amt Basel-Stadt, Gebäude- und Wohnungsstatistik</tspan>
  </text>
</svg>
