<?xml version="1.0" standalone="no"?>
<!DOCTYPE svg PUBLIC "-//W3C//DTD SVG 1.1//EN" "http://www.w3.org/Graphics/SVG/1.1/DTD/svg11.dtd">
<svg xmlns:xlink="http://www.w3.org/1999/xlink" version="1.1" class="highcharts-root" style="font-family:arial;font-size:12px;" xmlns="http://www.w3.org/2000/svg" viewBox="0 0 485 415">
  <desc>
    Created with Highstock 5.0.14
  </desc>
  <defs>
    <clipPath>
      <rect x="0" y="0" width="196" height="323" fill="none"/>
    </clipPath>
    <clipPath id="a">
      <rect x="0" y="0" width="196" height="323" fill="none"/>
    </clipPath>
  </defs>
  <rect fill="#fbfbfb" class="highcharts-background" x="0" y="0" width="485" height="415" rx="0" ry="0"/>
  <rect fill="none" class="highcharts-plot-background" x="65" y="41" width="196" height="323"/>
  <g class="highcharts-pane-group"/>
  <g class="highcharts-grid highcharts-xaxis-grid ">
    <path fill="none" class="highcharts-grid-line" d="M 92.5 41 L 92.5 364" opacity="1"/>
    <path fill="none" class="highcharts-grid-line" d="M 120.5 41 L 120.5 364" opacity="1"/>
    <path fill="none" class="highcharts-grid-line" d="M 148.5 41 L 148.5 364" opacity="1"/>
    <path fill="none" class="highcharts-grid-line" d="M 176.5 41 L 176.5 364" opacity="1"/>
    <path fill="none" class="highcharts-grid-line" d="M 204.5 41 L 204.5 364" opacity="1"/>
    <path fill="none" class="highcharts-grid-line" d="M 232.5 41 L 232.5 364" opacity="1"/>
    <path fill="none" class="highcharts-grid-line" d="M 260.5 41 L 260.5 364" opacity="1"/>
    <path fill="none" class="highcharts-grid-line" d="M 64.5 41 L 64.5 364" opacity="1"/>
  </g>
  <g class="highcharts-grid highcharts-yaxis-grid ">
    <path fill="none" stroke="#B9CFD7" stroke-width="0.5" class="highcharts-grid-line" d="M 65 364.25 L 261 364.25" opacity="1"/>
    <path fill="none" stroke="#B9CFD7" stroke-width="0.5" class="highcharts-grid-line" d="M 65 348.25 L 261 348.25" opacity="1"/>
    <path fill="none" stroke="#B9CFD7" stroke-width="0.5" class="highcharts-grid-line" d="M 65 332.25 L 261 332.25" opacity="1"/>
    <path fill="none" stroke="#B9CFD7" stroke-width="0.5" class="highcharts-grid-line" d="M 65 316.25 L 261 316.25" opacity="1"/>
    <path fill="none" stroke="#B9CFD7" stroke-width="0.5" class="highcharts-grid-line" d="M 65 299.25 L 261 299.25" opacity="1"/>
    <path fill="none" stroke="#B9CFD7" stroke-width="0.5" class="highcharts-grid-line" d="M 65 283.25 L 261 283.25" opacity="1"/>
    <path fill="none" stroke="#B9CFD7" stroke-width="0.5" class="highcharts-grid-line" d="M 65 267.25 L 261 267.25" opacity="1"/>
    <path fill="none" stroke="#B9CFD7" stroke-width="0.5" class="highcharts-grid-line" d="M 65 251.25 L 261 251.25" opacity="1"/>
    <path fill="none" stroke="#B9CFD7" stroke-width="0.5" class="highcharts-grid-line" d="M 65 235.25 L 261 235.25" opacity="1"/>
    <path fill="none" stroke="#B9CFD7" stroke-width="0.5" class="highcharts-grid-line" d="M 65 219.25 L 261 219.25" opacity="1"/>
    <path fill="none" stroke="#B9CFD7" stroke-width="0.5" class="highcharts-grid-line" d="M 65 203.25 L 261 203.25" opacity="1"/>
    <path fill="none" stroke="#B9CFD7" stroke-width="0.5" class="highcharts-grid-line" d="M 65 186.25 L 261 186.25" opacity="1"/>
    <path fill="none" stroke="#B9CFD7" stroke-width="0.5" class="highcharts-grid-line" d="M 65 170.25 L 261 170.25" opacity="1"/>
    <path fill="none" stroke="#B9CFD7" stroke-width="0.5" class="highcharts-grid-line" d="M 65 154.25 L 261 154.25" opacity="1"/>
    <path fill="none" stroke="#B9CFD7" stroke-width="0.5" class="highcharts-grid-line" d="M 65 138.25 L 261 138.25" opacity="1"/>
    <path fill="none" stroke="#B9CFD7" stroke-width="0.5" class="highcharts-grid-line" d="M 65 122.25 L 261 122.25" opacity="1"/>
    <path fill="none" stroke="#B9CFD7" stroke-width="0.5" class="highcharts-grid-line" d="M 65 106.25 L 261 106.25" opacity="1"/>
    <path fill="none" stroke="#B9CFD7" stroke-width="0.5" class="highcharts-grid-line" d="M 65 89.25 L 261 89.25" opacity="1"/>
    <path fill="none" stroke="#B9CFD7" stroke-width="0.5" class="highcharts-grid-line" d="M 65 73.25 L 261 73.25" opacity="1"/>
    <path fill="none" stroke="#B9CFD7" stroke-width="0.5" class="highcharts-grid-line" d="M 65 57.25 L 261 57.25" opacity="1"/>
    <path fill="none" stroke="#B9CFD7" stroke-width="0.5" class="highcharts-grid-line" d="M 65 40.75 L 261 40.75" opacity="1"/>
  </g>
  <rect fill="none" class="highcharts-plot-border" x="65" y="41" width="196" height="323"/>
  <g class="highcharts-axis highcharts-xaxis ">
    <path fill="none" class="highcharts-tick" stroke="#FFFFFF" stroke-width="1" d="M 92.5 364 L 92.5 374" opacity="1"/>
    <path fill="none" class="highcharts-tick" stroke="#FFFFFF" stroke-width="1" d="M 120.5 364 L 120.5 374" opacity="1"/>
    <path fill="none" class="highcharts-tick" stroke="#FFFFFF" stroke-width="1" d="M 148.5 364 L 148.5 374" opacity="1"/>
    <path fill="none" class="highcharts-tick" stroke="#FFFFFF" stroke-width="1" d="M 176.5 364 L 176.5 374" opacity="1"/>
    <path fill="none" class="highcharts-tick" stroke="#FFFFFF" stroke-width="1" d="M 204.5 364 L 204.5 374" opacity="1"/>
    <path fill="none" class="highcharts-tick" stroke="#FFFFFF" stroke-width="1" d="M 232.5 364 L 232.5 374" opacity="1"/>
    <path fill="none" class="highcharts-tick" stroke="#FFFFFF" stroke-width="1" d="M 261.5 364 L 261.5 374" opacity="1"/>
    <path fill="none" class="highcharts-tick" stroke="#FFFFFF" stroke-width="1" d="M 64.5 364 L 64.5 374" opacity="1"/>
    <path fill="none" class="highcharts-axis-line" stroke="#B9CFD7" stroke-width="0.5" d="M 65 364.25 L 261 364.25"/>
  </g>
  <g class="highcharts-axis highcharts-yaxis ">
    <path fill="none" class="highcharts-axis-line" d="M 65 41 L 65 364"/>
  </g>
  <g class="highcharts-series-group">
    <g class="highcharts-series highcharts-series-0 highcharts-column-series highcharts-color-undefined " transform="translate(65,41) scale(1 1)" clip-path="url(#a)">
      <rect x="3" y="60" width="23" height="20" fill="#007a2f" class="highcharts-point"/>
      <rect x="31" y="50" width="23" height="22" fill="#007a2f" class="highcharts-point"/>
      <rect x="59" y="41" width="23" height="26" fill="#007a2f" class="highcharts-point"/>
      <rect x="87" y="36" width="23" height="28" fill="#007a2f" class="highcharts-point"/>
      <rect x="115" y="34" width="23" height="27" fill="#007a2f" class="highcharts-point"/>
      <rect x="143" y="29" width="23" height="28" fill="#007a2f" class="highcharts-point"/>
      <rect x="171" y="31" width="23" height="28" fill="#007a2f" class="highcharts-point"/>
    </g>
    <g class="highcharts-markers highcharts-series-0 highcharts-column-series highcharts-color-undefined " transform="translate(65,41) scale(1 1)" clip-path="none"/>
    <g class="highcharts-series highcharts-series-1 highcharts-column-series highcharts-color-undefined " transform="translate(65,41) scale(1 1)" clip-path="url(#a)">
      <rect x="3" y="80" width="23" height="16" fill="#44ab2b" class="highcharts-point"/>
      <rect x="31" y="72" width="23" height="17" fill="#44ab2b" class="highcharts-point"/>
      <rect x="59" y="67" width="23" height="16" fill="#44ab2b" class="highcharts-point"/>
      <rect x="87" y="64" width="23" height="15" fill="#44ab2b" class="highcharts-point"/>
      <rect x="115" y="61" width="23" height="14" fill="#44ab2b" class="highcharts-point"/>
      <rect x="143" y="57" width="23" height="14" fill="#44ab2b" class="highcharts-point"/>
      <rect x="171" y="59" width="23" height="14" fill="#44ab2b" class="highcharts-point"/>
    </g>
    <g class="highcharts-markers highcharts-series-1 highcharts-column-series highcharts-color-undefined " transform="translate(65,41) scale(1 1)" clip-path="none"/>
    <g class="highcharts-series highcharts-series-2 highcharts-column-series highcharts-color-undefined " transform="translate(65,41) scale(1 1)" clip-path="url(#a)">
      <rect x="3" y="96" width="23" height="15" fill="#73ba7c" class="highcharts-point"/>
      <rect x="31" y="89" width="23" height="13" fill="#73ba7c" class="highcharts-point"/>
      <rect x="59" y="83" width="23" height="14" fill="#73ba7c" class="highcharts-point"/>
      <rect x="87" y="79" width="23" height="14" fill="#73ba7c" class="highcharts-point"/>
      <rect x="115" y="75" width="23" height="14" fill="#73ba7c" class="highcharts-point"/>
      <rect x="143" y="71" width="23" height="14" fill="#73ba7c" class="highcharts-point"/>
      <rect x="171" y="73" width="23" height="14" fill="#73ba7c" class="highcharts-point"/>
    </g>
    <g class="highcharts-markers highcharts-series-2 highcharts-column-series highcharts-color-undefined " transform="translate(65,41) scale(1 1)" clip-path="none"/>
    <g class="highcharts-series highcharts-series-3 highcharts-column-series highcharts-color-undefined " transform="translate(65,41) scale(1 1)" clip-path="url(#a)">
      <rect x="3" y="111" width="23" height="49" fill="#d7e9d2" class="highcharts-point"/>
      <rect x="31" y="102" width="23" height="49" fill="#d7e9d2" class="highcharts-point"/>
      <rect x="59" y="97" width="23" height="46" fill="#d7e9d2" class="highcharts-point"/>
      <rect x="87" y="93" width="23" height="46" fill="#d7e9d2" class="highcharts-point"/>
      <rect x="115" y="89" width="23" height="45" fill="#d7e9d2" class="highcharts-point"/>
      <rect x="143" y="85" width="23" height="45" fill="#d7e9d2" class="highcharts-point"/>
      <rect x="171" y="87" width="23" height="42" fill="#d7e9d2" class="highcharts-point"/>
    </g>
    <g class="highcharts-markers highcharts-series-3 highcharts-column-series highcharts-color-undefined " transform="translate(65,41) scale(1 1)" clip-path="none"/>
    <g class="highcharts-series highcharts-series-4 highcharts-column-series highcharts-color-undefined " transform="translate(65,41) scale(1 1)" clip-path="url(#a)">
      <rect x="3" y="160" width="23" height="18" fill="#b9cfd7" class="highcharts-point"/>
      <rect x="31" y="151" width="23" height="19" fill="#b9cfd7" class="highcharts-point"/>
      <rect x="59" y="143" width="23" height="18" fill="#b9cfd7" class="highcharts-point"/>
      <rect x="87" y="139" width="23" height="18" fill="#b9cfd7" class="highcharts-point"/>
      <rect x="115" y="134" width="23" height="18" fill="#b9cfd7" class="highcharts-point"/>
      <rect x="143" y="130" width="23" height="18" fill="#b9cfd7" class="highcharts-point"/>
      <rect x="171" y="129" width="23" height="18" fill="#b9cfd7" class="highcharts-point"/>
    </g>
    <g class="highcharts-markers highcharts-series-4 highcharts-column-series highcharts-color-undefined " transform="translate(65,41) scale(1 1)" clip-path="none"/>
    <g class="highcharts-series highcharts-series-5 highcharts-column-series highcharts-color-undefined " transform="translate(65,41) scale(1 1)" clip-path="url(#a)">
      <rect x="3" y="178" width="23" height="44" fill="#71a3b5" class="highcharts-point"/>
      <rect x="31" y="170" width="23" height="49" fill="#71a3b5" class="highcharts-point"/>
      <rect x="59" y="161" width="23" height="53" fill="#71a3b5" class="highcharts-point"/>
      <rect x="87" y="157" width="23" height="54" fill="#71a3b5" class="highcharts-point"/>
      <rect x="115" y="152" width="23" height="56" fill="#71a3b5" class="highcharts-point"/>
      <rect x="143" y="148" width="23" height="57" fill="#71a3b5" class="highcharts-point"/>
      <rect x="171" y="147" width="23" height="57" fill="#71a3b5" class="highcharts-point"/>
    </g>
    <g class="highcharts-markers highcharts-series-5 highcharts-column-series highcharts-color-undefined " transform="translate(65,41) scale(1 1)" clip-path="none"/>
    <g class="highcharts-series highcharts-series-6 highcharts-column-series highcharts-color-undefined " transform="translate(65,41) scale(1 1)" clip-path="url(#a)">
      <rect x="3" y="222" width="23" height="28" fill="#ffbb58" class="highcharts-point"/>
      <rect x="31" y="219" width="23" height="27" fill="#ffbb58" class="highcharts-point"/>
      <rect x="59" y="214" width="23" height="27" fill="#ffbb58" class="highcharts-point"/>
      <rect x="87" y="211" width="23" height="28" fill="#ffbb58" class="highcharts-point"/>
      <rect x="115" y="208" width="23" height="28" fill="#ffbb58" class="highcharts-point"/>
      <rect x="143" y="205" width="23" height="29" fill="#ffbb58" class="highcharts-point"/>
      <rect x="171" y="204" width="23" height="29" fill="#ffbb58" class="highcharts-point"/>
    </g>
    <g class="highcharts-markers highcharts-series-6 highcharts-column-series highcharts-color-undefined " transform="translate(65,41) scale(1 1)" clip-path="none"/>
    <g class="highcharts-series highcharts-series-7 highcharts-column-series highcharts-color-undefined " transform="translate(65,41) scale(1 1)" clip-path="url(#a)">
      <rect x="3" y="250" width="23" height="36" fill="#ff8028" class="highcharts-point"/>
      <rect x="31" y="246" width="23" height="38" fill="#ff8028" class="highcharts-point"/>
      <rect x="59" y="241" width="23" height="41" fill="#ff8028" class="highcharts-point"/>
      <rect x="87" y="239" width="23" height="41" fill="#ff8028" class="highcharts-point"/>
      <rect x="115" y="236" width="23" height="43" fill="#ff8028" class="highcharts-point"/>
      <rect x="143" y="234" width="23" height="44" fill="#ff8028" class="highcharts-point"/>
      <rect x="171" y="233" width="23" height="45" fill="#ff8028" class="highcharts-point"/>
    </g>
    <g class="highcharts-markers highcharts-series-7 highcharts-column-series highcharts-color-undefined " transform="translate(65,41) scale(1 1)" clip-path="none"/>
    <g class="highcharts-series highcharts-series-8 highcharts-column-series highcharts-color-undefined " transform="translate(65,41) scale(1 1)" clip-path="url(#a)">
      <rect x="3" y="286" width="23" height="38" fill="#b00000" class="highcharts-point"/>
      <rect x="31" y="284" width="23" height="40" fill="#b00000" class="highcharts-point"/>
      <rect x="59" y="282" width="23" height="42" fill="#b00000" class="highcharts-point"/>
      <rect x="87" y="280" width="23" height="44" fill="#b00000" class="highcharts-point"/>
      <rect x="115" y="279" width="23" height="45" fill="#b00000" class="highcharts-point"/>
      <rect x="143" y="278" width="23" height="46" fill="#b00000" class="highcharts-point"/>
      <rect x="171" y="278" width="23" height="46" fill="#b00000" class="highcharts-point"/>
    </g>
    <g class="highcharts-markers highcharts-series-8 highcharts-column-series highcharts-color-undefined " transform="translate(65,41) scale(1 1)" clip-path="none"/>
  </g>
  <text x="10" text-anchor="start" class="highcharts-title" style="color:#000000;font-size:14px;font-weight:bold;fill:#000000;" y="21">
    <tspan>Anzahl Beschäftigte nach Branche</tspan>
  </text>
  <g class="highcharts-legend" transform="translate(273,107)">
    <rect fill="none" class="highcharts-legend-box" rx="0" ry="0" x="0" y="0" width="202" height="182" visibility="visible"/>
    <g>
      <g>
        <g class="highcharts-legend-item highcharts-column-series highcharts-color-undefined highcharts-series-0" transform="translate(8,3)">
          <text x="21" style="color:#333333;font-size:12px;font-weight:normal;cursor:pointer;fill:#333333;" text-anchor="start" y="15">
            <tspan>Pharmaindustrie</tspan>
          </text>
          <rect x="2" y="4" width="12" height="12" fill="#007a2f" class="highcharts-point"/>
        </g>
        <g class="highcharts-legend-item highcharts-column-series highcharts-color-undefined highcharts-series-1" transform="translate(8,22)">
          <text x="21" y="15" style="color:#333333;font-size:12px;font-weight:normal;cursor:pointer;fill:#333333;" text-anchor="start">
            <tspan>Übriges verarbeit. Gewerbe</tspan>
          </text>
          <rect x="2" y="4" width="12" height="12" fill="#44ab2b" class="highcharts-point"/>
        </g>
        <g class="highcharts-legend-item highcharts-column-series highcharts-color-undefined highcharts-series-2" transform="translate(8,41)">
          <text x="21" y="15" style="color:#333333;font-size:12px;font-weight:normal;cursor:pointer;fill:#333333;" text-anchor="start">
            <tspan>Bau, Energie, Wasser</tspan>
          </text>
          <rect x="2" y="4" width="12" height="12" fill="#73ba7c" class="highcharts-point"/>
        </g>
        <g class="highcharts-legend-item highcharts-column-series highcharts-color-undefined highcharts-series-3" transform="translate(8,60)">
          <text x="21" y="15" style="color:#333333;font-size:12px;font-weight:normal;cursor:pointer;fill:#333333;" text-anchor="start">
            <tspan>Handel und Verkehr</tspan>
          </text>
          <rect x="2" y="4" width="12" height="12" fill="#d7e9d2" class="highcharts-point"/>
        </g>
        <g class="highcharts-legend-item highcharts-column-series highcharts-color-undefined highcharts-series-4" transform="translate(8,79)">
          <text x="21" y="15" style="color:#333333;font-size:12px;font-weight:normal;cursor:pointer;fill:#333333;" text-anchor="start">
            <tspan>Finanzen, Versicherung</tspan>
          </text>
          <rect x="2" y="4" width="12" height="12" fill="#b9cfd7" class="highcharts-point"/>
        </g>
        <g class="highcharts-legend-item highcharts-column-series highcharts-color-undefined highcharts-series-5" transform="translate(8,98)">
          <text x="21" y="15" style="color:#333333;font-size:12px;font-weight:normal;cursor:pointer;fill:#333333;" text-anchor="start">
            <tspan>Unternehmens-DL, Freiberufe</tspan>
          </text>
          <rect x="2" y="4" width="12" height="12" fill="#71a3b5" class="highcharts-point"/>
        </g>
        <g class="highcharts-legend-item highcharts-column-series highcharts-color-undefined highcharts-series-6" transform="translate(8,117)">
          <text x="21" y="15" style="color:#333333;font-size:12px;font-weight:normal;cursor:pointer;fill:#333333;" text-anchor="start">
            <tspan>Öff. Verwaltung und Bildung</tspan>
          </text>
          <rect x="2" y="4" width="12" height="12" fill="#ffbb58" class="highcharts-point"/>
        </g>
        <g class="highcharts-legend-item highcharts-column-series highcharts-color-undefined highcharts-series-7" transform="translate(8,136)">
          <text x="21" y="15" style="color:#333333;font-size:12px;font-weight:normal;cursor:pointer;fill:#333333;" text-anchor="start">
            <tspan>Gesundheits- und Sozialwesen</tspan>
          </text>
          <rect x="2" y="4" width="12" height="12" fill="#ff8028" class="highcharts-point"/>
        </g>
        <g class="highcharts-legend-item highcharts-column-series highcharts-color-undefined highcharts-series-8" transform="translate(8,155)">
          <text x="21" y="15" style="color:#333333;font-size:12px;font-weight:normal;cursor:pointer;fill:#333333;" text-anchor="start">
            <tspan>Übrige Branchen</tspan>
          </text>
          <rect x="2" y="4" width="12" height="12" fill="#b00000" class="highcharts-point"/>
        </g>
      </g>
    </g>
  </g>
  <g class="highcharts-axis-labels highcharts-xaxis-labels ">
    <text x="79" style="color:#000000;cursor:default;font-size:11px;fill:#000000;" text-anchor="middle" transform="translate(0,0)" y="383" opacity="1">
      <tspan>2005</tspan>
    </text>
    <text x="107" style="color:#000000;cursor:default;font-size:11px;fill:#000000;" text-anchor="middle" transform="translate(0,0)" y="383" opacity="1">
      <tspan>2008</tspan>
    </text>
    <text x="135" style="color:#000000;cursor:default;font-size:11px;fill:#000000;" text-anchor="middle" transform="translate(0,0)" y="383" opacity="1">
      <tspan>2011</tspan>
    </text>
    <text x="163" style="color:#000000;cursor:default;font-size:11px;fill:#000000;" text-anchor="middle" transform="translate(0,0)" y="383" opacity="1">
      <tspan>2012</tspan>
    </text>
    <text x="191" style="color:#000000;cursor:default;font-size:11px;fill:#000000;" text-anchor="middle" transform="translate(0,0)" y="383" opacity="1">
      <tspan>2013</tspan>
    </text>
    <text x="219" style="color:#000000;cursor:default;font-size:11px;fill:#000000;" text-anchor="middle" transform="translate(0,0)" y="383" opacity="1">
      <tspan>2014</tspan>
    </text>
    <text x="247" style="color:#000000;cursor:default;font-size:11px;fill:#000000;" text-anchor="middle" transform="translate(0,0)" y="383" opacity="1">
      <tspan>2015</tspan>
    </text>
  </g>
  <g class="highcharts-axis-labels highcharts-yaxis-labels ">
    <text x="50" style="color:#000000;cursor:default;font-size:11px;fill:#000000;" text-anchor="end" transform="translate(0,0)" y="369" opacity="1">
      <tspan>0</tspan>
    </text>
    <text x="50" style="color:#000000;cursor:default;font-size:11px;fill:#000000;" text-anchor="end" transform="translate(0,0)" y="352" opacity="1">
      <tspan>10 500</tspan>
    </text>
    <text x="50" style="color:#000000;cursor:default;font-size:11px;fill:#000000;" text-anchor="end" transform="translate(0,0)" y="336" opacity="1">
      <tspan>21 000</tspan>
    </text>
    <text x="50" style="color:#000000;cursor:default;font-size:11px;fill:#000000;" text-anchor="end" transform="translate(0,0)" y="320" opacity="1">
      <tspan>31 500</tspan>
    </text>
    <text x="50" style="color:#000000;cursor:default;font-size:11px;fill:#000000;" text-anchor="end" transform="translate(0,0)" y="304" opacity="1">
      <tspan>42 000</tspan>
    </text>
    <text x="50" style="color:#000000;cursor:default;font-size:11px;fill:#000000;" text-anchor="end" transform="translate(0,0)" y="288" opacity="1">
      <tspan>52 500</tspan>
    </text>
    <text x="50" style="color:#000000;cursor:default;font-size:11px;fill:#000000;" text-anchor="end" transform="translate(0,0)" y="272" opacity="1">
      <tspan>63 000</tspan>
    </text>
    <text x="50" style="color:#000000;cursor:default;font-size:11px;fill:#000000;" text-anchor="end" transform="translate(0,0)" y="255" opacity="1">
      <tspan>73 500</tspan>
    </text>
    <text x="50" style="color:#000000;cursor:default;font-size:11px;fill:#000000;" text-anchor="end" transform="translate(0,0)" y="239" opacity="1">
      <tspan>84 000</tspan>
    </text>
    <text x="50" style="color:#000000;cursor:default;font-size:11px;fill:#000000;" text-anchor="end" transform="translate(0,0)" y="223" opacity="1">
      <tspan>94 500</tspan>
    </text>
    <text x="50" style="color:#000000;cursor:default;font-size:11px;fill:#000000;" text-anchor="end" transform="translate(0,0)" y="207" opacity="1">
      <tspan>105 000</tspan>
    </text>
    <text x="50" style="color:#000000;cursor:default;font-size:11px;fill:#000000;" text-anchor="end" transform="translate(0,0)" y="191" opacity="1">
      <tspan>115 500</tspan>
    </text>
    <text x="50" style="color:#000000;cursor:default;font-size:11px;fill:#000000;" text-anchor="end" transform="translate(0,0)" y="175" opacity="1">
      <tspan>126 000</tspan>
    </text>
    <text x="50" style="color:#000000;cursor:default;font-size:11px;fill:#000000;" text-anchor="end" transform="translate(0,0)" y="159" opacity="1">
      <tspan>136 500</tspan>
    </text>
    <text x="50" style="color:#000000;cursor:default;font-size:11px;fill:#000000;" text-anchor="end" transform="translate(0,0)" y="142" opacity="1">
      <tspan>147 000</tspan>
    </text>
    <text x="50" style="color:#000000;cursor:default;font-size:11px;fill:#000000;" text-anchor="end" transform="translate(0,0)" y="126" opacity="1">
      <tspan>157 500</tspan>
    </text>
    <text x="50" style="color:#000000;cursor:default;font-size:11px;fill:#000000;" text-anchor="end" transform="translate(0,0)" y="110" opacity="1">
      <tspan>168 000</tspan>
    </text>
    <text x="50" style="color:#000000;cursor:default;font-size:11px;fill:#000000;" text-anchor="end" transform="translate(0,0)" y="94" opacity="1">
      <tspan>178 500</tspan>
    </text>
    <text x="50" style="color:#000000;cursor:default;font-size:11px;fill:#000000;" text-anchor="end" transform="translate(0,0)" y="78" opacity="1">
      <tspan>189 000</tspan>
    </text>
    <text x="50" style="color:#000000;cursor:default;font-size:11px;fill:#000000;" text-anchor="end" transform="translate(0,0)" y="62" opacity="1">
      <tspan>199 500</tspan>
    </text>
    <text x="50" style="color:#000000;cursor:default;font-size:11px;fill:#000000;" text-anchor="end" transform="translate(0,0)" y="46" opacity="1">
      <tspan>210 000</tspan>
    </text>
  </g>
  <text x="10" class="highcharts-credits" text-anchor="start" style="cursor:default;color:#000000;font-size:10px;fill:#000000;" y="400">
    <tspan>Quelle: Bundesamt für Statistik (BFS), Statistik der Unternehmensstruktur (STATENT)</tspan>
  </text>
</svg>
