<?xml version="1.0" standalone="no"?>
<!DOCTYPE svg PUBLIC "-//W3C//DTD SVG 1.1//EN" "http://www.w3.org/Graphics/SVG/1.1/DTD/svg11.dtd">
<svg xmlns:xlink="http://www.w3.org/1999/xlink" version="1.1" class="highcharts-root" style="font-family:arial;font-size:12px;" xmlns="http://www.w3.org/2000/svg" viewBox="0 0 320 208">
  <desc>
    Created with Highstock 5.0.14
  </desc>
  <defs>
    <clipPath>
      <rect x="0" y="0" width="282" height="66" fill="none"/>
    </clipPath>
    <clipPath id="a">
      <rect x="0" y="0" width="282" height="66" fill="none"/>
    </clipPath>
  </defs>
  <rect fill="#fbfbfb" class="highcharts-background" x="0" y="0" width="320" height="208" rx="0" ry="0"/>
  <rect fill="none" class="highcharts-plot-background" x="35" y="101" width="282" height="66"/>
  <g class="highcharts-pane-group"/>
  <g class="highcharts-grid highcharts-xaxis-grid ">
    <path fill="none" class="highcharts-grid-line" d="M 51.5 101 L 51.5 167" opacity="1"/>
    <path fill="none" class="highcharts-grid-line" d="M 78.5 101 L 78.5 167" opacity="1"/>
    <path fill="none" class="highcharts-grid-line" d="M 106.5 101 L 106.5 167" opacity="1"/>
    <path fill="none" class="highcharts-grid-line" d="M 134.5 101 L 134.5 167" opacity="1"/>
    <path fill="none" class="highcharts-grid-line" d="M 161.5 101 L 161.5 167" opacity="1"/>
    <path fill="none" class="highcharts-grid-line" d="M 189.5 101 L 189.5 167" opacity="1"/>
    <path fill="none" class="highcharts-grid-line" d="M 216.5 101 L 216.5 167" opacity="1"/>
    <path fill="none" class="highcharts-grid-line" d="M 244.5 101 L 244.5 167" opacity="1"/>
    <path fill="none" class="highcharts-grid-line" d="M 272.5 101 L 272.5 167" opacity="1"/>
    <path fill="none" class="highcharts-grid-line" d="M 299.5 101 L 299.5 167" opacity="1"/>
  </g>
  <g class="highcharts-grid highcharts-yaxis-grid ">
    <path fill="none" stroke="#B9CFD7" stroke-width="0.5" class="highcharts-grid-line" d="M 35 167.25 L 317 167.25" opacity="1"/>
    <path fill="none" stroke="#B9CFD7" stroke-width="0.5" class="highcharts-grid-line" d="M 35 154.25 L 317 154.25" opacity="1"/>
    <path fill="none" stroke="#B9CFD7" stroke-width="0.5" class="highcharts-grid-line" d="M 35 141.25 L 317 141.25" opacity="1"/>
    <path fill="none" stroke="#B9CFD7" stroke-width="0.5" class="highcharts-grid-line" d="M 35 127.25 L 317 127.25" opacity="1"/>
    <path fill="none" stroke="#B9CFD7" stroke-width="0.5" class="highcharts-grid-line" d="M 35 114.25 L 317 114.25" opacity="1"/>
    <path fill="none" stroke="#B9CFD7" stroke-width="0.5" class="highcharts-grid-line" d="M 35 100.75 L 317 100.75" opacity="1"/>
  </g>
  <rect fill="none" class="highcharts-plot-border" x="35" y="101" width="282" height="66"/>
  <g class="highcharts-axis highcharts-xaxis ">
    <path fill="none" class="highcharts-axis-line" stroke="#B9CFD7" stroke-width="0.5" d="M 35 167.25 L 317 167.25"/>
  </g>
  <g class="highcharts-axis highcharts-yaxis ">
    <path fill="none" class="highcharts-axis-line" d="M 35 101 L 35 167"/>
  </g>
  <g class="highcharts-series-group">
    <g class="highcharts-series highcharts-series-0 highcharts-line-series highcharts-color-undefined " transform="translate(35,101) scale(1 1)" clip-path="url(#a)">
      <path fill="none" d="M 2.7647058823536 52.8 L 16.588235294118 54.12 L 30.411764705883 54.12 L 44.235294117647 52.14 L 58.058823529412 50.82 L 71.882352941177 45.54 L 85.705882352941 40.92 L 99.529411764706 37.62 L 113.35294117647 34.32 L 127.17647058824 29.699999999999996 L 141 26.4 L 154.82352941176 20.46 L 168.64705882353 13.86 L 182.47058823529 11.219999999999999 L 196.29411764706 12.54 L 210.11764705882 11.219999999999999 L 223.94117647059 8.579999999999998 L 237.76470588235 7.259999999999998 L 251.58823529412 8.579999999999998 L 265.41176470588 7.919999999999995 L 279.23529411765 6.599999999999994" class="highcharts-graph" stroke="#008AC3" stroke-width="2" stroke-linejoin="round" stroke-linecap="round"/>
    </g>
    <g class="highcharts-markers highcharts-series-0 highcharts-line-series highcharts-color-undefined " transform="translate(35,101) scale(1 1)" clip-path="none">
      <path fill="#008AC3" d="M 6 53 A 4 4 0 1 1 5.999998000000167 52.99600000066666 Z" class="highcharts-point"/>
      <path fill="#008AC3" d="M 20 54 A 4 4 0 1 1 19.99999800000017 53.99600000066666 Z" class="highcharts-point"/>
      <path fill="#008AC3" d="M 34 54 A 4 4 0 1 1 33.99999800000017 53.99600000066666 Z" class="highcharts-point"/>
      <path fill="#008AC3" d="M 48 52 A 4 4 0 1 1 47.99999800000017 51.99600000066666 Z" class="highcharts-point"/>
      <path fill="#008AC3" d="M 62 51 A 4 4 0 1 1 61.99999800000017 50.99600000066666 Z" class="highcharts-point"/>
      <path fill="#008AC3" d="M 75 46 A 4 4 0 1 1 74.99999800000016 45.99600000066666 Z" class="highcharts-point"/>
      <path fill="#008AC3" d="M 89 41 A 4 4 0 1 1 88.99999800000016 40.99600000066666 Z" class="highcharts-point"/>
      <path fill="#008AC3" d="M 103 38 A 4 4 0 1 1 102.99999800000016 37.99600000066666 Z" class="highcharts-point"/>
      <path fill="#008AC3" d="M 117 34 A 4 4 0 1 1 116.99999800000016 33.99600000066666 Z" class="highcharts-point"/>
      <path fill="#008AC3" d="M 131 30 A 4 4 0 1 1 130.99999800000018 29.996000000666665 Z" class="highcharts-point"/>
      <path fill="#008AC3" d="M 145 26 A 4 4 0 1 1 144.99999800000018 25.996000000666665 Z" class="highcharts-point"/>
      <path fill="#008AC3" d="M 158 20 A 4 4 0 1 1 157.99999800000018 19.996000000666665 Z" class="highcharts-point"/>
      <path fill="#008AC3" d="M 172 14 A 4 4 0 1 1 171.99999800000018 13.996000000666664 Z" class="highcharts-point"/>
      <path fill="#008AC3" d="M 186 11 A 4 4 0 1 1 185.99999800000018 10.996000000666664 Z" class="highcharts-point"/>
      <path fill="#008AC3" d="M 200 13 A 4 4 0 1 1 199.99999800000018 12.996000000666664 Z" class="highcharts-point"/>
      <path fill="#008AC3" d="M 214 11 A 4 4 0 1 1 213.99999800000018 10.996000000666664 Z" class="highcharts-point"/>
      <path fill="#008AC3" d="M 227 9 A 4 4 0 1 1 226.99999800000018 8.996000000666664 Z" class="highcharts-point"/>
      <path fill="#008AC3" d="M 241 7 A 4 4 0 1 1 240.99999800000018 6.9960000006666645 Z" class="highcharts-point"/>
      <path fill="#008AC3" d="M 255 9 A 4 4 0 1 1 254.99999800000018 8.996000000666664 Z" class="highcharts-point"/>
      <path fill="#008AC3" d="M 269 8 A 4 4 0 1 1 268.9999980000002 7.9960000006666645 Z" class="highcharts-point"/>
      <path fill="#008AC3" d="M 283 7 A 4 4 0 1 1 282.9999980000002 6.9960000006666645 Z" class="highcharts-point"/>
    </g>
    <g class="highcharts-series highcharts-series-1 highcharts-line-series highcharts-color-undefined " transform="translate(35,101) scale(1 1)" clip-path="url(#a)">
      <path fill="none" d="M 2.7647058823536 52.8 L 16.588235294118 49.5 L 30.411764705883 48.84 L 44.235294117647 48.84 L 58.058823529412 49.5 L 71.882352941177 46.2 L 85.705882352941 39.599999999999994 L 99.529411764706 42.239999999999995 L 113.35294117647 41.58 L 127.17647058824 42.9 L 141 40.26 L 154.82352941176 39.599999999999994 L 168.64705882353 18.479999999999997 L 182.47058823529 33 L 196.29411764706 42.239999999999995 L 210.11764705882 36.3 L 223.94117647059 36.3 L 237.76470588235 30.36 L 251.58823529412 29.699999999999996 L 265.41176470588 26.4 L 279.23529411765 21.78" class="highcharts-graph" stroke="#007A2F" stroke-width="2" stroke-linejoin="round" stroke-linecap="round"/>
    </g>
    <g class="highcharts-markers highcharts-series-1 highcharts-line-series highcharts-color-undefined " transform="translate(35,101) scale(1 1)" clip-path="none">
      <path fill="#007A2F" d="M 6 53 A 4 4 0 1 1 5.999998000000167 52.99600000066666 Z" class="highcharts-point"/>
      <path fill="#007A2F" d="M 20 50 A 4 4 0 1 1 19.99999800000017 49.99600000066666 Z" class="highcharts-point"/>
      <path fill="#007A2F" d="M 34 49 A 4 4 0 1 1 33.99999800000017 48.99600000066666 Z" class="highcharts-point"/>
      <path fill="#007A2F" d="M 48 49 A 4 4 0 1 1 47.99999800000017 48.99600000066666 Z" class="highcharts-point"/>
      <path fill="#007A2F" d="M 62 50 A 4 4 0 1 1 61.99999800000017 49.99600000066666 Z" class="highcharts-point"/>
      <path fill="#007A2F" d="M 75 46 A 4 4 0 1 1 74.99999800000016 45.99600000066666 Z" class="highcharts-point"/>
      <path fill="#007A2F" d="M 89 40 A 4 4 0 1 1 88.99999800000016 39.99600000066666 Z" class="highcharts-point"/>
      <path fill="#007A2F" d="M 103 42 A 4 4 0 1 1 102.99999800000016 41.99600000066666 Z" class="highcharts-point"/>
      <path fill="#007A2F" d="M 117 42 A 4 4 0 1 1 116.99999800000016 41.99600000066666 Z" class="highcharts-point"/>
      <path fill="#007A2F" d="M 131 43 A 4 4 0 1 1 130.99999800000018 42.99600000066666 Z" class="highcharts-point"/>
      <path fill="#007A2F" d="M 145 40 A 4 4 0 1 1 144.99999800000018 39.99600000066666 Z" class="highcharts-point"/>
      <path fill="#007A2F" d="M 158 40 A 4 4 0 1 1 157.99999800000018 39.99600000066666 Z" class="highcharts-point"/>
      <path fill="#007A2F" d="M 172 18 A 4 4 0 1 1 171.99999800000018 17.996000000666665 Z" class="highcharts-point"/>
      <path fill="#007A2F" d="M 186 33 A 4 4 0 1 1 185.99999800000018 32.99600000066666 Z" class="highcharts-point"/>
      <path fill="#007A2F" d="M 200 42 A 4 4 0 1 1 199.99999800000018 41.99600000066666 Z" class="highcharts-point"/>
      <path fill="#007A2F" d="M 214 36 A 4 4 0 1 1 213.99999800000018 35.99600000066666 Z" class="highcharts-point"/>
      <path fill="#007A2F" d="M 227 36 A 4 4 0 1 1 226.99999800000018 35.99600000066666 Z" class="highcharts-point"/>
      <path fill="#007A2F" d="M 241 30 A 4 4 0 1 1 240.99999800000018 29.996000000666665 Z" class="highcharts-point"/>
      <path fill="#007A2F" d="M 255 30 A 4 4 0 1 1 254.99999800000018 29.996000000666665 Z" class="highcharts-point"/>
      <path fill="#007A2F" d="M 269 26 A 4 4 0 1 1 268.9999980000002 25.996000000666665 Z" class="highcharts-point"/>
      <path fill="#007A2F" d="M 283 22 A 4 4 0 1 1 282.9999980000002 21.996000000666665 Z" class="highcharts-point"/>
    </g>
  </g>
  <text x="3" text-anchor="start" class="highcharts-title" style="color:#000000;font-size:10px;font-weight:bold;fill:#000000;" y="14">
    <tspan>Kantonales BIP im Vergleich zu den Staatsausgaben</tspan>
  </text>
  <text x="3" text-anchor="start" class="highcharts-subtitle" style="color:#000000;font-size:10px;font-weight:normal;font-family:arial;fill:#000000;" y="32">
    <tspan>indexiert (1995 = 100)</tspan>
  </text>
  <g class="highcharts-legend" transform="translate(3,42)">
    <rect fill="none" class="highcharts-legend-box" rx="0" ry="0" x="0" y="0" width="196" height="47" visibility="visible"/>
    <g>
      <g>
        <g class="highcharts-legend-item highcharts-line-series highcharts-color-undefined highcharts-series-0" transform="translate(8,3)">
          <path fill="none" d="M 0 10 L 16 10" class="highcharts-graph" stroke="#008AC3" stroke-width="2"/>
          <path fill="#008AC3" d="M 12 10 A 4 4 0 1 1 11.999998000000167 9.996000000666664 Z" class="highcharts-point"/>
          <text x="21" style="color:#333333;font-size:10px;font-weight:normal;cursor:pointer;fill:#333333;" text-anchor="start" y="13">
            <tspan>Nominales BIP BS</tspan>
          </text>
        </g>
        <g class="highcharts-legend-item highcharts-line-series highcharts-color-undefined highcharts-series-1" transform="translate(8,21)">
          <path fill="none" d="M 0 10 L 16 10" class="highcharts-graph" stroke="#007A2F" stroke-width="2"/>
          <path fill="#007A2F" d="M 12 10 A 4 4 0 1 1 11.999998000000167 9.996000000666664 Z" class="highcharts-point"/>
          <text x="21" y="13" style="color:#333333;font-size:10px;font-weight:normal;cursor:pointer;fill:#333333;" text-anchor="start">
            <tspan>Staatsausgaben BS</tspan>
          </text>
        </g>
      </g>
    </g>
  </g>
  <g class="highcharts-axis-labels highcharts-xaxis-labels ">
    <text x="54.4166624188644" style="color:#000000;cursor:default;font-size:10;fill:#000000;" text-anchor="end" transform="translate(0,0) rotate(-45 54.4166624188644 183)" y="183" opacity="1">
      <tspan>1996</tspan>
    </text>
    <text x="82.06372124239368" style="color:#000000;cursor:default;font-size:10;fill:#000000;" text-anchor="end" transform="translate(0,0) rotate(-45 82.06372124239368 183)" y="183" opacity="1">
      <tspan>1998</tspan>
    </text>
    <text x="109.71078006592296" style="color:#000000;cursor:default;font-size:10;fill:#000000;" text-anchor="end" transform="translate(0,0) rotate(-45 109.71078006592296 183)" y="183" opacity="1">
      <tspan>2000</tspan>
    </text>
    <text x="137.35783888945227" style="color:#000000;cursor:default;font-size:10;fill:#000000;" text-anchor="end" transform="translate(0,0) rotate(-45 137.35783888945227 183)" y="183" opacity="1">
      <tspan>2002</tspan>
    </text>
    <text x="165.00489771298155" style="color:#000000;cursor:default;font-size:10;fill:#000000;" text-anchor="end" transform="translate(0,0) rotate(-45 165.00489771298155 183)" y="183" opacity="1">
      <tspan>2004</tspan>
    </text>
    <text x="192.65195653651082" style="color:#000000;cursor:default;font-size:10;fill:#000000;" text-anchor="end" transform="translate(0,0) rotate(-45 192.65195653651082 183)" y="183" opacity="1">
      <tspan>2006</tspan>
    </text>
    <text x="220.29901536004013" style="color:#000000;cursor:default;font-size:10;fill:#000000;" text-anchor="end" transform="translate(0,0) rotate(-45 220.29901536004013 183)" y="183" opacity="1">
      <tspan>2008</tspan>
    </text>
    <text x="247.9460741835694" style="color:#000000;cursor:default;font-size:10;fill:#000000;" text-anchor="end" transform="translate(0,0) rotate(-45 247.9460741835694 183)" y="183" opacity="1">
      <tspan>2010</tspan>
    </text>
    <text x="275.5931330070987" style="color:#000000;cursor:default;font-size:10;fill:#000000;" text-anchor="end" transform="translate(0,0) rotate(-45 275.5931330070987 183)" y="183" opacity="1">
      <tspan>2012</tspan>
    </text>
    <text x="303.240191830628" style="color:#000000;cursor:default;font-size:10;fill:#000000;" text-anchor="end" transform="translate(0,0) rotate(-45 303.240191830628 183)" y="183" opacity="1">
      <tspan>2014</tspan>
    </text>
  </g>
  <g class="highcharts-axis-labels highcharts-yaxis-labels ">
    <text x="20" style="color:#000000;cursor:default;font-size:10;fill:#000000;" text-anchor="end" transform="translate(0,0)" y="173" opacity="1">
      <tspan>80</tspan>
    </text>
    <text x="20" style="color:#000000;cursor:default;font-size:10;fill:#000000;" text-anchor="end" transform="translate(0,0)" y="159" opacity="1">
      <tspan>100</tspan>
    </text>
    <text x="20" style="color:#000000;cursor:default;font-size:10;fill:#000000;" text-anchor="end" transform="translate(0,0)" y="146" opacity="1">
      <tspan>120</tspan>
    </text>
    <text x="20" style="color:#000000;cursor:default;font-size:10;fill:#000000;" text-anchor="end" transform="translate(0,0)" y="133" opacity="1">
      <tspan>140</tspan>
    </text>
    <text x="20" style="color:#000000;cursor:default;font-size:10;fill:#000000;" text-anchor="end" transform="translate(0,0)" y="120" opacity="1">
      <tspan>160</tspan>
    </text>
    <text x="20" style="color:#000000;cursor:default;font-size:10;fill:#000000;" text-anchor="end" transform="translate(0,0)" y="107" opacity="1">
      <tspan>180</tspan>
    </text>
  </g>
  <text x="10" class="highcharts-credits" text-anchor="start" style="cursor:default;color:#000000;font-size:10px;fill:#000000;" y="183">
    <tspan>Quelle: Eidgenössische Finanzverwaltung;</tspan><tspan x="10" dy="13">BAK Economics</tspan>
  </text>
</svg>
