<?xml version="1.0" encoding="UTF-8" standalone="no"?>

<svg
   viewBox="0 0 20 20"
   version="1.1"
   id="svg5"
   xml:space="preserve"
   xmlns="http://www.w3.org/2000/svg"
   xmlns:svg="http://www.w3.org/2000/svg"><defs
     id="defs2" /><g
     id="layer1"><path
       stroke="currentColor" stroke-width="4" fill="currentColor" stroke-linecap="round"
       transform="scale(0.08734 0.08524)"
       d="m 56.22333,176.82098 c -1.17261,-0.21065 -2.8434,-0.85029 -3.15508,-1.20788 -0.42848,-0.49158 -0.66023,-1.49122 -0.83002,-3.58017 -0.1824,-2.24417 -0.10663,-3.86495 0.29569,-6.32513 l 0.27411,-1.67618 -0.85826,-1.49731 -0.85826,-1.4973 -1.49818,-0.52681 c -1.34173,-0.4718 -1.62904,-0.65766 -2.7514,-1.77997 -1.506756,-1.50668 -2.347026,-3.06301 -2.486966,-4.60634 -0.0889,-0.97982 -0.0444,-1.13745 0.78825,-2.79677 0.48532,-0.96713 1.137336,-2.4728 1.448926,-3.34592 0.72873,-2.04201 2.51258,-9.11703 2.34019,-9.28151 -0.0724,-0.0691 -1.09062,-0.6482 -2.26274,-1.28697 l -2.131116,-1.16138 h -1.95123 c -2.67133,0 -5.20337,-0.28291 -7.14775,-0.79863 -0.89751,-0.23805 -2.90183,-0.71186 -4.45406,-1.05292 -1.55222,-0.34106 -3.3392,-0.74262 -3.97106,-0.89235 l -1.14883,-0.27224 -4.05464,1.07262 c -2.23005,0.58994 -4.63151,1.16396 -5.33658,1.27559 -1.18998,0.18842 -1.31651,0.17728 -1.76388,-0.15533 -0.69962,-0.52015 -0.68965,-1.2371 0.0499,-3.58994 0.35009,-1.11375 1.10414,-3.81094 1.67568,-5.99375 1.65264,-6.31183 1.60929,-6.23169 3.32315,-6.14355 l 1.12915,0.0581 0.82862,-2.02844 c 0.45574,-1.11564 1.11821,-2.59789 1.47215,-3.29389 l 0.64355,-1.26546 -2.07882,-2.08593 c -1.36083,-1.36549 -2.32821,-2.51239 -2.80088,-3.32066 -1.16722,-1.99595 -1.792,-2.6794 -3.84208,-4.20289 -2.16182,-1.60652 -2.54331,-2.12485 -2.19059,-2.97638 0.25148,-0.607128 1.32272,-1.189022 2.20053,-1.195325 0.29675,-0.0021 0.67334,-0.103092 0.83687,-0.224359 0.26489,-0.196438 2.06316,-5.303949 2.06316,-5.859876 0,-0.1222 -0.59918,-0.717809 -1.33152,-1.323574 -1.72211,-1.42448 -1.92052,-1.732439 -1.77943,-2.761831 0.13737,-1.002181 0.89564,-2.428109 1.50576,-2.831574 0.25227,-0.166816 1.05397,-0.593199 1.78158,-0.947517 1.99356,-0.97079 4.94495,-3.021934 6.02165,-4.184895 0.5265,-0.568692 1.25666,-1.603707 1.62257,-2.300034 l 0.66529,-1.266047 h 1.56635 c 2.31252,0 4.91979,0.624245 8.12936,1.94637 l 1.16008,0.477873 1.66214,-0.324848 c 2.28549,-0.446675 2.9478,-0.419432 5.24131,0.215591 1.09541,0.303297 2.036906,0.506199 2.092216,0.450892 0.0553,-0.05531 0.16907,-1.633021 0.25279,-3.506029 0.27334,-6.11454 1.39243,-10.872024 3.82592,-16.264782 1.2337,-2.733951 1.5285,-2.97832 3.27799,-2.717271 1.12348,0.167638 8.41573,2.53102 9.54969,3.095006 1.70161,0.846313 7.18725,4.198362 7.91141,4.834336 l 0.73165,0.642554 -0.0232,1.474112 c -0.0128,0.810761 -0.15534,2.215485 -0.31687,3.121609 l -0.29368,1.647497 0.58145,0.906874 c 0.5163,0.805264 0.58145,1.04558 0.58145,2.144864 v 1.237991 h 5.29167 c 5.603,0 5.70124,0.01176 7.57364,0.906683 0.47897,0.228928 0.97959,0.416233 1.11249,0.416233 0.4915,0 5.94864,-4.33814 8.6907,-6.908657 3.51994,-3.299726 5.92834,-5.936818 7.39432,-8.096437 0.62112,-0.91501 1.53233,-2.166742 2.02492,-2.781623 1.20234,-1.500872 3.72349,-3.562076 5.32454,-4.353172 0.7178,-0.354668 1.30508,-0.682316 1.30508,-0.728103 0,-0.04579 -0.25796,-0.404077 -0.57326,-0.796198 -0.53961,-0.6711 -0.57681,-0.808941 -0.63362,-2.348236 -0.047,-1.273972 0.005,-1.76167 0.23545,-2.207295 0.6962,-1.346299 3.15561,-3.434967 4.67655,-3.971586 1.07564,-0.379508 2.32902,-0.323632 4.14419,0.184753 0.87312,0.24454 3.78751,0.995435 6.4764,1.668656 5.6909,1.424838 6.90284,1.863789 11.17214,4.046427 3.65691,1.869558 4.56426,2.128245 6.38291,1.819779 1.35746,-0.230242 3.82837,-1.414676 5.37274,-2.575429 0.53721,-0.40377 1.97334,-1.852711 3.19139,-3.219867 2.5783,-2.893903 4.37555,-4.599932 5.22642,-4.961153 0.33279,-0.141282 1.67903,-0.330605 2.99861,-0.421697 2.75186,-0.189965 4.58777,-0.538681 5.58123,-1.060114 0.3817,-0.200343 1.20994,-0.867957 1.84053,-1.483587 1.26546,-1.235445 1.7872,-1.453664 2.7309,-1.142213 1.72544,0.569446 1.58103,2.645569 -0.34798,5.002747 -1.3221,1.615579 -2.65596,2.495417 -4.74158,3.127652 -3.84311,1.164997 -4.00484,1.232743 -4.73228,1.982325 -0.38453,0.396226 -1.59632,1.914594 -2.69288,3.37415 -2.4074,3.204342 -3.18406,4.03957 -4.68007,5.033019 -1.69334,1.124481 -4.42164,3.933709 -4.96983,5.117248 -0.53499,1.155053 -0.90749,2.588128 -0.74223,2.855523 0.2258,0.365352 3.69804,1.874687 6.594,2.866326 1.60073,0.548122 3.05042,1.135264 3.22152,1.304759 0.37128,0.367778 0.70927,2.218018 1.08472,5.937976 0.24121,2.38991 0.30534,2.671425 0.66304,2.910416 1.52346,1.017868 1.73107,1.518148 1.73251,4.17485 l 0.002,1.7936 0.57327,0.349079 c 0.31529,0.191992 1.18933,0.474712 1.9423,0.628264 1.73258,0.353324 2.30225,0.65124 2.94688,1.541129 0.68007,0.938807 0.94994,1.801225 0.83404,2.665344 -0.052,0.387306 -0.7658,2.104457 -1.58631,3.815893 -0.8205,1.711436 -1.63404,3.667328 -1.80784,4.346425 -0.4163,1.626519 -1.11434,2.381254 -2.20241,2.381254 -0.62366,0 -0.84162,-0.1009 -1.32484,-0.613257 -1.03898,-1.101642 -2.57863,-4.756527 -2.82104,-6.696735 -0.0674,-0.539159 -0.17286,-0.979545 -0.23444,-0.978635 -0.36481,0.0054 -2.03655,1.157469 -2.255,1.554026 -0.14325,0.260035 -0.80703,1.441248 -1.47506,2.624916 l -1.2146,2.152126 0.58645,0.586453 c 0.49027,0.490274 0.60719,0.765162 0.71293,1.676176 0.23885,2.05795 -0.37322,2.83115 -2.55211,3.22398 -2.10468,0.37944 -4.33267,-0.0957 -5.28058,-1.12626 -0.32788,-0.35645 -0.44802,-0.71792 -0.50627,-1.52327 l -0.0772,-1.05591 -0.81665,0.006 c -0.44916,0.004 -1.2929,0.12473 -1.87498,0.26951 -0.58208,0.14477 -2.24896,0.30814 -3.70417,0.36304 -2.18072,0.0823 -2.96937,0.19029 -4.48635,0.61453 -1.01228,0.2831 -1.99636,0.65268 -2.18684,0.8213 -0.19048,0.16862 -0.77459,0.88247 -1.29803,1.58634 -0.52343,0.70387 -1.1331,1.39862 -1.35483,1.5439 -0.22173,0.14529 -1.03188,0.34379 -1.80035,0.44113 -1.58266,0.20046 -2.5259,0.61123 -4.79447,2.08793 -2.88349,1.87696 -3.29291,1.89988 -6.41232,0.35901 l -2.18487,-1.07923 -1.85926,0.0949 -1.85927,0.0949 -1.49212,-1.41363 c -0.82067,-0.7775 -1.70327,-1.56518 -1.96134,-1.7504 l -0.46922,-0.33678 -0.80476,1.39522 c -1.09293,1.89482 -1.48267,2.18116 -2.83945,2.08615 -0.58399,-0.0409 -1.55789,-0.1744 -2.16423,-0.29668 -1.4516,-0.29275 -2.58111,-0.0886 -5.17424,0.93523 -1.10748,0.43726 -2.60892,0.9515 -3.33652,1.14274 -1.49698,0.39347 -3.29783,1.05071 -4.35051,1.58774 l -0.71092,0.36269 -0.11406,1.46536 c -0.0627,0.80594 -0.11454,2.184 -0.11512,3.06235 -0.001,1.57522 0.007,1.60428 0.5722,2.13074 0.3153,0.29356 0.9755,0.8212 1.46712,1.17253 1.05139,0.75136 2.39636,2.14855 2.77722,2.88504 1.1849,2.29136 1.3937,6.69465 0.76273,16.08547 -0.2711,4.03483 -0.37388,4.33538 -1.62843,4.76208 -1.11268,0.37845 -2.03294,0.15772 -3.86371,-0.92673 -0.52755,-0.31249 -0.53233,-0.31153 -1.5656,0.31487 -0.57004,0.34558 -1.57427,0.83385 -2.23163,1.08504 l -1.19521,0.45671 -0.47879,1.97557 c -0.26334,1.08657 -0.58186,2.17401 -0.70783,2.41655 -0.3551,0.68369 -1.31433,1.51743 -2.32863,2.02398 -0.50763,0.25352 -1.11592,0.71543 -1.35176,1.02647 -0.62824,0.82855 -2.01366,3.28738 -5.03949,8.94399 -2.92098,5.4606 -3.68923,6.7129 -6.49253,10.58334 -3.67003,5.06708 -4.12626,5.62728 -4.88015,5.99223 -0.84365,0.4084 -2.80697,0.58181 -4.05298,0.35797 z m 2.91879,-1.76744 c 0.67031,-0.18619 0.69499,-0.21781 6.28155,-8.04779 0.79943,-1.12047 1.99738,-3.04155 2.6621,-4.26908 0.66473,-1.22752 2.30368,-4.25592 3.64212,-6.72978 3.47441,-6.42178 3.66673,-6.69945 5.1977,-7.50395 0.69036,-0.36277 1.42121,-0.89273 1.62411,-1.17767 0.2029,-0.28494 0.62776,-1.47225 0.94414,-2.63847 0.31637,-1.16621 0.68632,-2.23147 0.82209,-2.36725 0.13578,-0.13578 0.88026,-0.51002 1.65439,-0.83163 0.77413,-0.32162 1.90676,-0.87736 2.51695,-1.23498 0.61018,-0.35762 1.32345,-0.65001 1.58505,-0.64976 0.26159,1.8e-4 0.9488,0.28577 1.52714,0.6345 1.30513,0.78697 2.10488,0.9525 2.3539,0.4872 0.43529,-0.81334 0.88901,-12.00633 0.58961,-14.54504 -0.38236,-3.24205 -0.94642,-4.2959 -3.21013,-5.99756 -0.72274,-0.5433 -1.62196,-1.32875 -1.99826,-1.74546 l -0.68419,-0.75765 0.10697,-1.51774 c 0.0588,-0.83475 0.10876,-2.59915 0.11093,-3.92089 l 0.004,-2.40315 2.00795,-0.89469 c 1.10438,-0.49208 2.98953,-1.17213 4.18924,-1.51124 1.1997,-0.3391 2.77659,-0.86395 3.5042,-1.16634 2.58399,-1.07389 4.19365,-1.26112 6.79097,-0.78992 1.65814,0.30082 1.54833,0.37206 2.72147,-1.76547 0.87465,-1.59366 1.35473,-1.97426 2.14349,-1.6993 0.76952,0.26826 2.55625,1.58603 3.59508,2.65149 l 0.87531,0.89775 h 1.86369 c 1.77605,0 1.92567,0.0298 3.18163,0.63276 0.72487,0.34802 1.76461,0.81475 2.31053,1.03718 l 0.99259,0.40442 1.03589,-0.56649 c 0.56973,-0.31157 1.57301,-0.89906 2.22949,-1.30552 1.62961,-1.00897 2.81314,-1.446 4.23986,-1.56561 1.32258,-0.11088 1.22816,-0.0328 2.8311,-2.34087 0.70116,-1.0096 1.5775,-1.53468 3.58645,-2.148887 1.45809,-0.445793 2.17578,-0.551309 4.55315,-0.669407 1.55222,-0.07711 3.5366,-0.276736 4.40972,-0.443623 1.97241,-0.377001 3.5028,-0.281074 4.03692,0.25304 0.2776,0.277608 0.37525,0.604536 0.38629,1.293307 0.0214,1.33534 0.0214,1.33546 0.64797,1.71747 0.43255,0.26373 0.88855,0.34968 1.85775,0.35018 1.45088,7.1e-4 2.41836,-0.32137 2.59006,-0.86234 0.17187,-0.54151 -0.27087,-1.29167 -0.87593,-1.484144 -0.67452,-0.214569 -1.14653,-0.624955 -1.14653,-0.99683 0,-0.159877 0.44642,-1.000857 0.99205,-1.868842 0.54563,-0.867985 1.39881,-2.395056 1.89595,-3.393492 l 0.9039,-1.815334 1.85231,-0.939405 c 3.14029,-1.592605 3.35335,-1.53383 3.53346,0.974774 0.12866,1.791835 0.53855,3.170391 1.54108,5.182802 0.94851,1.904021 1.05732,1.880372 1.62877,-0.353944 0.21101,-0.825045 0.88194,-2.377024 1.75798,-4.066473 0.7792,-1.50271 1.41672,-2.939117 1.41672,-3.192016 0,-0.642968 -0.61664,-1.570809 -1.19218,-1.793856 -0.26594,-0.103057 -0.99945,-0.314193 -1.63004,-0.469189 -1.47368,-0.362225 -2.92045,-1.025698 -3.14189,-1.44082 -0.0954,-0.178952 -0.23199,-1.385595 -0.30341,-2.681426 l -0.12989,-2.356056 -0.81418,-0.504046 c -1.20905,-0.748522 -1.19124,-0.717222 -1.31201,-2.305642 -0.21484,-2.825523 -0.70123,-6.505563 -0.89474,-6.76958 -0.1072,-0.146253 -1.49498,-0.701834 -3.08395,-1.234627 -3.35611,-1.125321 -6.41487,-2.539836 -6.816,-3.152049 -0.15238,-0.232554 -0.32143,-0.696274 -0.37566,-1.030488 -0.12259,-0.755417 0.49233,-3.072181 1.12296,-4.230857 0.54798,-1.006812 3.58761,-4.009612 5.0865,-5.024871 1.28037,-0.867241 2.53539,-2.196855 4.30271,-4.558454 3.57059,-4.771245 3.75345,-4.915313 7.73044,-6.090772 2.57655,-0.761532 2.57836,-0.762443 3.77185,-1.888313 1.08921,-1.027522 2.26555,-2.528201 2.26555,-2.890236 0,-0.355575 -0.48322,-0.07542 -1.43376,0.831229 -1.74242,1.662002 -3.47749,2.247431 -7.51551,2.535835 -1.52237,0.10873 -2.70303,0.280141 -2.99861,0.435342 -0.43522,0.228526 -2.18261,1.968996 -6.6756,6.64914 -2.80229,2.919023 -6.66099,4.608682 -9.92633,4.346571 -1.04677,-0.08402 -1.58242,-0.303752 -5.40021,-2.215227 -4.62617,-2.316212 -5.21978,-2.538642 -9.26526,-3.471769 -1.50371,-0.346846 -4.36939,-1.074658 -6.36816,-1.617363 l -3.63414,-0.986735 -0.99044,0.453439 c -0.54474,0.249391 -1.40195,0.836022 -1.90491,1.303623 -2.21732,2.061457 -2.44231,3.02952 -1.11458,4.795782 0.99564,1.324491 1.23544,2.049728 0.8648,2.615397 -0.14644,0.223502 -0.41511,0.406367 -0.59704,0.406367 -0.18193,0 -1.07307,0.37149 -1.98031,0.825535 -1.38402,0.69266 -1.92106,1.097232 -3.33652,2.513542 -0.99058,0.991175 -2.35244,2.634611 -3.29897,3.981062 -3.34083,4.752366 -10.82239,11.837564 -16.10528,15.252063 -1.22831,0.793896 -1.59995,0.854932 -2.36848,0.388992 -0.29104,-0.176452 -1.09855,-0.543496 -1.79447,-0.815657 l -1.26531,-0.494836 -5.61386,0.08671 c -3.08762,0.04769 -5.76223,0.149346 -5.94358,0.225899 -0.31497,0.132962 -0.32393,0.05056 -0.20032,-1.841592 l 0.1294,-1.980782 -0.54933,-0.764929 c -0.64822,-0.902616 -0.70656,-1.752255 -0.28475,-4.146842 0.14525,-0.824618 0.26421,-1.825854 0.26434,-2.224969 1.8e-4,-0.642675 -0.0754,-0.776094 -0.66122,-1.16662 -1.71237,-1.141543 -6.96119,-4.229321 -7.88007,-4.635693 -1.39058,-0.614979 -8.39399,-2.769346 -8.66478,-2.665432 -0.60197,0.230998 -2.66765,5.701547 -3.59124,9.510713 -0.78163,3.223648 -1.04248,5.295805 -1.179,9.365772 -0.10745,3.203618 -0.16495,3.727179 -0.43948,4.001705 -0.36319,0.363192 -0.47524,0.341755 -3.499026,-0.669384 -2.00403,-0.670142 -2.94221,-0.707442 -5.76088,-0.229049 l -1.24887,0.211961 -2.4553,-0.817226 c -2.90529,-0.966997 -4.74807,-1.454612 -6.09589,-1.613021 l -0.98342,-0.115583 -0.58821,1.035567 c -0.72016,1.267878 -2.33311,2.983421 -3.86911,4.115201 -0.97952,0.721748 -3.5496,2.246282 -5.36543,3.182701 -0.55448,0.285947 -1.06912,0.918624 -1.24549,1.53116 -0.0858,0.298116 0.0387,0.517369 0.55092,0.970138 1.60448,1.418194 2.39102,2.178273 2.53767,2.452295 0.1843,0.344367 -0.17475,1.758759 -1.34552,5.300338 -0.4373,1.322837 -0.93198,2.529036 -1.09927,2.680436 -0.1673,0.1514 -0.77024,0.37877 -1.33985,0.50526 l -1.03566,0.22998 1.69394,1.28996 c 1.73555,1.32164 2.79279,2.53393 3.83696,4.39966 0.36544,0.65298 1.37313,1.8037 2.83455,3.2369 1.7787,1.74434 2.26753,2.32475 2.26753,2.69233 0,0.25772 -0.43599,1.45384 -0.96888,2.65804 -0.53288,1.20419 -1.23753,2.85014 -1.56589,3.65767 -1.11505,2.74224 -1.15382,2.78258 -2.35396,2.44931 -0.36714,-0.10196 -0.80079,-0.18582 -0.96368,-0.18636 -0.33953,-10e-4 -0.45759,0.361 -1.75359,5.37888 -0.47607,1.84326 -1.11534,4.16547 -1.42061,5.16045 -0.30527,0.99499 -0.50772,1.85638 -0.44989,1.91421 0.0578,0.0578 0.88416,-0.10244 1.83631,-0.35614 5.52565,-1.47234 7.20297,-1.86782 7.92172,-1.86782 0.89054,0 5.26415,0.9176 8.83904,1.85448 3.50216,0.91781 5.08406,1.14413 7.99735,1.14413 h 2.60782 l 2.352056,1.25562 c 1.29363,0.6906 2.57034,1.41038 2.83713,1.59951 0.56783,0.40256 0.62227,0.94946 0.20959,2.10568 -0.15151,0.4245 -0.58302,2.04183 -0.9589,3.59405 -0.80043,3.30539 -1.81581,6.32857 -2.91704,8.68514 -0.43311,0.92682 -0.78747,1.82572 -0.78747,1.99753 0,0.50428 0.66885,1.92006 1.33724,2.83059 0.83495,1.13742 1.84579,1.8462 3.30182,2.31515 1.446,0.46571 1.73418,0.73075 2.76105,2.53928 0.95106,1.675 1.05103,2.48737 0.64355,5.22966 -0.47571,3.20152 -0.28601,6.90242 0.38781,7.56586 0.70128,0.69048 3.24941,1.05899 4.64397,0.67163 z m 23.34887,-4.56846"
       id="path30247" /></g></svg>
